<?xml version="1.0" encoding="UTF-8" standalone="no"?>
<!-- Created with Inkscape (http://www.inkscape.org/) -->

<svg
   version="1.1"
   id="svg1"
   width="666.66669"
   height="490.80399"
   viewBox="0 0 666.66669 490.80399"
   sodipodi:docname="Heaven Archive Logo.ai"
   xmlns:inkscape="http://www.inkscape.org/namespaces/inkscape"
   xmlns:sodipodi="http://sodipodi.sourceforge.net/DTD/sodipodi-0.dtd"
   xmlns="http://www.w3.org/2000/svg"
   xmlns:svg="http://www.w3.org/2000/svg">
  <defs
     id="defs1">
    <clipPath
       clipPathUnits="userSpaceOnUse"
       id="clipPath2">
      <path
         d="M 0,368.103 H 500 V 0 H 0 Z"
         transform="translate(-465.33861,-248.70771)"
         id="path2" />
    </clipPath>
    <clipPath
       clipPathUnits="userSpaceOnUse"
       id="clipPath4">
      <path
         d="M 0,368.103 H 500 V 0 H 0 Z"
         transform="translate(-453.93631,-245.0392)"
         id="path4" />
    </clipPath>
    <clipPath
       clipPathUnits="userSpaceOnUse"
       id="clipPath6">
      <path
         d="M 0,368.103 H 500 V 0 H 0 Z"
         transform="translate(-441.92651,-241.2175)"
         id="path6" />
    </clipPath>
    <clipPath
       clipPathUnits="userSpaceOnUse"
       id="clipPath8">
      <path
         d="M 0,368.103 H 500 V 0 H 0 Z"
         transform="translate(-424.85331,-187.51821)"
         id="path8" />
    </clipPath>
    <clipPath
       clipPathUnits="userSpaceOnUse"
       id="clipPath10">
      <path
         d="M 0,368.103 H 500 V 0 H 0 Z"
         transform="translate(-383.89921,-195.6603)"
         id="path10" />
    </clipPath>
    <clipPath
       clipPathUnits="userSpaceOnUse"
       id="clipPath12">
      <path
         d="M 0,368.103 H 500 V 0 H 0 Z"
         transform="translate(-330.58961,-132.6183)"
         id="path12" />
    </clipPath>
    <clipPath
       clipPathUnits="userSpaceOnUse"
       id="clipPath14">
      <path
         d="M 0,368.103 H 500 V 0 H 0 Z"
         transform="translate(-307.66281,-185.2341)"
         id="path14" />
    </clipPath>
    <clipPath
       clipPathUnits="userSpaceOnUse"
       id="clipPath16">
      <path
         d="M 0,368.103 H 500 V 0 H 0 Z"
         transform="translate(-272.3533,-119.2141)"
         id="path16" />
    </clipPath>
    <clipPath
       clipPathUnits="userSpaceOnUse"
       id="clipPath18">
      <path
         d="M 0,368.103 H 500 V 0 H 0 Z"
         transform="translate(-198.73461,-126.89181)"
         id="path18" />
    </clipPath>
    <clipPath
       clipPathUnits="userSpaceOnUse"
       id="clipPath20">
      <path
         d="M 0,368.103 H 500 V 0 H 0 Z"
         transform="translate(-116.68821,-92.8195)"
         id="path20" />
    </clipPath>
    <clipPath
       clipPathUnits="userSpaceOnUse"
       id="clipPath22">
      <path
         d="M 0,368.103 H 500 V 0 H 0 Z"
         transform="translate(-360.79761,-216.1486)"
         id="path22" />
    </clipPath>
    <clipPath
       clipPathUnits="userSpaceOnUse"
       id="clipPath24">
      <path
         d="M 0,368.103 H 500 V 0 H 0 Z"
         transform="translate(-316.25761,-255.02751)"
         id="path24" />
    </clipPath>
    <clipPath
       clipPathUnits="userSpaceOnUse"
       id="clipPath26">
      <path
         d="M 0,368.103 H 500 V 0 H 0 Z"
         transform="translate(-271.55931,-279.5632)"
         id="path26" />
    </clipPath>
    <clipPath
       clipPathUnits="userSpaceOnUse"
       id="clipPath28">
      <path
         d="M 0,368.103 H 500 V 0 H 0 Z"
         transform="translate(-217.72,-200.98701)"
         id="path28" />
    </clipPath>
    <clipPath
       clipPathUnits="userSpaceOnUse"
       id="clipPath30">
      <path
         d="M 0,368.103 H 500 V 0 H 0 Z"
         transform="translate(-161.9827,-228.09051)"
         id="path30" />
    </clipPath>
    <clipPath
       clipPathUnits="userSpaceOnUse"
       id="clipPath32">
      <path
         d="M 0,368.103 H 500 V 0 H 0 Z"
         transform="translate(-112.89921,-267.99921)"
         id="path32" />
    </clipPath>
  </defs>
  <sodipodi:namedview
     id="namedview1"
     pagecolor="#ffffff"
     bordercolor="#000000"
     borderopacity="0.25"
     inkscape:showpageshadow="2"
     inkscape:pageopacity="0.0"
     inkscape:pagecheckerboard="0"
     inkscape:deskcolor="#d1d1d1">
    <inkscape:page
       x="0"
       y="0"
       inkscape:label="1"
       id="page1"
       width="666.66669"
       height="490.80399"
       margin="6.1040002e-05 0 0"
       bleed="0" />
  </sodipodi:namedview>
  <g
     id="layer-MC0"
     inkscape:groupmode="layer"
     inkscape:label="Layer 1">
    <path
       id="path1"
       d="m 0,0 c 1.646,7.146 2.475,14.489 2.475,21.961 0,53.726 -43.708,97.434 -97.434,97.434 -21.545,0 -41.966,-6.892 -59.057,-19.93 -8.58,-6.545 -16.011,-14.513 -21.981,-23.446 -15.52,10.005 -33.72,15.465 -52.653,15.465 -30.966,0 -59.704,-14.924 -77.804,-38.926 -16.644,11.168 -36.367,17.292 -56.829,17.292 -56.274,0 -102.056,-45.782 -102.056,-102.055 0,-31.898 14.626,-61.279 39.148,-80.403 -3.874,-10.912 -5.88,-22.467 -5.88,-34.159 0,-56.21 45.731,-101.941 101.941,-101.941 22.337,0 43.552,7.098 61.35,20.526 9.821,7.409 18.233,16.604 24.794,26.951 14.231,-7.867 30.292,-12.048 46.994,-12.048 34.196,0 65.367,18.08 82.818,46.15 14.366,-7.451 30.403,-11.412 46.896,-11.412 56.21,0 101.939,45.731 101.939,101.957 C 34.639,-46.865 21.915,-19.209 0,0"
       style="fill:#00b3f0;fill-opacity:1;fill-rule:nonzero;stroke:none"
       transform="matrix(1.3333333,0,0,-1.3333333,620.45147,159.19373)"
       clip-path="url(#clipPath2)" />
    <path
       id="path3"
       d="m 0,0 c 2.529,8.249 3.808,16.837 3.808,25.629 0,48.173 -39.192,87.365 -87.365,87.365 -33.203,0 -63.341,-19.109 -78.005,-48.003 -15.53,12.908 -35.126,20.092 -55.686,20.092 -31.217,0 -59.905,-16.914 -75.351,-43.297 -16.481,13.902 -37.414,21.663 -59.281,21.663 -50.722,0 -91.986,-41.265 -91.986,-91.986 0,-31.293 15.618,-59.901 41.357,-76.823 -5.314,-11.808 -8.09,-24.679 -8.09,-37.739 0,-50.657 41.213,-91.871 91.871,-91.871 20.131,0 39.249,6.396 55.286,18.495 11.545,8.71 20.928,20.153 27.269,33.066 14.681,-10.481 32.2,-16.132 50.583,-16.132 34.043,0 64.741,19.98 78.97,50.016 14.961,-9.926 32.543,-15.278 50.744,-15.278 50.657,0 91.87,41.214 91.87,91.879 C 35.972,-44.057 22.654,-17.349 0,0"
       style="fill:#ffffff;fill-opacity:1;fill-rule:nonzero;stroke:none"
       transform="matrix(1.3333333,0,0,-1.3333333,605.2484,164.08507)"
       clip-path="url(#clipPath4)" />
    <path
       id="path5"
       d="m 0,0 c 3.747,9.082 5.793,19.013 5.793,29.451 0,42.716 -34.623,77.341 -77.34,77.341 -35.245,0 -64.972,-23.566 -74.306,-55.799 -14.163,17.036 -35.498,27.888 -59.385,27.888 -33.175,0 -61.454,-20.922 -72.374,-50.303 -15.036,17.541 -37.36,28.669 -62.259,28.669 -45.269,0 -81.962,-36.693 -81.962,-81.962 0,-31.819 18.117,-59.385 44.602,-72.972 -7.196,-12.186 -11.334,-26.416 -11.334,-41.59 0,-45.2 36.647,-81.847 81.847,-81.847 36.968,0 68.236,24.531 78.375,58.189 14.001,-14.047 33.359,-22.761 54.763,-22.761 35.406,0 65.248,23.796 74.398,56.259 14.577,-13.357 33.98,-21.52 55.316,-21.52 45.199,0 81.846,36.648 81.846,81.847 C 37.957,-40.05 22.807,-14.53 0,0"
       style="fill:#130c0e;fill-opacity:1;fill-rule:nonzero;stroke:none"
       transform="matrix(1.3333333,0,0,-1.3333333,589.23533,169.18067)"
       clip-path="url(#clipPath6)" />
    <path
       id="path7"
       d="M 0,0 C 4.433,1.67 13.71,4.165 21.503,5.855 V 29.979 L -17.442,20.988 V -43.49 l 38.883,8.978 v 10.741 c -5.113,-1.34 -15.648,-3.319 -20.287,-4.103 -5.649,-0.948 -6.453,6.248 -0.206,8.309 3.587,1.175 10.164,2.741 15.298,4.185 v 8.271 C 11.566,-8.057 5.236,-9.154 0.247,-9.855 -5.937,-10.741 -7.01,-2.639 0,0"
       style="fill:#f15a22;fill-opacity:1;fill-rule:nonzero;stroke:none"
       transform="matrix(1.3333333,0,0,-1.3333333,566.47107,240.77973)"
       clip-path="url(#clipPath8)" />
    <path
       id="path9"
       d="m 0,0 c 0,0 -3.672,-24.194 -6.933,-35.375 -0.931,-3.195 -3.183,-8.083 -6.247,-1.094 -1.097,2.504 -4.353,14.199 -6.744,29.278 l -10.575,-2.441 c 0.926,-10.368 6.002,-38.37 12.767,-54.684 l 20.509,4.735 c 7.55,19.979 12.079,41.082 13.619,63.367 z"
       style="fill:#f15a22;fill-opacity:1;fill-rule:nonzero;stroke:none"
       transform="matrix(1.3333333,0,0,-1.3333333,511.8656,229.9236)"
       clip-path="url(#clipPath10)" />
    <path
       id="path11"
       d="m 0,0 v 65.112 l 16.429,3.793 V 3.793 Z"
       style="fill:#f15a22;fill-opacity:1;fill-rule:nonzero;stroke:none"
       transform="matrix(1.3333333,0,0,-1.3333333,440.78613,313.9796)"
       clip-path="url(#clipPath12)" />
    <path
       id="path13"
       d="m 0,0 c -0.062,-10.514 -0.042,-20.101 -0.495,-23.606 -1.052,-8.371 -15.359,-12.144 -16.061,-4.433 -0.33,3.628 -0.619,8.422 -0.619,19.122 l -11.565,-2.669 v -70.51 l 14.741,3.403 c 0,11.194 0,16.059 0.186,19.894 0.514,10.102 15.689,12.39 17.008,3.608 0.598,-4 0.701,-5.918 0.701,-14.947 l 11.751,2.713 V 3.613 Z"
       style="fill:#f15a22;fill-opacity:1;fill-rule:nonzero;stroke:none"
       transform="matrix(1.3333333,0,0,-1.3333333,410.21707,243.8252)"
       clip-path="url(#clipPath14)" />
    <path
       id="path15"
       d="m 0,0 c -1.282,-5.229 -3.65,-10.412 -7.005,-15.135 -13.617,-19.128 -36.311,-12.427 -41.836,3.663 -6.217,17.706 0.986,43.543 21.609,48.305 C -11.248,40.523 0,27.628 0.79,12.616 l -16.676,-3.85 c -1.578,8.614 -8.682,10.921 -14.504,6.617 -4.933,-3.704 -7.499,-10.809 -7.499,-18.604 0,-12.235 15.886,-19.224 21.707,-4.955 0.592,1.617 1.085,3.211 1.283,4.737 z"
       style="fill:#f15a22;fill-opacity:1;fill-rule:nonzero;stroke:none"
       transform="matrix(1.3333333,0,0,-1.3333333,363.13773,331.85187)"
       clip-path="url(#clipPath16)" />
    <path
       id="path17"
       d="m 0,0 c 0,5.876 -6.091,9.6 -14.746,6.853 -2.991,-0.904 -3.632,-3.831 -3.632,-7.143 v -4.702 c 0,-4.808 2.243,-7.068 6.304,-6.13 C -4.274,-9.215 0,-5.45 0,0 m -0.106,-14.771 c 1.709,-1.422 16.134,-16.256 16.134,-16.256 l -16.562,-3.825 c -5.342,5.286 -12.823,12.64 -14.105,13.734 -1.816,1.611 -3.739,2.022 -3.739,-0.65 v -15.203 l -10.9,-2.516 v 66.921 c 25.538,9.101 46.482,2.929 46.482,-18.441 0,-10.578 -7.587,-20.13 -17.31,-23.764"
       style="fill:#f15a22;fill-opacity:1;fill-rule:nonzero;stroke:none"
       transform="matrix(1.3333333,0,0,-1.3333333,264.97947,321.61493)"
       clip-path="url(#clipPath18)" />
    <path
       id="path19"
       d="m 0,0 c 0.306,3.549 1.897,11.074 2.509,13.645 1.285,5.323 3.977,7.923 7.067,8.382 4.987,0.795 7.403,-2.845 9.331,-12.023 0.184,-0.857 0.704,-2.723 0.918,-5.232 0.428,-5.109 -1.16,-6.238 -5.017,-7.127 L 3.947,-4.863 C 1.217,-5.493 -0.336,-3.794 0,0 m -4.1,-26.341 c 0.857,4.13 3.091,7.083 7.527,8.107 3.652,0.843 10.449,2.413 12.849,2.966 3.435,0.793 6.578,-1.926 7.679,-6.515 0.45,-1.877 0.981,-4.236 1.459,-6.449 l 22.13,5.109 C 44.687,-2.597 39.155,21.006 33.837,38.425 28.146,57.087 23.54,61.693 12.207,59.076 2.216,56.77 -3.464,51.568 -8.229,33.316 -12.91,15.389 -18.05,-10.225 -22.211,-39.228 l 16.46,3.8 c 0.306,2.295 0.856,4.988 1.651,9.087"
       style="fill:#f15a22;fill-opacity:1;fill-rule:nonzero;stroke:none"
       transform="matrix(1.3333333,0,0,-1.3333333,155.58427,367.04467)"
       clip-path="url(#clipPath20)" />
    <path
       id="path21"
       d="m 0,0 0.032,16.151 c 0.024,11.98 3.295,12.76 8.048,8.408 3.25,-2.976 7.564,-9.196 14.04,-19.452 l 20.206,4.664 v 95.258 l -17.857,-4.123 c 0,0 -0.14,-36.348 -0.592,-42.742 C 23.17,48.176 20.486,47.909 18.203,49.407 13.646,52.396 5.132,69.419 -2.491,84.222 L -13.613,81.655 V -3.143 Z"
       style="fill:#faa61a;fill-opacity:1;fill-rule:nonzero;stroke:none"
       transform="matrix(1.3333333,0,0,-1.3333333,481.06347,202.60587)"
       clip-path="url(#clipPath22)" />
    <path
       id="path23"
       d="M 0,0 C 4.632,1.745 14.325,4.352 22.468,6.118 V 31.324 L -18.224,21.929 V -45.44 l 40.627,9.379 v 11.224 c -5.341,-1.401 -16.349,-3.469 -21.196,-4.287 -5.902,-0.991 -6.743,6.527 -0.216,8.681 3.748,1.228 10.62,2.865 15.984,4.373 v 8.642 C 12.085,-8.419 5.472,-9.564 0.259,-10.297 -6.204,-11.223 -7.324,-2.757 0,0"
       style="fill:#faa61a;fill-opacity:1;fill-rule:nonzero;stroke:none"
       transform="matrix(1.3333333,0,0,-1.3333333,421.6768,150.76733)"
       clip-path="url(#clipPath24)" />
    <path
       id="path25"
       d="m 0,0 c 0,0 -4.317,-28.447 -8.151,-41.593 -1.096,-3.757 -3.744,-9.504 -7.345,-1.286 -1.29,2.943 -5.119,16.695 -7.93,34.424 l -12.434,-2.871 c 1.089,-12.19 7.058,-45.114 15.01,-64.295 l 24.116,5.568 c 8.877,23.49 14.202,48.302 16.012,74.504 z"
       style="fill:#faa61a;fill-opacity:1;fill-rule:nonzero;stroke:none"
       transform="matrix(1.3333333,0,0,-1.3333333,362.07907,118.05307)"
       clip-path="url(#clipPath26)" />
    <path
       id="path27"
       d="m 0,0 -8.413,-1.942 c -2.114,-0.489 -3.317,0.828 -3.057,3.767 0.237,2.749 1.47,8.578 1.944,10.569 0.995,4.123 3.08,6.137 5.474,6.493 3.863,0.616 5.735,-2.204 7.227,-9.313 C 3.318,8.91 3.721,7.464 3.886,5.521 4.218,1.564 2.988,0.689 0,0 M 14.74,31.589 C 10.333,46.044 6.764,49.612 -2.014,47.585 -9.753,45.798 -14.153,41.77 -17.844,27.631 -21.47,13.745 -25.479,-6.102 -28.702,-28.567 l 12.777,2.949 c 0.237,1.778 0.664,3.864 1.28,7.038 0.663,3.2 2.393,5.487 5.83,6.281 l 9.953,2.298 c 2.66,0.614 5.094,-1.493 5.947,-5.047 0.569,-2.37 1.304,-5.732 1.754,-7.983 l 16.92,3.906 C 23.698,-2.56 19.124,17.228 14.74,31.589"
       style="fill:#faa61a;fill-opacity:1;fill-rule:nonzero;stroke:none"
       transform="matrix(1.3333333,0,0,-1.3333333,290.29333,222.82133)"
       clip-path="url(#clipPath28)" />
    <path
       id="path29"
       d="M 0,0 C 4.631,1.745 14.325,4.352 22.468,6.118 V 31.324 L -18.224,21.929 V -45.44 l 40.627,9.379 v 11.224 c -5.342,-1.401 -16.35,-3.469 -21.197,-4.287 -5.902,-0.991 -6.742,6.527 -0.215,8.681 3.748,1.228 10.62,2.865 15.984,4.373 v 8.642 C 12.085,-8.419 5.472,-9.564 0.258,-10.297 -6.204,-11.223 -7.324,-2.757 0,0"
       style="fill:#faa61a;fill-opacity:1;fill-rule:nonzero;stroke:none"
       transform="matrix(1.3333333,0,0,-1.3333333,215.97693,186.68333)"
       clip-path="url(#clipPath30)" />
    <path
       id="path31"
       d="m 0,0 c 0,-14.373 0.073,-22.131 -1.896,-29.18 -1.196,-4.281 -3.83,-7.54 -7.345,-10.008 -3.581,-2.513 -7.171,-3.614 -10.687,-3.683 -4.287,-0.085 -7.421,2.248 -7.879,7.011 -0.657,6.843 -0.614,15.491 -0.614,27.474 l -15.56,-3.593 v -102.987 l 21.373,4.935 c 0,13.488 0.276,20.43 1.939,26.632 1.133,4.225 4.214,7.792 7.326,9.893 3.636,2.456 6.981,3.684 10.504,3.741 4.281,0.069 7.532,-2.141 7.937,-6.41 0.591,-6.256 0.63,-14.762 0.63,-26.37 l 15.837,3.656 V 4.979 Z"
       style="fill:#faa61a;fill-opacity:1;fill-rule:nonzero;stroke:none"
       transform="matrix(1.3333333,0,0,-1.3333333,150.53227,133.47173)"
       clip-path="url(#clipPath32)" />
  </g>
</svg>
