<?xml version="1.0" encoding="UTF-8"?>
<svg width="667px" height="497px" viewBox="0 0 667 497" version="1.1" xmlns="http://www.w3.org/2000/svg" xmlns:xlink="http://www.w3.org/1999/xlink">
    <title>Group 2</title>
    <g id="Page-1" stroke="none" stroke-width="1" fill="none" fill-rule="evenodd">
        <g id="Group-2" transform="translate(-0.0003, 0.0007)" fill-rule="nonzero">
            <path d="M652.431984,351.443991 C652.431984,431.347989 587.426652,496.354654 507.522654,496.354654 C460.955988,496.354654 418.021323,474.106655 391.066657,437.721322 C372.383991,447.055989 351.646658,452.021322 330.459992,452.021322 C302.471992,452.021322 275.597326,443.555989 252.74266,427.539989 C240.890661,419.23599 230.559994,409.22799 222.025328,397.86799 C199.099995,412.253323 172.334662,420.137323 144.910663,420.137323 C65.006665,420.137323 0,355.130658 0,275.22666 C0,243.103994 10.2986664,212.671995 29.7813326,187.217329 C43.3893322,169.437329 61.1053318,154.990663 81.0773313,145.14133 C80.803998,141.643996 80.667998,138.130663 80.667998,134.611997 C80.667998,60.3866652 141.054663,0 215.278661,0 C243.125327,0 269.853327,8.43733312 292.574659,24.3973327 C306.090659,33.8919992 317.606659,45.6159989 326.711992,59.0426652 C341.907991,53.2999987 358.093324,50.3306654 374.625324,50.3306654 C416.23599,50.3306654 455.334655,69.7733316 480.761321,101.609331 C497.498654,94.1466643 515.662654,90.2786644 534.44932,90.2786644 C607.354651,90.2786644 666.66665,149.590663 666.66665,222.494661 C666.66665,250.099994 658.197317,276.541326 642.510651,298.709326 C649.035984,315.438659 652.431984,333.362658 652.431984,351.443991 Z" id="path20" fill="#00B3F0" transform="translate(333.3333, 248.1773) scale(-1, 1) rotate(-180) translate(-333.3333, -248.1773)"></path>
            <path d="M625.189318,296.560393 C633.162651,313.661725 637.342651,332.451058 637.342651,351.443058 C637.342651,423.027056 579.105319,481.264388 507.522654,481.264388 C461.265322,481.264388 419.009323,456.761722 395.83199,417.65639 C376.459991,430.171056 353.765324,436.931056 330.459992,436.931056 C305.586659,436.931056 281.70666,429.411056 261.40266,415.181723 C246.789327,404.941723 234.777327,391.79239 226.018661,376.563057 C203.139995,394.833723 174.449329,405.047057 144.910663,405.047057 C73.3279982,405.047057 15.089333,346.809725 15.089333,275.22706 C15.089333,221.739061 48.3679988,173.701729 97.3933309,154.385729 C96.3053309,147.86973 95.7573309,141.255063 95.7573309,134.612397 C95.7573309,68.7070649 149.374663,15.089733 215.278661,15.089733 C240.003994,15.089733 263.733327,22.5777328 283.901326,36.7443991 C299.355993,47.6017321 311.866659,61.7390651 320.654659,78.156398 C337.321325,69.7883983 355.717324,65.4203984 374.625324,65.4203984 C415.753323,65.4203984 454.117322,86.7897312 476.079988,120.919064 C493.755988,110.705731 513.66932,105.368397 534.44932,105.368397 C599.033318,105.368397 651.575984,157.911063 651.575984,222.495061 C651.575984,249.729727 642.270651,275.688393 625.189318,296.560393" id="path24" fill="#FFFFFF" transform="translate(333.3327, 248.1771) scale(-1, 1) rotate(-180) translate(-333.3327, -248.1771)"></path>
            <path d="M609.370251,294.552926 C618.791585,311.383592 624.170251,330.784925 624.170251,351.444925 C624.170251,415.86759 571.944919,468.091588 507.522254,468.091588 C459.568922,468.091588 418.380923,439.151589 400.452923,397.78759 C381.662257,413.97159 357.204924,423.758256 330.459592,423.758256 C284.70226,423.758256 245.639594,395.114257 230.210261,354.780924 C208.918261,377.600924 178.583596,391.874257 144.910263,391.874257 C80.4889313,391.874257 28.2635993,339.650258 28.2635993,275.227593 C28.2635993,221.947594 63.9849317,177.012929 112.784931,163.062263 C110.276931,154.006263 108.930264,144.466263 108.930264,134.61293 C108.930264,75.8782648 156.544929,28.2635993 215.278261,28.2635993 C260.716927,28.2635993 299.491593,56.7635993 314.722259,96.8595976 C331.830258,85.3275979 352.440925,78.5942647 374.626257,78.5942647 C417.36759,78.5942647 454.270255,103.586264 471.524922,139.75293 C488.992921,126.447597 510.796921,118.542264 534.450253,118.542264 C591.862252,118.542264 638.403584,165.083596 638.403584,222.495594 C638.403584,250.472927 627.347584,275.86626 609.370251,294.552926" id="path28" fill="#130C0E" transform="translate(333.3336, 248.1776) scale(-1, 1) rotate(-180) translate(-333.3336, -248.1776)"></path>
            <path d="M620.236784,303.889487 L620.236784,308.972792 C620.236784,309.417939 619.875922,309.778802 619.430775,309.778802 C619.0574,309.778802 618.732902,309.522368 618.646594,309.159105 L617.222547,303.16537 C616.950327,302.019609 616.052234,301.127142 614.904785,300.862126 C613.861942,300.62127 612.816878,301.254362 612.54744,302.290188 L611.343451,306.918792 C611.224187,307.377292 610.755817,307.652296 610.297317,307.533032 C609.919309,307.434705 609.655451,307.093432 609.655451,306.702845 L609.655451,301.468007 C609.655451,300.404288 608.921257,299.481342 607.884785,299.242126 C607.106865,299.062583 606.330689,299.547664 606.151147,300.325583 C606.126541,300.432196 606.114118,300.541258 606.114118,300.650674 L606.114118,312.464016 C606.114118,314.125749 607.260986,315.567603 608.880118,315.941459 C610.424474,316.298049 611.974478,315.370101 612.389579,313.840433 L614.976569,304.30724 C614.979671,304.295808 614.99123,304.28885 615.002785,304.291459 C615.015429,304.294314 615.025337,304.304131 615.028308,304.316749 L617.634546,315.383645 C618.027785,317.053463 619.335219,318.355046 621.006784,318.740792 C622.206209,319.017582 623.402917,318.26964 623.679707,317.070216 C623.717636,316.905856 623.736784,316.737722 623.736784,316.569043 L623.736784,304.697487 C623.736784,303.646156 623.011172,302.733946 621.986784,302.497459 C621.217989,302.319977 620.450879,302.799332 620.273397,303.568127 C620.249067,303.673516 620.236784,303.781326 620.236784,303.889487 Z M594.671452,298.181199 L594.671452,306.817252 C594.671452,308.10137 593.630468,309.142353 592.34635,309.142353 C592.170359,309.142353 591.994936,309.122372 591.823452,309.082792 L590.393505,308.752753 C589.770506,308.608962 589.148899,308.997436 589.005108,309.620435 C588.985401,309.705819 588.975452,309.793164 588.975452,309.880792 C588.975452,310.732697 589.563412,311.471877 590.39348,311.663527 L602.623441,314.487241 C603.246666,314.631134 603.868538,314.242559 604.012431,313.619334 C604.032159,313.533891 604.042118,313.446483 604.042118,313.358792 C604.042118,312.506541 603.453814,311.767106 602.623364,311.575573 L601.296118,311.269459 C599.688783,310.898745 598.550118,309.467569 598.550118,307.818036 L598.550118,299.077199 C598.550118,297.912049 597.746038,296.901044 596.610785,296.638793 C595.758938,296.44201 594.908855,296.973044 594.712072,297.824892 C594.685079,297.941739 594.671452,298.061275 594.671452,298.181199 Z" id="path32" fill="#FAA61A" transform="translate(606.3561, 307.7808) scale(-1, 1) rotate(-180) translate(-606.3561, -307.7808)"></path>
            <path d="M511.806653,69.6225284 L511.687331,88.7406285 C511.581683,101.489573 511.396733,116.658419 511.097319,120.889194 L511.034969,121.707914 C510.456401,128.782282 509.141441,131.698818 507.130653,132.05986 C506.127986,132.185193 505.127986,131.942527 504.290653,131.393193 C498.82532,127.80786 488.61332,107.389194 479.46932,89.6331945 C471.660516,91.4361269 466.12932,98.3899033 466.12932,106.40414 L466.12932,194.753404 C466.12932,198.394865 469.081307,201.346852 472.722768,201.346852 C473.221978,201.346852 473.719572,201.290157 474.205987,201.177858 C478.94184,200.084488 482.308911,195.8846 482.346132,191.024314 L482.49732,171.282526 C482.49732,165.446526 483.122653,161.570526 484.458653,159.735859 C484.918653,159.110526 485.667987,158.685193 486.379987,158.569193 C491.082653,157.803859 500.32532,169.739859 511.639986,188.746525 C524.275376,185.829045 533.225319,174.577104 533.225319,161.609267 L533.225319,86.6593602 C533.225319,77.0026337 525.396995,69.1743102 515.740269,69.1743102 C514.416323,69.1743102 513.09666,69.3246799 511.806653,69.6225284 Z M429.471588,200.142392 L429.27859,200.138656 L428.981025,200.120568 C427.832992,200.026652 425.24674,199.547899 424.920922,197.225059 C424.694255,195.606392 425.504921,194.139726 427.426255,192.890392 C429.095588,191.889059 431.642255,190.847726 435.066255,189.847726 L444.432805,187.383007 C448.435257,186.3298 451.224921,182.711096 451.224921,178.572393 L451.224921,173.867455 C451.224921,172.848952 450.399262,172.023293 449.38076,172.023293 C449.287682,172.023293 449.194805,172.03034 449.102921,172.044343 L448.965939,172.070553 L447.158742,172.46961 C441.405732,173.717163 431.148446,175.725358 427.175589,175.134393 C425.456921,174.878393 424.335588,173.966393 424.084922,172.382393 C423.876922,170.75706 424.670255,169.298393 426.590255,168.047726 C431.763588,164.678393 454.982254,159.670393 454.982254,159.670393 L454.982254,151.791849 C454.982254,141.014778 446.245712,132.278236 435.468641,132.278236 C433.991185,132.278236 432.518508,132.44603 431.078921,132.778394 C417.086714,136.008836 407.175589,148.468903 407.175589,162.829182 L407.175589,199.647158 C407.175589,210.650047 416.095193,219.569652 427.098083,219.569652 C428.60643,219.569652 430.109898,219.398357 431.579588,219.059058 L447.238283,215.444033 C452.357479,214.262196 455.983587,209.703572 455.983587,204.449725 L455.983587,198.831102 C455.983587,197.347861 454.781183,196.145456 453.297942,196.145456 C453.165785,196.145456 453.033898,196.155211 452.903353,196.174602 L452.708675,196.2109 L449.026721,197.017606 C439.765352,199.012157 433.264002,200.121864 429.471588,200.142392 Z M306.803672,178.614545 L307.987777,178.221019 L308.699188,177.999003 C313.270262,176.626843 320.754111,175.564379 327.279991,187.588393 C336.497324,204.568392 346.757324,256.500391 346.757324,256.500391 L335.484116,259.102797 C330.470162,260.260263 325.467045,257.209114 324.175831,252.262131 L324.085324,251.884391 C323.507991,249.233725 321.519991,247.899058 319.826658,248.091058 L319.328169,248.155288 L318.697198,248.252189 C317.029804,248.525419 314.717164,249.022441 312.423237,249.551043 L309.817181,250.165322 L305.496578,251.232138 C304.619389,251.454139 304.086658,251.592391 304.086658,251.592391 C300.002658,252.793724 297.322658,255.468391 296.570658,259.677724 L296.380728,260.742541 C295.553013,265.382993 292.036157,269.081822 287.443325,270.142391 L286.413566,270.380181 C283.917643,270.956535 281.42707,269.400417 280.850716,266.904493 C280.74553,266.448982 280.709935,265.980717 280.744663,265.51558 L280.773944,265.237001 L281.636934,259.127102 C282.675825,251.89132 284.098311,242.398189 285.699187,232.861776 L286.030722,230.903094 L286.485986,228.258343 L286.975236,225.482672 C288.34479,217.809011 289.79763,210.487836 291.222484,204.719703 L291.393325,204.035059 C296.485178,183.839659 301.357488,180.502678 306.803672,178.614545 Z M318.392133,224.753361 L318.362658,224.609725 C316.575991,215.759059 313.313324,212.493725 309.578658,213.015059 C306.665325,213.421725 304.186658,215.680392 302.926658,221.099059 L302.681886,222.186254 L302.503838,223.00964 C301.817546,226.225654 300.797325,231.470984 300.565325,234.227058 C300.247991,237.885725 301.745325,239.331058 304.307991,238.829725 C306.986658,238.328391 312.227991,237.000391 314.531991,236.499058 C318.159991,235.584392 319.599991,232.584392 319.254658,229.655058 L319.165314,228.950137 L319.063547,228.247463 C318.819734,226.661845 318.53947,225.459324 318.392133,224.753361 L318.392133,224.753361 Z M399.743722,110.344261 C397.573056,141.77226 391.185056,171.532259 380.538389,199.708258 L351.613057,206.385592 C342.07439,183.378926 334.91439,143.88826 333.609057,129.266927 L346.647826,126.257263 C347.61672,126.033619 348.583462,126.637763 348.807107,127.606656 L348.819676,127.665595 L349.343228,130.769872 C352.566185,149.412735 356.523478,163.558131 357.988015,167.006086 L358.285718,167.671105 C361.494227,174.584425 364.050475,172.272897 365.650662,168.826446 L365.776548,168.548651 C365.859106,168.362047 365.938926,168.172831 366.015961,167.982228 L366.129418,167.695437 C366.240776,167.407913 366.345817,167.118646 366.444384,166.831771 L366.540788,166.545846 C366.650729,166.213554 366.75179,165.886393 366.843723,165.570926 C368.223323,160.840526 369.655123,154.458446 370.983639,147.84143 L371.602423,144.70627 C374.414178,130.223091 376.621056,115.682927 376.621056,115.682927 L399.743722,110.344261 Z M238.876526,249.967191 C238.649859,248.348524 239.460526,246.881858 241.381859,245.632525 C243.051193,244.631191 245.597859,243.589858 249.021859,242.589858 L258.38841,240.125139 C262.390862,239.071932 265.180525,235.453228 265.180525,231.314525 L265.180525,226.840967 C265.180525,225.720169 264.27194,224.811584 263.151143,224.811584 C263.048971,224.811584 262.947018,224.819299 262.846151,224.834633 L262.695771,224.863334 L260.86141,225.266453 C255.065344,226.516957 245.046473,228.458925 241.131193,227.876525 C239.412526,227.620525 238.291193,226.708525 238.040526,225.124525 C237.832526,223.499192 238.625859,222.040525 240.545859,220.789859 C245.719193,217.420525 268.937859,212.412525 268.937859,212.412525 L268.937859,201.973981 C268.937859,191.19691 260.201316,182.460368 249.424245,182.460368 C247.946789,182.460368 246.474113,182.628162 245.034526,182.960526 C231.042318,186.190968 221.131193,198.651035 221.131193,213.011314 L221.131193,249.846473 C221.131193,260.849136 230.050614,269.768557 241.053277,269.768557 C242.561765,269.768557 244.065374,269.597225 245.535193,269.257857 L262.433333,265.356227 C266.827026,264.341762 269.939192,260.429146 269.939192,255.919858 L269.939192,250.917579 C269.939192,249.7246 268.972091,248.7575 267.779112,248.7575 C267.672603,248.7575 267.566312,248.765378 267.461107,248.781036 L267.304221,248.810349 L265.406935,249.23139 C255.054244,251.511903 247.83008,252.81069 243.672941,252.881737 L243.427193,252.884524 C242.932526,252.887191 239.268526,252.761858 238.876526,249.967191 Z M184.930661,156.776926 L184.99544,159.369299 L185.03249,161.060197 C185.342494,176.143727 185.005102,187.593423 182.842661,195.331592 C181.407994,200.467592 178.250661,204.376925 174.033328,207.335592 C169.738661,210.350258 165.431995,211.670258 161.215995,211.754258 C156.073328,211.855591 152.357328,209.854258 151.862662,204.459592 L151.769105,203.393697 L151.680146,202.292467 C151.05927,194.274105 150.798662,183.546543 151.027995,170.391593 C140.103588,172.91333 132.365329,182.641342 132.365329,193.853025 L132.365329,275.517194 C132.365329,287.07476 141.734587,296.444019 153.292153,296.444019 C154.678616,296.444019 156.061153,296.306235 157.419424,296.032984 C157.756133,295.96026 157.993413,295.658191 157.984324,295.313838 L157.956856,294.273093 L157.920795,292.667565 C157.622975,278.083283 158.229803,267.162031 160.087995,260.228924 C161.446661,255.15959 165.166661,250.870257 168.897328,248.348924 C173.258661,245.404924 177.490661,243.875591 181.715994,243.806257 C186.850661,243.723591 190.583994,246.103591 191.067994,251.224924 L191.154697,252.180031 L191.239216,253.191964 C191.829863,260.572744 192.094356,270.714143 191.902661,283.348923 C203.072225,280.770191 210.983994,270.823703 210.983994,259.360326 L210.983994,177.500853 C210.983994,165.754302 201.461533,156.231841 189.714982,156.231841 C188.104716,156.231841 186.499659,156.414708 184.930661,156.776926 Z" id="Shape" fill="#F15A22"></path>
            <path d="M594.924653,284.356683 L594.924653,208.699995 C594.924653,201.877484 589.393915,196.346747 582.571405,196.346747 C581.792032,196.346747 581.014759,196.420503 580.249956,196.566834 C579.967864,196.626359 579.740494,196.834636 579.656516,197.110438 L578.211528,201.856137 C578.175533,201.974354 578.139318,202.092504 578.102885,202.210587 L576.183777,208.430566 L576.183777,208.430566 C571.440486,223.682112 568.090123,233.535 565.224451,241.599169 L563.268654,247.045997 C561.271295,252.550777 555.189609,255.394105 549.684829,253.396746 C547.092362,252.456093 544.968398,250.54237 543.763586,248.061617 C538.635478,237.502731 533.5074,226.017076 528.379321,213.604664 C515.443589,216.590794 506.280655,228.109904 506.280655,241.385827 L506.280655,302.324245 C506.280655,310.586226 512.978314,317.283885 521.240295,317.283885 C522.210874,317.283885 523.178764,317.18943 524.130308,317.002074 C524.406554,316.943014 524.603358,316.698089 524.601549,316.415606 L524.580492,313.126554 C524.579518,312.974534 524.578892,312.822512 524.578612,312.67049 L524.571977,309.067258 L524.571977,309.067258 C524.58162,297.199629 524.907644,289.916159 525.648654,286.281996 C526.442226,282.422829 528.74058,281.816309 531.093596,285.491922 L531.221988,285.696663 C533.200654,288.901996 536.321988,295.840662 542.535321,310.108662 L549.837968,308.422643 C552.851298,307.726933 555.332346,305.613126 556.50259,302.764226 C556.577674,302.572685 556.651464,302.380639 556.723956,302.188102 L557.995195,298.811739 L557.995195,298.811739 C562.798154,286.112457 565.68434,279.143806 567.837987,275.413996 C567.952117,275.220955 568.068945,275.029521 568.188438,274.839752 L568.190473,274.83652 L568.190473,274.83652 C570.348531,271.514918 573.977026,269.562769 575.11132,275.943329 C575.162267,276.243206 575.210395,276.543555 575.255696,276.844336 L575.260431,276.875773 L575.260431,276.875773 C576.021834,282.247246 575.945708,292.282706 575.91932,308.249995 C587.044422,305.681403 594.924653,295.774457 594.924653,284.356683 Z M473.056256,245.455302 L473.056256,265.888929 C471.998922,276.178263 453.788256,280.534262 452.49759,269.728929 L452.468611,269.39231 C452.435674,269.009697 452.404941,268.626898 452.376413,268.243932 L452.312174,267.381549 L452.312174,267.381549 C451.995323,262.716507 451.82959,256.108414 451.82959,244.08093 C442.872789,246.148424 436.528257,254.124294 436.528257,263.316618 L436.528257,331.668438 C436.528257,336.398149 440.362445,340.232337 445.092156,340.232337 C445.740425,340.232337 446.386597,340.158729 447.018256,340.012928 C453.158683,338.595576 457.508256,333.127654 457.508256,326.825771 L457.508256,314.894262 C458.771496,298.643742 477.428244,297.588692 479.498629,308.869965 L479.556256,309.215595 C480.145589,312.887595 480.090922,318.687595 480.090922,330.662261 C489.046981,328.594758 495.390922,320.619475 495.390922,311.427873 L495.390922,240.299303 C495.390922,235.264307 491.309251,231.182636 486.274255,231.182636 C485.58406,231.182636 484.896097,231.261014 484.223589,231.416264 C477.686638,232.925331 473.056256,238.746427 473.056256,245.455302 Z M369.712792,290.036929 L369.712792,295.086748 C369.712792,301.45147 374.872418,306.611096 381.237139,306.611096 C381.964413,306.611096 382.689727,306.542252 383.403397,306.405667 L384.208034,306.231003 C389.420136,305.103303 391.340918,306.405107 391.389797,316.7592 L391.390124,359.149641 C391.390124,362.92041 394.446937,365.977223 398.217707,365.977223 C398.734596,365.977223 399.249814,365.918526 399.753458,365.802261 C404.649045,364.67212 408.116791,360.312648 408.116791,355.288307 L408.117625,317.773208 C408.11763,317.524136 408.118566,317.275065 408.120433,317.026001 L408.126462,316.221508 L408.126462,316.221508 C408.325281,297.672267 410.672485,293.445035 419.907898,291.170021 L420.494124,291.030263 C425.679701,289.832991 429.35279,285.215209 429.35279,279.89321 L429.35279,272.85693 C429.35279,265.771826 423.609178,260.028214 416.524074,260.028214 C415.55276,260.028214 414.584589,260.138526 413.638171,260.357029 L388.750658,266.102912 C377.606532,268.675803 369.712792,278.599651 369.712792,290.036929 Z M362.453459,279.090396 L353.255721,281.214009 C348.26402,282.366514 344.656232,286.687139 344.390948,291.779556 C344.383227,291.975977 344.376353,292.17243 344.370327,292.36891 L344.248543,296.339832 L344.248543,296.339832 C344.065727,302.047492 343.818767,308.748973 343.517459,314.582395 C342.484126,333.586395 322.162793,339.498395 321.036126,320.165062 L320.981273,319.023633 C320.967263,318.732098 320.95453,318.440504 320.943073,318.148857 L320.838198,315.47915 L320.838198,315.47915 C320.479558,305.207567 320.358793,290.954396 320.358793,290.954396 L307.755234,293.86351 C302.637163,295.044848 298.984122,299.539849 298.85058,304.765822 L298.846793,305.062395 C298.846793,340.663728 303.258793,353.221061 324.442793,350.422394 C329.457459,349.761061 333.262793,348.474394 337.490792,345.426394 C337.765459,345.253061 338.034792,345.279728 338.253459,345.426394 C338.706792,345.753061 339.192126,346.669061 338.444126,348.993061 C334.410793,361.511727 300.040127,364.777061 300.040127,364.777061 L300.031588,390.593913 C300.03121,391.736975 300.957539,392.664295 302.100601,392.664295 L302.177537,392.661456 C302.228809,392.659565 302.279993,392.655766 302.330983,392.650068 C302.381985,392.644369 302.432857,392.637566 302.483564,392.629666 L304.67719,392.287882 L304.67719,392.287882 C322.869915,389.384915 341.778579,384.568244 352.191343,367.715773 L352.530792,367.157061 C356.765459,360.174394 362.454792,346.049061 362.453459,279.090396 Z M266.700261,301.09684 L266.700261,320.516395 C265.696261,330.295061 248.388261,334.435061 247.161595,324.165728 L247.098351,323.39819 C247.054254,322.863016 247.014469,322.327496 246.978998,321.791682 L246.917146,320.857343 L246.917146,320.857343 C246.660392,316.485562 246.526928,310.325145 246.526928,299.789729 C238.014907,301.755002 231.985595,309.334988 231.985595,318.070937 L231.985595,383.031553 C231.985595,387.526445 235.629425,391.170275 240.124317,391.170275 C240.740448,391.170275 241.354585,391.10031 241.954928,390.961727 C247.7906,389.614613 251.924261,384.418025 251.924261,378.428886 L251.924261,367.089727 C253.124141,351.645728 270.855041,350.643174 272.822823,361.363937 L272.877594,361.692394 C273.437594,365.181727 273.385594,370.69506 273.385594,382.07506 C281.89745,380.110606 287.926927,372.531089 287.926927,363.795485 L287.926927,296.19684 C287.926927,291.411588 284.047714,287.532375 279.262462,287.532375 C278.60653,287.532375 277.952719,287.606859 277.313594,287.754396 C271.100948,289.188534 266.700261,294.720813 266.700261,301.09684 Z M169.751997,373.919727 C160.720577,376.222423 155.353512,371.462527 155.237904,359.481329 L155.237904,358.28306 C155.237904,358.033118 155.238841,357.783177 155.240715,357.533241 L155.244248,357.06208 L155.244248,357.06208 C155.345458,347.95138 156.65441,339.186395 173.343997,339.186395 C186.10533,339.186395 191.427996,345.647728 191.440038,352.937061 C191.451996,359.737061 183.674663,370.370394 169.751997,373.919727 Z M223.333329,333.482395 C223.333329,310.939729 206.725329,283.673063 137.230664,300.399729 L137.230664,413.714462 C137.230664,417.794299 140.538025,421.10166 144.617862,421.10166 C145.177063,421.10166 145.734456,421.038164 146.279331,420.912393 C151.576061,419.68977 155.327997,414.973135 155.327997,409.537129 L155.327997,396.91706 C155.327997,387.122997 161.164024,389.901162 163.327676,391.179937 L163.823997,391.483727 C166.42133,393.11706 171.846663,397.551727 184.734663,412.034393 L198.774182,408.793333 C203.959311,407.596332 207.192328,402.422594 205.995328,397.237465 C205.597867,395.515757 204.73462,393.936496 203.499996,392.672394 L191.96157,380.858479 C191.794203,380.687116 191.797443,380.412521 191.968806,380.245154 L191.999483,380.220228 C192.019892,380.203645 192.041772,380.188961 192.064852,380.176358 C192.087974,380.163732 192.111512,380.151885 192.135428,380.140837 L192.721911,379.869895 L192.721911,379.869895 C198.518626,377.124521 223.333329,363.612468 223.333329,333.482395 Z" id="Shape" fill="#FAA61A"></path>
        </g>
    </g>
</svg>