<?xml version="1.0" encoding="UTF-8" standalone="no"?>
<!-- Created with Inkscape (http://www.inkscape.org/) -->

<svg
   version="1.1"
   id="svg1"
   width="666.66669"
   height="483.92532"
   viewBox="0 0 666.66669 483.92532"
   sodipodi:docname="Jiézòu Tiānguó Huángjīnbǎn (节奏天国 黄金版) Logo.ai"
   xmlns:inkscape="http://www.inkscape.org/namespaces/inkscape"
   xmlns:sodipodi="http://sodipodi.sourceforge.net/DTD/sodipodi-0.dtd"
   xmlns="http://www.w3.org/2000/svg"
   xmlns:svg="http://www.w3.org/2000/svg">
  <defs
     id="defs1">
    <clipPath
       clipPathUnits="userSpaceOnUse"
       id="clipPath2">
      <path
         d="M 0,362.944 H 500 V 0 H 0 Z"
         transform="translate(-500.00002,-267.7667)"
         id="path2" />
    </clipPath>
    <clipPath
       clipPathUnits="userSpaceOnUse"
       id="clipPath4">
      <path
         d="M 0,362.944 H 500 V 0 H 0 Z"
         transform="translate(-489.84751,-267.7667)"
         id="path4" />
    </clipPath>
    <clipPath
       clipPathUnits="userSpaceOnUse"
       id="clipPath6">
      <path
         d="M 0,362.944 H 500 V 0 H 0 Z"
         transform="translate(-480.96441,-267.76651)"
         id="path6" />
    </clipPath>
    <clipPath
       clipPathUnits="userSpaceOnUse"
       id="clipPath8">
      <path
         d="M 0,362.944 H 500 V 0 H 0 Z"
         transform="translate(-394.32431,-148.7002)"
         id="path8" />
    </clipPath>
    <clipPath
       clipPathUnits="userSpaceOnUse"
       id="clipPath10">
      <path
         d="M 0,362.944 H 500 V 0 H 0 Z"
         transform="translate(-245.8387,-140.0572)"
         id="path10" />
    </clipPath>
    <clipPath
       clipPathUnits="userSpaceOnUse"
       id="clipPath12">
      <path
         d="M 0,362.944 H 500 V 0 H 0 Z"
         transform="translate(-146.415,-123.5626)"
         id="path12" />
    </clipPath>
    <clipPath
       clipPathUnits="userSpaceOnUse"
       id="clipPath14">
      <path
         d="M 0,362.944 H 500 V 0 H 0 Z"
         transform="translate(-426.52801,-298.42341)"
         id="path14" />
    </clipPath>
    <clipPath
       clipPathUnits="userSpaceOnUse"
       id="clipPath16">
      <path
         d="M 0,362.944 H 500 V 0 H 0 Z"
         transform="translate(-308.74571,-251.32541)"
         id="path16" />
    </clipPath>
    <clipPath
       clipPathUnits="userSpaceOnUse"
       id="clipPath18">
      <path
         d="M 0,362.944 H 500 V 0 H 0 Z"
         transform="translate(-199.04631,-221.9381)"
         id="path18" />
    </clipPath>
    <clipPath
       clipPathUnits="userSpaceOnUse"
       id="clipPath20">
      <path
         d="M 0,362.944 H 500 V 0 H 0 Z"
         transform="translate(-47.011101,-189.4054)"
         id="path20" />
    </clipPath>
  </defs>
  <sodipodi:namedview
     id="namedview1"
     pagecolor="#ffffff"
     bordercolor="#000000"
     borderopacity="0.25"
     inkscape:showpageshadow="2"
     inkscape:pageopacity="0.0"
     inkscape:pagecheckerboard="0"
     inkscape:deskcolor="#d1d1d1">
    <inkscape:page
       x="0"
       y="0"
       inkscape:label="1"
       id="page1"
       width="666.66669"
       height="483.92532"
       margin="0"
       bleed="0" />
  </sodipodi:namedview>
  <g
     id="layer-MC0"
     inkscape:groupmode="layer"
     inkscape:label="Layer 1">
    <path
       id="path1"
       d="m 0,0 c 0,52.481 -42.697,95.178 -95.178,95.178 -19.167,0 -37.594,-5.693 -53.214,-16.252 -14.257,8.093 -30.509,12.444 -47.039,12.444 -34.64,0 -65.893,-18.623 -82.601,-47.829 -6.588,1.426 -13.334,2.144 -20.191,2.144 -21.076,0 -41.461,-7.04 -57.97,-19.703 -14.618,8.691 -31.399,13.358 -48.629,13.358 -52.482,0 -95.178,-42.697 -95.178,-95.178 0,-23.874 8.88,-46.708 25.004,-64.296 10.118,-11.037 22.535,-19.419 36.238,-24.646 -2.73,-8.951 -4.136,-18.312 -4.136,-27.809 0,-52.481 42.697,-95.178 95.178,-95.178 30.692,0 58.823,14.474 76.585,38.621 6.091,-1.209 12.306,-1.819 18.593,-1.819 25.672,0 49.622,10.111 67.25,27.778 15.622,-10.546 34.21,-16.356 53.308,-16.356 52.481,0 95.178,42.696 95.178,95.177 0,14.86 -3.454,29.346 -9.96,42.409 C -18.356,-65.141 0,-34.204 0,0"
       style="fill:#00b3f0;fill-opacity:1;fill-rule:nonzero;stroke:none"
       transform="matrix(1.3333333,0,0,-1.3333333,666.66667,126.90307)"
       clip-path="url(#clipPath2)" />
    <path
       id="path3"
       d="m 0,0 c 0,46.883 -38.143,85.025 -85.026,85.025 -19.3,0 -37.76,-6.46 -52.735,-18.327 -13.968,9.406 -30.579,14.52 -47.518,14.52 -33.573,0 -63.585,-19.582 -77.307,-49.573 -8.208,2.583 -16.745,3.888 -25.485,3.888 -21.216,0 -41.647,-7.986 -57.226,-22.148 -14.348,10.24 -31.593,15.803 -49.373,15.803 -46.883,0 -85.025,-38.142 -85.025,-85.026 0,-21.327 7.932,-41.725 22.335,-57.436 11.351,-12.381 25.936,-21.023 41.968,-25.038 -4.733,-10.739 -7.197,-22.386 -7.197,-34.277 0,-46.883 38.142,-85.025 85.026,-85.025 29.66,0 56.647,15.135 72.124,39.969 7.473,-2.104 15.198,-3.167 23.054,-3.167 25.915,0 49.866,11.533 65.925,31.312 15.221,-12.742 34.614,-19.89 54.633,-19.89 46.883,0 85.025,38.141 85.025,85.024 0,16.667 -4.864,32.807 -13.88,46.566 C -20.302,-64.386 0,-34.001 0,0"
       style="fill:#ffffff;fill-opacity:1;fill-rule:nonzero;stroke:none"
       transform="matrix(1.3333333,0,0,-1.3333333,653.13,126.90307)"
       clip-path="url(#clipPath4)" />
    <path
       id="path5"
       d="m 0,0 c 0,42.052 -34.09,76.142 -76.142,76.142 -20.254,0 -38.659,-7.911 -52.3,-20.808 -13.092,10.628 -29.777,17.001 -47.954,17.001 -33.637,0 -62.176,-21.813 -72.252,-52.063 -9.35,4.098 -19.678,6.378 -30.54,6.378 -22.428,0 -42.59,-9.699 -56.525,-25.13 -13.386,11.696 -30.901,18.785 -50.074,18.785 -42.052,0 -76.142,-34.09 -76.142,-76.143 0,-39.657 30.319,-72.227 69.041,-75.809 -7.555,-11.823 -11.934,-25.871 -11.934,-40.942 0,-42.052 34.09,-76.142 76.142,-76.142 29.7,0 55.425,17.006 67.977,41.81 8.448,-3.232 17.616,-5.008 27.201,-5.008 27.272,0 51.191,14.342 64.639,35.892 13.91,-15.046 33.812,-24.471 55.919,-24.471 42.052,0 76.142,34.09 76.142,76.143 0,19.544 -7.367,37.366 -19.471,50.847 C -23.857,-64.778 0,-35.178 0,0"
       style="fill:#130c0e;fill-opacity:1;fill-rule:nonzero;stroke:none"
       transform="matrix(1.3333333,0,0,-1.3333333,641.28587,126.90333)"
       clip-path="url(#clipPath6)" />
    <path
       id="path7"
       d="M 0,0 C 1.079,3.995 1.919,8.603 2.385,13.872 L -14.006,8.861 V 2.143 C -8.997,2.345 -4.268,1.583 0,0 m 10.048,-5.96 c 5.308,-4.65 9.037,-11.068 10.445,-18.663 L 6.744,-28.827 c -0.429,2.144 -1.015,5.966 -2.919,9.772 -5.471,-8.79 -11.928,-13.938 -17.045,-15.876 v 13.641 c 2.534,1.252 6.056,4.605 9.151,10.581 -2.595,1.431 -5.847,2.455 -9.937,2.81 v -6.406 c 0,-11.598 -7.247,-22.873 -17.934,-26.349 v 15.909 c 3.155,2.167 5.239,6.45 5.239,10.783 v 46.386 l 17.35,5.305 c 6.949,2.124 9.693,4.968 10.518,6.67 l 19.429,5.94 C 19.592,46.153 13.089,34.948 -3.626,29.838 l -10.38,-3.174 v -8.285 l 29.263,8.946 c 0,-13.346 -2.058,-24.38 -5.209,-33.285 m -61.4,3.403 v -9.023 l 16.599,5.075 v -35.009 l -12.696,-3.881 v 21.893 l -3.903,-1.193 v -1.028 c 0,-11.598 -7.248,-22.873 -17.935,-26.349 v 15.909 c 3.155,2.167 5.239,6.451 5.239,10.783 v 49.841 l 12.696,3.882 V 10.559 l 3.903,1.193 v 17.784 l 12.696,3.881 V 15.633 l 4.401,1.346 V 3.863 Z"
       style="fill:#f15a22;fill-opacity:1;fill-rule:nonzero;stroke:none"
       transform="matrix(1.3333333,0,0,-1.3333333,525.76573,285.6584)"
       clip-path="url(#clipPath8)" />
    <path
       id="path9"
       d="M 0,0 -27.247,-8.33 V 5.592 l 16.998,5.197 C 3.639,15.035 5.005,32.604 5.005,32.604 l 23.14,7.074 c 0,-3.888 -1.308,-7.915 -1.308,-7.915 4.408,-0.015 28.485,-6.159 33.18,-13.414 L 37.237,11.385 C 33.82,14.915 26.104,18.431 21.779,19.418 16.719,9.942 8.105,2.478 0,0 m 45.96,-17.157 v -5.076 l -11.263,-3.444 v 5.076 z M -0.994,-31.513 v -5.076 l -11.263,-3.443 v 5.076 z m 34.851,2.353 c -3.622,-1.102 -6.535,0.97 -6.535,4.574 v 4.957 l 25.152,7.689 v 8.365 l -25.152,-7.69 v 2.964 c 0,2.726 2.203,5.597 4.911,6.419 L 52.81,4.409 v 8.364 L -19.209,-9.246 v -8.364 l 20.577,6.291 c 2.707,0.822 4.911,-0.708 4.911,-3.416 v -2.964 l -25.152,-7.689 v -8.365 l 25.152,7.69 -0.001,-4.957 c 0,-3.604 -2.931,-7.474 -6.554,-8.575 l -26.458,-8.09 v -8.358 l 87.05,26.614 v 8.358 z"
       style="fill:#faa61a;fill-opacity:1;fill-rule:nonzero;stroke:none"
       transform="matrix(1.3333333,0,0,-1.3333333,327.78493,297.1824)"
       clip-path="url(#clipPath10)" />
    <path
       id="path11"
       d="M 0,0 14.82,4.531 V 0.051 L 0,-4.48 Z m 30.683,-21.691 -14.594,-4.462 v 4.6 l 14.594,4.462 z m 0,-7.456 c 0,-2.015 -1.633,-4.148 -3.648,-4.764 l -10.946,-3.346 v 4.6 l 14.594,4.462 z m -31.952,-2.313 -14.594,-4.462 v 0.952 c 0,2.015 1.634,4.148 3.649,4.764 l 10.945,3.346 z m 0,-11.104 -14.594,-4.462 v 4.6 l 14.594,4.462 z m 50.95,44.441 v 8.832 L 31.952,5.289 v 4.48 l 15.299,4.677 v 8.833 L 31.952,18.601 v 4.448 L 14.82,17.811 V 13.364 L 0,8.832 V 13.28 L -17.132,8.043 V 3.595 l -15.299,-4.678 v -8.832 l 15.299,4.677 v -4.479 l -17.729,-5.421 v -8.832 l 33.592,10.27 v -4.48 l -28.065,-8.58 v -33.207 l 25.196,7.703 c -0.772,-2.158 -3.179,-4.887 -10.102,-7.004 l -17.79,-5.439 v -9.581 l 18.01,5.506 c 13.166,4.019 22.185,9.407 27.333,18.762 3.792,-0.587 10.998,-2.81 15.623,-5.629 l 20.745,6.343 c -4.193,3.686 -11.183,6.86 -18.665,7.79 l 13.138,4.016 v 33.208 l -28.065,-8.581 v 4.48 z"
       style="fill:#f15a22;fill-opacity:1;fill-rule:nonzero;stroke:none"
       transform="matrix(1.3333333,0,0,-1.3333333,195.22,319.1752)"
       clip-path="url(#clipPath12)" />
    <path
       id="path13"
       d="m 0,0 -44.517,-13.61 c -2.394,-0.724 -3.821,-2.829 -3.82,-5.587 V -70.175 L -3.82,-56.564 C -1.606,-55.9 0,-53.93 0,-50.978 Z m 17.952,15.239 v -74.873 l -84.233,-25.753 v 74.873 z M -8.349,-43.632 v 7.163 l -5.055,-1.545 v -7.164 z m 0,-9.779 -31.631,-9.671 v 5.835 l 5.584,1.707 c 2.281,0.697 3.632,2.521 3.632,5.542 v 10.621 l -9.216,-2.818 v 6.304 l 9.216,2.818 v 10.875 c 0,1.262 -0.756,2.962 -4.237,1.898 l -4.979,-1.522 v 5.873 l 31.631,9.671 v -5.874 l -5.522,-1.688 c -2.36,-0.721 -3.694,-2.486 -3.694,-5.548 v -9.65 l 9.216,2.818 v -6.304 l -9.216,-2.818 v -11.846 c 0,-1.865 1.426,-2.77 4.299,-1.892 l 4.917,1.503 z"
       style="fill:#f15a22;fill-opacity:1;fill-rule:nonzero;stroke:none"
       transform="matrix(1.3333333,0,0,-1.3333333,568.704,86.027467)"
       clip-path="url(#clipPath14)" />
    <path
       id="path15"
       d="m 0,0 v 8.35 l 31.292,9.567 V 30.995 L 0,21.428 v 11.71 l 31.292,9.567 V 55.751 L -53.229,29.91 V 16.864 l 30.782,9.411 V 14.565 L -53.229,5.154 V -7.924 l 30.782,9.412 v -4.836 c 0,-15.487 -8.305,-21.741 -20.917,-25.606 l -9.865,-3.016 v -13.106 l 21.484,6.568 c 16.502,5.037 22.32,10.903 28.86,26.572 3.588,-1.438 13.337,-7.905 17.291,-12.462 l 22.22,6.793 C 29.978,-10.229 6.337,-1.255 0,0"
       style="fill:#faa61a;fill-opacity:1;fill-rule:nonzero;stroke:none"
       transform="matrix(1.3333333,0,0,-1.3333333,411.66093,148.8248)"
       clip-path="url(#clipPath16)" />
    <path
       id="path17"
       d="m 0,0 c 3.329,-1.16 6.789,-2.517 10.099,-4.065 l -25.555,-7.813 c 1.654,2.382 3.057,4.941 4.145,7.616 l 0.373,0.918 z m 8.101,-23.112 25.733,7.868 v 6.186 L 5.048,-17.859 v 6.064 l 12.347,3.775 c 0.963,-0.615 1.892,-1.243 2.753,-1.897 l 22.313,6.822 C 38.981,0.639 29.135,4.408 21.61,6.607 l 15.044,4.599 v 6.219 L -8.05,3.757 -6.454,7.684 33.834,20.001 v 6.185 l -37.416,-11.439 1.503,3.696 38.761,11.85 V 40.664 L 2.736,30.285 5.419,36.883 -15.81,30.392 -18.492,23.795 -47.317,14.983 V 4.612 l 24.01,7.341 -1.503,-3.696 -19.716,-6.028 v -6.185 l 16.844,5.149 -1.597,-3.926 -18.146,-5.548 v -6.218 l 15.259,4.665 -0.242,-0.595 c -1.475,-3.627 -4.648,-6.628 -8.138,-7.695 l -9.779,-2.99 v -10.349 l 15.142,4.629 c 4.12,1.26 8.082,3.45 11.637,6.297 l 7.661,2.342 v -6.064 l -28.641,-8.756 v -6.186 l 27.1,8.285 c -2.628,-7.33 -8.879,-11.056 -16.324,-13.332 l -13.675,-4.181 v -10.349 l 19.371,5.922 c 14.16,4.323 23.861,10.129 29.398,20.227 4.078,-0.639 11.829,-3.05 16.804,-6.102 l 22.313,6.822 c -4.51,3.988 -24.313,7.782 -32.36,8.797"
       style="fill:#f15a22;fill-opacity:1;fill-rule:nonzero;stroke:none"
       transform="matrix(1.3333333,0,0,-1.3333333,265.39507,188.00787)"
       clip-path="url(#clipPath18)" />
    <path
       id="path19"
       d="m 0,0 25.676,7.85 v -33.389 l 21.317,6.517 v 33.389 l 20.111,6.148 V 7.154 c 0,-1.66 -1.34,-3.416 -2.993,-3.921 L 55.879,0.716 v -8.37 l 20.147,6.16 c 4.629,1.415 8.381,6.33 8.381,10.979 V 38.43 L 0,12.625 Z M 84.912,64.06 V 51.435 L 68.842,46.522 V 38.256 L 51.108,32.834 V 41.1 L 34.309,35.964 V 27.698 L 16.575,22.276 v 8.267 L 0.505,25.63 v 12.625 l 16.07,4.913 v 8.266 l 17.734,5.422 v -8.267 l 16.799,5.136 v 8.267 l 17.734,5.422 v -8.267 z"
       style="fill:#faa61a;fill-opacity:1;fill-rule:nonzero;stroke:none"
       transform="matrix(1.3333333,0,0,-1.3333333,62.681467,231.3848)"
       clip-path="url(#clipPath20)" />
  </g>
</svg>
