<?xml version="1.0" encoding="UTF-8" standalone="no"?>
<!-- Generator: Adobe Illustrator 25.0.0, SVG Export Plug-In . SVG Version: 6.00 Build 0)  -->

<svg
   version="1.1"
   id="Layer_1"
   x="0px"
   y="0px"
   viewBox="0 0 666.66669 609.57203"
   xml:space="preserve"
   sodipodi:docname="Jiézòu Tiānguó Jīngdiǎn Huìcuì (节奏天国 经典荟萃) Logo.svg"
   width="666.66669"
   height="609.57202"
   inkscape:version="1.2.2 (b0a8486541, 2022-12-01)"
   xmlns:inkscape="http://www.inkscape.org/namespaces/inkscape"
   xmlns:sodipodi="http://sodipodi.sourceforge.net/DTD/sodipodi-0.dtd"
   xmlns:xlink="http://www.w3.org/1999/xlink"
   xmlns="http://www.w3.org/2000/svg"
   xmlns:svg="http://www.w3.org/2000/svg"><defs
   id="defs572" /><sodipodi:namedview
   id="namedview570"
   pagecolor="#505050"
   bordercolor="#eeeeee"
   borderopacity="1"
   inkscape:showpageshadow="0"
   inkscape:pageopacity="0"
   inkscape:pagecheckerboard="0"
   inkscape:deskcolor="#505050"
   showgrid="false"
   inkscape:zoom="2.6466658"
   inkscape:cx="249.93711"
   inkscape:cy="228.5895"
   inkscape:window-width="2560"
   inkscape:window-height="1412"
   inkscape:window-x="0"
   inkscape:window-y="0"
   inkscape:window-maximized="1"
   inkscape:current-layer="Layer_1" />
<style
   type="text/css"
   id="style369">
	.st0{fill:#0096E6;}
	.st1{fill:#FFFFFF;}
	.st2{fill:url(#SVGID_1_);}
	.st3{opacity:0.2;}
	.st4{clip-path:url(#SVGID_3_);}
	.st5{fill:url(#SVGID_4_);}
	.st6{clip-path:url(#SVGID_6_);}
	.st7{fill:url(#SVGID_7_);}
	.st8{clip-path:url(#SVGID_9_);}
	.st9{fill:url(#SVGID_10_);}
	.st10{clip-path:url(#SVGID_12_);}
	.st11{fill:url(#SVGID_13_);}
	.st12{clip-path:url(#SVGID_15_);}
	.st13{fill:url(#SVGID_16_);}
	.st14{clip-path:url(#SVGID_18_);}
	.st15{fill:url(#SVGID_19_);}
	.st16{fill:url(#SVGID_20_);}
	.st17{fill:url(#SVGID_21_);}
	.st18{fill:#FF5500;}
	.st19{fill:#FFAA00;}
</style>
<g
   id="Cloud_00000122703240977288030390000009418691447765243804_"
   transform="scale(1.3333334)">
	<path
   id="Light_Blue_00000158017485880077908190000016515758339003143097_"
   class="st0"
   d="M 436.12421,94.15349 C 431.13516,41.40766 386.54651,0 332.45923,0 293.63068,0 258.52316,21.72916 240.67896,54.90498 229.46152,50.96053 217.58968,48.92094 205.5347,48.92094 c -18.82812,0 -37.37747,5.0841 -53.48129,14.50574 C 137.08748,55.30449 120.40568,51.06376 103.10622,51.06376 46.25321,51.06377 0,97.38872 0,154.32921 c 0,39.12544 21.93097,74.12971 55.43398,91.60356 -2.52134,7.95189 -3.8173,16.27472 -3.8173,24.73868 0,46.10156 38.40165,83.60736 85.6032,83.60736 28.59622,0 54.1806,-13.59998 69.77992,-35.03986 19.0136,17.60565 44.2037,27.76102 71.13185,27.76102 43.51901,0 81.89499,-26.89783 97.41382,-66.13 2.55923,0.19247 5.12433,0.28931 7.69174,0.28931 56.1438,0 101.81961,-45.23839 101.81961,-100.84442 0,-35.41606 -18.85263,-68.02438 -48.93261,-86.16137 z" />
	<path
   id="White_00000023265767759718524010000007989588149201484986_"
   class="st1"
   d="m 425.0473,101.12378 c -1.53622,-49.68032 -42.47964,-89.62697 -92.58807,-89.62697 -38.08319,0 -72.14319,23.49405 -86.03246,58.22303 -12.68719,-6.10826 -26.64412,-9.30208 -40.89207,-9.30208 -19.31514,0 -37.61076,5.67492 -53.27658,16.47184 -14.68945,-9.39249 -31.56082,-14.32902 -49.1519,-14.32902 -50.51378,0 -91.60941,41.16736 -91.60941,91.76863 0,38.31415 23.65327,72.17819 58.65463,85.65335 -4.62626,9.54997 -7.03795,19.9911 -7.03795,30.68889 0,39.76175 33.24406,72.11053 74.10638,72.11053 29.95226,0 56.08022,-17.16122 67.7065,-42.69312 17.47736,22.18875 44.20955,35.41431 73.20528,35.41431 41.75177,0 78.18326,-27.79602 89.56107,-67.17517 5.13251,0.88651 10.33502,1.33444 15.54449,1.33444 49.80399,0 90.32278,-40.08138 90.32278,-89.3476 10e-6,-33.33095 -18.87246,-63.86003 -48.51269,-79.19106 z" />
	<path
   id="Black_00000127003813349280224450000001235054226271293089_"
   d="m 416.97412,106.18499 c 0.0184,-0.72373 0.055,-1.44294 0.055,-2.17104 0,-46.64282 -37.86316,-84.45422 -84.56985,-84.45422 -38.8624,0 -71.57977,26.18664 -81.48085,61.84757 -13.15445,-8.17614 -28.73038,-12.92706 -45.44376,-12.92706 -20.09193,0 -38.54526,6.85547 -53.11115,18.29491 -13.8235,-10.14734 -30.86707,-16.15164 -49.31697,-16.15164 -46.14174,0 -83.547,37.47633 -83.547,83.70578 0,38.96709 26.57719,71.71269 62.56037,81.04007 -6.90993,10.12271 -10.94361,22.2533 -10.94361,35.30209 0,35.37274 29.56885,64.048 66.04382,64.048 32.76289,0 59.93878,-23.14069 65.13383,-53.48465 14.12308,27.42783 42.74321,46.20523 75.77809,46.20523 41.44748,0 75.96307,-29.54434 83.58105,-68.6709 6.86298,1.83438 14.07458,2.83032 21.52472,2.83032 45.43057,0 82.25937,-36.39238 82.25937,-81.28468 2e-5,-33.00805 -19.92243,-61.39971 -48.52302,-74.12978 z" />
	
		<rect
   x="111.24321"
   y="260.78568"
   transform="matrix(0.98481,-0.17365,0.17365,0.98481,-44.72777,49.23179)"
   width="295.50406"
   height="38.897812"
   id="rect374" />
</g>
<g
   id="经典荟萃"
   transform="scale(1.3333334)">
	<g
   id="萃">
		<polygon
   points="476.22739,253.2424 476.22739,245.47095 445.39169,250.90823 445.39169,258.67969 431.883,261.06174 431.883,253.29027 376.94345,262.97748 376.94345,368.9884 422.99084,360.86935 422.99084,377.78406 454.28381,372.26666 454.28381,355.35196 500,347.29031 500,318.99689 492.88904,320.25046 499.79971,310.23666 486.53137,304.86386 496.3429,303.13351 496.3429,277.98907 500,277.34427 500,249.05086 "
   id="polygon377" />
		<g
   id="g421">
			<g
   id="g398">
				<linearGradient
   id="SVGID_1_"
   gradientUnits="userSpaceOnUse"
   x1="379.55197"
   y1="337.21613"
   x2="495.77747"
   y2="316.72244">
					<stop
   offset="0"
   style="stop-color:#FF8C3C"
   id="stop379" />
					<stop
   offset="0.75"
   style="stop-color:#FF5A00"
   id="stop381" />
				</linearGradient>
				<path
   class="st2"
   d="m 383.77747,346.09375 45.71646,-8.06107 v -6.4003 l 18.28656,-3.2244 v 6.4003 l 45.71643,-8.06104 v 15.08643 l -45.71643,8.06104 v 16.91507 l -18.28656,3.22443 v -16.9151 l -45.71646,8.06107 z m 55.31689,-23.92596 15.08643,-18.20374 -28.34418,4.99783 -2.74301,4.59814 14.62927,7.93527 -11.42911,12.98718 -12.34344,-7.42395 -14.62924,14.92297 -12.34344,-8.33832 20.57239,-21.45688 -20.11523,3.54688 V 301.1039 l 40.68762,-7.17432 v -6.90192 l 21.02957,-3.7081 v 6.90192 l 40.68762,-7.17432 v 14.62927 l -16.91507,2.98257 -2.74298,4.59814 19.65805,7.96286 -10.05762,14.57404 -17.82941,-9.19965 -10.51477,11.91165 z"
   id="path384"
   style="fill:url(#SVGID_1_)" />
				<g
   class="st3"
   id="g396">
					<defs
   id="defs387">
						<path
   id="SVGID_2_"
   class="st3"
   d="m 383.77747,346.09375 45.71646,-8.06107 v -6.4003 l 18.28656,-3.2244 v 6.4003 l 45.71643,-8.06104 v 15.08643 l -45.71643,8.06104 v 16.91507 l -18.28656,3.22443 v -16.9151 l -45.71646,8.06107 z m 55.31689,-23.92596 15.08643,-18.20374 -28.34418,4.99783 -2.74301,4.59814 14.62927,7.93527 -11.42911,12.98718 -12.34344,-7.42395 -14.62924,14.92297 -12.34344,-8.33832 20.57239,-21.45688 -20.11523,3.54688 V 301.1039 l 40.68762,-7.17432 v -6.90192 l 21.02957,-3.7081 v 6.90192 l 40.68762,-7.17432 v 14.62927 l -16.91507,2.98257 -2.74298,4.59814 19.65805,7.96286 -10.05762,14.57404 -17.82941,-9.19965 -10.51477,11.91165 z" />
					</defs>
					<clipPath
   id="SVGID_3_">
						<use
   xlink:href="#SVGID_2_"
   style="overflow:visible"
   id="use389" />
					</clipPath>
					<g
   class="st4"
   clip-path="url(#SVGID_3_)"
   id="g394">
						<polygon
   class="st1"
   points="596.65936,274.6377 77.83865,588.50671 47.87304,531.48108 566.72241,217.58337 "
   id="polygon392" />
					</g>
				</g>
			</g>
			<g
   id="g419">
				<linearGradient
   id="SVGID_4_"
   gradientUnits="userSpaceOnUse"
   x1="382.40933"
   y1="283.47488"
   x2="494.70871"
   y2="263.67346">
					<stop
   offset="0"
   style="stop-color:#AA37BE"
   id="stop400" />
					<stop
   offset="1"
   style="stop-color:#5F14A5"
   id="stop402" />
				</linearGradient>
				<polygon
   class="st5"
   points="493.49692,256.80109 493.49692,271.88751 469.72437,276.07925 469.72437,282.93674 451.89496,286.08054 451.89496,279.22305 425.37943,283.89847 425.37943,290.75592 407.55002,293.89975 407.55002,287.04227 383.77747,291.23401 383.77747,276.14758 407.55002,271.95584 407.55002,264.18405 425.37943,261.04025 425.37943,268.81204 451.89496,264.13663 451.89496,256.36484 469.72437,253.22104 469.72437,260.99283 "
   id="polygon405"
   style="fill:url(#SVGID_4_)" />
				<g
   class="st3"
   id="g417">
					<defs
   id="defs408">
						<polygon
   id="SVGID_5_"
   class="st3"
   points="493.49692,256.80109 493.49692,271.88751 469.72437,276.07925 469.72437,282.93674 451.89496,286.08054 451.89496,279.22305 425.37943,283.89847 425.37943,290.75592 407.55002,293.89975 407.55002,287.04227 383.77747,291.23401 383.77747,276.14758 407.55002,271.95584 407.55002,264.18405 425.37943,261.04025 425.37943,268.81204 451.89496,264.13663 451.89496,256.36484 469.72437,253.22104 469.72437,260.99283 " />
					</defs>
					<clipPath
   id="SVGID_6_">
						<use
   xlink:href="#SVGID_5_"
   style="overflow:visible"
   id="use410" />
					</clipPath>
					<g
   class="st6"
   clip-path="url(#SVGID_6_)"
   id="g415">
						<polygon
   class="st1"
   points="596.65936,274.6377 77.83865,588.50671 47.87304,531.48108 566.72241,217.58337 "
   id="polygon413" />
					</g>
				</g>
			</g>
		</g>
	</g>
	<g
   id="典">
		<polygon
   points="154.25467,427.76212 205.28209,402.52884 256.26312,408.83472 267.90076,380.18173 267.90076,282.66052 143.02592,304.68018 143.02592,402.09894 "
   id="polygon424" />
		<linearGradient
   id="SVGID_7_"
   gradientUnits="userSpaceOnUse"
   x1="144.61908"
   y1="366.09134"
   x2="258.66541"
   y2="345.9819">
			<stop
   offset="0"
   style="stop-color:#C8F000"
   id="stop426" />
			<stop
   offset="0.8"
   style="stop-color:#14B400"
   id="stop428" />
		</linearGradient>
		<path
   class="st7"
   d="m 258.51385,361.32364 -7.31462,1.28976 v -58.97421 l -25.60063,4.51407 v -11.42911 l -16.91507,2.9826 v 11.42911 l -8.22896,1.45099 v -11.42911 l -16.91508,2.98257 v 11.42911 l -25.60121,4.51419 v 58.97421 l -7.31462,1.28976 v 15.08643 l 36.11598,-6.36823 -35.20166,16.26462 5.94313,13.58133 40.23047,-19.89435 -5.94313,-10.83832 24.68687,-4.35297 -5.48598,12.85361 41.14423,5.08859 6.40028,-15.75781 -38.40121,-2.82928 38.40121,-6.77115 z m -75.00209,1.3421 1.01877,5.76001 -5.33411,-1.86374 -5.33405,3.74481 1.01869,-6.11926 -4.31534,-3.4455 5.96364,-1.91809 2.66705,-5.8743 2.66705,4.93375 5.96371,-0.185 z m 0,-26.74588 1.01877,5.75992 -5.33411,-1.86374 -5.33405,3.74481 1.01869,-6.11917 -4.31534,-3.4455 5.96364,-1.91818 2.66705,-5.87424 2.66705,4.93369 5.96371,-0.18494 z m 26.39104,28.03207 -5.33411,-1.86374 -5.33405,3.74481 1.01869,-6.11926 -4.31534,-3.4455 5.9637,-1.91809 2.66699,-5.8743 2.66705,4.93375 5.9637,-0.185 -4.31534,4.96732 z m -1.01869,-32.50592 1.01869,5.75995 -5.33411,-1.86374 -5.33405,3.74481 1.01869,-6.11917 -4.31534,-3.4455 5.9637,-1.91818 2.66699,-5.87424 2.66705,4.93369 5.9637,-0.18494 z m 26.39166,28.03199 -5.33411,-1.86374 -5.33403,3.74481 1.01869,-6.11926 -4.31535,-3.4455 5.96364,-1.91809 2.66705,-5.8743 2.66705,4.93375 5.96371,-0.185 -4.31541,4.96732 z m -1.01875,-32.50589 1.01875,5.75992 -5.33411,-1.86374 -5.33403,3.74481 1.01869,-6.11917 -4.31535,-3.44553 5.96364,-1.91815 2.66705,-5.87424 2.66705,4.93369 5.96371,-0.18494 z"
   id="path431"
   style="fill:url(#SVGID_7_)" />
		<g
   class="st3"
   id="g443">
			<defs
   id="defs434">
				<path
   id="SVGID_8_"
   class="st3"
   d="m 258.51385,361.32364 -7.31462,1.28976 v -58.97421 l -25.60063,4.51407 v -11.42911 l -16.91507,2.9826 v 11.42911 l -8.22896,1.45099 v -11.42911 l -16.91508,2.98257 v 11.42911 l -25.60121,4.51419 v 58.97421 l -7.31462,1.28976 v 15.08643 l 36.11598,-6.36823 c -11.2771,5.95093 -23.01195,11.37225 -35.20166,16.26462 l 5.94313,13.58133 c 12.18973,-5.50269 25.60121,-12.13397 40.23047,-19.89435 l -5.94313,-10.83832 24.68687,-4.35297 -5.48598,12.85361 c 2.1321,0.23322 5.02881,0.63678 8.68613,1.21136 14.62926,1.68698 25.44748,2.97958 32.4581,3.87723 l 6.40028,-15.75781 c -15.54358,-1.52573 -28.3436,-2.46887 -38.40121,-2.82928 l 38.40121,-6.77115 z m -75.00209,1.3421 1.01877,5.76001 -5.33411,-1.86374 -5.33405,3.74481 1.01869,-6.11926 -4.31534,-3.4455 5.96364,-1.91809 2.66705,-5.8743 2.66705,4.93375 5.96371,-0.185 z m 0,-26.74588 1.01877,5.75992 -5.33411,-1.86374 -5.33405,3.74481 1.01869,-6.11917 -4.31534,-3.4455 5.96364,-1.91818 2.66705,-5.87424 2.66705,4.93369 5.96371,-0.18494 z m 26.39104,28.03207 -5.33411,-1.86374 -5.33405,3.74481 1.01869,-6.11926 -4.31534,-3.4455 5.9637,-1.91809 2.66699,-5.8743 2.66705,4.93375 5.9637,-0.185 -4.31534,4.96732 z m -1.01869,-32.50592 1.01869,5.75995 -5.33411,-1.86374 -5.33405,3.74481 1.01869,-6.11917 -4.31534,-3.4455 5.9637,-1.91818 2.66699,-5.87424 2.66705,4.93369 5.9637,-0.18494 z m 26.39166,28.03199 -5.33411,-1.86374 -5.33403,3.74481 1.01869,-6.11926 -4.31535,-3.4455 5.96364,-1.91809 2.66705,-5.8743 2.66705,4.93375 5.96371,-0.185 -4.31541,4.96732 z m -1.01875,-32.50589 1.01875,5.75992 -5.33411,-1.86374 -5.33403,3.74481 1.01869,-6.11917 -4.31535,-3.44553 5.96364,-1.91815 2.66705,-5.87424 2.66705,4.93369 5.96371,-0.18494 z" />
			</defs>
			<clipPath
   id="SVGID_9_">
				<use
   xlink:href="#SVGID_8_"
   style="overflow:visible"
   id="use436" />
			</clipPath>
			<g
   class="st8"
   clip-path="url(#SVGID_9_)"
   id="g441">
				<polygon
   class="st1"
   points="509.15817,186.69177 -9.09983,502.36374 -40.35546,437.97491 477.90253,122.30296 "
   id="polygon439" />
			</g>
		</g>
	</g>
	<g
   id="荟">
		<polygon
   points="260.40384,372.50833 277.71716,401.76965 350.81128,385.62292 357.9711,392.11639 384.83899,369.99402 377.93713,365.69016 377.93713,262.54929 260.40384,283.51932 "
   id="polygon446" />
		<g
   id="g490">
			<g
   id="g467">
				<linearGradient
   id="SVGID_10_"
   gradientUnits="userSpaceOnUse"
   x1="268.77789"
   y1="358.17505"
   x2="381.93259"
   y2="338.22281">
					<stop
   offset="0"
   style="stop-color:#6EE6FF"
   id="stop448" />
					<stop
   offset="0.85"
   style="stop-color:#00A0FF"
   id="stop450" />
				</linearGradient>
				<path
   class="st9"
   d="m 353.14758,357.8949 18.28656,-3.22443 v -15.08643 l -99.66241,17.57318 v 15.08643 l 21.48672,-3.7887 -19.2009,14.3576 6.85748,11.59143 71.77536,-15.85608 5.48599,4.9758 15.54358,-12.79837 z m -48.45944,17.23083 11.88629,-10.78201 13.25775,-2.33768 8.68613,6.69736 z m -11.42969,-35.11352 v 9.47034 l 56.23181,-9.91519 v -10.33609 l 22.40103,6.84335 6.4003,-18.50079 -56.68835,-9.82535 -56.23181,31.1077 6.4003,15.78653 z m 28.34479,-19.30017 20.8743,6.37692 -40.80692,7.19534 z"
   id="path453"
   style="fill:url(#SVGID_10_)" />
				<g
   class="st3"
   id="g465">
					<defs
   id="defs456">
						<path
   id="SVGID_11_"
   class="st3"
   d="m 353.14758,357.8949 18.28656,-3.22443 v -15.08643 l -99.66241,17.57318 v 15.08643 l 21.48672,-3.7887 -19.2009,14.3576 6.85748,11.59143 71.77536,-15.85608 5.48599,4.9758 15.54358,-12.79837 z m -48.45944,17.23083 11.88629,-10.78201 13.25775,-2.33768 8.68613,6.69736 z m -11.42969,-35.11352 v 9.47034 l 56.23181,-9.91519 v -10.33609 l 22.40103,6.84335 6.4003,-18.50079 -56.68835,-9.82535 -56.23181,31.1077 6.4003,15.78653 z m 28.34479,-19.30017 20.8743,6.37692 -40.80692,7.19534 z" />
					</defs>
					<clipPath
   id="SVGID_12_">
						<use
   xlink:href="#SVGID_11_"
   style="overflow:visible"
   id="use458" />
					</clipPath>
					<g
   class="st10"
   clip-path="url(#SVGID_12_)"
   id="g463">
						<polygon
   class="st1"
   points="596.65936,274.6377 77.83865,588.50671 47.87304,531.48108 566.72241,217.58337 "
   id="polygon461" />
					</g>
				</g>
			</g>
			<g
   id="g488">
				<linearGradient
   id="SVGID_13_"
   gradientUnits="userSpaceOnUse"
   x1="266.32822"
   y1="305.086"
   x2="376.7995"
   y2="285.60693">
					<stop
   offset="0"
   style="stop-color:#FF8232"
   id="stop469" />
					<stop
   offset="0.75"
   style="stop-color:#C80000"
   id="stop471" />
				</linearGradient>
				<polygon
   class="st11"
   points="335.77533,285.52597 306.97397,290.60443 306.97397,281.9183 289.14398,285.06223 289.14398,293.74835 267.65726,297.53702 267.65726,312.62344 289.14398,308.83478 289.14398,317.06372 306.97397,313.9198 306.97397,305.69086 335.77533,300.6124 335.77533,308.84137 354.06189,305.61694 354.06189,297.38797 375.54861,293.5993 375.54861,278.51288 354.06189,282.30157 354.06189,273.61545 335.77533,276.83984 "
   id="polygon474"
   style="fill:url(#SVGID_13_)" />
				<g
   class="st3"
   id="g486">
					<defs
   id="defs477">
						<polygon
   id="SVGID_14_"
   class="st3"
   points="335.77533,285.52597 306.97397,290.60443 306.97397,281.9183 289.14398,285.06223 289.14398,293.74835 267.65726,297.53702 267.65726,312.62344 289.14398,308.83478 289.14398,317.06372 306.97397,313.9198 306.97397,305.69086 335.77533,300.6124 335.77533,308.84137 354.06189,305.61694 354.06189,297.38797 375.54861,293.5993 375.54861,278.51288 354.06189,282.30157 354.06189,273.61545 335.77533,276.83984 " />
					</defs>
					<clipPath
   id="SVGID_15_">
						<use
   xlink:href="#SVGID_14_"
   style="overflow:visible"
   id="use479" />
					</clipPath>
					<g
   class="st12"
   clip-path="url(#SVGID_15_)"
   id="g484">
						<polygon
   class="st1"
   points="509.15817,186.69177 -9.09983,502.36374 -40.35546,437.97491 477.90253,122.30296 "
   id="polygon482" />
					</g>
				</g>
			</g>
		</g>
	</g>
	<g
   id="经">
		<polygon
   points="24.31482,365.30811 31.65637,387.50668 32.48833,387.27121 26.34903,395.79498 31.87083,411.93979 24.52195,413.81082 28.66269,443.72223 63.20239,432.76071 63.20239,437.56683 149.35526,422.37662 149.35526,308.07022 69.60255,322.1987 69.60255,322.91388 45.72687,319.77756 "
   id="polygon493" />
		<linearGradient
   id="SVGID_16_"
   gradientUnits="userSpaceOnUse"
   x1="25.09516"
   y1="384.42365"
   x2="145.13434"
   y2="363.25751">
			<stop
   offset="0"
   style="stop-color:#FFFF00"
   id="stop495" />
			<stop
   offset="0.75"
   style="stop-color:#FFBE00"
   id="stop497" />
		</linearGradient>
		<path
   class="st13"
   d="m 50.50465,360.51379 7.31463,-1.74695 6.85746,-13.09543 15.08643,4.19733 -8.22896,14.70877 41.14479,-27.37018 -36.57315,6.44882 v -16.00073 l 58.05988,-10.23755 v 16.45792 l -10.97195,14.27811 20.5724,7.34448 -10.05762,15.48834 -24.68688,-9.81912 -32.91583,19.51889 -6.85746,-12.5058 -13.25777,21.5386 13.25777,-3.70001 v 15.02267 l -31.08718,9.19339 -4.57164,-13.36597 15.08643,-20.94673 -12.8006,3.6286 -4.57164,-13.82315 18.28658,-38.88324 17.82941,2.34216 z m 23.77255,21.40946 64.46018,-11.36606 v 16.45792 l -22.85822,4.03052 v 14.62924 l 26.97269,-4.75601 v 16.00076 l -73.14629,12.89767 v -5.94315 l -35.65882,11.31641 -2.28582,-16.51202 37.94464,-9.66147 v 4.79947 l 27.42986,-4.83661 v -14.62927 l -22.85822,4.03052 z"
   id="path500"
   style="fill:url(#SVGID_16_)" />
		<g
   class="st3"
   id="g512">
			<defs
   id="defs503">
				<path
   id="SVGID_17_"
   class="st3"
   d="m 50.50465,360.51379 7.31463,-1.74695 6.85746,-13.09543 15.08643,4.19733 -8.22896,14.70877 41.14479,-27.37018 -36.57315,6.44882 v -16.00073 l 58.05988,-10.23755 v 16.45792 l -10.97195,14.27811 20.5724,7.34448 -10.05762,15.48834 -24.68688,-9.81912 -32.91583,19.51889 -6.85746,-12.5058 -13.25777,21.5386 13.25777,-3.70001 v 15.02267 l -31.08718,9.19339 -4.57164,-13.36597 15.08643,-20.94673 -12.8006,3.6286 -4.57164,-13.82315 18.28658,-38.88324 17.82941,2.34216 z m 23.77255,21.40946 64.46018,-11.36606 v 16.45792 l -22.85822,4.03052 v 14.62924 l 26.97269,-4.75601 v 16.00076 l -73.14629,12.89767 v -5.94315 l -35.65882,11.31641 -2.28582,-16.51202 37.94464,-9.66147 v 4.79947 l 27.42986,-4.83661 v -14.62927 l -22.85822,4.03052 z" />
			</defs>
			<clipPath
   id="SVGID_18_">
				<use
   xlink:href="#SVGID_17_"
   style="overflow:visible"
   id="use505" />
			</clipPath>
			<g
   class="st14"
   clip-path="url(#SVGID_18_)"
   id="g510">
				<polygon
   class="st1"
   points="509.15817,186.69177 -9.09983,502.36374 -40.35546,437.97491 477.90253,122.30296 "
   id="polygon508" />
			</g>
		</g>
	</g>
	<g
   id="_x2605__00000055669354295850239440000000225889814098885275_">
		<polygon
   points="371.37299,360.72845 356.10175,363.56897 367.64752,373.93246 365.66351,389.25443 379.05121,381.54269 393.0549,388.24973 389.83383,373.05157 400.48148,361.76154 385.07224,360.1561 377.65176,346.5015 "
   id="polygon515" />
		
			<radialGradient
   id="SVGID_19_"
   cx="376.45715"
   cy="798.95874"
   r="25.892139"
   gradientTransform="matrix(0.45,0,0,0.45,209.03818,9.28648)"
   gradientUnits="userSpaceOnUse">
			<stop
   offset="0"
   style="stop-color:#FAFFC8"
   id="stop517" />
			<stop
   offset="0.45"
   style="stop-color:#C8FF00"
   id="stop519" />
			<stop
   offset="1"
   style="stop-color:#00A000"
   id="stop521" />
		</radialGradient>
		<polygon
   class="st15"
   points="374.74481,364.98984 366.57236,366.50955 372.73761,372.04382 371.67661,380.24509 378.8454,376.11572 386.32953,379.7001 384.60913,371.58499 390.31543,365.53455 382.05695,364.67435 378.09973,357.39078 "
   id="polygon524"
   style="fill:url(#SVGID_19_)" />
	</g>
	<g
   id="_x2605__00000151542417986511424430000005911961844926333828_">
		<polygon
   points="150.76898,301.25012 149.79118,314.81946 138.06935,321.76599 150.69388,326.85944 153.6237,340.15073 162.4142,329.73245 175.96527,331.03854 168.74371,319.47147 174.16852,306.99609 160.96654,310.25574 "
   id="polygon527" />
		
			<radialGradient
   id="SVGID_20_"
   cx="-114.04063"
   cy="691.58484"
   r="22.546249"
   gradientTransform="matrix(0.45,0,0,0.45,209.03818,9.28648)"
   gradientUnits="userSpaceOnUse">
			<stop
   offset="0"
   style="stop-color:#FFFFA0"
   id="stop529" />
			<stop
   offset="0.55"
   style="stop-color:#FFFF00"
   id="stop531" />
			<stop
   offset="1"
   style="stop-color:#FFC800"
   id="stop533" />
		</radialGradient>
		<polygon
   class="st16"
   points="154.4222,310.19522 153.90602,317.36401 147.71223,321.03455 154.39352,323.73007 155.94203,330.75549 160.58743,325.24979 167.72755,325.93808 163.9138,319.83017 166.78122,313.23489 159.81311,314.95529 "
   id="polygon536"
   style="fill:url(#SVGID_20_)" />
	</g>
	<g
   id="_x2605__00000165235180282004194370000009724183725231266710_">
		<polygon
   points="22.07757,416.46078 24.15493,431.10486 13.27287,441.17706 27.87278,443.703 34.00187,457.17899 40.99103,444.06326 55.70815,442.33704 45.37207,431.69751 48.25927,417.159 34.98067,423.69757 "
   id="polygon539" />
		
			<radialGradient
   id="SVGID_21_"
   cx="-387.71994"
   cy="948.17688"
   r="26.163799"
   gradientTransform="matrix(0.45,0,0,0.45,209.03818,9.28648)"
   gradientUnits="userSpaceOnUse">
			<stop
   offset="0"
   style="stop-color:#D9FFFF"
   id="stop541" />
			<stop
   offset="0.42"
   style="stop-color:#96D2FF"
   id="stop543" />
			<stop
   offset="1"
   style="stop-color:#00AAFF"
   id="stop545" />
		</radialGradient>
		<polygon
   class="st17"
   points="27.5387,424.43863 28.71439,432.72577 22.54927,438.43213 30.83641,439.86588 34.306,447.4935 38.26334,440.06656 46.57915,439.09164 40.72939,433.06985 42.36378,424.84006 34.85096,428.53918 "
   id="polygon548"
   style="fill:url(#SVGID_21_)" />
	</g>
</g>
<g
   id="节奏天国"
   transform="scale(1.3333334)">
	<polygon
   id="_x2605__00000111905863173216315090000018415191802671839626_"
   class="st18"
   points="402.55078,218.02126 407.10886,226.33565 402.84366,234.80411 412.1597,233.03839 418.8956,239.71165 420.09518,230.30595 428.52335,225.96187 419.94864,221.91457 418.42163,212.55643 411.92264,219.46075 " />
	<polygon
   id="_x2605__00000068666499687105630010000010523497647714707336_"
   class="st18"
   points="420.12128,165.24834 420.51672,178.32561 409.96823,186.06512 422.52774,189.7301 426.62866,202.15398 433.99536,191.34175 447.07843,191.28062 439.07187,180.93341 443.05667,168.47176 430.74155,172.88893 " />
	<polygon
   id="_x2605__00000106126449992820338290000009890364709833814694_"
   class="st18"
   points="414.49713,131.6035 405.31723,131.48615 410.80789,138.84381 407.85953,147.5381 416.5538,144.58984 423.9115,150.08057 423.79425,140.9007 431.28992,135.59988 422.5231,132.87471 419.79785,124.10788 " />
	<path
   id="国"
   class="st18"
   d="m 287.43988,181.70665 -11.62637,94.68849 110.99637,-19.57153 11.62622,-94.68857 z m 77.91086,61.39947 c -0.45865,3.73398 -2.8042,5.97784 -5.71982,6.47557 l -58.66263,10.3439 7.91592,-64.46938 c 0.42764,-3.48734 2.56677,-5.92931 5.71997,-6.47551 l 58.66248,-10.34383 z m -15.01334,-18.46234 6.66092,-1.17455 -1.11224,9.05931 -6.66092,1.17453 z m -22.26358,-0.95453 -12.14502,2.14142 0.97894,-7.97324 12.14502,-2.14151 1.6886,-13.75299 c 0.19604,-1.59592 -0.50076,-3.86261 -5.08743,-3.05389 l -6.56171,1.15706 0.91208,-7.42804 41.68222,-7.34972 -0.91208,7.42804 -7.27713,1.28308 c -3.10953,0.54832 -5.07843,2.5744 -5.55402,6.44702 l -1.49835,12.2028 12.14502,-2.14149 -0.9791,7.97293 -12.14487,2.14182 -1.83945,14.98096 c -0.28961,2.35823 1.38141,3.72345 5.16669,3.05611 l 6.48032,-1.1427 -0.90598,7.37888 -41.68222,7.34964 0.90598,-7.37888 7.35864,-1.29744 c 3.00543,-0.53001 5.00562,-2.62837 5.47464,-6.44916 z" />
	<path
   id="天_1_"
   class="st18"
   d="m 271.96701,200.23578 2.03101,-16.54131 -111.66849,19.69037 -2.03093,16.54131 40.66917,-7.17114 -1.82298,14.84789 -40.66927,7.17114 -2.03606,16.58205 40.66928,-7.17114 -0.75282,6.1315 c -2.41101,19.6362 -13.96144,26.28113 -30.62642,29.23093 l -13.0336,2.29825 -2.04048,16.61874 28.38531,-5.00516 c 21.80066,-3.83423 30.12297,-10.37158 40.89162,-29.22717 4.34647,2.3775 15.75526,12.08548 20.08098,18.47598 l 29.35757,-5.1767 C 262.05175,267.15037 233.34023,252.115 225.46511,249.54334 l 1.30002,-10.58772 41.34283,-7.2899 2.03604,-16.58205 -41.34293,7.2899 1.82307,-14.84789 z" />
	<polygon
   id="_x2605__00000113317456531142120550000014275735578768710070_"
   class="st18"
   points="115.16448,287.37006 116.2876,295.64142 110.11063,301.25577 118.3242,302.74359 121.75493,310.35321 125.70808,303.0014 134.00543,302.09006 128.23503,296.05859 129.93236,287.88571 122.41285,291.50983 " />
	<polygon
   id="_x2605__00000047744197508364845270000009133962131491681717_"
   class="st18"
   points="104.37675,249.69846 91.55553,251.56151 100.83305,260.60483 98.64299,273.37433 110.11063,267.3454 121.57833,273.37427 119.38821,260.60483 128.66573,251.56145 115.84444,249.69839 110.11057,238.08041 " />
	<polygon
   id="_x2605__00000075874216529267792710000005424350649020696983_"
   class="st18"
   points="126.66478,217.76346 118.66433,220.71782 125.87576,225.271 126.2132,233.79288 132.77202,228.34137 140.98106,230.65387 137.82318,222.73146 142.55919,215.63881 134.04872,216.19395 128.76666,209.49805 " />
	<polygon
   id="_x2605__00000140717831811287066480000001607455716148021930_"
   class="st19"
   points="346.73557,128.40495 352.28983,138.53629 347.09262,148.85532 358.44446,146.7037 366.65234,154.83533 368.11404,143.37421 378.384,138.08081 367.93546,133.14906 366.07474,121.74596 358.15564,130.15906 " />
	<polygon
   id="_x2605__00000062905580328690353570000016952490552244907694_"
   class="st19"
   points="362.94232,61.49869 361.86612,75.92001 349.37598,83.20917 362.75888,88.68914 365.83173,102.82034 375.17889,91.78577 389.56805,93.23022 381.96207,80.93056 387.78238,67.69209 373.73434,71.12502 " />
	<polygon
   id="_x2605__00000065766799593506537380000007214716015499091361_"
   class="st19"
   points="319.15543,43.24845 308.96408,46.03033 317.37131,52.42736 316.86774,62.97962 325.54959,56.96071 335.42969,60.70047 332.38828,50.58355 338.99814,42.34259 328.43649,42.1089 322.64148,33.27595 " />
	<path
   id="奏"
   class="st19"
   d="m 300.24905,132.85321 c 1.01904,0.94501 1.99792,1.90204 2.89227,2.87897 l 26.8894,-4.74146 c -3.44897,-5.32843 -14.26111,-11.81024 -22.6311,-15.90118 l 18.12988,-3.19684 0.96558,-7.86438 -53.87305,9.49939 2.45764,-4.68713 48.55078,-8.56097 0.96057,-7.82275 -45.08966,7.95062 2.31329,-4.41187 46.71118,-8.23651 1.61035,-13.11517 -40.90839,7.21332 4.1297,-7.87604 -25.5824,4.51093 -4.12964,7.87604 -34.73688,6.12506 -1.61023,13.11517 28.93396,-5.10187 -2.31329,4.41187 -23.7594,4.18945 -0.96051,7.82275 20.29816,-3.57916 -2.45758,4.68719 -21.86877,3.85608 -0.96558,7.86438 18.38916,-3.24255 -0.37238,0.71014 c -2.27051,4.33032 -6.41034,7.57257 -10.61578,8.31409 l -11.78473,2.078 -1.60706,13.08844 18.24792,-3.21759 c 4.9646,-0.87543 9.8913,-2.95526 14.44867,-5.93671 l 9.23236,-1.62793 -0.94171,7.66943 -34.51495,6.086 -0.96045,7.82281 32.65845,-5.75867 c -4.18127,8.81238 -11.99585,12.43597 -20.96838,14.01813 l -16.47968,2.90582 -1.60706,13.08844 23.34436,-4.11627 c 17.0636,-3.0011 29.19507,-8.65503 37.17322,-20.46094 4.62177,1.51819 13.21954,5.91791 18.50494,10.64325 l 26.8894,-4.74139 c -4.60187,-5.8288 -26.93738,-14.07611 -36.09521,-16.76117 l 31.01129,-5.4682 0.96051,-7.82281 -34.68964,6.11682 0.94165,-7.66943 z m -38.62799,-0.84216 c 2.284,-2.72449 4.3064,-5.71539 5.98108,-8.90936 l 0.57465,-1.09601 13.18085,-2.32422 c 3.67401,2.04681 7.46802,4.3653 11.0603,6.89923 z" />
	<path
   id="节"
   class="st19"
   d="m 106.04361,148.44751 101.71863,-17.93585 -4.49457,36.6062 c -0.7218,5.87866 -5.82874,11.44153 -11.40668,12.42511 l -24.27942,4.28113 1.29968,-10.58472 9.9201,-1.74921 c 1.99213,-0.35126 3.81604,-2.33801 4.07379,-4.4375 l 2.07477,-16.89764 -24.2356,4.27325 -5.18457,42.22534 -25.6889,4.5296 5.18463,-42.22546 -30.94226,5.45569 z m 86.91779,-46.84631 1.28357,-10.4541 -21.3717,3.76849 -1.28363,10.4541 -20.24451,3.5697 1.28357,-10.4541 -21.37177,3.76843 -1.28357,10.4541 -19.3653,3.41467 -1.96039,15.96631 19.3653,-3.41467 -1.28357,10.4541 21.37177,-3.76843 1.28357,-10.4541 20.24457,-3.5697 -1.28363,10.4541 21.37177,-3.76849 1.28357,-10.4541 19.36536,-3.41467 1.96039,-15.96625 z" />
	<polygon
   id="_x2605__00000002369709524737947790000017349566326930228899_"
   class="st19"
   points="81.94903,187.31721 81.20952,196.88205 72.911,201.69524 81.77914,205.35423 83.79241,214.73398 90.01274,207.43059 99.55553,208.41435 94.53178,200.24156 98.41623,191.46986 89.09108,193.7222 " />
	<polygon
   id="_x2605__00000061453619626484926020000000365205288859043487_"
   class="st19"
   points="38.92226,143.30128 46.33531,155.35811 40.60579,168.30011 54.36328,164.97557 64.90131,174.42401 65.99081,160.31248 78.23327,153.20995 65.14905,147.81306 62.17725,133.97504 53.00129,144.75108 " />
	<polygon
   id="_x2605_"
   class="st19"
   points="70.48496,97.51925 75.47836,105.71059 71.56137,114.46783 80.89482,112.25005 88.01306,118.68148 88.78805,109.11952 97.10433,104.3371 88.24981,100.6452 86.27135,91.25813 80.02396,98.53838 " />
</g>
</svg>
