<?xml version="1.0" encoding="UTF-8" standalone="no"?>
<!-- Created with Inkscape (http://www.inkscape.org/) -->

<svg
   version="1.1"
   id="svg2"
   width="666.66669"
   height="596.34265"
   viewBox="0 0 666.66669 596.34265"
   sodipodi:docname="Me Remixes_iguess Logo.ai"
   xmlns:inkscape="http://www.inkscape.org/namespaces/inkscape"
   xmlns:sodipodi="http://sodipodi.sourceforge.net/DTD/sodipodi-0.dtd"
   xmlns="http://www.w3.org/2000/svg"
   xmlns:svg="http://www.w3.org/2000/svg">
  <defs
     id="defs6">
    <clipPath
       clipPathUnits="userSpaceOnUse"
       id="clipPath16">
      <path
         d="M 0,447.257 H 500 V 0 H 0 Z"
         id="path14" />
    </clipPath>
    <linearGradient
       x1="0"
       y1="0"
       x2="1"
       y2="0"
       gradientUnits="userSpaceOnUse"
       gradientTransform="matrix(115.91686,26.761517,0,-115.91686,-11.218433,17.670469)"
       spreadMethod="pad"
       id="linearGradient54">
      <stop
         style="stop-opacity:1;stop-color:#ffff00"
         offset="0"
         id="stop48" />
      <stop
         style="stop-opacity:1;stop-color:#ffbe00"
         offset="0.75"
         id="stop50" />
      <stop
         style="stop-opacity:1;stop-color:#ffbe00"
         offset="1"
         id="stop52" />
    </linearGradient>
    <clipPath
       clipPathUnits="userSpaceOnUse"
       id="clipPath64">
      <path
         d="M 22.74,40.461 V 10.56 l 67.586,15.603 v 29.902 z"
         id="path62" />
    </clipPath>
    <clipPath
       clipPathUnits="userSpaceOnUse"
       id="clipPath72">
      <path
         d="M -10.2657,318.966 H 509.108 V -40.2489 H -10.2657 Z"
         id="path70" />
    </clipPath>
    <clipPath
       clipPathUnits="userSpaceOnUse"
       id="clipPath88">
      <path
         d="M 0,447.257 H 500 V 0 H 0 Z"
         id="path86" />
    </clipPath>
    <linearGradient
       x1="0"
       y1="0"
       x2="1"
       y2="0"
       gradientUnits="userSpaceOnUse"
       gradientTransform="matrix(51.64098,11.922259,0.1142156,-54.282578,84.308784,74.129738)"
       spreadMethod="pad"
       id="linearGradient112">
      <stop
         style="stop-opacity:1;stop-color:#6ee6ff"
         offset="0"
         id="stop106" />
      <stop
         style="stop-opacity:1;stop-color:#00a0ff"
         offset="0.85"
         id="stop108" />
      <stop
         style="stop-opacity:1;stop-color:#00a0ff"
         offset="1"
         id="stop110" />
    </linearGradient>
    <clipPath
       clipPathUnits="userSpaceOnUse"
       id="clipPath122">
      <path
         d="M 99.542,127.002 V 28.291 l 29.9,6.904 v 98.71 z"
         id="path120" />
    </clipPath>
    <clipPath
       clipPathUnits="userSpaceOnUse"
       id="clipPath130">
      <path
         d="M -10.2657,318.966 H 509.108 V -40.2489 H -10.2657 Z"
         id="path128" />
    </clipPath>
    <clipPath
       clipPathUnits="userSpaceOnUse"
       id="clipPath146">
      <path
         d="M 0,447.257 H 500 V 0 H 0 Z"
         id="path144" />
    </clipPath>
    <linearGradient
       x1="0"
       y1="0"
       x2="1"
       y2="0"
       gradientUnits="userSpaceOnUse"
       gradientTransform="matrix(76.98835,17.77416,0.1702769,-80.926544,139.05159,94.322159)"
       spreadMethod="pad"
       id="linearGradient170">
      <stop
         style="stop-opacity:1;stop-color:#c8f000"
         offset="0"
         id="stop164" />
      <stop
         style="stop-opacity:1;stop-color:#14b400"
         offset="0.8"
         id="stop166" />
      <stop
         style="stop-opacity:1;stop-color:#14b400"
         offset="1"
         id="stop168" />
    </linearGradient>
    <clipPath
       clipPathUnits="userSpaceOnUse"
       id="clipPath180">
      <path
         d="m 192.481,158.448 c -17.013,-3.928 -29.529,-11.67 -39.37,-24.269 v 0 c -9.026,-11.553 -14.059,-26.008 -14.059,-39.921 v 0 c 0,-14.534 5.465,-26.637 15.369,-34.195 v 0 c 9.945,-7.588 20.822,-9.175 37.587,-5.305 v 0 c 8.026,1.852 13.949,3.937 23.928,8.129 v 0 57.619 L 186.107,113.62 V 84.183 c -10.671,-0.986 -17.591,5.559 -17.591,16.821 v 0 c 0,13.401 9.251,23.12 25.568,26.888 v 0 c 7.007,1.616 12.711,2.315 21.852,2.499 v 0 30.93 c -9.724,-0.294 -15.989,-1.15 -23.455,-2.873"
         id="path178" />
    </clipPath>
    <clipPath
       clipPathUnits="userSpaceOnUse"
       id="clipPath188">
      <path
         d="M -10.2657,318.966 H 509.108 V -40.2489 H -10.2657 Z"
         id="path186" />
    </clipPath>
    <clipPath
       clipPathUnits="userSpaceOnUse"
       id="clipPath204">
      <path
         d="M 0,447.257 H 500 V 0 H 0 Z"
         id="path202" />
    </clipPath>
    <linearGradient
       x1="0"
       y1="0"
       x2="1"
       y2="0"
       gradientUnits="userSpaceOnUse"
       gradientTransform="matrix(79.871597,18.439812,0,-79.871597,225.5658,104.46149)"
       spreadMethod="pad"
       id="linearGradient226">
      <stop
         style="stop-opacity:1;stop-color:#aa37be"
         offset="0"
         id="stop222" />
      <stop
         style="stop-opacity:1;stop-color:#5f14a5"
         offset="1"
         id="stop224" />
    </linearGradient>
    <clipPath
       clipPathUnits="userSpaceOnUse"
       id="clipPath236">
      <path
         d="m 274.816,165.187 v -52.566 c 0,-4.846 0.572,-15.743 -9.314,-18.026 v 0 c -9.887,-2.282 -9.314,8.88 -9.314,13.726 v 0 52.566 l -30.622,-7.07 v -52.072 c 0,-32.607 19.997,-42.023 39.936,-37.419 v 0 c 19.829,4.577 39.935,23.252 39.935,55.858 v 0 52.072 z"
         id="path234" />
    </clipPath>
    <clipPath
       clipPathUnits="userSpaceOnUse"
       id="clipPath244">
      <path
         d="M -10.2657,318.966 H 509.108 V -40.2489 H -10.2657 Z"
         id="path242" />
    </clipPath>
    <clipPath
       clipPathUnits="userSpaceOnUse"
       id="clipPath260">
      <path
         d="M 0,447.257 H 500 V 0 H 0 Z"
         id="path258" />
    </clipPath>
    <linearGradient
       x1="0"
       y1="0"
       x2="1"
       y2="0"
       gradientUnits="userSpaceOnUse"
       gradientTransform="matrix(63.30312,14.614677,0.140009,-66.541275,314.87296,134.69762)"
       spreadMethod="pad"
       id="linearGradient284">
      <stop
         style="stop-opacity:1;stop-color:#ff8c3c"
         offset="0"
         id="stop278" />
      <stop
         style="stop-opacity:1;stop-color:#ff5a00"
         offset="0.75"
         id="stop280" />
      <stop
         style="stop-opacity:1;stop-color:#ff5a00"
         offset="1"
         id="stop282" />
    </linearGradient>
    <clipPath
       clipPathUnits="userSpaceOnUse"
       id="clipPath294">
      <path
         d="m 349.736,192.122 c -10.562,-2.407 -18.304,-6.285 -23.491,-11.589 v 0 c -6.574,-6.722 -10.379,-15.702 -10.379,-25.025 v 0 c 0,-9.578 3.387,-13.985 12.819,-16.714 v 0 c -9.979,-7.615 -13.767,-14.717 -13.767,-25.644 v 0 c 0,-9.032 2.936,-15.657 8.742,-19.3 v 0 c 5.56,-3.49 11.363,-3.875 23.053,-1.176 v 0 l 31.359,7.239 v 27.688 l -19.886,-4.591 c -7.866,-1.816 -8.668,1.405 -8.668,3.626 v 0 c 0,2.077 0.802,5.767 8.668,7.584 v 0 l 19.886,4.591 v 20.86 l -19.886,-4.592 c -7.866,-1.815 -10.27,-1.085 -10.27,3.214 v 0 c 0,4.296 2.404,6.139 10.27,7.955 v 0 l 19.886,4.591 v 27.825 z"
         id="path292" />
    </clipPath>
    <clipPath
       clipPathUnits="userSpaceOnUse"
       id="clipPath302">
      <path
         d="M -10.2657,318.966 H 591.81 V -121.667 H -10.2657 Z"
         id="path300" />
    </clipPath>
    <clipPath
       clipPathUnits="userSpaceOnUse"
       id="clipPath322">
      <path
         d="M 0,447.257 H 500 V 0 H 0 Z"
         id="path320" />
    </clipPath>
    <linearGradient
       x1="0"
       y1="0"
       x2="1"
       y2="0"
       gradientUnits="userSpaceOnUse"
       gradientTransform="matrix(47.646568,11.000077,0,-47.646568,387.55188,141.87933)"
       spreadMethod="pad"
       id="linearGradient346">
      <stop
         style="stop-opacity:1;stop-color:#ff8232"
         offset="0"
         id="stop340" />
      <stop
         style="stop-opacity:1;stop-color:#c80000"
         offset="0.75"
         id="stop342" />
      <stop
         style="stop-opacity:1;stop-color:#c80000"
         offset="1"
         id="stop344" />
    </linearGradient>
    <clipPath
       clipPathUnits="userSpaceOnUse"
       id="clipPath356">
      <path
         d="m 424.076,199.687 c -8.774,-2.025 -16.145,-7.058 -22.112,-15.097 v 0 c -5.528,-7.478 -8.291,-15.743 -8.291,-24.793 v 0 c 0,-7.122 2.105,-14.054 6.317,-20.8 v 0 c 2.018,-3.21 3.027,-5.688 3.027,-7.433 v 0 c 0,-2.022 -0.801,-3.952 -2.402,-5.792 v 0 c -1.601,-1.839 -3.477,-3.008 -5.627,-3.503 v 0 c -2.194,-0.507 -4.672,-0.551 -7.435,-0.133 v 0 -27.358 c 4.562,-0.462 8.949,-0.208 13.161,0.765 v 0 c 8.379,1.934 15.553,6.416 21.52,13.444 v 0 c 6.975,8.18 10.464,17.094 10.464,26.741 v 0 c 0,6.571 -1.997,12.817 -5.989,18.741 v 0 c -1.491,2.182 -2.456,3.819 -2.896,4.913 v 0 c -0.439,1.093 -0.658,2.352 -0.658,3.776 v 0 c 0,2.481 0.691,4.627 2.073,6.44 v 0 c 1.382,1.812 3.214,2.981 5.495,3.507 v 0 c 1.228,0.284 2.721,0.353 4.476,0.207 v 0 26.669 c -1.591,0.295 -3.194,0.442 -4.81,0.442 v 0 c -2.083,0 -4.188,-0.245 -6.313,-0.736"
         id="path354" />
    </clipPath>
    <clipPath
       clipPathUnits="userSpaceOnUse"
       id="clipPath364">
      <path
         d="M 73.1236,228.912 H 591.81 V -121.667 H 73.1236 Z"
         id="path362" />
    </clipPath>
    <clipPath
       clipPathUnits="userSpaceOnUse"
       id="clipPath380">
      <path
         d="M 0,447.257 H 500 V 0 H 0 Z"
         id="path378" />
    </clipPath>
    <linearGradient
       x1="0"
       y1="0"
       x2="1"
       y2="0"
       gradientUnits="userSpaceOnUse"
       gradientTransform="matrix(47.646568,11.000077,0,-47.646568,443.77609,163.26294)"
       spreadMethod="pad"
       id="linearGradient404">
      <stop
         style="stop-opacity:1;stop-color:#c8f000"
         offset="0"
         id="stop398" />
      <stop
         style="stop-opacity:1;stop-color:#14b400"
         offset="0.8"
         id="stop400" />
      <stop
         style="stop-opacity:1;stop-color:#14b400"
         offset="1"
         id="stop402" />
    </linearGradient>
    <clipPath
       clipPathUnits="userSpaceOnUse"
       id="clipPath414">
      <path
         d="m 480.3,221.072 c -8.774,-2.027 -16.144,-7.059 -22.111,-15.099 v 0 c -5.529,-7.478 -8.293,-15.742 -8.293,-24.792 v 0 c 0,-7.122 2.107,-14.055 6.319,-20.8 v 0 c 2.017,-3.21 3.027,-5.688 3.027,-7.433 v 0 c 0,-2.022 -0.801,-3.952 -2.403,-5.792 v 0 c -1.601,-1.84 -3.477,-3.008 -5.627,-3.505 v 0 c -2.193,-0.506 -4.672,-0.55 -7.436,-0.132 v 0 -27.357 c 4.564,-0.463 8.95,-0.208 13.162,0.764 v 0 c 8.38,1.935 15.554,6.416 21.521,13.445 v 0 c 6.975,8.179 10.462,17.094 10.462,26.741 v 0 c 0,6.57 -1.996,12.816 -5.988,18.74 v 0 c -1.492,2.181 -2.457,3.82 -2.895,4.913 v 0 c -0.439,1.093 -0.658,2.352 -0.658,3.776 v 0 c 0,2.481 0.691,4.627 2.072,6.44 v 0 c 1.383,1.812 3.214,2.982 5.496,3.508 v 0 c 1.228,0.284 2.72,0.353 4.474,0.206 v 0 26.669 c -1.59,0.295 -3.193,0.443 -4.809,0.443 v 0 c -2.083,0 -4.188,-0.245 -6.313,-0.735"
         id="path412" />
    </clipPath>
    <clipPath
       clipPathUnits="userSpaceOnUse"
       id="clipPath422">
      <path
         d="M 73.1236,228.912 H 591.81 V -121.667 H 73.1236 Z"
         id="path420" />
    </clipPath>
    <clipPath
       clipPathUnits="userSpaceOnUse"
       id="clipPath438">
      <path
         d="M 0,447.257 H 500 V 0 H 0 Z"
         id="path436" />
    </clipPath>
    <radialGradient
       fx="0"
       fy="0"
       cx="0"
       cy="0"
       r="1"
       gradientUnits="userSpaceOnUse"
       gradientTransform="matrix(9.807683,0,0,-9.807683,477.0336,120.62228)"
       spreadMethod="pad"
       id="radialGradient462">
      <stop
         style="stop-opacity:1;stop-color:#ffcaa6"
         offset="0"
         id="stop456" />
      <stop
         style="stop-opacity:1;stop-color:#ff8c3c"
         offset="0.42"
         id="stop458" />
      <stop
         style="stop-opacity:1;stop-color:#ff5a00"
         offset="1"
         id="stop460" />
    </radialGradient>
    <clipPath
       clipPathUnits="userSpaceOnUse"
       id="clipPath472">
      <path
         d="M 0,447.257 H 500 V 0 H 0 Z"
         id="path470" />
    </clipPath>
    <radialGradient
       fx="0"
       fy="0"
       cx="0"
       cy="0"
       r="1"
       gradientUnits="userSpaceOnUse"
       gradientTransform="matrix(9.5893307,0,0,-9.5893307,98.317375,128.15608)"
       spreadMethod="pad"
       id="radialGradient496">
      <stop
         style="stop-opacity:1;stop-color:#ffb68d"
         offset="0"
         id="stop490" />
      <stop
         style="stop-opacity:1;stop-color:#ff8232"
         offset="0.42"
         id="stop492" />
      <stop
         style="stop-opacity:1;stop-color:#c80000"
         offset="1"
         id="stop494" />
    </radialGradient>
    <clipPath
       clipPathUnits="userSpaceOnUse"
       id="clipPath506">
      <path
         d="M 0,447.257 H 500 V 0 H 0 Z"
         id="path504" />
    </clipPath>
  </defs>
  <sodipodi:namedview
     id="namedview4"
     pagecolor="#ffffff"
     bordercolor="#000000"
     borderopacity="0.25"
     inkscape:showpageshadow="2"
     inkscape:pageopacity="0.0"
     inkscape:pagecheckerboard="0"
     inkscape:deskcolor="#d1d1d1" />
  <g
     id="g8"
     inkscape:groupmode="layer"
     inkscape:label="Me Remixes_iguess Logo"
     transform="matrix(1.3333333,0,0,-1.3333333,0,596.34267)">
    <g
       id="g10">
      <g
         id="g12"
         clip-path="url(#clipPath16)">
        <g
           id="g18"
           transform="translate(443.9292,351.4187)">
          <path
             d="m 0,0 c -5.078,53.689 -50.465,95.838 -105.521,95.838 -39.523,0 -75.259,-22.118 -93.422,-55.887 -11.419,4.015 -23.503,6.091 -35.773,6.091 -19.165,0 -38.047,-5.175 -54.439,-14.766 -15.234,8.267 -32.213,12.584 -49.823,12.584 -57.87,0 -104.951,-47.153 -104.951,-105.113 0,-29.648 12.34,-57.435 33.676,-77.167 -4.665,-12.346 -7.089,-25.516 -7.089,-38.828 0,-60.473 49.198,-109.67 109.67,-109.67 22.471,0 44.076,6.753 62.479,19.528 10.602,7.361 19.722,16.41 27.053,26.762 16.996,-10.81 36.916,-16.743 57.321,-16.743 44.298,0 83.36,27.379 99.157,67.312 2.603,-0.195 5.216,-0.293 7.829,-0.293 57.147,0 103.64,46.047 103.64,102.648 C 49.807,-51.652 30.621,-18.461 0,0"
             style="fill:#0096e6;fill-opacity:1;fill-rule:nonzero;stroke:none"
             id="path20" />
        </g>
        <g
           id="g22"
           transform="translate(432.6538,344.324)">
          <path
             d="m 0,0 c -1.564,50.569 -43.24,91.23 -94.245,91.23 -38.765,0 -73.435,-23.915 -87.572,-59.265 -12.915,6.218 -27.122,9.469 -41.624,9.469 -19.661,0 -38.284,-5.777 -54.231,-16.767 -14.951,9.561 -32.124,14.585 -50.03,14.585 -51.418,0 -93.249,-41.904 -93.249,-93.411 0,-29.091 13.371,-56.171 36.11,-73.821 -6.248,-13.106 -9.522,-27.541 -9.522,-42.173 0,-54.02 43.947,-97.967 97.967,-97.967 20.074,0 39.371,6.029 55.805,17.437 12.777,8.871 23.142,20.482 30.428,33.991 16.934,-14.019 38.455,-21.882 60.619,-21.882 42.5,0 79.582,28.293 91.163,68.377 5.224,-0.904 10.52,-1.358 15.823,-1.358 50.695,0 91.938,40.798 91.938,90.946 C 49.38,-46.682 30.17,-15.607 0,0"
             style="fill:#ffffff;fill-opacity:1;fill-rule:nonzero;stroke:none"
             id="path24" />
        </g>
        <g
           id="g26"
           transform="translate(424.4361,339.1717)">
          <path
             d="m 0,0 c 0.019,0.736 0.056,1.469 0.056,2.209 0,47.478 -38.54,85.966 -86.083,85.966 -39.558,0 -72.861,-26.655 -82.939,-62.954 -13.39,8.322 -29.245,13.158 -46.257,13.158 -20.452,0 -39.236,-6.978 -54.062,-18.622 -14.071,10.329 -31.42,16.441 -50.199,16.441 -46.968,0 -85.042,-38.147 -85.042,-85.204 0,-29.837 15.31,-56.086 38.486,-71.306 -7.569,-13.159 -11.899,-28.418 -11.899,-44.689 0,-49.573 40.187,-89.76 89.76,-89.76 37.997,0 70.478,23.61 83.577,56.958 15.812,-16.863 38.301,-27.412 63.275,-27.412 42.189,0 77.323,30.073 85.077,69.9 6.985,-1.868 14.326,-2.881 21.91,-2.881 46.243,0 83.732,37.044 83.732,82.739 C 49.392,-41.858 29.112,-12.958 0,0"
             style="fill:#000000;fill-opacity:1;fill-rule:nonzero;stroke:none"
             id="path28" />
        </g>
        <path
           d="m 385.046,168.872 h 63.862 v 41.699 h -63.862 z"
           style="fill:#000000;fill-opacity:1;fill-rule:nonzero;stroke:none"
           id="path30" />
        <g
           id="g32"
           transform="translate(14.1616,47.0603)">
          <path
             d="m 0,0 v -47.061 l 84.744,19.565 v 47.06 z"
             style="fill:#000000;fill-opacity:1;fill-rule:nonzero;stroke:none"
             id="path34" />
        </g>
      </g>
    </g>
    <g
       id="g36">
      <g
         id="g38">
        <g
           id="g44">
          <g
             id="g46">
            <path
               d="M 22.74,40.461 V 10.56 l 67.586,15.603 v 29.902 z"
               style="fill:url(#linearGradient54);stroke:none"
               id="path56" />
          </g>
        </g>
      </g>
    </g>
    <g
       id="g58">
      <g
         id="g60"
         clip-path="url(#clipPath64)">
        <g
           id="g66">
          <g
             id="g68" />
          <g
             id="g80">
            <g
               clip-path="url(#clipPath72)"
               opacity="0.199997"
               id="g78">
              <g
                 transform="translate(19.2754,-40.2493)"
                 id="g76">
                <path
                   d="m 0,0 -29.541,60.857 489.833,298.358 29.541,-60.857 z"
                   style="fill:#ffffff;fill-opacity:1;fill-rule:nonzero;stroke:none"
                   id="path74" />
              </g>
            </g>
          </g>
        </g>
      </g>
    </g>
    <g
       id="g82">
      <g
         id="g84"
         clip-path="url(#clipPath88)">
        <g
           id="g90"
           transform="translate(90.9624,133.6004)">
          <path
             d="m 0,0 v -115.869 l 47.06,10.864 v 115.87 z"
             style="fill:#000000;fill-opacity:1;fill-rule:nonzero;stroke:none"
             id="path92" />
        </g>
      </g>
    </g>
    <g
       id="g94">
      <g
         id="g96">
        <g
           id="g102">
          <g
             id="g104">
            <path
               d="M 99.542,127.002 V 28.291 l 29.9,6.904 v 98.71 z"
               style="fill:url(#linearGradient112);stroke:none"
               id="path114" />
          </g>
        </g>
      </g>
    </g>
    <g
       id="g116">
      <g
         id="g118"
         clip-path="url(#clipPath122)">
        <g
           id="g124">
          <g
             id="g126" />
          <g
             id="g138">
            <g
               clip-path="url(#clipPath130)"
               opacity="0.199997"
               id="g136">
              <g
                 transform="translate(19.2754,-40.2493)"
                 id="g134">
                <path
                   d="m 0,0 -29.541,60.857 489.833,298.358 29.541,-60.857 z"
                   style="fill:#ffffff;fill-opacity:1;fill-rule:nonzero;stroke:none"
                   id="path132" />
              </g>
            </g>
          </g>
        </g>
      </g>
    </g>
    <g
       id="g140">
      <g
         id="g142"
         clip-path="url(#clipPath146)">
        <g
           id="g148"
           transform="translate(217.624,170.1228)">
          <path
             d="m 0,0 c -9.849,-0.299 -16.663,-1.138 -25.143,-3.095 -19.231,-4.44 -34.141,-13.717 -45.582,-28.364 -10.44,-13.365 -16.427,-30.272 -16.427,-46.388 0,-16.79 6.358,-30.885 17.902,-39.694 11.621,-8.867 24.67,-10.782 43.634,-6.404 8.294,1.915 14.495,4.015 25.522,8.647 l 6.986,2.934 V 0.21 Z"
             style="fill:#000000;fill-opacity:1;fill-rule:nonzero;stroke:none"
             id="path150" />
        </g>
      </g>
    </g>
    <g
       id="g152">
      <g
         id="g154">
        <g
           id="g160">
          <g
             id="g162">
            <path
               d="m 192.481,158.448 c -17.013,-3.928 -29.529,-11.67 -39.37,-24.269 v 0 c -9.026,-11.553 -14.059,-26.008 -14.059,-39.921 v 0 c 0,-14.534 5.465,-26.637 15.369,-34.195 v 0 c 9.945,-7.588 20.822,-9.175 37.587,-5.305 v 0 c 8.026,1.852 13.949,3.937 23.928,8.129 v 0 57.619 L 186.107,113.62 V 84.183 c -10.671,-0.986 -17.591,5.559 -17.591,16.821 v 0 c 0,13.401 9.251,23.12 25.568,26.888 v 0 c 7.007,1.616 12.711,2.315 21.852,2.499 v 0 30.93 c -9.724,-0.294 -15.989,-1.149 -23.455,-2.873"
               style="fill:url(#linearGradient170);stroke:none"
               id="path172" />
          </g>
        </g>
      </g>
    </g>
    <g
       id="g174">
      <g
         id="g176"
         clip-path="url(#clipPath180)">
        <g
           id="g182">
          <g
             id="g184" />
          <g
             id="g196">
            <g
               clip-path="url(#clipPath188)"
               opacity="0.199997"
               id="g194">
              <g
                 transform="translate(19.2754,-40.2493)"
                 id="g192">
                <path
                   d="m 0,0 -29.541,60.857 489.833,298.358 29.541,-60.857 z"
                   style="fill:#ffffff;fill-opacity:1;fill-rule:nonzero;stroke:none"
                   id="path190" />
              </g>
            </g>
          </g>
        </g>
      </g>
    </g>
    <g
       id="g198">
      <g
         id="g200"
         clip-path="url(#clipPath204)">
        <g
           id="g206"
           transform="translate(216.9888,160.4138)">
          <path
             d="m 0,0 v -60.649 c 0,-38.143 24.366,-49.59 48.513,-44.015 24.147,5.574 48.512,28.272 48.512,66.415 V 22.4 Z"
             style="fill:#000000;fill-opacity:1;fill-rule:nonzero;stroke:none"
             id="path208" />
        </g>
      </g>
    </g>
    <g
       id="g210">
      <g
         id="g212">
        <g
           id="g218">
          <g
             id="g220">
            <path
               d="m 274.816,165.187 v -52.566 c 0,-4.846 0.572,-15.743 -9.314,-18.026 v 0 c -9.887,-2.282 -9.314,8.88 -9.314,13.726 v 0 52.566 l -30.622,-7.07 v -52.072 c 0,-32.607 19.997,-42.023 39.936,-37.419 v 0 c 19.829,4.577 39.935,23.252 39.935,55.858 v 0 52.072 z"
               style="fill:url(#linearGradient226);stroke:none"
               id="path228" />
          </g>
        </g>
      </g>
    </g>
    <g
       id="g230">
      <g
         id="g232"
         clip-path="url(#clipPath236)">
        <g
           id="g238">
          <g
             id="g240" />
          <g
             id="g252">
            <g
               clip-path="url(#clipPath244)"
               opacity="0.199997"
               id="g250">
              <g
                 transform="translate(19.2754,-40.2493)"
                 id="g248">
                <path
                   d="m 0,0 -29.541,60.857 489.833,298.358 29.541,-60.857 z"
                   style="fill:#ffffff;fill-opacity:1;fill-rule:nonzero;stroke:none"
                   id="path246" />
              </g>
            </g>
          </g>
        </g>
      </g>
    </g>
    <g
       id="g254">
      <g
         id="g256"
         clip-path="url(#clipPath260)">
        <g
           id="g262"
           transform="translate(349.7613,200.7078)">
          <path
             d="m 0,0 c -12.557,-2.832 -21.979,-7.662 -28.842,-14.679 -8.664,-8.86 -13.634,-20.706 -13.634,-32.501 0,-8.25 -0.946,-32.987 -0.946,-42.359 0,-11.617 4.057,-20.303 11.733,-25.119 8.312,-5.216 17.122,-4.615 28.642,-1.955 l 39.938,9.219 V 8.517 Z"
             style="fill:#000000;fill-opacity:1;fill-rule:nonzero;stroke:none"
             id="path264" />
        </g>
      </g>
    </g>
    <g
       id="g266">
      <g
         id="g268">
        <g
           id="g274">
          <g
             id="g276">
            <path
               d="m 349.736,192.122 c -10.562,-2.407 -18.304,-6.285 -23.491,-11.589 v 0 c -6.574,-6.722 -10.379,-15.702 -10.379,-25.025 v 0 c 0,-9.578 3.387,-13.985 12.819,-16.714 v 0 c -9.979,-7.615 -13.767,-14.717 -13.767,-25.644 v 0 c 0,-9.032 2.936,-15.657 8.742,-19.3 v 0 c 5.56,-3.49 11.363,-3.875 23.053,-1.176 v 0 l 31.359,7.239 v 27.688 l -19.886,-4.591 c -7.866,-1.816 -8.668,1.405 -8.668,3.626 v 0 c 0,2.077 0.802,5.767 8.668,7.584 v 0 l 19.886,4.591 v 20.86 l -19.886,-4.592 c -7.866,-1.815 -10.27,-1.085 -10.27,3.214 v 0 c 0,4.296 2.404,6.139 10.27,7.955 v 0 l 19.886,4.591 v 27.825 z"
               style="fill:url(#linearGradient284);stroke:none"
               id="path286" />
          </g>
        </g>
      </g>
    </g>
    <g
       id="g288">
      <g
         id="g290"
         clip-path="url(#clipPath294)">
        <g
           id="g296">
          <g
             id="g298" />
          <g
             id="g314">
            <g
               clip-path="url(#clipPath302)"
               opacity="0.199997"
               id="g312">
              <g
                 transform="translate(19.2754,-40.2493)"
                 id="g306">
                <path
                   d="m 0,0 -29.541,60.857 489.833,298.358 29.541,-60.857 z"
                   style="fill:#ffffff;fill-opacity:1;fill-rule:nonzero;stroke:none"
                   id="path304" />
              </g>
              <g
                 transform="translate(101.4458,-121.6672)"
                 id="g310">
                <path
                   d="m 0,0 -28.322,53.898 490.391,296.681 28.295,-53.925 z"
                   style="fill:#ffffff;fill-opacity:1;fill-rule:nonzero;stroke:none"
                   id="path308" />
              </g>
            </g>
          </g>
        </g>
      </g>
    </g>
    <g
       id="g316">
      <g
         id="g318"
         clip-path="url(#clipPath322)">
        <g
           id="g324"
           transform="translate(443.7759,163.6052)">
          <path
             d="m 0,0 v 44.074 l -5.279,0.98 c -4.674,0.868 -9.526,0.735 -14.42,-0.395 C -30.976,42.056 -40.565,35.52 -48.215,25.214 -55.159,15.818 -58.681,5.388 -58.681,-5.788 l -6.121,-25.2 v -46.007 l 5.872,-0.596 c 5.414,-0.55 10.752,-0.229 15.868,0.951 10.607,2.45 19.831,8.22 27.4,17.136 8.733,10.24 13.161,21.548 13.161,33.608 C -2.501,-17.818 0,0 0,0"
             style="fill:#000000;fill-opacity:1;fill-rule:nonzero;stroke:none"
             id="path326" />
        </g>
      </g>
    </g>
    <g
       id="g328">
      <g
         id="g330">
        <g
           id="g336">
          <g
             id="g338">
            <path
               d="m 424.076,199.687 c -8.774,-2.025 -16.145,-7.058 -22.112,-15.097 v 0 c -5.528,-7.478 -8.291,-15.743 -8.291,-24.793 v 0 c 0,-7.121 2.105,-14.054 6.317,-20.8 v 0 c 2.018,-3.21 3.027,-5.687 3.027,-7.433 v 0 c 0,-2.022 -0.801,-3.952 -2.402,-5.792 v 0 c -1.601,-1.839 -3.477,-3.008 -5.627,-3.503 v 0 c -2.194,-0.507 -4.672,-0.551 -7.435,-0.133 v 0 -27.358 c 4.562,-0.462 8.949,-0.208 13.161,0.765 v 0 c 8.379,1.934 15.553,6.416 21.52,13.444 v 0 c 6.975,8.18 10.464,17.094 10.464,26.741 v 0 c 0,6.571 -1.997,12.817 -5.989,18.741 v 0 c -1.491,2.182 -2.456,3.819 -2.896,4.913 v 0 c -0.439,1.093 -0.658,2.352 -0.658,3.776 v 0 c 0,2.481 0.691,4.627 2.073,6.44 v 0 c 1.382,1.812 3.214,2.981 5.495,3.507 v 0 c 1.228,0.284 2.721,0.353 4.476,0.207 v 0 26.669 c -1.591,0.295 -3.194,0.442 -4.81,0.442 v 0 c -2.083,0 -4.188,-0.245 -6.313,-0.736"
               style="fill:url(#linearGradient346);stroke:none"
               id="path348" />
          </g>
        </g>
      </g>
    </g>
    <g
       id="g350">
      <g
         id="g352"
         clip-path="url(#clipPath356)">
        <g
           id="g358">
          <g
             id="g360" />
          <g
             id="g372">
            <g
               clip-path="url(#clipPath364)"
               opacity="0.199997"
               id="g370">
              <g
                 transform="translate(101.4458,-121.6672)"
                 id="g368">
                <path
                   d="m 0,0 -28.322,53.898 490.391,296.681 28.295,-53.925 z"
                   style="fill:#ffffff;fill-opacity:1;fill-rule:nonzero;stroke:none"
                   id="path366" />
              </g>
            </g>
          </g>
        </g>
      </g>
    </g>
    <g
       id="g374">
      <g
         id="g376"
         clip-path="url(#clipPath380)">
        <g
           id="g382"
           transform="translate(499.9995,184.989)">
          <path
             d="m 0,0 v 44.074 l -5.279,0.98 c -4.674,0.868 -9.526,0.735 -14.419,-0.395 C -30.975,42.056 -40.564,35.52 -48.214,25.214 -55.158,15.818 -58.68,5.388 -58.68,-5.789 c 0,-8.541 -6.121,-25.199 -6.121,-25.199 v -46.007 l 5.872,-0.596 c 5.413,-0.55 10.752,-0.23 15.868,0.951 10.607,2.449 19.831,8.22 27.4,17.136 8.732,10.24 13.16,21.548 13.16,33.608 0,8.077 -2.407,15.746 -7.18,22.825 -1.789,2.618 -2.192,3.567 -2.229,3.66 -0.043,0.105 -0.074,0.235 -0.097,0.388 0.241,-0.005 0.526,-0.02 0.86,-0.047 z"
             style="fill:#000000;fill-opacity:1;fill-rule:nonzero;stroke:none"
             id="path384" />
        </g>
      </g>
    </g>
    <g
       id="g386">
      <g
         id="g388">
        <g
           id="g394">
          <g
             id="g396">
            <path
               d="m 480.3,221.072 c -8.774,-2.027 -16.144,-7.059 -22.111,-15.099 v 0 c -5.529,-7.478 -8.293,-15.742 -8.293,-24.792 v 0 c 0,-7.122 2.107,-14.055 6.319,-20.8 v 0 c 2.017,-3.21 3.027,-5.688 3.027,-7.433 v 0 c 0,-2.022 -0.801,-3.952 -2.403,-5.792 v 0 c -1.601,-1.84 -3.477,-3.008 -5.627,-3.505 v 0 c -2.193,-0.506 -4.672,-0.55 -7.436,-0.132 v 0 -27.357 c 4.564,-0.463 8.95,-0.208 13.162,0.764 v 0 c 8.38,1.935 15.554,6.416 21.521,13.445 v 0 c 6.975,8.179 10.462,17.094 10.462,26.741 v 0 c 0,6.57 -1.996,12.816 -5.988,18.74 v 0 c -1.492,2.182 -2.457,3.82 -2.895,4.913 v 0 c -0.439,1.093 -0.658,2.352 -0.658,3.776 v 0 c 0,2.481 0.691,4.627 2.072,6.44 v 0 c 1.383,1.812 3.214,2.982 5.496,3.508 v 0 c 1.228,0.284 2.72,0.353 4.474,0.206 v 0 26.669 c -1.59,0.295 -3.193,0.443 -4.809,0.443 v 0 c -2.083,0 -4.188,-0.245 -6.313,-0.735"
               style="fill:url(#linearGradient404);stroke:none"
               id="path406" />
          </g>
        </g>
      </g>
    </g>
    <g
       id="g408">
      <g
         id="g410"
         clip-path="url(#clipPath414)">
        <g
           id="g416">
          <g
             id="g418" />
          <g
             id="g430">
            <g
               clip-path="url(#clipPath422)"
               opacity="0.199997"
               id="g428">
              <g
                 transform="translate(101.4458,-121.6672)"
                 id="g426">
                <path
                   d="m 0,0 -28.322,53.898 490.391,296.681 28.295,-53.925 z"
                   style="fill:#ffffff;fill-opacity:1;fill-rule:nonzero;stroke:none"
                   id="path424" />
              </g>
            </g>
          </g>
        </g>
      </g>
    </g>
    <g
       id="g432">
      <g
         id="g434"
         clip-path="url(#clipPath438)">
        <g
           id="g440"
           transform="translate(486.0367,124.1785)">
          <path
             d="m 0,0 2.405,12.11 -11.061,-5.446 -10.748,6.028 1.73,-12.199 -9.065,-8.39 12.162,-2.104 5.105,-11.226 5.823,10.925 12.259,1.439 z"
             style="fill:#000000;fill-opacity:1;fill-rule:nonzero;stroke:none"
             id="path442" />
        </g>
      </g>
    </g>
    <g
       id="g444">
      <g
         id="g446">
        <g
           id="g452">
          <g
             id="g454">
            <path
               d="m 472.161,123.321 -5.136,-4.753 6.903,-1.194 2.891,-6.354 3.296,6.187 6.927,0.811 -4.872,5.017 1.36,6.856 -6.258,-3.082 -6.091,3.416 z"
               style="fill:url(#radialGradient462);stroke:none"
               id="path464" />
          </g>
        </g>
      </g>
    </g>
    <g
       id="g466">
      <g
         id="g468"
         clip-path="url(#clipPath472)">
        <g
           id="g474"
           transform="translate(108.7363,129.1277)">
          <path
             d="M 0,0 5.127,11.791 -7.351,8.71 l -9.638,8.512 -0.924,-12.825 -11.079,-6.566 11.932,-4.813 2.769,-12.563 8.309,9.847 12.808,-1.235 z"
             style="fill:#000000;fill-opacity:1;fill-rule:nonzero;stroke:none"
             id="path476" />
        </g>
      </g>
    </g>
    <g
       id="g478">
      <g
         id="g480">
        <g
           id="g486">
          <g
             id="g488">
            <path
               d="m 94.713,131.12 -5.854,-3.469 6.314,-2.547 1.464,-6.641 4.391,5.204 6.748,-0.65 -3.605,5.772 2.711,6.233 -6.586,-1.626 -5.095,4.499 z"
               style="fill:url(#radialGradient496);stroke:none"
               id="path498" />
          </g>
        </g>
      </g>
    </g>
    <g
       id="g500">
      <g
         id="g502"
         clip-path="url(#clipPath506)">
        <g
           id="g508"
           transform="translate(406.6265,240.6834)">
          <path
             d="m 0,0 c -0.282,2.646 -4.859,3.246 -11.989,4.955 -12.465,3.095 -20.181,10.439 -19.393,23.339 0.839,13.925 7.889,23.637 45.2,29.973 V 29.301 C 0.354,27.617 -7.079,25.098 -10.231,22.519 c -3.363,-2.728 -3.166,-7.197 1.686,-8.818 2.108,-0.704 8.343,-2.786 12.109,-4.049 7.23,-2.41 10.767,-6.105 11.505,-12.645 2.082,-18.449 -31.309,-23.287 -45.077,-25.31 V -11.91 C -13.515,-8.586 0.637,-5.674 0,0"
             style="fill:#ff5500;fill-opacity:1;fill-rule:nonzero;stroke:none"
             id="path510" />
        </g>
        <g
           id="g512"
           transform="translate(351.3618,250.1443)">
          <path
             d="m 0,0 c 4.229,1.594 13.083,3.974 20.52,5.587 v 23.02 l -37.164,-8.58 v -61.526 l 37.104,8.566 v 10.249 c -4.879,-1.278 -14.932,-3.167 -19.358,-3.915 -5.391,-0.904 -6.159,5.961 -0.197,7.929 3.423,1.122 9.699,2.617 14.597,3.994 l 10e-4,7.892 C 11.037,-7.688 4.997,-8.735 0.236,-9.404 -5.666,-10.25 -6.689,-2.518 0,0"
             style="fill:#ff5500;fill-opacity:1;fill-rule:nonzero;stroke:none"
             id="path514" />
        </g>
        <g
           id="g516"
           transform="translate(295.4253,220.0017)">
          <path
             d="m 0,0 c 0,0 -12.999,14.814 -12.999,34.729 l 16.68,3.85 c 0,0 2.211,-27.43 7.279,-26.26 5.205,1.202 7.586,29.692 7.586,29.692 l 16.68,3.851 C 35.226,26.045 22.14,5.111 22.14,5.111 l 13.086,-23.353 -15.892,-3.669 c 0,0 -5.232,13.382 -8.374,12.656 C 7.817,-9.98 2.391,-25.823 2.391,-25.823 l -15.39,-3.553 z"
             style="fill:#ff5500;fill-opacity:1;fill-rule:nonzero;stroke:none"
             id="path518" />
        </g>
        <g
           id="g520"
           transform="translate(263.5459,191.6677)">
          <path
             d="m 0,0 v 63.71 l 14.856,3.43 V 3.43 Z"
             style="fill:#ff5500;fill-opacity:1;fill-rule:nonzero;stroke:none"
             id="path522" />
        </g>
        <g
           id="g524"
           transform="translate(251.0137,249.865)">
          <path
             d="m 0,0 c -4.564,-15.07 -7.147,-22.438 -9.397,-28.65 -3.835,-10.57 -7.812,-6.418 -9.666,-3.471 -2.156,3.455 -5.087,10.174 -10.174,22.487 l -12.566,-2.9 v -62.094 l 10.427,2.407 c -0.08,9.429 0.079,18.771 0.586,21.259 0.46,2.234 1.807,2.551 3.169,0.333 1.125,-1.823 2.9,-5.768 6.434,-13.882 l 6.987,1.614 c 3.85,10.347 5.928,15.564 7.402,18.115 1.188,2.076 3.454,3.534 4.136,-0.301 0.522,-2.9 0.475,-10.767 0.459,-20.401 l 10.808,2.495 V 1.987 Z"
             style="fill:#ff5500;fill-opacity:1;fill-rule:nonzero;stroke:none"
             id="path526" />
        </g>
        <g
           id="g528"
           transform="translate(184.7637,212.5486)">
          <path
             d="m 0,0 c 4.229,1.594 13.083,3.974 20.519,5.587 v 23.02 l -37.163,-8.58 v -61.526 l 37.104,8.565 v 10.25 c -4.879,-1.278 -14.932,-3.167 -19.358,-3.915 -5.391,-0.904 -6.158,5.961 -0.197,7.929 3.423,1.121 9.699,2.616 14.597,3.993 v 7.893 C 11.037,-7.688 4.997,-8.735 0.236,-9.404 -5.666,-10.25 -6.689,-2.519 0,0"
             style="fill:#ff5500;fill-opacity:1;fill-rule:nonzero;stroke:none"
             id="path530" />
        </g>
        <g
           id="g532"
           transform="translate(125.3418,188.9773)">
          <path
             d="m 0,0 c -5.371,-1.259 -8.361,1.731 -8.361,8.125 v 6.178 c 0,4.455 0.865,8.321 4.84,9.58 C 8.017,27.539 16.053,22.565 16.053,14.755 16.053,7.456 10.466,2.459 0,0 m 38.894,26.696 c 0,28.389 -27.779,36.633 -61.754,24.494 v -91.641 l 14.479,3.343 v 22.943 c 0,3.502 2.577,2.893 4.958,0.768 1.672,-1.496 11.725,-11.234 18.749,-18.238 l 22.104,5.104 c 0,0 -19.272,19.684 -21.495,21.633 12.945,4.838 22.959,17.451 22.959,31.594"
             style="fill:#ff5500;fill-opacity:1;fill-rule:nonzero;stroke:none"
             id="path534" />
        </g>
        <g
           id="g536"
           transform="translate(268.6607,322.8064)">
          <path
             d="M 0,0 C 6.079,2.291 18.805,5.712 29.493,8.031 V 41.118 L -23.923,28.787 v -88.435 l 53.331,12.312 v 14.732 c -7.012,-1.838 -21.463,-4.552 -27.825,-5.627 -7.748,-1.301 -8.851,8.568 -0.282,11.396 4.92,1.612 13.94,3.761 20.981,5.74 V -9.75 C 15.863,-11.051 7.183,-12.555 0.339,-13.517 -8.144,-14.732 -9.614,-3.619 0,0"
             style="fill:#ffaa00;fill-opacity:1;fill-rule:nonzero;stroke:none"
             id="path538" />
        </g>
        <g
           id="g540"
           transform="translate(227.3252,346.7234)">
          <path
             d="m 0,0 c -6.185,-20.422 -9.685,-30.408 -12.734,-38.826 -5.198,-14.324 -10.588,-8.697 -13.1,-4.703 -2.921,4.681 -6.894,13.786 -13.787,30.472 l -17.029,-3.929 v -84.142 l 14.13,3.262 c -0.107,12.778 0.107,25.431 0.794,28.803 0.623,3.028 2.449,3.458 4.295,0.451 1.525,-2.47 3.931,-7.817 8.719,-18.812 l 9.468,2.186 c 5.219,14.023 8.034,21.093 10.032,24.55 1.61,2.813 4.681,4.789 5.604,-0.408 0.709,-3.929 0.645,-12.2 0.623,-25.257 l 14.646,3.382 V 2.692 Z"
             style="fill:#ffaa00;fill-opacity:1;fill-rule:nonzero;stroke:none"
             id="path542" />
        </g>
      </g>
    </g>
  </g>
</svg>
