<?xml version="1.0" encoding="UTF-8"?>
<svg width="693px" height="570px" viewBox="0 0 693 570" version="1.1" xmlns="http://www.w3.org/2000/svg" xmlns:xlink="http://www.w3.org/1999/xlink">
    <title>O Paraíso do Ritmo</title>
    <defs>
        <polygon id="path-1" points="11 496.35467 677.66665 496.35467 677.66665 1.57421999e-05 11 1.57421999e-05"></polygon>
    </defs>
    <g id="O-Paraíso-do-Ritmo" stroke="none" stroke-width="1" fill="none" fill-rule="evenodd">
        <mask id="mask-2" fill="white">
            <use xlink:href="#path-1" transform="translate(344.3333, 248.1773) scale(-1, 1) rotate(-180) translate(-344.3333, -248.1773)"></use>
        </mask>
        <g id="Mask" transform="translate(344.3333, 248.1773) scale(-1, 1) rotate(-180) translate(-344.3333, -248.1773)"></g>
        <path d="M653.510384,298.710008 C660.035717,315.439341 663.431717,333.363341 663.431717,351.444674 C663.431717,431.348672 598.426385,496.355337 518.522387,496.355337 C471.955722,496.355337 429.021056,474.107337 402.06639,437.722005 C383.383724,447.056671 362.646391,452.022004 341.459725,452.022004 C313.471726,452.022004 286.59706,443.556671 263.742394,427.540672 C251.890394,419.236672 241.559728,409.228672 233.025061,397.868672 C210.099728,412.254005 183.334396,420.138005 155.910396,420.138005 C76.0063984,420.138005 10.9997333,355.13134 10.9997333,275.227342 C10.9997333,243.104676 21.2983997,212.672677 40.7810659,187.218011 C54.3890656,169.438012 72.1050651,154.991345 92.0770646,145.142012 C91.8037313,141.644679 91.6677313,138.131346 91.6677313,134.612679 C91.6677313,60.3873476 152.054396,0.00068240885 226.278395,0.00068240885 C254.125061,0.00068240885 280.85306,8.43801553 303.574393,24.3980151 C317.090392,33.8926816 328.606392,45.6166813 337.711725,59.0433476 C352.907725,53.3006811 369.093058,50.3313478 385.625057,50.3313478 C427.235723,50.3313478 466.334389,69.774014 491.761055,101.610013 C508.498388,94.1473467 526.662387,90.2793468 545.449053,90.2793468 C618.354385,90.2793468 677.666383,149.591345 677.666383,222.495344 C677.666383,250.100676 669.19705,276.542009 653.510384,298.710008" id="path20" fill="#00B3F0" fill-rule="nonzero" mask="url(#mask-2)" transform="translate(344.3331, 248.178) scale(-1, 1) rotate(-180) translate(-344.3331, -248.178)"></path>
        <path d="M636.189051,296.561075 C644.162384,313.662408 648.342384,332.451741 648.342384,351.44374 C648.342384,423.027738 590.105052,481.26507 518.522387,481.26507 C472.265055,481.26507 430.009056,456.762404 406.831723,417.657072 C387.459724,430.171738 364.765058,436.931738 341.459725,436.931738 C316.586392,436.931738 292.706393,429.411738 272.402393,415.182405 C257.78906,404.942406 245.777061,391.793073 237.018394,376.56374 C214.139728,394.834406 185.449062,405.047739 155.910396,405.047739 C84.3277315,405.047739 26.0890663,346.810407 26.0890663,275.227742 C26.0890663,221.739744 59.3677321,173.702411 108.393064,154.386412 C107.305064,147.870412 106.757064,141.255746 106.757064,134.613079 C106.757064,68.7077474 160.374396,15.0904154 226.278395,15.0904154 C251.003727,15.0904154 274.73306,22.5784152 294.90106,36.7450815 C310.355726,47.6024146 322.866392,61.7397475 331.654392,78.1570805 C348.321058,69.7890807 366.717058,65.4210808 385.625057,65.4210808 C426.753056,65.4210808 465.117055,86.7904136 487.079721,120.919746 C504.755721,110.706413 524.669054,105.36908 545.449053,105.36908 C610.033052,105.36908 662.575717,157.911745 662.575717,222.495744 C662.575717,249.730409 653.270384,275.689076 636.189051,296.561075" id="path24" fill="#FFFFFF" fill-rule="nonzero" mask="url(#mask-2)" transform="translate(344.3324, 248.1777) scale(-1, 1) rotate(-180) translate(-344.3324, -248.1777)"></path>
        <path d="M634.169984,351.445607 C634.169984,415.868272 581.944652,468.092271 517.521987,468.092271 C469.568655,468.092271 428.380656,439.152271 410.452657,397.788272 C391.66199,413.972272 367.204658,423.758938 340.459325,423.758938 C294.701993,423.758938 255.639327,395.114939 240.209994,354.781607 C218.917995,377.601606 188.583329,391.874939 154.909996,391.874939 C90.4886647,391.874939 38.2633326,339.650941 38.2633326,275.228276 C38.2633326,221.948277 73.9846651,177.013611 122.784664,163.062945 C120.276664,154.006945 118.929997,144.466945 118.929997,134.613612 C118.929997,75.8789472 166.544663,28.2642817 225.277995,28.2642817 C270.71666,28.2642817 309.491326,56.7642817 324.721992,96.86028 C341.829992,85.3282803 362.440658,78.5949471 384.625991,78.5949471 C427.367323,78.5949471 465.083071,98.4469466 482.337737,134.613612 C499.805736,121.308279 518.331996,117.501455 541.985328,117.501455 C599.397327,117.501455 648.403317,165.084278 648.403317,222.496277 C648.403317,250.473609 637.347318,275.866942 619.369985,294.553608 C628.791318,311.384275 634.169984,330.785607 634.169984,351.445607 Z" id="path28" fill="#130C0E" fill-rule="nonzero" mask="url(#mask-2)" transform="translate(343.3333, 248.1783) scale(-1, 1) rotate(-180) translate(-343.3333, -248.1783)"></path>
        <path d="M113.622493,262.350932 C98.3972337,262.350932 95.5172729,252.798443 95.5172729,243.487416 C95.5172729,241.637223 95.5172729,226.664083 112.7702,226.664083 C131.727712,226.664083 131.727712,241.574551 131.727712,243.487416 C131.727712,252.593093 128.241158,262.350932 113.622493,262.350932 Z M113.622493,190.849622 C84.7758106,190.849622 78.4556535,216.605414 78.4556535,236.277414 C78.4556535,255.251735 81.9693875,280.999997 113.622438,280.97464 C146.859377,280.947975 148.867235,257.733036 148.867235,238.758716 C148.867235,219.086715 145.627309,190.849622 113.622495,190.849622 L113.622493,190.849622 Z" id="Shape" fill="#FAA619" fill-rule="nonzero" mask="url(#mask-2)"></path>
        <path d="M199.084172,207.087176 C207.929039,207.989259 211.918719,214.082165 211.918719,220.816087 C211.918719,226.431197 208.604532,232.463317 199.844107,232.593968 C195.157805,232.651967 192.455798,230.803799 192.455798,226.877446 C192.455798,223.394386 192.455798,217.4204 192.455798,212.670773 C192.476915,208.664852 194.672303,206.638562 199.084172,207.087177 L199.084172,207.087176 Z M230.875021,215.672138 C229.903991,192.417546 205.881419,174.121382 170.43865,179.976562 L170.43865,269.000003 L192.476886,269.000003 L192.476929,248.055121 C192.476929,244.234314 193.426854,242.553771 195.706672,242.679022 C216.24617,243.790096 231.740503,236.728074 230.875021,215.672133 L230.875021,215.672138 Z" id="Shape" fill="#FAA619" fill-rule="nonzero" mask="url(#mask-2)"></path>
        <path d="M277.336848,228.012471 L266.967788,228.012471 C264.35807,228.012471 262.849426,226.126953 263.170686,222.579325 C263.462803,219.258518 264.981591,212.423925 265.565827,210.134418 C266.792584,205.364561 269.362928,203.446055 272.312989,203.689031 C277.073957,204.028753 279.410641,208.044044 281.221548,217.224722 C281.396749,218.112184 281.893383,219.979326 282.126958,222.428396 C282.535906,227.342175 281.028485,228.012471 277.336846,228.012471 L277.336848,228.012471 Z M295.504452,193.35826 C290.071733,174.286783 285.669373,168.875003 274.854103,168.875003 C265.223969,168.875003 259.870135,172.63014 255.342826,188.964022 C250.87389,205.048432 245.35559,231.028448 241.38865,259.000005 L257.066388,259.000005 C257.358505,256.87681 258.526632,250.569534 259.285983,246.830892 C260.103879,243.07661 262.236023,240.748474 266.471322,240.748474 L278.73889,240.748473 C282.019398,240.748474 285.018646,244.038511 286.070202,248.66248 C286.771182,251.745183 287.68007,256.090281 288.26422,259.000005 L309.086463,259.000005 C306.545348,237.996603 300.908028,212.306073 295.504452,193.358263 L295.504452,193.35826 Z" id="Shape" fill="#FAA619" fill-rule="nonzero" mask="url(#mask-2)"></path>
        <path d="M335.599723,180.589534 C346.909407,180.089936 354.705209,186.286886 354.705209,193.909883 C354.705209,201.033632 349.25198,204.651839 339.036794,204.693736 C333.794788,204.712352 330.876158,201.119903 330.876158,194.879418 C330.876158,192.133608 330.876158,191.922383 330.876158,188.850145 C330.856949,184.506165 331.721017,180.922954 335.599721,180.589535 L335.599723,180.589534 Z M354.589992,213.065568 C367.224573,211.258928 376.978931,201.202733 376.998139,187.4013 C376.998139,159.693546 349.885626,145.388698 316.724649,149.580208 L316.724649,238.985233 L330.873743,238.985233 L330.856948,216.630263 C330.856948,213.2124 333.372344,214.388366 335.695727,216.998519 C337.327853,218.834633 347.109077,230.5669 353.964013,238.985233 L375.538826,238.985233 C375.519617,238.999998 356.759766,215.46745 354.589988,213.065565 L354.589992,213.065568 Z" id="Shape" fill="#FAA619" fill-rule="nonzero" mask="url(#mask-2)"></path>
        <path d="M420.592848,196.012471 L410.223788,196.012471 C407.61407,196.012471 406.105426,194.126953 406.426686,190.579325 C406.718803,187.258518 408.237591,180.423925 408.821827,178.134418 C410.048584,173.364561 412.618928,171.446055 415.568989,171.689031 C420.329957,172.028753 422.666641,176.044044 424.477548,185.224722 C424.652749,186.112184 425.149383,187.979326 425.382958,190.428396 C425.791906,195.342175 424.284485,196.012471 420.592846,196.012471 L420.592848,196.012471 Z M438.760452,161.35826 C433.327733,142.286783 428.925373,136.875003 418.110103,136.875003 C408.479969,136.875003 403.126135,140.63014 398.598826,156.964022 C394.12989,173.048432 388.61159,199.028448 384.64465,227.000005 L400.322388,227.000005 C400.614505,224.87681 401.782632,218.569534 402.541983,214.830892 C403.359879,211.07661 405.492023,208.748474 409.727322,208.748474 L421.99489,208.748473 C425.275398,208.748474 428.274646,212.038511 429.326202,216.66248 C430.027182,219.745183 430.93607,224.090281 431.52022,227.000005 L452.342463,227.000005 C449.801348,205.996603 444.164028,180.306073 438.760452,161.358263 L438.760452,161.35826 Z" id="Shape" fill="#FAA619" fill-rule="nonzero" mask="url(#mask-2)"></path>
        <path d="M491.106472,183.42981 L491.106436,202.440102 C507.076292,203.783732 545.800327,207.111019 543.384773,185.151934 C542.528749,177.370065 538.396075,172.146261 530.042158,167.405143 C525.673318,164.931733 518.352606,160.928317 516.02059,159.451295 C510.618618,156.004032 510.14632,151.055064 514.042826,148.786152 C517.7032,146.640435 526.322759,145.715493 541.938366,147.36197 L541.938366,113.76925 C498.663387,111.121262 490.486613,120.501179 489.512469,136.425717 C488.597348,151.182984 497.512135,161.867402 512.006001,168.689294 C520.271346,172.583642 525.584782,174.505225 525.909485,177.649351 C526.647462,184.40061 510.234854,183.989063 491.106471,183.429806 L491.106472,183.42981 Z" id="Path" fill="#FAA619" fill-rule="nonzero" mask="url(#mask-2)"></path>
        <path d="M580.594193,172.350932 C565.368933,172.350932 562.488972,162.798443 562.488972,153.487416 C562.488972,151.637223 562.488972,136.664083 579.7419,136.664083 C598.699411,136.664083 598.699411,151.574551 598.699411,153.487416 C598.699411,162.593093 595.212858,172.350932 580.594193,172.350932 Z M580.594193,100.849622 C551.74751,100.849622 545.427353,126.605414 545.427353,146.277414 C545.427353,165.251735 548.941087,190.999997 580.594137,190.97464 C613.831076,190.947975 615.838934,167.733036 615.838934,148.758716 C615.838934,129.086715 612.599008,100.849622 580.594194,100.849622 L580.594193,100.849622 Z" id="Shape" fill="#FAA619" fill-rule="nonzero" mask="url(#mask-2)"></path>
        <polygon id="Path" fill="#FAA619" fill-rule="nonzero" mask="url(#mask-2)" points="461.2345 222 484.049107 222 484.049107 131.875 461.2345 131.875"></polygon>
        <polygon id="Path" fill="#FAA619" mask="url(#mask-2)" points="472.368652 113 458.94043 127.534668 452 127.534668 461.203613 113"></polygon>
        <path d="M175.729031,367.717296 C185.687611,367.204588 196.817787,375.104947 197.872217,386.185659 C199.10238,399.064338 192.072795,406.579877 179.536722,406.79046 C173.88375,406.891301 171.394105,404.324789 171.394105,397.675988 C171.394105,396.211491 171.394105,378.637528 171.394105,376.7044 C171.394105,371.871524 171.264922,368.104073 175.729031,367.717298 L175.729031,367.717296 Z M218.72664,378.991408 C218.316573,350.221878 189.846767,327.891121 157.3935,331.763186 L157.3935,420.833884 C200.449746,424.476864 219.195307,412.167954 218.72664,378.991405 L218.72664,378.991408 Z" id="Shape" fill="#F15A22" fill-rule="nonzero" mask="url(#mask-2)"></path>
        <path d="M262.025343,376.350932 C246.800083,376.350932 243.920122,366.798443 243.920122,357.487416 C243.920122,355.637223 243.920122,340.664083 261.17305,340.664083 C280.130562,340.664083 280.130562,355.574551 280.130562,357.487416 C280.130562,366.593093 276.644008,376.350932 262.025343,376.350932 Z M262.025343,304.849622 C233.17866,304.849622 226.858503,330.605414 226.858503,350.277414 C226.858503,369.251735 230.372237,394.999997 262.025288,394.97464 C295.262226,394.947975 297.270085,371.733036 297.270085,352.758716 C297.270085,333.086715 294.030158,304.849622 262.025344,304.849622 L262.025343,304.849622 Z" id="Shape" fill="#F15A22" fill-rule="nonzero" mask="url(#mask-2)"></path>
        <path d="M324.716572,320.589534 C336.026257,320.089936 343.822058,326.286886 343.822058,333.909883 C343.822058,341.033632 338.36883,344.651839 328.153644,344.693736 C322.911638,344.712352 319.993008,341.119903 319.993008,334.879418 C319.993008,332.133608 319.993008,331.922383 319.993008,328.850145 C319.973799,324.506165 320.837867,320.922954 324.716571,320.589535 L324.716572,320.589534 Z M343.706842,353.065568 C356.341423,351.258928 366.09578,341.202733 366.114989,327.4013 C366.114989,299.693546 339.002475,285.388698 305.841498,289.580208 L305.841498,378.985233 L319.990592,378.985233 L319.973798,356.630263 C319.973798,353.2124 322.489194,354.388366 324.812577,356.998519 C326.444703,358.834633 336.225926,370.5669 343.080863,378.985233 L364.655676,378.985233 C364.636467,378.999998 345.876616,355.46745 343.706837,353.065565 L343.706842,353.065568 Z" id="Shape" fill="#F15A22" fill-rule="nonzero" mask="url(#mask-2)"></path>
        <polygon id="Path" fill="#F15A22" fill-rule="nonzero" mask="url(#mask-2)" points="372.7615 359 395.576107 359 395.576107 268.875 372.7615 268.875"></polygon>
        <path d="M408.292498,261.875 L408.292498,295.659544 L418.084775,295.659511 C424.023935,295.607239 426.649949,297.072473 426.478137,307.512257 L426.694975,352 L442.553166,352 L442.553166,311.125281 C443.166716,293.400335 444.222036,289.300032 452.958992,289.378291 L460.959688,289.378293 L460.959688,261.875 L408.292498,261.875 L408.292498,261.875 Z" id="Path" fill="#F15A22" fill-rule="nonzero" mask="url(#mask-2)"></path>
        <path d="M543.656236,334 L543.656236,243.874998 L531.414569,243.874998 C524.889905,263.913616 521.13711,273.72984 517.920076,281.867904 C512.437566,295.713087 506.751127,288.464642 504.100497,283.638862 C501.019417,277.988741 495.219557,263.156903 487.947292,243.874998 L471.590502,243.874998 L471.590502,333.831548 L486.487595,333.831548 C486.374319,320.325642 486.610809,310.09474 487.335759,306.705277 C487.992761,303.662601 489.91844,303.654078 491.866769,307.275591 C493.475272,310.252273 496.012654,316.479187 501.064713,329.244921 L511.055584,329.240677 C516.560772,315.717905 519.528577,308.949559 521.635479,305.788519 C523.334606,303.212988 526.574291,301.876661 527.54844,307.584087 C528.296067,311.902561 528.2282,320.230958 528.205551,334 L543.656236,334 L543.656236,334 Z" id="Path" fill="#F15A22" fill-rule="nonzero" mask="url(#mask-2)"></path>
        <path d="M591.522343,287.350932 C576.297083,287.350932 573.417122,277.798443 573.417122,268.487416 C573.417122,266.637223 573.417122,251.664083 590.67005,251.664083 C609.627562,251.664083 609.627562,266.574551 609.627562,268.487416 C609.627562,277.593093 606.141008,287.350932 591.522343,287.350932 Z M591.522343,215.849622 C562.67566,215.849622 556.355503,241.605414 556.355503,261.277414 C556.355503,280.251735 559.869237,305.999997 591.522288,305.97464 C624.759226,305.947975 626.767085,282.733036 626.767085,263.758716 C626.767085,244.086715 623.527158,215.849622 591.522344,215.849622 L591.522343,215.849622 Z" id="Shape" fill="#F15A22" fill-rule="nonzero" mask="url(#mask-2)"></path>
    </g>
</svg>