<?xml version="1.0" encoding="UTF-8" standalone="no"?>
<!-- Created with Inkscape (http://www.inkscape.org/) -->

<svg
   version="1.1"
   id="svg2"
   width="666.66669"
   height="571.08398"
   viewBox="0 0 666.66669 571.08398"
   sodipodi:docname="Paradis du Rythme Mégamix Logo.ai"
   xmlns:inkscape="http://www.inkscape.org/namespaces/inkscape"
   xmlns:sodipodi="http://sodipodi.sourceforge.net/DTD/sodipodi-0.dtd"
   xmlns="http://www.w3.org/2000/svg"
   xmlns:svg="http://www.w3.org/2000/svg">
  <defs
     id="defs6">
    <clipPath
       clipPathUnits="userSpaceOnUse"
       id="clipPath16">
      <path
         d="M 0,428.313 H 500 V 0 H 0 Z"
         id="path14" />
    </clipPath>
    <linearGradient
       x1="0"
       y1="0"
       x2="1"
       y2="0"
       gradientUnits="userSpaceOnUse"
       gradientTransform="matrix(59.113621,-2e-7,-0.018473,-59.113563,434.3945,160.93443)"
       spreadMethod="pad"
       id="linearGradient52">
      <stop
         style="stop-opacity:1;stop-color:#ff8c3c"
         offset="0"
         id="stop46" />
      <stop
         style="stop-opacity:1;stop-color:#ff5a00"
         offset="0.75"
         id="stop48" />
      <stop
         style="stop-opacity:1;stop-color:#ff5a00"
         offset="1"
         id="stop50" />
    </linearGradient>
    <clipPath
       clipPathUnits="userSpaceOnUse"
       id="clipPath62">
      <path
         d="M 0,428.313 H 500 V 0 H 0 Z"
         id="path60" />
    </clipPath>
    <clipPath
       clipPathUnits="userSpaceOnUse"
       id="clipPath70">
      <path
         d="M 50.055,221.872 H 578.29 V -135.16 H 50.055 Z"
         id="path68" />
    </clipPath>
    <clipPath
       clipPathUnits="userSpaceOnUse"
       id="clipPath74">
      <path
         d="m 434.404,116.711 v 10.329 c -0.028,8.971 -0.015,17.765 10.461,30.659 -7.673,5.076 -10.461,12.263 -10.461,26.286 v 7.517 l 22.633,5.238 v -16.66 c 0,-3.874 2.411,-6.701 6.913,-5.661 4.503,1.039 6.913,4.98 6.913,8.854 l 0.003,16.659 22.632,5.226 v -7.531 c 0,-14.021 -2.787,-22.497 -10.461,-31.116 10.462,-8.046 10.461,-16.85 10.461,-25.827 v -10.33 l -22.632,-5.225 v 17.576 c 0,6.268 -2.413,9.036 -6.916,7.996 -4.502,-1.04 -6.913,-4.92 -6.913,-11.188 v -17.576 z"
         id="path72" />
    </clipPath>
    <linearGradient
       x1="0"
       y1="0"
       x2="1"
       y2="0"
       gradientUnits="userSpaceOnUse"
       gradientTransform="matrix(39.135792,9.0352097,0.0865576,-41.137714,392.22263,152.00374)"
       spreadMethod="pad"
       id="linearGradient108">
      <stop
         style="stop-opacity:1;stop-color:#aa37be"
         offset="0"
         id="stop104" />
      <stop
         style="stop-opacity:1;stop-color:#5f14a5"
         offset="1"
         id="stop106" />
    </linearGradient>
    <clipPath
       clipPathUnits="userSpaceOnUse"
       id="clipPath118">
      <path
         d="M 0,428.313 H 500 V 0 H 0 Z"
         id="path116" />
    </clipPath>
    <clipPath
       clipPathUnits="userSpaceOnUse"
       id="clipPath126">
      <path
         d="M 50.055,221.872 H 578.29 V -135.16 H 50.055 Z"
         id="path124" />
    </clipPath>
    <clipPath
       clipPathUnits="userSpaceOnUse"
       id="clipPath130">
      <path
         d="m 403.767,192.073 22.66,5.231 v -74.808 l -22.66,-5.231 z"
         id="path128" />
    </clipPath>
    <linearGradient
       x1="0"
       y1="0"
       x2="1"
       y2="0"
       gradientUnits="userSpaceOnUse"
       gradientTransform="matrix(91.19725,21.054598,5.45e-5,-91.197243,305.71747,125.66695)"
       spreadMethod="pad"
       id="linearGradient166">
      <stop
         style="stop-opacity:1;stop-color:#ffff00"
         offset="0"
         id="stop160" />
      <stop
         style="stop-opacity:1;stop-color:#ffbe00"
         offset="0.75"
         id="stop162" />
      <stop
         style="stop-opacity:1;stop-color:#ffbe00"
         offset="1"
         id="stop164" />
    </linearGradient>
    <clipPath
       clipPathUnits="userSpaceOnUse"
       id="clipPath176">
      <path
         d="M 0,428.313 H 500 V 0 H 0 Z"
         id="path174" />
    </clipPath>
    <clipPath
       clipPathUnits="userSpaceOnUse"
       id="clipPath184">
      <path
         d="M -34.8694,313.585 H 578.29 V -135.16 H -34.8694 Z"
         id="path182" />
    </clipPath>
    <clipPath
       clipPathUnits="userSpaceOnUse"
       id="clipPath188">
      <path
         d="m 388.958,173.471 c -5.555,5.105 -13.052,6.72 -21.833,4.692 -5.895,-1.361 -10.64,-3.825 -15.884,-8.381 -5.245,2.134 -9.96,2.415 -15.884,1.047 -8.754,-2.021 -16.278,-7.104 -21.833,-14.774 -5.844,-8.066 -7.812,-15.256 -7.812,-28.803 V 87.336 l 22.743,5.251 v 44.239 c 0,6.666 2.15,9.456 5.66,10.265 3.509,0.811 5.755,-0.964 5.755,-7.631 V 95.222 l 22.743,5.251 v 44.238 c 0,6.666 2.245,9.478 5.755,10.288 3.509,0.811 5.658,-0.986 5.658,-7.653 v -44.238 l 22.743,5.251 v 39.915 c 0,13.548 -1.968,19.828 -7.811,25.197"
         id="path186" />
    </clipPath>
    <linearGradient
       x1="0"
       y1="0"
       x2="1"
       y2="0"
       gradientUnits="userSpaceOnUse"
       gradientTransform="matrix(59.094528,13.643046,0,-59.094528,238.73795,117.95165)"
       spreadMethod="pad"
       id="linearGradient228">
      <stop
         style="stop-opacity:1;stop-color:#6ee6ff"
         offset="0"
         id="stop222" />
      <stop
         style="stop-opacity:1;stop-color:#00a0ff"
         offset="0.85"
         id="stop224" />
      <stop
         style="stop-opacity:1;stop-color:#00a0ff"
         offset="1"
         id="stop226" />
    </linearGradient>
    <clipPath
       clipPathUnits="userSpaceOnUse"
       id="clipPath238">
      <path
         d="M 0,428.313 H 500 V 0 H 0 Z"
         id="path236" />
    </clipPath>
    <clipPath
       clipPathUnits="userSpaceOnUse"
       id="clipPath246">
      <path
         d="M -34.8694,313.585 H 494.066 V -52.2432 H -34.8694 Z"
         id="path244" />
    </clipPath>
    <clipPath
       clipPathUnits="userSpaceOnUse"
       id="clipPath250">
      <path
         d="m 275.791,122.654 -7.505,2.4 -7.506,-5.865 1.407,9.131 -6.046,4.855 8.375,3.243 3.77,8.868 3.768,-7.127 8.376,0.624 -6.046,-7.648 z m 15.685,34.282 c -5.347,5.929 -14.221,8.221 -23.19,6.15 -8.971,-2.071 -17.832,-8.468 -23.172,-16.853 -4.681,-7.35 -6.376,-14.022 -6.376,-25.368 V 79.639 l 22.605,5.219 v 16.417 l 13.884,3.184 V 88.063 l 22.605,5.219 v 41.226 c 0,11.346 -1.683,17.246 -6.356,22.428"
         id="path248" />
    </clipPath>
    <linearGradient
       x1="0"
       y1="0"
       x2="1"
       y2="0"
       gradientUnits="userSpaceOnUse"
       gradientTransform="matrix(58.345142,13.470038,0.1290433,-61.329681,173.62611,94.672005)"
       spreadMethod="pad"
       id="linearGradient286">
      <stop
         style="stop-opacity:1;stop-color:#ff8232"
         offset="0"
         id="stop280" />
      <stop
         style="stop-opacity:1;stop-color:#c80000"
         offset="0.75"
         id="stop282" />
      <stop
         style="stop-opacity:1;stop-color:#c80000"
         offset="1"
         id="stop284" />
    </linearGradient>
    <clipPath
       clipPathUnits="userSpaceOnUse"
       id="clipPath296">
      <path
         d="M 0,428.313 H 500 V 0 H 0 Z"
         id="path294" />
    </clipPath>
    <clipPath
       clipPathUnits="userSpaceOnUse"
       id="clipPath304">
      <path
         d="M -34.8694,313.585 H 494.066 V -52.2432 H -34.8694 Z"
         id="path302" />
    </clipPath>
    <clipPath
       clipPathUnits="userSpaceOnUse"
       id="clipPath308">
      <path
         d="m 231.893,70.849 c -7.563,-3.177 -12.052,-4.757 -18.134,-6.161 -12.705,-2.933 -20.949,-1.73 -28.485,4.021 -7.507,5.728 -11.648,14.899 -11.648,25.914 0,10.543 3.815,21.498 10.655,30.254 7.458,9.548 16.943,15.415 29.837,18.392 5.657,1.307 10.405,1.955 17.775,2.178 v -23.44 c -6.928,-0.14 -11.251,-0.669 -16.561,-1.895 -12.365,-2.855 -19.376,-10.221 -19.376,-20.375 0,-8.535 5.244,-13.496 13.331,-12.748 v 22.308 l 22.606,5.219 z"
         id="path306" />
    </clipPath>
    <linearGradient
       x1="0"
       y1="0"
       x2="1"
       y2="0"
       gradientUnits="userSpaceOnUse"
       gradientTransform="matrix(47.860756,11.049526,0,-47.860756,118.56161,90.783348)"
       spreadMethod="pad"
       id="linearGradient344">
      <stop
         style="stop-opacity:1;stop-color:#c8f000"
         offset="0"
         id="stop338" />
      <stop
         style="stop-opacity:1;stop-color:#14b400"
         offset="0.8"
         id="stop340" />
      <stop
         style="stop-opacity:1;stop-color:#14b400"
         offset="1"
         id="stop342" />
    </linearGradient>
    <clipPath
       clipPathUnits="userSpaceOnUse"
       id="clipPath354">
      <path
         d="M 0,428.313 H 500 V 0 H 0 Z"
         id="path352" />
    </clipPath>
    <clipPath
       clipPathUnits="userSpaceOnUse"
       id="clipPath362">
      <path
         d="M -34.8694,313.585 H 494.066 V -52.2432 H -34.8694 Z"
         id="path360" />
    </clipPath>
    <clipPath
       clipPathUnits="userSpaceOnUse"
       id="clipPath366">
      <path
         d="m 142.658,57.78 c -8.86,-2.046 -14.084,-3.319 -18.299,-0.674 -4.399,2.761 -5.798,5.347 -5.798,12.191 0,5.717 3.216,11.985 10.434,14.436 -7.275,-0.992 -9.716,3.406 -9.716,10.665 0,7.066 0.706,10.558 5.688,15.653 3.93,4.02 11.977,6.271 19.982,8.095 l 21.473,4.957 v -15.087 l -15.07,-3.479 c -7.309,-1.687 -7.784,-4.957 -7.784,-6.585 0,-1.628 0.475,-4.566 7.784,-2.878 l 15.07,3.478 V 86.847 l -15.07,-3.478 c -5.962,-1.377 -6.569,-4.174 -6.569,-5.748 0,-1.683 0.607,-4.125 6.569,-2.748 l 15.07,3.48 V 63.266 Z"
         id="path364" />
    </clipPath>
    <linearGradient
       x1="0"
       y1="0"
       x2="1"
       y2="0"
       gradientUnits="userSpaceOnUse"
       gradientTransform="matrix(101.58785,23.453464,6.07e-5,-101.58784,12.604266,59.069161)"
       spreadMethod="pad"
       id="linearGradient402">
      <stop
         style="stop-opacity:1;stop-color:#ffff00"
         offset="0"
         id="stop396" />
      <stop
         style="stop-opacity:1;stop-color:#ffbe00"
         offset="0.75"
         id="stop398" />
      <stop
         style="stop-opacity:1;stop-color:#ffbe00"
         offset="1"
         id="stop400" />
    </linearGradient>
    <clipPath
       clipPathUnits="userSpaceOnUse"
       id="clipPath412">
      <path
         d="M 0,428.313 H 500 V 0 H 0 Z"
         id="path410" />
    </clipPath>
    <clipPath
       clipPathUnits="userSpaceOnUse"
       id="clipPath420">
      <path
         d="M -34.8694,313.585 H 494.066 V -52.2432 H -34.8694 Z"
         id="path418" />
    </clipPath>
    <clipPath
       clipPathUnits="userSpaceOnUse"
       id="clipPath424">
      <path
         d="m 104.154,108.791 c -5.556,5.105 -13.054,6.72 -21.833,4.693 -5.895,-1.361 -10.64,-3.825 -15.885,-8.381 -5.244,2.134 -9.961,2.414 -15.884,1.047 C 41.798,104.128 34.275,99.046 28.719,91.376 22.876,83.309 20.908,76.12 20.908,62.573 V 22.658 l 22.743,5.25 v 44.238 c 0,6.667 2.149,9.456 5.659,10.266 3.509,0.81 5.755,-0.964 5.755,-7.631 V 30.543 l 22.743,5.25 v 44.239 c 0,6.667 2.246,9.478 5.755,10.288 3.51,0.81 5.659,-0.987 5.659,-7.654 V 38.428 l 22.743,5.251 v 39.916 c 0,13.547 -1.968,19.828 -7.811,25.196"
         id="path422" />
    </clipPath>
    <radialGradient
       fx="0"
       fy="0"
       cx="0"
       cy="0"
       r="1"
       gradientUnits="userSpaceOnUse"
       gradientTransform="matrix(11.215127,0,0,-11.215127,430.89865,119.57646)"
       spreadMethod="pad"
       id="radialGradient460">
      <stop
         style="stop-opacity:1;stop-color:#faffc8"
         offset="0"
         id="stop454" />
      <stop
         style="stop-opacity:1;stop-color:#c8ff00"
         offset="0.45"
         id="stop456" />
      <stop
         style="stop-opacity:1;stop-color:#00a000"
         offset="1"
         id="stop458" />
    </radialGradient>
    <clipPath
       clipPathUnits="userSpaceOnUse"
       id="clipPath470">
      <path
         d="M 0,428.313 H 500 V 0 H 0 Z"
         id="path468" />
    </clipPath>
    <radialGradient
       fx="0"
       fy="0"
       cx="0"
       cy="0"
       r="1"
       gradientUnits="userSpaceOnUse"
       gradientTransform="matrix(9.7658634,0,0,-9.7658634,201.11731,145.63638)"
       spreadMethod="pad"
       id="radialGradient494">
      <stop
         style="stop-opacity:1;stop-color:#ffffa0"
         offset="0"
         id="stop488" />
      <stop
         style="stop-opacity:1;stop-color:#ffff00"
         offset="0.55"
         id="stop490" />
      <stop
         style="stop-opacity:1;stop-color:#ffc800"
         offset="1"
         id="stop492" />
    </radialGradient>
    <clipPath
       clipPathUnits="userSpaceOnUse"
       id="clipPath504">
      <path
         d="M 0,428.313 H 500 V 0 H 0 Z"
         id="path502" />
    </clipPath>
    <radialGradient
       fx="0"
       fy="0"
       cx="0"
       cy="0"
       r="1"
       gradientUnits="userSpaceOnUse"
       gradientTransform="matrix(11.332798,0,0,-11.332798,20.494005,20.418552)"
       spreadMethod="pad"
       id="radialGradient528">
      <stop
         style="stop-opacity:1;stop-color:#d9ffff"
         offset="0"
         id="stop522" />
      <stop
         style="stop-opacity:1;stop-color:#96d2ff"
         offset="0.42"
         id="stop524" />
      <stop
         style="stop-opacity:1;stop-color:#00aaff"
         offset="1"
         id="stop526" />
    </radialGradient>
    <clipPath
       clipPathUnits="userSpaceOnUse"
       id="clipPath538">
      <path
         d="M 0,428.313 H 500 V 0 H 0 Z"
         id="path536" />
    </clipPath>
  </defs>
  <sodipodi:namedview
     id="namedview4"
     pagecolor="#ffffff"
     bordercolor="#000000"
     borderopacity="0.25"
     inkscape:showpageshadow="2"
     inkscape:pageopacity="0.0"
     inkscape:pagecheckerboard="0"
     inkscape:deskcolor="#d1d1d1" />
  <g
     id="g8"
     inkscape:groupmode="layer"
     inkscape:label="Paradis du Rythme Mégamix Logo"
     transform="matrix(1.3333333,0,0,-1.3333333,0,571.084)">
    <g
       id="g10">
      <g
         id="g12"
         clip-path="url(#clipPath16)">
        <g
           id="g18"
           transform="translate(489.222,264.4647)">
          <path
             d="m 0,0 c 0,40.208 -24.848,74.696 -59.934,88.802 -11.846,43.229 -50.983,75.047 -97.31,75.047 -37.68,0 -70.601,-21.05 -87.954,-52.164 -10.732,3.711 -22.245,5.732 -34.223,5.732 -18.96,0 -36.762,-5.053 -52.132,-13.883 -13.785,7.254 -29.468,11.368 -46.097,11.368 -54.765,0 -99.319,-44.554 -99.319,-99.319 0,-11.561 1.992,-22.663 5.64,-32.991 -11.203,-15.093 -17.855,-33.858 -17.855,-54.173 0,-43.041 29.849,-79.129 69.628,-88.056 18.044,-21.137 46.142,-34.75 77.649,-34.75 21.313,0 41.066,6.23 57.203,16.804 12.124,-5.122 25.571,-7.974 39.718,-7.974 23.757,0 45.537,8.048 62.396,21.373 7.134,-1.508 14.528,-2.308 22.105,-2.308 49.155,0 90.646,33.408 102.982,78.708 C -23.707,-73.086 0,-39.273 0,0"
             style="fill:#0096e6;fill-opacity:1;fill-rule:nonzero;stroke:none"
             id="path20" />
        </g>
        <g
           id="g22"
           transform="translate(477.7582,264.4647)">
          <path
             d="m 0,0 c 0,37.436 -24.464,69.226 -58.168,80.117 -8.52,41.221 -44.564,72.268 -87.612,72.268 -36.921,0 -68.69,-22.838 -82.362,-55.344 -12.087,5.711 -25.584,8.913 -39.815,8.913 -19.185,0 -37.036,-5.811 -51.897,-15.76 -13.459,8.389 -29.338,13.244 -46.333,13.244 -48.443,0 -87.854,-39.411 -87.854,-87.855 0,-12.432 2.601,-24.266 7.279,-34.995 -12.116,-13.9 -19.494,-32.17 -19.494,-52.169 0,-38.919 27.902,-71.313 64.413,-77.595 15.747,-20.385 41.878,-33.747 71.4,-33.747 21.32,0 40.871,6.971 56.022,18.521 12.15,-6.173 26.088,-9.691 40.899,-9.691 23.1,0 44.071,8.558 59.448,22.415 7.986,-2.18 16.385,-3.35 25.053,-3.35 45.831,0 84.203,32.536 93.238,75.724 C -23.316,-67.71 0,-36.546 0,0"
             style="fill:#ffffff;fill-opacity:1;fill-rule:nonzero;stroke:none"
             id="path24" />
        </g>
        <g
           id="g26"
           transform="translate(471.0023,264.4647)">
          <path
             d="m 0,0 c 0,35.904 -24.329,66.088 -57.318,74.831 -6.328,40.133 -40.494,70.798 -81.706,70.798 -36.745,0 -67.878,-24.379 -78.686,-58.107 -12.788,7.423 -27.643,11.676 -43.491,11.676 -19.411,0 -37.332,-6.377 -51.789,-17.147 -13.156,9.21 -29.161,14.631 -46.441,14.631 -44.789,0 -81.098,-36.309 -81.098,-81.099 0,-13.016 3.084,-25.306 8.534,-36.208 -12.817,-13.027 -20.749,-31.046 -20.749,-50.956 0,-36.563 26.754,-66.735 61.388,-71.333 14.264,-19.99 39.23,-33.253 67.669,-33.253 21.437,0 40.895,7.543 55.295,19.814 12.071,-6.952 26.332,-10.984 41.625,-10.984 22.801,0 43.324,8.941 57.674,23.21 8.462,-2.689 17.475,-4.145 26.827,-4.145 43.981,0 80.462,32.084 87.331,74.121 C -23.165,-64.613 0,-35.033 0,0"
             style="fill:#000000;fill-opacity:1;fill-rule:nonzero;stroke:none"
             id="path28" />
        </g>
        <g
           id="g30"
           transform="translate(500.0004,213.1605)">
          <path
             d="m 0,0 -72.099,-16.66 v -87.792 L 0,-87.808 v 16.835 c 0,8.344 -0.001,17.658 -8.132,26.199 C -2.35,-36.292 0,-27.088 0,-14.032 Z"
             style="fill:#000000;fill-opacity:1;fill-rule:nonzero;stroke:none"
             id="path32" />
        </g>
      </g>
    </g>
    <g
       id="g34">
      <g
         id="g36">
        <g
           id="g42">
          <g
             id="g44">
            <path
               d="m 470.866,199.932 -0.003,-16.66 c 0,-3.873 -2.41,-7.813 -6.913,-8.853 v 0 c -4.503,-1.039 -6.913,1.787 -6.913,5.661 v 0 16.66 l -22.633,-5.238 v -7.518 c 0,-14.022 2.788,-21.209 10.461,-26.285 v 0 C 434.389,144.805 434.376,136.011 434.404,127.04 v 0 -10.329 l 22.633,5.226 v 17.576 c 0,6.267 2.41,10.149 6.913,11.188 v 0 c 4.503,1.04 6.916,-1.728 6.916,-7.995 v 0 -17.576 l 22.633,5.224 v 10.33 c 0,8.976 10e-4,17.781 -10.462,25.827 v 0 c 7.674,8.619 10.462,17.094 10.462,31.116 v 0 7.531 z"
               style="fill:url(#linearGradient52);stroke:none"
               id="path54" />
          </g>
        </g>
      </g>
    </g>
    <g
       id="g56">
      <g
         id="g58"
         clip-path="url(#clipPath62)">
        <g
           id="g64">
          <g
             id="g66" />
          <g
             id="g86">
            <g
               clip-path="url(#clipPath70)"
               opacity="0.199997"
               id="g84">
              <g
                 id="g82">
                <g
                   clip-path="url(#clipPath74)"
                   id="g80">
                  <g
                     transform="translate(78.8983,-135.1598)"
                     id="g78">
                    <path
                       d="m 0,0 -28.843,54.89 499.419,302.142 28.816,-54.918 z"
                       style="fill:#ffffff;fill-opacity:1;fill-rule:nonzero;stroke:none"
                       id="path76" />
                  </g>
                </g>
              </g>
            </g>
          </g>
        </g>
        <g
           id="g88"
           transform="translate(397.265,197.0736)">
          <path
             d="m 0,0 v -87.812 l 35.664,8.234 V 8.233 Z"
             style="fill:#000000;fill-opacity:1;fill-rule:nonzero;stroke:none"
             id="path90" />
        </g>
      </g>
    </g>
    <g
       id="g92">
      <g
         id="g94">
        <g
           id="g100">
          <g
             id="g102">
            <path
               d="m 403.767,192.073 v -74.808 l 22.66,5.231 v 74.808 z"
               style="fill:url(#linearGradient108);stroke:none"
               id="path110" />
          </g>
        </g>
      </g>
    </g>
    <g
       id="g112">
      <g
         id="g114"
         clip-path="url(#clipPath118)">
        <g
           id="g120">
          <g
             id="g122" />
          <g
             id="g142">
            <g
               clip-path="url(#clipPath126)"
               opacity="0.199997"
               id="g140">
              <g
                 id="g138">
                <g
                   clip-path="url(#clipPath130)"
                   id="g136">
                  <g
                     transform="translate(78.8983,-135.1598)"
                     id="g134">
                    <path
                       d="m 0,0 -28.843,54.89 499.419,302.142 28.816,-54.918 z"
                       style="fill:#ffffff;fill-opacity:1;fill-rule:nonzero;stroke:none"
                       id="path132" />
                  </g>
                </g>
              </g>
            </g>
          </g>
        </g>
        <g
           id="g144"
           transform="translate(393.8636,178.8705)">
          <path
             d="M 0,0 C -6.81,6.257 -16.057,8.261 -26.738,5.795 -32.57,4.448 -37.607,2.12 -42.623,-1.597 c -5.015,1.402 -10.052,1.404 -15.884,0.057 -10.682,-2.466 -19.929,-8.739 -26.739,-18.141 -6.945,-9.589 -9.407,-18.34 -9.407,-33.438 V -99.537 L 9.408,-75.513 v 46.418 C 9.408,-13.995 6.946,-6.381 0,0"
             style="fill:#000000;fill-opacity:1;fill-rule:nonzero;stroke:none"
             id="path146" />
        </g>
      </g>
    </g>
    <g
       id="g148">
      <g
         id="g150">
        <g
           id="g156">
          <g
             id="g158">
            <path
               d="m 367.125,178.163 c -5.896,-1.361 -10.64,-3.825 -15.885,-8.382 v 0 c -5.243,2.135 -9.959,2.416 -15.883,1.049 v 0 c -8.754,-2.022 -16.277,-7.105 -21.833,-14.775 v 0 c -5.844,-8.066 -7.812,-15.255 -7.812,-28.803 v 0 -39.916 l 22.743,5.252 v 44.237 c 0,6.667 2.15,9.456 5.659,10.266 v 0 c 3.51,0.81 5.756,-0.963 5.756,-7.631 v 0 -44.238 l 22.743,5.251 v 44.238 c 0,6.666 2.245,9.478 5.754,10.289 v 0 c 3.51,0.81 5.659,-0.987 5.659,-7.654 v 0 -44.238 l 22.743,5.251 v 39.915 c 0,13.548 -1.968,19.828 -7.811,25.197 v 0 c -4,3.675 -9.007,5.542 -14.775,5.542 v 0 c -2.242,0 -4.599,-0.282 -7.058,-0.85"
               style="fill:url(#linearGradient166);stroke:none"
               id="path168" />
          </g>
        </g>
      </g>
    </g>
    <g
       id="g170">
      <g
         id="g172"
         clip-path="url(#clipPath176)">
        <g
           id="g178">
          <g
             id="g180" />
          <g
             id="g204">
            <g
               clip-path="url(#clipPath184)"
               opacity="0.199997"
               id="g202">
              <g
                 id="g200">
                <g
                   clip-path="url(#clipPath188)"
                   id="g198">
                  <g
                     transform="translate(-4.7843,-52.2428)"
                     id="g192">
                    <path
                       d="m 0,0 -30.085,61.978 498.85,303.85 30.085,-61.978 z"
                       style="fill:#ffffff;fill-opacity:1;fill-rule:nonzero;stroke:none"
                       id="path190" />
                  </g>
                  <g
                     transform="translate(78.8983,-135.1598)"
                     id="g196">
                    <path
                       d="m 0,0 -28.843,54.89 499.419,302.142 28.816,-54.918 z"
                       style="fill:#ffffff;fill-opacity:1;fill-rule:nonzero;stroke:none"
                       id="path194" />
                  </g>
                </g>
              </g>
            </g>
          </g>
        </g>
        <g
           id="g206"
           transform="translate(296.6869,162.0277)">
          <path
             d="M 0,0 C -6.499,7.207 -17.382,10.104 -28.401,7.56 -39.407,5.019 -50.283,-2.9 -56.783,-13.108 c -5.59,-8.777 -7.668,-16.787 -7.668,-29.556 v -47.728 l 72.098,16.646 v 47.727 C 7.647,-13.234 5.574,-6.182 0,0"
             style="fill:#000000;fill-opacity:1;fill-rule:nonzero;stroke:none"
             id="path208" />
        </g>
      </g>
    </g>
    <g
       id="g210">
      <g
         id="g212">
        <g
           id="g218">
          <g
             id="g220">
            <path
               d="m 268.285,163.086 c -8.97,-2.071 -17.83,-8.469 -23.172,-16.853 v 0 c -4.68,-7.35 -6.375,-14.022 -6.375,-25.368 v 0 -41.226 l 22.605,5.218 v 16.418 l 13.884,3.184 V 88.063 l 22.605,5.218 v 41.228 c 0,11.345 -1.683,17.245 -6.356,22.427 v 0 c -4.052,4.493 -10.13,6.897 -16.74,6.897 v 0 c -2.112,0 -4.278,-0.245 -6.451,-0.747 m -6.098,-34.767 -6.046,4.856 8.375,3.243 3.769,8.867 3.769,-7.126 8.376,0.624 -6.046,-7.648 1.408,-8.481 -7.507,2.4 -7.506,-5.865 z"
               style="fill:url(#linearGradient228);stroke:none"
               id="path230" />
          </g>
        </g>
      </g>
    </g>
    <g
       id="g232">
      <g
         id="g234"
         clip-path="url(#clipPath238)">
        <g
           id="g240">
          <g
             id="g242" />
          <g
             id="g262">
            <g
               clip-path="url(#clipPath246)"
               opacity="0.199997"
               id="g260">
              <g
                 id="g258">
                <g
                   clip-path="url(#clipPath250)"
                   id="g256">
                  <g
                     transform="translate(-4.7843,-52.2428)"
                     id="g254">
                    <path
                       d="m 0,0 -30.085,61.978 498.85,303.85 30.085,-61.978 z"
                       style="fill:#ffffff;fill-opacity:1;fill-rule:nonzero;stroke:none"
                       id="path252" />
                  </g>
                </g>
              </g>
            </g>
          </g>
        </g>
        <g
           id="g264"
           transform="translate(233.1718,152.1176)">
          <path
             d="m 0,0 c -7.464,-0.228 -12.628,-0.862 -19.054,-2.346 -14.574,-3.365 -25.874,-10.395 -34.544,-21.496 -7.912,-10.128 -12.449,-22.941 -12.449,-35.154 0,-12.724 4.818,-23.407 13.566,-30.082 8.807,-6.72 18.696,-8.171 33.068,-4.854 6.285,1.452 10.985,3.043 19.342,6.553 l 5.294,2.224 V 0.158 Z"
             style="fill:#000000;fill-opacity:1;fill-rule:nonzero;stroke:none"
             id="path266" />
        </g>
      </g>
    </g>
    <g
       id="g268">
      <g
         id="g270">
        <g
           id="g276">
          <g
             id="g278">
            <path
               d="m 214.117,143.269 c -12.893,-2.977 -22.378,-8.844 -29.837,-18.391 v 0 c -6.84,-8.756 -10.654,-19.711 -10.654,-30.255 v 0 c 0,-11.015 4.141,-20.186 11.648,-25.913 v 0 c 7.537,-5.751 15.78,-6.955 28.485,-4.022 v 0 c 6.082,1.404 10.571,2.984 18.134,6.161 v 0 43.667 l -22.605,-5.219 V 86.989 c -8.088,-0.748 -13.332,4.213 -13.332,12.748 v 0 c 0,10.154 7.011,17.52 19.376,20.374 v 0 c 5.31,1.227 9.633,1.755 16.561,1.897 v 0 23.438 c -7.37,-0.222 -12.118,-0.87 -17.776,-2.177"
               style="fill:url(#linearGradient286);stroke:none"
               id="path288" />
          </g>
        </g>
      </g>
    </g>
    <g
       id="g290">
      <g
         id="g292"
         clip-path="url(#clipPath296)">
        <g
           id="g298">
          <g
             id="g300" />
          <g
             id="g320">
            <g
               clip-path="url(#clipPath304)"
               opacity="0.199997"
               id="g318">
              <g
                 id="g316">
                <g
                   clip-path="url(#clipPath308)"
                   id="g314">
                  <g
                     transform="translate(-4.7843,-52.2428)"
                     id="g312">
                    <path
                       d="m 0,0 -30.085,61.978 498.85,303.85 30.085,-61.978 z"
                       style="fill:#ffffff;fill-opacity:1;fill-rule:nonzero;stroke:none"
                       id="path310" />
                  </g>
                </g>
              </g>
            </g>
          </g>
        </g>
        <g
           id="g322"
           transform="translate(172.9222,131.1049)">
          <path
             d="M 0,0 -16.555,-3.822 -9.554,12.796 -40.013,5.764 V -9.824 c -4.942,-1.783 -8.966,-3.988 -11.977,-7.066 -7.552,-7.723 -8.153,-13.963 -8.153,-21.317 0,-4.742 1.002,-8.269 3.033,-10.601 -2.201,-3.543 -3.75,-8.255 -3.75,-14.5 0,-8.52 2.11,-12.865 8.064,-16.6 5.872,-3.686 12.505,-2.233 21.623,-0.127 L 0,-72.838 Z"
             style="fill:#000000;fill-opacity:1;fill-rule:nonzero;stroke:none"
             id="path324" />
        </g>
      </g>
    </g>
    <g
       id="g326">
      <g
         id="g328">
        <g
           id="g334">
          <g
             id="g336">
            <path
               d="m 139.409,134.163 v -12.999 l 8.757,2.022 6.066,14.401 z m 5.54,-16.017 c -8.005,-1.825 -16.052,-4.076 -19.982,-8.095 v 0 c -4.982,-5.095 -5.688,-8.587 -5.688,-15.654 v 0 c 0,-7.258 2.442,-11.656 9.716,-10.665 v 0 c -7.218,-2.45 -10.433,-8.718 -10.433,-14.435 v 0 c 0,-6.844 1.398,-9.431 5.797,-12.191 v 0 c 4.215,-2.644 9.439,-1.373 18.298,0.674 v 0 l 23.766,5.486 v 15.087 l -15.071,-3.479 c -5.962,-1.377 -6.569,1.064 -6.569,2.747 v 0 c 0,1.574 0.607,4.371 6.569,5.748 v 0 l 15.071,3.478 v 11.705 l -15.071,-3.479 c -7.309,-1.687 -7.784,1.25 -7.784,2.879 v 0 c 0,1.629 0.475,4.898 7.784,6.586 v 0 l 15.071,3.478 v 15.087 z"
               style="fill:url(#linearGradient344);stroke:none"
               id="path346" />
          </g>
        </g>
      </g>
    </g>
    <g
       id="g348">
      <g
         id="g350"
         clip-path="url(#clipPath354)">
        <g
           id="g356">
          <g
             id="g358" />
          <g
             id="g378">
            <g
               clip-path="url(#clipPath362)"
               opacity="0.199997"
               id="g376">
              <g
                 id="g374">
                <g
                   clip-path="url(#clipPath366)"
                   id="g372">
                  <g
                     transform="translate(-4.7843,-52.2428)"
                     id="g370">
                    <path
                       d="m 0,0 -30.085,61.978 498.85,303.85 30.085,-61.978 z"
                       style="fill:#ffffff;fill-opacity:1;fill-rule:nonzero;stroke:none"
                       id="path368" />
                  </g>
                </g>
              </g>
            </g>
          </g>
        </g>
        <g
           id="g380"
           transform="translate(109.059,114.1908)">
          <path
             d="m 0,0 c -6.81,6.257 -16.056,8.261 -26.738,5.795 -5.834,-1.347 -10.87,-3.675 -15.885,-7.392 -5.014,1.402 -10.051,1.404 -15.884,0.057 -10.682,-2.466 -19.929,-8.739 -26.738,-18.141 -6.946,-9.588 -9.408,-18.339 -9.408,-33.438 V -99.536 L 9.408,-75.512 v 46.417 C 9.408,-13.995 6.946,-6.382 0,0"
             style="fill:#000000;fill-opacity:1;fill-rule:nonzero;stroke:none"
             id="path382" />
        </g>
      </g>
    </g>
    <g
       id="g384">
      <g
         id="g386">
        <g
           id="g392">
          <g
             id="g394">
            <path
               d="m 82.321,113.484 c -5.896,-1.36 -10.641,-3.825 -15.885,-8.381 v 0 c -5.244,2.134 -9.96,2.414 -15.885,1.047 v 0 C 41.798,104.128 34.275,99.046 28.719,91.376 v 0 C 22.876,83.309 20.908,76.119 20.908,62.572 v 0 -39.914 l 22.743,5.249 v 44.239 c 0,6.667 2.149,9.456 5.659,10.266 v 0 c 3.509,0.81 5.755,-0.965 5.755,-7.631 v 0 -44.238 l 22.743,5.25 v 44.239 c 0,6.667 2.245,9.478 5.755,10.288 v 0 c 3.509,0.81 5.658,-0.987 5.658,-7.653 v 0 -44.239 l 22.744,5.251 v 39.916 c 0,13.547 -1.968,19.829 -7.812,25.196 v 0 c -4,3.676 -9.007,5.542 -14.775,5.542 v 0 c -2.242,0.001 -4.599,-0.282 -7.057,-0.849"
               style="fill:url(#linearGradient402);stroke:none"
               id="path404" />
          </g>
        </g>
      </g>
    </g>
    <g
       id="g406">
      <g
         id="g408"
         clip-path="url(#clipPath412)">
        <g
           id="g414">
          <g
             id="g416" />
          <g
             id="g436">
            <g
               clip-path="url(#clipPath420)"
               opacity="0.199997"
               id="g434">
              <g
                 id="g432">
                <g
                   clip-path="url(#clipPath424)"
                   id="g430">
                  <g
                     transform="translate(-4.7843,-52.2428)"
                     id="g428">
                    <path
                       d="m 0,0 -30.085,61.978 498.85,303.85 30.085,-61.978 z"
                       style="fill:#ffffff;fill-opacity:1;fill-rule:nonzero;stroke:none"
                       id="path426" />
                  </g>
                </g>
              </g>
            </g>
          </g>
        </g>
        <g
           id="g438"
           transform="translate(452.1107,126.3685)">
          <path
             d="m 0,0 -14.832,1.545 -7.143,13.143 -6.044,-13.694 -14.699,-2.733 11.114,-9.976 -1.91,-14.748 12.886,7.423 13.48,-6.456 -3.101,14.629 z"
             style="fill:#000000;fill-opacity:1;fill-rule:nonzero;stroke:none"
             id="path440" />
        </g>
      </g>
    </g>
    <g
       id="g442">
      <g
         id="g444">
        <g
           id="g450">
          <g
             id="g452">
            <path
               d="m 427.338,123.261 -7.866,-1.463 5.934,-5.327 -1.021,-7.893 6.9,3.974 7.204,-3.45 -1.656,7.812 5.493,5.823 -7.95,0.828 -3.808,7.011 z"
               style="fill:url(#radialGradient460);stroke:none"
               id="path462" />
          </g>
        </g>
      </g>
    </g>
    <g
       id="g464">
      <g
         id="g466"
         clip-path="url(#clipPath470)">
        <g
           id="g472"
           transform="translate(211.7284,146.6263)">
          <path
             d="M 0,0 5.222,12.008 -7.486,8.87 l -9.816,8.669 -0.941,-13.061 -11.283,-6.687 12.152,-4.902 2.82,-12.794 8.461,10.028 13.044,-1.257 z"
             style="fill:#000000;fill-opacity:1;fill-rule:nonzero;stroke:none"
             id="path474" />
        </g>
      </g>
    </g>
    <g
       id="g476">
      <g
         id="g478">
        <g
           id="g484">
          <g
             id="g486">
            <path
               d="m 197.447,148.655 -5.963,-3.534 6.431,-2.594 1.491,-6.762 4.471,5.299 6.873,-0.662 -3.671,5.879 2.76,6.348 -6.707,-1.656 -5.189,4.582 z"
               style="fill:url(#radialGradient494);stroke:none"
               id="path496" />
          </g>
        </g>
      </g>
    </g>
    <g
       id="g498">
      <g
         id="g500"
         clip-path="url(#clipPath504)">
        <g
           id="g506"
           transform="translate(30.8973,24.5277)">
          <path
             d="M 0,0 2.779,13.993 -10.002,7.7 l -12.42,6.966 1.999,-14.096 -10.474,-9.695 14.053,-2.432 5.899,-12.97 6.728,12.624 14.166,1.662 z"
             style="fill:#000000;fill-opacity:1;fill-rule:nonzero;stroke:none"
             id="path508" />
        </g>
      </g>
    </g>
    <g
       id="g510">
      <g
         id="g512">
        <g
           id="g518">
          <g
             id="g520">
            <path
               d="m 14.863,23.538 -5.934,-5.493 7.977,-1.381 3.339,-7.342 3.809,7.15 8.005,0.939 -5.631,5.795 1.574,7.922 -7.232,-3.56 -7.038,3.946 z"
               style="fill:url(#radialGradient528);stroke:none"
               id="path530" />
          </g>
        </g>
      </g>
    </g>
    <g
       id="g532">
      <g
         id="g534"
         clip-path="url(#clipPath538)">
        <g
           id="g540"
           transform="translate(387.7445,258.7533)">
          <path
             d="M 0,0 C 5.222,1.967 16.15,4.906 25.331,6.898 V 35.316 L -20.547,24.725 v -79.158 l 45.806,10.576 v 14.787 c -6.024,-1.578 -18.435,-3.91 -23.899,-4.833 -6.655,-1.117 -7.602,7.359 -0.243,9.788 4.226,1.384 11.949,3.223 17.997,4.923 V -8.379 C 13.601,-9.496 6.169,-10.783 0.291,-11.609 -6.995,-12.653 -8.258,-3.109 0,0"
             style="fill:#ff5500;fill-opacity:1;fill-rule:nonzero;stroke:none"
             id="path542" />
        </g>
        <g
           id="g544"
           transform="translate(350.9799,270.58)">
          <path
             d="m 0,0 c -5.118,-16.9 -8.015,-25.163 -10.538,-32.129 -4.301,-11.853 -8.761,-8.463 -10.84,-5.158 -2.417,3.874 -5.705,11.409 -11.409,25.217 l -14.092,-3.252 v -71.802 l 11.693,2.7 c -0.089,10.573 0.088,24.447 0.658,27.237 0.515,2.505 2.025,2.861 3.553,0.373 1.262,-2.044 3.252,-6.469 7.215,-15.567 l 7.835,1.809 c 4.319,11.604 6.649,17.454 8.301,20.315 1.333,2.328 3.874,3.963 4.639,-0.337 0.586,-3.252 0.532,-15.069 0.514,-25.873 l 12.12,2.799 V 2.228 Z"
             style="fill:#ff5500;fill-opacity:1;fill-rule:nonzero;stroke:none"
             id="path546" />
        </g>
        <g
           id="g548"
           transform="translate(281.8871,244.9159)">
          <path
             d="m 0,0 c -0.06,-10.219 -0.04,-17.537 -0.48,-20.943 -1.023,-8.136 -14.929,-11.803 -15.61,-4.308 -0.32,3.526 -0.601,8.606 -0.601,15.585 l -11.242,-2.595 v -60.53 l 14.328,3.308 c 0,10.881 0,13.608 0.18,17.335 0.501,9.818 15.249,12.043 16.531,3.507 0.582,-3.888 0.681,-7.62 0.681,-11.527 l 11.422,2.636 V 3.511 Z"
             style="fill:#ff5500;fill-opacity:1;fill-rule:nonzero;stroke:none"
             id="path550" />
        </g>
        <g
           id="g552"
           transform="translate(201.1171,220.8597)">
          <path
             d="m 0,0 v -24.965 l 8.683,2.005 c 5.265,1.216 7.442,0.53 7.442,-8.791 v -34.007 l 14.252,3.266 v 30.828 c 0,15.668 1.471,19.622 9.227,21.412 l 7.093,1.638 v 19.395 z"
             style="fill:#ff5500;fill-opacity:1;fill-rule:nonzero;stroke:none"
             id="path554" />
        </g>
        <g
           id="g556"
           transform="translate(193.9769,228.2841)">
          <path
             d="m 0,0 -12.921,-2.983 c 0,0 0.19,-13.302 -0.317,-23.099 -0.739,-14.335 -15.18,-17.418 -16.342,-3.779 -0.591,7.158 -0.865,21.424 -0.865,21.424 l -16.068,-3.709 V -23.78 c 0,-27.763 18.052,-31.184 27.49,-23.266 0.57,0.485 1.14,0.781 1.605,0.569 0.527,-0.231 0.506,-0.802 0.295,-1.857 -0.57,-2.766 -4.666,-8.235 -12.942,-10.452 -6.313,-1.689 -12.499,-2.755 -15.582,-3.24 v -19.266 c 13.893,1.794 29.981,5.763 37.476,17.292 3.906,6.016 5.954,12.372 6.967,21.789 C 0.38,-27.39 0,0 0,0"
             style="fill:#ff5500;fill-opacity:1;fill-rule:nonzero;stroke:none"
             id="path558" />
        </g>
        <g
           id="g560"
           transform="translate(104.9686,175.9437)">
          <path
             d="m 0,0 c -4.991,-1.17 -7.771,1.609 -7.771,7.551 v 5.741 c 0,4.141 0.805,7.733 4.498,8.903 C 7.45,25.593 14.919,20.971 14.919,13.712 14.918,6.93 9.727,2.285 0,0 m 36.145,24.81 c 0,26.382 -25.815,34.043 -57.39,22.762 v -85.164 l 13.456,3.107 v 21.322 c 0,3.254 2.395,2.687 4.607,0.713 1.555,-1.39 10.897,-10.44 17.424,-16.948 l 20.543,4.742 c 0,0 -17.91,18.294 -19.976,20.103 12.03,4.498 21.336,16.219 21.336,29.363"
             style="fill:#ff5500;fill-opacity:1;fill-rule:nonzero;stroke:none"
             id="path562" />
        </g>
        <g
           id="g564"
           transform="translate(275.5258,283.2811)">
          <path
             d="m 0,0 -9.335,-2.155 c 0,0 0.01,-17.407 -0.258,-23.207 -0.398,-8.658 -9.517,-10.788 -10.196,-2.221 -0.438,5.527 -1.084,21.713 -1.084,21.713 l -11.268,-2.601 v -14.721 c 0,-17.649 8.807,-20.077 17.938,-17.969 C -4.18,-38.847 0,-30.669 0,-16.476 Z"
             style="fill:#ffaa00;fill-opacity:1;fill-rule:nonzero;stroke:none"
             id="path566" />
        </g>
        <g
           id="g568"
           transform="translate(220.9813,238.0096)">
          <path
             d="m 0,0 c -2.715,-0.628 -3.89,0.28 -3.89,3.457 v 10.019 c 0,2.309 -0.119,4.153 2.071,4.772 C 2.939,19.591 8.256,17.044 8.76,11.867 9.348,5.85 6,1.386 0,0 M -10.579,33.402 V -9.151 c 20.57,3.008 29.526,10.956 29.302,26.755 -0.196,13.7 -13.797,21.228 -29.302,15.798"
             style="fill:#ffaa00;fill-opacity:1;fill-rule:nonzero;stroke:none"
             id="path570" />
        </g>
        <g
           id="g572"
           transform="translate(366.6322,328.5726)">
          <path
             d="m 0,0 c -0.259,2.428 -4.457,2.977 -10.997,4.545 -11.434,2.839 -18.511,9.575 -17.788,21.408 0.769,12.772 7.236,21.68 41.459,27.492 V 26.876 C 0.325,25.331 -6.493,23.021 -9.385,20.655 c -3.084,-2.502 -2.904,-6.601 1.547,-8.088 1.935,-0.646 7.652,-2.555 11.108,-3.714 6.63,-2.21 9.876,-5.599 10.551,-11.598 1.91,-16.922 -28.717,-21.36 -41.345,-23.214 v 15.035 C -12.396,-7.875 0.583,-5.204 0,0"
             style="fill:#ffaa00;fill-opacity:1;fill-rule:nonzero;stroke:none"
             id="path574" />
        </g>
        <g
           id="g576"
           transform="translate(319.0756,291.0751)">
          <path
             d="m 0,0 v 62.828 l 13.289,3.068 V 3.068 Z"
             style="fill:#ffaa00;fill-opacity:1;fill-rule:nonzero;stroke:none"
             id="path578" />
        </g>
        <g
           id="g580"
           transform="translate(286.9896,301.0873)">
          <path
             d="m 0,0 c -3.782,-0.875 -5.418,0.39 -5.418,4.813 v 13.955 c 0,3.216 -0.167,5.785 2.884,6.646 C 4.093,27.285 11.498,23.738 12.2,16.527 13.019,8.146 8.356,1.929 0,0 m -14.734,46.521 v -59.267 c 28.649,4.19 41.123,15.26 40.81,37.264 -0.272,19.08 -19.217,29.565 -40.81,22.003"
             style="fill:#ffaa00;fill-opacity:1;fill-rule:nonzero;stroke:none"
             id="path582" />
        </g>
        <g
           id="g584"
           transform="translate(245.0736,306.6298)">
          <path
             d="m 0,0 -6.918,-1.598 c -1.739,-0.401 -2.729,0.681 -2.515,3.098 0.195,2.261 1.209,7.056 1.599,8.693 0.818,3.391 2.533,5.047 4.501,5.34 C -0.156,16.04 1.384,13.72 2.612,7.874 2.729,7.328 3.06,6.139 3.196,4.541 3.469,1.286 2.458,0.567 0,0 M 12.123,25.979 C 8.498,37.868 5.563,40.802 -1.656,39.134 -8.021,37.666 -11.64,34.352 -14.675,22.725 -17.657,11.304 -20.931,-4.873 -23.582,-23.349 l 10.485,2.281 c 0.195,1.462 0.546,3.176 1.053,5.788 0.545,2.631 1.968,4.512 4.794,5.165 2.327,0.537 6.657,1.537 8.186,1.889 2.188,0.506 4.19,-1.227 4.891,-4.15 0.468,-1.949 1.072,-4.697 1.443,-6.548 l 13.916,3.196 c -1.697,13.623 -5.457,29.896 -9.063,41.707"
             style="fill:#ffaa00;fill-opacity:1;fill-rule:nonzero;stroke:none"
             id="path586" />
        </g>
        <g
           id="g588"
           transform="translate(191.8358,296.2762)">
          <path
             d="m 0,0 c -3.57,-0.837 -5.557,1.151 -5.557,5.402 v 4.107 c -10e-4,2.962 0.575,5.533 3.216,6.369 7.669,2.43 13.01,-0.877 13.01,-6.069 C 10.669,4.956 6.956,1.634 0,0 M 25.851,17.747 C 25.851,36.621 7.235,42 -15.194,34.034 v -59.379 l 9.624,2.222 v 13.706 c 0,2.328 1.713,1.923 3.295,0.51 1.111,-0.994 7.793,-7.469 12.461,-12.126 l 14.691,3.392 c 0,0 -12.808,13.088 -14.286,14.383 8.604,3.217 15.26,11.602 15.26,21.005"
             style="fill:#ffaa00;fill-opacity:1;fill-rule:nonzero;stroke:none"
             id="path590" />
        </g>
        <g
           id="g592"
           transform="translate(150.5756,273.8983)">
          <path
             d="m 0,0 -6.919,-1.598 c -1.739,-0.401 -2.728,0.682 -2.514,3.098 0.195,2.261 1.208,7.056 1.598,8.693 0.819,3.391 2.534,5.048 4.502,5.34 C -0.156,16.04 1.384,13.72 2.611,7.874 2.729,7.328 3.06,6.139 3.196,4.541 3.469,1.286 2.458,0.567 0,0 M 12.122,25.979 C 8.497,37.868 5.563,40.802 -1.657,39.135 -8.021,37.666 -11.64,34.352 -14.676,22.725 -17.658,11.304 -20.932,-4.873 -23.582,-23.349 l 10.485,2.281 c 0.195,1.462 0.546,3.176 1.053,5.788 0.545,2.631 1.968,4.512 4.794,5.165 2.327,0.537 6.657,1.537 8.186,1.889 2.188,0.506 4.189,-1.227 4.891,-4.15 0.468,-1.949 1.072,-4.697 1.443,-6.548 l 13.915,3.196 c -1.696,13.623 -5.457,29.896 -9.063,41.707"
             style="fill:#ffaa00;fill-opacity:1;fill-rule:nonzero;stroke:none"
             id="path594" />
        </g>
        <g
           id="g596"
           transform="translate(102.5267,288.6283)">
          <path
             d="m 0,0 c -4.366,-1.062 -6.884,0.079 -6.884,3.737 v 13.237 c 0,3.738 2.065,6.096 6.176,6.628 C 7.533,24.664 11.25,19.845 11.25,13.571 11.25,8.339 8.162,2.006 0,0 m -27.397,42.699 v -82.9 l 20.533,4.74 v 19.471 c 0,3.56 0.885,5.33 3.009,5.704 19.136,3.366 32.767,12.987 32.767,32.727 0,21.676 -23.287,33.337 -56.309,20.258"
             style="fill:#ffaa00;fill-opacity:1;fill-rule:nonzero;stroke:none"
             id="path598" />
        </g>
      </g>
    </g>
  </g>
</svg>
