<?xml version="1.0" encoding="UTF-8" standalone="no"?>
<!-- Created with Inkscape (http://www.inkscape.org/) -->

<svg
   version="1.1"
   id="svg2"
   width="666.66669"
   height="496.35468"
   viewBox="0 0 666.66669 496.35468"
   sodipodi:docname="RH Modding Logo.ai"
   xmlns:inkscape="http://www.inkscape.org/namespaces/inkscape"
   xmlns:sodipodi="http://sodipodi.sourceforge.net/DTD/sodipodi-0.dtd"
   xmlns="http://www.w3.org/2000/svg"
   xmlns:svg="http://www.w3.org/2000/svg">
  <defs
     id="defs6">
    <clipPath
       clipPathUnits="userSpaceOnUse"
       id="clipPath16">
      <path
         d="M 0,372.266 H 500 V 0 H 0 Z"
         id="path14" />
    </clipPath>
  </defs>
  <sodipodi:namedview
     id="namedview4"
     pagecolor="#ffffff"
     bordercolor="#000000"
     borderopacity="0.25"
     inkscape:showpageshadow="2"
     inkscape:pageopacity="0.0"
     inkscape:pagecheckerboard="0"
     inkscape:deskcolor="#d1d1d1" />
  <g
     id="g8"
     inkscape:groupmode="layer"
     inkscape:label="RH Modding Logo"
     transform="matrix(1.3333333,0,0,-1.3333333,0,496.35467)">
    <g
       id="g10">
      <g
         id="g12"
         clip-path="url(#clipPath16)">
        <g
           id="g18"
           transform="translate(481.8828,224.0315)">
          <path
             d="m 0,0 c 4.894,12.547 7.441,25.99 7.441,39.551 0,59.928 -48.754,108.683 -108.682,108.683 -34.925,0 -67.126,-16.686 -87.342,-43.975 -14.012,7.001 -29.565,10.725 -45.455,10.725 -20.991,0 -41.147,-6.349 -58.288,-18.361 -8.889,-6.228 -16.637,-13.734 -23.038,-22.254 -17.194,10.789 -37.268,16.702 -57.836,16.702 -59.928,0 -108.683,-48.755 -108.683,-108.683 0,-24.092 7.724,-46.916 22.336,-66.007 10.206,-13.335 23.493,-24.17 38.472,-31.557 -0.205,-2.623 -0.307,-5.258 -0.307,-7.897 0,-55.669 45.29,-100.959 100.958,-100.959 20.885,0 40.931,6.328 57.972,18.298 10.137,7.121 18.774,15.914 25.603,25.984 11.397,-4.307 23.536,-6.534 35.935,-6.534 31.208,0 60.532,14.582 79.602,38.459 12.553,-5.597 26.176,-8.498 40.266,-8.498 54.679,0 99.163,44.484 99.163,99.162 C 18.117,-36.457 11.765,-16.626 0,0"
             style="fill:#00b3f0;fill-opacity:1;fill-rule:nonzero;stroke:none"
             id="path20" />
        </g>
        <g
           id="g22"
           transform="translate(468.8918,222.4202)">
          <path
             d="m 0,0 c 5.98,12.826 9.115,26.918 9.115,41.162 0,53.688 -43.678,97.366 -97.365,97.366 -34.693,0 -66.385,-18.377 -83.768,-47.706 -14.529,9.386 -31.55,14.456 -49.029,14.456 -18.655,0 -36.565,-5.64 -51.793,-16.312 -10.96,-7.68 -19.969,-17.542 -26.538,-28.964 -17.159,13.703 -38.677,21.363 -60.831,21.363 -53.687,0 -97.366,-43.678 -97.366,-97.365 0,-40.116 24.959,-76.144 61.728,-90.631 -0.816,-4.887 -1.227,-9.848 -1.227,-14.83 0,-49.429 40.213,-89.642 89.641,-89.642 18.544,0 36.341,5.616 51.467,16.241 11.591,8.143 20.974,18.746 27.565,31.059 12.5,-6.276 26.297,-9.552 40.478,-9.552 30.846,0 59.619,16.027 76.091,41.624 13.257,-7.66 28.192,-11.663 43.777,-11.663 48.438,0 87.845,39.407 87.845,87.845 C 19.79,-35.123 12.811,-15.654 0,0"
             style="fill:#ffffff;fill-opacity:1;fill-rule:nonzero;stroke:none"
             id="path24" />
        </g>
        <g
           id="g26"
           transform="translate(457.0275,220.9138)">
          <path
             d="m 0,0 c 7.066,12.623 11.1,27.174 11.1,42.669 0,48.317 -39.169,87.485 -87.486,87.485 -35.965,0 -66.856,-21.705 -80.302,-52.728 -14.093,12.138 -32.436,19.478 -52.495,19.478 -34.318,0 -63.615,-21.483 -75.187,-51.733 -15.969,17.115 -38.72,27.82 -63.975,27.82 -48.316,0 -87.485,-39.168 -87.485,-87.485 0,-39.96 26.791,-73.661 63.391,-84.124 -1.881,-6.792 -2.891,-13.947 -2.891,-21.337 0,-44.051 35.711,-79.762 79.761,-79.762 34.079,0 63.16,21.375 74.583,51.447 12.831,-8.649 28.289,-13.699 44.928,-13.699 32.056,0 59.733,18.744 72.674,45.869 13.101,-9.979 29.454,-15.908 47.194,-15.908 43.059,0 77.965,34.906 77.965,77.965 C 21.775,-33.06 13.483,-14.015 0,0"
             style="fill:#130c0e;fill-opacity:1;fill-rule:nonzero;stroke:none"
             id="path28" />
        </g>
        <g
           id="g30"
           transform="translate(424.1865,240.5345)">
          <path
             d="m 0,0 -3.931,-11.759 -6.923,10.298 -12.386,0.104 7.619,9.776 -3.722,11.794 11.654,-4.244 10.09,7.201 -0.418,-12.385 9.915,-7.376 z m 12.047,25.492 c -8.018,8.018 -19.916,9.7 -29.573,5.087 L -40.287,53.34 c 4.268,8.493 3.621,18.408 -1.681,25.736 -5.302,7.372 -14.398,10.993 -23.623,9.398 l -8.38,-1.449 17.755,-17.756 -12.237,-12.291 -17.771,17.771 -1.482,-8.347 c -1.638,-9.225 1.983,-18.321 9.354,-23.623 7.372,-5.303 17.287,-5.949 25.779,-1.681 l 22.762,-22.762 c -4.613,-9.656 -2.932,-21.597 5.086,-29.615 10.174,-10.174 26.641,-10.174 36.772,0 10.173,10.173 10.173,26.641 0,36.771"
             style="fill:#4a4a4a;fill-opacity:1;fill-rule:nonzero;stroke:none"
             id="path32" />
        </g>
        <g
           id="g34"
           transform="translate(80.8299,174.8868)">
          <path
             d="m 0,0 -6.923,-10.298 -3.931,11.759 -11.899,3.41 9.915,7.375 -0.417,12.385 L -3.166,17.43 8.489,21.674 4.766,9.88 12.385,0.104 Z M 76.852,67.863 75.369,76.21 57.599,58.439 45.361,70.73 63.117,88.486 54.737,89.935 C 45.512,91.53 36.416,87.909 31.114,80.537 25.811,73.209 25.165,63.294 29.432,54.802 L 6.671,32.04 c -9.656,4.613 -21.554,2.932 -29.572,-5.087 -10.174,-10.13 -10.174,-26.597 0,-36.771 10.13,-10.174 26.598,-10.174 36.771,0 8.018,8.018 9.7,19.959 5.087,29.615 l 22.761,22.762 c 8.493,-4.268 18.407,-3.621 25.779,1.681 7.372,5.302 10.993,14.398 9.355,23.623"
             style="fill:#4a4a4a;fill-opacity:1;fill-rule:nonzero;stroke:none"
             id="path36" />
        </g>
        <g
           id="g38"
           transform="translate(451.9306,211.2903)">
          <path
             d="m 0,0 c -28.269,0 -40.773,-15.392 -45.756,-24.727 -7.632,-14.3 -7.484,-32.69 0.35,-43.731 4.837,-6.815 12.056,-9.863 20.344,-8.579 9.562,1.483 17.218,5.937 22.142,12.882 5.305,7.482 7.317,17.804 5.579,28.459 l -24.182,-5.583 v -10.519 l 7.764,1.793 c 0.782,0.179 1.664,0.284 2.287,-0.308 0.607,-0.577 0.539,-1.422 0.436,-2.008 -0.22,-1.242 -1.747,-7.534 -10.28,-9.504 -5.18,-1.194 -9.795,0.225 -12.656,3.9 -3.612,4.64 -3.817,11.782 -0.521,18.193 2.603,5.065 11.245,16.644 35.652,15.993 l 0.012,23.73 C 0.778,-0.003 0.388,0 0,0"
             style="fill:#f15a22;fill-opacity:1;fill-rule:nonzero;stroke:none"
             id="path40" />
        </g>
        <g
           id="g42"
           transform="translate(358.9579,175.279)">
          <path
             d="m 0,0 v -60.506 l 7.165,1.654 0.115,15.106 c 0,3.64 0.414,5.907 1.305,7.127 0.407,0.555 1.056,0.95 1.736,1.06 1.883,0.303 5.476,-1.131 14.968,-16.96 l 10.755,2.483 V 15.436 L 25.896,13.093 c -0.019,-4.334 -0.123,-24.401 -0.402,-28.344 -0.34,-4.817 -1.229,-6.917 -3.069,-7.248 -0.847,-0.108 -1.657,0.082 -2.335,0.525 -3.098,2.034 -8.05,11.671 -13.293,21.875 L 6.03,1.393 Z"
             style="fill:#f15a22;fill-opacity:1;fill-rule:nonzero;stroke:none"
             id="path44" />
        </g>
        <g
           id="g46"
           transform="translate(340.1269,185.1218)">
          <path
             d="m 0,0 v -67.621 l 12.407,2.865 v 67.62 z"
             style="fill:#f15a22;fill-opacity:1;fill-rule:nonzero;stroke:none"
             id="path48" />
        </g>
        <g
           id="g50"
           transform="translate(305.038,107.156)">
          <path
             d="m 0,0 c -0.945,-0.219 -1.785,-0.329 -2.53,-0.329 -1.25,0 -2.237,0.309 -3.024,0.935 -1.341,1.067 -1.966,2.961 -1.966,5.961 l -0.001,16.762 c -0.009,3.589 -0.018,6.978 4.082,8.135 4.474,1.261 9.304,0.541 12.923,-1.931 3.15,-2.152 5.089,-5.44 5.461,-9.261 C 15.937,10.126 10.21,2.358 0,0 m 17.858,51.313 c -8.92,6.233 -21.353,7.312 -34.201,2.997 v -66.983 c 32.163,4.95 45.762,17.591 45.414,42.118 -0.13,9.142 -4.112,16.908 -11.213,21.868"
             style="fill:#f15a22;fill-opacity:1;fill-rule:nonzero;stroke:none"
             id="path52" />
        </g>
        <g
           id="g54"
           transform="translate(252.8808,98.9792)">
          <path
             d="m 0,0 c -0.946,-0.219 -1.785,-0.329 -2.53,-0.329 -1.25,0 -2.236,0.309 -3.023,0.935 -1.342,1.067 -1.966,2.96 -1.966,5.961 L -7.52,23.329 c -0.009,3.588 -0.018,6.977 4.08,8.134 4.476,1.265 9.305,0.542 12.924,-1.93 3.15,-2.152 5.089,-5.44 5.461,-9.261 C 15.937,10.125 10.21,2.357 0,0 m 17.858,51.313 c -8.919,6.233 -21.351,7.314 -34.2,2.997 v -66.983 c 32.163,4.949 45.762,17.59 45.414,42.118 -0.131,9.141 -4.113,16.908 -11.214,21.868"
             style="fill:#f15a22;fill-opacity:1;fill-rule:nonzero;stroke:none"
             id="path56" />
        </g>
        <g
           id="g58"
           transform="translate(204.1645,77.8327)">
          <path
             d="m 0,0 c -1.751,-0.404 -3.342,-0.606 -4.781,-0.606 -2.59,-0.001 -4.687,0.656 -6.348,1.977 -2.774,2.207 -4.123,6.129 -4.123,11.989 0,8.65 5.66,15.329 14.772,17.433 4.773,1.1 8.735,0.54 11.457,-1.627 2.462,-1.959 3.764,-5.189 3.764,-9.343 C 14.741,9.389 9.368,2.163 0,0 m 17.202,53.852 c -2.908,2.313 -6.503,3.473 -10.735,3.473 -2.031,0 -4.208,-0.266 -6.528,-0.803 -20.848,-4.812 -26.411,-27.494 -26.411,-40.137 0,-8.234 0.8,-19.816 7.714,-25.311 4.203,-3.342 10.342,-4.107 18.247,-2.274 23.265,5.389 26.472,22.483 26.472,40.152 0,6.697 -1.138,18.838 -8.759,24.9"
             style="fill:#f15a22;fill-opacity:1;fill-rule:nonzero;stroke:none"
             id="path60" />
        </g>
        <g
           id="g62"
           transform="translate(110.0453,124.656)">
          <path
             d="m 0,0 v -69.409 l 11.149,2.574 c -0.025,10.272 0.231,16.587 0.783,19.291 0.499,2.425 1.685,2.982 2.347,3.099 0.837,0.15 2.127,-0.14 3.488,-2.356 1.345,-2.179 3.422,-6.748 6.98,-14.884 l 9.277,2.142 c 4.472,11.939 6.662,17.223 8.327,20.105 0.973,1.699 2.644,3.409 4.413,3.101 1.359,-0.236 2.255,-1.517 2.661,-3.807 0.619,-3.431 0.622,-11.976 0.602,-22.852 l 11.646,2.688 v 78.19 l -9.08,-2.097 C 46.86,-3.117 43.66,-12.211 40.875,-19.902 c -2.146,-5.912 -4.558,-8.932 -7.375,-9.234 -2.268,-0.239 -4.554,1.368 -6.623,4.659 -2.768,4.437 -6.58,13.205 -12.605,27.771 z"
             style="fill:#f15a22;fill-opacity:1;fill-rule:nonzero;stroke:none"
             id="path64" />
        </g>
        <g
           id="g66"
           transform="translate(262.8749,272.9529)">
          <path
             d="m 0,0 v -100.945 l 18.749,4.328 c -0.353,13.585 0.203,22.616 1.747,28.375 1.045,3.899 3.865,7.71 7.544,10.195 3.751,2.533 7.326,3.794 10.928,3.852 4.949,0.091 8.172,-2.505 8.589,-6.917 0.583,-6.158 0.823,-14.733 0.699,-24.859 l 13.441,3.103 V 18.933 L 42.609,14.526 c 0.343,-13.491 0.16,-23.887 -1.749,-30.715 -1.15,-4.122 -3.682,-7.579 -7.525,-10.276 -3.449,-2.42 -7.13,-3.685 -10.94,-3.761 -5.155,-0.09 -8.181,2.321 -8.593,6.819 -0.615,6.715 -0.857,15.832 -0.701,26.432 z"
             style="fill:#faa61a;fill-opacity:1;fill-rule:nonzero;stroke:none"
             id="path68" />
        </g>
        <g
           id="g70"
           transform="translate(209.9838,194.1726)">
          <path
             d="m 0,0 v 0 c -1.022,-0.24 -1.984,-0.359 -2.881,-0.359 -1.857,0 -3.441,0.512 -4.731,1.534 -2.232,1.769 -3.363,4.888 -3.363,9.27 v 7.201 c -0.001,4.709 0.72,10.342 6.339,12.122 7.545,2.39 14.504,1.834 19.094,-1.527 C 17.7,25.867 19.485,22.292 19.485,18.174 19.485,11.972 16.105,3.784 0,0 m 17.689,-5.489 -1.259,1.103 1.568,0.586 c 15.375,5.748 26.113,20.509 26.113,35.895 0,11.848 -4.344,21.171 -12.562,26.962 C 18.857,68 -2.044,68.314 -25.877,59.94 V -44.924 l 14.879,3.436 v 25.95 c 0,2.388 0.954,3.315 1.754,3.674 1.442,0.648 3.518,-0.095 5.691,-2.033 1.886,-1.687 13.104,-12.541 21.504,-20.908 l 23.492,5.424 c -4.755,4.851 -21.571,21.98 -23.754,23.892"
             style="fill:#faa61a;fill-opacity:1;fill-rule:nonzero;stroke:none"
             id="path72" />
        </g>
      </g>
    </g>
  </g>
</svg>
