<?xml version="1.0" encoding="UTF-8" standalone="no"?>
<!-- Created with Inkscape (http://www.inkscape.org/) -->

<svg
   version="1.1"
   id="svg2"
   width="666.66669"
   height="244.61067"
   viewBox="0 0 666.66669 244.61067"
   sodipodi:docname="Rhythmix (リズミクス) Logo.ai"
   xmlns:inkscape="http://www.inkscape.org/namespaces/inkscape"
   xmlns:sodipodi="http://sodipodi.sourceforge.net/DTD/sodipodi-0.dtd"
   xmlns="http://www.w3.org/2000/svg"
   xmlns:svg="http://www.w3.org/2000/svg">
  <defs
     id="defs6">
    <clipPath
       clipPathUnits="userSpaceOnUse"
       id="clipPath16">
      <path
         d="M 0,183.458 H 500 V 0 H 0 Z"
         id="path14" />
    </clipPath>
  </defs>
  <sodipodi:namedview
     id="namedview4"
     pagecolor="#ffffff"
     bordercolor="#000000"
     borderopacity="0.25"
     inkscape:showpageshadow="2"
     inkscape:pageopacity="0.0"
     inkscape:pagecheckerboard="0"
     inkscape:deskcolor="#d1d1d1" />
  <g
     id="g8"
     inkscape:groupmode="layer"
     inkscape:label="Rhythmix (リズミクス) Logo"
     transform="matrix(1.3333333,0,0,-1.3333333,0,244.61067)">
    <g
       id="g10">
      <g
         id="g12"
         clip-path="url(#clipPath16)">
        <g
           id="g18"
           transform="translate(421.9434,183.4524)">
          <path
             d="m 0,0 h -0.001 -0.203 c -25.045,0 -47.916,-11.612 -62.524,-31.074 -7.648,2.446 -15.681,3.722 -23.764,3.743 h -0.21 c -7.673,0 -15.327,-1.138 -22.646,-3.339 -14.604,19.135 -37.312,30.607 -62.013,30.67 h -0.203 c -24.999,0 -47.857,-11.59 -62.477,-31.01 -0.29,0.092 -0.581,0.183 -0.872,0.272 -15.33,4.672 -31.366,4.549 -46.349,-0.195 -14.587,19.308 -37.361,30.876 -62.233,30.939 h -0.181 c -43.068,0 -78.162,-34.892 -78.267,-77.862 -0.112,-43.037 34.905,-78.145 78.06,-78.264 8.075,0.019 16.104,1.213 23.767,3.621 9.882,-12.982 23.718,-22.734 39.476,-27.541 17.817,-5.429 37.04,-4.32 54.13,3.125 12.4,5.403 23.126,13.88 31.174,24.484 7.597,-2.41 15.569,-3.668 23.582,-3.689 h 0.214 c 7.672,0 15.322,1.137 22.64,3.337 14.611,-19.133 37.323,-30.606 62.016,-30.669 h 0.203 c 25.046,0 47.921,11.612 62.533,31.071 7.64,-2.444 15.666,-3.72 23.751,-3.746 h 0.181 c 43.056,0 78.152,34.893 78.272,77.871 C 78.161,-35.218 43.145,-0.112 0,0"
             style="fill:#00b3f0;fill-opacity:1;fill-rule:nonzero;stroke:none"
             id="path20" />
        </g>
        <g
           id="g22"
           transform="translate(421.9189,174.0744)">
          <path
             d="M 0,0 H -0.001 -0.18 c -24.398,0 -46.454,-12.519 -58.898,-33.066 -8.599,3.74 -17.966,5.71 -27.414,5.735 h -0.185 c -9.014,0 -17.995,-1.783 -26.286,-5.19 -12.483,20.135 -34.369,32.46 -58.398,32.521 h -0.179 c -24.35,0 -46.39,-12.488 -58.854,-32.985 -2.353,1.015 -4.769,1.902 -7.229,2.654 -15.712,4.79 -32.272,3.855 -47.229,-2.565 -12.441,20.374 -34.411,32.841 -58.64,32.902 h -0.159 c -37.908,0 -68.797,-30.7 -68.89,-68.508 -0.099,-37.866 30.723,-68.758 68.708,-68.862 h 0.183 c 9.33,0 18.605,1.907 27.147,5.554 8.773,-14.391 22.298,-24.903 38.621,-29.88 6.747,-2.057 13.58,-3.043 20.31,-3.043 23.673,0 46.04,12.213 58.669,33.016 8.543,-3.683 17.838,-5.623 27.199,-5.647 h 0.189 c 9.011,0 17.988,1.78 26.278,5.186 12.491,-20.134 34.38,-32.457 58.402,-32.518 h 0.179 c 24.402,0 46.461,12.516 58.908,33.061 8.589,-3.735 17.949,-5.706 27.396,-5.736 h 0.159 c 37.899,0 68.79,30.703 68.896,68.517 C 68.795,-30.987 37.975,-0.099 0,0"
             style="fill:#ffffff;fill-opacity:1;fill-rule:nonzero;stroke:none"
             id="path24" />
        </g>
        <g
           id="g26"
           transform="translate(421.9034,168.1068)">
          <path
             d="m 0,0 c -24.797,0.062 -46.279,-14.188 -56.572,-34.948 -8.887,4.831 -19.078,7.588 -29.921,7.617 -10.429,0.028 -20.274,-2.481 -28.946,-6.939 -10.378,20.291 -31.509,34.208 -55.921,34.27 -24.757,0.062 -46.205,-14.143 -56.526,-34.841 -3.588,1.927 -7.414,3.532 -11.461,4.769 -16.613,5.063 -33.741,2.905 -47.979,-4.661 -10.293,20.539 -31.559,34.676 -56.164,34.739 -34.745,0.079 -62.982,-27.914 -63.067,-62.557 -0.091,-34.632 28.005,-62.782 62.755,-62.878 10.775,-0.028 20.926,2.655 29.808,7.391 7.442,-14.85 20.728,-26.75 37.868,-31.976 29.83,-9.092 61.327,5.096 74.743,32.094 8.842,-4.763 18.96,-7.481 29.712,-7.509 10.429,-0.028 20.274,2.48 28.94,6.933 10.384,-20.28 31.514,-34.202 55.926,-34.265 24.803,-0.062 46.285,14.183 56.583,34.943 8.888,-4.831 19.067,-7.583 29.899,-7.617 34.745,-0.079 62.977,27.93 63.073,62.562 C 62.835,-28.235 34.745,-0.09 0,0"
             style="fill:#130c0e;fill-opacity:1;fill-rule:nonzero;stroke:none"
             id="path28" />
        </g>
        <g
           id="g30"
           transform="translate(388.7078,123.5612)">
          <path
             d="M 0,0 H 47.77 C 37.697,-26.645 20.953,-34.292 -5.789,-34.292 h -4.695 l -3.552,-11.619 14.142,0.001 c 18.304,-0.001 27.889,2.445 41.477,11.583 2.17,-2.017 4.612,-6.079 5.016,-11.584 h 21.528 c -1.731,4.25 -11.325,14.965 -17.874,17.952 11.123,9.588 14.469,16.738 18.045,24.646 1.281,2.866 3.169,3.972 4.922,3.972 h 3.259 l 3.396,11.109 H 3.598 Z"
             style="fill:#f15a22;fill-opacity:1;fill-rule:nonzero;stroke:none"
             id="path32" />
        </g>
        <g
           id="g34"
           transform="translate(334.9322,99.6609)">
          <path
             d="M 0,0 2.173,7.108 H -19.649 L -21.822,0 h 3.761 c 1.309,0 1.963,-0.987 1.487,-2.542 -2.544,-8.323 -7.88,-14.855 -21.145,-14.855 l -3.129,-10.234 c 21.098,0 30.798,8.846 35.682,17.265 H 16.858 C 10.854,-30.753 -4.985,-40.571 -40.561,-40.571 h -4.244 l -3.129,-10.237 18.011,-10e-4 c 32.85,0 59.543,14.854 66.748,50.809 z"
             style="fill:#faa61a;fill-opacity:1;fill-rule:nonzero;stroke:none"
             id="path36" />
        </g>
        <g
           id="g38"
           transform="translate(288.8517,112.0596)">
          <path
             d="M 0,0 -3.328,-10.885 -73.685,-10.877 -70.359,0 Z M 7.189,23.515 3.861,12.63 l -70.357,0.007 3.326,10.878 z m -14.378,-47.03 -3.328,-10.885 -70.357,0.008 3.325,10.877 z"
             style="fill:#f15a22;fill-opacity:1;fill-rule:nonzero;stroke:none"
             id="path40" />
        </g>
        <g
           id="g42"
           transform="translate(127.9958,89.2954)">
          <path
             d="M 0,0 H 42.078 C 33.206,-23.47 18.457,-30.206 -5.099,-30.206 H -9.235 L -12.364,-40.44 H 0.093 c 16.123,0 24.566,2.154 36.536,10.203 1.911,-1.776 4.061,-5.354 4.418,-10.203 H 60.01 c -1.525,3.743 -9.976,13.181 -15.745,15.812 9.798,8.446 12.745,14.744 15.895,21.71 1.128,2.524 2.791,3.499 4.336,3.499 h 2.87 l 2.992,9.785 H 3.169 Z m 60.737,13.111 c 2.713,0.013 4.83,2.186 4.85,4.837 -0.027,2.665 -2.185,4.83 -4.836,4.85 -2.699,0.035 -4.83,-2.186 -4.85,-4.837 0.027,-2.665 2.185,-4.829 4.836,-4.85 m 16.73,4.837 c 0.027,-2.665 -2.137,-4.824 -4.85,-4.837 -2.651,0.021 -4.824,2.137 -4.837,4.85 0.02,2.651 2.137,4.824 4.85,4.837 2.665,0.027 4.872,-2.151 4.837,-4.85"
             style="fill:#faa61a;fill-opacity:1;fill-rule:nonzero;stroke:none"
             id="path44" />
        </g>
        <g
           id="g46"
           transform="translate(94.6286,135.6797)">
          <path
             d="m 0,0 -2.307,-7.545 h 1.649 c 2.483,0 3.361,-1.083 2.927,-2.501 l -8.193,-26.8 c -2.086,-6.823 -6.323,-11.014 -12.64,-11.022 h -32.87 l -3.103,-10.151 h 45.965 c 9.296,-0.03 17.094,6.064 20.183,16.169 l 9.441,30.88 c 0.653,2.134 1.842,3.425 4.173,3.425 h 2.021 L 29.553,0 Z m -27.467,-36.541 h -25.968 l 2.303,7.53 h 2.137 c 2.299,0 3.541,1.347 4.184,3.451 l 4.742,15.511 c 0.433,1.417 -0.437,2.504 -2.924,2.504 h -1.576 L -42.263,0 h 25.968 l -2.307,-7.545 h -2.133 c -2.305,0 -3.547,-1.352 -4.184,-3.436 l -4.742,-15.511 c -0.436,-1.427 0.445,-2.519 2.924,-2.519 h 1.572 z"
             style="fill:#f15a22;fill-opacity:1;fill-rule:nonzero;stroke:none"
             id="path48" />
        </g>
      </g>
    </g>
  </g>
</svg>
