<?xml version="1.0" encoding="UTF-8" standalone="no"?>
<!-- Created with Inkscape (http://www.inkscape.org/) -->

<svg
   version="1.1"
   id="svg2"
   width="666.66669"
   height="244.61067"
   viewBox="0 0 666.66669 244.61067"
   sodipodi:docname="Rhythm Jigoku (リズム地獄) Logo.ai"
   xmlns:inkscape="http://www.inkscape.org/namespaces/inkscape"
   xmlns:sodipodi="http://sodipodi.sourceforge.net/DTD/sodipodi-0.dtd"
   xmlns="http://www.w3.org/2000/svg"
   xmlns:svg="http://www.w3.org/2000/svg">
  <defs
     id="defs6">
    <clipPath
       clipPathUnits="userSpaceOnUse"
       id="clipPath16">
      <path
         d="M 0,183.458 H 500 V 0 H 0 Z"
         id="path14" />
    </clipPath>
  </defs>
  <sodipodi:namedview
     id="namedview4"
     pagecolor="#ffffff"
     bordercolor="#000000"
     borderopacity="0.25"
     inkscape:showpageshadow="2"
     inkscape:pageopacity="0.0"
     inkscape:pagecheckerboard="0"
     inkscape:deskcolor="#d1d1d1" />
  <g
     id="g8"
     inkscape:groupmode="layer"
     inkscape:label="Rhythm Jigoku (リズム地獄) Logo"
     transform="matrix(1.3333333,0,0,-1.3333333,0,244.61067)">
    <g
       id="g10">
      <g
         id="g12"
         clip-path="url(#clipPath16)">
        <g
           id="g18"
           transform="translate(421.9436,183.4522)">
          <path
             d="m 0,0 h -0.001 -0.203 c -25.045,0 -47.916,-11.612 -62.525,-31.074 -7.647,2.446 -15.68,3.722 -23.763,3.743 h -0.21 c -7.673,0 -15.326,-1.138 -22.647,-3.339 -14.603,19.135 -37.312,30.608 -62.012,30.67 h -0.203 c -24.999,0 -47.857,-11.59 -62.477,-31.01 -0.291,0.092 -0.581,0.183 -0.873,0.272 -15.329,4.673 -31.365,4.549 -46.348,-0.195 -14.587,19.308 -37.361,30.876 -62.233,30.939 h -0.181 c -43.068,0 -78.162,-34.892 -78.267,-77.862 -0.113,-43.036 34.904,-78.145 78.06,-78.264 8.075,0.019 16.103,1.213 23.767,3.621 9.882,-12.982 23.719,-22.734 39.476,-27.541 17.817,-5.429 37.039,-4.32 54.13,3.125 12.4,5.403 23.125,13.88 31.174,24.484 7.597,-2.41 15.568,-3.668 23.582,-3.689 h 0.214 c 7.672,0 15.321,1.137 22.641,3.337 14.61,-19.134 37.321,-30.606 62.015,-30.67 h 0.203 c 25.046,0 47.921,11.614 62.534,31.072 7.639,-2.444 15.665,-3.72 23.75,-3.745 h 0.18 c 43.057,0 78.154,34.893 78.274,77.871 C 78.16,-35.218 43.146,-0.112 0,0"
             style="fill:#f15a22;fill-opacity:1;fill-rule:nonzero;stroke:none"
             id="path20" />
        </g>
        <g
           id="g22"
           transform="translate(421.9192,174.0743)">
          <path
             d="M 0,0 H -0.001 -0.18 c -24.398,0 -46.455,-12.52 -58.899,-33.066 -8.599,3.74 -17.965,5.71 -27.413,5.735 h -0.186 c -9.013,0 -17.994,-1.782 -26.285,-5.19 -12.483,20.135 -34.369,32.46 -58.398,32.521 h -0.179 c -24.35,0 -46.391,-12.488 -58.854,-32.985 -2.353,1.015 -4.769,1.902 -7.229,2.654 -15.712,4.79 -32.273,3.855 -47.229,-2.565 -12.441,20.374 -34.411,32.841 -58.64,32.902 h -0.159 c -37.908,0 -68.797,-30.7 -68.89,-68.508 -0.099,-37.867 30.723,-68.757 68.708,-68.862 h 0.183 c 9.33,0 18.605,1.907 27.147,5.554 8.773,-14.392 22.298,-24.902 38.621,-29.88 6.747,-2.058 13.58,-3.043 20.309,-3.043 23.674,0 46.04,12.213 58.67,33.016 8.543,-3.683 17.838,-5.622 27.199,-5.647 h 0.189 c 9.011,0 17.988,1.781 26.278,5.187 12.491,-20.135 34.38,-32.458 58.402,-32.52 h 0.179 c 24.401,0 46.461,12.517 58.908,33.062 8.589,-3.736 17.949,-5.705 27.395,-5.736 h 0.16 c 37.899,0 68.791,30.703 68.896,68.517 C 68.795,-30.987 37.975,-0.099 0,0"
             style="fill:#f15a22;fill-opacity:1;fill-rule:nonzero;stroke:none"
             id="path24" />
        </g>
        <g
           id="g26"
           transform="translate(421.9035,168.107)">
          <path
             d="m 0,0 c -24.798,0.062 -46.279,-14.188 -56.572,-34.948 -8.887,4.831 -19.078,7.588 -29.921,7.616 -10.429,0.029 -20.275,-2.48 -28.946,-6.939 -10.378,20.292 -31.508,34.209 -55.92,34.271 -24.758,0.062 -46.206,-14.143 -56.527,-34.841 -3.588,1.927 -7.414,3.531 -11.461,4.769 -16.613,5.063 -33.741,2.905 -47.979,-4.661 -10.293,20.539 -31.559,34.676 -56.164,34.738 -34.745,0.079 -62.983,-27.913 -63.068,-62.556 -0.09,-34.632 28.006,-62.782 62.756,-62.879 10.775,-0.028 20.927,2.657 29.808,7.392 7.442,-14.85 20.728,-26.75 37.868,-31.977 29.83,-9.091 61.327,5.097 74.743,32.095 8.842,-4.764 18.96,-7.481 29.712,-7.51 10.429,-0.028 20.274,2.481 28.941,6.934 10.383,-20.279 31.513,-34.202 55.925,-34.265 24.803,-0.062 46.284,14.183 56.583,34.943 8.888,-4.831 19.068,-7.583 29.899,-7.617 34.745,-0.079 62.976,27.93 63.073,62.562 C 62.835,-28.235 34.744,-0.09 0,0"
             style="fill:#f15a22;fill-opacity:1;fill-rule:nonzero;stroke:none"
             id="path28" />
        </g>
        <g
           id="g30"
           transform="translate(405.4953,135.3433)">
          <path
             d="m 0,0 h -9.504 c 3.914,-3.646 2.471,-10.796 0.972,-15.699 l -10.443,-3.949 -1.999,-6.539 10.442,3.949 -2.477,-8.096 -10.439,-3.949 -1.999,-6.538 10.439,3.948 -0.996,-3.254 c -2.545,-8.327 -5.582,-10.156 -9.84,-10.156 l -2.151,-7.035 c 4.44,-1.139 9.212,-0.423 11.283,0.299 2.941,1.047 6.748,5.543 9.498,14.545 l 7.43,24.301 10.443,3.949 1.999,6.539 -10.443,-3.95 C 3.372,-7.851 2.838,-2.996 0,0 m 51.478,-16.407 h 7.176 l 4.605,15.062 h -7.176 z m -8.217,-20.11 c 0,0 1.752,3.365 2.854,6.971 l 0.896,2.929 h 9.867 v 0 l 2.711,8.865 H 49.721 L 55.148,0 H 42.353 L 36.922,-17.752 H 26.894 l -2.71,-8.865 H 24.183 34.21 l -0.897,-2.929 C 29.361,-42.469 24.462,-48.001 19.23,-48.001 H 9.825 l -3.03,-9.914 h 12.603 c 8.434,0 13.386,4.955 17.907,11.503 1.739,-2.142 4.331,-7.26 4.924,-11.503 h 12.629 c -2.173,9.414 -7.798,17.175 -11.597,21.398 m -21.699,5.175 H 9.922 C 9.297,-31.34 8.805,-31.73 8.607,-32.375 L 4.962,-44.298 h 11.641 c 0.578,-0.004 1.103,0.342 1.314,1.033 z M 21.6,-46.573 H -0.425 l 5.354,17.511 h 22.024 z m 4.445,28.82 H 12.75 l -0.981,-3.21 h 13.294 z m 4.073,5.654 H 12.136 l -0.982,-3.21 h 17.983 z m -0.555,5.853 H 16.269 l -0.982,-3.21 H 28.582 Z M 23.335,-26.617 H 10.041 l 0.98,3.21 h 13.295 z"
             style="fill:#f15a22;fill-opacity:1;fill-rule:nonzero;stroke:none"
             id="path32" />
        </g>
        <g
           id="g34"
           transform="translate(447.9445,138.9966)">
          <path
             d="m 0,0 c -1.7,1.385 -3.513,2.607 -5.414,3.703 -1.021,0.591 -1.928,1.12 -1.928,1.926 0,0.617 0.631,1.246 1.941,2.329 2.544,2.104 2.882,2.393 3.764,3.274 l 1.348,-0.944 C -2.065,8.727 -2.342,8.512 -4.798,6.636 -5.414,6.17 -5.666,5.969 -5.666,5.704 c 0,-0.314 0.566,-0.629 0.932,-0.83 1.85,-1.008 4.836,-2.846 5.98,-3.829 z"
             style="fill:#f15a22;fill-opacity:1;fill-rule:nonzero;stroke:none"
             id="path36" />
        </g>
        <g
           id="g38"
           transform="translate(420.1477,145.2876)">
          <path
             d="M 0,0 C -0.448,0.806 -0.704,1.189 -1.203,1.815 L -0.308,2.34 C 0.203,1.751 0.625,1.087 0.894,0.537 Z m -1.573,-0.767 c -0.576,1.112 -0.986,1.623 -1.19,1.892 l 0.869,0.524 C -1.228,0.844 -0.794,0 -0.678,-0.23 Z m 0.984,3.669 C -2.2,2.622 -3.338,2.084 -4.821,1.176 l -0.921,0.908 c 0.409,0.281 0.499,0.333 1.33,0.742 C -7.046,2.788 -8.146,2.762 -8.965,2.711 v 1.444 c 0.385,-0.012 1.97,-0.012 2.61,-0.012 0.908,0 4.948,0.012 5.766,0.012 z M -6.932,-0.64 c -1.073,-1.035 -1.125,-1.968 -1.125,-2.237 0,-1.662 2.455,-1.688 4.374,-1.688 1.252,0 2.506,0.051 3.746,0.231 l 0.051,-1.433 c -0.448,-0.064 -1.342,-0.178 -3.324,-0.178 -2.519,0 -3.605,0.114 -4.692,0.639 -0.883,0.421 -1.561,1.393 -1.561,2.404 0,1.175 0.563,1.982 1.496,3.03 z"
             style="fill:#f15a22;fill-opacity:1;fill-rule:nonzero;stroke:none"
             id="path40" />
        </g>
        <g
           id="g42"
           transform="translate(320.3967,106.7686)">
          <path
             d="m 0,0 h -10.393 l -5.254,-17.188 h -5.566 l -2.165,-7.08 h 5.566 l -3.606,-11.794 c -0.433,-1.416 -1.269,-2.323 -2.817,-2.323 h -3.459 l -1.55,-5.071 h 21.523 l 1.551,5.071 h -3.079 c -1.669,0 -2.262,0.735 -1.969,1.695 l 3.798,12.422 h 5.566 l 2.165,7.08 h -5.566 z m 42.978,-26.717 2.461,8.053 -11.63,-3.728 -5.451,-17.828 h -7.552 l 4.63,15.143 -10.763,-3.45 -4.627,-15.134 c -1.404,-4.593 -0.277,-7.416 3.973,-7.421 h 18.742 c 4.253,0.005 7.105,2.828 8.51,7.421 l 0.789,2.582 h 10.143 l -1.819,-5.951 c -2.08,-6.803 -7.33,-10.906 -13.589,-10.887 H 5.132 c -6.271,-0.019 -9.013,4.084 -6.933,10.887 l 4.482,14.658 -7.775,-2.493 1.934,6.325 7.774,2.494 2.823,9.234 c 0.44,1.437 0.171,2.306 -1.398,2.306 H 4.678 l 1.552,5.08 h 17.878 l -1.552,-5.08 h -1.111 c -1.671,0 -2.709,-0.729 -3,-1.684 l -1.839,-6.012 10.763,3.451 L 33.103,0 h 10.749 l -1.24,-4.054 -0.777,-0.01 c -1.766,-0.042 -2.769,-1.132 -3.324,-2.947 l -2.769,-9.056 10.445,3.348 7.709,-6.469 -2.751,-9 c -1.725,-5.645 -4.421,-8.464 -6.6,-9.12 -1.534,-0.453 -5.106,-0.902 -8.5,-0.189 l 1.35,4.413 c 3.211,0 3.986,1.146 5.583,6.367"
             style="fill:#f15a22;fill-opacity:1;fill-rule:nonzero;stroke:none"
             id="path44" />
        </g>
        <g
           id="g46"
           transform="translate(345.1662,118.5025)">
          <path
             d="m 0,0 c -0.434,0.688 -0.752,1.159 -1.287,1.771 l 0.904,0.521 C -0.013,1.923 0.445,1.388 0.892,0.586 Z m -1.631,-0.942 c -0.14,0.255 -0.611,1.146 -1.273,1.923 l 0.891,0.522 c 0.561,-0.586 0.892,-1.032 1.312,-1.809 z m -4.393,3.68 c -0.013,-0.955 -0.116,-5.26 -0.116,-6.062 0,-2.064 0.154,-3.363 2.408,-3.363 1.694,0 3.248,0.573 3.795,3.898 l 1.325,-0.332 c -0.713,-4.546 -3.413,-4.928 -5.133,-4.928 -3.809,0 -3.834,2.725 -3.834,5.552 0,0.829 0.039,4.497 0.025,5.248 z"
             style="fill:#f15a22;fill-opacity:1;fill-rule:nonzero;stroke:none"
             id="path48" />
        </g>
        <g
           id="g50"
           transform="translate(283.2004,87.7994)">
          <path
             d="m 0,0 h -2.849 c -1.865,-0.005 -3.587,1.076 -4.297,3.385 l -3.258,10.599 H -29.291 L -25.016,0 H -48.31 l 25.788,38.231 c 1.126,1.67 2.482,2.519 3.987,2.53 h 4.739 l 2.145,7.014 H -34.915 L -65.534,2.381 C -66.72,0.623 -68.164,0 -69.499,0 h -2.883 l -3.1,-10.14 H 3.101 Z"
             style="fill:#f15a22;fill-opacity:1;fill-rule:nonzero;stroke:none"
             id="path52" />
        </g>
        <g
           id="g54"
           transform="translate(127.9958,89.2955)">
          <path
             d="M 0,0 H 42.078 C 37.011,-13.404 26.507,-30.206 2.952,-30.206 H -9.235 l -3.129,-10.234 12.457,10e-4 c 16.123,-10e-4 24.566,2.153 36.536,10.202 1.911,-1.777 4.061,-5.355 4.418,-10.203 H 60.01 c -1.525,3.743 -9.976,13.181 -15.745,15.812 9.797,8.445 12.745,14.743 15.895,21.71 1.129,2.524 2.791,3.498 4.336,3.498 h 2.87 l 2.992,9.785 H 3.169 Z m 60.737,13.111 c 2.714,0.013 4.83,2.186 4.85,4.837 -0.027,2.665 -2.186,4.829 -4.837,4.85 -2.698,0.035 -4.829,-2.186 -4.849,-4.837 0.027,-2.665 2.185,-4.829 4.836,-4.85 m 16.73,4.837 c 0.027,-2.665 -2.137,-4.824 -4.85,-4.837 -2.651,0.021 -4.825,2.137 -4.837,4.85 0.02,2.651 2.136,4.824 4.85,4.837 2.665,0.027 4.871,-2.151 4.837,-4.85"
             style="fill:#f15a22;fill-opacity:1;fill-rule:nonzero;stroke:none"
             id="path56" />
        </g>
        <g
           id="g58"
           transform="translate(94.6286,135.6797)">
          <path
             d="m 0,0 -2.307,-7.545 h 1.649 c 2.483,0 3.361,-1.083 2.927,-2.501 l -8.193,-26.8 c -2.086,-6.822 -6.323,-11.014 -12.64,-11.023 h -32.87 l -3.104,-10.15 h 45.966 c 9.296,-0.03 17.094,6.063 20.183,16.169 l 9.441,30.879 c 0.653,2.135 1.842,3.426 4.173,3.426 h 2.021 L 29.553,0 Z m -27.467,-36.542 h -25.968 l 2.303,7.531 h 2.137 c 2.299,0 3.54,1.347 4.184,3.451 l 4.742,15.511 c 0.433,1.417 -0.437,2.504 -2.924,2.504 h -1.576 L -42.263,0 h 25.968 l -2.307,-7.545 h -2.132 c -2.306,0 -3.548,-1.352 -4.185,-3.436 l -4.742,-15.512 c -0.436,-1.425 0.445,-2.518 2.924,-2.518 h 1.572 z"
             style="fill:#f15a22;fill-opacity:1;fill-rule:nonzero;stroke:none"
             id="path60" />
        </g>
        <g
           id="g62"
           transform="translate(421.9436,183.4522)">
          <path
             d="m 0,0 h -0.001 -0.203 c -25.045,0 -47.916,-11.612 -62.525,-31.074 -7.647,2.446 -15.68,3.722 -23.763,3.743 h -0.21 c -7.673,0 -15.326,-1.138 -22.647,-3.339 -14.603,19.135 -37.312,30.608 -62.012,30.67 h -0.203 c -24.999,0 -47.857,-11.59 -62.477,-31.01 -0.291,0.092 -0.581,0.183 -0.873,0.272 -15.329,4.673 -31.365,4.549 -46.348,-0.195 -14.587,19.308 -37.361,30.876 -62.233,30.939 h -0.181 c -43.068,0 -78.162,-34.892 -78.267,-77.862 -0.113,-43.036 34.904,-78.145 78.06,-78.264 8.075,0.019 16.103,1.213 23.767,3.621 9.882,-12.982 23.719,-22.734 39.476,-27.541 17.817,-5.429 37.039,-4.32 54.13,3.125 12.4,5.403 23.125,13.88 31.174,24.484 7.597,-2.41 15.568,-3.668 23.582,-3.689 h 0.214 c 7.672,0 15.321,1.137 22.641,3.337 14.61,-19.134 37.321,-30.606 62.015,-30.67 h 0.203 c 25.046,0 47.921,11.614 62.534,31.072 7.639,-2.444 15.665,-3.72 23.75,-3.745 h 0.18 c 43.057,0 78.154,34.893 78.274,77.871 C 78.16,-35.218 43.146,-0.112 0,0"
             style="fill:#00b3f0;fill-opacity:1;fill-rule:nonzero;stroke:none"
             id="path64" />
        </g>
        <g
           id="g66"
           transform="translate(421.9192,174.0743)">
          <path
             d="M 0,0 H -0.001 -0.18 c -24.398,0 -46.455,-12.52 -58.899,-33.066 -8.599,3.74 -17.965,5.71 -27.413,5.735 h -0.186 c -9.013,0 -17.994,-1.782 -26.285,-5.19 -12.483,20.135 -34.369,32.46 -58.398,32.521 h -0.179 c -24.35,0 -46.391,-12.488 -58.854,-32.985 -2.353,1.015 -4.769,1.902 -7.229,2.654 -15.712,4.79 -32.273,3.855 -47.229,-2.565 -12.441,20.374 -34.411,32.841 -58.64,32.902 h -0.159 c -37.908,0 -68.797,-30.7 -68.89,-68.508 -0.099,-37.867 30.723,-68.757 68.708,-68.862 h 0.183 c 9.33,0 18.605,1.907 27.147,5.554 8.773,-14.392 22.298,-24.902 38.621,-29.88 6.747,-2.058 13.58,-3.043 20.309,-3.043 23.674,0 46.04,12.213 58.67,33.016 8.543,-3.683 17.838,-5.622 27.199,-5.647 h 0.189 c 9.011,0 17.988,1.781 26.278,5.187 12.491,-20.135 34.38,-32.458 58.402,-32.52 h 0.179 c 24.401,0 46.461,12.517 58.908,33.062 8.589,-3.736 17.949,-5.705 27.395,-5.736 h 0.16 c 37.899,0 68.791,30.703 68.896,68.517 C 68.795,-30.987 37.975,-0.099 0,0"
             style="fill:#ffffff;fill-opacity:1;fill-rule:nonzero;stroke:none"
             id="path68" />
        </g>
        <g
           id="g70"
           transform="translate(421.9035,168.107)">
          <path
             d="m 0,0 c -24.798,0.062 -46.279,-14.188 -56.572,-34.948 -8.887,4.831 -19.078,7.588 -29.921,7.616 -10.429,0.029 -20.275,-2.48 -28.946,-6.939 -10.378,20.292 -31.508,34.209 -55.92,34.271 -24.758,0.062 -46.206,-14.143 -56.527,-34.841 -3.588,1.927 -7.414,3.531 -11.461,4.769 -16.613,5.063 -33.741,2.905 -47.979,-4.661 -10.293,20.539 -31.559,34.676 -56.164,34.738 -34.745,0.079 -62.983,-27.913 -63.068,-62.556 -0.09,-34.632 28.006,-62.782 62.756,-62.879 10.775,-0.028 20.927,2.657 29.808,7.392 7.442,-14.85 20.728,-26.75 37.868,-31.977 29.83,-9.091 61.327,5.097 74.743,32.095 8.842,-4.764 18.96,-7.481 29.712,-7.51 10.429,-0.028 20.274,2.481 28.941,6.934 10.383,-20.279 31.513,-34.202 55.925,-34.265 24.803,-0.062 46.284,14.183 56.583,34.943 8.888,-4.831 19.068,-7.583 29.899,-7.617 34.745,-0.079 62.976,27.93 63.073,62.562 C 62.835,-28.235 34.744,-0.09 0,0"
             style="fill:#130c0e;fill-opacity:1;fill-rule:nonzero;stroke:none"
             id="path72" />
        </g>
        <g
           id="g74"
           transform="translate(405.4953,135.3433)">
          <path
             d="m 0,0 h -9.504 c 3.914,-3.646 2.471,-10.796 0.972,-15.699 l -10.443,-3.949 -1.999,-6.539 10.442,3.949 -2.477,-8.096 -10.439,-3.949 -1.999,-6.538 10.439,3.948 -0.996,-3.254 c -2.545,-8.327 -5.582,-10.156 -9.84,-10.156 l -2.151,-7.035 c 4.44,-1.139 9.212,-0.423 11.283,0.299 2.941,1.047 6.748,5.543 9.498,14.545 l 7.43,24.301 10.443,3.949 1.999,6.539 -10.443,-3.95 C 3.372,-7.851 2.838,-2.996 0,0 m 51.478,-16.407 h 7.176 l 4.605,15.062 h -7.176 z m -8.217,-20.11 c 0,0 1.752,3.365 2.854,6.971 l 0.896,2.929 h 9.867 v 0 l 2.711,8.865 H 49.721 L 55.148,0 H 42.353 L 36.922,-17.752 H 26.894 l -2.71,-8.865 H 24.183 34.21 l -0.897,-2.929 C 29.361,-42.469 24.462,-48.001 19.23,-48.001 H 9.825 l -3.03,-9.914 h 12.603 c 8.434,0 13.386,4.955 17.907,11.503 1.739,-2.142 4.331,-7.26 4.924,-11.503 h 12.629 c -2.173,9.414 -7.798,17.175 -11.597,21.398 m -21.699,5.175 H 9.922 C 9.297,-31.34 8.805,-31.73 8.607,-32.375 L 4.962,-44.298 h 11.641 c 0.578,-0.004 1.103,0.342 1.314,1.033 z M 21.6,-46.573 H -0.425 l 5.354,17.511 h 22.024 z m 4.445,28.82 H 12.75 l -0.981,-3.21 h 13.294 z m 4.073,5.654 H 12.136 l -0.982,-3.21 h 17.983 z m -0.555,5.853 H 16.269 l -0.982,-3.21 H 28.582 Z M 23.335,-26.617 H 10.041 l 0.98,3.21 h 13.295 z"
             style="fill:#f15a22;fill-opacity:1;fill-rule:nonzero;stroke:none"
             id="path76" />
        </g>
        <g
           id="g78"
           transform="translate(447.9445,138.9966)">
          <path
             d="m 0,0 c -1.7,1.385 -3.513,2.607 -5.414,3.703 -1.021,0.591 -1.928,1.12 -1.928,1.926 0,0.617 0.631,1.246 1.941,2.329 2.544,2.104 2.882,2.393 3.764,3.274 l 1.348,-0.944 C -2.065,8.727 -2.342,8.512 -4.798,6.636 -5.414,6.17 -5.666,5.969 -5.666,5.704 c 0,-0.314 0.566,-0.629 0.932,-0.83 1.85,-1.008 4.836,-2.846 5.98,-3.829 z"
             style="fill:#f15a22;fill-opacity:1;fill-rule:nonzero;stroke:none"
             id="path80" />
        </g>
        <g
           id="g82"
           transform="translate(420.1477,145.2876)">
          <path
             d="M 0,0 C -0.448,0.806 -0.704,1.189 -1.203,1.815 L -0.308,2.34 C 0.203,1.751 0.625,1.087 0.894,0.537 Z m -1.573,-0.767 c -0.576,1.112 -0.986,1.623 -1.19,1.892 l 0.869,0.524 C -1.228,0.844 -0.794,0 -0.678,-0.23 Z m 0.984,3.669 C -2.2,2.622 -3.338,2.084 -4.821,1.176 l -0.921,0.908 c 0.409,0.281 0.499,0.333 1.33,0.742 C -7.046,2.788 -8.146,2.762 -8.965,2.711 v 1.444 c 0.385,-0.012 1.97,-0.012 2.61,-0.012 0.908,0 4.948,0.012 5.766,0.012 z M -6.932,-0.64 c -1.073,-1.035 -1.125,-1.968 -1.125,-2.237 0,-1.662 2.455,-1.688 4.374,-1.688 1.252,0 2.506,0.051 3.746,0.231 l 0.051,-1.433 c -0.448,-0.064 -1.342,-0.178 -3.324,-0.178 -2.519,0 -3.605,0.114 -4.692,0.639 -0.883,0.421 -1.561,1.393 -1.561,2.404 0,1.175 0.563,1.982 1.496,3.03 z"
             style="fill:#f15a22;fill-opacity:1;fill-rule:nonzero;stroke:none"
             id="path84" />
        </g>
        <g
           id="g86"
           transform="translate(320.3967,106.7686)">
          <path
             d="m 0,0 h -10.393 l -5.254,-17.188 h -5.566 l -2.165,-7.08 h 5.566 l -3.606,-11.794 c -0.433,-1.416 -1.269,-2.323 -2.817,-2.323 h -3.459 l -1.55,-5.071 h 21.523 l 1.551,5.071 h -3.079 c -1.669,0 -2.262,0.735 -1.969,1.695 l 3.798,12.422 h 5.566 l 2.165,7.08 h -5.566 z m 42.978,-26.717 2.461,8.053 -11.63,-3.728 -5.451,-17.828 h -7.552 l 4.63,15.143 -10.763,-3.45 -4.627,-15.134 c -1.404,-4.593 -0.277,-7.416 3.973,-7.421 h 18.742 c 4.253,0.005 7.105,2.828 8.51,7.421 l 0.789,2.582 h 10.143 l -1.819,-5.951 c -2.08,-6.803 -7.33,-10.906 -13.589,-10.887 H 5.132 c -6.271,-0.019 -9.013,4.084 -6.933,10.887 l 4.482,14.658 -7.775,-2.493 1.934,6.325 7.774,2.494 2.823,9.234 c 0.44,1.437 0.171,2.306 -1.398,2.306 H 4.678 l 1.552,5.08 h 17.878 l -1.552,-5.08 h -1.111 c -1.671,0 -2.709,-0.729 -3,-1.684 l -1.839,-6.012 10.763,3.451 L 33.103,0 h 10.749 l -1.24,-4.054 -0.777,-0.01 c -1.766,-0.042 -2.769,-1.132 -3.324,-2.947 l -2.769,-9.056 10.445,3.348 7.709,-6.469 -2.751,-9 c -1.725,-5.645 -4.421,-8.464 -6.6,-9.12 -1.534,-0.453 -5.106,-0.902 -8.5,-0.189 l 1.35,4.413 c 3.211,0 3.986,1.146 5.583,6.367"
             style="fill:#faa61a;fill-opacity:1;fill-rule:nonzero;stroke:none"
             id="path88" />
        </g>
        <g
           id="g90"
           transform="translate(345.1662,118.5025)">
          <path
             d="m 0,0 c -0.434,0.688 -0.752,1.159 -1.287,1.771 l 0.904,0.521 C -0.013,1.923 0.445,1.388 0.892,0.586 Z m -1.631,-0.942 c -0.14,0.255 -0.611,1.146 -1.273,1.923 l 0.891,0.522 c 0.561,-0.586 0.892,-1.032 1.312,-1.809 z m -4.393,3.68 c -0.013,-0.955 -0.116,-5.26 -0.116,-6.062 0,-2.064 0.154,-3.363 2.408,-3.363 1.694,0 3.248,0.573 3.795,3.898 l 1.325,-0.332 c -0.713,-4.546 -3.413,-4.928 -5.133,-4.928 -3.809,0 -3.834,2.725 -3.834,5.552 0,0.829 0.039,4.497 0.025,5.248 z"
             style="fill:#faa61a;fill-opacity:1;fill-rule:nonzero;stroke:none"
             id="path92" />
        </g>
        <g
           id="g94"
           transform="translate(283.2004,87.7994)">
          <path
             d="m 0,0 h -2.849 c -1.865,-0.005 -3.587,1.076 -4.297,3.385 l -3.258,10.599 H -29.291 L -25.016,0 H -48.31 l 25.788,38.231 c 1.126,1.67 2.482,2.519 3.987,2.53 h 4.739 l 2.145,7.014 H -34.915 L -65.534,2.381 C -66.72,0.623 -68.164,0 -69.499,0 h -2.883 l -3.1,-10.14 H 3.101 Z"
             style="fill:#f15a22;fill-opacity:1;fill-rule:nonzero;stroke:none"
             id="path96" />
        </g>
        <g
           id="g98"
           transform="translate(127.9958,89.2955)">
          <path
             d="M 0,0 H 42.078 C 37.011,-13.404 26.507,-30.206 2.952,-30.206 H -9.235 l -3.129,-10.234 12.457,10e-4 c 16.123,-10e-4 24.566,2.153 36.536,10.202 1.911,-1.777 4.061,-5.355 4.418,-10.203 H 60.01 c -1.525,3.743 -9.976,13.181 -15.745,15.812 9.797,8.445 12.745,14.743 15.895,21.71 1.129,2.524 2.791,3.498 4.336,3.498 h 2.87 l 2.992,9.785 H 3.169 Z m 60.737,13.111 c 2.714,0.013 4.83,2.186 4.85,4.837 -0.027,2.665 -2.186,4.829 -4.837,4.85 -2.698,0.035 -4.829,-2.186 -4.849,-4.837 0.027,-2.665 2.185,-4.829 4.836,-4.85 m 16.73,4.837 c 0.027,-2.665 -2.137,-4.824 -4.85,-4.837 -2.651,0.021 -4.825,2.137 -4.837,4.85 0.02,2.651 2.136,4.824 4.85,4.837 2.665,0.027 4.871,-2.151 4.837,-4.85"
             style="fill:#faa61a;fill-opacity:1;fill-rule:nonzero;stroke:none"
             id="path100" />
        </g>
        <g
           id="g102"
           transform="translate(94.6286,135.6797)">
          <path
             d="m 0,0 -2.307,-7.545 h 1.649 c 2.483,0 3.361,-1.083 2.927,-2.501 l -8.193,-26.8 c -2.086,-6.822 -6.323,-11.014 -12.64,-11.023 h -32.87 l -3.104,-10.15 h 45.966 c 9.296,-0.03 17.094,6.063 20.183,16.169 l 9.441,30.879 c 0.653,2.135 1.842,3.426 4.173,3.426 h 2.021 L 29.553,0 Z m -27.467,-36.542 h -25.968 l 2.303,7.531 h 2.137 c 2.299,0 3.54,1.347 4.184,3.451 l 4.742,15.511 c 0.433,1.417 -0.437,2.504 -2.924,2.504 h -1.576 L -42.263,0 h 25.968 l -2.307,-7.545 h -2.132 c -2.306,0 -3.548,-1.352 -4.185,-3.436 l -4.742,-15.512 c -0.436,-1.425 0.445,-2.518 2.924,-2.518 h 1.572 z"
             style="fill:#f15a22;fill-opacity:1;fill-rule:nonzero;stroke:none"
             id="path104" />
        </g>
      </g>
    </g>
  </g>
</svg>
