<?xml version="1.0" encoding="UTF-8" standalone="no"?>
<!-- Created with Inkscape (http://www.inkscape.org/) -->

<svg
   version="1.1"
   id="svg2"
   width="666.66669"
   height="377.06668"
   viewBox="0 0 666.66669 377.06668"
   sodipodi:docname="Rhythm Heaven Superstars Logo Remake.ai"
   xmlns:inkscape="http://www.inkscape.org/namespaces/inkscape"
   xmlns:sodipodi="http://sodipodi.sourceforge.net/DTD/sodipodi-0.dtd"
   xmlns="http://www.w3.org/2000/svg"
   xmlns:svg="http://www.w3.org/2000/svg">
  <defs
     id="defs6">
    <linearGradient
       x1="0"
       y1="0"
       x2="1"
       y2="0"
       gradientUnits="userSpaceOnUse"
       gradientTransform="matrix(499.03931,79.040062,79.040062,-499.03931,-5.8228331,111.50472)"
       spreadMethod="pad"
       id="linearGradient44">
      <stop
         style="stop-opacity:1;stop-color:#0093fc"
         offset="0"
         id="stop22" />
      <stop
         style="stop-opacity:1;stop-color:#00fbc8"
         offset="0.1"
         id="stop24" />
      <stop
         style="stop-opacity:1;stop-color:#09eb45"
         offset="0.2"
         id="stop26" />
      <stop
         style="stop-opacity:1;stop-color:#f91572"
         offset="0.3"
         id="stop28" />
      <stop
         style="stop-opacity:1;stop-color:#fe9502"
         offset="0.4"
         id="stop30" />
      <stop
         style="stop-opacity:1;stop-color:#fefa01"
         offset="0.5"
         id="stop32" />
      <stop
         style="stop-opacity:1;stop-color:#5303fc"
         offset="0.6"
         id="stop34" />
      <stop
         style="stop-opacity:1;stop-color:#24908d"
         offset="0.7"
         id="stop36" />
      <stop
         style="stop-opacity:1;stop-color:#09eb45"
         offset="0.8"
         id="stop38" />
      <stop
         style="stop-opacity:1;stop-color:#9375a8"
         offset="0.9"
         id="stop40" />
      <stop
         style="stop-opacity:1;stop-color:#ff1bf6"
         offset="1"
         id="stop42" />
    </linearGradient>
    <clipPath
       clipPathUnits="userSpaceOnUse"
       id="clipPath54">
      <path
         d="M 0,282.8 H 500 V 0 H 0 Z"
         id="path52" />
    </clipPath>
    <linearGradient
       x1="0"
       y1="0"
       x2="1"
       y2="0"
       gradientUnits="userSpaceOnUse"
       gradientTransform="matrix(34.260838,-216.31442,-216.31442,-34.260838,226.56776,259.17365)"
       spreadMethod="pad"
       id="linearGradient80">
      <stop
         style="stop-opacity:1;stop-color:#000001"
         offset="0"
         id="stop72" />
      <stop
         style="stop-opacity:1;stop-color:#000001"
         offset="0.5"
         id="stop74" />
      <stop
         style="stop-opacity:1;stop-color:#022565"
         offset="0.70751882"
         id="stop76" />
      <stop
         style="stop-opacity:1;stop-color:#022565"
         offset="1"
         id="stop78" />
    </linearGradient>
    <clipPath
       clipPathUnits="userSpaceOnUse"
       id="clipPath90">
      <path
         d="M 0,282.8 H 500 V 0 H 0 Z"
         id="path88" />
    </clipPath>
    <linearGradient
       x1="0"
       y1="0"
       x2="1"
       y2="0"
       gradientUnits="userSpaceOnUse"
       gradientTransform="matrix(424.08905,67.169105,67.169105,-424.08905,38.188435,74.840988)"
       spreadMethod="pad"
       id="linearGradient290">
      <stop
         style="stop-opacity:1;stop-color:#ff6b4a"
         offset="0"
         id="stop268" />
      <stop
         style="stop-opacity:1;stop-color:#fefa01"
         offset="0.1"
         id="stop270" />
      <stop
         style="stop-opacity:1;stop-color:#09eb45"
         offset="0.2"
         id="stop272" />
      <stop
         style="stop-opacity:1;stop-color:#f91572"
         offset="0.3"
         id="stop274" />
      <stop
         style="stop-opacity:1;stop-color:#5303fc"
         offset="0.4"
         id="stop276" />
      <stop
         style="stop-opacity:1;stop-color:#fe9502"
         offset="0.5"
         id="stop278" />
      <stop
         style="stop-opacity:1;stop-color:#ff474f"
         offset="0.6"
         id="stop280" />
      <stop
         style="stop-opacity:1;stop-color:#fd4827"
         offset="0.7"
         id="stop282" />
      <stop
         style="stop-opacity:1;stop-color:#d4f00b"
         offset="0.8"
         id="stop284" />
      <stop
         style="stop-opacity:1;stop-color:#00fbc8"
         offset="0.9"
         id="stop286" />
      <stop
         style="stop-opacity:1;stop-color:#022565"
         offset="1"
         id="stop288" />
    </linearGradient>
    <clipPath
       clipPathUnits="userSpaceOnUse"
       id="clipPath300">
      <path
         d="M 0,282.8 H 500 V 0 H 0 Z"
         id="path298" />
    </clipPath>
  </defs>
  <sodipodi:namedview
     id="namedview4"
     pagecolor="#ffffff"
     bordercolor="#000000"
     borderopacity="0.25"
     inkscape:showpageshadow="2"
     inkscape:pageopacity="0.0"
     inkscape:pagecheckerboard="0"
     inkscape:deskcolor="#d1d1d1" />
  <g
     id="g8"
     inkscape:groupmode="layer"
     inkscape:label="Rhythm Heaven Superstars Logo Remake"
     transform="matrix(1.3333333,0,0,-1.3333333,0,377.06667)">
    <g
       id="g10">
      <g
         id="g12">
        <g
           id="g18">
          <g
             id="g20">
            <path
               d="m 284.241,282.8 c -25.522,0 -48.634,-12.805 -62.169,-33.569 v 0 c -4.745,1.102 -9.623,1.658 -14.598,1.658 v 0 c -14.313,0 -28.019,-4.728 -39.159,-13.272 v 0 c -11.276,6.347 -24.09,9.752 -37.162,9.752 v 0 C 89.4,247.369 55.43,213.4 55.43,171.646 v 0 c 0,-4.428 0.378,-8.799 1.131,-13.095 v 0 C 43.338,154.354 31.33,146.788 21.693,136.415 v 0 C 7.704,121.358 0,101.74 0,81.177 v 0 C 0,36.416 36.416,0 81.177,0 v 0 c 16.787,0 33.081,5.197 46.69,14.769 v 0 c 4.48,-0.91 9.041,-1.369 13.636,-1.369 v 0 c 17.327,0 33.656,6.416 46.196,17.9 v 0 c 4.997,-1.274 10.142,-1.915 15.386,-1.915 v 0 c 10.711,0 20.999,2.666 30.192,7.771 v 0 c 7.25,-2.362 14.797,-3.555 22.535,-3.555 v 0 c 13.632,0 27.014,3.86 38.515,10.999 v 0 c 6.269,-1.978 12.797,-2.976 19.502,-2.976 v 0 c 11.949,0 23.356,3.175 33.413,9.248 v 0 c 5.122,-1.154 10.359,-1.737 15.643,-1.737 v 0 c 14.435,0 28.453,4.388 40.251,12.487 v 0 c 5.151,-1.011 10.4,-1.52 15.687,-1.52 v 0 c 44.762,0 81.177,36.415 81.177,81.176 v 0 c 0,40.604 -29.962,74.339 -68.94,80.257 v 0 c -6.057,29.827 -32.485,52.347 -64.073,52.347 v 0 c -12.121,0 -23.734,-3.275 -33.836,-9.407 v 0 C 319.75,276.257 302.577,282.8 284.241,282.8 Z"
               style="fill:url(#linearGradient44);stroke:none"
               id="path46" />
          </g>
        </g>
      </g>
    </g>
    <g
       id="g48">
      <g
         id="g50"
         clip-path="url(#clipPath54)">
        <g
           id="g56"
           transform="translate(422.6768,212.8301)">
          <path
             d="m 0,0 c -2.217,28.784 -26.348,51.528 -55.69,51.528 -12.833,0 -25.003,-4.297 -34.869,-12.212 -12.259,13.502 -29.389,21.131 -47.877,21.131 -24.635,0 -46.693,-13.684 -57.699,-35.321 -6.081,2.265 -12.472,3.41 -19.068,3.41 -14.39,0 -28.06,-5.61 -38.27,-15.552 -11.093,7.792 -24.412,12.032 -38.051,12.032 -36.502,0 -66.2,-29.697 -66.2,-66.2 0,-6.861 1.038,-13.567 3.094,-20.018 -15.047,-2.786 -28.821,-10.332 -39.377,-21.694 -12.347,-13.291 -19.147,-30.606 -19.147,-48.757 0,-39.511 32.144,-71.654 71.654,-71.654 16.224,0 31.925,5.497 44.565,15.543 5.133,-1.423 10.421,-2.143 15.761,-2.143 16.709,0 32.339,6.931 43.52,19.159 5.781,-2.108 11.839,-3.174 18.063,-3.174 10.489,0 20.499,3.016 29.152,8.754 7.502,-3.014 15.416,-4.539 23.575,-4.539 13.357,0 26.435,4.261 37.209,12.062 6.599,-2.681 13.582,-4.038 20.807,-4.038 11.495,0 22.403,3.445 31.735,9.993 5.624,-1.649 11.437,-2.483 17.322,-2.483 13.854,0 27.268,4.67 38.111,13.208 5.806,-1.488 11.789,-2.241 17.826,-2.241 39.511,0 71.654,32.144 71.654,71.655 C 67.8,-33.334 37.726,-2.009 0,0"
             style="fill:#ffffff;fill-opacity:1;fill-rule:nonzero;stroke:none"
             id="path58" />
        </g>
      </g>
    </g>
    <g
       id="g60">
      <g
         id="g62">
        <g
           id="g68">
          <g
             id="g70">
            <path
               d="m 229.419,230.483 c -6.608,3.301 -14.056,5.169 -21.945,5.169 v 0 c -15.1,0 -28.604,-6.812 -37.624,-17.523 v 0 c -10.489,8.74 -23.976,14.003 -38.697,14.003 v 0 c -33.405,0 -60.486,-27.08 -60.486,-60.486 v 0 c 0,-8.814 1.902,-17.181 5.292,-24.734 v 0 C 41.98,144.252 15.237,115.838 15.237,81.177 v 0 c 0,-36.418 29.522,-65.94 65.94,-65.94 v 0 c 16.566,0 31.703,6.109 43.286,16.197 v 0 c 5.352,-1.805 11.078,-2.798 17.04,-2.798 v 0 c 16.978,0 32.091,7.945 41.858,20.307 v 0 c 6.004,-2.767 12.681,-4.321 19.724,-4.321 v 0 c 10.696,0 20.556,3.562 28.471,9.558 v 0 c 7.376,-3.421 15.59,-5.343 24.256,-5.343 v 0 c 13.814,0 26.488,4.856 36.424,12.946 v 0 c 6.531,-3.153 13.855,-4.922 21.593,-4.922 v 0 c 11.582,0 22.231,3.972 30.683,10.614 v 0 c 5.756,-2.003 11.935,-3.104 18.373,-3.104 v 0 c 14.081,0 26.936,5.214 36.769,13.801 v 0 c 6.066,-1.84 12.501,-2.834 19.169,-2.834 v 0 c 36.418,0 65.94,29.523 65.94,65.94 v 0 c 0,36.419 -29.522,65.941 -65.94,65.941 v 0 c -0.578,0 -1.153,-0.007 -1.727,-0.023 v 0 c 0.011,0.436 0.032,0.869 0.032,1.306 v 0 c 0,27.693 -22.448,50.143 -50.141,50.143 v 0 c -13.861,0 -26.408,-5.625 -35.485,-14.716 v 0 c -10.776,14.35 -27.933,23.635 -47.261,23.635 v 0 c -24.848,0 -46.098,-15.352 -54.822,-37.081"
               style="fill:url(#linearGradient80);stroke:none"
               id="path82" />
          </g>
        </g>
      </g>
    </g>
    <g
       id="g84">
      <g
         id="g86"
         clip-path="url(#clipPath90)">
        <g
           id="g92"
           transform="translate(405.7,212.4383)">
          <path
             d="M 0,0 -1.766,3.578 -3.531,0 l -3.948,-0.574 2.856,-2.784 -0.674,-3.933 3.531,1.857 3.532,-1.857 -0.675,3.933 2.857,2.784 z"
             style="fill:#ffffff;fill-opacity:1;fill-rule:nonzero;stroke:none"
             id="path94" />
        </g>
        <g
           id="g96"
           transform="translate(378.2908,175.6082)">
          <path
             d="M 0,0 -1.177,2.385 -2.354,0 l -2.632,-0.382 1.904,-1.857 -0.449,-2.621 2.354,1.237 2.354,-1.237 -0.45,2.621 1.905,1.857 z"
             style="fill:#ffffff;fill-opacity:1;fill-rule:nonzero;stroke:none"
             id="path98" />
        </g>
        <g
           id="g100"
           transform="translate(171.9993,160.8575)">
          <path
             d="m 0,0 -2.071,-5.547 -5.547,-2.09 5.547,-2.052 2.071,-5.548 2.071,5.548 5.547,2.052 -5.547,2.09 z"
             style="fill:#ffffff;fill-opacity:1;fill-rule:nonzero;stroke:none"
             id="path102" />
        </g>
        <g
           id="g104"
           transform="translate(206.4746,213.3244)">
          <path
             d="M 0,0 -1.035,-2.774 -3.809,-3.818 -1.035,-4.845 0,-7.618 l 1.035,2.773 2.774,1.027 -2.774,1.044 z"
             style="fill:#ffffff;fill-opacity:1;fill-rule:nonzero;stroke:none"
             id="path106" />
        </g>
        <g
           id="g108"
           transform="translate(126.0764,221.2517)">
          <path
             d="m 0,0 -2.071,-5.547 -5.547,-2.09 5.547,-2.052 2.071,-5.548 2.071,5.548 5.547,2.052 -5.547,2.09 z"
             style="fill:#ffffff;fill-opacity:1;fill-rule:nonzero;stroke:none"
             id="path110" />
        </g>
        <g
           id="g112"
           transform="translate(292.1972,255.8983)">
          <path
             d="M 0,0 -2.071,5.547 -4.142,0 -9.689,-2.089 -4.142,-4.142 -2.071,-9.689 0,-4.142 5.547,-2.089 Z"
             style="fill:#ffffff;fill-opacity:1;fill-rule:nonzero;stroke:none"
             id="path114" />
        </g>
        <g
           id="g116"
           transform="translate(362.664,237.627)">
          <path
             d="M 0,0 -1.243,-3.328 -4.571,-4.582 -1.243,-5.814 0,-9.142 l 1.242,3.328 3.329,1.232 -3.329,1.254 z"
             style="fill:#ffffff;fill-opacity:1;fill-rule:nonzero;stroke:none"
             id="path118" />
        </g>
        <path
           d="m 133.936,144.924 h 3.809 v 3.809 h -3.809 z"
           style="fill:#ffffff;fill-opacity:1;fill-rule:nonzero;stroke:none"
           id="path120" />
        <path
           d="m 317.638,246.672 h -3.809 v -3.809 h 3.809 z"
           style="fill:#ffffff;fill-opacity:1;fill-rule:nonzero;stroke:none"
           id="path122" />
        <path
           d="m 355.19,247.665 h -3.809 v -3.809 h 3.809 z"
           style="fill:#ffffff;fill-opacity:1;fill-rule:nonzero;stroke:none"
           id="path124" />
        <g
           id="g126"
           transform="translate(84.1761,144.3458)">
          <path
             d="M 0,0 -1.035,-2.774 -3.809,-3.818 -1.035,-4.845 0,-7.618 l 1.035,2.773 2.774,1.027 -2.774,1.044 z"
             style="fill:#ffffff;fill-opacity:1;fill-rule:nonzero;stroke:none"
             id="path128" />
        </g>
        <g
           id="g130"
           transform="translate(125.4736,140.8414)">
          <path
             d="M 0,0 -1.035,-2.774 -3.809,-3.818 -1.035,-4.845 0,-7.618 l 1.035,2.773 2.774,1.027 -2.774,1.044 z"
             style="fill:#ffffff;fill-opacity:1;fill-rule:nonzero;stroke:none"
             id="path132" />
        </g>
        <g
           id="g134"
           transform="translate(195.9919,153.0181)">
          <path
             d="M 0,0 1.121,2.358 -1.237,1.237 -2.112,3.696 -2.986,1.237 -5.344,2.358 -4.223,0 l -2.46,-0.875 2.46,-0.874 -1.121,-2.358 2.358,1.121 0.874,-2.46 0.875,2.46 L 1.121,-4.107 0,-1.749 2.46,-0.875 Z"
             style="fill:#ffffff;fill-opacity:1;fill-rule:nonzero;stroke:none"
             id="path136" />
        </g>
        <g
           id="g138"
           transform="translate(152.3575,142.4778)">
          <path
             d="M 0,0 1.121,2.358 -1.237,1.237 -2.112,3.696 -2.986,1.237 -5.344,2.358 -4.223,0 l -2.46,-0.875 2.46,-0.874 -1.121,-2.358 2.358,1.121 0.874,-2.46 0.875,2.46 L 1.121,-4.107 0,-1.749 2.46,-0.875 Z"
             style="fill:#ffffff;fill-opacity:1;fill-rule:nonzero;stroke:none"
             id="path140" />
        </g>
        <g
           id="g142"
           transform="translate(163.4209,205.706)">
          <path
             d="m 0,0 -4.099,1.458 1.868,3.929 -3.93,-1.868 -1.457,4.099 -1.458,-4.099 -3.929,1.868 1.867,-3.929 -4.099,-1.458 4.099,-1.458 -1.867,-3.929 3.929,1.868 1.458,-4.099 1.457,4.099 3.93,-1.868 -1.868,3.929 z"
             style="fill:#ffffff;fill-opacity:1;fill-rule:nonzero;stroke:none"
             id="path144" />
        </g>
        <g
           id="g146"
           transform="translate(87.9126,200.8899)">
          <path
             d="M 0,0 0.934,1.965 -1.031,1.031 -1.76,3.08 -2.488,1.031 -4.453,1.965 -3.519,0 l -2.05,-0.729 2.05,-0.729 -0.934,-1.964 1.965,0.934 0.728,-2.05 0.729,2.05 L 0.934,-3.422 0,-1.458 2.05,-0.729 Z"
             style="fill:#ffffff;fill-opacity:1;fill-rule:nonzero;stroke:none"
             id="path148" />
        </g>
        <g
           id="g150"
           transform="translate(281.4769,169.8887)">
          <path
             d="M 0,0 1.121,2.358 -1.237,1.237 -2.112,3.696 -2.986,1.237 -5.344,2.358 -4.223,0 l -2.46,-0.875 2.46,-0.874 -1.121,-2.358 2.358,1.121 0.874,-2.46 0.875,2.46 L 1.121,-4.107 0,-1.749 2.459,-0.875 Z"
             style="fill:#ffffff;fill-opacity:1;fill-rule:nonzero;stroke:none"
             id="path152" />
        </g>
        <g
           id="g154"
           transform="translate(345.0465,185.8347)">
          <path
             d="M 0,0 1.121,2.358 -1.237,1.237 -2.112,3.696 -2.986,1.237 -5.344,2.358 -4.223,0 l -2.46,-0.875 2.46,-0.874 -1.121,-2.358 2.358,1.121 0.874,-2.46 0.875,2.46 L 1.121,-4.107 0,-1.749 2.459,-0.875 Z"
             style="fill:#ffffff;fill-opacity:1;fill-rule:nonzero;stroke:none"
             id="path156" />
        </g>
        <g
           id="g158"
           transform="translate(405.4025,186.2305)">
          <path
             d="M 0,0 1.401,2.947 -1.546,1.546 -2.639,4.62 -3.733,1.546 -6.68,2.947 -5.279,0 l -3.074,-1.093 3.074,-1.094 -1.401,-2.947 2.947,1.401 1.094,-3.074 1.093,3.074 2.947,-1.4 L 0,-2.187 3.074,-1.093 Z"
             style="fill:#ffffff;fill-opacity:1;fill-rule:nonzero;stroke:none"
             id="path160" />
        </g>
        <g
           id="g162"
           transform="translate(318.324,174.2321)">
          <path
             d="M 0,0 -2.354,4.77 -4.708,0 l -5.265,-0.765 3.81,-3.713 -0.9,-5.243 4.709,2.476 4.708,-2.476 -0.899,5.243 3.809,3.713 z"
             style="fill:#ffffff;fill-opacity:1;fill-rule:nonzero;stroke:none"
             id="path164" />
        </g>
        <path
           d="m 329.665,173.889 h 3.809 v 3.809 h -3.809 z"
           style="fill:#ffffff;fill-opacity:1;fill-rule:nonzero;stroke:none"
           id="path166" />
        <g
           id="g168"
           transform="translate(360.1864,185.7981)">
          <path
             d="m 0,0 -1.553,-4.161 -4.161,-1.566 4.161,-1.54 1.553,-4.161 1.553,4.161 4.161,1.54 -4.161,1.566 z"
             style="fill:#ffffff;fill-opacity:1;fill-rule:nonzero;stroke:none"
             id="path170" />
        </g>
        <g
           id="g172"
           transform="translate(415.4206,199.1392)">
          <path
             d="M 0,0 -1.035,-2.774 -3.809,-3.818 -1.035,-4.845 0,-7.618 l 1.035,2.773 2.774,1.027 -2.774,1.044 z"
             style="fill:#ffffff;fill-opacity:1;fill-rule:nonzero;stroke:none"
             id="path174" />
        </g>
        <g
           id="g176"
           transform="translate(295.8546,181.208)">
          <path
             d="M 0,0 -1.242,-3.328 -4.571,-4.582 -1.242,-5.814 0,-9.142 l 1.243,3.328 3.328,1.232 -3.328,1.254 z"
             style="fill:#ffffff;fill-opacity:1;fill-rule:nonzero;stroke:none"
             id="path178" />
        </g>
        <g
           id="g180"
           transform="translate(239.4401,163.0668)">
          <path
             d="m 0,0 -2.071,-5.547 -5.547,-2.09 5.547,-2.052 2.071,-5.548 2.071,5.548 5.547,2.052 -5.547,2.09 z"
             style="fill:#ffffff;fill-opacity:1;fill-rule:nonzero;stroke:none"
             id="path182" />
        </g>
        <path
           d="m 257.618,161.062 h 3.809 v 3.809 h -3.809 z"
           style="fill:#ffffff;fill-opacity:1;fill-rule:nonzero;stroke:none"
           id="path184" />
        <path
           d="m 211.124,153.643 h 3.809 v 3.809 h -3.809 z"
           style="fill:#ffffff;fill-opacity:1;fill-rule:nonzero;stroke:none"
           id="path186" />
        <path
           d="m 212.724,228.675 h -3.809 v -3.809 h 3.809 z"
           style="fill:#ffffff;fill-opacity:1;fill-rule:nonzero;stroke:none"
           id="path188" />
        <g
           id="g190"
           transform="translate(309.5935,227.309)">
          <path
             d="M 0,0 -0.934,-1.965 1.031,-1.031 1.76,-3.08 2.488,-1.031 4.453,-1.965 3.519,0 5.569,0.729 3.519,1.458 4.453,3.422 2.488,2.488 1.76,4.538 1.031,2.488 -0.934,3.422 0,1.458 -2.05,0.729 Z"
             style="fill:#ffffff;fill-opacity:1;fill-rule:nonzero;stroke:none"
             id="path192" />
        </g>
        <g
           id="g194"
           transform="translate(269.0698,237.4649)">
          <path
             d="M 0,0 -1.401,-2.947 1.546,-1.546 2.639,-4.62 3.733,-1.546 6.68,-2.947 5.279,0 8.353,1.093 5.279,2.187 6.68,5.134 3.733,3.733 2.639,6.807 1.546,3.733 -1.401,5.134 0,2.187 -3.074,1.093 Z"
             style="fill:#ffffff;fill-opacity:1;fill-rule:nonzero;stroke:none"
             id="path196" />
        </g>
        <g
           id="g198"
           transform="translate(231.6549,220.6987)">
          <path
             d="M 0,0 -0.934,-1.965 1.031,-1.031 1.76,-3.08 2.488,-1.031 4.453,-1.965 3.519,0 5.569,0.729 3.519,1.458 4.453,3.422 2.488,2.488 1.76,4.538 1.031,2.488 -0.934,3.422 0,1.458 -2.05,0.729 Z"
             style="fill:#ffffff;fill-opacity:1;fill-rule:nonzero;stroke:none"
             id="path200" />
        </g>
        <g
           id="g202"
           transform="translate(383.411,250.1544)">
          <path
             d="M 0,0 -3.929,-1.868 -5.387,2.231 -6.845,-1.868 -10.774,0 l 1.868,-3.929 -4.099,-1.458 4.099,-1.458 -1.868,-3.929 3.929,1.868 1.458,-4.099 1.458,4.099 3.929,-1.868 -1.868,3.929 4.099,1.458 -4.099,1.458 z"
             style="fill:#ffffff;fill-opacity:1;fill-rule:nonzero;stroke:none"
             id="path204" />
        </g>
        <g
           id="g206"
           transform="translate(250.6832,238.5582)">
          <path
             d="M 0,0 -1.413,-2.862 -4.571,-3.321 -2.286,-5.549 -2.825,-8.695 0,-7.209 2.825,-8.695 2.285,-5.549 4.571,-3.321 1.413,-2.862 Z"
             style="fill:#ffffff;fill-opacity:1;fill-rule:nonzero;stroke:none"
             id="path208" />
        </g>
        <g
           id="g210"
           transform="translate(295.5832,236.5608)">
          <path
             d="M 0,0 -1.413,-2.862 -4.571,-3.321 -2.286,-5.549 -2.825,-8.695 0,-7.209 2.825,-8.695 2.285,-5.549 4.571,-3.321 1.413,-2.862 Z"
             style="fill:#ffffff;fill-opacity:1;fill-rule:nonzero;stroke:none"
             id="path212" />
        </g>
        <g
           id="g214"
           transform="translate(226.5763,167.5433)">
          <path
             d="M 0,0 -1.177,2.385 -2.354,0 l -2.632,-0.382 1.904,-1.857 -0.449,-2.621 2.354,1.237 2.354,-1.237 -0.449,2.621 1.904,1.857 z"
             style="fill:#ffffff;fill-opacity:1;fill-rule:nonzero;stroke:none"
             id="path216" />
        </g>
        <g
           id="g218"
           transform="translate(332.7465,236.1731)">
          <path
             d="M 0,0 -1.177,2.385 -2.354,0 l -2.632,-0.382 1.904,-1.857 -0.449,-2.621 2.354,1.237 2.354,-1.237 -0.45,2.621 1.905,1.857 z"
             style="fill:#ffffff;fill-opacity:1;fill-rule:nonzero;stroke:none"
             id="path220" />
        </g>
        <path
           d="m 402.547,236.84 h -3.809 v -3.809 h 3.809 z"
           style="fill:#ffffff;fill-opacity:1;fill-rule:nonzero;stroke:none"
           id="path222" />
        <path
           d="m 430.042,191.831 h 3.809 v 3.809 h -3.809 z"
           style="fill:#ffffff;fill-opacity:1;fill-rule:nonzero;stroke:none"
           id="path224" />
        <path
           d="m 390.168,173.862 h 3.809 v 3.809 h -3.809 z"
           style="fill:#ffffff;fill-opacity:1;fill-rule:nonzero;stroke:none"
           id="path226" />
        <g
           id="g228"
           transform="translate(188.8534,216.1165)">
          <path
             d="M 0,0 2.857,2.785 -1.091,3.358 -2.857,6.936 -4.623,3.358 -8.571,2.785 -5.714,0 l -0.674,-3.932 3.531,1.856 3.531,-1.856 z"
             style="fill:#ffffff;fill-opacity:1;fill-rule:nonzero;stroke:none"
             id="path230" />
        </g>
        <g
           id="g232"
           transform="translate(107.6494,216.517)">
          <path
             d="M 0,0 2.095,2.042 -0.8,2.463 -2.095,5.086 -3.39,2.463 -6.285,2.042 -4.19,0 l -0.495,-2.884 2.59,1.362 2.59,-1.362 z"
             style="fill:#ffffff;fill-opacity:1;fill-rule:nonzero;stroke:none"
             id="path234" />
        </g>
        <g
           id="g236"
           transform="translate(109.3726,130.8934)">
          <path
             d="M 0,0 -2.354,4.77 -4.708,0 l -5.265,-0.765 3.81,-3.713 -0.9,-5.243 4.709,2.476 4.708,-2.476 -0.899,5.243 3.809,3.713 z"
             style="fill:#ffffff;fill-opacity:1;fill-rule:nonzero;stroke:none"
             id="path238" />
        </g>
        <path
           d="m 141.848,219.347 h 3.809 v 3.809 h -3.809 z"
           style="fill:#ffffff;fill-opacity:1;fill-rule:nonzero;stroke:none"
           id="path240" />
        <path
           d="m 112.213,200.314 h 3.809 v 3.809 h -3.809 z"
           style="fill:#ffffff;fill-opacity:1;fill-rule:nonzero;stroke:none"
           id="path242" />
        <path
           d="M 83.259,172.057 H 79.45 v -3.809 h 3.809 z"
           style="fill:#ffffff;fill-opacity:1;fill-rule:nonzero;stroke:none"
           id="path244" />
        <path
           d="m 266.64,254.29 h -3.809 v -3.809 h 3.809 z"
           style="fill:#ffffff;fill-opacity:1;fill-rule:nonzero;stroke:none"
           id="path246" />
        <g
           id="g248"
           transform="translate(470.708,122.8073)">
          <path
             d="m 0,0 c 0,0.841 -0.061,1.689 -0.157,2.546 -0.447,3.997 -1.636,7.555 -3.533,10.671 1.53,1.069 2.537,2.826 2.537,4.824 v 43.261 c 0,0.873 -0.142,1.753 -0.505,2.548 -1.088,2.387 -3.524,3.719 -5.97,3.468 l -7.531,-0.733 C -36.344,64.524 -56.628,60.08 -63.321,42.49 c -9.794,3.752 -22.075,3.808 -35.156,0.084 l -2.746,-0.782 c -5.09,7.406 -12.463,10.398 -21.942,8.894 -8.633,-1.367 -14.879,-5.73 -19.036,-13.312 l -27.09,-4.292 v 1.739 c 0,0.582 -0.068,1.168 -0.245,1.722 -0.907,2.836 -3.564,4.414 -6.23,4.154 l -7.532,-0.732 c -19.469,-1.896 -38.086,-6.036 -44.171,-22.524 -6.558,2.445 -14.207,3.254 -22.525,2.373 v 0.004 c 0,0.683 -0.09,1.373 -0.335,2.011 -1.083,2.814 -3.833,4.244 -6.491,3.82 l -46.445,-7.356 c -2.884,-0.458 -4.978,-2.91 -4.978,-5.831 v -3.75 c -9.798,3.473 -21.689,3.221 -34.189,-0.822 l -4.751,-1.538 c -2.436,-0.789 -4.086,-3.057 -4.086,-5.617 v -5.368 l -26.133,-4.139 V 1.726 c 0,0.876 -0.146,1.758 -0.514,2.554 -1.099,2.383 -3.523,3.685 -5.961,3.447 l -7.532,-0.734 c -25.214,-2.454 -48.768,-8.379 -50.373,-34.881 -0.037,-0.594 -0.057,-1.183 -0.065,-1.768 -0.001,-0.034 10e-4,-4.28 0,-4.314 -0.11,-6.638 1.601,-12.692 4.964,-17.849 -2.201,-0.875 -3.741,-3.01 -3.741,-5.47 v -31.939 c 0,-1.637 0.688,-3.215 1.888,-4.329 1.093,-1.013 2.537,-1.575 4.017,-1.575 0.145,0 0.29,0.006 0.436,0.017 l 7.495,0.557 c 15.013,1.115 30.109,3.207 40.044,10.497 h 0.001 c 6.956,-6.011 16.047,-8.181 27.02,-6.445 8.389,1.328 15.132,4.964 20.068,10.814 l 23.289,3.687 c 2.885,0.458 4.978,2.91 4.978,5.831 v 12.358 c 1.078,0.306 2.126,0.645 3.145,1.016 v -3.06 c 0,-1.18 0.287,-2.361 0.934,-3.347 1.325,-2.017 3.63,-2.992 5.892,-2.633 l 29.859,4.729 -0.001,-3.652 c 0,-1.179 0.287,-2.359 0.934,-3.344 1.325,-2.017 3.63,-2.994 5.893,-2.633 l 23.067,3.653 c 0.541,0.086 1.055,0.242 1.532,0.459 1.248,-0.891 2.806,-1.271 4.354,-1.026 l 30.453,4.824 c 2.149,0.34 3.931,1.827 4.649,3.881 0.191,0.545 0.292,1.106 0.319,1.666 0.003,0.034 -0.001,4.281 0,4.314 0.017,0.253 0.015,0.506 -0.001,0.757 7.832,1.265 15.494,3.404 21.461,7.527 v -6.496 c 0,-0.921 0.165,-1.847 0.569,-2.674 1.202,-2.458 3.769,-3.678 6.248,-3.288 l 24.482,3.836 c 2.892,0.452 4.991,2.905 4.991,5.832 V -40 l 16.974,2.461 c 1.158,0.168 2.207,0.676 3.047,1.417 1.246,-1.829 3.464,-2.858 5.794,-2.497 l 9.044,1.422 v -2.339 c 0,-1.182 0.278,-2.368 0.918,-3.361 1.313,-2.039 3.636,-3.026 5.908,-2.664 l 23.068,3.653 c 0.541,0.086 1.054,0.242 1.532,0.459 1.248,-0.892 2.805,-1.272 4.353,-1.026 l 30.454,4.824 c 2.149,0.34 3.93,1.827 4.649,3.881 0.026,0.077 0.052,0.155 0.075,0.232 11.252,1.613 23.956,4.886 31.324,13.768 3.694,4.451 5.56,9.753 5.468,15.456 C 0,-4.28 0,-0.08 0,0"
             style="fill:#ffffff;fill-opacity:1;fill-rule:nonzero;stroke:none"
             id="path250" />
        </g>
        <g
           id="g252"
           transform="translate(466.672,124.9188)">
          <path
             d="m 0,0 c -0.906,8.096 -5.174,13.931 -13.008,17.766 1.101,0.09 2.294,0.171 3.587,0.239 l 6.505,0.342 c 1.063,0.056 1.895,0.933 1.895,1.997 v 38.987 c 0,1.181 -1.018,2.105 -2.193,1.991 l -7.531,-0.733 c -24.716,-2.405 -42.146,-7.862 -46.088,-25.621 -9.39,5.094 -22.422,5.761 -36.539,1.741 l -5.594,-1.594 c -3.35,6.166 -8.966,11.281 -19.553,9.604 -9.166,-1.452 -14.043,-6.588 -17.072,-13.001 L -169.158,26.4 v 6.31 c 0,1.181 -1.018,2.105 -2.194,1.991 l -7.532,-0.733 c -22.687,-2.209 -38.627,-7.294 -42.025,-24.036 -7.709,4.083 -17.822,5.224 -28.952,3.282 v 4.492 c 0,1.23 -1.099,2.168 -2.313,1.976 l -46.443,-7.356 c -0.971,-0.154 -1.687,-0.992 -1.687,-1.976 V 0.555 c -9.648,5.464 -22.87,6.045 -36.889,1.509 l -4.753,-1.538 c -0.825,-0.267 -1.384,-1.035 -1.384,-1.903 v -8.701 l -33.94,-5.376 v 15.193 c 0,1.181 -1.018,2.105 -2.193,1.991 l -7.532,-0.733 c -27.149,-2.643 -45.506,-8.968 -46.855,-31.235 -0.671,-10.95 4.047,-19.982 13.229,-25.837 -1.551,-0.209 -3.027,-0.401 -4.332,-0.569 l -5.988,-0.772 c -0.997,-0.129 -1.744,-0.978 -1.744,-1.984 v -27.526 c 0,-1.163 0.989,-2.081 2.149,-1.994 l 7.495,0.557 c 15.949,1.185 31.779,3.483 40.556,11.868 0.76,-0.863 1.574,-1.665 2.44,-2.405 6.034,-5.155 14.03,-6.985 23.748,-5.448 7.986,1.265 14.187,4.803 18.577,10.577 l 24.778,3.925 c 0.972,0.154 1.687,0.991 1.687,1.975 v 15.403 c 4.125,0.895 7.789,2.251 10.951,4.033 v -9.271 c 0,-1.23 1.099,-2.168 2.313,-1.976 l 34.372,5.444 v -8.369 c 0,-1.229 1.099,-2.167 2.313,-1.975 l 23.065,3.654 c 0.972,0.154 1.687,0.991 1.687,1.975 v 0.663 l 2.426,-2.596 c 0.454,-0.485 1.119,-0.714 1.775,-0.61 l 30.452,4.824 c 1.574,0.249 2.239,2.149 1.163,3.325 l -5.6,6.125 c 13.871,1.293 27.051,3.995 33.914,12.268 0.538,0.648 1.027,1.32 1.465,2.013 v -16.068 c 0,-1.228 1.096,-2.166 2.31,-1.976 l 24.483,3.836 c 0.973,0.153 1.69,0.991 1.69,1.976 v 10.854 l 20.315,2.945 c 0.884,0.128 1.575,0.827 1.695,1.712 l 0.694,5.133 c 0.11,0.816 0.313,1.881 0.59,3.288 l 1.558,0.246 c 0.263,-1.207 0.519,-2.426 0.71,-3.397 l 1.278,-6.479 c 0.208,-1.054 1.212,-1.756 2.273,-1.589 l 13.553,2.131 v -7.099 c 0,-1.229 1.099,-2.168 2.313,-1.975 l 23.066,3.653 c 0.971,0.154 1.687,0.992 1.687,1.976 v 0.663 l 2.426,-2.596 c 0.454,-0.486 1.118,-0.714 1.774,-0.61 l 30.453,4.823 c 1.574,0.25 2.238,2.149 1.163,3.325 l -0.268,0.294 c 13.598,1.6 26.045,4.805 32.76,12.899 C -0.912,-10.729 0.621,-5.551 0,0"
             style="fill:#000000;fill-opacity:1;fill-rule:nonzero;stroke:none"
             id="path254" />
        </g>
      </g>
    </g>
    <g
       id="g256">
      <g
         id="g258">
        <g
           id="g264">
          <g
             id="g266">
            <path
               d="m 417.921,153.729 c -0.677,-11.043 5.957,-17.838 16.675,-21.277 v 0 c 6.13,-1.913 10.066,-2.714 10.308,-5.007 v 0 c 0.547,-4.918 -11.62,-6.541 -25.801,-8.37 v 0 -14.095 c 11.838,0.881 40.549,2.96 38.758,18.953 v 0 c -0.634,5.669 -3.675,9.066 -9.891,11.589 v 0 c -3.24,1.321 -8.6,3.499 -10.413,4.236 v 0 c -4.173,1.697 -4.341,5.551 -1.45,7.687 v 0 c 2.711,2.022 9.102,3.724 20.679,4.333 v 0 24.906 c -32.081,-3.123 -38.143,-11.034 -38.865,-22.955 m -68.381,7.151 c -6.356,-1.006 -9.971,-4.054 -13.003,-15.448 v 0 c -2.979,-11.192 -6.249,-27.112 -8.896,-45.375 v 0 l 10.473,1.52 c 0.194,1.445 0.544,3.133 1.051,5.705 v 0 c 0.545,2.588 1.966,4.364 4.789,4.811 v 0 c 2.324,0.368 6.649,1.053 8.175,1.295 v 0 c 2.187,0.347 4.186,-1.529 4.887,-4.5 v 0 c 0.467,-1.98 1.071,-4.769 1.44,-6.644 v 0 l 13.899,2.184 c -1.693,13.73 -5.45,30.257 -9.051,42.315 v 0 c -3.17,10.623 -5.81,14.356 -11.254,14.356 v 0 c -0.777,0 -1.61,-0.076 -2.51,-0.219 m -7.767,-37.026 c 0.195,2.243 1.207,6.959 1.597,8.566 v 0 c 0.817,3.328 2.531,4.859 4.496,5.008 v 0 c 3.174,0.276 4.712,-2.152 5.937,-8.081 v 0 c 0.118,-0.553 0.449,-1.765 0.585,-3.371 v 0 c 0.272,-3.271 -0.738,-3.915 -3.193,-4.304 v 0 l -6.911,-1.095 c -0.168,-0.026 -0.33,-0.039 -0.484,-0.039 v 0 c -1.433,-10e-4 -2.22,1.15 -2.027,3.316 M 375.728,153.1 V 95.531 l 9.333,1.477 v 13.289 c 0,2.257 1.662,1.744 3.196,0.263 v 0 c 1.078,-1.042 7.558,-7.789 12.085,-12.631 v 0 l 14.248,2.256 c 0,0 -12.421,13.589 -13.855,14.948 v 0 c 8.345,2.515 14.786,10.177 14.799,19.294 v 0 c 0,13.806 -10.196,20.96 -24.608,20.96 v 0 c -4.689,0.001 -9.822,-0.756 -15.198,-2.287 m 9.346,-28.437 v 3.983 c 0,2.872 0.558,5.323 3.119,5.949 v 0 c 7.438,1.817 12.618,-1.764 12.618,-6.799 v 0 c 0,-4.704 -3.601,-7.664 -10.347,-8.76 v 0 c -0.374,-0.061 -0.73,-0.091 -1.067,-0.091 v 0 c -2.789,0 -4.323,2.042 -4.323,5.718 m -131.063,4.941 c -0.604,-9.843 5.308,-15.898 14.86,-18.962 v 0 c 5.464,-1.707 8.972,-2.42 9.188,-4.464 v 0 c 0.487,-4.383 -10.357,-5.829 -22.996,-7.46 v 0 -12.561 c 10.55,0.784 36.139,2.637 34.544,16.891 v 0 c -0.566,5.053 -3.276,8.08 -8.817,10.329 v 0 c -2.886,1.177 -7.663,3.119 -9.279,3.775 v 0 c -3.72,1.512 -3.87,4.947 -1.293,6.852 v 0 c 2.416,1.801 8.112,3.318 18.43,3.861 v 0 22.197 c -28.592,-2.783 -33.995,-9.834 -34.637,-20.458 m 38.405,11.932 V 118.94 l 6.55,1.038 c 3.972,0.629 5.613,-0.007 5.613,-7.038 v 0 -29.004 l 10.751,1.684 v 26.606 c 0,11.818 1.11,14.721 6.96,15.647 v 0 l 5.351,0.848 v 18.394 z M 175.234,129.405 V 75.252 l 32.659,5.172 v 9.022 c -4.295,-0.815 -13.143,-1.835 -17.039,-2.212 v 0 c -4.745,-0.451 -5.42,5.641 -0.174,6.992 v 0 c 3.013,0.768 8.537,1.683 12.849,2.583 v 0 l -0.017,6.945 c -3.932,-0.511 -9.23,-1.045 -13.42,-1.33 v 0 c -5.195,-0.369 -6.095,6.502 -0.208,8.292 v 0 c 3.723,1.132 11.515,2.663 18.06,3.608 v 0 20.262 z m 36.685,-1.483 V 70.351 l 9.333,1.479 v 13.288 c 0,2.258 1.661,1.744 3.195,0.263 v 0 c 1.079,-1.042 7.559,-7.788 12.086,-12.631 v 0 l 14.248,2.257 c 0,0 -12.422,13.588 -13.855,14.948 v 0 c 8.344,2.515 14.786,10.176 14.799,19.293 v 0 c 0,13.807 -10.197,20.96 -24.609,20.961 v 0 c -4.689,0 -9.821,-0.757 -15.197,-2.287 m 9.346,-28.437 v 3.982 c 0,2.872 0.558,5.323 3.119,5.95 v 0 c 7.438,1.817 12.617,-1.765 12.617,-6.799 v 0 c 0,-4.705 -3.6,-7.665 -10.347,-8.761 v 0 c -0.373,-0.061 -0.729,-0.091 -1.066,-0.091 v 0 c -2.79,0 -4.323,2.041 -4.323,5.719 m -89.058,19.063 V 60.64 l 14.344,2.272 v 13.601 c 0,2.486 0.618,3.678 2.102,3.832 v 0 c 13.367,1.394 22.888,7.412 22.888,21.201 v 0 c 0,11.488 -9.363,19.627 -23.955,19.627 v 0 c -4.642,0 -9.812,-0.824 -15.379,-2.625 m 14.33,-28.255 v 9.246 c 0,2.612 1.443,4.154 4.314,4.317 v 0 c 5.756,0.325 8.353,-3.229 8.353,-7.612 v 0 c 0,-3.654 -2.158,-7.922 -7.859,-8.91 v 0 c -0.543,-0.092 -1.045,-0.139 -1.503,-0.139 v 0 c -2.117,0 -3.305,0.998 -3.305,3.098 M 41.672,94.137 C 40.994,83.093 47.629,76.299 58.347,72.86 v 0 c 6.13,-1.914 10.066,-2.714 10.308,-5.007 v 0 c 0.547,-4.919 -11.62,-6.54 -25.801,-8.37 v 0 -14.095 c 11.837,0.88 40.548,2.959 38.758,18.953 v 0 c -0.634,5.669 -3.676,9.067 -9.892,11.588 v 0 c -3.239,1.322 -8.599,3.501 -10.412,4.238 v 0 c -4.173,1.695 -4.342,5.55 -1.451,7.687 v 0 c 2.711,2.02 9.103,3.723 20.679,4.331 v 0 24.907 C 48.455,113.969 42.394,106.058 41.672,94.137 m 73.845,10.488 c 0,0 0.013,-23.848 -0.345,-31.766 v 0 C 114.637,61.041 102.408,59.071 101.498,70.875 v 0 c -0.585,7.617 -0.771,29.967 -0.771,29.967 v 0 L 84.935,98.341 V 75.804 c 0,-24.176 11.81,-28.415 24.054,-26.476 v 0 c 13.441,2.13 19.046,12.896 19.046,32.338 v 0 24.942 z"
               style="fill:url(#linearGradient290);stroke:none"
               id="path292" />
          </g>
        </g>
      </g>
    </g>
    <g
       id="g294">
      <g
         id="g296"
         clip-path="url(#clipPath300)">
        <g
           id="g302"
           transform="translate(386.1079,233.0865)">
          <path
             d="M 0,0 C -0.031,-29.969 -1.091,-27.617 -12.029,-5.593 L -16.84,-6.355 V -52.46 l 5.77,0.919 c 0.134,20.697 0.181,20.783 11.258,3.708 l 6.834,1.082 V 1.112 Z"
             style="fill:#7c4503;fill-opacity:1;fill-rule:nonzero;stroke:none"
             id="path304" />
        </g>
        <g
           id="g306"
           transform="translate(350.2858,185.743)">
          <path
             d="M 0,0 15.614,2.473 V 13.831 C 15.133,13.755 14.693,13.69 14.258,13.625 v 0.022 8.461 0.007 c 0.432,0.073 0.879,0.147 1.356,0.223 V 39.077 L 0,36.592 Z"
             style="fill:#7c4503;fill-opacity:1;fill-rule:nonzero;stroke:none"
             id="path308" />
        </g>
        <g
           id="g310"
           transform="translate(341.3491,229.7186)">
          <path
             d="m 0,0 c -2.095,-12.469 -4.434,-20.251 -5.476,-20.418 -1.611,-0.257 -3.801,8.346 -5.203,16.799 l -5.165,-0.818 v -5 c 2.089,-14.746 5.026,-23.191 7.823,-28.423 l 6.779,1.074 c 3.459,7.674 5.68,16.392 8.427,32.924 v 5 z"
             style="fill:#7c4503;fill-opacity:1;fill-rule:nonzero;stroke:none"
             id="path312" />
        </g>
        <g
           id="g314"
           transform="translate(316.9341,200.0004)">
          <path
             d="m 0,0 c -1.01,-0.16 -1.726,-0.271 -2.22,-0.249 0.646,2.137 1.444,2.87 2.178,2.987 C 0.929,2.893 1.517,2.519 2.185,0.445 1.692,0.274 0.985,0.157 0,0 m 0.273,21.261 c -3.099,-0.495 -4.459,-2.874 -11.687,-35.844 v -5 l 5.662,0.896 c 1.615,7.272 1.762,8.219 5.669,8.842 4.121,0.656 4.261,0.072 6.029,-6.989 l 7.88,1.248 v 5 C 5.878,20.895 4.07,21.863 0.273,21.261"
             style="fill:#7c4503;fill-opacity:1;fill-rule:nonzero;stroke:none"
             id="path316" />
        </g>
        <g
           id="g318"
           transform="translate(288.7914,183.7983)">
          <path
             d="M 0,0 15.614,2.473 V 13.831 C 15.133,13.755 14.693,13.69 14.258,13.625 v 0.022 8.461 0.007 c 0.432,0.073 0.879,0.147 1.356,0.223 V 39.077 L 0,36.592 Z"
             style="fill:#7c4503;fill-opacity:1;fill-rule:nonzero;stroke:none"
             id="path320" />
        </g>
        <g
           id="g322"
           transform="translate(275.7458,214.3017)">
          <path
             d="m 0,0 c 0,-2.919 -2.159,-5.628 -4.815,-6.048 -2.66,-0.422 -4.815,1.599 -4.815,4.52 v 9.876 l -6.347,-1.005 v -53.288 l 8.735,1.383 v 15.766 c 0,3.012 2.227,5.812 4.965,6.245 2.75,0.436 4.97,-1.654 4.97,-4.662 v -11.549 l 6.426,1.018 V 16.963 L 0,15.519 Z"
             style="fill:#7c4503;fill-opacity:1;fill-rule:nonzero;stroke:none"
             id="path324" />
        </g>
        <g
           id="g326"
           transform="translate(231.4003,196.1187)">
          <path
             d="m 0,0 c -1.013,-0.162 -2.831,0.523 -8.84,15.228 l -6.473,-1.025 v -40.571 l 6.025,0.955 c 0,10.244 0.167,13.948 0.721,14.035 0.784,0.125 1.875,-1.268 5.358,-9.819 l 3.236,0.513 c 3.67,9.519 5.248,12.284 5.819,12.374 0.821,0.13 0.984,-5.101 0.984,-16.396 l 6.028,0.955 V 20.527 L 8.896,19.899 C 2.355,1.639 1.243,0.198 0,0"
             style="fill:#7c7601;fill-opacity:1;fill-rule:nonzero;stroke:none"
             id="path328" />
        </g>
        <g
           id="g330"
           transform="translate(205.2153,190.8416)">
          <path
             d="m 0,0 c 0,-2.172 -1.603,-4.193 -3.579,-4.506 -1.983,-0.314 -3.585,1.194 -3.585,3.364 V 6.89 l -5.445,-0.862 v -38.704 l 7.222,1.143 v 8.825 c 0,2.239 1.651,4.322 3.696,4.645 2.044,0.324 3.7,-1.23 3.7,-3.469 v -6.981 l 5.5,0.872 V 12.936 L 0,11.747 Z"
             style="fill:#7c7601;fill-opacity:1;fill-rule:nonzero;stroke:none"
             id="path332" />
        </g>
        <g
           id="g334"
           transform="translate(169.4006,185.6288)">
          <path
             d="m 0,0 3.735,0.592 c 3.26,0.516 4.061,-0.279 4.061,-3.286 v -23.52 l 6.043,0.957 V 0.815 c 0,2.174 0.802,4.062 4.061,4.581 l 3.864,0.612 v 12.41 L 0,14.971 Z"
             style="fill:#7c7601;fill-opacity:1;fill-rule:nonzero;stroke:none"
             id="path336" />
        </g>
        <g
           id="g338"
           transform="translate(161.5552,184.778)">
          <path
             d="m 0,0 c 0,-5.591 -1.555,-7.827 -3.467,-8.13 -1.912,-0.302 -3.462,1.263 -3.462,5.447 V 4.659 L -14.44,3.47 V -7.75 c 0,-10.503 3.282,-13.478 7.958,-13.009 -1.083,-0.51 -2.232,-0.885 -3.41,-1.072 l -4.548,-0.72 v -14.532 l 3.582,0.567 c 8.789,1.392 16.302,8.039 16.302,23.805 V 10.344 L 0,9.482 Z"
             style="fill:#7c7601;fill-opacity:1;fill-rule:nonzero;stroke:none"
             id="path340" />
        </g>
        <g
           id="g342"
           transform="translate(136.2465,185.6592)">
          <path
             d="M 0,0 C 0,-2.173 -1.604,-4.189 -3.582,-4.502 -5.56,-4.815 -7.163,-3.313 -7.163,-1.14 V 6.894 L -12.61,6.031 v -40.556 l 7.223,1.144 v 10.67 c 0,2.244 1.655,4.325 3.696,4.648 2.041,0.324 3.699,-1.228 3.699,-3.471 v -6.979 l 5.498,0.871 V 12.941 L 0,11.752 Z"
             style="fill:#7c7601;fill-opacity:1;fill-rule:nonzero;stroke:none"
             id="path344" />
        </g>
        <g
           id="g346"
           transform="translate(103.6862,177.6547)">
          <path
             d="m 0,0 c 3.091,-0.491 5.02,-2.349 5.734,-4.926 -0.69,-2.786 -2.519,-5.262 -5.656,-6.816 -3.661,-1.814 -4.254,-0.375 -4.347,5.02 C -4.173,-1.17 -3.548,0.564 0,0 m -11.438,19.11 v -58.028 l 7.152,1.132 v 5 c 0,1.581 -0.009,2.976 -0.019,4.212 0.037,1.285 0.134,1.971 0.362,2.083 0.545,0.266 2.007,-2.997 8.023,-11.734 l 12.007,1.901 v 5 l -7.165,11.192 c 5.285,4.806 8.028,12.009 7.932,18.738 0,0.033 0.001,4.867 0,4.9 -0.12,11.849 -9.018,22.269 -28.292,15.604"
             style="fill:#7c7601;fill-opacity:1;fill-rule:nonzero;stroke:none"
             id="path348" />
        </g>
        <g
           id="g350"
           transform="translate(386.1079,233.0865)">
          <path
             d="M 0,0 C -0.031,-29.969 -1.091,-27.617 -12.029,-5.593 L -16.84,-6.355 V -47.46 l 5.77,0.919 c 0.134,20.697 0.181,20.783 11.258,3.708 l 6.834,1.082 V 1.112 Z"
             style="fill:#fe9502;fill-opacity:1;fill-rule:nonzero;stroke:none"
             id="path352" />
        </g>
        <g
           id="g354"
           transform="translate(365.9002,213.0806)">
          <path
             d="M 0,0 V 11.739 L -15.614,9.255 V -22.338 L 0,-19.865 v 6.359 c -9.669,-1.532 -9.669,-0.58 -9.669,0.529 0,1.107 0.014,2.071 8.323,3.39 v 5.326 c -8.305,-1.318 -8.323,-0.132 -8.323,1.051 0,1.181 1.22,1.872 9.669,3.21"
             style="fill:#fe9502;fill-opacity:1;fill-rule:nonzero;stroke:none"
             id="path356" />
        </g>
        <g
           id="g358"
           transform="translate(341.3491,229.7186)">
          <path
             d="m 0,0 c -2.095,-12.469 -4.434,-20.251 -5.475,-20.418 -1.612,-0.257 -3.802,8.346 -5.204,16.799 l -5.165,-0.818 c 2.089,-14.746 5.026,-23.191 7.823,-28.423 l 6.779,1.074 c 3.459,7.674 5.68,16.392 8.427,32.924 z"
             style="fill:#fe9502;fill-opacity:1;fill-rule:nonzero;stroke:none"
             id="path360" />
        </g>
        <g
           id="g362"
           transform="translate(316.9341,200.0004)">
          <path
             d="m 0,0 c -3.577,-0.568 -3.575,-0.569 -2.417,4.056 0.675,2.693 1.565,3.553 2.375,3.682 C 1.022,7.907 1.625,7.468 2.379,4.819 3.587,0.573 3.584,0.572 0,0 m 0.273,21.261 c -3.099,-0.495 -4.459,-2.874 -11.687,-35.844 l 5.662,0.896 c 1.615,7.272 1.762,8.219 5.669,8.842 4.121,0.656 4.261,0.072 6.029,-6.989 l 7.88,1.248 C 5.878,20.895 4.07,21.863 0.273,21.261"
             style="fill:#fe9502;fill-opacity:1;fill-rule:nonzero;stroke:none"
             id="path364" />
        </g>
        <g
           id="g366"
           transform="translate(304.4058,211.1359)">
          <path
             d="M 0,0 V 11.739 L -15.614,9.255 V -22.338 L 0,-19.865 v 6.359 c -9.669,-1.532 -9.669,-0.58 -9.669,0.529 0,1.107 0.004,2.066 8.313,3.386 v 5.561 c -8.305,-1.318 -8.31,-0.601 -8.31,0.581 0,1.181 1.217,2.111 9.666,3.449"
             style="fill:#fe9502;fill-opacity:1;fill-rule:nonzero;stroke:none"
             id="path368" />
        </g>
        <g
           id="g370"
           transform="translate(275.7458,229.8208)">
          <path
             d="m 0,0 v -15.519 c 0,-2.919 -2.159,-5.628 -4.815,-6.048 -2.66,-0.422 -4.815,1.599 -4.815,4.52 v 9.876 l -6.347,-1.005 v -48.288 l 8.735,1.383 v 15.766 c 0,3.012 2.227,5.811 4.965,6.245 2.75,0.436 4.97,-1.654 4.97,-4.662 v -11.549 l 6.426,1.018 V 1.444 Z"
             style="fill:#fe9502;fill-opacity:1;fill-rule:nonzero;stroke:none"
             id="path372" />
        </g>
        <g
           id="g374"
           transform="translate(240.2965,216.0178)">
          <path
             d="m 0,0 c -6.542,-18.26 -7.653,-19.701 -8.896,-19.899 -1.014,-0.162 -2.832,0.522 -8.84,15.228 l -6.473,-1.026 v -35.57 l 6.025,0.955 c 0,10.243 0.166,13.947 0.721,14.035 0.784,0.125 1.875,-1.269 5.358,-9.819 l 3.235,0.513 c 3.671,9.519 5.249,12.284 5.82,12.374 0.821,0.13 0.984,-5.101 0.984,-16.396 l 6.028,0.955 V 0.627 Z"
             style="fill:#fefa01;fill-opacity:1;fill-rule:nonzero;stroke:none"
             id="path376" />
        </g>
        <g
           id="g378"
           transform="translate(205.2153,202.5883)">
          <path
             d="m 0,0 v -11.747 c 0,-2.171 -1.603,-4.193 -3.579,-4.506 -1.983,-0.314 -3.586,1.194 -3.586,3.365 v 8.031 l -5.444,-0.862 v -33.704 l 7.222,1.144 v 8.824 c 0,2.239 1.651,4.322 3.696,4.646 2.044,0.323 3.7,-1.231 3.7,-3.47 v -6.98 l 5.5,0.871 V 1.189 Z"
             style="fill:#fefa01;fill-opacity:1;fill-rule:nonzero;stroke:none"
             id="path380" />
        </g>
        <g
           id="g382"
           transform="translate(169.4006,200.5993)">
          <path
             d="m 0,0 v -9.971 l 3.735,0.592 c 3.26,0.516 4.061,-0.279 4.061,-3.286 v -23.52 l 6.043,0.957 v 26.072 c 0,2.175 0.801,4.063 4.061,4.581 l 3.864,0.612 v 7.41 z"
             style="fill:#fefa01;fill-opacity:1;fill-rule:nonzero;stroke:none"
             id="path384" />
        </g>
        <g
           id="g386"
           transform="translate(161.5553,194.2599)">
          <path
             d="m 0,0 v -9.482 c 0,-5.591 -1.555,-7.827 -3.467,-8.13 -1.912,-0.302 -3.462,1.263 -3.462,5.447 v 7.342 l -7.511,-1.189 v -6.22 c 0,-10.961 3.57,-13.733 8.574,-12.938 2.221,0.353 4.729,1.501 6.307,3.537 -0.432,-4.5 -5.133,-8.856 -10.333,-9.68 l -4.548,-0.72 v -9.532 l 3.582,0.567 c 8.789,1.392 16.302,8.039 16.302,23.805 V 0.862 Z"
             style="fill:#fefa01;fill-opacity:1;fill-rule:nonzero;stroke:none"
             id="path388" />
        </g>
        <g
           id="g390"
           transform="translate(136.2465,197.411)">
          <path
             d="m 0,0 v -11.752 c 0,-2.173 -1.604,-4.189 -3.582,-4.502 -1.978,-0.313 -3.581,1.189 -3.581,3.362 v 8.034 l -5.447,-0.863 v -35.556 l 7.223,1.144 v 10.67 c 0,2.244 1.655,4.325 3.696,4.649 2.041,0.323 3.699,-1.229 3.699,-3.471 v -6.979 l 5.499,0.871 V 1.189 Z"
             style="fill:#fefa01;fill-opacity:1;fill-rule:nonzero;stroke:none"
             id="path392" />
        </g>
        <g
           id="g394"
           transform="translate(103.7636,165.9126)">
          <path
             d="m 0,0 c -4.208,-2.085 -4.364,0.122 -4.364,7.704 0,7.397 0.284,9.674 4.286,9.038 C 3.901,16.11 5.981,13.23 5.981,9.44 5.981,5.626 4.097,2.03 0,0 m -11.515,30.853 v -53.029 l 7.151,1.132 c 0,7.473 -0.208,11.025 0.344,11.295 0.544,0.266 2.006,-2.997 8.022,-11.734 l 12.007,1.901 -9.278,14.494 C 23.786,6.887 20.038,41.763 -11.515,30.853"
             style="fill:#fefa01;fill-opacity:1;fill-rule:nonzero;stroke:none"
             id="path396" />
        </g>
      </g>
    </g>
  </g>
</svg>
