<?xml version="1.0" encoding="UTF-8" standalone="no"?>
<!-- Created with Inkscape (http://www.inkscape.org/) -->

<svg
   version="1.1"
   id="svg2"
   width="666.66669"
   height="268.70667"
   viewBox="0 0 666.66669 268.70667"
   sodipodi:docname="Rhythm Tengoku Breakdown (リズム天国 ブレイクダウン) Logo.ai"
   xmlns:inkscape="http://www.inkscape.org/namespaces/inkscape"
   xmlns:sodipodi="http://sodipodi.sourceforge.net/DTD/sodipodi-0.dtd"
   xmlns="http://www.w3.org/2000/svg"
   xmlns:svg="http://www.w3.org/2000/svg">
  <defs
     id="defs6">
    <clipPath
       clipPathUnits="userSpaceOnUse"
       id="clipPath16">
      <path
         d="M 0,201.53 H 500 V 0 H 0 Z"
         id="path14" />
    </clipPath>
  </defs>
  <sodipodi:namedview
     id="namedview4"
     pagecolor="#ffffff"
     bordercolor="#000000"
     borderopacity="0.25"
     inkscape:showpageshadow="2"
     inkscape:pageopacity="0.0"
     inkscape:pagecheckerboard="0"
     inkscape:deskcolor="#d1d1d1" />
  <g
     id="g8"
     inkscape:groupmode="layer"
     inkscape:label="Rhythm Tengoku Breakdown (リズム天国 ブレイクダウン) Logo"
     transform="matrix(1.3333333,0,0,-1.3333333,0,268.70667)">
    <g
       id="g10">
      <g
         id="g12"
         clip-path="url(#clipPath16)">
        <g
           id="g18"
           transform="translate(441.6227,132.7069)">
          <path
             d="m 0,0 c -2.04,0 -4.071,-0.107 -6.087,-0.318 0.663,3.507 1.007,7.1 1.018,10.744 0.078,32.114 -26.049,58.308 -58.244,58.393 -0.051,0 -0.101,0 -0.151,0 -18.687,0 -35.754,-8.665 -46.654,-23.187 -5.706,1.825 -11.7,2.777 -17.731,2.793 -0.052,0 -0.105,0 -0.157,0 -5.726,0 -11.435,-0.849 -16.897,-2.492 -10.897,14.278 -27.841,22.839 -46.273,22.886 -0.05,0 -0.1,0 -0.151,0 -18.653,0 -35.709,-8.649 -46.618,-23.139 -0.217,0.069 -0.434,0.136 -0.652,0.203 -11.438,3.486 -23.403,3.395 -34.583,-0.146 -10.885,14.407 -27.878,23.039 -46.437,23.086 -0.045,0 -0.09,0 -0.135,0 -32.136,0 -58.321,-26.035 -58.4,-58.098 -0.01,-3.748 0.333,-7.443 1.013,-11.045 -2.021,0.212 -4.06,0.32 -6.106,0.32 -32.19,0 -58.378,-26.13 -58.378,-58.248 0,-32.118 26.188,-58.248 58.378,-58.248 5.416,0 10.718,0.73 15.846,2.177 10.952,-11.643 26.306,-18.388 42.567,-18.388 17.932,0 34.833,8.405 45.785,22.144 7.942,-3.869 16.733,-5.933 25.635,-5.933 4.63,0 9.195,0.539 13.645,1.609 10.925,-11.279 26.097,-17.82 42.003,-17.82 18.473,0 35.592,8.728 46.483,23.02 8.37,-4.441 17.759,-6.809 27.377,-6.809 4.81,0 9.541,0.578 14.142,1.725 10.931,-11.354 26.14,-17.936 42.117,-17.936 17.468,0 33.791,7.782 44.765,20.859 7.184,-3.06 14.936,-4.648 22.88,-4.648 32.189,0 58.377,26.13 58.377,58.248 C 58.377,-26.13 32.189,0 0,0"
             style="fill:#00b3f0;fill-opacity:1;fill-rule:nonzero;stroke:none"
             id="path20" />
        </g>
        <g
           id="g22"
           transform="translate(441.6227,125.7094)">
          <path
             d="m 0,0 c -5.542,0 -11.013,-0.898 -16.202,-2.62 2.693,6.259 4.115,13.054 4.135,20.061 0.069,28.256 -22.927,51.304 -51.264,51.378 h -0.133 c -18.206,0 -34.663,-9.342 -43.949,-24.673 -6.415,2.79 -13.405,4.26 -20.455,4.279 -0.046,0 -0.092,0 -0.139,0 -6.725,0 -13.425,-1.33 -19.612,-3.873 -9.314,15.024 -25.645,24.221 -43.574,24.267 h -0.133 c -18.17,0 -34.617,-9.319 -43.916,-24.613 -1.756,0.757 -3.559,1.419 -5.394,1.981 -11.725,3.572 -24.08,2.875 -35.241,-1.914 -9.283,15.202 -25.676,24.504 -43.755,24.55 h -0.12 c -28.283,0 -51.333,-22.909 -51.402,-51.119 -0.019,-7.106 1.403,-13.991 4.129,-20.328 -5.194,1.724 -10.669,2.624 -16.22,2.624 -28.331,0 -51.38,-22.991 -51.38,-51.25 0,-28.26 23.049,-51.251 51.38,-51.251 6.243,0 12.311,1.101 18.09,3.279 9.717,-12.266 24.534,-19.49 40.323,-19.49 18.081,0 34.396,9.189 43.716,24.299 8.256,-5.307 17.735,-8.088 27.704,-8.088 5.453,0 10.802,0.85 15.945,2.529 9.722,-11.793 24.322,-18.74 39.703,-18.74 18.403,0 35.277,9.837 44.407,25.478 8.598,-6.008 18.867,-9.267 29.453,-9.267 5.636,0 11.148,0.901 16.43,2.683 9.722,-11.89 24.367,-18.894 39.829,-18.894 17.212,0 33.16,8.582 42.656,22.676 7.618,-4.243 16.168,-6.465 24.989,-6.465 28.331,0 51.38,22.991 51.38,51.251 C 51.38,-22.991 28.331,0 0,0"
             style="fill:#ffffff;fill-opacity:1;fill-rule:nonzero;stroke:none"
             id="path24" />
        </g>
        <g
           id="g26"
           transform="translate(441.6226,121.2567)">
          <path
             d="m 0,0 c -11.507,0 -22.042,-4.135 -30.204,-10.99 8.425,8.435 13.648,20.053 13.684,32.895 0.064,25.845 -20.897,46.846 -46.822,46.913 -18.503,0.047 -34.532,-10.587 -42.212,-26.077 -6.631,3.605 -14.236,5.662 -22.326,5.683 -7.782,0.022 -15.128,-1.85 -21.599,-5.177 -7.744,15.14 -23.51,25.525 -41.726,25.571 -18.473,0.047 -34.476,-10.553 -42.178,-25.997 -2.677,1.438 -5.532,2.635 -8.551,3.559 -12.396,3.777 -25.177,2.167 -35.801,-3.479 -7.68,15.326 -23.548,25.875 -41.908,25.921 -25.925,0.059 -46.995,-20.828 -47.058,-46.677 -0.034,-12.976 5.237,-24.73 13.775,-33.229 C -361.104,-4.171 -371.685,0 -383.245,0 c -25.917,0 -46.927,-20.952 -46.927,-46.798 0,-25.845 21.01,-46.797 46.927,-46.797 6.999,0 13.635,1.539 19.601,4.279 8.446,-12.367 22.676,-20.491 38.812,-20.491 18.575,0 34.627,10.765 42.232,26.379 8.013,-6.358 18.151,-10.167 29.188,-10.167 6.182,0 12.079,1.204 17.485,3.37 8.513,-11.851 22.429,-19.582 38.163,-19.582 19.152,0 35.613,11.448 42.907,27.851 8.263,-7.24 19.09,-11.639 30.953,-11.639 6.364,0 12.428,1.269 17.962,3.558 8.501,-11.958 22.48,-19.77 38.297,-19.77 17.764,0 33.219,9.845 41.187,24.36 7.534,-5.138 16.642,-8.148 26.458,-8.148 25.917,0 46.927,20.952 46.927,46.797 C 46.927,-20.952 25.917,0 0,0"
             style="fill:#130c0e;fill-opacity:1;fill-rule:nonzero;stroke:none"
             id="path28" />
        </g>
        <g
           id="g30"
           transform="translate(461.746,91.7846)">
          <path
             d="m 0,0 c -5.497,-17.98 -14.524,-32.009 -35.997,-32.009 l -2.838,-9.282 c 37.996,0 49.693,24.545 54.813,41.291 z m -16.269,-6.384 -2.595,-8.486 c 0,0 -11.316,8.297 -24.158,6.983 l 3.255,10.648 c 15.248,1.918 23.498,-9.145 23.498,-9.145"
             style="fill:#f15a22;fill-opacity:1;fill-rule:nonzero;stroke:none"
             id="path32" />
        </g>
        <g
           id="g34"
           transform="translate(409.3619,69.1556)">
          <path
             d="m 0,0 h -19.08 l 1.486,4.863 c 0.396,1.292 1.855,2.333 3.256,2.33 h 3.193 l 1.668,5.456 h -22.369 l -1.668,-5.456 h 3.193 c 1.402,-0.003 2.223,-1.047 1.831,-2.33 L -29.977,0 h -19.45 l -6.516,-21.315 h 12.954 l 1.538,5.032 h -1.683 c -1.537,0 -1.816,0.9 -1.386,2.306 l 1.909,6.243 h 27.712 c -4.479,-15.213 -13.313,-22.539 -39.858,-22.539 h -3.913 l -2.336,-7.639 H -46.82 C -22.309,-37.912 -5.376,-26.828 0,0"
             style="fill:#faa61a;fill-opacity:1;fill-rule:nonzero;stroke:none"
             id="path36" />
        </g>
        <g
           id="g38"
           transform="translate(323.2633,88.4053)">
          <path
             d="M 0,0 1.621,5.304 H -14.661 L -16.283,0 h 2.807 c 0.976,0 1.464,-0.736 1.109,-1.897 -1.898,-6.21 -5.88,-11.084 -15.778,-11.084 l -2.335,-7.636 c 15.743,0 22.981,6.6 26.625,12.883 h 16.434 c -0.771,-2.619 -1.766,-4.999 -3.01,-7.153 -4.889,2.493 -11.437,1.427 -11.437,1.427 l -2.102,-6.875 c 0,0 4.428,0.063 6.628,-2.312 -6.929,-5.118 -17.407,-7.626 -32.923,-7.626 h -3.167 l -2.335,-7.639 h 13.439 c 24.512,0 44.43,11.084 49.805,37.912 z m 27.652,9.275 c -2.024,-0.01 -3.603,-1.631 -3.619,-3.609 0.01,-2.025 1.631,-3.604 3.609,-3.619 2.025,0.009 3.64,1.62 3.619,3.609 0.027,2.014 -1.62,3.639 -3.609,3.619 M 15.17,5.666 c 0.015,1.978 1.605,3.635 3.619,3.609 1.978,-0.016 3.588,-1.63 3.609,-3.619 -0.016,-1.978 -1.595,-3.6 -3.619,-3.609 -1.978,0.015 -3.589,1.63 -3.609,3.619"
             style="fill:#f15a22;fill-opacity:1;fill-rule:nonzero;stroke:none"
             id="path40" />
        </g>
        <g
           id="g42"
           transform="translate(252.3215,69.1556)">
          <path
             d="M 0,0 1.621,5.304 H -14.661 L -16.283,0 h 2.807 c 0.976,0 1.464,-0.736 1.109,-1.897 -1.898,-6.21 -5.88,-11.084 -15.778,-11.084 l -2.335,-7.636 c 15.743,0 22.981,6.6 26.625,12.883 H 12.579 C 8.099,-22.947 -3.72,-30.273 -30.265,-30.273 h -3.167 l -2.335,-7.639 h 13.439 c 24.512,0 44.43,11.084 49.805,37.912 z"
             style="fill:#faa61a;fill-opacity:1;fill-rule:nonzero;stroke:none"
             id="path44" />
        </g>
        <g
           id="g46"
           transform="translate(217.9848,85.274)">
          <path
             d="M 0,0 3.651,12.302 H -4.135 L -4.721,10.328 C -4.933,9.613 -5.477,8.956 -7.21,8.371 l -42.26,-11.596 -4.26,-14.353 h 7.786 l 1.171,3.947 c 0.233,0.783 0.894,1.474 2.521,1.96 l 8.212,2.268 -6.078,-20.476 c -0.429,-1.447 -2.031,-2.624 -3.581,-2.624 h -1.198 l -1.752,-5.906 h 21.986 l 1.753,5.906 h -2.127 c -1.04,0 -1.639,0.787 -1.354,1.748 l 7.586,25.561 z"
             style="fill:#f15a22;fill-opacity:1;fill-rule:nonzero;stroke:none"
             id="path48" />
        </g>
        <g
           id="g50"
           transform="translate(148.943,56.1419)">
          <path
             d="m 0,0 c -6.883,-11.98 -16.055,-24.896 -44.786,-24.896 h -9.259 l 14.426,47.187 h 20.414 l -1.953,-6.39 h -1.827 c -1.808,0 -3.615,-1.143 -4.05,-2.564 L -36.12,-16.381 C -24.264,-14.377 -18.582,0 -18.582,0 Z"
             style="fill:#faa61a;fill-opacity:1;fill-rule:nonzero;stroke:none"
             id="path52" />
        </g>
        <g
           id="g54"
           transform="translate(88.9437,97.6875)">
          <path
             d="m 0,0 c -2.024,-0.009 -3.604,-1.631 -3.619,-3.609 0.01,-2.024 1.631,-3.604 3.609,-3.619 2.025,0.01 3.639,1.62 3.619,3.609 C 3.635,-1.605 1.989,0.02 0,0 m -8.874,-7.228 c 2.025,0.01 3.604,1.631 3.619,3.609 -0.02,1.989 -1.631,3.604 -3.609,3.619 -2.013,0.026 -3.603,-1.631 -3.619,-3.609 0.021,-1.989 1.631,-3.604 3.609,-3.619 m -42.955,-2.049 h 49.557 l -2.115,-6.917 h -1.384 c -1.166,0 -2.935,-1.701 -3.822,-3.599 -5.378,-11.507 -15.294,-27.393 -48.228,-27.393 h -5.598 l 2.197,7.187 c 24.059,0.414 32.427,6.868 37.78,22.955 h -30.762 z"
             style="fill:#f15a22;fill-opacity:1;fill-rule:nonzero;stroke:none"
             id="path56" />
        </g>
        <g
           id="g58"
           transform="translate(398.1935,160.0125)">
          <path
             d="m 0,0 h -28.101 c -1.509,0.005 -2.703,-0.955 -3.187,-2.54 l -8.959,-29.302 h 28.101 c 1.395,-0.008 2.668,0.842 3.187,2.54 z M 13.045,5.605 -0.113,-37.433 h -53.17 L -40.125,5.605 Z M -15.68,-23.613 h 3.191 l 1.259,4.118 h -3.191 z m -11.244,18.095 1.033,3.376 h 19.966 l -1.032,-3.376 h -3.486 c -1.489,0 -2.57,-0.78 -3.108,-2.54 l -1.696,-5.546 h 5.818 l -1.108,-3.624 h -5.818 l -2.082,-6.809 c -0.327,-1.072 0.337,-1.843 2.15,-1.843 h 3.105 l -1.026,-3.354 h -19.966 l 1.025,3.354 h 3.525 c 1.44,0 2.541,0.811 3.072,2.547 l 1.866,6.105 h -5.818 l 1.108,3.624 h 5.818 l 1.911,6.251 c 0.222,0.725 0.084,1.835 -2.113,1.835 z"
             style="fill:#f15a22;fill-opacity:1;fill-rule:nonzero;stroke:none"
             id="path60" />
        </g>
        <g
           id="g62"
           transform="translate(397.7116,168.3539)">
          <path
             d="m 0,0 c -1.268,1.034 -2.621,1.945 -4.039,2.763 -0.762,0.441 -1.439,0.836 -1.439,1.437 0,0.46 0.471,0.93 1.448,1.738 1.898,1.569 2.151,1.785 2.809,2.443 L -0.216,7.676 C -1.541,6.511 -1.747,6.351 -3.58,4.952 -4.039,4.604 -4.228,4.454 -4.228,4.256 c 0,-0.235 0.423,-0.469 0.696,-0.62 C -2.151,2.885 0.076,1.513 0.93,0.78 Z"
             style="fill:#f15a22;fill-opacity:1;fill-rule:nonzero;stroke:none"
             id="path64" />
        </g>
        <g
           id="g66"
           transform="translate(376.9704,173.0478)">
          <path
             d="m 0,0 c -0.334,0.601 -0.525,0.888 -0.897,1.355 l 0.668,0.391 C 0.152,1.307 0.467,0.811 0.667,0.401 Z m -1.174,-0.572 c -0.429,0.83 -0.735,1.211 -0.887,1.412 l 0.649,0.391 C -0.916,0.63 -0.592,0 -0.506,-0.172 Z m 0.735,2.738 C -1.641,1.956 -2.491,1.555 -3.597,0.878 l -0.687,0.677 c 0.305,0.21 0.372,0.248 0.992,0.554 C -5.257,2.08 -6.078,2.061 -6.689,2.023 v 1.078 c 0.287,-0.01 1.47,-0.01 1.947,-0.01 0.678,0 3.692,0.01 4.303,0.01 z m -4.733,-2.643 c -0.8,-0.773 -0.839,-1.469 -0.839,-1.669 0,-1.241 1.832,-1.26 3.263,-1.26 0.935,0 1.87,0.038 2.795,0.172 l 0.038,-1.069 c -0.334,-0.047 -1.001,-0.133 -2.48,-0.133 -1.879,0 -2.69,0.086 -3.501,0.477 -0.659,0.314 -1.165,1.04 -1.165,1.794 0,0.877 0.42,1.478 1.117,2.261 z"
             style="fill:#f15a22;fill-opacity:1;fill-rule:nonzero;stroke:none"
             id="path68" />
        </g>
        <g
           id="g70"
           transform="translate(342.7904,136.7881)">
          <path
             d="M 0,0 2.299,7.518 H -51.193 L -53.491,0 h 19.481 l -2.063,-6.749 h -19.482 l -2.304,-7.536 h 19.481 l -0.852,-2.787 c -2.728,-8.925 -8.639,-11.066 -16.622,-11.071 h -6.244 l -2.309,-7.554 h 13.597 c 10.442,-0.005 14.844,2.351 21.392,10.229 1.824,-1.461 6.329,-6.906 7.815,-10.229 h 14.063 c -2.55,5.422 -14.68,14.772 -18.128,16.612 0.692,1.906 1.494,4.8 1.494,4.8 h 19.805 l 2.304,7.536 H -21.867 L -19.804,0 Z"
             style="fill:#faa61a;fill-opacity:1;fill-rule:nonzero;stroke:none"
             id="path72" />
        </g>
        <g
           id="g74"
           transform="translate(329.0299,154.8977)">
          <path
             d="m 0,0 c -0.189,-0.566 -1.056,-3.028 -1.217,-3.537 0.208,0.151 0.576,0.415 1.217,0.415 1.518,0 1.556,-1.462 1.556,-2.142 v -0.405 c 0,-0.274 0,-1.132 0.802,-1.132 0.755,0 1.245,0.792 1.443,2.867 L 4.792,-4.226 C 4.537,-6.452 3.971,-7.839 2.236,-7.839 c -0.774,0 -1.377,0.472 -1.585,1.028 -0.132,0.349 -0.16,0.915 -0.16,1.123 v 0.321 c 0,0.603 0,1.216 -0.708,1.216 -1.066,0 -1.603,-1.15 -1.802,-1.679 -0.019,-0.047 -0.49,-1.849 -0.556,-2.103 l -1.085,0.311 c 0.736,2.226 2.056,6.499 2.472,7.839 z"
             style="fill:#faa61a;fill-opacity:1;fill-rule:nonzero;stroke:none"
             id="path76" />
        </g>
        <g
           id="g78"
           transform="translate(311.5607,153.7553)">
          <path
             d="m 0,0 c -0.194,0.018 -0.406,0.037 -0.803,0.037 -0.829,0 -1.392,-0.222 -1.825,-0.433 -1.309,-0.655 -2.481,-1.919 -2.481,-3.163 0,-1.402 1.614,-1.9 4.27,-1.817 l -0.148,-1.097 c -1.983,0.009 -2.969,0.239 -3.809,0.673 -0.829,0.424 -1.373,1.3 -1.373,2.158 0,0.949 0.488,2.388 2.545,3.642 -1.439,-0.083 -2.868,-0.194 -4.297,-0.313 l -0.037,1.051 c 0.636,0 1.328,0.036 1.964,0.064 0.793,0.037 5.025,0.203 5.975,0.24 z"
             style="fill:#faa61a;fill-opacity:1;fill-rule:nonzero;stroke:none"
             id="path80" />
        </g>
        <g
           id="g82"
           transform="translate(274.7853,130.1521)">
          <path
             d="m 0,0 h -2.126 c -1.392,-0.004 -2.676,0.803 -3.206,2.526 l -2.431,7.908 H -21.856 L -18.666,0 h -17.381 l 19.241,28.526 c 0.841,1.247 1.852,1.88 2.975,1.888 h 3.537 l 1.6,5.234 H -26.052 L -48.899,1.777 C -49.784,0.465 -50.862,0 -51.857,0 h -2.152 l -2.314,-7.566 H 2.313 Z"
             style="fill:#f15a22;fill-opacity:1;fill-rule:nonzero;stroke:none"
             id="path84" />
        </g>
        <g
           id="g86"
           transform="translate(158.9768,131.2684)">
          <path
             d="M 0,0 H 31.397 C 24.777,-17.513 13.772,-22.538 -3.805,-22.538 h -3.086 l -2.335,-7.637 h 9.295 c 12.031,0 18.331,1.607 27.262,7.613 1.426,-1.325 3.031,-3.995 3.297,-7.613 h 14.149 c -1.137,2.793 -7.443,9.835 -11.748,11.798 7.311,6.302 9.51,11.002 11.86,16.2 0.842,1.883 2.083,2.61 3.236,2.61 h 2.142 l 2.232,7.301 H 2.365 Z m 45.32,9.783 c 2.025,0.01 3.604,1.631 3.619,3.609 -0.02,1.989 -1.631,3.604 -3.609,3.619 -2.014,0.026 -3.603,-1.631 -3.619,-3.609 0.02,-1.989 1.631,-3.603 3.609,-3.619 m 12.483,3.609 c 0.02,-1.988 -1.595,-3.599 -3.619,-3.609 -1.978,0.016 -3.599,1.595 -3.609,3.619 0.015,1.978 1.594,3.6 3.619,3.609 1.989,0.02 3.635,-1.605 3.609,-3.619"
             style="fill:#faa61a;fill-opacity:1;fill-rule:nonzero;stroke:none"
             id="path88" />
        </g>
        <g
           id="g90"
           transform="translate(134.0793,165.8788)">
          <path
             d="m 0,0 -1.721,-5.63 h 1.23 c 1.852,0 2.508,-0.808 2.184,-1.866 l -6.114,-19.997 c -1.556,-5.091 -4.717,-8.219 -9.431,-8.225 h -24.526 l -2.316,-7.574 h 34.298 c 6.936,-0.022 12.755,4.525 15.06,12.065 l 7.044,23.041 c 0.487,1.593 1.374,2.556 3.114,2.556 H 20.33 L 22.052,0 Z m -20.495,-27.266 h -19.376 l 1.718,5.619 h 1.594 c 1.716,0 2.642,1.005 3.122,2.575 l 3.539,11.574 c 0.323,1.057 -0.327,1.868 -2.182,1.868 h -1.176 L -31.535,0 h 19.376 l -1.721,-5.63 h -1.591 c -1.721,0 -2.647,-1.009 -3.123,-2.564 l -3.538,-11.574 c -0.325,-1.064 0.332,-1.879 2.182,-1.879 h 1.173 z"
             style="fill:#f15a22;fill-opacity:1;fill-rule:nonzero;stroke:none"
             id="path92" />
        </g>
      </g>
    </g>
  </g>
</svg>
