<?xml version="1.0" encoding="UTF-8" standalone="no"?>
<!-- Created with Inkscape (http://www.inkscape.org/) -->

<svg
   version="1.1"
   id="svg2"
   width="666.66669"
   height="429.12134"
   viewBox="0 0 666.66669 429.12134"
   sodipodi:docname="Rhythm Jigoku The Worst- (リズム地獄 ザ・ワースト－) Logo.ai"
   xmlns:inkscape="http://www.inkscape.org/namespaces/inkscape"
   xmlns:sodipodi="http://sodipodi.sourceforge.net/DTD/sodipodi-0.dtd"
   xmlns="http://www.w3.org/2000/svg"
   xmlns:svg="http://www.w3.org/2000/svg">
  <defs
     id="defs6">
    <clipPath
       clipPathUnits="userSpaceOnUse"
       id="clipPath16">
      <path
         d="M 0,321.841 H 500 V 0 H 0 Z"
         id="path14" />
    </clipPath>
    <linearGradient
       x1="0"
       y1="0"
       x2="1"
       y2="0"
       gradientUnits="userSpaceOnUse"
       gradientTransform="matrix(117.16836,-25.975599,-25.975599,-117.16836,364.64499,165.57335)"
       spreadMethod="pad"
       id="linearGradient58">
      <stop
         style="stop-opacity:1;stop-color:#feee04"
         offset="0"
         id="stop50" />
      <stop
         style="stop-opacity:1;stop-color:#feee04"
         offset="0.35"
         id="stop52" />
      <stop
         style="stop-opacity:1;stop-color:#fdd902"
         offset="0.65"
         id="stop54" />
      <stop
         style="stop-opacity:1;stop-color:#fdd902"
         offset="1"
         id="stop56" />
    </linearGradient>
    <radialGradient
       fx="0"
       fy="0"
       cx="0"
       cy="0"
       r="1"
       gradientUnits="userSpaceOnUse"
       gradientTransform="matrix(22.25989,0,0,-22.25989,365.784,146.37198)"
       spreadMethod="pad"
       id="radialGradient78">
      <stop
         style="stop-opacity:1;stop-color:#ffffff"
         offset="0"
         id="stop74" />
      <stop
         style="stop-opacity:1;stop-color:#feee04"
         offset="1"
         id="stop76" />
    </radialGradient>
    <radialGradient
       fx="0"
       fy="0"
       cx="0"
       cy="0"
       r="1"
       gradientUnits="userSpaceOnUse"
       gradientTransform="matrix(22.25992,0,0,-22.25992,481.07263,170.46004)"
       spreadMethod="pad"
       id="radialGradient100">
      <stop
         style="stop-opacity:1;stop-color:#fdc900"
         offset="0"
         id="stop94" />
      <stop
         style="stop-opacity:1;stop-color:#fdc900"
         offset="0.4854273"
         id="stop96" />
      <stop
         style="stop-opacity:1;stop-color:#fdd902"
         offset="1"
         id="stop98" />
    </radialGradient>
    <clipPath
       clipPathUnits="userSpaceOnUse"
       id="clipPath110">
      <path
         d="M 0,321.841 H 500 V 0 H 0 Z"
         id="path108" />
    </clipPath>
  </defs>
  <sodipodi:namedview
     id="namedview4"
     pagecolor="#ffffff"
     bordercolor="#000000"
     borderopacity="0.25"
     inkscape:showpageshadow="2"
     inkscape:pageopacity="0.0"
     inkscape:pagecheckerboard="0"
     inkscape:deskcolor="#d1d1d1" />
  <g
     id="g8"
     inkscape:groupmode="layer"
     inkscape:label="Rhythm Jigoku The Worst- (リズム地獄 ザ・ワースト－) Logo"
     transform="matrix(1.3333333,0,0,-1.3333333,0,429.12133)">
    <g
       id="g10">
      <g
         id="g12"
         clip-path="url(#clipPath16)">
        <g
           id="g18"
           transform="translate(421.3252,322.0077)">
          <path
             d="m 0,0 c -27.258,-0.238 -51.893,-14.433 -65.831,-37.089 -4.953,0.929 -9.996,1.375 -15.09,1.33 -16.753,-0.146 -32.619,-5.507 -45.792,-15.305 -12.528,7.831 -27.075,11.978 -42.063,11.847 -27.235,-0.238 -51.869,-14.426 -65.812,-37.059 -4.865,0.893 -9.816,1.321 -14.816,1.277 -16.798,-0.146 -32.693,-5.53 -45.882,-15.373 -12.586,7.922 -27.224,12.118 -42.318,11.987 -43.143,-0.377 -77.935,-35.782 -77.558,-78.924 0.154,-17.625 6.077,-34.227 16.688,-47.659 -18.047,-15.824 -26.627,-40.681 -20.979,-65.148 4.008,-17.36 14.537,-32.121 29.646,-41.562 10.903,-6.812 23.247,-10.267 35.799,-10.157 4.844,0.042 9.72,0.615 14.553,1.731 15.631,3.609 29.295,12.68 38.683,25.429 3.51,0.004 7.071,0.424 10.578,1.193 13.707,-6.715 29.178,-8.512 44.244,-5.035 15.534,3.586 29.155,12.593 38.541,25.24 3.49,0.077 6.975,0.515 10.429,1.312 0.731,0.169 1.459,0.354 2.183,0.555 13.719,-6.745 29.184,-8.558 44.281,-5.074 11.517,2.659 22.081,8.339 30.618,16.344 6.263,-1.881 12.807,-2.825 19.355,-2.768 33.998,0.296 61.78,26.671 64.483,59.928 19.398,8.445 33.66,26.034 37.984,46.705 42.828,0.675 77.274,35.915 76.899,78.816 C 78.447,-34.372 43.087,0.376 0,0"
             style="fill:#0096e6;fill-opacity:1;fill-rule:nonzero;stroke:none"
             id="path20" />
        </g>
        <g
           id="g22"
           transform="translate(421.4033,313.0577)">
          <path
             d="m 0,0 c -26.293,-0.229 -49.83,-15.128 -61.368,-38.396 -6.346,1.81 -12.901,2.695 -19.553,2.637 -16.965,-0.148 -32.899,-6.334 -45.419,-17.532 -12.163,9.243 -27.037,14.208 -42.435,14.074 -26.263,-0.229 -49.793,-15.108 -61.342,-38.341 -6.261,1.757 -12.726,2.616 -19.287,2.559 -17.015,-0.148 -32.983,-6.366 -45.517,-17.621 -12.214,9.348 -27.175,14.37 -42.683,14.235 -38.207,-0.334 -69.02,-31.689 -68.686,-69.896 0.163,-18.745 7.699,-36.185 20.943,-49.025 -20.511,-12.891 -31.063,-37.59 -25.463,-61.847 6.198,-26.844 30.289,-44.997 56.767,-44.764 4.127,0.036 8.313,0.518 12.497,1.484 15.057,3.476 28.008,12.81 36.095,25.871 4.585,-0.463 9.189,-0.17 13.737,0.88 0.839,0.193 1.688,0.419 2.542,0.675 12.542,-7.015 27.041,-9.09 41.131,-5.839 14.936,3.448 27.83,12.687 35.929,25.606 4.356,-0.368 8.727,-0.05 13.041,0.946 1.709,0.395 3.4,0.898 5.053,1.503 12.614,-7.16 27.203,-9.302 41.411,-6.022 11.709,2.703 22.28,9.014 30.208,17.955 6.864,-2.789 14.28,-4.215 21.7,-4.15 31.053,0.271 56.095,25.754 55.824,56.807 -10e-4,0.142 -0.003,0.284 -0.005,0.427 21.76,6.981 37.372,26.845 39,49.69 2.354,-0.219 4.722,-0.319 7.088,-0.298 38.152,0.333 68.92,31.642 68.587,69.795 C 69.462,-30.435 38.152,0.333 0,0"
             style="fill:#ffffff;fill-opacity:1;fill-rule:nonzero;stroke:none"
             id="path24" />
        </g>
        <g
           id="g26"
           transform="translate(421.4531,307.3)">
          <path
             d="m 0,0 c -26.452,-0.231 -48.972,-16.624 -58.29,-39.719 -7.044,2.616 -14.669,4.03 -22.63,3.961 -17.766,-0.156 -33.752,-7.608 -45.165,-19.476 -11.342,10.085 -26.318,16.16 -42.69,16.017 -26.422,-0.231 -48.923,-16.587 -58.26,-39.642 -6.971,2.554 -14.507,3.929 -22.369,3.86 -17.819,-0.155 -33.847,-7.653 -45.267,-19.584 -11.381,10.195 -26.45,16.342 -42.933,16.198 -35.088,-0.306 -63.285,-28.999 -62.979,-64.088 0.18,-20.558 10.115,-38.734 25.361,-50.213 -22.625,-9.755 -35.766,-34.553 -30.027,-59.414 6.46,-27.979 34.378,-45.425 62.358,-38.965 15.373,3.549 27.553,13.583 34.349,26.539 4.967,-1.007 10.222,-1.003 15.483,0.212 1.55,0.358 3.049,0.82 4.503,1.357 11.271,-7.015 25.213,-9.743 39.17,-6.521 15.24,3.519 27.342,13.411 34.171,26.204 4.765,-0.871 9.78,-0.811 14.799,0.348 2.399,0.554 4.686,1.336 6.848,2.31 11.349,-7.229 25.468,-10.096 39.615,-6.829 12.42,2.867 22.756,9.968 29.855,19.419 6.994,-3.553 14.913,-5.54 23.299,-5.467 27.922,0.244 50.361,23.077 50.117,51 -0.014,1.619 -0.112,3.218 -0.275,4.797 22.729,5.117 39.62,25.514 39.408,49.757 -0.006,0.751 -0.037,1.496 -0.076,2.238 4.117,-0.8 8.375,-1.204 12.732,-1.166 35.034,0.306 63.186,28.954 62.88,63.987 C 63.681,-27.846 35.033,0.306 0,0"
             style="fill:#000000;fill-opacity:1;fill-rule:nonzero;stroke:none"
             id="path28" />
        </g>
        <g
           id="g30"
           transform="translate(351.9905,168.4709)">
          <path
             d="m 0,0 -4.596,-65.723 147.073,33.955 4.595,65.723 z"
             style="fill:#000000;fill-opacity:1;fill-rule:nonzero;stroke:none"
             id="path32" />
        </g>
        <g
           id="g34"
           transform="translate(361.7575,159.6065)">
          <path
             d="m 0,0 -3.015,-43.119 125.958,29.08 3.016,43.119 z"
             style="fill:#feee04;fill-opacity:1;fill-rule:nonzero;stroke:none"
             id="path36" />
        </g>
      </g>
    </g>
    <g
       id="g38">
      <g
         id="g40">
        <g
           id="g46">
          <g
             id="g48">
            <path
               d="m 363.06,158.423 -2.804,-40.105 123.143,28.431 2.803,40.104 z"
               style="fill:url(#linearGradient58);stroke:none"
               id="path60" />
          </g>
        </g>
      </g>
    </g>
    <g
       id="g62">
      <g
         id="g64">
        <g
           id="g70">
          <g
             id="g72">
            <path
               d="m 363.06,158.423 -2.359,-33.728 c 1.694,-0.396 3.46,-0.598 5.277,-0.582 v 0 c 12.294,0.107 22.172,10.16 22.065,22.453 v 0 c -0.055,6.316 -2.736,11.995 -6.996,16.009 v 0 z"
               style="fill:url(#radialGradient78);stroke:none"
               id="path80" />
          </g>
        </g>
      </g>
    </g>
    <g
       id="g82">
      <g
         id="g84">
        <g
           id="g90">
          <g
             id="g92">
            <path
               d="m 461.549,181.161 c -1.774,-3.231 -2.77,-6.948 -2.735,-10.895 v 0 c 0.107,-12.293 10.16,-22.172 22.453,-22.065 v 0 c 0.757,0.007 1.506,0.051 2.243,0.131 v 0 l 2.692,38.521 z"
               style="fill:url(#radialGradient100);stroke:none"
               id="path102" />
          </g>
        </g>
      </g>
    </g>
    <g
       id="g104">
      <g
         id="g106"
         clip-path="url(#clipPath110)">
        <g
           id="g112"
           transform="translate(471.8853,159.1272)">
          <path
             d="m 0,0 c 3.645,4.973 4.338,8.214 5.054,11.787 0.254,1.293 0.921,1.924 1.639,2.09 l 1.333,0.307 0.34,4.865 -31.204,-7.204 -0.36,-5.153 19.542,4.511 C -5.26,-0.648 -11.388,-5.358 -22.328,-7.883 l -1.92,-0.444 -0.356,-5.088 5.785,1.336 c 7.488,1.728 11.178,3.634 15.874,8.655 1.078,-0.62 2.46,-2.051 3.146,-4.265 l 8.806,2.034 C 7.898,-4.08 2.961,-0.603 0,0"
             style="fill:#e60214;fill-opacity:1;fill-rule:nonzero;stroke:none"
             id="path114" />
        </g>
        <g
           id="g116"
           transform="translate(436.3568,161.8583)">
          <path
             d="m 0,0 0.44,6.286 -7.757,-1.791 -0.439,-6.286 -10.637,-2.455 -0.381,-5.449 10.637,2.456 -0.185,-2.64 c -0.365,-5.217 -3.322,-7.131 -7.68,-8.14 l -3.409,-0.787 -0.309,-4.415 7.424,1.714 c 7.537,1.74 10.898,6.203 11.634,12.239 0.137,1.128 0.281,3.819 0.281,3.819 l 10.813,2.497 0.381,5.448 z"
             style="fill:#e60214;fill-opacity:1;fill-rule:nonzero;stroke:none"
             id="path118" />
        </g>
        <g
           id="g120"
           transform="translate(416.4775,156.5958)">
          <path
             d="M 0,0 0.487,6.97 -3.244,6.108 -3.372,4.283 C -3.397,3.927 -3.587,3.561 -4.355,3.097 l -19.923,-10.556 -0.48,-6.872 3.34,0.772 0.109,1.56 c 0.028,0.391 0.27,0.788 0.998,1.195 l 5.006,2.662 -0.655,-9.358 c -0.05,-0.721 -0.462,-1.393 -1.205,-1.564 l -0.803,-0.186 -0.206,-2.941 10.538,2.433 0.206,2.941 -1.02,-0.235 c -0.498,-0.115 -0.87,0.185 -0.837,0.663 l 0.832,11.891 z"
             style="fill:#e60214;fill-opacity:1;fill-rule:nonzero;stroke:none"
             id="path122" />
        </g>
        <g
           id="g124"
           transform="translate(365.4955,151.6831)">
          <path
             d="m 0,0 -0.304,-4.344 16.068,3.71 c -0.431,-4.554 -1.556,-7.925 -4.162,-10.548 l -2.637,4.426 -7.612,-1.757 -0.194,-2.767 2.563,0.591 c 0.443,0.103 0.891,-0.037 1.339,-0.725 l 6.487,-10.773 6.901,1.593 0.193,2.767 -1.913,-0.441 c -0.404,-0.094 -0.817,-0.003 -1.329,0.711 l -1.348,2.261 c 6.485,4.523 8.31,10.365 9.278,14.896 0.234,1.099 0.953,2.2 1.562,2.341 l 0.723,0.167 0.27,3.868 z"
             style="fill:#e60214;fill-opacity:1;fill-rule:nonzero;stroke:none"
             id="path126" />
        </g>
        <g
           id="g128"
           transform="translate(350.0221,109.6036)">
          <path
             d="m 0,0 1.014,14.498 c -10.949,8.427 -25.865,4.847 -25.865,4.847 l 0.7,10.015 c 0.116,1.649 1.582,3.307 3.282,3.699 l 1.312,0.303 0.471,6.728 -24.102,-5.564 -0.47,-6.728 2.331,0.538 c 1.14,0.263 1.991,-0.423 1.914,-1.517 l -2.17,-31.035 c -0.115,-1.65 -1.581,-3.307 -3.281,-3.7 l -1.313,-0.303 -0.47,-6.728 24.101,5.565 0.471,6.728 -2.332,-0.539 c -1.14,-0.263 -1.99,0.423 -1.914,1.518 l 0.888,12.701 c 0,0 11.072,3.275 25.433,-11.026"
             style="fill:#feee04;fill-opacity:1;fill-rule:nonzero;stroke:none"
             id="path130" />
        </g>
        <g
           id="g132"
           transform="translate(277.5695,101.8369)">
          <path
             d="m 0,0 c 6.186,8.441 7.364,13.942 8.579,20.007 0.43,2.195 1.563,3.266 2.781,3.547 l 2.263,0.522 0.577,8.258 -52.965,-12.228 -0.611,-8.748 33.17,7.658 C -8.929,-1.1 -19.33,-9.094 -37.899,-13.381 l -3.26,-0.753 -0.604,-8.637 9.82,2.268 c 12.71,2.933 18.973,6.168 26.944,14.692 1.83,-1.053 4.176,-3.482 5.34,-7.24 l 14.948,3.452 C 13.406,-6.926 5.026,-1.024 0,0"
             style="fill:#feee04;fill-opacity:1;fill-rule:nonzero;stroke:none"
             id="path134" />
        </g>
        <g
           id="g136"
           transform="translate(198.9703,96.3691)">
          <path
             d="m 0,0 -0.67,-9.585 29.975,6.921 0.67,9.584 z"
             style="fill:#feee04;fill-opacity:1;fill-rule:nonzero;stroke:none"
             id="path138" />
        </g>
        <g
           id="g140"
           transform="translate(191.1612,110.9435)">
          <path
             d="m 0,0 -50.276,-11.607 -1.688,-24.13 13.699,3.162 0.398,5.696 -1.78,-0.411 c -1.625,-0.375 -2.139,0.509 -2.028,2.101 l 0.4,5.716 28.629,6.609 c -1.2,-17.168 -12.271,-25.54 -26.252,-28.768 l -13.699,-3.163 -0.677,-9.689 13.178,3.042 C -16.061,-45.893 2.253,-29.845 0,0"
             style="fill:#feee04;fill-opacity:1;fill-rule:nonzero;stroke:none"
             id="path142" />
        </g>
        <g
           id="g144"
           transform="translate(130.6546,83.5723)">
          <path
             d="m 0,0 -7.648,-0.649 -3.52,6.149 -3.304,-7.725 -7.613,-2.874 5.606,-4.125 -1.184,-7.926 6.768,5.176 6.881,-2.024 -1.423,7.323 z"
             style="fill:#feee04;fill-opacity:1;fill-rule:nonzero;stroke:none"
             id="path146" />
        </g>
        <g
           id="g148"
           transform="translate(108.1852,90.0966)">
          <path
             d="M 0,0 C -0.508,2.242 -2.702,3.655 -4.944,3.147 -7.186,2.64 -8.567,0.446 -8.091,-1.796 -7.583,-4.038 -5.39,-5.419 -3.147,-4.944 -0.905,-4.436 0.508,-2.242 0,0 m -25.822,-9.976 c 0.118,1.684 0.769,2.836 2.474,3.23 l 1.478,0.341 0.416,5.952 -21.607,-4.989 -0.416,-5.951 1.206,0.278 c 1.815,0.419 2.639,-0.231 2.561,-1.35 l -0.206,-2.949 -15.806,-3.649 0.155,2.212 c 0.115,1.644 0.795,2.85 2.481,3.239 l 1.559,0.36 0.416,5.952 -18.985,-4.383 -0.416,-5.952 1.152,0.266 c 1.818,0.42 2.638,-0.234 2.56,-1.352 l -0.206,-2.947 -8.811,-2.034 -1.623,-0.375 -0.442,-6.309 10.434,2.409 -0.208,-2.979 c -0.116,-1.66 -0.797,-2.863 -2.478,-3.251 l -1.562,-0.361 -0.416,-5.939 15.135,3.494 0.814,11.642 15.806,3.649 -0.831,-11.883 c -0.377,-5.381 -2.769,-9.186 -7.386,-10.258 l -24.031,-5.549 -0.56,-8.007 33.606,7.759 c 6.801,1.547 11.476,7.355 12.034,15.326 l 1.106,15.83 8.724,2.014 0.028,0.399 0.413,5.909 -8.723,-2.014 z m 16.004,7.822 c 0.508,-2.242 -0.905,-4.468 -3.148,-4.944 -2.242,-0.475 -4.435,0.906 -4.943,3.148 -0.476,2.242 0.905,4.435 3.147,4.943 2.242,0.508 4.436,-0.905 4.944,-3.147"
             style="fill:#feee04;fill-opacity:1;fill-rule:nonzero;stroke:none"
             id="path150" />
        </g>
        <g
           id="g152"
           transform="translate(414.3529,245.5417)">
          <path
             d="M 0,0 13.086,3.021 13.322,6.404 0.237,3.383 Z m -1.725,19.23 -9.382,-6.261 c 0.278,3.988 -1.351,8.645 -4.825,10.949 l -9.354,-2.16 c 4.681,-2.699 4.885,-10.065 4.524,-15.232 l -9.381,-6.26 -0.482,-6.89 9.38,6.26 -0.598,-8.533 -9.379,-6.258 -0.481,-6.89 9.378,6.258 -0.24,-3.43 c -0.614,-8.774 -3.188,-11.264 -7.379,-12.232 l -0.518,-7.414 c 4.63,-0.112 9.163,1.677 11.037,2.859 2.658,1.699 5.383,6.989 6.045,16.475 l 1.791,25.608 9.382,6.261 z M 12.415,-2.032 0.957,-4.678 c -0.616,-0.14 -1.012,-0.636 -1.059,-1.316 l -0.879,-12.564 11.458,2.645 c 0.569,0.129 1.008,0.589 1.059,1.316 z m 3.497,-14.984 -21.678,-5.005 1.29,18.453 21.679,5.005 z m 30.729,53.985 -7.064,-1.631 -1.11,-15.871 7.064,1.63 z M 13.739,12.362 0.653,9.341 0.416,5.958 13.502,8.979 Z M 14.587,24.488 1.501,21.467 1.264,18.085 14.35,21.106 Z M 34.949,-2.195 c 0,0 0.96,3.71 1.225,7.509 l 0.216,3.087 9.713,2.243 h -0.001 0.001 L 46.756,19.985 37.043,17.743 38.352,36.45 25.756,33.542 24.445,14.835 14.574,12.556 13.921,3.214 v 0 0 L 23.79,5.492 23.572,2.405 C 22.62,-11.212 19.055,-17.771 13.905,-18.96 l -9.257,-2.137 -0.731,-10.447 12.406,2.864 c 8.302,1.917 12.05,7.919 15.012,15.391 2.198,-1.712 5.913,-6.161 7.461,-10.202 l 12.431,2.869 c -4.279,8.772 -11.58,15.134 -16.278,18.427 m -18.722,17.666 -17.7,-4.087 0.236,3.383 17.701,4.086 z"
             style="fill:#ff5500;fill-opacity:1;fill-rule:nonzero;stroke:none"
             id="path154" />
        </g>
        <g
           id="g156"
           transform="translate(434.8747,286.4912)">
          <path
             d="m 0,0 c -0.364,0.126 -0.931,0.323 -0.936,0.649 -0.004,0.275 0.241,0.542 0.843,1.166 2.396,2.507 2.666,2.792 4.395,4.818 L 2.953,7.305 C 2.096,6.189 1.766,5.811 -0.713,3.049 -1.989,1.626 -2.602,0.829 -2.591,0.189 c 0.014,-0.836 0.92,-1.178 1.939,-1.559 1.899,-0.703 3.712,-1.556 5.417,-2.606 l 1.215,1.37 C 4.83,-1.849 1.847,-0.623 0,0"
             style="fill:#ff5500;fill-opacity:1;fill-rule:nonzero;stroke:none"
             id="path158" />
        </g>
        <g
           id="g160"
           transform="translate(408.5052,277.695)">
          <path
             d="m 0,0 c -1.897,-0.438 -4.325,-0.971 -4.354,0.753 -0.005,0.279 0.031,1.259 1.074,2.578 l -1.037,0.56 C -5.222,2.59 -5.765,1.626 -5.744,0.406 c 0.017,-1.049 0.704,-1.903 1.584,-2.138 1.084,-0.296 2.161,-0.167 4.651,0.408 1.96,0.452 2.843,0.776 3.284,0.944 L 3.7,1.094 C 2.477,0.626 1.239,0.286 0,0 M -0.848,7.502 C -1.664,6.888 -1.751,6.814 -2.151,6.429 l 0.927,-0.732 c 1.45,1.281 2.566,2.098 4.155,2.757 l -0.022,1.3 C 2.1,9.568 -1.895,8.632 -2.793,8.425 -3.425,8.279 -4.993,7.917 -5.373,7.842 l 0.025,-1.499 c 0.808,0.24 1.896,0.518 4.5,1.159 M 0.812,6.114 C 1.018,5.882 1.432,5.444 2.02,4.422 L 2.896,5.183 C 2.778,5.396 2.334,6.172 1.662,6.856 Z m 1.53,1.072 0.877,0.749 C 3.734,7.441 4.162,6.848 4.438,6.338 L 3.563,5.577 C 3.106,6.311 2.846,6.65 2.342,7.186"
             style="fill:#ff5500;fill-opacity:1;fill-rule:nonzero;stroke:none"
             id="path162" />
        </g>
        <g
           id="g164"
           transform="translate(316.9387,194.3042)">
          <path
             d="m 0,0 0.92,13.158 5.507,1.272 0.525,7.5 -5.507,-1.272 1.273,18.207 -10.283,-2.374 -1.273,-18.207 -5.507,-1.271 -0.525,-7.5 5.507,1.271 -0.874,-12.493 c -0.104,-1.501 -0.724,-2.589 -2.256,-2.943 l -3.422,-0.79 -0.376,-5.371 21.297,4.917 0.375,5.371 -3.046,-0.703 C 0.684,-1.61 -0.071,-1.017 0,0 M 63.755,10.145 63.314,3.841 C 62.81,-3.366 58.553,-8.626 52.355,-10.036 l -31.329,-7.232 c -6.2,-1.453 -9.85,1.981 -9.346,9.188 l 1.086,15.527 -7.124,-4.242 0.469,6.7 7.123,4.242 0.684,9.782 c 0.106,1.523 -0.358,2.321 -1.911,1.962 l -1.347,-0.311 0.376,5.382 17.69,4.084 -0.376,-5.382 -1.099,-0.253 c -1.654,-0.382 -2.513,-1.34 -2.584,-2.352 l -0.445,-6.368 9.861,5.873 1.389,19.863 10.636,2.456 -0.3,-4.294 -0.767,-0.189 c -1.738,-0.444 -2.482,-1.751 -2.616,-3.675 l -0.671,-9.593 9.57,5.699 9.105,-4.639 -0.666,-9.535 C 59.346,16.679 57.321,13.273 55.316,12.126 53.901,11.327 50.471,10.067 46.949,9.998 l 0.327,4.673 c 3.178,0.734 3.683,2.046 4.069,7.577 L 51.942,30.779 41.286,24.432 39.965,5.547 32.492,3.822 33.614,19.863 23.753,13.991 22.632,-2.04 c -0.34,-4.866 1.42,-7.401 5.626,-6.436 l 18.544,4.281 c 4.207,0.977 6.385,4.422 6.725,9.287 l 0.192,2.736 z"
             style="fill:#ffaa00;fill-opacity:1;fill-rule:nonzero;stroke:none"
             id="path166" />
        </g>
        <g
           id="g168"
           transform="translate(341.661,248.1756)">
          <path
             d="m 0,0 c -0.474,-3.521 -1.978,-4.457 -3.629,-4.838 -2.197,-0.507 -2.369,0.787 -2.405,2.896 -0.015,0.82 0.008,5.244 0.003,6.223 L -7.52,3.95 c 0.026,-0.765 0.054,-4.523 0.068,-5.37 0.051,-2.89 0.124,-5.67 3.835,-4.814 1.676,0.387 4.3,1.385 4.914,6.193 z m -0.789,2.367 c -0.423,0.699 -0.754,1.081 -1.31,1.554 L -2.959,3.186 C -2.3,2.541 -1.825,1.736 -1.684,1.507 Z m 0.677,0.47 c -0.434,0.606 -0.753,1.016 -1.285,1.52 l 0.872,0.737 C -0.159,4.8 0.298,4.356 0.746,3.636 Z"
             style="fill:#ffaa00;fill-opacity:1;fill-rule:nonzero;stroke:none"
             id="path170" />
        </g>
        <g
           id="g172"
           transform="translate(289.8226,194.856)">
          <path
             d="m 0,0 -2.804,-0.647 c -1.835,-0.429 -3.775,0.244 -4.999,2.355 l -5.616,9.692 -18.59,-4.292 7.386,-12.793 -22.929,-5.293 16.694,43.491 c 0.73,1.9 1.871,3.044 3.35,3.396 l 4.666,1.077 0.517,7.392 -22.899,-5.287 -19.823,-51.64 c -0.767,-2 -2.048,-2.941 -3.361,-3.244 l -2.839,-0.656 -0.747,-10.685 77.35,17.858 z"
             style="fill:#ff5500;fill-opacity:1;fill-rule:nonzero;stroke:none"
             id="path174" />
        </g>
        <g
           id="g176"
           transform="translate(183.5064,157.6821)">
          <path
             d="m 0,0 c 7.688,10.49 9.151,17.327 10.661,24.864 0.535,2.728 1.944,4.059 3.457,4.408 l 2.812,0.65 0.718,10.262 -65.824,-15.196 -0.76,-10.872 41.223,9.517 c -3.384,-25 -16.31,-34.935 -39.387,-40.263 l -4.052,-0.935 -0.75,-10.735 12.203,2.819 c 15.796,3.646 23.58,7.666 33.486,18.259 2.274,-1.308 5.191,-4.327 6.636,-8.997 l 18.578,4.289 C 16.661,-8.607 6.247,-1.273 0,0 m 7.602,40.698 c 2.655,0.627 4.237,3.234 3.657,5.836 C 10.63,49.139 8.026,50.771 5.424,50.191 2.772,49.615 1.187,46.958 1.766,44.356 2.396,41.751 5,40.119 7.602,40.698 m 11.638,2.687 c -2.602,-0.579 -5.21,1.003 -5.836,3.658 -0.579,2.602 1.002,5.209 3.658,5.835 2.605,0.63 5.259,-1.005 5.835,-3.657 0.63,-2.605 -1.002,-5.21 -3.657,-5.836"
             style="fill:#ffaa00;fill-opacity:1;fill-rule:nonzero;stroke:none"
             id="path178" />
        </g>
        <g
           id="g180"
           transform="translate(93.4693,199.056)">
          <path
             d="m 0,0 -0.555,-7.937 1.62,0.374 C 3.504,-7 4.613,-7.865 4.508,-9.356 L 2.537,-37.547 c -0.502,-7.176 -3.714,-12.255 -9.918,-13.696 l -32.296,-7.456 -0.747,-10.678 45.162,10.427 c 9.141,2.079 15.42,9.835 16.164,20.465 l 2.271,32.482 c 0.157,2.245 1.032,3.783 3.323,4.311 l 1.986,0.459 0.555,7.937 z m -18.698,-42.134 -25.514,-5.89 0.553,7.921 2.1,0.485 c 2.26,0.521 3.174,2.127 3.328,4.34 l 1.141,16.315 c 0.105,1.491 -0.997,2.361 -3.44,1.797 l -1.55,-0.357 0.555,7.936 25.514,5.891 -0.555,-7.937 -2.095,-0.484 c -2.265,-0.523 -3.178,-2.133 -3.332,-4.325 l -1.14,-16.316 c -0.105,-1.5 1.008,-2.374 3.444,-1.811 l 1.544,0.356 z"
             style="fill:#ff5500;fill-opacity:1;fill-rule:nonzero;stroke:none"
             id="path182" />
        </g>
      </g>
    </g>
  </g>
</svg>
