<?xml version="1.0" encoding="UTF-8" standalone="no"?>
<!-- Created with Inkscape (http://www.inkscape.org/) -->

<svg
   version="1.1"
   id="svg2"
   width="666.66669"
   height="488.80133"
   viewBox="0 0 666.66669 488.80133"
   sodipodi:docname="Rhythm of Heaven Megamix (Ритм Небес Мегамикс) Logo.ai"
   xmlns:inkscape="http://www.inkscape.org/namespaces/inkscape"
   xmlns:sodipodi="http://sodipodi.sourceforge.net/DTD/sodipodi-0.dtd"
   xmlns="http://www.w3.org/2000/svg"
   xmlns:svg="http://www.w3.org/2000/svg">
  <defs
     id="defs6">
    <clipPath
       clipPathUnits="userSpaceOnUse"
       id="clipPath16">
      <path
         d="M 0,366.601 H 500 V 0 H 0 Z"
         id="path14" />
    </clipPath>
    <linearGradient
       x1="0"
       y1="0"
       x2="1"
       y2="0"
       gradientUnits="userSpaceOnUse"
       gradientTransform="matrix(42.932228,9.9116859,0,-42.932228,451.6597,155.83119)"
       spreadMethod="pad"
       id="linearGradient52">
      <stop
         style="stop-opacity:1;stop-color:#ff8c3c"
         offset="0"
         id="stop46" />
      <stop
         style="stop-opacity:1;stop-color:#ff5a00"
         offset="0.75"
         id="stop48" />
      <stop
         style="stop-opacity:1;stop-color:#ff5a00"
         offset="1"
         id="stop50" />
    </linearGradient>
    <clipPath
       clipPathUnits="userSpaceOnUse"
       id="clipPath62">
      <path
         d="M 0,366.601 H 500 V 0 H 0 Z"
         id="path60" />
    </clipPath>
    <clipPath
       clipPathUnits="userSpaceOnUse"
       id="clipPath70">
      <path
         d="M 40.7392,217.967 H 532.1 V -112.44 H 40.7392 Z"
         id="path68" />
    </clipPath>
    <clipPath
       clipPathUnits="userSpaceOnUse"
       id="clipPath74">
      <path
         d="m 494.592,156.594 c -2.439,-3.152 -5.875,-5.583 -9.713,-6.469 -7.387,-1.706 -13.376,2.9 -13.376,10.287 0,7.388 5.989,14.759 13.376,16.464 3.838,0.886 7.274,0.042 9.713,-1.984 v 22.458 c -3.091,0.238 -6.31,0.155 -9.713,-0.63 -18.346,-4.236 -33.219,-22.543 -33.219,-40.889 0,-18.346 14.873,-29.785 33.219,-25.55 3.403,0.786 6.622,2.19 9.713,3.854 z"
         id="path72" />
    </clipPath>
    <linearGradient
       x1="0"
       y1="0"
       x2="1"
       y2="0"
       gradientUnits="userSpaceOnUse"
       gradientTransform="matrix(50.699348,11.704866,0,-50.699348,396.38275,136.21088)"
       spreadMethod="pad"
       id="linearGradient110">
      <stop
         style="stop-opacity:1;stop-color:#c8f000"
         offset="0"
         id="stop104" />
      <stop
         style="stop-opacity:1;stop-color:#14b400"
         offset="0.8"
         id="stop106" />
      <stop
         style="stop-opacity:1;stop-color:#14b400"
         offset="1"
         id="stop108" />
    </linearGradient>
    <clipPath
       clipPathUnits="userSpaceOnUse"
       id="clipPath120">
      <path
         d="M 0,366.601 H 500 V 0 H 0 Z"
         id="path118" />
    </clipPath>
    <clipPath
       clipPathUnits="userSpaceOnUse"
       id="clipPath128">
      <path
         d="M 41.5696,218.159 H 532.93 V -112.248 H 41.5696 Z"
         id="path126" />
    </clipPath>
    <clipPath
       clipPathUnits="userSpaceOnUse"
       id="clipPath132">
      <path
         d="M 416.135,133.739 V 109.71 l -19.752,-4.56 v 62.122 l 19.752,4.56 V 151.17 l 2.412,0.557 c 6.715,1.55 8.055,4.467 8.055,13.283 v 9.239 l 19.752,4.56 v -11.787 c 0,-8.975 -1.687,-13.029 -6.417,-18.048 5.396,-3.197 7.145,-7.373 7.145,-18.33 v -13.79 l -19.797,-4.57 v 12.925 c 0,11.196 -3.439,10.311 -11.15,8.53"
         id="path130" />
    </clipPath>
    <linearGradient
       x1="0"
       y1="0"
       x2="1"
       y2="0"
       gradientUnits="userSpaceOnUse"
       gradientTransform="matrix(54.319874,12.540731,0,-54.319874,335.75778,128.55664)"
       spreadMethod="pad"
       id="linearGradient166">
      <stop
         style="stop-opacity:1;stop-color:#aa37be"
         offset="0"
         id="stop162" />
      <stop
         style="stop-opacity:1;stop-color:#5f14a5"
         offset="1"
         id="stop164" />
    </linearGradient>
    <clipPath
       clipPathUnits="userSpaceOnUse"
       id="clipPath176">
      <path
         d="M 0,366.601 H 500 V 0 H 0 Z"
         id="path174" />
    </clipPath>
    <clipPath
       clipPathUnits="userSpaceOnUse"
       id="clipPath184">
      <path
         d="M 41.5696,218.159 H 532.93 V -112.248 H 41.5696 Z"
         id="path182" />
    </clipPath>
    <clipPath
       clipPathUnits="userSpaceOnUse"
       id="clipPath188">
      <path
         d="m 368.118,167.089 -15.383,-38.39 v 34.838 l -16.977,-3.919 V 97.495 l 21.96,5.07 15.383,38.39 v -34.838 l 16.977,3.919 v 62.123 z"
         id="path186" />
    </clipPath>
    <linearGradient
       x1="0"
       y1="0"
       x2="1"
       y2="0"
       gradientUnits="userSpaceOnUse"
       gradientTransform="matrix(75.737404,17.485403,4.52e-5,-75.737396,253.89275,104.36472)"
       spreadMethod="pad"
       id="linearGradient224">
      <stop
         style="stop-opacity:1;stop-color:#ffff00"
         offset="0"
         id="stop218" />
      <stop
         style="stop-opacity:1;stop-color:#ffbe00"
         offset="0.75"
         id="stop220" />
      <stop
         style="stop-opacity:1;stop-color:#ffbe00"
         offset="1"
         id="stop222" />
    </linearGradient>
    <clipPath
       clipPathUnits="userSpaceOnUse"
       id="clipPath234">
      <path
         d="M 0,366.601 H 500 V 0 H 0 Z"
         id="path232" />
    </clipPath>
    <clipPath
       clipPathUnits="userSpaceOnUse"
       id="clipPath242">
      <path
         d="M -28.9583,260.425 H 532.93 V -112.248 H -28.9583 Z"
         id="path240" />
    </clipPath>
    <clipPath
       clipPathUnits="userSpaceOnUse"
       id="clipPath246">
      <path
         d="m 323.022,144.064 c -4.614,4.239 -10.841,5.58 -18.132,3.897 -4.896,-1.13 -8.837,-3.177 -13.192,-6.961 -4.355,1.773 -8.272,2.006 -13.192,0.87 -7.269,-1.678 -13.517,-5.9 -18.131,-12.269 -4.853,-6.699 -6.487,-12.67 -6.487,-23.921 V 72.531 l 18.888,4.361 v 36.739 c 0,5.536 1.784,7.852 4.699,8.525 2.915,0.673 4.779,-0.801 4.779,-6.337 V 79.08 l 18.888,4.361 v 36.739 c 0,5.536 1.865,7.871 4.78,8.544 2.914,0.673 4.699,-0.82 4.699,-6.356 V 85.629 l 18.888,4.361 v 33.149 c 0,11.25 -1.635,16.466 -6.487,20.925"
         id="path244" />
    </clipPath>
    <linearGradient
       x1="0"
       y1="0"
       x2="1"
       y2="0"
       gradientUnits="userSpaceOnUse"
       gradientTransform="matrix(49.076763,11.330263,0,-49.076763,198.26685,97.956329)"
       spreadMethod="pad"
       id="linearGradient286">
      <stop
         style="stop-opacity:1;stop-color:#6ee6ff"
         offset="0"
         id="stop280" />
      <stop
         style="stop-opacity:1;stop-color:#00a0ff"
         offset="0.85"
         id="stop282" />
      <stop
         style="stop-opacity:1;stop-color:#00a0ff"
         offset="1"
         id="stop284" />
    </linearGradient>
    <clipPath
       clipPathUnits="userSpaceOnUse"
       id="clipPath296">
      <path
         d="M 0,366.601 H 500 V 0 H 0 Z"
         id="path294" />
    </clipPath>
    <clipPath
       clipPathUnits="userSpaceOnUse"
       id="clipPath304">
      <path
         d="M -28.9583,260.425 H 410.311 V -43.3869 H -28.9583 Z"
         id="path302" />
    </clipPath>
    <clipPath
       clipPathUnits="userSpaceOnUse"
       id="clipPath308">
      <path
         d="m 229.039,101.862 -6.234,1.993 -6.233,-4.872 1.168,7.583 -5.021,4.033 6.956,2.694 3.13,7.363 3.13,-5.918 6.956,0.518 -5.021,-6.351 z m 13.026,28.47 c -4.44,4.923 -11.81,6.827 -19.26,5.107 -7.45,-1.719 -14.808,-7.032 -19.243,-13.996 -3.887,-6.104 -5.295,-11.644 -5.295,-21.067 V 66.138 l 18.773,4.335 v 13.634 l 11.53,2.645 V 73.134 l 18.774,4.335 v 34.237 c 0,9.423 -1.399,14.323 -5.279,18.626"
         id="path306" />
    </clipPath>
    <linearGradient
       x1="0"
       y1="0"
       x2="1"
       y2="0"
       gradientUnits="userSpaceOnUse"
       gradientTransform="matrix(48.389061,11.171495,0,-48.389061,144.19301,78.623108)"
       spreadMethod="pad"
       id="linearGradient344">
      <stop
         style="stop-opacity:1;stop-color:#ff8232"
         offset="0"
         id="stop338" />
      <stop
         style="stop-opacity:1;stop-color:#c80000"
         offset="0.75"
         id="stop340" />
      <stop
         style="stop-opacity:1;stop-color:#c80000"
         offset="1"
         id="stop342" />
    </linearGradient>
    <clipPath
       clipPathUnits="userSpaceOnUse"
       id="clipPath354">
      <path
         d="M 0,366.601 H 500 V 0 H 0 Z"
         id="path352" />
    </clipPath>
    <clipPath
       clipPathUnits="userSpaceOnUse"
       id="clipPath362">
      <path
         d="M -28.9583,260.425 H 410.311 V -43.3869 H -28.9583 Z"
         id="path360" />
    </clipPath>
    <clipPath
       clipPathUnits="userSpaceOnUse"
       id="clipPath366">
      <path
         d="M 144.193,111.219 V 46.027 l 20.775,4.797 v 47.2 l 27.614,6.375 v 17.991 z"
         id="path364" />
    </clipPath>
    <linearGradient
       x1="0"
       y1="0"
       x2="1"
       y2="0"
       gradientUnits="userSpaceOnUse"
       gradientTransform="matrix(39.841297,9.1980877,0.0881179,-41.879303,98.434334,74.433434)"
       spreadMethod="pad"
       id="linearGradient402">
      <stop
         style="stop-opacity:1;stop-color:#c8f000"
         offset="0"
         id="stop396" />
      <stop
         style="stop-opacity:1;stop-color:#14b400"
         offset="0.8"
         id="stop398" />
      <stop
         style="stop-opacity:1;stop-color:#14b400"
         offset="1"
         id="stop400" />
    </linearGradient>
    <clipPath
       clipPathUnits="userSpaceOnUse"
       id="clipPath412">
      <path
         d="M 0,366.601 H 500 V 0 H 0 Z"
         id="path410" />
    </clipPath>
    <clipPath
       clipPathUnits="userSpaceOnUse"
       id="clipPath420">
      <path
         d="M -28.9583,260.425 H 410.311 V -43.3869 H -28.9583 Z"
         id="path418" />
    </clipPath>
    <clipPath
       clipPathUnits="userSpaceOnUse"
       id="clipPath424">
      <path
         d="m 118.474,47.984 c -7.358,-1.698 -11.01,-1.455 -14.51,0.741 -3.653,2.293 -5.501,6.462 -5.501,12.147 0,6.877 2.384,11.347 8.665,16.14 -5.937,1.718 -8.069,4.49 -8.069,10.519 0,5.868 2.395,11.519 6.533,15.75 3.264,3.338 8.137,5.779 14.785,7.294 l 17.833,4.117 V 97.18 l -12.515,-2.89 c -4.952,-1.143 -6.464,-2.302 -6.464,-5.007 0,-2.705 1.512,-3.165 6.464,-2.022 l 12.515,2.89 V 77.022 l -12.515,-2.89 c -4.952,-1.143 -5.456,-3.465 -5.456,-4.772 0,-1.398 0.504,-3.425 5.456,-2.282 l 12.515,2.889 V 52.541 Z"
         id="path422" />
    </clipPath>
    <linearGradient
       x1="0"
       y1="0"
       x2="1"
       y2="0"
       gradientUnits="userSpaceOnUse"
       gradientTransform="matrix(84.366577,19.47761,5.04e-5,-84.36657,10.468402,49.056652)"
       spreadMethod="pad"
       id="linearGradient460">
      <stop
         style="stop-opacity:1;stop-color:#ffff00"
         offset="0"
         id="stop454" />
      <stop
         style="stop-opacity:1;stop-color:#ffbe00"
         offset="0.75"
         id="stop456" />
      <stop
         style="stop-opacity:1;stop-color:#ffbe00"
         offset="1"
         id="stop458" />
    </linearGradient>
    <clipPath
       clipPathUnits="userSpaceOnUse"
       id="clipPath470">
      <path
         d="M 0,366.601 H 500 V 0 H 0 Z"
         id="path468" />
    </clipPath>
    <clipPath
       clipPathUnits="userSpaceOnUse"
       id="clipPath478">
      <path
         d="M -28.9583,260.425 H 410.311 V -43.3869 H -28.9583 Z"
         id="path476" />
    </clipPath>
    <clipPath
       clipPathUnits="userSpaceOnUse"
       id="clipPath482">
      <path
         d="m 86.497,90.349 c -4.613,4.239 -10.84,5.58 -18.131,3.897 -4.896,-1.13 -8.837,-3.177 -13.192,-6.961 -4.355,1.773 -8.272,2.006 -13.192,0.87 C 34.713,86.477 28.465,82.256 23.851,75.886 18.998,69.187 17.364,63.216 17.364,51.965 V 18.816 l 18.888,4.361 v 36.739 c 0,5.536 1.784,7.853 4.699,8.525 2.914,0.673 4.779,-0.801 4.779,-6.337 V 25.365 l 18.888,4.361 v 36.739 c 0,5.536 1.865,7.871 4.779,8.544 2.915,0.673 4.7,-0.82 4.7,-6.356 V 31.914 l 18.887,4.361 v 33.149 c 0,11.25 -1.634,16.466 -6.487,20.925"
         id="path480" />
    </clipPath>
    <radialGradient
       fx="0"
       fy="0"
       cx="0"
       cy="0"
       r="1"
       gradientUnits="userSpaceOnUse"
       gradientTransform="matrix(9.3139277,0,0,-9.3139277,448.08688,116.15734)"
       spreadMethod="pad"
       id="radialGradient518">
      <stop
         style="stop-opacity:1;stop-color:#ffffa0"
         offset="0"
         id="stop512" />
      <stop
         style="stop-opacity:1;stop-color:#ffff00"
         offset="0.55"
         id="stop514" />
      <stop
         style="stop-opacity:1;stop-color:#ffc800"
         offset="1"
         id="stop516" />
    </radialGradient>
    <clipPath
       clipPathUnits="userSpaceOnUse"
       id="clipPath528">
      <path
         d="M 0,366.601 H 500 V 0 H 0 Z"
         id="path526" />
    </clipPath>
    <radialGradient
       fx="0"
       fy="0"
       cx="0"
       cy="0"
       r="1"
       gradientUnits="userSpaceOnUse"
       gradientTransform="matrix(8.1103439,0,0,-8.1103439,241.37929,132.03886)"
       spreadMethod="pad"
       id="radialGradient552">
      <stop
         style="stop-opacity:1;stop-color:#faffc8"
         offset="0"
         id="stop546" />
      <stop
         style="stop-opacity:1;stop-color:#c8ff00"
         offset="0.45"
         id="stop548" />
      <stop
         style="stop-opacity:1;stop-color:#00a000"
         offset="1"
         id="stop550" />
    </radialGradient>
    <clipPath
       clipPathUnits="userSpaceOnUse"
       id="clipPath562">
      <path
         d="M 0,366.601 H 500 V 0 H 0 Z"
         id="path560" />
    </clipPath>
    <radialGradient
       fx="0"
       fy="0"
       cx="0"
       cy="0"
       r="1"
       gradientUnits="userSpaceOnUse"
       gradientTransform="matrix(9.4116497,0,0,-9.4116497,17.01984,16.95714)"
       spreadMethod="pad"
       id="radialGradient586">
      <stop
         style="stop-opacity:1;stop-color:#d9ffff"
         offset="0"
         id="stop580" />
      <stop
         style="stop-opacity:1;stop-color:#96d2ff"
         offset="0.42"
         id="stop582" />
      <stop
         style="stop-opacity:1;stop-color:#00aaff"
         offset="1"
         id="stop584" />
    </radialGradient>
    <clipPath
       clipPathUnits="userSpaceOnUse"
       id="clipPath596">
      <path
         d="M 0,366.601 H 500 V 0 H 0 Z"
         id="path594" />
    </clipPath>
  </defs>
  <sodipodi:namedview
     id="namedview4"
     pagecolor="#ffffff"
     bordercolor="#000000"
     borderopacity="0.25"
     inkscape:showpageshadow="2"
     inkscape:pageopacity="0.0"
     inkscape:pagecheckerboard="0"
     inkscape:deskcolor="#d1d1d1" />
  <g
     id="g8"
     inkscape:groupmode="layer"
     inkscape:label="Rhythm of Heaven Megamix (Ритм Небес Мегамикс) Logo"
     transform="matrix(1.3333333,0,0,-1.3333333,0,488.80133)">
    <g
       id="g10">
      <g
         id="g12"
         clip-path="url(#clipPath16)">
        <g
           id="g18"
           transform="translate(449.3517,230.0605)">
          <path
             d="m 0,0 c 0,33.507 -20.707,62.247 -49.945,74.002 -9.872,36.024 -42.485,62.539 -81.092,62.539 -31.399,0 -58.833,-17.542 -73.295,-43.471 -8.943,3.093 -18.537,4.778 -28.519,4.778 -15.8,0 -30.635,-4.212 -43.444,-11.57 -11.487,6.045 -24.556,9.474 -38.414,9.474 -45.636,0 -82.765,-37.129 -82.765,-82.766 0,-9.634 1.66,-18.886 4.7,-27.492 -9.336,-12.578 -14.879,-28.216 -14.879,-45.144 0,-35.868 24.874,-65.942 58.023,-73.381 15.037,-17.614 38.451,-28.958 64.707,-28.958 17.762,0 34.222,5.192 47.67,14.003 10.103,-4.268 21.309,-6.645 33.098,-6.645 19.797,0 37.947,6.707 51.997,17.811 5.945,-1.257 12.106,-1.923 18.42,-1.923 40.963,0 75.539,27.84 85.818,65.59 C -19.756,-60.906 0,-32.728 0,0"
             style="fill:#0096e6;fill-opacity:1;fill-rule:nonzero;stroke:none"
             id="path20" />
        </g>
        <g
           id="g22"
           transform="translate(439.7985,230.0605)">
          <path
             d="m 0,0 c 0,31.196 -20.386,57.688 -48.474,66.764 -7.099,34.351 -37.137,60.223 -73.01,60.223 -30.767,0 -57.241,-19.031 -68.634,-46.119 -10.073,4.759 -21.32,7.427 -33.18,7.427 -15.987,0 -30.863,-4.842 -43.246,-13.133 -11.217,6.99 -24.449,11.036 -38.611,11.036 -40.37,0 -73.213,-32.842 -73.213,-73.212 0,-10.36 2.168,-20.222 6.066,-29.162 -10.096,-11.584 -16.245,-26.809 -16.245,-43.474 0,-32.434 23.252,-59.428 53.678,-64.664 13.122,-16.987 34.898,-28.122 59.5,-28.122 17.767,0 34.059,5.81 46.684,15.434 10.126,-5.144 21.741,-8.076 34.083,-8.076 19.25,0 36.726,7.133 49.54,18.68 6.655,-1.817 13.654,-2.792 20.877,-2.792 38.193,0 70.169,27.114 77.699,63.103 C -19.43,-56.425 0,-30.455 0,0"
             style="fill:#ffffff;fill-opacity:1;fill-rule:nonzero;stroke:none"
             id="path24" />
        </g>
        <g
           id="g26"
           transform="translate(434.1689,230.0605)">
          <path
             d="m 0,0 c 0,29.92 -20.274,55.074 -47.766,62.359 -5.273,33.445 -33.744,58.998 -68.088,58.998 -30.62,0 -56.565,-20.316 -65.571,-48.422 -10.657,6.186 -23.036,9.73 -36.243,9.73 -16.175,0 -31.11,-5.314 -43.157,-14.289 -10.964,7.675 -24.301,12.192 -38.701,12.192 -37.324,0 -67.582,-30.257 -67.582,-67.582 0,-10.847 2.57,-21.089 7.112,-30.173 -10.681,-10.857 -17.291,-25.873 -17.291,-42.464 0,-30.469 22.295,-55.612 51.157,-59.444 11.886,-16.658 32.691,-27.711 56.39,-27.711 17.864,0 34.08,6.287 46.08,16.512 10.059,-5.793 21.943,-9.154 34.688,-9.154 19,0 36.102,7.452 48.061,19.342 7.052,-2.241 14.562,-3.454 22.356,-3.454 36.651,0 67.051,26.737 72.776,61.768 C -19.304,-53.844 0,-29.194 0,0"
             style="fill:#000000;fill-opacity:1;fill-rule:nonzero;stroke:none"
             id="path28" />
        </g>
        <g
           id="g30"
           transform="translate(496.1817,202.8872)">
          <path
             d="m 0,0 c -4.05,0.31 -7.747,0.061 -11.303,-0.76 -21.299,-4.917 -38.627,-26.245 -38.627,-47.544 0,-21.299 17.328,-34.627 38.627,-29.71 3.559,0.822 7.257,2.281 11.304,4.461 l 3.817,2.056 v 71.204 z"
             style="fill:#000000;fill-opacity:1;fill-rule:nonzero;stroke:none"
             id="path32" />
        </g>
      </g>
    </g>
    <g
       id="g34">
      <g
         id="g36">
        <g
           id="g42">
          <g
             id="g44">
            <path
               d="M 484.879,196.719 C 466.533,192.484 451.66,174.178 451.66,155.831 v 0 c 0,-18.346 14.873,-29.785 33.219,-25.55 v 0 c 3.403,0.786 6.622,2.19 9.713,3.854 v 0 22.459 c -2.439,-3.152 -5.875,-5.583 -9.713,-6.47 v 0 c -7.388,-1.705 -13.376,2.901 -13.376,10.288 v 0 c 0,7.388 5.988,14.759 13.376,16.464 v 0 c 3.838,0.887 7.274,0.041 9.713,-1.984 v 0 22.458 c -0.966,0.074 -1.944,0.117 -2.937,0.117 v 0 c -2.184,0 -4.436,-0.207 -6.776,-0.748"
               style="fill:url(#linearGradient52);stroke:none"
               id="path54" />
          </g>
        </g>
      </g>
    </g>
    <g
       id="g56">
      <g
         id="g58"
         clip-path="url(#clipPath62)">
        <g
           id="g64">
          <g
             id="g66" />
          <g
             id="g86">
            <g
               clip-path="url(#clipPath70)"
               opacity="0.199997"
               id="g84">
              <g
                 id="g82">
                <g
                   clip-path="url(#clipPath74)"
                   id="g80">
                  <g
                     transform="translate(64.693,-112.4395)"
                     id="g78">
                    <path
                       d="m 0,0 -23.954,45.585 470.788,284.821 20.573,-47.641 z"
                       style="fill:#ffffff;fill-opacity:1;fill-rule:nonzero;stroke:none"
                       id="path76" />
                  </g>
                </g>
              </g>
            </g>
          </g>
        </g>
        <g
           id="g88"
           transform="translate(447.4663,150.7336)">
          <path
             d="M 0,0 C 3.105,4.841 4.295,10.034 4.295,17.536 V 34.731 L -56.491,20.698 V -52.24 l 61.514,14.202 v 19.197 C 5.023,-10.339 4.123,-4.37 0,0"
             style="fill:#000000;fill-opacity:1;fill-rule:nonzero;stroke:none"
             id="path90" />
        </g>
      </g>
    </g>
    <g
       id="g92">
      <g
         id="g94">
        <g
           id="g100">
          <g
             id="g102">
            <path
               d="m 426.602,174.249 v -9.239 c 0,-8.816 -1.34,-11.733 -8.055,-13.283 v 0 l -2.412,-0.557 v 20.662 l -19.752,-4.56 V 105.15 l 19.752,4.56 v 24.029 c 7.711,1.781 11.15,2.667 11.15,-8.53 v 0 -12.925 l 19.797,4.57 v 13.79 c 0,10.957 -1.749,15.133 -7.145,18.33 v 0 c 4.73,5.02 6.417,9.073 6.417,18.048 v 0 11.787 z"
               style="fill:url(#linearGradient110);stroke:none"
               id="path112" />
          </g>
        </g>
      </g>
    </g>
    <g
       id="g114">
      <g
         id="g116"
         clip-path="url(#clipPath120)">
        <g
           id="g122">
          <g
             id="g124" />
          <g
             id="g144">
            <g
               clip-path="url(#clipPath128)"
               opacity="0.199997"
               id="g142">
              <g
                 id="g140">
                <g
                   clip-path="url(#clipPath132)"
                   id="g138">
                  <g
                     transform="translate(65.5235,-112.2478)"
                     id="g136">
                    <path
                       d="m 0,0 -23.954,45.585 470.788,284.821 20.573,-47.641 z"
                       style="fill:#ffffff;fill-opacity:1;fill-rule:nonzero;stroke:none"
                       id="path134" />
                  </g>
                </g>
              </g>
            </g>
          </g>
        </g>
        <g
           id="g146"
           transform="translate(330.342,163.7834)">
          <path
             d="m 0,0 v -72.954 l 65.151,15.041 v 72.954 z"
             style="fill:#000000;fill-opacity:1;fill-rule:nonzero;stroke:none"
             id="path148" />
        </g>
      </g>
    </g>
    <g
       id="g150">
      <g
         id="g152">
        <g
           id="g158">
          <g
             id="g160">
            <path
               d="m 368.118,167.089 -15.384,-38.39 v 34.838 l -16.976,-3.919 V 97.495 l 21.96,5.07 15.382,38.39 v -34.839 l 16.978,3.92 v 62.122 z"
               style="fill:url(#linearGradient166);stroke:none"
               id="path168" />
          </g>
        </g>
      </g>
    </g>
    <g
       id="g170">
      <g
         id="g172"
         clip-path="url(#clipPath176)">
        <g
           id="g178">
          <g
             id="g180" />
          <g
             id="g200">
            <g
               clip-path="url(#clipPath184)"
               opacity="0.199997"
               id="g198">
              <g
                 id="g196">
                <g
                   clip-path="url(#clipPath188)"
                   id="g194">
                  <g
                     transform="translate(65.5235,-112.2478)"
                     id="g192">
                    <path
                       d="m 0,0 -23.954,45.585 470.788,284.821 20.573,-47.641 z"
                       style="fill:#ffffff;fill-opacity:1;fill-rule:nonzero;stroke:none"
                       id="path190" />
                  </g>
                </g>
              </g>
            </g>
          </g>
        </g>
        <g
           id="g202"
           transform="translate(327.0954,148.5479)">
          <path
             d="m 0,0 c -5.655,5.196 -13.334,6.861 -22.205,4.813 -4.844,-1.118 -9.027,-3.052 -13.192,-6.139 -4.165,1.164 -8.348,1.166 -13.192,0.048 -8.872,-2.049 -16.55,-7.258 -22.206,-15.066 -5.768,-7.964 -7.812,-15.231 -7.812,-27.77 v -38.549 l 86.42,19.952 v 38.549 C 7.813,-11.622 5.769,-5.299 0,0"
             style="fill:#000000;fill-opacity:1;fill-rule:nonzero;stroke:none"
             id="path204" />
        </g>
      </g>
    </g>
    <g
       id="g206">
      <g
         id="g208">
        <g
           id="g214">
          <g
             id="g216">
            <path
               d="m 304.89,147.961 c -4.896,-1.131 -8.837,-3.177 -13.192,-6.961 v 0 c -4.355,1.773 -8.272,2.005 -13.191,0.87 v 0 c -7.27,-1.679 -13.518,-5.9 -18.133,-12.269 v 0 c -4.852,-6.7 -6.486,-12.67 -6.486,-23.921 v 0 -33.149 l 18.888,4.36 v 36.739 c 0,5.537 1.784,7.854 4.698,8.526 v 0 c 2.916,0.673 4.78,-0.801 4.78,-6.337 v 0 -36.739 l 18.888,4.361 v 36.739 c 0,5.536 1.865,7.871 4.78,8.543 v 0 c 2.914,0.674 4.699,-0.819 4.699,-6.355 v 0 -36.739 l 18.888,4.36 v 33.15 c 0,11.25 -1.635,16.466 -6.487,20.925 v 0 c -3.323,3.052 -7.482,4.602 -12.272,4.602 v 0 c -1.862,0 -3.819,-0.234 -5.86,-0.705"
               style="fill:url(#linearGradient224);stroke:none"
               id="path226" />
          </g>
        </g>
      </g>
    </g>
    <g
       id="g228">
      <g
         id="g230"
         clip-path="url(#clipPath234)">
        <g
           id="g236">
          <g
             id="g238" />
          <g
             id="g262">
            <g
               clip-path="url(#clipPath242)"
               opacity="0.199997"
               id="g260">
              <g
                 id="g258">
                <g
                   clip-path="url(#clipPath246)"
                   id="g256">
                  <g
                     transform="translate(-3.9733,-43.3869)"
                     id="g250">
                    <path
                       d="m 0,0 -24.985,51.471 414.284,252.341 24.985,-51.471 z"
                       style="fill:#ffffff;fill-opacity:1;fill-rule:nonzero;stroke:none"
                       id="path248" />
                  </g>
                  <g
                     transform="translate(65.5235,-112.2478)"
                     id="g254">
                    <path
                       d="m 0,0 -23.954,45.585 470.788,284.821 20.573,-47.641 z"
                       style="fill:#ffffff;fill-opacity:1;fill-rule:nonzero;stroke:none"
                       id="path252" />
                  </g>
                </g>
              </g>
            </g>
          </g>
        </g>
        <g
           id="g264"
           transform="translate(246.392,134.5603)">
          <path
             d="m 0,0 c -5.397,5.985 -14.435,8.391 -23.587,6.279 -9.14,-2.111 -18.171,-8.688 -23.57,-17.165 -4.642,-7.288 -6.368,-13.941 -6.368,-24.545 v -39.637 l 59.876,13.823 v 39.637 C 6.351,-10.99 4.63,-5.134 0,0"
             style="fill:#000000;fill-opacity:1;fill-rule:nonzero;stroke:none"
             id="path266" />
        </g>
      </g>
    </g>
    <g
       id="g268">
      <g
         id="g270">
        <g
           id="g276">
          <g
             id="g278">
            <path
               d="m 222.805,135.439 c -7.449,-1.72 -14.808,-7.032 -19.243,-13.996 v 0 c -3.887,-6.103 -5.296,-11.645 -5.296,-21.068 v 0 -34.237 l 18.774,4.335 v 13.634 l 11.53,2.645 V 73.134 l 18.773,4.334 v 34.238 c 0,9.423 -1.397,14.323 -5.278,18.626 v 0 c -3.365,3.731 -8.412,5.728 -13.901,5.728 v 0 c -1.755,0 -3.554,-0.204 -5.359,-0.621 m -5.064,-28.873 -5.022,4.033 6.956,2.694 3.13,7.364 3.13,-5.919 6.956,0.518 -5.021,-6.351 1.168,-7.043 -6.233,1.993 -6.233,-4.871 z"
               style="fill:url(#linearGradient286);stroke:none"
               id="path288" />
          </g>
        </g>
      </g>
    </g>
    <g
       id="g290">
      <g
         id="g292"
         clip-path="url(#clipPath296)">
        <g
           id="g298">
          <g
             id="g300" />
          <g
             id="g320">
            <g
               clip-path="url(#clipPath304)"
               opacity="0.199997"
               id="g318">
              <g
                 id="g316">
                <g
                   clip-path="url(#clipPath308)"
                   id="g314">
                  <g
                     transform="translate(-3.9733,-43.3869)"
                     id="g312">
                    <path
                       d="m 0,0 -24.985,51.471 414.284,252.341 24.985,-51.471 z"
                       style="fill:#ffffff;fill-opacity:1;fill-rule:nonzero;stroke:none"
                       id="path310" />
                  </g>
                </g>
              </g>
            </g>
          </g>
        </g>
        <g
           id="g322"
           transform="translate(138.7775,115.3844)">
          <path
             d="m 0,0 v -76.023 l 59.22,13.672 v 76.023 z"
             style="fill:#000000;fill-opacity:1;fill-rule:nonzero;stroke:none"
             id="path324" />
        </g>
      </g>
    </g>
    <g
       id="g326">
      <g
         id="g328">
        <g
           id="g334">
          <g
             id="g336">
            <path
               d="m 144.193,111.218 v -65.19 l 20.775,4.796 v 47.2 l 27.614,6.375 v 17.991 z"
               style="fill:url(#linearGradient344);stroke:none"
               id="path346" />
          </g>
        </g>
      </g>
    </g>
    <g
       id="g348">
      <g
         id="g350"
         clip-path="url(#clipPath354)">
        <g
           id="g356">
          <g
             id="g358" />
          <g
             id="g378">
            <g
               clip-path="url(#clipPath362)"
               opacity="0.199997"
               id="g376">
              <g
                 id="g374">
                <g
                   clip-path="url(#clipPath366)"
                   id="g372">
                  <g
                     transform="translate(-3.9733,-43.3869)"
                     id="g370">
                    <path
                       d="m 0,0 -24.985,51.471 414.284,252.341 24.985,-51.471 z"
                       style="fill:#ffffff;fill-opacity:1;fill-rule:nonzero;stroke:none"
                       id="path368" />
                  </g>
                </g>
              </g>
            </g>
          </g>
        </g>
        <g
           id="g380"
           transform="translate(120.3924,115.9782)">
          <path
             d="m 0,0 c -7.903,-1.782 -13.834,-4.822 -18.152,-9.238 -5.453,-5.577 -8.581,-13.032 -8.581,-20.456 0,-5.192 1.371,-8.857 4.417,-11.401 -3.427,-4.433 -5.013,-9.359 -5.013,-15.258 0,-7.312 2.553,-12.778 7.384,-15.81 5.232,-3.282 10.776,-2.904 18.027,-1.23 l 25.136,5.803 V 5.36 Z"
             style="fill:#000000;fill-opacity:1;fill-rule:nonzero;stroke:none"
             id="path382" />
        </g>
      </g>
    </g>
    <g
       id="g384">
      <g
         id="g386">
        <g
           id="g392">
          <g
             id="g394">
            <path
               d="m 120.377,110.575 c -6.648,-1.516 -11.521,-3.957 -14.785,-7.295 v 0 c -4.138,-4.231 -6.533,-9.881 -6.533,-15.749 v 0 c 0,-6.029 2.132,-8.802 8.069,-10.519 v 0 c -6.281,-4.792 -8.665,-9.264 -8.665,-16.14 v 0 c 0,-5.685 1.847,-9.855 5.501,-12.147 v 0 c 3.501,-2.196 7.152,-2.439 14.51,-0.741 v 0 l 19.736,4.557 v 17.426 l -12.515,-2.889 c -4.952,-1.143 -5.456,0.884 -5.456,2.282 v 0 c 0,1.307 0.504,3.629 5.456,4.772 v 0 l 12.515,2.89 V 90.15 l -12.515,-2.889 c -4.952,-1.143 -6.465,-0.683 -6.465,2.023 v 0 c 0,2.704 1.513,3.863 6.465,5.006 v 0 l 12.515,2.889 v 17.512 z"
               style="fill:url(#linearGradient402);stroke:none"
               id="path404" />
          </g>
        </g>
      </g>
    </g>
    <g
       id="g406">
      <g
         id="g408"
         clip-path="url(#clipPath412)">
        <g
           id="g414">
          <g
             id="g416" />
          <g
             id="g436">
            <g
               clip-path="url(#clipPath420)"
               opacity="0.199997"
               id="g434">
              <g
                 id="g432">
                <g
                   clip-path="url(#clipPath424)"
                   id="g430">
                  <g
                     transform="translate(-3.9733,-43.3869)"
                     id="g428">
                    <path
                       d="m 0,0 -24.985,51.471 414.284,252.341 24.985,-51.471 z"
                       style="fill:#ffffff;fill-opacity:1;fill-rule:nonzero;stroke:none"
                       id="path426" />
                  </g>
                </g>
              </g>
            </g>
          </g>
        </g>
        <g
           id="g438"
           transform="translate(90.5713,94.8327)">
          <path
             d="m 0,0 c -5.656,5.196 -13.334,6.861 -22.206,4.813 -4.844,-1.119 -9.027,-3.052 -13.191,-6.139 -4.165,1.164 -8.348,1.166 -13.192,0.048 -8.872,-2.049 -16.55,-7.258 -22.206,-15.066 -5.768,-7.963 -7.812,-15.23 -7.812,-27.77 v -38.548 l 86.42,19.951 v 38.549 C 7.813,-11.622 5.768,-5.299 0,0"
             style="fill:#000000;fill-opacity:1;fill-rule:nonzero;stroke:none"
             id="path440" />
        </g>
      </g>
    </g>
    <g
       id="g442">
      <g
         id="g444">
        <g
           id="g450">
          <g
             id="g452">
            <path
               d="M 68.366,94.246 C 63.47,93.116 59.53,91.069 55.174,87.286 v 0 c -4.356,1.772 -8.272,2.005 -13.192,0.869 v 0 C 34.713,86.477 28.464,82.256 23.851,75.886 v 0 C 18.998,69.187 17.364,63.216 17.364,51.965 v 0 -33.149 l 18.888,4.361 v 36.739 c 0,5.536 1.784,7.852 4.699,8.525 v 0 c 2.914,0.674 4.779,-0.801 4.779,-6.336 v 0 -36.739 l 18.888,4.36 v 36.739 c 0,5.536 1.865,7.871 4.779,8.544 v 0 c 2.915,0.673 4.699,-0.819 4.699,-6.356 v 0 -36.739 l 18.888,4.361 v 33.148 c 0,11.251 -1.634,16.468 -6.487,20.926 v 0 c -3.322,3.053 -7.48,4.602 -12.271,4.602 v 0 c -1.862,0 -3.819,-0.234 -5.86,-0.705"
               style="fill:url(#linearGradient460);stroke:none"
               id="path462" />
          </g>
        </g>
      </g>
    </g>
    <g
       id="g464">
      <g
         id="g466"
         clip-path="url(#clipPath470)">
        <g
           id="g472">
          <g
             id="g474" />
          <g
             id="g494">
            <g
               clip-path="url(#clipPath478)"
               opacity="0.199997"
               id="g492">
              <g
                 id="g490">
                <g
                   clip-path="url(#clipPath482)"
                   id="g488">
                  <g
                     transform="translate(-3.9733,-43.3869)"
                     id="g486">
                    <path
                       d="m 0,0 -24.985,51.471 414.284,252.341 24.985,-51.471 z"
                       style="fill:#ffffff;fill-opacity:1;fill-rule:nonzero;stroke:none"
                       id="path484" />
                  </g>
                </g>
              </g>
            </g>
          </g>
        </g>
        <g
           id="g496"
           transform="translate(465.7032,121.7981)">
          <path
             d="m 0,0 -12.318,1.283 -5.932,10.916 -5.019,-11.373 -12.207,-2.271 9.229,-8.284 -1.586,-12.248 10.702,6.164 11.194,-5.361 -2.574,12.149 z"
             style="fill:#000000;fill-opacity:1;fill-rule:nonzero;stroke:none"
             id="path498" />
        </g>
      </g>
    </g>
    <g
       id="g500">
      <g
         id="g502">
        <g
           id="g508">
          <g
             id="g510">
            <path
               d="m 445.13,119.218 -6.533,-1.215 4.928,-4.425 -0.847,-6.555 5.73,3.301 5.982,-2.866 -1.375,6.487 4.562,4.837 -6.602,0.688 -3.163,5.822 z"
               style="fill:url(#radialGradient518);stroke:none"
               id="path520" />
          </g>
        </g>
      </g>
    </g>
    <g
       id="g522">
      <g
         id="g524"
         clip-path="url(#clipPath528)">
        <g
           id="g530"
           transform="translate(250.1915,132.8608)">
          <path
             d="m 0,0 4.336,9.973 -10.553,-2.606 -8.152,7.199 -0.781,-10.847 -9.37,-5.553 10.091,-4.072 2.342,-10.625 7.027,8.329 10.833,-1.044 z"
             style="fill:#000000;fill-opacity:1;fill-rule:nonzero;stroke:none"
             id="path532" />
        </g>
      </g>
    </g>
    <g
       id="g534">
      <g
         id="g536">
        <g
           id="g542">
          <g
             id="g544">
            <path
               d="m 238.331,134.546 -4.952,-2.935 5.342,-2.154 1.237,-5.616 3.713,4.401 5.708,-0.551 -3.048,4.883 2.291,5.272 -5.57,-1.375 -4.309,3.805 z"
               style="fill:url(#radialGradient552);stroke:none"
               id="path554" />
          </g>
        </g>
      </g>
    </g>
    <g
       id="g556">
      <g
         id="g558"
         clip-path="url(#clipPath562)">
        <g
           id="g564"
           transform="translate(25.6594,20.3693)">
          <path
             d="m 0,0 2.308,11.622 -10.615,-5.227 -10.314,5.785 1.66,-11.706 -8.698,-8.052 11.67,-2.019 4.9,-10.772 5.587,10.484 11.764,1.38 z"
             style="fill:#000000;fill-opacity:1;fill-rule:nonzero;stroke:none"
             id="path566" />
        </g>
      </g>
    </g>
    <g
       id="g568">
      <g
         id="g570">
        <g
           id="g576">
          <g
             id="g578">
            <path
               d="m 12.344,19.547 -4.929,-4.561 6.625,-1.147 2.774,-6.096 3.163,5.936 6.648,0.779 -4.677,4.815 1.307,6.578 -6.006,-2.957 -5.845,3.278 z"
               style="fill:url(#radialGradient586);stroke:none"
               id="path588" />
          </g>
        </g>
      </g>
    </g>
    <g
       id="g590">
      <g
         id="g592"
         clip-path="url(#clipPath596)">
        <g
           id="g598"
           transform="translate(388.7451,181.5849)">
          <path
             d="m 0,0 v 5.653 l -1.422,-5.988 -1.54,-0.363 -1.388,5.325 v -5.653 l -1.456,-0.343 v 6.767 l 2.274,0.537 1.372,-5.045 0.017,0.004 1.337,5.683 2.245,0.53 V 0.339 Z m -10.511,-2.478 v 5.567 l -2.341,-0.552 v 1.196 l 6.194,1.461 V 3.997 L -8.916,3.465 v -5.567 z"
             style="fill:#ff5500;fill-opacity:1;fill-rule:nonzero;stroke:none"
             id="path600" />
        </g>
        <g
           id="g602"
           transform="translate(376.4632,222.3924)">
          <path
             d="m 0,0 c 0,10.495 9.093,17.485 19.869,20.052 2.449,0.583 4.417,3.046 4.417,5.495 v 17.417 c 0,2.401 -1.895,3.926 -4.293,3.487 -26.455,-4.845 -45.707,-26.893 -45.707,-48.068 0,-25.917 14.169,-30.779 45.787,-21.625 2.365,0.685 4.213,3.076 4.213,5.445 v 6.317 c 0,2.672 -2.328,4.213 -4.983,3.297 C 6.98,-12.432 0,-9.832 0,0"
             style="fill:#ff5500;fill-opacity:1;fill-rule:nonzero;stroke:none"
             id="path604" />
        </g>
        <g
           id="g606"
           transform="translate(309.3682,185.0578)">
          <path
             d="m 0,0 c -1.634,-0.139 -3.851,-0.153 -4.242,1.701 -0.161,0.76 0.545,1.716 2.335,2.674 1.557,0.775 3.931,1.477 7.122,2.356 l 13.55,3.726 c 2.269,0.624 4.058,2.906 4.058,5.178 v 1.741 c 0,2.287 -1.809,3.744 -4.094,3.297 -6.087,-1.19 -17.202,-3.306 -20.869,-3.624 -1.644,-0.143 -2.636,0.078 -2.746,0.809 -0.165,1.097 0.411,1.709 2.201,2.667 3.551,1.903 17.61,5.304 24.771,6.965 2.343,0.543 4.24,2.88 4.24,5.224 v 13.415 c 0,2.345 -1.901,3.806 -4.246,3.265 l -37.343,-8.621 c -2.344,-0.541 -4.245,-2.881 -4.245,-5.225 v -49.869 c 0,-2.345 1.901,-3.807 4.245,-3.266 l 37.004,8.543 c 2.344,0.542 4.245,2.881 4.245,5.226 v 4.207 c 0,2.316 -1.859,3.777 -4.175,3.28 C 11.684,1.496 3.859,0.327 0,0"
             style="fill:#ff5500;fill-opacity:1;fill-rule:nonzero;stroke:none"
             id="path608" />
        </g>
        <g
           id="g610"
           transform="translate(257.2303,192.9991)">
          <path
             d="m 0,0 c -0.608,4.573 -6.009,5.265 -11.771,3.722 -2.583,-0.766 -2.975,-3.44 -2.975,-5.493 v -7.537 c 0,-2.824 2.533,-3.015 5.803,-2.216 C -1.688,-9.762 0.713,-5.313 0,0 m 17.77,8.207 c 0,-19.956 -23.923,-33.411 -46.158,-37.179 -2.112,-0.358 -3.842,1.119 -3.842,3.241 V 23.4 c 0,2.284 1.851,4.562 4.135,5.09 l 37.553,8.669 c 2.283,0.528 4.135,-0.896 4.135,-3.18 v -5.115 c 0,-2.284 -1.852,-4.562 -4.135,-5.09 l -22.869,-5.279 c -0.745,-0.172 -1.351,-0.93 -1.348,-1.683 v 0 c 0.005,-1.023 0.834,-1.67 1.844,-1.438 3.675,0.843 9.665,2.219 10.899,2.504 6.847,1.581 19.786,1.457 19.786,-9.671"
             style="fill:#ff5500;fill-opacity:1;fill-rule:nonzero;stroke:none"
             id="path612" />
        </g>
        <g
           id="g614"
           transform="translate(182.9464,155.8066)">
          <path
             d="m 0,0 c -1.634,-0.139 -3.851,-0.153 -4.242,1.701 -0.161,0.76 0.545,1.716 2.335,2.674 1.557,0.775 3.931,1.477 7.122,2.356 l 13.55,3.726 c 2.269,0.624 4.058,2.906 4.058,5.178 v 1.741 c 0,2.287 -1.809,3.744 -4.094,3.297 -6.087,-1.19 -17.202,-3.306 -20.869,-3.624 -1.644,-0.143 -2.636,0.078 -2.746,0.809 -0.165,1.097 0.411,1.709 2.201,2.667 3.551,1.902 17.61,5.304 24.771,6.965 2.343,0.543 4.24,2.88 4.24,5.224 v 13.415 c 0,2.345 -1.901,3.806 -4.246,3.265 l -37.343,-8.621 c -2.344,-0.541 -4.245,-2.881 -4.245,-5.225 v -49.869 c 0,-2.345 1.901,-3.807 4.245,-3.266 l 37.004,8.543 c 2.344,0.542 4.245,2.881 4.245,5.226 v 4.207 c 0,2.316 -1.859,3.777 -4.175,3.28 C 11.684,1.496 3.859,0.327 0,0"
             style="fill:#ff5500;fill-opacity:1;fill-rule:nonzero;stroke:none"
             id="path616" />
        </g>
        <g
           id="g618"
           transform="translate(131.056,207.2399)">
          <path
             d="m 0,0 c -2.505,-0.578 -4.54,-3.071 -4.558,-5.58 -0.055,-7.707 -0.116,-14.289 -0.616,-17.002 -1.382,-7.719 -20.186,-12.488 -21.107,-5.533 -0.364,2.75 -0.69,8.628 -0.785,16.216 -0.031,2.49 -2.06,4.032 -4.557,3.456 l -6.112,-1.411 c -2.517,-0.581 -4.558,-3.093 -4.558,-5.611 v -58.443 c 0,-2.517 2.041,-4.087 4.558,-3.506 l 10.257,2.368 c 2.516,0.581 4.556,3.093 4.558,5.61 0.005,7.058 0.039,10.637 0.243,13.572 0.677,9.245 20.618,12.743 22.352,4.87 0.63,-2.875 0.842,-6.582 0.902,-12.175 0.026,-2.494 2.057,-4.042 4.557,-3.465 l 6.348,1.466 c 2.517,0.581 4.558,3.093 4.558,5.61 v 58.703 c 0,2.517 -2.041,4.087 -4.558,3.506 z"
             style="fill:#ff5500;fill-opacity:1;fill-rule:nonzero;stroke:none"
             id="path620" />
        </g>
        <g
           id="g622"
           transform="translate(344.2848,329.6004)">
          <path
             d="m 0,0 c -1.912,-0.442 -3.621,-2.029 -4.286,-3.976 -4.656,-13.627 -7.699,-20.511 -10.119,-26.576 -4.438,-11.106 -8.794,-4.553 -10.939,-1.534 -2.322,3.294 -4.913,7.361 -10.009,18.138 -0.719,1.52 -2.373,2.235 -4.205,1.812 l -6.526,-1.506 c -2.524,-0.582 -4.57,-3.1 -4.57,-5.624 v -52.44 c 0,-2.524 2.046,-4.098 4.571,-3.514 l 3.611,0.835 c 2.525,0.583 4.568,3.104 4.568,5.629 0.002,7.322 0.21,12.341 0.701,14.517 0.532,2.339 2.003,1.579 3.58,-0.694 1.162,-1.666 1.727,-2.917 4.741,-9.103 0.728,-1.494 2.372,-2.191 4.187,-1.772 l 3.577,0.826 c 1.794,0.414 3.424,1.844 4.164,3.65 3.494,8.523 4.68,11.36 6.112,13.843 3.604,6.254 3.997,3.772 4.786,-0.202 0.51,-2.533 0.551,-8.749 0.54,-16.646 -0.003,-2.527 2.043,-4.107 4.57,-3.524 l 4.056,0.937 c 2.523,0.583 4.569,3.101 4.569,5.624 v 58.503 c 0,2.524 -2.046,4.098 -4.569,3.515 z"
             style="fill:#ffaa00;fill-opacity:1;fill-rule:nonzero;stroke:none"
             id="path624" />
        </g>
        <g
           id="g626"
           transform="translate(226.5541,285.9683)">
          <path
             d="m 0,0 v -7.951 c 0,-2.069 1.661,-3.37 3.729,-2.922 l 6.815,1.478 c 6.108,1.41 8.632,1.154 8.632,-5.423 v -28.703 c 0,-2.067 1.659,-3.368 3.725,-2.922 l 8.81,1.901 c 2.111,0.456 3.84,2.557 3.84,4.669 v 23.319 c 0,11.056 2.7,14.23 10.387,16.004 l 4.446,1.027 c 2.089,0.482 3.783,2.566 3.783,4.655 v 7.373 c 0,2.089 -1.694,3.392 -3.783,2.91 L 3.783,4.656 C 1.693,4.173 0,2.089 0,0"
             style="fill:#ffaa00;fill-opacity:1;fill-rule:nonzero;stroke:none"
             id="path628" />
        </g>
        <g
           id="g630"
           transform="translate(180.4425,268.2918)">
          <path
             d="m 0,0 c 1.993,0.46 3.614,-0.768 3.633,-2.756 0.055,-5.453 0.189,-15.427 0.457,-17.625 0.372,-3.063 1.288,-4.027 2.72,-3.652 0.687,0.203 1.373,0.56 1.947,1.002 3.474,2.677 12.339,15.701 16.298,26.502 0.557,1.519 1.887,2.749 3.385,3.095 l 2.853,0.659 C 33.3,7.688 34.927,6.437 34.927,4.43 v -44.009 c 0,-2.007 -1.627,-4.009 -3.634,-4.472 l -3.855,-0.89 c -1.989,-0.46 -3.608,0.766 -3.633,2.749 l -0.102,8.065 c 0,2.435 -0.429,3.894 -1.346,4.319 -0.315,0.144 -0.829,0.13 -1.317,-0.002 -3.075,-0.838 -9.843,-9.182 -17.192,-19.329 -0.69,-0.952 -1.69,-1.639 -2.741,-1.881 l -8.38,-1.935 c -2.006,-0.463 -3.633,0.788 -3.633,2.795 v 44.008 c 0,2.007 1.627,4.01 3.633,4.473 z"
             style="fill:#ffaa00;fill-opacity:1;fill-rule:nonzero;stroke:none"
             id="path632" />
        </g>
        <g
           id="g634"
           transform="translate(127.8159,249.6413)">
          <path
             d="m 0,0 c -4.137,-0.995 -6.522,-0.272 -6.522,2.434 v 9.792 c 0,2.765 1.956,4.609 5.851,5.199 C 7.138,18.606 10.66,15.22 10.66,10.579 10.66,6.708 7.734,1.876 0,0 m -28.332,27.63 v -58.698 c 0,-2.434 1.973,-3.951 4.407,-3.389 l 12.459,2.876 c 2.433,0.562 4.406,2.99 4.406,5.423 v 12.223 c 0,2.879 0.917,4.357 3.117,4.771 19.824,3.726 33.945,13.369 33.945,29.335 0,16.84 -22.262,23.208 -54.341,12.77 -2.263,-0.736 -3.993,-3.038 -3.993,-5.311"
             style="fill:#ffaa00;fill-opacity:1;fill-rule:nonzero;stroke:none"
             id="path636" />
        </g>
      </g>
    </g>
  </g>
</svg>
