<?xml version="1.0" encoding="UTF-8" standalone="no"?>
<!-- Created with Inkscape (http://www.inkscape.org/) -->

<svg
   version="1.1"
   id="svg2"
   width="666.66669"
   height="377.06668"
   viewBox="0 0 666.66669 377.06668"
   sodipodi:docname="Rhythm Heaven Superstars Logo Remake.ai"
   xmlns:inkscape="http://www.inkscape.org/namespaces/inkscape"
   xmlns:sodipodi="http://sodipodi.sourceforge.net/DTD/sodipodi-0.dtd"
   xmlns="http://www.w3.org/2000/svg"
   xmlns:svg="http://www.w3.org/2000/svg">
  <defs
     id="defs6">
    <linearGradient
       x1="0"
       y1="0"
       x2="1"
       y2="0"
       gradientUnits="userSpaceOnUse"
       gradientTransform="matrix(499.03931,79.040062,79.040062,-499.03931,-5.8228331,111.50472)"
       spreadMethod="pad"
       id="linearGradient44">
      <stop
         style="stop-opacity:1;stop-color:#0093fc"
         offset="0"
         id="stop22" />
      <stop
         style="stop-opacity:1;stop-color:#00fbc8"
         offset="0.1"
         id="stop24" />
      <stop
         style="stop-opacity:1;stop-color:#09eb45"
         offset="0.2"
         id="stop26" />
      <stop
         style="stop-opacity:1;stop-color:#f91572"
         offset="0.3"
         id="stop28" />
      <stop
         style="stop-opacity:1;stop-color:#fe9502"
         offset="0.4"
         id="stop30" />
      <stop
         style="stop-opacity:1;stop-color:#fefa01"
         offset="0.5"
         id="stop32" />
      <stop
         style="stop-opacity:1;stop-color:#5303fc"
         offset="0.6"
         id="stop34" />
      <stop
         style="stop-opacity:1;stop-color:#24908d"
         offset="0.7"
         id="stop36" />
      <stop
         style="stop-opacity:1;stop-color:#09eb45"
         offset="0.8"
         id="stop38" />
      <stop
         style="stop-opacity:1;stop-color:#9375a8"
         offset="0.9"
         id="stop40" />
      <stop
         style="stop-opacity:1;stop-color:#ff1bf6"
         offset="1"
         id="stop42" />
    </linearGradient>
    <clipPath
       clipPathUnits="userSpaceOnUse"
       id="clipPath54">
      <path
         d="M 0,282.8 H 500 V 0 H 0 Z"
         id="path52" />
    </clipPath>
    <linearGradient
       x1="0"
       y1="0"
       x2="1"
       y2="0"
       gradientUnits="userSpaceOnUse"
       gradientTransform="matrix(34.260838,-216.31442,-216.31442,-34.260838,226.56776,259.17365)"
       spreadMethod="pad"
       id="linearGradient80">
      <stop
         style="stop-opacity:1;stop-color:#000001"
         offset="0"
         id="stop72" />
      <stop
         style="stop-opacity:1;stop-color:#000001"
         offset="0.5"
         id="stop74" />
      <stop
         style="stop-opacity:1;stop-color:#022565"
         offset="0.70751882"
         id="stop76" />
      <stop
         style="stop-opacity:1;stop-color:#022565"
         offset="1"
         id="stop78" />
    </linearGradient>
    <clipPath
       clipPathUnits="userSpaceOnUse"
       id="clipPath90">
      <path
         d="M 0,282.8 H 500 V 0 H 0 Z"
         id="path88" />
    </clipPath>
    <linearGradient
       x1="0"
       y1="0"
       x2="1"
       y2="0"
       gradientUnits="userSpaceOnUse"
       gradientTransform="matrix(424.08905,67.169105,67.169105,-424.08905,38.188435,74.840988)"
       spreadMethod="pad"
       id="linearGradient290">
      <stop
         style="stop-opacity:1;stop-color:#ff6b4a"
         offset="0"
         id="stop268" />
      <stop
         style="stop-opacity:1;stop-color:#fefa01"
         offset="0.1"
         id="stop270" />
      <stop
         style="stop-opacity:1;stop-color:#09eb45"
         offset="0.2"
         id="stop272" />
      <stop
         style="stop-opacity:1;stop-color:#f91572"
         offset="0.3"
         id="stop274" />
      <stop
         style="stop-opacity:1;stop-color:#5303fc"
         offset="0.4"
         id="stop276" />
      <stop
         style="stop-opacity:1;stop-color:#fe9502"
         offset="0.5"
         id="stop278" />
      <stop
         style="stop-opacity:1;stop-color:#ff474f"
         offset="0.6"
         id="stop280" />
      <stop
         style="stop-opacity:1;stop-color:#fd4827"
         offset="0.7"
         id="stop282" />
      <stop
         style="stop-opacity:1;stop-color:#d4f00b"
         offset="0.8"
         id="stop284" />
      <stop
         style="stop-opacity:1;stop-color:#00fbc8"
         offset="0.9"
         id="stop286" />
      <stop
         style="stop-opacity:1;stop-color:#022565"
         offset="1"
         id="stop288" />
    </linearGradient>
    <clipPath
       clipPathUnits="userSpaceOnUse"
       id="clipPath300">
      <path
         d="M 0,282.8 H 500 V 0 H 0 Z"
         id="path298" />
    </clipPath>
  </defs>
  <sodipodi:namedview
     id="namedview4"
     pagecolor="#ffffff"
     bordercolor="#000000"
     borderopacity="0.25"
     inkscape:showpageshadow="2"
     inkscape:pageopacity="0.0"
     inkscape:pagecheckerboard="0"
     inkscape:deskcolor="#d1d1d1" />
  <g
     id="g8"
     inkscape:groupmode="layer"
     inkscape:label="Rhythm Heaven Superstars Logo Remake"
     transform="matrix(1.3333333,0,0,-1.3333333,0,377.06667)">
    <g
       id="g10">
      <g
         id="g12">
        <g
           id="g18">
          <g
             id="g20">
            <path
               d="m 284.242,282.8 c -25.523,0 -48.635,-12.805 -62.17,-33.569 v 0 c -4.745,1.102 -9.622,1.658 -14.599,1.658 v 0 c -14.312,0 -28.018,-4.728 -39.158,-13.272 v 0 c -11.276,6.347 -24.09,9.752 -37.162,9.752 v 0 C 89.4,247.369 55.43,213.4 55.43,171.646 v 0 c 0,-4.428 0.378,-8.799 1.131,-13.095 v 0 C 43.338,154.354 31.329,146.789 21.693,136.415 v 0 C 7.704,121.359 0,101.741 0,81.176 v 0 C 0,36.416 36.415,0 81.177,0 v 0 c 16.787,0 33.081,5.197 46.691,14.768 v 0 c 4.479,-0.909 9.039,-1.368 13.635,-1.368 v 0 c 17.327,0 33.655,6.416 46.196,17.899 v 0 c 4.997,-1.273 10.142,-1.914 15.386,-1.914 v 0 c 10.711,0 20.998,2.666 30.192,7.771 v 0 c 7.25,-2.362 14.797,-3.555 22.535,-3.555 v 0 c 13.632,0 27.014,3.86 38.515,10.999 v 0 c 6.269,-1.977 12.797,-2.976 19.502,-2.976 v 0 c 11.949,0 23.357,3.175 33.413,9.248 v 0 c 5.122,-1.154 10.358,-1.737 15.644,-1.737 v 0 c 14.434,0 28.452,4.387 40.25,12.487 v 0 c 5.151,-1.011 10.4,-1.521 15.687,-1.521 v 0 c 44.761,0 81.177,36.417 81.177,81.177 v 0 c 0,40.604 -29.962,74.339 -68.94,80.257 v 0 c -6.057,29.827 -32.485,52.346 -64.072,52.346 v 0 c -12.122,0 -23.735,-3.274 -33.838,-9.406 v 0 c -13.4,11.782 -30.573,18.325 -48.908,18.325 z"
               style="fill:url(#linearGradient44);stroke:none"
               id="path46" />
          </g>
        </g>
      </g>
    </g>
    <g
       id="g48">
      <g
         id="g50"
         clip-path="url(#clipPath54)">
        <g
           id="g56"
           transform="translate(422.6769,212.83)">
          <path
             d="m 0,0 c -2.217,28.784 -26.348,51.528 -55.689,51.528 -12.833,0 -25.003,-4.297 -34.871,-12.212 -12.258,13.502 -29.388,21.131 -47.876,21.131 -24.635,0 -46.693,-13.684 -57.7,-35.321 -6.081,2.265 -12.47,3.41 -19.067,3.41 -14.39,0 -28.06,-5.61 -38.27,-15.552 -11.093,7.792 -24.412,12.033 -38.05,12.033 -36.503,0 -66.201,-29.698 -66.201,-66.201 0,-6.861 1.038,-13.567 3.094,-20.018 -15.048,-2.786 -28.82,-10.331 -39.377,-21.694 -12.347,-13.291 -19.147,-30.606 -19.147,-48.757 0,-39.51 32.143,-71.654 71.654,-71.654 16.224,0 31.925,5.497 44.564,15.543 5.134,-1.423 10.421,-2.143 15.762,-2.143 16.709,0 32.339,6.931 43.521,19.16 5.78,-2.109 11.838,-3.175 18.061,-3.175 10.489,0 20.499,3.016 29.153,8.754 7.501,-3.014 15.417,-4.539 23.575,-4.539 13.356,0 26.435,4.261 37.209,12.062 6.599,-2.681 13.582,-4.038 20.807,-4.038 11.495,0 22.403,3.445 31.735,9.994 5.624,-1.65 11.437,-2.484 17.322,-2.484 13.853,0 27.268,4.67 38.11,13.208 5.807,-1.487 11.789,-2.24 17.827,-2.24 39.51,0 71.654,32.143 71.654,71.653 C 67.8,-33.334 37.726,-2.009 0,0"
             style="fill:#ffffff;fill-opacity:1;fill-rule:nonzero;stroke:none"
             id="path58" />
        </g>
      </g>
    </g>
    <g
       id="g60">
      <g
         id="g62">
        <g
           id="g68">
          <g
             id="g70">
            <path
               d="m 229.418,230.484 c -6.608,3.3 -14.055,5.168 -21.945,5.168 v 0 c -15.099,0 -28.603,-6.812 -37.623,-17.524 v 0 c -10.489,8.742 -23.977,14.004 -38.697,14.004 v 0 c -33.405,0 -60.486,-27.081 -60.486,-60.486 v 0 c 0,-8.815 1.902,-17.182 5.292,-24.734 v 0 C 41.98,144.252 15.236,115.839 15.236,81.176 v 0 c 0,-36.416 29.523,-65.939 65.941,-65.939 v 0 c 16.566,0 31.703,6.109 43.285,16.196 v 0 c 5.353,-1.803 11.079,-2.797 17.041,-2.797 v 0 c 16.978,0 32.091,7.944 41.858,20.307 v 0 c 6.004,-2.767 12.68,-4.321 19.724,-4.321 v 0 c 10.696,0 20.556,3.562 28.47,9.559 v 0 c 7.377,-3.421 15.59,-5.344 24.257,-5.344 v 0 c 13.813,0 26.488,4.856 36.424,12.946 v 0 c 6.531,-3.153 13.855,-4.922 21.593,-4.922 v 0 c 11.582,0 22.231,3.972 30.683,10.614 v 0 c 5.756,-2.003 11.936,-3.104 18.374,-3.104 v 0 c 14.08,0 26.935,5.213 36.767,13.802 v 0 c 6.068,-1.841 12.502,-2.834 19.17,-2.834 v 0 c 36.419,0 65.94,29.522 65.94,65.939 v 0 c 0,36.418 -29.521,65.941 -65.94,65.941 v 0 c -0.578,0 -1.153,-0.008 -1.727,-0.023 v 0 c 0.011,0.436 0.033,0.869 0.033,1.307 v 0 c 0,27.692 -22.449,50.142 -50.142,50.142 v 0 c -13.862,0 -26.409,-5.625 -35.485,-14.716 v 0 c -10.776,14.35 -27.934,23.635 -47.26,23.635 v 0 c -24.849,0 -46.099,-15.352 -54.824,-37.08"
               style="fill:url(#linearGradient80);stroke:none"
               id="path82" />
          </g>
        </g>
      </g>
    </g>
    <g
       id="g84">
      <g
         id="g86"
         clip-path="url(#clipPath90)">
        <g
           id="g92"
           transform="translate(405.7003,212.4384)">
          <path
             d="M 0,0 -1.766,3.577 -3.531,0 l -3.948,-0.574 2.856,-2.784 -0.675,-3.933 3.532,1.856 3.532,-1.856 -0.675,3.933 2.857,2.784 z"
             style="fill:#ffffff;fill-opacity:1;fill-rule:nonzero;stroke:none"
             id="path94" />
        </g>
        <g
           id="g96"
           transform="translate(378.2911,175.6083)">
          <path
             d="M 0,0 -1.178,2.385 -2.354,0 l -2.632,-0.383 1.904,-1.856 -0.449,-2.621 2.353,1.237 2.355,-1.237 -0.449,2.621 1.904,1.856 z"
             style="fill:#ffffff;fill-opacity:1;fill-rule:nonzero;stroke:none"
             id="path98" />
        </g>
        <g
           id="g100"
           transform="translate(171.9991,160.8573)">
          <path
             d="m 0,0 -2.07,-5.547 -5.548,-2.09 5.548,-2.052 2.07,-5.547 2.071,5.547 5.547,2.052 -5.547,2.09 z"
             style="fill:#ffffff;fill-opacity:1;fill-rule:nonzero;stroke:none"
             id="path102" />
        </g>
        <g
           id="g104"
           transform="translate(206.4747,213.3241)">
          <path
             d="M 0,0 -1.035,-2.773 -3.81,-3.818 -1.035,-4.845 0,-7.618 l 1.035,2.773 2.774,1.027 -2.774,1.045 z"
             style="fill:#ffffff;fill-opacity:1;fill-rule:nonzero;stroke:none"
             id="path106" />
        </g>
        <g
           id="g108"
           transform="translate(126.0763,221.2518)">
          <path
             d="M 0,0 -2.07,-5.548 -7.618,-7.637 -2.07,-9.689 0,-15.236 2.071,-9.689 7.618,-7.637 2.071,-5.548 Z"
             style="fill:#ffffff;fill-opacity:1;fill-rule:nonzero;stroke:none"
             id="path110" />
        </g>
        <g
           id="g112"
           transform="translate(292.1974,255.8983)">
          <path
             d="M 0,0 -2.071,5.547 -4.142,0 -9.689,-2.089 -4.142,-4.142 -2.071,-9.689 0,-4.142 5.547,-2.089 Z"
             style="fill:#ffffff;fill-opacity:1;fill-rule:nonzero;stroke:none"
             id="path114" />
        </g>
        <g
           id="g116"
           transform="translate(362.6642,237.6268)">
          <path
             d="M 0,0 -1.243,-3.328 -4.571,-4.582 -1.243,-5.813 0,-9.142 l 1.242,3.329 3.329,1.231 -3.329,1.254 z"
             style="fill:#ffffff;fill-opacity:1;fill-rule:nonzero;stroke:none"
             id="path118" />
        </g>
        <path
           d="m 133.936,144.924 h 3.81 v 3.81 h -3.81 z"
           style="fill:#ffffff;fill-opacity:1;fill-rule:nonzero;stroke:none"
           id="path120" />
        <path
           d="m 317.638,246.672 h -3.809 v -3.809 h 3.809 z"
           style="fill:#ffffff;fill-opacity:1;fill-rule:nonzero;stroke:none"
           id="path122" />
        <path
           d="m 355.19,247.665 h -3.809 v -3.81 h 3.809 z"
           style="fill:#ffffff;fill-opacity:1;fill-rule:nonzero;stroke:none"
           id="path124" />
        <g
           id="g126"
           transform="translate(84.1759,144.3456)">
          <path
             d="M 0,0 -1.035,-2.773 -3.809,-3.818 -1.035,-4.845 0,-7.618 1.035,-4.845 3.81,-3.818 1.035,-2.773 Z"
             style="fill:#ffffff;fill-opacity:1;fill-rule:nonzero;stroke:none"
             id="path128" />
        </g>
        <g
           id="g130"
           transform="translate(125.4738,140.8417)">
          <path
             d="M 0,0 -1.035,-2.774 -3.81,-3.818 -1.035,-4.845 0,-7.619 l 1.035,2.774 2.774,1.027 -2.774,1.044 z"
             style="fill:#ffffff;fill-opacity:1;fill-rule:nonzero;stroke:none"
             id="path132" />
        </g>
        <g
           id="g134"
           transform="translate(195.9923,153.0184)">
          <path
             d="M 0,0 1.12,2.357 -1.237,1.236 -2.112,3.696 -2.986,1.236 -5.344,2.357 -4.224,0 l -2.459,-0.875 2.459,-0.875 -1.12,-2.357 2.358,1.121 0.874,-2.46 0.875,2.46 L 1.12,-4.107 0,-1.75 2.459,-0.875 Z"
             style="fill:#ffffff;fill-opacity:1;fill-rule:nonzero;stroke:none"
             id="path136" />
        </g>
        <g
           id="g138"
           transform="translate(152.3575,142.4774)">
          <path
             d="M 0,0 1.121,2.358 -1.237,1.237 -2.111,3.697 -2.986,1.237 -5.344,2.358 -4.223,0 l -2.46,-0.874 2.46,-0.875 -1.121,-2.357 2.358,1.121 0.875,-2.46 0.874,2.46 L 1.121,-4.106 0,-1.749 2.459,-0.874 Z"
             style="fill:#ffffff;fill-opacity:1;fill-rule:nonzero;stroke:none"
             id="path140" />
        </g>
        <g
           id="g142"
           transform="translate(163.421,205.7059)">
          <path
             d="M 0,0 -4.1,1.458 -2.231,5.387 -6.161,3.52 -7.618,7.618 -9.076,3.52 -13.006,5.387 -11.138,1.458 -15.237,0 l 4.099,-1.458 -1.868,-3.929 3.93,1.867 1.458,-4.098 1.457,4.098 3.93,-1.867 -1.869,3.929 z"
             style="fill:#ffffff;fill-opacity:1;fill-rule:nonzero;stroke:none"
             id="path144" />
        </g>
        <g
           id="g146"
           transform="translate(87.9122,200.8895)">
          <path
             d="M 0,0 0.935,1.965 -1.03,1.031 -1.759,3.081 -2.488,1.031 -4.453,1.965 -3.519,0 l -2.049,-0.729 2.049,-0.728 -0.934,-1.965 1.965,0.934 0.729,-2.05 0.729,2.05 L 0.935,-3.422 0,-1.457 2.05,-0.729 Z"
             style="fill:#ffffff;fill-opacity:1;fill-rule:nonzero;stroke:none"
             id="path148" />
        </g>
        <g
           id="g150"
           transform="translate(281.4767,169.8885)">
          <path
             d="M 0,0 1.121,2.357 -1.236,1.237 -2.111,3.696 -2.986,1.237 -5.344,2.357 -4.223,0 l -2.46,-0.874 2.46,-0.875 -1.121,-2.357 2.358,1.12 0.875,-2.459 0.875,2.459 2.357,-1.12 L 0,-1.749 2.46,-0.874 Z"
             style="fill:#ffffff;fill-opacity:1;fill-rule:nonzero;stroke:none"
             id="path152" />
        </g>
        <g
           id="g154"
           transform="translate(345.046,185.8348)">
          <path
             d="M 0,0 1.121,2.357 -1.236,1.236 -2.111,3.696 -2.985,1.236 -5.343,2.357 -4.223,0 l -2.459,-0.875 2.459,-0.874 -1.12,-2.358 2.358,1.121 0.874,-2.459 0.875,2.459 L 1.121,-4.107 0,-1.749 2.46,-0.875 Z"
             style="fill:#ffffff;fill-opacity:1;fill-rule:nonzero;stroke:none"
             id="path156" />
        </g>
        <g
           id="g158"
           transform="translate(405.4025,186.2303)">
          <path
             d="M 0,0 1.4,2.947 -1.546,1.546 -2.64,4.62 -3.732,1.546 -6.68,2.947 -5.278,0 -8.354,-1.093 -5.278,-2.187 -6.68,-5.134 -3.732,-3.732 -2.64,-6.807 -1.546,-3.732 1.401,-5.134 0,-2.187 3.074,-1.093 Z"
             style="fill:#ffffff;fill-opacity:1;fill-rule:nonzero;stroke:none"
             id="path160" />
        </g>
        <g
           id="g162"
           transform="translate(318.3243,174.2323)">
          <path
             d="M 0,0 -2.354,4.77 -4.709,0 l -5.264,-0.766 3.809,-3.713 -0.898,-5.242 4.708,2.475 4.708,-2.475 -0.899,5.242 3.809,3.713 z"
             style="fill:#ffffff;fill-opacity:1;fill-rule:nonzero;stroke:none"
             id="path164" />
        </g>
        <path
           d="m 329.665,173.889 h 3.809 v 3.81 h -3.809 z"
           style="fill:#ffffff;fill-opacity:1;fill-rule:nonzero;stroke:none"
           id="path166" />
        <g
           id="g168"
           transform="translate(360.1866,185.7977)">
          <path
             d="m 0,0 -1.554,-4.16 -4.16,-1.568 4.16,-1.539 1.554,-4.16 1.553,4.16 4.161,1.539 -4.161,1.568 z"
             style="fill:#ffffff;fill-opacity:1;fill-rule:nonzero;stroke:none"
             id="path170" />
        </g>
        <g
           id="g172"
           transform="translate(415.421,199.1395)">
          <path
             d="M 0,0 -1.036,-2.774 -3.81,-3.818 -1.036,-4.845 0,-7.618 l 1.035,2.773 2.774,1.027 -2.774,1.044 z"
             style="fill:#ffffff;fill-opacity:1;fill-rule:nonzero;stroke:none"
             id="path174" />
        </g>
        <g
           id="g176"
           transform="translate(295.8546,181.2079)">
          <path
             d="M 0,0 -1.242,-3.328 -4.571,-4.582 -1.242,-5.813 0,-9.142 l 1.242,3.329 3.329,1.231 -3.329,1.254 z"
             style="fill:#ffffff;fill-opacity:1;fill-rule:nonzero;stroke:none"
             id="path178" />
        </g>
        <g
           id="g180"
           transform="translate(239.4405,163.0673)">
          <path
             d="M 0,0 -2.071,-5.548 -7.619,-7.637 -2.071,-9.689 0,-15.237 2.07,-9.689 7.618,-7.637 2.07,-5.548 Z"
             style="fill:#ffffff;fill-opacity:1;fill-rule:nonzero;stroke:none"
             id="path182" />
        </g>
        <path
           d="m 257.618,161.062 h 3.81 v 3.81 h -3.81 z"
           style="fill:#ffffff;fill-opacity:1;fill-rule:nonzero;stroke:none"
           id="path184" />
        <path
           d="m 211.123,153.643 h 3.81 v 3.809 h -3.81 z"
           style="fill:#ffffff;fill-opacity:1;fill-rule:nonzero;stroke:none"
           id="path186" />
        <path
           d="m 212.725,228.675 h -3.81 v -3.809 h 3.81 z"
           style="fill:#ffffff;fill-opacity:1;fill-rule:nonzero;stroke:none"
           id="path188" />
        <g
           id="g190"
           transform="translate(309.5939,227.3094)">
          <path
             d="m 0,0 -0.935,-1.965 1.965,0.934 0.729,-2.05 0.729,2.05 L 4.453,-1.965 3.519,0 5.568,0.729 3.519,1.457 4.453,3.422 2.488,2.488 1.759,4.537 1.03,2.488 -0.935,3.422 0,1.457 -2.05,0.729 Z"
             style="fill:#ffffff;fill-opacity:1;fill-rule:nonzero;stroke:none"
             id="path192" />
        </g>
        <g
           id="g194"
           transform="translate(269.0695,237.4647)">
          <path
             d="m 0,0 -1.4,-2.946 2.947,1.4 L 2.64,-4.62 3.733,-1.546 6.68,-2.946 5.279,0 8.354,1.094 5.279,2.187 6.68,5.134 3.733,3.733 2.64,6.807 1.547,3.733 -1.4,5.134 0,2.187 -3.074,1.094 Z"
             style="fill:#ffffff;fill-opacity:1;fill-rule:nonzero;stroke:none"
             id="path196" />
        </g>
        <g
           id="g198"
           transform="translate(231.6554,220.6991)">
          <path
             d="m 0,0 -0.935,-1.965 1.965,0.934 0.729,-2.05 0.729,2.05 L 4.453,-1.965 3.519,0 5.568,0.729 3.519,1.457 4.452,3.422 2.488,2.488 1.759,4.538 1.03,2.488 -0.935,3.422 0,1.457 -2.05,0.729 Z"
             style="fill:#ffffff;fill-opacity:1;fill-rule:nonzero;stroke:none"
             id="path200" />
        </g>
        <g
           id="g202"
           transform="translate(383.4113,250.1542)">
          <path
             d="M 0,0 -3.93,-1.868 -5.388,2.231 -6.845,-1.868 -10.774,0 l 1.868,-3.929 -4.1,-1.458 4.1,-1.458 -1.868,-3.929 3.929,1.868 1.458,-4.099 1.457,4.099 3.93,-1.868 -1.868,3.929 4.099,1.458 -4.099,1.458 z"
             style="fill:#ffffff;fill-opacity:1;fill-rule:nonzero;stroke:none"
             id="path204" />
        </g>
        <g
           id="g206"
           transform="translate(250.6827,238.5585)">
          <path
             d="M 0,0 -1.412,-2.862 -4.57,-3.321 -2.285,-5.549 -2.824,-8.695 0,-7.21 2.825,-8.695 2.286,-5.549 4.571,-3.321 1.413,-2.862 Z"
             style="fill:#ffffff;fill-opacity:1;fill-rule:nonzero;stroke:none"
             id="path208" />
        </g>
        <g
           id="g210"
           transform="translate(295.5831,236.5604)">
          <path
             d="M 0,0 -1.412,-2.861 -4.571,-3.32 -2.285,-5.549 -2.825,-8.694 0,-7.209 2.825,-8.694 2.285,-5.549 4.571,-3.32 1.412,-2.861 Z"
             style="fill:#ffffff;fill-opacity:1;fill-rule:nonzero;stroke:none"
             id="path212" />
        </g>
        <g
           id="g214"
           transform="translate(226.5763,167.5428)">
          <path
             d="M 0,0 -1.177,2.386 -2.354,0 l -2.632,-0.382 1.904,-1.856 -0.449,-2.622 2.354,1.238 2.354,-1.238 -0.449,2.622 1.904,1.856 z"
             style="fill:#ffffff;fill-opacity:1;fill-rule:nonzero;stroke:none"
             id="path216" />
        </g>
        <g
           id="g218"
           transform="translate(332.7462,236.1727)">
          <path
             d="M 0,0 -1.177,2.386 -2.354,0 l -2.632,-0.382 1.905,-1.856 -0.45,-2.622 2.354,1.238 2.355,-1.238 -0.45,2.622 1.905,1.856 z"
             style="fill:#ffffff;fill-opacity:1;fill-rule:nonzero;stroke:none"
             id="path220" />
        </g>
        <path
           d="m 402.547,236.84 h -3.809 v -3.809 h 3.809 z"
           style="fill:#ffffff;fill-opacity:1;fill-rule:nonzero;stroke:none"
           id="path222" />
        <path
           d="m 430.042,191.831 h 3.81 v 3.809 h -3.81 z"
           style="fill:#ffffff;fill-opacity:1;fill-rule:nonzero;stroke:none"
           id="path224" />
        <path
           d="m 390.168,173.862 h 3.809 v 3.809 h -3.809 z"
           style="fill:#ffffff;fill-opacity:1;fill-rule:nonzero;stroke:none"
           id="path226" />
        <g
           id="g228"
           transform="translate(188.8536,216.1161)">
          <path
             d="M 0,0 2.856,2.785 -1.092,3.358 -2.857,6.937 -4.623,3.358 -8.571,2.785 -5.714,0 l -0.675,-3.932 3.532,1.857 3.531,-1.857 z"
             style="fill:#ffffff;fill-opacity:1;fill-rule:nonzero;stroke:none"
             id="path230" />
        </g>
        <g
           id="g232"
           transform="translate(107.6495,216.5175)">
          <path
             d="M 0,0 2.095,2.042 -0.801,2.462 -2.095,5.086 -3.39,2.462 -6.285,2.042 -4.19,0 l -0.495,-2.884 2.59,1.362 2.589,-1.362 z"
             style="fill:#ffffff;fill-opacity:1;fill-rule:nonzero;stroke:none"
             id="path234" />
        </g>
        <g
           id="g236"
           transform="translate(109.3722,130.8934)">
          <path
             d="M 0,0 -2.354,4.771 -4.708,0 l -5.264,-0.765 3.809,-3.713 -0.899,-5.243 4.708,2.476 4.708,-2.476 -0.899,5.243 3.81,3.713 z"
             style="fill:#ffffff;fill-opacity:1;fill-rule:nonzero;stroke:none"
             id="path238" />
        </g>
        <path
           d="m 141.849,219.348 h 3.809 v 3.809 h -3.809 z"
           style="fill:#ffffff;fill-opacity:1;fill-rule:nonzero;stroke:none"
           id="path240" />
        <path
           d="m 112.213,200.314 h 3.809 v 3.809 h -3.809 z"
           style="fill:#ffffff;fill-opacity:1;fill-rule:nonzero;stroke:none"
           id="path242" />
        <path
           d="m 83.259,172.057 h -3.81 v -3.81 h 3.81 z"
           style="fill:#ffffff;fill-opacity:1;fill-rule:nonzero;stroke:none"
           id="path244" />
        <path
           d="m 266.641,254.29 h -3.81 v -3.809 h 3.81 z"
           style="fill:#ffffff;fill-opacity:1;fill-rule:nonzero;stroke:none"
           id="path246" />
        <g
           id="g248"
           transform="translate(470.7081,122.8075)">
          <path
             d="m 0,0 c 0,0.841 -0.062,1.689 -0.157,2.546 -0.447,3.997 -1.636,7.555 -3.533,10.671 1.53,1.069 2.537,2.826 2.537,4.824 v 43.261 c 0,0.873 -0.143,1.753 -0.505,2.548 -1.088,2.387 -3.524,3.718 -5.97,3.467 l -7.531,-0.732 C -36.344,64.523 -56.628,60.08 -63.321,42.49 c -9.794,3.752 -22.075,3.808 -35.157,0.084 l -2.745,-0.782 c -5.09,7.406 -12.464,10.397 -21.942,8.894 -8.633,-1.368 -14.879,-5.73 -19.036,-13.312 l -27.09,-4.292 v 1.739 c 0,0.582 -0.068,1.167 -0.245,1.722 -0.906,2.836 -3.565,4.414 -6.23,4.154 l -7.532,-0.732 c -19.47,-1.897 -38.086,-6.036 -44.171,-22.525 -6.558,2.446 -14.207,3.254 -22.525,2.373 v 0.004 c 0,0.684 -0.09,1.373 -0.335,2.011 -1.083,2.815 -3.832,4.244 -6.491,3.82 l -46.445,-7.355 c -2.884,-0.458 -4.978,-2.91 -4.978,-5.831 v -3.75 c -9.798,3.473 -21.69,3.221 -34.189,-0.822 l -4.752,-1.538 c -2.435,-0.789 -4.086,-3.057 -4.086,-5.618 v -5.367 l -26.132,-4.139 V 1.726 c 0,0.877 -0.147,1.757 -0.514,2.553 -1.099,2.383 -3.523,3.686 -5.961,3.448 l -7.532,-0.734 c -25.214,-2.454 -48.768,-8.379 -50.373,-34.881 -0.036,-0.593 -0.057,-1.183 -0.065,-1.768 -0.001,-0.033 0,-4.281 0,-4.314 -0.11,-6.638 1.601,-12.692 4.964,-17.849 -2.201,-0.875 -3.741,-3.01 -3.741,-5.47 v -31.94 c 0,-1.636 0.687,-3.214 1.888,-4.328 1.092,-1.013 2.537,-1.575 4.017,-1.575 0.145,0 0.29,0.006 0.436,0.017 l 7.495,0.556 c 15.013,1.116 30.109,3.207 40.044,10.497 h 0.001 c 6.956,-6.01 16.048,-8.18 27.02,-6.444 8.389,1.328 15.132,4.964 20.068,10.814 l 23.289,3.687 c 2.885,0.458 4.978,2.91 4.978,5.831 v 12.358 c 1.077,0.306 2.126,0.645 3.145,1.016 v -3.06 c 0,-1.18 0.287,-2.362 0.934,-3.347 1.325,-2.018 3.629,-2.992 5.892,-2.633 l 29.858,4.729 v -3.653 c 0,-1.178 0.288,-2.359 0.934,-3.343 1.324,-2.017 3.63,-2.995 5.893,-2.633 l 23.067,3.653 c 0.541,0.086 1.055,0.242 1.532,0.459 1.248,-0.892 2.806,-1.271 4.354,-1.026 l 30.453,4.824 c 2.149,0.34 3.93,1.827 4.649,3.881 0.191,0.546 0.292,1.106 0.32,1.666 0.002,0.034 -0.002,4.28 0,4.314 0.016,0.253 0.014,0.505 -0.002,0.756 7.832,1.266 15.494,3.405 21.461,7.527 v -6.495 c 0,-0.921 0.165,-1.846 0.569,-2.674 1.202,-2.458 3.768,-3.678 6.248,-3.289 l 24.482,3.836 c 2.892,0.453 4.991,2.906 4.991,5.832 V -40 l 16.974,2.461 c 1.157,0.168 2.207,0.676 3.047,1.417 1.246,-1.829 3.464,-2.858 5.794,-2.497 l 9.044,1.422 v -2.339 c 0,-1.182 0.277,-2.368 0.918,-3.361 1.312,-2.039 3.636,-3.026 5.908,-2.665 l 23.068,3.654 c 0.541,0.086 1.054,0.242 1.532,0.459 1.248,-0.892 2.804,-1.272 4.353,-1.027 l 30.453,4.825 c 2.15,0.339 3.931,1.827 4.65,3.88 0.026,0.078 0.052,0.156 0.075,0.233 11.252,1.613 23.956,4.886 31.324,13.767 3.694,4.452 5.561,9.754 5.468,15.457 C -0.001,-4.28 0,-0.08 0,0"
             style="fill:#ffffff;fill-opacity:1;fill-rule:nonzero;stroke:none"
             id="path250" />
        </g>
        <g
           id="g252"
           transform="translate(466.672,124.9188)">
          <path
             d="m 0,0 c -0.906,8.096 -5.174,13.931 -13.008,17.766 1.101,0.09 2.294,0.171 3.587,0.239 l 6.505,0.342 c 1.062,0.055 1.895,0.933 1.895,1.997 v 38.987 c 0,1.182 -1.018,2.106 -2.193,1.99 l -7.531,-0.732 c -24.716,-2.405 -42.146,-7.862 -46.088,-25.621 -9.39,5.094 -22.422,5.761 -36.539,1.741 l -5.594,-1.594 c -3.35,6.166 -8.966,11.281 -19.553,9.604 -9.166,-1.452 -14.043,-6.588 -17.072,-13.001 L -169.158,26.4 v 6.31 c 0,1.182 -1.019,2.105 -2.194,1.99 l -7.532,-0.732 c -22.687,-2.209 -38.627,-7.294 -42.025,-24.036 -7.709,4.083 -17.822,5.224 -28.952,3.282 v 4.492 c 0,1.23 -1.099,2.168 -2.313,1.976 l -46.442,-7.356 c -0.972,-0.154 -1.688,-0.992 -1.688,-1.975 V 0.555 c -9.648,5.464 -22.87,6.045 -36.889,1.509 l -4.753,-1.538 c -0.825,-0.267 -1.384,-1.036 -1.384,-1.903 v -8.701 l -33.94,-5.376 v 15.193 c 0,1.182 -1.018,2.106 -2.193,1.99 l -7.532,-0.732 c -27.149,-2.643 -45.506,-8.968 -46.855,-31.235 -0.671,-10.95 4.047,-19.982 13.229,-25.837 -1.551,-0.209 -3.027,-0.401 -4.332,-0.569 l -5.987,-0.772 c -0.997,-0.129 -1.745,-0.979 -1.745,-1.984 v -27.526 c 0,-1.163 0.989,-2.081 2.149,-1.994 l 7.495,0.557 c 15.949,1.185 31.779,3.483 40.556,11.868 0.76,-0.863 1.574,-1.665 2.44,-2.405 6.034,-5.155 14.03,-6.985 23.748,-5.448 7.986,1.265 14.187,4.803 18.577,10.577 l 24.778,3.924 c 0.971,0.155 1.687,0.993 1.687,1.976 v 15.403 c 4.125,0.895 7.789,2.251 10.951,4.033 v -9.271 c 0,-1.23 1.099,-2.168 2.313,-1.976 l 34.372,5.444 v -8.368 c 0,-1.23 1.098,-2.168 2.312,-1.976 l 23.066,3.653 c 0.971,0.155 1.687,0.992 1.687,1.976 v 0.663 l 2.426,-2.596 c 0.454,-0.485 1.118,-0.714 1.774,-0.61 l 30.454,4.824 c 1.573,0.249 2.238,2.149 1.163,3.324 l -5.601,6.126 c 13.871,1.293 27.051,3.995 33.914,12.268 0.538,0.648 1.027,1.32 1.465,2.013 v -16.068 c 0,-1.228 1.097,-2.166 2.31,-1.975 l 24.483,3.836 c 0.974,0.152 1.69,0.99 1.69,1.975 v 10.854 l 20.315,2.945 c 0.884,0.129 1.575,0.827 1.695,1.712 l 0.694,5.133 c 0.11,0.816 0.313,1.881 0.59,3.288 l 1.558,0.246 c 0.263,-1.207 0.519,-2.426 0.71,-3.397 l 1.278,-6.479 c 0.208,-1.055 1.211,-1.756 2.273,-1.589 l 13.553,2.131 v -7.099 c 0,-1.229 1.099,-2.168 2.313,-1.975 l 23.065,3.653 c 0.972,0.154 1.688,0.992 1.688,1.976 v 0.663 l 2.426,-2.596 c 0.454,-0.485 1.118,-0.714 1.774,-0.61 l 30.453,4.824 c 1.573,0.249 2.238,2.148 1.163,3.324 l -0.268,0.294 c 13.598,1.6 26.045,4.805 32.76,12.899 C -0.912,-10.729 0.621,-5.551 0,0"
             style="fill:#000000;fill-opacity:1;fill-rule:nonzero;stroke:none"
             id="path254" />
        </g>
      </g>
    </g>
    <g
       id="g256">
      <g
         id="g258">
        <g
           id="g264">
          <g
             id="g266">
            <path
               d="m 417.922,153.729 c -0.677,-11.044 5.956,-17.837 16.674,-21.277 v 0 c 6.13,-1.913 10.066,-2.713 10.308,-5.007 v 0 c 0.547,-4.918 -11.62,-6.541 -25.801,-8.37 v 0 -14.095 c 11.838,0.88 40.549,2.96 38.758,18.953 v 0 c -0.634,5.669 -3.675,9.067 -9.891,11.588 v 0 c -3.24,1.321 -8.6,3.5 -10.413,4.237 v 0 c -4.172,1.697 -4.341,5.551 -1.45,7.687 v 0 c 2.711,2.022 9.102,3.724 20.678,4.332 v 0 24.907 c -32.08,-3.123 -38.142,-11.034 -38.863,-22.955 m -68.382,7.151 c -6.357,-1.006 -9.971,-4.054 -13.003,-15.447 v 0 c -2.978,-11.192 -6.249,-27.113 -8.896,-45.376 v 0 l 10.473,1.519 c 0.195,1.446 0.544,3.134 1.051,5.706 v 0 c 0.545,2.588 1.966,4.365 4.788,4.811 v 0 c 2.325,0.369 6.65,1.053 8.177,1.295 v 0 c 2.186,0.346 4.184,-1.529 4.886,-4.5 v 0 c 0.467,-1.98 1.07,-4.769 1.44,-6.645 v 0 l 13.899,2.186 c -1.693,13.729 -5.45,30.256 -9.051,42.314 v 0 c -3.17,10.622 -5.811,14.356 -11.255,14.356 v 0 c -0.776,0 -1.609,-0.076 -2.509,-0.219 m -7.767,-37.026 c 0.195,2.243 1.208,6.959 1.596,8.566 v 0 c 0.819,3.328 2.532,4.858 4.497,5.007 v 0 c 3.174,0.277 4.712,-2.151 5.937,-8.08 v 0 c 0.118,-0.553 0.448,-1.765 0.585,-3.37 v 0 c 0.272,-3.272 -0.738,-3.916 -3.193,-4.305 v 0 l -6.911,-1.095 c -0.168,-0.027 -0.329,-0.04 -0.483,-0.04 v 0 c -1.433,0 -2.22,1.15 -2.028,3.317 m 33.955,29.247 v -57.57 l 9.333,1.477 v 13.289 c 0,2.258 1.662,1.744 3.196,0.264 v 0 c 1.078,-1.043 7.558,-7.79 12.085,-12.632 v 0 l 14.249,2.256 c 0,0 -12.423,13.589 -13.855,14.948 v 0 c 8.343,2.515 14.786,10.178 14.798,19.294 v 0 c 0,13.808 -10.196,20.961 -24.609,20.961 v 0 c -4.688,0 -9.822,-0.757 -15.197,-2.287 m 9.346,-28.438 v 3.982 c 0,2.873 0.558,5.324 3.119,5.951 v 0 c 7.438,1.816 12.618,-1.765 12.618,-6.8 v 0 c 0,-4.704 -3.601,-7.664 -10.347,-8.76 v 0 c -0.374,-0.061 -0.73,-0.091 -1.067,-0.091 v 0 c -2.789,0 -4.323,2.042 -4.323,5.718 m -131.064,4.941 c -0.603,-9.843 5.31,-15.898 14.861,-18.962 v 0 c 5.464,-1.707 8.972,-2.421 9.188,-4.464 v 0 c 0.487,-4.383 -10.357,-5.83 -22.995,-7.46 v 0 -12.562 c 10.549,0.785 36.138,2.638 34.543,16.891 v 0 c -0.566,5.054 -3.276,8.081 -8.817,10.33 v 0 c -2.886,1.177 -7.664,3.119 -9.279,3.775 v 0 c -3.719,1.512 -3.869,4.947 -1.293,6.852 v 0 c 2.416,1.801 8.112,3.318 18.43,3.86 v 0 22.198 c -28.592,-2.782 -33.995,-9.834 -34.638,-20.458 m 38.407,11.932 V 118.94 l 6.549,1.038 c 3.971,0.629 5.613,-0.007 5.613,-7.038 v 0 -29.004 l 10.751,1.684 v 26.606 c 0,11.819 1.11,14.72 6.96,15.647 v 0 l 5.351,0.848 v 18.394 z M 175.234,129.405 V 75.252 l 32.659,5.172 v 9.022 c -4.295,-0.814 -13.143,-1.835 -17.039,-2.211 v 0 c -4.745,-0.452 -5.421,5.639 -0.173,6.991 v 0 c 3.012,0.768 8.519,1.68 12.831,2.58 v 0 6.948 c -3.931,-0.511 -9.23,-1.045 -13.42,-1.33 v 0 c -5.194,-0.369 -6.096,6.503 -0.208,8.291 v 0 c 3.722,1.133 11.514,2.663 18.06,3.609 v 0 20.262 z m 36.685,-1.484 v -57.57 l 9.333,1.479 v 13.288 c 0,2.258 1.661,1.745 3.195,0.262 v 0 c 1.079,-1.041 7.559,-7.787 12.086,-12.63 v 0 l 14.248,2.257 c 0,0 -12.422,13.589 -13.855,14.948 v 0 c 8.344,2.515 14.786,10.175 14.799,19.293 v 0 c 0,13.807 -10.195,20.96 -24.607,20.961 v 0 c -4.689,0 -9.823,-0.757 -15.199,-2.288 m 9.346,-28.436 v 3.982 c 0,2.872 0.557,5.323 3.118,5.949 v 0 c 7.438,1.818 12.619,-1.763 12.619,-6.798 v 0 c 0,-4.705 -3.601,-7.665 -10.348,-8.761 v 0 c -0.374,-0.06 -0.73,-0.09 -1.067,-0.09 v 0 c -2.788,0 -4.322,2.041 -4.322,5.718 m -89.057,19.063 V 60.64 l 14.343,2.272 v 13.601 c 0,2.487 0.618,3.678 2.101,3.832 v 0 c 13.368,1.393 22.889,7.413 22.889,21.201 v 0 c 0,11.488 -9.363,19.627 -23.955,19.627 v 0 c -4.641,0 -9.811,-0.824 -15.378,-2.625 m 14.329,-28.255 v 9.246 c 0,2.611 1.443,4.154 4.314,4.317 v 0 c 5.756,0.325 8.352,-3.229 8.352,-7.612 v 0 c 0,-3.655 -2.156,-7.922 -7.858,-8.909 v 0 c -0.544,-0.093 -1.047,-0.14 -1.506,-0.14 v 0 c -2.116,0 -3.302,0.999 -3.302,3.098 M 41.672,94.137 C 40.994,83.093 47.629,76.298 58.347,72.86 v 0 c 6.13,-1.914 10.066,-2.714 10.309,-5.006 v 0 c 0.546,-4.92 -11.62,-6.541 -25.802,-8.372 v 0 -14.093 c 11.836,0.879 40.548,2.958 38.757,18.952 v 0 c -0.633,5.668 -3.675,9.066 -9.891,11.588 v 0 c -3.239,1.322 -8.598,3.501 -10.412,4.237 v 0 c -4.173,1.696 -4.341,5.551 -1.451,7.688 v 0 c 2.712,2.02 9.103,3.723 20.679,4.331 v 0 24.907 C 48.455,113.969 42.394,106.059 41.672,94.137 m 73.845,10.488 c 0,0 0.013,-23.849 -0.345,-31.766 v 0 C 114.637,61.041 102.408,59.071 101.499,70.875 v 0 c -0.586,7.617 -0.772,29.967 -0.772,29.967 v 0 L 84.935,98.34 V 75.803 c 0,-24.175 11.81,-28.414 24.053,-26.475 v 0 c 13.442,2.129 19.047,12.896 19.047,32.339 v 0 24.941 z"
               style="fill:url(#linearGradient290);stroke:none"
               id="path292" />
          </g>
        </g>
      </g>
    </g>
    <g
       id="g294">
      <g
         id="g296"
         clip-path="url(#clipPath300)">
        <g
           id="g302"
           transform="translate(386.1075,233.0868)">
          <path
             d="M 0,0 C -0.03,-29.969 -1.091,-27.617 -12.028,-5.594 L -16.84,-6.355 V -52.46 l 5.77,0.919 c 0.134,20.696 0.181,20.783 11.258,3.708 l 6.834,1.082 V 1.112 Z"
             style="fill:#7c4503;fill-opacity:1;fill-rule:nonzero;stroke:none"
             id="path304" />
        </g>
        <g
           id="g306"
           transform="translate(350.2853,185.743)">
          <path
             d="m 0,0 15.615,2.473 v 11.358 c -0.481,-0.076 -0.922,-0.142 -1.356,-0.206 v 0.021 8.461 0.008 c 0.432,0.073 0.879,0.147 1.356,0.223 V 39.077 L 0,36.593 Z"
             style="fill:#7c4503;fill-opacity:1;fill-rule:nonzero;stroke:none"
             id="path308" />
        </g>
        <g
           id="g310"
           transform="translate(341.3488,229.7186)">
          <path
             d="m 0,0 c -2.095,-12.469 -4.434,-20.251 -5.476,-20.418 -1.611,-0.258 -3.8,8.347 -5.203,16.799 l -5.165,-0.818 v -5.001 c 2.089,-14.746 5.027,-23.19 7.823,-28.422 l 6.78,1.074 c 3.458,7.674 5.679,16.391 8.427,32.924 v 5 z"
             style="fill:#7c4503;fill-opacity:1;fill-rule:nonzero;stroke:none"
             id="path312" />
        </g>
        <g
           id="g314"
           transform="translate(316.9337,200.0009)">
          <path
             d="m 0,0 c -1.01,-0.161 -1.726,-0.271 -2.22,-0.25 0.646,2.138 1.445,2.87 2.179,2.987 C 0.93,2.893 1.518,2.519 2.186,0.444 1.692,0.273 0.985,0.157 0,0 m 0.273,21.261 c -3.099,-0.495 -4.459,-2.874 -11.686,-35.845 v -5 l 5.661,0.897 c 1.615,7.271 1.763,8.218 5.67,8.841 4.121,0.657 4.261,0.073 6.029,-6.988 l 7.879,1.248 v 5 C 5.878,20.895 4.07,21.863 0.273,21.261"
             style="fill:#7c4503;fill-opacity:1;fill-rule:nonzero;stroke:none"
             id="path316" />
        </g>
        <g
           id="g318"
           transform="translate(288.7911,183.7987)">
          <path
             d="m 0,0 15.614,2.473 v 11.358 c -0.481,-0.076 -0.921,-0.142 -1.355,-0.206 v 0.021 8.461 0.007 c 0.431,0.073 0.879,0.148 1.355,0.223 V 39.076 L 0,36.592 Z"
             style="fill:#7c4503;fill-opacity:1;fill-rule:nonzero;stroke:none"
             id="path320" />
        </g>
        <g
           id="g322"
           transform="translate(275.7462,214.3016)">
          <path
             d="m 0,0 c 0,-2.919 -2.159,-5.628 -4.815,-6.048 -2.661,-0.422 -4.815,1.6 -4.815,4.52 v 9.877 l -6.348,-1.006 v -53.288 l 8.736,1.383 v 15.766 c 0,3.012 2.226,5.812 4.965,6.245 2.75,0.436 4.969,-1.654 4.969,-4.662 v -11.549 l 6.426,1.018 V 16.963 L 0,15.52 Z"
             style="fill:#7c4503;fill-opacity:1;fill-rule:nonzero;stroke:none"
             id="path324" />
        </g>
        <g
           id="g326"
           transform="translate(231.4005,196.119)">
          <path
             d="m 0,0 c -1.014,-0.162 -2.832,0.522 -8.841,15.228 l -6.472,-1.026 v -40.57 l 6.025,0.955 c 0,10.243 0.166,13.947 0.721,14.035 0.784,0.124 1.876,-1.268 5.358,-9.819 l 3.235,0.512 c 3.671,9.52 5.248,12.285 5.82,12.375 0.821,0.13 0.984,-5.101 0.984,-16.396 l 6.027,0.954 V 20.526 L 8.896,19.898 C 2.354,1.639 1.243,0.198 0,0"
             style="fill:#7c7601;fill-opacity:1;fill-rule:nonzero;stroke:none"
             id="path328" />
        </g>
        <g
           id="g330"
           transform="translate(205.215,190.8417)">
          <path
             d="m 0,0 c 0,-2.172 -1.603,-4.193 -3.579,-4.506 -1.983,-0.314 -3.585,1.193 -3.585,3.364 V 6.89 l -5.444,-0.863 v -38.704 l 7.221,1.145 v 8.823 c 0,2.239 1.652,4.322 3.697,4.647 2.044,0.323 3.699,-1.232 3.699,-3.47 v -6.981 l 5.501,0.871 V 12.936 L 0,11.747 Z"
             style="fill:#7c7601;fill-opacity:1;fill-rule:nonzero;stroke:none"
             id="path332" />
        </g>
        <g
           id="g334"
           transform="translate(169.4005,185.6288)">
          <path
             d="m 0,0 3.735,0.592 c 3.26,0.516 4.062,-0.28 4.062,-3.286 v -23.52 l 6.043,0.957 V 0.815 c 0,2.174 0.801,4.062 4.06,4.581 l 3.865,0.612 v 12.41 L 0,14.971 Z"
             style="fill:#7c7601;fill-opacity:1;fill-rule:nonzero;stroke:none"
             id="path336" />
        </g>
        <g
           id="g338"
           transform="translate(161.5548,184.7782)">
          <path
             d="m 0,0 c 0,-5.591 -1.555,-7.827 -3.467,-8.13 -1.912,-0.303 -3.462,1.263 -3.462,5.447 V 4.659 L -14.439,3.47 V -7.75 c 0,-10.503 3.281,-13.478 7.958,-13.01 -1.083,-0.51 -2.232,-0.885 -3.411,-1.071 l -4.547,-0.721 v -14.532 l 3.582,0.567 c 8.789,1.393 16.301,8.039 16.301,23.805 V 10.344 L 0,9.481 Z"
             style="fill:#7c7601;fill-opacity:1;fill-rule:nonzero;stroke:none"
             id="path340" />
        </g>
        <g
           id="g342"
           transform="translate(136.2462,185.6591)">
          <path
             d="m 0,0 c 0,-2.173 -1.604,-4.188 -3.581,-4.502 -1.979,-0.313 -3.582,1.189 -3.582,3.361 v 8.035 l -5.446,-0.863 v -40.556 l 7.222,1.144 v 10.67 c 0,2.244 1.656,4.325 3.697,4.649 2.04,0.323 3.698,-1.229 3.698,-3.471 v -6.98 l 5.499,0.871 V 12.94 L 0,11.752 Z"
             style="fill:#7c7601;fill-opacity:1;fill-rule:nonzero;stroke:none"
             id="path344" />
        </g>
        <g
           id="g346"
           transform="translate(103.6857,177.6552)">
          <path
             d="m 0,0 c 3.092,-0.491 5.021,-2.349 5.734,-4.927 -0.689,-2.786 -2.519,-5.261 -5.656,-6.815 -3.66,-1.815 -4.254,-0.375 -4.347,5.019 C -4.172,-1.171 -3.548,0.563 0,0 m -11.438,19.11 v -58.029 l 7.153,1.133 v 5 c 0,1.581 -0.01,2.975 -0.02,4.212 0.037,1.285 0.134,1.97 0.363,2.082 0.545,0.266 2.006,-2.996 8.022,-11.734 l 12.007,1.902 v 5 l -7.164,11.191 c 5.285,4.807 8.028,12.009 7.931,18.738 0,0.034 0.001,4.868 0,4.901 -0.12,11.848 -9.017,22.268 -28.292,15.604"
             style="fill:#7c7601;fill-opacity:1;fill-rule:nonzero;stroke:none"
             id="path348" />
        </g>
        <g
           id="g350"
           transform="translate(386.1075,233.0868)">
          <path
             d="M 0,0 C -0.03,-29.969 -1.091,-27.617 -12.028,-5.594 L -16.84,-6.355 V -47.46 l 5.77,0.919 c 0.134,20.696 0.182,20.783 11.258,3.708 l 6.834,1.082 V 1.112 Z"
             style="fill:#fe9502;fill-opacity:1;fill-rule:nonzero;stroke:none"
             id="path352" />
        </g>
        <g
           id="g354"
           transform="translate(365.9005,213.0809)">
          <path
             d="M 0,0 V 11.739 L -15.615,9.254 V -22.338 L 0,-19.865 v 6.358 c -9.67,-1.531 -9.67,-0.58 -9.67,0.529 0,1.108 0.015,2.072 8.323,3.391 v 5.326 c -8.304,-1.318 -8.323,-0.133 -8.323,1.05 0,1.182 1.221,1.872 9.67,3.211"
             style="fill:#fe9502;fill-opacity:1;fill-rule:nonzero;stroke:none"
             id="path356" />
        </g>
        <g
           id="g358"
           transform="translate(341.3488,229.7186)">
          <path
             d="m 0,0 c -2.095,-12.469 -4.434,-20.251 -5.476,-20.418 -1.611,-0.258 -3.8,8.347 -5.203,16.799 l -5.165,-0.818 c 2.089,-14.747 5.027,-23.191 7.823,-28.423 l 6.78,1.074 c 3.458,7.674 5.679,16.391 8.427,32.924 z"
             style="fill:#fe9502;fill-opacity:1;fill-rule:nonzero;stroke:none"
             id="path360" />
        </g>
        <g
           id="g362"
           transform="translate(316.9337,200.0009)">
          <path
             d="m 0,0 c -3.576,-0.568 -3.575,-0.569 -2.416,4.056 0.674,2.692 1.564,3.552 2.375,3.681 1.063,0.17 1.667,-0.27 2.42,-2.919 C 3.587,0.572 3.585,0.571 0,0 m 0.273,21.261 c -3.099,-0.495 -4.459,-2.874 -11.686,-35.845 l 5.661,0.897 c 1.615,7.271 1.763,8.218 5.67,8.841 4.121,0.657 4.261,0.073 6.029,-6.988 l 7.879,1.248 C 5.878,20.895 4.07,21.863 0.273,21.261"
             style="fill:#fe9502;fill-opacity:1;fill-rule:nonzero;stroke:none"
             id="path364" />
        </g>
        <g
           id="g366"
           transform="translate(304.4054,211.1356)">
          <path
             d="M 0,0 V 11.739 L -15.614,9.255 V -22.337 L 0,-19.864 v 6.358 c -9.669,-1.531 -9.669,-0.58 -9.669,0.528 0,1.108 0.005,2.068 8.314,3.387 v 5.562 c -8.305,-1.319 -8.311,-0.602 -8.311,0.581 0,1.18 1.218,2.11 9.666,3.448"
             style="fill:#fe9502;fill-opacity:1;fill-rule:nonzero;stroke:none"
             id="path368" />
        </g>
        <g
           id="g370"
           transform="translate(275.7462,229.8212)">
          <path
             d="m 0,0 v -15.52 c 0,-2.918 -2.159,-5.627 -4.815,-6.047 -2.661,-0.422 -4.815,1.599 -4.815,4.519 v 9.877 l -6.348,-1.006 v -48.288 l 8.736,1.384 v 15.766 c 0,3.011 2.226,5.811 4.965,6.245 2.75,0.435 4.969,-1.655 4.969,-4.662 v -11.549 l 6.426,1.017 V 1.444 Z"
             style="fill:#fe9502;fill-opacity:1;fill-rule:nonzero;stroke:none"
             id="path372" />
        </g>
        <g
           id="g374"
           transform="translate(240.296,216.0175)">
          <path
             d="m 0,0 c -6.541,-18.26 -7.652,-19.7 -8.896,-19.898 -1.013,-0.163 -2.832,0.522 -8.84,15.227 l -6.473,-1.025 v -35.571 l 6.025,0.954 c 0,10.245 0.166,13.949 0.721,14.037 0.784,0.124 1.876,-1.269 5.359,-9.82 l 3.235,0.513 c 3.671,9.52 5.248,12.284 5.819,12.375 0.821,0.13 0.985,-5.102 0.985,-16.396 l 6.027,0.954 V 0.628 Z"
             style="fill:#fefa01;fill-opacity:1;fill-rule:nonzero;stroke:none"
             id="path376" />
        </g>
        <g
           id="g378"
           transform="translate(205.215,202.5887)">
          <path
             d="m 0,0 v -11.747 c 0,-2.172 -1.603,-4.193 -3.579,-4.506 -1.983,-0.314 -3.585,1.193 -3.585,3.364 v 8.032 l -5.444,-0.863 v -33.704 l 7.221,1.145 v 8.823 c 0,2.239 1.652,4.322 3.697,4.646 2.044,0.324 3.699,-1.231 3.699,-3.469 v -6.981 l 5.501,0.871 V 1.188 Z"
             style="fill:#fefa01;fill-opacity:1;fill-rule:nonzero;stroke:none"
             id="path380" />
        </g>
        <g
           id="g382"
           transform="translate(169.4005,200.5995)">
          <path
             d="m 0,0 v -9.971 l 3.735,0.592 c 3.26,0.517 4.062,-0.279 4.062,-3.286 v -23.52 l 6.043,0.957 v 26.073 c 0,2.174 0.801,4.061 4.06,4.58 l 3.865,0.612 v 7.41 z"
             style="fill:#fefa01;fill-opacity:1;fill-rule:nonzero;stroke:none"
             id="path384" />
        </g>
        <g
           id="g386"
           transform="translate(161.5548,194.2596)">
          <path
             d="m 0,0 v -9.481 c 0,-5.591 -1.555,-7.828 -3.467,-8.13 -1.912,-0.303 -3.462,1.262 -3.462,5.447 v 7.342 l -7.51,-1.19 v -6.219 c 0,-10.961 3.569,-13.734 8.573,-12.939 2.22,0.353 4.73,1.502 6.307,3.537 -0.431,-4.5 -5.132,-8.856 -10.333,-9.679 l -4.547,-0.721 v -9.531 l 3.582,0.566 c 8.789,1.393 16.301,8.039 16.301,23.805 V 0.862 Z"
             style="fill:#fefa01;fill-opacity:1;fill-rule:nonzero;stroke:none"
             id="path388" />
        </g>
        <g
           id="g390"
           transform="translate(136.2462,197.411)">
          <path
             d="m 0,0 v -11.752 c 0,-2.173 -1.604,-4.188 -3.581,-4.502 -1.979,-0.313 -3.582,1.189 -3.582,3.361 v 8.035 l -5.446,-0.863 v -35.556 l 7.222,1.144 v 10.67 c 0,2.244 1.656,4.325 3.697,4.649 2.04,0.323 3.698,-1.229 3.698,-3.471 v -6.98 l 5.499,0.871 V 1.188 Z"
             style="fill:#fefa01;fill-opacity:1;fill-rule:nonzero;stroke:none"
             id="path392" />
        </g>
        <g
           id="g394"
           transform="translate(103.7638,165.913)">
          <path
             d="m 0,0 c -4.208,-2.085 -4.363,0.122 -4.363,7.703 0,7.398 0.283,9.675 4.285,9.039 C 3.9,16.11 5.98,13.23 5.98,9.44 5.98,5.626 4.097,2.029 0,0 m -11.516,30.853 v -53.03 l 7.153,1.133 c 0,7.472 -0.208,11.024 0.342,11.294 0.545,0.267 2.007,-2.996 8.023,-11.733 L 16.009,-19.582 6.73,-5.089 C 23.786,6.887 20.037,41.763 -11.516,30.853"
             style="fill:#fefa01;fill-opacity:1;fill-rule:nonzero;stroke:none"
             id="path396" />
        </g>
      </g>
    </g>
  </g>
</svg>
