<?xml version="1.0" encoding="UTF-8" standalone="no"?>
<!-- Created with Inkscape (http://www.inkscape.org/) -->

<svg
   version="1.1"
   id="svg2"
   width="743.992"
   height="634.17499"
   viewBox="0 0 743.99201 634.17499"
   sodipodi:docname="Rhythm Heaven Heartbeat.svg"
   inkscape:version="1.3.2 (091e20e, 2023-11-25, custom)"
   xml:space="preserve"
   inkscape:export-filename="Rhythm Heaven Heartbeat.png"
   inkscape:export-xdpi="645.29724"
   inkscape:export-ydpi="645.29724"
   xmlns:inkscape="http://www.inkscape.org/namespaces/inkscape"
   xmlns:sodipodi="http://sodipodi.sourceforge.net/DTD/sodipodi-0.dtd"
   xmlns:xlink="http://www.w3.org/1999/xlink"
   xmlns="http://www.w3.org/2000/svg"
   xmlns:svg="http://www.w3.org/2000/svg"><defs
     id="defs6"><linearGradient
       id="linearGradient34"
       inkscape:collect="always"><stop
         style="stop-color:#ff0049;stop-opacity:1;"
         offset="0"
         id="stop35" /><stop
         style="stop-color:#ff5756;stop-opacity:1;"
         offset="0.1913386"
         id="stop37" /><stop
         style="stop-color:#ff567d;stop-opacity:1;"
         offset="0.75"
         id="stop38" /><stop
         style="stop-color:#ff007d;stop-opacity:1;"
         offset="1"
         id="stop36" /></linearGradient><linearGradient
       id="linearGradient31"
       inkscape:collect="always"><stop
         style="stop-color:#ff1856;stop-opacity:1;"
         offset="0"
         id="stop31" /><stop
         style="stop-color:#ff6a85;stop-opacity:1;"
         offset="0.36278594"
         id="stop33" /><stop
         style="stop-color:#ff56af;stop-opacity:1;"
         offset="0.75762516"
         id="stop34" /><stop
         style="stop-color:#ff007d;stop-opacity:1;"
         offset="1"
         id="stop32" /></linearGradient><clipPath
       clipPathUnits="userSpaceOnUse"
       id="clipPath16"><path
         d="M 0,372.266 H 500 V 0 H 0 Z"
         id="path14" /></clipPath><linearGradient
       inkscape:collect="always"
       xlink:href="#linearGradient31"
       id="linearGradient32"
       x1="-21.613281"
       y1="253.05078"
       x2="610.66815"
       y2="190.04948"
       gradientUnits="userSpaceOnUse"
       gradientTransform="translate(52.295126,-13.271484)" /><linearGradient
       inkscape:collect="always"
       xlink:href="#linearGradient34"
       id="linearGradient36"
       x1="-12.434469"
       y1="-134.23137"
       x2="513.95807"
       y2="-134.23137"
       gradientUnits="userSpaceOnUse"
       gradientTransform="translate(27.615841,161.59522)" /></defs><sodipodi:namedview
     id="namedview4"
     pagecolor="#ffffff"
     bordercolor="#000000"
     borderopacity="0.25"
     inkscape:showpageshadow="2"
     inkscape:pageopacity="0.0"
     inkscape:pagecheckerboard="0"
     inkscape:deskcolor="#d1d1d1"
     inkscape:zoom="0.9047431"
     inkscape:cx="381.32372"
     inkscape:cy="406.19265"
     inkscape:window-width="1920"
     inkscape:window-height="974"
     inkscape:window-x="-11"
     inkscape:window-y="-11"
     inkscape:window-maximized="1"
     inkscape:current-layer="g8" /><g
     id="g8"
     inkscape:groupmode="layer"
     inkscape:label="Layer 1"
     transform="matrix(1.3333333,0,0,-1.3333333,0,496.35467)"><path
       id="path27"
       style="fill:#000000;fill-opacity:1;stroke:url(#linearGradient32);stroke-width:37;stroke-linejoin:miter;stroke-dasharray:none"
       d="M 523.73263,18.5 A 116.27972,116.27972 0 0 0 424.04318,75.337891 113.65289,114.28392 0 0 0 351.37325,48.904297 113.65289,114.28392 0 0 0 245.04708,123.6504 116.27972,116.27972 0 0 0 165.46115,92.101566 116.27972,116.27972 0 0 0 49.181845,208.38282 a 116.27972,116.27972 0 0 0 94.847655,114.0332 112.94637,112.94637 0 0 0 -3.24219,25.69727 112.94637,112.94637 0 0 0 112.94532,112.94531 112.94637,112.94637 0 0 0 99.78516,-60.61524 110.72417,110.72417 0 0 0 62.4375,19.50391 110.72417,110.72417 0 0 0 95.17382,-54.57227 101.67764,102.24218 0 0 0 32.76172,5.6836 A 101.67764,102.24218 0 0 0 645.56857,268.81641 101.67764,102.24218 0 0 0 619.46701,200.43164 116.27972,116.27972 0 0 0 640.01193,134.7793 116.27972,116.27972 0 0 0 523.73263,18.5 Z"
       transform="matrix(0.75000002,0,0,-0.75000002,0,372.26601)" /><path
       style="color:#000000;fill:#ffffff;-inkscape-stroke:none"
       d="M 523.7207,13 C 482.93946,13.087294 445.07653,33.61135 422.63477,67.341797 402.09133,51.902161 377.13951,43.409588 351.375,43.404297 h -0.008 -0.01 C 304.1783,43.533142 261.80609,71.656212 242.84766,114.54492 221.10919,96.607848 193.80761,86.6134 165.46289,86.601562 h -0.002 C 98.268612,86.601802 43.680754,141.19049 43.681641,208.38281 v 0.006 0.006 c 0.123872,56.62216 39.327102,105.36654 93.994139,118.17969 -1.38765,7.08478 -2.31212,14.25371 -2.38867,21.48047 v 0.0293 0.0293 c 6.1e-4,65.35005 53.09526,118.44471 118.44531,118.44531 h 0.008 0.008 c 41.97043,-0.11396 80.55906,-22.46545 101.70117,-58.38476 18.17501,11.17205 39.07951,17.21111 60.49023,17.27344 h 0.0137 0.0156 c 39.61437,-0.0916 76.31394,-20.39761 97.56445,-53.59571 9.83441,2.99288 20.02961,4.63853 30.32032,4.70703 h 0.0195 0.0176 c 59.14393,6e-5 107.17775,-48.31939 107.17774,-107.74218 -0.003,-25.1886 -8.87603,-49.47419 -24.83789,-68.78321 12.45878,-19.46781 19.21209,-42.06794 19.28125,-65.23828 v -0.008 -0.008 C 645.51148,67.587769 590.92395,13.000243 523.73242,13 h -0.006 z"
       id="path3"
       sodipodi:nodetypes="scscscssscscccsscscscscscsccscsscs"
       transform="matrix(0.75000002,0,0,-0.75000002,0,372.26601)" /><path
       id="path1"
       style="color:#000000;fill:#000000;-inkscape-stroke:none"
       d="M 523.73242 24 C 484.74878 24.087577 448.69811 44.645007 428.76953 78.150391 L 425.46875 83.701172 L 420.51367 79.556641 C 401.09001 63.305254 376.63238 54.409497 351.37305 54.404297 C 306.18034 54.534258 265.85766 82.872845 250.21094 125.54297 L 247.3457 133.35742 L 241.28125 127.6582 C 220.7483 108.36027 193.63721 97.613332 165.45898 97.601562 C 104.21646 97.602845 54.687241 147.12982 54.681641 208.37109 C 54.681645 208.37309 54.681636 208.37495 54.681641 208.37695 L 54.681641 208.38281 C 54.803716 261.62896 92.707851 307.19561 145.04297 317.00977 L 150.75586 318.08203 L 149.37109 323.72656 C 147.41101 331.7217 146.37816 339.91512 146.28906 348.14648 C 146.30775 407.53621 194.33841 455.55804 253.73242 455.55859 C 293.63006 455.44446 330.15854 433.25231 348.64453 397.89453 L 351.51953 392.39258 L 356.63477 395.91211 C 374.09102 407.92213 394.7648 414.38207 415.95312 414.44727 C 453.15366 414.35782 487.52285 394.64845 506.38867 362.58594 L 508.68164 358.68945 L 512.94727 360.18359 C 522.90555 363.67028 533.36494 365.48629 543.9082 365.55859 C 597.06605 365.54902 640.06836 322.32116 640.06836 268.81641 C 640.06557 244.91186 631.26554 221.86018 615.36914 204.09961 L 612.48242 200.87305 L 614.93945 197.31055 C 627.6202 178.91672 634.44192 157.12025 634.51172 134.7793 C 634.5115 73.536581 584.98534 24.0066 523.74414 24 L 523.73242 24 z "
       transform="matrix(0.75000002,0,0,-0.75000002,0,372.26601)" /><path
       d="m 418.72153,217.51287 c 0,0 -0.11239,-29.40021 -0.47834,-34.57209 -0.57186,-8.07881 -2.7424,-8.29551 -4.58923,-7.08346 -3.6856,2.4178 -10.57304,16.18729 -16.73847,28.1612 l -8.99594,-2.07703 v -74.40148 l 11.00013,2.54008 0.0369,18.87843 c 0.0188,9.69008 2.66417,10.32038 6.50981,6.80023 2.91772,-2.67046 6.88744,-8.56165 13.14279,-18.57811 l 14.55624,3.36189 v 80.30527 z"
       style="fill:#f15a22;fill-opacity:1;fill-rule:nonzero;stroke:none;stroke-width:0.899144"
       id="path36" /><path
       d="m 363.19848,144.33179 c -0.33358,-0.002 -2.80443,0.0827 -3.06878,1.96733 -0.15286,1.09157 0.37045,2.11659 1.68949,2.92312 2.06174,1.2615 9.19824,3.31245 16.04793,4.91921 v 9.47159 c 0,0 -12.4019,-2.98426 -16.21697,-2.4169 -1.15899,0.17174 -1.93046,0.78496 -2.08331,1.85494 -0.15736,1.09426 0.39382,2.08062 1.68949,2.92311 3.48778,2.27304 19.14548,5.65023 19.14548,5.65023 v 21.8564 l -32.23882,-7.44312 v -58.26185 l 32.91498,7.59867 v 12.10518 c -8.78555,-1.9961 -14.7226,-3.13082 -17.87949,-3.14791"
       style="fill:#f15a22;fill-opacity:1;fill-rule:nonzero;stroke:none;stroke-width:0.899144"
       id="path40" /><path
       d="m 327.55847,187.8003 c 0,0 -3.49228,-23.0091 -6.59342,-33.64329 -0.88566,-3.03731 -3.02742,-7.68588 -5.94065,-1.03941 -1.04391,2.38094 -4.14056,13.50425 -6.41359,27.8438 l -10.05783,-2.32159 c 0.88026,-9.86001 5.70867,-36.49086 12.14114,-52.0056 l 19.50604,4.50291 c 7.17967,19.00161 11.48746,39.06962 12.95217,60.26335 z"
       style="fill:#f15a22;fill-opacity:1;fill-rule:nonzero;stroke:none;stroke-width:0.899144"
       id="path44" /><path
       d="m 284.33895,123.18608 c -1.55372,-0.33808 -5.08736,-1.23362 -6.89375,-1.5717 -1.72904,-0.33808 -2.73879,0.63659 -2.52479,3.10384 0.19422,2.3081 1.20755,7.20125 1.59238,8.85298 0.85059,3.65412 2.52121,5.17817 4.48584,5.45151 2.51939,0.35156 4.71961,-1.84954 5.92356,-7.81896 0.11689,-0.57725 0.41001,-1.77491 0.60243,-3.40146 0.23198,-1.97632 -0.7382,-3.9994 -3.18567,-4.61621 m 8.59761,32.98421 c -4.88145,8.99324 -10.55865,7.12841 -13.46738,6.16633 -3.81057,-1.2606 -7.19405,-3.21804 -10.73398,-17.25728 -3.71976,-14.75855 -7.7704,-45.760141 -7.7704,-45.760141 l 10.21337,2.357551 1.0493,5.87771 c 0.50712,2.8386 2.31441,4.64228 5.06758,5.45331 0,0 7.91427,2.05364 10.6153,2.36115 1.14102,0.12947 2.48163,-0.77146 2.87186,-2.55806 l 1.37929,-6.32369 13.90886,3.21085 c 0,0 -6.91892,35.01987 -13.1338,46.47227"
       style="fill:#f15a22;fill-opacity:1;fill-rule:nonzero;stroke:none;stroke-width:0.899144"
       id="path48" /><path
       d="m 238.41237,111.48057 c -0.33359,-0.002 -2.80533,0.0827 -3.06878,1.96733 -0.15285,1.09247 0.37134,2.11748 1.68859,2.92312 2.06264,1.26239 9.19915,3.31334 16.04883,4.91921 v 9.47249 c 0,0 -12.4028,-2.98426 -16.21696,-2.4169 -1.159,0.17174 -1.93047,0.78406 -2.08422,1.85494 -0.15645,1.09336 0.39473,2.07972 1.68949,2.92311 3.48868,2.27214 19.14638,5.64932 19.14638,5.64932 v 23.55848 l -32.23882,-7.44311 V 96.625809 l 32.91407,7.599571 v 10.404 c -8.78464,-1.99611 -14.72258,-3.13083 -17.87858,-3.14881"
       style="fill:#f15a22;fill-opacity:1;fill-rule:nonzero;stroke:none;stroke-width:0.899144"
       id="path52" /><path
       d="m 198.2903,160.08795 c 0.31021,-11.60795 0.18523,-20.29728 -1.40715,-25.99965 -0.96838,-3.46351 -3.09755,-6.0989 -5.94155,-8.095 -2.89614,-2.03297 -5.80038,-2.92312 -8.64347,-2.97887 -3.468,-0.0693 -5.97392,1.28039 -6.3066,4.91832 -0.50711,5.53694 -0.7328,13.27766 -0.56376,22.97494 l -12.58532,-2.90514 V 62.273645 l 17.28785,3.990401 c -0.31021,10.934493 0.0629,19.044773 1.40715,24.061099 0.91713,3.417644 3.42485,6.311094 5.94155,8.010474 2.9411,1.986211 5.79409,3.017531 8.64347,3.064281 3.4626,0.0557 5.98021,-1.550121 6.3066,-5.003731 0.47924,-5.05949 0.70402,-12.35874 0.56286,-21.662184 l 12.86766,2.970773 v 86.440132 z"
       style="fill:#f15a22;fill-opacity:1;fill-rule:nonzero;stroke:none;stroke-width:0.899144"
       id="path56" /><path
       d="m 421.00177,232.1601 v 78.5628 l -10.73982,-2.47937 c -5.69592,-18.80912 -8.9191,-28.00549 -11.72779,-35.75871 -4.7865,-13.19175 -9.75091,-8.01063 -12.06467,-4.33132 -2.6904,4.31145 -6.34888,12.69965 -12.69776,28.06605 l -15.68342,-3.62063 v -72.69466 l 13.00532,3.00269 c -0.0994,11.76753 0.10694,18.62553 0.74003,21.73042 0.57347,2.78881 2.25508,3.18437 3.95563,0.41543 1.40434,-2.27496 3.61968,-7.19962 8.02955,-17.32623 l 8.72226,2.01378 c 4.80638,12.91542 7.39646,19.42612 9.23706,22.6105 1.48289,2.59103 4.3105,4.41081 5.16219,-0.37569 0.65202,-3.61969 0.59335,-10.90354 0.57253,-22.92941 z"
       style="fill:#faa61a;fill-opacity:1;fill-rule:nonzero;stroke:none;stroke-width:0.946323"
       id="path60" /><path
       d="m 335.92599,280.3287 v -22.63699 c -0.75043,-7.30278 -13.67532,-10.39442 -14.59136,-2.72542 -0.31039,3.41529 -0.47411,8.13271 -0.47411,18.20348 l -10.86,-2.50681 v -67.29872 l 14.8904,3.43704 v 16.10926 c 0.90563,11.65019 14.40682,12.29653 15.64934,4.03039 0.41733,-2.60522 0.37853,-6.72268 0.37853,-15.22161 l 10.86001,2.50682 v 69.76199 z"
       style="fill:#faa61a;fill-opacity:1;fill-rule:nonzero;stroke:none;stroke-width:0.946323"
       id="path64" /><path
       d="M 261.86929,270.74444 V 243.0096 l 10.01873,2.31376 c 3.99348,0.92171 5.39593,0.0738 5.36659,-7.94817 v -35.64232 l 11.87068,2.74055 v 32.98315 c 0.0823,14.15889 1.74408,17.08965 8.78567,18.71544 l 6.28737,1.45165 v 22.89346 z"
       style="fill:#faa61a;fill-opacity:1;fill-rule:nonzero;stroke:none;stroke-width:0.946323"
       id="path68" /><path
       d="m 256.00701,260.38759 -12.65991,-2.92224 c 0,0 -0.28863,-12.75928 -0.77977,-22.26794 -0.7334,-13.48794 -15.15537,-17.68394 -15.95501,-3.96225 -0.36528,6.99522 -0.48168,20.73299 -0.48168,20.73299 l -15.26798,-3.52505 v -6.48894 c 0,-25.26777 3.13138,-34.1793 18.16657,-32.19391 3.55912,0.47032 6.25993,1.38257 9.26072,3.54587 0.19494,0.12302 0.3861,0.1041 0.54129,0 0.32175,-0.23185 0.66621,-0.88197 0.13533,-2.53141 -2.86168,-8.88503 -27.25695,-11.20258 -27.25695,-11.20258 l -0.007,-20.02798 c 14.01031,2.06204 29.30384,5.01835 37.26147,18.33879 3.00552,4.95685 7.04349,14.98125 7.04254,62.50465"
       style="fill:#faa61a;fill-opacity:1;fill-rule:nonzero;stroke:none;stroke-width:0.946323"
       id="path72" /><path
       d="m 188.75655,249.66054 v -21.51371 c -0.71258,-6.94033 -12.9968,-9.87866 -13.86742,-2.59008 -0.29525,3.24589 -0.45045,7.72956 -0.45045,17.30068 l -10.3206,-2.38284 v -63.95915 l 14.15132,3.26671 v 15.30961 c 0.86021,11.07199 13.69235,11.6871 14.87241,3.83072 0.39651,-2.47653 0.36055,-6.38957 0.36055,-14.46644 l 10.31966,2.38189 v 66.3013 z"
       style="fill:#faa61a;fill-opacity:1;fill-rule:nonzero;stroke:none;stroke-width:0.946323"
       id="path76" /><path
       d="m 119.23879,202.31022 c -6.48042,-1.65228 -10.30262,1.81884 -10.30262,10.52974 0,6.94791 0.13154,14.12104 12.85202,14.12104 9.05632,0 12.83498,-4.58494 12.8435,-9.75849 0.009,-4.82625 -5.51233,-12.37317 -15.3929,-14.89229 m 38.0299,28.70009 c 0,15.99949 -11.7893,35.3518 -61.111669,23.48017 v -87.01631 l 12.844439,2.96578 v 15.54809 c 0,7.58951 4.93887,4.54141 6.02998,3.85627 1.84343,-1.1583 5.69403,-4.30767 14.84119,-14.58568 l 21.82032,5.03728 -17.00353,17.4095 c 0,0 22.57927,9.09133 22.57927,33.3049"
       style="fill:#faa61a;fill-opacity:1;fill-rule:nonzero;stroke:none;stroke-width:0.946323"
       id="path80" /><path
       id="path34"
       style="fill:url(#linearGradient36);stroke:none;stroke-width:5.25;stroke-linejoin:miter;stroke-dasharray:none;stroke-opacity:1"
       d="M 545.90202,152.41232 176.52308,68.791941 C 167.14951,86.972459 152.93582,93.074407 132.94836,90.039502 104.00829,85.645229 94.804706,60.456899 92.109983,49.420851 l -0.250269,0.680175 C 86.463384,60.120411 67.565153,81.896444 39.170529,74.957466 7.1611327,67.135131 -5.0956643,50.124358 1.9063677,-2.9722228 8.9083987,-56.068797 110.4718,-103.36529 110.4718,-103.36529 c 0,0 21.56987,20.700742 41.97511,47.644043 l 403.73905,68.046392 -17.51445,28.908666 19.3225,30.016021 -21.80628,21.11474 z"
       sodipodi:nodetypes="ccsccssccccccc" /><path
       d="m 193.87922,2.2375135 c -1.64185,-0.35725 -5.37592,-1.3035901 -7.28477,-1.6608504 -1.82712,-0.35725 -2.89414,0.6727004 -2.668,3.2799004 0.20523,2.4390204 1.27604,7.6097095 1.6827,9.3551295 0.89884,3.86139 2.66421,5.47188 4.74028,5.76073 2.6623,0.3715 4.98731,-1.95445 6.25955,-8.26246 0.12352,-0.61 0.43327,-1.8755891 0.6366,-3.5943991 0.24514,-2.0884204 -0.78007,-4.2262504 -3.36636,-4.8780504 m 9.08528,34.8551225 c -5.15834,9.50335 -11.15755,7.53275 -14.23127,6.5161 -4.02671,-1.33211 -7.60211,-3.40057 -11.34283,-18.236143 -3.93075,-15.5956801 -8.21115,-48.35573 -8.21115,-48.35573 l 10.79269,2.49128 1.10882,6.2111 c 0.53588,2.99961 2.44568,4.9056001 5.35502,5.7626301 0,0 8.36318,2.17013 11.21741,2.49508 1.20574,0.13682 2.6224,-0.81522 3.03476,-2.70316 l 1.45753,-6.6823701 14.69779,3.39297 c 0,0 -7.31137,37.00625 -13.87877,49.108243"
       style="fill:#ffffff;fill-opacity:1;fill-rule:nonzero;stroke:none;stroke-width:5.25;stroke-dasharray:none;stroke-opacity:1"
       id="path19" /><path
       d="m 145.34762,-10.131947 c -0.35251,-0.002 -2.96446,0.0874 -3.24285,2.0789201 -0.16152,1.15443 0.39241,2.23759 1.78437,3.08892 2.17964,1.3340001 9.72094,3.5012801 16.95914,5.19824 V 10.243913 c 0,0 -13.1063,-3.1535291 -17.13681,-2.5539891 -1.22474,0.18148 -2.03996,0.82853 -2.20244,1.96015 -0.16532,1.1553791 0.41712,2.1976891 1.78532,3.0889191 3.68657,2.40102 20.23239,5.96976 20.23239,5.96976 v 24.894753 l -34.06745,-7.8653 v -61.567503 l 34.78101,8.03063 v 10.9941301 c -9.28292,-2.10933 -15.55767,-3.3084101 -18.89268,-3.3274101"
       style="fill:#ffffff;fill-opacity:1;fill-rule:nonzero;stroke:none;stroke-width:5.25;stroke-dasharray:none;stroke-opacity:1"
       id="path20" /><path
       d="m 102.94976,41.232516 c 0.3278,-12.266373 0.19573,-21.448573 -1.48697,-27.474393 -1.02331,-3.65996 -3.273248,-6.4448391 -6.278558,-8.5541595 -3.06042,-2.14828 -6.12939,-3.08892 -9.13374,-3.14783 -3.664711,-0.0732 -6.312771,1.35301 -6.664321,5.1972904 -0.53588,5.8509991 -0.77437,14.0307891 -0.59574,24.2781091 l -13.29918,-3.06992 v -90.59157 l 18.268441,4.21674 c -0.3278,11.55471 0.0665,20.12502 1.48697,25.42588 0.96915,3.6115 3.61911,6.66907 6.27856,8.46484 3.10793,2.09887 6.12274,3.18869 9.133738,3.23809 3.65901,0.0589 6.31942,-1.63805 6.66432,-5.28755 0.50643,-5.34647 0.74396,-13.05975 0.59479,-22.89089 l 13.59754,3.13927 v 91.343143 z"
       style="fill:#ffffff;fill-opacity:1;fill-rule:nonzero;stroke:none;stroke-width:5.25;stroke-dasharray:none;stroke-opacity:1"
       id="path21" /><path
       d="m 275.41356,61.158963 v -27.13538 l 9.80218,2.263749 c 3.90717,0.901796 5.27931,0.07222 5.2506,-7.776379 V -6.3609969 l 11.61411,2.6813201 V 28.590583 c 0.0806,13.852855 1.70638,16.720272 8.59577,18.310916 l 6.15148,1.420284 v 22.398634 z"
       style="fill:#ffffff;fill-opacity:1;fill-rule:nonzero;stroke:none;stroke-width:5.25;stroke-dasharray:none;stroke-opacity:1"
       id="path22" /><path
       d="m 241.52318,18.139083 c -4.73828,-1.20809 -7.53294,1.32987 -7.53294,7.699 0,5.08008 0.0962,10.32484 9.39697,10.32484 6.62168,0 9.38452,-3.35236 9.39075,-7.13509 0.006,-3.52879 -4.03044,-9.04686 -11.25478,-10.88875 m 27.80621,20.984569 c 0,11.698301 -8.61995,25.848078 -44.68285,17.167934 V -7.3318969 l 9.39144,2.16848 V 6.2048339 c 0,5.5492091 3.61113,3.32053 4.40892,2.81958 1.34786,-0.84691 4.16328,-3.14962 10.85139,-10.6645707 l 15.9543,3.6830903 -12.43243,12.7292595 c 0,0 16.50923,6.64728 16.50923,24.351459"
       style="fill:#ffffff;fill-opacity:1;fill-rule:nonzero;stroke:none;stroke-width:5.25;stroke-dasharray:none;stroke-opacity:1"
       id="path23" /><path
       d="m 462.38549,48.416736 c -1.64185,-0.35725 -5.37592,-1.303589 -7.28477,-1.660849 -1.82712,-0.35725 -2.89414,0.6727 -2.668,3.279899 0.20523,2.43902 1.27604,7.60971 1.6827,9.35513 0.89884,3.86139 2.66421,5.47188 4.74028,5.76073 2.6623,0.3715 4.98731,-1.95445 6.25955,-8.26246 0.12352,-0.61 0.43327,-1.87559 0.6366,-3.5944 0.24514,-2.08842 -0.78007,-4.22625 -3.36636,-4.87805 m 9.08528,34.855121 c -5.15834,9.50335 -11.15755,7.53275 -14.23127,6.5161 -4.02671,-1.33211 -7.60211,-3.40057 -11.34283,-18.23614 -3.93075,-15.595681 -8.21115,-48.355734 -8.21115,-48.355734 l 10.79269,2.49128 1.10882,6.2111 c 0.53588,2.999609 2.44568,4.905603 5.35502,5.762633 0,0 8.36318,2.170131 11.21741,2.495081 1.20574,0.13682 2.6224,-0.815221 3.03476,-2.703161 l 1.45753,-6.682373 14.69779,3.39297 c 0,0 -7.31137,37.006254 -13.87877,49.108244"
       style="fill:#ffffff;fill-opacity:1;fill-rule:nonzero;stroke:none;stroke-width:5.25;stroke-dasharray:none;stroke-opacity:1"
       id="path24" /><path
       d="m 413.43941,41.02106 c -0.35251,-0.0019 -2.96446,0.08741 -3.24285,2.078924 -0.16152,1.15443 0.39241,2.237591 1.78437,3.088921 2.17964,1.334 9.72094,3.50128 16.95914,5.19824 v 10.009779 c 0,0 -13.1063,-3.15353 -17.13681,-2.55399 -1.22474,0.18148 -2.03996,0.82853 -2.20244,1.96015 -0.16532,1.15538 0.41712,2.19769 1.78532,3.08892 3.68657,2.40102 20.23239,5.96976 20.23239,5.96976 v 24.894751 l -34.06745,-7.8653 V 25.323713 l 34.78101,8.03063 v 10.994131 c -9.28292,-2.10933 -15.55767,-3.308411 -18.89268,-3.327414"
       style="fill:#ffffff;fill-opacity:1;fill-rule:nonzero;stroke:none;stroke-width:5.25;stroke-dasharray:none;stroke-opacity:1"
       id="path25" /><path
       d="M 484.23438,107.33818 V 80.202802 l 9.80218,2.263751 c 3.90717,0.901796 5.27931,0.07222 5.2506,-7.776378 V 39.818226 l 11.61411,2.681318 V 74.7698 c 0.0806,13.852859 1.70638,16.720276 8.59577,18.31092 l 6.15148,1.420284 v 22.398626 z"
       style="fill:#ffffff;fill-opacity:1;fill-rule:nonzero;stroke:none;stroke-width:5.25;stroke-dasharray:none;stroke-opacity:1"
       id="path26" /><path
       d="m 388.92504,66.923619 c -1.22519,-21.430945 -12.09149,-29.201226 -12.09149,-29.201226 0,0 9.38959,-0.132121 9.31815,-9.221533 -0.11165,-14.208085 -9.68323,-20.6648421 -22.87136,-25.868754 -7.87496,-3.1073985 -19.7521,-5.5440248 -32.27895,-5.5440248 V 84.009142 c 0,0 11.53094,3.982466 23.12052,4.815158 22.73523,1.633487 35.73209,-5.651581 34.80313,-21.900681 z M 367.75831,55.491714 c 0,6.382624 -18.70042,4.08541 -22.30483,1.587454 -1.41821,-0.98286 -2.17303,-4.907815 -2.17303,-7.805183 0,-2.726935 1.02261,-6.867799 3.06781,-8.316482 4.84842,-3.102982 21.41005,1.235756 21.41005,14.534211 z m -21.4302,-27.976796 c -2.32604,-2.685953 -2.01322,-8.633264 -0.1279,-11.759909 2.90891,-4.823986 22.71952,1.122063 21.77509,10.713948 -0.66888,6.793036 -17.78481,5.506047 -21.64725,1.045961 z"
       id="text26"
       style="font-size:93.3914px;font-family:CustardW05-Regular;-inkscape-font-specification:CustardW05-Regular;text-align:center;text-anchor:middle;fill:#ffffff;fill-opacity:1;stroke:none;stroke-width:5.09543;stroke-linejoin:round;stroke-dasharray:none;stroke-opacity:1"
       aria-label="B"
       sodipodi:nodetypes="scssccssssscsssss" /></g></svg>
