<?xml version="1.0" encoding="UTF-8" standalone="no"?>
<!-- Created with Inkscape (http://www.inkscape.org/) -->

<svg
   version="1.1"
   id="svg2"
   width="666.66669"
   height="503.62134"
   viewBox="0 0 666.66669 503.62134"
   sodipodi:docname="Rhythm Heaven Reanimated Logo Remake (Print).ai"
   xmlns:inkscape="http://www.inkscape.org/namespaces/inkscape"
   xmlns:sodipodi="http://sodipodi.sourceforge.net/DTD/sodipodi-0.dtd"
   xmlns="http://www.w3.org/2000/svg"
   xmlns:svg="http://www.w3.org/2000/svg">
  <defs
     id="defs6">
    <clipPath
       clipPathUnits="userSpaceOnUse"
       id="clipPath16">
      <path
         d="M 0,377.716 V 14.582 l 500,126.722 v 236.412 z"
         id="path14" />
    </clipPath>
    <clipPath
       clipPathUnits="userSpaceOnUse"
       id="clipPath38">
      <path
         d="M 0,377.716 H 500 V 0 H 0 Z"
         id="path36" />
    </clipPath>
  </defs>
  <sodipodi:namedview
     id="namedview4"
     pagecolor="#ffffff"
     bordercolor="#000000"
     borderopacity="0.25"
     inkscape:showpageshadow="2"
     inkscape:pageopacity="0.0"
     inkscape:pagecheckerboard="0"
     inkscape:deskcolor="#d1d1d1" />
  <g
     id="g8"
     inkscape:groupmode="layer"
     inkscape:label="Rhythm Heaven Reanimated Logo Remake (Print)"
     transform="matrix(1.3333333,0,0,-1.3333333,0,503.62133)">
    <g
       id="g10">
      <g
         id="g12"
         clip-path="url(#clipPath16)">
        <g
           id="g18"
           transform="translate(474.1146,220.6874)">
          <path
             d="m 0,0 c 0,38.453 -23.764,71.434 -57.317,84.925 -11.329,41.34 -48.756,71.769 -93.061,71.769 -36.034,0 -67.518,-20.131 -84.113,-49.886 -10.264,3.548 -21.275,5.482 -32.729,5.482 -18.132,0 -35.157,-4.833 -49.856,-13.277 -13.183,6.937 -28.182,10.871 -44.084,10.871 -52.373,0 -94.982,-42.608 -94.982,-94.981 0,-11.056 1.906,-21.674 5.394,-31.55 -10.714,-14.435 -17.075,-32.38 -17.075,-51.808 0,-41.161 28.545,-75.674 66.587,-84.212 17.257,-20.214 44.127,-33.232 74.258,-33.232 20.383,0 39.273,5.959 54.706,16.07 11.595,-4.898 24.454,-7.626 37.983,-7.626 22.719,0 43.548,7.697 59.672,20.44 6.822,-1.442 13.892,-2.207 21.139,-2.207 47.008,0 86.689,31.95 98.485,75.272 C -22.672,-69.896 0,-37.559 0,0"
             style="fill:#000000;fill-opacity:1;fill-rule:nonzero;stroke:none"
             id="path20" />
        </g>
        <g
           id="g22"
           transform="translate(463.1508,220.6874)">
          <path
             d="m 0,0 c 0,35.801 -23.396,66.203 -55.628,76.619 -8.148,39.421 -42.619,69.111 -83.786,69.111 -35.309,0 -65.69,-21.84 -78.766,-52.927 -11.56,5.463 -24.466,8.524 -38.076,8.524 -18.347,0 -35.419,-5.557 -49.63,-15.072 -12.872,8.023 -28.058,12.666 -44.31,12.666 -46.328,0 -84.018,-37.69 -84.018,-84.018 0,-11.889 2.487,-23.207 6.961,-33.467 -11.587,-13.293 -18.643,-30.765 -18.643,-49.891 0,-37.22 26.684,-68.199 61.6,-74.207 15.059,-19.495 40.05,-32.274 68.282,-32.274 20.389,0 39.086,6.667 53.576,17.713 11.62,-5.904 24.949,-9.268 39.113,-9.268 22.092,0 42.146,8.184 56.852,21.436 7.638,-2.084 15.669,-3.204 23.959,-3.204 43.829,0 80.526,31.116 89.167,72.417 C -22.298,-64.754 0,-34.951 0,0"
             style="fill:#ffffff;fill-opacity:1;fill-rule:nonzero;stroke:none"
             id="path24" />
        </g>
        <g
           id="g26"
           transform="translate(456.6908,220.6874)">
          <path
             d="m 0,0 c 0,34.336 -23.268,63.203 -54.816,71.563 -6.051,38.381 -38.725,67.707 -78.139,67.707 -35.139,0 -64.913,-23.315 -75.249,-55.569 -12.23,7.098 -26.436,11.165 -41.592,11.165 -18.563,0 -35.702,-6.098 -49.527,-16.398 -12.583,8.808 -27.888,13.992 -44.413,13.992 -42.834,0 -77.557,-34.724 -77.557,-77.557 0,-12.448 2.948,-24.202 8.161,-34.627 -12.257,-12.459 -19.843,-29.691 -19.843,-48.731 0,-34.967 25.585,-63.821 58.707,-68.218 13.642,-19.117 37.518,-31.803 64.714,-31.803 20.501,0 39.11,7.216 52.881,18.95 11.544,-6.648 25.183,-10.504 39.808,-10.504 21.805,0 41.431,8.551 55.155,22.196 8.093,-2.571 16.711,-3.963 25.656,-3.963 42.06,0 76.949,30.683 83.518,70.884 C -22.154,-61.792 0,-33.503 0,0"
             style="fill:#000000;fill-opacity:1;fill-rule:nonzero;stroke:none"
             id="path28" />
        </g>
        <path
           d="M 66.184,75.543 H 85.551 V 94.909 H 66.184 Z"
           style="fill:#000000;fill-opacity:1;fill-rule:nonzero;stroke:none"
           id="path30" />
      </g>
    </g>
    <g
       id="g32">
      <g
         id="g34"
         clip-path="url(#clipPath38)">
        <g
           id="g40"
           transform="translate(496.7474,170.2157)">
          <path
             d="m 0,0 c -2.113,3.941 -4.773,6.903 -7.932,8.818 -2.949,1.772 -6.112,2.868 -9.437,3.261 -3.097,0.354 -5.616,0.341 -7.931,-0.042 -10e-4,0 -10e-4,-0.001 -0.002,-0.001 l -0.573,-0.094 c -1.657,-0.274 -1.956,-0.323 -2.545,-0.47 L -49.233,6.21 c -1.538,-0.389 -3.037,-1.111 -4.408,-2.083 -1.36,0.278 -2.864,0.245 -4.432,-0.152 l -38.235,-9.666 c -1.537,-0.389 -3.035,-1.111 -4.406,-2.083 -1.36,0.278 -2.864,0.245 -4.432,-0.152 l -34.75,-8.785 c -3.448,-0.871 -6.572,-3.322 -8.526,-6.457 -1.94,0.787 -3.994,1.261 -6.152,1.401 -2.271,0.138 -4.223,0.044 -5.968,-0.283 l -0.922,-0.17 c -0.538,-0.098 -0.835,-0.153 -1.211,-0.25 l -13.843,-3.5 c -4.498,-1.136 -8.474,-3.054 -11.832,-5.71 -3.185,-2.525 -5.772,-5.393 -7.677,-8.508 -1.033,-1.68 -1.903,-3.384 -2.604,-5.094 l -0.973,2.66 c -1.157,3.153 -3.986,5.064 -7.507,5.068 l -13.861,0.018 h -0.011 c -3.495,0 -7.033,-1.848 -9.572,-4.691 -2.558,1.557 -6.109,1.612 -9.6,-0.16 l -13.832,-7.017 c -2.611,-1.325 -4.832,-3.507 -6.266,-6.072 -0.541,2.255 -1.891,4.077 -3.867,5.112 -2.597,1.36 -5.976,1.216 -9.156,-0.392 l -13.924,-7.041 c -0.024,-0.012 -0.047,-0.026 -0.071,-0.039 -0.022,0 -0.044,0.003 -0.067,0.003 h -0.004 l -13.948,-0.005 c -3.186,-0.002 -6.56,-1.564 -9.143,-4.234 -0.129,-0.133 -0.255,-0.269 -0.379,-0.407 -2.588,1.553 -6.133,1.544 -9.539,-0.178 l -13.923,-7.042 c -0.708,-0.358 -1.379,-0.782 -2.017,-1.252 -2.065,0.896 -4.263,1.429 -6.582,1.579 -2.27,0.139 -4.223,0.045 -5.968,-0.282 l -0.919,-0.17 c -0.54,-0.1 -0.837,-0.154 -1.213,-0.251 l -13.843,-3.5 c -4.5,-1.137 -8.477,-3.056 -11.829,-5.707 -0.862,-0.684 -1.676,-1.394 -2.449,-2.124 -1.975,2.094 -5.084,2.935 -8.499,2.073 l -35.868,-9.067 c -0.08,0.133 -0.149,0.277 -0.231,0.408 -2.017,3.211 -4.576,5.581 -7.606,7.047 -2.697,1.304 -5.583,2.064 -8.623,2.262 -2.729,0.165 -5.042,0.06 -7.07,-0.32 l -1.246,-0.229 c -0.76,-0.14 -1.186,-0.237 -1.341,-0.275 l -36.56,-9.243 c -5.88,-1.486 -10.63,-7.455 -10.61,-13.329 l 0.209,-59.856 c 0.017,-4.871 3.342,-8.281 8.072,-8.281 h 0.009 l 18.355,0.018 c 3.186,0.003 6.558,1.565 9.141,4.236 1.034,1.069 1.895,2.269 2.556,3.534 0.667,-0.929 1.535,-1.691 2.575,-2.237 2.596,-1.36 5.975,-1.218 9.154,0.39 l 13.094,6.614 c 0.151,-0.134 0.299,-0.271 0.462,-0.392 1.373,-1.022 3.08,-1.548 4.927,-1.548 0.847,0 1.724,0.111 2.612,0.335 l 38.234,9.666 c 3.056,0.773 5.862,2.783 7.821,5.412 l 12.351,0.01 c 3.185,0.003 6.558,1.567 9.14,4.237 0.129,0.132 0.255,0.267 0.377,0.405 0.124,-0.075 0.251,-0.147 0.38,-0.214 2.596,-1.36 5.974,-1.218 9.154,0.389 l 13.923,7.034 c 0.026,0.013 0.05,0.028 0.076,0.042 0.022,-0.001 0.044,-0.004 0.067,-0.004 h 0.009 l 13.947,0.013 c 3.186,0.003 6.558,1.566 9.141,4.236 0.128,0.133 0.254,0.268 0.377,0.404 2.586,-1.554 6.129,-1.544 9.533,0.176 l 13.924,7.034 c 0.025,0.013 0.049,0.029 0.074,0.041 0.023,0 0.045,-0.003 0.069,-0.003 h 0.008 l 13.949,0.013 c 3.185,0.003 6.557,1.566 9.14,4.236 0.197,0.204 0.374,0.42 0.558,0.633 l 9.594,0.008 c 3.476,0.003 6.988,1.832 9.519,4.641 1.887,-1.132 4.322,-1.464 6.93,-0.805 l 13.936,3.523 c 2.608,0.66 5.039,2.222 6.915,4.307 2.546,-1.525 6.065,-1.578 9.536,0.176 l 13.92,7.032 c 0.025,0.013 0.049,0.029 0.076,0.042 0.023,0 0.046,-0.003 0.069,-0.003 h 0.009 l 13.948,0.013 c 3.186,0.003 6.558,1.565 9.14,4.235 0.129,0.134 0.255,0.269 0.379,0.405 0.123,-0.074 0.25,-0.145 0.379,-0.214 2.595,-1.36 5.972,-1.217 9.153,0.39 l 13.924,7.033 c 3.181,1.608 5.711,4.441 7.023,7.607 1.329,-2.493 3.867,-4.043 7.048,-4.045 l 13.857,-0.01 h 0.007 c 3.185,0 6.559,1.561 9.143,4.23 1.346,1.391 2.392,3.004 3.092,4.693 1.345,-2.525 3.922,-4.048 7.05,-4.048 0.839,0 1.717,0.108 2.621,0.338 l 38.235,9.666 c 1.564,0.396 3.061,1.118 4.415,2.08 0.576,-0.117 1.178,-0.184 1.803,-0.184 0.838,0 1.716,0.11 2.622,0.339 l 20.809,5.261 c 0.466,0.118 0.819,0.217 3.126,1.014 2.32,0.791 4.918,2.094 7.918,3.967 3.302,2.051 6.468,4.756 9.399,8.027 3.127,3.481 5.77,7.792 7.86,12.823 2.097,5.062 3.149,10.875 3.127,17.276 C 3.229,-9.193 2.169,-4.066 0,0"
             style="fill:#000000;fill-opacity:1;fill-rule:nonzero;stroke:none"
             id="path42" />
        </g>
        <g
           id="g44"
           transform="translate(287.0492,121.6893)">
          <path
             d="m 0,0 14.078,-38.441 -13.92,-7.033 -7.053,22.731 -6.794,-26.232 -13.936,-3.523 -7.054,22.73 -6.791,-26.23 -13.948,-0.013 13.789,45.487 13.832,7.018 7.048,-21.023 6.889,24.546 z m -60.935,-11.884 0.171,-48.992 -13.947,-0.013 -0.147,41.964 z m 188.421,12.574 27.781,7.023 -3.434,-14.841 -38.233,-9.666 -0.171,48.991 38.233,9.666 3.531,-13.08 -27.78,-7.023 0.012,-3.511 10.362,2.62 L 141.318,7.7 127.474,4.2 Z m -19.367,16.192 -13.935,-3.523 0.122,-35.031 -13.857,0.01 -0.11,31.52 -13.936,-3.522 3.437,14.842 34.749,8.785 z m -74.842,-22.435 -0.011,3.511 13.844,3.5 0.012,-3.511 z m 26.317,16.974 c -0.959,1.525 -2.109,2.621 -3.453,3.271 -1.345,0.651 -2.733,1.019 -4.162,1.112 -1.43,0.086 -2.594,0.049 -3.485,-0.118 -0.894,-0.167 -1.371,-0.251 -1.432,-0.267 l -13.845,-3.5 c -2.741,-0.693 -5,-1.748 -6.785,-3.16 C 24.65,7.348 23.27,5.839 22.293,4.242 21.312,2.646 20.605,1.08 20.163,-0.44 19.721,-1.968 19.471,-3.183 19.415,-4.099 19.356,-5.016 19.329,-5.507 19.329,-5.565 l 0.11,-31.521 13.949,0.013 -0.062,17.471 13.845,3.5 0.061,-17.471 13.923,7.034 -0.109,31.52 c -0.01,2.763 -0.494,4.907 -1.452,6.44 m -139.809,-31.7 0.146,-41.964 -13.923,-7.033 -13.919,17.481 0.074,-20.981 -13.948,-0.014 -0.147,41.964 13.924,7.041 13.918,-17.482 -0.074,20.982 z m -74.806,-32.878 -0.012,3.51 13.845,3.501 0.012,-3.511 z m 26.316,16.973 c -0.959,1.526 -2.108,2.621 -3.453,3.272 -1.344,0.649 -2.732,1.017 -4.162,1.111 -1.43,0.086 -2.594,0.048 -3.485,-0.118 -0.894,-0.168 -1.37,-0.251 -1.432,-0.267 l -13.845,-3.501 c -2.741,-0.692 -5,-1.748 -6.785,-3.16 -1.781,-1.411 -3.162,-2.919 -4.138,-4.515 -0.981,-1.598 -1.688,-3.163 -2.13,-4.683 -0.443,-1.527 -0.693,-2.742 -0.748,-3.658 -0.059,-0.917 -0.086,-1.408 -0.086,-1.467 l 0.11,-31.52 13.948,0.012 -0.061,17.472 13.845,3.5 0.061,-17.472 13.923,7.033 -0.11,31.521 c -0.009,2.763 -0.494,4.907 -1.452,6.44 m 316.025,56.46 c -0.711,-1.594 -1.51,-2.831 -2.402,-3.716 -0.892,-0.886 -2.05,-1.634 -3.481,-2.231 l -6.877,-1.738 -0.074,21.07 6.877,1.738 c 1.433,0.121 2.594,-0.034 3.491,-0.467 0.896,-0.441 1.704,-1.271 2.424,-2.497 0.717,-1.235 1.08,-3.167 1.09,-5.813 0.009,-2.638 -0.34,-4.758 -1.048,-6.346 m 12.753,21.298 c -1.471,2.745 -3.207,4.728 -5.204,5.939 -2.002,1.203 -4.063,1.929 -6.178,2.179 -2.118,0.243 -3.846,0.26 -5.184,0.039 -1.342,-0.221 -2.072,-0.34 -2.193,-0.371 l -20.812,-5.261 0.171,-48.993 20.812,5.262 c 0.12,0.03 0.851,0.275 2.192,0.737 1.337,0.457 3.062,1.34 5.175,2.659 2.109,1.31 4.162,3.077 6.151,5.296 1.986,2.211 3.704,5.066 5.154,8.557 1.447,3.49 2.163,7.67 2.147,12.529 -0.018,4.866 -0.762,8.675 -2.231,11.428 m -402.106,-124.192 27.78,7.023 -3.434,-14.841 -38.233,-9.666 -0.171,48.992 38.234,9.666 3.53,-13.08 -27.78,-7.024 0.012,-3.511 10.363,2.621 3.531,-13.169 -13.844,-3.5 z m -55.949,13.4 -0.017,4.62 18.221,4.607 0.016,-4.62 z m 36.017,-4.061 c -0.398,1.483 -0.91,2.734 -1.54,3.761 1.087,2.563 1.784,5.751 2.082,9.543 l -0.016,4.62 c -0.013,3.636 -0.649,6.458 -1.911,8.475 -1.261,2.007 -2.775,3.449 -4.544,4.305 -1.77,0.856 -3.595,1.341 -5.478,1.463 -1.881,0.113 -3.413,0.063 -4.586,-0.156 -1.176,-0.22 -1.803,-0.33 -1.885,-0.351 l -36.559,-9.242 0.209,-59.855 18.356,0.017 -0.081,22.992 18.22,4.606 0.08,-22.992 18.324,9.256 -0.064,18.373 c -0.007,1.978 -0.209,3.702 -0.607,5.185"
             style="fill:#ffffff;fill-opacity:1;fill-rule:nonzero;stroke:none"
             id="path46" />
        </g>
        <g
           id="g48"
           transform="translate(148.9354,186.5394)">
          <path
             d="m 0,0 c 0.313,-11.722 0.187,-20.498 -1.421,-26.254 -0.977,-3.498 -3.128,-6.161 -5.999,-8.175 -2.926,-2.053 -5.858,-2.952 -8.729,-3.009 -3.502,-0.069 -6.033,1.294 -6.369,4.967 -0.512,5.592 -0.739,13.408 -0.569,23.2 l -12.709,-2.934 v -86.57 l 17.458,4.03 c -0.313,11.041 0.063,19.232 1.421,24.297 0.925,3.451 3.458,6.373 5.999,8.089 2.97,2.006 5.852,3.047 8.729,3.094 3.497,0.057 6.039,-1.565 6.369,-5.052 0.483,-5.109 0.711,-12.48 0.569,-21.875 l 12.993,2.999 V 4.096 Z m 40.516,-49.084 c -0.337,-0.002 -2.832,0.083 -3.099,1.986 -0.155,1.102 0.375,2.138 1.706,2.952 2.082,1.273 9.289,3.345 16.206,4.968 v 9.564 c 0,0 -12.525,-3.013 -16.377,-2.44 -1.17,0.174 -1.949,0.792 -2.104,1.873 -0.158,1.104 0.399,2.1 1.706,2.952 3.523,2.294 19.334,5.705 19.334,5.705 V 2.265 L 25.333,-5.25 v -58.834 l 33.237,7.672 v 10.506 C 49.7,-47.92 43.704,-49.067 40.516,-49.084 m 49.594,16.481 c -0.193,1.644 -0.49,2.853 -0.608,3.436 -1.216,6.026 -3.438,8.25 -5.981,7.895 -1.984,-0.277 -3.672,-1.815 -4.53,-5.505 -0.388,-1.669 -1.412,-6.61 -1.609,-8.94 -0.215,-2.491 0.805,-3.476 2.55,-3.135 1.824,0.342 5.393,1.246 6.962,1.588 2.471,0.622 3.451,2.665 3.216,4.661 m 18.728,-18.282 -14.045,-3.242 -1.393,6.385 c -0.394,1.805 -1.748,2.714 -2.9,2.583 -2.728,-0.309 -10.719,-2.383 -10.719,-2.383 -2.781,-0.819 -4.606,-2.64 -5.118,-5.507 l -1.059,-5.936 -10.314,-2.381 c 0,0 4.09,31.306 7.847,46.209 3.574,14.178 6.99,16.155 10.839,17.428 2.937,0.972 8.67,2.854 13.599,-6.228 6.277,-11.564 13.263,-46.928 13.263,-46.928 m 21.699,78.869 c 0,0 -3.527,-23.235 -6.658,-33.973 -0.895,-3.068 -3.057,-7.762 -6,-1.05 -1.052,2.404 -4.18,13.637 -6.476,28.117 l -10.156,-2.345 c 0.889,-9.956 5.764,-36.849 12.26,-52.516 l 19.698,4.548 c 7.25,19.187 11.6,39.453 13.079,60.855 z m 35.99,-43.896 c -0.337,-0.002 -2.832,0.083 -3.099,1.988 -0.154,1.102 0.374,2.137 1.706,2.951 2.082,1.274 9.289,3.346 16.206,4.968 V 3.56 c 0,0 -12.525,-3.014 -16.377,-2.441 -1.17,0.174 -1.949,0.792 -2.104,1.873 -0.158,1.105 0.398,2.1 1.706,2.952 3.523,2.294 19.334,5.705 19.334,5.705 V 33.72 L 151.344,26.204 V -32.63 l 33.238,7.673 v 12.225 c -8.872,-2.016 -14.868,-3.162 -18.055,-3.18 m 70.654,78.63 v -81.094 l -14.699,-3.394 c -6.317,10.114 -10.326,16.062 -13.273,18.76 -3.881,3.555 -6.554,2.918 -6.573,-6.867 l -0.038,-19.064 -11.107,-2.564 v 75.131 l 9.084,2.097 c 6.226,-12.092 13.18,-25.995 16.903,-28.437 1.865,-1.224 4.057,-1.005 4.634,7.152 0.37,5.223 0.483,34.912 0.483,34.912 z"
             style="fill:#ffffff;fill-opacity:1;fill-rule:nonzero;stroke:none"
             id="path50" />
        </g>
        <g
           id="g52"
           transform="translate(112.328,245.5194)">
          <path
             d="m 0,0 c 0,6.956 -7.158,11.386 -17.435,8.13 -3.539,-1.122 -4.31,-4.565 -4.31,-8.533 v -5.502 c 0,-5.695 2.663,-8.358 7.447,-7.237 C -4.977,-10.951 0,-6.501 0,0 m -0.105,-17.504 c 1.98,-1.735 19.144,-19.267 19.144,-19.267 l -19.687,-4.546 c -6.256,6.238 -15.209,14.911 -16.699,16.243 -2.12,1.892 -4.415,2.436 -4.415,-0.683 v -20.434 l -12.896,-2.977 V 32.45 c 30.26,10.811 55.001,3.469 55.001,-21.814 0,-12.597 -8.919,-23.83 -20.448,-28.14 M 50.953,22.901 C 50.901,13.965 50.918,5.817 50.533,2.838 49.639,-4.275 37.479,-7.482 36.883,-0.929 36.603,2.155 36.357,6.229 36.357,15.323 l -9.829,-2.269 v -59.925 l 12.528,2.892 c 0,9.515 0,13.648 0.158,16.908 0.438,8.585 13.334,10.53 14.455,3.066 0.508,-3.399 0.596,-5.029 0.596,-12.703 l 9.987,2.305 v 60.374 z m 58.436,-0.994 -10.724,-2.475 c 0,0 0.158,-11.039 -0.263,-19.169 C 97.789,-11.635 85.804,-14.193 84.841,-2.874 84.35,3.066 84.122,14.905 84.122,14.905 L 70.788,11.827 V 2.172 c 0,-23.041 14.981,-25.88 22.814,-19.309 0.473,0.404 0.946,0.649 1.331,0.473 0.438,-0.192 0.421,-0.665 0.246,-1.542 -0.473,-2.295 -3.873,-6.833 -10.741,-8.673 -5.239,-1.401 -10.374,-2.286 -12.932,-2.689 v -15.989 c 11.53,1.489 24.882,4.784 31.102,14.35 3.241,4.994 4.941,10.268 5.782,18.083 1.314,12.3 0.999,35.031 0.999,35.031 m 4.695,15.931 V 13.717 l 6.992,1.615 c 4.24,0.979 5.992,0.426 5.992,-7.08 V -22.71 l 11.477,2.63 V 8.323 c 0,12.615 1.185,15.8 7.429,17.241 l 5.712,1.319 v 19.636 z m 66.478,4.95 c -0.052,-8.936 -0.034,-17.084 -0.42,-20.063 -0.893,-7.114 -13.054,-10.32 -13.649,-3.767 -0.281,3.084 -0.527,7.158 -0.527,16.251 l -9.829,-2.269 v -59.924 l 12.529,2.892 c 0,9.514 0,13.648 0.157,16.907 0.438,8.586 13.334,10.531 14.456,3.066 0.508,-3.399 0.596,-5.028 0.596,-12.703 l 9.987,2.306 v 60.374 z m 75.993,36.347 V 7.289 L 244.605,4.53 c 0.018,10.653 0.07,19.352 -0.508,22.558 -0.754,4.241 -3.26,2.629 -4.573,0.333 -1.63,-2.82 -3.927,-8.589 -8.185,-20.031 l -7.725,-1.783 c -3.907,8.971 -5.87,13.334 -7.114,15.349 -1.507,2.453 -2.997,2.103 -3.504,-0.368 -0.561,-2.751 -0.737,-9.83 -0.649,-20.255 l -11.529,-2.662 v 65.408 l 13.894,3.206 c 5.625,-13.615 8.867,-21.044 11.249,-24.864 2.05,-3.258 6.449,-7.849 10.689,3.838 2.488,6.868 5.344,15.016 10.391,31.679 z"
             style="fill:#ffffff;fill-opacity:1;fill-rule:nonzero;stroke:none"
             id="path54" />
        </g>
        <g
           id="g56"
           transform="translate(93.8197,149.5839)">
          <path
             d="m 0,0 -14.966,1.26 -5.286,14.46 -5.507,-14.433 -15.077,-1.078 10.673,-10.775 -3.712,-14.551 13.836,7.79 12.615,-7.589 -2.784,14.273 z"
             style="fill:#ffffff;fill-opacity:1;fill-rule:nonzero;stroke:none"
             id="path58" />
        </g>
        <g
           id="g60"
           transform="translate(434.2367,226.767)">
          <path
             d="m 0,0 -10.4,0.875 -3.673,10.049 -3.827,-10.029 -10.478,-0.75 7.418,-7.488 -2.58,-10.111 9.615,5.413 8.767,-5.273 -1.936,9.918 z"
             style="fill:#ffffff;fill-opacity:1;fill-rule:nonzero;stroke:none"
             id="path62" />
        </g>
      </g>
    </g>
  </g>
</svg>
