<?xml version="1.0" encoding="UTF-8" standalone="no"?>
<!-- Created with Inkscape (http://www.inkscape.org/) -->

<svg
   version="1.1"
   id="svg2"
   width="666.66669"
   height="244.61067"
   viewBox="0 0 666.66669 244.61067"
   sodipodi:docname="Rhythm Jigoku (リズム地獄) Logo.ai"
   xmlns:inkscape="http://www.inkscape.org/namespaces/inkscape"
   xmlns:sodipodi="http://sodipodi.sourceforge.net/DTD/sodipodi-0.dtd"
   xmlns="http://www.w3.org/2000/svg"
   xmlns:svg="http://www.w3.org/2000/svg">
  <defs
     id="defs6">
    <clipPath
       clipPathUnits="userSpaceOnUse"
       id="clipPath16">
      <path
         d="M 0,183.458 H 500 V 0 H 0 Z"
         id="path14" />
    </clipPath>
  </defs>
  <sodipodi:namedview
     id="namedview4"
     pagecolor="#ffffff"
     bordercolor="#000000"
     borderopacity="0.25"
     inkscape:showpageshadow="2"
     inkscape:pageopacity="0.0"
     inkscape:pagecheckerboard="0"
     inkscape:deskcolor="#d1d1d1" />
  <g
     id="g8"
     inkscape:groupmode="layer"
     inkscape:label="Rhythm Jigoku (リズム地獄) Logo"
     transform="matrix(1.3333333,0,0,-1.3333333,0,244.61067)">
    <g
       id="g10">
      <g
         id="g12"
         clip-path="url(#clipPath16)">
        <g
           id="g18"
           transform="translate(421.9434,183.4524)">
          <path
             d="m 0,0 h -0.001 -0.203 c -25.045,0 -47.916,-11.612 -62.524,-31.074 -7.648,2.446 -15.681,3.722 -23.764,3.743 h -0.21 c -7.673,0 -15.327,-1.138 -22.646,-3.339 -14.604,19.135 -37.312,30.607 -62.013,30.67 h -0.203 c -24.999,0 -47.857,-11.59 -62.477,-31.01 -0.29,0.092 -0.581,0.183 -0.872,0.272 -15.33,4.672 -31.366,4.549 -46.349,-0.195 -14.587,19.308 -37.361,30.876 -62.233,30.939 h -0.181 c -43.068,0 -78.162,-34.892 -78.267,-77.862 -0.112,-43.037 34.905,-78.145 78.06,-78.264 8.075,0.019 16.104,1.213 23.767,3.621 9.882,-12.982 23.718,-22.734 39.476,-27.541 17.817,-5.429 37.04,-4.32 54.13,3.125 12.4,5.403 23.126,13.88 31.174,24.484 7.597,-2.41 15.569,-3.668 23.582,-3.689 h 0.214 c 7.672,0 15.322,1.137 22.64,3.337 14.611,-19.133 37.323,-30.606 62.016,-30.669 h 0.203 c 25.046,0 47.921,11.612 62.533,31.071 7.64,-2.444 15.666,-3.72 23.751,-3.746 h 0.181 c 43.056,0 78.152,34.893 78.272,77.871 C 78.161,-35.218 43.145,-0.112 0,0"
             style="fill:#f15a22;fill-opacity:1;fill-rule:nonzero;stroke:none"
             id="path20" />
        </g>
        <g
           id="g22"
           transform="translate(421.9189,174.0744)">
          <path
             d="M 0,0 H -0.001 -0.18 c -24.398,0 -46.454,-12.519 -58.898,-33.066 -8.599,3.74 -17.966,5.71 -27.414,5.735 h -0.185 c -9.014,0 -17.995,-1.783 -26.286,-5.19 -12.483,20.135 -34.369,32.46 -58.398,32.521 h -0.179 c -24.35,0 -46.39,-12.488 -58.854,-32.985 -2.353,1.015 -4.769,1.902 -7.229,2.654 -15.712,4.79 -32.272,3.855 -47.229,-2.565 -12.441,20.374 -34.411,32.841 -58.64,32.902 h -0.159 c -37.908,0 -68.797,-30.7 -68.89,-68.508 -0.099,-37.866 30.723,-68.758 68.708,-68.862 h 0.183 c 9.33,0 18.605,1.907 27.147,5.554 8.773,-14.391 22.298,-24.903 38.621,-29.88 6.747,-2.057 13.58,-3.043 20.31,-3.043 23.673,0 46.04,12.213 58.669,33.016 8.543,-3.683 17.838,-5.623 27.199,-5.647 h 0.189 c 9.011,0 17.988,1.78 26.278,5.186 12.491,-20.134 34.38,-32.457 58.402,-32.518 h 0.179 c 24.402,0 46.461,12.516 58.908,33.061 8.589,-3.735 17.949,-5.706 27.396,-5.736 h 0.159 c 37.899,0 68.79,30.703 68.896,68.517 C 68.795,-30.987 37.975,-0.099 0,0"
             style="fill:#f15a22;fill-opacity:1;fill-rule:nonzero;stroke:none"
             id="path24" />
        </g>
        <g
           id="g26"
           transform="translate(421.9034,168.1068)">
          <path
             d="m 0,0 c -24.797,0.062 -46.279,-14.188 -56.572,-34.948 -8.887,4.831 -19.078,7.588 -29.921,7.617 -10.429,0.028 -20.274,-2.481 -28.946,-6.939 -10.378,20.291 -31.509,34.208 -55.921,34.27 -24.757,0.062 -46.205,-14.143 -56.526,-34.841 -3.588,1.927 -7.414,3.532 -11.461,4.769 -16.613,5.063 -33.741,2.905 -47.979,-4.661 -10.293,20.539 -31.559,34.676 -56.164,34.739 -34.745,0.079 -62.982,-27.914 -63.067,-62.557 -0.091,-34.632 28.005,-62.782 62.755,-62.878 10.775,-0.028 20.926,2.655 29.808,7.391 7.442,-14.85 20.728,-26.75 37.868,-31.976 29.83,-9.092 61.327,5.096 74.743,32.094 8.842,-4.763 18.96,-7.481 29.712,-7.509 10.429,-0.028 20.274,2.48 28.94,6.933 10.384,-20.28 31.514,-34.202 55.926,-34.265 24.803,-0.062 46.285,14.183 56.583,34.943 8.888,-4.831 19.067,-7.583 29.899,-7.617 34.745,-0.079 62.977,27.93 63.073,62.562 C 62.835,-28.235 34.745,-0.09 0,0"
             style="fill:#f15a22;fill-opacity:1;fill-rule:nonzero;stroke:none"
             id="path28" />
        </g>
        <g
           id="g30"
           transform="translate(405.495,135.3433)">
          <path
             d="m 0,0 h -9.503 c 3.914,-3.646 2.47,-10.796 0.971,-15.699 l -10.442,-3.949 -1.999,-6.538 10.441,3.948 -2.476,-8.096 -10.44,-3.949 -1.999,-6.538 10.439,3.948 -0.995,-3.254 c -2.546,-8.327 -5.583,-10.156 -9.841,-10.156 l -2.151,-7.036 c 4.441,-1.138 9.212,-0.422 11.283,0.301 2.941,1.047 6.748,5.542 9.499,14.544 l 7.429,24.301 10.444,3.95 1.999,6.538 -10.444,-3.95 C 3.372,-7.851 2.838,-2.996 0,0 m 51.478,-16.407 h 7.177 l 4.604,15.062 h -7.176 z m -8.217,-20.11 c 0,0 1.752,3.365 2.855,6.97 l 0.895,2.93 h 9.867 v 0 h 10e-4 l 2.71,8.865 H 49.721 L 55.149,0 H 42.353 L 36.922,-17.752 H 26.894 l -2.71,-8.865 v 0 H 24.183 34.21 l -0.897,-2.93 C 29.362,-42.469 24.462,-48.001 19.231,-48.001 H 9.826 l -3.031,-9.914 h 12.604 c 8.434,0 13.385,4.955 17.906,11.503 1.739,-2.142 4.331,-7.26 4.925,-11.503 h 12.628 c -2.174,9.414 -7.798,17.175 -11.597,21.398 m -21.698,5.175 H 9.923 C 9.297,-31.34 8.805,-31.73 8.608,-32.375 L 4.963,-44.298 h 11.64 c 0.578,-0.004 1.103,0.342 1.314,1.033 z M 21.6,-46.573 H -0.425 l 5.354,17.512 h 22.025 z m 4.445,28.82 H 12.751 l -0.982,-3.21 h 13.295 z m 4.074,5.654 H 12.136 l -0.981,-3.21 h 17.983 z m -0.556,5.853 H 16.269 l -0.981,-3.21 H 28.582 Z M 23.335,-26.617 H 10.041 l 0.981,3.21 h 13.295 z"
             style="fill:#f15a22;fill-opacity:1;fill-rule:nonzero;stroke:none"
             id="path32" />
        </g>
        <g
           id="g34"
           transform="translate(447.9442,138.9967)">
          <path
             d="m 0,0 c -1.7,1.385 -3.513,2.607 -5.414,3.702 -1.02,0.592 -1.927,1.121 -1.927,1.927 0,0.617 0.63,1.246 1.94,2.329 2.543,2.103 2.883,2.392 3.765,3.274 l 1.347,-0.944 C -2.065,8.726 -2.342,8.512 -4.797,6.636 -5.414,6.17 -5.666,5.969 -5.666,5.704 -5.666,5.39 -5.099,5.075 -4.734,4.873 -2.883,3.866 0.102,2.028 1.247,1.045 Z"
             style="fill:#f15a22;fill-opacity:1;fill-rule:nonzero;stroke:none"
             id="path36" />
        </g>
        <g
           id="g38"
           transform="translate(420.1472,145.2874)">
          <path
             d="M 0,0 C -0.448,0.806 -0.704,1.189 -1.202,1.816 L -0.307,2.34 C 0.204,1.752 0.626,1.087 0.894,0.537 Z m -1.573,-0.767 c -0.576,1.112 -0.985,1.624 -1.189,1.892 l 0.869,0.525 c 0.666,-0.806 1.1,-1.65 1.215,-1.88 z m 0.985,3.67 C -2.2,2.622 -3.338,2.084 -4.82,1.176 l -0.922,0.908 c 0.409,0.281 0.499,0.333 1.331,0.742 C -7.045,2.788 -8.146,2.762 -8.964,2.711 v 1.445 c 0.384,-0.013 1.97,-0.013 2.609,-0.013 0.908,0 4.948,0.013 5.767,0.013 z m -6.343,-3.542 c -1.073,-1.036 -1.125,-1.969 -1.125,-2.238 0,-1.662 2.455,-1.688 4.374,-1.688 1.252,0 2.506,0.052 3.746,0.231 l 0.051,-1.432 c -0.448,-0.064 -1.342,-0.179 -3.325,-0.179 -2.518,0 -3.605,0.115 -4.692,0.639 -0.883,0.422 -1.561,1.393 -1.561,2.404 0,1.176 0.563,1.982 1.496,3.03 z"
             style="fill:#f15a22;fill-opacity:1;fill-rule:nonzero;stroke:none"
             id="path40" />
        </g>
        <g
           id="g42"
           transform="translate(320.3965,106.7686)">
          <path
             d="m 0,0 h -10.393 l -5.254,-17.188 h -5.566 l -2.164,-7.08 h 5.565 l -3.606,-11.794 c -0.433,-1.416 -1.269,-2.323 -2.817,-2.323 h -3.459 l -1.55,-5.071 H -7.72 l 1.55,5.071 h -3.078 c -1.67,0 -2.263,0.735 -1.969,1.695 l 3.798,12.422 h 5.565 l 2.165,7.08 h -5.566 z m 42.977,-26.717 2.462,8.054 -11.63,-3.729 -5.451,-17.828 h -7.552 l 4.63,15.143 -10.763,-3.45 -4.626,-15.134 c -1.405,-4.593 -0.278,-7.415 3.972,-7.421 h 18.742 c 4.253,0.006 7.105,2.828 8.51,7.421 l 0.789,2.582 h 10.144 l -1.82,-5.951 c -2.08,-6.803 -7.33,-10.906 -13.589,-10.886 H 5.133 c -6.272,-0.02 -9.013,4.083 -6.933,10.886 l 4.481,14.658 -7.775,-2.492 1.934,6.325 7.775,2.492 2.823,9.235 c 0.44,1.437 0.17,2.306 -1.399,2.306 H 4.678 l 1.553,5.08 h 17.878 l -1.553,-5.08 h -1.11 c -1.672,0 -2.709,-0.729 -3.001,-1.684 l -1.838,-6.012 10.763,3.45 L 33.103,0 h 10.749 l -1.239,-4.054 -0.778,-0.01 C 40.07,-4.106 39.066,-5.196 38.511,-7.011 l -2.768,-9.056 10.444,3.348 7.709,-6.469 -2.751,-9 c -1.725,-5.645 -4.422,-8.464 -6.6,-9.12 -1.534,-0.453 -5.105,-0.902 -8.499,-0.188 l 1.348,4.411 c 3.212,0 3.987,1.147 5.583,6.368"
             style="fill:#f15a22;fill-opacity:1;fill-rule:nonzero;stroke:none"
             id="path44" />
        </g>
        <g
           id="g46"
           transform="translate(345.1659,118.5026)">
          <path
             d="m 0,0 c -0.433,0.688 -0.751,1.159 -1.287,1.77 l 0.905,0.523 C -0.013,1.923 0.446,1.388 0.892,0.586 Z m -1.63,-0.943 c -0.14,0.255 -0.612,1.147 -1.274,1.924 l 0.892,0.522 c 0.56,-0.586 0.891,-1.032 1.311,-1.809 z m -4.395,3.681 c -0.012,-0.955 -0.114,-5.26 -0.114,-6.062 0,-2.064 0.153,-3.363 2.407,-3.363 1.694,0 3.248,0.573 3.796,3.898 L 1.388,-3.121 C 0.675,-7.668 -2.025,-8.05 -3.745,-8.05 c -3.808,0 -3.833,2.726 -3.833,5.554 0,0.827 0.038,4.496 0.025,5.247 z"
             style="fill:#f15a22;fill-opacity:1;fill-rule:nonzero;stroke:none"
             id="path48" />
        </g>
        <g
           id="g50"
           transform="translate(283.2005,87.7994)">
          <path
             d="m 0,0 h -2.849 c -1.865,-0.005 -3.587,1.076 -4.297,3.385 l -3.258,10.599 H -29.291 L -25.015,0 H -48.31 l 25.787,38.231 c 1.127,1.67 2.482,2.519 3.987,2.53 h 4.74 l 2.145,7.014 H -34.915 L -65.534,2.381 C -66.72,0.623 -68.164,0 -69.498,0 h -2.885 l -3.1,-10.14 H 3.1 Z"
             style="fill:#f15a22;fill-opacity:1;fill-rule:nonzero;stroke:none"
             id="path52" />
        </g>
        <g
           id="g54"
           transform="translate(127.9958,89.2954)">
          <path
             d="M 0,0 H 42.078 C 33.206,-23.47 18.457,-30.206 -5.099,-30.206 H -9.235 L -12.364,-40.44 H 0.093 c 16.123,0 24.566,2.154 36.536,10.203 1.911,-1.776 4.061,-5.354 4.418,-10.203 H 60.01 c -1.525,3.743 -9.976,13.181 -15.745,15.812 9.798,8.446 12.745,14.744 15.895,21.71 1.128,2.524 2.791,3.499 4.336,3.499 h 2.87 l 2.992,9.785 H 3.169 Z m 60.737,13.111 c 2.713,0.013 4.83,2.186 4.85,4.837 -0.027,2.665 -2.185,4.83 -4.836,4.85 -2.699,0.035 -4.83,-2.186 -4.85,-4.837 0.027,-2.665 2.185,-4.829 4.836,-4.85 m 16.73,4.837 c 0.027,-2.665 -2.137,-4.824 -4.85,-4.837 -2.651,0.021 -4.824,2.137 -4.837,4.85 0.02,2.651 2.137,4.824 4.85,4.837 2.665,0.027 4.872,-2.151 4.837,-4.85"
             style="fill:#f15a22;fill-opacity:1;fill-rule:nonzero;stroke:none"
             id="path56" />
        </g>
        <g
           id="g58"
           transform="translate(94.6286,135.6797)">
          <path
             d="m 0,0 -2.307,-7.545 h 1.649 c 2.483,0 3.361,-1.083 2.927,-2.501 l -8.193,-26.8 c -2.086,-6.823 -6.323,-11.014 -12.64,-11.022 h -32.87 l -3.103,-10.151 h 45.965 c 9.296,-0.03 17.094,6.064 20.183,16.169 l 9.441,30.88 c 0.653,2.134 1.842,3.425 4.173,3.425 h 2.021 L 29.553,0 Z m -27.467,-36.541 h -25.968 l 2.303,7.53 h 2.137 c 2.299,0 3.541,1.347 4.184,3.451 l 4.742,15.511 c 0.433,1.417 -0.437,2.504 -2.924,2.504 h -1.576 L -42.263,0 h 25.968 l -2.307,-7.545 h -2.133 c -2.305,0 -3.547,-1.352 -4.184,-3.436 l -4.742,-15.511 c -0.436,-1.427 0.445,-2.519 2.924,-2.519 h 1.572 z"
             style="fill:#f15a22;fill-opacity:1;fill-rule:nonzero;stroke:none"
             id="path60" />
        </g>
        <g
           id="g62"
           transform="translate(421.9434,183.4524)">
          <path
             d="m 0,0 h -0.001 -0.203 c -25.045,0 -47.916,-11.612 -62.524,-31.074 -7.648,2.446 -15.681,3.722 -23.764,3.743 h -0.21 c -7.673,0 -15.327,-1.138 -22.646,-3.339 -14.604,19.135 -37.312,30.607 -62.013,30.67 h -0.203 c -24.999,0 -47.857,-11.59 -62.477,-31.01 -0.29,0.092 -0.581,0.183 -0.872,0.272 -15.33,4.672 -31.366,4.549 -46.349,-0.195 -14.587,19.308 -37.361,30.876 -62.233,30.939 h -0.181 c -43.068,0 -78.162,-34.892 -78.267,-77.862 -0.112,-43.037 34.905,-78.145 78.06,-78.264 8.075,0.019 16.104,1.213 23.767,3.621 9.882,-12.982 23.718,-22.734 39.476,-27.541 17.817,-5.429 37.04,-4.32 54.13,3.125 12.4,5.403 23.126,13.88 31.174,24.484 7.597,-2.41 15.569,-3.668 23.582,-3.689 h 0.214 c 7.672,0 15.322,1.137 22.64,3.337 14.611,-19.133 37.323,-30.606 62.016,-30.669 h 0.203 c 25.046,0 47.921,11.612 62.533,31.071 7.64,-2.444 15.666,-3.72 23.751,-3.746 h 0.181 c 43.056,0 78.152,34.893 78.272,77.871 C 78.161,-35.218 43.145,-0.112 0,0"
             style="fill:#00b3f0;fill-opacity:1;fill-rule:nonzero;stroke:none"
             id="path64" />
        </g>
        <g
           id="g66"
           transform="translate(421.9189,174.0744)">
          <path
             d="M 0,0 H -0.001 -0.18 c -24.398,0 -46.454,-12.519 -58.898,-33.066 -8.599,3.74 -17.966,5.71 -27.414,5.735 h -0.185 c -9.014,0 -17.995,-1.783 -26.286,-5.19 -12.483,20.135 -34.369,32.46 -58.398,32.521 h -0.179 c -24.35,0 -46.39,-12.488 -58.854,-32.985 -2.353,1.015 -4.769,1.902 -7.229,2.654 -15.712,4.79 -32.272,3.855 -47.229,-2.565 -12.441,20.374 -34.411,32.841 -58.64,32.902 h -0.159 c -37.908,0 -68.797,-30.7 -68.89,-68.508 -0.099,-37.866 30.723,-68.758 68.708,-68.862 h 0.183 c 9.33,0 18.605,1.907 27.147,5.554 8.773,-14.391 22.298,-24.903 38.621,-29.88 6.747,-2.057 13.58,-3.043 20.31,-3.043 23.673,0 46.04,12.213 58.669,33.016 8.543,-3.683 17.838,-5.623 27.199,-5.647 h 0.189 c 9.011,0 17.988,1.78 26.278,5.186 12.491,-20.134 34.38,-32.457 58.402,-32.518 h 0.179 c 24.402,0 46.461,12.516 58.908,33.061 8.589,-3.735 17.949,-5.706 27.396,-5.736 h 0.159 c 37.899,0 68.79,30.703 68.896,68.517 C 68.795,-30.987 37.975,-0.099 0,0"
             style="fill:#ffffff;fill-opacity:1;fill-rule:nonzero;stroke:none"
             id="path68" />
        </g>
        <g
           id="g70"
           transform="translate(421.9034,168.1068)">
          <path
             d="m 0,0 c -24.797,0.062 -46.279,-14.188 -56.572,-34.948 -8.887,4.831 -19.078,7.588 -29.921,7.617 -10.429,0.028 -20.274,-2.481 -28.946,-6.939 -10.378,20.291 -31.509,34.208 -55.921,34.27 -24.757,0.062 -46.205,-14.143 -56.526,-34.841 -3.588,1.927 -7.414,3.532 -11.461,4.769 -16.613,5.063 -33.741,2.905 -47.979,-4.661 -10.293,20.539 -31.559,34.676 -56.164,34.739 -34.745,0.079 -62.982,-27.914 -63.067,-62.557 -0.091,-34.632 28.005,-62.782 62.755,-62.878 10.775,-0.028 20.926,2.655 29.808,7.391 7.442,-14.85 20.728,-26.75 37.868,-31.976 29.83,-9.092 61.327,5.096 74.743,32.094 8.842,-4.763 18.96,-7.481 29.712,-7.509 10.429,-0.028 20.274,2.48 28.94,6.933 10.384,-20.28 31.514,-34.202 55.926,-34.265 24.803,-0.062 46.285,14.183 56.583,34.943 8.888,-4.831 19.067,-7.583 29.899,-7.617 34.745,-0.079 62.977,27.93 63.073,62.562 C 62.835,-28.235 34.745,-0.09 0,0"
             style="fill:#130c0e;fill-opacity:1;fill-rule:nonzero;stroke:none"
             id="path72" />
        </g>
        <g
           id="g74"
           transform="translate(405.495,135.3433)">
          <path
             d="m 0,0 h -9.503 c 3.914,-3.646 2.47,-10.796 0.971,-15.699 l -10.442,-3.949 -1.999,-6.538 10.441,3.948 -2.476,-8.096 -10.44,-3.949 -1.999,-6.538 10.439,3.948 -0.995,-3.254 c -2.546,-8.327 -5.583,-10.156 -9.841,-10.156 l -2.151,-7.036 c 4.441,-1.138 9.212,-0.422 11.283,0.301 2.941,1.047 6.748,5.542 9.499,14.544 l 7.429,24.301 10.444,3.95 1.999,6.538 -10.444,-3.95 C 3.372,-7.851 2.838,-2.996 0,0 m 51.478,-16.407 h 7.177 l 4.604,15.062 h -7.176 z m -8.217,-20.11 c 0,0 1.752,3.365 2.855,6.97 l 0.895,2.93 h 9.867 v 0 h 10e-4 l 2.71,8.865 H 49.721 L 55.149,0 H 42.353 L 36.922,-17.752 H 26.894 l -2.71,-8.865 v 0 H 24.183 34.21 l -0.897,-2.93 C 29.362,-42.469 24.462,-48.001 19.231,-48.001 H 9.826 l -3.031,-9.914 h 12.604 c 8.434,0 13.385,4.955 17.906,11.503 1.739,-2.142 4.331,-7.26 4.925,-11.503 h 12.628 c -2.174,9.414 -7.798,17.175 -11.597,21.398 m -21.698,5.175 H 9.923 C 9.297,-31.34 8.805,-31.73 8.608,-32.375 L 4.963,-44.298 h 11.64 c 0.578,-0.004 1.103,0.342 1.314,1.033 z M 21.6,-46.573 H -0.425 l 5.354,17.512 h 22.025 z m 4.445,28.82 H 12.751 l -0.982,-3.21 h 13.295 z m 4.074,5.654 H 12.136 l -0.981,-3.21 h 17.983 z m -0.556,5.853 H 16.269 l -0.981,-3.21 H 28.582 Z M 23.335,-26.617 H 10.041 l 0.981,3.21 h 13.295 z"
             style="fill:#f15a22;fill-opacity:1;fill-rule:nonzero;stroke:none"
             id="path76" />
        </g>
        <g
           id="g78"
           transform="translate(447.9442,138.9967)">
          <path
             d="m 0,0 c -1.7,1.385 -3.513,2.607 -5.414,3.702 -1.02,0.592 -1.927,1.121 -1.927,1.927 0,0.617 0.63,1.246 1.94,2.329 2.543,2.103 2.883,2.392 3.765,3.274 l 1.347,-0.944 C -2.065,8.726 -2.342,8.512 -4.797,6.636 -5.414,6.17 -5.666,5.969 -5.666,5.704 -5.666,5.39 -5.099,5.075 -4.734,4.873 -2.883,3.866 0.102,2.028 1.247,1.045 Z"
             style="fill:#f15a22;fill-opacity:1;fill-rule:nonzero;stroke:none"
             id="path80" />
        </g>
        <g
           id="g82"
           transform="translate(420.1472,145.2874)">
          <path
             d="M 0,0 C -0.448,0.806 -0.704,1.189 -1.202,1.816 L -0.307,2.34 C 0.204,1.752 0.626,1.087 0.894,0.537 Z m -1.573,-0.767 c -0.576,1.112 -0.985,1.624 -1.189,1.892 l 0.869,0.525 c 0.666,-0.806 1.1,-1.65 1.215,-1.88 z m 0.985,3.67 C -2.2,2.622 -3.338,2.084 -4.82,1.176 l -0.922,0.908 c 0.409,0.281 0.499,0.333 1.331,0.742 C -7.045,2.788 -8.146,2.762 -8.964,2.711 v 1.445 c 0.384,-0.013 1.97,-0.013 2.609,-0.013 0.908,0 4.948,0.013 5.767,0.013 z m -6.343,-3.542 c -1.073,-1.036 -1.125,-1.969 -1.125,-2.238 0,-1.662 2.455,-1.688 4.374,-1.688 1.252,0 2.506,0.052 3.746,0.231 l 0.051,-1.432 c -0.448,-0.064 -1.342,-0.179 -3.325,-0.179 -2.518,0 -3.605,0.115 -4.692,0.639 -0.883,0.422 -1.561,1.393 -1.561,2.404 0,1.176 0.563,1.982 1.496,3.03 z"
             style="fill:#f15a22;fill-opacity:1;fill-rule:nonzero;stroke:none"
             id="path84" />
        </g>
        <g
           id="g86"
           transform="translate(320.3965,106.7686)">
          <path
             d="m 0,0 h -10.393 l -5.254,-17.188 h -5.566 l -2.164,-7.08 h 5.565 l -3.606,-11.794 c -0.433,-1.416 -1.269,-2.323 -2.817,-2.323 h -3.459 l -1.55,-5.071 H -7.72 l 1.55,5.071 h -3.078 c -1.67,0 -2.263,0.735 -1.969,1.695 l 3.798,12.422 h 5.565 l 2.165,7.08 h -5.566 z m 42.977,-26.717 2.462,8.054 -11.63,-3.729 -5.451,-17.828 h -7.552 l 4.63,15.143 -10.763,-3.45 -4.626,-15.134 c -1.405,-4.593 -0.278,-7.415 3.972,-7.421 h 18.742 c 4.253,0.006 7.105,2.828 8.51,7.421 l 0.789,2.582 h 10.144 l -1.82,-5.951 c -2.08,-6.803 -7.33,-10.906 -13.589,-10.886 H 5.133 c -6.272,-0.02 -9.013,4.083 -6.933,10.886 l 4.481,14.658 -7.775,-2.492 1.934,6.325 7.775,2.492 2.823,9.235 c 0.44,1.437 0.17,2.306 -1.399,2.306 H 4.678 l 1.553,5.08 h 17.878 l -1.553,-5.08 h -1.11 c -1.672,0 -2.709,-0.729 -3.001,-1.684 l -1.838,-6.012 10.763,3.45 L 33.103,0 h 10.749 l -1.239,-4.054 -0.778,-0.01 C 40.07,-4.106 39.066,-5.196 38.511,-7.011 l -2.768,-9.056 10.444,3.348 7.709,-6.469 -2.751,-9 c -1.725,-5.645 -4.422,-8.464 -6.6,-9.12 -1.534,-0.453 -5.105,-0.902 -8.499,-0.188 l 1.348,4.411 c 3.212,0 3.987,1.147 5.583,6.368"
             style="fill:#faa61a;fill-opacity:1;fill-rule:nonzero;stroke:none"
             id="path88" />
        </g>
        <g
           id="g90"
           transform="translate(345.1659,118.5026)">
          <path
             d="m 0,0 c -0.433,0.688 -0.751,1.159 -1.287,1.77 l 0.905,0.523 C -0.013,1.923 0.446,1.388 0.892,0.586 Z m -1.63,-0.943 c -0.14,0.255 -0.612,1.147 -1.274,1.924 l 0.892,0.522 c 0.56,-0.586 0.891,-1.032 1.311,-1.809 z m -4.395,3.681 c -0.012,-0.955 -0.114,-5.26 -0.114,-6.062 0,-2.064 0.153,-3.363 2.407,-3.363 1.694,0 3.248,0.573 3.796,3.898 L 1.388,-3.121 C 0.675,-7.668 -2.025,-8.05 -3.745,-8.05 c -3.808,0 -3.833,2.726 -3.833,5.554 0,0.827 0.038,4.496 0.025,5.247 z"
             style="fill:#faa61a;fill-opacity:1;fill-rule:nonzero;stroke:none"
             id="path92" />
        </g>
        <g
           id="g94"
           transform="translate(283.2005,87.7994)">
          <path
             d="m 0,0 h -2.849 c -1.865,-0.005 -3.587,1.076 -4.297,3.385 l -3.258,10.599 H -29.291 L -25.015,0 H -48.31 l 25.787,38.231 c 1.127,1.67 2.482,2.519 3.987,2.53 h 4.74 l 2.145,7.014 H -34.915 L -65.534,2.381 C -66.72,0.623 -68.164,0 -69.498,0 h -2.885 l -3.1,-10.14 H 3.1 Z"
             style="fill:#f15a22;fill-opacity:1;fill-rule:nonzero;stroke:none"
             id="path96" />
        </g>
        <g
           id="g98"
           transform="translate(127.9958,89.2954)">
          <path
             d="M 0,0 H 42.078 C 33.206,-23.47 18.457,-30.206 -5.099,-30.206 H -9.235 L -12.364,-40.44 H 0.093 c 16.123,0 24.566,2.154 36.536,10.203 1.911,-1.776 4.061,-5.354 4.418,-10.203 H 60.01 c -1.525,3.743 -9.976,13.181 -15.745,15.812 9.798,8.446 12.745,14.744 15.895,21.71 1.128,2.524 2.791,3.499 4.336,3.499 h 2.87 l 2.992,9.785 H 3.169 Z m 60.737,13.111 c 2.713,0.013 4.83,2.186 4.85,4.837 -0.027,2.665 -2.185,4.83 -4.836,4.85 -2.699,0.035 -4.83,-2.186 -4.85,-4.837 0.027,-2.665 2.185,-4.829 4.836,-4.85 m 16.73,4.837 c 0.027,-2.665 -2.137,-4.824 -4.85,-4.837 -2.651,0.021 -4.824,2.137 -4.837,4.85 0.02,2.651 2.137,4.824 4.85,4.837 2.665,0.027 4.872,-2.151 4.837,-4.85"
             style="fill:#faa61a;fill-opacity:1;fill-rule:nonzero;stroke:none"
             id="path100" />
        </g>
        <g
           id="g102"
           transform="translate(94.6286,135.6797)">
          <path
             d="m 0,0 -2.307,-7.545 h 1.649 c 2.483,0 3.361,-1.083 2.927,-2.501 l -8.193,-26.8 c -2.086,-6.823 -6.323,-11.014 -12.64,-11.022 h -32.87 l -3.103,-10.151 h 45.965 c 9.296,-0.03 17.094,6.064 20.183,16.169 l 9.441,30.88 c 0.653,2.134 1.842,3.425 4.173,3.425 h 2.021 L 29.553,0 Z m -27.467,-36.541 h -25.968 l 2.303,7.53 h 2.137 c 2.299,0 3.541,1.347 4.184,3.451 l 4.742,15.511 c 0.433,1.417 -0.437,2.504 -2.924,2.504 h -1.576 L -42.263,0 h 25.968 l -2.307,-7.545 h -2.133 c -2.305,0 -3.547,-1.352 -4.184,-3.436 l -4.742,-15.511 c -0.436,-1.427 0.445,-2.519 2.924,-2.519 h 1.572 z"
             style="fill:#f15a22;fill-opacity:1;fill-rule:nonzero;stroke:none"
             id="path104" />
        </g>
      </g>
    </g>
  </g>
</svg>
