<?xml version="1.0" encoding="UTF-8" standalone="no"?>
<!-- Created with Inkscape (http://www.inkscape.org/) -->

<svg
   version="1.1"
   id="svg2"
   width="666.66669"
   height="471.58133"
   viewBox="0 0 666.66669 471.58133"
   sodipodi:docname="Rhythm Heaven Breakdown Logo Remake.ai"
   xmlns:inkscape="http://www.inkscape.org/namespaces/inkscape"
   xmlns:sodipodi="http://sodipodi.sourceforge.net/DTD/sodipodi-0.dtd"
   xmlns="http://www.w3.org/2000/svg"
   xmlns:svg="http://www.w3.org/2000/svg">
  <defs
     id="defs6">
    <clipPath
       clipPathUnits="userSpaceOnUse"
       id="clipPath16">
      <path
         d="M 0,353.686 H 500 V 0 H 0 Z"
         id="path14" />
    </clipPath>
  </defs>
  <sodipodi:namedview
     id="namedview4"
     pagecolor="#ffffff"
     bordercolor="#000000"
     borderopacity="0.25"
     inkscape:showpageshadow="2"
     inkscape:pageopacity="0.0"
     inkscape:pagecheckerboard="0"
     inkscape:deskcolor="#d1d1d1" />
  <g
     id="g8"
     inkscape:groupmode="layer"
     inkscape:label="Rhythm Heaven Breakdown Logo Remake"
     transform="matrix(1.3333333,0,0,-1.3333333,0,471.58133)">
    <g
       id="g10">
      <g
         id="g12"
         clip-path="url(#clipPath16)">
        <g
           id="g18"
           transform="translate(425.1546,239.6304)">
          <path
             d="m 0,0 c -9.351,0 -18.421,-1.688 -26.91,-4.964 -1.866,4.127 -4.128,8.071 -6.769,11.796 3.539,9.075 5.381,18.796 5.381,28.603 0,43.352 -35.269,78.62 -78.621,78.62 -25.263,0 -48.558,-12.071 -63.182,-31.811 -10.136,5.064 -21.388,7.759 -32.882,7.759 -15.185,0 -29.765,-4.593 -42.165,-13.282 -6.43,-4.506 -12.035,-9.936 -16.666,-16.1 -12.438,7.805 -26.959,12.083 -41.838,12.083 -43.351,0 -78.62,-35.269 -78.62,-78.62 0,-17.428 5.587,-33.939 16.157,-47.749 7.383,-9.646 16.995,-17.484 27.831,-22.828 -0.148,-1.898 -0.223,-3.804 -0.223,-5.713 0,-2.017 0.082,-4.025 0.246,-6.019 -3.554,0.504 -7.165,0.759 -10.812,0.759 -41.952,0 -76.082,-34.131 -76.082,-76.082 0,-41.952 34.13,-76.082 76.082,-76.082 14.78,0 29.116,4.247 41.458,12.282 7.549,4.914 14.118,11.08 19.455,18.205 7.014,-2.526 14.451,-3.83 22.043,-3.83 11.469,0 22.75,3.031 32.625,8.764 5.734,3.33 10.925,7.524 15.383,12.397 5.291,-1.447 10.778,-2.193 16.284,-2.193 18.908,0 36.378,8.606 47.887,22.836 7.632,-3.104 15.827,-4.708 24.276,-4.708 17.726,0 34.345,7.178 46.388,19.65 5.906,-1.577 12.006,-2.373 18.238,-2.373 14.766,0 28.927,4.54 40.79,12.942 7.775,-2.653 16.005,-4.032 24.246,-4.032 41.27,0 74.845,33.575 74.845,74.845 C 74.845,-33.575 41.27,0 0,0"
             style="fill:#00b3f0;fill-opacity:1;fill-rule:nonzero;stroke:none"
             id="path20" />
        </g>
        <g
           id="g22"
           transform="translate(425.1546,231.4436)">
          <path
             d="m 0,0 c -11.156,0 -21.863,-2.698 -31.477,-7.876 -2.386,7.916 -6.301,15.258 -11.602,21.724 4.326,9.278 6.594,19.472 6.594,29.774 0,38.837 -31.596,70.433 -70.434,70.433 -25.096,0 -48.022,-13.294 -60.596,-34.51 -10.511,6.79 -22.824,10.458 -35.468,10.458 -13.495,0 -26.451,-4.08 -37.467,-11.8 -7.928,-5.556 -14.445,-12.691 -19.197,-20.953 -12.413,9.912 -27.979,15.454 -44.005,15.454 -38.837,0 -70.434,-31.596 -70.434,-70.433 0,-15.613 5.004,-30.404 14.472,-42.773 7.787,-10.174 18.337,-18.102 30.183,-22.784 -0.591,-3.537 -0.889,-7.127 -0.889,-10.733 0,-5.701 0.738,-11.315 2.178,-16.727 -6.692,2.166 -13.73,3.28 -20.931,3.28 -37.437,0 -67.895,-30.458 -67.895,-67.895 0,-37.438 30.458,-67.896 67.895,-67.896 23.705,0 45.674,12.518 57.913,32.454 7.751,-3.809 16.278,-5.796 25.043,-5.796 17.775,0 34.597,8.471 45.276,22.463 6.046,-2.298 12.516,-3.496 19.016,-3.496 18.572,0 35.546,9.578 45.217,24.97 8.219,-4.495 17.397,-6.841 26.946,-6.841 17.147,0 33.11,7.694 43.766,20.844 6.673,-2.369 13.665,-3.567 20.86,-3.567 14.486,0 28.311,4.94 39.435,14.004 8.098,-3.384 16.687,-5.095 25.601,-5.095 36.756,0 66.659,29.903 66.659,66.659 C 66.659,-29.903 36.756,0 0,0"
             style="fill:#ffffff;fill-opacity:1;fill-rule:nonzero;stroke:none"
             id="path24" />
        </g>
        <g
           id="g26"
           transform="translate(425.1547,224.2968)">
          <path
             d="m 0,0 c -13.675,0 -26.271,-4.616 -36.32,-12.37 -1.504,12.464 -7.072,23.677 -15.342,32.273 5.112,9.131 8.03,19.657 8.03,30.866 0,34.952 -28.334,63.286 -63.287,63.286 -26.017,0 -48.363,-15.701 -58.09,-38.143 -10.195,8.781 -23.464,14.091 -37.974,14.091 -24.826,0 -46.019,-15.541 -54.39,-37.424 -11.552,12.381 -28.01,20.125 -46.279,20.125 -34.952,0 -63.287,-28.334 -63.287,-63.287 0,-28.906 19.381,-53.285 45.857,-60.854 -1.361,-4.914 -2.091,-10.089 -2.091,-15.436 0,-11.925 3.619,-23.005 9.817,-32.203 -10.025,7.3 -22.367,11.61 -35.717,11.61 -33.55,0 -60.748,-27.198 -60.748,-60.749 0,-33.55 27.198,-60.748 60.748,-60.748 24.414,0 45.461,14.405 55.115,35.176 7.944,-5.377 17.525,-8.518 27.84,-8.518 18.168,0 34.058,9.745 42.735,24.291 6.438,-3.397 13.772,-5.324 21.558,-5.324 19.081,0 35.462,11.555 42.532,28.048 8.243,-6.226 18.505,-9.92 29.631,-9.92 17.3,0 32.513,8.928 41.288,22.426 7.093,-3.301 14.999,-5.149 23.338,-5.149 14.812,0 28.266,5.818 38.202,15.292 8.063,-4.081 17.179,-6.382 26.834,-6.382 32.867,0 59.512,26.644 59.512,59.511 C 59.512,-26.644 32.867,0 0,0"
             style="fill:#130c0e;fill-opacity:1;fill-rule:nonzero;stroke:none"
             id="path28" />
        </g>
        <g
           id="g30"
           transform="translate(435.3514,209.1578)">
          <path
             d="m 0,0 c 0,0 -0.11,-28.775 -0.469,-33.836 -0.358,-5.062 -1.24,-7.125 -2.617,-7.373 -0.662,-0.082 -1.322,0.078 -1.874,0.44 -3.607,2.367 -10.347,15.843 -16.382,27.562 l -8.805,-2.033 v -72.817 l 10.661,2.461 0.141,18.501 c 0,3.851 0.414,6.41 1.296,7.62 0.303,0.413 0.798,0.694 1.267,0.77 3.104,0.506 10.534,-9.566 18.002,-22.111 l 12.916,2.982 V 3.264 Z"
             style="fill:#faa61a;fill-opacity:1;fill-rule:nonzero;stroke:none"
             id="path32" />
        </g>
        <g
           id="g34"
           transform="translate(392.5171,184.435)">
          <path
             d="m 0,0 c -2.968,-26.57 -9.303,-31.648 -10.091,-27.216 -0.833,4.683 -2.9,18.805 -2.9,18.805 l -6.058,-1.398 c 0,0 -1.9,-12.857 -2.533,-17.142 -1.504,-10.177 -7.366,-6.997 -10.942,19.442 l -9.001,-2.078 7.719,-52.747 11.801,2.725 c 0,0 1.218,7.94 1.642,10.586 1.335,8.321 7.092,9.879 8.231,3.082 0.46,-2.74 1.711,-10.994 1.711,-10.994 l 9.894,2.284 8.963,56.599 z"
             style="fill:#faa61a;fill-opacity:1;fill-rule:nonzero;stroke:none"
             id="path36" />
        </g>
        <g
           id="g38"
           transform="translate(329.4166,117.4339)">
          <path
             d="m 0,0 c -7.546,-1.742 -10.897,1.64 -10.897,9.622 0,6.833 4.706,11.361 10.874,12.785 C 6.15,23.833 10.85,21.538 10.85,14.643 10.85,7.412 7.272,1.679 0,0 m -0.047,43.911 c -15.604,-3.603 -21.12,-20.125 -21.12,-31.939 0,-11.395 2.11,-26.591 21.12,-22.187 19.961,4.624 21.167,20.554 21.167,31.949 0,11.815 -4.446,26.037 -21.167,22.177"
             style="fill:#faa61a;fill-opacity:1;fill-rule:nonzero;stroke:none"
             id="path40" />
        </g>
        <g
           id="g42"
           transform="translate(280.7233,111.8103)">
          <path
             d="m 0,0 c -3.391,-0.785 -4.858,0.35 -4.858,4.316 v 12.513 c 0,2.884 -0.149,5.187 2.586,5.959 C 3.67,24.466 10.311,21.285 10.94,14.819 11.674,7.305 7.493,1.73 0,0 M -13.212,41.715 V -11.429 C 12.478,-7.672 23.662,2.254 23.382,21.984 23.138,39.093 6.151,48.495 -13.212,41.715"
             style="fill:#faa61a;fill-opacity:1;fill-rule:nonzero;stroke:none"
             id="path44" />
        </g>
        <g
           id="g46"
           transform="translate(249.5345,115.363)">
          <path
             d="M 0,0 13.395,31.223 -0.814,27.943 -8.241,2.657 c -1.849,-5.989 -4.7,-4.618 -4.708,-0.364 l -0.013,22.845 -10.829,-2.5 V -31.57 l 10.842,2.503 v 6.474 c 0,5.826 0.541,9.01 2.377,10.175 5.179,3.286 10.722,-0.169 10.722,-13.625 l 11.542,2.665 C 11.692,-12.517 9.522,0 0,0"
             style="fill:#faa61a;fill-opacity:1;fill-rule:nonzero;stroke:none"
             id="path48" />
        </g>
        <g
           id="g50"
           transform="translate(203.1172,102.6938)">
          <path
             d="m 0,0 -5.932,-1.37 c -1.491,-0.344 -2.34,0.585 -2.156,2.657 0.167,1.938 1.036,6.049 1.37,7.453 0.702,2.908 2.173,4.328 3.86,4.579 2.724,0.434 4.044,-1.554 5.097,-6.568 C 2.34,6.283 2.624,5.264 2.741,3.894 2.975,1.103 2.107,0.486 0,0 M 10.394,22.276 C 7.286,32.47 4.77,34.985 -1.42,33.556 -6.878,32.296 -9.98,29.455 -12.583,19.485 -15.14,9.692 -18.293,-6.571 -20.565,-22.413 l 8.97,2.071 c 0.167,1.253 0.833,5.001 1.268,7.241 0.468,2.255 1.687,3.869 4.111,4.428 1.995,0.461 5.707,1.318 7.018,1.62 1.876,0.433 3.593,-1.052 4.195,-3.559 0.401,-1.671 0.919,-4.027 1.236,-5.614 l 11.932,2.74 c -1.454,11.681 -4.679,25.635 -7.771,35.762"
             style="fill:#faa61a;fill-opacity:1;fill-rule:nonzero;stroke:none"
             id="path52" />
        </g>
        <g
           id="g54"
           transform="translate(162.1172,74.7645)">
          <path
             d="m 0,0 c -0.311,-0.002 -2.617,0.077 -2.864,1.836 -0.143,1.019 0.368,1.941 1.577,2.728 1.05,0.629 2.653,1.285 4.808,1.914 l 10.167,2.676 v 8.839 c 0,0 -11.574,-2.785 -15.133,-2.256 -1.081,0.161 -1.787,0.735 -1.944,1.731 -0.132,1.023 0.368,1.941 1.576,2.728 3.255,2.12 17.866,5.272 17.866,5.272 V 45.863 L -14.03,38.918 v -54.367 l 30.714,7.091 V 2.938 C 8.486,1.075 2.945,0.016 0,0"
             style="fill:#faa61a;fill-opacity:1;fill-rule:nonzero;stroke:none"
             id="path56" />
        </g>
        <g
           id="g58"
           transform="translate(120.554,80.3639)">
          <path
             d="m 0,0 c -3.179,-0.745 -4.95,1.025 -4.95,4.81 v 3.657 c 0,2.637 0.513,4.926 2.865,5.671 C 4.746,16.302 9.503,13.358 9.503,8.734 9.503,4.414 6.196,1.456 0,0 m 23.024,15.804 c 0,16.805 -16.444,21.684 -36.557,14.499 v -54.248 l 8.572,1.978 v 13.582 c 0,2.073 1.525,1.712 2.935,0.454 0.99,-0.885 6.941,-6.65 11.098,-10.796 l 13.085,3.021 c 0,0 -11.408,11.653 -12.724,12.806 7.663,2.865 13.579,10.33 13.591,18.704"
             style="fill:#faa61a;fill-opacity:1;fill-rule:nonzero;stroke:none"
             id="path60" />
        </g>
        <g
           id="g62"
           transform="translate(68.387,82.8363)">
          <path
             d="m 0,0 c -4.689,-1.098 -7.305,0.974 -7.305,5.609 v 6.247 c -0.016,3.224 0.808,5.894 5.067,6.877 13.556,3.13 16.173,-1.915 16.173,-5.891 C 13.935,7.545 9.139,2.141 0,0 m -2.673,-30.662 c -4.279,-0.988 -4.647,1.346 -4.632,4.497 v 6.093 c 0,4.521 2.391,7.682 6.678,8.657 8.355,1.898 12.739,-1.281 12.739,-6.447 0,-3.877 -2.392,-9.939 -14.785,-12.8 m 18.658,27.508 c 8.178,3.047 17.699,12.157 17.699,24.613 0,16.595 -23.899,23.579 -55.619,9.101 v -79.826 c 34.886,0.22 52.92,17.379 52.92,34.024 0,6.199 -5.459,12.884 -15,12.088"
             style="fill:#faa61a;fill-opacity:1;fill-rule:nonzero;stroke:none"
             id="path64" />
        </g>
        <g
           id="g66"
           transform="translate(346.6025,245.9245)">
          <path
             d="m 0,0 c 0,0 -0.091,-23.654 -0.385,-27.815 -0.295,-4.161 -1.019,-5.857 -2.152,-6.06 -0.544,-0.068 -1.087,0.064 -1.54,0.362 -2.966,1.945 -8.506,13.023 -13.467,22.656 l -7.238,-1.671 v -59.858 l 8.764,2.023 0.116,15.208 c 0,3.166 0.34,5.269 1.065,6.264 0.249,0.339 0.656,0.571 1.042,0.633 2.551,0.416 7.566,-6.06 13.704,-16.372 l 11.712,2.704 V 2.683 Z"
             style="fill:#f15a22;fill-opacity:1;fill-rule:nonzero;stroke:none"
             id="path68" />
        </g>
        <g
           id="g70"
           transform="translate(301.932,185.9624)">
          <path
             d="m 0,0 c -0.269,-0.001 -2.257,0.066 -2.469,1.583 -0.123,0.878 0.317,1.673 1.359,2.352 0.906,0.543 2.288,1.108 4.145,1.651 l 8.767,2.306 v 7.621 c 0,0 -9.979,-2.401 -13.048,-1.945 -0.932,0.139 -1.54,0.633 -1.676,1.493 -0.113,0.882 0.317,1.673 1.359,2.352 2.806,1.828 15.404,4.545 15.404,4.545 V 39.542 L -12.096,33.554 V -13.32 l 26.48,6.114 V 2.533 C 7.317,0.927 2.539,0.014 0,0"
             style="fill:#f15a22;fill-opacity:1;fill-rule:nonzero;stroke:none"
             id="path72" />
        </g>
        <g
           id="g74"
           transform="translate(273.2581,220.9346)">
          <path
             d="m 0,0 c 0,0 -2.81,-18.512 -5.305,-27.067 -0.712,-2.444 -2.436,-6.184 -4.779,-0.837 -0.84,1.916 -3.331,10.865 -5.16,22.402 l -8.092,-1.868 c 0.708,-7.933 4.593,-29.358 9.768,-41.84 l 15.693,3.623 c 5.777,15.286 9.243,31.433 10.42,48.483 z"
             style="fill:#f15a22;fill-opacity:1;fill-rule:nonzero;stroke:none"
             id="path76" />
        </g>
        <g
           id="g78"
           transform="translate(238.4869,168.95)">
          <path
             d="m 0,0 c -1.25,-0.272 -4.094,-0.992 -5.547,-1.265 -1.39,-0.272 -2.203,0.513 -2.031,2.498 0.156,1.856 0.972,5.793 1.281,7.122 0.684,2.94 2.029,4.166 3.61,4.386 2.026,0.283 3.796,-1.488 4.765,-6.29 C 2.172,5.986 2.408,5.023 2.562,3.714 2.749,2.124 1.969,0.496 0,0 m 6.916,26.537 c -3.927,7.235 -8.494,5.736 -10.834,4.961 -3.066,-1.014 -5.788,-2.589 -8.635,-13.884 -2.994,-11.874 -6.252,-36.816 -6.252,-36.816 l 8.216,1.897 0.844,4.729 c 0.408,2.284 1.862,3.735 4.078,4.387 0,0 6.366,1.653 8.54,1.9 0.918,0.104 1.997,-0.62 2.31,-2.058 l 1.11,-5.088 11.191,2.583 c 0,0 -5.567,28.176 -10.568,37.389"
             style="fill:#f15a22;fill-opacity:1;fill-rule:nonzero;stroke:none"
             id="path80" />
        </g>
        <g
           id="g82"
           transform="translate(201.5369,159.5175)">
          <path
             d="m 0,0 c -0.269,-0.001 -2.257,0.066 -2.469,1.583 -0.123,0.878 0.317,1.673 1.359,2.352 0.906,0.543 2.288,1.108 4.145,1.651 l 8.767,2.306 v 7.621 c 0,0 -9.979,-2.401 -13.048,-1.945 -0.932,0.139 -1.54,0.633 -1.676,1.493 -0.113,0.882 0.317,1.673 1.359,2.352 2.806,1.828 15.404,4.545 15.404,4.545 V 40.931 L -12.096,34.943 V -11.94 l 26.48,6.113 v 8.36 C 7.317,0.927 2.539,0.014 0,0"
             style="fill:#f15a22;fill-opacity:1;fill-rule:nonzero;stroke:none"
             id="path84" />
        </g>
        <g
           id="g86"
           transform="translate(169.2573,198.6393)">
          <path
             d="m 0,0 c 0.249,-9.339 0.149,-16.331 -1.133,-20.918 -0.778,-2.786 -2.491,-4.907 -4.779,-6.512 -2.331,-1.636 -4.667,-2.352 -6.955,-2.397 -2.789,-0.056 -4.806,1.03 -5.074,3.957 -0.407,4.455 -0.589,10.682 -0.453,18.484 l -10.125,-2.338 v -68.972 l 13.908,3.211 c -0.249,8.797 0.051,15.322 1.133,19.358 0.737,2.75 2.755,5.077 4.779,6.445 2.367,1.598 4.662,2.427 6.955,2.465 2.786,0.045 4.811,-1.247 5.074,-4.026 0.385,-4.07 0.566,-9.943 0.453,-17.428 l 10.352,2.39 V 3.263 Z"
             style="fill:#f15a22;fill-opacity:1;fill-rule:nonzero;stroke:none"
             id="path88" />
        </g>
        <g
           id="g90"
           transform="translate(345.5814,253.9328)">
          <path
             d="M 0,0 V 60.055 L -8.21,58.16 c -4.354,-14.378 -6.818,-21.408 -8.965,-27.335 -3.659,-10.084 -7.454,-6.123 -9.223,-3.311 -2.056,3.296 -4.853,9.708 -9.706,21.455 l -11.989,-2.768 v -55.57 l 9.942,2.295 c -0.076,8.996 0.082,14.238 0.566,16.612 0.438,2.132 1.723,2.434 3.023,0.317 1.074,-1.738 2.767,-5.503 6.139,-13.244 l 6.667,1.54 c 3.674,9.872 5.654,14.849 7.06,17.283 1.134,1.981 3.296,3.372 3.946,-0.287 0.499,-2.767 0.454,-8.335 0.439,-17.527 z"
             style="fill:#faa61a;fill-opacity:1;fill-rule:nonzero;stroke:none"
             id="path92" />
        </g>
        <g
           id="g94"
           transform="translate(280.5474,286.4137)">
          <path
             d="m 0,0 v -17.305 c -0.573,-5.582 -10.454,-7.945 -11.154,-2.082 -0.238,2.61 -0.363,6.216 -0.363,13.915 l -8.301,-1.917 v -51.445 l 11.382,2.628 v 12.314 c 0.693,8.906 11.013,9.4 11.963,3.081 0.319,-1.992 0.29,-5.139 0.29,-11.636 l 8.301,1.917 V 2.798 Z"
             style="fill:#faa61a;fill-opacity:1;fill-rule:nonzero;stroke:none"
             id="path96" />
        </g>
        <g
           id="g98"
           transform="translate(223.9363,279.0872)">
          <path
             d="m 0,0 v -21.201 l 7.659,1.768 c 3.053,0.705 4.124,0.057 4.102,-6.075 v -27.246 l 9.075,2.095 v 25.213 c 0.063,10.823 1.333,13.064 6.716,14.307 l 4.806,1.109 v 17.5 z"
             style="fill:#faa61a;fill-opacity:1;fill-rule:nonzero;stroke:none"
             id="path100" />
        </g>
        <g
           id="g102"
           transform="translate(219.4552,270.0852)">
          <path
             d="m 0,0 -9.678,-2.234 c 0,0 -0.22,-9.754 -0.596,-17.022 -0.56,-10.31 -11.585,-13.518 -12.197,-3.029 -0.279,5.347 -0.367,15.849 -0.367,15.849 L -34.51,-9.131 v -4.96 c 0,-19.315 2.394,-26.128 13.888,-24.61 2.72,0.359 4.785,1.057 7.079,2.711 0.148,0.094 0.295,0.08 0.413,0 0.246,-0.178 0.51,-0.675 0.104,-1.936 -2.188,-6.791 -20.836,-8.563 -20.836,-8.563 L -33.867,-61.8 c 10.709,1.577 22.401,3.837 28.483,14.02 C -3.086,-43.992 0.001,-36.328 0,0"
             style="fill:#faa61a;fill-opacity:1;fill-rule:nonzero;stroke:none"
             id="path104" />
        </g>
        <g
           id="g106"
           transform="translate(168.0473,261.8851)">
          <path
             d="m 0,0 v -16.446 c -0.545,-5.305 -9.935,-7.551 -10.601,-1.979 -0.225,2.481 -0.344,5.908 -0.344,13.224 l -7.889,-1.821 v -48.892 l 10.817,2.497 v 11.703 c 0.658,8.464 10.467,8.934 11.369,2.928 0.303,-1.893 0.275,-4.884 0.275,-11.058 l 7.89,1.821 V 2.659 Z"
             style="fill:#faa61a;fill-opacity:1;fill-rule:nonzero;stroke:none"
             id="path108" />
        </g>
        <g
           id="g110"
           transform="translate(114.9058,225.6891)">
          <path
             d="m 0,0 c -4.954,-1.263 -7.875,1.39 -7.875,8.049 0,5.312 0.1,10.795 9.824,10.795 6.923,0 9.811,-3.505 9.818,-7.46 C 11.773,7.695 7.553,1.926 0,0 m 29.071,21.939 c 0,12.231 -9.012,27.024 -46.715,17.949 v -66.517 l 9.818,2.267 v 11.885 c 0,5.802 3.776,3.472 4.61,2.948 1.409,-0.886 4.352,-3.293 11.345,-11.15 l 16.68,3.851 -12.998,13.308 c 0,0 17.26,6.95 17.26,25.459"
             style="fill:#faa61a;fill-opacity:1;fill-rule:nonzero;stroke:none"
             id="path112" />
        </g>
      </g>
    </g>
  </g>
</svg>
