<?xml version="1.0" encoding="UTF-8"?>
<svg width="624px" height="455px" viewBox="0 0 624 455" version="1.1" xmlns="http://www.w3.org/2000/svg" xmlns:xlink="http://www.w3.org/1999/xlink">
    <title>Group 2</title>
    <g id="Page-1" stroke="none" stroke-width="1" fill="none" fill-rule="evenodd">
        <g id="Group-2" transform="translate(0.5569, -0.0001)" fill-rule="nonzero">
            <path d="M559.722653,333.845325 C553.319986,401.53999 496.094654,454.682655 426.678656,454.682655 C376.846657,454.682655 331.789325,426.794656 308.887992,384.217324 C294.491993,389.278657 279.25466,391.897324 263.783993,391.897324 C239.619994,391.897324 215.813328,385.37199 195.145328,373.279991 C175.938662,383.70399 154.529329,389.146657 132.326663,389.146657 C59.3613318,389.146657 1.13686838e-13,329.693325 1.13686838e-13,256.615994 C1.13686838e-13,206.402662 28.146666,161.477329 71.1439982,139.051997 C67.9079983,128.846663 66.2453317,118.163997 66.2453317,107.301331 C66.2453317,48.1346655 115.52933,5.68434189e-14 176.107996,5.68434189e-14 C212.809328,5.68434189e-14 245.643994,17.4546662 265.663993,44.9706655 C290.066659,22.3746661 322.394659,9.3413331 356.954658,9.3413331 C412.806656,9.3413331 462.058655,43.8626656 481.975988,94.213331 C485.259988,93.9666643 488.551988,93.841331 491.847988,93.841331 C563.902653,93.841331 622.522651,151.90133 622.522651,223.265328 C622.522651,268.71866 598.327985,310.567992 559.722653,333.845325" id="path20-copy" fill="#0096E6" transform="translate(311.2613, 227.3413) scale(-1, 1) rotate(-180) translate(-311.2613, -227.3413)"></path>
            <path d="M545.50652,324.898925 C543.53452,388.658924 490.987854,439.926922 426.678523,439.926922 C377.802524,439.926922 334.090525,409.77359 316.265192,365.202924 C299.982526,373.041591 282.069193,377.141591 263.78386,377.141591 C238.994527,377.141591 215.514528,369.857591 195.407862,356.001591 C176.555862,368.054924 154.903863,374.390924 132.32653,374.390924 C67.4971983,374.390924 14.754533,321.556259 14.754533,256.614927 C14.754533,207.442928 45.1118655,163.981596 90.0331977,146.68693 C84.0958646,134.43093 80.9998646,121.03093 80.9998646,107.301597 C80.9998646,56.2709319 123.665197,14.754933 176.107862,14.754933 C214.549195,14.754933 248.081194,36.7789324 263.002527,69.5469316 C285.433193,41.069599 319.741192,24.0962661 356.954524,24.0962661 C410.538523,24.0962661 457.295855,59.7695985 471.897188,110.308264 C478.485188,109.170931 485.161188,108.596264 491.847854,108.596264 C555.766519,108.596264 607.767851,160.036263 607.767851,223.265594 C607.767851,266.041593 583.546519,305.222926 545.50652,324.898925" id="path24-copy" fill="#FFFFFF" transform="translate(311.2612, 227.3409) scale(-1, 1) rotate(-180) translate(-311.2612, -227.3409)"></path>
            <path d="M535.14532,318.405192 C535.16932,319.334525 535.215987,320.257192 535.215987,321.191859 C535.215987,381.05319 486.622655,429.579856 426.678656,429.579856 C376.802657,429.579856 334.813325,395.971857 322.106659,350.205191 C305.223992,360.698524 285.233326,366.795857 263.783993,366.795857 C237.997327,366.795857 214.314661,357.997191 195.619995,343.315858 C177.879996,356.338524 156.005329,364.045191 132.326663,364.045191 C73.1093315,364.045191 25.102666,315.947859 25.102666,256.617194 C25.102666,206.606528 59.2119985,164.581196 105.393331,152.609196 C96.5253309,139.61853 91.3479977,124.05053 91.3479977,107.302531 C91.3479977,61.9051985 129.295997,25.103866 176.107996,25.103866 C218.155995,25.103866 253.03466,54.802532 259.701327,93.746531 C277.82666,58.5451985 314.558659,34.4465325 356.954658,34.4465325 C410.149323,34.4465325 454.446655,72.3638649 464.222655,122.57853 C473.030655,120.223864 482.286655,118.94653 491.847988,118.94653 C550.15332,118.94653 597.419985,165.651863 597.419985,223.266528 C597.419985,265.629193 571.851986,302.067859 535.14532,318.405192" id="path28-copy" fill="#000000" transform="translate(311.2613, 227.3419) scale(-1, 1) rotate(-180) translate(-311.2613, -227.3419)"></path>
            <path d="M471.395322,183.027195 C464.375322,159.847196 460.401988,148.513863 456.941989,138.959197 C451.043322,122.701864 444.924656,129.087197 442.072656,133.62053 C438.757989,138.935197 434.248656,149.26853 426.424656,168.207196 L407.096656,163.747196 L407.096656,72.7605315 L423.135323,76.4645314 C423.012656,90.9658644 423.256656,100.813864 424.036656,104.640531 C424.743323,108.076531 426.815323,108.564531 428.911323,105.152531 C430.641989,102.348531 433.371322,96.2805309 438.807322,83.8005312 L449.553989,86.2818645 C455.476655,102.197864 458.672655,110.221864 460.939322,114.145864 C462.767322,117.339197 466.252655,119.581864 467.300655,113.683197 C468.104655,109.223197 468.031322,97.1218642 468.007322,82.3031979 L484.629988,86.1405312 L484.629988,186.083195 L471.395322,183.027195 Z" id="path572-copy" fill="#FFAA00" transform="translate(445.8633, 129.4219) scale(-1, 1) rotate(-180) translate(-445.8633, -129.4219)"></path>
            <path d="M378.920124,216.109061 C378.846791,203.678395 378.870791,192.345062 378.334791,188.201062 C377.092124,178.305062 360.176124,173.845062 359.348124,182.959729 C358.957458,187.250395 358.616124,192.917062 358.616124,205.567728 L344.942791,202.410395 L344.942791,119.05173 L362.370791,123.07573 C362.370791,136.310397 362.370791,142.061063 362.589458,146.594396 C363.198791,158.537063 381.13879,161.243729 382.697457,150.85973 C383.405457,146.13173 383.52679,143.86373 383.52679,133.189063 L397.420123,136.39573 L397.420123,220.379728 L378.920124,216.109061 Z" id="path576-copy" fill="#FFAA00" transform="translate(371.1815, 169.7157) scale(-1, 1) rotate(-180) translate(-371.1815, -169.7157)"></path>
            <path d="M286.444926,202.356928 L286.444926,168.803596 L296.170259,171.048929 C302.068926,172.410262 304.506259,171.642262 304.506259,161.202263 L304.506259,118.131597 L320.471592,121.78893 L320.471592,161.299596 C320.471592,178.848929 322.118259,183.278262 330.806258,185.283595 L338.751592,187.118262 L338.751592,214.432928 L286.444926,202.356928 Z" id="path580-copy" fill="#FFAA00" transform="translate(312.5983, 166.2823) scale(-1, 1) rotate(-180) translate(-312.5983, -166.2823)"></path>
            <path d="M279.912793,246.214927 L264.99546,242.770927 C264.99546,242.770927 265.21546,227.414928 264.630127,216.105595 C263.776793,199.556262 247.104794,195.997595 245.764794,211.742928 C245.082127,220.005594 244.764794,236.474927 244.764794,236.474927 L226.216794,232.192261 L226.216794,218.762928 C226.216794,186.710929 247.056794,182.761595 257.95146,191.902929 C258.610127,192.462929 259.26746,192.804262 259.804794,192.560262 C260.414127,192.292262 260.388793,191.634929 260.146127,190.416262 C259.48746,187.222929 254.758127,180.909595 245.204794,178.350929 C237.916794,176.400262 230.774128,175.170929 227.216794,174.609596 L227.216794,152.368263 C243.254127,154.440263 261.82746,159.021596 270.47946,172.329596 C274.988793,179.276262 277.354126,186.613595 278.52346,197.484262 C280.35146,214.594928 279.912793,246.214927 279.912793,246.214927" id="path584-copy" fill="#FFAA00" transform="translate(253.0879, 199.2916) scale(-1, 1) rotate(-180) translate(-253.0879, -199.2916)"></path>
            <path d="M198.625195,243.772794 C198.551862,231.342128 198.575862,220.008794 198.039862,215.864795 C196.797195,205.968795 179.881196,201.508795 179.053196,210.624795 C178.662529,214.914128 178.321196,220.580794 178.321196,233.231461 L164.647863,230.074128 L164.647863,146.715463 L182.075862,150.739463 C182.075862,163.974129 182.075862,169.724796 182.294529,174.258129 C182.903862,186.200795 200.843862,188.907462 202.402528,178.523462 C203.110528,173.795462 203.231862,171.527462 203.231862,160.852796 L217.125195,164.059463 L217.125195,248.04346 L198.625195,243.772794 Z" id="path588-copy" fill="#FFAA00" transform="translate(190.8865, 197.3795) scale(-1, 1) rotate(-180) translate(-190.8865, -197.3795)"></path>
            <path d="M107.856264,181.092943 C101.201597,179.532943 97.4975963,183.238276 97.4975963,191.159609 L97.4975963,198.812942 C97.4962642,204.332942 98.5695975,209.123609 103.493597,210.683608 C117.788264,215.211608 127.745597,209.050275 127.745597,199.372942 C127.745597,190.330276 120.82293,184.139609 107.856264,181.092943 M156.044263,214.168942 C156.044263,249.340941 121.628264,259.552941 79.533598,244.514274 L79.533598,130.976944 L97.4722642,135.118277 L97.4722642,163.54361 C97.4722642,167.882276 100.665597,167.126276 103.614931,164.494276 C105.686931,162.642276 118.141597,150.576943 126.844263,141.89961 L154.229596,148.222277 C154.229596,148.222277 130.353597,172.610276 127.59893,175.023609 C143.637596,181.019609 156.044263,196.644942 156.044263,214.168942" id="path592-copy" fill="#FFAA00" transform="translate(117.7889, 191.1082) scale(-1, 1) rotate(-180) translate(-117.7889, -191.1082)"></path>
            <path d="M186.166061,322.079576 C189.692496,339.406568 181.229573,351.601435 164.236309,355.261367 C156.574274,356.919827 152.823557,354.070429 151.865417,344.954334 C151.654373,342.94638 149.121838,318.850922 148.84326,316.200432 C148.146808,309.574132 147.428464,304.443363 153.434853,302.712571 C166.884421,299.331536 183.137366,307.170497 186.166061,322.079576 Z M123.354505,258.3471 L136.190234,380.470904 C195.184306,373.887055 218.866415,351.969389 213.448999,306.607441 C208.746244,267.27215 166.867077,244.310815 123.354505,258.3471 Z M232.553755,316.966219 C241.874082,316.791373 244.49499,311.057853 244.8664,305.746443 C244.944423,304.630656 245.552604,295.933267 233.465989,296.160009 C222.466155,296.366362 221.855419,305.100306 221.779951,306.179538 C221.400166,311.610728 222.846688,317.148321 232.553755,316.966219 Z M221.389616,383.439534 L235.446574,383.113887 L239.819927,320.572026 L225.762969,320.897674 L221.389616,383.439534 Z M288.509609,319.373377 C284.262075,317.502751 277.144697,314.497177 274.877499,313.355601 C270.87628,311.346775 271.513202,307.076447 275.301473,304.660962 C277.685056,303.122811 283.787544,302.410055 300.075336,304.248564 L300.075336,271.893759 C261.359596,268.749526 250.052778,280.069105 249.105637,294.688268 C248.215926,308.236856 256.883092,317.198581 270.974365,322.141568 C279.010168,324.964039 280.695753,325.080066 281.011433,327.920667 C281.728945,334.016585 270.513203,335.10562 250.655423,333.597361 L250.655321,354.792571 C268.216935,356.012502 303.510225,354.498288 301.48164,334.388382 C300.770452,327.338172 296.631463,322.960835 288.509609,319.373377 Z M343.057295,331.396562 L347.051428,308.744708 C325.557088,304.122994 312.194758,318.640212 308.717058,338.336274 C305.262201,357.904058 312.951221,370.290656 336.299855,369.719906 L338.486575,357.318404 C321.128102,358.342373 319.528781,350.569211 320.728572,343.764862 C322.234055,335.226833 330.04119,329.167561 343.057295,331.396562 Z M364.623153,320.546912 C364.482437,318.534584 363.343662,302.249339 376.093611,300.161993 C390.103249,297.868418 391.237258,314.085502 391.38274,316.165991 C392.075268,326.069606 390.240825,337.104352 379.437603,338.872992 C368.186105,340.71502 365.331299,330.67387 364.623153,320.546912 Z M375.17111,278.279587 C353.64812,281.760696 350.028136,298.191081 351.370724,317.390978 C352.665695,335.909938 357.044636,360.616248 380.659772,356.771727 C405.456583,352.734794 405.370293,329.834686 404.075321,311.315726 C402.732734,292.115829 399.050433,274.417366 375.17111,278.279587 Z M413.528265,298.849556 L416.262652,337.95312 L430.844347,335.59103 L429.16479,311.572255 C428.52608,302.438269 425.749367,270.583009 452.725984,268.905451 L451.332661,248.979994 C410.093967,249.736806 412.65882,286.415923 413.528265,298.849556 Z M475.808896,289.416456 C476.728535,279.0265 489.560316,272.271725 498.245682,271.957935 C502.139012,271.963184 502.026369,275.477575 502.026369,279.972741 C502.026369,281.770665 502.026369,298.116294 502.026369,299.478413 C502.026369,305.662501 499.855028,308.247284 494.924766,308.602261 C483.991516,309.401776 474.735965,301.492604 475.808896,289.416456 Z M500.721807,251.72947 C468.018015,255.32416 460.189065,269.416535 460.189065,289.046739 C460.189065,326.293361 479.588365,326.604771 516.449603,320.334477 L516.449603,207.228756 L500.711673,208.661413 L500.721807,251.72947 Z" id="Combined-Shape" fill="#747DF7"></path>
        </g>
    </g>
</svg>