<?xml version="1.0" encoding="UTF-8" standalone="no"?>
<!-- Created with Inkscape (http://www.inkscape.org/) -->

<svg
   version="1.1"
   id="svg2"
   xml:space="preserve"
   width="1957.3333"
   height="713.33331"
   viewBox="0 0 1957.3333 713.33331"
   sodipodi:docname="Rhythm Tengoku Logo (WhaddupNico Version).ai"
   xmlns:inkscape="http://www.inkscape.org/namespaces/inkscape"
   xmlns:sodipodi="http://sodipodi.sourceforge.net/DTD/sodipodi-0.dtd"
   xmlns="http://www.w3.org/2000/svg"
   xmlns:svg="http://www.w3.org/2000/svg"><defs
     id="defs6"><clipPath
       clipPathUnits="userSpaceOnUse"
       id="clipPath16"><path
         d="M 0,535 H 1468 V 0 H 0 Z"
         id="path14" /></clipPath></defs><sodipodi:namedview
     id="namedview4"
     pagecolor="#ffffff"
     bordercolor="#666666"
     borderopacity="1.0"
     inkscape:pageshadow="2"
     inkscape:pageopacity="0.0"
     inkscape:pagecheckerboard="0" /><g
     id="g8"
     inkscape:groupmode="layer"
     inkscape:label="Rhythm Tengoku Logo (WhaddupNico Version)"
     transform="matrix(1.3333333,0,0,-1.3333333,0,713.33333)"><g
       id="g10"><g
         id="g12"
         clip-path="url(#clipPath16)"><g
           id="g18"
           transform="translate(983,19.9999)"><path
             d="M 0,0 C -38.699,0 -76.447,10.753 -109.163,31.097 -135.541,47.5 -157.848,69.576 -174.485,95.594 -198.745,85.9 -224.401,81 -251,81 c -26.472,0 -52.848,5.127 -77.289,14.938 C -344.903,69.842 -367.212,47.695 -393.622,31.229 -426.39,10.799 -464.212,0 -503,0 c -38.879,0 -76.776,10.846 -109.596,31.365 -26.429,16.524 -48.735,38.738 -65.322,64.9 C -702.587,86.241 -729.239,81 -756,81 c -114.14,0 -207,92.86 -207,207 0,114.14 92.86,207 207,207 38.879,0 76.776,-10.846 109.596,-31.365 26.429,-16.524 48.735,-38.737 65.322,-64.9 24.669,10.024 51.32,15.265 78.082,15.265 26.471,0 52.848,-5.127 77.289,-14.938 16.614,26.096 38.923,48.243 65.334,64.709 32.767,20.43 70.589,31.229 109.377,31.229 71.373,0 136.632,-36.186 174.5,-95.588 C -52.245,409.101 -26.593,414 0,414 c 28.259,0 56.268,-5.812 82.049,-16.928 16.451,26.506 38.727,49.044 65.257,65.866 C 180.385,483.913 218.663,495 258,495 372.141,495 465,402.14 465,288 465,173.86 372.141,81 258,81 229.741,81 201.732,86.813 175.951,97.928 159.5,71.422 137.224,48.884 110.694,32.063 77.615,11.087 39.337,0 0,0"
             style="fill:#010101;fill-opacity:1;fill-rule:nonzero;stroke:none"
             id="path20" /></g><g
           id="g22"
           transform="translate(1241,535)"><path
             d="m 0,0 c -43.136,0 -85.117,-12.162 -121.404,-35.171 -24.339,-15.433 -45.414,-35.257 -62.213,-58.346 -23.821,8.243 -49.01,12.517 -74.383,12.517 -23.321,0 -46.598,-3.636 -68.754,-10.65 -16.977,22.835 -38.167,42.392 -62.522,57.537 C -425.164,-11.796 -466.564,0 -509,0 c -42.533,0 -84.014,-11.846 -119.959,-34.257 -24.354,-15.185 -45.53,-34.78 -62.483,-57.65 C -713.837,-84.724 -737.388,-81 -761,-81 c -23.902,0 -47.724,-3.813 -70.362,-11.171 -16.928,22.907 -38.087,42.539 -62.44,57.764 C -929.804,-11.898 -971.367,0 -1014,0 c -30.627,0 -60.359,-6.008 -88.371,-17.855 -27.036,-11.435 -51.308,-27.798 -72.142,-48.632 -20.835,-20.834 -37.197,-45.106 -48.632,-72.142 -11.847,-28.012 -17.855,-57.744 -17.855,-88.371 0,-30.627 6.008,-60.359 17.855,-88.371 11.435,-27.036 27.797,-51.308 48.632,-72.142 20.834,-20.835 45.106,-37.197 72.142,-48.632 28.012,-11.847 57.744,-17.855 88.371,-17.855 23.902,0 47.724,3.814 70.362,11.171 16.928,-22.906 38.087,-42.539 62.44,-57.764 36.002,-22.509 77.565,-34.407 120.198,-34.407 42.533,0 84.014,11.846 119.959,34.257 24.354,15.185 45.53,34.78 62.483,57.65 22.395,-7.183 45.946,-10.907 69.558,-10.907 23.321,0 46.598,3.636 68.754,10.65 16.977,-22.835 38.167,-42.392 62.522,-57.537 35.888,-22.317 77.288,-34.113 119.724,-34.113 43.136,0 85.117,12.162 121.404,35.172 24.339,15.433 45.414,35.256 62.213,58.345 C -50.563,-449.726 -25.373,-454 0,-454 c 30.627,0 60.359,6.008 88.371,17.855 27.036,11.435 51.308,27.797 72.142,48.632 20.835,20.834 37.197,45.106 48.632,72.142 11.848,28.012 17.855,57.744 17.855,88.371 0,30.627 -6.007,60.359 -17.855,88.371 -11.435,27.036 -27.797,51.308 -48.632,72.142 -20.834,20.834 -45.106,37.197 -72.142,48.632 C 60.359,-6.008 30.627,0 0,0 m 0,-40 c 103.277,0 187,-83.723 187,-187 0,-103.277 -83.723,-187 -187,-187 -32.747,0 -63.522,8.427 -90.291,23.216 C -120.829,-452.531 -184.45,-495 -258,-495 c -72.379,0 -135.147,41.124 -166.231,101.277 C -449.677,-406.686 -478.484,-414 -509,-414 c -30.831,0 -59.917,7.466 -85.556,20.681 C -625.566,-453.693 -688.458,-495 -761,-495 c -72.708,0 -135.721,41.497 -166.656,102.097 C -953.487,-406.374 -982.851,-414 -1014,-414 c -103.277,0 -187,83.723 -187,187 0,103.277 83.723,187 187,187 72.708,0 135.722,-41.496 166.656,-102.097 25.831,13.471 55.195,21.097 86.344,21.097 30.831,0 59.917,-7.466 85.556,-20.681 C -644.434,-81.307 -581.542,-40 -509,-40 c 72.379,0 135.147,-41.124 166.231,-101.277 25.446,12.963 54.253,20.277 84.769,20.277 32.747,0 63.521,-8.427 90.291,-23.216 C -137.171,-82.469 -73.55,-40 0,-40"
             style="fill:#00a8ff;fill-opacity:1;fill-rule:nonzero;stroke:none"
             id="path24" /></g><g
           id="g26"
           transform="translate(981.8333,31.1665)"><path
             d="M 0,0 C -70.763,0 -135.208,37.371 -170.449,98.169 -195.788,86.771 -222.839,81 -251,81 c -28.031,0 -55.951,6.041 -81.338,17.537 -16.175,-27.985 -39.033,-51.65 -66.575,-68.822 C -430.092,10.275 -466.084,0 -503,0 c -37.002,0 -73.066,10.32 -104.294,29.844 -27.577,17.241 -50.435,40.988 -66.579,69.059 C -699.484,87.166 -727.673,81 -756,81 c -108.626,0 -197,88.374 -197,197 0,108.626 88.374,197 197,197 37.002,0 73.066,-10.32 104.294,-29.844 27.577,-17.241 50.435,-40.987 66.579,-69.059 25.611,11.737 53.8,17.903 82.127,17.903 28.032,0 55.949,-6.04 81.338,-17.536 16.175,27.984 39.033,51.649 66.575,68.822 31.178,19.439 67.171,29.714 104.087,29.714 70.763,0 135.208,-37.371 170.449,-98.169 C -55.212,388.229 -28.161,394 0,394 c 29.848,0 59.396,-6.81 86.078,-19.771 15.986,28.516 38.841,52.672 66.583,70.264 C 184.136,464.451 220.562,475 258,475 366.626,475 455,386.626 455,278 455,169.374 366.626,81 258,81 228.153,81 198.606,87.81 171.922,100.77 155.937,72.255 133.081,48.099 105.339,30.507 73.864,10.549 37.438,0 0,0"
             style="fill:#010101;fill-opacity:1;fill-rule:nonzero;stroke:none"
             id="path28" /></g><g
           id="g30"
           transform="translate(1239.8334,516.1667)"><path
             d="m 0,0 c -39.338,0 -77.615,-11.087 -110.694,-32.062 -26.53,-16.822 -48.806,-39.36 -65.257,-65.866 C -201.732,-86.812 -229.741,-81 -258,-81 c -26.598,0 -52.255,-4.901 -76.515,-14.594 -16.637,26.018 -38.944,48.094 -65.323,64.497 C -432.553,-10.753 -470.301,0 -509,0 c -38.788,0 -76.61,-10.799 -109.378,-31.229 -26.41,-16.466 -48.719,-38.613 -65.333,-64.71 C -708.152,-86.128 -734.529,-81 -761,-81 c -26.763,0 -53.411,-5.24 -78.082,-15.265 -16.587,26.162 -38.893,48.376 -65.322,64.9 C -937.224,-10.846 -975.121,0 -1014,0 c -27.936,0 -55.047,-5.476 -80.58,-16.275 -24.652,-10.427 -46.787,-25.35 -65.791,-44.354 -19.004,-19.004 -33.927,-41.139 -44.354,-65.791 -10.799,-25.533 -16.275,-52.644 -16.275,-80.58 0,-27.936 5.476,-55.047 16.275,-80.58 10.427,-24.652 25.35,-46.787 44.354,-65.791 19.004,-19.004 41.139,-33.927 65.791,-44.354 25.533,-10.799 52.644,-16.275 80.58,-16.275 26.763,0 53.411,5.24 78.082,15.265 16.587,-26.162 38.893,-48.376 65.322,-64.9 32.82,-20.519 70.717,-31.365 109.596,-31.365 38.788,0 76.61,10.799 109.378,31.229 26.41,16.466 48.719,38.613 65.333,64.709 24.441,-9.81 50.818,-14.938 77.289,-14.938 26.598,0 52.255,4.901 76.515,14.593 16.637,-26.017 38.944,-48.093 65.323,-64.496 32.715,-20.344 70.463,-31.097 109.162,-31.097 39.338,0 77.615,11.087 110.694,32.062 26.529,16.822 48.806,39.36 65.257,65.866 C -56.268,-408.188 -28.259,-414 0,-414 c 27.936,0 55.047,5.476 80.58,16.275 24.652,10.427 46.787,25.35 65.791,44.354 19.004,19.004 33.927,41.139 44.354,65.791 10.799,25.533 16.275,52.644 16.275,80.58 0,27.936 -5.476,55.047 -16.275,80.58 -10.427,24.652 -25.35,46.787 -44.354,65.791 -19.004,19.004 -41.139,33.927 -65.791,44.354 C 55.047,-5.476 27.936,0 0,0 m 0,-20 c 103.277,0 187,-83.723 187,-187 0,-103.277 -83.723,-187 -187,-187 -32.747,0 -63.521,8.427 -90.291,23.216 C -120.829,-432.531 -184.45,-475 -258,-475 c -72.379,0 -135.147,41.124 -166.231,101.277 C -449.677,-386.687 -478.484,-394 -509,-394 c -30.831,0 -59.917,7.466 -85.556,20.682 C -625.566,-433.693 -688.459,-475 -761,-475 c -72.708,0 -135.722,41.497 -166.656,102.097 C -953.487,-386.374 -982.851,-394 -1014,-394 c -103.277,0 -187,83.723 -187,187 0,103.277 83.723,187 187,187 72.708,0 135.721,-41.497 166.656,-102.097 25.831,13.471 55.195,21.097 86.344,21.097 30.831,0 59.917,-7.466 85.556,-20.682 C -644.434,-61.307 -581.542,-20 -509,-20 c 72.379,0 135.147,-41.124 166.231,-101.277 25.446,12.963 54.253,20.277 84.769,20.277 32.747,0 63.521,-8.427 90.291,-23.216 C -137.171,-62.469 -73.55,-20 0,-20"
             style="fill:#fdfdfd;fill-opacity:1;fill-rule:nonzero;stroke:none"
             id="path32" /></g><g
           id="g34"
           transform="translate(789.5929,376.1341)"><path
             d="m 0,0 c 0.911,2.373 5.74,12.484 5.74,12.484 0,0 3.834,5.666 -5.666,5.666 h -54.667 c -4.5,0 -8.5,0.038 -12.333,-7.333 -4.407,-8.474 -85,-126.667 -85,-126.667 0,0 -6.667,-10.333 -16.334,-10.333 -9.666,0 -7.666,-1 -8.333,-3 l -5,-19.667 c 0,0 -2.667,-7.666 5.333,-7.666 H 44.407 c 0,0 6.667,0 4.333,7.333 0,0 -5.866,19.067 -5.866,20.067 0,1 -1.467,4.666 -8,4.666 0,0 -11.134,0.6 -15.134,10.267 -4,9.667 -8.333,28 -8.333,28 0,0 0,4 -7.333,4 h -47 c 0,0 -5,0 -2.334,-7.333 2.667,-7.334 10,-30.334 10,-30.334 0,0 3,-5.666 -3.666,-5.666 h -58.667 c 0,0 -6,0.666 -1,6.666 5,6 73,106 73,106 0,0 5.667,8.667 13.667,8.667 2.825,0 3.943,-0.008 5.502,-0.019 C -3.569,-4.222 -1.926,-5.016 0,0"
             style="fill:#fd5e1d;fill-opacity:1;fill-rule:nonzero;stroke:none"
             id="path36" /></g><g
           id="g38"
           transform="translate(133.6667,254.2844)"><path
             d="m 0,0 h 97.233 c 4.376,0 21.975,-0.583 27.767,20 7.309,25.977 28.667,87 28.667,87 0,0 4.666,12 -7,12 -5.334,0 -4.667,0.333 -4,4.667 C 143.333,128 147,139 147,139 c 0,0 -0.49,3 7.588,3 h 76.079 c 0,0 8.333,1.333 4.333,-7.667 -4,-9 -4.333,-12.666 -4.333,-12.666 0,0 0.333,-3.334 -7,-3.334 -7.334,0 -11.667,-2 -13.667,-11.666 -2,-9.667 -30,-96 -29.667,-97 C 180.667,8.667 171,-30 129.667,-30 H -8.667 c 0,0 -6,-2.333 -3,7.667 3,10 5.052,17.082 5.052,17.082 0,0 2.056,5.251 6.615,5.251"
             style="fill:#fd5e1d;fill-opacity:1;fill-rule:nonzero;stroke:none"
             id="path40" /></g><g
           id="g42"
           transform="translate(150.1667,320.5344)"><path
             d="m 0,0 12.87,40.75 c 0,0 4.667,12 -7,12 -5.333,0 -4.667,0.333 -4,4.667 0.667,4.333 4.333,15.333 4.333,15.333 0,0 -0.489,3 7.589,3 H 77.87 c 0,0 8.333,1.333 4.333,-7.667 -4,-9 -4.333,-12.666 -4.333,-12.666 0,0 0.333,-3.334 -7,-3.334 -7.333,0 -11.338,-2.073 -13.667,-11.666 -0.074,-0.309 -12,-40.903 -12,-40.903 -1.036,-2.931 -3.703,-10.097 4.63,-10.097 8.334,0 7.334,-2.5 6.167,-5.667 -1.167,-3.167 -4,-12.833 -4,-12.833 0,0 -1.333,-5.667 -7.667,-5.667 h -65.166 c 0,0 -7,-0.333 -5,7.167 2,7.5 3.833,11 5,14.666 1.166,3.667 2.5,3.834 6.5,3.834 3.833,0 10.5,0 14.333,9.083"
             style="fill:#fd5e1d;fill-opacity:1;fill-rule:nonzero;stroke:none"
             id="path44" /></g><g
           id="g46"
           transform="translate(1288.0369,364.5174)"><path
             d="m 0,0 h -67.078 c -4.709,0 -5.189,-3 -5.189,-3 0,0 -1.603,-3.483 -2.27,-7.816 -0.667,-4.334 -1.333,-4.667 4,-4.667 11.667,0 8,-10 8,-10 l -6.43,-19.833 h -15.451 c -2.209,0 -4.446,-1.791 -4.997,-4 l -2.244,-9 c -0.551,-2.209 0.794,-4 3.003,-4 h 14.513 l -6.394,-21 C -84.37,-92.4 -92.037,-94.2 -95.87,-94.2 c -4,0 -5.334,-0.166 -6.5,-3.833 -1.167,-3.667 0.666,2.2 -1.334,-5.3 -2,-7.5 5,-7.167 5,-7.167 h 65.167 c 6.333,0 7.667,5.667 7.667,5.667 0,0 0.241,1.501 1.333,5.267 1.167,3.166 2.167,5.666 -6.167,5.666 -8.333,0 -5.666,7.167 -4.63,10.098 0,0 2.874,9.964 6.195,21.486 h 14.983 c 2.209,0 4.446,1.791 4.997,4 l 2.244,9 c 0.551,2.209 -0.793,4 -3.003,4 H -24.24 c 2.786,9.668 5.009,17.385 5.036,17.5 2.329,9.593 6.334,11.666 13.667,11.666 5.059,0 6.468,1.586 6.857,2.57 0.042,-0.284 0.572,0.42 3.013,5.913 C 8.333,1.333 0,0 0,0"
             style="fill:#fd5e1d;fill-opacity:1;fill-rule:nonzero;stroke:none"
             id="path48" /></g><g
           id="g50"
           transform="translate(1271.7473,282.701)"><path
             d="m 0,0 c -0.551,-2.209 -2.788,-4 -4.997,-4 h -7.12 c -2.209,0 -3.553,1.791 -3.002,4 l 2.244,9 c 0.55,2.209 2.788,4 4.997,4 h 7.119 C 1.45,13 2.795,11.209 2.244,9 Z"
             style="fill:#fd5e1d;fill-opacity:1;fill-rule:nonzero;stroke:none"
             id="path52" /></g><g
           id="g54"
           transform="translate(602,308.951)"><path
             d="m 0,0 c 0,-8.837 -7.163,-16 -16,-16 -8.837,0 -16,7.163 -16,16 0,8.837 7.163,16 16,16 C -7.163,16 0,8.837 0,0"
             style="fill:#fbba18;fill-opacity:1;fill-rule:nonzero;stroke:none"
             id="path56" /></g><g
           id="g58"
           transform="translate(567,308.951)"><path
             d="m 0,0 c 0,-8.837 -7.163,-16 -16,-16 -8.837,0 -16,7.163 -16,16 0,8.837 7.163,16 16,16 C -7.163,16 0,8.837 0,0"
             style="fill:#fbba18;fill-opacity:1;fill-rule:nonzero;stroke:none"
             id="path60" /></g><g
           id="g62"
           transform="translate(571.8621,285.6978)"><path
             d="m 0,0 h -185.081 c -9.79,0 -9.196,-3.635 -9.196,-3.635 0,0 -4.444,-14.331 -5.252,-19.582 -0.808,-5.251 -1.616,-5.655 4.848,-5.655 14.138,0 108.486,0.459 108.486,0.459 0,0 -4.399,-22.17 -19.279,-47.051 -14.721,-24.616 -44.721,-39 -67.388,-39 -22.667,0 -47.497,-0.645 -47.497,-0.645 -5.525,0 -8.016,-6.363 -8.016,-6.363 0,0 -2.487,-8.583 -6.123,-20.701 -3.635,-12.119 3.636,-9.291 3.636,-9.291 h 80.989 c 20.347,0 41.699,11.141 61.052,26.811 3.836,-5.285 7.193,-12.965 7.709,-17.094 0.75,-6 3.75,-7.25 5,-7.25 h 43.5 c 9.25,0 8.25,2 6.25,6.5 -6.98,15.704 -28.845,32.032 -39.517,39.324 19.835,21.147 35.328,44.664 41.834,60.355 5.945,14.335 6.675,14.138 15.562,14.138 7.788,0 8.755,4.835 8.755,4.835 L 5.251,-9.291 C 10.099,1.616 0,0 0,0"
             style="fill:#fbba18;fill-opacity:1;fill-rule:nonzero;stroke:none"
             id="path64" /></g><g
           id="g66"
           transform="translate(1100.6667,310.3011)"><path
             d="m 0,0 h -195 c 0,0 -8.333,1.983 -10.667,-9.35 l -4,-13.75 c 0,0 -4.333,-9.917 6.667,-9.917 h 62 c 0,0 8.333,1.417 4.667,-8.333 -1.215,-3.231 -2.989,-8.726 -4.993,-15.225 h -72.341 c 0,0 -7.75,1.289 -10.666,-9.35 l -4,-13.75 c 0,0 -4.334,-9.917 6.666,-9.917 h 62 l 8.521,0.049 c -2.253,-7.686 -10.521,-53.14 -50.854,-53.14 h -38 c 0,0 -5.917,0.833 -8,-6.667 l -5.333,-17.333 c 0,0 -3,-7.667 3,-7.667 h 55.666 c 12.195,0 51.302,4.146 77.903,42.315 6.993,-6.71 22.925,-22.894 29.847,-37.315 0,0 0.75,-5 6.75,-5 h 43.25 c 0,0 9.75,-2 5,6.25 -4.287,7.447 -44.22,49.314 -70.893,60.889 2.66,5.629 5.36,12.042 7.542,18.723 1.96,0.176 4.235,0.313 6.601,0.313 h 65.334 c 0,0 6.916,-0.925 8.333,5.583 l 4.626,16.48 c 0,0 5.041,9.537 -8.293,9.537 h -66.359 c 3.955,12.312 7.359,22.892 7.359,22.892 0,0 1,2.083 7.667,2.083 h 65.333 c 0,0 6.667,-1.705 8.334,5.783 L 9,-7.017 C 9,-7.017 13.333,0 0,0"
             style="fill:#fbba18;fill-opacity:1;fill-rule:nonzero;stroke:none"
             id="path68" /></g><g
           id="g70"
           transform="translate(1315.7651,365.7974)"><path
             d="m 0,0 c 0,0 -32.767,-107.201 -35.175,-113.839 -2.408,-6.639 -7.456,-6.539 -7.456,-6.539 h -111.33 c -6.61,0 -2.218,9.981 -2.218,9.981 l 33.773,107.692 c 2.804,12.294 11.522,8.875 12.262,9.735 0,0 97.035,0.1 105.783,0.1 C 2.248,7.13 0,0 0,0 m 42.902,30.154 h -191.667 c -1.65,0 -9.25,0.678 -13,-13.334 l -45,-146 c 0,0 -6.333,-13.531 5,-13.531 H -7.432 c 0,0 8.667,-0.135 12,8.865 3.334,9 46.667,154.333 46.667,154.333 0,0 3,9.667 -8.333,9.667"
             style="fill:#fd5e1d;fill-opacity:1;fill-rule:nonzero;stroke:none"
             id="path72" /></g><g
           id="g74"
           transform="translate(946,349.1299)"><path
             d="M 0,0 H 30 C 30,0 8,-6.333 8,-15.667 c 0,-9.333 15,-10 19,-10"
             style="fill:none;stroke:#fbba18;stroke-width:4;stroke-linecap:round;stroke-linejoin:round;stroke-miterlimit:10;stroke-dasharray:none;stroke-opacity:1"
             id="path76" /></g><g
           id="g78"
           transform="translate(1044,351.4633)"><path
             d="M 0,0 C 0,0 -6.833,-15.167 -9.333,-28"
             style="fill:none;stroke:#fbba18;stroke-width:4;stroke-linecap:round;stroke-linejoin:round;stroke-miterlimit:10;stroke-dasharray:none;stroke-opacity:1"
             id="path80" /></g><g
           id="g82"
           transform="translate(1063,334.9633)"><path
             d="m 0,0 c 0,0 -1.75,-11.5 -7,-11.5 -5.25,0 -5.833,2 -5.833,7 0,5 -4.067,12.667 -12.9,3"
             style="fill:none;stroke:#fbba18;stroke-width:4;stroke-linecap:round;stroke-linejoin:round;stroke-miterlimit:10;stroke-dasharray:none;stroke-opacity:1"
             id="path84" /></g><g
           id="g86"
           transform="translate(1207.3334,437.7966)"><path
             d="m 0,0 h 21.333 c 0,0 -9.25,-5.25 -10,-6"
             style="fill:none;stroke:#ff5f17;stroke-width:4;stroke-linecap:round;stroke-linejoin:round;stroke-miterlimit:10;stroke-dasharray:none;stroke-opacity:1"
             id="path88" /></g><g
           id="g90"
           transform="translate(1210.6666,425.2966)"><path
             d="m 0,0 c 0,0 -4.667,-3 -4.667,-7.5 0,-4.5 6.834,-9.333 26.5,-5.667"
             style="fill:none;stroke:#ff5f17;stroke-width:4;stroke-linecap:round;stroke-linejoin:round;stroke-miterlimit:10;stroke-dasharray:none;stroke-opacity:1"
             id="path92" /></g><g
           id="g94"
           transform="translate(1227.8334,426.2966)"><path
             d="M 0,0 C 0,0 0.667,3.5 4.667,2.5"
             style="fill:none;stroke:#ff5f17;stroke-width:4;stroke-linecap:round;stroke-linejoin:round;stroke-miterlimit:10;stroke-dasharray:none;stroke-opacity:1"
             id="path96" /></g><g
           id="g98"
           transform="translate(1316.1666,409.2966)"><path
             d="M 0,0 C 0,0 -14,10 -17.167,11 -20.333,12 -27,17.667 -5.333,28.5"
             style="fill:none;stroke:#ff5f17;stroke-width:4;stroke-linecap:round;stroke-linejoin:round;stroke-miterlimit:10;stroke-dasharray:none;stroke-opacity:1"
             id="path100" /></g></g></g></g></svg>
