<?xml version="1.0" encoding="UTF-8"?>
<svg width="667px" height="497px" viewBox="0 0 667 497" version="1.1" xmlns="http://www.w3.org/2000/svg" xmlns:xlink="http://www.w3.org/1999/xlink">
    <title>Rhythm Heaven Logo</title>
    <defs>
        <polygon id="path-1" points="0 496.354654 666.66665 496.354654 666.66665 0 0 0"></polygon>
    </defs>
    <g id="Page-1" stroke="none" stroke-width="1" fill="none" fill-rule="evenodd">
        <g id="Rhythm-Heaven-Logo">
            <g id="g12-Clipped" transform="translate(333.3333, 248.1773) scale(-1, 1) rotate(-180) translate(-333.3333, -248.1773)translate(0, 0)">
                <mask id="mask-2" fill="white">
                    <use xlink:href="#path-1"></use>
                </mask>
                <g id="path14"></g>
                <g id="g12" mask="url(#mask-2)">
                    <g transform="translate(-0.0003, -0.0007)">
                        <g id="g18">
                            <path d="M642.510651,298.709326 C649.035984,315.438659 652.431984,333.362658 652.431984,351.443991 C652.431984,431.347989 587.426652,496.354654 507.522654,496.354654 C460.955988,496.354654 418.021323,474.106655 391.066657,437.721322 C372.383991,447.055989 351.646658,452.021322 330.459992,452.021322 C302.471992,452.021322 275.597326,443.555989 252.74266,427.539989 C240.890661,419.23599 230.559994,409.22799 222.025328,397.86799 C199.099995,412.253323 172.334662,420.137323 144.910663,420.137323 C65.006665,420.137323 0,355.130658 0,275.22666 C0,243.103994 10.2986664,212.671995 29.7813326,187.217329 C43.3893322,169.437329 61.1053318,154.990663 81.0773313,145.14133 C80.803998,141.643996 80.667998,138.130663 80.667998,134.611997 C80.667998,60.3866652 141.054663,0 215.278661,0 C243.125327,0 269.853327,8.43733312 292.574659,24.3973327 C306.090659,33.8919992 317.606659,45.6159989 326.711992,59.0426652 C341.907991,53.2999987 358.093324,50.3306654 374.625324,50.3306654 C416.23599,50.3306654 455.334655,69.7733316 480.761321,101.609331 C497.498654,94.1466643 515.662654,90.2786644 534.44932,90.2786644 C607.354651,90.2786644 666.66665,149.590663 666.66665,222.494661 C666.66665,250.099994 658.197317,276.541326 642.510651,298.709326" id="path20" fill="#00B3F0" fill-rule="nonzero"></path>
                        </g>
                        <g id="g22" transform="translate(15.0893, 15.0903)">
                            <path d="M610.099985,281.47066 C618.073318,298.571993 622.253318,317.361325 622.253318,336.353325 C622.253318,407.937323 564.015986,466.174655 492.433321,466.174655 C446.175989,466.174655 403.91999,441.671989 380.742657,402.566657 C361.370658,415.081323 338.675992,421.841323 315.370659,421.841323 C290.497326,421.841323 266.617327,414.321323 246.313327,400.09199 C231.699994,389.85199 219.687995,376.702657 210.929328,361.473324 C188.050662,379.743991 159.359996,389.957324 129.82133,389.957324 C58.2386652,389.957324 0,331.719992 0,260.137327 C0,206.649328 33.2786658,158.611996 82.3039979,139.295997 C81.215998,132.779997 80.667998,126.16533 80.667998,119.522664 C80.667998,53.617332 134.28533,0 200.189328,0 C224.914661,0 248.643994,7.48799981 268.811993,21.6546661 C284.26666,32.5119992 296.777326,46.6493322 305.565326,63.0666651 C322.231992,54.6986653 340.627991,50.3306654 359.535991,50.3306654 C400.66399,50.3306654 439.027989,71.6999982 460.990655,105.829331 C478.666655,95.6159976 498.579988,90.2786644 519.359987,90.2786644 C583.943985,90.2786644 636.486651,142.82133 636.486651,207.405328 C636.486651,234.639994 627.181318,260.59866 610.099985,281.47066" id="path24" fill="#FFFFFF" fill-rule="nonzero"></path>
                        </g>
                        <g id="g26" transform="translate(28.2636, 28.2631)">
                            <path d="M581.106652,266.289327 C590.527985,283.119993 595.906652,302.521326 595.906652,323.181325 C595.906652,387.60399 543.68132,439.827989 479.258655,439.827989 C431.305323,439.827989 390.117324,410.88799 372.189324,369.523991 C353.398658,385.70799 328.941325,395.494657 302.195992,395.494657 C256.43866,395.494657 217.375995,366.850657 201.946662,326.517325 C180.654662,349.337325 150.319996,363.610658 116.646664,363.610658 C52.225332,363.610658 0,311.386659 0,246.963994 C0,193.683995 35.7213324,148.74933 84.5213312,134.798663 C82.0133313,125.742664 80.6666647,116.202664 80.6666647,106.349331 C80.6666647,47.6146655 128.28133,0 187.014662,0 C232.453328,0 271.227993,28.5 286.45866,68.5959983 C303.566659,57.0639986 324.177325,50.3306654 346.362658,50.3306654 C389.10399,50.3306654 426.006656,75.3226648 443.261322,111.489331 C460.729322,98.1839975 482.533321,90.2786644 506.186654,90.2786644 C563.598653,90.2786644 610.139985,136.819997 610.139985,194.231995 C610.139985,222.209328 599.083985,247.60266 581.106652,266.289327" id="path28" fill="#130C0E" fill-rule="nonzero"></path>
                        </g>
                        <g id="g58" transform="translate(469.2807, 295.2247)">
                            <path d="M88.6439978,17.2679996 L88.6439978,127.959997 L73.5119982,124.466664 C65.486665,97.9653309 60.9439985,85.0079979 56.9879986,74.0839981 C50.2439987,55.4973319 43.2493323,62.7973318 39.9893323,67.9813316 C36.1986658,74.0559981 31.0439992,85.8733312 22.0986661,107.525331 L0,102.423997 L0,0 L18.3239995,4.22933323 C18.1853329,20.8106661 18.4759995,30.4733326 19.3679995,34.8479991 C20.1759995,38.7773324 22.5439994,39.3346657 24.9413327,35.4333324 C26.9199993,32.2279992 30.0413326,25.2893327 36.2546658,11.0213331 L48.5439988,13.8586663 C55.3159986,32.0559992 58.9666652,41.2293323 61.5573318,45.7159989 C63.6479984,49.3666654 67.6319983,51.929332 68.8306649,45.1866655 C69.7506649,40.0866657 69.6666649,29.8226659 69.6386649,12.8799997 L88.6439978,17.2679996 Z" id="path60" fill="#FAA61A" fill-rule="nonzero"></path>
                        </g>
                        <g id="g62" transform="translate(401.5283, 263.9204)">
                            <path d="M36.5279991,108.439997 L36.5279991,76.5453314 C35.4706658,66.2559983 17.2599996,61.8999985 15.9693329,72.7053315 C15.5319996,77.5173314 15.301333,84.1639979 15.301333,98.3533309 L0,94.821331 L0,0 L20.9799995,4.84266655 L20.9799995,27.5399993 C22.2559994,43.9546656 41.2786656,44.8653322 43.0279989,33.2186658 C43.6173322,29.5466659 43.5626656,23.7466661 43.5626656,11.7719997 L58.8626652,15.3039996 L58.8626652,113.595997 L36.5279991,108.439997 Z" id="path64" fill="#FAA61A" fill-rule="nonzero"></path>
                        </g>
                        <g id="g66" transform="translate(333.7128, 261.6217)">
                            <path d="M0,97.2346642 L0,58.1573319 L14.117333,61.4173318 C19.7426662,62.7159984 21.7186661,61.5213318 21.6773328,50.2186654 L21.6773328,0 L38.403999,3.86133324 L38.403999,50.3333321 C38.519999,70.2826649 40.859999,74.4119981 50.7813321,76.7026647 L59.6399985,78.747998 L59.6399985,111.003997 L0,97.2346642 Z" id="path68" fill="#FAA61A" fill-rule="nonzero"></path>
                        </g>
                        <g id="g70" transform="translate(261.8468, 228.3576)">
                            <path d="M63.6066653,113.906664 L45.7679989,109.787997 C45.7679989,109.787997 45.3626655,91.8119977 44.6706655,78.4146647 C43.6373322,59.4106652 23.3159994,53.4986653 22.1893328,72.8319982 C21.6759995,82.6866646 21.5119995,102.042664 21.5119995,102.042664 L0,97.0773309 L0,87.9346645 C0,52.333332 4.41199989,39.775999 25.5959994,42.5746656 C30.6106659,43.2359989 34.4159991,44.5226656 38.643999,47.5706655 C38.9186657,47.7439988 39.187999,47.7173321 39.4066657,47.5706655 C39.859999,47.2439988 40.3453323,46.3279988 39.5973323,44.0039989 C35.5639991,31.4853325 1.1933333,28.2199993 1.1933333,28.2199993 L1.18399997,0 C20.9239995,2.90533326 42.4719989,7.07066649 53.6839987,25.8399994 C57.9186652,32.8226658 63.6079984,46.9479988 63.6066653,113.906664" id="path72" fill="#FAA61A" fill-rule="nonzero"></path>
                        </g>
                        <g id="g74" transform="translate(195.9856, 224.0916)">
                            <path d="M34.7146658,103.058664 L34.7146658,72.7466648 C33.7106658,62.9679984 16.4026663,58.8279985 15.1759996,69.0973316 C14.7599996,73.6706648 14.541333,79.987998 14.541333,93.473331 L0,90.1159977 L0,0 L19.9386662,4.60266655 L19.9386662,26.1733327 C21.1506661,41.7733323 39.2293324,42.6386656 40.891999,31.5706659 C41.451999,28.0813326 41.399999,22.5679994 41.399999,11.1879997 L55.9413319,14.5439996 L55.9413319,107.958664 L34.7146658,103.058664 Z" id="path76" fill="#FAA61A" fill-rule="nonzero"></path>
                        </g>
                        <g id="g78" transform="translate(100.2307, 211.3536)">
                            <path d="M32.5213325,49.0813321 C23.3906661,46.7533322 18.0053329,51.6439987 18.0053329,63.9173317 C18.0053329,73.7066648 18.1906662,83.8146646 36.1133324,83.8146646 C48.8746654,83.8146646 54.197332,77.3533314 54.2093458,70.0639982 C54.221332,63.2639984 46.4439988,52.6306654 32.5213325,49.0813321 M86.1026645,89.5186644 C86.1026645,112.061331 69.4946649,139.327997 0,122.60133 L0,0 L18.0973329,4.17733323 L18.0973329,26.0839993 C18.0973329,36.7786657 25.0559994,32.4826659 26.5933327,31.5173325 C29.1906659,29.8839993 34.6159991,25.4493327 47.5039988,10.9666664 L78.247998,18.0639995 L54.2906653,42.5933323 C54.2906653,42.5933323 86.1026645,55.4039986 86.1026645,89.5186644" id="path80" fill="#FAA61A" fill-rule="nonzero"></path>
                        </g>
                    </g>
                </g>
            </g>
            <path d="M155.062238,386.995994 C155.061605,376.224358 160.59423,365.482571 184.132592,367.197967 L184.132592,332.496819 C144.970955,328.243823 126.008178,351.852212 126.000003,382.025894 C125.991886,412.003011 143.32312,429.727283 184.132592,425.906805 L184.132592,406.90852 C159.081909,409.10153 155.06224,397.419807 155.06224,386.995993 L155.062238,386.995994 Z M212.656743,338.804896 C224.498909,338.281481 232.661751,344.773862 232.661751,352.760274 C232.661751,360.223637 226.951774,364.014337 216.255639,364.058232 C210.766829,364.077735 207.710784,360.314022 207.710784,353.77603 C207.710784,350.899317 207.710784,350.678023 207.710784,347.45932 C207.690671,342.908247 208.595421,339.154212 212.656741,338.804898 L212.656743,338.804896 Z M232.54111,372.829179 C245.77055,370.93641 255.984161,360.4008 256.004274,345.941403 C256.004274,316.912721 227.615253,301.92591 192.892996,306.317244 L192.892996,399.984527 L207.708255,399.984527 L207.69067,376.563816 C207.69067,372.983011 210.324496,374.215039 212.757268,376.949628 C214.466237,378.873276 224.707979,391.164862 231.885658,399.984527 L254.476254,399.984527 C254.456141,399.999997 234.813041,375.345567 232.541105,372.829176 L232.54111,372.829179 Z M295.577747,284.551829 C329.089407,284.551829 332.481876,314.135085 332.481876,334.74492 C332.481876,354.623815 330.379483,378.945493 295.577688,378.973429 C262.434353,378.999995 258.755186,352.024221 258.755186,332.145327 C258.755186,311.535492 265.372907,284.551829 295.577746,284.551829 Z M311.678695,305.551829 C311.392919,305.580282 311.221454,306.291592 310.392704,310.303382 C309.73542,313.433147 308.020766,318.981368 307.649258,319.00982 C301.590813,310.018858 285.844572,310.87243 279.500352,319.152082 C275.75669,322.338753 273.927726,334.943171 272.927511,341.515679 C272.127339,344.446277 270.155487,349.510806 268.755186,352.128428 C277.928585,357.278315 295.017972,359.269984 304.677191,355.855694 C300.133357,355.457361 296.589738,351.67319 296.589738,347.063899 C296.589738,342.198536 300.562021,338.243651 305.448785,338.243651 C310.335549,338.243651 314.307832,342.198536 314.307832,347.063899 C314.307832,348.514972 313.964901,349.880688 313.336194,351.075689 L313.336194,351.132594 C317.222744,349.055568 322.08093,341.288059 321.738,335.995911 C321.96662,329.537213 318.194381,322.367205 311.764428,321.286013 C311.107144,321.143751 310.56417,320.973037 310.56417,320.88768 C310.878523,319.635773 316.56546,312.266599 318.79451,309.933501 C317.365631,308.909214 316.108218,308.055641 314.164944,306.889093 C312.907531,306.14933 311.793005,305.551829 311.678695,305.551829 Z M339.921718,367.449153 L339.92168,387.365735 C356.643427,388.77342 397.190661,392.259331 394.661379,369.253377 C393.765051,361.100519 389.437803,355.627678 380.690569,350.660534 C376.116035,348.069208 368.450651,343.874934 366.008839,342.327496 C360.352532,338.715891 359.857997,333.530988 363.937958,331.153908 C367.770669,328.905898 376.796053,327.93686 393.146872,329.66183 L393.146872,294.467625 C347.834426,291.693398 339.272674,301.520489 338.252667,318.204207 C337.29446,333.665006 346.628971,344.858788 361.805236,352.005904 C370.459728,356.08591 376.023331,358.099102 376.363321,361.39312 C377.136043,368.466235 359.9507,368.035068 339.921716,367.44915 L339.921718,367.449153 Z M398.54842,311.449153 L398.548382,331.365735 C415.270129,332.77342 455.817363,336.259331 453.288081,313.253377 C452.391753,305.100519 448.064506,299.627678 439.317271,294.660534 C434.742738,292.069208 427.077353,287.874934 424.635541,286.327496 C418.979234,282.715891 418.484699,277.530988 422.56466,275.153908 C426.397371,272.905898 435.422755,271.93686 451.773574,273.66183 L451.773574,238.467625 C406.461128,235.693398 397.899377,245.520489 396.879369,262.204207 C395.921162,277.665006 405.255673,288.858788 420.431938,296.005904 C429.08643,300.08591 434.650033,302.099102 434.990023,305.39312 C435.762745,312.466235 418.577402,312.035068 398.548418,311.44915 L398.54842,311.449153 Z M462.547865,340.999998 L486.436626,340.999998 L486.436626,246.578417 L462.547865,246.578417 L462.547865,340.999998 Z M591.501766,301.302705 C578.6942,301.302705 572.455212,290.683014 575.290131,275.48287 C578.663602,257.395141 599.712452,257.610434 621.399603,264.17087 L621.417206,230.178119 C582.877096,220.942118 555.583004,236.517804 555.591976,273.357888 C555.599918,305.954815 562.756211,322 589.77029,322 C615.438591,322 627.651282,304.366613 623.045039,278.46586 L604.227415,278.46586 C606.142417,290.612632 603.327822,301.302708 591.501769,301.302708 L591.501766,301.302705 Z M530.340673,227.578417 C530.340673,227.578417 530.212281,261.051151 529.795493,266.848169 C529.378706,272.645269 528.352538,274.810368 526.749255,274.728284 C525.979549,274.646602 525.177908,274.301309 524.568856,273.712149 C523.446557,272.716237 522.035538,270.82085 520.175793,267.508682 C517.450212,262.61922 512.544232,252.517759 505.521722,237.251178 L495.26071,237.25119 L495.26071,321.999998 L507.670186,321.983919 L507.830514,300.497475 C507.830514,296.013343 508.311498,293.145761 509.337666,291.973558 C509.690258,291.574578 510.266167,291.380211 510.812557,291.417397 C514.424672,291.663229 523.070175,305.387449 531.75984,321.999998 L546.790297,321.999998 L546.790297,227.578417 L530.340676,227.578417 L530.340673,227.578417 Z" id="Path-2" fill="#61B948" fill-rule="nonzero"></path>
        </g>
    </g>
</svg>