<?xml version="1.0" encoding="UTF-8" standalone="no"?>
<!-- Created with Inkscape (http://www.inkscape.org/) -->

<svg
   version="1.1"
   id="svg2"
   width="666.66669"
   height="572.30267"
   viewBox="0 0 666.66669 572.30267"
   sodipodi:docname="Rhythm Tengoku The Best+ Complete Music Collection (リズム天国 ザ・ベスト＋全曲集) Logo.ai"
   xmlns:inkscape="http://www.inkscape.org/namespaces/inkscape"
   xmlns:sodipodi="http://sodipodi.sourceforge.net/DTD/sodipodi-0.dtd"
   xmlns="http://www.w3.org/2000/svg"
   xmlns:svg="http://www.w3.org/2000/svg">
  <defs
     id="defs6">
    <clipPath
       clipPathUnits="userSpaceOnUse"
       id="clipPath16">
      <path
         d="M 0,429.227 H 500 V 0 H 0 Z"
         id="path14" />
    </clipPath>
    <linearGradient
       x1="0"
       y1="0"
       x2="1"
       y2="0"
       gradientUnits="userSpaceOnUse"
       gradientTransform="matrix(125.22931,45.579742,45.579742,-125.22931,358.07324,229.68562)"
       spreadMethod="pad"
       id="linearGradient56">
      <stop
         style="stop-opacity:1;stop-color:#feee04"
         offset="0"
         id="stop50" />
      <stop
         style="stop-opacity:1;stop-color:#feee04"
         offset="0.5"
         id="stop52" />
      <stop
         style="stop-opacity:1;stop-color:#ffc602"
         offset="1"
         id="stop54" />
    </linearGradient>
    <radialGradient
       fx="0"
       fy="0"
       cx="0"
       cy="0"
       r="1"
       gradientUnits="userSpaceOnUse"
       gradientTransform="matrix(30.000029,0,0,-30.000029,363.40009,250.31071)"
       spreadMethod="pad"
       id="radialGradient78">
      <stop
         style="stop-opacity:1;stop-color:#ffffff"
         offset="0"
         id="stop72" />
      <stop
         style="stop-opacity:1;stop-color:#ffffff"
         offset="0.1"
         id="stop74" />
      <stop
         style="stop-opacity:1;stop-color:#feee04"
         offset="1"
         id="stop76" />
    </radialGradient>
    <clipPath
       clipPathUnits="userSpaceOnUse"
       id="clipPath88">
      <path
         d="M 0,429.227 H 500 V 0 H 0 Z"
         id="path86" />
    </clipPath>
  </defs>
  <sodipodi:namedview
     id="namedview4"
     pagecolor="#ffffff"
     bordercolor="#000000"
     borderopacity="0.25"
     inkscape:showpageshadow="2"
     inkscape:pageopacity="0.0"
     inkscape:pagecheckerboard="0"
     inkscape:deskcolor="#d1d1d1" />
  <g
     id="g8"
     inkscape:groupmode="layer"
     inkscape:label="Rhythm Tengoku The Best+ Complete Music Collection (リズム天国 ザ・ベスト＋全曲集) Logo"
     transform="matrix(1.3333333,0,0,-1.3333333,0,572.30267)">
    <g
       id="g10">
      <g
         id="g12"
         clip-path="url(#clipPath16)">
        <g
           id="g18"
           transform="translate(421.0644,271.3557)">
          <path
             d="m 0,0 c 43.525,0 78.936,35.411 78.936,78.936 0,43.525 -35.411,78.935 -78.936,78.935 -27.178,0 -52.019,-13.86 -66.384,-36.198 -5.2,1.068 -10.506,1.606 -15.871,1.606 -16.602,0 -32.425,-5.093 -45.681,-14.538 -12.733,8.308 -27.634,12.783 -43.068,12.783 -27.109,0 -51.924,-13.816 -66.304,-36.085 -5.127,1.036 -10.354,1.559 -15.64,1.559 -16.729,0 -32.645,-5.163 -45.954,-14.738 -12.766,8.378 -27.722,12.889 -43.227,12.889 -43.525,0 -78.935,-35.41 -78.935,-78.935 0,-19.44 7.114,-37.874 19.641,-52.112 -12.337,-12.146 -19.507,-28.832 -19.507,-46.828 0,-36.299 29.532,-65.83 65.83,-65.83 0.91,0 1.818,0.018 2.722,0.055 -1.69,-6.986 -2.551,-14.214 -2.551,-21.59 0,-50.324 40.941,-91.265 91.264,-91.265 19.472,0 38.157,6.139 53.689,17.475 13.224,-7.138 27.956,-10.867 43.197,-10.867 30.668,0 59.151,15.579 75.915,40.636 8.796,-2.773 17.952,-4.174 27.356,-4.174 50.323,0 91.265,40.942 91.265,91.265 0,30.1 -14.75,57.773 -38.737,74.645 3.432,6.775 5.273,14.338 5.273,22.17 0,6.576 -1.284,12.962 -3.765,18.893 4.314,6.52 7.411,13.728 9.173,21.313 0.1,0 0.199,0 0.299,0"
             style="fill:#0096e6;fill-opacity:1;fill-rule:nonzero;stroke:none"
             id="path20" />
        </g>
        <g
           id="g22"
           transform="translate(421.0644,280.3694)">
          <path
             d="m 0,0 c 38.555,0 69.922,31.367 69.922,69.922 0,38.555 -31.367,69.922 -69.922,69.922 -26.24,0 -50.022,-14.586 -62.009,-37.586 -6.556,1.989 -13.344,2.994 -20.246,2.994 -16.851,0 -32.794,-5.922 -45.451,-16.782 -12.308,9.725 -27.487,15.026 -43.298,15.026 -26.166,0 -49.921,-14.533 -61.932,-37.448 -6.483,1.941 -13.192,2.922 -20.012,2.922 -16.979,0 -33.014,-6.005 -45.712,-17.014 -12.339,9.817 -27.577,15.166 -43.469,15.166 -38.555,0 -69.922,-31.367 -69.922,-69.922 0,-20.362 8.815,-39.481 23.948,-52.681 -14.876,-10.562 -23.813,-27.593 -23.813,-46.259 0,-31.328 25.488,-56.816 56.816,-56.816 5.491,0 10.852,0.767 15.979,2.264 -4.478,-10.245 -6.794,-21.332 -6.794,-32.813 0,-45.353 36.897,-82.251 82.25,-82.251 19.5,0 38.128,6.834 52.952,19.336 13.151,-8.342 28.244,-12.728 43.934,-12.728 30.003,0 57.687,16.545 72.058,42.605 9.897,-4.079 20.371,-6.143 31.213,-6.143 45.354,0 82.251,36.898 82.251,82.251 0,30.055 -16.313,57.422 -42.192,71.845 5.617,7.027 8.728,15.772 8.728,24.97 0,7.028 -1.796,13.787 -5.227,19.798 6.853,8.604 11.031,18.941 12.079,29.868 C -5.251,0.149 -2.621,0 0,0"
             style="fill:#ffffff;fill-opacity:1;fill-rule:nonzero;stroke:none"
             id="path24" />
        </g>
        <g
           id="g26"
           transform="translate(485.1592,350.2916)">
          <path
             d="m 0,0 c 0,35.399 -28.696,64.095 -64.095,64.095 -26.48,0 -49.206,-16.061 -58.978,-38.97 -7.218,2.816 -15.063,4.378 -23.277,4.378 -17.686,0 -33.698,-7.164 -45.295,-18.747 -11.423,10.543 -26.683,16.991 -43.453,16.991 -26.418,0 -49.096,-15.987 -58.906,-38.81 -7.152,2.757 -14.915,4.284 -23.039,4.284 -17.817,0 -33.931,-7.275 -45.548,-19.01 -11.443,10.643 -26.773,17.162 -43.633,17.162 -35.398,0 -64.094,-28.696 -64.094,-64.095 0,-22.205 11.295,-41.769 28.449,-53.271 -16.779,-8.347 -28.315,-25.656 -28.315,-45.669 0.001,-28.161 22.829,-50.989 50.989,-50.989 11.795,0 22.648,4.009 31.283,10.735 -10.182,-12.984 -16.271,-29.331 -16.271,-47.111 0,-42.208 34.216,-76.424 76.424,-76.424 20.315,0 38.764,7.942 52.452,20.871 12.523,-8.968 27.855,-14.264 44.433,-14.264 30.763,0 57.264,18.187 69.383,44.387 10.214,-5.064 21.715,-7.924 33.889,-7.924 42.207,0 76.423,34.216 76.423,76.424 0,31.462 -19.017,58.474 -46.179,70.193 7.754,6.277 12.716,15.868 12.716,26.622 0,7.598 -2.479,14.615 -6.667,20.295 8.541,9.116 13.779,21.364 13.779,34.842 0,0.45 -0.022,0.893 -0.034,1.34 4.345,-0.93 8.848,-1.43 13.469,-1.43 C -28.696,-64.095 0,-35.399 0,0"
             style="fill:#000000;fill-opacity:1;fill-rule:nonzero;stroke:none"
             id="path28" />
        </g>
        <g
           id="g30"
           transform="translate(453.633,280.1942)">
          <path
             d="m 0,0 3.85,44.01 -62.196,-13.221 -3.851,-44.009 -43.405,-9.226 -3.694,-42.218 43.406,9.227 -3.85,-44.01 62.196,13.22 3.85,44.01 43.405,9.226 3.694,42.217 z"
             style="fill:#000000;fill-opacity:1;fill-rule:nonzero;stroke:none"
             id="path32" />
        </g>
        <g
           id="g34"
           transform="translate(441.9409,266.5303)">
          <path
             d="m 0,0 3.85,44.01 -40.805,-8.674 -3.851,-44.01 -43.405,-9.226 -1.7,-19.436 43.405,9.226 -3.85,-44.009 40.805,8.673 3.851,44.01 43.405,9.226 1.7,19.436 z"
             style="fill:#feee04;fill-opacity:1;fill-rule:nonzero;stroke:none"
             id="path36" />
        </g>
      </g>
    </g>
    <g
       id="g38">
      <g
         id="g40">
        <g
           id="g46">
          <g
             id="g48">
            <path
               d="m 406.279,300.651 -3.85,-44.01 -43.406,-9.226 -1.434,-16.399 43.405,9.226 -3.851,-44.01 37.954,8.068 3.85,44.01 43.405,9.226 1.435,16.399 -43.405,-9.227 3.85,44.01 z"
               style="fill:url(#linearGradient56);stroke:none"
               id="path58" />
          </g>
        </g>
      </g>
    </g>
    <g
       id="g60">
      <g
         id="g62">
        <g
           id="g68">
          <g
             id="g70">
            <path
               d="m 359.023,247.415 -1.434,-16.399 35.704,7.589 c 1.027,2.983 1.596,6.179 1.625,9.507 v 0 c 0.02,2.33 -0.226,4.601 -0.709,6.782 v 0 z"
               style="fill:url(#radialGradient78);stroke:none"
               id="path80" />
          </g>
        </g>
      </g>
    </g>
    <g
       id="g82">
      <g
         id="g84"
         clip-path="url(#clipPath88)">
        <g
           id="g90"
           transform="translate(423.7023,222.1925)">
          <path
             d="m 0,0 c 2.934,3.896 3.526,6.463 4.141,9.293 0.217,1.024 0.751,1.515 1.317,1.635 l 1.051,0.224 0.338,3.863 -24.609,-5.23 -0.358,-4.093 15.412,3.276 C -4.14,-0.431 -9.021,-4.079 -17.648,-5.913 l -1.515,-0.322 -0.354,-4.041 4.563,0.97 c 5.905,1.255 8.831,2.712 12.591,6.63 0.838,-0.51 1.903,-1.67 2.409,-3.442 l 6.945,1.477 C 6.143,-3.371 2.317,-0.527 0,0"
             style="fill:#ff0000;fill-opacity:1;fill-rule:nonzero;stroke:none"
             id="path92" />
        </g>
        <g
           id="g94"
           transform="translate(431.2212,256.7847)">
          <path
             d="m 0,0 -23.548,-5.005 -0.34,-3.892 17.572,3.736 c -0.743,-6.613 -5.266,-8.503 -11.814,-9.894 l -6.416,-1.364 -0.324,-3.697 6.172,1.312 C -10.222,-17.002 0.808,-13.941 0,0 m -0.513,1.815 -21.782,-4.629 0.296,3.377 21.781,4.63 z"
             style="fill:#ff0000;fill-opacity:1;fill-rule:nonzero;stroke:none"
             id="path96" />
        </g>
        <g
           id="g98"
           transform="translate(436.0517,287.2589)">
          <path
             d="m 0,0 c -0.751,0.007 -1.354,0.62 -1.347,1.371 0.006,0.751 0.62,1.354 1.371,1.348 C 0.775,2.712 1.378,2.098 1.371,1.347 1.365,0.597 0.751,-0.007 0,0 m 0.044,5.004 c -2.013,0.018 -3.659,-1.6 -3.677,-3.613 -0.008,-0.955 0.36,-1.82 0.955,-2.475 l -23.022,-4.893 -0.351,-4.013 14.922,3.172 c -0.938,-8.355 -4.332,-12.349 -15.96,-15.03 l -0.324,-3.713 2.715,0.577 c 15.976,3.396 19.148,12.125 20.57,18.261 0.235,1.012 0.917,2.019 1.483,2.139 l 0.671,0.143 0.23,2.625 c 0.514,-0.285 1.095,-0.464 1.724,-0.469 2.013,-0.018 3.659,1.6 3.677,3.613 0.017,2.012 -1.6,3.658 -3.613,3.676"
             style="fill:#ff0000;fill-opacity:1;fill-rule:nonzero;stroke:none"
             id="path100" />
        </g>
        <g
           id="g102"
           transform="translate(358.1689,147.7735)">
          <path
             d="m 0,0 -10.683,-2.271 c 0.219,2.51 1.911,4.2 4.482,4.746 l 6.539,1.39 z m -0.914,-10.445 -10.683,-2.271 0.364,4.162 10.683,2.27 z m -0.894,-10.224 -10.683,-2.271 0.352,4.022 10.683,2.271 z m 54.414,0.783 -37.458,-7.962 0.294,3.364 29.521,6.275 0.667,7.623 -29.521,-6.275 0.352,4.023 19.045,4.048 0.543,6.201 -19.046,-4.048 0.364,4.162 18.399,3.911 0.549,6.283 -18.398,-3.911 c 0.236,2.697 1.866,4.19 4.888,4.833 l 24.682,5.246 0.673,7.699 -27.169,-5.775 c 4.327,4.098 5.678,9.04 5.992,12.628 L 10.831,25.006 C 9.479,18.679 5.813,11.722 -1.505,11.569 c 0,0 3.583,5.701 4.107,11.687 L -18.346,18.804 C -21.212,0.892 -26.339,2.155 -35.645,0.177 l -1.248,-14.266 9.25,1.966 -1.918,-21.927 27.086,5.757 -0.295,-3.364 -36.336,-7.723 -0.659,-7.528 26.732,5.682 c -2.213,-4.793 -6.897,-9.64 -14.2,-11.192 l -13.26,-2.819 -0.742,-8.477 20.564,4.371 c 8.809,1.872 12.905,4.975 16.392,10.429 l -0.62,-7.076 17.918,3.808 0.995,11.374 c 7.692,-1.698 12.677,-5.658 14.502,-8.08 l 21.589,4.589 c -5.756,6.826 -18.67,10.832 -24.217,11.346 l 26.059,5.539 z"
             style="fill:#ff5500;fill-opacity:1;fill-rule:nonzero;stroke:none"
             id="path104" />
        </g>
        <g
           id="g106"
           transform="translate(386.5202,191.3553)">
          <path
             d="M 0,0 C -0.906,1.052 -2.25,0.799 -2.977,0.645 -3.749,0.48 -4.415,0.275 -6.78,-0.536 -8.745,-1.212 -9.318,-1.382 -9.92,-1.559 l 0.329,-1.805 c 3.45,1.347 5.323,2.069 6.358,2.289 1.468,0.312 2.208,-0.032 2.197,-1.943 C -1.05,-5.64 -2.344,-7.937 -8.17,-9.111 l 0.315,-1.566 c 3.478,0.917 8.612,2.462 8.642,7.966 C 0.789,-2.338 0.782,-0.901 0,0 M -1.271,2.042 C -3.738,2.537 -7.801,2.013 -8.465,1.92 l 0.272,1.74 c 0.463,0.065 4.326,0.676 7.395,0.31 z"
             style="fill:#ff5500;fill-opacity:1;fill-rule:nonzero;stroke:none"
             id="path108" />
        </g>
        <g
           id="g110"
           transform="translate(364.5533,181.1204)">
          <path
             d="M 0,0 C 0.335,1.27 0.342,2.608 0.308,4.857 2.09,4.909 2.081,3.164 2.079,2.884 2.077,2.526 2.068,0.782 0,0 M 0.284,6.298 C 0.285,6.547 0.261,7.725 0.246,7.892 L -1.366,7.503 C -1.324,6.766 -1.31,6.426 -1.281,5.904 -1.846,5.674 -3.71,4.89 -5.489,2.691 c 0.038,1.236 0.154,2.351 0.348,3.621 L -6.784,6.04 C -6.868,5.011 -7.018,3.238 -7.031,0.808 c -0.013,-2.259 0.106,-3.4 0.211,-4.217 l 1.52,0.525 c -0.258,1.516 -0.27,2.307 -0.217,3.298 0.793,1.958 2.692,3.419 4.275,4.067 0.035,-2.234 -0.004,-3.532 -0.323,-4.657 -1.124,0.227 -1.336,1.379 -1.427,2.014 L -4.388,1.043 c 0.29,-1.463 0.847,-2.372 2.065,-2.672 -0.629,-0.725 -1.193,-1.016 -1.68,-1.26 l 0.964,-1.023 c 0.548,0.318 1.631,0.953 2.389,2.281 3.49,0.663 4.302,3.388 4.311,4.898 0.008,1.526 -0.749,3.341 -3.377,3.031"
             style="fill:#ff5500;fill-opacity:1;fill-rule:nonzero;stroke:none"
             id="path112" />
        </g>
        <g
           id="g114"
           transform="translate(347.55,181.2212)">
          <path
             d="m 0,0 c -0.598,-2.929 -1.458,-5.308 -5.013,-6.064 -2.061,-0.438 -2.639,0.243 -2.625,2.785 0.002,0.427 0.167,7.459 0.189,8.856 L -9.367,5.202 c -0.08,-3.196 -0.092,-5.378 -0.1,-6.837 -0.016,-2.904 -0.024,-4.316 0.631,-5.225 0.577,-0.811 1.69,-1.377 4.049,-0.876 5.222,1.11 6.127,5.661 6.515,7.595 z"
             style="fill:#ff5500;fill-opacity:1;fill-rule:nonzero;stroke:none"
             id="path116" />
        </g>
        <g
           id="g118"
           transform="translate(286.8188,102.305)">
          <path
             d="m 0,0 -9.797,-2.082 1.562,17.849 9.797,2.082 z m -1.659,-18.96 c -0.263,-3.004 -2.764,-5.925 -5.586,-6.525 l -4.686,-0.996 1.476,16.875 9.797,2.083 z m -19.622,14.437 -8.904,-1.893 1.561,17.849 8.905,1.893 z m -2.134,-24.399 -8.905,-1.893 1.477,16.876 8.904,1.892 z m -18.255,20.065 -9.796,-2.082 1.086,12.41 c 0.263,3.004 2.763,5.925 5.586,6.525 l 4.686,0.996 z m -2.134,-24.399 -9.797,-2.082 1.477,16.875 9.796,2.083 z m 36.478,59.408 1.403,16.044 -11.484,-2.441 -1.404,-16.044 -8.904,-1.893 1.404,16.045 -11.485,-2.442 -1.403,-16.044 -29.39,-6.247 -5.505,-62.92 90.652,19.269 5.505,62.92 z"
             style="fill:#ffaa00;fill-opacity:1;fill-rule:nonzero;stroke:none"
             id="path120" />
        </g>
        <g
           id="g122"
           transform="translate(281.8179,156.0311)">
          <path
             d="m 0,0 c -0.454,0.16 -1.157,0.411 -1.155,0.812 0.002,0.338 0.316,0.661 1.089,1.418 3.072,3.042 3.419,3.388 5.642,5.849 L 3.904,8.925 C 2.8,7.568 2.374,7.109 -0.81,3.755 -2.45,2.028 -3.238,1.059 -3.242,0.272 c -0.006,-1.027 1.12,-1.461 2.386,-1.945 2.362,-0.893 4.613,-1.969 6.722,-3.284 l 1.56,1.661 C 6.005,-2.347 2.3,-0.794 0,0"
             style="fill:#ffaa00;fill-opacity:1;fill-rule:nonzero;stroke:none"
             id="path124" />
        </g>
        <g
           id="g126"
           transform="translate(264.1621,148.75)">
          <path
             d="m 0,0 c -0.005,-0.84 -0.944,-1.119 -1.359,-1.208 -1.062,-0.225 -1.442,0.296 -1.44,0.788 0.004,0.65 0.637,1.228 1.714,1.457 0.492,0.105 0.815,0.109 1.091,0.089 z M 1.674,2.669 1.688,5.222 5.812,6.098 5.821,7.763 1.697,6.887 1.708,8.979 0.032,8.623 0.015,2.712 C -0.247,2.688 -0.523,2.66 -0.938,2.572 -2.908,2.153 -4.313,0.841 -4.322,-0.855 -4.331,-2.52 -2.968,-3.133 -1.26,-2.77 c 0.601,0.128 1.54,0.438 2.235,1.187 0.511,0.553 0.668,1.267 0.671,1.917 L 1.65,0.937 C 3.092,0.547 4.058,0.039 5.128,-0.873 L 6.291,0.925 C 4.698,1.949 3.133,2.44 1.674,2.669"
             style="fill:#ffaa00;fill-opacity:1;fill-rule:nonzero;stroke:none"
             id="path128" />
        </g>
        <g
           id="g130"
           transform="translate(241.7603,144.9098)">
          <path
             d="m 0,0 c 0.002,0.291 0.144,1.161 1.325,2.284 l -1.202,0.6 C -1.611,1.24 -1.618,-0.102 -1.62,-0.425 -1.621,-0.652 -1.602,-2.7 1.237,-2.629 c 1.068,0.017 3.146,0.427 4.307,0.673 1.498,0.319 2.308,0.555 2.859,0.721 L 8.412,0.479 C 7.846,0.294 6.99,-0.001 4.591,-0.511 2.33,-0.991 -0.008,-1.488 0,0 m 2.434,4.281 -5.286,-1.124 0.008,1.584 5.409,1.15 C 2.825,5.946 3.039,5.992 3.697,6.148 3.621,6.407 3.487,6.879 3.263,7.801 3.141,7.775 2.606,7.644 2.498,7.621 L -2.284,6.605 -2.275,8.19 2.477,9.2 C 2.523,9.21 2.904,9.308 2.996,9.343 2.879,10.19 2.851,10.652 2.823,11.132 l 1.758,0.519 c 0.012,-0.483 0.026,-0.867 0.142,-1.844 2.11,0.578 3.288,1.151 3.839,1.43 L 8.721,9.623 C 7.497,9.024 6.396,8.693 4.974,8.277 5.063,7.796 5.258,7.029 5.408,6.576 6.646,6.921 8.236,7.371 9.735,8.158 L 9.986,6.645 C 8.609,5.932 7.418,5.582 5.903,5.131 6.34,4.093 6.522,3.663 7.264,2.868 L 5.718,1.715 C 5.307,2.193 4.884,2.75 4.192,4.67 3.58,4.525 3.062,4.414 2.434,4.281"
             style="fill:#ffaa00;fill-opacity:1;fill-rule:nonzero;stroke:none"
             id="path132" />
        </g>
        <g
           id="g134"
           transform="translate(142.9971,98.7419)">
          <path
             d="m 0,0 -28.281,-6.011 1.231,14.074 17.643,3.75 c 14.416,3.065 17.35,20.704 17.35,20.704 l 24.018,5.105 C 31.617,33.692 29.939,29.736 29.939,29.736 34.394,29.331 58.19,20.99 62.295,13.241 L 38.651,8.216 C 35.508,12.086 28.019,16.324 23.734,17.704 17.781,8.572 8.412,1.788 0,0 m 31.648,-32.473 c -3.76,-0.793 -6.521,1.559 -6.202,5.202 l 0.35,4 26.106,5.549 0.74,8.456 -26.106,-5.549 0.35,4.007 c 0.241,2.756 2.723,5.463 5.532,6.054 l 21.358,4.54 0.74,8.456 -74.753,-15.89 -0.739,-8.455 21.358,4.54 c 2.809,0.591 4.901,-1.151 4.662,-3.888 l -0.351,-4.007 -26.106,-5.549 -0.74,-8.456 26.106,5.549 -0.35,-3.999 c -0.318,-3.644 -3.624,-7.297 -7.383,-8.09 l -27.463,-5.837 -0.74,-8.45 90.354,19.205 0.74,8.45 z"
             style="fill:#ff5500;fill-opacity:1;fill-rule:nonzero;stroke:none"
             id="path136" />
        </g>
        <g
           id="g138"
           transform="translate(179.279,155.934)">
          <path
             d="m 0,0 c -0.337,-1.038 -1.78,-5.431 -2.045,-6.338 l 0.024,-0.025 c 0.309,0.315 0.903,0.879 1.945,1.113 2.415,0.487 2.497,-1.831 2.49,-3.099 L 2.411,-9.028 C 2.408,-9.504 2.4,-10.93 3.703,-10.672 c 1.468,0.291 2.094,2.438 2.394,5.314 L 7.704,-5.532 C 7.283,-9.1 6.416,-11.886 3.551,-12.472 0.71,-13.061 0.701,-10.319 0.706,-9.435 l 0.003,0.543 c 0.005,1.019 0.034,2.059 -1.126,1.812 -1.515,-0.31 -2.447,-1.957 -3,-3.612 -0.145,-0.577 -0.75,-3.044 -0.894,-3.553 l -1.75,0.162 c 0.915,2.94 3.108,10.468 4.145,14.032 z"
             style="fill:#ff5500;fill-opacity:1;fill-rule:nonzero;stroke:none"
             id="path140" />
        </g>
        <g
           id="g142"
           transform="translate(150.7599,150.3125)">
          <path
             d="m 0,0 -1.722,-0.414 c 0.057,-0.77 0.086,-1.275 0.151,-3.369 l -4.844,-1.094 0.033,3.138 -1.63,-0.347 -0.032,-3.153 -2.414,-0.545 0.022,-1.656 2.368,0.535 -0.05,-3.507 c -0.003,-0.464 -0.011,-2.046 0.43,-2.863 0.942,-1.715 2.51,-1.398 4.878,-0.894 1.953,0.415 2.629,0.574 4.613,1.107 l -0.067,1.727 c -1.416,-0.429 -3.876,-1 -4.214,-1.072 -3.49,-0.742 -4.028,-0.712 -3.995,2.393 l 0.034,3.471 4.889,1.104 C -1.626,-8.266 -1.706,-8.81 -2.875,-9.058 -3.444,-9.179 -3.904,-9.165 -4.502,-9.132 l -0.026,-1.73 c 0.431,-0.004 1.152,-0.011 1.906,0.149 2.751,0.585 2.763,2.839 2.779,5.652 l 2.876,0.659 0.009,1.663 -2.891,-0.646 C 0.124,-2.624 0.043,-0.598 0,0 M 2.113,-1.244 C 2.07,-0.742 1.83,0.372 1.571,0.908 L 0.448,0.494 C 0.72,-0.31 0.855,-1.112 0.912,-1.739 Z m 0.584,0.141 c -0.03,0.168 -0.238,1.45 -0.541,2.2 L 3.341,1.524 C 3.537,0.991 3.627,0.611 3.882,-0.644 Z"
             style="fill:#ff5500;fill-opacity:1;fill-rule:nonzero;stroke:none"
             id="path144" />
        </g>
        <g
           id="g146"
           transform="translate(345.9956,216.5238)">
          <path
             d="m 0,0 1.278,14.612 c -10.899,8.697 -26.014,5.346 -26.014,5.346 l 0.883,10.094 c 0.145,1.662 1.654,3.309 3.377,3.675 l 1.329,0.283 0.593,6.781 -24.418,-5.191 -0.594,-6.781 2.363,0.503 c 1.154,0.245 2.001,-0.462 1.904,-1.565 l -2.736,-31.279 c -0.146,-1.663 -1.654,-3.309 -3.377,-3.675 l -1.329,-0.283 -0.594,-6.781 24.419,5.19 0.593,6.781 -2.362,-0.502 c -1.155,-0.245 -2.001,0.462 -1.905,1.565 l 1.12,12.801 c 0,0 11.23,3.11 25.47,-11.574"
             style="fill:#feee04;fill-opacity:1;fill-rule:nonzero;stroke:none"
             id="path148" />
        </g>
        <g
           id="g150"
           transform="translate(272.7474,209.9628)">
          <path
             d="m 0,0 c 6.391,8.409 7.676,13.939 9.009,20.038 0.473,2.207 1.636,3.268 2.869,3.53 l 2.293,0.487 0.728,8.323 -53.662,-11.406 -0.771,-8.817 33.606,7.144 C -9.03,-0.953 -19.666,-8.836 -38.479,-12.835 l -3.303,-0.702 -0.762,-8.706 9.949,2.116 c 12.877,2.736 19.255,5.891 27.448,14.351 1.828,-1.094 4.153,-3.587 5.261,-7.399 l 15.145,3.219 C 13.406,-7.225 5.054,-1.122 0,0"
             style="fill:#feee04;fill-opacity:1;fill-rule:nonzero;stroke:none"
             id="path152" />
        </g>
        <g
           id="g154"
           transform="translate(220.2034,193.776)">
          <path
             d="M 0,0 -2.925,-0.622 C -4.792,-1.019 -6.797,-1.445 -8.839,0.536 L -31.27,22.305 c -2.59,2.51 -6.179,4.42 -9.984,3.611 l -20.422,-4.341 -3.679,-27.671 c -0.48,-3.611 -1.861,-3.967 -4.715,-4.574 l -0.617,-7.128 19.434,4.148 4.092,30.779 27.155,-26.353 c 3.525,-3.421 3.525,-3.421 10.156,-2.011 l 9.054,1.924 z m -11.545,31.904 c 2.492,-0.022 4.513,-2.078 4.491,-4.57 -0.021,-2.492 -2.078,-4.513 -4.57,-4.491 -2.492,0.022 -4.513,2.078 -4.491,4.57 0.022,2.524 2.046,4.513 4.57,4.491 m -10.81,-2.297 c 2.492,-0.022 4.513,-2.078 4.491,-4.57 -0.022,-2.492 -2.078,-4.513 -4.57,-4.491 -2.492,0.021 -4.513,2.078 -4.492,4.57 0.022,2.492 2.046,4.513 4.571,4.491"
             style="fill:#feee04;fill-opacity:1;fill-rule:nonzero;stroke:none"
             id="path156" />
        </g>
        <g
           id="g158"
           transform="translate(138.8251,197.2338)">
          <path
             d="m 0,0 -7.729,-0.52 -3.444,6.267 -3.47,-7.737 -7.733,-2.766 5.585,-4.261 -1.335,-7.977 6.921,5.103 6.908,-2.164 -1.307,7.416 z"
             style="fill:#feee04;fill-opacity:1;fill-rule:nonzero;stroke:none"
             id="path160" />
        </g>
        <g
           id="g162"
           transform="translate(101.3878,205.4757)">
          <path
             d="m 0,0 c -2.271,-0.473 -3.703,-2.662 -3.263,-4.933 0.473,-2.271 2.662,-3.703 4.933,-3.263 2.271,0.44 3.736,2.662 3.263,4.933 C 4.46,-0.992 2.271,0.473 0,0 M 14.879,-1.262 C 14.405,1.009 12.217,2.474 9.945,2.001 7.674,1.528 6.242,-0.661 6.682,-2.932 c 0.473,-2.272 2.662,-3.704 4.933,-3.264 2.272,0.473 3.737,2.662 3.264,4.934 m -26.429,-11.85 8.838,1.879 -0.556,-6.358 -8.838,-1.879 -1.396,-15.953 c -0.703,-8.034 -5.523,-13.813 -12.413,-15.254 l -34.048,-7.238 0.706,8.071 24.348,5.175 c 4.678,1 7.158,4.798 7.633,10.222 l 1.048,11.975 -16.014,-3.403 -1.026,-11.734 -15.334,-3.259 0.523,5.987 1.584,0.336 c 1.703,0.362 2.411,1.564 2.557,3.237 l 0.263,3.003 -10.571,-2.247 0.556,6.358 10.571,2.247 0.26,2.97 c 0.099,1.126 -0.717,1.801 -2.558,1.409 l -1.169,-0.248 0.525,5.999 19.235,4.088 -0.525,-5.998 -1.579,-0.336 c -1.708,-0.363 -2.415,-1.568 -2.56,-3.225 l -0.195,-2.229 16.013,3.404 0.26,2.972 c 0.099,1.127 -0.722,1.798 -2.561,1.407 l -1.221,-0.26 0.525,5.999 21.891,4.653 -0.525,-5.999 -1.498,-0.318 c -1.726,-0.367 -2.405,-1.518 -2.553,-3.215 z"
             style="fill:#feee04;fill-opacity:1;fill-rule:nonzero;stroke:none"
             id="path164" />
        </g>
        <g
           id="g166"
           transform="translate(443.4747,379.1343)">
          <path
             d="m 0,0 -37.711,-8.016 c -2.027,-0.424 -3.355,-2.052 -3.553,-4.317 l -3.664,-41.879 37.711,8.015 c 1.874,0.388 3.341,1.892 3.553,4.318 z m 15.908,11.242 -5.382,-61.509 -71.353,-15.167 5.382,61.51 z m -26.216,-49.733 -4.166,-0.886 c -2.433,-0.517 -3.545,0.328 -3.411,1.86 l 0.851,9.732 7.808,1.659 0.453,5.18 -7.808,-1.66 0.694,7.927 c 0.22,2.516 1.448,3.871 3.447,4.296 l 4.678,0.994 0.422,4.825 -26.795,-5.695 -0.422,-4.826 4.218,0.897 c 2.948,0.627 3.45,-0.824 3.36,-1.86 l -0.782,-8.934 -7.807,-1.66 -0.453,-5.179 7.807,1.659 -0.763,-8.724 c -0.218,-2.482 -1.464,-3.885 -3.396,-4.295 l -4.73,-1.006 -0.42,-4.793 26.795,5.695 z m -3.484,8.215 4.282,0.91 -0.515,-5.885 -4.282,-0.91 z"
             style="fill:#ff5500;fill-opacity:1;fill-rule:nonzero;stroke:none"
             id="path168" />
        </g>
        <g
           id="g170"
           transform="translate(434.7352,393.5251)">
          <path
             d="m 0,0 c -0.366,0.133 -0.933,0.342 -0.933,0.672 0,0.277 0.253,0.542 0.871,1.161 C 2.4,4.32 2.677,4.604 4.458,6.617 L 3.109,7.319 C 2.224,6.208 1.884,5.833 -0.666,3.089 -1.979,1.676 -2.611,0.882 -2.612,0.236 c 0,-0.844 0.908,-1.205 1.93,-1.607 1.903,-0.743 3.718,-1.636 5.42,-2.725 l 1.25,1.361 C 4.842,-1.951 1.853,-0.661 0,0"
             style="fill:#ff5500;fill-opacity:1;fill-rule:nonzero;stroke:none"
             id="path172" />
        </g>
        <g
           id="g174"
           transform="translate(405.9136,391.6385)">
          <path
             d="M 0,0 0.922,-0.755 C 2.408,0.512 3.549,1.317 5.164,1.954 L 5.165,3.267 C 4.345,3.092 0.297,2.219 -0.613,2.026 -1.253,1.889 -2.841,1.552 -3.226,1.483 L -3.228,-0.03 c 0.82,0.228 1.923,0.489 4.562,1.09 C 0.5,0.455 0.41,0.382 0,0 m 2.057,-6.525 c -1.922,-0.409 -4.381,-0.904 -4.38,0.837 0,0.281 0.053,1.269 1.13,2.582 l -1.038,0.583 c -0.935,-1.296 -1.5,-2.26 -1.501,-3.492 -10e-4,-1.058 0.677,-1.931 1.561,-2.185 1.089,-0.317 2.178,-0.207 4.701,0.33 1.986,0.422 2.882,0.733 3.33,0.895 L 5.811,-5.486 C 4.568,-5.937 3.312,-6.258 2.057,-6.525 m 3.694,5.565 0.896,0.753 C 6.378,0.311 5.957,0.918 5.445,1.425 L 4.547,0.685 C 5.047,0.136 5.303,-0.212 5.751,-0.96 M 3.856,0.364 c 0.666,-0.702 1.1,-1.493 1.215,-1.709 L 4.174,-2.098 c -0.576,1.042 -0.985,1.49 -1.19,1.728 z"
             style="fill:#ff5500;fill-opacity:1;fill-rule:nonzero;stroke:none"
             id="path176" />
        </g>
        <g
           id="g178"
           transform="translate(344.6544,310.4923)">
          <path
             d="m 0,0 c 0.385,2.759 0.637,6.876 0.637,6.876 l 26.607,5.655 0.943,10.784 -26.607,-5.656 0.845,9.656 26.607,5.656 0.941,10.757 -71.866,-15.276 -0.941,-10.757 26.173,5.564 -0.845,-9.656 -26.173,-5.564 -0.943,-10.784 26.173,5.564 -0.349,-3.988 c -1.117,-12.77 -8.447,-17.334 -19.171,-19.621 l -8.388,-1.783 -0.946,-10.808 18.268,3.883 c 14.03,2.976 19.272,7.398 25.819,19.851 2.868,-1.441 10.475,-7.469 13.421,-11.51 l 18.893,4.016 C 24.124,-10.584 5.158,-1.487 0,0"
             style="fill:#ffaa00;fill-opacity:1;fill-rule:nonzero;stroke:none"
             id="path180" />
        </g>
        <g
           id="g182"
           transform="translate(355.9276,359.3818)">
          <path
             d="m 0,0 c -0.272,-2.98 -0.934,-4.237 -1.952,-4.453 -1.08,-0.23 -1.078,0.98 -1.077,1.365 l 10e-4,0.572 c 0.002,0.957 -0.046,3.005 -2.091,2.571 -0.864,-0.184 -1.361,-0.662 -1.641,-0.934 0.218,0.764 1.392,4.48 1.648,5.332 l -1.6,-0.035 c -0.563,-2.006 -2.353,-8.404 -3.35,-11.751 l 1.461,-0.127 c 0.089,0.377 0.729,3.051 0.755,3.122 0.269,0.801 0.996,2.576 2.432,2.882 0.953,0.202 0.952,-0.661 0.95,-1.512 l -10e-4,-0.451 c 0,-0.293 0.037,-1.082 0.213,-1.536 0.279,-0.724 1.091,-1.216 2.133,-0.995 2.338,0.497 3.104,2.613 3.453,5.822 z"
             style="fill:#ffaa00;fill-opacity:1;fill-rule:nonzero;stroke:none"
             id="path184" />
        </g>
        <g
           id="g186"
           transform="translate(323.2093,356.0028)">
          <path
             d="M 0,0 C 0.583,0.421 1.339,0.893 2.453,1.13 2.986,1.243 3.271,1.278 3.532,1.307 L 3.509,2.765 C 2.233,2.442 -3.454,1.001 -4.519,0.723 -5.374,0.502 -6.304,0.253 -7.158,0.071 l 0.047,-1.466 c 1.921,0.576 3.84,1.14 5.773,1.667 -2.766,-2.349 -3.425,-4.509 -3.427,-5.843 -0.002,-1.205 0.726,-2.28 1.839,-2.639 1.127,-0.369 2.452,-0.411 5.116,0.142 l 0.2,1.584 C -1.178,-7.359 -3.344,-7.121 -3.341,-5.151 -3.338,-3.403 -1.761,-1.294 0,0"
             style="fill:#ffaa00;fill-opacity:1;fill-rule:nonzero;stroke:none"
             id="path188" />
        </g>
        <g
           id="g190"
           transform="translate(286.7504,303.6117)">
          <path
             d="m 0,0 -2.841,-0.604 c -1.859,-0.4 -3.805,0.313 -5.003,2.465 l -5.496,9.879 -18.835,-4.003 7.228,-13.04 -23.231,-4.938 17.613,43.593 c 0.769,1.905 1.941,3.038 3.44,3.368 l 4.727,1.005 0.651,7.449 -23.2,-4.931 -20.912,-51.76 c -0.81,-2.005 -2.118,-2.932 -3.449,-3.215 l -2.876,-0.611 -0.943,-10.769 78.368,16.657 z"
             style="fill:#ff5500;fill-opacity:1;fill-rule:nonzero;stroke:none"
             id="path192" />
        </g>
        <g
           id="g194"
           transform="translate(202.7852,317.2375)">
          <path
             d="m 0,0 c -0.535,2.686 -3.184,4.383 -5.824,3.794 -2.69,-0.586 -4.333,-3.189 -3.794,-5.825 0.585,-2.69 3.189,-4.332 5.824,-3.793 C -1.103,-5.239 0.589,-2.64 0,0 m -23.972,-49.265 c 7.943,10.45 9.539,17.323 11.196,24.902 0.588,2.744 2.033,4.062 3.566,4.388 l 2.849,0.605 0.905,10.344 -66.69,-14.176 -0.959,-10.957 41.766,8.878 c -3.855,-25.168 -17.073,-34.965 -40.454,-39.935 l -4.105,-0.873 -0.947,-10.819 12.364,2.629 c 16.004,3.401 23.929,7.321 34.112,17.836 2.272,-1.361 5.161,-4.458 6.538,-9.196 l 18.822,4.001 c -2.303,3.394 -12.682,10.978 -18.963,12.373 m 2.563,44.728 c -0.539,2.636 1.108,5.29 3.794,5.824 2.635,0.539 5.235,-1.153 5.824,-3.793 0.539,-2.636 -1.103,-5.239 -3.794,-5.824 -2.635,-0.539 -5.234,1.153 -5.824,3.793"
             style="fill:#ffaa00;fill-opacity:1;fill-rule:nonzero;stroke:none"
             id="path196" />
        </g>
        <g
           id="g198"
           transform="translate(88.6861,311.3085)">
          <path
             d="m 0,0 -0.7,-7.999 1.641,0.349 c 2.472,0.525 3.575,-0.367 3.444,-1.87 L 1.899,-37.933 c -0.633,-7.232 -3.964,-12.301 -10.25,-13.646 l -32.721,-6.955 -0.942,-10.762 45.757,9.726 c 9.26,1.937 15.733,9.654 16.671,20.367 l 2.864,32.737 c 0.198,2.263 1.108,3.799 3.429,4.292 l 2.012,0.428 0.7,7.999 z m -19.611,-42.188 -25.849,-5.494 0.698,7.983 2.128,0.452 c 2.289,0.487 3.239,2.091 3.434,4.321 l 1.439,16.444 c 0.132,1.503 -0.965,2.4 -3.44,1.874 l -1.57,-0.333 0.7,7.998 25.85,5.495 -0.7,-7.999 -2.123,-0.451 c -2.295,-0.488 -3.245,-2.097 -3.438,-4.306 l -1.439,-16.444 c -0.132,-1.512 0.976,-2.414 3.444,-1.889 l 1.565,0.333 z"
             style="fill:#ff5500;fill-opacity:1;fill-rule:nonzero;stroke:none"
             id="path200" />
        </g>
        <g
           id="g202"
           transform="translate(481.3035,295.7441)">
          <path
             d="M 0,0 2.563,0.556 1.991,-5.404 3.736,-5.025 4.309,0.936 6.78,1.472 6.903,2.753 0.123,1.281 Z M 15.767,4.681 15.071,-2.564 13.496,-2.906 14.077,3.147 11.939,-3.244 10.253,-3.61 9.316,2.113 8.734,-3.94 7.141,-4.286 7.837,2.96 l 2.49,0.54 0.948,-5.42 0.019,0.003 2.016,6.065 z"
             style="fill:#000000;fill-opacity:1;fill-rule:nonzero;stroke:none"
             id="path204" />
        </g>
      </g>
    </g>
  </g>
</svg>
