<?xml version="1.0" encoding="UTF-8" standalone="no"?>
<!-- Generator: Adobe Illustrator 25.0.0, SVG Export Plug-In . SVG Version: 6.00 Build 0)  -->

<svg
   version="1.1"
   id="Layer_1"
   x="0px"
   y="0px"
   viewBox="0 0 666.66699 417.50268"
   xml:space="preserve"
   sodipodi:docname="Rhythm of Heaven (Ритм Небес) Logo.svg"
   width="666.66699"
   height="417.50269"
   inkscape:version="1.2.2 (b0a8486541, 2022-12-01)"
   xmlns:inkscape="http://www.inkscape.org/namespaces/inkscape"
   xmlns:sodipodi="http://sodipodi.sourceforge.net/DTD/sodipodi-0.dtd"
   xmlns:xlink="http://www.w3.org/1999/xlink"
   xmlns="http://www.w3.org/2000/svg"
   xmlns:svg="http://www.w3.org/2000/svg"><defs
   id="defs237" /><sodipodi:namedview
   id="namedview235"
   pagecolor="#505050"
   bordercolor="#eeeeee"
   borderopacity="1"
   inkscape:showpageshadow="0"
   inkscape:pageopacity="0"
   inkscape:pagecheckerboard="0"
   inkscape:deskcolor="#505050"
   showgrid="false"
   inkscape:zoom="2.844"
   inkscape:cx="250.17581"
   inkscape:cy="156.46976"
   inkscape:window-width="2560"
   inkscape:window-height="1404"
   inkscape:window-x="0"
   inkscape:window-y="0"
   inkscape:window-maximized="1"
   inkscape:current-layer="Layer_1" />
<style
   type="text/css"
   id="style2">
	.st0{clip-path:url(#SVGID_1_);fill:url(#SVGID_2_);}
	.st1{clip-path:url(#SVGID_1_);fill:url(#SVGID_3_);}
	.st2{clip-path:url(#SVGID_1_);fill:url(#SVGID_4_);}
	.st3{clip-path:url(#SVGID_1_);fill:url(#SVGID_5_);}
	.st4{clip-path:url(#SVGID_1_);fill:url(#SVGID_6_);}
	.st5{clip-path:url(#SVGID_1_);fill:url(#SVGID_7_);}
	.st6{clip-path:url(#SVGID_1_);fill:url(#SVGID_8_);}
	.st7{clip-path:url(#SVGID_1_);fill:url(#SVGID_9_);}
	.st8{clip-path:url(#SVGID_1_);fill:url(#SVGID_10_);}
	.st9{clip-path:url(#SVGID_1_);fill:url(#SVGID_11_);}
	.st10{clip-path:url(#SVGID_1_);fill:url(#SVGID_12_);}
	.st11{clip-path:url(#SVGID_1_);fill:url(#SVGID_13_);}
	.st12{clip-path:url(#SVGID_1_);fill:url(#SVGID_14_);}
	.st13{clip-path:url(#SVGID_1_);fill:url(#SVGID_15_);}
	.st14{clip-path:url(#SVGID_1_);fill:url(#SVGID_16_);}
	.st15{clip-path:url(#SVGID_1_);fill:url(#SVGID_17_);}
	.st16{clip-path:url(#SVGID_1_);fill:url(#SVGID_18_);}
	.st17{clip-path:url(#SVGID_1_);fill:url(#SVGID_19_);}
	.st18{clip-path:url(#SVGID_1_);fill:url(#SVGID_20_);}
	.st19{fill:#FFFFFF;}
	.st20{fill:#EB6100;}
	.st21{fill:#FDD000;}
</style>
<g
   id="Cloud_1_"
   transform="matrix(1.333334,0,0,1.333334,-4.000002e-5,2.666668e-5)">
	<g
   id="Spectrum_1_">
		<defs
   id="defs5">
			<path
   id="SVGID_22_"
   d="M 426.57648,53.24633 C 422.99774,40.30022 415.86084,28.5345 405.80493,19.25835 392.34305,6.83973 374.83109,-2e-5 356.49542,-2e-5 339.05765,-2e-5 322.64749,6.07412 309.67846,17.02984 296.31027,6.9505 279.91672,1.36529 262.91028,1.36529 c -28.77754,0 -54.8259,15.86314 -68.23605,40.53691 -2.81407,-0.31034 -5.64328,-0.46649 -8.4754,-0.46649 -19.19104,0 -37.3027,6.96468 -51.36526,19.45502 -11.65253,-6.64213 -24.92752,-10.20864 -38.47528,-10.20864 -42.82399,0 -77.66396,34.83997 -77.66396,77.66347 0,15.42982 4.6166,30.38487 13.0232,43.02063 C 12.00193,185.72593 3e-5,208.71671 3e-5,234.02046 c 0,42.79225 34.78141,77.60735 77.53367,77.60735 14.4866,0 28.60674,-4.07059 40.79456,-11.62518 12.5899,8.52661 27.44588,13.12421 42.88303,13.12421 33.32191,0 62.18532,-21.45081 72.54573,-51.90936 2.82822,0.31525 5.67792,0.47333 8.53835,0.47333 13.83614,0 27.3683,-3.74069 39.1555,-10.69611 13.40625,10.12714 29.92276,15.76895 46.86966,15.76895 34.25589,0 63.8605,-22.60432 73.93301,-53.98512 5.52078,1.18086 11.17432,1.77521 16.92542,1.77521 44.56454,0 80.82108,-36.25652 80.82108,-80.82156 -1e-5,-42.07108 -32.31379,-76.73733 -73.42356,-80.48585 z" />
		</defs>
		<clipPath
   id="SVGID_1_">
			<use
   xlink:href="#SVGID_22_"
   style="overflow:visible"
   id="use7" />
		</clipPath>
		<radialGradient
   id="SVGID_2_"
   cx="74.303833"
   cy="147.83209"
   r="223.15968"
   gradientUnits="userSpaceOnUse">
			<stop
   offset="0"
   style="stop-color:#B001FC"
   id="stop10" />
			<stop
   offset="0.45894"
   style="stop-color:#B001FC"
   id="stop12" />
			<stop
   offset="0.53448"
   style="stop-color:#B001FC"
   id="stop14" />
			<stop
   offset="0.85"
   style="stop-color:#B001FC;stop-opacity:0"
   id="stop16" />
		</radialGradient>
		<polygon
   class="st0"
   points="-155.01691,-290.65665 479.19125,-134.75725 301.93774,586.3208 -332.27045,430.42145 "
   clip-path="url(#SVGID_1_)"
   id="polygon19"
   style="fill:url(#SVGID_2_)" />
		
			<radialGradient
   id="SVGID_3_"
   cx="1246.5365"
   cy="-844.3396"
   r="192.91687"
   gradientTransform="matrix(0.04759,0.99016,-0.49508,0.0238,-352.87604,-1210.5606)"
   gradientUnits="userSpaceOnUse">
			<stop
   offset="0"
   style="stop-color:#011EFE"
   id="stop21" />
			<stop
   offset="0.45894"
   style="stop-color:#011EFE"
   id="stop23" />
			<stop
   offset="0.53448"
   style="stop-color:#011EFE"
   id="stop25" />
			<stop
   offset="0.85"
   style="stop-color:#011EFE;stop-opacity:0"
   id="stop27" />
		</radialGradient>
		<polygon
   class="st1"
   points="-276.37445,-326.98639 357.83371,-171.08701 180.5802,549.99109 -453.62799,394.09167 "
   clip-path="url(#SVGID_1_)"
   id="polygon30"
   style="fill:url(#SVGID_3_)" />
		
			<radialGradient
   id="SVGID_4_"
   cx="912.09045"
   cy="-772.23737"
   r="192.91687"
   gradientTransform="matrix(-0.36873,0.92017,-0.46008,-0.18437,182.6489,-969.29382)"
   gradientUnits="userSpaceOnUse">
			<stop
   offset="0"
   style="stop-color:#03B3F4"
   id="stop32" />
			<stop
   offset="0.45894"
   style="stop-color:#03B3F4"
   id="stop34" />
			<stop
   offset="0.53448"
   style="stop-color:#03B3F4"
   id="stop36" />
			<stop
   offset="0.85"
   style="stop-color:#03B3F4;stop-opacity:0"
   id="stop38" />
		</radialGradient>
		<polygon
   class="st2"
   points="-25.2997,-455.05286 486.52487,-49.39258 25.29976,532.53851 -486.52481,126.87827 "
   clip-path="url(#SVGID_1_)"
   id="polygon41"
   style="fill:url(#SVGID_4_)" />
		
			<radialGradient
   id="SVGID_5_"
   cx="726.32837"
   cy="-698.00031"
   r="192.91687"
   gradientTransform="matrix(-0.36873,0.92017,-0.46008,-0.18437,91.59995,-594.64935)"
   gradientUnits="userSpaceOnUse">
			<stop
   offset="0"
   style="stop-color:#03B3F4"
   id="stop43" />
			<stop
   offset="0.45894"
   style="stop-color:#03B3F4"
   id="stop45" />
			<stop
   offset="0.53448"
   style="stop-color:#03B3F4"
   id="stop47" />
			<stop
   offset="0.85"
   style="stop-color:#03B3F4;stop-opacity:0"
   id="stop49" />
		</radialGradient>
		<polygon
   class="st3"
   points="-82.007,-265.02753 429.81757,140.63274 -31.40753,722.56384 -543.23212,316.90359 "
   clip-path="url(#SVGID_1_)"
   id="polygon52"
   style="fill:url(#SVGID_5_)" />
		
			<radialGradient
   id="SVGID_6_"
   cx="797.04718"
   cy="-634.18335"
   r="192.91687"
   gradientTransform="matrix(-0.36873,0.92017,-0.46008,-0.18437,240.15979,-663.60229)"
   gradientUnits="userSpaceOnUse">
			<stop
   offset="0"
   style="stop-color:#2BE606"
   id="stop54" />
			<stop
   offset="0.45894"
   style="stop-color:#2BE606"
   id="stop56" />
			<stop
   offset="0.53448"
   style="stop-color:#2BE606"
   id="stop58" />
			<stop
   offset="0.85"
   style="stop-color:#2BE606;stop-opacity:0"
   id="stop60" />
		</radialGradient>
		<polygon
   class="st4"
   points="11.11525,-280.6731 522.93982,124.98717 61.71472,706.91827 -450.10983,301.25803 "
   clip-path="url(#SVGID_1_)"
   id="polygon63"
   style="fill:url(#SVGID_6_)" />
		
			<radialGradient
   id="SVGID_7_"
   cx="1840.2954"
   cy="-261.01035"
   r="192.91687"
   gradientTransform="matrix(0.5365,0.83357,-0.41678,0.26825,-821.32928,-1440.7947)"
   gradientUnits="userSpaceOnUse">
			<stop
   offset="0"
   style="stop-color:#2BE606"
   id="stop65" />
			<stop
   offset="0.45894"
   style="stop-color:#2BE606"
   id="stop67" />
			<stop
   offset="0.53448"
   style="stop-color:#2BE606"
   id="stop69" />
			<stop
   offset="0.85"
   style="stop-color:#2BE606;stop-opacity:0"
   id="stop71" />
		</radialGradient>
		<polygon
   class="st5"
   points="-237.67491,-62.55774 389.46921,-244.80721 596.68207,468.23926 -30.46205,650.48871 "
   clip-path="url(#SVGID_1_)"
   id="polygon74"
   style="fill:url(#SVGID_7_)" />
		
			<radialGradient
   id="SVGID_8_"
   cx="1580.0028"
   cy="-296.3284"
   r="192.91687"
   gradientTransform="matrix(0.56432,0.82549,-0.46355,0.28184,-749.43939,-930.23352)"
   gradientUnits="userSpaceOnUse">
			<stop
   offset="0"
   style="stop-color:#F8FD00"
   id="stop76" />
			<stop
   offset="0.45894"
   style="stop-color:#F8FD00"
   id="stop78" />
			<stop
   offset="0.53448"
   style="stop-color:#F8FD00"
   id="stop80" />
			<stop
   offset="0.85"
   style="stop-color:#F8FD00;stop-opacity:0"
   id="stop82" />
		</radialGradient>
		<polygon
   class="st6"
   points="-278.99136,218.15112 412.43628,17.22073 619.64917,730.26715 -71.7785,931.19757 "
   clip-path="url(#SVGID_1_)"
   id="polygon85"
   style="fill:url(#SVGID_8_)" />
		
			<radialGradient
   id="SVGID_9_"
   cx="832.42236"
   cy="-148.86046"
   r="126.35968"
   gradientTransform="matrix(-0.28273,0.95013,-0.47506,-0.14136,498.71332,-679.38611)"
   gradientUnits="userSpaceOnUse">
			<stop
   offset="0"
   style="stop-color:#A4F402"
   id="stop87" />
			<stop
   offset="0.45894"
   style="stop-color:#A4F402"
   id="stop89" />
			<stop
   offset="0.53448"
   style="stop-color:#A4F402"
   id="stop91" />
			<stop
   offset="0.85"
   style="stop-color:#A4F402;stop-opacity:0"
   id="stop93" />
		</radialGradient>
		<polygon
   class="st7"
   points="157.97835,-158.65518 516.19208,75.16129 250.34891,482.44092 -107.86485,248.62447 "
   clip-path="url(#SVGID_1_)"
   id="polygon96"
   style="fill:url(#SVGID_9_)" />
		
			<radialGradient
   id="SVGID_10_"
   cx="1011.8704"
   cy="-566.31641"
   r="192.91687"
   gradientTransform="matrix(-0.28273,0.95013,-0.47506,-0.14136,393.38333,-833.87927)"
   gradientUnits="userSpaceOnUse">
			<stop
   offset="0"
   style="stop-color:#F8FD00"
   id="stop98" />
			<stop
   offset="0.45894"
   style="stop-color:#F8FD00"
   id="stop100" />
			<stop
   offset="0.53448"
   style="stop-color:#F8FD00"
   id="stop102" />
			<stop
   offset="0.85"
   style="stop-color:#F8FD00;stop-opacity:0"
   id="stop104" />
		</radialGradient>
		<polygon
   class="st8"
   points="107.47225,-237.02995 654.36719,119.9442 248.49695,741.74945 -298.39801,384.7753 "
   clip-path="url(#SVGID_1_)"
   id="polygon107"
   style="fill:url(#SVGID_10_)" />
		
			<radialGradient
   id="SVGID_11_"
   cx="1147.4563"
   cy="-610.90063"
   r="192.91687"
   gradientTransform="matrix(-0.28273,0.95013,-0.47506,-0.14136,446.99261,-1105.7144)"
   gradientUnits="userSpaceOnUse">
			<stop
   offset="0"
   style="stop-color:#F8FD00"
   id="stop109" />
			<stop
   offset="0.45894"
   style="stop-color:#F8FD00"
   id="stop111" />
			<stop
   offset="0.53448"
   style="stop-color:#F8FD00"
   id="stop113" />
			<stop
   offset="0.85"
   style="stop-color:#F8FD00;stop-opacity:0"
   id="stop115" />
		</radialGradient>
		<polygon
   class="st9"
   points="143.92795,-373.7388 690.82288,-16.76466 284.95264,605.04059 -261.94229,248.06642 "
   clip-path="url(#SVGID_1_)"
   id="polygon118"
   style="fill:url(#SVGID_11_)" />
		
			<radialGradient
   id="SVGID_12_"
   cx="1929.6643"
   cy="1070.5004"
   r="118.7943"
   gradientTransform="matrix(0.87176,-0.47192,0.23596,0.43588,-1576.3789,454.91479)"
   gradientUnits="userSpaceOnUse">
			<stop
   offset="0"
   style="stop-color:#F8FD00"
   id="stop120" />
			<stop
   offset="0.45894"
   style="stop-color:#F8FD00"
   id="stop122" />
			<stop
   offset="0.53448"
   style="stop-color:#F8FD00"
   id="stop124" />
			<stop
   offset="0.85"
   style="stop-color:#F8FD00;stop-opacity:0"
   id="stop126" />
		</radialGradient>
		<polygon
   class="st10"
   points="281.89487,321.5361 199.19916,-72.0284 646.67169,-166.05125 729.36737,227.51326 "
   clip-path="url(#SVGID_1_)"
   id="polygon129"
   style="fill:url(#SVGID_12_)" />
		
			<radialGradient
   id="SVGID_13_"
   cx="1033.3864"
   cy="-233.24258"
   r="139.93042"
   gradientTransform="matrix(0.14319,0.9809,-0.49045,0.0716,-79.82245,-663.31921)"
   gradientUnits="userSpaceOnUse">
			<stop
   offset="0"
   style="stop-color:#A4F402"
   id="stop131" />
			<stop
   offset="0.45894"
   style="stop-color:#A4F402"
   id="stop133" />
			<stop
   offset="0.53448"
   style="stop-color:#A4F402"
   id="stop135" />
			<stop
   offset="0.85"
   style="stop-color:#A4F402;stop-opacity:0"
   id="stop137" />
		</radialGradient>
		<polygon
   class="st11"
   points="-130.04106,123.09839 338.76007,191.12903 261.41104,724.14362 -207.39011,656.11298 "
   clip-path="url(#SVGID_1_)"
   id="polygon140"
   style="fill:url(#SVGID_13_)" />
		
			<radialGradient
   id="SVGID_14_"
   cx="57.814651"
   cy="-455.31113"
   r="198.09557"
   gradientTransform="matrix(-0.87176,0.47192,-0.23596,-0.43588,-69.95688,67.31196)"
   gradientUnits="userSpaceOnUse">
			<stop
   offset="0"
   style="stop-color:#03B3F4"
   id="stop142" />
			<stop
   offset="0.45894"
   style="stop-color:#03B3F4"
   id="stop144" />
			<stop
   offset="0.53448"
   style="stop-color:#03B3F4"
   id="stop146" />
			<stop
   offset="0.85"
   style="stop-color:#03B3F4;stop-opacity:0"
   id="stop148" />
		</radialGradient>
		<polygon
   class="st12"
   points="114.68698,-224.98894 252.58629,431.30002 -493.59705,588.08789 -631.49634,-68.20103 "
   clip-path="url(#SVGID_1_)"
   id="polygon151"
   style="fill:url(#SVGID_14_)" />
		
			<radialGradient
   id="SVGID_15_"
   cx="78.727837"
   cy="-451.75629"
   r="128.22812"
   gradientTransform="matrix(-0.95462,0.26716,-0.13358,-0.47731,25.37765,-51.4262)"
   gradientUnits="userSpaceOnUse">
			<stop
   offset="0"
   style="stop-color:#011EFE"
   id="stop153" />
			<stop
   offset="0.45894"
   style="stop-color:#011EFE"
   id="stop155" />
			<stop
   offset="0.53448"
   style="stop-color:#011EFE"
   id="stop157" />
			<stop
   offset="0.85"
   style="stop-color:#011EFE;stop-opacity:0"
   id="stop159" />
		</radialGradient>
		<polygon
   class="st13"
   points="165.37668,-123.48128 158.34827,310.55719 -335.14209,302.56607 -328.11368,-131.4724 "
   clip-path="url(#SVGID_1_)"
   id="polygon162"
   style="fill:url(#SVGID_15_)" />
		
			<radialGradient
   id="SVGID_16_"
   cx="499.91602"
   cy="-633.70197"
   r="192.91687"
   gradientTransform="matrix(-0.42948,0.89343,-0.44672,-0.21474,8.74579,-218.38304)"
   gradientUnits="userSpaceOnUse">
			<stop
   offset="0"
   style="stop-color:#2BE606"
   id="stop164" />
			<stop
   offset="0.45894"
   style="stop-color:#2BE606"
   id="stop166" />
			<stop
   offset="0.53448"
   style="stop-color:#2BE606"
   id="stop168" />
			<stop
   offset="0.85"
   style="stop-color:#2BE606;stop-opacity:0"
   id="stop170" />
		</radialGradient>
		<polygon
   class="st14"
   points="-118.01218,-117.20862 365.51923,321.79251 -133.61356,871.55505 -617.14496,432.55392 "
   clip-path="url(#SVGID_1_)"
   id="polygon173"
   style="fill:url(#SVGID_16_)" />
		
			<radialGradient
   id="SVGID_17_"
   cx="825.18311"
   cy="-334.83081"
   r="126.35968"
   gradientTransform="matrix(-0.47206,0.87168,-0.43584,-0.23603,579.1167,-814.41919)"
   gradientUnits="userSpaceOnUse">
			<stop
   offset="0"
   style="stop-color:#A4F402"
   id="stop175" />
			<stop
   offset="0.45894"
   style="stop-color:#A4F402"
   id="stop177" />
			<stop
   offset="0.53448"
   style="stop-color:#A4F402"
   id="stop179" />
			<stop
   offset="0.85"
   style="stop-color:#A4F402;stop-opacity:0"
   id="stop181" />
		</radialGradient>
		<polygon
   class="st15"
   points="223.0567,-337.2973 525.53583,-34.81818 181.62498,309.09265 -120.85413,6.61354 "
   clip-path="url(#SVGID_1_)"
   id="polygon184"
   style="fill:url(#SVGID_17_)" />
		
			<radialGradient
   id="SVGID_18_"
   cx="985.74902"
   cy="-514.30945"
   r="192.91687"
   gradientTransform="matrix(-0.28273,0.95013,-0.47506,-0.14136,439.72269,-751.84583)"
   gradientUnits="userSpaceOnUse">
			<stop
   offset="0"
   style="stop-color:#FC6510"
   id="stop186" />
			<stop
   offset="0.45894"
   style="stop-color:#FC6510"
   id="stop188" />
			<stop
   offset="0.53448"
   style="stop-color:#FC6510"
   id="stop190" />
			<stop
   offset="0.85"
   style="stop-color:#FC6510;stop-opacity:0"
   id="stop192" />
		</radialGradient>
		<polygon
   class="st16"
   points="136.49028,-187.16698 683.38525,169.80717 277.51498,791.61243 -269.37997,434.63824 "
   clip-path="url(#SVGID_1_)"
   id="polygon195"
   style="fill:url(#SVGID_18_)" />
		
			<radialGradient
   id="SVGID_19_"
   cx="746.98511"
   cy="-324.36865"
   r="192.91687"
   gradientTransform="matrix(-0.77477,0.61838,-0.30919,-0.38739,978.75427,-529.56018)"
   gradientUnits="userSpaceOnUse">
			<stop
   offset="0"
   style="stop-color:#FC6510"
   id="stop197" />
			<stop
   offset="0.45894"
   style="stop-color:#FC6510"
   id="stop199" />
			<stop
   offset="0.53448"
   style="stop-color:#FC6510"
   id="stop201" />
			<stop
   offset="0.85"
   style="stop-color:#FC6510;stop-opacity:0"
   id="stop203" />
		</radialGradient>
		<polygon
   class="st17"
   points="533.57489,-460.49667 778.57257,144.89638 90.25655,423.45236 -154.74117,-181.94069 "
   clip-path="url(#SVGID_1_)"
   id="polygon206"
   style="fill:url(#SVGID_19_)" />
		
			<radialGradient
   id="SVGID_20_"
   cx="1129.8768"
   cy="-496.44131"
   r="108.07879"
   gradientTransform="matrix(-0.28273,0.95013,-0.47506,-0.14136,581.8866,-996.22009)"
   gradientUnits="userSpaceOnUse">
			<stop
   offset="0"
   style="stop-color:#FD1E18"
   id="stop208" />
			<stop
   offset="0.45894"
   style="stop-color:#FD1E18"
   id="stop210" />
			<stop
   offset="0.53448"
   style="stop-color:#FD1E18"
   id="stop212" />
			<stop
   offset="0.85"
   style="stop-color:#FD1E18;stop-opacity:0"
   id="stop214" />
		</radialGradient>
		<polygon
   class="st18"
   points="347.65338,-101.60305 654.04309,98.38637 426.66037,446.74344 120.27066,246.75401 "
   clip-path="url(#SVGID_1_)"
   id="polygon217"
   style="fill:url(#SVGID_20_)" />
	</g>
	<path
   id="White_1_"
   class="st19"
   d="M 419.7811,61.33625 C 417.33936,47.60404 410.47568,35.02683 400.09381,25.44961 388.19244,14.46999 372.70843,8.42317 356.49542,8.42317 c -17.80179,0 -34.38956,7.15693 -46.48517,19.85418 C 297.2608,16.45404 280.45053,9.78848 262.91028,9.78848 c -27.63718,0 -52.45148,16.41063 -63.3989,41.3684 -4.39018,-0.86272 -8.84772,-1.29798 -13.31256,-1.29798 -19.21446,0 -37.21585,7.83471 -50.25369,21.68599 -11.56176,-8.05722 -25.40669,-12.4396 -39.58685,-12.4396 -38.17957,0 -69.24076,31.06119 -69.24076,69.24028 0,16.66437 6.04047,32.70805 16.81271,45.20816 -21.82896,12.09169 -35.50701,34.96098 -35.50701,60.46674 0,38.14882 31.00264,69.18416 69.11047,69.18416 14.79792,0 29.16497,-4.76447 41.00487,-13.51166 12.08437,9.7153 27.0438,15.01068 42.67272,15.01068 32.08493,0 59.52448,-22.3389 66.495,-53.0024 4.78496,1.04132 9.66847,1.56636 14.58908,1.56636 14.27531,0 28.18611,-4.46973 39.73909,-12.68211 12.71725,11.48856 28.9527,17.75496 46.28607,17.75496 33.31314,0 61.69202,-23.9794 67.91547,-55.92917 7.36627,2.47104 15.05264,3.71924 22.94296,3.71924 39.92014,0 72.39789,-32.47774 72.39789,-72.39836 0,-39.72105 -32.14984,-72.07289 -71.79574,-72.39592 z" />
	<path
   id="Black_1_"
   d="m 419.17871,67.48298 c -1.60342,0 -3.18784,0.07716 -4.76273,0.18915 -2.52216,-29.74162 -27.48175,-53.09985 -57.92032,-53.09985 -18.83261,0 -35.56482,8.94744 -46.19104,22.80897 -11.5592,-13.13898 -28.50037,-21.44341 -47.39441,-21.44341 -27.63174,0 -51.09665,17.74539 -59.62451,42.43649 -5.43576,-1.53 -11.16212,-2.36625 -17.08713,-2.36625 -20.02582,0 -37.85417,9.36099 -49.38536,23.93335 -10.95303,-9.16416 -25.05701,-14.68697 -40.45512,-14.68697 -34.84436,0 -63.09129,28.24699 -63.09129,63.09135 0,18.71155 8.15286,35.51244 21.09159,47.06639 -23.2998,9.2437 -39.78606,31.99069 -39.78606,58.60777 0,34.81367 28.1888,63.03566 62.96143,63.03566 15.74548,0 30.129,-5.80011 41.1687,-15.36505 11.10764,10.44968 26.05483,16.86407 42.50871,16.86407 31.73201,0 57.88419,-23.81863 61.59727,-54.54916 6.13214,2.0101 12.67839,3.11295 19.48692,3.11295 15.33083,0 29.35826,-5.52452 40.20729,-14.66849 11.49442,12.14883 27.76379,19.74139 45.81812,19.74139 33.28021,0 60.51871,-25.76332 62.86871,-58.41209 8.50421,3.9709 17.98431,6.20174 27.98923,6.20174 36.58835,0 66.24908,-29.66074 66.24908,-66.24901 10e-6,-36.58833 -29.66073,-66.249 -66.24908,-66.249 z" />
</g>
<g
   id="Ритм_небес"
   transform="matrix(1.333334,0,0,1.333334,-4.000002e-5,2.666668e-5)">
	<path
   id="С"
   class="st20"
   d="m 417.42484,142.72972 c 0,-10.75618 9.31967,-17.24495 20.36411,-19.07542 2.5098,-0.41597 4.52661,-2.79379 4.52661,-5.30367 v -17.85147 c 0,-2.46046 -1.94183,-4.16396 -4.39948,-3.89207 -27.11432,2.9996 -46.8461,24.16711 -46.8461,45.86948 0,26.56238 14.52222,32.59854 46.92789,25.56487 2.42383,-0.52609 4.31769,-2.83943 4.31769,-5.26743 v -6.47397 c 0,-2.7388 -2.38565,-4.49106 -5.10681,-3.74989 -12.63032,3.44011 -19.78391,0.25652 -19.78391,-9.82043 z" />
	<path
   id="Е_00000140735341224273986290000007366422823695575484_"
   class="st21"
   d="m 333.48129,196.40649 c -1.76642,0.0218 -4.16336,-0.13637 -4.58649,-2.17126 -0.17361,-0.83482 0.58939,-1.81311 2.52487,-2.70895 1.68311,-0.71548 4.24988,-1.28873 7.7002,-1.98849 l 14.65018,-2.96643 c 2.45398,-0.49689 4.38779,-2.82416 4.38779,-5.28052 v -1.88292 c 0,-2.4722 -1.95575,-4.19002 -4.42639,-3.886 -6.58179,0.80988 -18.59888,2.22661 -22.56418,2.28336 -1.77728,0.0254 -2.85034,-0.29083 -2.96899,-1.09015 -0.17798,-1.19911 0.44437,-1.81552 2.37985,-2.71136 3.8396,-1.77827 19.04028,-4.35448 26.78259,-5.58839 2.53366,-0.40379 4.58411,-2.78236 4.58411,-5.31602 V 148.5944 c 0,-2.53499 -2.05502,-4.26453 -4.59003,-3.86302 l -40.37555,6.39485 c -2.535,0.4015 -4.59003,2.78201 -4.59003,5.31702 v 53.91896 c 0,2.535 2.05502,4.26454 4.59003,3.86304 l 40.00827,-6.33669 c 2.53503,-0.4015 4.59006,-2.78207 4.59003,-5.31709 l -9e-5,-4.54906 c -3e-5,-2.50439 -2.0101,-4.22964 -4.51419,-3.87376 -10.94935,1.55608 -19.40955,2.20627 -23.58198,2.25784 z" />
	<path
   id="Б"
   class="st20"
   d="m 277.005,185.18938 c 0,22.15224 -26.55504,35.16313 -51.2366,37.55597 -2.34502,0.22734 -4.26521,-1.55063 -4.26521,-3.90665 v -54.53697 c 0,-2.535 2.05502,-4.91551 4.59003,-5.31702 l 41.68526,-6.60229 c 2.535,-0.4015 4.59003,1.32803 4.59003,3.86304 v 5.67796 c 0,2.535 -2.05502,4.91551 -4.59003,5.31702 l -25.38525,4.02063 c -0.82651,0.13091 -1.49969,0.92267 -1.49596,1.75946 v 2e-5 c 0.005,1.13527 0.9254,1.92032 2.04695,1.74426 4.07866,-0.64029 10.72852,-1.68535 12.09769,-1.90221 7.60039,-1.20379 21.96309,-0.0261 21.96309,12.32678 z m -19.72494,7.68045 c -0.67532,-5.12492 -6.66986,-6.32765 -13.06602,-5.07816 -2.86786,0.64215 -3.3022,3.57848 -3.3022,5.85796 0,0.91542 0,7.66898 0,8.36615 0,3.13428 2.81134,3.54988 6.44078,2.92653 8.0532,-1.3725 10.71876,-6.11721 9.92744,-12.07248 z" />
	<path
   id="Е"
   class="st21"
   d="m 161.84348,241.81409 c -1.76642,0.0218 -4.16336,-0.13638 -4.5865,-2.17126 -0.1736,-0.83482 0.58939,-1.81311 2.52489,-2.70895 1.68311,-0.71548 4.24986,-1.28873 7.7002,-1.98849 l 14.65018,-2.96643 c 2.45396,-0.49689 4.3878,-2.82417 4.3878,-5.28052 v -1.88292 c 0,-2.4722 -1.95575,-4.19002 -4.42641,-3.88602 -6.58179,0.80989 -18.59886,2.22661 -22.56416,2.28336 -1.7773,0.0254 -2.85036,-0.29082 -2.96901,-1.09013 -0.17799,-1.19911 0.44437,-1.81552 2.37985,-2.71136 3.83961,-1.77829 19.04028,-4.35449 26.78259,-5.58839 2.53366,-0.40379 4.58411,-2.78238 4.58411,-5.31602 V 194.002 c 0,-2.53499 -2.05502,-4.26454 -4.59003,-3.86304 l -40.37555,6.39487 c -2.53499,0.4015 -4.59001,2.78201 -4.59001,5.317 v 53.91898 c 0,2.535 2.05502,4.26456 4.59001,3.86304 l 40.00827,-6.33669 c 2.53503,-0.4015 4.59007,-2.78207 4.59003,-5.31709 l -8e-5,-4.54906 c -5e-5,-2.50439 -2.01013,-4.22964 -4.51419,-3.87378 -10.94938,1.55609 -19.40956,2.20627 -23.58199,2.25786 z" />
	<path
   id="Н"
   class="st20"
   d="m 91.14986,199.18254 c -2.52206,0.39946 -4.57191,2.76111 -4.58988,5.28595 -0.05521,7.75739 -0.11697,14.38068 -0.6207,17.07645 -1.39146,7.67171 -20.32601,11.1012 -21.25365,4.03069 -0.3668,-2.79588 -0.6951,-8.739 -0.79061,-16.38635 -0.03134,-2.50948 -2.07483,-4.21091 -4.58947,-3.81264 l -6.15422,0.9747 c -2.53501,0.4015 -4.59004,2.78201 -4.59004,5.31702 v 58.85106 c 0,2.535 2.05502,4.26456 4.59002,3.86304 l 10.32855,-1.63586 c 2.53345,-0.40128 4.58805,-2.78189 4.59,-5.31564 0.0055,-7.10709 0.03907,-10.70844 0.24449,-13.64908 0.68208,-9.26053 20.76244,-11.32733 22.50858,-3.27266 0.63434,2.94084 0.8478,6.68898 0.90751,12.32603 0.02662,2.51312 2.07208,4.21976 4.58958,3.82101 l 6.39192,-1.01239 c 2.535,-0.40149 4.59003,-2.78201 4.59003,-5.31702 v -59.11252 c 0,-2.535 -2.05502,-4.26454 -4.59003,-3.86304 z" />
	<path
   id="М"
   class="st20"
   d="m 373.69397,36.7763 c -1.92099,0.30426 -3.63757,1.77494 -4.30557,3.68184 -4.6763,13.34904 -7.73361,20.04281 -10.16388,25.95829 -4.45773,10.83289 -8.83337,3.93298 -10.98843,0.74457 -2.33224,-3.47799 -4.93491,-7.75133 -10.05402,-18.94845 -0.72165,-1.57848 -2.38382,-2.41768 -4.224,-2.12638 l -6.55539,1.0377 c -2.53516,0.40131 -4.59042,2.78192 -4.59042,5.31707 v 52.67523 c 0,2.53548 2.05579,4.2651 4.59128,3.86284 l 3.62753,-0.57552 c 2.53629,-0.40239 4.58817,-2.78603 4.58871,-5.3224 0.002,-7.35471 0.21115,-12.38046 0.70395,-14.53127 0.53424,-2.31013 2.01239,-1.43992 3.59656,0.95806 1.16711,1.75819 1.73422,3.0561 4.76224,9.48904 0.73145,1.5539 2.38275,2.37388 4.20566,2.08515 l 3.59286,-0.56905 c 1.80255,-0.28549 3.43988,-1.60354 4.1832,-3.3634 3.50882,-8.30722 4.7009,-11.07044 6.13861,-13.46079 3.62045,-6.01949 4.01562,-3.49728 4.80774,0.55187 0.51221,2.58105 0.55353,8.82851 0.54282,16.75995 -0.003,2.53823 2.05228,4.27399 4.58997,3.87206 l 4.07422,-0.64529 c 2.53497,-0.4015 4.59,-2.78201 4.59,-5.31701 V 40.1446 c 0,-2.535 -2.05502,-4.26454 -4.59,-3.86303 z" />
	<path
   id="Т"
   class="st21"
   d="m 227.03185,65.74573 v 9.6489 c 0,2.5098 2.01585,4.23495 4.52541,3.87281 l 8.26909,-1.19328 c 7.41203,-1.17395 10.47519,-0.64182 10.47517,7.33968 l 2e-5,34.83031 c 0,2.50797 2.01302,4.23279 4.52069,3.87349 l 10.69063,-1.53175 c 2.56183,-0.36706 4.65936,-2.76535 4.65936,-5.32746 l 6e-5,-28.29784 c -6e-5,-13.41589 3.27692,-17.02967 12.60474,-18.50706 l 5.39511,-0.85449 c 2.535,-0.4015 4.59003,-2.78201 4.59003,-5.31702 v -8.94695 c 0,-2.535 -2.05502,-4.26454 -4.59003,-3.86304 l -56.55025,8.95668 c -2.53501,0.40151 -4.59003,2.78202 -4.59003,5.31702 z" />
	<path
   id="И"
   class="st20"
   d="m 168.64648,90.86642 c 2.51714,-0.39867 4.56459,1.30066 4.58974,3.81368 0.069,6.89311 0.23882,19.50514 0.57631,22.30647 0.47012,3.90226 1.62759,5.20415 3.43602,4.86142 0.86819,-0.19354 1.73471,-0.58071 2.4594,-1.08659 4.38855,-3.06348 15.58737,-18.70403 20.58792,-31.98538 0.70306,-1.86734 2.38397,-3.29996 4.27548,-3.59955 l 3.60484,-0.57095 c 2.53499,-0.4015 4.59001,1.32803 4.59001,3.86303 v 55.59155 c 0,2.535 -2.05502,4.9155 -4.59001,5.317 l -4.87019,0.77136 c -2.51251,0.39795 -4.55811,-1.29813 -4.58966,-3.80545 l -0.1283,-10.19766 c 0,-3.07603 -0.54254,-4.95721 -1.70001,-5.578 -0.39771,-0.21069 -1.0473,-0.24115 -1.6636,-0.11803 -3.88477,0.77608 -12.4342,10.69666 -21.71751,22.842 -0.87082,1.1393 -2.13449,1.91493 -3.46155,2.12512 l -10.58563,1.67661 c -2.535,0.4015 -4.59003,-1.32805 -4.59003,-3.86304 V 97.63847 c 0,-2.535 2.05502,-4.9155 4.59003,-5.31701 z" />
	<path
   id="Р"
   class="st21"
   d="m 70.51765,101.06208 v 61.14933 c 0,2.535 2.05503,4.26454 4.59003,3.86304 l 12.97944,-2.05574 c 2.535,-0.4015 4.59002,-2.78201 4.59002,-5.317 V 145.9686 c 0,-2.99936 0.9551,-4.46986 3.24744,-4.7346 20.6514,-2.38489 35.3617,-11.36435 35.3617,-27.99595 6e-5,-17.54401 -23.19138,-25.85816 -56.60966,-17.40723 -2.35672,0.59597 -4.15897,2.86403 -4.15897,5.23126 z m 29.51432,30.9231 c -4.30985,0.72421 -6.79478,-0.20911 -6.79478,-3.02824 v -10.20032 c 0,-2.88087 2.03845,-4.65395 6.09587,-4.97449 8.13443,-0.64064 11.8036,3.15291 11.8036,7.98779 10e-6,4.03162 -3.0479,8.84541 -11.10469,10.21526 z" />
</g>
<path
   id="_x2122__00000009568546657628522450000017382203832955165074_"
   d="m 628.82798,305.17351 v -13.49586 l -5.67684,1.7356 v -2.90011 l 15.01551,-4.59068 v 2.90008 l -5.47225,1.67304 v 13.49583 z m 25.47925,-7.78978 v -13.70437 l -3.44702,14.75822 -3.73345,1.14142 -3.36514,-12.67553 v 13.70435 l -3.52886,1.07888 v -16.40542 l 5.51319,-1.68554 3.32425,11.99618 0.0409,-0.0125 3.24243,-14.00383 5.44161,-1.66366 v 16.40543 z"
   style="stroke-width:1.33333" />
</svg>
