<?xml version="1.0" encoding="UTF-8" standalone="no"?>
<!-- Created with Inkscape (http://www.inkscape.org/) -->

<svg
   width="666.66669"
   height="522.09998"
   viewBox="0 0 176.38889 138.13895"
   version="1.1"
   id="svg26216"
   xml:space="preserve"
   inkscape:version="1.2.2 (b0a8486541, 2022-12-01)"
   sodipodi:docname="Rhythm Tengoku The Best+ Complete Music Collection (リズム天国 ザ・ベスト＋全曲集) Logo.svg"
   xmlns:inkscape="http://www.inkscape.org/namespaces/inkscape"
   xmlns:sodipodi="http://sodipodi.sourceforge.net/DTD/sodipodi-0.dtd"
   xmlns="http://www.w3.org/2000/svg"
   xmlns:svg="http://www.w3.org/2000/svg"><sodipodi:namedview
     id="namedview26218"
     pagecolor="#505050"
     bordercolor="#eeeeee"
     borderopacity="1"
     inkscape:showpageshadow="0"
     inkscape:pageopacity="0"
     inkscape:pagecheckerboard="0"
     inkscape:deskcolor="#505050"
     inkscape:document-units="px"
     showgrid="false"
     inkscape:zoom="0.7622131"
     inkscape:cx="-534.62739"
     inkscape:cy="655.98453"
     inkscape:window-width="2560"
     inkscape:window-height="1412"
     inkscape:window-x="0"
     inkscape:window-y="0"
     inkscape:window-maximized="1"
     inkscape:current-layer="layer1"><inkscape:page
       x="0"
       y="0"
       width="176.38889"
       height="138.13895"
       id="page26438" /><inkscape:page
       x="2.2015872e-06"
       y="-0.00024887893"
       width="176.38889"
       height="138.13931"
       id="page26440" /></sodipodi:namedview><defs
     id="defs26213"><clipPath
       clipPathUnits="userSpaceOnUse"
       id="clipPath26236"><path
         d="M 0,391.576 H 500 V 0 H 0 Z"
         id="path26234" /></clipPath><linearGradient
       x1="0"
       y1="0"
       x2="1"
       y2="0"
       gradientUnits="userSpaceOnUse"
       gradientTransform="matrix(134.76274,49.049629,49.049629,-134.76274,350.45639,189.07246)"
       spreadMethod="pad"
       id="linearGradient26276"><stop
         style="stop-opacity:1;stop-color:#feee04"
         offset="0"
         id="stop26270" /><stop
         style="stop-opacity:1;stop-color:#feee04"
         offset="0.5"
         id="stop26272" /><stop
         style="stop-opacity:1;stop-color:#ffc602"
         offset="1"
         id="stop26274" /></linearGradient><radialGradient
       fx="0"
       fy="0"
       cx="0"
       cy="0"
       r="1"
       gradientUnits="userSpaceOnUse"
       gradientTransform="matrix(32.283867,0,0,-32.283867,356.18878,211.26772)"
       spreadMethod="pad"
       id="radialGradient26298"><stop
         style="stop-opacity:1;stop-color:#ffffff"
         offset="0"
         id="stop26292" /><stop
         style="stop-opacity:1;stop-color:#ffffff"
         offset="0.1"
         id="stop26294" /><stop
         style="stop-opacity:1;stop-color:#feee04"
         offset="1"
         id="stop26296" /></radialGradient><clipPath
       clipPathUnits="userSpaceOnUse"
       id="clipPath26308"><path
         d="M 0,391.576 H 500 V 0 H 0 Z"
         id="path26306" /></clipPath></defs><g
     inkscape:label="Rhythm Tengoku The Best+ Complete Music Collection (リズム天国 ザ・ベスト＋全曲集) Logo"
     inkscape:groupmode="layer"
     id="layer1"
     transform="translate(-220,-2.4887892e-4)"><g
       id="g26230"
       transform="matrix(0.35277777,0,0,-0.35277777,220,138.13931)"><g
         id="g26232"
         clip-path="url(#clipPath26236)"><g
           id="g26238"
           transform="translate(413.3647,236.5903)"><path
             d="m 0,0 c 42.729,0 77.493,34.763 77.493,77.493 0,42.729 -34.764,77.492 -77.493,77.492 -26.681,0 -51.068,-13.606 -65.171,-35.536 -5.105,1.049 -10.313,1.577 -15.581,1.577 -16.298,0 -31.831,-4.999 -44.845,-14.272 -12.5,8.156 -27.129,12.548 -42.279,12.548 -26.615,0 -50.976,-13.563 -65.093,-35.425 -5.033,1.018 -10.164,1.53 -15.353,1.53 -16.423,0 -32.049,-5.067 -45.114,-14.467 -12.533,8.225 -27.215,12.653 -42.437,12.653 -42.729,0 -77.492,-34.762 -77.492,-77.492 0,-18.934 6.957,-37.021 19.171,-51.002 -12.223,-12.953 -19.171,-30.125 -19.171,-48.523 0,-18.93 7.371,-36.727 20.757,-50.114 13.386,-13.385 31.183,-20.756 50.113,-20.756 7.32,0 14.489,1.12 21.297,3.262 1.031,-41.841 35.387,-75.558 77.471,-75.558 15.507,0 30.477,4.604 43.171,13.135 11.657,-6.659 24.969,-10.244 38.472,-10.244 15.956,0 31.283,4.816 44.323,13.929 8.635,6.033 15.863,13.649 21.36,22.434 7.165,-2.133 14.639,-3.235 22.132,-3.235 42.731,0 77.495,34.764 77.495,77.495 0,17.016 -5.615,33.429 -15.742,46.794 6.065,8.345 9.455,18.493 9.455,29.071 0,8.94 -2.454,17.673 -6.953,25.255 4.561,6.65 7.854,14.113 9.694,21.956 0.106,0 0.213,0 0.32,0"
             style="fill:#0096e6;fill-opacity:1;fill-rule:nonzero;stroke:none"
             id="path26240" /></g><g
           id="g26242"
           transform="translate(413.3647,382.7271)"><path
             d="m 0,0 c -25.761,0 -49.108,-14.319 -60.876,-36.898 -6.437,1.952 -13.1,2.939 -19.876,2.939 -16.542,0 -32.193,-5.813 -44.619,-16.475 -12.083,9.547 -26.985,14.751 -42.505,14.751 -25.688,-10e-4 -49.009,-14.267 -60.8,-36.764 -6.366,1.906 -12.951,2.869 -19.646,2.869 -16.669,0 -32.411,-5.894 -44.877,-16.703 -12.113,9.636 -27.074,14.889 -42.674,14.889 -37.85,0 -68.643,-30.793 -68.643,-68.644 0,-19.681 8.488,-38.33 23.031,-51.283 -14.548,-11.709 -23.031,-29.23 -23.031,-48.243 0,-16.566 6.451,-32.141 18.165,-43.855 11.714,-11.714 27.289,-18.166 43.856,-18.166 11.115,0 21.836,2.954 31.192,8.405 -0.708,-3.97 -1.07,-8.008 -1.07,-12.054 0,-37.852 30.795,-68.646 68.646,-68.646 15.632,0 30.647,5.281 42.777,14.961 11.455,-7.912 24.796,-12.07 38.866,-12.07 26.111,0 50.14,15.18 61.587,38.34 8.284,-3.422 17.241,-5.212 26.228,-5.212 37.852,0 68.646,30.795 68.646,68.646 0,17.454 -6.669,34.19 -18.492,46.849 7.737,7.58 12.206,18.016 12.206,29.016 0,9.304 -3.238,18.334 -9.028,25.516 7.56,8.751 12.131,19.465 13.217,30.981 2.568,-0.291 5.148,-0.437 7.72,-0.437 37.851,0 68.645,30.794 68.645,68.644 C 68.645,-30.794 37.851,0 0,0"
             style="fill:#ffffff;fill-opacity:1;fill-rule:nonzero;stroke:none"
             id="path26244" /></g><g
           id="g26246"
           transform="translate(413.3647,377.0059)"><path
             d="m 0,0 c -25.996,0 -48.307,-15.767 -57.9,-38.257 -7.086,2.764 -14.788,4.298 -22.851,4.298 -17.363,0 -33.082,-7.033 -44.467,-18.405 -11.214,10.35 -26.195,16.681 -42.658,16.681 -25.935,-10e-4 -48.198,-15.694 -57.829,-38.1 -7.021,2.706 -14.642,4.205 -22.617,4.205 -17.492,0 -33.311,-7.142 -44.716,-18.663 -11.233,10.449 -26.283,16.849 -42.835,16.849 -34.751,0 -62.922,-28.171 -62.922,-62.922 0,-21.326 10.615,-40.166 26.844,-51.545 -16.103,-9.908 -26.844,-27.688 -26.844,-47.981 0,-31.094 25.206,-56.3 56.3,-56.3 17.391,0 32.935,7.889 43.263,20.28 -4.73,-8.836 -7.419,-18.929 -7.419,-29.652 0,-34.752 28.172,-62.924 62.924,-62.924 16.396,0 31.322,6.275 42.521,16.549 10.743,-8.542 24.331,-13.658 39.122,-13.658 26.763,0 49.608,16.716 58.705,40.271 8.707,-4.554 18.604,-7.143 29.11,-7.143 34.752,0 62.925,28.173 62.925,62.925 0,18.794 -8.249,35.654 -21.313,47.184 9.078,6.301 15.027,16.794 15.027,28.681 0,10.102 -4.297,19.196 -11.158,25.568 9.607,9.12 15.599,22.01 15.599,36.302 0,0.441 -0.022,0.877 -0.034,1.315 4.265,-0.913 8.686,-1.403 13.223,-1.403 34.751,0 62.923,28.171 62.922,62.922 C 62.922,-28.171 34.751,0 0,0"
             style="fill:#000000;fill-opacity:1;fill-rule:nonzero;stroke:none"
             id="path26248" /></g><g
           id="g26250"
           transform="translate(453.2914,243.4263)"><path
             d="m 0,0 4.143,47.36 -66.932,-14.227 -4.143,-47.36 -46.71,-9.928 -3.974,-45.431 46.709,9.928 -4.143,-47.36 66.931,14.227 4.143,47.36 46.709,9.928 3.976,45.431 z"
             style="fill:#000000;fill-opacity:1;fill-rule:nonzero;stroke:none"
             id="path26252" /></g><g
           id="g26254"
           transform="translate(440.7084,228.7222)"><path
             d="m 0,0 4.144,47.36 -43.912,-9.334 -4.144,-47.36 -46.709,-9.928 -1.83,-20.916 46.709,9.928 -4.143,-47.36 43.912,9.334 4.144,47.36 46.709,9.929 1.83,20.915 z"
             style="fill:#feee04;fill-opacity:1;fill-rule:nonzero;stroke:none"
             id="path26256" /></g></g></g><g
       id="g26258"
       transform="matrix(0.35277777,0,0,-0.35277777,220,138.13931)"><g
         id="g26260"><g
           id="g26266"><g
             id="g26268"><path
               d="m 402.332,265.441 -4.143,-47.361 -46.71,-9.928 -1.544,-17.647 46.709,9.928 -4.143,-47.36 40.844,8.681 4.141,47.36 46.71,9.929 1.545,17.647 -46.71,-9.929 4.143,47.361 z"
               style="fill:url(#linearGradient26276);stroke:none"
               id="path26278" /></g></g></g></g><g
       id="g26280"
       transform="matrix(0.35277777,0,0,-0.35277777,220,138.13931)"><g
         id="g26282"><g
           id="g26288"><g
             id="g26290"><path
               d="m 351.479,208.152 -1.544,-17.647 38.422,8.166 c 1.105,3.21 1.718,6.649 1.749,10.231 v 0 c 0.022,2.507 -0.243,4.95 -0.763,7.298 v 0 z"
               style="fill:url(#radialGradient26298);stroke:none"
               id="path26300" /></g></g></g></g><g
       id="g26302"
       transform="matrix(0.35277777,0,0,-0.35277777,220,138.13931)"><g
         id="g26304"
         clip-path="url(#clipPath26308)"><g
           id="g26310"
           transform="translate(401.5825,187.1343)"><path
             d="M 0,0 16.585,3.525 C 15.705,-2.251 12.965,-9.84 3.681,-11.813 l -4.804,-1.021 -0.38,-4.35 4.91,1.044 c 6.355,1.351 9.502,2.919 13.55,7.135 0.901,-0.549 2.047,-1.797 2.591,-3.703 l 7.474,1.588 c -0.913,1.367 -5.03,4.427 -7.523,4.995 3.158,4.193 3.795,6.954 4.456,10 0.234,1.102 0.809,1.63 1.417,1.76 l 1.132,0.24 0.363,4.158 L 0.386,4.404 Z"
             style="fill:#ff0000;fill-opacity:1;fill-rule:nonzero;stroke:none"
             id="path26312" /></g><g
           id="g26314"
           transform="translate(429.4467,218.2925)"><path
             d="m 0,0 -25.614,-5.444 -0.367,-4.188 18.91,4.02 c -0.616,-7.041 -5.666,-9.15 -12.713,-10.647 l -6.905,-1.468 -0.348,-3.978 6.642,1.412 c 8.992,1.911 19.073,5.183 20.028,16.106 z m -0.826,1.896 -23.44,-4.982 0.318,3.634 23.44,4.982 z"
             style="fill:#ff0000;fill-opacity:1;fill-rule:nonzero;stroke:none"
             id="path26316" /></g><g
           id="g26318"
           transform="translate(434.3715,251.0288)"><path
             d="m 0,0 c -0.809,0.007 -1.457,0.667 -1.45,1.476 0.007,0.807 0.667,1.457 1.475,1.45 C 0.833,2.918 1.482,2.258 1.476,1.45 1.468,0.642 0.808,-0.007 0,0 M 0.047,5.385 C -2.119,5.404 -3.891,3.663 -3.91,1.497 -3.919,0.47 -3.522,-0.461 -2.883,-1.166 l -24.774,-5.266 -0.377,-4.318 16.057,3.413 c -1.009,-8.992 -4.661,-13.288 -17.174,-16.175 l -0.349,-3.995 2.922,0.621 c 17.191,3.654 20.605,13.048 22.136,19.651 0.253,1.089 0.987,2.173 1.595,2.302 l 0.723,0.154 0.247,2.824 c 0.553,-0.306 1.179,-0.499 1.856,-0.504 2.166,-0.02 3.937,1.721 3.956,3.888 0.018,2.166 -1.722,3.937 -3.888,3.956"
             style="fill:#ff0000;fill-opacity:1;fill-rule:nonzero;stroke:none"
             id="path26320" /></g><g
           id="g26322"
           transform="translate(341.7167,126.3652)"><path
             d="m 0,0 -8.612,-1.831 c 0.177,2.023 1.541,3.386 3.613,3.827 l 5.271,1.12 z m -0.737,-8.421 -8.612,-1.83 0.294,3.355 8.612,1.831 z m -0.721,-8.242 -8.612,-1.83 0.284,3.243 8.612,1.83 z m 43.866,0.632 -30.197,-6.419 0.238,2.712 23.798,5.058 0.538,6.146 -23.799,-5.058 0.284,3.242 15.353,3.264 0.438,4.999 -15.354,-3.264 0.294,3.355 14.832,3.153 0.443,5.066 L 14.444,3.07 c 0.19,2.174 1.504,3.378 3.941,3.895 l 19.896,4.23 0.543,6.206 -22.126,-4.703 c 4.001,3.93 4.96,6.918 5.253,10.27 L 8.732,20.158 C 8.149,16.52 5.293,11.397 1.647,9.499 L -1.667,8.794 c 1.939,2.665 3.537,6.269 3.861,9.975 L -14.79,15.158 C -17.1,0.719 -21.233,1.737 -28.735,0.142 l -1.006,-11.5 7.457,1.585 -1.547,-17.676 21.835,4.641 -0.236,-2.712 -29.293,-6.226 -0.531,-6.069 21.55,4.581 c -1.785,-3.865 -5.56,-7.771 -11.448,-9.023 l -10.689,-2.272 -0.598,-6.834 16.577,3.524 c 7.101,1.509 10.404,4.01 13.214,8.407 l -0.499,-5.705 14.444,3.071 0.802,9.169 c 6.201,-1.369 10.22,-4.561 11.691,-6.514 l 17.404,3.7 c -4.641,5.502 -15.051,8.732 -19.522,9.146 l 21.007,4.465 z"
             style="fill:#ff5500;fill-opacity:1;fill-rule:nonzero;stroke:none"
             id="path26324" /></g><g
           id="g26326"
           transform="translate(363.5478,163.1445)"><path
             d="M 0,0 0.381,1.554 C -2.093,1.849 -5.208,1.357 -5.581,1.304 L -5.8,-0.099 C -5.264,-0.024 -1.989,0.399 0,0 m 1.659,-3.832 c -0.024,-4.437 -4.163,-5.682 -6.967,-6.421 l -0.254,1.262 c 4.696,0.947 5.74,2.798 5.751,4.912 0.009,1.54 -0.587,1.818 -1.771,1.566 -0.835,-0.177 -2.344,-0.759 -5.126,-1.845 l -0.265,1.455 c 0.486,0.143 0.948,0.28 2.531,0.825 1.907,0.653 2.444,0.819 3.067,0.952 0.585,0.124 1.669,0.328 2.399,-0.52 0.63,-0.727 0.636,-1.885 0.635,-2.186"
             style="fill:#ff5500;fill-opacity:1;fill-rule:nonzero;stroke:none"
             id="path26328" /></g><g
           id="g26330"
           transform="translate(346.8637,153.2475)"><path
             d="M 0,0 C 0.27,1.023 0.276,2.103 0.248,3.915 1.685,3.958 1.677,2.551 1.676,2.325 1.674,2.036 1.667,0.63 0,0 m 0.229,5.077 c 0,0.201 -0.019,1.151 -0.031,1.285 l -1.3,-0.314 C -1.067,5.454 -1.056,5.18 -1.033,4.759 -1.488,4.574 -2.991,3.942 -4.425,2.169 c 0.03,0.997 0.124,1.895 0.28,2.919 L -5.469,4.869 C -5.537,4.04 -5.658,2.61 -5.668,0.651 c -0.01,-1.82 0.085,-2.741 0.17,-3.4 l 1.226,0.424 c -0.208,1.222 -0.218,1.86 -0.176,2.658 0.639,1.579 2.171,2.757 3.447,3.279 0.027,-1.8 -0.004,-2.847 -0.261,-3.754 -0.905,0.183 -1.077,1.112 -1.15,1.623 l -1.126,-0.64 c 0.234,-1.18 0.684,-1.912 1.665,-2.154 -0.507,-0.584 -0.962,-0.819 -1.354,-1.016 l 0.777,-0.825 c 0.442,0.257 1.315,0.768 1.926,1.839 2.813,0.535 3.468,2.731 3.475,3.949 0.007,1.23 -0.603,2.693 -2.722,2.443"
             style="fill:#ff5500;fill-opacity:1;fill-rule:nonzero;stroke:none"
             id="path26332" /></g><g
           id="g26334"
           transform="translate(333.1567,153.3286)"><path
             d="m 0,0 c -0.482,-2.361 -1.176,-4.279 -4.042,-4.888 -1.661,-0.353 -2.127,0.195 -2.116,2.245 0.002,0.344 0.135,6.013 0.153,7.139 L -7.552,4.194 c -0.064,-2.577 -0.073,-4.336 -0.08,-5.512 -0.013,-2.341 -0.019,-3.479 0.508,-4.212 0.466,-0.654 1.363,-1.11 3.265,-0.706 4.21,0.895 4.939,4.563 5.252,6.122 z"
             style="fill:#ff5500;fill-opacity:1;fill-rule:nonzero;stroke:none"
             id="path26336" /></g><g
           id="g26338"
           transform="translate(279.5991,84.0547)"><path
             d="m 0,0 -7.972,-1.695 1.271,14.525 7.972,1.694 z m -1.35,-15.429 c -0.214,-2.444 -2.249,-4.821 -4.546,-5.309 l -3.813,-0.81 1.202,13.732 7.971,1.694 z m -15.967,11.748 -7.245,-1.54 1.27,14.524 7.246,1.54 z m -1.737,-19.854 -7.246,-1.54 1.202,13.732 7.245,1.54 z m -14.854,16.327 -7.971,-1.694 0.883,10.099 c 0.214,2.444 2.249,4.821 4.545,5.309 l 3.814,0.811 z m -1.737,-19.854 -7.972,-1.694 1.202,13.732 7.972,1.695 z m 29.683,48.342 1.143,13.056 -9.346,-1.986 -1.142,-13.056 -7.246,-1.54 1.143,13.056 -9.346,-1.987 -1.142,-13.055 -23.915,-5.084 -4.479,-51.2 73.766,15.68 4.48,51.2 z"
             style="fill:#faa61a;fill-opacity:1;fill-rule:nonzero;stroke:none"
             id="path26340" /></g><g
           id="g26342"
           transform="translate(275.5297,127.7729)"><path
             d="m 0,0 c -0.369,0.13 -0.941,0.335 -0.94,0.661 0.002,0.275 0.257,0.537 0.886,1.154 2.5,2.475 2.783,2.757 4.591,4.759 L 3.177,7.263 C 2.278,6.159 1.931,5.785 -0.659,3.056 -1.993,1.65 -2.635,0.862 -2.639,0.222 c -0.004,-0.836 0.912,-1.189 1.942,-1.583 1.922,-0.726 3.755,-1.602 5.47,-2.673 l 1.27,1.352 C 4.887,-1.91 1.872,-0.646 0,0"
             style="fill:#ffaa00;fill-opacity:1;fill-rule:nonzero;stroke:none"
             id="path26344" /></g><g
           id="g26346"
           transform="translate(261.1625,121.8481)"><path
             d="m 0,0 c -0.004,-0.684 -0.768,-0.911 -1.105,-0.982 -0.865,-0.184 -1.174,0.24 -1.172,0.64 0.003,0.529 0.518,1 1.394,1.186 0.401,0.085 0.663,0.089 0.888,0.073 z M 1.362,2.172 1.374,4.249 4.729,4.962 4.737,6.317 1.381,5.604 1.39,7.307 0.026,7.017 0.012,2.207 C -0.201,2.188 -0.426,2.165 -0.764,2.093 -2.366,1.752 -3.51,0.685 -3.517,-0.695 c -0.007,-1.355 1.102,-1.854 2.492,-1.559 0.488,0.104 1.253,0.356 1.818,0.966 0.416,0.45 0.544,1.031 0.547,1.56 L 1.342,0.763 C 2.516,0.445 3.302,0.032 4.173,-0.71 L 5.119,0.753 C 3.823,1.586 2.549,1.986 1.362,2.172"
             style="fill:#ffaa00;fill-opacity:1;fill-rule:nonzero;stroke:none"
             id="path26348" /></g><g
           id="g26350"
           transform="translate(242.9335,118.7236)"><path
             d="M 0,0 C 0.001,0.236 0.117,0.945 1.079,1.858 L 0.1,2.347 c -1.411,-1.338 -1.416,-2.43 -1.418,-2.693 -10e-4,-0.185 0.014,-1.851 2.324,-1.794 0.87,0.015 2.561,0.348 3.506,0.548 1.218,0.259 1.877,0.452 2.326,0.587 L 6.845,0.39 C 6.385,0.239 5.688,-0.001 3.736,-0.416 1.896,-0.807 -0.007,-1.211 0,0 M 1.981,3.483 -2.321,2.569 -2.314,3.858 2.087,4.793 C 2.299,4.838 2.473,4.875 3.008,5.003 2.947,5.213 2.837,5.597 2.655,6.348 2.556,6.326 2.12,6.22 2.033,6.201 L -1.858,5.375 -1.851,6.664 2.016,7.486 C 2.053,7.494 2.363,7.574 2.438,7.603 2.343,8.292 2.32,8.668 2.297,9.058 L 3.728,9.48 C 3.738,9.087 3.749,8.775 3.843,7.98 5.56,8.45 6.519,8.917 6.967,9.144 L 7.096,7.83 C 6.101,7.343 5.205,7.074 4.048,6.735 4.12,6.344 4.279,5.719 4.4,5.351 5.408,5.631 6.702,5.998 7.922,6.638 L 8.126,5.407 C 7.005,4.827 6.036,4.542 4.804,4.175 5.159,3.331 5.307,2.981 5.911,2.334 L 4.652,1.396 C 4.319,1.785 3.974,2.237 3.411,3.8 2.914,3.682 2.491,3.592 1.981,3.483"
             style="fill:#ffaa00;fill-opacity:1;fill-rule:nonzero;stroke:none"
             id="path26352" /></g><g
           id="g26354"
           transform="translate(183.1161,63.127)"><path
             d="m 0,0 0.284,3.249 21.207,4.508 0.601,6.869 -21.207,-4.508 0.285,3.255 c 0.196,2.239 2.211,4.439 4.494,4.919 l 17.35,3.687 0.601,6.869 -60.725,-12.908 -0.601,-6.868 17.35,3.688 c 2.282,0.48 3.982,-0.935 3.787,-3.158 l -0.284,-3.255 -21.208,-4.508 -0.601,-6.869 21.208,4.508 -0.285,-3.25 c -0.258,-2.959 -2.944,-5.927 -5.998,-6.571 l -22.309,-4.742 -0.601,-6.864 73.399,15.601 0.601,6.864 -22.31,-4.742 C 1.984,-4.87 -0.259,-2.96 0,0 m -20.671,22.153 -22.975,-4.883 1.001,11.433 14.333,3.047 c 11.71,2.489 14.094,16.818 14.094,16.818 l 19.51,4.147 C 5.013,49.522 3.65,46.309 3.65,46.309 7.269,45.98 26.6,39.205 29.935,32.91 L 10.727,28.827 C 8.174,31.971 2.09,35.414 -1.391,36.535 -6.227,29.116 -13.837,23.605 -20.671,22.153"
             style="fill:#ff5500;fill-opacity:1;fill-rule:nonzero;stroke:none"
             id="path26356" /></g><g
           id="g26358"
           transform="translate(196.8715,127.3872)"><path
             d="m 0,0 c -0.243,-2.336 -0.752,-4.081 -1.945,-4.316 -1.058,-0.21 -1.052,0.948 -1.05,1.335 l 0.004,0.552 c 0.005,1.03 -0.061,2.912 -2.023,2.517 -0.847,-0.19 -1.33,-0.648 -1.581,-0.904 l -0.019,0.02 c 0.216,0.737 1.387,4.306 1.661,5.149 L -6.509,4.312 C -7.351,1.416 -9.133,-4.699 -9.876,-7.087 l 1.421,-0.132 c 0.118,0.414 0.609,2.417 0.726,2.886 0.45,1.345 1.207,2.683 2.437,2.934 0.943,0.201 0.919,-0.644 0.915,-1.472 l -0.002,-0.441 c -0.004,-0.718 0.003,-2.945 2.311,-2.467 2.327,0.476 3.031,2.739 3.374,5.638 z"
             style="fill:#ff5500;fill-opacity:1;fill-rule:nonzero;stroke:none"
             id="path26360" /></g><g
           id="g26362"
           transform="translate(170.4677,126.1626)"><path
             d="M 0,0 C -0.035,0.408 -0.23,1.313 -0.44,1.749 L -1.353,1.412 c 0.222,-0.653 0.331,-1.305 0.378,-1.814 z M 1.437,0.487 C 1.23,1.507 1.157,1.816 0.998,2.249 L 0.035,1.902 C 0.281,1.292 0.45,0.251 0.475,0.115 Z M -1.594,-1.739 0.754,-1.214 0.747,-2.565 -1.589,-3.1 c -0.013,-2.285 -0.023,-4.117 -2.258,-4.592 -0.612,-0.13 -1.198,-0.124 -1.548,-0.121 l 0.021,1.405 c 0.486,-0.027 0.86,-0.038 1.322,0.06 0.949,0.202 1.014,0.644 1.077,2.94 l -3.972,-0.896 -0.028,-2.821 c -0.026,-2.521 0.41,-2.545 3.245,-1.943 0.275,0.059 2.274,0.522 3.424,0.871 L -0.252,-9.6 c -1.611,-0.433 -2.161,-0.563 -3.748,-0.9 -1.923,-0.409 -3.196,-0.667 -3.962,0.727 -0.358,0.664 -0.351,1.949 -0.349,2.326 l 0.04,2.849 -1.923,-0.435 -0.018,1.345 1.961,0.443 0.026,2.561 1.325,0.282 -0.027,-2.549 3.935,0.889 c -0.054,1.7 -0.077,2.111 -0.123,2.737 l 1.399,0.336 c 0.034,-0.486 0.1,-2.132 0.122,-2.75"
             style="fill:#ff5500;fill-opacity:1;fill-rule:nonzero;stroke:none"
             id="path26364" /></g><g
           id="g26366"
           transform="translate(339.6684,182.7617)"><path
             d="m 0,0 1.255,14.345 c -10.7,8.538 -25.539,5.248 -25.539,5.248 l 0.867,9.909 c 0.143,1.632 1.624,3.249 3.315,3.608 l 1.305,0.278 0.583,6.657 -23.973,-5.096 -0.582,-6.657 2.319,0.493 c 1.134,0.241 1.965,-0.453 1.87,-1.536 l -2.687,-30.707 c -0.142,-1.632 -1.624,-3.248 -3.315,-3.608 l -1.305,-0.277 -0.582,-6.657 23.972,5.095 0.582,6.657 -2.318,-0.493 c -1.134,-0.24 -1.965,0.454 -1.871,1.536 l 1.1,12.567 c 0,0 11.025,3.054 25.004,-11.362"
             style="fill:#feee04;fill-opacity:1;fill-rule:nonzero;stroke:none"
             id="path26368" /></g><g
           id="g26370"
           transform="translate(267.7597,176.3208)"><path
             d="m 0,0 c 6.274,8.255 7.536,13.684 8.844,19.671 0.465,2.167 1.606,3.208 2.817,3.466 l 2.251,0.478 0.714,8.171 -52.68,-11.198 -0.758,-8.655 32.993,7.012 C -7.559,7.591 -12.994,-7.333 -31.463,-11.259 l -9.555,-2.031 -0.748,-8.546 9.767,2.077 c 12.642,2.686 18.902,5.783 26.946,14.089 1.795,-1.075 4.077,-3.522 5.165,-7.265 L 14.98,-9.774 C 13.161,-7.093 4.961,-1.102 0,0"
             style="fill:#feee04;fill-opacity:1;fill-rule:nonzero;stroke:none"
             id="path26372" /></g><g
           id="g26374"
           transform="translate(195.2187,180.5073)"><path
             d="M 0,0 C 2.432,0.471 4.001,2.85 3.495,5.282 2.988,7.714 0.644,9.283 -1.788,8.776 -4.22,8.27 -5.754,5.926 -5.282,3.494 -4.776,1.062 -2.432,-0.472 0,0 m 10.65,2.142 c 2.433,0.506 4.001,2.85 3.495,5.283 -0.507,2.432 -2.851,4.001 -5.283,3.494 C 6.43,10.413 4.896,8.068 5.367,5.636 5.874,3.204 8.218,1.671 10.65,2.142 M 21.21,-20.69 20.449,-29.398 7.753,-32.097 c -1.721,-0.366 -3.512,0.148 -4.778,1.37 l -28.237,27.269 -3.568,-29.875 -19.338,-4.11 0.567,6.482 1.982,0.421 c 1.187,0.249 2.16,1.174 2.35,2.75 l 3.465,28.627 19.378,4.119 c 3.689,0.784 7.527,-0.316 10.239,-2.936 l 23.212,-22.415 c 1.275,-1.232 2.565,-1.49 3.656,-1.258 z"
             style="fill:#feee04;fill-opacity:1;fill-rule:nonzero;stroke:none"
             id="path26376" /></g><g
           id="g26378"
           transform="translate(136.2866,163.8247)"><path
             d="m 0,0 -7.587,-0.511 -3.382,6.153 -3.406,-7.596 -7.591,-2.715 5.482,-4.184 -1.31,-7.831 6.794,5.01 6.782,-2.124 -1.283,7.28 z"
             style="fill:#feee04;fill-opacity:1;fill-rule:nonzero;stroke:none"
             id="path26380" /></g><g
           id="g26382"
           transform="translate(99.5336,171.9155)"><path
             d="m 0,0 c -2.229,-0.464 -3.635,-2.613 -3.203,-4.843 0.464,-2.23 2.613,-3.636 4.843,-3.203 2.229,0.432 3.668,2.613 3.203,4.843 C 4.379,-0.974 2.23,0.464 0,0 M 14.606,-1.239 C 14.142,0.991 11.994,2.429 9.764,1.964 7.534,1.5 6.128,-0.649 6.56,-2.879 c 0.464,-2.229 2.613,-3.635 4.843,-3.203 2.23,0.464 3.668,2.613 3.203,4.843 m -25.944,-11.633 8.676,1.845 -0.546,-6.243 -8.676,-1.844 -1.371,-15.661 c -0.69,-7.887 -5.422,-13.56 -12.186,-14.975 l -33.425,-7.105 0.693,7.922 23.902,5.081 c 4.593,0.982 7.028,4.71 7.494,10.035 l 1.028,11.756 -15.72,-3.341 -1.008,-11.519 -15.053,-3.2 0.514,5.878 1.554,0.33 c 1.672,0.355 2.367,1.535 2.511,3.177 l 0.258,2.948 -10.378,-2.206 0.546,6.242 10.378,2.206 0.255,2.916 c 0.097,1.106 -0.704,1.768 -2.512,1.384 l -1.146,-0.244 0.515,5.889 18.883,4.014 -0.515,-5.889 -1.551,-0.33 c -1.677,-0.356 -2.371,-1.539 -2.513,-3.166 l -0.192,-2.188 15.72,3.342 0.256,2.918 c 0.096,1.106 -0.709,1.764 -2.514,1.38 l -1.199,-0.254 0.515,5.889 21.491,4.568 -0.515,-5.89 -1.471,-0.312 c -1.695,-0.36 -2.36,-1.49 -2.506,-3.156 z"
             style="fill:#feee04;fill-opacity:1;fill-rule:nonzero;stroke:none"
             id="path26384" /></g><g
           id="g26386"
           transform="translate(435.3647,342.3984)"><path
             d="m 0,0 -37.021,-7.869 c -1.99,-0.417 -3.294,-2.015 -3.488,-4.239 l -3.597,-41.113 37.021,7.869 c 1.84,0.381 3.28,1.858 3.488,4.239 z m 15.617,11.037 -5.283,-60.385 -70.048,-14.889 5.283,60.384 z m -25.737,-48.825 -4.089,-0.869 c -2.389,-0.508 -3.48,0.323 -3.349,1.826 l 0.836,9.554 7.664,1.629 0.446,5.085 -7.665,-1.629 0.68,7.781 c 0.217,2.47 1.422,3.8 3.384,4.218 l 4.593,0.976 0.414,4.737 -26.305,-5.592 -0.414,-4.737 4.141,0.881 c 2.894,0.615 3.388,-0.809 3.299,-1.827 l -0.768,-8.77 -7.664,-1.63 -0.445,-5.084 7.664,1.629 -0.749,-8.565 c -0.213,-2.437 -1.437,-3.813 -3.334,-4.217 l -4.644,-0.987 -0.411,-4.705 26.305,5.591 z m -3.42,8.065 4.204,0.894 -0.506,-5.777 -4.203,-0.894 z"
             style="fill:#ff5500;fill-opacity:1;fill-rule:nonzero;stroke:none"
             id="path26388" /></g><g
           id="g26390"
           transform="translate(426.7856,356.5264)"><path
             d="m 0,0 c -0.359,0.131 -0.917,0.336 -0.916,0.659 0,0.272 0.248,0.532 0.854,1.14 2.417,2.442 2.69,2.72 4.438,4.697 L 3.052,7.185 C 2.184,6.094 1.85,5.726 -0.654,3.032 -1.943,1.645 -2.563,0.866 -2.564,0.231 c 0,-0.828 0.891,-1.182 1.894,-1.577 1.868,-0.729 3.65,-1.606 5.321,-2.675 l 1.228,1.335 C 4.753,-1.915 1.819,-0.649 0,0"
             style="fill:#ff5500;fill-opacity:1;fill-rule:nonzero;stroke:none"
             id="path26392" /></g><g
           id="g26394"
           transform="translate(398.4907,354.6738)"><path
             d="m 0,0 0.905,-0.741 c 1.459,1.243 2.579,2.034 4.164,2.66 L 5.07,3.207 C 4.266,3.036 0.292,2.178 -0.602,1.989 -1.23,1.855 -2.79,1.523 -3.167,1.456 l -0.001,-1.485 c 0.804,0.223 1.887,0.48 4.477,1.07 C 0.491,0.446 0.403,0.375 0,0 m 2.02,-6.406 c -1.887,-0.401 -4.302,-0.887 -4.3,0.822 0,0.276 0.052,1.247 1.108,2.535 l -1.018,0.572 c -0.918,-1.273 -1.473,-2.218 -1.474,-3.427 -10e-4,-1.039 0.665,-1.897 1.533,-2.146 1.069,-0.311 2.138,-0.202 4.614,0.324 1.95,0.414 2.83,0.72 3.27,0.879 L 5.704,-5.385 C 4.484,-5.829 3.251,-6.144 2.02,-6.406 m 3.626,5.464 0.879,0.739 C 6.262,0.306 5.848,0.901 5.345,1.399 L 4.464,0.673 c 0.49,-0.54 0.742,-0.881 1.182,-1.615 m -1.861,1.3 c 0.654,-0.69 1.08,-1.466 1.194,-1.679 L 4.098,-2.06 C 3.532,-1.037 3.13,-0.596 2.93,-0.363 Z"
             style="fill:#ff5500;fill-opacity:1;fill-rule:nonzero;stroke:none"
             id="path26396" /></g><g
           id="g26398"
           transform="translate(338.3852,275.002)"><path
             d="m 0,0 0.591,6.76 26.121,5.552 0.926,10.586 -26.12,-5.552 0.829,9.48 26.12,5.552 0.924,10.56 -70.552,-14.996 -0.923,-10.561 25.694,5.462 -0.829,-9.479 -25.695,-5.462 -0.926,-10.587 25.694,5.462 -0.342,-3.915 C -19.584,-13.674 -26.78,-18.155 -37.309,-20.4 l -8.234,-1.75 -0.928,-10.61 17.933,3.812 c 13.774,2.921 18.92,7.262 25.347,19.488 2.816,-1.415 10.284,-7.333 13.176,-11.3 l 18.548,3.943 C 23.649,-10.381 5.063,-1.46 0,0"
             style="fill:#faa61a;fill-opacity:1;fill-rule:nonzero;stroke:none"
             id="path26400" /></g><g
           id="g26402"
           transform="translate(349.4189,323.0073)"><path
             d="m 0,0 c -0.267,-2.925 -0.917,-4.16 -1.916,-4.372 -1.061,-0.225 -1.059,0.962 -1.058,1.341 l 0.001,0.56 c 0.002,0.94 -0.045,2.951 -2.053,2.524 -0.848,-0.18 -1.335,-0.649 -1.61,-0.916 0.214,0.75 1.366,4.398 1.618,5.234 L -6.589,4.337 c -0.553,-1.969 -2.31,-8.25 -3.289,-11.536 l 1.434,-0.125 c 0.088,0.371 0.716,2.995 0.741,3.066 0.264,0.786 0.978,2.529 2.388,2.828 0.936,0.199 0.934,-0.649 0.933,-1.484 l -0.001,-0.443 c -0.001,-0.288 0.036,-1.061 0.209,-1.508 0.274,-0.711 1.071,-1.194 2.094,-0.976 2.295,0.487 3.047,2.565 3.39,5.715 z"
             style="fill:#ffaa00;fill-opacity:1;fill-rule:nonzero;stroke:none"
             id="path26404" /></g><g
           id="g26406"
           transform="translate(317.2988,319.6899)"><path
             d="M 0,0 C 0.572,0.414 1.314,0.876 2.409,1.109 2.931,1.22 3.211,1.254 3.467,1.284 L 3.445,2.715 C 2.192,2.398 -3.391,0.982 -4.437,0.709 -5.275,0.493 -6.188,0.248 -7.027,0.07 l 0.046,-1.44 c 1.885,0.566 3.77,1.12 5.668,1.638 -2.716,-2.307 -3.363,-4.428 -3.365,-5.737 -0.002,-1.183 0.713,-2.238 1.806,-2.591 1.106,-0.362 2.407,-0.403 5.022,0.14 l 0.197,1.555 C -1.156,-7.224 -3.283,-6.99 -3.28,-5.057 -3.277,-3.341 -1.729,-1.27 0,0"
             style="fill:#ffaa00;fill-opacity:1;fill-rule:nonzero;stroke:none"
             id="path26408" /></g><g
           id="g26410"
           transform="translate(281.5068,268.2568)"><path
             d="m 0,0 -2.789,-0.593 c -1.825,-0.393 -3.736,0.307 -4.912,2.421 l -5.395,9.698 -18.49,-3.93 7.095,-12.802 -22.806,-4.847 17.291,42.795 c 0.755,1.87 1.905,2.983 3.377,3.306 l 4.64,0.987 0.64,7.313 -22.776,-4.841 -20.53,-50.814 c -0.795,-1.967 -2.079,-2.878 -3.386,-3.155 l -2.824,-0.601 -0.925,-10.572 76.935,16.353 z"
             style="fill:#ff5500;fill-opacity:1;fill-rule:nonzero;stroke:none"
             id="path26412" /></g><g
           id="g26414"
           transform="translate(199.0771,281.6338)"><path
             d="M 0,0 C -0.525,2.637 -3.126,4.303 -5.718,3.724 -8.359,3.15 -9.971,0.594 -9.442,-1.994 -8.868,-4.635 -6.312,-6.247 -3.724,-5.718 -1.083,-5.143 0.579,-2.592 0,0 m -23.534,-48.364 c 7.798,10.259 9.365,17.006 10.992,24.447 0.576,2.693 1.995,3.987 3.5,4.307 l 2.797,0.594 0.889,10.155 -65.471,-13.916 -0.942,-10.757 41.003,8.715 c -2.162,-14.111 -8.917,-32.659 -31.87,-37.537 l -11.875,-2.524 -0.929,-10.621 12.138,2.581 c 15.711,3.338 23.492,7.187 33.489,17.509 2.23,-1.336 5.066,-4.377 6.418,-9.028 l 18.478,3.928 c -2.261,3.332 -12.451,10.778 -18.617,12.147 m 2.516,43.91 c -0.528,2.587 1.088,5.193 3.725,5.718 2.587,0.528 5.139,-1.133 5.717,-3.724 0.53,-2.588 -1.083,-5.144 -3.724,-5.718 -2.587,-0.529 -5.139,1.133 -5.718,3.724"
             style="fill:#faa61a;fill-opacity:1;fill-rule:nonzero;stroke:none"
             id="path26416" /></g><g
           id="g26418"
           transform="translate(87.0644,275.813)"><path
             d="m 0,0 -0.687,-7.853 1.611,0.343 c 2.427,0.515 3.51,-0.361 3.38,-1.836 l -2.44,-27.893 c -0.621,-7.1 -3.891,-12.077 -10.062,-13.397 l -32.123,-6.827 -0.924,-10.565 44.919,9.548 c 9.092,1.901 15.446,9.477 16.367,19.994 l 2.811,32.138 c 0.194,2.222 1.088,3.73 3.366,4.214 l 1.976,0.42 0.687,7.853 z m -19.252,-41.416 -25.377,-5.394 0.686,7.837 2.089,0.444 c 2.247,0.478 3.18,2.052 3.371,4.242 l 1.413,16.143 c 0.129,1.475 -0.948,2.356 -3.378,1.84 l -1.541,-0.327 0.687,7.852 25.377,5.394 -0.687,-7.853 -2.084,-0.443 c -2.253,-0.479 -3.185,-2.058 -3.375,-4.227 l -1.412,-16.143 c -0.13,-1.485 0.958,-2.369 3.38,-1.854 l 1.537,0.326 z"
             style="fill:#ff5500;fill-opacity:1;fill-rule:nonzero;stroke:none"
             id="path26420" /></g><g
           id="g26422"
           transform="translate(474.8481,259.4062)"><path
             d="M 0,0 3.542,0.769 2.75,-7.467 5.162,-6.943 5.953,1.292 9.368,2.034 9.538,3.804 0.17,1.77 Z m 21.785,6.468 -0.962,-10.01 -2.177,-0.473 0.804,8.363 -2.955,-8.83 -2.328,-0.506 -1.296,7.907 -0.804,-8.363 -2.201,-0.478 0.962,10.012 3.44,0.746 1.31,-7.489 0.026,0.005 2.786,8.379 z"
             style="fill:#000000;fill-opacity:1;fill-rule:nonzero;stroke:none"
             id="path26424" /></g></g></g></g></svg>
