<?xml version="1.0" encoding="UTF-8" standalone="no"?>
<!-- Created with Inkscape (http://www.inkscape.org/) -->

<svg
   version="1.1"
   id="svg2"
   xml:space="preserve"
   width="666.66669"
   height="495.91599"
   viewBox="0 0 666.66669 495.91599"
   sodipodi:docname="Rhythm Tubers Logo.ai"
   xmlns:inkscape="http://www.inkscape.org/namespaces/inkscape"
   xmlns:sodipodi="http://sodipodi.sourceforge.net/DTD/sodipodi-0.dtd"
   xmlns="http://www.w3.org/2000/svg"
   xmlns:svg="http://www.w3.org/2000/svg"><defs
     id="defs6"><clipPath
       clipPathUnits="userSpaceOnUse"
       id="clipPath16"><path
         d="M 0,371.937 H 500 V 0 H 0 Z"
         id="path14" /></clipPath></defs><sodipodi:namedview
     id="namedview4"
     pagecolor="#ffffff"
     bordercolor="#666666"
     borderopacity="1.0"
     inkscape:pageshadow="2"
     inkscape:pageopacity="0.0"
     inkscape:pagecheckerboard="0" /><g
     id="g8"
     inkscape:groupmode="layer"
     inkscape:label="Rhythm Tubers Logo"
     transform="matrix(1.3333333,0,0,-1.3333333,0,495.916)"><g
       id="g10"><g
         id="g12"
         clip-path="url(#clipPath16)"><g
           id="g18"
           transform="translate(500,252.6854)"><path
             d="m 0,0 c 0,16.089 -3.156,31.709 -9.381,46.425 -6.007,14.203 -14.603,26.954 -25.547,37.899 -10.945,10.945 -23.696,19.54 -37.899,25.547 -14.716,6.225 -30.336,9.381 -46.425,9.381 -9.572,0 -19.105,-1.141 -28.333,-3.392 -8.977,-2.189 -17.703,-5.436 -25.937,-9.65 -10.125,-5.182 -19.519,-11.86 -27.801,-19.71 -3.331,1.503 -6.744,2.828 -10.228,3.971 -10.356,3.396 -21.173,5.118 -32.15,5.118 -17.627,0 -35.034,-4.531 -50.339,-13.104 -7.443,-4.168 -14.343,-9.26 -20.528,-15.112 -6.028,4.026 -12.425,7.498 -19.154,10.389 -14.889,6.397 -30.711,9.64 -47.026,9.64 -16.089,0 -31.709,-3.156 -46.425,-9.381 -14.203,-6.007 -26.954,-14.602 -37.899,-25.547 -10.945,-10.945 -19.54,-23.696 -25.547,-37.899 -6.225,-14.716 -9.381,-30.336 -9.381,-46.425 0,-30.965 11.879,-60.28 33.001,-82.361 -1.029,-6.336 -1.548,-12.763 -1.548,-19.222 0,-16.089 3.156,-31.709 9.381,-46.426 6.007,-14.203 14.602,-26.954 25.547,-37.898 10.945,-10.945 23.696,-19.54 37.899,-25.548 14.716,-6.224 30.336,-9.38 46.425,-9.38 9.582,0 19.126,1.143 28.364,3.399 8.986,2.194 17.72,5.447 25.961,9.67 10.687,5.477 20.557,12.619 29.163,21.049 10.749,-3.691 22.102,-5.603 33.552,-5.603 19.574,0 38.536,5.523 54.865,15.794 6.07,-3.396 12.43,-6.253 19.027,-8.544 12.559,-4.36 25.718,-6.571 39.111,-6.571 16.089,0 31.709,3.156 46.425,9.381 14.203,6.007 26.954,14.603 37.899,25.547 10.944,10.945 19.54,23.696 25.547,37.899 6.225,14.716 9.381,30.336 9.381,46.425 0,18.181 -4.108,35.958 -11.969,52.12 C -4.108,-35.958 0,-18.181 0,0"
             style="fill:#ff0000;fill-opacity:1;fill-rule:nonzero;stroke:none"
             id="path20" /></g><g
           id="g22"
           transform="translate(487.1079,252.6854)"><path
             d="m 0,0 c 0,14.354 -2.813,28.284 -8.362,41.403 -5.358,12.667 -13.025,24.04 -22.79,33.805 -9.765,9.765 -21.138,17.432 -33.805,22.79 -13.119,5.548 -27.049,8.362 -41.403,8.362 -8.544,0 -17.049,-1.018 -25.279,-3.025 -8,-1.951 -15.778,-4.845 -23.118,-8.601 -11.691,-5.984 -22.29,-14.204 -31.059,-24.036 -13.641,7.874 -29.026,11.999 -44.993,11.999 -15.426,0 -30.654,-3.963 -44.039,-11.46 -9.642,-5.4 -18.244,-12.57 -25.314,-21.047 -7.786,6.442 -16.413,11.712 -25.757,15.727 -13.272,5.702 -27.382,8.593 -41.937,8.593 -14.354,0 -28.284,-2.813 -41.403,-8.362 -12.666,-5.358 -24.04,-13.025 -33.805,-22.79 -9.764,-9.765 -17.432,-21.138 -22.789,-33.805 -5.549,-13.119 -8.363,-27.049 -8.363,-41.403 0,-29.809 12.345,-57.906 34.078,-78.026 -1.743,-7.703 -2.625,-15.602 -2.625,-23.557 0,-14.355 2.814,-28.285 8.362,-41.403 5.358,-12.667 13.025,-24.04 22.79,-33.805 9.765,-9.765 21.139,-17.433 33.805,-22.79 13.119,-5.549 27.049,-8.362 41.403,-8.362 8.553,0 17.068,1.02 25.306,3.031 8.009,1.955 15.794,4.855 23.14,8.62 11.965,6.131 22.784,14.606 31.666,24.753 11.559,-5.179 24.174,-7.889 36.928,-7.889 19.76,0 38.809,6.435 54.426,18.256 7.383,-4.883 15.325,-8.813 23.695,-11.719 11.195,-3.887 22.932,-5.858 34.882,-5.858 14.354,0 28.284,2.814 41.403,8.362 12.667,5.358 24.04,13.025 33.805,22.79 9.765,9.765 17.432,21.138 22.79,33.805 5.549,13.119 8.362,27.049 8.362,41.403 0,18.362 -4.694,36.256 -13.626,52.12 C -4.694,-36.256 0,-18.362 0,0"
             style="fill:#ffffff;fill-opacity:1;fill-rule:nonzero;stroke:none"
             id="path24" /></g><g
           id="g26"
           transform="translate(477.4388,252.6854)"><path
             d="m 0,0 c 0,53.401 -43.29,96.691 -96.691,96.691 -31.685,0 -59.81,-15.241 -77.445,-38.792 -13.23,9.519 -29.461,15.129 -47.004,15.129 -28.553,0 -53.636,-14.853 -67.948,-37.253 -17.552,17.933 -42.023,29.066 -69.099,29.066 -53.401,0 -96.691,-43.29 -96.691,-96.691 0,-30.069 13.727,-56.932 35.254,-74.666 -2.472,-8.545 -3.801,-17.576 -3.801,-26.917 0,-53.401 43.29,-96.691 96.691,-96.691 31.721,0 59.873,15.275 77.505,38.87 11.68,-6.59 25.167,-10.355 39.535,-10.355 20.773,0 39.709,7.863 53.998,20.773 16.327,-12.596 36.789,-20.094 59.005,-20.094 53.401,0 96.691,43.29 96.691,96.691 0,19.193 -5.592,37.079 -15.236,52.12 C -5.592,-37.079 0,-19.193 0,0"
             style="fill:#ff0000;fill-opacity:1;fill-rule:nonzero;stroke:none"
             id="path28" /></g><g
           id="g30"
           transform="translate(431.672,117.517)"><path
             d="m 0,0 c -0.361,3.411 -6.266,4.183 -15.451,6.39 -16.107,3.863 -26.014,13.449 -24.997,30.084 1.083,17.947 10.17,30.468 58.261,38.628 V 37.771 c -17.354,-2.177 -26.932,-5.416 -31,-8.74 -4.33,-3.521 -3.805,-8.9 2.198,-11.345 2.591,-1.043 10.727,-3.614 15.582,-5.241 9.283,-3.126 13.876,-7.871 14.827,-16.299 2.685,-23.783 -40.349,-30.021 -58.096,-32.625 v 21.126 C -17.419,-11.067 0.82,-7.313 0,0"
             style="fill:#ffffff;fill-opacity:1;fill-rule:nonzero;stroke:none"
             id="path32" /></g><g
           id="g34"
           transform="translate(344.0866,117.3923)"><path
             d="M 0,0 V 32.23 L 24.61,21.797 Z m 19.561,-7.02 c 11.86,4.434 21.017,15.988 21.035,28.949 0,26.011 -25.452,33.563 -56.582,22.442 v -83.93 l 13.283,3.067 -0.016,20.982 c 0,3.209 2.361,2.65 4.543,0.703 1.532,-1.37 10.714,-10.264 17.149,-16.681 l 20.253,4.676 C 39.208,-26.83 21.597,-8.805 19.561,-7.02"
             style="fill:#ffffff;fill-opacity:1;fill-rule:nonzero;stroke:none"
             id="path36" /></g><g
           id="g38"
           transform="translate(322.1696,105.8152)"><path
             d="M 0,0 V -17.539 L -47.796,-28.574 V 56.032 L -0.981,66.84 V 35.146 c 0,0 -22.738,-4.916 -27.803,-8.224 -1.881,-1.227 -2.658,-2.659 -2.453,-4.255 0.245,-1.555 1.343,-2.45 3.025,-2.701 5.539,-0.825 23.551,3.519 23.551,3.519 V 9.697 L -20.484,5.523 c -3.353,-0.982 -5.847,-2.005 -7.482,-2.987 -1.881,-1.227 -2.658,-2.659 -2.453,-4.255 0.441,-2.924 4.456,-2.864 4.456,-2.864 C -21.377,-4.546 -12.756,-2.905 0,0"
             style="fill:#ffffff;fill-opacity:1;fill-rule:nonzero;stroke:none"
             id="path40" /></g><g
           id="g42"
           transform="translate(228.5207,136.4453)"><path
             d="m 0,0 c 0,-4.695 2.488,-6.824 6.958,-5.778 8.709,2.043 13.359,5.838 13.359,11.198 0,5.736 -3.044,11.044 -16.233,7.622 C 0.777,12.027 -0.016,7.801 0,4.537 Z m 21.659,-22.331 c -0.897,6.588 -8.827,7.552 -17.291,5.283 C 0.573,-18.161 0,-22.017 0,-24.981 c 0,-1.185 0,-9.963 0,-10.861 0,-4.077 3.717,-4.332 8.522,-3.161 10.656,2.589 14.182,9.017 13.137,16.672 m 18.277,2.415 c 0,-15.318 -6.148,-30.251 -54.192,-35.853 v 82.888 c 26.682,8.224 51.56,9.724 51.56,-10.767 0,-15.938 -11.437,-21.414 -11.437,-21.414 0,0 14.069,2.27 14.069,-14.854"
             style="fill:#ffffff;fill-opacity:1;fill-rule:nonzero;stroke:none"
             id="path44" /></g><g
           id="g46"
           transform="translate(191.6724,143.7871)"><path
             d="m 0,0 14.736,3.402 c 0,-60.611 0,-84.422 -31.263,-91.641 -32.109,-7.413 -30.755,13.35 -30.755,77.505 l 19.589,4.523 c 0,-48.648 0.576,-55.011 13.128,-52.113 C -1.628,-55.337 0,-42.362 0,0"
             style="fill:#ffffff;fill-opacity:1;fill-rule:nonzero;stroke:none"
             id="path48" /></g><g
           id="g50"
           transform="translate(135.9886,164.8418)"><path
             d="m 0,0 v -30.983 l -9.013,-2.08 c -9.842,-2.184 -11.031,-7.078 -11.722,-27.204 v -46.045 l -17.864,-4.125 -0.244,50.059 c 0.193,11.805 -2.765,12.773 -9.455,11.169 l -11.031,-2.547 v 38.059 z"
             style="fill:#ffffff;fill-opacity:1;fill-rule:nonzero;stroke:none"
             id="path52" /></g><g
           id="g54"
           transform="translate(420.4251,218.9883)"><path
             d="M 0,0 C 0.024,14.419 0.095,23.153 -0.688,27.493 -1.707,33.232 -5.099,31.05 -6.877,27.944 -9.083,24.126 -12.19,16.323 -17.952,0.837 l -10.459,-2.418 c -5.288,12.142 -7.944,18.047 -9.628,20.774 -2.039,3.32 -4.055,2.846 -4.743,-0.498 -0.759,-3.723 -1.006,-14.49 -0.888,-28.601 l -15.594,-3.6 v 94.165 l 17.122,3.953 c 7.613,-18.426 13.684,-32.55 16.909,-37.72 2.775,-4.411 8.728,-10.624 14.466,5.193 3.368,9.297 7.296,20.479 14.126,43.032 l 12.815,2.959 V 3.734 Z"
             style="fill:#ffffff;fill-opacity:1;fill-rule:nonzero;stroke:none"
             id="path56" /></g><g
           id="g58"
           transform="translate(355.164,281.7418)"><path
             d="m 0,0 v -84.605 l -13.261,-3.062 c 0,10.124 -0.116,17.234 -0.791,21.718 -1.489,9.844 -18.612,7.253 -19.194,-4.074 -0.209,-4.3 -0.209,-9.755 -0.209,-22.306 l -16.635,-3.839 v 84.604 l 13.052,3.013 c -0.334,-12.149 0.009,-23.122 0.698,-26.989 1.539,-9.927 16.937,-4.39 18.124,4.996 0.511,3.93 0.488,14.679 0.558,26.467 z"
             style="fill:#ffffff;fill-opacity:1;fill-rule:nonzero;stroke:none"
             id="path60" /></g><g
           id="g62"
           transform="translate(299.7896,295.4633)"><path
             d="m 0,0 v -25.819 l -7.511,-1.734 c -8.202,-1.82 -9.192,-5.898 -9.768,-22.67 v -38.372 l -14.887,-3.437 -0.204,41.716 c 0.161,9.838 -2.304,10.645 -7.879,9.308 l -9.193,-2.122 v 31.715 z"
             style="fill:#ffffff;fill-opacity:1;fill-rule:nonzero;stroke:none"
             id="path64" /></g><g
           id="g66"
           transform="translate(244.603,271.7813)"><path
             d="m 0,0 c 0,0 0.395,-32.478 -1.445,-50.038 -1.178,-11.155 -3.558,-18.677 -8.098,-25.789 -8.711,-13.624 -27.41,-18.243 -43.556,-20.296 v 22.837 c 3.582,0.559 10.772,1.789 18.109,3.757 9.62,2.584 14.38,9.043 15.043,12.319 0.245,1.25 0.27,1.925 -0.344,2.204 -0.54,0.252 -1.202,-0.095 -1.865,-0.668 -10.969,-9.334 -31.949,-5.184 -31.949,27.725 v 15.458 l 18.635,4.302 c 0,0 0.358,-18.571 1.045,-27.058 1.349,-16.172 18.134,-12.595 18.993,4.393 0.589,11.609 0.368,27.376 0.368,27.376 z"
             style="fill:#ffffff;fill-opacity:1;fill-rule:nonzero;stroke:none"
             id="path68" /></g><g
           id="g70"
           transform="translate(184.8611,274.9539)"><path
             d="m 0,0 v -84.605 l -13.261,-3.062 c 0,10.124 -0.116,17.234 -0.791,21.718 -1.489,9.844 -18.612,7.253 -19.194,-4.074 -0.209,-4.3 -0.209,-9.755 -0.209,-22.306 l -16.635,-3.839 v 84.604 l 13.052,3.013 c -0.334,-12.149 0.009,-23.122 0.698,-26.989 1.539,-9.927 16.937,-4.39 18.123,4.996 0.512,3.93 0.489,14.679 0.559,26.467 z"
             style="fill:#ffffff;fill-opacity:1;fill-rule:nonzero;stroke:none"
             id="path72" /></g><g
           id="g74"
           transform="translate(77.3716,240.3878)"><path
             d="m 0,0 v -6.792 c 0,-7.03 3.288,-10.317 9.193,-8.933 11.507,2.704 17.65,8.198 17.65,16.222 0,8.588 -8.782,13.541 -21.522,10.037 C 0.952,9.15 -0.022,4.889 0,0 m 50.312,-44.861 -24.304,-5.611 c -7.722,7.7 -18.74,18.373 -20.579,20.017 -2.617,2.336 -5.451,3.006 -5.451,-0.844 l 0.019,-25.178 -15.939,-3.68 V 40.557 C 21.414,53.903 51.956,44.84 51.956,13.627 51.934,-1.925 40.946,-15.79 26.714,-21.111 c 2.444,-2.142 23.577,-23.772 23.598,-23.75"
             style="fill:#ffffff;fill-opacity:1;fill-rule:nonzero;stroke:none"
             id="path76" /></g></g></g></g></svg>
