<?xml version="1.0" encoding="UTF-8" standalone="no"?>
<!-- Created with Inkscape (http://www.inkscape.org/) -->

<svg
   version="1.1"
   id="svg1"
   width="666.66669"
   height="503.25867"
   viewBox="0 0 666.66669 503.25867"
   sodipodi:docname="Rhythm Heaven Reanimated Logo Remake (Print).ai"
   xmlns:inkscape="http://www.inkscape.org/namespaces/inkscape"
   xmlns:sodipodi="http://sodipodi.sourceforge.net/DTD/sodipodi-0.dtd"
   xmlns="http://www.w3.org/2000/svg"
   xmlns:svg="http://www.w3.org/2000/svg">
  <defs
     id="defs1">
    <clipPath
       clipPathUnits="userSpaceOnUse"
       id="clipPath2">
      <path
         d="M 0,377.445 V 14.535 l 500,126.721 v 236.189 z"
         transform="translate(-474.24611,-220.65831)"
         id="path2" />
    </clipPath>
    <clipPath
       clipPathUnits="userSpaceOnUse"
       id="clipPath4">
      <path
         d="M 0,377.445 V 14.535 l 500,126.721 v 236.189 z"
         transform="translate(-463.27641,-220.65831)"
         id="path4" />
    </clipPath>
    <clipPath
       clipPathUnits="userSpaceOnUse"
       id="clipPath6">
      <path
         d="M 0,377.445 V 14.535 l 500,126.721 v 236.189 z"
         transform="translate(-456.81211,-220.65831)"
         id="path6" />
    </clipPath>
    <clipPath
       clipPathUnits="userSpaceOnUse"
       id="clipPath8">
      <path
         d="M 0,377.445 V 14.535 l 500,126.721 v 236.189 z"
         id="path8" />
    </clipPath>
    <clipPath
       clipPathUnits="userSpaceOnUse"
       id="clipPath10">
      <path
         d="M 0,377.444 H 500 V 0 H 0 Z"
         transform="translate(-496.87221,-169.4774)"
         id="path10" />
    </clipPath>
    <clipPath
       clipPathUnits="userSpaceOnUse"
       id="clipPath12">
      <path
         d="M 0,377.444 H 500 V 0 H 0 Z"
         transform="translate(-468.57431,-134.8319)"
         id="path12" />
    </clipPath>
    <clipPath
       clipPathUnits="userSpaceOnUse"
       id="clipPath14">
      <path
         d="M 0,377.444 H 500 V 0 H 0 Z"
         transform="translate(-149.0038,-186.52001)"
         id="path14" />
    </clipPath>
    <clipPath
       clipPathUnits="userSpaceOnUse"
       id="clipPath16">
      <path
         d="M 0,377.444 H 500 V 0 H 0 Z"
         transform="translate(-112.2471,-245.50571)"
         id="path16" />
    </clipPath>
    <clipPath
       clipPathUnits="userSpaceOnUse"
       id="clipPath18">
      <path
         d="M 0,377.444 H 500 V 0 H 0 Z"
         transform="translate(-93.728005,-149.51291)"
         id="path18" />
    </clipPath>
    <clipPath
       clipPathUnits="userSpaceOnUse"
       id="clipPath20">
      <path
         d="M 0,377.444 H 500 V 0 H 0 Z"
         transform="translate(-434.34561,-226.7415)"
         id="path20" />
    </clipPath>
  </defs>
  <sodipodi:namedview
     id="namedview1"
     pagecolor="#ffffff"
     bordercolor="#000000"
     borderopacity="0.25"
     inkscape:showpageshadow="2"
     inkscape:pageopacity="0.0"
     inkscape:pagecheckerboard="0"
     inkscape:deskcolor="#d1d1d1">
    <inkscape:page
       x="0"
       y="0"
       inkscape:label="1"
       id="page1"
       width="666.66669"
       height="503.25867"
       margin="0"
       bleed="0" />
  </sodipodi:namedview>
  <g
     id="layer-MC0"
     inkscape:groupmode="layer"
     inkscape:label="Layer 1">
    <path
       id="path1"
       d="m 0,0 c 0,38.476 -23.777,71.476 -57.351,84.975 -11.335,41.365 -48.785,71.811 -93.115,71.811 -36.056,0 -67.557,-20.142 -84.163,-49.915 -10.27,3.551 -21.286,5.485 -32.748,5.485 -18.143,0 -35.177,-4.836 -49.885,-13.285 -13.191,6.941 -28.198,10.878 -44.11,10.878 -52.404,0 -95.037,-42.634 -95.037,-95.037 0,-11.063 1.906,-21.687 5.397,-31.569 -10.721,-14.443 -17.086,-32.399 -17.086,-51.838 0,-41.186 28.562,-75.719 66.627,-84.261 17.266,-20.226 44.152,-33.252 74.301,-33.252 20.395,0 39.296,5.962 54.738,16.079 11.602,-4.9 24.469,-7.63 38.006,-7.63 22.732,0 43.573,7.701 59.706,20.452 6.827,-1.443 13.902,-2.208 21.152,-2.208 47.036,0 86.74,31.967 98.543,75.315 C -22.685,-69.936 0,-37.58 0,0"
       style="fill:#000000;fill-opacity:1;fill-rule:nonzero;stroke:none"
       transform="matrix(1.3333333,0,0,-1.3333333,632.32813,209.0476)"
       clip-path="url(#clipPath2)" />
    <path
       id="path3"
       d="m 0,0 c 0,35.822 -23.409,66.242 -55.661,76.664 -8.153,39.444 -42.644,69.152 -83.836,69.152 -35.329,0 -65.728,-21.853 -78.811,-52.958 -11.567,5.466 -24.481,8.529 -38.099,8.529 -18.358,0 -35.44,-5.56 -49.659,-15.081 -12.88,8.027 -28.075,12.673 -44.336,12.673 -46.356,0 -84.068,-37.712 -84.068,-84.067 0,-11.896 2.489,-23.22 6.965,-33.487 -11.593,-13.301 -18.654,-30.783 -18.654,-49.92 0,-37.242 26.7,-68.239 61.637,-74.251 15.068,-19.506 40.073,-32.293 68.322,-32.293 20.402,0 39.109,6.672 53.607,17.724 11.627,-5.907 24.964,-9.274 39.136,-9.274 22.105,0 42.172,8.19 56.886,21.449 7.642,-2.086 15.679,-3.206 23.973,-3.206 43.856,0 80.573,31.134 89.22,72.46 C -22.311,-64.792 0,-34.971 0,0"
       style="fill:#ffffff;fill-opacity:1;fill-rule:nonzero;stroke:none"
       transform="matrix(1.3333333,0,0,-1.3333333,617.70187,209.0476)"
       clip-path="url(#clipPath4)" />
    <path
       id="path5"
       d="m 0,0 c 0,34.357 -23.281,63.24 -54.849,71.606 -6.054,38.403 -38.747,67.746 -78.183,67.746 -35.161,0 -64.952,-23.329 -75.294,-55.602 -12.237,7.103 -26.451,11.172 -41.617,11.172 -18.574,0 -35.722,-6.101 -49.556,-16.408 -12.59,8.813 -27.904,14.001 -44.439,14.001 -42.859,0 -77.603,-34.744 -77.603,-77.603 0,-12.456 2.951,-24.216 8.166,-34.647 -12.264,-12.467 -19.854,-29.709 -19.854,-48.761 0,-34.986 25.6,-63.858 58.742,-68.257 13.649,-19.129 37.539,-31.821 64.751,-31.821 20.513,0 39.133,7.219 52.912,18.96 11.551,-6.652 25.198,-10.51 39.832,-10.51 21.818,0 41.456,8.556 55.187,22.209 8.098,-2.573 16.722,-3.966 25.671,-3.966 42.085,0 76.994,30.701 83.567,70.927 C -22.167,-61.828 0,-33.523 0,0"
       style="fill:#000000;fill-opacity:1;fill-rule:nonzero;stroke:none"
       transform="matrix(1.3333333,0,0,-1.3333333,609.0828,209.0476)"
       clip-path="url(#clipPath6)" />
    <path
       id="path7"
       d="M 85.455,75.428 H 66.077 v 19.378 h 19.378 z"
       style="fill:#000000;fill-opacity:1;fill-rule:nonzero;stroke:none"
       transform="matrix(1.3333333,0,0,-1.3333333,0,503.25867)"
       clip-path="url(#clipPath8)" />
    <path
       id="path9"
       d="m 0,0 c -2.069,4.047 -4.688,7.1 -7.791,9.075 -2.935,1.865 -6.093,3.032 -9.394,3.469 -3.036,0.398 -5.635,0.416 -7.947,0.055 -0.007,-10e-4 -0.015,-0.002 -0.021,-0.003 -2.167,-0.343 -2.557,-0.409 -3.145,-0.555 L -49.127,6.848 c -1.581,-0.395 -3.074,-1.126 -4.419,-2.087 -1.356,0.293 -2.859,0.272 -4.43,-0.12 l -38.262,-9.54 c -1.581,-0.394 -3.075,-1.126 -4.42,-2.087 -1.356,0.294 -2.859,0.273 -4.43,-0.119 l -34.775,-8.671 c -3.481,-0.868 -6.63,-3.368 -8.556,-6.555 -1.933,0.83 -3.967,1.35 -6.081,1.51 -2.269,0.171 -4.231,0.099 -5.996,-0.218 -1.531,-0.275 -1.754,-0.318 -2.164,-0.421 l -13.856,-3.454 c -4.528,-1.129 -8.527,-3.07 -11.89,-5.771 -3.175,-2.554 -5.748,-5.453 -7.651,-8.625 -1.067,-1.782 -1.939,-3.581 -2.643,-5.378 l -1.071,3.06 c -1.099,3.143 -3.867,5.073 -7.34,5.116 l -13.856,0.173 c -3.515,0.039 -7.092,-1.823 -9.633,-4.706 -2.54,1.617 -6.116,1.698 -9.635,-0.098 l -13.856,-7.082 c -2.672,-1.366 -4.918,-3.644 -6.317,-6.301 -0.448,2.445 -1.817,4.433 -3.905,5.527 -2.573,1.349 -5.923,1.198 -9.071,-0.405 l -13.946,-7.104 c -0.012,-0.007 -0.024,-0.014 -0.036,-0.021 -0.013,0 -0.025,0.002 -0.037,0.002 l -13.947,0.15 c -3.149,0.033 -6.497,-1.486 -9.071,-4.118 -0.172,-0.176 -0.339,-0.355 -0.501,-0.537 -2.57,1.613 -6.143,1.628 -9.573,-0.118 l -13.946,-7.105 c -0.704,-0.358 -1.37,-0.783 -2.002,-1.253 -2.056,0.943 -4.233,1.53 -6.504,1.701 -2.272,0.172 -4.235,0.1 -6,-0.218 -1.528,-0.275 -1.75,-0.317 -2.159,-0.419 l -13.856,-3.455 c -4.529,-1.129 -8.528,-3.07 -11.891,-5.772 -0.85,-0.684 -1.653,-1.393 -2.415,-2.125 -1.932,2.172 -5.049,3.071 -8.49,2.213 l -36.312,-9.053 c -1.923,2.803 -4.295,4.911 -7.077,6.259 -2.708,1.309 -5.6,2.07 -8.611,2.262 -2.721,0.169 -5.03,0.071 -7.059,-0.3 -2.006,-0.366 -2.196,-0.405 -2.6,-0.505 l -36.949,-9.213 c -5.802,-1.447 -10.506,-7.323 -10.506,-13.126 v -59.999 c 0,-4.821 3.281,-8.205 7.959,-8.208 l 18.534,-0.011 c 3.138,-0.001 6.463,1.531 9.013,4.158 1.137,1.172 2.064,2.503 2.742,3.904 0.677,-1.063 1.604,-1.932 2.741,-2.537 1.866,-0.991 4.147,-1.191 6.466,-0.612 0.851,0.211 1.706,0.528 2.547,0.948 l 12.984,6.482 c 1.925,-1.698 4.731,-2.379 7.866,-1.597 l 38.262,9.54 c 3.084,0.769 5.91,2.819 7.855,5.494 l 12.297,-0.132 c 0.873,-0.009 1.761,0.101 2.643,0.321 2.302,0.574 4.568,1.895 6.428,3.797 0.171,0.176 0.339,0.356 0.501,0.539 0.162,-0.102 0.33,-0.199 0.502,-0.289 2.572,-1.348 5.923,-1.198 9.07,0.405 l 13.946,7.104 c 0.013,0.006 0.025,0.014 0.038,0.021 0.013,0 0.025,-0.002 0.038,-0.002 l 13.946,-0.149 c 3.148,-0.034 6.496,1.487 9.07,4.118 0.172,0.175 0.339,0.355 0.501,0.537 1.912,-1.2 4.379,-1.516 6.928,-0.881 0.878,0.219 1.766,0.551 2.644,0.998 l 13.947,7.104 c 0.012,0.006 0.025,0.014 0.037,0.021 0.013,0 0.025,-0.002 0.038,-0.002 l 13.946,-0.149 c 0.873,-0.009 1.76,0.101 2.643,0.321 2.302,0.574 4.567,1.895 6.427,3.797 0.251,0.256 0.483,0.527 0.713,0.798 l 9.525,-0.102 c 0.887,-0.01 1.776,0.101 2.651,0.32 2.578,0.643 5.034,2.211 6.922,4.335 1.869,-1.172 4.309,-1.532 6.928,-0.879 l 13.946,3.477 c 2.619,0.653 5.059,2.23 6.927,4.334 2.532,-1.585 6.077,-1.663 9.573,0.118 l 13.946,7.103 c 0.013,0.007 0.025,0.015 0.038,0.021 0.013,0 0.025,-0.002 0.038,-0.002 l 13.946,-0.149 c 0.873,-0.009 1.761,0.101 2.644,0.321 2.301,0.574 4.567,1.895 6.427,3.797 0.172,0.176 0.339,0.355 0.501,0.539 0.162,-0.103 0.329,-0.199 0.501,-0.289 2.574,-1.348 5.926,-1.197 9.071,0.405 l 13.947,7.104 c 3.219,1.639 5.759,4.55 7.01,7.78 1.249,-2.601 3.782,-4.245 6.995,-4.284 l 13.857,-0.172 c 0.877,-0.011 1.771,0.1 2.659,0.321 2.299,0.573 4.562,1.893 6.42,3.791 1.439,1.469 2.529,3.195 3.226,4.997 1.603,-3.353 5.326,-5.055 9.664,-3.973 l 38.262,9.539 c 1.571,0.392 3.074,1.12 4.43,2.09 1.345,-0.29 2.838,-0.277 4.419,0.117 l 20.829,5.193 c 0.511,0.128 0.893,0.241 3.151,1.016 2.317,0.79 4.923,2.106 7.966,4.025 3.291,2.075 6.451,4.817 9.394,8.156 3.101,3.52 5.721,7.879 7.788,12.958 2.104,5.171 3.127,10.89 3.127,17.485 C 3.128,-9.335 2.106,-4.125 0,0"
       style="fill:#000000;fill-opacity:1;fill-rule:nonzero;stroke:none"
       transform="matrix(1.3333333,0,0,-1.3333333,662.49627,277.2888)"
       clip-path="url(#clipPath10)" />
    <path
       id="path11"
       d="m 0,0 c 1.431,0.604 2.594,1.358 3.487,2.265 0.894,0.904 1.699,2.174 2.414,3.81 0.715,1.635 1.072,3.817 1.072,6.545 0,2.728 -0.357,4.731 -1.072,6.012 -0.715,1.277 -1.52,2.146 -2.414,2.606 C 2.594,21.697 1.431,21.872 0,21.763 L -6.884,20.047 V -1.716 Z m 2.191,36.541 c 1.341,0.209 3.069,0.175 5.185,-0.103 2.114,-0.28 4.171,-1.053 6.168,-2.322 1.996,-1.27 3.724,-3.336 5.185,-6.194 1.46,-2.861 2.191,-6.802 2.191,-11.824 0,-5.022 -0.731,-9.33 -2.191,-12.917 C 17.268,-0.408 15.54,-3.334 13.544,-5.599 11.547,-7.864 9.49,-9.663 7.376,-10.997 5.26,-12.33 3.532,-13.227 2.191,-13.685 0.85,-14.144 0.119,-14.387 0,-14.416 L -20.829,-19.61 V 30.987 L 0,36.18 c 0.119,0.03 0.85,0.149 2.191,0.361 m -70.131,-17.3 38.261,9.539 3.487,-13.547 -27.803,-6.932 V 4.674 l 10.371,2.586 3.486,-13.641 -13.857,-3.455 v -3.626 l 27.803,6.932 -3.487,-15.286 -38.261,-9.54 z M -87.25,0.01 v -36.18 l -13.856,0.172 v 32.553 l -13.946,-3.477 3.486,15.286 34.776,8.67 3.487,-13.547 z m -47.112,-11.747 -13.856,-3.454 v -3.627 l 13.856,3.455 z m 1.431,14.68 c 0.894,0.161 2.056,0.187 3.487,0.08 1.43,-0.109 2.815,-0.508 4.156,-1.197 1.341,-0.688 2.488,-1.829 3.442,-3.419 0.953,-1.593 1.431,-3.815 1.431,-6.666 v -32.554 l -13.947,-7.104 v 18.044 l -13.856,-3.455 v -18.043 l -13.946,0.149 v 32.554 c 0,0.061 0.029,0.566 0.089,1.51 0.059,0.945 0.313,2.201 0.761,3.77 0.446,1.568 1.161,3.173 2.145,4.814 0.983,1.64 2.369,3.179 4.157,4.616 1.788,1.438 4.052,2.499 6.794,3.183 l 13.856,3.455 c 0.059,0.014 0.537,0.102 1.431,0.263 m -55.515,-39.046 -6.884,-27.015 -13.946,-3.477 -6.973,23.56 -6.883,-27.015 -13.946,0.15 13.946,46.82 13.856,7.081 6.973,-21.792 6.973,25.27 13.856,-0.172 13.946,-39.866 -13.946,-7.104 z m -53.995,11.836 v -50.597 l -13.946,0.15 v 43.343 z m -61.058,-62.193 v 43.342 l 13.946,7.104 13.856,-18.216 v 21.671 l 13.947,-0.15 v -43.342 l -13.947,-7.104 -13.856,18.216 V -86.61 Z m -19.309,27.738 -13.856,-3.454 v -3.627 l 13.856,3.455 z m 1.431,14.68 c 0.893,0.161 2.055,0.187 3.486,0.08 1.43,-0.109 2.816,-0.508 4.157,-1.197 1.341,-0.688 2.488,-1.829 3.442,-3.419 0.953,-1.593 1.43,-3.815 1.43,-6.666 v -32.554 l -13.946,-7.104 v 18.044 l -13.856,-3.455 v -18.043 l -13.946,0.149 v 32.554 c 0,0.061 0.029,0.566 0.089,1.51 0.059,0.945 0.313,2.201 0.76,3.77 0.447,1.568 1.162,3.173 2.145,4.814 0.984,1.64 2.37,3.179 4.157,4.617 1.788,1.437 4.053,2.498 6.795,3.182 l 13.856,3.455 c 0.059,0.015 0.536,0.102 1.431,0.263 m -76.345,-18.941 38.262,9.54 3.487,-13.548 -27.803,-6.932 v -3.626 l 10.37,2.585 3.486,-13.64 -13.856,-3.455 v -3.627 l 27.803,6.932 -3.487,-15.286 -38.262,-9.54 z m -23.397,-10.214 -18.415,-4.591 v -4.633 l 18.415,4.591 z m 18.535,-0.012 c -0.318,-3.803 -1.031,-6.991 -2.139,-9.563 0.633,-1.03 1.147,-2.288 1.544,-3.773 0.396,-1.487 0.595,-3.22 0.595,-5.198 v -18.416 l -18.535,-9.254 v 23.048 l -18.415,-4.591 v -23.049 l -18.534,0.012 v 59.999 l 36.949,9.213 c 0.078,0.019 0.713,0.137 1.901,0.355 1.188,0.217 2.733,0.265 4.634,0.146 1.901,-0.121 3.742,-0.612 5.524,-1.475 1.782,-0.862 3.307,-2.305 4.574,-4.324 1.267,-2.022 1.902,-4.855 1.902,-8.497 z"
       style="fill:#ffffff;fill-opacity:1;fill-rule:nonzero;stroke:none"
       transform="matrix(1.3333333,0,0,-1.3333333,624.76573,323.4828)"
       clip-path="url(#clipPath12)" />
    <path
       id="path13"
       d="m 0,0 c 0,-11.747 0.059,-20.539 -1.55,-26.3 -0.978,-3.499 -3.129,-6.163 -6.003,-8.179 -2.926,-2.054 -5.86,-2.954 -8.734,-3.011 -3.503,-0.069 -6.064,1.838 -6.439,5.731 -0.537,5.592 -0.502,12.66 -0.502,22.453 l -12.717,-2.936 v -86.621 l 17.468,4.033 c 0,11.024 0.226,19.15 1.585,24.218 0.926,3.453 3.444,6.368 5.987,8.085 2.972,2.007 5.706,3.011 8.585,3.058 3.499,0.056 6.156,-1.75 6.486,-5.239 0.484,-5.112 0.515,-12.064 0.515,-21.551 l 12.943,2.988 v 87.34 z m 40.412,-49.143 c -0.337,-0.002 -2.834,0.083 -3.101,1.988 -0.154,1.103 0.375,2.139 1.707,2.954 2.083,1.274 9.295,3.347 16.216,4.97 v 9.571 c 0,0 -12.532,-3.016 -16.387,-2.443 -1.17,0.174 -1.95,0.793 -2.105,1.875 -0.158,1.105 0.399,2.101 1.707,2.953 3.525,2.296 19.345,5.709 19.345,5.709 V 2.237 L 25.22,-5.283 v -58.869 l 33.257,7.678 v 10.512 c -8.876,-2.017 -14.876,-3.163 -18.065,-3.181 m 49.623,16.491 c -0.193,1.644 -0.49,2.854 -0.608,3.437 -1.217,6.031 -3.44,8.256 -5.985,7.901 -1.985,-0.277 -3.674,-1.816 -4.533,-5.508 -0.388,-1.67 -1.41,-6.614 -1.609,-8.946 -0.212,-2.492 0.804,-3.56 2.551,-3.156 l 6.966,1.608 c 2.473,0.571 3.453,2.667 3.218,4.664 m 18.74,-18.292 -14.054,-3.245 -1.394,6.39 c -0.394,1.805 -1.749,2.716 -2.902,2.585 -2.729,-0.311 -8.049,-1.599 -10.725,-2.386 -2.783,-0.819 -4.609,-2.641 -5.121,-5.51 l -1.066,-5.975 -10.318,-2.382 c 0,0 4.097,31.36 7.856,46.272 3.577,14.186 6.995,16.163 10.845,17.438 2.939,0.972 8.675,2.855 13.607,-6.232 6.281,-11.57 13.272,-46.955 13.272,-46.955 m 21.711,78.915 c 0,0 -3.529,-23.249 -6.662,-33.993 -0.895,-3.07 -3.059,-7.767 -6.003,-1.051 -1.054,2.406 -4.183,13.645 -6.48,28.134 l -10.162,-2.346 c 0.889,-9.963 5.768,-36.871 12.268,-52.547 l 19.708,4.55 c 7.255,19.199 11.607,39.477 13.087,60.891 z m 36.011,-43.92 c -0.337,-10e-4 -2.834,0.084 -3.101,1.989 -0.154,1.103 0.375,2.138 1.707,2.953 2.084,1.275 9.295,3.347 16.216,4.97 v 9.571 c 0,0 -12.532,-3.015 -16.386,-2.442 -1.171,0.174 -1.951,0.793 -2.106,1.874 -0.158,1.106 0.399,2.102 1.707,2.954 3.525,2.295 19.346,5.708 19.346,5.708 V 33.71 l -32.574,-7.52 v -58.869 l 33.256,7.678 v 12.233 c -8.876,-2.016 -14.875,-3.163 -18.065,-3.181 m 70.696,78.674 v -81.142 l -14.708,-3.396 c -6.321,10.121 -10.332,16.073 -13.28,18.772 -3.885,3.557 -6.558,2.92 -6.578,-6.872 l -0.037,-19.075 -11.115,-2.566 v 75.176 l 9.09,2.098 c 6.23,-12.098 13.189,-26.011 16.913,-28.454 1.866,-1.224 4.059,-1.005 4.637,7.157 0.37,5.226 0.484,34.933 0.484,34.933 z"
       style="fill:#ffffff;fill-opacity:1;fill-rule:nonzero;stroke:none"
       transform="matrix(1.3333333,0,0,-1.3333333,198.67173,254.56533)"
       clip-path="url(#clipPath14)" />
    <path
       id="path15"
       d="m 0,0 c 0,6.96 -7.162,11.393 -17.444,8.135 -3.542,-1.122 -4.314,-4.568 -4.313,-8.538 v -5.505 c 0,-5.698 2.664,-8.363 7.451,-7.241 C -4.979,-10.958 0,-6.504 0,0 M -0.105,-17.515 C 1.876,-19.25 19.05,-36.793 19.05,-36.793 l -19.699,-4.548 c -6.259,6.242 -15.218,14.92 -16.708,16.253 -2.121,1.893 -4.418,2.437 -4.418,-0.684 v -20.446 l -12.904,-2.979 V 32.47 c 30.278,10.817 55.034,3.471 55.034,-21.828 0,-12.604 -8.924,-23.844 -20.46,-28.157 M 50.983,22.914 C 50.931,13.973 50.948,5.821 50.563,2.84 49.669,-4.278 37.501,-7.486 36.905,-0.929 36.625,2.156 36.379,6.233 36.379,15.332 l -9.835,-2.271 v -59.96 l 12.535,2.894 c 0,9.52 0,13.657 0.158,16.918 0.438,8.59 13.342,10.537 14.464,3.068 0.508,-3.401 0.596,-5.032 0.596,-12.711 l 9.993,2.307 v 60.409 z m 58.47,-0.994 -10.73,-2.477 c 0,0 0.158,-11.045 -0.262,-19.18 -0.614,-11.905 -12.606,-14.464 -13.57,-3.139 -0.491,5.944 -0.719,17.79 -0.719,17.79 L 70.83,11.834 v -9.66 c 0,-23.055 14.99,-25.895 22.827,-19.321 0.473,0.404 0.946,0.649 1.332,0.474 0.438,-0.193 0.421,-0.667 0.246,-1.543 -0.474,-2.297 -3.875,-6.838 -10.748,-8.679 -5.242,-1.402 -10.379,-2.287 -12.938,-2.69 v -15.999 c 11.536,1.49 24.895,4.786 31.119,14.359 3.244,4.997 4.944,10.274 5.786,18.093 1.315,12.308 0.999,35.052 0.999,35.052 m 4.699,15.94 V 13.725 l 6.995,1.615 c 4.243,0.98 5.996,0.427 5.996,-7.083 v -31 l 11.484,2.651 V 8.327 c 0,12.624 1.185,15.809 7.433,17.252 l 5.716,1.319 v 19.648 z m 66.517,4.952 c -0.053,-8.941 -0.035,-17.093 -0.421,-20.074 -0.894,-7.118 -13.061,-10.326 -13.658,-3.769 -0.28,3.085 -0.525,7.162 -0.525,16.261 l -9.836,-2.271 v -59.96 l 12.535,2.895 c 0,9.519 0,13.656 0.158,16.917 0.439,8.591 13.342,10.537 14.464,3.068 0.509,-3.401 0.596,-5.032 0.596,-12.711 l 9.994,2.307 v 60.409 z m 76.037,36.369 V 7.293 L 244.749,4.532 c 0.017,10.66 0.07,19.364 -0.509,22.572 -0.754,4.243 -3.261,2.63 -4.576,0.333 -1.63,-2.823 -3.929,-8.594 -8.189,-20.043 l -7.73,-1.784 c -3.909,8.976 -5.873,13.342 -7.118,15.358 -1.508,2.454 -2.998,2.104 -3.506,-0.368 -0.561,-2.753 -0.737,-9.836 -0.649,-20.267 l -11.536,-2.664 v 65.445 l 13.903,3.209 c 5.628,-13.622 8.871,-21.056 11.256,-24.878 2.051,-3.261 6.451,-7.854 10.694,3.84 2.49,6.872 5.347,15.025 10.397,31.698 z"
       style="fill:#ffffff;fill-opacity:1;fill-rule:nonzero;stroke:none"
       transform="matrix(1.3333333,0,0,-1.3333333,149.6628,175.91773)"
       clip-path="url(#clipPath16)" />
    <path
       id="path17"
       d="m 0,0 -14.975,1.261 -5.289,14.468 -5.51,-14.441 -15.087,-1.079 10.681,-10.781 -3.715,-14.56 13.844,7.795 12.623,-7.593 -2.786,14.281 z"
       style="fill:#ffffff;fill-opacity:1;fill-rule:nonzero;stroke:none"
       transform="matrix(1.3333333,0,0,-1.3333333,124.97067,303.90813)"
       clip-path="url(#clipPath18)" />
    <path
       id="path19"
       d="m 0,0 -10.407,0.876 -3.675,10.054 -3.829,-10.035 -10.484,-0.749 7.422,-7.493 -2.581,-10.117 9.62,5.416 8.772,-5.277 -1.936,9.925 z"
       style="fill:#ffffff;fill-opacity:1;fill-rule:nonzero;stroke:none"
       transform="matrix(1.3333333,0,0,-1.3333333,579.12747,200.93667)"
       clip-path="url(#clipPath20)" />
  </g>
</svg>
