<?xml version="1.0" encoding="UTF-8" standalone="no"?>
<!-- Created with Inkscape (http://www.inkscape.org/) -->

<svg
   version="1.1"
   id="svg2"
   width="666.66669"
   height="378.34668"
   viewBox="0 0 666.66669 378.34668"
   sodipodi:docname="Rhythm Tengoku Giga Mix (リズム天国 GIGA MIX) Logo Remake.ai"
   xmlns:inkscape="http://www.inkscape.org/namespaces/inkscape"
   xmlns:sodipodi="http://sodipodi.sourceforge.net/DTD/sodipodi-0.dtd"
   xmlns="http://www.w3.org/2000/svg"
   xmlns:svg="http://www.w3.org/2000/svg">
  <defs
     id="defs6">
    <clipPath
       clipPathUnits="userSpaceOnUse"
       id="clipPath16">
      <path
         d="M 0,283.76 H 500 V 0 H 0 Z"
         id="path14" />
    </clipPath>
    <linearGradient
       x1="0"
       y1="0"
       x2="1"
       y2="0"
       gradientUnits="userSpaceOnUse"
       gradientTransform="matrix(298.37433,0,0,-298.37433,120.8744,81.198563)"
       spreadMethod="pad"
       id="linearGradient72">
      <stop
         style="stop-opacity:1;stop-color:#fd1e18"
         offset="0"
         id="stop42" />
      <stop
         style="stop-opacity:1;stop-color:#fd1e18"
         offset="0.05430427"
         id="stop44" />
      <stop
         style="stop-opacity:1;stop-color:#fc6510"
         offset="0.111869"
         id="stop46" />
      <stop
         style="stop-opacity:1;stop-color:#fc6510"
         offset="0.15421307"
         id="stop48" />
      <stop
         style="stop-opacity:1;stop-color:#f8fd00"
         offset="0.223739"
         id="stop50" />
      <stop
         style="stop-opacity:1;stop-color:#f8fd00"
         offset="0.27047763"
         id="stop52" />
      <stop
         style="stop-opacity:1;stop-color:#2be606"
         offset="0.338576"
         id="stop54" />
      <stop
         style="stop-opacity:1;stop-color:#2be606"
         offset="0.39008185"
         id="stop56" />
      <stop
         style="stop-opacity:1;stop-color:#01cd70"
         offset="0.462315"
         id="stop58" />
      <stop
         style="stop-opacity:1;stop-color:#01cd70"
         offset="0.48837642"
         id="stop60" />
      <stop
         style="stop-opacity:1;stop-color:#03b3f4"
         offset="0.591988"
         id="stop62" />
      <stop
         style="stop-opacity:1;stop-color:#011efe"
         offset="0.727596"
         id="stop64" />
      <stop
         style="stop-opacity:1;stop-color:#011efe"
         offset="0.76459293"
         id="stop66" />
      <stop
         style="stop-opacity:1;stop-color:#b001fc"
         offset="0.868249"
         id="stop68" />
      <stop
         style="stop-opacity:1;stop-color:#fd1e18"
         offset="1"
         id="stop70" />
    </linearGradient>
    <linearGradient
       x1="0"
       y1="0"
       x2="1"
       y2="0"
       gradientUnits="userSpaceOnUse"
       gradientTransform="matrix(428.87576,0,0,-428.87576,35.637825,165.08493)"
       spreadMethod="pad"
       id="linearGradient118">
      <stop
         style="stop-opacity:1;stop-color:#fd1e18"
         offset="0"
         id="stop88" />
      <stop
         style="stop-opacity:1;stop-color:#fd1e18"
         offset="0.05430427"
         id="stop90" />
      <stop
         style="stop-opacity:1;stop-color:#fc6510"
         offset="0.111869"
         id="stop92" />
      <stop
         style="stop-opacity:1;stop-color:#fc6510"
         offset="0.15421307"
         id="stop94" />
      <stop
         style="stop-opacity:1;stop-color:#f8fd00"
         offset="0.223739"
         id="stop96" />
      <stop
         style="stop-opacity:1;stop-color:#f8fd00"
         offset="0.27047763"
         id="stop98" />
      <stop
         style="stop-opacity:1;stop-color:#2be606"
         offset="0.338576"
         id="stop100" />
      <stop
         style="stop-opacity:1;stop-color:#2be606"
         offset="0.39008185"
         id="stop102" />
      <stop
         style="stop-opacity:1;stop-color:#01cd70"
         offset="0.462315"
         id="stop104" />
      <stop
         style="stop-opacity:1;stop-color:#01cd70"
         offset="0.48837642"
         id="stop106" />
      <stop
         style="stop-opacity:1;stop-color:#03b3f4"
         offset="0.591988"
         id="stop108" />
      <stop
         style="stop-opacity:1;stop-color:#011efe"
         offset="0.727596"
         id="stop110" />
      <stop
         style="stop-opacity:1;stop-color:#011efe"
         offset="0.76459293"
         id="stop112" />
      <stop
         style="stop-opacity:1;stop-color:#b001fc"
         offset="0.868249"
         id="stop114" />
      <stop
         style="stop-opacity:1;stop-color:#fd1e18"
         offset="1"
         id="stop116" />
    </linearGradient>
  </defs>
  <sodipodi:namedview
     id="namedview4"
     pagecolor="#ffffff"
     bordercolor="#000000"
     borderopacity="0.25"
     inkscape:showpageshadow="2"
     inkscape:pageopacity="0.0"
     inkscape:pagecheckerboard="0"
     inkscape:deskcolor="#d1d1d1" />
  <g
     id="g8"
     inkscape:groupmode="layer"
     inkscape:label="Rhythm Tengoku Giga Mix (リズム天国 GIGA MIX) Logo Remake"
     transform="matrix(1.3333333,0,0,-1.3333333,0,378.34667)">
    <g
       id="g10">
      <g
         id="g12"
         clip-path="url(#clipPath16)">
        <g
           id="g18"
           transform="translate(405.9842,280.9423)">
          <path
             d="m 0,0 c -23.96,-6.871 -42.441,-25.435 -49.691,-48.932 -12.801,3.448 -26.363,3.385 -39.237,-0.307 -10.205,-2.926 -19.563,-7.986 -27.523,-14.83 -18.277,13.741 -42.04,18.352 -64.236,11.988 -22.617,-6.485 -40.389,-23.258 -48.437,-45.009 -11.963,2.741 -24.345,2.408 -36.363,-1.037 -8.434,-2.419 -16.391,-6.36 -23.417,-11.562 -18.262,13.363 -41.922,17.802 -63.792,11.531 -39.092,-11.21 -61.687,-52.441 -50.368,-91.914 9.102,-31.743 37.889,-53.566 70.045,-54.09 7.494,-12.946 18.798,-23.389 32.412,-29.812 15.981,-7.539 34.109,-9.017 51.045,-4.16 11.139,3.194 21.189,8.903 29.53,16.714 17.851,-12.218 40.016,-15.942 61.101,-9.896 16.023,4.595 29.631,14.28 39.138,27.686 15.016,-5.405 31.317,-5.99 46.805,-1.549 18.72,5.368 34.497,17.605 44.428,34.178 12.387,-3.091 25.255,-2.872 37.707,0.699 17.667,5.066 32.698,16.535 42.324,32.295 8.258,13.522 11.971,29.245 10.722,44.945 11.505,7.939 20.641,19.188 26.103,32.286 6.497,15.579 7.495,33.154 2.81,49.491 C 79.797,-11.844 38.927,11.162 0,0"
             style="fill:#000000;fill-opacity:1;fill-rule:nonzero;stroke:none"
             id="path20" />
        </g>
        <g
           id="g22"
           transform="translate(407.5643,275.431)">
          <path
             d="m 0,0 c -23.939,-6.865 -41.945,-26.411 -47.262,-50.692 -13.36,4.85 -27.936,5.39 -41.666,1.454 -10.94,-3.137 -20.825,-8.937 -28.853,-16.887 -17.261,14.96 -40.922,20.348 -62.906,14.044 -22.526,-6.46 -39.84,-24.001 -46.264,-46.445 -12.555,3.907 -25.769,4.059 -38.535,0.399 -9.168,-2.629 -17.72,-7.207 -24.975,-13.342 -17.241,14.384 -40.684,19.49 -62.235,13.311 -36.053,-10.338 -56.885,-48.389 -46.437,-84.821 8.713,-30.387 36.946,-50.929 67.916,-49.912 6.85,-13.276 17.921,-23.992 31.476,-30.386 14.722,-6.946 31.42,-8.308 47.018,-3.835 11.791,3.382 22.257,9.821 30.532,18.745 17.039,-13.465 39.152,-17.933 60.1,-11.927 16.195,4.645 29.714,14.941 38.502,29.215 15.003,-6.488 31.678,-7.598 47.441,-3.077 18.712,5.365 34.246,18.157 43.214,35.416 12.678,-4.034 26.042,-4.233 38.921,-0.539 16.283,4.668 30.136,15.242 39.011,29.771 8.211,13.445 11.556,29.245 9.553,44.842 11.925,7.365 21.397,18.477 26.874,31.608 5.997,14.382 6.918,30.614 2.591,45.704 C 73.577,-10.952 35.889,10.291 0,0"
             style="fill:#ffffff;fill-opacity:1;fill-rule:nonzero;stroke:none"
             id="path24" />
        </g>
        <g
           id="g26"
           transform="translate(486.9627,226.7533)">
          <path
             d="m 0,0 c -9.724,33.91 -44.679,53.636 -78.074,44.06 -24.822,-7.117 -41.792,-28.421 -44.878,-52.814 -13.33,6.275 -28.847,7.935 -44.05,3.576 -12.048,-3.455 -22.261,-10.22 -29.951,-19.044 -15.704,15.735 -39.106,22.711 -61.808,16.201 -23.271,-6.673 -39.658,-25.754 -44.184,-48.132 -12.524,5.019 -26.701,6.076 -40.616,2.086 -10.22,-2.931 -19.116,-8.247 -26.275,-15.177 -15.762,15.007 -38.684,21.526 -60.935,15.146 -33.56,-9.623 -52.876,-44.939 -43.144,-78.881 8.559,-29.845 36.728,-48.685 66.221,-46.255 12.743,-27.974 44.119,-43.222 74.249,-34.582 12.829,3.678 23.552,11.152 31.33,20.872 15.553,-14.186 37.745,-20.236 59.302,-14.055 16.93,4.855 30.194,16.316 37.856,30.833 14.388,-7.346 31.416,-9.476 48.086,-4.695 19.499,5.591 34.405,19.459 42.08,36.762 12.392,-4.841 26.353,-5.815 40.056,-1.885 31.414,9.007 50.332,40.582 44.646,72.5 C -4.793,-59.614 8.403,-29.308 0,0"
             style="fill:#000000;fill-opacity:1;fill-rule:nonzero;stroke:none"
             id="path28" />
        </g>
      </g>
    </g>
    <g
       id="g30">
      <g
         id="g32">
        <g
           id="g38">
          <g
             id="g40">
            <path
               d="m 411.453,134.085 -14.478,-4.152 c -0.261,-0.076 -0.338,-0.299 -0.231,-0.674 v 0 l 1.544,-5.38 c 0.065,-0.233 0.253,-0.304 0.56,-0.214 v 0 l 2.691,0.77 -2.063,-4.968 -5.395,2.758 -0.019,0.066 3.057,0.878 c 0.197,0.056 0.26,0.21 0.188,0.463 v 0 l -1.6,5.58 c -0.023,0.077 -0.087,0.139 -0.195,0.185 v 0 c -0.107,0.046 -0.244,0.046 -0.409,-0.001 v 0 l -23.2,-6.652 c -0.261,-0.075 -0.326,-0.339 -0.197,-0.79 v 0 l 1.51,-5.265 c 0.025,-0.088 0.09,-0.156 0.193,-0.203 v 0 c 0.104,-0.048 0.219,-0.054 0.345,-0.018 v 0 l 5.366,1.539 6.672,-4.036 -3.05,-8.86 -5.51,-1.579 c -0.094,-0.027 -0.166,-0.084 -0.214,-0.17 v 0 c -0.049,-0.085 -0.059,-0.172 -0.034,-0.259 v 0 l 1.608,-5.613 c 0.033,-0.11 0.1,-0.213 0.205,-0.308 v 0 c 0.104,-0.094 0.215,-0.126 0.333,-0.092 v 0 l 14.195,4.071 c 0.095,0.027 0.106,0.166 0.033,0.42 v 0 l -1.665,5.811 c -0.051,0.176 -0.163,0.239 -0.337,0.189 v 0 l -2.631,-0.755 1.755,4.792 4.826,-2.832 0.019,-0.067 -2.464,-0.707 c -0.181,-0.052 -0.248,-0.166 -0.197,-0.341 v 0 l 1.658,-5.778 c 0.077,-0.276 0.255,-0.373 0.531,-0.294 v 0 l 24.29,6.965 c 0.11,0.031 0.135,0.157 0.072,0.377 v 0 l -1.7,5.927 c -0.037,0.131 -0.152,0.171 -0.342,0.116 v 0 l -6.777,-1.944 -6.346,3.933 4.645,9.515 4.787,1.371 c 0.19,0.055 0.248,0.208 0.175,0.462 v 0 l -1.599,5.58 c -0.045,0.152 -0.154,0.228 -0.331,0.228 v 0 c -0.078,0 -0.17,-0.014 -0.274,-0.044 m -41.54,-11.912 -23.662,-6.785 c -0.261,-0.074 -0.326,-0.337 -0.196,-0.789 v 0 l 1.547,-5.397 c 0.066,-0.232 0.253,-0.303 0.562,-0.215 v 0 l 5.367,1.539 3.655,-12.744 -5.51,-1.579 c -0.214,-0.061 -0.259,-0.306 -0.136,-0.736 v 0 l 1.529,-5.332 c 0.092,-0.319 0.307,-0.429 0.646,-0.332 v 0 l 23.686,6.791 c 0.142,0.041 0.225,0.113 0.253,0.216 v 0 c 0.026,0.103 0.009,0.259 -0.052,0.467 v 0 l -1.561,5.448 c -0.07,0.242 -0.227,0.328 -0.472,0.257 v 0 l -5.51,-1.579 -3.663,12.776 5.509,1.58 c 0.245,0.07 0.322,0.264 0.231,0.584 v 0 l -1.62,5.646 c -0.043,0.153 -0.153,0.229 -0.33,0.229 v 0 c -0.078,0 -0.169,-0.015 -0.273,-0.045 m -25.676,-7.362 -22.524,-6.459 c -0.246,-0.07 -0.444,-0.318 -0.595,-0.743 v 0 l -0.853,-5.925 -4.175,4.412 c -0.235,0.159 -0.412,0.272 -0.534,0.339 v 0 c -0.121,0.066 -0.292,0.067 -0.515,0.004 v 0 l -23.732,-6.804 c -0.355,-0.102 -0.482,-0.33 -0.381,-0.683 v 0 l 1.524,-5.315 c 0.117,-0.406 0.329,-0.566 0.637,-0.477 v 0 l 5.391,1.545 3.645,-12.71 -5.273,-1.513 c -0.22,-0.063 -0.356,-0.179 -0.405,-0.348 v 0 c -0.051,-0.17 -0.052,-0.336 -0.005,-0.502 v 0 l 1.463,-5.1 c 0.129,-0.451 0.316,-0.642 0.562,-0.572 v 0 l 17.204,4.933 c 0.434,0.125 0.612,0.325 0.533,0.6 v 0 l -1.558,5.431 c -0.116,0.408 -0.313,0.571 -0.589,0.491 v 0 l -5.238,-1.501 -3.691,12.876 0.047,0.013 14.934,-16.083 c 0.223,-0.305 0.491,-0.413 0.798,-0.325 v 0 l 2.287,0.656 c 0.3,0.086 0.502,0.292 0.604,0.62 v 0 l 4.477,22.131 0.07,0.02 3.793,-13.222 -5.321,-1.525 c -0.133,-0.039 -0.237,-0.11 -0.31,-0.214 v 0 c -0.073,-0.105 -0.09,-0.223 -0.052,-0.355 v 0 l 1.562,-5.447 c 0.109,-0.385 0.327,-0.532 0.65,-0.438 v 0 l 22.916,6.57 c 0.403,0.116 0.555,0.344 0.457,0.686 v 0 l -1.481,5.167 c -0.149,0.516 -0.384,0.729 -0.708,0.635 v 0 l -5.368,-1.539 -3.644,12.711 5.249,1.504 c 0.276,0.081 0.372,0.269 0.287,0.567 v 0 l -1.553,5.413 c -0.094,0.331 -0.245,0.496 -0.453,0.496 v 0 c -0.042,0 -0.086,-0.007 -0.132,-0.02 m -83.26,-23.874 -11.16,-3.201 c -0.34,-0.097 -0.554,-0.426 -0.641,-0.988 v 0 l -4.109,-21.222 -4.976,-1.427 c -0.324,-0.093 -0.431,-0.331 -0.319,-0.716 v 0 l 1.5,-5.233 c 0.104,-0.364 0.48,-0.453 1.127,-0.267 v 0 l 16.505,4.733 c 0.229,0.066 0.282,0.313 0.159,0.743 v 0 l -1.462,5.1 c -0.029,0.099 -0.091,0.183 -0.188,0.251 v 0 c -0.096,0.067 -0.203,0.083 -0.322,0.05 v 0 l -4.538,-1.301 0.591,3.349 7.524,2.157 2.277,-2.527 -4.111,-1.178 c -0.253,-0.073 -0.331,-0.28 -0.233,-0.621 v 0 l 1.434,-5.002 c 0.123,-0.43 0.37,-0.591 0.741,-0.484 v 0 l 23.319,6.686 c 0.45,0.129 0.623,0.375 0.518,0.738 v 0 l -1.24,4.325 c -0.108,0.375 -0.213,0.654 -0.317,0.838 v 0 c -0.104,0.185 -0.247,0.252 -0.429,0.199 v 0 l -5.356,-1.535 -15.192,16.044 c -0.242,0.352 -0.52,0.528 -0.836,0.528 v 0 c -0.086,0 -0.174,-0.013 -0.266,-0.039 m -6.273,-11.929 c 0.003,0.049 0.052,0.087 0.147,0.114 v 0 c 0.118,0.034 0.192,0.03 0.22,-0.008 v 0 l 3.039,-3.488 -4.313,-1.237 z m -28.502,1.957 -7.524,-2.158 c -0.221,-0.062 -0.348,-0.179 -0.379,-0.349 v 0 c -0.033,-0.171 -0.034,-0.37 -0.002,-0.599 v 0 l 0.177,-1.737 c -0.769,0.268 -1.408,0.463 -1.918,0.585 v 0 c -0.509,0.122 -1.172,0.182 -1.988,0.18 v 0 c -0.815,-0.001 -1.859,-0.119 -3.13,-0.353 v 0 c -1.271,-0.233 -2.894,-0.632 -4.868,-1.199 v 0 c -1.683,-0.482 -3.41,-1.108 -5.181,-1.879 v 0 c -1.771,-0.769 -3.487,-1.85 -5.148,-3.243 v 0 c -1.66,-1.395 -2.883,-3.195 -3.67,-5.403 v 0 c -0.786,-2.208 -0.759,-4.771 0.077,-7.688 v 0 c 0.807,-2.816 2.252,-4.873 4.334,-6.17 v 0 c 2.081,-1.297 4.324,-2.03 6.727,-2.198 v 0 c 2.403,-0.168 4.518,-0.104 6.343,0.193 v 0 c 1.825,0.297 3.244,0.592 4.254,0.881 v 0 c 1.857,0.531 3.381,1.029 4.574,1.49 v 0 c 1.193,0.461 2.228,1.032 3.106,1.713 v 0 c 0.877,0.679 1.488,1.497 1.829,2.453 v 0 l 2.02,-1.725 c 0.22,-0.199 0.417,-0.312 0.591,-0.34 v 0 c 0.175,-0.027 0.412,0.002 0.712,0.088 v 0 l 6.434,1.845 c 0.293,0.084 0.495,0.192 0.606,0.326 v 0 c 0.112,0.133 0.123,0.353 0.034,0.661 v 0 l -2.461,8.584 4.976,1.427 c 0.276,0.08 0.467,0.193 0.569,0.342 v 0 c 0.102,0.149 0.105,0.393 0.008,0.735 v 0 l -0.924,3.219 c -0.056,0.198 -0.165,0.36 -0.325,0.487 v 0 c -0.16,0.127 -0.351,0.159 -0.573,0.095 v 0 l -23.246,-6.666 c -0.229,-0.065 -0.383,-0.169 -0.462,-0.312 v 0 c -0.08,-0.141 -0.076,-0.36 0.009,-0.658 v 0 l 1.017,-3.548 c 0.099,-0.342 0.388,-0.443 0.87,-0.306 v 0 l 5,1.434 c 0.176,-0.877 0.119,-1.68 -0.169,-2.406 v 0 c -0.287,-0.726 -0.902,-1.224 -1.841,-1.494 v 0 c -1.366,-0.391 -2.689,-0.615 -3.968,-0.672 v 0 c -1.279,-0.057 -2.483,0.256 -3.609,0.94 v 0 c -1.129,0.682 -1.938,1.883 -2.43,3.599 v 0 c -0.291,1.011 -0.324,2.122 -0.097,3.331 v 0 c 0.226,1.208 0.806,2.324 1.739,3.348 v 0 c 0.933,1.024 2.221,1.771 3.865,2.242 v 0 c 1.666,0.478 3.07,0.699 4.208,0.662 v 0 c 1.139,-0.036 1.953,-0.179 2.443,-0.425 v 0 c 0.489,-0.246 0.879,-0.501 1.168,-0.763 v 0 c 0.272,-0.292 0.53,-0.403 0.774,-0.332 v 0 l 8.638,2.476 c 0.174,0.05 0.186,0.334 0.038,0.85 v 0 l -2.106,7.346 c -0.149,0.518 -0.307,0.848 -0.476,0.99 v 0 c -0.111,0.093 -0.241,0.14 -0.391,0.14 v 0 c -0.079,0 -0.163,-0.013 -0.254,-0.039 m -39.408,-11.3 -23.661,-6.785 c -0.261,-0.075 -0.327,-0.337 -0.197,-0.789 v 0 l 1.548,-5.398 c 0.066,-0.231 0.253,-0.302 0.562,-0.214 v 0 l 5.367,1.539 3.653,-12.743 -5.509,-1.58 c -0.213,-0.062 -0.258,-0.307 -0.135,-0.735 v 0 l 1.529,-5.333 c 0.091,-0.319 0.307,-0.429 0.647,-0.333 v 0 l 23.684,6.793 c 0.143,0.04 0.227,0.112 0.253,0.215 v 0 c 0.026,0.103 0.009,0.258 -0.05,0.467 v 0 l -1.563,5.447 c -0.069,0.242 -0.227,0.328 -0.471,0.259 v 0 l -5.51,-1.58 -3.663,12.777 5.51,1.579 c 0.244,0.07 0.321,0.265 0.229,0.584 v 0 l -1.619,5.646 c -0.044,0.152 -0.153,0.228 -0.33,0.228 v 0 c -0.078,0 -0.17,-0.015 -0.274,-0.044 m -31.718,-9.095 -7.524,-2.157 c -0.221,-0.064 -0.348,-0.181 -0.38,-0.351 v 0 c -0.033,-0.17 -0.033,-0.369 -0.002,-0.599 v 0 l 0.177,-1.735 c -0.769,0.267 -1.408,0.462 -1.918,0.584 v 0 c -0.509,0.122 -1.172,0.183 -1.987,0.181 v 0 c -0.816,-0.003 -1.859,-0.12 -3.131,-0.353 v 0 c -1.27,-0.234 -2.894,-0.633 -4.868,-1.2 v 0 c -1.682,-0.483 -3.409,-1.108 -5.18,-1.878 v 0 c -1.772,-0.77 -3.487,-1.852 -5.148,-3.245 v 0 c -1.66,-1.393 -2.883,-3.193 -3.669,-5.403 v 0 c -0.787,-2.208 -0.761,-4.77 0.076,-7.686 v 0 c 0.807,-2.818 2.251,-4.874 4.333,-6.171 v 0 c 2.082,-1.297 4.324,-2.03 6.728,-2.198 v 0 c 2.403,-0.168 4.518,-0.104 6.343,0.194 v 0 c 1.825,0.296 3.243,0.59 4.254,0.88 v 0 c 1.857,0.532 3.381,1.028 4.574,1.49 v 0 c 1.192,0.461 2.227,1.031 3.106,1.712 v 0 c 0.877,0.681 1.487,1.498 1.829,2.454 v 0 l 2.02,-1.725 c 0.22,-0.2 0.417,-0.312 0.591,-0.34 v 0 c 0.175,-0.027 0.413,10e-4 0.712,0.089 v 0 l 6.434,1.845 c 0.292,0.083 0.494,0.192 0.605,0.325 v 0 c 0.112,0.132 0.123,0.353 0.034,0.662 v 0 l -2.46,8.583 4.976,1.428 c 0.276,0.079 0.466,0.192 0.569,0.341 v 0 c 0.102,0.148 0.105,0.394 0.007,0.734 v 0 l -0.923,3.22 c -0.057,0.198 -0.165,0.36 -0.325,0.487 v 0 c -0.161,0.126 -0.351,0.158 -0.573,0.094 v 0 L 141.11,44.167 c -0.229,-0.066 -0.383,-0.17 -0.463,-0.311 v 0 c -0.079,-0.142 -0.075,-0.362 0.009,-0.659 v 0 l 1.018,-3.549 c 0.098,-0.341 0.387,-0.442 0.87,-0.304 v 0 l 5,1.434 c 0.175,-0.879 0.118,-1.681 -0.169,-2.407 v 0 c -0.288,-0.726 -0.902,-1.223 -1.841,-1.493 v 0 c -1.368,-0.391 -2.69,-0.616 -3.969,-0.674 v 0 c -1.278,-0.056 -2.482,0.258 -3.609,0.94 v 0 c -1.127,0.683 -1.937,1.883 -2.43,3.6 v 0 c -0.29,1.012 -0.323,2.123 -0.096,3.331 v 0 c 0.226,1.208 0.806,2.324 1.739,3.348 v 0 c 0.933,1.024 2.221,1.771 3.864,2.243 v 0 c 1.667,0.477 3.07,0.698 4.208,0.661 v 0 c 1.139,-0.037 1.954,-0.178 2.444,-0.426 v 0 c 0.489,-0.245 0.878,-0.5 1.168,-0.763 v 0 c 0.271,-0.29 0.529,-0.401 0.774,-0.331 v 0 l 8.637,2.477 c 0.175,0.049 0.187,0.333 0.039,0.85 v 0 l -2.106,7.346 c -0.149,0.518 -0.307,0.847 -0.476,0.989 v 0 c -0.111,0.093 -0.242,0.14 -0.392,0.14 v 0 c -0.079,0 -0.163,-0.013 -0.253,-0.039"
               style="fill:url(#linearGradient72);stroke:none"
               id="path74" />
          </g>
        </g>
      </g>
    </g>
    <g
       id="g76">
      <g
         id="g78">
        <g
           id="g84">
          <g
             id="g86">
            <path
               d="m 437.12,256.92 c -1.019,-1.487 -1.478,-2.314 -1.298,-2.942 v 0 c 0.236,-0.822 1.316,-1.096 2.529,-1.401 v 0 c 2.259,-0.562 4.465,-1.277 6.604,-2.193 v 0 l 0.965,1.431 c -1.454,0.666 -5.036,1.668 -7.218,2.154 v 0 c -0.431,0.099 -1.1,0.255 -1.193,0.575 v 0 c -0.078,0.27 0.12,0.549 0.613,1.205 v 0 c 1.955,2.631 2.176,2.93 3.53,5.042 v 0 l -1.65,0.569 c -0.642,-1.157 -0.904,-1.552 -2.882,-4.44 m -30.043,-5.882 c -0.651,-0.187 -2.269,-0.651 -2.664,-0.751 v 0 l 0.421,-1.472 c 0.821,0.291 1.935,0.639 4.61,1.448 v 0 c -0.729,-0.66 -0.804,-0.739 -1.139,-1.146 v 0 l 1.205,-0.656 c 1.245,1.36 2.25,2.24 3.81,2.998 v 0 l -0.366,1.278 c -0.834,-0.239 -4.952,-1.434 -5.877,-1.699 m -15.228,-19.929 -1.117,-63.974 72.665,20.836 1.116,63.974 z m 15.268,-7.668 c 0.041,2.356 1.297,4.135 3.361,4.721 v 0 l 38.403,11.011 -0.759,-43.556 c -0.044,-2.524 -1.451,-4.184 -3.362,-4.721 v 0 l -38.404,-11.012 z m 5.895,26.73 c 0.692,-0.493 1.065,-0.809 1.758,-1.5 v 0 l 0.755,0.809 c -0.435,0.482 -1.061,1.037 -1.754,1.488 v 0 z m -1.388,-1.16 c 0.286,-0.214 0.853,-0.616 1.766,-1.582 v 0 l 0.755,0.809 c -0.185,0.202 -0.875,0.935 -1.788,1.561 v 0 z m -5.657,-6.066 c 0.297,-1.03 1.272,-1.823 2.295,-1.995 v 0 c 1.262,-0.217 2.403,-0.016 4.972,0.72 v 0 c 2.021,0.579 2.901,0.958 3.338,1.154 v 0 l -0.47,1.446 c -1.213,-0.545 -2.476,-0.965 -3.754,-1.33 v 0 c -1.955,-0.562 -4.467,-1.253 -4.953,0.442 v 0 c -0.078,0.274 -0.299,1.241 0.493,2.61 v 0 l -1.281,0.48 c -0.644,-1.342 -0.983,-2.328 -0.64,-3.527 m 8.37,-16.844 -0.089,-5.019 4.297,1.231 c 3.002,0.862 3.626,-0.602 3.607,-1.68 v 0 l -0.162,-9.291 -7.951,-2.281 -0.094,-5.387 7.952,2.28 -0.159,-9.074 c -0.046,-2.582 -1.232,-4.121 -3.2,-4.685 v 0 l -4.818,-1.382 -0.086,-4.985 27.287,7.825 0.088,4.985 -4.243,-1.217 c -2.478,-0.71 -3.688,0.083 -3.661,1.676 v 0 l 0.177,10.122 7.95,2.28 0.095,5.388 -7.951,-2.281 0.144,8.245 c 0.045,2.616 1.217,4.106 3.253,4.69 v 0 l 4.764,1.365 0.087,5.018 z m -67.938,-15.968 c -0.043,-1.994 -0.173,-8.351 -0.306,-11.682 v 0 h 1.604 c -0.009,0.374 -0.071,3.021 -0.062,3.093 v 0 c 0.063,0.799 0.346,2.583 1.804,3.001 v 0 c 0.966,0.277 1.206,-0.561 1.444,-1.386 v 0 l 0.124,-0.438 c 0.083,-0.284 0.342,-1.045 0.659,-1.472 v 0 c 0.503,-0.679 1.513,-1.087 2.57,-0.784 v 0 c 2.371,0.68 2.601,2.797 2.078,5.94 v 0 l -1.469,0.011 c 0.542,-2.913 0.183,-4.189 -0.849,-4.485 v 0 c -1.096,-0.314 -1.433,0.86 -1.539,1.233 v 0 l -0.159,0.555 c -0.267,0.927 -0.891,2.911 -2.967,2.316 v 0 c -0.876,-0.251 -1.276,-0.757 -1.499,-1.044 v 0 c 0.02,0.759 0.24,4.463 0.276,5.311 v 0 z m 90.414,-3.255 -0.106,-6.12 4.361,1.251 0.106,6.12 z m -120.638,-6.235 c -0.858,-0.288 -1.79,-0.609 -2.658,-0.858 v 0 l 0.462,-1.422 c 1.907,0.723 3.815,1.434 5.75,2.112 v 0 c -2.32,-2.52 -2.422,-4.677 -2.051,-5.975 v 0 c 0.336,-1.173 1.422,-2.157 2.722,-2.411 v 0 c 1.318,-0.263 2.756,-0.192 5.47,0.573 v 0 l -0.228,1.557 c -3.599,-1.154 -5.998,-1.106 -6.548,0.81 v 0 c -0.487,1.701 0.618,3.887 2.152,5.295 v 0 c 0.508,0.459 1.191,0.982 2.324,1.307 v 0 c 0.542,0.155 0.84,0.214 1.111,0.264 v 0 l -0.434,1.417 c -1.283,-0.423 -7.002,-2.308 -8.072,-2.669 m -15.074,-19.512 -0.195,-11.171 26.613,7.632 -0.175,-10.027 -26.613,-7.632 -0.195,-11.198 26.613,7.631 -0.072,-4.141 c -0.231,-13.261 -7.468,-18.501 -18.373,-21.636 v 0 l -8.527,-2.445 -0.197,-11.224 18.576,5.326 c 14.266,4.085 19.356,9.027 25.215,22.353 v 0 c 3.065,-1.28 11.352,-6.953 14.683,-10.911 v 0 l 19.211,5.509 c -5.608,6.408 -25.804,14.42 -31.234,15.583 v 0 l 0.125,7.151 27.053,7.758 0.195,11.197 -27.053,-7.757 0.175,10.027 27.054,7.758 0.195,11.171 z m -67.317,9.087 -17.95,-55.244 c -0.695,-2.139 -1.986,-3.197 -3.347,-3.588 v 0 l -2.941,-0.843 -0.196,-11.247 80.134,22.98 -6.126,9.432 -2.905,-0.832 c -1.9,-0.551 -3.972,0.049 -5.372,2.195 v 0 l -6.421,9.856 -19.26,-5.522 8.449,-13.011 -23.755,-6.812 15.118,46.526 c 0.66,2.034 1.794,3.295 3.326,3.746 v 0 l 4.833,1.386 0.136,7.78 z m -43.36,-29.965 c -2.763,-0.806 -4.286,-3.641 -3.532,-6.35 v 0 c 0.807,-2.763 3.642,-4.286 6.351,-3.532 v 0 c 2.763,0.806 4.338,3.641 3.531,6.35 v 0 c -0.62,2.273 -2.685,3.743 -4.906,3.743 v 0 c -0.479,0 -0.964,-0.068 -1.444,-0.211 M 178.31,156.78 c -2.762,-0.754 -4.286,-3.642 -3.532,-6.351 v 0 c 0.807,-2.71 3.642,-4.285 6.351,-3.532 v 0 c 2.763,0.807 4.286,3.641 3.531,6.35 v 0 c -0.671,2.253 -2.74,3.721 -4.975,3.721 v 0 c -0.455,0 -0.917,-0.061 -1.375,-0.188 m -98.867,-12.857 -0.147,-8.37 1.682,0.483 c 2.531,0.726 3.744,-0.122 3.717,-1.695 v 0 l -0.52,-29.725 C 84.043,97.049 80.949,91.535 74.509,89.68 v 0 L 40.99,80.068 40.793,68.81 87.666,82.25 c 9.489,2.689 15.659,11.183 15.855,22.391 v 0 l 0.597,34.25 c 0.042,2.368 0.877,4.031 3.254,4.713 v 0 l 2.062,0.591 0.145,8.368 z m 43.784,-16.659 -0.201,-11.497 42.909,12.304 c -1.248,-15.15 -7.045,-35.355 -31.066,-42.243 v 0 l -12.428,-3.564 -0.198,-11.351 12.703,3.643 c 16.441,4.714 24.421,9.38 34.274,21.088 v 0 c 2.468,-1.253 5.707,-4.272 7.489,-9.113 v 0 l 19.337,5.544 c -2.65,3.373 -14.027,10.525 -20.679,11.521 v 0 c 7.521,11.478 8.685,18.762 9.86,26.787 v 0 c 0.413,2.903 1.824,4.384 3.399,4.835 v 0 l 2.927,0.84 0.189,10.853 z m -86.881,4.301 -0.147,-8.369 1.608,0.46 c 2.535,0.729 3.742,-0.126 3.714,-1.698 v 0 l -0.3,-17.203 c -0.041,-2.334 -0.913,-4.071 -3.258,-4.743 v 0 l -2.18,-0.625 -0.145,-8.352 26.48,7.592 0.146,8.353 -1.603,-0.46 c -2.528,-0.725 -3.746,0.132 -3.718,1.714 v 0 l 0.3,17.204 c 0.04,2.312 0.911,4.052 3.262,4.727 v 0 l 2.175,0.623 0.145,8.37 z"
               style="fill:url(#linearGradient118);stroke:none"
               id="path120" />
          </g>
        </g>
      </g>
    </g>
  </g>
</svg>
