<?xml version="1.0" encoding="UTF-8" standalone="no"?>
<!-- Generator: Adobe Illustrator 25.0.0, SVG Export Plug-In . SVG Version: 6.00 Build 0)  -->

<svg
   version="1.1"
   id="Layer_1"
   x="0px"
   y="0px"
   viewBox="0 0 666.66699 355.98611"
   xml:space="preserve"
   sodipodi:docname="Rhythm Cheonguk Wii (리듬 천국 Ｗｉｉ) Logo.svg"
   width="666.66699"
   height="355.98611"
   inkscape:version="1.2.2 (b0a8486541, 2022-12-01)"
   xmlns:inkscape="http://www.inkscape.org/namespaces/inkscape"
   xmlns:sodipodi="http://sodipodi.sourceforge.net/DTD/sodipodi-0.dtd"
   xmlns="http://www.w3.org/2000/svg"
   xmlns:svg="http://www.w3.org/2000/svg"><defs
   id="defs178" /><sodipodi:namedview
   id="namedview176"
   pagecolor="#505050"
   bordercolor="#eeeeee"
   borderopacity="1"
   inkscape:showpageshadow="0"
   inkscape:pageopacity="0"
   inkscape:pagecheckerboard="0"
   inkscape:deskcolor="#505050"
   showgrid="false"
   inkscape:zoom="2.844"
   inkscape:cx="402.07454"
   inkscape:cy="146.97609"
   inkscape:window-width="2560"
   inkscape:window-height="1400"
   inkscape:window-x="2560"
   inkscape:window-y="0"
   inkscape:window-maximized="1"
   inkscape:current-layer="리듬_세상_00000001652036029481234410000004644106815103224492_" />
<style
   type="text/css"
   id="style2">
	.st0{fill:url(#Spectrum_1_);}
	.st1{fill:#FFFFFF;}
	.st2{fill:url(#SVGID_1_);}
	.st3{fill:url(#SVGID_2_);}
	.st4{fill:url(#SVGID_3_);}
	.st5{fill:url(#SVGID_4_);}
	.st6{fill:url(#SVGID_5_);}
	.st7{fill:#EB6100;}
	.st8{fill:#FDD000;}
</style>
<g
   id="Cloud"
   transform="scale(1.333334)">
	<linearGradient
   id="Spectrum_1_"
   gradientUnits="userSpaceOnUse"
   x1="423.92776"
   y1="202.6133"
   x2="34.435471"
   y2="60.849689">
		<stop
   offset="0"
   style="stop-color:#FF0000"
   id="stop4" />
		<stop
   offset="0.02547"
   style="stop-color:#FF0900"
   id="stop6" />
		<stop
   offset="0.06704"
   style="stop-color:#FF2100"
   id="stop8" />
		<stop
   offset="0.11955"
   style="stop-color:#FF4900"
   id="stop10" />
		<stop
   offset="0.18093"
   style="stop-color:#FF8000"
   id="stop12" />
		<stop
   offset="0.24895"
   style="stop-color:#FFC600"
   id="stop14" />
		<stop
   offset="0.3"
   style="stop-color:#FFFF00"
   id="stop16" />
		<stop
   offset="0.30991"
   style="stop-color:#F1FD00"
   id="stop18" />
		<stop
   offset="0.36189"
   style="stop-color:#ABF502"
   id="stop20" />
		<stop
   offset="0.40873"
   style="stop-color:#74EF04"
   id="stop22" />
		<stop
   offset="0.44882"
   style="stop-color:#4CEA05"
   id="stop24" />
		<stop
   offset="0.48056"
   style="stop-color:#34E706"
   id="stop26" />
		<stop
   offset="0.5"
   style="stop-color:#2BE606"
   id="stop28" />
		<stop
   offset="0.65"
   style="stop-color:#03B3F4"
   id="stop30" />
		<stop
   offset="0.68043"
   style="stop-color:#03B0F4"
   id="stop32" />
		<stop
   offset="0.70487"
   style="stop-color:#03A6F5"
   id="stop34" />
		<stop
   offset="0.72724"
   style="stop-color:#0395F6"
   id="stop36" />
		<stop
   offset="0.74837"
   style="stop-color:#027DF8"
   id="stop38" />
		<stop
   offset="0.76864"
   style="stop-color:#025EFA"
   id="stop40" />
		<stop
   offset="0.78797"
   style="stop-color:#0139FC"
   id="stop42" />
		<stop
   offset="0.8"
   style="stop-color:#011EFE"
   id="stop44" />
		<stop
   offset="0.81587"
   style="stop-color:#1B1AFE"
   id="stop46" />
		<stop
   offset="0.84709"
   style="stop-color:#4812FD"
   id="stop48" />
		<stop
   offset="0.87851"
   style="stop-color:#6E0CFD"
   id="stop50" />
		<stop
   offset="0.90965"
   style="stop-color:#8B07FC"
   id="stop52" />
		<stop
   offset="0.94046"
   style="stop-color:#9F04FC"
   id="stop54" />
		<stop
   offset="0.97077"
   style="stop-color:#AC02FC"
   id="stop56" />
		<stop
   offset="1"
   style="stop-color:#B001FC"
   id="stop58" />
	</linearGradient>
	<path
   id="Spectrum"
   class="st0"
   d="m 373.88266,0 c -32.38699,0 -61.88824,18.15904 -76.7681,45.76635 -4.16483,-0.54818 -8.36917,-0.82391 -12.59329,-0.82391 -14.08145,0 -27.79578,3.03227 -40.36769,8.85811 -15.55643,-13.24271 -35.36,-20.61597 -56.24677,-20.61597 -32.11539,0 -61.35487,17.94833 -76.25612,45.2939 C 106.41418,77.60682 101.09701,77.16812 95.72716,77.16812 42.94315,77.16811 0,119.74497 0,172.07877 c 0,52.3338 42.94315,94.91068 95.72717,94.91068 40.66566,0 75.95158,-25.04175 89.66264,-61.58618 8.92889,0.25681 17.68823,-0.82227 26.092,-3.19029 18.06192,21.06537 44.85023,33.66525 73.03947,33.66525 41.49368,0 77.15988,-25.88211 90.41165,-63.55499 47.45615,-0.56053 85.88959,-38.99478 85.88959,-86.15874 C 460.82251,38.65319 421.82114,0 373.88266,0 Z"
   style="fill:url(#Spectrum_1_)" />
	<path
   id="White"
   class="st1"
   d="m 373.88266,10.11415 c -31.10791,0 -59.19839,18.9311 -70.96365,46.92443 -6.02997,-1.31694 -12.18997,-1.982 -18.39774,-1.982 -14.85843,0 -29.2576,3.77058 -42.05997,10.96358 -14.34648,-14.52345 -33.84552,-22.72144 -54.55449,-22.72144 -30.92683,0 -58.83456,18.82904 -70.59984,46.70549 -7.01768,-1.80833 -14.24606,-2.72196 -21.57981,-2.72196 -47.20758,0 -85.61302,38.03917 -85.61302,84.79652 0,46.75735 38.40544,84.79651 85.61302,84.79651 38.96514,0 72.40571,-25.67963 82.51327,-62.16068 3.21005,0.40662 6.44151,0.61156 9.66638,0.61156 9.38818,0 18.48004,-1.65195 27.11757,-4.92044 16.02229,21.97655 42.0155,35.35918 69.49689,35.35918 39.63513,0 73.32593,-26.38501 83.00381,-63.81345 2.12195,0.17615 4.24551,0.26422 6.35757,0.26422 42.36121,0 76.82568,-34.11632 76.82568,-76.05118 1e-5,-41.93403 -34.46446,-76.05034 -76.82567,-76.05034 z" />
	<path
   id="Black"
   d="m 373.88214,18.54229 c -31.10791,0 -57.34766,20.5386 -65.64771,48.64264 -7.4744,-2.39365 -15.43903,-3.70011 -23.71356,-3.70011 -16.18353,0 -31.20001,4.95316 -43.61748,13.40754 -12.4827,-15.34345 -31.57985,-25.1654 -52.99669,-25.1654 -31.00677,0 -57.15495,20.57698 -65.38493,48.71754 -8.34748,-3.05789 -17.37257,-4.73391 -26.79471,-4.73391 -42.62769,0 -77.18436,34.19122 -77.18436,76.36827 0,42.17694 34.55667,76.36816 77.18436,76.36816 38.18217,0 69.8681,-27.43848 76.06619,-63.4696 5.16777,1.24503 10.55984,1.92058 16.11345,1.92058 10.86151,0 21.12166,-2.53667 30.23235,-7.02591 13.50848,22.43829 38.17744,37.46434 66.38182,37.46434 38.55411,0 70.50906,-28.06989 76.36261,-64.78418 4.20999,0.80107 8.55222,1.23505 12.99866,1.23505 37.77545,0 68.39847,-30.27556 68.39847,-67.62251 0,-37.34683 -30.62302,-67.6225 -68.39847,-67.6225 z" />
	<rect
   x="368.23099"
   y="142.35487"
   width="43.694729"
   height="14.33578"
   id="rect64" />
</g>
<g
   id="Wii"
   transform="scale(1.333334)">
	<path
   d="m 500,138.34518 c 0,-4.97476 -2.08572,-9.61041 -5.72379,-12.71758 -3.66934,-3.13433 -8.64246,-4.47515 -13.62381,-3.68827 -6.616,1.04861 -12.22125,5.61595 -14.94403,11.52575 -0.65848,-0.8445 -1.40091,-1.62561 -2.224,-2.32771 -3.66934,-3.13515 -8.6441,-4.47926 -13.62381,-3.68909 -4.84634,0.76794 -9.14948,3.42406 -12.17517,7.11234 -2.0643,-1.4684 -4.50229,-2.43965 -7.17734,-2.82896 -10.57837,-1.5433 -18.88995,4.01503 -21.68848,14.50369 l -0.67328,2.52606 c -2.95325,-7.10739 -9.85898,-11.37677 -17.7327,-10.92654 -7.95105,0.46423 -14.37115,5.6497 -16.35315,13.20897 l -1.05685,4.02327 c -1.82068,-4.46362 -5.22501,-7.93953 -9.64664,-9.8277 -4.5451,-1.94168 -9.70425,-1.94415 -14.15387,-0.007 -9.25156,4.02657 -13.56949,13.96869 -10.04337,23.12723 l 19.35416,50.24066 c 3.42407,8.89104 10.66232,11.93071 16.81741,11.92989 0.98276,0 1.93921,-0.0774 2.8479,-0.22141 11.39487,-1.80504 14.81894,-10.23431 16.40421,-16.4182 l 0.16132,-0.63379 0.003,0.006 c 3.65454,9.38489 11.92166,12.53568 18.47675,11.49529 8.44821,-1.33752 13.90695,-6.52711 16.22479,-15.42638 l 5.29413,-20.34682 v 14.37529 c 0,4.5591 1.91943,8.81284 5.2645,11.67061 3.37302,2.87918 7.92471,4.11546 12.48956,3.39362 7.13455,-1.13011 12.96698,-6.78557 14.63623,-13.63205 0.8873,1.80093 2.12521,3.41336 3.66605,4.72949 3.37302,2.87834 7.92471,4.11627 12.48959,3.3936 8.4762,-1.34328 15.11688,-9.07458 15.11688,-17.60098 v -35.84727 c 0,-3.28084 -0.99429,-6.40448 -2.79852,-8.96265 C 498.34723,147.08971 500,142.81622 500,138.34518 Z"
   id="path67" />
	<linearGradient
   id="SVGID_1_"
   gradientUnits="userSpaceOnUse"
   x1="430.20044"
   y1="213.79948"
   x2="417.4122"
   y2="141.2739">
		<stop
   offset="0.2"
   style="stop-color:#F8EC19"
   id="stop69" />
		<stop
   offset="0.6"
   style="stop-color:#F15A2B"
   id="stop71" />
	</linearGradient>
	<path
   class="st2"
   d="m 435.60733,152.19022 -14.31512,55.0188 c -1.1185,4.29875 -3.09668,8.22772 -9.38602,9.22386 -3.26468,0.51707 -7.33853,-1.18018 -9.30502,-6.2285 l -9.51495,-24.42662 -6.66751,26.02016 c -1.5209,5.93546 -3.84671,9.28104 -9.55811,10.18564 -2.93045,0.46414 -8.03772,-0.068 -10.48172,-6.41251 l -19.3537,-50.24159 c -1.85431,-4.81374 0.18707,-10.03966 5.54044,-12.36905 4.66748,-2.03094 10.73151,0.11104 12.7652,5.62811 l 9.03143,24.50067 7.84933,-29.90526 c 2.29593,-8.74718 14.93069,-9.42018 18.22879,-0.99394 l 9.22537,23.56964 7.29752,-27.35144 c 1.37289,-5.14563 4.896,-9.41945 12.3299,-8.33655 6.10604,0.88945 7.67113,6.90317 6.31417,12.11858 z m 23.57886,48.63279 v -35.84727 c 0,-4.42247 -3.58539,-7.43916 -8.00702,-6.73885 -4.42166,0.70032 -8.00705,4.85275 -8.00705,9.27522 v 35.84727 c 0,4.42247 3.58539,7.43999 8.00705,6.73967 4.42163,-0.70031 8.00702,-4.85357 8.00702,-9.27604 z m 1.59442,-56.96847 c 0,5.30304 -4.29898,10.2829 -9.60202,11.12282 -5.30304,0.83992 -9.60199,-2.77815 -9.60199,-8.08119 0,-5.30304 4.29895,-10.2829 9.60199,-11.12282 5.30304,-0.83992 9.60202,2.77815 9.60202,8.08119 z m 29.19723,51.45933 V 159.4666 c 0,-4.42247 -3.58539,-7.43916 -8.00705,-6.73885 -4.42163,0.70032 -8.00702,4.85275 -8.00702,9.27522 v 35.84727 c 0,4.42247 3.58539,7.43999 8.00702,6.73967 4.42167,-0.70032 8.00705,-4.85357 8.00705,-9.27604 z m 1.59443,-56.96847 c 0,5.30304 -4.29898,10.2829 -9.60202,11.12282 -5.30304,0.8399 -9.60199,-2.77817 -9.60199,-8.08121 0,-5.30304 4.29895,-10.28288 9.60199,-11.1228 5.30304,-0.83992 9.60202,2.77815 9.60202,8.08119 z"
   id="path74"
   style="fill:url(#SVGID_1_)" />
	<g
   id="g166">
		<circle
   class="st1"
   cx="350.55145"
   cy="161.68794"
   r="1.8964"
   id="circle76" />
		<circle
   class="st1"
   cx="387.35925"
   cy="152.02339"
   r="1.8964"
   id="circle78" />
		<circle
   class="st1"
   cx="422.88736"
   cy="145.25395"
   r="1.8964"
   id="circle80" />
		<linearGradient
   id="SVGID_2_"
   gradientUnits="userSpaceOnUse"
   x1="352.35153"
   y1="163.95128"
   x2="373.40521"
   y2="218.79802">
			<stop
   offset="0"
   style="stop-color:#FFFFFF"
   id="stop82" />
			<stop
   offset="0.21678"
   style="stop-color:#FFFFFC"
   id="stop84" />
			<stop
   offset="0.39094"
   style="stop-color:#FFFEF2"
   id="stop86" />
			<stop
   offset="0.55028"
   style="stop-color:#FEFCE1"
   id="stop88" />
			<stop
   offset="0.70081"
   style="stop-color:#FEFAC9"
   id="stop90" />
			<stop
   offset="0.84512"
   style="stop-color:#FDF7AA"
   id="stop92" />
			<stop
   offset="0.98295"
   style="stop-color:#FCF385"
   id="stop94" />
			<stop
   offset="1"
   style="stop-color:#FCF380"
   id="stop96" />
		</linearGradient>
		<path
   class="st3"
   d="m 373.33612,218.68961 c -0.27655,0 -0.5564,-0.0609 -0.82309,-0.18932 -0.8132,-0.39261 -2.97464,-1.43629 -21.76913,-51.92142 -0.36545,-0.98195 0.13501,-2.07336 1.11612,-2.43883 0.98114,-0.3638 2.07254,0.13335 2.43964,1.1153 6.67694,17.93599 17.9895,47.17712 20.20032,50.03819 0.69305,0.53583 0.94162,1.50214 0.54489,2.32358 -0.32597,0.67742 -1.00419,1.0725 -1.70875,1.0725 z"
   id="path99"
   style="fill:url(#SVGID_2_)" />
		<linearGradient
   id="SVGID_3_"
   gradientUnits="userSpaceOnUse"
   x1="396.15436"
   y1="179.62489"
   x2="409.03"
   y2="213.16704">
			<stop
   offset="0"
   style="stop-color:#FFFFFF"
   id="stop101" />
			<stop
   offset="0.21678"
   style="stop-color:#FFFFFC"
   id="stop103" />
			<stop
   offset="0.39094"
   style="stop-color:#FFFEF2"
   id="stop105" />
			<stop
   offset="0.55028"
   style="stop-color:#FEFCE1"
   id="stop107" />
			<stop
   offset="0.70081"
   style="stop-color:#FEFAC9"
   id="stop109" />
			<stop
   offset="0.84512"
   style="stop-color:#FDF7AA"
   id="stop111" />
			<stop
   offset="0.98295"
   style="stop-color:#FCF385"
   id="stop113" />
			<stop
   offset="1"
   style="stop-color:#FCF380"
   id="stop115" />
		</linearGradient>
		<path
   class="st4"
   d="m 408.87885,213.09012 c -0.27655,0 -0.5564,-0.0609 -0.82309,-0.18932 -0.73914,-0.35722 -2.99277,-1.44452 -13.31763,-30.7581 -0.34732,-0.9877 0.1712,-2.07007 1.15894,-2.41824 0.991,-0.34651 2.07254,0.1712 2.41989,1.15892 4.50558,12.79413 10.04498,26.93073 11.62039,28.73494 0.77371,0.51773 1.06671,1.53754 0.65024,2.39931 -0.32593,0.67741 -1.00419,1.07249 -1.70874,1.07249 z"
   id="path118"
   style="fill:url(#SVGID_3_)" />
		<path
   class="st1"
   d="m 378.87552,185.93797 c -0.16296,0 -0.32758,-0.0214 -0.49219,-0.0658 -1.01242,-0.2708 -1.61163,-1.31036 -1.34164,-2.32195 l 7.43414,-27.74394 c 0.27164,-1.01239 1.31366,-1.61078 2.32278,-1.34081 1.01239,0.2708 1.6116,1.31036 1.34161,2.32193 l -7.43414,27.74394 c -0.22717,0.8478 -0.99429,1.40667 -1.83056,1.40667 z"
   id="path120" />
		<path
   class="st1"
   d="m 414.07419,180.1286 c -0.16296,0 -0.32758,-0.0214 -0.49219,-0.0658 -1.01242,-0.2708 -1.61163,-1.31036 -1.34164,-2.32195 l 7.71567,-28.79173 c 0.27161,-1.01241 1.31528,-1.61162 2.32275,-1.34082 1.01239,0.2708 1.6116,1.31036 1.34164,2.32195 l -7.71567,28.79173 c -0.22717,0.84778 -0.99429,1.40666 -1.83056,1.40666 z"
   id="path122" />
		<path
   class="st1"
   d="m 451.68948,137.96327 c -2.18448,0 -4.13315,1.42139 -5.45206,2.74028 -2.03943,2.03941 -2.12582,5.67438 -2.00626,6.9044 0.12653,1.30136 0.95917,1.91481 2.00616,1.91481 1.04697,0 1.88486,-0.54115 1.88486,-2.25032 0,-0.83548 -0.0566,-2.90068 1.16983,-4.18306 0.5531,-0.57863 1.40979,-1.3333 2.39746,-1.3333 1.04697,0 1.89639,-0.84944 1.89639,-1.89641 0,-1.04697 -0.84941,-1.8964 -1.89638,-1.8964 z"
   id="path124" />
		<linearGradient
   id="SVGID_4_"
   gradientUnits="userSpaceOnUse"
   x1="447.76196"
   y1="167.70157"
   x2="447.76196"
   y2="207.6322">
			<stop
   offset="0"
   style="stop-color:#FFFFFF"
   id="stop126" />
			<stop
   offset="0.21678"
   style="stop-color:#FFFFFC"
   id="stop128" />
			<stop
   offset="0.39094"
   style="stop-color:#FFFEF2"
   id="stop130" />
			<stop
   offset="0.55028"
   style="stop-color:#FEFCE1"
   id="stop132" />
			<stop
   offset="0.70081"
   style="stop-color:#FEFAC9"
   id="stop134" />
			<stop
   offset="0.84512"
   style="stop-color:#FDF7AA"
   id="stop136" />
			<stop
   offset="0.98295"
   style="stop-color:#FCF385"
   id="stop138" />
			<stop
   offset="1"
   style="stop-color:#FCF380"
   id="stop140" />
		</linearGradient>
		<path
   class="st5"
   d="m 449.35684,204.08385 c -0.0659,-0.0667 -0.36215,-0.41319 -0.36215,-1.37456 v -33.11131 c 0,-1.04698 -0.84946,-1.89641 -1.89642,-1.89641 -1.04696,0 -1.89639,0.84943 -1.89639,1.89641 v 33.11131 c 0,3.522 2.17789,4.63153 2.42648,4.74677 0.25845,0.11935 0.52841,0.17615 0.7951,0.17615 0.71606,0 1.40253,-0.40826 1.72189,-1.10048 0.41977,-0.90375 0.0659,-1.96802 -0.78851,-2.44788 z"
   id="path143"
   style="fill:url(#SVGID_4_)" />
		<path
   class="st1"
   d="m 482.47812,132.45413 c -2.18448,0 -4.13315,1.42137 -5.45203,2.74028 -2.03943,2.03941 -2.12585,5.67438 -2.00626,6.9044 0.12653,1.30136 0.95917,1.91481 2.00613,1.91481 1.04696,0 1.88489,-0.54115 1.88489,-2.25034 0,-0.83546 -0.0566,-2.90067 1.1698,-4.18304 0.55313,-0.57864 1.40982,-1.33331 2.39746,-1.33331 1.047,0 1.89642,-0.84943 1.89642,-1.89639 1e-5,-1.04698 -0.84941,-1.89641 -1.89641,-1.89641 z"
   id="path145" />
		<linearGradient
   id="SVGID_5_"
   gradientUnits="userSpaceOnUse"
   x1="478.55362"
   y1="162.19243"
   x2="478.55362"
   y2="202.12305">
			<stop
   offset="0"
   style="stop-color:#FFFFFF"
   id="stop147" />
			<stop
   offset="0.21678"
   style="stop-color:#FFFFFC"
   id="stop149" />
			<stop
   offset="0.39094"
   style="stop-color:#FFFEF2"
   id="stop151" />
			<stop
   offset="0.55028"
   style="stop-color:#FEFCE1"
   id="stop153" />
			<stop
   offset="0.70081"
   style="stop-color:#FEFAC9"
   id="stop155" />
			<stop
   offset="0.84512"
   style="stop-color:#FDF7AA"
   id="stop157" />
			<stop
   offset="0.98295"
   style="stop-color:#FCF385"
   id="stop159" />
			<stop
   offset="1"
   style="stop-color:#FCF380"
   id="stop161" />
		</linearGradient>
		<path
   class="st6"
   d="m 480.1485,198.57471 c -0.0659,-0.0667 -0.36218,-0.41319 -0.36218,-1.37456 v -33.11133 c 0,-1.04697 -0.84943,-1.89639 -1.89639,-1.89639 -1.04696,0 -1.89639,0.84943 -1.89639,1.89639 v 33.11133 c 0,3.522 2.17789,4.63153 2.42645,4.74677 0.25845,0.11934 0.52844,0.17613 0.7951,0.17613 0.71609,0 1.40256,-0.40825 1.72192,-1.10046 0.41977,-0.90377 0.0659,-1.96802 -0.78851,-2.44788 z"
   id="path164"
   style="fill:url(#SVGID_5_)" />
	</g>
</g>
<g
   id="리듬_세상_00000001652036029481234410000004644106815103224492_"
   transform="scale(1.333334)"
   inkscape:label="리듬_천국_00000001652036029481234410000004644106815103224492_">
	
	<path
   d="m 405.14367,98.596602 -20.52902,3.990988 V 91.03562 l 31.32503,-6.087985 v -9.724977 l -9.84301,1.912996 c 1.117,-4.798989 2.084,-11.664972 1.81,-20.614951 -0.065,-2.110995 1.664,-2.733993 2.42801,-2.881993 l 2.803,-0.544999 v -6.466984 l -70.56407,13.715967 v 9.944976 l 48.12505,-9.354978 c 0.253,10.299976 -0.192,14.856965 -1.14001,19.417954 l -61.00706,11.857971 v 9.724973 l 39.24604,-7.628978 v 11.550968 l -24.74102,4.80899 v 9.93398 l 50.39405,-9.79498 v 20.03795 l 17.05902,-3.31699 v -24.60494 c 0,-2.963991 -2.40201,-4.898987 -5.36601,-4.322988"
   style="fill:#eb6100;fill-opacity:1;fill-rule:nonzero;stroke:none"
   id="path242"
   inkscape:label="국_00000129187380489129286340000008393760994727768716_" /><path
   d="m 336.23766,140.79695 v 29.07995 l -23.67199,4.60132 v 12.83864 l 23.67199,-4.60132 v 12.95864 c 0,7.11198 -6.20933,11.88931 -16.78133,13.9533 l -7.80133,1.516 v 12.07731 l 16.392,-3.18666 c 13.83067,-2.68133 20.82,-7.41598 26.168,-21.48929 4.23066,1.91466 9.45733,11.13331 10.888,14.28664 l 22.52,-4.37733 c -6.00267,-8.66265 -18.44533,-19.75863 -28.85734,-20.96396 v -9.15464 l 24.05601,-4.67599 v -12.83731 l -24.05601,4.67599 v -29.07995 z m -8.19066,84.99317 v 9.30798 l 1.12133,-0.21866 c 5.92,-1.15067 6.15334,-0.36267 6.15334,2.23999 v 9.95732 c 0,6.49065 5.11466,10.75731 11.42666,9.53065 L 420.771,242.21942 v -12.89731 l -63.44534,12.33198 V 220.09813 Z M 420.771,117.277 v 96.76914 l -22.86134,4.42799 v -30.59994 l -19.36,3.76266 v -12.81064 l 19.36,-3.76266 V 133.8143 c 0,-3.10666 -2.17466,-2.68533 -4.55066,-2.22666 l -2.38534,0.46266 v -9.00265 z"
   style="display:inline;fill:#fdd000;fill-opacity:1;fill-rule:nonzero;stroke:none;stroke-width:1.33333"
   id="path246"
   transform="scale(0.74999963)"
   inkscape:label="천_00000151518686254035028310000006543246078542146693_" />
	<path
   id="듬_00000135689757128352503860000016487042145683423879_"
   class="st7"
   d="m 217.56038,124.93012 -64.5412,12.54554 v 6.26178 l 0.80022,-0.15555 c 4.22394,-0.82106 4.38995,-0.12952 4.38995,1.93335 v 13.10442 c 0,4.21916 3.2807,7.00175 7.32767,6.2151 l 46.32407,-9.00449 c 4.04698,-0.78665 7.32767,-4.84464 7.32767,-9.06381 v -20.4552 c -1e-5,-0.93758 -0.72907,-1.55594 -1.62838,-1.38114 z m -16.03856,24.23583 -27.23311,5.29358 v -11.89185 l 27.23311,-5.29358 z m 17.66689,-38.14053 5e-5,9.12041 -80.84459,15.7146 v -9.12042 z M 171.11348,97.42227 v 9.35992 l 48.07527,-9.34489 v 9.12035 l -55.71559,10.83002 c -4.49661,0.87405 -8.14183,-2.21771 -8.14185,-6.90565 l -3e-5,-10.86594 c 0,-1.88003 -0.16573,-2.44961 -4.383,-1.62985 l -0.799,0.15531 2e-5,-5.76458 69.03944,-13.41991 v 9.12035 z" />
	<path
   id="리_00000013903391440715053090000008889231044700341165_"
   class="st8"
   d="m 102.87318,133.1185 v 6.27643 l 1.79008,-0.34796 c 1.78206,-0.34639 3.4137,-0.66356 3.4137,1.67807 v 37.06882 c -2.63275,1.50417 -6.00442,2.74628 -10.1608,3.5542 l -24.62044,4.78574 v -11.34547 l 22.83088,-4.43787 c 1.13602,-0.22083 2.05695,-1.34285 2.05695,-2.50612 v -22.46286 c 0,-1.16327 -0.92093,-1.92728 -2.05695,-1.70645 l -42.82339,8.32402 v 9.70094 l 29.20719,-5.67731 v 7.62799 l -30.56469,5.94118 v 6.38177 l 0.72164,-0.14026 c 1.45732,-0.28328 3.61829,-0.70334 3.61825,1.46629 V 192.401 c 0,3.72246 2.94696,6.16728 6.58222,5.46066 l 32.14817,-6.24893 c 6.03054,-1.17223 10.40767,-2.64742 13.06096,-4.00407 V 223.15 l 16.55762,-3.21848 v -91.043 z" />
</g>
<path
   id="_x2122_"
   d="m 642.12324,304.73135 v -12.0701 l -4.49056,0.87287 v -2.59371 l 11.87778,-2.3088 v 2.59371 l -4.32874,0.84143 v 12.0701 z m 20.15496,-3.91772 v -12.25658 l -2.72668,12.78659 -2.9533,0.57406 -2.66195,-11.73914 v 12.25658 l -2.79146,0.5426 v -14.67229 l 4.36112,-0.84772 2.6296,11.12667 0.0323,-0.006 2.5649,-12.13638 4.30449,-0.8367 v 14.67228 z"
   style="stroke-width:1.33333" />
</svg>
