<?xml version="1.0" encoding="UTF-8" standalone="no"?>
<!-- Created with Inkscape (http://www.inkscape.org/) -->

<svg
   version="1.1"
   id="svg2"
   width="666.66669"
   height="244.61067"
   viewBox="0 0 666.66669 244.61067"
   sodipodi:docname="Rhythmix (リズミクス) Logo.ai"
   xmlns:inkscape="http://www.inkscape.org/namespaces/inkscape"
   xmlns:sodipodi="http://sodipodi.sourceforge.net/DTD/sodipodi-0.dtd"
   xmlns="http://www.w3.org/2000/svg"
   xmlns:svg="http://www.w3.org/2000/svg">
  <defs
     id="defs6">
    <clipPath
       clipPathUnits="userSpaceOnUse"
       id="clipPath16">
      <path
         d="M 0,183.458 H 500 V 0 H 0 Z"
         id="path14" />
    </clipPath>
  </defs>
  <sodipodi:namedview
     id="namedview4"
     pagecolor="#ffffff"
     bordercolor="#000000"
     borderopacity="0.25"
     inkscape:showpageshadow="2"
     inkscape:pageopacity="0.0"
     inkscape:pagecheckerboard="0"
     inkscape:deskcolor="#d1d1d1" />
  <g
     id="g8"
     inkscape:groupmode="layer"
     inkscape:label="Rhythmix (リズミクス) Logo"
     transform="matrix(1.3333333,0,0,-1.3333333,0,244.61067)">
    <g
       id="g10">
      <g
         id="g12"
         clip-path="url(#clipPath16)">
        <g
           id="g18"
           transform="translate(421.9436,183.4522)">
          <path
             d="m 0,0 h -0.001 -0.203 c -25.045,0 -47.916,-11.612 -62.525,-31.074 -7.647,2.446 -15.68,3.722 -23.763,3.743 h -0.21 c -7.673,0 -15.326,-1.138 -22.647,-3.339 -14.603,19.135 -37.312,30.608 -62.012,30.67 h -0.203 c -24.999,0 -47.857,-11.59 -62.477,-31.01 -0.291,0.092 -0.581,0.183 -0.873,0.272 -15.329,4.673 -31.365,4.549 -46.348,-0.195 -14.587,19.308 -37.361,30.876 -62.233,30.939 h -0.181 c -43.068,0 -78.162,-34.892 -78.267,-77.862 -0.113,-43.036 34.904,-78.145 78.06,-78.264 8.075,0.019 16.103,1.213 23.767,3.621 9.882,-12.982 23.719,-22.734 39.476,-27.541 17.817,-5.429 37.039,-4.32 54.13,3.125 12.4,5.403 23.125,13.88 31.174,24.484 7.597,-2.41 15.568,-3.668 23.582,-3.689 h 0.214 c 7.672,0 15.321,1.137 22.641,3.337 14.61,-19.134 37.321,-30.606 62.015,-30.67 h 0.203 c 25.046,0 47.921,11.614 62.534,31.072 7.639,-2.444 15.665,-3.72 23.75,-3.745 h 0.18 c 43.057,0 78.154,34.893 78.274,77.871 C 78.16,-35.218 43.146,-0.112 0,0"
             style="fill:#00b3f0;fill-opacity:1;fill-rule:nonzero;stroke:none"
             id="path20" />
        </g>
        <g
           id="g22"
           transform="translate(421.9192,174.0743)">
          <path
             d="M 0,0 H -0.001 -0.18 c -24.398,0 -46.455,-12.52 -58.899,-33.066 -8.599,3.74 -17.965,5.71 -27.413,5.735 h -0.186 c -9.013,0 -17.994,-1.782 -26.285,-5.19 -12.483,20.135 -34.369,32.46 -58.398,32.521 h -0.179 c -24.35,0 -46.391,-12.488 -58.854,-32.985 -2.353,1.015 -4.769,1.902 -7.229,2.654 -15.712,4.79 -32.273,3.855 -47.229,-2.565 -12.441,20.374 -34.411,32.841 -58.64,32.902 h -0.159 c -37.908,0 -68.797,-30.7 -68.89,-68.508 -0.099,-37.867 30.723,-68.757 68.708,-68.862 h 0.183 c 9.33,0 18.605,1.907 27.147,5.554 8.773,-14.392 22.298,-24.902 38.621,-29.88 6.747,-2.058 13.58,-3.043 20.309,-3.043 23.674,0 46.04,12.213 58.67,33.016 8.543,-3.683 17.838,-5.622 27.199,-5.647 h 0.189 c 9.011,0 17.988,1.781 26.278,5.187 12.491,-20.135 34.38,-32.458 58.402,-32.52 h 0.179 c 24.401,0 46.461,12.517 58.908,33.062 8.589,-3.736 17.949,-5.705 27.395,-5.736 h 0.16 c 37.899,0 68.791,30.703 68.896,68.517 C 68.795,-30.987 37.975,-0.099 0,0"
             style="fill:#ffffff;fill-opacity:1;fill-rule:nonzero;stroke:none"
             id="path24" />
        </g>
        <g
           id="g26"
           transform="translate(421.9035,168.107)">
          <path
             d="m 0,0 c -24.798,0.062 -46.279,-14.188 -56.572,-34.948 -8.887,4.831 -19.078,7.588 -29.921,7.616 -10.429,0.029 -20.275,-2.48 -28.946,-6.939 -10.378,20.292 -31.508,34.209 -55.92,34.271 -24.758,0.062 -46.206,-14.143 -56.527,-34.841 -3.588,1.927 -7.414,3.531 -11.461,4.769 -16.613,5.063 -33.741,2.905 -47.979,-4.661 -10.293,20.539 -31.559,34.676 -56.164,34.738 -34.745,0.079 -62.983,-27.913 -63.068,-62.556 -0.09,-34.632 28.006,-62.782 62.756,-62.879 10.775,-0.028 20.927,2.657 29.808,7.392 7.442,-14.85 20.728,-26.75 37.868,-31.977 29.83,-9.091 61.327,5.097 74.743,32.095 8.842,-4.764 18.96,-7.481 29.712,-7.51 10.429,-0.028 20.274,2.481 28.941,6.934 10.383,-20.279 31.513,-34.202 55.925,-34.265 24.803,-0.062 46.284,14.183 56.583,34.943 8.888,-4.831 19.068,-7.583 29.899,-7.617 34.745,-0.079 62.976,27.93 63.073,62.562 C 62.835,-28.235 34.744,-0.09 0,0"
             style="fill:#130c0e;fill-opacity:1;fill-rule:nonzero;stroke:none"
             id="path28" />
        </g>
        <g
           id="g30"
           transform="translate(390.9094,123.5611)">
          <path
             d="M 0,0 H 42.343 C 36.654,-15.217 25.088,-34.291 -0.086,-34.291 h -10.397 l -3.553,-11.619 13.312,10e-4 c 17.231,-10e-4 24.022,2.444 36.977,11.582 2.007,-2.017 4.544,-6.283 5.126,-11.583 h 21.93 c -1.554,4.25 -12.202,14.981 -18.313,17.968 11.343,9.715 14.692,16.721 18.2,24.629 1.257,2.866 3.636,3.972 5.286,3.972 h 3.069 l 3.395,11.109 H 3.599 Z"
             style="fill:#f15a22;fill-opacity:1;fill-rule:nonzero;stroke:none"
             id="path32" />
        </g>
        <g
           id="g34"
           transform="translate(324.2395,99.2642)">
          <path
             d="m 0,0 2.294,7.504 h -20.99 l -2.36,-7.719 h 2.451 c 1.552,0 2.465,-1.132 2.039,-2.528 l -4.516,-14.769 c -0.815,-2.667 -2.048,-3.992 -5.662,-3.992 h -0.82 l -2.313,-7.563 h 10.884 c 5.581,0 11.35,4.069 12.885,9.088 l 2.994,9.791 h 26.326 c 1.116,0 1.772,-0.813 1.466,-1.817 l -2.365,-7.732 C 18.337,-32.745 8.56,-40.371 -11.018,-40.371 h -16.757 l -3.07,-10.041 h 26.037 c 18.305,0 38.344,8.433 45.374,31.426 L 46.371,0 Z"
             style="fill:#faa61a;fill-opacity:1;fill-rule:nonzero;stroke:none"
             id="path36" />
        </g>
        <g
           id="g38"
           transform="translate(225.3611,135.5743)">
          <path
             d="m 0,0 -3.273,-10.706 h 52.52 c 1.164,0 1.848,-0.849 1.528,-1.896 L 49.996,-15.15 H 65.012 L 69.644,0 Z m -3.657,-32.088 h 40 c 1.163,0 1.848,-0.849 1.528,-1.895 l -0.779,-2.549 h 15.016 l 4.632,15.15 H -0.384 Z m -9.418,-10.677 H 56.57 l -4.632,-15.15 H 36.921 l 0.78,2.549 c 0.319,1.047 -0.365,1.896 -1.529,1.896 h -52.52 z"
             style="fill:#f15a22;fill-opacity:1;fill-rule:nonzero;stroke:none"
             id="path40" />
        </g>
        <g
           id="g42"
           transform="translate(127.9958,89.2955)">
          <path
             d="M 0,0 H 42.078 C 37.011,-13.404 26.507,-30.206 2.952,-30.206 H -9.235 l -3.129,-10.234 12.457,10e-4 c 16.123,-10e-4 24.566,2.153 36.536,10.202 1.911,-1.777 4.061,-5.355 4.418,-10.203 H 60.01 c -1.525,3.743 -9.976,13.181 -15.745,15.812 9.797,8.445 12.745,14.743 15.895,21.71 1.129,2.524 2.791,3.498 4.336,3.498 h 2.87 l 2.992,9.785 H 3.169 Z m 60.737,13.111 c 2.714,0.013 4.83,2.186 4.85,4.837 -0.027,2.665 -2.186,4.829 -4.837,4.85 -2.698,0.035 -4.829,-2.186 -4.849,-4.837 0.027,-2.665 2.185,-4.829 4.836,-4.85 m 16.73,4.837 c 0.027,-2.665 -2.137,-4.824 -4.85,-4.837 -2.651,0.021 -4.825,2.137 -4.837,4.85 0.02,2.651 2.136,4.824 4.85,4.837 2.665,0.027 4.871,-2.152 4.837,-4.85"
             style="fill:#faa61a;fill-opacity:1;fill-rule:nonzero;stroke:none"
             id="path44" />
        </g>
        <g
           id="g46"
           transform="translate(94.6286,135.6797)">
          <path
             d="m 0,0 -2.307,-7.545 h 1.649 c 2.483,0 3.361,-1.083 2.927,-2.501 l -8.193,-26.8 c -2.086,-6.822 -6.323,-11.014 -12.64,-11.023 h -32.87 l -3.104,-10.15 h 45.966 c 9.296,-0.03 17.094,6.063 20.183,16.169 l 9.441,30.879 c 0.653,2.135 1.842,3.426 4.173,3.426 h 2.021 L 29.553,0 Z m -27.467,-36.542 h -25.968 l 2.303,7.531 h 2.137 c 2.299,0 3.54,1.347 4.184,3.451 l 4.742,15.511 c 0.433,1.417 -0.437,2.504 -2.924,2.504 h -1.576 L -42.263,0 h 25.968 l -2.307,-7.545 h -2.132 c -2.306,0 -3.548,-1.352 -4.185,-3.436 l -4.742,-15.512 c -0.436,-1.425 0.445,-2.518 2.924,-2.518 h 1.572 z"
             style="fill:#f15a22;fill-opacity:1;fill-rule:nonzero;stroke:none"
             id="path48" />
        </g>
      </g>
    </g>
  </g>
</svg>
