<?xml version="1.0" encoding="UTF-8" standalone="no"?>
<!-- Created with Inkscape (http://www.inkscape.org/) -->

<svg
   version="1.1"
   id="svg2"
   width="666.66669"
   height="427.30267"
   viewBox="0 0 666.66669 427.30267"
   sodipodi:docname="Rhythm Remix (リズムリミックス) Logo Remake.ai"
   xmlns:inkscape="http://www.inkscape.org/namespaces/inkscape"
   xmlns:sodipodi="http://sodipodi.sourceforge.net/DTD/sodipodi-0.dtd"
   xmlns="http://www.w3.org/2000/svg"
   xmlns:svg="http://www.w3.org/2000/svg">
  <defs
     id="defs6">
    <clipPath
       clipPathUnits="userSpaceOnUse"
       id="clipPath16">
      <path
         d="M 0,320.477 H 500 V 0 H 0 Z"
         id="path14" />
    </clipPath>
  </defs>
  <sodipodi:namedview
     id="namedview4"
     pagecolor="#ffffff"
     bordercolor="#000000"
     borderopacity="0.25"
     inkscape:showpageshadow="2"
     inkscape:pageopacity="0.0"
     inkscape:pagecheckerboard="0"
     inkscape:deskcolor="#d1d1d1" />
  <g
     id="g8"
     inkscape:groupmode="layer"
     inkscape:label="Rhythm Remix (リズムリミックス) Logo Remake"
     transform="matrix(1.3333333,0,0,-1.3333333,0,427.30267)">
    <g
       id="g10">
      <g
         id="g12"
         clip-path="url(#clipPath16)">
        <g
           id="g18"
           transform="translate(499.9519,184.0563)">
          <path
             d="m 0,0 c -1.405,40.267 -33.612,72.333 -73.144,74.307 -11.233,37.266 -46.41,63.47 -86.825,62.059 -29.567,-1.033 -56.055,-16.855 -71.211,-41.138 -10.087,4.098 -21.004,6.07 -32.066,5.684 -15.999,-0.559 -31.209,-5.914 -43.984,-15.486 -5.37,-4.024 -10.152,-8.667 -14.267,-13.822 -15.049,10.05 -32.953,15.219 -51.621,14.567 -48.319,-1.687 -86.257,-42.371 -84.569,-90.69 0.39,-11.192 2.882,-22.043 7.264,-32.066 -29.82,-11.044 -50.651,-40.281 -49.482,-73.756 1.459,-41.773 36.63,-74.571 78.402,-73.112 16.108,0.563 31.298,6.138 43.709,15.754 15.112,-11.164 33.589,-16.978 52.877,-16.304 18.959,0.662 37.332,7.798 51.733,20.096 8.434,7.2 15.348,16.021 20.358,25.81 6.078,-1.562 12.397,-2.249 18.824,-2.025 13.5,0.472 26.417,5.072 37.091,12.981 12.454,-5.885 26.104,-8.698 40.169,-8.207 35.276,1.231 65.858,23.696 78.286,55.576 1.365,-0.025 2.731,-0.014 4.101,0.034 C -31.872,-78.253 1.484,-42.484 0,0"
             style="fill:#00b3f0;fill-opacity:1;fill-rule:nonzero;stroke:none"
             id="path20" />
        </g>
        <g
           id="g22"
           transform="translate(489.4578,183.6896)">
          <path
             d="m 0,0 c -1.281,36.697 -32.179,65.51 -68.876,64.228 -0.657,-0.023 -1.314,-0.055 -1.972,-0.098 -7.142,36.714 -40.04,63.443 -78.26,62.108 -29.244,-1.021 -55.064,-18.481 -67.151,-44.474 -10.891,6.302 -23.397,9.465 -36.127,9.02 -13.844,-0.484 -27.003,-5.116 -38.053,-13.395 -7.455,-5.585 -13.602,-12.551 -18.153,-20.505 -14.688,12.975 -33.679,19.857 -53.665,19.159 -42.533,-1.485 -75.928,-37.296 -74.442,-79.829 0.491,-14.074 4.757,-27.532 12.255,-39.135 -31.824,-5.308 -55.628,-33.593 -54.473,-66.687 1.257,-35.986 31.556,-64.241 67.542,-62.984 16.701,0.584 32.254,7.421 43.872,19.058 14.226,-13.232 32.985,-20.298 52.714,-19.609 30.488,1.065 56.625,20.488 66.748,48.454 7.552,-3.3 15.749,-4.866 24.166,-4.572 13.528,0.473 26.358,5.872 36.137,15.038 12.448,-7.241 26.531,-10.774 41.124,-10.264 33.648,1.174 62.441,24.307 71.282,56.145 3.67,-0.485 7.382,-0.665 11.103,-0.534 C -27.531,-67.595 1.281,-36.697 0,0"
             style="fill:#ffffff;fill-opacity:1;fill-rule:nonzero;stroke:none"
             id="path24" />
        </g>
        <g
           id="g26"
           transform="translate(481.5076,183.4123)">
          <path
             d="m 0,0 c -1.13,32.365 -28.283,57.686 -60.648,56.555 -3.081,-0.107 -6.095,-0.452 -9.031,-1.013 -3.134,36.384 -34.29,64.312 -71.202,63.023 -30.232,-1.055 -55.241,-21.395 -63.628,-48.783 -10.777,8.784 -24.662,13.852 -39.649,13.329 -25.227,-0.881 -46.235,-17.343 -54.103,-39.815 -13.223,15.971 -33.444,25.854 -55.768,25.075 -38.21,-1.335 -68.104,-33.392 -66.77,-71.602 0.64,-18.33 8.354,-34.743 20.421,-46.716 -2.405,0.221 -4.851,0.294 -7.328,0.207 -31.652,-1.106 -56.416,-27.66 -55.31,-59.314 1.105,-31.652 27.661,-56.416 59.313,-55.31 18.036,0.63 33.831,9.525 43.883,22.915 12.572,-14.965 31.655,-24.201 52.703,-23.466 30.913,1.079 56.094,23.317 62.123,52.31 8.152,-5.641 18.123,-8.801 28.792,-8.428 14.22,0.496 26.761,7.171 35.155,17.346 11.86,-8.395 26.463,-13.12 42.106,-12.573 33.304,1.163 60.25,25.816 65.473,57.48 5.386,-1.408 11.064,-2.073 16.912,-1.868 C -24.19,-59.519 1.13,-32.365 0,0"
             style="fill:#130c0e;fill-opacity:1;fill-rule:nonzero;stroke:none"
             id="path28" />
        </g>
        <g
           id="g30"
           transform="translate(439.5506,172.4689)">
          <path
             d="m 0,0 c 7.156,11.349 8.17,18.489 9.182,26.354 0.354,2.846 1.708,4.317 3.24,4.786 l 2.848,0.87 V 42.623 L -51.376,22.248 V 11.005 l 41.737,12.76 C -10.6,8.934 -15.923,-10.917 -39.288,-18.061 l -12.088,-3.696 v -11.1 l 12.356,3.778 c 15.993,4.889 23.714,9.586 33.146,21.2 2.435,-1.183 5.652,-4.079 7.477,-8.781 l 18.809,5.75 C 17.765,-7.659 6.52,-0.86 0,0"
             style="fill:#f15a22;fill-opacity:1;fill-rule:nonzero;stroke:none"
             id="path32" />
        </g>
        <g
           id="g34"
           transform="translate(331.4783,150.3)">
          <path
             d="M 0,0 V 7.229 L -20.218,1.048 v -7.436 l 2.362,0.722 c 1.495,0.457 2.707,-0.263 2.707,-1.607 v -14.225 c 0,-2.569 -0.796,-4.089 -4.278,-5.153 l -0.791,-0.243 v -7.285 l 10.484,3.205 C -4.358,-29.33 0,-24.078 0,-19.243 v 9.431 l 25.357,7.752 c 1.076,0.33 1.947,-0.188 1.947,-1.155 v -7.447 c 0,-12.529 -7.171,-22.067 -26.028,-27.832 l -16.14,-4.935 v -9.672 l 25.079,7.668 c 17.63,5.39 34.449,18.655 34.449,40.801 v 18.287 z"
             style="fill:#faa61a;fill-opacity:1;fill-rule:nonzero;stroke:none"
             id="path36" />
        </g>
        <g
           id="g38"
           transform="translate(240.5706,123.5412)">
          <path
             d="m 0,0 c 0,0 3.34,-8.439 3.479,-20.354 l 8.902,2.722 c 0.454,9.569 -5.47,19.745 -5.47,19.745 z m 10.74,3.283 c 0,0 5.329,-7.832 5.468,-19.745 l 8.901,2.722 C 24.443,-1.988 17.651,5.396 17.651,5.396 Z M 31.518,9.636 V -9.427 c 0,-9.785 -5.122,-17.088 -18.59,-21.206 L 1.399,-34.157 v -7.554 l 17.913,5.477 c 12.593,3.85 24.605,13.866 24.605,31.163 v 18.498 z"
             style="fill:#f15a22;fill-opacity:1;fill-rule:nonzero;stroke:none"
             id="path40" />
        </g>
        <g
           id="g42"
           transform="translate(139.9349,99.4289)">
          <path
             d="M 0,0 V -10.954 L 53.734,5.475 C 54.925,5.838 55.89,5.266 55.89,4.194 V 1.587 l 15.364,4.697 v 15.5 z m 0,-54.707 53.734,16.429 c 1.191,0.363 2.156,-0.209 2.156,-1.281 v -2.607 l 15.364,4.697 v 15.5 L 0,-43.754 Z m 49.376,32.426 v 2.607 c 0,1.071 -0.965,1.645 -2.156,1.28 L 6.295,-30.905 v 10.953 L 64.74,-2.084 v -15.5 z"
             style="fill:#faa61a;fill-opacity:1;fill-rule:nonzero;stroke:none"
             id="path44" />
        </g>
        <g
           id="g46"
           transform="translate(70.6404,75.9337)">
          <path
             d="m 0,0 -1.543,-0.472 c -2.433,-0.744 -3.625,0.065 -3.625,1.595 v 16.646 c 0,2.237 0.813,3.936 3.075,4.627 L 0,23.036 v 8.098 l -25.485,-7.792 v -8.097 l 1.548,0.473 c 2.44,0.746 3.621,-0.059 3.621,-1.58 V -2.508 c 0,-2.258 -0.815,-3.952 -3.071,-4.642 l -2.098,-0.641 v -8.082 L 0,-8.081 Z m 44.997,44.891 v -8.098 l -1.984,-0.606 c -2.288,-0.7 -3.068,-2.323 -3.068,-4.614 V -1.565 c 0,-10.845 -5.824,-19.165 -14.957,-21.925 l -45.111,-13.792 v 10.893 l 32.26,9.863 c 6.196,1.903 9.097,7.289 9.097,14.61 v 28.761 c 0,1.521 -1.187,2.32 -3.623,1.576 l -1.618,-0.495 v 8.097 z"
             style="fill:#f15a22;fill-opacity:1;fill-rule:nonzero;stroke:none"
             id="path48" />
        </g>
        <g
           id="g50"
           transform="translate(373.6678,230.3288)">
          <path
             d="m 0,0 -2.826,-0.864 c -1.849,-0.571 -3.885,-0.021 -5.289,2.055 l -6.447,9.525 -18.734,-5.728 8.482,-12.574 -23.108,-7.065 13.985,45.743 c 0.612,1.999 1.699,3.252 3.189,3.719 l 4.701,1.438 v 7.608 l -23.076,-7.055 -16.606,-54.315 c -0.643,-2.104 -1.887,-3.159 -3.21,-3.564 l -2.862,-0.875 V -32.95 L 6.15,-9.118 Z"
             style="fill:#f15a22;fill-opacity:1;fill-rule:nonzero;stroke:none"
             id="path52" />
        </g>
        <g
           id="g54"
           transform="translate(250.4158,188.6598)">
          <path
             d="m 0,0 c 7.156,11.348 8.17,18.489 9.182,26.354 0.354,2.846 1.708,4.317 3.24,4.786 l 2.848,0.87 V 42.623 L -51.375,22.248 V 11.005 l 41.737,12.76 C -10.6,8.934 -15.923,-10.917 -39.288,-18.061 l -12.087,-3.695 v -11.101 l 12.355,3.778 c 15.993,4.889 23.714,9.586 33.146,21.2 2.435,-1.183 5.652,-4.079 7.477,-8.781 l 18.809,5.75 C 17.765,-7.659 6.52,-0.86 0,0 m 4.894,42.429 c 2.687,0.835 4.127,3.633 3.344,6.268 -0.836,2.636 -3.633,4.128 -6.268,3.344 -2.688,-0.783 -4.128,-3.632 -3.344,-6.268 0.835,-2.636 3.632,-4.127 6.268,-3.344 m 5.514,6.946 c -0.783,2.636 0.657,5.433 3.344,6.269 2.636,0.835 5.485,-0.657 6.268,-3.344 0.836,-2.636 -0.656,-5.433 -3.343,-6.269 -2.636,-0.783 -5.433,0.657 -6.269,3.344"
             style="fill:#faa61a;fill-opacity:1;fill-rule:nonzero;stroke:none"
             id="path56" />
        </g>
        <g
           id="g58"
           transform="translate(118.5848,183.526)">
          <path
             d="m 0,0 -1.543,-0.472 c -2.433,-0.744 -3.625,0.065 -3.625,1.595 v 16.646 c 0,2.236 0.813,3.936 3.075,4.627 L 0,23.036 v 8.097 l -25.485,-7.791 v -8.097 l 1.548,0.473 c 2.44,0.746 3.621,-0.059 3.621,-1.58 V -2.508 c 0,-2.258 -0.815,-3.952 -3.071,-4.642 l -2.098,-0.642 v -8.081 L 0,-8.081 Z m 44.997,44.89 v -8.097 l -1.984,-0.606 c -2.288,-0.7 -3.068,-2.323 -3.068,-4.614 V -1.565 c 0,-10.845 -5.824,-19.165 -14.957,-21.925 l -45.111,-13.793 v 10.894 l 32.26,9.863 c 6.196,1.903 9.097,7.288 9.097,14.609 v 28.761 c 0,1.522 -1.187,2.322 -3.623,1.576 l -1.618,-0.494 v 8.097 z"
             style="fill:#f15a22;fill-opacity:1;fill-rule:nonzero;stroke:none"
             id="path60" />
        </g>
      </g>
    </g>
  </g>
</svg>
