<?xml version="1.0" encoding="UTF-8" standalone="no"?>
<!-- Created with Inkscape (http://www.inkscape.org/) -->

<svg
   version="1.1"
   id="svg2"
   width="666.66669"
   height="425.63599"
   viewBox="0 0 666.66669 425.63599"
   sodipodi:docname="Rhythm Jigoku The Worst- (リズム地獄 ザ・ワースト－) Logo.ai"
   xmlns:inkscape="http://www.inkscape.org/namespaces/inkscape"
   xmlns:sodipodi="http://sodipodi.sourceforge.net/DTD/sodipodi-0.dtd"
   xmlns="http://www.w3.org/2000/svg"
   xmlns:svg="http://www.w3.org/2000/svg">
  <defs
     id="defs6">
    <clipPath
       clipPathUnits="userSpaceOnUse"
       id="clipPath16">
      <path
         d="M 0,319.227 H 500 V 0 H 0 Z"
         id="path14" />
    </clipPath>
    <linearGradient
       x1="0"
       y1="0"
       x2="1"
       y2="0"
       gradientUnits="userSpaceOnUse"
       gradientTransform="matrix(116.2169,-25.764667,-25.764667,-116.2169,366.67615,165.25505)"
       spreadMethod="pad"
       id="linearGradient58">
      <stop
         style="stop-opacity:1;stop-color:#feee04"
         offset="0"
         id="stop50" />
      <stop
         style="stop-opacity:1;stop-color:#feee04"
         offset="0.35"
         id="stop52" />
      <stop
         style="stop-opacity:1;stop-color:#fdd902"
         offset="0.65"
         id="stop54" />
      <stop
         style="stop-opacity:1;stop-color:#fdd902"
         offset="1"
         id="stop56" />
    </linearGradient>
    <radialGradient
       fx="0"
       fy="0"
       cx="0"
       cy="0"
       r="1"
       gradientUnits="userSpaceOnUse"
       gradientTransform="matrix(22.07913,0,0,-22.07913,367.80591,146.20959)"
       spreadMethod="pad"
       id="radialGradient78">
      <stop
         style="stop-opacity:1;stop-color:#ffffff"
         offset="0"
         id="stop74" />
      <stop
         style="stop-opacity:1;stop-color:#feee04"
         offset="1"
         id="stop76" />
    </radialGradient>
    <radialGradient
       fx="0"
       fy="0"
       cx="0"
       cy="0"
       r="1"
       gradientUnits="userSpaceOnUse"
       gradientTransform="matrix(22.079161,0,0,-22.079161,482.15836,170.10205)"
       spreadMethod="pad"
       id="radialGradient100">
      <stop
         style="stop-opacity:1;stop-color:#fdc900"
         offset="0"
         id="stop94" />
      <stop
         style="stop-opacity:1;stop-color:#fdc900"
         offset="0.4854273"
         id="stop96" />
      <stop
         style="stop-opacity:1;stop-color:#fdd902"
         offset="1"
         id="stop98" />
    </radialGradient>
    <clipPath
       clipPathUnits="userSpaceOnUse"
       id="clipPath110">
      <path
         d="M 0,319.227 H 500 V 0 H 0 Z"
         id="path108" />
    </clipPath>
  </defs>
  <sodipodi:namedview
     id="namedview4"
     pagecolor="#ffffff"
     bordercolor="#000000"
     borderopacity="0.25"
     inkscape:showpageshadow="2"
     inkscape:pageopacity="0.0"
     inkscape:pagecheckerboard="0"
     inkscape:deskcolor="#d1d1d1" />
  <g
     id="g8"
     inkscape:groupmode="layer"
     inkscape:label="Rhythm Jigoku The Worst- (リズム地獄 ザ・ワースト－) Logo"
     transform="matrix(1.3333333,0,0,-1.3333333,0,425.636)">
    <g
       id="g10">
      <g
         id="g12"
         clip-path="url(#clipPath16)">
        <g
           id="g18"
           transform="translate(417.7555,319.2321)">
          <path
             d="m 0,0 c -27.036,-0.236 -51.471,-14.316 -65.295,-36.788 -4.914,0.922 -9.916,1.364 -14.968,1.32 -16.618,-0.145 -32.355,-5.463 -45.421,-15.181 -12.426,7.768 -26.855,11.88 -41.721,11.751 -27.014,-0.236 -51.448,-14.31 -65.278,-36.759 -4.825,0.886 -9.736,1.311 -14.696,1.267 -16.662,-0.145 -32.427,-5.485 -45.509,-15.248 -12.484,7.858 -27.003,12.02 -41.974,11.889 -42.792,-0.373 -77.302,-35.491 -76.929,-78.282 0.153,-17.483 6.028,-33.949 16.553,-47.272 -17.9,-15.696 -26.411,-40.351 -20.808,-64.619 3.975,-17.22 14.419,-31.86 29.405,-41.224 10.815,-6.758 23.058,-10.185 35.508,-10.076 4.804,0.042 9.641,0.611 14.435,1.718 15.504,3.579 29.057,12.577 38.368,25.222 3.482,0.004 7.014,0.421 10.493,1.183 13.595,-6.66 28.941,-8.443 43.885,-4.993 15.407,3.556 28.918,12.49 38.228,25.035 3.461,0.076 6.918,0.51 10.344,1.301 0.725,0.167 1.447,0.351 2.165,0.55 13.608,-6.69 28.947,-8.488 43.922,-5.033 11.423,2.638 21.901,8.271 30.369,16.211 6.212,-1.865 12.703,-2.802 19.198,-2.745 33.721,0.294 61.278,26.454 63.959,59.442 19.241,8.376 33.387,25.822 37.676,46.325 42.48,0.67 76.646,35.624 76.275,78.176 C 77.811,-34.092 42.737,0.373 0,0"
             style="fill:#0096e6;fill-opacity:1;fill-rule:nonzero;stroke:none"
             id="path20" />
        </g>
        <g
           id="g22"
           transform="translate(417.8336,310.3551)">
          <path
             d="m 0,0 c -26.079,-0.228 -49.426,-15.005 -60.87,-38.084 -6.295,1.794 -12.797,2.673 -19.394,2.616 -16.827,-0.147 -32.632,-6.283 -45.051,-17.39 -12.063,9.168 -26.817,14.092 -42.09,13.959 -26.05,-0.227 -49.389,-14.984 -60.844,-38.029 -6.21,1.743 -12.623,2.595 -19.13,2.538 -16.877,-0.147 -32.715,-6.314 -45.148,-17.478 -12.114,9.272 -26.953,14.253 -42.336,14.119 -37.897,-0.331 -68.459,-31.431 -68.128,-69.328 0.162,-18.593 7.637,-35.891 20.773,-48.627 -20.345,-12.787 -30.811,-37.285 -25.256,-61.344 6.147,-26.627 30.043,-44.632 56.306,-44.402 4.093,0.036 8.246,0.514 12.395,1.473 14.935,3.448 27.781,12.706 35.802,25.661 4.548,-0.459 9.115,-0.169 13.625,0.872 0.833,0.193 1.675,0.416 2.522,0.671 12.44,-6.959 26.822,-9.017 40.797,-5.792 14.815,3.419 27.604,12.583 35.637,25.397 4.32,-0.364 8.656,-0.049 12.935,0.939 1.695,0.392 3.372,0.891 5.013,1.491 12.511,-7.102 26.981,-9.227 41.073,-5.974 11.615,2.682 22.1,8.941 29.964,17.809 6.808,-2.765 14.163,-4.18 21.523,-4.116 30.801,0.269 55.64,25.546 55.371,56.346 -10e-4,0.141 -0.003,0.282 -0.005,0.424 21.583,6.924 37.069,26.626 38.684,49.287 2.334,-0.218 4.683,-0.317 7.029,-0.297 37.843,0.331 68.362,31.386 68.032,69.229 C 68.897,-30.188 37.843,0.33 0,0"
             style="fill:#ffffff;fill-opacity:1;fill-rule:nonzero;stroke:none"
             id="path24" />
        </g>
        <g
           id="g26"
           transform="translate(417.8825,304.6442)">
          <path
             d="m 0,0 c -26.237,-0.229 -48.574,-16.489 -57.816,-39.396 -6.987,2.595 -14.55,3.997 -22.447,3.928 -17.621,-0.154 -33.478,-7.546 -44.798,-19.318 -11.25,10.004 -26.104,16.029 -42.343,15.887 -26.208,-0.228 -48.526,-16.453 -57.787,-39.32 -6.914,2.533 -14.389,3.897 -22.187,3.829 -17.675,-0.154 -33.573,-7.591 -44.9,-19.425 -11.288,10.112 -26.236,16.209 -42.584,16.066 -34.804,-0.303 -62.771,-28.763 -62.468,-63.567 0.178,-20.391 10.034,-38.42 25.156,-49.806 -22.442,-9.675 -35.477,-34.272 -29.784,-58.93 6.407,-27.753 34.099,-45.057 61.852,-38.65 15.248,3.521 27.33,13.473 34.069,26.325 4.928,-0.999 10.14,-0.996 15.358,0.209 1.538,0.355 3.024,0.813 4.467,1.347 11.179,-6.959 25.007,-9.665 38.852,-6.469 15.116,3.49 27.12,13.302 33.893,25.991 4.726,-0.864 9.7,-0.804 14.679,0.346 2.379,0.549 4.648,1.325 6.792,2.291 11.257,-7.171 25.261,-10.014 39.294,-6.774 12.318,2.844 22.57,9.887 29.612,19.262 6.937,-3.525 14.792,-5.495 23.11,-5.423 27.695,0.242 49.952,22.889 49.71,50.585 -0.014,1.607 -0.111,3.193 -0.273,4.759 22.545,5.075 39.298,25.306 39.088,49.353 -0.006,0.745 -0.036,1.483 -0.075,2.22 4.084,-0.794 8.307,-1.195 12.629,-1.157 34.749,0.303 62.672,28.719 62.369,63.468 C 63.164,-27.621 34.749,0.303 0,0"
             style="fill:#000000;fill-opacity:1;fill-rule:nonzero;stroke:none"
             id="path28" />
        </g>
        <g
           id="g30"
           transform="translate(354.1242,168.1291)">
          <path
             d="m 0,0 -4.558,-65.189 145.878,33.679 4.558,65.189 z"
             style="fill:#000000;fill-opacity:1;fill-rule:nonzero;stroke:none"
             id="path32" />
        </g>
        <g
           id="g34"
           transform="translate(363.8122,159.3366)">
          <path
             d="m 0,0 -2.991,-42.769 124.936,28.844 2.991,42.769 z"
             style="fill:#feee04;fill-opacity:1;fill-rule:nonzero;stroke:none"
             id="path36" />
        </g>
      </g>
    </g>
    <g
       id="g38">
      <g
         id="g40">
        <g
           id="g46">
          <g
             id="g48">
            <path
               d="m 365.104,158.162 -2.782,-39.778 122.143,28.199 2.781,39.778 z"
               style="fill:url(#linearGradient58);stroke:none"
               id="path60" />
          </g>
        </g>
      </g>
    </g>
    <g
       id="g62">
      <g
         id="g64">
        <g
           id="g70">
          <g
             id="g72">
            <path
               d="m 365.104,158.162 -2.34,-33.453 c 1.681,-0.393 3.432,-0.593 5.234,-0.577 v 0 c 12.194,0.106 21.993,10.077 21.886,22.27 v 0 c -0.054,6.265 -2.713,11.898 -6.939,15.879 v 0 z"
               style="fill:url(#radialGradient78);stroke:none"
               id="path80" />
          </g>
        </g>
      </g>
    </g>
    <g
       id="g82">
      <g
         id="g84">
        <g
           id="g90">
          <g
             id="g92">
            <path
               d="m 462.793,180.716 c -1.76,-3.205 -2.747,-6.891 -2.713,-10.807 v 0 c 0.106,-12.193 10.078,-21.992 22.271,-21.885 v 0 c 0.751,0.006 1.493,0.05 2.224,0.13 v 0 l 2.671,38.207 z"
               style="fill:url(#radialGradient100);stroke:none"
               id="path102" />
          </g>
        </g>
      </g>
    </g>
    <g
       id="g104">
      <g
         id="g106"
         clip-path="url(#clipPath110)">
        <g
           id="g112"
           transform="translate(473.0456,158.861)">
          <path
             d="m 0,0 c 3.615,4.933 4.303,8.147 5.014,11.691 0.251,1.283 0.913,1.909 1.625,2.073 l 1.322,0.305 0.337,4.826 -30.95,-7.145 -0.358,-5.112 19.383,4.474 c -0.908,-6.713 -3.96,-15.57 -14.81,-18.075 l -5.615,-1.296 -0.352,-5.047 5.738,1.325 c 7.427,1.714 11.087,3.605 15.745,8.585 1.069,-0.615 2.441,-2.034 3.12,-4.23 l 8.736,2.017 C 7.834,-4.047 2.938,-0.598 0,0"
             style="fill:#e60214;fill-opacity:1;fill-rule:nonzero;stroke:none"
             id="path114" />
        </g>
        <g
           id="g116"
           transform="translate(437.8053,161.57)">
          <path
             d="m 0,0 0.437,6.235 -7.694,-1.776 -0.436,-6.235 -10.55,-2.436 -0.378,-5.404 10.55,2.435 -0.183,-2.617 c -0.362,-5.175 -3.295,-7.074 -7.618,-8.075 l -3.381,-0.78 -0.307,-4.38 7.364,1.7 c 7.476,1.727 10.81,6.154 11.539,12.14 0.136,1.119 0.279,3.789 0.279,3.789 l 10.726,2.476 0.378,5.404 z"
             style="fill:#e60214;fill-opacity:1;fill-rule:nonzero;stroke:none"
             id="path118" />
        </g>
        <g
           id="g120"
           transform="translate(418.0876,156.3503)">
          <path
             d="M 0,0 0.483,6.914 -3.218,6.059 -3.345,4.249 C -3.369,3.896 -3.558,3.532 -4.319,3.072 l -19.761,-10.47 -0.477,-6.816 3.313,0.765 0.108,1.548 c 0.028,0.387 0.268,0.781 0.99,1.185 l 4.965,2.64 -0.649,-9.281 c -0.05,-0.716 -0.458,-1.382 -1.195,-1.552 l -0.797,-0.184 -0.204,-2.918 10.453,2.413 0.203,2.918 -1.011,-0.234 c -0.494,-0.113 -0.863,0.184 -0.83,0.659 l 0.824,11.794 z"
             style="fill:#e60214;fill-opacity:1;fill-rule:nonzero;stroke:none"
             id="path122" />
        </g>
        <g
           id="g124"
           transform="translate(367.5197,151.4777)">
          <path
             d="m 0,0 -0.301,-4.308 15.938,3.679 c -0.428,-4.517 -1.545,-7.86 -4.13,-10.462 l -2.615,4.39 -7.55,-1.743 -0.192,-2.745 2.542,0.587 c 0.439,0.102 0.883,-0.037 1.328,-0.719 l 6.434,-10.686 6.845,1.58 0.192,2.745 -1.898,-0.438 c -0.401,-0.093 -0.81,-0.003 -1.319,0.705 l -1.336,2.243 c 6.432,4.486 8.243,10.281 9.202,14.776 0.233,1.089 0.945,2.182 1.55,2.321 l 0.717,0.166 0.268,3.836 z"
             style="fill:#e60214;fill-opacity:1;fill-rule:nonzero;stroke:none"
             id="path126" />
        </g>
        <g
           id="g128"
           transform="translate(352.172,109.7399)">
          <path
             d="m 0,0 1.005,14.38 c -10.859,8.359 -25.654,4.807 -25.654,4.807 l 0.694,9.934 c 0.115,1.636 1.569,3.28 3.255,3.67 l 1.302,0.3 0.467,6.673 -23.906,-5.519 -0.467,-6.673 2.313,0.533 c 1.13,0.262 1.974,-0.419 1.898,-1.504 l -2.152,-30.784 c -0.114,-1.635 -1.569,-3.279 -3.255,-3.669 l -1.302,-0.3 -0.467,-6.674 23.906,5.52 0.467,6.673 -2.312,-0.534 c -1.131,-0.261 -1.975,0.419 -1.899,1.505 l 0.881,12.598 c 0,0 10.981,3.249 25.226,-10.936"
             style="fill:#feee04;fill-opacity:1;fill-rule:nonzero;stroke:none"
             id="path130" />
        </g>
        <g
           id="g132"
           transform="translate(280.3078,102.0363)">
          <path
             d="m 0,0 c 6.136,8.372 7.304,13.829 8.509,19.844 0.427,2.177 1.551,3.24 2.759,3.519 l 2.244,0.518 0.573,8.191 -52.535,-12.129 -0.607,-8.677 32.901,7.596 C -7.698,7.467 -12.878,-7.567 -31.296,-11.819 l -9.529,-2.2 -0.599,-8.567 9.74,2.249 c 12.607,2.91 18.819,6.119 26.726,14.573 1.814,-1.044 4.142,-3.454 5.296,-7.181 l 14.827,3.424 C 13.297,-6.87 4.985,-1.016 0,0"
             style="fill:#feee04;fill-opacity:1;fill-rule:nonzero;stroke:none"
             id="path134" />
        </g>
        <g
           id="g136"
           transform="translate(202.3468,96.613)">
          <path
             d="m 0,0 -0.665,-9.507 29.732,6.864 0.665,9.507 z"
             style="fill:#feee04;fill-opacity:1;fill-rule:nonzero;stroke:none"
             id="path138" />
        </g>
        <g
           id="g140"
           transform="translate(194.6012,111.069)">
          <path
             d="m 0,0 -49.868,-11.513 -1.674,-23.934 13.587,3.136 0.395,5.65 -1.765,-0.407 c -1.612,-0.372 -2.122,0.505 -2.012,2.083 l 0.397,5.67 28.397,6.556 c -1.191,-17.03 -12.172,-25.334 -26.04,-28.535 l -13.587,-3.137 -0.672,-9.611 13.071,3.018 C -15.931,-45.521 2.234,-29.603 0,0"
             style="fill:#feee04;fill-opacity:1;fill-rule:nonzero;stroke:none"
             id="path142" />
        </g>
        <g
           id="g144"
           transform="translate(134.5861,83.9201)">
          <path
             d="m 0,0 -7.586,-0.644 -3.492,6.099 -3.277,-7.662 -7.551,-2.851 5.56,-4.091 -1.174,-7.861 6.713,5.133 6.826,-2.008 -1.412,7.264 z"
             style="fill:#feee04;fill-opacity:1;fill-rule:nonzero;stroke:none"
             id="path146" />
        </g>
        <g
           id="g148"
           transform="translate(112.299,90.3913)">
          <path
             d="M 0,0 C -0.504,2.224 -2.68,3.625 -4.903,3.122 -7.127,2.618 -8.497,0.442 -8.025,-1.782 -7.521,-4.005 -5.346,-5.375 -3.122,-4.904 -0.898,-4.4 0.504,-2.224 0,0 m -25.612,-9.895 c 0.116,1.67 0.763,2.813 2.453,3.203 l 1.467,0.338 0.412,5.904 -21.431,-4.947 -0.413,-5.904 1.196,0.276 c 1.8,0.416 2.618,-0.229 2.54,-1.339 l -0.204,-2.925 -15.677,-3.619 0.153,2.193 c 0.115,1.631 0.789,2.827 2.461,3.214 l 1.546,0.356 0.413,5.904 -18.831,-4.348 -0.413,-5.903 1.144,0.264 c 1.802,0.416 2.615,-0.232 2.538,-1.341 l -0.204,-2.923 -8.739,-2.018 -1.611,-0.372 -0.437,-6.257 10.349,2.389 -0.206,-2.955 c -0.116,-1.646 -0.791,-2.839 -2.458,-3.224 l -1.55,-0.358 -0.412,-5.892 15.012,3.466 0.807,11.547 15.677,3.62 -0.824,-11.786 c -0.373,-5.337 -2.746,-9.112 -7.325,-10.175 l -23.837,-5.504 -0.555,-7.942 33.333,7.696 c 6.746,1.534 11.383,7.296 11.936,15.202 l 1.098,15.701 8.653,1.998 0.027,0.396 0.41,5.861 -8.653,-1.998 z m 15.873,7.758 c 0.504,-2.223 -0.897,-4.431 -3.121,-4.903 -2.224,-0.472 -4.4,0.898 -4.904,3.122 -0.471,2.224 0.898,4.399 3.122,4.903 2.224,0.504 4.4,-0.898 4.903,-3.122"
             style="fill:#feee04;fill-opacity:1;fill-rule:nonzero;stroke:none"
             id="path150" />
        </g>
        <g
           id="g152"
           transform="translate(410.8405,243.3874)">
          <path
             d="M 0,0 12.979,2.997 13.214,6.352 0.234,3.355 Z m -1.712,19.074 -9.306,-6.21 c 0.277,3.955 -1.339,8.574 -4.785,10.86 l -9.279,-2.142 c 4.644,-2.678 4.846,-9.984 4.488,-15.109 l -9.305,-6.209 -0.477,-6.834 9.303,6.209 -0.593,-8.464 -9.302,-6.207 -0.478,-6.834 9.302,6.207 -0.238,-3.402 c -0.609,-8.703 -3.162,-11.173 -7.319,-12.133 l -0.514,-7.354 c 4.592,-0.111 9.089,1.664 10.948,2.837 2.636,1.685 5.339,6.932 5.996,16.34 l 1.776,25.401 9.306,6.21 z M 12.313,-2.016 0.949,-4.64 C 0.338,-4.779 -0.055,-5.271 -0.102,-5.945 l -0.871,-12.462 11.365,2.623 c 0.564,0.128 1,0.584 1.05,1.306 z m 3.47,-14.862 -21.503,-4.964 1.281,18.303 21.501,4.965 z m 30.479,53.547 -7.007,-1.618 -1.101,-15.742 7.007,1.617 z M 13.627,12.262 0.647,9.265 0.413,5.91 13.393,8.906 Z M 14.468,24.29 1.488,21.293 1.254,17.938 14.233,20.934 Z M 34.665,-2.177 c 0,0 0.952,3.679 1.215,7.448 l 0.215,3.062 9.634,2.224 -10e-4,10e-4 h 10e-4 L 46.376,19.823 36.742,17.599 38.04,36.154 25.547,33.27 24.246,14.714 14.455,12.454 13.808,3.188 v 0 l 9.789,2.26 -0.216,-3.063 c -0.944,-13.506 -4.482,-20.011 -9.589,-21.191 l -9.183,-2.12 -0.724,-10.362 12.305,2.841 c 8.235,1.901 11.952,7.855 14.89,15.266 2.181,-1.699 5.865,-6.111 7.4,-10.12 l 12.331,2.847 c -4.245,8.7 -11.486,15.01 -16.146,18.277 M 16.095,15.345 -1.462,11.292 -1.228,14.647 16.33,18.7 Z"
             style="fill:#ff5500;fill-opacity:1;fill-rule:nonzero;stroke:none"
             id="path154" />
        </g>
        <g
           id="g156"
           transform="translate(431.195,284.0045)">
          <path
             d="m 0,0 c -0.361,0.125 -0.923,0.32 -0.928,0.644 -0.005,0.272 0.24,0.537 0.836,1.156 2.376,2.486 2.644,2.769 4.359,4.779 L 2.93,7.245 C 2.08,6.138 1.752,5.764 -0.707,3.023 -1.973,1.612 -2.58,0.822 -2.57,0.187 c 0.014,-0.829 0.913,-1.168 1.924,-1.546 1.883,-0.697 3.682,-1.544 5.373,-2.584 l 1.205,1.358 C 4.792,-1.834 1.833,-0.618 0,0"
             style="fill:#ff5500;fill-opacity:1;fill-rule:nonzero;stroke:none"
             id="path158" />
        </g>
        <g
           id="g160"
           transform="translate(405.0397,275.2794)">
          <path
             d="m 0,0 c -1.882,-0.435 -4.29,-0.963 -4.318,0.747 -0.005,0.276 0.03,1.249 1.065,2.558 l -1.029,0.554 c -0.897,-1.29 -1.436,-2.247 -1.416,-3.457 0.018,-1.04 0.699,-1.886 1.573,-2.12 1.074,-0.294 2.143,-0.166 4.612,0.405 1.945,0.448 2.82,0.769 3.258,0.937 L 3.67,1.085 C 2.457,0.621 1.229,0.284 0,0 M -0.841,7.441 C -1.65,6.832 -1.737,6.759 -2.134,6.376 l 0.92,-0.725 c 1.439,1.27 2.545,2.08 4.121,2.735 L 2.886,9.675 C 2.083,9.49 -1.88,8.562 -2.771,8.356 -3.397,8.212 -4.952,7.853 -5.329,7.779 l 0.024,-1.487 c 0.802,0.238 1.881,0.513 4.464,1.149 M 0.806,6.064 C 1.011,5.834 1.42,5.4 2.004,4.386 L 2.873,5.142 C 2.756,5.352 2.315,6.122 1.649,6.801 Z M 2.323,7.128 3.192,7.87 C 3.704,7.38 4.129,6.792 4.401,6.287 L 3.534,5.532 C 3.081,6.26 2.823,6.597 2.323,7.128"
             style="fill:#ff5500;fill-opacity:1;fill-rule:nonzero;stroke:none"
             id="path162" />
        </g>
        <g
           id="g164"
           transform="translate(314.2169,192.5661)">
          <path
             d="m 0,0 0.913,13.051 5.462,1.262 0.52,7.438 -5.462,-1.261 1.263,18.059 -10.2,-2.354 -1.263,-18.059 -5.462,-1.261 -0.52,-7.439 5.462,1.261 -0.866,-12.392 c -0.104,-1.489 -0.719,-2.569 -2.239,-2.919 l -3.394,-0.784 -0.373,-5.327 21.124,4.877 0.372,5.327 -3.021,-0.698 C 0.678,-1.597 -0.07,-1.009 0,0 M 63.237,10.063 62.8,3.809 C 62.3,-3.339 58.077,-8.556 51.93,-9.954 l -31.075,-7.174 c -6.149,-1.441 -9.77,1.964 -9.27,9.113 l 1.077,15.401 -7.066,-4.207 0.465,6.645 7.065,4.208 0.679,9.703 c 0.106,1.51 -0.355,2.302 -1.896,1.946 l -1.336,-0.308 0.374,5.337 17.546,4.051 -0.373,-5.338 -1.09,-0.251 c -1.64,-0.379 -2.493,-1.33 -2.563,-2.333 l -0.442,-6.317 9.781,5.826 1.378,19.702 10.549,2.436 -0.297,-4.259 -0.761,-0.187 c -1.723,-0.441 -2.461,-1.738 -2.594,-3.645 l -0.666,-9.516 9.492,5.653 9.032,-4.602 -0.662,-9.457 c -0.413,-5.93 -2.421,-9.308 -4.41,-10.446 -1.403,-0.792 -4.806,-2.042 -8.299,-2.11 l 0.324,4.635 c 3.152,0.728 3.653,2.029 4.036,7.514 L 51.52,30.528 40.951,24.234 39.641,5.502 32.229,3.791 33.341,19.702 23.561,13.877 22.448,-2.024 c -0.337,-4.826 1.408,-7.341 5.58,-6.383 l 18.394,4.246 c 4.173,0.97 6.333,4.386 6.671,9.212 l 0.189,2.713 z"
             style="fill:#ffaa00;fill-opacity:1;fill-rule:nonzero;stroke:none"
             id="path166" />
        </g>
        <g
           id="g168"
           transform="translate(338.7384,245.9997)">
          <path
             d="m 0,0 c -0.47,-3.493 -1.962,-4.42 -3.599,-4.798 -2.179,-0.503 -2.35,0.78 -2.386,2.872 -0.015,0.813 0.008,5.201 0.003,6.172 L -7.459,3.918 c 0.025,-0.759 0.053,-4.486 0.068,-5.326 0.05,-2.867 0.123,-5.625 3.804,-4.775 1.662,0.384 4.264,1.374 4.873,6.143 z M -0.782,2.348 C -1.203,3.042 -1.53,3.42 -2.083,3.889 L -2.935,3.16 C -2.281,2.521 -1.81,1.722 -1.67,1.495 Z m 0.671,0.466 c -0.431,0.601 -0.746,1.007 -1.274,1.508 l 0.864,0.731 C -0.157,4.761 0.295,4.321 0.741,3.607 Z"
             style="fill:#ffaa00;fill-opacity:1;fill-rule:nonzero;stroke:none"
             id="path170" />
        </g>
        <g
           id="g172"
           transform="translate(287.321,193.1134)">
          <path
             d="m 0,0 -2.781,-0.642 c -1.82,-0.425 -3.744,0.242 -4.958,2.336 l -5.571,9.614 -18.439,-4.258 7.326,-12.689 -22.743,-5.251 16.559,43.139 c 0.724,1.884 1.856,3.019 3.323,3.368 l 4.627,1.069 0.513,7.331 -22.712,-5.244 -19.662,-51.22 c -0.762,-1.984 -2.031,-2.918 -3.335,-3.219 l -2.815,-0.649 -0.741,-10.599 76.721,17.713 z"
             style="fill:#ff5500;fill-opacity:1;fill-rule:nonzero;stroke:none"
             id="path174" />
        </g>
        <g
           id="g176"
           transform="translate(204.5792,205.0622)">
          <path
             d="M 0,0 C -0.571,2.63 -3.204,4.252 -5.788,3.628 -8.421,3.007 -9.99,0.42 -9.416,-2.16 -8.794,-4.794 -6.208,-6.363 -3.627,-5.788 -0.994,-5.167 0.625,-2.584 0,0 m -22.711,-48.821 c 7.626,10.405 9.077,17.186 10.575,24.662 0.53,2.706 1.928,4.026 3.428,4.372 l 2.79,0.644 0.711,10.18 -65.289,-15.073 -0.754,-10.784 40.889,9.44 c -1.917,-14.162 -8.354,-32.845 -31.244,-38.129 l -11.842,-2.734 -0.745,-10.648 12.105,2.796 c 15.667,3.616 23.388,7.604 33.213,18.111 2.256,-1.298 5.149,-4.292 6.583,-8.925 l 18.427,4.255 c -2.322,3.296 -12.651,10.571 -18.847,11.833 m 1.752,43.996 c -0.575,2.58 0.998,5.217 3.627,5.788 2.582,0.575 5.165,-1.044 5.789,-3.628 0.575,-2.581 -0.995,-5.167 -3.628,-5.788 -2.58,-0.575 -5.164,1.044 -5.788,3.628"
             style="fill:#faa61a;fill-opacity:1;fill-rule:nonzero;stroke:none"
             id="path178" />
        </g>
        <g
           id="g180"
           transform="translate(92.5621,197.279)">
          <path
             d="m 0,0 -0.55,-7.872 1.607,0.371 c 2.419,0.558 3.518,-0.3 3.415,-1.779 L 2.517,-37.242 C 2.019,-44.36 -1.167,-49.398 -7.321,-50.827 l -32.034,-7.396 -0.741,-10.59 44.796,10.341 c 9.066,2.063 15.295,9.756 16.032,20.299 l 2.253,32.218 c 0.156,2.227 1.024,3.753 3.296,4.277 l 1.97,0.455 0.55,7.872 z m -18.546,-41.792 -25.307,-5.842 0.549,7.857 2.083,0.48 c 2.241,0.518 3.148,2.11 3.301,4.305 l 1.132,16.183 c 0.103,1.479 -0.99,2.342 -3.413,1.783 l -1.537,-0.355 0.55,7.872 25.308,5.842 -0.551,-7.872 -2.078,-0.48 c -2.247,-0.518 -3.153,-2.115 -3.305,-4.29 l -1.131,-16.183 c -0.104,-1.487 1,-2.355 3.416,-1.797 l 1.532,0.354 z"
             style="fill:#ff5500;fill-opacity:1;fill-rule:nonzero;stroke:none"
             id="path182" />
        </g>
      </g>
    </g>
  </g>
</svg>
