<?xml version="1.0" encoding="UTF-8" standalone="no"?>
<!-- Created with Inkscape (http://www.inkscape.org/) -->

<svg
   version="1.1"
   id="svg1"
   width="666.66669"
   height="489.97867"
   viewBox="0 0 666.66669 489.97867"
   sodipodi:docname="Rhythm Island Logo Remake.ai"
   xmlns:inkscape="http://www.inkscape.org/namespaces/inkscape"
   xmlns:sodipodi="http://sodipodi.sourceforge.net/DTD/sodipodi-0.dtd"
   xmlns="http://www.w3.org/2000/svg"
   xmlns:svg="http://www.w3.org/2000/svg">
  <defs
     id="defs1">
    <clipPath
       clipPathUnits="userSpaceOnUse"
       id="clipPath2">
      <path
         d="M 0,367.484 H 500 V 0 H 0 Z"
         transform="translate(-484.79831,-228.08831)"
         id="path2" />
    </clipPath>
    <clipPath
       clipPathUnits="userSpaceOnUse"
       id="clipPath4">
      <path
         d="M 0,367.484 H 500 V 0 H 0 Z"
         transform="translate(-472.37261,-226.43931)"
         id="path4" />
    </clipPath>
    <clipPath
       clipPathUnits="userSpaceOnUse"
       id="clipPath6">
      <path
         d="M 0,367.484 H 500 V 0 H 0 Z"
         transform="translate(-461.21041,-224.95101)"
         id="path6" />
    </clipPath>
    <clipPath
       clipPathUnits="userSpaceOnUse"
       id="clipPath8">
      <path
         d="M 0,367.484 H 500 V 0 H 0 Z"
         transform="translate(-408.71241,-139.02191)"
         id="path8" />
    </clipPath>
    <clipPath
       clipPathUnits="userSpaceOnUse"
       id="clipPath10">
      <path
         d="M 0,367.484 H 500 V 0 H 0 Z"
         transform="translate(-362.90091,-202.31091)"
         id="path10" />
    </clipPath>
    <clipPath
       clipPathUnits="userSpaceOnUse"
       id="clipPath12">
      <path
         d="M 0,367.484 H 500 V 0 H 0 Z"
         transform="translate(-296.3638,-116.2211)"
         id="path12" />
    </clipPath>
    <clipPath
       clipPathUnits="userSpaceOnUse"
       id="clipPath14">
      <path
         d="M 0,367.484 H 500 V 0 H 0 Z"
         transform="translate(-259.97311,-107.9037)"
         id="path14" />
    </clipPath>
    <clipPath
       clipPathUnits="userSpaceOnUse"
       id="clipPath16">
      <path
         d="M 0,367.484 H 500 V 0 H 0 Z"
         transform="translate(-193.4409,-91.237702)"
         id="path16" />
    </clipPath>
    <clipPath
       clipPathUnits="userSpaceOnUse"
       id="clipPath18">
      <path
         d="M 0,367.484 H 500 V 0 H 0 Z"
         transform="translate(-132.1665,-49.441799)"
         id="path18" />
    </clipPath>
    <clipPath
       clipPathUnits="userSpaceOnUse"
       id="clipPath20">
      <path
         d="M 0,367.484 H 500 V 0 H 0 Z"
         transform="translate(-418.38821,-229.65761)"
         id="path20" />
    </clipPath>
    <clipPath
       clipPathUnits="userSpaceOnUse"
       id="clipPath22">
      <path
         d="M 0,367.484 H 500 V 0 H 0 Z"
         transform="translate(-328.84031,-274.63121)"
         id="path22" />
    </clipPath>
    <clipPath
       clipPathUnits="userSpaceOnUse"
       id="clipPath24">
      <path
         d="M 0,367.484 H 500 V 0 H 0 Z"
         transform="translate(-250.252,-264.4257)"
         id="path24" />
    </clipPath>
    <clipPath
       clipPathUnits="userSpaceOnUse"
       id="clipPath26">
      <path
         d="M 0,367.484 H 500 V 0 H 0 Z"
         transform="translate(-244.05811,-251.98331)"
         id="path26" />
    </clipPath>
    <clipPath
       clipPathUnits="userSpaceOnUse"
       id="clipPath28">
      <path
         d="M 0,367.484 H 500 V 0 H 0 Z"
         transform="translate(-173.3271,-240.7245)"
         id="path28" />
    </clipPath>
    <clipPath
       clipPathUnits="userSpaceOnUse"
       id="clipPath30">
      <path
         d="M 0,367.484 H 500 V 0 H 0 Z"
         transform="translate(-99.550802,-190.61951)"
         id="path30" />
    </clipPath>
  </defs>
  <sodipodi:namedview
     id="namedview1"
     pagecolor="#ffffff"
     bordercolor="#000000"
     borderopacity="0.25"
     inkscape:showpageshadow="2"
     inkscape:pageopacity="0.0"
     inkscape:pagecheckerboard="0"
     inkscape:deskcolor="#d1d1d1">
    <inkscape:page
       x="0"
       y="0"
       inkscape:label="1"
       id="page1"
       width="666.66669"
       height="489.97867"
       margin="0"
       bleed="0" />
  </sodipodi:namedview>
  <g
     id="layer-MC0"
     inkscape:groupmode="layer"
     inkscape:label="Layer 1">
    <path
       id="path1"
       d="m 0,0 c 2.931,9.931 4.411,20.227 4.411,30.738 0,59.914 -48.744,108.658 -108.658,108.658 -34.892,0 -67.072,-16.664 -87.287,-43.919 -14.01,7.001 -29.564,10.725 -45.451,10.725 -20.989,0 -41.142,-6.348 -58.281,-18.358 -8.887,-6.228 -16.634,-13.734 -23.036,-22.252 -17.19,10.787 -37.262,16.7 -57.827,16.7 -59.921,0 -108.669,-48.749 -108.669,-108.668 0,-39.57 21.793,-75.851 55.632,-94.847 -0.032,-1.061 -0.049,-2.122 -0.049,-3.181 0,-57.172 46.513,-103.684 103.684,-103.684 32.865,0 63.415,15.667 82.763,41.263 12.001,-5.025 24.92,-7.627 38.208,-7.627 32.849,0 62.796,15.964 81.094,42.024 11.036,-3.879 22.704,-5.884 34.538,-5.884 57.418,0 104.129,46.712 104.129,104.129 C 15.201,-34.786 9.979,-16.274 0,0"
       style="fill:#000000;fill-opacity:1;fill-rule:nonzero;stroke:none"
       transform="matrix(1.3333333,0,0,-1.3333333,646.39773,185.86093)"
       clip-path="url(#clipPath2)" />
    <path
       id="path3"
       d="m 0,0 c 3.667,10.375 5.521,21.244 5.521,32.387 0,53.675 -43.668,97.342 -97.342,97.342 -34.66,0 -66.333,-18.353 -83.718,-47.646 -14.527,9.383 -31.546,14.453 -49.021,14.453 -18.652,0 -36.561,-5.64 -51.787,-16.31 -10.958,-7.68 -19.965,-17.54 -26.534,-28.96 -17.157,13.7 -38.671,21.359 -60.823,21.359 -53.681,0 -97.353,-43.672 -97.353,-97.353 0,-37.839 22.242,-72.319 56.111,-88.195 -0.351,-3.275 -0.528,-6.562 -0.528,-9.832 0,-50.932 41.437,-92.369 92.369,-92.369 32.401,0 62.276,17.094 78.897,44.358 12.851,-7.043 27.199,-10.721 42.074,-10.721 32.14,0 61.144,17.25 76.575,44.75 12.182,-5.657 25.496,-8.61 39.057,-8.61 51.179,0 92.814,41.636 92.814,92.813 C 16.312,-33.536 10.691,-15.492 0,0"
       style="fill:#ffffff;fill-opacity:1;fill-rule:nonzero;stroke:none"
       transform="matrix(1.3333333,0,0,-1.3333333,629.83013,188.0596)"
       clip-path="url(#clipPath4)" />
    <path
       id="path5"
       d="m 0,0 c 4.381,10.419 6.804,21.864 6.804,33.875 0,48.305 -39.158,87.463 -87.463,87.463 -35.937,0 -66.805,-21.674 -80.26,-52.662 -14.09,12.133 -32.427,19.469 -52.479,19.469 -34.314,0 -63.606,-21.481 -75.178,-51.727 -15.966,17.113 -38.715,27.817 -63.966,27.817 -48.31,0 -87.474,-39.164 -87.474,-87.474 0,-37.645 23.785,-69.726 57.142,-82.06 -1.014,-5.168 -1.559,-10.504 -1.559,-15.968 0,-45.558 36.932,-82.489 82.49,-82.489 33.443,0 62.216,19.913 75.166,48.52 12.862,-9.353 28.684,-14.885 45.805,-14.885 32.61,0 60.53,20.022 72.177,48.436 12.639,-7.791 27.52,-12.295 43.456,-12.295 45.804,0 82.935,37.131 82.935,82.935 C 17.596,-31.787 11.013,-14.077 0,0"
       style="fill:#000000;fill-opacity:1;fill-rule:nonzero;stroke:none"
       transform="matrix(1.3333333,0,0,-1.3333333,614.9472,190.044)"
       clip-path="url(#clipPath6)" />
    <path
       id="path7"
       d="m 0,0 c -5.747,-1.33 -8.234,0.592 -8.234,7.315 v 21.208 c 0,4.887 -0.253,8.791 4.383,10.1 C 6.22,41.467 17.476,36.076 18.542,25.117 19.785,12.381 12.7,2.932 0,0 m -22.393,70.701 v -90.072 c 43.541,6.368 62.497,23.191 62.024,56.632 -0.415,28.997 -29.205,44.933 -62.024,33.44"
       style="fill:#ffffff;fill-opacity:1;fill-rule:nonzero;stroke:none"
       transform="matrix(1.3333333,0,0,-1.3333333,544.94987,304.61613)"
       clip-path="url(#clipPath8)" />
    <path
       id="path9"
       d="m 0,0 c 0,0 -0.122,-29.742 -0.519,-35.344 -0.619,-8.748 -2.969,-8.982 -4.969,-7.671 -3.991,2.619 -11.449,17.531 -18.127,30.498 l -9.742,-2.249 v -82.672 l 11.912,2.751 0.04,20.445 c 0.02,10.494 2.886,11.177 7.05,7.365 3.16,-2.894 7.459,-9.272 14.233,-20.119 l 15.765,3.639 V 3.611 Z"
       style="fill:#ffffff;fill-opacity:1;fill-rule:nonzero;stroke:none"
       transform="matrix(1.3333333,0,0,-1.3333333,483.86787,220.2308)"
       clip-path="url(#clipPath10)" />
    <path
       id="path11"
       d="m 0,0 c -1.955,-0.426 -6.404,-1.553 -8.678,-1.979 -2.176,-0.425 -3.447,0.802 -3.178,3.908 0.245,2.905 1.52,9.064 2.004,11.144 1.071,4.6 3.174,6.517 5.648,6.863 3.17,0.441 5.939,-2.33 7.456,-9.843 C 3.398,9.366 3.769,7.859 4.009,5.811 4.302,3.322 3.08,0.776 0,0 m 10.821,41.52 c -6.144,11.32 -13.29,8.974 -16.951,7.762 -4.798,-1.587 -9.056,-4.051 -13.511,-21.723 -4.683,-18.579 -9.782,-57.602 -9.782,-57.602 l 12.857,2.968 1.32,7.399 c 0.638,3.573 2.912,5.844 6.38,6.863 0,0 9.961,2.586 13.361,2.973 1.437,0.163 3.124,-0.971 3.615,-3.22 l 1.737,-7.961 17.508,4.042 c 0,0 -8.709,44.083 -16.534,58.499"
       style="fill:#ffffff;fill-opacity:1;fill-rule:nonzero;stroke:none"
       transform="matrix(1.3333333,0,0,-1.3333333,395.15173,335.0172)"
       clip-path="url(#clipPath12)" />
    <path
       id="path13"
       d="M 0,0 0.131,-17.007 -44.87,-27.396 v 78.003 l 17.742,4.096 V 5.21 c 0,-10.161 2.569,-10.88 10.796,-8.981 z"
       style="fill:#ffffff;fill-opacity:1;fill-rule:nonzero;stroke:none"
       transform="matrix(1.3333333,0,0,-1.3333333,346.6308,346.10707)"
       clip-path="url(#clipPath14)" />
    <path
       id="path15"
       d="m 0,0 c -0.292,2.742 -5.036,3.363 -12.425,5.135 -12.919,3.208 -20.915,10.818 -20.098,24.188 0.869,14.432 8.175,24.496 46.843,31.063 V 30.366 C 0.367,28.621 -7.336,26.011 -10.604,23.338 -14.088,20.51 -13.885,15.879 -8.855,14.199 -6.67,13.47 -0.21,11.312 3.694,10.003 11.187,7.506 14.853,3.676 15.617,-3.102 17.775,-22.223 -16.831,-27.236 -31.1,-29.332 v 16.988 C -14.006,-8.899 0.659,-5.881 0,0"
       style="fill:#ffffff;fill-opacity:1;fill-rule:nonzero;stroke:none"
       transform="matrix(1.3333333,0,0,-1.3333333,257.9212,368.3284)"
       clip-path="url(#clipPath16)" />
    <path
       id="path17"
       d="m 0,0 v 99.463 l 22.441,5.181 V 5.182 Z"
       style="fill:#ffffff;fill-opacity:1;fill-rule:nonzero;stroke:none"
       transform="matrix(1.3333333,0,0,-1.3333333,176.222,424.05627)"
       clip-path="url(#clipPath18)" />
    <path
       id="path19"
       d="m 0,0 v 83.008 l -11.347,-2.62 c -6.018,-19.873 -9.423,-29.591 -12.391,-37.782 -5.054,-13.939 -10.31,-8.467 -12.748,-4.576 -2.851,4.55 -6.708,13.417 -13.416,29.655 L -66.474,63.859 V -12.95 l 13.742,3.173 c -0.105,12.433 0.111,19.68 0.782,22.96 0.603,2.947 2.379,3.362 4.179,0.439 1.482,-2.405 3.825,-7.606 8.485,-18.306 l 9.216,2.128 c 5.078,13.645 7.821,20.521 9.758,23.889 1.573,2.734 4.549,4.659 5.455,-0.397 0.684,-3.825 0.627,-11.521 0.606,-24.227 z"
       style="fill:#ffffff;fill-opacity:1;fill-rule:nonzero;stroke:none"
       transform="matrix(1.3333333,0,0,-1.3333333,557.85093,183.76853)"
       clip-path="url(#clipPath20)" />
    <path
       id="path21"
       d="m 0,0 c 0,0 0.273,-18.029 -0.341,-23.997 -0.815,-7.92 -14.855,-10.655 -15.45,-2.56 -0.266,3.614 -0.469,8.274 -0.469,18.914 l -11.473,-2.649 v -71.106 l 15.732,3.632 v 16.421 c 0,12.63 15.689,13.686 16.534,4.858 0.266,-2.776 0.402,-7.103 0.402,-16.083 l 11.473,2.649 V 3.788 Z"
       style="fill:#ffffff;fill-opacity:1;fill-rule:nonzero;stroke:none"
       transform="matrix(1.3333333,0,0,-1.3333333,438.45373,123.80373)"
       clip-path="url(#clipPath22)" />
    <path
       id="path23"
       d="m 0,0 v -29.304 l 10.586,2.444 c 4.219,0.974 5.701,0.079 5.67,-8.397 v -37.659 l 12.542,2.895 v 34.85 c 0.087,14.96 1.843,18.057 9.284,19.775 l 6.642,1.533 v 24.189 z"
       style="fill:#ffffff;fill-opacity:1;fill-rule:nonzero;stroke:none"
       transform="matrix(1.3333333,0,0,-1.3333333,333.66933,137.41107)"
       clip-path="url(#clipPath24)" />
    <path
       id="path25"
       d="m 0,0 -13.377,-3.088 c 0,0 -0.083,-10.122 -0.824,-23.528 -0.786,-14.25 -16.138,-18.619 -17.014,-4.123 -0.56,9.26 -0.471,21.815 -0.471,21.815 l -16.013,-3.697 v -6.856 c 0,-26.697 3.068,-35.757 19.195,-34.015 3.771,0.407 6.643,1.605 9.879,3.796 0.202,0.136 0.458,0.139 0.697,-0.046 0.231,-0.178 0.603,-0.778 0.042,-2.52 -3.024,-9.388 -28.918,-12.178 -28.918,-12.178 l -0.007,-20.978 c 14.803,2.178 30.915,5.33 39.37,19.377 C -4.283,-60.794 0,-54.459 0,0"
       style="fill:#ffffff;fill-opacity:1;fill-rule:nonzero;stroke:none"
       transform="matrix(1.3333333,0,0,-1.3333333,325.4108,154.00093)"
       clip-path="url(#clipPath26)" />
    <path
       id="path27"
       d="m 0,0 c 0,0 0.259,-17.134 -0.325,-22.807 -0.775,-7.527 -14.118,-10.126 -14.683,-2.432 -0.252,3.434 -0.445,7.863 -0.445,17.975 L -26.357,-9.781 V -77.36 l 14.951,3.452 v 15.607 c 0,12.003 14.911,13.007 15.714,4.616 0.253,-2.638 0.381,-6.75 0.381,-15.284 l 10.905,2.517 V 3.6 Z"
       style="fill:#ffffff;fill-opacity:1;fill-rule:nonzero;stroke:none"
       transform="matrix(1.3333333,0,0,-1.3333333,231.1028,169.01267)"
       clip-path="url(#clipPath28)" />
    <path
       id="path29"
       d="m 0,0 c -6.847,-1.746 -10.885,1.922 -10.885,11.125 0,7.342 0.138,14.921 13.579,14.921 9.569,0 13.57,-4.845 13.57,-10.311 C 16.264,10.975 10.44,2.662 0,0 m 40.181,30.324 c 0,16.905 -12.455,37.352 -64.569,24.809 v -91.94 l 13.571,3.133 v 16.612 c 0,6.75 3.89,5.507 6.372,3.89 1.927,-1.255 6.016,-4.55 15.681,-15.41 l 23.055,5.322 -17.966,18.395 c 0,0 23.856,9.606 23.856,35.189"
       style="fill:#ffffff;fill-opacity:1;fill-rule:nonzero;stroke:none"
       transform="matrix(1.3333333,0,0,-1.3333333,132.7344,235.81933)"
       clip-path="url(#clipPath30)" />
  </g>
</svg>
