<?xml version="1.0" encoding="UTF-8" standalone="no"?>
<!-- Created with Inkscape (http://www.inkscape.org/) -->

<svg
   version="1.1"
   id="svg2"
   width="666.66669"
   height="617.46002"
   viewBox="0 0 666.66669 617.46002"
   sodipodi:docname="Rhythm Tianguo Classic Collection (节奏天国 经典荟萃) Logo.ai"
   xmlns:inkscape="http://www.inkscape.org/namespaces/inkscape"
   xmlns:sodipodi="http://sodipodi.sourceforge.net/DTD/sodipodi-0.dtd"
   xmlns="http://www.w3.org/2000/svg"
   xmlns:svg="http://www.w3.org/2000/svg">
  <defs
     id="defs6">
    <clipPath
       clipPathUnits="userSpaceOnUse"
       id="clipPath16">
      <path
         d="M 0,463.095 H 500 V 0 H 0 Z"
         id="path14" />
    </clipPath>
    <linearGradient
       x1="0"
       y1="0"
       x2="1"
       y2="0"
       gradientUnits="userSpaceOnUse"
       gradientTransform="matrix(116.22549,20.49369,20.49369,-116.22549,379.55197,125.87915)"
       spreadMethod="pad"
       id="linearGradient56">
      <stop
         style="stop-opacity:1;stop-color:#ff8c3c"
         offset="0"
         id="stop50" />
      <stop
         style="stop-opacity:1;stop-color:#ff5a00"
         offset="0.75"
         id="stop52" />
      <stop
         style="stop-opacity:1;stop-color:#ff5a00"
         offset="1"
         id="stop54" />
    </linearGradient>
    <clipPath
       clipPathUnits="userSpaceOnUse"
       id="clipPath66">
      <path
         d="M 0,463.095 H 500 V 0 H 0 Z"
         id="path64" />
    </clipPath>
    <clipPath
       clipPathUnits="userSpaceOnUse"
       id="clipPath74">
      <path
         d="M 47.873,245.512 H 596.659 V -125.411 H 47.873 Z"
         id="path72" />
    </clipPath>
    <clipPath
       clipPathUnits="userSpaceOnUse"
       id="clipPath78">
      <path
         d="m 439.094,140.928 15.087,18.203 -28.344,-4.998 -2.743,-4.598 14.629,-7.935 -11.429,-12.987 -12.344,7.424 -14.629,-14.923 -12.343,8.338 20.572,21.457 -20.115,-3.547 v 14.629 l 40.687,7.175 v 6.902 l 21.03,3.708 v -6.902 l 40.688,7.174 v -14.629 l -16.915,-2.983 -2.743,-4.598 19.658,-7.963 -10.058,-14.574 -17.829,9.2 -10.515,-11.912 z m -55.317,-23.926 45.717,8.061 v 6.4 l 18.286,3.224 v -6.4 l 45.717,8.061 V 121.262 L 447.78,113.201 V 96.286 l -18.286,-3.225 v 16.915 l -45.717,-8.061 z"
         id="path76" />
    </clipPath>
    <linearGradient
       x1="0"
       y1="0"
       x2="1"
       y2="0"
       gradientUnits="userSpaceOnUse"
       gradientTransform="matrix(112.29938,19.801411,19.801411,-112.29938,382.40933,179.62041)"
       spreadMethod="pad"
       id="linearGradient108">
      <stop
         style="stop-opacity:1;stop-color:#aa37be"
         offset="0"
         id="stop104" />
      <stop
         style="stop-opacity:1;stop-color:#5f14a5"
         offset="1"
         id="stop106" />
    </linearGradient>
    <clipPath
       clipPathUnits="userSpaceOnUse"
       id="clipPath118">
      <path
         d="M 0,463.095 H 500 V 0 H 0 Z"
         id="path116" />
    </clipPath>
    <clipPath
       clipPathUnits="userSpaceOnUse"
       id="clipPath126">
      <path
         d="M 47.873,245.512 H 596.659 V -125.411 H 47.873 Z"
         id="path124" />
    </clipPath>
    <clipPath
       clipPathUnits="userSpaceOnUse"
       id="clipPath130">
      <path
         d="m 451.895,206.73 17.829,3.144 v -7.772 l 23.773,4.192 v -15.086 l -23.773,-4.192 v -6.857 l -17.829,-3.144 v 6.857 l -26.516,-4.675 v -6.858 l -17.829,-3.143 v 6.857 l -23.773,-4.192 v 15.087 l 23.773,4.191 v 7.772 l 17.829,3.144 v -7.772 l 26.516,4.676 z"
         id="path128" />
    </clipPath>
    <linearGradient
       x1="0"
       y1="0"
       x2="1"
       y2="0"
       gradientUnits="userSpaceOnUse"
       gradientTransform="matrix(114.04632,20.109444,20.109444,-114.04632,144.61908,97.003944)"
       spreadMethod="pad"
       id="linearGradient166">
      <stop
         style="stop-opacity:1;stop-color:#c8f000"
         offset="0"
         id="stop160" />
      <stop
         style="stop-opacity:1;stop-color:#14b400"
         offset="0.8"
         id="stop162" />
      <stop
         style="stop-opacity:1;stop-color:#14b400"
         offset="1"
         id="stop164" />
    </linearGradient>
    <clipPath
       clipPathUnits="userSpaceOnUse"
       id="clipPath176">
      <path
         d="M 0,463.095 H 500 V 0 H 0 Z"
         id="path174" />
    </clipPath>
    <clipPath
       clipPathUnits="userSpaceOnUse"
       id="clipPath184">
      <path
         d="M -40.3555,340.792 H 509.158 V -39.2684 H -40.3555 Z"
         id="path182" />
    </clipPath>
    <clipPath
       clipPathUnits="userSpaceOnUse"
       id="clipPath188">
      <path
         d="m 234.257,136.123 1.019,-5.76 -5.334,1.864 -5.334,-3.745 1.018,6.119 -4.315,3.446 5.964,1.918 2.667,5.874 2.667,-4.933 5.963,0.185 z m 1.019,-32.506 -5.334,1.864 -5.334,-3.745 1.018,6.119 -4.315,3.446 5.964,1.918 2.667,5.874 2.667,-4.933 5.963,0.185 -4.315,-4.968 z m -26.392,28.032 1.019,-5.76 -5.334,1.864 -5.334,-3.745 1.018,6.119 -4.315,3.446 5.964,1.918 2.667,5.874 2.667,-4.933 5.963,0.185 z m 1.019,-32.506 -5.334,1.864 -5.334,-3.745 1.018,6.12 -4.315,3.445 5.964,1.918 2.667,5.874 2.667,-4.933 5.963,0.185 -4.315,-4.968 z m -26.391,28.032 1.019,-5.759 -5.335,1.863 -5.334,-3.745 1.019,6.12 -4.315,3.445 5.963,1.918 2.667,5.875 2.667,-4.934 5.964,0.185 z m 0,-26.745 1.019,-5.76 -5.335,1.863 -5.334,-3.745 1.019,6.12 -4.315,3.445 5.963,1.918 2.667,5.875 2.667,-4.934 5.964,0.185 z m 75.002,1.342 -7.315,-1.29 v 58.974 l -25.6,-4.514 v 11.429 l -16.915,-2.982 v -11.43 l -8.229,-1.451 v 11.43 l -16.916,-2.983 v -11.429 l -25.601,-4.514 V 84.037 l -7.314,-1.289 V 67.661 L 186.74,74.03 C 175.463,68.079 163.728,62.657 151.538,57.765 l 5.943,-13.581 c 12.19,5.502 25.601,12.134 40.231,19.894 l -5.944,10.838 24.687,4.353 -5.486,-12.853 c 2.132,-0.234 5.029,-0.637 8.686,-1.212 14.63,-1.687 25.448,-2.979 32.459,-3.877 l 6.4,15.758 c -15.544,1.526 -28.344,2.469 -38.401,2.829 l 38.401,6.771 z"
         id="path186" />
    </clipPath>
    <linearGradient
       x1="0"
       y1="0"
       x2="1"
       y2="0"
       gradientUnits="userSpaceOnUse"
       gradientTransform="matrix(113.1547,19.952228,19.952228,-113.1547,268.77789,104.92025)"
       spreadMethod="pad"
       id="linearGradient224">
      <stop
         style="stop-opacity:1;stop-color:#6ee6ff"
         offset="0"
         id="stop218" />
      <stop
         style="stop-opacity:1;stop-color:#00a0ff"
         offset="0.85"
         id="stop220" />
      <stop
         style="stop-opacity:1;stop-color:#00a0ff"
         offset="1"
         id="stop222" />
    </linearGradient>
    <clipPath
       clipPathUnits="userSpaceOnUse"
       id="clipPath234">
      <path
         d="M 0,463.095 H 500 V 0 H 0 Z"
         id="path232" />
    </clipPath>
    <clipPath
       clipPathUnits="userSpaceOnUse"
       id="clipPath242">
      <path
         d="M 47.873,245.512 H 596.659 V -125.411 H 47.873 Z"
         id="path240" />
    </clipPath>
    <clipPath
       clipPathUnits="userSpaceOnUse"
       id="clipPath246">
      <path
         d="m 321.603,142.383 20.875,-6.377 -40.807,-7.195 z m -28.345,-19.3 v -9.47 l 56.232,9.915 v 10.336 l 22.401,-6.843 6.401,18.5 -56.689,9.826 -56.232,-31.108 6.401,-15.786 z m 11.43,-35.113 11.886,10.782 13.258,2.337 8.686,-6.697 z m 48.46,17.23 18.286,3.225 v 15.086 L 271.772,105.938 V 90.852 l 21.486,3.788 -19.2,-14.357 6.857,-11.592 71.775,15.856 5.486,-4.975 15.544,12.798 z"
         id="path244" />
    </clipPath>
    <linearGradient
       x1="0"
       y1="0"
       x2="1"
       y2="0"
       gradientUnits="userSpaceOnUse"
       gradientTransform="matrix(110.47129,19.479071,19.479071,-110.47129,266.32822,158.00928)"
       spreadMethod="pad"
       id="linearGradient278">
      <stop
         style="stop-opacity:1;stop-color:#ff8232"
         offset="0"
         id="stop272" />
      <stop
         style="stop-opacity:1;stop-color:#c80000"
         offset="0.75"
         id="stop274" />
      <stop
         style="stop-opacity:1;stop-color:#c80000"
         offset="1"
         id="stop276" />
    </linearGradient>
    <clipPath
       clipPathUnits="userSpaceOnUse"
       id="clipPath288">
      <path
         d="M 0,463.095 H 500 V 0 H 0 Z"
         id="path286" />
    </clipPath>
    <clipPath
       clipPathUnits="userSpaceOnUse"
       id="clipPath296">
      <path
         d="M -40.3555,340.792 H 509.158 V -39.2684 H -40.3555 Z"
         id="path294" />
    </clipPath>
    <clipPath
       clipPathUnits="userSpaceOnUse"
       id="clipPath300">
      <path
         d="m 354.062,180.794 v 8.686 l -18.287,-3.225 v -8.686 l -28.801,-5.078 v 8.686 l -17.83,-3.144 v -8.686 l -21.487,-3.789 v -15.086 l 21.487,3.789 v -8.229 l 17.83,3.143 v 8.229 l 28.801,5.079 v -8.229 l 18.287,3.224 v 8.229 l 21.487,3.789 v 15.086 z"
         id="path298" />
    </clipPath>
    <linearGradient
       x1="0"
       y1="0"
       x2="1"
       y2="0"
       gradientUnits="userSpaceOnUse"
       gradientTransform="matrix(120.03917,21.166145,21.166145,-120.03917,25.095161,78.671638)"
       spreadMethod="pad"
       id="linearGradient336">
      <stop
         style="stop-opacity:1;stop-color:#ffff00"
         offset="0"
         id="stop330" />
      <stop
         style="stop-opacity:1;stop-color:#ffbe00"
         offset="0.75"
         id="stop332" />
      <stop
         style="stop-opacity:1;stop-color:#ffbe00"
         offset="1"
         id="stop334" />
    </linearGradient>
    <clipPath
       clipPathUnits="userSpaceOnUse"
       id="clipPath346">
      <path
         d="M 0,463.095 H 500 V 0 H 0 Z"
         id="path344" />
    </clipPath>
    <clipPath
       clipPathUnits="userSpaceOnUse"
       id="clipPath354">
      <path
         d="M -40.3555,340.792 H 509.158 V -39.2684 H -40.3555 Z"
         id="path352" />
    </clipPath>
    <clipPath
       clipPathUnits="userSpaceOnUse"
       id="clipPath358">
      <path
         d="m 74.277,81.172 64.46,11.366 V 76.08 L 115.879,72.05 V 57.42 l 26.973,4.756 v -16 L 69.706,33.278 v 5.943 L 34.047,27.905 31.761,44.417 69.706,54.078 v -4.799 l 27.429,4.836 v 14.63 L 74.277,64.714 Z m -23.772,21.41 7.314,1.746 6.858,13.096 15.086,-4.197 -8.229,-14.709 41.145,27.37 -36.573,-6.449 v 16.001 l 58.06,10.237 v -16.458 l -10.972,-14.278 20.572,-7.344 -10.057,-15.488 -24.687,9.819 -32.916,-19.519 -6.858,12.506 -13.257,-21.539 13.257,3.7 V 62.053 L 38.161,52.86 33.59,66.226 48.676,87.173 35.875,83.544 31.304,97.367 49.59,136.25 67.42,133.908 Z"
         id="path356" />
    </clipPath>
    <radialGradient
       fx="0"
       fy="0"
       cx="0"
       cy="0"
       r="1"
       gradientUnits="userSpaceOnUse"
       gradientTransform="matrix(11.651461,0,0,-11.651461,373.87225,87.029594)"
       spreadMethod="pad"
       id="radialGradient394">
      <stop
         style="stop-opacity:1;stop-color:#faffc8"
         offset="0"
         id="stop388" />
      <stop
         style="stop-opacity:1;stop-color:#c8ff00"
         offset="0.45"
         id="stop390" />
      <stop
         style="stop-opacity:1;stop-color:#00a000"
         offset="1"
         id="stop392" />
    </radialGradient>
    <clipPath
       clipPathUnits="userSpaceOnUse"
       id="clipPath404">
      <path
         d="M 0,463.095 H 500 V 0 H 0 Z"
         id="path402" />
    </clipPath>
    <radialGradient
       fx="0"
       fy="0"
       cx="0"
       cy="0"
       r="1"
       gradientUnits="userSpaceOnUse"
       gradientTransform="matrix(10.145812,0,0,-10.145812,155.84489,144.72064)"
       spreadMethod="pad"
       id="radialGradient428">
      <stop
         style="stop-opacity:1;stop-color:#ffffa0"
         offset="0"
         id="stop422" />
      <stop
         style="stop-opacity:1;stop-color:#ffff00"
         offset="0.55"
         id="stop424" />
      <stop
         style="stop-opacity:1;stop-color:#ffc800"
         offset="1"
         id="stop426" />
    </radialGradient>
    <clipPath
       clipPathUnits="userSpaceOnUse"
       id="clipPath438">
      <path
         d="M 0,463.095 H 500 V 0 H 0 Z"
         id="path436" />
    </clipPath>
    <radialGradient
       fx="0"
       fy="0"
       cx="0"
       cy="0"
       r="1"
       gradientUnits="userSpaceOnUse"
       gradientTransform="matrix(11.773709,0,0,-11.773709,29.782959,21.212904)"
       spreadMethod="pad"
       id="radialGradient462">
      <stop
         style="stop-opacity:1;stop-color:#d9ffff"
         offset="0"
         id="stop456" />
      <stop
         style="stop-opacity:1;stop-color:#96d2ff"
         offset="0.42"
         id="stop458" />
      <stop
         style="stop-opacity:1;stop-color:#00aaff"
         offset="1"
         id="stop460" />
    </radialGradient>
    <clipPath
       clipPathUnits="userSpaceOnUse"
       id="clipPath472">
      <path
         d="M 0,463.095 H 500 V 0 H 0 Z"
         id="path470" />
    </clipPath>
  </defs>
  <sodipodi:namedview
     id="namedview4"
     pagecolor="#ffffff"
     bordercolor="#000000"
     borderopacity="0.25"
     inkscape:showpageshadow="2"
     inkscape:pageopacity="0.0"
     inkscape:pagecheckerboard="0"
     inkscape:deskcolor="#d1d1d1" />
  <g
     id="g8"
     inkscape:groupmode="layer"
     inkscape:label="Rhythm Tianguo Classic Collection (节奏天国 经典荟萃) Logo"
     transform="matrix(1.3333333,0,0,-1.3333333,0,617.46)">
    <g
       id="g10">
      <g
         id="g12"
         clip-path="url(#clipPath16)">
        <g
           id="g18"
           transform="translate(436.1242,368.9418)">
          <path
             d="m 0,0 c -4.989,52.746 -49.578,94.153 -103.665,94.153 -38.829,0 -73.936,-21.729 -91.78,-54.904 -11.218,3.944 -23.09,5.984 -35.145,5.984 -18.828,0 -37.377,-5.085 -53.481,-14.506 -14.966,8.122 -31.648,12.363 -48.947,12.363 -56.853,0 -103.106,-46.325 -103.106,-103.266 0,-39.125 21.931,-74.129 55.434,-91.603 -2.522,-7.952 -3.818,-16.275 -3.818,-24.739 0,-46.102 38.402,-83.607 85.604,-83.607 28.596,0 54.18,13.6 69.78,35.04 19.013,-17.606 44.203,-27.761 71.131,-27.761 43.519,0 81.895,26.897 97.414,66.13 2.559,-0.193 5.125,-0.29 7.692,-0.29 56.144,0 101.82,45.239 101.82,100.845 C 48.933,-50.745 30.08,-18.137 0,0"
             style="fill:#0096e6;fill-opacity:1;fill-rule:nonzero;stroke:none"
             id="path20" />
        </g>
        <g
           id="g22"
           transform="translate(425.0473,361.9715)">
          <path
             d="m 0,0 c -1.536,49.68 -42.48,89.627 -92.588,89.627 -38.083,0 -72.143,-23.494 -86.033,-58.223 -12.687,6.108 -26.644,9.302 -40.892,9.302 -19.315,0 -37.61,-5.675 -53.276,-16.472 -14.69,9.393 -31.561,14.329 -49.152,14.329 -50.514,0 -91.609,-41.167 -91.609,-91.768 0,-38.315 23.653,-72.179 58.654,-85.654 -4.626,-9.55 -7.038,-19.991 -7.038,-30.689 0,-39.761 33.244,-72.11 74.107,-72.11 29.952,0 56.08,17.161 67.706,42.693 17.477,-22.189 44.21,-35.414 73.205,-35.414 41.752,0 78.184,27.796 89.561,67.175 5.133,-0.887 10.335,-1.335 15.545,-1.335 49.804,0 90.323,40.082 90.323,89.348 C 48.513,-45.86 29.64,-15.331 0,0"
             style="fill:#ffffff;fill-opacity:1;fill-rule:nonzero;stroke:none"
             id="path24" />
        </g>
        <g
           id="g26"
           transform="translate(416.9741,356.9103)">
          <path
             d="m 0,0 c 0.018,0.724 0.055,1.443 0.055,2.171 0,46.643 -37.863,84.454 -84.57,84.454 -38.862,0 -71.58,-26.186 -81.481,-61.847 -13.154,8.176 -28.73,12.927 -45.443,12.927 -20.092,0 -38.546,-6.856 -53.112,-18.295 -13.823,10.147 -30.867,16.151 -49.317,16.151 -46.141,0 -83.547,-37.476 -83.547,-83.705 0,-38.967 26.578,-71.713 62.561,-81.04 -6.91,-10.123 -10.944,-22.254 -10.944,-35.302 0,-35.373 29.569,-64.048 66.044,-64.048 32.763,0 59.939,23.14 65.134,53.484 14.123,-27.428 42.743,-46.205 75.778,-46.205 41.447,0 75.963,29.544 83.581,68.671 6.863,-1.835 14.075,-2.83 21.525,-2.83 45.43,0 82.259,36.392 82.259,81.284 C 48.523,-41.122 28.601,-12.73 0,0"
             style="fill:#000000;fill-opacity:1;fill-rule:nonzero;stroke:none"
             id="path28" />
        </g>
        <g
           id="g30"
           transform="translate(401.1252,227.6712)">
          <path
             d="m 0,0 -291.015,-51.314 6.755,-38.307 291.015,51.314 z"
             style="fill:#000000;fill-opacity:1;fill-rule:nonzero;stroke:none"
             id="path32" />
        </g>
        <g
           id="g34"
           transform="translate(496.3429,185.1062)">
          <path
             d="m 0,0 3.657,0.645 v 28.293 l -23.773,-4.191 v 7.771 L -50.951,27.081 V 19.309 L -64.46,16.927 v 7.772 l -54.939,-9.687 V -90.999 l 46.047,8.119 v -16.915 l 31.293,5.517 v 16.915 l 45.716,8.062 v 28.293 l -7.111,-1.253 6.911,10.013 -13.269,5.373 9.812,1.731 z"
             style="fill:#000000;fill-opacity:1;fill-rule:nonzero;stroke:none"
             id="path36" />
        </g>
      </g>
    </g>
    <g
       id="g38">
      <g
         id="g40">
        <g
           id="g46">
          <g
             id="g48">
            <path
               d="m 449.152,172.874 v 6.902 l -21.029,-3.708 v -6.902 l -40.688,-7.175 v -14.629 l 20.115,3.547 -20.572,-21.457 12.343,-8.338 14.63,14.923 12.343,-7.424 11.429,12.987 -14.629,7.935 2.743,4.598 28.343,4.999 -15.085,-18.205 12.343,-8.338 10.515,11.912 17.829,-9.2 10.057,14.574 -19.657,7.963 2.743,4.598 16.914,2.983 v 14.629 z m -1.371,-44.587 v 6.401 l -18.288,-3.225 v -6.401 l -45.716,-8.06 v -15.087 l 45.716,8.061 V 93.061 l 18.288,3.225 V 113.2 l 45.716,8.062 v 15.086 z"
               style="fill:url(#linearGradient56);stroke:none"
               id="path58" />
          </g>
        </g>
      </g>
    </g>
    <g
       id="g60">
      <g
         id="g62"
         clip-path="url(#clipPath66)">
        <g
           id="g68">
          <g
             id="g70" />
          <g
             id="g90">
            <g
               clip-path="url(#clipPath74)"
               opacity="0.199997"
               id="g88">
              <g
                 id="g86">
                <g
                   clip-path="url(#clipPath78)"
                   id="g84">
                  <g
                     transform="translate(77.8387,-125.4115)"
                     id="g82">
                    <path
                       d="m 0,0 -29.966,57.026 518.85,313.897 29.937,-57.054 z"
                       style="fill:#ffffff;fill-opacity:1;fill-rule:nonzero;stroke:none"
                       id="path80" />
                  </g>
                </g>
              </g>
            </g>
          </g>
        </g>
      </g>
    </g>
    <g
       id="g92">
      <g
         id="g94">
        <g
           id="g100">
          <g
             id="g102">
            <path
               d="m 451.895,206.73 v -7.772 l -26.515,-4.675 v 7.772 l -17.83,-3.143 v -7.773 l -23.773,-4.191 v -15.087 l 23.773,4.192 v -6.858 l 17.83,3.144 v 6.858 l 26.515,4.675 v -6.857 l 17.829,3.143 v 6.858 l 23.773,4.192 v 15.086 l -23.773,-4.192 v 7.773 z"
               style="fill:url(#linearGradient108);stroke:none"
               id="path110" />
          </g>
        </g>
      </g>
    </g>
    <g
       id="g112">
      <g
         id="g114"
         clip-path="url(#clipPath118)">
        <g
           id="g120">
          <g
             id="g122" />
          <g
             id="g142">
            <g
               clip-path="url(#clipPath126)"
               opacity="0.199997"
               id="g140">
              <g
                 id="g138">
                <g
                   clip-path="url(#clipPath130)"
                   id="g136">
                  <g
                     transform="translate(77.8387,-125.4115)"
                     id="g134">
                    <path
                       d="m 0,0 -29.966,57.026 518.85,313.897 29.937,-57.054 z"
                       style="fill:#ffffff;fill-opacity:1;fill-rule:nonzero;stroke:none"
                       id="path132" />
                  </g>
                </g>
              </g>
            </g>
          </g>
        </g>
        <g
           id="g144"
           transform="translate(267.9008,180.4348)">
          <path
             d="m 0,0 -124.875,-22.02 v -97.418 l 11.229,-25.664 51.027,25.234 50.981,-6.306 L 0,-97.521 Z"
             style="fill:#000000;fill-opacity:1;fill-rule:nonzero;stroke:none"
             id="path146" />
        </g>
      </g>
    </g>
    <g
       id="g148">
      <g
         id="g150">
        <g
           id="g156">
          <g
             id="g158">
            <path
               d="M 208.684,163.389 V 151.96 l -8.23,-1.451 v 11.429 l -16.914,-2.983 v -11.429 l -25.602,-4.514 V 84.038 l -7.314,-1.29 V 67.661 l 36.115,6.368 -35.201,-16.264 5.943,-13.581 40.231,19.894 -5.944,10.838 24.687,4.353 -5.486,-12.854 41.144,-5.088 6.401,15.758 -38.401,2.829 38.401,6.771 v 15.087 l -7.315,-1.29 v 58.974 l -25.601,-4.514 v 11.429 z m 16.942,-28.788 -4.315,3.445 5.963,1.919 2.668,5.875 2.667,-4.934 5.963,0.184 -4.315,-4.967 1.019,-5.76 -5.334,1.864 -5.334,-3.745 z m -25.372,-4.474 -4.316,3.446 5.964,1.918 2.667,5.875 2.667,-4.934 5.963,0.184 -4.315,-4.967 1.018,-5.76 -5.333,1.864 -5.334,-3.745 z m -25.373,-4.473 -4.316,3.445 5.965,1.919 2.666,5.874 2.668,-4.934 5.963,0.185 -4.315,-4.968 1.019,-5.76 -5.335,1.864 -5.334,-3.745 z m 50.745,-17.799 -4.315,3.446 5.963,1.918 2.668,5.874 2.667,-4.933 5.963,0.185 -4.315,-4.968 1.019,-5.76 -5.334,1.864 -5.334,-3.745 z m -25.372,-4.474 -4.316,3.446 5.964,1.918 2.667,5.875 2.667,-4.934 5.963,0.185 -4.315,-4.968 1.018,-5.76 -5.333,1.864 -5.334,-3.745 z m -25.373,-4.474 -4.316,3.446 5.965,1.918 2.666,5.875 2.668,-4.934 5.963,0.185 -4.315,-4.968 1.019,-5.76 -5.335,1.864 -5.334,-3.745 z"
               style="fill:url(#linearGradient166);stroke:none"
               id="path168" />
          </g>
        </g>
      </g>
    </g>
    <g
       id="g170">
      <g
         id="g172"
         clip-path="url(#clipPath176)">
        <g
           id="g178">
          <g
             id="g180" />
          <g
             id="g200">
            <g
               clip-path="url(#clipPath184)"
               opacity="0.199997"
               id="g198">
              <g
                 id="g196">
                <g
                   clip-path="url(#clipPath188)"
                   id="g194">
                  <g
                     transform="translate(-9.0998,-39.2684)"
                     id="g192">
                    <path
                       d="m 0,0 -31.256,64.389 518.258,315.672 31.256,-64.389 z"
                       style="fill:#ffffff;fill-opacity:1;fill-rule:nonzero;stroke:none"
                       id="path190" />
                  </g>
                </g>
              </g>
            </g>
          </g>
        </g>
        <g
           id="g202"
           transform="translate(377.9371,97.4051)">
          <path
             d="M 0,0 V 103.141 L -117.533,82.171 V -6.818 l 17.313,-29.261 73.094,16.146 7.16,-6.493 26.868,22.122 z"
             style="fill:#000000;fill-opacity:1;fill-rule:nonzero;stroke:none"
             id="path204" />
        </g>
      </g>
    </g>
    <g
       id="g206">
      <g
         id="g208">
        <g
           id="g214">
          <g
             id="g216">
            <path
               d="m 265.371,124.239 6.401,-15.786 21.487,14.63 v -9.471 l 56.232,9.916 v 10.336 l 22.401,-6.843 6.4,18.501 -56.689,9.825 z m 56.232,18.145 20.875,-6.378 -40.807,-7.195 z M 271.772,105.938 V 90.851 l 21.487,3.789 -19.202,-14.357 6.858,-11.591 71.775,15.856 5.487,-4.976 15.543,12.798 -20.573,12.83 18.287,3.225 v 15.087 z m 44.802,-7.186 13.258,2.337 8.686,-6.697 -33.83,-6.422 z"
               style="fill:url(#linearGradient224);stroke:none"
               id="path226" />
          </g>
        </g>
      </g>
    </g>
    <g
       id="g228">
      <g
         id="g230"
         clip-path="url(#clipPath234)">
        <g
           id="g236">
          <g
             id="g238" />
          <g
             id="g258">
            <g
               clip-path="url(#clipPath242)"
               opacity="0.199997"
               id="g256">
              <g
                 id="g254">
                <g
                   clip-path="url(#clipPath246)"
                   id="g252">
                  <g
                     transform="translate(77.8387,-125.4115)"
                     id="g250">
                    <path
                       d="m 0,0 -29.966,57.026 518.85,313.897 29.937,-57.054 z"
                       style="fill:#ffffff;fill-opacity:1;fill-rule:nonzero;stroke:none"
                       id="path248" />
                  </g>
                </g>
              </g>
            </g>
          </g>
        </g>
      </g>
    </g>
    <g
       id="g260">
      <g
         id="g262">
        <g
           id="g268">
          <g
             id="g270">
            <path
               d="m 335.776,186.255 v -8.686 l -28.802,-5.078 v 8.686 l -17.83,-3.144 v -8.686 l -21.487,-3.788 v -15.087 l 21.487,3.789 v -8.23 l 17.83,3.145 v 8.229 l 28.802,5.078 v -8.229 l 18.286,3.224 v 8.229 l 21.486,3.789 v 15.087 l -21.486,-3.789 v 8.686 z"
               style="fill:url(#linearGradient278);stroke:none"
               id="path280" />
          </g>
        </g>
      </g>
    </g>
    <g
       id="g282">
      <g
         id="g284"
         clip-path="url(#clipPath288)">
        <g
           id="g290">
          <g
             id="g292" />
          <g
             id="g312">
            <g
               clip-path="url(#clipPath296)"
               opacity="0.199997"
               id="g310">
              <g
                 id="g308">
                <g
                   clip-path="url(#clipPath300)"
                   id="g306">
                  <g
                     transform="translate(-9.0998,-39.2684)"
                     id="g304">
                    <path
                       d="m 0,0 -31.256,64.389 518.258,315.672 31.256,-64.389 z"
                       style="fill:#ffffff;fill-opacity:1;fill-rule:nonzero;stroke:none"
                       id="path302" />
                  </g>
                </g>
              </g>
            </g>
          </g>
        </g>
        <g
           id="g314"
           transform="translate(69.6026,140.8966)">
          <path
             d="m 0,0 v -0.715 l -23.876,3.136 -21.412,-45.53 7.342,-22.199 0.832,0.235 -6.14,-8.523 5.522,-16.145 -7.349,-1.871 4.141,-29.912 34.54,10.962 v -4.806 l 86.153,15.19 V 14.128 Z"
             style="fill:#000000;fill-opacity:1;fill-rule:nonzero;stroke:none"
             id="path316" />
        </g>
      </g>
    </g>
    <g
       id="g318">
      <g
         id="g320">
        <g
           id="g326">
          <g
             id="g328">
            <path
               d="m 76.106,135.44 v -16.001 l 36.573,6.449 -41.145,-27.37 8.229,14.708 -15.086,4.198 -6.857,-13.096 -7.316,-1.747 16.916,31.327 -17.83,2.342 -18.286,-38.883 4.572,-13.823 12.8,3.628 L 33.59,66.226 38.161,52.86 69.249,62.053 v 15.023 l -13.258,-3.7 13.258,21.539 6.857,-12.506 32.915,19.519 24.687,-9.819 10.058,15.488 -20.572,7.345 10.972,14.277 v 16.459 z M 74.277,81.172 V 64.715 l 22.858,4.03 V 54.115 L 69.706,49.279 v 4.799 L 31.761,44.417 34.047,27.904 69.706,39.221 v -5.943 l 73.146,12.897 V 62.176 L 115.88,57.42 v 14.629 l 22.858,4.032 v 16.457 z"
               style="fill:url(#linearGradient336);stroke:none"
               id="path338" />
          </g>
        </g>
      </g>
    </g>
    <g
       id="g340">
      <g
         id="g342"
         clip-path="url(#clipPath346)">
        <g
           id="g348">
          <g
             id="g350" />
          <g
             id="g370">
            <g
               clip-path="url(#clipPath354)"
               opacity="0.199997"
               id="g368">
              <g
                 id="g366">
                <g
                   clip-path="url(#clipPath358)"
                   id="g364">
                  <g
                     transform="translate(-9.0998,-39.2684)"
                     id="g362">
                    <path
                       d="m 0,0 -31.256,64.389 518.258,315.672 31.256,-64.389 z"
                       style="fill:#ffffff;fill-opacity:1;fill-rule:nonzero;stroke:none"
                       id="path360" />
                  </g>
                </g>
              </g>
            </g>
          </g>
        </g>
        <g
           id="g372"
           transform="translate(395.9098,94.086)">
          <path
             d="m 0,0 -15.409,1.605 -7.421,13.655 -6.278,-14.227 -15.272,-2.84 11.546,-10.364 -1.984,-15.322 13.388,7.712 14.003,-6.707 -3.221,15.198 z"
             style="fill:#000000;fill-opacity:1;fill-rule:nonzero;stroke:none"
             id="path374" />
        </g>
      </g>
    </g>
    <g
       id="g376">
      <g
         id="g378">
        <g
           id="g384">
          <g
             id="g386">
            <path
               d="m 370.174,90.858 -8.173,-1.52 6.165,-5.535 -1.061,-8.2 7.169,4.129 7.484,-3.585 -1.72,8.115 5.706,6.051 -8.259,0.861 -3.957,7.282 z"
               style="fill:url(#radialGradient394);stroke:none"
               id="path396" />
          </g>
        </g>
      </g>
    </g>
    <g
       id="g398">
      <g
         id="g400"
         clip-path="url(#clipPath404)">
        <g
           id="g406"
           transform="translate(166.8687,145.7488)">
          <path
             d="m 0,0 5.425,12.475 -13.202,-3.259 -10.198,9.005 -0.978,-13.569 -11.721,-6.947 12.624,-5.093 2.93,-13.291 8.79,10.418 13.552,-1.306 z"
             style="fill:#000000;fill-opacity:1;fill-rule:nonzero;stroke:none"
             id="path408" />
        </g>
      </g>
    </g>
    <g
       id="g410">
      <g
         id="g412">
        <g
           id="g418">
          <g
             id="g420">
            <path
               d="m 152.031,147.856 -6.194,-3.671 6.681,-2.695 1.549,-7.026 4.645,5.507 7.141,-0.689 -3.814,6.109 2.867,6.595 -6.968,-1.721 -5.391,4.76 z"
               style="fill:url(#radialGradient428);stroke:none"
               id="path430" />
          </g>
        </g>
      </g>
    </g>
    <g
       id="g432">
      <g
         id="g434"
         clip-path="url(#clipPath438)">
        <g
           id="g440"
           transform="translate(40.5908,25.4815)">
          <path
             d="M 0,0 2.887,14.539 -10.391,8 -23.294,15.237 -21.217,0.593 -32.099,-9.48 l 14.6,-2.525 6.129,-13.476 6.989,13.115 14.717,1.726 z"
             style="fill:#000000;fill-opacity:1;fill-rule:nonzero;stroke:none"
             id="path442" />
        </g>
      </g>
    </g>
    <g
       id="g444">
      <g
         id="g446">
        <g
           id="g452">
          <g
             id="g454">
            <path
               d="m 23.933,24.453 -6.165,-5.706 8.287,-1.434 3.47,-7.627 3.957,7.427 8.316,0.974 -5.85,6.022 1.634,8.23 -7.512,-3.699 -7.313,4.1 z"
               style="fill:url(#radialGradient462);stroke:none"
               id="path464" />
          </g>
        </g>
      </g>
    </g>
    <g
       id="g466">
      <g
         id="g468"
         clip-path="url(#clipPath472)">
        <g
           id="g474"
           transform="translate(419.9486,241.1807)">
          <path
             d="m 0,0 -1.527,9.358 -6.499,-6.904 -9.372,1.439 4.558,-8.314 -4.265,-8.469 9.316,1.766 6.736,-6.673 1.2,9.406 8.428,4.344 z"
             style="fill:#ff5500;fill-opacity:1;fill-rule:nonzero;stroke:none"
             id="path476" />
        </g>
        <g
           id="g478"
           transform="translate(439.0719,281.6931)">
          <path
             d="M 0,0 3.985,12.462 -8.33,8.044 l -10.621,7.641 0.396,-13.077 -10.549,-7.74 12.56,-3.665 4.101,-12.424 7.366,10.813 13.084,0.061 z"
             style="fill:#ff5500;fill-opacity:1;fill-rule:nonzero;stroke:none"
             id="path480" />
        </g>
        <g
           id="g482"
           transform="translate(431.2899,327.4954)">
          <path
             d="m 0,0 -8.767,2.725 -2.725,8.767 -5.301,-7.496 -9.18,0.118 5.491,-7.358 -2.948,-8.694 8.694,2.948 7.358,-5.491 -0.118,9.18 z"
             style="fill:#ff5500;fill-opacity:1;fill-rule:nonzero;stroke:none"
             id="path484" />
        </g>
        <g
           id="g486"
           transform="translate(328.0738,239.406)">
          <path
             d="m 0,0 -12.145,-2.141 0.979,7.973 12.145,2.141 1.689,13.753 c 0.196,1.596 -0.501,3.863 -5.088,3.054 l -6.562,-1.157 0.912,7.428 41.683,7.35 -0.912,-7.428 -7.278,-1.283 C 22.314,29.141 20.345,27.115 19.869,23.243 L 18.371,11.04 30.516,13.181 29.537,5.209 17.392,3.067 15.553,-11.914 c -0.29,-2.358 1.381,-3.724 5.166,-3.056 l 6.481,1.142 -0.906,-7.379 -41.682,-7.349 0.906,7.379 7.358,1.297 c 3.006,0.53 5.006,2.629 5.475,6.449 z m 22.264,-0.955 6.66,1.175 -1.112,-9.059 -6.661,-1.175 z m 15.013,-18.462 c -0.459,-3.734 -2.804,-5.978 -5.72,-6.475 l -58.663,-10.344 7.916,64.469 c 0.428,3.487 2.567,5.929 5.72,6.476 l 58.663,10.343 z m -77.911,61.4 -11.626,-94.689 110.996,19.572 11.626,94.688 z"
             style="fill:#ff5500;fill-opacity:1;fill-rule:nonzero;stroke:none"
             id="path488" />
        </g>
        <g
           id="g490"
           transform="translate(271.9668,262.8592)">
          <path
             d="m 0,0 2.031,16.541 -111.668,-19.69 -2.031,-16.541 40.669,7.171 -1.823,-14.848 -40.669,-7.171 -2.036,-16.582 40.669,7.171 -0.753,-6.131 c -2.411,-19.636 -13.961,-26.281 -30.626,-29.231 l -13.034,-2.298 -2.04,-16.619 28.385,5.005 c 21.801,3.834 30.123,10.372 40.891,29.227 4.347,-2.377 15.756,-12.085 20.081,-18.476 l 29.358,5.177 c -7.319,10.381 -36.083,25.433 -43.958,28.005 0.742,4.235 1.352,10.57 1.352,10.57 l 41.343,7.29 2.036,16.582 -41.343,-7.29 1.823,14.848 z"
             style="fill:#ff5500;fill-opacity:1;fill-rule:nonzero;stroke:none"
             id="path492" />
        </g>
        <g
           id="g494"
           transform="translate(128.235,167.0367)">
          <path
             d="m 0,0 1.697,8.173 -7.519,-3.624 -7.249,4.14 1.124,-8.272 -6.177,-5.614 8.213,-1.488 3.431,-7.61 3.953,7.352 8.297,0.912 z"
             style="fill:#ff5500;fill-opacity:1;fill-rule:nonzero;stroke:none"
             id="path496" />
        </g>
        <g
           id="g498"
           transform="translate(128.6657,211.5338)">
          <path
             d="M 0,0 -12.821,1.863 -18.555,13.481 -24.289,1.863 -37.11,0 l 9.277,-9.043 -2.19,-12.77 11.468,6.029 11.468,-6.029 -2.191,12.77 z"
             style="fill:#ff5500;fill-opacity:1;fill-rule:nonzero;stroke:none"
             id="path500" />
        </g>
        <g
           id="g502"
           transform="translate(142.5592,247.4565)">
          <path
             d="m 0,0 -8.51,-0.555 -5.283,6.696 -2.101,-8.266 -8.001,-2.954 7.212,-4.553 0.337,-8.522 6.559,5.451 8.209,-2.312 -3.158,7.922 z"
             style="fill:#ff5500;fill-opacity:1;fill-rule:nonzero;stroke:none"
             id="path504" />
        </g>
        <g
           id="g506"
           transform="translate(371.5817,330.2056)">
          <path
             d="m 0,0 -1.955,11.978 -8.318,-8.837 -11.996,1.842 5.834,-10.642 -5.459,-10.84 11.924,2.261 8.622,-8.542 1.536,12.039 10.788,5.56 z"
             style="fill:#ffaa00;fill-opacity:1;fill-rule:nonzero;stroke:none"
             id="path508" />
        </g>
        <g
           id="g510"
           transform="translate(381.9621,376.1647)">
          <path
             d="M 0,0 5.82,13.238 -8.228,9.806 -19.02,19.432 -20.096,5.011 l -12.49,-7.29 13.383,-5.48 3.073,-14.131 9.347,11.035 14.389,-1.445 z"
             style="fill:#ffaa00;fill-opacity:1;fill-rule:nonzero;stroke:none"
             id="path512" />
        </g>
        <g
           id="g514"
           transform="translate(351.4786,421.3712)">
          <path
             d="m 0,0 -11.691,0.259 -6.414,9.777 -3.859,-11.039 -11.281,-3.079 9.306,-7.081 -0.557,-11.68 9.61,6.662 10.936,-4.139 -3.367,11.198 z"
             style="fill:#ffaa00;fill-opacity:1;fill-rule:nonzero;stroke:none"
             id="path516" />
        </g>
        <g
           id="g518"
           transform="translate(247.1877,325.0989)">
          <path
             d="m 0,0 c 4.462,3.065 9.051,6.705 13.666,10.976 l 36.689,6.469 c 2.205,-2.568 4.049,-5.202 5.457,-7.604 z m 29.54,28.276 5.104,0.9 c 2.536,-0.963 4.942,-2.307 7.185,-3.886 L 24.557,22.244 c 1.67,1.923 3.333,3.933 4.983,6.032 m 38.363,1.611 c -2.396,1.693 -4.527,2.929 -6.715,3.97 l 19.579,3.452 1.173,9.555 -34.566,-6.095 0.647,5.267 39.359,6.94 1.173,9.556 -39.359,-6.941 0.654,5.324 -31.398,-5.536 -0.654,-5.324 -38.646,-6.814 -0.015,-0.003 -1.173,-9.555 37.576,6.626 C 14.827,38.46 13.955,36.582 12.944,34.698 L -17.877,29.264 -19.05,19.708 5.862,24.101 C 3.81,21.556 2.462,19.986 0.502,18.003 l -29.404,-5.185 -1.173,-9.555 15.9,2.804 C -19.074,3.036 -24.049,0.896 -28.704,0.075 l -1.802,-0.318 -1.604,-13.061 43.059,7.593 -0.523,-4.255 -27.739,-4.892 -0.962,-7.83 27.74,4.891 c -1.139,-9.272 -8.863,-13.262 -18.721,-15 l -25.806,-4.55 -1.173,-9.555 30.053,5.299 c 23.082,4.065 32.922,9.022 39.922,16.1 5.618,0.605 14.31,-1.126 20.992,-5.359 l 27.261,4.806 c -9.838,6.566 -30.586,10.186 -41.711,9.53 0.484,2.024 0.581,4.266 0.581,4.266 l 27.739,4.891 0.962,7.83 -27.74,-4.891 0.523,4.255 43.771,7.718 c -1.271,3.307 -4.151,8.91 -9.326,14.563 l 11.36,2.003 v 0 l 1.173,9.556 z"
             style="fill:#ffaa00;fill-opacity:1;fill-rule:nonzero;stroke:none"
             id="path520" />
        </g>
        <g
           id="g522"
           transform="translate(187.722,356.9789)">
          <path
             d="m 0,0 1.272,10.359 -30.479,-5.374 -1.272,-10.359 -18.653,-3.289 1.273,10.367 -30.479,-5.375 -1.273,-10.367 -19.552,-3.447 -1.516,-12.351 19.552,3.447 -1.274,-10.375 30.479,5.375 1.273,10.374 18.654,3.29 -1.275,-10.383 30.479,5.374 1.274,10.383 19.553,3.447 1.516,12.352 z m -102.574,-45.27 118.715,20.933 -4.083,-33.249 c -0.763,-6.22 -6.966,-12.246 -13.854,-13.461 l -37.559,-6.622 1.516,12.351 13.982,2.465 c 4.093,0.722 5.838,3.165 6.257,6.574 l 1.745,14.216 -38.205,-6.737 -5.473,-44.576 -30.479,-5.374 5.473,44.576 -19.552,-3.447 z"
             style="fill:#ffaa00;fill-opacity:1;fill-rule:nonzero;stroke:none"
             id="path524" />
        </g>
        <g
           id="g526"
           transform="translate(80.1985,263.8537)">
          <path
             d="m 0,0 3.884,8.772 -9.325,-2.253 -7.142,6.405 -0.739,-9.564 -8.299,-4.814 8.868,-3.659 2.014,-9.379 6.22,7.303 9.543,-0.984 z"
             style="fill:#ffaa00;fill-opacity:1;fill-rule:nonzero;stroke:none"
             id="path528" />
        </g>
        <g
           id="g530"
           transform="translate(60.0148,311.3951)">
          <path
             d="m 0,0 -2.501,11.645 -7.722,-9.068 -11.847,1.22 6.238,-10.146 -4.822,-10.891 11.578,2.797 8.868,-7.951 0.916,11.876 10.303,5.976 z"
             style="fill:#ffaa00;fill-opacity:1;fill-rule:nonzero;stroke:none"
             id="path532" />
        </g>
        <g
           id="g534"
           transform="translate(72.2498,355.1337)">
          <path
             d="m 0,0 -1.978,9.387 -6.248,-7.28 -9.539,1.019 4.994,-8.191 -3.917,-8.758 9.333,2.218 7.118,-6.431 0.775,9.562 8.317,4.782 z"
             style="fill:#ffaa00;fill-opacity:1;fill-rule:nonzero;stroke:none"
             id="path536" />
        </g>
      </g>
    </g>
  </g>
</svg>
