<?xml version="1.0" encoding="UTF-8"?>
<svg width="667px" height="497px" viewBox="0 0 667 497" version="1.1" xmlns="http://www.w3.org/2000/svg" xmlns:xlink="http://www.w3.org/1999/xlink">
    <title>Rhythm Hell</title>
    <g id="Page-1" stroke="none" stroke-width="1" fill="none" fill-rule="evenodd">
        <g id="Rhythm-Hell" transform="translate(-0.0003, 0.0007)" fill-rule="nonzero">
            <path d="M642.510651,298.709326 C649.035984,315.438659 652.431984,333.362658 652.431984,351.443991 C652.431984,431.347989 587.426652,496.354654 507.522654,496.354654 C460.955988,496.354654 418.021323,474.106655 391.066657,437.721322 C372.383991,447.055989 351.646658,452.021322 330.459992,452.021322 C302.471992,452.021322 275.597326,443.555989 252.74266,427.539989 C240.890661,419.23599 230.559994,409.22799 222.025328,397.86799 C199.099995,412.253323 172.334662,420.137323 144.910663,420.137323 C65.006665,420.137323 1.13686838e-13,355.130658 1.13686838e-13,275.22666 C1.13686838e-13,243.103994 10.2986664,212.671995 29.7813326,187.217329 C43.3893322,169.437329 61.1053318,154.990663 81.0773313,145.14133 C80.803998,141.643996 80.667998,138.130663 80.667998,134.611997 C80.667998,60.3866652 141.054663,5.68434189e-14 215.278661,5.68434189e-14 C243.125327,5.68434189e-14 269.853327,8.43733312 292.574659,24.3973327 C306.090659,33.8919992 317.606659,45.6159989 326.711992,59.0426652 C341.907991,53.2999987 358.093324,50.3306654 374.625324,50.3306654 C416.23599,50.3306654 455.334655,69.7733316 480.761321,101.609331 C497.498654,94.1466643 515.662654,90.2786644 534.44932,90.2786644 C607.354651,90.2786644 666.66665,149.590663 666.66665,222.494661 C666.66665,250.099994 658.197317,276.541326 642.510651,298.709326" id="path20" fill="#0010F0" transform="translate(333.3333, 248.1773) scale(-1, 1) rotate(-180) translate(-333.3333, -248.1773)"></path>
            <path d="M625.189318,296.560393 C633.162651,313.661725 637.342651,332.451058 637.342651,351.443058 C637.342651,423.027056 579.105319,481.264388 507.522654,481.264388 C461.265322,481.264388 419.009323,456.761722 395.83199,417.65639 C376.459991,430.171056 353.765324,436.931056 330.459992,436.931056 C305.586659,436.931056 281.70666,429.411056 261.40266,415.181723 C246.789327,404.941723 234.777327,391.79239 226.018661,376.563057 C203.139995,394.833723 174.449329,405.047057 144.910663,405.047057 C73.3279982,405.047057 15.089333,346.809725 15.089333,275.22706 C15.089333,221.739061 48.3679988,173.701729 97.3933309,154.385729 C96.3053309,147.86973 95.7573309,141.255063 95.7573309,134.612397 C95.7573309,68.7070649 149.374663,15.089733 215.278661,15.089733 C240.003994,15.089733 263.733327,22.5777328 283.901326,36.7443991 C299.355993,47.6017321 311.866659,61.7390651 320.654659,78.156398 C337.321325,69.7883983 355.717324,65.4203984 374.625324,65.4203984 C415.753323,65.4203984 454.117322,86.7897312 476.079988,120.919064 C493.755988,110.705731 513.66932,105.368397 534.44932,105.368397 C599.033318,105.368397 651.575984,157.911063 651.575984,222.495061 C651.575984,249.729727 642.270651,275.688393 625.189318,296.560393" id="path24" fill="#FFFFFF" transform="translate(333.3327, 248.1771) scale(-1, 1) rotate(-180) translate(-333.3327, -248.1771)"></path>
            <path d="M624.170251,351.444925 C624.170251,415.86759 571.944919,468.091588 507.522254,468.091588 C459.568922,468.091588 418.380923,439.151589 400.452923,397.78759 C381.662257,413.97159 357.204924,423.758256 330.459592,423.758256 C284.70226,423.758256 245.639594,395.114257 230.210261,354.780924 C208.918261,377.600924 178.583596,391.874257 144.910263,391.874257 C80.4889313,391.874257 28.2635993,339.650258 28.2635993,275.227593 C28.2635993,221.947594 63.9849317,177.012929 112.784931,163.062263 C110.276931,154.006263 108.930264,144.466263 108.930264,134.61293 C108.930264,75.8782648 156.544929,28.2635993 215.278261,28.2635993 C260.716927,28.2635993 299.491593,56.7635993 314.722259,96.8595976 C331.830258,85.3275979 352.440925,78.5942647 374.626257,78.5942647 C417.36759,78.5942647 454.270255,103.586264 471.524922,139.75293 C488.992921,126.447597 510.796921,118.542264 534.450253,118.542264 C591.862252,118.542264 638.403584,165.083596 638.403584,222.495594 C638.403584,250.472927 627.347584,275.86626 609.370251,294.552926 C618.791585,311.383592 624.170251,330.784925 624.170251,351.444925 Z" id="path28" fill="#130C0E" transform="translate(333.3336, 248.1776) scale(-1, 1) rotate(-180) translate(-333.3336, -248.1776)"></path>
            <path d="M557.924653,90.4379977 L557.924653,201.129995 L542.792653,197.636662 C534.76732,171.135329 530.224653,158.177996 526.268654,147.253996 C519.524654,128.66733 512.529987,135.96733 509.269987,141.15133 C505.479321,147.225996 500.324654,159.043329 491.379321,180.695329 L469.280655,175.593996 L469.280655,73.1699982 L487.604654,77.3993314 C487.465988,93.9806643 487.756654,103.643331 488.648654,108.017997 C489.456654,111.947331 491.824654,112.504664 494.221988,108.603331 C496.200654,105.397997 499.321988,98.4593309 505.535321,84.1913312 L517.824654,87.0286645 C524.596654,105.225997 528.24732,114.39933 530.837987,118.885997 C532.928653,122.536664 536.912653,125.09933 538.11132,118.356664 C539.03132,113.256664 538.94732,102.992664 538.91932,86.0499978 L557.924653,90.4379977 Z" id="path56" fill="#D26DFF" transform="translate(513.6027, 137.15) scale(-1, 1) rotate(-180) translate(-513.6027, -137.15)"></path>
            <path d="M438.056256,227.278261 L438.056256,195.383595 C436.998922,185.094262 418.788256,180.738262 417.49759,191.543595 C417.060256,196.355595 416.82959,203.002262 416.82959,217.191595 L401.528257,213.659595 L401.528257,118.838264 L422.508256,123.68093 L422.508256,146.378263 C423.784256,162.792929 442.806922,163.703596 444.556256,152.05693 C445.145589,148.38493 445.090922,142.58493 445.090922,130.610263 L460.390922,134.142263 L460.390922,232.434261 L438.056256,227.278261 Z" id="path60" fill="#D26DFF" transform="translate(430.9596, 175.6363) scale(-1, 1) rotate(-180) translate(-430.9596, -175.6363)"></path>
            <path d="M333.712792,220.963594 L333.712792,181.886262 L347.830125,185.146262 C353.455458,186.444929 355.431458,185.250262 355.390124,173.947596 L355.390124,123.72893 L372.116791,127.590263 L372.116791,174.062262 C372.232791,194.011595 374.572791,198.140928 384.494124,200.431595 L393.35279,202.476928 L393.35279,234.732927 L333.712792,220.963594 Z" id="path64" fill="#D26DFF" transform="translate(363.5328, 179.2309) scale(-1, 1) rotate(-180) translate(-363.5328, -179.2309)"></path>
            <path d="M325.453459,267.99706 L307.614792,263.878393 C307.614792,263.878393 307.209459,245.902394 306.517459,232.505061 C305.484126,213.501061 285.162793,207.589061 284.036126,226.922394 C283.522793,236.777061 283.358793,256.13306 283.358793,256.13306 L261.846793,251.167727 L261.846793,242.025061 C261.846793,206.423728 266.258793,193.866395 287.442793,196.665062 C292.457459,197.326395 296.262793,198.613062 300.490792,201.661062 C300.765459,201.834395 301.034792,201.807728 301.253459,201.661062 C301.706792,201.334395 302.192126,200.418395 301.444126,198.094395 C297.410793,185.575729 263.040127,182.310395 263.040127,182.310395 L263.030793,154.090396 C282.770793,156.995729 304.318792,161.161063 315.530792,179.930396 C319.765459,186.913062 325.454792,201.038395 325.453459,267.99706" id="path68" fill="#D26DFF" transform="translate(293.6501, 211.0437) scale(-1, 1) rotate(-180) translate(-293.6501, -211.0437)"></path>
            <path d="M230.700261,267.36306 L230.700261,237.051061 C229.696261,227.272394 212.388261,223.132394 211.161595,233.401727 C210.745595,237.975061 210.526928,244.292394 210.526928,257.777727 L195.985595,254.420394 L195.985595,164.304396 L215.924261,168.907062 L215.924261,190.477729 C217.136261,206.077728 235.214927,206.943061 236.877594,195.875062 C237.437594,192.385729 237.385594,186.872395 237.385594,175.492396 L251.926927,178.848396 L251.926927,272.26306 L230.700261,267.36306 Z" id="path72" fill="#D26DFF" transform="translate(223.9563, 218.2837) scale(-1, 1) rotate(-180) translate(-223.9563, -218.2837)"></path>
            <path d="M132.751997,206.308881 C123.62133,203.980881 118.235997,208.871548 118.235997,221.144881 C118.235997,230.934214 118.42133,241.042214 136.343997,241.042214 C149.10533,241.042214 154.427996,234.580881 154.44001,227.291547 C154.451996,220.491548 146.674663,209.858214 132.751997,206.308881 M186.333329,246.746214 C186.333329,269.28888 169.725329,296.555546 100.230664,279.828879 L100.230664,157.227549 L118.327997,161.404882 L118.327997,183.311548 C118.327997,194.006215 125.286664,189.710215 126.823997,188.744882 C129.42133,187.111548 134.846663,182.676882 147.734663,168.194216 L178.478662,175.291549 L154.521329,199.820881 C154.521329,199.820881 186.333329,212.631548 186.333329,246.746214" id="path76" fill="#D26DFF" transform="translate(143.282, 221.1143) scale(-1, 1) rotate(-180) translate(-143.282, -221.1143)"></path>
            <path d="M228.560415,318.024414 C226.715482,332.654163 202.772047,341.714397 200.379853,326.324503 C199.308328,320.331533 198.775446,303.279208 199.294595,284.378039 L179.000265,289.44548 L179.000265,420.997693 L204.865599,414.541753 C204.865599,395.025471 204.865599,386.543253 205.191185,379.851518 C206.095567,362.221784 232.720571,357.691234 235.035799,372.955277 C236.084893,379.906627 236.265767,390.958819 236.265767,406.701212 L256.885682,401.552472 L256.885682,269.997693 L229.428628,276.853648 C229.320111,295.186043 229.356278,311.898179 228.560415,318.024414 Z M287.685496,362.036389 C287.685496,362.036389 283.699002,362.171889 283.260676,359.276157 C283.057706,357.695714 283.829056,356.259365 285.696323,355.005558 C287.320088,354.000043 289.796371,352.937946 293.125069,351.900329 L308.83497,347.460954 L308.83497,333.77127 C308.83497,333.77127 290.952303,338.421331 285.452821,337.705046 C283.78249,337.487493 282.6924,336.619644 282.448794,335.080604 C282.245824,333.500161 283.017174,332.063812 284.884441,330.810005 C289.913526,327.431081 312.488439,322.125111 312.488439,322.125111 L312.488439,290.657998 L266.008267,302.263977 L266.008267,386.263977 L313.462669,374.414735 L313.462669,357.001306 C300.797313,360.124073 292.23872,361.914456 287.685496,362.036389 Z M345.657412,310.608198 L345.657412,353.536655 C345.657412,363.901372 347.82239,368.403219 353.923026,369.336045 C356.467854,369.725164 360.874378,368.968278 365.193501,367.937904 L365.912212,367.763793 C371.889151,366.294255 377.488613,364.390664 377.488613,364.390664 L377.488613,385.777646 C335.423399,399.198255 325.712267,398.706067 325.712267,368.229611 L325.712267,315.588449 L345.657412,310.608198 Z M395.681412,278.369452 L395.681412,321.297909 C395.681412,331.662627 397.84639,336.164473 403.947026,337.097299 C406.491854,337.486419 410.898378,336.729532 415.217501,335.699159 L415.936212,335.525047 C421.913151,334.055509 427.512613,332.151918 427.512613,332.151918 L427.512613,353.538901 C385.447399,366.959509 375.736267,366.467321 375.736267,335.990866 L375.736267,283.349703 L395.681412,278.369452 Z" id="Combined-Shape" fill="#FF0000"></path>
        </g>
    </g>
</svg>