<?xml version="1.0" encoding="UTF-8" standalone="no"?>
<!-- Created with Inkscape (http://www.inkscape.org/) -->

<svg
   version="1.1"
   id="svg2"
   width="666.66669"
   height="566.8573"
   viewBox="0 0 666.66669 566.8573"
   sodipodi:docname="Rhythm Heaven Kaizomix Logo.ai"
   xmlns:inkscape="http://www.inkscape.org/namespaces/inkscape"
   xmlns:sodipodi="http://sodipodi.sourceforge.net/DTD/sodipodi-0.dtd"
   xmlns="http://www.w3.org/2000/svg"
   xmlns:svg="http://www.w3.org/2000/svg">
  <defs
     id="defs6">
    <linearGradient
       x1="0"
       y1="0"
       x2="1"
       y2="0"
       gradientUnits="userSpaceOnUse"
       gradientTransform="matrix(147.10657,-315.47107,-315.47107,-147.10657,166.54849,415.67157)"
       spreadMethod="pad"
       id="linearGradient26">
      <stop
         style="stop-opacity:1;stop-color:#941800"
         offset="0"
         id="stop22" />
      <stop
         style="stop-opacity:1;stop-color:#e90d00"
         offset="1"
         id="stop24" />
    </linearGradient>
    <clipPath
       clipPathUnits="userSpaceOnUse"
       id="clipPath36">
      <path
         d="M 0,425.143 H 500 V 0 H 0 Z"
         id="path34" />
    </clipPath>
    <linearGradient
       x1="0"
       y1="0"
       x2="1"
       y2="0"
       gradientUnits="userSpaceOnUse"
       gradientTransform="matrix(58.28981,-0.2040143,0.2040143,58.28981,432.7681,172.77832)"
       spreadMethod="pad"
       id="linearGradient96">
      <stop
         style="stop-opacity:1;stop-color:#ff8232"
         offset="0"
         id="stop90" />
      <stop
         style="stop-opacity:1;stop-color:#c80000"
         offset="0.75"
         id="stop92" />
      <stop
         style="stop-opacity:1;stop-color:#c80000"
         offset="1"
         id="stop94" />
    </linearGradient>
    <clipPath
       clipPathUnits="userSpaceOnUse"
       id="clipPath106">
      <path
         d="m 468.724,211.021 0.026,-12.122 c 0,-4.963 -0.078,-6.333 -0.801,-8.039 v 0 c -0.931,-2.326 -3.464,-4.316 -5.868,-4.885 v 0 c -2.533,-0.569 -4.937,0.31 -5.894,2.171 v 0 c -0.723,1.241 -1.059,3.722 -1.059,7.573 v 0 l -0.026,12.123 -22.229,-5.092 v -7.392 c 0,-13.778 2.947,-20.808 10.494,-25.796 v 0 c -3.463,-3.981 -5.324,-6.824 -7.212,-11.115 v 0 c -2.429,-5.532 -3.256,-10.236 -3.231,-19.05 v 0 l 0.026,-10.158 22.126,5.144 -0.025,14.966 c 0,3.178 0.413,6.384 1.033,8.064 v 0 c 0.827,2.43 3.334,4.653 5.868,5.221 v 0 c 2.533,0.569 4.936,-0.517 5.893,-2.533 v 0 c 0.75,-1.577 0.853,-2.998 0.853,-7.625 v 0 l 0.026,-14.966 22.229,5.092 v 10.159 c 0,4.316 0,6.823 -0.206,8.323 v 0 c -0.311,2.687 -1.061,5.737 -2.198,8.09 v 0 c -1.86,3.851 -3.98,6.332 -7.857,8.969 v 0 c 7.753,8.633 10.287,16.258 10.261,30.578 v 0 7.392 z"
         id="path104" />
    </clipPath>
    <clipPath
       clipPathUnits="userSpaceOnUse"
       id="clipPath114">
      <path
         d="M 157.784,348.428 H 717.57 V -38.7717 H 157.784 Z"
         id="path112" />
    </clipPath>
    <linearGradient
       x1="0"
       y1="0"
       x2="1"
       y2="0"
       gradientUnits="userSpaceOnUse"
       gradientTransform="matrix(38.317329,8.7059507,0.037277,40.305256,394.26053,145.81158)"
       spreadMethod="pad"
       id="linearGradient142">
      <stop
         style="stop-opacity:1;stop-color:#ff8232"
         offset="0"
         id="stop136" />
      <stop
         style="stop-opacity:1;stop-color:#c80000"
         offset="0.75"
         id="stop138" />
      <stop
         style="stop-opacity:1;stop-color:#c80000"
         offset="1"
         id="stop140" />
    </linearGradient>
    <clipPath
       clipPathUnits="userSpaceOnUse"
       id="clipPath152">
      <path
         d="m 405.526,185.096 0.052,-73.485 22.229,5.092 -0.078,73.485 z"
         id="path150" />
    </clipPath>
    <clipPath
       clipPathUnits="userSpaceOnUse"
       id="clipPath160">
      <path
         d="M 157.784,348.428 H 717.57 V -38.7717 H 157.784 Z"
         id="path158" />
    </clipPath>
    <linearGradient
       x1="0"
       y1="0"
       x2="1"
       y2="0"
       gradientUnits="userSpaceOnUse"
       gradientTransform="matrix(87.297936,19.8344,0.0851834,91.82708,312.57553,138.35144)"
       spreadMethod="pad"
       id="linearGradient188">
      <stop
         style="stop-opacity:1;stop-color:#ff8232"
         offset="0"
         id="stop182" />
      <stop
         style="stop-opacity:1;stop-color:#c80000"
         offset="0.75"
         id="stop184" />
      <stop
         style="stop-opacity:1;stop-color:#c80000"
         offset="1"
         id="stop186" />
    </linearGradient>
    <clipPath
       clipPathUnits="userSpaceOnUse"
       id="clipPath198">
      <path
         d="m 371.355,188.508 c -5.712,-1.318 -10.106,-3.619 -15.121,-7.987 v 0 c -5.143,2.042 -9.538,2.327 -15.25,1.008 v 0 c -8.401,-1.939 -15.638,-6.798 -20.963,-14.164 v 0 c -5.609,-7.755 -7.47,-14.604 -7.444,-27.632 v 0 -3.024 l 0.026,-35.153 21.687,4.963 -0.026,40.322 c -0.027,4.006 0.18,5.867 0.801,7.522 v 0 c 0.724,2.094 2.637,3.929 4.704,4.394 v 0 c 2.017,0.466 4.084,-0.439 4.808,-2.119 v 0 c 0.621,-1.293 0.827,-2.843 0.827,-7.135 v 0 l 0.026,-40.426 21.686,4.989 -0.026,40.426 c 0,4.731 0.104,5.712 0.724,7.47 v 0 c 0.827,2.146 2.765,3.877 4.808,4.343 v 0 c 2.042,0.491 3.98,-0.466 4.704,-2.249 v 0 c 0.62,-1.396 0.827,-3.153 0.827,-7.134 v 0 l 0.026,-40.322 21.66,4.988 -0.026,36.574 v 3.749 c -0.025,10.882 -2.067,17.137 -7.391,22.073 v 0 c -3.839,3.54 -8.723,5.335 -14.298,5.334 v 0 c -2.16,0 -4.423,-0.269 -6.769,-0.81"
         id="path196" />
    </clipPath>
    <clipPath
       clipPathUnits="userSpaceOnUse"
       id="clipPath206">
      <path
         d="M 157.784,348.428 H 717.57 V -38.7717 H 157.784 Z"
         id="path204" />
    </clipPath>
    <linearGradient
       x1="0"
       y1="0"
       x2="1"
       y2="0"
       gradientUnits="userSpaceOnUse"
       gradientTransform="matrix(73.559509,0,0,-73.559509,233.8053,117.13698)"
       spreadMethod="pad"
       id="linearGradient234">
      <stop
         style="stop-opacity:1;stop-color:#ff8232"
         offset="0"
         id="stop228" />
      <stop
         style="stop-opacity:1;stop-color:#c80000"
         offset="0.75"
         id="stop230" />
      <stop
         style="stop-opacity:1;stop-color:#c80000"
         offset="1"
         id="stop232" />
    </linearGradient>
    <clipPath
       clipPathUnits="userSpaceOnUse"
       id="clipPath244">
      <path
         d="m 269.283,153.614 c -2.637,-0.699 -5.273,-1.68 -7.858,-2.999 v 0 c -3.749,-1.809 -7.367,-4.213 -10.624,-7.056 v 0 c -3.076,-2.688 -5.867,-5.765 -8.246,-9.099 v 0 c -2.455,-3.463 -4.471,-7.212 -5.919,-11.063 v 0 c -1.758,-4.548 -2.687,-9.253 -2.817,-13.802 v 0 c -0.13,-4.757 0.646,-9.305 2.3,-13.338 v 0 c 1.37,-3.334 3.309,-6.28 5.739,-8.763 v 0 c 2.378,-2.403 5.196,-4.341 8.348,-5.712 v 0 c 3.206,-1.395 6.721,-2.197 10.417,-2.378 v 0 c 4.704,-0.232 9.668,0.543 14.527,2.276 v 0 c 4.446,1.575 8.814,3.979 12.769,7.004 v 0 c 3.179,2.455 6.125,5.298 8.684,8.452 v 0 c 2.534,3.128 4.704,6.54 6.411,10.081 v 0 c 2.042,4.29 3.412,8.788 4.006,13.234 v 0 c 0.698,5.273 0.336,10.416 -1.086,15.043 v 0 c -1.136,3.67 -2.92,6.979 -5.273,9.77 v 0 c -2.119,2.508 -4.678,4.601 -7.573,6.178 v 0 c -2.947,1.603 -6.229,2.662 -9.718,3.154 v 0 c -1.467,0.21 -2.966,0.314 -4.486,0.314 v 0 c -3.144,0 -6.378,-0.443 -9.601,-1.296 m -7.448,-42.116 -8.75,7.001 12.095,4.627 5.405,12.795 5.405,-10.267 12.095,0.933 -8.75,-11.005 2.139,-12.329 -10.85,3.539 -10.85,-8.438 z"
         id="path242" />
    </clipPath>
    <clipPath
       clipPathUnits="userSpaceOnUse"
       id="clipPath252">
      <path
         d="M 157.784,348.428 H 717.57 V -38.7717 H 157.784 Z"
         id="path250" />
    </clipPath>
    <linearGradient
       x1="0"
       y1="0"
       x2="1"
       y2="0"
       gradientUnits="userSpaceOnUse"
       gradientTransform="matrix(55.133339,12.730288,0,55.133339,174.78278,106.37579)"
       spreadMethod="pad"
       id="linearGradient280">
      <stop
         style="stop-opacity:1;stop-color:#ff8232"
         offset="0"
         id="stop274" />
      <stop
         style="stop-opacity:1;stop-color:#c80000"
         offset="0.75"
         id="stop276" />
      <stop
         style="stop-opacity:1;stop-color:#c80000"
         offset="1"
         id="stop278" />
    </linearGradient>
    <clipPath
       clipPathUnits="userSpaceOnUse"
       id="clipPath290">
      <path
         d="m 175.868,143.403 c 0,-5.609 0,-11.243 0.026,-16.878 v 0 c 7.962,1.861 15.948,3.696 23.91,5.531 v 0 c -8.35,-20.833 -16.672,-41.64 -25.021,-62.448 v 0 c 18.378,4.239 36.756,8.478 55.133,12.717 v 0 16.878 c -8.736,-2.016 -17.499,-4.032 -26.235,-6.048 v 0 c 8.245,20.808 16.517,41.589 24.788,62.397 v 0 c -17.525,-4.058 -35.076,-8.091 -52.601,-12.149"
         id="path288" />
    </clipPath>
    <clipPath
       clipPathUnits="userSpaceOnUse"
       id="clipPath298">
      <path
         d="M -195.358,303.376 H 364.428 V -83.8244 h -559.786 z"
         id="path296" />
    </clipPath>
    <linearGradient
       x1="0"
       y1="0"
       x2="1"
       y2="0"
       gradientUnits="userSpaceOnUse"
       gradientTransform="matrix(38.317329,8.7059507,0.037277,40.305256,134.77431,85.896347)"
       spreadMethod="pad"
       id="linearGradient326">
      <stop
         style="stop-opacity:1;stop-color:#ff8232"
         offset="0"
         id="stop320" />
      <stop
         style="stop-opacity:1;stop-color:#c80000"
         offset="0.75"
         id="stop322" />
      <stop
         style="stop-opacity:1;stop-color:#c80000"
         offset="1"
         id="stop324" />
    </linearGradient>
    <clipPath
       clipPathUnits="userSpaceOnUse"
       id="clipPath336">
      <path
         d="m 146.04,125.181 0.052,-73.485 22.229,5.091 -0.078,73.486 z"
         id="path334" />
    </clipPath>
    <clipPath
       clipPathUnits="userSpaceOnUse"
       id="clipPath344">
      <path
         d="M -195.358,303.376 H 364.428 V -83.8244 h -559.786 z"
         id="path342" />
    </clipPath>
    <linearGradient
       x1="0"
       y1="0"
       x2="1"
       y2="0"
       gradientUnits="userSpaceOnUse"
       gradientTransform="matrix(56.684204,0,0,56.684204,83.410828,88.949394)"
       spreadMethod="pad"
       id="linearGradient372">
      <stop
         style="stop-opacity:1;stop-color:#ff8232"
         offset="0"
         id="stop366" />
      <stop
         style="stop-opacity:1;stop-color:#c80000"
         offset="0.75"
         id="stop368" />
      <stop
         style="stop-opacity:1;stop-color:#c80000"
         offset="1"
         id="stop370" />
    </linearGradient>
    <clipPath
       clipPathUnits="userSpaceOnUse"
       id="clipPath382">
      <path
         d="m 111.74,128.593 c -8.607,-1.965 -17.085,-8.116 -22.204,-16.155 v 0 C 85.039,105.381 83.515,99.023 83.411,88.089 v 0 -2.17 l 0.025,-37.325 21.687,4.988 -0.025,15.716 13.285,3.05 0.026,-15.715 21.686,4.988 -0.026,37.97 v 3.438 c 0.026,9.151 -1.939,15.38 -6.333,19.955 v 0 c -3.934,4.129 -9.615,6.321 -15.804,6.321 v 0 c -2.024,0 -4.102,-0.234 -6.192,-0.712 m -5.764,-33.292 -5.816,4.652 8.039,3.076 3.593,8.504 3.593,-6.823 8.038,0.62 -5.816,-7.316 1.423,-8.193 -7.212,2.353 -7.212,-5.609 z"
         id="path380" />
    </clipPath>
    <clipPath
       clipPathUnits="userSpaceOnUse"
       id="clipPath390">
      <path
         d="M -195.358,303.376 H 364.428 V -83.8244 h -559.786 z"
         id="path388" />
    </clipPath>
    <linearGradient
       x1="0"
       y1="0"
       x2="1"
       y2="0"
       gradientUnits="userSpaceOnUse"
       gradientTransform="matrix(54.900711,12.676575,0,54.900711,22.598362,59.907337)"
       spreadMethod="pad"
       id="linearGradient418">
      <stop
         style="stop-opacity:1;stop-color:#ff8232"
         offset="0"
         id="stop412" />
      <stop
         style="stop-opacity:1;stop-color:#c80000"
         offset="0.75"
         id="stop414" />
      <stop
         style="stop-opacity:1;stop-color:#c80000"
         offset="1"
         id="stop416" />
    </linearGradient>
    <clipPath
       clipPathUnits="userSpaceOnUse"
       id="clipPath428">
      <path
         d="m 57.072,104.632 v -8.659 c 0,-2.791 0.052,-5.557 -0.232,-8.375 v 0 c -0.13,-1.215 -0.311,-2.455 -0.647,-3.696 v 0 C 55.909,82.894 55.547,81.886 54.978,80.93 v 0 c -0.465,-0.776 -1.034,-1.526 -1.731,-2.12 v 0 C 52.367,78.008 51.359,77.44 50.325,77 v 0 C 49.111,76.484 47.87,76.147 46.629,75.864 v 0 c -1.473,-0.337 -2.947,-0.673 -4.42,-1.009 v 0 26.339 C 35.67,99.695 29.13,98.17 22.591,96.671 v 0 c 0,-24.504 0,-49.008 -0.077,-73.537 v 0 c 6.539,1.499 13.078,3.024 19.618,4.523 v 0 30.319 c 1.292,0.311 2.611,0.621 3.903,0.906 v 0 c 1.344,0.309 2.714,0.594 4.058,0.723 v 0 c 0.931,0.078 1.861,0.051 2.714,-0.181 v 0 c 0.93,-0.258 1.783,-0.672 2.482,-1.267 v 0 c 1.189,-1.033 1.86,-2.584 2.171,-4.239 v 0 c 0.258,-1.266 0.335,-2.61 0.335,-3.98 v 0 -18.662 c 6.541,1.499 13.08,3.024 19.619,4.523 v 0 18.378 c -0.026,2.068 -0.077,4.11 -0.31,6.1 v 0 c -0.232,2.119 -0.646,4.213 -1.396,6.1 v 0 c -0.569,1.473 -1.37,2.818 -2.378,3.98 v 0 c -1.189,1.396 -2.636,2.559 -4.161,3.568 v 0 c 1.938,1.964 3.747,4.136 5.014,6.565 v 0 c 1.034,1.964 1.681,4.058 2.016,6.126 v 0 c 0.466,2.688 0.492,5.351 0.492,7.987 v 0 14.553 c -6.541,-1.5 -13.08,-3.025 -19.619,-4.524"
         id="path426" />
    </clipPath>
    <clipPath
       clipPathUnits="userSpaceOnUse"
       id="clipPath436">
      <path
         d="M -195.358,303.376 H 364.428 V -83.8244 h -559.786 z"
         id="path434" />
    </clipPath>
    <clipPath
       clipPathUnits="userSpaceOnUse"
       id="clipPath452">
      <path
         d="m 57.072,104.632 v -8.659 c 0,-2.791 0.052,-5.557 -0.232,-8.375 v 0 c -0.13,-1.215 -0.311,-2.455 -0.647,-3.696 v 0 C 55.909,82.894 55.547,81.886 54.978,80.93 v 0 c -0.465,-0.776 -1.034,-1.526 -1.731,-2.12 v 0 C 52.367,78.008 51.359,77.44 50.325,77 v 0 C 49.111,76.484 47.87,76.147 46.629,75.864 v 0 c -1.473,-0.337 -2.947,-0.673 -4.42,-1.009 v 0 26.339 C 35.67,99.695 29.13,98.17 22.591,96.671 v 0 c 0,-24.504 0,-49.008 -0.077,-73.537 v 0 c 6.539,1.499 13.078,3.024 19.618,4.523 v 0 30.319 c 1.292,0.311 2.611,0.621 3.903,0.906 v 0 c 1.344,0.309 2.714,0.594 4.058,0.723 v 0 c 0.931,0.078 1.861,0.051 2.714,-0.181 v 0 c 0.93,-0.258 1.783,-0.672 2.482,-1.267 v 0 c 1.189,-1.033 1.86,-2.584 2.171,-4.239 v 0 c 0.258,-1.266 0.335,-2.61 0.335,-3.98 v 0 -18.662 c 6.541,1.499 13.08,3.024 19.619,4.523 v 0 18.378 c -0.026,2.068 -0.077,4.11 -0.31,6.1 v 0 c -0.232,2.119 -0.646,4.213 -1.396,6.1 v 0 c -0.569,1.473 -1.37,2.818 -2.378,3.98 v 0 c -1.189,1.396 -2.636,2.559 -4.161,3.568 v 0 c 1.938,1.964 3.747,4.136 5.014,6.565 v 0 c 1.034,1.964 1.681,4.058 2.016,6.126 v 0 c 0.466,2.688 0.492,5.351 0.492,7.987 v 0 14.553 c -6.541,-1.5 -13.08,-3.025 -19.619,-4.524"
         id="path450" />
    </clipPath>
    <clipPath
       clipPathUnits="userSpaceOnUse"
       id="clipPath460">
      <path
         d="M -195.358,303.376 H 364.428 V -83.8244 h -559.786 z"
         id="path458" />
    </clipPath>
    <clipPath
       clipPathUnits="userSpaceOnUse"
       id="clipPath476">
      <path
         d="M 0,425.143 H 500 V 0 H 0 Z"
         id="path474" />
    </clipPath>
    <radialGradient
       fx="0"
       fy="0"
       cx="0"
       cy="0"
       r="1"
       gradientUnits="userSpaceOnUse"
       gradientTransform="matrix(10.277658,2.4864271,-2.4864271,10.279253,435.36417,119.56699)"
       spreadMethod="pad"
       id="radialGradient500">
      <stop
         style="stop-opacity:1;stop-color:#ffc5c3"
         offset="0"
         id="stop494" />
      <stop
         style="stop-opacity:1;stop-color:#ff3b2d"
         offset="0.454"
         id="stop496" />
      <stop
         style="stop-opacity:1;stop-color:#c70000"
         offset="1"
         id="stop498" />
    </radialGradient>
    <clipPath
       clipPathUnits="userSpaceOnUse"
       id="clipPath510">
      <path
         d="M 0,425.143 H 500 V 0 H 0 Z"
         id="path508" />
    </clipPath>
    <radialGradient
       fx="0"
       fy="0"
       cx="0"
       cy="0"
       r="1"
       gradientUnits="userSpaceOnUse"
       gradientTransform="matrix(9.0761213,-1.2807664,1.2804402,9.0775051,228.27806,154.05324)"
       spreadMethod="pad"
       id="radialGradient534">
      <stop
         style="stop-opacity:1;stop-color:#ffc5c3"
         offset="0"
         id="stop528" />
      <stop
         style="stop-opacity:1;stop-color:#ff3b2d"
         offset="0.454"
         id="stop530" />
      <stop
         style="stop-opacity:1;stop-color:#c70000"
         offset="1"
         id="stop532" />
    </radialGradient>
    <clipPath
       clipPathUnits="userSpaceOnUse"
       id="clipPath544">
      <path
         d="M 0,425.143 H 500 V 0 H 0 Z"
         id="path542" />
    </clipPath>
    <radialGradient
       fx="0"
       fy="0"
       cx="0"
       cy="0"
       r="1"
       gradientUnits="userSpaceOnUse"
       gradientTransform="matrix(10.653263,0.769287,-0.769091,10.656488,19.032799,19.375975)"
       spreadMethod="pad"
       id="radialGradient568">
      <stop
         style="stop-opacity:1;stop-color:#ffc5c3"
         offset="0"
         id="stop562" />
      <stop
         style="stop-opacity:1;stop-color:#ff3b2d"
         offset="0.454"
         id="stop564" />
      <stop
         style="stop-opacity:1;stop-color:#c70000"
         offset="1"
         id="stop566" />
    </radialGradient>
    <linearGradient
       x1="0"
       y1="0"
       x2="1"
       y2="0"
       gradientUnits="userSpaceOnUse"
       gradientTransform="matrix(100.11376,-214.69466,-214.69466,-100.11376,181.6169,376.79703)"
       spreadMethod="pad"
       id="linearGradient588">
      <stop
         style="stop-opacity:1;stop-color:#941800"
         offset="0"
         id="stop584" />
      <stop
         style="stop-opacity:1;stop-color:#e90d00"
         offset="1"
         id="stop586" />
    </linearGradient>
  </defs>
  <sodipodi:namedview
     id="namedview4"
     pagecolor="#ffffff"
     bordercolor="#000000"
     borderopacity="0.25"
     inkscape:showpageshadow="2"
     inkscape:pageopacity="0.0"
     inkscape:pagecheckerboard="0"
     inkscape:deskcolor="#d1d1d1" />
  <g
     id="g8"
     inkscape:groupmode="layer"
     inkscape:label="Rhythm Heaven Kaizomix Logo"
     transform="matrix(1.3333333,0,0,-1.3333333,0,566.85733)">
    <g
       id="g10">
      <g
         id="g12">
        <g
           id="g18">
          <g
             id="g20">
            <path
               d="m 324.176,425.143 c -37.374,0 -71.166,-20.916 -88.343,-52.849 v 0 c -10.797,3.796 -22.224,5.76 -33.827,5.76 v 0 c -18.123,0 -35.979,-4.894 -51.479,-13.963 v 0 c -14.406,7.819 -30.463,11.9 -47.114,11.9 v 0 c -54.724,0 -99.245,-44.59 -99.245,-99.398 v 0 c 0,-37.66 21.109,-71.353 53.358,-88.174 v 0 c -2.427,-7.653 -3.674,-15.664 -3.674,-23.812 v 0 c 0,-44.374 36.963,-80.476 82.397,-80.476 v 0 c 27.525,0 52.152,13.091 67.166,33.728 v 0 c 18.303,-16.946 42.549,-26.721 68.469,-26.721 v 0 c 41.889,0 78.828,25.89 93.765,63.653 v 0 c 2.464,-0.185 4.933,-0.278 7.405,-0.278 v 0 c 54.04,0 98.006,43.544 98.006,97.068 v 0 c 0,34.089 -18.147,65.476 -47.101,82.935 v 0 c -4.801,50.769 -47.72,90.627 -99.783,90.627 z"
               style="fill:url(#linearGradient26);stroke:none"
               id="path28" />
          </g>
        </g>
      </g>
    </g>
    <g
       id="g30">
      <g
         id="g32"
         clip-path="url(#clipPath36)">
        <g
           id="g38"
           transform="translate(413.2976,327.8059)">
          <path
             d="m 0,0 c -1.479,47.82 -40.889,86.271 -89.121,86.271 -36.657,0 -69.441,-22.615 -82.81,-56.043 -12.212,5.879 -25.647,8.954 -39.361,8.954 -18.592,0 -36.202,-5.463 -51.282,-15.855 -14.139,9.04 -30.378,13.792 -47.311,13.792 -48.622,0 -88.179,-39.626 -88.179,-88.332 0,-36.879 22.768,-69.475 56.459,-82.446 -4.453,-9.192 -6.775,-19.242 -6.775,-29.539 0,-38.273 31.999,-69.41 71.331,-69.41 28.831,0 53.98,16.518 65.171,41.094 16.823,-21.358 42.554,-34.088 70.464,-34.088 40.188,0 75.256,26.755 86.207,64.659 4.941,-0.853 9.948,-1.284 14.963,-1.284 47.939,0 86.94,38.58 86.94,86.002 C 46.696,-44.143 28.53,-14.757 0,0"
             style="fill:#ffffff;fill-opacity:1;fill-rule:nonzero;stroke:none"
             id="path40" />
        </g>
        <g
           id="g42"
           transform="translate(405.5267,322.9342)">
          <path
             d="m 0,0 c 0.018,0.697 0.053,1.389 0.053,2.09 0,44.896 -36.445,81.291 -81.403,81.291 -37.407,0 -68.899,-25.206 -78.429,-59.531 -12.662,7.87 -27.655,12.443 -43.742,12.443 -19.34,0 -37.102,-6.599 -51.123,-17.61 -13.305,9.767 -29.711,15.547 -47.47,15.547 -44.413,0 -80.418,-36.073 -80.418,-80.571 0,-37.508 25.582,-69.027 60.218,-78.006 -6.651,-9.743 -10.534,-21.419 -10.534,-33.98 0,-34.048 28.461,-61.649 63.57,-61.649 31.536,0 57.695,22.274 62.695,51.482 13.594,-26.401 41.143,-44.475 72.94,-44.475 39.896,0 73.119,28.438 80.451,66.099 6.606,-1.766 13.548,-2.724 20.719,-2.724 43.729,0 79.179,35.029 79.179,78.24 C 46.706,-39.582 27.53,-12.253 0,0"
             style="fill:#000000;fill-opacity:1;fill-rule:nonzero;stroke:none"
             id="path44" />
        </g>
        <g
           id="g46"
           transform="translate(499.9998,227.4667)">
          <path
             d="m 0,0 -76.173,-17.508 v -14.601 c 0,-8.236 0.982,-14.471 3.091,-19.622 1.1,-2.686 2.52,-5.106 4.283,-7.289 -1.24,-1.976 -2.296,-4.014 -3.328,-6.361 -2.979,-6.782 -4.024,-12.726 -3.995,-22.712 l 0.055,-21.519 L 0,-92.073 v 17.367 c 0,4.719 0,7.355 -0.277,9.452 -0.276,2.334 -1.031,6.768 -3.028,10.897 -1.118,2.314 -2.34,4.304 -3.779,6.099 5.158,8.034 7.107,16.672 7.084,29.512 z"
             style="fill:#000000;fill-opacity:1;fill-rule:nonzero;stroke:none"
             id="path48" />
        </g>
        <g
           id="g50"
           transform="translate(436.7641,201.5415)">
          <path
             d="m 0,0 -40.29,-9.24 0.065,-92.042 40.322,9.236 z"
             style="fill:#000000;fill-opacity:1;fill-rule:nonzero;stroke:none"
             id="path52" />
        </g>
        <g
           id="g54"
           transform="translate(408.8914,114.3893)">
          <path
             d="m 0,0 -0.031,43.773 v 3.77 c -0.023,9.489 -1.262,20.318 -10.306,28.702 -7.513,6.93 -17.896,9.306 -29.233,6.689 -5.608,-1.294 -10.293,-3.384 -14.973,-6.75 -4.947,1.138 -9.871,1.047 -15.398,-0.229 -10.585,-2.443 -19.666,-8.557 -26.259,-17.678 -6.793,-9.391 -9.19,-18.014 -9.161,-32.933 l 0.035,-49.526 z"
             style="fill:#000000;fill-opacity:1;fill-rule:nonzero;stroke:none"
             id="path56" />
        </g>
        <g
           id="g58"
           transform="translate(314.576,138.1713)">
          <path
             d="m 0,0 c -1.502,4.848 -3.856,9.195 -7.006,12.934 -2.86,3.383 -6.276,6.169 -10.16,8.284 -3.893,2.118 -8.193,3.519 -12.754,4.161 -5.674,0.815 -11.625,0.415 -17.688,-1.191 -3.317,-0.878 -6.534,-2.102 -9.566,-3.64 -4.466,-2.167 -8.689,-4.974 -12.554,-8.349 -3.624,-3.167 -6.873,-6.752 -9.672,-10.678 -2.929,-4.13 -5.281,-8.529 -6.994,-13.075 -2.099,-5.445 -3.245,-11.086 -3.406,-16.777 -0.165,-6.079 0.835,-11.804 2.975,-17.021 1.808,-4.4 4.38,-8.321 7.643,-11.654 l 0.032,-0.033 c 3.215,-3.249 6.975,-5.822 11.168,-7.644 4.214,-1.835 8.785,-2.885 13.583,-3.119 0.708,-0.036 1.417,-0.053 2.128,-0.053 5.251,0 10.582,0.952 15.869,2.836 5.28,1.873 10.55,4.759 15.24,8.345 l 0.035,0.027 c 3.798,2.933 7.223,6.268 10.185,9.918 2.984,3.685 5.518,7.672 7.53,11.848 l 0.018,0.039 c 2.469,5.187 4.086,10.545 4.806,15.934 C 2.279,-12.365 1.792,-5.833 0,0"
             style="fill:#000000;fill-opacity:1;fill-rule:nonzero;stroke:none"
             id="path60" />
        </g>
        <g
           id="g62"
           transform="translate(243.2565,168.2623)">
          <path
             d="m 0,0 -76.435,-17.668 -6.886,-93.695 79.027,18.228 z"
             style="fill:#000000;fill-opacity:1;fill-rule:nonzero;stroke:none"
             id="path64" />
        </g>
        <g
           id="g66"
           transform="translate(177.278,141.6264)">
          <path
             d="m 0,0 -40.29,-9.24 0.065,-92.042 40.322,9.236 z"
             style="fill:#000000;fill-opacity:1;fill-rule:nonzero;stroke:none"
             id="path68" />
        </g>
        <g
           id="g70"
           transform="translate(149.1467,54.4204)">
          <path
             d="m 0,0 -0.031,45.171 v 3.413 c 0.033,11.574 -2.776,19.91 -8.841,26.232 -7.435,7.794 -18.854,10.85 -30.548,8.176 -10.999,-2.51 -21.4,-10.03 -27.819,-20.112 -5.378,-8.438 -7.422,-16.332 -7.543,-29.126 l -0.001,-0.043 0.034,-50.9 z"
             style="fill:#000000;fill-opacity:1;fill-rule:nonzero;stroke:none"
             id="path72" />
        </g>
        <g
           id="g74"
           transform="translate(86.4601,54.2902)">
          <path
             d="m 0,0 c -0.026,2.086 -0.078,4.518 -0.367,7.004 -0.352,3.193 -0.994,5.935 -1.961,8.383 -0.713,1.836 -1.645,3.549 -2.779,5.112 0.301,0.501 0.583,1.003 0.846,1.507 1.424,2.71 2.407,5.679 2.923,8.825 0.568,3.309 0.615,6.374 0.615,9.482 V 66.22 l -72.193,-16.632 -0.113,-92.108 73.03,16.821 v 25.586 z"
             style="fill:#000000;fill-opacity:1;fill-rule:nonzero;stroke:none"
             id="path76" />
        </g>
      </g>
    </g>
    <g
       id="g78">
      <g
         id="g80">
        <g
           id="g86">
          <g
             id="g88">
            <path
               d="m 468.724,211.021 0.026,-12.122 c 0,-4.963 -0.078,-6.333 -0.801,-8.039 v 0 c -0.931,-2.326 -3.464,-4.316 -5.868,-4.885 v 0 c -2.533,-0.569 -4.937,0.31 -5.894,2.171 v 0 c -0.723,1.241 -1.059,3.722 -1.059,7.573 v 0 l -0.026,12.123 -22.229,-5.092 v -7.392 c 0,-13.778 2.947,-20.808 10.494,-25.796 v 0 c -3.463,-3.981 -5.324,-6.824 -7.212,-11.115 v 0 c -2.429,-5.532 -3.256,-10.236 -3.231,-19.05 v 0 l 0.026,-10.158 22.126,5.144 -0.025,14.966 c 0,3.178 0.413,6.384 1.033,8.064 v 0 c 0.827,2.43 3.334,4.653 5.868,5.221 v 0 c 2.533,0.569 4.936,-0.517 5.893,-2.533 v 0 c 0.75,-1.577 0.853,-2.998 0.853,-7.625 v 0 l 0.026,-14.966 22.229,5.092 v 10.159 c 0,4.316 0,6.823 -0.206,8.323 v 0 c -0.311,2.687 -1.061,5.737 -2.198,8.09 v 0 c -1.86,3.851 -3.98,6.332 -7.857,8.969 v 0 c 7.753,8.633 10.287,16.258 10.261,30.578 v 0 7.392 z"
               style="fill:url(#linearGradient96);stroke:none"
               id="path98" />
          </g>
        </g>
      </g>
    </g>
    <g
       id="g100">
      <g
         id="g102"
         clip-path="url(#clipPath106)">
        <g
           id="g108">
          <g
             id="g110" />
          <g
             id="g122">
            <g
               clip-path="url(#clipPath114)"
               opacity="0.199997"
               id="g120">
              <g
                 transform="translate(189.6283,-38.7717)"
                 id="g118">
                <path
                   d="M 0,0 -31.844,65.628 496.071,387.2 527.941,321.572 Z"
                   style="fill:#ffffff;fill-opacity:1;fill-rule:nonzero;stroke:none"
                   id="path116" />
              </g>
            </g>
          </g>
        </g>
      </g>
    </g>
    <g
       id="g124">
      <g
         id="g126">
        <g
           id="g132">
          <g
             id="g134">
            <path
               d="m 405.526,185.096 0.052,-73.485 22.229,5.092 -0.078,73.485 z"
               style="fill:url(#linearGradient142);stroke:none"
               id="path144" />
          </g>
        </g>
      </g>
    </g>
    <g
       id="g146">
      <g
         id="g148"
         clip-path="url(#clipPath152)">
        <g
           id="g154">
          <g
             id="g156" />
          <g
             id="g168">
            <g
               clip-path="url(#clipPath160)"
               opacity="0.199997"
               id="g166">
              <g
                 transform="translate(189.6284,-38.7717)"
                 id="g164">
                <path
                   d="M 0,0 -31.844,65.628 496.071,387.2 527.941,321.572 Z"
                   style="fill:#ffffff;fill-opacity:1;fill-rule:nonzero;stroke:none"
                   id="path162" />
              </g>
            </g>
          </g>
        </g>
      </g>
    </g>
    <g
       id="g170">
      <g
         id="g172">
        <g
           id="g178">
          <g
             id="g180">
            <path
               d="m 371.355,188.508 c -5.712,-1.318 -10.106,-3.619 -15.121,-7.987 v 0 c -5.143,2.042 -9.538,2.327 -15.25,1.008 v 0 c -8.401,-1.939 -15.638,-6.798 -20.963,-14.164 v 0 c -5.609,-7.755 -7.47,-14.604 -7.444,-27.632 v 0 -3.024 l 0.026,-35.153 21.687,4.963 -0.026,40.322 c -0.027,4.007 0.18,5.867 0.801,7.522 v 0 c 0.724,2.094 2.637,3.929 4.704,4.394 v 0 c 2.017,0.466 4.084,-0.439 4.808,-2.119 v 0 c 0.621,-1.293 0.827,-2.843 0.827,-7.135 v 0 l 0.026,-40.426 21.686,4.989 -0.026,40.426 c 0,4.731 0.104,5.712 0.724,7.47 v 0 c 0.827,2.146 2.765,3.877 4.808,4.343 v 0 c 2.042,0.491 3.98,-0.466 4.704,-2.249 v 0 c 0.62,-1.396 0.827,-3.153 0.827,-7.134 v 0 l 0.026,-40.322 21.66,4.988 -0.026,36.574 v 3.749 c -0.025,10.882 -2.067,17.137 -7.391,22.073 v 0 c -3.839,3.54 -8.723,5.335 -14.298,5.334 v 0 c -2.16,0 -4.423,-0.269 -6.769,-0.81"
               style="fill:url(#linearGradient188);stroke:none"
               id="path190" />
          </g>
        </g>
      </g>
    </g>
    <g
       id="g192">
      <g
         id="g194"
         clip-path="url(#clipPath198)">
        <g
           id="g200">
          <g
             id="g202" />
          <g
             id="g214">
            <g
               clip-path="url(#clipPath206)"
               opacity="0.199997"
               id="g212">
              <g
                 transform="translate(189.6283,-38.7717)"
                 id="g210">
                <path
                   d="M 0,0 -31.844,65.628 496.071,387.2 527.941,321.572 Z"
                   style="fill:#ffffff;fill-opacity:1;fill-rule:nonzero;stroke:none"
                   id="path208" />
              </g>
            </g>
          </g>
        </g>
      </g>
    </g>
    <g
       id="g216">
      <g
         id="g218">
        <g
           id="g224">
          <g
             id="g226">
            <path
               d="m 269.283,153.614 c -2.637,-0.699 -5.273,-1.68 -7.858,-2.999 v 0 c -3.749,-1.809 -7.367,-4.213 -10.624,-7.056 v 0 c -3.076,-2.688 -5.867,-5.765 -8.246,-9.099 v 0 c -2.455,-3.463 -4.471,-7.212 -5.919,-11.063 v 0 c -1.758,-4.548 -2.687,-9.253 -2.817,-13.802 v 0 c -0.13,-4.757 0.646,-9.305 2.3,-13.338 v 0 c 1.37,-3.334 3.309,-6.28 5.739,-8.763 v 0 c 2.378,-2.403 5.196,-4.341 8.348,-5.712 v 0 c 3.206,-1.395 6.721,-2.197 10.417,-2.378 v 0 c 4.704,-0.232 9.668,0.543 14.527,2.276 v 0 c 4.446,1.575 8.814,3.979 12.769,7.004 v 0 c 3.179,2.455 6.125,5.298 8.684,8.452 v 0 c 2.534,3.128 4.704,6.54 6.411,10.081 v 0 c 2.042,4.29 3.412,8.788 4.006,13.234 v 0 c 0.698,5.273 0.336,10.416 -1.086,15.043 v 0 c -1.136,3.67 -2.92,6.979 -5.273,9.77 v 0 c -2.119,2.508 -4.678,4.601 -7.573,6.178 v 0 c -2.947,1.603 -6.229,2.662 -9.718,3.154 v 0 c -1.467,0.21 -2.966,0.314 -4.486,0.314 v 0 c -3.144,0 -6.378,-0.443 -9.601,-1.296 m -7.448,-42.116 -8.75,7.001 12.095,4.627 5.405,12.795 5.405,-10.267 12.095,0.933 -8.75,-11.005 2.139,-12.329 -10.85,3.539 -10.85,-8.438 z"
               style="fill:url(#linearGradient234);stroke:none"
               id="path236" />
          </g>
        </g>
      </g>
    </g>
    <g
       id="g238">
      <g
         id="g240"
         clip-path="url(#clipPath244)">
        <g
           id="g246">
          <g
             id="g248" />
          <g
             id="g260">
            <g
               clip-path="url(#clipPath252)"
               opacity="0.199997"
               id="g258">
              <g
                 transform="translate(189.6283,-38.7717)"
                 id="g256">
                <path
                   d="M 0,0 -31.844,65.628 496.071,387.2 527.941,321.572 Z"
                   style="fill:#ffffff;fill-opacity:1;fill-rule:nonzero;stroke:none"
                   id="path254" />
              </g>
            </g>
          </g>
        </g>
      </g>
    </g>
    <g
       id="g262">
      <g
         id="g264">
        <g
           id="g270">
          <g
             id="g272">
            <path
               d="m 175.868,143.403 c 0,-5.609 0,-11.243 0.026,-16.878 v 0 c 7.962,1.861 15.948,3.696 23.91,5.531 v 0 c -8.35,-20.833 -16.672,-41.64 -25.021,-62.448 v 0 c 18.378,4.239 36.756,8.478 55.133,12.717 v 0 16.878 c -8.736,-2.016 -17.499,-4.032 -26.235,-6.048 v 0 c 8.245,20.808 16.517,41.589 24.788,62.397 v 0 c -17.525,-4.058 -35.076,-8.091 -52.601,-12.149"
               style="fill:url(#linearGradient280);stroke:none"
               id="path282" />
          </g>
        </g>
      </g>
    </g>
    <g
       id="g284">
      <g
         id="g286"
         clip-path="url(#clipPath290)">
        <g
           id="g292">
          <g
             id="g294" />
          <g
             id="g306">
            <g
               clip-path="url(#clipPath298)"
               opacity="0.199997"
               id="g304">
              <g
                 transform="translate(-163.5131,-83.8244)"
                 id="g302">
                <path
                   d="M 0,0 -31.844,65.628 496.071,387.2 527.941,321.572 Z"
                   style="fill:#ffffff;fill-opacity:1;fill-rule:nonzero;stroke:none"
                   id="path300" />
              </g>
            </g>
          </g>
        </g>
      </g>
    </g>
    <g
       id="g308">
      <g
         id="g310">
        <g
           id="g316">
          <g
             id="g318">
            <path
               d="m 146.04,125.181 0.052,-73.485 22.229,5.091 -0.078,73.486 z"
               style="fill:url(#linearGradient326);stroke:none"
               id="path328" />
          </g>
        </g>
      </g>
    </g>
    <g
       id="g330">
      <g
         id="g332"
         clip-path="url(#clipPath336)">
        <g
           id="g338">
          <g
             id="g340" />
          <g
             id="g352">
            <g
               clip-path="url(#clipPath344)"
               opacity="0.199997"
               id="g350">
              <g
                 transform="translate(-163.5131,-83.8244)"
                 id="g348">
                <path
                   d="M 0,0 -31.844,65.628 496.071,387.2 527.941,321.572 Z"
                   style="fill:#ffffff;fill-opacity:1;fill-rule:nonzero;stroke:none"
                   id="path346" />
              </g>
            </g>
          </g>
        </g>
      </g>
    </g>
    <g
       id="g354">
      <g
         id="g356">
        <g
           id="g362">
          <g
             id="g364">
            <path
               d="m 111.74,128.593 c -8.607,-1.965 -17.085,-8.116 -22.204,-16.155 v 0 C 85.039,105.381 83.515,99.023 83.411,88.089 v 0 -2.17 l 0.025,-37.325 21.687,4.988 -0.025,15.716 13.285,3.05 0.026,-15.715 21.686,4.988 -0.026,37.97 v 3.438 c 0.026,9.151 -1.939,15.38 -6.333,19.955 v 0 c -3.934,4.129 -9.615,6.321 -15.804,6.321 v 0 c -2.024,0 -4.102,-0.234 -6.192,-0.712 m -5.764,-33.292 -5.816,4.652 8.039,3.076 3.593,8.504 3.593,-6.823 8.038,0.62 -5.816,-7.316 1.423,-8.193 -7.212,2.353 -7.212,-5.609 z"
               style="fill:url(#linearGradient372);stroke:none"
               id="path374" />
          </g>
        </g>
      </g>
    </g>
    <g
       id="g376">
      <g
         id="g378"
         clip-path="url(#clipPath382)">
        <g
           id="g384">
          <g
             id="g386" />
          <g
             id="g398">
            <g
               clip-path="url(#clipPath390)"
               opacity="0.199997"
               id="g396">
              <g
                 transform="translate(-163.5131,-83.8244)"
                 id="g394">
                <path
                   d="M 0,0 -31.844,65.628 496.071,387.2 527.941,321.572 Z"
                   style="fill:#ffffff;fill-opacity:1;fill-rule:nonzero;stroke:none"
                   id="path392" />
              </g>
            </g>
          </g>
        </g>
      </g>
    </g>
    <g
       id="g400">
      <g
         id="g402">
        <g
           id="g408">
          <g
             id="g410">
            <path
               d="m 57.072,104.632 v -8.659 c 0,-2.791 0.052,-5.557 -0.232,-8.375 v 0 c -0.13,-1.215 -0.311,-2.455 -0.647,-3.696 v 0 C 55.909,82.894 55.547,81.886 54.978,80.93 v 0 c -0.465,-0.776 -1.034,-1.526 -1.731,-2.12 v 0 C 52.367,78.008 51.359,77.44 50.325,77 v 0 C 49.111,76.484 47.87,76.147 46.629,75.864 v 0 c -1.473,-0.337 -2.947,-0.673 -4.42,-1.009 v 0 26.339 C 35.67,99.695 29.13,98.17 22.591,96.671 v 0 c 0,-24.504 0,-49.008 -0.077,-73.537 v 0 c 6.539,1.499 13.078,3.024 19.618,4.523 v 0 30.319 c 1.292,0.311 2.611,0.621 3.903,0.906 v 0 c 1.344,0.309 2.714,0.594 4.058,0.723 v 0 c 0.931,0.078 1.861,0.051 2.714,-0.181 v 0 c 0.93,-0.258 1.783,-0.672 2.482,-1.267 v 0 c 1.189,-1.033 1.86,-2.584 2.171,-4.239 v 0 c 0.258,-1.266 0.335,-2.61 0.335,-3.98 v 0 -18.662 c 6.541,1.499 13.08,3.024 19.619,4.523 v 0 18.378 c -0.026,2.068 -0.077,4.11 -0.31,6.1 v 0 c -0.232,2.119 -0.646,4.213 -1.396,6.1 v 0 c -0.569,1.473 -1.37,2.818 -2.378,3.98 v 0 c -1.189,1.396 -2.636,2.559 -4.161,3.568 v 0 c 1.938,1.964 3.747,4.136 5.014,6.565 v 0 c 1.034,1.964 1.681,4.058 2.016,6.126 v 0 c 0.466,2.688 0.492,5.351 0.492,7.987 v 0 14.553 c -6.541,-1.5 -13.08,-3.025 -19.619,-4.524"
               style="fill:url(#linearGradient418);stroke:none"
               id="path420" />
          </g>
        </g>
      </g>
    </g>
    <g
       id="g422">
      <g
         id="g424"
         clip-path="url(#clipPath428)">
        <g
           id="g430">
          <g
             id="g432" />
          <g
             id="g444">
            <g
               clip-path="url(#clipPath436)"
               opacity="0.199997"
               id="g442">
              <g
                 transform="translate(-163.5131,-83.8244)"
                 id="g440">
                <path
                   d="M 0,0 -31.844,65.628 496.071,387.2 527.941,321.572 Z"
                   style="fill:#ffffff;fill-opacity:1;fill-rule:nonzero;stroke:none"
                   id="path438" />
              </g>
            </g>
          </g>
        </g>
      </g>
    </g>
    <g
       id="g446">
      <g
         id="g448"
         clip-path="url(#clipPath452)">
        <g
           id="g454">
          <g
             id="g456" />
          <g
             id="g468">
            <g
               clip-path="url(#clipPath460)"
               opacity="0.199997"
               id="g466">
              <g
                 transform="translate(-163.5131,-83.8244)"
                 id="g464">
                <path
                   d="M 0,0 -31.844,65.628 496.071,387.2 527.941,321.572 Z"
                   style="fill:#ffffff;fill-opacity:1;fill-rule:nonzero;stroke:none"
                   id="path462" />
              </g>
            </g>
          </g>
        </g>
      </g>
    </g>
    <g
       id="g470">
      <g
         id="g472"
         clip-path="url(#clipPath476)">
        <g
           id="g478"
           transform="translate(423.1542,101.556)">
          <path
             d="m 0,0 1.809,13.829 -10.365,9.331 13.7,2.559 5.66,12.743 L 17.473,26.21 31.328,24.762 21.738,14.63 24.659,0.982 12.071,6.979 Z"
             style="fill:#000000;fill-opacity:1;fill-rule:nonzero;stroke:none"
             id="path480" />
        </g>
      </g>
    </g>
    <g
       id="g482">
      <g
         id="g484">
        <g
           id="g490">
          <g
             id="g492">
            <path
               d="m 431.322,123.423 -7.366,-1.37 5.556,-4.988 -0.955,-7.393 6.462,3.723 6.746,-3.231 -1.552,7.314 5.145,5.454 -7.445,0.776 -3.567,6.565 z"
               style="fill:url(#radialGradient500);stroke:none"
               id="path502" />
          </g>
        </g>
      </g>
    </g>
    <g
       id="g504">
      <g
         id="g506"
         clip-path="url(#clipPath510)">
        <g
           id="g512"
           transform="translate(224.2813,136.6831)">
          <path
             d="m 0,0 -2.662,12.019 -11.399,4.601 10.572,6.255 0.878,12.278 9.202,-8.142 11.942,2.972 L 13.648,18.714 20.161,8.271 7.909,9.434 Z"
             style="fill:#000000;fill-opacity:1;fill-rule:nonzero;stroke:none"
             id="path514" />
        </g>
      </g>
    </g>
    <g
       id="g516">
      <g
         id="g518">
        <g
           id="g524">
          <g
             id="g526">
            <path
               d="m 224.514,157.258 -5.584,-3.309 6.023,-2.429 1.396,-6.333 4.188,4.963 6.436,-0.62 -3.438,5.505 2.584,5.945 -6.281,-1.55 -4.859,4.29 z"
               style="fill:url(#radialGradient534);stroke:none"
               id="path536" />
          </g>
        </g>
      </g>
    </g>
    <g
       id="g538">
      <g
         id="g540"
         clip-path="url(#clipPath544)">
        <g
           id="g546"
           transform="translate(18.7655)">
          <path
             d="m 0,0 -5.583,12.148 -13.183,2.301 9.823,9.072 -1.913,13.235 11.657,-6.54 11.994,5.893 -2.611,-13.13 9.305,-9.59 -13.286,-1.551 z"
             style="fill:#000000;fill-opacity:1;fill-rule:nonzero;stroke:none"
             id="path548" />
        </g>
      </g>
    </g>
    <g
       id="g550">
      <g
         id="g552">
        <g
           id="g558">
          <g
             id="g560">
            <path
               d="m 13.958,22.074 -5.557,-5.144 7.47,-1.293 3.127,-6.875 3.567,6.695 7.496,0.879 -5.273,5.428 1.473,7.418 -6.771,-3.334 -6.592,3.696 z"
               style="fill:url(#radialGradient568);stroke:none"
               id="path570" />
          </g>
        </g>
      </g>
    </g>
    <g
       id="g572">
      <g
         id="g574">
        <g
           id="g580">
          <g
             id="g582">
            <path
               d="m 357.714,368.281 c -5.265,-17.385 -8.244,-25.886 -10.84,-33.052 v 0 c -4.424,-12.193 -9.012,-7.403 -11.151,-4.003 v 0 c -2.486,3.985 -5.869,11.736 -11.737,25.94 v 0 l -14.496,-3.345 v -68.24 l 12.029,2.777 c -0.092,10.878 0.092,18.262 0.676,21.132 v 0 c 0.531,2.578 2.084,2.944 3.656,0.384 v 0 c 1.298,-2.102 3.346,-6.654 7.422,-16.013 v 0 l 8.06,1.86 c 4.442,11.938 6.838,17.956 8.538,20.899 v 0 c 1.372,2.395 3.986,4.076 4.772,-0.347 v 0 c 0.603,-3.346 0.548,-12.421 0.53,-23.535 v 0 l 12.467,2.878 v 74.956 z M 219.001,327.487 v -25.164 l 7.294,1.684 c 4.424,1.021 6.252,0.445 6.252,-7.386 v 0 -32.303 l 11.974,2.743 v 29.633 c 0,13.163 1.236,16.484 7.751,17.988 v 0 l 5.96,1.376 v 20.486 z m 69.357,5.165 c -0.055,-9.323 -0.037,-17.824 -0.439,-20.932 v 0 c -0.932,-7.422 -13.619,-10.767 -14.241,-3.93 v 0 c -0.292,3.218 -0.548,7.467 -0.548,16.955 v 0 l -10.255,-2.368 v -62.519 l 13.07,3.018 c 0,9.926 0,14.239 0.165,17.64 v 0 c 0.457,8.956 13.911,10.986 15.081,3.198 v 0 c 0.53,-3.546 0.621,-5.246 0.621,-13.253 v 0 l 10.421,2.405 v 62.989 z M 63.818,321.866 v -85.152 l 13.454,3.105 v 21.32 c 0,3.253 2.395,2.687 4.607,0.712 v 0 c 1.554,-1.389 10.896,-10.438 17.422,-16.946 v 0 l 20.539,4.742 c 0,0 -17.907,18.292 -19.973,20.102 v 0 c 12.029,4.496 21.333,16.216 21.333,29.358 v 0 c 0,18.509 -12.711,27.802 -31.199,27.803 v 0 c -7.861,10e-4 -16.764,-1.679 -26.183,-5.044 M 77.291,281.85 v 5.74 c -10e-4,4.14 0.804,7.733 4.497,8.903 v 0 c 10.721,3.397 18.189,-1.225 18.189,-8.482 v 0 c 0,-6.783 -5.192,-11.426 -14.917,-13.711 v 0 c -0.75,-0.176 -1.451,-0.262 -2.1,-0.262 v 0 c -3.664,-0.001 -5.669,2.764 -5.669,7.812 m 75.846,30.054 c -0.055,-9.323 -0.037,-17.824 -0.439,-20.931 v 0 c -0.933,-7.423 -13.619,-10.768 -14.241,-3.931 v 0 c -0.292,3.217 -0.548,7.468 -0.548,16.955 v 0 l -10.256,-2.367 v -62.52 l 13.071,3.018 c 0,9.926 0,14.24 0.165,17.639 v 0 c 0.457,8.958 13.911,10.987 15.081,3.199 v 0 c 0.53,-3.545 0.622,-5.246 0.622,-13.253 v 0 l 10.419,2.406 v 62.988 z m 49.778,-3.62 c 0,0 0.164,-11.517 -0.275,-19.999 v 0 c -0.639,-12.413 -13.143,-15.081 -14.148,-3.272 v 0 c -0.513,6.197 -0.75,18.549 -0.75,18.549 v 0 L 173.83,300.35 v -10.072 c 0,-24.039 15.63,-27.001 23.802,-20.146 v 0 c 0.493,0.421 0.986,0.677 1.389,0.494 v 0 c 0.457,-0.201 0.439,-0.694 0.256,-1.609 v 0 c -0.494,-2.395 -4.04,-7.129 -11.206,-9.048 v 0 c -5.466,-1.463 -10.822,-2.385 -13.491,-2.806 v 0 -16.681 c 12.029,1.553 25.958,4.99 32.448,14.971 v 0 c 3.381,5.21 5.155,10.713 6.033,18.866 v 0 c 1.37,12.832 1.041,36.548 1.041,36.548 v 0 z m 166.4,-18.212 c 0,0 -0.111,-28.842 -0.47,-33.916 v 0 c -0.359,-5.073 -1.243,-7.141 -2.623,-7.389 v 0 c -0.664,-0.083 -1.325,0.078 -1.879,0.441 v 0 c -3.616,2.372 -10.371,15.88 -16.42,27.626 v 0 l -8.825,-2.038 v -72.987 l 10.685,2.467 0.142,18.544 c 0,3.86 0.414,6.424 1.298,7.638 v 0 c 0.304,0.414 0.8,0.695 1.271,0.772 v 0 c 3.111,0.506 9.225,-7.39 16.71,-19.963 v 0 l 14.281,3.297 v 78.779 z m -69.218,-32.2 v -57.155 l 32.289,7.454 v 11.875 c -8.618,-1.957 -14.443,-3.07 -17.539,-3.088 v 0 c -0.328,-0.001 -2.752,0.082 -3.011,1.93 v 0 c -0.15,1.071 0.387,2.041 1.657,2.868 v 0 c 1.105,0.662 2.79,1.351 5.055,2.013 v 0 l 10.689,2.812 v 9.293 c 0,0 -12.168,-2.928 -15.909,-2.372 v 0 c -1.137,0.169 -1.879,0.773 -2.044,1.82 v 0 c -0.139,1.076 0.386,2.04 1.657,2.868 v 0 c 3.422,2.23 18.782,5.543 18.782,5.543 v 0 21.44 z m -20.213,1.729 c 0,0 -3.427,-22.572 -6.469,-33.003 v 0 c -0.869,-2.981 -2.97,-7.542 -5.827,-1.02 v 0 c -1.024,2.335 -4.063,13.247 -6.292,27.314 v 0 l -9.867,-2.278 c 0.864,-9.672 5.6,-35.797 11.911,-51.016 v 0 l 19.135,4.417 c 7.043,18.64 11.27,38.327 12.706,59.118 v 0 z M 153.072,232.416 c 0.304,-11.389 0.182,-19.913 -1.381,-25.506 v 0 c -0.949,-3.398 -3.038,-5.983 -5.828,-7.942 v 0 c -2.841,-1.993 -5.69,-2.867 -8.48,-2.922 v 0 c -3.401,-0.067 -5.86,1.256 -6.186,4.825 v 0 c -0.498,5.432 -0.719,13.026 -0.553,22.539 v 0 l -12.346,-2.851 V 136.46 l 16.959,3.915 c -0.304,10.726 0.062,18.682 1.381,23.603 v 0 c 0.899,3.353 3.359,6.191 5.827,7.858 v 0 c 2.886,1.949 5.685,2.96 8.48,3.006 v 0 c 3.398,0.055 5.866,-1.52 6.187,-4.908 v 0 c 0.47,-4.963 0.691,-12.124 0.552,-21.251 v 0 l 12.623,2.914 v 84.798 z m 79.636,2.206 c -3.738,-1.238 -7.056,-3.157 -10.529,-16.931 v 0 c -3.65,-14.477 -7.624,-44.889 -7.624,-44.889 v 0 l 10.02,2.313 1.029,5.765 c 0.498,2.786 2.27,4.555 4.972,5.35 v 0 c 0,0 7.763,2.015 10.412,2.316 v 0 c 1.12,0.127 2.436,-0.757 2.818,-2.509 v 0 l 1.353,-6.204 13.645,3.15 c 0,0 -6.787,34.355 -12.884,45.588 v 0 c -3.004,5.534 -6.315,6.878 -9.069,6.878 v 0 c -1.638,0 -3.079,-0.475 -4.143,-0.827 m -4.462,-36.905 c 0.19,2.264 1.185,7.064 1.562,8.685 v 0 c 0.834,3.585 2.473,5.08 4.401,5.348 v 0 c 2.471,0.345 4.629,-1.815 5.811,-7.67 v 0 c 0.114,-0.566 0.402,-1.741 0.591,-3.338 v 0 c 0.227,-1.938 -0.725,-3.923 -3.125,-4.528 v 0 c -1.524,-0.332 -4.992,-1.209 -6.763,-1.541 v 0 c -0.216,-0.043 -0.422,-0.064 -0.614,-0.064 v 0 c -1.315,0 -2.046,0.997 -1.863,3.108 m -50.564,29.603 v -57.166 l 32.289,7.455 v 10.192 c -8.618,-1.957 -14.443,-3.071 -17.539,-3.088 v 0 c -0.328,-0.001 -2.752,0.081 -3.011,1.931 v 0 c -0.15,1.071 0.386,2.04 1.657,2.867 v 0 c 1.105,0.662 2.79,1.351 5.054,2.013 v 0 l 10.69,2.812 v 9.293 c 0,0 -12.167,-2.928 -15.91,-2.372 v 0 c -1.136,0.169 -1.878,0.772 -2.043,1.82 v 0 c -0.139,1.075 0.387,2.041 1.656,2.868 v 0 c 3.422,2.229 18.783,5.542 18.783,5.542 v 0 23.135 z m 224.276,-0.337 -1.616,-6.861 -0.02,-0.005 -1.657,6.105 -2.747,-0.633 v -8.18 l 1.759,0.406 v 6.832 l 1.676,-6.445 1.861,0.43 1.717,7.228 v -6.831 l 1.739,0.401 v 8.178 z m -14.551,-3.365 v -1.446 l 2.829,0.654 v -6.729 l 1.925,0.445 v 6.728 l 2.727,0.63 v 1.446 z"
               style="fill:url(#linearGradient588);stroke:none"
               id="path590" />
          </g>
        </g>
      </g>
    </g>
  </g>
</svg>
