<?xml version="1.0" encoding="UTF-8" standalone="no"?>
<!-- Created with Inkscape (http://www.inkscape.org/) -->

<svg
   version="1.1"
   id="svg2"
   width="666.66669"
   height="378.34668"
   viewBox="0 0 666.66669 378.34668"
   sodipodi:docname="Rhythm Tengoku Giga Mix (リズム天国 GIGA MIX) Logo Remake (Print).ai"
   xmlns:inkscape="http://www.inkscape.org/namespaces/inkscape"
   xmlns:sodipodi="http://sodipodi.sourceforge.net/DTD/sodipodi-0.dtd"
   xmlns="http://www.w3.org/2000/svg"
   xmlns:svg="http://www.w3.org/2000/svg">
  <defs
     id="defs6">
    <clipPath
       clipPathUnits="userSpaceOnUse"
       id="clipPath16">
      <path
         d="M 0,283.76 H 500 V 0 H 0 Z"
         id="path14" />
    </clipPath>
  </defs>
  <sodipodi:namedview
     id="namedview4"
     pagecolor="#ffffff"
     bordercolor="#000000"
     borderopacity="0.25"
     inkscape:showpageshadow="2"
     inkscape:pageopacity="0.0"
     inkscape:pagecheckerboard="0"
     inkscape:deskcolor="#d1d1d1" />
  <g
     id="g8"
     inkscape:groupmode="layer"
     inkscape:label="Rhythm Tengoku Giga Mix (リズム天国 GIGA MIX) Logo Remake (Print)"
     transform="matrix(1.3333333,0,0,-1.3333333,0,378.34667)">
    <g
       id="g10">
      <g
         id="g12"
         clip-path="url(#clipPath16)">
        <g
           id="g18"
           transform="translate(405.9842,280.9423)">
          <path
             d="m 0,0 c -23.96,-6.871 -42.441,-25.435 -49.691,-48.932 -12.801,3.448 -26.363,3.385 -39.237,-0.307 -10.205,-2.926 -19.563,-7.986 -27.523,-14.83 -18.277,13.741 -42.04,18.352 -64.236,11.988 -22.617,-6.485 -40.389,-23.258 -48.437,-45.009 -11.963,2.741 -24.345,2.408 -36.363,-1.037 -8.434,-2.419 -16.391,-6.36 -23.417,-11.562 -18.262,13.363 -41.922,17.802 -63.792,11.531 -39.092,-11.21 -61.687,-52.441 -50.368,-91.914 9.102,-31.743 37.889,-53.566 70.045,-54.09 7.494,-12.946 18.798,-23.389 32.412,-29.812 15.981,-7.539 34.109,-9.017 51.045,-4.16 11.139,3.194 21.189,8.903 29.53,16.714 17.851,-12.218 40.016,-15.942 61.101,-9.896 16.023,4.595 29.631,14.28 39.138,27.686 15.016,-5.405 31.317,-5.99 46.805,-1.549 18.72,5.368 34.497,17.605 44.428,34.178 12.387,-3.091 25.255,-2.872 37.707,0.699 17.667,5.066 32.698,16.535 42.324,32.295 8.258,13.522 11.971,29.245 10.722,44.945 11.505,7.939 20.641,19.188 26.103,32.286 6.497,15.579 7.495,33.154 2.81,49.491 C 79.797,-11.844 38.927,11.162 0,0"
             style="fill:#000000;fill-opacity:1;fill-rule:nonzero;stroke:none"
             id="path20" />
        </g>
        <g
           id="g22"
           transform="translate(407.5643,275.431)">
          <path
             d="m 0,0 c -23.939,-6.865 -41.945,-26.411 -47.262,-50.692 -13.36,4.85 -27.936,5.39 -41.666,1.454 -10.94,-3.137 -20.825,-8.937 -28.853,-16.887 -17.261,14.96 -40.922,20.348 -62.906,14.044 -22.526,-6.46 -39.84,-24.001 -46.264,-46.445 -12.555,3.907 -25.769,4.059 -38.535,0.399 -9.168,-2.629 -17.72,-7.207 -24.975,-13.342 -17.241,14.384 -40.684,19.49 -62.235,13.311 -36.053,-10.338 -56.885,-48.389 -46.437,-84.821 8.713,-30.387 36.946,-50.929 67.916,-49.912 6.85,-13.276 17.921,-23.992 31.476,-30.386 14.722,-6.946 31.42,-8.308 47.018,-3.835 11.791,3.382 22.257,9.821 30.532,18.745 17.039,-13.465 39.152,-17.933 60.1,-11.927 16.195,4.645 29.714,14.941 38.502,29.215 15.003,-6.488 31.678,-7.598 47.441,-3.077 18.712,5.365 34.246,18.157 43.214,35.416 12.678,-4.034 26.042,-4.233 38.921,-0.539 16.283,4.668 30.136,15.242 39.011,29.771 8.211,13.445 11.556,29.245 9.553,44.842 11.925,7.365 21.397,18.477 26.874,31.608 5.997,14.382 6.918,30.614 2.591,45.704 C 73.577,-10.952 35.889,10.291 0,0"
             style="fill:#ffffff;fill-opacity:1;fill-rule:nonzero;stroke:none"
             id="path24" />
        </g>
        <g
           id="g26"
           transform="translate(486.9627,226.7533)">
          <path
             d="m 0,0 c -9.724,33.91 -44.679,53.636 -78.074,44.06 -24.822,-7.117 -41.792,-28.421 -44.878,-52.814 -13.33,6.275 -28.847,7.935 -44.05,3.576 -12.048,-3.455 -22.261,-10.22 -29.951,-19.044 -15.704,15.735 -39.106,22.711 -61.808,16.201 -23.271,-6.673 -39.658,-25.754 -44.184,-48.132 -12.524,5.019 -26.701,6.076 -40.616,2.086 -10.22,-2.931 -19.116,-8.247 -26.275,-15.177 -15.762,15.007 -38.684,21.526 -60.935,15.146 -33.56,-9.623 -52.876,-44.939 -43.144,-78.881 8.559,-29.845 36.728,-48.685 66.221,-46.255 12.743,-27.974 44.119,-43.222 74.249,-34.582 12.829,3.678 23.552,11.152 31.33,20.872 15.553,-14.186 37.745,-20.236 59.302,-14.055 16.93,4.855 30.194,16.316 37.856,30.833 14.388,-7.346 31.416,-9.476 48.086,-4.695 19.499,5.591 34.405,19.459 42.08,36.762 12.392,-4.841 26.353,-5.815 40.056,-1.885 31.414,9.007 50.332,40.582 44.646,72.5 C -4.793,-59.614 8.403,-29.308 0,0"
             style="fill:#000000;fill-opacity:1;fill-rule:nonzero;stroke:none"
             id="path28" />
        </g>
        <g
           id="g30"
           transform="translate(395.3065,108.7855)">
          <path
             d="m 0,0 -4.826,2.832 -1.755,-4.791 2.631,0.755 c 0.174,0.05 0.286,-0.014 0.336,-0.19 l 1.666,-5.81 c 0.073,-0.254 0.061,-0.394 -0.033,-0.421 l -14.195,-4.07 c -0.118,-0.034 -0.229,-0.003 -0.334,0.091 -0.104,0.096 -0.172,0.199 -0.204,0.308 l -1.608,5.613 c -0.026,0.088 -0.015,0.174 0.034,0.26 0.048,0.085 0.119,0.142 0.214,0.169 l 5.51,1.579 3.049,8.861 -6.671,4.036 -5.367,-1.539 c -0.126,-0.037 -0.241,-0.031 -0.344,0.017 -0.104,0.047 -0.168,0.115 -0.194,0.203 l -1.51,5.266 c -0.128,0.451 -0.063,0.715 0.198,0.789 l 23.199,6.652 c 0.166,0.048 0.303,0.048 0.41,0.002 C 0.313,20.565 0.378,20.504 0.4,20.427 L 2,14.847 C 2.072,14.594 2.01,14.439 1.812,14.383 l -3.056,-0.877 0.018,-0.067 5.395,-2.757 2.063,4.967 -2.69,-0.77 C 3.234,14.79 3.047,14.861 2.981,15.093 l -1.544,5.381 c -0.106,0.375 -0.03,0.598 0.231,0.673 l 14.478,4.152 c 0.34,0.097 0.541,0.036 0.605,-0.184 l 1.6,-5.58 c 0.073,-0.253 0.014,-0.406 -0.175,-0.461 L 13.389,17.702 8.743,8.188 15.09,4.255 21.867,6.198 c 0.19,0.055 0.304,0.016 0.342,-0.116 l 1.699,-5.926 c 0.063,-0.22 0.039,-0.346 -0.071,-0.378 l -24.29,-6.965 c -0.276,-0.079 -0.454,0.019 -0.532,0.294 l -1.658,5.778 c -0.05,0.176 0.016,0.29 0.198,0.342 l 2.464,0.707 z m -47.704,0.416 -1.548,5.397 c -0.13,0.452 -0.064,0.715 0.196,0.79 l 23.662,6.785 c 0.339,0.097 0.541,0.036 0.604,-0.185 l 1.619,-5.645 c 0.092,-0.32 0.015,-0.514 -0.23,-0.584 l -5.509,-1.58 3.663,-12.777 5.51,1.58 c 0.245,0.071 0.402,-0.015 0.471,-0.258 l 1.562,-5.447 c 0.06,-0.209 0.077,-0.365 0.051,-0.468 -0.027,-0.103 -0.111,-0.174 -0.252,-0.215 l -23.686,-6.791 c -0.34,-0.098 -0.555,0.012 -0.646,0.332 l -1.53,5.332 c -0.123,0.429 -0.078,0.674 0.136,0.735 l 5.51,1.58 -3.654,12.744 -5.368,-1.539 c -0.308,-0.089 -0.496,-0.017 -0.561,0.214 m -31.932,-30.309 -17.204,-4.932 c -0.245,-0.071 -0.432,0.12 -0.561,0.571 l -1.463,5.101 c -0.047,0.165 -0.046,0.332 0.004,0.502 0.049,0.169 0.185,0.285 0.406,0.348 l 5.272,1.512 -3.644,12.711 -5.391,-1.546 c -0.308,-0.089 -0.52,0.071 -0.637,0.478 l -1.525,5.315 c -0.1,0.353 0.026,0.58 0.382,0.682 l 23.732,6.804 c 0.222,0.064 0.393,0.063 0.515,-0.004 0.121,-0.066 0.299,-0.179 0.533,-0.338 l 4.176,-4.413 0.853,5.926 c 0.151,0.425 0.349,0.672 0.594,0.742 l 22.525,6.459 c 0.276,0.079 0.471,-0.079 0.585,-0.475 l 1.552,-5.414 c 0.085,-0.298 -0.01,-0.486 -0.287,-0.566 l -5.249,-1.505 3.645,-12.711 5.367,1.54 c 0.324,0.093 0.56,-0.12 0.709,-0.636 l 1.481,-5.167 c 0.098,-0.342 -0.054,-0.57 -0.458,-0.686 l -22.915,-6.57 c -0.323,-0.093 -0.541,0.054 -0.651,0.438 l -1.562,5.448 c -0.038,0.132 -0.02,0.25 0.052,0.354 0.073,0.105 0.177,0.176 0.311,0.214 l 5.32,1.525 -3.792,13.223 -0.07,-0.02 -4.477,-22.132 c -0.102,-0.327 -0.305,-0.533 -0.604,-0.619 l -2.287,-0.657 c -0.308,-0.088 -0.575,0.021 -0.798,0.326 l -14.935,16.083 -0.047,-0.014 3.692,-12.875 5.237,1.501 c 0.276,0.08 0.474,-0.084 0.59,-0.491 l 1.557,-5.432 c 0.08,-0.274 -0.098,-0.475 -0.533,-0.6 m -60.967,0.116 -0.906,-4.619 4.313,1.237 -3.039,3.487 c -0.029,0.039 -0.102,0.042 -0.221,0.008 -0.094,-0.026 -0.143,-0.065 -0.147,-0.113 m 29.391,-9.169 -23.318,-6.687 c -0.371,-0.106 -0.618,0.055 -0.741,0.485 l -1.435,5.002 c -0.098,0.34 -0.02,0.547 0.233,0.62 l 4.111,1.178 -2.276,2.528 -7.524,-2.158 -0.591,-3.349 4.538,1.302 c 0.118,0.033 0.226,0.016 0.322,-0.051 0.097,-0.068 0.159,-0.152 0.187,-0.25 l 1.463,-5.101 c 0.123,-0.429 0.07,-0.677 -0.159,-0.743 l -16.505,-4.732 c -0.648,-0.186 -1.024,-0.097 -1.128,0.266 l -1.5,5.233 c -0.111,0.385 -0.004,0.624 0.32,0.716 l 4.976,1.428 4.109,21.222 c 0.087,0.561 0.3,0.891 0.64,0.987 l 11.161,3.201 c 0.427,0.122 0.794,-0.041 1.102,-0.488 l 15.192,-16.045 5.355,1.535 c 0.182,0.053 0.326,-0.013 0.43,-0.198 0.104,-0.184 0.209,-0.464 0.316,-0.838 l 1.241,-4.325 c 0.104,-0.363 -0.069,-0.609 -0.519,-0.738 m -56.772,10.035 2.107,-7.346 c 0.148,-0.516 0.135,-0.801 -0.039,-0.85 l -8.637,-2.477 c -0.245,-0.07 -0.503,0.04 -0.775,0.332 -0.289,0.263 -0.678,0.517 -1.168,0.764 -0.489,0.246 -1.303,0.388 -2.442,0.425 -1.139,0.037 -2.542,-0.184 -4.209,-0.663 -1.643,-0.47 -2.931,-1.217 -3.864,-2.242 -0.933,-1.023 -1.513,-2.139 -1.739,-3.347 -0.227,-1.209 -0.194,-2.32 0.096,-3.331 0.492,-1.717 1.302,-2.917 2.43,-3.6 1.127,-0.684 2.33,-0.996 3.609,-0.94 1.279,0.057 2.602,0.282 3.968,0.673 0.94,0.27 1.554,0.768 1.842,1.493 0.287,0.726 0.344,1.529 0.169,2.407 l -5,-1.434 c -0.482,-0.138 -0.772,-0.036 -0.87,0.305 l -1.017,3.549 c -0.085,0.297 -0.089,0.516 -0.01,0.658 0.079,0.142 0.233,0.246 0.463,0.311 l 23.246,6.666 c 0.221,0.064 0.412,0.033 0.573,-0.094 0.16,-0.127 0.268,-0.289 0.325,-0.488 l 0.923,-3.218 c 0.098,-0.342 0.095,-0.586 -0.007,-0.736 -0.103,-0.148 -0.293,-0.261 -0.569,-0.342 l -4.977,-1.426 2.462,-8.584 c 0.088,-0.308 0.077,-0.529 -0.034,-0.661 -0.112,-0.134 -0.314,-0.243 -0.606,-0.327 l -6.434,-1.844 c -0.3,-0.086 -0.538,-0.116 -0.712,-0.088 -0.175,0.027 -0.371,0.14 -0.591,0.34 l -2.021,1.724 c -0.341,-0.955 -0.951,-1.773 -1.828,-2.453 -0.878,-0.681 -1.913,-1.252 -3.106,-1.713 -1.193,-0.461 -2.718,-0.958 -4.574,-1.49 -1.011,-0.289 -2.429,-0.583 -4.254,-0.88 -1.826,-0.298 -3.94,-0.362 -6.344,-0.193 -2.403,0.168 -4.645,0.9 -6.727,2.197 -2.081,1.297 -3.526,3.355 -4.334,6.171 -0.836,2.917 -0.862,5.479 -0.076,7.687 0.786,2.208 2.009,4.009 3.67,5.403 1.661,1.393 3.377,2.474 5.148,3.244 1.771,0.77 3.498,1.396 5.18,1.879 1.975,0.566 3.597,0.966 4.868,1.199 1.271,0.233 2.315,0.352 3.131,0.353 0.816,0.002 1.478,-0.058 1.988,-0.18 0.509,-0.122 1.148,-0.318 1.917,-0.585 l -0.177,1.736 c -0.031,0.229 -0.031,0.429 0.002,0.599 0.032,0.17 0.159,0.287 0.38,0.349 l 7.524,2.159 c 0.261,0.074 0.476,0.041 0.645,-0.102 0.168,-0.141 0.327,-0.472 0.475,-0.989 m -62.839,-23.182 -1.548,5.399 c -0.129,0.451 -0.063,0.714 0.198,0.789 l 23.661,6.784 c 0.34,0.098 0.541,0.036 0.604,-0.184 l 1.619,-5.645 c 0.091,-0.32 0.015,-0.514 -0.23,-0.584 l -5.51,-1.58 3.664,-12.777 5.51,1.58 c 0.244,0.07 0.401,-0.016 0.471,-0.258 l 1.562,-5.448 c 0.06,-0.209 0.077,-0.364 0.051,-0.467 -0.026,-0.103 -0.11,-0.174 -0.253,-0.215 l -23.685,-6.792 c -0.339,-0.097 -0.555,0.013 -0.646,0.333 l -1.529,5.332 c -0.123,0.429 -0.078,0.674 0.135,0.735 l 5.509,1.58 -3.654,12.743 -5.367,-1.539 c -0.308,-0.088 -0.495,-0.016 -0.562,0.214 m -8.287,2.787 2.106,-7.345 c 0.149,-0.518 0.136,-0.801 -0.038,-0.851 l -8.638,-2.477 c -0.244,-0.07 -0.503,0.041 -0.774,0.332 -0.289,0.262 -0.678,0.517 -1.168,0.763 -0.49,0.247 -1.304,0.389 -2.443,0.426 -1.139,0.036 -2.541,-0.185 -4.208,-0.662 -1.643,-0.472 -2.931,-1.219 -3.864,-2.242 -0.933,-1.025 -1.513,-2.141 -1.739,-3.349 -0.227,-1.208 -0.195,-2.318 0.096,-3.331 0.492,-1.717 1.302,-2.917 2.429,-3.6 1.128,-0.682 2.331,-0.996 3.61,-0.939 1.279,0.058 2.601,0.282 3.968,0.674 0.94,0.269 1.554,0.766 1.841,1.492 0.288,0.727 0.345,1.528 0.169,2.407 l -5,-1.433 c -0.482,-0.139 -0.771,-0.038 -0.869,0.303 l -1.018,3.55 c -0.085,0.297 -0.088,0.517 -0.009,0.658 0.079,0.142 0.233,0.245 0.462,0.312 l 23.247,6.665 c 0.221,0.063 0.412,0.032 0.572,-0.095 0.16,-0.127 0.269,-0.289 0.326,-0.487 l 0.923,-3.219 c 0.097,-0.341 0.095,-0.586 -0.008,-0.734 -0.102,-0.149 -0.292,-0.263 -0.569,-0.342 l -4.976,-1.427 2.461,-8.584 c 0.089,-0.308 0.077,-0.529 -0.034,-0.662 -0.111,-0.133 -0.313,-0.242 -0.605,-0.325 l -6.434,-1.845 c -0.3,-0.087 -0.538,-0.116 -0.712,-0.089 -0.175,0.028 -0.372,0.141 -0.591,0.34 l -2.021,1.726 c -0.341,-0.956 -0.951,-1.774 -1.829,-2.454 -0.878,-0.681 -1.913,-1.251 -3.106,-1.712 -1.193,-0.462 -2.717,-0.958 -4.573,-1.491 -1.011,-0.29 -2.43,-0.584 -4.255,-0.88 -1.825,-0.297 -3.94,-0.362 -6.343,-0.194 -2.403,0.169 -4.646,0.902 -6.727,2.198 -2.082,1.297 -3.527,3.354 -4.334,6.171 -0.837,2.916 -0.862,5.479 -0.076,7.687 0.786,2.209 2.009,4.01 3.67,5.402 1.66,1.394 3.376,2.475 5.148,3.245 1.771,0.77 3.497,1.396 5.18,1.878 1.974,0.567 3.597,0.967 4.868,1.2 1.271,0.234 2.314,0.351 3.13,0.353 0.816,0.002 1.479,-0.059 1.988,-0.181 0.509,-0.122 1.149,-0.316 1.918,-0.584 l -0.177,1.736 c -0.031,0.229 -0.031,0.428 0.001,0.598 0.033,0.17 0.159,0.287 0.381,0.351 l 7.524,2.157 c 0.26,0.075 0.475,0.041 0.644,-0.1 0.169,-0.143 0.328,-0.472 0.476,-0.99"
             style="fill:#ffffff;fill-opacity:1;fill-rule:nonzero;stroke:none"
             id="path32" />
        </g>
        <g
           id="g34"
           transform="translate(175.3665,103.5961)">
          <path
             d="m 0,0 c 7.521,11.478 8.686,18.762 9.861,26.787 0.412,2.903 1.823,4.384 3.398,4.835 l 2.928,0.84 0.189,10.852 -68.516,-19.646 -0.2,-11.497 42.908,12.304 c -1.247,-15.15 -7.045,-35.355 -31.066,-42.244 l -12.427,-3.562 -0.199,-11.353 12.703,3.644 c 16.442,4.714 24.421,9.38 34.274,21.088 2.468,-1.253 5.708,-4.273 7.489,-9.113 l 19.337,5.544 C 18.03,-8.148 6.652,-0.996 0,0 m 17.876,46.775 c 2.763,0.807 4.339,3.641 3.532,6.35 -0.754,2.763 -3.641,4.339 -6.351,3.532 -2.763,-0.806 -4.286,-3.641 -3.531,-6.35 0.806,-2.764 3.641,-4.286 6.35,-3.532 m -18.464,0.058 c -0.754,2.709 0.769,5.597 3.531,6.351 2.71,0.753 5.544,-0.822 6.351,-3.532 0.754,-2.71 -0.769,-5.544 -3.532,-6.351 -2.709,-0.754 -5.543,0.822 -6.35,3.532 m 171.652,4.351 0.125,7.15 27.054,7.758 0.195,11.199 -27.054,-7.758 0.175,10.028 27.054,7.757 0.195,11.171 -73.073,-20.953 -0.195,-11.172 26.613,7.632 -0.175,-10.028 -26.613,-7.631 -0.196,-11.198 26.614,7.631 -0.073,-4.141 C 151.479,35.368 144.243,30.128 133.338,26.993 l -8.528,-2.445 -0.196,-11.224 18.575,5.326 c 14.267,4.085 19.356,9.027 25.216,22.353 3.064,-1.28 11.351,-6.953 14.682,-10.911 l 19.211,5.509 c -5.607,6.408 -25.803,14.42 -31.234,15.583 m -63.072,-3.072 -2.905,-0.832 c -1.901,-0.551 -3.972,0.048 -5.372,2.195 l -6.422,9.856 -19.259,-5.523 8.448,-13.01 -23.754,-6.812 15.117,46.526 c 0.661,2.033 1.795,3.296 3.326,3.746 l 4.834,1.386 0.136,7.78 L 58.417,86.622 40.468,31.378 C 39.772,29.238 38.482,28.181 37.121,27.79 L 34.18,26.947 33.983,15.7 114.118,38.679 Z m 161.596,98.676 c -2.138,0.916 -4.344,1.631 -6.603,2.192 -1.213,0.306 -2.293,0.58 -2.529,1.402 -0.18,0.629 0.279,1.455 1.297,2.942 1.979,2.888 2.241,3.282 2.882,4.44 l 1.65,-0.569 c -1.354,-2.112 -1.574,-2.411 -3.53,-5.042 -0.492,-0.656 -0.69,-0.935 -0.613,-1.205 0.093,-0.321 0.763,-0.476 1.193,-0.574 2.182,-0.487 5.764,-1.489 7.219,-2.155 z m -30.185,-1.713 c -0.693,0.691 -1.066,1.007 -1.758,1.5 l 0.76,0.797 c 0.693,-0.451 1.318,-1.006 1.753,-1.488 z m -1.38,-1.242 c -0.912,0.966 -1.48,1.368 -1.766,1.582 l 0.733,0.789 c 0.914,-0.627 1.603,-1.361 1.789,-1.562 z m -0.069,4.03 c -1.561,-0.758 -2.565,-1.638 -3.811,-2.998 l -1.205,0.656 c 0.335,0.407 0.411,0.486 1.14,1.146 -2.675,-0.81 -3.789,-1.157 -4.61,-1.448 l -0.422,1.472 c 0.396,0.1 2.013,0.564 2.664,0.751 0.926,0.265 5.043,1.459 5.877,1.699 z m -5.432,-5.467 c -0.792,-1.369 -0.572,-2.336 -0.493,-2.61 0.485,-1.695 2.997,-1.004 4.953,-0.443 1.277,0.366 2.541,0.785 3.753,1.331 l 0.471,-1.445 c -0.438,-0.197 -1.317,-0.576 -3.338,-1.155 -2.569,-0.737 -3.71,-0.937 -4.972,-0.72 -1.023,0.171 -1.999,0.964 -2.295,1.995 -0.344,1.199 -0.005,2.185 0.64,3.527 z m -59.78,-35.69 c -0.036,-0.848 -0.257,-4.552 -0.277,-5.311 0.224,0.288 0.623,0.793 1.5,1.044 2.076,0.595 2.7,-1.388 2.966,-2.316 l 0.159,-0.555 c 0.107,-0.374 0.444,-1.547 1.539,-1.233 1.033,0.296 1.392,1.571 0.849,4.485 l 1.469,-0.011 c 0.524,-3.143 0.294,-5.26 -2.077,-5.94 -1.058,-0.303 -2.068,0.106 -2.571,0.784 -0.316,0.426 -0.576,1.188 -0.658,1.472 l -0.125,0.438 c -0.237,0.825 -0.477,1.663 -1.444,1.386 -1.457,-0.418 -1.74,-2.201 -1.804,-3.001 -0.009,-0.072 0.054,-2.719 0.063,-3.093 h -1.604 c 0.133,3.331 0.263,9.688 0.306,11.682 z m -23.427,-8.407 c -0.272,-0.05 -0.569,-0.109 -1.111,-0.264 -1.134,-0.325 -1.816,-0.848 -2.325,-1.307 -1.533,-1.408 -2.638,-3.594 -2.151,-5.295 0.55,-1.916 2.949,-1.964 6.547,-0.81 l 0.228,-1.557 c -2.713,-0.765 -4.152,-0.837 -5.469,-0.573 -1.3,0.255 -2.386,1.238 -2.722,2.411 -0.372,1.298 -0.27,3.455 2.05,5.975 -1.934,-0.677 -3.843,-1.389 -5.749,-2.112 l -0.463,1.421 c 0.869,0.25 1.801,0.571 2.659,0.859 1.069,0.361 6.788,2.246 8.072,2.668 z m 124.2,37.278 -38.403,-11.012 c -2.065,-0.585 -3.32,-2.364 -3.362,-4.72 L 230.99,76.288 269.394,87.3 c 1.91,0.536 3.317,2.198 3.361,4.72 z m 15.632,12.772 -1.116,-63.974 -72.665,-20.836 1.117,63.974 z m -27.807,-51.187 4.361,1.25 0.106,6.121 -4.36,-1.25 z m -22.458,20.324 0.088,5.018 27.287,7.825 -0.087,-5.019 -4.764,-1.366 c -2.035,-0.584 -3.207,-2.073 -3.252,-4.69 l -0.145,-8.244 7.951,2.28 -0.094,-5.387 -7.95,-2.28 -0.177,-10.122 c -0.028,-1.593 1.182,-2.386 3.66,-1.676 l 4.243,1.217 -0.088,-4.985 -27.287,-7.825 0.087,4.985 4.817,1.382 c 1.968,0.564 3.155,2.104 3.201,4.685 l 0.158,9.074 -7.951,-2.279 0.093,5.386 7.952,2.28 0.162,9.292 c 0.018,1.078 -0.605,2.542 -3.608,1.68 z m -334.806,-77.16 -0.146,-8.368 1.681,0.481 c 2.532,0.727 3.744,-0.121 3.717,-1.694 L -91.191,1.02 c -0.132,-7.567 -3.227,-13.081 -9.666,-14.936 l -33.519,-9.611 -0.197,-11.259 46.873,13.44 c 9.488,2.689 15.658,11.183 15.854,22.391 l 0.598,34.25 c 0.041,2.368 0.876,4.031 3.253,4.713 l 2.062,0.591 0.146,8.369 z m -17.325,-45.295 -26.48,-7.593 0.146,8.353 2.18,0.625 c 2.344,0.672 3.216,2.409 3.257,4.742 l 0.3,17.204 c 0.028,1.573 -1.178,2.426 -3.713,1.699 l -1.608,-0.461 0.146,8.369 26.48,7.593 -0.146,-8.37 -2.174,-0.623 c -2.351,-0.674 -3.222,-2.416 -3.263,-4.727 l -0.3,-17.204 c -0.028,-1.582 1.19,-2.439 3.718,-1.714 l 1.603,0.46 z"
             style="fill:#ffffff;fill-opacity:1;fill-rule:nonzero;stroke:none"
             id="path36" />
        </g>
      </g>
    </g>
  </g>
</svg>
