<?xml version="1.0" encoding="utf-8"?>
<!-- Generator: Adobe Illustrator 27.7.0, SVG Export Plug-In . SVG Version: 6.00 Build 0)  -->
<svg version="1.1" id="Layer_1" xmlns="http://www.w3.org/2000/svg" xmlns:xlink="http://www.w3.org/1999/xlink" x="0px" y="0px"
	 viewBox="0 0 500 370.55002" style="enable-background:new 0 0 500 370.55002;" xml:space="preserve">
<style type="text/css">
	.st0{fill:#FF0000;}
	.st1{fill:#FFFFFF;}
</style>
<g id="Cloud">
	<path id="Red_00000059276742210135472510000013907364207687812522_" class="st0" d="M362.70001,0
		c-21.5,0-42.45001,6.05-60.54999,17.5c-9.60001,6.075-18.125,13.45-25.45001,21.975c-14.02499-6.65-29.375-10.125-45-10.125
		c-17.52499,0-34.95,4.45-50.35001,12.85c-11.925,6.525-22.52499,15.35-31.10001,25.85c-2.14999-0.9-4.3-1.75-6.5-2.5
		c-11.45-4-23.45-6.025-35.65-6.025c-14.575,0-28.75,2.85-42.075,8.5c-12.875,5.45-24.425,13.225-34.35,23.15
		C21.75,101.075,13.95,112.65,8.5,125.525c-5.65,13.35-8.5,27.49999-8.5,42.075c0,22.8,7.025,44.60001,20.3,63.05
		c8.675,12.05,19.75,22.22501,32.4,29.77501c-0.075,1.70001-0.125,3.375-0.125,5.07501c0,14.17499,2.775,27.92499,8.275,40.89999
		c5.3,12.52499,12.875,23.75,22.5,33.375c9.65,9.64999,20.875,17.20001,33.375,22.5c12.975,5.47501,26.725,8.27499,40.9,8.27499
		c19.5,0,38.575-5.39999,55.10001-15.60001c8.675-5.35001,16.45-11.85001,23.175-19.375c12.27499,4.89999,25.3,7.375,38.8,7.375
		c20.04999,0,39.54999-5.67499,56.375-16.39999c8.67499-5.52499,16.39999-12.20001,23.04999-19.89999
		c2.07501,0.875,4.14999,1.67499,6.27499,2.39999c11.10001,3.85001,22.70001,5.82501,34.52499,5.82501
		c14.17499,0,27.92499-2.77499,40.89999-8.27499c12.52499-5.29999,23.75-12.875,33.375-22.5
		c9.64999-9.64999,17.20001-20.875,22.5-33.375C497.22501,237.75,500,224,500,209.825c0-16.425-3.70001-32.15001-10.97501-46.77501
		c-4.22501-8.5-9.57501-16.35001-15.95001-23.425c2.02499-8.55,3.04999-17.325,3.04999-26.2c0-15.3-3-30.15-8.92499-44.15
		c-5.72501-13.5-13.89999-25.625-24.29999-36.05c-10.39999-10.4-22.52499-18.575-36.04999-24.3C392.85001,3,378,0,362.70001,0
		L362.70001,0z"/>
	<path id="White" class="st1" d="M362.70001,12.725c-19.10001,0-37.67499,5.375-53.75,15.55
		c-11.39999,7.2-21.17499,16.575-28.82501,27.525c-14.47501-8.925-31.22501-13.725-48.425-13.725
		c-31.575,0-60.59999,16.1-77.45,42.05c-4.7-2.6-9.60001-4.8-14.675-6.575c-10.10001-3.525-20.675-5.325-31.475-5.325
		c-12.875,0-25.35,2.525-37.125,7.5c-11.35,4.8-21.55,11.675-30.3,20.425s-15.625,18.95-20.425,30.3
		c-4.975,11.77499-7.5,24.25-7.5,37.125c0,20.125,6.2,39.35001,17.9,55.625c9.275,12.89999,21.4,23.125,35.475,30.02499
		c-0.55,4.04999-0.8,8.14999-0.8,12.25c0,12.45001,2.45,24.54999,7.25,35.95001c4.65,11,11.3,20.875,19.775,29.35001
		s18.35,15.125,29.35,19.77499c11.39999,4.82501,23.47501,7.25,35.95,7.25c17.14999,0,33.89999-4.75,48.425-13.70001
		c10.25-6.32501,19.125-14.57501,26.175-24.22501c13.05,6.79999,27.52499,10.32501,42.47501,10.32501
		c17.625,0,34.75-4.97501,49.54999-14.39999c10.35001-6.60001,19.22501-15.125,26.17499-25.07501
		c4.52499,2.5,9.25,4.60001,14.17499,6.32501c9.75,3.39999,19.95001,5.10001,30.35001,5.10001
		c12.45001,0,24.54999-2.45001,35.95001-7.25c11-4.64999,20.875-11.29999,29.35001-19.77499s15.125-18.35001,19.77499-29.35001
		c4.82501-11.39999,7.25-23.47501,7.25-35.95c0-14.425-3.25-28.27499-9.625-41.09999
		c-4.70001-9.45-11.10001-18.125-18.72501-25.47501c2.97501-9.625,4.5-19.625,4.5-29.825c0-13.6-2.67499-26.775-7.92499-39.2
		c-5.07501-12-12.32501-22.775-21.57501-32c-9.25-9.25-20.02499-16.5-32-21.575C389.47501,15.375,376.29999,12.725,362.70001,12.725
		L362.70001,12.725z"/>
	<path id="Red" class="st0" d="M444,147.125c4.29999-10.375,6.67499-21.75,6.67499-33.7c0-48.6-39.39999-88-88-88
		c-34.52499,0-64.42499,19.9-78.82501,48.85c-13.97501-12.15-32.22501-19.5-52.2-19.5c-32.55,0-60.55,19.55-72.875,47.525
		c-14-10.9-31.6-17.375-50.7-17.375c-45.65,0-82.65,37-82.65,82.65001c0,35.97501,23,66.60001,55.1,77.95
		c-1.65,6.375-2.525,13.075-2.525,19.97499c0,43.97501,35.65,79.625,79.62499,79.625c30.625,0,57.2-17.29999,70.52499-42.64999
		C241.24997,311.92502,257.32495,317.5,274.72498,317.5c31.45001,0,58.625-18.22501,71.57501-44.67499
		c13.45001,10.42499,30.35001,16.625,48.67499,16.625c43.97501,0,79.625-35.64999,79.625-79.625
		C474.57501,184.35001,462.625,161.7,444,147.125z"/>
</g>
<g id="Rhythm_Tubers">
	<path id="S" class="st1" d="M431.89999,219.675c-6.72501-2.64999-11.10001-4.425-13.07501-5.35001
		c-2.85001-1.47501-4.27499-3.25-4.27499-5.45c0-1.52499,0.875-2.95,2.5-4.27499c1.57501-1.22501,4.52499-2.35001,8.75-3.3
		c1.27499-0.25,2.60001-0.45,4.02499-0.7c3.64999-0.55,8.02499-0.97501,13.17499-1.22501V168.05
		c-4.77499,0.45-9.14999,1.02499-13.17499,1.625c-6.92499,1.075-13.27499,2.8-19.02499,4.925
		c-5.70001,2.02499-9.875,5.075-12.45001,8.95c-2.60001,3.875-4.02499,8.25-4.125,13.22501L394.12497,198.3
		c0,6.3,1.82501,11.55,5.45001,15.72501c3.60001,4.27499,8.75,7.47501,15.625,9.5c1.125,0.35001,2.25,0.77499,3.29999,0.97501
		c2.85001,0.875,5.125,1.72501,6.875,2.39999c1.77499,0.77499,2.75,1.825,2.75,3.14999c0,1.875-1.42499,3.55-4.27499,4.77499
		c-3.14999,1.375-7.82501,2.5-13.82501,3.45c-4.375,0.7-9.14999,1.375-14.39999,2.02499l-0.04999,0.05v17.74998
		c4.77499-0.45001,9.04999-1.02499,13.07501-1.625c6.39999-1.02499,12.82501-2.39999,19.27499-4.22501l1.32501-0.3
		c4.67499-1.22501,8.39999-3.45,11.25-6.675c2.70001-2.89999,3.92499-6.14999,3.92499-9.875v-1.175
		C443.70001,227.39999,439.52499,222.575,431.89999,219.675z"/>
	<path id="R_00000148653051220121574510000001563177531040161942_" class="st1" d="M390.5,201.825
		c0-25.625-25.42499-34.8-56.60001-25.89999v82.7l13.27499-2.07501v-20.7c0-3.25,2.39999-2.5,4.57501-0.45
		c1.52499,1.47501,10.77499,10.875,17.14999,17.64999l20.29999-3.25c0,0.05-17.64999-18.97501-19.72501-20.8
		C381.39999,225.27499,390.5,214.60001,390.5,201.825z M350.92499,221.3v-26.02501l22.52499,9.39999L350.92499,221.3z"/>
	<path id="E" class="st1" d="M302.70001,252.425c-0.97501-0.14999-1.77499-0.45-2.75-1.075
		c-0.875-0.60001-1.22501-1.325-1.22501-2.075c0-0.64999,0.20001-1.27499,0.77499-2.02499c0.875-1.175,1.92499-1.875,3.25-2.39999
		c1.625-0.5,3.60001-1.125,6.10001-1.72501l15.82501-2.89999V226.5c-10.67499,1.675-17.89999,2.39999-21.72501,2.125
		l-1.07501-0.10001c-0.97501-0.25-1.92499-0.55-2.70001-1.125c-0.97501-0.60001-1.32501-1.27499-1.32501-2.125
		c0-0.55,0.20001-1.27499,0.77499-1.925c0.77499-1.175,1.92499-1.875,3.25-2.39999c1.82501-0.64999,4.22501-1.325,7.07501-1.97501
		l19.32501-3.45V184.175L282,191.60001l-0.04999,83.22501l47.14999-7.52499v-17.35001
		C315.875,252.02499,306.97501,252.89999,302.70001,252.425z"/>
	<path id="B" class="st1" d="M275.20001,239.72501c1.32501-3,1.97501-6.25,1.97501-9.77499
		c0-4.02499-0.10001-7.47501-0.35001-10.425c-0.29999-2.89999-1.22501-5.25-2.70001-7.125c-1.42499-1.575-3.29999-2.8-5.89999-3.45
		c-1.32501-0.35001-2.75-0.60001-4.27499-0.77499c-5.64999-0.39999-13.625,0.10001-23.89999,1.52499
		c-4.375,0.60001-9.25,1.27499-14.7,2.125v8.5v66.375v8.5c5.45-0.875,10.27499-1.72501,14.7-2.54999
		c10.27499-1.82501,18.29999-3.92499,23.89999-6.10001c1.52499-0.60001,2.95001-1.32501,4.27499-2.07501
		c2.60001-1.47501,4.47501-3.25,5.89999-5.35001c1.42499-2.35001,2.39999-4.92499,2.70001-7.92499
		c0.29999-3,0.35001-6.54999,0.35001-10.52499c0-3.5-0.64999-6.55-1.97501-9.10001c-1.82501-3.14999-4.97501-4.575-9.39999-4.425
		C270.14999,245.97501,273.29999,243.52499,275.20001,239.72501z M239.7,235.7c0-3.25,0.77499-6.10001,4.125-6.875
		c9.72501-1.925,16.37502,1.675,16.37502,7.375c0,5.45-4.675,8.95-13.425,10.325c-4.47501,0.7-7.075-1.575-7.075-6.3
		C239.7,238.2,239.7,238.10001,239.7,235.7z M246.64999,279.10001c-4.675,0.77499-7.27499-1.47501-7.27499-6.25
		c0-1.97501,0-2.17499,0-4.57501c0-3.25,0.77499-6.10001,4.22501-6.875c10.02499-1.97501,16.95001,1.57501,16.95001,7.375
		C260.60001,274.10001,255.7,277.625,246.64999,279.10001z"/>
	<path id="U" class="st1" d="M206.97501,216.125c0,0.3,0,0.45,0,0.77499c0,4.575-0.10001,8.95-0.2,13.075
		c0,5.35001-0.3,10.52499-0.875,15.35001c-0.45,4.075-1.425,7.27499-2.75,9.77499c-0.77499,1.47499-1.97501,2.7-3.5,3.59999
		c-1.425,0.92499-3.25,1.42499-5.25,1.77499c-0.3,0.04999-0.55,0.10001-0.875,0.14999c-0.64999,0-1.325,0.04999-1.97501-0.04999
		c-1.77499-0.10001-3.2-0.77499-4.375-1.97501c-1.22501-1.32501-2.075-3.45-2.75-6.39999
		c-0.97501-4.72501-1.425-11.45-1.52499-19.89999l-0.2-11.60001v-7.625l-15.625,2.5v0.10001v7.325v4.825l0.10001,0.64999v1.425
		c0,7.72501,0.10001,15.45,0.45,23c0.10001,6.45,0.64999,12.72499,1.625,18.87498c0.35001,2.02499,0.77499,4.07501,1.325,6.04999
		c0.60001,2.95001,1.77499,5.64999,3.3,8.14999c0.7,1.125,1.52499,2.07501,2.5,3c1.825,1.47501,4.02499,2.5,6.77499,2.89999
		c3.05,0.45001,6.45,0.39999,10.575-0.25c3.925-0.60001,7.325-1.625,10.27499-3.04999c6.14999-3,10.27499-9.04999,12.45-18.10001
		c0.77499-3.35001,1.375-6.77499,1.72501-10.17499c0.97501-7.875,1.425-17.95,1.625-30.14999c0.10001-4.825,0.2-8.85001,0.2-12
		V217.75v-0.64999v-12.925l-13.075,2.125v9.825H206.97501z"/>
	<path id="T_00000180353604940237581410000016655914366836441260_" class="st1" d="M113.35,267.02499l10.675-1.72501L127.275,265
		c2.45-0.29999,3.6,2.29999,3.6,7.82501v1.97501l0.10001,40.89999l13.72501-2.17499v-36.97501
		c0.2-8.14999,0.875-13.67499,2.075-16.52499c1.02499-2.64999,3.35001-4.425,6.77499-4.97501l3.825-0.60001l4.625-0.825V227.3
		l-48.675,7.77499v31.95H113.35z"/>
	<path id="M" class="st1" d="M363.60001,139.77499c0-9.35001,0.25-15.475,0.875-18.1c0.29999-1.425,0.92499-2.3,1.57501-2.4
		c0.82501-0.15,1.77499,0.6,2.75,2.175c1.27499,2.125,4.22501,8.60001,8.70001,19.47501l9.54999-1.52499
		c4.875-13.175,8.20001-21.15,9.97501-23.95c0.875-1.375,1.92499-2.25,3.10001-2.45c1.07501-0.2,1.92499,0.875,2.45001,3.3
		c0.45001,2.85,0.64999,8.3,0.64999,16.175l-0.10001,8.8l14.64999-2.35001V53.625L406.17502,55.5l-7.52499,23.45l-5.125,14.5
		c-2.25,5.55-4.42499,8.45-6.45001,8.75c-0.29999,0.05-0.54999,0.1-0.97501,0.05c-2.45001-0.65-4.375-2.35-5.75-5.025
		c-2.54999-4.375-7.125-14.95-13.67499-31.7l-17.20001,2.75v81.625l14.14999-2.3v-7.825H363.60001z"/>
	<path id="H_00000127753449903892801250000009788699456057195654_" class="st1" d="M344.57501,76.75l-17.85001,2.85
		c0,11.95,0,22.775-0.5,26.65c-1.27499,9.45-17.60001,12.575-18.35001,3.825c-0.35001-4.175-0.64999-9.675-0.64999-21.775
		l-13.17499,2.075V170.25l16.77499-2.7c0-12.675,0-18.14999,0.20001-22.47501c0.60001-11.39999,17.85001-12.825,19.42499-2.7
		c0.64999,4.47501,0.77499,6.675,0.77499,16.95l13.375-2.125V76.75H344.57501z"/>
	<path id="T" class="st1" d="M288.97501,127.85v-26.975l-49.89999,7.975v32.7l10.925-1.72501l3.3-0.35001
		c2.55-0.3,3.72501,2.35001,3.72501,7.97501v2.02499l0.14999,41.90001l14.04999-2.25V151.3
		c0.20001-8.35001,0.875-13.97501,2.125-16.95c1.07501-2.75,3.39999-4.575,6.92499-5.125l3.92499-0.60001L288.97501,127.85z"/>
	<path id="Y" class="st1" d="M234,99.975l-15.25,2.5c0,0,0.2,15.975-0.39999,27.675c-0.875,17.05-17.85001,19.425-19.125,3.05
		c-0.77499-8.65-1.075-25.675-1.075-25.675l-18.825,3v13.875c0,33.27499,21.14999,38.95,32.2,30.27499
		c0.64999-0.5,1.325-0.825,1.925-0.5c0.60001,0.3,0.60001,0.97501,0.3,2.175c-0.64999,3.3-5.45,9.45-15.10001,11.39999
		c-7.425,1.47501-14.75,2.125-18.35001,2.55v23.05c16.325-0.97501,35.25-4.27499,44.05-17.39999
		c4.575-6.925,6.925-14.3,8.2-25.52499C234.39999,132.85001,234,99.975,234,99.975z"/>
	<path id="H" class="st1" d="M140.85001,189.72501c0.60001-11.39999,17.85001-12.825,19.425-2.7
		c0.64999,4.47501,0.77499,6.675,0.77499,16.95l13.375-2.125v-80.425l-17.85001,2.85c0,11.95,0,22.775-0.5,26.65
		c-1.27499,9.45-17.60001,12.575-18.35001,3.825c-0.35001-4.175-0.64999-9.675-0.64999-21.77499l-13.175,2.075v79.84999
		l16.77499-2.7C140.64999,199.55,140.64999,194.05,140.85001,189.72501z"/>
	<path id="R" class="st1" d="M97.425,175.97501c12.2-3.72501,21.575-14.7,21.575-27.77499c0-26.25-26.05-35.65-57.975-26.55v84.75
		l13.575-2.175V183c0-3.3,2.45-2.55,4.675-0.45c1.525,1.47501,10.975,11.10001,17.55,18.05l20.8-3.3
		C117.625,197.3,99.55,177.825,97.425,175.97501z M82.525,170.45c-5.075,0.825-7.825-2.175-7.825-8.14999c0-2.55,0-2.7,0-5.64999
		c-0.1-4.125,0.775-7.675,4.525-8.55c10.925-2.25,18.35,2.45,18.35,9.675C97.575,164.55,92.4,168.75,82.525,170.45z"/>
</g>
</svg>
