<?xml version="1.0" encoding="UTF-8" standalone="no"?>
<!-- Created with Inkscape (http://www.inkscape.org/) -->

<svg
   version="1.1"
   id="svg1"
   width="666.66669"
   height="471.58133"
   viewBox="0 0 666.66669 471.58133"
   sodipodi:docname="Rhythm Heaven Breakdown Logo Remake.ai"
   xmlns:inkscape="http://www.inkscape.org/namespaces/inkscape"
   xmlns:sodipodi="http://sodipodi.sourceforge.net/DTD/sodipodi-0.dtd"
   xmlns="http://www.w3.org/2000/svg"
   xmlns:svg="http://www.w3.org/2000/svg">
  <defs
     id="defs1">
    <clipPath
       clipPathUnits="userSpaceOnUse"
       id="clipPath2">
      <path
         d="M 0,353.686 H 500 V 0 H 0 Z"
         transform="translate(-425.15501,-239.63041)"
         id="path2" />
    </clipPath>
    <clipPath
       clipPathUnits="userSpaceOnUse"
       id="clipPath4">
      <path
         d="M 0,353.686 H 500 V 0 H 0 Z"
         transform="translate(-425.15501,-231.44341)"
         id="path4" />
    </clipPath>
    <clipPath
       clipPathUnits="userSpaceOnUse"
       id="clipPath6">
      <path
         d="M 0,353.686 H 500 V 0 H 0 Z"
         transform="translate(-425.15501,-224.297)"
         id="path6" />
    </clipPath>
    <clipPath
       clipPathUnits="userSpaceOnUse"
       id="clipPath8">
      <path
         d="M 0,353.686 H 500 V 0 H 0 Z"
         transform="translate(-435.35131,-209.1578)"
         id="path8" />
    </clipPath>
    <clipPath
       clipPathUnits="userSpaceOnUse"
       id="clipPath10">
      <path
         d="M 0,353.686 H 500 V 0 H 0 Z"
         transform="translate(-392.51731,-184.4351)"
         id="path10" />
    </clipPath>
    <clipPath
       clipPathUnits="userSpaceOnUse"
       id="clipPath12">
      <path
         d="M 0,353.686 H 500 V 0 H 0 Z"
         transform="translate(-334.89331,-119.54401)"
         id="path12" />
    </clipPath>
    <clipPath
       clipPathUnits="userSpaceOnUse"
       id="clipPath14">
      <path
         d="M 0,353.686 H 500 V 0 H 0 Z"
         transform="translate(-280.72341,-111.8101)"
         id="path14" />
    </clipPath>
    <clipPath
       clipPathUnits="userSpaceOnUse"
       id="clipPath16">
      <path
         d="M 0,353.686 H 500 V 0 H 0 Z"
         transform="translate(-249.53491,-115.36291)"
         id="path16" />
    </clipPath>
    <clipPath
       clipPathUnits="userSpaceOnUse"
       id="clipPath18">
      <path
         d="M 0,353.686 H 500 V 0 H 0 Z"
         transform="translate(-202.95391,-101.4346)"
         id="path18" />
    </clipPath>
    <clipPath
       clipPathUnits="userSpaceOnUse"
       id="clipPath20">
      <path
         d="M 0,353.686 H 500 V 0 H 0 Z"
         transform="translate(-161.8425,-95.235905)"
         id="path20" />
    </clipPath>
    <clipPath
       clipPathUnits="userSpaceOnUse"
       id="clipPath22">
      <path
         d="M 0,353.686 H 500 V 0 H 0 Z"
         transform="translate(-120.5544,-80.3516)"
         id="path22" />
    </clipPath>
    <clipPath
       clipPathUnits="userSpaceOnUse"
       id="clipPath24">
      <path
         d="M 0,353.686 H 500 V 0 H 0 Z"
         transform="translate(-66.550502,-78.316504)"
         id="path24" />
    </clipPath>
    <clipPath
       clipPathUnits="userSpaceOnUse"
       id="clipPath26">
      <path
         d="M 0,353.686 H 500 V 0 H 0 Z"
         transform="translate(-346.60231,-245.92441)"
         id="path26" />
    </clipPath>
    <clipPath
       clipPathUnits="userSpaceOnUse"
       id="clipPath28">
      <path
         d="M 0,353.686 H 500 V 0 H 0 Z"
         transform="translate(-301.93241,-185.9639)"
         id="path28" />
    </clipPath>
    <clipPath
       clipPathUnits="userSpaceOnUse"
       id="clipPath30">
      <path
         d="M 0,353.686 H 500 V 0 H 0 Z"
         transform="translate(-273.25851,-220.9346)"
         id="path30" />
    </clipPath>
    <clipPath
       clipPathUnits="userSpaceOnUse"
       id="clipPath32">
      <path
         d="M 0,353.686 H 500 V 0 H 0 Z"
         transform="translate(-238.48711,-168.94981)"
         id="path32" />
    </clipPath>
    <clipPath
       clipPathUnits="userSpaceOnUse"
       id="clipPath34">
      <path
         d="M 0,353.686 H 500 V 0 H 0 Z"
         transform="translate(-201.53691,-159.53281)"
         id="path34" />
    </clipPath>
    <clipPath
       clipPathUnits="userSpaceOnUse"
       id="clipPath36">
      <path
         d="M 0,353.686 H 500 V 0 H 0 Z"
         transform="translate(-169.3591,-198.66271)"
         id="path36" />
    </clipPath>
    <clipPath
       clipPathUnits="userSpaceOnUse"
       id="clipPath38">
      <path
         d="M 0,353.686 H 500 V 0 H 0 Z"
         transform="translate(-345.58181,-253.93271)"
         id="path38" />
    </clipPath>
    <clipPath
       clipPathUnits="userSpaceOnUse"
       id="clipPath40">
      <path
         d="M 0,353.686 H 500 V 0 H 0 Z"
         transform="translate(-280.7947,-286.47081)"
         id="path40" />
    </clipPath>
    <clipPath
       clipPathUnits="userSpaceOnUse"
       id="clipPath42">
      <path
         d="M 0,353.686 H 500 V 0 H 0 Z"
         transform="translate(-223.9363,-279.08701)"
         id="path42" />
    </clipPath>
    <clipPath
       clipPathUnits="userSpaceOnUse"
       id="clipPath44">
      <path
         d="M 0,353.686 H 500 V 0 H 0 Z"
         transform="translate(-219.45481,-270.08501)"
         id="path44" />
    </clipPath>
    <clipPath
       clipPathUnits="userSpaceOnUse"
       id="clipPath46">
      <path
         d="M 0,353.686 H 500 V 0 H 0 Z"
         transform="translate(-168.282,-261.9395)"
         id="path46" />
    </clipPath>
    <clipPath
       clipPathUnits="userSpaceOnUse"
       id="clipPath48">
      <path
         d="M 0,353.686 H 500 V 0 H 0 Z"
         transform="translate(-114.906,-225.689)"
         id="path48" />
    </clipPath>
  </defs>
  <sodipodi:namedview
     id="namedview1"
     pagecolor="#ffffff"
     bordercolor="#000000"
     borderopacity="0.25"
     inkscape:showpageshadow="2"
     inkscape:pageopacity="0.0"
     inkscape:pagecheckerboard="0"
     inkscape:deskcolor="#d1d1d1">
    <inkscape:page
       x="0"
       y="0"
       inkscape:label="1"
       id="page1"
       width="666.66669"
       height="471.58133"
       margin="0"
       bleed="0" />
  </sodipodi:namedview>
  <g
     id="layer-MC0"
     inkscape:groupmode="layer"
     inkscape:label="Layer 1">
    <path
       id="path1"
       d="m 0,0 c -9.352,0 -18.421,-1.688 -26.911,-4.964 -1.865,4.127 -4.127,8.071 -6.769,11.796 3.539,9.075 5.381,18.796 5.381,28.603 0,43.352 -35.268,78.62 -78.62,78.62 -25.264,0 -48.558,-12.071 -63.183,-31.811 -10.135,5.064 -21.387,7.759 -32.881,7.759 -15.185,0 -29.765,-4.593 -42.165,-13.282 -6.43,-4.506 -12.036,-9.936 -16.666,-16.1 -12.438,7.805 -26.959,12.083 -41.838,12.083 -43.352,0 -78.62,-35.269 -78.62,-78.62 0,-17.428 5.586,-33.939 16.157,-47.749 7.383,-9.646 16.995,-17.484 27.83,-22.829 -0.148,-1.897 -0.222,-3.803 -0.222,-5.712 0,-2.017 0.082,-4.025 0.245,-6.019 -3.553,0.504 -7.165,0.758 -10.811,0.758 -41.952,0 -76.082,-34.13 -76.082,-76.081 0,-41.952 34.13,-76.082 76.082,-76.082 14.779,0 29.115,4.247 41.458,12.281 7.549,4.914 14.118,11.081 19.454,18.206 7.015,-2.526 14.452,-3.83 22.043,-3.83 11.47,0 22.751,3.031 32.626,8.764 5.734,3.33 10.925,7.524 15.383,12.397 5.29,-1.447 10.778,-2.193 16.284,-2.193 18.908,0 36.378,8.606 47.887,22.836 7.632,-3.104 15.827,-4.708 24.276,-4.708 17.725,0 34.345,7.178 46.388,19.65 5.906,-1.577 12.005,-2.373 18.238,-2.373 14.766,0 28.927,4.54 40.789,12.941 7.775,-2.653 16.005,-4.031 24.247,-4.031 41.27,0 74.845,33.575 74.845,74.845 C 74.845,-33.576 41.27,0 0,0"
       style="fill:#00b3f0;fill-opacity:1;fill-rule:nonzero;stroke:none"
       transform="matrix(1.3333333,0,0,-1.3333333,566.87333,152.07413)"
       clip-path="url(#clipPath2)" />
    <path
       id="path3"
       d="m 0,0 c -11.156,0 -21.863,-2.698 -31.478,-7.876 -2.386,7.916 -6.301,15.258 -11.601,21.724 4.326,9.278 6.594,19.472 6.594,29.774 0,38.837 -31.597,70.434 -70.434,70.434 -25.096,0 -48.022,-13.295 -60.597,-34.511 -10.51,6.79 -22.824,10.458 -35.467,10.458 -13.496,0 -26.452,-4.08 -37.467,-11.8 -7.929,-5.556 -14.446,-12.691 -19.197,-20.953 -12.414,9.913 -27.979,15.454 -44.005,15.454 -38.837,0 -70.434,-31.596 -70.434,-70.433 0,-15.613 5.004,-30.404 14.472,-42.773 7.786,-10.174 18.337,-18.102 30.182,-22.784 -0.59,-3.537 -0.888,-7.127 -0.888,-10.733 0,-5.701 0.738,-11.314 2.178,-16.727 -6.692,2.166 -13.731,3.28 -20.931,3.28 -37.438,0 -67.895,-30.458 -67.895,-67.895 0,-37.438 30.457,-67.896 67.895,-67.896 23.705,0 45.674,12.519 57.913,32.454 7.751,-3.809 16.278,-5.796 25.042,-5.796 17.776,0 34.597,8.472 45.276,22.463 6.047,-2.298 12.516,-3.495 19.017,-3.495 18.572,0 35.546,9.577 45.217,24.969 8.219,-4.495 17.396,-6.841 26.946,-6.841 17.147,0 33.109,7.694 43.766,20.844 6.672,-2.369 13.665,-3.567 20.86,-3.567 14.485,0 28.311,4.94 39.435,14.004 8.098,-3.383 16.687,-5.094 25.601,-5.094 36.755,0 66.658,29.902 66.658,66.658 C 66.658,-29.903 36.755,0 0,0"
       style="fill:#ffffff;fill-opacity:1;fill-rule:nonzero;stroke:none"
       transform="matrix(1.3333333,0,0,-1.3333333,566.87333,162.99013)"
       clip-path="url(#clipPath4)" />
    <path
       id="path5"
       d="m 0,0 c -13.676,0 -26.271,-4.616 -36.32,-12.37 -1.504,12.464 -7.073,23.677 -15.342,32.272 5.112,9.132 8.03,19.658 8.03,30.867 0,34.952 -28.335,63.286 -63.287,63.286 -26.017,0 -48.363,-15.701 -58.091,-38.143 -10.194,8.781 -23.463,14.09 -37.973,14.09 -24.827,0 -46.019,-15.541 -54.391,-37.423 -11.552,12.381 -28.01,20.125 -46.278,20.125 -34.952,0 -63.287,-28.334 -63.287,-63.287 0,-28.906 19.38,-53.286 45.857,-60.855 -1.36,-4.913 -2.091,-10.088 -2.091,-15.435 0,-11.925 3.618,-23.005 9.817,-32.203 -10.026,7.3 -22.368,11.61 -35.717,11.61 -33.551,0 -60.748,-27.199 -60.748,-60.749 0,-33.55 27.197,-60.748 60.748,-60.748 24.414,0 45.461,14.404 55.114,35.176 7.944,-5.377 17.525,-8.519 27.841,-8.519 18.168,0 34.057,9.745 42.734,24.292 6.439,-3.398 13.773,-5.324 21.559,-5.324 19.081,0 35.462,11.555 42.532,28.047 8.243,-6.225 18.505,-9.919 29.631,-9.919 17.3,0 32.513,8.928 41.288,22.426 7.093,-3.301 14.999,-5.149 23.338,-5.149 14.812,0 28.266,5.817 38.202,15.292 8.063,-4.081 17.179,-6.382 26.834,-6.382 32.867,0 59.512,26.644 59.512,59.511 C 59.512,-26.645 32.867,0 0,0"
       style="fill:#130c0e;fill-opacity:1;fill-rule:nonzero;stroke:none"
       transform="matrix(1.3333333,0,0,-1.3333333,566.87333,172.51867)"
       clip-path="url(#clipPath6)" />
    <path
       id="path7"
       d="m 0,0 c 0,0 -0.11,-28.775 -0.469,-33.836 -0.559,-7.907 -2.683,-8.119 -4.491,-6.933 -3.607,2.367 -10.348,15.843 -16.382,27.561 l -8.804,-2.032 v -72.817 l 10.765,2.485 0.036,18.477 c 0.019,9.484 2.609,10.101 6.371,6.656 2.856,-2.614 8.072,-10.574 14.194,-20.376 l 12.917,2.982 V 3.264 Z"
       style="fill:#faa61a;fill-opacity:1;fill-rule:nonzero;stroke:none"
       transform="matrix(1.3333333,0,0,-1.3333333,580.4684,192.70427)"
       clip-path="url(#clipPath8)" />
    <path
       id="path9"
       d="m 0,0 c -4.349,-26.981 -9.304,-31.648 -10.092,-27.216 -0.833,4.683 -2.899,18.805 -2.899,18.805 L -19.05,-9.81 c 0,0 -2.137,-13.148 -2.77,-17.434 -1.503,-10.176 -5.522,-5.59 -10.704,19.735 l -9.001,-2.078 7.719,-52.747 11.801,2.725 c 0,0 1.241,5.868 2.263,10.729 1.733,8.245 5.392,9.33 6.885,2.771 1.01,-4.441 2.435,-10.826 2.435,-10.826 l 9.895,2.284 8.963,56.599 z"
       style="fill:#faa61a;fill-opacity:1;fill-rule:nonzero;stroke:none"
       transform="matrix(1.3333333,0,0,-1.3333333,523.3564,225.66787)"
       clip-path="url(#clipPath10)" />
    <path
       id="path11"
       d="m 0,0 c -4.173,-5.624 -13.226,-7.177 -15.499,3.197 -2.964,13.52 5.228,19.136 12.361,17.244 C 5.989,18.021 4.242,5.716 0,0 m -4.45,42.136 c -19.024,-2.865 -26.968,-28.271 -20.13,-43.444 4.556,-10.109 14.606,-12.109 22.15,-9.676 10.149,3.273 14.945,14.039 16.672,19.32 5.665,17.317 -2.837,36.188 -18.692,33.8"
       style="fill:#faa61a;fill-opacity:1;fill-rule:nonzero;stroke:none"
       transform="matrix(1.3333333,0,0,-1.3333333,446.5244,312.18933)"
       clip-path="url(#clipPath12)" />
    <path
       id="path13"
       d="m 0,0 c -3.391,-0.784 -4.858,0.35 -4.858,4.316 v 12.513 c 0,2.884 -0.15,5.187 2.587,5.96 5.941,1.677 12.582,-1.503 13.21,-7.97 C 11.674,7.305 7.493,1.73 0,0 M -13.212,41.715 V -11.429 C 12.478,-7.672 23.662,2.254 23.383,21.984 23.138,39.093 6.151,48.495 -13.212,41.715"
       style="fill:#faa61a;fill-opacity:1;fill-rule:nonzero;stroke:none"
       transform="matrix(1.3333333,0,0,-1.3333333,374.29787,322.5012)"
       clip-path="url(#clipPath14)" />
    <path
       id="path15"
       d="M 0,0 13.395,31.224 -1.537,27.776 -8.965,2.491 c -1.848,-5.99 -5.423,-4.786 -5.43,-0.531 v 22.848 l -9.396,-2.169 V -31.57 l 9.396,2.169 v 6.474 c 0,5.826 0.541,9.01 2.376,10.175 5.179,3.287 9.759,-0.392 9.759,-13.847 l 13.952,3.221 C 11.692,-12.517 9.521,0 0,0"
       style="fill:#faa61a;fill-opacity:1;fill-rule:nonzero;stroke:none"
       transform="matrix(1.3333333,0,0,-1.3333333,332.7132,317.76413)"
       clip-path="url(#clipPath16)" />
    <path
       id="path17"
       d="m 0,0 -5.985,-1.382 c -1.505,-0.347 -2.362,0.59 -2.176,2.68 0.169,1.956 1.046,6.104 1.383,7.52 0.708,2.934 2.192,4.368 3.895,4.62 C -0.135,13.876 1.197,11.87 2.26,6.812 2.36,6.339 2.647,5.311 2.766,3.928 3.001,1.113 2.126,0.491 0,0 M 10.488,22.476 C 7.352,32.761 4.813,35.299 -1.433,33.857 -6.939,32.586 -10.07,29.719 -12.696,19.66 -15.276,9.779 -18.109,-4.215 -20.402,-20.2 l 9.071,1.973 c 0.169,1.265 0.473,2.748 0.911,5.008 0.472,2.276 1.703,3.904 4.148,4.468 2.012,0.464 5.759,1.33 7.082,1.635 1.892,0.437 3.625,-1.062 4.232,-3.591 0.404,-1.686 0.927,-4.064 1.247,-5.666 l 12.039,2.766 c -1.467,11.786 -4.721,25.865 -7.84,36.083"
       style="fill:#faa61a;fill-opacity:1;fill-rule:nonzero;stroke:none"
       transform="matrix(1.3333333,0,0,-1.3333333,270.6052,336.3352)"
       clip-path="url(#clipPath18)" />
    <path
       id="path19"
       d="m 0,0 c 3.496,1.312 10.813,3.275 16.958,4.61 v 18.815 l -30.713,-7.091 v -50.289 l 30.713,7.091 v 8.378 c -4.032,-1.056 -12.39,-2.632 -16.048,-3.252 -4.455,-0.751 -5.089,4.86 -0.162,6.48 2.829,0.924 8.016,2.159 12.065,3.295 v 6.451 C 9.121,-6.261 4.13,-7.129 0.195,-7.686 -4.683,-8.39 -5.528,-2.072 0,0"
       style="fill:#faa61a;fill-opacity:1;fill-rule:nonzero;stroke:none"
       transform="matrix(1.3333333,0,0,-1.3333333,215.79,344.60013)"
       clip-path="url(#clipPath20)" />
    <path
       id="path21"
       d="m 0,0 c -3.18,-0.745 -4.95,1.025 -4.95,4.81 v 3.657 c 0,2.637 0.513,4.926 2.865,5.671 C 4.745,16.302 9.503,13.358 9.503,8.734 9.503,4.414 6.195,1.456 0,0 m 23.023,15.804 c 0,16.805 -16.444,21.684 -36.556,14.499 v -54.248 l 8.571,1.979 v 13.581 c 0,2.073 1.526,1.712 2.935,0.454 0.99,-0.885 6.941,-6.65 11.098,-10.796 l 13.086,3.021 c 0,0 -11.408,11.653 -12.724,12.806 7.663,2.865 13.59,10.331 13.59,18.704"
       style="fill:#faa61a;fill-opacity:1;fill-rule:nonzero;stroke:none"
       transform="matrix(1.3333333,0,0,-1.3333333,160.7392,364.44587)"
       clip-path="url(#clipPath22)" />
    <path
       id="path23"
       d="m 0,0 c -4.781,-1.103 -6.882,2.369 -6.882,6.82 v 6.852 c 0,3.89 2.651,6.866 6.773,7.847 6.721,1.6 14.184,-1.111 15.037,-6.724 C 15.948,8.073 10.254,2.365 0,0 m 0.806,-27.564 c -5.341,-1.236 -7.688,-0.253 -7.688,4.035 v 7.218 c 0,4.243 3.054,7.904 7.994,9.035 8.413,1.926 12.698,-1.178 13.018,-5.818 0.421,-6.11 -2.813,-12.036 -13.324,-14.47 m 34.715,49.983 c 0,17.307 -19.563,28.522 -55.62,17.452 v -86.486 c 37.914,4.658 51.194,19.79 51.194,32.612 0,6.777 -2.524,11.567 -8.283,13.473 6.905,4.199 12.709,12.776 12.709,22.949"
       style="fill:#faa61a;fill-opacity:1;fill-rule:nonzero;stroke:none"
       transform="matrix(1.3333333,0,0,-1.3333333,88.734,367.15933)"
       clip-path="url(#clipPath24)" />
    <path
       id="path25"
       d="m 0,0 c 0,0 -0.091,-23.654 -0.385,-27.815 -0.46,-6.499 -2.206,-6.673 -3.692,-5.698 -2.966,1.945 -8.506,13.023 -13.467,22.656 l -7.237,-1.671 v -59.858 l 8.849,2.043 0.031,15.188 c 0.014,7.797 2.143,8.304 5.237,5.472 2.347,-2.15 5.541,-6.888 10.573,-14.947 l 11.712,2.704 V 2.683 Z"
       style="fill:#f15a22;fill-opacity:1;fill-rule:nonzero;stroke:none"
       transform="matrix(1.3333333,0,0,-1.3333333,462.1364,143.68213)"
       clip-path="url(#clipPath26)" />
    <path
       id="path27"
       d="m 0,0 c -0.269,-0.001 -2.257,0.066 -2.47,1.583 -0.123,0.878 0.299,1.703 1.36,2.352 1.659,1.014 7.4,2.665 12.912,3.957 v 7.621 c 0,0 -9.98,-2.401 -13.048,-1.945 -0.933,0.139 -1.553,0.631 -1.677,1.493 -0.126,0.88 0.318,1.673 1.36,2.352 2.806,1.827 15.403,4.545 15.403,4.545 v 17.583 l -25.937,-5.989 v -46.873 l 26.481,6.113 V 2.533 C 7.316,0.927 2.539,0.014 0,0"
       style="fill:#f15a22;fill-opacity:1;fill-rule:nonzero;stroke:none"
       transform="matrix(1.3333333,0,0,-1.3333333,402.57653,223.62947)"
       clip-path="url(#clipPath28)" />
    <path
       id="path29"
       d="m 0,0 c 0,0 -2.811,-18.512 -5.305,-27.067 -0.713,-2.444 -2.436,-6.184 -4.78,-0.837 -0.839,1.916 -3.331,10.865 -5.159,22.402 l -8.092,-1.868 c 0.708,-7.933 4.592,-29.359 9.768,-41.84 l 15.693,3.623 c 5.776,15.286 9.242,31.433 10.42,48.483 z"
       style="fill:#f15a22;fill-opacity:1;fill-rule:nonzero;stroke:none"
       transform="matrix(1.3333333,0,0,-1.3333333,364.34467,177.00187)"
       clip-path="url(#clipPath30)" />
    <path
       id="path31"
       d="m 0,0 -5.547,-1.28 c -1.391,-0.322 -2.2,0.528 -2.031,2.513 0.158,1.857 0.972,5.793 1.281,7.122 0.684,2.94 2.028,4.166 3.609,4.386 2.027,0.283 3.796,-1.488 4.766,-6.29 C 2.172,5.987 2.408,5.023 2.563,3.714 2.749,2.124 1.969,0.455 0,0 M 6.916,26.537 C 2.989,33.772 -1.578,32.273 -3.918,31.499 -6.984,30.484 -9.706,28.909 -12.554,17.614 -15.547,5.74 -18.81,-19.23 -18.81,-19.23 l 8.216,1.897 0.849,4.757 c 0.408,2.284 1.861,3.735 4.078,4.388 2.131,0.626 6.366,1.652 8.54,1.899 0.918,0.104 1.996,-0.62 2.311,-2.058 l 1.109,-5.088 11.19,2.583 c 0,0 -5.566,28.176 -10.567,37.389"
       style="fill:#f15a22;fill-opacity:1;fill-rule:nonzero;stroke:none"
       transform="matrix(1.3333333,0,0,-1.3333333,317.9828,246.31493)"
       clip-path="url(#clipPath32)" />
    <path
       id="path33"
       d="M 0,0 C -0.269,-0.001 -2.257,0.066 -2.469,1.583 -2.592,2.461 -2.171,3.286 -1.11,3.935 0.549,4.95 6.291,6.6 11.802,7.892 v 7.621 c 0,0 -9.979,-2.401 -13.048,-1.945 -0.932,0.139 -1.553,0.632 -1.676,1.493 -0.126,0.88 0.318,1.673 1.36,2.352 2.805,1.827 15.403,4.545 15.403,4.545 v 18.953 l -25.938,-5.988 v -46.874 l 26.481,6.114 v 8.37 C 7.316,0.927 2.539,0.014 0,0"
       style="fill:#f15a22;fill-opacity:1;fill-rule:nonzero;stroke:none"
       transform="matrix(1.3333333,0,0,-1.3333333,268.71587,258.87093)"
       clip-path="url(#clipPath34)" />
    <path
       id="path35"
       d="m 0,0 c 0,-9.354 0.047,-16.354 -1.234,-20.941 -0.779,-2.787 -2.493,-4.907 -4.78,-6.513 -2.331,-1.635 -4.667,-2.352 -6.955,-2.397 -2.789,-0.055 -4.829,1.463 -5.127,4.563 -0.427,4.453 -0.399,10.08 -0.399,17.878 l -10.126,-2.338 v -68.971 l 13.908,3.211 c 0,8.778 0.181,15.248 1.262,19.283 0.737,2.75 2.743,5.071 4.767,6.438 2.367,1.599 4.543,2.397 6.836,2.434 2.786,0.046 4.902,-1.392 5.164,-4.171 0.386,-4.07 0.411,-9.606 0.411,-17.16 l 10.306,2.38 V 3.24 Z"
       style="fill:#f15a22;fill-opacity:1;fill-rule:nonzero;stroke:none"
       transform="matrix(1.3333333,0,0,-1.3333333,225.81213,206.69773)"
       clip-path="url(#clipPath36)" />
    <path
       id="path37"
       d="M 0,0 V 60.056 L -8.21,58.16 c -4.354,-14.378 -6.817,-21.409 -8.966,-27.335 -3.656,-10.085 -7.458,-6.126 -9.221,-3.311 -2.063,3.292 -4.854,9.708 -9.707,21.455 l -11.99,-2.768 v -55.57 l 9.942,2.295 c -0.076,8.996 0.081,14.239 0.566,16.612 0.437,2.132 1.722,2.433 3.023,0.317 1.073,-1.739 2.768,-5.503 6.139,-13.244 l 6.667,1.539 c 3.675,9.873 5.659,14.848 7.061,17.284 1.137,1.979 3.292,3.371 3.946,-0.287 0.495,-2.768 0.454,-8.335 0.438,-17.527 z"
       style="fill:#faa61a;fill-opacity:1;fill-rule:nonzero;stroke:none"
       transform="matrix(1.3333333,0,0,-1.3333333,460.77573,133.0044)"
       clip-path="url(#clipPath38)" />
    <path
       id="path39"
       d="m 0,0 c 0,0 0.197,-13.043 -0.247,-17.362 -0.59,-5.73 -10.748,-7.709 -11.178,-1.852 -0.192,2.615 -0.339,5.986 -0.339,13.685 l -8.301,-1.917 v -51.445 l 11.382,2.628 v 11.881 c 0,9.137 11.351,9.901 11.962,3.514 0.193,-2.008 0.29,-5.139 0.29,-11.636 l 8.302,1.917 V 2.741 Z"
       style="fill:#faa61a;fill-opacity:1;fill-rule:nonzero;stroke:none"
       transform="matrix(1.3333333,0,0,-1.3333333,374.39293,89.620267)"
       clip-path="url(#clipPath40)" />
    <path
       id="path41"
       d="m 0,0 v -21.201 l 7.659,1.768 c 3.053,0.705 4.124,0.057 4.102,-6.075 v -27.246 l 9.075,2.095 v 25.213 c 0.062,10.823 1.333,13.064 6.716,14.307 l 4.805,1.109 V 7.471 Z"
       style="fill:#faa61a;fill-opacity:1;fill-rule:nonzero;stroke:none"
       transform="matrix(1.3333333,0,0,-1.3333333,298.58173,99.465333)"
       clip-path="url(#clipPath42)" />
    <path
       id="path43"
       d="m 0,0 -9.678,-2.234 c 0,0 -0.06,-7.324 -0.595,-17.022 -0.57,-10.31 -11.676,-13.471 -12.311,-2.983 -0.404,6.699 -0.34,15.783 -0.34,15.783 l -11.585,-2.675 v -4.96 c 0,-19.315 2.219,-25.87 13.887,-24.61 2.728,0.295 4.806,1.161 7.147,2.746 0.146,0.1 0.331,0.101 0.505,-0.033 0.166,-0.129 0.437,-0.562 0.031,-1.823 -2.189,-6.792 -20.928,-8.812 -20.928,-8.812 v -15.176 c 10.71,1.576 22.367,3.856 28.484,14.019 C -3.099,-43.984 0,-39.4 0,0"
       style="fill:#faa61a;fill-opacity:1;fill-rule:nonzero;stroke:none"
       transform="matrix(1.3333333,0,0,-1.3333333,292.6064,111.468)"
       clip-path="url(#clipPath44)" />
    <path
       id="path45"
       d="m 0,0 c 0,0 0.187,-12.396 -0.234,-16.5 -0.561,-5.446 -10.215,-7.327 -10.623,-1.76 -0.183,2.484 -0.323,5.688 -0.323,13.005 l -7.889,-1.822 v -48.892 l 10.817,2.498 v 11.291 c 0,8.684 10.788,9.41 11.369,3.34 0.183,-1.909 0.276,-4.884 0.276,-11.059 l 7.889,1.822 V 2.604 Z"
       style="fill:#faa61a;fill-opacity:1;fill-rule:nonzero;stroke:none"
       transform="matrix(1.3333333,0,0,-1.3333333,224.376,122.32867)"
       clip-path="url(#clipPath46)" />
    <path
       id="path47"
       d="m 0,0 c -4.954,-1.263 -7.876,1.39 -7.876,8.049 0,5.312 0.101,10.795 9.825,10.795 6.923,0 9.818,-3.506 9.818,-7.46 C 11.767,7.94 7.554,1.926 0,0 m 29.07,21.939 c 0,12.231 -9.01,27.024 -46.715,17.949 v -66.517 l 9.819,2.267 v 12.018 c 0,4.884 2.814,3.984 4.609,2.815 1.396,-0.909 4.353,-3.293 11.346,-11.15 l 16.68,3.851 -12.998,13.308 c 0,0 17.259,6.95 17.259,25.459"
       style="fill:#faa61a;fill-opacity:1;fill-rule:nonzero;stroke:none"
       transform="matrix(1.3333333,0,0,-1.3333333,153.208,170.66267)"
       clip-path="url(#clipPath48)" />
  </g>
</svg>
