<?xml version="1.0" encoding="UTF-8" standalone="no"?>
<svg
   xmlns:dc="http://purl.org/dc/elements/1.1/"
   xmlns:cc="http://creativecommons.org/ns#"
   xmlns:rdf="http://www.w3.org/1999/02/22-rdf-syntax-ns#"
   xmlns:svg="http://www.w3.org/2000/svg"
   xmlns="http://www.w3.org/2000/svg"
   xmlns:sodipodi="http://sodipodi.sourceforge.net/DTD/sodipodi-0.dtd"
   xmlns:inkscape="http://www.inkscape.org/namespaces/inkscape"
   version="1.1"
   id="svg2"
   xml:space="preserve"
   width="1323.608"
   height="742.44666"
   viewBox="0 0 1323.608 742.44666"
   sodipodi:docname="Rythiczny Raj Logo.ai"><metadata
     id="metadata8"><rdf:RDF><cc:Work
         rdf:about=""><dc:format>image/svg+xml</dc:format><dc:type
           rdf:resource="http://purl.org/dc/dcmitype/StillImage" /></cc:Work></rdf:RDF></metadata><defs
     id="defs6"><clipPath
       clipPathUnits="userSpaceOnUse"
       id="clipPath18"><path
         d="M 0,556.835 H 992.706 V 0 H 0 Z"
         id="path16" /></clipPath></defs><sodipodi:namedview
     pagecolor="#ffffff"
     bordercolor="#666666"
     borderopacity="1"
     objecttolerance="10"
     gridtolerance="10"
     guidetolerance="10"
     inkscape:pageopacity="0"
     inkscape:pageshadow="2"
     inkscape:window-width="640"
     inkscape:window-height="480"
     id="namedview4" /><g
     id="g10"
     inkscape:groupmode="layer"
     inkscape:label="Rythiczny Raj Logo"
     transform="matrix(1.3333333,0,0,-1.3333333,0,742.44667)"><g
       id="g12"><g
         id="g14"
         clip-path="url(#clipPath18)"><g
           id="g20"
           transform="translate(928.269,492.3989)"><path
             d="m 0,0 c -41.553,41.553 -96.799,64.437 -155.563,64.437 -71.52,0 -137.104,-34.326 -177.905,-90.457 -28.315,14.042 -59.709,21.511 -91.764,21.511 -42.63,0 -83.565,-12.894 -118.377,-37.289 -17.959,-12.583 -33.623,-27.733 -46.585,-44.926 -8.953,5.696 -18.341,10.751 -28.133,15.143 -28.378,12.728 -58.639,19.182 -89.942,19.182 -58.764,0 -114.011,-22.884 -155.564,-64.436 -41.552,-41.553 -64.436,-96.8 -64.436,-155.564 0,-58.764 22.884,-114.011 64.436,-155.563 41.553,-41.553 96.8,-64.437 155.564,-64.437 47.322,0 92.419,14.806 130.417,42.816 21.526,15.87 39.712,35.154 53.985,57.065 29.935,-16.319 63.646,-24.991 98.635,-24.991 39.339,0 77.613,11.117 110.684,32.149 17.581,11.182 33.278,24.878 46.638,40.582 33.684,-20.063 72.273,-30.785 112.347,-30.785 58.764,0 114.01,22.884 155.563,64.436 41.553,41.553 64.437,96.799 64.437,155.564 C 64.437,-96.799 41.553,-41.552 0,0"
             style="fill:#00b3f0;fill-opacity:1;fill-rule:nonzero;stroke:none"
             id="path22" /></g><g
           id="g24"
           transform="translate(772.7056,535.3354)"><path
             d="m 0,0 c -71.024,0 -135.561,-37.517 -170.938,-97.492 -29.386,18.544 -63.613,28.546 -98.73,28.546 -38.193,0 -74.861,-11.548 -106.04,-33.396 -21.927,-15.365 -40.038,-34.995 -53.403,-57.702 -34.907,27.73 -78.556,43.209 -123.595,43.209 -109.453,0 -198.5,-89.047 -198.5,-198.5 0,-109.454 89.047,-198.5 198.5,-198.5 42.698,0 83.384,13.355 117.66,38.623 25.195,18.572 45.316,42.321 59.242,69.701 30.894,-21.726 67.65,-33.435 106.136,-33.435 35.245,0 69.529,9.956 99.146,28.791 21.144,13.448 39.251,30.958 53.328,51.42 C -83.358,-383.564 -42.606,-397 0,-397 c 109.453,0 198.5,89.047 198.5,198.5 C 198.5,-89.047 109.453,0 0,0"
             style="fill:#ffffff;fill-opacity:1;fill-rule:nonzero;stroke:none"
             id="path26" /></g><g
           id="g28"
           transform="translate(772.7056,513.8354)"><path
             d="m 0,0 c -73.417,0 -136.391,-44.701 -163.198,-108.369 -28.608,24.57 -65.803,39.423 -106.47,39.423 -69.72,0 -129.236,-43.643 -152.748,-105.096 -32.348,35.165 -78.742,57.207 -130.29,57.207 -97.754,0 -177,-79.246 -177,-177 0,-97.754 79.246,-177 177,-177 78.538,0 145.116,51.156 168.262,121.96 29.52,-29.103 70.047,-47.071 114.776,-47.071 64.466,0 120.21,37.316 146.832,91.521 C -91.004,-335.117 -47.71,-354 0,-354 c 97.755,0 177,79.246 177,177 C 177,-79.246 97.755,0 0,0"
             style="fill:#130c0e;fill-opacity:1;fill-rule:nonzero;stroke:none"
             id="path30" /></g><g
           id="g32"
           transform="translate(129.6152,210.4956)"><path
             d="m 0,0 v -7.904 c 0,-8.18 3.826,-12.007 10.698,-10.396 13.392,3.147 20.54,9.54 20.54,18.879 0,9.994 -10.219,15.758 -25.046,11.68 C 1.107,10.648 -0.025,5.689 0,0 m 58.551,-52.207 -28.284,-6.53 c -8.986,8.962 -21.809,21.382 -23.949,23.294 -3.046,2.72 -6.343,3.499 -6.343,-0.98 l 0.022,-29.302 -18.549,-4.282 V 47.198 C 24.92,62.729 60.463,52.182 60.463,15.859 60.438,-2.24 47.651,-18.375 31.088,-24.568 33.932,-27.06 58.525,-52.232 58.551,-52.207"
             style="fill:#faa61a;fill-opacity:1;fill-rule:nonzero;stroke:none"
             id="path34" /></g><g
           id="g36"
           transform="translate(247.0513,189.0132)"><path
             d="m 0,0 c -1.116,-10.542 -2.95,-19.085 -6.358,-24.79 -9.024,-15.335 -26.368,-18.676 -42.256,-20.991 l 0.007,22.828 c 0,0 8.199,1.314 15.148,3.177 11.005,2.988 15.456,7.488 16.028,9.897 0.436,1.948 0.212,2.652 -0.153,2.921 -0.176,0.122 -0.393,0.145 -0.614,0.003 -3.402,-2.483 -7.262,-3.399 -11.288,-4.002 -16.08,-2.41 -20.081,19.561 -20.081,58.64 l 17.329,4 c 0,0 -0.134,-22.968 0.28,-31.041 0.907,-15.836 17.756,-11.863 18.587,3.696 0.558,10.969 0.853,37.563 0.853,37.563 L 1.631,65.168 C 1.631,65.168 1.743,16.592 0,0"
             style="fill:#faa61a;fill-opacity:1;fill-rule:nonzero;stroke:none"
             id="path38" /></g><g
           id="g40"
           transform="translate(306.7656,244.498)"><path
             d="m 0,0 v -15.246 c 0,0 -32.047,-3.438 -32.058,-25.389 -0.014,-30.617 27.615,-16.381 27.615,-16.381 v -23.868 c -32.961,-12.526 -46.099,-0.513 -46.099,30.678 V 13.43 l 18.439,4.257 V -7.412 Z"
             style="fill:#faa61a;fill-opacity:1;fill-rule:nonzero;stroke:none"
             id="path42" /></g><g
           id="g44"
           transform="translate(381.8052,280.0742)"><path
             d="m 0,0 v -79.1 l -11.424,-2.637 c -0.868,40.852 -10.955,33.2 -18.501,2.136 l -8.142,-1.879 c -6.028,31.34 -17.026,27.723 -17.399,-10.425 l -12.188,-2.814 v 79.1 l 20.896,4.824 4.763,-20.881 c 2.992,-13.12 13.235,-12.783 15.083,0.636 l 3.531,25.642 z"
             style="fill:#faa61a;fill-opacity:1;fill-rule:nonzero;stroke:none"
             id="path46" /></g><g
           id="g48"
           transform="translate(388.1748,292.0083)"><path
             d="M 0,0 17.055,3.938 V -70.626 L 0,-74.563 Z m -4.732,17.068 c 0,1.291 0,11.742 12.76,14.688 14.02,3.237 14.02,-7.17 14.02,-8.505 C 22.048,16.896 19.47,9.49 8.658,6.994 -2.603,4.395 -4.732,10.57 -4.732,17.068"
             style="fill:#faa61a;fill-opacity:1;fill-rule:nonzero;stroke:none"
             id="path50" /></g><g
           id="g52"
           transform="translate(458.9761,236.1147)"><path
             d="M 0,0 V -17.497 C -31.811,-28.359 -45.32,-15.155 -45.313,12.454 -45.307,40.245 -30.526,65.399 0,68.53 V 36.572 C -18.348,33.916 -27.568,22.452 -27.568,10.406 -27.568,0.806 -23.505,-8.876 0,0"
             style="fill:#faa61a;fill-opacity:1;fill-rule:nonzero;stroke:none"
             id="path54" /></g><g
           id="g56"
           transform="translate(466.3569,287.0923)"><path
             d="m 0,0 47.26,10.911 v -22.792 c 0,0 -26.765,-35.274 -27.795,-40.437 -0.794,-3.978 0.995,-5.566 4.989,-4.644 l 22.806,5.265 V -67.225 L 0,-78.136 v 15.559 c 8.513,12.614 14.146,21.353 16.873,26.116 1.846,3.246 2.903,5.63 3.459,7.46 0.329,0.999 0.521,2.259 0.567,3.437 0.045,2.441 -1.162,3.719 -4.395,3.605 C 13.271,-22.074 0,-25.025 0,-25.025 Z"
             style="fill:#faa61a;fill-opacity:1;fill-rule:nonzero;stroke:none"
             id="path58" /></g><g
           id="g60"
           transform="translate(537.1948,236.0801)"><path
             d="M 0,0 -19.005,-4.388 C -19.008,56.186 -14.162,75.83 12.697,82.031 38.9,88.08 44.398,68.571 44.398,10.25 L 24.056,5.793 C 24.038,39.052 25.556,58.956 11.432,55.695 -2.428,52.495 -0.227,33.418 0,0"
             style="fill:#faa61a;fill-opacity:1;fill-rule:nonzero;stroke:none"
             id="path62" /></g><g
           id="g64"
           transform="translate(643.9263,311.1338)"><path
             d="m 0,0 c -1.317,-12.45 -3.483,-22.542 -7.509,-29.279 -10.658,-18.112 -31.143,-22.058 -49.908,-24.792 l 0.009,26.962 c 0,0 9.683,1.551 17.89,3.752 12.997,3.529 18.254,8.844 18.931,11.689 0.515,2.301 0.25,3.133 -0.182,3.451 -0.207,0.143 -0.462,0.17 -0.723,0.003 -4.02,-2.932 -8.578,-4.015 -13.332,-4.727 -18.992,-2.846 -23.718,23.104 -23.718,69.259 l 20.466,4.725 c 0,0 -0.157,-27.127 0.332,-36.662 1.071,-18.704 20.97,-14.012 21.952,4.364 0.658,12.956 1.008,44.367 1.008,44.367 L 1.927,76.97 C 1.927,76.97 2.059,19.597 0,0"
             style="fill:#faa61a;fill-opacity:1;fill-rule:nonzero;stroke:none"
             id="path66" /></g><g
           id="g68"
           transform="translate(697.2866,340.5532)"><path
             d="m 0,0 v -7.904 c 0,-8.181 3.826,-12.007 10.698,-10.397 13.392,3.147 20.54,9.541 20.54,18.88 0,9.993 -10.219,15.758 -25.046,11.68 C 1.107,10.647 -0.025,5.689 0,0 m 58.55,-52.208 -28.283,-6.529 c -8.987,8.961 -21.809,21.381 -23.949,23.294 -3.047,2.719 -6.343,3.499 -6.343,-0.981 l 0.021,-29.302 -18.549,-4.282 V 47.198 C 24.92,62.729 60.463,52.182 60.463,15.858 60.438,-2.24 47.651,-18.376 31.087,-24.568 33.932,-27.06 58.524,-52.232 58.55,-52.208"
             style="fill:#f15a22;fill-opacity:1;fill-rule:nonzero;stroke:none"
             id="path70" /></g><g
           id="g72"
           transform="translate(801.1763,328.7144)"><path
             d="m 0,0 c 0.002,6.82 -0.375,10.742 -12.624,7.914 -9.933,-2.293 -12.847,-8.605 -12.847,-15.933 0,-12.257 7.1,-12.543 17.229,-10.245 5.198,1.182 8.242,4.07 8.242,10.069 z m 13.789,-24.069 c -44.866,-14.843 -53.318,-4.32 -52.814,14.079 0.377,13.768 7.056,31.337 35.174,33.382 1.166,0.085 3.139,0.107 1.801,2.431 -2.182,3.79 -7.761,13.278 -34.872,2.854 V 45.474 C 6.932,61.7 13.789,45.626 13.789,17.51 Z"
             style="fill:#f15a22;fill-opacity:1;fill-rule:nonzero;stroke:none"
             id="path74" /></g><g
           id="g76"
           transform="translate(866.2856,426.3242)"><path
             d="M 0,0 C 0,1.463 0,12.872 -15.371,9.323 -29.359,6.094 -29.359,-5.363 -29.359,-6.778 c 0,-7.124 2.336,-13.894 14.679,-11.045 C -2.826,-15.086 0,-6.967 0,0 m -29.602,-116.709 c 4.225,4.442 5.381,13.805 5.381,28.76 v 61.94 l 18.697,4.316 v -75.192 c 0,-30.703 -12.152,-48.26 -42.768,-50.489 v 23.586 c 0,0 13.207,1.313 18.69,7.079"
             style="fill:#f15a22;fill-opacity:1;fill-rule:nonzero;stroke:none"
             id="path78" /></g></g></g></g></svg>
