<?xml version="1.0" encoding="utf-8"?>
<!-- Generator: Adobe Illustrator 24.1.0, SVG Export Plug-In . SVG Version: 6.00 Build 0)  -->
<svg version="1.1" id="Layer_1" xmlns="http://www.w3.org/2000/svg" xmlns:xlink="http://www.w3.org/1999/xlink" x="0px" y="0px"
	 viewBox="0 0 4646.8 3566.5" style="enable-background:new 0 0 4646.8 3566.5;" xml:space="preserve">
<style type="text/css">
	.st0{fill:#00B3F0;stroke:#00B3F0;stroke-width:400;stroke-miterlimit:10;}
	.st1{fill:#FFFFFF;stroke:#FFFFFF;stroke-width:200;stroke-miterlimit:10;}
	.st2{fill:#FF5500;}
	.st3{fill:#FFAA00;}
</style>
<g id="Cloud">
	<g id="Light_Blue">
		<ellipse class="st0" cx="1013.7" cy="2550.2" rx="813.7" ry="816.3"/>
		<ellipse class="st0" cx="3633.1" cy="1851.9" rx="813.7" ry="816.3"/>
		<ellipse class="st0" cx="2926.4" cy="1016.3" rx="813.7" ry="816.3"/>
		<ellipse class="st0" cx="1480.7" cy="1274.1" rx="813.7" ry="816.3"/>
		<circle class="st0" cx="2338.6" cy="2238.3" r="773.2"/>
	</g>
	<g id="White">
		<ellipse class="st1" cx="1013.7" cy="2550.2" rx="813.7" ry="816.3"/>
		<ellipse class="st1" cx="3633.1" cy="1851.9" rx="813.7" ry="816.3"/>
		<ellipse class="st1" cx="2926.4" cy="1016.3" rx="813.7" ry="816.3"/>
		<ellipse class="st1" cx="1480.7" cy="1274.1" rx="813.7" ry="816.3"/>
		<circle class="st1" cx="2338.6" cy="2238.3" r="773.2"/>
	</g>
	<g id="Black">
		<ellipse cx="1013.7" cy="2550.2" rx="813.7" ry="816.3"/>
		<ellipse cx="3633.1" cy="1851.9" rx="813.7" ry="816.3"/>
		<ellipse cx="2926.4" cy="1016.3" rx="813.7" ry="816.3"/>
		<ellipse cx="1480.7" cy="1274.1" rx="813.7" ry="816.3"/>
		<circle cx="2338.6" cy="2238.3" r="773.2"/>
	</g>
</g>
<g id="That_x27_s_Paradise_x2122_">
	<polygon id="M_2_" class="st2" points="4206.1,2207.7 4186.4,2212.3 4186.6,2135.6 4186.2,2135.8 4167.1,2216.7 4146.1,2221.7 
		4127.4,2149.3 4127.2,2149.3 4127.2,2226.1 4107.3,2230.7 4107.3,2138.9 4138.2,2131.6 4156.9,2200 4157.3,2200 4175.4,2123 
		4206.1,2115.9 	"/>
	<polygon id="T_4_" class="st2" points="4064.9,2240.5 4043.3,2245.5 4043.3,2170 4011.3,2177.3 4011.3,2161.2 4095.4,2141.6 
		4095.6,2157.9 4064.9,2165 	"/>
	<path id="E_1_" class="st2" d="M4042.6,1417.5c30.7-6.8,61.3-14,91.9-21c0,81.1,0,162.3,0,243.4c-11.6,2.4-23.1,5.2-34.7,7.8
		c-17.7,4.2-35.4,8.6-53,13c-42,11.1-84.1,22.3-125.1,36.9c-14.9,5.1-29.1,13.5-39.2,25.9c-7.4,9.1-12.3,20.5-13.2,32.3
		c-0.6,10.5,2.5,21.3,9.3,29.4c5.5,6.9,13.8,10.8,22.2,12.9c9,1.4,18.1,0.6,27-0.9c46.5-6.7,92.8-14.8,138.9-23.7
		c4.8-1.2,9.9-1.5,14.6-3.2c0.5,27.5,0.4,55.1,0.3,82.7c0.1,2.7-3.3,2.1-4.9,2.8c-44.8,12.5-90.1,23.3-134.7,36.3
		c-10.2,3.1-20.6,5.8-29.8,11.4c-13.9,7.9-25.5,21.3-28,37.5c-2,9.2,0.4,19.1,5.8,26.8c4.9,6.8,12.7,11.1,20.8,12.6
		c10.3,2.5,20.7-0.6,31-2.2c64.5-11.5,128.8-23.8,192.5-39.1c0,36.1-0.1,72.3,0.1,108.4c-68.4,16.2-137,31.7-205.4,47.7
		c-18.4,4.1-36.7,8.7-55.2,12.6l-0.8,0.5c-2.8,0.4-5.4,1.1-8.1,1.7c-35.9,8.4-71.9,16.6-107.8,24.9c-5,0.9-9.8,2.7-14.8,3.1
		c0-217.1-0.1-434.2,0.1-651.3c43.2-9.6,86.3-19.8,129.5-29.6c44.6-10.2,89.1-20.4,133.6-30.7c12.2-2.6,24.2-5.8,36.5-8.2
		L4042.6,1417.5z"/>
	<path id="S_2_" class="st2" d="M3534.6,1698.5c43.5-11.2,87.5-20.3,131.9-27.4c-0.1,79,0,158,0,237.1
		c-45.7,6.1-91.5,13.1-135.7,26.6c-16.8,5.3-33.5,11.4-48.7,20.3c-9.2,5.4-17.9,12.1-23.7,21.2c-6.1,9.4-8.3,21.6-3.9,32.1
		c5.4,13.2,17.8,22,30.8,27c22.1,8.4,44.6,15.4,67,22.9c19.7,6.6,39.8,12.4,58.6,21.5c16.3,8.1,31.7,18.6,43.1,32.9
		c12.1,14.8,19,33.2,21.9,51.9c3.9,21.3,0.5,43.6-8.9,63c-13.7,29.5-38.1,52.9-65.7,69.4c-15.8,9.4-32.9,16.2-50.5,21.4
		c-78.9,26.5-159.7,48.6-242.3,59.9c0-44.7,0.1-89.4,0-134c45.5-9.6,91.2-18.1,136.2-29.9c18-4.6,35.9-10.1,53.3-16.5
		c10.3-4,20.5-8.5,30.1-14.1c8.6-5.4,17.4-11.6,22.3-20.8c3.9-6.9,4.8-16.3,0.5-23.3c-5.3-7.7-14.4-11.4-22.8-14.6
		c-18.3-6.4-37.3-10-56.1-14.6c-4.1-0.8-8-2.1-12.1-2.7l-0.8-0.5c-35.8-8.1-71.1-21.9-100.3-44.5c-15.9-12.5-29.8-27.6-39.9-45.1
		c-16-27.4-22.6-59.5-21.7-91.1c0.2-23.3,3.1-46.8,9.8-69.1c5.9-19.3,15.1-37.6,27.6-53.4c20.6-26.3,48.6-45.8,78.1-61
		c20.1-10.4,41.1-18.9,62.4-26.4c19.4-6.8,39.1-12.9,59-17.8L3534.6,1698.5z"/>
	<path id="I_2_" class="st2" d="M3212.8,1576.3c5.4-1,10.6-2.8,16.1-3.4c0.1,193.4,0,386.9,0,580.3c-49,11.4-98,22.7-146.9,34.1
		c-0.1-193.6,0-387.2,0-580.8C3125.6,1596.3,3169.2,1586.4,3212.8,1576.3z"/>
	<path id="D_1_" class="st2" d="M2574.6,1786.7c43.8-15.1,89.8-24.9,136.2-26.1c47.7-1.5,95.9,5.9,140.1,24.2
		c35.7,14.7,68.5,36.9,94.4,65.6c26.8,29.4,46,65.6,55.8,104.1c6.8,25.2,9.2,51.3,9.1,77.3c-0.3,48.3-6.2,97.1-22.8,142.6
		c-12.5,34.8-31.5,67.2-56.1,94.8c-24.5,27.8-54.3,50.4-86.3,68.9c-38.6,22.1-80.4,38.3-123,50.8c-48.2,14.3-97.7,23.8-147.3,31.4
		C2574.6,2209.1,2574.6,1997.9,2574.6,1786.7 M2730.5,2007.8c-12.3,1.4-25.2,2.8-35.8,9.8c-7.4,4.6-13.4,11.7-16.2,20
		c-3.7,10.6-4.1,22-4.2,33.2c0,54.7,0,109.3,0,164c0.1,10.6,1.1,21.4,4.9,31.5c2.9,7.9,8.8,15.1,16.9,18c10.1,3.8,21.3,2.4,31.6,0.3
		c18.5-4.2,36.5-10.6,53.2-19.5c27.5-14.6,51.1-36.9,65.2-64.8c11.5-23,17.2-48.9,16.5-74.5c0.2-9.4-0.4-18.7-2.1-27.9
		c-3.4-19.1-12.1-37.3-25.2-51.6C2809.4,2017.3,2768.7,2004.1,2730.5,2007.8z"/>
	<path id="A_4_" class="st2" d="M2270.6,1968.9c21.1-6.4,43.2-11.3,65.3-9.1c15.8,1.5,30.7,8.8,42,19.8c15.4,15,25.4,34.5,34.1,53.9
		c16.4,38.1,27.5,78.2,39,117.9c25.1,89.3,46,179.7,62.9,270.9c7.6,42.4,14.9,85,19.8,127.8c-49.5,11.1-98.8,22.7-148.2,34.1
		c-2-8.5-3.8-16.9-5.5-25.4c-2.8-12.2-5.4-24.4-8.3-36.5c-2-8.2-3.7-16.5-7.5-24c-3.8-7.9-9.1-15.4-16.3-20.7
		c-8.9-7-21-9.9-32.1-7.4c-23.1,4.6-45.9,10.6-68.8,16c-10.3,2.8-21.1,4.2-30.9,8.7c-13.2,5.7-23.9,16.6-29.8,29.6
		c-4.2,8.5-6.3,17.9-8,27.2c-3.5,18.4-7.4,36.8-10,55.4c-37.4,8-74.7,16.5-112.1,24.3c13.2-91.2,28.3-182.1,45.9-272.5
		c13.2-67.3,27.5-134.4,44.3-201c10.1-40.1,21-80.5,40.6-117.1c9.3-17.2,20.9-33.4,35.9-46.1
		C2236.6,1982.8,2253.3,1974.5,2270.6,1968.9 M2251.3,2225.3c-14.5,11.2-22.2,28.8-26.7,46.1c-5.6,23.3-10.1,46.8-14.3,70.3
		c-1.9,11.9-4,23.9-3.2,36.1c0.3,8.2,4.5,17.1,12.6,20c7.6,2.1,15.5,0.3,23-1.3c22.1-4.7,43.9-10.1,65.9-15c10-2.6,21-5.6,27.5-14.3
		c6.3-8.8,6.1-20.1,5.8-30.4c-0.9-9-2.1-17.9-4.1-26.7c-4.9-21.4-8.8-43.3-17.9-63.4c-3.9-8.8-9.2-17.2-16.7-23.4
		c-5.7-4.8-13.1-7.3-20.5-7.7C2271.6,2215.2,2260.1,2218.2,2251.3,2225.3z"/>
	<path id="R_2_" class="st2" d="M1758.7,1932.4c49.2-4.2,99.8-1.6,146.7,14.9c37.3,12.9,71.5,36.1,94.5,68.5
		c25.3,35.2,36.1,79.2,36.4,122.1c1.4,42.4-10.9,84.7-32.6,120.9c-24.4,41.1-60.7,74.9-103.1,96.8c-8.4,4.1-16.8,8.5-25.8,11.3
		c0.4,2.8,3.2,4.1,4.9,6c20.9,20.7,41.7,41.7,62.4,62.6c14.6,15.4,29.7,30.3,44.6,45.5c12.8,13.6,26.1,26.7,38.9,40.2
		c-52.3,12.1-104.5,24.6-156.8,36.4c-40.8-40.8-82-81.2-123.7-121.1c-9.4-8.6-18.9-19.2-32.3-20.9c-2.1,0.4-4.5,0.5-6.2,2
		c-4.2,3.3-5.2,9.1-5.4,14.2c-0.1,49.4,0,98.8-0.1,148.2c-34.3,7.6-68.4,16.1-102.7,23.5c0-211.3,0.1-422.6,0-633.9
		c7-3.6,14.8-5.3,22.3-8C1665.5,1947.1,1711.7,1936.4,1758.7,1932.4 M1772.3,2156.5c-10.3,1-20.6,2.6-30.7,5.2
		c-5.3,1.2-10.6,2.9-15.3,5.7c-9.4,5.2-16,14.4-19.5,24.4c-4.2,10.8-4.7,22.6-5.5,34c0.1,13.3,0,26.6,0,39.9
		c-0.3,16.6,0.3,34.1,8.5,49c3.8,6.9,9.7,12.9,17.1,16.1c10.5,4.9,22.7,4.1,33.8,1.5c20-4.7,39.7-11.2,57.9-20.8
		c15.7-8.5,30.4-19.6,40.7-34.4c12.3-17.3,17.1-39.4,14.3-60.3c-2.2-16.9-11.5-32.6-25.1-42.8c-16.1-12.3-36.6-17.5-56.6-18.1
		C1785.3,2155.1,1778.8,2156.4,1772.3,2156.5z"/>
	<path id="A_3_" class="st2" d="M1299.4,2271.2c19.8-9.6,41.5-14.8,63.3-17.4c18.9-2,39.2,0.7,55.1,12
		c16.3,11.3,27.2,28.5,36.3,45.9c7.7,15,13.8,30.7,19.6,46.5c15.2,43.7,27.5,88.4,39.5,133.1c22.7,86.6,42,174.2,57,262.5
		c5.1,30,9.7,60.2,13.2,90.4c-49.6,11.2-99.1,23-148.7,34c-4.3-23.2-9.9-46.2-15.1-69.2c-3.4-14.9-10.9-29.4-23.5-38.4
		c-8.1-5.7-18.4-8.5-28.2-6.8c-29.6,5.7-58.6,13.7-88,20.4c-14.6,3.2-28.5,11-37.4,23.3c-7.5,10-11.7,22-13.8,34.2
		c-3.7,19.8-8.1,39.4-10.7,59.4c-17.7,4-35.4,7.7-53.1,11.6c-19.6,4.4-39.2,8.5-58.8,12.8c2.2-20,5.7-39.8,8.6-59.7
		c20.9-135.3,45.9-270,78.5-403c10.2-40.2,20.2-80.8,38.5-118.3c8.2-16.9,18.2-33.1,31.3-46.7
		C1273.3,2286.9,1285.7,2277.7,1299.4,2271.2 M1314.7,2511.8c-11.8,3.8-21.3,12.6-27.8,23c-8.7,13.6-12.6,29.4-15.8,44.9
		c-5.9,27.5-11.7,55.1-14.5,83.1c-0.4,8.6,0.5,18.2,6.4,24.9c5.8,6.3,15.2,5.5,22.8,4.2c25.1-5.2,49.9-11.3,74.9-16.9
		c8.6-2.5,17.8-5.2,23.9-12.2c5.8-6.5,6.8-15.6,7-24c0-11.8-1.6-23.6-4-35.1c-3-12.9-5.6-26-9.3-38.8c-4-13.8-8.8-27.8-17.4-39.4
		c-5-6.8-11.9-12.5-20.2-14.6C1332.4,2508.3,1323.2,2509.3,1314.7,2511.8z"/>
	<path id="P_1_" class="st2" d="M607.8,2078.9c59.6-18.9,121.4-32,184-34.6c12-0.6,24,0.1,36-0.6c4,0.7,8,0.4,12.1,0.6
		c55.5,2.7,111.3,15.2,160.4,41.9c37.3,20.2,70.1,48.9,93.8,84.2c22.7,33.5,36.8,72.5,42.6,112.4c2.2,13.9,3,27.9,3.5,41.9
		c0.5,13.1-0.7,26.2-1.1,39.3c-0.3-1.5-0.5-2.9-0.7-4.3c0.4,4.6,0.3,9.3-0.5,13.9c-4.7,41.8-18.2,82.7-40.6,118.4
		c-20.8,33.4-49,61.9-81,84.8c-31.7,22.8-66.9,40.4-103.5,54c-39,14.6-79.5,24.7-120.4,32c-9,1.6-17.3,7.2-21.9,15.2
		c-6.1,10.6-7.9,23.1-8.3,35.2c-0.8,4.8,0.6,9.6-0.3,14.4c-0.9,7,0.8,14,0,21c0.5,5.3-0.4,10.7,0.3,16c-1,6.3,0.6,12.7-0.3,19
		c-0.6,5,0.6,9.9,0.1,14.9c0.8,7.7-0.5,15.4,0,23.1c-0.3,1.6-0.4,3.3,0,5c-0.7,12,0.5,24,0.2,36c0.3,7.3-0.7,14.6-0.5,22
		c0.7,11.6-0.2,23.3,0.5,35c-0.2,3.2-0.6,6.3-0.5,9.5c-72.4,16.6-144.8,33.4-217.2,50c0.1-292.5,0-585.1,0-877.6
		C565.2,2093.2,586.4,2085.8,607.8,2078.9 M829.4,2303.7c-14.9,1.6-29.8,5.8-42.2,14.5c-7.1,5.3-13.4,11.9-17.5,19.8
		c-7,12.7-8.6,27.6-8.4,41.8c0,42.7,0,85.4,0,128.1c-0.2,10.3,0.3,21.2,5.1,30.5c4.1,8.3,12,14.5,20.9,17
		c11.9,3.4,24.5,2.4,36.5,0.4c28.4-5.2,56-16.9,78.1-35.6c32.6-27.3,51.8-69.8,50.4-112.2c0.3-20.6-4.3-41.5-14.4-59.5
		c-8.9-15.9-23-28.9-39.7-36.3C877,2302.2,852.6,2301,829.4,2303.7z"/>
	<path id="S_1_" class="st3" d="M3406.7,643.8c45.8-11.8,92.2-21.4,139-28.9c-0.1,83.2,0,166.5,0,249.8c-48.1,6.4-96.4,13.8-143,28
		c-17.7,5.6-35.3,12-51.3,21.4c-9.7,5.7-18.9,12.7-25,22.3c-6.4,9.9-8.7,22.8-4.1,33.8c5.7,13.9,18.8,23.2,32.4,28.4
		c23.3,8.8,47,16.2,70.6,24.1c20.8,7,41.9,13.1,61.7,22.7c17.2,8.5,33.4,19.6,45.4,34.7c12.7,15.6,20,35,23.1,54.7
		c4.1,22.4,0.5,45.9-9.4,66.4c-14.4,31.1-40.1,55.7-69.2,73.1c-16.6,9.9-34.7,17.1-53.2,22.5c-83.1,27.9-168.3,51.2-255.3,63.1
		c0-47.1,0.1-94.2,0-141.2c47.9-10.1,96.1-19.1,143.5-31.5c19-4.8,37.8-10.6,56.2-17.4c10.9-4.2,21.6-9,31.7-14.9
		c9.1-5.7,18.3-12.2,23.5-21.9c4.1-7.3,5.1-17.2,0.5-24.5c-5.6-8.1-15.2-12-24-15.4c-19.3-6.7-39.3-10.5-59.1-15.4
		c-4.3-0.8-8.4-2.2-12.7-2.8l-0.8-0.5c-37.7-8.5-74.9-23.1-105.7-46.9c-16.8-13.2-31.4-29.1-42-47.5c-16.9-28.9-23.8-62.7-22.9-96
		c0.2-24.5,3.3-49.3,10.3-72.8c6.2-20.3,15.9-39.6,29.1-56.3c21.7-27.7,51.2-48.3,82.3-64.3c21.2-11,43.3-19.9,65.7-27.8
		c20.4-7.2,41.2-13.6,62.2-18.8L3406.7,643.8z"/>
	<path id="_x27_" class="st3" d="M3073.9,615.7c3.1-0.2,6-0.6,9.1-0.8c0.1,43.3,0,86.6,0,129.9c-27.7,2.6-55.4,5.1-83.1,7.6
		c-0.1-43.3,0-86.7,0-130C3024.6,620.2,3049.2,618,3073.9,615.7z"/>
	<path id="T_2_" class="st3" d="M2913.8,686.4c4-0.8,7.9-2.4,12-2.6c0.3,30.4,0,60.8,0.3,91.2c0.3,28.8-0.1,57.6,0.2,86.5
		c-0.1,22.4,0.2,45-0.2,67.4c-24.7,5.5-49.1,11.9-73.7,17.7c-18.6,4.5-38,11-51.8,24.9c-14.3,13.4-21.3,32.6-25.7,51.3
		c-5.8,24.9-7.7,50.4-9.6,75.8c-1.6,26.3-2.9,52.7-2.7,79.1c0.1,113.2-0.1,226.4,0.1,339.6c-20.6,5.4-41.7,9.4-62.4,14.6
		c-26.5,6-53.1,12-79.5,18.3c0-49-0.3-98.1-0.3-147.1c-1.2-10.1-0.4-20.3-0.6-30.4c-0.1-63.5-0.4-127.2-0.4-190.7
		c-1.3-11.9-0.4-23.8-0.6-35.7c0.1-11.7-1.1-23.3-2.6-34.9c-0.5-1.7-0.8-3.5-1.1-5.3c-2.3-9.4-5.3-19-11.9-26.1
		c-6.3-7-15.8-10.3-25.1-10.3c-13.6-0.4-26.9,3.2-40,6.2c-27.2,6.4-54.2,13.4-81.4,19.5c0-95.8,0-191.5,0-287.3
		c0.1-3.4-0.4-6.7,0.5-10c9.8-2,19.5-4.6,29.2-7c105-25.5,210-51.2,315-76.9C2838.7,704.8,2876.3,695.4,2913.8,686.4z"/>
	<path id="A_2_" class="st3" d="M2175.8,912.5c20.9-10.1,43.7-15.6,66.7-18.3c19.9-2.1,41.3,0.7,58.1,12.6
		c17.2,11.9,28.7,30,38.2,48.4c8.1,15.8,14.5,32.3,20.6,49c16,46,29,93.1,41.6,140.2c23.9,91.2,44.2,183.5,60.1,276.6
		c5.4,31.6,10.2,63.4,13.9,95.2c-52.3,11.8-104.4,24.2-156.7,35.8c-4.5-24.4-10.4-48.7-15.9-72.9c-3.6-15.7-11.5-31-24.8-40.5
		c-8.5-6-19.4-9-29.7-7.2c-31.2,6-61.7,14.4-92.7,21.5c-15.4,3.4-30,11.6-39.4,24.5c-7.9,10.5-12.3,23.2-14.5,36
		c-3.9,20.9-8.5,41.5-11.3,62.6c-18.6,4.2-37.3,8.1-55.9,12.2c-20.6,4.6-41.3,9-61.9,13.5c2.3-21.1,6-41.9,9.1-62.9
		c22-142.5,48.4-284.5,82.7-424.6c10.7-42.4,21.3-85.1,40.6-124.6c8.6-17.8,19.2-34.9,33-49.2
		C2148.3,929.1,2161.4,919.4,2175.8,912.5 M2191.9,1166c-12.4,4-22.4,13.3-29.3,24.2c-9.2,14.3-13.3,31-16.6,47.3
		c-6.2,29-12.3,58.1-15.3,87.6c-0.4,9.1,0.5,19.2,6.7,26.2c6.1,6.6,16,5.8,24,4.4c26.4-5.5,52.6-11.9,78.9-17.8
		c9.1-2.6,18.8-5.5,25.2-12.9c6.1-6.8,7.2-16.4,7.4-25.3c0-12.4-1.7-24.9-4.2-37c-3.2-13.6-5.9-27.4-9.8-40.9
		c-4.2-14.5-9.3-29.3-18.3-41.5c-5.3-7.2-12.5-13.2-21.3-15.4C2210.6,1162.3,2200.9,1163.4,2191.9,1166z"/>
	<path id="H_2_" class="st3" d="M1870.3,974.9c7.2-1.7,14.4-3.2,21.7-4.8c0.1,203.9,0,407.7,0,611.6c0.1,47.6-0.1,95.1,0.1,142.8
		c-17.1,4.2-34.2,8.1-51.3,12c-17.9,4.3-35.9,8.2-53.8,12.5c-6.7,1.5-13.4,3.5-20.1,4.3c-0.3-47.4,1.4-95.1-5.1-142.1
		c-1.7-14-3.2-28.7-10.5-41.1c-10.1-17.9-29.3-29.1-49.3-32.2c-35.6-5.7-73.6,7.9-98,34.5c-16.9,18.3-25.5,43.3-25,68.1
		c-1.4,17.6-0.3,35.3-1.7,53c-0.1,50.5-0.1,100.8-0.1,151.3c-15.7,3.6-31.4,7.3-47.1,10.9c-36.5,8.4-72.9,17-109.4,25.3
		c-0.7-4.1,0.5-8.3-0.1-12.5c-1.2-10.9,0.5-21.8-0.2-32.7c0.1-1.5,0.3-3,0.4-4.3l-0.7-0.7c0.2-4.6,0.7-9.3,0.5-14l-0.5-0.7
		c0-0.8,0-2.5,0-3.5l0.5-0.7c-0.1-7.1-0.2-14.1-0.2-21.3c-0.7-8.1,0.3-16.2-0.4-24.3l0.6-0.7c-0.1-1.5-0.2-2.9-0.2-4.4
		c-0.6-10.2,0-20.3,0.1-30.6c-0.8-6-0.2-12,0.1-18l-0.5-0.7c-0.2-5.4,0.2-10.6,0.4-16c-1.4-11.9,0.4-23.8,0-35.8
		c0.4-8.1-1.2-16.2,0.1-24.3l-0.6-0.7c-0.2-3.6,0.7-7.2,0.2-10.7c0.5-3.5-0.3-7-0.2-10.4c-0.1-4.3,0.5-8.5,0.6-12.9l-0.5-0.7
		c-0.1-10.6,0.7-21.2,0.3-31.7c0-3.6-0.1-7.2,0.3-10.7l-0.6-0.7c0-1.5,0.1-2.9,0.2-4.3c0.1-5.3,0-10.5-0.1-15.8
		c0.7-3.2-0.4-6.3,0.1-9.5c0.8-4.5-0.5-9,0.1-13.5c0.5-5.4,0-10.6-0.3-16c0.7-8,0.5-16.1,0.3-24.2c-0.4-4.2,0.3-8.5-0.4-12.7
		l0.6-0.7c-0.1-3.6,0.1-7.2-0.2-10.6c-0.3-1.4-0.3-2.8,0.1-4.2c-0.3-6-0.4-11.9-0.1-17.9c0.5-7.4-0.3-14.9,0.1-22.1
		c0-1.8-0.1-3.6-0.3-5.3c0.9-4.5-0.5-9.1-0.1-13.6c0.2-4.2,0.8-8.5,0.3-12.7c-0.3-3.5-0.3-7.1,0-10.4c0.2-3.2,0.3-6.3-0.2-9.5
		c-0.1-2.2-0.1-4.3-0.2-6.5l0.5-0.7c0-2.5,0-5.1,0-7.6l-0.5-0.8c0-6.7,0.8-13.5,0.5-20.3l-0.6-0.7c0.6-9.2,0.3-18.3,0.4-27.5
		c-0.2-5.3-0.3-10.6,0.2-16l-0.6-0.7c0.1-0.8,0.2-2.5,0.2-3.4c0.5-2.8-0.2-5.7-0.2-8.4c0-2.8,0.7-5.6,0.2-8.3
		c-0.3-5.7-0.2-11.3,0.3-16.9c-1.1-11.9-0.3-23.9-0.1-35.8c-0.2-6,0-11.9,0-17.9c-0.3-1.4-0.3-2.8-0.1-4.1c0.1-1.5,0.1-2.9,0.2-4.4
		l-0.6-0.7c0.1-0.8,0.2-2.5,0.2-3.4c0.4-7.3-0.7-14.6,0.1-22c0.5-4.6-0.1-9.3-0.4-13.9c-0.4-1.6,0.8-2.8,2.3-3
		c3.2-0.7,6.4-1.4,9.6-2c37.1-8.3,74.2-16.3,111.2-24.8c0.5,19.5-0.6,39,0.7,58.4c0,16.9,0.2,33.7,0.4,50.5
		c1.3,10.5,0.5,21.2,1.3,31.7c0.9,6,0.4,12,0.9,18c0.8,5.5,0.6,11.1,0.9,16.6c1.4,11,1.4,21.9,3.2,32.9c1.9,10.6,7.3,20.8,15.9,27.4
		c8.1,6.4,18.4,9.8,28.7,11c9.7,0.3,19.5,0.7,29.1-1.4c20.1-3.9,39.4-12.7,55.7-25.1c16.3-12.4,29.9-29.2,36.5-48.8
		c2.8-8.2,3.9-16.9,4.6-25.5c3.2-44.9,3.2-89.9,3.5-134.9c-0.4-8.7,0.8-17.5,0.5-26.2c-0.2-26.9,0.4-53.6,0.1-80.5
		c2.3-0.6,4.6-1.2,7.1-1.6C1778.3,995.2,1824.2,985.1,1870.3,974.9z"/>
	<path id="T_3_" class="st3" d="M1314.6,922.4c4-0.8,7.9-2.4,12-2.6c0.3,30.4,0,60.8,0.3,91.2c0.3,28.8-0.1,57.6,0.2,86.5
		c-0.1,22.4,0.2,45-0.2,67.4c-24.7,5.5-49.1,11.9-73.7,17.7c-18.6,4.5-38,11-51.8,24.9c-14.3,13.4-21.3,32.6-25.7,51.3
		c-5.8,24.9-7.7,50.4-9.6,75.8c-1.6,26.3-3,52.7-2.7,79.1c0.1,113.2-0.1,226.4,0.1,339.6c-20.6,5.4-41.7,9.4-62.4,14.6
		c-26.5,6-53.1,12-79.5,18.3c0-49-0.3-98.1-0.3-147.1c-1.2-10.1-0.4-20.3-0.6-30.4c-0.1-63.5-0.4-127.2-0.4-190.7
		c-1.3-11.9-0.4-23.8-0.6-35.7c0.1-11.7-1.1-23.3-2.6-34.9c-0.5-1.7-0.8-3.5-1.1-5.3c-2.3-9.4-5.3-19-11.9-26.1
		c-6.3-7-15.8-10.3-25.1-10.3c-13.6-0.4-26.9,3.2-40,6.2c-27.2,6.4-54.2,13.4-81.4,19.5c0-95.8,0-191.5,0-287.3
		c0.1-3.4-0.4-6.7,0.5-10c9.8-2,19.5-4.6,29.2-7c105-25.5,210-51.2,315-76.9C1239.4,940.8,1277.1,931.4,1314.6,922.4z"/>
</g>
</svg>
