<?xml version="1.0" encoding="UTF-8"?>
<svg width="787px" height="598px" viewBox="0 0 787 598" version="1.1" xmlns="http://www.w3.org/2000/svg" xmlns:xlink="http://www.w3.org/1999/xlink">
    <title>קצב גן עדן</title>
    <defs>
        <polygon id="path-1" points="0 566.857319 666.66665 566.857319 666.66665 0 0 0"></polygon>
        <linearGradient x1="-0.0116823333%" y1="49.9998191%" x2="100.015434%" y2="49.9998189%" id="linearGradient-3">
            <stop stop-color="#FF8C3C" offset="0%"></stop>
            <stop stop-color="#FF5A00" offset="75%"></stop>
            <stop stop-color="#FF5A00" offset="100%"></stop>
        </linearGradient>
        <polygon id="path-4" points="0 566.857319 666.66665 566.857319 666.66665 0 0 0"></polygon>
        <polygon id="path-6" points="-9.47390291e-15 476.042655 704.313316 476.042655 704.313316 0 -9.47390291e-15 0"></polygon>
        <path d="M0.00346136242,-1.89478058e-14 L0.00346136242,13.773333 C-0.03387197,25.7333327 -0.0165386371,37.4586657 13.951461,54.649332 C3.71946127,61.4186651 0.00346136242,71.0026649 0.00346136242,89.6973311 L0.00346136242,99.7226642 L30.1807939,106.705331 L30.1807939,84.4933312 C30.1807939,79.3266647 33.3954605,75.5573314 39.398127,76.9439981 C45.4007936,78.3293314 48.6154601,83.5826646 48.6154601,88.7493311 L48.6181268,110.961331 L78.7967927,117.92933 L78.7967927,107.887997 C78.7967927,89.1933311 75.0794595,77.8933314 64.8487931,66.3999983 C78.7967927,55.6719986 78.7967927,43.9319989 78.7967927,31.9639992 L78.7967927,18.1906662 L48.6181268,11.2239997 L48.6181268,34.6586658 C48.6181268,43.0159989 45.4007936,46.7053322 39.398127,45.3199989 C33.3954605,43.9333322 30.1807939,38.7586657 30.1807939,30.4026659 L30.1807939,6.96666649 L0.00346136242,-1.89478058e-14 Z" id="path-8"></path>
        <linearGradient x1="41.9087539%" y1="43.4021664%" x2="55.7523809%" y2="54.6906754%" id="linearGradient-10">
            <stop stop-color="#AA37BE" offset="0%"></stop>
            <stop stop-color="#5F14A5" offset="100%"></stop>
        </linearGradient>
        <polygon id="path-11" points="0 566.857319 666.66665 566.857319 666.66665 0 0 0"></polygon>
        <polygon id="path-13" points="-9.47390291e-15 476.042655 704.313316 476.042655 704.313316 0 -9.47390291e-15 0"></polygon>
        <polygon id="path-15" points="7.57912233e-14 99.7439975 30.2133326 106.718664 30.2133326 6.97599983 7.57912233e-14 -3.78956116e-14"></polygon>
        <linearGradient x1="0.677767422%" y1="41.8101466%" x2="99.4838699%" y2="64.7764606%" id="linearGradient-17">
            <stop stop-color="#FFFF00" offset="0%"></stop>
            <stop stop-color="#FFBE00" offset="75%"></stop>
            <stop stop-color="#FFBE00" offset="100%"></stop>
        </linearGradient>
        <polygon id="path-18" points="0 566.857319 666.66665 566.857319 666.66665 0 0 0"></polygon>
        <polygon id="path-20" points="-1.89478058e-14 598.326652 817.545846 598.326652 817.545846 0 -1.89478058e-14 0"></polygon>
        <path d="M110.994664,114.846664 C103.586664,121.65333 93.5906643,123.80533 81.8853313,121.102664 C74.0239981,119.287997 67.6973316,116.002664 60.7053318,109.927997 C53.713332,112.773331 47.4239988,113.147997 39.5253323,111.323997 C27.854666,108.629331 17.8226662,101.851997 10.4159997,91.625331 C2.62399993,80.8706646 0,71.2839982 0,53.221332 L0,-1.89478058e-14 L30.3253326,7.00133316 L30.3253326,65.9853317 C30.3253326,74.8746648 33.1906658,78.5933314 37.8693324,79.6733313 C42.5493323,80.7546646 45.5426655,78.387998 45.5426655,69.4986649 L45.5426655,10.5146664 L75.8679981,17.5159996 L75.8679981,76.5 C75.8679981,85.3893312 78.8613314,89.1373311 83.5413312,90.2173311 C88.2199978,91.2986644 91.0853311,88.9026644 91.0853311,80.0133313 L91.0853311,21.0293328 L121.40933,28.030666 L121.40933,81.2506646 C121.40933,99.3133309 118.78533,107.687997 110.994664,114.846664" id="path-22"></path>
        <linearGradient x1="25.3688373%" y1="45.5057545%" x2="74.6315195%" y2="61.7098593%" id="linearGradient-24">
            <stop stop-color="#6EE6FF" offset="0%"></stop>
            <stop stop-color="#00A0FF" offset="85%"></stop>
            <stop stop-color="#00A0FF" offset="100%"></stop>
        </linearGradient>
        <polygon id="path-25" points="0 566.857319 666.66665 566.857319 666.66665 0 0 0"></polygon>
        <polygon id="path-27" points="-1.89478058e-14 487.771054 705.247182 487.771054 705.247182 9.47390291e-15 -1.89478058e-14 9.47390291e-15"></polygon>
        <path d="M49.4039988,57.3533319 L39.395999,60.5533318 L29.3879993,52.7319987 L31.2653326,64.906665 L23.2039994,71.3813315 L34.3706658,75.7053314 L39.395999,87.5279978 L44.4213322,78.0266647 L55.5893319,78.8586647 L47.5279988,68.6613316 L49.4039988,57.3533319 Z M70.3173316,103.062664 C63.1893318,110.966664 51.357332,114.023997 39.395999,111.262664 C27.4359993,108.501331 15.6213329,99.9719975 8.50133312,88.7906644 C2.25999994,78.991998 7.57912233e-14,70.0959982 7.57912233e-14,54.9679986 L7.57912233e-14,-1.89478058e-14 L30.1413326,6.95866649 L30.1413326,28.8479993 L48.6519988,33.0946658 L48.6519988,11.2319997 L78.791998,18.1906662 L78.791998,73.1586648 C78.791998,88.2866645 76.5479981,96.1546643 70.3173316,103.062664" id="path-29"></path>
        <linearGradient x1="24.9385839%" y1="38.3054827%" x2="75.1288254%" y2="54.6723207%" id="linearGradient-31">
            <stop stop-color="#FF8232" offset="0%"></stop>
            <stop stop-color="#C80000" offset="75%"></stop>
            <stop stop-color="#C80000" offset="100%"></stop>
        </linearGradient>
        <polygon id="path-32" points="0 566.857319 666.66665 566.857319 666.66665 0 0 0"></polygon>
        <polygon id="path-34" points="-1.89478058e-14 487.771054 705.247182 487.771054 705.247182 9.47390291e-15 -1.89478058e-14 9.47390291e-15"></polygon>
        <path d="M77.6893314,10.2707113 C67.6053316,6.03471136 61.6199985,3.92804474 53.5106653,2.05604479 C36.5706658,-1.85462178 25.5799994,-0.25062182 15.5306663,7.41737799 C5.52266653,15.0547111 0,27.2827108 0,41.9693771 C0,56.0280434 5.08666654,70.6347097 14.205333,82.3080428 C24.1506661,95.0387091 36.7973324,102.862709 53.989332,106.830709 C61.5319985,108.572042 67.862665,109.437375 77.6893314,109.734709 L77.6893314,78.4813762 C68.4519983,78.2947095 62.6879984,77.5893762 55.6079986,75.9547096 C39.1213324,72.148043 29.7733326,62.3267099 29.7733326,48.7867103 C29.7733326,37.4067106 36.7653324,30.7933774 47.5479988,31.7907107 L47.5479988,61.53471 L77.6893314,68.4933765 L77.6893314,10.2707113 Z" id="path-36"></path>
        <linearGradient x1="32.8013461%" y1="40.6404182%" x2="67.2296799%" y2="54.2027273%" id="linearGradient-38">
            <stop stop-color="#C8F000" offset="0%"></stop>
            <stop stop-color="#14B400" offset="80%"></stop>
            <stop stop-color="#14B400" offset="100%"></stop>
        </linearGradient>
        <polygon id="path-39" points="0 566.857319 666.66665 566.857319 666.66665 0 0 0"></polygon>
        <polygon id="path-41" points="-1.89478058e-14 487.771054 705.247182 487.771054 705.247182 9.47390291e-15 -1.89478058e-14 9.47390291e-15"></polygon>
        <path d="M32.1279992,1.78770155 C20.3146662,-0.938965045 14.4506663,-0.549631722 8.83199978,2.97703486 C2.96533326,6.6583681 3.78956116e-14,13.3517013 3.78956116e-14,22.479701 C3.78956116e-14,33.5197008 3.82666657,40.6970339 13.9106663,48.3917004 C4.37866656,51.1490337 0.955999976,55.6010335 0.955999976,65.2797 C0.955999976,74.7010331 4.80266655,83.7730328 11.445333,90.566366 C16.6853329,95.9250325 24.5093327,99.8436991 35.1826658,102.277032 L63.8133317,108.886366 L63.8133317,80.7703662 L43.7199989,76.1316997 C35.7706658,74.2970331 33.3413325,72.4356998 33.3413325,68.0930332 C33.3413325,63.7503667 35.7706658,63.0117 43.7199989,64.8463666 L63.8133317,69.4850332 L63.8133317,48.4077004 L43.7199989,43.7690338 C35.7706658,41.9330339 34.9613325,38.205034 34.9613325,36.1063674 C34.9613325,33.8623674 35.7706658,30.6063675 43.7199989,32.4423675 L63.8133317,37.081034 L63.8133317,9.10370137 L32.1279992,1.78770155 Z" id="path-43"></path>
        <linearGradient x1="-8.3248844%" y1="39.7175631%" x2="101.741131%" y2="65.3008337%" id="linearGradient-45">
            <stop stop-color="#FFFF00" offset="0%"></stop>
            <stop stop-color="#FFBE00" offset="75%"></stop>
            <stop stop-color="#FFBE00" offset="100%"></stop>
        </linearGradient>
        <polygon id="path-46" points="0 566.857319 666.66665 566.857319 666.66665 0 0 0"></polygon>
        <polygon id="path-48" points="-1.89478058e-14 487.771054 705.247182 487.771054 705.247182 9.47390291e-15 -1.89478058e-14 9.47390291e-15"></polygon>
        <path d="M110.994664,114.84533 C103.586664,121.651997 93.5906643,123.80533 81.883998,121.102664 C74.0226648,119.287997 67.6973316,116.00133 60.7039985,109.926664 C53.7119987,112.773331 47.4239988,113.146664 39.5253323,111.323997 C27.8533326,108.629331 17.8226662,101.851997 10.4146664,91.625331 C2.62399993,80.8693313 0,71.2839982 0,53.221332 L0,4.73695145e-15 L30.3239992,7.00133316 L30.3239992,65.9853317 C30.3239992,74.8746648 33.1893325,78.5933314 37.8693324,79.6733313 C42.5479989,80.7533313 45.5426655,78.3866647 45.5426655,69.4986649 L45.5426655,10.5146664 L75.8666648,17.5159996 L75.8666648,76.5 C75.8666648,85.3879979 78.859998,89.1373311 83.5399979,90.2173311 C88.2199978,91.2973311 91.0839977,88.9013311 91.0839977,80.0133313 L91.0839977,21.0279995 L121.40933,28.0293326 L121.40933,81.2506646 C121.40933,99.3133309 118.78533,107.687997 110.994664,114.84533" id="path-50"></path>
        <radialGradient cx="49.9984685%" cy="49.9995%" fx="49.9984685%" fy="49.9995%" r="50.9801673%" gradientTransform="translate(0.5, 0.5), scale(0.9626, 1), translate(-0.5, -0.5)" id="radialGradient-52">
            <stop stop-color="#FAFFC8" offset="0%"></stop>
            <stop stop-color="#C8FF00" offset="45%"></stop>
            <stop stop-color="#00A000" offset="100%"></stop>
        </radialGradient>
        <polygon id="path-53" points="0 566.857319 666.66665 566.857319 666.66665 0 0 0"></polygon>
        <radialGradient cx="50.0016091%" cy="49.8828255%" fx="50.0016091%" fy="49.8828255%" r="50.6896263%" gradientTransform="translate(0.5, 0.4988), scale(1, 0.9735), translate(-0.5, -0.4988)" id="radialGradient-55">
            <stop stop-color="#FFFFA0" offset="0%"></stop>
            <stop stop-color="#FFFF00" offset="55%"></stop>
            <stop stop-color="#FFC800" offset="100%"></stop>
        </radialGradient>
        <radialGradient cx="50.0000216%" cy="49.9998738%" fx="50.0000216%" fy="49.9998738%" r="51.0693389%" gradientTransform="translate(0.5, 0.5), scale(0.9594, 1), translate(-0.5, -0.5)" id="radialGradient-56">
            <stop stop-color="#D9FFFF" offset="0%"></stop>
            <stop stop-color="#96D2FF" offset="42%"></stop>
            <stop stop-color="#00AAFF" offset="100%"></stop>
        </radialGradient>
    </defs>
    <g id="קצב-גן-עדן" stroke="none" stroke-width="1" fill="none" fill-rule="evenodd">
        <g id="g12-Clipped" transform="translate(372.3333, 306.4287) scale(-1, 1) rotate(-180) translate(-372.3333, -306.4287)translate(39, 23)">
            <mask id="mask-2" fill="white">
                <use xlink:href="#path-1"></use>
            </mask>
            <g id="path14"></g>
            <g id="g12" mask="url(#mask-2)">
                <g transform="translate(38.8938, 112.1748)">
                    <g id="g18" stroke-width="1" fill="none" fill-rule="evenodd" transform="translate(0, 0)">
                        <path d="M393.341773,454.682655 C343.509775,454.682655 298.452442,426.794656 275.55111,384.217324 C261.15511,389.278657 245.917777,391.897324 230.447111,391.897324 C214.337778,391.897324 191.458223,385.691546 161.808446,373.279991 C156.955716,373.279991 147.128462,373.279991 132.326684,373.279991 C59.3613527,373.279991 8.9118076e-16,313.826659 8.9118076e-16,240.749327 C8.9118076e-16,190.535995 39.7272489,162.206041 49.688182,147.303508 C46.4521821,137.098174 32.9084491,118.163997 32.9084491,107.301331 C32.9084491,48.1346655 82.1924479,0 142.771113,0 C179.472445,0 212.307111,17.4546662 232.327111,44.9706655 C256.729777,22.3746661 289.057776,9.3413331 323.617775,9.3413331 C379.469774,9.3413331 428.721773,43.8626656 448.639105,94.213331 C451.923105,93.9666643 455.215105,93.841331 458.511105,93.841331 C530.56577,93.841331 589.185769,151.90133 589.185769,223.265328 C589.185769,268.71866 564.991102,310.567992 526.38577,333.845325 C519.983104,401.53999 462.757772,454.682655 393.341773,454.682655 Z" id="path20" fill="#0096E6" fill-rule="nonzero"></path>
                    </g>
                    <g id="g22" stroke-width="1" fill="none" fill-rule="evenodd" transform="translate(14.1062, 14.7557)">
                        <path d="M128.664795,0 C167.106128,0 200.638127,22.0239994 215.55946,54.7919986 C237.990126,26.314666 272.298125,9.3413331 309.511458,9.3413331 C363.095456,9.3413331 409.852788,45.0146655 424.454121,95.5533309 C431.042121,94.4159976 437.718121,93.841331 444.404788,93.841331 C508.323453,93.841331 560.324785,145.28133 560.324785,208.510661 C560.324785,251.28666 536.103452,290.467993 498.063453,310.143992 C496.091453,373.903991 443.544788,425.171989 379.235456,425.171989 C330.359457,425.171989 286.647458,395.018657 268.822125,350.447991 C261.334317,354.05271 237.839417,367.295109 205.43546,365.926789 C195.720654,365.516562 171.908834,357.516562 134,341.926789 L133.978248,341.87884 C127.025758,343.22288 119.845082,343.926789 112.5,343.926789 C50.3679656,343.926789 -2.57234726e-14,293.558823 -2.57234726e-14,231.426789 C-2.57234726e-14,194.040109 18.2371542,160.912944 46.3007047,140.456053 L42.5901309,131.931997 C36.5679089,114.827997 33.5567978,101.699553 33.5567978,92.5466644 C33.5567978,41.515999 76.2221301,0 128.664795,0 Z" id="path24-2" fill="#FFFFFF" fill-rule="nonzero"></path>
                    </g>
                    <g id="g26" stroke-width="1" fill="none" fill-rule="evenodd" transform="translate(30.6882, 25.1028)">
                        <path d="M112.082931,0 C154.13093,0 189.009596,29.6986659 195.676262,68.642665 C213.801595,33.4413325 250.533594,9.34266643 292.929593,9.34266643 C346.124258,9.34266643 390.421591,47.2599988 400.19759,97.4746642 C409.00559,95.1199976 418.26159,93.8426643 427.822923,93.8426643 C486.128255,93.8426643 533.39492,140.547996 533.39492,198.162662 C533.39492,240.525327 507.826921,276.963993 471.120255,293.301326 C471.144255,294.230659 471.190922,295.153326 471.190922,296.087993 C471.190922,355.949324 422.59759,404.47599 362.653591,404.47599 C312.777593,404.47599 270.78826,370.867991 258.081594,325.101325 C241.198928,335.594658 221.208262,341.691991 199.758929,341.691991 C176.457529,341.691991 154.874114,334.507592 137.136606,322.290325 C129.208519,324.065427 120.9634,325 112.5,325 C50.3679656,325 3.23870965e-14,274.632034 3.23870965e-14,212.5 C3.23870965e-14,177.702346 15.7987671,146.594691 40.6146677,125.958671 C31.7533014,107.646964 27.3229331,93.0600745 27.3229331,82.1986646 C27.3229331,36.8013324 65.2709322,0 112.082931,0 Z" id="path28-2" fill="#000000" fill-rule="nonzero"></path>
                    </g>
                    <polygon id="path30" fill="#000000" fill-rule="nonzero" points="486.755504 118.731864 493.147504 118.731864 493.147504 125.123864 486.755504 125.123864"></polygon>
                    <g id="g32" stroke-width="1" fill="none" fill-rule="evenodd" transform="translate(531.6422, 32.7699)">
                        <path d="M96.1306643,139.26933 L0,117.055997 L0,0 L96.1306643,22.1933328 L96.1306643,44.6386656 C96.1306643,55.7653319 96.1293309,68.1813316 85.2893312,79.5693313 C92.9986643,90.8799977 96.1306643,103.153331 96.1306643,120.559997 L96.1306643,139.26933 Z" id="path34" fill="#000000" fill-rule="nonzero"></path>
                    </g>
                </g>
            </g>
        </g>
        <g id="g36" transform="translate(657.6003, 375.278) scale(-1, 1) rotate(-180) translate(-657.6003, -375.278)translate(618.2019, 316.3133)" fill="url(#linearGradient-3)" fill-rule="nonzero">
            <g id="g46">
                <path d="M48.6194601,110.961331 L48.6154601,88.7479978 C48.6154601,83.5826646 45.4007936,78.3306647 39.398127,76.9439981 L39.398127,76.9439981 C33.3954605,75.5586648 30.1807939,79.3266647 30.1807939,84.4933312 L30.1807939,84.4933312 L30.1807939,106.705331 L0.00346136242,99.7226642 L0.00346136242,89.6973311 C0.00346136242,71.0013316 3.71946127,61.4186651 13.951461,54.649332 L13.951461,54.649332 C-0.0165386371,37.4586657 -0.03387197,25.7333327 0.00346136242,13.7719997 L0.00346136242,13.7719997 L0.00346136242,0 L30.1807939,6.96799983 L30.1807939,30.4026659 C30.1807939,38.7586657 33.3954605,43.9333322 39.398127,45.3199989 L39.398127,45.3199989 C45.4007936,46.7053322 48.6194601,43.0146656 48.6194601,34.6586658 L48.6194601,34.6586658 L48.6194601,11.2239997 L78.7967927,18.1906662 L78.7967927,31.9639992 C78.7967927,43.9319989 78.7967927,55.6719986 64.8474597,66.4013317 L64.8474597,66.4013317 C75.0794595,77.8919981 78.7967927,89.1919978 78.7967927,107.887997 L78.7967927,107.887997 L78.7967927,117.92933 L48.6194601,110.961331 Z" id="path56"></path>
            </g>
        </g>
        <g id="g60-Clipped" transform="translate(372.3333, 306.4287) scale(-1, 1) rotate(-180) translate(-372.3333, -306.4287)translate(39, 23)">
            <mask id="mask-5" fill="white">
                <use xlink:href="#path-4"></use>
            </mask>
            <g id="path62"></g>
            <g id="g60" mask="url(#mask-5)">
                <g transform="translate(66.74, -180.2133)">
                    <g id="g86-Clipped">
                        <mask id="mask-7" fill="white">
                            <use xlink:href="#path-6"></use>
                        </mask>
                        <g id="path70"></g>
                        <g id="g86" opacity="0.199997" mask="url(#mask-7)">
                            <g transform="translate(512.4619, 335.828)" id="g82-Clipped">
                                <mask id="mask-9" fill="white">
                                    <use xlink:href="#path-8"></use>
                                </mask>
                                <g id="path74"></g>
                                <g id="g82" mask="url(#mask-9)">
                                    <g transform="translate(-512.4612, -335.8284)" id="g80">
                                        <g transform="translate(0, 0)">
                                            <polygon id="path78" fill="#FFFFFF" fill-rule="nonzero" points="38.4573324 0 -1.42108544e-14 73.1866648 665.891983 476.043988 704.311982 402.81999"></polygon>
                                        </g>
                                    </g>
                                </g>
                            </g>
                        </g>
                    </g>
                    <g id="g90" transform="translate(462.9465, 325.8963)">
                        <polygon id="path92" fill="#000000" fill-rule="nonzero" points="0 117.08133 0 0 47.5519988 10.9786664 47.5519988 128.059997"></polygon>
                    </g>
                </g>
            </g>
        </g>
        <g id="g94" transform="translate(592.462, 380.1447) scale(-1, 1) rotate(-180) translate(-592.462, -380.1447)translate(577.3547, 326.7853)" fill="url(#linearGradient-10)" fill-rule="nonzero">
            <g id="g104" transform="translate(0, 0)">
                <polygon id="path112" points="7.57912233e-14 99.7439975 7.57912233e-14 -3.78956116e-14 30.2146659 6.97466649 30.2146659 106.718664"></polygon>
            </g>
        </g>
        <g id="g116-Clipped" transform="translate(372.3333, 306.4287) scale(-1, 1) rotate(-180) translate(-372.3333, -306.4287)translate(39, 23)">
            <mask id="mask-12" fill="white">
                <use xlink:href="#path-11"></use>
            </mask>
            <g id="path118"></g>
            <g id="g116" mask="url(#mask-12)">
                <g transform="translate(66.74, -180.2133)">
                    <g id="g142-Clipped">
                        <mask id="mask-14" fill="white">
                            <use xlink:href="#path-13"></use>
                        </mask>
                        <g id="path126"></g>
                        <g id="g142" opacity="0.199997" mask="url(#mask-14)">
                            <g transform="translate(471.616, 336.5667)" id="g140">
                                <g id="g138-Clipped" transform="translate(0, 0)">
                                    <mask id="mask-16" fill="white">
                                        <use xlink:href="#path-15"></use>
                                    </mask>
                                    <g id="path130"></g>
                                    <g id="g138" mask="url(#mask-16)">
                                        <g transform="translate(-471.6153, -336.5671)" id="g136">
                                            <g transform="translate(0, 0)">
                                                <polygon id="path134" fill="#FFFFFF" fill-rule="nonzero" points="38.4573324 0 -1.42108544e-14 73.1866648 665.891983 476.043988 704.311982 402.81999"></polygon>
                                            </g>
                                        </g>
                                    </g>
                                </g>
                            </g>
                        </g>
                    </g>
                    <g id="g146" transform="translate(332.2075, 285.9908)">
                        <path d="M126.203997,132.715997 C117.12533,141.058663 104.795997,143.730663 90.5533311,140.442663 C82.7773313,138.647997 76.0613314,135.543997 69.3733316,130.586663 C62.6866651,132.455997 55.9706653,132.458663 48.1946655,130.663997 C33.9506658,127.374663 21.6226661,119.010664 12.5426664,106.474664 C3.28266658,93.689331 0,82.0226646 0,61.8906651 L0,0 L138.747997,32.0333325 L138.747997,93.9239977 C138.747997,114.055997 135.46533,124.207997 126.203997,132.715997" id="path148" fill="#000000" fill-rule="nonzero"></path>
                    </g>
                </g>
            </g>
        </g>
        <g id="g150" transform="translate(507.322, 412.2907) scale(-1, 1) rotate(-180) translate(-507.322, -412.2907)translate(446.6173, 351.1733)" fill="url(#linearGradient-17)" fill-rule="nonzero">
            <g id="g160">
                <path d="M81.8826646,121.10133 C74.0226648,119.286664 67.6973316,116.00133 60.7039985,109.925331 L60.7039985,109.925331 C53.7119987,112.771997 47.4226655,113.146664 39.523999,111.322664 L39.523999,111.322664 C27.8533326,108.627997 17.8226662,101.850664 10.4146664,91.6239977 L10.4146664,91.6239977 C2.6226666,80.8693313 -7.57912233e-14,71.2826649 -7.57912233e-14,53.2199987 L-7.57912233e-14,53.2199987 L-7.57912233e-14,0 L30.3239992,7.00133316 L30.3239992,65.9839984 C30.3239992,74.8733315 33.1879992,78.591998 37.8679991,79.671998 L37.8679991,79.671998 C42.5479989,80.751998 45.5413322,78.3866647 45.5413322,69.4973316 L45.5413322,69.4973316 L45.5413322,10.5133331 L75.8666648,17.5146662 L75.8666648,76.4986648 C75.8666648,85.3866645 78.859998,89.1359978 83.5386646,90.2173311 L83.5386646,90.2173311 C88.2186645,91.2973311 91.0839977,88.8999978 91.0839977,80.011998 L91.0839977,80.011998 L91.0839977,21.0279995 L121.40933,28.0279993 L121.40933,81.2493313 C121.40933,99.3119975 118.783997,107.686664 110.993331,114.843997 L110.993331,114.843997 C105.659997,119.74533 98.9826642,122.234664 91.2933311,122.234664 L91.2933311,122.234664 C88.3026645,122.234664 85.1599979,121.858664 81.8826646,121.10133" id="path170"></path>
            </g>
        </g>
        <g id="g174-Clipped" transform="translate(372.3333, 306.4287) scale(-1, 1) rotate(-180) translate(-372.3333, -306.4287)translate(39, 23)">
            <mask id="mask-19" fill="white">
                <use xlink:href="#path-18"></use>
            </mask>
            <g id="path176"></g>
            <g id="g174" mask="url(#mask-19)">
                <g transform="translate(-46.4925, -180.2133)">
                    <g id="g204-Clipped">
                        <mask id="mask-21" fill="white">
                            <use xlink:href="#path-20"></use>
                        </mask>
                        <g id="path184"></g>
                        <g id="g204" opacity="0.199997" mask="url(#mask-21)">
                            <g transform="translate(454.1085, 296.6613)" id="g200-Clipped">
                                <mask id="mask-23" fill="white">
                                    <use xlink:href="#path-22"></use>
                                </mask>
                                <g id="path188"></g>
                                <g id="g200" mask="url(#mask-23)">
                                    <g transform="translate(-454.1084, -296.6617)">
                                        <g id="g194" transform="translate(0, 110.556)">
                                            <polygon id="path192" fill="#FFFFFF" fill-rule="nonzero" points="40.1133323 0 9.47390291e-15 82.6373313 665.133317 487.770654 705.246649 405.133323"></polygon>
                                        </g>
                                        <g id="g198" transform="translate(113.2331, 0)">
                                            <polygon id="path196" fill="#FFFFFF" fill-rule="nonzero" points="38.4573324 0 -1.42108544e-14 73.1866648 665.891983 476.043988 704.311982 402.81999"></polygon>
                                        </g>
                                    </g>
                                </g>
                            </g>
                        </g>
                    </g>
                    <g id="g208" transform="translate(356.1413, 275.7285)">
                        <path d="M85.9333312,120.52133 C77.2679981,130.130663 62.7573318,133.99333 48.0653321,130.60133 C33.3906658,127.21333 18.8906662,116.654664 10.2226664,103.043997 C2.7706666,91.3426644 0,80.6626647 0,63.6373317 L0,0 L96.1306643,22.1933328 L96.1306643,85.8306645 C96.1306643,102.875997 93.3666643,112.278664 85.9333312,120.52133" id="path210" fill="#000000" fill-rule="nonzero"></path>
                    </g>
                </g>
            </g>
        </g>
        <g id="g212" transform="translate(396.7133, 427.5433) scale(-1, 1) rotate(-180) translate(-396.7133, -427.5433)translate(357.3173, 371.4133)" fill="url(#linearGradient-24)" fill-rule="nonzero">
            <g id="g222" transform="translate(-0, 0)">
                <path d="M39.395999,111.263997 C27.4359993,108.501331 15.6226663,99.9733308 8.50133312,88.7919978 L8.50133312,88.7919978 C2.25999994,78.9933314 7.57912233e-14,70.0973316 7.57912233e-14,54.969332 L7.57912233e-14,54.969332 L7.57912233e-14,0 L30.1413326,6.95866649 L30.1413326,28.8493326 L48.6519988,33.0946658 L48.6519988,11.2333331 L78.791998,18.1906662 L78.791998,73.1599982 C78.791998,88.2879978 76.5479981,96.1546643 70.3173316,103.063997 L70.3173316,103.063997 C64.9159984,109.053331 56.8119986,112.259997 47.9986655,112.259997 L47.9986655,112.259997 C45.1813322,112.259997 42.2933323,111.933331 39.395999,111.263997 M31.2639992,64.9079984 L23.2039994,71.3826649 L34.3706658,75.7066648 L39.395999,87.5293311 L44.4226656,78.027998 L55.5893319,78.859998 L47.5279988,68.662665 L49.4039988,57.3546652 L39.395999,60.5546652 L29.3879993,52.733332 L31.2639992,64.9079984 Z" id="path232"></path>
            </g>
        </g>
        <g id="g236-Clipped" transform="translate(372.3333, 306.4287) scale(-1, 1) rotate(-180) translate(-372.3333, -306.4287)translate(39, 23)">
            <mask id="mask-26" fill="white">
                <use xlink:href="#path-25"></use>
            </mask>
            <g id="path238"></g>
            <g id="g236" mask="url(#mask-26)">
                <g transform="translate(-46.4925, -69.6577)">
                    <g id="g262-Clipped">
                        <mask id="mask-28" fill="white">
                            <use xlink:href="#path-27"></use>
                        </mask>
                        <g id="path246"></g>
                        <g id="g262" opacity="0.199997" mask="url(#mask-28)">
                            <g transform="translate(364.8099, 175.8431)" id="g260">
                                <g id="g258-Clipped" transform="translate(-0, 0)">
                                    <mask id="mask-30" fill="white">
                                        <use xlink:href="#path-29"></use>
                                    </mask>
                                    <g id="path250"></g>
                                    <g id="g258" mask="url(#mask-30)">
                                        <g transform="translate(-364.8097, -175.8431)" id="g256">
                                            <g transform="translate(0, 0)">
                                                <polygon id="path254" fill="#FFFFFF" fill-rule="nonzero" points="40.1133323 0 9.47390291e-15 82.6373313 665.133317 487.770654 705.246649 405.133323"></polygon>
                                            </g>
                                        </g>
                                    </g>
                                </g>
                            </g>
                        </g>
                    </g>
                    <g id="g266" transform="translate(269.3255, 144.958)">
                        <path d="M88.0626645,127.522482 C78.1106647,127.219816 71.2253316,126.373149 62.6573318,124.394482 C43.2253323,119.909149 28.158666,110.534483 16.5986663,95.7344831 C6.04933318,82.2291501 0,65.1451506 0,48.861151 C0,31.8958181 6.42399984,17.6518184 18.0879995,8.75181863 C29.8306659,-0.208181141 43.0159989,-2.14284776 62.1786651,2.28115213 C70.5586649,4.21581875 76.8253314,6.33848536 87.9679978,11.0184852 L95.0266643,13.9824852 L95.0266643,127.734482 L88.0626645,127.522482 Z" id="path268" fill="#000000" fill-rule="nonzero"></path>
                    </g>
                </g>
            </g>
        </g>
        <g id="g270" transform="translate(309.346, 450.7952) scale(-1, 1) rotate(-180) translate(-309.346, -450.7952)translate(270.5013, 395.928)" fill="url(#linearGradient-31)" fill-rule="nonzero">
            <g id="g280">
                <path d="M53.9879987,106.830392 C36.7973324,102.862392 24.1506661,95.039726 14.205333,82.3090596 L14.205333,82.3090596 C5.08666654,70.6343932 0,56.0277269 0,41.9690606 L0,41.9690606 C0,27.2823943 5.52266653,15.0530613 15.5306663,7.41706148 L15.5306663,7.41706148 C25.5799994,-0.249604992 36.5706658,-1.85493829 53.5106653,2.05572828 L53.5106653,2.05572828 C61.6199985,3.92772824 67.6053316,6.03439485 77.6893314,10.2703947 L77.6893314,10.2703947 L77.6893314,68.49306 L47.5479988,61.5343935 L47.5479988,31.7903942 C36.7653324,30.7930609 29.7733326,37.4063941 29.7733326,48.7863938 L29.7733326,48.7863938 C29.7733326,62.3277268 39.119999,72.1477265 55.6079986,75.9543931 L55.6079986,75.9543931 C62.6879984,77.5890597 68.4519983,78.2930597 77.6893314,78.4810597 L77.6893314,78.4810597 L77.6893314,109.734392 C67.862665,109.437059 61.5319985,108.571726 53.9879987,106.830392" id="path290"></path>
            </g>
        </g>
        <g id="g294-Clipped" transform="translate(372.3333, 306.4287) scale(-1, 1) rotate(-180) translate(-372.3333, -306.4287)translate(39, 23)">
            <mask id="mask-33" fill="white">
                <use xlink:href="#path-32"></use>
            </mask>
            <g id="path296"></g>
            <g id="g294" mask="url(#mask-33)">
                <g transform="translate(-46.4925, -69.6577)">
                    <g id="g320-Clipped">
                        <mask id="mask-35" fill="white">
                            <use xlink:href="#path-34"></use>
                        </mask>
                        <g id="path304"></g>
                        <g id="g320" opacity="0.199997" mask="url(#mask-35)">
                            <g transform="translate(277.9939, 153.8524)" id="g316-Clipped">
                                <mask id="mask-37" fill="white">
                                    <use xlink:href="#path-36"></use>
                                </mask>
                                <g id="path308"></g>
                                <g id="g316" mask="url(#mask-37)">
                                    <g transform="translate(-277.9937, -153.8524)" id="g314">
                                        <g transform="translate(0, 0)">
                                            <polygon id="path312" fill="#FFFFFF" fill-rule="nonzero" points="40.1133323 0 9.47390291e-15 82.6373313 665.133317 487.770654 705.246649 405.133323"></polygon>
                                        </g>
                                    </g>
                                </g>
                            </g>
                        </g>
                    </g>
                    <g id="g324" transform="translate(195.9064, 136.0093)">
                        <path d="M43.8759989,119.851238 C31.1879992,116.989904 21.6666661,112.109904 14.7319996,105.019238 C5.97733318,96.0659048 0.955999976,84.0965717 0.955999976,72.1779054 C0.955999976,63.8419056 3.15733325,57.9579057 8.0479998,53.8739058 C2.54533327,46.7552393 0,38.8472395 0,29.3765731 C0,17.6379067 4.09866656,8.86190694 11.8546664,3.99390706 C20.2533328,-1.27542614 29.1559993,-0.668759487 40.795999,2.01790711 L81.151998,11.3352402 L81.151998,128.456571 L43.8759989,119.851238 Z" id="path326" fill="#000000" fill-rule="nonzero"></path>
                    </g>
                </g>
            </g>
        </g>
        <g id="g328" transform="translate(228.99, 460.1632) scale(-1, 1) rotate(-180) translate(-228.99, -460.1632)translate(197.0827, 405.72)" fill="url(#linearGradient-38)" fill-rule="nonzero">
            <g id="g330" transform="translate(0, -0)">
                <g id="g336" transform="translate(0, 0)">
                    <g id="g338" transform="translate(0, -0)">
                        <path d="M35.1826658,102.277157 C24.5093327,99.8451568 16.6853329,95.9251569 11.445333,90.5664903 L11.445333,90.5664903 C4.80266655,83.7731572 0.955999976,74.7011574 0.955999976,65.2798243 L0.955999976,65.2798243 C0.955999976,55.6011579 4.37866656,51.149158 13.9106663,48.3918247 L13.9106663,48.3918247 C3.8279999,40.6984916 0,33.5198251 0,22.4798254 L0,22.4798254 C0,13.3518256 2.96533326,6.6571591 8.83199978,2.97715919 L8.83199978,2.97715919 C14.4506663,-0.548174051 20.3146662,-0.940174041 32.1266659,1.78782589 L32.1266659,1.78782589 L63.8146651,9.10382571 L63.8146651,37.0811583 L43.7199989,32.4424918 C35.7719991,30.6078252 34.9613325,33.8611584 34.9613325,36.1064917 L34.9613325,36.1064917 C34.9613325,38.203825 35.7719991,41.9344916 43.7199989,43.7691582 L43.7199989,43.7691582 L63.8146651,48.4078247 L63.8146651,69.4864909 L43.7199989,64.846491 C35.7719991,63.0118244 33.3413325,63.750491 33.3413325,68.0931576 L33.3413325,68.0931576 C33.3413325,72.4358241 35.7719991,74.2971574 43.7199989,76.131824 L43.7199989,76.131824 L63.8146651,80.7704906 L63.8146651,108.88649 L35.1826658,102.277157 Z" id="path348"></path>
                    </g>
                </g>
            </g>
        </g>
        <g id="g352-Clipped" transform="translate(372.3333, 306.4287) scale(-1, 1) rotate(-180) translate(-372.3333, -306.4287)translate(39, 23)">
            <mask id="mask-40" fill="white">
                <use xlink:href="#path-39"></use>
            </mask>
            <g id="path354"></g>
            <g id="g352" mask="url(#mask-40)">
                <g transform="translate(-46.4925, -69.6577)">
                    <g id="g378-Clipped">
                        <mask id="mask-42" fill="white">
                            <use xlink:href="#path-41"></use>
                        </mask>
                        <g id="path362"></g>
                        <g id="g378" opacity="0.199997" mask="url(#mask-42)">
                            <g transform="translate(204.5752, 144.9087)" id="g376">
                                <g transform="translate(0, -0)">
                                    <g id="g374-Clipped" transform="translate(-0, 0)">
                                        <mask id="mask-44" fill="white">
                                            <use xlink:href="#path-43"></use>
                                        </mask>
                                        <g id="path366"></g>
                                        <g id="g374" mask="url(#mask-44)">
                                            <g transform="translate(-204.5751, -144.9087)" id="g372">
                                                <g transform="translate(0, 0)">
                                                    <polygon id="path370" fill="#FFFFFF" fill-rule="nonzero" points="40.1133323 0 9.47390291e-15 82.6373313 665.133317 487.770654 705.246649 405.133323"></polygon>
                                                </g>
                                            </g>
                                        </g>
                                    </g>
                                </g>
                            </g>
                        </g>
                    </g>
                    <g id="g382" transform="translate(65.7007, 89.1969)">
                        <path d="M126.203997,132.714663 C117.123997,141.05733 104.795997,143.72933 90.5533311,140.44133 C82.7746646,138.64533 76.0599981,135.54133 69.3746649,130.58533 C62.6879984,132.454663 55.9719986,132.45733 48.1946655,130.662663 C33.9506658,127.37333 21.6226661,119.00933 12.5439997,106.474664 C3.28266658,93.689331 0,82.0226646 0,61.8893318 L0,0 L138.746663,32.0333325 L138.746663,93.9226643 C138.746663,114.054664 135.46533,124.206664 126.203997,132.714663" id="path384" fill="#000000" fill-rule="nonzero"></path>
                    </g>
                </g>
            </g>
        </g>
        <g id="g386" transform="translate(127.582, 498.53) scale(-1, 1) rotate(-180) translate(-127.582, -498.53)translate(66.8773, 437.4133)" fill="url(#linearGradient-45)" fill-rule="nonzero">
            <g id="g396" transform="translate(-0, 0)">
                <path d="M81.883998,121.10133 C74.0226648,119.286664 67.6959983,116.00133 60.7039985,109.925331 L60.7039985,109.925331 C53.7119987,112.771997 47.4239988,113.146664 39.5253323,111.322664 L39.5253323,111.322664 C27.854666,108.626664 17.8226662,101.850664 10.4146664,91.6239977 L10.4146664,91.6239977 C2.62399993,80.867998 1.89478058e-14,71.2813316 1.89478058e-14,53.2186653 L1.89478058e-14,53.2186653 L1.89478058e-14,0 L30.3253326,7 L30.3253326,65.9839984 C30.3253326,74.8719981 33.1893325,78.591998 37.8693324,79.671998 L37.8693324,79.671998 C42.5479989,80.751998 45.5426655,78.3853314 45.5426655,69.4973316 L45.5426655,69.4973316 L45.5426655,10.5119997 L75.8666648,17.5146662 L75.8666648,76.4986648 C75.8666648,85.3866645 78.859998,89.1359978 83.5399979,90.2159977 L83.5399979,90.2159977 C88.2199978,91.2959977 91.0839977,88.8999978 91.0839977,80.011998 L91.0839977,80.011998 L91.0839977,21.0266661 L121.40933,28.0279993 L121.40933,81.2493313 C121.40933,99.3106642 118.78533,107.686664 110.993331,114.843997 L110.993331,114.843997 C105.659997,119.74533 98.9839975,122.233334 91.2933311,122.233334 L91.2933311,122.233334 C88.3039978,122.234664 85.1613312,121.85733 81.883998,121.10133" id="path406"></path>
            </g>
        </g>
        <g id="g410-Clipped" transform="translate(372.3333, 306.4287) scale(-1, 1) rotate(-180) translate(-372.3333, -306.4287)translate(39, 23)">
            <mask id="mask-47" fill="white">
                <use xlink:href="#path-46"></use>
            </mask>
            <g id="path412"></g>
            <g id="g410" mask="url(#mask-47)">
                <g transform="translate(-46.4925, -69.6577)">
                    <g id="g436-Clipped">
                        <mask id="mask-49" fill="white">
                            <use xlink:href="#path-48"></use>
                        </mask>
                        <g id="path420"></g>
                        <g id="g436" opacity="0.199997" mask="url(#mask-49)">
                            <g transform="translate(74.3699, 99.8671)" id="g432-Clipped">
                                <mask id="mask-51" fill="white">
                                    <use xlink:href="#path-50"></use>
                                </mask>
                                <g id="path424"></g>
                                <g id="g432" mask="url(#mask-51)">
                                    <g transform="translate(-74.3697, -99.8671)" id="g430">
                                        <g transform="translate(0, 0)">
                                            <polygon id="path428" fill="#FFFFFF" fill-rule="nonzero" points="40.1133323 0 9.47390291e-15 82.6373313 665.133317 487.770654 705.246649 405.133323"></polygon>
                                        </g>
                                    </g>
                                </g>
                            </g>
                        </g>
                    </g>
                    <g id="g440" transform="translate(592.3497, 202.8651)">
                        <polygon id="path442" fill="#000000" fill-rule="nonzero" points="56.9573319 35.2839991 37.1813324 37.3439991 27.6573326 54.869332 19.5999995 36.6093324 0 32.9639992 14.8186663 19.6639995 12.2719997 0 29.4533326 9.89733309 47.4266655 1.2893333 43.2919989 20.7946661"></polygon>
                    </g>
                </g>
            </g>
        </g>
        <g id="g444" transform="translate(613.532, 430.422) scale(-1, 1) rotate(-180) translate(-613.532, -430.422)translate(598.296, 415.756)" fill="url(#radialGradient-52)" fill-rule="nonzero">
            <g id="g454">
                <polygon id="path464" points="10.4879997 19.5786662 7.57912233e-14 17.6279996 7.9119998 10.5266664 6.5506665 1.89478058e-14 15.7506663 5.29999987 25.3559994 0.699999983 23.1479994 11.1146664 30.4719992 18.8799995 19.8719995 19.9839995 14.793333 29.3319993"></polygon>
            </g>
        </g>
        <g id="g468-Clipped" transform="translate(372.3333, 306.4287) scale(-1, 1) rotate(-180) translate(-372.3333, -306.4287)translate(39, 23)">
            <mask id="mask-54" fill="white">
                <use xlink:href="#path-53"></use>
            </mask>
            <g id="path470"></g>
            <g id="g468" mask="url(#mask-54)">
                <g transform="translate(242.9364, 168.9613)" id="g474">
                    <polygon id="path476" fill="#000000" fill-rule="nonzero" points="39.367999 26.5399993 46.3306655 42.5506656 29.3866659 38.367999 16.2986663 49.9253321 15.0439996 32.5106659 0 23.5946661 16.2026663 17.0586662 19.9626662 0 31.2453326 13.3706663 48.6359988 11.6946664"></polygon>
                </g>
            </g>
        </g>
        <g id="g478" transform="translate(307.156, 395.6447) scale(-1, 1) rotate(-180) translate(-307.156, -395.6447)translate(294.312, 382.4507)" fill="url(#radialGradient-55)" fill-rule="nonzero">
            <g id="g488">
                <polygon id="path498" points="7.95066647 17.1879996 3.78956116e-14 12.4759997 8.57466645 9.01733311 10.5626664 0 16.5253329 7.06666649 25.6879994 6.18399985 20.7933328 14.0226663 24.4733327 22.4866661 15.5306663 20.2786662 8.61199978 26.3879993"></polygon>
            </g>
        </g>
        <g id="g500" transform="translate(66.2308, 563.7284) scale(-1, 1) rotate(-180) translate(-66.2308, -563.7284)translate(39.0001, 537.5997)" fill="#000000" fill-rule="nonzero">
            <g id="g502-Clipped" transform="translate(0, 0)">
                <g id="g508" transform="translate(0, 0)">
                    <polygon id="path510" points="41.195999 32.7026658 44.9013322 51.361332 27.8599993 42.9693323 11.2999997 52.257332 13.965333 33.4626658 0 20.5359995 18.7373329 17.2946662 26.6039993 0 35.5733324 16.8319996 54.461332 19.0479995"></polygon>
                </g>
            </g>
        </g>
        <g id="g512" transform="translate(66.3253, 562.6327) scale(-1, 1) rotate(-180) translate(-66.3253, -562.6327)translate(50.9053, 547.8387)" fill="url(#radialGradient-56)" fill-rule="nonzero">
            <g id="g520" transform="translate(0, 0)">
                <g id="g522" transform="translate(0, -0)">
                    <polygon id="path532" points="7.9119998 18.9533329 -4.73695145e-15 11.629333 10.6359997 9.78799976 15.0879996 0 20.1666662 9.53199976 30.8399992 10.7826664 23.3319994 18.5106662 25.430666 29.0719993 15.7879996 24.3253327 6.40266651 29.5879993"></polygon>
                </g>
            </g>
        </g>
        <path d="M442,138.880172 L440.882096,156.192247 C439.950509,166.470927 434.593886,174.297445 424.812227,180.152135 L439.624454,203.271238 L439.624454,211.954693 L382.19214,228 L382.19214,203.892279 L414.471616,198.982776 L378,121 L398.681223,126.777872 L416.847162,165.404171 C419.362445,163.372097 420.992722,161.087874 421.737991,158.516935 C422.483261,155.972256 422.855895,152.035771 422.855895,146.687784 L423.414847,133.687895 L442,138.880172 Z" id="Path-Copy-4" fill="#FFAA00" fill-rule="nonzero"></path>
        <path d="M457,130.497858 L457,112.185236 L528,97 L528,123.274072 C528,132.888143 527.689956,139.993077 527.069869,144.576112 C526.449782,149.14213 525.054585,153.365472 522.884279,157.221354 C518.95706,164.522811 516.528384,169.410677 515.598253,172.004779 C514.668122,174.583713 514.203057,177.823782 514.203057,181.736361 L514.203057,198.017737 L492.810044,195.982071 L492.810044,179.562406 C492.810044,174.736555 493.378457,170.68126 494.515284,167.377532 C495.652111,164.048483 498.442504,158.795689 502.886463,151.481718 C505.47016,147.0479 506.762009,141.661072 506.762009,135.375183 L506.762009,123.358042 L457,130.497858 Z M457,223.457691 L457,150.827972 L478.237991,149.440572 L478.237991,228 L457,223.457691 Z" id="Shape-Copy-2" fill="#FFAA00" fill-rule="nonzero"></path>
        <path d="M358.915709,213.621058 L369,212.079361 L369,224.602162 L313.643678,240 L313.643678,220.542295 L344.218391,215.868 L344.218391,197.724347 C344.218391,190.219672 342.913155,184.798001 340.302682,181.362331 C337.692209,177.797326 333.168582,175.460624 326.731801,174.449227 C322.941252,173.853626 318.721584,173.722282 314.072797,174.104548 L313,156.06482 C318.435504,155.779797 323.871009,156.439417 329.306513,157.95135 C339.462324,160.776276 346.936143,165.381409 351.727969,171.469139 C356.519796,177.160055 358.915709,184.802581 358.915709,194.694329 L358.915709,213.621058 Z" id="Path-Copy-3" fill="#FDAB00" fill-rule="nonzero"></path>
        <path d="M240.485714,163.623811 C245.190476,162.889775 251.195238,162.805859 258.5,163.359806 C270.633333,164.279922 279.578571,167.618576 285.335714,173.29745 C291.092857,178.871899 293.971429,187.527816 293.971429,199.343521 L293.971429,219.71733 L304,252.084969 L278.557143,254.014396 L272.242857,233.861647 C265.804762,235.169017 260.914286,238.824286 257.571429,244.859061 L251.442857,256.070573 L226,258 L231.571429,245.636876 C239.247619,228.865973 251.566667,219.766642 268.528571,218.097852 L268.528571,200.797358 C268.528571,195.145863 267.135714,190.806235 264.35,187.757913 C261.564286,184.682176 256.704762,182.983518 249.771429,182.682499 C246.180952,182.526614 243.704762,182.599297 242.342857,182.90173 L240.485714,163.623811 Z" id="Path-Copy-2" fill="#FDAB00" fill-rule="nonzero"></path>
        <polygon id="Path-Copy" fill="#FDAB00" fill-rule="nonzero" points="207 182 207 274 189 274 189 182"></polygon>
        <path d="M455.845996,316.172095 C460.215606,313.520636 463.063655,310.30633 464.390144,306.550817 C465.716632,302.774878 466.379877,296.940241 466.379877,289.062224 L467.082136,249.856389 L483,248 L482.180698,278.753868 C481.946612,288.103036 481.595483,295.168317 481.12731,299.949558 C480.659138,304.721965 479.566735,309.455366 477.850103,314.132373 C476.13347,318.777364 473.5,322.928546 469.949692,326.56951 C466.399384,330.156576 460.976386,333.351009 453.680698,336.120845 C446.38501,338.794165 437.821355,340.751077 427.989733,342 L426,325.432913 C432.086242,324.491142 437.353183,323.388611 441.800821,322.128822 L431.26694,254.033263 L447.535934,252.135924 L455.845996,316.172095 Z" id="Path-Copy-10" fill="#FF5500" fill-rule="nonzero"></path>
        <polygon id="Path-Copy-9" fill="#FF5500" fill-rule="nonzero" points="422 272.195856 412.578842 272.930014 412.578842 330 396.44511 329.166193 396.44511 274.187259 363 276.793518 363 261.853479 422 255"></polygon>
        <polygon id="Path-Copy-8" fill="#FF5500" fill-rule="nonzero" points="353 263 353 351 336 349.078108 336 264.921892"></polygon>
    </g>
</svg>