<?xml version="1.0" encoding="UTF-8" standalone="no"?>
<!-- Generator: Adobe Illustrator 27.7.0, SVG Export Plug-In . SVG Version: 6.00 Build 0)  -->

<svg
   version="1.1"
   id="Layer_1"
   x="0px"
   y="0px"
   viewBox="0 0 666.66669 542.44427"
   xml:space="preserve"
   sodipodi:docname="Minna no Rhythm Tengoku (みんなのリズム天国) Logo with Tagline.svg"
   width="666.66669"
   height="542.44427"
   inkscape:version="1.2.2 (b0a8486541, 2022-12-01)"
   xmlns:inkscape="http://www.inkscape.org/namespaces/inkscape"
   xmlns:sodipodi="http://sodipodi.sourceforge.net/DTD/sodipodi-0.dtd"
   xmlns:xlink="http://www.w3.org/1999/xlink"
   xmlns="http://www.w3.org/2000/svg"
   xmlns:svg="http://www.w3.org/2000/svg"
   xmlns:rdf="http://www.w3.org/1999/02/22-rdf-syntax-ns#"
   xmlns:cc="http://creativecommons.org/ns#"
   xmlns:dc="http://purl.org/dc/elements/1.1/"><metadata
   id="metadata1383"><rdf:RDF><cc:Work
       rdf:about=""><dc:format>image/svg+xml</dc:format><dc:type
         rdf:resource="http://purl.org/dc/dcmitype/StillImage" /></cc:Work></rdf:RDF></metadata><defs
   id="defs1381" /><sodipodi:namedview
   pagecolor="#ffffff"
   bordercolor="#666666"
   borderopacity="1"
   objecttolerance="10"
   gridtolerance="10"
   guidetolerance="10"
   inkscape:pageopacity="0"
   inkscape:pageshadow="2"
   inkscape:window-width="2560"
   inkscape:window-height="1400"
   id="namedview1379"
   showgrid="false"
   fit-margin-top="0"
   fit-margin-left="0"
   fit-margin-right="0"
   fit-margin-bottom="0"
   inkscape:zoom="2.182713"
   inkscape:cx="261.83012"
   inkscape:cy="248.31483"
   inkscape:window-x="0"
   inkscape:window-y="0"
   inkscape:window-maximized="1"
   inkscape:current-layer="みんなのリズム天国_00000166658448422767501640000006262920370070636427_"
   inkscape:showpageshadow="0"
   inkscape:pagecheckerboard="0"
   inkscape:deskcolor="#d1d1d1" />
<style
   type="text/css"
   id="style1141">
	
		.st0{clip-path:url(#SVGID_00000034047819472299312080000001564462587256803746_);fill:url(#SVGID_00000068676099476587353700000014824267114856556933_);}
	
		.st1{clip-path:url(#SVGID_00000034047819472299312080000001564462587256803746_);fill:url(#SVGID_00000150096995774277260830000017347984223720369078_);}
	
		.st2{clip-path:url(#SVGID_00000034047819472299312080000001564462587256803746_);fill:url(#SVGID_00000089553321527802271420000008313957786963088552_);}
	
		.st3{clip-path:url(#SVGID_00000034047819472299312080000001564462587256803746_);fill:url(#SVGID_00000105409070374377792680000001619561152342894480_);}
	
		.st4{clip-path:url(#SVGID_00000034047819472299312080000001564462587256803746_);fill:url(#SVGID_00000041991996776044451820000017706081075168658359_);}
	
		.st5{clip-path:url(#SVGID_00000034047819472299312080000001564462587256803746_);fill:url(#SVGID_00000004540905182003521700000010471793697929512832_);}
	
		.st6{clip-path:url(#SVGID_00000034047819472299312080000001564462587256803746_);fill:url(#SVGID_00000077317212734159457040000006178829517636036251_);}
	
		.st7{clip-path:url(#SVGID_00000034047819472299312080000001564462587256803746_);fill:url(#SVGID_00000074444204048941622840000014084693431997092269_);}
	
		.st8{clip-path:url(#SVGID_00000034047819472299312080000001564462587256803746_);fill:url(#SVGID_00000003069757604043787070000017390665443950071999_);}
	
		.st9{clip-path:url(#SVGID_00000034047819472299312080000001564462587256803746_);fill:url(#SVGID_00000080905627919539062490000014486569357132000404_);}
	
		.st10{clip-path:url(#SVGID_00000034047819472299312080000001564462587256803746_);fill:url(#SVGID_00000151534977841821346950000009448728408042110599_);}
	
		.st11{clip-path:url(#SVGID_00000034047819472299312080000001564462587256803746_);fill:url(#SVGID_00000040549295972080404030000015961317343052070019_);}
	
		.st12{clip-path:url(#SVGID_00000034047819472299312080000001564462587256803746_);fill:url(#SVGID_00000138571705304779718230000002329342472026247320_);}
	
		.st13{clip-path:url(#SVGID_00000034047819472299312080000001564462587256803746_);fill:url(#SVGID_00000000196351234372180550000008080163296149434040_);}
	
		.st14{clip-path:url(#SVGID_00000034047819472299312080000001564462587256803746_);fill:url(#SVGID_00000158023415206668094980000012509288157840925059_);}
	
		.st15{clip-path:url(#SVGID_00000034047819472299312080000001564462587256803746_);fill:url(#SVGID_00000169527694555778626260000015772853031750746007_);}
	
		.st16{clip-path:url(#SVGID_00000034047819472299312080000001564462587256803746_);fill:url(#SVGID_00000138567739488712198450000004765880066373120944_);}
	
		.st17{clip-path:url(#SVGID_00000034047819472299312080000001564462587256803746_);fill:url(#SVGID_00000080204962974834055980000013982702082417232015_);}
	
		.st18{clip-path:url(#SVGID_00000034047819472299312080000001564462587256803746_);fill:url(#SVGID_00000048496858407652988430000002080531408123259812_);}
	.st19{fill:#FFFFFF;}
	.st20{fill:#EB6100;}
	.st21{fill:#FDD000;}
</style>
<path
   id="リズムにノッて_ボタン押すだけ_x266A_"
   d="m 132.15576,542.44425 v -6.33569 c 2.41094,-2.90699 3.61642,-7.09656 3.6837,-12.38476 l 5.61245,-1.71591 c -0.17101,8.59151 -2.58195,15.76525 -9.29615,20.43636 z m 17.62791,-25.04976 v 20.89949 l -5.95447,1.82048 v -20.89949 l -11.29498,3.4532 v -5.43864 l 11.29498,-3.4532 v -4.09859 l 5.95447,-1.82048 v 4.09859 l 11.36225,-3.4738 v 5.43864 z m 2.27357,1.37101 5.78346,-1.76818 c 0.13737,5.22566 1.37648,8.66789 3.8575,10.07918 v 6.36939 c -6.95528,-0.5256 -9.46994,-6.19345 -9.64096,-14.68039 z m 1.58394,-9.09074 v -4.1659 l 3.57996,-1.09448 v 4.16586 z m 4.57798,-1.39962 v -4.16589 l 3.57996,-1.09452 v 4.16589 z m 10.6586,23.69902 v -5.54236 c 6.78148,-2.79659 11.42956,-6.28378 14.49368,-10.76688 -4.44061,0.5306 -8.40185,1.15576 -12.32664,1.97721 v -3.65003 c -1.78857,2.20084 -3.85469,4.24264 -6.19556,5.78532 v -6.19556 c 2.92678,-2.6862 5.405,-6.85282 6.67776,-11.16674 l 22.82826,-6.9793 v 0.5859 c -0.20747,15.10942 -5.71618,28.70533 -25.4775,35.95244 z m 6.67775,-25.21187 c -0.75692,1.64152 -1.75495,3.39323 -2.96041,5.10461 4.5107,-0.9305 9.36342,-1.76094 13.73676,-2.20369 0.72329,-2.07979 1.17184,-4.24943 1.44657,-6.63781 z m 21.67324,-6.00664 v -5.99088 c 4.51072,-1.13799 10.39789,-2.2146 14.76843,-2.79387 v 6.1283 c -3.95844,0.41682 -10.60254,1.58748 -14.76843,2.65645 z m 0.51583,22.01457 v -5.92362 c 12.2902,-4.61816 19.72768,-10.26452 20.72569,-23.75692 l 6.47311,-1.97904 c -0.99804,16.8649 -10.43154,26.1885 -27.1988,31.65958 z m 39.54504,-22.76278 v 3.16508 c 0,6.43945 -0.37846,8.24284 -7.36738,10.37956 l -1.7914,-4.96106 c 0.34483,-0.10538 0.6532,-0.19966 0.93075,-0.28454 2.44459,-0.7474 2.61559,-0.86975 2.61559,-2.52096 v -2.8595 c -0.8943,0.44723 -1.79139,0.8925 -2.89314,1.40316 l -0.68682,-5.33516 c 1.37648,-0.59184 2.51186,-1.10998 3.57996,-1.61034 v -4.71534 l -2.85667,0.87338 v -4.95927 l 2.85667,-0.87337 v -5.40499 l 5.61245,-1.71591 v 5.40499 l 1.65123,-0.50484 v 4.95927 l -1.65123,0.50484 v 3.61361 c 0.79057,-0.41272 1.65123,-1.12439 1.65123,-1.12439 v 5.40499 c -2e-5,-1e-5 -0.99804,0.82095 -1.65124,1.16079 z m 14.56378,-1.00996 v 8.15796 l -5.50873,1.68416 v -8.15796 l -6.71419,2.05273 v -21.89751 l 19.0044,-5.81022 v 21.8975 z m -5.1639,-15.32586 -1.72132,0.52624 v 3.54631 l 1.72132,-0.52624 z m 0,8.3654 -1.72132,0.52624 v 3.54635 l 1.72132,-0.52628 z m 6.61045,-10.38642 -1.79139,0.54769 v 3.54631 l 1.79139,-0.5477 z m 0,8.36538 -1.79139,0.5477 v 3.54634 l 1.79139,-0.54769 z m 32.34587,-14.882 v 6.09464 c 0,11.42952 -6.19556,16.97376 -17.73163,20.70814 v -5.37134 c 4.51071,-1.48278 8.12712,-3.48274 9.95215,-6.03954 -0.79338,0.55374 -1.99884,1.23348 -3.2716,1.6226 -4.71816,1.44246 -8.1944,0.3018 -8.1944,-4.00427 0,-3.50989 2.92677,-7.12399 8.81396,-8.92387 1.79138,-0.54769 3.20149,-0.74052 4.40696,-0.69417 v -1.55029 l -17.35318,5.30541 v -5.40503 l 17.35318,-5.30537 v -3.2716 l 6.02456,-1.84188 v 3.2716 l 7.05902,-2.15816 v 5.40499 z m -9.81198,7.99272 c -2.23712,0.68396 -3.75378,1.93819 -3.75378,3.14368 0,1.34282 1.41292,1.5304 3.75378,0.81474 2.2035,-0.67367 3.82107,-2.06251 3.82107,-3.33524 0,-1.2055 -1.51385,-1.32858 -3.82107,-0.62318 z m 45.0874,-23.39192 v 4.82186 l -15.6655,4.78942 c -1.24192,7.60975 -2.72214,14.4653 -4.54714,21.70382 l -6.12828,1.87357 c 1.99884,-6.80945 3.72014,-14.25456 4.9256,-21.7522 l -4.5107,1.37907 v -5.43864 l 5.30126,-1.62078 c 0.17382,-1.18852 0.31118,-2.29862 0.41211,-3.43124 l 5.95725,-1.82133 c -0.171,1.15405 -0.34481,2.30892 -0.51582,3.46297 l 9.29614,-2.84212 v -3.95845 l 3.57998,-1.09448 v 3.95841 l 1.06809,-0.32653 v -3.95845 l 3.57997,-1.09448 v 4.50789 z m -6.57681,27.55831 c -6.81791,2.08443 -9.70823,0.24877 -9.70823,-3.43493 0,-2.30722 1.10175,-4.60644 2.09975,-6.32447 l 6.05819,-1.85217 c -0.8943,1.30786 -2.41094,3.63021 -2.41094,5.14404 0,1.20548 1.10454,2.00598 4.82188,0.86946 2.78942,-0.85278 6.29928,-2.40804 8.78032,-3.75248 v 5.71615 c -2.20349,0.98205 -5.78626,2.45589 -9.64097,3.6344 z m -7.74585,-11.43872 v -4.99007 l 16.69716,-5.10485 v 4.99011 z m 27.00816,-7.63765 c 0,4.02852 0.13737,8.18884 0.41489,12.47453 l -5.85353,1.78959 c -0.17382,-3.14836 -0.34483,-7.4666 -0.34483,-11.9773 0,-5.54516 0.24111,-11.22852 0.79337,-16.52762 l 5.74702,-1.75704 c -0.54948,5.74397 -0.75692,10.73021 -0.75692,15.99784 z m 18.76607,-10.38266 v 2.64926 c 0,12.15282 -7.78227,17.25422 -14.94223,19.92541 v -5.33769 c 4.95647,-2.13494 9.12236,-5.61202 9.12236,-13.04952 v -2.40812 l -10.639,3.25264 v -5.47506 l 10.639,-3.25268 v -5.64608 l 5.81987,-1.77933 v 5.64612 l 4.47428,-1.36792 v 5.47505 z m 19.90425,6.45227 -0.72327,-0.43209 c 2.51466,-3.9703 3.65003,-6.65828 3.65003,-8.58704 0,-1.8923 -1.03165,-3.02348 -2.78939,-3.96627 -0.89429,-0.51997 -2.30721,-0.94865 -3.33886,-1.1154 v 12.56771 c 0,1.82502 -0.27474,5.11052 -2.37732,7.30362 -1.54748,1.60852 -2.99406,2.49931 -4.16586,2.85759 -2.13342,0.65227 -3.54634,-0.3988 -3.54634,-2.15373 0,-0.61955 0.17382,-1.3259 0.55229,-2.06116 2.06612,-4.2481 7.12631,-6.0026 7.12631,-6.0026 v -21.75732 l 1.55029,-0.474 c 0,3.61365 10.98376,4.18033 10.98376,11.27298 0,2.89314 -1.825,6.8601 -6.92164,12.54771 z M 16.079347,522.10774 v -17.50692 l 6.25948,-1.91373 v 17.50696 z m 3.646467,9.9954 v -5.5369 c 10.83296,-3.8973 16.0618,-7.8709 16.0618,-17.77682 V 498.5754 l 6.363107,-1.9454 v 10.28401 c 0,13.61964 -8.28996,20.69401 -22.424907,25.18913 z m 42.63168,-22.01273 c -4.954373,6.63993 -11.384693,11.59977 -17.128853,14.3866 v -5.74419 c 7.497373,-4.25264 15.476467,-12.6407 17.815013,-22.3346 l -16.0618,4.9106 v -5.67416 l 21.84236,-6.67789 v -2.03048 l 3.23196,-0.98808 v 4.78072 l -1.85684,0.56767 c -0.551733,4.4005 -1.890453,8.48986 -3.783693,12.26705 1.652387,3.7266 5.0552,5.43652 7.91188,6.00831 v 6.36308 c -5.29884,0.0713 -9.424213,-2.31115 -11.970027,-5.83463 z M 73.019628,490.4244 v -4.78072 l 3.23196,-0.98812 v 4.78072 z m 5.385667,23.53137 v -5.19243 c 2.304946,-5.31457 6.536746,-18.64562 8.219946,-25.83418 l 6.536747,-1.9985 c -2.304947,9.20191 -4.987973,17.27874 -8.049107,25.33387 l 15.442869,-4.72136 c -1.478749,-3.95052 -3.988149,-8.30855 -6.018629,-12.02039 l 6.707589,-2.05074 c 2.68304,4.78666 5.43329,10.23893 7.70462,17.17912 z m 39.811425,-22.62643 c 0,3.43922 0.10362,6.91675 0.31087,10.60067 l -5.81417,1.77759 c -0.20446,-3.37671 -0.30808,-6.92147 -0.30808,-10.49792 0,-6.3995 0.4117,-12.68124 0.96342,-18.80131 l 5.94862,-1.81868 c -0.61894,6.27785 -1.10066,12.41015 -1.10066,18.73965 z m 13.8969,5.76087 c -7.77464,2.37695 -12.17728,1.41801 -12.17728,-4.25891 0,-2.99113 1.44513,-6.2196 2.71944,-8.43241 l 6.46393,-1.97624 c -1.82043,2.69068 -3.36919,5.53633 -3.36919,7.70407 0,2.20129 2.37216,2.40308 6.43032,1.1624 3.02752,-0.92562 6.19227,-2.4085 7.91188,-3.31234 v 5.88139 c -2.13132,1.02968 -5.39969,2.44343 -7.9791,3.23204 z m -10.73215,-17.28972 v -5.70776 l 18.02507,-5.51083 v 5.70776 z m 21.17301,14.71656 v -5.84777 c 11.10743,-6.45699 17.54055,-15.85396 18.84846,-28.43111 l 6.63757,-2.02929 c -1.64959,16.77333 -10.93659,29.03969 -25.48603,36.30817 z m 31.38423,-21.29069 c -0.58533,-3.05302 -1.99687,-8.33199 -3.09752,-11.57195 l 5.60691,-1.71424 c 1.17068,2.90768 2.57941,8.11751 3.30198,11.50948 z m 2.68023,11.42509 v -5.43331 c 10.83577,-5.58414 13.96692,-11.59664 14.03413,-22.96826 v -0.61898 l 6.15865,-1.88285 v 0.68896 c -0.10361,16.33431 -7.94546,24.78405 -20.19278,30.21444 z m 5.67696,-14.221 c -0.55174,-3.09969 -1.92686,-8.31983 -2.99392,-11.60364 l 5.60693,-1.71419 c 1.17068,2.90764 2.51219,8.03723 3.23476,11.52999 z m 44.66217,-23.73136 c -6.91205,2.28405 -13.96411,8.84273 -13.96411,13.89791 0,5.50329 5.71055,4.9281 12.6926,2.79345 v 5.88139 c -0.51532,0.19116 -1.03345,0.34957 -1.54877,0.50712 -11.90003,3.63822 -17.29971,0.30388 -17.29971,-6.54094 0,-4.71354 2.47579,-8.73881 5.64055,-12.07853 l -12.48535,4.26525 v -5.74418 l 28.54714,-9.20943 v 5.70772 z"
   inkscape:connector-curvature="0"
   style="stroke-width:1.33333337" />
<g
   id="Cloud_00000045579841455209711110000010714245593795906194_"
   transform="matrix(1.3333334,0,0,1.3333334,-4.0000002e-5,2.6666668e-5)">
	<g
   id="Spectrum">
		<defs
   id="defs1145">
			<path
   id="SVGID_1_"
   d="M 426.57648,53.24633 C 422.99774,40.30022 415.86084,28.5345 405.80493,19.25835 392.34305,6.83973 374.83109,-2e-5 356.49542,-2e-5 339.05765,-2e-5 322.64749,6.07412 309.67846,17.02984 296.31027,6.9505 279.91672,1.36529 262.91028,1.36529 c -28.77754,0 -54.8259,15.86314 -68.23605,40.53691 -2.81407,-0.31034 -5.64328,-0.46649 -8.4754,-0.46649 -19.19104,0 -37.3027,6.96468 -51.36526,19.45502 -11.65253,-6.64213 -24.92752,-10.20864 -38.47528,-10.20864 -42.82399,0 -77.66396,34.83997 -77.66396,77.66347 0,15.42982 4.6166,30.38487 13.0232,43.02063 C 12.00193,185.72593 3e-5,208.71671 3e-5,234.02046 c 0,42.79225 34.78141,77.60735 77.53367,77.60735 14.4866,0 28.60674,-4.07059 40.79456,-11.62518 12.5899,8.52661 27.44588,13.12421 42.88303,13.12421 33.32191,0 62.18532,-21.45081 72.54573,-51.90936 2.82822,0.31525 5.67792,0.47333 8.53835,0.47333 13.83614,0 27.3683,-3.74069 39.1555,-10.69611 13.40625,10.12714 29.92276,15.76895 46.86966,15.76895 34.25589,0 63.8605,-22.60432 73.93301,-53.98512 5.52078,1.18086 11.17432,1.77521 16.92542,1.77521 44.56454,0 80.82108,-36.25652 80.82108,-80.82156 -1e-5,-42.07108 -32.31379,-76.73733 -73.42356,-80.48585 z"
   inkscape:connector-curvature="0" />
		</defs>
		<clipPath
   id="SVGID_00000129887150075818279240000007769365035622147486_">
			<use
   xlink:href="#SVGID_1_"
   style="overflow:visible"
   id="use1147"
   x="0"
   y="0"
   width="100%"
   height="100%" />
		</clipPath>
		
			<radialGradient
   id="SVGID_00000183243540606112913480000015110103490262785701_"
   cx="74.303833"
   cy="147.83209"
   r="223.15968"
   gradientUnits="userSpaceOnUse">
			<stop
   offset="0"
   style="stop-color:#B001FC"
   id="stop1150" />
			<stop
   offset="0.45894"
   style="stop-color:#B001FC"
   id="stop1152" />
			<stop
   offset="0.53448"
   style="stop-color:#B001FC"
   id="stop1154" />
			<stop
   offset="0.85"
   style="stop-color:#B001FC;stop-opacity:0"
   id="stop1156" />
		</radialGradient>
		
			<polygon
   style="fill:url(#SVGID_00000183243540606112913480000015110103490262785701_)"
   points="-155.01691,-290.65665 479.19125,-134.75725 301.93774,586.3208 -332.27045,430.42145 "
   clip-path="url(#SVGID_00000129887150075818279240000007769365035622147486_)"
   id="polygon1159" />
		
			<radialGradient
   id="SVGID_00000150820666553781780320000012476804478006769284_"
   cx="1259.8112"
   cy="-799.7876"
   r="192.91687"
   gradientTransform="matrix(0.04759,0.99016,-0.49508,0.0238,-331.45111,-1224.7648)"
   gradientUnits="userSpaceOnUse">
			<stop
   offset="0"
   style="stop-color:#011EFE"
   id="stop1161" />
			<stop
   offset="0.45894"
   style="stop-color:#011EFE"
   id="stop1163" />
			<stop
   offset="0.53448"
   style="stop-color:#011EFE"
   id="stop1165" />
			<stop
   offset="0.85"
   style="stop-color:#011EFE;stop-opacity:0"
   id="stop1167" />
		</radialGradient>
		
			<polygon
   style="fill:url(#SVGID_00000150820666553781780320000012476804478006769284_)"
   points="-276.37445,-326.98639 357.83371,-171.08701 180.5802,549.99109 -453.62799,394.09167 "
   clip-path="url(#SVGID_00000129887150075818279240000007769365035622147486_)"
   id="polygon1170" />
		
			<radialGradient
   id="SVGID_00000000904084741361200430000016436180560934412941_"
   cx="928.03253"
   cy="-743.57758"
   r="192.91687"
   gradientTransform="matrix(-0.36873,0.92017,-0.46008,-0.18437,201.71318,-978.67926)"
   gradientUnits="userSpaceOnUse">
			<stop
   offset="0"
   style="stop-color:#03B3F4"
   id="stop1172" />
			<stop
   offset="0.45894"
   style="stop-color:#03B3F4"
   id="stop1174" />
			<stop
   offset="0.53448"
   style="stop-color:#03B3F4"
   id="stop1176" />
			<stop
   offset="0.85"
   style="stop-color:#03B3F4;stop-opacity:0"
   id="stop1178" />
		</radialGradient>
		
			<polygon
   style="fill:url(#SVGID_00000000904084741361200430000016436180560934412941_)"
   points="-25.2997,-455.05286 486.52487,-49.39258 25.29976,532.53851 -486.52481,126.87827 "
   clip-path="url(#SVGID_00000129887150075818279240000007769365035622147486_)"
   id="polygon1181" />
		
			<radialGradient
   id="SVGID_00000163053993197515530620000003622089975085624764_"
   cx="742.27039"
   cy="-669.34052"
   r="192.91687"
   gradientTransform="matrix(-0.36873,0.92017,-0.46008,-0.18437,110.66424,-604.03479)"
   gradientUnits="userSpaceOnUse">
			<stop
   offset="0"
   style="stop-color:#03B3F4"
   id="stop1183" />
			<stop
   offset="0.45894"
   style="stop-color:#03B3F4"
   id="stop1185" />
			<stop
   offset="0.53448"
   style="stop-color:#03B3F4"
   id="stop1187" />
			<stop
   offset="0.85"
   style="stop-color:#03B3F4;stop-opacity:0"
   id="stop1189" />
		</radialGradient>
		
			<polygon
   style="fill:url(#SVGID_00000163053993197515530620000003622089975085624764_)"
   points="-82.007,-265.02753 429.81757,140.63274 -31.40753,722.56384 -543.23212,316.90359 "
   clip-path="url(#SVGID_00000129887150075818279240000007769365035622147486_)"
   id="polygon1192" />
		
			<radialGradient
   id="SVGID_00000009563348701714973230000006251374136789801640_"
   cx="812.9892"
   cy="-605.52356"
   r="192.91687"
   gradientTransform="matrix(-0.36873,0.92017,-0.46008,-0.18437,259.22409,-672.98773)"
   gradientUnits="userSpaceOnUse">
			<stop
   offset="0"
   style="stop-color:#2BE606"
   id="stop1194" />
			<stop
   offset="0.45894"
   style="stop-color:#2BE606"
   id="stop1196" />
			<stop
   offset="0.53448"
   style="stop-color:#2BE606"
   id="stop1198" />
			<stop
   offset="0.85"
   style="stop-color:#2BE606;stop-opacity:0"
   id="stop1200" />
		</radialGradient>
		
			<polygon
   style="fill:url(#SVGID_00000009563348701714973230000006251374136789801640_)"
   points="11.11525,-280.6731 522.93982,124.98717 61.71472,706.91827 -450.10983,301.25803 "
   clip-path="url(#SVGID_00000129887150075818279240000007769365035622147486_)"
   id="polygon1203" />
		
			<radialGradient
   id="SVGID_00000037688308532206909540000016479873649495330234_"
   cx="1841.8237"
   cy="-200.77335"
   r="192.91687"
   gradientTransform="matrix(0.5365,0.83357,-0.41678,0.26825,-797.0434,-1458.2273)"
   gradientUnits="userSpaceOnUse">
			<stop
   offset="0"
   style="stop-color:#2BE606"
   id="stop1205" />
			<stop
   offset="0.45894"
   style="stop-color:#2BE606"
   id="stop1207" />
			<stop
   offset="0.53448"
   style="stop-color:#2BE606"
   id="stop1209" />
			<stop
   offset="0.85"
   style="stop-color:#2BE606;stop-opacity:0"
   id="stop1211" />
		</radialGradient>
		
			<polygon
   style="fill:url(#SVGID_00000037688308532206909540000016479873649495330234_)"
   points="-237.67491,-62.55774 389.46921,-244.80721 596.68207,468.23926 -30.46205,650.48871 "
   clip-path="url(#SVGID_00000129887150075818279240000007769365035622147486_)"
   id="polygon1214" />
		
			<radialGradient
   id="SVGID_00000013910710931058477420000001467363807091174569_"
   cx="1581.5311"
   cy="-238.85739"
   r="192.91687"
   gradientTransform="matrix(0.56432,0.82549,-0.46355,0.28184,-723.66132,-947.69281)"
   gradientUnits="userSpaceOnUse">
			<stop
   offset="0"
   style="stop-color:#F8FD00"
   id="stop1216" />
			<stop
   offset="0.45894"
   style="stop-color:#F8FD00"
   id="stop1218" />
			<stop
   offset="0.53448"
   style="stop-color:#F8FD00"
   id="stop1220" />
			<stop
   offset="0.85"
   style="stop-color:#F8FD00;stop-opacity:0"
   id="stop1222" />
		</radialGradient>
		
			<polygon
   style="fill:url(#SVGID_00000013910710931058477420000001467363807091174569_)"
   points="-278.99136,218.15112 412.43628,17.22073 619.64917,730.26715 -71.7785,931.19757 "
   clip-path="url(#SVGID_00000129887150075818279240000007769365035622147486_)"
   id="polygon1225" />
		
			<radialGradient
   id="SVGID_00000031206672113365921130000005175519709461160350_"
   cx="848.37256"
   cy="-116.72427"
   r="126.35968"
   gradientTransform="matrix(-0.28273,0.95013,-0.47506,-0.14136,518.48956,-689.99786)"
   gradientUnits="userSpaceOnUse">
			<stop
   offset="0"
   style="stop-color:#A4F402"
   id="stop1227" />
			<stop
   offset="0.45894"
   style="stop-color:#A4F402"
   id="stop1229" />
			<stop
   offset="0.53448"
   style="stop-color:#A4F402"
   id="stop1231" />
			<stop
   offset="0.85"
   style="stop-color:#A4F402;stop-opacity:0"
   id="stop1233" />
		</radialGradient>
		
			<polygon
   style="fill:url(#SVGID_00000031206672113365921130000005175519709461160350_)"
   points="157.97835,-158.65518 516.19208,75.16129 250.34891,482.44092 -107.86485,248.62447 "
   clip-path="url(#SVGID_00000129887150075818279240000007769365035622147486_)"
   id="polygon1236" />
		
			<radialGradient
   id="SVGID_00000181788227048186035660000006917409382220139954_"
   cx="1027.8206"
   cy="-534.18018"
   r="192.91687"
   gradientTransform="matrix(-0.28273,0.95013,-0.47506,-0.14136,413.15961,-844.49103)"
   gradientUnits="userSpaceOnUse">
			<stop
   offset="0"
   style="stop-color:#F8FD00"
   id="stop1238" />
			<stop
   offset="0.45894"
   style="stop-color:#F8FD00"
   id="stop1240" />
			<stop
   offset="0.53448"
   style="stop-color:#F8FD00"
   id="stop1242" />
			<stop
   offset="0.85"
   style="stop-color:#F8FD00;stop-opacity:0"
   id="stop1244" />
		</radialGradient>
		
			<polygon
   style="fill:url(#SVGID_00000181788227048186035660000006917409382220139954_)"
   points="107.47225,-237.02995 654.36719,119.9442 248.49695,741.74945 -298.39801,384.7753 "
   clip-path="url(#SVGID_00000129887150075818279240000007769365035622147486_)"
   id="polygon1247" />
		
			<radialGradient
   id="SVGID_00000176030170910617939800000014861287641368269975_"
   cx="1163.4064"
   cy="-578.7644"
   r="192.91687"
   gradientTransform="matrix(-0.28273,0.95013,-0.47506,-0.14136,466.76889,-1116.3262)"
   gradientUnits="userSpaceOnUse">
			<stop
   offset="0"
   style="stop-color:#F8FD00"
   id="stop1249" />
			<stop
   offset="0.45894"
   style="stop-color:#F8FD00"
   id="stop1251" />
			<stop
   offset="0.53448"
   style="stop-color:#F8FD00"
   id="stop1253" />
			<stop
   offset="0.85"
   style="stop-color:#F8FD00;stop-opacity:0"
   id="stop1255" />
		</radialGradient>
		
			<polygon
   style="fill:url(#SVGID_00000176030170910617939800000014861287641368269975_)"
   points="143.92795,-373.7388 690.82288,-16.76466 284.95264,605.04059 -261.94229,248.06642 "
   clip-path="url(#SVGID_00000129887150075818279240000007769365035622147486_)"
   id="polygon1258" />
		
			<radialGradient
   id="SVGID_00000132088315118512420580000010683907950141663654_"
   cx="1879.9149"
   cy="1126.5507"
   r="118.7943"
   gradientTransform="matrix(0.87176,-0.47192,0.23596,0.43588,-1546.2351,407.00586)"
   gradientUnits="userSpaceOnUse">
			<stop
   offset="0"
   style="stop-color:#F8FD00"
   id="stop1260" />
			<stop
   offset="0.45894"
   style="stop-color:#F8FD00"
   id="stop1262" />
			<stop
   offset="0.53448"
   style="stop-color:#F8FD00"
   id="stop1264" />
			<stop
   offset="0.85"
   style="stop-color:#F8FD00;stop-opacity:0"
   id="stop1266" />
		</radialGradient>
		
			<polygon
   style="fill:url(#SVGID_00000132088315118512420580000010683907950141663654_)"
   points="281.89487,321.5361 199.19916,-72.0284 646.67169,-166.05125 729.36737,227.51326 "
   clip-path="url(#SVGID_00000129887150075818279240000007769365035622147486_)"
   id="polygon1269" />
		
			<radialGradient
   id="SVGID_00000029733157719224846140000010924209989660917693_"
   cx="1045.135"
   cy="-185.35718"
   r="139.93042"
   gradientTransform="matrix(0.14319,0.9809,-0.49045,0.0716,-58.0193,-678.27185)"
   gradientUnits="userSpaceOnUse">
			<stop
   offset="0"
   style="stop-color:#A4F402"
   id="stop1271" />
			<stop
   offset="0.45894"
   style="stop-color:#A4F402"
   id="stop1273" />
			<stop
   offset="0.53448"
   style="stop-color:#A4F402"
   id="stop1275" />
			<stop
   offset="0.85"
   style="stop-color:#A4F402;stop-opacity:0"
   id="stop1277" />
		</radialGradient>
		
			<polygon
   style="fill:url(#SVGID_00000029733157719224846140000010924209989660917693_)"
   points="-130.04106,123.09839 338.76007,191.12903 261.41104,724.14362 -207.39011,656.11298 "
   clip-path="url(#SVGID_00000129887150075818279240000007769365035622147486_)"
   id="polygon1280" />
		
			<radialGradient
   id="SVGID_00000048465986374404680170000010346764733978905985_"
   cx="63.859291"
   cy="-450.38858"
   r="198.09557"
   gradientTransform="matrix(-0.87176,0.47192,-0.23596,-0.43588,-63.52587,66.605)"
   gradientUnits="userSpaceOnUse">
			<stop
   offset="0"
   style="stop-color:#03B3F4"
   id="stop1282" />
			<stop
   offset="0.45894"
   style="stop-color:#03B3F4"
   id="stop1284" />
			<stop
   offset="0.53448"
   style="stop-color:#03B3F4"
   id="stop1286" />
			<stop
   offset="0.85"
   style="stop-color:#03B3F4;stop-opacity:0"
   id="stop1288" />
		</radialGradient>
		
			<polygon
   style="fill:url(#SVGID_00000048465986374404680170000010346764733978905985_)"
   points="114.68698,-224.98894 252.58629,431.30002 -493.59705,588.08789 -631.49634,-68.20103 "
   clip-path="url(#SVGID_00000129887150075818279240000007769365035622147486_)"
   id="polygon1291" />
		
			<radialGradient
   id="SVGID_00000053512977061454327420000001202993663476768409_"
   cx="78.418823"
   cy="-452.37677"
   r="128.22812"
   gradientTransform="matrix(-0.95462,0.26716,-0.13358,-0.47731,24.99977,-51.63981)"
   gradientUnits="userSpaceOnUse">
			<stop
   offset="0"
   style="stop-color:#011EFE"
   id="stop1293" />
			<stop
   offset="0.45894"
   style="stop-color:#011EFE"
   id="stop1295" />
			<stop
   offset="0.53448"
   style="stop-color:#011EFE"
   id="stop1297" />
			<stop
   offset="0.85"
   style="stop-color:#011EFE;stop-opacity:0"
   id="stop1299" />
		</radialGradient>
		
			<polygon
   style="fill:url(#SVGID_00000053512977061454327420000001202993663476768409_)"
   points="165.37668,-123.48128 158.34827,310.55719 -335.14209,302.56607 -328.11368,-131.4724 "
   clip-path="url(#SVGID_00000129887150075818279240000007769365035622147486_)"
   id="polygon1302" />
		
			<radialGradient
   id="SVGID_00000051359356531806157820000009038742043133011124_"
   cx="515.65112"
   cy="-607.5672"
   r="192.91687"
   gradientTransform="matrix(-0.42948,0.89343,-0.44672,-0.21474,27.17856,-226.82903)"
   gradientUnits="userSpaceOnUse">
			<stop
   offset="0"
   style="stop-color:#2BE606"
   id="stop1304" />
			<stop
   offset="0.45894"
   style="stop-color:#2BE606"
   id="stop1306" />
			<stop
   offset="0.53448"
   style="stop-color:#2BE606"
   id="stop1308" />
			<stop
   offset="0.85"
   style="stop-color:#2BE606;stop-opacity:0"
   id="stop1310" />
		</radialGradient>
		
			<polygon
   style="fill:url(#SVGID_00000051359356531806157820000009038742043133011124_)"
   points="-118.01218,-117.20862 365.51923,321.79251 -133.61356,871.55505 -617.14496,432.55392 "
   clip-path="url(#SVGID_00000129887150075818279240000007769365035622147486_)"
   id="polygon1313" />
		
			<radialGradient
   id="SVGID_00000145017675819194377620000010510580634015101833_"
   cx="840.66467"
   cy="-310.50317"
   r="126.35968"
   gradientTransform="matrix(-0.47206,0.87168,-0.43584,-0.23603,597.02795,-822.17218)"
   gradientUnits="userSpaceOnUse">
			<stop
   offset="0"
   style="stop-color:#A4F402"
   id="stop1315" />
			<stop
   offset="0.45894"
   style="stop-color:#A4F402"
   id="stop1317" />
			<stop
   offset="0.53448"
   style="stop-color:#A4F402"
   id="stop1319" />
			<stop
   offset="0.85"
   style="stop-color:#A4F402;stop-opacity:0"
   id="stop1321" />
		</radialGradient>
		
			<polygon
   style="fill:url(#SVGID_00000145017675819194377620000010510580634015101833_)"
   points="223.0567,-337.2973 525.53583,-34.81818 181.62498,309.09265 -120.85413,6.61354 "
   clip-path="url(#SVGID_00000129887150075818279240000007769365035622147486_)"
   id="polygon1324" />
		
			<radialGradient
   id="SVGID_00000052825586649281051460000008146919700903663259_"
   cx="1001.6992"
   cy="-482.17325"
   r="192.91687"
   gradientTransform="matrix(-0.28273,0.95013,-0.47506,-0.14136,459.49896,-762.45764)"
   gradientUnits="userSpaceOnUse">
			<stop
   offset="0"
   style="stop-color:#FC6510"
   id="stop1326" />
			<stop
   offset="0.45894"
   style="stop-color:#FC6510"
   id="stop1328" />
			<stop
   offset="0.53448"
   style="stop-color:#FC6510"
   id="stop1330" />
			<stop
   offset="0.85"
   style="stop-color:#FC6510;stop-opacity:0"
   id="stop1332" />
		</radialGradient>
		
			<polygon
   style="fill:url(#SVGID_00000052825586649281051460000008146919700903663259_)"
   points="136.49028,-187.16698 683.38525,169.80717 277.51498,791.61243 -269.37997,434.63824 "
   clip-path="url(#SVGID_00000129887150075818279240000007769365035622147486_)"
   id="polygon1335" />
		
			<radialGradient
   id="SVGID_00000008113340820344076160000007841661312019578501_"
   cx="757.10394"
   cy="-314.12067"
   r="192.91687"
   gradientTransform="matrix(-0.77477,0.61838,-0.30919,-0.38739,989.7627,-531.8476)"
   gradientUnits="userSpaceOnUse">
			<stop
   offset="0"
   style="stop-color:#FC6510"
   id="stop1337" />
			<stop
   offset="0.45894"
   style="stop-color:#FC6510"
   id="stop1339" />
			<stop
   offset="0.53448"
   style="stop-color:#FC6510"
   id="stop1341" />
			<stop
   offset="0.85"
   style="stop-color:#FC6510;stop-opacity:0"
   id="stop1343" />
		</radialGradient>
		
			<polygon
   style="fill:url(#SVGID_00000008113340820344076160000007841661312019578501_)"
   points="533.57489,-460.49667 778.57257,144.89638 90.25655,423.45236 -154.74117,-181.94069 "
   clip-path="url(#SVGID_00000129887150075818279240000007769365035622147486_)"
   id="polygon1346" />
		
			<radialGradient
   id="SVGID_00000103230876292318538270000014017417503155579576_"
   cx="1145.827"
   cy="-464.30511"
   r="108.07879"
   gradientTransform="matrix(-0.28273,0.95013,-0.47506,-0.14136,601.6629,-1006.8319)"
   gradientUnits="userSpaceOnUse">
			<stop
   offset="0"
   style="stop-color:#FD1E18"
   id="stop1348" />
			<stop
   offset="0.45894"
   style="stop-color:#FD1E18"
   id="stop1350" />
			<stop
   offset="0.53448"
   style="stop-color:#FD1E18"
   id="stop1352" />
			<stop
   offset="0.85"
   style="stop-color:#FD1E18;stop-opacity:0"
   id="stop1354" />
		</radialGradient>
		
			<polygon
   style="fill:url(#SVGID_00000103230876292318538270000014017417503155579576_)"
   points="347.65338,-101.60305 654.04309,98.38637 426.66037,446.74344 120.27066,246.75401 "
   clip-path="url(#SVGID_00000129887150075818279240000007769365035622147486_)"
   id="polygon1357" />
	</g>
	<path
   id="White_00000128484019346817156390000004694583083588654263_"
   class="st19"
   d="M 419.78107,61.33625 C 417.33933,47.60404 410.47565,35.02683 400.09378,25.44961 388.19241,14.46999 372.7084,8.42317 356.49539,8.42317 c -17.80179,0 -34.38956,7.15693 -46.48517,19.85418 C 297.26077,16.45404 280.4505,9.78848 262.91025,9.78848 c -27.63718,0 -52.45148,16.41063 -63.3989,41.3684 -4.39018,-0.86272 -8.84772,-1.29798 -13.31256,-1.29798 -19.21446,0 -37.21585,7.83471 -50.25369,21.68599 -11.56176,-8.05722 -25.40669,-12.4396 -39.58685,-12.4396 -38.17957,0 -69.24076,31.06119 -69.24076,69.24028 0,16.66437 6.04047,32.70805 16.81271,45.20816 -21.82896,12.09169 -35.50701,34.96098 -35.50701,60.46674 0,38.14882 31.00264,69.18416 69.11047,69.18416 14.79792,0 29.16497,-4.76447 41.00487,-13.51166 12.08437,9.7153 27.0438,15.01068 42.67272,15.01068 32.08493,0 59.52448,-22.3389 66.495,-53.0024 4.78496,1.04132 9.66847,1.56636 14.58908,1.56636 14.27531,0 28.18611,-4.46973 39.73909,-12.68211 12.71725,11.48856 28.9527,17.75496 46.28607,17.75496 33.31314,0 61.69202,-23.9794 67.91547,-55.92917 7.36627,2.47104 15.05264,3.71924 22.94296,3.71924 39.92014,0 72.39789,-32.47774 72.39789,-72.39836 0,-39.72105 -32.14984,-72.07289 -71.79574,-72.39592 z"
   inkscape:connector-curvature="0"
   style="fill:#ffffff" />
	<path
   id="Black_00000111880008484569671510000013227132437327541894_"
   d="m 419.17868,67.48298 c -1.60342,0 -3.18784,0.07716 -4.76273,0.18915 -2.52216,-29.74162 -27.48175,-53.09985 -57.92032,-53.09985 -18.83261,0 -35.56482,8.94744 -46.19104,22.80897 -11.5592,-13.13898 -28.50037,-21.44341 -47.39441,-21.44341 -27.63174,0 -51.09665,17.74539 -59.62451,42.43649 -5.43576,-1.53 -11.16212,-2.36625 -17.08713,-2.36625 -20.02582,0 -37.85417,9.36099 -49.38536,23.93335 -10.95303,-9.16416 -25.05701,-14.68697 -40.45512,-14.68697 -34.84436,0 -63.09129,28.24699 -63.09129,63.09135 0,18.71155 8.15286,35.51244 21.09159,47.06639 -23.2998,9.2437 -39.78606,31.99069 -39.78606,58.60777 0,34.81367 28.1888,63.03566 62.96143,63.03566 15.74548,0 30.129,-5.80011 41.1687,-15.36505 11.10764,10.44968 26.05483,16.86407 42.50871,16.86407 31.73201,0 57.88419,-23.81863 61.59727,-54.54916 6.13214,2.0101 12.67839,3.11295 19.48692,3.11295 15.33083,0 29.35826,-5.52452 40.20729,-14.66849 11.49442,12.14883 27.76379,19.74139 45.81812,19.74139 33.28021,0 60.51871,-25.76332 62.86871,-58.41209 8.50421,3.9709 17.98431,6.20174 27.98923,6.20174 36.58835,0 66.24908,-29.66074 66.24908,-66.24901 0,-36.58833 -29.66073,-66.249 -66.24908,-66.249 z"
   inkscape:connector-curvature="0" />
</g>
<g
   id="みんなのリズム天国_00000166658448422767501640000006262920370070636427_"
   transform="matrix(1.3333334,0,0,1.3333334,-4.0000002e-5,2.6666668e-5)">
	<path
   id="国_00000133494443838726646270000010576822202758522293_"
   class="st20"
   d="m 434.55307,152.11427 -26.41989,8.07732 v -4.85262 l 4.66412,-1.42593 c 1.905,-0.58246 3.03381,-2.10097 3.03387,-4.61368 v -8.8326 l -7.698,2.35355 v -5.24347 l 7.698,-2.35356 v -9.04443 c 0,-1.04957 -0.63181,-2.46264 -3.53897,-1.57387 l -4.15903,1.27154 6e-5,-4.88493 26.41983,-8.07732 v 4.88493 l -4.61252,1.41013 c -1.97098,0.60264 -3.08539,2.07185 -3.08545,4.61864 v 8.02496 l 7.69797,-2.35349 v 5.24329 l -7.69797,2.35368 v 9.85207 c 0,1.55089 1.19122,2.30243 3.59048,1.56897 l 4.10748,-1.25587 v 4.85269 z m -6e-5,-8.13315 v -5.95775 l -4.22198,1.2908 v 5.95769 z M 456.5202,94.99055 v 62.27065 l -70.3541,21.50935 v -62.27064 z m -14.99389,12.69322 -37.18274,11.36797 c -1.99933,0.60466 -3.19095,2.35695 -3.19061,4.65031 v 42.39735 l 37.1828,-11.36795 c 1.84943,-0.55446 3.19055,-2.19472 3.19055,-4.65031 z"
   inkscape:connector-curvature="0"
   style="fill:#eb6100" />
	<path
   id="く_00000168833893859856057620000002673583114839367303_"
   class="st20"
   d="m 436.70538,94.97954 c -2.03122,-1.20026 -3.02835,-1.53265 -5.70587,-2.45592 -0.55399,-0.20312 -1.23721,-0.57243 -1.23721,-1.23721 0,-0.64629 0.66476,-1.53265 1.4588,-2.49286 3.13916,-3.78546 3.19458,-3.89625 3.9332,-4.93034 l 1.27414,0.5909 c -1.73578,2.19742 -2.04968,2.5298 -4.67181,5.52123 -0.25854,0.27699 -0.42474,0.53551 -0.42474,0.75709 0,0.33238 0.55399,0.49857 0.88638,0.5909 1.6619,0.4801 4.50562,1.53265 5.63202,2.23434 z"
   inkscape:connector-curvature="0"
   style="fill:#eb6100" />
	<path
   id="ご_00000013884291173660531400000008945276148562044848_"
   class="st20"
   d="m 411.81369,96.05054 c -0.40625,-0.68323 -0.6463,-1.01561 -1.1264,-1.51418 l 0.83096,-0.77556 c 0.4801,0.44318 0.86786,1.01561 1.12637,1.49571 z m 1.68036,-1.44031 c -0.51706,-0.92329 -0.86786,-1.31106 -1.05252,-1.51419 l 0.77554,-0.73862 c 0.51703,0.53551 0.88635,1.14487 1.08948,1.47725 z m -2.21588,-2.60367 v 1.27414 c -1.4957,0.73862 -2.56671,1.60651 -3.93317,2.9545 l -0.84943,-0.66476 c 0.38779,-0.40625 0.46164,-0.4801 1.23721,-1.10794 l -0.0185,-0.01846 c -1.60654,0.51704 -3.24997,1.03407 -4.21017,1.38493 v -1.45879 c 0.35086,-0.09233 1.82809,-0.53551 2.43747,-0.72017 z m -5.909,6.64764 c -1.01559,1.36646 -1.05255,2.34514 -1.05255,2.58519 0,1.68037 2.28976,1.01561 4.06247,0.4801 1.16333,-0.35085 2.34512,-0.75709 3.48999,-1.29259 l 0.0369,1.44032 c -0.40622,0.20312 -1.23718,0.55397 -3.08374,1.1264 -2.34515,0.70169 -3.36075,0.90482 -4.37637,0.68324 -0.83096,-0.18466 -1.4588,-0.97868 -1.4588,-1.99429 0,-1.20026 0.53552,-2.16048 1.40338,-3.50848 z"
   inkscape:connector-curvature="0"
   style="fill:#eb6100" />
	<path
   d="m 456.77667,250.724 v -9.26 l 34.84934,-10.65466 V 216.308 l -34.84934,10.65467 V 213.976 l 34.84934,-10.65333 V 188.856 L 397.498,217.63334 V 232.1 l 34.28134,-10.48133 v 12.98667 l -34.28134,10.48 v 14.50133 l 34.28134,-10.48 v 5.36267 c 0,17.172 -9.24933,24.12 -23.296,28.424 l -10.98534,3.35867 v 14.53466 l 23.92534,-7.31466 c 18.37867,-5.60934 24.85733,-12.12267 32.14,-29.508 3.99733,1.58933 14.852,8.74533 19.256,13.79466 l 24.74667,-7.56533 c -7.404,-8.17067 -33.732,-18.08667 -40.78934,-19.46934"
   style="fill:#fdd000;fill-opacity:1;fill-rule:nonzero;stroke:none;stroke-width:1.33333"
   id="path44"
   inkscape:label="天_00000005237355440453472460000013932763787894604442_"
   transform="matrix(0.74999996,0,0,0.74999996,3e-5,-2e-5)" />
	<path
   id="ん_00000174591435929779619380000006293089445353163689_"
   class="st21"
   d="m 345.91946,131.73756 c -0.25861,0.86818 -1.36691,4.54407 -1.5701,5.30142 l 0.0185,0.0185 c 0.24014,-0.27708 0.70193,-0.77583 1.51468,-1.03442 1.88416,-0.55415 1.95804,1.32997 1.95804,2.3644 v 0.55415 c 0,0.38791 0,1.55165 1.01593,1.25609 1.14526,-0.33249 1.62555,-2.12427 1.8472,-4.48866 l 1.2561,0.0369 c -0.31403,2.93704 -0.97903,5.2645 -3.21411,5.92947 -2.21664,0.66498 -2.23511,-1.57011 -2.23511,-2.29051 v -0.44333 c 0,-0.83124 0.0185,-1.68094 -0.88666,-1.40387 -1.18219,0.35097 -1.90259,1.75484 -2.32745,3.14023 -0.11081,0.48026 -0.5726,2.53064 -0.68344,2.95549 l -1.36694,-0.0185 c 0.70193,-2.45676 2.38287,-8.7372 3.17719,-11.71118 z"
   inkscape:connector-curvature="0"
   style="fill:#fdd000" />
	<path
   id="て_00000072263634340734498510000017431420674937242021_"
   class="st21"
   d="m 325.67429,138.11037 v 1.45927 c -0.31403,0.0554 -0.60959,0.11082 -1.20068,0.29555 -2.01343,0.59109 -5.28296,3.93451 -5.30142,6.52057 -0.0185,1.45929 1.21915,1.55165 2.05038,1.53317 0.73886,-0.0185 1.81024,-0.18472 3.28796,-0.62805 l -0.18469,1.60706 c -1.20068,0.31403 -2.58609,0.60957 -3.74982,0.55415 -1.29303,-0.0369 -2.78925,-0.59111 -2.78925,-2.5676 0.0185,-1.07137 0.46182,-3.3434 3.32495,-5.98489 l -0.0185,-0.0185 c -2.62302,0.86818 -2.93704,0.96054 -5.6524,1.9026 v -1.47775 c 0.48029,-0.1293 3.87909,-1.20067 5.28296,-1.64401 z"
   inkscape:connector-curvature="0"
   style="fill:#fdd000" />
	<path
   id="ム_00000110450195062413549250000002490538445257389753_"
   class="st20"
   d="m 280.21643,190.83521 -2.74051,0.83789 c -1.79343,0.55336 -3.76736,0.0198 -5.12976,-1.99298 l -6.2522,-9.23813 -18.16985,5.55504 8.22627,12.19592 -22.41063,6.85167 13.56371,-44.36469 c 0.59265,-1.93878 1.64717,-3.15398 3.09196,-3.6067 l 4.55971,-1.394 v -7.379 l -22.3808,6.84251 -16.10501,52.67731 c -0.62384,2.04033 -1.83015,3.06427 -3.11407,3.45668 l -2.77463,0.84834 v 10.66675 l 75.60065,-23.11343 z"
   inkscape:connector-curvature="0"
   style="fill:#eb6100" />
	<path
   d="m 236.74867,315.00604 c 9.208,-14.60133 10.51333,-23.78933 11.81467,-33.90933 0.45466,-3.66134 2.19733,-5.55467 4.168,-6.15734 l 3.664,-1.12 v -13.65466 l -85.74934,26.216 v 14.46666 l 53.70134,-16.42 C 223.11,303.51271 216.262,329.05404 186.198,338.24471 l -15.552,4.75466 v 14.284 l 15.89734,-4.86133 c 20.57733,-6.29067 30.512,-12.33467 42.648,-27.27733 3.132,1.52133 7.27333,5.248 9.62,11.29733 l 24.2,-7.39867 C 259.606,324.86071 245.138,316.11271 236.74867,315.00604 m 6.29733,-54.592 c 3.45734,-1.07467 5.31067,-4.67333 4.30267,-8.06533 -1.07467,-3.39067 -4.67467,-5.31067 -8.06667,-4.30267 -3.45733,1.00933 -5.31066,4.67467 -4.30133,8.06667 1.07333,3.39066 4.67333,5.30933 8.06533,4.30133 m 7.09467,-8.93733 c -1.008,-3.39067 0.84533,-6.99067 4.30267,-8.06533 3.39066,-1.07467 7.05733,0.844 8.06533,4.30266 1.07467,3.39067 -0.844,6.98933 -4.30267,8.06533 -3.39066,1.008 -6.98933,-0.84533 -8.06533,-4.30266"
   style="fill:#fdd000;fill-opacity:1;fill-rule:nonzero;stroke:none;stroke-width:1.33333"
   id="path60"
   inkscape:label="ズ_00000084506905923060591360000004533174317475826053_"
   transform="matrix(0.74999996,0,0,0.74999996,3e-5,-2e-5)" />
	<path
   id="リ_00000060734512281596323200000005190367318891855794_"
   class="st20"
   d="m 113.14416,191.31236 v 7.96777 l -1.9524,0.59695 c -2.25116,0.68823 -3.01829,2.28561 -3.01823,4.53967 v 32.60881 c 0,10.67091 -5.7316,18.85849 -14.71785,21.57425 L 49.06587,272.1713 v -10.71942 l 31.7435,-9.70499 c 6.0979,-1.87283 8.95205,-7.1718 8.95205,-14.37608 v -28.30103 c 0,-1.49716 -1.16777,-2.28377 -3.56531,-1.55078 l -1.59226,0.4868 v -7.96777 z m -44.2772,44.17273 -1.51823,0.46413 c -2.39397,0.73199 -3.56734,-0.0633 -3.56734,-1.56915 v -16.37964 c 0,-2.20091 0.79974,-3.87306 3.0263,-4.55377 l 2.05928,-0.62962 v -7.96777 l -25.07756,7.66699 v 7.96733 l 1.52292,-0.4651 c 2.40105,-0.7341 3.56272,0.0581 3.56272,1.55466 v 16.37946 c 0,2.22176 -0.80103,3.88953 -3.02168,4.56839 l -2.06397,0.63104 v 7.95192 l 25.07756,-7.66698 z"
   inkscape:connector-curvature="0"
   style="fill:#eb6100" />
	<path
   id="の_00000004534993782874105430000000625821730668648846_"
   class="st20"
   d="M 374.87949,37.9336 325.69766,52.97 c -4.88928,1.49468 -7.73703,7.78548 -7.73703,15.52788 v 34.49563 l 15.45001,8.07807 18.54019,-5.66832 c 4.99118,-1.52594 7.81418,-7.72601 7.83795,-15.22803 l 3e-5,-36.93064 8.43079,-2.57755 c 2.38754,-0.72995 3.6745,0.07851 3.67969,1.5789 v 27.88671 c -3e-5,8.94666 -0.72662,11.13441 -6.23105,12.81728 l -3e-5,7.55996 c 6.19058,-0.66916 12.07498,-3.23785 14.46695,-4.74564 3.38867,-2.16088 6.53271,-7.95299 6.53113,-17.62458 V 44.1198 Z m -29.98676,55.3255 c 0,2.64591 -0.55627,3.91144 -2.05872,4.37006 l -10.05179,3.07314 3e-5,-35.50082 c -3e-5,-2.78024 1.54285,-4.17188 2.9805,-4.61031 l 9.12997,-2.79241 V 93.2591 Z"
   inkscape:connector-curvature="0"
   style="fill:#eb6100" />
	<path
   id="な_00000024001973342302690540000015165697830773702276_"
   class="st21"
   d="m 245.32704,71.29908 v 36.75365 l -18.1053,5.53535 v -6.61082 l 1.53197,-0.46838 c 2.21442,-0.67701 2.90921,-2.3457 2.90921,-4.54142 V 75.47662 l -11.68843,3.57351 V 68.47006 l 11.68843,-3.57352 v -9.37911 l 13.66412,-4.17754 v 9.37912 l 20.07228,-6.13671 v 10.58008 z m 41.37825,7.27928 12.51752,-3.82699 V 85.5137 l -12.51752,3.82699 v 14.76996 c 0,7.01147 -2.81781,11.77219 -6.54962,12.91374 l -20.19629,6.17462 -8.86668,-4.66029 1.5e-4,-17.97725 c -1.5e-4,-6.76363 2.60063,-11.89039 6.64482,-13.12682 l 15.53949,-4.7509 V 62.72309 l 21.79865,-6.66452 v 10.45197 l -5.45126,1.66665 c -2.1951,0.67108 -2.91925,2.25275 -2.91922,4.51699 z m -13.42807,14.86771 -6.62186,2.02452 c -1.25583,0.38392 -2.98383,1.59991 -2.98386,4.05397 l -3e-5,11.76926 6.52161,-1.99385 c 1.85565,-0.56737 3.08405,-2.04629 3.08408,-4.30002 z"
   inkscape:connector-curvature="0"
   style="fill:#fdd000" />
	<path
   id="ん_00000127735088838196074080000011849244187194823333_"
   class="st20"
   d="m 211.27431,129.37526 -5e-5,2.61772 c 5e-5,2.23512 -0.85646,3.85306 -3.09286,4.53683 l -8.68697,2.65584 3e-5,-23.82561 -23.56613,7.2049 6.87271,-22.46986 c 0.74248,-2.25272 1.80659,-3.20023 3.0024,-3.56582 l 4.78328,-1.46239 -2e-5,-6.96939 -21.90999,6.69855 -17.70341,58.41505 c -0.89201,2.40324 -1.89554,3.18593 -2.9864,3.51941 l -3.01347,0.92131 v 10.63118 l 18.77957,-5.74147 8.7119,-28.60837 12.18268,-3.72462 v 25.94487 l 31.92912,-9.7617 v -18.63753 z"
   inkscape:connector-curvature="0"
   style="fill:#eb6100" />
	<path
   id="み_00000048465092373027668350000008182873071909603990_"
   class="st21"
   d="m 112.14185,101.05607 v 18.25915 l -11.0012,3.3634 V 91.45715 l -33.03371,10.09942 -5e-5,10.51371 14.60381,-4.46484 c 2.39204,-0.73118 3.64075,-0.12836 3.64075,1.46589 v 18.1288 l -15.97336,4.88355 c -4.94888,1.51302 -8.05075,7.04228 -8.05075,15.31189 v 13.15762 l 14.02916,7.35728 16.542,-5.05739 c 4.94876,-1.5136 8.23381,-6.89613 8.24215,-15.16335 v -14.53197 l 11.0012,-3.3634 v 27.17542 l 15.03736,-4.59738 v -27.17542 l 6.70143,-2.04884 -3e-5,-10.58955 -6.70143,2.15923 v -9.66321 c 2e-5,-2.22596 0.82173,-3.86408 2.97044,-4.52102 l 0.94942,-0.29026 v -4.98309 z m -25.79042,49.58727 c 5e-5,2.6718 -1.33671,4.0233 -3.03945,4.54384 l -7.03735,2.15158 v -12.84601 c -5e-5,-2.97726 1.58409,-4.21698 3.18524,-4.7065 l 6.89156,-2.10696 z"
   inkscape:connector-curvature="0"
   style="fill:#fdd000" />
</g>
<path
   id="_x2122__00000009568546657628522450000017382203832955165074_"
   d="m 628.82769,305.17337 v -13.49586 l -5.67684,1.7356 v -2.9001 l 15.01551,-4.59068 v 2.90008 l -5.47226,1.67304 v 13.49582 z m 25.47924,-7.78978 v -13.70436 l -3.44703,14.75822 -3.73344,1.14141 -3.36514,-12.67552 v 13.70435 l -3.52886,1.07888 v -16.40542 l 5.51319,-1.68554 3.32425,11.99617 0.0409,-0.0125 3.24242,-14.00383 5.44162,-1.66365 v 16.40541 z"
   inkscape:connector-curvature="0"
   style="stroke-width:1.33333337" />
</svg>
