<?xml version="1.0" encoding="UTF-8" standalone="no"?>
<!-- Created with Inkscape (http://www.inkscape.org/) -->

<svg
   version="1.1"
   id="svg2"
   width="666.66669"
   height="378.35468"
   viewBox="0 0 666.66669 378.35468"
   sodipodi:docname="Minna no Rhythm Tengoku (みんなのリズム天国) Logo (Wordmark).ai"
   xmlns:inkscape="http://www.inkscape.org/namespaces/inkscape"
   xmlns:sodipodi="http://sodipodi.sourceforge.net/DTD/sodipodi-0.dtd"
   xmlns="http://www.w3.org/2000/svg"
   xmlns:svg="http://www.w3.org/2000/svg">
  <defs
     id="defs6">
    <clipPath
       clipPathUnits="userSpaceOnUse"
       id="clipPath16">
      <path
         d="M 0,283.766 H 500 V 0 H 0 Z"
         id="path14" />
    </clipPath>
  </defs>
  <sodipodi:namedview
     id="namedview4"
     pagecolor="#ffffff"
     bordercolor="#000000"
     borderopacity="0.25"
     inkscape:showpageshadow="2"
     inkscape:pageopacity="0.0"
     inkscape:pagecheckerboard="0"
     inkscape:deskcolor="#d1d1d1" />
  <g
     id="g8"
     inkscape:groupmode="layer"
     inkscape:label="Minna no Rhythm Tengoku (みんなのリズム天国) Logo (Wordmark)"
     transform="matrix(1.3333333,0,0,-1.3333333,0,378.35467)">
    <g
       id="g10">
      <g
         id="g12"
         clip-path="url(#clipPath16)">
        <g
           id="g18"
           transform="translate(481.8358,199.2674)">
          <path
             d="m 0,0 -45.045,-13.771 c -2.422,-0.733 -3.865,-2.856 -3.865,-5.634 v -51.362 l 45.045,13.771 C -1.625,-56.324 0,-54.337 0,-51.362 Z M 18.164,15.377 V -60.061 L -67.065,-86.118 V -10.68 Z M -8.448,-43.972 v 7.217 l -5.115,-1.563 v -7.218 z m 0.001,-9.853 -32.007,-9.785 v 5.879 l 5.65,1.727 c 2.308,0.705 3.676,2.545 3.676,5.589 v 10.7 l -9.326,-2.851 v 6.352 l 9.326,2.851 v 10.957 c 0,1.272 -0.766,2.984 -4.287,1.907 l -5.039,-1.541 v 5.918 l 32.007,9.786 v -5.918 l -5.588,-1.708 c -2.388,-0.731 -3.738,-2.511 -3.738,-5.596 v -9.722 l 9.326,2.851 v -6.351 l -9.326,-2.852 v -11.935 c 0,-1.879 1.443,-2.789 4.349,-1.901 l 4.977,1.522 z"
             style="fill:#000000;fill-opacity:1;fill-rule:nonzero;stroke:none"
             id="path20" />
        </g>
        <g
           id="g22"
           transform="translate(475.9959,214.658)">
          <path
             d="m 0,0 c -2.461,1.454 -3.669,1.856 -6.913,2.975 -0.671,0.246 -1.498,0.693 -1.498,1.499 0,0.783 0.805,1.857 1.766,3.02 3.803,4.586 3.871,4.72 4.765,5.973 L -0.336,12.75 C -2.438,10.089 -2.819,9.686 -5.996,6.062 -6.309,5.727 -6.51,5.413 -6.51,5.145 -6.51,4.742 -5.839,4.541 -5.437,4.429 -3.423,3.848 0.021,2.572 1.387,1.722 Z"
             style="fill:#000000;fill-opacity:1;fill-rule:nonzero;stroke:none"
             id="path24" />
        </g>
        <g
           id="g26"
           transform="translate(438.0331,210.2064)">
          <path
             d="m 0,0 c -1.229,-1.656 -1.274,-2.841 -1.274,-3.132 0,-2.035 2.773,-1.23 4.92,-0.582 1.41,0.425 2.841,0.918 4.229,1.566 L 7.919,-3.893 C 7.428,-4.139 6.421,-4.563 4.184,-5.257 1.343,-6.107 0.112,-6.354 -1.118,-6.085 c -1.007,0.224 -1.768,1.186 -1.768,2.416 0,1.454 0.65,2.617 1.7,4.251 z M 7.159,8.053 V 6.509 C 5.347,5.615 4.05,4.563 2.394,2.93 L 1.365,3.735 c 0.47,0.493 0.559,0.582 1.498,1.343 L 2.842,5.1 C 0.896,4.474 -1.096,3.848 -2.259,3.422 v 1.767 c 0.425,0.112 2.215,0.649 2.953,0.873 z M 9.843,4.899 C 9.217,6.018 8.792,6.487 8.568,6.733 l 0.94,0.895 c 0.626,-0.649 1.073,-1.387 1.319,-1.79 z M 7.808,3.154 C 7.315,3.981 7.024,4.384 6.443,4.988 l 1.006,0.94 C 8.031,5.391 8.501,4.697 8.814,4.116 Z"
             style="fill:#000000;fill-opacity:1;fill-rule:nonzero;stroke:none"
             id="path28" />
        </g>
        <g
           id="g30"
           transform="translate(361.9715,101.9168)">
          <path
             d="m 0,0 v 8.414 l 31.663,9.68 V 31.27 L 0,21.59 v 11.798 l 31.663,9.68 V 56.212 L -53.86,30.065 V 16.921 l 31.147,9.523 V 14.646 L -53.86,5.123 V -8.054 l 31.147,9.523 v -4.872 c 0,-15.603 -8.403,-21.915 -21.165,-25.826 l -9.982,-3.051 v -13.206 l 21.739,6.646 c 16.697,5.097 22.584,11.015 29.201,26.81 3.632,-1.444 13.495,-7.947 17.496,-12.533 l 22.484,6.874 C 30.333,-10.267 6.412,-1.256 0,0"
             style="fill:#000000;fill-opacity:1;fill-rule:nonzero;stroke:none"
             id="path32" />
        </g>
        <g
           id="g34"
           transform="translate(366.0135,170.1277)">
          <path
             d="m 0,0 c -0.313,-1.052 -1.656,-5.505 -1.902,-6.422 l 0.022,-0.023 c 0.291,0.336 0.851,0.94 1.835,1.253 2.282,0.671 2.372,-1.611 2.372,-2.864 v -0.672 c 0,-0.469 0,-1.879 1.231,-1.521 1.387,0.403 1.969,2.573 2.238,5.437 l 1.521,-0.044 c -0.38,-3.558 -1.185,-6.378 -3.893,-7.184 -2.686,-0.805 -2.708,1.903 -2.708,2.775 v 0.537 c 0,1.007 0.022,2.037 -1.074,1.701 -1.432,-0.425 -2.305,-2.126 -2.82,-3.804 -0.134,-0.582 -0.693,-3.065 -0.828,-3.581 l -1.655,0.023 c 0.849,2.976 2.887,10.585 3.849,14.187 z"
             style="fill:#000000;fill-opacity:1;fill-rule:nonzero;stroke:none"
             id="path36" />
        </g>
        <g
           id="g38"
           transform="translate(341.4872,162.407)">
          <path
             d="m 0,0 v -1.768 c -0.38,-0.067 -0.738,-0.134 -1.454,-0.357 -2.44,-0.717 -6.4,-4.767 -6.423,-7.9 -0.021,-1.768 1.478,-1.88 2.484,-1.857 0.896,0.022 2.194,0.223 3.984,0.76 l -0.224,-1.946 c -1.455,-0.381 -3.133,-0.739 -4.543,-0.672 -1.566,0.045 -3.379,0.717 -3.379,3.111 0.023,1.298 0.56,4.05 4.029,7.25 l -0.023,0.023 c -3.178,-1.052 -3.558,-1.164 -6.847,-2.305 v 1.79 c 0.581,0.157 4.699,1.454 6.399,1.992 z"
             style="fill:#000000;fill-opacity:1;fill-rule:nonzero;stroke:none"
             id="path40" />
        </g>
        <g
           id="g42"
           transform="translate(286.4178,98.534)">
          <path
             d="m 0,0 -3.319,-1.015 c -2.173,-0.671 -4.565,-0.024 -6.215,2.414 l -7.574,11.192 -22.012,-6.73 9.966,-14.774 -27.15,-8.301 16.432,53.745 c 0.718,2.349 1.996,3.822 3.746,4.37 l 5.523,1.688 v 8.94 l -27.112,-8.29 -19.511,-63.815 c -0.755,-2.472 -2.217,-3.712 -3.773,-4.188 l -3.361,-1.027 v -12.923 l 91.587,28.001 z"
             style="fill:#000000;fill-opacity:1;fill-rule:nonzero;stroke:none"
             id="path44" />
        </g>
        <g
           id="g46"
           transform="translate(162.0574,43.5106)">
          <path
             d="m 0,0 c 8.367,13.267 9.552,21.615 10.734,30.81 0.414,3.327 1.997,5.045 3.788,5.593 l 3.329,1.018 V 49.828 L -60.06,26.009 V 12.865 l 48.793,14.917 c -1.124,-17.339 -7.347,-40.545 -34.662,-48.896 l -14.131,-4.321 v -12.977 l 14.444,4.418 c 18.697,5.715 27.723,11.206 38.749,24.783 2.846,-1.383 6.609,-4.769 8.741,-10.266 l 21.989,6.723 C 20.768,-8.953 7.622,-1.006 0,0 m 5.722,49.602 c 3.141,0.976 4.825,4.246 3.909,7.327 C 8.654,60.01 5.384,61.754 2.303,60.838 -0.839,59.922 -2.522,56.592 -1.606,53.51 -0.63,50.43 2.64,48.686 5.722,49.602 m 6.446,8.12 c -0.916,3.081 0.768,6.351 3.91,7.328 3.081,0.976 6.411,-0.767 7.327,-3.909 0.977,-3.081 -0.767,-6.351 -3.909,-7.328 -3.081,-0.916 -6.351,0.768 -7.328,3.909"
             style="fill:#000000;fill-opacity:1;fill-rule:nonzero;stroke:none"
             id="path48" />
        </g>
        <g
           id="g50"
           transform="translate(30.3802,44.4432)">
          <path
             d="m 0,0 -1.839,-0.562 c -2.901,-0.887 -4.322,0.077 -4.322,1.901 v 19.843 c 0,2.666 0.969,4.692 3.666,5.516 L 0,27.461 v 9.652 l -30.38,-9.288 v -9.651 l 1.845,0.563 c 2.909,0.889 4.316,-0.07 4.316,-1.883 V -2.989 c 0,-2.692 -0.97,-4.712 -3.661,-5.534 l -2.5,-0.765 v -9.633 L 0,-9.633 Z M 53.639,53.513 V 43.86 L 51.274,43.137 C 48.547,42.304 47.618,40.368 47.618,37.638 V -1.866 c 0,-12.927 -6.944,-22.846 -17.83,-26.136 l -53.776,-16.441 v 12.986 L 14.467,-19.7 c 7.387,2.268 10.845,8.688 10.845,17.416 v 34.285 c 0,1.813 -1.415,2.767 -4.319,1.879 l -1.929,-0.59 v 9.652 z"
             style="fill:#000000;fill-opacity:1;fill-rule:nonzero;stroke:none"
             id="path52" />
        </g>
        <g
           id="g54"
           transform="translate(364.7694,216.742)">
          <path
             d="M 0,0 C 0,-3.206 -0.674,-4.738 -2.494,-5.294 L -14.671,-9.017 V 33.99 c 0,3.368 1.869,5.054 3.61,5.585 L 0,42.958 Z M 36.327,67.024 -23.254,48.808 c -5.923,-1.811 -9.372,-9.432 -9.372,-18.811 v -41.789 l 18.717,-9.787 22.46,6.867 c 6.047,1.849 9.467,9.359 9.495,18.448 v 44.739 l 10.214,3.123 c 2.891,0.884 4.451,-0.095 4.457,-1.913 V 15.902 c 0,-10.839 -0.88,-13.489 -7.548,-15.527 v -9.159 c 7.499,0.811 14.628,3.923 17.525,5.749 4.106,2.618 7.914,9.635 7.912,21.351 v 41.213 z"
             style="fill:#000000;fill-opacity:1;fill-rule:nonzero;stroke:none"
             id="path56" />
        </g>
        <g
           id="g58"
           transform="translate(278.0116,216.5154)">
          <path
             d="m 0,0 -8.022,-2.453 c -1.521,-0.464 -3.615,-1.938 -3.615,-4.911 v -14.258 l 7.901,2.416 C -1.488,-18.519 0,-16.727 0,-13.997 Z m 16.268,18.011 15.164,4.636 V 9.61 L 16.268,4.974 v -17.893 c 0,-8.495 -3.414,-14.262 -7.935,-15.645 l -24.467,-7.48 -10.742,5.646 0.001,21.778 c -0.001,8.194 3.15,14.405 8.05,15.903 L 0,13.038 v 24.181 l 26.408,8.074 V 32.631 L 19.804,30.612 C 17.145,29.799 16.268,27.883 16.268,25.14 Z M -33.86,26.83 v -44.525 l -21.933,-6.706 v 8.009 l 1.855,0.567 c 2.683,0.821 3.524,2.842 3.524,5.502 V 21.769 L -64.573,17.44 v 12.817 l 14.159,4.329 v 11.362 l 16.554,5.061 V 39.647 l 24.316,7.435 V 34.264 Z"
             style="fill:#000000;fill-opacity:1;fill-rule:nonzero;stroke:none"
             id="path60" />
        </g>
        <g
           id="g62"
           transform="translate(202.8983,172.9896)">
          <path
             d="m 0,0 v -3.171 c 0,-2.708 -1.038,-4.668 -3.747,-5.496 l -10.524,-3.218 v 28.864 l -28.548,-8.729 8.325,27.221 c 0.9,2.729 2.189,3.877 3.638,4.32 l 5.794,1.772 v 8.442 l -26.542,-8.114 -21.447,-70.767 c -1.081,-2.912 -2.296,-3.859 -3.618,-4.264 l -3.65,-1.116 v -12.879 l 22.75,6.956 10.554,34.657 14.759,4.512 v -31.43 l 38.68,11.825 V 1.964 Z"
             style="fill:#000000;fill-opacity:1;fill-rule:nonzero;stroke:none"
             id="path64" />
        </g>
        <g
           id="g66"
           transform="translate(51.5614,147.2244)">
          <path
             d="m 0,0 c 0,-3.237 -1.619,-4.874 -3.682,-5.505 l -8.526,-2.606 V 7.451 c 0,3.607 1.92,5.109 3.859,5.701 L 0,15.705 Z M 31.244,60.072 V 37.952 L 17.917,33.877 V 71.701 L -22.102,59.466 V 46.729 L -4.41,52.138 C -1.513,53.023 0,52.293 0,50.362 V 28.4 l -19.351,-5.916 c -5.995,-1.833 -9.753,-8.531 -9.753,-18.55 v -15.939 l 16.996,-8.913 20.04,6.126 c 5.995,1.834 9.974,8.355 9.985,18.37 v 17.605 l 13.327,4.074 V -7.665 l 18.216,5.57 v 32.922 l 8.119,2.482 V 46.137 L 49.46,43.521 v 11.707 c 0,2.697 0.996,4.681 3.599,5.477 l 1.15,0.352 v 6.036 z"
             style="fill:#000000;fill-opacity:1;fill-rule:nonzero;stroke:none"
             id="path68" />
        </g>
        <g
           id="g70"
           transform="translate(496.8309,109.5228)">
          <path
             d="M 0,0 V 12.451 L -3.132,-0.958 -6.524,-1.995 -9.581,9.522 V -2.93 l -3.207,-0.98 v 14.906 l 5.01,1.531 3.02,-10.899 0.037,0.011 2.946,12.724 4.944,1.512 V 0.969 Z M -23.15,-7.078 V 5.184 l -5.158,-1.577 v 2.635 l 13.643,4.172 V 7.778 l -4.972,-1.52 V -6.004 Z"
             style="fill:#000000;fill-opacity:1;fill-rule:nonzero;stroke:none"
             id="path72" />
        </g>
      </g>
    </g>
  </g>
</svg>
