<?xml version="1.0" encoding="UTF-8" standalone="no"?>
<!-- Generator: Adobe Illustrator 27.7.0, SVG Export Plug-In . SVG Version: 6.00 Build 0)  -->

<svg
   version="1.1"
   id="Layer_1"
   x="0px"
   y="0px"
   viewBox="0 0 666.66669 417.5025"
   xml:space="preserve"
   sodipodi:docname="Minna no Rhythm Tengoku (みんなのリズム天国) Logo.svg"
   width="666.66669"
   height="417.5025"
   inkscape:version="1.2.2 (b0a8486541, 2022-12-01)"
   xmlns:inkscape="http://www.inkscape.org/namespaces/inkscape"
   xmlns:sodipodi="http://sodipodi.sourceforge.net/DTD/sodipodi-0.dtd"
   xmlns:xlink="http://www.w3.org/1999/xlink"
   xmlns="http://www.w3.org/2000/svg"
   xmlns:svg="http://www.w3.org/2000/svg"
   xmlns:rdf="http://www.w3.org/1999/02/22-rdf-syntax-ns#"
   xmlns:cc="http://creativecommons.org/ns#"
   xmlns:dc="http://purl.org/dc/elements/1.1/"><metadata
   id="metadata1877"><rdf:RDF><cc:Work
       rdf:about=""><dc:format>image/svg+xml</dc:format><dc:type
         rdf:resource="http://purl.org/dc/dcmitype/StillImage" /></cc:Work></rdf:RDF></metadata><defs
   id="defs1875" /><sodipodi:namedview
   pagecolor="#ffffff"
   bordercolor="#666666"
   borderopacity="1"
   objecttolerance="10"
   gridtolerance="10"
   guidetolerance="10"
   inkscape:pageopacity="0"
   inkscape:pageshadow="2"
   inkscape:window-width="2560"
   inkscape:window-height="1400"
   id="namedview1873"
   showgrid="false"
   fit-margin-top="0"
   fit-margin-left="0"
   fit-margin-right="0"
   fit-margin-bottom="0"
   inkscape:zoom="7.9987919"
   inkscape:cx="435.87832"
   inkscape:cy="238.16097"
   inkscape:window-x="2560"
   inkscape:window-y="0"
   inkscape:window-maximized="1"
   inkscape:current-layer="みんなのリズム天国_00000166658448422767501640000006262920370070636427_"
   inkscape:showpageshadow="0"
   inkscape:pagecheckerboard="0"
   inkscape:deskcolor="#d1d1d1" />
<style
   type="text/css"
   id="style1636">
	
		.st0{clip-path:url(#SVGID_00000109720935143474622770000003986167291585866889_);fill:url(#SVGID_00000031205993225780282760000001605645793653312128_);}
	
		.st1{clip-path:url(#SVGID_00000109720935143474622770000003986167291585866889_);fill:url(#SVGID_00000075842495663649586210000014416462619026223269_);}
	
		.st2{clip-path:url(#SVGID_00000109720935143474622770000003986167291585866889_);fill:url(#SVGID_00000007387269946998978390000011248698701779079856_);}
	
		.st3{clip-path:url(#SVGID_00000109720935143474622770000003986167291585866889_);fill:url(#SVGID_00000146488030992352071860000004189905674664971151_);}
	
		.st4{clip-path:url(#SVGID_00000109720935143474622770000003986167291585866889_);fill:url(#SVGID_00000059273632971853535720000001886688434962571661_);}
	
		.st5{clip-path:url(#SVGID_00000109720935143474622770000003986167291585866889_);fill:url(#SVGID_00000071551592319483778930000014103124551534981780_);}
	
		.st6{clip-path:url(#SVGID_00000109720935143474622770000003986167291585866889_);fill:url(#SVGID_00000124136244554939953550000005568775101930433457_);}
	
		.st7{clip-path:url(#SVGID_00000109720935143474622770000003986167291585866889_);fill:url(#SVGID_00000102534992553032506640000002159695348385318058_);}
	
		.st8{clip-path:url(#SVGID_00000109720935143474622770000003986167291585866889_);fill:url(#SVGID_00000073703309084861132070000006852258430471591322_);}
	
		.st9{clip-path:url(#SVGID_00000109720935143474622770000003986167291585866889_);fill:url(#SVGID_00000090261673634419212630000014441993881241843606_);}
	
		.st10{clip-path:url(#SVGID_00000109720935143474622770000003986167291585866889_);fill:url(#SVGID_00000048472279373067506190000004737100673630441631_);}
	
		.st11{clip-path:url(#SVGID_00000109720935143474622770000003986167291585866889_);fill:url(#SVGID_00000037663726674523330160000017760790872935359636_);}
	
		.st12{clip-path:url(#SVGID_00000109720935143474622770000003986167291585866889_);fill:url(#SVGID_00000085212635046619713570000003890378601211925654_);}
	
		.st13{clip-path:url(#SVGID_00000109720935143474622770000003986167291585866889_);fill:url(#SVGID_00000130615563197858675700000010448818567138964379_);}
	
		.st14{clip-path:url(#SVGID_00000109720935143474622770000003986167291585866889_);fill:url(#SVGID_00000177458505324041222990000012961810647596904361_);}
	
		.st15{clip-path:url(#SVGID_00000109720935143474622770000003986167291585866889_);fill:url(#SVGID_00000087410354950331961540000003751729244267966390_);}
	
		.st16{clip-path:url(#SVGID_00000109720935143474622770000003986167291585866889_);fill:url(#SVGID_00000111164516617184514920000013715236831410603170_);}
	
		.st17{clip-path:url(#SVGID_00000109720935143474622770000003986167291585866889_);fill:url(#SVGID_00000051341433257321381470000013988258320367636139_);}
	
		.st18{clip-path:url(#SVGID_00000109720935143474622770000003986167291585866889_);fill:url(#SVGID_00000150103135498876787240000016255849246362413696_);}
	.st19{fill:#FFFFFF;}
	.st20{fill:#EB6100;}
	.st21{fill:#FDD000;}
</style>
<g
   id="Cloud"
   transform="matrix(1.3333334,0,0,1.3333334,0,2.6666668e-5)">
	<g
   id="Spectrum">
		<defs
   id="defs1639">
			<path
   id="SVGID_1_"
   d="M 426.57645,53.24633 C 422.99771,40.30022 415.86081,28.5345 405.8049,19.25835 392.34302,6.83973 374.83105,-2e-5 356.49539,-2e-5 339.05762,-2e-5 322.64746,6.07412 309.67843,17.02984 296.31024,6.9505 279.91669,1.36529 262.91025,1.36529 c -28.77754,0 -54.8259,15.86314 -68.23605,40.53691 -2.81407,-0.31034 -5.64328,-0.46649 -8.4754,-0.46649 -19.19104,0 -37.3027,6.96468 -51.36526,19.45502 C 123.181,54.24861 109.90601,50.6821 96.35825,50.6821 c -42.82399,0 -77.66396,34.83997 -77.66396,77.66347 0,15.42982 4.6166,30.38487 13.0232,43.02063 C 12.0019,185.72594 0,208.71672 0,234.02046 c 0,42.79225 34.78141,77.60735 77.53367,77.60735 14.4866,0 28.60674,-4.07059 40.79456,-11.62518 12.5899,8.52661 27.44588,13.12421 42.88303,13.12421 33.32191,0 62.18532,-21.45081 72.54573,-51.90936 2.82822,0.31525 5.67792,0.47333 8.53835,0.47333 13.83614,0 27.3683,-3.74069 39.1555,-10.69611 13.40625,10.12714 29.92276,15.76895 46.86966,15.76895 34.25589,0 63.8605,-22.60432 73.93301,-53.98512 5.52078,1.18086 11.17432,1.77521 16.92542,1.77521 44.56454,0 80.82108,-36.25652 80.82108,-80.82156 C 500,91.6611 467.68622,56.99485 426.57645,53.24633 Z"
   inkscape:connector-curvature="0" />
		</defs>
		<clipPath
   id="SVGID_00000086667568351602679220000016022597238420252078_">
			<use
   xlink:href="#SVGID_1_"
   style="overflow:visible"
   id="use1641"
   x="0"
   y="0"
   width="100%"
   height="100%" />
		</clipPath>
		
			<radialGradient
   id="SVGID_00000109006998728256537480000011206035744479840417_"
   cx="74.303787"
   cy="147.83209"
   r="223.15968"
   gradientUnits="userSpaceOnUse">
			<stop
   offset="0"
   style="stop-color:#B001FC"
   id="stop1644" />
			<stop
   offset="0.45894"
   style="stop-color:#B001FC"
   id="stop1646" />
			<stop
   offset="0.53448"
   style="stop-color:#B001FC"
   id="stop1648" />
			<stop
   offset="0.85"
   style="stop-color:#B001FC;stop-opacity:0"
   id="stop1650" />
		</radialGradient>
		
			<polygon
   style="fill:url(#SVGID_00000109006998728256537480000011206035744479840417_)"
   points="-155.01694,-290.65665 479.19122,-134.75725 301.93771,586.3208 -332.27048,430.42145 "
   clip-path="url(#SVGID_00000086667568351602679220000016022597238420252078_)"
   id="polygon1653" />
		
			<radialGradient
   id="SVGID_00000085965980609312828460000003505232514430987949_"
   cx="1259.8112"
   cy="-799.78766"
   r="192.91687"
   gradientTransform="matrix(0.04759,0.99016,-0.49508,0.0238,-331.45117,-1224.7648)"
   gradientUnits="userSpaceOnUse">
			<stop
   offset="0"
   style="stop-color:#011EFE"
   id="stop1655" />
			<stop
   offset="0.45894"
   style="stop-color:#011EFE"
   id="stop1657" />
			<stop
   offset="0.53448"
   style="stop-color:#011EFE"
   id="stop1659" />
			<stop
   offset="0.85"
   style="stop-color:#011EFE;stop-opacity:0"
   id="stop1661" />
		</radialGradient>
		
			<polygon
   style="fill:url(#SVGID_00000085965980609312828460000003505232514430987949_)"
   points="-276.37448,-326.98639 357.83368,-171.08701 180.58017,549.99109 -453.62802,394.09167 "
   clip-path="url(#SVGID_00000086667568351602679220000016022597238420252078_)"
   id="polygon1664" />
		
			<radialGradient
   id="SVGID_00000142174998739508522840000007156471870754961314_"
   cx="928.03247"
   cy="-743.57764"
   r="192.91687"
   gradientTransform="matrix(-0.36873,0.92017,-0.46008,-0.18437,201.71313,-978.67926)"
   gradientUnits="userSpaceOnUse">
			<stop
   offset="0"
   style="stop-color:#03B3F4"
   id="stop1666" />
			<stop
   offset="0.45894"
   style="stop-color:#03B3F4"
   id="stop1668" />
			<stop
   offset="0.53448"
   style="stop-color:#03B3F4"
   id="stop1670" />
			<stop
   offset="0.85"
   style="stop-color:#03B3F4;stop-opacity:0"
   id="stop1672" />
		</radialGradient>
		
			<polygon
   style="fill:url(#SVGID_00000142174998739508522840000007156471870754961314_)"
   points="-25.29973,-455.05286 486.52484,-49.39258 25.29973,532.53851 -486.52484,126.87827 "
   clip-path="url(#SVGID_00000086667568351602679220000016022597238420252078_)"
   id="polygon1675" />
		
			<radialGradient
   id="SVGID_00000060739506821798541490000016343022266186720699_"
   cx="742.27039"
   cy="-669.34052"
   r="192.91687"
   gradientTransform="matrix(-0.36873,0.92017,-0.46008,-0.18437,110.66419,-604.03473)"
   gradientUnits="userSpaceOnUse">
			<stop
   offset="0"
   style="stop-color:#03B3F4"
   id="stop1677" />
			<stop
   offset="0.45894"
   style="stop-color:#03B3F4"
   id="stop1679" />
			<stop
   offset="0.53448"
   style="stop-color:#03B3F4"
   id="stop1681" />
			<stop
   offset="0.85"
   style="stop-color:#03B3F4;stop-opacity:0"
   id="stop1683" />
		</radialGradient>
		
			<polygon
   style="fill:url(#SVGID_00000060739506821798541490000016343022266186720699_)"
   points="-82.00703,-265.02753 429.81754,140.63274 -31.40756,722.56384 -543.23212,316.90359 "
   clip-path="url(#SVGID_00000086667568351602679220000016022597238420252078_)"
   id="polygon1686" />
		
			<radialGradient
   id="SVGID_00000127045977168212721460000014032769246065852592_"
   cx="812.9892"
   cy="-605.52362"
   r="192.91687"
   gradientTransform="matrix(-0.36873,0.92017,-0.46008,-0.18437,259.22403,-672.98773)"
   gradientUnits="userSpaceOnUse">
			<stop
   offset="0"
   style="stop-color:#2BE606"
   id="stop1688" />
			<stop
   offset="0.45894"
   style="stop-color:#2BE606"
   id="stop1690" />
			<stop
   offset="0.53448"
   style="stop-color:#2BE606"
   id="stop1692" />
			<stop
   offset="0.85"
   style="stop-color:#2BE606;stop-opacity:0"
   id="stop1694" />
		</radialGradient>
		
			<polygon
   style="fill:url(#SVGID_00000127045977168212721460000014032769246065852592_)"
   points="11.11522,-280.6731 522.93976,124.98717 61.71469,706.91827 -450.10986,301.25803 "
   clip-path="url(#SVGID_00000086667568351602679220000016022597238420252078_)"
   id="polygon1697" />
		
			<radialGradient
   id="SVGID_00000050648150552186126740000014030331659023293312_"
   cx="1841.8237"
   cy="-200.77338"
   r="192.91687"
   gradientTransform="matrix(0.5365,0.83357,-0.41678,0.26825,-797.04346,-1458.2273)"
   gradientUnits="userSpaceOnUse">
			<stop
   offset="0"
   style="stop-color:#2BE606"
   id="stop1699" />
			<stop
   offset="0.45894"
   style="stop-color:#2BE606"
   id="stop1701" />
			<stop
   offset="0.53448"
   style="stop-color:#2BE606"
   id="stop1703" />
			<stop
   offset="0.85"
   style="stop-color:#2BE606;stop-opacity:0"
   id="stop1705" />
		</radialGradient>
		
			<polygon
   style="fill:url(#SVGID_00000050648150552186126740000014030331659023293312_)"
   points="-237.67494,-62.55774 389.46918,-244.80721 596.68207,468.23926 -30.46208,650.48871 "
   clip-path="url(#SVGID_00000086667568351602679220000016022597238420252078_)"
   id="polygon1708" />
		
			<radialGradient
   id="SVGID_00000149367804475251647140000011481110136630709411_"
   cx="1581.5311"
   cy="-238.85742"
   r="192.91687"
   gradientTransform="matrix(0.56432,0.82549,-0.46355,0.28184,-723.66138,-947.69281)"
   gradientUnits="userSpaceOnUse">
			<stop
   offset="0"
   style="stop-color:#F8FD00"
   id="stop1710" />
			<stop
   offset="0.45894"
   style="stop-color:#F8FD00"
   id="stop1712" />
			<stop
   offset="0.53448"
   style="stop-color:#F8FD00"
   id="stop1714" />
			<stop
   offset="0.85"
   style="stop-color:#F8FD00;stop-opacity:0"
   id="stop1716" />
		</radialGradient>
		
			<polygon
   style="fill:url(#SVGID_00000149367804475251647140000011481110136630709411_)"
   points="-278.99139,218.15112 412.43625,17.22073 619.64911,730.26715 -71.77853,931.19757 "
   clip-path="url(#SVGID_00000086667568351602679220000016022597238420252078_)"
   id="polygon1719" />
		
			<radialGradient
   id="SVGID_00000090996910541276714950000016580593619021520551_"
   cx="848.3725"
   cy="-116.72429"
   r="126.35968"
   gradientTransform="matrix(-0.28273,0.95013,-0.47506,-0.14136,518.48956,-689.99786)"
   gradientUnits="userSpaceOnUse">
			<stop
   offset="0"
   style="stop-color:#A4F402"
   id="stop1721" />
			<stop
   offset="0.45894"
   style="stop-color:#A4F402"
   id="stop1723" />
			<stop
   offset="0.53448"
   style="stop-color:#A4F402"
   id="stop1725" />
			<stop
   offset="0.85"
   style="stop-color:#A4F402;stop-opacity:0"
   id="stop1727" />
		</radialGradient>
		
			<polygon
   style="fill:url(#SVGID_00000090996910541276714950000016580593619021520551_)"
   points="157.97832,-158.65518 516.19208,75.16129 250.34888,482.44092 -107.86488,248.62447 "
   clip-path="url(#SVGID_00000086667568351602679220000016022597238420252078_)"
   id="polygon1730" />
		
			<radialGradient
   id="SVGID_00000113353534632662162900000004411680348881638573_"
   cx="1027.8206"
   cy="-534.18024"
   r="192.91687"
   gradientTransform="matrix(-0.28273,0.95013,-0.47506,-0.14136,413.15955,-844.49103)"
   gradientUnits="userSpaceOnUse">
			<stop
   offset="0"
   style="stop-color:#F8FD00"
   id="stop1732" />
			<stop
   offset="0.45894"
   style="stop-color:#F8FD00"
   id="stop1734" />
			<stop
   offset="0.53448"
   style="stop-color:#F8FD00"
   id="stop1736" />
			<stop
   offset="0.85"
   style="stop-color:#F8FD00;stop-opacity:0"
   id="stop1738" />
		</radialGradient>
		
			<polygon
   style="fill:url(#SVGID_00000113353534632662162900000004411680348881638573_)"
   points="107.47222,-237.02995 654.36719,119.9442 248.49692,741.74945 -298.39804,384.7753 "
   clip-path="url(#SVGID_00000086667568351602679220000016022597238420252078_)"
   id="polygon1741" />
		
			<radialGradient
   id="SVGID_00000126291596013140237810000000381690858450773379_"
   cx="1163.4064"
   cy="-578.76447"
   r="192.91687"
   gradientTransform="matrix(-0.28273,0.95013,-0.47506,-0.14136,466.76883,-1116.3262)"
   gradientUnits="userSpaceOnUse">
			<stop
   offset="0"
   style="stop-color:#F8FD00"
   id="stop1743" />
			<stop
   offset="0.45894"
   style="stop-color:#F8FD00"
   id="stop1745" />
			<stop
   offset="0.53448"
   style="stop-color:#F8FD00"
   id="stop1747" />
			<stop
   offset="0.85"
   style="stop-color:#F8FD00;stop-opacity:0"
   id="stop1749" />
		</radialGradient>
		
			<polygon
   style="fill:url(#SVGID_00000126291596013140237810000000381690858450773379_)"
   points="143.92792,-373.7388 690.82288,-16.76466 284.95261,605.04059 -261.94232,248.06642 "
   clip-path="url(#SVGID_00000086667568351602679220000016022597238420252078_)"
   id="polygon1752" />
		
			<radialGradient
   id="SVGID_00000070836633952091173130000006726659769786301375_"
   cx="1879.915"
   cy="1126.5507"
   r="118.7943"
   gradientTransform="matrix(0.87176,-0.47192,0.23596,0.43588,-1546.2352,407.00586)"
   gradientUnits="userSpaceOnUse">
			<stop
   offset="0"
   style="stop-color:#F8FD00"
   id="stop1754" />
			<stop
   offset="0.45894"
   style="stop-color:#F8FD00"
   id="stop1756" />
			<stop
   offset="0.53448"
   style="stop-color:#F8FD00"
   id="stop1758" />
			<stop
   offset="0.85"
   style="stop-color:#F8FD00;stop-opacity:0"
   id="stop1760" />
		</radialGradient>
		
			<polygon
   style="fill:url(#SVGID_00000070836633952091173130000006726659769786301375_)"
   points="281.89484,321.5361 199.19913,-72.0284 646.67163,-166.05125 729.36737,227.51326 "
   clip-path="url(#SVGID_00000086667568351602679220000016022597238420252078_)"
   id="polygon1763" />
		
			<radialGradient
   id="SVGID_00000064348267321693435170000018325570629170607765_"
   cx="1045.135"
   cy="-185.35721"
   r="139.93042"
   gradientTransform="matrix(0.14319,0.9809,-0.49045,0.0716,-58.01934,-678.27185)"
   gradientUnits="userSpaceOnUse">
			<stop
   offset="0"
   style="stop-color:#A4F402"
   id="stop1765" />
			<stop
   offset="0.45894"
   style="stop-color:#A4F402"
   id="stop1767" />
			<stop
   offset="0.53448"
   style="stop-color:#A4F402"
   id="stop1769" />
			<stop
   offset="0.85"
   style="stop-color:#A4F402;stop-opacity:0"
   id="stop1771" />
		</radialGradient>
		
			<polygon
   style="fill:url(#SVGID_00000064348267321693435170000018325570629170607765_)"
   points="-130.04109,123.09839 338.76004,191.12903 261.41101,724.14362 -207.39014,656.11298 "
   clip-path="url(#SVGID_00000086667568351602679220000016022597238420252078_)"
   id="polygon1774" />
		
			<radialGradient
   id="SVGID_00000005987999010439338060000009510135351043496864_"
   cx="63.859261"
   cy="-450.38858"
   r="198.09557"
   gradientTransform="matrix(-0.87176,0.47192,-0.23596,-0.43588,-63.52593,66.60502)"
   gradientUnits="userSpaceOnUse">
			<stop
   offset="0"
   style="stop-color:#03B3F4"
   id="stop1776" />
			<stop
   offset="0.45894"
   style="stop-color:#03B3F4"
   id="stop1778" />
			<stop
   offset="0.53448"
   style="stop-color:#03B3F4"
   id="stop1780" />
			<stop
   offset="0.85"
   style="stop-color:#03B3F4;stop-opacity:0"
   id="stop1782" />
		</radialGradient>
		
			<polygon
   style="fill:url(#SVGID_00000005987999010439338060000009510135351043496864_)"
   points="114.68695,-224.98894 252.58626,431.30002 -493.59708,588.08789 -631.4964,-68.20103 "
   clip-path="url(#SVGID_00000086667568351602679220000016022597238420252078_)"
   id="polygon1785" />
		
			<radialGradient
   id="SVGID_00000085954989568787021600000014160219154336133540_"
   cx="78.418793"
   cy="-452.37677"
   r="128.22812"
   gradientTransform="matrix(-0.95462,0.26716,-0.13358,-0.47731,24.99971,-51.6398)"
   gradientUnits="userSpaceOnUse">
			<stop
   offset="0"
   style="stop-color:#011EFE"
   id="stop1787" />
			<stop
   offset="0.45894"
   style="stop-color:#011EFE"
   id="stop1789" />
			<stop
   offset="0.53448"
   style="stop-color:#011EFE"
   id="stop1791" />
			<stop
   offset="0.85"
   style="stop-color:#011EFE;stop-opacity:0"
   id="stop1793" />
		</radialGradient>
		
			<polygon
   style="fill:url(#SVGID_00000085954989568787021600000014160219154336133540_)"
   points="165.37665,-123.48128 158.34824,310.55719 -335.14212,302.56607 -328.11371,-131.4724 "
   clip-path="url(#SVGID_00000086667568351602679220000016022597238420252078_)"
   id="polygon1796" />
		
			<radialGradient
   id="SVGID_00000060015415995363870620000012816746313665042316_"
   cx="515.65112"
   cy="-607.5672"
   r="192.91687"
   gradientTransform="matrix(-0.42948,0.89343,-0.44672,-0.21474,27.17851,-226.82901)"
   gradientUnits="userSpaceOnUse">
			<stop
   offset="0"
   style="stop-color:#2BE606"
   id="stop1798" />
			<stop
   offset="0.45894"
   style="stop-color:#2BE606"
   id="stop1800" />
			<stop
   offset="0.53448"
   style="stop-color:#2BE606"
   id="stop1802" />
			<stop
   offset="0.85"
   style="stop-color:#2BE606;stop-opacity:0"
   id="stop1804" />
		</radialGradient>
		
			<polygon
   style="fill:url(#SVGID_00000060015415995363870620000012816746313665042316_)"
   points="-118.01221,-117.20862 365.5192,321.79251 -133.61359,871.55505 -617.14502,432.55392 "
   clip-path="url(#SVGID_00000086667568351602679220000016022597238420252078_)"
   id="polygon1807" />
		
			<radialGradient
   id="SVGID_00000013912601702128643830000011649405644975310509_"
   cx="840.66467"
   cy="-310.5032"
   r="126.35968"
   gradientTransform="matrix(-0.47206,0.87168,-0.43584,-0.23603,597.02789,-822.17218)"
   gradientUnits="userSpaceOnUse">
			<stop
   offset="0"
   style="stop-color:#A4F402"
   id="stop1809" />
			<stop
   offset="0.45894"
   style="stop-color:#A4F402"
   id="stop1811" />
			<stop
   offset="0.53448"
   style="stop-color:#A4F402"
   id="stop1813" />
			<stop
   offset="0.85"
   style="stop-color:#A4F402;stop-opacity:0"
   id="stop1815" />
		</radialGradient>
		
			<polygon
   style="fill:url(#SVGID_00000013912601702128643830000011649405644975310509_)"
   points="223.05667,-337.2973 525.53577,-34.81818 181.62495,309.09265 -120.85416,6.61354 "
   clip-path="url(#SVGID_00000086667568351602679220000016022597238420252078_)"
   id="polygon1818" />
		
			<radialGradient
   id="SVGID_00000000922513133910551420000014422030932629911169_"
   cx="1001.6992"
   cy="-482.17328"
   r="192.91687"
   gradientTransform="matrix(-0.28273,0.95013,-0.47506,-0.14136,459.49893,-762.45758)"
   gradientUnits="userSpaceOnUse">
			<stop
   offset="0"
   style="stop-color:#FC6510"
   id="stop1820" />
			<stop
   offset="0.45894"
   style="stop-color:#FC6510"
   id="stop1822" />
			<stop
   offset="0.53448"
   style="stop-color:#FC6510"
   id="stop1824" />
			<stop
   offset="0.85"
   style="stop-color:#FC6510;stop-opacity:0"
   id="stop1826" />
		</radialGradient>
		
			<polygon
   style="fill:url(#SVGID_00000000922513133910551420000014422030932629911169_)"
   points="136.49025,-187.16698 683.38519,169.80717 277.51495,791.61243 -269.38,434.63824 "
   clip-path="url(#SVGID_00000086667568351602679220000016022597238420252078_)"
   id="polygon1829" />
		
			<radialGradient
   id="SVGID_00000089542766126477227910000005770039189291485104_"
   cx="757.10394"
   cy="-314.12067"
   r="192.91687"
   gradientTransform="matrix(-0.77477,0.61838,-0.30919,-0.38739,989.76263,-531.8476)"
   gradientUnits="userSpaceOnUse">
			<stop
   offset="0"
   style="stop-color:#FC6510"
   id="stop1831" />
			<stop
   offset="0.45894"
   style="stop-color:#FC6510"
   id="stop1833" />
			<stop
   offset="0.53448"
   style="stop-color:#FC6510"
   id="stop1835" />
			<stop
   offset="0.85"
   style="stop-color:#FC6510;stop-opacity:0"
   id="stop1837" />
		</radialGradient>
		
			<polygon
   style="fill:url(#SVGID_00000089542766126477227910000005770039189291485104_)"
   points="533.57483,-460.49667 778.57257,144.89638 90.25652,423.45236 -154.7412,-181.94069 "
   clip-path="url(#SVGID_00000086667568351602679220000016022597238420252078_)"
   id="polygon1840" />
		
			<radialGradient
   id="SVGID_00000175292123282961649280000005516771393863007368_"
   cx="1145.827"
   cy="-464.30515"
   r="108.07879"
   gradientTransform="matrix(-0.28273,0.95013,-0.47506,-0.14136,601.66284,-1006.8319)"
   gradientUnits="userSpaceOnUse">
			<stop
   offset="0"
   style="stop-color:#FD1E18"
   id="stop1842" />
			<stop
   offset="0.45894"
   style="stop-color:#FD1E18"
   id="stop1844" />
			<stop
   offset="0.53448"
   style="stop-color:#FD1E18"
   id="stop1846" />
			<stop
   offset="0.85"
   style="stop-color:#FD1E18;stop-opacity:0"
   id="stop1848" />
		</radialGradient>
		
			<polygon
   style="fill:url(#SVGID_00000175292123282961649280000005516771393863007368_)"
   points="347.65335,-101.60305 654.04309,98.38637 426.66034,446.74344 120.27063,246.75401 "
   clip-path="url(#SVGID_00000086667568351602679220000016022597238420252078_)"
   id="polygon1851" />
	</g>
	<path
   id="White_00000033342475367506083130000000211143647739114166_"
   class="st19"
   d="M 419.78107,61.33625 C 417.33933,47.60404 410.47565,35.02683 400.09378,25.44961 388.19241,14.46999 372.7084,8.42317 356.49539,8.42317 c -17.80179,0 -34.38956,7.15693 -46.48517,19.85418 C 297.26077,16.45404 280.4505,9.78848 262.91025,9.78848 c -27.63718,0 -52.45148,16.41063 -63.3989,41.3684 -4.39018,-0.86272 -8.84772,-1.29798 -13.31256,-1.29798 -19.21446,0 -37.21585,7.83471 -50.25369,21.68599 -11.56176,-8.05722 -25.40669,-12.4396 -39.58685,-12.4396 -38.17957,0 -69.24076,31.06119 -69.24076,69.24028 0,16.66437 6.04047,32.70805 16.81271,45.20816 -21.82896,12.09169 -35.50701,34.96098 -35.50701,60.46674 0,38.14882 31.00264,69.18416 69.11047,69.18416 14.79792,0 29.16497,-4.76447 41.00487,-13.51166 12.08437,9.7153 27.0438,15.01068 42.67272,15.01068 32.08493,0 59.52448,-22.3389 66.495,-53.0024 4.78496,1.04132 9.66847,1.56636 14.58908,1.56636 14.27531,0 28.18611,-4.46973 39.73909,-12.68211 12.71725,11.48856 28.9527,17.75496 46.28607,17.75496 33.31314,0 61.69202,-23.9794 67.91547,-55.92917 7.36627,2.47104 15.05264,3.71924 22.94296,3.71924 39.92014,0 72.39789,-32.47774 72.39789,-72.39836 0,-39.72105 -32.14984,-72.07289 -71.79574,-72.39592 z"
   inkscape:connector-curvature="0"
   style="fill:#ffffff" />
	<path
   id="Black_00000159455080428635256210000015324742693617259696_"
   d="m 419.17868,67.48298 c -1.60342,0 -3.18784,0.07716 -4.76273,0.18915 -2.52216,-29.74162 -27.48175,-53.09985 -57.92032,-53.09985 -18.83261,0 -35.56482,8.94744 -46.19104,22.80897 -11.5592,-13.13898 -28.50037,-21.44341 -47.39441,-21.44341 -27.63174,0 -51.09665,17.74539 -59.62451,42.43649 -5.43576,-1.53 -11.16212,-2.36625 -17.08713,-2.36625 -20.02582,0 -37.85417,9.36099 -49.38536,23.93335 -10.95303,-9.16416 -25.05701,-14.68697 -40.45512,-14.68697 -34.84436,0 -63.09129,28.24699 -63.09129,63.09135 0,18.71155 8.15286,35.51244 21.09159,47.06639 -23.2998,9.2437 -39.78606,31.99069 -39.78606,58.60777 0,34.81367 28.1888,63.03566 62.96143,63.03566 15.74548,0 30.129,-5.80011 41.1687,-15.36505 11.10764,10.44968 26.05483,16.86407 42.50871,16.86407 31.73201,0 57.88419,-23.81863 61.59727,-54.54916 6.13214,2.0101 12.67839,3.11295 19.48692,3.11295 15.33083,0 29.35826,-5.52452 40.20729,-14.66849 11.49442,12.14883 27.76379,19.74139 45.81812,19.74139 33.28021,0 60.51871,-25.76332 62.86871,-58.41209 8.50421,3.9709 17.98431,6.20174 27.98923,6.20174 36.58835,0 66.24908,-29.66074 66.24908,-66.24901 0,-36.58833 -29.66073,-66.249 -66.24908,-66.249 z"
   inkscape:connector-curvature="0" />
</g>
<g
   id="みんなのリズム天国_00000166658448422767501640000006262920370070636427_"
   transform="matrix(1.3333334,0,0,1.3333334,0,2.6666668e-5)">
	<path
   id="国_00000133494443838726646270000010576822202758522293_"
   class="st20"
   d="m 434.55307,152.11427 -26.41989,8.07732 v -4.85262 l 4.66412,-1.42593 c 1.905,-0.58246 3.03381,-2.10097 3.03387,-4.61368 v -8.8326 l -7.698,2.35355 v -5.24347 l 7.698,-2.35356 v -9.04443 c 0,-1.04957 -0.63181,-2.46264 -3.53897,-1.57387 l -4.15903,1.27154 6e-5,-4.88493 26.41983,-8.07732 v 4.88493 l -4.61252,1.41013 c -1.97098,0.60264 -3.08539,2.07185 -3.08545,4.61864 v 8.02496 l 7.69797,-2.35349 v 5.24329 l -7.69797,2.35368 v 9.85207 c 0,1.55089 1.19122,2.30243 3.59048,1.56897 l 4.10748,-1.25587 v 4.85269 z m -6e-5,-8.13315 v -5.95775 l -4.22198,1.2908 v 5.95769 z M 456.5202,94.99055 v 62.27065 l -70.3541,21.50935 v -62.27064 z m -14.99389,12.69322 -37.18274,11.36797 c -1.99933,0.60466 -3.19095,2.35695 -3.19061,4.65031 v 42.39735 l 37.1828,-11.36795 c 1.84943,-0.55446 3.19055,-2.19472 3.19055,-4.65031 z"
   inkscape:connector-curvature="0"
   style="fill:#eb6100" />
	<path
   id="く_00000168833893859856057620000002673583114839367303_"
   class="st20"
   d="m 436.70538,94.97954 c -2.03122,-1.20026 -3.02835,-1.53265 -5.70587,-2.45592 -0.55399,-0.20312 -1.23721,-0.57243 -1.23721,-1.23721 0,-0.64629 0.66476,-1.53265 1.4588,-2.49286 3.13916,-3.78546 3.19458,-3.89625 3.9332,-4.93034 l 1.27414,0.5909 c -1.73578,2.19742 -2.04968,2.5298 -4.67181,5.52123 -0.25854,0.27699 -0.42474,0.53551 -0.42474,0.75709 0,0.33238 0.55399,0.49857 0.88638,0.5909 1.6619,0.4801 4.50562,1.53265 5.63202,2.23434 z"
   inkscape:connector-curvature="0"
   style="fill:#eb6100" />
	<path
   id="ご_00000013884291173660531400000008945276148562044848_"
   class="st20"
   d="m 411.81369,96.05054 c -0.40625,-0.68323 -0.6463,-1.01561 -1.1264,-1.51418 l 0.83096,-0.77556 c 0.4801,0.44318 0.86786,1.01561 1.12637,1.49571 z m 1.68036,-1.44031 c -0.51706,-0.92329 -0.86786,-1.31106 -1.05252,-1.51419 l 0.77554,-0.73862 c 0.51703,0.53551 0.88635,1.14487 1.08948,1.47725 z m -2.21588,-2.60367 v 1.27414 c -1.4957,0.73862 -2.56671,1.60651 -3.93317,2.9545 l -0.84943,-0.66476 c 0.38779,-0.40625 0.46164,-0.4801 1.23721,-1.10794 l -0.0185,-0.01846 c -1.60654,0.51704 -3.24997,1.03407 -4.21017,1.38493 v -1.45879 c 0.35086,-0.09233 1.82809,-0.53551 2.43747,-0.72017 z m -5.909,6.64764 c -1.01559,1.36646 -1.05255,2.34514 -1.05255,2.58519 0,1.68037 2.28976,1.01561 4.06247,0.4801 1.16333,-0.35085 2.34512,-0.75709 3.48999,-1.29259 l 0.0369,1.44032 c -0.40622,0.20312 -1.23718,0.55397 -3.08374,1.1264 -2.34515,0.70169 -3.36075,0.90482 -4.37637,0.68324 -0.83096,-0.18466 -1.4588,-0.97868 -1.4588,-1.99429 0,-1.20026 0.53552,-2.16048 1.40338,-3.50848 z"
   inkscape:connector-curvature="0"
   style="fill:#eb6100" />
	<path
   d="m 342.58249,188.04297 v -6.945 l 26.137,-7.991 v -10.876 l -26.137,7.991 v -9.74 l 26.137,-7.99 v -10.85 l -70.596,21.583 v 10.85 l 25.711,-7.861 v 9.74 l -25.711,7.86 v 10.876 l 25.711,-7.86 v 4.022 c 0,12.879 -6.937,18.09 -17.472,21.318 l -8.239,2.519 v 10.901 l 17.944,-5.486 c 13.784,-4.207 18.643,-9.092 24.105,-22.131 2.998,1.192 11.139,6.559 14.442,10.346 l 18.56,-5.674 c -5.553,-6.128 -25.299,-13.565 -30.592,-14.602"
   style="fill:#fdd000;fill-opacity:1;fill-rule:nonzero;stroke:none"
   id="path44"
   inkscape:label="天_00000005237355440453472460000013932763787894604442_" />
	<path
   id="ん_00000174591435929779619380000006293089445353163689_"
   class="st21"
   d="m 345.91946,131.73756 c -0.25861,0.86818 -1.36691,4.54407 -1.5701,5.30142 l 0.0185,0.0185 c 0.24014,-0.27708 0.70193,-0.77583 1.51468,-1.03442 1.88416,-0.55415 1.95804,1.32997 1.95804,2.3644 v 0.55415 c 0,0.38791 0,1.55165 1.01593,1.25609 1.14526,-0.33249 1.62555,-2.12427 1.8472,-4.48866 l 1.2561,0.0369 c -0.31403,2.93704 -0.97903,5.2645 -3.21411,5.92947 -2.21664,0.66498 -2.23511,-1.57011 -2.23511,-2.29051 v -0.44333 c 0,-0.83124 0.0185,-1.68094 -0.88666,-1.40387 -1.18219,0.35097 -1.90259,1.75484 -2.32745,3.14023 -0.11081,0.48026 -0.5726,2.53064 -0.68344,2.95549 l -1.36694,-0.0185 c 0.70193,-2.45676 2.38287,-8.7372 3.17719,-11.71118 z"
   inkscape:connector-curvature="0"
   style="fill:#fdd000" />
	<path
   id="て_00000072263634340734498510000017431420674937242021_"
   class="st21"
   d="m 325.67429,138.11037 v 1.45927 c -0.31403,0.0554 -0.60959,0.11082 -1.20068,0.29555 -2.01343,0.59109 -5.28296,3.93451 -5.30142,6.52057 -0.0185,1.45929 1.21915,1.55165 2.05038,1.53317 0.73886,-0.0185 1.81024,-0.18472 3.28796,-0.62805 l -0.18469,1.60706 c -1.20068,0.31403 -2.58609,0.60957 -3.74982,0.55415 -1.29303,-0.0369 -2.78925,-0.59111 -2.78925,-2.5676 0.0185,-1.07137 0.46182,-3.3434 3.32495,-5.98489 l -0.0185,-0.0185 c -2.62302,0.86818 -2.93704,0.96054 -5.6524,1.9026 v -1.47775 c 0.48029,-0.1293 3.87909,-1.20067 5.28296,-1.64401 z"
   inkscape:connector-curvature="0"
   style="fill:#fdd000" />
	<path
   id="ム_00000110450195062413549250000002490538445257389753_"
   class="st20"
   d="m 280.21643,190.83521 -2.74051,0.83789 c -1.79343,0.55336 -3.76736,0.0198 -5.12976,-1.99298 l -6.2522,-9.23813 -18.16985,5.55504 8.22627,12.19592 -22.41063,6.85167 13.56371,-44.36469 c 0.59265,-1.93878 1.64717,-3.15398 3.09196,-3.6067 l 4.55971,-1.394 v -7.379 l -22.3808,6.84251 -16.10501,52.67731 c -0.62384,2.04033 -1.83015,3.06427 -3.11407,3.45668 l -2.77463,0.84834 v 10.66675 l 75.60065,-23.11343 z"
   inkscape:connector-curvature="0"
   style="fill:#eb6100" /><path
   id="_x2122__00000009568546657628522450000017382203832955165074_"
   d="m 628.82773,305.17337 v -13.49586 l -5.67684,1.7356 v -2.9001 l 15.01551,-4.59068 v 2.90008 l -5.47226,1.67304 v 13.49582 z m 25.47924,-7.78978 v -13.70436 l -3.44703,14.75822 -3.73344,1.14141 -3.36514,-12.67552 v 13.70435 l -3.52886,1.07888 v -16.40542 l 5.51319,-1.68554 3.32425,11.99617 0.0409,-0.0125 3.24242,-14.00383 5.44162,-1.66365 v 16.40541 z"
   inkscape:connector-curvature="0"
   style="stroke-width:1.33333337"
   transform="matrix(0.74999996,0,0,0.74999996,0,-2e-5)" />
	<path
   d="m 236.74867,315.00604 c 9.208,-14.60133 10.51333,-23.78933 11.81467,-33.90933 0.45466,-3.66134 2.19733,-5.55467 4.168,-6.15734 l 3.664,-1.12 v -13.65466 l -85.74934,26.216 v 14.46666 l 53.70134,-16.42 C 223.11,303.51271 216.262,329.05404 186.198,338.24471 l -15.552,4.75466 v 14.284 l 15.89734,-4.86133 c 20.57733,-6.29067 30.512,-12.33467 42.648,-27.27733 3.132,1.52133 7.27333,5.248 9.62,11.29733 l 24.2,-7.39867 C 259.606,324.86071 245.138,316.11271 236.74867,315.00604 m 6.29733,-54.592 c 3.45734,-1.07467 5.31067,-4.67333 4.30267,-8.06533 -1.07467,-3.39067 -4.67467,-5.31067 -8.06667,-4.30267 -3.45733,1.00933 -5.31066,4.67467 -4.30133,8.06667 1.07333,3.39066 4.67333,5.30933 8.06533,4.30133 m 7.09467,-8.93733 c -1.008,-3.39067 0.84533,-6.99067 4.30267,-8.06533 3.39066,-1.07467 7.05733,0.844 8.06533,4.30266 1.07467,3.39067 -0.844,6.98933 -4.30267,8.06533 -3.39066,1.008 -6.98933,-0.84533 -8.06533,-4.30266"
   style="fill:#fdd000;fill-opacity:1;fill-rule:nonzero;stroke:none;stroke-width:1.33333"
   id="path60"
   inkscape:label="ズ_00000084506905923060591360000004533174317475826053_"
   transform="matrix(0.74999996,0,0,0.74999996,0,-2e-5)" />
	<path
   id="リ_00000060734512281596323200000005190367318891855794_"
   class="st20"
   d="m 113.14416,191.31236 v 7.96777 l -1.9524,0.59695 c -2.25116,0.68823 -3.01829,2.28561 -3.01823,4.53967 v 32.60881 c 0,10.67091 -5.7316,18.85849 -14.71785,21.57425 L 49.06587,272.1713 v -10.71942 l 31.7435,-9.70499 c 6.0979,-1.87283 8.95205,-7.1718 8.95205,-14.37608 v -28.30103 c 0,-1.49716 -1.16777,-2.28377 -3.56531,-1.55078 l -1.59226,0.4868 v -7.96777 z m -44.2772,44.17273 -1.51823,0.46413 c -2.39397,0.73199 -3.56734,-0.0633 -3.56734,-1.56915 v -16.37964 c 0,-2.20091 0.79974,-3.87306 3.0263,-4.55377 l 2.05928,-0.62962 v -7.96777 l -25.07756,7.66699 v 7.96733 l 1.52292,-0.4651 c 2.40105,-0.7341 3.56272,0.0581 3.56272,1.55466 v 16.37946 c 0,2.22176 -0.80103,3.88953 -3.02168,4.56839 l -2.06397,0.63104 v 7.95192 l 25.07756,-7.66698 z"
   inkscape:connector-curvature="0"
   style="fill:#eb6100" />
	<path
   id="の_00000004534993782874105430000000625821730668648846_"
   class="st20"
   d="M 374.87949,37.9336 325.69766,52.97 c -4.88928,1.49468 -7.73703,7.78548 -7.73703,15.52788 v 34.49563 l 15.45001,8.07807 18.54019,-5.66832 c 4.99118,-1.52594 7.81418,-7.72601 7.83795,-15.22803 l 3e-5,-36.93064 8.43079,-2.57755 c 2.38754,-0.72995 3.6745,0.07851 3.67969,1.5789 v 27.88671 c -3e-5,8.94666 -0.72662,11.13441 -6.23105,12.81728 l -3e-5,7.55996 c 6.19058,-0.66916 12.07498,-3.23785 14.46695,-4.74564 3.38867,-2.16088 6.53271,-7.95299 6.53113,-17.62458 V 44.1198 Z m -29.98676,55.3255 c 0,2.64591 -0.55627,3.91144 -2.05872,4.37006 l -10.05179,3.07314 3e-5,-35.50082 c -3e-5,-2.78024 1.54285,-4.17188 2.9805,-4.61031 l 9.12997,-2.79241 V 93.2591 Z"
   inkscape:connector-curvature="0"
   style="fill:#eb6100" />
	<path
   id="な_00000024001973342302690540000015165697830773702276_"
   class="st21"
   d="m 245.32704,71.29908 v 36.75365 l -18.1053,5.53535 v -6.61082 l 1.53197,-0.46838 c 2.21442,-0.67701 2.90921,-2.3457 2.90921,-4.54142 V 75.47662 l -11.68843,3.57351 V 68.47006 l 11.68843,-3.57352 v -9.37911 l 13.66412,-4.17754 v 9.37912 l 20.07228,-6.13671 v 10.58008 z m 41.37825,7.27928 12.51752,-3.82699 V 85.5137 l -12.51752,3.82699 v 14.76996 c 0,7.01147 -2.81781,11.77219 -6.54962,12.91374 l -20.19629,6.17462 -8.86668,-4.66029 1.5e-4,-17.97725 c -1.5e-4,-6.76363 2.60063,-11.89039 6.64482,-13.12682 l 15.53949,-4.7509 V 62.72309 l 21.79865,-6.66452 v 10.45197 l -5.45126,1.66665 c -2.1951,0.67108 -2.91925,2.25275 -2.91922,4.51699 z m -13.42807,14.86771 -6.62186,2.02452 c -1.25583,0.38392 -2.98383,1.59991 -2.98386,4.05397 l -3e-5,11.76926 6.52161,-1.99385 c 1.85565,-0.56737 3.08405,-2.04629 3.08408,-4.30002 z"
   inkscape:connector-curvature="0"
   style="fill:#fdd000" />
	<path
   id="ん_00000127735088838196074080000011849244187194823333_"
   class="st20"
   d="m 211.27431,129.37526 -5e-5,2.61772 c 5e-5,2.23512 -0.85646,3.85306 -3.09286,4.53683 l -8.68697,2.65584 3e-5,-23.82561 -23.56613,7.2049 6.87271,-22.46986 c 0.74248,-2.25272 1.80659,-3.20023 3.0024,-3.56582 l 4.78328,-1.46239 -2e-5,-6.96939 -21.90999,6.69855 -17.70341,58.41505 c -0.89201,2.40324 -1.89554,3.18593 -2.9864,3.51941 l -3.01347,0.92131 v 10.63118 l 18.77957,-5.74147 8.7119,-28.60837 12.18268,-3.72462 v 25.94487 l 31.92912,-9.7617 v -18.63753 z"
   inkscape:connector-curvature="0"
   style="fill:#eb6100" />
	<path
   id="み_00000048465092373027668350000008182873071909603990_"
   class="st21"
   d="m 112.14185,101.05607 v 18.25915 l -11.0012,3.3634 V 91.45715 l -33.03371,10.09942 -5e-5,10.51371 14.60381,-4.46484 c 2.39204,-0.73118 3.64075,-0.12836 3.64075,1.46589 v 18.1288 l -15.97336,4.88355 c -4.94888,1.51302 -8.05075,7.04228 -8.05075,15.31189 v 13.15762 l 14.02916,7.35728 16.542,-5.05739 c 4.94876,-1.5136 8.23381,-6.89613 8.24215,-15.16335 v -14.53197 l 11.0012,-3.3634 v 27.17542 l 15.03736,-4.59738 v -27.17542 l 6.70143,-2.04884 -3e-5,-10.58955 -6.70143,2.15923 v -9.66321 c 2e-5,-2.22596 0.82173,-3.86408 2.97044,-4.52102 l 0.94942,-0.29026 v -4.98309 z m -25.79042,49.58727 c 5e-5,2.6718 -1.33671,4.0233 -3.03945,4.54384 l -7.03735,2.15158 v -12.84601 c -5e-5,-2.97726 1.58409,-4.21698 3.18524,-4.7065 l 6.89156,-2.10696 z"
   inkscape:connector-curvature="0"
   style="fill:#fdd000" />
</g>

</svg>
