<?xml version="1.0" encoding="UTF-8" standalone="no"?>
<!-- Created with Inkscape (http://www.inkscape.org/) -->

<svg
   version="1.1"
   id="svg2"
   width="666.66669"
   height="417.50266"
   viewBox="0 0 666.66669 417.50266"
   sodipodi:docname="Minna no Rhythm Tengoku (みんなのリズム天国) Logo (Print).ai"
   xmlns:inkscape="http://www.inkscape.org/namespaces/inkscape"
   xmlns:sodipodi="http://sodipodi.sourceforge.net/DTD/sodipodi-0.dtd"
   xmlns="http://www.w3.org/2000/svg"
   xmlns:svg="http://www.w3.org/2000/svg">
  <defs
     id="defs6">
    <clipPath
       clipPathUnits="userSpaceOnUse"
       id="clipPath16">
      <path
         d="M 0,313.127 H 500 V 0 H 0 Z"
         id="path14" />
    </clipPath>
  </defs>
  <sodipodi:namedview
     id="namedview4"
     pagecolor="#ffffff"
     bordercolor="#000000"
     borderopacity="0.25"
     inkscape:showpageshadow="2"
     inkscape:pageopacity="0.0"
     inkscape:pagecheckerboard="0"
     inkscape:deskcolor="#d1d1d1" />
  <g
     id="g8"
     inkscape:groupmode="layer"
     inkscape:label="Minna no Rhythm Tengoku (みんなのリズム天国) Logo (Print)"
     transform="matrix(1.3333333,0,0,-1.3333333,0,417.50267)">
    <g
       id="g10">
      <g
         id="g12"
         clip-path="url(#clipPath16)">
        <g
           id="g18"
           transform="translate(426.5764,259.8805)">
          <path
             d="m 0,0 c -3.579,12.946 -10.716,24.712 -20.772,33.988 -13.461,12.419 -30.973,19.258 -49.309,19.258 -17.438,0 -33.848,-6.074 -46.817,-17.03 -13.368,10.08 -29.762,15.665 -46.768,15.665 -28.778,0 -54.826,-15.863 -68.236,-40.537 -2.814,0.31 -5.644,0.467 -8.476,0.467 -19.191,0 -37.302,-6.965 -51.365,-19.455 -11.652,6.642 -24.927,10.208 -38.475,10.208 -42.824,0 -77.664,-34.84 -77.664,-77.663 0,-15.43 4.616,-30.385 13.023,-43.021 -19.716,-14.36 -31.717,-37.35 -31.717,-62.654 0,-42.792 34.781,-77.607 77.533,-77.607 14.487,0 28.607,4.07 40.795,11.625 12.59,-8.527 27.446,-13.124 42.883,-13.124 33.322,0 62.185,21.45 72.546,51.909 2.828,-0.315 5.677,-0.473 8.538,-0.473 13.836,0 27.368,3.74 39.155,10.696 13.407,-10.128 29.923,-15.769 46.87,-15.769 34.256,0 63.861,22.604 73.933,53.985 5.521,-1.181 11.174,-1.775 16.925,-1.775 44.565,0 80.822,36.256 80.822,80.821 C 73.424,-38.415 41.11,-3.749 0,0"
             style="fill:#000000;fill-opacity:1;fill-rule:nonzero;stroke:none"
             id="path20" />
        </g>
        <g
           id="g22"
           transform="translate(419.7811,251.7906)">
          <path
             d="m 0,0 c -2.442,13.732 -9.305,26.309 -19.687,35.887 -11.902,10.979 -27.386,17.026 -43.599,17.026 -17.801,0 -34.389,-7.157 -46.485,-19.854 -12.749,11.823 -29.56,18.489 -47.1,18.489 -27.637,0 -52.451,-16.411 -63.399,-41.369 -4.39,0.863 -8.847,1.298 -13.312,1.298 -19.215,0 -37.216,-7.834 -50.254,-21.686 -11.562,8.058 -25.407,12.44 -39.587,12.44 -38.179,0 -69.241,-31.061 -69.241,-69.24 0,-16.665 6.041,-32.708 16.813,-45.208 -21.829,-12.092 -35.507,-34.961 -35.507,-60.467 0,-38.149 31.003,-69.184 69.111,-69.184 14.798,0 29.165,4.764 41.004,13.511 12.085,-9.715 27.044,-15.01 42.673,-15.01 32.085,0 59.525,22.338 66.495,53.002 4.785,-1.041 9.669,-1.566 14.589,-1.566 14.276,0 28.186,4.469 39.739,12.682 12.718,-11.489 28.953,-17.755 46.286,-17.755 33.314,0 61.692,23.979 67.916,55.929 7.366,-2.471 15.053,-3.719 22.943,-3.719 39.92,0 72.398,32.477 72.398,72.398 C 71.796,-32.675 39.646,-0.323 0,0"
             style="fill:#ffffff;fill-opacity:1;fill-rule:nonzero;stroke:none"
             id="path24" />
        </g>
        <g
           id="g26"
           transform="translate(419.1787,245.6438)">
          <path
             d="m 0,0 c -1.603,0 -3.188,-0.077 -4.763,-0.189 -2.522,29.741 -27.481,53.1 -57.92,53.1 -18.833,0 -35.565,-8.948 -46.191,-22.809 -11.559,13.139 -28.5,21.443 -47.394,21.443 -27.632,0 -51.097,-17.745 -59.625,-42.436 -5.436,1.53 -11.162,2.366 -17.087,2.366 -20.026,0 -37.854,-9.361 -49.385,-23.933 -10.954,9.164 -25.057,14.687 -40.456,14.687 -34.844,0 -63.091,-28.247 -63.091,-63.092 0,-18.711 8.153,-35.512 21.092,-47.066 -23.3,-9.244 -39.786,-31.991 -39.786,-58.608 0,-34.814 28.188,-63.036 62.961,-63.036 15.746,0 30.129,5.8 41.169,15.365 11.107,-10.449 26.055,-16.864 42.508,-16.864 31.732,0 57.885,23.819 61.598,54.549 6.132,-2.01 12.678,-3.112 19.487,-3.112 15.33,0 29.358,5.524 40.207,14.668 11.494,-12.149 27.764,-19.741 45.818,-19.741 33.28,0 60.519,25.763 62.869,58.412 8.504,-3.971 17.984,-6.202 27.989,-6.202 36.588,0 66.249,29.661 66.249,66.249 C 66.249,-29.661 36.588,0 0,0"
             style="fill:#000000;fill-opacity:1;fill-rule:nonzero;stroke:none"
             id="path28" />
        </g>
        <g
           id="g30"
           transform="translate(441.5263,205.4431)">
          <path
             d="m 0,0 -37.183,-11.368 c -1.999,-0.605 -3.191,-2.357 -3.19,-4.65 v -42.398 l 37.182,11.368 c 1.85,0.555 3.191,2.195 3.191,4.651 z m 14.994,12.693 v -62.27 l -70.354,-21.51 v 62.271 z m -21.967,-48.99 v 5.957 l -4.222,-1.29 v -5.958 z m 0,-8.133 -26.42,-8.078 v 4.853 l 4.664,1.426 c 1.905,0.582 3.034,2.101 3.034,4.613 v 8.833 l -7.698,-2.354 v 5.244 l 7.698,2.353 v 9.045 c 0,1.05 -0.632,2.463 -3.539,1.574 l -4.159,-1.272 v 4.885 l 26.42,8.078 v -4.885 l -4.613,-1.411 c -1.971,-0.602 -3.085,-2.071 -3.085,-4.618 v -8.025 l 7.698,2.353 v -5.243 l -7.698,-2.354 v -9.852 c 0,-1.551 1.191,-2.302 3.59,-1.569 l 4.108,1.256 z"
             style="fill:#ffffff;fill-opacity:1;fill-rule:nonzero;stroke:none"
             id="path32" />
        </g>
        <g
           id="g34"
           transform="translate(436.7054,218.1473)">
          <path
             d="m 0,0 c -2.031,1.2 -3.028,1.533 -5.706,2.456 -0.554,0.203 -1.237,0.572 -1.237,1.237 0,0.646 0.665,1.533 1.459,2.493 3.139,3.785 3.194,3.896 3.933,4.93 l 1.274,-0.591 C -2.013,8.328 -2.327,7.996 -4.949,5.004 -5.207,4.727 -5.374,4.469 -5.374,4.247 c 0,-0.332 0.554,-0.498 0.887,-0.591 1.662,-0.48 4.505,-1.532 5.632,-2.234 z"
             style="fill:#ffffff;fill-opacity:1;fill-rule:nonzero;stroke:none"
             id="path36" />
        </g>
        <g
           id="g38"
           transform="translate(405.3692,214.4727)">
          <path
             d="m 0,0 c -1.016,-1.366 -1.053,-2.345 -1.053,-2.585 0,-1.681 2.29,-1.016 4.063,-0.48 1.163,0.351 2.345,0.757 3.49,1.292 l 0.037,-1.44 C 6.131,-3.416 5.3,-3.767 3.453,-4.339 1.108,-5.041 0.092,-5.244 -0.923,-5.023 c -0.831,0.185 -1.459,0.979 -1.459,1.995 0,1.2 0.535,2.16 1.403,3.508 z M 5.909,6.648 V 5.373 C 4.413,4.635 3.342,3.767 1.976,2.419 L 1.126,3.084 C 1.514,3.49 1.588,3.564 2.364,4.192 L 2.345,4.21 C 0.739,3.693 -0.905,3.176 -1.865,2.825 v 1.459 c 0.351,0.092 1.828,0.536 2.437,0.72 z M 8.125,4.044 C 7.608,4.967 7.257,5.355 7.072,5.558 L 7.848,6.297 C 8.365,5.761 8.734,5.152 8.937,4.82 Z M 6.445,2.604 C 6.038,3.287 5.798,3.619 5.318,4.118 L 6.149,4.893 C 6.629,4.45 7.017,3.878 7.275,3.398 Z"
             style="fill:#ffffff;fill-opacity:1;fill-rule:nonzero;stroke:none"
             id="path40" />
        </g>
        <g
           id="g42"
           transform="translate(342.5477,125.0911)">
          <path
             d="m 0,0 c 0.144,2.795 0.035,6.938 0.035,6.938 l 26.137,7.991 V 25.805 L 0.035,17.814 v 9.739 l 26.137,7.991 v 10.85 L -44.424,24.81 V 13.961 l 25.711,7.86 V 12.082 L -44.424,4.222 V -6.655 l 25.711,7.861 v -4.022 c 0,-12.88 -6.937,-18.09 -17.471,-21.319 l -8.24,-2.519 v -10.9 l 17.945,5.486 c 13.783,4.207 18.642,9.092 24.104,22.131 2.998,-1.192 11.14,-6.56 14.442,-10.346 l 18.56,5.674 C 25.074,-8.481 5.293,-1.037 0,0"
             style="fill:#ffffff;fill-opacity:1;fill-rule:nonzero;stroke:none"
             id="path44" />
        </g>
        <g
           id="g46"
           transform="translate(345.9195,181.3893)">
          <path
             d="m 0,0 c -0.259,-0.868 -1.367,-4.544 -1.57,-5.301 l 0.018,-0.019 c 0.241,0.277 0.702,0.776 1.515,1.035 1.884,0.554 1.958,-1.33 1.958,-2.365 v -0.554 c 0,-0.388 0,-1.552 1.016,-1.256 1.145,0.332 1.626,2.124 1.847,4.489 L 6.04,-4.008 C 5.726,-6.945 5.061,-9.273 2.826,-9.938 0.61,-10.603 0.591,-8.368 0.591,-7.647 v 0.443 c 0,0.831 0.019,1.681 -0.887,1.404 -1.182,-0.351 -1.902,-1.755 -2.327,-3.14 -0.111,-0.481 -0.573,-2.531 -0.683,-2.956 l -1.367,0.019 c 0.702,2.456 2.382,8.737 3.177,11.711 z"
             style="fill:#ffffff;fill-opacity:1;fill-rule:nonzero;stroke:none"
             id="path48" />
        </g>
        <g
           id="g50"
           transform="translate(325.6743,175.0165)">
          <path
             d="m 0,0 v -1.459 c -0.314,-0.056 -0.61,-0.111 -1.201,-0.296 -2.013,-0.591 -5.283,-3.934 -5.301,-6.52 -0.019,-1.46 1.219,-1.552 2.05,-1.534 0.739,0.019 1.811,0.185 3.288,0.628 l -0.184,-1.607 c -1.201,-0.314 -2.587,-0.609 -3.75,-0.554 -1.293,0.037 -2.79,0.591 -2.79,2.568 0.019,1.071 0.462,3.343 3.325,5.985 l -0.018,0.018 c -2.623,-0.868 -2.937,-0.96 -5.652,-1.902 v 1.477 c 0.48,0.13 3.879,1.201 5.283,1.644 z"
             style="fill:#ffffff;fill-opacity:1;fill-rule:nonzero;stroke:none"
             id="path52" />
        </g>
        <g
           id="g54"
           transform="translate(280.2164,122.2916)">
          <path
             d="m 0,0 -2.741,-0.838 c -1.793,-0.553 -3.767,-0.02 -5.129,1.993 l -6.252,9.238 -18.17,-5.555 8.226,-12.196 -22.411,-6.851 13.564,44.364 c 0.593,1.939 1.647,3.154 3.092,3.607 l 4.56,1.394 v 7.379 l -22.381,-6.843 -16.105,-52.677 c -0.624,-2.04 -1.83,-3.064 -3.114,-3.457 l -2.775,-0.848 V -31.957 L 5.965,-8.843 Z"
             style="fill:#ffffff;fill-opacity:1;fill-rule:nonzero;stroke:none"
             id="path56" />
        </g>
        <g
           id="g58"
           transform="translate(177.5616,76.8718)">
          <path
             d="m 0,0 c 6.906,10.951 7.885,17.842 8.861,25.432 0.341,2.746 1.648,4.166 3.126,4.618 l 2.748,0.84 V 41.131 L -49.577,21.469 V 10.62 l 40.276,12.314 c -1.624,-25.062 -13.77,-35.825 -36.317,-42.719 l -3.959,-1.21 v -10.712 l 11.923,3.646 c 15.433,4.717 22.884,9.25 31.986,20.458 2.349,-1.142 5.455,-3.937 7.215,-8.474 l 18.151,5.549 C 17.143,-7.391 6.292,-0.83 0,0 m 16.093,44.42 c 2.594,0.807 4.033,3.506 3.227,6.049 -0.756,2.594 -3.505,4.033 -6.049,3.227 -2.593,-0.806 -3.983,-3.505 -3.226,-6.049 0.806,-2.593 3.505,-3.983 6.048,-3.227 M -1.326,44.171 c -0.756,2.543 0.633,5.293 3.227,6.049 C 4.444,50.976 7.144,49.536 7.95,46.993 8.706,44.45 7.316,41.75 4.723,40.944 2.179,40.188 -0.52,41.628 -1.326,44.171"
             style="fill:#ffffff;fill-opacity:1;fill-rule:nonzero;stroke:none"
             id="path60" />
        </g>
        <g
           id="g62"
           transform="translate(68.867,77.6418)">
          <path
             d="m 0,0 -1.518,-0.464 c -2.394,-0.732 -3.568,0.063 -3.568,1.569 v 16.38 c 0,2.201 0.8,3.873 3.027,4.553 L 0,22.668 v 7.968 l -25.078,-7.667 v -7.967 l 1.523,0.465 c 2.401,0.734 3.563,-0.059 3.563,-1.555 V -2.467 c 0,-2.222 -0.801,-3.89 -3.022,-4.569 l -2.064,-0.631 v -7.952 L 0,-7.952 Z M 44.277,44.173 V 36.205 L 42.325,35.608 C 40.074,34.92 39.307,33.322 39.307,31.068 V -1.54 c 0,-10.671 -5.732,-18.859 -14.718,-21.575 l -44.39,-13.571 v 10.719 l 31.743,9.705 c 6.098,1.873 8.952,7.172 8.952,14.376 v 28.301 c 0,1.497 -1.167,2.284 -3.565,1.551 l -1.592,-0.487 v 7.968 z"
             style="fill:#ffffff;fill-opacity:1;fill-rule:nonzero;stroke:none"
             id="path64" />
        </g>
        <g
           id="g66"
           transform="translate(344.8927,219.8678)">
          <path
             d="m 0,0 c 0,-2.646 -0.556,-3.911 -2.059,-4.37 l -10.052,-3.073 0.001,35.501 c -0.001,2.78 1.542,4.171 2.98,4.61 L 0,35.46 Z M 29.987,55.325 -19.195,40.289 c -4.889,-1.495 -7.737,-7.785 -7.737,-15.528 V -9.734 l 15.45,-8.078 18.54,5.668 c 4.991,1.526 7.814,7.726 7.838,15.228 v 36.931 l 8.431,2.577 c 2.387,0.73 3.674,-0.078 3.68,-1.579 V 13.126 C 27.007,4.18 26.28,1.992 20.776,0.309 l -0.001,-7.56 c 6.191,0.669 12.075,3.238 14.467,4.746 3.389,2.161 6.533,7.953 6.532,17.624 v 34.02 z"
             style="fill:#ffffff;fill-opacity:1;fill-rule:nonzero;stroke:none"
             id="path68" />
        </g>
        <g
           id="g70"
           transform="translate(273.2772,219.6808)">
          <path
             d="m 0,0 -6.622,-2.025 c -1.256,-0.383 -2.984,-1.599 -2.984,-4.054 v -11.769 l 6.522,1.994 c 1.856,0.567 3.084,2.046 3.084,4.3 z m 13.428,14.868 12.518,3.827 V 7.932 L 13.428,4.105 v -14.77 c 0,-7.011 -2.818,-11.772 -6.55,-12.913 l -20.196,-6.175 -8.867,4.66 10e-4,17.978 c -10e-4,6.763 2.6,11.89 6.644,13.126 L 0,10.762 v 19.961 l 21.799,6.664 V 26.936 l -5.452,-1.667 c -2.195,-0.671 -2.919,-2.253 -2.919,-4.517 z m -41.378,7.279 v -36.754 l -18.105,-5.535 v 6.611 l 1.531,0.468 c 2.215,0.677 2.91,2.346 2.91,4.542 v 26.49 l -11.689,-3.573 v 10.58 l 11.689,3.574 v 9.379 l 13.664,4.177 v -9.379 l 20.072,6.137 v -10.58 z"
             style="fill:#ffffff;fill-opacity:1;fill-rule:nonzero;stroke:none"
             id="path72" />
        </g>
        <g
           id="g74"
           transform="translate(211.2743,183.7516)">
          <path
             d="M 0,0 V -2.618 C 0,-4.853 -0.857,-6.471 -3.093,-7.155 L -11.78,-9.81 v 23.825 l -23.566,-7.205 6.873,22.47 c 0.742,2.253 1.806,3.2 3.002,3.566 l 4.783,1.462 v 6.97 l -21.91,-6.699 -17.703,-58.415 c -0.892,-2.403 -1.896,-3.186 -2.986,-3.519 l -3.014,-0.922 v -10.631 l 18.78,5.742 8.712,28.608 12.182,3.725 v -25.945 l 31.929,9.762 V 1.621 Z"
             style="fill:#ffffff;fill-opacity:1;fill-rule:nonzero;stroke:none"
             id="path76" />
        </g>
        <g
           id="g78"
           transform="translate(86.3514,162.4835)">
          <path
             d="m 0,0 c 0,-2.672 -1.337,-4.023 -3.039,-4.544 l -7.038,-2.151 V 6.151 c 0,2.977 1.584,4.217 3.185,4.706 L 0,12.964 Z M 25.79,49.587 V 31.328 L 14.789,27.965 V 59.186 L -18.244,49.087 -18.245,38.573 -3.641,43.038 C -1.249,43.769 0,43.166 0,41.572 V 23.443 L -15.973,18.56 c -4.949,-1.513 -8.051,-7.043 -8.051,-15.312 V -9.91 l 14.029,-7.357 16.542,5.057 c 4.949,1.514 8.234,6.896 8.242,15.164 V 17.486 L 25.79,20.849 V -6.326 l 15.038,4.597 v 27.175 l 6.701,2.049 v 10.59 l -6.701,-2.159 v 9.663 c 0,2.226 0.821,3.864 2.97,4.521 l 0.95,0.29 v 4.983 z"
             style="fill:#ffffff;fill-opacity:1;fill-rule:nonzero;stroke:none"
             id="path80" />
        </g>
        <g
           id="g82"
           transform="translate(490.7302,90.0892)">
          <path
             d="M 0,0 V 10.278 L -2.585,-0.79 -5.385,-1.646 -7.909,7.86 V -2.418 l -2.647,-0.809 V 9.077 l 4.135,1.264 2.493,-8.997 0.031,0.009 2.432,10.503 4.081,1.248 0,-12.304 z M -19.109,-5.842 V 4.28 l -4.258,-1.302 v 2.175 l 11.262,3.443 V 6.421 L -16.21,5.166 V -4.956 Z"
             style="fill:#000000;fill-opacity:1;fill-rule:nonzero;stroke:none"
             id="path84" />
        </g>
      </g>
    </g>
  </g>
</svg>
