<?xml version="1.0" encoding="UTF-8" standalone="no"?>
<!-- Generator: Adobe Illustrator 25.0.0, SVG Export Plug-In . SVG Version: 6.00 Build 0)  -->

<svg
   version="1.1"
   id="Layer_1"
   x="0px"
   y="0px"
   viewBox="0 0 666.66675 416.48755"
   xml:space="preserve"
   sodipodi:docname="Minna no Rhythm Tengoku (みんなのリズム天国) Logo (Alt).svg"
   width="666.66675"
   height="416.48755"
   inkscape:version="1.2.2 (b0a8486541, 2022-12-01)"
   xmlns:inkscape="http://www.inkscape.org/namespaces/inkscape"
   xmlns:sodipodi="http://sodipodi.sourceforge.net/DTD/sodipodi-0.dtd"
   xmlns="http://www.w3.org/2000/svg"
   xmlns:svg="http://www.w3.org/2000/svg"><defs
   id="defs272" /><sodipodi:namedview
   id="namedview270"
   pagecolor="#505050"
   bordercolor="#eeeeee"
   borderopacity="1"
   inkscape:showpageshadow="0"
   inkscape:pageopacity="0"
   inkscape:pagecheckerboard="0"
   inkscape:deskcolor="#505050"
   showgrid="false"
   inkscape:zoom="3.814"
   inkscape:cx="250"
   inkscape:cy="156.26639"
   inkscape:window-width="2560"
   inkscape:window-height="1412"
   inkscape:window-x="0"
   inkscape:window-y="0"
   inkscape:window-maximized="1"
   inkscape:current-layer="Layer_1" />
<style
   type="text/css"
   id="style219">
	.st0{fill:url(#Spectrum_2_);}
	.st1{fill:#FFFFFF;}
	.st2{fill:#FF7300;}
	.st3{fill:#FFD600;}
</style>
<g
   id="Cloud"
   transform="scale(1.3333334)">
	<linearGradient
   id="Spectrum_2_"
   gradientUnits="userSpaceOnUse"
   x1="-68.031433"
   y1="52.02301"
   x2="549.07788"
   y2="276.63245">
		<stop
   offset="0.19"
   style="stop-color:#FF1C24"
   id="stop221" />
		<stop
   offset="0.20446"
   style="stop-color:#FC4B1B"
   id="stop223" />
		<stop
   offset="0.22064"
   style="stop-color:#FA7813"
   id="stop225" />
		<stop
   offset="0.23695"
   style="stop-color:#F89E0C"
   id="stop227" />
		<stop
   offset="0.25311"
   style="stop-color:#F6BB07"
   id="stop229" />
		<stop
   offset="0.2691"
   style="stop-color:#F5CF03"
   id="stop231" />
		<stop
   offset="0.28483"
   style="stop-color:#F4DC01"
   id="stop233" />
		<stop
   offset="0.3"
   style="stop-color:#F4E000"
   id="stop235" />
		<stop
   offset="0.4"
   style="stop-color:#ABFE00"
   id="stop237" />
		<stop
   offset="0.505"
   style="stop-color:#01C500"
   id="stop239" />
		<stop
   offset="0.61"
   style="stop-color:#00BAD5"
   id="stop241" />
		<stop
   offset="0.675"
   style="stop-color:#0092FF"
   id="stop243" />
		<stop
   offset="0.75"
   style="stop-color:#2B55FF"
   id="stop245" />
		<stop
   offset="0.83"
   style="stop-color:#AE00FF"
   id="stop247" />
	</linearGradient>
	<path
   id="Spectrum_1_"
   class="st0"
   d="M 425.53943,53.11692 C 421.96942,40.20229 414.84985,28.46516 404.81839,19.21156 391.38922,6.82313 373.91983,0 355.62875,0 338.23336,0 321.86309,6.05938 308.92559,16.98846 295.5899,6.93363 279.23621,1.362 262.27112,1.362 c -28.70758,0 -54.69261,15.82458 -68.07018,40.43837 -2.80724,-0.30959 -5.62956,-0.46535 -8.4548,-0.46535 -19.14438,0 -37.21202,6.94774 -51.2404,19.40773 C 122.88156,54.11676 109.63883,50.55892 96.124,50.55892 c -42.71989,0 -77.47515,34.75526 -77.47515,77.47467 0,15.39232 4.60538,30.311 12.99154,42.91605 C 11.97272,185.27446 0,208.20937 0,233.45158 c 0,42.68825 34.69685,77.41869 77.34518,77.41869 14.45139,0 28.5372,-4.06067 40.69539,-11.59692 12.55928,8.50589 27.37917,13.09229 42.77878,13.09229 33.24092,0 62.03416,-21.39862 72.36937,-51.78314 2.82135,0.31445 5.66412,0.47217 8.51759,0.47217 13.80252,0 27.30177,-3.73163 39.06032,-10.6701 13.37366,10.10254 29.85004,15.73062 46.75574,15.73062 34.17258,0 63.70526,-22.54938 73.75327,-53.8539 5.50739,1.17799 11.14716,1.77089 16.88428,1.77089 44.45621,0 80.6246,-36.16838 80.6246,-80.62508 0,-41.9688 -32.23523,-76.55077 -73.24509,-80.29018 z"
   style="fill:url(#Spectrum_2_)" />
	<path
   id="White_00000033342475367506083130000000211143647739114166_"
   class="st1"
   d="M 418.76059,61.18716 C 416.32477,47.48833 409.47778,34.9417 399.12116,25.38776 387.24872,14.43483 371.80237,8.40271 355.62876,8.40271 c -17.75851,0 -34.30597,7.13953 -46.37216,19.80591 C 296.53816,16.41405 279.76875,9.7647 262.27113,9.7647 c -27.56999,0 -52.32397,16.37074 -63.24477,41.26783 -4.37952,-0.86062 -8.82622,-1.29482 -13.28021,-1.29482 -19.16774,0 -37.12537,7.81566 -50.13152,21.63326 -11.53366,-8.03763 -25.34493,-12.40936 -39.49062,-12.40936 -38.08676,0 -69.07243,30.98568 -69.07243,69.07196 0,16.62386 6.02579,32.62854 16.77184,45.09827 -21.77589,12.06229 -35.42069,34.87599 -35.42069,60.31973 0,38.05608 30.92727,69.01598 68.94247,69.01598 14.76195,0 29.09407,-4.75287 40.90519,-13.47882 12.05499,9.69171 26.97805,14.97418 42.56898,14.97418 32.00694,0 59.37978,-22.28458 66.33336,-52.87352 4.77332,1.03877 9.64496,1.56255 14.5536,1.56255 14.24062,0 28.1176,-4.45886 39.6425,-12.65129 12.68634,11.46063 28.88232,17.71181 46.17355,17.71181 33.23215,0 61.54202,-23.92111 67.75034,-55.79321 7.34836,2.46503 15.01605,3.71021 22.88721,3.71021 39.82309,0 72.22189,-32.39879 72.22189,-72.22237 -1e-5,-39.62448 -32.0717,-71.89768 -71.62123,-72.21993 z" />
	<path
   id="Black_00000159455080428635256210000015324742693617259696_"
   d="m 418.15967,67.31895 c -1.59955,0 -3.18008,0.07697 -4.75116,0.18868 -2.51602,-29.66932 -27.41495,-52.97076 -57.77951,-52.97076 -18.78683,0 -35.47836,8.92569 -46.07874,22.75352 -11.5311,-13.10703 -28.43109,-21.39128 -47.27921,-21.39128 -27.56458,0 -50.97244,17.70225 -59.47957,42.33333 -5.42255,-1.52629 -11.13498,-2.3605 -17.04559,-2.3605 -19.97713,0 -37.76213,9.33824 -49.2653,23.87517 -10.9264,-9.14188 -24.99609,-14.65127 -40.35677,-14.65127 -34.75965,0 -62.93791,28.17833 -62.93791,62.93798 0,18.66606 8.13304,35.4261 21.04031,46.95197 -23.24316,9.22122 -39.68935,31.91292 -39.68935,58.4653 0,34.72905 28.12028,62.88243 62.80837,62.88243 15.7072,0 30.05576,-5.78601 41.06862,-15.32773 11.08064,10.42432 25.99149,16.82309 42.40536,16.82309 31.65488,0 57.74348,-23.76071 61.44754,-54.41655 6.11723,2.00522 12.64757,3.10539 19.43954,3.10539 15.29356,0 29.28691,-5.51109 40.10954,-14.63284 11.46649,12.11931 27.69632,19.69341 45.70676,19.69341 33.19928,0 60.37155,-25.7007 62.71588,-58.2701 8.48352,3.96126 17.94058,6.18668 27.92117,6.18668 36.49939,0 66.08801,-29.58864 66.08801,-66.08797 2e-5,-36.49938 -29.5886,-66.08795 -66.08799,-66.08795 z" />
</g>
<g
   id="みんなのリズム天国_00000166658448422767501640000006262920370070636427_"
   transform="scale(1.3333334)">
	<path
   id="国_00000133494443838726646270000010576822202758522293_"
   class="st2"
   d="m 433.49667,151.74451 -26.35568,8.05769 v -4.84084 l 4.65283,-1.42245 c 1.90033,-0.58105 3.02643,-2.09587 3.02649,-4.60248 v -8.81111 l -7.67932,2.34782 v -5.23073 l 7.67932,-2.34782 v -9.02246 c 0,-1.04702 -0.63028,-2.45665 -3.53036,-1.57004 l -4.14896,1.26845 6e-5,-4.87306 26.35562,-8.05769 v 4.87306 l -4.60129,1.40671 c -1.96622,0.60117 -3.07788,2.06682 -3.07797,4.60741 v 8.00546 l 7.67926,-2.34776 v 5.23053 l -7.67926,2.34796 v 9.82812 c 0,1.54712 1.18835,2.29683 3.58176,1.56516 l 4.0975,-1.25282 z m -6e-5,-8.11338 v -5.94327 l -4.21173,1.28766 v 5.94321 z M 455.4104,94.75965 v 62.11927 L 385.22733,178.336 v -62.11927 z m -14.95743,12.66237 -37.09238,11.34032 c -1.99445,0.60319 -3.18317,2.35122 -3.18286,4.639 v 42.29429 l 37.09244,-11.34032 c 1.84491,-0.55312 3.1828,-2.18938 3.1828,-4.63901 z" />
	<path
   id="く_00000168833893859856057620000002673583114839367303_"
   class="st2"
   d="m 435.64377,94.74867 c -2.02628,-1.19735 -3.02103,-1.52892 -5.69202,-2.44996 -0.55264,-0.20263 -1.23419,-0.57104 -1.23419,-1.2342 0,-0.64472 0.66315,-1.52892 1.45526,-2.4868 3.13153,-3.77625 3.1868,-3.88677 3.92361,-4.91834 l 1.27103,0.58946 c -1.73154,2.19208 -2.04468,2.52365 -4.66046,5.50781 -0.25787,0.27631 -0.42368,0.53421 -0.42368,0.75525 0,0.33157 0.55261,0.49736 0.88422,0.58947 1.65787,0.47894 4.49466,1.52892 5.61832,2.2289 z" />
	<path
   id="ご_00000013884291173660531400000008945276148562044848_"
   class="st2"
   d="m 410.81256,95.81707 c -0.40524,-0.68157 -0.64471,-1.01314 -1.12366,-1.51051 l 0.82895,-0.77367 c 0.47891,0.44211 0.86575,1.01315 1.12366,1.49208 z m 1.6763,-1.43681 c -0.51581,-0.92104 -0.86578,-1.30787 -1.04999,-1.51051 l 0.77368,-0.73683 c 0.51578,0.5342 0.88419,1.14209 1.08682,1.47366 z m -2.21051,-2.59734 v 1.27103 c -1.49207,0.73683 -2.56049,1.60261 -3.92361,2.94733 l -0.84735,-0.66315 c 0.38684,-0.40526 0.46051,-0.47894 1.23419,-1.10525 l -0.0184,-0.01841 c -1.6026,0.51578 -3.24207,1.03156 -4.19995,1.38155 v -1.45525 c 0.35001,-0.0921 1.82367,-0.5342 2.43155,-0.71841 z m -5.89462,6.63147 c -1.01315,1.36314 -1.04999,2.33944 -1.04999,2.57891 0,1.67628 2.28418,1.01314 4.05258,0.47894 1.16049,-0.35 2.33942,-0.75525 3.48151,-1.28945 l 0.0368,1.43681 c -0.40524,0.20263 -1.23416,0.55263 -3.07626,1.12366 -2.33942,0.69998 -3.35257,0.90262 -4.36572,0.68157 -0.82892,-0.18421 -1.45523,-0.9763 -1.45523,-1.98944 0,-1.19735 0.53421,-2.15524 1.39996,-3.49995 z" />
	<path
   id="天"
   class="st3"
   d="m 341.75,187.58559 v -6.92783 l 26.07315,-7.97137 -6e-5,-10.85013 -26.07309,7.97137 v -9.71539 l 26.07309,-7.97137 v -10.82343 l -70.42429,21.5309 v 10.82341 l 25.64832,-7.84146 v 9.71541 l -25.64832,7.84146 v 10.85013 l 25.64832,-7.84148 -6e-5,4.01202 c 6e-5,12.84851 -6.91962,18.04611 -17.42853,21.26656 l -8.21973,2.51303 v 10.87413 l 17.90134,-5.47296 c 13.74957,-4.19705 18.59674,-9.06979 24.04599,-22.07663 2.98996,1.18852 11.11258,6.54343 14.40677,10.32045 l 18.51447,-5.66049 c -5.53968,-6.11243 -25.2374,-13.53194 -30.51737,-14.56633 z" />
	<path
   id="ん_00000174591435929779619380000006293089445353163689_"
   class="st3"
   d="m 345.07855,131.41733 c -0.258,0.86607 -1.36362,4.53304 -1.56631,5.28854 l 0.0184,0.0184 c 0.23956,-0.27641 0.70023,-0.77394 1.51102,-1.03191 1.87955,-0.55281 1.95325,1.32674 1.95325,2.35864 v 0.55281 c 0,0.38696 0,1.54787 1.01349,1.25304 1.14249,-0.33168 1.62158,-2.11911 1.84271,-4.47775 l 1.25302,0.0368 c -0.31326,2.9299 -0.97662,5.25169 -3.2063,5.91505 -2.21124,0.66338 -2.22968,-1.56628 -2.22968,-2.28494 v -0.44226 c 0,-0.82921 0.0184,-1.67685 -0.88449,-1.40044 -1.17932,0.35011 -1.89795,1.75056 -2.32178,3.13258 -0.11057,0.4791 -0.57123,2.52449 -0.68179,2.94832 l -1.36362,-0.0184 c 0.70023,-2.45078 2.37708,-8.71596 3.16943,-11.68269 z" />
	<path
   id="て_00000072263634340734498510000017431420674937242021_"
   class="st3"
   d="m 324.88257,137.77464 v 1.45573 c -0.31326,0.0553 -0.60809,0.11055 -1.19775,0.29483 -2.00854,0.58966 -5.27011,3.92494 -5.28854,6.50471 -0.0184,1.45573 1.21619,1.54787 2.04538,1.52943 0.73709,-0.0184 1.80585,-0.18427 3.28,-0.62653 l -0.18427,1.60315 c -1.19775,0.31326 -2.57977,0.60809 -3.74066,0.55281 -1.28989,-0.0369 -2.78247,-0.58966 -2.78247,-2.56136 0.0184,-1.06876 0.46066,-3.33527 3.31686,-5.97034 l -0.0184,-0.0184 c -2.61664,0.86606 -2.9299,0.95819 -5.63864,1.89796 v -1.47415 c 0.4791,-0.129 3.86966,-1.19775 5.27011,-1.64001 z" />
	<path
   id="ム_00000110450195062413549250000002490538445257389753_"
   class="st2"
   d="m 279.53522,190.37131 -2.73383,0.83586 c -1.78906,0.552 -3.75821,0.0198 -5.11731,-1.98814 l -6.237,-9.21567 -18.12567,5.54153 8.20628,12.16628 -22.35616,6.83501 13.53073,-44.25684 c 0.59122,-1.93405 1.64317,-3.1463 3.08444,-3.59793 l 4.54863,-1.39059 v -7.36107 l -22.32639,6.82588 -16.06586,52.54924 c -0.62233,2.03537 -1.82571,3.05682 -3.10651,3.44829 l -2.76788,0.84627 v 10.64082 L 285.48554,199.193 Z" />
	<path
   id="ズ"
   class="st3"
   d="m 187.14999,188.14926 c -0.75423,-2.53728 0.63213,-5.23009 3.21909,-6.03426 2.53705,-0.80408 5.27986,0.63196 6.03426,3.21899 0.80405,2.53714 -0.63217,5.23009 -3.21909,6.03426 -2.53719,0.75432 -5.23004,-0.63207 -6.03426,-3.21899 z m -5.30867,6.687 c 2.58691,-0.80417 3.97331,-3.49698 3.21909,-6.03426 -0.80408,-2.53714 -3.49702,-3.97331 -6.0343,-3.21909 -2.58704,0.75436 -3.97327,3.49702 -3.21904,6.0343 0.80403,2.53706 3.49702,3.97327 6.03425,3.21905 z m -4.71139,40.84447 c 6.88962,-10.92461 7.86555,-17.79884 8.83945,-25.37024 0.34064,-2.73955 1.64392,-4.15547 3.11871,-4.60634 l 2.7411,-0.83806 V 194.6496 l -64.1558,19.61436 -5e-5,10.8228 40.17866,-12.28386 c -0.92551,14.27797 -6.04991,33.38768 -28.54231,40.26433 l -11.63634,3.55759 V 267.311 l 11.89426,-3.63733 c 15.39548,-4.70599 22.82823,-9.2281 31.90797,-20.408 2.34349,1.13843 5.44154,3.92703 7.19745,8.45311 l 18.1067,-5.53578 c -2.5485,-3.12959 -13.37345,-9.67398 -19.6498,-10.50227 z" />
	<path
   id="リ_00000060734512281596323200000005190367318891855794_"
   class="st2"
   d="m 112.8691,190.84732 v 7.94839 l -1.94765,0.5955 c -2.24568,0.68655 -3.01095,2.28006 -3.01089,4.52863 v 32.52956 c 0,10.64496 -5.71766,18.81262 -14.68208,21.52179 l -44.28189,13.53848 v -10.69336 l 31.66634,-9.6814 c 6.08308,-1.86829 8.93028,-7.15437 8.93028,-14.34114 v -28.23222 c 0,-1.49352 -1.16493,-2.27821 -3.55664,-1.54701 l -1.58839,0.48563 v -7.94841 z m -44.16955,44.06534 -1.51455,0.463 c -2.38815,0.73021 -3.55867,-0.0632 -3.55867,-1.56534 V 217.4705 c 0,-2.19557 0.79779,-3.86365 3.01894,-4.54271 l 2.05428,-0.6281 v -7.94839 l -25.0166,7.64835 v 7.94797 l 1.51921,-0.46397 c 2.39522,-0.73232 3.55407,0.058 3.55407,1.55087 v 16.33965 c 0,2.21635 -0.79908,3.88007 -3.01433,4.55728 l -2.05895,0.6295 v 7.9326 l 25.0166,-7.64835 z" />
	<path
   id="の_00000004534993782874105430000000625821730668648846_"
   class="st2"
   d="m 373.96817,37.84141 -49.06229,14.99984 c -4.87738,1.49105 -7.71823,7.76655 -7.71823,15.49013 v 34.41177 l 15.41248,8.05843 18.49512,-5.65454 c 4.97903,-1.52223 7.7952,-7.70722 7.81888,-15.19102 l 3e-5,-36.84086 8.41031,-2.57128 c 2.38174,-0.72818 3.66556,0.07832 3.67075,1.57505 v 27.81892 c -3e-5,8.9249 -0.72485,11.10734 -6.21591,12.78612 l -3e-5,7.54158 c 6.17557,-0.66753 12.04562,-3.22998 14.43179,-4.7341 3.38043,-2.15562 6.51685,-7.93365 6.51526,-17.58173 V 44.01257 Z m -29.91388,55.191 c 0,2.63948 -0.5549,3.90193 -2.05371,4.35944 l -10.02734,3.06567 3e-5,-35.41451 c -3e-5,-2.77348 1.53912,-4.16174 2.97327,-4.59911 l 9.10776,-2.78562 v 35.37413 z" />
	<path
   id="な_00000024001973342302690540000015165697830773702276_"
   class="st3"
   d="m 244.73065,71.12578 v 36.6643 l -18.06129,5.52189 v -6.59476 l 1.52826,-0.46723 c 2.20903,-0.67537 2.90213,-2.34 2.90213,-4.53038 V 75.29316 l -11.66002,3.56483 V 68.30363 l 11.66002,-3.56483 v -9.3563 l 13.63091,-4.16739 v 9.35632 l 20.02347,-6.12179 V 65.004 Z m 41.27765,7.26158 12.48709,-3.81769 v 10.73617 l -12.48709,3.81769 v 14.73405 c 0,6.99444 -2.81094,11.74358 -6.53369,12.88235 l -20.14719,6.15961 -8.84512,-4.64896 1.5e-4,-17.93354 c -1.5e-4,-6.74718 2.5943,-11.86148 6.62866,-13.09491 l 15.50171,-4.73936 V 62.57064 l 21.74567,-6.64832 v 10.42656 l -5.43802,1.6626 c -2.18976,0.66945 -2.91217,2.24728 -2.91214,4.50602 z m -13.39542,14.83157 -6.60577,2.0196 c -1.25275,0.38299 -2.97653,1.59602 -2.97659,4.04412 l -3e-5,11.74065 6.50577,-1.98901 c 1.85114,-0.56599 3.07654,-2.04131 3.07657,-4.28956 z" />
	<path
   id="ん_00000127735088838196074080000011849244187194823333_"
   class="st2"
   d="m 210.7607,129.06078 -5e-5,2.61134 c 5e-5,2.22971 -0.85437,3.8437 -3.08533,4.52582 l -8.66586,2.64938 3e-5,-23.76768 -23.50883,7.18737 6.85599,-22.41522 c 0.74068,-2.24725 1.80222,-3.19246 2.9951,-3.55716 l 4.77167,-1.45884 -3e-5,-6.95245 -21.85672,6.68227 -17.66039,58.27305 c -0.88985,2.3974 -1.89093,3.17818 -2.97914,3.51083 l -3.00615,0.91908 v 10.60535 l 18.73392,-5.72752 8.69072,-28.53882 12.15308,-3.71558 v 25.88179 l 31.8515,-9.73796 v -18.59222 z" />
	<path
   id="み_00000048465092373027668350000008182873071909603990_"
   class="st3"
   d="m 111.86923,100.81042 v 18.21476 l -10.97445,3.35522 V 91.23483 l -32.95341,10.07487 -4e-5,10.48814 14.56831,-4.45398 c 2.38622,-0.7294 3.63189,-0.12804 3.63189,1.46233 v 18.08473 l -15.93452,4.87167 c -4.93685,1.50935 -8.03118,7.02518 -8.03118,15.27467 v 13.12564 l 13.99506,7.33939 16.50179,-5.04509 c 4.93674,-1.50992 8.2138,-6.87936 8.22211,-15.12648 v -14.49664 l 10.97445,-3.35522 v 27.10936 l 15.00082,-4.58621 v -27.10935 l 6.68514,-2.04385 -5e-5,-10.5638 -6.68513,2.15398 v -9.63972 c 2e-5,-2.22054 0.81973,-3.85469 2.96323,-4.51003 l 0.94711,-0.28956 V 95.02871 Z M 86.1415,150.27716 c 5e-5,2.6653 -1.33346,4.0135 -3.03206,4.53278 l -7.02025,2.14635 v -12.81477 c -5e-5,-2.97002 1.58025,-4.20671 3.17751,-4.69505 l 6.8748,-2.10184 z" />
</g>
<path
   id="_x2122__00000009568546657628522450000017382203832955165074_"
   d="m 646.71023,275.01103 v -9.29774 l -3.91093,1.1957 V 264.911 l 10.34464,-3.16268 v 1.99796 l -3.76997,1.15261 v 9.29775 z m 17.55351,-5.36664 V 260.203 l -2.37476,10.16741 -2.57207,0.78636 -2.3184,-8.73258 v 9.44138 l -2.43114,0.74328 v -11.30224 l 3.79821,-1.16124 2.29024,8.26458 0.0282,-0.009 2.2338,-9.64771 3.74892,-1.14616 v 11.30224 z"
   style="stroke-width:1.33333" />
</svg>
