<?xml version="1.0" encoding="UTF-8" standalone="no"?>
<!-- Created with Inkscape (http://www.inkscape.org/) -->

<svg
   version="1.1"
   id="svg2"
   width="666.66669"
   height="378.35468"
   viewBox="0 0 666.66669 378.35468"
   sodipodi:docname="Minna no Rhythm Tengoku (みんなのリズム天国) Logo (Wordmark).ai"
   xmlns:inkscape="http://www.inkscape.org/namespaces/inkscape"
   xmlns:sodipodi="http://sodipodi.sourceforge.net/DTD/sodipodi-0.dtd"
   xmlns="http://www.w3.org/2000/svg"
   xmlns:svg="http://www.w3.org/2000/svg">
  <defs
     id="defs6">
    <clipPath
       clipPathUnits="userSpaceOnUse"
       id="clipPath16">
      <path
         d="M 0,283.766 H 500 V 0 H 0 Z"
         id="path14" />
    </clipPath>
  </defs>
  <sodipodi:namedview
     id="namedview4"
     pagecolor="#ffffff"
     bordercolor="#000000"
     borderopacity="0.25"
     inkscape:showpageshadow="2"
     inkscape:pageopacity="0.0"
     inkscape:pagecheckerboard="0"
     inkscape:deskcolor="#d1d1d1" />
  <g
     id="g8"
     inkscape:groupmode="layer"
     inkscape:label="Minna no Rhythm Tengoku (みんなのリズム天国) Logo (Wordmark)"
     transform="matrix(1.3333333,0,0,-1.3333333,0,378.35467)">
    <g
       id="g10">
      <g
         id="g12"
         clip-path="url(#clipPath16)">
        <g
           id="g18"
           transform="translate(481.8358,199.2673)">
          <path
             d="m 0,0 -45.045,-13.772 c -2.422,-0.732 -3.865,-2.855 -3.865,-5.633 v -51.362 l 45.045,13.771 C -1.625,-56.324 0,-54.337 0,-51.362 Z M 18.164,15.377 V -60.06 l -85.23,-26.058 V -10.68 Z M -8.448,-43.972 v 7.217 l -5.114,-1.563 v -7.218 z m 0,-9.853 -32.006,-9.785 v 5.878 l 5.65,1.728 c 2.308,0.705 3.676,2.545 3.676,5.589 v 10.7 l -9.326,-2.851 v 6.352 l 9.326,2.851 v 10.957 c 0,1.272 -0.766,2.984 -4.287,1.907 l -5.039,-1.54 v 5.917 l 32.006,9.786 v -5.918 l -5.587,-1.709 c -2.388,-0.73 -3.738,-2.509 -3.738,-5.595 v -9.722 l 9.325,2.852 v -6.352 l -9.325,-2.852 v -11.935 c 0,-1.879 1.443,-2.789 4.349,-1.901 l 4.976,1.522 z"
             style="fill:#000000;fill-opacity:1;fill-rule:nonzero;stroke:none"
             id="path20" />
        </g>
        <g
           id="g22"
           transform="translate(475.9955,214.6578)">
          <path
             d="m 0,0 c -2.461,1.454 -3.669,1.857 -6.912,2.975 -0.671,0.246 -1.499,0.694 -1.499,1.499 0,0.783 0.805,1.857 1.767,3.02 3.803,4.586 3.87,4.72 4.765,5.973 l 1.543,-0.716 C -2.438,10.089 -2.819,9.686 -5.995,6.062 -6.308,5.727 -6.51,5.414 -6.51,5.145 -6.51,4.742 -5.839,4.541 -5.436,4.429 -3.423,3.848 0.022,2.573 1.387,1.723 Z"
             style="fill:#000000;fill-opacity:1;fill-rule:nonzero;stroke:none"
             id="path24" />
        </g>
        <g
           id="g26"
           transform="translate(438.0334,210.2061)">
          <path
             d="m 0,0 c -1.23,-1.655 -1.275,-2.841 -1.275,-3.132 0,-2.035 2.774,-1.23 4.921,-0.581 1.41,0.425 2.841,0.917 4.228,1.565 L 7.919,-3.892 C 7.427,-4.138 6.42,-4.563 4.183,-5.257 1.342,-6.107 0.112,-6.353 -1.118,-6.085 c -1.007,0.224 -1.768,1.186 -1.768,2.416 0,1.454 0.649,2.618 1.7,4.251 z M 7.158,8.053 V 6.51 C 5.346,5.615 4.049,4.563 2.394,2.93 L 1.365,3.736 C 1.834,4.228 1.924,4.317 2.863,5.078 L 2.841,5.1 C 0.895,4.474 -1.096,3.848 -2.259,3.423 V 5.19 c 0.425,0.112 2.214,0.649 2.952,0.872 z M 9.843,4.899 C 9.216,6.018 8.791,6.487 8.568,6.733 l 0.939,0.895 c 0.627,-0.649 1.074,-1.387 1.32,-1.789 z M 7.807,3.154 C 7.315,3.982 7.024,4.385 6.443,4.989 L 7.449,5.928 C 8.031,5.391 8.501,4.698 8.814,4.116 Z"
             style="fill:#000000;fill-opacity:1;fill-rule:nonzero;stroke:none"
             id="path28" />
        </g>
        <g
           id="g30"
           transform="translate(361.9288,101.9255)">
          <path
             d="m 0,0 c 0.174,3.386 0.043,8.405 0.043,8.405 l 31.663,9.68 -0.001,13.176 -31.663,-9.68 V 33.379 L 31.705,43.06 V 56.204 L -53.817,30.056 V 16.913 l 31.147,9.522 V 14.637 L -53.817,5.114 V -8.062 l 31.147,9.523 v -4.873 c 0,-15.603 -8.403,-21.915 -21.165,-25.826 l -9.982,-3.051 v -13.206 l 21.739,6.647 c 16.697,5.096 22.584,11.014 29.201,26.809 3.631,-1.443 13.495,-7.946 17.496,-12.533 l 22.484,6.874 C 30.375,-10.275 6.412,-1.256 0,0"
             style="fill:#000000;fill-opacity:1;fill-rule:nonzero;stroke:none"
             id="path32" />
        </g>
        <g
           id="g34"
           transform="translate(366.0135,170.1275)">
          <path
             d="m 0,0 c -0.313,-1.052 -1.656,-5.505 -1.902,-6.422 l 0.022,-0.023 c 0.291,0.336 0.851,0.94 1.835,1.253 2.283,0.672 2.372,-1.611 2.372,-2.864 v -0.671 c 0,-0.47 0,-1.88 1.231,-1.522 1.387,0.403 1.969,2.573 2.238,5.438 l 1.521,-0.045 c -0.38,-3.558 -1.186,-6.378 -3.893,-7.183 -2.686,-0.806 -2.708,1.902 -2.708,2.775 v 0.537 c 0,1.007 0.022,2.036 -1.074,1.7 -1.432,-0.425 -2.305,-2.125 -2.82,-3.804 -0.134,-0.582 -0.693,-3.066 -0.828,-3.58 l -1.656,0.022 c 0.851,2.976 2.887,10.585 3.849,14.188 z"
             style="fill:#000000;fill-opacity:1;fill-rule:nonzero;stroke:none"
             id="path36" />
        </g>
        <g
           id="g38"
           transform="translate(341.4876,162.4072)">
          <path
             d="m 0,0 v -1.768 c -0.38,-0.067 -0.738,-0.134 -1.455,-0.358 -2.439,-0.716 -6.4,-4.766 -6.422,-7.899 -0.022,-1.768 1.477,-1.88 2.484,-1.858 0.895,0.023 2.193,0.224 3.983,0.761 l -0.224,-1.947 c -1.454,-0.38 -3.132,-0.738 -4.542,-0.671 -1.567,0.045 -3.379,0.716 -3.379,3.111 0.022,1.298 0.559,4.05 4.028,7.25 l -0.023,0.022 c -3.177,-1.051 -3.558,-1.163 -6.847,-2.305 v 1.791 c 0.582,0.156 4.699,1.454 6.4,1.991 z"
             style="fill:#000000;fill-opacity:1;fill-rule:nonzero;stroke:none"
             id="path40" />
        </g>
        <g
           id="g42"
           transform="translate(286.418,98.5341)">
          <path
             d="m 0,0 -3.32,-1.015 c -2.173,-0.67 -4.564,-0.024 -6.214,2.414 l -7.575,11.192 -22.011,-6.73 9.965,-14.774 -27.149,-8.301 16.432,53.745 c 0.718,2.349 1.995,3.821 3.746,4.37 l 5.523,1.688 v 8.94 l -27.113,-8.29 -19.51,-63.815 c -0.756,-2.472 -2.217,-3.712 -3.773,-4.188 l -3.361,-1.027 v -12.923 l 91.586,28.001 z"
             style="fill:#000000;fill-opacity:1;fill-rule:nonzero;stroke:none"
             id="path44" />
        </g>
        <g
           id="g46"
           transform="translate(162.0574,43.5105)">
          <path
             d="m 0,0 c 8.367,13.267 9.552,21.615 10.735,30.81 0.413,3.326 1.996,5.046 3.787,5.593 l 3.329,1.018 V 49.828 L -60.06,26.008 V 12.865 l 48.793,14.918 c -1.968,-30.361 -16.682,-43.4 -43.997,-51.751 l -4.796,-1.466 v -12.978 l 14.444,4.418 c 18.697,5.714 27.723,11.206 38.749,24.783 2.846,-1.383 6.609,-4.769 8.741,-10.266 l 21.989,6.723 C 20.768,-8.953 7.622,-1.006 0,0 m 19.496,53.813 c 3.142,0.976 4.886,4.247 3.91,7.328 -0.917,3.142 -4.247,4.886 -7.328,3.909 -3.142,-0.977 -4.826,-4.247 -3.91,-7.328 0.977,-3.141 4.247,-4.825 7.328,-3.909 M -1.607,53.511 c -0.915,3.081 0.768,6.411 3.91,7.328 3.081,0.916 6.351,-0.829 7.328,-3.91 0.916,-3.081 -0.768,-6.351 -3.91,-7.328 -3.081,-0.916 -6.351,0.829 -7.328,3.91"
             style="fill:#000000;fill-opacity:1;fill-rule:nonzero;stroke:none"
             id="path48" />
        </g>
        <g
           id="g50"
           transform="translate(30.3801,44.4433)">
          <path
             d="m 0,0 -1.839,-0.562 c -2.9,-0.887 -4.322,0.076 -4.322,1.901 v 19.843 c 0,2.666 0.969,4.692 3.666,5.516 L 0,27.461 v 9.653 l -30.38,-9.289 v -9.652 l 1.845,0.564 c 2.909,0.889 4.316,-0.07 4.316,-1.883 V -2.989 c 0,-2.692 -0.97,-4.712 -3.661,-5.535 l -2.5,-0.764 v -9.633 L 0,-9.633 Z M 53.639,53.513 V 43.86 L 51.274,43.137 C 48.547,42.303 47.618,40.368 47.618,37.638 V -1.866 c 0,-12.927 -6.944,-22.846 -17.83,-26.136 l -53.776,-16.441 v 12.986 L 14.468,-19.7 c 7.387,2.269 10.844,8.688 10.844,17.416 v 34.285 c 0,1.813 -1.414,2.766 -4.319,1.878 L 19.064,33.29 v 9.652 z"
             style="fill:#000000;fill-opacity:1;fill-rule:nonzero;stroke:none"
             id="path52" />
        </g>
        <g
           id="g54"
           transform="translate(364.7697,216.742)">
          <path
             d="M 0,0 C 0,-3.205 -0.674,-4.738 -2.494,-5.294 L -14.671,-9.017 V 33.99 c 0,3.368 1.869,5.054 3.611,5.585 L 0,42.958 Z M 36.327,67.024 -23.254,48.808 c -5.923,-1.811 -9.373,-9.432 -9.373,-18.811 v -41.79 l 18.717,-9.786 22.46,6.867 c 6.047,1.849 9.467,9.36 9.496,18.448 v 44.739 l 10.213,3.123 c 2.893,0.884 4.452,-0.095 4.458,-1.913 V 15.902 c 0,-10.838 -0.88,-13.489 -7.549,-15.527 v -9.159 c 7.5,0.811 14.628,3.923 17.526,5.749 4.105,2.618 7.914,9.635 7.912,21.351 v 41.213 z"
             style="fill:#000000;fill-opacity:1;fill-rule:nonzero;stroke:none"
             id="path56" />
        </g>
        <g
           id="g58"
           transform="translate(278.0115,216.5155)">
          <path
             d="m 0,0 -8.022,-2.453 c -1.521,-0.465 -3.615,-1.938 -3.615,-4.911 v -14.258 l 7.901,2.416 C -1.488,-18.519 0,-16.727 0,-13.997 Z m 16.267,18.011 15.165,4.637 V 9.61 L 16.267,4.973 V -12.92 c 0,-8.494 -3.413,-14.261 -7.934,-15.644 l -24.467,-7.48 -10.741,5.646 V -8.62 c 0,8.194 3.15,14.405 8.05,15.903 L 0,13.038 v 24.181 l 26.408,8.074 V 32.631 L 19.804,30.612 C 17.145,29.799 16.267,27.883 16.267,25.14 Z M -33.86,26.83 v -44.525 l -21.934,-6.706 v 8.009 l 1.856,0.567 c 2.683,0.82 3.525,2.842 3.525,5.502 v 32.092 l -14.16,-4.329 v 12.817 l 14.16,4.329 v 11.362 l 16.553,5.061 V 39.647 l 24.316,7.434 V 34.264 Z"
             style="fill:#000000;fill-opacity:1;fill-rule:nonzero;stroke:none"
             id="path60" />
        </g>
        <g
           id="g62"
           transform="translate(202.8985,172.9893)">
          <path
             d="m 0,0 v -3.171 c 0,-2.708 -1.038,-4.668 -3.747,-5.496 l -10.524,-3.218 V 16.979 L -42.82,8.25 l 8.326,27.221 c 0.9,2.729 2.189,3.877 3.637,4.32 l 5.795,1.772 v 8.443 l -26.543,-8.115 -21.446,-70.767 c -1.081,-2.911 -2.297,-3.859 -3.618,-4.263 l -3.651,-1.116 v -12.88 l 22.751,6.956 10.554,34.657 14.758,4.513 V -32.44 L 6.424,-20.614 V 1.964 Z"
             style="fill:#000000;fill-opacity:1;fill-rule:nonzero;stroke:none"
             id="path64" />
        </g>
        <g
           id="g66"
           transform="translate(51.5615,147.2242)">
          <path
             d="m 0,0 c 0,-3.237 -1.619,-4.874 -3.682,-5.505 l -8.525,-2.606 V 7.451 c -10e-4,3.607 1.919,5.109 3.858,5.702 L 0,15.705 Z M 31.244,60.072 V 37.952 L 17.916,33.878 V 71.701 L -22.102,59.466 V 46.729 l 17.691,5.409 C -1.513,53.024 0,52.293 0,50.362 V 28.4 l -19.351,-5.916 c -5.995,-1.833 -9.753,-8.531 -9.753,-18.55 v -15.939 l 16.996,-8.913 20.039,6.127 c 5.996,1.833 9.975,8.354 9.985,18.369 v 17.605 l 13.328,4.074 V -7.664 l 18.217,5.569 v 32.922 l 8.118,2.482 v 12.828 l -8.118,-2.615 v 11.706 c 0,2.697 0.995,4.681 3.598,5.477 l 1.15,0.352 v 6.036 z"
             style="fill:#000000;fill-opacity:1;fill-rule:nonzero;stroke:none"
             id="path68" />
        </g>
        <g
           id="g70"
           transform="translate(496.831,109.5226)">
          <path
             d="M 0,0 V 12.452 L -3.132,-0.958 -6.524,-1.995 -9.582,9.522 V -2.929 l -3.206,-0.981 v 14.906 l 5.009,1.532 3.021,-10.9 0.037,0.011 2.946,12.724 4.944,1.512 V 0.969 Z M -23.15,-7.078 V 5.184 l -5.158,-1.576 v 2.634 l 13.643,4.171 V 7.779 L -19.637,6.258 V -6.004 Z"
             style="fill:#000000;fill-opacity:1;fill-rule:nonzero;stroke:none"
             id="path72" />
        </g>
      </g>
    </g>
  </g>
</svg>
