<?xml version="1.0" encoding="UTF-8" standalone="no"?>
<!-- Created with Inkscape (http://www.inkscape.org/) -->

<svg
   xmlns:dc="http://purl.org/dc/elements/1.1/"
   xmlns:cc="http://creativecommons.org/ns#"
   xmlns:rdf="http://www.w3.org/1999/02/22-rdf-syntax-ns#"
   xmlns:svg="http://www.w3.org/2000/svg"
   xmlns="http://www.w3.org/2000/svg"
   xmlns:sodipodi="http://sodipodi.sourceforge.net/DTD/sodipodi-0.dtd"
   xmlns:inkscape="http://www.inkscape.org/namespaces/inkscape"
   version="1.1"
   id="svg2"
   width="666.66669"
   height="355.98532"
   viewBox="0 0 666.66669 355.98532"
   sodipodi:docname="Rhythm World Wii (리듬 세상 Ｗｉｉ) Logo.svg"
   inkscape:version="0.92.4 (5da689c313, 2019-01-14)">
  <metadata
     id="metadata122">
    <rdf:RDF>
      <cc:Work
         rdf:about="">
        <dc:format>image/svg+xml</dc:format>
        <dc:type
           rdf:resource="http://purl.org/dc/dcmitype/StillImage" />
      </cc:Work>
    </rdf:RDF>
  </metadata>
  <defs
     id="defs6">
    <linearGradient
       x1="0"
       y1="0"
       x2="1"
       y2="0"
       gradientUnits="userSpaceOnUse"
       gradientTransform="matrix(-460.82251,0,0,460.82251,460.82251,133.49472)"
       spreadMethod="pad"
       id="linearGradient48">
      <stop
         style="stop-opacity:1;stop-color:#fd1e18"
         offset="0"
         id="stop22" />
      <stop
         style="stop-opacity:1;stop-color:#fd1e18"
         offset="0.0420859"
         id="stop24" />
      <stop
         style="stop-opacity:1;stop-color:#fc6510"
         offset="0.16"
         id="stop26" />
      <stop
         style="stop-opacity:1;stop-color:#f8fd00"
         offset="0.2779141"
         id="stop28" />
      <stop
         style="stop-opacity:1;stop-color:#f8fd00"
         offset="0.32"
         id="stop30" />
      <stop
         style="stop-opacity:1;stop-color:#2be606"
         offset="0.38640602"
         id="stop32" />
      <stop
         style="stop-opacity:1;stop-color:#2be606"
         offset="0.48"
         id="stop34" />
      <stop
         style="stop-opacity:1;stop-color:#03b3f4"
         offset="0.56233163"
         id="stop36" />
      <stop
         style="stop-opacity:1;stop-color:#03b3f4"
         offset="0.64"
         id="stop38" />
      <stop
         style="stop-opacity:1;stop-color:#011efe"
         offset="0.72233163"
         id="stop40" />
      <stop
         style="stop-opacity:1;stop-color:#011efe"
         offset="0.8"
         id="stop42" />
      <stop
         style="stop-opacity:1;stop-color:#b001fc"
         offset="0.90291454"
         id="stop44" />
      <stop
         style="stop-opacity:1;stop-color:#b001fc"
         offset="1"
         id="stop46" />
    </linearGradient>
    <clipPath
       clipPathUnits="userSpaceOnUse"
       id="clipPath58">
      <path
         d="M 0,266.989 H 500 V 0 H 0 Z"
         id="path56" />
    </clipPath>
    <linearGradient
       x1="0"
       y1="0"
       x2="1"
       y2="0"
       gradientUnits="userSpaceOnUse"
       gradientTransform="matrix(-12.788218,72.525589,72.525589,12.788218,430.20044,53.189938)"
       spreadMethod="pad"
       id="linearGradient94">
      <stop
         style="stop-opacity:1;stop-color:#f8ec19"
         offset="0"
         id="stop86" />
      <stop
         style="stop-opacity:1;stop-color:#f8ec19"
         offset="0.2"
         id="stop88" />
      <stop
         style="stop-opacity:1;stop-color:#f15a2b"
         offset="0.6"
         id="stop90" />
      <stop
         style="stop-opacity:1;stop-color:#f15a2b"
         offset="1"
         id="stop92" />
    </linearGradient>
    <clipPath
       clipPathUnits="userSpaceOnUse"
       id="clipPath104">
      <path
         d="M 0,266.989 H 500 V 0 H 0 Z"
         id="path102" />
    </clipPath>
    <linearGradient
       x1="0"
       y1="0"
       x2="1"
       y2="0"
       gradientUnits="userSpaceOnUse"
       gradientTransform="matrix(21.053692,-54.846741,-54.846741,-21.053692,352.35153,103.03815)"
       spreadMethod="pad"
       id="linearGradient136">
      <stop
         style="stop-opacity:1;stop-color:#ffffff"
         offset="0"
         id="stop130" />
      <stop
         style="stop-opacity:1;stop-color:#ffffff"
         offset="0.58496236"
         id="stop132" />
      <stop
         style="stop-opacity:1;stop-color:#fcf380"
         offset="1"
         id="stop134" />
    </linearGradient>
    <linearGradient
       x1="0"
       y1="0"
       x2="1"
       y2="0"
       gradientUnits="userSpaceOnUse"
       gradientTransform="matrix(12.875621,-33.542137,-33.542137,-12.875621,396.15436,87.364532)"
       spreadMethod="pad"
       id="linearGradient158">
      <stop
         style="stop-opacity:1;stop-color:#ffffff"
         offset="0"
         id="stop152" />
      <stop
         style="stop-opacity:1;stop-color:#ffffff"
         offset="0.58496236"
         id="stop154" />
      <stop
         style="stop-opacity:1;stop-color:#fcf380"
         offset="1"
         id="stop156" />
    </linearGradient>
    <clipPath
       clipPathUnits="userSpaceOnUse"
       id="clipPath168">
      <path
         d="M 0,266.989 H 500 V 0 H 0 Z"
         id="path166" />
    </clipPath>
    <linearGradient
       x1="0"
       y1="0"
       x2="1"
       y2="0"
       gradientUnits="userSpaceOnUse"
       gradientTransform="matrix(0,-39.93063,-39.93063,0,447.76196,99.287865)"
       spreadMethod="pad"
       id="linearGradient200">
      <stop
         style="stop-opacity:1;stop-color:#ffffff"
         offset="0"
         id="stop194" />
      <stop
         style="stop-opacity:1;stop-color:#ffffff"
         offset="0.58496236"
         id="stop196" />
      <stop
         style="stop-opacity:1;stop-color:#fcf380"
         offset="1"
         id="stop198" />
    </linearGradient>
    <clipPath
       clipPathUnits="userSpaceOnUse"
       id="clipPath210">
      <path
         d="M 0,266.989 H 500 V 0 H 0 Z"
         id="path208" />
    </clipPath>
    <linearGradient
       x1="0"
       y1="0"
       x2="1"
       y2="0"
       gradientUnits="userSpaceOnUse"
       gradientTransform="matrix(0,-39.93063,-39.93063,0,478.55362,104.797)"
       spreadMethod="pad"
       id="linearGradient234">
      <stop
         style="stop-opacity:1;stop-color:#ffffff"
         offset="0"
         id="stop228" />
      <stop
         style="stop-opacity:1;stop-color:#ffffff"
         offset="0.58496236"
         id="stop230" />
      <stop
         style="stop-opacity:1;stop-color:#fcf380"
         offset="1"
         id="stop232" />
    </linearGradient>
    <clipPath
       clipPathUnits="userSpaceOnUse"
       id="clipPath244">
      <path
         d="M 0,266.989 H 500 V 0 H 0 Z"
         id="path242" />
    </clipPath>
  </defs>
  <sodipodi:namedview
     id="namedview4"
     pagecolor="#ffffff"
     bordercolor="#000000"
     borderopacity="0.25"
     inkscape:showpageshadow="2"
     inkscape:pageopacity="0.0"
     inkscape:pagecheckerboard="0"
     inkscape:deskcolor="#d1d1d1"
     showgrid="false"
     inkscape:zoom="2.6517947"
     inkscape:cx="312.81289"
     inkscape:cy="186.95367"
     inkscape:window-width="1920"
     inkscape:window-height="1057"
     inkscape:window-x="-8"
     inkscape:window-y="-8"
     inkscape:window-maximized="1"
     inkscape:current-layer="g8" />
  <g
     id="g8"
     inkscape:groupmode="layer"
     inkscape:label="Rhythm World Wii (리듬 세상 Ｗｉｉ) Logo"
     transform="matrix(1.3333333,0,0,-1.3333333,0,355.98533)">
    <g
       id="g10">
      <g
         id="g12">
        <g
           id="g18">
          <g
             id="g20">
            <path
               d="m 373.883,266.99 c -32.387,0 -61.889,-18.16 -76.769,-45.767 v 0 c -4.164,0.549 -8.369,0.824 -12.593,0.824 v 0 c -14.081,0 -27.795,-3.032 -40.367,-8.858 v 0 c -15.557,13.243 -35.36,20.616 -56.248,20.616 v 0 c -32.114,0 -61.354,-17.948 -76.256,-45.294 v 0 c -5.236,0.871 -10.553,1.311 -15.922,1.311 v 0 C 42.943,189.822 0,147.244 0,94.91 v 0 C 0,42.577 42.943,0 95.728,0 v 0 c 40.665,0 75.951,25.042 89.662,61.586 v 0 c 8.929,-0.256 17.688,0.823 26.092,3.191 v 0 c 18.062,-21.066 44.85,-33.666 73.039,-33.666 v 0 c 41.494,0 77.16,25.882 90.412,63.556 v 0 c 47.456,0.559 85.89,38.994 85.89,86.158 v 0 c 0,47.511 -39.002,86.165 -86.94,86.165 z"
               style="fill:url(#linearGradient48);stroke:none"
               id="path50" />
          </g>
        </g>
      </g>
    </g>
    <g
       id="g52">
      <g
         id="g54"
         clip-path="url(#clipPath58)">
        <g
           id="g60"
           transform="translate(373.8827,256.8753)">
          <path
             d="m 0,0 c -31.108,0 -59.198,-18.931 -70.964,-46.924 -6.03,1.317 -12.19,1.982 -18.397,1.982 -14.859,0 -29.258,-3.771 -42.06,-10.964 -14.347,14.523 -33.846,22.721 -54.555,22.721 -30.927,0 -58.834,-18.829 -70.6,-46.705 -7.017,1.808 -14.246,2.722 -21.579,2.722 -47.208,0 -85.613,-38.039 -85.613,-84.797 0,-46.757 38.405,-84.796 85.613,-84.796 38.965,0 72.405,25.68 82.513,62.161 3.21,-0.407 6.441,-0.612 9.666,-0.612 9.388,0 18.48,1.652 27.118,4.92 16.022,-21.976 42.015,-35.359 69.497,-35.359 39.635,0 73.326,26.385 83.003,63.814 2.122,-0.176 4.246,-0.265 6.358,-0.265 42.361,0 76.826,34.117 76.826,76.052 C 76.826,-34.116 42.361,0 0,0"
             style="fill:#ffffff;fill-opacity:1;fill-rule:nonzero;stroke:none"
             id="path62" />
        </g>
        <g
           id="g64"
           transform="translate(373.8821,248.4471)">
          <path
             d="m 0,0 c -31.108,0 -57.348,-20.539 -65.648,-48.643 -7.474,2.394 -15.439,3.7 -23.713,3.7 -16.184,0 -31.2,-4.953 -43.618,-13.407 -12.482,15.343 -31.58,25.165 -52.996,25.165 -31.007,0 -57.155,-20.577 -65.385,-48.717 -8.348,3.058 -17.373,4.734 -26.795,4.734 -42.628,0 -77.184,-34.192 -77.184,-76.369 0,-42.177 34.556,-76.368 77.184,-76.368 38.182,0 69.868,27.439 76.066,63.47 5.168,-1.245 10.56,-1.921 16.114,-1.921 10.861,0 21.121,2.537 30.232,7.026 13.508,-22.438 38.177,-37.464 66.382,-37.464 38.554,0 70.509,28.07 76.362,64.784 4.21,-0.801 8.553,-1.235 12.999,-1.235 37.775,0 68.398,30.276 68.398,67.623 C 68.398,-30.276 37.775,0 0,0"
             style="fill:#000000;fill-opacity:1;fill-rule:nonzero;stroke:none"
             id="path66" />
        </g>
        <path
           d="m 368.231,110.299 h 43.695 v 14.336 h -43.695 z"
           style="fill:#000000;fill-opacity:1;fill-rule:nonzero;stroke:none"
           id="path68" />
        <g
           id="g70"
           transform="translate(500,128.6442)">
          <path
             d="m 0,0 c 0,4.975 -2.086,9.61 -5.724,12.718 -3.669,3.134 -8.642,4.475 -13.624,3.688 -6.616,-1.049 -12.221,-5.616 -14.944,-11.526 -0.658,0.845 -1.401,1.626 -2.224,2.328 -3.669,3.135 -8.644,4.479 -13.623,3.689 -4.847,-0.768 -9.15,-3.424 -12.176,-7.112 -2.064,1.468 -4.502,2.439 -7.177,2.829 C -80.07,8.157 -88.382,2.598 -91.18,-7.89 l -0.674,-2.526 c -2.953,7.107 -9.859,11.377 -17.732,10.926 -7.951,-0.464 -14.372,-5.649 -16.354,-13.209 l -1.056,-4.023 c -1.821,4.464 -5.225,7.94 -9.647,9.828 -4.545,1.941 -9.704,1.944 -14.154,0.007 -9.251,-4.026 -13.569,-13.968 -10.043,-23.127 l 19.354,-50.241 c 3.424,-8.891 10.662,-11.93 16.817,-11.93 0.983,0 1.94,0.078 2.848,0.222 11.395,1.805 14.819,10.234 16.404,16.418 l 0.162,0.634 0.003,-0.006 c 3.655,-9.385 11.922,-12.536 18.477,-11.495 8.448,1.337 13.907,6.527 16.225,15.426 l 5.294,20.347 v -14.375 c 0,-4.559 1.919,-8.813 5.264,-11.671 3.373,-2.879 7.925,-4.115 12.49,-3.394 7.134,1.131 12.967,6.786 14.636,13.632 0.887,-1.8 2.125,-3.413 3.666,-4.729 3.373,-2.878 7.925,-4.116 12.49,-3.394 8.476,1.344 15.116,9.075 15.116,17.601 v 35.848 c 0,3.281 -0.994,6.404 -2.798,8.962 C -1.653,-8.745 0,-4.471 0,0"
             style="fill:#000000;fill-opacity:1;fill-rule:nonzero;stroke:none"
             id="path72" />
        </g>
      </g>
    </g>
    <g
       id="g74">
      <g
         id="g76">
        <g
           id="g82">
          <g
             id="g84">
            <path
               d="m 481.97,136.725 c -5.303,-0.839 -9.601,-5.819 -9.601,-11.123 v 0 c 0,-5.303 4.298,-8.921 9.601,-8.081 v 0 c 5.303,0.84 9.602,5.82 9.602,11.123 v 0 c 0,4.788 -3.504,8.202 -8.088,8.202 v 0 c -0.493,0 -0.999,-0.039 -1.514,-0.121 m -30.791,-5.509 c -5.304,-0.84 -9.602,-5.82 -9.602,-11.123 v 0 c 0,-5.303 4.298,-8.92 9.602,-8.081 v 0 c 5.303,0.84 9.601,5.82 9.601,11.123 v 0 c 0,4.788 -3.504,8.203 -8.087,8.202 v 0 c -0.493,0 -0.999,-0.039 -1.514,-0.121 m -34.216,-12.635 -7.297,-27.352 -9.225,23.57 c -3.299,8.426 -15.933,7.754 -18.229,-0.993 v 0 l -7.85,-29.906 -9.031,24.5 c -2.034,5.518 -8.098,7.66 -12.765,5.629 v 0 c -5.354,-2.329 -7.395,-7.555 -5.54,-12.369 v 0 l 19.353,-50.241 c 2.444,-6.345 7.551,-6.877 10.482,-6.413 v 0 c 5.711,0.905 8.037,4.25 9.558,10.186 v 0 l 6.667,26.02 9.516,-24.427 c 1.966,-5.049 6.039,-6.746 9.305,-6.228 v 0 c 6.289,0.996 8.267,4.924 9.385,9.224 v 0 l 14.315,55.018 c 1.357,5.216 -0.208,11.229 -6.314,12.119 v 0 c -0.787,0.115 -1.528,0.169 -2.229,0.169 v 0 c -5.926,0 -8.873,-3.905 -10.101,-8.506 m 65.008,-4.32 c -4.422,-0.7 -8.008,-4.852 -8.008,-9.274 v 0 -35.848 c 0,-4.423 3.586,-7.439 8.008,-6.739 v 0 c 4.421,0.7 8.007,4.853 8.007,9.276 v 0 35.847 c 0,3.993 -2.922,6.839 -6.744,6.839 v 0 c -0.411,0 -0.833,-0.033 -1.263,-0.101 m -30.792,-5.509 c -4.422,-0.7 -8.007,-4.852 -8.007,-9.275 v 0 -35.847 c 0,-4.423 3.585,-7.44 8.007,-6.739 v 0 c 4.422,0.7 8.007,4.853 8.007,9.275 v 0 35.848 c 0,3.992 -2.923,6.839 -6.745,6.839 v 0 c -0.411,0 -0.832,-0.033 -1.262,-0.101"
               style="fill:url(#linearGradient94);stroke:none"
               id="path96" />
          </g>
        </g>
      </g>
    </g>
    <g
       id="g98">
      <g
         id="g100"
         clip-path="url(#clipPath104)">
        <g
           id="g106"
           transform="translate(352.4478,105.3015)">
          <path
             d="m 0,0 c 0,-1.047 -0.849,-1.896 -1.896,-1.896 -1.048,0 -1.897,0.849 -1.897,1.896 0,1.047 0.849,1.896 1.897,1.896 C -0.849,1.896 0,1.047 0,0"
             style="fill:#ffffff;fill-opacity:1;fill-rule:nonzero;stroke:none"
             id="path108" />
        </g>
        <g
           id="g110"
           transform="translate(389.2556,114.966)">
          <path
             d="m 0,0 c 0,-1.047 -0.849,-1.896 -1.896,-1.896 -1.048,0 -1.897,0.849 -1.897,1.896 0,1.047 0.849,1.896 1.897,1.896 C -0.849,1.896 0,1.047 0,0"
             style="fill:#ffffff;fill-opacity:1;fill-rule:nonzero;stroke:none"
             id="path112" />
        </g>
        <g
           id="g114"
           transform="translate(424.7838,121.7355)">
          <path
             d="m 0,0 c 0,-1.047 -0.849,-1.896 -1.896,-1.896 -1.048,0 -1.897,0.849 -1.897,1.896 0,1.047 0.849,1.896 1.897,1.896 C -0.849,1.896 0,1.047 0,0"
             style="fill:#ffffff;fill-opacity:1;fill-rule:nonzero;stroke:none"
             id="path116" />
        </g>
      </g>
    </g>
    <g
       id="g118">
      <g
         id="g120">
        <g
           id="g126">
          <g
             id="g128">
            <path
               d="m 351.86,102.849 c -0.982,-0.365 -1.482,-1.457 -1.117,-2.439 v 0 C 369.538,49.926 371.7,48.882 372.513,48.489 v 0 c 0.267,-0.128 0.547,-0.19 0.823,-0.19 v 0 c 0.705,0 1.383,0.396 1.709,1.073 v 0 c 0.396,0.822 0.148,1.789 -0.545,2.324 v 0 c -2.211,2.861 -13.523,32.102 -20.201,50.038 v 0 c -0.285,0.764 -1.009,1.234 -1.778,1.234 v 0 c -0.22,0 -0.443,-0.038 -0.661,-0.119"
               style="fill:url(#linearGradient136);stroke:none"
               id="path138" />
          </g>
        </g>
      </g>
    </g>
    <g
       id="g140">
      <g
         id="g142">
        <g
           id="g148">
          <g
             id="g150">
            <path
               d="m 395.897,87.265 c -0.988,-0.348 -1.506,-1.43 -1.159,-2.418 v 0 c 10.325,-29.313 12.579,-30.402 13.317,-30.759 v 0 c 0.268,-0.128 0.548,-0.189 0.824,-0.189 v 0 c 0.705,0 1.382,0.395 1.708,1.073 v 0 c 0.417,0.861 0.124,1.881 -0.65,2.399 v 0 c -1.576,1.804 -7.114,15.941 -11.62,28.735 v 0 c -0.275,0.78 -1.006,1.267 -1.789,1.267 v 0 c -0.209,0 -0.422,-0.035 -0.631,-0.108"
               style="fill:url(#linearGradient158);stroke:none"
               id="path160" />
          </g>
        </g>
      </g>
    </g>
    <g
       id="g162">
      <g
         id="g164"
         clip-path="url(#clipPath168)">
        <g
           id="g170"
           transform="translate(378.8755,81.0515)">
          <path
             d="m 0,0 c -0.163,0 -0.328,0.021 -0.492,0.066 -1.013,0.271 -1.612,1.31 -1.342,2.322 L 5.6,30.132 c 0.272,1.012 1.314,1.611 2.323,1.341 1.012,-0.271 1.612,-1.311 1.342,-2.322 L 1.831,1.407 C 1.603,0.559 0.836,0 0,0"
             style="fill:#ffffff;fill-opacity:1;fill-rule:nonzero;stroke:none"
             id="path172" />
        </g>
        <g
           id="g174"
           transform="translate(414.0742,86.8608)">
          <path
             d="m 0,0 c -0.163,0 -0.328,0.021 -0.492,0.066 -1.013,0.271 -1.612,1.31 -1.342,2.322 L 5.882,31.18 c 0.271,1.012 1.315,1.611 2.323,1.34 1.012,-0.27 1.611,-1.31 1.341,-2.322 L 1.831,1.407 C 1.603,0.559 0.836,0 0,0"
             style="fill:#ffffff;fill-opacity:1;fill-rule:nonzero;stroke:none"
             id="path176" />
        </g>
        <g
           id="g178"
           transform="translate(451.6895,129.0262)">
          <path
             d="m 0,0 c -2.184,0 -4.133,-1.421 -5.452,-2.74 -2.039,-2.04 -2.126,-5.675 -2.006,-6.905 0.126,-1.301 0.959,-1.914 2.006,-1.914 1.047,0 1.885,0.541 1.885,2.25 0,0.835 -0.057,2.901 1.17,4.183 0.553,0.579 1.409,1.333 2.397,1.333 1.047,0 1.896,0.85 1.896,1.897 C 1.896,-0.849 1.047,0 0,0"
             style="fill:#ffffff;fill-opacity:1;fill-rule:nonzero;stroke:none"
             id="path180" />
        </g>
      </g>
    </g>
    <g
       id="g182">
      <g
         id="g184">
        <g
           id="g190">
          <g
             id="g192">
            <path
               d="M 445.202,97.392 V 64.28 c 0,-3.522 2.178,-4.632 2.427,-4.747 v 0 c 0.258,-0.119 0.528,-0.176 0.794,-0.176 v 0 c 0.717,0 1.403,0.408 1.722,1.101 v 0 c 0.42,0.903 0.066,1.968 -0.788,2.448 v 0 c -0.066,0.066 -0.362,0.413 -0.362,1.374 v 0 33.112 c 0,1.046 -0.85,1.896 -1.897,1.896 v 0 c -1.046,0 -1.896,-0.85 -1.896,-1.896"
               style="fill:url(#linearGradient200);stroke:none"
               id="path202" />
          </g>
        </g>
      </g>
    </g>
    <g
       id="g204">
      <g
         id="g206"
         clip-path="url(#clipPath210)">
        <g
           id="g212"
           transform="translate(482.4781,134.5353)">
          <path
             d="m 0,0 c -2.184,0 -4.133,-1.421 -5.452,-2.74 -2.039,-2.04 -2.126,-5.675 -2.006,-6.905 0.126,-1.301 0.959,-1.914 2.006,-1.914 1.047,0 1.885,0.541 1.885,2.25 0,0.835 -0.057,2.901 1.17,4.183 0.553,0.579 1.409,1.333 2.397,1.333 1.047,0 1.896,0.85 1.896,1.897 C 1.896,-0.849 1.047,0 0,0"
             style="fill:#ffffff;fill-opacity:1;fill-rule:nonzero;stroke:none"
             id="path214" />
        </g>
      </g>
    </g>
    <g
       id="g216">
      <g
         id="g218">
        <g
           id="g224">
          <g
             id="g226">
            <path
               d="M 475.994,102.901 V 69.79 c 0,-3.523 2.178,-4.632 2.426,-4.748 v 0 c 0.258,-0.119 0.528,-0.175 0.795,-0.175 v 0 c 0.716,0 1.403,0.407 1.722,1.1 v 0 c 0.42,0.904 0.066,1.968 -0.789,2.447 v 0 c -0.066,0.067 -0.362,0.413 -0.362,1.376 v 0 33.111 c 0,1.046 -0.849,1.896 -1.896,1.896 v 0 c -1.048,0 -1.896,-0.85 -1.896,-1.896"
               style="fill:url(#linearGradient234);stroke:none"
               id="path236" />
          </g>
        </g>
      </g>
    </g>
    <g
       id="g238">
      <g
         id="g240"
         clip-path="url(#clipPath244)">
        <g
           id="g246"
           transform="translate(358.5166,182.6211)">
          <path
             d="m 0,0 c 0,0 -1.712,-14.593 -20.398,-33.442 l -9.567,7.944 c 9.575,7.754 20.609,25.472 20.609,41.26 v 0.446 c 0,1.896 -1.467,1.894 -3.295,1.539 l -1.847,-0.359 v 5.62 L 6.006,26.994 V 18.748 C 6.006,2.624 14.901,0.032 26.72,-0.084 L 20.841,-9.23 C 2.881,-7.619 0,0 0,0 M 57.423,22.569 V 12.3 L 45.748,10.031 V -9.254 l -15.593,-3.031 v 44.434 c 0,2.001 -1.643,1.98 -3.515,1.616 L 24.76,33.4 v 5.93 l 20.988,4.079 V 20.299 Z M 16.184,-42.136 c -2.129,0.042 -6.47,0.127 -6.47,6.801 0,6.917 5.523,11.879 11.527,11.88 6.163,0 6.596,-4.176 6.596,-6.718 0,-6.231 -5.371,-12.087 -11.653,-11.963 m 15.593,27.506 c -7.237,1.631 -16.553,1.803 -27.12,-5.394 -6.948,-4.732 -10.452,-10.497 -10.452,-17.102 0,-2.38 0.522,-4.742 1.559,-7.013 3.184,-6.972 7.898,-7.346 14.308,-7.855 10.474,-0.831 16.774,1.94 23.054,6.195 7.017,4.761 10.599,10.441 10.599,17.081 0,5.928 -3.042,12.082 -11.948,14.088"
             style="fill:#eb6100;fill-opacity:1;fill-rule:nonzero;stroke:none"
             id="path248" />
        </g>
        <g
           id="g250"
           transform="translate(295.9252,175.8847)">
          <path
             d="m 0,0 v -5.837 l 1.519,0.295 c 1.512,0.294 2.864,0.492 2.864,-1.517 v -74.339 l 15.27,2.969 V 3.82 Z m -17.888,-18.621 v -5.837 l 1.518,0.295 c 1.512,0.294 2.897,0.563 2.897,-1.446 V -42.62 l -12.808,-2.49 v -9.151 l 12.808,2.489 v -50.411 l 14.048,2.731 v 84.42 z m 1.985,-48.489 -6.55,-8.992 c -12.797,4.402 -16.253,11.004 -16.253,11.004 0,0 -4.846,-9.277 -15.004,-18.839 l -8.475,7.355 c 0,0 14.973,14.352 14.973,28.786 v 10.986 c 0,2.01 -1.588,1.968 -3.364,1.622 l -1.783,-0.346 v 6.347 l 19.61,3.812 v -20.211 c 0,-19.353 16.846,-21.524 16.846,-21.524"
             style="fill:#fdd000;fill-opacity:1;fill-rule:nonzero;stroke:none"
             id="path252" />
        </g>
        <g
           id="g254"
           transform="translate(171.1135,169.5672)">
          <path
             d="m 0,0 v -9.36 l 48.075,9.345 v -9.12 L -7.64,-19.965 c -4.497,-0.874 -8.142,2.217 -8.142,6.905 v 10.866 c 0,1.88 -0.166,2.45 -4.383,1.63 l -0.799,-0.155 v 5.764 l 69.039,13.42 v -9.12 z m 48.075,-13.603 v -9.121 l -80.844,-15.714 v 9.12 z M 30.408,-51.744 3.175,-57.037 v 11.892 l 27.233,5.293 z m 16.039,24.236 -64.541,-12.545 v -6.262 l 0.8,0.155 c 4.224,0.821 4.39,0.13 4.39,-1.933 v -13.104 c 0,-4.22 3.281,-7.002 7.328,-6.215 l 46.324,9.004 c 4.047,0.787 7.327,4.845 7.327,9.064 v 20.455 c 0,0.938 -0.729,1.556 -1.628,1.381"
             style="fill:#eb6100;fill-opacity:1;fill-rule:nonzero;stroke:none"
             id="path256" />
        </g>
        <g
           id="g258"
           transform="translate(102.8732,133.8709)">
          <path
             d="m 0,0 v -6.276 l 1.79,0.348 c 1.782,0.346 3.414,0.663 3.414,-1.679 V -44.675 C 2.571,-46.18 -0.801,-47.422 -4.957,-48.23 l -24.62,-4.785 v 11.345 l 22.83,4.438 c 1.136,0.221 2.057,1.343 2.057,2.506 v 22.463 c 0,1.163 -0.921,1.927 -2.057,1.706 l -42.823,-8.324 v -9.7 l 29.207,5.677 v -7.628 l -30.564,-5.941 v -6.382 l 0.721,0.14 c 1.458,0.283 3.618,0.703 3.618,-1.466 v -15.102 c 0,-3.722 2.947,-6.167 6.583,-5.46 l 32.148,6.249 c 6.03,1.172 10.408,2.647 13.061,4.004 v -35.541 l 16.557,3.218 V 4.23 Z"
             style="fill:#fdd000;fill-opacity:1;fill-rule:nonzero;stroke:none"
             id="path260" />
        </g>
        <g
           id="g262"
           transform="translate(496.7084,41.3793)">
          <path
             d="m 0,0 v 9.192 l -2.045,-9.59 -2.215,-0.43 -1.996,8.804 V -1.216 L -8.35,-1.623 V 9.381 l 3.271,0.636 1.972,-8.345 0.024,0.005 1.924,9.102 3.228,0.627 V 0.402 Z M -15.116,-2.938 V 6.114 L -18.484,5.46 v 1.945 l 8.908,1.732 V 7.191 L -12.822,6.56 v -9.052 z"
             style="fill:#000000;fill-opacity:1;fill-rule:nonzero;stroke:none"
             id="path264" />
        </g>
      </g>
    </g>
  </g>
</svg>
