<?xml version="1.0" encoding="UTF-8" standalone="no"?>
<!-- Created with Inkscape (http://www.inkscape.org/) -->

<svg
   version="1.1"
   id="svg2"
   xml:space="preserve"
   width="666.66669"
   height="361.66934"
   viewBox="0 0 666.66669 361.66934"
   sodipodi:docname="Rhythm Heaven Fever Logo (Wordmark).ai"
   xmlns:inkscape="http://www.inkscape.org/namespaces/inkscape"
   xmlns:sodipodi="http://sodipodi.sourceforge.net/DTD/sodipodi-0.dtd"
   xmlns="http://www.w3.org/2000/svg"
   xmlns:svg="http://www.w3.org/2000/svg"><defs
     id="defs6"><clipPath
       clipPathUnits="userSpaceOnUse"
       id="clipPath16"><path
         d="M 0,271.252 H 500 V 0 H 0 Z"
         id="path14" /></clipPath></defs><sodipodi:namedview
     id="namedview4"
     pagecolor="#ffffff"
     bordercolor="#666666"
     borderopacity="1.0"
     inkscape:pageshadow="2"
     inkscape:pageopacity="0.0"
     inkscape:pagecheckerboard="0" /><g
     id="g8"
     inkscape:groupmode="layer"
     inkscape:label="Rhythm Heaven Fever Logo (Wordmark)"
     transform="matrix(1.3333333,0,0,-1.3333333,0,361.66933)"><g
       id="g10"><g
         id="g12"
         clip-path="url(#clipPath16)"><g
           id="g18"
           transform="translate(113.8203,122.1763)"><path
             d="m 0,0 c 0.793,0.181 1.6,0.279 2.409,0.279 6.036,0 11.892,-5.145 11.132,-13.622 -0.512,-5.889 -4.254,-10.424 -11.115,-13.955 -0.991,-0.509 -2.029,-0.988 -3.135,-1.451 -3.413,-1.417 -18.751,-7.387 -26.717,-10.455 v -0.018 l -0.035,-0.016 c -0.246,-2.094 -0.528,-4.189 -0.807,-6.299 5.756,2.177 11.445,4.338 17.069,6.464 9.287,3.579 16.197,-0.791 15.52,-9.895 -0.709,-9.4 -5.375,-16.031 -13.161,-20.204 -1.798,-0.958 -3.759,-1.781 -5.871,-2.474 -5.954,-1.996 -11.941,-3.975 -18.011,-5.922 v -0.016 l -0.032,-0.016 c -1.073,-7.603 -2.128,-15.306 -3.101,-23.14 -0.956,-7.768 -5.624,-14.48 -12.782,-18.29 -2.391,-1.237 -5.064,-2.161 -7.95,-2.738 -7.668,-1.486 -12.089,1.452 -13.706,2.887 -2.589,2.291 -3.017,5.112 -3.084,6.959 -0.081,1.863 0.198,3.447 0.198,3.447 3.679,23.716 9.401,47.402 13.706,71.134 1.83,9.631 3.298,14.25 12.799,19.314 1.765,0.939 3.826,1.895 6.184,2.902 11.661,4.931 23.337,9.336 27.807,11.05 C -9.911,-3.003 -2.886,-0.677 0,0 m 93.597,-64.704 c 0.398,-10.901 -6.003,-19.164 -16.376,-21.786 -13.64,-3.447 -27.493,-7.01 -41.578,-10.522 -9.78,-2.409 -17.237,3.496 -16.478,12.683 2.062,26.702 4.207,50.996 4.7,74.384 0.216,8.212 5.526,16.392 14.976,19.493 11.859,3.909 23.602,7.538 35.313,10.919 1.335,0.379 2.637,0.593 3.891,0.593 6.496,0 11.463,-4.337 11.975,-10.95 0.642,-8.033 -5.691,-16.462 -14.101,-18.836 -7.094,-1.996 -14.202,-4.089 -21.377,-6.25 0.017,-1.979 0.033,-3.975 0.033,-5.986 5.18,1.532 10.326,3.049 15.455,4.5 8.445,2.442 15.569,-2.423 15.915,-10.966 0.396,-9.764 -4.272,-17.004 -15.52,-20.088 -5.377,-1.486 -10.787,-2.986 -16.229,-4.519 -0.065,-2.145 -0.098,-4.305 -0.165,-6.482 7.719,2.144 15.355,4.238 22.909,6.266 8.905,2.393 16.329,-3.017 16.657,-12.453 m 105.21,83.918 c -3.067,-7.999 -25.614,-66.402 -30.975,-78.854 -3.249,-7.553 -6.861,-12.188 -11.412,-14.365 -1.056,-0.511 -2.145,-0.874 -3.298,-1.121 -5.459,-1.139 -12.271,1.419 -17.532,11.099 -3.843,7.075 -34.487,61.239 -36.567,65.362 -4.749,9.352 -4.237,19.297 4.85,24.377 l 0.528,0.263 c 7.835,4.074 16.822,1.946 22.283,-7.422 3.924,-6.761 13.951,-24.649 22.345,-39.706 7.768,17.862 15.061,34.594 22.35,51.021 1.6,3.579 4.073,6.284 7.075,7.933 2.261,1.254 4.801,1.896 7.489,1.896 h 0.263 c 1.568,-0.016 3.133,-0.312 4.619,-0.891 7.322,-2.786 11.231,-11.05 7.982,-19.592 m 75.999,-75.819 c -1.764,-0.956 -3.81,-1.566 -6.036,-1.731 -12.915,-0.99 -25.763,-2.177 -38.627,-3.596 -8.906,-1.007 -16.888,5.822 -17.746,14.925 -2.623,26.324 -4.668,49.991 -5.707,73.328 -0.263,6.038 3.249,11.562 8.428,14.218 1.733,0.891 3.629,1.451 5.641,1.6 11.71,0.907 23.834,1.565 35.51,1.928 7.732,0.241 14.266,-6.447 14.81,-14.215 0.412,-6.003 -2.755,-11.199 -7.8,-13.557 -1.684,-0.777 -3.58,-1.238 -5.626,-1.303 -6.894,-0.249 -13.771,-0.562 -20.665,-0.991 l -0.033,-0.016 c 0.165,-1.946 0.331,-3.909 0.512,-5.872 4.931,0.297 9.878,0.562 14.827,0.776 8.164,0.33 15.536,-6.054 16.774,-14.217 0.923,-6.087 -2.047,-11.562 -7.159,-14.102 -1.717,-0.858 -3.661,-1.386 -5.789,-1.5 -5.096,-0.265 -10.194,-0.577 -15.306,-0.958 l 0.016,-0.016 h -0.049 c 0.263,-2.045 0.545,-4.105 0.808,-6.168 7.191,0.528 14.398,0.974 21.606,1.337 8.51,0.395 16.709,-6.136 18.472,-14.713 1.321,-6.398 -1.566,-12.304 -6.861,-15.157 m 49.248,59.44 c -0.461,0 -4.733,0.198 -6.926,0.282 -0.858,3.875 -1.651,7.735 -2.342,11.61 2.161,-0.098 4.321,-0.198 6.48,-0.314 3.596,-0.181 7.01,-2.919 7.719,-6.101 0.693,-3.102 -1.467,-5.477 -4.931,-5.477 m 49.429,-37.157 c -5.987,5.145 -11.76,10.373 -17.316,15.634 6.514,5.838 8.608,14.497 5.754,24.724 -5.573,18.785 -23.184,36.126 -44.3,37.389 -5.658,0.339 -19.6,0.956 -22.89,0.956 -2.657,0 -4.901,-0.577 -6.945,-1.565 -4.815,-2.377 -7.866,-7.159 -7.322,-12.669 2.358,-23.304 7.487,-46.542 13.804,-71.397 2.54,-10.192 10.506,-15.537 21.869,-15.223 2.491,0.065 4.701,0.561 6.599,1.386 5.672,2.457 8.426,7.915 6.447,14.085 -1.6,5.029 -3.133,10.011 -4.584,14.976 l 0.049,-0.067 -0.017,0.084 c 7.736,-7.671 15.851,-15.339 24.295,-22.926 7.206,-6.531 18.34,-8.61 25.398,-5.426 0.463,0.214 0.908,0.444 1.338,0.693 6.926,4.156 5.721,12.566 -2.179,19.346"
             style="fill:#000000;fill-opacity:1;fill-rule:nonzero;stroke:none"
             id="path20" /></g><g
           id="g22"
           transform="translate(18.4614,157.9941)"><path
             d="m 0,0 c -6.746,-3.342 -6.996,0.196 -6.996,12.35 0,11.86 0.455,15.51 6.872,14.491 C 6.254,25.828 9.589,21.211 9.589,15.135 9.589,9.02 6.568,3.254 0,0 m -18.461,49.463 v -85.016 l 11.465,1.816 c 0,11.979 -0.333,17.674 0.551,18.107 0.873,0.427 3.216,-4.804 12.862,-18.812 l 19.249,3.049 -14.875,23.236 c 27.343,19.199 21.334,75.111 -29.252,57.62 m 70.538,1.035 v -18.84 c 0,-3.484 -2.571,-6.716 -5.742,-7.218 -3.172,-0.502 -5.742,1.906 -5.742,5.39 V 42.71 L 31.86,41.327 v -57.004 l 11.58,1.834 V 3.264 c 0,3.597 2.654,6.934 5.926,7.452 3.271,0.518 5.929,-1.969 5.929,-5.565 V -6.037 l 8.816,1.396 V 52.405 Z M 92.652,45.447 V 30.245 c 0,-8.963 -2.493,-12.548 -5.559,-13.033 -3.065,-0.485 -5.55,2.024 -5.55,8.732 V 37.715 L 69.502,35.808 v -9.972 c 0,-17.573 5.723,-22.017 13.745,-20.742 3.56,0.566 7.583,2.407 10.112,5.67 C 92.666,3.551 85.13,-3.434 76.793,-4.754 l -7.291,-1.155 v -15.282 l 5.742,0.91 c 14.091,2.231 26.136,12.888 26.136,38.163 V 46.829 Z M 105.23,55.61 V 39.625 l 5.988,0.949 c 5.227,0.827 6.511,-0.447 6.511,-5.268 V -2.402 l 9.688,1.535 v 41.799 c 0,3.485 1.284,6.512 6.511,7.344 l 6.194,0.981 v 11.879 z m 57.418,3.189 V 39.966 c 0,-3.481 -2.569,-6.722 -5.738,-7.224 -3.179,-0.503 -5.748,1.914 -5.748,5.394 V 51.013 L 142.433,49.63 V -4.405 l 11.578,1.834 v 14.147 c 0,3.59 2.648,6.929 5.926,7.448 3.277,0.519 5.931,-1.973 5.931,-5.562 V 2.271 l 8.818,1.397 v 57.038 z m 292.148,52.676 C 454.747,63.429 453.047,67.2 435.511,102.508 l -7.713,-1.222 V 35.387 l 9.25,1.474 c 0.216,33.18 0.291,33.319 18.05,5.943 l 10.956,1.736 v 68.718 z M 218.89,80.329 C 208.403,51.054 206.621,48.744 204.628,48.427 c -1.625,-0.259 -4.54,0.837 -14.173,24.413 L 180.078,71.196 V 14.17 l 9.66,1.53 c 0,16.423 0.266,22.361 1.155,22.502 1.257,0.199 3.007,-2.034 8.59,-15.742 l 5.188,0.822 c 5.884,15.261 8.414,19.694 9.329,19.839 1.317,0.208 1.578,-8.178 1.578,-26.287 l 9.664,1.531 v 62.97 z m 58.973,25.91 v -24.88 c 0,-4.68 -3.462,-9.022 -7.72,-9.697 -4.264,-0.675 -7.719,2.565 -7.719,7.247 V 94.743 L 252.249,93.131 V 15.715 l 14.003,2.218 v 25.276 c 0,4.829 3.571,9.317 7.96,10.012 4.409,0.698 7.968,-2.652 7.968,-7.474 V 27.232 l 10.302,1.632 v 79.69 z M 323.811,76.283 V 95.104 L 298.778,91.121 V 40.472 l 25.033,3.964 V 54.63 c -15.502,-2.455 -15.502,-0.93 -15.502,0.848 0,1.775 0.007,3.313 13.328,5.429 v 8.916 c -13.315,-2.114 -13.323,-0.964 -13.323,0.931 0,1.894 1.952,3.384 15.497,5.529 m 20.085,-17.852 c -5.734,-0.911 -5.732,-0.912 -3.875,6.502 1.082,4.317 2.51,5.696 3.808,5.903 1.706,0.272 2.673,-0.433 3.881,-4.68 1.937,-6.807 1.932,-6.808 -3.814,-7.725 m 0.438,34.085 c -4.969,-0.793 -7.148,-4.606 -18.736,-57.465 l 9.077,1.438 c 2.588,11.657 2.825,13.176 9.089,14.174 6.606,1.052 6.83,0.115 9.666,-11.204 l 12.631,2.001 c -12.741,50.469 -15.64,52.023 -21.727,51.056 m 38.704,13.559 c -3.359,-19.99 -7.108,-32.467 -8.778,-32.734 -2.584,-0.413 -6.095,13.381 -8.343,26.932 l -8.28,-1.311 c 3.349,-23.641 8.058,-37.18 12.542,-45.568 l 10.869,1.721 c 5.544,12.304 9.105,26.28 13.51,52.785 z m 39.361,-26.674 v 18.82 L 397.366,94.238 V 43.589 l 25.033,3.965 v 10.194 c -15.502,-2.456 -15.502,-0.93 -15.502,0.848 0,1.775 0.022,3.32 13.343,5.436 v 8.539 c -13.314,-2.114 -13.343,-0.212 -13.343,1.683 0,1.894 1.957,3.002 15.502,5.147 m 58.145,-33.136 v 4.251 l -0.983,-4.407 -1.064,-0.168 -0.96,4.099 v -4.251 l -1.006,-0.16 v 5.089 l 1.572,0.249 0.948,-3.886 0.011,0.002 0.925,4.183 1.552,0.246 v -5.089 z m -7.265,-1.151 v 4.187 l -1.619,-0.257 v 0.9 l 4.282,0.678 v -0.899 l -1.561,-0.248 v -4.186 z"
             style="fill:#000000;fill-opacity:1;fill-rule:nonzero;stroke:none"
             id="path24" /></g></g></g></g></svg>
