<?xml version="1.0" encoding="UTF-8" standalone="no"?>
<!-- Generator: Adobe Illustrator 25.0.0, SVG Export Plug-In . SVG Version: 6.00 Build 0)  -->

<svg
   version="1.1"
   id="Layer_1"
   x="0px"
   y="0px"
   viewBox="0 0 666.66699 460.46073"
   xml:space="preserve"
   sodipodi:docname="Rhythm World Wii (리듬 세상 Ｗｉｉ) Logo with Tagline.svg"
   width="666.66699"
   height="460.46072"
   inkscape:version="1.2.2 (b0a8486541, 2022-12-01)"
   xmlns:inkscape="http://www.inkscape.org/namespaces/inkscape"
   xmlns:sodipodi="http://sodipodi.sourceforge.net/DTD/sodipodi-0.dtd"
   xmlns="http://www.w3.org/2000/svg"
   xmlns:svg="http://www.w3.org/2000/svg"><defs
   id="defs179" /><sodipodi:namedview
   id="namedview177"
   pagecolor="#505050"
   bordercolor="#eeeeee"
   borderopacity="1"
   inkscape:showpageshadow="0"
   inkscape:pageopacity="0"
   inkscape:pagecheckerboard="0"
   inkscape:deskcolor="#505050"
   showgrid="false"
   inkscape:zoom="2.844"
   inkscape:cx="250.17581"
   inkscape:cy="172.64416"
   inkscape:window-width="2560"
   inkscape:window-height="1404"
   inkscape:window-x="2560"
   inkscape:window-y="0"
   inkscape:window-maximized="1"
   inkscape:current-layer="Layer_1" />
<style
   type="text/css"
   id="style2">
	.st0{fill:url(#Spectrum_1_);}
	.st1{fill:#FFFFFF;}
	.st2{fill:url(#SVGID_1_);}
	.st3{fill:url(#SVGID_2_);}
	.st4{fill:url(#SVGID_3_);}
	.st5{fill:url(#SVGID_4_);}
	.st6{fill:url(#SVGID_5_);}
	.st7{fill:#EB6100;}
	.st8{fill:#FDD000;}
</style>
<path
   id="리듬을_타면서_버튼을_꾹꾹_x266A_"
   d="m 83.845615,415.75033 v 30.35813 l -5.326776,1.32808 v -8.82625 c -1.559214,0.59192 -3.973748,1.48185 -4.863656,1.77933 -1.170707,0.39392 -2.333334,0.75843 -3.491015,1.09127 -1.18388,0.36141 -2.333321,0.6949 -3.449855,0.9954 -1.11652,0.30318 -2.118227,0.56392 -3.006614,0.78544 l -7.788098,1.94177 v -12.11068 l 12.1299,-3.02434 v -5.36092 l -12.1299,3.02429 v -3.35697 l 17.496049,-4.36223 v 12.04167 l -12.047726,3.00383 v 5.42734 l 2.824308,-0.70415 c 0.860414,-0.21456 1.835774,-0.46871 2.926095,-0.76265 1.08868,-0.2935 2.198614,-0.61731 3.328308,-0.96522 1.131334,-0.35108 2.252935,-0.71346 3.369469,-1.09404 0.905533,-0.30851 3.304575,-1.20544 4.702735,-1.75004 v -18.13095 z m 36.215645,10.1797 v -3.73043 l -32.62195,8.13355 v 3.73047 z m -27.72076,0.49482 23.44657,-5.84587 v -3.69405 l -18.192795,4.53597 v -4.39824 l 17.880085,-4.45801 v -3.69402 l -23.133874,5.76791 v 11.78631 z m 23.05569,15.54766 V 429.74 l -23.01741,5.7389 v 12.23247 z m -5.25536,-2.42017 -12.468354,3.10872 v -4.77156 l 12.468354,-3.10872 z m 43.61293,-22.80893 v -3.46639 l -32.57218,8.12114 v 3.46639 z m -27.64022,22.7057 23.76604,-5.92553 v -3.39356 l -18.47885,4.60729 v -1.90316 l 17.6951,-4.41187 v -8.5385 l -23.0205,5.73967 v 3.3571 l 17.77316,-4.43132 v 1.9001 l -17.73493,4.42185 v 8.57793 z m 11.54961,-23.46546 c 1.3218,-0.32955 2.55389,-0.83508 3.69328,-1.51294 1.13939,-0.67785 2.12327,-1.44238 2.95762,-2.29793 0.83136,-0.87528 1.49525,-1.80501 1.98569,-2.78776 0.48745,-0.98202 0.73267,-1.93864 0.73267,-2.87203 0,-0.90715 -0.24522,-1.72981 -0.73267,-2.46879 -0.49045,-0.73816 -1.15433,-1.33688 -1.98569,-1.79757 -0.83435,-0.4395 -1.81823,-0.71924 -2.95762,-0.84062 -1.13939,-0.12133 -2.37148,-0.0183 -3.69328,0.31124 -1.34872,0.33627 -2.59576,0.85136 -3.74711,1.54387 -1.15433,0.69328 -2.14419,1.4651 -2.97855,2.32068 -0.85826,0.88196 -1.51917,1.81096 -1.98419,2.78736 -0.46652,0.9768 -0.69828,1.91842 -0.69828,2.82557 0,0.93338 0.23176,1.77108 0.69828,2.51525 0.46502,0.74451 1.12593,1.34396 1.98419,1.79793 0.83436,0.43954 1.82422,0.71192 2.97855,0.81791 1.15133,0.10668 2.39837,-0.006 3.74711,-0.34217 z m -4.22559,-6.00818 c 0,-0.93339 0.40969,-1.87561 1.22909,-2.83244 0.82239,-0.9576 1.82122,-1.58292 2.9965,-1.87597 1.17527,-0.29302 2.17409,-0.16578 2.99349,0.38249 0.82239,0.54752 1.23208,1.2854 1.23208,2.21883 0,0.93046 -0.40969,1.87561 -1.23208,2.83317 -0.81941,0.95687 -1.81824,1.5822 -2.99349,1.8752 -1.17527,0.29306 -2.17411,0.16582 -2.9965,-0.38172 -0.8194,-0.54826 -1.22909,-1.28906 -1.22909,-2.21956 z m 63.74313,-11.62998 v -10.51734 l -5.02965,1.25403 v 17.02922 c -1.94496,0.81418 -5.16721,2.0778 -6.73179,2.53911 -1.81614,0.538 -3.45671,0.99092 -4.91892,1.35551 l -4.12151,1.02759 v -3.42639 l 11.34591,-2.82886 v -4.41024 l -11.34591,2.82897 v -3.16312 l 11.65061,-2.90482 v -4.35291 l -17.26942,4.30575 v 19.60849 l 9.28788,-2.31573 c 1.84072,-0.45894 3.71228,-0.97717 5.61762,-1.5607 1.67333,-0.5079 4.78229,-1.5643 6.48553,-2.24179 v 8.48882 l 5.02965,-1.25403 v -15.94492 l 4.91892,-1.22644 v -3.51664 z m 23.72583,-14.35067 -16.60334,4.13969 v 16.93425 l 16.60334,-4.13965 v -2.46167 l 5.58531,-1.39257 v 8.72664 l 5.15615,-1.28556 v -24.57732 l -5.15615,1.2856 v 3.76684 l -5.58531,1.39258 z m -11.32958,6.51884 6.2497,-1.55823 v 9.54925 l -6.2497,1.55823 z m 0.0795,28.51255 22.61461,-5.63847 v -3.73047 l -17.38217,4.33387 v -8.53687 l -5.23244,1.30456 z m 11.25008,-28.91208 5.58531,-1.39258 v 4.66231 l -5.58531,1.39258 z m 26.25682,-6.1115 v -6.85075 l -5.04431,1.2577 v 6.85075 c 0,1.2419 -0.22179,2.49853 -0.66238,3.77181 -0.44358,1.27406 -1.07001,2.55579 -1.87925,3.84254 -0.78525,1.28349 -1.72637,2.53817 -2.81739,3.76257 -1.09397,1.22514 -2.27787,2.3943 -3.55469,3.51079 l 3.68357,1.34355 c 1.89124,-1.69182 3.46178,-3.33342 4.71462,-4.93369 1.25282,-1.59757 2.30784,-3.28922 3.16803,-5.07837 0.80924,1.262 1.87025,2.35571 3.18604,3.28036 1.31278,0.92273 2.81739,1.7408 4.5108,2.44682 l 3.46177,-3.52279 c -1.08198,-0.32816 -2.14901,-0.80351 -3.20402,-1.4279 -1.05502,-0.62174 -1.99014,-1.36532 -2.79938,-2.22689 -0.83623,-0.85482 -1.5046,-1.79752 -2.00813,-2.82459 -0.50352,-1.02705 -0.75528,-2.09525 -0.75528,-3.20191 z m 12.45331,2.0892 v 16.14825 l 4.92334,-1.22753 v -29.75432 l -4.92334,1.22753 v 9.02396 l -7.85451,1.95842 v 4.58203 z m -78.09581,55.82448 -6.94361,1.73125 v -6.90785 l -5.48155,1.3667 v 19.80014 l 17.74313,-4.42387 v -8.97938 l 5.31965,-1.32633 v 16.93637 l 5.35927,-1.33623 v -29.43255 l -5.35927,1.33623 v 9.23898 l -5.31965,1.32633 v -7.56356 l -5.31797,1.32593 z m 0,9.6351 -6.94361,1.73124 v -6.34579 l 6.94361,-1.73124 z m 50.75021,-8.78862 v -3.67505 l -31.55263,7.86695 v 3.67506 z m -22.39892,-4.4477 v -2.09319 l 19.0163,-4.7413 v -3.56441 l -19.0163,4.74129 v -2.09618 l 19.18729,-4.78394 v -3.63615 l -24.91808,6.21278 v 15.02914 l 25.42588,-6.3394 v -3.63917 z m -4.37613,22.14563 22.86935,-5.70195 v -3.67505 l -17.7492,4.42537 v -5.06852 l -5.12014,1.27658 v 8.74357 z m 59.04399,-30.00762 v -3.4179 l -31.55871,7.8685 v 3.41789 z m -26.78023,22.25639 23.02658,-5.74113 v -3.34314 l -17.9039,4.46395 v -1.87492 l 17.14452,-4.27462 V 433.528 l -22.30423,5.56105 v 3.30428 l 17.22014,-4.29346 v 1.87488 l -17.18311,4.28423 z m 11.18512,-23.24976 c 1.32007,-0.32914 2.55054,-0.83142 3.68845,-1.50894 1.13789,-0.68051 2.12048,-1.44483 2.95373,-2.29732 0.83027,-0.87512 1.49328,-1.80482 1.9831,-2.78761 0.48681,-0.98201 0.7317,-1.93876 0.7317,-2.87236 0,-0.90734 -0.24489,-1.73026 -0.7317,-2.46956 -0.48982,-0.73852 -1.15283,-1.3376 -1.9831,-1.8016 -0.83325,-0.43701 -1.81584,-0.71716 -2.95373,-0.83899 -1.1379,-0.12476 -2.36838,-0.0193 -3.68845,0.30986 -1.34694,0.33585 -2.59234,0.84765 -3.74218,1.5428 -1.15283,0.69295 -2.14138,1.46456 -2.97466,2.31709 -0.85713,0.88472 -1.51717,1.81368 -1.98159,2.79012 -0.46592,0.9768 -0.69737,1.91854 -0.69737,2.8259 0,0.9336 0.23144,1.77152 0.69737,2.51603 0.46442,0.74486 1.12446,1.34468 1.98159,1.79906 0.83327,0.43702 1.82182,0.70984 2.97466,0.81922 1.14984,0.10714 2.39524,-0.008 3.74218,-0.3437 z m -4.22005,-6.00814 c 0,-0.93361 0.40917,-1.87879 1.22749,-2.83554 0.82131,-0.95748 1.81883,-1.58256 2.99256,-1.8752 1.17374,-0.29264 2.17125,-0.16496 2.98959,0.38371 0.82131,0.54793 1.23047,1.28906 1.23047,2.22265 0,0.93071 -0.40916,1.87585 -1.23047,2.83334 -0.81833,0.95674 -1.81585,1.58182 -2.98959,1.87446 -1.17373,0.29264 -2.17124,0.165 -2.99256,-0.38293 -0.8183,-0.54869 -1.22749,-1.28983 -1.22749,-2.22049 z m 61.03368,-20.17648 -11.68602,2.91365 v 3.67506 l 6.57563,-1.63948 c -0.0718,1.16914 -0.20036,2.48701 -0.38574,3.95365 -0.18242,1.46587 -0.40967,2.85616 -0.67879,4.17322 l -7.9362,1.97872 c 0.43957,-2.24166 0.75952,-4.41463 0.95389,-6.52043 0.19737,-2.10648 0.33193,-3.89238 0.40668,-5.35531 l -11.61126,2.89501 v 3.67506 l 6.57563,-1.63948 c 0,0.36483 -0.0299,0.86267 -0.0927,1.49133 -0.0598,0.62794 -0.15251,1.3119 -0.27511,2.05416 -0.0987,0.7572 -0.21531,1.53386 -0.34688,2.32618 -0.13755,0.79383 -0.27809,1.55253 -0.42463,2.27384 l -8.22923,2.05176 v 3.67506 l 13.11534,-3.27002 v 5.07154 l -8.74355,2.18001 v 3.60027 l 16.90105,-4.21387 v 8.74655 l 4.92499,-1.22795 V 423.7968 l -7.9362,1.97872 v -5.07154 l 12.30799,-3.06872 v -3.67505 l -4.81136,1.19962 c 0.17045,-0.94857 0.32892,-1.95992 0.47544,-3.04004 0.14652,-1.07714 0.28109,-2.14535 0.40368,-3.20455 0.1226,-1.05924 0.22728,-2.07812 0.31398,-3.05362 0.0867,-0.97856 0.15252,-1.83822 0.20336,-2.58651 z m 32.66107,-8.14333 -11.686,2.91366 v 3.67505 l 6.57861,-1.64021 c -0.0718,1.16915 -0.20334,2.48775 -0.38277,3.95288 -0.18539,1.4666 -0.41265,2.85694 -0.68179,4.17395 l -7.9362,1.97872 c 0.44256,-2.24239 0.75955,-4.41463 0.95689,-6.52112 0.19139,-2.10507 0.32894,-3.89164 0.40072,-5.35384 l -11.60826,2.89424 v 3.67505 l 6.57262,-1.63871 c 0,0.36479 -0.0299,0.86267 -0.0897,1.49061 -0.0598,0.62789 -0.15549,1.31262 -0.2751,2.05412 -0.0957,0.75646 -0.2153,1.53385 -0.34687,2.32621 -0.13755,0.79383 -0.27511,1.55176 -0.42463,2.2738 l -8.22925,2.0518 v 3.67506 l 13.11536,-3.27002 v 5.0715 l -8.74358,2.18001 v 3.60031 l 16.90105,-4.21391 v 8.74655 l 4.92201,-1.22717 v -12.34685 l -7.93621,1.97873 v -5.07154 l 12.31397,-3.07019 v -3.67505 l -4.81435,1.20032 c 0.16747,-0.9478 0.32893,-1.95988 0.47845,-3.04078 0.14354,-1.07641 0.2811,-2.14535 0.4007,-3.20381 0.12558,-1.05998 0.22725,-2.07808 0.311,-3.05286 0.0897,-0.97928 0.15549,-1.83895 0.20334,-2.58651 z m 31.48682,5.95493 c 0,-7.11182 -11.60331,-8.15455 -11.60331,-11.78012 l -1.63901,0.40866 v 21.82093 c 0,0 -5.34574,1.53963 -7.52951,5.70744 -0.40026,0.72242 -0.58264,1.42424 -0.58264,2.0446 0,1.76226 1.49215,2.8737 3.74695,2.31152 1.23874,-0.30888 2.76644,-1.13932 4.40309,-2.68697 2.21928,-2.10648 2.51062,-5.38892 2.51062,-7.21855 v -12.60075 c 1.08952,0.21158 2.58167,0.70268 3.5267,1.26049 1.85693,1.02055 2.94881,2.19808 2.94881,4.09742 0,1.93306 -1.20084,4.58133 -3.85832,8.45365 l 0.76505,0.46562 c 5.38362,-5.48487 7.31157,-9.38437 7.31157,-12.28394 z"
   style="stroke-width:1.33333" />
<g
   id="Cloud"
   transform="scale(1.333334)">
	<linearGradient
   id="Spectrum_1_"
   gradientUnits="userSpaceOnUse"
   x1="423.92776"
   y1="202.6133"
   x2="34.435471"
   y2="60.849689">
		<stop
   offset="0"
   style="stop-color:#FF0000"
   id="stop5" />
		<stop
   offset="0.02547"
   style="stop-color:#FF0900"
   id="stop7" />
		<stop
   offset="0.06704"
   style="stop-color:#FF2100"
   id="stop9" />
		<stop
   offset="0.11955"
   style="stop-color:#FF4900"
   id="stop11" />
		<stop
   offset="0.18093"
   style="stop-color:#FF8000"
   id="stop13" />
		<stop
   offset="0.24895"
   style="stop-color:#FFC600"
   id="stop15" />
		<stop
   offset="0.3"
   style="stop-color:#FFFF00"
   id="stop17" />
		<stop
   offset="0.30991"
   style="stop-color:#F1FD00"
   id="stop19" />
		<stop
   offset="0.36189"
   style="stop-color:#ABF502"
   id="stop21" />
		<stop
   offset="0.40873"
   style="stop-color:#74EF04"
   id="stop23" />
		<stop
   offset="0.44882"
   style="stop-color:#4CEA05"
   id="stop25" />
		<stop
   offset="0.48056"
   style="stop-color:#34E706"
   id="stop27" />
		<stop
   offset="0.5"
   style="stop-color:#2BE606"
   id="stop29" />
		<stop
   offset="0.65"
   style="stop-color:#03B3F4"
   id="stop31" />
		<stop
   offset="0.68043"
   style="stop-color:#03B0F4"
   id="stop33" />
		<stop
   offset="0.70487"
   style="stop-color:#03A6F5"
   id="stop35" />
		<stop
   offset="0.72724"
   style="stop-color:#0395F6"
   id="stop37" />
		<stop
   offset="0.74837"
   style="stop-color:#027DF8"
   id="stop39" />
		<stop
   offset="0.76864"
   style="stop-color:#025EFA"
   id="stop41" />
		<stop
   offset="0.78797"
   style="stop-color:#0139FC"
   id="stop43" />
		<stop
   offset="0.8"
   style="stop-color:#011EFE"
   id="stop45" />
		<stop
   offset="0.81587"
   style="stop-color:#1B1AFE"
   id="stop47" />
		<stop
   offset="0.84709"
   style="stop-color:#4812FD"
   id="stop49" />
		<stop
   offset="0.87851"
   style="stop-color:#6E0CFD"
   id="stop51" />
		<stop
   offset="0.90965"
   style="stop-color:#8B07FC"
   id="stop53" />
		<stop
   offset="0.94046"
   style="stop-color:#9F04FC"
   id="stop55" />
		<stop
   offset="0.97077"
   style="stop-color:#AC02FC"
   id="stop57" />
		<stop
   offset="1"
   style="stop-color:#B001FC"
   id="stop59" />
	</linearGradient>
	<path
   id="Spectrum"
   class="st0"
   d="m 373.88266,0 c -32.38699,0 -61.88824,18.15904 -76.7681,45.76635 -4.16483,-0.54818 -8.36917,-0.82391 -12.59329,-0.82391 -14.08145,0 -27.79578,3.03227 -40.36769,8.85811 -15.55643,-13.24271 -35.36,-20.61597 -56.24677,-20.61597 -32.11539,0 -61.35487,17.94833 -76.25612,45.2939 C 106.41418,77.60682 101.09701,77.16812 95.72716,77.16812 42.94315,77.16811 0,119.74497 0,172.07877 c 0,52.3338 42.94315,94.91068 95.72717,94.91068 40.66566,0 75.95158,-25.04175 89.66264,-61.58618 8.92889,0.25681 17.68823,-0.82227 26.092,-3.19029 18.06192,21.06537 44.85023,33.66525 73.03947,33.66525 41.49368,0 77.15988,-25.88211 90.41165,-63.55499 47.45615,-0.56053 85.88959,-38.99478 85.88959,-86.15874 C 460.82251,38.65319 421.82114,0 373.88266,0 Z"
   style="fill:url(#Spectrum_1_)" />
	<path
   id="White"
   class="st1"
   d="m 373.88266,10.11415 c -31.10791,0 -59.19839,18.9311 -70.96365,46.92443 -6.02997,-1.31694 -12.18997,-1.982 -18.39774,-1.982 -14.85843,0 -29.2576,3.77058 -42.05997,10.96358 -14.34648,-14.52345 -33.84552,-22.72144 -54.55449,-22.72144 -30.92683,0 -58.83456,18.82904 -70.59984,46.70549 -7.01768,-1.80833 -14.24606,-2.72196 -21.57981,-2.72196 -47.20758,0 -85.61302,38.03917 -85.61302,84.79652 0,46.75735 38.40544,84.79651 85.61302,84.79651 38.96514,0 72.40571,-25.67963 82.51327,-62.16068 3.21005,0.40662 6.44151,0.61156 9.66638,0.61156 9.38818,0 18.48004,-1.65195 27.11757,-4.92044 16.02229,21.97655 42.0155,35.35918 69.49689,35.35918 39.63513,0 73.32593,-26.38501 83.00381,-63.81345 2.12195,0.17615 4.24551,0.26422 6.35757,0.26422 42.36121,0 76.82568,-34.11632 76.82568,-76.05118 1e-5,-41.93403 -34.46446,-76.05034 -76.82567,-76.05034 z" />
	<path
   id="Black"
   d="m 373.88214,18.54229 c -31.10791,0 -57.34766,20.5386 -65.64771,48.64264 -7.4744,-2.39365 -15.43903,-3.70011 -23.71356,-3.70011 -16.18353,0 -31.20001,4.95316 -43.61748,13.40754 -12.4827,-15.34345 -31.57985,-25.1654 -52.99669,-25.1654 -31.00677,0 -57.15495,20.57698 -65.38493,48.71754 -8.34748,-3.05789 -17.37257,-4.73391 -26.79471,-4.73391 -42.62769,0 -77.18436,34.19122 -77.18436,76.36827 0,42.17694 34.55667,76.36816 77.18436,76.36816 38.18217,0 69.8681,-27.43848 76.06619,-63.4696 5.16777,1.24503 10.55984,1.92058 16.11345,1.92058 10.86151,0 21.12166,-2.53667 30.23235,-7.02591 13.50848,22.43829 38.17744,37.46434 66.38182,37.46434 38.55411,0 70.50906,-28.06989 76.36261,-64.78418 4.20999,0.80107 8.55222,1.23505 12.99866,1.23505 37.77545,0 68.39847,-30.27556 68.39847,-67.62251 0,-37.34683 -30.62302,-67.6225 -68.39847,-67.6225 z" />
	<rect
   x="368.23099"
   y="142.35487"
   width="43.694729"
   height="14.33578"
   id="rect65" />
</g>
<g
   id="Wii"
   transform="scale(1.333334)">
	<path
   d="m 500,138.34518 c 0,-4.97476 -2.08572,-9.61041 -5.72379,-12.71758 -3.66934,-3.13433 -8.64246,-4.47515 -13.62381,-3.68827 -6.616,1.04861 -12.22125,5.61595 -14.94403,11.52575 -0.65848,-0.8445 -1.40091,-1.62561 -2.224,-2.32771 -3.66934,-3.13515 -8.6441,-4.47926 -13.62381,-3.68909 -4.84634,0.76794 -9.14948,3.42406 -12.17517,7.11234 -2.0643,-1.4684 -4.50229,-2.43965 -7.17734,-2.82896 -10.57837,-1.5433 -18.88995,4.01503 -21.68848,14.50369 l -0.67328,2.52606 c -2.95325,-7.10739 -9.85898,-11.37677 -17.7327,-10.92654 -7.95105,0.46423 -14.37115,5.6497 -16.35315,13.20897 l -1.05685,4.02327 c -1.82068,-4.46362 -5.22501,-7.93953 -9.64664,-9.8277 -4.5451,-1.94168 -9.70425,-1.94415 -14.15387,-0.007 -9.25156,4.02657 -13.56949,13.96869 -10.04337,23.12723 l 19.35416,50.24066 c 3.42407,8.89104 10.66232,11.93071 16.81741,11.92989 0.98276,0 1.93921,-0.0774 2.8479,-0.22141 11.39487,-1.80504 14.81894,-10.23431 16.40421,-16.4182 l 0.16132,-0.63379 0.003,0.006 c 3.65454,9.38489 11.92166,12.53568 18.47675,11.49529 8.44821,-1.33752 13.90695,-6.52711 16.22479,-15.42638 l 5.29413,-20.34682 v 14.37529 c 0,4.5591 1.91943,8.81284 5.2645,11.67061 3.37302,2.87918 7.92471,4.11546 12.48956,3.39362 7.13455,-1.13011 12.96698,-6.78557 14.63623,-13.63205 0.8873,1.80093 2.12521,3.41336 3.66605,4.72949 3.37302,2.87834 7.92471,4.11627 12.48959,3.3936 8.4762,-1.34328 15.11688,-9.07458 15.11688,-17.60098 v -35.84727 c 0,-3.28084 -0.99429,-6.40448 -2.79852,-8.96265 C 498.34723,147.08971 500,142.81622 500,138.34518 Z"
   id="path68" />
	<linearGradient
   id="SVGID_1_"
   gradientUnits="userSpaceOnUse"
   x1="430.20044"
   y1="213.79948"
   x2="417.4122"
   y2="141.2739">
		<stop
   offset="0.2"
   style="stop-color:#F8EC19"
   id="stop70" />
		<stop
   offset="0.6"
   style="stop-color:#F15A2B"
   id="stop72" />
	</linearGradient>
	<path
   class="st2"
   d="m 435.60733,152.19022 -14.31512,55.0188 c -1.1185,4.29875 -3.09668,8.22772 -9.38602,9.22386 -3.26468,0.51707 -7.33853,-1.18018 -9.30502,-6.2285 l -9.51495,-24.42662 -6.66751,26.02016 c -1.5209,5.93546 -3.84671,9.28104 -9.55811,10.18564 -2.93045,0.46414 -8.03772,-0.068 -10.48172,-6.41251 l -19.3537,-50.24159 c -1.85431,-4.81374 0.18707,-10.03966 5.54044,-12.36905 4.66748,-2.03094 10.73151,0.11104 12.7652,5.62811 l 9.03143,24.50067 7.84933,-29.90526 c 2.29593,-8.74718 14.93069,-9.42018 18.22879,-0.99394 l 9.22537,23.56964 7.29752,-27.35144 c 1.37289,-5.14563 4.896,-9.41945 12.3299,-8.33655 6.10604,0.88945 7.67113,6.90317 6.31417,12.11858 z m 23.57886,48.63279 v -35.84727 c 0,-4.42247 -3.58539,-7.43916 -8.00702,-6.73885 -4.42166,0.70032 -8.00705,4.85275 -8.00705,9.27522 v 35.84727 c 0,4.42247 3.58539,7.43999 8.00705,6.73967 4.42163,-0.70031 8.00702,-4.85357 8.00702,-9.27604 z m 1.59442,-56.96847 c 0,5.30304 -4.29898,10.2829 -9.60202,11.12282 -5.30304,0.83992 -9.60199,-2.77815 -9.60199,-8.08119 0,-5.30304 4.29895,-10.2829 9.60199,-11.12282 5.30304,-0.83992 9.60202,2.77815 9.60202,8.08119 z m 29.19723,51.45933 V 159.4666 c 0,-4.42247 -3.58539,-7.43916 -8.00705,-6.73885 -4.42163,0.70032 -8.00702,4.85275 -8.00702,9.27522 v 35.84727 c 0,4.42247 3.58539,7.43999 8.00702,6.73967 4.42167,-0.70032 8.00705,-4.85357 8.00705,-9.27604 z m 1.59443,-56.96847 c 0,5.30304 -4.29898,10.2829 -9.60202,11.12282 -5.30304,0.8399 -9.60199,-2.77817 -9.60199,-8.08121 0,-5.30304 4.29895,-10.28288 9.60199,-11.1228 5.30304,-0.83992 9.60202,2.77815 9.60202,8.08119 z"
   id="path75"
   style="fill:url(#SVGID_1_)" />
	<g
   id="g167">
		<circle
   class="st1"
   cx="350.55145"
   cy="161.68794"
   r="1.8964"
   id="circle77" />
		<circle
   class="st1"
   cx="387.35925"
   cy="152.02339"
   r="1.8964"
   id="circle79" />
		<circle
   class="st1"
   cx="422.88736"
   cy="145.25395"
   r="1.8964"
   id="circle81" />
		<linearGradient
   id="SVGID_2_"
   gradientUnits="userSpaceOnUse"
   x1="352.35153"
   y1="163.95128"
   x2="373.40521"
   y2="218.79802">
			<stop
   offset="0"
   style="stop-color:#FFFFFF"
   id="stop83" />
			<stop
   offset="0.21678"
   style="stop-color:#FFFFFC"
   id="stop85" />
			<stop
   offset="0.39094"
   style="stop-color:#FFFEF2"
   id="stop87" />
			<stop
   offset="0.55028"
   style="stop-color:#FEFCE1"
   id="stop89" />
			<stop
   offset="0.70081"
   style="stop-color:#FEFAC9"
   id="stop91" />
			<stop
   offset="0.84512"
   style="stop-color:#FDF7AA"
   id="stop93" />
			<stop
   offset="0.98295"
   style="stop-color:#FCF385"
   id="stop95" />
			<stop
   offset="1"
   style="stop-color:#FCF380"
   id="stop97" />
		</linearGradient>
		<path
   class="st3"
   d="m 373.33612,218.68961 c -0.27655,0 -0.5564,-0.0609 -0.82309,-0.18932 -0.8132,-0.39261 -2.97464,-1.43629 -21.76913,-51.92142 -0.36545,-0.98195 0.13501,-2.07336 1.11612,-2.43883 0.98114,-0.3638 2.07254,0.13335 2.43964,1.1153 6.67694,17.93599 17.9895,47.17712 20.20032,50.03819 0.69305,0.53583 0.94162,1.50214 0.54489,2.32358 -0.32597,0.67742 -1.00419,1.0725 -1.70875,1.0725 z"
   id="path100"
   style="fill:url(#SVGID_2_)" />
		<linearGradient
   id="SVGID_3_"
   gradientUnits="userSpaceOnUse"
   x1="396.15436"
   y1="179.62489"
   x2="409.03"
   y2="213.16704">
			<stop
   offset="0"
   style="stop-color:#FFFFFF"
   id="stop102" />
			<stop
   offset="0.21678"
   style="stop-color:#FFFFFC"
   id="stop104" />
			<stop
   offset="0.39094"
   style="stop-color:#FFFEF2"
   id="stop106" />
			<stop
   offset="0.55028"
   style="stop-color:#FEFCE1"
   id="stop108" />
			<stop
   offset="0.70081"
   style="stop-color:#FEFAC9"
   id="stop110" />
			<stop
   offset="0.84512"
   style="stop-color:#FDF7AA"
   id="stop112" />
			<stop
   offset="0.98295"
   style="stop-color:#FCF385"
   id="stop114" />
			<stop
   offset="1"
   style="stop-color:#FCF380"
   id="stop116" />
		</linearGradient>
		<path
   class="st4"
   d="m 408.87885,213.09012 c -0.27655,0 -0.5564,-0.0609 -0.82309,-0.18932 -0.73914,-0.35722 -2.99277,-1.44452 -13.31763,-30.7581 -0.34732,-0.9877 0.1712,-2.07007 1.15894,-2.41824 0.991,-0.34651 2.07254,0.1712 2.41989,1.15892 4.50558,12.79413 10.04498,26.93073 11.62039,28.73494 0.77371,0.51773 1.06671,1.53754 0.65024,2.39931 -0.32593,0.67741 -1.00419,1.07249 -1.70874,1.07249 z"
   id="path119"
   style="fill:url(#SVGID_3_)" />
		<path
   class="st1"
   d="m 378.87552,185.93797 c -0.16296,0 -0.32758,-0.0214 -0.49219,-0.0658 -1.01242,-0.2708 -1.61163,-1.31036 -1.34164,-2.32195 l 7.43414,-27.74394 c 0.27164,-1.01239 1.31366,-1.61078 2.32278,-1.34081 1.01239,0.2708 1.6116,1.31036 1.34161,2.32193 l -7.43414,27.74394 c -0.22717,0.8478 -0.99429,1.40667 -1.83056,1.40667 z"
   id="path121" />
		<path
   class="st1"
   d="m 414.07419,180.1286 c -0.16296,0 -0.32758,-0.0214 -0.49219,-0.0658 -1.01242,-0.2708 -1.61163,-1.31036 -1.34164,-2.32195 l 7.71567,-28.79173 c 0.27161,-1.01241 1.31528,-1.61162 2.32275,-1.34082 1.01239,0.2708 1.6116,1.31036 1.34164,2.32195 l -7.71567,28.79173 c -0.22717,0.84778 -0.99429,1.40666 -1.83056,1.40666 z"
   id="path123" />
		<path
   class="st1"
   d="m 451.68948,137.96327 c -2.18448,0 -4.13315,1.42139 -5.45206,2.74028 -2.03943,2.03941 -2.12582,5.67438 -2.00626,6.9044 0.12653,1.30136 0.95917,1.91481 2.00616,1.91481 1.04697,0 1.88486,-0.54115 1.88486,-2.25032 0,-0.83548 -0.0566,-2.90068 1.16983,-4.18306 0.5531,-0.57863 1.40979,-1.3333 2.39746,-1.3333 1.04697,0 1.89639,-0.84944 1.89639,-1.89641 0,-1.04697 -0.84941,-1.8964 -1.89638,-1.8964 z"
   id="path125" />
		<linearGradient
   id="SVGID_4_"
   gradientUnits="userSpaceOnUse"
   x1="447.76196"
   y1="167.70157"
   x2="447.76196"
   y2="207.6322">
			<stop
   offset="0"
   style="stop-color:#FFFFFF"
   id="stop127" />
			<stop
   offset="0.21678"
   style="stop-color:#FFFFFC"
   id="stop129" />
			<stop
   offset="0.39094"
   style="stop-color:#FFFEF2"
   id="stop131" />
			<stop
   offset="0.55028"
   style="stop-color:#FEFCE1"
   id="stop133" />
			<stop
   offset="0.70081"
   style="stop-color:#FEFAC9"
   id="stop135" />
			<stop
   offset="0.84512"
   style="stop-color:#FDF7AA"
   id="stop137" />
			<stop
   offset="0.98295"
   style="stop-color:#FCF385"
   id="stop139" />
			<stop
   offset="1"
   style="stop-color:#FCF380"
   id="stop141" />
		</linearGradient>
		<path
   class="st5"
   d="m 449.35684,204.08385 c -0.0659,-0.0667 -0.36215,-0.41319 -0.36215,-1.37456 v -33.11131 c 0,-1.04698 -0.84946,-1.89641 -1.89642,-1.89641 -1.04696,0 -1.89639,0.84943 -1.89639,1.89641 v 33.11131 c 0,3.522 2.17789,4.63153 2.42648,4.74677 0.25845,0.11935 0.52841,0.17615 0.7951,0.17615 0.71606,0 1.40253,-0.40826 1.72189,-1.10048 0.41977,-0.90375 0.0659,-1.96802 -0.78851,-2.44788 z"
   id="path144"
   style="fill:url(#SVGID_4_)" />
		<path
   class="st1"
   d="m 482.47812,132.45413 c -2.18448,0 -4.13315,1.42137 -5.45203,2.74028 -2.03943,2.03941 -2.12585,5.67438 -2.00626,6.9044 0.12653,1.30136 0.95917,1.91481 2.00613,1.91481 1.04696,0 1.88489,-0.54115 1.88489,-2.25034 0,-0.83546 -0.0566,-2.90067 1.1698,-4.18304 0.55313,-0.57864 1.40982,-1.33331 2.39746,-1.33331 1.047,0 1.89642,-0.84943 1.89642,-1.89639 1e-5,-1.04698 -0.84941,-1.89641 -1.89641,-1.89641 z"
   id="path146" />
		<linearGradient
   id="SVGID_5_"
   gradientUnits="userSpaceOnUse"
   x1="478.55362"
   y1="162.19243"
   x2="478.55362"
   y2="202.12305">
			<stop
   offset="0"
   style="stop-color:#FFFFFF"
   id="stop148" />
			<stop
   offset="0.21678"
   style="stop-color:#FFFFFC"
   id="stop150" />
			<stop
   offset="0.39094"
   style="stop-color:#FFFEF2"
   id="stop152" />
			<stop
   offset="0.55028"
   style="stop-color:#FEFCE1"
   id="stop154" />
			<stop
   offset="0.70081"
   style="stop-color:#FEFAC9"
   id="stop156" />
			<stop
   offset="0.84512"
   style="stop-color:#FDF7AA"
   id="stop158" />
			<stop
   offset="0.98295"
   style="stop-color:#FCF385"
   id="stop160" />
			<stop
   offset="1"
   style="stop-color:#FCF380"
   id="stop162" />
		</linearGradient>
		<path
   class="st6"
   d="m 480.1485,198.57471 c -0.0659,-0.0667 -0.36218,-0.41319 -0.36218,-1.37456 v -33.11133 c 0,-1.04697 -0.84943,-1.89639 -1.89639,-1.89639 -1.04696,0 -1.89639,0.84943 -1.89639,1.89639 v 33.11133 c 0,3.522 2.17789,4.63153 2.42645,4.74677 0.25845,0.11934 0.52844,0.17613 0.7951,0.17613 0.71609,0 1.40256,-0.40825 1.72192,-1.10046 0.41977,-0.90377 0.0659,-1.96802 -0.78851,-2.44788 z"
   id="path165"
   style="fill:url(#SVGID_5_)" />
	</g>
</g>
<g
   id="리듬_세상"
   transform="scale(1.333334)">
	<path
   id="상"
   class="st7"
   d="m 390.29398,98.99812 c -7.23724,-1.63076 -16.55344,-1.80234 -27.12036,5.3945 -6.94821,4.73218 -10.45218,10.49622 -10.45187,17.10208 9e-5,2.37981 0.52209,4.74137 1.55933,7.01292 3.18326,6.97142 7.89783,7.34567 14.30756,7.85452 10.47433,0.8315 16.77426,-1.94014 23.05396,-6.19502 7.01712,-4.76039 10.59943,-10.44109 10.59943,-17.08104 -3e-5,-5.92756 -3.0422,-12.08127 -11.94805,-14.08796 z m -15.59369,27.50646 c -2.12836,-0.0419 -6.46933,-0.12737 -6.46933,-6.80172 0,-6.91701 5.52286,-11.8786 11.52667,-11.87928 6.16257,-7.4e-4 6.59576,4.17538 6.59576,6.71745 0,6.23122 -5.37045,12.0872 -11.6531,11.96355 z m 41.23877,-64.70489 v 10.26887 l -11.6741,2.26922 v 19.2847 l -15.59369,3.03111 V 52.21972 c 0,-2.00096 -1.64267,-1.98057 -3.51437,-1.61675 l -1.88016,0.36547 v -5.92976 l 20.98822,-4.0797 v 23.10994 z m -57.42249,22.56863 c 0,0 -1.71243,14.59346 -20.3981,33.442 l -9.56696,-7.9443 c 9.57455,-7.75377 20.60895,-25.47169 20.60895,-41.25992 v -0.4456 c 0,-1.89651 -1.46735,-1.89462 -3.2948,-1.5394 l -1.84702,0.35902 v -5.62019 l 20.50357,-3.98549 v 8.24564 c 0,16.12434 8.89532,18.71667 20.71432,18.83251 l -5.87921,9.14544 C 361.39761,91.9869 358.51657,84.36832 358.51657,84.36832 Z" />
	<path
   id="세"
   class="st8"
   d="m 280.02237,158.21422 -6.55032,8.99205 c -12.79666,-4.40112 -16.25293,-11.00334 -16.25293,-11.00334 0,0 -4.84602,9.2767 -15.00429,18.83914 l -8.47444,-7.35539 c 0,0 14.97229,-14.35231 14.97229,-28.78592 v -10.98647 c 0,-2.00918 -1.58757,-1.96715 -3.36322,-1.622 l -1.78358,0.34669 v -6.34767 l 19.61,-3.8118 -3e-5,20.21147 c -1e-5,19.3524 16.84652,21.52324 16.84652,21.52324 z m -1.9856,-48.48841 v 5.83727 l 1.5188,-0.29523 c 1.51199,-0.29391 2.89636,-0.563 2.89636,1.44617 v 17.01109 l -12.80774,2.48958 v 9.15149 l 12.80774,-2.48958 3e-5,50.41116 14.04843,-2.73074 v -84.42018 z m 17.88837,-18.62113 v 5.83727 l 1.51883,-0.29523 c 1.51199,-0.2939 2.86383,-0.49191 2.86383,1.51726 v 74.33841 l 15.27032,-2.96825 3e-5,-82.24961 z" />
	<path
   id="듬"
   class="st7"
   d="m 217.56036,124.9301 -64.5412,12.54553 v 6.26178 l 0.80022,-0.15555 c 4.22394,-0.82104 4.38995,-0.1295 4.38995,1.93335 v 13.10442 c 0,4.21918 3.2807,7.00175 7.32767,6.2151 l 46.32407,-9.00449 c 4.04698,-0.78665 7.32767,-4.84464 7.32767,-9.06381 v -20.4552 c 0,-0.93757 -0.72907,-1.55594 -1.62838,-1.38113 z m -16.03856,24.23582 -27.23311,5.29358 v -11.89185 l 27.23311,-5.29358 z m 17.66689,-38.14052 5e-5,9.1204 -80.84459,15.7146 v -9.12041 z M 171.11345,97.42224 v 9.35992 l 48.07529,-9.34489 v 9.12035 l -55.71559,10.83001 c -4.49661,0.87405 -8.14183,-2.2177 -8.14185,-6.90565 l -3e-5,-10.86595 c 0,-1.88002 -0.16573,-2.4496 -4.38301,-1.62985 l -0.79898,0.15531 2e-5,-5.76458 69.03944,-13.41991 v 9.12035 z" />
	<path
   id="리_00000013903391440715053090000008889231044700341165_"
   class="st8"
   d="m 102.87317,133.11848 v 6.27641 l 1.79008,-0.34796 c 1.78206,-0.34639 3.4137,-0.66354 3.4137,1.67807 v 37.06882 c -2.63275,1.50417 -6.00442,2.74629 -10.1608,3.5542 l -24.62044,4.78574 v -11.34547 l 22.83088,-4.43787 c 1.13602,-0.22083 2.05695,-1.34285 2.05695,-2.50612 v -22.46284 c 0,-1.16328 -0.92093,-1.92729 -2.05695,-1.70647 l -42.82339,8.32402 v 9.70094 l 29.20719,-5.67731 v 7.62799 l -30.5647,5.94118 v 6.38179 l 0.72164,-0.14027 c 1.45732,-0.28328 3.61829,-0.70332 3.61825,1.46629 v 15.10135 c 0,3.72247 2.94696,6.1673 6.58222,5.46066 L 95.016,191.6127 c 6.03054,-1.17221 10.40767,-2.6474 13.06096,-4.00407 v 35.54135 l 16.55762,-3.21848 v -91.04301 z" />
</g>
<path
   id="_x2122_"
   d="m 642.12324,304.73135 v -12.0701 l -4.49056,0.87287 v -2.59371 l 11.87778,-2.3088 v 2.59371 l -4.32874,0.84143 v 12.0701 z m 20.15496,-3.91772 v -12.25658 l -2.72668,12.78659 -2.9533,0.57406 -2.66195,-11.73914 v 12.25658 l -2.79146,0.5426 v -14.67229 l 4.36112,-0.84772 2.6296,11.12667 0.0323,-0.006 2.5649,-12.13638 4.30449,-0.8367 v 14.67228 z"
   style="stroke-width:1.33333" />
</svg>
