<?xml version="1.0" encoding="UTF-8" standalone="no"?>
<!-- Created with Inkscape (http://www.inkscape.org/) -->

<svg
   version="1.1"
   id="svg2"
   width="666.66669"
   height="408.47333"
   viewBox="0 0 666.66669 408.47333"
   sodipodi:docname="Rhythm Heaven Fever Logo (Print).ai"
   xmlns:inkscape="http://www.inkscape.org/namespaces/inkscape"
   xmlns:sodipodi="http://sodipodi.sourceforge.net/DTD/sodipodi-0.dtd"
   xmlns="http://www.w3.org/2000/svg"
   xmlns:svg="http://www.w3.org/2000/svg">
  <defs
     id="defs6">
    <clipPath
       clipPathUnits="userSpaceOnUse"
       id="clipPath16">
      <path
         d="M 0,306.355 H 500 V 0 H 0 Z"
         id="path14" />
    </clipPath>
  </defs>
  <sodipodi:namedview
     id="namedview4"
     pagecolor="#ffffff"
     bordercolor="#000000"
     borderopacity="0.25"
     inkscape:showpageshadow="2"
     inkscape:pageopacity="0.0"
     inkscape:pagecheckerboard="0"
     inkscape:deskcolor="#d1d1d1" />
  <g
     id="g8"
     inkscape:groupmode="layer"
     inkscape:label="Rhythm Heaven Fever Logo (Print)"
     transform="matrix(1.3333333,0,0,-1.3333333,0,408.47333)">
    <g
       id="g10">
      <g
         id="g12"
         clip-path="url(#clipPath16)">
        <g
           id="g18"
           transform="translate(411.5691,294.6479)">
          <path
             d="m 0,0 c -15.742,0 -30.855,-4.085 -44.129,-11.753 -17.844,15.099 -40.422,23.461 -64.485,23.461 -33.779,0 -64.422,-16.64 -82.789,-43.74 -5.86,1.232 -11.864,1.852 -17.977,1.852 -18.786,0 -36.798,-6.018 -51.619,-16.93 -14.822,8.018 -31.531,12.31 -48.561,12.31 -56.248,0 -102.009,-45.761 -102.009,-102.009 0,-56.248 45.761,-102.009 102.009,-102.009 30.795,0 59.468,13.808 78.636,37.016 7.023,-1.79 14.272,-2.71 21.544,-2.71 23.021,0 44.473,8.837 60.494,24.349 12.589,-5.549 26.222,-8.426 40.272,-8.426 24.07,0 46.652,8.366 64.498,23.472 13.272,-7.664 28.38,-11.746 44.116,-11.746 48.761,0 88.431,39.671 88.431,88.432 C 88.431,-39.67 48.761,0 0,0"
             style="fill:#ffffff;fill-opacity:1;fill-rule:nonzero;stroke:none"
             id="path20" />
        </g>
        <g
           id="g22"
           transform="translate(411.5691,288.7782)">
          <path
             d="m 0,0 c -16.128,0 -31.547,-4.592 -44.768,-13.159 -17.25,15.966 -39.757,24.867 -63.846,24.867 -33.169,0 -63.13,-17.048 -80.111,-44.534 -6.688,1.759 -13.592,2.646 -20.655,2.646 -18.798,0 -36.765,-6.462 -51.118,-18.089 -14.764,8.756 -31.735,13.469 -49.062,13.469 -53.011,0 -96.139,-43.128 -96.139,-96.139 0,-53.012 43.128,-96.14 96.139,-96.14 30.308,0 58.438,14.195 76.46,37.847 7.665,-2.334 15.678,-3.541 23.72,-3.541 22.84,0 44.024,9.327 59.216,25.554 12.844,-6.335 26.957,-9.631 41.55,-9.631 24.096,0 46.606,8.904 63.858,24.877 13.219,-8.561 28.633,-13.15 44.756,-13.15 45.524,0 82.561,37.036 82.561,82.561 C 82.561,-37.037 45.524,0 0,0"
             style="fill:#000000;fill-opacity:1;fill-rule:nonzero;stroke:none"
             id="path24" />
        </g>
        <g
           id="g26"
           transform="translate(411.5691,279.5026)">
          <path
             d="m 0,0 c -16.847,0 -32.824,-5.646 -45.773,-16.042 -16.087,17.73 -38.573,27.75 -62.841,27.75 -32.333,0 -61.284,-17.969 -75.722,-46.372 -7.986,2.978 -16.38,4.484 -25.044,4.484 -18.889,0 -36.832,-7.367 -50.231,-20.423 -14.561,10.233 -32.045,15.803 -49.949,15.803 -47.897,0 -86.864,-38.967 -86.864,-86.864 0,-47.897 38.967,-86.863 86.864,-86.863 29.644,0 56.981,15.031 72.926,39.66 8.615,-3.517 17.912,-5.355 27.254,-5.355 22.642,0 43.45,10.351 57.037,28.033 13.181,-7.943 28.153,-12.109 43.729,-12.109 24.273,0 46.763,10.024 62.85,27.76 12.948,-10.392 28.921,-16.034 45.764,-16.034 40.41,0 73.285,32.876 73.285,73.286 C 73.285,-32.876 40.41,0 0,0"
             style="fill:#ffffff;fill-opacity:1;fill-rule:nonzero;stroke:none"
             id="path28" />
        </g>
        <g
           id="g30"
           transform="translate(411.5688,272.0343)">
          <path
             d="m 0,0 c -18.194,0 -34.664,-7.383 -46.577,-19.317 -14.145,18.837 -36.667,31.024 -62.037,31.024 -32.616,0 -60.51,-20.15 -71.961,-48.672 -8.673,4.333 -18.45,6.784 -28.804,6.784 -19.821,0 -37.546,-8.941 -49.387,-23.001 -13.767,11.474 -31.472,18.382 -50.794,18.382 -43.849,0 -79.395,-35.547 -79.395,-79.395 0,-43.849 35.546,-79.396 79.395,-79.396 30.254,0 56.55,16.925 69.951,41.821 9.02,-4.791 19.305,-7.515 30.23,-7.515 23.295,0 43.704,12.344 55.055,30.844 12.818,-9.374 28.613,-14.92 45.71,-14.92 25.375,0 47.9,12.191 62.045,31.034 11.913,-11.929 28.379,-19.308 46.569,-19.308 36.35,0 65.818,29.467 65.818,65.817 C 65.818,-29.468 36.35,0 0,0"
             style="fill:#000000;fill-opacity:1;fill-rule:nonzero;stroke:none"
             id="path32" />
        </g>
        <path
           d="m 262.07,136.687 h 3.928 v 3.928 h -3.928 z"
           style="fill:#000000;fill-opacity:1;fill-rule:nonzero;stroke:none"
           id="path34" />
        <g
           id="g36"
           transform="translate(460.9705,101.7627)">
          <path
             d="m 0,0 c -1.276,1.097 -2.554,2.212 -3.834,3.343 1.838,6.552 1.767,13.84 -0.339,21.384 -0.024,0.088 -0.05,0.176 -0.076,0.264 -7.048,23.763 -28.236,41.333 -51.525,42.726 -4.474,0.267 -16.442,0.813 -19.755,0.813 -4.594,0 -8.993,-1.001 -13.075,-2.975 -0.04,-0.019 -0.081,-0.039 -0.121,-0.06 -1.023,-0.505 -1.991,-1.077 -2.927,-1.684 -4.653,2.975 -10.138,4.634 -15.894,4.454 -9.759,-0.304 -20.084,-0.864 -29.795,-1.617 -3.887,-0.287 -7.631,-1.343 -11.112,-3.133 -1.128,-0.579 -2.199,-1.234 -3.228,-1.939 -0.909,0.462 -1.85,0.884 -2.827,1.258 -3.104,1.2 -6.367,1.825 -9.7,1.86 -0.058,0 -0.116,10e-4 -0.175,10e-4 h -0.215 c -5.054,0 -10.02,-1.273 -14.301,-3.648 -5.774,-3.171 -10.309,-8.166 -13.133,-14.486 -1.569,-3.533 -3.131,-7.071 -4.692,-10.616 -0.658,1.153 -1.244,2.172 -1.733,3.015 -8.722,14.963 -25.763,20.27 -40.58,12.665 l -0.324,-0.162 c -0.241,-0.119 -0.478,-0.245 -0.712,-0.375 -1.575,-0.881 -3.026,-1.87 -4.364,-2.945 -2.658,0.839 -5.511,1.293 -8.503,1.293 -2.547,0 -5.178,-0.381 -7.893,-1.152 -9.792,-2.827 -19.723,-5.898 -29.494,-9.119 -5.531,-1.815 -10.365,-4.926 -14.228,-8.903 -3.228,1.406 -6.736,2.16 -10.311,2.16 -1.921,0 -3.861,-0.222 -5.766,-0.658 l -0.079,-0.019 c -3.633,-0.851 -10.252,-3.109 -12.59,-4.014 l -1.336,-0.511 c -4.269,-1.631 -13.153,-5.026 -22.014,-8.773 -2.486,-1.061 -4.572,-2.044 -6.383,-3.008 -14.305,-7.623 -17.23,-17.414 -19.169,-27.62 l -0.026,-0.139 c -1.411,-7.777 -3.059,-15.778 -4.654,-23.514 -2.353,-11.42 -4.786,-23.226 -6.624,-35.054 -0.177,-1.077 -0.481,-3.412 -0.365,-6.204 0.344,-8.929 4.666,-14.566 8.215,-17.708 5.124,-4.549 11.864,-6.963 19.167,-6.963 2.174,0 4.397,0.214 6.643,0.65 3.914,0.781 7.611,2.063 10.988,3.812 l 0.171,0.09 c 10.657,5.671 17.885,16.094 19.333,27.863 0.348,2.803 0.708,5.576 1.062,8.22 1.521,0.505 3.102,1.032 4.762,1.589 1.901,0.626 3.728,1.356 5.477,2.179 10e-4,0 10e-4,0 10e-4,0 0.6,-7.035 3.791,-13.353 9.091,-17.87 4.917,-4.19 11.139,-6.385 17.779,-6.385 2.5,10e-4 5.061,0.312 7.632,0.946 7.374,1.838 14.67,3.693 21.894,5.531 4.09,1.04 8.156,2.075 12.201,3.096 15.124,3.823 25.28,16.195 26.165,31.344 1.218,-2.178 2.123,-3.805 2.556,-4.603 7.298,-13.428 18.105,-18.134 27.368,-18.134 1.894,0 3.723,0.197 5.444,0.555 2.288,0.49 4.493,1.244 6.474,2.204 7.497,3.586 13.258,10.247 17.609,20.36 1.004,2.332 2.662,6.42 4.667,11.451 1.534,-6.624 5.243,-12.657 10.536,-16.955 5.406,-4.391 11.968,-6.718 18.741,-6.718 1.111,0 2.229,0.062 3.346,0.189 10.05,1.108 20.502,2.081 31.026,2.888 4.199,0.312 8.159,1.464 11.729,3.401 1.891,1.018 3.612,2.236 5.174,3.598 5.504,-3.571 12.253,-5.531 19.83,-5.531 0.41,0 0.822,0.005 1.236,0.017 4.159,0.109 8.102,0.962 11.7,2.526 2.824,1.223 5.325,2.842 7.463,4.764 10.536,-7.165 24.276,-8.906 35.008,-4.067 0.055,0.025 0.109,0.05 0.164,0.075 0.839,0.389 1.665,0.819 2.455,1.277 0.077,0.044 0.153,0.088 0.229,0.133 6.89,4.135 11.218,10.938 11.871,18.664 C 12.081,-15.79 7.949,-6.822 0,0"
             style="fill:#000000;fill-opacity:1;fill-rule:nonzero;stroke:none"
             id="path38" />
        </g>
        <g
           id="g40"
           transform="translate(144.1315,116.9866)">
          <path
             d="m 0,0 c 0.649,0.149 1.31,0.229 1.973,0.229 4.941,0 9.736,-4.213 9.113,-11.154 -0.418,-4.821 -3.482,-8.534 -9.1,-11.425 -0.811,-0.417 -1.661,-0.809 -2.567,-1.188 -2.794,-1.16 -15.352,-6.048 -21.874,-8.56 v -0.015 l -0.028,-0.013 c -0.202,-1.714 -0.433,-3.43 -0.661,-5.157 4.713,1.782 9.371,3.551 13.975,5.292 7.604,2.93 13.261,-0.648 12.707,-8.101 -0.581,-7.697 -4.401,-13.126 -10.776,-16.542 -1.472,-0.785 -3.078,-1.459 -4.806,-2.026 -4.875,-1.634 -9.777,-3.255 -14.747,-4.848 v -0.014 l -0.027,-0.013 c -0.877,-6.225 -1.742,-12.532 -2.538,-18.946 -0.783,-6.36 -4.605,-11.855 -10.466,-14.975 -1.957,-1.013 -4.145,-1.769 -6.508,-2.241 -6.279,-1.217 -9.899,1.188 -11.222,2.363 -2.12,1.876 -2.47,4.186 -2.525,5.698 -0.067,1.525 0.162,2.822 0.162,2.822 3.012,19.418 7.697,38.81 11.221,58.241 1.499,7.886 2.701,11.668 10.479,15.813 1.446,0.77 3.133,1.552 5.064,2.377 9.548,4.037 19.107,7.643 22.767,9.047 C -8.114,-2.458 -2.363,-0.554 0,0 m 76.633,-52.976 c 0.325,-8.925 -4.915,-15.691 -13.408,-17.837 -11.169,-2.822 -22.51,-5.74 -34.043,-8.615 -8.007,-1.973 -14.112,2.862 -13.491,10.384 1.689,21.862 3.445,41.752 3.848,60.901 0.177,6.724 4.525,13.422 12.262,15.96 9.71,3.201 19.324,6.172 28.912,8.94 1.093,0.311 2.159,0.486 3.186,0.486 5.318,0 9.386,-3.551 9.805,-8.965 0.525,-6.577 -4.66,-13.478 -11.546,-15.423 -5.807,-1.633 -11.627,-3.347 -17.501,-5.116 0.013,-1.621 0.026,-3.255 0.026,-4.902 4.241,1.255 8.455,2.497 12.654,3.685 6.914,1.999 12.747,-1.984 13.031,-8.979 0.323,-7.994 -3.498,-13.922 -12.707,-16.447 -4.403,-1.216 -8.832,-2.445 -13.288,-3.7 -0.054,-1.755 -0.08,-3.525 -0.135,-5.307 6.32,1.756 12.571,3.47 18.756,5.13 7.292,1.96 13.37,-2.47 13.639,-10.195 m 86.14,68.707 c -2.512,-6.549 -20.971,-54.366 -25.361,-64.561 -2.66,-6.184 -5.617,-9.979 -9.344,-11.761 -0.864,-0.419 -1.755,-0.716 -2.7,-0.918 -4.469,-0.933 -10.047,1.161 -14.354,9.087 -3.146,5.793 -28.236,50.139 -29.939,53.515 -3.888,7.657 -3.469,15.8 3.971,19.959 l 0.432,0.215 c 6.415,3.336 13.773,1.594 18.244,-6.077 3.213,-5.535 11.422,-20.181 18.295,-32.509 6.36,14.625 12.331,28.324 18.299,41.773 1.31,2.931 3.335,5.146 5.793,6.496 1.851,1.026 3.93,1.552 6.132,1.552 h 0.215 c 1.283,-0.013 2.565,-0.255 3.782,-0.729 5.994,-2.282 9.195,-9.048 6.535,-16.042 m 62.223,-62.076 c -1.443,-0.783 -3.119,-1.282 -4.941,-1.417 -10.574,-0.811 -21.093,-1.783 -31.626,-2.944 -7.291,-0.825 -13.827,4.766 -14.529,12.219 -2.148,21.553 -3.822,40.93 -4.673,60.038 -0.215,4.943 2.66,9.466 6.901,11.64 1.418,0.729 2.97,1.188 4.618,1.31 9.587,0.743 19.514,1.282 29.073,1.579 6.332,0.197 11.681,-5.279 12.127,-11.639 0.337,-4.915 -2.257,-9.169 -6.387,-11.1 -1.379,-0.636 -2.931,-1.013 -4.606,-1.066 -5.645,-0.204 -11.275,-0.461 -16.92,-0.811 l -0.026,-0.014 c 0.135,-1.593 0.27,-3.201 0.418,-4.808 4.038,0.244 8.088,0.461 12.14,0.636 6.684,0.27 12.72,-4.957 13.734,-11.641 0.756,-4.983 -1.676,-9.466 -5.862,-11.545 -1.405,-0.703 -2.997,-1.135 -4.739,-1.228 -4.173,-0.217 -8.347,-0.473 -12.532,-0.785 l 0.013,-0.013 h -0.04 c 0.215,-1.674 0.446,-3.361 0.661,-5.05 5.888,0.432 11.789,0.798 17.69,1.095 6.968,0.323 13.68,-5.024 15.124,-12.046 1.082,-5.239 -1.282,-10.074 -5.618,-12.41 m 40.323,48.666 c -0.378,0 -3.875,0.162 -5.671,0.231 -0.703,3.172 -1.352,6.333 -1.918,9.506 1.769,-0.08 3.538,-0.162 5.306,-0.257 2.944,-0.149 5.739,-2.39 6.32,-4.995 0.567,-2.54 -1.202,-4.485 -4.037,-4.485 m 40.469,-30.422 c -4.901,4.212 -9.628,8.493 -14.177,12.801 5.334,4.779 7.048,11.869 4.711,20.242 -4.563,15.38 -18.982,29.578 -36.27,30.612 -4.633,0.277 -16.048,0.783 -18.742,0.783 -2.175,0 -4.012,-0.472 -5.686,-1.282 -3.942,-1.946 -6.44,-5.861 -5.995,-10.372 1.931,-19.08 6.13,-38.106 11.302,-58.457 2.08,-8.344 8.602,-12.72 17.906,-12.463 2.039,0.053 3.848,0.459 5.402,1.135 4.645,2.011 6.899,6.48 5.279,11.532 -1.31,4.117 -2.565,8.196 -3.754,12.261 l 0.041,-0.055 -0.014,0.069 c 6.334,-6.28 12.978,-12.559 19.892,-18.77 5.899,-5.348 15.015,-7.05 20.794,-4.443 0.379,0.175 0.743,0.364 1.095,0.567 5.671,3.403 4.685,10.289 -1.784,15.84"
             style="fill:#ffffff;fill-opacity:1;fill-rule:nonzero;stroke:none"
             id="path42" />
        </g>
        <g
           id="g44"
           transform="translate(102.9914,92.6372)">
          <path
             d="m 0,0 c -0.225,0 -0.431,0.04 -0.599,0.124 -0.34,0.168 -0.557,0.642 -0.351,1.281 0.136,0.419 0.433,0.865 0.852,1.297 0.796,0.784 1.795,1.283 2.591,1.323 H 2.615 C 2.844,4.025 3.034,3.999 3.209,3.904 3.493,3.768 3.642,3.513 3.668,3.203 V 3.189 C 3.672,3.156 3.672,3.123 3.672,3.087 3.665,2.575 3.329,1.933 2.71,1.312 1.898,0.499 0.806,0 0,0 m 20.422,-4.369 c -0.594,0 -0.973,0.355 -0.976,0.953 -0.002,0.087 0.007,0.177 0.022,0.272 0.162,1.013 1.201,2.186 2.294,2.618 6.212,2.419 12.317,4.822 18.338,7.158 1.783,0.688 2.971,1.04 5.186,3.119 0.824,0.77 1.472,1.255 2.026,1.284 h 0.122 c 0.161,-0.015 0.323,-0.055 0.472,-0.164 0.379,-0.242 0.702,-0.621 0.729,-1.16 V 9.59 C 48.622,9.197 48.447,8.712 48.028,8.131 46.975,6.672 43.787,4.526 39.683,2.906 33.62,0.529 27.448,-1.807 21.182,-4.212 20.905,-4.319 20.648,-4.369 20.422,-4.369 m -4.953,-31.519 c -0.683,0 -1.121,0.395 -1.12,1.041 0,0.094 0.009,0.191 0.027,0.292 0.204,1.053 1.323,2.215 2.498,2.594 4.74,1.565 9.426,3.132 14.071,4.713 1.932,0.647 3.782,1.971 5.187,3.565 v 0.013 c 0.674,0.756 1.538,1.202 2.241,1.202 0.255,0 0.486,-0.067 0.674,-0.202 l 0.095,-0.082 c 0,0 0.271,-0.229 0.311,-0.783 0.007,-0.07 0.008,-0.135 0.008,-0.198 -0.008,-0.441 -0.183,-0.72 -0.183,-0.72 -0.136,-0.325 -0.324,-0.662 -0.608,-0.973 -2.27,-2.578 -5.24,-4.686 -8.333,-5.712 -4.671,-1.553 -9.397,-3.106 -14.164,-4.632 -0.255,-0.08 -0.49,-0.118 -0.704,-0.118 m -27.006,-34.64 h -0.08 c -0.324,0.014 -0.621,0.082 -0.851,0.244 -1.608,1.093 -2.56,2.764 -2.575,4.865 -0.002,0.39 0.026,0.794 0.09,1.211 2.904,19.391 7.413,38.66 10.709,57.863 0.175,1 1.202,2.201 2.308,2.7 0.31,0.149 0.594,0.217 0.851,0.217 0.432,0 0.743,-0.217 0.838,-0.607 l 0.04,-0.244 -0.013,-0.284 c -3.079,-19.282 -7.427,-38.755 -10.317,-58.496 -0.04,-0.268 -0.059,-0.523 -0.059,-0.77 0.005,-1.333 0.593,-2.38 1.584,-3.052 0.337,-0.226 0.496,-0.579 0.487,-0.985 -0.011,-0.522 -0.298,-1.13 -0.838,-1.662 -0.634,-0.634 -1.458,-0.986 -2.174,-1 M 67.502,21.36 c -0.215,0 -0.419,0.049 -0.596,0.152 -0.257,0.162 -0.419,0.406 -0.487,0.716 -0.02,0.09 -0.04,0.274 -0.04,0.366 0,0.472 0.162,0.998 0.527,1.498 0.513,0.743 1.295,1.202 1.958,1.202 0.215,0 0.419,-0.053 0.607,-0.162 0.358,-0.21 0.541,-0.601 0.545,-1.065 0.003,-0.464 -0.174,-1.001 -0.531,-1.5 -0.539,-0.753 -1.322,-1.207 -1.983,-1.207 m 19.169,-6.418 c -0.657,0 -1.116,0.432 -1.145,1.123 -10e-4,0.045 -10e-4,0.093 0,0.142 0.042,0.958 0.851,1.984 1.811,2.295 5.427,1.742 10.803,3.429 16.163,5.036 1.581,0.486 3.011,1.554 4.037,2.891 0.459,0.594 1.109,0.931 1.689,0.931 0.269,0 0.513,-0.068 0.73,-0.217 l 0.202,-0.189 c 0,0 0.27,-0.175 0.31,-0.769 0.003,-0.037 0.003,-0.073 0.005,-0.108 0.007,-0.529 -0.207,-0.852 -0.207,-0.852 -0.068,-0.175 -0.162,-0.337 -0.284,-0.512 -1.662,-2.133 -3.957,-3.848 -6.508,-4.618 -5.389,-1.62 -10.803,-3.309 -16.259,-5.063 -0.192,-0.062 -0.375,-0.09 -0.544,-0.09 m 0.179,-30.967 c -0.75,0 -1.267,0.508 -1.275,1.307 0,0.053 10e-4,0.107 0.006,0.163 0.08,1.094 1.027,2.255 2.12,2.592 4.402,1.35 8.763,2.661 13.099,3.944 1.796,0.539 3.443,1.756 4.658,3.281 0.541,0.674 1.27,1.053 1.918,1.053 0.297,0 0.58,-0.08 0.824,-0.257 0.34,-0.252 0.514,-0.662 0.521,-1.13 0.006,-0.527 -0.201,-1.128 -0.616,-1.65 -1.931,-2.459 -4.591,-4.416 -7.482,-5.267 -4.374,-1.284 -8.777,-2.607 -13.192,-3.944 -0.204,-0.062 -0.399,-0.092 -0.581,-0.092 m -8.326,-35.786 c -0.845,0 -1.424,0.599 -1.407,1.514 10e-4,0.061 0.005,0.123 0.011,0.187 0.136,1.215 1.189,2.431 2.35,2.742 7.777,2.011 15.434,4.01 23.023,5.981 1.904,0.486 3.673,1.742 4.983,3.376 0.554,0.689 1.31,1.067 1.971,1.067 0.352,0 0.676,-0.109 0.931,-0.324 0.356,-0.304 0.529,-0.768 0.528,-1.285 -0.004,-0.586 -0.231,-1.24 -0.676,-1.808 -2.093,-2.62 -4.942,-4.658 -8.008,-5.442 -7.642,-1.944 -15.367,-3.942 -23.197,-5.941 -0.179,-0.045 -0.348,-0.067 -0.509,-0.067 M 64.069,-53.66 c -0.305,0 -0.589,0.082 -0.823,0.255 -1.715,1.27 -2.742,3.335 -2.782,5.981 v 0.326 c 0,0.202 0.014,0.417 0.027,0.647 1.594,22.457 3.241,42.848 3.565,62.401 0.013,0.999 0.851,2.159 1.864,2.565 0.257,0.108 0.486,0.148 0.703,0.148 0.66,0 1.133,-0.459 1.133,-1.228 -0.175,-19.539 -1.621,-39.943 -3.079,-62.482 -0.007,-0.12 -0.012,-0.24 -0.014,-0.359 -0.021,-1.771 0.643,-3.152 1.756,-3.975 0.367,-0.266 0.544,-0.706 0.539,-1.215 -0.007,-0.578 -0.249,-1.242 -0.714,-1.836 -0.616,-0.778 -1.457,-1.228 -2.175,-1.228 m 126.88,104.281 c -0.407,0 -0.798,0.14 -1.093,0.424 -0.317,0.304 -0.474,0.721 -0.474,1.158 0,0.496 0.2,1.018 0.596,1.436 0.417,0.43 0.958,0.66 1.485,0.66 0.404,0 0.796,-0.135 1.093,-0.418 0.314,-0.301 0.469,-0.713 0.473,-1.147 v -0.023 c -0.004,-0.493 -0.202,-1.01 -0.594,-1.422 -0.418,-0.441 -0.965,-0.668 -1.486,-0.668 M 126.955,37.669 c -0.374,0 -0.722,0.122 -0.985,0.372 -0.283,0.265 -0.422,0.636 -0.425,1.035 -0.002,0.512 0.222,1.074 0.654,1.53 0.459,0.474 1.04,0.716 1.567,0.716 0.379,0 0.73,-0.122 0.986,-0.364 0.278,-0.272 0.413,-0.644 0.414,-1.045 0.002,-0.514 -0.218,-1.073 -0.644,-1.522 -0.452,-0.475 -1.035,-0.722 -1.567,-0.722 m 39.87,-34.017 c -0.185,0 -0.369,0.03 -0.547,0.09 -0.658,0.228 -1.055,0.836 -1.068,1.533 -0.002,0.047 0,0.094 0.001,0.142 0,0.256 0.069,0.526 0.176,0.783 6.36,14.691 12.301,28.411 18.297,41.901 0.257,0.608 0.581,1.188 0.945,1.729 l 0.297,0.324 c 0.432,0.432 0.986,0.661 1.499,0.661 0.392,0 0.784,-0.134 1.068,-0.417 0.322,-0.302 0.477,-0.721 0.472,-1.164 -0.003,-0.39 -0.132,-0.799 -0.379,-1.16 l -0.04,-0.081 c -0.228,-0.324 -0.432,-0.688 -0.594,-1.067 C 180.984,33.463 175.083,19.73 168.79,5.025 168.427,4.192 167.621,3.652 166.825,3.652 M 158.21,-32.42 h -0.033 c -0.339,0.003 -0.666,0.103 -0.946,0.31 -1.04,0.783 -1.918,1.809 -2.579,3.079 -11.128,21.741 -21.377,40.186 -31.207,58.052 -0.407,0.909 -0.632,1.902 -0.689,2.924 v 0.614 c 0,0.54 0.257,1.093 0.663,1.512 l 0.066,0.068 0.014,0.013 c 0.365,0.378 0.796,0.608 1.228,0.688 h 0.028 l 0.202,0.028 0.096,0.014 0.053,-0.014 c 0.364,0 0.689,-0.121 0.945,-0.365 0.307,-0.285 0.383,-0.694 0.385,-1.135 0.002,-0.102 -0.002,-0.205 -0.007,-0.31 -0.003,-0.034 -0.005,-0.069 -0.005,-0.105 -0.01,-0.541 0.184,-1.229 0.424,-1.785 9.885,-17.785 20.174,-36.095 31.356,-57.607 0.404,-0.782 0.944,-1.417 1.592,-1.904 h 0.015 c 0.47,-0.349 0.711,-0.93 0.702,-1.555 -0.005,-0.486 -0.16,-1 -0.474,-1.456 -0.46,-0.681 -1.163,-1.061 -1.829,-1.066 m 58.317,81.816 c -0.407,0 -0.813,0.139 -1.137,0.421 -0.387,0.337 -0.579,0.814 -0.574,1.301 0.005,0.431 0.164,0.868 0.481,1.224 0.364,0.419 0.864,0.634 1.363,0.647 h 0.08 c 0.393,-0.013 0.785,-0.148 1.095,-0.419 0.387,-0.337 0.581,-0.814 0.574,-1.305 -0.005,-0.43 -0.163,-0.872 -0.48,-1.233 -0.374,-0.42 -0.892,-0.636 -1.402,-0.636 m 19.132,-11.979 c -0.898,0 -1.654,0.644 -1.809,1.502 l -0.013,0.581 c 0.135,0.809 0.809,1.458 1.66,1.498 5.618,0.337 11.235,0.594 16.839,0.783 1.661,0.055 3.106,0.771 4.119,1.864 0.324,0.379 0.796,0.554 1.269,0.554 0.445,0 0.906,-0.162 1.27,-0.487 0.425,-0.379 0.641,-0.905 0.634,-1.419 -0.007,-0.398 -0.149,-0.792 -0.432,-1.106 -1.579,-1.754 -3.889,-2.889 -6.562,-2.984 -5.618,-0.189 -11.249,-0.446 -16.866,-0.783 -0.037,-0.001 -0.072,-0.003 -0.109,-0.003 m 2.982,-29.276 c -0.976,0 -1.852,0.761 -1.969,1.746 -0.007,0.065 -0.012,0.128 -0.013,0.192 -0.015,0.956 0.686,1.742 1.66,1.805 4.133,0.284 8.265,0.528 12.41,0.73 1.716,0.081 3.175,0.851 4.133,1.999 v 0.013 c 0.337,0.391 0.811,0.581 1.323,0.581 0.446,0 0.918,-0.162 1.323,-0.487 0.481,-0.401 0.743,-0.977 0.746,-1.536 0.004,-0.382 -0.115,-0.754 -0.367,-1.056 -1.54,-1.851 -3.877,-3.079 -6.63,-3.228 -4.159,-0.215 -8.333,-0.459 -12.492,-0.756 -0.04,-0.003 -0.082,-0.003 -0.124,-0.003 m -15.17,-30.588 c -0.435,0 -0.876,0.152 -1.248,0.464 -2.093,1.769 -3.537,4.376 -3.849,7.347 -2.213,21.51 -3.955,40.875 -4.833,59.968 v 0.056 0.053 c 0.014,0.946 0.77,1.756 1.727,1.851 h 0.164 c 0.918,0 1.674,-0.69 1.714,-1.634 0.891,-19.094 2.729,-38.432 5.077,-59.875 0.217,-1.838 1.121,-3.458 2.431,-4.565 0.513,-0.417 0.775,-1.048 0.76,-1.675 -0.01,-0.429 -0.147,-0.858 -0.422,-1.215 -0.378,-0.508 -0.943,-0.775 -1.521,-0.775 m 16.347,-0.939 h -0.375 c -0.93,0.091 -1.735,0.861 -1.866,1.862 -0.015,0.105 -0.022,0.21 -0.022,0.312 0.005,0.987 0.718,1.806 1.697,1.903 7.157,0.662 14.326,1.243 21.511,1.729 1.796,0.122 3.308,0.959 4.267,2.214 0.337,0.433 0.851,0.663 1.39,0.663 0.473,0 0.96,-0.164 1.379,-0.501 0.552,-0.432 0.849,-1.053 0.876,-1.66 v -0.109 c -0.013,-0.364 -0.12,-0.702 -0.35,-0.984 -1.526,-2.013 -3.944,-3.377 -6.846,-3.593 -7.238,-0.526 -14.45,-1.12 -21.661,-1.836 m 70.853,28.398 c -0.377,-0.271 -0.552,-0.676 -0.525,-1.122 0.013,-0.445 0.228,-0.931 0.634,-1.337 5.564,-5.549 11.383,-11.099 17.42,-16.555 1.161,-1.04 2.456,-1.889 3.848,-2.525 1.107,-0.512 2.308,-0.255 2.674,0.567 l 0.095,0.433 v 0.121 c -0.028,0.703 -0.594,1.446 -1.459,1.85 l -0.013,0.013 c -0.864,0.392 -1.676,0.919 -2.392,1.567 -6.048,5.442 -11.895,10.965 -17.46,16.502 -0.512,0.512 -1.201,0.796 -1.822,0.796 -0.377,0 -0.729,-0.108 -1,-0.31 m -13.084,35.649 v -0.472 c 0.122,-0.96 0.986,-1.769 1.958,-1.838 1.647,-0.093 3.294,-0.202 4.928,-0.323 3.999,-0.284 7.617,-3.714 8.224,-7.631 0.136,-0.971 1.094,-1.822 2.107,-1.902 0.904,-0.082 1.54,0.472 1.58,1.255 v 0.013 l -0.013,0.352 c -0.96,5.833 -6.28,11.032 -12.248,11.464 -1.634,0.122 -3.268,0.23 -4.902,0.337 h -0.122 c -0.783,0 -1.39,-0.525 -1.512,-1.255 m -22.16,8.426 c -0.986,-0.055 -1.7,-0.877 -1.58,-1.864 2.296,-18.905 6.739,-37.593 12.1,-57.512 0.742,-2.74 2.593,-5.157 5.01,-6.806 0.053,-0.026 0.877,-0.552 1.35,-0.552 0.973,0 1.755,0.783 1.755,1.741 0,0.554 -0.257,1.039 -0.647,1.351 -0.122,0.134 -0.27,0.256 -0.419,0.378 -1.512,1.013 -2.674,2.511 -3.159,4.227 -5.498,19.797 -10.06,38.458 -12.41,57.349 -0.109,0.946 -0.96,1.688 -1.904,1.688 h -0.096 m 1.634,3.7 c 0,-0.999 0.811,-1.809 1.809,-1.809 1,0 1.811,0.81 1.811,1.809 0,1 -0.811,1.81 -1.811,1.81 -0.998,0 -1.809,-0.81 -1.809,-1.81"
             style="fill:#000000;fill-opacity:1;fill-rule:nonzero;stroke:none"
             id="path46" />
        </g>
        <g
           id="g48"
           transform="translate(66.0567,146.3124)">
          <path
             d="m 0,0 c -5.523,-2.736 -5.728,0.16 -5.728,10.112 0,9.71 0.373,12.699 5.626,11.864 C 5.12,21.147 7.851,17.367 7.851,12.392 7.851,7.385 5.378,2.664 0,0 m -15.115,40.498 v -69.607 l 9.387,1.487 c 0,9.808 -0.273,14.471 0.451,14.825 0.715,0.35 2.633,-3.934 10.531,-15.402 l 15.76,2.496 -12.179,19.024 c 22.387,15.72 17.467,61.498 -23.95,47.177 m 57.753,0.847 V 25.92 c 0,-2.852 -2.105,-5.498 -4.702,-5.91 -2.597,-0.411 -4.701,1.561 -4.701,4.413 v 10.546 l -7.15,-1.133 v -46.671 l 9.481,1.501 V 2.672 c 0,2.946 2.173,5.677 4.852,6.102 2.679,0.424 4.855,-1.613 4.855,-4.556 v -9.161 l 7.218,1.143 v 46.706 z m 33.22,-4.136 V 24.763 c 0,-7.338 -2.04,-10.274 -4.551,-10.671 -2.509,-0.397 -4.544,1.657 -4.544,7.15 v 9.637 l -9.858,-1.561 v -8.165 c 0,-14.387 4.685,-18.026 11.253,-16.982 2.915,0.463 6.209,1.97 8.28,4.642 C 75.87,2.907 69.7,-2.812 62.874,-3.893 L 56.905,-4.838 V -17.35 l 4.701,0.745 c 11.537,1.827 21.399,10.552 21.399,31.246 v 23.7 z m 10.298,8.322 V 32.443 l 4.904,0.777 c 4.279,0.677 5.33,-0.366 5.33,-4.313 V -1.966 l 7.932,1.256 v 34.223 c 0,2.854 1.052,5.332 5.331,6.013 l 5.072,0.803 v 9.726 z m 47.012,2.61 V 32.722 c 0,-2.85 -2.104,-5.503 -4.698,-5.914 -2.603,-0.412 -4.707,1.567 -4.707,4.416 v 10.543 l -7.146,-1.132 V -3.606 l 9.479,1.501 V 9.478 c 0,2.939 2.168,5.673 4.852,6.098 2.683,0.425 4.856,-1.615 4.856,-4.554 V 1.859 l 7.22,1.144 v 46.7 z M 372.363,91.27 c -0.04,-39.338 -1.432,-36.251 -15.789,-7.342 l -6.315,-1 V 28.973 l 7.573,1.207 c 0.177,27.166 0.239,27.279 14.778,4.866 l 8.971,1.421 V 92.73 Z M 179.216,65.769 c -8.587,-23.969 -10.045,-25.86 -11.677,-26.12 -1.331,-0.212 -3.717,0.686 -11.604,19.989 l -8.497,-1.346 v -46.69 l 7.909,1.252 c 0,13.447 0.218,18.309 0.946,18.424 1.03,0.163 2.462,-1.666 7.033,-12.889 l 4.248,0.673 c 4.818,12.495 6.889,16.124 7.638,16.243 1.078,0.171 1.292,-6.696 1.292,-21.522 l 7.912,1.253 V 66.593 Z M 227.5,86.983 V 66.612 c 0,-3.831 -2.835,-7.387 -6.321,-7.939 -3.491,-0.553 -6.32,2.1 -6.32,5.933 V 77.57 l -8.331,-1.319 V 12.867 l 11.465,1.816 v 20.694 c 0,3.954 2.924,7.629 6.518,8.198 3.609,0.571 6.523,-2.171 6.523,-6.12 V 22.296 l 8.435,1.336 V 88.879 Z M 265.119,62.457 V 77.866 L 244.623,74.605 V 33.136 l 20.496,3.246 v 8.346 c -12.692,-2.01 -12.692,-0.761 -12.692,0.694 0,1.454 0.006,2.713 10.912,4.446 v 7.299 c -10.901,-1.73 -10.908,-0.789 -10.908,0.763 0,1.55 1.598,2.77 12.688,4.527 M 281.564,47.84 c -4.694,-0.746 -4.693,-0.746 -3.172,5.324 0.885,3.534 2.054,4.664 3.117,4.833 1.397,0.223 2.189,-0.355 3.178,-3.832 1.585,-5.573 1.582,-5.574 -3.123,-6.325 m 0.359,27.908 c -4.069,-0.65 -5.853,-3.772 -15.34,-47.05 l 7.431,1.177 c 2.12,9.544 2.313,10.788 7.442,11.605 5.409,0.862 5.592,0.095 7.914,-9.173 l 10.342,1.638 C 289.28,75.267 286.906,76.539 281.923,75.748 m 31.689,11.101 c -2.751,-16.367 -5.82,-26.582 -7.187,-26.801 -2.116,-0.338 -4.99,10.955 -6.831,22.05 l -6.779,-1.073 c 2.742,-19.356 6.597,-30.441 10.268,-37.309 l 8.899,1.41 c 4.539,10.073 7.455,21.516 11.062,43.217 z M 345.838,65.01 V 80.419 L 325.342,77.157 V 35.689 l 20.496,3.246 v 8.346 c -12.692,-2.01 -12.692,-0.761 -12.692,0.694 0,1.454 0.018,2.719 10.925,4.451 v 6.991 c -10.902,-1.731 -10.925,-0.174 -10.925,1.379 0,1.55 1.602,2.457 12.692,4.214 m 47.606,-27.131 v 3.481 l -0.804,-3.608 -0.872,-0.138 -0.786,3.356 v -3.481 l -0.823,-0.13 v 4.167 l 1.287,0.203 0.776,-3.182 0.009,0.002 0.757,3.425 1.271,0.201 v -4.167 z m -5.948,-0.942 v 3.428 l -1.325,-0.21 v 0.737 l 3.505,0.555 V 40.71 l -1.277,-0.202 V 37.08 Z"
             style="fill:#ffffff;fill-opacity:1;fill-rule:nonzero;stroke:none"
             id="path50" />
        </g>
      </g>
    </g>
  </g>
</svg>
