<?xml version="1.0" encoding="UTF-8" standalone="no"?>
<!-- Created with Inkscape (http://www.inkscape.org/) -->

<svg
   version="1.1"
   id="svg2"
   width="666.66669"
   height="284.46799"
   viewBox="0 0 666.66669 284.46799"
   sodipodi:docname="Rhythm World Wii (리듬 세상 Ｗｉｉ) Logo (Wordmark).ai"
   xmlns:inkscape="http://www.inkscape.org/namespaces/inkscape"
   xmlns:sodipodi="http://sodipodi.sourceforge.net/DTD/sodipodi-0.dtd"
   xmlns="http://www.w3.org/2000/svg"
   xmlns:svg="http://www.w3.org/2000/svg">
  <defs
     id="defs6">
    <clipPath
       clipPathUnits="userSpaceOnUse"
       id="clipPath16">
      <path
         d="M 0,213.351 H 500 V 0 H 0 Z"
         id="path14" />
    </clipPath>
  </defs>
  <sodipodi:namedview
     id="namedview4"
     pagecolor="#ffffff"
     bordercolor="#000000"
     borderopacity="0.25"
     inkscape:showpageshadow="2"
     inkscape:pageopacity="0.0"
     inkscape:pagecheckerboard="0"
     inkscape:deskcolor="#d1d1d1" />
  <g
     id="g8"
     inkscape:groupmode="layer"
     inkscape:label="Rhythm World Wii (리듬 세상 Ｗｉｉ) Logo (Wordmark)"
     transform="matrix(1.3333333,0,0,-1.3333333,0,284.468)">
    <g
       id="g10">
      <g
         id="g12"
         clip-path="url(#clipPath16)">
        <g
           id="g18"
           transform="translate(500,102.5905)">
          <path
             d="m 0,0 c 0,-6.031 -4.889,-11.695 -10.921,-12.65 -6.031,-0.956 -10.92,3.159 -10.92,9.191 0,6.031 4.889,11.695 10.92,12.65 C -4.889,10.146 0,6.031 0,0 m -1.813,-64.792 v 40.77 c 0,5.03 -4.078,8.461 -9.107,7.665 -5.029,-0.797 -9.107,-5.52 -9.107,-10.549 v -40.771 c 0,-5.029 4.078,-8.461 9.107,-7.665 5.029,0.797 9.107,5.52 9.107,10.55 M -35.02,-6.266 c 0,-6.031 -4.89,-11.695 -10.921,-12.65 -6.031,-0.955 -10.921,3.16 -10.921,9.191 0,6.031 4.89,11.695 10.921,12.65 6.031,0.956 10.921,-3.159 10.921,-9.191 m -1.814,-64.792 v 40.771 c 0,5.029 -4.077,8.46 -9.106,7.664 -5.029,-0.797 -9.107,-5.519 -9.107,-10.549 v -40.77 c 0,-5.03 4.078,-8.462 9.107,-7.666 5.029,0.797 9.106,5.521 9.106,10.55 m -26.817,55.312 -16.281,-62.575 c -1.272,-4.889 -3.521,-9.357 -10.675,-10.49 -3.713,-0.588 -8.346,1.342 -10.582,7.084 l -10.822,27.781 -7.583,-29.594 c -1.73,-6.75 -4.375,-10.555 -10.871,-11.584 -3.333,-0.528 -9.141,0.077 -11.921,7.293 l -22.012,57.141 c -2.109,5.475 0.213,11.419 6.302,14.068 5.308,2.31 12.205,-0.126 14.518,-6.401 l 10.272,-27.865 8.927,34.012 c 2.611,9.948 16.981,10.714 20.732,1.13 l 10.492,-26.806 8.3,31.107 c 1.561,5.853 5.568,10.713 14.023,9.482 6.945,-1.012 8.725,-7.851 7.181,-13.783"
             style="fill:#000000;fill-opacity:1;fill-rule:nonzero;stroke:none"
             id="path20" />
        </g>
        <g
           id="g22"
           transform="translate(348.6719,163.9802)">
          <path
             d="m 0,0 c 0,0 -1.948,-16.598 -23.199,-38.035 l -10.881,9.036 c 10.889,8.818 23.439,28.969 23.439,46.926 v 0.507 c 0,2.157 -1.669,2.154 -3.747,1.75 l -2.101,-0.408 v 6.392 L 6.83,30.701 V 21.323 C 6.83,2.984 16.947,0.036 30.389,-0.096 L 23.703,-10.497 C 3.277,-8.665 0,0 0,0 M 65.308,25.668 V 13.989 L 52.031,11.408 v -21.933 l -17.735,-3.447 v 50.536 c 0,2.275 -1.868,2.252 -3.997,1.838 L 28.16,37.987 v 6.744 l 23.871,4.64 V 23.087 Z M 18.406,-47.923 c -2.42,0.048 -7.358,0.145 -7.358,7.736 0,7.867 6.282,13.51 13.11,13.511 7.009,10e-4 7.502,-4.749 7.502,-7.64 0,-7.087 -6.108,-13.747 -13.254,-13.607 m 17.735,31.284 c -8.231,1.855 -18.826,2.05 -30.844,-6.135 -7.903,-5.382 -11.888,-11.938 -11.888,-19.451 0,-2.707 0.594,-5.392 1.774,-7.976 3.62,-7.929 8.982,-8.354 16.272,-8.933 11.913,-0.946 19.078,2.207 26.22,7.046 7.981,5.414 12.055,11.875 12.055,19.426 0,6.742 -3.46,13.741 -13.589,16.023"
             style="fill:#000000;fill-opacity:1;fill-rule:nonzero;stroke:none"
             id="path24" />
        </g>
        <g
           id="g26"
           transform="translate(277.4849,156.3187)">
          <path
             d="m 0,0 v -6.639 l 1.727,0.336 c 1.72,0.334 3.257,0.559 3.257,-1.726 V -92.576 L 22.352,-89.2 V 4.345 Z m -20.345,-21.178 v -6.639 l 1.727,0.336 c 1.72,0.334 3.295,0.64 3.295,-1.645 v -19.347 l -14.567,-2.832 v -10.408 l 14.567,2.831 v -57.334 l 15.977,3.106 v 96.013 z m 2.258,-55.148 -7.45,-10.227 c -14.554,5.006 -18.485,12.515 -18.485,12.515 0,0 -5.511,-10.551 -17.064,-21.426 l -9.639,8.365 c 0,0 17.029,16.323 17.029,32.739 v 12.495 c 0,2.285 -1.806,2.238 -3.825,1.845 l -2.029,-0.394 v 7.219 l 22.303,4.335 v -22.987 c 0,-22.01 19.16,-24.479 19.16,-24.479"
             style="fill:#000000;fill-opacity:1;fill-rule:nonzero;stroke:none"
             id="path28" />
        </g>
        <g
           id="g30"
           transform="translate(135.5329,149.1336)">
          <path
             d="M 0,0 V -10.645 L 54.677,-0.017 V -10.39 L -8.69,-22.707 c -5.114,-0.994 -9.259,2.522 -9.26,7.854 v 12.358 c 0,2.138 -0.188,2.786 -4.984,1.854 l -0.909,-0.177 v 6.556 l 78.52,15.263 V 10.628 Z m 54.677,-15.471 v -10.373 l -91.946,-17.873 v 10.373 z M 34.584,-58.85 3.611,-64.87 v 13.525 l 30.973,6.02 z m 18.241,27.565 -73.404,-14.269 v -7.122 l 0.91,0.177 c 4.804,0.934 4.993,0.148 4.993,-2.199 v -14.904 c 0,-4.798 3.731,-7.963 8.334,-7.068 l 52.685,10.241 c 4.603,0.895 8.334,5.51 8.334,10.308 v 23.265 c 0,1.066 -0.829,1.769 -1.852,1.571"
             style="fill:#000000;fill-opacity:1;fill-rule:nonzero;stroke:none"
             id="path32" />
        </g>
        <g
           id="g34"
           transform="translate(57.9213,108.5352)">
          <path
             d="m 0,0 v -7.138 l 2.036,0.395 c 2.027,0.394 3.882,0.755 3.882,-1.908 v -42.16 c -2.994,-1.71 -6.829,-3.123 -11.556,-4.042 l -28.001,-5.443 v 12.904 l 25.966,5.047 c 1.292,0.251 2.339,1.527 2.339,2.85 v 25.548 c 0,1.323 -1.047,2.192 -2.339,1.941 l -48.704,-9.467 v -11.034 l 33.218,6.457 v -8.675 l -34.762,-6.757 v -7.258 l 0.82,0.159 c 1.658,0.322 4.116,0.8 4.116,-1.667 v -17.176 c 0,-4.233 3.351,-7.014 7.486,-6.21 l 36.563,7.107 c 6.859,1.333 11.837,3.011 14.854,4.554 v -40.422 l 18.832,3.66 V 4.811 Z"
             style="fill:#000000;fill-opacity:1;fill-rule:nonzero;stroke:none"
             id="path36" />
        </g>
        <g
           id="g38"
           transform="translate(497.6465,3.3418)">
          <path
             d="M 0,0 V 10.455 L -2.326,-0.452 -4.845,-0.942 -7.116,9.072 V -1.383 l -2.381,-0.463 v 12.515 l 3.72,0.724 2.243,-9.491 0.028,0.005 2.188,10.352 3.671,0.714 V 0.457 Z M -17.192,-3.342 V 6.954 l -3.831,-0.745 v 2.213 l 10.132,1.969 V 8.179 L -14.583,7.461 V -2.835 Z"
             style="fill:#000000;fill-opacity:1;fill-rule:nonzero;stroke:none"
             id="path40" />
        </g>
      </g>
    </g>
  </g>
</svg>
