<?xml version="1.0" encoding="UTF-8" standalone="no"?>
<!-- Created with Inkscape (http://www.inkscape.org/) -->

<svg
   version="1.1"
   id="svg2"
   width="666.66669"
   height="355.98532"
   viewBox="0 0 666.66669 355.98532"
   sodipodi:docname="Rhythm World Wii (리듬 세상 Ｗｉｉ) Logo (Print).ai"
   xmlns:inkscape="http://www.inkscape.org/namespaces/inkscape"
   xmlns:sodipodi="http://sodipodi.sourceforge.net/DTD/sodipodi-0.dtd"
   xmlns="http://www.w3.org/2000/svg"
   xmlns:svg="http://www.w3.org/2000/svg">
  <defs
     id="defs6">
    <clipPath
       clipPathUnits="userSpaceOnUse"
       id="clipPath16">
      <path
         d="M 0,266.989 H 500 V 0 H 0 Z"
         id="path14" />
    </clipPath>
  </defs>
  <sodipodi:namedview
     id="namedview4"
     pagecolor="#ffffff"
     bordercolor="#000000"
     borderopacity="0.25"
     inkscape:showpageshadow="2"
     inkscape:pageopacity="0.0"
     inkscape:pagecheckerboard="0"
     inkscape:deskcolor="#d1d1d1" />
  <g
     id="g8"
     inkscape:groupmode="layer"
     inkscape:label="Rhythm World Wii (리듬 세상 Ｗｉｉ) Logo (Print)"
     transform="matrix(1.3333333,0,0,-1.3333333,0,355.98533)">
    <g
       id="g10">
      <g
         id="g12"
         clip-path="url(#clipPath16)">
        <g
           id="g18"
           transform="translate(373.8827,266.9894)">
          <path
             d="m 0,0 c -32.387,0 -61.888,-18.159 -76.768,-45.766 -4.165,0.548 -8.369,0.824 -12.593,0.824 -14.082,0 -27.796,-3.033 -40.368,-8.859 -15.557,13.243 -35.36,20.616 -56.247,20.616 -32.115,0 -61.355,-17.948 -76.256,-45.293 -5.236,0.871 -10.554,1.31 -15.923,1.31 -52.785,0 -95.728,-42.577 -95.728,-94.911 0,-52.334 42.943,-94.91 95.728,-94.91 40.665,0 75.951,25.041 89.662,61.586 8.929,-0.257 17.688,0.822 26.092,3.19 18.062,-21.065 44.85,-33.665 73.04,-33.665 41.493,0 77.159,25.882 90.411,63.555 47.456,0.56 85.89,38.995 85.89,86.158 C 86.94,-38.653 47.938,0 0,0"
             style="fill:#000000;fill-opacity:1;fill-rule:nonzero;stroke:none"
             id="path20" />
        </g>
        <g
           id="g22"
           transform="translate(373.8827,256.8753)">
          <path
             d="m 0,0 c -31.108,0 -59.198,-18.931 -70.964,-46.924 -6.03,1.317 -12.19,1.982 -18.397,1.982 -14.859,0 -29.258,-3.771 -42.06,-10.964 -14.347,14.523 -33.846,22.721 -54.555,22.721 -30.927,0 -58.834,-18.829 -70.6,-46.705 -7.017,1.808 -14.246,2.722 -21.579,2.722 -47.208,0 -85.613,-38.039 -85.613,-84.797 0,-46.757 38.405,-84.796 85.613,-84.796 38.965,0 72.405,25.68 82.513,62.161 3.21,-0.407 6.441,-0.612 9.666,-0.612 9.388,0 18.48,1.652 27.118,4.92 16.022,-21.976 42.015,-35.359 69.497,-35.359 39.635,0 73.326,26.385 83.003,63.814 2.122,-0.176 4.246,-0.265 6.358,-0.265 42.361,0 76.826,34.117 76.826,76.052 C 76.826,-34.116 42.361,0 0,0"
             style="fill:#ffffff;fill-opacity:1;fill-rule:nonzero;stroke:none"
             id="path24" />
        </g>
        <g
           id="g26"
           transform="translate(373.8821,248.4471)">
          <path
             d="m 0,0 c -31.108,0 -57.348,-20.539 -65.648,-48.643 -7.474,2.394 -15.439,3.7 -23.713,3.7 -16.184,0 -31.2,-4.953 -43.618,-13.407 -12.482,15.343 -31.58,25.165 -52.996,25.165 -31.007,0 -57.155,-20.577 -65.385,-48.717 -8.348,3.058 -17.373,4.734 -26.795,4.734 -42.628,0 -77.184,-34.192 -77.184,-76.369 0,-42.177 34.556,-76.368 77.184,-76.368 38.182,0 69.868,27.439 76.066,63.47 5.168,-1.245 10.56,-1.921 16.114,-1.921 10.861,0 21.121,2.537 30.232,7.026 13.508,-22.438 38.177,-37.464 66.382,-37.464 38.554,0 70.509,28.07 76.362,64.784 4.21,-0.801 8.553,-1.235 12.999,-1.235 37.775,0 68.398,30.276 68.398,67.623 C 68.398,-30.276 37.775,0 0,0"
             style="fill:#000000;fill-opacity:1;fill-rule:nonzero;stroke:none"
             id="path28" />
        </g>
        <path
           d="m 368.231,110.299 h 43.695 v 14.336 h -43.695 z"
           style="fill:#000000;fill-opacity:1;fill-rule:nonzero;stroke:none"
           id="path30" />
        <g
           id="g32"
           transform="translate(500,128.6442)">
          <path
             d="m 0,0 c 0,4.975 -2.086,9.61 -5.724,12.718 -3.669,3.134 -8.642,4.475 -13.624,3.688 -6.616,-1.049 -12.221,-5.616 -14.944,-11.526 -0.658,0.845 -1.401,1.626 -2.224,2.328 -3.669,3.135 -8.644,4.479 -13.623,3.689 -4.847,-0.768 -9.15,-3.424 -12.176,-7.112 -2.064,1.468 -4.502,2.439 -7.177,2.829 C -80.07,8.157 -88.382,2.598 -91.18,-7.89 l -0.674,-2.526 c -2.953,7.107 -9.859,11.377 -17.732,10.926 -7.951,-0.464 -14.372,-5.649 -16.354,-13.209 l -1.056,-4.023 c -1.821,4.464 -5.225,7.94 -9.647,9.828 -4.545,1.941 -9.704,1.944 -14.154,0.007 -9.251,-4.026 -13.569,-13.968 -10.043,-23.127 l 19.354,-50.241 c 3.424,-8.891 10.662,-11.93 16.817,-11.93 0.983,0 1.94,0.078 2.848,0.222 11.395,1.805 14.819,10.234 16.404,16.418 l 0.162,0.634 0.003,-0.006 c 3.655,-9.385 11.922,-12.536 18.477,-11.495 8.448,1.337 13.907,6.527 16.225,15.426 l 5.294,20.347 v -14.375 c 0,-4.559 1.919,-8.813 5.264,-11.671 3.373,-2.879 7.925,-4.115 12.49,-3.394 7.134,1.131 12.967,6.786 14.636,13.632 0.887,-1.8 2.125,-3.413 3.666,-4.729 3.373,-2.878 7.925,-4.116 12.49,-3.394 8.476,1.344 15.116,9.075 15.116,17.601 v 35.848 c 0,3.281 -0.994,6.404 -2.798,8.962 C -1.653,-8.745 0,-4.471 0,0"
             style="fill:#000000;fill-opacity:1;fill-rule:nonzero;stroke:none"
             id="path34" />
        </g>
        <g
           id="g36"
           transform="translate(491.5723,128.644)">
          <path
             d="m 0,0 c 0,-5.303 -4.299,-10.283 -9.602,-11.123 -5.303,-0.84 -9.602,2.778 -9.602,8.081 0,5.303 4.299,10.283 9.602,11.123 C -4.299,8.921 0,5.303 0,0 m -1.594,-56.968 v 35.847 c 0,4.422 -3.586,7.439 -8.007,6.739 -4.422,-0.701 -8.007,-4.853 -8.007,-9.276 v -35.847 c 0,-4.422 3.585,-7.44 8.007,-6.74 4.421,0.701 8.007,4.854 8.007,9.277 m -29.198,51.459 c 0,-5.303 -4.299,-10.283 -9.602,-11.123 -5.303,-0.84 -9.602,2.778 -9.602,8.081 0,5.303 4.299,10.283 9.602,11.123 5.303,0.84 9.602,-2.778 9.602,-8.081 m -1.594,-56.969 v 35.848 c 0,4.422 -3.585,7.439 -8.007,6.739 -4.422,-0.701 -8.007,-4.853 -8.007,-9.276 v -35.847 c 0,-4.422 3.585,-7.44 8.007,-6.74 4.422,0.701 8.007,4.854 8.007,9.276 m -23.579,48.633 -14.315,-55.019 c -1.119,-4.298 -3.097,-8.227 -9.386,-9.223 -3.265,-0.518 -7.339,1.18 -9.305,6.228 l -9.515,24.427 -6.668,-26.021 c -1.52,-5.935 -3.846,-9.281 -9.558,-10.185 -2.93,-0.464 -8.037,0.068 -10.481,6.412 l -19.354,50.242 c -1.854,4.814 0.187,10.04 5.54,12.369 4.668,2.031 10.732,-0.111 12.766,-5.628 l 9.031,-24.501 7.849,29.905 c 2.296,8.748 14.931,9.421 18.229,0.994 l 9.225,-23.569 7.298,27.351 c 1.373,5.146 4.896,9.42 12.33,8.337 6.106,-0.89 7.671,-6.903 6.314,-12.119"
             style="fill:#ffffff;fill-opacity:1;fill-rule:nonzero;stroke:none"
             id="path38" />
        </g>
        <g
           id="g40"
           transform="translate(480.1485,68.4147)">
          <path
             d="m 0,0 c -0.066,0.067 -0.362,0.413 -0.362,1.375 v 33.111 c 0,1.047 -0.85,1.896 -1.897,1.896 -1.047,0 -1.896,-0.849 -1.896,-1.896 V 1.375 c 0,-3.522 2.178,-4.632 2.426,-4.747 0.259,-0.12 0.529,-0.176 0.796,-0.176 0.716,0 1.402,0.408 1.722,1.1 C 1.208,-1.544 0.854,-0.48 0,0 m 2.33,66.121 c -2.185,0 -4.134,-1.422 -5.452,-2.741 -2.04,-2.039 -2.126,-5.674 -2.007,-6.904 0.127,-1.301 0.96,-1.915 2.006,-1.915 1.047,0 1.885,0.541 1.885,2.25 0,0.836 -0.056,2.901 1.17,4.183 0.553,0.579 1.41,1.334 2.398,1.334 1.047,0 1.896,0.849 1.896,1.896 0,1.047 -0.849,1.897 -1.896,1.897 m -33.122,-71.63 c -0.066,0.067 -0.362,0.413 -0.362,1.374 v 33.112 c 0,1.047 -0.849,1.896 -1.896,1.896 -1.047,0 -1.897,-0.849 -1.897,-1.896 V -4.135 c 0,-3.522 2.178,-4.631 2.427,-4.746 0.258,-0.12 0.528,-0.176 0.795,-0.176 0.716,0 1.402,0.408 1.722,1.1 0.42,0.904 0.066,1.968 -0.789,2.448 m 2.333,66.12 c -2.184,0 -4.133,-1.421 -5.452,-2.74 -2.04,-2.039 -2.126,-5.674 -2.006,-6.904 0.126,-1.302 0.959,-1.915 2.006,-1.915 1.047,0 1.885,0.541 1.885,2.25 0,0.836 -0.057,2.901 1.17,4.183 0.553,0.579 1.409,1.334 2.397,1.334 1.047,0 1.896,0.849 1.896,1.896 0,1.047 -0.849,1.896 -1.896,1.896 m -35.785,-40.758 7.716,28.792 c 0.27,1.011 -0.329,2.051 -1.342,2.321 -1.007,0.271 -2.051,-0.328 -2.322,-1.34 l -7.716,-28.792 c -0.27,-1.012 0.329,-2.051 1.342,-2.322 0.164,-0.045 0.329,-0.066 0.492,-0.066 0.836,0 1.603,0.559 1.83,1.407 m -35.198,-5.81 7.434,27.744 c 0.27,1.012 -0.329,2.051 -1.342,2.322 -1.009,0.27 -2.051,-0.328 -2.323,-1.341 l -7.434,-27.743 c -0.27,-1.012 0.329,-2.052 1.342,-2.322 0.164,-0.045 0.329,-0.066 0.492,-0.066 0.836,0 1.603,0.559 1.831,1.406 m 29.881,-27.486 c 0.417,0.862 0.124,1.882 -0.65,2.399 -1.576,1.805 -7.115,15.941 -11.621,28.735 -0.347,0.988 -1.428,1.506 -2.419,1.159 -0.988,-0.348 -1.507,-1.43 -1.159,-2.418 10.324,-29.314 12.578,-30.401 13.317,-30.758 0.267,-0.129 0.547,-0.189 0.823,-0.189 0.705,0 1.383,0.395 1.709,1.072 m -35.543,-5.599 c 0.397,0.821 0.149,1.787 -0.545,2.323 -2.21,2.861 -13.523,32.102 -20.2,50.038 -0.367,0.982 -1.458,1.479 -2.439,1.116 -0.982,-0.366 -1.482,-1.457 -1.117,-2.439 18.795,-50.485 20.956,-51.529 21.77,-51.922 0.266,-0.128 0.546,-0.189 0.823,-0.189 0.704,0 1.382,0.395 1.708,1.073 m 47.843,74.259 c -1.048,0 -1.897,-0.849 -1.897,-1.896 0,-1.048 0.849,-1.897 1.897,-1.897 1.047,0 1.896,0.849 1.896,1.897 0,1.047 -0.849,1.896 -1.896,1.896 m -35.528,-6.769 c -1.048,0 -1.897,-0.849 -1.897,-1.897 0,-1.047 0.849,-1.896 1.897,-1.896 1.047,0 1.896,0.849 1.896,1.896 0,1.048 -0.849,1.897 -1.896,1.897 m -34.912,-11.561 c 0,-1.048 -0.849,-1.897 -1.896,-1.897 -1.047,0 -1.896,0.849 -1.896,1.897 0,1.047 0.849,1.896 1.896,1.896 1.047,0 1.896,-0.849 1.896,-1.896"
             style="fill:#000000;fill-opacity:1;fill-rule:nonzero;stroke:none"
             id="path42" />
        </g>
        <g
           id="g44"
           transform="translate(358.5166,182.6211)">
          <path
             d="m 0,0 c 0,0 -1.712,-14.593 -20.398,-33.442 l -9.567,7.944 c 9.575,7.754 20.609,25.472 20.609,41.26 v 0.446 c 0,1.896 -1.467,1.894 -3.295,1.539 l -1.847,-0.359 v 5.62 L 6.006,26.994 V 18.748 C 6.006,2.624 14.901,0.032 26.72,-0.084 L 20.841,-9.23 C 2.881,-7.619 0,0 0,0 M 57.423,22.569 V 12.3 L 45.748,10.031 V -9.254 l -15.593,-3.031 v 44.434 c 0,2.001 -1.643,1.98 -3.515,1.616 L 24.76,33.4 v 5.93 l 20.988,4.079 V 20.299 Z M 16.184,-42.136 c -2.129,0.042 -6.47,0.127 -6.47,6.801 0,6.917 5.523,11.879 11.527,11.88 6.163,0 6.596,-4.176 6.596,-6.718 0,-6.231 -5.371,-12.087 -11.653,-11.963 m 15.593,27.506 c -7.237,1.631 -16.553,1.803 -27.12,-5.394 -6.948,-4.732 -10.452,-10.497 -10.452,-17.102 0,-2.38 0.522,-4.742 1.559,-7.013 3.184,-6.972 7.898,-7.346 14.308,-7.855 10.474,-0.831 16.774,1.94 23.054,6.195 7.017,4.761 10.599,10.441 10.599,17.081 0,5.928 -3.042,12.082 -11.948,14.088"
             style="fill:#ffffff;fill-opacity:1;fill-rule:nonzero;stroke:none"
             id="path46" />
        </g>
        <g
           id="g48"
           transform="translate(295.9252,175.8848)">
          <path
             d="m 0,0 v -5.837 l 1.519,0.295 c 1.512,0.294 2.864,0.492 2.864,-1.517 v -74.339 l 15.27,2.969 V 3.82 Z m -17.888,-18.621 v -5.837 l 1.518,0.295 c 1.512,0.294 2.897,0.563 2.897,-1.446 V -42.62 l -12.808,-2.49 v -9.152 l 12.808,2.49 v -50.411 l 14.048,2.731 v 84.42 z m 1.985,-48.489 -6.55,-8.992 c -12.797,4.402 -16.253,11.004 -16.253,11.004 0,0 -4.846,-9.277 -15.004,-18.839 l -8.475,7.355 c 0,0 14.973,14.352 14.973,28.786 v 10.986 c 0,2.01 -1.588,1.968 -3.364,1.622 l -1.783,-0.346 v 6.347 l 19.61,3.812 v -20.211 c 0,-19.353 16.846,-21.524 16.846,-21.524"
             style="fill:#ffffff;fill-opacity:1;fill-rule:nonzero;stroke:none"
             id="path50" />
        </g>
        <g
           id="g52"
           transform="translate(171.1135,169.5672)">
          <path
             d="m 0,0 v -9.36 l 48.075,9.345 v -9.12 L -7.64,-19.965 c -4.497,-0.874 -8.142,2.217 -8.142,6.905 v 10.866 c 0,1.88 -0.166,2.45 -4.383,1.63 l -0.799,-0.155 v 5.764 l 69.039,13.42 v -9.12 z m 48.075,-13.603 v -9.121 l -80.844,-15.714 v 9.12 z M 30.408,-51.744 3.175,-57.037 v 11.892 l 27.233,5.293 z m 16.039,24.236 -64.541,-12.545 v -6.262 l 0.8,0.155 c 4.224,0.821 4.39,0.13 4.39,-1.933 v -13.104 c 0,-4.22 3.281,-7.002 7.328,-6.215 l 46.324,9.004 c 4.047,0.787 7.327,4.845 7.327,9.064 v 20.455 c 0,0.938 -0.729,1.556 -1.628,1.381"
             style="fill:#ffffff;fill-opacity:1;fill-rule:nonzero;stroke:none"
             id="path54" />
        </g>
        <g
           id="g56"
           transform="translate(102.8732,133.871)">
          <path
             d="m 0,0 v -6.276 l 1.79,0.348 c 1.782,0.346 3.414,0.663 3.414,-1.679 V -44.675 C 2.571,-46.18 -0.801,-47.422 -4.957,-48.23 l -24.62,-4.785 v 11.345 l 22.83,4.438 c 1.136,0.221 2.057,1.343 2.057,2.506 v 22.463 c 0,1.163 -0.921,1.927 -2.057,1.706 l -42.823,-8.324 v -9.7 l 29.207,5.677 v -7.628 l -30.564,-5.941 v -6.382 l 0.721,0.14 c 1.458,0.283 3.618,0.703 3.618,-1.466 v -15.102 c 0,-3.722 2.947,-6.167 6.583,-5.46 l 32.148,6.249 c 6.03,1.172 10.408,2.647 13.061,4.004 v -35.541 l 16.557,3.218 V 4.23 Z"
             style="fill:#ffffff;fill-opacity:1;fill-rule:nonzero;stroke:none"
             id="path58" />
        </g>
        <g
           id="g60"
           transform="translate(496.7084,41.3793)">
          <path
             d="m 0,0 v 9.192 l -2.045,-9.59 -2.215,-0.43 -1.996,8.804 V -1.216 L -8.35,-1.623 V 9.381 l 3.271,0.636 1.972,-8.345 0.024,0.005 1.924,9.102 3.228,0.627 V 0.402 Z M -15.116,-2.938 V 6.114 L -18.484,5.46 v 1.945 l 8.908,1.732 V 7.191 L -12.822,6.56 v -9.052 z"
             style="fill:#000000;fill-opacity:1;fill-rule:nonzero;stroke:none"
             id="path62" />
        </g>
      </g>
    </g>
  </g>
</svg>
