<?xml version="1.0" encoding="UTF-8" standalone="no"?>
<!-- Created with Inkscape (http://www.inkscape.org/) -->

<svg
   version="1.1"
   id="svg1"
   width="666.66669"
   height="284.992"
   viewBox="0 0 666.66669 284.992"
   sodipodi:docname="Rhythm World Wii (리듬 세상 Ｗｉｉ) Logo (Wordmark).ai"
   xmlns:inkscape="http://www.inkscape.org/namespaces/inkscape"
   xmlns:sodipodi="http://sodipodi.sourceforge.net/DTD/sodipodi-0.dtd"
   xmlns="http://www.w3.org/2000/svg"
   xmlns:svg="http://www.w3.org/2000/svg">
  <defs
     id="defs1">
    <clipPath
       clipPathUnits="userSpaceOnUse"
       id="clipPath2">
      <path
         d="M 0,213.744 H 500 V 0 H 0 Z"
         transform="translate(-340.40891,-86.124205)"
         id="path2" />
    </clipPath>
    <clipPath
       clipPathUnits="userSpaceOnUse"
       id="clipPath4">
      <path
         d="M 0,213.744 H 500 V 0 H 0 Z"
         transform="translate(-349.31411,-164.2824)"
         id="path4" />
    </clipPath>
    <clipPath
       clipPathUnits="userSpaceOnUse"
       id="clipPath6">
      <path
         d="M 0,213.744 H 500 V 0 H 0 Z"
         transform="translate(-277.99681,-156.6066)"
         id="path6" />
    </clipPath>
    <clipPath
       clipPathUnits="userSpaceOnUse"
       id="clipPath8">
      <path
         d="M 0,213.744 H 500 V 0 H 0 Z"
         transform="translate(-135.78291,-149.4084)"
         id="path8" />
    </clipPath>
    <clipPath
       clipPathUnits="userSpaceOnUse"
       id="clipPath10">
      <path
         d="M 0,213.744 H 500 V 0 H 0 Z"
         transform="translate(-58.028002,-108.73551)"
         id="path10" />
    </clipPath>
    <clipPath
       clipPathUnits="userSpaceOnUse"
       id="clipPath12">
      <path
         d="M 0,213.744 H 500 V 0 H 0 Z"
         transform="translate(-497.64231,-3.3477976)"
         id="path12" />
    </clipPath>
  </defs>
  <sodipodi:namedview
     id="namedview1"
     pagecolor="#ffffff"
     bordercolor="#000000"
     borderopacity="0.25"
     inkscape:showpageshadow="2"
     inkscape:pageopacity="0.0"
     inkscape:pagecheckerboard="0"
     inkscape:deskcolor="#d1d1d1">
    <inkscape:page
       x="0"
       y="0"
       inkscape:label="1"
       id="page1"
       width="666.66669"
       height="284.992"
       margin="0"
       bleed="0" />
  </sodipodi:namedview>
  <g
     id="layer-MC0"
     inkscape:groupmode="layer"
     inkscape:label="Layer 1">
    <path
       id="path1"
       d="m 0,0 c -5.452,-2.918 -6.969,-8.214 -4.73,-14.052 l 21.796,-56.865 c 1.299,-3.389 3.374,-6.93 8.915,-7.518 6.657,-0.706 10.245,4.251 11.103,7.449 l 9.561,35.589 10.733,-28.002 c 1.763,-4.595 4.641,-7.233 7.85,-7.572 8.394,-0.887 11.146,3.715 12.666,8.947 L 95.092,1.99 C 96.999,9.086 93.015,14.729 86.472,15.421 82.19,15.873 76.956,14.084 75.104,7.707 L 65.712,-27.183 54.431,2.249 C 52.389,7.575 45.022,10.353 39.365,6.889 37.16,5.538 35.639,3.354 34.845,0.396 L 25.352,-34.876 13.869,-4.855 C 11.598,1.071 3.774,2.021 0,0 m 157.842,-46.426 c -0.135,-5.985 -3.62,-10.442 -8.849,-11.364 -5.363,-0.945 -8.983,2.391 -8.983,8.22 v 39.185 c 0.134,5.987 3.62,10.443 8.848,11.364 5.364,0.947 8.984,-2.39 8.984,-8.219 z m 1.749,64.781 c 0,-5.829 -4.769,-11.439 -10.731,-12.491 -5.698,-1.005 -10.599,2.902 -10.599,8.466 0,6.094 4.77,11.572 10.864,12.647 5.829,1.028 10.466,-2.792 10.466,-8.622 m -37.086,-71.276 c -0.135,-5.986 -3.62,-10.442 -8.849,-11.364 -5.363,-0.946 -8.983,2.39 -8.983,8.22 v 39.185 c 0.133,5.985 3.62,10.443 8.848,11.364 5.364,0.946 8.984,-2.39 8.984,-8.219 z m 1.749,64.781 c 0,-5.829 -4.769,-11.44 -10.732,-12.492 -5.697,-1.004 -10.598,2.902 -10.598,8.466 0,6.094 4.769,11.572 10.863,12.647 5.83,1.028 10.467,-2.792 10.467,-8.621"
       style="fill:#000000;fill-opacity:1;fill-rule:nonzero;stroke:none"
       transform="matrix(1.3333333,0,0,-1.3333333,453.87853,170.15973)"
       clip-path="url(#clipPath2)" />
    <path
       id="path3"
       d="m 0,0 c 0,0 -1.951,-16.628 -23.241,-38.104 l -10.902,9.051 c 10.91,8.835 23.483,29.024 23.483,47.013 v 0.508 c 0,2.161 -1.672,2.158 -3.754,1.754 l -2.105,-0.41 v 6.405 L 6.844,30.758 V 21.362 C 6.844,2.99 16.979,0.036 30.446,-0.096 L 23.747,-10.517 C 3.283,-8.681 0,0 0,0 m 65.429,25.715 v -11.7 L 52.127,11.429 v -21.973 l -17.768,-3.454 v 50.629 c 0,2.28 -1.872,2.257 -4.004,1.842 l -2.142,-0.416 v 6.756 l 23.914,4.649 V 23.13 Z M 18.44,-48.011 c -2.424,0.048 -7.371,0.145 -7.371,7.75 0,7.881 6.293,13.534 13.134,13.535 7.022,10e-4 7.516,-4.757 7.516,-7.654 0,-7.099 -6.119,-13.772 -13.279,-13.631 m 17.768,31.341 c -6.766,1.696 -18.792,1.952 -30.901,-6.146 -10.444,-6.985 -14.123,-19.269 -10.414,-27.711 5.683,-12.938 28.47,-11.256 42.852,-1.658 8.036,5.365 12.077,11.898 12.077,19.463 0,6.754 -3.524,13.523 -13.614,16.052"
       style="fill:#000000;fill-opacity:1;fill-rule:nonzero;stroke:none"
       transform="matrix(1.3333333,0,0,-1.3333333,465.75213,65.9488)"
       clip-path="url(#clipPath4)" />
    <path
       id="path5"
       d="m 0,0 v -6.651 l 1.73,0.337 c 1.723,0.335 3.263,0.56 3.263,-1.729 v -84.703 l 17.4,3.382 V 4.353 Z m -20.383,-21.217 v -6.651 l 1.731,0.336 c 1.722,0.335 3.299,0.641 3.299,-1.648 v -19.383 l -14.592,-2.836 v -10.428 l 14.592,2.837 v -57.44 l 16.008,3.112 v 96.19 z m 2.263,-55.249 -7.464,-10.246 c -14.581,5.015 -18.52,12.537 -18.52,12.537 0,0 -5.521,-10.569 -17.095,-21.466 l -9.656,8.382 c 0,0 17.059,16.353 17.059,32.799 v 12.519 c 0,2.289 -1.808,2.241 -3.832,1.847 l -2.032,-0.394 v 7.232 l 22.345,4.344 v -23.03 c 0,-22.05 19.195,-24.524 19.195,-24.524"
       style="fill:#000000;fill-opacity:1;fill-rule:nonzero;stroke:none"
       transform="matrix(1.3333333,0,0,-1.3333333,370.6624,76.1832)"
       clip-path="url(#clipPath6)" />
    <path
       id="path7"
       d="m 0,0 v -10.665 l 54.778,10.648 v -10.392 l -63.484,-12.34 c -5.123,-0.996 -9.276,2.527 -9.276,7.868 V -2.5 c 0,2.143 -0.19,2.792 -4.995,1.857 l -0.911,-0.176 V 5.749 L 54.778,21.04 V 10.647 Z m 54.778,-15.5 v -10.392 l -92.116,-17.905 v 10.392 z M 34.647,-58.958 3.618,-64.989 v 13.55 l 31.029,6.031 z m 18.276,27.615 -73.54,-14.295 v -7.134 l 0.912,0.176 c 4.812,0.936 5.002,0.148 5.002,-2.202 v -14.931 c 0,-4.808 3.738,-7.979 8.349,-7.083 l 52.783,10.26 c 4.611,0.897 8.349,5.521 8.349,10.328 v 23.307 c 0,1.068 -0.831,1.773 -1.855,1.574"
       style="fill:#000000;fill-opacity:1;fill-rule:nonzero;stroke:none"
       transform="matrix(1.3333333,0,0,-1.3333333,181.04387,85.7808)"
       clip-path="url(#clipPath8)" />
    <path
       id="path9"
       d="m 0,0 v -7.151 l 2.04,0.396 c 2.03,0.395 3.89,0.756 3.89,-1.912 v -42.237 c -3,-1.714 -6.842,-3.129 -11.578,-4.05 l -28.053,-5.453 v 12.928 l 26.014,5.056 c 1.294,0.251 2.343,1.529 2.343,2.856 v 25.594 c 0,1.326 -1.049,2.196 -2.343,1.945 l -48.794,-9.486 v -11.052 l 33.279,6.468 v -8.691 l -34.826,-6.77 v -7.271 l 0.822,0.159 c 1.661,0.323 4.123,0.802 4.123,-1.671 v -17.206 c 0,-4.242 3.357,-7.027 7.5,-6.223 l 36.63,7.121 c 6.872,1.336 11.859,3.016 14.883,4.562 v -40.496 l 18.866,3.667 V 4.819 Z"
       style="fill:#000000;fill-opacity:1;fill-rule:nonzero;stroke:none"
       transform="matrix(1.3333333,0,0,-1.3333333,77.370667,140.01133)"
       clip-path="url(#clipPath10)" />
    <path
       id="path11"
       d="M 0,0 V 10.475 L -2.33,-0.453 -4.854,-0.943 -7.129,9.089 V -1.386 L -9.515,-1.85 v 12.539 l 3.728,0.725 2.247,-9.509 0.027,0.005 2.193,10.372 3.677,0.715 V 0.458 Z M -17.224,-3.348 V 6.967 l -3.838,-0.746 v 2.217 l 10.151,1.972 V 8.194 L -14.61,7.475 V -2.84 Z"
       style="fill:#000000;fill-opacity:1;fill-rule:nonzero;stroke:none"
       transform="matrix(1.3333333,0,0,-1.3333333,663.52307,280.52827)"
       clip-path="url(#clipPath12)" />
  </g>
</svg>
