<?xml version="1.0" encoding="UTF-8" standalone="no"?>
<!-- Created with Inkscape (http://www.inkscape.org/) -->

<svg
   version="1.1"
   id="svg2"
   width="666.66669"
   height="534.724"
   viewBox="0 0 666.66669 534.724"
   sodipodi:docname="Minna no Rhythm Tengoku Complete Music Collection (みんなのリズム天国全曲集) Logo (Print).ai"
   xmlns:inkscape="http://www.inkscape.org/namespaces/inkscape"
   xmlns:sodipodi="http://sodipodi.sourceforge.net/DTD/sodipodi-0.dtd"
   xmlns="http://www.w3.org/2000/svg"
   xmlns:svg="http://www.w3.org/2000/svg">
  <defs
     id="defs6">
    <clipPath
       clipPathUnits="userSpaceOnUse"
       id="clipPath16">
      <path
         d="M 0,401.043 H 500 V 0 H 0 Z"
         id="path14" />
    </clipPath>
  </defs>
  <sodipodi:namedview
     id="namedview4"
     pagecolor="#ffffff"
     bordercolor="#000000"
     borderopacity="0.25"
     inkscape:showpageshadow="2"
     inkscape:pageopacity="0.0"
     inkscape:pagecheckerboard="0"
     inkscape:deskcolor="#d1d1d1" />
  <g
     id="g8"
     inkscape:groupmode="layer"
     inkscape:label="Minna no Rhythm Tengoku Complete Music Collection (みんなのリズム天国全曲集) Logo (Print)"
     transform="matrix(1.3333333,0,0,-1.3333333,0,534.724)">
    <g
       id="g10">
      <g
         id="g12"
         clip-path="url(#clipPath16)">
        <g
           id="g18"
           transform="translate(500,264.2585)">
          <path
             d="m 0,0 c 0,41.851 -31.876,76.398 -72.624,80.638 -7.565,32.407 -36.46,56.147 -71.028,56.147 -17.4,0 -33.785,-6.036 -46.766,-16.93 -13.357,9.989 -29.692,15.521 -46.624,15.521 -28.775,0 -54.836,-15.846 -68.318,-40.507 -2.77,0.3 -5.555,0.451 -8.341,0.451 -19.152,0 -37.245,-6.913 -51.334,-19.317 -11.634,6.587 -24.871,10.122 -38.378,10.122 -42.934,0 -77.863,-34.929 -77.863,-77.863 0,-15.336 4.551,-30.211 12.845,-42.813 C -488.059,-48.975 -500,-71.95 -500,-97.201 c 0,-42.635 34.441,-77.376 76.965,-77.858 -0.243,-2.566 -0.365,-5.154 -0.365,-7.757 0,-44.908 36.535,-81.443 81.443,-81.443 29.381,0 55.874,15.631 70.261,40.223 8.935,-3.479 18.481,-5.279 28.24,-5.279 26.243,0 50.329,13.262 64.58,34.371 13.341,-7.874 28.596,-12.085 44.376,-12.085 48.245,0 87.496,39.25 87.496,87.496 0,14.741 -3.764,29.145 -10.709,41.887 C -24.36,-67.593 0,-36.589 0,0"
             style="fill:#000000;fill-opacity:1;fill-rule:nonzero;stroke:none"
             id="path20" />
        </g>
        <g
           id="g22"
           transform="translate(491.1954,264.2585)">
          <path
             d="m 0,0 c 0,39.508 -31.862,71.712 -71.24,72.264 -4.125,31.688 -30.996,55.716 -63.608,55.716 -17.772,0 -34.341,-7.164 -46.416,-19.866 -12.718,11.802 -29.488,18.457 -46.973,18.457 -27.581,0 -52.352,-16.413 -63.266,-41.371 -4.416,0.873 -8.901,1.315 -13.394,1.315 -19.175,0 -37.155,-7.817 -50.181,-21.633 -11.541,8.057 -25.367,12.438 -39.53,12.438 -38.08,0 -69.059,-30.979 -69.059,-69.058 0,-16.619 6.028,-32.629 16.774,-45.098 -21.819,-12.071 -35.498,-34.914 -35.498,-60.365 0,-38.079 30.98,-69.058 69.059,-69.058 3.224,0 6.43,0.222 9.6,0.664 -1.368,-5.607 -2.058,-11.367 -2.058,-17.221 0,-40.053 32.585,-72.638 72.637,-72.638 28.905,0 54.678,16.963 66.281,42.905 9.886,-5.226 20.891,-7.962 32.22,-7.962 26.274,0 50.114,14.99 61.715,38.058 13.579,-10.222 30.066,-15.771 47.242,-15.771 43.39,0 78.691,35.301 78.691,78.691 0,17.351 -5.801,34.186 -16.223,47.824 C -27.629,-67.246 0,-36.789 0,0"
             style="fill:#ffffff;fill-opacity:1;fill-rule:nonzero;stroke:none"
             id="path24" />
        </g>
        <g
           id="g26"
           transform="translate(485.1427,264.2581)">
          <path
             d="m 0,0 c 0,36.572 -29.647,66.218 -66.218,66.218 -1.52,0 -3.023,-0.069 -4.518,-0.17 -1.177,31.058 -26.713,55.879 -58.06,55.879 -18.797,0 -35.5,-8.932 -46.123,-22.775 -11.545,13.096 -28.435,21.367 -47.265,21.367 -27.589,0 -51.019,-17.739 -59.55,-42.428 -5.443,1.533 -11.177,2.371 -17.11,2.371 -19.99,0 -37.793,-9.32 -49.335,-23.84 -10.935,9.139 -25.01,14.646 -40.376,14.646 -34.797,0 -63.006,-28.209 -63.006,-63.006 0,-18.645 8.105,-35.391 20.976,-46.927 -23.256,-9.268 -39.7,-31.974 -39.7,-58.535 0,-34.797 28.208,-63.006 63.005,-63.006 6.486,0 12.741,0.982 18.628,2.802 -3.237,-7.832 -5.033,-16.411 -5.033,-25.412 0,-36.773 29.811,-66.584 66.585,-66.584 29.487,0 54.481,19.175 63.235,45.731 10.063,-6.81 22.2,-10.788 35.266,-10.788 27.383,0 50.676,17.473 59.364,41.874 12.983,-12.142 30.414,-19.588 49.593,-19.588 40.116,0 72.637,32.521 72.637,72.638 0,21.155 -9.049,40.191 -23.481,53.466 1.412,-0.09 2.832,-0.151 4.268,-0.151 C -29.647,-66.218 0,-36.571 0,0"
             style="fill:#000000;fill-opacity:1;fill-rule:nonzero;stroke:none"
             id="path28" />
        </g>
        <g
           id="g30"
           transform="translate(365.919,148.3957)">
          <path
             d="m 0,0 -8.395,-2.567 c 0,2.025 1.237,3.497 3.257,4.115 L 0,3.119 Z m 0,-8.428 -8.395,-2.566 v 3.358 L 0,-5.07 Z m 0,-8.248 -8.395,-2.567 v 3.246 L 0,-13.431 Z m 43.514,4.439 -29.435,-9 v 2.714 l 23.198,7.093 v 6.151 l -23.198,-7.093 v 3.246 l 14.966,4.575 V 0.452 L 14.079,-4.123 v 3.358 l 14.458,4.42 V 8.724 L 14.079,4.304 c 0,2.176 1.201,3.486 3.576,4.212 l 19.394,5.93 v 6.211 L 15.699,14.13 c 3.178,3.584 3.914,7.636 3.914,10.531 L 6.921,20.78 C 6.281,15.62 3.833,9.793 -2.016,9.158 c 0,0 2.47,4.816 2.47,9.645 L -16.007,13.771 C -17.047,-0.772 -21.24,-0.12 -28.553,-2.356 v -11.509 l 7.269,2.222 V -29.334 L 0,-22.827 v -2.714 l -28.553,-8.729 v -6.074 l 21.006,6.422 c -1.437,-3.993 -4.847,-8.202 -10.586,-9.956 l -10.42,-3.186 v -6.839 l 16.159,4.94 c 6.922,2.116 9.985,4.887 12.394,9.498 v -5.709 l 14.079,4.305 v 9.176 c 6.278,-0.82 10.547,-3.642 12.178,-5.453 l 16.965,5.186 c -5.088,5.062 -15.708,7.365 -20.186,7.388 l 20.478,6.261 z"
             style="fill:#ffffff;fill-opacity:1;fill-rule:nonzero;stroke:none"
             id="path32" />
        </g>
        <g
           id="g34"
           transform="translate(382.422,182.9906)">
          <path
             d="m 0,0 c -0.622,0.698 -1.539,0.441 -2.034,0.289 -0.527,-0.161 -0.98,-0.345 -2.592,-1.058 -1.338,-0.593 -1.728,-0.747 -2.139,-0.908 l 0.231,-1.266 c 2.35,1.157 3.626,1.777 4.332,1.993 1,0.306 1.506,0.103 1.506,-1.258 0,-1.868 -0.875,-3.578 -4.847,-4.746 l 0.221,-1.098 C -2.951,-7.2 0.547,-5.807 0.547,-1.885 0.547,-1.62 0.537,-0.597 0,0 M -0.875,1.382 C -2.561,1.593 -5.332,0.988 -5.785,0.884 l 0.179,1.255 c 0.316,0.073 2.95,0.728 5.047,0.643 z"
             style="fill:#ffffff;fill-opacity:1;fill-rule:nonzero;stroke:none"
             id="path36" />
        </g>
        <g
           id="g38"
           transform="translate(367.7946,174.4195)">
          <path
             d="M 0,0 C 0.242,0.998 0.242,2.029 0.208,3.757 1.522,3.907 1.522,2.564 1.522,2.348 1.522,2.072 1.522,0.73 0,0 m 0.184,4.865 c 0,0.192 -0.022,1.097 -0.034,1.224 L -1.038,5.69 C -1.004,5.126 -0.992,4.865 -0.969,4.465 -1.385,4.253 -2.756,3.535 -4.06,1.733 c 0.023,0.954 0.104,1.819 0.242,2.808 L -5.029,4.23 C -5.087,3.433 -5.19,2.059 -5.19,0.188 c 0,-1.739 0.092,-2.61 0.172,-3.233 l 1.12,0.498 c -0.196,1.151 -0.209,1.76 -0.174,2.525 0.577,1.556 1.973,2.798 3.138,3.394 0.034,-1.717 0.011,-2.719 -0.22,-3.604 -0.83,0.105 -0.991,0.979 -1.06,1.462 L -3.241,0.532 c 0.219,-1.108 0.634,-1.773 1.534,-1.929 -0.462,-0.597 -0.877,-0.856 -1.234,-1.073 l 0.714,-0.729 c 0.404,0.279 1.2,0.834 1.754,1.903 2.572,0.726 3.16,2.873 3.16,4.036 0,1.176 -0.565,2.525 -2.503,2.125"
             style="fill:#ffffff;fill-opacity:1;fill-rule:nonzero;stroke:none"
             id="path40" />
        </g>
        <g
           id="g42"
           transform="translate(356.4553,173.4574)">
          <path
             d="m 0,0 c -0.406,-2.167 -0.997,-3.949 -3.475,-4.706 -1.436,-0.439 -1.842,0.022 -1.842,1.874 0,0.31 0.088,5.439 0.099,6.457 L -6.555,3.241 c -0.044,-2.332 -0.044,-3.921 -0.044,-4.984 0,-2.114 0,-3.142 0.46,-3.766 0.406,-0.557 1.185,-0.904 2.828,-0.401 3.64,1.112 4.254,4.477 4.517,5.908 z"
             style="fill:#ffffff;fill-opacity:1;fill-rule:nonzero;stroke:none"
             id="path44" />
        </g>
        <g
           id="g46"
           transform="translate(282.5869,123.8783)">
          <path
             d="M 0,0 -7.678,-2.347 V 12.016 L 0,14.363 Z m 0,-15.258 c 0,-2.416 -1.793,-4.924 -4.005,-5.6 l -3.673,-1.123 v 13.58 L 0,-6.054 Z m -16.679,10.159 -6.979,-2.134 V 7.131 l 6.979,2.133 z m 0,-19.634 -6.979,-2.134 v 13.58 l 6.979,2.134 z m -15.979,14.748 -7.678,-2.347 v 9.987 c 0,2.417 1.793,4.925 4.004,5.601 l 3.674,1.123 z m -10e-4,-19.634 -7.677,-2.347 v 13.58 l 7.678,2.347 z m 24.981,49.992 v 12.911 l -9.001,-2.752 V 17.621 l -6.979,-2.134 v 12.912 l -9,-2.752 V 12.736 L -55.693,5.693 v -50.632 l 71.049,21.722 v 50.632 z"
             style="fill:#ffffff;fill-opacity:1;fill-rule:nonzero;stroke:none"
             id="path48" />
        </g>
        <g
           id="g50"
           transform="translate(272.848,165.4454)">
          <path
             d="m 0,0 c -0.316,0.089 -0.805,0.231 -0.805,0.521 0,0.245 0.217,0.497 0.75,1.091 2.122,2.382 2.362,2.653 3.896,4.565 L 2.678,6.693 C 1.916,5.646 1.621,5.288 -0.577,2.674 -1.709,1.327 -2.253,0.579 -2.253,0.009 c 0,-0.745 0.784,-0.993 1.665,-1.271 1.643,-0.509 3.211,-1.158 4.68,-1.989 l 1.077,1.295 C 4.179,-1.352 1.6,-0.442 0,0"
             style="fill:#ffffff;fill-opacity:1;fill-rule:nonzero;stroke:none"
             id="path52" />
        </g>
        <g
           id="g54"
           transform="translate(261.4329,159.1933)">
          <path
             d="m 0,0 c 0,-0.642 -0.686,-0.913 -0.99,-1.006 -0.777,-0.237 -1.058,0.137 -1.058,0.513 0,0.497 0.462,0.978 1.249,1.219 0.36,0.11 0.597,0.133 0.799,0.135 z M 1.215,2.142 V 4.093 L 4.232,5.015 V 6.288 L 1.215,5.365 v 1.6 L -0.011,6.59 0,2.073 C -0.191,2.039 -0.394,2.001 -0.697,1.908 -2.138,1.467 -3.162,0.379 -3.162,-0.918 c 0,-1.272 1.001,-1.657 2.25,-1.276 0.44,0.135 1.126,0.429 1.632,1.044 0.372,0.454 0.484,1.01 0.484,1.506 V 0.817 C 2.262,0.607 2.971,0.278 3.759,-0.353 L 4.603,1.092 C 3.433,1.777 2.285,2.056 1.215,2.142"
             style="fill:#ffffff;fill-opacity:1;fill-rule:nonzero;stroke:none"
             id="path56" />
        </g>
        <g
           id="g58"
           transform="translate(246.2932,155.2686)">
          <path
             d="M 0,0 C 0,0.213 0.096,0.858 0.921,1.749 L 0.075,2.118 c -1.209,-1.305 -1.209,-2.287 -1.209,-2.524 0,-0.166 0.021,-1.663 2.012,-1.445 0.749,0.075 2.204,0.497 3.018,0.745 1.049,0.321 1.616,0.541 2.002,0.695 V 0.844 C 5.502,0.675 4.902,0.409 3.222,-0.104 1.638,-0.589 0,-1.089 0,0 M 1.691,3.275 -2.012,2.143 V 3.302 L 1.777,4.461 C 1.959,4.517 2.109,4.562 2.569,4.716 2.515,4.901 2.419,5.238 2.259,5.899 2.173,5.873 1.798,5.746 1.723,5.723 l -3.35,-1.024 v 1.16 L 1.702,6.877 C 1.734,6.887 2.001,6.981 2.065,7.012 1.98,7.625 1.959,7.961 1.937,8.311 L 3.168,8.793 C 3.179,8.441 3.19,8.16 3.275,7.453 4.752,7.999 5.576,8.488 5.962,8.724 L 6.079,7.552 C 5.223,7.042 4.452,6.736 3.457,6.348 3.521,6.001 3.661,5.451 3.767,5.129 4.635,5.453 5.748,5.876 6.796,6.54 L 6.978,5.448 C 6.015,4.846 5.181,4.52 4.12,4.1 4.431,3.367 4.56,3.063 5.084,2.525 L 4.003,1.59 C 3.714,1.916 3.415,2.298 2.922,3.663 2.494,3.521 2.13,3.409 1.691,3.275"
             style="fill:#ffffff;fill-opacity:1;fill-rule:nonzero;stroke:none"
             id="path60" />
        </g>
        <g
           id="g62"
           transform="translate(147.5103,85.2272)">
          <path
             d="M 0,0 -22.397,-6.847 V 4.597 L -8.424,8.868 C 2.991,12.359 4.114,26.8 4.114,26.8 l 19.02,5.815 c 0,-3.196 -1.075,-6.507 -1.075,-6.507 3.623,-0.012 23.414,-5.062 27.274,-11.025 L 30.608,9.358 C 27.799,12.259 21.457,15.15 17.902,15.961 13.743,8.172 6.662,2.037 0,0 m 27.83,-23.969 c -2.978,-0.905 -5.372,0.797 -5.372,3.76 v 3.252 l 20.674,6.321 v 6.875 l -20.674,-6.32 v 3.257 c 0,2.242 1.811,4.601 4.037,5.277 l 16.913,5.171 v 6.875 L -15.789,-7.6 v -6.875 l 16.913,5.171 c 2.226,0.676 4.037,-0.582 4.037,-2.808 v -3.258 l -20.674,-6.32 v -6.876 l 20.674,6.321 v -3.252 c 0,-2.963 -2.41,-6.144 -5.387,-7.049 l -21.749,-6.649 v -6.871 l 71.553,21.876 v 6.871 z"
             style="fill:#ffffff;fill-opacity:1;fill-rule:nonzero;stroke:none"
             id="path64" />
        </g>
        <g
           id="g66"
           transform="translate(171.1936,131.3921)">
          <path
             d="m 0,0 c -0.222,-0.744 -1.173,-3.896 -1.347,-4.546 l 0.016,-0.016 c 0.206,0.238 0.602,0.666 1.299,0.888 1.617,0.475 1.68,-1.141 1.68,-2.027 v -0.476 c 0,-0.332 0,-1.33 0.872,-1.076 0.983,0.285 1.395,1.821 1.585,3.849 L 5.183,-3.436 C 4.913,-5.954 4.343,-7.95 2.425,-8.521 0.523,-9.091 0.507,-7.175 0.507,-6.557 v 0.38 c 0,0.713 0.016,1.441 -0.761,1.204 -1.014,-0.301 -1.632,-1.505 -1.997,-2.693 -0.095,-0.412 -0.491,-2.17 -0.586,-2.534 l -1.173,0.015 c 0.602,2.107 2.045,7.492 2.726,10.042 z"
             style="fill:#ffffff;fill-opacity:1;fill-rule:nonzero;stroke:none"
             id="path68" />
        </g>
        <g
           id="g70"
           transform="translate(152.3164,126.4671)">
          <path
             d="m 0,0 -1.188,-0.398 c 0.043,-0.552 0.064,-0.914 0.117,-2.419 l -3.342,-1.068 0.012,2.263 -1.125,-0.344 -0.011,-2.274 -1.665,-0.532 0.022,-1.193 1.633,0.523 -0.021,-2.53 c 0,-0.335 0,-1.476 0.307,-2.039 0.658,-1.182 1.74,-0.862 3.373,-0.363 1.347,0.412 1.814,0.566 3.182,1.065 l -0.052,1.24 C 0.265,-8.459 -1.432,-9.013 -1.665,-9.084 -4.073,-9.82 -4.444,-9.83 -4.433,-7.591 l 0.01,2.504 3.373,1.078 c -0.042,-2.042 -0.096,-2.438 -0.902,-2.685 -0.392,-0.12 -0.71,-0.137 -1.124,-0.147 l -0.011,-1.248 c 0.298,0.021 0.796,0.058 1.316,0.217 1.898,0.58 1.898,2.206 1.898,4.234 l 1.984,0.641 v 1.199 L 0.117,-2.431 C 0.095,-1.884 0.032,-0.428 0,0 M 1.464,-0.775 C 1.432,-0.415 1.262,0.374 1.082,0.745 L 0.308,0.382 C 0.498,-0.182 0.595,-0.752 0.637,-1.2 Z m 0.403,0.136 C 1.846,-0.52 1.697,0.392 1.485,0.915 L 2.302,1.291 C 2.44,0.919 2.503,0.65 2.684,-0.24 Z"
             style="fill:#ffffff;fill-opacity:1;fill-rule:nonzero;stroke:none"
             id="path72" />
        </g>
        <g
           id="g74"
           transform="translate(440.6573,292.7976)">
          <path
             d="m 0,0 -37.058,-11.33 c -1.992,-0.602 -3.18,-2.349 -3.18,-4.634 V -58.219 L -3.18,-46.89 c 1.843,0.553 3.18,2.188 3.18,4.635 z M 14.944,12.651 V -49.411 L -55.174,-70.848 V -8.787 Z M -6.95,-36.175 v 5.937 l -4.208,-1.286 v -5.938 z m 0,-8.106 -26.331,-8.05 v 4.836 l 4.648,1.421 c 1.899,0.581 3.024,2.094 3.024,4.598 v 8.803 l -7.672,-2.346 v 5.226 l 7.672,2.346 v 9.014 c 0,1.046 -0.63,2.454 -3.527,1.569 l -4.145,-1.268 v 4.869 l 26.331,8.05 v -4.868 l -4.597,-1.406 c -1.964,-0.6 -3.075,-2.065 -3.075,-4.603 v -7.998 l 7.672,2.346 v -5.226 l -7.672,-2.346 v -9.819 c 0,-1.546 1.187,-2.295 3.579,-1.564 l 4.093,1.252 z"
             style="fill:#ffffff;fill-opacity:1;fill-rule:nonzero;stroke:none"
             id="path76" />
        </g>
        <g
           id="g78"
           transform="translate(434.3126,303.0064)">
          <path
             d="m 0,0 c -1.868,1.104 -2.786,1.41 -5.249,2.259 -0.509,0.187 -1.138,0.527 -1.138,1.138 0,0.595 0.612,1.41 1.342,2.293 2.888,3.482 2.939,3.584 3.618,4.536 L -0.255,9.682 C -1.851,7.661 -2.14,7.355 -4.552,4.603 -4.79,4.348 -4.943,4.111 -4.943,3.907 c 0,-0.306 0.51,-0.459 0.815,-0.544 1.529,-0.441 4.145,-1.41 5.181,-2.055 z"
             style="fill:#ffffff;fill-opacity:1;fill-rule:nonzero;stroke:none"
             id="path80" />
        </g>
        <g
           id="g82"
           transform="translate(405.9122,299.7442)">
          <path
             d="m 0,0 c -0.934,-1.257 -0.968,-2.157 -0.968,-2.378 0,-1.546 2.106,-0.934 3.737,-0.442 1.07,0.323 2.157,0.697 3.21,1.189 L 6.013,-2.956 C 5.639,-3.142 4.875,-3.465 3.176,-3.992 1.019,-4.637 0.085,-4.824 -0.849,-4.62 c -0.765,0.17 -1.342,0.9 -1.342,1.834 0,1.104 0.492,1.988 1.291,3.228 z M 5.435,6.115 V 4.943 C 4.06,4.263 3.074,3.465 1.817,2.225 L 1.036,2.837 C 1.393,3.21 1.461,3.278 2.174,3.856 L 2.157,3.873 C 0.679,3.397 -0.832,2.922 -1.716,2.599 v 1.342 c 0.323,0.085 1.682,0.492 2.243,0.662 z M 7.474,3.72 C 6.998,4.569 6.675,4.926 6.506,5.113 L 7.219,5.792 C 7.695,5.3 8.034,4.739 8.221,4.433 Z M 5.928,2.395 C 5.554,3.023 5.334,3.329 4.892,3.788 L 5.656,4.501 C 6.098,4.094 6.455,3.567 6.692,3.125 Z"
             style="fill:#ffffff;fill-opacity:1;fill-rule:nonzero;stroke:none"
             id="path84" />
        </g>
        <g
           id="g86"
           transform="translate(342.0111,212.7155)">
          <path
             d="m 0,0 c 0.143,2.786 0.035,6.914 0.035,6.914 l 26.049,7.964 V 25.719 L 0.035,17.754 v 9.707 l 26.049,7.964 V 46.238 L -44.275,24.727 V 13.914 l 25.624,7.834 V 12.042 L -44.275,4.207 v -10.84 l 25.624,7.835 v -4.009 c 0.001,-12.836 -6.913,-18.029 -17.412,-21.246 l -8.212,-2.511 v -10.864 l 17.885,5.468 c 13.737,4.193 18.579,9.061 24.023,22.056 2.988,-1.188 11.103,-6.537 14.394,-10.311 l 18.497,5.655 C 24.989,-8.453 5.275,-1.033 0,0"
             style="fill:#ffffff;fill-opacity:1;fill-rule:nonzero;stroke:none"
             id="path88" />
        </g>
        <g
           id="g90"
           transform="translate(343.9576,265.8499)">
          <path
             d="m 0,0 c -0.236,-0.792 -1.246,-4.144 -1.432,-4.834 l 0.017,-0.017 c 0.219,0.253 0.64,0.707 1.381,0.943 1.718,0.506 1.786,-1.212 1.786,-2.156 v -0.505 c 0,-0.354 0,-1.415 0.926,-1.145 1.044,0.303 1.482,1.937 1.684,4.093 L 5.508,-3.655 C 5.222,-6.333 4.615,-8.456 2.577,-9.062 0.556,-9.668 0.539,-7.63 0.539,-6.973 v 0.404 c 0,0.758 0.017,1.533 -0.809,1.28 -1.078,-0.32 -1.734,-1.6 -2.122,-2.863 -0.101,-0.438 -0.522,-2.308 -0.623,-2.695 l -1.246,0.017 c 0.64,2.24 2.172,7.967 2.897,10.678 z"
             style="fill:#ffffff;fill-opacity:1;fill-rule:nonzero;stroke:none"
             id="path92" />
        </g>
        <g
           id="g94"
           transform="translate(326.0397,260.0389)">
          <path
             d="m 0,0 v -1.331 c -0.286,-0.05 -0.556,-0.101 -1.095,-0.269 -1.836,-0.539 -4.817,-3.588 -4.834,-5.946 -0.017,-1.331 1.112,-1.415 1.87,-1.398 0.673,0.017 1.65,0.168 2.998,0.573 L -1.23,-9.837 c -1.094,-0.286 -2.358,-0.556 -3.419,-0.505 -1.179,0.034 -2.543,0.539 -2.543,2.341 0.017,0.977 0.421,3.049 3.032,5.458 l -0.017,0.016 c -2.392,-0.791 -2.678,-0.875 -5.154,-1.734 v 1.347 c 0.438,0.118 3.537,1.095 4.817,1.499 z"
             style="fill:#ffffff;fill-opacity:1;fill-rule:nonzero;stroke:none"
             id="path96" />
        </g>
        <g
           id="g98"
           transform="translate(279.8891,209.9254)">
          <path
             d="m 0,0 -2.731,-0.835 c -1.788,-0.552 -3.755,-0.02 -5.113,1.986 l -6.231,9.207 -18.109,-5.536 8.199,-12.155 -22.336,-6.829 13.519,44.216 c 0.59,1.932 1.641,3.143 3.081,3.595 l 4.545,1.389 v 7.354 l -22.306,-6.819 -16.051,-52.501 c -0.622,-2.033 -1.824,-3.054 -3.104,-3.445 l -2.765,-0.845 V -31.849 L 5.945,-8.813 Z"
             style="fill:#ffffff;fill-opacity:1;fill-rule:nonzero;stroke:none"
             id="path100" />
        </g>
        <g
           id="g102"
           transform="translate(177.579,164.6581)">
          <path
             d="m 0,0 c 6.883,10.914 7.858,17.782 8.831,25.347 0.341,2.737 1.643,4.151 3.116,4.602 l 2.739,0.837 V 40.993 L -49.411,21.397 V 10.584 l 40.142,12.273 c -1.619,-24.978 -13.725,-35.705 -36.196,-42.575 l -3.946,-1.207 v -10.676 l 11.884,3.634 c 15.381,4.702 22.807,9.22 31.878,20.389 2.341,-1.137 5.436,-3.923 7.191,-8.445 l 18.09,5.53 C 17.085,-7.366 6.271,-0.827 0,0 m 16.039,44.271 c 2.585,0.804 4.02,3.494 3.216,6.029 -0.753,2.585 -3.493,4.019 -6.028,3.216 -2.585,-0.803 -3.97,-3.494 -3.216,-6.029 0.803,-2.584 3.494,-3.969 6.028,-3.216 M -1.322,44.023 c -0.753,2.534 0.632,5.275 3.216,6.028 C 4.429,50.805 7.12,49.37 7.923,46.835 8.677,44.3 7.292,41.61 4.707,40.807 2.172,40.053 -0.518,41.488 -1.322,44.023"
             style="fill:#ffffff;fill-opacity:1;fill-rule:nonzero;stroke:none"
             id="path104" />
        </g>
        <g
           id="g106"
           transform="translate(69.2494,165.4255)">
          <path
             d="m 0,0 -1.513,-0.463 c -2.386,-0.729 -3.556,0.064 -3.556,1.564 v 16.325 c 0,2.193 0.798,3.86 3.017,4.538 L 0,22.592 v 7.941 l -24.993,-7.641 v -7.941 l 1.517,0.464 c 2.393,0.731 3.551,-0.058 3.551,-1.55 V -2.459 c 0,-2.215 -0.798,-3.877 -3.011,-4.553 l -2.057,-0.629 v -7.925 L 0,-7.925 Z M 44.129,44.024 V 36.083 L 42.183,35.488 C 39.939,34.803 39.175,33.21 39.175,30.964 V -1.535 c 0,-10.635 -5.713,-18.795 -14.669,-21.502 l -44.241,-13.526 v 10.683 l 31.637,9.673 c 6.078,1.866 8.922,7.148 8.922,14.328 v 28.206 c 0,1.492 -1.164,2.276 -3.553,1.545 l -1.587,-0.485 v 7.941 z"
             style="fill:#ffffff;fill-opacity:1;fill-rule:nonzero;stroke:none"
             id="path108" />
        </g>
        <g
           id="g110"
           transform="translate(344.3483,307.1739)">
          <path
             d="M 0,0 C 0,-2.637 -0.554,-3.898 -2.052,-4.355 L -12.07,-7.418 v 35.381 c 0,2.771 1.538,4.158 2.971,4.595 L 0,35.341 Z M 29.886,55.14 -19.131,40.154 c -4.872,-1.49 -7.711,-7.76 -7.711,-15.476 v -34.38 l 15.398,-8.051 18.478,5.65 c 4.975,1.52 7.788,7.7 7.812,15.177 V 39.88 l 8.403,2.569 c 2.379,0.728 3.662,-0.078 3.667,-1.574 V 13.082 c 0,-8.916 -0.724,-11.097 -6.21,-12.774 v -7.534 c 6.17,0.666 12.034,3.227 14.418,4.729 3.377,2.154 6.511,7.927 6.509,17.566 v 33.905 z"
             style="fill:#ffffff;fill-opacity:1;fill-rule:nonzero;stroke:none"
             id="path112" />
        </g>
        <g
           id="g114"
           transform="translate(272.9732,306.9875)">
          <path
             d="M 0,0 -6.6,-2.018 C -7.851,-2.4 -9.573,-3.612 -9.573,-6.058 v -11.73 l 6.499,1.987 c 1.85,0.566 3.074,2.04 3.074,4.286 z m 13.383,14.818 12.475,3.814 V 7.906 L 13.383,4.092 v -14.721 c 0,-6.988 -2.808,-11.732 -6.528,-12.87 l -20.128,-6.154 -8.837,4.645 v 17.916 c 0,6.741 2.592,11.851 6.623,13.083 L 0,10.726 V 30.62 l 21.725,6.642 V 26.845 l -5.433,-1.661 c -2.187,-0.669 -2.909,-2.245 -2.909,-4.502 z m -41.239,7.255 v -36.631 l -18.045,-5.516 v 6.588 l 1.527,0.467 c 2.207,0.675 2.899,2.338 2.899,4.526 v 26.402 l -11.649,-3.561 v 10.544 l 11.649,3.562 v 9.347 l 13.619,4.164 v -9.348 l 20.005,6.116 V 28.189 Z"
             style="fill:#ffffff;fill-opacity:1;fill-rule:nonzero;stroke:none"
             id="path116" />
        </g>
        <g
           id="g118"
           transform="translate(211.1785,271.179)">
          <path
             d="m 0,0 v -2.609 c 0,-2.228 -0.854,-3.84 -3.083,-4.522 l -8.657,-2.646 v 23.745 l -23.487,-7.181 6.849,22.395 c 0.74,2.245 1.801,3.189 2.993,3.554 l 4.767,1.457 v 6.946 l -21.837,-6.676 -17.644,-58.219 c -0.889,-2.395 -1.889,-3.175 -2.976,-3.507 l -3.003,-0.919 v -10.595 l 18.716,5.722 8.683,28.512 12.142,3.713 v -25.858 l 31.822,9.729 V 1.616 Z"
             style="fill:#ffffff;fill-opacity:1;fill-rule:nonzero;stroke:none"
             id="path120" />
        </g>
        <g
           id="g122"
           transform="translate(86.6751,249.9823)">
          <path
             d="m 0,0 c 0,-2.663 -1.332,-4.01 -3.029,-4.529 l -7.014,-2.144 V 6.13 c 0,2.967 1.579,4.203 3.175,4.691 L 0,12.921 Z M 25.704,49.421 V 31.223 L 14.74,27.871 V 58.987 L -18.183,48.922 V 38.444 l 14.555,4.449 C -1.244,43.622 0,43.021 0,41.432 V 23.364 l -15.92,-4.867 c -4.932,-1.508 -8.023,-7.018 -8.023,-15.26 V -9.877 l 13.982,-7.332 16.486,5.04 c 4.932,1.509 8.206,6.873 8.215,15.113 v 14.483 l 10.964,3.352 V -6.305 l 14.987,4.582 v 27.084 l 6.679,2.042 v 10.554 l -6.679,-2.152 v 9.631 c 0,2.218 0.819,3.851 2.96,4.505 l 0.946,0.29 v 4.966 z"
             style="fill:#ffffff;fill-opacity:1;fill-rule:nonzero;stroke:none"
             id="path124" />
        </g>
        <g
           id="g126"
           transform="translate(474.0245,180.8041)">
          <path
             d="M 0,0 V 7.135 L -1.795,-0.549 -3.738,-1.143 -5.49,5.456 V -1.679 L -7.328,-2.24 v 8.541 l 2.871,0.878 1.73,-6.246 0.022,0.006 1.688,7.291 2.833,0.866 V 0.555 Z m -13.265,-4.056 v 7.027 l -2.956,-0.904 v 1.51 l 7.818,2.39 V 4.457 L -11.252,3.586 V -3.44 Z"
             style="fill:#000000;fill-opacity:1;fill-rule:nonzero;stroke:none"
             id="path128" />
        </g>
      </g>
    </g>
  </g>
</svg>
