<?xml version="1.0" encoding="UTF-8" standalone="no"?>
<!-- Created with Inkscape (http://www.inkscape.org/) -->

<svg
   version="1.1"
   id="svg2"
   width="666.66669"
   height="7289.3335"
   viewBox="0 0 666.66669 7289.3335"
   sodipodi:docname="Minna no Rhythm Tengoku Complete Music Collection (みんなのリズム天国全曲集) Logo (Wordmark) (Vertical).ai"
   xmlns:inkscape="http://www.inkscape.org/namespaces/inkscape"
   xmlns:sodipodi="http://sodipodi.sourceforge.net/DTD/sodipodi-0.dtd"
   xmlns="http://www.w3.org/2000/svg"
   xmlns:svg="http://www.w3.org/2000/svg">
  <defs
     id="defs6">
    <clipPath
       clipPathUnits="userSpaceOnUse"
       id="clipPath16">
      <path
         d="M 0,5467.001 H 500 V 0 H 0 Z"
         id="path14" />
    </clipPath>
  </defs>
  <sodipodi:namedview
     id="namedview4"
     pagecolor="#ffffff"
     bordercolor="#000000"
     borderopacity="0.25"
     inkscape:showpageshadow="2"
     inkscape:pageopacity="0.0"
     inkscape:pagecheckerboard="0"
     inkscape:deskcolor="#d1d1d1" />
  <g
     id="g8"
     inkscape:groupmode="layer"
     inkscape:label="Minna no Rhythm Tengoku Complete Music Collection (みんなのリズム天国全曲集) Logo (Wordmark) (Vertical)"
     transform="matrix(1.3333333,0,0,-1.3333333,0,7289.3333)">
    <g
       id="g10">
      <g
         id="g12"
         clip-path="url(#clipPath16)">
        <g
           id="g18"
           transform="translate(175.7974,331.8753)">
          <path
             d="m 0,0 -51.685,-15.802 c 0,12.466 7.612,21.529 20.05,25.33 L 0,19.2 Z m 0,-51.888 -51.685,-15.801 v 20.673 L 0,-31.214 Z m 0,-50.785 -51.685,-15.802 v 19.981 L 0,-82.692 Z m 267.908,27.328 -181.224,-55.406 v 16.71 l 142.824,43.666 v 37.87 L 86.684,-76.171 v 19.981 l 92.142,28.169 V 2.785 L 86.684,-25.386 v 20.674 l 89.011,27.214 V 53.715 L 86.684,26.502 c 0,13.395 7.392,21.46 22.013,25.931 l 119.409,36.506 v 38.245 L 96.658,86.996 c 19.565,22.068 24.093,47.013 24.093,64.836 L 42.61,127.941 C 38.671,96.167 23.599,60.291 -12.411,56.382 c 0,0 15.206,29.651 15.206,59.388 L -98.553,84.784 c -6.402,-89.536 -32.221,-85.523 -77.244,-99.288 v -70.862 l 44.754,13.682 V -180.606 L 0,-140.543 v -16.71 l -175.797,-53.746 v -37.396 l 129.328,39.54 c -8.843,-24.583 -29.84,-50.496 -65.174,-61.297 l -64.154,-19.615 v -42.108 l 99.488,30.416 c 42.617,13.029 61.475,30.091 76.309,58.48 v -35.15 l 86.684,26.502 v 56.499 c 38.651,-5.051 64.937,-22.426 74.974,-33.577 l 104.451,31.934 c -31.321,31.166 -96.709,45.345 -124.277,45.485 l 126.076,38.546 z"
             style="fill:#000000;fill-opacity:1;fill-rule:nonzero;stroke:none"
             id="path20" />
        </g>
        <g
           id="g22"
           transform="translate(347.8052,715.4554)">
          <path
             d="m 0,0 -47.95,-14.659 v 89.7 L 0,89.701 Z m 0,-95.284 c 0,-15.094 -11.199,-30.754 -25.012,-34.978 l -22.938,-7.012 v 84.806 L 0,-37.808 Z m -104.161,63.439 -43.582,-13.324 v 89.7 l 43.582,13.325 z m 0,-122.615 -43.583,-13.325 0.001,84.808 43.582,13.325 z m -99.794,92.106 -47.949,-14.66 v 62.37 c 0,15.094 11.197,30.753 25.011,34.977 l 22.938,7.013 z m 0,-122.616 -47.949,-14.659 v 84.807 l 47.949,14.66 z M -47.95,127.231 v 80.631 l -56.211,-17.185 v -80.632 l -43.583,-13.324 0.001,80.632 -56.212,-17.186 V 79.535 L -347.804,35.556 -347.805,-280.647 95.899,-144.993 95.9,171.21 Z"
             style="fill:#000000;fill-opacity:1;fill-rule:nonzero;stroke:none"
             id="path24" />
        </g>
        <g
           id="g26"
           transform="translate(139.5161,1165.6409)">
          <path
             d="m 0,0 -139.516,-42.654 v 71.289 l 87.037,26.61 c 71.113,21.742 78.107,111.699 78.107,111.699 l 118.483,36.224 c 0,-19.908 -6.696,-40.529 -6.696,-40.529 C 159.984,162.563 283.27,131.1 307.311,93.955 L 190.668,58.294 C 173.172,76.368 133.663,94.375 111.515,99.427 85.607,50.907 41.499,12.688 0,0 m 173.362,-149.309 c -18.548,-5.641 -33.463,4.965 -33.463,23.42 v 20.26 l 128.786,39.373 v 42.829 L 139.899,-62.801 v 20.295 c 0,13.961 11.282,28.661 25.146,32.868 L 270.406,22.574 V 65.402 L -98.358,-47.341 V -90.169 L 7.003,-57.956 c 13.864,4.207 25.145,-3.628 25.145,-17.492 v -20.295 l -128.785,-39.374 v -42.828 l 128.785,39.373 v -20.26 c 0,-18.455 -15.011,-38.27 -33.559,-43.91 l -135.478,-41.42 v -42.798 l 445.729,136.274 v 42.797 z"
             style="fill:#000000;fill-opacity:1;fill-rule:nonzero;stroke:none"
             id="path28" />
        </g>
        <g
           id="g30"
           transform="translate(341.3228,1764.429)">
          <path
             d="m 0,0 -229.25,-70.089 c -12.327,-3.728 -19.673,-14.532 -19.671,-28.671 v -261.4 l 229.25,70.089 C -8.269,-286.653 0,-276.54 0,-261.4 Z M 92.444,78.26 V -305.668 L -341.323,-438.284 V -54.355 Z M -42.994,-223.791 v 36.733 l -26.03,-7.959 v -36.732 z m 0,-50.145 -162.891,-49.8 v 29.919 l 28.757,8.792 c 11.745,3.59 18.705,12.953 18.705,28.445 v 54.457 l -47.462,-14.511 v 32.329 l 47.462,14.511 v 55.763 c 0,6.471 -3.895,15.183 -21.82,9.704 l -25.642,-7.84 v 30.118 l 162.891,49.801 v -30.118 l -28.438,-8.695 c -12.152,-3.715 -19.023,-12.773 -19.023,-28.476 v -49.477 l 47.461,14.51 v -32.328 l -47.461,-14.511 v -60.743 c 0,-9.561 7.344,-14.195 22.137,-9.673 l 25.324,7.743 z"
             style="fill:#000000;fill-opacity:1;fill-rule:nonzero;stroke:none"
             id="path32" />
        </g>
        <g
           id="g34"
           transform="translate(280.3213,1994.4441)">
          <path
             d="M 0,0 C 0.907,17.639 0.222,43.777 0.222,43.777 L 165.146,94.2 v 68.632 L 0.222,112.41 v 61.454 l 164.924,50.423 0.001,68.463 -445.468,-136.192 V 88.094 l 162.238,49.601 V 76.241 L -280.321,26.64 V -41.993 L -118.083,7.608 V -17.77 c 0,-81.273 -43.771,-114.15 -110.245,-134.521 l -51.993,-15.896 v -68.784 l 113.235,34.619 c 86.972,26.548 117.632,57.371 152.102,139.645 18.913,-7.518 70.292,-41.39 91.13,-65.282 l 117.112,35.806 C 158.218,-53.52 33.398,-6.543 0,0"
             style="fill:#000000;fill-opacity:1;fill-rule:nonzero;stroke:none"
             id="path36" />
        </g>
        <g
           id="g38"
           transform="translate(436.2144,2421.6091)">
          <path
             d="m 0,0 -17.167,-5.249 c -11.234,-3.466 -23.6,-0.124 -32.134,12.485 l -39.165,57.869 -113.82,-34.797 51.531,-76.398 -140.385,-42.921 84.966,277.91 c 3.713,12.145 10.318,19.758 19.369,22.594 l 28.563,8.732 v 46.224 l -140.199,-42.863 -100.885,-329.983 c -3.908,-12.781 -11.465,-19.195 -19.507,-21.653 l -17.381,-5.315 v -66.819 L 37.365,-55.396 Z"
             style="fill:#000000;fill-opacity:1;fill-rule:nonzero;stroke:none"
             id="path40" />
        </g>
        <g
           id="g42"
           transform="translate(310.9077,2859.3767)">
          <path
             d="m 0,0 c 43.311,68.678 49.447,111.892 55.569,159.49 2.141,17.221 10.335,26.123 19.606,28.957 l 17.231,5.269 10e-4,64.226 -403.315,-123.306 V 66.599 l 252.582,77.222 C -68.513,-13.345 -144.683,-80.845 -286.081,-124.074 l -24.827,-7.59 v -67.179 l 74.773,22.866 c 96.783,29.584 143.51,58.013 200.589,128.294 14.733,-7.156 34.208,-24.687 45.247,-53.14 l 113.827,34.801 C 107.507,-46.348 39.457,-5.207 0,0 m 100.925,278.569 c 16.263,5.056 25.291,21.985 20.237,37.934 -4.743,16.264 -21.985,25.292 -37.934,20.237 -16.263,-5.055 -24.978,-21.984 -20.237,-37.934 5.055,-16.263 21.984,-24.978 37.934,-20.237 M -8.316,277.004 c -4.742,15.951 3.973,33.193 20.236,37.935 15.951,4.742 32.88,-4.287 37.935,-20.236 4.741,-15.951 -3.974,-32.88 -20.237,-37.935 -15.95,-4.741 -32.88,4.287 -37.934,20.236"
             style="fill:#000000;fill-opacity:1;fill-rule:nonzero;stroke:none"
             id="path44" />
        </g>
        <g
           id="g46"
           transform="translate(156.8433,3344.3308)">
          <path
             d="m 0,0 -9.495,-2.903 c -14.973,-4.578 -22.312,0.396 -22.312,9.814 v 102.443 c 0,13.766 5.002,24.224 18.928,28.481 L 0,141.773 v 49.833 l -156.843,-47.952 v -49.83 l 9.525,2.909 c 15.017,4.591 22.282,-0.363 22.282,-9.723 V -15.433 c 0,-13.895 -5.009,-24.326 -18.898,-28.572 l -12.909,-3.947 V -97.686 L 0,-49.734 Z m 276.924,276.271 v -49.834 l -12.211,-3.733 c -14.079,-4.305 -18.877,-14.295 -18.877,-28.393 V -9.635 c 0,-66.739 -35.847,-117.947 -92.05,-134.932 l -277.628,-84.881 v 67.043 l 198.534,60.698 c 38.138,11.714 55.989,44.855 55.989,89.913 V 165.21 c 0,9.364 -7.304,14.283 -22.299,9.699 l -9.958,-3.045 v 49.833 z"
             style="fill:#000000;fill-opacity:1;fill-rule:nonzero;stroke:none"
             id="path48" />
        </g>
        <g
           id="g50"
           transform="translate(170.0337,3684.2546)">
          <path
             d="m 0,0 c 0,-16.705 -3.512,-24.695 -12.998,-27.59 l -63.46,-19.402 v 224.131 c 0,17.553 9.74,26.339 18.817,29.107 L 0,223.875 Z m 189.319,349.292 -310.506,-94.931 c -30.867,-9.436 -48.847,-49.153 -48.847,-98.033 V -61.458 l 97.543,-51 117.052,35.787 c 31.511,9.633 49.334,48.777 49.484,96.141 v 233.158 l 53.227,16.273 c 15.074,4.608 23.199,-0.496 23.231,-9.968 V 82.873 c 0,-56.484 -4.587,-70.297 -39.338,-80.921 l -0.001,-47.729 c 39.084,4.224 76.234,20.442 91.336,29.961 21.394,13.642 41.244,50.21 41.234,111.271 v 214.781 z"
             style="fill:#000000;fill-opacity:1;fill-rule:nonzero;stroke:none"
             id="path52" />
        </g>
        <g
           id="g54"
           transform="translate(336.3018,4228.4141)">
          <path
             d="m 0,0 -41.779,-12.773 c -7.923,-2.422 -18.825,-10.095 -18.826,-25.578 v -74.255 l 41.147,12.579 C -7.75,-96.447 0,-87.116 0,-72.896 Z m 84.722,93.805 78.976,24.145 V 50.047 L 84.722,25.902 v -93.188 c 0,-44.237 -17.779,-74.274 -41.324,-81.476 l -127.424,-38.958 -55.942,29.403 10e-4,113.424 c -10e-4,42.674 16.408,75.02 41.924,82.821 L 0,67.902 V 193.84 l 137.534,42.048 V 169.944 L 103.14,159.429 C 89.291,155.194 84.722,145.215 84.722,130.93 Z m -261.067,45.926 V -92.157 l -114.232,-34.925 v 41.71 l 9.666,2.955 c 13.971,4.271 18.355,14.8 18.355,28.653 v 167.139 l -73.746,-22.547 v 66.753 l 73.746,22.546 v 59.175 l 86.211,26.358 v -59.176 l 126.641,38.719 V 178.45 Z"
             style="fill:#000000;fill-opacity:1;fill-rule:nonzero;stroke:none"
             id="path56" />
        </g>
        <g
           id="g58"
           transform="translate(413.0898,4733.458)">
          <path
             d="M 0,0 V -16.31 C 0,-30.236 -5.336,-40.316 -19.271,-44.577 L -73.395,-61.124 V 87.322 l -146.829,-44.89 42.821,139.999 c 4.626,14.036 11.256,19.94 18.706,22.217 l 29.802,9.112 v 43.423 L -265.406,215.447 -375.708,-148.51 c -5.557,-14.973 -11.81,-19.85 -18.606,-21.927 l -18.776,-5.741 v -66.238 l 117.007,35.773 54.28,178.245 75.905,23.207 v -161.651 l 198.935,60.821 V 10.101 Z"
             style="fill:#000000;fill-opacity:1;fill-rule:nonzero;stroke:none"
             id="path60" />
        </g>
        <g
           id="g62"
           transform="translate(151.0952,5094.7612)">
          <path
             d="m 0,0 c 0,-16.804 -8.407,-25.304 -19.116,-28.578 l -44.26,-13.532 v 80.793 c 0,18.725 9.962,26.522 20.033,29.601 L 0,81.535 Z M 162.204,311.87 V 197.032 l -69.19,-21.153 v 196.362 l -207.759,-63.519 -10e-4,-66.124 91.849,28.081 C -7.854,275.277 0,271.486 0,261.459 V 147.442 l -100.461,-30.714 c -31.125,-9.517 -50.634,-44.291 -50.634,-96.302 v -82.752 l 88.234,-46.273 104.038,31.808 c 31.124,9.52 51.785,43.372 51.837,95.367 v 91.396 l 69.19,21.153 V -39.789 l 94.575,28.914 V 160.04 l 42.147,12.886 v 66.601 l -42.147,-13.58 v 60.775 c 0,14 5.168,24.302 18.682,28.434 l 5.971,1.825 v 31.341 z"
             style="fill:#000000;fill-opacity:1;fill-rule:nonzero;stroke:none"
             id="path64" />
        </g>
      </g>
    </g>
  </g>
</svg>
