<?xml version="1.0" encoding="UTF-8" standalone="no"?>
<!-- Created with Inkscape (http://www.inkscape.org/) -->

<svg
   version="1.1"
   id="svg2"
   width="666.66669"
   height="523.73334"
   viewBox="0 0 666.66669 523.73334"
   sodipodi:docname="Minna no Rhythm Tengoku Complete Music Collection (みんなのリズム天国全曲集) Logo (Wordmark).ai"
   xmlns:inkscape="http://www.inkscape.org/namespaces/inkscape"
   xmlns:sodipodi="http://sodipodi.sourceforge.net/DTD/sodipodi-0.dtd"
   xmlns="http://www.w3.org/2000/svg"
   xmlns:svg="http://www.w3.org/2000/svg">
  <defs
     id="defs6">
    <clipPath
       clipPathUnits="userSpaceOnUse"
       id="clipPath16">
      <path
         d="M 0,392.8 H 500 V 0 H 0 Z"
         id="path14" />
    </clipPath>
  </defs>
  <sodipodi:namedview
     id="namedview4"
     pagecolor="#ffffff"
     bordercolor="#000000"
     borderopacity="0.25"
     inkscape:showpageshadow="2"
     inkscape:pageopacity="0.0"
     inkscape:pagecheckerboard="0"
     inkscape:deskcolor="#d1d1d1" />
  <g
     id="g8"
     inkscape:groupmode="layer"
     inkscape:label="Minna no Rhythm Tengoku Complete Music Collection (みんなのリズム天国全曲集) Logo (Wordmark)"
     transform="matrix(1.3333333,0,0,-1.3333333,0,523.73333)">
    <g
       id="g10">
      <g
         id="g12"
         clip-path="url(#clipPath16)">
        <g
           id="g18"
           transform="translate(390.9894,132.777)">
          <path
             d="m 0,0 -10.204,-3.12 c 0,2.461 1.503,4.251 3.959,5.001 L 0,3.791 Z m 0,-10.244 -10.204,-3.12 v 4.082 L 0,-6.162 Z m 0,-10.026 -10.204,-3.12 v 3.945 L 0,-16.326 Z m 52.892,5.395 -35.778,-10.939 v 3.299 l 28.197,8.621 v 7.477 l -28.197,-8.621 v 3.945 l 18.191,5.561 V 0.55 L 17.114,-5.012 v 4.082 l 17.573,5.373 v 6.162 L 17.114,5.232 c 0,2.645 1.459,4.237 4.346,5.12 l 23.574,7.207 v 7.55 L 19.083,17.175 c 3.862,4.357 4.757,9.282 4.757,12.801 L 8.412,25.259 C 7.635,18.986 4.659,11.903 -2.45,11.131 c 0,0 3.002,5.854 3.002,11.725 l -20.009,-6.117 c -1.264,-17.677 -6.361,-16.885 -15.25,-19.602 v -13.99 l 8.836,2.701 V -35.656 L 0,-27.747 v -3.299 l -34.707,-10.611 v -7.383 l 25.533,7.807 c -1.746,-4.854 -5.891,-9.969 -12.867,-12.102 l -12.666,-3.872 v -8.314 l 19.642,6.005 c 8.413,2.573 12.136,5.941 15.065,11.546 v -6.94 l 17.114,5.232 v 11.155 c 7.631,-0.997 12.82,-4.428 14.802,-6.629 l 20.621,6.304 c -6.184,6.153 -19.093,8.953 -24.536,8.98 l 24.891,7.61 z"
             style="fill:#000000;fill-opacity:1;fill-rule:nonzero;stroke:none"
             id="path20" />
        </g>
        <g
           id="g22"
           transform="translate(411.0492,174.828)">
          <path
             d="m 0,0 c -0.756,0.848 -1.871,0.535 -2.473,0.351 -0.64,-0.195 -1.191,-0.419 -3.15,-1.285 -1.627,-0.721 -2.101,-0.908 -2.6,-1.104 l 0.281,-1.539 c 2.857,1.406 4.407,2.16 5.265,2.422 1.216,0.372 1.831,0.125 1.831,-1.529 0,-2.271 -1.063,-4.348 -5.891,-5.769 l 0.268,-1.334 c 2.882,1.036 7.134,2.728 7.134,7.495 C 0.665,-1.969 0.653,-0.726 0,0 M -1.064,1.68 C -3.113,1.936 -6.481,1.201 -7.032,1.075 l 0.218,1.524 c 0.384,0.089 3.586,0.886 6.134,0.782 z"
             style="fill:#000000;fill-opacity:1;fill-rule:nonzero;stroke:none"
             id="path24" />
        </g>
        <g
           id="g26"
           transform="translate(393.2693,164.4096)">
          <path
             d="M 0,0 C 0.294,1.213 0.294,2.466 0.252,4.567 1.85,4.75 1.85,3.116 1.85,2.854 1.85,2.519 1.85,0.887 0,0 m 0.224,5.914 c 0,0.232 -0.027,1.333 -0.042,1.488 L -1.262,6.917 C -1.22,6.23 -1.206,5.914 -1.178,5.427 -1.683,5.17 -3.351,4.297 -4.935,2.106 c 0.027,1.16 0.126,2.211 0.294,3.414 L -6.113,5.142 c -0.07,-0.969 -0.196,-2.639 -0.196,-4.913 0,-2.114 0.112,-3.173 0.21,-3.93 l 1.361,0.605 c -0.239,1.4 -0.254,2.139 -0.211,3.07 0.701,1.891 2.397,3.4 3.813,4.125 0.042,-2.087 0.014,-3.305 -0.267,-4.381 -1.008,0.128 -1.205,1.19 -1.289,1.777 L -3.94,0.647 c 0.267,-1.347 0.771,-2.155 1.865,-2.345 -0.561,-0.726 -1.065,-1.04 -1.5,-1.305 l 0.869,-0.885 c 0.49,0.339 1.458,1.014 2.131,2.313 3.126,0.882 3.842,3.492 3.842,4.906 0,1.429 -0.688,3.069 -3.043,2.583"
             style="fill:#000000;fill-opacity:1;fill-rule:nonzero;stroke:none"
             id="path28" />
        </g>
        <g
           id="g30"
           transform="translate(379.486,163.2402)">
          <path
             d="m 0,0 c -0.493,-2.634 -1.212,-4.8 -4.224,-5.721 -1.745,-0.533 -2.239,0.028 -2.239,2.278 0,0.378 0.107,6.612 0.12,7.85 L -7.968,3.939 c -0.053,-2.834 -0.053,-4.765 -0.053,-6.057 0,-2.571 0,-3.82 0.559,-4.579 0.493,-0.676 1.44,-1.098 3.438,-0.487 4.423,1.352 5.17,5.443 5.49,7.182 z"
             style="fill:#000000;fill-opacity:1;fill-rule:nonzero;stroke:none"
             id="path32" />
        </g>
        <g
           id="g34"
           transform="translate(289.6971,102.9755)">
          <path
             d="M 0,0 -9.333,-2.853 V 14.606 L 0,17.459 Z m 0,-18.546 c 0,-2.938 -2.18,-5.986 -4.868,-6.808 l -4.465,-1.365 v 16.507 L 0,-7.359 Z m -20.274,12.348 -8.482,-2.594 V 8.667 l 8.482,2.594 z m 0,-23.866 -8.482,-2.593 v 16.507 l 8.482,2.593 z m -19.423,17.928 -9.333,-2.854 v 12.14 c 0,2.938 2.18,5.985 4.868,6.807 l 4.465,1.365 z m 0,-23.866 -9.333,-2.853 v 16.506 l 9.333,2.854 z M -9.333,24.764 V 40.458 L -20.274,37.113 V 21.419 l -8.482,-2.594 V 34.519 L -39.697,31.174 V 15.48 L -67.696,6.92 v -61.544 l 86.362,26.403 v 61.545 z"
             style="fill:#000000;fill-opacity:1;fill-rule:nonzero;stroke:none"
             id="path36" />
        </g>
        <g
           id="g38"
           transform="translate(277.8593,153.5013)">
          <path
             d="m 0,0 c -0.384,0.109 -0.978,0.281 -0.978,0.633 0,0.298 0.263,0.605 0.912,1.326 2.579,2.896 2.871,3.225 4.735,5.549 L 3.255,8.135 C 2.329,6.862 1.971,6.428 -0.701,3.25 -2.077,1.613 -2.738,0.704 -2.738,0.011 c 0,-0.905 0.953,-1.207 2.023,-1.545 1.998,-0.619 3.903,-1.408 5.689,-2.418 l 1.309,1.574 C 5.08,-1.643 1.945,-0.537 0,0"
             style="fill:#000000;fill-opacity:1;fill-rule:nonzero;stroke:none"
             id="path40" />
        </g>
        <g
           id="g42"
           transform="translate(263.9839,145.9018)">
          <path
             d="m 0,0 c 0,-0.781 -0.834,-1.11 -1.204,-1.223 -0.944,-0.288 -1.285,0.167 -1.285,0.624 0,0.604 0.561,1.189 1.518,1.481 C -0.533,1.016 -0.246,1.044 0,1.047 Z M 1.477,2.603 V 4.975 L 5.144,6.096 V 7.643 L 1.477,6.522 V 8.466 L -0.013,8.011 0,2.519 C -0.233,2.478 -0.479,2.432 -0.848,2.319 -2.599,1.784 -3.843,0.46 -3.843,-1.115 c 0,-1.547 1.217,-2.016 2.735,-1.551 0.534,0.163 1.368,0.521 1.984,1.269 0.452,0.551 0.588,1.226 0.588,1.83 v 0.56 C 2.749,0.738 3.612,0.338 4.569,-0.429 L 5.595,1.327 C 4.172,2.16 2.777,2.5 1.477,2.603"
             style="fill:#000000;fill-opacity:1;fill-rule:nonzero;stroke:none"
             id="path44" />
        </g>
        <g
           id="g46"
           transform="translate(245.5813,141.1312)">
          <path
             d="M 0,0 C 0,0.259 0.117,1.043 1.119,2.126 L 0.092,2.574 c -1.471,-1.586 -1.471,-2.78 -1.471,-3.068 0,-0.201 0.026,-2.021 2.446,-1.756 0.91,0.092 2.68,0.604 3.668,0.906 1.276,0.39 1.965,0.658 2.434,0.844 V 1.026 C 6.687,0.821 5.959,0.498 3.916,-0.127 1.991,-0.716 0,-1.324 0,0 M 2.055,3.981 -2.446,2.605 V 4.014 L 2.16,5.422 C 2.381,5.49 2.563,5.546 3.123,5.732 3.057,5.957 2.94,6.366 2.745,7.17 2.641,7.139 2.186,6.984 2.094,6.956 L -1.977,5.712 v 1.41 L 2.069,8.359 C 2.108,8.371 2.433,8.485 2.511,8.523 2.407,9.268 2.381,9.677 2.355,10.102 l 1.496,0.587 c 0.013,-0.429 0.026,-0.77 0.13,-1.63 1.796,0.664 2.797,1.258 3.266,1.545 L 7.389,9.18 C 6.349,8.56 5.412,8.187 4.202,7.716 4.28,7.295 4.45,6.626 4.579,6.234 5.633,6.629 6.987,7.143 8.261,7.95 L 8.482,6.622 C 7.311,5.89 6.297,5.494 5.008,4.984 5.386,4.092 5.543,3.723 6.179,3.069 L 4.866,1.933 C 4.514,2.329 4.15,2.794 3.552,4.453 3.031,4.279 2.589,4.144 2.055,3.981"
             style="fill:#000000;fill-opacity:1;fill-rule:nonzero;stroke:none"
             id="path48" />
        </g>
        <g
           id="g50"
           transform="translate(125.5081,55.9942)">
          <path
             d="M 0,0 -27.224,-8.323 V 5.587 L -10.24,10.78 C 3.636,15.022 5.001,32.576 5.001,32.576 l 23.119,7.068 c 0,-3.885 -1.306,-7.909 -1.306,-7.909 4.403,-0.014 28.46,-6.154 33.151,-13.402 L 37.205,11.375 C 33.791,14.902 26.081,18.415 21.76,19.401 16.704,9.933 8.098,2.476 0,0 m 33.828,-29.135 c -3.619,-1.1 -6.53,0.969 -6.53,4.57 v 3.954 l 25.13,7.683 v 8.357 l -25.13,-7.683 v 3.96 c 0,2.724 2.202,5.593 4.907,6.413 l 20.559,6.286 v 8.357 l -71.956,-22 v -8.357 l 20.559,6.286 c 2.705,0.821 4.906,-0.708 4.906,-3.413 v -3.96 l -25.13,-7.683 v -8.357 l 25.13,7.683 v -3.954 c 0,-3.601 -2.929,-7.467 -6.548,-8.568 l -26.436,-8.082 v -8.351 l 86.975,26.591 v 8.351 z"
             style="fill:#000000;fill-opacity:1;fill-rule:nonzero;stroke:none"
             id="path52" />
        </g>
        <g
           id="g54"
           transform="translate(154.2959,112.1087)">
          <path
             d="m 0,0 c -0.27,-0.905 -1.426,-4.736 -1.638,-5.526 l 0.02,-0.019 c 0.25,0.289 0.732,0.809 1.579,1.079 1.965,0.578 2.043,-1.386 2.043,-2.464 v -0.578 c 0,-0.404 0,-1.617 1.059,-1.309 1.194,0.347 1.695,2.215 1.927,4.679 L 6.3,-4.176 C 5.972,-7.238 5.279,-9.663 2.947,-10.357 0.636,-11.05 0.616,-8.721 0.616,-7.97 v 0.462 c 0,0.866 0.02,1.752 -0.924,1.463 -1.233,-0.366 -1.985,-1.829 -2.428,-3.273 -0.115,-0.501 -0.597,-2.638 -0.712,-3.081 l -1.426,0.019 c 0.732,2.561 2.485,9.107 3.314,12.206 z"
             style="fill:#000000;fill-opacity:1;fill-rule:nonzero;stroke:none"
             id="path56" />
        </g>
        <g
           id="g58"
           transform="translate(131.3501,106.1223)">
          <path
             d="m 0,0 -1.444,-0.483 c 0.052,-0.671 0.078,-1.112 0.142,-2.941 l -4.062,-1.298 0.014,2.75 -1.367,-0.418 -0.013,-2.764 -2.024,-0.647 0.026,-1.449 1.986,0.635 -0.027,-3.075 c 0,-0.407 0,-1.794 0.374,-2.478 0.799,-1.437 2.115,-1.048 4.1,-0.441 1.638,0.5 2.205,0.687 3.868,1.293 l -0.064,1.508 c -1.186,-0.475 -3.249,-1.147 -3.533,-1.234 -2.927,-0.895 -3.378,-0.907 -3.365,1.815 l 0.013,3.044 4.1,1.31 c -0.052,-2.482 -0.116,-2.964 -1.096,-3.263 -0.477,-0.146 -0.864,-0.167 -1.366,-0.18 l -0.014,-1.517 c 0.361,0.027 0.967,0.071 1.599,0.264 2.308,0.706 2.308,2.682 2.308,5.147 l 2.411,0.779 v 1.457 L 0.142,-2.955 C 0.116,-2.29 0.039,-0.521 0,0 M 1.78,-0.941 C 1.741,-0.505 1.534,0.454 1.315,0.906 L 0.374,0.464 c 0.232,-0.685 0.349,-1.378 0.4,-1.923 z m 0.49,0.164 C 2.244,-0.632 2.063,0.476 1.805,1.112 L 2.798,1.569 C 2.965,1.117 3.043,0.79 3.262,-0.292 Z"
             style="fill:#000000;fill-opacity:1;fill-rule:nonzero;stroke:none"
             id="path60" />
        </g>
        <g
           id="g62"
           transform="translate(481.8358,308.3013)">
          <path
             d="m 0,0 -45.045,-13.772 c -2.422,-0.732 -3.865,-2.855 -3.865,-5.633 v -51.362 l 45.045,13.771 C -1.625,-56.324 0,-54.337 0,-51.362 Z M 18.164,15.377 V -60.06 l -85.23,-26.058 V -10.68 Z M -8.448,-43.972 v 7.217 l -5.114,-1.563 v -7.218 z m 0,-9.853 -32.006,-9.785 v 5.878 l 5.65,1.728 c 2.308,0.705 3.676,2.545 3.676,5.589 v 10.7 l -9.326,-2.851 v 6.352 l 9.326,2.851 v 10.957 c 0,1.272 -0.766,2.984 -4.287,1.907 l -5.039,-1.54 v 5.917 l 32.006,9.786 v -5.918 l -5.587,-1.709 c -2.388,-0.73 -3.738,-2.51 -3.738,-5.595 v -9.722 l 9.325,2.852 v -6.352 l -9.325,-2.852 v -11.935 c 0,-1.879 1.443,-2.789 4.349,-1.901 l 4.976,1.522 z"
             style="fill:#000000;fill-opacity:1;fill-rule:nonzero;stroke:none"
             id="path64" />
        </g>
        <g
           id="g66"
           transform="translate(474.1236,320.7102)">
          <path
             d="m 0,0 c -2.271,1.342 -3.386,1.714 -6.38,2.746 -0.619,0.227 -1.383,0.64 -1.383,1.383 0,0.723 0.743,1.714 1.631,2.788 3.51,4.232 3.572,4.356 4.398,5.512 l 1.424,-0.66 C -2.25,9.312 -2.601,8.94 -5.533,5.595 -5.822,5.286 -6.008,4.997 -6.008,4.749 -6.008,4.377 -5.389,4.191 -5.017,4.088 -3.159,3.551 0.021,2.374 1.28,1.59 Z"
             style="fill:#000000;fill-opacity:1;fill-rule:nonzero;stroke:none"
             id="path68" />
        </g>
        <g
           id="g70"
           transform="translate(439.6022,316.7449)">
          <path
             d="m 0,0 c -1.136,-1.528 -1.177,-2.622 -1.177,-2.891 0,-1.878 2.56,-1.135 4.542,-0.536 1.301,0.392 2.623,0.846 3.903,1.445 L 7.309,-3.593 C 6.855,-3.82 5.926,-4.212 3.861,-4.852 1.239,-5.637 0.103,-5.864 -1.032,-5.616 c -0.929,0.207 -1.631,1.094 -1.631,2.23 0,1.342 0.598,2.416 1.569,3.923 z M 6.607,7.433 V 6.008 C 4.935,5.182 3.737,4.212 2.209,2.705 L 1.259,3.448 C 1.693,3.902 1.776,3.985 2.643,4.687 L 2.622,4.707 C 0.826,4.129 -1.012,3.551 -2.085,3.159 V 4.79 c 0.392,0.103 2.044,0.599 2.725,0.805 z M 9.085,4.522 C 8.507,5.554 8.114,5.988 7.908,6.215 L 8.775,7.041 C 9.353,6.442 9.766,5.76 9.993,5.389 Z M 7.206,2.911 C 6.752,3.675 6.483,4.047 5.946,4.604 L 6.875,5.471 C 7.412,4.976 7.846,4.336 8.135,3.799 Z"
             style="fill:#000000;fill-opacity:1;fill-rule:nonzero;stroke:none"
             id="path72" />
        </g>
        <g
           id="g74"
           transform="translate(361.9288,210.9594)">
          <path
             d="M 0,0 C 0.174,3.386 0.043,8.405 0.043,8.405 L 31.706,18.085 31.705,31.262 0.042,21.581 V 33.379 L 31.705,43.06 V 56.204 L -53.817,30.056 V 16.913 l 31.147,9.522 V 14.637 L -53.817,5.114 V -8.062 l 31.147,9.523 v -4.873 c 0,-15.603 -8.403,-21.915 -21.165,-25.826 l -9.982,-3.051 v -13.206 l 21.739,6.647 c 16.697,5.096 22.584,11.014 29.201,26.809 3.631,-1.443 13.495,-7.946 17.496,-12.533 l 22.484,6.874 C 30.375,-10.275 6.412,-1.256 0,0"
             style="fill:#000000;fill-opacity:1;fill-rule:nonzero;stroke:none"
             id="path76" />
        </g>
        <g
           id="g78"
           transform="translate(364.2947,275.5457)">
          <path
             d="m 0,0 c -0.287,-0.962 -1.515,-5.037 -1.74,-5.876 l 0.02,-0.02 c 0.266,0.307 0.778,0.859 1.679,1.146 2.088,0.614 2.17,-1.474 2.17,-2.621 v -0.614 c 0,-0.43 0,-1.72 1.126,-1.392 1.27,0.368 1.802,2.354 2.048,4.975 L 6.695,-4.443 C 6.347,-7.698 5.61,-10.278 3.132,-11.015 0.676,-11.752 0.655,-9.275 0.655,-8.476 v 0.491 c 0,0.922 0.021,1.863 -0.983,1.556 -1.31,-0.389 -2.108,-1.945 -2.579,-3.48 -0.123,-0.533 -0.635,-2.805 -0.758,-3.276 l -1.515,0.02 c 0.778,2.723 2.641,9.684 3.522,12.981 z"
             style="fill:#000000;fill-opacity:1;fill-rule:nonzero;stroke:none"
             id="path80" />
        </g>
        <g
           id="g82"
           transform="translate(342.5152,268.4822)">
          <path
             d="M 0,0 V -1.617 C -0.348,-1.679 -0.676,-1.74 -1.331,-1.945 -3.562,-2.6 -7.186,-6.306 -7.207,-9.172 c -0.02,-1.618 1.351,-1.72 2.273,-1.7 0.819,0.021 2.006,0.205 3.644,0.696 l -0.205,-1.781 c -1.33,-0.348 -2.866,-0.675 -4.156,-0.614 -1.433,0.041 -3.091,0.655 -3.091,2.846 0.02,1.187 0.512,3.706 3.685,6.633 l -0.021,0.021 c -2.907,-0.962 -3.255,-1.065 -6.265,-2.109 v 1.638 c 0.533,0.143 4.3,1.331 5.856,1.822 z"
             style="fill:#000000;fill-opacity:1;fill-rule:nonzero;stroke:none"
             id="path84" />
        </g>
        <g
           id="g86"
           transform="translate(286.418,207.568)">
          <path
             d="m 0,0 -3.32,-1.015 c -2.173,-0.67 -4.564,-0.024 -6.214,2.414 l -7.575,11.192 -22.011,-6.73 9.965,-14.774 -27.149,-8.301 16.432,53.745 c 0.718,2.349 1.995,3.821 3.746,4.37 l 5.523,1.688 v 8.94 l -27.113,-8.29 -19.51,-63.815 c -0.756,-2.472 -2.217,-3.712 -3.773,-4.188 l -3.361,-1.027 v -12.923 l 91.586,28.001 z"
             style="fill:#000000;fill-opacity:1;fill-rule:nonzero;stroke:none"
             id="path88" />
        </g>
        <g
           id="g90"
           transform="translate(162.0574,152.5444)">
          <path
             d="m 0,0 c 8.367,13.267 9.552,21.615 10.735,30.81 0.413,3.326 1.996,5.046 3.787,5.593 l 3.329,1.018 V 49.828 L -60.06,26.008 V 12.865 l 48.793,14.918 c -1.968,-30.361 -16.682,-43.4 -43.997,-51.751 l -4.796,-1.466 v -12.978 l 14.444,4.418 c 18.697,5.714 27.723,11.206 38.749,24.783 2.846,-1.383 6.609,-4.769 8.741,-10.266 l 21.989,6.723 C 20.768,-8.953 7.622,-1.006 0,0 m 19.496,53.813 c 3.142,0.976 4.886,4.247 3.91,7.328 -0.917,3.142 -4.247,4.886 -7.328,3.909 -3.142,-0.977 -4.826,-4.247 -3.91,-7.328 0.977,-3.141 4.247,-4.825 7.328,-3.909 M -1.607,53.511 c -0.915,3.081 0.768,6.411 3.91,7.328 3.081,0.916 6.351,-0.829 7.328,-3.91 0.916,-3.081 -0.768,-6.351 -3.91,-7.328 -3.081,-0.916 -6.351,0.829 -7.328,3.91"
             style="fill:#000000;fill-opacity:1;fill-rule:nonzero;stroke:none"
             id="path92" />
        </g>
        <g
           id="g94"
           transform="translate(30.3801,153.4772)">
          <path
             d="m 0,0 -1.839,-0.562 c -2.9,-0.887 -4.322,0.076 -4.322,1.901 v 19.843 c 0,2.666 0.969,4.692 3.666,5.516 L 0,27.461 v 9.653 l -30.38,-9.289 v -9.652 l 1.845,0.564 c 2.909,0.889 4.316,-0.07 4.316,-1.883 V -2.989 c 0,-2.692 -0.97,-4.712 -3.661,-5.535 l -2.5,-0.764 v -9.633 L 0,-9.633 Z M 53.639,53.513 V 43.86 L 51.274,43.137 C 48.547,42.303 47.618,40.368 47.618,37.638 V -1.866 c 0,-12.927 -6.944,-22.846 -17.83,-26.136 l -53.776,-16.441 v 12.986 L 14.468,-19.7 c 7.387,2.269 10.844,8.688 10.844,17.416 v 34.285 c 0,1.813 -1.414,2.766 -4.319,1.878 L 19.064,33.29 v 9.652 z"
             style="fill:#000000;fill-opacity:1;fill-rule:nonzero;stroke:none"
             id="path96" />
        </g>
        <g
           id="g98"
           transform="translate(364.7697,325.7759)">
          <path
             d="M 0,0 C 0,-3.205 -0.674,-4.738 -2.494,-5.294 L -14.671,-9.017 V 33.99 c 0,3.368 1.869,5.054 3.611,5.585 L 0,42.958 Z M 36.327,67.024 -23.254,48.808 c -5.923,-1.811 -9.373,-9.432 -9.373,-18.811 v -41.79 l 18.717,-9.786 22.46,6.867 c 6.047,1.849 9.467,9.36 9.496,18.448 v 44.739 l 10.213,3.123 c 2.893,0.884 4.452,-0.095 4.458,-1.913 V 15.902 c 0,-10.838 -0.88,-13.489 -7.549,-15.527 v -9.159 c 7.5,0.811 14.628,3.923 17.526,5.749 4.105,2.618 7.914,9.635 7.912,21.351 v 41.213 z"
             style="fill:#000000;fill-opacity:1;fill-rule:nonzero;stroke:none"
             id="path100" />
        </g>
        <g
           id="g102"
           transform="translate(278.0115,325.5494)">
          <path
             d="m 0,0 -8.022,-2.453 c -1.521,-0.465 -3.615,-1.938 -3.615,-4.911 v -14.258 l 7.901,2.416 C -1.488,-18.519 0,-16.727 0,-13.997 Z m 16.267,18.011 15.165,4.637 V 9.61 L 16.267,4.973 V -12.92 c 0,-8.494 -3.413,-14.261 -7.934,-15.644 l -24.467,-7.48 -10.741,5.646 V -8.62 c 0,8.194 3.15,14.405 8.05,15.903 L 0,13.038 v 24.181 l 26.408,8.074 V 32.631 L 19.804,30.612 C 17.145,29.799 16.267,27.883 16.267,25.14 Z M -33.86,26.83 v -44.525 l -21.934,-6.706 v 8.009 l 1.856,0.567 c 2.683,0.82 3.525,2.842 3.525,5.502 v 32.092 l -14.16,-4.329 v 12.817 l 14.16,4.329 v 11.362 l 16.553,5.061 V 39.647 l 24.316,7.434 V 34.264 Z"
             style="fill:#000000;fill-opacity:1;fill-rule:nonzero;stroke:none"
             id="path104" />
        </g>
        <g
           id="g106"
           transform="translate(202.8985,282.0233)">
          <path
             d="m 0,0 v -3.171 c 0,-2.708 -1.038,-4.668 -3.747,-5.496 l -10.524,-3.218 V 16.979 L -42.82,8.25 l 8.326,27.221 c 0.9,2.729 2.189,3.877 3.637,4.32 l 5.795,1.772 v 8.443 l -26.543,-8.115 -21.446,-70.767 c -1.081,-2.911 -2.297,-3.859 -3.618,-4.263 l -3.651,-1.116 v -12.88 l 22.751,6.956 10.554,34.657 14.758,4.513 V -32.44 L 6.424,-20.614 V 1.964 Z"
             style="fill:#000000;fill-opacity:1;fill-rule:nonzero;stroke:none"
             id="path108" />
        </g>
        <g
           id="g110"
           transform="translate(51.5615,256.2582)">
          <path
             d="m 0,0 c 0,-3.237 -1.619,-4.874 -3.682,-5.505 l -8.525,-2.606 V 7.451 c -10e-4,3.607 1.919,5.109 3.858,5.702 L 0,15.705 Z M 31.244,60.072 V 37.952 L 17.916,33.878 V 71.701 L -22.102,59.466 V 46.729 l 17.691,5.409 C -1.513,53.024 0,52.293 0,50.362 V 28.4 l -19.351,-5.916 c -5.995,-1.833 -9.753,-8.531 -9.753,-18.55 v -15.939 l 16.996,-8.913 20.039,6.127 c 5.996,1.833 9.975,8.354 9.985,18.369 v 17.605 l 13.328,4.074 V -7.664 l 18.217,5.569 v 32.922 l 8.118,2.482 v 12.828 l -8.118,-2.615 v 11.706 c 0,2.697 0.995,4.681 3.598,5.477 l 1.15,0.352 v 6.036 z"
             style="fill:#000000;fill-opacity:1;fill-rule:nonzero;stroke:none"
             id="path112" />
        </g>
        <g
           id="g114"
           transform="translate(497.7927,219.8914)">
          <path
             d="m 0,0 v 8.673 l -2.181,-9.34 -2.363,-0.722 -2.13,8.021 V -2.04 L -8.907,-2.723 V 7.659 l 3.489,1.067 2.104,-7.592 0.026,0.008 2.052,8.862 3.443,1.053 V 0.675 Z m -16.124,-4.93 v 8.541 l -3.593,-1.098 v 1.835 l 9.502,2.905 V 5.418 l -3.463,-1.059 v -8.541 z"
             style="fill:#000000;fill-opacity:1;fill-rule:nonzero;stroke:none"
             id="path116" />
        </g>
      </g>
    </g>
  </g>
</svg>
