<?xml version="1.0" encoding="UTF-8" standalone="no"?>
<!-- Generator: Adobe Illustrator 25.0.0, SVG Export Plug-In . SVG Version: 6.00 Build 0)  -->

<svg
   version="1.1"
   id="Layer_1"
   x="0px"
   y="0px"
   viewBox="0 0 666.66669 505.22839"
   xml:space="preserve"
   sodipodi:docname="Minna no Rhythm Tengoku Complete Vocal Collection (みんなのリズム天国全ボーカル集) Logo.svg"
   width="666.66669"
   height="505.22839"
   inkscape:version="1.2.2 (b0a8486541, 2022-12-01)"
   xmlns:inkscape="http://www.inkscape.org/namespaces/inkscape"
   xmlns:sodipodi="http://sodipodi.sourceforge.net/DTD/sodipodi-0.dtd"
   xmlns:xlink="http://www.w3.org/1999/xlink"
   xmlns="http://www.w3.org/2000/svg"
   xmlns:svg="http://www.w3.org/2000/svg"><defs
   id="defs1717" /><sodipodi:namedview
   id="namedview1715"
   pagecolor="#505050"
   bordercolor="#eeeeee"
   borderopacity="1"
   inkscape:showpageshadow="0"
   inkscape:pageopacity="0"
   inkscape:pagecheckerboard="0"
   inkscape:deskcolor="#505050"
   showgrid="false"
   inkscape:zoom="3.161607"
   inkscape:cx="250.03108"
   inkscape:cy="189.46061"
   inkscape:window-width="2560"
   inkscape:window-height="1400"
   inkscape:window-x="0"
   inkscape:window-y="0"
   inkscape:window-maximized="1"
   inkscape:current-layer="Layer_1" />
<style
   type="text/css"
   id="style1422">
	.st0{fill:url(#SVGID_1_);}
	.st1{fill:#FFFFFF;}
	.st2{clip-path:url(#SVGID_2_);fill:url(#SVGID_3_);}
	.st3{clip-path:url(#SVGID_2_);fill:url(#SVGID_4_);}
	.st4{clip-path:url(#SVGID_2_);fill:url(#SVGID_5_);}
	.st5{clip-path:url(#SVGID_2_);fill:url(#SVGID_6_);}
	.st6{clip-path:url(#SVGID_2_);fill:url(#SVGID_7_);}
	.st7{clip-path:url(#SVGID_2_);fill:url(#SVGID_8_);}
	.st8{clip-path:url(#SVGID_2_);fill:url(#SVGID_9_);}
	.st9{clip-path:url(#SVGID_2_);fill:url(#SVGID_10_);}
	.st10{clip-path:url(#SVGID_2_);fill:url(#SVGID_11_);}
	.st11{clip-path:url(#SVGID_2_);fill:url(#SVGID_12_);}
	.st12{clip-path:url(#SVGID_2_);fill:url(#SVGID_13_);}
	.st13{clip-path:url(#SVGID_2_);fill:url(#SVGID_14_);}
	.st14{clip-path:url(#SVGID_2_);fill:url(#SVGID_15_);}
	.st15{clip-path:url(#SVGID_2_);fill:url(#SVGID_16_);}
	.st16{clip-path:url(#SVGID_2_);fill:url(#SVGID_17_);}
	.st17{clip-path:url(#SVGID_2_);fill:url(#SVGID_18_);}
	.st18{clip-path:url(#SVGID_2_);fill:url(#SVGID_19_);}
	.st19{clip-path:url(#SVGID_2_);fill:url(#SVGID_20_);}
	.st20{clip-path:url(#SVGID_2_);fill:url(#SVGID_21_);}
	.st21{fill:#EB6100;}
	.st22{fill:#FDD000;}
</style>
<g
   id="全ボーカル集"
   transform="scale(1.3333334)">
	<linearGradient
   id="SVGID_1_"
   gradientUnits="userSpaceOnUse"
   x1="477.26193"
   y1="348.51111"
   x2="224.15109"
   y2="256.38629">
		<stop
   offset="0.05"
   style="stop-color:#FD1E18"
   id="stop1424" />
		<stop
   offset="0.08166"
   style="stop-color:#FD2218"
   id="stop1426" />
		<stop
   offset="0.11446"
   style="stop-color:#FC2F17"
   id="stop1428" />
		<stop
   offset="0.14781"
   style="stop-color:#FB4316"
   id="stop1430" />
		<stop
   offset="0.18151"
   style="stop-color:#F96014"
   id="stop1432" />
		<stop
   offset="0.21552"
   style="stop-color:#F78612"
   id="stop1434" />
		<stop
   offset="0.24933"
   style="stop-color:#F4B30F"
   id="stop1436" />
		<stop
   offset="0.25"
   style="stop-color:#F4B40F"
   id="stop1438" />
		<stop
   offset="0.35"
   style="stop-color:#F1E301"
   id="stop1440" />
		<stop
   offset="0.39109"
   style="stop-color:#ABE403"
   id="stop1442" />
		<stop
   offset="0.42803"
   style="stop-color:#74E504"
   id="stop1444" />
		<stop
   offset="0.45964"
   style="stop-color:#4CE505"
   id="stop1446" />
		<stop
   offset="0.48467"
   style="stop-color:#34E606"
   id="stop1448" />
		<stop
   offset="0.5"
   style="stop-color:#2BE606"
   id="stop1450" />
		<stop
   offset="0.67"
   style="stop-color:#03B3F4"
   id="stop1452" />
		<stop
   offset="0.692"
   style="stop-color:#03ACF5"
   id="stop1454" />
		<stop
   offset="0.72489"
   style="stop-color:#0297F8"
   id="stop1456" />
		<stop
   offset="0.76441"
   style="stop-color:#0176FC"
   id="stop1458" />
		<stop
   offset="0.78"
   style="stop-color:#0167FE"
   id="stop1460" />
		<stop
   offset="0.81537"
   style="stop-color:#304BFD"
   id="stop1462" />
		<stop
   offset="0.86072"
   style="stop-color:#672CFD"
   id="stop1464" />
		<stop
   offset="0.89993"
   style="stop-color:#8F14FC"
   id="stop1466" />
		<stop
   offset="0.93097"
   style="stop-color:#A706FC"
   id="stop1468" />
		<stop
   offset="0.95"
   style="stop-color:#B001FC"
   id="stop1470" />
	</linearGradient>
	<path
   class="st0"
   d="m 491.67499,259.65961 c 0.0274,-0.32556 0.0456,-0.65466 0.0543,-0.98709 0.0867,-3.34283 -0.87729,-6.42682 -2.71204,-8.87012 0.1109,-0.67719 0.17676,-1.37085 0.19543,-2.07768 0.003,-0.1194 0.004,-0.23799 0.005,-0.35657 0.99808,-2.02441 1.56409,-4.28519 1.62613,-6.68732 0.12515,-4.80975 -1.8699,-9.08368 -5.47461,-11.726 -2.1438,-1.57233 -6.72574,-3.87125 -13.30875,-1.60526 l -4.17731,1.43835 c -2.6994,-0.9525 -6.47266,-1.36122 -11.27032,0.29042 -2.4595,0.84711 -4.36176,2.03513 -5.85559,3.37001 -2.31458,-0.18117 -4.76089,0.13643 -7.19678,0.97502 -6.71259,2.31099 -9.20502,7.19815 -10.56213,9.85913 -0.75485,1.4919 -2.03897,3.78505 -3.89072,6.28409 -1.01685,1.29878 -1.91391,2.45242 -2.68649,3.56531 -1.1189,-1.80013 -2.45514,-3.02115 -3.47653,-3.77008 -2.72467,-1.99725 -7.40213,-3.88553 -14.2146,-1.54021 -2.7262,0.93854 -5.04141,2.31277 -6.90768,4.03978 -1.8606,-0.0402 -3.96384,0.25124 -6.32751,1.06532 -6.29721,2.16801 -10.53464,6.8154 -11.85162,12.76053 -1.68335,-0.0572 -3.56586,0.13235 -5.65695,0.6767 -0.52319,-0.54407 -1.11719,-1.06863 -1.7908,-1.56244 -2.74335,-2.00989 -7.45923,-3.90829 -14.35297,-1.53363 -6.14984,2.11722 -10.30188,6.5918 -11.69745,12.60358 l -2.27393,0.78287 c -6.47949,2.23193 -10.8031,7.07828 -12.04907,13.27347 l -7.82263,2.69354 c -0.38425,-2.25674 -1.0571,-4.21704 -1.41782,-5.16718 -0.0258,-0.0681 -0.0522,-0.13559 -0.079,-0.20312 -3.40433,-8.48639 -11.07269,-10.24536 -16.75644,-8.28845 -1.11865,0.38501 -2.24149,0.94083 -3.31247,1.64114 -0.7352,0.12122 -1.45883,0.30106 -2.15991,0.54276 -2.82452,0.97137 -5.68393,2.98322 -7.62396,5.8309 -1.98828,-0.11255 -4.27271,0.15973 -6.86652,1.05267 -5.89264,2.02936 -10.00543,6.22314 -11.62332,11.63046 l -4.92972,1.69751 c -3.16339,1.0892 -5.80106,2.83185 -7.81375,5.064 -1.50574,-0.42468 -2.73843,-1.03183 -4.86639,-2.31271 -0.0294,-0.0175 -0.0588,-0.0351 -0.0881,-0.0524 -3.13202,-1.84845 -8.3741,-4.94122 -16.70126,-2.0741 -6.51822,2.24374 -9.53194,6.04141 -12.43283,9.72162 -2.9588,3.67441 -5.83911,6.78833 -8.56131,9.25525 l -0.27779,0.23605 c -4.30276,3.64862 -5.09633,4.36752 -5.71422,5.03128 -3.01866,3.17978 -4.67307,7.19183 -4.7878,11.61426 -0.11667,4.49463 1.50562,8.70737 4.41695,11.67633 -5.5e-4,0.0225 -10e-4,0.0445 -0.002,0.067 -0.0187,0.72522 8.2e-4,1.41583 0.0535,2.073 -3.08783,3.02826 -4.86768,7.11499 -4.98927,11.79187 -0.18282,7.06668 2.9816,10.89755 5.66838,12.86682 1.80675,1.32471 4.47375,2.60498 8.0307,2.60498 1.71535,0 3.63792,-0.2981 5.77077,-1.03265 l 38.58369,-13.28516 c 3.97922,-1.37006 7.11163,-3.76883 9.18048,-6.87183 0.61069,-0.13916 1.21973,-0.29962 1.82275,-0.50723 1.51859,-0.52304 2.84256,-1.22946 4.02554,-2.0639 1.57068,0.71704 3.49515,1.23218 5.78802,1.23218 1.78204,0 3.78616,-0.31128 6.01645,-1.07877 4.6817,-1.61221 8.1795,-4.48389 10.24551,-8.25424 0.29074,0.0182 0.58182,0.0347 0.87494,0.0347 1.62778,0 3.28848,-0.28217 4.94427,-0.85202 6.42105,-2.21219 13.03589,-8.83609 13.25439,-17.21817 0.0139,-0.53888 -0.003,-1.04941 -0.0389,-1.54193 l 9.33926,-3.21582 c 0.79129,3.52847 2.79568,6.67743 5.71851,8.82031 2.56216,1.87811 5.62668,2.85233 8.72794,2.85233 1.62009,0 3.25061,-0.26599 4.82349,-0.80759 3.35822,-1.15619 6.46826,-3.69226 9.01999,-6.36752 5.16934,1.48203 10.41006,-0.32227 14.1597,-1.61377 3.83835,-1.32175 7.81656,-3.121 11.18103,-6.29901 0.81995,0.12912 1.65274,0.19583 2.49115,0.19583 1.79578,0 3.61624,-0.29865 5.3829,-0.90695 3.38306,-1.16492 6.12552,-3.2287 8.70099,-6.62698 1.33609,0.46106 2.9165,0.78458 4.73294,0.78458 1.7189,0 3.64697,-0.28821 5.77161,-1.01974 3.85727,-1.32809 8.617,-4.27594 13.20706,-8.62335 2.37607,1.69016 5.14291,2.56299 8.00119,2.56299 1.60141,0 3.23138,-0.27231 4.83444,-0.82434 0.89377,-0.30771 3.60196,-1.24017 9.37576,-5.51794 2.57037,0.7955 5.89072,0.95938 9.99554,-0.45401 3.79633,-1.30743 6.79822,-3.47818 8.85861,-6.314 2.92175,0.24731 7.16986,0.29672 10.64227,-0.89926 7.79904,-2.68515 11.52341,-10.55252 11.68372,-16.72983 0.0472,-1.84464 -0.21411,-3.45566 -0.64398,-4.84268 0.70932,-1.77435 1.10733,-3.70572 1.16003,-5.75211 0.0577,-2.22399 -0.33265,-4.33406 -1.12211,-6.22371 z"
   id="path1473"
   style="fill:url(#SVGID_1_)" />
	<path
   class="st1"
   d="m 486.61545,265.72299 c 0.0587,-2.26953 -0.59402,-3.89594 -1.37634,-5.02167 0.224,-0.86987 0.2937,-1.63901 0.30853,-2.18912 0.0889,-3.42929 -1.552,-5.33295 -2.67911,-6.23082 -0.0483,-0.66127 -0.17676,-1.29482 -0.38043,-1.88965 0.33102,-0.87674 0.5166,-1.82596 0.54294,-2.82869 0.0154,-0.58853 -0.0252,-1.12956 -0.1076,-1.62558 1.42905,-2.04446 1.7074,-4.22617 1.73868,-5.41777 0.0983,-3.77022 -1.80563,-5.73947 -2.94867,-6.57779 -2.07959,-1.52484 -4.64996,-1.77545 -7.6398,-0.74525 l -6.56161,2.25938 c -1.67004,-1.12077 -4.51437,-2.0354 -8.88605,-0.53061 -2.74222,0.94427 -4.38864,2.47681 -5.58768,4.35052 -3.02716,-1.31705 -6.36011,-0.38649 -7.46469,-0.005 -4.35132,1.49821 -5.91046,4.55475 -7.05734,6.80316 -0.8696,1.72 -2.35352,4.36862 -4.49078,7.24261 -3.2731,4.18007 -4.49954,5.76033 -4.58685,9.13475 -0.0276,1.06085 0.12091,2.09567 0.41968,3.069 -1.53552,0.0922 -2.74869,0.46201 -3.15695,0.60266 -2.0011,0.689 -3.44,1.77765 -4.47928,2.93301 l 0.19327,-7.44052 c 0.10486,-4.03403 -1.64261,-6.17786 -3.12708,-7.26624 -2.23169,-1.63629 -5.10623,-1.86494 -8.54514,-0.68021 -2.91147,1.00229 -5.09186,2.66959 -6.45026,4.86551 -1.92697,-0.72855 -4.19998,-0.65067 -6.78491,0.23987 -5.10513,1.75732 -7.98953,5.52151 -8.12241,10.60001 l -0.12866,4.96515 c -0.29749,-0.30093 -0.61664,-0.59195 -0.98196,-0.85974 -2.58575,-1.89514 -6.01096,-2.1282 -10.18057,-0.69174 l -2.83774,0.9772 c -0.39804,-1.39636 -1.18365,-2.85147 -2.71753,-3.97583 -2.25638,-1.65384 -5.17703,-1.88168 -8.68402,-0.67416 -4.13504,1.42383 -6.79657,4.25912 -7.69638,8.19925 l -0.0285,0.13095 c -0.16525,0.81415 -0.23059,1.40021 -0.31677,3.01453 l -5.92807,2.04144 c -7.00079,2.41147 -8.17673,7.83005 -8.25525,10.84512 -0.011,0.42514 0.003,0.82486 0.0302,1.20975 -0.7836,0.17395 -1.41925,0.39035 -1.81335,0.52618 l -20.48853,7.05469 c -0.009,-0.0612 -0.0158,-0.12408 -0.0254,-0.1842 1.68201,-1.50043 2.70807,-3.61438 2.76874,-5.94653 0.0675,-2.61102 -1.07217,-5.7532 -1.30112,-6.35654 l -0.0379,-0.0966 c -2.6308,-6.55914 -7.96265,-5.10263 -9.00409,-4.74332 -1.05371,0.36276 -2.11713,0.9678 -3.04074,1.78369 -0.84888,-0.008 -1.67856,0.14069 -2.43329,0.40076 -2.83887,0.97638 -5.74854,3.681 -5.849,7.52756 -8.9e-4,0.0352 -0.002,0.0837 -0.003,0.1311 -0.03,-0.0227 -0.0605,-0.0483 -0.0902,-0.0702 -2.24704,-1.647 -5.12186,-1.8847 -8.54623,-0.70575 -5.05157,1.73978 -7.95273,5.4444 -8.1998,10.45178 l -8.35352,2.87646 c -3.92679,1.35217 -5.95813,3.77728 -7.00177,6.08792 -4.31461,-0.71964 -6.33115,-1.14713 -10.92264,-3.91061 -2.90805,-1.71643 -5.91599,-3.49078 -11.54567,-1.55255 -4.82704,1.6618 -6.94479,4.34833 -9.59123,7.70596 -3.17374,3.94565 -6.29039,7.31235 -9.26292,10.00601 l -0.43095,0.3703 c -4.20093,3.56216 -4.83501,4.15012 -5.20174,4.54404 -1.96541,2.05817 -3.04309,4.66589 -3.11775,7.54565 -0.0859,3.30359 1.27641,6.31207 3.64369,8.04718 0.39526,0.28989 0.81087,0.54022 1.24265,0.74994 -0.35109,1.17374 -0.45265,2.22507 -0.47131,2.94589 -0.0445,1.71124 0.20203,3.2012 0.73538,4.4595 -4.92065,2.69064 -5.61787,7.35159 -5.67113,9.4054 -0.034,1.3143 -0.13753,5.31482 3.14218,7.71887 1.27284,0.93329 2.74361,1.40048 4.39717,1.40048 1.15729,0 2.40433,-0.22891 3.73537,-0.68732 l 38.58395,-13.28571 c 4.37912,-1.50732 6.35297,-4.26263 7.21085,-6.78583 0.0732,0.002 0.1456,0.008 0.21899,0.008 1.18829,0 2.40186,-0.19763 3.5726,-0.60062 2.34622,-0.80801 4.03439,-2.24213 5.53568,-4.44843 0.53934,0.80563 1.16367,1.4007 1.74893,1.82971 1.31238,0.96185 2.83804,1.44333 4.56161,1.44333 1.22922,0 2.55942,-0.24487 3.98407,-0.73511 5.0181,-1.7283 7.90649,-5.39935 8.18707,-10.35709 1.31158,1.05649 2.92978,1.81546 4.90619,1.81525 0.91245,0 1.90173,-0.16168 2.97061,-0.52951 4.29755,-1.48062 8.94315,-6.02493 9.08698,-11.53165 0.0662,-2.56094 -0.83517,-4.08261 -1.96582,-5.66837 1.71371,-0.0588 3.16061,-0.55011 3.85986,-0.79083 l 21.1748,-7.29102 c -0.93671,1.48892 -1.72278,3.33075 -1.77933,5.49881 -0.0785,3.03815 1.2215,5.76694 3.56735,7.48666 1.48724,1.09058 3.26764,1.65604 5.07053,1.65576 0.94373,0 1.89404,-0.15482 2.8114,-0.47076 3.62943,-1.24979 7.28574,-5.36945 9.54156,-8.32193 0.26022,0.25143 0.52264,0.46857 0.77737,0.65549 3.81662,2.79739 8.62143,1.1452 12.86078,-0.31485 3.93878,-1.35617 8.14154,-3.19217 11.16705,-7.57928 1.36679,0.73871 2.9425,1.1264 4.55399,1.1264 1.11609,0 2.24759,-0.18311 3.33405,-0.55725 3.05844,-1.05298 5.37631,-3.34476 7.99503,-7.90088 0.31653,-0.54822 0.61365,-1.09546 0.89886,-1.64194 0.48544,0.70404 1.06897,1.32812 1.7775,1.84756 1.05515,0.7738 2.62527,1.5144 4.76965,1.51413 1.10074,0 2.353,-0.19519 3.76447,-0.68103 3.68945,-1.27026 10.10016,-5.44672 15.64532,-12.4234 0.53687,1.86633 1.59482,3.47006 3.0639,4.54694 1.32639,0.97284 2.89816,1.47131 4.53525,1.47131 0.92233,0 1.86548,-0.15839 2.7977,-0.47928 2.25525,-0.77655 5.48886,-2.99063 7.84842,-4.74414 1.01675,-0.77133 1.95059,-1.52484 2.8136,-2.25775 0.14496,0.12491 0.29593,0.24487 0.45294,0.35962 2.16357,1.58685 4.9415,1.81195 8.2569,0.67004 4.50342,-1.55066 6.53964,-4.38538 7.37631,-7.18417 0.59894,0.10925 1.24622,0.21576 1.94891,0.31952 0.65936,0.0963 6.54349,0.90228 10.17563,-0.3486 4.78836,-1.64865 7.40488,-6.80151 7.51523,-11.04114 0.056,-2.19406 -0.58304,-3.78284 -1.34671,-4.88962 1.46306,-2.02159 1.82375,-4.20333 1.86275,-5.70702 z"
   id="path1475" />
	<path
   d="m 236.21994,339.75034 c -1.45776,0.50195 -3.29587,0.83594 -3.71913,-1.41132 -0.93779,0.87112 -3.01187,2.83167 -4.8094,3.45062 -2.4296,0.83658 -3.96825,-1.12643 -3.90297,-3.64172 0.0418,-1.61035 0.65193,-2.86722 1.59233,-3.83905 0.39696,-0.43613 4.38495,-3.80356 5.17268,-4.47354 0.78998,-0.72092 4.68379,-4.1557 10.00905,-10.77582 2.58908,-3.28448 3.8326,-4.80957 7.04044,-5.91412 3.15849,-1.08755 4.29749,-0.43295 6.85896,1.07852 5.69008,3.42511 8.42381,3.88016 13.50652,4.72269 1.19781,0.23557 2.63602,0.48819 2.56808,3.10468 -0.0692,2.66611 -1.82996,5.56607 -4.21115,6.38599 -1.26321,0.43494 -2.75241,0.29919 -4.37991,-0.0874 -0.63983,2.36401 -2.20483,3.30164 -3.85715,3.87057 l -6.80385,2.34277 -0.0992,3.82352 10.69122,-3.6813 c 1.84686,-0.63593 3.92233,-0.80185 3.83618,2.51862 -0.0992,3.82303 -3.06412,4.8439 -4.03595,5.17856 l -10.69121,3.68127 -0.1136,4.37717 15.01611,-5.17047 c 2.96487,-1.02087 3.90015,0.053 3.82312,3.02118 -0.094,3.6221 -2.72208,4.67697 -4.03464,5.12894 l -38.58423,13.28561 c -2.96393,1.02057 -3.90147,-0.003 -3.82443,-2.97107 0.094,-3.62259 2.72339,-4.72708 4.03595,-5.17905 l 15.25905,-5.25409 0.1136,-4.3772 -10.69121,3.68127 c -2.86713,0.98724 -3.85344,0.0308 -3.78163,-2.73602 0.0927,-3.57199 3.00954,-4.62646 3.98138,-4.96112 l 10.69121,-3.68127 0.0992,-3.82352 z m 18.28015,-14.02253 c -1.23842,-0.52057 -3.81035,-1.6297 -5.65472,-2.93872 -0.75769,-0.48697 -1.04216,-0.68845 -1.47873,-0.53812 -0.43753,0.15067 -0.73672,0.5531 -1.53455,1.57565 -1.64604,2.21194 -3.43268,4.22299 -5.91058,6.92099 z m 31.92533,-1.76843 c -0.0313,1.20703 -1.53674,7.95789 -4.21985,14.2666 -2.47931,5.78964 -3.80081,7.24179 -5.52704,7.83618 -2.2536,0.77597 -5.18307,0.0898 -5.10995,-2.72754 0.0261,-1.00613 0.27634,-1.49152 1.52484,-3.81586 3.00012,-5.7197 4.31656,-10.66049 4.95135,-13.12259 0.89453,-3.34955 2.09344,-3.76236 4.44351,-4.57153 0.0965,-0.0332 4.022,-1.13561 3.93714,2.13474 z m 2.77883,-19.15576 c 0.0457,-1.76068 0.53885,-4.27383 4.42316,-5.6113 2.82962,-0.97433 4.33606,-0.39609 4.25772,2.62222 l -0.0927,3.57199 11.99008,-4.12851 c 0.95914,-0.33026 4.17184,-1.43649 4.06476,2.68918 -0.10965,4.22586 -3.2746,5.31564 -4.28149,5.66235 l -11.99008,4.12851 -0.64368,24.80203 c -0.0483,1.86139 -0.58661,4.29028 -4.42313,5.6113 -2.87836,0.99109 -4.33478,0.34598 -4.25775,-2.62225 l 0.64365,-24.802 -12.03784,4.14496 c -0.95914,0.33026 -4.17279,1.4368 -4.0657,-2.68884 0.10965,-4.22586 3.27554,-5.31598 4.28244,-5.66269 l 12.03784,-4.14496 z m 19.26477,12.26321 c 0.78043,2.87262 2.02826,6.08282 4.09491,8.86115 1.10153,1.51514 1.33087,1.83542 1.30606,2.79092 -0.077,2.96823 -3.1882,5.63498 -5.29849,6.36163 -1.77402,0.61084 -3.04199,6.4e-4 -5.21634,-4.13696 -2.40012,-4.55841 -3.58008,-10.38461 -3.54742,-11.64224 0.0809,-3.11905 3.92661,-4.7923 4.11862,-4.85843 3.40473,-1.17233 3.63275,-0.80194 4.54266,2.62393 z m -2.29248,-21.54751 c -0.13379,-0.35266 -0.12466,-0.7049 -0.12073,-0.85571 0.0365,-1.40848 1.52954,-2.17181 2.05688,-2.35339 0.86359,-0.29736 1.37656,0.0742 1.9082,1.58646 0.13419,0.30289 0.97504,2.70578 0.93716,4.16437 -0.0483,1.86139 -1.77454,2.45578 -1.96655,2.52191 -1.05469,0.36313 -1.2814,-0.0573 -1.5451,-0.91351 -0.0864,-0.31937 -0.52286,-1.8147 -0.60928,-2.13354 -0.17242,-0.6885 -0.39519,-1.26031 -0.66058,-2.01659 z m 5.52155,-2.15048 c -0.13379,-0.35269 -0.12204,-0.80563 -0.11945,-0.90585 0.0353,-1.35834 1.53049,-2.17264 2.01007,-2.33774 0.91135,-0.31381 1.37656,0.0747 1.95633,1.52023 0.13382,0.35266 0.97467,2.75555 0.9368,4.21463 -0.0483,1.86139 -1.82324,2.47256 -1.96655,2.52191 -1.24762,0.42957 -1.33273,0.0601 -2.1553,-3.04724 -0.17374,-0.63837 -0.17243,-0.68848 -0.6619,-1.96594 z m 7.8559,23.72064 c -1.39633,0.4808 -4.83661,1.66537 -4.71909,-2.86261 0.11096,-4.27597 2.91281,-5.58981 4.95673,-6.29358 l 21.88568,-7.53586 c 1.39636,-0.4808 4.83664,-1.66537 4.71783,2.91272 -0.1123,4.32657 -3.06052,5.591 -4.95544,6.24347 z m 31.94665,-20.97229 c -1.24493,0.42868 -4.35776,1.50049 -4.25067,-2.62515 0.10574,-4.07455 3.07712,-5.19751 4.46609,-5.67575 l 9.5311,-3.28183 c 0.21292,-4.56085 0.22858,-5.16461 0.39221,-5.96878 0.32108,-1.40662 1.12497,-3.12946 4.04605,-4.13525 4.45407,-1.53366 4.38617,1.08234 4.33395,3.09454 -0.0261,1.0061 -0.0816,1.32468 -0.24756,4.07422 l 10.15311,-3.496 c 6.46506,-2.22607 6.50204,1.84946 6.39758,5.8739 -0.12402,4.77954 -0.82809,15.44257 -1.85437,20.23334 -1.62207,7.63867 -5.33493,9.86456 -10.88989,11.77728 -5.55591,1.91306 -8.80624,2.78296 -8.6835,-1.94647 0.0836,-3.21976 1.73547,-4.68585 3.7951,-5.39505 0.67062,-0.2309 3.6312,-0.90121 4.20547,-1.09897 3.0174,-1.03897 3.52634,-2.36081 3.99768,-5.9137 0.64633,-4.75974 1.02252,-11.96942 1.03952,-12.62329 0.0287,-1.10684 -0.0909,-1.96295 -1.33585,-1.5343 l -7.71091,2.65509 c -1.12421,8.56369 -4.33353,16.99817 -9.75803,24.84918 -0.54358,0.83521 -5.4245,7.85101 -8.72906,8.98886 -1.9165,0.65991 -4.06436,-0.69507 -3.99908,-3.21033 0.0483,-1.86142 1.41959,-3.48019 2.73834,-4.9314 3.6145,-3.93698 9.72171,-10.6272 11.36627,-22.8103 z M 403.289,277.03864 c -0.22195,8.55243 -0.45303,17.45712 -5.69855,26.54254 -2.57257,4.47604 -4.08261,5.09531 -4.95688,5.39636 -2.0419,0.70306 -4.9621,0.0133 -4.88245,-3.05518 0.0222,-0.85529 0.18832,-1.71048 1.59265,-3.8392 4.71768,-7.3082 5.08878,-10.47748 5.40082,-22.50122 l 0.26111,-10.0621 c 0.0496,-1.9115 0.68695,-4.17535 4.33215,-5.43048 2.67316,-0.92044 4.29974,-0.48291 4.22272,2.48483 z m 5.00098,-12.64115 c 0.0522,-2.01221 0.73441,-4.19171 4.28278,-5.41351 2.72253,-0.93744 4.30103,-0.53351 4.22272,2.48483 l -0.71027,27.36792 c -0.0157,0.60376 -0.0274,1.0567 0.41019,0.90604 0.34079,-0.11734 3.33411,-2.24496 6.03186,-7.81088 1.17084,-2.44754 1.64108,-3.85587 2.47989,-6.48801 0.52353,-1.57614 1.28915,-3.23611 3.52469,-4.00589 0.87521,-0.30136 4.75171,-1.18723 4.66293,2.23346 -0.0666,2.56586 -2.28354,8.16583 -4.30728,11.90372 -5.25726,9.53839 -13.20853,15.21793 -17.04834,16.54007 -4.56885,1.57318 -4.4696,-2.25034 -4.43961,-3.40726 z m 48.07718,-19.15835 c 1.29068,-3.18698 1.99414,-4.27686 4.08936,-4.99829 2.82593,-0.97305 4.54819,-0.36934 4.51163,1.03961 -0.0104,0.40236 -0.1127,0.6367 -0.31821,1.1067 l 11.25427,-3.87517 c 0.77927,-0.26833 3.21509,-1.10704 3.13806,1.86118 -0.0744,2.86752 -2.36633,3.7565 -3.29211,4.07527 l -12.42368,4.27782 -0.0405,1.55928 11.93649,-4.11006 c 0.82782,-0.28503 2.23816,-0.67085 2.18857,1.24066 -0.0483,1.8614 -1.46521,2.49924 -2.29303,2.78427 l -11.93649,4.11006 -0.0405,1.55928 11.8385,-4.07632 c 0.6337,-0.2182 2.33878,-0.8053 2.28784,1.15681 -0.0509,1.96211 -1.66025,2.5659 -2.39099,2.81752 l -11.8385,4.07632 -0.0431,1.66049 13.88516,-4.78107 c 0.92581,-0.31876 3.11676,-1.02351 3.04755,1.64307 -0.0679,2.616 -2.11716,3.42145 -3.18854,3.79034 l -15.00601,5.16699 -0.0444,1.71008 15.59024,-5.36813 c 1.55951,-0.53699 3.79245,-1.00641 3.71671,1.91119 -0.064,2.46518 -1.59488,3.79031 -3.88513,4.57889 l -9.54825,3.28775 c 4.27722,0.77075 5.19519,0.75409 10.27386,0.40125 2.46606,-0.15097 2.66919,1.32443 2.64307,2.33057 -0.0483,1.86139 -1.1915,4.99759 -3.72534,5.87006 -1.51001,0.51996 -4.88882,0.48663 -7.5343,0.10098 -4.7627,-0.7034 -6.24008,-1.4411 -7.7634,-2.26279 l -0.10443,4.02493 c -0.0718,2.76682 -1.224,4.36029 -4.09848,5.35004 -2.87445,0.98978 -3.96658,0.26889 -3.89218,-2.59863 l 0.10446,-4.02493 c -2.23535,2.41531 -4.96826,5.40024 -9.3027,8.68784 -1.625,1.20755 -4.72229,3.37097 -6.2818,3.90796 -2.24078,0.77155 -3.39862,-1.12344 -3.34378,-3.23639 0.0405,-1.55927 0.45966,-2.85068 3.35501,-4.64514 4.4653,-2.73425 5.74088,-3.52255 9.64581,-7.01086 l -9.40268,3.23761 c -2.58234,0.88916 -3.77414,0.30243 -3.71671,-1.91122 0.0509,-1.9621 0.96216,-3.57242 3.88513,-4.57889 l 15.44373,-5.31769 0.0444,-1.71011 -7.89264,2.71768 c -3.84882,1.32523 -6.05432,0.73843 -5.92767,-4.14178 l 0.0888,-3.42068 c -0.24619,0.18408 -0.64023,0.46973 -1.22443,0.6709 -2.24078,0.77155 -3.83075,-1.22394 -3.77722,-3.28674 0.0392,-1.50919 0.38895,-1.9787 3.43488,-5.86942 0.60086,-0.80524 2.90167,-3.89066 5.03973,-8.11726 1.01743,-1.99548 1.72705,-3.28709 3.87079,-4.02524 1.16937,-0.40265 5.00381,-1.17424 4.28656,2.26372 z m -0.39765,6.02032 -6.96683,2.39888 c -0.53571,0.18445 -0.78711,0.56996 -0.80017,1.07301 l -0.0196,0.75459 7.74612,-2.66721 z m -0.14493,5.58423 -7.74609,2.66718 -0.0405,1.5593 7.74609,-2.66721 z m -0.18667,7.19409 0.0431,-1.66049 -7.74612,2.66721 -0.0222,0.85529 c -0.0131,0.50305 0.27121,0.70462 0.75836,0.53687 z"
   id="path1477" />
</g>
<g
   id="Cloud"
   transform="scale(1.3333334)">
	<g
   id="Spectrum">
		<defs
   id="defs1481">
			<path
   id="SVGID_22_"
   d="M 426.57645,53.24636 C 422.99771,40.30025 415.86081,28.53452 405.8049,19.25838 392.34302,6.83976 374.83105,0 356.49539,0 339.05762,0 322.64746,6.07414 309.67843,17.02986 296.31024,6.95052 279.91669,1.36532 262.91025,1.36532 c -28.77754,0 -54.8259,15.86314 -68.23605,40.53691 -2.81407,-0.31034 -5.64328,-0.46649 -8.4754,-0.46649 -19.19104,0 -37.3027,6.96468 -51.36526,19.45502 -11.65253,-6.64213 -24.92752,-10.20864 -38.47528,-10.20864 -42.82399,0 -77.66396,34.83997 -77.66396,77.66346 0,15.42984 4.6166,30.38487 13.0232,43.02065 C 12.0019,185.72595 0,208.71675 0,234.02048 c 0,42.79227 34.78141,77.60736 77.53367,77.60736 14.4866,0 28.60674,-4.07059 40.79456,-11.62521 12.5899,8.52664 27.44588,13.12424 42.88303,13.12424 33.32191,0 62.18532,-21.45081 72.54573,-51.90936 2.82822,0.31522 5.67792,0.47333 8.53835,0.47333 13.83614,0 27.3683,-3.74072 39.1555,-10.69612 13.40625,10.12715 29.92276,15.76897 46.86966,15.76897 34.25589,0 63.8605,-22.60432 73.93301,-53.98514 5.52078,1.18088 11.17432,1.77521 16.92542,1.77521 44.56454,0 80.82108,-36.25652 80.82108,-80.82155 C 500,91.66113 467.68622,56.99488 426.57645,53.24636 Z" />
		</defs>
		<clipPath
   id="SVGID_2_">
			<use
   xlink:href="#SVGID_22_"
   style="overflow:visible"
   id="use1483" />
		</clipPath>
		<radialGradient
   id="SVGID_3_"
   cx="74.303787"
   cy="147.83212"
   r="223.15968"
   gradientUnits="userSpaceOnUse">
			<stop
   offset="0"
   style="stop-color:#B001FC"
   id="stop1486" />
			<stop
   offset="0.45894"
   style="stop-color:#B001FC"
   id="stop1488" />
			<stop
   offset="0.53448"
   style="stop-color:#B001FC"
   id="stop1490" />
			<stop
   offset="0.85"
   style="stop-color:#B001FC;stop-opacity:0"
   id="stop1492" />
		</radialGradient>
		<polygon
   class="st2"
   points="-155.01694,-290.65662 479.19122,-134.75722 301.93771,586.32086 -332.27048,430.42145 "
   clip-path="url(#SVGID_2_)"
   id="polygon1495"
   style="fill:url(#SVGID_3_)" />
		
			<radialGradient
   id="SVGID_4_"
   cx="1581.53"
   cy="-677.56134"
   r="192.91687"
   gradientTransform="matrix(0.04759,0.99016,-0.49508,0.0238,-286.25089,-1546.2251)"
   gradientUnits="userSpaceOnUse">
			<stop
   offset="0"
   style="stop-color:#011EFE"
   id="stop1497" />
			<stop
   offset="0.45894"
   style="stop-color:#011EFE"
   id="stop1499" />
			<stop
   offset="0.53448"
   style="stop-color:#011EFE"
   id="stop1501" />
			<stop
   offset="0.85"
   style="stop-color:#011EFE;stop-opacity:0"
   id="stop1503" />
		</radialGradient>
		<polygon
   class="st3"
   points="-276.37448,-326.98636 357.83368,-171.08698 180.58017,549.99109 -453.62802,394.09171 "
   clip-path="url(#SVGID_2_)"
   id="polygon1506"
   style="fill:url(#SVGID_4_)" />
		
			<radialGradient
   id="SVGID_5_"
   cx="1168.2721"
   cy="-708.48944"
   r="192.91687"
   gradientTransform="matrix(-0.36873,0.92017,-0.46008,-0.18437,306.44131,-1193.2709)"
   gradientUnits="userSpaceOnUse">
			<stop
   offset="0"
   style="stop-color:#03B3F4"
   id="stop1508" />
			<stop
   offset="0.45894"
   style="stop-color:#03B3F4"
   id="stop1510" />
			<stop
   offset="0.53448"
   style="stop-color:#03B3F4"
   id="stop1512" />
			<stop
   offset="0.85"
   style="stop-color:#03B3F4;stop-opacity:0"
   id="stop1514" />
		</radialGradient>
		<polygon
   class="st4"
   points="-25.29973,-455.05283 486.52484,-49.39255 25.29973,532.53857 -486.52484,126.8783 "
   clip-path="url(#SVGID_2_)"
   id="polygon1517"
   style="fill:url(#SVGID_5_)" />
		
			<radialGradient
   id="SVGID_6_"
   cx="982.51001"
   cy="-634.25238"
   r="192.91687"
   gradientTransform="matrix(-0.36873,0.92017,-0.46008,-0.18437,215.39238,-818.62634)"
   gradientUnits="userSpaceOnUse">
			<stop
   offset="0"
   style="stop-color:#03B3F4"
   id="stop1519" />
			<stop
   offset="0.45894"
   style="stop-color:#03B3F4"
   id="stop1521" />
			<stop
   offset="0.53448"
   style="stop-color:#03B3F4"
   id="stop1523" />
			<stop
   offset="0.85"
   style="stop-color:#03B3F4;stop-opacity:0"
   id="stop1525" />
		</radialGradient>
		<polygon
   class="st5"
   points="-82.00703,-265.0275 429.81754,140.63277 -31.40756,722.5639 -543.23212,316.90363 "
   clip-path="url(#SVGID_2_)"
   id="polygon1528"
   style="fill:url(#SVGID_6_)" />
		
			<radialGradient
   id="SVGID_7_"
   cx="1053.2289"
   cy="-570.43542"
   r="192.91687"
   gradientTransform="matrix(-0.36873,0.92017,-0.46008,-0.18437,363.95224,-887.57935)"
   gradientUnits="userSpaceOnUse">
			<stop
   offset="0"
   style="stop-color:#2BE606"
   id="stop1530" />
			<stop
   offset="0.45894"
   style="stop-color:#2BE606"
   id="stop1532" />
			<stop
   offset="0.53448"
   style="stop-color:#2BE606"
   id="stop1534" />
			<stop
   offset="0.85"
   style="stop-color:#2BE606;stop-opacity:0"
   id="stop1536" />
		</radialGradient>
		<polygon
   class="st6"
   points="11.11522,-280.67307 522.93976,124.98719 61.71469,706.91833 -450.10986,301.25806 "
   clip-path="url(#SVGID_2_)"
   id="polygon1539"
   style="fill:url(#SVGID_7_)" />
		
			<radialGradient
   id="SVGID_8_"
   cx="2202.9841"
   cy="61.059422"
   r="192.91687"
   gradientTransform="matrix(0.5365,0.83357,-0.41678,0.26825,-881.67969,-1829.5166)"
   gradientUnits="userSpaceOnUse">
			<stop
   offset="0"
   style="stop-color:#2BE606"
   id="stop1541" />
			<stop
   offset="0.45894"
   style="stop-color:#2BE606"
   id="stop1543" />
			<stop
   offset="0.53448"
   style="stop-color:#2BE606"
   id="stop1545" />
			<stop
   offset="0.85"
   style="stop-color:#2BE606;stop-opacity:0"
   id="stop1547" />
		</radialGradient>
		<polygon
   class="st7"
   points="-237.67494,-62.55771 389.46918,-244.80717 596.68207,468.23926 -30.46208,650.48871 "
   clip-path="url(#SVGID_2_)"
   id="polygon1550"
   style="fill:url(#SVGID_8_)" />
		
			<radialGradient
   id="SVGID_9_"
   cx="1942.6915"
   cy="23.324841"
   r="192.91687"
   gradientTransform="matrix(0.56432,0.82549,-0.46355,0.28184,-805.93701,-1319.7195)"
   gradientUnits="userSpaceOnUse">
			<stop
   offset="0"
   style="stop-color:#F8FD00"
   id="stop1552" />
			<stop
   offset="0.45894"
   style="stop-color:#F8FD00"
   id="stop1554" />
			<stop
   offset="0.53448"
   style="stop-color:#F8FD00"
   id="stop1556" />
			<stop
   offset="0.85"
   style="stop-color:#F8FD00;stop-opacity:0"
   id="stop1558" />
		</radialGradient>
		<polygon
   class="st8"
   points="-278.99139,218.15115 412.43625,17.22075 619.64911,730.26721 -71.77853,931.19757 "
   clip-path="url(#SVGID_2_)"
   id="polygon1561"
   style="fill:url(#SVGID_9_)" />
		
			<radialGradient
   id="SVGID_10_"
   cx="1109.0955"
   cy="-66.054329"
   r="126.35968"
   gradientTransform="matrix(-0.28273,0.95013,-0.47506,-0.14136,616.27454,-930.55444)"
   gradientUnits="userSpaceOnUse">
			<stop
   offset="0"
   style="stop-color:#A4F402"
   id="stop1563" />
			<stop
   offset="0.45894"
   style="stop-color:#A4F402"
   id="stop1565" />
			<stop
   offset="0.53448"
   style="stop-color:#A4F402"
   id="stop1567" />
			<stop
   offset="0.85"
   style="stop-color:#A4F402;stop-opacity:0"
   id="stop1569" />
		</radialGradient>
		<polygon
   class="st9"
   points="157.97832,-158.65515 516.19208,75.16132 250.34888,482.44095 -107.86488,248.62448 "
   clip-path="url(#SVGID_2_)"
   id="polygon1572"
   style="fill:url(#SVGID_10_)" />
		
			<radialGradient
   id="SVGID_11_"
   cx="1288.5435"
   cy="-483.51025"
   r="192.91687"
   gradientTransform="matrix(-0.28273,0.95013,-0.47506,-0.14136,510.94455,-1085.0476)"
   gradientUnits="userSpaceOnUse">
			<stop
   offset="0"
   style="stop-color:#F8FD00"
   id="stop1574" />
			<stop
   offset="0.45894"
   style="stop-color:#F8FD00"
   id="stop1576" />
			<stop
   offset="0.53448"
   style="stop-color:#F8FD00"
   id="stop1578" />
			<stop
   offset="0.85"
   style="stop-color:#F8FD00;stop-opacity:0"
   id="stop1580" />
		</radialGradient>
		<polygon
   class="st10"
   points="107.47222,-237.02992 654.36719,119.94423 248.49692,741.74945 -298.39804,384.7753 "
   clip-path="url(#SVGID_2_)"
   id="polygon1583"
   style="fill:url(#SVGID_11_)" />
		
			<radialGradient
   id="SVGID_12_"
   cx="1424.1293"
   cy="-528.09448"
   r="192.91687"
   gradientTransform="matrix(-0.28273,0.95013,-0.47506,-0.14136,564.55383,-1356.8827)"
   gradientUnits="userSpaceOnUse">
			<stop
   offset="0"
   style="stop-color:#F8FD00"
   id="stop1585" />
			<stop
   offset="0.45894"
   style="stop-color:#F8FD00"
   id="stop1587" />
			<stop
   offset="0.53448"
   style="stop-color:#F8FD00"
   id="stop1589" />
			<stop
   offset="0.85"
   style="stop-color:#F8FD00;stop-opacity:0"
   id="stop1591" />
		</radialGradient>
		<polygon
   class="st11"
   points="143.92792,-373.73877 690.82288,-16.76464 284.95261,605.04059 -261.94232,248.06645 "
   clip-path="url(#SVGID_2_)"
   id="polygon1594"
   style="fill:url(#SVGID_12_)" />
		
			<radialGradient
   id="SVGID_13_"
   cx="1985.9095"
   cy="1671.1544"
   r="118.7943"
   gradientTransform="matrix(0.87176,-0.47192,0.23596,0.43588,-1767.1421,219.64542)"
   gradientUnits="userSpaceOnUse">
			<stop
   offset="0"
   style="stop-color:#F8FD00"
   id="stop1596" />
			<stop
   offset="0.45894"
   style="stop-color:#F8FD00"
   id="stop1598" />
			<stop
   offset="0.53448"
   style="stop-color:#F8FD00"
   id="stop1600" />
			<stop
   offset="0.85"
   style="stop-color:#F8FD00;stop-opacity:0"
   id="stop1602" />
		</radialGradient>
		<polygon
   class="st12"
   points="281.89484,321.53613 199.19913,-72.02838 646.67163,-166.05122 729.36737,227.51328 "
   clip-path="url(#SVGID_2_)"
   id="polygon1605"
   style="fill:url(#SVGID_13_)" />
		
			<radialGradient
   id="SVGID_14_"
   cx="1379.5985"
   cy="-39.168079"
   r="139.93042"
   gradientTransform="matrix(0.14319,0.9809,-0.49045,0.0716,-34.21331,-1016.8146)"
   gradientUnits="userSpaceOnUse">
			<stop
   offset="0"
   style="stop-color:#A4F402"
   id="stop1607" />
			<stop
   offset="0.45894"
   style="stop-color:#A4F402"
   id="stop1609" />
			<stop
   offset="0.53448"
   style="stop-color:#A4F402"
   id="stop1611" />
			<stop
   offset="0.85"
   style="stop-color:#A4F402;stop-opacity:0"
   id="stop1613" />
		</radialGradient>
		<polygon
   class="st13"
   points="-130.04109,123.09841 338.76004,191.12904 261.41101,724.14368 -207.39014,656.11304 "
   clip-path="url(#SVGID_2_)"
   id="polygon1616"
   style="fill:url(#SVGID_14_)" />
		
			<radialGradient
   id="SVGID_15_"
   cx="119.98808"
   cy="-463.8092"
   r="198.09557"
   gradientTransform="matrix(-0.87176,0.47192,-0.23596,-0.43588,-17.76186,34.26686)"
   gradientUnits="userSpaceOnUse">
			<stop
   offset="0"
   style="stop-color:#03B3F4"
   id="stop1618" />
			<stop
   offset="0.45894"
   style="stop-color:#03B3F4"
   id="stop1620" />
			<stop
   offset="0.53448"
   style="stop-color:#03B3F4"
   id="stop1622" />
			<stop
   offset="0.85"
   style="stop-color:#03B3F4;stop-opacity:0"
   id="stop1624" />
		</radialGradient>
		<polygon
   class="st14"
   points="114.68695,-224.98891 252.58626,431.30002 -493.59708,588.08795 -631.4964,-68.20101 "
   clip-path="url(#SVGID_2_)"
   id="polygon1627"
   style="fill:url(#SVGID_15_)" />
		
			<radialGradient
   id="SVGID_16_"
   cx="73.380089"
   cy="-453.34882"
   r="128.22812"
   gradientTransform="matrix(-0.95462,0.26716,-0.13358,-0.47731,20.05981,-50.75763)"
   gradientUnits="userSpaceOnUse">
			<stop
   offset="0"
   style="stop-color:#011EFE"
   id="stop1629" />
			<stop
   offset="0.45894"
   style="stop-color:#011EFE"
   id="stop1631" />
			<stop
   offset="0.53448"
   style="stop-color:#011EFE"
   id="stop1633" />
			<stop
   offset="0.85"
   style="stop-color:#011EFE;stop-opacity:0"
   id="stop1635" />
		</radialGradient>
		<polygon
   class="st15"
   points="165.37665,-123.48125 158.34824,310.55719 -335.14212,302.56607 -328.11371,-131.47237 "
   clip-path="url(#SVGID_2_)"
   id="polygon1638"
   style="fill:url(#SVGID_16_)" />
		
			<radialGradient
   id="SVGID_17_"
   cx="740.10919"
   cy="-582.61426"
   r="192.91687"
   gradientTransform="matrix(-0.42948,0.89343,-0.44672,-0.21474,134.72649,-422.00815)"
   gradientUnits="userSpaceOnUse">
			<stop
   offset="0"
   style="stop-color:#2BE606"
   id="stop1640" />
			<stop
   offset="0.45894"
   style="stop-color:#2BE606"
   id="stop1642" />
			<stop
   offset="0.53448"
   style="stop-color:#2BE606"
   id="stop1644" />
			<stop
   offset="0.85"
   style="stop-color:#2BE606;stop-opacity:0"
   id="stop1646" />
		</radialGradient>
		<polygon
   class="st16"
   points="-118.01221,-117.2086 365.5192,321.79254 -133.61359,871.55511 -617.14502,432.55396 "
   clip-path="url(#SVGID_2_)"
   id="polygon1649"
   style="fill:url(#SVGID_17_)" />
		
			<radialGradient
   id="SVGID_18_"
   cx="1053.354"
   cy="-292.18399"
   r="126.35968"
   gradientTransform="matrix(-0.47206,0.87168,-0.43584,-0.23603,705.41418,-1003.2461)"
   gradientUnits="userSpaceOnUse">
			<stop
   offset="0"
   style="stop-color:#A4F402"
   id="stop1651" />
			<stop
   offset="0.45894"
   style="stop-color:#A4F402"
   id="stop1653" />
			<stop
   offset="0.53448"
   style="stop-color:#A4F402"
   id="stop1655" />
			<stop
   offset="0.85"
   style="stop-color:#A4F402;stop-opacity:0"
   id="stop1657" />
		</radialGradient>
		<polygon
   class="st17"
   points="223.05667,-337.29727 525.53577,-34.81815 181.62495,309.09268 -120.85416,6.61356 "
   clip-path="url(#SVGID_2_)"
   id="polygon1660"
   style="fill:url(#SVGID_18_)" />
		
			<radialGradient
   id="SVGID_19_"
   cx="1262.422"
   cy="-431.50333"
   r="192.91687"
   gradientTransform="matrix(-0.28273,0.95013,-0.47506,-0.14136,557.28394,-1003.0142)"
   gradientUnits="userSpaceOnUse">
			<stop
   offset="0"
   style="stop-color:#FC6510"
   id="stop1662" />
			<stop
   offset="0.45894"
   style="stop-color:#FC6510"
   id="stop1664" />
			<stop
   offset="0.53448"
   style="stop-color:#FC6510"
   id="stop1666" />
			<stop
   offset="0.85"
   style="stop-color:#FC6510;stop-opacity:0"
   id="stop1668" />
		</radialGradient>
		<polygon
   class="st18"
   points="136.49025,-187.16696 683.38519,169.80719 277.51495,791.61243 -269.38,434.63828 "
   clip-path="url(#SVGID_2_)"
   id="polygon1671"
   style="fill:url(#SVGID_19_)" />
		
			<radialGradient
   id="SVGID_20_"
   cx="862.87213"
   cy="-327.56143"
   r="192.91687"
   gradientTransform="matrix(-0.77477,0.61838,-0.30919,-0.38739,1067.5532,-602.45978)"
   gradientUnits="userSpaceOnUse">
			<stop
   offset="0"
   style="stop-color:#FC6510"
   id="stop1673" />
			<stop
   offset="0.45894"
   style="stop-color:#FC6510"
   id="stop1675" />
			<stop
   offset="0.53448"
   style="stop-color:#FC6510"
   id="stop1677" />
			<stop
   offset="0.85"
   style="stop-color:#FC6510;stop-opacity:0"
   id="stop1679" />
		</radialGradient>
		<polygon
   class="st19"
   points="533.57483,-460.49664 778.57257,144.89641 90.25652,423.45239 -154.7412,-181.94066 "
   clip-path="url(#SVGID_2_)"
   id="polygon1682"
   style="fill:url(#SVGID_20_)" />
		
			<radialGradient
   id="SVGID_21_"
   cx="1406.5499"
   cy="-413.63519"
   r="108.07879"
   gradientTransform="matrix(-0.28273,0.95013,-0.47506,-0.14136,699.44781,-1247.3884)"
   gradientUnits="userSpaceOnUse">
			<stop
   offset="0"
   style="stop-color:#FD1E18"
   id="stop1684" />
			<stop
   offset="0.45894"
   style="stop-color:#FD1E18"
   id="stop1686" />
			<stop
   offset="0.53448"
   style="stop-color:#FD1E18"
   id="stop1688" />
			<stop
   offset="0.85"
   style="stop-color:#FD1E18;stop-opacity:0"
   id="stop1690" />
		</radialGradient>
		<polygon
   class="st20"
   points="347.65335,-101.60303 654.04309,98.38639 426.66034,446.74347 120.27063,246.75404 "
   clip-path="url(#SVGID_2_)"
   id="polygon1693"
   style="fill:url(#SVGID_21_)" />
	</g>
	<path
   id="White_00000033342475367506083130000000211143647739114166_"
   class="st1"
   d="M 419.78107,61.33627 C 417.33933,47.60406 410.47565,35.02685 400.09378,25.44963 388.19241,14.47001 372.7084,8.42319 356.49539,8.42319 c -17.80179,0 -34.38956,7.15693 -46.48517,19.85418 C 297.26077,16.45406 280.4505,9.78851 262.91025,9.78851 c -27.63718,0 -52.45148,16.41063 -63.3989,41.3684 -4.39018,-0.86271 -8.84772,-1.29798 -13.31256,-1.29798 -19.21446,0 -37.21585,7.83471 -50.25369,21.68599 -11.56176,-8.05722 -25.40669,-12.4396 -39.58685,-12.4396 -38.17957,0 -69.24076,31.06119 -69.24076,69.24026 0,16.66438 6.04047,32.70807 16.81271,45.20818 -21.82896,12.09169 -35.50701,34.96098 -35.50701,60.46672 0,38.14883 31.00264,69.18417 69.11047,69.18417 14.79792,0 29.16497,-4.76447 41.00487,-13.51166 12.08437,9.7153 27.0438,15.01065 42.67272,15.01065 32.08493,0 59.52448,-22.33887 66.495,-53.00237 4.78496,1.04131 9.66847,1.56636 14.58908,1.56636 14.27531,0 28.18611,-4.46973 39.73909,-12.68213 12.71725,11.48857 28.9527,17.75497 46.28607,17.75497 33.31314,0 61.69202,-23.9794 67.91547,-55.92917 7.36627,2.47104 15.05264,3.71924 22.94296,3.71924 39.92014,0 72.39789,-32.47774 72.39789,-72.39836 0,-39.72103 -32.14984,-72.07288 -71.79574,-72.39591 z" />
	<path
   id="Black_00000159455080428635256210000015324742693617259696_"
   d="m 419.17868,67.483 c -1.60342,0 -3.18784,0.07716 -4.76273,0.18915 C 411.8938,37.93053 386.9342,14.5723 356.49564,14.5723 c -18.83261,0 -35.56482,8.94745 -46.19104,22.80897 -11.5592,-13.13897 -28.50037,-21.44341 -47.39441,-21.44341 -27.63174,0 -51.09665,17.74539 -59.62451,42.43649 -5.43576,-1.53 -11.16212,-2.36625 -17.08713,-2.36625 -20.02582,0 -37.85417,9.361 -49.38536,23.93335 -10.95303,-9.16416 -25.05701,-14.68697 -40.45512,-14.68697 -34.84436,0 -63.09129,28.24699 -63.09129,63.09135 0,18.71156 8.15286,35.51244 21.09159,47.06639 -23.2998,9.2437 -39.78606,31.99069 -39.78606,58.60777 0,34.81369 28.1888,63.03568 62.96143,63.03568 15.74548,0 30.129,-5.80011 41.1687,-15.36505 11.10764,10.44968 26.05483,16.86404 42.50871,16.86404 31.73201,0 57.88419,-23.8186 61.59727,-54.54915 6.13214,2.0101 12.67839,3.11296 19.48692,3.11296 15.33083,0 29.35826,-5.52452 40.20729,-14.66849 11.49442,12.14883 27.76379,19.74139 45.81812,19.74139 33.28021,0 60.51871,-25.76334 62.86871,-58.41211 8.50421,3.97092 17.98431,6.20175 27.98923,6.20175 36.58835,0 66.24908,-29.66074 66.24908,-66.24901 -1e-5,-36.58832 -29.66074,-66.249 -66.24909,-66.249 z" />
</g>
<g
   id="みんなのリズム天国_00000166658448422767501640000006262920370070636427_"
   transform="scale(1.3333334)">
	<path
   id="国_00000133494443838726646270000010576822202758522293_"
   class="st21"
   d="m 434.55307,152.11429 -26.41989,8.07733 v -4.85263 l 4.66412,-1.42592 c 1.905,-0.58247 3.03381,-2.10097 3.03387,-4.61369 v -8.8326 l -7.698,2.35356 v -5.24348 l 7.698,-2.35355 v -9.04444 c 0,-1.04957 -0.63181,-2.46264 -3.53897,-1.57387 l -4.15903,1.27154 6e-5,-4.88493 26.41983,-8.07732 v 4.88493 l -4.61252,1.41013 c -1.97098,0.60264 -3.08539,2.07185 -3.08545,4.61864 v 8.02497 l 7.69797,-2.35349 v 5.24327 l -7.69797,2.35368 v 9.85207 c 0,1.55089 1.19122,2.30244 3.59048,1.56897 l 4.10748,-1.25586 v 4.85269 z m -6e-5,-8.13313 v -5.95775 l -4.22198,1.29079 v 5.95769 z M 456.5202,94.99057 v 62.27065 l -70.3541,21.50937 v -62.27065 z m -14.99389,12.69323 -37.18274,11.36796 c -1.99933,0.60466 -3.19095,2.35695 -3.19061,4.65031 v 42.39736 l 37.1828,-11.36797 c 1.84943,-0.55446 3.19055,-2.19472 3.19055,-4.6503 z" />
	<path
   id="く_00000168833893859856057620000002673583114839367303_"
   class="st21"
   d="m 436.70538,94.97956 c -2.03122,-1.20026 -3.02835,-1.53265 -5.70587,-2.45592 -0.55399,-0.20312 -1.23721,-0.57243 -1.23721,-1.23721 0,-0.64629 0.66476,-1.53265 1.4588,-2.49286 3.13916,-3.78546 3.19458,-3.89625 3.9332,-4.93034 l 1.27414,0.5909 c -1.73578,2.19742 -2.04968,2.5298 -4.67181,5.52123 -0.25854,0.27699 -0.42474,0.53551 -0.42474,0.75709 0,0.33238 0.55399,0.49858 0.88638,0.5909 1.6619,0.4801 4.50562,1.53265 5.63202,2.23434 z" />
	<path
   id="ご_00000013884291173660531400000008945276148562044848_"
   class="st21"
   d="m 411.81369,96.05057 c -0.40625,-0.68323 -0.6463,-1.01561 -1.1264,-1.51418 l 0.83096,-0.77556 c 0.4801,0.44318 0.86786,1.01561 1.12637,1.49571 z m 1.68036,-1.44032 c -0.51706,-0.92329 -0.86786,-1.31106 -1.05252,-1.51419 l 0.77554,-0.73862 c 0.51703,0.53551 0.88635,1.14487 1.08948,1.47726 z m -2.21588,-2.60367 v 1.27414 c -1.4957,0.73862 -2.56671,1.60651 -3.93317,2.9545 l -0.84943,-0.66476 c 0.38779,-0.40624 0.46164,-0.4801 1.23721,-1.10794 l -0.0185,-0.01846 c -1.60654,0.51704 -3.24997,1.03407 -4.21017,1.38492 V 94.3702 c 0.35086,-0.09233 1.82809,-0.53551 2.43747,-0.72017 z m -5.909,6.64764 c -1.01559,1.36646 -1.05255,2.34514 -1.05255,2.58519 0,1.68037 2.28976,1.01561 4.06247,0.4801 1.16333,-0.35085 2.34512,-0.75709 3.48999,-1.29259 l 0.0369,1.44032 c -0.40622,0.20312 -1.23718,0.55396 -3.08374,1.1264 -2.34515,0.70169 -3.36075,0.90482 -4.37637,0.68324 -0.83096,-0.18466 -1.4588,-0.97868 -1.4588,-1.99429 0,-1.20026 0.53552,-2.16048 1.40338,-3.50847 z" />
	<path
   id="天"
   class="st22"
   d="m 342.58279,188.04271 v -6.9447 l 26.13672,-7.9908 -6e-5,-10.87657 -26.13666,7.99081 v -9.73909 l 26.13666,-7.9908 v -10.84979 l -70.59592,21.58337 v 10.84978 l 25.71082,-7.86057 v 9.73907 l -25.71082,7.86058 v 10.87656 l 25.71082,-7.86058 -6e-5,4.0218 c 6e-5,12.87982 -6.93646,18.09009 -17.47098,21.31839 l -8.23978,2.51913 v 10.90065 l 17.94498,-5.48631 c 13.78305,-4.20728 18.64203,-9.09189 24.10458,-22.13042 2.99725,1.19141 11.13965,6.55936 14.44186,10.3456 l 18.55957,-5.67429 c -5.55315,-6.1273 -25.29888,-13.56489 -30.59173,-14.60182 z" />
	<path
   id="ん_00000174591435929779619380000006293089445353163689_"
   class="st22"
   d="m 345.91946,131.73758 c -0.25861,0.86818 -1.36691,4.54408 -1.5701,5.30144 l 0.0185,0.0185 c 0.24014,-0.27707 0.70193,-0.77582 1.51468,-1.03442 1.88416,-0.55415 1.95804,1.32999 1.95804,2.36441 v 0.55415 c 0,0.38791 0,1.55164 1.01593,1.25609 1.14526,-0.33249 1.62555,-2.12427 1.8472,-4.48866 l 1.2561,0.0369 c -0.31403,2.93703 -0.97903,5.26448 -3.21411,5.92947 -2.21664,0.66498 -2.23511,-1.57011 -2.23511,-2.29053 v -0.44333 c 0,-0.83124 0.0185,-1.68094 -0.88666,-1.40385 -1.18219,0.35097 -1.90259,1.75482 -2.32745,3.14021 -0.11081,0.48027 -0.5726,2.53065 -0.68344,2.95551 l -1.36694,-0.0185 c 0.70193,-2.45676 2.38287,-8.7372 3.17719,-11.71118 z" />
	<path
   id="て_00000072263634340734498510000017431420674937242021_"
   class="st22"
   d="m 325.67429,138.11038 v 1.45929 c -0.31403,0.0554 -0.60959,0.11082 -1.20068,0.29555 -2.01343,0.59109 -5.28296,3.93449 -5.30142,6.52057 -0.0185,1.45927 1.21915,1.55164 2.05038,1.53316 0.73886,-0.0185 1.81024,-0.18472 3.28796,-0.62805 l -0.18469,1.60706 c -1.20068,0.31403 -2.58609,0.60957 -3.74982,0.55417 -1.29303,-0.037 -2.78925,-0.59111 -2.78925,-2.5676 0.0185,-1.07138 0.46182,-3.34341 3.32495,-5.98489 l -0.0185,-0.0185 c -2.62302,0.86818 -2.93704,0.96054 -5.6524,1.9026 V 141.306 c 0.48029,-0.1293 3.87909,-1.20067 5.28296,-1.644 z" />
	<path
   id="ム_00000110450195062413549250000002490538445257389753_"
   class="st21"
   d="m 280.21643,190.83522 -2.74051,0.83789 c -1.79343,0.55336 -3.76736,0.0198 -5.12976,-1.99298 l -6.2522,-9.23811 -18.16985,5.55504 8.22627,12.19592 -22.41063,6.85167 13.56371,-44.3647 c 0.59265,-1.93877 1.64717,-3.15398 3.09196,-3.60669 l 4.55971,-1.394 v -7.379 l -22.3808,6.84251 -16.10501,52.67729 c -0.62384,2.04033 -1.83015,3.06427 -3.11407,3.4567 l -2.77463,0.84833 v 10.66676 l 75.60065,-23.11345 z" />
	<path
   id="ズ"
   class="st22"
   d="m 187.60606,188.60777 c -0.75607,-2.54347 0.63367,-5.24284 3.22693,-6.04897 2.54323,-0.80605 5.29272,0.63348 6.04897,3.22684 0.806,2.54332 -0.63373,5.24283 -3.22693,6.04897 -2.54338,0.75615 -5.2428,-0.63364 -6.04897,-3.22684 z m -5.32161,6.7033 c 2.59322,-0.80614 3.983,-3.50551 3.22693,-6.04897 -0.80603,-2.54333 -3.50554,-3.983 -6.04901,-3.22694 -2.59334,0.75621 -3.98294,3.50555 -3.22688,6.04901 0.806,2.54324 3.50555,3.98295 6.04896,3.2269 z m -4.72287,40.944 c 6.9064,-10.95123 7.88472,-17.84222 8.86098,-25.43207 0.34148,-2.74622 1.64793,-4.1656 3.12631,-4.61757 l 2.74779,-0.8401 v -10.24138 l -64.31214,19.66216 -5e-5,10.84918 40.27657,-12.3138 c -0.92776,14.31276 -6.06465,33.46904 -28.61188,40.36244 l -11.6647,3.56625 v 10.71222 l 11.92324,-3.64618 c 15.433,-4.71747 22.88387,-9.2506 31.98575,-20.45773 2.34918,1.1412 5.4548,3.9366 7.21498,8.47369 l 18.15083,-5.54926 c -2.55472,-3.13721 -13.40603,-9.69755 -19.69768,-10.52785 z" />
	<path
   id="リ_00000060734512281596323200000005190367318891855794_"
   class="st21"
   d="m 113.14416,191.31239 v 7.96777 l -1.9524,0.59695 c -2.25116,0.68823 -3.01829,2.2856 -3.01823,4.53966 v 32.60883 c 0,10.67091 -5.7316,18.85847 -14.71785,21.57425 L 49.06587,272.17132 V 261.4519 l 31.7435,-9.705 c 6.0979,-1.87283 8.95205,-7.1718 8.95205,-14.37607 v -28.30104 c 0,-1.49715 -1.16777,-2.28377 -3.56531,-1.55078 l -1.59226,0.48682 v -7.96777 z m -44.2772,44.17273 -1.51823,0.46411 c -2.39397,0.73201 -3.56734,-0.0633 -3.56734,-1.56914 v -16.37964 c 0,-2.20093 0.79974,-3.87306 3.0263,-4.55379 l 2.05928,-0.62961 v -7.96777 l -25.07756,7.66698 v 7.96735 l 1.52292,-0.4651 c 2.40105,-0.7341 3.56272,0.0581 3.56272,1.55466 v 16.37946 c 0,2.22176 -0.80103,3.88951 -3.02168,4.56839 l -2.06397,0.63103 v 7.95193 l 25.07756,-7.66699 z" />
	<path
   id="の_00000004534993782874105430000000625821730668648846_"
   class="st21"
   d="m 374.87949,37.93362 -49.18182,15.0364 c -4.88928,1.49468 -7.73703,7.78548 -7.73703,15.52788 v 34.49563 l 15.45001,8.07807 18.54019,-5.66832 c 4.99118,-1.52594 7.81418,-7.72601 7.83795,-15.22803 l 3e-5,-36.93064 8.43079,-2.57755 c 2.38754,-0.72995 3.6745,0.07851 3.67969,1.5789 v 27.88671 c -3e-5,8.94666 -0.72662,11.13441 -6.23105,12.81728 l -3e-5,7.55996 c 6.19058,-0.66916 12.07498,-3.23785 14.46695,-4.74564 3.38867,-2.16088 6.53271,-7.95299 6.53113,-17.62458 V 44.11983 Z m -29.98676,55.3255 c 0,2.64591 -0.55627,3.91144 -2.05872,4.37006 l -10.05179,3.07314 3e-5,-35.50081 c -3e-5,-2.78025 1.54285,-4.17189 2.9805,-4.61032 l 9.12997,-2.79241 v 35.46034 z" />
	<path
   id="な_00000024001973342302690540000015165697830773702276_"
   class="st22"
   d="m 245.32704,71.2991 v 36.75365 l -18.1053,5.53535 v -6.61082 l 1.53197,-0.46838 c 2.21442,-0.67701 2.90921,-2.3457 2.90921,-4.54142 V 75.47665 l -11.68843,3.57351 V 68.47009 l 11.68843,-3.57351 v -9.37912 l 13.66412,-4.17754 v 9.37911 l 20.07228,-6.13671 V 65.1624 Z m 41.37825,7.27928 12.51752,-3.82699 v 10.76233 l -12.51752,3.82699 v 14.76996 c 0,7.01147 -2.81781,11.77219 -6.54962,12.91374 l -20.19629,6.17462 -8.86668,-4.66029 1.5e-4,-17.97725 c -1.5e-4,-6.76363 2.60063,-11.89039 6.64482,-13.12682 l 15.53949,-4.7509 V 62.72311 l 21.79865,-6.66452 v 10.45197 l -5.45126,1.66665 c -2.1951,0.67108 -2.91925,2.25275 -2.91922,4.517 z m -13.42807,14.86771 -6.62186,2.02452 c -1.25583,0.38392 -2.98383,1.59991 -2.98386,4.05398 l -3e-5,11.76926 6.52161,-1.99386 c 1.85565,-0.56737 3.08405,-2.04629 3.08408,-4.30001 z" />
	<path
   id="ん_00000127735088838196074080000011849244187194823333_"
   class="st21"
   d="m 211.27431,129.37527 -5e-5,2.61772 c 5e-5,2.23514 -0.85646,3.85307 -3.09286,4.53685 l -8.68697,2.65584 3e-5,-23.82561 -23.56613,7.2049 6.87271,-22.46985 c 0.74248,-2.25273 1.80659,-3.20024 3.0024,-3.56583 l 4.78328,-1.46239 -2e-5,-6.96939 -21.90999,6.69855 -17.70341,58.41505 c -0.89201,2.40324 -1.89554,3.18593 -2.9864,3.51939 l -3.01347,0.92131 v 10.6312 l 18.77957,-5.74149 8.7119,-28.60835 12.18268,-3.72462 v 25.94485 l 31.92912,-9.7617 v -18.63752 z" />
	<path
   id="み_00000048465092373027668350000008182873071909603990_"
   class="st22"
   d="m 112.14185,101.05609 v 18.25915 l -11.0012,3.3634 V 91.45717 l -33.03371,10.09942 -4e-5,10.51371 14.60381,-4.46484 c 2.39204,-0.73118 3.64075,-0.12836 3.64075,1.46589 v 18.1288 l -15.97336,4.88354 c -4.94888,1.51303 -8.05075,7.0423 -8.05075,15.3119 v 13.15761 l 14.02916,7.35728 16.542,-5.05739 c 4.94876,-1.5136 8.23381,-6.89612 8.24215,-15.16335 v -14.53197 l 11.0012,-3.36339 v 27.17542 l 15.03736,-4.59738 V 125.197 l 6.70143,-2.04884 -3e-5,-10.58955 -6.70143,2.15923 v -9.66321 c 2e-5,-2.22595 0.82173,-3.86408 2.97044,-4.52101 l 0.94942,-0.29027 v -4.98309 z m -25.79042,49.58728 c 5e-5,2.67178 -1.33671,4.02328 -3.03945,4.54382 l -7.03735,2.15158 v -12.84601 c -5e-5,-2.97726 1.58409,-4.21696 3.18524,-4.70648 l 6.89156,-2.10696 z" />
</g>
<path
   id="_x2122__00000009568546657628522450000017382203832955165074_"
   d="m 626.93537,284.52396 v -9.05195 l -3.80754,1.1641 v -1.94514 l 10.07118,-3.07908 v 1.94514 l -3.67034,1.12214 v 9.05195 z m 17.08948,-5.22478 v -9.19177 l -2.31198,9.89863 -2.5041,0.76558 -2.25708,-8.50173 v 9.19179 l -2.36691,0.72361 v -11.00344 l 3.69784,-1.13054 2.22965,8.04609 0.0274,-0.008 2.17476,-9.39266 3.64979,-1.11584 v 11.00345 z"
   style="stroke-width:1.33333" />
</svg>
