<?xml version="1.0" encoding="UTF-8" standalone="no"?>
<!-- Created with Inkscape (http://www.inkscape.org/) -->

<svg
   version="1.1"
   id="svg1"
   width="666.66669"
   height="534.724"
   viewBox="0 0 666.66669 534.724"
   sodipodi:docname="Minna no Rhythm Tengoku Complete Music Collection (みんなのリズム天国全曲集) Logo (Print).ai"
   xmlns:inkscape="http://www.inkscape.org/namespaces/inkscape"
   xmlns:sodipodi="http://sodipodi.sourceforge.net/DTD/sodipodi-0.dtd"
   xmlns="http://www.w3.org/2000/svg"
   xmlns:svg="http://www.w3.org/2000/svg">
  <defs
     id="defs1">
    <clipPath
       clipPathUnits="userSpaceOnUse"
       id="clipPath2">
      <path
         d="M 0,401.043 H 500 V 0 H 0 Z"
         transform="translate(-499.99981,-264.2584)"
         id="path2" />
    </clipPath>
    <clipPath
       clipPathUnits="userSpaceOnUse"
       id="clipPath4">
      <path
         d="M 0,401.043 H 500 V 0 H 0 Z"
         transform="translate(-491.19511,-264.2584)"
         id="path4" />
    </clipPath>
    <clipPath
       clipPathUnits="userSpaceOnUse"
       id="clipPath6">
      <path
         d="M 0,401.043 H 500 V 0 H 0 Z"
         transform="translate(-485.14231,-264.25791)"
         id="path6" />
    </clipPath>
    <clipPath
       clipPathUnits="userSpaceOnUse"
       id="clipPath8">
      <path
         d="M 0,401.043 H 500 V 0 H 0 Z"
         transform="translate(-365.91871,-148.39611)"
         id="path8" />
    </clipPath>
    <clipPath
       clipPathUnits="userSpaceOnUse"
       id="clipPath10">
      <path
         d="M 0,401.043 H 500 V 0 H 0 Z"
         transform="translate(-382.42161,-182.9908)"
         id="path10" />
    </clipPath>
    <clipPath
       clipPathUnits="userSpaceOnUse"
       id="clipPath12">
      <path
         d="M 0,401.043 H 500 V 0 H 0 Z"
         transform="translate(-367.79471,-174.41961)"
         id="path12" />
    </clipPath>
    <clipPath
       clipPathUnits="userSpaceOnUse"
       id="clipPath14">
      <path
         d="M 0,401.043 H 500 V 0 H 0 Z"
         transform="translate(-356.45481,-173.4576)"
         id="path14" />
    </clipPath>
    <clipPath
       clipPathUnits="userSpaceOnUse"
       id="clipPath16">
      <path
         d="M 0,401.043 H 500 V 0 H 0 Z"
         transform="translate(-282.58671,-123.8785)"
         id="path16" />
    </clipPath>
    <clipPath
       clipPathUnits="userSpaceOnUse"
       id="clipPath18">
      <path
         d="M 0,401.043 H 500 V 0 H 0 Z"
         transform="translate(-272.84841,-165.4449)"
         id="path18" />
    </clipPath>
    <clipPath
       clipPathUnits="userSpaceOnUse"
       id="clipPath20">
      <path
         d="M 0,401.043 H 500 V 0 H 0 Z"
         transform="translate(-261.4333,-159.193)"
         id="path20" />
    </clipPath>
    <clipPath
       clipPathUnits="userSpaceOnUse"
       id="clipPath22">
      <path
         d="M 0,401.043 H 500 V 0 H 0 Z"
         transform="translate(-246.2932,-155.26821)"
         id="path22" />
    </clipPath>
    <clipPath
       clipPathUnits="userSpaceOnUse"
       id="clipPath24">
      <path
         d="M 0,401.043 H 500 V 0 H 0 Z"
         transform="translate(-147.51051,-85.227205)"
         id="path24" />
    </clipPath>
    <clipPath
       clipPathUnits="userSpaceOnUse"
       id="clipPath26">
      <path
         d="M 0,401.043 H 500 V 0 H 0 Z"
         transform="translate(-171.1936,-131.3922)"
         id="path26" />
    </clipPath>
    <clipPath
       clipPathUnits="userSpaceOnUse"
       id="clipPath28">
      <path
         d="M 0,401.043 H 500 V 0 H 0 Z"
         transform="translate(-152.3167,-126.4674)"
         id="path28" />
    </clipPath>
    <clipPath
       clipPathUnits="userSpaceOnUse"
       id="clipPath30">
      <path
         d="M 0,401.043 H 500 V 0 H 0 Z"
         transform="translate(-440.65701,-292.79751)"
         id="path30" />
    </clipPath>
    <clipPath
       clipPathUnits="userSpaceOnUse"
       id="clipPath32">
      <path
         d="M 0,401.043 H 500 V 0 H 0 Z"
         transform="translate(-434.31231,-303.00651)"
         id="path32" />
    </clipPath>
    <clipPath
       clipPathUnits="userSpaceOnUse"
       id="clipPath34">
      <path
         d="M 0,401.043 H 500 V 0 H 0 Z"
         transform="translate(-405.91191,-299.74431)"
         id="path34" />
    </clipPath>
    <clipPath
       clipPathUnits="userSpaceOnUse"
       id="clipPath36">
      <path
         d="M 0,401.043 H 500 V 0 H 0 Z"
         transform="translate(-342.04571,-212.70861)"
         id="path36" />
    </clipPath>
    <clipPath
       clipPathUnits="userSpaceOnUse"
       id="clipPath38">
      <path
         d="M 0,401.043 H 500 V 0 H 0 Z"
         transform="translate(-343.95781,-265.84971)"
         id="path38" />
    </clipPath>
    <clipPath
       clipPathUnits="userSpaceOnUse"
       id="clipPath40">
      <path
         d="M 0,401.043 H 500 V 0 H 0 Z"
         transform="translate(-326.03981,-260.03871)"
         id="path40" />
    </clipPath>
    <clipPath
       clipPathUnits="userSpaceOnUse"
       id="clipPath42">
      <path
         d="M 0,401.043 H 500 V 0 H 0 Z"
         transform="translate(-177.57891,-164.6578)"
         id="path42" />
    </clipPath>
    <clipPath
       clipPathUnits="userSpaceOnUse"
       id="clipPath44">
      <path
         d="M 0,401.043 H 500 V 0 H 0 Z"
         transform="translate(-279.88941,-209.9254)"
         id="path44" />
    </clipPath>
    <clipPath
       clipPathUnits="userSpaceOnUse"
       id="clipPath46">
      <path
         d="M 0,401.043 H 500 V 0 H 0 Z"
         transform="translate(-69.249302,-165.4254)"
         id="path46" />
    </clipPath>
    <clipPath
       clipPathUnits="userSpaceOnUse"
       id="clipPath48">
      <path
         d="M 0,401.043 H 500 V 0 H 0 Z"
         transform="translate(-344.34841,-307.17401)"
         id="path48" />
    </clipPath>
    <clipPath
       clipPathUnits="userSpaceOnUse"
       id="clipPath50">
      <path
         d="M 0,401.043 H 500 V 0 H 0 Z"
         transform="translate(-272.9734,-306.98741)"
         id="path50" />
    </clipPath>
    <clipPath
       clipPathUnits="userSpaceOnUse"
       id="clipPath52">
      <path
         d="M 0,401.043 H 500 V 0 H 0 Z"
         transform="translate(-211.1785,-271.1788)"
         id="path52" />
    </clipPath>
    <clipPath
       clipPathUnits="userSpaceOnUse"
       id="clipPath54">
      <path
         d="M 0,401.043 H 500 V 0 H 0 Z"
         transform="translate(-86.675005,-249.98251)"
         id="path54" />
    </clipPath>
    <clipPath
       clipPathUnits="userSpaceOnUse"
       id="clipPath56">
      <path
         d="M 0,401.043 H 500 V 0 H 0 Z"
         transform="translate(-474.02421,-180.8043)"
         id="path56" />
    </clipPath>
  </defs>
  <sodipodi:namedview
     id="namedview1"
     pagecolor="#ffffff"
     bordercolor="#000000"
     borderopacity="0.25"
     inkscape:showpageshadow="2"
     inkscape:pageopacity="0.0"
     inkscape:pagecheckerboard="0"
     inkscape:deskcolor="#d1d1d1">
    <inkscape:page
       x="0"
       y="0"
       inkscape:label="1"
       id="page1"
       width="666.66669"
       height="534.724"
       margin="0"
       bleed="0" />
  </sodipodi:namedview>
  <g
     id="layer-MC0"
     inkscape:groupmode="layer"
     inkscape:label="Layer 1">
    <path
       id="path1"
       d="m 0,0 c 0,41.851 -31.875,76.398 -72.623,80.639 -7.565,32.406 -36.461,56.146 -71.029,56.146 -17.4,0 -33.785,-6.036 -46.766,-16.93 -13.357,9.989 -29.691,15.52 -46.624,15.52 -28.775,0 -54.836,-15.845 -68.318,-40.505 -2.769,0.299 -5.555,0.45 -8.341,0.45 -19.152,0 -37.244,-6.913 -51.334,-19.317 -11.634,6.587 -24.871,10.122 -38.378,10.122 -42.934,0 -77.863,-34.929 -77.863,-77.863 0,-15.336 4.551,-30.211 12.846,-42.813 C -488.059,-48.975 -500,-71.95 -500,-97.2 c 0,-42.636 34.441,-77.377 76.965,-77.859 -0.243,-2.566 -0.364,-5.154 -0.364,-7.757 0,-44.908 36.535,-81.443 81.442,-81.443 29.381,0 55.874,15.631 70.261,40.223 8.935,-3.479 18.481,-5.279 28.24,-5.279 26.243,0 50.33,13.262 64.58,34.371 13.341,-7.873 28.597,-12.084 44.377,-12.084 48.244,0 87.495,39.249 87.495,87.495 0,14.741 -3.764,29.145 -10.709,41.887 C -24.359,-67.593 0,-36.588 0,0"
       style="fill:#000000;fill-opacity:1;fill-rule:nonzero;stroke:none"
       transform="matrix(1.3333333,0,0,-1.3333333,666.6664,182.37947)"
       clip-path="url(#clipPath2)" />
    <path
       id="path3"
       d="m 0,0 c 0,39.508 -31.861,71.712 -71.24,72.264 -4.125,31.689 -30.995,55.716 -63.608,55.716 -17.772,0 -34.34,-7.164 -46.416,-19.866 -12.717,11.802 -29.488,18.457 -46.973,18.457 -27.581,0 -52.351,-16.413 -63.265,-41.371 -4.417,0.874 -8.902,1.315 -13.394,1.315 -19.176,0 -37.156,-7.817 -50.182,-21.633 -11.541,8.057 -25.367,12.439 -39.53,12.439 -38.079,0 -69.059,-30.98 -69.059,-69.059 0,-16.619 6.029,-32.629 16.774,-45.098 -21.819,-12.071 -35.498,-34.914 -35.498,-60.364 0,-38.08 30.98,-69.059 69.059,-69.059 3.225,0 6.431,0.222 9.6,0.664 -1.368,-5.607 -2.058,-11.367 -2.058,-17.221 0,-40.053 32.585,-72.638 72.638,-72.638 28.904,0 54.678,16.964 66.28,42.905 9.887,-5.226 20.892,-7.962 32.221,-7.962 26.274,0 50.113,14.99 61.714,38.058 13.58,-10.222 30.066,-15.772 47.243,-15.772 43.389,0 78.69,35.302 78.69,78.692 0,17.351 -5.801,34.186 -16.223,47.824 C -27.629,-67.245 0,-36.789 0,0"
       style="fill:#ffffff;fill-opacity:1;fill-rule:nonzero;stroke:none"
       transform="matrix(1.3333333,0,0,-1.3333333,654.9268,182.37947)"
       clip-path="url(#clipPath4)" />
    <path
       id="path5"
       d="m 0,0 c 0,36.572 -29.646,66.219 -66.218,66.219 -1.52,0 -3.023,-0.07 -4.517,-0.171 -1.178,31.058 -26.713,55.879 -58.06,55.879 -18.798,0 -35.501,-8.932 -46.123,-22.774 -11.546,13.095 -28.436,21.366 -47.266,21.366 -27.588,0 -51.019,-17.739 -59.549,-42.428 -5.444,1.534 -11.178,2.371 -17.111,2.371 -19.99,0 -37.792,-9.32 -49.335,-23.84 -10.934,9.14 -25.01,14.646 -40.376,14.646 -34.797,0 -63.006,-28.208 -63.006,-63.006 0,-18.644 8.105,-35.391 20.977,-46.927 -23.257,-9.268 -39.701,-31.974 -39.701,-58.535 0,-34.797 28.209,-63.006 63.006,-63.006 6.485,0 12.74,0.983 18.628,2.802 -3.237,-7.832 -5.033,-16.411 -5.033,-25.412 0,-36.773 29.811,-66.584 66.584,-66.584 29.488,0 54.481,19.175 63.235,45.731 10.064,-6.81 22.2,-10.789 35.266,-10.789 27.383,0 50.676,17.474 59.365,41.875 12.983,-12.142 30.414,-19.587 49.592,-19.587 40.117,0 72.638,32.52 72.638,72.637 0,21.155 -9.05,40.191 -23.481,53.466 1.412,-0.09 2.832,-0.151 4.267,-0.151 C -29.646,-66.218 0,-36.571 0,0"
       style="fill:#000000;fill-opacity:1;fill-rule:nonzero;stroke:none"
       transform="matrix(1.3333333,0,0,-1.3333333,646.8564,182.38013)"
       clip-path="url(#clipPath6)" />
    <path
       id="path7"
       d="m 0,0 -8.395,-2.567 c 0,2.025 1.237,3.497 3.257,4.114 L 0,3.118 Z m 0,-8.428 -8.395,-2.566 v 3.357 L 0,-5.07 Z m 0,-8.249 -8.395,-2.566 v 3.245 L 0,-13.432 Z m 43.514,4.439 -29.434,-8.999 v 2.714 l 23.197,7.092 V -5.28 L 14.08,-12.372 v 3.245 l 14.965,4.575 V 0.452 L 14.08,-4.123 v 3.357 l 14.457,4.42 v 5.07 L 14.08,4.304 c 0,2.175 1.2,3.486 3.575,4.212 l 19.395,5.929 v 6.212 L 15.481,14.063 c 3.633,4.25 4.326,7.301 4.326,10.657 L 6.921,20.78 C 6.659,17.115 4.268,11.78 0.811,9.577 L -2.42,8.59 c 1.695,2.815 2.969,6.533 2.969,10.242 L -16.007,13.771 C -17.046,-0.772 -21.24,-0.12 -28.553,-2.356 v -11.509 l 7.27,2.221 V -29.335 L 0,-22.827 v -2.714 l -28.553,-8.73 v -6.074 l 21.006,6.422 c -1.436,-3.993 -4.847,-8.201 -10.586,-9.956 l -10.42,-3.185 v -6.839 l 16.159,4.939 c 6.922,2.116 9.985,4.888 12.394,9.499 v -5.709 l 14.08,4.304 v 9.177 c 6.277,-0.821 10.547,-3.643 12.177,-5.453 l 16.965,5.186 c -5.087,5.062 -15.707,7.365 -20.185,7.388 l 20.477,6.26 z"
       style="fill:#ffffff;fill-opacity:1;fill-rule:nonzero;stroke:none"
       transform="matrix(1.3333333,0,0,-1.3333333,487.8916,336.86253)"
       clip-path="url(#clipPath8)" />
    <path
       id="path9"
       d="m 0,0 c -0.622,0.697 -1.539,0.44 -2.034,0.289 -0.527,-0.161 -0.98,-0.346 -2.592,-1.058 -1.338,-0.593 -1.728,-0.747 -2.139,-0.908 l 0.232,-1.266 c 2.349,1.156 3.625,1.777 4.331,1.993 1.001,0.305 1.507,0.102 1.507,-1.259 0,-1.867 -0.875,-3.577 -4.847,-4.745 l 0.221,-1.098 C -2.95,-7.2 0.548,-5.808 0.548,-1.886 0.548,-1.62 0.537,-0.598 0,0 M -0.875,1.382 C -2.561,1.593 -5.331,0.987 -5.785,0.884 l 0.18,1.255 c 0.315,0.073 2.95,0.727 5.046,0.642 z"
       style="fill:#ffffff;fill-opacity:1;fill-rule:nonzero;stroke:none"
       transform="matrix(1.3333333,0,0,-1.3333333,509.89547,290.73627)"
       clip-path="url(#clipPath10)" />
    <path
       id="path11"
       d="M 0,0 C 0.242,0.998 0.242,2.028 0.207,3.757 1.522,3.907 1.522,2.563 1.522,2.348 1.522,2.072 1.522,0.729 0,0 m 0.185,4.865 c 0,0.192 -0.023,1.097 -0.036,1.225 L -1.038,5.69 C -1.004,5.126 -0.992,4.865 -0.969,4.465 -1.385,4.253 -2.757,3.535 -4.06,1.732 c 0.023,0.955 0.104,1.82 0.243,2.809 L -5.029,4.23 C -5.087,3.434 -5.19,2.059 -5.19,0.188 c 0,-1.739 0.092,-2.61 0.172,-3.233 l 1.12,0.498 c -0.197,1.151 -0.208,1.76 -0.174,2.526 0.578,1.555 1.972,2.796 3.137,3.393 0.036,-1.717 0.012,-2.719 -0.219,-3.604 -0.829,0.105 -0.992,0.979 -1.061,1.461 L -3.241,0.532 c 0.22,-1.108 0.635,-1.773 1.534,-1.929 -0.462,-0.597 -0.877,-0.856 -1.234,-1.074 l 0.714,-0.728 c 0.404,0.279 1.201,0.835 1.754,1.903 2.572,0.727 3.161,2.873 3.161,4.036 0,1.176 -0.566,2.526 -2.503,2.125"
       style="fill:#ffffff;fill-opacity:1;fill-rule:nonzero;stroke:none"
       transform="matrix(1.3333333,0,0,-1.3333333,490.39293,302.16453)"
       clip-path="url(#clipPath12)" />
    <path
       id="path13"
       d="m 0,0 c -0.405,-2.167 -0.997,-3.949 -3.475,-4.707 -1.435,-0.439 -1.841,0.022 -1.841,1.874 0,0.312 0.087,5.439 0.098,6.458 L -6.555,3.24 c -0.044,-2.331 -0.044,-3.921 -0.044,-4.983 0,-2.114 0,-3.143 0.46,-3.767 0.407,-0.555 1.185,-0.903 2.828,-0.401 3.64,1.113 4.254,4.478 4.517,5.909 z"
       style="fill:#ffffff;fill-opacity:1;fill-rule:nonzero;stroke:none"
       transform="matrix(1.3333333,0,0,-1.3333333,475.27307,303.4472)"
       clip-path="url(#clipPath14)" />
    <path
       id="path15"
       d="M 0,0 -7.678,-2.348 V 12.016 L 0,14.363 Z m 0,-15.258 c 0,-2.417 -1.793,-4.925 -4.005,-5.6 l -3.673,-1.123 v 13.58 L 0,-6.055 Z M -16.679,-5.1 -23.657,-7.233 V 7.13 l 6.978,2.134 z m 0,-19.633 -6.978,-2.134 v 13.58 l 6.978,2.134 z m -15.979,14.749 -7.678,-2.348 v 9.987 c 0,2.416 1.793,4.924 4.005,5.601 l 3.673,1.123 z m 0,-19.635 -7.678,-2.347 v 13.579 l 7.678,2.348 z m 24.98,49.992 v 12.911 l -9.001,-2.752 V 17.621 l -6.978,-2.134 v 12.911 l -9.001,-2.752 V 12.735 L -55.692,5.693 v -50.632 l 71.048,21.721 v 50.633 z"
       style="fill:#ffffff;fill-opacity:1;fill-rule:nonzero;stroke:none"
       transform="matrix(1.3333333,0,0,-1.3333333,376.78227,369.55267)"
       clip-path="url(#clipPath16)" />
    <path
       id="path17"
       d="m 0,0 c -0.316,0.09 -0.806,0.231 -0.806,0.521 0,0.246 0.218,0.498 0.751,1.091 2.122,2.382 2.362,2.654 3.896,4.565 L 2.677,6.693 C 1.915,5.646 1.621,5.288 -0.577,2.674 -1.709,1.327 -2.253,0.579 -2.253,0.009 c 0,-0.744 0.784,-0.993 1.665,-1.27 1.643,-0.51 3.21,-1.159 4.68,-1.99 l 1.077,1.295 C 4.179,-1.352 1.6,-0.441 0,0"
       style="fill:#ffffff;fill-opacity:1;fill-rule:nonzero;stroke:none"
       transform="matrix(1.3333333,0,0,-1.3333333,363.79787,314.1308)"
       clip-path="url(#clipPath18)" />
    <path
       id="path19"
       d="m 0,0 c 0,-0.642 -0.687,-0.913 -0.99,-1.006 -0.778,-0.237 -1.058,0.138 -1.058,0.514 0,0.497 0.461,0.977 1.249,1.219 0.36,0.109 0.596,0.132 0.799,0.134 z m 1.215,2.143 v 1.95 L 4.231,5.016 V 6.288 L 1.215,5.366 v 1.6 L -0.012,6.591 0,2.073 C -0.191,2.039 -0.395,2.001 -0.698,1.908 -2.139,1.468 -3.162,0.379 -3.162,-0.917 c 0,-1.272 1.001,-1.658 2.25,-1.276 0.439,0.134 1.126,0.428 1.632,1.044 0.372,0.453 0.484,1.008 0.484,1.505 V 0.817 C 2.262,0.607 2.971,0.278 3.759,-0.353 L 4.603,1.093 C 3.433,1.777 2.284,2.057 1.215,2.143"
       style="fill:#ffffff;fill-opacity:1;fill-rule:nonzero;stroke:none"
       transform="matrix(1.3333333,0,0,-1.3333333,348.57773,322.46667)"
       clip-path="url(#clipPath20)" />
    <path
       id="path21"
       d="M 0,0 C 0,0.213 0.096,0.858 0.921,1.749 L 0.075,2.118 c -1.209,-1.305 -1.209,-2.287 -1.209,-2.524 0,-0.165 0.021,-1.663 2.011,-1.445 0.75,0.076 2.206,0.497 3.019,0.746 1.049,0.321 1.616,0.541 2.002,0.694 V 0.845 C 5.501,0.676 4.903,0.41 3.222,-0.104 1.638,-0.588 0,-1.089 0,0 M 1.691,3.275 -2.012,2.144 V 3.303 L 1.777,4.461 C 1.959,4.517 2.109,4.562 2.569,4.716 2.516,4.901 2.419,5.238 2.259,5.899 2.173,5.873 1.798,5.746 1.723,5.724 L -1.626,4.699 v 1.16 L 1.702,6.877 C 1.734,6.887 2.001,6.981 2.065,7.013 1.98,7.625 1.959,7.962 1.937,8.311 L 3.168,8.794 C 3.179,8.441 3.19,8.161 3.275,7.453 4.752,8 5.577,8.488 5.962,8.725 L 6.08,7.553 C 5.223,7.043 4.453,6.736 3.457,6.349 3.521,6.002 3.661,5.451 3.768,5.13 4.634,5.454 5.748,5.877 6.796,6.541 L 6.978,5.448 C 6.015,4.846 5.181,4.52 4.121,4.101 4.431,3.367 4.56,3.063 5.083,2.525 L 4.003,1.591 C 3.714,1.917 3.415,2.299 2.922,3.663 2.494,3.521 2.13,3.41 1.691,3.275"
       style="fill:#ffffff;fill-opacity:1;fill-rule:nonzero;stroke:none"
       transform="matrix(1.3333333,0,0,-1.3333333,328.39093,327.69973)"
       clip-path="url(#clipPath22)" />
    <path
       id="path23"
       d="M 0,0 -22.397,-6.848 V 4.597 L -8.425,8.868 C 2.991,12.358 4.114,26.8 4.114,26.8 l 19.02,5.814 c 0,-3.195 -1.075,-6.506 -1.075,-6.506 3.623,-0.011 23.414,-5.062 27.274,-11.025 L 30.608,9.358 C 27.799,12.26 21.457,15.15 17.901,15.961 13.742,8.172 6.662,2.037 0,0 m 27.83,-23.969 c -2.978,-0.905 -5.372,0.797 -5.372,3.76 v 3.252 l 20.674,6.321 v 6.875 l -20.674,-6.32 v 3.258 c 0,2.241 1.811,4.6 4.037,5.276 l 16.913,5.171 v 6.875 L -15.79,-7.6 v -6.875 l 16.914,5.171 c 2.226,0.676 4.037,-0.582 4.037,-2.807 v -3.259 l -20.674,-6.32 v -6.875 l 20.674,6.32 v -3.252 c 0,-2.963 -2.41,-6.144 -5.388,-7.049 l -21.748,-6.649 v -6.87 l 71.553,21.876 v 6.87 z"
       style="fill:#ffffff;fill-opacity:1;fill-rule:nonzero;stroke:none"
       transform="matrix(1.3333333,0,0,-1.3333333,196.68067,421.08773)"
       clip-path="url(#clipPath24)" />
    <path
       id="path25"
       d="m 0,0 c -0.222,-0.744 -1.173,-3.896 -1.347,-4.546 l 0.016,-0.016 c 0.206,0.238 0.602,0.666 1.299,0.887 1.617,0.476 1.68,-1.139 1.68,-2.026 v -0.476 c 0,-0.333 0,-1.33 0.872,-1.077 0.982,0.285 1.395,1.822 1.585,3.85 L 5.183,-3.436 C 4.913,-5.954 4.343,-7.95 2.425,-8.521 0.523,-9.091 0.507,-7.175 0.507,-6.557 v 0.38 c 0,0.713 0.016,1.442 -0.76,1.203 -1.015,-0.3 -1.633,-1.505 -1.997,-2.692 -0.096,-0.412 -0.492,-2.17 -0.587,-2.534 l -1.173,0.015 c 0.603,2.107 2.045,7.492 2.726,10.042 z"
       style="fill:#ffffff;fill-opacity:1;fill-rule:nonzero;stroke:none"
       transform="matrix(1.3333333,0,0,-1.3333333,228.25813,359.5344)"
       clip-path="url(#clipPath26)" />
    <path
       id="path27"
       d="m 0,0 -1.188,-0.397 c 0.042,-0.553 0.064,-0.915 0.117,-2.42 l -3.342,-1.068 0.011,2.263 -1.124,-0.344 -0.011,-2.274 -1.665,-0.532 0.021,-1.193 1.634,0.523 -0.022,-2.531 c 0,-0.334 0,-1.475 0.308,-2.038 0.657,-1.181 1.74,-0.862 3.373,-0.363 1.347,0.412 1.814,0.566 3.182,1.064 L 1.241,-8.069 C 0.265,-8.46 -1.432,-9.013 -1.666,-9.085 -4.073,-9.82 -4.445,-9.83 -4.434,-7.591 l 0.011,2.504 3.373,1.077 c -0.042,-2.041 -0.096,-2.437 -0.902,-2.684 -0.392,-0.12 -0.711,-0.137 -1.124,-0.148 L -3.087,-8.09 c 0.297,0.023 0.796,0.059 1.316,0.218 1.898,0.58 1.898,2.206 1.898,4.233 l 1.984,0.642 v 1.199 L 0.117,-2.432 C 0.095,-1.885 0.032,-0.429 0,0 M 1.464,-0.774 C 1.432,-0.416 1.262,0.374 1.082,0.745 L 0.308,0.382 C 0.498,-0.183 0.594,-0.752 0.637,-1.2 Z M 1.867,-0.64 C 1.846,-0.52 1.697,0.392 1.485,0.915 L 2.302,1.291 C 2.439,0.918 2.503,0.649 2.684,-0.24 Z"
       style="fill:#ffffff;fill-opacity:1;fill-rule:nonzero;stroke:none"
       transform="matrix(1.3333333,0,0,-1.3333333,203.08893,366.1008)"
       clip-path="url(#clipPath28)" />
    <path
       id="path29"
       d="m 0,0 -37.058,-11.33 c -1.992,-0.602 -3.179,-2.349 -3.179,-4.634 V -58.219 L -3.18,-46.89 c 1.844,0.553 3.18,2.188 3.18,4.635 z M 14.944,12.651 V -49.411 L -55.174,-70.848 V -8.786 Z M -6.949,-36.175 v 5.937 l -4.208,-1.286 v -5.938 z m 0,-8.106 -26.331,-8.051 v 4.837 l 4.648,1.421 c 1.899,0.581 3.024,2.094 3.024,4.598 v 8.803 l -7.672,-2.346 v 5.227 l 7.672,2.345 v 9.014 c 0,1.046 -0.63,2.454 -3.528,1.569 l -4.144,-1.267 v 4.868 l 26.331,8.05 v -4.868 l -4.598,-1.406 c -1.964,-0.6 -3.074,-2.065 -3.074,-4.603 v -7.998 l 7.672,2.346 v -5.226 l -7.672,-2.345 v -9.82 c 0,-1.545 1.186,-2.294 3.578,-1.563 l 4.094,1.251 z"
       style="fill:#ffffff;fill-opacity:1;fill-rule:nonzero;stroke:none"
       transform="matrix(1.3333333,0,0,-1.3333333,587.54267,144.32733)"
       clip-path="url(#clipPath30)" />
    <path
       id="path31"
       d="m 0,0 c -1.868,1.104 -2.785,1.41 -5.248,2.259 -0.51,0.187 -1.139,0.527 -1.139,1.138 0,0.595 0.613,1.41 1.343,2.293 2.887,3.482 2.939,3.584 3.617,4.536 L -0.254,9.682 C -1.851,7.661 -2.14,7.355 -4.552,4.603 -4.79,4.348 -4.942,4.11 -4.942,3.907 c 0,-0.306 0.509,-0.459 0.815,-0.544 1.528,-0.442 4.145,-1.41 5.181,-2.055 z"
       style="fill:#ffffff;fill-opacity:1;fill-rule:nonzero;stroke:none"
       transform="matrix(1.3333333,0,0,-1.3333333,579.08307,130.71533)"
       clip-path="url(#clipPath32)" />
    <path
       id="path33"
       d="m 0,0 c -0.934,-1.257 -0.968,-2.157 -0.968,-2.378 0,-1.546 2.107,-0.935 3.738,-0.442 1.069,0.323 2.157,0.696 3.209,1.189 L 6.014,-2.956 C 5.64,-3.143 4.875,-3.465 3.177,-3.992 1.02,-4.637 0.085,-4.824 -0.849,-4.62 c -0.764,0.17 -1.341,0.9 -1.341,1.834 0,1.104 0.492,1.988 1.291,3.227 z M 5.436,6.115 V 4.943 C 4.06,4.263 3.075,3.465 1.818,2.225 L 1.036,2.836 C 1.394,3.21 1.461,3.278 2.175,3.856 L 2.157,3.873 C 0.68,3.397 -0.832,2.921 -1.715,2.599 V 3.94 c 0.322,0.085 1.682,0.493 2.242,0.663 z M 7.475,3.72 C 6.999,4.569 6.676,4.926 6.506,5.113 L 7.22,5.792 C 7.695,5.299 8.035,4.739 8.222,4.433 Z M 5.929,2.395 C 5.555,3.023 5.334,3.329 4.893,3.788 L 5.656,4.501 C 6.099,4.094 6.455,3.567 6.693,3.125 Z"
       style="fill:#ffffff;fill-opacity:1;fill-rule:nonzero;stroke:none"
       transform="matrix(1.3333333,0,0,-1.3333333,541.21587,135.06493)"
       clip-path="url(#clipPath34)" />
    <path
       id="path35"
       d="m 0,0 v 6.921 l 26.05,7.964 V 25.726 L 0,17.761 v 9.707 l 26.05,7.964 V 46.245 L -44.31,24.734 V 13.921 l 25.625,7.834 V 12.049 L -44.31,4.214 V -6.625 l 25.625,7.833 -0.001,-4.008 c 0.001,-12.837 -6.913,-18.029 -17.412,-21.247 l -8.212,-2.511 v -10.863 l 17.885,5.468 c 13.737,4.193 18.579,9.061 24.024,22.056 2.987,-1.187 11.102,-6.538 14.393,-10.311 l 18.497,5.655 C 24.955,-8.446 5.275,-1.034 0,0"
       style="fill:#ffffff;fill-opacity:1;fill-rule:nonzero;stroke:none"
       transform="matrix(1.3333333,0,0,-1.3333333,456.06093,251.11253)"
       clip-path="url(#clipPath36)" />
    <path
       id="path37"
       d="m 0,0 c -0.236,-0.792 -1.247,-4.143 -1.432,-4.834 l 0.017,-0.017 c 0.219,0.253 0.64,0.708 1.381,0.943 1.719,0.506 1.786,-1.212 1.786,-2.155 v -0.506 c 0,-0.353 0,-1.415 0.926,-1.145 1.045,0.303 1.482,1.937 1.684,4.093 L 5.508,-3.655 C 5.222,-6.333 4.615,-8.455 2.577,-9.062 0.556,-9.668 0.539,-7.63 0.539,-6.973 v 0.404 c 0,0.758 0.017,1.533 -0.809,1.28 -1.078,-0.32 -1.735,-1.6 -2.122,-2.863 -0.101,-0.438 -0.522,-2.307 -0.624,-2.695 l -1.246,0.017 c 0.641,2.24 2.173,7.967 2.898,10.679 z"
       style="fill:#ffffff;fill-opacity:1;fill-rule:nonzero;stroke:none"
       transform="matrix(1.3333333,0,0,-1.3333333,458.6104,180.25773)"
       clip-path="url(#clipPath38)" />
    <path
       id="path39"
       d="m 0,0 v -1.331 c -0.286,-0.05 -0.556,-0.101 -1.095,-0.269 -1.836,-0.539 -4.817,-3.587 -4.834,-5.946 -0.017,-1.33 1.112,-1.414 1.869,-1.398 0.674,0.017 1.652,0.169 2.998,0.573 l -0.167,-1.465 c -1.095,-0.287 -2.359,-0.556 -3.419,-0.506 -1.18,0.034 -2.544,0.539 -2.544,2.342 0.016,0.977 0.421,3.048 3.032,5.457 l -0.018,0.017 c -2.391,-0.792 -2.677,-0.876 -5.153,-1.735 v 1.347 c 0.437,0.118 3.537,1.095 4.817,1.499 z"
       style="fill:#ffffff;fill-opacity:1;fill-rule:nonzero;stroke:none"
       transform="matrix(1.3333333,0,0,-1.3333333,434.71973,188.00573)"
       clip-path="url(#clipPath40)" />
    <path
       id="path41"
       d="m 0,0 c 6.883,10.915 7.858,17.782 8.832,25.347 0.34,2.737 1.642,4.152 3.115,4.602 l 2.739,0.837 V 40.993 L -49.411,21.397 V 10.584 L -9.269,22.856 C -10.194,8.592 -15.313,-10.5 -37.785,-17.37 l -11.626,-3.555 v -10.676 l 11.884,3.634 c 15.381,4.702 22.807,9.22 31.878,20.39 2.341,-1.138 5.437,-3.924 7.191,-8.445 l 18.09,5.53 C 17.085,-7.365 6.271,-0.827 0,0 m 4.707,40.807 c 2.585,0.803 3.97,3.494 3.216,6.028 -0.803,2.535 -3.493,3.97 -6.028,3.217 -2.585,-0.754 -3.97,-3.494 -3.216,-6.029 0.803,-2.535 3.493,-3.97 6.028,-3.216 m 5.304,6.681 c -0.754,2.534 0.632,5.225 3.216,6.028 2.535,0.804 5.275,-0.631 6.029,-3.216 0.803,-2.534 -0.632,-5.225 -3.216,-6.029 -2.535,-0.753 -5.226,0.632 -6.029,3.217"
       style="fill:#ffffff;fill-opacity:1;fill-rule:nonzero;stroke:none"
       transform="matrix(1.3333333,0,0,-1.3333333,236.77187,315.18027)"
       clip-path="url(#clipPath42)" />
    <path
       id="path43"
       d="m 0,0 -2.731,-0.835 c -1.788,-0.552 -3.755,-0.02 -5.113,1.986 l -6.231,9.207 -18.109,-5.536 8.199,-12.155 -22.336,-6.829 13.518,44.216 c 0.591,1.932 1.642,3.143 3.082,3.594 l 4.544,1.39 v 7.354 l -22.305,-6.819 -16.051,-52.501 c -0.622,-2.033 -1.824,-3.053 -3.104,-3.445 l -2.765,-0.846 V -31.85 L 5.944,-8.813 Z"
       style="fill:#ffffff;fill-opacity:1;fill-rule:nonzero;stroke:none"
       transform="matrix(1.3333333,0,0,-1.3333333,373.18587,254.82347)"
       clip-path="url(#clipPath44)" />
    <path
       id="path45"
       d="m 0,0 -1.513,-0.463 c -2.386,-0.729 -3.555,0.064 -3.555,1.565 v 16.324 c 0,2.193 0.797,3.86 3.016,4.539 L 0,22.592 v 7.941 l -24.993,-7.641 v -7.941 l 1.517,0.464 c 2.393,0.731 3.551,-0.059 3.551,-1.55 V -2.459 c 0,-2.215 -0.798,-3.877 -3.011,-4.553 l -2.057,-0.629 v -7.925 L 0,-7.925 Z M 44.129,44.024 V 36.083 L 42.183,35.488 C 39.939,34.803 39.175,33.211 39.175,30.964 V -1.535 c 0,-10.635 -5.713,-18.795 -14.669,-21.502 l -44.24,-13.526 v 10.683 l 31.636,9.673 c 6.078,1.866 8.922,7.147 8.922,14.328 v 28.206 c 0,1.491 -1.163,2.276 -3.553,1.545 l -1.587,-0.485 v 7.941 z"
       style="fill:#ffffff;fill-opacity:1;fill-rule:nonzero;stroke:none"
       transform="matrix(1.3333333,0,0,-1.3333333,92.3324,314.1568)"
       clip-path="url(#clipPath46)" />
    <path
       id="path47"
       d="M 0,0 C 0,-2.637 -0.555,-3.898 -2.052,-4.355 L -12.07,-7.418 v 35.381 c 0,2.771 1.538,4.158 2.97,4.595 L 0,35.341 Z M 29.886,55.14 -19.131,40.154 c -4.873,-1.49 -7.711,-7.759 -7.711,-15.476 v -34.38 l 15.399,-8.051 18.477,5.649 c 4.975,1.521 7.788,7.701 7.812,15.177 V 39.88 l 8.402,2.569 c 2.38,0.727 3.662,-0.078 3.668,-1.574 V 13.083 c 0,-8.917 -0.725,-11.098 -6.21,-12.775 v -7.535 c 6.169,0.667 12.034,3.227 14.418,4.73 3.377,2.154 6.511,7.927 6.509,17.566 v 33.905 z"
       style="fill:#ffffff;fill-opacity:1;fill-rule:nonzero;stroke:none"
       transform="matrix(1.3333333,0,0,-1.3333333,459.1312,125.15867)"
       clip-path="url(#clipPath48)" />
    <path
       id="path49"
       d="M 0,0 -6.6,-2.018 C -7.852,-2.4 -9.573,-3.612 -9.573,-6.058 v -11.73 l 6.499,1.987 c 1.849,0.566 3.074,2.04 3.074,4.286 z m 13.383,14.818 12.475,3.814 V 7.906 L 13.383,4.092 v -14.72 c 0,-6.989 -2.809,-11.733 -6.528,-12.871 l -20.128,-6.154 -8.837,4.645 v 17.917 c 0,6.74 2.591,11.85 6.623,13.082 L 0,10.726 V 30.62 l 21.726,6.642 V 26.845 l -5.434,-1.661 c -2.188,-0.669 -2.909,-2.245 -2.909,-4.502 z m -41.239,7.255 v -36.631 l -18.045,-5.516 v 6.588 l 1.527,0.467 c 2.207,0.675 2.899,2.338 2.899,4.526 v 26.402 l -11.649,-3.561 v 10.544 l 11.649,3.562 v 9.347 l 13.619,4.164 v -9.348 l 20.004,6.116 V 28.189 Z"
       style="fill:#ffffff;fill-opacity:1;fill-rule:nonzero;stroke:none"
       transform="matrix(1.3333333,0,0,-1.3333333,363.96453,125.40747)"
       clip-path="url(#clipPath50)" />
    <path
       id="path51"
       d="m 0,0 v -2.609 c 0,-2.227 -0.854,-3.84 -3.083,-4.521 l -8.657,-2.647 v 23.745 l -23.487,-7.18 6.85,22.394 c 0.739,2.245 1.8,3.19 2.992,3.554 l 4.767,1.457 v 6.946 l -21.837,-6.676 -17.644,-58.218 c -0.888,-2.396 -1.889,-3.176 -2.976,-3.508 l -3.003,-0.919 v -10.595 l 18.716,5.722 8.683,28.513 12.142,3.712 v -25.858 l 31.822,9.729 V 1.616 Z"
       style="fill:#ffffff;fill-opacity:1;fill-rule:nonzero;stroke:none"
       transform="matrix(1.3333333,0,0,-1.3333333,281.57133,173.15227)"
       clip-path="url(#clipPath52)" />
    <path
       id="path53"
       d="m 0,0 c 0,-2.663 -1.332,-4.01 -3.029,-4.529 l -7.014,-2.144 V 6.13 c 0,2.967 1.579,4.203 3.175,4.69 L 0,12.92 Z M 25.704,49.42 V 31.223 L 14.74,27.871 V 58.987 L -18.183,48.922 V 38.443 l 14.555,4.45 C -1.244,43.622 0,43.021 0,41.432 V 23.364 l -15.919,-4.867 c -4.933,-1.508 -8.024,-7.018 -8.024,-15.26 V -9.877 l 13.982,-7.332 16.486,5.04 c 4.933,1.508 8.206,6.873 8.215,15.112 v 14.484 l 10.964,3.352 V -6.305 l 14.987,4.581 v 27.085 l 6.679,2.042 v 10.554 l -6.679,-2.152 v 9.631 c 0,2.218 0.819,3.851 2.96,4.505 l 0.947,0.289 v 4.967 z"
       style="fill:#ffffff;fill-opacity:1;fill-rule:nonzero;stroke:none"
       transform="matrix(1.3333333,0,0,-1.3333333,115.56667,201.414)"
       clip-path="url(#clipPath54)" />
    <path
       id="path55"
       d="m 0,0 v 7.135 l -1.794,-7.684 -1.944,-0.595 -1.752,6.6 V -1.679 L -7.327,-2.24 v 8.541 l 2.87,0.878 1.73,-6.246 0.022,0.006 1.688,7.291 2.833,0.867 V 0.555 Z m -13.265,-4.056 v 7.027 l -2.956,-0.904 v 1.51 l 7.818,2.39 V 4.457 L -11.252,3.586 V -3.44 Z"
       style="fill:#000000;fill-opacity:1;fill-rule:nonzero;stroke:none"
       transform="matrix(1.3333333,0,0,-1.3333333,632.03227,293.6516)"
       clip-path="url(#clipPath56)" />
  </g>
</svg>
