<?xml version="1.0" encoding="UTF-8" standalone="no"?>
<!-- Created with Inkscape (http://www.inkscape.org/) -->

<svg
   version="1.1"
   id="svg2"
   width="666.66669"
   height="8612.8398"
   viewBox="0 0 666.66669 8612.8398"
   sodipodi:docname="Minna no Rhythm Tengoku Complete Music Collection (みんなのリズム天国全曲集) Logo (Wordmark) (Vertical).ai"
   xmlns:inkscape="http://www.inkscape.org/namespaces/inkscape"
   xmlns:sodipodi="http://sodipodi.sourceforge.net/DTD/sodipodi-0.dtd"
   xmlns="http://www.w3.org/2000/svg"
   xmlns:svg="http://www.w3.org/2000/svg">
  <defs
     id="defs6">
    <clipPath
       clipPathUnits="userSpaceOnUse"
       id="clipPath16">
      <path
         d="M 0,6459.634 H 500 V 0 H 0 Z"
         id="path14" />
    </clipPath>
  </defs>
  <sodipodi:namedview
     id="namedview4"
     pagecolor="#ffffff"
     bordercolor="#000000"
     borderopacity="0.25"
     inkscape:showpageshadow="2"
     inkscape:pageopacity="0.0"
     inkscape:pagecheckerboard="0"
     inkscape:deskcolor="#d1d1d1" />
  <g
     id="g8"
     inkscape:groupmode="layer"
     inkscape:label="Minna no Rhythm Tengoku Complete Music Collection (みんなのリズム天国全曲集) Logo (Wordmark) (Vertical)"
     transform="matrix(1.3333333,0,0,-1.3333333,0,8612.84)">
    <g
       id="g10">
      <g
         id="g12"
         clip-path="url(#clipPath16)">
        <g
           id="g18"
           transform="translate(198.1013,373.9813)">
          <path
             d="m 0,0 -58.243,-17.807 c 0,14.048 8.578,24.26 22.595,28.545 L 0,21.637 Z m 0,-58.47 -58.243,-17.806 v 23.297 L 0,-35.173 Z m 0,-57.228 -58.243,-17.807 v 22.515 L 0,-93.184 Z m 301.899,30.795 -204.217,-62.436 v 18.83 l 160.945,49.205 v 42.676 L 97.682,-85.834 v 22.516 l 103.833,31.744 V 3.14 L 97.682,-28.605 V -5.309 L 197.987,25.357 V 60.531 L 97.682,29.865 c 0,15.095 8.33,24.183 24.806,29.22 l 134.559,41.139 V 143.32 L 108.922,98.034 c 22.047,24.868 27.15,52.979 27.15,73.063 L 48.017,144.175 c -4.44,-35.806 -21.423,-76.234 -62.003,-80.639 0,0 17.136,33.413 17.136,66.922 L -111.056,95.542 c -7.215,-100.896 -36.31,-96.374 -87.045,-111.885 v -79.853 l 50.433,15.419 V -203.521 L 0,-158.374 v -18.829 l -198.101,-60.566 v -42.14 l 145.737,44.555 c -9.965,-27.702 -33.626,-56.901 -73.443,-69.074 l -72.294,-22.102 v -47.451 l 112.111,34.275 c 48.024,14.683 69.274,33.908 85.99,65.899 v -39.609 l 97.682,29.864 v 63.668 c 43.556,-5.692 73.176,-25.271 84.486,-37.837 l 117.704,35.986 c -35.296,35.119 -108.979,51.097 -140.045,51.256 l 142.072,43.436 z"
             style="fill:#000000;fill-opacity:1;fill-rule:nonzero;stroke:none"
             id="path20" />
        </g>
        <g
           id="g22"
           transform="translate(391.9328,849.1649)">
          <path
             d="M 0,0 -54.034,-16.52 V 84.562 L 0,101.082 Z m 0,-107.374 c 0,-17.009 -12.62,-34.655 -28.185,-39.414 l -25.849,-7.903 v 95.567 L 0,-42.604 Z m -117.376,71.489 -49.112,-15.014 V 50.182 l 49.112,15.014 z m 0,-138.173 -49.113,-15.014 0.001,95.567 49.112,15.016 z m -112.455,103.793 -54.034,-16.52 0.001,70.283 c 0,17.009 12.618,34.655 28.184,39.414 l 25.848,7.903 z m -0.001,-138.172 -54.033,-16.52 v 95.567 l 54.034,16.52 z m 175.798,351.81 10e-4,90.861 -63.343,-19.365 v -90.862 l -49.112,-15.015 v 90.862 l -63.344,-19.367 V 89.626 l -162.1,-49.559 -10e-4,-356.321 499.999,152.864 10e-4,356.323 z"
             style="fill:#000000;fill-opacity:1;fill-rule:nonzero;stroke:none"
             id="path24" />
        </g>
        <g
           id="g26"
           transform="translate(155.5861,1391.0028)">
          <path
             d="m 0,0 -155.586,-47.567 v 79.5 l 97.063,29.675 C 20.781,85.854 28.58,186.174 28.58,186.174 l 132.13,40.395 c 0,-22.201 -7.467,-45.197 -7.467,-45.197 25.169,-0.084 162.655,-35.172 189.465,-76.596 L 212.631,65.008 C 193.119,85.164 149.058,105.244 124.36,110.879 95.468,56.771 46.279,14.148 0,0 m 193.331,-166.508 c -20.685,-6.29 -37.317,5.537 -37.317,26.118 v 22.593 l 143.619,43.909 v 47.762 L 156.014,-70.035 v 22.633 c 0,15.569 12.581,31.963 28.042,36.654 l 117.496,35.922 v 47.761 l -411.24,-125.729 v -47.761 L 7.81,-64.632 c 15.46,4.692 28.042,-4.046 28.042,-19.508 v -22.631 l -143.62,-43.911 v -47.76 l 143.62,43.908 -10e-4,-22.593 c 0,-20.582 -16.74,-42.679 -37.424,-48.969 l -151.083,-46.19 v -47.728 l 497.07,151.97 v 47.728 z"
             style="fill:#000000;fill-opacity:1;fill-rule:nonzero;stroke:none"
             id="path28" />
        </g>
        <g
           id="g30"
           transform="translate(393.4396,2116.0784)">
          <path
             d="m 0,0 -264.254,-80.791 c -14.209,-4.297 -22.678,-16.75 -22.676,-33.049 v -301.314 l 264.255,80.791 C -9.531,-330.422 0,-318.765 0,-301.314 Z m 106.561,90.209 v -442.551 l -500,-152.864 v 442.551 z m -156.12,-348.17 v 42.341 l -30.004,-9.174 v -42.341 z m 10e-4,-57.802 -187.764,-57.405 v 34.487 l 33.148,10.134 c 13.538,4.139 21.561,14.931 21.561,32.789 v 62.772 l -54.709,-16.726 v 37.265 l 54.709,16.727 v 64.277 c 0,7.46 -4.49,17.502 -25.151,11.186 l -29.558,-9.037 0.001,34.717 187.763,57.405 v -34.717 l -32.781,-10.022 c -14.007,-4.283 -21.927,-14.724 -21.928,-32.824 v -57.033 l 54.709,16.726 v -37.263 l -54.709,-16.728 v -70.017 c 0,-11.023 8.466,-16.363 25.517,-11.151 l 29.192,8.925 z"
             style="fill:#000000;fill-opacity:1;fill-rule:nonzero;stroke:none"
             id="path32" />
        </g>
        <g
           id="g34"
           transform="translate(295.9601,2393.6145)">
          <path
             d="M 0,0 C 0.958,18.624 0.234,46.22 0.234,46.22 L 174.36,99.456 v 72.461 L 0.234,118.681 v 64.883 L 174.36,236.8 v 72.283 L -295.96,165.292 V 93.009 l 171.289,52.368 V 80.495 L -295.96,28.126 v -72.461 l 171.289,52.368 v -26.794 c 0,-85.807 -46.212,-120.518 -116.395,-142.026 l -54.894,-16.783 v -72.621 l 119.552,36.551 c 91.825,28.029 124.196,60.571 160.588,147.435 19.968,-7.937 74.214,-43.699 96.214,-68.923 L 204.04,-97.326 C 167.044,-56.505 35.261,-6.908 0,0"
             style="fill:#000000;fill-opacity:1;fill-rule:nonzero;stroke:none"
             id="path36" />
        </g>
        <g
           id="g38"
           transform="translate(460.5505,2860.2581)">
          <path
             d="M 0,0 -18.125,-5.542 C -29.986,-9.201 -43.042,-5.673 -52.052,7.64 l -41.35,61.098 -120.17,-36.74 54.406,-80.66 -148.217,-45.315 89.706,293.415 c 3.92,12.822 10.894,20.859 20.449,23.854 l 30.157,9.219 v 48.802 l -148.02,-45.254 -106.513,-348.392 c -4.126,-13.494 -12.104,-20.266 -20.596,-22.861 l -18.35,-5.611 v -70.547 l 500,152.866 z"
             style="fill:#000000;fill-opacity:1;fill-rule:nonzero;stroke:none"
             id="path40" />
        </g>
        <g
           id="g42"
           transform="translate(357.8293,3370.6975)">
          <path
             d="m 0,0 c 49.848,79.042 56.909,128.779 63.956,183.56 2.464,19.82 11.894,30.065 22.564,33.327 l 19.832,6.064 10e-4,73.919 -464.182,-141.914 V 76.65 l 290.701,88.876 C -78.853,-15.359 -166.519,-93.045 -329.256,-142.799 l -28.573,-8.736 v -77.317 l 86.057,26.317 c 111.39,34.049 165.168,66.767 230.862,147.657 16.955,-8.237 39.37,-28.414 52.075,-61.161 l 131.006,40.053 C 123.731,-53.343 45.411,-5.993 0,0 m 116.157,320.611 c 18.717,5.818 29.108,25.302 23.29,43.659 -5.458,18.718 -25.302,29.108 -43.659,23.291 -18.717,-5.819 -28.748,-25.302 -23.29,-43.66 5.818,-18.716 25.301,-28.748 43.659,-23.29 M -9.571,318.81 c -5.457,18.357 4.572,38.201 23.29,43.659 18.358,5.457 37.842,-4.934 43.66,-23.291 5.457,-18.358 -4.574,-37.841 -23.291,-43.659 -18.357,-5.457 -37.842,4.934 -43.659,23.291"
             style="fill:#000000;fill-opacity:1;fill-rule:nonzero;stroke:none"
             id="path44" />
        </g>
        <g
           id="g46"
           transform="translate(180.7917,3985.6882)">
          <path
             d="M 0,0 -10.945,-3.346 C -28.204,-8.624 -36.663,-2.89 -36.663,7.966 v 118.086 c 0,15.868 5.765,27.922 21.817,32.83 L 0,163.421 v 57.442 L -180.792,165.59 v -57.44 l 10.98,3.354 c 17.31,5.292 25.684,-0.419 25.684,-11.209 V -17.789 c 0,-16.018 -5.775,-28.041 -21.784,-32.935 l -14.88,-4.549 v -57.329 L 0,-57.328 Z m 319.208,318.455 v -57.442 l -14.075,-4.304 c -16.23,-4.962 -21.76,-16.477 -21.759,-32.728 V -11.106 c 0,-76.93 -41.321,-135.956 -106.106,-155.536 l -320.02,-97.84 v 77.279 l 228.849,69.967 c 43.962,13.501 64.538,51.703 64.538,103.641 v 204.031 c 0,10.794 -8.419,16.465 -25.703,11.18 l -11.48,-3.509 v 57.442 z"
             style="fill:#000000;fill-opacity:1;fill-rule:nonzero;stroke:none"
             id="path48" />
        </g>
        <g
           id="g50"
           transform="translate(195.9963,4405.2817)">
          <path
             d="m 0,0 c 0,-19.255 -4.048,-28.465 -14.982,-31.803 l -73.151,-22.364 v 258.354 c 0,20.233 11.228,30.361 21.69,33.551 L 0,258.06 Z M 218.226,402.627 -139.69,293.201 c -35.582,-10.878 -56.306,-56.659 -56.306,-113.003 V -70.841 l 112.436,-58.787 134.925,41.25 c 36.322,11.105 56.867,56.226 57.04,110.821 v 268.76 l 61.354,18.757 c 17.375,5.312 26.741,-0.571 26.779,-11.49 V 95.527 c 0,-65.109 -5.288,-81.03 -45.346,-93.277 v -55.017 c 45.051,4.87 87.874,23.563 105.282,34.536 24.661,15.726 47.541,57.877 47.53,128.262 v 247.576 z"
             style="fill:#000000;fill-opacity:1;fill-rule:nonzero;stroke:none"
             id="path52" />
        </g>
        <g
           id="g54"
           transform="translate(336.3019,5036.1167)">
          <path
             d="m 0,0 -41.779,-12.773 c -7.924,-2.423 -18.826,-10.095 -18.826,-25.578 v -74.256 l 41.147,12.58 C -7.751,-96.447 0,-87.116 0,-72.897 Z m 84.722,93.804 78.976,24.146 V 50.047 L 84.722,25.902 v -93.188 c 0,-44.237 -17.779,-74.274 -41.324,-81.477 l -127.424,-38.957 -55.942,29.403 10e-4,113.424 c -10e-4,42.673 16.407,75.019 41.924,82.821 L 0,67.902 V 193.84 l 137.534,42.048 V 169.944 L 103.14,159.428 C 89.291,155.194 84.722,145.215 84.722,130.929 Z m -261.068,45.927 V -92.158 l -114.231,-34.924 v 41.71 l 9.666,2.955 c 13.971,4.271 18.355,14.799 18.355,28.653 v 167.138 l -73.746,-22.546 v 66.753 l 73.746,22.546 v 59.175 l 86.21,26.358 v -59.176 l 126.642,38.718 V 178.45 Z"
             style="fill:#000000;fill-opacity:1;fill-rule:nonzero;stroke:none"
             id="path56" />
        </g>
        <g
           id="g58"
           transform="translate(462.9738,5614.5625)">
          <path
             d="M 0,0 V -18.279 C 0,-33.887 -5.981,-45.185 -21.598,-49.96 l -60.66,-18.545 V 97.867 l -164.56,-50.311 47.991,156.905 c 5.185,15.73 12.616,22.347 20.966,24.9 l 33.401,10.212 v 48.666 l -152.996,-46.775 -123.621,-407.908 c -6.229,-16.782 -13.236,-22.247 -20.854,-24.576 l -21.043,-6.433 v -74.237 l 131.137,40.092 60.834,199.77 85.071,26.009 V -186.99 l 222.958,68.165 V 11.32 Z"
             style="fill:#000000;fill-opacity:1;fill-rule:nonzero;stroke:none"
             id="path60" />
        </g>
        <g
           id="g62"
           transform="translate(167.8752,6046.0532)">
          <path
             d="m 0,0 c 0,-18.67 -9.34,-28.114 -21.239,-31.751 l -49.176,-15.035 v 89.765 c 0,20.805 11.07,29.467 22.258,32.888 L 0,90.59 Z M 180.218,346.506 V 218.915 L 103.344,195.412 V 413.581 L -127.489,343.008 V 269.541 L -25.44,300.74 C -8.725,305.849 0,301.637 0,290.497 V 163.816 L -111.618,129.691 C -146.2,119.118 -167.875,80.481 -167.875,22.695 v -91.943 l 98.033,-51.411 115.592,35.34 c 34.581,10.576 57.536,48.189 57.594,105.958 v 101.547 l 76.874,23.502 V -44.208 l 105.078,32.125 v 189.897 l 46.829,14.317 v 73.997 L 285.296,251.04 v 67.524 c 0,15.555 5.743,27.002 20.757,31.592 l 6.634,2.029 v 34.82 z"
             style="fill:#000000;fill-opacity:1;fill-rule:nonzero;stroke:none"
             id="path64" />
        </g>
      </g>
    </g>
  </g>
</svg>
