<?xml version="1.0" encoding="UTF-8" standalone="no"?>
<!-- Created with Inkscape (http://www.inkscape.org/) -->

<svg
   version="1.1"
   id="svg1"
   width="666.66669"
   height="10811.467"
   viewBox="0 0 666.66669 10811.467"
   sodipodi:docname="Rhythm Tengoku Gold Domestic and Overseas Editions Complete Vocal Collection (リズム天国ゴールド 国内版海外版 全ボーカル集) Logo (Wordmark) (Vertical).ai"
   xmlns:inkscape="http://www.inkscape.org/namespaces/inkscape"
   xmlns:sodipodi="http://sodipodi.sourceforge.net/DTD/sodipodi-0.dtd"
   xmlns="http://www.w3.org/2000/svg"
   xmlns:svg="http://www.w3.org/2000/svg">
  <defs
     id="defs1">
    <clipPath
       clipPathUnits="userSpaceOnUse"
       id="clipPath2">
      <path
         d="M 0,8108.603 H 500 V 0 H 0 Z"
         transform="translate(-227.21371,-165.79325)"
         id="path2" />
    </clipPath>
    <clipPath
       clipPathUnits="userSpaceOnUse"
       id="clipPath4">
      <path
         d="M 0,8108.603 H 500 V 0 H 0 Z"
         transform="translate(-223.8199,-574.02576)"
         id="path4" />
    </clipPath>
    <clipPath
       clipPathUnits="userSpaceOnUse"
       id="clipPath6">
      <path
         d="M 0,8108.603 H 500 V 0 H 0 Z"
         transform="translate(-323.24581,-869.4438)"
         id="path6" />
    </clipPath>
    <clipPath
       clipPathUnits="userSpaceOnUse"
       id="clipPath8">
      <path
         d="M 0,8108.603 H 500 V 0 H 0 Z"
         transform="translate(-277.54251,-986.61802)"
         id="path8" />
    </clipPath>
    <clipPath
       clipPathUnits="userSpaceOnUse"
       id="clipPath10">
      <path
         d="M 0,8108.603 H 500 V 0 H 0 Z"
         transform="translate(-360.30111,-1534.8053)"
         id="path10" />
    </clipPath>
    <clipPath
       clipPathUnits="userSpaceOnUse"
       id="clipPath12">
      <path
         d="M 0,8108.603 H 500 V 0 H 0 Z"
         transform="translate(-280.63471,-1787.3241)"
         id="path12" />
    </clipPath>
    <clipPath
       clipPathUnits="userSpaceOnUse"
       id="clipPath14">
      <path
         d="M 0,8108.603 H 500 V 0 H 0 Z"
         transform="translate(-279.1012,-2159.0454)"
         id="path14" />
    </clipPath>
    <clipPath
       clipPathUnits="userSpaceOnUse"
       id="clipPath16">
      <path
         d="M 0,8108.603 H 500 V 0 H 0 Z"
         transform="translate(-177.81501,-2544.501)"
         id="path16" />
    </clipPath>
    <clipPath
       clipPathUnits="userSpaceOnUse"
       id="clipPath18">
      <path
         d="M 0,8108.603 H 500 V 0 H 0 Z"
         transform="translate(-309.34371,-2834.0489)"
         id="path18" />
    </clipPath>
    <clipPath
       clipPathUnits="userSpaceOnUse"
       id="clipPath20">
      <path
         d="M 0,8108.603 H 500 V 0 H 0 Z"
         transform="translate(-279.1012,-3162.3033)"
         id="path20" />
    </clipPath>
    <clipPath
       clipPathUnits="userSpaceOnUse"
       id="clipPath22">
      <path
         d="M 0,8108.603 H 500 V 0 H 0 Z"
         transform="translate(-276.0091,-3534.0592)"
         id="path22" />
    </clipPath>
    <clipPath
       clipPathUnits="userSpaceOnUse"
       id="clipPath24">
      <path
         d="M 0,8108.603 H 500 V 0 H 0 Z"
         transform="translate(-279.1012,-3775.5968)"
         id="path24" />
    </clipPath>
    <clipPath
       clipPathUnits="userSpaceOnUse"
       id="clipPath26">
      <path
         d="M 0,8108.603 H 500 V 0 H 0 Z"
         transform="translate(-491.04401,-4153.4166)"
         id="path26" />
    </clipPath>
    <clipPath
       clipPathUnits="userSpaceOnUse"
       id="clipPath28">
      <path
         d="M 0,8108.603 H 500 V 0 H 0 Z"
         transform="translate(-320.56081,-4483.6813)"
         id="path28" />
    </clipPath>
    <clipPath
       clipPathUnits="userSpaceOnUse"
       id="clipPath30">
      <path
         d="M 0,8108.603 H 500 V 0 H 0 Z"
         transform="translate(-375.61391,-4910.9708)"
         id="path30" />
    </clipPath>
    <clipPath
       clipPathUnits="userSpaceOnUse"
       id="clipPath32">
      <path
         d="M 0,8108.603 H 500 V 0 H 0 Z"
         transform="translate(-192.742,-5100.4923)"
         id="path32" />
    </clipPath>
    <clipPath
       clipPathUnits="userSpaceOnUse"
       id="clipPath34">
      <path
         d="M 0,8108.603 H 500 V 0 H 0 Z"
         transform="translate(-32.449301,-5579.5764)"
         id="path34" />
    </clipPath>
    <clipPath
       clipPathUnits="userSpaceOnUse"
       id="clipPath36">
      <path
         d="M 0,8108.603 H 500 V 0 H 0 Z"
         transform="translate(-371.76101,-6201.4801)"
         id="path36" />
    </clipPath>
    <clipPath
       clipPathUnits="userSpaceOnUse"
       id="clipPath38">
      <path
         d="M 0,8108.603 H 500 V 0 H 0 Z"
         transform="translate(-292.56211,-6445.3708)"
         id="path38" />
    </clipPath>
    <clipPath
       clipPathUnits="userSpaceOnUse"
       id="clipPath40">
      <path
         d="M 0,8108.603 H 500 V 0 H 0 Z"
         transform="translate(-448.00341,-6888.8917)"
         id="path40" />
    </clipPath>
    <clipPath
       clipPathUnits="userSpaceOnUse"
       id="clipPath42">
      <path
         d="M 0,8108.603 H 500 V 0 H 0 Z"
         transform="translate(-345.82911,-7334.9953)"
         id="path42" />
    </clipPath>
    <clipPath
       clipPathUnits="userSpaceOnUse"
       id="clipPath44">
      <path
         d="M 0,8108.603 H 500 V 0 H 0 Z"
         transform="translate(-193.96971,-7835.4382)"
         id="path44" />
    </clipPath>
  </defs>
  <sodipodi:namedview
     id="namedview1"
     pagecolor="#ffffff"
     bordercolor="#000000"
     borderopacity="0.25"
     inkscape:showpageshadow="2"
     inkscape:pageopacity="0.0"
     inkscape:pagecheckerboard="0"
     inkscape:deskcolor="#d1d1d1">
    <inkscape:page
       x="0"
       y="0"
       inkscape:label="1"
       id="page1"
       width="666.66669"
       height="10811.467"
       margin="0"
       bleed="0" />
  </sodipodi:namedview>
  <g
     id="layer-MC0"
     inkscape:groupmode="layer"
     inkscape:label="Layer 1">
    <path
       id="path1"
       d="M 0,0 V 8.648 H -42.284 V 3.695 C -42.284,1.559 -41.052,0 -38.589,0 Z M 0,40.751 H -42.284 V 32.103 H 0 Z m 0,31.801 h -38.589 c -2.463,0 -3.695,-1.232 -3.695,-3.394 V 63.904 H 0 Z m 1.559,40.147 c 9.251,18.528 15.737,20.992 27.15,20.992 10.81,0 35.824,-2.791 32.43,-20.992 h 64.834 c 5.857,0 22.852,0 22.852,-20.086 0,-20.061 -17.296,-20.061 -22.852,-20.061 H 52.491 v -7.416 h 71.32 c 6.788,0 15.436,-0.905 15.436,-12.344 0,-12.041 -11.112,-12.041 -15.436,-12.041 h -71.32 v -7.416 h 70.717 c 5.229,0 15.737,-0.302 15.737,-12.344 0,-11.715 -10.182,-12.343 -15.737,-12.343 H 52.491 V 1.232 h 83.06 c 11.112,0 21.921,-2.162 21.921,-19.131 0,-16.064 -9.578,-19.458 -21.921,-19.458 H 45.402 v -7.416 h 93.845 c 12.67,0 27.175,-3.067 27.175,-22.223 0,-16.366 -9.88,-22.852 -27.175,-22.852 H 89.848 c 22.851,-9.88 25.315,-10.483 56.186,-19.131 17.296,-4.952 18.226,-16.969 18.226,-22.851 0,-13.274 -7.718,-31.802 -25.013,-31.802 -8.648,0 -30.243,4.651 -66.695,24.712 -13.877,7.416 -17.271,10.483 -26.849,18.503 v -17.899 c 0,-18.201 -6.787,-27.478 -25.617,-27.478 -21.318,0 -31.801,4.651 -31.801,27.478 v 17.296 c -45.075,-33.662 -83.362,-41.053 -92.01,-41.053 -15.435,0 -24.385,16.039 -24.385,30.871 0,13.274 5.858,19.433 22.827,24.084 22.851,5.857 32.429,8.321 50.655,17.27 h -49.725 c -8.95,0 -26.849,1.861 -26.849,20.992 0,12.971 3.696,24.083 26.849,24.083 h 92.638 v 7.416 h -46.332 c -25.315,0 -41.354,8.648 -41.354,41.052 v 14.833 c -17.296,-2.162 -31.198,17.295 -31.198,30.569 0,10.81 2.791,13.575 21.319,31.5 2.765,2.765 16.365,16.969 28.407,35.798 6.788,10.81 11.715,18.226 26.849,18.226 2.463,0 31.198,-0.93 31.499,-21.922 z"
       style="fill:#000000;fill-opacity:1;fill-rule:nonzero;stroke:none"
       transform="matrix(1.3333333,0,0,-1.3333333,302.9516,10590.409)"
       clip-path="url(#clipPath2)" />
    <path
       id="path3"
       d="M 0,0 C 0,16.064 7.718,27.176 29.639,27.176 47.237,27.176 59.907,20.69 59.907,0 v -160.539 c 0,-1.861 0,-3.721 2.464,-3.721 5.254,0 30.569,15.762 44.773,60.208 3.997,12.369 8.019,25.014 25.918,25.014 6.486,0 33.36,-3.695 33.36,-26.547 0,-15.134 -11.438,-44.471 -26.245,-66.066 C 107.144,-220.446 55.885,-238.346 31.198,-238.346 0,-238.346 0,-212.1 0,-205.011 Z m -23.757,-64.206 c 0,-57.443 -1.257,-100.657 -26.245,-142.967 -10.207,-16.969 -23.48,-32.706 -39.217,-32.706 -14.204,0 -34.592,11.715 -34.592,31.801 0,6.461 1.257,11.715 10.207,22.525 27.778,33.661 29.639,50.63 29.639,123.509 v 58.65 c 0,16.366 8.321,27.176 29.941,27.176 18.226,0 30.267,-7.115 30.267,-27.176 z"
       style="fill:#000000;fill-opacity:1;fill-rule:nonzero;stroke:none"
       transform="matrix(1.3333333,0,0,-1.3333333,298.42653,10046.099)"
       clip-path="url(#clipPath4)" />
    <path
       id="path5"
       d="m 0,0 c 45.075,0 45.376,-29.011 45.376,-52.491 0,-27.477 -2.765,-92.311 -8.648,-120.09 -9.879,-46.307 -35.496,-51.561 -72.25,-51.561 -30.871,0 -58.348,0 -58.348,33.033 0,17.598 8.648,28.408 26.874,28.408 4.324,0 23.153,-1.861 26.849,-1.861 16.994,0 18.829,4.626 21.318,25.014 3.393,26.245 4.625,67.298 4.625,70.692 0,8.949 0,12.368 -6.184,12.368 h -45.376 c -8.347,-59.605 -35.824,-115.163 -82.759,-152.218 -11.715,-9.277 -22.826,-15.436 -33.033,-15.436 -14.204,0 -29.941,14.807 -29.941,31.5 0,12.946 8.95,19.759 18.528,26.547 25.013,17.899 56.186,42.284 67.298,109.607 h -53.396 c -7.718,0 -30.871,0 -30.871,28.081 0,27.477 21.293,28.407 30.871,28.407 h 57.418 c 0.629,29.639 0.629,31.173 2.79,37.357 3.696,9.578 12.344,15.134 26.849,15.134 31.5,0 31.5,-19.458 31.5,-30.871 0,-1.86 0,-10.207 -0.629,-21.62 z"
       style="fill:#000000;fill-opacity:1;fill-rule:nonzero;stroke:none"
       transform="matrix(1.3333333,0,0,-1.3333333,430.9944,9652.2083)"
       clip-path="url(#clipPath6)" />
    <path
       id="path7"
       d="m 0,0 c 0,-12.645 -1.232,-33.033 -32.103,-33.033 -30.268,0 -32.731,17.924 -32.731,33.033 v 208.405 c 0,11.74 0.628,33.033 32.103,33.033 C -2.162,241.438 0,222.608 0,208.405 Z"
       style="fill:#000000;fill-opacity:1;fill-rule:nonzero;stroke:none"
       transform="matrix(1.3333333,0,0,-1.3333333,370.05667,9495.976)"
       clip-path="url(#clipPath8)" />
    <path
       id="path9"
       d="m 0,0 c -0.93,2.162 -0.93,4.022 -0.93,5.556 0,9.276 10.81,10.508 13.575,10.508 5.556,0 8.95,-2.79 13.274,-14.204 0.628,-2.162 6.486,-18.527 6.486,-27.477 0,-11.413 -12.042,-11.413 -12.972,-11.413 -7.416,0 -9.252,3.997 -10.81,8.623 -0.604,2.488 -3.394,12.67 -3.997,14.832 C 3.997,-11.413 0.603,-1.835 0,0 m -35.22,-1.534 c -0.905,2.162 -0.905,4.023 -0.905,5.556 0,9.252 10.785,10.509 13.575,10.509 5.556,0 8.95,-2.791 13.274,-14.204 0.628,-2.162 6.486,-18.528 6.486,-27.478 0,-11.438 -12.042,-11.438 -12.972,-11.438 -7.416,0 -9.252,4.022 -10.81,8.648 -0.604,2.464 -3.394,12.67 -3.997,14.832 -0.629,2.162 -4.023,11.715 -4.651,13.575 m 18.528,-131.528 c 5.555,-19.458 11.111,-39.218 27.175,-65.136 10.508,-16.994 11.438,-18.829 11.438,-25.642 0,-18.83 -20.086,-30.544 -36.125,-30.544 -13.298,0 -22.248,8.019 -36.753,37.658 -16.668,33.963 -25.014,71.32 -25.014,79.968 0,19.131 19.458,23.455 28.106,24.687 24.385,3.394 28.709,-11.715 31.173,-20.991 m 4.952,90.476 c 5.857,0 29.639,0 29.639,-28.407 0,-28.408 -22.851,-28.408 -29.639,-28.408 h -72.879 v -146.662 c 0,-14.506 -5.556,-28.408 -30.242,-28.408 -18.83,0 -31.198,7.416 -31.198,28.408 v 146.662 h -72.854 c -6.184,0 -29.941,0 -29.941,28.081 0,28.734 23.154,28.734 29.941,28.734 h 72.854 v 18.503 c 0,13.902 4.952,28.105 30.569,28.105 17.924,0 30.871,-6.486 30.871,-28.105 v -18.503 z m -142.64,-94.172 c 0,-8.648 -8.347,-46.005 -25.014,-79.968 -14.807,-29.639 -23.455,-37.658 -36.728,-37.658 -16.064,0 -36.126,11.714 -36.126,30.544 0,6.813 0.931,8.648 11.414,25.642 15.737,25.918 21.619,45.678 27.175,65.136 2.464,9.276 6.788,24.385 31.173,20.991 8.346,-1.232 28.106,-5.556 28.106,-24.687"
       style="fill:#000000;fill-opacity:1;fill-rule:nonzero;stroke:none"
       transform="matrix(1.3333333,0,0,-1.3333333,480.40147,8765.0596)"
       clip-path="url(#clipPath10)" />
    <path
       id="path11"
       d="m 0,0 c -14.832,11.112 -18.829,13.902 -28.106,22.852 -3.067,2.765 -5.229,3.997 -7.089,3.997 -2.464,0 -4.626,-1.534 -7.114,-3.696 C -47.538,18.528 -56.815,10.181 -71.018,0 Z m -102.493,-54.024 c -8.975,0 -21.921,1.232 -26.572,15.737 -6.159,-3.092 -16.366,-8.321 -26.547,-8.321 -17.598,0 -29.338,17.597 -29.338,34.868 0,14.832 7.416,21.921 15.763,25.944 43.516,21.619 56.814,28.407 85.523,53.421 16.969,14.807 25.617,22.223 48.469,22.223 21.293,0 29.338,-6.788 46.608,-21.318 21.62,-18.201 44.472,-34.869 70.089,-46.307 23.781,-10.81 32.731,-14.807 32.731,-33.335 0,-18.527 -11.74,-35.496 -29.338,-35.496 -9.251,0 -15.435,3.067 -24.686,7.717 C 55.256,-53.094 41.983,-54.024 33.661,-54.024 H -4.324 v -17.598 h 62.672 c 13.274,0 28.106,-3.721 28.106,-26.547 0,-26.245 -20.388,-26.572 -28.106,-26.572 H -4.324 v -18.201 h 89.546 c 20.665,0 28.081,-8.648 28.081,-30.268 0,-24.686 -18.201,-26.245 -28.081,-26.245 h -241.136 c -21.293,0 -28.106,9.88 -28.106,30.268 0,24.686 17.925,26.245 28.106,26.245 h 91.683 v 18.201 h -63.275 c -20.992,0 -27.779,9.578 -27.779,28.407 0,24.385 20.362,24.712 27.779,24.712 h 63.275 v 17.598 z"
       style="fill:#000000;fill-opacity:1;fill-rule:nonzero;stroke:none"
       transform="matrix(1.3333333,0,0,-1.3333333,374.1796,8428.3679)"
       clip-path="url(#clipPath12)" />
    <path
       id="path13"
       d="M 0,0 C 8.019,8.346 20.363,8.346 21.921,8.346 32.405,8.346 36.1,3.721 37.96,0 39.821,-3.394 47.237,-21.594 49.072,-25.617 56.79,-9.251 60.51,4.953 60.51,8.045 c 0,3.695 -2.162,3.997 -6.812,3.997 H 0 Z m 16.969,-71.622 c -6.486,12.042 -12.343,25.014 -17.296,38.287 -0.93,-31.172 -3.997,-49.097 -5.254,-55.256 13.6,8.648 18.855,13.575 22.55,16.969 M -48.795,44.773 C -51.259,32.43 -58.373,27.804 -72.25,27.804 h -47.564 V 6.813 h 11.74 c 27.176,0 44.472,-0.629 44.472,-35.824 v -73.18 c 9.879,25.642 14.807,38.916 14.807,83.689 z M 71.32,63.929 c 21.595,0 38.262,-4.952 38.262,-30.871 0,-27.477 -10.181,-71.018 -27.779,-104.051 4.953,-4.953 8.95,-8.347 21.922,-19.458 5.254,-4.626 11.111,-9.88 11.111,-21.62 0,-17.271 -14.203,-33.636 -31.474,-33.636 -11.74,0 -21.318,7.089 -36.452,25.918 -24.989,-24.988 -34.567,-24.988 -40.122,-24.988 -8.95,0 -17.598,4.927 -23.782,13.273 -2.162,-5.254 -6.788,-14.203 -20.061,-14.203 -11.74,0 -25.316,7.089 -29.338,18.527 -2.765,-4.022 -7.416,-9.578 -22.223,-9.578 -23.153,0 -23.153,17.598 -23.153,23.455 v 63.904 c 0,2.162 -1.861,3.419 -3.394,3.419 h -5.254 c -0.302,-16.064 -1.232,-47.236 -8.648,-76.272 -3.092,-12.972 -8.648,-21.62 -23.153,-21.62 -15.738,0 -30.871,10.206 -30.871,25.315 0,5.883 7.089,33.963 8.321,40.449 4.65,23.782 4.952,46.634 4.952,60.511 v 141.735 c 0,6.788 0,23.455 25.315,23.455 24.687,0 24.687,-16.994 24.687,-23.455 v -45.1 h 10.81 v 47.865 c 0,5.858 0,23.455 23.48,23.455 23.153,0 23.153,-17.597 23.153,-23.455 V 79.038 c 3.696,0 11.112,-4.626 13.576,-14.179 v 38.891 c 0,30.268 13.902,39.821 39.82,39.821 h 96.636 c 22.248,0 27.477,-10.182 27.477,-29.941 0,-22.852 -16.341,-25.316 -27.477,-25.316 H 5.229 C 2.162,88.314 0,86.152 0,83.06 V 63.929 Z"
       style="fill:#000000;fill-opacity:1;fill-rule:nonzero;stroke:none"
       transform="matrix(1.3333333,0,0,-1.3333333,372.13493,7932.7395)"
       clip-path="url(#clipPath14)" />
    <path
       id="path15"
       d="m 0,0 c -2.162,-6.184 -5.857,-15.436 -8.95,-22.55 10.81,-5.857 25.944,-15.109 35.195,-21.595 2.464,8.648 6.185,19.433 7.416,29.313 0.302,2.162 1.861,10.81 1.861,12.368 C 35.522,-0.302 34.29,0 32.731,0 Z m 117.023,58.977 c 0,9.553 1.232,28.08 26.849,28.08 23.782,0 31.801,-8.321 31.801,-28.08 V -52.792 c 4.651,-2.791 26.573,-13.903 30.57,-16.668 5.882,-4.022 13.6,-9.578 13.6,-23.48 0,-18.528 -14.204,-36.728 -31.198,-36.728 -5.857,0 -9.88,2.162 -12.972,3.695 v -53.723 c 0,-9.553 -1.232,-28.08 -27.15,-28.08 -22.852,0 -31.5,7.718 -31.5,28.08 v 98.195 C 105.283,-69.46 93.87,-57.418 83.689,-44.145 73.18,-85.222 59.605,-123.811 31.198,-156.844 c -18.528,-21.921 -53.119,-50.932 -73.482,-50.932 -17.598,0 -31.198,16.969 -31.198,33.335 0,16.064 11.111,22.549 24.712,30.569 11.111,6.486 31.172,18.226 49.7,45.075 -9.578,7.089 -25.315,18.829 -38.589,27.175 -2.79,-2.79 -7.089,-6.787 -15.133,-6.787 -12.646,0 -32.103,11.413 -32.103,30.544 0,8.975 2.162,12.042 18.829,42.008 15.737,28.08 19.458,42.586 28.407,75.644 3.092,11.413 8.02,19.131 25.014,19.131 12.042,0 30.569,-3.696 30.569,-22.852 0,-3.997 -0.93,-9.251 -1.558,-12.343 h 45.401 c 30.243,0 31.475,-25.617 31.475,-33.963 0,-5.858 -0.604,-12.344 -1.232,-18.83 2.162,0.93 6.184,2.766 12.041,2.766 4.953,0 8.95,-1.232 12.972,-3.998 z"
       style="fill:#000000;fill-opacity:1;fill-rule:nonzero;stroke:none"
       transform="matrix(1.3333333,0,0,-1.3333333,237.08667,7418.7987)"
       clip-path="url(#clipPath16)" />
    <path
       id="path17"
       d="M 0,0 C -0.302,-8.321 -0.302,-9.251 -0.302,-12.343 H 13.6 C 13.6,-1.232 13.6,0 10.81,0 Z m 11.112,-73.784 c 0,1.534 0.326,10.182 0.628,12.344 H -2.464 c 0,-0.93 -0.628,-9.88 -0.628,-12.344 z M -61.742,0 c -1.86,0 -2.464,-1.232 -2.464,-2.162 -0.327,-1.232 -0.327,-8.648 -0.628,-10.181 h 13.575 c 0,1.86 0.327,10.181 0.628,12.343 z m 4.927,-73.784 c 0.629,3.696 1.232,11.112 1.232,12.344 H -69.46 c 0,-1.232 -0.93,-8.321 -0.93,-8.648 0,-3.696 2.79,-3.696 3.092,-3.696 z M 30.871,48.167 c 6.788,0 24.712,0 32.43,-13.575 3.695,-6.788 3.695,-9.578 3.092,-47.237 14.807,-2.489 19.759,-12.368 19.759,-22.852 0,-12.67 -4.022,-23.781 -21.016,-25.617 0,-3.72 -0.302,-7.416 -0.905,-15.133 14.204,-2.464 16.969,-15.763 16.969,-22.852 0,-12.67 -7.718,-22.852 -20.69,-22.852 -4.927,-42.284 -13.575,-47.84 -65.764,-47.84 -31.801,0 -48.77,0.302 -48.77,20.992 0,19.432 14.807,19.432 20.061,19.432 3.72,0 20.991,-0.905 24.385,-0.905 15.435,0 16.064,0.302 16.366,7.09 h -109.281 c -13.902,0 -27.477,5.254 -27.477,21.921 0,4.626 2.162,16.366 3.695,24.385 0.302,1.232 2.791,14.204 3.093,16.366 -16.668,3.394 -17.296,17.899 -17.296,23.455 0,3.72 0.628,8.346 2.162,12.368 -4.928,-4.952 -10.81,-7.416 -17.598,-7.416 -8.648,0 -11.74,2.464 -31.801,17.899 -21.293,16.366 -24.687,19.157 -24.687,28.709 0,11.137 10.483,29.338 28.709,29.338 11.715,0 24.084,-9.578 34.265,-17.597 15.737,-12.646 20.69,-17.9 20.69,-27.779 0,-2.791 0,-8.648 -4.953,-16.995 4.023,3.721 8.347,5.556 16.994,6.185 0.604,5.254 0.604,6.787 1.836,21.619 -16.969,1.836 -26.849,16.039 -26.849,27.151 0,8.044 4.022,12.972 7.718,17.597 -4.928,-3.997 -10.182,-6.159 -16.366,-6.159 -9.251,0 -12.645,3.093 -30.243,16.969 -6.486,5.254 -17.597,14.531 -19.156,15.763 -3.997,3.997 -7.089,8.648 -7.089,14.203 0,11.414 10.81,29.941 29.011,29.941 5.857,0 12.67,-0.628 37.055,-20.388 16.064,-13.273 17.598,-18.829 17.598,-25.617 0,-7.717 -2.791,-12.972 -4.324,-16.365 8.647,11.74 16.969,23.781 23.781,36.753 10.785,20.062 14.506,26.849 27.779,26.849 8.346,0 28.106,-4.952 30.57,-19.131 H 55.885 c 9.578,0 27.779,-1.86 27.779,-25.34 0,-19.433 -11.112,-25.919 -27.779,-25.919 H -66.368 c -0.93,-1.232 -4.324,-6.184 -4.952,-7.416 z m -161.47,-115.766 c 0,-11.741 -16.667,-60.209 -18.2,-64.533 -10.81,-29.036 -15.436,-40.751 -32.732,-40.751 -13.902,0 -31.801,10.81 -31.801,25.316 0,7.416 1.534,10.483 9.578,26.546 6.159,11.741 12.645,29.64 19.131,48.469 4.324,12.972 9.251,28.106 25.944,28.106 12.042,0 28.08,-6.486 28.08,-23.153"
       style="fill:#000000;fill-opacity:1;fill-rule:nonzero;stroke:none"
       transform="matrix(1.3333333,0,0,-1.3333333,412.45827,7032.7349)"
       clip-path="url(#clipPath18)" />
    <path
       id="path19"
       d="M 0,0 C 8.019,8.346 20.363,8.346 21.921,8.346 32.405,8.346 36.1,3.721 37.96,0 39.821,-3.394 47.237,-21.595 49.072,-25.617 56.79,-9.251 60.51,4.952 60.51,8.044 c 0,3.696 -2.162,3.998 -6.812,3.998 L 0,12.042 Z m 16.969,-71.622 c -6.486,12.042 -12.343,25.014 -17.296,38.287 -0.93,-31.172 -3.997,-49.097 -5.254,-55.256 13.6,8.648 18.855,13.575 22.55,16.969 M -48.795,44.773 C -51.259,32.43 -58.373,27.804 -72.25,27.804 h -47.564 V 6.813 h 11.74 c 27.176,0 44.472,-0.629 44.472,-35.824 v -73.18 c 9.879,25.642 14.807,38.915 14.807,83.689 z M 71.32,63.929 c 21.595,0 38.262,-4.952 38.262,-30.871 0,-27.477 -10.181,-71.018 -27.779,-104.051 4.953,-4.953 8.95,-8.347 21.922,-19.458 5.254,-4.626 11.111,-9.88 11.111,-21.62 0,-17.271 -14.203,-33.636 -31.474,-33.636 -11.74,0 -21.318,7.089 -36.452,25.918 -24.989,-24.988 -34.567,-24.988 -40.122,-24.988 -8.95,0 -17.598,4.927 -23.782,13.273 -2.162,-5.254 -6.788,-14.203 -20.061,-14.203 -11.74,0 -25.316,7.089 -29.338,18.527 -2.765,-4.022 -7.416,-9.578 -22.223,-9.578 -23.153,0 -23.153,17.598 -23.153,23.455 v 63.904 c 0,2.162 -1.861,3.419 -3.394,3.419 h -5.254 c -0.302,-16.064 -1.232,-47.237 -8.648,-76.272 -3.092,-12.972 -8.648,-21.62 -23.153,-21.62 -15.738,0 -30.871,10.206 -30.871,25.315 0,5.883 7.089,33.963 8.321,40.449 4.65,23.782 4.952,46.634 4.952,60.511 v 141.735 c 0,6.787 0,23.455 25.315,23.455 24.687,0 24.687,-16.994 24.687,-23.455 v -45.1 h 10.81 v 47.865 c 0,5.857 0,23.455 23.48,23.455 23.153,0 23.153,-17.598 23.153,-23.455 V 79.038 c 3.696,0 11.112,-4.626 13.576,-14.179 v 38.891 c 0,30.268 13.902,39.82 39.82,39.82 h 96.636 c 22.248,0 27.477,-10.181 27.477,-29.94 0,-22.852 -16.341,-25.316 -27.477,-25.316 H 5.229 C 2.162,88.314 0,86.152 0,83.06 V 63.929 Z"
       style="fill:#000000;fill-opacity:1;fill-rule:nonzero;stroke:none"
       transform="matrix(1.3333333,0,0,-1.3333333,372.13493,6595.0624)"
       clip-path="url(#clipPath20)" />
    <path
       id="path21"
       d="m 0,0 c 3.695,-24.083 11.715,-45.376 24.083,-61.139 2.766,-3.695 19.131,-21.293 21.922,-25.918 V -6.486 C 46.005,-2.464 43.214,0 39.519,0 Z m -109.306,-80.898 c 22.55,25.642 36.427,42.007 42.913,80.898 h -36.125 c -3.997,0 -6.788,-2.791 -6.788,-6.486 z m 0,-92.01 c 0,-9.88 -1.231,-28.081 -26.848,-28.081 -23.154,0 -31.5,7.718 -31.5,28.081 V 14.204 c 0,35.195 19.131,42.912 42.913,42.912 h 61.44 V 68.53 c 0,9.578 1.232,28.105 28.106,28.105 23.153,0 32.405,-7.718 32.405,-28.105 V 57.116 h 64.532 c 25.315,0 42.611,-8.949 42.611,-42.912 v -171.652 c 0,-43.239 -25.315,-43.239 -61.44,-43.239 -21.922,0 -26.246,0.628 -30.871,1.232 -20.087,3.394 -21.318,22.55 -21.318,29.337 0,21.62 11.74,29.011 27.804,29.011 3.393,0 20.061,-0.603 22.223,-0.301 3.394,0.628 5.254,2.79 5.254,6.787 v 23.48 c -6.813,-18.527 -21.922,-22.55 -30.569,-22.55 -15.763,0 -26.874,16.994 -33.034,27.477 -7.717,13.601 -10.809,22.224 -15.762,37.056 -2.463,-7.718 -6.787,-20.388 -18.201,-40.449 -4.625,-8.321 -16.667,-27.779 -33.963,-27.779 -13.6,0 -19.759,7.089 -23.782,11.715 z"
       style="fill:#000000;fill-opacity:1;fill-rule:nonzero;stroke:none"
       transform="matrix(1.3333333,0,0,-1.3333333,368.01213,6099.3879)"
       clip-path="url(#clipPath22)" />
    <path
       id="path23"
       d="M 0,0 C 0,4.022 -0.327,8.346 -0.93,12.042 H -11.74 V 0 Z m -92.638,-46.608 c -9.578,0 -24.687,0 -24.687,23.153 C -117.325,0 -102.216,0 -92.638,0 h 26.245 v 12.042 h -21.62 c -8.949,0 -24.385,0 -24.385,20.086 0,20.363 15.436,20.363 24.385,20.363 h 21.62 v 7.416 h -24.385 c -8.648,0 -24.712,0 -24.712,21.293 0,17.924 9.88,24.083 24.712,24.083 H 24.083 c 3.998,0 24.687,-0.603 24.687,-23.153 0,-22.223 -16.064,-22.223 -24.687,-22.223 H -11.74 v -7.416 h 32.404 c 10.207,0 24.084,-0.604 24.084,-20.061 0,-3.092 0,-13.274 -8.648,-18.226 1.559,-8.95 2.162,-12.947 2.162,-15.737 8.648,-4.324 10.81,-12.645 10.81,-21.62 0,-23.153 -14.807,-23.455 -24.687,-23.455 z M 50.304,106.54 c 0,3.696 -1.534,6.159 -5.858,6.159 h -156.542 c -3.997,0 -6.159,-2.162 -6.159,-6.159 V -47.84 c 0,-3.695 1.533,-6.184 6.159,-6.184 H 44.446 c 3.696,0 5.858,1.86 5.858,6.184 z m 55.281,-172.908 c 0,-33.963 -16.366,-43.214 -43.541,-43.214 h -192.039 c -26.849,0 -43.516,9.251 -43.516,43.214 v 191.411 c 0,34.579 17.27,43.227 43.516,43.227 H 62.044 c 28.105,0 43.541,-10.194 43.541,-43.227 z"
       style="fill:#000000;fill-opacity:1;fill-rule:nonzero;stroke:none"
       transform="matrix(1.3333333,0,0,-1.3333333,372.13493,5777.3377)"
       clip-path="url(#clipPath24)" />
    <path
       id="path25"
       d="m 0,0 v 37.978 l -8.851,-40.185 -9.587,-2.39 -8.64,35.824 V -6.751 l -9.062,-2.26 v 45.464 l 14.157,3.529 8.536,-33.932 0.105,0.026 8.325,38.136 13.973,3.484 V 2.233 Z m -65.424,-16.312 v 37.4 l -14.577,-3.634 v 8.036 l 38.556,9.614 v -8.038 l -14.051,-3.503 v -37.4 z"
       style="fill:#000000;fill-opacity:1;fill-rule:nonzero;stroke:none"
       transform="matrix(1.3333333,0,0,-1.3333333,654.72533,5273.578)"
       clip-path="url(#clipPath26)" />
    <path
       id="path27"
       d="M 0,0 C 15.977,4.967 24.54,21.598 19.882,37.269 14.916,52.939 -1.717,61.81 -17.388,57.151 -33.366,52.492 -41.928,35.552 -37.269,19.881 -32.303,4.212 -15.671,-4.658 0,0 M 32.788,41.301 C 28.129,56.972 36.692,73.603 52.67,78.57 68.339,83.536 85.28,74.667 89.939,58.688 94.905,43.019 86.034,26.386 70.057,21.419 54.387,16.76 37.755,25.323 32.788,41.301 m -140.414,-86.76 v 75.154 c 0,12.375 10.084,25.519 22.574,29.338 l 9.643,2.947 v 50.487 L -252.483,58.331 V 7.843 l 17.129,5.238 c 8.374,2.56 15.087,-2.119 15.087,-10.332 l -0.001,-232.888 c 0,-12.375 -10.084,-25.518 -22.573,-29.337 l -9.643,-2.948 v -50.487 l 177.074,54.137 v 50.487 l -17.129,-5.237 c -8.374,-2.56 -15.087,2.118 -15.087,10.331 v 95.308 c 0,0 80.968,30.24 195.677,-69.053 v 108.792 c -86.16,57.216 -195.677,22.687 -195.677,22.687"
       style="fill:#000000;fill-opacity:1;fill-rule:nonzero;stroke:none"
       transform="matrix(1.3333333,0,0,-1.3333333,427.4144,4833.2251)"
       clip-path="url(#clipPath28)" />
    <path
       id="path29"
       d="M 0,0 C 0,0 -7.842,-113.998 -76.414,-150.511 V 80.165 c 0.001,11.027 8.889,22.621 19.917,25.993 l 11.14,3.405 v 49.594 l -142.794,-43.657 0.001,-366.271 93.062,28.453 C 54.439,-176.604 87.25,-66.317 106.889,32.68 Z m -236.534,58.184 v -219.433 c 0,-89.522 -51.05,-119.922 -139.08,-146.836 v 66.391 c 39.215,11.989 47.936,45.778 47.936,72.334 l -10e-4,130.547 c 0,11.028 -8.865,17.19 -19.916,13.812 l -10.578,-3.234 v 49.231 z"
       style="fill:#000000;fill-opacity:1;fill-rule:nonzero;stroke:none"
       transform="matrix(1.3333333,0,0,-1.3333333,500.81853,4263.5057)"
       clip-path="url(#clipPath30)" />
    <path
       id="path31"
       d="M 0,0 67.72,20.704 V 228.056 L 0,207.352 Z"
       style="fill:#000000;fill-opacity:1;fill-rule:nonzero;stroke:none"
       transform="matrix(1.3333333,0,0,-1.3333333,256.98933,4010.8104)"
       clip-path="url(#clipPath32)" />
    <path
       id="path33"
       d="m 0,0 205.705,62.89 c 25.179,7.698 45.408,-6.416 45.408,-31.515 L 251.112,-115.698 0,-192.471 v -67.427 l 362.966,110.97 V 96.735 c 0,9.698 9.385,20.557 19.236,23.569 l 16.829,5.145 v 64.575 L 0,68.028 Z m 337.687,186.441 c 15.957,4.96 24.51,21.571 19.857,37.223 -4.96,15.65 -21.572,24.509 -37.223,19.857 -15.959,-4.653 -24.51,-21.572 -19.857,-37.223 4.96,-15.651 21.572,-24.51 37.223,-19.857 m 69.97,21.392 c -15.651,-4.653 -32.262,3.899 -37.223,19.857 -4.653,15.652 3.899,32.263 19.857,37.223 15.65,4.96 32.57,-3.898 37.223,-19.857 4.96,-15.65 -3.899,-32.262 -19.857,-37.223"
       style="fill:#000000;fill-opacity:1;fill-rule:nonzero;stroke:none"
       transform="matrix(1.3333333,0,0,-1.3333333,43.265733,3372.0317)"
       clip-path="url(#clipPath34)" />
    <path
       id="path35"
       d="m 0,0 -229.655,-70.213 c -12.349,-3.735 -19.709,-14.558 -19.707,-28.722 v -261.863 l 229.656,70.214 C -8.283,-287.16 0,-277.029 0,-261.863 Z M 92.608,78.398 V -306.209 L -341.926,-439.06 V -54.452 Z M -43.07,-224.187 v 36.798 l -26.076,-7.973 v -36.797 z m 10e-4,-50.233 -163.18,-49.889 v 29.972 l 28.808,8.807 c 11.766,3.597 18.738,12.976 18.738,28.496 v 54.554 l -47.546,-14.537 v 32.386 l 47.546,14.536 v 55.862 c 0,6.483 -3.902,15.211 -21.858,9.721 l -25.688,-7.854 v 30.172 l 163.18,49.888 v -30.171 l -28.489,-8.71 c -12.174,-3.721 -19.057,-12.796 -19.057,-28.526 v -49.565 l 47.546,14.536 v -32.384 l -47.546,-14.538 v -60.85 c 0,-9.579 7.357,-14.221 22.176,-9.691 l 25.37,7.757 z"
       style="fill:#000000;fill-opacity:1;fill-rule:nonzero;stroke:none"
       transform="matrix(1.3333333,0,0,-1.3333333,495.68133,2542.8267)"
       clip-path="url(#clipPath36)" />
    <path
       id="path37"
       d="m 0,0 v 43.055 l 162.039,49.54 -10e-4,67.431 L 0,110.486 v 60.379 l 162.038,49.54 V 287.67 L -275.632,153.86 V 86.596 l 159.398,48.732 V 74.949 L -275.632,26.217 v -67.431 l 159.398,48.733 v -24.935 c 0,-79.85 -43.004,-112.151 -108.314,-132.166 l -51.084,-15.618 v -67.58 l 111.252,34.013 c 85.451,26.084 115.575,56.367 149.441,137.201 18.582,-7.386 69.062,-40.665 89.534,-64.139 l 115.063,35.179 C 155.23,-52.539 32.814,-6.429 0,0"
       style="fill:#000000;fill-opacity:1;fill-rule:nonzero;stroke:none"
       transform="matrix(1.3333333,0,0,-1.3333333,390.0828,2217.6392)"
       clip-path="url(#clipPath38)" />
    <path
       id="path39"
       d="M 0,0 -16.865,-5.157 C -27.901,-8.562 -40.049,-5.278 -48.433,7.108 l -38.476,56.851 -111.816,-34.186 50.624,-75.052 -137.913,-42.165 83.47,273.017 c 3.647,11.931 10.136,19.41 19.028,22.196 l 28.06,8.578 v 45.41 l -137.73,-42.108 -99.109,-324.173 c -3.839,-12.556 -11.263,-18.857 -19.164,-21.272 l -17.075,-5.221 v -65.642 L 36.707,-54.42 Z"
       style="fill:#000000;fill-opacity:1;fill-rule:nonzero;stroke:none"
       transform="matrix(1.3333333,0,0,-1.3333333,597.33787,1626.2779)"
       clip-path="url(#clipPath40)" />
    <path
       id="path41"
       d="m 0,0 c 42.759,67.801 48.816,110.464 54.86,157.454 2.114,17.002 10.202,25.79 19.355,28.588 l 17.012,5.201 v 63.406 l -398.166,-121.732 -10e-4,-67.168 249.359,76.236 c -5.744,-88.612 -37.547,-207.212 -177.141,-249.89 l -72.218,-22.079 v -66.321 l 73.819,22.574 c 95.548,29.207 141.678,57.272 198.029,126.657 14.544,-7.065 33.771,-24.372 44.669,-52.462 L 121.952,-65.18 C 106.135,-45.757 38.953,-5.141 0,0 m 29.24,253.491 c 16.055,4.99 24.659,21.703 19.979,37.45 -4.991,15.746 -21.704,24.659 -37.451,19.978 -16.056,-4.682 -24.659,-21.703 -19.978,-37.45 4.99,-15.746 21.703,-24.659 37.45,-19.978 m 32.947,41.501 c -4.681,15.747 3.923,32.459 19.978,37.45 15.746,4.99 32.768,-3.922 37.45,-19.978 4.991,-15.746 -3.923,-32.459 -19.978,-37.45 -15.746,-4.681 -32.459,3.923 -37.45,19.978"
       style="fill:#000000;fill-opacity:1;fill-rule:nonzero;stroke:none"
       transform="matrix(1.3333333,0,0,-1.3333333,461.10547,1031.4732)"
       clip-path="url(#clipPath42)" />
    <path
       id="path43"
       d="m 0,0 -9.389,-2.87 c -14.804,-4.526 -22.06,0.391 -22.06,9.703 v 101.292 c 0,13.611 4.945,23.952 18.714,28.161 L 0,140.18 v 49.273 L -155.08,142.04 V 92.77 l 9.418,2.876 c 14.848,4.54 22.032,-0.359 22.032,-9.614 V -15.259 c 0,-13.74 -4.954,-24.053 -18.686,-28.251 l -12.764,-3.902 V -96.587 L 0,-49.174 Z m 273.811,273.165 v -49.273 l -12.074,-3.691 c -13.921,-4.257 -18.665,-14.135 -18.664,-28.074 V -9.526 c 0,-65.989 -35.445,-116.621 -91.016,-133.416 l -274.507,-83.926 v 66.289 l 196.302,60.016 c 37.71,11.582 55.36,44.351 55.36,88.902 v 175.014 c 0,9.258 -7.222,14.123 -22.048,9.59 l -9.847,-3.01 v 49.273 z"
       style="fill:#000000;fill-opacity:1;fill-rule:nonzero;stroke:none"
       transform="matrix(1.3333333,0,0,-1.3333333,258.62627,364.216)"
       clip-path="url(#clipPath44)" />
  </g>
</svg>
