<?xml version="1.0" encoding="UTF-8" standalone="no"?>
<!-- Created with Inkscape (http://www.inkscape.org/) -->

<svg
   version="1.1"
   id="svg2"
   width="666.66669"
   height="810.27466"
   viewBox="0 0 666.66669 810.27466"
   sodipodi:docname="Rhythm Tengoku Complete Music Collection (リズム天国全曲集) Logo (Wordmark).ai"
   xmlns:inkscape="http://www.inkscape.org/namespaces/inkscape"
   xmlns:sodipodi="http://sodipodi.sourceforge.net/DTD/sodipodi-0.dtd"
   xmlns="http://www.w3.org/2000/svg"
   xmlns:svg="http://www.w3.org/2000/svg">
  <defs
     id="defs6">
    <clipPath
       clipPathUnits="userSpaceOnUse"
       id="clipPath16">
      <path
         d="M 0,607.706 H 500 V 0 H 0 Z"
         id="path14" />
    </clipPath>
  </defs>
  <sodipodi:namedview
     id="namedview4"
     pagecolor="#ffffff"
     bordercolor="#000000"
     borderopacity="0.25"
     inkscape:showpageshadow="2"
     inkscape:pageopacity="0.0"
     inkscape:pagecheckerboard="0"
     inkscape:deskcolor="#d1d1d1" />
  <g
     id="g8"
     inkscape:groupmode="layer"
     inkscape:label="Rhythm Tengoku Complete Music Collection (リズム天国全曲集) Logo (Wordmark)"
     transform="matrix(1.3333333,0,0,-1.3333333,0,810.27467)">
    <g
       id="g10">
      <g
         id="g12"
         clip-path="url(#clipPath16)">
        <g
           id="g18"
           transform="translate(413.3309,204.0487)">
          <path
             d="m 0,0 -16.72,-5.112 c 0,4.033 2.462,6.965 6.486,8.195 L 0,6.211 Z m 0,-16.786 -16.72,-5.112 v 6.688 L 0,-10.098 Z m 0,-16.429 -16.72,-5.112 v 6.464 L 0,-26.751 Z m 86.669,8.841 -58.626,-17.924 v 5.405 l 46.204,14.126 v 12.252 L 28.043,-24.641 v 6.463 l 29.808,9.114 V 0.901 L 28.043,-8.212 v 6.688 L 56.838,7.28 V 17.377 L 28.043,8.573 c 0,4.334 2.391,6.943 7.121,8.389 l 38.629,11.81 V 41.144 L 31.269,28.143 c 6.329,7.14 7.795,15.21 7.795,20.975 L 13.785,41.39 C 12.51,31.111 7.634,19.504 -4.015,18.24 c 0,0 4.919,9.592 4.919,19.212 L -31.882,27.428 C -33.953,-1.537 -42.306,-0.239 -56.871,-4.692 v -22.924 l 14.478,4.426 V -58.427 L 0,-45.466 v -5.406 l -56.871,-17.387 v -12.098 l 41.838,12.792 c -2.86,-7.953 -9.653,-16.336 -21.084,-19.83 l -20.754,-6.345 v -13.623 l 32.185,9.84 c 13.787,4.215 19.887,9.734 24.686,18.919 v -11.372 l 28.043,8.574 v 18.278 c 12.504,-1.634 21.007,-7.255 24.254,-10.863 l 33.79,10.331 c -10.132,10.082 -31.285,14.669 -40.204,14.715 l 40.786,12.469 z"
             style="fill:#000000;fill-opacity:1;fill-rule:nonzero;stroke:none"
             id="path20" />
        </g>
        <g
           id="g22"
           transform="translate(452.7003,277.5801)">
          <path
             d="m 0,0 c -1.428,1.601 -3.533,1.011 -4.67,0.664 -1.209,-0.37 -2.25,-0.793 -5.95,-2.428 -3.073,-1.363 -3.968,-1.716 -4.911,-2.085 L -15,-6.757 c 5.395,2.656 8.323,4.081 9.944,4.576 2.297,0.702 3.459,0.236 3.459,-2.889 0,-4.288 -2.009,-8.212 -11.128,-10.895 l 0.508,-2.519 c 5.442,1.955 13.473,5.153 13.473,14.155 C 1.256,-3.719 1.233,-1.371 0,0 M -2.009,3.172 C -5.879,3.657 -12.241,2.268 -13.281,2.03 l 0.411,2.879 c 0.726,0.169 6.773,1.672 11.586,1.477 z"
             style="fill:#000000;fill-opacity:1;fill-rule:nonzero;stroke:none"
             id="path24" />
        </g>
        <g
           id="g26"
           transform="translate(418.3668,257.9698)">
          <path
             d="M 0,0 C 0.514,2.12 0.514,4.309 0.441,7.98 3.233,8.299 3.233,5.446 3.233,4.988 3.233,4.402 3.233,1.55 0,0 m 0.391,10.334 c 0,0.406 -0.048,2.329 -0.073,2.6 l -2.523,-0.847 c 0.073,-1.2 0.097,-1.754 0.147,-2.603 -0.883,-0.45 -3.797,-1.976 -6.565,-5.804 0.048,2.027 0.22,3.864 0.514,5.966 l -2.572,-0.661 c -0.123,-1.692 -0.344,-4.611 -0.344,-8.586 0,-3.693 0.197,-5.544 0.367,-6.866 l 2.378,1.057 c -0.417,2.446 -0.442,3.738 -0.369,5.364 1.226,3.305 4.19,5.942 6.664,7.208 0.074,-3.646 0.024,-5.774 -0.466,-7.655 -1.762,0.224 -2.106,2.08 -2.253,3.106 L -6.885,1.131 c 0.467,-2.355 1.348,-3.767 3.259,-4.099 -0.98,-1.267 -1.862,-1.817 -2.622,-2.279 l 1.519,-1.547 c 0.857,0.592 2.548,1.771 3.725,4.042 5.462,1.542 6.712,6.102 6.712,8.572 0,2.497 -1.201,5.364 -5.317,4.514"
             style="fill:#000000;fill-opacity:1;fill-rule:nonzero;stroke:none"
             id="path28" />
        </g>
        <g
           id="g30"
           transform="translate(391.7229,255.907)">
          <path
             d="m 0,0 c -0.911,-4.867 -2.24,-8.869 -7.804,-10.57 -3.225,-0.986 -4.136,0.051 -4.136,4.209 0,0.698 0.197,12.215 0.221,14.503 l -3.003,-0.864 c -0.098,-5.236 -0.098,-8.805 -0.098,-11.192 0,-4.749 0,-7.057 1.033,-8.459 0.911,-1.249 2.66,-2.03 6.352,-0.901 8.173,2.499 9.553,10.057 10.143,13.27 z"
             style="fill:#000000;fill-opacity:1;fill-rule:nonzero;stroke:none"
             id="path32" />
        </g>
        <g
           id="g34"
           transform="translate(298.0592,148.6488)">
          <path
             d="M 0,0 -15.477,-4.732 V 24.221 L 0,28.953 Z m 0,-30.756 c 0,-4.872 -3.615,-9.926 -8.073,-11.289 l -7.404,-2.264 v 27.374 L 0,-12.203 Z m -33.621,20.477 -14.067,-4.301 v 28.954 l 14.067,4.3 z m 0,-39.577 -14.067,-4.301 v 27.374 l 14.067,4.301 z m -32.211,29.73 -15.477,-4.732 v 20.131 c 0,4.872 3.615,9.927 8.073,11.29 l 7.404,2.263 z m 0,-39.578 -15.477,-4.732 v 27.374 l 15.477,4.732 z M -15.477,41.067 V 67.093 L -33.621,61.546 V 35.52 L -47.688,31.219 V 57.245 L -65.832,51.698 V 25.672 L -112.263,11.477 V -90.586 L 30.954,-46.8 V 55.263 Z"
             style="fill:#000000;fill-opacity:1;fill-rule:nonzero;stroke:none"
             id="path36" />
        </g>
        <g
           id="g38"
           transform="translate(282.3172,234.3938)">
          <path
             d="m 0,0 c -0.719,0.203 -1.834,0.526 -1.834,1.187 0,0.558 0.495,1.132 1.71,2.484 4.833,5.426 5.379,6.044 8.874,10.398 L 6.099,15.245 C 4.364,12.86 3.693,12.045 -1.313,6.09 -3.892,3.022 -5.131,1.319 -5.131,0.02 c 0,-1.696 1.785,-2.262 3.792,-2.894 3.743,-1.161 7.313,-2.639 10.659,-4.531 l 2.454,2.949 C 9.519,-3.079 3.645,-1.006 0,0"
             style="fill:#000000;fill-opacity:1;fill-rule:nonzero;stroke:none"
             id="path40" />
        </g>
        <g
           id="g42"
           transform="translate(254.4539,220.0436)">
          <path
             d="m 0,0 c 0,-1.387 -1.483,-1.972 -2.139,-2.172 -1.677,-0.513 -2.284,0.296 -2.284,1.108 0,1.073 0.997,2.112 2.698,2.632 C -0.947,1.805 -0.437,1.856 0,1.86 Z M 2.625,4.626 V 8.84 l 6.516,1.992 v 2.749 L 2.625,11.589 v 3.455 L -0.024,14.234 0,4.477 C -0.413,4.403 -0.851,4.321 -1.506,4.12 -4.618,3.169 -6.829,0.818 -6.829,-1.982 c 0,-2.749 2.162,-3.581 4.86,-2.756 0.949,0.29 2.432,0.926 3.525,2.255 0.803,0.979 1.045,2.18 1.045,3.253 V 1.764 C 4.886,1.311 6.417,0.6 8.119,-0.763 L 9.942,2.359 C 7.414,3.838 4.935,4.442 2.625,4.626"
             style="fill:#000000;fill-opacity:1;fill-rule:nonzero;stroke:none"
             id="path44" />
        </g>
        <g
           id="g46"
           transform="translate(219.0545,210.7439)">
          <path
             d="M 0,0 C 0,0.48 0.217,1.935 2.077,3.944 L 0.17,4.776 c -2.728,-2.943 -2.728,-5.158 -2.728,-5.692 0,-0.374 0.047,-3.751 4.537,-3.259 1.69,0.17 4.973,1.12 6.807,1.681 2.366,0.723 3.645,1.221 4.515,1.567 V 1.904 C 12.408,1.523 11.056,0.923 7.267,-0.235 3.694,-1.328 0,-2.457 0,0 M 3.813,7.386 -4.539,4.833 v 2.615 l 8.546,2.613 c 0.411,0.125 0.749,0.229 1.787,0.574 -0.121,0.417 -0.338,1.177 -0.7,2.669 C 4.901,13.245 4.056,12.959 3.886,12.907 l -7.555,-2.31 v 2.618 l 7.508,2.295 c 0.072,0.022 0.675,0.234 0.819,0.304 -0.192,1.382 -0.24,2.142 -0.289,2.929 l 2.776,1.089 c 0.024,-0.795 0.049,-1.428 0.241,-3.024 3.332,1.233 5.19,2.335 6.06,2.867 l 0.264,-2.642 c -1.93,-1.15 -3.668,-1.842 -5.913,-2.716 0.144,-0.782 0.459,-2.023 0.7,-2.749 1.955,0.731 4.466,1.685 6.831,3.182 l 0.41,-2.463 C 13.566,10.928 11.684,10.193 9.293,9.248 9.993,7.593 10.284,6.908 11.465,5.694 L 9.029,3.587 C 8.376,4.321 7.701,5.184 6.59,8.261 5.624,7.94 4.805,7.689 3.813,7.386"
             style="fill:#000000;fill-opacity:1;fill-rule:nonzero;stroke:none"
             id="path48" />
        </g>
        <g
           id="g50"
           transform="translate(65.7925,91.7434)">
          <path
             d="M 0,0 -44.604,-13.637 V 9.155 l 27.826,8.507 C 5.958,24.613 8.193,53.373 8.193,53.373 l 37.88,11.581 c 0,-6.365 -2.14,-12.957 -2.14,-12.957 C 51.148,51.973 90.564,41.914 98.25,30.038 L 60.958,18.637 C 55.364,24.415 42.733,30.172 35.652,31.788 27.369,16.275 13.268,4.056 0,0 m 55.425,-47.735 c -5.93,-1.804 -10.698,1.587 -10.698,7.487 v 6.477 L 85.9,-21.182 V -7.49 L 44.727,-20.078 v 6.488 c 0,4.464 3.607,9.164 8.039,10.509 L 86.451,7.217 V 20.909 L -31.446,-15.135 v -13.693 l 33.685,10.299 c 4.432,1.345 8.039,-1.16 8.039,-5.593 v -6.488 l -41.174,-12.588 v -13.693 l 41.174,12.588 v -6.477 c 0,-5.9 -4.799,-12.235 -10.729,-14.038 l -43.313,-13.243 v -13.682 l 142.503,43.567 v 13.683 z"
             style="fill:#000000;fill-opacity:1;fill-rule:nonzero;stroke:none"
             id="path52" />
        </g>
        <g
           id="g54"
           transform="translate(116.8552,188.9987)">
          <path
             d="m 0,0 c -0.523,-1.754 -2.764,-9.182 -3.174,-10.712 l 0.037,-0.037 c 0.485,0.56 1.419,1.568 3.062,2.09 3.81,1.121 3.959,-2.686 3.959,-4.776 v -1.12 c 0,-0.783 0,-3.135 2.054,-2.537 2.316,0.672 3.287,4.293 3.735,9.07 l 2.539,-0.074 c -0.635,-5.935 -1.979,-10.637 -6.498,-11.982 -4.482,-1.344 -4.519,3.171 -4.519,4.627 v 0.896 c 0,1.679 0.037,3.396 -1.793,2.836 -2.39,-0.71 -3.846,-3.546 -4.705,-6.346 -0.224,-0.97 -1.158,-5.113 -1.382,-5.972 L -9.449,-24 c 1.419,4.964 4.818,17.654 6.424,23.663 z"
             style="fill:#000000;fill-opacity:1;fill-rule:nonzero;stroke:none"
             id="path56" />
        </g>
        <g
           id="g58"
           transform="translate(71.8721,175.9727)">
          <path
             d="m 0,0 -2.715,-0.909 c 0.097,-1.262 0.145,-2.09 0.267,-5.53 l -7.639,-2.442 0.025,5.173 -2.571,-0.786 -0.024,-5.198 -3.807,-1.217 0.05,-2.726 3.734,1.195 -0.049,-5.784 c 0,-0.765 0,-3.373 0.703,-4.66 1.503,-2.702 3.976,-1.971 7.71,-0.83 3.08,0.942 4.147,1.294 7.274,2.433 l -0.12,2.836 c -2.231,-0.893 -6.111,-2.158 -6.645,-2.321 -5.504,-1.683 -6.353,-1.706 -6.327,3.414 l 0.023,5.723 7.711,2.464 c -0.097,-4.667 -0.219,-5.573 -2.061,-6.137 -0.898,-0.274 -1.625,-0.313 -2.57,-0.337 l -0.025,-2.853 c 0.68,0.05 1.819,0.134 3.007,0.497 4.34,1.327 4.34,5.043 4.34,9.679 l 4.535,1.465 V -4.11 L 0.267,-5.557 C 0.218,-4.307 0.073,-0.979 0,0 M 3.347,-1.771 C 3.274,-0.95 2.886,0.855 2.473,1.704 L 0.703,0.873 c 0.436,-1.289 0.656,-2.592 0.753,-3.617 z m 0.922,0.31 C 4.219,-1.188 3.88,0.896 3.394,2.092 L 5.263,2.951 C 5.577,2.1 5.722,1.485 6.135,-0.549 Z"
             style="fill:#000000;fill-opacity:1;fill-rule:nonzero;stroke:none"
             id="path60" />
        </g>
        <g
           id="g62"
           transform="translate(420.9399,300.8498)">
          <path
             d="M 0,0 V 13.2 L -3.076,-0.874 -6.408,-1.822 -9.411,10.524 V -2.675 l -3.15,-0.895 v 15.801 l 4.921,1.398 2.966,-11.69 0.037,0.011 2.893,13.356 4.857,1.38 V 0.885 Z M -22.739,-6.463 V 6.535 l -5.066,-1.44 v 2.794 l 13.4,3.809 V 8.904 L -19.288,7.516 V -5.483 Z"
             style="fill:#000000;fill-opacity:1;fill-rule:nonzero;stroke:none"
             id="path64" />
        </g>
        <g
           id="g66"
           transform="translate(354.9588,389.1793)">
          <path
             d="m 0,0 -73.055,-22.335 c -3.928,-1.188 -6.269,-4.631 -6.268,-9.137 v -83.3 l 73.054,22.335 C -2.635,-91.347 0,-88.125 0,-83.3 Z M 29.459,24.939 V -97.407 l -138.228,-42.26 v 122.346 z m -43.16,-96.254 v 11.705 l -8.295,-2.536 v -11.705 z m 0,-15.98 -51.908,-15.869 v 9.534 l 9.164,2.801 c 3.743,1.145 5.961,4.128 5.961,9.065 v 17.354 l -15.125,-4.624 v 10.302 l 15.125,4.624 v 17.77 c 0,2.062 -1.242,4.838 -6.954,3.092 l -8.171,-2.498 v 9.598 l 51.908,15.869 v -9.597 l -9.062,-2.771 c -3.873,-1.184 -6.062,-4.07 -6.062,-9.074 v -15.767 l 15.124,4.624 v -10.302 l -15.124,-4.624 v -19.357 c 0,-3.047 2.34,-4.524 7.054,-3.083 l 8.07,2.468 z"
             style="fill:#000000;fill-opacity:1;fill-rule:nonzero;stroke:none"
             id="path68" />
        </g>
        <g
           id="g70"
           transform="translate(349.4276,411.909)">
          <path
             d="m 0,0 c -4.158,2.457 -6.2,3.138 -11.682,5.028 -1.134,0.416 -2.532,1.172 -2.532,2.533 0,1.323 1.361,3.138 2.986,5.103 6.427,7.75 6.54,7.977 8.052,10.094 l 2.609,-1.21 c -3.554,-4.498 -4.196,-5.179 -9.565,-11.303 -0.529,-0.567 -0.869,-1.096 -0.869,-1.55 0,-0.68 1.134,-1.021 1.815,-1.21 3.402,-0.983 9.224,-3.137 11.53,-4.574 z"
             style="fill:#000000;fill-opacity:1;fill-rule:nonzero;stroke:none"
             id="path72" />
        </g>
        <g
           id="g74"
           transform="translate(283.5172,403.8927)">
          <path
             d="m 0,0 c -2.053,-2.762 -2.127,-4.74 -2.127,-5.225 0,-3.396 4.627,-2.052 8.21,-0.97 2.351,0.709 4.74,1.53 7.053,2.612 l 0.075,-2.911 c -0.821,-0.41 -2.5,-1.119 -6.232,-2.276 -4.74,-1.418 -6.792,-1.829 -8.845,-1.381 -1.679,0.373 -2.948,1.978 -2.948,4.031 0,2.425 1.082,4.366 2.836,7.09 z M 11.942,13.435 V 10.86 C 8.919,9.367 6.755,7.613 3.993,4.889 L 2.276,6.232 C 3.06,7.053 3.209,7.203 4.777,8.471 L 4.74,8.509 C 1.493,7.464 -1.829,6.419 -3.769,5.71 v 2.948 c 0.709,0.187 3.694,1.082 4.926,1.455 z M 16.42,8.173 c -1.045,1.866 -1.754,2.65 -2.127,3.06 l 1.568,1.493 c 1.045,-1.082 1.791,-2.314 2.201,-2.986 z M 13.024,5.262 c -0.821,1.381 -1.306,2.053 -2.276,3.06 l 1.679,1.568 c 0.971,-0.896 1.754,-2.053 2.277,-3.023 z"
             style="fill:#000000;fill-opacity:1;fill-rule:nonzero;stroke:none"
             id="path76" />
        </g>
        <g
           id="g78"
           transform="translate(166.9656,281.2143)">
          <path
             d="M 0,0 C 0.283,5.508 0.069,13.671 0.069,13.671 L 51.572,29.417 V 50.849 L 0.069,35.103 V 54.294 L 51.572,70.04 V 91.42 L -87.539,48.89 V 27.51 L -36.875,43 V 23.809 L -87.539,8.319 v -21.432 l 50.664,15.489 v -7.925 c 0,-25.38 -13.669,-35.647 -34.427,-42.008 l -16.237,-4.964 v -21.48 l 35.361,10.811 c 27.16,8.29 36.735,17.915 47.499,43.608 5.906,-2.348 21.951,-12.925 28.458,-20.386 l 36.572,11.181 C 49.408,-16.713 10.43,-2.043 0,0"
             style="fill:#000000;fill-opacity:1;fill-rule:nonzero;stroke:none"
             id="path80" />
        </g>
        <g
           id="g82"
           transform="translate(173.6705,388.9738)">
          <path
             d="m 0,0 c -0.52,-1.745 -2.747,-9.133 -3.156,-10.655 l 0.037,-0.037 c 0.483,0.557 1.411,1.559 3.045,2.079 3.787,1.114 3.935,-2.673 3.935,-4.752 v -1.114 c 0,-0.78 0,-3.119 2.042,-2.525 2.302,0.669 3.267,4.27 3.713,9.022 l 2.524,-0.074 c -0.631,-5.903 -1.967,-10.581 -6.46,-11.918 -4.455,-1.336 -4.492,3.156 -4.492,4.604 v 0.891 c 0,1.671 0.037,3.378 -1.782,2.821 -2.376,-0.705 -3.824,-3.527 -4.678,-6.311 -0.223,-0.965 -1.151,-5.086 -1.374,-5.94 l -2.747,0.037 c 1.411,4.938 4.789,17.561 6.386,23.538 z"
             style="fill:#000000;fill-opacity:1;fill-rule:nonzero;stroke:none"
             id="path84" />
        </g>
        <g
           id="g86"
           transform="translate(132.8561,376.2746)">
          <path
             d="m 0,0 v -2.958 c -0.637,-0.113 -1.236,-0.225 -2.434,-0.599 -4.082,-1.199 -10.71,-7.977 -10.748,-13.219 -0.037,-2.959 2.472,-3.146 4.157,-3.109 1.498,0.038 3.67,0.375 6.666,1.274 l -0.375,-3.258 c -2.434,-0.637 -5.242,-1.236 -7.602,-1.124 -2.621,0.075 -5.654,1.199 -5.654,5.205 0.037,2.172 0.936,6.778 6.74,12.133 l -0.037,0.038 c -5.318,-1.76 -5.954,-1.947 -11.459,-3.857 v 2.996 c 0.974,0.262 7.864,2.434 10.71,3.332 z"
             style="fill:#000000;fill-opacity:1;fill-rule:nonzero;stroke:none"
             id="path88" />
        </g>
        <g
           id="g90"
           transform="translate(439.026,524.1782)">
          <path
             d="M 0,0 -5.382,-1.645 C -8.903,-2.732 -12.78,-1.684 -15.455,2.268 L -27.733,20.41 -63.414,9.501 l 16.155,-23.95 -44.009,-13.455 26.636,87.121 c 1.163,3.807 3.234,6.194 6.071,7.083 l 8.954,2.737 v 14.491 l -43.95,-13.437 -31.626,-103.445 c -1.225,-4.006 -3.594,-6.017 -6.115,-6.788 l -5.449,-1.666 v -20.946 l 148.46,45.388 z"
             style="fill:#000000;fill-opacity:1;fill-rule:nonzero;stroke:none"
             id="path92" />
        </g>
        <g
           id="g94"
           transform="translate(254.1753,463.1483)">
          <path
             d="m 0,0 c 13.562,21.505 15.484,35.037 17.401,49.942 0.67,5.392 3.236,8.18 6.139,9.067 l 5.396,1.65 V 80.77 L -97.356,42.159 V 20.854 l 79.092,24.181 c -3.19,-49.214 -27.041,-70.35 -71.318,-83.887 l -7.774,-2.377 v -21.035 l 23.414,7.16 c 30.306,9.263 44.938,18.165 62.811,40.173 4.614,-2.241 10.712,-7.73 14.169,-16.64 l 35.643,10.897 C 33.664,-14.513 12.355,-1.63 0,0 m 31.603,87.23 c 5.093,1.583 7.92,6.884 6.337,11.878 -1.485,5.093 -6.884,7.92 -11.879,6.337 -5.092,-1.583 -7.821,-6.884 -6.336,-11.879 1.583,-5.092 6.884,-7.821 11.878,-6.336 M -2.604,86.74 c -1.485,4.994 1.244,10.393 6.337,11.878 4.994,1.485 10.295,-1.342 11.878,-6.337 C 17.096,87.287 14.367,81.986 9.274,80.403 4.28,78.918 -1.021,81.745 -2.604,86.74"
             style="fill:#000000;fill-opacity:1;fill-rule:nonzero;stroke:none"
             id="path96" />
        </g>
        <g
           id="g98"
           transform="translate(49.269,452.5756)">
          <path
             d="m 0,0 -2.983,-0.912 c -4.703,-1.438 -7.008,0.125 -7.008,3.083 v 32.181 c 0,4.324 1.571,7.609 5.945,8.946 L 0,44.535 V 60.189 L -49.269,45.126 V 29.473 l 2.992,0.914 c 4.717,1.442 7,-0.114 7,-3.055 v -32.18 c 0,-4.365 -1.574,-7.641 -5.937,-8.975 l -4.055,-1.24 V -30.686 L 0,-15.623 Z M 86.99,86.785 V 71.131 l -3.836,-1.173 c -4.423,-1.352 -5.93,-4.491 -5.93,-8.919 V -3.027 c 0,-20.964 -11.26,-37.05 -28.915,-42.386 l -87.212,-26.663 v 21.06 l 62.366,19.067 c 11.98,3.679 17.588,14.09 17.588,28.244 v 55.602 c 0,2.942 -2.295,4.487 -7.005,3.047 l -3.128,-0.956 v 15.654 z"
             style="fill:#000000;fill-opacity:1;fill-rule:nonzero;stroke:none"
             id="path100" />
        </g>
      </g>
    </g>
  </g>
</svg>
