<?xml version="1.0" encoding="UTF-8" standalone="no"?>
<!-- Created with Inkscape (http://www.inkscape.org/) -->

<svg
   version="1.1"
   id="svg1065"
   width="666.66669"
   height="859.79999"
   viewBox="0 0 666.66669 859.79999"
   sodipodi:docname="Rhythm Tengoku Gold Domestic and Overseas Editions Complete Vocal Collection (リズム天国ゴールド 国内版海外版 全ボーカル集) (Print) Logo.svg"
   inkscape:version="1.2.2 (b0a8486541, 2022-12-01)"
   xmlns:inkscape="http://www.inkscape.org/namespaces/inkscape"
   xmlns:sodipodi="http://sodipodi.sourceforge.net/DTD/sodipodi-0.dtd"
   xmlns="http://www.w3.org/2000/svg"
   xmlns:svg="http://www.w3.org/2000/svg">
  <defs
     id="defs1069">
    <clipPath
       clipPathUnits="userSpaceOnUse"
       id="clipPath1081">
      <path
         d="M 0,644.85 H 500 V 0 H 0 Z"
         id="path1079" />
    </clipPath>
  </defs>
  <sodipodi:namedview
     id="namedview1067"
     pagecolor="#505050"
     bordercolor="#eeeeee"
     borderopacity="1"
     inkscape:showpageshadow="0"
     inkscape:pageopacity="0"
     inkscape:pagecheckerboard="0"
     inkscape:deskcolor="#505050"
     showgrid="false"
     inkscape:zoom="1.3933473"
     inkscape:cx="324.75751"
     inkscape:cy="429.89999"
     inkscape:window-width="2560"
     inkscape:window-height="1400"
     inkscape:window-x="0"
     inkscape:window-y="0"
     inkscape:window-maximized="1"
     inkscape:current-layer="g1073">
    <inkscape:page
       x="0"
       y="0"
       id="page1071"
       width="666.66669"
       height="859.79999" />
  </sodipodi:namedview>
  <g
     id="g1073"
     inkscape:groupmode="layer"
     inkscape:label="Layer 1"
     transform="matrix(1.3333333,0,0,-1.3333333,0,859.8)">
    <path
       d="m 0,0 c 1.566,2.358 2.081,4.801 2.248,6.215 0.647,5.456 -1.906,8.525 -3.484,9.868 -1.928,1.642 -5.311,3.286 -10.474,1.813 l -4.451,-1.277 c -2.81,1.511 -6.395,1.729 -10.379,0.587 -2.464,-0.707 -4.334,-1.83 -5.862,-3.303 -3.116,0.716 -6.017,0.056 -7.099,-0.257 -5.695,-1.63 -8.041,-5.639 -9.567,-8.247 -2.156,-3.631 -4.452,-6.496 -4.451,-6.496 -3.682,-4.464 -5.363,-6.5 -5.888,-10.908 -0.056,-0.471 -0.084,-0.941 -0.086,-1.411 -0.67,-0.055 -1.323,-0.138 -1.931,-0.271 l 0.144,1.212 c 0.713,6.01 -1.987,9.294 -3.658,10.717 -2.053,1.745 -5.679,3.489 -11.321,1.871 -2.735,-0.784 -5.054,-2.116 -6.875,-3.898 -1.743,0.306 -3.84,0.251 -6.326,-0.463 -6.438,-1.848 -10.581,-6.693 -11.363,-13.297 l -0.021,-0.169 c -2.292,1.077 -5.501,1.641 -9.847,0.529 -0.564,1.067 -1.357,2.11 -2.462,3.051 -2.071,1.761 -5.744,3.516 -11.518,1.861 -4.641,-1.331 -8.198,-4.428 -10.017,-8.722 -0.026,-0.064 -0.052,-0.126 -0.078,-0.19 -0.444,-1.122 -0.684,-1.884 -0.922,-3.158 l -3.733,-1.071 c -8.656,-2.479 -10.875,-9.342 -11.442,-12.844 -0.289,-0.068 -0.58,-0.139 -0.88,-0.225 l -14.441,-4.142 c 0.194,0.653 0.345,1.327 0.43,2.024 0.839,6.834 -4.038,13.077 -10.87,13.915 h -0.001 c -3.193,0.395 -6.255,-0.477 -8.702,-2.206 -0.31,0.063 -0.62,0.125 -0.939,0.164 -4.384,0.541 -8.515,-1.28 -11.141,-4.454 -1.038,-0.071 -2.16,-0.257 -3.382,-0.608 -5.695,-1.633 -9.613,-5.607 -11.035,-11.077 l -6.168,-1.768 c -3.79,-1.087 -6.78,-3.254 -8.771,-6.229 -0.594,0.168 -1.124,0.296 -1.533,0.393 -0.027,0.006 -0.084,0.02 -0.112,0.027 -2.071,0.467 -4.186,1.556 -6.857,3.527 -2.91,2.151 -6.894,5.097 -14.27,2.984 -5.989,-1.716 -8.821,-4.921 -12.102,-8.631 -4.461,-5.05 -6.157,-6.445 -13.363,-12.144 -4.506,-3.483 -5.89,-7.898 -6.256,-10.993 -0.509,-4.297 0.744,-8.354 3.373,-11.08 -0.268,-0.955 -0.412,-1.803 -0.489,-2.451 -0.148,-1.247 -0.178,-2.418 -0.09,-3.516 -3.309,-2.425 -5.401,-6.086 -5.934,-10.58 -0.595,-5.025 0.617,-8.859 3.601,-11.397 1.442,-1.226 3.681,-2.453 6.863,-2.453 1.227,0 2.594,0.183 4.109,0.616 l 37.848,10.854 c 4.175,1.198 7.352,3.721 9.238,7.193 0.543,-0.069 1.091,-0.115 1.647,-0.115 1.261,0 2.544,0.179 3.813,0.542 1.814,0.52 3.346,1.353 4.686,2.43 2.151,-1.57 5.644,-2.876 10.787,-1.398 4.511,1.292 7.905,4.081 9.817,7.936 2.226,-0.657 4.46,-0.437 6.404,0.12 5.382,1.544 11.557,7.036 12.404,14.171 0.184,1.551 0.099,2.833 -0.154,4.003 0.337,0.077 0.676,0.16 1.021,0.259 l 17.744,5.088 c -0.021,-0.14 -0.047,-0.275 -0.064,-0.417 -0.51,-4.289 1.047,-8.428 4.162,-11.077 2.116,-1.799 4.764,-2.75 7.467,-2.75 1.068,0 2.144,0.149 3.198,0.451 2.993,0.857 5.856,2.849 9.268,6.45 4.537,-2.491 9.734,-1 13.659,0.124 4.338,1.244 8.653,3.047 12.211,6.863 1.657,-0.772 3.495,-1.179 5.357,-1.179 1.178,0 2.366,0.162 3.522,0.493 3.252,0.933 6.093,3.091 8.882,6.828 1.995,-1.278 5.336,-2.488 10.05,-1.138 4.274,1.226 10.212,4.87 15.773,10.575 0.621,-1.05 1.378,-1.998 2.295,-2.778 1.94,-1.65 4.323,-2.509 6.823,-2.509 1.042,0 2.105,0.149 3.162,0.453 1.798,0.516 5.212,2.126 9.574,5.313 3.967,-2.052 8.238,-0.828 9.785,-0.384 2.347,0.673 5.823,2.248 8.206,5.896 4.048,-0.908 7.688,-0.971 10.542,-0.154 6.43,1.844 10.048,8.49 10.686,13.88 0.253,2.122 0.026,3.893 -0.433,5.343 1.126,1.785 1.852,3.857 2.126,6.156 0.305,2.574 -0.085,4.626 -0.752,6.223 0.184,0.724 0.299,1.404 0.371,2.001 0.474,4.008 -0.754,6.71 -2.057,8.385 -0.012,0.128 -0.025,0.254 -0.042,0.381 0.464,1.207 0.646,2.246 0.716,2.837 C -0.033,-0.804 -0.007,-0.399 0,0 m -256.519,-2.785 c -0.58,-4.891 1.493,-7.806 3.941,-9.856 -0.346,-0.789 -0.626,-1.522 -0.867,-2.15 -1.215,-3.109 -2.599,-6.562 -3.652,-8.589 -0.019,-0.036 -0.039,-0.073 -0.056,-0.11 -1.763,-3.518 -2.567,-5.124 -2.898,-7.918 -0.456,-3.842 0.936,-7.451 3.82,-9.904 2.156,-1.834 4.992,-2.812 7.893,-2.812 1.184,0 2.379,0.164 3.543,0.497 6.048,1.735 8.455,6.296 10.772,11.804 0.122,0.011 0.244,0.026 0.367,0.042 0.664,-1.105 1.434,-1.9 2.052,-2.426 4.493,-3.818 9.852,-2.28 14.583,-0.924 7.115,2.04 11.212,4.326 13.855,8.427 2.02,-1.556 4.428,-2.374 6.948,-2.374 1.126,0 2.273,0.161 3.416,0.489 6.07,1.739 12.884,9.839 15.883,13.74 0.615,-1.289 1.482,-2.411 2.602,-3.362 2.962,-2.519 6.862,-3.108 11.589,-1.754 2.082,0.596 6.181,2.294 8.782,6.66 1.83,-1.122 3.975,-1.715 6.217,-1.715 1.223,0 2.473,0.175 3.711,0.53 1.232,0.353 2.365,0.848 3.399,1.483 1.743,-0.433 3.94,-0.509 6.601,0.254 2.195,0.629 3.913,1.568 5.259,2.598 0.886,0.072 1.787,0.236 2.696,0.498 1.096,0.313 2.351,0.827 3.613,1.661 1.075,0.005 2.172,0.159 3.262,0.472 1.818,0.522 3.528,1.336 5.634,3.161 2.003,-0.563 4.11,-0.531 6.305,0.099 5.903,1.694 10.945,7.938 11.727,14.524 0.414,3.49 -0.389,6.49 -2.386,8.956 2.32,5.683 4.052,11.746 4.604,16.405 0.322,2.71 0.02,4.885 -0.602,6.619 1.704,2.14 2.791,4.792 3.151,7.832 0.225,1.893 0.908,7.651 -3.534,11.429 -1.98,1.684 -5.482,3.362 -10.921,1.808 l -15.1,-4.33 c -1.865,-0.536 -3.539,-1.254 -5.018,-2.155 -1.767,0.541 -4.036,0.714 -6.805,-0.08 -1.214,-0.348 -3.163,-1.088 -5.049,-2.569 -1.249,0.037 -2.656,-0.112 -4.225,-0.561 -2.645,-0.759 -6.724,-2.629 -9.002,-7.14 -2.963,2.481 -6.857,3.062 -11.579,1.706 -2.41,-0.692 -7.556,-2.852 -9.888,-9.008 -0.785,-0.014 -1.625,-0.102 -2.52,-0.285 -0.215,0.219 -0.441,0.43 -0.677,0.633 -1.713,1.457 -5.488,3.644 -11.545,1.91 -7.054,-2.024 -9.192,-7.44 -9.942,-9.63 -2.116,1.319 -5.297,2.245 -9.756,0.968 l -11.163,-3.203 c -3.136,1.471 -6.655,1.345 -9.157,0.629 -3.58,-1.026 -5.725,-3.028 -7.447,-5.555 -2.532,1.154 -5.34,1.682 -8.59,0.752 -6.897,-1.978 -10.755,-9.244 -11.289,-13.768 -0.26,-2.187 0.104,-4.293 1.037,-6.17 -2.1,-2.72 -3.312,-5.861 -3.594,-8.238 m -27.405,-51.414 c -1.089,-0.313 -2.181,-0.467 -3.257,-0.472 -1.259,-0.833 -2.512,-1.345 -3.607,-1.659 -0.908,-0.261 -1.811,-0.426 -2.696,-0.497 -1.349,-1.03 -3.066,-1.97 -5.26,-2.599 -2.662,-0.763 -4.86,-0.687 -6.603,-0.254 -1.033,-0.634 -2.164,-1.129 -3.393,-1.481 -1.24,-0.357 -2.492,-0.53 -3.717,-0.53 -1.468,0 -2.895,0.255 -4.221,0.744 -3.536,-3.892 -8.308,-5.266 -11.95,-6.311 -3.666,-1.052 -4.723,-1.241 -5.917,-1.41 -0.126,-0.019 -0.282,-0.038 -0.407,-0.05 -3.455,-0.344 -6.611,0.772 -8.9,3.111 -0.685,0.698 -1.4,1.623 -1.981,2.813 -1.34,-8.583 -7.282,-11.537 -10.776,-12.539 -1.649,-0.473 -3.197,-0.709 -4.638,-0.709 -1.45,0 -2.788,0.247 -4.019,0.724 -2.333,-3.057 -5.645,-5.221 -9.939,-6.452 l -30.011,-8.605 c -1.825,-0.523 -3.538,-0.786 -5.133,-0.786 -2.945,0 -5.482,0.895 -7.58,2.679 -3.324,2.827 -4.663,7.185 -3.979,12.956 l 4.004,33.758 c 1.043,8.788 5.688,14.423 13.812,16.752 l 30.011,8.607 c 4.707,1.349 8.646,0.943 11.746,-1.167 1.996,1.958 4.653,3.603 8.218,4.626 l 4.542,1.302 c 2.103,6.373 7.15,8.783 10.274,9.678 4.768,1.366 8.692,0.775 11.67,-1.759 0.416,-0.354 0.841,-0.773 1.25,-1.269 l 1.402,0.402 c 3.185,0.914 6.025,1.007 8.493,0.285 1.405,7.565 7.016,10.295 10.352,11.252 1.569,0.45 2.975,0.599 4.226,0.561 1.885,1.481 3.835,2.222 5.049,2.57 2.768,0.793 5.039,0.62 6.804,0.079 1.48,0.901 3.154,1.62 5.019,2.155 l 15.099,4.33 c 5.433,1.555 8.94,-0.122 10.921,-1.808 4.443,-3.778 3.759,-9.536 3.535,-11.428 -0.361,-3.04 -1.448,-5.693 -3.152,-7.833 0.622,-1.734 0.924,-3.909 0.603,-6.619 -0.552,-4.655 -2.283,-10.719 -4.605,-16.405 2,-2.468 2.8,-5.471 2.385,-8.961 -0.781,-6.581 -5.821,-12.824 -11.724,-14.517 -2.196,-0.632 -4.299,-0.665 -6.305,-0.101 -2.113,-1.828 -3.825,-2.642 -5.645,-3.163"
       style="fill:#ffffff;fill-opacity:1;fill-rule:nonzero;stroke:none"
       id="path1085"
       transform="translate(470.7272,119.1776)"
       inkscape:label="path1" />
    <path
       d="m 0,0 0.181,1.52 -6.637,-1.903 -0.103,-0.866 c -0.045,-0.38 0.121,-0.598 0.506,-0.486 z M 0.851,7.166 -5.786,5.263 -5.967,3.743 0.67,5.646 Z M 1.513,12.75 -4.54,11.015 c -0.387,-0.112 -0.609,-0.38 -0.654,-0.76 L -5.305,9.327 1.332,11.23 Z m 1.081,7.125 c 1.838,3.673 2.907,4.397 4.699,4.911 1.696,0.486 5.568,1.127 4.652,-2.229 l 10.18,2.919 c 0.915,0.262 3.582,1.027 3.164,-2.503 C 24.87,19.447 22.156,18.669 21.288,18.42 L 9.751,15.112 9.597,13.813 20.795,17.024 c 1.064,0.306 2.403,0.532 2.164,-1.479 -0.25,-2.111 -1.994,-2.611 -2.673,-2.806 L 9.089,9.528 8.934,8.221 20.036,11.404 C 20.857,11.64 22.5,12.06 22.25,9.947 22.005,7.885 20.39,7.314 19.521,7.065 L 8.419,3.882 8.265,2.583 21.301,6.321 c 1.744,0.5 3.395,0.607 3.042,-2.38 C 24.008,1.123 22.437,0.092 20.496,-0.465 L 6.348,-4.521 6.193,-5.82 20.927,-1.596 c 1.988,0.571 4.196,0.674 3.798,-2.683 -0.342,-2.881 -2.024,-4.464 -4.739,-5.242 l -7.757,-2.225 c 3.385,-0.702 3.759,-0.701 8.423,-0.832 2.612,-0.092 2.503,-2.163 2.381,-3.196 -0.276,-2.333 -1.87,-5.931 -4.584,-6.709 -1.357,-0.389 -4.654,-0.549 -9.957,1.336 -2.024,0.673 -2.488,1.07 -3.829,2.043 L 4.29,-22.25 c -0.379,-3.198 -1.637,-5.13 -4.589,-5.976 -3.346,-0.96 -4.898,-0.62 -4.423,3.392 l 0.362,3.039 c -7.773,-7.938 -13.941,-10.97 -15.298,-11.359 -2.423,-0.695 -3.491,1.73 -3.183,4.332 0.277,2.333 1.328,3.679 4.084,5.255 3.713,2.063 5.264,2.926 8.315,5.32 l -7.805,-2.237 c -1.404,-0.404 -4.175,-0.882 -3.775,2.484 0.27,2.28 1.078,4.397 4.715,5.441 l 14.536,4.168 0.154,1.299 -7.268,-2.084 c -3.977,-1.14 -6.314,-0.343 -5.638,5.357 l 0.308,2.601 c -2.759,-1.153 -4.531,1.637 -4.255,3.97 0.226,1.899 0.718,2.514 4.002,6.494 0.492,0.61 2.919,3.718 5.205,7.569 1.291,2.206 2.219,3.731 4.594,4.413 0.387,0.11 4.873,1.239 4.483,-2.437 z M -47.637,1.59 c 0.334,2.818 1.774,5.118 5.214,6.104 2.762,0.792 4.615,0.222 4.185,-3.409 l -3.347,-28.217 c -0.039,-0.322 -0.077,-0.649 0.31,-0.538 0.828,0.238 5.126,4.141 8.285,12.592 0.881,2.353 1.776,4.76 4.586,5.566 1.017,0.291 5.162,0.848 4.685,-3.167 -0.314,-2.656 -2.725,-8.332 -5.496,-12.792 -6.201,-10.061 -14.623,-15.514 -18.498,-16.625 -4.892,-1.404 -4.346,3.208 -4.198,4.455 z m -5.071,-12.358 c -1.197,-10.094 -2.296,-17.745 -7.1,-26.305 -1.955,-3.442 -4.367,-6.804 -6.837,-7.512 -2.225,-0.639 -5.184,0.506 -4.766,4.031 0.136,1.14 0.442,2.116 2.072,4.418 5.066,7.167 5.711,10.233 7.23,23.039 l 1.222,10.307 c 0.341,2.877 1.868,5.149 5.262,6.122 2.864,0.822 4.603,0.112 4.185,-3.413 z m -24.781,0.992 c 7.078,2.03 6.52,-3.055 6.032,-7.176 -0.573,-4.829 -2.358,-16.347 -3.86,-21.493 -2.521,-8.584 -6.647,-10.663 -12.415,-12.318 -4.846,-1.389 -9.163,-2.627 -8.474,3.178 0.367,3.093 1.949,5.382 4.814,6.203 0.679,0.194 3.592,0.719 4.176,0.886 2.667,0.765 3.047,1.659 3.867,5.355 1.076,4.764 2.128,12.035 2.2,12.631 0.186,1.573 0.257,2.174 -0.713,1.896 l -7.126,-2.044 c -2.552,-10.85 -8.02,-21.854 -16.162,-30.479 -2.032,-2.153 -3.905,-3.74 -5.506,-4.199 -2.226,-0.638 -4.387,1.26 -4.039,4.193 0.27,2.276 1.817,3.875 3.458,5.498 4.302,4.273 9.703,9.961 12.85,22.292 l -8.381,-2.403 c -1.214,-0.348 -4.844,-1.39 -4.259,3.545 0.573,4.829 3.929,5.945 5.437,6.377 l 9.012,2.584 c 0.713,5.24 0.745,5.51 1.213,6.694 0.783,1.851 2.256,3.212 4.528,3.864 4.948,1.419 4.543,-1.996 4.305,-4.006 -0.039,-0.327 -0.212,-1.79 -0.553,-3.829 z m -65.678,-38.856 c -1.357,-0.389 -5.137,-1.472 -4.5,3.9 0.567,4.78 3.412,6.274 5.74,6.942 l 24.019,6.887 c 1.262,0.362 5.09,1.46 4.453,-3.912 -0.599,-5.046 -3.752,-6.373 -5.788,-6.956 z m -2.697,31.728 c -2.332,0.287 -4.454,-1.371 -4.74,-3.703 -0.287,-2.331 1.372,-4.455 3.703,-4.741 2.332,-0.286 4.454,1.372 4.74,3.704 0.286,2.332 -1.372,4.454 -3.703,4.74 m -9.641,-2.041 c -2.332,0.286 -4.454,-1.372 -4.74,-3.704 -0.286,-2.331 1.372,-4.454 3.703,-4.741 2.332,-0.286 4.454,1.372 4.74,3.704 0.286,2.332 -1.371,4.455 -3.703,4.741 m 1.198,-26.909 c 0.471,-3.167 0.927,-6.391 2.912,-10.222 1.295,-2.514 1.399,-2.8 1.257,-3.992 -0.392,-3.309 -3.786,-6.276 -6.302,-6.997 -2.092,-0.6 -3.329,0.411 -4.985,4.963 -1.911,5.222 -2.442,11.412 -2.262,12.931 0.399,3.362 3.542,4.998 4.926,5.604 3.898,1.693 4.262,-0.767 4.454,-2.287 m 2.668,16.125 c 0.915,0.261 4.648,1.332 4.056,-3.661 -0.593,-4.992 -4.175,-6.018 -5.24,-6.324 l -11.443,-3.281 -3.056,-25.774 c -0.303,-2.553 -1.46,-5.241 -5.335,-6.352 -2.959,-0.848 -4.746,-0.102 -4.309,3.587 l 3.058,25.773 -11.435,-3.278 c -0.97,-0.278 -4.695,-1.347 -4.11,3.588 0.599,5.05 4.228,6.091 5.294,6.396 l 11.434,3.279 0.386,3.252 c 0.29,2.443 1.367,5.163 5.384,6.314 2.817,0.808 4.71,0.25 4.26,-3.55 l -0.386,-3.251 z m -24.35,-22.969 c -0.181,-1.52 -2.269,-8.46 -5.598,-15.185 -2.936,-5.869 -4.462,-7.672 -6.545,-8.269 -2.525,-0.725 -5.43,0.436 -5.037,3.745 0.142,1.192 0.33,1.562 2.326,5.019 3.01,5.263 4.345,9 5.627,12.671 0.58,1.741 1.573,4.591 5.33,5.092 1.284,0.159 4.295,0.288 3.897,-3.073 m -36.061,0.14 c -2.096,1.286 -2.662,1.593 -3.935,2.746 -0.423,0.353 -0.738,0.472 -1.03,0.388 -0.386,-0.11 -0.757,-0.477 -1.189,-0.968 -0.917,-1.052 -2.551,-2.933 -4.988,-5.361 z m -17.209,-14.109 c -1.413,-0.405 -3.414,-0.766 -3.845,1.572 -1.028,-0.819 -2.739,-2.197 -4.34,-2.657 -2.763,-0.792 -4.235,1.773 -3.874,4.809 0.308,2.602 1.616,4.185 3.009,5.262 7.285,5.76 9.51,7.55 14.538,13.242 2.975,3.367 4.487,5.059 8.07,6.086 3.346,0.96 4.467,0.129 6.871,-1.648 3.014,-2.226 6.256,-4.13 10.035,-4.983 3.507,-0.829 4.828,-1.134 4.442,-4.385 -0.386,-3.261 -2.579,-6.766 -5.34,-7.558 -1.453,-0.416 -2.359,-0.155 -3.714,0.241 -1.077,-2.715 -3.18,-3.48 -4.483,-3.854 l -5.965,-1.71 -0.367,-3.093 9.84,2.822 c 2.083,0.597 4.334,0.615 3.859,-3.401 -0.548,-4.612 -3.758,-5.584 -4.965,-5.93 l -9.841,-2.822 -0.379,-3.198 14.055,4.03 c 3.243,0.93 4.23,-0.255 3.78,-4.054 -0.515,-4.338 -3.404,-5.431 -4.959,-5.877 l -37.846,-10.852 c -3.338,-0.957 -4.205,0.471 -3.78,4.054 0.515,4.339 3.364,5.42 4.958,5.877 l 14.394,4.128 0.378,3.198 -9.934,-2.849 c -3.291,-0.944 -4.164,0.432 -3.772,3.74 0.508,4.286 3.718,5.257 4.878,5.59 l 9.936,2.849 0.366,3.093 z m 76.613,100.572 c -0.469,-1.188 -1.25,-2.988 -1.881,-4.381 1.581,-0.545 3.772,-1.492 5.094,-2.217 0.57,1.635 1.382,3.706 1.779,5.503 0.092,0.395 0.519,1.991 0.551,2.265 0.046,0.382 -0.138,0.38 -0.383,0.31 z m 19.674,15.69 c 0.201,1.684 0.785,5.009 4.82,6.165 3.748,1.075 4.841,-0.029 4.428,-3.514 l -2.338,-19.712 c 0.67,-0.283 3.893,-1.252 4.469,-1.562 0.843,-0.439 1.94,-1.072 1.649,-3.523 -0.388,-3.267 -3.003,-7.119 -5.682,-7.887 -0.927,-0.265 -1.516,-0.066 -1.967,0.066 l -1.124,-9.475 c -0.199,-1.684 -0.786,-5.013 -4.867,-6.183 -3.605,-1.034 -4.807,-0.06 -4.38,3.532 l 2.054,17.317 c -1.595,1.59 -3.142,3.202 -4.473,5.082 -2.515,-7.719 -5.462,-15.138 -10.63,-22.248 -3.375,-4.703 -9.434,-11.386 -12.643,-12.307 -2.774,-0.795 -4.566,1.587 -4.224,4.472 0.336,2.833 2.223,4.48 4.538,6.505 1.887,1.647 5.295,4.628 8.773,10.199 -1.358,0.819 -3.592,2.178 -5.51,3.045 -0.502,-0.614 -1.26,-1.517 -2.527,-1.88 -1.998,-0.573 -4.826,0.561 -4.425,3.939 0.187,1.578 0.593,2.222 3.85,8.256 3.069,5.669 3.958,8.394 6.06,14.63 0.723,2.151 1.66,3.73 4.338,4.498 1.902,0.546 4.741,0.734 4.341,-2.644 -0.084,-0.71 -0.336,-1.673 -0.504,-2.252 l 7.155,2.052 c 4.77,1.368 4.426,-3.091 4.251,-4.562 -0.123,-1.039 -0.355,-2.209 -0.585,-3.38 0.361,0.265 1.033,0.771 1.952,1.035 0.785,0.224 1.385,0.187 1.961,-0.119 z m -50.524,-30.609 c -0.223,-1.485 -0.241,-1.645 -0.307,-2.195 l 2.182,0.626 c 0.232,1.964 0.259,2.182 -0.177,2.057 z m 0.202,-12.516 c 0.032,0.275 0.261,1.813 0.354,2.209 l -2.229,-0.64 c -0.019,-0.164 -0.31,-1.771 -0.361,-2.21 z m -9.907,9.733 c -0.292,-0.083 -0.413,-0.328 -0.433,-0.492 -0.081,-0.232 -0.235,-1.541 -0.315,-1.829 l 2.134,0.611 c 0.038,0.328 0.268,1.817 0.361,2.211 z m -0.77,-12.795 c 0.173,0.684 0.423,2.019 0.449,2.237 l -2.181,-0.626 c -0.026,-0.217 -0.317,-1.513 -0.323,-1.566 -0.078,-0.656 0.356,-0.532 0.404,-0.518 z m 16.334,25.464 c 1.068,0.307 3.88,1.113 4.814,-0.932 0.434,-1.032 0.376,-1.528 -0.507,-8.197 2.28,0.234 2.848,-1.286 2.628,-3.136 -0.265,-2.234 -1.129,-4.375 -3.839,-5.468 -0.078,-0.653 -0.202,-1.318 -0.459,-2.71 2.185,0.206 2.342,-2.01 2.193,-3.26 -0.264,-2.235 -1.695,-4.38 -3.734,-4.964 -1.659,-7.684 -3.134,-9.049 -11.337,-11.401 -4.994,-1.433 -7.659,-2.145 -7.226,1.5 0.406,3.431 2.738,4.099 3.559,4.335 0.585,0.168 3.284,0.788 3.815,0.939 2.425,0.696 2.535,0.778 2.724,1.989 l -17.181,-4.926 c -2.181,-0.625 -4.206,-0.315 -3.856,2.629 0.097,0.816 0.682,2.979 1.087,4.466 0.073,0.231 0.74,2.632 0.832,3.027 -2.553,-0.154 -2.344,2.377 -2.228,3.357 0.079,0.656 0.27,1.499 0.599,2.278 -0.878,-1.095 -1.854,-1.799 -2.922,-2.105 -1.359,-0.39 -1.797,-0.091 -4.627,1.727 -3.001,1.927 -3.48,2.261 -3.28,3.951 0.233,1.964 2.266,5.647 5.126,6.467 1.842,0.529 3.586,-0.603 5.021,-1.558 2.209,-1.525 2.874,-2.225 2.667,-3.972 -0.057,-0.488 -0.18,-1.525 -1.129,-3.215 0.71,0.833 1.428,1.356 2.799,1.853 0.206,0.958 0.239,1.228 0.738,3.894 -2.624,-0.435 -3.884,1.623 -3.652,3.582 0.167,1.415 0.904,2.469 1.585,3.454 -0.858,-0.928 -1.733,-1.547 -2.705,-1.826 -1.454,-0.417 -1.92,-0.028 -4.394,1.631 -0.911,0.634 -2.463,1.765 -2.682,1.916 -0.548,0.524 -0.933,1.206 -0.817,2.182 0.238,2.013 2.326,5.771 5.186,6.592 0.917,0.262 1.979,0.461 5.398,-1.926 2.244,-1.617 2.372,-2.527 2.23,-3.725 -0.162,-1.365 -0.714,-2.414 -1.021,-3.081 1.604,2.461 3.16,4.954 4.505,7.55 2.111,4.023 2.838,5.388 4.924,5.985 1.312,0.377 4.315,0.399 4.406,-1.991 l 15.916,4.564 c 1.508,0.432 4.331,0.924 3.839,-3.216 -0.407,-3.432 -2.289,-5.076 -4.913,-5.829 l -19.211,-5.509 c -0.175,-0.256 -0.808,-1.28 -0.937,-1.527 z M -205.442,1.173 c -0.245,-2.067 -3.874,-11.364 -4.21,-12.197 -2.307,-5.609 -3.28,-7.887 -5.997,-8.666 -2.182,-0.626 -4.769,0.473 -4.465,3.036 0.154,1.303 0.456,1.917 2.056,5.113 1.218,2.345 2.612,5.793 4.026,9.411 0.95,2.483 2.042,5.374 4.665,6.126 1.888,0.542 4.274,0.12 3.925,-2.823 m -47.366,-6.207 c 1.432,1.833 3.357,2.385 3.601,2.455 1.642,0.471 2.118,-0.186 2.331,-0.754 0.22,-0.515 1.002,-3.392 1.201,-4.02 1.551,3.229 2.431,5.905 2.494,6.446 0.078,0.656 -0.254,0.612 -0.984,0.403 l -8.391,-2.406 z m 1.158,-11.869 c -0.761,1.833 -1.41,3.852 -1.902,5.977 -0.802,-5.545 -1.655,-8.84 -1.981,-9.986 2.31,2.136 3.23,3.243 3.883,4.009 m -7.841,17.581 c -0.644,-2.292 -1.857,-3.428 -4.025,-4.05 l -7.432,-2.131 -0.439,-3.697 1.839,0.526 c 4.242,1.217 6.932,1.881 6.195,-4.33 l -1.53,-12.902 c 2.084,4.966 3.131,7.528 4.068,15.42 z m 19.169,8.76 c 3.371,0.966 5.876,0.84 5.333,-3.73 -0.575,-4.851 -3.08,-12.987 -6.522,-19.602 0.675,-0.645 1.225,-1.066 3.02,-2.445 0.727,-0.583 1.529,-1.244 1.283,-3.314 -0.361,-3.046 -2.919,-6.573 -5.622,-7.347 -1.83,-0.525 -3.182,0.299 -5.153,2.942 -4.427,-5.527 -5.92,-5.955 -6.792,-6.205 -1.399,-0.401 -2.647,0.08 -3.439,1.276 -0.448,-1.029 -1.357,-2.814 -3.432,-3.409 -1.109,-0.318 -2.583,-0.438 -3.417,0.714 -0.809,-1.42 -1.727,-3.004 -4.538,-3.809 -3.621,-1.038 -3.527,1.366 -3.404,2.403 l 1.699,14.334 c 0.046,0.382 -0.218,0.52 -0.454,0.452 l -0.825,-0.236 c -0.384,-2.852 -1.177,-8.39 -2.947,-13.839 -0.75,-2.426 -1.803,-4.201 -4.066,-4.85 -2.459,-0.705 -4.61,0.417 -4.295,3.081 0.123,1.034 1.819,6.308 2.143,7.506 1.229,4.404 1.753,8.444 2.044,10.895 l 2.964,24.992 c 0.142,1.197 0.491,4.142 4.443,5.274 3.858,1.107 3.502,-1.89 3.366,-3.035 l -0.943,-7.949 1.689,0.484 1.001,8.442 c 0.124,1.033 0.492,4.137 4.161,5.188 3.621,1.039 3.253,-2.064 3.13,-3.097 l -1.001,-8.442 c 0.574,0.164 1.64,-0.318 1.825,-1.896 l 0.813,6.863 c 0.634,5.338 3.002,7.645 7.056,8.807 l 15.099,4.33 c 3.473,0.995 4.077,-0.57 3.664,-4.055 -0.478,-4.026 -3.083,-5.192 -4.82,-5.69 l -12.884,-3.695 c -0.479,-0.137 -0.862,-0.616 -0.926,-1.161 l -0.401,-3.374 z m 152.241,32.201 c 1.432,1.833 3.356,2.384 3.601,2.454 1.641,0.471 2.118,-0.185 2.331,-0.753 0.219,-0.516 1.002,-3.392 1.2,-4.02 1.552,3.229 2.43,5.905 2.495,6.446 0.078,0.656 -0.254,0.612 -0.984,0.403 l -8.391,-2.406 z m 1.157,-11.869 c -0.761,1.833 -1.409,3.852 -1.901,5.976 -0.802,-5.545 -1.655,-8.839 -1.982,-9.985 2.311,2.135 3.231,3.243 3.883,4.009 m -7.841,17.581 c -0.643,-2.292 -1.856,-3.428 -4.024,-4.05 l -7.433,-2.131 -0.438,-3.698 1.839,0.527 c 4.242,1.217 6.931,1.881 6.195,-4.331 l -1.53,-12.901 c 2.084,4.965 3.131,7.527 4.067,15.42 z m 19.169,8.759 c 3.371,0.967 5.876,0.841 5.333,-3.73 -0.575,-4.85 -3.081,-12.986 -6.521,-19.601 0.675,-0.645 1.224,-1.066 3.019,-2.445 0.728,-0.583 1.53,-1.244 1.284,-3.314 -0.362,-3.046 -2.919,-6.573 -5.623,-7.347 -1.83,-0.526 -3.181,0.299 -5.153,2.941 -4.427,-5.526 -5.92,-5.954 -6.792,-6.204 -1.398,-0.401 -2.646,0.08 -3.438,1.276 -0.449,-1.029 -1.359,-2.814 -3.432,-3.409 -1.109,-0.318 -2.584,-0.438 -3.418,0.714 -0.809,-1.42 -1.726,-3.004 -4.537,-3.809 -3.622,-1.039 -3.528,1.365 -3.405,2.403 l 1.7,14.334 c 0.046,0.382 -0.219,0.519 -0.454,0.452 l -0.825,-0.236 c -0.384,-2.852 -1.178,-8.39 -2.948,-13.84 -0.75,-2.425 -1.802,-4.2 -4.065,-4.849 -2.459,-0.705 -4.61,0.417 -4.295,3.081 0.123,1.034 1.818,6.308 2.143,7.506 1.228,4.404 1.752,8.443 2.044,10.895 l 2.963,24.992 c 0.143,1.197 0.492,4.142 4.444,5.274 3.857,1.107 3.502,-1.89 3.366,-3.035 l -0.943,-7.949 1.689,0.484 1.001,8.442 c 0.123,1.033 0.491,4.136 4.16,5.188 3.621,1.039 3.253,-2.064 3.131,-3.097 l -1.001,-8.442 c 0.573,0.164 1.64,-0.318 1.824,-1.897 l 0.814,6.863 c 0.633,5.339 3.001,7.645 7.055,8.808 l 15.1,4.33 c 3.473,0.995 4.076,-0.571 3.663,-4.056 -0.477,-4.025 -3.083,-5.192 -4.819,-5.689 l -12.884,-3.696 c -0.48,-0.136 -0.862,-0.615 -0.928,-1.16 l -0.399,-3.374 z M -301.987,-9.854 c 0.07,-4.084 0.883,-7.474 2.485,-9.7 0.355,-0.528 2.54,-2.899 2.883,-3.589 l 1.685,14.21 c 0.084,0.704 -0.304,1.013 -0.878,0.849 z m -18.771,-19.162 c 4.055,5.528 6.567,9.04 8.393,16.185 l -5.641,-1.617 c -0.629,-0.181 -1.118,-0.792 -1.196,-1.444 z m -1.925,-16.226 c -0.207,-1.742 -0.784,-5.009 -4.783,-6.155 -3.621,-1.04 -4.764,-0.056 -4.338,3.54 l 3.914,32.999 c 0.736,6.207 3.89,8.421 7.607,9.487 l 9.599,2.753 0.24,2.017 c 0.201,1.69 0.776,5.007 4.979,6.212 3.614,1.036 4.899,0.094 4.472,-3.502 l -0.239,-2.017 10.087,2.892 c 3.953,1.134 6.467,0.33 5.757,-5.655 l -3.59,-30.272 c -0.905,-7.626 -4.856,-8.76 -10.504,-10.379 -3.426,-0.983 -4.089,-1.07 -4.799,-1.171 -3.064,-0.296 -2.86,3.026 -2.717,4.223 0.452,3.813 2.445,5.644 4.951,6.363 0.534,0.153 3.122,0.792 3.466,0.942 0.547,0.26 0.883,0.725 0.968,1.434 l 0.49,4.14 c -1.456,-3.578 -3.897,-4.959 -5.248,-5.346 -2.467,-0.707 -3.848,1.788 -4.587,3.366 -0.926,2.048 -1.224,3.435 -1.691,5.828 -0.547,-1.477 -1.488,-3.9 -3.691,-7.949 -0.896,-1.675 -3.181,-5.645 -5.884,-6.42 -2.129,-0.61 -2.939,0.365 -3.47,1 z m -30.779,3.954 c 0.084,0.709 0.119,1.456 0.103,2.085 l -1.689,-0.485 -0.253,-2.127 z m -15.454,-12.372 c -1.493,-0.428 -3.857,-1.107 -3.373,2.981 0.49,4.133 2.855,4.811 4.348,5.239 l 4.101,1.176 0.252,2.128 -3.378,-0.968 c -1.398,-0.402 -3.81,-1.093 -3.39,2.445 0.425,3.591 2.837,4.283 4.236,4.683 l 3.378,0.969 0.155,1.313 -3.81,-1.093 c -1.351,-0.388 -3.858,-1.107 -3.413,2.644 0.375,3.162 2.044,4.69 4.362,5.354 l 17.943,5.145 c 0.629,0.181 3.854,1.002 3.382,-2.97 -0.465,-3.919 -2.979,-4.64 -4.33,-5.028 l -5.594,-1.604 -0.155,-1.312 5.067,1.454 c 1.595,0.457 3.75,0.972 3.343,-2.459 -0.063,-0.541 -0.277,-2.342 -1.731,-3.598 0.056,-1.509 0.066,-2.192 0.008,-2.679 1.261,-0.375 1.424,-1.75 1.237,-3.329 -0.485,-4.087 -2.809,-4.805 -4.349,-5.247 z m 25.539,33.414 c 0.077,0.652 -0.106,1.023 -0.782,0.83 l -24.465,-7.016 c -0.62,-0.177 -1.004,-0.656 -1.088,-1.365 l -3.229,-27.227 c -0.078,-0.652 0.107,-1.019 0.83,-0.811 l 24.465,7.015 c 0.573,0.164 0.949,0.585 1.04,1.347 z m 5.025,-28.016 c -0.71,-5.986 -3.465,-8.356 -7.708,-9.573 l -30.011,-8.605 c -4.196,-1.204 -6.61,-0.315 -5.9,5.67 l 4.004,33.758 c 0.724,6.101 3.608,8.401 7.708,9.576 l 30.012,8.606 c 4.392,1.26 6.59,0.151 5.899,-5.675 z"
       style="fill:#000000;fill-opacity:1;fill-rule:nonzero;stroke:none"
       id="path1089"
       transform="translate(439.2379,103.4198)"
       inkscape:label="path3" />
    <path
       d="m 0,0 c -14.855,15.033 -33.424,25.12 -53.663,29.388 0.008,0.527 0.013,1.054 0.013,1.581 0,15.414 -3.275,30.409 -9.577,44.198 24.492,20.059 39.112,50.25 39.112,82.534 0,58.81 -47.846,106.655 -106.656,106.655 -31.174,0 -60.487,-13.572 -80.631,-36.836 -4.075,0.473 -8.167,0.711 -12.251,0.711 -27.58,0 -53.38,-10.352 -73.006,-28.878 -15.318,8.194 -32.348,12.463 -50.077,12.463 -58.811,0 -106.657,-47.845 -106.657,-106.655 0,-24.083 8.262,-47.693 23.262,-66.479 10.197,-12.771 23.248,-23.026 37.894,-29.96 -2.668,-9.432 -4.045,-19.235 -4.045,-29.057 0,-11.511 1.861,-22.896 5.464,-33.714 -14.354,-6.886 -27.155,-16.969 -37.212,-29.495 -15.116,-18.827 -23.44,-42.514 -23.44,-66.699 0,-58.811 47.845,-106.657 106.656,-106.657 29.401,0 56.948,11.876 77.022,32.903 0.266,-0.002 0.531,-0.004 0.797,-0.004 20.679,0 40.366,5.791 57.512,16.838 8.463,-2.124 17.158,-3.197 25.956,-3.197 29.321,0 57.262,12.183 77.259,33.172 9.816,-2.929 19.989,-4.408 30.39,-4.408 58.81,0 106.655,47.846 106.655,106.658 C 30.777,-46.699 19.847,-20.085 0,0"
       style="fill:#000000;fill-opacity:1;fill-rule:nonzero;stroke:none"
       id="path1093"
       transform="translate(453.3922,380.494)"
       inkscape:label="path5" />
    <path
       d="m 0,0 c -15.485,15.673 -35.419,25.424 -56.984,28.057 0.333,3.265 0.5,6.542 0.5,9.809 0,16.633 -4.2,32.73 -12.219,47.088 25.974,17.984 41.754,47.685 41.754,79.644 0,53.4 -43.444,96.843 -96.843,96.843 -30.077,0 -58.246,-13.914 -76.551,-37.519 -5.41,0.926 -10.881,1.394 -16.331,1.394 -27.496,0 -53.044,-11.334 -71.364,-31.382 -15.457,9.818 -33.166,14.967 -51.719,14.967 -53.4,0 -96.844,-43.443 -96.844,-96.843 0,-41.179 25.612,-77.138 63.494,-90.935 -4.197,-10.997 -6.384,-22.762 -6.384,-34.561 0,-13.491 2.816,-26.79 8.212,-39.036 -16.406,-6.058 -31.079,-16.565 -42.119,-30.316 -13.723,-17.091 -21.281,-38.597 -21.281,-60.556 0,-53.4 43.445,-96.843 96.844,-96.843 28.129,0 54.391,11.975 72.815,33.027 22.03,-1.126 43.047,5.015 60.763,17.551 8.979,-2.682 18.278,-4.039 27.709,-4.039 28.688,0 55.924,12.849 74.246,34.703 10.686,-3.944 21.89,-5.938 33.404,-5.938 53.399,0 96.842,43.444 96.842,96.844 C 27.944,-42.4 18.021,-18.236 0,0"
       style="fill:#ffffff;fill-opacity:1;fill-rule:nonzero;stroke:none"
       id="path1097"
       transform="translate(446.4128,373.5965)"
       inkscape:label="path7" />
    <path
       d="m 0,0 c 1.269,5.932 1.951,12.081 1.951,18.391 0,18.622 -5.831,35.871 -15.742,50.061 26.991,14.913 45.277,43.652 45.277,76.671 0,48.351 -39.195,87.547 -87.547,87.547 -30.186,0 -56.803,-15.28 -72.543,-38.525 -6.529,1.553 -13.333,2.4 -20.338,2.4 -28.447,0 -53.712,-13.576 -69.704,-34.593 -14.777,11.388 -33.281,18.178 -53.379,18.178 -48.352,0 -87.548,-39.196 -87.548,-87.547 0,-41.27 28.564,-75.848 66.994,-85.098 -6.302,-12.089 -9.884,-25.822 -9.884,-40.398 0,-16.335 4.486,-31.617 12.276,-44.703 -38.667,-9.081 -67.464,-43.77 -67.464,-85.206 0,-48.351 39.196,-87.547 87.547,-87.547 27.886,0 52.708,13.054 68.741,33.367 2.985,-0.308 6.013,-0.469 9.079,-0.469 20.412,0 39.177,7.006 54.065,18.717 9.192,-3.277 19.086,-5.076 29.403,-5.076 29.382,0 55.365,14.49 71.244,36.698 11.089,-5.079 23.41,-7.932 36.405,-7.932 48.351,0 87.547,39.196 87.547,87.546 C 86.38,-39.558 47.811,-0.627 0,0"
       style="fill:#000000;fill-opacity:1;fill-rule:nonzero;stroke:none"
       id="path1101"
       transform="translate(378.6813,393.0721)"
       inkscape:label="path9" />
    <path
       d="m 0,0 v 17.467 c 0,2.876 2.344,5.93 5.246,6.818 L 7.487,24.97 V 36.704 L -33.667,24.122 V 12.388 l 3.981,1.217 c 1.947,0.595 3.506,-0.492 3.506,-2.401 v -54.125 c 0,-2.877 -2.343,-5.932 -5.246,-6.818 l -2.241,-0.686 v -11.733 l 41.154,12.582 v 11.733 L 3.506,-39.06 C 1.56,-39.655 0,-38.567 0,-36.659 v 22.15 c 0,0 18.817,7.029 45.477,-16.048 V -5.272 C 25.452,8.025 0,0 0,0 m 41.121,15.726 c 3.708,1.133 5.795,5.058 4.661,8.767 -1.134,3.708 -5.058,5.795 -8.766,4.661 -3.708,-1.133 -5.796,-5.058 -4.662,-8.766 1.133,-3.709 5.059,-5.796 8.767,-4.662 M 16.283,15.474 c -1.134,3.709 0.953,7.633 4.662,8.767 3.708,1.134 7.633,-0.953 8.767,-4.661 1.134,-3.709 -0.953,-7.634 -4.661,-8.767 -3.708,-1.134 -7.634,0.953 -8.768,4.661"
       style="fill:#ffffff;fill-opacity:1;fill-rule:nonzero;stroke:none"
       id="path1105"
       transform="translate(381.6598,316.2274)"
       inkscape:label="path11" />
    <path
       d="m 0,0 c 0,0 -1.818,-26.433 -17.717,-34.898 v 53.485 c 0,2.557 2.061,5.245 4.617,6.026 l 2.583,0.79 V 36.902 L -43.625,26.779 v -84.924 l 21.578,6.597 c 34.67,10.6 42.277,36.171 46.831,59.124 z m -54.843,13.49 v -51.998 c 0,-12.731 -10.33,-26.224 -23.061,-30.117 l -9.187,-2.809 v 15.394 c 6.156,1.882 11.115,8.375 11.115,14.532 V -9 c 0,2.557 -2.055,3.986 -4.618,3.202 l -2.453,-0.749 V 4.867 Z"
       style="fill:#ffffff;fill-opacity:1;fill-rule:nonzero;stroke:none"
       id="path1109"
       transform="translate(309.4303,279.4861)"
       inkscape:label="path13" />
    <path
       d="M 0,0 V -15.713 L 48.109,-1.004 V 14.708 Z"
       style="fill:#ffffff;fill-opacity:1;fill-rule:nonzero;stroke:none"
       id="path1113"
       transform="translate(166.277,245.5614)"
       inkscape:label="path15" />
    <path
       d="m 0,0 c -1.146,3.748 -5.113,5.857 -8.861,4.712 -3.748,-1.147 -5.858,-5.113 -4.712,-8.861 1.146,-3.748 5.113,-5.858 8.861,-4.712 C -0.964,-7.715 1.146,-3.748 0,0 m -97.994,-56.025 47.039,14.38 c 5.759,1.761 10.384,-1.466 10.384,-7.206 v -33.631 l -57.423,-17.557 v -15.419 l 83.356,25.484 v 56.176 c 0,2.218 1.791,4.594 4.044,5.283 l 4.227,1.292 v 14.767 l -91.627,-28.013 z m 68.393,46.975 c -1.146,3.748 0.963,7.715 4.711,8.862 3.748,1.145 7.715,-0.964 8.862,-4.712 1.145,-3.748 -0.964,-7.715 -4.712,-8.862 -3.748,-1.145 -7.715,0.964 -8.861,4.712"
       style="fill:#ffffff;fill-opacity:1;fill-rule:nonzero;stroke:none"
       id="path1117"
       transform="translate(164.7536,295.4656)"
       inkscape:label="path17" />
    <path
       d="m 0,0 -52.535,-16.062 c -2.825,-0.854 -4.509,-3.33 -4.508,-6.57 v -59.903 l 52.535,16.061 C -1.895,-65.689 0,-63.372 0,-59.902 Z m 21.185,17.935 v -87.983 l -99.403,-30.39 v 87.982 z M -9.853,-51.284 v 8.418 l -5.964,-1.824 v -8.417 z m 0,-11.491 -37.328,-11.413 v 6.856 l 6.59,2.015 c 2.692,0.823 4.286,2.968 4.286,6.519 v 12.48 l -10.876,-3.327 v 7.41 l 10.876,3.325 v 12.778 c 0,1.484 -0.892,3.48 -5,2.225 l -5.876,-1.797 v 6.901 L -9.853,-7.39 v -6.902 l -6.516,-1.992 c -2.785,-0.852 -4.36,-2.928 -4.36,-6.526 v -11.338 l 10.876,3.325 v -7.408 l -10.876,-3.326 v -13.92 c 0,-2.191 1.683,-3.252 5.074,-2.216 l 5.802,1.774 z"
       style="fill:#ffffff;fill-opacity:1;fill-rule:nonzero;stroke:none"
       id="path1121"
       transform="translate(315.4831,431.9852)"
       inkscape:label="path19" />
    <path
       d="m 0,0 c -2.99,1.767 -4.458,2.256 -8.4,3.616 -0.816,0.299 -1.822,0.842 -1.822,1.821 0,0.952 0.979,2.256 2.148,3.67 4.622,5.573 4.704,5.736 5.791,7.259 l 1.876,-0.87 C -2.963,12.261 -3.425,11.771 -7.285,7.367 -7.666,6.959 -7.911,6.579 -7.911,6.252 c 0,-0.489 0.816,-0.733 1.306,-0.869 2.446,-0.707 6.632,-2.257 8.291,-3.29 z"
       style="fill:#ffffff;fill-opacity:1;fill-rule:nonzero;stroke:none"
       id="path1125"
       transform="translate(311.11,447.4598)"
       inkscape:label="path21" />
    <path
       d="m 0,0 c -1.476,-1.986 -1.529,-3.409 -1.529,-3.757 0,-2.442 3.328,-1.476 5.904,-0.698 1.69,0.51 3.408,1.1 5.072,1.878 L 9.501,-4.67 C 8.91,-4.965 7.702,-5.475 5.019,-6.307 1.61,-7.327 0.135,-7.622 -1.342,-7.3 c -1.207,0.269 -2.12,1.423 -2.12,2.899 0,1.744 0.778,3.139 2.04,5.099 z M 8.588,9.661 V 7.81 C 6.414,6.736 4.857,5.475 2.872,3.516 L 1.638,4.481 C 2.201,5.072 2.309,5.179 3.436,6.092 L 3.408,6.119 C 1.074,5.367 -1.314,4.616 -2.71,4.106 v 2.12 c 0.51,0.134 2.656,0.778 3.542,1.046 z m 3.221,-3.784 c -0.751,1.342 -1.262,1.906 -1.53,2.201 l 1.127,1.073 C 12.157,8.373 12.694,7.487 12.989,7.004 Z M 9.366,3.784 C 8.776,4.777 8.427,5.26 7.729,5.984 l 1.209,1.128 c 0.697,-0.645 1.26,-1.476 1.636,-2.174 z"
       style="fill:#ffffff;fill-opacity:1;fill-rule:nonzero;stroke:none"
       id="path1129"
       transform="translate(264.2721,441.6951)"
       inkscape:label="path23" />
    <path
       d="M 0,0 V 9.809 L 36.916,21.096 V 36.458 L 0,25.171 V 38.927 L 36.916,50.213 V 65.538 L -62.796,35.053 V 19.729 L -26.48,30.831 V 17.075 L -62.796,5.973 V -9.39 L -26.48,1.713 v -5.681 c 0,-18.191 -9.798,-25.551 -24.677,-30.11 l -11.639,-3.559 v -15.395 l 25.347,7.749 c 19.467,5.942 26.33,12.841 34.046,31.257 4.233,-1.683 15.733,-9.265 20.397,-14.613 l 26.214,8.015 C 35.365,-11.97 7.476,-1.465 0,0"
       style="fill:#ffffff;fill-opacity:1;fill-rule:nonzero;stroke:none"
       id="path1133"
       transform="translate(181.5856,354.3358)"
       inkscape:label="path25" />
    <path
       d="m 0,0 c -0.374,-1.255 -1.977,-6.567 -2.27,-7.662 l 0.027,-0.027 c 0.347,0.4 1.014,1.122 2.189,1.495 2.723,0.8 2.83,-1.922 2.83,-3.417 v -0.801 c 0,-0.561 0,-2.243 1.468,-1.816 1.655,0.481 2.35,3.071 2.67,6.488 l 1.815,-0.054 c -0.453,-4.245 -1.415,-7.608 -4.645,-8.569 -3.203,-0.962 -3.23,2.268 -3.23,3.31 v 0.641 c 0,1.201 0.027,2.43 -1.282,2.028 -1.709,-0.507 -2.75,-2.536 -3.364,-4.538 -0.16,-0.694 -0.827,-3.658 -0.987,-4.271 l -1.976,0.026 c 1.015,3.551 3.443,12.628 4.592,16.927 z"
       style="fill:#ffffff;fill-opacity:1;fill-rule:nonzero;stroke:none"
       id="path1137"
       transform="translate(186.0944,431.8377)"
       inkscape:label="path27" />
    <path
       d="m 0,0 v -2.128 c -0.457,-0.08 -0.889,-0.161 -1.75,-0.431 -2.936,-0.861 -7.702,-5.735 -7.729,-9.505 -0.027,-2.128 1.778,-2.262 2.99,-2.236 1.077,0.028 2.638,0.27 4.793,0.916 l -0.27,-2.343 c -1.75,-0.458 -3.769,-0.888 -5.466,-0.808 -1.885,0.055 -4.066,0.862 -4.066,3.743 0.026,1.563 0.673,4.875 4.847,8.726 l -0.027,0.026 c -3.824,-1.266 -4.282,-1.399 -8.24,-2.773 v 2.154 c 0.699,0.188 5.654,1.751 7.701,2.397 z"
       style="fill:#ffffff;fill-opacity:1;fill-rule:nonzero;stroke:none"
       id="path1141"
       transform="translate(156.9157,422.3104)"
       inkscape:label="path29" />
    <path
       d="m 0,0 -3.87,-1.183 c -2.533,-0.781 -5.32,-0.028 -7.244,2.814 l -8.829,13.046 -25.66,-7.844 11.618,-17.223 -31.648,-9.676 19.154,62.65 c 0.837,2.739 2.326,4.455 4.367,5.094 l 6.438,1.968 v 10.421 l -31.605,-9.663 -22.743,-74.389 c -0.881,-2.882 -2.584,-4.327 -4.398,-4.882 l -3.918,-1.198 v -15.063 l 106.761,32.64 z"
       style="fill:#ffffff;fill-opacity:1;fill-rule:nonzero;stroke:none"
       id="path1145"
       transform="translate(375.9381,529.0662)"
       inkscape:label="path31" />
    <path
       d="m 0,0 c 9.718,15.41 11.095,25.107 12.469,35.787 0.48,3.865 2.318,5.862 4.399,6.498 l 3.866,1.182 V 57.878 L -69.764,30.21 V 14.944 l 56.676,17.327 c -1.306,-20.14 -8.534,-47.097 -40.262,-56.797 l -16.414,-5.018 v -15.074 l 16.778,5.131 c 21.716,6.638 32.202,13.017 45.009,28.787 3.306,-1.606 7.676,-5.539 10.154,-11.924 l 25.541,7.809 C 24.123,-10.4 8.854,-1.168 0,0 m 6.646,57.615 c 3.649,1.135 5.604,4.933 4.541,8.512 -1.135,3.579 -4.933,5.605 -8.512,4.541 -3.65,-1.064 -5.606,-4.933 -4.541,-8.512 1.134,-3.579 4.932,-5.605 8.512,-4.541 m 7.488,9.433 c -1.064,3.579 0.891,7.378 4.541,8.512 3.579,1.134 7.448,-0.892 8.512,-4.54 1.134,-3.58 -0.892,-7.378 -4.541,-8.513 -3.579,-1.064 -7.377,0.892 -8.512,4.541"
       style="fill:#ffffff;fill-opacity:1;fill-rule:nonzero;stroke:none"
       id="path1149"
       transform="translate(243.526,485.6131)"
       inkscape:label="path33" />
    <path
       d="m 0,0 -2.129,-0.651 c -3.358,-1.027 -5.005,0.089 -5.005,2.201 v 22.977 c 0,3.088 1.122,5.433 4.245,6.388 L 0,31.798 V 42.976 L -35.178,32.22 V 21.044 l 2.136,0.652 c 3.368,1.03 4.998,-0.081 4.998,-2.18 V -3.461 c 0,-3.117 -1.124,-5.456 -4.239,-6.409 l -2.895,-0.885 V -21.91 L 0,-11.155 Z M 62.111,61.965 V 50.788 L 59.373,49.95 C 56.215,48.985 55.139,46.744 55.139,43.582 V -2.161 c 0,-14.969 -8.04,-26.454 -20.646,-30.264 l -62.269,-19.038 v 15.037 l 44.529,13.614 c 8.554,2.627 12.558,10.061 12.558,20.167 v 39.7 c 0,2.1 -1.638,3.204 -5.001,2.175 l -2.234,-0.683 v 11.178 z"
       style="fill:#ffffff;fill-opacity:1;fill-rule:nonzero;stroke:none"
       id="path1153"
       transform="translate(97.4176,478.3026)"
       inkscape:label="path35" />
    <path
       d="M 0,0 V 9.492 L -2.212,-0.552 -4.608,-1.149 -6.768,7.805 V -1.687 L -9.032,-2.253 V 9.11 l 3.538,0.883 2.134,-8.481 0.025,0.007 2.081,9.531 3.492,0.871 V 0.558 Z m -16.352,-4.077 v 9.348 l -3.643,-0.909 v 2.009 l 9.637,2.402 V 6.765 L -13.87,5.889 v -9.348 z"
       style="fill:#000000;fill-opacity:1;fill-rule:nonzero;stroke:none"
       id="path1157"
       transform="translate(497.7614,249.328)"
       inkscape:label="path37" />
  </g>
</svg>
