<?xml version="1.0" encoding="UTF-8" standalone="no"?>
<!-- Created with Inkscape (http://www.inkscape.org/) -->

<svg
   version="1.1"
   id="svg2"
   width="666.66669"
   height="744.87598"
   viewBox="0 0 666.66669 744.87598"
   sodipodi:docname="Rhythm Tengoku Complete Music Collection (リズム天国全曲集) Logo (Print).ai"
   xmlns:inkscape="http://www.inkscape.org/namespaces/inkscape"
   xmlns:sodipodi="http://sodipodi.sourceforge.net/DTD/sodipodi-0.dtd"
   xmlns="http://www.w3.org/2000/svg"
   xmlns:svg="http://www.w3.org/2000/svg">
  <defs
     id="defs6">
    <clipPath
       clipPathUnits="userSpaceOnUse"
       id="clipPath16">
      <path
         d="M 0,558.657 H 500 V 0 H 0 Z"
         id="path14" />
    </clipPath>
  </defs>
  <sodipodi:namedview
     id="namedview4"
     pagecolor="#ffffff"
     bordercolor="#000000"
     borderopacity="0.25"
     inkscape:showpageshadow="2"
     inkscape:pageopacity="0.0"
     inkscape:pagecheckerboard="0"
     inkscape:deskcolor="#d1d1d1" />
  <g
     id="g8"
     inkscape:groupmode="layer"
     inkscape:label="Rhythm Tengoku Complete Music Collection (リズム天国全曲集) Logo (Print)"
     transform="matrix(1.3333333,0,0,-1.3333333,0,744.876)">
    <g
       id="g10">
      <g
         id="g12"
         clip-path="url(#clipPath16)">
        <g
           id="g18"
           transform="translate(419.674,298.0782)">
          <path
             d="m 0,0 c 0.664,4.922 0.997,9.89 0.997,14.886 0,16.596 -3.621,32.702 -10.586,47.451 25.928,20.963 41.411,52.704 41.411,86.728 0,61.489 -50.025,111.514 -111.514,111.514 -32.769,0 -63.548,-14.328 -84.618,-38.878 -4.42,0.532 -8.864,0.8 -13.297,0.8 -28.897,0 -56.69,-11.414 -77.311,-31.187 -16.236,8.88 -34.347,13.508 -53.242,13.508 -61.489,0 -111.514,-50.025 -111.514,-111.514 0,-44.466 25.799,-83.509 64.882,-101.345 -2.909,-10.056 -4.41,-20.524 -4.41,-31.021 0,-17.821 4.29,-35.287 12.336,-50.948 -34.023,-19.559 -55.582,-55.845 -55.582,-96.558 0,-61.489 50.025,-111.514 111.514,-111.514 36.903,0 71.421,18.601 92.013,48.534 8.427,-2.01 17.071,-3.023 25.847,-3.023 32.614,0 63.508,14.497 84.502,38.804 16.243,-8.345 34.205,-12.692 52.851,-12.692 63.989,0 116.047,52.058 116.047,116.047 C 80.326,-59.448 47.002,-15.199 0,0"
             style="fill:#000000;fill-opacity:1;fill-rule:nonzero;stroke:none"
             id="path20" />
        </g>
        <g
           id="g22"
           transform="translate(408.8123,291.2476)">
          <path
             d="m 0,0 c 1.555,7.123 2.339,14.391 2.339,21.716 0,17.786 -4.547,34.955 -13.231,50.233 27.413,18.931 44.056,50.213 44.056,83.947 0,56.239 -45.754,101.994 -101.994,101.994 -31.707,0 -61.378,-14.668 -80.654,-39.555 -5.716,0.982 -11.497,1.477 -17.261,1.477 -28.847,0 -56.49,-12.435 -75.718,-33.678 -16.36,10.497 -35.131,15.999 -54.835,15.999 -56.24,0 -101.995,-45.755 -101.995,-101.994 0,-43.59 27.101,-81.479 67.217,-95.899 -4.434,-11.599 -6.745,-24.01 -6.745,-36.467 0,-19.505 5.619,-38.548 16.022,-54.849 -35.943,-16.45 -59.268,-52.159 -59.268,-92.658 0,-56.24 45.755,-101.994 101.995,-101.994 36.015,0 69.549,19.375 87.774,50.039 9.72,-3.008 19.803,-4.528 30.086,-4.528 32.436,0 63.017,15.682 82.114,41.531 16.606,-10.118 35.504,-15.419 55.239,-15.419 58.739,0 106.527,47.788 106.527,106.527 C 81.668,-53.981 47.275,-11.305 0,0"
             style="fill:#ffffff;fill-opacity:1;fill-rule:nonzero;stroke:none"
             id="path24" />
        </g>
        <g
           id="g26"
           transform="translate(396.301,283.4111)">
          <path
             d="m 0,0 c 3.146,9.279 4.878,19.211 4.878,29.553 0,19.916 -6.348,38.338 -17.101,53.398 28.556,15.621 47.926,45.937 47.926,80.781 0,50.823 -41.2,92.022 -92.022,92.022 -31.795,0 -59.822,-16.126 -76.352,-40.644 -6.92,1.662 -14.134,2.566 -21.563,2.566 -30.282,0 -57.142,-14.631 -73.912,-37.205 -15.619,12.222 -35.271,19.526 -56.641,19.526 -50.822,0 -92.022,-41.199 -92.022,-92.022 0,-43.594 30.325,-80.082 71.024,-89.586 -6.727,-12.783 -10.552,-27.331 -10.552,-42.78 0,-22.693 8.23,-43.453 21.848,-59.498 -37.682,-11.516 -65.094,-46.557 -65.094,-88.009 0,-50.822 41.2,-92.021 92.022,-92.021 36.614,0 68.229,21.386 83.047,52.347 10.742,-4.395 22.49,-6.835 34.813,-6.835 33.829,0 63.376,18.267 79.365,45.463 16.148,-12.148 36.225,-19.353 57.988,-19.353 53.326,0 96.555,43.229 96.555,96.555 C 84.207,-46.603 47.49,-6.067 0,0"
             style="fill:#000000;fill-opacity:1;fill-rule:nonzero;stroke:none"
             id="path28" />
        </g>
        <g
           id="g30"
           transform="translate(376.1196,200.66)">
          <path
             d="m 0,0 -12.573,-3.844 c 0,3.033 1.852,5.237 4.878,6.162 L 0,4.671 Z m 0,-12.622 -12.573,-3.844 v 5.029 L 0,-7.593 Z m 0,-12.354 -12.573,-3.844 v 4.86 L 0,-20.116 Z m 65.171,6.648 -44.084,-13.478 v 4.065 l 34.743,10.622 v 9.212 L 21.087,-18.529 v 4.86 l 22.414,6.853 V 0.678 L 21.087,-6.175 v 5.029 l 21.653,6.62 v 7.593 L 21.087,6.447 c 0,3.258 1.798,5.22 5.355,6.308 l 29.047,8.88 v 9.304 L 23.513,21.163 c 4.759,5.368 5.861,11.436 5.861,15.772 L 10.365,31.123 C 9.407,23.394 5.741,14.666 -3.019,13.716 c 0,0 3.699,7.212 3.699,14.446 L -23.974,20.625 C -25.531,-1.156 -31.812,-0.18 -42.764,-3.528 v -17.238 l 10.887,3.328 V -43.934 L 0,-34.188 v -4.065 l -42.764,-13.074 v -9.097 l 31.46,9.618 c -2.151,-5.98 -7.259,-12.283 -15.854,-14.911 l -15.606,-4.771 v -10.244 l 24.201,7.399 c 10.367,3.17 14.954,7.32 18.563,14.226 v -8.551 l 21.087,6.447 v 13.744 c 9.402,-1.228 15.796,-5.455 18.238,-8.168 l 25.409,7.769 c -7.62,7.581 -23.526,11.03 -30.232,11.064 l 30.669,9.377 z"
             style="fill:#ffffff;fill-opacity:1;fill-rule:nonzero;stroke:none"
             id="path32" />
        </g>
        <g
           id="g34"
           transform="translate(405.7236,255.9522)">
          <path
             d="m 0,0 c -1.074,1.204 -2.657,0.76 -3.512,0.499 -0.909,-0.278 -1.691,-0.596 -4.474,-1.826 -2.31,-1.024 -2.984,-1.29 -3.692,-1.567 l 0.399,-2.187 c 4.057,1.997 6.258,3.069 7.477,3.441 1.727,0.528 2.601,0.178 2.601,-2.172 0,-3.225 -1.51,-6.175 -8.367,-8.193 l 0.381,-1.894 c 4.093,1.47 10.132,3.874 10.132,10.644 C 0.945,-2.797 0.927,-1.031 0,0 M -1.51,2.385 C -4.421,2.75 -9.204,1.706 -9.987,1.526 l 0.31,2.166 c 0.545,0.126 5.093,1.257 8.712,1.11 z"
             style="fill:#ffffff;fill-opacity:1;fill-rule:nonzero;stroke:none"
             id="path36" />
        </g>
        <g
           id="g38"
           transform="translate(379.9064,241.2061)">
          <path
             d="m 0,0 c 0.387,1.594 0.387,3.24 0.331,6.001 2.1,0.24 2.1,-1.906 2.1,-2.251 C 2.431,3.31 2.431,1.165 0,0 m 0.294,7.771 c 0,0.305 -0.036,1.751 -0.055,1.955 L -1.658,9.089 C -1.603,8.187 -1.585,7.77 -1.547,7.131 -2.212,6.793 -4.403,5.646 -6.484,2.767 c 0.036,1.524 0.165,2.906 0.386,4.486 L -8.032,6.757 C -8.124,5.484 -8.29,3.289 -8.29,0.3 c 0,-2.777 0.148,-4.169 0.276,-5.163 l 1.788,0.795 c -0.314,1.839 -0.333,2.811 -0.278,4.033 0.923,2.485 3.151,4.469 5.012,5.421 0.055,-2.742 0.018,-4.343 -0.351,-5.757 -1.325,0.169 -1.583,1.564 -1.694,2.335 L -5.177,0.85 c 0.351,-1.77 1.013,-2.832 2.45,-3.082 -0.737,-0.953 -1.399,-1.366 -1.971,-1.713 l 1.142,-1.164 c 0.645,0.445 1.916,1.332 2.801,3.039 4.107,1.16 5.047,4.589 5.047,6.447 0,1.877 -0.903,4.033 -3.998,3.394"
             style="fill:#ffffff;fill-opacity:1;fill-rule:nonzero;stroke:none"
             id="path40" />
        </g>
        <g
           id="g42"
           transform="translate(359.8715,239.655)">
          <path
             d="m 0,0 c -0.685,-3.66 -1.684,-6.669 -5.868,-7.948 -2.425,-0.741 -3.111,0.038 -3.111,3.165 0,0.524 0.149,9.185 0.167,10.905 l -2.259,-0.649 c -0.073,-3.937 -0.073,-6.621 -0.073,-8.416 0,-3.571 0,-5.307 0.777,-6.361 0.685,-0.939 2,-1.526 4.776,-0.677 6.146,1.879 7.184,7.562 7.628,9.978 z"
             style="fill:#ffffff;fill-opacity:1;fill-rule:nonzero;stroke:none"
             id="path44" />
        </g>
        <g
           id="g46"
           transform="translate(289.4407,159.0018)">
          <path
             d="M 0,0 -11.638,-3.558 V 18.213 L 0,21.772 Z m 0,-23.127 c 0,-3.663 -2.718,-7.464 -6.071,-8.489 l -5.567,-1.702 v 20.583 L 0,-9.176 Z m -25.281,15.398 -10.578,-3.234 v 21.771 l 10.578,3.234 z m 0,-29.761 -10.578,-3.234 v 20.584 l 10.578,3.234 z m -24.221,22.356 -11.638,-3.558 v 15.138 c 0,3.663 2.717,7.464 6.07,8.489 l 5.568,1.702 z m 0,-29.761 -11.638,-3.558 v 20.584 l 11.638,3.558 z m 37.864,75.776 v 19.57 L -25.281,46.28 V 26.709 L -35.859,23.475 V 43.046 L -49.502,38.874 V 19.304 L -84.417,8.63 v -76.747 l 107.693,32.925 v 76.747 z"
             style="fill:#ffffff;fill-opacity:1;fill-rule:nonzero;stroke:none"
             id="path48" />
        </g>
        <g
           id="g50"
           transform="translate(277.6034,223.4781)">
          <path
             d="m 0,0 c -0.541,0.153 -1.379,0.395 -1.379,0.893 0,0.419 0.372,0.851 1.285,1.868 3.635,4.079 4.046,4.544 6.673,7.818 L 4.586,11.463 C 3.281,9.67 2.777,9.057 -0.988,4.579 -2.926,2.272 -3.858,0.992 -3.858,0.015 c 0,-1.275 1.342,-1.701 2.851,-2.176 2.815,-0.873 5.499,-1.984 8.015,-3.407 l 1.846,2.217 C 7.158,-2.315 2.741,-0.757 0,0"
             style="fill:#ffffff;fill-opacity:1;fill-rule:nonzero;stroke:none"
             id="path52" />
        </g>
        <g
           id="g54"
           transform="translate(256.6515,212.6874)">
          <path
             d="m 0,0 c 0,-1.043 -1.115,-1.483 -1.608,-1.634 -1.262,-0.385 -1.718,0.223 -1.718,0.834 0,0.807 0.749,1.588 2.029,1.979 0.585,0.179 0.968,0.216 1.297,0.219 z m 1.974,3.479 v 3.168 l 4.899,1.498 v 2.067 L 1.974,8.714 v 2.598 L -0.018,10.703 0,3.366 C -0.311,3.311 -0.64,3.249 -1.133,3.098 -3.472,2.383 -5.135,0.615 -5.135,-1.49 c 0,-2.067 1.626,-2.693 3.654,-2.073 0.714,0.219 1.829,0.697 2.651,1.696 0.604,0.736 0.786,1.639 0.786,2.446 V 1.327 C 3.674,0.986 4.826,0.451 6.105,-0.574 L 7.476,1.774 C 5.575,2.886 3.711,3.34 1.974,3.479"
             style="fill:#ffffff;fill-opacity:1;fill-rule:nonzero;stroke:none"
             id="path56" />
        </g>
        <g
           id="g58"
           transform="translate(230.0328,205.6944)">
          <path
             d="M 0,0 C 0,0.361 0.163,1.455 1.562,2.966 L 0.128,3.591 c -2.051,-2.213 -2.051,-3.878 -2.051,-4.28 0,-0.281 0.035,-2.821 3.411,-2.45 1.271,0.128 3.739,0.842 5.119,1.264 1.779,0.544 2.741,0.917 3.395,1.178 V 1.431 C 9.33,1.145 8.314,0.694 5.464,-0.177 2.778,-0.998 0,-1.848 0,0 m 2.867,5.554 -6.28,-1.92 V 5.601 L 3.013,7.565 C 3.322,7.66 3.576,7.737 4.357,7.997 4.266,8.311 4.103,8.882 3.83,10.004 3.685,9.96 3.05,9.745 2.922,9.705 L -2.759,7.969 v 1.968 l 5.645,1.725 c 0.055,0.017 0.508,0.177 0.617,0.23 -0.144,1.039 -0.181,1.61 -0.218,2.202 l 2.088,0.819 c 0.018,-0.598 0.037,-1.074 0.181,-2.274 2.506,0.927 3.903,1.756 4.557,2.156 L 10.31,12.808 C 8.858,11.943 7.551,11.423 5.863,10.766 5.972,10.177 6.208,9.245 6.389,8.698 7.86,9.249 9.748,9.966 11.526,11.092 L 11.834,9.239 C 10.201,8.218 8.786,7.665 6.988,6.954 7.514,5.71 7.733,5.194 8.621,4.282 L 6.789,2.697 C 6.298,3.25 5.791,3.898 4.956,6.212 4.229,5.971 3.613,5.782 2.867,5.554"
             style="fill:#ffffff;fill-opacity:1;fill-rule:nonzero;stroke:none"
             id="path60" />
        </g>
        <g
           id="g62"
           transform="translate(114.7868,116.2116)">
          <path
             d="M 0,0 -33.54,-10.254 V 6.884 l 20.924,6.397 C 4.48,18.508 6.161,40.134 6.161,40.134 l 28.484,8.709 c 0,-4.786 -1.61,-9.744 -1.61,-9.744 C 38.461,39.081 68.1,31.517 73.879,22.587 L 45.838,14.014 C 41.632,18.359 32.133,22.688 26.809,23.903 20.58,12.238 9.977,3.05 0,0 m 41.677,-35.895 c -4.459,-1.356 -8.044,1.194 -8.044,5.631 v 4.87 l 30.96,9.466 v 10.296 l -30.96,-9.466 v 4.879 c 0,3.357 2.712,6.891 6.045,7.902 l 25.329,7.744 v 10.296 l -88.653,-27.104 v -10.296 l 25.33,7.744 c 3.332,1.011 6.045,-0.872 6.045,-4.205 v -4.879 l -30.961,-9.466 v -10.296 l 30.961,9.466 v -4.871 c 0,-4.437 -3.609,-9.2 -8.068,-10.556 l -32.57,-9.958 v -10.289 l 107.156,32.761 v 10.289 z"
             style="fill:#ffffff;fill-opacity:1;fill-rule:nonzero;stroke:none"
             id="path64" />
        </g>
        <g
           id="g66"
           transform="translate(153.1836,189.3431)">
          <path
             d="m 0,0 c -0.393,-1.319 -2.078,-6.904 -2.387,-8.055 l 0.028,-0.028 c 0.365,0.421 1.067,1.179 2.303,1.572 2.864,0.843 2.977,-2.02 2.977,-3.592 v -0.841 c 0,-0.59 0,-2.358 1.544,-1.909 1.741,0.506 2.471,3.228 2.808,6.821 l 1.91,-0.056 c -0.477,-4.462 -1.488,-7.999 -4.886,-9.01 -3.37,-1.011 -3.398,2.385 -3.398,3.48 v 0.673 c 0,1.263 0.028,2.554 -1.348,2.133 -1.798,-0.534 -2.893,-2.667 -3.539,-4.772 -0.168,-0.73 -0.87,-3.845 -1.039,-4.49 l -2.078,0.027 c 1.067,3.733 3.623,13.275 4.83,17.794 z"
             style="fill:#ffffff;fill-opacity:1;fill-rule:nonzero;stroke:none"
             id="path68" />
        </g>
        <g
           id="g70"
           transform="translate(119.3585,179.5481)">
          <path
             d="m 0,0 -2.041,-0.684 c 0.072,-0.948 0.109,-1.571 0.2,-4.158 l -5.744,-1.836 0.019,3.89 -1.933,-0.591 -0.018,-3.909 -2.863,-0.915 0.037,-2.05 2.808,0.899 -0.037,-4.35 c 0,-0.574 0,-2.536 0.529,-3.504 1.13,-2.031 2.99,-1.482 5.798,-0.624 2.316,0.708 3.118,0.973 5.469,1.83 l -0.09,2.133 c -1.678,-0.672 -4.595,-1.624 -4.997,-1.746 -4.139,-1.266 -4.777,-1.283 -4.758,2.567 l 0.018,4.304 5.798,1.852 c -0.073,-3.509 -0.164,-4.191 -1.55,-4.614 -0.675,-0.206 -1.221,-0.235 -1.932,-0.254 l -0.019,-2.145 c 0.511,0.037 1.368,0.1 2.262,0.374 3.263,0.997 3.263,3.791 3.263,7.277 l 3.41,1.103 v 2.06 L 0.201,-4.179 C 0.164,-3.239 0.055,-0.736 0,0 M 2.517,-1.331 C 2.462,-0.714 2.17,0.643 1.86,1.281 L 0.529,0.656 C 0.857,-0.313 1.022,-1.293 1.094,-2.063 Z M 3.21,-1.099 C 3.173,-0.893 2.917,0.674 2.552,1.573 L 3.957,2.219 C 4.194,1.579 4.303,1.117 4.613,-0.413 Z"
             style="fill:#ffffff;fill-opacity:1;fill-rule:nonzero;stroke:none"
             id="path72" />
        </g>
        <g
           id="g74"
           transform="translate(381.8413,273.4499)">
          <path
             d="M 0,0 V 9.925 L -2.313,-0.658 -4.819,-1.37 -7.077,7.914 V -2.012 L -9.445,-2.685 V 9.197 l 3.7,1.052 2.231,-8.791 0.027,0.008 2.176,10.043 3.652,1.038 V 0.665 Z m -17.098,-4.86 v 9.774 l -3.81,-1.083 v 2.101 l 10.076,2.864 v -2.1 l -3.672,-1.044 v -9.775 z"
             style="fill:#ffffff;fill-opacity:1;fill-rule:nonzero;stroke:none"
             id="path76" />
        </g>
        <g
           id="g78"
           transform="translate(332.2265,339.8696)">
          <path
             d="m 0,0 -54.934,-16.795 c -2.953,-0.893 -4.714,-3.482 -4.713,-6.87 v -62.638 l 54.933,16.795 c 2.733,0.819 4.714,3.242 4.714,6.87 z m 22.152,18.753 v -91.999 l -103.941,-31.777 v 91.998 z m -32.454,-72.379 v 8.802 l -6.238,-1.907 v -8.802 z m 0,-12.015 -39.033,-11.934 v 7.169 l 6.891,2.107 c 2.814,0.861 4.482,3.104 4.482,6.816 v 13.05 l -11.373,-3.478 v 7.747 l 11.373,3.477 v 13.362 c 0,1.551 -0.933,3.639 -5.228,2.326 l -6.145,-1.879 v 7.217 l 39.033,11.933 v -7.216 l -6.815,-2.084 c -2.912,-0.89 -4.558,-3.061 -4.558,-6.823 v -11.856 l 11.373,3.477 v -7.747 l -11.373,-3.477 V -58.01 c 0,-2.291 1.76,-3.401 5.304,-2.318 l 6.069,1.856 z"
             style="fill:#ffffff;fill-opacity:1;fill-rule:nonzero;stroke:none"
             id="path80" />
        </g>
        <g
           id="g82"
           transform="translate(328.0673,356.9613)">
          <path
             d="m 0,0 c -3.127,1.848 -4.662,2.359 -8.784,3.781 -0.853,0.313 -1.905,0.881 -1.905,1.904 0,0.995 1.024,2.36 2.246,3.838 4.833,5.828 4.918,5.998 6.055,7.59 l 1.962,-0.91 C -3.099,12.821 -3.582,12.309 -7.618,7.704 -8.016,7.277 -8.272,6.879 -8.272,6.538 c 0,-0.511 0.853,-0.767 1.364,-0.909 2.559,-0.74 6.936,-2.36 8.67,-3.44 z"
             style="fill:#ffffff;fill-opacity:1;fill-rule:nonzero;stroke:none"
             id="path84" />
        </g>
        <g
           id="g86"
           transform="translate(278.5057,350.9334)">
          <path
             d="m 0,0 c -1.543,-2.077 -1.6,-3.564 -1.6,-3.929 0,-2.553 3.48,-1.543 6.174,-0.729 1.768,0.533 3.564,1.15 5.304,1.964 L 9.934,-4.883 C 9.317,-5.191 8.054,-5.725 5.248,-6.595 1.684,-7.661 0.14,-7.97 -1.403,-7.633 c -1.263,0.281 -2.217,1.487 -2.217,3.031 0,1.824 0.814,3.283 2.133,5.332 z M 8.98,10.102 V 8.166 C 6.707,7.044 5.079,5.725 3.003,3.676 l -1.291,1.01 c 0.589,0.618 0.701,0.73 1.88,1.684 L 3.564,6.398 C 1.122,5.612 -1.375,4.827 -2.834,4.294 V 6.51 c 0.533,0.141 2.778,0.814 3.704,1.095 z m 3.367,-3.956 c -0.785,1.403 -1.318,1.992 -1.599,2.301 l 1.178,1.122 c 0.786,-0.814 1.347,-1.74 1.656,-2.245 z M 9.794,3.957 C 9.176,4.995 8.812,5.5 8.082,6.258 l 1.263,1.179 c 0.729,-0.674 1.319,-1.544 1.712,-2.274 z"
             style="fill:#ffffff;fill-opacity:1;fill-rule:nonzero;stroke:none"
             id="path88" />
        </g>
        <g
           id="g90"
           transform="translate(190.8643,258.6849)">
          <path
             d="M 0,0 C 0.213,4.142 0.052,10.28 0.052,10.28 L 38.78,22.12 V 38.236 L 0.052,26.396 V 40.827 L 38.78,52.667 V 68.744 L -65.825,36.763 V 20.686 l 38.097,11.648 V 17.903 L -65.825,6.256 V -9.861 l 38.097,11.648 v -5.96 c 0,-19.084 -10.279,-26.804 -25.888,-31.588 l -12.209,-3.733 v -16.152 l 26.59,8.13 c 20.423,6.234 27.622,13.472 35.716,32.791 4.442,-1.765 16.506,-9.719 21.399,-15.329 l 27.501,8.408 C 37.153,-12.567 7.843,-1.536 0,0"
             style="fill:#ffffff;fill-opacity:1;fill-rule:nonzero;stroke:none"
             id="path92" />
        </g>
        <g
           id="g94"
           transform="translate(195.9062,339.7151)">
          <path
             d="m 0,0 c -0.391,-1.312 -2.066,-6.868 -2.373,-8.012 l 0.028,-0.028 c 0.363,0.419 1.061,1.172 2.289,1.563 2.848,0.838 2.959,-2.01 2.959,-3.573 v -0.838 c 0,-0.586 0,-2.345 1.536,-1.898 1.731,0.502 2.457,3.21 2.792,6.784 l 1.898,-0.056 c -0.475,-4.439 -1.48,-7.956 -4.858,-8.961 -3.35,-1.005 -3.378,2.373 -3.378,3.461 v 0.67 c 0,1.257 0.028,2.541 -1.34,2.122 -1.786,-0.53 -2.875,-2.652 -3.517,-4.746 -0.168,-0.726 -0.866,-3.825 -1.033,-4.467 l -2.066,0.028 c 1.061,3.713 3.601,13.205 4.802,17.7 z"
             style="fill:#ffffff;fill-opacity:1;fill-rule:nonzero;stroke:none"
             id="path96" />
        </g>
        <g
           id="g98"
           transform="translate(165.2156,330.1659)">
          <path
             d="m 0,0 v -2.225 c -0.479,-0.084 -0.929,-0.168 -1.83,-0.45 -3.07,-0.901 -8.054,-5.998 -8.082,-9.94 -0.028,-2.225 1.859,-2.365 3.126,-2.337 1.126,0.028 2.759,0.281 5.012,0.957 l -0.282,-2.45 c -1.83,-0.478 -3.942,-0.929 -5.716,-0.844 -1.971,0.056 -4.252,0.901 -4.252,3.914 0.028,1.633 0.704,5.096 5.069,9.123 l -0.028,0.028 c -3.999,-1.323 -4.478,-1.464 -8.617,-2.9 v 2.253 c 0.732,0.197 5.913,1.83 8.053,2.506 z"
             style="fill:#ffffff;fill-opacity:1;fill-rule:nonzero;stroke:none"
             id="path100" />
        </g>
        <g
           id="g102"
           transform="translate(395.4412,441.3826)">
          <path
             d="m 0,0 -4.047,-1.237 c -2.648,-0.817 -5.563,-0.03 -7.575,2.943 l -9.232,13.641 -26.83,-8.203 12.147,-18.009 -33.092,-10.117 20.028,65.511 c 0.876,2.862 2.433,4.657 4.566,5.325 l 6.733,2.059 V 62.809 L -70.35,52.705 -94.132,-25.081 c -0.921,-3.012 -2.702,-4.524 -4.598,-5.104 l -4.097,-1.252 v -15.751 l 111.635,34.13 z"
             style="fill:#ffffff;fill-opacity:1;fill-rule:nonzero;stroke:none"
             id="path104" />
        </g>
        <g
           id="g106"
           transform="translate(256.442,395.4908)">
          <path
             d="m 0,0 c 10.198,16.171 11.643,26.346 13.084,37.554 0.505,4.055 2.434,6.151 4.617,6.818 l 4.057,1.241 V 60.736 L -73.207,31.702 v -16.02 l 59.474,18.182 c -2.399,-37.006 -20.334,-52.9 -53.628,-63.079 l -5.846,-1.787 V -46.82 l 17.606,5.384 c 22.789,6.966 33.791,13.66 47.231,30.209 3.469,-1.686 8.055,-5.813 10.654,-12.513 l 26.802,8.194 C 25.314,-10.913 9.29,-1.226 0,0 m 23.764,65.593 c 3.829,1.19 5.955,5.176 4.765,8.932 -1.117,3.829 -5.177,5.955 -8.932,4.765 -3.829,-1.191 -5.881,-5.177 -4.765,-8.932 1.19,-3.83 5.176,-5.882 8.932,-4.765 M -1.958,65.224 c -1.117,3.756 0.935,7.816 4.765,8.932 3.756,1.117 7.742,-1.009 8.932,-4.765 1.116,-3.755 -0.936,-7.741 -4.765,-8.932 -3.756,-1.116 -7.742,1.01 -8.932,4.765"
             style="fill:#ffffff;fill-opacity:1;fill-rule:nonzero;stroke:none"
             id="path108" />
        </g>
        <g
           id="g110"
           transform="translate(102.362,387.5407)">
          <path
             d="m 0,0 -2.243,-0.686 c -3.537,-1.081 -5.27,0.094 -5.27,2.318 v 24.199 c 0,3.251 1.181,5.722 4.471,6.727 L 0,33.488 V 45.259 L -37.048,33.933 V 22.162 l 2.25,0.687 c 3.547,1.085 5.263,-0.085 5.263,-2.296 V -3.645 c 0,-3.283 -1.183,-5.746 -4.464,-6.749 l -3.049,-0.933 V -23.074 L 0,-11.748 Z M 65.412,65.258 V 53.487 L 62.528,52.605 C 59.202,51.588 58.069,49.228 58.069,45.898 V -2.276 c 0,-15.764 -8.467,-27.86 -21.743,-31.872 l -65.579,-20.05 v 15.836 l 46.896,14.338 c 9.009,2.767 13.225,10.595 13.225,21.238 v 41.81 c 0,2.212 -1.725,3.374 -5.267,2.291 l -2.352,-0.719 v 11.771 z"
             style="fill:#ffffff;fill-opacity:1;fill-rule:nonzero;stroke:none"
             id="path112" />
        </g>
      </g>
    </g>
  </g>
</svg>
