<?xml version="1.0" encoding="UTF-8" standalone="no"?>
<!-- Created with Inkscape (http://www.inkscape.org/) -->

<svg
   version="1.1"
   id="svg1"
   width="666.66669"
   height="810.27466"
   viewBox="0 0 666.66669 810.27466"
   sodipodi:docname="Rhythm Tengoku Complete Music Collection (リズム天国全曲集) Logo (Wordmark).ai"
   xmlns:inkscape="http://www.inkscape.org/namespaces/inkscape"
   xmlns:sodipodi="http://sodipodi.sourceforge.net/DTD/sodipodi-0.dtd"
   xmlns="http://www.w3.org/2000/svg"
   xmlns:svg="http://www.w3.org/2000/svg">
  <defs
     id="defs1">
    <clipPath
       clipPathUnits="userSpaceOnUse"
       id="clipPath2">
      <path
         d="M 0,607.706 H 500 V 0 H 0 Z"
         transform="translate(-413.33111,-204.04881)"
         id="path2" />
    </clipPath>
    <clipPath
       clipPathUnits="userSpaceOnUse"
       id="clipPath4">
      <path
         d="M 0,607.706 H 500 V 0 H 0 Z"
         transform="translate(-452.70021,-277.58001)"
         id="path4" />
    </clipPath>
    <clipPath
       clipPathUnits="userSpaceOnUse"
       id="clipPath6">
      <path
         d="M 0,607.706 H 500 V 0 H 0 Z"
         transform="translate(-418.36671,-257.96961)"
         id="path6" />
    </clipPath>
    <clipPath
       clipPathUnits="userSpaceOnUse"
       id="clipPath8">
      <path
         d="M 0,607.706 H 500 V 0 H 0 Z"
         transform="translate(-391.72311,-255.9072)"
         id="path8" />
    </clipPath>
    <clipPath
       clipPathUnits="userSpaceOnUse"
       id="clipPath10">
      <path
         d="M 0,607.706 H 500 V 0 H 0 Z"
         transform="translate(-298.0591,-148.6484)"
         id="path10" />
    </clipPath>
    <clipPath
       clipPathUnits="userSpaceOnUse"
       id="clipPath12">
      <path
         d="M 0,607.706 H 500 V 0 H 0 Z"
         transform="translate(-282.31741,-234.39351)"
         id="path12" />
    </clipPath>
    <clipPath
       clipPathUnits="userSpaceOnUse"
       id="clipPath14">
      <path
         d="M 0,607.706 H 500 V 0 H 0 Z"
         transform="translate(-254.4541,-220.04391)"
         id="path14" />
    </clipPath>
    <clipPath
       clipPathUnits="userSpaceOnUse"
       id="clipPath16">
      <path
         d="M 0,607.706 H 500 V 0 H 0 Z"
         transform="translate(-219.0547,-210.74411)"
         id="path16" />
    </clipPath>
    <clipPath
       clipPathUnits="userSpaceOnUse"
       id="clipPath18">
      <path
         d="M 0,607.706 H 500 V 0 H 0 Z"
         transform="translate(-65.792501,-91.743105)"
         id="path18" />
    </clipPath>
    <clipPath
       clipPathUnits="userSpaceOnUse"
       id="clipPath20">
      <path
         d="M 0,607.706 H 500 V 0 H 0 Z"
         transform="translate(-116.85501,-188.99891)"
         id="path20" />
    </clipPath>
    <clipPath
       clipPathUnits="userSpaceOnUse"
       id="clipPath22">
      <path
         d="M 0,607.706 H 500 V 0 H 0 Z"
         transform="translate(-71.872102,-175.97261)"
         id="path22" />
    </clipPath>
    <clipPath
       clipPathUnits="userSpaceOnUse"
       id="clipPath24">
      <path
         d="M 0,607.706 H 500 V 0 H 0 Z"
         transform="translate(-420.93991,-300.84951)"
         id="path24" />
    </clipPath>
    <clipPath
       clipPathUnits="userSpaceOnUse"
       id="clipPath26">
      <path
         d="M 0,607.706 H 500 V 0 H 0 Z"
         transform="translate(-354.95901,-389.17911)"
         id="path26" />
    </clipPath>
    <clipPath
       clipPathUnits="userSpaceOnUse"
       id="clipPath28">
      <path
         d="M 0,607.706 H 500 V 0 H 0 Z"
         transform="translate(-349.42771,-411.90911)"
         id="path28" />
    </clipPath>
    <clipPath
       clipPathUnits="userSpaceOnUse"
       id="clipPath30">
      <path
         d="M 0,607.706 H 500 V 0 H 0 Z"
         transform="translate(-283.51711,-403.89251)"
         id="path30" />
    </clipPath>
    <clipPath
       clipPathUnits="userSpaceOnUse"
       id="clipPath32">
      <path
         d="M 0,607.706 H 500 V 0 H 0 Z"
         transform="translate(-167.0347,-281.20011)"
         id="path32" />
    </clipPath>
    <clipPath
       clipPathUnits="userSpaceOnUse"
       id="clipPath34">
      <path
         d="M 0,607.706 H 500 V 0 H 0 Z"
         transform="translate(-173.6704,-388.97401)"
         id="path34" />
    </clipPath>
    <clipPath
       clipPathUnits="userSpaceOnUse"
       id="clipPath36">
      <path
         d="M 0,607.706 H 500 V 0 H 0 Z"
         transform="translate(-132.8559,-376.27481)"
         id="path36" />
    </clipPath>
    <clipPath
       clipPathUnits="userSpaceOnUse"
       id="clipPath38">
      <path
         d="M 0,607.706 H 500 V 0 H 0 Z"
         transform="translate(-439.02591,-524.17821)"
         id="path38" />
    </clipPath>
    <clipPath
       clipPathUnits="userSpaceOnUse"
       id="clipPath40">
      <path
         d="M 0,607.706 H 500 V 0 H 0 Z"
         transform="translate(-254.17531,-463.14831)"
         id="path40" />
    </clipPath>
    <clipPath
       clipPathUnits="userSpaceOnUse"
       id="clipPath42">
      <path
         d="M 0,607.706 H 500 V 0 H 0 Z"
         transform="translate(-49.269001,-452.57561)"
         id="path42" />
    </clipPath>
  </defs>
  <sodipodi:namedview
     id="namedview1"
     pagecolor="#ffffff"
     bordercolor="#000000"
     borderopacity="0.25"
     inkscape:showpageshadow="2"
     inkscape:pageopacity="0.0"
     inkscape:pagecheckerboard="0"
     inkscape:deskcolor="#d1d1d1">
    <inkscape:page
       x="0"
       y="0"
       inkscape:label="1"
       id="page1"
       width="666.66669"
       height="810.27466"
       margin="0"
       bleed="0" />
  </sodipodi:namedview>
  <g
     id="layer-MC0"
     inkscape:groupmode="layer"
     inkscape:label="Layer 1">
    <path
       id="path1"
       d="m 0,0 -16.721,-5.112 c 0,4.033 2.463,6.965 6.487,8.195 L 0,6.211 Z m 0,-16.786 -16.721,-5.111 v 6.687 L 0,-10.098 Z m 0,-16.429 -16.721,-5.112 v 6.464 L 0,-26.751 Z m 86.669,8.841 -58.627,-17.924 v 5.405 l 46.205,14.126 v 12.251 L 28.042,-24.642 v 6.464 l 29.809,9.114 V 0.901 L 28.042,-8.212 v 6.688 L 56.838,7.279 V 17.377 L 28.042,8.573 c 0,4.334 2.392,6.943 7.122,8.389 l 38.629,11.81 V 41.145 L 30.834,28.011 c 7.236,8.467 8.616,14.543 8.616,21.225 L 13.785,41.39 C 13.263,34.091 8.499,23.464 1.614,19.077 l -6.435,-1.968 c 3.376,5.609 5.912,13.013 5.912,20.4 L -31.882,27.428 C -33.953,-1.537 -42.306,-0.239 -56.871,-4.692 v -22.924 l 14.478,4.427 V -58.427 L 0,-45.466 v -5.406 l -56.871,-17.387 v -12.097 l 41.838,12.791 c -2.861,-7.954 -9.654,-16.335 -21.084,-19.831 l -20.754,-6.344 v -13.622 l 32.184,9.839 c 13.788,4.215 19.888,9.734 24.687,18.919 v -11.372 l 28.042,8.574 v 18.278 c 12.504,-1.635 21.008,-7.255 24.255,-10.862 l 33.79,10.33 c -10.132,10.082 -31.286,14.67 -40.204,14.715 l 40.786,12.469 z"
       style="fill:#000000;fill-opacity:1;fill-rule:nonzero;stroke:none"
       transform="matrix(1.3333333,0,0,-1.3333333,551.10813,538.2096)"
       clip-path="url(#clipPath2)" />
    <path
       id="path3"
       d="m 0,0 c -1.428,1.602 -3.533,1.012 -4.67,0.664 -1.209,-0.37 -2.249,-0.793 -5.95,-2.429 -3.072,-1.361 -3.968,-1.714 -4.911,-2.084 L -15,-6.757 c 5.396,2.656 8.323,4.081 9.944,4.576 2.297,0.702 3.459,0.237 3.459,-2.889 0,-4.288 -2.008,-8.212 -11.128,-10.895 l 0.508,-2.519 c 5.443,1.956 13.473,5.153 13.473,14.156 C 1.256,-3.719 1.233,-1.371 0,0 M -2.008,3.172 C -5.879,3.657 -12.24,2.269 -13.281,2.029 l 0.411,2.88 c 0.726,0.169 6.773,1.672 11.587,1.477 z"
       style="fill:#000000;fill-opacity:1;fill-rule:nonzero;stroke:none"
       transform="matrix(1.3333333,0,0,-1.3333333,603.60027,440.168)"
       clip-path="url(#clipPath4)" />
    <path
       id="path5"
       d="M 0,0 C 0.514,2.12 0.514,4.31 0.441,7.98 3.233,8.3 3.233,5.446 3.233,4.987 3.233,4.401 3.233,1.55 0,0 m 0.391,10.334 c 0,0.406 -0.047,2.329 -0.073,2.601 l -2.523,-0.848 c 0.074,-1.199 0.098,-1.753 0.147,-2.603 -0.883,-0.45 -3.796,-1.976 -6.565,-5.803 0.048,2.026 0.22,3.863 0.514,5.965 l -2.572,-0.661 c -0.123,-1.692 -0.343,-4.611 -0.343,-8.586 0,-3.693 0.196,-5.544 0.367,-6.866 l 2.377,1.057 c -0.417,2.446 -0.442,3.738 -0.369,5.364 1.227,3.305 4.19,5.942 6.665,7.208 0.073,-3.646 0.024,-5.774 -0.467,-7.655 -1.762,0.224 -2.106,2.08 -2.253,3.105 L -6.885,1.131 c 0.467,-2.355 1.348,-3.767 3.259,-4.099 -0.98,-1.267 -1.861,-1.817 -2.622,-2.278 l 1.519,-1.548 c 0.857,0.592 2.548,1.772 3.725,4.042 5.462,1.542 6.712,6.103 6.712,8.572 0,2.497 -1.201,5.364 -5.317,4.514"
       style="fill:#000000;fill-opacity:1;fill-rule:nonzero;stroke:none"
       transform="matrix(1.3333333,0,0,-1.3333333,557.82227,466.3152)"
       clip-path="url(#clipPath6)" />
    <path
       id="path7"
       d="m 0,0 c -0.912,-4.867 -2.24,-8.869 -7.804,-10.57 -3.225,-0.986 -4.136,0.05 -4.136,4.209 0,0.698 0.197,12.215 0.221,14.503 l -3.004,-0.865 c -0.097,-5.235 -0.097,-8.804 -0.097,-11.191 0,-4.749 0,-7.058 1.033,-8.459 0.911,-1.249 2.66,-2.03 6.352,-0.901 8.173,2.499 9.553,10.056 10.143,13.269 z"
       style="fill:#000000;fill-opacity:1;fill-rule:nonzero;stroke:none"
       transform="matrix(1.3333333,0,0,-1.3333333,522.29747,469.06507)"
       clip-path="url(#clipPath8)" />
    <path
       id="path9"
       d="M 0,0 -15.477,-4.731 V 24.222 L 0,28.954 Z m 0,-30.755 c 0,-4.872 -3.614,-9.927 -8.073,-11.29 l -7.404,-2.264 v 27.374 L 0,-12.203 Z m -33.621,20.477 -14.067,-4.301 v 28.953 l 14.067,4.301 z m 0,-39.577 -14.067,-4.301 v 27.374 l 14.067,4.301 z m -32.211,29.729 -15.477,-4.731 v 20.13 c 0,4.873 3.615,9.927 8.074,11.29 l 7.403,2.264 z m 0,-39.577 -15.477,-4.733 v 27.374 l 15.477,4.732 z m 50.355,100.77 V 67.094 L -33.621,61.546 V 35.521 L -47.688,31.22 V 57.245 L -65.832,51.698 V 25.673 L -112.263,11.477 V -90.586 L 30.954,-46.8 30.955,55.263 Z"
       style="fill:#000000;fill-opacity:1;fill-rule:nonzero;stroke:none"
       transform="matrix(1.3333333,0,0,-1.3333333,397.41213,612.0768)"
       clip-path="url(#clipPath10)" />
    <path
       id="path11"
       d="m 0,0 c -0.719,0.204 -1.834,0.526 -1.834,1.187 0,0.558 0.495,1.132 1.709,2.485 4.834,5.426 5.38,6.043 8.875,10.397 L 6.099,15.245 C 4.363,12.86 3.693,12.045 -1.313,6.091 -3.892,3.022 -5.131,1.319 -5.131,0.021 c 0,-1.697 1.785,-2.263 3.792,-2.894 3.743,-1.161 7.313,-2.64 10.659,-4.531 l 2.454,2.948 C 9.519,-3.078 3.645,-1.006 0,0"
       style="fill:#000000;fill-opacity:1;fill-rule:nonzero;stroke:none"
       transform="matrix(1.3333333,0,0,-1.3333333,376.4232,497.75)"
       clip-path="url(#clipPath12)" />
    <path
       id="path13"
       d="m 0,0 c 0,-1.388 -1.483,-1.972 -2.139,-2.173 -1.677,-0.513 -2.284,0.297 -2.284,1.109 0,1.073 0.996,2.111 2.698,2.631 C -0.947,1.806 -0.437,1.855 0,1.859 Z M 2.625,4.626 V 8.84 l 6.516,1.992 V 13.58 L 2.625,11.589 v 3.454 L -0.024,14.233 0,4.477 C -0.414,4.403 -0.851,4.32 -1.507,4.12 -4.618,3.169 -6.829,0.817 -6.829,-1.982 c 0,-2.748 2.162,-3.58 4.86,-2.756 0.949,0.29 2.431,0.925 3.525,2.255 0.803,0.979 1.045,2.179 1.045,3.253 V 1.764 C 4.885,1.311 6.417,0.601 8.119,-0.763 L 9.942,2.358 C 7.414,3.838 4.935,4.441 2.625,4.626"
       style="fill:#000000;fill-opacity:1;fill-rule:nonzero;stroke:none"
       transform="matrix(1.3333333,0,0,-1.3333333,339.27213,516.8828)"
       clip-path="url(#clipPath14)" />
    <path
       id="path15"
       d="M 0,0 C 0,0.479 0.217,1.935 2.077,3.944 L 0.17,4.775 c -2.728,-2.942 -2.728,-5.157 -2.728,-5.691 0,-0.374 0.047,-3.751 4.537,-3.259 1.689,0.17 4.973,1.12 6.807,1.681 2.366,0.723 3.645,1.221 4.515,1.566 V 1.903 C 12.408,1.522 11.056,0.923 7.267,-0.235 3.694,-1.328 0,-2.457 0,0 M 3.813,7.387 -4.539,4.833 v 2.615 l 8.546,2.613 c 0.41,0.126 0.749,0.229 1.787,0.574 -0.121,0.417 -0.338,1.178 -0.7,2.669 C 4.9,13.245 4.056,12.959 3.886,12.907 l -7.555,-2.31 v 2.617 l 7.507,2.296 c 0.073,0.021 0.675,0.234 0.82,0.304 -0.192,1.382 -0.241,2.141 -0.289,2.929 l 2.777,1.089 c 0.023,-0.795 0.048,-1.428 0.24,-3.024 3.332,1.233 5.19,2.336 6.06,2.867 l 0.264,-2.642 c -1.93,-1.15 -3.668,-1.842 -5.914,-2.717 0.145,-0.782 0.46,-2.022 0.701,-2.749 1.955,0.732 4.466,1.686 6.831,3.183 l 0.41,-2.464 C 13.565,10.928 11.684,10.192 9.292,9.247 9.993,7.593 10.284,6.907 11.465,5.694 L 9.028,3.587 C 8.375,4.321 7.701,5.184 6.59,8.262 5.624,7.939 4.804,7.689 3.813,7.387"
       style="fill:#000000;fill-opacity:1;fill-rule:nonzero;stroke:none"
       transform="matrix(1.3333333,0,0,-1.3333333,292.07293,529.28253)"
       clip-path="url(#clipPath16)" />
    <path
       id="path17"
       d="M 0,0 -44.605,-13.637 V 9.155 l 27.827,8.507 C 5.958,24.613 8.193,53.374 8.193,53.374 l 37.88,11.581 c 0,-6.365 -2.14,-12.958 -2.14,-12.958 7.215,-0.024 46.63,-10.083 54.316,-21.959 L 60.958,18.638 C 55.364,24.416 42.733,30.173 35.652,31.788 27.369,16.275 13.268,4.057 0,0 m 55.425,-47.735 c -5.93,-1.803 -10.698,1.588 -10.698,7.488 v 6.476 L 85.9,-21.183 V -7.489 L 44.727,-20.077 v 6.488 c 0,4.463 3.607,9.163 8.039,10.508 L 86.451,7.218 V 20.91 L -31.446,-15.135 v -13.692 l 33.685,10.299 c 4.432,1.344 8.039,-1.16 8.039,-5.593 v -6.488 l -41.174,-12.589 v -13.693 l 41.174,12.588 v -6.476 c 0,-5.901 -4.799,-12.236 -10.729,-14.039 l -43.313,-13.243 v -13.682 l 142.503,43.567 v 13.684 z"
       style="fill:#000000;fill-opacity:1;fill-rule:nonzero;stroke:none"
       transform="matrix(1.3333333,0,0,-1.3333333,87.723333,687.95053)"
       clip-path="url(#clipPath18)" />
    <path
       id="path19"
       d="m 0,0 c -0.522,-1.755 -2.764,-9.182 -3.174,-10.712 l 0.037,-0.037 c 0.486,0.56 1.419,1.567 3.062,2.09 3.81,1.121 3.959,-2.687 3.959,-4.777 v -1.119 c 0,-0.784 0,-3.135 2.054,-2.538 2.316,0.673 3.287,4.293 3.735,9.071 l 2.539,-0.075 c -0.634,-5.934 -1.979,-10.636 -6.498,-11.981 -4.482,-1.345 -4.519,3.172 -4.519,4.627 v 0.895 c 0,1.68 0.037,3.397 -1.792,2.836 -2.391,-0.709 -3.847,-3.546 -4.706,-6.345 -0.224,-0.97 -1.158,-5.114 -1.382,-5.972 L -9.449,-24 c 1.42,4.964 4.818,17.654 6.424,23.663 z"
       style="fill:#000000;fill-opacity:1;fill-rule:nonzero;stroke:none"
       transform="matrix(1.3333333,0,0,-1.3333333,155.80667,558.27613)"
       clip-path="url(#clipPath20)" />
    <path
       id="path21"
       d="m 0,0 -2.715,-0.909 c 0.096,-1.262 0.146,-2.09 0.267,-5.529 l -7.639,-2.443 0.025,5.173 -2.571,-0.786 -0.024,-5.198 -3.806,-1.217 0.048,-2.726 3.735,1.196 -0.05,-5.786 c 0,-0.763 0,-3.372 0.704,-4.659 1.503,-2.702 3.976,-1.971 7.71,-0.83 3.08,0.943 4.147,1.294 7.274,2.434 l -0.12,2.836 c -2.231,-0.894 -6.111,-2.159 -6.645,-2.323 -5.504,-1.682 -6.353,-1.705 -6.327,3.415 l 0.023,5.723 7.711,2.464 c -0.097,-4.667 -0.219,-5.573 -2.061,-6.137 -0.898,-0.274 -1.624,-0.312 -2.57,-0.337 l -0.025,-2.853 c 0.68,0.05 1.819,0.134 3.007,0.497 4.34,1.327 4.34,5.043 4.34,9.679 l 4.535,1.465 V -4.11 L 0.267,-5.558 C 0.218,-4.307 0.073,-0.979 0,0 M 3.347,-1.771 C 3.274,-0.949 2.886,0.854 2.473,1.704 L 0.703,0.873 C 1.14,-0.416 1.359,-1.719 1.456,-2.743 Z m 0.922,0.31 C 4.219,-1.187 3.88,0.896 3.395,2.092 L 5.263,2.951 C 5.577,2.1 5.722,1.485 6.135,-0.549 Z"
       style="fill:#000000;fill-opacity:1;fill-rule:nonzero;stroke:none"
       transform="matrix(1.3333333,0,0,-1.3333333,95.829467,575.64453)"
       clip-path="url(#clipPath22)" />
    <path
       id="path23"
       d="M 0,0 V 13.2 L -3.076,-0.874 -6.408,-1.821 -9.411,10.525 v -13.2 l -3.15,-0.895 v 15.801 l 4.92,1.399 2.967,-11.691 0.037,0.011 2.893,13.356 4.857,1.38 V 0.885 Z M -22.739,-6.463 V 6.536 l -5.066,-1.44 v 2.793 l 13.401,3.809 V 8.905 L -19.288,7.517 V -5.482 Z"
       style="fill:#000000;fill-opacity:1;fill-rule:nonzero;stroke:none"
       transform="matrix(1.3333333,0,0,-1.3333333,561.2532,409.142)"
       clip-path="url(#clipPath24)" />
    <path
       id="path25"
       d="m 0,0 -73.055,-22.335 c -3.928,-1.188 -6.269,-4.631 -6.269,-9.137 v -83.3 l 73.055,22.335 C -2.635,-91.347 0,-88.125 0,-83.3 Z M 29.459,24.939 V -97.407 l -138.228,-42.26 v 122.346 z m -43.16,-96.254 v 11.706 l -8.295,-2.537 v -11.705 z m 0,-15.979 -51.908,-15.871 v 9.535 l 9.164,2.801 c 3.742,1.145 5.96,4.128 5.961,9.065 v 17.354 l -15.125,-4.624 v 10.302 l 15.125,4.624 v 17.77 c 0,2.062 -1.242,4.838 -6.954,3.092 l -8.171,-2.498 v 9.598 l 51.908,15.87 v -9.598 l -9.062,-2.771 c -3.873,-1.184 -6.062,-4.07 -6.062,-9.074 v -15.767 l 15.124,4.624 v -10.302 l -15.124,-4.624 v -19.357 c 0,-3.047 2.34,-4.523 7.054,-3.083 l 8.07,2.468 z"
       style="fill:#000000;fill-opacity:1;fill-rule:nonzero;stroke:none"
       transform="matrix(1.3333333,0,0,-1.3333333,473.27867,291.3692)"
       clip-path="url(#clipPath26)" />
    <path
       id="path27"
       d="m 0,0 c -4.159,2.457 -6.2,3.138 -11.682,5.028 -1.134,0.416 -2.532,1.172 -2.532,2.533 0,1.323 1.36,3.138 2.986,5.104 6.427,7.749 6.54,7.976 8.052,10.093 l 2.609,-1.21 c -3.554,-4.498 -4.196,-5.179 -9.565,-11.303 -0.529,-0.567 -0.869,-1.097 -0.869,-1.55 0,-0.68 1.134,-1.021 1.814,-1.21 C -5.784,6.502 0.038,4.348 2.344,2.911 Z"
       style="fill:#000000;fill-opacity:1;fill-rule:nonzero;stroke:none"
       transform="matrix(1.3333333,0,0,-1.3333333,465.9036,261.06253)"
       clip-path="url(#clipPath28)" />
    <path
       id="path29"
       d="m 0,0 c -2.052,-2.761 -2.127,-4.739 -2.127,-5.225 0,-3.396 4.627,-2.052 8.21,-0.97 2.351,0.709 4.74,1.53 7.054,2.612 l 0.074,-2.91 c -0.821,-0.411 -2.5,-1.12 -6.232,-2.277 -4.74,-1.418 -6.792,-1.829 -8.845,-1.38 -1.679,0.373 -2.948,1.977 -2.948,4.03 0,2.426 1.082,4.366 2.836,7.091 z M 11.942,13.435 V 10.86 C 8.919,9.367 6.755,7.613 3.993,4.889 L 2.276,6.232 C 3.06,7.054 3.209,7.203 4.777,8.472 L 4.74,8.509 C 1.493,7.464 -1.829,6.419 -3.769,5.71 v 2.948 c 0.709,0.187 3.694,1.083 4.926,1.456 z M 16.42,8.173 c -1.045,1.866 -1.753,2.65 -2.127,3.06 l 1.568,1.493 c 1.045,-1.082 1.791,-2.314 2.201,-2.985 z M 13.024,5.262 c -0.82,1.381 -1.306,2.053 -2.276,3.06 l 1.679,1.568 c 0.97,-0.896 1.754,-2.053 2.277,-3.023 z"
       style="fill:#000000;fill-opacity:1;fill-rule:nonzero;stroke:none"
       transform="matrix(1.3333333,0,0,-1.3333333,378.0228,271.75133)"
       clip-path="url(#clipPath30)" />
    <path
       id="path31"
       d="M 0,0 V 13.686 L 51.503,29.431 V 50.864 L 0,35.118 v 19.191 l 51.503,15.746 v 21.38 L -87.608,48.904 v -21.38 l 50.664,15.49 V 23.823 L -87.608,8.333 V -13.1 l 50.664,15.49 v -7.925 c 0,-25.38 -13.669,-35.647 -34.427,-42.008 l -16.237,-4.964 v -21.48 l 35.361,10.81 c 27.16,8.291 36.735,17.916 47.498,43.61 5.907,-2.349 21.952,-12.926 28.458,-20.387 l 36.573,11.182 C 49.339,-16.699 10.43,-2.043 0,0"
       style="fill:#000000;fill-opacity:1;fill-rule:nonzero;stroke:none"
       transform="matrix(1.3333333,0,0,-1.3333333,222.71293,435.3412)"
       clip-path="url(#clipPath32)" />
    <path
       id="path33"
       d="m 0,0 c -0.52,-1.745 -2.747,-9.133 -3.156,-10.655 l 0.037,-0.037 c 0.483,0.556 1.411,1.559 3.045,2.079 3.787,1.113 3.935,-2.674 3.935,-4.753 v -1.113 c 0,-0.78 0,-3.119 2.042,-2.525 2.302,0.668 3.267,4.27 3.713,9.022 l 2.524,-0.075 c -0.631,-5.902 -1.967,-10.581 -6.459,-11.917 -4.456,-1.337 -4.493,3.156 -4.493,4.603 v 0.892 c 0,1.67 0.037,3.378 -1.782,2.821 -2.376,-0.705 -3.824,-3.527 -4.678,-6.311 -0.223,-0.966 -1.151,-5.087 -1.374,-5.94 l -2.747,0.037 c 1.411,4.937 4.789,17.56 6.386,23.538 z"
       style="fill:#000000;fill-opacity:1;fill-rule:nonzero;stroke:none"
       transform="matrix(1.3333333,0,0,-1.3333333,231.56053,291.64267)"
       clip-path="url(#clipPath34)" />
    <path
       id="path35"
       d="m 0,0 v -2.958 c -0.636,-0.113 -1.235,-0.225 -2.434,-0.6 -4.082,-1.198 -10.71,-7.976 -10.747,-13.219 -0.038,-2.958 2.471,-3.145 4.156,-3.108 1.498,0.038 3.67,0.375 6.666,1.273 l -0.374,-3.258 c -2.434,-0.636 -5.243,-1.235 -7.602,-1.123 -2.622,0.075 -5.655,1.199 -5.655,5.205 0.037,2.172 0.936,6.778 6.741,12.133 l -0.038,0.038 c -5.317,-1.76 -5.954,-1.947 -11.459,-3.858 v 2.996 c 0.974,0.263 7.864,2.435 10.71,3.333 z"
       style="fill:#000000;fill-opacity:1;fill-rule:nonzero;stroke:none"
       transform="matrix(1.3333333,0,0,-1.3333333,177.1412,308.57493)"
       clip-path="url(#clipPath36)" />
    <path
       id="path37"
       d="M 0,0 -5.381,-1.646 C -8.903,-2.732 -12.78,-1.684 -15.455,2.269 L -27.733,20.41 -63.414,9.501 l 16.155,-23.95 -44.009,-13.454 26.636,87.12 c 1.163,3.807 3.234,6.194 6.071,7.083 l 8.955,2.737 V 83.528 L -93.557,70.091 -125.183,-33.354 c -1.225,-4.006 -3.593,-6.017 -6.115,-6.788 l -5.449,-1.666 v -20.946 l 148.46,45.388 z"
       style="fill:#000000;fill-opacity:1;fill-rule:nonzero;stroke:none"
       transform="matrix(1.3333333,0,0,-1.3333333,585.36787,111.3704)"
       clip-path="url(#clipPath38)" />
    <path
       id="path39"
       d="m 0,0 c 13.562,21.505 15.483,35.037 17.4,49.941 0.671,5.394 3.237,8.181 6.14,9.068 l 5.396,1.65 V 80.77 L -97.356,42.159 V 20.854 l 79.092,24.181 C -20.085,16.929 -30.173,-20.689 -74.45,-34.226 l -22.906,-7.003 v -21.036 l 23.414,7.161 c 30.306,9.263 44.938,18.165 62.811,40.173 4.613,-2.241 10.712,-7.731 14.169,-16.64 l 35.643,10.897 C 33.664,-14.513 12.355,-1.63 0,0 m 9.274,80.403 c 5.093,1.583 7.822,6.884 6.337,11.878 -1.583,4.995 -6.884,7.822 -11.879,6.337 C -1.36,97.133 -4.089,91.734 -2.604,86.74 -1.021,81.745 4.28,78.918 9.274,80.403 m 10.451,13.163 c -1.485,4.995 1.244,10.296 6.337,11.879 4.994,1.583 10.393,-1.244 11.878,-6.337 1.582,-4.994 -1.245,-10.295 -6.337,-11.878 -4.995,-1.485 -10.295,1.244 -11.878,6.336"
       style="fill:#000000;fill-opacity:1;fill-rule:nonzero;stroke:none"
       transform="matrix(1.3333333,0,0,-1.3333333,338.9004,192.7436)"
       clip-path="url(#clipPath40)" />
    <path
       id="path41"
       d="m 0,0 -2.983,-0.912 c -4.703,-1.438 -7.009,0.124 -7.009,3.083 v 32.181 c 0,4.324 1.572,7.609 5.946,8.946 L 0,44.535 V 60.189 L -49.269,45.126 V 29.473 l 2.992,0.914 c 4.717,1.442 7,-0.115 7,-3.054 V -4.848 c 0,-4.365 -1.574,-7.641 -5.937,-8.975 l -4.055,-1.24 V -30.686 L 0,-15.623 Z M 86.99,86.785 V 71.13 l -3.836,-1.172 c -4.423,-1.353 -5.93,-4.491 -5.93,-8.919 V -3.026 c 0,-20.965 -11.261,-37.051 -28.915,-42.387 l -87.211,-26.663 v 21.06 l 62.365,19.067 c 11.98,3.679 17.588,14.09 17.588,28.244 v 55.602 c 0,2.942 -2.295,4.487 -7.005,3.047 l -3.129,-0.956 v 15.654 z"
       style="fill:#000000;fill-opacity:1;fill-rule:nonzero;stroke:none"
       transform="matrix(1.3333333,0,0,-1.3333333,65.692,206.84053)"
       clip-path="url(#clipPath42)" />
  </g>
</svg>
