<?xml version="1.0" encoding="UTF-8" standalone="no"?>
<svg
   xmlns:dc="http://purl.org/dc/elements/1.1/"
   xmlns:cc="http://creativecommons.org/ns#"
   xmlns:rdf="http://www.w3.org/1999/02/22-rdf-syntax-ns#"
   xmlns:svg="http://www.w3.org/2000/svg"
   xmlns="http://www.w3.org/2000/svg"
   xmlns:sodipodi="http://sodipodi.sourceforge.net/DTD/sodipodi-0.dtd"
   xmlns:inkscape="http://www.inkscape.org/namespaces/inkscape"
   version="1.1"
   id="svg2"
   xml:space="preserve"
   width="131.14532"
   height="136"
   viewBox="0 0 131.14532 136"
   sodipodi:docname="Barista Look.ai"><metadata
     id="metadata8"><rdf:RDF><cc:Work
         rdf:about=""><dc:format>image/svg+xml</dc:format><dc:type
           rdf:resource="http://purl.org/dc/dcmitype/StillImage" /></cc:Work></rdf:RDF></metadata><defs
     id="defs6"><clipPath
       clipPathUnits="userSpaceOnUse"
       id="clipPath18"><path
         d="M 0,102 H 98.359 V 0 H 0 Z"
         id="path16" /></clipPath></defs><sodipodi:namedview
     pagecolor="#ffffff"
     bordercolor="#666666"
     borderopacity="1"
     objecttolerance="10"
     gridtolerance="10"
     guidetolerance="10"
     inkscape:pageopacity="0"
     inkscape:pageshadow="2"
     inkscape:window-width="640"
     inkscape:window-height="480"
     id="namedview4" /><g
     id="g10"
     inkscape:groupmode="layer"
     inkscape:label="Barista Look"
     transform="matrix(1.3333333,0,0,-1.3333333,0,136)"><g
       id="g12"><g
         id="g14"
         clip-path="url(#clipPath18)"><g
           id="g20"
           transform="translate(31.6049,31.8567)"><path
             d="m 0,0 c 2.121,-0.032 13.729,0.459 19.927,3.653 2.904,1.497 5.515,3.534 7.612,6.029 1.667,1.881 5.092,6.426 5.953,14.423 0.762,7.092 -1.534,17.306 -3.708,25.197 C 27.806,40.314 22.208,35.978 17.575,36.068 15.372,36.035 10.415,36.087 6.562,43.929 5.496,46.099 4.144,53.501 8.086,59.954 3.542,59.749 -2.35,58.946 -6.283,56.572 c -2.682,-1.646 -4.909,-3.981 -6.613,-6.614 -3.168,-4.871 -4.049,-11.043 -2.814,-16.679 0.12,-0.451 0.226,-0.931 -0.049,-1.421 -0.311,-0.534 -0.838,-0.413 -1.67,-0.333 -3.025,0.29 -6.069,-1.014 -8.633,-2.71 3.291,-0.051 5.942,-2.472 5.942,-5.452 0,-3.012 -1.876,-4.417 -5.217,-4.417 -1.48,0 -3.846,1.264 -4.932,2.387 0.103,-7.601 2.946,-12.366 4.746,-14.123 C -20.081,1.899 -8.507,-0.025 0,0"
             style="fill:#ffffff;fill-opacity:1;fill-rule:nonzero;stroke:none"
             id="path22" /></g><g
           id="g24"
           transform="translate(60.8759,4.3694)"><path
             d="M 0,0 C 0.869,0.937 1.943,2.217 2.56,3.357 3.059,4.281 3.112,4.909 2.827,5.919 2.569,6.833 2.03,7.872 1.561,8.691 L 0.5,8.424 C 0.593,5.447 0.237,1.431 0,0"
             style="fill:#ffffff;fill-opacity:1;fill-rule:nonzero;stroke:none"
             id="path26" /></g><g
           id="g28"
           transform="translate(85.3085,18.4778)"><path
             d="m 0,0 c -0.512,3.347 -1.662,6.589 -3.34,9.527 -1.333,2.351 -3.117,4.404 -4.975,6.35 -4.137,4.296 -9.999,7.738 -15.795,9.104 -1.994,-2.642 -3.925,-5.475 -6.72,-7.272 -2.522,-1.647 -5.35,-2.784 -8.265,-3.515 -3.114,-0.839 -6.326,-1.216 -9.524,-1.565 -3.694,-0.347 -7.42,-0.373 -11.117,-0.102 0.009,-14.425 -0.819,-21.048 -1.921,-27.677 l 11.829,-0.767 0.071,12.245 1.224,-0.301 c 0.05,-1.257 -0.162,-2.977 -0.162,-2.977 1.631,-0.589 7.205,-1.26 10.259,-1.021 0.511,2.331 1.347,4.227 1.453,6.608 l -0.114,0.227 c -0.105,-6.238 -1.132,-12.46 -1.595,-14.326 4.415,-0.233 11.776,-1.089 11.776,-1.089 0.615,2.993 2.827,9.268 1.097,19.489 l 1.317,1.137 c 0.105,0.538 0.605,1.349 0.91,1.785 1.221,1.876 2.624,2.316 4.609,3.4 2.571,1.405 3.176,2.007 5.753,0.285 l 0.521,-1.708 c -1.794,0.732 -4.37,1.254 -6.246,0.598 -1.332,-0.51 -2.843,-2.247 -3.76,-3.305 -0.876,-1.061 -0.181,-2.285 -0.342,-3.674 -0.151,-1.249 -0.669,-3.334 -0.312,-4.528 0.515,-1.626 2.038,-2.333 2.876,-3.817 0.954,-1.687 0.299,-3.481 -0.057,-4.385 -0.522,-1.323 -1.775,-2.795 -2.848,-3.589 2.779,-0.368 14.558,-2.087 14.558,-2.087 0.159,1.409 0.324,3.714 0.451,5.125 -1.478,0.289 -2.564,0.423 -4.044,0.702 0.105,0.74 0.036,0.709 0.178,1.438 2.449,-0.505 4.971,-0.893 7.474,-0.606 1.285,0.179 2.668,0.546 3.551,1.564 0.853,1.041 1.355,2.346 1.5,3.68 C 0.463,-3.362 0.242,-1.668 0,0"
             style="fill:#ffffff;fill-opacity:1;fill-rule:nonzero;stroke:none"
             id="path30" /></g><g
           id="g32"
           transform="translate(47.2098,94.9763)"><path
             d="m 0,0 c 0.812,0.119 1.642,0.218 2.463,0.115 0.683,-0.081 1.42,0.013 2.036,-0.358 0.883,-0.515 1.846,-0.889 2.663,-1.512 0.775,-0.585 1.526,-1.233 2.07,-2.048 0.366,-0.524 0.826,-0.985 1.087,-1.577 0.292,-0.646 0.763,-1.198 1.004,-1.868 0.356,-0.991 0.593,-2.021 0.86,-3.039 0.086,-1.346 0.276,-2.706 0.08,-4.055 -0.219,-2.351 -0.814,-4.754 -2.256,-6.67 -0.392,-0.59 -0.884,-1.101 -1.296,-1.675 -1.453,-1.642 -3.462,-2.715 -5.578,-3.222 -1.077,-0.147 -2.174,-0.104 -3.245,0.054 -0.812,0.127 -1.497,0.592 -2.229,0.927 -0.784,0.355 -1.402,0.971 -2.119,1.43 -0.875,0.829 -1.676,1.755 -2.26,2.813 -0.421,0.797 -1.077,1.495 -1.213,2.417 -0.045,0.603 -0.492,1.073 -0.541,1.67 -0.066,0.403 -0.074,0.812 -0.151,1.211 -0.31,1.406 -0.241,2.86 -0.144,4.284 0.047,1.162 0.349,2.306 0.815,3.367 1.002,2.658 2.699,5.211 5.237,6.61 0.894,0.4 1.718,1.004 2.717,1.126"
             style="fill:#ee1921;fill-opacity:1;fill-rule:nonzero;stroke:none"
             id="path34" /></g><g
           id="g36"
           transform="translate(43.7928,48.8811)"><path
             d="m 0,0 c 0,-4.79 -3.883,-8.673 -8.673,-8.673 -4.79,0 -8.673,3.883 -8.673,8.673 0,4.79 3.883,8.673 8.673,8.673 C -3.883,8.673 0,4.79 0,0"
             style="fill:#f7acae;fill-opacity:1;fill-rule:nonzero;stroke:none"
             id="path38" /></g><g
           id="g40"
           transform="translate(40.8099,97.8044)"><path
             d="M 0,0 C 0.622,0.988 1.767,1.55 2.909,1.64 4.133,1.7 5.417,1.739 6.559,1.221 7.349,0.913 7.971,0.116 8.371,-0.613 5.318,-0.626 2.138,-2.429 -0.099,-4.503 -0.462,-4.781 -0.6,-4.553 -1.116,-4.52 -1.149,-2.957 -0.867,-1.328 0,0"
             style="fill:#6dd0f5;fill-opacity:1;fill-rule:nonzero;stroke:none"
             id="path42" /></g><g
           id="g44"
           transform="translate(84.0848,18.6291)"><path
             d="m 0,0 c -0.492,3.214 -1.596,6.326 -3.207,9.147 -1.28,2.256 -2.992,4.228 -4.776,6.096 -3.972,4.124 -9.175,7.005 -14.74,8.317 -1.915,-2.538 -4.193,-4.832 -6.877,-6.558 -2.421,-1.581 -5.136,-2.673 -7.935,-3.374 -2.989,-0.805 -6.073,-1.169 -9.143,-1.503 -3.547,-0.333 -7.123,-0.358 -10.674,-0.098 0.009,-13.85 -0.785,-20.207 -1.843,-26.573 l 9.393,-0.708 0.729,12.048 2.478,-0.607 c 0.047,-1.208 -0.156,-2.86 -0.156,-2.86 1.565,-0.564 6.029,-0.973 8.961,-0.744 0.49,2.238 0.696,4.526 0.798,6.812 l 2.548,0.207 c -0.1,-5.99 -1.734,-12.783 -2.179,-14.574 4.238,-0.224 10.781,-0.918 10.781,-0.918 0.591,2.873 1.768,9.565 0.106,19.377 l 2.213,0.426 c 0.099,0.517 0.58,1.294 0.873,1.714 1.171,1.801 2.569,3.293 4.474,4.334 2.469,1.349 5.9,1.018 8.373,-0.635 l -1.263,-2.201 c -1.722,0.703 -3.701,1.079 -5.501,0.448 -1.28,-0.488 -2.276,-1.491 -3.156,-2.507 -0.841,-1.018 -1.646,-2.128 -1.8,-3.461 -0.146,-1.199 0.113,-2.408 0.454,-3.554 0.496,-1.562 1.262,-3.02 2.068,-4.445 0.915,-1.619 0.802,-3.97 0.46,-4.839 -0.501,-1.27 -1.484,-2.52 -2.514,-3.283 2.668,-0.353 12.568,-1.757 12.568,-1.757 0.152,1.353 0.367,2.698 0.49,4.052 -1.42,0.279 -2.836,0.568 -4.257,0.836 0.101,0.71 0.351,1.386 0.488,2.087 2.352,-0.486 4.772,-0.857 7.176,-0.582 1.234,0.172 2.561,0.525 3.408,1.502 0.82,0.999 1.301,2.252 1.441,3.532 C 0.444,-3.229 0.232,-1.601 0,0 m -22.636,-12.598 c 0.537,0.578 1.2,1.369 1.581,2.074 0.308,0.57 0.341,0.959 0.165,1.582 -0.159,0.564 -0.492,1.206 -0.782,1.712 l -0.654,-0.166 c 0.056,-1.838 -0.163,-4.318 -0.31,-5.202 m -29.772,27.086 c 2.032,-0.031 13.154,0.44 19.092,3.5 2.781,1.434 5.284,3.385 7.293,5.776 1.596,1.801 4.878,6.157 5.703,13.819 0.73,6.793 -0.343,14.442 -2.427,22.002 -1.895,-8.611 -8.152,-11.497 -12.591,-11.411 -2.111,-0.031 -7.701,0.604 -11.392,8.117 -1.021,2.079 -2.912,9.599 0.865,15.78 -4.353,-0.196 -8.794,-1.109 -12.562,-3.383 -2.569,-1.578 -4.703,-3.815 -6.336,-6.337 -3.035,-4.667 -3.879,-10.58 -2.695,-15.979 0.114,-0.433 0.216,-0.892 -0.048,-1.362 -0.297,-0.512 -0.674,-1.039 -1.471,-0.963 -2.898,0.278 -5.942,-0.328 -8.399,-1.953 3.153,-0.049 5.693,-2.367 5.693,-5.223 0,-2.886 -2.594,-5.226 -5.795,-5.226 -1.418,0 -2.889,0.315 -3.929,1.392 0.099,-7.283 2.823,-9.959 4.547,-11.641 5.214,-5.088 16.302,-6.932 24.452,-6.908 m 6.891,48.939 c 0,-7.081 4.652,-12.822 10.391,-12.822 5.738,0 10.391,5.741 10.391,12.822 0,7.08 -4.653,12.821 -10.391,12.821 -5.739,0 -10.391,-5.741 -10.391,-12.821 m 1.433,11.245 c 0.68,0.36 3.374,4.055 8.929,3.986 -1.151,2.037 -3.351,2.035 -4.559,2.035 -4.321,0 -4.58,-4.758 -4.37,-6.021 M 14.274,9.553 c 0,-5.301 -4.307,-9.598 -9.621,-9.598 -0.696,0 -1.375,0.075 -2.029,0.216 0.333,-1.282 0.741,-4.275 -0.311,-7.557 -1.186,-4.234 -5.931,-4.983 -7.852,-5.034 -0.397,-2.056 -0.573,-4.152 -0.972,-6.209 -5.601,0.581 -11.198,1.225 -16.794,1.856 l -0.275,-1.585 -15.869,1.029 c 0.398,2.404 0.739,4.907 1.195,7.302 -3.331,-0.223 -7.326,0.592 -8.53,0.894 l -0.31,-8.766 -15.656,0.773 c 1.016,4.533 2.772,13.78 3.004,18.885 0.239,5.246 -0.185,9.379 -0.278,10.559 0,0 -5.861,0.476 -10.095,2.172 -2.502,1.001 -5.006,2.088 -7.145,3.746 -1.814,1.341 -3.35,3.052 -4.505,4.988 -1.718,2.939 -2.366,6.39 -2.313,9.767 0.038,3.014 0.68,6.143 2.482,8.623 1.617,2.304 5.332,5.214 11.302,5.139 -0.434,2.85 -0.467,5.771 0.019,8.617 0.486,2.789 3.714,18.11 23.383,19.339 0.197,8.715 5.917,9.156 9.926,8.416 3.734,-0.689 4.616,-4.072 4.61,-4.839 7.625,-2.186 9.449,-10.034 9.727,-11.452 3.198,-5.446 5.096,-17.899 5.218,-22.696 0.179,-6.229 -0.594,-12.737 -3.758,-18.222 6.973,-1.729 13.2,-5.89 17.489,-11.578 1.662,2.875 4.772,4.811 8.337,4.811 5.314,0 9.621,-4.296 9.621,-9.596 m -72.593,36.029 c 0,-3.942 -1.455,-7.137 -3.25,-7.137 -1.794,0 -3.249,3.195 -3.249,7.137 0,3.942 1.455,7.137 3.249,7.137 1.795,0 3.25,-3.195 3.25,-7.137"
             style="fill:#000000;fill-opacity:1;fill-rule:nonzero;stroke:none"
             id="path46" /></g></g></g></g></svg>
