<?xml version="1.0" encoding="UTF-8" standalone="no"?>
<svg
   xmlns:dc="http://purl.org/dc/elements/1.1/"
   xmlns:cc="http://creativecommons.org/ns#"
   xmlns:rdf="http://www.w3.org/1999/02/22-rdf-syntax-ns#"
   xmlns:svg="http://www.w3.org/2000/svg"
   xmlns="http://www.w3.org/2000/svg"
   xmlns:sodipodi="http://sodipodi.sourceforge.net/DTD/sodipodi-0.dtd"
   xmlns:inkscape="http://www.inkscape.org/namespaces/inkscape"
   version="1.1"
   id="svg2"
   xml:space="preserve"
   width="320"
   height="426.66666"
   viewBox="0 0 320 426.66666"
   sodipodi:docname="Barista Artwork.ai"><metadata
     id="metadata8"><rdf:RDF><cc:Work
         rdf:about=""><dc:format>image/svg+xml</dc:format><dc:type
           rdf:resource="http://purl.org/dc/dcmitype/StillImage" /></cc:Work></rdf:RDF></metadata><defs
     id="defs6"><clipPath
       clipPathUnits="userSpaceOnUse"
       id="clipPath20"><path
         d="M 0,320 H 240 V 0 H 0 Z"
         id="path18" /></clipPath></defs><sodipodi:namedview
     pagecolor="#ffffff"
     bordercolor="#666666"
     borderopacity="1"
     objecttolerance="10"
     gridtolerance="10"
     guidetolerance="10"
     inkscape:pageopacity="0"
     inkscape:pageshadow="2"
     inkscape:window-width="640"
     inkscape:window-height="480"
     id="namedview4" /><g
     id="g10"
     inkscape:groupmode="layer"
     inkscape:label="Barista Artwork"
     transform="matrix(1.3333333,0,0,-1.3333333,0,426.66667)"><path
       d="M 0,0 H 240 V 320 H 0 Z"
       style="fill:#ffffff;fill-opacity:1;fill-rule:nonzero;stroke:none"
       id="path12" /><g
       id="g14"><g
         id="g16"
         clip-path="url(#clipPath20)"><g
           id="g22"
           transform="translate(41.8716,91.0117)"><path
             d="m 0,0 c 3.338,0.692 6.803,1.052 10.174,0.626 5.354,-0.633 12.197,-1.957 16.261,-5.587 1.304,-1.151 3.4,-3.615 4.336,-5.087 -1.02,-1.06 -2.826,-3.532 -3.585,-4.791 -4.448,3.08 -10.743,5.066 -15.98,6.474 -3.179,0.794 -5.241,1.431 -8.506,0.978 -3.021,-0.368 -5.517,-0.706 -8.287,-1.937 -3.532,-1.646 -6.88,-4.196 -9.945,-6.603 -0.584,0.437 -2.013,1.555 -1.907,2.315 0.234,0.925 0.038,2.298 0.657,3.001 1.038,1.112 2.344,2.576 3.47,3.596 3.748,3.476 8.294,6 13.312,7.015"
             style="fill:#6dd0f5;fill-opacity:1;fill-rule:nonzero;stroke:none"
             id="path24" /></g><g
           id="g26"
           transform="translate(18.2725,81.3174)"><path
             d="M 0,0 C 0.66,0.372 1.745,1.099 2.459,1.314 3.588,1.453 5.524,0.546 6.647,0.37 6.606,-0.145 5.225,-0.812 4.972,-1.239 4.523,-2.223 5.084,-3.06 5.378,-4.127 5.875,-5.374 6.629,-6.642 7.546,-7.566 7.648,-7.998 7.216,-8.813 7.004,-9.109 c -2.279,-2.597 -3.227,-5.162 -3.627,-8.569 -0.195,-0.601 -0.539,-1.287 -0.688,-1.897 -0.296,-1.23 -0.022,-2.413 -0.271,-3.649 -0.098,-0.665 -0.178,-1.73 -0.292,-2.397 -0.459,0.024 -1.324,0.293 -1.712,0.581 -1.272,0.784 -2.491,0.183 -3.437,1.357 -0.552,0.751 -1.412,0.978 -1.793,1.835 -0.607,1.31 -1.799,3.841 -2.023,5.275 -0.444,1.573 -0.383,2.969 -0.31,4.583 0.184,1.072 -0.328,2.256 0.081,3.276 0.287,0.772 0.575,2.441 0.958,3.169 0.229,0.437 1.301,1.845 1.693,2.19 0.651,0.643 1.124,0.999 1.812,1.608 0.444,0.413 0.701,1.145 1.243,1.436 C -1.03,-0.13 -0.336,-0.171 0,0"
             style="fill:#ee1921;fill-opacity:1;fill-rule:nonzero;stroke:none"
             id="path28" /></g><g
           id="g30"
           transform="translate(78.2183,82.1084)"><path
             d="M 0,0 C 1.483,0.244 3.027,0.046 4.409,-0.543 5.064,-0.783 5.631,-1.2 6.266,-1.484 6.68,-1.651 6.982,-1.99 7.281,-2.308 8.067,-3.263 8.942,-4.152 9.536,-5.25 c 0.743,-1.435 1.592,-2.888 1.71,-4.537 0.376,-1.638 0.552,-3.336 0.401,-5.017 -0.126,-1.034 -0.362,-2.051 -0.534,-3.08 -0.445,-1.24 -0.891,-2.49 -1.527,-3.648 -0.425,-0.594 -0.737,-1.277 -1.272,-1.787 -0.411,-0.401 -0.648,-0.967 -1.161,-1.265 -0.604,-0.352 -1.044,-0.936 -1.696,-1.209 -0.855,-0.431 -1.719,-0.863 -2.64,-1.138 -0.943,-0.079 -1.9,-0.109 -2.843,-0.008 -2.472,0.548 -4.694,2.063 -6.161,4.122 -0.869,1.236 -1.727,2.52 -2.145,3.986 -0.359,0.892 -0.326,1.866 -0.585,2.778 -0.229,1.516 -0.366,3.064 -0.09,4.582 0.018,1.714 0.693,3.303 1.325,4.862 0.567,1.204 1.267,2.349 2.148,3.348 0.707,0.638 1.292,1.421 2.12,1.917 C -2.375,-0.684 -1.209,-0.229 0,0"
             style="fill:#ee1921;fill-opacity:1;fill-rule:nonzero;stroke:none"
             id="path32" /></g><g
           id="g34"
           transform="translate(66.8481,36.7031)"><path
             d="m 0,0 c 0,-4.775 -3.872,-8.646 -8.647,-8.646 -4.775,0 -8.646,3.871 -8.646,8.646 0,4.775 3.871,8.647 8.646,8.647 C -3.872,8.647 0,4.775 0,0"
             style="fill:#f7acae;fill-opacity:1;fill-rule:nonzero;stroke:none"
             id="path36" /></g><g
           id="g38"
           transform="translate(57.8828,49.2012)"><path
             d="M 0,0 -0.375,3.264 C -5.223,1.68 -11.353,2.544 -13.744,2.758 V -0.689 C -6.432,-2.396 -1.412,-0.524 0,0 m 52.915,-10.748 c -0.042,0.158 -0.089,0.298 -0.137,0.427 -0.651,0.883 -1.154,1.883 -1.476,2.96 -0.133,0.253 -0.286,0.517 -0.483,0.81 -1.799,2.439 -4.107,4.468 -6.599,6.172 -1.902,1.314 -3.943,2.435 -6.118,3.222 -3.13,1.145 -6.451,1.745 -9.776,1.849 C 27.093,4.807 25.845,4.763 24.623,4.587 23.792,4.173 21.546,3.837 19.179,4.3 19.395,2.249 19.35,0.186 19.344,-1.875 19.33,-3.886 19.191,-5.892 19.013,-7.894 c -1.584,-17.79 -19.62,-19.653 -22.939,-20.06 0,0 4.437,-2.514 6.351,-5.864 1.834,-0.139 3.69,0.125 5.423,0.748 -0.216,0.367 -0.391,0.754 -0.602,1.12 7.556,8.237 14.915,10.818 22.138,12.188 0.286,-0.84 0.674,-1.663 0.982,-2.493 -3.045,-0.52 -6.077,-1.22 -8.951,-2.373 -4.13,-1.682 -7.602,-4.634 -10.63,-7.849 1.801,-3.244 3.655,-6.461 5.416,-9.727 6.127,3.772 7.563,4.628 10.935,5.959 3.969,1.565 13.153,1.649 20.193,5.474 2.007,1.09 3.777,2.691 4.92,4.69 1.244,2.078 1.701,4.523 1.793,6.914 0.037,2.843 -0.412,5.674 -1.127,8.419 M -0.266,-33.84 c -1.433,1.486 -5.665,6.27 -15.954,5.237 -3.231,-0.197 -13.123,0.272 -14.248,0.676 -0.24,-0.553 -0.423,-1.354 -0.423,-1.921 0.02,-0.529 0.287,-1.352 0.866,-1.693 0.847,-0.494 1.925,-0.379 2.309,-0.291 1.039,0.24 3.663,0.41 4.955,0.186 2.564,-0.445 4.985,-1.042 7.016,-2.763 2.037,-1.767 3.395,-3.503 5.555,-7.299 4.29,2.586 6.166,3.683 9.924,7.868 m -13.754,-6.734 c -0.782,1.71 -1.959,3.281 -3.462,4.428 -1.993,1.328 -4.371,2.032 -6.738,2.256 -0.445,-0.305 -0.808,-0.717 -1.228,-1.056 1.593,-1.693 3.269,-3.316 5.104,-4.749 1.543,-1.22 3.214,-2.263 4.904,-3.268 0.494,0.785 0.973,1.58 1.42,2.389 m -16.951,16.052 c 4.828,-1.255 24.852,-2.413 34.824,0.99 2.642,0.901 11.168,4.353 12.431,15.017 0.39,3.294 0.691,11.852 0.171,13.922 -2.613,1.398 -4.609,3.786 -5.837,6.455 -1.432,3.051 -2.071,6.203 -1.27,11.619 -1.557,1.151 -3.346,1.956 -5.132,2.69 -5.41,2.093 -11.281,2.952 -17.065,2.624 -5.645,-0.337 -11.294,-1.909 -16.057,-5.017 -1.062,-0.686 -2.128,-1.42 -2.896,-2.447 -3.952,-5.287 -3.47,-15.062 -3.255,-18.224 3.254,-0.656 7.61,-0.291 11.398,-0.057 v -3.4 c -0.905,-0.258 -7.352,-1.661 -13.712,0.647 0.008,0.289 0.019,0.576 0.034,0.861 -2.026,0.062 -4.215,-0.106 -5.925,-1.309 -1.099,-0.737 -1.823,-1.935 -2.145,-3.198 -0.802,-3.149 0.145,-8.337 0.526,-9.982 1.937,-8.375 11.248,-10.5 13.91,-11.191 m -1.503,49.081 c -4.739,3.472 -2.188,6.587 -1.373,7.624 -4.607,1.268 -9.335,-1.45 -11.58,-7.925 -1.26,-3.631 -1.085,-15.198 7.574,-17.45 -0.486,13.426 5.379,17.751 5.379,17.751 m 9.885,5.146 c 8.436,2.655 17.678,2.336 26.052,-0.398 -7.19,3.394 -15.352,6.287 -26.052,0.398 m -9.351,-2.733 c 8.09,6.334 22.058,15.757 42.991,0.99 0.76,1.258 1.625,2.448 2.645,3.509 -4.857,6.963 -12.819,9.552 -18.182,10.098 -3.009,0.307 -7.116,0.41 -10.162,-0.233 -5.01,-1.055 -9.317,-3.318 -13.08,-6.618 -1.849,-1.621 -4.701,-3.946 -5.211,-5.856 -0.146,-0.683 0.414,-1.454 0.999,-1.89 m 43.585,-7.515 c 0,-7.148 4.459,-12.942 9.96,-12.942 5.502,0 9.961,5.794 9.961,12.942 0,7.147 -4.459,12.942 -9.961,12.942 -5.501,0 -9.96,-5.795 -9.96,-12.942 M 70.25,-4.589 c 0,-5.345 -4.332,-9.677 -9.677,-9.677 -1.591,0 -3.092,0.386 -4.416,1.068 0.418,-2.8 0.724,-5.779 0.277,-8.59 -0.349,-2.42 -1.225,-4.784 -2.659,-6.774 -2.22,-3.098 -5.661,-5.067 -9.195,-6.323 -2.178,-0.695 -4.403,-1.234 -6.639,-1.714 -2.396,-0.571 -4.872,-0.711 -7.27,-1.276 -2.385,-0.505 -4.577,-1.619 -6.739,-2.709 -3.036,-1.604 -5.938,-3.462 -8.64,-5.582 -2.031,3.593 -4.076,7.178 -6.092,10.778 -3.707,-1.658 -7.294,-1.143 -8.306,-0.97 -3.951,-3.896 -9.587,-7.765 -11.942,-9.121 -0.504,0.83 -0.938,1.703 -1.495,2.496 -0.624,-1.219 -1.293,-2.414 -1.946,-3.62 -8.391,4.815 -13.493,10.565 -14.329,11.669 l 0.636,0.894 c -1.5,0.011 -2.798,0.202 -3.849,1.105 -0.951,0.849 -1.404,2.381 -0.874,6.167 -1.749,0.434 -3.463,1.104 -5.101,1.845 -2.249,1.08 -4.365,2.475 -6.061,4.324 -2.051,2.3 -3.262,5.254 -3.771,8.27 -0.271,1.322 -0.912,7.066 -0.061,9.913 0.631,2.431 2.492,4.47 4.813,5.398 1.683,0.687 3.524,0.908 5.332,0.841 -0.001,0.077 -0.007,0.233 -0.01,0.31 -5.287,0.986 -9.587,5.598 -10.653,11.94 -0.361,1.494 -1.248,8.2 2.945,13.712 1.417,1.862 3.27,3.439 5.472,4.285 2.368,0.909 5.664,0.882 7.621,0.017 3.814,4.11 11.281,10.478 22.914,10.477 3.768,0 17.043,0.207 25.428,-11.348 1.356,0.767 2.654,1.611 6.326,1.548 6.585,-0.34 13.09,-7.859 11.618,-17.877 -0.25,-1.704 -0.498,-5.091 -4.837,-9.602 4.217,-0.201 13.572,-1.163 21.999,-10.06 0.849,4.477 4.781,7.863 9.504,7.863 5.345,0 9.677,-4.333 9.677,-9.677 M -32.702,-5.731 c 0,-2.863 -2.563,-5.182 -5.724,-5.182 -3.161,0 -5.724,2.319 -5.724,5.182 0,2.862 2.563,5.182 5.724,5.182 3.161,0 5.724,-2.32 5.724,-5.182"
             style="fill:#000000;fill-opacity:1;fill-rule:nonzero;stroke:none"
             id="path40" /></g><g
           id="g42"
           transform="translate(166.835,239.127)"><path
             d="m 0,0 c -4.409,0 -8.099,-3.352 -8.722,-7.588 l 8.86,5.821 c 1.061,-2.174 1.973,-3.705 3.401,-5.669 1.24,-1.656 3.643,-4.283 4.562,-4.742 0.428,1.034 0.676,2.211 0.676,3.401 C 8.777,-3.93 4.848,0 0,0"
             style="fill:#f7acae;fill-opacity:1;fill-rule:nonzero;stroke:none"
             id="path44" /></g><g
           id="g46"
           transform="translate(134.7871,235.4687)"><path
             d="M 0,0 C 0,3.291 -1.829,6.168 -4.509,7.67 -5.386,5.9 -6.147,4.68 -6.356,2.731 -6.535,0.723 -6.304,-1.545 -6.173,-3.557 -6.068,-5.171 -5.228,-7.199 -4.894,-7.874 -2.002,-6.438 0,-3.447 0,0"
             style="fill:#f7acae;fill-opacity:1;fill-rule:nonzero;stroke:none"
             id="path48" /></g><g
           id="g50"
           transform="translate(150.5332,280.6157)"><path
             d="m 0,0 c 5.51,2.881 12.205,3.533 18.298,2.299 5.161,-0.921 10.518,-2.906 14.555,-6.325 0.665,-0.569 1.072,-1.375 1.637,-2.047 -0.076,-0.157 -0.442,-0.219 -0.572,-0.312 -1.395,-0.751 -2.59,-1.933 -3.685,-3.078 -0.259,-0.245 -0.502,-0.6 -0.841,-0.718 C 24.63,-6.947 19.24,-4.36 13.448,-3.74 9.981,-3.42 6.499,-3.943 3.165,-4.881 -0.889,-6.049 -4.632,-7.758 -8.282,-9.857 c -0.572,0.607 -1.428,1.94 -1.024,2.74 0.649,1.24 2.186,2.83 3.276,3.653 1.971,1.37 3.869,2.399 6.03,3.464"
             style="fill:#6dd0f5;fill-opacity:1;fill-rule:nonzero;stroke:none"
             id="path52" /></g><g
           id="g54"
           transform="translate(134.0576,276.5269)"><path
             d="M 0,0 C 1.568,0.83 3.349,0.848 5.091,0.627 5.67,0.529 6.575,0.103 7.075,-0.21 6.279,-1.14 5.479,-2.219 5.232,-3.43 5.061,-4.584 5.989,-5.191 6.626,-6.092 6.897,-6.558 7.023,-7.393 7.358,-7.808 7.5,-8.062 7.042,-8.114 6.883,-8.267 5.825,-9.134 5.162,-10.588 4.272,-11.621 c -0.815,-1.208 -1.376,-2.257 -1.953,-3.595 -0.163,-0.601 -0.09,-0.916 -0.157,-1.543 -0.153,-0.785 -0.748,-2.104 -1.165,-2.798 -0.069,-0.676 -0.288,-1.757 -0.336,-2.436 -0.313,-1.278 -0.738,-2.052 -1.029,-3.338 -1.505,0.284 -3.434,1.726 -4.346,2.897 -0.902,1.092 -1.055,2.334 -1.674,3.596 -0.291,0.421 -0.162,0.957 -0.346,1.417 -0.292,0.618 -0.171,1.459 -0.478,2.073 -0.143,0.81 -0.067,1.858 -0.084,2.678 -0.038,3.078 1.252,6.002 2.898,8.566 0.206,0.665 0.829,0.925 1.275,1.423 0.372,0.415 0.805,0.766 1.2,1.16 C -1.417,-0.987 -0.635,-0.35 0,0"
             style="fill:#ee1921;fill-opacity:1;fill-rule:nonzero;stroke:none"
             id="path56" /></g><g
           id="g58"
           transform="translate(187.6689,273.6675)"><path
             d="m 0,0 c 1.337,0.214 3.246,0.386 4.493,-0.216 0.619,-0.299 1.306,-0.261 1.911,-0.588 1.099,-0.762 2.267,-2.113 3.002,-3.234 0.64,-1.113 1.533,-1.751 1.806,-3.023 0.795,-2.257 1.215,-5.477 1.008,-7.831 -0.286,-1.638 -0.802,-3.645 -1.68,-5.081 -0.897,-1.907 -1.485,-4.123 -3.275,-5.312 -0.942,-0.785 -2.246,-1.545 -3.422,-1.882 -1.982,-0.412 -5.57,-0.391 -7.328,0.602 -1.038,0.639 -1.955,1.216 -2.73,2.162 -0.341,0.482 -1.245,1.351 -1.596,1.826 -0.832,1.336 -0.993,3.427 -1.322,4.955 -0.296,2.021 -0.451,4.043 -0.23,6.068 0.479,1.365 0.415,3.226 1.092,4.514 0.624,1.224 1.537,2.856 2.56,3.807 0.728,0.687 2.032,1.102 2.89,1.631 C -1.813,-1.111 -1.118,-0.206 0,0"
             style="fill:#ee1921;fill-opacity:1;fill-rule:nonzero;stroke:none"
             id="path60" /></g><g
           id="g62"
           transform="translate(148.6113,239.3716)"><path
             d="m 0,0 c -0.255,-2.904 -3.044,-5.032 -6.231,-4.753 -3.188,0.278 -5.566,2.859 -5.312,5.763 0.173,1.971 1.514,3.583 3.354,4.33 -0.352,1.349 -0.455,3.075 -0.233,4.88 0.487,3.97 2.371,7.007 4.208,6.781 1.836,-0.226 2.93,-3.627 2.443,-7.598 C -1.977,7.731 -2.436,6.26 -3.032,5.118 -1.07,4.126 0.187,2.153 0,0 M 20.321,7.191 C 19.833,3.22 17.949,0.184 16.112,0.409 14.276,0.635 13.183,4.037 13.67,8.007 c 0.487,3.971 2.372,7.008 4.208,6.782 1.837,-0.226 2.931,-3.627 2.443,-7.598 m 29.975,12.37 C 49.503,12.696 44.494,6.717 38.927,7.303 c -5.569,0.585 -9.524,7.122 -8.761,14.375 0.762,7.252 6.07,12.567 11.462,12.072 5.574,-0.512 9.504,-6.944 8.668,-14.189 M 37.49,1.005 c -0.383,-3.164 -1.087,-6.299 -2.213,-9.283 -1.017,-2.596 -2.295,-5.14 -4.122,-7.262 -1.591,1.126 -3.391,1.939 -4.882,3.211 -1.613,1.303 -3.006,2.86 -4.246,4.516 -1.427,1.963 -2.528,4.134 -3.59,6.308 L 3.426,-12.016 c 1.294,-2.268 5.541,-9.505 7.374,-11.229 -2.967,-0.025 -5.852,0.207 -8.79,0.584 -1.852,3.344 -3.568,10.099 -3.977,14.376 l -16.543,-3.852 c 0,0 -1.151,1.99 -1.293,4.167 -0.13,2.012 -0.153,4.033 0.026,6.042 0.21,1.958 0.613,3.905 1.499,5.682 0.669,1.181 1.565,2.407 2.84,2.982 1.046,0.472 2.624,0.211 2.775,0.11 -0.23,4.301 0.938,9.06 1.334,10.539 0.579,2.224 1.345,4.426 2.56,6.389 0.856,1.394 1.959,2.691 3.41,3.49 5.554,3.097 12.076,4.173 18.373,3.688 C 18.439,30.53 23.815,29.101 28.657,26.596 26.439,21.057 27.415,16.204 28.583,13.252 29.208,11.732 30.021,10.26 31.179,9.078 32.923,7.151 35.258,5.689 37.84,5.25 37.665,3.84 37.675,2.415 37.49,1.005 m -7.34,-34.103 c -2.432,-4.122 -6.066,-7.398 -10.019,-10.029 -5.151,-3.409 -10.948,-5.764 -16.92,-7.283 -8.074,-2.031 -16.52,-2.519 -24.781,-1.554 0.135,0.656 0.208,1.335 0.208,2.032 0,5.496 -4.455,9.952 -9.952,9.952 -2.347,0 -4.502,-0.814 -6.204,-2.173 -8.231,10.235 -9.76,28.309 -9.957,29.007 l 14.91,1.944 c 0.138,-3.153 0.633,-6.956 1.257,-10.052 0.719,-3.375 1.673,-6.067 2.891,-9.294 l 2.562,0.702 c -0.624,1.757 -1.23,3.521 -1.838,5.284 0.931,1.366 2.058,2.664 3.54,3.446 1.324,0.724 2.901,1.176 4.379,1.449 0,0 1.934,-5.258 2.795,-7.671 1.274,-3.439 3.059,-6.662 4.992,-9.768 l 2.375,1.172 c -2.008,3.051 -3.63,6.159 -4.353,7.907 -0.986,2.398 -1.627,4.92 -2.613,7.318 -0.544,1.417 -1.132,2.821 -1.718,4.222 -0.206,0.502 -0.473,0.98 -0.605,1.508 3.444,0.74 6.874,1.549 10.309,2.329 1.42,0.298 2.823,0.694 4.254,0.937 0.662,-3.219 1.535,-6.406 2.779,-9.453 1.15,-2.746 2.57,-5.372 4.121,-7.91 0.641,-1.037 1.29,-2.072 2.02,-3.048 0.765,0.43 1.509,0.895 2.265,1.34 -1.255,1.729 -2.453,3.504 -3.524,5.353 3.795,-0.387 10.357,-0.287 10.357,-0.287 0.761,-0.639 1.729,-1.29 2.541,-1.86 0.635,0.577 1.328,1.136 1.888,1.786 -3.999,2.617 -6.188,4.16 -10.998,12.904 l 10.399,7.329 c 1.437,-2.042 2.57,-4.249 4.252,-6.115 1.107,-1.243 2.295,-2.429 3.644,-3.409 1.142,-0.877 2.431,-1.532 3.65,-2.291 0.916,-0.571 1.776,-1.29 2.323,-2.235 0.599,-1.052 0.894,-2.248 1.055,-3.439 0.529,-3.492 -0.512,-7.052 -2.284,-10.05 m -57.322,31.984 4.761,-0.123 c -0.65,-6.742 0.225,-9.971 1.272,-11.481 l -1.716,-0.47 1.955,-4.042 -2.082,-0.654 c -3.886,6.236 -3.97,12.272 -4.19,16.77 m 5.561,25.328 c 0.001,3.078 1.189,6.501 2.725,8.664 4.994,6.777 10.274,4.52 11.025,4.107 -0.796,-0.93 -1.452,-2.022 -1.698,-3.233 -0.172,-1.154 0.469,-2.199 1.106,-3.1 0.27,-0.466 0.84,-0.982 1.174,-1.396 0,0 -6.299,-3.155 -7.69,-17.046 -1.359,0.312 -6.643,3.391 -6.642,12.004 m 51.208,4.843 C 16.566,35.749 5.145,33.335 3.06,33.05 17.873,38.783 26.684,30.553 29.597,29.057 m -36.629,4.869 c 1.317,2.431 10.839,9.853 21.016,9.853 7.086,0 14.429,-1.952 20.356,-6.801 0.678,-0.554 1.331,-1.15 1.896,-1.822 -2.574,-1.292 -4.26,-3.155 -4.873,-3.927 -4.761,3.235 -10.169,6.078 -16.119,6.598 C 11.775,38.131 8.368,37.601 5.035,36.662 0.98,35.494 -2.77,33.902 -6.408,31.64 c -0.571,0.607 -1.051,1.498 -0.624,2.286 M 52.741,23.362 c -0.333,2.915 -1.349,5.793 -3.171,8.116 -1.604,2.126 -3.736,3.652 -6.341,4.241 -1.541,0.334 -2.916,0.337 -3.925,0.18 -1.04,1.264 -2.355,2.489 -3.619,3.525 -4.57,3.662 -10.23,5.764 -15.977,6.668 -3.165,0.536 -6.414,0.588 -9.587,0.098 -5.849,-0.871 -11.519,-3.641 -16.03,-7.426 0,0 -1.921,1.199 -4.844,1.303 -2.176,0.034 -4.349,-0.605 -6.189,-1.761 -3.116,-1.945 -5.345,-5.115 -6.468,-8.583 -1.278,-3.992 -1.305,-8.446 0.265,-12.363 2.198,-6.061 7.858,-7.777 7.986,-7.874 -1.822,-0.297 -3.41,-1.439 -4.495,-2.9 -1.052,-1.414 -1.827,-3.386 -2.242,-5.09 0,0 -5.818,0.413 -8.406,0.549 -0.072,-4.004 0.382,-7.806 0.693,-9.865 0.586,-3.923 1.971,-7.722 4.031,-11.111 -1.111,-0.62 -2.112,-1.429 -2.935,-2.402 -1.357,5.433 -1.313,13.438 -1.313,13.438 l -20.778,-2.848 c 1.375,-12.464 3.956,-23.85 11.182,-33.422 -1.16,-1.627 -1.844,-3.617 -1.844,-5.767 0,-5.496 4.456,-9.952 9.952,-9.952 3.809,0 7.118,2.141 8.791,5.285 2.344,-0.255 4.578,-0.475 7.044,-0.581 4.583,-0.197 15.695,0.197 26.333,4.341 5.121,1.995 10.052,4.581 14.315,8.069 3.91,3.221 7.349,7.232 9.078,12.055 1.101,3.057 1.323,6.427 0.578,9.592 -0.316,1.342 -0.845,2.661 -1.702,3.753 2.988,3.645 4.894,8.068 6.012,12.62 0.782,3.251 1.227,6.585 1.258,9.931 1.922,0.142 3.777,0.865 5.378,1.921 2.688,1.827 4.708,4.55 5.85,7.578 1.054,2.757 1.35,5.755 1.12,8.682"
             style="fill:#000000;fill-opacity:1;fill-rule:nonzero;stroke:none"
             id="path64" /></g><g
           id="g66"
           transform="translate(173.9512,203.9229)"><path
             d="m 0,0 c 2.768,0.719 5.895,1.029 8.704,0.476 2.901,-0.515 5.547,-1.666 8.048,-3.246 1.793,-1.146 3.382,-2.615 4.673,-4.306 0.932,-1.347 1.758,-2.849 1.947,-4.502 0.087,-0.812 -0.284,-1.699 -1.053,-2.053 -0.464,-0.243 -1.105,-0.31 -1.459,-0.006 -1.109,1.049 -1.765,1.547 -2.984,2.494 -2.436,1.885 -5.296,3.47 -8.342,3.909 -1.872,0.329 -3.43,0.275 -5.322,0.238 -4.369,-0.218 -8.402,-1.105 -12.095,-3.482 -1.095,1.467 -3.127,3.333 -4.717,4.246 1.162,0.995 2.499,1.768 3.8,2.565 2.756,1.595 5.715,2.862 8.8,3.667"
             style="fill:#6dd0f5;fill-opacity:1;fill-rule:nonzero;stroke:none"
             id="path68" /></g><g
           id="g70"
           transform="translate(154.8604,196.856)"><path
             d="m 0,0 c 0.835,0.134 1.694,0.116 2.538,0.063 0.569,-0.023 1.08,-0.301 1.625,-0.439 0.84,-0.144 1.552,-0.641 2.28,-1.049 0.838,-0.649 1.543,-1.453 2.275,-2.217 0.586,-0.783 1.102,-1.626 1.412,-2.56 0.496,-0.884 0.825,-1.843 1.054,-2.831 0.448,-2.134 0.67,-4.36 0.257,-6.521 -0.256,-1.899 -0.908,-3.73 -1.79,-5.424 -0.803,-1.194 -1.556,-2.468 -2.684,-3.392 -0.762,-0.552 -1.607,-0.981 -2.46,-1.372 -0.573,-0.209 -1.115,-0.582 -1.748,-0.563 -0.705,-0.02 -1.415,-0.129 -2.116,-0.006 -0.79,0.142 -1.568,0.38 -2.282,0.75 -0.704,0.371 -1.527,0.574 -2.072,1.189 -0.488,0.538 -1.078,0.982 -1.508,1.572 -0.777,1.105 -1.542,2.249 -1.962,3.546 -0.233,0.757 -0.539,1.496 -0.703,2.273 -0.154,0.718 -0.444,1.417 -0.431,2.162 -0.028,1.009 -0.08,2.022 0.005,3.029 0.151,1.408 0.547,2.773 0.828,4.157 0.155,0.716 0.594,1.314 0.919,1.956 0.563,1.513 1.679,2.735 2.857,3.804 0.422,0.323 0.877,0.603 1.295,0.933 C -1.712,-0.376 -0.739,-0.493 0,0"
             style="fill:#ee1921;fill-opacity:1;fill-rule:nonzero;stroke:none"
             id="path72" /></g><g
           id="g74"
           transform="translate(197.1494,196.6479)"><path
             d="m 0,0 c 1.215,0.176 2.393,-0.053 3.526,-0.422 1.389,-0.679 2.579,-1.503 3.623,-2.618 0.526,-0.68 2.22,-1.775 2.555,-2.576 0.384,-0.87 0.039,-1.742 0.147,-2.702 0.167,-0.919 0.356,-1.843 0.398,-2.785 0.051,-2.05 0.189,-4.662 -0.461,-6.639 -0.306,-2.061 -1.77,-4.484 -2.995,-6.115 -0.125,-0.102 -1.001,1.099 -1.14,1.016 -0.197,0.868 0.172,1.724 -0.053,2.586 -0.072,0.994 -0.468,1.689 -0.67,2.66 -0.41,0.833 -0.485,1.784 -0.692,2.68 -0.67,1.172 -1.486,1.867 -2.219,3.004 -0.69,0.953 -1.289,2.515 -2.116,3.342 0.573,0.546 1.49,0.999 1.717,1.801 0.062,0.739 -0.099,1.439 -0.167,2.178 -0.22,1.013 -0.463,1.958 -0.88,2.911 C 0.326,-1.103 0.134,-0.63 0,0"
             style="fill:#ee1921;fill-opacity:1;fill-rule:nonzero;stroke:none"
             id="path76" /></g><g
           id="g78"
           transform="translate(155.4922,157.7988)"><path
             d="m 0,0 c 0,-4.036 -2.117,-7.308 -4.728,-7.308 -2.611,0 -4.727,3.272 -4.727,7.308 0,4.036 2.116,7.307 4.727,7.307 C -2.117,7.307 0,4.036 0,0"
             style="fill:#f7acae;fill-opacity:1;fill-rule:nonzero;stroke:none"
             id="path80" /></g><g
           id="g82"
           transform="translate(230.5762,114.4717)"><path
             d="m 0,0 c -3.624,-0.024 -7.25,-0.034 -10.874,-0.12 0.533,1.685 1.225,9.791 -0.467,16.011 -3.743,-0.723 -7.889,-0.964 -11.958,-0.998 -0.212,-2.966 -0.366,-5.948 -0.151,-8.92 0.109,-1.996 0.372,-3.981 0.636,-5.965 -4.298,-0.012 -8.595,0.006 -12.893,0.003 0.398,3.401 0.867,6.81 0.848,10.242 0.009,1.198 -0.019,2.454 -0.049,3.65 -7.977,-1.196 -16.071,0.658 -19.916,1.485 -0.328,-1.759 -0.433,-3.627 -0.551,-5.411 -0.057,-3.288 0.26,-6.565 0.567,-9.833 -3.85,-0.002 -7.702,-0.016 -11.552,0.004 0.288,3.181 0.646,6.357 0.784,9.548 0.534,5.958 -1.068,11.142 -0.178,15.404 1.045,4.923 3.301,9.996 6.9,13.583 -0.557,0.684 -1.144,1.343 -1.731,2.001 -3.589,-3.481 -5.926,-8.094 -7.213,-12.888 -2.782,0.318 -5.536,0.972 -8.16,1.955 -1.879,0.706 -3.673,1.656 -5.271,2.873 -1.319,1.007 -2.382,2.34 -3.066,3.851 -1.102,2.306 -1.409,4.886 -1.58,7.406 -0.087,1.81 -0.125,3.744 0.78,5.382 0.63,1.241 1.828,2.08 3.144,2.452 1.901,0.572 3.913,0.401 5.846,0.099 -0.11,0.76 -0.127,1.526 -0.134,2.291 2.267,-0.504 4.703,-0.23 6.772,0.812 2.097,1.04 3.754,2.778 5.07,4.701 1.889,2.764 4.297,9.633 1.392,16.492 5.655,1.567 11.741,1.591 17.458,0.35 3.267,-0.74 6.487,-1.861 9.336,-3.648 1.775,-1.106 3.387,-2.578 4.297,-4.493 1.694,-3.479 2.266,-7.372 2.638,-11.186 0.192,-2.221 0.275,-4.451 0.225,-6.681 -5.019,-0.08 -10.011,-0.797 -14.943,-1.699 0.078,-0.88 0.302,-1.741 0.438,-2.615 6.331,1.212 12.78,1.922 19.232,1.682 3.489,-0.161 7.031,-0.622 10.344,-1.773 -0.142,-0.657 -0.218,-1.34 -0.218,-2.04 0,-5.33 4.321,-9.651 9.651,-9.651 0.493,0 0.979,0.038 1.452,0.109 C -1.78,31.084 2.093,21.185 0,0 m -37.774,3.14 c -2.049,-0.009 -4.093,0.114 -6.14,0.121 0.351,2.572 0.692,5.163 0.562,7.765 1.994,0.003 3.984,0.114 5.977,0.109 0.101,-2.67 0.118,-5.364 -0.399,-7.995 m -46.087,66.111 c 0,7.157 4.385,12.958 9.797,12.958 5.411,0 9.797,-5.801 9.797,-12.958 0,-7.156 -4.386,-12.957 -9.797,-12.957 -5.412,0 -9.797,5.801 -9.797,12.957 m 44.27,7.93 c -4.058,1.673 -7.576,2.479 -12.435,2.522 -1.752,0.009 -4,0.124 -7.332,-0.322 2.942,1.102 6.123,1.473 9.25,1.368 3.748,-0.103 7.57,-1.175 10.517,-3.568 m 6.068,0.74 c 0,-0.802 -0.328,-1.704 -1.083,-2.053 -0.567,-0.208 -1.368,0.215 -1.771,0.87 -4.413,7.927 -19.617,8.922 -28.568,2.885 -1.076,1.442 -2.381,2.724 -3.945,3.621 20.529,15.389 35.367,0.122 35.367,-5.323 m 6.26,-18.927 c 0,0 -0.334,10.613 -5.949,14.539 0.557,0.281 3.605,1.854 -0.123,8.629 11.597,-0.131 12.429,-18.445 6.072,-23.168 M -0.546,35.226 c 3.332,1.52 5.65,4.879 5.65,8.781 0,5.33 -4.321,9.651 -9.651,9.651 -3.697,0 -6.907,-2.079 -8.528,-5.132 -4.341,1.476 -8.961,2.002 -13.531,1.944 -0.022,2.07 -0.067,4.379 -0.208,5.585 4.683,3.563 6.215,9.202 6.044,13.898 -0.155,4.209 -1.523,8.329 -4.769,11.454 -4.037,3.886 -8.384,3.361 -9.519,3.046 -0.588,0.669 -1.182,1.404 -1.818,2.038 -1.234,1.17 -2.542,2.275 -4.014,3.138 -2.379,1.435 -5.093,2.264 -7.848,2.562 -3.597,0.274 -7.242,-0.073 -10.714,-1.062 -4.511,-1.271 -8.701,-3.638 -12.154,-6.798 -0.777,0.138 -1.557,0.318 -2.35,0.296 -2.634,0.081 -5.206,-0.981 -7.218,-2.643 -1.935,-1.647 -3.379,-3.835 -4.272,-6.208 -2.057,-5.541 -1.414,-12.17 2.148,-16.965 1.216,-1.644 2.813,-3.019 4.668,-3.894 0.004,-0.111 0.016,-0.332 0.02,-0.442 -2.578,0.076 -5.251,-0.275 -7.307,-2.347 -2.887,-2.76 -2.459,-6.84 -2.465,-7.667 0.191,-3.466 0.832,-7.673 2.798,-10.607 1.697,-2.574 4.553,-4.455 7.295,-5.73 3.152,-1.416 6.544,-2.204 9.951,-2.715 -0.505,-3.309 0.18,-9.275 0.254,-11.578 0.066,-1.938 -0.019,-4.182 -0.117,-6.269 -0.201,-3.379 -0.643,-6.738 -1.078,-10.092 l 17.564,-0.006 c -1.279,6.74 -1.154,10.62 -0.887,14.772 2.276,-0.383 4.557,-0.724 6.847,-0.993 0.032,-1.944 -0.103,-6.598 -0.925,-10.336 2.83,-0.006 5.661,0 8.492,-0.003 -0.112,-1.097 -0.252,-2.193 -0.428,-3.282 6.189,-0.006 12.38,0.001 18.57,-0.005 C -20.969,1.922 -21,9.88 -20.927,12.124 l 7.671,0.7 C -12.235,6.718 -13.354,0.042 -14.019,-2.819 L 2.47,-2.501 C 4.717,19.388 1.718,29.442 -0.546,35.226"
             style="fill:#000000;fill-opacity:1;fill-rule:nonzero;stroke:none"
             id="path84" /></g><g
           id="g86"
           transform="translate(151.4287,125.918)"><path
             d="m 0,0 c 0.812,0.119 1.642,0.218 2.463,0.115 0.683,-0.081 1.42,0.013 2.037,-0.358 0.882,-0.515 1.845,-0.889 2.662,-1.512 0.775,-0.585 1.526,-1.233 2.07,-2.048 0.366,-0.523 0.826,-0.984 1.087,-1.577 0.292,-0.645 0.763,-1.198 1.004,-1.868 0.356,-0.991 0.593,-2.021 0.86,-3.038 0.086,-1.348 0.276,-2.707 0.08,-4.057 -0.219,-2.35 -0.814,-4.753 -2.255,-6.669 -0.393,-0.59 -0.885,-1.1 -1.297,-1.675 -1.453,-1.641 -3.462,-2.714 -5.578,-3.221 -1.077,-0.148 -2.174,-0.105 -3.245,0.053 -0.812,0.127 -1.497,0.592 -2.229,0.926 -0.784,0.356 -1.401,0.973 -2.119,1.432 -0.875,0.828 -1.676,1.754 -2.26,2.812 -0.421,0.797 -1.077,1.495 -1.213,2.417 -0.045,0.603 -0.492,1.074 -0.541,1.67 -0.066,0.404 -0.074,0.812 -0.151,1.211 -0.31,1.406 -0.24,2.861 -0.144,4.284 0.046,1.162 0.349,2.306 0.815,3.367 1.003,2.658 2.699,5.212 5.236,6.61 0.896,0.4 1.72,1.004 2.718,1.126"
             style="fill:#ee1921;fill-opacity:1;fill-rule:nonzero;stroke:none"
             id="path88" /></g><g
           id="g90"
           transform="translate(148.0117,79.8232)"><path
             d="m 0,0 c 0,-4.79 -3.883,-8.674 -8.673,-8.674 -4.79,0 -8.674,3.884 -8.674,8.674 0,4.79 3.884,8.673 8.674,8.673 C -3.883,8.673 0,4.79 0,0"
             style="fill:#f7acae;fill-opacity:1;fill-rule:nonzero;stroke:none"
             id="path92" /></g><g
           id="g94"
           transform="translate(145.0283,128.7461)"><path
             d="M 0,0 C 0.622,0.988 1.767,1.55 2.909,1.64 4.134,1.7 5.417,1.739 6.56,1.222 7.35,0.913 7.972,0.116 8.371,-0.613 5.318,-0.626 2.139,-2.429 -0.098,-4.503 -0.462,-4.781 -0.6,-4.553 -1.116,-4.52 -1.149,-2.956 -0.866,-1.328 0,0"
             style="fill:#6dd0f5;fill-opacity:1;fill-rule:nonzero;stroke:none"
             id="path96" /></g><g
           id="g98"
           transform="translate(188.3037,49.5713)"><path
             d="m 0,0 c -0.491,3.213 -1.596,6.326 -3.206,9.146 -1.281,2.257 -2.993,4.228 -4.777,6.096 -3.972,4.125 -9.175,7.005 -14.74,8.318 -1.915,-2.538 -4.193,-4.832 -6.876,-6.558 -2.422,-1.582 -5.136,-2.674 -7.935,-3.374 -2.99,-0.806 -6.074,-1.169 -9.145,-1.504 -3.546,-0.333 -7.123,-0.357 -10.673,-0.098 0.009,-13.849 -0.786,-20.207 -1.843,-26.572 l 9.393,-0.708 0.729,12.048 2.477,-0.607 c 0.048,-1.208 -0.155,-2.86 -0.155,-2.86 1.565,-0.565 6.029,-0.973 8.961,-0.744 0.49,2.238 0.696,4.525 0.798,6.812 l 2.548,0.207 c -0.1,-5.99 -1.735,-12.783 -2.179,-14.574 4.238,-0.224 10.781,-0.919 10.781,-0.919 0.591,2.874 1.768,9.566 0.107,19.378 l 2.212,0.425 c 0.099,0.518 0.58,1.295 0.873,1.715 1.171,1.8 2.569,3.293 4.474,4.334 2.469,1.349 5.9,1.018 8.374,-0.636 l -1.264,-2.201 c -1.722,0.704 -3.701,1.08 -5.501,0.449 -1.28,-0.489 -2.276,-1.491 -3.156,-2.507 -0.841,-1.018 -1.646,-2.128 -1.8,-3.461 -0.146,-1.199 0.113,-2.408 0.454,-3.554 0.496,-1.562 1.262,-3.02 2.068,-4.445 0.915,-1.619 0.802,-3.971 0.46,-4.839 -0.501,-1.27 -1.484,-2.521 -2.514,-3.283 2.668,-0.353 12.568,-1.758 12.568,-1.758 0.152,1.353 0.367,2.699 0.49,4.053 -1.42,0.278 -2.836,0.568 -4.257,0.835 0.101,0.711 0.351,1.387 0.488,2.088 2.352,-0.486 4.772,-0.858 7.176,-0.583 1.234,0.172 2.561,0.525 3.408,1.502 0.82,1 1.301,2.253 1.441,3.533 C 0.444,-3.229 0.232,-1.602 0,0 m -22.636,-12.599 c 0.537,0.579 1.2,1.37 1.581,2.075 0.308,0.57 0.341,0.958 0.165,1.582 -0.159,0.564 -0.492,1.206 -0.782,1.712 l -0.654,-0.166 c 0.056,-1.838 -0.163,-4.319 -0.31,-5.203 m -29.771,27.087 c 2.031,-0.031 13.153,0.439 19.091,3.499 2.782,1.435 5.284,3.386 7.293,5.776 1.596,1.802 4.878,6.158 5.703,13.819 0.73,6.794 -0.343,14.442 -2.427,22.003 -1.895,-8.611 -8.152,-11.497 -12.591,-11.411 -2.11,-0.031 -7.701,0.604 -11.391,8.117 -1.022,2.079 -2.913,9.598 0.865,15.78 -4.354,-0.197 -8.795,-1.109 -12.563,-3.383 -2.569,-1.579 -4.703,-3.816 -6.336,-6.337 -3.035,-4.667 -3.879,-10.58 -2.695,-15.98 0.114,-0.433 0.216,-0.892 -0.048,-1.361 -0.297,-0.512 -0.674,-1.039 -1.471,-0.963 -2.898,0.278 -5.942,-0.328 -8.399,-1.953 3.153,-0.049 5.693,-2.368 5.693,-5.223 0,-2.887 -2.594,-5.226 -5.795,-5.226 -1.418,0 -2.889,0.315 -3.929,1.391 0.099,-7.282 2.823,-9.958 4.548,-11.64 5.213,-5.088 16.301,-6.933 24.452,-6.908 m 6.89,48.939 c 0,-7.081 4.653,-12.822 10.391,-12.822 5.738,0 10.391,5.741 10.391,12.822 0,7.08 -4.653,12.82 -10.391,12.82 -5.738,0 -10.391,-5.74 -10.391,-12.82 m 1.432,11.245 c 0.682,0.359 3.375,4.055 8.93,3.985 -1.151,2.037 -3.351,2.035 -4.559,2.035 -4.321,0 -4.58,-4.757 -4.371,-6.02 M 14.274,9.552 c 0,-5.3 -4.307,-9.597 -9.621,-9.597 -0.696,0 -1.375,0.075 -2.029,0.216 0.333,-1.282 0.741,-4.275 -0.311,-7.558 -1.186,-4.233 -5.931,-4.983 -7.852,-5.034 -0.397,-2.055 -0.573,-4.151 -0.972,-6.209 -5.601,0.581 -11.198,1.226 -16.794,1.857 l -0.275,-1.585 -15.869,1.028 c 0.398,2.405 0.739,4.908 1.195,7.302 -3.332,-0.223 -7.326,0.592 -8.53,0.895 l -0.31,-8.766 -15.656,0.773 c 1.016,4.533 2.772,13.779 3.005,18.884 0.238,5.246 -0.186,9.379 -0.279,10.56 0,0 -5.861,0.476 -10.095,2.171 -2.502,1.002 -5.006,2.089 -7.145,3.746 -1.814,1.341 -3.35,3.053 -4.505,4.989 -1.718,2.938 -2.366,6.39 -2.313,9.767 0.038,3.014 0.681,6.143 2.482,8.622 1.617,2.305 5.332,5.215 11.302,5.139 -0.434,2.851 -0.467,5.771 0.019,8.617 0.486,2.789 3.715,18.111 23.383,19.34 0.198,8.715 5.917,9.156 9.926,8.416 3.734,-0.689 4.617,-4.072 4.61,-4.84 7.625,-2.185 9.449,-10.033 9.727,-11.451 3.198,-5.446 5.096,-17.899 5.218,-22.696 0.179,-6.23 -0.594,-12.737 -3.757,-18.222 6.972,-1.729 13.2,-5.891 17.488,-11.578 1.662,2.875 4.772,4.811 8.337,4.811 5.314,0 9.621,-4.296 9.621,-9.597 m -72.593,36.03 c 0,-3.942 -1.455,-7.138 -3.249,-7.138 -1.795,0 -3.25,3.196 -3.25,7.138 0,3.941 1.455,7.137 3.25,7.137 1.794,0 3.249,-3.196 3.249,-7.137"
             style="fill:#000000;fill-opacity:1;fill-rule:nonzero;stroke:none"
             id="path100" /></g><g
           id="g102"
           transform="translate(64.9922,256.0015)"><path
             d="m 0,0 c 0,-4.854 -3.935,-8.789 -8.789,-8.789 -4.854,0 -8.789,3.935 -8.789,8.789 0,4.854 3.935,8.789 8.789,8.789 C -3.935,8.789 0,4.854 0,0"
             style="fill:#f7acae;fill-opacity:1;fill-rule:nonzero;stroke:none"
             id="path104" /></g><g
           id="g106"
           transform="translate(29.6997,307.1016)"><path
             d="m 0,0 c 3.715,2.215 9.781,3.408 14.093,3.665 1.732,-0.043 4.75,0.057 6.469,-0.196 5.807,-0.478 10.59,-2.852 15.001,-6.754 1.268,-1.198 1.691,-2.605 2.63,-4.084 -1.08,-0.998 -2.145,-2.861 -2.827,-4.162 -5.175,3.516 -11.324,6.467 -17.513,7.617 -2.109,0.395 -3.946,0.417 -6.086,0.275 -6.501,-0.651 -12.239,-3.563 -17.526,-7.251 -0.715,-0.43 -1.488,-1.232 -2.278,-1.492 -0.453,0.478 -1.636,1.347 -1.596,2.042 0.379,1.489 0.985,3.128 2.041,4.162 C -5.298,-4.084 -2.735,-1.515 0,0"
             style="fill:#6dd0f5;fill-opacity:1;fill-rule:nonzero;stroke:none"
             id="path108" /></g><g
           id="g110"
           transform="translate(14.6045,300.7349)"><path
             d="M 0,0 C 1.656,0.676 3.932,0.486 5.658,0.078 5.032,-1.082 4.945,-1.92 5.01,-3.299 5.055,-5.187 5.767,-7.014 7.072,-8.148 5.452,-9.511 4.6,-11.398 3.76,-13.319 2.331,-16.891 1.776,-20.224 1.666,-24.052 c -0.032,-0.769 -0.439,-1.592 -0.555,-2.356 -1.271,0.419 -2.535,0.95 -3.565,1.827 -2.407,1.949 -3.92,4.838 -4.556,7.839 -0.906,4.054 -0.329,8.475 1.795,12.067 C -4.031,-2.623 -2.211,-0.894 0,0"
             style="fill:#ee1921;fill-opacity:1;fill-rule:nonzero;stroke:none"
             id="path112" /></g><g
           id="g114"
           transform="translate(74.2285,301.2363)"><path
             d="m 0,0 c 1.698,0.198 3.469,-0.023 4.982,-0.856 3.286,-1.669 5.325,-5.097 6.162,-8.592 0.801,-3.24 0.598,-6.701 -0.502,-9.846 -0.986,-2.632 -2.664,-5.121 -5.115,-6.58 -1.889,-1.148 -4.243,-1.564 -6.387,-0.963 -2.826,0.755 -5.063,2.942 -6.426,5.465 -2.007,3.745 -2.455,8.266 -1.338,12.354 0.809,2.917 2.401,5.738 4.924,7.497 1.122,0.726 2.36,1.337 3.7,1.521"
             style="fill:#ee1921;fill-opacity:1;fill-rule:nonzero;stroke:none"
             id="path116" /></g><g
           id="g118"
           transform="translate(94.3145,228.6777)"><path
             d="m 0,0 c -0.06,4.403 -0.358,8.896 -1.878,13.067 -0.537,1.451 -1.267,2.878 -2.41,3.946 -1.101,1.119 -2.545,1.803 -3.993,2.354 -3.015,1.026 -6.226,1.351 -9.397,1.312 -2.745,0.045 -5.486,-0.212 -8.197,-0.605 -0.897,-1.134 -3.629,-4.797 -10.981,-7.109 -5.05,-1.588 -10.572,-2.084 -15.835,-2.351 -4.121,-0.093 -8.853,0.031 -12.202,0.438 0.19,-3.026 0.412,-6.132 0.429,-9.167 0.032,-2.197 0.064,-4.17 0.004,-6.183 -0.039,-4.565 -0.49,-9.238 -1.205,-13.743 -0.11,-0.715 -0.417,-1.858 -0.417,-1.858 3.536,-0.874 7.245,-1.04 10.832,-0.376 v 0 c 0,0 -0.491,6.659 -0.607,11.207 l 15.606,-0.062 c -0.015,-1.544 0.086,-8.715 -0.686,-12.884 2.227,-0.309 4.481,-0.489 6.729,-0.345 1.597,0.169 3.16,0.607 4.642,1.227 l -1.188,11.304 c 0.538,0.018 13.151,0.951 17.392,1.152 0.055,-4.705 -0.136,-7.897 -0.713,-11.785 1.567,-0.486 3.197,-0.755 4.829,-0.883 2.456,-0.148 4.886,0.338 7.248,0.964 0.478,2.311 0.814,4.649 1.116,6.988 C -0.35,-8.948 0.029,-4.479 0,0 m -63.985,13.546 c 4.893,-0.424 9.823,-0.34 14.717,0.003 5.048,0.407 10.181,1.103 14.842,3.194 3.087,1.407 5.775,3.686 7.56,6.581 1.052,1.759 2.117,3.604 2.37,5.674 0.386,2.784 0.63,8.987 0.507,15.865 -1.348,0.787 -2.674,1.709 -3.67,2.92 -2.283,2.664 -3.574,6.126 -3.88,9.602 -0.075,1.898 -0.079,4.063 0.439,5.678 -3.126,2.104 -6.711,3.447 -10.366,4.295 -2.821,0.689 -5.722,1.032 -8.622,1.108 -6.94,0.188 -14.076,-1.415 -19.894,-5.313 -1.019,-0.673 -2.018,-1.422 -2.716,-2.441 -1.556,-2.168 -2.317,-4.791 -2.749,-7.395 -0.586,-3.32 -0.519,-6.633 -0.367,-9.989 0.12,-2.639 -1.68,-2.711 -2.697,-2.674 -1.792,0.066 -3.681,-0.167 -5.244,-1.113 -1.653,-0.96 -2.53,-2.871 -2.679,-4.722 -0.254,-1.839 0.011,-3.695 0.178,-5.532 0.362,-3.378 1.423,-6.889 3.948,-9.294 2.359,-2.097 5.248,-3.542 8.245,-4.486 3.26,-1.082 6.669,-1.62 10.078,-1.961 m -12.574,45.671 c 0.769,1.855 1.838,3.609 3.391,4.915 -1.299,1.012 -2.767,2.209 -2.913,4.152 -0.065,0.868 0.483,2.266 1.382,3.522 -1.44,0.329 -3.557,0.316 -5.022,-0.285 -2.115,-0.867 -3.864,-2.514 -5,-4.48 -2.035,-3.444 -2.588,-7.681 -1.719,-11.567 0.609,-2.877 2.519,-7.691 7.784,-9.266 0.111,0.732 -0.442,6.882 2.097,13.009 m 26.108,13.582 c -2.122,0.057 -7.276,-0.35 -12.94,-3.565 0,0 4.149,1.665 11.603,1.885 4.834,0.143 10.763,-0.798 14.459,-2.166 -7.133,3.872 -13.122,3.846 -13.122,3.846 m -23.11,-5.042 c 0.152,-0.412 0.462,-0.849 0.797,-1.203 0.694,0.436 9.726,8.015 19.812,8.89 2.931,0.179 6.19,-0.161 8.311,-0.737 6.075,-1.65 10.027,-3.642 15.203,-7.158 0.682,1.301 1.563,2.528 2.643,3.526 -0.938,1.478 -6.93,10.35 -22.99,10.458 -13.606,0 -21.92,-9.896 -23.276,-11.813 -0.402,-0.57 -0.746,-1.301 -0.5,-1.963 m 44.688,-8.72 c 0,-7.192 4.474,-13.022 9.991,-13.022 5.518,0 9.991,5.83 9.991,13.022 0,7.192 -4.473,13.022 -9.991,13.022 -5.517,0 -9.991,-5.83 -9.991,-13.022 M 14.466,22.094 c 0,-5.33 -4.321,-9.651 -9.651,-9.651 -1.373,0 -2.679,0.289 -3.861,0.806 C 1.773,11.042 3.283,5.418 2.523,-5.194 2.325,-9.143 1.288,-19.886 0.55,-21.918 c -4.511,-3.557 -14.825,-1.515 -17.832,-0.465 0.655,3.532 1.443,9.408 1.148,10.799 l -11.462,-0.676 0.88,-10.601 c -7.173,-3.795 -16.767,-1.672 -17.484,-1.129 1.025,2.664 1.169,9.611 1.128,12.261 -3.48,0.2 -7.518,0.158 -10.053,-0.002 l 0.846,-10.767 c -4.273,-1.001 -10.347,-1.566 -17.032,0.548 0,0 2.279,8.865 2.17,19.851 0.018,2.129 -0.229,11.182 -0.513,13.457 -4.885,0.662 -11.843,2.499 -16.336,6.6 -1.634,1.563 -2.864,3.519 -3.645,5.638 -1.146,2.975 -1.564,6.082 -1.529,9.348 0.034,1.384 0.145,2.662 0.464,4.022 0.31,1.334 1.028,2.512 1.926,3.527 1.072,1.148 2.614,2.017 4.155,2.375 1.216,0.283 2.775,0.45 3.894,0.432 0.324,-0.005 0.44,0.307 0.121,0.37 -4.842,0.949 -7.502,4.279 -8.735,6.618 -3.338,6.015 -2.868,14.063 1.399,19.51 2.201,2.851 5.739,4.714 9.37,4.624 1.469,-0.067 2.501,-0.345 3.436,-0.815 1.674,1.787 9.356,10.172 21.634,10.623 20.104,0.738 26.826,-11.501 26.826,-11.501 1.826,1.232 3.774,1.628 5.679,1.668 2.783,0.022 4.975,-0.837 7.021,-2.517 3.353,-2.71 5.421,-7.042 5.589,-11.722 0.135,-2.311 -0.045,-4.654 -0.789,-6.858 -1.153,-3.696 -3.773,-7.173 -7.353,-8.786 -1.448,-0.652 -2.634,-0.828 -4.126,-0.882 -0.802,-0.019 -1.939,0.123 -2.455,0.257 0,0 0.131,-10.67 -0.891,-16.003 -0.313,-1.63 -1.122,-3.207 -1.909,-4.738 1.008,0.031 13.236,1.471 19.171,-2.424 -0.064,0.447 -0.099,0.904 -0.099,1.37 0,5.33 4.321,9.651 9.651,9.651 5.33,0 9.651,-4.321 9.651,-9.651 m -93.658,16.867 c -3.169,0 -5.738,-2.338 -5.738,-5.223 0,-2.884 2.569,-5.222 5.738,-5.222 3.17,0 5.739,2.338 5.739,5.222 0,2.885 -2.569,5.223 -5.739,5.223 m 10.504,12.486 c -1.808,0 -3.274,-3.197 -3.274,-7.14 0,-3.944 1.466,-7.141 3.274,-7.141 1.809,0 3.274,3.197 3.274,7.141 0,3.943 -1.465,7.14 -3.274,7.14 m 20.91,-7.14 c 0,3.943 1.466,7.14 3.274,7.14 1.809,0 3.275,-3.197 3.275,-7.14 0,-3.944 -1.466,-7.141 -3.275,-7.141 -1.808,0 -3.274,3.197 -3.274,7.141"
             style="fill:#000000;fill-opacity:1;fill-rule:nonzero;stroke:none"
             id="path120" /></g></g></g></g></svg>
