<?xml version="1.0" encoding="UTF-8" standalone="no"?>
<!-- Created with Inkscape (http://www.inkscape.org/) -->

<svg
   version="1.1"
   id="svg1"
   width="320"
   height="426.66666"
   viewBox="0 0 320 426.66666"
   sodipodi:docname="Barista Artworks.ai"
   xmlns:inkscape="http://www.inkscape.org/namespaces/inkscape"
   xmlns:sodipodi="http://sodipodi.sourceforge.net/DTD/sodipodi-0.dtd"
   xmlns="http://www.w3.org/2000/svg"
   xmlns:svg="http://www.w3.org/2000/svg">
  <defs
     id="defs1">
    <clipPath
       clipPathUnits="userSpaceOnUse"
       id="clipPath3">
      <path
         d="M 0,320 H 240 V 0 H 0 Z"
         transform="translate(-128.25,-44.500004)"
         id="path3" />
    </clipPath>
    <clipPath
       clipPathUnits="userSpaceOnUse"
       id="clipPath5">
      <path
         d="M 0,320 H 240 V 0 H 0 Z"
         transform="translate(-87.784202,-28.211901)"
         id="path5" />
    </clipPath>
    <clipPath
       clipPathUnits="userSpaceOnUse"
       id="clipPath7">
      <path
         d="M 0,320 H 240 V 0 H 0 Z"
         transform="translate(-35.687501,-19.468798)"
         id="path7" />
    </clipPath>
    <clipPath
       clipPathUnits="userSpaceOnUse"
       id="clipPath9">
      <path
         d="M 0,320 H 240 V 0 H 0 Z"
         transform="translate(-26.150401,-22.379901)"
         id="path9" />
    </clipPath>
    <clipPath
       clipPathUnits="userSpaceOnUse"
       id="clipPath11">
      <path
         d="M 0,320 H 240 V 0 H 0 Z"
         transform="translate(-21.500001,-54.250004)"
         id="path11" />
    </clipPath>
    <clipPath
       clipPathUnits="userSpaceOnUse"
       id="clipPath13">
      <path
         d="M 0,320 H 240 V 0 H 0 Z"
         transform="translate(-21.500001,-84)"
         id="path13" />
    </clipPath>
    <clipPath
       clipPathUnits="userSpaceOnUse"
       id="clipPath15">
      <path
         d="M 0,320 H 240 V 0 H 0 Z"
         transform="translate(-75.921902,-44.718801)"
         id="path15" />
    </clipPath>
    <clipPath
       clipPathUnits="userSpaceOnUse"
       id="clipPath17">
      <path
         d="M 0,320 H 240 V 0 H 0 Z"
         transform="translate(-66.725102,-36.700198)"
         id="path17" />
    </clipPath>
    <clipPath
       clipPathUnits="userSpaceOnUse"
       id="clipPath19">
      <path
         d="M 0,320 H 240 V 0 H 0 Z"
         transform="translate(-20.744601,-51.080099)"
         id="path19" />
    </clipPath>
    <clipPath
       clipPathUnits="userSpaceOnUse"
       id="clipPath21">
      <path
         d="M 0,320 H 240 V 0 H 0 Z"
         transform="translate(-57.744601,-50.737304)"
         id="path21" />
    </clipPath>
    <clipPath
       clipPathUnits="userSpaceOnUse"
       id="clipPath23">
      <path
         d="M 0,320 H 240 V 0 H 0 Z"
         transform="translate(-25,-43.499999)"
         id="path23" />
    </clipPath>
    <clipPath
       clipPathUnits="userSpaceOnUse"
       id="clipPath25">
      <path
         d="M 0,320 H 240 V 0 H 0 Z"
         transform="translate(-24.7993,-80.619105)"
         id="path25" />
    </clipPath>
    <clipPath
       clipPathUnits="userSpaceOnUse"
       id="clipPath27">
      <path
         d="M 0,320 H 240 V 0 H 0 Z"
         transform="translate(-79.500002,-54.250004)"
         id="path27" />
    </clipPath>
    <clipPath
       clipPathUnits="userSpaceOnUse"
       id="clipPath29">
      <path
         d="M 0,320 H 240 V 0 H 0 Z"
         transform="translate(-79.500002,-84)"
         id="path29" />
    </clipPath>
    <clipPath
       clipPathUnits="userSpaceOnUse"
       id="clipPath31">
      <path
         d="M 0,320 H 240 V 0 H 0 Z"
         transform="translate(-124.917,-220.06641)"
         id="path31" />
    </clipPath>
    <clipPath
       clipPathUnits="userSpaceOnUse"
       id="clipPath33">
      <path
         d="M 0,320 H 240 V 0 H 0 Z"
         transform="translate(-120.0391,-215.50151)"
         id="path33" />
    </clipPath>
    <clipPath
       clipPathUnits="userSpaceOnUse"
       id="clipPath35">
      <path
         d="M 0,320 H 240 V 0 H 0 Z"
         transform="translate(-136.5498,-249.25001)"
         id="path35" />
    </clipPath>
    <clipPath
       clipPathUnits="userSpaceOnUse"
       id="clipPath37">
      <path
         d="M 0,320 H 240 V 0 H 0 Z"
         transform="translate(-137.45121,-279.00001)"
         id="path37" />
    </clipPath>
    <clipPath
       clipPathUnits="userSpaceOnUse"
       id="clipPath39">
      <path
         d="M 0,320 H 240 V 0 H 0 Z"
         transform="translate(-158.96091,-271.53081)"
         id="path39" />
    </clipPath>
    <clipPath
       clipPathUnits="userSpaceOnUse"
       id="clipPath41">
      <path
         d="M 0,320 H 240 V 0 H 0 Z"
         transform="translate(-162.37791,-247.21191)"
         id="path41" />
    </clipPath>
    <clipPath
       clipPathUnits="userSpaceOnUse"
       id="clipPath43">
      <path
         d="M 0,320 H 240 V 0 H 0 Z"
         transform="translate(-140.2549,-249.44141)"
         id="path43" />
    </clipPath>
    <clipPath
       clipPathUnits="userSpaceOnUse"
       id="clipPath45">
      <path
         d="M 0,320 H 240 V 0 H 0 Z"
         transform="translate(-148.70511,-238.98191)"
         id="path45" />
    </clipPath>
    <clipPath
       clipPathUnits="userSpaceOnUse"
       id="clipPath47">
      <path
         d="M 0,320 H 240 V 0 H 0 Z"
         transform="translate(-175.3008,-229.12401)"
         id="path47" />
    </clipPath>
    <clipPath
       clipPathUnits="userSpaceOnUse"
       id="clipPath49">
      <path
         d="M 0,320 H 240 V 0 H 0 Z"
         transform="translate(-126.5313,-235.5)"
         id="path49" />
    </clipPath>
    <clipPath
       clipPathUnits="userSpaceOnUse"
       id="clipPath51">
      <path
         d="M 0,320 H 240 V 0 H 0 Z"
         transform="translate(-158.96091,-271.53081)"
         id="path51" />
    </clipPath>
    <clipPath
       clipPathUnits="userSpaceOnUse"
       id="clipPath53">
      <path
         d="M 0,320 H 240 V 0 H 0 Z"
         transform="translate(-165.8604,-212.48781)"
         id="path53" />
    </clipPath>
    <clipPath
       clipPathUnits="userSpaceOnUse"
       id="clipPath55">
      <path
         d="M 0,320 H 240 V 0 H 0 Z"
         transform="translate(-127.125,-189.75)"
         id="path55" />
    </clipPath>
    <clipPath
       clipPathUnits="userSpaceOnUse"
       id="clipPath57">
      <path
         d="M 0,320 H 240 V 0 H 0 Z"
         transform="translate(-137.9404,-202.686)"
         id="path57" />
    </clipPath>
    <clipPath
       clipPathUnits="userSpaceOnUse"
       id="clipPath59">
      <path
         d="M 0,320 H 240 V 0 H 0 Z"
         transform="translate(-141.33201,-274.80081)"
         id="path59" />
    </clipPath>
    <clipPath
       clipPathUnits="userSpaceOnUse"
       id="clipPath61">
      <path
         d="M 0,320 H 240 V 0 H 0 Z"
         transform="translate(-188.04981,-245.25001)"
         id="path61" />
    </clipPath>
    <clipPath
       clipPathUnits="userSpaceOnUse"
       id="clipPath63">
      <path
         d="M 0,320 H 240 V 0 H 0 Z"
         transform="translate(-188.9512,-275.00001)"
         id="path63" />
    </clipPath>
    <clipPath
       clipPathUnits="userSpaceOnUse"
       id="clipPath65">
      <path
         d="M 0,320 H 240 V 0 H 0 Z"
         transform="translate(-197.25,-169.5)"
         id="path65" />
    </clipPath>
    <clipPath
       clipPathUnits="userSpaceOnUse"
       id="clipPath67">
      <path
         d="M 0,320 H 240 V 0 H 0 Z"
         transform="translate(-197.25,-199.25)"
         id="path67" />
    </clipPath>
    <clipPath
       clipPathUnits="userSpaceOnUse"
       id="clipPath69">
      <path
         d="M 0,320 H 240 V 0 H 0 Z"
         transform="translate(-185.7568,-126.8984)"
         id="path69" />
    </clipPath>
    <clipPath
       clipPathUnits="userSpaceOnUse"
       id="clipPath71">
      <path
         d="M 0,320 H 240 V 0 H 0 Z"
         transform="translate(-202.44531,-161.5391)"
         id="path71" />
    </clipPath>
    <clipPath
       clipPathUnits="userSpaceOnUse"
       id="clipPath73">
      <path
         d="M 0,320 H 240 V 0 H 0 Z"
         transform="translate(-155.25,-157.75001)"
         id="path73" />
    </clipPath>
    <clipPath
       clipPathUnits="userSpaceOnUse"
       id="clipPath75">
      <path
         d="M 0,320 H 240 V 0 H 0 Z"
         transform="translate(-170.6025,-154.293)"
         id="path75" />
    </clipPath>
    <clipPath
       clipPathUnits="userSpaceOnUse"
       id="clipPath77">
      <path
         d="M 0,320 H 240 V 0 H 0 Z"
         transform="translate(-235.25001,-158.625)"
         id="path77" />
    </clipPath>
    <clipPath
       clipPathUnits="userSpaceOnUse"
       id="clipPath79">
      <path
         d="M 0,320 H 240 V 0 H 0 Z"
         transform="translate(-193.7812,-198.82811)"
         id="path79" />
    </clipPath>
    <clipPath
       clipPathUnits="userSpaceOnUse"
       id="clipPath81">
      <path
         d="M 0,320 H 240 V 0 H 0 Z"
         transform="translate(-193.2256,-191.8169)"
         id="path81" />
    </clipPath>
    <clipPath
       clipPathUnits="userSpaceOnUse"
       id="clipPath83">
      <path
         d="M 0,320 H 240 V 0 H 0 Z"
         transform="translate(-156.25,-169.5)"
         id="path83" />
    </clipPath>
    <clipPath
       clipPathUnits="userSpaceOnUse"
       id="clipPath85">
      <path
         d="M 0,320 H 240 V 0 H 0 Z"
         transform="translate(-156.25,-199.25)"
         id="path85" />
    </clipPath>
    <clipPath
       clipPathUnits="userSpaceOnUse"
       id="clipPath87">
      <path
         d="M 0,320 H 240 V 0 H 0 Z"
         transform="translate(-202.25001,-59.000001)"
         id="path87" />
    </clipPath>
    <clipPath
       clipPathUnits="userSpaceOnUse"
       id="clipPath89">
      <path
         d="M 0,320 H 240 V 0 H 0 Z"
         id="path89" />
    </clipPath>
    <clipPath
       clipPathUnits="userSpaceOnUse"
       id="clipPath91">
      <path
         d="M 0,320 H 240 V 0 H 0 Z"
         transform="translate(-179.82711,-32.094703)"
         id="path91" />
    </clipPath>
    <clipPath
       clipPathUnits="userSpaceOnUse"
       id="clipPath93">
      <path
         d="M 0,320 H 240 V 0 H 0 Z"
         transform="translate(-140.5713,-38.497101)"
         id="path93" />
    </clipPath>
    <clipPath
       clipPathUnits="userSpaceOnUse"
       id="clipPath95">
      <path
         d="M 0,320 H 240 V 0 H 0 Z"
         transform="translate(-140.5566,-46.048799)"
         id="path95" />
    </clipPath>
    <clipPath
       clipPathUnits="userSpaceOnUse"
       id="clipPath97">
      <path
         d="M 0,320 H 240 V 0 H 0 Z"
         transform="translate(-167.8086,-44.089799)"
         id="path97" />
    </clipPath>
    <clipPath
       clipPathUnits="userSpaceOnUse"
       id="clipPath99">
      <path
         d="M 0,320 H 240 V 0 H 0 Z"
         transform="translate(-181.5732,-38.600601)"
         id="path99" />
    </clipPath>
    <clipPath
       clipPathUnits="userSpaceOnUse"
       id="clipPath101">
      <path
         d="M 0,320 H 240 V 0 H 0 Z"
         transform="translate(-152.56641,-49.010699)"
         id="path101" />
    </clipPath>
    <clipPath
       clipPathUnits="userSpaceOnUse"
       id="clipPath103">
      <path
         d="M 0,320 H 240 V 0 H 0 Z"
         transform="translate(-141.5146,-122.5469)"
         id="path103" />
    </clipPath>
    <clipPath
       clipPathUnits="userSpaceOnUse"
       id="clipPath105">
      <path
         d="M 0,320 H 240 V 0 H 0 Z"
         transform="translate(-129.87501,-95.000002)"
         id="path105" />
    </clipPath>
    <clipPath
       clipPathUnits="userSpaceOnUse"
       id="clipPath107">
      <path
         d="M 0,320 H 240 V 0 H 0 Z"
         transform="translate(-116.5,-86.25)"
         id="path107" />
    </clipPath>
    <clipPath
       clipPathUnits="userSpaceOnUse"
       id="clipPath109">
      <path
         d="M 0,320 H 240 V 0 H 0 Z"
         transform="translate(-147.77541,-79.849604)"
         id="path109" />
    </clipPath>
    <clipPath
       clipPathUnits="userSpaceOnUse"
       id="clipPath111">
      <path
         d="M 0,320 H 240 V 0 H 0 Z"
         transform="translate(-142.41411,-122.6631)"
         id="path111" />
    </clipPath>
    <clipPath
       clipPathUnits="userSpaceOnUse"
       id="clipPath113">
      <path
         d="M 0,320 H 240 V 0 H 0 Z"
         transform="translate(-153,-98.468805)"
         id="path113" />
    </clipPath>
    <clipPath
       clipPathUnits="userSpaceOnUse"
       id="clipPath115">
      <path
         d="M 0,320 H 240 V 0 H 0 Z"
         transform="translate(-153,-128.3115)"
         id="path115" />
    </clipPath>
    <clipPath
       clipPathUnits="userSpaceOnUse"
       id="clipPath117">
      <path
         d="M 0,320 H 240 V 0 H 0 Z"
         transform="translate(-108.7251,-250.85011)"
         id="path117" />
    </clipPath>
    <clipPath
       clipPathUnits="userSpaceOnUse"
       id="clipPath119">
      <path
         d="M 0,320 H 240 V 0 H 0 Z"
         transform="translate(-28.281301,-244.59371)"
         id="path119" />
    </clipPath>
    <clipPath
       clipPathUnits="userSpaceOnUse"
       id="clipPath121">
      <path
         d="M 0,320 H 240 V 0 H 0 Z"
         transform="translate(-17.5,-273.25001)"
         id="path121" />
    </clipPath>
    <clipPath
       clipPathUnits="userSpaceOnUse"
       id="clipPath123">
      <path
         d="M 0,320 H 240 V 0 H 0 Z"
         transform="translate(-17.5,-303.00001)"
         id="path123" />
    </clipPath>
    <clipPath
       clipPathUnits="userSpaceOnUse"
       id="clipPath125">
      <path
         d="M 0,320 H 240 V 0 H 0 Z"
         transform="translate(-71.921902,-263.71871)"
         id="path125" />
    </clipPath>
    <clipPath
       clipPathUnits="userSpaceOnUse"
       id="clipPath127">
      <path
         d="M 0,320 H 240 V 0 H 0 Z"
         transform="translate(-29.125,-273.00001)"
         id="path127" />
    </clipPath>
    <clipPath
       clipPathUnits="userSpaceOnUse"
       id="clipPath129">
      <path
         d="M 0,320 H 240 V 0 H 0 Z"
         transform="translate(-53.375002,-273.00001)"
         id="path129" />
    </clipPath>
    <clipPath
       clipPathUnits="userSpaceOnUse"
       id="clipPath131">
      <path
         d="M 0,320 H 240 V 0 H 0 Z"
         transform="translate(-21.000001,-262.50001)"
         id="path131" />
    </clipPath>
    <clipPath
       clipPathUnits="userSpaceOnUse"
       id="clipPath133">
      <path
         d="M 0,320 H 240 V 0 H 0 Z"
         transform="translate(-64.774901,-256.14991)"
         id="path133" />
    </clipPath>
    <clipPath
       clipPathUnits="userSpaceOnUse"
       id="clipPath135">
      <path
         d="M 0,320 H 240 V 0 H 0 Z"
         transform="translate(-20.799301,-299.61911)"
         id="path135" />
    </clipPath>
    <clipPath
       clipPathUnits="userSpaceOnUse"
       id="clipPath137">
      <path
         d="M 0,320 H 240 V 0 H 0 Z"
         transform="translate(-75.500004,-273.25001)"
         id="path137" />
    </clipPath>
    <clipPath
       clipPathUnits="userSpaceOnUse"
       id="clipPath139">
      <path
         d="M 0,320 H 240 V 0 H 0 Z"
         transform="translate(-75.500004,-303.00001)"
         id="path139" />
    </clipPath>
  </defs>
  <sodipodi:namedview
     id="namedview1"
     pagecolor="#ffffff"
     bordercolor="#000000"
     borderopacity="0.25"
     inkscape:showpageshadow="2"
     inkscape:pageopacity="0.0"
     inkscape:pagecheckerboard="0"
     inkscape:deskcolor="#d1d1d1">
    <inkscape:page
       x="0"
       y="0"
       inkscape:label="1"
       id="page1"
       width="320"
       height="426.66666"
       margin="0"
       bleed="0" />
  </sodipodi:namedview>
  <g
     id="layer-MC0"
     inkscape:groupmode="layer"
     inkscape:label="Layer 1">
    <path
       id="path1"
       d="M 0,0 H 240 V 320 H 0 Z"
       style="fill:#ffffff;fill-opacity:1;fill-rule:nonzero;stroke:none"
       transform="matrix(1.3333333,0,0,-1.3333333,0,426.66667)" />
    <path
       id="path2"
       d="m 0,0 c 0,-5.385 -4.365,-9.75 -9.75,-9.75 -5.385,0 -9.75,4.365 -9.75,9.75 0,5.385 4.365,9.75 9.75,9.75 C -4.365,9.75 0,5.385 0,0"
       style="fill:#000000;fill-opacity:1;fill-rule:nonzero;stroke:none"
       transform="matrix(1.3333333,0,0,-1.3333333,171,367.33333)"
       clip-path="url(#clipPath3)" />
    <path
       id="path4"
       d="m 0,0 c -0.77,-0.3 -7.321,-1.221 -11.897,-4.009 -3.823,-2.329 -5.912,-4.068 -9.091,-7.273 l 6.756,-12.135 c 11.412,8.04 15.232,7.691 20.551,8.629 13.403,2.361 19.61,6.856 19.395,18.333 -0.211,11.217 -10.264,23.844 -30.88,23.844 -5.98,0 -18.483,1.193 -30.29,1.194 C -46.159,28.584 -51.42,15.15 -51.42,7.866 c 0,-12.765 8.29,-19.942 22.163,-21.976 2.108,-0.31 6.593,-0.365 9,1.38"
       style="fill:#ffffff;fill-opacity:1;fill-rule:nonzero;stroke:#000000;stroke-width:2.5;stroke-linecap:butt;stroke-linejoin:miter;stroke-miterlimit:10;stroke-dasharray:none;stroke-opacity:1"
       transform="matrix(1.3333333,0,0,-1.3333333,117.0456,389.0508)"
       clip-path="url(#clipPath5)" />
    <path
       id="path6"
       d="m 0,0 -5.167,-5.197 c 3.66,-3.961 7.045,-6.71 12.265,-9.939 l 5.183,9.261 z"
       style="fill:#ffffff;fill-opacity:1;fill-rule:nonzero;stroke:#000000;stroke-width:2.5;stroke-linecap:butt;stroke-linejoin:miter;stroke-miterlimit:10;stroke-dasharray:none;stroke-opacity:1"
       transform="matrix(1.3333333,0,0,-1.3333333,47.583333,400.70827)"
       clip-path="url(#clipPath7)" />
    <path
       id="path8"
       d="m 0,0 c -0.301,-0.513 -0.619,-1.576 -0.619,-2.895 0,-2.054 0.649,-3.016 3.375,-3.016 3.457,0 7.16,0.168 11.171,-2.202 3.424,-2.023 5.425,-6.306 7.086,-9.173 4.742,3.175 7.574,4.803 11.93,9.62 -2.002,3.27 -6.247,6.206 -11.677,6.88 -3.122,0.388 -5.256,0.022 -8.426,0.022 C 8.051,-0.764 5.266,-0.476 0,0"
       style="fill:#ffffff;fill-opacity:1;fill-rule:nonzero;stroke:#000000;stroke-width:2.5;stroke-linecap:butt;stroke-linejoin:miter;stroke-miterlimit:10;stroke-dasharray:none;stroke-opacity:1"
       transform="matrix(1.3333333,0,0,-1.3333333,34.8672,396.8268)"
       clip-path="url(#clipPath9)" />
    <path
       id="path10"
       d="m 0,0 c -6.203,0 -11.25,6.393 -11.25,14.25 0,7.857 5.047,14.25 11.25,14.25 6.203,0 11.25,-6.393 11.25,-14.25 C 11.25,6.393 6.203,0 0,0"
       style="fill:#ed1d24;fill-opacity:1;fill-rule:nonzero;stroke:none"
       transform="matrix(1.3333333,0,0,-1.3333333,28.666667,354.33333)"
       clip-path="url(#clipPath11)" />
    <path
       id="path12"
       d="m 0,0 c -6.893,0 -12.5,-6.953 -12.5,-15.5 0,-8.547 5.607,-15.5 12.5,-15.5 6.893,0 12.5,6.953 12.5,15.5 C 12.5,-6.953 6.893,0 0,0 m 0,-2.5 c 5.523,0 10,-5.82 10,-13 0,-7.18 -4.477,-13 -10,-13 -5.523,0 -10,5.82 -10,13 0,7.18 4.477,13 10,13"
       style="fill:#000000;fill-opacity:1;fill-rule:nonzero;stroke:none"
       transform="matrix(1.3333333,0,0,-1.3333333,28.666667,314.66667)"
       clip-path="url(#clipPath13)" />
    <path
       id="path14"
       d="m 0,0 c 0,-15.344 -8.891,-23.031 -35.508,-23.031 -23.18,0 -29.836,8.625 -29.836,20.812 0,9.094 6.766,9.219 9.586,8.953 0.753,-0.071 1.321,0.641 1.266,1.336 -0.342,4.321 -0.235,12.211 2.228,16.571 3.363,5.951 12.686,9.961 22.858,9.961 C -5.625,34.602 0,22.906 0,3.906 Z"
       style="fill:#ffffff;fill-opacity:1;fill-rule:nonzero;stroke:#000000;stroke-width:2.5;stroke-linecap:butt;stroke-linejoin:miter;stroke-miterlimit:10;stroke-dasharray:none;stroke-opacity:1"
       transform="matrix(1.3333333,0,0,-1.3333333,101.2292,367.0416)"
       clip-path="url(#clipPath15)" />
    <path
       id="path16"
       d="m 0,0 c 0,-4.764 -3.862,-8.625 -8.625,-8.625 -4.764,0 -8.625,3.861 -8.625,8.625 0,4.764 3.861,8.625 8.625,8.625 C -3.862,8.625 0,4.764 0,0"
       style="fill:#f8abad;fill-opacity:1;fill-rule:nonzero;stroke:none"
       transform="matrix(1.3333333,0,0,-1.3333333,88.9668,377.73307)"
       clip-path="url(#clipPath17)" />
    <path
       id="path18"
       d="m 0,0 c 1.187,-0.104 2.94,-0.993 7.286,-0.993 3.409,0 5.016,0.424 6.268,0.424"
       style="fill:none;stroke:#000000;stroke-width:3.5;stroke-linecap:butt;stroke-linejoin:miter;stroke-miterlimit:10;stroke-dasharray:none;stroke-opacity:1"
       transform="matrix(1.3333333,0,0,-1.3333333,27.659467,358.55987)"
       clip-path="url(#clipPath19)" />
    <path
       id="path20"
       d="m 0,0 c -1.187,-0.104 -2.94,-0.993 -7.286,-0.993 -3.409,0 -5.016,0.424 -6.268,0.424"
       style="fill:none;stroke:#000000;stroke-width:3.5;stroke-linecap:butt;stroke-linejoin:miter;stroke-miterlimit:10;stroke-dasharray:none;stroke-opacity:1"
       transform="matrix(1.3333333,0,0,-1.3333333,76.9928,359.01693)"
       clip-path="url(#clipPath21)" />
    <path
       id="path22"
       d="m 0,0 c 0,-2.83 -2.574,-5.125 -5.75,-5.125 -3.176,0 -5.75,2.295 -5.75,5.125 0,2.83 2.574,5.125 5.75,5.125 C -2.574,5.125 0,2.83 0,0"
       style="fill:#000000;fill-opacity:1;fill-rule:nonzero;stroke:none"
       transform="matrix(1.3333333,0,0,-1.3333333,33.333333,368.66667)"
       clip-path="url(#clipPath23)" />
    <path
       id="path24"
       d="m 0,0 c -3.444,-4.595 1.615,-6.062 1.615,-6.062 13.156,12.287 28.32,12.357 43.086,0.38 l 3.968,5.797 C 35.841,17.053 11.013,14.693 0,0"
       style="fill:#6ed0f6;fill-opacity:1;fill-rule:nonzero;stroke:#000000;stroke-width:2.5;stroke-linecap:butt;stroke-linejoin:miter;stroke-miterlimit:10;stroke-dasharray:none;stroke-opacity:1"
       transform="matrix(1.3333333,0,0,-1.3333333,33.065733,319.17453)"
       clip-path="url(#clipPath25)" />
    <path
       id="path26"
       d="m 0,0 c -6.203,0 -11.25,6.393 -11.25,14.25 0,7.857 5.047,14.25 11.25,14.25 6.203,0 11.25,-6.393 11.25,-14.25 C 11.25,6.393 6.203,0 0,0"
       style="fill:#ed1d24;fill-opacity:1;fill-rule:nonzero;stroke:none"
       transform="matrix(1.3333333,0,0,-1.3333333,106,354.33333)"
       clip-path="url(#clipPath27)" />
    <path
       id="path28"
       d="m 0,0 c -6.893,0 -12.5,-6.953 -12.5,-15.5 0,-8.547 5.607,-15.5 12.5,-15.5 6.893,0 12.5,6.953 12.5,15.5 C 12.5,-6.953 6.893,0 0,0 m 0,-2.5 c 5.523,0 10,-5.82 10,-13 0,-7.18 -4.477,-13 -10,-13 -5.523,0 -10,5.82 -10,13 0,7.18 4.477,13 10,13"
       style="fill:#000000;fill-opacity:1;fill-rule:nonzero;stroke:none"
       transform="matrix(1.3333333,0,0,-1.3333333,106,314.66667)"
       clip-path="url(#clipPath29)" />
    <path
       id="path30"
       d="M 0,0 C -4.201,6.603 -4.739,12.915 -4.915,19.571 L 8.591,18.904 8.165,0.517 Z"
       style="fill:#ffffff;fill-opacity:1;fill-rule:nonzero;stroke:#000000;stroke-width:2.5;stroke-linecap:butt;stroke-linejoin:miter;stroke-miterlimit:10;stroke-dasharray:none;stroke-opacity:1"
       transform="matrix(1.3333333,0,0,-1.3333333,166.556,133.2448)"
       clip-path="url(#clipPath31)" />
    <path
       id="path32"
       d="m 0,0 c 2.541,3.531 5.61,5.405 11.653,5.405 4.01,0 19.383,-1.731 40.168,-5.44 C 47.929,-7.518 44.037,-15 40.145,-22.483 24.835,-19.122 9.524,-15.762 -5.786,-12.401 -3.761,-6.031 -1.26,-1.75 0,0"
       style="fill:#ffffff;fill-opacity:1;fill-rule:nonzero;stroke:#000000;stroke-width:2.5;stroke-linecap:butt;stroke-linejoin:miter;stroke-miterlimit:10;stroke-dasharray:none;stroke-opacity:1"
       transform="matrix(1.3333333,0,0,-1.3333333,160.05213,139.33133)"
       clip-path="url(#clipPath33)" />
    <path
       id="path34"
       d="m 0,0 c -0.262,0 -0.524,0.011 -0.789,0.035 -6.165,0.541 -10.624,7.359 -9.94,15.197 0.648,7.44 5.756,13.268 11.629,13.268 0.262,0 0.525,-0.011 0.789,-0.035 C 7.854,27.924 12.313,21.106 11.63,13.268 10.981,5.828 5.873,0 0,0"
       style="fill:#ed1d24;fill-opacity:1;fill-rule:nonzero;stroke:none"
       transform="matrix(1.3333333,0,0,-1.3333333,182.0664,94.333333)"
       clip-path="url(#clipPath35)" />
    <path
       id="path36"
       d="m 0,0 h -0.001 c -6.516,0 -12.172,-6.33 -12.876,-14.41 -0.742,-8.524 4.227,-15.949 11.077,-16.55 0.298,-0.027 0.6,-0.04 0.899,-0.04 6.515,0 12.172,6.33 12.876,14.41 C 12.717,-8.066 7.748,-0.641 0.897,-0.04 0.6,-0.013 0.298,0 0,0 m -0.001,-2.5 c 0.226,0 0.452,-0.01 0.68,-0.03 5.487,-0.482 9.428,-6.679 8.804,-13.843 C 8.886,-23.239 4.309,-28.5 -0.901,-28.5 c -0.226,0 -0.453,0.01 -0.68,0.03 -5.487,0.482 -9.429,6.679 -8.805,13.843 0.598,6.866 5.175,12.127 10.385,12.127"
       style="fill:#000000;fill-opacity:1;fill-rule:nonzero;stroke:none"
       transform="matrix(1.3333333,0,0,-1.3333333,183.26827,54.666667)"
       clip-path="url(#clipPath37)" />
    <path
       id="path38"
       d="m 0,0 c 11.406,0 22.866,-5.397 26.944,-11.192 1.236,-1.755 1.71,-11.701 1.572,-15.558 -0.687,-19.208 -9.507,-26.652 -18.976,-29.204 -5.238,-1.411 -27.311,-0.471 -33.479,3.944 -4.962,3.552 -7.522,7.983 -7.522,14.657 0,9.76 3.767,13.596 7.297,13.403 0,5.36 1.867,14.046 5.255,17.788 C -14.537,-1.333 -4.968,0 0,0"
       style="fill:#ffffff;fill-opacity:1;fill-rule:nonzero;stroke:#000000;stroke-width:2.5;stroke-linecap:butt;stroke-linejoin:miter;stroke-miterlimit:10;stroke-dasharray:none;stroke-opacity:1"
       transform="matrix(1.3333333,0,0,-1.3333333,211.94787,64.6256)"
       clip-path="url(#clipPath39)" />
    <path
       id="path40"
       d="M 0,0 C -0.51,-3.997 0.53,-7.434 2.323,-7.678 4.115,-7.921 5.981,-4.879 6.491,-0.882 7.001,3.114 5.961,6.551 4.168,6.795 2.376,7.039 0.51,3.997 0,0"
       style="fill:#000000;fill-opacity:1;fill-rule:nonzero;stroke:none"
       transform="matrix(1.3333333,0,0,-1.3333333,216.50387,97.0508)"
       clip-path="url(#clipPath41)" />
    <path
       id="path42"
       d="M 0,0 C -0.51,-3.997 0.53,-7.434 2.322,-7.678 4.115,-7.921 5.981,-4.879 6.49,-0.883 7,3.114 5.96,6.551 4.168,6.795 2.375,7.039 0.509,3.997 0,0"
       style="fill:#000000;fill-opacity:1;fill-rule:nonzero;stroke:none"
       transform="matrix(1.3333333,0,0,-1.3333333,187.00653,94.078133)"
       clip-path="url(#clipPath43)" />
    <path
       id="path44"
       d="m 0,0 c -0.378,-2.938 -3.239,-4.975 -6.39,-4.551 -3.15,0.424 -5.398,3.15 -5.02,6.087 0.378,2.938 3.239,4.975 6.389,4.551 C -1.87,5.663 0.378,2.938 0,0"
       style="fill:#000000;fill-opacity:1;fill-rule:nonzero;stroke:none"
       transform="matrix(1.3333333,0,0,-1.3333333,198.27347,108.02413)"
       clip-path="url(#clipPath45)" />
    <path
       id="path46"
       d="m 0,0 c -0.621,-4.723 -4.954,-8.047 -9.677,-7.425 -4.722,0.621 -8.047,4.954 -7.425,9.677 0.622,4.723 4.955,8.047 9.677,7.425 C -2.702,9.056 0.622,4.723 0,0"
       style="fill:#f8abad;fill-opacity:1;fill-rule:nonzero;stroke:none"
       transform="matrix(1.3333333,0,0,-1.3333333,233.7344,121.168)"
       clip-path="url(#clipPath47)" />
    <path
       id="path48"
       d="M 0,0 2.419,8.105 C 5.818,6.868 8.094,3.618 8.094,0 c 0,-3.618 -2.276,-6.868 -5.675,-8.105 z"
       style="fill:#f8abad;fill-opacity:1;fill-rule:nonzero;stroke:none"
       transform="matrix(1.3333333,0,0,-1.3333333,168.7084,112.66667)"
       clip-path="url(#clipPath49)" />
    <path
       id="path50"
       d="m 0,0 c 11.406,0 22.866,-5.397 26.944,-11.192 1.236,-1.755 1.71,-11.701 1.572,-15.558 -0.687,-19.208 -9.507,-26.652 -18.976,-29.204 -5.238,-1.411 -27.311,-0.471 -33.479,3.944 -4.962,3.552 -7.522,7.983 -7.522,14.657 0,9.76 3.767,13.596 7.297,13.403 0,5.36 1.867,14.046 5.255,17.788 C -14.537,-1.333 -4.968,0 0,0 Z"
       style="fill:none;stroke:#000000;stroke-width:2.5;stroke-linecap:butt;stroke-linejoin:miter;stroke-miterlimit:10;stroke-dasharray:none;stroke-opacity:1"
       transform="matrix(1.3333333,0,0,-1.3333333,211.94787,64.6256)"
       clip-path="url(#clipPath51)" />
    <path
       id="path52"
       d="m 0,0 c -1.379,1.498 -4.81,1.406 -11.838,14.246 l 12.646,8.919 c 2.106,-4.196 5.289,-8.72 9.021,-11.038 4.082,-2.536 6.598,-3.449 6.803,-9.784 0.484,-14.978 -21.08,-29.3 -46.761,-29.3 -17.126,0 -21.239,3.909 -27.758,14.031 -2.601,4.04 -6.237,12.329 -8.215,27.7 l 17.91,2.386 c 0,-11.66 3.249,-17.609 3.95,-20.633"
       style="fill:#ffffff;fill-opacity:1;fill-rule:nonzero;stroke:#000000;stroke-width:2.5;stroke-linecap:butt;stroke-linejoin:miter;stroke-miterlimit:10;stroke-dasharray:none;stroke-opacity:1"
       transform="matrix(1.3333333,0,0,-1.3333333,221.1472,143.3496)"
       clip-path="url(#clipPath53)" />
    <path
       id="path54"
       d="m 0,0 c 0,-5.316 -4.31,-9.625 -9.625,-9.625 -5.316,0 -9.625,4.309 -9.625,9.625 0,5.316 4.309,9.625 9.625,9.625 C -4.31,9.625 0,5.316 0,0"
       style="fill:#000000;fill-opacity:1;fill-rule:nonzero;stroke:none"
       transform="matrix(1.3333333,0,0,-1.3333333,169.5,173.66667)"
       clip-path="url(#clipPath55)" />
    <path
       id="path56"
       d="m 0,0 c -0.55,1.099 -3.404,5.165 -5.052,9.851 -1.21,3.438 -2.601,7.933 -5.042,12.603 L 7.69,26.557 c 0.2,-3.037 1.745,-8.567 3.373,-12.279 1.572,-3.587 3.112,-5.646 5.385,-9.237"
       style="fill:#ffffff;fill-opacity:1;fill-rule:nonzero;stroke:#000000;stroke-width:2.5;stroke-linecap:butt;stroke-linejoin:miter;stroke-miterlimit:10;stroke-dasharray:none;stroke-opacity:1"
       transform="matrix(1.3333333,0,0,-1.3333333,183.92053,156.41867)"
       clip-path="url(#clipPath57)" />
    <path
       id="path58"
       d="M 0,0 C -2.747,-3.053 1.074,-5.926 1.074,-5.926 14.871,3.926 29.887,2.855 40.901,-8.76 l 6.079,5.537 C 36.762,12.762 11.793,13.105 0,0"
       style="fill:#6ed0f6;fill-opacity:1;fill-rule:nonzero;stroke:#000000;stroke-width:2.5;stroke-linecap:butt;stroke-linejoin:miter;stroke-miterlimit:10;stroke-dasharray:none;stroke-opacity:1"
       transform="matrix(1.3333333,0,0,-1.3333333,188.44267,60.2656)"
       clip-path="url(#clipPath59)" />
    <path
       id="path60"
       d="m 0,0 c -0.262,0 -0.524,0.011 -0.789,0.035 -6.165,0.541 -10.624,7.359 -9.94,15.197 0.648,7.44 5.756,13.268 11.629,13.268 0.262,0 0.525,-0.011 0.789,-0.035 C 7.854,27.924 12.313,21.106 11.63,13.268 10.981,5.828 5.873,0 0,0"
       style="fill:#ed1d24;fill-opacity:1;fill-rule:nonzero;stroke:none"
       transform="matrix(1.3333333,0,0,-1.3333333,250.73307,99.666667)"
       clip-path="url(#clipPath61)" />
    <path
       id="path62"
       d="m 0,0 h -0.001 c -6.516,0 -12.172,-6.33 -12.876,-14.41 -0.742,-8.524 4.227,-15.949 11.077,-16.55 0.298,-0.027 0.6,-0.04 0.899,-0.04 6.515,0 12.172,6.33 12.876,14.41 C 12.717,-8.066 7.748,-0.641 0.897,-0.04 0.6,-0.013 0.298,0 0,0 m -0.001,-2.5 c 0.226,0 0.452,-0.01 0.68,-0.03 5.487,-0.482 9.428,-6.679 8.804,-13.843 C 8.886,-23.239 4.309,-28.5 -0.901,-28.5 c -0.226,0 -0.453,0.01 -0.68,0.03 -5.487,0.482 -9.429,6.679 -8.805,13.843 0.598,6.866 5.175,12.127 10.385,12.127"
       style="fill:#000000;fill-opacity:1;fill-rule:nonzero;stroke:none"
       transform="matrix(1.3333333,0,0,-1.3333333,251.93493,60)"
       clip-path="url(#clipPath63)" />
    <path
       id="path64"
       d="m 0,0 c -6.203,0 -11.25,6.393 -11.25,14.25 v 1.25 h 9.288 l -4.772,10.235 0.776,0.613 C -4.172,27.756 -2.112,28.5 0,28.5 6.203,28.5 11.25,22.107 11.25,14.25 11.25,6.393 6.203,0 0,0"
       style="fill:#ed1d24;fill-opacity:1;fill-rule:nonzero;stroke:none"
       transform="matrix(1.3333333,0,0,-1.3333333,263,200.66667)"
       clip-path="url(#clipPath65)" />
    <path
       id="path66"
       d="M 0,0 C -2.396,0 -4.723,-0.837 -6.731,-2.419 L -8.286,-3.645 -7.449,-5.439 -3.924,-13 H -10 -12.5 v -2.5 c 0,-8.547 5.607,-15.5 12.5,-15.5 6.893,0 12.5,6.953 12.5,15.5 C 12.5,-6.953 6.893,0 0,0 m 0,-2.5 c 5.486,0 10,-5.868 10,-13 0,-7.132 -4.514,-13 -10,-13 -5.486,0 -10,5.868 -10,13 H 0 L -5.184,-4.383 C -3.621,-3.151 -1.828,-2.5 0,-2.5"
       style="fill:#000000;fill-opacity:1;fill-rule:nonzero;stroke:none"
       transform="matrix(1.3333333,0,0,-1.3333333,263,161)"
       clip-path="url(#clipPath67)" />
    <path
       id="path68"
       d="m 0,0 c 0,-6.506 -0.772,-10.271 -0.772,-10.271 h 8.68 l 2.288,12.802 z"
       style="fill:#ffffff;fill-opacity:1;fill-rule:nonzero;stroke:#000000;stroke-width:2.5;stroke-linecap:butt;stroke-linejoin:miter;stroke-miterlimit:10;stroke-dasharray:none;stroke-opacity:1"
       transform="matrix(1.3333333,0,0,-1.3333333,247.67573,257.4688)"
       clip-path="url(#clipPath69)" />
    <path
       id="path70"
       d="m 0,0 c 0,-13.912 -8.031,-20.883 -32.074,-20.883 -20.938,0 -26.95,7.82 -26.95,18.871 0,8.246 6.111,8.359 8.659,8.118 0.679,-0.064 1.192,0.581 1.143,1.211 -0.309,3.918 -0.212,11.072 2.013,15.025 3.037,5.396 11.459,9.032 20.647,9.032 C -5.081,31.374 0,22.477 0,3.542 Z"
       style="fill:#ffffff;fill-opacity:1;fill-rule:nonzero;stroke:#000000;stroke-width:2.5;stroke-linecap:butt;stroke-linejoin:miter;stroke-miterlimit:10;stroke-dasharray:none;stroke-opacity:1"
       transform="matrix(1.3333333,0,0,-1.3333333,269.92707,211.2812)"
       clip-path="url(#clipPath71)" />
    <path
       id="path72"
       d="m 0,0 c 0,-3.866 -2.07,-7 -4.625,-7 -2.555,0 -4.625,3.134 -4.625,7 0,3.866 2.07,7 4.625,7 C -2.07,7 0,3.866 0,0"
       style="fill:#f8abad;fill-opacity:1;fill-rule:nonzero;stroke:none"
       transform="matrix(1.3333333,0,0,-1.3333333,207,216.33333)"
       clip-path="url(#clipPath73)" />
    <path
       id="path74"
       d="m 0,0 c -4.051,-3.646 -7.438,-11.318 -7.438,-17.295 0,-7.197 1.287,-8.038 -0.633,-23.611 H 6.441 c -0.668,3.827 -1.158,9.261 -0.499,15.007 5.508,-0.997 9.18,-1.926 17.555,-1.303 0.338,-6.919 -1.052,-13.586 -1.052,-13.586 h 15.623 c -0.635,4.214 -0.975,10.729 -0.577,14.714 2.177,-0.048 5.549,0.062 9.706,0.756 1.142,-5.037 0.804,-11.742 -0.129,-15.65 h 13.677 c 0.42,4.324 3.184,28.878 -5.605,40.579 C 50.334,6.01 46.6,9.179 33.966,9.538 29.785,9.656 24.124,9.365 15.876,7.822"
       style="fill:#ffffff;fill-opacity:1;fill-rule:nonzero;stroke:#000000;stroke-width:2.5;stroke-linecap:butt;stroke-linejoin:miter;stroke-miterlimit:10;stroke-dasharray:none;stroke-opacity:1"
       transform="matrix(1.3333333,0,0,-1.3333333,227.47,220.94267)"
       clip-path="url(#clipPath75)" />
    <path
       id="path76"
       d="m 0,0 c 0,-5.315 -4.31,-9.625 -9.625,-9.625 -5.315,0 -9.625,4.31 -9.625,9.625 0,5.316 4.31,9.625 9.625,9.625 C -4.31,9.625 0,5.316 0,0"
       style="fill:#000000;fill-opacity:1;fill-rule:nonzero;stroke:none"
       transform="matrix(1.3333333,0,0,-1.3333333,313.66667,215.16667)"
       clip-path="url(#clipPath77)" />
    <path
       id="path78"
       d="m 0,0 c -3.898,4.195 -7.734,6.615 -15.344,6.615 -7.181,0 -14.396,-3.331 -19.187,-7.805 l 3.713,-6.865 c 4.154,3.774 9.552,5.792 15.984,5.792 7.209,0 11.967,-2.917 14.006,-5.518 0.975,-1.245 3.671,-2.526 4.297,-1.094 C 4.266,-7.051 3,-3.228 0,0"
       style="fill:#000000;fill-opacity:1;fill-rule:nonzero;stroke:#000000;stroke-width:2.5;stroke-linecap:butt;stroke-linejoin:miter;stroke-miterlimit:10;stroke-dasharray:none;stroke-opacity:1"
       transform="matrix(1.3333333,0,0,-1.3333333,258.37493,161.56253)"
       clip-path="url(#clipPath79)" />
    <path
       id="path80"
       d="m 0,0 c -1.886,2.938 -6.226,6.121 -14.204,6.121 -10.388,0 -15.639,-5.35 -16.818,-6.422 l -1.618,5.84 c 2.828,2.334 10.653,7.16 17.868,7.16 7.187,0 13.244,-3.428 16.171,-7.516 C 5.696,-0.817 2.149,-3.348 0,0"
       style="fill:#6ed0f6;fill-opacity:1;fill-rule:nonzero;stroke:none"
       transform="matrix(1.3333333,0,0,-1.3333333,257.63413,170.9108)"
       clip-path="url(#clipPath81)" />
    <path
       id="path82"
       d="m 0,0 c -6.203,0 -11.25,6.393 -11.25,14.25 0,7.857 5.047,14.25 11.25,14.25 6.203,0 11.25,-6.393 11.25,-14.25 C 11.25,6.393 6.203,0 0,0"
       style="fill:#ed1d24;fill-opacity:1;fill-rule:nonzero;stroke:none"
       transform="matrix(1.3333333,0,0,-1.3333333,208.33333,200.66667)"
       clip-path="url(#clipPath83)" />
    <path
       id="path84"
       d="m 0,0 c -6.893,0 -12.5,-6.953 -12.5,-15.5 0,-8.547 5.607,-15.5 12.5,-15.5 6.893,0 12.5,6.953 12.5,15.5 C 12.5,-6.953 6.893,0 0,0 m 0,-2.5 c 5.522,0 10,-5.82 10,-13 0,-7.18 -4.478,-13 -10,-13 -5.522,0 -10,5.82 -10,13 0,7.18 4.478,13 10,13"
       style="fill:#000000;fill-opacity:1;fill-rule:nonzero;stroke:none"
       transform="matrix(1.3333333,0,0,-1.3333333,208.33333,161)"
       clip-path="url(#clipPath85)" />
    <path
       id="path86"
       d="m 0,0 c 0,-5.315 -4.31,-9.625 -9.625,-9.625 -5.315,0 -9.625,4.31 -9.625,9.625 0,5.315 4.31,9.625 9.625,9.625 C -4.31,9.625 0,5.315 0,0"
       style="fill:#000000;fill-opacity:1;fill-rule:nonzero;stroke:none"
       transform="matrix(1.3333333,0,0,-1.3333333,269.66667,348)"
       clip-path="url(#clipPath87)" />
    <path
       id="path88"
       d="m 153.469,41.125 h -15.313 v 7.187 h 15.313 z"
       style="fill:#ffffff;fill-opacity:1;fill-rule:nonzero;stroke:none"
       transform="matrix(1.3333333,0,0,-1.3333333,0,426.66667)"
       clip-path="url(#clipPath89)" />
    <path
       id="path90"
       d="m 0,0 -13.003,1.827 1.556,11.069 13.003,-1.829 z"
       style="fill:#ffffff;fill-opacity:1;fill-rule:nonzero;stroke:none"
       transform="matrix(1.3333333,0,0,-1.3333333,239.76947,383.87373)"
       clip-path="url(#clipPath91)" />
    <path
       id="path92"
       d="m 0,0 c -0.36,-3.084 -0.633,-5.466 -0.633,-5.466 l -12.642,0.745 c 2.507,9.804 3.194,35.389 1.176,45.112 16.356,0 32.54,-2.176 42.444,-6.193 C 40.08,30.25 46.469,21.881 48.814,11.694 50.342,5.058 49.292,-2.644 35.654,0.791 l -21.2,8.008 C 7.923,11.266 0.811,6.935 0,0"
       style="fill:#ffffff;fill-opacity:1;fill-rule:nonzero;stroke:none"
       transform="matrix(1.3333333,0,0,-1.3333333,187.4284,375.3372)"
       clip-path="url(#clipPath93)" />
    <path
       id="path94"
       d="m 0,0 c -0.322,-1.396 -0.618,-13.018 -0.618,-13.018 l -12.643,0.746 c 2.508,9.803 3.195,35.388 1.177,45.111 16.355,0 32.54,-2.176 42.443,-6.193 9.736,-3.948 16.124,-12.317 18.47,-22.503 1.527,-6.637 0.478,-14.338 -13.16,-10.904"
       style="fill:none;stroke:#000000;stroke-width:2.5;stroke-linecap:butt;stroke-linejoin:miter;stroke-miterlimit:10;stroke-dasharray:none;stroke-opacity:1"
       transform="matrix(1.3333333,0,0,-1.3333333,187.4088,365.26827)"
       clip-path="url(#clipPath95)" />
    <path
       id="path96"
       d="M 0,0 C -6.551,-2.564 -19.525,-4.834 -27.574,-2.065"
       style="fill:none;stroke:#000000;stroke-width:2.5;stroke-linecap:butt;stroke-linejoin:miter;stroke-miterlimit:10;stroke-dasharray:none;stroke-opacity:1"
       transform="matrix(1.3333333,0,0,-1.3333333,223.7448,367.88027)"
       clip-path="url(#clipPath97)" />
    <path
       id="path98"
       d="m 0,0 -0.945,-6.46 -15.539,2.039 c 1.14,1.864 3.611,3.724 3.611,5.623 0,3.005 -2.049,4.08 -2.839,7.502 -1.151,4.988 0.099,6.719 3.177,9.755 2.329,2.297 6.031,2.157 8.728,0.708"
       style="fill:none;stroke:#000000;stroke-width:2.5;stroke-linecap:butt;stroke-linejoin:miter;stroke-miterlimit:10;stroke-dasharray:none;stroke-opacity:1"
       transform="matrix(1.3333333,0,0,-1.3333333,242.0976,375.1992)"
       clip-path="url(#clipPath99)" />
    <path
       id="path100"
       d="m 0,0 c 0.074,-3.605 -1.739,-12.126 -2.352,-15.582 l 13.415,-0.987 c 0.464,3.413 1.975,10.045 0.193,20.835"
       style="fill:#ffffff;fill-opacity:1;fill-rule:nonzero;stroke:#000000;stroke-width:2.5;stroke-linecap:butt;stroke-linejoin:miter;stroke-miterlimit:10;stroke-dasharray:none;stroke-opacity:1"
       transform="matrix(1.3333333,0,0,-1.3333333,203.42187,361.31907)"
       clip-path="url(#clipPath101)" />
    <path
       id="path102"
       d="m 0,0 c -10.172,0 -16.517,-5.202 -19.874,-11.156 -3.758,-6.664 -2.547,-12.344 -2.211,-15.602 0.072,-0.694 -0.517,-1.441 -1.266,-1.336 -4.734,0.664 -12.679,-1.484 -12.679,-11 0,-11.984 7.305,-20.447 30.484,-20.609 31.313,-0.219 33.524,19.64 33.524,28.531 C 27.978,-12.172 22.563,0 0,0"
       style="fill:#ffffff;fill-opacity:1;fill-rule:nonzero;stroke:#000000;stroke-width:2.5;stroke-linecap:butt;stroke-linejoin:miter;stroke-miterlimit:10;stroke-dasharray:none;stroke-opacity:1"
       transform="matrix(1.3333333,0,0,-1.3333333,188.68613,263.2708)"
       clip-path="url(#clipPath103)" />
    <path
       id="path104"
       d="m 0,0 c 0,-4.004 -1.511,-7.25 -3.375,-7.25 -1.864,0 -3.375,3.246 -3.375,7.25 0,4.004 1.511,7.25 3.375,7.25 C -1.511,7.25 0,4.004 0,0"
       style="fill:#000000;fill-opacity:1;fill-rule:nonzero;stroke:none"
       transform="matrix(1.3333333,0,0,-1.3333333,173.16667,300)"
       clip-path="url(#clipPath105)" />
    <path
       id="path106"
       d="m 0,0 c 0,-2.83 -2.574,-5.125 -5.75,-5.125 -3.176,0 -5.75,2.295 -5.75,5.125 0,2.83 2.574,5.125 5.75,5.125 C -2.574,5.125 0,2.83 0,0"
       style="fill:#000000;fill-opacity:1;fill-rule:nonzero;stroke:none"
       transform="matrix(1.3333333,0,0,-1.3333333,155.33333,311.66667)"
       clip-path="url(#clipPath107)" />
    <path
       id="path108"
       d="m 0,0 c 0,-4.763 -3.862,-8.625 -8.625,-8.625 -4.764,0 -8.625,3.862 -8.625,8.625 0,4.764 3.861,8.625 8.625,8.625 C -3.862,8.625 0,4.764 0,0"
       style="fill:#f8abad;fill-opacity:1;fill-rule:nonzero;stroke:none"
       transform="matrix(1.3333333,0,0,-1.3333333,197.03387,320.20053)"
       clip-path="url(#clipPath109)" />
    <path
       id="path110"
       d="M 0,0 C 0,6.614 2.008,9 6.312,9 11.659,9 12.753,5.595 12.753,0.709 8.534,0.483 4.219,0.226 0,0"
       style="fill:#6ed0f6;fill-opacity:1;fill-rule:nonzero;stroke:#000000;stroke-width:2.5;stroke-linecap:butt;stroke-linejoin:miter;stroke-miterlimit:10;stroke-dasharray:none;stroke-opacity:1"
       transform="matrix(1.3333333,0,0,-1.3333333,189.88547,263.11587)"
       clip-path="url(#clipPath111)" />
    <path
       id="path112"
       d="m 0,0 c -6.496,0 -11.781,6.407 -11.781,14.281 0,7.874 5.285,14.281 11.781,14.281 6.496,0 11.781,-6.407 11.781,-14.281 C 11.781,6.407 6.496,0 0,0"
       style="fill:#ed1d24;fill-opacity:1;fill-rule:nonzero;stroke:none"
       transform="matrix(1.3333333,0,0,-1.3333333,204,295.37493)"
       clip-path="url(#clipPath113)" />
    <path
       id="path114"
       d="m 0,0 c -7.202,0 -13.062,-6.98 -13.062,-15.562 0,-8.581 5.86,-15.561 13.062,-15.561 7.202,0 13.062,6.98 13.062,15.561 C 13.062,-6.98 7.202,0 0,0 m 0,-2.562 c 5.799,0 10.5,-5.82 10.5,-13 0,-7.179 -4.701,-13 -10.5,-13 -5.799,0 -10.5,5.821 -10.5,13 0,7.18 4.701,13 10.5,13"
       style="fill:#000000;fill-opacity:1;fill-rule:nonzero;stroke:none"
       transform="matrix(1.3333333,0,0,-1.3333333,204,255.58467)"
       clip-path="url(#clipPath115)" />
    <path
       id="path116"
       d="m 0,0 c 0,-5.316 -4.31,-9.625 -9.625,-9.625 -5.316,0 -9.625,4.309 -9.625,9.625 0,5.315 4.309,9.625 9.625,9.625 C -4.31,9.625 0,5.315 0,0"
       style="fill:#000000;fill-opacity:1;fill-rule:nonzero;stroke:none"
       transform="matrix(1.3333333,0,0,-1.3333333,144.9668,92.199867)"
       clip-path="url(#clipPath117)" />
    <path
       id="path118"
       d="m 0,0 c 0.703,-12.906 0.187,-29.5 -1.254,-36.742 3.007,-0.968 9.94,-1.21 13.754,-0.258 0,0 -0.781,6.844 -0.781,10.922 h 12.843 c 0,-6.235 -1.082,-12.669 -1.082,-12.669 3.445,-0.796 12.074,-0.954 14.438,1.03 l -0.984,10.919 14.41,0.892 c 0,-5.422 -0.837,-11.352 -0.837,-11.352 6.001,-1.851 12.188,-1.43 15.087,0.539 1.031,7.313 1.563,15.546 1.563,20.625 0,18.235 -4.579,25.032 -30.563,21.219 z"
       style="fill:#ffffff;fill-opacity:1;fill-rule:nonzero;stroke:#000000;stroke-width:2.5;stroke-linecap:butt;stroke-linejoin:miter;stroke-miterlimit:10;stroke-dasharray:none;stroke-opacity:1"
       transform="matrix(1.3333333,0,0,-1.3333333,37.7084,100.54173)"
       clip-path="url(#clipPath119)" />
    <path
       id="path120"
       d="m 0,0 c -6.203,0 -11.25,6.393 -11.25,14.25 0,7.857 5.047,14.25 11.25,14.25 6.203,0 11.25,-6.393 11.25,-14.25 C 11.25,6.393 6.203,0 0,0"
       style="fill:#ed1d24;fill-opacity:1;fill-rule:nonzero;stroke:none"
       transform="matrix(1.3333333,0,0,-1.3333333,23.333333,62.333333)"
       clip-path="url(#clipPath121)" />
    <path
       id="path122"
       d="m 0,0 c -6.893,0 -12.5,-6.953 -12.5,-15.5 0,-8.547 5.607,-15.5 12.5,-15.5 6.893,0 12.5,6.953 12.5,15.5 C 12.5,-6.953 6.893,0 0,0 m 0,-2.5 c 5.523,0 10,-5.82 10,-13 0,-7.18 -4.477,-13 -10,-13 -5.523,0 -10,5.82 -10,13 0,7.18 4.477,13 10,13"
       style="fill:#000000;fill-opacity:1;fill-rule:nonzero;stroke:none"
       transform="matrix(1.3333333,0,0,-1.3333333,23.333333,22.666667)"
       clip-path="url(#clipPath123)" />
    <path
       id="path124"
       d="m 0,0 c 0,-15.344 -8.891,-23.031 -35.508,-23.031 -23.18,0 -29.836,8.625 -29.836,20.812 0,9.094 6.766,9.219 9.586,8.953 0.753,-0.07 1.321,0.641 1.266,1.336 -0.342,4.321 -0.235,12.211 2.228,16.571 3.363,5.951 12.686,9.961 22.858,9.961 C -5.625,34.602 0,22.906 0,3.906 Z"
       style="fill:#ffffff;fill-opacity:1;fill-rule:nonzero;stroke:#000000;stroke-width:2.5;stroke-linecap:butt;stroke-linejoin:miter;stroke-miterlimit:10;stroke-dasharray:none;stroke-opacity:1"
       transform="matrix(1.3333333,0,0,-1.3333333,95.895867,75.041733)"
       clip-path="url(#clipPath125)" />
    <path
       id="path126"
       d="m 0,0 c 0,-4.004 -1.511,-7.25 -3.375,-7.25 -1.864,0 -3.375,3.246 -3.375,7.25 0,4.004 1.511,7.25 3.375,7.25 C -1.511,7.25 0,4.004 0,0"
       style="fill:#000000;fill-opacity:1;fill-rule:nonzero;stroke:none"
       transform="matrix(1.3333333,0,0,-1.3333333,38.833333,62.666667)"
       clip-path="url(#clipPath127)" />
    <path
       id="path128"
       d="m 0,0 c 0,-4.004 -1.511,-7.25 -3.375,-7.25 -1.864,0 -3.375,3.246 -3.375,7.25 0,4.004 1.511,7.25 3.375,7.25 C -1.511,7.25 0,4.004 0,0"
       style="fill:#000000;fill-opacity:1;fill-rule:nonzero;stroke:none"
       transform="matrix(1.3333333,0,0,-1.3333333,71.166667,62.666667)"
       clip-path="url(#clipPath129)" />
    <path
       id="path130"
       d="m 0,0 c 0,-2.831 -2.574,-5.125 -5.75,-5.125 -3.176,0 -5.75,2.294 -5.75,5.125 0,2.831 2.574,5.125 5.75,5.125 C -2.574,5.125 0,2.831 0,0"
       style="fill:#000000;fill-opacity:1;fill-rule:nonzero;stroke:none"
       transform="matrix(1.3333333,0,0,-1.3333333,28,76.666667)"
       clip-path="url(#clipPath131)" />
    <path
       id="path132"
       d="m 0,0 c 0,-4.763 -3.861,-8.625 -8.625,-8.625 -4.763,0 -8.625,3.862 -8.625,8.625 0,4.764 3.862,8.625 8.625,8.625 C -3.861,8.625 0,4.764 0,0"
       style="fill:#f8abad;fill-opacity:1;fill-rule:nonzero;stroke:none"
       transform="matrix(1.3333333,0,0,-1.3333333,86.366533,85.133467)"
       clip-path="url(#clipPath133)" />
    <path
       id="path134"
       d="m 0,0 c -3.444,-4.595 1.615,-6.062 1.615,-6.062 13.156,12.287 28.32,12.357 43.086,0.38 l 3.968,5.797 C 35.841,17.053 11.013,14.693 0,0"
       style="fill:#6ed0f6;fill-opacity:1;fill-rule:nonzero;stroke:#000000;stroke-width:2.5;stroke-linecap:butt;stroke-linejoin:miter;stroke-miterlimit:10;stroke-dasharray:none;stroke-opacity:1"
       transform="matrix(1.3333333,0,0,-1.3333333,27.7324,27.174533)"
       clip-path="url(#clipPath135)" />
    <path
       id="path136"
       d="m 0,0 c -6.203,0 -11.25,6.393 -11.25,14.25 0,7.857 5.047,14.25 11.25,14.25 6.203,0 11.25,-6.393 11.25,-14.25 C 11.25,6.393 6.203,0 0,0"
       style="fill:#ed1d24;fill-opacity:1;fill-rule:nonzero;stroke:none"
       transform="matrix(1.3333333,0,0,-1.3333333,100.66667,62.333333)"
       clip-path="url(#clipPath137)" />
    <path
       id="path138"
       d="m 0,0 c -6.893,0 -12.5,-6.953 -12.5,-15.5 0,-8.547 5.607,-15.5 12.5,-15.5 6.893,0 12.5,6.953 12.5,15.5 C 12.5,-6.953 6.893,0 0,0 m 0,-2.5 c 5.523,0 10,-5.82 10,-13 0,-7.18 -4.477,-13 -10,-13 -5.523,0 -10,5.82 -10,13 0,7.18 4.477,13 10,13"
       style="fill:#000000;fill-opacity:1;fill-rule:nonzero;stroke:none"
       transform="matrix(1.3333333,0,0,-1.3333333,100.66667,22.666667)"
       clip-path="url(#clipPath139)" />
  </g>
</svg>
