<?xml version="1.0" encoding="UTF-8" standalone="no"?>
<!-- Created with Inkscape (http://www.inkscape.org/) -->

<svg
   version="1.1"
   id="svg2"
   width="666.66669"
   height="858.29065"
   viewBox="0 0 666.66669 858.29065"
   sodipodi:docname="Barista on a Coffee Mug.ai"
   xmlns:inkscape="http://www.inkscape.org/namespaces/inkscape"
   xmlns:sodipodi="http://sodipodi.sourceforge.net/DTD/sodipodi-0.dtd"
   xmlns="http://www.w3.org/2000/svg"
   xmlns:svg="http://www.w3.org/2000/svg">
  <defs
     id="defs6">
    <clipPath
       clipPathUnits="userSpaceOnUse"
       id="clipPath16">
      <path
         d="M 0,643.719 H 500 V 0 H 0 Z"
         id="path14" />
    </clipPath>
  </defs>
  <sodipodi:namedview
     id="namedview4"
     pagecolor="#ffffff"
     bordercolor="#000000"
     borderopacity="0.25"
     inkscape:showpageshadow="2"
     inkscape:pageopacity="0.0"
     inkscape:pagecheckerboard="0"
     inkscape:deskcolor="#d1d1d1" />
  <g
     id="g8"
     inkscape:groupmode="layer"
     inkscape:label="Barista on a Coffee Mug"
     transform="matrix(1.3333333,0,0,-1.3333333,0,858.29067)">
    <g
       id="g10">
      <g
         id="g12"
         clip-path="url(#clipPath16)">
        <g
           id="g18"
           transform="translate(61.0555,96.4918)">
          <path
             d="m 0,0 46.697,8.19 c 0,0 0.365,33.121 -8.182,35.398 C 16.938,49.336 8.662,27.247 8.662,27.247 Z"
             style="fill:#ee1921;fill-opacity:1;fill-rule:nonzero;stroke:none"
             id="path20" />
        </g>
        <g
           id="g22"
           transform="translate(162.0884,66.3316)">
          <path
             d="m 0,0 -43.114,-30.83 c 0,0 -32.129,17.364 -39.807,24.119 -12.593,11.08 -17.505,28.486 -18.663,34.942 l 44.305,7.842 z"
             style="fill:#f9e65c;fill-opacity:1;fill-rule:nonzero;stroke:none"
             id="path24" />
        </g>
        <g
           id="g26"
           transform="translate(232.5946,52.7083)">
          <path
             d="m 0,0 -20.344,-45.516 c 0,0 -41.544,7.903 -51.343,10.828 -15.829,4.725 -37.704,10.199 -38.862,16.655 l 43.468,32.483 z"
             style="fill:#ee1921;fill-opacity:1;fill-rule:nonzero;stroke:none"
             id="path28" />
        </g>
        <g
           id="g30"
           transform="translate(334.3244,54.9132)">
          <path
             d="m 0,0 24.554,-41.264 c 0,0 -75.012,-11.43 -84.811,-8.504 -15.828,4.724 -57.666,-0.195 -58.825,6.26 l 17.352,41.303 z"
             style="fill:#f9e65c;fill-opacity:1;fill-rule:nonzero;stroke:none"
             id="path32" />
        </g>
        <g
           id="g34"
           transform="translate(391.9451,66.5742)">
          <path
             d="m 0,0 44.421,-31.033 c 0,0 -22.995,-10.395 -37.327,-14.174 -15.972,-4.213 -39.003,-12.126 -40.161,-5.67 l -24.554,42.09 z"
             style="fill:#ee1921;fill-opacity:1;fill-rule:nonzero;stroke:none"
             id="path36" />
        </g>
        <g
           id="g38"
           transform="translate(453.0049,106.2314)">
          <path
             d="m 0,0 44.626,-10.212 c 0,0 -13.38,-30.382 -25.042,-39.531 -10.237,-8.033 -33.648,-26.458 -34.806,-20.002 l -44.728,29.294 z"
             style="fill:#f9e65c;fill-opacity:1;fill-rule:nonzero;stroke:none"
             id="path40" />
        </g>
        <g
           id="g42"
           transform="translate(495.7141,98.7361)">
          <path
             d="m 0,0 -42.693,8.938 c 0,0 3.061,35.883 4.291,35.909 5.177,0.109 29.964,-23.034 29.964,-23.034 z"
             style="fill:#ee1921;fill-opacity:1;fill-rule:nonzero;stroke:none"
             id="path44" />
        </g>
        <g
           id="g46"
           transform="translate(457.2726,152.1047)">
          <path
             d="m 0,0 c -0.15,-2.991 -0.547,-5.926 -1.162,-8.787 20.245,-12.398 32.863,-27.021 35.175,-42.775 l -39.102,8.917 -0.923,-4.042 40.403,-9.214 c 0.008,-0.301 0.042,-0.599 0.042,-0.901 0,-22.043 -20.226,-42.157 -53.5,-57.489 l -49.573,33.931 -2.341,-3.427 47.469,-32.49 c -20.326,-8.806 -45.074,-15.909 -72.855,-20.684 l -24.912,43.596 -3.605,-2.058 24.138,-42.241 c -24.476,-3.951 -51.141,-6.146 -79.083,-6.146 -21.001,0 -41.273,1.248 -60.452,3.535 l 17.875,41.636 -3.811,1.637 -18.355,-42.755 c -34.23,4.401 -64.71,12.206 -89.1,22.427 l 41.824,30.109 -2.422,3.37 -43.865,-31.579 c -34.321,15.274 -55.384,35.533 -55.904,57.789 l 42.255,6.912 -0.668,4.09 -41.469,-6.783 c 1.461,15.433 12.862,29.822 31.618,42.176 -3.418,0.783 -6.593,1.884 -9.521,3.275 -19.442,-14.202 -30.562,-30.853 -30.562,-48.831 0,-53.441 97.759,-95.303 222.557,-95.303 124.798,0 222.556,41.862 222.556,95.303 C 42.727,-35.345 26.942,-15.763 0,0"
             style="fill:#000000;fill-opacity:1;fill-rule:nonzero;stroke:none"
             id="path48" />
        </g>
        <g
           id="g50"
           transform="translate(4.5148,263.1254)">
          <path
             d="M 0,0 C 0,63.31 45.743,117.916 96.859,121.555 V 68.27 C 70.521,64.009 55.044,35.447 55.044,-4.729 c 0,-40.166 15.486,-67.317 41.815,-71.588 L 96.151,-120.96 C 45.035,-117.321 0,-63.31 0,0"
             style="fill:#ffffff;fill-opacity:1;fill-rule:nonzero;stroke:none"
             id="path52" />
        </g>
        <g
           id="g54"
           transform="translate(450.7502,116.1258)">
          <path
             d="m 0,0 c -31.905,-71.349 -304.088,-83.918 -344.231,0 v 302.502 c 23.1,-26.227 91.414,-45.948 172.115,-45.948 80.702,0 149.016,19.957 172.116,46.184 z"
             style="fill:#ffffff;fill-opacity:1;fill-rule:nonzero;stroke:none"
             id="path56" />
        </g>
        <g
           id="g58"
           transform="translate(449.0146,117.3534)">
          <path
             d="m 0,0 c -31.583,-70.63 -301.022,-83.072 -340.76,0 v 298.752 c 22.867,-25.962 90.493,-44.785 170.38,-44.785 79.888,0 147.513,18.823 170.38,44.785 z m -440.72,145.768 c 0,63.31 40.545,115.004 91.662,118.643 v -46.014 c -26.339,-4.261 -46.908,-37.414 -46.908,-77.589 0,-40.167 20.579,-73.197 46.908,-77.468 V 27.134 c -51.116,3.639 -91.662,55.324 -91.662,118.634 m 270.34,236.478 c -98.68,0 -178.676,-28.715 -178.678,-64.138 v -45.403 c -55.616,-3.613 -99.957,-59.124 -99.957,-126.937 0,-67.813 44.341,-123.327 99.957,-126.94 V 0 c 0.003,-33.108 65.386,-68.898 181.347,-68.898 109.343,0 176.005,35.79 176.009,68.898 V 318.108 C 8.296,353.531 -71.7,382.246 -170.38,382.246"
             style="fill:#000000;fill-opacity:1;fill-rule:nonzero;stroke:none"
             id="path60" />
        </g>
        <g
           id="g62"
           transform="translate(239.9122,239.8401)">
          <path
             d="m 0,0 v -133.56 l 41.002,41.386 c 0.8,0.812 1.902,1.371 3.033,1.255 1.14,-0.004 2.229,-0.468 3.02,-1.284 l 40.04,-41.212 V 0 Z"
             style="fill:#ee1921;fill-opacity:1;fill-rule:nonzero;stroke:none"
             id="path64" />
        </g>
        <path
           d="m 273.358,140.288 h 23.034 v 94.839 h -23.034 z"
           style="fill:#ffffff;fill-opacity:1;fill-rule:nonzero;stroke:none"
           id="path66" />
        <g
           id="g68"
           transform="translate(326.0297,107.9205)">
          <path
             d="M 0,0 -27.565,28.373 V 129.281 H -54.744 V 30.539 L -85.14,-0.142 V 130.421 H 0 Z m -31.713,32.641 -7.428,7.646 c -0.773,0.798 -1.839,1.251 -2.952,1.255 -1.106,0.114 -2.183,-0.433 -2.965,-1.227 l -5.539,-5.59 v 90.409 h 18.884 z M 4.263,144.57 h -93.316 c -2.29,0 -4.382,-3.261 -4.382,-5.552 V -10.223 c 0,-1.68 1.014,-3.195 2.57,-3.835 1.553,-0.64 3.341,-0.284 4.524,0.915 l 44.199,44.617 43.317,-44.588 c 0.793,-0.819 1.875,-1.256 2.972,-1.256 0.527,0 1.053,0.101 1.56,0.304 1.563,0.636 2.588,2.154 2.588,3.843 v 150.068 c 0,2.29 -1.739,4.725 -4.032,4.725"
             style="fill:#000000;fill-opacity:1;fill-rule:nonzero;stroke:none"
             id="path70" />
        </g>
        <g
           id="g72"
           transform="translate(288.987,335.4607)">
          <path
             d="m 0,0 h -62.9 v -132.762 h 45.145 l -0.551,33.756 h 17.719 c 37.433,0 53.813,22.929 53.813,50.143 C 53.226,-23.474 29.656,0 0,0"
             style="fill:#f9e65c;fill-opacity:1;fill-rule:nonzero;stroke:none"
             id="path74" />
        </g>
        <g
           id="g76"
           transform="translate(305.5683,283.3856)">
          <path
             d="M 0,0 C 1.559,1.669 1.466,4.281 -0.198,5.844 -1.867,7.414 -4.488,7.331 -6.055,5.67 -6.76,4.919 -23.572,-12.398 -43.936,4.921 c -1.746,1.486 -4.36,1.27 -5.847,-0.472 -1.484,-1.746 -1.271,-4.362 0.472,-5.846 8.368,-7.116 16.602,-9.694 23.989,-9.694 11.3,0 20.604,6.036 25.322,11.091 m -7.595,34.071 c -4.142,0 -7.5,-3.358 -7.5,-7.5 0,-4.143 3.358,-7.501 7.5,-7.501 4.143,0 7.501,3.358 7.501,7.501 0,4.142 -3.358,7.5 -7.501,7.5 m -33.828,0 c -4.143,0 -7.501,-3.358 -7.501,-7.5 0,-4.143 3.358,-7.501 7.501,-7.501 4.142,0 7.5,3.358 7.5,7.501 0,4.142 -3.358,7.5 -7.5,7.5 m 24.72,24.622 h -61.312 c -4.581,0 -8.294,-3.713 -8.294,-8.295 V -79.01 c 0,-4.581 3.713,-8.294 8.294,-8.294 l 41.317,-0.001 c 2.199,0 4.309,0.874 5.865,2.43 1.555,1.555 2.429,3.665 2.429,5.865 v 24.609 h 11.129 c 36.903,0 60.748,22.44 60.748,57.17 0,30.314 -27.557,55.924 -60.176,55.924 m 0,-8.295 c 28.907,0 51.881,-22.88 51.881,-47.629 0,-26.526 -15.966,-48.876 -52.453,-48.876 H -36.698 V -79.01 H -78.015 V 50.398 Z"
             style="fill:#000000;fill-opacity:1;fill-rule:nonzero;stroke:none"
             id="path78" />
        </g>
        <g
           id="g80"
           transform="translate(209.3741,191.7037)">
          <path
             d="M 0,0 C -0.428,1.491 -1.706,2.485 -3.255,2.533 L -13.68,2.859 c -7.561,0.237 -14.587,4.131 -18.795,10.418 l -5.801,8.668 c -0.863,1.288 -2.383,1.847 -3.873,1.418 -1.491,-0.426 -2.486,-1.705 -2.535,-3.255 L -45.009,9.684 C -45.246,2.123 -49.141,-4.903 -55.428,-9.111 l -8.667,-5.801 c -1.289,-0.862 -1.845,-2.382 -1.419,-3.872 0.428,-1.491 1.705,-2.487 3.256,-2.535 l 10.425,-0.327 c 7.561,-0.236 14.587,-4.13 18.795,-10.417 l 5.801,-8.668 c 0.669,-1.001 1.735,-1.56 2.876,-1.56 0.329,0 0.663,0.046 0.997,0.142 1.49,0.427 2.485,1.705 2.534,3.254 l 0.326,10.425 c 0.236,7.562 4.131,14.588 10.418,18.795 l 8.668,5.802 C -0.129,-3.011 0.427,-1.49 0,0"
             style="fill:#000000;fill-opacity:1;fill-rule:nonzero;stroke:none"
             id="path82" />
        </g>
        <g
           id="g84"
           transform="translate(170.8954,202.2653)">
          <path
             d="m 0,0 0.602,-0.899 c 5.371,-8.026 14.341,-12.998 23.993,-13.3 l 1.081,-0.034 -0.898,-0.601 c -8.026,-5.371 -12.998,-14.341 -13.3,-23.994 l -0.034,-1.081 -0.602,0.899 c -5.371,8.026 -14.341,12.998 -23.994,13.3 l -1.081,0.034 0.899,0.601 c 8.026,5.372 12.998,14.341 13.3,23.994 z"
             style="fill:#f9e65c;fill-opacity:1;fill-rule:nonzero;stroke:none"
             id="path86" />
        </g>
        <g
           id="g88"
           transform="translate(420.9221,337.0475)">
          <path
             d="M 0,0 C -0.428,1.491 -1.706,2.485 -3.255,2.533 L -13.68,2.859 c -7.561,0.237 -14.587,4.131 -18.795,10.418 l -5.801,8.668 c -0.863,1.288 -2.383,1.847 -3.873,1.418 -1.491,-0.426 -2.486,-1.705 -2.535,-3.255 L -45.009,9.684 C -45.246,2.123 -49.141,-4.903 -55.428,-9.111 l -8.667,-5.801 c -1.289,-0.862 -1.845,-2.382 -1.419,-3.872 0.428,-1.491 1.705,-2.487 3.256,-2.535 l 10.425,-0.327 c 7.561,-0.236 14.587,-4.13 18.795,-10.417 l 5.801,-8.668 c 0.669,-1.001 1.735,-1.56 2.876,-1.56 0.329,0 0.663,0.046 0.997,0.142 1.49,0.427 2.485,1.705 2.534,3.254 l 0.326,10.425 c 0.236,7.562 4.131,14.588 10.418,18.795 l 8.668,5.802 C -0.129,-3.011 0.427,-1.49 0,0"
             style="fill:#000000;fill-opacity:1;fill-rule:nonzero;stroke:none"
             id="path90" />
        </g>
        <g
           id="g92"
           transform="translate(382.4435,347.6091)">
          <path
             d="m 0,0 0.602,-0.899 c 5.371,-8.026 14.341,-12.998 23.993,-13.3 l 1.081,-0.034 -0.898,-0.601 c -8.026,-5.371 -12.998,-14.341 -13.3,-23.994 l -0.034,-1.081 -0.602,0.899 c -5.371,8.026 -14.341,12.998 -23.994,13.3 l -1.081,0.034 0.899,0.601 c 8.026,5.372 12.998,14.341 13.3,23.994 z"
             style="fill:#f9e65c;fill-opacity:1;fill-rule:nonzero;stroke:none"
             id="path94" />
        </g>
        <g
           id="g96"
           transform="translate(252.5483,496.6505)">
          <path
             d="m 0,0 c 0,-39.449 -26.924,-71.428 -60.137,-71.428 -33.213,0 -60.137,31.979 -60.137,71.428 0,39.449 26.924,71.428 60.137,71.428 C -26.924,71.428 0,39.449 0,0"
             style="fill:#ee1921;fill-opacity:1;fill-rule:nonzero;stroke:none"
             id="path98" />
        </g>
        <g
           id="g100"
           transform="translate(353.7543,425.2226)">
          <path
             d="m 0,0 c -33.213,0 -60.137,31.979 -60.137,71.428 0,39.448 26.924,71.428 60.137,71.428 33.213,0 60.137,-31.98 60.137,-71.428 C 60.137,31.979 33.213,0 0,0"
             style="fill:#ee1921;fill-opacity:1;fill-rule:nonzero;stroke:none"
             id="path102" />
        </g>
        <g
           id="g104"
           transform="translate(375.5726,568.8187)">
          <path
             d="m 0,0 -37.72,-0.74 c -13.23,15.86 -73.381,52.147 -121.493,-1.007 l -45.536,-0.419 C -193.882,49.217 -66.305,133.004 0,0"
             style="fill:#6dd0f5;fill-opacity:1;fill-rule:nonzero;stroke:none"
             id="path106" />
        </g>
        <g
           id="g108"
           transform="translate(353.7543,429.207)">
          <path
             d="m 0,0 c -31.36,0 -56.782,30.195 -56.782,67.444 0,37.248 25.422,67.443 56.782,67.443 31.36,0 56.782,-30.195 56.782,-67.443 C 56.782,30.195 31.36,0 0,0 M -104.561,67.444 C -104.561,30.195 -129.983,0 -161.343,0 c -31.36,0 -56.782,30.195 -56.782,67.444 0,37.248 25.422,67.443 56.782,67.443 31.36,0 56.782,-30.195 56.782,-67.443 m 134.23,67.327 c -23.303,61.044 -73.622,81.202 -113.29,79.659 -47.404,-1.869 -87.727,-32.493 -101.287,-76.466 -24.255,-11.019 -41.512,-38.438 -41.512,-70.52 0,-41.763 29.194,-75.739 65.077,-75.739 35.884,0 65.077,33.976 65.077,75.739 0,41.762 -29.193,75.738 -65.077,75.738 -4.682,0 -9.241,-0.607 -13.646,-1.706 14.195,37.404 49.994,63.021 91.694,64.665 34.923,1.403 78.849,-15.563 101.793,-66.12 -5.87,2.03 -12.069,3.161 -18.498,3.161 -35.884,0 -65.077,-33.976 -65.077,-75.738 0,-41.763 29.193,-75.739 65.077,-75.739 35.883,0 65.077,33.976 65.077,75.739 0,29.319 -14.417,54.746 -35.408,67.327"
             style="fill:#000000;fill-opacity:1;fill-rule:nonzero;stroke:none"
             id="path110" />
        </g>
        <g
           id="g112"
           transform="translate(273.1982,590.6121)">
          <path
             d="m 0,0 c -71.826,0 -76.038,-88.605 -76.16,-92.344 l -0.786,-2.623 c -16.156,-15.595 -23.631,-31.507 -17.917,-45.656 10.5,-25.998 59.511,-45.713 94.748,-45.713 62.791,0 93.157,25.829 99.609,47.957 4.945,16.96 -3.836,34.102 -20.827,44.932 l -1.899,3.896 c 0.036,0.409 5.63,41.165 -17.861,67.017 C 45.833,-8.143 24.7,0 0,0"
             style="fill:#ffffff;fill-opacity:1;fill-rule:nonzero;stroke:none"
             id="path114" />
        </g>
        <g
           id="g116"
           transform="translate(312.6096,378.4185)">
          <path
             d="M 0,0 -80.948,1.997 -73.27,26.448 -5.612,26.33 Z"
             style="fill:#ffffff;fill-opacity:1;fill-rule:nonzero;stroke:none"
             id="path118" />
        </g>
        <g
           id="g120"
           transform="translate(371.3955,452.1112)">
          <path
             d="m 0,0 c -6.452,-22.128 -35.718,-45.775 -98.51,-45.775 -35.236,0 -81.813,18.116 -92.313,44.114 -5.577,13.809 0.485,29.621 15.796,44.869 0.716,0.713 1.165,1.634 1.224,2.643 0.722,12.44 7.988,91.692 75.589,91.692 24.7,0 43.857,-7.296 56.931,-21.686 20.404,-22.456 20.185,-57.982 19.752,-67.198 -0.067,-1.422 0.63,-2.72 1.799,-3.533 C -3.958,34.148 4.754,16.303 0,0 m -13.001,50.67 c 0.502,9.839 0.587,45.708 -22.102,70.721 -14.714,16.221 -35.949,24.447 -63.111,24.447 -74.025,0 -82.875,-84.654 -83.798,-97.848 -22.258,-22.14 -21.306,-40.866 -16.502,-52.757 11.911,-29.491 61.325,-49.303 100.004,-49.303 67.38,0 99.182,26.731 106.477,51.749 5.714,19.611 -2.495,40.164 -20.968,52.991"
             style="fill:#000000;fill-opacity:1;fill-rule:nonzero;stroke:none"
             id="path122" />
        </g>
        <g
           id="g124"
           transform="translate(236.8722,406.5203)">
          <path
             d="m 0,0 c 0,-21.767 -18.568,-39.413 -41.474,-39.413 -22.905,0 -41.473,17.646 -41.473,39.413 0,21.767 18.568,39.413 41.473,39.413 C -18.568,39.413 0,21.767 0,0"
             style="fill:#ffffff;fill-opacity:1;fill-rule:nonzero;stroke:none"
             id="path126" />
        </g>
        <g
           id="g128"
           transform="translate(389.9453,406.5203)">
          <path
             d="m 0,0 c 0,-21.767 -18.568,-39.413 -41.474,-39.413 -22.905,0 -41.473,17.646 -41.473,39.413 0,21.767 18.568,39.413 41.473,39.413 C -18.568,39.413 0,21.767 0,0"
             style="fill:#ffffff;fill-opacity:1;fill-rule:nonzero;stroke:none"
             id="path130" />
        </g>
        <g
           id="g132"
           transform="translate(276.9907,371.3202)">
          <path
             d="m 0,0 c -16.762,0 -42.376,1.3 -53.479,3.072 l 5.395,10.288 C -25.76,9.371 41.056,11.436 41.72,11.499 l 0.802,-9.67 C 40.886,1.669 24.135,0 0,0"
             style="fill:#000000;fill-opacity:1;fill-rule:nonzero;stroke:none"
             id="path134" />
        </g>
        <g
           id="g136"
           transform="translate(195.3985,450.9602)">
          <path
             d="m 0,0 c -25.546,0 -46.33,-19.936 -46.33,-44.44 0,-24.504 20.784,-44.44 46.33,-44.44 25.546,0 46.33,19.936 46.33,44.44 C 46.33,-19.936 25.546,0 0,0 m 0,-8.295 c 21.006,0 38.035,-16.183 38.035,-36.145 0,-19.962 -17.029,-36.145 -38.035,-36.145 -21.006,0 -38.035,16.183 -38.035,36.145 0,19.962 17.029,36.145 38.035,36.145"
             style="fill:#000000;fill-opacity:1;fill-rule:nonzero;stroke:none"
             id="path138" />
        </g>
        <g
           id="g140"
           transform="translate(348.4716,450.9602)">
          <path
             d="m 0,0 c -25.546,0 -46.33,-19.936 -46.33,-44.44 0,-24.504 20.784,-44.44 46.33,-44.44 25.546,0 46.33,19.936 46.33,44.44 C 46.33,-19.936 25.546,0 0,0 m 0,-8.295 c 21.006,0 38.035,-16.183 38.035,-36.145 0,-19.962 -17.029,-36.145 -38.035,-36.145 -21.006,0 -38.035,16.183 -38.035,36.145 0,19.962 17.029,36.145 38.035,36.145"
             style="fill:#000000;fill-opacity:1;fill-rule:nonzero;stroke:none"
             id="path142" />
        </g>
        <g
           id="g144"
           transform="translate(228.2296,472.6977)">
          <path
             d="m 0,0 c 0,-4.546 -7.427,-8.232 -16.589,-8.232 -9.163,0 -16.59,3.686 -16.59,8.232 0,4.546 7.427,8.232 16.59,8.232 C -7.427,8.232 0,4.546 0,0"
             style="fill:#f7acae;fill-opacity:1;fill-rule:nonzero;stroke:none"
             id="path146" />
        </g>
        <g
           id="g148"
           transform="translate(356.0254,472.6977)">
          <path
             d="m 0,0 c 0,-4.546 -7.427,-8.232 -16.589,-8.232 -9.163,0 -16.59,3.686 -16.59,8.232 0,4.546 7.427,8.232 16.59,8.232 C -7.427,8.232 0,4.546 0,0"
             style="fill:#f7acae;fill-opacity:1;fill-rule:nonzero;stroke:none"
             id="path150" />
        </g>
        <g
           id="g152"
           transform="translate(211.6402,484.5524)">
          <path
             d="m 0,0 c -11.22,0 -19.68,-5.096 -19.68,-11.855 0,-6.758 8.46,-11.855 19.68,-11.855 11.22,0 19.68,5.097 19.68,11.855 C 19.68,-5.096 11.22,0 0,0 m 0,-4.147 c 8.579,0 15.533,-3.451 15.533,-7.708 0,-4.256 -6.954,-7.707 -15.533,-7.707 -8.579,0 -15.533,3.451 -15.533,7.707 0,4.257 6.954,7.708 15.533,7.708"
             style="fill:#000000;fill-opacity:1;fill-rule:nonzero;stroke:none"
             id="path154" />
        </g>
        <g
           id="g156"
           transform="translate(339.436,484.5524)">
          <path
             d="m 0,0 c -11.22,0 -19.68,-5.096 -19.68,-11.855 0,-6.758 8.46,-11.855 19.68,-11.855 11.22,0 19.68,5.097 19.68,11.855 C 19.68,-5.096 11.22,0 0,0 m 0,-4.147 c 8.578,0 15.533,-3.451 15.533,-7.708 0,-4.256 -6.955,-7.707 -15.533,-7.707 -8.579,0 -15.533,3.451 -15.533,7.707 0,4.257 6.954,7.708 15.533,7.708"
             style="fill:#000000;fill-opacity:1;fill-rule:nonzero;stroke:none"
             id="path158" />
        </g>
        <g
           id="g160"
           transform="translate(303.2431,477.9442)">
          <path
             d="m 0,0 c 0,-9.307 -12.049,-16.852 -26.912,-16.852 -14.863,0 -26.912,7.545 -26.912,16.852 0,9.307 12.049,16.852 26.912,16.852 C -12.049,16.852 0,9.307 0,0"
             style="fill:#000000;fill-opacity:1;fill-rule:nonzero;stroke:none"
             id="path162" />
        </g>
        <g
           id="g164"
           transform="translate(245.2541,536.8597)">
          <path
             d="m 0,0 c -4.799,0.252 -9.175,-8.827 -9.775,-20.276 -0.6,-11.45 2.803,-20.936 7.602,-21.188 4.799,-0.251 9.175,8.827 9.775,20.277 C 8.202,-9.737 4.799,-0.251 0,0"
             style="fill:#000000;fill-opacity:1;fill-rule:nonzero;stroke:none"
             id="path166" />
        </g>
        <g
           id="g168"
           transform="translate(303.6933,536.8597)">
          <path
             d="m 0,0 c 4.799,0.252 9.175,-8.827 9.775,-20.276 0.6,-11.45 -2.803,-20.936 -7.602,-21.188 -4.799,-0.251 -9.175,8.827 -9.775,20.277 C -8.202,-9.737 -4.799,-0.251 0,0"
             style="fill:#000000;fill-opacity:1;fill-rule:nonzero;stroke:none"
             id="path170" />
        </g>
      </g>
    </g>
  </g>
</svg>
