<?xml version="1.0" encoding="UTF-8" standalone="no"?>
<!-- Created with Inkscape (http://www.inkscape.org/) -->

<svg
   version="1.1"
   id="svg2"
   width="110.92027"
   height="109.06787"
   viewBox="0 0 110.92027 109.06787"
   sodipodi:docname="Barista Pog.ai"
   xmlns:inkscape="http://www.inkscape.org/namespaces/inkscape"
   xmlns:sodipodi="http://sodipodi.sourceforge.net/DTD/sodipodi-0.dtd"
   xmlns="http://www.w3.org/2000/svg"
   xmlns:svg="http://www.w3.org/2000/svg">
  <defs
     id="defs6">
    <clipPath
       clipPathUnits="userSpaceOnUse"
       id="clipPath16">
      <path
         d="M 0,81.801 H 83.19 V 0 H 0 Z"
         id="path14" />
    </clipPath>
  </defs>
  <sodipodi:namedview
     id="namedview4"
     pagecolor="#ffffff"
     bordercolor="#000000"
     borderopacity="0.25"
     inkscape:showpageshadow="2"
     inkscape:pageopacity="0.0"
     inkscape:pagecheckerboard="0"
     inkscape:deskcolor="#d1d1d1" />
  <g
     id="g8"
     inkscape:groupmode="layer"
     inkscape:label="Barista Pog"
     transform="matrix(1.3333333,0,0,-1.3333333,0,109.06787)">
    <g
       id="g10">
      <g
         id="g12"
         clip-path="url(#clipPath16)">
        <g
           id="g18"
           transform="translate(66.7835,39.0923)">
          <path
             d="m 0,0 c -0.002,1.152 -0.039,2.303 -0.114,3.453 -1.397,0.816 -2.77,1.771 -3.802,3.026 -2.366,2.76 -3.704,6.347 -4.02,9.948 -0.078,1.966 -0.082,4.209 0.455,5.883 -3.239,2.18 -6.953,3.571 -10.74,4.449 -2.923,0.714 -5.928,1.07 -8.933,1.148 -7.19,0.195 -14.584,-1.466 -20.612,-5.504 -1.055,-0.697 -2.09,-1.473 -2.814,-2.529 -1.612,-2.246 -2.399,-4.963 -2.847,-7.661 -0.607,-3.441 -0.538,-6.873 -0.38,-10.35 0.123,-2.734 -1.962,-1.767 -3.016,-1.729 -1.856,0.069 -3.593,-1.214 -5.212,-2.194 -1.713,-0.995 -2.621,-2.975 -2.775,-4.893 -0.264,-1.905 0.011,-3.828 0.184,-5.731 0.375,-3.5 1.475,-7.137 4.091,-9.629 2.444,-2.173 5.436,-3.67 8.541,-4.648 2.727,-0.905 5.554,-1.434 8.4,-1.794 v -4.169 c 0,-2.089 1.694,-3.782 3.782,-3.782 h 11.558 c 2.088,0 3.782,1.693 3.782,3.782 v 4.097 c 4.631,0.448 9.278,1.233 13.545,3.146 3.198,1.459 5.983,3.819 7.833,6.819 1.089,1.823 2.192,3.734 2.455,5.878 0.4,2.885 0.639,5.796 0.644,8.708 C 0.114,-2.853 0.098,-1.421 0,0"
             style="fill:#ffffff;fill-opacity:1;fill-rule:nonzero;stroke:none"
             id="path20" />
        </g>
        <g
           id="g22"
           transform="translate(60.2121,24.8624)">
          <path
             d="m 0,0 c 0,-4.854 -3.935,-8.789 -8.789,-8.789 -4.854,0 -8.789,3.935 -8.789,8.789 0,4.854 3.935,8.789 8.789,8.789 C -3.935,8.789 0,4.854 0,0"
             style="fill:#f7acae;fill-opacity:1;fill-rule:nonzero;stroke:none"
             id="path24" />
        </g>
        <g
           id="g26"
           transform="translate(24.9194,75.9628)">
          <path
             d="m 0,0 c 3.716,2.215 9.781,3.408 14.093,3.665 1.732,-0.043 4.75,0.057 6.47,-0.196 5.806,-0.478 10.589,-2.853 14.999,-6.754 1.269,-1.198 1.692,-2.605 2.631,-4.084 -1.08,-0.998 -2.145,-2.861 -2.827,-4.162 -5.175,3.515 -11.324,6.466 -17.513,7.617 -2.109,0.395 -3.946,0.417 -6.086,0.275 -6.501,-0.651 -12.239,-3.563 -17.526,-7.251 -0.715,-0.431 -1.488,-1.232 -2.278,-1.492 -0.453,0.477 -1.636,1.347 -1.596,2.042 0.379,1.489 0.985,3.128 2.041,4.162 C -5.298,-4.084 -2.735,-1.515 0,0"
             style="fill:#6dd0f5;fill-opacity:1;fill-rule:nonzero;stroke:none"
             id="path28" />
        </g>
        <g
           id="g30"
           transform="translate(9.8244,69.5958)">
          <path
             d="M 0,0 C 1.656,0.676 3.932,0.486 5.658,0.078 5.032,-1.082 4.945,-1.92 5.01,-3.299 5.055,-5.187 5.766,-7.014 7.072,-8.149 5.452,-9.511 4.6,-11.398 3.76,-13.319 2.331,-16.891 1.776,-20.224 1.666,-24.051 c -0.033,-0.77 -0.44,-1.592 -0.555,-2.356 -1.271,0.418 -2.535,0.949 -3.565,1.826 -2.408,1.949 -3.92,4.838 -4.556,7.839 -0.906,4.054 -0.329,8.475 1.794,12.067 C -4.031,-2.623 -2.211,-0.894 0,0"
             style="fill:#ee1921;fill-opacity:1;fill-rule:nonzero;stroke:none"
             id="path32" />
        </g>
        <g
           id="g34"
           transform="translate(69.4481,70.0974)">
          <path
             d="m 0,0 c 1.698,0.198 3.469,-0.023 4.982,-0.856 3.286,-1.669 5.325,-5.097 6.162,-8.592 0.802,-3.241 0.598,-6.701 -0.502,-9.846 -0.986,-2.632 -2.664,-5.121 -5.115,-6.579 -1.889,-1.15 -4.243,-1.565 -6.387,-0.964 -2.825,0.755 -5.063,2.942 -6.426,5.465 -2.007,3.745 -2.455,8.266 -1.338,12.354 0.809,2.917 2.401,5.738 4.924,7.496 1.123,0.727 2.36,1.339 3.7,1.522"
             style="fill:#ee1921;fill-opacity:1;fill-rule:nonzero;stroke:none"
             id="path36" />
        </g>
        <g
           id="g38"
           transform="translate(80.6431,56.5755)">
          <path
             d="m 0,0 c 0,7.192 -4.473,13.022 -9.991,13.022 -5.517,0 -9.99,-5.83 -9.99,-13.022 0,-7.192 4.473,-13.022 9.99,-13.022 C -4.473,-13.022 0,-7.192 0,0 m -15.098,-14.174 c -1.348,0.788 -2.673,1.709 -3.669,2.92 -2.284,2.665 -3.575,6.127 -3.88,9.603 -0.076,1.897 -0.08,4.062 0.438,5.677 -3.126,2.105 -6.71,3.447 -10.366,4.295 -2.821,0.689 -5.721,1.032 -8.622,1.108 -6.94,0.188 -14.076,-1.415 -19.894,-5.313 -1.019,-0.672 -2.018,-1.422 -2.716,-2.44 -1.556,-2.168 -2.316,-4.791 -2.749,-7.395 -0.586,-3.321 -0.519,-6.633 -0.367,-9.99 0.12,-2.639 -1.68,-2.711 -2.697,-2.674 -1.792,0.066 -3.681,-0.167 -5.244,-1.113 -1.653,-0.96 -2.53,-2.871 -2.678,-4.722 -0.255,-1.839 0.01,-3.695 0.177,-5.532 0.362,-3.378 1.424,-6.888 3.948,-9.294 2.36,-2.097 5.248,-3.541 8.245,-4.486 2.686,-0.892 5.849,-1.452 8.654,-1.799 v -4.465 c 0,-2.43 1.977,-4.407 4.407,-4.407 h 8.437 c 2.429,0 4.406,1.977 4.406,4.407 v 4.415 c 5.003,0.439 9.528,1.199 13.733,3.085 3.087,1.408 9.004,5.718 9.93,12.255 0.395,2.784 0.631,8.988 0.507,15.865 M -67.668,0.18 c 0.77,1.856 1.838,3.609 3.391,4.915 -1.299,1.012 -2.767,2.21 -2.913,4.152 -0.065,0.868 0.483,2.266 1.382,3.522 -1.44,0.329 -3.557,0.316 -5.022,-0.284 -2.115,-0.868 -3.864,-2.515 -4.999,-4.481 -2.036,-3.443 -2.589,-7.681 -1.72,-11.567 0.61,-2.877 2.519,-7.691 7.784,-9.265 0.111,0.731 -0.442,6.881 2.097,13.008 m 26.108,13.582 c -2.122,0.058 -7.276,-0.35 -12.94,-3.565 0,0 4.149,1.666 11.603,1.886 4.834,0.142 10.763,-0.798 14.46,-2.167 -7.134,3.873 -13.123,3.846 -13.123,3.846 M -64.67,8.72 c 0.152,-0.412 0.462,-0.849 0.798,-1.203 0.693,0.437 9.726,8.016 19.811,8.89 2.931,0.179 6.191,-0.161 8.311,-0.737 6.075,-1.65 10.027,-3.642 15.203,-7.158 0.682,1.301 1.563,2.528 2.643,3.526 -0.938,1.478 -6.929,10.35 -22.99,10.458 -13.606,0 -21.92,-9.895 -23.275,-11.813 -0.403,-0.569 -0.746,-1.3 -0.501,-1.963 M 1.717,-5.737 c -1.153,-3.696 -3.773,-7.172 -7.353,-8.786 -1.448,-0.652 -2.633,-0.828 -4.126,-0.882 -0.801,-0.019 -1.939,0.124 -2.456,0.258 0,0 0.142,-10.672 -0.89,-16.003 -1.144,-5.908 -5.17,-11.718 -14.857,-14.922 -2.854,-0.944 -5.889,-1.444 -8.928,-1.8 v -1.922 c 0,-3.74 -3.042,-6.782 -6.781,-6.782 h -8.437 c -3.739,0 -6.782,3.042 -6.782,6.782 v 2.134 c -4.878,0.677 -11.752,2.516 -16.206,6.581 -1.633,1.563 -2.864,3.519 -3.645,5.639 -1.146,2.974 -1.564,6.081 -1.528,9.347 0.033,1.384 0.144,2.663 0.463,4.022 0.31,1.334 1.028,2.512 1.926,3.527 1.072,1.149 2.614,2.017 4.156,2.375 1.215,0.283 2.774,0.45 3.894,0.432 0.323,-0.005 0.439,0.308 0.121,0.37 -4.843,0.949 -7.503,4.279 -8.736,6.618 -3.338,6.015 -2.868,14.063 1.399,19.511 2.201,2.85 5.739,4.713 9.37,4.623 1.469,-0.067 2.501,-0.345 3.436,-0.814 1.674,1.786 9.356,10.171 21.634,10.622 20.105,0.739 26.826,-11.501 26.826,-11.501 1.826,1.232 3.774,1.628 5.679,1.669 2.783,0.021 4.976,-0.838 7.021,-2.518 C 0.27,10.134 2.338,5.801 2.506,1.121 2.641,-1.19 2.461,-3.533 1.717,-5.737 m -45.919,-32.839 h -7.381 c -1.828,0 -3.31,-1.482 -3.31,-3.309 v -7.382 c 0,-1.827 1.482,-3.309 3.31,-3.309 h 7.381 c 1.828,0 3.309,1.482 3.309,3.309 v 7.382 c 0,1.827 -1.481,3.309 -3.309,3.309 m -26.099,18.5 c -3.169,0 -5.738,-2.338 -5.738,-5.222 0,-2.885 2.569,-5.223 5.738,-5.223 3.17,0 5.739,2.338 5.739,5.223 0,2.884 -2.569,5.222 -5.739,5.222 m 10.504,14.07 c -2.209,0 -4,-3.906 -4,-8.724 0,-4.818 1.791,-8.724 4,-8.724 2.21,0 4,3.906 4,8.724 0,4.818 -1.79,8.724 -4,8.724 m 28.184,-8.724 c 0,-4.818 -1.79,-8.724 -4,-8.724 -2.209,0 -4,3.906 -4,8.724 0,4.818 1.791,8.724 4,8.724 2.21,0 4,-3.906 4,-8.724"
             style="fill:#000000;fill-opacity:1;fill-rule:nonzero;stroke:none"
             id="path40" />
        </g>
      </g>
    </g>
  </g>
</svg>
