<?xml version="1.0" encoding="UTF-8" standalone="no"?>
<svg
   xmlns:dc="http://purl.org/dc/elements/1.1/"
   xmlns:cc="http://creativecommons.org/ns#"
   xmlns:rdf="http://www.w3.org/1999/02/22-rdf-syntax-ns#"
   xmlns:svg="http://www.w3.org/2000/svg"
   xmlns="http://www.w3.org/2000/svg"
   xmlns:sodipodi="http://sodipodi.sourceforge.net/DTD/sodipodi-0.dtd"
   xmlns:inkscape="http://www.inkscape.org/namespaces/inkscape"
   version="1.1"
   id="svg2"
   xml:space="preserve"
   width="137.88933"
   height="141.88268"
   viewBox="0 0 137.88933 141.88268"
   sodipodi:docname="Barista Roll.ai"><metadata
     id="metadata8"><rdf:RDF><cc:Work
         rdf:about=""><dc:format>image/svg+xml</dc:format><dc:type
           rdf:resource="http://purl.org/dc/dcmitype/StillImage" /></cc:Work></rdf:RDF></metadata><defs
     id="defs6"><clipPath
       clipPathUnits="userSpaceOnUse"
       id="clipPath18"><path
         d="M 0,106.412 H 103.417 V 0 H 0 Z"
         id="path16" /></clipPath></defs><sodipodi:namedview
     pagecolor="#ffffff"
     bordercolor="#666666"
     borderopacity="1"
     objecttolerance="10"
     gridtolerance="10"
     guidetolerance="10"
     inkscape:pageopacity="0"
     inkscape:pageshadow="2"
     inkscape:window-width="640"
     inkscape:window-height="480"
     id="namedview4" /><g
     id="g10"
     inkscape:groupmode="layer"
     inkscape:label="Barista Roll"
     transform="matrix(1.3333333,0,0,-1.3333333,0,141.88267)"><g
       id="g12"><g
         id="g14"
         clip-path="url(#clipPath18)"><g
           id="g20"
           transform="translate(23.0673,59.7437)"><path
             d="M 0,0 H 5.846 C 5.122,-7.525 6.122,-11.141 7.291,-12.826 l -0.97,-0.883 1.196,-4.035 -2.841,-0.974 C 0.34,-11.758 0.246,-5.021 0,0"
             style="fill:#ffffff;fill-opacity:1;fill-rule:nonzero;stroke:none"
             id="path22" /></g><g
           id="g24"
           transform="translate(82.1415,26.6343)"><path
             d="m 0,0 c -2.522,-4.273 -6.291,-7.67 -10.39,-10.398 -5.339,-3.536 -11.352,-5.977 -17.544,-7.552 -8.372,-2.107 -17.129,-2.612 -25.695,-1.612 0.141,0.68 0.216,1.385 0.216,2.107 0,5.699 -4.62,10.319 -10.319,10.319 -2.434,0 -3.377,-1.561 -5.142,-2.969 -8.534,10.612 -11.412,30.07 -11.616,30.793 l 17.379,2.215 c 0.144,-3.268 0.407,-7.042 1.054,-10.253 0.745,-3.5 1.158,-5.283 2.421,-8.629 l 1.564,-0.648 c -0.646,1.821 -1.275,3.65 -1.906,5.479 0.966,1.416 2.134,2.761 3.67,3.573 1.373,0.751 3.997,1.708 5.53,1.991 0,0 1.727,-5.329 2.62,-7.832 1.32,-3.565 2.61,-5.865 4.614,-9.085 l 1.082,0.37 c -2.082,3.163 -2.532,5.576 -3.282,7.39 -1.022,2.486 -1.686,5.1 -2.708,7.587 -0.565,1.47 -1.174,2.925 -1.782,4.379 -0.213,0.52 -0.49,1.015 -0.627,1.563 3.571,0.767 7.127,1.607 10.69,2.415 1.472,0.31 2.926,0.72 4.41,0.972 0.686,-3.338 1.592,-6.643 2.882,-9.802 1.192,-2.848 2.664,-5.57 4.273,-8.202 0.664,-1.075 0.879,-1.094 1.637,-2.106 0.793,0.446 0.659,0.279 1.444,0.741 -1.302,1.793 -2.366,3.589 -3.475,5.507 3.301,-0.227 7.55,0.021 10.86,0.094 0.313,-0.015 0.927,-0.652 1.172,-0.913 0.789,-0.663 0.038,-0.074 0.88,-0.665 0.659,0.598 -0.127,0.124 0.455,0.8 -4.147,2.713 -4.696,3.598 -9.683,12.664 l 11.278,8.952 c 1.49,-2.117 3.596,-5.096 5.34,-7.03 1.147,-1.288 2.379,-2.519 3.779,-3.534 1.184,-0.91 2.52,-1.59 3.783,-2.376 0.95,-0.592 1.842,-1.338 2.409,-2.318 C 1.895,12.896 2.201,11.656 2.367,10.421 2.916,6.801 1.837,3.109 0,0"
             style="fill:#ffffff;fill-opacity:1;fill-rule:nonzero;stroke:none"
             id="path26" /></g><g
           id="g28"
           transform="translate(89.2069,60.7755)"><path
             d="m 0,0 c -0.397,-3.288 -1.129,-6.544 -2.299,-9.645 -1.057,-2.697 -2.385,-5.342 -4.283,-7.546 -1.652,1.171 -4.429,1.471 -5.978,2.792 -1.675,1.355 -3.211,3.036 -4.5,4.757 -1.483,2.04 -2.474,4.186 -3.577,6.445 l -13.036,-9.72 c 1.345,-2.357 5.652,-10.059 7.557,-11.849 -3.082,-0.026 -7.696,-0.216 -10.749,0.177 -1.924,3.473 -4.32,9.467 -4.745,13.912 l -16.025,-3.342 c 0,0 -1.747,2.432 -1.894,4.694 -0.136,2.091 -0.159,4.191 0.026,6.278 0.218,2.034 0.637,4.057 1.558,5.904 0.695,1.226 1.626,2.5 2.95,3.098 1.088,0.49 2.72,1.131 2.877,1.026 -0.026,2.051 -10e-4,3.361 0.412,5.377 0.352,1.55 0.57,3.125 0.981,4.662 0.601,2.311 1.397,4.599 2.661,6.638 0.889,1.449 2.035,2.796 3.542,3.626 5.772,3.219 12.547,4.336 19.09,3.832 5.637,-0.438 11.224,-1.923 16.255,-4.525 -2.304,-5.756 -1.291,-10.799 -0.078,-13.865 0.65,-1.58 1.495,-3.109 2.697,-4.337 C -4.745,6.387 -2.319,4.867 0.363,4.411 0.183,2.946 0.192,1.465 0,0"
             style="fill:#ffffff;fill-opacity:1;fill-rule:nonzero;stroke:none"
             id="path30" /></g><g
           id="g32"
           transform="translate(68.8271,59.6392)"><path
             d="m 0,0 c -4.409,0 -8.099,-3.352 -8.722,-7.588 l 8.86,5.821 c 1.061,-2.174 1.973,-3.705 3.401,-5.669 1.24,-1.656 3.643,-4.283 4.562,-4.742 0.428,1.034 0.676,2.211 0.676,3.401 C 8.777,-3.93 4.848,0 0,0"
             style="fill:#f7acae;fill-opacity:1;fill-rule:nonzero;stroke:none"
             id="path34" /></g><g
           id="g36"
           transform="translate(36.7797,55.981)"><path
             d="M 0,0 C 0,3.291 -1.83,6.168 -4.509,7.67 -5.386,5.9 -6.148,4.68 -6.357,2.731 -6.535,0.723 -6.304,-1.545 -6.173,-3.557 -6.068,-5.171 -5.229,-7.199 -4.894,-7.873 -2.002,-6.437 0,-3.447 0,0"
             style="fill:#f7acae;fill-opacity:1;fill-rule:nonzero;stroke:none"
             id="path38" /></g><g
           id="g40"
           transform="translate(52.5258,101.1285)"><path
             d="m 0,0 c 5.509,2.88 12.205,3.533 18.297,2.299 5.161,-0.921 10.52,-2.907 14.556,-6.325 0.664,-0.57 1.072,-1.375 1.637,-2.047 -0.075,-0.158 -0.443,-0.22 -0.573,-0.312 -1.394,-0.751 -2.589,-1.933 -3.684,-3.079 -0.26,-0.244 -0.502,-0.6 -0.842,-0.718 -4.762,3.235 -10.15,5.821 -15.943,6.442 C 9.981,-3.421 6.499,-3.943 3.165,-4.882 -0.889,-6.05 -4.632,-7.758 -8.283,-9.857 c -0.571,0.606 -1.427,1.939 -1.023,2.739 0.648,1.24 2.186,2.831 3.275,3.654 C -4.059,-2.095 -2.162,-1.066 0,0"
             style="fill:#6dd0f5;fill-opacity:1;fill-rule:nonzero;stroke:none"
             id="path42" /></g><g
           id="g44"
           transform="translate(36.0497,97.0396)"><path
             d="M 0,0 C 1.569,0.829 3.348,0.848 5.091,0.626 5.67,0.528 6.575,0.102 7.075,-0.21 6.279,-1.141 5.479,-2.22 5.233,-3.43 5.06,-4.584 5.989,-5.191 6.626,-6.093 6.897,-6.559 7.023,-7.393 7.358,-7.808 7.5,-8.062 7.042,-8.114 6.883,-8.268 5.826,-9.134 5.163,-10.589 4.272,-11.621 3.457,-12.829 2.896,-13.879 2.32,-15.217 2.157,-15.818 2.229,-16.132 2.163,-16.76 c -0.154,-0.785 -0.748,-2.104 -1.166,-2.798 -0.069,-0.675 -0.288,-1.756 -0.336,-2.435 -0.313,-1.278 -0.738,-2.053 -1.029,-3.338 -1.505,0.283 -3.433,1.725 -4.345,2.897 -0.903,1.092 -1.056,2.334 -1.675,3.596 -0.29,0.421 -0.161,0.957 -0.346,1.417 -0.292,0.618 -0.171,1.458 -0.478,2.073 -0.144,0.81 -0.067,1.857 -0.084,2.677 -0.037,3.078 1.253,6.002 2.898,8.566 0.205,0.665 0.829,0.925 1.275,1.424 0.372,0.415 0.805,0.766 1.2,1.16 C -1.417,-0.988 -0.635,-0.35 0,0"
             style="fill:#ee1921;fill-opacity:1;fill-rule:nonzero;stroke:none"
             id="path46" /></g><g
           id="g48"
           transform="translate(89.661,94.1802)"><path
             d="m 0,0 c 1.337,0.214 3.247,0.386 4.493,-0.217 0.619,-0.298 1.306,-0.26 1.911,-0.588 1.099,-0.761 2.267,-2.112 3.002,-3.233 0.64,-1.114 1.533,-1.752 1.806,-3.023 0.795,-2.257 1.215,-5.478 1.008,-7.832 -0.286,-1.637 -0.802,-3.644 -1.68,-5.08 -0.897,-1.908 -1.485,-4.124 -3.275,-5.312 -0.942,-0.785 -2.246,-1.545 -3.422,-1.882 -1.981,-0.413 -5.57,-0.392 -7.327,0.601 -1.038,0.64 -1.956,1.217 -2.73,2.163 -0.342,0.482 -1.246,1.351 -1.596,1.826 -0.832,1.335 -0.994,3.427 -1.323,4.955 -0.296,2.021 -0.45,4.043 -0.23,6.068 0.479,1.364 0.416,3.225 1.092,4.514 0.624,1.223 1.537,2.856 2.561,3.807 0.727,0.687 2.031,1.101 2.889,1.63 C -1.813,-1.112 -1.118,-0.206 0,0"
             style="fill:#ee1921;fill-opacity:1;fill-rule:nonzero;stroke:none"
             id="path50" /></g><g
           id="g52"
           transform="translate(50.6029,59.8843)"><path
             d="m 0,0 c -0.254,-2.904 -3.044,-5.033 -6.231,-4.754 -3.187,0.279 -5.565,2.859 -5.311,5.764 0.172,1.97 1.513,3.583 3.353,4.329 -0.351,1.35 -0.454,3.076 -0.233,4.88 0.488,3.971 2.372,7.007 4.209,6.781 1.836,-0.225 2.93,-3.626 2.442,-7.598 C -1.976,7.73 -2.435,6.259 -3.031,5.117 -1.07,4.126 0.188,2.152 0,0 M 20.322,7.19 C 19.834,3.22 17.95,0.184 16.114,0.409 14.277,0.634 13.183,4.036 13.67,8.007 c 0.489,3.971 2.372,7.007 4.209,6.782 1.836,-0.226 2.93,-3.628 2.443,-7.599 M 50.296,19.561 C 49.503,12.695 44.495,6.717 38.927,7.302 c -5.567,0.585 -9.523,7.123 -8.76,14.375 0.762,7.253 6.07,12.568 11.461,12.073 5.576,-0.512 9.504,-6.945 8.668,-14.189 M 37.491,1.004 c -0.383,-3.163 -1.087,-6.298 -2.213,-9.282 -1.018,-2.596 -2.295,-5.141 -4.122,-7.262 -1.591,1.126 -3.392,1.938 -4.882,3.211 -1.613,1.303 -3.006,2.859 -4.246,4.515 C 20.6,-5.85 19.5,-3.68 18.438,-1.505 L 3.426,-12.017 c 1.294,-2.267 5.541,-9.504 7.374,-11.228 -2.966,-0.025 -5.85,0.207 -8.789,0.584 -1.852,3.344 -3.568,10.098 -3.978,14.376 l -16.542,-3.853 c 0,0 -1.152,1.991 -1.293,4.168 -0.13,2.012 -0.153,4.033 0.025,6.041 0.21,1.959 0.613,3.906 1.5,5.683 0.669,1.181 1.565,2.406 2.839,2.981 1.047,0.473 2.625,0.212 2.775,0.111 -0.229,4.301 0.939,9.06 1.334,10.539 0.579,2.224 1.345,4.426 2.561,6.388 0.856,1.395 1.959,2.692 3.409,3.491 5.555,3.097 12.076,4.173 18.373,3.687 C 18.44,30.53 23.816,29.101 28.659,26.596 26.44,21.057 27.416,16.203 28.583,13.252 29.208,11.732 30.022,10.26 31.179,9.078 32.923,7.151 35.258,5.689 37.84,5.249 37.666,3.839 37.675,2.415 37.491,1.004 m -7.34,-34.103 c -2.433,-4.121 -6.067,-7.397 -10.02,-10.029 -5.15,-3.408 -10.948,-5.764 -16.919,-7.282 -8.075,-2.031 -16.52,-2.52 -24.782,-1.555 0.136,0.656 0.209,1.336 0.209,2.032 0,5.496 -4.456,9.953 -9.952,9.953 -2.347,0 -4.502,-0.815 -6.204,-2.173 -8.231,10.234 -9.761,28.309 -9.958,29.007 l 14.911,1.943 c 0.138,-3.152 0.633,-6.955 1.256,-10.051 0.719,-3.376 1.673,-6.067 2.891,-9.295 l 2.563,0.703 c -0.624,1.756 -1.23,3.52 -1.839,5.284 0.932,1.366 2.058,2.664 3.54,3.446 1.324,0.724 2.902,1.176 4.379,1.449 0,0 1.935,-5.259 2.796,-7.672 1.273,-3.438 3.059,-6.662 4.991,-9.767 l 2.376,1.172 c -2.008,3.051 -3.631,6.159 -4.354,7.907 -0.985,2.398 -1.626,4.919 -2.612,7.317 -0.545,1.418 -1.132,2.821 -1.718,4.223 -0.206,0.502 -0.473,0.98 -0.605,1.508 3.444,0.739 6.873,1.549 10.309,2.329 1.42,0.298 2.823,0.694 4.254,0.937 0.661,-3.22 1.535,-6.406 2.779,-9.453 1.15,-2.746 2.569,-5.373 4.12,-7.91 0.642,-1.037 1.29,-2.072 2.021,-3.048 0.764,0.43 1.508,0.895 2.264,1.339 -1.255,1.729 -2.453,3.504 -3.523,5.353 3.795,-0.386 10.357,-0.286 10.357,-0.286 0.761,-0.64 1.729,-1.291 2.54,-1.86 0.636,0.576 1.328,1.135 1.889,1.786 -3.999,2.616 -6.188,4.16 -10.998,12.903 L 17.51,-5.56 c 1.438,-2.041 2.571,-4.249 4.252,-6.115 1.108,-1.242 2.295,-2.428 3.646,-3.408 1.141,-0.878 2.429,-1.533 3.648,-2.292 0.917,-0.57 1.777,-1.289 2.323,-2.234 0.599,-1.052 0.895,-2.248 1.055,-3.44 0.529,-3.491 -0.511,-7.052 -2.283,-10.05 m -57.322,31.985 4.76,-0.123 c -0.649,-6.742 0.226,-9.971 1.273,-11.481 l -1.716,-0.47 1.954,-4.043 -2.081,-0.654 c -3.886,6.237 -3.97,12.272 -4.19,16.771 m 5.561,25.328 c 0,3.078 1.189,6.501 2.725,8.664 4.994,6.777 10.273,4.52 11.024,4.106 -0.796,-0.93 -1.451,-2.022 -1.697,-3.233 -0.173,-1.153 0.468,-2.199 1.105,-3.1 0.271,-0.465 0.84,-0.981 1.175,-1.396 0,0 -6.299,-3.154 -7.69,-17.045 -1.36,0.312 -6.643,3.39 -6.642,12.004 m 51.207,4.842 C 16.567,35.749 5.145,33.334 3.06,33.05 17.875,38.782 26.684,30.552 29.597,29.056 m -36.629,4.87 c 1.318,2.431 10.839,9.853 21.017,9.853 7.086,0 14.429,-1.952 20.355,-6.801 0.678,-0.555 1.331,-1.15 1.897,-1.822 C 33.663,33.864 31.976,32 31.364,31.229 26.602,34.463 21.195,37.306 15.245,37.827 11.777,38.13 8.37,37.6 5.036,36.662 0.981,35.494 -2.769,33.902 -6.408,31.64 c -0.571,0.607 -1.05,1.498 -0.624,2.286 M 52.742,23.361 c -0.333,2.916 -1.349,5.793 -3.171,8.117 -1.605,2.126 -3.737,3.652 -6.34,4.241 -1.543,0.334 -2.917,0.337 -3.927,0.18 -1.04,1.264 -2.354,2.489 -3.619,3.525 -4.569,3.661 -10.229,5.764 -15.977,6.668 -3.165,0.536 -6.413,0.587 -9.586,0.098 -5.848,-0.871 -11.52,-3.641 -16.03,-7.427 0,0 -1.922,1.2 -4.844,1.304 -2.176,0.033 -4.349,-0.606 -6.19,-1.761 -3.116,-1.945 -5.345,-5.116 -6.467,-8.583 -1.279,-3.993 -1.305,-8.446 0.265,-12.363 2.198,-6.061 7.858,-7.777 7.985,-7.874 -1.821,-0.298 -3.41,-1.439 -4.495,-2.9 -1.052,-1.414 -1.827,-3.386 -2.242,-5.091 0,0 -5.817,0.414 -8.405,0.55 -0.073,-4.004 0.382,-7.806 0.693,-9.866 0.586,-3.922 1.971,-7.721 4.03,-11.11 -1.111,-0.621 -2.112,-1.429 -2.934,-2.402 -1.358,5.433 -1.313,13.437 -1.313,13.437 l -20.778,-2.847 c 1.374,-12.464 3.956,-23.85 11.182,-33.423 -1.16,-1.627 -1.844,-3.616 -1.844,-5.767 0,-5.496 4.455,-9.952 9.952,-9.952 3.809,0 7.117,2.142 8.79,5.285 2.345,-0.254 4.579,-0.475 7.045,-0.581 4.583,-0.196 15.695,0.198 26.334,4.342 5.12,1.994 10.051,4.58 14.313,8.069 3.911,3.221 7.35,7.232 9.079,12.054 1.1,3.058 1.323,6.428 0.578,9.593 -0.317,1.342 -0.845,2.661 -1.701,3.753 2.988,3.644 4.892,8.067 6.01,12.619 0.782,3.252 1.228,6.586 1.258,9.931 1.923,0.142 3.777,0.865 5.38,1.922 2.686,1.827 4.707,4.549 5.849,7.578 1.053,2.756 1.349,5.754 1.12,8.681"
             style="fill:#000000;fill-opacity:1;fill-rule:nonzero;stroke:none"
             id="path54" /></g></g></g></g></svg>
