<?xml version="1.0" encoding="UTF-8" standalone="no"?>
<!-- Created with Inkscape (http://www.inkscape.org/) -->

<svg
   version="1.1"
   id="svg2"
   width="666.66669"
   height="594.61731"
   viewBox="0 0 666.66669 594.61731"
   sodipodi:docname="Barista Head.ai"
   xmlns:inkscape="http://www.inkscape.org/namespaces/inkscape"
   xmlns:sodipodi="http://sodipodi.sourceforge.net/DTD/sodipodi-0.dtd"
   xmlns="http://www.w3.org/2000/svg"
   xmlns:svg="http://www.w3.org/2000/svg">
  <defs
     id="defs6">
    <clipPath
       clipPathUnits="userSpaceOnUse"
       id="clipPath16">
      <path
         d="M 0,445.963 H 500 V 0 H 0 Z"
         id="path14" />
    </clipPath>
  </defs>
  <sodipodi:namedview
     id="namedview4"
     pagecolor="#ffffff"
     bordercolor="#000000"
     borderopacity="0.25"
     inkscape:showpageshadow="2"
     inkscape:pageopacity="0.0"
     inkscape:pagecheckerboard="0"
     inkscape:deskcolor="#d1d1d1" />
  <g
     id="g8"
     inkscape:groupmode="layer"
     inkscape:label="Barista Head"
     transform="matrix(1.3333333,0,0,-1.3333333,0,594.61733)">
    <g
       id="g10">
      <g
         id="g12"
         clip-path="url(#clipPath16)">
        <g
           id="g18"
           transform="translate(62.1623,173.6889)">
          <path
             d="m 0,0 c -19.048,0 -34.489,-14.054 -34.489,-31.391 0,-17.336 15.441,-31.39 34.489,-31.39 19.048,0 34.489,14.054 34.489,31.39 C 34.489,-14.054 19.048,0 0,0 m 208.486,-10.789 c 10.868,0 19.678,19.215 19.678,42.918 0,23.703 -8.81,42.919 -19.678,42.919 -10.869,0 -19.679,-19.216 -19.679,-42.919 0,-23.703 8.81,-42.918 19.679,-42.918 M 63.132,75.048 c -10.868,0 -19.678,-19.216 -19.678,-42.919 0,-23.703 8.81,-42.918 19.678,-42.918 10.869,0 19.679,19.215 19.679,42.918 0,23.703 -8.81,42.919 -19.679,42.919 m 359.397,45.613 c 0,43.225 -26.884,78.265 -60.047,78.265 -33.163,0 -60.048,-35.04 -60.048,-78.265 0,-43.225 26.885,-78.265 60.048,-78.265 33.163,0 60.047,35.04 60.047,78.265 m -90.744,-85.19 c -8.1,4.733 -16.067,10.271 -22.054,17.552 -13.724,16.014 -21.487,36.821 -23.32,57.713 -0.456,11.404 -0.477,24.417 2.637,34.125 -18.79,12.648 -40.334,20.716 -62.304,25.813 -16.955,4.143 -34.388,6.204 -51.821,6.66 C 133.212,178.463 90.32,168.83 55.351,145.4 49.23,141.36 43.222,136.855 39.027,130.733 29.674,117.703 25.106,101.938 22.506,86.287 18.984,66.327 19.388,46.419 20.301,26.247 21.019,10.385 10.202,9.952 4.09,10.177 -6.679,10.572 -18.035,9.172 -27.43,3.485 c -9.933,-5.769 -15.205,-17.256 -16.096,-28.38 -1.533,-11.052 0.062,-22.208 1.067,-33.25 2.175,-20.301 8.556,-41.4 23.73,-55.86 14.18,-12.606 31.54,-21.286 49.552,-26.962 19.598,-6.505 40.086,-9.736 60.574,-11.787 29.406,-2.548 59.04,-2.041 88.457,0.02 30.339,2.445 61.184,6.63 89.203,19.194 18.551,8.462 34.709,22.156 45.44,39.557 6.319,10.575 12.72,21.658 14.242,34.098 2.321,16.739 3.789,54.021 3.046,95.356 m -315.96,86.271 c 4.623,11.154 11.044,21.691 20.377,29.543 -7.809,6.084 -16.628,13.28 -17.504,24.952 -0.391,5.221 2.902,13.62 8.303,21.17 -8.655,1.978 -21.381,1.9 -30.183,-1.709 -12.714,-5.212 -23.222,-15.112 -30.048,-26.93 -12.233,-20.696 -15.558,-46.166 -10.338,-69.523 3.667,-17.288 15.144,-46.223 46.787,-55.684 0.664,4.394 -2.656,41.358 12.606,78.181 m 156.915,81.635 c -12.754,0.345 -43.729,-2.104 -77.773,-21.426 0,0 24.938,10.01 69.737,11.331 29.056,0.856 64.691,-4.796 86.907,-13.021 -42.878,23.274 -78.871,23.116 -78.871,23.116 M 33.842,173.071 c 0.916,-2.473 2.775,-5.101 4.794,-7.227 4.164,2.621 58.455,48.174 119.073,53.429 17.618,1.077 37.206,-0.968 49.95,-4.429 36.511,-9.917 60.269,-21.891 91.374,-43.021 4.102,7.821 9.394,15.195 15.889,21.193 -5.642,8.882 -41.649,62.204 -138.179,62.853 -81.776,0 -131.746,-59.473 -139.892,-70.998 -2.419,-3.422 -4.484,-7.817 -3.009,-11.8 M 432.847,86.182 c -6.93,-22.218 -22.674,-43.111 -44.192,-52.806 -8.701,-3.92 -15.828,-4.981 -24.798,-5.302 -4.817,-0.114 -11.656,0.742 -14.759,1.547 0,0 0.789,-64.131 -5.353,-96.183 -1.878,-9.8 -12.222,-32.97 -23.292,-46.956 -5.395,-6.816 -21.814,-28.831 -66.001,-42.727 -30.352,-9.545 -63.541,-12.524 -95.174,-14.13 -24.766,-0.559 -55.675,-0.176 -89.932,4.47 -29.36,3.981 -71.18,15.02 -98.184,39.667 -9.82,9.395 -17.216,21.151 -21.907,33.892 -6.889,17.877 -9.402,36.552 -9.188,56.181 0.199,8.317 0.868,16.002 2.782,24.173 1.864,8.017 6.181,15.096 11.578,21.197 6.443,6.904 15.713,12.125 24.977,14.278 7.304,1.699 16.677,2.705 23.403,2.596 1.946,-0.031 2.643,1.848 0.728,2.223 -29.107,5.703 -45.091,25.717 -52.501,39.776 -20.064,36.15 -17.239,84.523 8.408,117.265 13.227,17.132 34.492,28.328 56.316,27.79 8.829,-0.405 15.031,-2.075 20.651,-4.898 10.059,10.739 56.231,61.136 130.028,63.846 120.834,4.439 161.231,-69.126 161.231,-69.126 10.974,7.404 22.685,9.786 34.131,10.03 16.727,0.128 29.906,-5.033 42.202,-15.132 20.153,-16.286 32.582,-42.325 33.59,-70.455 0.808,-13.89 -0.27,-27.968 -4.744,-41.216 M 299.732,-69.945 c 0,-29.174 -23.651,-52.825 -52.826,-52.825 -29.175,0 -52.826,23.651 -52.826,52.825 0,29.175 23.651,52.826 52.826,52.826 29.175,0 52.826,-23.651 52.826,-52.826"
             style="fill:#000000;fill-opacity:1;fill-rule:nonzero;stroke:none"
             id="path20" />
        </g>
      </g>
    </g>
  </g>
</svg>
