<?xml version="1.0" encoding="UTF-8" standalone="no"?>
<svg
   xmlns:dc="http://purl.org/dc/elements/1.1/"
   xmlns:cc="http://creativecommons.org/ns#"
   xmlns:rdf="http://www.w3.org/1999/02/22-rdf-syntax-ns#"
   xmlns:svg="http://www.w3.org/2000/svg"
   xmlns="http://www.w3.org/2000/svg"
   xmlns:sodipodi="http://sodipodi.sourceforge.net/DTD/sodipodi-0.dtd"
   xmlns:inkscape="http://www.inkscape.org/namespaces/inkscape"
   version="1.1"
   id="svg2"
   xml:space="preserve"
   width="666.66669"
   height="558.81866"
   viewBox="0 0 666.66669 558.81866"
   sodipodi:docname="Dog.ai"><metadata
     id="metadata8"><rdf:RDF><cc:Work
         rdf:about=""><dc:format>image/svg+xml</dc:format><dc:type
           rdf:resource="http://purl.org/dc/dcmitype/StillImage" /></cc:Work></rdf:RDF></metadata><defs
     id="defs6"><clipPath
       clipPathUnits="userSpaceOnUse"
       id="clipPath18"><path
         d="M 0,419.114 H 500 V 0 H 0 Z"
         id="path16" /></clipPath></defs><sodipodi:namedview
     pagecolor="#ffffff"
     bordercolor="#666666"
     borderopacity="1"
     objecttolerance="10"
     gridtolerance="10"
     guidetolerance="10"
     inkscape:pageopacity="0"
     inkscape:pageshadow="2"
     inkscape:window-width="640"
     inkscape:window-height="480"
     id="namedview4" /><g
     id="g10"
     inkscape:groupmode="layer"
     inkscape:label="Dog"
     transform="matrix(1.3333333,0,0,-1.3333333,0,558.81867)"><g
       id="g12"><g
         id="g14"
         clip-path="url(#clipPath18)"><g
           id="g20"
           transform="translate(273.3002,121.1058)"><path
             d="m 0,0 c -9.442,5.832 -21.107,7.776 -31.661,5.277 -16.663,-3.61 -30.272,-18.33 -32.216,-35.271 -1.666,-12.498 2.5,-25.552 11.109,-34.439 8.054,-8.332 19.719,-13.331 31.383,-13.053 12.22,0.278 24.162,5.833 31.661,15.275 7.221,8.609 10.831,20.829 9.165,32.217 C 17.775,-17.774 10.554,-6.388 0,0 m -80.818,150.251 c -11.665,-3.333 -20.275,-13.331 -26.385,-23.606 -4.721,-8.61 -8.332,-18.886 -7.221,-28.884 0.556,-4.999 3.888,-10.276 9.165,-11.387 7.221,-1.111 13.887,2.777 19.164,6.943 10.553,8.888 18.33,21.663 21.107,35.272 1.111,6.11 1.388,13.053 -2.777,18.329 -3.055,3.889 -8.61,4.722 -13.053,3.333 m 203.851,-2.5 c 0,13.332 -3.61,26.385 -10.831,37.771 -9.998,15.831 -24.44,28.329 -39.159,39.994 -15.553,12.497 -34.161,22.218 -54.157,24.717 -20.83,2.222 -41.659,-3.61 -59.157,-13.886 l 3.611,-12.22 c 23.885,-0.834 47.491,-7.499 69.154,-17.775 19.997,-9.443 36.161,-20.401 53.602,-38.048 19.49,-19.722 35.533,-40.512 35.533,-40.512 0.555,6.666 1.404,13.294 1.404,19.959 m -16.386,-39.992 c -12.775,18.052 -27.772,34.716 -43.602,49.99 -20.552,18.608 -45.825,32.217 -72.487,38.883 -18.608,4.443 -38.327,6.11 -56.934,0.833 -10.554,-2.778 -20.275,-8.61 -29.162,-14.997 -17.497,-12.22 -32.494,-27.773 -44.714,-44.992 -4.999,-6.388 -13.887,-19.997 -13.887,-19.997 -16.386,6.666 -33.605,14.72 -51.657,11.943 -13.887,-1.944 -24.996,-12.498 -31.661,-24.44 -6.666,-11.665 -11.665,-24.718 -12.498,-38.327 -0.833,-15.83 4.444,-31.384 12.776,-44.714 9.998,-15.831 23.329,-29.162 37.493,-41.659 27.217,-23.329 57.49,-42.77 89.984,-57.767 24.162,-10.832 49.713,-19.719 76.375,-20.275 19.719,-0.278 39.715,3.332 57.767,11.943 17.219,8.053 31.939,19.996 45.27,33.327 -7.499,9.443 -12.498,20.552 -15.275,31.938 -4.999,22.219 -2.222,45.548 5.554,66.933 8.888,24.44 24.441,47.214 46.658,61.378 M 226.626,28.884 c 0.025,-27.736 -16.941,-63.322 -40.825,-84.43 -14.72,-12.775 -33.05,-21.94 -52.769,-23.884 -16.108,-1.667 -32.217,2.499 -45.825,11.109 -13.331,-13.331 -28.051,-25.551 -44.436,-34.716 -34.439,-19.163 -76.375,-22.496 -114.146,-12.776 -24.44,6.111 -47.77,16.387 -69.988,28.051 -28.051,15.276 -54.435,33.327 -78.32,54.712 -19.718,17.776 -38.46,38.177 -47.491,63.6 -6.752,19.007 -6.11,29.717 -6.11,35.827 0.833,20.83 8.61,40.826 20.274,58.045 8.887,12.775 21.941,23.052 37.216,26.939 -6.665,23.33 -1.111,48.603 9.72,69.71 8.887,17.22 21.108,32.772 35.827,45.27 15.831,13.331 35.827,23.051 56.934,23.051 16.941,10e-4 33.605,-6.387 46.937,-16.663 21.662,15.831 48.324,25.551 75.264,25.273 35.827,0.278 69.987,-14.997 98.038,-36.66 23.052,-18.052 44.436,-39.993 55.545,-67.488 9.72,-23.606 9.999,-49.991 3.888,-74.431 15.553,-3.61 30.526,-12.016 40.548,-24.718 22.083,-27.983 19.719,-53.046 19.719,-65.821 m -404.372,81.652 c -7.776,4.721 -17.774,6.943 -26.662,4.166 -5.832,-1.944 -10.831,-6.11 -13.608,-11.664 -3.888,-6.943 -4.721,-15.275 -3.888,-23.052 1.388,-9.998 9.165,-18.052 18.33,-21.94 13.053,-5.833 29.439,-2.5 39.437,7.498 5.832,5.832 8.332,14.72 5.832,22.496 -3.055,9.721 -10.831,17.497 -19.441,22.496 M -29.717,35.827 c -3.054,6.389 -1.944,13.61 -0.278,20.275 3.333,11.386 9.721,21.663 18.331,29.716 3.606,3.431 7.776,5.833 12.22,7.499 4.443,1.666 9.72,1.944 13.331,-1.389 C 18.33,88.04 19.163,81.652 18.608,76.376 17.22,63.322 10.554,51.103 1.667,41.382 -3.61,36.105 -9.998,31.106 -17.497,29.718 c -4.999,-0.834 -9.998,1.666 -12.22,6.109"
             style="fill:#231f20;fill-opacity:1;fill-rule:nonzero;stroke:none"
             id="path22" /></g></g></g></g></svg>
