<?xml version="1.0" encoding="UTF-8" standalone="no"?>
<svg
   xmlns:dc="http://purl.org/dc/elements/1.1/"
   xmlns:cc="http://creativecommons.org/ns#"
   xmlns:rdf="http://www.w3.org/1999/02/22-rdf-syntax-ns#"
   xmlns:svg="http://www.w3.org/2000/svg"
   xmlns="http://www.w3.org/2000/svg"
   xmlns:sodipodi="http://sodipodi.sourceforge.net/DTD/sodipodi-0.dtd"
   xmlns:inkscape="http://www.inkscape.org/namespaces/inkscape"
   version="1.1"
   id="svg2"
   xml:space="preserve"
   width="158.66667"
   height="121.5564"
   viewBox="0 0 158.66667 121.5564"
   sodipodi:docname="Sleepy Barista.ai"><metadata
     id="metadata8"><rdf:RDF><cc:Work
         rdf:about=""><dc:format>image/svg+xml</dc:format><dc:type
           rdf:resource="http://purl.org/dc/dcmitype/StillImage" /></cc:Work></rdf:RDF></metadata><defs
     id="defs6"><clipPath
       clipPathUnits="userSpaceOnUse"
       id="clipPath18"><path
         d="M 0,91.167 H 119 V 0 H 0 Z"
         id="path16" /></clipPath></defs><sodipodi:namedview
     pagecolor="#ffffff"
     bordercolor="#666666"
     borderopacity="1"
     objecttolerance="10"
     gridtolerance="10"
     guidetolerance="10"
     inkscape:pageopacity="0"
     inkscape:pageshadow="2"
     inkscape:window-width="640"
     inkscape:window-height="480"
     id="namedview4" /><g
     id="g10"
     inkscape:groupmode="layer"
     inkscape:label="Sleepy Barista"
     transform="matrix(1.3333333,0,0,-1.3333333,0,121.5564)"><g
       id="g12"><g
         id="g14"
         clip-path="url(#clipPath18)"><g
           id="g20"
           transform="translate(17.1064,21.0163)"><path
             d="m 0,0 c 5.025,-1.306 25.866,-2.51 36.244,1.031 2.75,0.938 11.624,4.531 12.939,15.63 0.406,3.429 0.719,12.335 0.178,14.49 -2.721,1.454 -4.797,3.94 -6.075,6.719 -1.491,3.175 -2.156,6.456 -1.322,12.093 -1.621,1.197 -3.483,2.036 -5.341,2.798 -5.631,2.178 -11.742,3.073 -17.762,2.731 C 12.986,55.143 7.106,53.505 2.15,50.271 1.044,49.557 -0.065,48.793 -0.864,47.725 -4.978,42.221 -4.458,31.689 -4.235,28.399 -0.849,27.715 3.234,27.093 7.177,27.335 L 7.385,25.93 C 6.443,25.661 1.739,23.814 -4.88,26.215 c 0.008,0.302 -0.168,0.899 -0.152,1.197 -2.109,0.064 -5.98,-0.794 -7.76,-2.046 -1.144,-0.767 -1.898,-2.014 -2.232,-3.328 -0.835,-3.278 0.15,-8.677 0.546,-10.39 C -12.461,2.932 -2.771,0.72 0,0"
             style="fill:#ffffff;fill-opacity:1;fill-rule:nonzero;stroke:none"
             id="path22" /></g><g
           id="g24"
           transform="translate(36.0156,5.5446)"><path
             d="M 0,0 C -0.958,2.095 -2.401,4.02 -4.242,5.426 -6.683,7.051 -9.595,7.914 -12.495,8.189 -13.04,7.814 -13.485,7.311 -14,6.895 -12.048,4.821 -9.995,2.833 -7.747,1.077 -5.857,-0.417 -3.81,-1.695 -1.74,-2.926 -1.135,-1.964 -0.548,-0.99 0,0"
             style="fill:#ffffff;fill-opacity:1;fill-rule:nonzero;stroke:none"
             id="path26" /></g><g
           id="g28"
           transform="translate(49.6709,12.8386)"><path
             d="M 0,0 C -1.544,1.601 -6.104,6.756 -17.19,5.644 -20.672,5.431 -31.332,5.936 -32.543,6.371 -32.802,5.775 -33,4.912 -33,4.302 c 0.022,-0.571 0.311,-1.458 0.933,-1.824 0.913,-0.534 2.059,-1.093 2.473,-0.999 1.12,0.259 3.99,0.327 5.383,0.084 2.763,-0.478 3.992,-1.133 6.181,-2.99 2.195,-1.903 4.224,-3.372 6.551,-7.462 C -6.856,-6.103 -4.049,-4.51 0,0"
             style="fill:#ffffff;fill-opacity:1;fill-rule:nonzero;stroke:none"
             id="path30" /></g><g
           id="g32"
           transform="translate(102.6401,36.1345)"><path
             d="M 0,0 C -0.044,0.163 -0.092,0.308 -0.142,0.441 -0.815,1.356 -1.337,2.39 -1.67,3.505 -1.807,3.767 -1.966,4.04 -2.169,4.344 c -1.862,2.524 -4.251,4.623 -6.83,6.388 -1.969,1.359 -4.081,2.52 -6.333,3.334 -3.239,1.186 -6.677,1.807 -10.118,1.915 -1.277,0.118 -2.568,0.072 -3.833,-0.109 -0.86,-0.429 -3.864,-0.858 -6.315,-0.379 0.223,-2.123 0.405,-4.276 0.399,-6.409 -0.014,-2.081 -0.129,-3.938 -0.314,-6.009 -1.639,-18.414 -20.431,-19.344 -23.866,-19.766 0,0 5.14,-3.72 7.121,-7.188 1.898,-0.142 5.539,0.448 7.333,1.093 -0.223,0.38 0.218,1.387 0,1.765 7.821,8.526 12.332,9.605 19.809,11.023 0.295,-0.869 0.136,-0.432 0.455,-1.291 -3.152,-0.538 -6.215,-1.161 -9.19,-2.355 -4.274,-1.74 -6.929,-5.064 -10.063,-8.392 1.863,-3.357 4.092,-7.141 5.914,-10.522 6.342,3.904 7.828,4.789 11.318,6.167 4.108,1.621 13.614,1.707 20.901,5.666 2.077,1.128 3.909,2.786 5.092,4.854 1.287,2.151 1.76,4.683 1.855,7.157 C 1.205,-5.772 0.74,-2.842 0,0"
             style="fill:#ffffff;fill-opacity:1;fill-rule:nonzero;stroke:none"
             id="path34" /></g><g
           id="g36"
           transform="translate(32.7388,88.4128)"><path
             d="m 0,0 c 3.337,0.693 6.803,1.052 10.173,0.626 5.354,-0.632 12.198,-1.957 16.262,-5.586 1.303,-1.152 3.4,-3.616 4.336,-5.087 -1.02,-1.061 -2.827,-3.533 -3.585,-4.791 -4.448,3.08 -10.743,5.065 -15.98,6.473 -3.179,0.794 -5.241,1.432 -8.506,0.979 -3.021,-0.368 -5.518,-0.706 -8.287,-1.938 -3.532,-1.645 -6.88,-4.195 -9.945,-6.602 -0.585,0.436 -2.013,1.554 -1.907,2.314 0.234,0.926 0.037,2.298 0.656,3.001 1.039,1.112 2.345,2.576 3.471,3.597 3.748,3.475 8.294,6 13.312,7.014"
             style="fill:#6dd0f5;fill-opacity:1;fill-rule:nonzero;stroke:none"
             id="path38" /></g><g
           id="g40"
           transform="translate(9.1391,78.7189)"><path
             d="M 0,0 C 0.66,0.372 1.745,1.099 2.459,1.314 3.588,1.453 5.525,0.546 6.647,0.37 6.606,-0.145 5.225,-0.812 4.972,-1.24 4.523,-2.222 5.084,-3.059 5.378,-4.127 5.875,-5.375 6.63,-6.642 7.546,-7.567 7.648,-7.998 7.216,-8.813 7.004,-9.11 c -2.279,-2.597 -3.226,-5.161 -3.627,-8.568 -0.195,-0.601 -0.539,-1.286 -0.688,-1.897 -0.296,-1.23 -0.021,-2.413 -0.271,-3.649 -0.098,-0.665 -0.178,-1.73 -0.292,-2.397 -0.459,0.025 -1.324,0.293 -1.712,0.581 -1.272,0.784 -2.49,0.183 -3.437,1.358 -0.552,0.75 -1.412,0.976 -1.793,1.834 -0.607,1.309 -1.799,3.841 -2.022,5.275 -0.445,1.573 -0.383,2.969 -0.311,4.583 0.184,1.072 -0.328,2.255 0.081,3.277 0.287,0.771 0.575,2.44 0.958,3.168 0.23,0.437 1.301,1.845 1.693,2.189 0.651,0.644 1.124,0.999 1.812,1.608 0.444,0.414 0.701,1.146 1.243,1.437 C -1.029,-0.13 -0.336,-0.171 0,0"
             style="fill:#ee1921;fill-opacity:1;fill-rule:nonzero;stroke:none"
             id="path42" /></g><g
           id="g44"
           transform="translate(69.0854,79.51)"><path
             d="M 0,0 C 1.482,0.245 3.026,0.046 4.409,-0.543 5.064,-0.783 5.631,-1.2 6.266,-1.484 6.68,-1.651 6.981,-1.99 7.28,-2.308 8.066,-3.262 8.942,-4.152 9.536,-5.25 c 0.742,-1.435 1.592,-2.888 1.71,-4.538 0.375,-1.637 0.552,-3.336 0.401,-5.016 -0.126,-1.034 -0.362,-2.052 -0.535,-3.08 -0.444,-1.24 -0.89,-2.491 -1.526,-3.649 -0.426,-0.593 -0.737,-1.276 -1.272,-1.786 -0.411,-0.401 -0.648,-0.968 -1.162,-1.265 -0.603,-0.352 -1.043,-0.936 -1.695,-1.209 -0.855,-0.431 -1.719,-0.864 -2.641,-1.138 -0.942,-0.079 -1.9,-0.11 -2.842,-0.008 -2.472,0.548 -4.695,2.063 -6.162,4.121 -0.868,1.236 -1.726,2.521 -2.144,3.987 -0.359,0.892 -0.326,1.866 -0.585,2.778 -0.229,1.515 -0.367,3.063 -0.091,4.582 0.019,1.714 0.693,3.303 1.325,4.861 0.568,1.205 1.268,2.35 2.149,3.349 0.707,0.638 1.292,1.422 2.12,1.917 C -2.375,-0.684 -1.209,-0.229 0,0"
             style="fill:#ee1921;fill-opacity:1;fill-rule:nonzero;stroke:none"
             id="path46" /></g><g
           id="g48"
           transform="translate(57.7148,34.1052)"><path
             d="m 0,0 c 0,-4.775 -3.871,-8.646 -8.646,-8.646 -4.776,0 -8.647,3.871 -8.647,8.646 0,4.775 3.871,8.646 8.647,8.646 C -3.871,8.646 0,4.775 0,0"
             style="fill:#f7acae;fill-opacity:1;fill-rule:nonzero;stroke:none"
             id="path50" /></g><g
           id="g52"
           transform="translate(48.75,46.6027)"><path
             d="M 0,0 -0.375,3.264 C -5.223,1.679 -11.353,2.544 -13.744,2.758 V -0.689 C -6.432,-2.396 -1.413,-0.524 0,0 m 52.915,-10.749 c -0.042,0.159 -0.089,0.299 -0.137,0.428 -0.652,0.884 -1.154,1.882 -1.477,2.959 -0.132,0.253 -0.286,0.518 -0.482,0.811 -1.8,2.439 -4.107,4.468 -6.599,6.172 -1.902,1.314 -3.943,2.435 -6.119,3.221 -3.129,1.146 -6.45,1.746 -9.776,1.85 -1.233,0.114 -2.48,0.07 -3.702,-0.105 -0.831,-0.414 -3.078,-0.75 -5.444,-0.287 0.215,-2.05 0.17,-4.115 0.164,-6.175 -0.013,-2.01 -0.152,-4.016 -0.33,-6.018 -1.585,-17.79 -19.62,-19.654 -22.939,-20.062 0,0 4.436,-2.513 6.351,-5.863 1.834,-0.139 3.689,0.125 5.423,0.748 -0.216,0.366 -0.391,0.753 -0.603,1.12 7.556,8.237 14.916,10.819 22.139,12.189 0.285,-0.84 0.673,-1.663 0.982,-2.494 -3.045,-0.52 -6.077,-1.22 -8.951,-2.373 -4.13,-1.681 -7.602,-4.633 -10.63,-7.849 1.8,-3.243 3.655,-6.46 5.416,-9.727 6.127,3.772 7.563,4.627 10.934,5.958 3.97,1.567 13.153,1.65 20.194,5.475 2.006,1.09 3.777,2.691 4.92,4.689 1.244,2.079 1.701,4.524 1.793,6.915 0.037,2.842 -0.413,5.674 -1.127,8.418 M -0.267,-33.84 c -1.432,1.485 -5.665,6.27 -15.953,5.238 -3.231,-0.198 -13.124,0.27 -14.248,0.675 -0.24,-0.553 -0.424,-1.354 -0.424,-1.921 0.021,-0.528 0.288,-1.353 0.866,-1.694 0.848,-0.494 1.925,-0.377 2.31,-0.291 1.039,0.242 3.662,0.411 4.955,0.187 2.564,-0.444 4.985,-1.041 7.016,-2.764 2.037,-1.766 3.395,-3.503 5.554,-7.298 4.291,2.585 6.167,3.682 9.924,7.868 m -13.753,-6.735 c -0.782,1.71 -1.96,3.282 -3.463,4.429 -1.993,1.327 -4.37,2.031 -6.737,2.257 -0.445,-0.307 -0.809,-0.718 -1.229,-1.057 1.594,-1.692 3.27,-3.316 5.105,-4.749 1.542,-1.221 3.214,-2.263 4.904,-3.268 0.494,0.785 0.973,1.58 1.42,2.388 m -16.951,16.052 c 4.827,-1.254 24.852,-2.411 34.824,0.99 2.642,0.902 11.168,4.354 12.431,15.018 0.39,3.294 0.691,11.851 0.171,13.922 -2.614,1.398 -4.609,3.786 -5.838,6.455 -1.431,3.051 -2.07,6.203 -1.269,11.619 -1.558,1.151 -3.346,1.956 -5.132,2.689 -5.41,2.093 -11.281,2.953 -17.065,2.624 -5.645,-0.336 -11.295,-1.909 -16.057,-5.016 -1.062,-0.686 -2.128,-1.42 -2.896,-2.447 -3.952,-5.288 -3.47,-15.062 -3.256,-18.224 3.254,-0.656 7.611,-0.291 11.399,-0.058 V -0.35 c -0.905,-0.259 -7.352,-1.661 -13.713,0.646 0.009,0.29 0.02,0.577 0.035,0.862 -2.026,0.062 -4.215,-0.107 -5.925,-1.309 -1.099,-0.737 -1.823,-1.935 -2.145,-3.198 -0.802,-3.15 0.145,-8.336 0.525,-9.982 1.938,-8.376 11.249,-10.501 13.911,-11.192 m -1.503,49.082 c -4.74,3.472 -2.189,6.586 -1.374,7.624 -4.606,1.268 -9.334,-1.449 -11.58,-7.926 -1.259,-3.63 -1.084,-15.197 7.575,-17.45 -0.486,13.427 5.379,17.752 5.379,17.752 m 9.884,5.146 c 8.437,2.655 17.679,2.336 26.053,-0.398 -7.19,3.394 -15.352,6.286 -26.053,0.398 m -9.35,-2.733 c 8.09,6.333 22.058,15.757 42.991,0.989 0.759,1.259 1.625,2.449 2.645,3.51 -4.857,6.963 -12.819,9.553 -18.183,10.098 -3.008,0.306 -7.115,0.409 -10.161,-0.233 -5.01,-1.055 -9.317,-3.319 -13.08,-6.618 -1.849,-1.621 -4.701,-3.946 -5.212,-5.856 -0.146,-0.683 0.415,-1.454 1,-1.89 m 43.585,-7.515 c 0,-7.148 4.459,-12.942 9.96,-12.942 5.502,0 9.961,5.794 9.961,12.942 0,7.147 -4.459,12.942 -9.961,12.942 -5.501,0 -9.96,-5.795 -9.96,-12.942 M 70.251,-4.589 c 0,-5.345 -4.334,-9.677 -9.678,-9.677 -1.591,0 -3.092,0.387 -4.416,1.067 0.418,-2.799 0.723,-5.778 0.276,-8.59 -0.348,-2.419 -1.224,-4.784 -2.658,-6.772 -2.221,-3.1 -5.661,-5.067 -9.195,-6.323 -2.179,-0.697 -4.404,-1.236 -6.639,-1.715 -2.397,-0.57 -4.872,-0.711 -7.271,-1.276 -2.384,-0.505 -4.577,-1.62 -6.738,-2.709 -3.036,-1.603 -5.939,-3.461 -8.64,-5.583 -2.031,3.594 -4.076,7.179 -6.092,10.779 -3.707,-1.657 -7.294,-1.143 -8.306,-0.971 -3.951,-3.895 -9.588,-7.765 -11.942,-9.121 -0.504,0.83 -0.938,1.703 -1.495,2.496 -0.624,-1.219 -1.293,-2.414 -1.946,-3.619 -8.392,4.814 -13.493,10.564 -14.329,11.669 l 0.635,0.893 c -1.5,0.012 -2.797,0.204 -3.849,1.106 -0.951,0.849 -1.403,2.381 -0.873,6.167 -1.749,0.435 -3.464,1.104 -5.101,1.846 -2.249,1.08 -4.366,2.473 -6.062,4.324 -2.05,2.299 -3.261,5.254 -3.77,8.268 -0.272,1.323 -0.912,7.067 -0.062,9.914 0.631,2.431 2.493,4.469 4.814,5.398 1.682,0.686 3.524,0.908 5.332,0.842 -0.002,0.076 -0.007,0.232 -0.01,0.308 -5.287,0.987 -9.587,5.6 -10.653,11.941 -0.361,1.494 -1.248,8.2 2.945,13.713 1.417,1.861 3.269,3.438 5.472,4.284 2.368,0.909 5.663,0.882 7.62,0.016 3.815,4.111 11.282,10.479 22.915,10.478 3.768,0 17.043,0.207 25.428,-11.349 1.356,0.768 2.654,1.612 6.326,1.549 6.585,-0.34 13.089,-7.859 11.618,-17.877 -0.25,-1.704 -0.498,-5.092 -4.837,-9.602 4.217,-0.202 13.571,-1.163 21.999,-10.06 0.849,4.477 4.78,7.862 9.504,7.862 5.344,0 9.678,-4.332 9.678,-9.676 M -32.702,-5.732 c 0,-2.861 -2.563,-5.182 -5.724,-5.182 -3.161,0 -5.724,2.321 -5.724,5.182 0,2.862 2.563,5.183 5.724,5.183 3.161,0 5.724,-2.321 5.724,-5.183"
             style="fill:#000000;fill-opacity:1;fill-rule:nonzero;stroke:none"
             id="path54" /></g></g></g></g></svg>
