<?xml version="1.0" encoding="UTF-8" standalone="no"?>
<!-- Created with Inkscape (http://www.inkscape.org/) -->

<svg
   version="1.1"
   id="svg2"
   xml:space="preserve"
   width="666.66669"
   height="227.51334"
   viewBox="0 0 666.66669 227.51334"
   sodipodi:docname="Remix.ai"
   xmlns:inkscape="http://www.inkscape.org/namespaces/inkscape"
   xmlns:sodipodi="http://sodipodi.sourceforge.net/DTD/sodipodi-0.dtd"
   xmlns="http://www.w3.org/2000/svg"
   xmlns:svg="http://www.w3.org/2000/svg"><defs
     id="defs6"><clipPath
       clipPathUnits="userSpaceOnUse"
       id="clipPath16"><path
         d="M 0,170.635 H 500 V 0 H 0 Z"
         id="path14" /></clipPath></defs><sodipodi:namedview
     id="namedview4"
     pagecolor="#ffffff"
     bordercolor="#666666"
     borderopacity="1.0"
     inkscape:pageshadow="2"
     inkscape:pageopacity="0.0"
     inkscape:pagecheckerboard="0" /><g
     id="g8"
     inkscape:groupmode="layer"
     inkscape:label="Remix"
     transform="matrix(1.3333333,0,0,-1.3333333,0,227.51333)"><g
       id="g10"><g
         id="g12"
         clip-path="url(#clipPath16)"><g
           id="g18"
           transform="translate(499.9982,150.2758)"><path
             d="M 0,0 0.002,0.183 V 20.359 H -33.351 V 0.183 c 0,-32.526 -17.504,-45.229 -17.504,-45.229 0,0 -17.505,12.703 -17.505,45.229 v 20.176 h -33.352 V 0.183 0 c 0,-44.097 27.002,-64.952 27.13,-65.05 -0.129,-0.099 -27.13,-20.954 -27.13,-65.05 v 0 -20.176 h 33.352 v 20.176 c 0,32.526 17.505,45.229 17.505,45.229 0,0 17.504,-12.703 17.504,-45.229 v -20.176 H 0.002 V -130.1 H 0 c 0.002,42.681 -27.011,64.952 -27.13,65.05 C -27.01,-64.95 0.002,-42.68 0,0"
             style="fill:#000000;fill-opacity:1;fill-rule:nonzero;stroke:none"
             id="path20" /></g><g
           id="g22"
           transform="translate(357.3392,170.6349)"><path
             d="M 0,0 31.697,-0.007 V -170.635 H 0 Z"
             style="fill:#000000;fill-opacity:1;fill-rule:nonzero;stroke:none"
             id="path24" /></g><g
           id="g26"
           transform="translate(278.802,140.2901)"><path
             d="M 0,0 C -8.186,30.344 -26.955,30.357 -69.288,30.344 V -140.29 h 31.489 v 125.959 l 0.008,-0.012 c 17.553,0 22.046,-7.669 22.047,-125.947 h 31.488 c 0.002,118.278 4.503,125.947 22.055,125.947 V -140.29 H 69.288 V 30.344 C 26.946,30.357 8.187,30.347 0,0"
             style="fill:#000000;fill-opacity:1;fill-rule:nonzero;stroke:none"
             id="path28" /></g><g
           id="g30"
           transform="translate(200.2648,136.3929)"><path
             d="M 0,0 V 34.242 H -81.149 V -136.393 H 0 v 34.242 h -49.149 v 33.8 H 0 v 34.242 H -49.149 V 0 Z"
             style="fill:#000000;fill-opacity:1;fill-rule:nonzero;stroke:none"
             id="path32" /></g><g
           id="g34"
           transform="translate(78.1545,122.3767)"><path
             d="m 0,0 c 0,-8.14 -6.599,-14.739 -14.739,-14.739 h -31.518 v 37.197 h 31.518 C -6.599,22.458 0,15.859 0,7.719 Z m 31.712,-10.301 v 28.969 c 0,16.342 -13.171,29.59 -29.591,29.59 h -80.275 v -170.617 l 31.897,-0.018 0.004,82.608 c 24.572,0 24.572,0 24.572,-25.247 V -95.97 c 0,-26.407 23.728,-26.407 53.393,-26.407 v 34.51 c -12.067,0 -21.409,-10e-4 -21.409,13.684 v 23.502 c 0,9.065 -5.487,10.912 -5.487,10.912 -10e-4,0.002 -0.002,0.004 -0.003,0.006 13.728,-0.006 26.899,14.028 26.899,29.462"
             style="fill:#000000;fill-opacity:1;fill-rule:nonzero;stroke:none"
             id="path36" /></g></g></g></g></svg>
