<?xml version="1.0" encoding="UTF-8" standalone="no"?>
<!-- Created with Inkscape (http://www.inkscape.org/) -->

<svg
   version="1.1"
   id="svg2"
   xml:space="preserve"
   width="666.66669"
   height="225.28667"
   viewBox="0 0 666.66669 225.28667"
   sodipodi:docname="リミックス.ai"
   xmlns:inkscape="http://www.inkscape.org/namespaces/inkscape"
   xmlns:sodipodi="http://sodipodi.sourceforge.net/DTD/sodipodi-0.dtd"
   xmlns="http://www.w3.org/2000/svg"
   xmlns:svg="http://www.w3.org/2000/svg"><defs
     id="defs6"><clipPath
       clipPathUnits="userSpaceOnUse"
       id="clipPath16"><path
         d="M 0,168.965 H 500 V 0 H 0 Z"
         id="path14" /></clipPath></defs><sodipodi:namedview
     id="namedview4"
     pagecolor="#ffffff"
     bordercolor="#666666"
     borderopacity="1.0"
     inkscape:pageshadow="2"
     inkscape:pageopacity="0.0"
     inkscape:pagecheckerboard="0" /><g
     id="g8"
     inkscape:groupmode="layer"
     inkscape:label="リミックス"
     transform="matrix(1.3333333,0,0,-1.3333333,0,225.28667)"><g
       id="g10"><g
         id="g12"
         clip-path="url(#clipPath16)"><path
           d="m 500,26.405 h -3.113 V 0 H 500 Z M 485.765,0 h 7.861 v 26.405 h -7.861 z m -3.261,26.405 H 471.947 V 0 h 10.557 z m -13.818,0 V 0 c 0,0 -31.095,0.294 -49.283,31.068 C 407.706,16.939 393.014,10.494 378.997,9.508 V 35.89 c 27.561,4.254 40.566,33.762 40.572,78.218 h -40.577 v 26.847 h 63.45 v -26.847 c 0,-24.813 -3.563,-44.246 -9.516,-59.454 11.739,-21.271 23.124,-26.657 35.76,-28.249"
           style="fill:#000000;fill-opacity:1;fill-rule:nonzero;stroke:none"
           id="path18" /><g
           id="g20"
           transform="translate(302.1073,140.9554)"><path
             d="m 0,0 v -81.065 h 23.051 v 54.617 h 16.084 v -64.066 c 0,-8.123 -6.585,-14.708 -14.708,-14.708 H 5.048 v -26.59 h 17.518 c 22.007,0 39.846,17.839 39.846,39.845 l 0,91.967 z"
             style="fill:#000000;fill-opacity:1;fill-rule:nonzero;stroke:none"
             id="path22" /></g><g
           id="g24"
           transform="translate(263.1001,113.8654)"><path
             d="m 0,0 v -62.858 c 0,-8.123 -6.585,-14.708 -14.708,-14.708 h -19.577 v -27.156 h 11.507 c 30.044,0 45.595,16.368 45.595,45.595 l 0,59.127 z m -6.612,0.016 h -22.607 v -60.639 h 22.607 z m -27.202,-60.64 H -57.122 V 0.015 h 23.308 z"
             style="fill:#000000;fill-opacity:1;fill-rule:nonzero;stroke:none"
             id="path26" /></g><path
           d="m 134.305,114.247 h 58.47 v 26.708 h -58.47 z m 0,-52.599 h 58.47 V 88.45 h -58.47 z m 0,-25.797 h 58.47 V 9.143 h -58.47 z"
           style="fill:#000000;fill-opacity:1;fill-rule:nonzero;stroke:none"
           id="path28" /><path
           d="M 3.31,168.964 H 0 v -26.733 h 3.31 z m 3.261,-26.733 h 7.591 v 26.733 H 6.571 Z m 10.851,0 h 10.649 v 26.733 H 17.422 Z m 78.981,-1.295 V 50.123 C 96.403,42 89.818,35.415 81.695,35.415 H 62.542 V 9.143 H 74.37 c 40.891,0 44.931,29.522 44.931,50.395 v 81.398 z m -46.052,28.028 c 17.1,0 30.172,-13.887 30.172,-35.488 V 59.538 H 57.795 v 72.311 c 0,7.352 -3.115,10.382 -6.833,10.382 h -19.63 v 26.734 z"
           style="fill:#000000;fill-opacity:1;fill-rule:nonzero;stroke:none"
           id="path30" /></g></g></g></svg>
