<?xml version="1.0" encoding="UTF-8" standalone="no"?>
<!-- Created with Inkscape (http://www.inkscape.org/) -->

<svg
   version="1.1"
   id="svg2"
   xml:space="preserve"
   width="666.66669"
   height="666.66669"
   viewBox="0 0 666.66669 666.66669"
   sodipodi:docname="リミックス Icon Template (Fever).ai"
   xmlns:inkscape="http://www.inkscape.org/namespaces/inkscape"
   xmlns:sodipodi="http://sodipodi.sourceforge.net/DTD/sodipodi-0.dtd"
   xmlns="http://www.w3.org/2000/svg"
   xmlns:svg="http://www.w3.org/2000/svg"><defs
     id="defs6"><clipPath
       clipPathUnits="userSpaceOnUse"
       id="clipPath16"><path
         d="M 0,500 H 500 V 0 H 0 Z"
         id="path14" /></clipPath></defs><sodipodi:namedview
     id="namedview4"
     pagecolor="#ffffff"
     bordercolor="#666666"
     borderopacity="1.0"
     inkscape:pageshadow="2"
     inkscape:pageopacity="0.0"
     inkscape:pagecheckerboard="0" /><g
     id="g8"
     inkscape:groupmode="layer"
     inkscape:label="リミックス Icon Template (Fever)"
     transform="matrix(1.3333333,0,0,-1.3333333,0,666.66667)"><g
       id="g10"><g
         id="g12"
         clip-path="url(#clipPath16)"><g
           id="g18"
           transform="translate(427.2849,500)"><path
             d="m 0,0 h -354.57 c -9.803,0 -19.329,-1.927 -28.313,-5.727 -8.663,-3.664 -16.436,-8.903 -23.104,-15.571 -6.668,-6.668 -11.907,-14.441 -15.571,-23.104 -3.8,-8.984 -5.727,-18.51 -5.727,-28.313 v -354.57 c 0,-9.803 1.927,-19.329 5.727,-28.313 3.664,-8.663 8.903,-16.436 15.571,-23.104 6.668,-6.668 14.441,-11.907 23.104,-15.571 8.984,-3.8 18.51,-5.727 28.313,-5.727 L 0,-500 c 9.803,0 19.329,1.927 28.313,5.727 8.663,3.664 16.436,8.903 23.104,15.571 6.668,6.668 11.907,14.441 15.571,23.104 3.8,8.984 5.727,18.51 5.727,28.313 v 354.57 c 0,9.803 -1.927,19.329 -5.727,28.313 -3.664,8.663 -8.903,16.436 -15.571,23.104 C 44.749,-14.63 36.976,-9.391 28.313,-5.727 19.329,-1.927 9.803,0 0,0"
             style="fill:#000000;fill-opacity:1;fill-rule:nonzero;stroke:none"
             id="path20" /></g><g
           id="g22"
           transform="translate(427.3127,31.0207)"><path
             d="m 0,0 h -354.625 c -23.012,0 -41.667,18.655 -41.667,41.667 v 354.625 c 0,23.012 18.655,41.667 41.667,41.667 H 0 c 23.012,0 41.667,-18.655 41.667,-41.667 V 41.667 C 41.667,18.655 23.012,0 0,0"
             style="fill:#ffffff;fill-opacity:1;fill-rule:nonzero;stroke:none"
             id="path24" /></g><g
           id="g26"
           transform="translate(365.9036,191.7029)"><path
             d="m 0,0 v -32.235 c 2.545,1.695 5.155,4.518 7.545,9.323 2.906,5.843 4.928,13.612 5.997,22.912 z m 73.488,-98.904 c -1.634,0.016 -10.345,0.31 -21.339,4.599 -8.711,3.399 -16.531,8.417 -23.195,14.827 -9.532,-6.484 -20.423,-10.338 -31.88,-11.145 l -17.81,-1.253 v 10.958 c -8.514,-6.32 -19.049,-10.062 -30.443,-10.062 h -31.827 v 15.128 c -9.956,-10.038 -23.846,-15.128 -41.286,-15.128 h -108.534 v 10.252 c -7.84,-5.811 -19.125,-10.252 -35.307,-10.252 h -26.895 v 43.681 h -4.114 v 71.675 h -50.095 v 56.456 h 60.286 c 12.161,-10e-4 23.225,-4.985 31.152,-14.036 2.698,-3.08 4.946,-6.518 6.724,-10.257 l 102.213,0.016 V 33.088 l 61.481,-0.013 v 23.48 H 67.541 V 16.642 c 0,-18.663 -2.215,-35.283 -6.593,-49.543 5.685,-8.136 10.093,-9.315 13.78,-9.832 h 42.702 v -56.171 z"
             style="fill:#000000;fill-opacity:1;fill-rule:nonzero;stroke:none"
             id="path28" /></g><path
           d="m 466.691,132.327 h -2.699 V 109.44 h 2.699 z m -12.338,-22.886 h 6.813 v 22.887 h -6.813 z m -2.827,22.886 h -9.151 V 109.44 h 9.151 z m -11.977,0 v -22.886 c 0,0 -26.952,0.255 -42.717,26.929 -10.138,-12.247 -22.872,-17.833 -35.022,-18.688 v 22.867 c 23.889,3.687 35.161,29.263 35.166,67.796 h -35.171 v 23.271 h 54.997 v -23.271 c 0,-21.506 -3.089,-38.35 -8.249,-51.532 10.176,-18.437 20.044,-23.105 30.996,-24.486 m -144.384,99.289 v -70.264 h 19.979 v 47.34 h 13.941 v -55.53 c 0,-7.041 -5.707,-12.749 -12.748,-12.749 H 299.54 v -23.047 h 15.184 c 19.075,0 34.537,15.462 34.537,34.536 v 79.714 z m -33.81,-23.481 v -54.483 c 0,-7.04 -5.708,-12.748 -12.749,-12.748 h -16.968 v -23.538 h 9.974 c 26.04,0 39.52,14.187 39.52,39.52 v 51.249 z m -5.731,0.014 h -19.595 v -52.56 h 19.595 z m -23.578,-52.56 h -20.202 v 52.56 h 20.202 z m -82.327,52.877 h 50.679 v 23.15 h -50.679 z m 0,-45.591 h 50.679 v 23.231 h -50.679 z m 0.001,-22.36 h 50.679 v -23.15 H 149.72 Z M 36.178,255.892 h -2.869 v -23.171 h 2.869 z m 2.826,-23.171 h 6.579 v 23.171 h -6.579 z m 9.406,0 h 9.23 v 23.171 h -9.23 z m 68.457,-1.122 v -78.713 c 0,-7.041 -5.707,-12.749 -12.748,-12.749 H 87.518 V 117.366 H 97.77 c 35.443,0 38.945,25.588 38.945,43.68 v 70.553 z m -39.916,24.293 c 14.822,0 26.153,-12.036 26.153,-30.759 v -64.087 h -19.7 v 62.677 c 0,6.372 -2.7,8.998 -5.923,8.998 H 60.466 v 23.173 z"
           style="fill:#ffffff;fill-opacity:1;fill-rule:nonzero;stroke:none"
           id="path30" /></g></g></g></svg>
