<?xml version="1.0" encoding="UTF-8" standalone="no"?>
<!-- Generator: Adobe Illustrator 25.0.0, SVG Export Plug-In . SVG Version: 6.00 Build 0)  -->

<svg
   version="1.1"
   id="Layer_1"
   x="0px"
   y="0px"
   viewBox="0 0 666.66669 319.73471"
   xml:space="preserve"
   sodipodi:docname="Rhythm World Wiki (리듬 세상 ＷＩＫＩ) Logo.svg"
   width="666.66669"
   height="319.73471"
   inkscape:version="1.2.2 (b0a8486541, 2022-12-01)"
   xmlns:inkscape="http://www.inkscape.org/namespaces/inkscape"
   xmlns:sodipodi="http://sodipodi.sourceforge.net/DTD/sodipodi-0.dtd"
   xmlns="http://www.w3.org/2000/svg"
   xmlns:svg="http://www.w3.org/2000/svg"><defs
   id="defs127914" /><sodipodi:namedview
   id="namedview127912"
   pagecolor="#505050"
   bordercolor="#eeeeee"
   borderopacity="1"
   inkscape:showpageshadow="0"
   inkscape:pageopacity="0"
   inkscape:pagecheckerboard="0"
   inkscape:deskcolor="#505050"
   showgrid="false"
   inkscape:zoom="2.844"
   inkscape:cx="250.17581"
   inkscape:cy="119.90155"
   inkscape:window-width="2560"
   inkscape:window-height="1412"
   inkscape:window-x="0"
   inkscape:window-y="0"
   inkscape:window-maximized="1"
   inkscape:current-layer="Layer_1" />
<style
   type="text/css"
   id="style127695">
	.st0{fill:url(#Spectrum_2_);}
	.st1{fill:#FFFFFF;}
	.st2{fill:url(#SVGID_1_);}
	.st3{fill:url(#SVGID_2_);}
	.st4{fill:url(#SVGID_3_);}
	.st5{fill:url(#SVGID_4_);}
	.st6{fill:url(#SVGID_5_);}
	.st7{fill:url(#SVGID_6_);}
	.st8{fill:url(#SVGID_7_);}
	.st9{fill:#FF5500;}
	.st10{fill:#FFAA00;}
</style>
<g
   id="Cloud_1_"
   transform="scale(1.3333334)">
	<linearGradient
   id="Spectrum_2_"
   gradientUnits="userSpaceOnUse"
   x1="380.75778"
   y1="181.98051"
   x2="30.928789"
   y2="54.653172">
		<stop
   offset="0"
   style="stop-color:#FF0000"
   id="stop127697" />
		<stop
   offset="0.02547"
   style="stop-color:#FF0900"
   id="stop127699" />
		<stop
   offset="0.06704"
   style="stop-color:#FF2100"
   id="stop127701" />
		<stop
   offset="0.11955"
   style="stop-color:#FF4900"
   id="stop127703" />
		<stop
   offset="0.18093"
   style="stop-color:#FF8000"
   id="stop127705" />
		<stop
   offset="0.24895"
   style="stop-color:#FFC600"
   id="stop127707" />
		<stop
   offset="0.3"
   style="stop-color:#FFFF00"
   id="stop127709" />
		<stop
   offset="0.30991"
   style="stop-color:#F1FD00"
   id="stop127711" />
		<stop
   offset="0.36189"
   style="stop-color:#ABF502"
   id="stop127713" />
		<stop
   offset="0.40873"
   style="stop-color:#74EF04"
   id="stop127715" />
		<stop
   offset="0.44882"
   style="stop-color:#4CEA05"
   id="stop127717" />
		<stop
   offset="0.48056"
   style="stop-color:#34E706"
   id="stop127719" />
		<stop
   offset="0.5"
   style="stop-color:#2BE606"
   id="stop127721" />
		<stop
   offset="0.65"
   style="stop-color:#03B3F4"
   id="stop127723" />
		<stop
   offset="0.68043"
   style="stop-color:#03B0F4"
   id="stop127725" />
		<stop
   offset="0.70487"
   style="stop-color:#03A6F5"
   id="stop127727" />
		<stop
   offset="0.72724"
   style="stop-color:#0395F6"
   id="stop127729" />
		<stop
   offset="0.74837"
   style="stop-color:#027DF8"
   id="stop127731" />
		<stop
   offset="0.76864"
   style="stop-color:#025EFA"
   id="stop127733" />
		<stop
   offset="0.78797"
   style="stop-color:#0139FC"
   id="stop127735" />
		<stop
   offset="0.8"
   style="stop-color:#011EFE"
   id="stop127737" />
		<stop
   offset="0.81587"
   style="stop-color:#1B1AFE"
   id="stop127739" />
		<stop
   offset="0.84709"
   style="stop-color:#4812FD"
   id="stop127741" />
		<stop
   offset="0.87851"
   style="stop-color:#6E0CFD"
   id="stop127743" />
		<stop
   offset="0.90965"
   style="stop-color:#8B07FC"
   id="stop127745" />
		<stop
   offset="0.94046"
   style="stop-color:#9F04FC"
   id="stop127747" />
		<stop
   offset="0.97077"
   style="stop-color:#AC02FC"
   id="stop127749" />
		<stop
   offset="1"
   style="stop-color:#B001FC"
   id="stop127751" />
	</linearGradient>
	<path
   id="Spectrum_1_"
   class="st0"
   d="m 335.80893,0 c -29.0889,0 -55.58594,16.30984 -68.95053,41.10581 -3.74072,-0.49236 -7.51694,-0.74001 -11.31087,-0.74001 -12.64749,0 -24.96526,2.72348 -36.25693,7.95606 -13.97226,-11.89417 -31.75917,-18.51658 -50.51897,-18.51658 -28.84496,0 -55.1069,16.12059 -68.49071,40.68147 C 95.57767,69.70386 90.80196,69.30983 85.97894,69.30983 38.5701,69.30982 0,107.55094 0,154.55542 c 0,47.00448 38.5701,85.24559 85.97895,85.24559 36.52454,0 68.21717,-22.49165 80.53199,-55.31464 8.01964,0.23065 15.88698,-0.73854 23.43495,-2.86543 16.22263,18.92023 40.283,30.23701 65.60164,30.23701 37.26823,0 69.30241,-23.24644 81.20473,-57.08298 42.62354,-0.50345 77.14316,-35.02381 77.14316,-77.3849 C 413.89542,34.71701 378.86569,0 335.80893,0 Z"
   style="fill:url(#Spectrum_2_)" />
	<path
   id="White_1_"
   class="st1"
   d="m 335.80893,9.08419 c -27.94009,0 -53.16998,17.00328 -63.73718,42.14597 -5.41589,-1.18284 -10.94861,-1.78017 -16.52422,-1.78017 -13.34537,0 -26.27821,3.38661 -37.77687,9.84712 -12.88553,-13.04448 -30.39891,-20.40764 -48.99902,-20.40764 -27.77745,0 -52.84325,16.91162 -63.41042,41.94932 -6.30304,-1.62418 -12.79533,-2.44477 -19.38226,-2.44477 -42.40027,0 -76.89476,34.1655 -76.89476,76.16141 0,41.99591 34.49449,76.16139 76.89476,76.16139 34.99719,0 65.03239,-23.06458 74.11066,-55.83064 2.88316,0.3652 5.78555,0.54927 8.68202,0.54927 8.43214,0 16.59816,-1.48372 24.35609,-4.41937 14.39069,19.7386 37.73694,31.75844 62.4198,31.75844 35.59895,0 65.8589,-23.69814 74.55125,-57.31511 1.90585,0.1582 3.81317,0.2373 5.71014,0.2373 38.04745,0 69.00229,-30.64214 69.00229,-68.30663 10e-6,-37.66375 -30.95483,-68.30589 -69.00228,-68.30589 z" />
	<path
   id="Black_1_"
   d="m 335.80847,16.65407 c -27.94009,0 -51.50775,18.44708 -58.96259,43.6892 -6.71323,-2.1499 -13.86682,-3.32331 -21.29874,-3.32331 -14.53549,0 -28.0228,4.44876 -39.17575,12.04221 -11.21153,-13.78098 -28.36397,-22.60273 -47.59985,-22.60273 -27.84926,0 -51.33467,18.48156 -58.72657,43.75647 -7.49743,-2.74649 -15.60347,-4.25184 -24.06612,-4.25184 -38.28677,0 -69.32442,30.70941 -69.32442,68.59144 0,37.88193 31.03765,68.59134 69.32442,68.59134 34.29396,0 62.75321,-24.64433 68.32012,-57.00629 4.64153,1.11824 9.4845,1.72501 14.47256,1.72501 9.75545,0 18.97076,-2.27835 27.15369,-6.31044 12.13286,20.15332 34.28972,33.64922 59.62192,33.64922 34.62802,0 63.32892,-25.21143 68.58636,-58.18698 3.78128,0.7195 7.6813,1.10927 11.67496,1.10927 33.92868,0 61.43323,-27.1925 61.43323,-60.73628 10e-6,-33.5437 -27.50454,-60.73629 -61.43322,-60.73629 z" />
	<rect
   x="330.73282"
   y="127.85841"
   width="39.245152"
   height="12.87592"
   id="rect127757" />
</g>
<g
   id="Wiki"
   transform="scale(1.3333334)">
	<path
   d="m 500,114.08245 c 0,-4.52714 -1.89612,-8.71534 -5.20355,-11.48976 -3.33865,-2.80222 -7.85458,-3.94778 -12.3949,-3.14993 -5.22501,0.92159 -9.66016,4.09712 -12.35773,8.36793 -0.30783,-0.30803 -0.61655,-0.61563 -0.95206,-0.89715 -3.33771,-2.80026 -7.7395,-3.96631 -12.08377,-3.20211 -5.16745,0.91099 -9.37808,4.28086 -12.49438,9.97942 l -2.81879,5.09334 c -0.31406,-0.86124 -0.71005,-1.70786 -1.20651,-2.56764 -3.08606,-5.28256 -9.01431,-8.00187 -15.08789,-6.93189 -4.17435,0.73646 -7.98267,3.15316 -10.62393,6.60679 -3.23193,-2.30795 -7.35989,-3.22564 -11.51483,-2.49418 -4.6218,0.81522 -8.62244,3.3978 -11.35474,6.93696 -2.27045,-1.65306 -5.00665,-2.71304 -7.95743,-3.02478 -8.15402,-0.85979 -15.15128,3.87414 -17.44727,11.77944 l -1.08069,4.00826 -0.12875,-0.33455 c -1.62595,-4.24283 -5.15283,-7.55808 -9.6756,-9.09476 -4.63785,-1.57668 -9.66876,-1.03339 -13.7955,1.49474 -3.48694,2.13457 -5.94095,5.53908 -7.09674,9.84189 l -1.11093,4.12773 -0.29358,-0.7681 c -1.53134,-3.99802 -4.67981,-7.0587 -8.86411,-8.6183 -4.40472,-1.64008 -9.48831,-1.40453 -13.26688,0.61789 -7.65952,4.10139 -10.63632,12.52023 -7.40591,20.9498 l 17.181,44.82373 c 2.53107,6.60612 7.11526,10.30664 13.62579,10.99721 0.6301,0.0663 1.24652,0.0985 1.85126,0.0985 8.05746,0 13.79843,-5.73221 15.43216,-11.82431 l 1.18506,-4.41109 c 2.53009,5.95898 7.03821,9.67902 12.47,10.25349 5.35083,0.5667 14.86649,-0.33942 18.47043,-12.75285 l 5.49606,-20.45456 -8.5e-4,13.5368 c 0,4.72173 1.76343,8.80167 4.96457,11.48878 2.41403,2.02486 5.43179,3.08167 8.6944,3.08167 0.90707,0 1.83368,-0.081 2.771,-0.24677 4.50305,-0.79437 8.20291,-3.30252 10.59521,-6.88802 2.49341,1.93098 5.60706,2.99875 8.91006,2.99875 0.90125,0 1.81711,-0.0795 2.73688,-0.24139 4.90509,-0.86514 9.42102,-4.15504 12.10129,-8.84019 1.62204,-2.87195 2.34967,-5.64442 2.52719,-9.96771 l 5.83655,7.0426 c 4.37839,5.28354 11.41565,7.18111 17.92911,4.83145 3.05859,-1.10234 5.62863,-2.96936 7.54175,-5.34035 2.32562,1.76651 5.14795,2.69713 8.19083,2.69713 0.9071,0 1.83368,-0.0814 2.771,-0.24678 7.91702,-1.39574 13.36441,-8.07648 13.55463,-16.62405 l 0.002,-31.06674 c 0,-3.46303 -0.95667,-6.57424 -2.72491,-9.05026 2.54922,-3.13256 4.104,-7.04803 4.104,-11.12608 z"
   id="path127760" />
	
		<linearGradient
   id="SVGID_1_"
   gradientUnits="userSpaceOnUse"
   x1="401.23557"
   y1="189.30435"
   x2="401.23557"
   y2="122.29551"
   gradientTransform="matrix(1,-0.17633,0,1,0,70.08707)">
		<stop
   offset="0.2"
   style="stop-color:#F8EC19"
   id="stop127762" />
		<stop
   offset="0.6"
   style="stop-color:#F15A2B"
   id="stop127764" />
	</linearGradient>
	<path
   class="st2"
   d="m 492.03519,114.08255 c 0,4.59493 -3.75925,9.01796 -8.45898,9.84666 -4.49106,0.79189 -8.3551,-2.28695 -8.3551,-6.67319 0,-4.80362 3.76016,-9.122 8.56378,-9.96901 4.59493,-0.81021 8.2503,2.20061 8.2503,6.79554 z m -1.37891,51.06485 c -0.10605,4.71844 -2.85349,8.23125 -6.9751,8.95799 -4.22769,0.74545 -7.08121,-1.88455 -7.08121,-6.47949 v -30.88853 c 0.10513,-4.71828 2.85352,-8.23125 6.97513,-8.958 4.22769,-0.74545 7.08118,1.88456 7.08118,6.47948 z m -55.78104,-14.2224 19.88904,24.00108 c 5.10181,6.15662 15.10211,1.94901 15.10211,-6.08804 0,-2.65298 -0.81503,-4.84636 -2.78122,-7.25011 l -13.6311,-16.45822 11.68076,-20.57024 c 1.06085,-1.83065 1.54843,-3.51686 1.54843,-5.33445 0,-4.94984 -3.797,-8.46178 -8.29205,-7.66918 -1.7261,0.30436 -4.31946,1.25662 -6.90863,5.99245 l -16.60733,30.00172 v -19.93685 c 0,-4.44005 -0.39029,-5.86517 -1.26495,-7.37888 -1.40564,-2.40634 -4.02335,-3.59947 -6.82718,-3.10508 -2.68222,0.47295 -5.12119,2.288 -6.52365,4.8558 l -0.0666,0.11487 c -1.16449,1.94888 -1.50189,3.82596 -1.50189,8.36701 v 42.98692 c 0,4.5802 0.30991,5.95392 1.18036,7.52705 1.37073,2.35117 3.96198,3.46858 6.9118,2.94844 2.56482,-0.45224 5.07465,-2.33479 6.54901,-4.91209 1.04285,-1.84705 1.54312,-3.58469 1.54312,-8.41711 V 150.925 Z m -21.98068,-22.88783 c 0,4.59494 -3.75922,9.01796 -8.45898,9.84666 -4.49106,0.79189 -8.3551,-2.28696 -8.3551,-6.67319 0,-4.80363 3.76019,-9.12201 8.56381,-9.96902 4.59491,-0.81019 8.25027,2.20063 8.25027,6.79555 z m -1.37887,51.06485 c -0.10608,4.71846 -2.85352,8.23125 -6.97513,8.95799 -4.22769,0.74547 -7.08118,-1.88455 -7.08118,-6.47948 v -30.88855 c 0.1051,-4.71828 2.85349,-8.23125 6.9751,-8.95799 4.22769,-0.74545 7.08121,1.88455 7.08121,6.47949 z m -96.5662,-41.71625 c -4.29739,2.30067 -5.49261,6.47493 -3.72861,11.07671 l 17.1813,44.82509 c 1.02383,2.67101 2.66013,5.46239 7.02777,5.92551 5.24661,0.55634 8.07477,-3.35104 8.75153,-5.87129 l 7.53625,-28.05342 8.46124,22.07289 c 1.38879,3.62244 3.65799,5.701 6.18698,5.96834 6.61697,0.69945 8.78629,-2.92854 9.98401,-7.05206 l 13.55701,-50.46053 c 1.50366,-5.59341 -1.63702,-10.04137 -6.79462,-10.58653 -3.37509,-0.35676 -7.5011,1.0536 -8.96091,6.08026 l -7.40372,27.50258 -8.89246,-23.19969 c -1.60919,-4.19843 -7.4158,-6.38837 -11.87503,-3.65767 -1.73846,1.06458 -2.93753,2.78693 -3.56384,5.11873 l -7.48279,27.80258 -9.05096,-23.66371 c -1.79054,-4.67171 -7.95732,-5.42094 -10.93315,-3.82779 z"
   id="path127767"
   style="fill:url(#SVGID_1_)" />
	<g
   id="g127903">
		
			<linearGradient
   id="SVGID_2_"
   gradientUnits="userSpaceOnUse"
   x1="480.33832"
   y1="132.80603"
   x2="480.33832"
   y2="168.36229"
   gradientTransform="translate(0,3.82398)">
			<stop
   offset="0"
   style="stop-color:#FFFFFF"
   id="stop127769" />
			<stop
   offset="0.21678"
   style="stop-color:#FFFFFC"
   id="stop127771" />
			<stop
   offset="0.39094"
   style="stop-color:#FFFEF2"
   id="stop127773" />
			<stop
   offset="0.55028"
   style="stop-color:#FEFCE1"
   id="stop127775" />
			<stop
   offset="0.70081"
   style="stop-color:#FEFAC9"
   id="stop127777" />
			<stop
   offset="0.84512"
   style="stop-color:#FDF7AA"
   id="stop127779" />
			<stop
   offset="0.98295"
   style="stop-color:#FCF385"
   id="stop127781" />
			<stop
   offset="1"
   style="stop-color:#FCF380"
   id="stop127783" />
		</linearGradient>
		<path
   class="st3"
   d="m 481.93842,169.77455 c -0.0333,-0.0346 -0.82288,-0.86406 -0.82288,-2.52629 l 3.7e-4,-29.21262 c 0,-0.77621 -0.62924,-1.40564 -1.40564,-1.40564 -0.7764,0 -1.40564,0.62943 -1.40564,1.40564 l -3.7e-4,29.21262 c 0,2.87184 1.50925,4.3851 1.68164,4.54817 0.27417,0.25989 0.62778,0.38985 0.98029,0.38985 0.37155,0 0.74197,-0.14459 1.01614,-0.43396 0.53409,-0.56336 0.51981,-1.44388 -0.0439,-1.97777 z"
   id="path127786"
   style="fill:url(#SVGID_2_)" />
		<path
   class="st1"
   d="m 479.10373,119.53786 c -0.56299,0 -1.09412,-0.34042 -1.31046,-0.89682 -0.25809,-0.66347 -0.38876,-1.37727 -0.38876,-2.12144 0,-3.33307 2.70364,-6.52155 6.02664,-7.10759 0.76578,-0.1358 1.4935,0.37575 1.62857,1.14006 0.1347,0.7645 -0.37558,1.49348 -1.14026,1.62837 -2.00778,0.35416 -3.70367,2.34126 -3.70367,4.33916 0,0.39442 0.0666,0.76541 0.19766,1.10309 0.28113,0.7235 -0.0772,1.53815 -0.80093,1.81927 -0.16727,0.0652 -0.33933,0.0959 -0.50879,0.0959 z"
   id="path127788" />
		
			<linearGradient
   id="SVGID_3_"
   gradientUnits="userSpaceOnUse"
   x1="456.26083"
   y1="143.02458"
   x2="447.68027"
   y2="175.04709"
   gradientTransform="matrix(0.76604,-0.64279,0.64279,0.76604,1.74668,331.92236)">
			<stop
   offset="0"
   style="stop-color:#FFFFFF"
   id="stop127790" />
			<stop
   offset="0.21678"
   style="stop-color:#FFFFFC"
   id="stop127792" />
			<stop
   offset="0.39094"
   style="stop-color:#FFFEF2"
   id="stop127794" />
			<stop
   offset="0.55028"
   style="stop-color:#FEFCE1"
   id="stop127796" />
			<stop
   offset="0.70081"
   style="stop-color:#FEFAC9"
   id="stop127798" />
			<stop
   offset="0.84512"
   style="stop-color:#FDF7AA"
   id="stop127800" />
			<stop
   offset="0.98295"
   style="stop-color:#FCF385"
   id="stop127802" />
			<stop
   offset="1"
   style="stop-color:#FCF380"
   id="stop127804" />
		</linearGradient>
		<path
   class="st4"
   d="m 460.98495,173.58969 c -0.0482,-0.005 -1.18628,-0.13303 -2.25476,-1.40636 l -18.13531,-21.61324 c -0.49893,-0.5946 -1.38553,-0.6723 -1.98029,-0.17325 -0.59476,0.49907 -0.67218,1.3857 -0.17325,1.9803 l 18.13531,21.61324 c 1.84598,2.19995 3.97482,2.38905 4.21155,2.40352 0.37708,0.0229 0.73178,-0.10512 1.0018,-0.33171 0.28464,-0.23882 0.47546,-0.58769 0.4996,-0.98546 0.047,-0.77483 -0.5298,-1.44004 -1.30465,-1.48704 z"
   id="path127807"
   style="fill:url(#SVGID_3_)" />
		<path
   class="st1"
   d="m 455.28619,119.97286 c 0.3761,-0.67886 0.13089,-1.53451 -0.54791,-1.91084 -0.67911,-0.37526 -1.53418,-0.13084 -1.91113,0.54803 l -14.01672,25.28704 c -0.37616,0.67888 -0.13092,1.53455 0.54788,1.91089 0.10965,0.0607 0.22382,0.10524 0.33987,0.13438 0.60287,0.15135 1.25543,-0.11317 1.5712,-0.68245 z"
   id="path127809" />
		
			<linearGradient
   id="SVGID_4_"
   gradientUnits="userSpaceOnUse"
   x1="422.51147"
   y1="123.25681"
   x2="422.51147"
   y2="177.88531"
   gradientTransform="translate(0,3.82398)">
			<stop
   offset="0"
   style="stop-color:#FFFFFF"
   id="stop127811" />
			<stop
   offset="0.21678"
   style="stop-color:#FFFFFC"
   id="stop127813" />
			<stop
   offset="0.39094"
   style="stop-color:#FFFEF2"
   id="stop127815" />
			<stop
   offset="0.55028"
   style="stop-color:#FEFCE1"
   id="stop127817" />
			<stop
   offset="0.70081"
   style="stop-color:#FEFAC9"
   id="stop127819" />
			<stop
   offset="0.84512"
   style="stop-color:#FDF7AA"
   id="stop127821" />
			<stop
   offset="0.98295"
   style="stop-color:#FCF385"
   id="stop127823" />
			<stop
   offset="1"
   style="stop-color:#FCF380"
   id="stop127825" />
		</linearGradient>
		<path
   class="st5"
   d="m 424.11194,179.29776 c -0.0337,-0.0348 -0.82327,-0.86444 -0.82327,-2.52667 l 3.7e-4,-48.28467 c 0,-0.77621 -0.62921,-1.40562 -1.40561,-1.40562 -0.7764,0 -1.40564,0.62942 -1.40564,1.40562 l -3.7e-4,48.28467 c 0,2.87186 1.50922,4.3851 1.68127,4.54836 0.27417,0.2599 0.62814,0.38985 0.98065,0.38985 0.37152,0 0.74197,-0.14459 1.01614,-0.43376 0.53406,-0.56337 0.51978,-1.44372 -0.0435,-1.97778 z"
   id="path127828"
   style="fill:url(#SVGID_4_)" />
		
			<ellipse
   transform="rotate(-45.256861,455.90168,115.96504)"
   class="st1"
   cx="455.90024"
   cy="115.96553"
   rx="1.41829"
   ry="1.39307"
   id="ellipse127830" />
		
			<ellipse
   transform="rotate(-45.256861,421.93014,124.75019)"
   class="st1"
   cx="421.92877"
   cy="124.7506"
   rx="1.41829"
   ry="1.39307"
   id="ellipse127832" />
		
			<linearGradient
   id="SVGID_5_"
   gradientUnits="userSpaceOnUse"
   x1="401.19772"
   y1="146.76064"
   x2="401.19772"
   y2="182.31708"
   gradientTransform="translate(0,3.82398)">
			<stop
   offset="0"
   style="stop-color:#FFFFFF"
   id="stop127834" />
			<stop
   offset="0.21678"
   style="stop-color:#FFFFFC"
   id="stop127836" />
			<stop
   offset="0.39094"
   style="stop-color:#FFFEF2"
   id="stop127838" />
			<stop
   offset="0.55028"
   style="stop-color:#FEFCE1"
   id="stop127840" />
			<stop
   offset="0.70081"
   style="stop-color:#FEFAC9"
   id="stop127842" />
			<stop
   offset="0.84512"
   style="stop-color:#FDF7AA"
   id="stop127844" />
			<stop
   offset="0.98295"
   style="stop-color:#FCF385"
   id="stop127846" />
			<stop
   offset="1"
   style="stop-color:#FCF380"
   id="stop127848" />
		</linearGradient>
		<path
   class="st6"
   d="m 402.79819,183.72952 c -0.0337,-0.0348 -0.82327,-0.86443 -0.82327,-2.52666 l 3.7e-4,-29.21262 c 0,-0.77621 -0.62924,-1.40564 -1.40561,-1.40564 -0.7764,0 -1.40564,0.62943 -1.40564,1.40564 l -3.7e-4,29.21262 c 0,2.87184 1.50922,4.38509 1.68127,4.54836 0.27417,0.25989 0.62814,0.38983 0.98065,0.38983 0.37152,0 0.74197,-0.14458 1.01614,-0.43376 0.53406,-0.56335 0.51978,-1.44369 -0.0435,-1.97777 z"
   id="path127851"
   style="fill:url(#SVGID_5_)" />
		<path
   class="st1"
   d="m 399.9631,133.49246 c -0.56296,0 -1.09412,-0.34042 -1.31046,-0.89682 -0.25806,-0.66347 -0.38873,-1.37727 -0.38873,-2.12144 0,-3.33307 2.70364,-6.52155 6.02664,-7.1076 0.76431,-0.1358 1.4935,0.37557 1.62857,1.14007 0.1347,0.7645 -0.37558,1.49348 -1.14026,1.62837 -2.00778,0.35415 -3.7037,2.34125 -3.7037,4.33916 0,0.39441 0.0666,0.76541 0.19769,1.10309 0.28113,0.7235 -0.0772,1.53815 -0.80093,1.81927 -0.16726,0.0652 -0.33932,0.0959 -0.50882,0.0959 z"
   id="path127853" />
		<path
   class="st1"
   d="m 370.61871,160.914 c -0.11969,0 -0.24121,-0.0154 -0.36237,-0.0476 -0.75006,-0.19968 -1.19626,-0.96985 -0.99677,-1.71989 l 6.92273,-26.00894 c 0.20023,-0.75021 0.97003,-1.19551 1.72006,-0.99693 0.75006,0.19968 1.19626,0.96985 0.99677,1.71988 l -6.92273,26.00896 c -0.16765,0.62905 -0.73614,1.04451 -1.35769,1.04451 z"
   id="path127855" />
		
			<linearGradient
   id="SVGID_6_"
   gradientUnits="userSpaceOnUse"
   x1="354.57983"
   y1="157.72301"
   x2="365.99689"
   y2="187.46545"
   gradientTransform="translate(0,3.82398)">
			<stop
   offset="0"
   style="stop-color:#FFFFFF"
   id="stop127857" />
			<stop
   offset="0.21678"
   style="stop-color:#FFFFFC"
   id="stop127859" />
			<stop
   offset="0.39094"
   style="stop-color:#FFFEF2"
   id="stop127861" />
			<stop
   offset="0.55028"
   style="stop-color:#FEFCE1"
   id="stop127863" />
			<stop
   offset="0.70081"
   style="stop-color:#FEFAC9"
   id="stop127865" />
			<stop
   offset="0.84512"
   style="stop-color:#FDF7AA"
   id="stop127867" />
			<stop
   offset="0.98295"
   style="stop-color:#FCF385"
   id="stop127869" />
			<stop
   offset="1"
   style="stop-color:#FCF380"
   id="stop127871" />
		</linearGradient>
		<path
   class="st7"
   d="m 366.87878,188.74806 c -0.0128,-0.0113 -1.28079,-1.14793 -1.90747,-2.77466 l -9.03082,-23.44495 c -0.27893,-0.72423 -1.09192,-1.08461 -1.81671,-0.80641 -0.72443,0.27911 -1.08569,1.09267 -0.8064,1.81708 l 9.03079,23.44458 c 0.8833,2.29404 2.60446,3.81461 2.67731,3.8783 0.26611,0.23245 0.59445,0.34628 0.92136,0.34628 0.3902,0 0.7782,-0.16179 1.0564,-0.47806 0.51138,-0.58128 0.45465,-1.46823 -0.12446,-1.98216 z"
   id="path127874"
   style="fill:url(#SVGID_6_)" />
		<path
   class="st1"
   d="m 338.63364,166.79623 c -0.11969,0 -0.24121,-0.0154 -0.3624,-0.0476 -0.75003,-0.19968 -1.19623,-0.96985 -0.99673,-1.71988 l 6.80634,-25.57097 c 0.20023,-0.75003 0.97003,-1.19571 1.72006,-0.99693 0.75003,0.19968 1.19626,0.96985 0.99677,1.71988 l -6.80634,25.57097 c -0.16767,0.62906 -0.73615,1.04452 -1.3577,1.04452 z"
   id="path127876" />
		
			<linearGradient
   id="SVGID_7_"
   gradientUnits="userSpaceOnUse"
   x1="315.05078"
   y1="143.40468"
   x2="333.85272"
   y2="192.38544"
   gradientTransform="translate(0,3.82398)">
			<stop
   offset="0"
   style="stop-color:#FFFFFF"
   id="stop127878" />
			<stop
   offset="0.21678"
   style="stop-color:#FFFFFC"
   id="stop127880" />
			<stop
   offset="0.39094"
   style="stop-color:#FFFEF2"
   id="stop127882" />
			<stop
   offset="0.55028"
   style="stop-color:#FEFCE1"
   id="stop127884" />
			<stop
   offset="0.70081"
   style="stop-color:#FEFAC9"
   id="stop127886" />
			<stop
   offset="0.84512"
   style="stop-color:#FDF7AA"
   id="stop127888" />
			<stop
   offset="0.98295"
   style="stop-color:#FCF385"
   id="stop127890" />
			<stop
   offset="1"
   style="stop-color:#FCF380"
   id="stop127892" />
		</linearGradient>
		<path
   class="st8"
   d="m 334.75534,193.52393 c -0.015,-0.011 -1.53339,-1.10876 -2.13223,-2.67363 l -16.30972,-42.59943 c -0.2771,-0.72479 -1.08826,-1.08717 -1.81525,-0.81007 -0.72516,0.27747 -1.08752,1.09027 -0.81006,1.81525 l 16.30972,42.59943 c 0.9111,2.38042 3.0459,3.90172 3.13629,3.96504 0.24564,0.17278 0.52676,0.25551 0.80533,0.25551 0.44,0 0.87375,-0.20718 1.14792,-0.5941 0.44769,-0.63145 0.29797,-1.50776 -0.332,-1.958 z"
   id="path127895"
   style="fill:url(#SVGID_7_)" />
		<circle
   class="st1"
   cx="378.5188"
   cy="129.8243"
   r="1.40562"
   id="circle127897" />
		<circle
   class="st1"
   cx="346.41721"
   cy="136.1445"
   r="1.40563"
   id="circle127899" />
		<circle
   class="st1"
   cx="313.52109"
   cy="144.88829"
   r="1.59305"
   id="circle127901" />
	</g>
</g>
<g
   id="리듬_세상_00000001652036029481234410000004644106815103224492_"
   transform="scale(1.3333334)">
	<path
   id="상_2_"
   class="st9"
   d="m 350.54904,88.91685 c -5.33325,-1.33694 -14.81363,-1.5386 -24.35861,4.84517 -8.23236,5.50587 -11.13303,15.18898 -8.20947,21.84345 4.48059,10.19842 22.44305,8.87263 33.77933,1.30635 6.33463,-4.22797 9.52008,-9.37783 9.52008,-15.34163 -1e-5,-5.32392 -2.77796,-10.65958 -10.73133,-12.65334 z m -14.00577,24.70541 c -1.91159,-0.0376 -5.81052,-0.1144 -5.81052,-6.10909 0,-6.21262 4.96045,-10.66897 10.35287,-10.66958 5.535,-6.6e-4 5.9241,3.7502 5.9241,6.03339 2e-5,5.59669 -4.82356,10.85633 -10.46645,10.74528 z m 37.03934,-58.1158 v 9.22316 l -10.48529,2.03813 v 17.32088 l -14.00574,2.72244 V 46.90204 c 0,-1.79719 -1.4754,-1.77888 -3.15652,-1.45211 l -1.68869,0.32825 v -5.32592 l 18.85095,-3.66425 v 20.75658 z m -51.57501,20.2704 c 0,0 -1.53802,13.10737 -18.32089,30.03651 L 295.094,98.67806 c 8.59955,-6.96418 18.51025,-22.87785 18.51025,-37.0583 v -0.40022 c 0,-1.70339 -1.3179,-1.70169 -2.95926,-1.38264 l -1.65894,0.32246 v -5.04787 l 18.41562,-3.57964 v 7.40596 c 0,14.48235 7.9895,16.8107 18.60492,16.91475 l -5.28049,8.21413 c -16.13082,-1.44708 -18.7185,-8.28983 -18.7185,-8.28983 z" />
	<path
   id="세_00000151518686254035028310000006543246078542146693_"
   class="st10"
   d="m 251.50677,142.10277 -5.88327,8.07635 c -11.49355,-3.95294 -14.59787,-9.88284 -14.59787,-9.88284 0,0 -4.35251,8.33203 -13.47633,16.9207 l -7.61145,-6.60637 c 0,0 13.4476,-12.89078 13.4476,-25.85456 v -9.86768 c 0,-1.80458 -1.4259,-1.76683 -3.02074,-1.45683 l -1.60196,0.31139 v -5.70126 l 17.61305,-3.42363 -3e-5,18.15327 c 2e-5,17.38169 15.131,19.33146 15.131,19.33146 z m -1.78341,-43.55068 v 5.24284 l 1.36415,-0.26516 c 1.35803,-0.26398 2.60143,-0.50567 2.60143,1.2989 v 15.2788 l -11.50348,2.23605 v 8.21956 l 11.50348,-2.23605 3e-5,45.27762 12.6178,-2.45265 V 95.3286 Z m 16.06677,-16.72488 v 5.24284 l 1.36414,-0.26516 c 1.35803,-0.26398 2.5722,-0.44183 2.5722,1.36275 v 66.76828 l 13.7153,-2.66599 V 78.39607 Z" />
	<path
   id="듬_00000135689757128352503860000016487042145683423879_"
   class="st9"
   d="m 195.40549,112.20808 -57.96877,11.26798 v 5.62411 l 0.71873,-0.13971 c 3.79379,-0.73744 3.94292,-0.11632 3.94292,1.73647 v 11.76996 c 0,3.78952 2.94661,6.28874 6.58147,5.5822 l 41.60674,-8.08752 c 3.63484,-0.70654 6.58145,-4.3513 6.58145,-8.14082 v -18.37218 c 0,-0.84211 -0.65482,-1.3975 -1.46254,-1.24049 z m -14.40531,21.76781 -24.45987,4.75452 v -10.68086 l 24.45987,-4.75452 z m 15.8678,-34.25655 5e-5,8.19164 -72.61191,14.11433 v -8.19165 z M 153.68842,87.50143 v 8.40677 l 43.17961,-8.39327 v 8.1916 l -50.04189,9.72716 c -4.0387,0.78505 -7.31273,-1.99187 -7.31273,-6.20242 l -3e-5,-9.75944 c 0,-1.68857 -0.14885,-2.20015 -3.93666,-1.46387 l -0.71764,0.1395 2e-5,-5.17755 62.00893,-12.05332 v 8.1916 z" />
	<path
   id="리_1_"
   class="st10"
   d="m 92.39727,119.56261 v 5.63727 l 1.6078,-0.31252 c 1.60058,-0.31112 3.06607,-0.59598 3.06607,1.50718 v 33.29398 c -2.36465,1.351 -5.39297,2.46663 -9.12609,3.19228 l -22.11326,4.29839 v -10.19012 l 20.50594,-3.98595 c 1.02034,-0.19833 1.84748,-1.2061 1.84748,-2.25092 v -20.1754 c 0,-1.04482 -0.82714,-1.73102 -1.84748,-1.53268 l -38.46254,7.47636 v 8.71306 l 26.23292,-5.09917 v 6.85121 l -27.45219,5.33617 v 5.7319 l 0.64815,-0.12599 c 1.30892,-0.25443 3.24982,-0.6317 3.24979,1.31697 v 13.56354 c 0,3.3434 2.64686,5.53925 5.91193,4.90459 l 28.87442,-5.61258 c 5.41643,-1.05286 9.34782,-2.37782 11.73092,-3.59633 v 31.92204 l 14.8715,-2.89072 v -81.7718 z" />
</g>
</svg>
