<?xml version="1.0" encoding="UTF-8" standalone="no"?>
<!-- Created with Inkscape (http://www.inkscape.org/) -->

<svg
   version="1.1"
   id="svg2"
   width="666.66669"
   height="717.73199"
   viewBox="0 0 666.66669 717.73199"
   sodipodi:docname="Rhythm Tengoku Wiki (リズム天国 ＷＩＫＩ) Logo.svg"
   inkscape:version="1.2.2 (b0a8486541, 2022-12-01)"
   xmlns:inkscape="http://www.inkscape.org/namespaces/inkscape"
   xmlns:sodipodi="http://sodipodi.sourceforge.net/DTD/sodipodi-0.dtd"
   xmlns="http://www.w3.org/2000/svg"
   xmlns:svg="http://www.w3.org/2000/svg">
  <defs
     id="defs6">
    <linearGradient
       x1="0"
       y1="0"
       x2="1"
       y2="0"
       gradientUnits="userSpaceOnUse"
       gradientTransform="matrix(-471.51453,294.63498,294.63498,471.51453,472.79404,112.84119)"
       spreadMethod="pad"
       id="linearGradient50">
      <stop
         style="stop-opacity:1;stop-color:#fd1e18"
         offset="0"
         id="stop22" />
      <stop
         style="stop-opacity:1;stop-color:#fd1e18"
         offset="0.0692331"
         id="stop24" />
      <stop
         style="stop-opacity:1;stop-color:#fc6510"
         offset="0.142623"
         id="stop26" />
      <stop
         style="stop-opacity:1;stop-color:#fc6510"
         offset="0.21212034"
         id="stop28" />
      <stop
         style="stop-opacity:1;stop-color:#f8fd00"
         offset="0.32623"
         id="stop30" />
      <stop
         style="stop-opacity:1;stop-color:#f8fd00"
         offset="0.41363483"
         id="stop32" />
      <stop
         style="stop-opacity:1;stop-color:#2be606"
         offset="0.540984"
         id="stop34" />
      <stop
         style="stop-opacity:1;stop-color:#2be606"
         offset="0.60717375"
         id="stop36" />
      <stop
         style="stop-opacity:1;stop-color:#01cd70"
         offset="0.7"
         id="stop38" />
      <stop
         style="stop-opacity:1;stop-color:#01cd70"
         offset="0.71297735"
         id="stop40" />
      <stop
         style="stop-opacity:1;stop-color:#03b3f4"
         offset="0.764571"
         id="stop42" />
      <stop
         style="stop-opacity:1;stop-color:#011efe"
         offset="0.903125"
         id="stop44" />
      <stop
         style="stop-opacity:1;stop-color:#011efe"
         offset="0.9286067"
         id="stop46" />
      <stop
         style="stop-opacity:1;stop-color:#b001fc"
         offset="1"
         id="stop48" />
    </linearGradient>
    <clipPath
       clipPathUnits="userSpaceOnUse"
       id="clipPath60">
      <path
         d="M 0,538.299 H 500 V 0 H 0 Z"
         id="path58" />
    </clipPath>
  </defs>
  <sodipodi:namedview
     id="namedview4"
     pagecolor="#ffffff"
     bordercolor="#000000"
     borderopacity="0.25"
     inkscape:showpageshadow="2"
     inkscape:pageopacity="0.0"
     inkscape:pagecheckerboard="0"
     inkscape:deskcolor="#d1d1d1"
     showgrid="false"
     inkscape:zoom="1.4308962"
     inkscape:cx="-52.764135"
     inkscape:cy="522.05045"
     inkscape:window-width="2560"
     inkscape:window-height="1400"
     inkscape:window-x="2560"
     inkscape:window-y="0"
     inkscape:window-maximized="1"
     inkscape:current-layer="g56" />
  <g
     id="g8"
     inkscape:groupmode="layer"
     inkscape:label="Rhythm Tengoku Wiki (リズム天国 ＷＩＫＩ) Logo"
     transform="matrix(1.3333333,0,0,-1.3333333,0,717.732)">
    <g
       id="g10">
      <g
         id="g12">
        <g
           id="g18">
          <g
             id="g20">
            <path
               d="m 333.168,538.299 c -32.192,0 -62.463,-14.016 -83.266,-38.041 v 0 c -4.208,0.488 -8.435,0.735 -12.651,0.735 v 0 c -28.483,0 -55.125,-10.691 -75.393,-29.823 v 0 c -15.819,8.462 -33.406,12.871 -51.715,12.871 v 0 C 49.41,484.041 0,434.632 0,373.898 v 0 c 0,-24.87 8.531,-49.252 24.022,-68.652 v 0 c 10.531,-13.189 24.008,-23.778 39.133,-30.94 v 0 C 60.399,264.567 58.977,254.443 58.977,244.3 v 0 c 0,-11.888 1.922,-23.645 5.643,-34.816 v 0 C 49.797,202.372 36.578,191.96 26.192,179.023 v 0 C 10.581,159.581 1.985,135.12 1.985,110.144 v 0 C 1.985,49.41 51.395,0 112.127,0 v 0 c 30.364,0 58.811,12.264 79.542,33.979 v 0 c 0.274,-0.002 0.548,-0.005 0.822,-0.005 v 0 c 21.355,0 41.686,5.982 59.393,17.389 v 0 c 8.74,-2.193 17.719,-3.302 26.805,-3.302 v 0 c 30.279,0 59.134,12.582 79.785,34.257 v 0 c 10.136,-3.024 20.642,-4.552 31.383,-4.552 v 0 C 450.59,77.766 500,127.177 500,187.91 v 0 c 0,29.164 -11.288,56.648 -31.784,77.389 v 0 c -15.341,15.525 -34.517,25.942 -55.418,30.349 v 0 c 0.009,0.545 0.013,1.089 0.013,1.633 v 0 c 0,15.917 -3.381,31.403 -9.888,45.643 v 0 c 25.291,20.715 40.389,51.893 40.389,85.232 v 0 c 0,60.733 -49.41,110.143 -110.144,110.143 z"
               style="fill:url(#linearGradient50);stroke:none"
               id="path52" />
          </g>
        </g>
      </g>
    </g>
    <g
       id="g54"
       style="display:inline">
      <g
         id="g56"
         clip-path="url(#clipPath60)">
        <g
           id="g62"
           transform="translate(461.008,258.1769)">
          <path
             d="m 0,0 c -15.992,16.185 -36.577,26.255 -58.847,28.974 0.344,3.372 0.516,6.756 0.516,10.13 0,17.176 -4.336,33.8 -12.618,48.627 26.823,18.572 43.119,49.244 43.119,82.248 0,55.146 -44.864,100.01 -100.009,100.01 -31.061,0 -60.151,-14.369 -79.053,-38.746 -5.588,0.956 -11.237,1.44 -16.865,1.44 -28.396,0 -54.779,-11.705 -73.699,-32.409 -15.962,10.14 -34.249,15.457 -53.409,15.457 -55.146,0 -100.01,-44.864 -100.01,-100.01 0,-42.525 26.449,-79.66 65.569,-93.908 -4.333,-11.356 -6.592,-23.506 -6.592,-35.691 0,-13.932 2.908,-27.665 8.48,-40.312 -16.941,-6.257 -32.095,-17.107 -43.497,-31.308 -14.171,-17.649 -21.975,-39.858 -21.975,-62.535 0,-55.146 44.864,-100.01 100.01,-100.01 29.049,0 56.169,12.367 75.196,34.107 22.75,-1.163 44.454,5.179 62.749,18.125 9.273,-2.769 18.875,-4.171 28.615,-4.171 29.626,0 57.752,13.269 76.674,35.838 11.034,-4.073 22.605,-6.132 34.495,-6.132 55.146,0 100.009,44.864 100.009,100.009 C 28.858,-43.787 18.609,-18.833 0,0"
             style="fill:#ffffff;fill-opacity:1;fill-rule:nonzero;stroke:none"
             id="path64" />
        </g>
        <g
           id="g66"
           transform="translate(391.0627,278.2892)">
          <path
             d="m 0,0 c 1.31,6.126 2.015,12.475 2.015,18.992 0,19.23 -6.022,37.044 -16.258,51.697 27.874,15.401 46.759,45.079 46.759,79.178 0,49.932 -40.478,90.41 -90.41,90.41 -31.174,0 -58.661,-15.78 -74.915,-39.786 -6.743,1.605 -13.769,2.48 -21.003,2.48 -29.376,0 -55.469,-14.021 -71.983,-35.724 -15.26,11.76 -34.369,18.772 -55.125,18.772 -49.932,0 -90.41,-40.478 -90.41,-90.41 0,-42.618 29.498,-78.327 69.185,-87.879 -6.508,-12.485 -10.208,-26.667 -10.208,-41.72 0,-16.869 4.634,-32.65 12.678,-46.165 -39.931,-9.377 -69.67,-45.199 -69.67,-87.991 0,-49.932 40.478,-90.41 90.41,-90.41 28.798,0 54.431,13.481 70.988,34.458 3.082,-0.317 6.21,-0.483 9.376,-0.483 21.079,0 40.458,7.234 55.833,19.328 9.492,-3.384 19.709,-5.241 30.364,-5.241 30.343,0 57.174,14.963 73.573,37.897 11.452,-5.245 24.176,-8.192 37.596,-8.192 49.931,0 90.409,40.478 90.409,90.41 C 89.204,-40.852 49.374,-0.648 0,0"
             style="fill:#000000;fill-opacity:1;fill-rule:nonzero;stroke:none"
             id="path68" />
        </g>
        <g
           id="g70"
           transform="translate(391.1763,128.0191)">
          <path
             d="M 0,0 V 109.191 L 33.263,119.36 V 10.17 Z"
             style="fill:#ffaa00;fill-opacity:1;fill-rule:nonzero;stroke:none"
             id="path72" />
        </g>
        <g
           id="g74"
           transform="translate(327.9266,163.9299)">
          <path
             d="M 0,0 31.706,65.023 -1.926,54.741 -19.507,3.005 C -23.883,-9.274 -30.632,-7.346 -30.65,1.02 l -0.031,44.93 -25.631,-7.836 V -68.508 l 25.662,7.845 v 15.577 c 0,11.46 1.28,17.868 5.626,20.654 12.258,7.86 25.38,2.786 25.38,-23.68 v -3.071 l 27.32,8.352 C 27.676,-3.432 12.778,3.907 0,0"
             style="fill:#ff5500;fill-opacity:1;fill-rule:nonzero;stroke:none"
             id="path76" />
        </g>
        <g
           id="g78"
           transform="translate(205.6967,77.0372)">
          <path
             d="M 0,0 V 109.191 L 33.263,119.36 V 10.17 Z"
             style="fill:#ffaa00;fill-opacity:1;fill-rule:nonzero;stroke:none"
             id="path80" />
        </g>
        <g
           id="g82"
           transform="translate(161.7187,177.4326)">
          <path
             d="m 0,0 c -7.005,-52.905 -21.714,-64.499 -23.816,-56.086 l -6.842,36.1 -14.298,-4.371 -5.978,-34.298 c -3.548,-20.361 -17.382,-15.7 -25.823,35.188 l -21.241,-6.494 18.217,-101.367 30.243,9.246 4.558,21.195 c 1.779,8.272 9.274,19.189 12.788,6.472 l 5.697,-20.622 25.251,7.72 21.153,113.404 z"
             style="fill:#ff5500;fill-opacity:1;fill-rule:nonzero;stroke:none"
             id="path84" />
        </g>
        <g
           id="g86"
           transform="translate(325.798,318.4744)">
          <path
             d="m 0,0 -54.253,-16.587 c -2.917,-0.882 -4.656,-3.439 -4.655,-6.785 v -61.862 l 54.253,16.587 C -1.957,-67.838 0,-65.444 0,-61.862 Z m 21.877,18.521 v -90.859 l -102.653,-31.384 v 90.858 z m -32.052,-71.482 v 8.693 l -6.16,-1.884 v -8.692 z m 0,-11.867 -38.549,-11.786 v 7.081 l 6.806,2.08 c 2.779,0.85 4.426,3.066 4.427,6.732 v 12.888 l -11.233,-3.434 v 7.65 l 11.233,3.434 v 13.197 c 0,1.531 -0.922,3.593 -5.164,2.296 l -6.069,-1.855 v 7.128 l 38.549,11.785 v -7.127 l -6.73,-2.058 c -2.875,-0.879 -4.501,-3.023 -4.502,-6.739 v -11.709 l 11.232,3.434 v -7.65 l -11.232,-3.435 v -14.375 c 0,-2.263 1.739,-3.359 5.239,-2.289 l 5.993,1.832 z"
             style="fill:#ff5500;fill-opacity:1;fill-rule:nonzero;stroke:none"
             id="path88" />
        </g>
        <g
           id="g90"
           transform="translate(321.2823,334.4546)">
          <path
             d="m 0,0 c -3.088,1.825 -4.604,2.33 -8.675,3.734 -0.842,0.309 -1.881,0.87 -1.881,1.881 0,0.983 1.011,2.33 2.218,3.79 4.773,5.755 4.857,5.924 5.98,7.496 l 1.937,-0.898 C -3.06,12.662 -3.537,12.156 -7.524,7.608 -7.917,7.187 -8.17,6.794 -8.17,6.457 c 0,-0.505 0.842,-0.758 1.348,-0.898 2.527,-0.73 6.85,-2.33 8.563,-3.397 z"
             style="fill:#ff5500;fill-opacity:1;fill-rule:nonzero;stroke:none"
             id="path92" />
        </g>
        <g
           id="g94"
           transform="translate(272.9129,328.5013)">
          <path
             d="m 0,0 c -1.524,-2.051 -1.58,-3.52 -1.58,-3.88 0,-2.522 3.437,-1.524 6.097,-0.721 1.746,0.527 3.52,1.137 5.239,1.94 L 9.811,-4.822 C 9.201,-5.127 7.954,-5.654 5.183,-6.513 1.663,-7.566 0.139,-7.871 -1.386,-7.538 c -1.247,0.277 -2.189,1.469 -2.189,2.993 0,1.801 0.804,3.242 2.106,5.266 z M 8.869,9.977 V 8.065 C 6.624,6.956 5.016,5.654 2.965,3.631 L 1.691,4.628 c 0.582,0.61 0.692,0.721 1.856,1.663 L 3.52,6.319 C 1.109,5.543 -1.358,4.767 -2.799,4.24 v 2.19 c 0.526,0.138 2.744,0.803 3.658,1.081 z m 3.325,-3.908 c -0.776,1.386 -1.302,1.968 -1.579,2.273 l 1.164,1.109 c 0.776,-0.804 1.33,-1.719 1.635,-2.218 z M 9.672,3.908 C 9.063,4.933 8.702,5.432 7.982,6.18 L 9.229,7.344 C 9.95,6.679 10.532,5.82 10.92,5.099 Z"
             style="fill:#ff5500;fill-opacity:1;fill-rule:nonzero;stroke:none"
             id="path96" />
        </g>
        <g
           id="g98"
           transform="translate(187.4714,238.2962)">
          <path
             d="M 0.05135301,-0.01112035 V 10.118611 L 38.17442,21.773637 V 37.638972 L 0.05135301,25.982913 V 40.188702 L 38.17442,51.843728 V 67.66982 L -64.796897,36.188031 V 20.362972 l 37.501383,11.46501 V 17.622193 L -64.796897,6.1571832 V -9.7081514 L -27.295514,1.7578907 V -4.107832 c 0,-18.787868 -10.117339,-26.38749 -25.48388,-31.096592 l -12.017503,-3.673305 v -15.900446 l 26.173722,8.002374 c 20.104558,6.137322 27.191963,13.261903 35.1592252,32.280063 4.37244187,-1.73803 16.2484648,-9.567943 21.0649668,-15.089778 l 27.071137,8.275007 C 36.572706,-12.371479 7.7718008,-1.5240224 0.05135301,-0.01112035"
             style="fill:#ffaa00;fill-opacity:1;fill-rule:nonzero;stroke:none;stroke-width:1.0327"
             id="path60" />
        </g>
        <g
           id="g102"
           transform="translate(192.1783,318.3218)">
          <path
             d="m 0,0 c -0.386,-1.296 -2.04,-6.783 -2.344,-7.913 l 0.028,-0.027 c 0.358,0.413 1.048,1.157 2.261,1.543 2.812,0.828 2.922,-1.985 2.922,-3.529 v -0.827 c 0,-0.579 0,-2.316 1.517,-1.875 1.709,0.497 2.426,3.171 2.757,6.7 l 1.875,-0.055 c -0.469,-4.384 -1.461,-7.858 -4.798,-8.85 -3.308,-0.993 -3.336,2.343 -3.336,3.419 v 0.661 c 0,1.241 0.028,2.509 -1.323,2.096 -1.765,-0.524 -2.84,-2.62 -3.474,-4.687 -0.166,-0.717 -0.855,-3.778 -1.02,-4.412 l -2.041,0.028 c 1.048,3.667 3.557,13.041 4.743,17.48 z"
             style="fill:#ffaa00;fill-opacity:1;fill-rule:nonzero;stroke:none"
             id="path104" />
        </g>
        <g
           id="g106"
           transform="translate(162.0465,308.4829)">
          <path
             d="m 0,0 v -2.197 c -0.473,-0.083 -0.918,-0.167 -1.808,-0.445 -3.031,-0.89 -7.953,-5.923 -7.981,-9.817 -0.028,-2.197 1.835,-2.336 3.087,-2.308 1.112,0.028 2.725,0.278 4.95,0.945 l -0.278,-2.419 c -1.808,-0.473 -3.894,-0.918 -5.646,-0.834 -1.946,0.055 -4.199,0.89 -4.199,3.865 0.028,1.613 0.695,5.034 5.006,9.011 l -0.028,0.028 c -3.949,-1.308 -4.422,-1.447 -8.51,-2.865 v 2.225 c 0.723,0.195 5.84,1.808 7.954,2.475 z"
             style="fill:#ffaa00;fill-opacity:1;fill-rule:nonzero;stroke:none"
             id="path108" />
        </g>
        <g
           id="g110"
           transform="translate(388.2293,418.7295)">
          <path
             d="m 0,0 -3.997,-1.222 c -2.615,-0.807 -5.494,-0.029 -7.481,2.907 l -9.117,13.472 -26.498,-8.101 11.996,-17.786 -32.682,-9.992 19.781,64.699 c 0.864,2.827 2.402,4.599 4.509,5.26 l 6.649,2.032 V 62.031 L -69.479,52.052 -92.965,-24.77 c -0.91,-2.975 -2.669,-4.468 -4.542,-5.041 l -4.046,-1.237 V -46.604 L 8.699,-12.896 Z"
             style="fill:#ff5500;fill-opacity:1;fill-rule:nonzero;stroke:none"
             id="path112" />
        </g>
        <g
           id="g114"
           transform="translate(251.4878,373.8553)">
          <path
             d="m 64.016543,135.55812 c 10.036789,15.9149 11.458813,25.92794 12.876707,36.95818 0.495695,3.99035 2.394826,6.05265 4.542837,6.70944 l 3.993442,1.22168 v 14.88221 L -8.0285768,166.75695 v -15.7662 L 50.501629,168.88534 C 49.152926,148.08578 41.687554,120.24838 8.9221227,110.23121 L -8.0285768,105.04913 V 89.481221 L 9.2980246,94.779992 C 31.72512,101.63504 42.552955,108.22261 55.779746,124.50929 c 3.414099,-1.65851 7.926988,-5.72115 10.48498,-12.31389 l 26.376131,8.06434 c -3.712548,4.55833 -19.480809,14.09219 -28.624314,15.29838 m 6.863309,59.49991 c 3.768314,1.17108 5.78827,5.09326 4.68948,8.78929 -1.171079,3.69706 -5.094298,5.78827 -8.790323,4.68948 -3.769346,-1.09879 -5.78827,-5.09327 -4.68948,-8.78929 1.171079,-3.69603 5.094298,-5.78827 8.790323,-4.68948 m 7.733873,9.7404 c -1.099823,3.69603 0.920133,7.61925 4.68948,8.79136 3.694992,1.17108 7.690499,-0.92117 8.789289,-4.68948 1.17108,-3.69603 -0.920133,-7.61924 -4.68948,-8.79032 -3.696025,-1.09879 -7.61821,0.92013 -8.789289,4.68844"
             style="display:inline;fill:#ffaa00;fill-opacity:1;fill-rule:nonzero;stroke:none;stroke-width:1.0327"
             id="path76-3"
             transform="translate(-64.0164,-135.5591)" />
        </g>
        <g
           id="g118"
           transform="translate(100.6031,366.306)">
          <path
             d="m 0,0 -2.199,-0.672 c -3.468,-1.061 -5.168,0.091 -5.168,2.273 v 23.728 c 0,3.188 1.158,5.611 4.384,6.597 L 0,32.838 V 44.381 L -36.329,33.274 V 21.732 l 2.207,0.674 c 3.478,1.063 5.161,-0.085 5.161,-2.252 V -3.575 c 0,-3.218 -1.161,-5.634 -4.378,-6.618 l -2.99,-0.914 V -22.626 L 0,-11.519 Z M 64.142,63.991 V 52.448 L 61.314,51.583 C 58.053,50.586 56.941,48.272 56.941,45.007 V -2.232 c 0,-15.458 -8.303,-27.319 -21.321,-31.253 l -64.305,-19.66 v 15.528 L 17.3,-23.558 c 8.834,2.713 12.969,10.39 12.969,20.826 v 40.998 c 0,2.169 -1.692,3.309 -5.165,2.247 L 22.797,39.808 V 51.35 Z"
             style="fill:#ff5500;fill-opacity:1;fill-rule:nonzero;stroke:none"
             id="path120" />
        </g>
      </g>
    </g>
  </g>
</svg>
