<?xml version="1.0" encoding="UTF-8" standalone="no"?>
<!-- Generator: Adobe Illustrator 25.0.0, SVG Export Plug-In . SVG Version: 6.00 Build 0)  -->

<svg
   version="1.1"
   id="Layer_1"
   x="0px"
   y="0px"
   viewBox="0 0 666.66669 666.66669"
   xml:space="preserve"
   sodipodi:docname="Rhythm World Wiki (리듬 세상 ＷＩＫＩ).svg"
   width="666.66669"
   height="666.66669"
   inkscape:version="1.2.2 (b0a8486541, 2022-12-01)"
   xmlns:inkscape="http://www.inkscape.org/namespaces/inkscape"
   xmlns:sodipodi="http://sodipodi.sourceforge.net/DTD/sodipodi-0.dtd"
   xmlns="http://www.w3.org/2000/svg"
   xmlns:svg="http://www.w3.org/2000/svg"><defs
   id="defs126898" /><sodipodi:namedview
   id="namedview126896"
   pagecolor="#505050"
   bordercolor="#eeeeee"
   borderopacity="1"
   inkscape:showpageshadow="0"
   inkscape:pageopacity="0"
   inkscape:pagecheckerboard="0"
   inkscape:deskcolor="#505050"
   showgrid="false"
   inkscape:zoom="2.054"
   inkscape:cx="250"
   inkscape:cy="249.75657"
   inkscape:window-width="2560"
   inkscape:window-height="1412"
   inkscape:window-x="0"
   inkscape:window-y="0"
   inkscape:window-maximized="1"
   inkscape:current-layer="Layer_1" />
<style
   type="text/css"
   id="style126068">
	.st0{fill:#00283C;}
	.st1{fill:#003550;}
	.st2{fill:#003C5A;}
	.st3{fill:#323232;}
	.st4{fill:url(#SVGID_1_);}
	.st5{fill:url(#Spectrum_1_);}
	.st6{fill:#FFFFFF;}
	.st7{fill:url(#SVGID_2_);}
	.st8{fill:url(#SVGID_3_);}
	.st9{fill:url(#SVGID_4_);}
	.st10{fill:url(#SVGID_5_);}
	.st11{fill:url(#SVGID_6_);}
	.st12{fill:url(#SVGID_7_);}
	.st13{fill:url(#SVGID_8_);}
	.st14{fill:#FF5500;}
	.st15{fill:#FFAA00;}
</style>
<g
   id="Background_1_"
   transform="matrix(1.3333333,0,0,1.3333333,1.3333333e-5,1.3333333e-5)">
	<rect
   x="-9.9999997e-06"
   y="-9.9999997e-06"
   width="500"
   height="500"
   id="rect126070" />
	<rect
   x="464.28571"
   y="464.28574"
   class="st0"
   width="35.714291"
   height="35.714291"
   id="rect126072" />
	<rect
   x="428.57141"
   y="464.28574"
   class="st1"
   width="35.714291"
   height="35.714291"
   id="rect126074" />
	<polygon
   class="st2"
   points="449.41183,483.72852 450.22229,487.98083 446.42856,485.896 442.63483,487.98083 443.44531,483.72852 440.29016,480.76471 444.58481,480.2215 446.42856,476.3049 448.27231,480.2215 452.56696,480.76471 "
   id="polygon126076" />
	<rect
   x="392.85715"
   y="464.28574"
   class="st0"
   width="35.714291"
   height="35.714291"
   id="rect126078" />
	<rect
   x="357.14285"
   y="464.28574"
   class="st1"
   width="35.714291"
   height="35.714291"
   id="rect126080" />
	<polygon
   class="st2"
   points="377.98325,483.72852 378.79373,487.98083 375,485.896 371.20627,487.98083 372.01672,483.72852 368.8616,480.76471 373.15625,480.2215 375,476.3049 376.84375,480.2215 381.1384,480.76471 "
   id="polygon126082" />
	<rect
   x="321.42856"
   y="464.28574"
   class="st0"
   width="35.714291"
   height="35.714291"
   id="rect126084" />
	<rect
   x="285.71426"
   y="464.28574"
   class="st1"
   width="35.714291"
   height="35.714291"
   id="rect126086" />
	<polygon
   class="st2"
   points="306.55469,483.72852 307.36514,487.98083 303.57141,485.896 299.77768,487.98083 300.58817,483.72852 297.43301,480.76471 301.72766,480.2215 303.57141,476.3049 305.41519,480.2215 309.70981,480.76471 "
   id="polygon126088" />
	<rect
   x="250"
   y="464.28574"
   class="st0"
   width="35.714291"
   height="35.714291"
   id="rect126090" />
	<rect
   x="214.28571"
   y="464.28574"
   class="st1"
   width="35.714291"
   height="35.714291"
   id="rect126092" />
	<polygon
   class="st2"
   points="235.12611,483.72852 235.93658,487.98083 232.14285,485.896 228.34912,487.98083 229.15959,483.72852 226.00446,480.76471 230.29909,480.2215 232.14285,476.3049 233.9866,480.2215 238.28125,480.76471 "
   id="polygon126094" />
	<rect
   x="178.57143"
   y="464.28574"
   class="st0"
   width="35.714291"
   height="35.714291"
   id="rect126096" />
	<rect
   x="142.85713"
   y="464.28574"
   class="st1"
   width="35.714291"
   height="35.714291"
   id="rect126098" />
	<polygon
   class="st2"
   points="163.69754,483.72852 164.50801,487.98083 160.71428,485.896 156.92055,487.98083 157.73102,483.72852 154.57588,480.76471 158.87051,480.2215 160.71428,476.3049 162.55803,480.2215 166.85268,480.76471 "
   id="polygon126100" />
	<rect
   x="107.14285"
   y="464.28574"
   class="st0"
   width="35.714291"
   height="35.714291"
   id="rect126102" />
	<rect
   x="71.428574"
   y="464.28574"
   class="st1"
   width="35.714291"
   height="35.714291"
   id="rect126104" />
	<polygon
   class="st2"
   points="92.26897,483.72852 93.07944,487.98083 89.28571,485.896 85.49197,487.98083 86.30244,483.72852 83.14732,480.76471 87.44195,480.2215 89.28571,476.3049 91.12946,480.2215 95.4241,480.76471 "
   id="polygon126106" />
	<rect
   x="35.714279"
   y="464.28574"
   class="st0"
   width="35.714291"
   height="35.714291"
   id="rect126108" />
	<rect
   x="-9.9999997e-06"
   y="464.28574"
   class="st1"
   width="35.714291"
   height="35.714291"
   id="rect126110" />
	<polygon
   class="st2"
   points="20.8404,483.72852 21.65087,487.98083 17.85714,485.896 14.0634,487.98083 14.87387,483.72852 11.71874,480.76471 16.01338,480.2215 17.85714,476.3049 19.70089,480.2215 23.99553,480.76471 "
   id="polygon126112" />
	<rect
   x="464.28571"
   y="428.57144"
   class="st2"
   width="35.714291"
   height="35.714291"
   id="rect126114" />
	<polygon
   class="st1"
   points="485.1261,448.01422 485.93658,452.26654 482.14285,450.1817 478.34912,452.26654 479.15958,448.01422 476.00446,445.05045 480.2991,444.5072 482.14285,440.59064 483.9866,444.5072 488.28125,445.05045 "
   id="polygon126116" />
	<rect
   x="428.57141"
   y="428.57144"
   class="st0"
   width="35.714291"
   height="35.714291"
   id="rect126118" />
	<rect
   x="392.85715"
   y="428.57144"
   class="st2"
   width="35.714298"
   height="35.714298"
   id="rect126120" />
	<path
   class="st0"
   d="m 417.60229,436.79135 c -1.8866,-0.56305 -3.77902,-1.49826 -3.77902,-2.30865 0,-1.43762 -0.67154,-2.02472 -2.19534,-2.02472 -1.5238,0 -2.1954,0.5871 -2.1954,2.02472 v 12.67657 c -5.125,-0.24582 -10.75958,2.87735 -10.75958,7.70242 0,3.43137 2.58359,5.53751 6.57184,5.53751 5.07938,0 8.57846,-4.16498 8.57846,-6.83908 V 442.0271 c 3.01312,0 4.97397,1.37851 4.97397,2.8999 0,0.64676 -0.64117,1.7738 0.37,2.31839 1.54196,0.83051 3.58847,-1.47787 3.58847,-4.14752 -1e-5,-3.4288 -1.52843,-5.22467 -5.1534,-6.30652 z"
   id="path126122" />
	<rect
   x="357.14285"
   y="428.57144"
   class="st0"
   width="35.714291"
   height="35.714291"
   id="rect126124" />
	<rect
   x="321.42856"
   y="428.57144"
   class="st2"
   width="35.714291"
   height="35.714291"
   id="rect126126" />
	<polygon
   class="st1"
   points="342.26898,448.01422 343.07944,452.26654 339.28571,450.1817 335.49197,452.26654 336.30246,448.01422 333.14731,445.05045 337.44196,444.5072 339.28571,440.59064 341.12946,444.5072 345.4241,445.05045 "
   id="polygon126128" />
	<rect
   x="285.71426"
   y="428.57144"
   class="st0"
   width="35.714291"
   height="35.714291"
   id="rect126130" />
	<rect
   x="249.99998"
   y="428.57144"
   class="st2"
   width="35.714298"
   height="35.714298"
   id="rect126132" />
	<path
   class="st0"
   d="m 274.74515,436.79135 c -1.8866,-0.56305 -3.77902,-1.49826 -3.77902,-2.30865 0,-1.43762 -0.67154,-2.02472 -2.19534,-2.02472 -1.5238,0 -2.1954,0.5871 -2.1954,2.02472 v 12.67657 c -5.125,-0.24582 -10.75958,2.87735 -10.75958,7.70242 0,3.43137 2.58359,5.53751 6.57184,5.53751 5.07938,0 8.57846,-4.16498 8.57846,-6.83908 V 442.0271 c 3.01312,0 4.97397,1.37851 4.97397,2.8999 0,0.64676 -0.6412,1.7738 0.37,2.31839 1.54196,0.83051 3.58847,-1.47787 3.58847,-4.14752 -2e-5,-3.4288 -1.52843,-5.22467 -5.1534,-6.30652 z"
   id="path126134" />
	<rect
   x="214.28571"
   y="428.57144"
   class="st0"
   width="35.714291"
   height="35.714291"
   id="rect126136" />
	<rect
   x="178.57143"
   y="428.57144"
   class="st2"
   width="35.714291"
   height="35.714291"
   id="rect126138" />
	<polygon
   class="st1"
   points="199.41182,448.01422 200.22231,452.26654 196.42856,450.1817 192.63483,452.26654 193.4453,448.01422 190.29018,445.05045 194.58481,444.5072 196.42856,440.59064 198.27232,444.5072 202.56696,445.05045 "
   id="polygon126140" />
	<rect
   x="142.85713"
   y="428.57144"
   class="st0"
   width="35.714291"
   height="35.714291"
   id="rect126142" />
	<rect
   x="107.14495"
   y="428.57144"
   class="st2"
   width="35.714298"
   height="35.714298"
   id="rect126144" />
	<path
   class="st0"
   d="m 131.89012,436.79135 c -1.8866,-0.56305 -3.77902,-1.49826 -3.77902,-2.30865 0,-1.43762 -0.67154,-2.02472 -2.19535,-2.02472 -1.52381,0 -2.1954,0.5871 -2.1954,2.02472 v 12.67657 c -5.12501,-0.24582 -10.75959,2.87735 -10.75959,7.70242 0,3.43137 2.58358,5.53751 6.57183,5.53751 5.07938,0 8.57846,-4.16498 8.57846,-6.83908 V 442.0271 c 3.01314,0 4.97398,1.37851 4.97398,2.8999 0,0.64676 -0.6412,1.7738 0.36998,2.31839 1.54198,0.83051 3.58849,-1.47787 3.58849,-4.14752 0,-3.4288 -1.52842,-5.22467 -5.15338,-6.30652 z"
   id="path126146" />
	<rect
   x="71.428574"
   y="428.57144"
   class="st0"
   width="35.714291"
   height="35.714291"
   id="rect126148" />
	<rect
   x="35.714272"
   y="428.57144"
   class="st2"
   width="35.714298"
   height="35.714298"
   id="rect126150" />
	<polygon
   class="st1"
   points="56.55468,448.01422 57.36516,452.26654 53.57142,450.1817 49.77769,452.26654 50.58816,448.01422 47.43303,445.05045 51.72766,444.5072 53.57142,440.59064 55.41518,444.5072 59.70982,445.05045 "
   id="polygon126152" />
	<rect
   x="-9.9999997e-06"
   y="428.57144"
   class="st0"
   width="35.714291"
   height="35.714291"
   id="rect126154" />
	<rect
   x="464.28571"
   y="392.85715"
   class="st0"
   width="35.714291"
   height="35.714291"
   id="rect126156" />
	<rect
   x="428.57141"
   y="392.85715"
   class="st1"
   width="35.714291"
   height="35.714291"
   id="rect126158" />
	<polygon
   class="st2"
   points="449.41183,412.29996 450.22229,416.55225 446.42856,414.46741 442.63483,416.55225 443.44531,412.29996 440.29016,409.33615 444.58481,408.79291 446.42856,404.87634 448.27231,408.79291 452.56696,409.33615 "
   id="polygon126160" />
	<rect
   x="392.85715"
   y="392.85715"
   class="st0"
   width="35.714291"
   height="35.714291"
   id="rect126162" />
	<rect
   x="357.14285"
   y="392.85715"
   class="st1"
   width="35.714291"
   height="35.714291"
   id="rect126164" />
	<polygon
   class="st2"
   points="377.98325,412.29996 378.79373,416.55225 375,414.46741 371.20627,416.55225 372.01672,412.29996 368.8616,409.33615 373.15625,408.79291 375,404.87634 376.84375,408.79291 381.1384,409.33615 "
   id="polygon126166" />
	<rect
   x="321.42856"
   y="392.85715"
   class="st0"
   width="35.714291"
   height="35.714291"
   id="rect126168" />
	<rect
   x="285.71426"
   y="392.85715"
   class="st1"
   width="35.714291"
   height="35.714291"
   id="rect126170" />
	<polygon
   class="st2"
   points="306.55469,412.29996 307.36514,416.55225 303.57141,414.46741 299.77768,416.55225 300.58817,412.29996 297.43301,409.33615 301.72766,408.79291 303.57141,404.87634 305.41519,408.79291 309.70981,409.33615 "
   id="polygon126172" />
	<rect
   x="250"
   y="392.85715"
   class="st0"
   width="35.714291"
   height="35.714291"
   id="rect126174" />
	<rect
   x="214.28571"
   y="392.85715"
   class="st1"
   width="35.714291"
   height="35.714291"
   id="rect126176" />
	<polygon
   class="st2"
   points="235.12611,412.29996 235.93658,416.55225 232.14285,414.46741 228.34912,416.55225 229.15959,412.29996 226.00446,409.33615 230.29909,408.79291 232.14285,404.87634 233.9866,408.79291 238.28125,409.33615 "
   id="polygon126178" />
	<rect
   x="178.57143"
   y="392.85715"
   class="st0"
   width="35.714291"
   height="35.714291"
   id="rect126180" />
	<rect
   x="142.85713"
   y="392.85715"
   class="st1"
   width="35.714291"
   height="35.714291"
   id="rect126182" />
	<polygon
   class="st2"
   points="163.69754,412.29996 164.50801,416.55225 160.71428,414.46741 156.92055,416.55225 157.73102,412.29996 154.57588,409.33615 158.87051,408.79291 160.71428,404.87634 162.55803,408.79291 166.85268,409.33615 "
   id="polygon126184" />
	<rect
   x="107.14285"
   y="392.85715"
   class="st0"
   width="35.714291"
   height="35.714291"
   id="rect126186" />
	<rect
   x="71.428574"
   y="392.85715"
   class="st1"
   width="35.714291"
   height="35.714291"
   id="rect126188" />
	<polygon
   class="st2"
   points="92.26897,412.29996 93.07944,416.55225 89.28571,414.46741 85.49197,416.55225 86.30244,412.29996 83.14732,409.33615 87.44195,408.79291 89.28571,404.87634 91.12946,408.79291 95.4241,409.33615 "
   id="polygon126190" />
	<rect
   x="35.714279"
   y="392.85715"
   class="st0"
   width="35.714291"
   height="35.714291"
   id="rect126192" />
	<rect
   x="-9.9999997e-06"
   y="392.85715"
   class="st1"
   width="35.714291"
   height="35.714291"
   id="rect126194" />
	<polygon
   class="st2"
   points="20.8404,412.29996 21.65087,416.55225 17.85714,414.46741 14.0634,416.55225 14.87387,412.29996 11.71874,409.33615 16.01338,408.79291 17.85714,404.87634 19.70089,408.79291 23.99553,409.33615 "
   id="polygon126196" />
	<rect
   x="464.28571"
   y="357.14285"
   class="st2"
   width="35.714298"
   height="35.714298"
   id="rect126198" />
	<path
   class="st0"
   d="m 489.03088,365.36276 c -1.8866,-0.56305 -3.77902,-1.49823 -3.77902,-2.30862 0,-1.43765 -0.67154,-2.02475 -2.19537,-2.02475 -1.5238,0 -2.19537,0.5871 -2.19537,2.02475 v 12.67654 c -5.12503,-0.24582 -10.75961,2.87738 -10.75961,7.70242 0,3.43137 2.58359,5.53751 6.57184,5.53751 5.07938,0 8.57846,-4.16495 8.57846,-6.83905 v -11.53305 c 3.01315,0 4.974,1.37851 4.974,2.89993 0,0.64673 -0.6412,1.77377 0.36996,2.31839 1.54199,0.83047 3.5885,-1.47791 3.5885,-4.14755 0,-3.4288 -1.52845,-5.22467 -5.15339,-6.30652 z"
   id="path126200" />
	<rect
   x="428.57141"
   y="357.14285"
   class="st0"
   width="35.714291"
   height="35.714291"
   id="rect126202" />
	<rect
   x="392.85715"
   y="357.14285"
   class="st2"
   width="35.714291"
   height="35.714291"
   id="rect126204" />
	<polygon
   class="st1"
   points="413.69754,376.58566 414.50803,380.83795 410.71426,378.75311 406.92053,380.83795 407.73102,376.58566 404.5759,373.62186 408.87051,373.07861 410.71426,369.16205 412.55804,373.07861 416.85266,373.62186 "
   id="polygon126206" />
	<rect
   x="357.14285"
   y="357.14285"
   class="st0"
   width="35.714291"
   height="35.714291"
   id="rect126208" />
	<rect
   x="321.42856"
   y="357.14285"
   class="st2"
   width="35.714298"
   height="35.714298"
   id="rect126210" />
	<path
   class="st0"
   d="m 346.17374,365.36276 c -1.8866,-0.56305 -3.77902,-1.49823 -3.77902,-2.30862 0,-1.43765 -0.67154,-2.02475 -2.19537,-2.02475 -1.5238,0 -2.19537,0.5871 -2.19537,2.02475 v 12.67654 c -5.12503,-0.24582 -10.75961,2.87738 -10.75961,7.70242 0,3.43137 2.58359,5.53751 6.57184,5.53751 5.07938,0 8.57846,-4.16495 8.57846,-6.83905 v -11.53305 c 3.01315,0 4.97397,1.37851 4.97397,2.89993 0,0.64673 -0.64117,1.77377 0.37,2.31839 1.54196,0.83047 3.58847,-1.47791 3.58847,-4.14755 -2e-5,-3.4288 -1.52843,-5.22467 -5.15337,-6.30652 z"
   id="path126212" />
	<rect
   x="285.71426"
   y="357.14285"
   class="st0"
   width="35.714291"
   height="35.714291"
   id="rect126214" />
	<rect
   x="250"
   y="357.14285"
   class="st2"
   width="35.714291"
   height="35.714291"
   id="rect126216" />
	<polygon
   class="st1"
   points="270.84039,376.58566 271.65088,380.83795 267.85715,378.75311 264.06342,380.83795 264.87387,376.58566 261.71875,373.62186 266.01337,373.07861 267.85715,369.16205 269.7009,373.07861 273.99551,373.62186 "
   id="polygon126218" />
	<rect
   x="214.28571"
   y="357.14285"
   class="st0"
   width="35.714291"
   height="35.714291"
   id="rect126220" />
	<rect
   x="178.57143"
   y="357.14285"
   class="st3"
   width="35.714298"
   height="35.714298"
   id="rect126222" />
	<path
   d="m 203.31659,365.36276 c -1.8866,-0.56305 -3.77902,-1.49823 -3.77902,-2.30862 0,-1.43765 -0.67154,-2.02475 -2.19534,-2.02475 -1.52382,0 -2.1954,0.5871 -2.1954,2.02475 v 12.67654 c -5.12502,-0.24582 -10.7596,2.87738 -10.7596,7.70242 0,3.43137 2.58359,5.53751 6.57184,5.53751 5.07938,0 8.57846,-4.16495 8.57846,-6.83905 v -11.53305 c 3.01314,0 4.97398,1.37851 4.97398,2.89993 0,0.64673 -0.6412,1.77377 0.36998,2.31839 1.54198,0.83047 3.58849,-1.47791 3.58849,-4.14755 -1e-5,-3.4288 -1.52844,-5.22467 -5.15339,-6.30652 z"
   id="path126224" />
	<rect
   x="178.57143"
   y="357.14285"
   class="st2"
   width="35.714298"
   height="35.714298"
   id="rect126226" />
	<path
   class="st0"
   d="m 203.31659,365.36276 c -1.8866,-0.56305 -3.77902,-1.49823 -3.77902,-2.30862 0,-1.43765 -0.67154,-2.02475 -2.19534,-2.02475 -1.52382,0 -2.1954,0.5871 -2.1954,2.02475 v 12.67654 c -5.12502,-0.24582 -10.7596,2.87738 -10.7596,7.70242 0,3.43137 2.58359,5.53751 6.57184,5.53751 5.07938,0 8.57846,-4.16495 8.57846,-6.83905 v -11.53305 c 3.01314,0 4.97398,1.37851 4.97398,2.89993 0,0.64673 -0.6412,1.77377 0.36998,2.31839 1.54198,0.83047 3.58849,-1.47791 3.58849,-4.14755 -1e-5,-3.4288 -1.52844,-5.22467 -5.15339,-6.30652 z"
   id="path126228" />
	<rect
   x="142.85713"
   y="357.14285"
   class="st0"
   width="35.714291"
   height="35.714291"
   id="rect126230" />
	<rect
   x="107.14285"
   y="357.14285"
   class="st2"
   width="35.714291"
   height="35.714291"
   id="rect126232" />
	<polygon
   class="st1"
   points="127.98325,376.58566 128.79373,380.83795 124.99999,378.75311 121.20626,380.83795 122.01673,376.58566 118.8616,373.62186 123.15623,373.07861 124.99999,369.16205 126.84375,373.07861 131.13838,373.62186 "
   id="polygon126234" />
	<rect
   x="71.428574"
   y="357.14285"
   class="st0"
   width="35.714291"
   height="35.714291"
   id="rect126236" />
	<rect
   x="35.715321"
   y="357.14285"
   class="st2"
   width="35.714298"
   height="35.714298"
   id="rect126238" />
	<path
   class="st0"
   d="m 60.46049,365.36276 c -1.8866,-0.56305 -3.77903,-1.49823 -3.77903,-2.30862 0,-1.43765 -0.67154,-2.02475 -2.19535,-2.02475 -1.52381,0 -2.19539,0.5871 -2.19539,2.02475 v 12.67654 c -5.12502,-0.24582 -10.7596,2.87738 -10.7596,7.70242 0,3.43137 2.58358,5.53751 6.57184,5.53751 5.07938,0 8.57846,-4.16495 8.57846,-6.83905 v -11.53305 c 3.01314,0 4.97398,1.37851 4.97398,2.89993 0,0.64673 -0.64119,1.77377 0.36998,2.31839 1.54198,0.83047 3.58849,-1.47791 3.58849,-4.14755 0,-3.4288 -1.52842,-5.22467 -5.15338,-6.30652 z"
   id="path126240" />
	<rect
   x="-9.9999997e-06"
   y="357.14285"
   class="st0"
   width="35.714291"
   height="35.714291"
   id="rect126242" />
	<rect
   x="464.28571"
   y="321.42859"
   class="st0"
   width="35.714291"
   height="35.714291"
   id="rect126244" />
	<rect
   x="428.57141"
   y="321.42859"
   class="st1"
   width="35.714291"
   height="35.714291"
   id="rect126246" />
	<polygon
   class="st2"
   points="449.41183,340.87137 450.22229,345.12369 446.42856,343.03885 442.63483,345.12369 443.44531,340.87137 440.29016,337.90756 444.58481,337.36435 446.42856,333.44775 448.27231,337.36435 452.56696,337.90756 "
   id="polygon126248" />
	<rect
   x="392.85715"
   y="321.42859"
   class="st0"
   width="35.714291"
   height="35.714291"
   id="rect126250" />
	<rect
   x="357.14285"
   y="321.42859"
   class="st1"
   width="35.714291"
   height="35.714291"
   id="rect126252" />
	<polygon
   class="st2"
   points="377.98325,340.87137 378.79373,345.12369 375,343.03885 371.20627,345.12369 372.01672,340.87137 368.8616,337.90756 373.15625,337.36435 375,333.44775 376.84375,337.36435 381.1384,337.90756 "
   id="polygon126254" />
	<rect
   x="321.42856"
   y="321.42859"
   class="st0"
   width="35.714291"
   height="35.714291"
   id="rect126256" />
	<rect
   x="285.71426"
   y="321.42859"
   class="st1"
   width="35.714291"
   height="35.714291"
   id="rect126258" />
	<polygon
   class="st2"
   points="306.55469,340.87137 307.36514,345.12369 303.57141,343.03885 299.77768,345.12369 300.58817,340.87137 297.43301,337.90756 301.72766,337.36435 303.57141,333.44775 305.41519,337.36435 309.70981,337.90756 "
   id="polygon126260" />
	<rect
   x="250"
   y="321.42859"
   class="st0"
   width="35.714291"
   height="35.714291"
   id="rect126262" />
	<rect
   x="214.28571"
   y="321.42859"
   class="st1"
   width="35.714291"
   height="35.714291"
   id="rect126264" />
	<polygon
   class="st2"
   points="235.12611,340.87137 235.93658,345.12369 232.14285,343.03885 228.34912,345.12369 229.15959,340.87137 226.00446,337.90756 230.29909,337.36435 232.14285,333.44775 233.9866,337.36435 238.28125,337.90756 "
   id="polygon126266" />
	<rect
   x="178.57143"
   y="321.42859"
   class="st0"
   width="35.714291"
   height="35.714291"
   id="rect126268" />
	<rect
   x="142.85713"
   y="321.42859"
   class="st1"
   width="35.714291"
   height="35.714291"
   id="rect126270" />
	<polygon
   class="st2"
   points="163.69754,340.87137 164.50801,345.12369 160.71428,343.03885 156.92055,345.12369 157.73102,340.87137 154.57588,337.90756 158.87051,337.36435 160.71428,333.44775 162.55803,337.36435 166.85268,337.90756 "
   id="polygon126272" />
	<rect
   x="107.14285"
   y="321.42859"
   class="st0"
   width="35.714291"
   height="35.714291"
   id="rect126274" />
	<rect
   x="71.428574"
   y="321.42859"
   class="st1"
   width="35.714291"
   height="35.714291"
   id="rect126276" />
	<polygon
   class="st2"
   points="92.26897,340.87137 93.07944,345.12369 89.28571,343.03885 85.49197,345.12369 86.30244,340.87137 83.14732,337.90756 87.44195,337.36435 89.28571,333.44775 91.12946,337.36435 95.4241,337.90756 "
   id="polygon126278" />
	<rect
   x="35.714279"
   y="321.42859"
   class="st0"
   width="35.714291"
   height="35.714291"
   id="rect126280" />
	<rect
   x="-9.9999997e-06"
   y="321.42859"
   class="st1"
   width="35.714291"
   height="35.714291"
   id="rect126282" />
	<polygon
   class="st2"
   points="20.8404,340.87137 21.65087,345.12369 17.85714,343.03885 14.0634,345.12369 14.87387,340.87137 11.71874,337.90756 16.01338,337.36435 17.85714,333.44775 19.70089,337.36435 23.99553,337.90756 "
   id="polygon126284" />
	<rect
   x="464.28571"
   y="285.71429"
   class="st2"
   width="35.714291"
   height="35.714291"
   id="rect126286" />
	<polygon
   class="st1"
   points="485.1261,305.15707 485.93658,309.40939 482.14285,307.32455 478.34912,309.40939 479.15958,305.15707 476.00446,302.19327 480.2991,301.65005 482.14285,297.73349 483.9866,301.65005 488.28125,302.19327 "
   id="polygon126288" />
	<rect
   x="428.57141"
   y="285.71429"
   class="st0"
   width="35.714291"
   height="35.714291"
   id="rect126290" />
	<rect
   x="392.85715"
   y="285.71429"
   class="st2"
   width="35.714298"
   height="35.714298"
   id="rect126292" />
	<path
   class="st0"
   d="m 417.60229,293.9342 c -1.8866,-0.56305 -3.77902,-1.49826 -3.77902,-2.30865 0,-1.43762 -0.67154,-2.02472 -2.19534,-2.02472 -1.5238,0 -2.1954,0.5871 -2.1954,2.02472 v 12.67657 c -5.125,-0.24582 -10.75958,2.87735 -10.75958,7.70242 0,3.43137 2.58359,5.53751 6.57184,5.53751 5.07938,0 8.57846,-4.16498 8.57846,-6.83908 v -11.53302 c 3.01312,0 4.97397,1.37851 4.97397,2.8999 0,0.64676 -0.64117,1.77377 0.37,2.31839 1.54196,0.83051 3.58847,-1.47787 3.58847,-4.14752 -1e-5,-3.4288 -1.52843,-5.22467 -5.1534,-6.30652 z"
   id="path126294" />
	<rect
   x="357.14285"
   y="285.71429"
   class="st0"
   width="35.714291"
   height="35.714291"
   id="rect126296" />
	<rect
   x="321.42856"
   y="285.71429"
   class="st2"
   width="35.714291"
   height="35.714291"
   id="rect126298" />
	<polygon
   class="st1"
   points="342.26898,305.15707 343.07944,309.40939 339.28571,307.32455 335.49197,309.40939 336.30246,305.15707 333.14731,302.19327 337.44196,301.65005 339.28571,297.73349 341.12946,301.65005 345.4241,302.19327 "
   id="polygon126300" />
	<rect
   x="285.71426"
   y="285.71429"
   class="st0"
   width="35.714291"
   height="35.714291"
   id="rect126302" />
	<rect
   x="249.99998"
   y="285.71429"
   class="st2"
   width="35.714298"
   height="35.714298"
   id="rect126304" />
	<path
   class="st0"
   d="m 274.74515,293.9342 c -1.8866,-0.56305 -3.77902,-1.49826 -3.77902,-2.30865 0,-1.43762 -0.67154,-2.02472 -2.19534,-2.02472 -1.5238,0 -2.1954,0.5871 -2.1954,2.02472 v 12.67657 c -5.125,-0.24582 -10.75958,2.87735 -10.75958,7.70242 0,3.43137 2.58359,5.53751 6.57184,5.53751 5.07938,0 8.57846,-4.16498 8.57846,-6.83908 v -11.53302 c 3.01312,0 4.97397,1.37851 4.97397,2.8999 0,0.64676 -0.6412,1.77377 0.37,2.31839 1.54196,0.83051 3.58847,-1.47787 3.58847,-4.14752 -2e-5,-3.4288 -1.52843,-5.22467 -5.1534,-6.30652 z"
   id="path126306" />
	<rect
   x="214.28571"
   y="285.71429"
   class="st0"
   width="35.714291"
   height="35.714291"
   id="rect126308" />
	<rect
   x="178.57143"
   y="285.71429"
   class="st2"
   width="35.714291"
   height="35.714291"
   id="rect126310" />
	<polygon
   class="st1"
   points="199.41182,305.15707 200.22231,309.40939 196.42856,307.32455 192.63483,309.40939 193.4453,305.15707 190.29018,302.19327 194.58481,301.65005 196.42856,297.73349 198.27232,301.65005 202.56696,302.19327 "
   id="polygon126312" />
	<rect
   x="142.85713"
   y="285.71429"
   class="st0"
   width="35.714291"
   height="35.714291"
   id="rect126314" />
	<rect
   x="107.14495"
   y="285.71429"
   class="st2"
   width="35.714298"
   height="35.714298"
   id="rect126316" />
	<path
   class="st0"
   d="m 131.89012,293.9342 c -1.8866,-0.56305 -3.77902,-1.49826 -3.77902,-2.30865 0,-1.43762 -0.67154,-2.02472 -2.19535,-2.02472 -1.52381,0 -2.1954,0.5871 -2.1954,2.02472 v 12.67657 c -5.12501,-0.24582 -10.75959,2.87735 -10.75959,7.70242 0,3.43137 2.58358,5.53751 6.57183,5.53751 5.07938,0 8.57846,-4.16498 8.57846,-6.83908 v -11.53302 c 3.01314,0 4.97398,1.37851 4.97398,2.8999 0,0.64676 -0.6412,1.77377 0.36998,2.31839 1.54198,0.83051 3.58849,-1.47787 3.58849,-4.14752 0,-3.4288 -1.52842,-5.22467 -5.15338,-6.30652 z"
   id="path126318" />
	<rect
   x="71.428574"
   y="285.71429"
   class="st0"
   width="35.714291"
   height="35.714291"
   id="rect126320" />
	<rect
   x="35.714272"
   y="285.71429"
   class="st2"
   width="35.714298"
   height="35.714298"
   id="rect126322" />
	<polygon
   class="st1"
   points="56.55468,305.15707 57.36516,309.40939 53.57142,307.32455 49.77769,309.40939 50.58816,305.15707 47.43303,302.19327 51.72766,301.65005 53.57142,297.73349 55.41518,301.65005 59.70982,302.19327 "
   id="polygon126324" />
	<rect
   x="-9.9999997e-06"
   y="285.71429"
   class="st0"
   width="35.714291"
   height="35.714291"
   id="rect126326" />
	<rect
   x="464.28571"
   y="250"
   class="st0"
   width="35.714291"
   height="35.714291"
   id="rect126328" />
	<rect
   x="428.57141"
   y="250"
   class="st1"
   width="35.714291"
   height="35.714291"
   id="rect126330" />
	<polygon
   class="st2"
   points="449.41183,269.44278 450.22229,273.6951 446.42856,271.61026 442.63483,273.6951 443.44531,269.44278 440.29016,266.47897 444.58481,265.93576 446.42856,262.0192 448.27231,265.93576 452.56696,266.47897 "
   id="polygon126332" />
	<rect
   x="392.85715"
   y="250"
   class="st0"
   width="35.714291"
   height="35.714291"
   id="rect126334" />
	<rect
   x="357.14285"
   y="250"
   class="st1"
   width="35.714291"
   height="35.714291"
   id="rect126336" />
	<polygon
   class="st2"
   points="377.98325,269.44278 378.79373,273.6951 375,271.61026 371.20627,273.6951 372.01672,269.44278 368.8616,266.47897 373.15625,265.93576 375,262.0192 376.84375,265.93576 381.1384,266.47897 "
   id="polygon126338" />
	<rect
   x="321.42856"
   y="250"
   class="st0"
   width="35.714291"
   height="35.714291"
   id="rect126340" />
	<rect
   x="285.71426"
   y="250"
   class="st1"
   width="35.714291"
   height="35.714291"
   id="rect126342" />
	<polygon
   class="st2"
   points="306.55469,269.44278 307.36514,273.6951 303.57141,271.61026 299.77768,273.6951 300.58817,269.44278 297.43301,266.47897 301.72766,265.93576 303.57141,262.0192 305.41519,265.93576 309.70981,266.47897 "
   id="polygon126344" />
	<rect
   x="250"
   y="250"
   class="st0"
   width="35.714291"
   height="35.714291"
   id="rect126346" />
	<rect
   x="214.28571"
   y="250"
   class="st1"
   width="35.714291"
   height="35.714291"
   id="rect126348" />
	<polygon
   class="st2"
   points="235.12611,269.44278 235.93658,273.6951 232.14285,271.61026 228.34912,273.6951 229.15959,269.44278 226.00446,266.47897 230.29909,265.93576 232.14285,262.0192 233.9866,265.93576 238.28125,266.47897 "
   id="polygon126350" />
	<rect
   x="178.57143"
   y="250"
   class="st0"
   width="35.714291"
   height="35.714291"
   id="rect126352" />
	<rect
   x="142.85713"
   y="250"
   class="st1"
   width="35.714291"
   height="35.714291"
   id="rect126354" />
	<polygon
   class="st2"
   points="163.69754,269.44278 164.50801,273.6951 160.71428,271.61026 156.92055,273.6951 157.73102,269.44278 154.57588,266.47897 158.87051,265.93576 160.71428,262.0192 162.55803,265.93576 166.85268,266.47897 "
   id="polygon126356" />
	<rect
   x="107.14285"
   y="250"
   class="st0"
   width="35.714291"
   height="35.714291"
   id="rect126358" />
	<rect
   x="71.428574"
   y="250"
   class="st1"
   width="35.714291"
   height="35.714291"
   id="rect126360" />
	<polygon
   class="st2"
   points="92.26897,269.44278 93.07944,273.6951 89.28571,271.61026 85.49197,273.6951 86.30244,269.44278 83.14732,266.47897 87.44195,265.93576 89.28571,262.0192 91.12946,265.93576 95.4241,266.47897 "
   id="polygon126362" />
	<rect
   x="35.714279"
   y="250"
   class="st0"
   width="35.714291"
   height="35.714291"
   id="rect126364" />
	<rect
   x="-9.9999997e-06"
   y="250"
   class="st1"
   width="35.714291"
   height="35.714291"
   id="rect126366" />
	<polygon
   class="st2"
   points="20.8404,269.44278 21.65087,273.6951 17.85714,271.61026 14.0634,273.6951 14.87387,269.44278 11.71874,266.47897 16.01338,265.93576 17.85714,262.0192 19.70089,265.93576 23.99553,266.47897 "
   id="polygon126368" />
	<rect
   x="464.28571"
   y="214.28571"
   class="st2"
   width="35.714298"
   height="35.714298"
   id="rect126370" />
	<path
   class="st0"
   d="m 489.03088,222.50562 c -1.8866,-0.56303 -3.77902,-1.49825 -3.77902,-2.30864 0,-1.43762 -0.67154,-2.02473 -2.19537,-2.02473 -1.5238,0 -2.19537,0.58711 -2.19537,2.02473 v 12.67656 c -5.12503,-0.2458 -10.75961,2.87737 -10.75961,7.70242 0,3.43137 2.58359,5.53751 6.57184,5.53751 5.07938,0 8.57846,-4.16496 8.57846,-6.83907 v -11.53304 c 3.01315,0 4.974,1.37851 4.974,2.89992 0,0.64676 -0.6412,1.77379 0.36996,2.31839 1.54199,0.83049 3.5885,-1.47787 3.5885,-4.14754 0,-3.42878 -1.52845,-5.22467 -5.15339,-6.30651 z"
   id="path126372" />
	<rect
   x="428.57141"
   y="214.28572"
   class="st0"
   width="35.714291"
   height="35.714291"
   id="rect126374" />
	<rect
   x="392.85715"
   y="214.28572"
   class="st2"
   width="35.714291"
   height="35.714291"
   id="rect126376" />
	<polygon
   class="st1"
   points="413.69754,233.7285 414.50803,237.98082 410.71426,235.89598 406.92053,237.98082 407.73102,233.7285 404.5759,230.76471 408.87051,230.22147 410.71426,226.3049 412.55804,230.22147 416.85266,230.76471 "
   id="polygon126378" />
	<rect
   x="357.14285"
   y="214.28572"
   class="st0"
   width="35.714291"
   height="35.714291"
   id="rect126380" />
	<rect
   x="321.42856"
   y="214.28571"
   class="st2"
   width="35.714298"
   height="35.714298"
   id="rect126382" />
	<path
   class="st0"
   d="m 346.17374,222.50562 c -1.8866,-0.56303 -3.77902,-1.49825 -3.77902,-2.30864 0,-1.43762 -0.67154,-2.02473 -2.19537,-2.02473 -1.5238,0 -2.19537,0.58711 -2.19537,2.02473 v 12.67656 c -5.12503,-0.2458 -10.75961,2.87737 -10.75961,7.70242 0,3.43137 2.58359,5.53751 6.57184,5.53751 5.07938,0 8.57846,-4.16496 8.57846,-6.83907 v -11.53304 c 3.01315,0 4.97397,1.37851 4.97397,2.89992 0,0.64676 -0.64117,1.77379 0.37,2.31839 1.54196,0.83049 3.58847,-1.47787 3.58847,-4.14754 -2e-5,-3.42878 -1.52843,-5.22467 -5.15337,-6.30651 z"
   id="path126384" />
	<rect
   x="285.71426"
   y="214.28572"
   class="st0"
   width="35.714291"
   height="35.714291"
   id="rect126386" />
	<rect
   x="250"
   y="214.28572"
   class="st2"
   width="35.714291"
   height="35.714291"
   id="rect126388" />
	<polygon
   class="st1"
   points="270.84039,233.7285 271.65088,237.98082 267.85715,235.89598 264.06342,237.98082 264.87387,233.7285 261.71875,230.76471 266.01337,230.22147 267.85715,226.3049 269.7009,230.22147 273.99551,230.76471 "
   id="polygon126390" />
	<rect
   x="214.28571"
   y="214.28572"
   class="st0"
   width="35.714291"
   height="35.714291"
   id="rect126392" />
	<rect
   x="178.57143"
   y="214.28571"
   class="st3"
   width="35.714298"
   height="35.714298"
   id="rect126394" />
	<path
   d="m 203.31659,222.50562 c -1.8866,-0.56303 -3.77902,-1.49825 -3.77902,-2.30864 0,-1.43762 -0.67154,-2.02473 -2.19534,-2.02473 -1.52382,0 -2.1954,0.58711 -2.1954,2.02473 v 12.67656 c -5.12502,-0.2458 -10.7596,2.87737 -10.7596,7.70242 0,3.43137 2.58359,5.53751 6.57184,5.53751 5.07938,0 8.57846,-4.16496 8.57846,-6.83907 v -11.53304 c 3.01314,0 4.97398,1.37851 4.97398,2.89992 0,0.64676 -0.6412,1.77379 0.36998,2.31839 1.54198,0.83049 3.58849,-1.47787 3.58849,-4.14754 -1e-5,-3.42878 -1.52844,-5.22467 -5.15339,-6.30651 z"
   id="path126396" />
	<rect
   x="178.57143"
   y="214.28571"
   class="st2"
   width="35.714298"
   height="35.714298"
   id="rect126398" />
	<path
   class="st0"
   d="m 203.31659,222.50562 c -1.8866,-0.56303 -3.77902,-1.49825 -3.77902,-2.30864 0,-1.43762 -0.67154,-2.02473 -2.19534,-2.02473 -1.52382,0 -2.1954,0.58711 -2.1954,2.02473 v 12.67656 c -5.12502,-0.2458 -10.7596,2.87737 -10.7596,7.70242 0,3.43137 2.58359,5.53751 6.57184,5.53751 5.07938,0 8.57846,-4.16496 8.57846,-6.83907 v -11.53304 c 3.01314,0 4.97398,1.37851 4.97398,2.89992 0,0.64676 -0.6412,1.77379 0.36998,2.31839 1.54198,0.83049 3.58849,-1.47787 3.58849,-4.14754 -1e-5,-3.42878 -1.52844,-5.22467 -5.15339,-6.30651 z"
   id="path126400" />
	<rect
   x="142.85713"
   y="214.28572"
   class="st0"
   width="35.714291"
   height="35.714291"
   id="rect126402" />
	<rect
   x="107.14285"
   y="214.28572"
   class="st2"
   width="35.714291"
   height="35.714291"
   id="rect126404" />
	<polygon
   class="st1"
   points="127.98325,233.7285 128.79373,237.98082 124.99999,235.89598 121.20626,237.98082 122.01673,233.7285 118.8616,230.76471 123.15623,230.22147 124.99999,226.3049 126.84375,230.22147 131.13838,230.76471 "
   id="polygon126406" />
	<rect
   x="71.428574"
   y="214.28572"
   class="st0"
   width="35.714291"
   height="35.714291"
   id="rect126408" />
	<rect
   x="35.715321"
   y="214.28571"
   class="st2"
   width="35.714298"
   height="35.714298"
   id="rect126410" />
	<path
   class="st0"
   d="m 60.46049,222.50562 c -1.8866,-0.56303 -3.77903,-1.49825 -3.77903,-2.30864 0,-1.43762 -0.67154,-2.02473 -2.19535,-2.02473 -1.52381,0 -2.19539,0.58711 -2.19539,2.02473 v 12.67656 c -5.12502,-0.2458 -10.7596,2.87737 -10.7596,7.70242 0,3.43137 2.58358,5.53751 6.57184,5.53751 5.07938,0 8.57846,-4.16496 8.57846,-6.83907 v -11.53304 c 3.01314,0 4.97398,1.37851 4.97398,2.89992 0,0.64676 -0.64119,1.77379 0.36998,2.31839 1.54198,0.83049 3.58849,-1.47787 3.58849,-4.14754 0,-3.42878 -1.52842,-5.22467 -5.15338,-6.30651 z"
   id="path126412" />
	<rect
   x="-9.9999997e-06"
   y="214.28572"
   class="st0"
   width="35.714291"
   height="35.714291"
   id="rect126414" />
	<rect
   x="464.28571"
   y="178.57143"
   class="st0"
   width="35.714291"
   height="35.714291"
   id="rect126416" />
	<rect
   x="428.57141"
   y="178.57143"
   class="st1"
   width="35.714291"
   height="35.714291"
   id="rect126418" />
	<polygon
   class="st2"
   points="449.41183,198.01422 450.22229,202.26653 446.42856,200.18169 442.63483,202.26653 443.44531,198.01422 440.29016,195.05042 444.58481,194.50719 446.42856,190.59061 448.27231,194.50719 452.56696,195.05042 "
   id="polygon126420" />
	<rect
   x="392.85715"
   y="178.57143"
   class="st0"
   width="35.714291"
   height="35.714291"
   id="rect126422" />
	<rect
   x="357.14285"
   y="178.57143"
   class="st1"
   width="35.714291"
   height="35.714291"
   id="rect126424" />
	<polygon
   class="st2"
   points="377.98325,198.01422 378.79373,202.26653 375,200.18169 371.20627,202.26653 372.01672,198.01422 368.8616,195.05042 373.15625,194.50719 375,190.59061 376.84375,194.50719 381.1384,195.05042 "
   id="polygon126426" />
	<rect
   x="321.42856"
   y="178.57143"
   class="st0"
   width="35.714291"
   height="35.714291"
   id="rect126428" />
	<rect
   x="285.71426"
   y="178.57143"
   class="st1"
   width="35.714291"
   height="35.714291"
   id="rect126430" />
	<polygon
   class="st2"
   points="306.55469,198.01422 307.36514,202.26653 303.57141,200.18169 299.77768,202.26653 300.58817,198.01422 297.43301,195.05042 301.72766,194.50719 303.57141,190.59061 305.41519,194.50719 309.70981,195.05042 "
   id="polygon126432" />
	<rect
   x="250"
   y="178.57143"
   class="st0"
   width="35.714291"
   height="35.714291"
   id="rect126434" />
	<rect
   x="214.28571"
   y="178.57143"
   class="st1"
   width="35.714291"
   height="35.714291"
   id="rect126436" />
	<polygon
   class="st2"
   points="235.12611,198.01422 235.93658,202.26653 232.14285,200.18169 228.34912,202.26653 229.15959,198.01422 226.00446,195.05042 230.29909,194.50719 232.14285,190.59061 233.9866,194.50719 238.28125,195.05042 "
   id="polygon126438" />
	<rect
   x="178.57143"
   y="178.57143"
   class="st0"
   width="35.714291"
   height="35.714291"
   id="rect126440" />
	<rect
   x="142.85713"
   y="178.57143"
   class="st1"
   width="35.714291"
   height="35.714291"
   id="rect126442" />
	<polygon
   class="st2"
   points="163.69754,198.01422 164.50801,202.26653 160.71428,200.18169 156.92055,202.26653 157.73102,198.01422 154.57588,195.05042 158.87051,194.50719 160.71428,190.59061 162.55803,194.50719 166.85268,195.05042 "
   id="polygon126444" />
	<rect
   x="107.14285"
   y="178.57143"
   class="st0"
   width="35.714291"
   height="35.714291"
   id="rect126446" />
	<rect
   x="71.428574"
   y="178.57143"
   class="st1"
   width="35.714291"
   height="35.714291"
   id="rect126448" />
	<polygon
   class="st2"
   points="92.26897,198.01422 93.07944,202.26653 89.28571,200.18169 85.49197,202.26653 86.30244,198.01422 83.14732,195.05042 87.44195,194.50719 89.28571,190.59061 91.12946,194.50719 95.4241,195.05042 "
   id="polygon126450" />
	<rect
   x="35.714279"
   y="178.57143"
   class="st0"
   width="35.714291"
   height="35.714291"
   id="rect126452" />
	<rect
   x="-9.9999997e-06"
   y="178.57143"
   class="st1"
   width="35.714291"
   height="35.714291"
   id="rect126454" />
	<polygon
   class="st2"
   points="20.8404,198.01422 21.65087,202.26653 17.85714,200.18169 14.0634,202.26653 14.87387,198.01422 11.71874,195.05042 16.01338,194.50719 17.85714,190.59061 19.70089,194.50719 23.99553,195.05042 "
   id="polygon126456" />
	<rect
   x="464.28571"
   y="142.85715"
   class="st2"
   width="35.714291"
   height="35.714291"
   id="rect126458" />
	<polygon
   class="st1"
   points="485.1261,162.29994 485.93658,166.55225 482.14285,164.46741 478.34912,166.55225 479.15958,162.29994 476.00446,159.33614 480.2991,158.79291 482.14285,154.87633 483.9866,158.79291 488.28125,159.33614 "
   id="polygon126460" />
	<rect
   x="428.57141"
   y="142.85715"
   class="st0"
   width="35.714291"
   height="35.714291"
   id="rect126462" />
	<rect
   x="392.85715"
   y="142.85713"
   class="st2"
   width="35.714298"
   height="35.714298"
   id="rect126464" />
	<path
   class="st0"
   d="m 417.60229,151.07706 c -1.8866,-0.56305 -3.77902,-1.49826 -3.77902,-2.30865 0,-1.43762 -0.67154,-2.02473 -2.19534,-2.02473 -1.5238,0 -2.1954,0.58711 -2.1954,2.02473 v 12.67656 c -5.125,-0.2458 -10.75958,2.87738 -10.75958,7.70242 0,3.43137 2.58359,5.53752 6.57184,5.53752 5.07938,0 8.57846,-4.16498 8.57846,-6.83908 v -11.53304 c 3.01312,0 4.97397,1.37851 4.97397,2.89992 0,0.64676 -0.64117,1.77379 0.37,2.31839 1.54196,0.83049 3.58847,-1.47787 3.58847,-4.14754 -1e-5,-3.42879 -1.52843,-5.22467 -5.1534,-6.3065 z"
   id="path126466" />
	<rect
   x="357.14285"
   y="142.85715"
   class="st0"
   width="35.714291"
   height="35.714291"
   id="rect126468" />
	<rect
   x="321.42856"
   y="142.85715"
   class="st2"
   width="35.714291"
   height="35.714291"
   id="rect126470" />
	<polygon
   class="st1"
   points="342.26898,162.29994 343.07944,166.55225 339.28571,164.46741 335.49197,166.55225 336.30246,162.29994 333.14731,159.33614 337.44196,158.79291 339.28571,154.87633 341.12946,158.79291 345.4241,159.33614 "
   id="polygon126472" />
	<rect
   x="285.71426"
   y="142.85715"
   class="st0"
   width="35.714291"
   height="35.714291"
   id="rect126474" />
	<rect
   x="249.99998"
   y="142.85713"
   class="st2"
   width="35.714298"
   height="35.714298"
   id="rect126476" />
	<path
   class="st0"
   d="m 274.74515,151.07706 c -1.8866,-0.56305 -3.77902,-1.49826 -3.77902,-2.30865 0,-1.43762 -0.67154,-2.02473 -2.19534,-2.02473 -1.5238,0 -2.1954,0.58711 -2.1954,2.02473 v 12.67656 c -5.125,-0.2458 -10.75958,2.87738 -10.75958,7.70242 0,3.43137 2.58359,5.53752 6.57184,5.53752 5.07938,0 8.57846,-4.16498 8.57846,-6.83908 v -11.53304 c 3.01312,0 4.97397,1.37851 4.97397,2.89992 0,0.64676 -0.6412,1.77379 0.37,2.31839 1.54196,0.83049 3.58847,-1.47787 3.58847,-4.14754 -2e-5,-3.42879 -1.52843,-5.22467 -5.1534,-6.3065 z"
   id="path126478" />
	<rect
   x="214.28571"
   y="142.85715"
   class="st0"
   width="35.714291"
   height="35.714291"
   id="rect126480" />
	<rect
   x="178.57143"
   y="142.85715"
   class="st2"
   width="35.714291"
   height="35.714291"
   id="rect126482" />
	<polygon
   class="st1"
   points="199.41182,162.29994 200.22231,166.55225 196.42856,164.46741 192.63483,166.55225 193.4453,162.29994 190.29018,159.33614 194.58481,158.79291 196.42856,154.87633 198.27232,158.79291 202.56696,159.33614 "
   id="polygon126484" />
	<rect
   x="142.85713"
   y="142.85715"
   class="st0"
   width="35.714291"
   height="35.714291"
   id="rect126486" />
	<rect
   x="107.14495"
   y="142.85713"
   class="st2"
   width="35.714298"
   height="35.714298"
   id="rect126488" />
	<path
   class="st0"
   d="m 131.89012,151.07706 c -1.8866,-0.56305 -3.77902,-1.49826 -3.77902,-2.30865 0,-1.43762 -0.67154,-2.02473 -2.19535,-2.02473 -1.52381,0 -2.1954,0.58711 -2.1954,2.02473 v 12.67656 c -5.12501,-0.2458 -10.75959,2.87738 -10.75959,7.70242 0,3.43137 2.58358,5.53752 6.57183,5.53752 5.07938,0 8.57846,-4.16498 8.57846,-6.83908 v -11.53304 c 3.01314,0 4.97398,1.37851 4.97398,2.89992 0,0.64676 -0.6412,1.77379 0.36998,2.31839 1.54198,0.83049 3.58849,-1.47787 3.58849,-4.14754 0,-3.42879 -1.52842,-5.22467 -5.15338,-6.3065 z"
   id="path126490" />
	<rect
   x="71.428574"
   y="142.85715"
   class="st0"
   width="35.714291"
   height="35.714291"
   id="rect126492" />
	<rect
   x="35.714272"
   y="142.85713"
   class="st2"
   width="35.714298"
   height="35.714298"
   id="rect126494" />
	<polygon
   class="st1"
   points="56.55468,162.29994 57.36516,166.55225 53.57142,164.46741 49.77769,166.55225 50.58816,162.29994 47.43303,159.33614 51.72766,158.79291 53.57142,154.87633 55.41518,158.79291 59.70982,159.33614 "
   id="polygon126496" />
	<rect
   x="-9.9999997e-06"
   y="142.85715"
   class="st0"
   width="35.714291"
   height="35.714291"
   id="rect126498" />
	<rect
   x="464.28571"
   y="107.14285"
   class="st0"
   width="35.714291"
   height="35.714291"
   id="rect126500" />
	<rect
   x="428.57141"
   y="107.14285"
   class="st1"
   width="35.714291"
   height="35.714291"
   id="rect126502" />
	<polygon
   class="st2"
   points="449.41183,126.58564 450.22229,130.83795 446.42856,128.75311 442.63483,130.83795 443.44531,126.58564 440.29016,123.62184 444.58481,123.07861 446.42856,119.16203 448.27231,123.07861 452.56696,123.62184 "
   id="polygon126504" />
	<rect
   x="392.85715"
   y="107.14285"
   class="st0"
   width="35.714291"
   height="35.714291"
   id="rect126506" />
	<rect
   x="357.14285"
   y="107.14285"
   class="st1"
   width="35.714291"
   height="35.714291"
   id="rect126508" />
	<polygon
   class="st2"
   points="377.98325,126.58564 378.79373,130.83795 375,128.75311 371.20627,130.83795 372.01672,126.58564 368.8616,123.62184 373.15625,123.07861 375,119.16203 376.84375,123.07861 381.1384,123.62184 "
   id="polygon126510" />
	<rect
   x="321.42856"
   y="107.14285"
   class="st0"
   width="35.714291"
   height="35.714291"
   id="rect126512" />
	<rect
   x="285.71426"
   y="107.14285"
   class="st1"
   width="35.714291"
   height="35.714291"
   id="rect126514" />
	<polygon
   class="st2"
   points="306.55469,126.58564 307.36514,130.83795 303.57141,128.75311 299.77768,130.83795 300.58817,126.58564 297.43301,123.62184 301.72766,123.07861 303.57141,119.16203 305.41519,123.07861 309.70981,123.62184 "
   id="polygon126516" />
	<rect
   x="250"
   y="107.14285"
   class="st0"
   width="35.714291"
   height="35.714291"
   id="rect126518" />
	<rect
   x="214.28571"
   y="107.14285"
   class="st1"
   width="35.714291"
   height="35.714291"
   id="rect126520" />
	<polygon
   class="st2"
   points="235.12611,126.58564 235.93658,130.83795 232.14285,128.75311 228.34912,130.83795 229.15959,126.58564 226.00446,123.62184 230.29909,123.07861 232.14285,119.16203 233.9866,123.07861 238.28125,123.62184 "
   id="polygon126522" />
	<rect
   x="178.57143"
   y="107.14285"
   class="st0"
   width="35.714291"
   height="35.714291"
   id="rect126524" />
	<rect
   x="142.85713"
   y="107.14285"
   class="st1"
   width="35.714291"
   height="35.714291"
   id="rect126526" />
	<polygon
   class="st2"
   points="163.69754,126.58564 164.50801,130.83795 160.71428,128.75311 156.92055,130.83795 157.73102,126.58564 154.57588,123.62184 158.87051,123.07861 160.71428,119.16203 162.55803,123.07861 166.85268,123.62184 "
   id="polygon126528" />
	<rect
   x="107.14285"
   y="107.14285"
   class="st0"
   width="35.714291"
   height="35.714291"
   id="rect126530" />
	<rect
   x="71.428574"
   y="107.14285"
   class="st1"
   width="35.714291"
   height="35.714291"
   id="rect126532" />
	<polygon
   class="st2"
   points="92.26897,126.58564 93.07944,130.83795 89.28571,128.75311 85.49197,130.83795 86.30244,126.58564 83.14732,123.62184 87.44195,123.07861 89.28571,119.16203 91.12946,123.07861 95.4241,123.62184 "
   id="polygon126534" />
	<rect
   x="35.714279"
   y="107.14285"
   class="st0"
   width="35.714291"
   height="35.714291"
   id="rect126536" />
	<rect
   x="-9.9999997e-06"
   y="107.14285"
   class="st1"
   width="35.714291"
   height="35.714291"
   id="rect126538" />
	<polygon
   class="st2"
   points="20.8404,126.58564 21.65087,130.83795 17.85714,128.75311 14.0634,130.83795 14.87387,126.58564 11.71874,123.62184 16.01338,123.07861 17.85714,119.16203 19.70089,123.07861 23.99553,123.62184 "
   id="polygon126540" />
	<rect
   x="464.28571"
   y="71.428558"
   class="st2"
   width="35.714298"
   height="35.714298"
   id="rect126542" />
	<path
   class="st0"
   d="m 489.03088,79.64847 c -1.8866,-0.56304 -3.77902,-1.49825 -3.77902,-2.30865 0,-1.43762 -0.67154,-2.02473 -2.19537,-2.02473 -1.5238,0 -2.19537,0.5871 -2.19537,2.02473 v 12.67656 c -5.12503,-0.2458 -10.75961,2.87737 -10.75961,7.70242 0,3.43137 2.58359,5.53751 6.57184,5.53751 5.07938,0 8.57846,-4.16496 8.57846,-6.83907 V 84.88422 c 3.01315,0 4.974,1.3785 4.974,2.89992 0,0.64675 -0.6412,1.77378 0.36996,2.31839 1.54199,0.83049 3.5885,-1.47788 3.5885,-4.14754 0,-3.4288 -1.52845,-5.22467 -5.15339,-6.30652 z"
   id="path126544" />
	<rect
   x="428.57141"
   y="71.428574"
   class="st0"
   width="35.714291"
   height="35.714291"
   id="rect126546" />
	<rect
   x="392.85715"
   y="71.428574"
   class="st2"
   width="35.714291"
   height="35.714291"
   id="rect126548" />
	<polygon
   class="st1"
   points="413.69754,90.87136 414.50803,95.12366 410.71426,93.03883 406.92053,95.12366 407.73102,90.87136 404.5759,87.90755 408.87051,87.36432 410.71426,83.44775 412.55804,87.36432 416.85266,87.90755 "
   id="polygon126550" />
	<rect
   x="357.14285"
   y="71.428574"
   class="st0"
   width="35.714291"
   height="35.714291"
   id="rect126552" />
	<rect
   x="321.42856"
   y="71.428558"
   class="st2"
   width="35.714298"
   height="35.714298"
   id="rect126554" />
	<path
   class="st0"
   d="m 346.17374,79.64847 c -1.8866,-0.56304 -3.77902,-1.49825 -3.77902,-2.30865 0,-1.43762 -0.67154,-2.02473 -2.19537,-2.02473 -1.5238,0 -2.19537,0.5871 -2.19537,2.02473 v 12.67656 c -5.12503,-0.2458 -10.75961,2.87737 -10.75961,7.70242 0,3.43137 2.58359,5.53751 6.57184,5.53751 5.07938,0 8.57846,-4.16496 8.57846,-6.83907 V 84.88422 c 3.01315,0 4.97397,1.3785 4.97397,2.89992 0,0.64675 -0.64117,1.77378 0.37,2.31839 1.54196,0.83049 3.58847,-1.47788 3.58847,-4.14754 -2e-5,-3.4288 -1.52843,-5.22467 -5.15337,-6.30652 z"
   id="path126556" />
	<rect
   x="285.71426"
   y="71.428574"
   class="st0"
   width="35.714291"
   height="35.714291"
   id="rect126558" />
	<rect
   x="250"
   y="71.428574"
   class="st2"
   width="35.714291"
   height="35.714291"
   id="rect126560" />
	<polygon
   class="st1"
   points="270.84039,90.87136 271.65088,95.12366 267.85715,93.03883 264.06342,95.12366 264.87387,90.87136 261.71875,87.90755 266.01337,87.36432 267.85715,83.44775 269.7009,87.36432 273.99551,87.90755 "
   id="polygon126562" />
	<rect
   x="214.28571"
   y="71.428574"
   class="st0"
   width="35.714291"
   height="35.714291"
   id="rect126564" />
	<rect
   x="178.57143"
   y="71.428558"
   class="st3"
   width="35.714298"
   height="35.714298"
   id="rect126566" />
	<path
   d="m 203.31659,79.64847 c -1.8866,-0.56304 -3.77902,-1.49825 -3.77902,-2.30865 0,-1.43762 -0.67154,-2.02473 -2.19534,-2.02473 -1.52382,0 -2.1954,0.5871 -2.1954,2.02473 v 12.67656 c -5.12502,-0.2458 -10.7596,2.87737 -10.7596,7.70242 0,3.43137 2.58359,5.53751 6.57184,5.53751 5.07938,0 8.57846,-4.16496 8.57846,-6.83907 V 84.88422 c 3.01314,0 4.97398,1.3785 4.97398,2.89992 0,0.64675 -0.6412,1.77378 0.36998,2.31839 1.54198,0.83049 3.58849,-1.47788 3.58849,-4.14754 -1e-5,-3.4288 -1.52844,-5.22467 -5.15339,-6.30652 z"
   id="path126568" />
	<rect
   x="178.57143"
   y="71.428558"
   class="st2"
   width="35.714298"
   height="35.714298"
   id="rect126570" />
	<path
   class="st0"
   d="m 203.31659,79.64847 c -1.8866,-0.56304 -3.77902,-1.49825 -3.77902,-2.30865 0,-1.43762 -0.67154,-2.02473 -2.19534,-2.02473 -1.52382,0 -2.1954,0.5871 -2.1954,2.02473 v 12.67656 c -5.12502,-0.2458 -10.7596,2.87737 -10.7596,7.70242 0,3.43137 2.58359,5.53751 6.57184,5.53751 5.07938,0 8.57846,-4.16496 8.57846,-6.83907 V 84.88422 c 3.01314,0 4.97398,1.3785 4.97398,2.89992 0,0.64675 -0.6412,1.77378 0.36998,2.31839 1.54198,0.83049 3.58849,-1.47788 3.58849,-4.14754 -1e-5,-3.4288 -1.52844,-5.22467 -5.15339,-6.30652 z"
   id="path126572" />
	<rect
   x="142.85713"
   y="71.428574"
   class="st0"
   width="35.714291"
   height="35.714291"
   id="rect126574" />
	<rect
   x="107.14285"
   y="71.428574"
   class="st2"
   width="35.714291"
   height="35.714291"
   id="rect126576" />
	<polygon
   class="st1"
   points="127.98325,90.87136 128.79373,95.12366 124.99999,93.03883 121.20626,95.12366 122.01673,90.87136 118.8616,87.90755 123.15623,87.36432 124.99999,83.44775 126.84375,87.36432 131.13838,87.90755 "
   id="polygon126578" />
	<rect
   x="71.428574"
   y="71.428574"
   class="st0"
   width="35.714291"
   height="35.714291"
   id="rect126580" />
	<rect
   x="35.715321"
   y="71.428558"
   class="st2"
   width="35.714298"
   height="35.714298"
   id="rect126582" />
	<path
   class="st0"
   d="m 60.46049,79.64847 c -1.8866,-0.56304 -3.77903,-1.49825 -3.77903,-2.30865 0,-1.43762 -0.67154,-2.02473 -2.19535,-2.02473 -1.52381,0 -2.19539,0.5871 -2.19539,2.02473 v 12.67656 c -5.12502,-0.2458 -10.7596,2.87737 -10.7596,7.70242 0,3.43137 2.58358,5.53751 6.57184,5.53751 5.07938,0 8.57846,-4.16496 8.57846,-6.83907 V 84.88422 c 3.01314,0 4.97398,1.3785 4.97398,2.89992 0,0.64675 -0.64119,1.77378 0.36998,2.31839 1.54198,0.83049 3.58849,-1.47788 3.58849,-4.14754 0,-3.4288 -1.52842,-5.22467 -5.15338,-6.30652 z"
   id="path126584" />
	<rect
   x="-9.9999997e-06"
   y="71.428574"
   class="st0"
   width="35.714291"
   height="35.714291"
   id="rect126586" />
	<rect
   x="464.28571"
   y="35.714279"
   class="st0"
   width="35.714291"
   height="35.714291"
   id="rect126588" />
	<rect
   x="428.57141"
   y="35.714279"
   class="st1"
   width="35.714291"
   height="35.714291"
   id="rect126590" />
	<polygon
   class="st2"
   points="449.41183,55.15707 450.22229,59.40938 446.42856,57.32454 442.63483,59.40938 443.44531,55.15707 440.29016,52.19327 444.58481,51.65004 446.42856,47.73346 448.27231,51.65004 452.56696,52.19327 "
   id="polygon126592" />
	<rect
   x="392.85715"
   y="35.714279"
   class="st0"
   width="35.714291"
   height="35.714291"
   id="rect126594" />
	<rect
   x="357.14285"
   y="35.714279"
   class="st1"
   width="35.714291"
   height="35.714291"
   id="rect126596" />
	<polygon
   class="st2"
   points="377.98325,55.15707 378.79373,59.40938 375,57.32454 371.20627,59.40938 372.01672,55.15707 368.8616,52.19327 373.15625,51.65004 375,47.73346 376.84375,51.65004 381.1384,52.19327 "
   id="polygon126598" />
	<rect
   x="321.42856"
   y="35.714279"
   class="st0"
   width="35.714291"
   height="35.714291"
   id="rect126600" />
	<rect
   x="285.71426"
   y="35.714279"
   class="st1"
   width="35.714291"
   height="35.714291"
   id="rect126602" />
	<polygon
   class="st2"
   points="306.55469,55.15707 307.36514,59.40938 303.57141,57.32454 299.77768,59.40938 300.58817,55.15707 297.43301,52.19327 301.72766,51.65004 303.57141,47.73346 305.41519,51.65004 309.70981,52.19327 "
   id="polygon126604" />
	<rect
   x="250"
   y="35.714279"
   class="st0"
   width="35.714291"
   height="35.714291"
   id="rect126606" />
	<rect
   x="214.28571"
   y="35.714279"
   class="st1"
   width="35.714291"
   height="35.714291"
   id="rect126608" />
	<polygon
   class="st2"
   points="235.12611,55.15707 235.93658,59.40938 232.14285,57.32454 228.34912,59.40938 229.15959,55.15707 226.00446,52.19327 230.29909,51.65004 232.14285,47.73346 233.9866,51.65004 238.28125,52.19327 "
   id="polygon126610" />
	<rect
   x="178.57143"
   y="35.714279"
   class="st0"
   width="35.714291"
   height="35.714291"
   id="rect126612" />
	<rect
   x="142.85713"
   y="35.714279"
   class="st1"
   width="35.714291"
   height="35.714291"
   id="rect126614" />
	<polygon
   class="st2"
   points="163.69754,55.15707 164.50801,59.40938 160.71428,57.32454 156.92055,59.40938 157.73102,55.15707 154.57588,52.19327 158.87051,51.65004 160.71428,47.73346 162.55803,51.65004 166.85268,52.19327 "
   id="polygon126616" />
	<rect
   x="107.14285"
   y="35.714279"
   class="st0"
   width="35.714291"
   height="35.714291"
   id="rect126618" />
	<rect
   x="71.428574"
   y="35.714279"
   class="st1"
   width="35.714291"
   height="35.714291"
   id="rect126620" />
	<polygon
   class="st2"
   points="92.26897,55.15707 93.07944,59.40938 89.28571,57.32454 85.49197,59.40938 86.30244,55.15707 83.14732,52.19327 87.44195,51.65004 89.28571,47.73346 91.12946,51.65004 95.4241,52.19327 "
   id="polygon126622" />
	<rect
   x="35.714279"
   y="35.714279"
   class="st0"
   width="35.714291"
   height="35.714291"
   id="rect126624" />
	<rect
   x="-9.9999997e-06"
   y="35.714279"
   class="st1"
   width="35.714291"
   height="35.714291"
   id="rect126626" />
	<polygon
   class="st2"
   points="20.8404,55.15707 21.65087,59.40938 17.85714,57.32454 14.0634,59.40938 14.87387,55.15707 11.71874,52.19327 16.01338,51.65004 17.85714,47.73346 19.70089,51.65004 23.99553,52.19327 "
   id="polygon126628" />
	<rect
   x="464.28571"
   y="-9.9999997e-06"
   class="st2"
   width="35.714291"
   height="35.714291"
   id="rect126630" />
	<polygon
   class="st1"
   points="485.1261,19.44279 485.93658,23.6951 482.14285,21.61025 478.34912,23.6951 479.15958,19.44279 476.00446,16.47898 480.2991,15.93575 482.14285,12.01918 483.9866,15.93575 488.28125,16.47898 "
   id="polygon126632" />
	<rect
   x="428.57141"
   y="-9.9999997e-06"
   class="st0"
   width="35.714291"
   height="35.714291"
   id="rect126634" />
	<rect
   x="392.85715"
   y="-9.9999997e-06"
   class="st2"
   width="35.714298"
   height="35.714298"
   id="rect126636" />
	<path
   class="st0"
   d="m 417.60229,8.2199 c -1.8866,-0.56305 -3.77902,-1.49825 -3.77902,-2.30865 0,-1.43762 -0.67154,-2.02473 -2.19534,-2.02473 -1.5238,0 -2.1954,0.58711 -2.1954,2.02473 v 12.67656 c -5.125,-0.24581 -10.75958,2.87737 -10.75958,7.70242 0,3.43136 2.58359,5.53751 6.57184,5.53751 5.07938,0 8.57846,-4.16497 8.57846,-6.83907 V 13.45565 c 3.01312,0 4.97397,1.3785 4.97397,2.89991 0,0.64676 -0.64117,1.77378 0.37,2.31839 1.54196,0.83049 3.58847,-1.47788 3.58847,-4.14754 -1e-5,-3.42879 -1.52843,-5.22466 -5.1534,-6.30651 z"
   id="path126638" />
	<rect
   x="357.14285"
   y="-9.9999997e-06"
   class="st0"
   width="35.714291"
   height="35.714291"
   id="rect126640" />
	<rect
   x="321.42856"
   y="-9.9999997e-06"
   class="st2"
   width="35.714291"
   height="35.714291"
   id="rect126642" />
	<polygon
   class="st1"
   points="342.26898,19.44279 343.07944,23.6951 339.28571,21.61025 335.49197,23.6951 336.30246,19.44279 333.14731,16.47898 337.44196,15.93575 339.28571,12.01918 341.12946,15.93575 345.4241,16.47898 "
   id="polygon126644" />
	<rect
   x="285.71426"
   y="-9.9999997e-06"
   class="st0"
   width="35.714291"
   height="35.714291"
   id="rect126646" />
	<rect
   x="249.99998"
   y="-9.9999997e-06"
   class="st2"
   width="35.714298"
   height="35.714298"
   id="rect126648" />
	<path
   class="st0"
   d="m 274.74515,8.2199 c -1.8866,-0.56305 -3.77902,-1.49825 -3.77902,-2.30865 0,-1.43762 -0.67154,-2.02473 -2.19534,-2.02473 -1.5238,0 -2.1954,0.58711 -2.1954,2.02473 v 12.67656 c -5.125,-0.24581 -10.75958,2.87737 -10.75958,7.70242 0,3.43136 2.58359,5.53751 6.57184,5.53751 5.07938,0 8.57846,-4.16497 8.57846,-6.83907 V 13.45565 c 3.01312,0 4.97397,1.3785 4.97397,2.89991 0,0.64676 -0.6412,1.77378 0.37,2.31839 1.54196,0.83049 3.58847,-1.47788 3.58847,-4.14754 -2e-5,-3.42879 -1.52843,-5.22466 -5.1534,-6.30651 z"
   id="path126650" />
	<rect
   x="214.28571"
   y="-9.9999997e-06"
   class="st0"
   width="35.714291"
   height="35.714291"
   id="rect126652" />
	<rect
   x="178.57143"
   y="-9.9999997e-06"
   class="st2"
   width="35.714291"
   height="35.714291"
   id="rect126654" />
	<polygon
   class="st1"
   points="199.41182,19.44279 200.22231,23.6951 196.42856,21.61025 192.63483,23.6951 193.4453,19.44279 190.29018,16.47898 194.58481,15.93575 196.42856,12.01918 198.27232,15.93575 202.56696,16.47898 "
   id="polygon126656" />
	<rect
   x="142.85713"
   y="-9.9999997e-06"
   class="st0"
   width="35.714291"
   height="35.714291"
   id="rect126658" />
	<rect
   x="107.14495"
   y="-9.9999997e-06"
   class="st2"
   width="35.714298"
   height="35.714298"
   id="rect126660" />
	<path
   class="st0"
   d="m 131.89012,8.2199 c -1.8866,-0.56305 -3.77902,-1.49825 -3.77902,-2.30865 0,-1.43762 -0.67154,-2.02473 -2.19535,-2.02473 -1.52381,0 -2.1954,0.58711 -2.1954,2.02473 v 12.67656 c -5.12501,-0.24581 -10.75959,2.87737 -10.75959,7.70242 0,3.43136 2.58358,5.53751 6.57183,5.53751 5.07938,0 8.57846,-4.16497 8.57846,-6.83907 V 13.45565 c 3.01314,0 4.97398,1.3785 4.97398,2.89991 0,0.64676 -0.6412,1.77378 0.36998,2.31839 1.54198,0.83049 3.58849,-1.47788 3.58849,-4.14754 0,-3.42879 -1.52842,-5.22466 -5.15338,-6.30651 z"
   id="path126662" />
	<rect
   x="71.428574"
   y="-9.9999997e-06"
   class="st0"
   width="35.714291"
   height="35.714291"
   id="rect126664" />
	<rect
   x="35.714272"
   y="-9.9999997e-06"
   class="st2"
   width="35.714298"
   height="35.714298"
   id="rect126666" />
	<polygon
   class="st1"
   points="56.55468,19.44279 57.36516,23.6951 53.57142,21.61025 49.77769,23.6951 50.58816,19.44279 47.43303,16.47898 51.72766,15.93575 53.57142,12.01918 55.41518,15.93575 59.70982,16.47898 "
   id="polygon126668" />
	<rect
   x="-9.9999997e-06"
   y="-9.9999997e-06"
   class="st0"
   width="35.714291"
   height="35.714291"
   id="rect126670" />
	<linearGradient
   id="SVGID_1_"
   gradientUnits="userSpaceOnUse"
   x1="250"
   y1="500"
   x2="250"
   y2="-2.7284841e-12">
		<stop
   offset="0"
   style="stop-color:#000000;stop-opacity:0.75"
   id="stop126672" />
		<stop
   offset="0.75"
   style="stop-color:#000000;stop-opacity:0"
   id="stop126674" />
	</linearGradient>
	<rect
   x="9.9999997e-06"
   y="0"
   class="st4"
   width="500"
   height="500"
   id="rect126677"
   style="fill:url(#SVGID_1_)" />
</g>
<g
   id="Rhythm_World_Wiki__x28_리듬_세상__xFF37__xFF29__xFF2B__xFF29__x29__1_"
   transform="matrix(1.3333333,0,0,1.3333333,1.3333333e-5,1.3333333e-5)">
	<g
   id="Cloud_1_">
		<linearGradient
   id="Spectrum_1_"
   gradientUnits="userSpaceOnUse"
   x1="367.68201"
   y1="305.87201"
   x2="52.835911"
   y2="191.2774">
			<stop
   offset="0"
   style="stop-color:#FF0000"
   id="stop126680" />
			<stop
   offset="0.02547"
   style="stop-color:#FF0900"
   id="stop126682" />
			<stop
   offset="0.06704"
   style="stop-color:#FF2100"
   id="stop126684" />
			<stop
   offset="0.11955"
   style="stop-color:#FF4900"
   id="stop126686" />
			<stop
   offset="0.18093"
   style="stop-color:#FF8000"
   id="stop126688" />
			<stop
   offset="0.24895"
   style="stop-color:#FFC600"
   id="stop126690" />
			<stop
   offset="0.3"
   style="stop-color:#FFFF00"
   id="stop126692" />
			<stop
   offset="0.30991"
   style="stop-color:#F1FD00"
   id="stop126694" />
			<stop
   offset="0.36189"
   style="stop-color:#ABF502"
   id="stop126696" />
			<stop
   offset="0.40873"
   style="stop-color:#74EF04"
   id="stop126698" />
			<stop
   offset="0.44882"
   style="stop-color:#4CEA05"
   id="stop126700" />
			<stop
   offset="0.48056"
   style="stop-color:#34E706"
   id="stop126702" />
			<stop
   offset="0.5"
   style="stop-color:#2BE606"
   id="stop126704" />
			<stop
   offset="0.65"
   style="stop-color:#03B3F4"
   id="stop126706" />
			<stop
   offset="0.68043"
   style="stop-color:#03B0F4"
   id="stop126708" />
			<stop
   offset="0.70487"
   style="stop-color:#03A6F5"
   id="stop126710" />
			<stop
   offset="0.72724"
   style="stop-color:#0395F6"
   id="stop126712" />
			<stop
   offset="0.74837"
   style="stop-color:#027DF8"
   id="stop126714" />
			<stop
   offset="0.76864"
   style="stop-color:#025EFA"
   id="stop126716" />
			<stop
   offset="0.78797"
   style="stop-color:#0139FC"
   id="stop126718" />
			<stop
   offset="0.8"
   style="stop-color:#011EFE"
   id="stop126720" />
			<stop
   offset="0.81587"
   style="stop-color:#1B1AFE"
   id="stop126722" />
			<stop
   offset="0.84709"
   style="stop-color:#4812FD"
   id="stop126724" />
			<stop
   offset="0.87851"
   style="stop-color:#6E0CFD"
   id="stop126726" />
			<stop
   offset="0.90965"
   style="stop-color:#8B07FC"
   id="stop126728" />
			<stop
   offset="0.94046"
   style="stop-color:#9F04FC"
   id="stop126730" />
			<stop
   offset="0.97077"
   style="stop-color:#AC02FC"
   id="stop126732" />
			<stop
   offset="1"
   style="stop-color:#B001FC"
   id="stop126734" />
		</linearGradient>
		<path
   id="Spectrum_2_"
   class="st5"
   d="m 327.22806,142.08955 c -26.18005,0 -50.02737,14.67885 -62.05548,36.99522 -3.36667,-0.44313 -6.76526,-0.66602 -10.17981,-0.66602 -11.38274,0 -22.46872,2.45114 -32.63121,7.16045 -12.57504,-10.70474 -28.58327,-16.66492 -45.46709,-16.66492 -25.96046,0 -49.59621,14.50854 -61.64163,36.61333 -4.23293,-0.70461 -8.53107,-1.05923 -12.87178,-1.05923 C 59.71309,204.46838 25,238.88539 25,281.18942 c 0,42.30403 34.71309,76.72104 77.38106,76.72104 32.87207,0 61.39546,-20.24249 72.47879,-49.78317 7.21767,0.20758 14.29828,-0.6647 21.09146,-2.57889 14.60036,17.0282 36.2547,27.21332 59.04146,27.21332 33.54141,0 62.37219,-20.92181 73.08426,-51.37469 38.36118,-0.45309 69.42883,-31.52142 69.42883,-69.64641 0,-38.40577 -31.52673,-69.65107 -70.2778,-69.65107 z"
   style="fill:url(#Spectrum_1_)" />
		<path
   id="White_2_"
   class="st6"
   d="m 327.22806,150.26532 c -25.14609,0 -47.85303,15.30295 -57.36346,37.93137 -4.87433,-1.06456 -9.85379,-1.60216 -14.87183,-1.60216 -12.01082,0 -23.65038,3.04796 -33.99918,8.86241 -11.59697,-11.74002 -27.35901,-18.36687 -44.09912,-18.36687 -24.99971,0 -47.55891,15.22044 -57.06937,37.75438 -5.67274,-1.46176 -11.51581,-2.2003 -17.44404,-2.2003 -38.16025,0 -69.20529,30.74896 -69.20529,68.54527 0,37.79631 31.04504,68.54526 69.20529,68.54526 31.49747,0 58.52914,-20.75812 66.6996,-50.24759 2.59485,0.32867 5.20699,0.49435 7.81381,0.49435 7.58894,0 14.93835,-1.33536 21.92049,-3.97745 12.95163,17.76474 33.96324,28.58261 56.17781,28.58261 32.03906,0 59.27301,-21.32834 67.09616,-51.58362 1.71524,0.1424 3.43185,0.21359 5.13913,0.21359 34.24268,0 62.10205,-27.57793 62.10205,-61.47597 0,-33.89735 -27.85938,-61.47528 -62.10205,-61.47528 z" />
		<path
   id="Black_2_"
   d="m 327.22763,157.07822 c -25.14609,0 -46.35696,16.60237 -53.06631,39.32027 -6.04193,-1.93491 -12.48016,-2.99098 -19.16887,-2.99098 -13.08195,0 -25.22052,4.00389 -35.25818,10.838 -10.09039,-12.40288 -25.52757,-20.34245 -42.83987,-20.34245 -25.06433,0 -46.2012,16.63339 -52.85392,39.38083 -6.74769,-2.47185 -14.04312,-3.82666 -21.6595,-3.82666 -34.4581,0 -62.39198,27.63847 -62.39198,61.7323 0,34.09372 27.93388,61.73218 62.39198,61.73218 30.86457,0 56.47788,-22.17987 61.48811,-51.30563 4.17737,1.00641 8.53606,1.55249 13.02531,1.55249 8.77991,0 17.07368,-2.05051 24.43832,-5.67938 10.91957,18.138 30.86073,30.2843 53.65973,30.2843 31.16521,0 56.99602,-22.69031 61.72771,-52.36829 3.40317,0.64752 6.91321,0.99835 10.50748,0.99835 30.5358,0 55.28992,-24.47327 55.28992,-54.66267 -10e-6,-30.18934 -24.75413,-54.66266 -55.28993,-54.66266 z" />
		<rect
   x="322.65952"
   y="257.16211"
   width="35.320629"
   height="11.58833"
   id="rect126740" />
	</g>
	<g
   id="Wiki">
		<path
   d="m 475,244.76375 c 0,-4.07442 -1.70648,-7.84381 -4.6832,-10.34077 -3.00479,-2.522 -7.06912,-3.55301 -11.15543,-2.83495 -4.70248,0.82944 -8.69412,3.68742 -11.12192,7.53114 -0.27707,-0.27722 -0.5549,-0.55408 -0.85687,-0.80743 -3.00394,-2.52023 -6.96555,-3.56967 -10.8754,-2.8819 -4.6507,0.81989 -8.44028,3.85277 -11.24493,8.98148 l -2.53693,4.584 c -0.28265,-0.77512 -0.63904,-1.53708 -1.08585,-2.31088 -2.77747,-4.7543 -8.11288,-7.20168 -13.5791,-6.23871 -3.75693,0.66283 -7.18439,2.83784 -9.56155,5.94612 -2.90872,-2.07715 -6.6239,-2.90308 -10.36334,-2.24477 -4.15961,0.7337 -7.76019,3.05801 -10.21924,6.24327 -2.04343,-1.48776 -4.50601,-2.44173 -7.16168,-2.72231 -7.33862,-0.7738 -13.63617,3.48672 -15.70255,10.60149 l -0.97266,3.60742 -0.11588,-0.30109 c -1.46332,-3.81854 -4.63754,-6.80226 -8.70801,-8.18527 -4.17407,-1.41901 -8.7019,-0.93007 -12.41599,1.34526 -3.13821,1.92113 -5.34683,4.98518 -6.38705,8.85771 l -0.99985,3.71494 -0.26422,-0.69128 c -1.37817,-3.59821 -4.21179,-6.35281 -7.97766,-7.75647 -3.96426,-1.47604 -8.53949,-1.26407 -11.94019,0.55612 -6.89359,3.69125 -9.57269,11.26819 -6.66534,18.8548 l 15.46289,40.34137 c 2.27795,5.9455 6.40375,9.27597 12.26324,9.89749 0.56708,0.0597 1.12186,0.0886 1.66611,0.0886 7.25171,0 12.41861,-5.159 13.88895,-10.64188 l 1.06656,-3.96997 c 2.2771,5.36307 6.33438,8.71109 11.22299,9.22815 4.81577,0.51001 13.37982,-0.30551 16.62341,-11.47757 l 4.94641,-18.40912 -7.6e-4,12.18314 c 0,4.24954 1.58713,7.92148 4.46814,10.3399 2.17261,1.82236 4.88861,2.7735 7.82495,2.7735 0.81638,0 1.6503,-0.0729 2.4939,-0.22211 4.05273,-0.71494 7.38263,-2.97226 9.53571,-6.19919 2.24405,1.73785 5.04636,2.69885 8.01904,2.69885 0.8111,0 1.63538,-0.0715 2.46317,-0.21725 4.41461,-0.77863 8.47894,-3.73953 10.8912,-7.95618 1.45981,-2.58475 2.11469,-5.07999 2.27444,-8.97095 l 5.2529,6.33835 c 3.94055,4.75519 10.27408,6.46298 16.1362,4.34833 2.75275,-0.99213 5.06577,-2.67245 6.78757,-4.80634 2.09305,1.58987 4.63315,2.42743 7.37177,2.42743 0.81638,0 1.6503,-0.0733 2.4939,-0.22211 7.12531,-1.25616 12.02795,-7.26883 12.19913,-14.96167 l 0.002,-27.96005 c 0,-3.11673 -0.86099,-5.91681 -2.45242,-8.14523 C 473.60068,251.95792 475,248.43401 475,244.76375 Z"
   id="path126743" />
		
			<linearGradient
   id="SVGID_2_"
   gradientUnits="userSpaceOnUse"
   x1="386.11203"
   y1="287.18619"
   x2="386.11203"
   y2="226.8782"
   gradientTransform="matrix(1,-0.17633,0,1,0,92.76384)">
			<stop
   offset="0.2"
   style="stop-color:#F8EC19"
   id="stop126745" />
			<stop
   offset="0.6"
   style="stop-color:#F15A2B"
   id="stop126747" />
		</linearGradient>
		<path
   class="st7"
   d="m 467.83167,244.76384 c 0,4.13544 -3.3833,8.11617 -7.6131,8.86198 -4.04193,0.71271 -7.51959,-2.05824 -7.51959,-6.00586 0,-4.32326 3.38416,-8.20981 7.70743,-8.97211 4.13543,-0.72918 7.42526,1.98055 7.42526,6.11599 z m -1.241,45.95836 c -0.0955,4.24661 -2.56815,7.40814 -6.27762,8.06219 -3.80493,0.67093 -6.37308,-1.69611 -6.37308,-5.83154 v -27.79968 c 0.0946,-4.24646 2.56815,-7.40811 6.27762,-8.06219 3.80493,-0.6709 6.37308,1.69611 6.37308,5.83154 z m -50.20294,-12.80014 17.90012,21.60098 c 4.59164,5.54095 13.59189,1.75409 13.59189,-5.47925 0,-2.3877 -0.73352,-4.36172 -2.50308,-6.52512 l -12.26801,-14.81238 10.51273,-18.51321 c 0.95474,-1.6476 1.39355,-3.16519 1.39355,-4.80101 0,-4.45486 -3.4173,-7.6156 -7.46283,-6.90227 -1.5535,0.27393 -3.88754,1.13097 -6.21777,5.3932 l -14.94659,27.00154 v -17.94315 c 0,-3.99605 -0.35126,-5.27867 -1.13846,-6.64099 -1.26508,-2.16571 -3.621,-3.23953 -6.14447,-2.79457 -2.414,0.42564 -4.60907,2.0592 -5.87128,4.37021 l -0.06,0.10339 c -1.04803,1.75398 -1.35168,3.44336 -1.35168,7.53029 v 38.68823 c 0,4.12219 0.2789,5.35855 1.06232,6.77435 1.23364,2.11606 3.56577,3.12173 6.22061,2.65359 2.30832,-0.40701 4.56717,-2.10132 5.8941,-4.42087 0.93857,-1.66235 1.38882,-3.22623 1.38882,-7.57541 V 277.92206 Z M 396.6051,257.323 c 0,4.13544 -3.3833,8.11618 -7.61307,8.862 -4.04196,0.71271 -7.51959,-2.05826 -7.51959,-6.00586 0,-4.32327 3.38416,-8.20981 7.7074,-8.97212 4.13544,-0.72919 7.42526,1.98054 7.42526,6.11598 z m -1.24099,45.95837 c -0.0955,4.24661 -2.56815,7.40811 -6.27759,8.06219 -3.80493,0.6709 -6.37308,-1.69611 -6.37308,-5.83154 v -27.79968 c 0.0946,-4.24646 2.56815,-7.40811 6.27759,-8.06219 3.80493,-0.67093 6.37308,1.69611 6.37308,5.83154 z m -86.90958,-37.54461 c -3.86765,2.07059 -4.94333,5.82742 -3.35571,9.96902 l 15.46313,40.34259 c 0.92148,2.4039 2.39413,4.91614 6.32501,5.33295 4.72195,0.5007 7.2673,-3.01593 7.87637,-5.28418 l 6.78262,-25.24808 7.61511,19.8656 c 1.24991,3.26019 3.29221,5.13092 5.5683,5.37152 5.95526,0.62949 7.90765,-2.63568 8.9856,-6.34686 l 12.20132,-45.41446 c 1.35327,-5.03409 -1.47333,-9.03725 -6.11514,-9.52789 -3.0376,-0.32108 -6.75101,0.94824 -8.06482,5.47223 l -6.66336,24.75232 -8.0032,-20.8797 c -1.44827,-3.77859 -6.67422,-5.74954 -10.68753,-3.29193 -1.56461,0.95813 -2.6438,2.50824 -3.20746,4.60687 l -6.73453,25.02234 -8.14584,-21.29736 c -1.61151,-4.20454 -7.16162,-4.87885 -9.83987,-3.44498 z"
   id="path126750"
   style="fill:url(#SVGID_2_)" />
		<g
   id="g126886">
			
				<linearGradient
   id="SVGID_3_"
   gradientUnits="userSpaceOnUse"
   x1="457.30447"
   y1="261.23257"
   x2="457.30447"
   y2="293.23322"
   gradientTransform="translate(0,3.82398)">
				<stop
   offset="0"
   style="stop-color:#FFFFFF"
   id="stop126752" />
				<stop
   offset="0.21678"
   style="stop-color:#FFFFFC"
   id="stop126754" />
				<stop
   offset="0.39094"
   style="stop-color:#FFFEF2"
   id="stop126756" />
				<stop
   offset="0.55028"
   style="stop-color:#FEFCE1"
   id="stop126758" />
				<stop
   offset="0.70081"
   style="stop-color:#FEFAC9"
   id="stop126760" />
				<stop
   offset="0.84512"
   style="stop-color:#FDF7AA"
   id="stop126762" />
				<stop
   offset="0.98295"
   style="stop-color:#FCF385"
   id="stop126764" />
				<stop
   offset="1"
   style="stop-color:#FCF380"
   id="stop126766" />
			</linearGradient>
			<path
   class="st8"
   d="m 458.74457,294.88666 c -0.03,-0.0312 -0.7406,-0.77768 -0.7406,-2.27368 l 3.4e-4,-26.29135 c 0,-0.69858 -0.56631,-1.26508 -1.26508,-1.26508 -0.69873,0 -1.26505,0.5665 -1.26505,1.26508 l -3.4e-4,26.29135 c 0,2.58466 1.35831,3.94659 1.51346,4.09335 0.24677,0.23392 0.565,0.35086 0.88226,0.35086 0.33438,0 0.66779,-0.13013 0.91455,-0.39056 0.48066,-0.50702 0.46781,-1.2995 -0.0395,-1.77997 z"
   id="path126769"
   style="fill:url(#SVGID_3_)" />
			<path
   class="st6"
   d="m 456.19336,249.67361 c -0.50668,0 -0.98471,-0.30638 -1.17941,-0.80713 -0.23227,-0.59712 -0.34988,-1.23955 -0.34988,-1.9093 0,-2.99977 2.43329,-5.8694 5.42398,-6.39684 0.68921,-0.12222 1.34415,0.33818 1.4657,1.02606 0.12125,0.68803 -0.33801,1.34413 -1.02621,1.46553 -1.80701,0.31874 -3.33331,2.10713 -3.33331,3.90524 0,0.35498 0.0599,0.68887 0.17789,0.99278 0.25302,0.65114 -0.0695,1.38432 -0.72083,1.63734 -0.15056,0.0587 -0.3054,0.0863 -0.45793,0.0863 z"
   id="path126771" />
			
				<linearGradient
   id="SVGID_4_"
   gradientUnits="userSpaceOnUse"
   x1="424.51089"
   y1="158.08789"
   x2="416.78839"
   y2="186.90814"
   gradientTransform="matrix(0.76604,-0.64279,0.64279,0.76604,-2.93369,427.24362)">
				<stop
   offset="0"
   style="stop-color:#FFFFFF"
   id="stop126773" />
				<stop
   offset="0.21678"
   style="stop-color:#FFFFFC"
   id="stop126775" />
				<stop
   offset="0.39094"
   style="stop-color:#FFFEF2"
   id="stop126777" />
				<stop
   offset="0.55028"
   style="stop-color:#FEFCE1"
   id="stop126779" />
				<stop
   offset="0.70081"
   style="stop-color:#FEFAC9"
   id="stop126781" />
				<stop
   offset="0.84512"
   style="stop-color:#FDF7AA"
   id="stop126783" />
				<stop
   offset="0.98295"
   style="stop-color:#FCF385"
   id="stop126785" />
				<stop
   offset="1"
   style="stop-color:#FCF380"
   id="stop126787" />
			</linearGradient>
			<path
   class="st9"
   d="m 439.88644,298.32025 c -0.0433,-0.004 -1.06766,-0.11969 -2.02927,-1.26572 l -16.32178,-19.4519 c -0.44904,-0.53513 -1.24701,-0.60507 -1.78226,-0.15591 -0.53528,0.44916 -0.60498,1.24713 -0.15594,1.78226 l 16.32178,19.45193 c 1.66141,1.97995 3.57736,2.15015 3.79041,2.16315 0.33939,0.0206 0.6586,-0.0946 0.90164,-0.29852 0.25613,-0.21494 0.42789,-0.52893 0.44962,-0.88693 0.0423,-0.69737 -0.47684,-1.29606 -1.1742,-1.33836 z"
   id="path126790"
   style="fill:url(#SVGID_4_)" />
			<path
   class="st6"
   d="m 434.75757,250.06512 c 0.3385,-0.61098 0.1178,-1.38106 -0.4931,-1.71976 -0.61121,-0.33774 -1.38077,-0.11777 -1.72003,0.49323 l -12.61505,22.75833 c -0.33856,0.61099 -0.11783,1.3811 0.4931,1.71982 0.0987,0.0546 0.20142,0.0947 0.30588,0.12094 0.54257,0.1362 1.12988,-0.10187 1.41409,-0.6142 z"
   id="path126792" />
			
				<linearGradient
   id="SVGID_5_"
   gradientUnits="userSpaceOnUse"
   x1="405.26031"
   y1="252.63828"
   x2="405.26031"
   y2="301.80392"
   gradientTransform="translate(0,3.82398)">
				<stop
   offset="0"
   style="stop-color:#FFFFFF"
   id="stop126794" />
				<stop
   offset="0.21678"
   style="stop-color:#FFFFFC"
   id="stop126796" />
				<stop
   offset="0.39094"
   style="stop-color:#FFFEF2"
   id="stop126798" />
				<stop
   offset="0.55028"
   style="stop-color:#FEFCE1"
   id="stop126800" />
				<stop
   offset="0.70081"
   style="stop-color:#FEFAC9"
   id="stop126802" />
				<stop
   offset="0.84512"
   style="stop-color:#FDF7AA"
   id="stop126804" />
				<stop
   offset="0.98295"
   style="stop-color:#FCF385"
   id="stop126806" />
				<stop
   offset="1"
   style="stop-color:#FCF380"
   id="stop126808" />
			</linearGradient>
			<path
   class="st10"
   d="m 406.70074,303.45752 c -0.0303,-0.0313 -0.74094,-0.77798 -0.74094,-2.27399 l 3.4e-4,-43.45621 c 0,-0.69858 -0.56631,-1.26508 -1.26508,-1.26508 -0.69877,0 -1.26508,0.5665 -1.26508,1.26508 l -3.1e-4,43.45621 c 0,2.58466 1.35828,3.94659 1.51312,4.09351 0.24677,0.23392 0.56534,0.35086 0.8826,0.35086 0.33438,0 0.66779,-0.13013 0.91452,-0.39038 0.4807,-0.50702 0.46785,-1.29935 -0.0392,-1.78 z"
   id="path126811"
   style="fill:url(#SVGID_5_)" />
			
				<ellipse
   transform="rotate(-45.256861,435.31182,246.45842)"
   class="st6"
   cx="435.31021"
   cy="246.45853"
   rx="1.2764601"
   ry="1.25376"
   id="ellipse126813" />
			
				<ellipse
   transform="rotate(-45.256861,404.73747,254.36506)"
   class="st6"
   cx="404.7359"
   cy="254.36508"
   rx="1.2764601"
   ry="1.25376"
   id="ellipse126815" />
			
				<linearGradient
   id="SVGID_6_"
   gradientUnits="userSpaceOnUse"
   x1="386.07794"
   y1="273.79172"
   x2="386.07794"
   y2="305.79251"
   gradientTransform="translate(0,3.82398)">
				<stop
   offset="0"
   style="stop-color:#FFFFFF"
   id="stop126817" />
				<stop
   offset="0.21678"
   style="stop-color:#FFFFFC"
   id="stop126819" />
				<stop
   offset="0.39094"
   style="stop-color:#FFFEF2"
   id="stop126821" />
				<stop
   offset="0.55028"
   style="stop-color:#FEFCE1"
   id="stop126823" />
				<stop
   offset="0.70081"
   style="stop-color:#FEFAC9"
   id="stop126825" />
				<stop
   offset="0.84512"
   style="stop-color:#FDF7AA"
   id="stop126827" />
				<stop
   offset="0.98295"
   style="stop-color:#FCF385"
   id="stop126829" />
				<stop
   offset="1"
   style="stop-color:#FCF380"
   id="stop126831" />
			</linearGradient>
			<path
   class="st11"
   d="m 387.51837,307.44611 c -0.0303,-0.0313 -0.74094,-0.77798 -0.74094,-2.27399 l 3.4e-4,-26.29135 c 0,-0.69858 -0.56631,-1.26508 -1.26508,-1.26508 -0.69877,0 -1.26508,0.5665 -1.26508,1.26508 l -3.4e-4,26.29135 c 0,2.58466 1.35831,3.94659 1.51315,4.09354 0.24677,0.23389 0.56534,0.35083 0.8826,0.35083 0.33438,0 0.66779,-0.13013 0.91452,-0.39038 0.48067,-0.50702 0.46782,-1.29932 -0.0392,-1.78 z"
   id="path126834"
   style="fill:url(#SVGID_6_)" />
			<path
   class="st6"
   d="m 384.9668,262.23276 c -0.50668,0 -0.98471,-0.30637 -1.17941,-0.80713 -0.23224,-0.59714 -0.34985,-1.23953 -0.34985,-1.9093 0,-2.99976 2.43326,-5.8694 5.42398,-6.39684 0.68787,-0.12222 1.34412,0.33801 1.4657,1.02606 0.12122,0.68803 -0.33801,1.34413 -1.02621,1.46553 -1.80701,0.31874 -3.33334,2.10712 -3.33334,3.90524 0,0.35498 0.06,0.68887 0.17792,0.99277 0.25299,0.65115 -0.0695,1.38434 -0.72083,1.63736 -0.15059,0.0586 -0.30544,0.0863 -0.45796,0.0863 z"
   id="path126836" />
			<path
   class="st6"
   d="m 358.55685,286.91214 c -0.10773,0 -0.2171,-0.0138 -0.32614,-0.0428 -0.67505,-0.17972 -1.07663,-0.87286 -0.89709,-1.54791 l 6.23047,-23.40805 c 0.18021,-0.6752 0.87302,-1.07596 1.54807,-0.89725 0.67502,0.17972 1.07663,0.87286 0.89706,1.54791 l -6.23047,23.40805 c -0.15088,0.56614 -0.66251,0.94007 -1.2219,0.94007 z"
   id="path126838" />
			
				<linearGradient
   id="SVGID_7_"
   gradientUnits="userSpaceOnUse"
   x1="344.12186"
   y1="283.65787"
   x2="354.39722"
   y2="310.42606"
   gradientTransform="translate(0,3.82398)">
				<stop
   offset="0"
   style="stop-color:#FFFFFF"
   id="stop126840" />
				<stop
   offset="0.21678"
   style="stop-color:#FFFFFC"
   id="stop126842" />
				<stop
   offset="0.39094"
   style="stop-color:#FFFEF2"
   id="stop126844" />
				<stop
   offset="0.55028"
   style="stop-color:#FEFCE1"
   id="stop126846" />
				<stop
   offset="0.70081"
   style="stop-color:#FEFAC9"
   id="stop126848" />
				<stop
   offset="0.84512"
   style="stop-color:#FDF7AA"
   id="stop126850" />
				<stop
   offset="0.98295"
   style="stop-color:#FCF385"
   id="stop126852" />
				<stop
   offset="1"
   style="stop-color:#FCF380"
   id="stop126854" />
			</linearGradient>
			<path
   class="st12"
   d="m 355.19092,311.9628 c -0.0115,-0.0102 -1.15274,-1.03314 -1.71674,-2.49719 l -8.12775,-21.10043 c -0.25104,-0.65182 -0.98273,-0.97617 -1.63504,-0.72577 -0.65198,0.25119 -0.97714,0.98337 -0.72577,1.63535 l 8.12775,21.10013 c 0.79495,2.06464 2.34399,3.43314 2.40955,3.49048 0.23953,0.2092 0.53503,0.31165 0.82922,0.31165 0.3512,0 0.70041,-0.1456 0.95078,-0.43024 0.46023,-0.52318 0.40918,-1.32143 -0.112,-1.78398 z"
   id="path126857"
   style="fill:url(#SVGID_7_)" />
			<path
   class="st6"
   d="m 329.77029,292.20615 c -0.10776,0 -0.21713,-0.0138 -0.32617,-0.0428 -0.67502,-0.17972 -1.07663,-0.87286 -0.89706,-1.54788 l 6.1257,-23.01389 c 0.18021,-0.67505 0.87302,-1.07614 1.54807,-0.89725 0.67502,0.17972 1.0766,0.87286 0.89706,1.54791 l -6.1257,23.01385 c -0.15088,0.56617 -0.66251,0.94008 -1.2219,0.94008 z"
   id="path126859" />
			
				<linearGradient
   id="SVGID_8_"
   gradientUnits="userSpaceOnUse"
   x1="308.54568"
   y1="270.77136"
   x2="325.46744"
   y2="314.85403"
   gradientTransform="translate(0,3.82398)">
				<stop
   offset="0"
   style="stop-color:#FFFFFF"
   id="stop126861" />
				<stop
   offset="0.21678"
   style="stop-color:#FFFFFC"
   id="stop126863" />
				<stop
   offset="0.39094"
   style="stop-color:#FFFEF2"
   id="stop126865" />
				<stop
   offset="0.55028"
   style="stop-color:#FEFCE1"
   id="stop126867" />
				<stop
   offset="0.70081"
   style="stop-color:#FEFAC9"
   id="stop126869" />
				<stop
   offset="0.84512"
   style="stop-color:#FDF7AA"
   id="stop126871" />
				<stop
   offset="0.98295"
   style="stop-color:#FCF385"
   id="stop126873" />
				<stop
   offset="1"
   style="stop-color:#FCF380"
   id="stop126875" />
			</linearGradient>
			<path
   class="st13"
   d="m 326.27982,316.26108 c -0.0135,-0.01 -1.38007,-0.99789 -1.91904,-2.40628 l -14.67874,-38.33948 c -0.24939,-0.65228 -0.97943,-0.97845 -1.6337,-0.72906 -0.65265,0.24973 -0.97879,0.98126 -0.72906,1.63373 l 14.67874,38.33948 c 0.81998,2.1424 2.7413,3.51157 2.82269,3.56854 0.22104,0.15552 0.47406,0.22995 0.72476,0.22995 0.396,0 0.78638,-0.18646 1.03314,-0.53467 0.40293,-0.5683 0.26816,-1.357 -0.29879,-1.76221 z"
   id="path126878"
   style="fill:url(#SVGID_8_)" />
			<circle
   class="st6"
   cx="365.66693"
   cy="258.93143"
   r="1.2650599"
   id="circle126880" />
			<circle
   class="st6"
   cx="336.77548"
   cy="264.6196"
   r="1.26507"
   id="circle126882" />
			<circle
   class="st6"
   cx="307.16898"
   cy="272.48901"
   r="1.43374"
   id="circle126884" />
		</g>
	</g>
	<g
   id="리듬_세상_00000001652036029481234410000004644106815103224492_">
		<path
   id="상_2_"
   class="st14"
   d="m 340.49414,222.11472 c -4.79993,-1.20325 -13.33228,-1.38474 -21.92276,4.36066 -7.40912,4.95528 -10.01971,13.67007 -7.38852,19.6591 4.03253,9.17857 20.19873,7.98537 30.4014,1.17572 5.70117,-3.80518 8.56805,-8.44005 8.56805,-13.80746 0,-4.79154 -2.50012,-9.59364 -9.65817,-11.38802 z m -12.60519,22.23486 c -1.72043,-0.0339 -5.22946,-0.10295 -5.22946,-5.49817 0,-5.59137 4.46442,-9.60207 9.31757,-9.60262 4.98154,-6.1e-4 5.3317,3.37517 5.3317,5.43004 -1e-5,5.03702 -4.3412,9.77071 -9.41981,9.67075 z m 33.33538,-52.30422 v 8.30084 l -9.43674,1.83432 v 15.58879 l -12.60519,2.4502 v -35.91814 c 0,-1.61746 -1.32785,-1.601 -2.84085,-1.3069 l -1.51981,0.29543 v -4.79332 l 16.96585,-3.29782 v 18.68092 z m -46.41748,18.24335 c 0,0 -1.38425,11.79663 -16.48883,27.03287 l -7.73343,-6.42178 c 7.73959,-6.26776 16.65924,-20.59006 16.65924,-33.35248 v -0.3602 c 0,-1.53305 -1.18613,-1.53152 -2.66336,-1.24437 l -1.49304,0.29021 v -4.54308 l 16.5741,-3.22168 v 6.66537 c 0,13.0341 7.19055,15.12962 16.74442,15.22327 l -4.75244,7.39272 c -14.51777,-1.30236 -16.84666,-7.46085 -16.84666,-7.46085 z" />
		<path
   id="세_00000151518686254035028310000006543246078542146693_"
   class="st15"
   d="m 251.35609,269.98203 -5.29494,7.26874 c -10.34419,-3.55765 -13.13808,-8.89456 -13.13808,-8.89456 0,0 -3.91727,7.49881 -12.12871,15.22864 l -6.85031,-5.94574 c 0,0 12.10284,-11.60168 12.10284,-23.2691 v -8.88091 c 0,-1.62413 -1.28331,-1.59015 -2.71866,-1.31116 l -1.44176,0.28026 v -5.13113 l 15.85175,-3.08127 -3e-5,16.33794 c 1e-5,15.64349 13.6179,17.39829 13.6179,17.39829 z m -1.60507,-39.19561 v 4.71855 l 1.22774,-0.23865 c 1.22223,-0.23758 2.34129,-0.45509 2.34129,1.16902 v 13.75092 l -10.35315,2.01245 v 7.3976 l 10.35315,-2.01245 2e-5,40.74988 11.35602,-2.2074 v -68.24106 z m 14.4601,-15.05238 v 4.71855 l 1.22772,-0.23865 c 1.22223,-0.23758 2.315,-0.39764 2.315,1.22647 v 60.09145 l 12.34375,-2.39938 v -66.48647 z" />
		<path
   id="듬_00000135689757128352503860000016487042145683423879_"
   class="st14"
   d="M 200.86493,243.07681 148.69305,253.218 v 5.06169 l 0.64685,-0.12573 c 3.41441,-0.6637 3.54863,-0.10468 3.54863,1.56284 v 10.59296 c 0,3.41055 2.65195,5.65985 5.92332,5.02399 l 37.44604,-7.27878 c 3.27138,-0.63589 5.92332,-3.91617 5.92332,-7.32675 v -16.53496 c 2e-5,-0.7579 -0.58932,-1.25776 -1.31628,-1.11645 z m -12.96477,19.59104 -22.01389,4.27905 v -9.61276 l 22.01389,-4.27907 z m 14.28102,-30.83091 5e-5,7.37248 -65.35072,12.7029 v -7.37248 z m -38.8616,-10.9961 v 7.56609 l 38.86165,-7.55394 v 7.37244 l -45.0377,8.75444 c -3.63483,0.70654 -6.58145,-1.79268 -6.58145,-5.58218 l -3e-5,-8.78348 c 0,-1.51971 -0.13397,-1.98015 -3.543,-1.31749 l -0.64586,0.12553 v -4.65979 l 55.80804,-10.84799 v 7.37244 z" />
		<path
   id="리_1_"
   class="st15"
   d="m 108.15754,249.69589 v 5.07355 l 1.44701,-0.28128 c 1.44053,-0.28 2.75947,-0.53638 2.75947,1.35648 v 29.96457 c -2.12818,1.21588 -4.85367,2.21997 -8.21348,2.87305 l -19.90193,3.86853 v -9.17108 l 18.45534,-3.58737 c 0.9183,-0.1785 1.66273,-1.08548 1.66273,-2.02582 v -18.15784 c 0,-0.94034 -0.74443,-1.55792 -1.66273,-1.37943 l -34.61628,6.72873 v 7.84174 l 23.60963,-4.58923 v 6.16608 l -24.70697,4.80255 v 5.15872 l 0.58334,-0.1134 c 1.17803,-0.22897 2.92484,-0.56851 2.92482,1.1853 v 12.20718 c 0,3.00903 2.38217,4.98532 5.32074,4.41412 l 25.98697,-5.05133 c 4.87479,-0.94757 8.41304,-2.14005 10.55783,-3.23669 v 28.72983 l 13.38435,-2.60165 v -73.5946 z" />
	</g>
</g>
</svg>
