<?xml version="1.0" encoding="UTF-8" standalone="no"?>
<!-- Generator: Adobe Illustrator 25.0.0, SVG Export Plug-In . SVG Version: 6.00 Build 0)  -->

<svg
   version="1.1"
   id="Layer_1"
   x="0px"
   y="0px"
   viewBox="0 0 666.66699 320.12827"
   xml:space="preserve"
   sodipodi:docname="Rhythm World Wiki (리듬 세상 ＷＩＫＩ) Logo.svg"
   width="666.66699"
   height="320.12827"
   inkscape:version="1.2.2 (b0a8486541, 2022-12-01)"
   xmlns:inkscape="http://www.inkscape.org/namespaces/inkscape"
   xmlns:sodipodi="http://sodipodi.sourceforge.net/DTD/sodipodi-0.dtd"
   xmlns="http://www.w3.org/2000/svg"
   xmlns:svg="http://www.w3.org/2000/svg"><defs
   id="defs221" /><sodipodi:namedview
   id="namedview219"
   pagecolor="#505050"
   bordercolor="#eeeeee"
   borderopacity="1"
   inkscape:showpageshadow="0"
   inkscape:pageopacity="0"
   inkscape:pagecheckerboard="0"
   inkscape:deskcolor="#505050"
   showgrid="false"
   inkscape:zoom="2.844"
   inkscape:cx="250.17581"
   inkscape:cy="119.90155"
   inkscape:window-width="2560"
   inkscape:window-height="1404"
   inkscape:window-x="2560"
   inkscape:window-y="0"
   inkscape:window-maximized="1"
   inkscape:current-layer="Layer_1" />
<style
   type="text/css"
   id="style2">
	.st0{fill:url(#Spectrum_1_);}
	.st1{fill:#FFFFFF;}
	.st2{fill:url(#SVGID_1_);}
	.st3{fill:url(#SVGID_2_);}
	.st4{fill:url(#SVGID_3_);}
	.st5{fill:url(#SVGID_4_);}
	.st6{fill:url(#SVGID_5_);}
	.st7{fill:url(#SVGID_6_);}
	.st8{fill:url(#SVGID_7_);}
	.st9{fill:#FFAA00;}
	.st10{fill:#FF5500;}
</style>
<g
   id="Cloud"
   transform="scale(1.333334)">
	<linearGradient
   id="Spectrum_1_"
   gradientUnits="userSpaceOnUse"
   x1="381.22629"
   y1="182.20442"
   x2="30.96685"
   y2="54.720421">
		<stop
   offset="0"
   style="stop-color:#FF0000"
   id="stop4" />
		<stop
   offset="0.02547"
   style="stop-color:#FF0900"
   id="stop6" />
		<stop
   offset="0.06704"
   style="stop-color:#FF2100"
   id="stop8" />
		<stop
   offset="0.11955"
   style="stop-color:#FF4900"
   id="stop10" />
		<stop
   offset="0.18093"
   style="stop-color:#FF8000"
   id="stop12" />
		<stop
   offset="0.24895"
   style="stop-color:#FFC600"
   id="stop14" />
		<stop
   offset="0.3"
   style="stop-color:#FFFF00"
   id="stop16" />
		<stop
   offset="0.30991"
   style="stop-color:#F1FD00"
   id="stop18" />
		<stop
   offset="0.36189"
   style="stop-color:#ABF502"
   id="stop20" />
		<stop
   offset="0.40873"
   style="stop-color:#74EF04"
   id="stop22" />
		<stop
   offset="0.44882"
   style="stop-color:#4CEA05"
   id="stop24" />
		<stop
   offset="0.48056"
   style="stop-color:#34E706"
   id="stop26" />
		<stop
   offset="0.5"
   style="stop-color:#2BE606"
   id="stop28" />
		<stop
   offset="0.65"
   style="stop-color:#03B3F4"
   id="stop30" />
		<stop
   offset="0.68043"
   style="stop-color:#03B0F4"
   id="stop32" />
		<stop
   offset="0.70487"
   style="stop-color:#03A6F5"
   id="stop34" />
		<stop
   offset="0.72724"
   style="stop-color:#0395F6"
   id="stop36" />
		<stop
   offset="0.74837"
   style="stop-color:#027DF8"
   id="stop38" />
		<stop
   offset="0.76864"
   style="stop-color:#025EFA"
   id="stop40" />
		<stop
   offset="0.78797"
   style="stop-color:#0139FC"
   id="stop42" />
		<stop
   offset="0.8"
   style="stop-color:#011EFE"
   id="stop44" />
		<stop
   offset="0.81587"
   style="stop-color:#1B1AFE"
   id="stop46" />
		<stop
   offset="0.84709"
   style="stop-color:#4812FD"
   id="stop48" />
		<stop
   offset="0.87851"
   style="stop-color:#6E0CFD"
   id="stop50" />
		<stop
   offset="0.90965"
   style="stop-color:#8B07FC"
   id="stop52" />
		<stop
   offset="0.94046"
   style="stop-color:#9F04FC"
   id="stop54" />
		<stop
   offset="0.97077"
   style="stop-color:#AC02FC"
   id="stop56" />
		<stop
   offset="1"
   style="stop-color:#B001FC"
   id="stop58" />
	</linearGradient>
	<path
   id="Spectrum"
   class="st0"
   d="m 336.22214,0 c -29.12473,0 -55.65436,16.32991 -69.03537,41.15639 -3.74533,-0.49296 -7.52618,-0.74092 -11.3248,-0.74092 -12.66306,0 -24.99597,2.72683 -36.30153,7.96585 -13.98946,-11.9088 -31.79826,-18.53936 -50.58113,-18.53936 -28.88046,0 -55.17471,16.14043 -68.57499,40.73152 C 95.69528,69.78963 90.9137,69.39511 86.08475,69.39511 38.61756,69.3951 0,107.68328 0,154.74559 c 0,47.06231 38.61756,85.35048 86.08475,85.35048 36.56947,0 68.30112,-22.51932 80.63107,-55.38271 8.02951,0.23094 15.90654,-0.73944 23.46381,-2.86894 16.24257,18.9435 40.33255,30.27422 65.68234,30.27422 37.31409,0 69.3877,-23.27505 81.30463,-57.15321 42.67599,-0.50407 77.2381,-35.0669 77.2381,-77.48013 C 414.40469,34.75973 379.33188,0 336.22214,0 Z"
   style="fill:url(#Spectrum_1_)" />
	<path
   id="White"
   class="st1"
   d="m 336.22214,9.09537 c -27.97446,0 -53.23544,17.0242 -63.81561,42.19782 -5.42258,-1.18429 -10.9621,-1.78236 -16.54456,-1.78236 -13.36179,0 -26.31055,3.39078 -37.82335,9.85924 -12.90138,-13.06053 -30.43631,-20.43275 -49.05931,-20.43275 -27.81163,0 -52.90828,16.93242 -63.48845,42.00094 -6.3108,-1.62618 -12.81109,-2.44778 -19.40611,-2.44778 -42.45245,0 -76.98938,34.20755 -76.98938,76.25512 0,42.04757 34.53693,76.2551 76.98938,76.2551 35.04025,0 65.1124,-23.09296 74.20184,-55.89935 2.88672,0.36566 5.79268,0.54996 8.69272,0.54996 8.44252,0 16.61858,-1.48555 24.38606,-4.4248 14.4084,19.76288 37.78337,31.79752 62.4966,31.79752 35.64276,0 65.93991,-23.72731 74.64301,-57.38564 1.90817,0.15839 3.81784,0.23759 5.71716,0.23759 38.09424,0 69.08719,-30.67984 69.08719,-68.39068 0,-37.7101 -30.99295,-68.38993 -69.08719,-68.38993 z" />
	<path
   id="Black"
   d="m 336.22168,16.67456 c -27.97449,0 -51.57114,18.46978 -59.03513,43.74296 -6.72153,-2.15255 -13.88391,-3.3274 -21.32497,-3.3274 -14.55338,0 -28.05727,4.45424 -39.22395,12.05702 C 205.4123,55.34921 188.23877,46.5166 168.97921,46.5166 c -27.88353,0 -51.39784,18.50429 -58.79884,43.81031 -7.50666,-2.74987 -15.62267,-4.25707 -24.09573,-4.25707 -38.33389,0 -69.40972,30.7472 -69.40972,68.67583 0,37.92854 31.07583,68.67574 69.40972,68.67574 34.33615,0 62.83041,-24.67464 68.40417,-57.07643 4.64725,1.11963 9.49619,1.72713 14.49039,1.72713 9.76744,0 18.99409,-2.28114 27.18709,-6.31819 12.1478,20.17812 34.33191,33.69061 59.69528,33.69061 34.67064,0 63.40685,-25.24245 68.67076,-58.25859 3.78592,0.7204 7.69077,1.11066 11.68933,1.11066 33.9704,0 61.50882,-27.22597 61.50882,-60.81102 2e-5,-33.58496 -27.5384,-60.81102 -61.5088,-60.81102 z" />
	<rect
   x="331.13977"
   y="128.01573"
   width="39.293442"
   height="12.89176"
   id="rect64" />
</g>
<g
   id="Wiki_00000126313517740190795660000005953169726056141237_"
   transform="scale(1.333334)">
	<path
   d="m 500,116.53902 c 0,-4.4815 -1.87952,-8.65758 -5.15695,-11.4568 -3.30679,-2.82419 -7.78537,-4.03463 -12.27371,-3.32344 -5.02481,0.79586 -9.40158,3.84471 -12.121,7.97185 -0.27118,-0.27116 -0.55408,-0.53253 -0.84677,-0.78265 -3.22263,-2.75273 -7.49072,-3.9475 -11.703,-3.28184 -5.10507,0.80859 -9.27136,4.07476 -12.36279,9.67321 l -3.18933,5.70319 c -0.33969,-1.16589 -0.81348,-2.28676 -1.46838,-3.43063 -2.97495,-5.14912 -8.70752,-7.87298 -14.60846,-6.93615 -4.01846,0.63679 -7.71292,2.84621 -10.31879,6.08106 -3.19913,-2.3313 -7.2959,-3.29114 -11.40933,-2.63966 -4.3562,0.69014 -8.22491,3.07381 -10.94827,6.38502 -1.85504,-1.3142 -4.04391,-2.18398 -6.44522,-2.53345 -9.52097,-1.39056 -17.01462,3.61613 -19.53436,13.06273 l -0.58539,2.19571 c -2.67441,-6.35858 -8.88861,-10.17539 -15.93881,-9.77012 -7.16373,0.41751 -12.9472,5.08794 -14.73471,11.89878 l -0.92899,3.53831 c -1.64755,-3.98518 -4.70178,-7.08739 -8.66052,-8.7775 -4.09286,-1.74738 -8.73883,-1.74982 -12.74753,-0.005 -8.33453,3.62642 -12.22379,12.58208 -9.0462,20.83194 l 17.40424,45.18114 c 3.08459,8.00856 9.60617,10.74562 15.14978,10.74464 0.88593,0 1.74738,-0.0695 2.56479,-0.19873 10.26105,-1.625 13.34662,-9.21654 14.77386,-14.78514 l 0.12433,-0.48553 c 3.30777,8.39278 10.728,11.21892 16.61621,10.27818 7.61111,-1.20505 12.52725,-5.87892 14.61334,-13.89236 l 4.70764,-18.09193 v 12.71472 c 0,4.10754 1.72876,7.94052 4.74384,10.51556 3.03857,2.59561 7.13928,3.7106 11.25369,3.05815 4.17804,-0.66174 7.86072,-3.04689 10.33936,-6.3297 3.0611,2.48547 7.10992,3.56425 11.38876,2.88831 4.84763,-0.76796 9.31445,-3.94749 11.9693,-8.54109 1.69058,-2.9632 2.39835,-5.83829 2.52365,-10.53319 l 6.55878,8.03302 c 3.76004,4.59065 8.14267,6.41585 13.42197,5.58133 4.20743,-0.66617 7.94592,-3.09389 10.58801,-6.50102 3.03662,2.58533 7.1344,3.69395 11.23608,3.04445 7.63556,-1.20897 13.61679,-8.17351 13.61679,-15.85461 v -32.23637 c 0,-2.94899 -0.89084,-5.75606 -2.50897,-8.05798 C 498.51596,124.40171 500,120.55945 500,116.53902 Z"
   id="path67" />
	
		<linearGradient
   id="SVGID_1_"
   gradientUnits="userSpaceOnUse"
   x1="401.93048"
   y1="189.13556"
   x2="401.93048"
   y2="122.19428"
   gradientTransform="matrix(1,-0.15838,0,1,0,63.69753)">
		<stop
   offset="0.2"
   style="stop-color:#F8EC19"
   id="stop69" />
		<stop
   offset="0.6"
   style="stop-color:#F15A2B"
   id="stop71" />
	</linearGradient>
	<path
   class="st2"
   d="m 391.72937,136.3934 -12.8732,49.47685 c -1.00583,3.86575 -2.78473,7.39896 -8.44055,8.29475 -2.93585,0.465 -6.59937,-1.06129 -8.36777,-5.6011 l -8.55652,-21.96617 -5.99591,23.3992 c -1.36771,5.33757 -3.45926,8.34618 -8.59534,9.15965 -2.63528,0.41739 -7.22812,-0.0611 -9.42593,-5.7666 l -17.40421,-45.18085 c -1.66754,-4.32884 0.16821,-9.02837 4.98233,-11.12312 4.19736,-1.82637 9.65054,0.0999 11.4794,5.0612 l 8.1217,22.03276 7.05869,-26.89296 c 2.06467,-7.86609 13.42676,-8.47131 16.39267,-0.89383 l 8.29608,21.19553 6.56247,-24.59637 c 1.23459,-4.62732 4.40283,-8.47065 11.08792,-7.49683 5.49098,0.79986 6.89845,6.20783 5.67817,10.89789 z m 21.2038,43.73407 v -32.23643 c 0,-3.97701 -3.22424,-6.68983 -7.2005,-6.06006 -3.97626,0.62977 -7.2005,4.36394 -7.2005,8.34094 v 32.23645 c 0,3.97701 3.22424,6.69057 7.2005,6.06079 3.97626,-0.62978 7.2005,-4.36468 7.2005,-8.34169 z m 1.4338,-51.23013 c 0,4.76888 -3.86594,9.24712 -8.6348,10.00243 -4.76889,0.75531 -8.63483,-2.49832 -8.63483,-7.2672 0,-4.76887 3.86594,-9.24711 8.63483,-10.00243 4.76887,-0.75532 8.6348,2.49832 8.6348,7.2672 z m 21.19107,23.25209 20.02997,24.53056 c 2.34195,2.85945 4.23203,3.22258 6.34753,2.88751 4.51669,-0.71538 8.19208,-5.48985 8.19208,-10.64313 0,-1.70224 -0.37357,-3.08708 -2.34088,-5.52753 l -13.63907,-16.71254 11.68759,-20.37253 c 1.06146,-1.81268 1.54932,-3.49112 1.54932,-5.30976 0,-4.95273 -3.79919,-8.53488 -8.29688,-7.82253 -1.72711,0.27355 -4.32199,1.17981 -6.91266,5.87191 l -16.617,29.72107 v -19.94847 c 0,-4.44264 -0.39053,-5.87561 -1.26572,-7.40589 -1.40643,-2.43298 -4.02567,-3.67381 -6.83115,-3.22946 -2.68381,0.42507 -5.12418,2.1974 -6.52747,4.74151 l -0.0666,0.11375 c -1.16516,1.92911 -1.50275,3.80122 -1.50275,8.34493 v 43.01199 c 0,4.58286 0.31006,5.96295 1.18103,7.55263 1.37152,2.37714 3.96429,3.54172 6.91583,3.07425 2.56631,-0.40646 5.07758,-2.24506 6.55283,-4.79739 1.04346,-1.82941 1.54404,-3.55907 1.54404,-8.39432 v -19.68656 z m 55.40174,15.61984 v -32.23643 c 0,-3.97701 -3.22424,-6.68983 -7.2005,-6.06006 -3.97626,0.62977 -7.2005,4.36395 -7.2005,8.34094 v 32.23645 c 0,3.97701 3.22424,6.69057 7.2005,6.06079 3.97626,-0.62978 7.2005,-4.36468 7.2005,-8.34169 z m 1.43381,-51.23014 c 0,4.76888 -3.86594,9.24712 -8.63483,10.00243 -4.76886,0.75532 -8.6348,-2.49831 -8.6348,-7.26719 0,-4.76888 3.86594,-9.24712 8.6348,-10.00243 4.76889,-0.75532 8.63483,2.49832 8.63483,7.26719 z"
   id="path74"
   style="fill:url(#SVGID_1_)" />
	<g
   id="g210">
		<circle
   class="st1"
   cx="315.241"
   cy="144.93443"
   r="1.70538"
   id="circle76" />
		<circle
   class="st1"
   cx="348.34122"
   cy="136.24338"
   r="1.70538"
   id="circle78" />
		<circle
   class="st1"
   cx="380.29065"
   cy="130.15582"
   r="1.70538"
   id="circle80" />
		
			<linearGradient
   id="SVGID_2_"
   gradientUnits="userSpaceOnUse"
   x1="316.85977"
   y1="142.93588"
   x2="335.79276"
   y2="192.25803"
   gradientTransform="translate(0,4.03391)">
			<stop
   offset="0"
   style="stop-color:#FFFFFF"
   id="stop82" />
			<stop
   offset="0.21678"
   style="stop-color:#FFFFFC"
   id="stop84" />
			<stop
   offset="0.39094"
   style="stop-color:#FFFEF2"
   id="stop86" />
			<stop
   offset="0.55028"
   style="stop-color:#FEFCE1"
   id="stop88" />
			<stop
   offset="0.70081"
   style="stop-color:#FEFAC9"
   id="stop90" />
			<stop
   offset="0.84512"
   style="stop-color:#FDF7AA"
   id="stop92" />
			<stop
   offset="0.98295"
   style="stop-color:#FCF385"
   id="stop94" />
			<stop
   offset="1"
   style="stop-color:#FCF380"
   id="stop96" />
		</linearGradient>
		<path
   class="st3"
   d="m 335.73062,196.19443 c -0.24869,0 -0.50037,-0.0548 -0.74017,-0.17024 -0.73132,-0.35306 -2.67502,-1.29161 -19.57635,-46.69147 -0.32864,-0.88304 0.12137,-1.86452 1.00369,-2.19316 0.88229,-0.32716 1.86377,0.1199 2.19388,1.00294 6.00436,16.12932 16.17746,42.42506 18.16559,44.99794 0.62323,0.48186 0.84677,1.35083 0.48999,2.08952 -0.29313,0.60918 -0.90302,0.96447 -1.53663,0.96447 z"
   id="path99"
   style="fill:url(#SVGID_2_)" />
		
			<linearGradient
   id="SVGID_3_"
   gradientUnits="userSpaceOnUse"
   x1="356.25043"
   y1="157.03073"
   x2="367.8291"
   y2="187.19423"
   gradientTransform="translate(0,4.03391)">
			<stop
   offset="0"
   style="stop-color:#FFFFFF"
   id="stop101" />
			<stop
   offset="0.21678"
   style="stop-color:#FFFFFC"
   id="stop103" />
			<stop
   offset="0.39094"
   style="stop-color:#FFFEF2"
   id="stop105" />
			<stop
   offset="0.55028"
   style="stop-color:#FEFCE1"
   id="stop107" />
			<stop
   offset="0.70081"
   style="stop-color:#FEFAC9"
   id="stop109" />
			<stop
   offset="0.84512"
   style="stop-color:#FDF7AA"
   id="stop111" />
			<stop
   offset="0.98295"
   style="stop-color:#FCF385"
   id="stop113" />
			<stop
   offset="1"
   style="stop-color:#FCF380"
   id="stop115" />
		</linearGradient>
		<path
   class="st4"
   d="m 367.69321,191.15897 c -0.24872,0 -0.50037,-0.0548 -0.7402,-0.17024 -0.66467,-0.32124 -2.69128,-1.29903 -11.97614,-27.6599 -0.31238,-0.88821 0.15396,-1.86156 1.04218,-2.17465 0.89117,-0.31161 1.86377,0.15396 2.17612,1.04218 4.05176,11.5054 9.0332,24.21805 10.44992,25.84053 0.69577,0.46558 0.95926,1.38266 0.58475,2.15762 -0.29313,0.60917 -0.90306,0.96446 -1.53663,0.96446 z"
   id="path118"
   style="fill:url(#SVGID_3_)" />
		<path
   class="st1"
   d="m 340.71207,166.74182 c -0.14658,0 -0.29462,-0.0193 -0.44266,-0.0592 -0.9104,-0.24352 -1.44925,-1.17838 -1.20648,-2.08806 l 6.68533,-24.94934 c 0.24426,-0.91043 1.18134,-1.44853 2.08881,-1.20576 0.9104,0.24353 1.44925,1.17838 1.20648,2.08806 l -6.68533,24.94934 c -0.20429,0.76239 -0.89414,1.26498 -1.64615,1.26498 z"
   id="path120" />
		<path
   class="st1"
   d="m 372.36523,161.51761 c -0.14655,0 -0.29459,-0.0193 -0.44263,-0.0592 -0.91043,-0.24352 -1.44928,-1.17838 -1.20651,-2.08806 l 6.93848,-25.89159 c 0.24426,-0.91043 1.18283,-1.44928 2.08881,-1.20576 0.91043,0.24352 1.44928,1.17838 1.20648,2.08806 l -6.93845,25.89159 c -0.20431,0.76238 -0.89416,1.26498 -1.64618,1.26498 z"
   id="path122" />
		<path
   class="st1"
   d="m 406.19159,123.59949 c -1.96445,0 -3.71683,1.2782 -4.90289,2.46425 -1.83398,1.83399 -1.91168,5.10281 -1.80414,6.20894 0.11377,1.17027 0.86255,1.72194 1.80405,1.72194 0.94153,0 1.69504,-0.48665 1.69504,-2.02367 0,-0.75131 -0.0509,-2.60849 1.05197,-3.7617 0.49741,-0.52034 1.26779,-1.199 2.15598,-1.199 0.9415,0 1.70538,-0.76387 1.70538,-1.70538 0,-0.94151 -0.76389,-1.70538 -1.70539,-1.70538 z"
   id="path124" />
		
			<linearGradient
   id="SVGID_4_"
   gradientUnits="userSpaceOnUse"
   x1="402.6597"
   y1="146.30838"
   x2="402.6597"
   y2="182.21687"
   gradientTransform="translate(0,4.03391)">
			<stop
   offset="0"
   style="stop-color:#FFFFFF"
   id="stop126" />
			<stop
   offset="0.21678"
   style="stop-color:#FFFFFC"
   id="stop128" />
			<stop
   offset="0.39094"
   style="stop-color:#FFFEF2"
   id="stop130" />
			<stop
   offset="0.55028"
   style="stop-color:#FEFCE1"
   id="stop132" />
			<stop
   offset="0.70081"
   style="stop-color:#FEFAC9"
   id="stop134" />
			<stop
   offset="0.84512"
   style="stop-color:#FDF7AA"
   id="stop136" />
			<stop
   offset="0.98295"
   style="stop-color:#FCF385"
   id="stop138" />
			<stop
   offset="1"
   style="stop-color:#FCF380"
   id="stop140" />
		</linearGradient>
		<path
   class="st5"
   d="m 404.0939,183.05986 c -0.0592,-0.06 -0.32568,-0.37158 -0.32568,-1.23611 v -29.77608 c 0,-0.94151 -0.76385,-1.70538 -1.70538,-1.70538 -0.9415,0 -1.70538,0.76387 -1.70538,1.70538 v 29.77608 c 0,3.16725 1.95853,4.16501 2.18207,4.26863 0.23242,0.10733 0.47519,0.1584 0.71503,0.1584 0.64395,0 1.26126,-0.36713 1.54846,-0.98962 0.37749,-0.81272 0.0592,-1.76978 -0.70912,-2.2013 z"
   id="path143"
   style="fill:url(#SVGID_4_)" />
		<linearGradient
   id="SVGID_5_"
   gradientUnits="userSpaceOnUse"
   x1="423.99817"
   y1="126.86617"
   x2="423.99817"
   y2="182.84848">
			<stop
   offset="0"
   style="stop-color:#FFFFFF"
   id="stop145" />
			<stop
   offset="0.21678"
   style="stop-color:#FFFFFC"
   id="stop147" />
			<stop
   offset="0.39094"
   style="stop-color:#FFFEF2"
   id="stop149" />
			<stop
   offset="0.55028"
   style="stop-color:#FEFCE1"
   id="stop151" />
			<stop
   offset="0.70081"
   style="stop-color:#FEFAC9"
   id="stop153" />
			<stop
   offset="0.84512"
   style="stop-color:#FDF7AA"
   id="stop155" />
			<stop
   offset="0.98295"
   style="stop-color:#FCF385"
   id="stop157" />
			<stop
   offset="1"
   style="stop-color:#FCF380"
   id="stop159" />
		</linearGradient>
		<path
   class="st6"
   d="m 425.8924,179.73296 c 0,-4.9e-4 -0.0763,-0.0668 -0.0772,-0.0674 -0.74484,-0.64479 -0.77356,-0.67004 -0.77356,-2.80252 V 128.6411 c 0,-0.98007 -0.79434,-1.77493 -1.77493,-1.77493 -0.98056,0 -1.7749,0.79485 -1.7749,1.77493 v 47.20773 c 0,3.28688 0.50116,5.20294 2.07504,6.56534 0.33575,0.29169 0.74976,0.43431 1.1618,0.43431 0.49722,0 0.99048,-0.207 1.3421,-0.61162 0.64181,-0.74037 0.56256,-1.86159 -0.17831,-2.5039 z"
   id="path162"
   style="fill:url(#SVGID_5_)" />
		<path
   class="st1"
   d="m 442.71396,146.41016 c -0.29517,0 -0.59329,-0.0738 -0.86865,-0.22881 -0.85477,-0.48137 -1.15686,-1.56346 -0.67551,-2.41774 l 13.09302,-23.24383 c 0.48038,-0.85329 1.56396,-1.15538 2.41675,-0.6755 0.85477,0.48137 1.15686,1.56345 0.67551,2.41773 l -13.09302,23.24383 c -0.32587,0.57845 -0.92808,0.90432 -1.5481,0.90432 z"
   id="path164" />
		<linearGradient
   id="SVGID_6_"
   gradientUnits="userSpaceOnUse"
   x1="447.57645"
   y1="152.88892"
   x2="459.42554"
   y2="178.29938">
			<stop
   offset="0"
   style="stop-color:#FFFFFF"
   id="stop166" />
			<stop
   offset="0.21678"
   style="stop-color:#FFFFFC"
   id="stop168" />
			<stop
   offset="0.39094"
   style="stop-color:#FFFEF2"
   id="stop170" />
			<stop
   offset="0.55028"
   style="stop-color:#FEFCE1"
   id="stop172" />
			<stop
   offset="0.70081"
   style="stop-color:#FEFAC9"
   id="stop174" />
			<stop
   offset="0.84512"
   style="stop-color:#FDF7AA"
   id="stop176" />
			<stop
   offset="0.98295"
   style="stop-color:#FCF385"
   id="stop178" />
			<stop
   offset="1"
   style="stop-color:#FCF380"
   id="stop180" />
		</linearGradient>
		<path
   class="st7"
   d="m 461.90527,176.96059 c -0.0931,0 -0.18817,-0.007 -0.28326,-0.0228 -1.53323,-0.24663 -2.08096,-0.70473 -3.25467,-1.95024 -0.0288,-0.0297 -0.0555,-0.0604 -0.0812,-0.0921 l -14.55988,-17.76753 c -0.62103,-0.75819 -0.5101,-1.87694 0.24762,-2.49796 0.75769,-0.62004 1.87692,-0.51108 2.49796,0.24762 l 14.52127,17.71999 c 0.71411,0.75821 0.72302,0.75969 1.19153,0.83496 0.96768,0.1555 1.62634,1.06624 1.47086,2.03442 -0.13968,0.87212 -0.89341,1.49364 -1.75019,1.49364 z"
   id="path183"
   style="fill:url(#SVGID_6_)" />
		<circle
   class="st1"
   cx="423.99817"
   cy="124.59792"
   r="1.70538"
   id="circle185" />
		<circle
   class="st1"
   cx="457.80594"
   cy="117.84476"
   r="1.70538"
   id="circle187" />
		<path
   class="st1"
   d="m 484.21548,111.24129 c -1.96445,0 -3.71683,1.2782 -4.90286,2.46425 -1.83398,1.83399 -1.91171,5.10281 -1.80417,6.20895 0.11377,1.17027 0.86255,1.72193 1.80408,1.72193 0.9415,0 1.69501,-0.48664 1.69501,-2.02366 0,-0.75132 -0.0509,-2.6085 1.05197,-3.7617 0.49741,-0.52035 1.26782,-1.19901 2.15598,-1.19901 0.94153,0 1.70538,-0.76387 1.70538,-1.70538 0,-0.94151 -0.76386,-1.70538 -1.70539,-1.70538 z"
   id="path189" />
		
			<linearGradient
   id="SVGID_7_"
   gradientUnits="userSpaceOnUse"
   x1="480.68628"
   y1="133.95018"
   x2="480.68628"
   y2="169.85867"
   gradientTransform="translate(0,4.03391)">
			<stop
   offset="0"
   style="stop-color:#FFFFFF"
   id="stop191" />
			<stop
   offset="0.21678"
   style="stop-color:#FFFFFC"
   id="stop193" />
			<stop
   offset="0.39094"
   style="stop-color:#FFFEF2"
   id="stop195" />
			<stop
   offset="0.55028"
   style="stop-color:#FEFCE1"
   id="stop197" />
			<stop
   offset="0.70081"
   style="stop-color:#FEFAC9"
   id="stop199" />
			<stop
   offset="0.84512"
   style="stop-color:#FDF7AA"
   id="stop201" />
			<stop
   offset="0.98295"
   style="stop-color:#FCF385"
   id="stop203" />
			<stop
   offset="1"
   style="stop-color:#FCF380"
   id="stop205" />
		</linearGradient>
		<path
   class="st8"
   d="m 482.12051,170.70166 c -0.0592,-0.06 -0.32568,-0.37158 -0.32568,-1.23611 v -29.77608 c 0,-0.94151 -0.76389,-1.70538 -1.70538,-1.70538 -0.94153,0 -1.70538,0.76387 -1.70538,1.70538 v 29.77608 c 0,3.16725 1.95853,4.16501 2.18207,4.26863 0.23242,0.10733 0.47519,0.1584 0.715,0.1584 0.64398,0 1.26129,-0.36713 1.54846,-0.98962 0.37749,-0.81272 0.0592,-1.76978 -0.70909,-2.2013 z"
   id="path208"
   style="fill:url(#SVGID_7_)" />
	</g>
</g>
<g
   id="리듬_세상"
   transform="scale(1.333334)">
	<path
   id="리"
   class="st9"
   d="m 92.51091,119.70966 v 5.64421 l 1.60977,-0.31291 c 1.60255,-0.3115 3.06985,-0.59672 3.06985,1.50903 v 33.33494 c -2.36756,1.35266 -5.3996,2.46967 -9.13731,3.19621 l -22.14047,4.30367 v -10.20267 l 20.53117,-3.99084 c 1.02159,-0.19858 1.84975,-1.20758 1.84975,-2.25368 l -1e-5,-20.05684 c 0,-1.04504 -0.82655,-1.73196 -1.84711,-1.53508 l -38.51251,7.4297 v 8.63676 l 26.2652,-5.10544 v 6.85965 l -27.48597,5.34273 v 5.73895 l 0.64895,-0.12614 c 1.31053,-0.25475 3.25382,-0.63248 3.25379,1.3186 v 13.58022 c 0,3.34752 2.65012,5.54608 5.91921,4.91063 l 28.90994,-5.61952 c 5.4231,-1.05414 9.35932,-2.38071 11.74535,-3.60072 v 31.96133 l 14.8898,-2.89429 v -81.87241 z" />
	<path
   id="듬"
   class="st10"
   d="m 195.64587,112.34608 -58.04008,11.28185 v 5.63103 l 0.71962,-0.13988 c 3.79846,-0.73836 3.94775,-0.11647 3.94775,1.7386 v 11.78444 c 0,3.79417 2.95024,6.29648 6.58957,5.58907 l 41.65793,-8.09749 c 3.63933,-0.70741 6.58957,-4.35664 6.58957,-8.15083 V 113.5881 c 0,-0.84314 -0.65562,-1.39922 -1.46436,-1.24202 z m -14.42302,21.79461 -24.48997,4.76036 v -10.694 l 24.48997,-4.76037 z m 15.88733,-34.29871 5e-5,8.20171 -72.70126,14.1317 v -8.20173 z M 153.87747,87.60905 v 8.41711 l 43.23276,-8.40359 v 8.20168 l -50.10347,9.73913 c -4.04367,0.78601 -7.32173,-1.99432 -7.32173,-6.21006 l -3e-5,-9.77144 c 0,-1.69066 -0.14903,-2.20287 -3.94151,-1.46568 l -0.71851,0.13966 2e-5,-5.18392 62.08524,-12.06815 v 8.20168 z" />
	<path
   id="세"
   class="st9"
   d="m 251.81619,142.27756 -5.8905,8.08629 c -11.50769,-3.95781 -14.61583,-9.89499 -14.61583,-9.89499 0,0 -4.35788,8.34227 -13.49292,16.94151 l -7.62082,-6.6145 c 0,0 13.46416,-12.90663 13.46416,-25.88637 v -9.87982 c 0,-1.80679 -1.42767,-1.769 -3.02446,-1.45862 l -1.60393,0.31177 v -5.70827 l 17.63472,-3.42785 -2e-5,18.17561 c 10e-6,17.40306 15.1496,19.35524 15.1496,19.35524 z m -1.7856,-43.60427 v 5.24928 l 1.36583,-0.26549 c 1.35968,-0.2643 2.60463,-0.50629 2.60463,1.30051 v 15.2976 l -11.51765,2.2388 v 8.22968 l 11.51765,-2.2388 2e-5,45.33333 12.63333,-2.45567 V 95.44584 Z m 16.08654,-16.74546 v 5.24929 l 1.36581,-0.26549 c 1.35968,-0.2643 2.57538,-0.44237 2.57538,1.36443 v 66.85043 l 13.73215,-2.66925 3e-5,-73.96477 z" />
	<path
   id="상"
   class="st10"
   d="m 350.98035,89.02618 c -6.50824,-1.46649 -14.88605,-1.62079 -24.38858,4.85113 -6.24832,4.25551 -9.39935,9.43896 -9.39908,15.37942 9e-5,2.1401 0.46951,4.26379 1.40225,6.30652 2.86261,6.2692 7.10229,6.60576 12.86639,7.06335 9.41925,0.74773 15.08463,-1.74471 20.73175,-5.57101 6.31033,-4.28088 9.53177,-9.38937 9.53177,-15.3605 0,-5.33048 -2.73574,-10.86435 -10.7445,-12.66891 z m -14.02298,24.73579 c -1.91397,-0.0377 -5.81766,-0.11453 -5.81766,-6.1166 0,-6.22027 4.96652,-10.68209 10.36557,-10.6827 5.54184,-6.6e-4 5.9314,3.75481 5.9314,6.04081 0,5.60357 -4.8295,10.86968 -10.47931,10.75849 z m 37.08487,-58.18728 v 9.2345 l -10.49817,2.04064 v 17.34219 l -14.02298,2.72579 V 46.95969 c 0,-1.7994 -1.4772,-1.78107 -3.1604,-1.4539 l -1.69077,0.32866 v -5.33247 l 18.87415,-3.66876 v 20.78211 z m -51.63843,20.29533 c 0,0 -1.53995,13.12348 -18.34344,30.07345 l -8.60327,-7.14408 c 8.61014,-6.97275 18.53302,-22.90598 18.53302,-37.10389 v -0.40071 c 0,-1.70548 -1.31952,-1.70378 -2.96289,-1.38434 l -1.66098,0.32286 v -5.05408 l 18.43829,-3.58404 v 7.41507 c 0,14.50016 7.9993,16.83138 18.62778,16.93555 l -5.28699,8.22424 c -16.15067,-1.44886 -18.74152,-8.30003 -18.74152,-8.30003 z" />
</g>
</svg>
