<?xml version="1.0" encoding="UTF-8" standalone="no"?>
<!-- Generator: Adobe Illustrator 25.0.0, SVG Export Plug-In . SVG Version: 6.00 Build 0)  -->

<svg
   version="1.1"
   id="Layer_1"
   x="0px"
   y="0px"
   viewBox="0 0 666.66669 666.66669"
   xml:space="preserve"
   sodipodi:docname="Rhythm Tengoku Wiki (リズム天国 ＷＩＫＩ).svg"
   width="666.66669"
   height="666.66669"
   inkscape:version="1.2.2 (b0a8486541, 2022-12-01)"
   xmlns:inkscape="http://www.inkscape.org/namespaces/inkscape"
   xmlns:sodipodi="http://sodipodi.sourceforge.net/DTD/sodipodi-0.dtd"
   xmlns="http://www.w3.org/2000/svg"
   xmlns:svg="http://www.w3.org/2000/svg"><defs
   id="defs20726" /><sodipodi:namedview
   id="namedview20724"
   pagecolor="#505050"
   bordercolor="#eeeeee"
   borderopacity="1"
   inkscape:showpageshadow="0"
   inkscape:pageopacity="0"
   inkscape:pagecheckerboard="0"
   inkscape:deskcolor="#505050"
   showgrid="false"
   inkscape:zoom="2.42"
   inkscape:cx="249.79339"
   inkscape:cy="250"
   inkscape:window-width="2560"
   inkscape:window-height="1412"
   inkscape:window-x="0"
   inkscape:window-y="0"
   inkscape:window-maximized="1"
   inkscape:current-layer="Layer_1" />
<style
   type="text/css"
   id="style20035">
	.st0{fill:#00283C;}
	.st1{fill:#003550;}
	.st2{fill:#003C5A;}
	.st3{fill:url(#SVGID_1_);}
	.st4{fill:url(#Spectrum_1_);}
	.st5{fill:#FFFFFF;}
	.st6{fill:#FFAA00;}
	.st7{fill:#FF5500;}
	.st8{fill:#FAA61A;}
</style>
<g
   id="Background_2_"
   transform="matrix(1.3333333,0,0,1.3333333,1.3333333e-5,1.3333333e-5)">
	<rect
   x="-9.9999997e-06"
   y="-9.9999997e-06"
   class="st0"
   width="500"
   height="500"
   id="rect20037" />
	<rect
   x="464.28571"
   y="464.28574"
   class="st0"
   width="35.714291"
   height="35.714291"
   id="rect20039" />
	<rect
   x="428.57141"
   y="464.28574"
   class="st1"
   width="35.714291"
   height="35.714291"
   id="rect20041" />
	<polygon
   class="st2"
   points="449.41183,483.72852 450.22229,487.98083 446.42856,485.896 442.63483,487.98083 443.44531,483.72852 440.29016,480.76471 444.58481,480.2215 446.42856,476.3049 448.27231,480.2215 452.56696,480.76471 "
   id="polygon20043" />
	<rect
   x="392.85715"
   y="464.28574"
   class="st0"
   width="35.714291"
   height="35.714291"
   id="rect20045" />
	<rect
   x="357.14285"
   y="464.28574"
   class="st1"
   width="35.714291"
   height="35.714291"
   id="rect20047" />
	<polygon
   class="st2"
   points="377.98325,483.72852 378.79373,487.98083 375,485.896 371.20627,487.98083 372.01672,483.72852 368.8616,480.76471 373.15625,480.2215 375,476.3049 376.84375,480.2215 381.1384,480.76471 "
   id="polygon20049" />
	<rect
   x="321.42856"
   y="464.28574"
   class="st0"
   width="35.714291"
   height="35.714291"
   id="rect20051" />
	<rect
   x="285.71426"
   y="464.28574"
   class="st1"
   width="35.714291"
   height="35.714291"
   id="rect20053" />
	<polygon
   class="st2"
   points="306.55469,483.72852 307.36514,487.98083 303.57141,485.896 299.77768,487.98083 300.58817,483.72852 297.43301,480.76471 301.72766,480.2215 303.57141,476.3049 305.41519,480.2215 309.70981,480.76471 "
   id="polygon20055" />
	<rect
   x="250"
   y="464.28574"
   class="st0"
   width="35.714291"
   height="35.714291"
   id="rect20057" />
	<rect
   x="214.28571"
   y="464.28574"
   class="st1"
   width="35.714291"
   height="35.714291"
   id="rect20059" />
	<polygon
   class="st2"
   points="235.12611,483.72852 235.93658,487.98083 232.14285,485.896 228.34912,487.98083 229.15959,483.72852 226.00446,480.76471 230.29909,480.2215 232.14285,476.3049 233.9866,480.2215 238.28125,480.76471 "
   id="polygon20061" />
	<rect
   x="178.57143"
   y="464.28574"
   class="st0"
   width="35.714291"
   height="35.714291"
   id="rect20063" />
	<rect
   x="142.85713"
   y="464.28574"
   class="st1"
   width="35.714291"
   height="35.714291"
   id="rect20065" />
	<polygon
   class="st2"
   points="163.69754,483.72852 164.50801,487.98083 160.71428,485.896 156.92055,487.98083 157.73102,483.72852 154.57588,480.76471 158.87051,480.2215 160.71428,476.3049 162.55803,480.2215 166.85268,480.76471 "
   id="polygon20067" />
	<rect
   x="107.14285"
   y="464.28574"
   class="st0"
   width="35.714291"
   height="35.714291"
   id="rect20069" />
	<rect
   x="71.428574"
   y="464.28574"
   class="st1"
   width="35.714291"
   height="35.714291"
   id="rect20071" />
	<polygon
   class="st2"
   points="92.26897,483.72852 93.07944,487.98083 89.28571,485.896 85.49197,487.98083 86.30244,483.72852 83.14732,480.76471 87.44195,480.2215 89.28571,476.3049 91.12946,480.2215 95.4241,480.76471 "
   id="polygon20073" />
	<rect
   x="35.714279"
   y="464.28574"
   class="st0"
   width="35.714291"
   height="35.714291"
   id="rect20075" />
	<rect
   x="-9.9999997e-06"
   y="464.28574"
   class="st1"
   width="35.714291"
   height="35.714291"
   id="rect20077" />
	<polygon
   class="st2"
   points="20.8404,483.72852 21.65087,487.98083 17.85714,485.896 14.0634,487.98083 14.87387,483.72852 11.71874,480.76471 16.01338,480.2215 17.85714,476.3049 19.70089,480.2215 23.99553,480.76471 "
   id="polygon20079" />
	<rect
   x="464.28571"
   y="428.57144"
   class="st2"
   width="35.714291"
   height="35.714291"
   id="rect20081" />
	<polygon
   class="st1"
   points="485.1261,448.01422 485.93658,452.26654 482.14285,450.1817 478.34912,452.26654 479.15958,448.01422 476.00446,445.05045 480.2991,444.5072 482.14285,440.59064 483.9866,444.5072 488.28125,445.05045 "
   id="polygon20083" />
	<rect
   x="428.57141"
   y="428.57144"
   class="st0"
   width="35.714291"
   height="35.714291"
   id="rect20085" />
	<rect
   x="392.85715"
   y="428.57144"
   class="st2"
   width="35.714298"
   height="35.714298"
   id="rect20087" />
	<path
   class="st0"
   d="m 417.60229,436.79135 c -1.8866,-0.56305 -3.77902,-1.49826 -3.77902,-2.30865 0,-1.43762 -0.67154,-2.02472 -2.19534,-2.02472 -1.5238,0 -2.1954,0.5871 -2.1954,2.02472 v 12.67657 c -5.125,-0.24582 -10.75958,2.87735 -10.75958,7.70242 0,3.43137 2.58359,5.53751 6.57184,5.53751 5.07938,0 8.57846,-4.16498 8.57846,-6.83908 V 442.0271 c 3.01312,0 4.97397,1.37851 4.97397,2.8999 0,0.64676 -0.64117,1.7738 0.37,2.31839 1.54196,0.83051 3.58847,-1.47787 3.58847,-4.14752 -1e-5,-3.4288 -1.52843,-5.22467 -5.1534,-6.30652 z"
   id="path20089" />
	<rect
   x="357.14285"
   y="428.57144"
   class="st0"
   width="35.714291"
   height="35.714291"
   id="rect20091" />
	<rect
   x="321.42856"
   y="428.57144"
   class="st2"
   width="35.714291"
   height="35.714291"
   id="rect20093" />
	<polygon
   class="st1"
   points="342.26898,448.01422 343.07944,452.26654 339.28571,450.1817 335.49197,452.26654 336.30246,448.01422 333.14731,445.05045 337.44196,444.5072 339.28571,440.59064 341.12946,444.5072 345.4241,445.05045 "
   id="polygon20095" />
	<rect
   x="285.71426"
   y="428.57144"
   class="st0"
   width="35.714291"
   height="35.714291"
   id="rect20097" />
	<rect
   x="249.99998"
   y="428.57144"
   class="st2"
   width="35.714298"
   height="35.714298"
   id="rect20099" />
	<path
   class="st0"
   d="m 274.74515,436.79135 c -1.8866,-0.56305 -3.77902,-1.49826 -3.77902,-2.30865 0,-1.43762 -0.67154,-2.02472 -2.19534,-2.02472 -1.5238,0 -2.1954,0.5871 -2.1954,2.02472 v 12.67657 c -5.125,-0.24582 -10.75958,2.87735 -10.75958,7.70242 0,3.43137 2.58359,5.53751 6.57184,5.53751 5.07938,0 8.57846,-4.16498 8.57846,-6.83908 V 442.0271 c 3.01312,0 4.97397,1.37851 4.97397,2.8999 0,0.64676 -0.6412,1.7738 0.37,2.31839 1.54196,0.83051 3.58847,-1.47787 3.58847,-4.14752 -2e-5,-3.4288 -1.52843,-5.22467 -5.1534,-6.30652 z"
   id="path20101" />
	<rect
   x="214.28571"
   y="428.57144"
   class="st0"
   width="35.714291"
   height="35.714291"
   id="rect20103" />
	<rect
   x="178.57143"
   y="428.57144"
   class="st2"
   width="35.714291"
   height="35.714291"
   id="rect20105" />
	<polygon
   class="st1"
   points="199.41182,448.01422 200.22231,452.26654 196.42856,450.1817 192.63483,452.26654 193.4453,448.01422 190.29018,445.05045 194.58481,444.5072 196.42856,440.59064 198.27232,444.5072 202.56696,445.05045 "
   id="polygon20107" />
	<rect
   x="142.85713"
   y="428.57144"
   class="st0"
   width="35.714291"
   height="35.714291"
   id="rect20109" />
	<rect
   x="107.14495"
   y="428.57144"
   class="st2"
   width="35.714298"
   height="35.714298"
   id="rect20111" />
	<path
   class="st0"
   d="m 131.89012,436.79135 c -1.8866,-0.56305 -3.77902,-1.49826 -3.77902,-2.30865 0,-1.43762 -0.67154,-2.02472 -2.19535,-2.02472 -1.52381,0 -2.1954,0.5871 -2.1954,2.02472 v 12.67657 c -5.12501,-0.24582 -10.75959,2.87735 -10.75959,7.70242 0,3.43137 2.58358,5.53751 6.57183,5.53751 5.07938,0 8.57846,-4.16498 8.57846,-6.83908 V 442.0271 c 3.01314,0 4.97398,1.37851 4.97398,2.8999 0,0.64676 -0.6412,1.7738 0.36998,2.31839 1.54198,0.83051 3.58849,-1.47787 3.58849,-4.14752 0,-3.4288 -1.52842,-5.22467 -5.15338,-6.30652 z"
   id="path20113" />
	<rect
   x="71.428574"
   y="428.57144"
   class="st0"
   width="35.714291"
   height="35.714291"
   id="rect20115" />
	<rect
   x="35.714272"
   y="428.57144"
   class="st2"
   width="35.714298"
   height="35.714298"
   id="rect20117" />
	<polygon
   class="st1"
   points="56.55468,448.01422 57.36516,452.26654 53.57142,450.1817 49.77769,452.26654 50.58816,448.01422 47.43303,445.05045 51.72766,444.5072 53.57142,440.59064 55.41518,444.5072 59.70982,445.05045 "
   id="polygon20119" />
	<rect
   x="-9.9999997e-06"
   y="428.57144"
   class="st0"
   width="35.714291"
   height="35.714291"
   id="rect20121" />
	<rect
   x="464.28571"
   y="392.85715"
   class="st0"
   width="35.714291"
   height="35.714291"
   id="rect20123" />
	<rect
   x="428.57141"
   y="392.85715"
   class="st1"
   width="35.714291"
   height="35.714291"
   id="rect20125" />
	<polygon
   class="st2"
   points="449.41183,412.29996 450.22229,416.55225 446.42856,414.46741 442.63483,416.55225 443.44531,412.29996 440.29016,409.33615 444.58481,408.79291 446.42856,404.87634 448.27231,408.79291 452.56696,409.33615 "
   id="polygon20127" />
	<rect
   x="392.85715"
   y="392.85715"
   class="st0"
   width="35.714291"
   height="35.714291"
   id="rect20129" />
	<rect
   x="357.14285"
   y="392.85715"
   class="st1"
   width="35.714291"
   height="35.714291"
   id="rect20131" />
	<polygon
   class="st2"
   points="377.98325,412.29996 378.79373,416.55225 375,414.46741 371.20627,416.55225 372.01672,412.29996 368.8616,409.33615 373.15625,408.79291 375,404.87634 376.84375,408.79291 381.1384,409.33615 "
   id="polygon20133" />
	<rect
   x="321.42856"
   y="392.85715"
   class="st0"
   width="35.714291"
   height="35.714291"
   id="rect20135" />
	<rect
   x="285.71426"
   y="392.85715"
   class="st1"
   width="35.714291"
   height="35.714291"
   id="rect20137" />
	<polygon
   class="st2"
   points="306.55469,412.29996 307.36514,416.55225 303.57141,414.46741 299.77768,416.55225 300.58817,412.29996 297.43301,409.33615 301.72766,408.79291 303.57141,404.87634 305.41519,408.79291 309.70981,409.33615 "
   id="polygon20139" />
	<rect
   x="250"
   y="392.85715"
   class="st0"
   width="35.714291"
   height="35.714291"
   id="rect20141" />
	<rect
   x="214.28571"
   y="392.85715"
   class="st1"
   width="35.714291"
   height="35.714291"
   id="rect20143" />
	<polygon
   class="st2"
   points="235.12611,412.29996 235.93658,416.55225 232.14285,414.46741 228.34912,416.55225 229.15959,412.29996 226.00446,409.33615 230.29909,408.79291 232.14285,404.87634 233.9866,408.79291 238.28125,409.33615 "
   id="polygon20145" />
	<rect
   x="178.57143"
   y="392.85715"
   class="st0"
   width="35.714291"
   height="35.714291"
   id="rect20147" />
	<rect
   x="142.85713"
   y="392.85715"
   class="st1"
   width="35.714291"
   height="35.714291"
   id="rect20149" />
	<polygon
   class="st2"
   points="163.69754,412.29996 164.50801,416.55225 160.71428,414.46741 156.92055,416.55225 157.73102,412.29996 154.57588,409.33615 158.87051,408.79291 160.71428,404.87634 162.55803,408.79291 166.85268,409.33615 "
   id="polygon20151" />
	<rect
   x="107.14285"
   y="392.85715"
   class="st0"
   width="35.714291"
   height="35.714291"
   id="rect20153" />
	<rect
   x="71.428574"
   y="392.85715"
   class="st1"
   width="35.714291"
   height="35.714291"
   id="rect20155" />
	<polygon
   class="st2"
   points="92.26897,412.29996 93.07944,416.55225 89.28571,414.46741 85.49197,416.55225 86.30244,412.29996 83.14732,409.33615 87.44195,408.79291 89.28571,404.87634 91.12946,408.79291 95.4241,409.33615 "
   id="polygon20157" />
	<rect
   x="35.714279"
   y="392.85715"
   class="st0"
   width="35.714291"
   height="35.714291"
   id="rect20159" />
	<rect
   x="-9.9999997e-06"
   y="392.85715"
   class="st1"
   width="35.714291"
   height="35.714291"
   id="rect20161" />
	<polygon
   class="st2"
   points="20.8404,412.29996 21.65087,416.55225 17.85714,414.46741 14.0634,416.55225 14.87387,412.29996 11.71874,409.33615 16.01338,408.79291 17.85714,404.87634 19.70089,408.79291 23.99553,409.33615 "
   id="polygon20163" />
	<rect
   x="464.28571"
   y="357.14285"
   class="st2"
   width="35.714298"
   height="35.714298"
   id="rect20165" />
	<path
   class="st0"
   d="m 489.03088,365.36276 c -1.8866,-0.56305 -3.77902,-1.49823 -3.77902,-2.30862 0,-1.43765 -0.67154,-2.02475 -2.19537,-2.02475 -1.5238,0 -2.19537,0.5871 -2.19537,2.02475 v 12.67654 c -5.12503,-0.24582 -10.75961,2.87738 -10.75961,7.70242 0,3.43137 2.58359,5.53751 6.57184,5.53751 5.07938,0 8.57846,-4.16495 8.57846,-6.83905 v -11.53305 c 3.01315,0 4.974,1.37851 4.974,2.89993 0,0.64673 -0.6412,1.77377 0.36996,2.31839 1.54199,0.83047 3.5885,-1.47791 3.5885,-4.14755 0,-3.4288 -1.52845,-5.22467 -5.15339,-6.30652 z"
   id="path20167" />
	<rect
   x="428.57141"
   y="357.14285"
   class="st0"
   width="35.714291"
   height="35.714291"
   id="rect20169" />
	<rect
   x="392.85715"
   y="357.14285"
   class="st2"
   width="35.714291"
   height="35.714291"
   id="rect20171" />
	<polygon
   class="st1"
   points="413.69754,376.58566 414.50803,380.83795 410.71426,378.75311 406.92053,380.83795 407.73102,376.58566 404.5759,373.62186 408.87051,373.07861 410.71426,369.16205 412.55804,373.07861 416.85266,373.62186 "
   id="polygon20173" />
	<rect
   x="357.14285"
   y="357.14285"
   class="st0"
   width="35.714291"
   height="35.714291"
   id="rect20175" />
	<rect
   x="321.42856"
   y="357.14285"
   class="st2"
   width="35.714298"
   height="35.714298"
   id="rect20177" />
	<path
   class="st0"
   d="m 346.17374,365.36276 c -1.8866,-0.56305 -3.77902,-1.49823 -3.77902,-2.30862 0,-1.43765 -0.67154,-2.02475 -2.19537,-2.02475 -1.5238,0 -2.19537,0.5871 -2.19537,2.02475 v 12.67654 c -5.12503,-0.24582 -10.75961,2.87738 -10.75961,7.70242 0,3.43137 2.58359,5.53751 6.57184,5.53751 5.07938,0 8.57846,-4.16495 8.57846,-6.83905 v -11.53305 c 3.01315,0 4.97397,1.37851 4.97397,2.89993 0,0.64673 -0.64117,1.77377 0.37,2.31839 1.54196,0.83047 3.58847,-1.47791 3.58847,-4.14755 -2e-5,-3.4288 -1.52843,-5.22467 -5.15337,-6.30652 z"
   id="path20179" />
	<rect
   x="285.71426"
   y="357.14285"
   class="st0"
   width="35.714291"
   height="35.714291"
   id="rect20181" />
	<rect
   x="250"
   y="357.14285"
   class="st2"
   width="35.714291"
   height="35.714291"
   id="rect20183" />
	<polygon
   class="st1"
   points="270.84039,376.58566 271.65088,380.83795 267.85715,378.75311 264.06342,380.83795 264.87387,376.58566 261.71875,373.62186 266.01337,373.07861 267.85715,369.16205 269.7009,373.07861 273.99551,373.62186 "
   id="polygon20185" />
	<rect
   x="214.28571"
   y="357.14285"
   class="st0"
   width="35.714291"
   height="35.714291"
   id="rect20187" />
	<rect
   x="178.57143"
   y="357.14285"
   class="st2"
   width="35.714298"
   height="35.714298"
   id="rect20189" />
	<path
   class="st0"
   d="m 203.31659,365.36276 c -1.8866,-0.56305 -3.77902,-1.49823 -3.77902,-2.30862 0,-1.43765 -0.67154,-2.02475 -2.19534,-2.02475 -1.52382,0 -2.1954,0.5871 -2.1954,2.02475 v 12.67654 c -5.12502,-0.24582 -10.7596,2.87738 -10.7596,7.70242 0,3.43137 2.58359,5.53751 6.57184,5.53751 5.07938,0 8.57846,-4.16495 8.57846,-6.83905 v -11.53305 c 3.01314,0 4.97398,1.37851 4.97398,2.89993 0,0.64673 -0.6412,1.77377 0.36998,2.31839 1.54198,0.83047 3.58849,-1.47791 3.58849,-4.14755 -1e-5,-3.4288 -1.52844,-5.22467 -5.15339,-6.30652 z"
   id="path20191" />
	<rect
   x="142.85713"
   y="357.14285"
   class="st0"
   width="35.714291"
   height="35.714291"
   id="rect20193" />
	<rect
   x="107.14285"
   y="357.14285"
   class="st2"
   width="35.714291"
   height="35.714291"
   id="rect20195" />
	<polygon
   class="st1"
   points="127.98325,376.58566 128.79373,380.83795 124.99999,378.75311 121.20626,380.83795 122.01673,376.58566 118.8616,373.62186 123.15623,373.07861 124.99999,369.16205 126.84375,373.07861 131.13838,373.62186 "
   id="polygon20197" />
	<rect
   x="71.428574"
   y="357.14285"
   class="st0"
   width="35.714291"
   height="35.714291"
   id="rect20199" />
	<rect
   x="35.715321"
   y="357.14285"
   class="st2"
   width="35.714298"
   height="35.714298"
   id="rect20201" />
	<path
   class="st0"
   d="m 60.46049,365.36276 c -1.8866,-0.56305 -3.77903,-1.49823 -3.77903,-2.30862 0,-1.43765 -0.67154,-2.02475 -2.19535,-2.02475 -1.52381,0 -2.19539,0.5871 -2.19539,2.02475 v 12.67654 c -5.12502,-0.24582 -10.7596,2.87738 -10.7596,7.70242 0,3.43137 2.58358,5.53751 6.57184,5.53751 5.07938,0 8.57846,-4.16495 8.57846,-6.83905 v -11.53305 c 3.01314,0 4.97398,1.37851 4.97398,2.89993 0,0.64673 -0.64119,1.77377 0.36998,2.31839 1.54198,0.83047 3.58849,-1.47791 3.58849,-4.14755 0,-3.4288 -1.52842,-5.22467 -5.15338,-6.30652 z"
   id="path20203" />
	<rect
   x="-9.9999997e-06"
   y="357.14285"
   class="st0"
   width="35.714291"
   height="35.714291"
   id="rect20205" />
	<rect
   x="464.28571"
   y="321.42859"
   class="st0"
   width="35.714291"
   height="35.714291"
   id="rect20207" />
	<rect
   x="428.57141"
   y="321.42859"
   class="st1"
   width="35.714291"
   height="35.714291"
   id="rect20209" />
	<polygon
   class="st2"
   points="449.41183,340.87137 450.22229,345.12369 446.42856,343.03885 442.63483,345.12369 443.44531,340.87137 440.29016,337.90756 444.58481,337.36435 446.42856,333.44775 448.27231,337.36435 452.56696,337.90756 "
   id="polygon20211" />
	<rect
   x="392.85715"
   y="321.42859"
   class="st0"
   width="35.714291"
   height="35.714291"
   id="rect20213" />
	<rect
   x="357.14285"
   y="321.42859"
   class="st1"
   width="35.714291"
   height="35.714291"
   id="rect20215" />
	<polygon
   class="st2"
   points="377.98325,340.87137 378.79373,345.12369 375,343.03885 371.20627,345.12369 372.01672,340.87137 368.8616,337.90756 373.15625,337.36435 375,333.44775 376.84375,337.36435 381.1384,337.90756 "
   id="polygon20217" />
	<rect
   x="321.42856"
   y="321.42859"
   class="st0"
   width="35.714291"
   height="35.714291"
   id="rect20219" />
	<rect
   x="285.71426"
   y="321.42859"
   class="st1"
   width="35.714291"
   height="35.714291"
   id="rect20221" />
	<polygon
   class="st2"
   points="306.55469,340.87137 307.36514,345.12369 303.57141,343.03885 299.77768,345.12369 300.58817,340.87137 297.43301,337.90756 301.72766,337.36435 303.57141,333.44775 305.41519,337.36435 309.70981,337.90756 "
   id="polygon20223" />
	<rect
   x="250"
   y="321.42859"
   class="st0"
   width="35.714291"
   height="35.714291"
   id="rect20225" />
	<rect
   x="214.28571"
   y="321.42859"
   class="st1"
   width="35.714291"
   height="35.714291"
   id="rect20227" />
	<polygon
   class="st2"
   points="235.12611,340.87137 235.93658,345.12369 232.14285,343.03885 228.34912,345.12369 229.15959,340.87137 226.00446,337.90756 230.29909,337.36435 232.14285,333.44775 233.9866,337.36435 238.28125,337.90756 "
   id="polygon20229" />
	<rect
   x="178.57143"
   y="321.42859"
   class="st0"
   width="35.714291"
   height="35.714291"
   id="rect20231" />
	<rect
   x="142.85713"
   y="321.42859"
   class="st1"
   width="35.714291"
   height="35.714291"
   id="rect20233" />
	<polygon
   class="st2"
   points="163.69754,340.87137 164.50801,345.12369 160.71428,343.03885 156.92055,345.12369 157.73102,340.87137 154.57588,337.90756 158.87051,337.36435 160.71428,333.44775 162.55803,337.36435 166.85268,337.90756 "
   id="polygon20235" />
	<rect
   x="107.14285"
   y="321.42859"
   class="st0"
   width="35.714291"
   height="35.714291"
   id="rect20237" />
	<rect
   x="71.428574"
   y="321.42859"
   class="st1"
   width="35.714291"
   height="35.714291"
   id="rect20239" />
	<polygon
   class="st2"
   points="92.26897,340.87137 93.07944,345.12369 89.28571,343.03885 85.49197,345.12369 86.30244,340.87137 83.14732,337.90756 87.44195,337.36435 89.28571,333.44775 91.12946,337.36435 95.4241,337.90756 "
   id="polygon20241" />
	<rect
   x="35.714279"
   y="321.42859"
   class="st0"
   width="35.714291"
   height="35.714291"
   id="rect20243" />
	<rect
   x="-9.9999997e-06"
   y="321.42859"
   class="st1"
   width="35.714291"
   height="35.714291"
   id="rect20245" />
	<polygon
   class="st2"
   points="20.8404,340.87137 21.65087,345.12369 17.85714,343.03885 14.0634,345.12369 14.87387,340.87137 11.71874,337.90756 16.01338,337.36435 17.85714,333.44775 19.70089,337.36435 23.99553,337.90756 "
   id="polygon20247" />
	<rect
   x="464.28571"
   y="285.71429"
   class="st2"
   width="35.714291"
   height="35.714291"
   id="rect20249" />
	<polygon
   class="st1"
   points="485.1261,305.15707 485.93658,309.40939 482.14285,307.32455 478.34912,309.40939 479.15958,305.15707 476.00446,302.19327 480.2991,301.65005 482.14285,297.73349 483.9866,301.65005 488.28125,302.19327 "
   id="polygon20251" />
	<rect
   x="428.57141"
   y="285.71429"
   class="st0"
   width="35.714291"
   height="35.714291"
   id="rect20253" />
	<rect
   x="392.85715"
   y="285.71429"
   class="st2"
   width="35.714298"
   height="35.714298"
   id="rect20255" />
	<path
   class="st0"
   d="m 417.60229,293.9342 c -1.8866,-0.56305 -3.77902,-1.49826 -3.77902,-2.30865 0,-1.43762 -0.67154,-2.02472 -2.19534,-2.02472 -1.5238,0 -2.1954,0.5871 -2.1954,2.02472 v 12.67657 c -5.125,-0.24582 -10.75958,2.87735 -10.75958,7.70242 0,3.43137 2.58359,5.53751 6.57184,5.53751 5.07938,0 8.57846,-4.16498 8.57846,-6.83908 v -11.53302 c 3.01312,0 4.97397,1.37851 4.97397,2.8999 0,0.64676 -0.64117,1.77377 0.37,2.31839 1.54196,0.83051 3.58847,-1.47787 3.58847,-4.14752 -1e-5,-3.4288 -1.52843,-5.22467 -5.1534,-6.30652 z"
   id="path20257" />
	<rect
   x="357.14285"
   y="285.71429"
   class="st0"
   width="35.714291"
   height="35.714291"
   id="rect20259" />
	<rect
   x="321.42856"
   y="285.71429"
   class="st2"
   width="35.714291"
   height="35.714291"
   id="rect20261" />
	<polygon
   class="st1"
   points="342.26898,305.15707 343.07944,309.40939 339.28571,307.32455 335.49197,309.40939 336.30246,305.15707 333.14731,302.19327 337.44196,301.65005 339.28571,297.73349 341.12946,301.65005 345.4241,302.19327 "
   id="polygon20263" />
	<rect
   x="285.71426"
   y="285.71429"
   class="st0"
   width="35.714291"
   height="35.714291"
   id="rect20265" />
	<rect
   x="249.99998"
   y="285.71429"
   class="st2"
   width="35.714298"
   height="35.714298"
   id="rect20267" />
	<path
   class="st0"
   d="m 274.74515,293.9342 c -1.8866,-0.56305 -3.77902,-1.49826 -3.77902,-2.30865 0,-1.43762 -0.67154,-2.02472 -2.19534,-2.02472 -1.5238,0 -2.1954,0.5871 -2.1954,2.02472 v 12.67657 c -5.125,-0.24582 -10.75958,2.87735 -10.75958,7.70242 0,3.43137 2.58359,5.53751 6.57184,5.53751 5.07938,0 8.57846,-4.16498 8.57846,-6.83908 v -11.53302 c 3.01312,0 4.97397,1.37851 4.97397,2.8999 0,0.64676 -0.6412,1.77377 0.37,2.31839 1.54196,0.83051 3.58847,-1.47787 3.58847,-4.14752 -2e-5,-3.4288 -1.52843,-5.22467 -5.1534,-6.30652 z"
   id="path20269" />
	<rect
   x="214.28571"
   y="285.71429"
   class="st0"
   width="35.714291"
   height="35.714291"
   id="rect20271" />
	<rect
   x="178.57143"
   y="285.71429"
   class="st2"
   width="35.714291"
   height="35.714291"
   id="rect20273" />
	<polygon
   class="st1"
   points="199.41182,305.15707 200.22231,309.40939 196.42856,307.32455 192.63483,309.40939 193.4453,305.15707 190.29018,302.19327 194.58481,301.65005 196.42856,297.73349 198.27232,301.65005 202.56696,302.19327 "
   id="polygon20275" />
	<rect
   x="142.85713"
   y="285.71429"
   class="st0"
   width="35.714291"
   height="35.714291"
   id="rect20277" />
	<rect
   x="107.14495"
   y="285.71429"
   class="st2"
   width="35.714298"
   height="35.714298"
   id="rect20279" />
	<path
   class="st0"
   d="m 131.89012,293.9342 c -1.8866,-0.56305 -3.77902,-1.49826 -3.77902,-2.30865 0,-1.43762 -0.67154,-2.02472 -2.19535,-2.02472 -1.52381,0 -2.1954,0.5871 -2.1954,2.02472 v 12.67657 c -5.12501,-0.24582 -10.75959,2.87735 -10.75959,7.70242 0,3.43137 2.58358,5.53751 6.57183,5.53751 5.07938,0 8.57846,-4.16498 8.57846,-6.83908 v -11.53302 c 3.01314,0 4.97398,1.37851 4.97398,2.8999 0,0.64676 -0.6412,1.77377 0.36998,2.31839 1.54198,0.83051 3.58849,-1.47787 3.58849,-4.14752 0,-3.4288 -1.52842,-5.22467 -5.15338,-6.30652 z"
   id="path20281" />
	<rect
   x="71.428574"
   y="285.71429"
   class="st0"
   width="35.714291"
   height="35.714291"
   id="rect20283" />
	<rect
   x="35.714272"
   y="285.71429"
   class="st2"
   width="35.714298"
   height="35.714298"
   id="rect20285" />
	<polygon
   class="st1"
   points="56.55468,305.15707 57.36516,309.40939 53.57142,307.32455 49.77769,309.40939 50.58816,305.15707 47.43303,302.19327 51.72766,301.65005 53.57142,297.73349 55.41518,301.65005 59.70982,302.19327 "
   id="polygon20287" />
	<rect
   x="-9.9999997e-06"
   y="285.71429"
   class="st0"
   width="35.714291"
   height="35.714291"
   id="rect20289" />
	<rect
   x="464.28571"
   y="250"
   class="st0"
   width="35.714291"
   height="35.714291"
   id="rect20291" />
	<rect
   x="428.57141"
   y="250"
   class="st1"
   width="35.714291"
   height="35.714291"
   id="rect20293" />
	<polygon
   class="st2"
   points="449.41183,269.44278 450.22229,273.6951 446.42856,271.61026 442.63483,273.6951 443.44531,269.44278 440.29016,266.47897 444.58481,265.93576 446.42856,262.0192 448.27231,265.93576 452.56696,266.47897 "
   id="polygon20295" />
	<rect
   x="392.85715"
   y="250"
   class="st0"
   width="35.714291"
   height="35.714291"
   id="rect20297" />
	<rect
   x="357.14285"
   y="250"
   class="st1"
   width="35.714291"
   height="35.714291"
   id="rect20299" />
	<polygon
   class="st2"
   points="377.98325,269.44278 378.79373,273.6951 375,271.61026 371.20627,273.6951 372.01672,269.44278 368.8616,266.47897 373.15625,265.93576 375,262.0192 376.84375,265.93576 381.1384,266.47897 "
   id="polygon20301" />
	<rect
   x="321.42856"
   y="250"
   class="st0"
   width="35.714291"
   height="35.714291"
   id="rect20303" />
	<rect
   x="285.71426"
   y="250"
   class="st1"
   width="35.714291"
   height="35.714291"
   id="rect20305" />
	<polygon
   class="st2"
   points="306.55469,269.44278 307.36514,273.6951 303.57141,271.61026 299.77768,273.6951 300.58817,269.44278 297.43301,266.47897 301.72766,265.93576 303.57141,262.0192 305.41519,265.93576 309.70981,266.47897 "
   id="polygon20307" />
	<rect
   x="250"
   y="250"
   class="st0"
   width="35.714291"
   height="35.714291"
   id="rect20309" />
	<rect
   x="214.28571"
   y="250"
   class="st1"
   width="35.714291"
   height="35.714291"
   id="rect20311" />
	<polygon
   class="st2"
   points="235.12611,269.44278 235.93658,273.6951 232.14285,271.61026 228.34912,273.6951 229.15959,269.44278 226.00446,266.47897 230.29909,265.93576 232.14285,262.0192 233.9866,265.93576 238.28125,266.47897 "
   id="polygon20313" />
	<rect
   x="178.57143"
   y="250"
   class="st0"
   width="35.714291"
   height="35.714291"
   id="rect20315" />
	<rect
   x="142.85713"
   y="250"
   class="st1"
   width="35.714291"
   height="35.714291"
   id="rect20317" />
	<polygon
   class="st2"
   points="163.69754,269.44278 164.50801,273.6951 160.71428,271.61026 156.92055,273.6951 157.73102,269.44278 154.57588,266.47897 158.87051,265.93576 160.71428,262.0192 162.55803,265.93576 166.85268,266.47897 "
   id="polygon20319" />
	<rect
   x="107.14285"
   y="250"
   class="st0"
   width="35.714291"
   height="35.714291"
   id="rect20321" />
	<rect
   x="71.428574"
   y="250"
   class="st1"
   width="35.714291"
   height="35.714291"
   id="rect20323" />
	<polygon
   class="st2"
   points="92.26897,269.44278 93.07944,273.6951 89.28571,271.61026 85.49197,273.6951 86.30244,269.44278 83.14732,266.47897 87.44195,265.93576 89.28571,262.0192 91.12946,265.93576 95.4241,266.47897 "
   id="polygon20325" />
	<rect
   x="35.714279"
   y="250"
   class="st0"
   width="35.714291"
   height="35.714291"
   id="rect20327" />
	<rect
   x="-9.9999997e-06"
   y="250"
   class="st1"
   width="35.714291"
   height="35.714291"
   id="rect20329" />
	<polygon
   class="st2"
   points="20.8404,269.44278 21.65087,273.6951 17.85714,271.61026 14.0634,273.6951 14.87387,269.44278 11.71874,266.47897 16.01338,265.93576 17.85714,262.0192 19.70089,265.93576 23.99553,266.47897 "
   id="polygon20331" />
	<rect
   x="464.28571"
   y="214.28571"
   class="st2"
   width="35.714298"
   height="35.714298"
   id="rect20333" />
	<path
   class="st0"
   d="m 489.03088,222.50562 c -1.8866,-0.56303 -3.77902,-1.49825 -3.77902,-2.30864 0,-1.43762 -0.67154,-2.02473 -2.19537,-2.02473 -1.5238,0 -2.19537,0.58711 -2.19537,2.02473 v 12.67656 c -5.12503,-0.2458 -10.75961,2.87737 -10.75961,7.70242 0,3.43137 2.58359,5.53751 6.57184,5.53751 5.07938,0 8.57846,-4.16496 8.57846,-6.83907 v -11.53304 c 3.01315,0 4.974,1.37851 4.974,2.89992 0,0.64676 -0.6412,1.77379 0.36996,2.31839 1.54199,0.83049 3.5885,-1.47787 3.5885,-4.14754 0,-3.42878 -1.52845,-5.22467 -5.15339,-6.30651 z"
   id="path20335" />
	<rect
   x="428.57141"
   y="214.28572"
   class="st0"
   width="35.714291"
   height="35.714291"
   id="rect20337" />
	<rect
   x="392.85715"
   y="214.28572"
   class="st2"
   width="35.714291"
   height="35.714291"
   id="rect20339" />
	<polygon
   class="st1"
   points="413.69754,233.7285 414.50803,237.98082 410.71426,235.89598 406.92053,237.98082 407.73102,233.7285 404.5759,230.76471 408.87051,230.22147 410.71426,226.3049 412.55804,230.22147 416.85266,230.76471 "
   id="polygon20341" />
	<rect
   x="357.14285"
   y="214.28572"
   class="st0"
   width="35.714291"
   height="35.714291"
   id="rect20343" />
	<rect
   x="321.42856"
   y="214.28571"
   class="st2"
   width="35.714298"
   height="35.714298"
   id="rect20345" />
	<path
   class="st0"
   d="m 346.17374,222.50562 c -1.8866,-0.56303 -3.77902,-1.49825 -3.77902,-2.30864 0,-1.43762 -0.67154,-2.02473 -2.19537,-2.02473 -1.5238,0 -2.19537,0.58711 -2.19537,2.02473 v 12.67656 c -5.12503,-0.2458 -10.75961,2.87737 -10.75961,7.70242 0,3.43137 2.58359,5.53751 6.57184,5.53751 5.07938,0 8.57846,-4.16496 8.57846,-6.83907 v -11.53304 c 3.01315,0 4.97397,1.37851 4.97397,2.89992 0,0.64676 -0.64117,1.77379 0.37,2.31839 1.54196,0.83049 3.58847,-1.47787 3.58847,-4.14754 -2e-5,-3.42878 -1.52843,-5.22467 -5.15337,-6.30651 z"
   id="path20347" />
	<rect
   x="285.71426"
   y="214.28572"
   class="st0"
   width="35.714291"
   height="35.714291"
   id="rect20349" />
	<rect
   x="250"
   y="214.28572"
   class="st2"
   width="35.714291"
   height="35.714291"
   id="rect20351" />
	<polygon
   class="st1"
   points="270.84039,233.7285 271.65088,237.98082 267.85715,235.89598 264.06342,237.98082 264.87387,233.7285 261.71875,230.76471 266.01337,230.22147 267.85715,226.3049 269.7009,230.22147 273.99551,230.76471 "
   id="polygon20353" />
	<rect
   x="214.28571"
   y="214.28572"
   class="st0"
   width="35.714291"
   height="35.714291"
   id="rect20355" />
	<rect
   x="178.57143"
   y="214.28571"
   class="st2"
   width="35.714298"
   height="35.714298"
   id="rect20357" />
	<path
   class="st0"
   d="m 203.31659,222.50562 c -1.8866,-0.56303 -3.77902,-1.49825 -3.77902,-2.30864 0,-1.43762 -0.67154,-2.02473 -2.19534,-2.02473 -1.52382,0 -2.1954,0.58711 -2.1954,2.02473 v 12.67656 c -5.12502,-0.2458 -10.7596,2.87737 -10.7596,7.70242 0,3.43137 2.58359,5.53751 6.57184,5.53751 5.07938,0 8.57846,-4.16496 8.57846,-6.83907 v -11.53304 c 3.01314,0 4.97398,1.37851 4.97398,2.89992 0,0.64676 -0.6412,1.77379 0.36998,2.31839 1.54198,0.83049 3.58849,-1.47787 3.58849,-4.14754 -1e-5,-3.42878 -1.52844,-5.22467 -5.15339,-6.30651 z"
   id="path20359" />
	<rect
   x="142.85713"
   y="214.28572"
   class="st0"
   width="35.714291"
   height="35.714291"
   id="rect20361" />
	<rect
   x="107.14285"
   y="214.28572"
   class="st2"
   width="35.714291"
   height="35.714291"
   id="rect20363" />
	<polygon
   class="st1"
   points="127.98325,233.7285 128.79373,237.98082 124.99999,235.89598 121.20626,237.98082 122.01673,233.7285 118.8616,230.76471 123.15623,230.22147 124.99999,226.3049 126.84375,230.22147 131.13838,230.76471 "
   id="polygon20365" />
	<rect
   x="71.428574"
   y="214.28572"
   class="st0"
   width="35.714291"
   height="35.714291"
   id="rect20367" />
	<rect
   x="35.715321"
   y="214.28571"
   class="st2"
   width="35.714298"
   height="35.714298"
   id="rect20369" />
	<path
   class="st0"
   d="m 60.46049,222.50562 c -1.8866,-0.56303 -3.77903,-1.49825 -3.77903,-2.30864 0,-1.43762 -0.67154,-2.02473 -2.19535,-2.02473 -1.52381,0 -2.19539,0.58711 -2.19539,2.02473 v 12.67656 c -5.12502,-0.2458 -10.7596,2.87737 -10.7596,7.70242 0,3.43137 2.58358,5.53751 6.57184,5.53751 5.07938,0 8.57846,-4.16496 8.57846,-6.83907 v -11.53304 c 3.01314,0 4.97398,1.37851 4.97398,2.89992 0,0.64676 -0.64119,1.77379 0.36998,2.31839 1.54198,0.83049 3.58849,-1.47787 3.58849,-4.14754 0,-3.42878 -1.52842,-5.22467 -5.15338,-6.30651 z"
   id="path20371" />
	<rect
   x="-9.9999997e-06"
   y="214.28572"
   class="st0"
   width="35.714291"
   height="35.714291"
   id="rect20373" />
	<rect
   x="464.28571"
   y="178.57143"
   class="st0"
   width="35.714291"
   height="35.714291"
   id="rect20375" />
	<rect
   x="428.57141"
   y="178.57143"
   class="st1"
   width="35.714291"
   height="35.714291"
   id="rect20377" />
	<polygon
   class="st2"
   points="449.41183,198.01422 450.22229,202.26653 446.42856,200.18169 442.63483,202.26653 443.44531,198.01422 440.29016,195.05042 444.58481,194.50719 446.42856,190.59061 448.27231,194.50719 452.56696,195.05042 "
   id="polygon20379" />
	<rect
   x="392.85715"
   y="178.57143"
   class="st0"
   width="35.714291"
   height="35.714291"
   id="rect20381" />
	<rect
   x="357.14285"
   y="178.57143"
   class="st1"
   width="35.714291"
   height="35.714291"
   id="rect20383" />
	<polygon
   class="st2"
   points="377.98325,198.01422 378.79373,202.26653 375,200.18169 371.20627,202.26653 372.01672,198.01422 368.8616,195.05042 373.15625,194.50719 375,190.59061 376.84375,194.50719 381.1384,195.05042 "
   id="polygon20385" />
	<rect
   x="321.42856"
   y="178.57143"
   class="st0"
   width="35.714291"
   height="35.714291"
   id="rect20387" />
	<rect
   x="285.71426"
   y="178.57143"
   class="st1"
   width="35.714291"
   height="35.714291"
   id="rect20389" />
	<polygon
   class="st2"
   points="306.55469,198.01422 307.36514,202.26653 303.57141,200.18169 299.77768,202.26653 300.58817,198.01422 297.43301,195.05042 301.72766,194.50719 303.57141,190.59061 305.41519,194.50719 309.70981,195.05042 "
   id="polygon20391" />
	<rect
   x="250"
   y="178.57143"
   class="st0"
   width="35.714291"
   height="35.714291"
   id="rect20393" />
	<rect
   x="214.28571"
   y="178.57143"
   class="st1"
   width="35.714291"
   height="35.714291"
   id="rect20395" />
	<polygon
   class="st2"
   points="235.12611,198.01422 235.93658,202.26653 232.14285,200.18169 228.34912,202.26653 229.15959,198.01422 226.00446,195.05042 230.29909,194.50719 232.14285,190.59061 233.9866,194.50719 238.28125,195.05042 "
   id="polygon20397" />
	<rect
   x="178.57143"
   y="178.57143"
   class="st0"
   width="35.714291"
   height="35.714291"
   id="rect20399" />
	<rect
   x="142.85713"
   y="178.57143"
   class="st1"
   width="35.714291"
   height="35.714291"
   id="rect20401" />
	<polygon
   class="st2"
   points="163.69754,198.01422 164.50801,202.26653 160.71428,200.18169 156.92055,202.26653 157.73102,198.01422 154.57588,195.05042 158.87051,194.50719 160.71428,190.59061 162.55803,194.50719 166.85268,195.05042 "
   id="polygon20403" />
	<rect
   x="107.14285"
   y="178.57143"
   class="st0"
   width="35.714291"
   height="35.714291"
   id="rect20405" />
	<rect
   x="71.428574"
   y="178.57143"
   class="st1"
   width="35.714291"
   height="35.714291"
   id="rect20407" />
	<polygon
   class="st2"
   points="92.26897,198.01422 93.07944,202.26653 89.28571,200.18169 85.49197,202.26653 86.30244,198.01422 83.14732,195.05042 87.44195,194.50719 89.28571,190.59061 91.12946,194.50719 95.4241,195.05042 "
   id="polygon20409" />
	<rect
   x="35.714279"
   y="178.57143"
   class="st0"
   width="35.714291"
   height="35.714291"
   id="rect20411" />
	<rect
   x="-9.9999997e-06"
   y="178.57143"
   class="st1"
   width="35.714291"
   height="35.714291"
   id="rect20413" />
	<polygon
   class="st2"
   points="20.8404,198.01422 21.65087,202.26653 17.85714,200.18169 14.0634,202.26653 14.87387,198.01422 11.71874,195.05042 16.01338,194.50719 17.85714,190.59061 19.70089,194.50719 23.99553,195.05042 "
   id="polygon20415" />
	<rect
   x="464.28571"
   y="142.85715"
   class="st2"
   width="35.714291"
   height="35.714291"
   id="rect20417" />
	<polygon
   class="st1"
   points="485.1261,162.29994 485.93658,166.55225 482.14285,164.46741 478.34912,166.55225 479.15958,162.29994 476.00446,159.33614 480.2991,158.79291 482.14285,154.87633 483.9866,158.79291 488.28125,159.33614 "
   id="polygon20419" />
	<rect
   x="428.57141"
   y="142.85715"
   class="st0"
   width="35.714291"
   height="35.714291"
   id="rect20421" />
	<rect
   x="392.85715"
   y="142.85713"
   class="st2"
   width="35.714298"
   height="35.714298"
   id="rect20423" />
	<path
   class="st0"
   d="m 417.60229,151.07706 c -1.8866,-0.56305 -3.77902,-1.49826 -3.77902,-2.30865 0,-1.43762 -0.67154,-2.02473 -2.19534,-2.02473 -1.5238,0 -2.1954,0.58711 -2.1954,2.02473 v 12.67656 c -5.125,-0.2458 -10.75958,2.87738 -10.75958,7.70242 0,3.43137 2.58359,5.53752 6.57184,5.53752 5.07938,0 8.57846,-4.16498 8.57846,-6.83908 v -11.53304 c 3.01312,0 4.97397,1.37851 4.97397,2.89992 0,0.64676 -0.64117,1.77379 0.37,2.31839 1.54196,0.83049 3.58847,-1.47787 3.58847,-4.14754 -1e-5,-3.42879 -1.52843,-5.22467 -5.1534,-6.3065 z"
   id="path20425" />
	<rect
   x="357.14285"
   y="142.85715"
   class="st0"
   width="35.714291"
   height="35.714291"
   id="rect20427" />
	<rect
   x="321.42856"
   y="142.85715"
   class="st2"
   width="35.714291"
   height="35.714291"
   id="rect20429" />
	<polygon
   class="st1"
   points="342.26898,162.29994 343.07944,166.55225 339.28571,164.46741 335.49197,166.55225 336.30246,162.29994 333.14731,159.33614 337.44196,158.79291 339.28571,154.87633 341.12946,158.79291 345.4241,159.33614 "
   id="polygon20431" />
	<rect
   x="285.71426"
   y="142.85715"
   class="st0"
   width="35.714291"
   height="35.714291"
   id="rect20433" />
	<rect
   x="249.99998"
   y="142.85713"
   class="st2"
   width="35.714298"
   height="35.714298"
   id="rect20435" />
	<path
   class="st0"
   d="m 274.74515,151.07706 c -1.8866,-0.56305 -3.77902,-1.49826 -3.77902,-2.30865 0,-1.43762 -0.67154,-2.02473 -2.19534,-2.02473 -1.5238,0 -2.1954,0.58711 -2.1954,2.02473 v 12.67656 c -5.125,-0.2458 -10.75958,2.87738 -10.75958,7.70242 0,3.43137 2.58359,5.53752 6.57184,5.53752 5.07938,0 8.57846,-4.16498 8.57846,-6.83908 v -11.53304 c 3.01312,0 4.97397,1.37851 4.97397,2.89992 0,0.64676 -0.6412,1.77379 0.37,2.31839 1.54196,0.83049 3.58847,-1.47787 3.58847,-4.14754 -2e-5,-3.42879 -1.52843,-5.22467 -5.1534,-6.3065 z"
   id="path20437" />
	<rect
   x="214.28571"
   y="142.85715"
   class="st0"
   width="35.714291"
   height="35.714291"
   id="rect20439" />
	<rect
   x="178.57143"
   y="142.85715"
   class="st2"
   width="35.714291"
   height="35.714291"
   id="rect20441" />
	<polygon
   class="st1"
   points="199.41182,162.29994 200.22231,166.55225 196.42856,164.46741 192.63483,166.55225 193.4453,162.29994 190.29018,159.33614 194.58481,158.79291 196.42856,154.87633 198.27232,158.79291 202.56696,159.33614 "
   id="polygon20443" />
	<rect
   x="142.85713"
   y="142.85715"
   class="st0"
   width="35.714291"
   height="35.714291"
   id="rect20445" />
	<rect
   x="107.14495"
   y="142.85713"
   class="st2"
   width="35.714298"
   height="35.714298"
   id="rect20447" />
	<path
   class="st0"
   d="m 131.89012,151.07706 c -1.8866,-0.56305 -3.77902,-1.49826 -3.77902,-2.30865 0,-1.43762 -0.67154,-2.02473 -2.19535,-2.02473 -1.52381,0 -2.1954,0.58711 -2.1954,2.02473 v 12.67656 c -5.12501,-0.2458 -10.75959,2.87738 -10.75959,7.70242 0,3.43137 2.58358,5.53752 6.57183,5.53752 5.07938,0 8.57846,-4.16498 8.57846,-6.83908 v -11.53304 c 3.01314,0 4.97398,1.37851 4.97398,2.89992 0,0.64676 -0.6412,1.77379 0.36998,2.31839 1.54198,0.83049 3.58849,-1.47787 3.58849,-4.14754 0,-3.42879 -1.52842,-5.22467 -5.15338,-6.3065 z"
   id="path20449" />
	<rect
   x="71.428574"
   y="142.85715"
   class="st0"
   width="35.714291"
   height="35.714291"
   id="rect20451" />
	<rect
   x="35.714272"
   y="142.85713"
   class="st2"
   width="35.714298"
   height="35.714298"
   id="rect20453" />
	<polygon
   class="st1"
   points="56.55468,162.29994 57.36516,166.55225 53.57142,164.46741 49.77769,166.55225 50.58816,162.29994 47.43303,159.33614 51.72766,158.79291 53.57142,154.87633 55.41518,158.79291 59.70982,159.33614 "
   id="polygon20455" />
	<rect
   x="-9.9999997e-06"
   y="142.85715"
   class="st0"
   width="35.714291"
   height="35.714291"
   id="rect20457" />
	<rect
   x="464.28571"
   y="107.14285"
   class="st0"
   width="35.714291"
   height="35.714291"
   id="rect20459" />
	<rect
   x="428.57141"
   y="107.14285"
   class="st1"
   width="35.714291"
   height="35.714291"
   id="rect20461" />
	<polygon
   class="st2"
   points="449.41183,126.58564 450.22229,130.83795 446.42856,128.75311 442.63483,130.83795 443.44531,126.58564 440.29016,123.62184 444.58481,123.07861 446.42856,119.16203 448.27231,123.07861 452.56696,123.62184 "
   id="polygon20463" />
	<rect
   x="392.85715"
   y="107.14285"
   class="st0"
   width="35.714291"
   height="35.714291"
   id="rect20465" />
	<rect
   x="357.14285"
   y="107.14285"
   class="st1"
   width="35.714291"
   height="35.714291"
   id="rect20467" />
	<polygon
   class="st2"
   points="377.98325,126.58564 378.79373,130.83795 375,128.75311 371.20627,130.83795 372.01672,126.58564 368.8616,123.62184 373.15625,123.07861 375,119.16203 376.84375,123.07861 381.1384,123.62184 "
   id="polygon20469" />
	<rect
   x="321.42856"
   y="107.14285"
   class="st0"
   width="35.714291"
   height="35.714291"
   id="rect20471" />
	<rect
   x="285.71426"
   y="107.14285"
   class="st1"
   width="35.714291"
   height="35.714291"
   id="rect20473" />
	<polygon
   class="st2"
   points="306.55469,126.58564 307.36514,130.83795 303.57141,128.75311 299.77768,130.83795 300.58817,126.58564 297.43301,123.62184 301.72766,123.07861 303.57141,119.16203 305.41519,123.07861 309.70981,123.62184 "
   id="polygon20475" />
	<rect
   x="250"
   y="107.14285"
   class="st0"
   width="35.714291"
   height="35.714291"
   id="rect20477" />
	<rect
   x="214.28571"
   y="107.14285"
   class="st1"
   width="35.714291"
   height="35.714291"
   id="rect20479" />
	<polygon
   class="st2"
   points="235.12611,126.58564 235.93658,130.83795 232.14285,128.75311 228.34912,130.83795 229.15959,126.58564 226.00446,123.62184 230.29909,123.07861 232.14285,119.16203 233.9866,123.07861 238.28125,123.62184 "
   id="polygon20481" />
	<rect
   x="178.57143"
   y="107.14285"
   class="st0"
   width="35.714291"
   height="35.714291"
   id="rect20483" />
	<rect
   x="142.85713"
   y="107.14285"
   class="st1"
   width="35.714291"
   height="35.714291"
   id="rect20485" />
	<polygon
   class="st2"
   points="163.69754,126.58564 164.50801,130.83795 160.71428,128.75311 156.92055,130.83795 157.73102,126.58564 154.57588,123.62184 158.87051,123.07861 160.71428,119.16203 162.55803,123.07861 166.85268,123.62184 "
   id="polygon20487" />
	<rect
   x="107.14285"
   y="107.14285"
   class="st0"
   width="35.714291"
   height="35.714291"
   id="rect20489" />
	<rect
   x="71.428574"
   y="107.14285"
   class="st1"
   width="35.714291"
   height="35.714291"
   id="rect20491" />
	<polygon
   class="st2"
   points="92.26897,126.58564 93.07944,130.83795 89.28571,128.75311 85.49197,130.83795 86.30244,126.58564 83.14732,123.62184 87.44195,123.07861 89.28571,119.16203 91.12946,123.07861 95.4241,123.62184 "
   id="polygon20493" />
	<rect
   x="35.714279"
   y="107.14285"
   class="st0"
   width="35.714291"
   height="35.714291"
   id="rect20495" />
	<rect
   x="-9.9999997e-06"
   y="107.14285"
   class="st1"
   width="35.714291"
   height="35.714291"
   id="rect20497" />
	<polygon
   class="st2"
   points="20.8404,126.58564 21.65087,130.83795 17.85714,128.75311 14.0634,130.83795 14.87387,126.58564 11.71874,123.62184 16.01338,123.07861 17.85714,119.16203 19.70089,123.07861 23.99553,123.62184 "
   id="polygon20499" />
	<rect
   x="464.28571"
   y="71.428558"
   class="st2"
   width="35.714298"
   height="35.714298"
   id="rect20501" />
	<path
   class="st0"
   d="m 489.03088,79.64847 c -1.8866,-0.56304 -3.77902,-1.49825 -3.77902,-2.30865 0,-1.43762 -0.67154,-2.02473 -2.19537,-2.02473 -1.5238,0 -2.19537,0.5871 -2.19537,2.02473 v 12.67656 c -5.12503,-0.2458 -10.75961,2.87737 -10.75961,7.70242 0,3.43137 2.58359,5.53751 6.57184,5.53751 5.07938,0 8.57846,-4.16496 8.57846,-6.83907 V 84.88422 c 3.01315,0 4.974,1.3785 4.974,2.89992 0,0.64675 -0.6412,1.77378 0.36996,2.31839 1.54199,0.83049 3.5885,-1.47788 3.5885,-4.14754 0,-3.4288 -1.52845,-5.22467 -5.15339,-6.30652 z"
   id="path20503" />
	<rect
   x="428.57141"
   y="71.428574"
   class="st0"
   width="35.714291"
   height="35.714291"
   id="rect20505" />
	<rect
   x="392.85715"
   y="71.428574"
   class="st2"
   width="35.714291"
   height="35.714291"
   id="rect20507" />
	<polygon
   class="st1"
   points="413.69754,90.87136 414.50803,95.12366 410.71426,93.03883 406.92053,95.12366 407.73102,90.87136 404.5759,87.90755 408.87051,87.36432 410.71426,83.44775 412.55804,87.36432 416.85266,87.90755 "
   id="polygon20509" />
	<rect
   x="357.14285"
   y="71.428574"
   class="st0"
   width="35.714291"
   height="35.714291"
   id="rect20511" />
	<rect
   x="321.42856"
   y="71.428558"
   class="st2"
   width="35.714298"
   height="35.714298"
   id="rect20513" />
	<path
   class="st0"
   d="m 346.17374,79.64847 c -1.8866,-0.56304 -3.77902,-1.49825 -3.77902,-2.30865 0,-1.43762 -0.67154,-2.02473 -2.19537,-2.02473 -1.5238,0 -2.19537,0.5871 -2.19537,2.02473 v 12.67656 c -5.12503,-0.2458 -10.75961,2.87737 -10.75961,7.70242 0,3.43137 2.58359,5.53751 6.57184,5.53751 5.07938,0 8.57846,-4.16496 8.57846,-6.83907 V 84.88422 c 3.01315,0 4.97397,1.3785 4.97397,2.89992 0,0.64675 -0.64117,1.77378 0.37,2.31839 1.54196,0.83049 3.58847,-1.47788 3.58847,-4.14754 -2e-5,-3.4288 -1.52843,-5.22467 -5.15337,-6.30652 z"
   id="path20515" />
	<rect
   x="285.71426"
   y="71.428574"
   class="st0"
   width="35.714291"
   height="35.714291"
   id="rect20517" />
	<rect
   x="250"
   y="71.428574"
   class="st2"
   width="35.714291"
   height="35.714291"
   id="rect20519" />
	<polygon
   class="st1"
   points="270.84039,90.87136 271.65088,95.12366 267.85715,93.03883 264.06342,95.12366 264.87387,90.87136 261.71875,87.90755 266.01337,87.36432 267.85715,83.44775 269.7009,87.36432 273.99551,87.90755 "
   id="polygon20521" />
	<rect
   x="214.28571"
   y="71.428574"
   class="st0"
   width="35.714291"
   height="35.714291"
   id="rect20523" />
	<rect
   x="178.57143"
   y="71.428558"
   class="st2"
   width="35.714298"
   height="35.714298"
   id="rect20525" />
	<path
   class="st0"
   d="m 203.31659,79.64847 c -1.8866,-0.56304 -3.77902,-1.49825 -3.77902,-2.30865 0,-1.43762 -0.67154,-2.02473 -2.19534,-2.02473 -1.52382,0 -2.1954,0.5871 -2.1954,2.02473 v 12.67656 c -5.12502,-0.2458 -10.7596,2.87737 -10.7596,7.70242 0,3.43137 2.58359,5.53751 6.57184,5.53751 5.07938,0 8.57846,-4.16496 8.57846,-6.83907 V 84.88422 c 3.01314,0 4.97398,1.3785 4.97398,2.89992 0,0.64675 -0.6412,1.77378 0.36998,2.31839 1.54198,0.83049 3.58849,-1.47788 3.58849,-4.14754 -1e-5,-3.4288 -1.52844,-5.22467 -5.15339,-6.30652 z"
   id="path20527" />
	<rect
   x="142.85713"
   y="71.428574"
   class="st0"
   width="35.714291"
   height="35.714291"
   id="rect20529" />
	<rect
   x="107.14285"
   y="71.428574"
   class="st2"
   width="35.714291"
   height="35.714291"
   id="rect20531" />
	<polygon
   class="st1"
   points="127.98325,90.87136 128.79373,95.12366 124.99999,93.03883 121.20626,95.12366 122.01673,90.87136 118.8616,87.90755 123.15623,87.36432 124.99999,83.44775 126.84375,87.36432 131.13838,87.90755 "
   id="polygon20533" />
	<rect
   x="71.428574"
   y="71.428574"
   class="st0"
   width="35.714291"
   height="35.714291"
   id="rect20535" />
	<rect
   x="35.715321"
   y="71.428558"
   class="st2"
   width="35.714298"
   height="35.714298"
   id="rect20537" />
	<path
   class="st0"
   d="m 60.46049,79.64847 c -1.8866,-0.56304 -3.77903,-1.49825 -3.77903,-2.30865 0,-1.43762 -0.67154,-2.02473 -2.19535,-2.02473 -1.52381,0 -2.19539,0.5871 -2.19539,2.02473 v 12.67656 c -5.12502,-0.2458 -10.7596,2.87737 -10.7596,7.70242 0,3.43137 2.58358,5.53751 6.57184,5.53751 5.07938,0 8.57846,-4.16496 8.57846,-6.83907 V 84.88422 c 3.01314,0 4.97398,1.3785 4.97398,2.89992 0,0.64675 -0.64119,1.77378 0.36998,2.31839 1.54198,0.83049 3.58849,-1.47788 3.58849,-4.14754 0,-3.4288 -1.52842,-5.22467 -5.15338,-6.30652 z"
   id="path20539" />
	<rect
   x="-9.9999997e-06"
   y="71.428574"
   class="st0"
   width="35.714291"
   height="35.714291"
   id="rect20541" />
	<rect
   x="464.28571"
   y="35.714279"
   class="st0"
   width="35.714291"
   height="35.714291"
   id="rect20543" />
	<rect
   x="428.57141"
   y="35.714279"
   class="st1"
   width="35.714291"
   height="35.714291"
   id="rect20545" />
	<polygon
   class="st2"
   points="449.41183,55.15707 450.22229,59.40938 446.42856,57.32454 442.63483,59.40938 443.44531,55.15707 440.29016,52.19327 444.58481,51.65004 446.42856,47.73346 448.27231,51.65004 452.56696,52.19327 "
   id="polygon20547" />
	<rect
   x="392.85715"
   y="35.714279"
   class="st0"
   width="35.714291"
   height="35.714291"
   id="rect20549" />
	<rect
   x="357.14285"
   y="35.714279"
   class="st1"
   width="35.714291"
   height="35.714291"
   id="rect20551" />
	<polygon
   class="st2"
   points="377.98325,55.15707 378.79373,59.40938 375,57.32454 371.20627,59.40938 372.01672,55.15707 368.8616,52.19327 373.15625,51.65004 375,47.73346 376.84375,51.65004 381.1384,52.19327 "
   id="polygon20553" />
	<rect
   x="321.42856"
   y="35.714279"
   class="st0"
   width="35.714291"
   height="35.714291"
   id="rect20555" />
	<rect
   x="285.71426"
   y="35.714279"
   class="st1"
   width="35.714291"
   height="35.714291"
   id="rect20557" />
	<polygon
   class="st2"
   points="306.55469,55.15707 307.36514,59.40938 303.57141,57.32454 299.77768,59.40938 300.58817,55.15707 297.43301,52.19327 301.72766,51.65004 303.57141,47.73346 305.41519,51.65004 309.70981,52.19327 "
   id="polygon20559" />
	<rect
   x="250"
   y="35.714279"
   class="st0"
   width="35.714291"
   height="35.714291"
   id="rect20561" />
	<rect
   x="214.28571"
   y="35.714279"
   class="st1"
   width="35.714291"
   height="35.714291"
   id="rect20563" />
	<polygon
   class="st2"
   points="235.12611,55.15707 235.93658,59.40938 232.14285,57.32454 228.34912,59.40938 229.15959,55.15707 226.00446,52.19327 230.29909,51.65004 232.14285,47.73346 233.9866,51.65004 238.28125,52.19327 "
   id="polygon20565" />
	<rect
   x="178.57143"
   y="35.714279"
   class="st0"
   width="35.714291"
   height="35.714291"
   id="rect20567" />
	<rect
   x="142.85713"
   y="35.714279"
   class="st1"
   width="35.714291"
   height="35.714291"
   id="rect20569" />
	<polygon
   class="st2"
   points="163.69754,55.15707 164.50801,59.40938 160.71428,57.32454 156.92055,59.40938 157.73102,55.15707 154.57588,52.19327 158.87051,51.65004 160.71428,47.73346 162.55803,51.65004 166.85268,52.19327 "
   id="polygon20571" />
	<rect
   x="107.14285"
   y="35.714279"
   class="st0"
   width="35.714291"
   height="35.714291"
   id="rect20573" />
	<rect
   x="71.428574"
   y="35.714279"
   class="st1"
   width="35.714291"
   height="35.714291"
   id="rect20575" />
	<polygon
   class="st2"
   points="92.26897,55.15707 93.07944,59.40938 89.28571,57.32454 85.49197,59.40938 86.30244,55.15707 83.14732,52.19327 87.44195,51.65004 89.28571,47.73346 91.12946,51.65004 95.4241,52.19327 "
   id="polygon20577" />
	<rect
   x="35.714279"
   y="35.714279"
   class="st0"
   width="35.714291"
   height="35.714291"
   id="rect20579" />
	<rect
   x="-9.9999997e-06"
   y="35.714279"
   class="st1"
   width="35.714291"
   height="35.714291"
   id="rect20581" />
	<polygon
   class="st2"
   points="20.8404,55.15707 21.65087,59.40938 17.85714,57.32454 14.0634,59.40938 14.87387,55.15707 11.71874,52.19327 16.01338,51.65004 17.85714,47.73346 19.70089,51.65004 23.99553,52.19327 "
   id="polygon20583" />
	<rect
   x="464.28571"
   y="-9.9999997e-06"
   class="st2"
   width="35.714291"
   height="35.714291"
   id="rect20585" />
	<polygon
   class="st1"
   points="485.1261,19.44279 485.93658,23.6951 482.14285,21.61025 478.34912,23.6951 479.15958,19.44279 476.00446,16.47898 480.2991,15.93575 482.14285,12.01918 483.9866,15.93575 488.28125,16.47898 "
   id="polygon20587" />
	<rect
   x="428.57141"
   y="-9.9999997e-06"
   class="st0"
   width="35.714291"
   height="35.714291"
   id="rect20589" />
	<rect
   x="392.85715"
   y="-9.9999997e-06"
   class="st2"
   width="35.714298"
   height="35.714298"
   id="rect20591" />
	<path
   class="st0"
   d="m 417.60229,8.2199 c -1.8866,-0.56305 -3.77902,-1.49825 -3.77902,-2.30865 0,-1.43762 -0.67154,-2.02473 -2.19534,-2.02473 -1.5238,0 -2.1954,0.58711 -2.1954,2.02473 v 12.67656 c -5.125,-0.24581 -10.75958,2.87737 -10.75958,7.70242 0,3.43136 2.58359,5.53751 6.57184,5.53751 5.07938,0 8.57846,-4.16497 8.57846,-6.83907 V 13.45565 c 3.01312,0 4.97397,1.3785 4.97397,2.89991 0,0.64676 -0.64117,1.77378 0.37,2.31839 1.54196,0.83049 3.58847,-1.47788 3.58847,-4.14754 -1e-5,-3.42879 -1.52843,-5.22466 -5.1534,-6.30651 z"
   id="path20593" />
	<rect
   x="357.14285"
   y="-9.9999997e-06"
   class="st0"
   width="35.714291"
   height="35.714291"
   id="rect20595" />
	<rect
   x="321.42856"
   y="-9.9999997e-06"
   class="st2"
   width="35.714291"
   height="35.714291"
   id="rect20597" />
	<polygon
   class="st1"
   points="342.26898,19.44279 343.07944,23.6951 339.28571,21.61025 335.49197,23.6951 336.30246,19.44279 333.14731,16.47898 337.44196,15.93575 339.28571,12.01918 341.12946,15.93575 345.4241,16.47898 "
   id="polygon20599" />
	<rect
   x="285.71426"
   y="-9.9999997e-06"
   class="st0"
   width="35.714291"
   height="35.714291"
   id="rect20601" />
	<rect
   x="249.99998"
   y="-9.9999997e-06"
   class="st2"
   width="35.714298"
   height="35.714298"
   id="rect20603" />
	<path
   class="st0"
   d="m 274.74515,8.2199 c -1.8866,-0.56305 -3.77902,-1.49825 -3.77902,-2.30865 0,-1.43762 -0.67154,-2.02473 -2.19534,-2.02473 -1.5238,0 -2.1954,0.58711 -2.1954,2.02473 v 12.67656 c -5.125,-0.24581 -10.75958,2.87737 -10.75958,7.70242 0,3.43136 2.58359,5.53751 6.57184,5.53751 5.07938,0 8.57846,-4.16497 8.57846,-6.83907 V 13.45565 c 3.01312,0 4.97397,1.3785 4.97397,2.89991 0,0.64676 -0.6412,1.77378 0.37,2.31839 1.54196,0.83049 3.58847,-1.47788 3.58847,-4.14754 -2e-5,-3.42879 -1.52843,-5.22466 -5.1534,-6.30651 z"
   id="path20605" />
	<rect
   x="214.28571"
   y="-9.9999997e-06"
   class="st0"
   width="35.714291"
   height="35.714291"
   id="rect20607" />
	<rect
   x="178.57143"
   y="-9.9999997e-06"
   class="st2"
   width="35.714291"
   height="35.714291"
   id="rect20609" />
	<polygon
   class="st1"
   points="199.41182,19.44279 200.22231,23.6951 196.42856,21.61025 192.63483,23.6951 193.4453,19.44279 190.29018,16.47898 194.58481,15.93575 196.42856,12.01918 198.27232,15.93575 202.56696,16.47898 "
   id="polygon20611" />
	<rect
   x="142.85713"
   y="-9.9999997e-06"
   class="st0"
   width="35.714291"
   height="35.714291"
   id="rect20613" />
	<rect
   x="107.14495"
   y="-9.9999997e-06"
   class="st2"
   width="35.714298"
   height="35.714298"
   id="rect20615" />
	<path
   class="st0"
   d="m 131.89012,8.2199 c -1.8866,-0.56305 -3.77902,-1.49825 -3.77902,-2.30865 0,-1.43762 -0.67154,-2.02473 -2.19535,-2.02473 -1.52381,0 -2.1954,0.58711 -2.1954,2.02473 v 12.67656 c -5.12501,-0.24581 -10.75959,2.87737 -10.75959,7.70242 0,3.43136 2.58358,5.53751 6.57183,5.53751 5.07938,0 8.57846,-4.16497 8.57846,-6.83907 V 13.45565 c 3.01314,0 4.97398,1.3785 4.97398,2.89991 0,0.64676 -0.6412,1.77378 0.36998,2.31839 1.54198,0.83049 3.58849,-1.47788 3.58849,-4.14754 0,-3.42879 -1.52842,-5.22466 -5.15338,-6.30651 z"
   id="path20617" />
	<rect
   x="71.428574"
   y="-9.9999997e-06"
   class="st0"
   width="35.714291"
   height="35.714291"
   id="rect20619" />
	<rect
   x="35.714272"
   y="-9.9999997e-06"
   class="st2"
   width="35.714298"
   height="35.714298"
   id="rect20621" />
	<polygon
   class="st1"
   points="56.55468,19.44279 57.36516,23.6951 53.57142,21.61025 49.77769,23.6951 50.58816,19.44279 47.43303,16.47898 51.72766,15.93575 53.57142,12.01918 55.41518,15.93575 59.70982,16.47898 "
   id="polygon20623" />
	<rect
   x="-9.9999997e-06"
   y="-9.9999997e-06"
   class="st0"
   width="35.714291"
   height="35.714291"
   id="rect20625" />
	<linearGradient
   id="SVGID_1_"
   gradientUnits="userSpaceOnUse"
   x1="250"
   y1="500"
   x2="250"
   y2="-2.7284841e-12">
		<stop
   offset="0"
   style="stop-color:#000000;stop-opacity:0.75"
   id="stop20627" />
		<stop
   offset="0.75"
   style="stop-color:#000000;stop-opacity:0"
   id="stop20629" />
	</linearGradient>
	<rect
   x="9.9999997e-06"
   y="0"
   class="st3"
   width="500"
   height="500"
   id="rect20632"
   style="fill:url(#SVGID_1_)" />
</g>
<g
   id="Rhythm_Tengoku_Wiki__x28_リズム天国__xFF37__xFF29__xFF2B__xFF29__x29_"
   transform="matrix(1.3333333,0,0,1.3333333,1.3333333e-5,1.3333333e-5)">
	<g
   id="Cloud_00000041258295853019216780000001477758963146256256_">
		<linearGradient
   id="Spectrum_1_"
   gradientUnits="userSpaceOnUse"
   x1="428.23523"
   y1="375.04663"
   x2="51.023628"
   y2="139.33865">
			<stop
   offset="0"
   style="stop-color:#FD1E18"
   id="stop20635" />
			<stop
   offset="0.03316"
   style="stop-color:#FD2218"
   id="stop20637" />
			<stop
   offset="0.06752"
   style="stop-color:#FD2F16"
   id="stop20639" />
			<stop
   offset="0.10242"
   style="stop-color:#FC4314"
   id="stop20641" />
			<stop
   offset="0.13751"
   style="stop-color:#FC6011"
   id="stop20643" />
			<stop
   offset="0.14262"
   style="stop-color:#FC6510"
   id="stop20645" />
			<stop
   offset="0.16669"
   style="stop-color:#FC6B0F"
   id="stop20647" />
			<stop
   offset="0.19818"
   style="stop-color:#FB7B0E"
   id="stop20649" />
			<stop
   offset="0.2338"
   style="stop-color:#FB960B"
   id="stop20651" />
			<stop
   offset="0.27247"
   style="stop-color:#FABC07"
   id="stop20653" />
			<stop
   offset="0.31315"
   style="stop-color:#F8EC02"
   id="stop20655" />
			<stop
   offset="0.32623"
   style="stop-color:#F8FD00"
   id="stop20657" />
			<stop
   offset="0.35073"
   style="stop-color:#F3FC00"
   id="stop20659" />
			<stop
   offset="0.38098"
   style="stop-color:#E4FB01"
   id="stop20661" />
			<stop
   offset="0.41424"
   style="stop-color:#CAF801"
   id="stop20663" />
			<stop
   offset="0.44969"
   style="stop-color:#A7F402"
   id="stop20665" />
			<stop
   offset="0.48686"
   style="stop-color:#7AEF04"
   id="stop20667" />
			<stop
   offset="0.52492"
   style="stop-color:#44E905"
   id="stop20669" />
			<stop
   offset="0.54098"
   style="stop-color:#2BE606"
   id="stop20671" />
			<stop
   offset="0.56809"
   style="stop-color:#29E50B"
   id="stop20673" />
			<stop
   offset="0.60088"
   style="stop-color:#23E11A"
   id="stop20675" />
			<stop
   offset="0.63661"
   style="stop-color:#19DC32"
   id="stop20677" />
			<stop
   offset="0.67417"
   style="stop-color:#0CD454"
   id="stop20679" />
			<stop
   offset="0.7"
   style="stop-color:#01CD70"
   id="stop20681" />
			<stop
   offset="0.70962"
   style="stop-color:#01CB7C"
   id="stop20683" />
			<stop
   offset="0.72709"
   style="stop-color:#02C49C"
   id="stop20685" />
			<stop
   offset="0.75026"
   style="stop-color:#02BAD0"
   id="stop20687" />
			<stop
   offset="0.76457"
   style="stop-color:#03B3F4"
   id="stop20689" />
			<stop
   offset="0.90313"
   style="stop-color:#011EFE"
   id="stop20691" />
			<stop
   offset="0.91397"
   style="stop-color:#0A1DFE"
   id="stop20693" />
			<stop
   offset="0.93166"
   style="stop-color:#2218FE"
   id="stop20695" />
			<stop
   offset="0.954"
   style="stop-color:#4A12FD"
   id="stop20697" />
			<stop
   offset="0.97984"
   style="stop-color:#8109FD"
   id="stop20699" />
			<stop
   offset="1"
   style="stop-color:#B001FC"
   id="stop20701" />
		</linearGradient>
		<path
   id="Spectrum"
   class="st4"
   d="m 424.57257,253.08017 c -12.27258,-12.42001 -27.61331,-20.75305 -44.33371,-24.27901 0.006,-0.4357 0.0101,-0.87102 0.0101,-1.30634 0,-12.73389 -2.70502,-25.12248 -7.91092,-36.51472 20.23315,-16.57179 32.31174,-41.51425 32.31174,-68.18555 0,-48.58635 -39.52817,-88.11414 -88.1149,-88.11414 -25.75412,0 -49.97104,11.21262 -66.61345,30.43277 -3.36612,-0.39109 -6.74736,-0.58779 -10.12085,-0.58779 -22.78606,0 -44.10013,8.55224 -60.31459,23.85844 C 166.83163,81.61397 152.76193,78.08684 138.11413,78.08684 89.52779,78.08684 50,117.61463 50,166.20097 c 0,19.89639 6.82495,39.40131 19.21781,54.92206 8.4246,10.55074 19.20657,19.02228 31.30572,24.75119 -2.2045,7.79219 -3.34206,15.89088 -3.34206,24.00587 0,9.5094 1.53834,18.91559 4.51453,27.85229 -11.85861,5.68936 -22.43378,14.01929 -30.74276,24.36826 -12.4879,15.55411 -19.36524,35.12305 -19.36524,55.10404 0,48.58673 39.52779,88.1149 88.11414,88.1149 24.29027,0 47.0484,-9.81125 63.6326,-27.18265 0.2196,0.002 0.43919,0.003 0.6584,0.003 17.08392,0 33.34883,-4.78458 47.51398,-13.91064 6.99219,1.75446 14.17523,2.64136 21.44366,2.64136 24.22391,0 47.30795,-10.06573 63.82812,-27.40533 8.10956,2.41943 16.51398,3.64078 25.10696,3.64078 48.58597,0 88.11414,-39.52817 88.11414,-88.1149 0,-23.33079 -9.03061,-45.318 -25.42743,-61.91114 z"
   style="fill:url(#Spectrum_1_)" />
		<path
   id="White"
   class="st5"
   d="m 418.8064,258.77805 c -12.79324,-12.94766 -29.26144,-21.00368 -47.07748,-23.17909 0.27469,-2.69762 0.41281,-5.40456 0.41281,-8.10413 0,-13.74109 -3.4693,-27.03987 -10.09445,-38.9012 21.4584,-14.8577 34.4953,-39.39549 34.4953,-65.79907 0,-44.11643 -35.89127,-80.00769 -80.00769,-80.00769 -24.84857,0 -48.12039,11.49546 -63.24229,30.99688 -4.46991,-0.76509 -8.98949,-1.15191 -13.492,-1.15191 -22.71622,0 -43.82272,9.3639 -58.9586,25.92715 C 168.07203,90.4471 153.44208,86.1933 138.11416,86.1933 c -44.11643,0 -80.00768,35.89125 -80.00768,80.00768 0,34.02042 21.15887,63.72844 52.4549,75.12689 -3.46621,9.08495 -5.27342,18.80461 -5.27342,28.55223 0,11.14587 2.32671,22.13269 6.78422,32.24966 -13.55331,5.00574 -25.67651,13.68561 -34.79754,25.04645 -11.33678,14.11935 -17.58015,31.88651 -17.58015,50.02847 0,44.11642 35.89125,80.00766 80.00768,80.00766 23.23923,0 44.93546,-9.89346 60.15707,-27.28586 18.19975,0.93039 35.56303,-4.14282 50.19919,-14.49957 7.41817,2.21536 15.10017,3.33664 22.89238,3.33664 23.70013,0 46.20142,-10.61514 61.33884,-28.6702 8.82733,3.25827 18.08377,4.90564 27.59625,4.90564 44.11642,0 80.0069,-35.89127 80.0069,-80.00769 -4e-5,-21.18371 -8.19883,-41.14721 -23.0864,-56.21325 z" />
		<path
   id="Black"
   d="m 362.85016,242.68823 c 1.04794,-4.90048 1.61182,-9.98029 1.61182,-15.19359 0,-15.38406 -4.81763,-29.63527 -13.00592,-41.358 22.29922,-12.32024 37.4068,-36.06303 37.4068,-63.34203 0,-39.94546 -32.3822,-72.32764 -72.32764,-72.32764 -24.93921,0 -46.92896,12.62341 -59.9321,31.82806 -5.3943,-1.28395 -11.0153,-1.98322 -16.80255,-1.98322 -23.5011,0 -44.37512,11.21607 -57.58633,28.57898 -12.20836,-9.40838 -27.49518,-15.01751 -44.10007,-15.01751 -39.94547,0 -72.32764,32.38213 -72.32764,72.32758 0,34.09494 23.59823,62.66162 55.3477,70.3035 -5.20631,9.98779 -8.16624,21.33308 -8.16624,33.37581 0,13.49524 3.7069,26.12015 10.14186,36.93182 -31.94442,7.50198 -55.73546,36.15976 -55.73546,70.39304 0,39.94547 32.38217,72.32764 72.32758,72.32764 23.03854,0 43.54533,-10.78473 56.7906,-27.56644 2.46582,0.25406 4.96762,0.38681 7.50063,0.38681 16.86369,0 32.3662,-5.78735 44.66653,-15.46259 7.59363,2.70764 15.76749,4.19336 24.29099,4.19336 24.27463,0 45.73978,-11.97101 58.85849,-30.31818 9.16135,4.19626 19.34082,6.55344 30.07657,6.55344 39.94547,0 72.32764,-32.38217 72.32764,-72.32764 -10e-6,-39.62195 -31.86436,-71.78466 -71.36326,-72.3032 z" />
	</g>
	<g
   id="リズム天国__xFF37__xFF29__xFF2B__xFF29_">
		<path
   id="I_00000095317192183968657360000009777248824326983851_"
   class="st6"
   d="m 362.94104,362.90427 v -87.35251 l 26.61066,-8.13568 v 87.35251 z" />
		<path
   id="K"
   class="st7"
   d="m 312.34128,334.17566 25.36456,-52.01874 -26.90543,8.2258 -14.0647,41.38882 c -3.50119,9.82355 -8.89993,8.28094 -8.91425,1.58801 l -0.0247,-35.94394 -20.50522,6.26907 v 85.29758 l 20.52982,-6.27658 v -12.46161 c 0,-9.16736 1.02423,-14.29373 4.50027,-16.52261 9.80673,-6.28815 20.30453,-2.22861 20.30453,18.94385 l -6e-5,2.45679 21.85565,-6.68195 c 2e-5,-31.51916 -11.91807,-37.38983 -22.14051,-34.26449 z" />
		<path
   id="I"
   class="st6"
   d="M 214.55736,403.68979 V 316.33728 L 241.168,308.2016 v 87.35251 z" />
		<path
   id="W"
   class="st7"
   d="m 179.375,323.3735 c -5.60365,42.32382 -17.37134,51.59958 -19.05243,44.86893 l -5.47389,-28.88031 -11.43835,3.49707 -4.7822,27.43793 c -2.83904,16.28903 -13.90622,12.56024 -20.65875,-28.15002 l -16.99316,5.19531 14.57398,81.09378 24.19412,-7.39688 3.64647,-16.95602 c 1.42311,-6.61758 7.41949,-15.35162 10.23026,-5.17776 l 4.55791,16.49777 20.20076,-6.17599 16.92255,-90.72324 z" />
		<path
   id="国_00000070829190998964125600000010394109191171471294_"
   class="st7"
   d="m 302.49872,262.40256 -30.8392,9.42844 v -5.66434 l 5.44431,-1.66443 c 2.22366,-0.6799 3.54129,-2.45242 3.54138,-5.38544 v -10.31004 l -8.98569,2.74724 v -6.12056 l 8.98569,-2.74724 v -10.55733 c 0,-1.22513 -0.73752,-2.87457 -4.13095,-1.83713 l -4.85474,1.48424 6e-5,-5.70206 30.83914,-9.42844 v 5.70206 l -5.38406,1.64601 c -2.30069,0.70343 -3.60147,2.41841 -3.60156,5.3912 v 9.36732 l 8.98563,-2.74716 v 6.12033 l -8.98563,2.74739 v 11.50005 c 0,1.8103 1.3905,2.68756 4.19107,1.83142 l 4.79456,-1.46594 v 5.66441 z m -9e-5,-9.49359 v -6.9543 l -4.92819,1.5067 v 6.95424 z m 25.64172,-57.18534 v 72.6868 l -82.12239,25.10727 v -72.68678 z m -17.50198,14.81645 -43.40237,13.2695 c -2.33374,0.7058 -3.7247,2.75119 -3.7243,5.42818 v 49.48926 l 43.40244,-13.2695 c 2.15878,-0.64722 3.72424,-2.56183 3.72424,-5.42819 v -49.48925 z" />
		<path
   id="く_00000160880184185667870660000003117296630767394983_"
   class="st7"
   d="m 307.02582,197.75595 c -2.47058,-1.4599 -3.68341,-1.86417 -6.94009,-2.98717 -0.6738,-0.24706 -1.50482,-0.69624 -1.50482,-1.50481 0,-0.7861 0.80856,-1.86418 1.77435,-3.03209 3.81818,-4.60428 3.88556,-4.73903 4.78397,-5.9968 l 1.54974,0.71872 c -2.11124,2.67273 -2.49304,3.07701 -5.68237,6.71552 -0.31445,0.3369 -0.5166,0.65134 -0.5166,0.92085 0,0.40427 0.6738,0.60641 1.07809,0.71872 2.02139,0.58394 5.48022,1.86417 6.85028,2.71764 z" />
		<path
   id="ご_00000003784042399634877710000012313975891965108127_"
   class="st7"
   d="m 276.06818,199.3923 c -0.48776,-0.82034 -0.776,-1.21944 -1.35245,-1.81807 l 0.99771,-0.93121 c 0.57648,0.53212 1.04205,1.21944 1.35248,1.7959 z m 2.01764,-1.72938 c -0.62082,-1.10858 -1.04205,-1.57417 -1.26379,-1.81807 l 0.93121,-0.88687 c 0.62082,0.64299 1.06424,1.37465 1.30814,1.77373 z m -2.66062,-3.12621 v 1.52985 c -1.7959,0.88687 -3.08185,1.92894 -4.72256,3.54747 l -1.01987,-0.79817 c 0.46558,-0.48778 0.55429,-0.57646 1.4855,-1.33031 l -0.0222,-0.0222 c -1.92892,0.6208 -3.90219,1.24161 -5.05515,1.66289 v -1.75157 c 0.4213,-0.11086 2.19501,-0.64299 2.92667,-0.8647 z m -7.09491,7.9818 c -1.21945,1.6407 -1.26379,2.8158 -1.26379,3.10403 0,2.01761 2.7493,1.21944 4.87778,0.57646 1.39682,-0.42128 2.8158,-0.90904 4.19043,-1.55202 l 0.0443,1.72939 c -0.48776,0.24388 -1.48547,0.66515 -3.70267,1.35246 -2.8158,0.84251 -4.03522,1.08641 -5.25467,0.82036 -0.99774,-0.22173 -1.75156,-1.17509 -1.75156,-2.39455 0,-1.44115 0.64297,-2.59409 1.68503,-4.21262 z" />
		<path
   id="天"
   class="st8"
   d="m 200.01799,274.6908 v -8.10367 l 30.49847,-9.32434 -6e-5,-12.69168 -30.49841,9.32434 v -11.36436 l 30.49841,-9.32434 V 220.5463 l -82.3772,25.18527 V 258.392 l 30.00153,-9.17236 v 11.36438 l -30.00153,9.17236 v 12.69168 l 30.00153,-9.17236 -8e-5,4.69296 c 8e-5,15.02927 -8.09406,21.10901 -20.38661,24.87607 l -9.61484,2.93954 v 12.71979 l 20.93967,-6.40189 c 16.08324,-4.90939 21.7531,-10.60919 28.12724,-25.82361 3.49745,1.39023 12.99869,7.65399 16.85199,12.07208 l 21.65688,-6.62122 c -6.47992,-7.14986 -29.52086,-15.82866 -35.69699,-17.03862 z" />
		<path
   id="ん_00000047022853739682443260000008747021981895731647_"
   class="st6"
   d="m 203.74266,210.66216 c -0.30881,1.03668 -1.63223,5.42601 -1.87485,6.33035 l 0.0221,0.022 c 0.28674,-0.33086 0.83817,-0.92639 1.80867,-1.23518 2.24982,-0.66171 2.33804,1.5881 2.33804,2.82329 v 0.66171 c 0,0.46318 0,1.85278 1.21312,1.49986 1.36754,-0.39702 1.94101,-2.53654 2.2057,-5.35983 l 1.49986,0.0441 c -0.37497,3.50706 -1.16901,6.28624 -3.83791,7.08028 -2.64684,0.79405 -2.66888,-1.87483 -2.66888,-2.73506 v -0.52937 c 0,-0.99257 0.022,-2.00717 -1.05873,-1.67633 -1.41165,0.4191 -2.27187,2.09541 -2.77917,3.74968 -0.13234,0.57349 -0.68376,3.0218 -0.81612,3.52911 l -1.63222,-0.0221 c 0.83817,-2.93356 2.84535,-10.43294 3.79381,-13.9841 z" />
		<path
   id="て_00000072271800766667657100000014238004647236579764_"
   class="st6"
   d="m 179.63724,218.53329 v 1.75758 c -0.37822,0.0667 -0.73418,0.13348 -1.44611,0.35596 -2.42503,0.71193 -6.3629,4.7388 -6.38515,7.8535 -0.0223,1.75758 1.46835,1.86884 2.4695,1.84657 0.88992,-0.0223 2.1803,-0.22247 3.96013,-0.75644 l -0.22247,1.93558 c -1.44612,0.37822 -3.11472,0.73418 -4.51633,0.66743 -1.55736,-0.0445 -3.35942,-0.71193 -3.35942,-3.09247 0.0222,-1.29037 0.5562,-4.02686 4.00462,-7.20831 l -0.0222,-0.0222 c -3.15921,1.04565 -3.53741,1.15689 -6.80785,2.29153 v -1.77983 c 0.57843,-0.15573 4.67206,-1.44611 6.36288,-1.98007 z" />
		<path
   id="ム_00000124152117579501060780000015219098025874917022_"
   class="st7"
   d="m 360.58347,130.33598 -3.19727,0.97755 c -2.09235,0.64558 -4.39532,0.0231 -5.98477,-2.32516 l -7.29431,-10.77789 -21.1983,6.48093 9.59741,14.22868 -26.14594,7.99367 15.82443,-51.75917 c 0.69144,-2.26191 1.92172,-3.67966 3.60733,-4.20784 l 5.3197,-1.62634 v -8.6089 l -26.11111,7.98299 -18.78934,61.45728 c -0.72781,2.3804 -2.13516,3.57501 -3.63309,4.03284 l -3.23709,0.98973 v 12.44464 l 88.20135,-26.96588 z" />
		<path
   id="ズ"
   class="st8"
   d="m 262.86743,110.84305 c -0.87897,-2.95689 0.73666,-6.09505 3.75146,-7.03222 2.95663,-0.93707 6.15305,0.73647 7.03223,3.75137 0.93698,2.95674 -0.73676,6.09505 -3.75146,7.03222 -2.95682,0.87906 -6.09503,-0.73663 -7.03223,-3.75137 z m -6.18661,7.79291 c 3.01471,-0.93716 4.6304,-4.07533 3.75146,-7.03222 -0.93707,-2.95674 -4.07538,-4.63043 -7.03229,-3.75146 -3.01489,0.87911 -4.63037,4.07537 -3.7514,7.03227 0.937,2.95663 4.07536,4.63037 7.03223,3.75141 z m -5.4906,47.59939 c 8.02905,-12.73134 9.16638,-20.74245 10.30133,-29.56601 0.39697,-3.19261 1.9158,-4.84271 3.63449,-5.36815 l 3.19446,-0.97665 v -11.90611 l -74.76604,22.85822 -5e-5,12.6127 46.82349,-14.31538 c -1.07857,16.63928 -7.05046,38.90939 -33.26271,46.92332 l -13.56078,4.14594 v 12.45348 l 13.86136,-4.23886 c 17.9416,-5.48428 26.60361,-10.75427 37.18498,-23.78311 2.73105,1.32671 6.34149,4.57648 8.38777,9.85109 l 21.10123,-6.45128 c -2.96997,-3.64719 -15.58517,-11.27391 -22.89953,-12.2392 z" />
		<path
   id="リ_00000110428802473277006570000003262725478655158455_"
   class="st7"
   d="m 181.79614,121.08224 v 9.234 l -2.26266,0.69182 c -2.60892,0.79761 -3.49796,2.64883 -3.49788,5.26109 v 37.79095 c 0,12.36671 -6.64246,21.85544 -17.05679,25.00279 l -51.44415,15.72823 v -12.42293 l 36.78813,-11.2473 c 7.06696,-2.17046 10.37468,-8.31152 10.37468,-16.66071 v -32.79857 c 0,-1.73509 -1.35335,-2.6467 -4.1319,-1.79723 l -1.84531,0.56416 v -9.23399 z m -51.31364,51.19257 -1.75951,0.53789 c -2.77442,0.84831 -4.13427,-0.0734 -4.13427,-1.81851 v -18.98267 c 0,-2.55069 0.92683,-4.48857 3.50724,-5.27747 l 2.38654,-0.72968 v -9.23399 l -29.06284,8.88541 v 9.23351 l 1.76494,-0.53903 c 2.78263,-0.85075 4.12891,0.0674 4.12891,1.80173 v 18.98245 c 0,2.57483 -0.92833,4.50763 -3.50188,5.29439 l -2.39197,0.73131 v 9.21565 l 29.06284,-8.88542 z" />
	</g>
</g>
</svg>
