<?xml version="1.0" encoding="UTF-8" standalone="no"?>
<!-- Generator: Adobe Illustrator 25.0.0, SVG Export Plug-In . SVG Version: 6.00 Build 0)  -->

<svg
   version="1.1"
   id="Layer_1"
   x="0px"
   y="0px"
   viewBox="0 0 666.66669 666.66669"
   xml:space="preserve"
   sodipodi:docname="Rhythm World Wiki (리듬 세상 ＷＩＫＩ).svg"
   width="666.66669"
   height="666.66669"
   inkscape:version="1.2.2 (b0a8486541, 2022-12-01)"
   xmlns:inkscape="http://www.inkscape.org/namespaces/inkscape"
   xmlns:sodipodi="http://sodipodi.sourceforge.net/DTD/sodipodi-0.dtd"
   xmlns="http://www.w3.org/2000/svg"
   xmlns:svg="http://www.w3.org/2000/svg"><defs
   id="defs3035"><linearGradient
     id="SVGID_1_-3"
     gradientUnits="userSpaceOnUse"
     x1="250"
     y1="500"
     x2="250"
     y2="-2.407432e-09">
		<stop
   offset="0"
   style="stop-color:#000000;stop-opacity:0.75"
   id="stop1290" />
		<stop
   offset="0.75"
   style="stop-color:#000000;stop-opacity:0"
   id="stop1292" />
	</linearGradient></defs><sodipodi:namedview
   id="namedview3033"
   pagecolor="#505050"
   bordercolor="#eeeeee"
   borderopacity="1"
   inkscape:showpageshadow="0"
   inkscape:pageopacity="0"
   inkscape:pagecheckerboard="0"
   inkscape:deskcolor="#505050"
   showgrid="false"
   inkscape:zoom="2.42"
   inkscape:cx="245.24793"
   inkscape:cy="250"
   inkscape:window-width="2560"
   inkscape:window-height="1412"
   inkscape:window-x="0"
   inkscape:window-y="0"
   inkscape:window-maximized="1"
   inkscape:current-layer="Layer_1" />
<style
   type="text/css"
   id="style2217">
	.st0{fill:#00283C;}
	.st1{fill:#003550;}
	.st2{fill:#003C5A;}
	.st3{fill:url(#SVGID_1_);}
	.st4{fill:url(#Spectrum_2_);}
	.st5{fill:#FFFFFF;}
	.st6{fill:url(#SVGID_2_);}
	.st7{fill:url(#SVGID_3_);}
	.st8{fill:url(#SVGID_4_);}
	.st9{fill:url(#SVGID_5_);}
	.st10{fill:url(#SVGID_6_);}
	.st11{fill:url(#SVGID_7_);}
	.st12{fill:url(#SVGID_8_);}
	.st13{fill:#FFAA00;}
	.st14{fill:#FF5500;}
</style>


<g
   id="Background_1_"
   inkscape:label="Background"
   transform="matrix(1.3333333,0,0,1.3333333,1.3333333e-5,1.3333333e-5)"
   style="display:inline">
	<rect
   x="-9.9999997e-06"
   y="-9.9999997e-06"
   width="500"
   height="500"
   id="rect688"
   style="fill:#00283c;fill-opacity:1" />
	<rect
   x="464.28571"
   y="464.28574"
   class="st0"
   width="35.714291"
   height="35.714291"
   id="rect690"
   style="fill:#00283c" />
	<rect
   x="428.57141"
   y="464.28574"
   class="st1"
   width="35.714291"
   height="35.714291"
   id="rect692"
   style="fill:#003550" />
	<polygon
   class="st2"
   points="444.58481,480.2215 446.42856,476.3049 448.27231,480.2215 452.56696,480.76471 449.41183,483.72852 450.22229,487.98083 446.42856,485.896 442.63483,487.98083 443.44531,483.72852 440.29016,480.76471 "
   id="polygon694"
   style="fill:#003c5a" />
	<rect
   x="392.85715"
   y="464.28574"
   class="st0"
   width="35.714291"
   height="35.714291"
   id="rect696"
   style="fill:#00283c" />
	<rect
   x="357.14285"
   y="464.28574"
   class="st1"
   width="35.714291"
   height="35.714291"
   id="rect698"
   style="fill:#003550" />
	<polygon
   class="st2"
   points="373.15625,480.2215 375,476.3049 376.84375,480.2215 381.1384,480.76471 377.98325,483.72852 378.79373,487.98083 375,485.896 371.20627,487.98083 372.01672,483.72852 368.8616,480.76471 "
   id="polygon700"
   style="fill:#003c5a" />
	<rect
   x="321.42856"
   y="464.28574"
   class="st0"
   width="35.714291"
   height="35.714291"
   id="rect702"
   style="fill:#00283c" />
	<rect
   x="285.71426"
   y="464.28574"
   class="st1"
   width="35.714291"
   height="35.714291"
   id="rect704"
   style="fill:#003550" />
	<polygon
   class="st2"
   points="301.72766,480.2215 303.57141,476.3049 305.41519,480.2215 309.70981,480.76471 306.55469,483.72852 307.36514,487.98083 303.57141,485.896 299.77768,487.98083 300.58817,483.72852 297.43301,480.76471 "
   id="polygon706"
   style="fill:#003c5a" />
	<rect
   x="250"
   y="464.28574"
   class="st0"
   width="35.714291"
   height="35.714291"
   id="rect708"
   style="fill:#00283c" />
	<rect
   x="214.28571"
   y="464.28574"
   class="st1"
   width="35.714291"
   height="35.714291"
   id="rect710"
   style="fill:#003550" />
	<polygon
   class="st2"
   points="230.29909,480.2215 232.14285,476.3049 233.9866,480.2215 238.28125,480.76471 235.12611,483.72852 235.93658,487.98083 232.14285,485.896 228.34912,487.98083 229.15959,483.72852 226.00446,480.76471 "
   id="polygon712"
   style="fill:#003c5a" />
	<rect
   x="178.57143"
   y="464.28574"
   class="st0"
   width="35.714291"
   height="35.714291"
   id="rect714"
   style="fill:#00283c" />
	<rect
   x="142.85713"
   y="464.28574"
   class="st1"
   width="35.714291"
   height="35.714291"
   id="rect716"
   style="fill:#003550" />
	<polygon
   class="st2"
   points="158.87051,480.2215 160.71428,476.3049 162.55803,480.2215 166.85268,480.76471 163.69754,483.72852 164.50801,487.98083 160.71428,485.896 156.92055,487.98083 157.73102,483.72852 154.57588,480.76471 "
   id="polygon718"
   style="fill:#003c5a" />
	<rect
   x="107.14285"
   y="464.28574"
   class="st0"
   width="35.714291"
   height="35.714291"
   id="rect720"
   style="fill:#00283c" />
	<rect
   x="71.428574"
   y="464.28574"
   class="st1"
   width="35.714291"
   height="35.714291"
   id="rect722"
   style="fill:#003550" />
	<polygon
   class="st2"
   points="87.44195,480.2215 89.28571,476.3049 91.12946,480.2215 95.4241,480.76471 92.26897,483.72852 93.07944,487.98083 89.28571,485.896 85.49197,487.98083 86.30244,483.72852 83.14732,480.76471 "
   id="polygon724"
   style="fill:#003c5a" />
	<rect
   x="35.714279"
   y="464.28574"
   class="st0"
   width="35.714291"
   height="35.714291"
   id="rect726"
   style="fill:#00283c" />
	<rect
   x="-9.9999997e-06"
   y="464.28574"
   class="st1"
   width="35.714291"
   height="35.714291"
   id="rect728"
   style="fill:#003550" />
	<polygon
   class="st2"
   points="16.01338,480.2215 17.85714,476.3049 19.70089,480.2215 23.99553,480.76471 20.8404,483.72852 21.65087,487.98083 17.85714,485.896 14.0634,487.98083 14.87387,483.72852 11.71874,480.76471 "
   id="polygon730"
   style="fill:#003c5a" />
	<rect
   x="464.28571"
   y="428.57144"
   class="st2"
   width="35.714291"
   height="35.714291"
   id="rect732"
   style="fill:#003c5a" />
	<polygon
   class="st1"
   points="480.2991,444.5072 482.14285,440.59064 483.9866,444.5072 488.28125,445.05045 485.1261,448.01422 485.93658,452.26654 482.14285,450.1817 478.34912,452.26654 479.15958,448.01422 476.00446,445.05045 "
   id="polygon734"
   style="fill:#003550" />
	<rect
   x="428.57141"
   y="428.57144"
   class="st0"
   width="35.714291"
   height="35.714291"
   id="rect736"
   style="fill:#00283c" />
	<rect
   x="392.85715"
   y="428.57144"
   class="st2"
   width="35.714298"
   height="35.714298"
   id="rect738"
   style="fill:#003c5a" />
	<path
   class="st0"
   d="m 417.60229,436.79135 c -1.8866,-0.56305 -3.77902,-1.49826 -3.77902,-2.30865 0,-1.43762 -0.67154,-2.02472 -2.19534,-2.02472 -1.5238,0 -2.1954,0.5871 -2.1954,2.02472 v 12.67657 c -5.125,-0.24582 -10.75958,2.87735 -10.75958,7.70242 0,3.43137 2.58359,5.53751 6.57184,5.53751 5.07938,0 8.57846,-4.16498 8.57846,-6.83908 V 442.0271 c 3.01312,0 4.97397,1.37851 4.97397,2.8999 0,0.64676 -0.64117,1.7738 0.37,2.31839 1.54196,0.83051 3.58847,-1.47787 3.58847,-4.14752 -1e-5,-3.4288 -1.52843,-5.22467 -5.1534,-6.30652 z"
   id="path740"
   style="fill:#00283c" />
	<rect
   x="357.14285"
   y="428.57144"
   class="st0"
   width="35.714291"
   height="35.714291"
   id="rect742"
   style="fill:#00283c" />
	<rect
   x="321.42856"
   y="428.57144"
   class="st2"
   width="35.714291"
   height="35.714291"
   id="rect744"
   style="fill:#003c5a" />
	<polygon
   class="st1"
   points="337.44196,444.5072 339.28571,440.59064 341.12946,444.5072 345.4241,445.05045 342.26898,448.01422 343.07944,452.26654 339.28571,450.1817 335.49197,452.26654 336.30246,448.01422 333.14731,445.05045 "
   id="polygon746"
   style="fill:#003550" />
	<rect
   x="285.71426"
   y="428.57144"
   class="st0"
   width="35.714291"
   height="35.714291"
   id="rect748"
   style="fill:#00283c" />
	<rect
   x="249.99998"
   y="428.57144"
   class="st2"
   width="35.714298"
   height="35.714298"
   id="rect750"
   style="fill:#003c5a" />
	<path
   class="st0"
   d="m 274.74515,436.79135 c -1.8866,-0.56305 -3.77902,-1.49826 -3.77902,-2.30865 0,-1.43762 -0.67154,-2.02472 -2.19534,-2.02472 -1.5238,0 -2.1954,0.5871 -2.1954,2.02472 v 12.67657 c -5.125,-0.24582 -10.75958,2.87735 -10.75958,7.70242 0,3.43137 2.58359,5.53751 6.57184,5.53751 5.07938,0 8.57846,-4.16498 8.57846,-6.83908 V 442.0271 c 3.01312,0 4.97397,1.37851 4.97397,2.8999 0,0.64676 -0.6412,1.7738 0.37,2.31839 1.54196,0.83051 3.58847,-1.47787 3.58847,-4.14752 -2e-5,-3.4288 -1.52843,-5.22467 -5.1534,-6.30652 z"
   id="path752"
   style="fill:#00283c" />
	<rect
   x="214.28571"
   y="428.57144"
   class="st0"
   width="35.714291"
   height="35.714291"
   id="rect754"
   style="fill:#00283c" />
	<rect
   x="178.57143"
   y="428.57144"
   class="st2"
   width="35.714291"
   height="35.714291"
   id="rect756"
   style="fill:#003c5a" />
	<polygon
   class="st1"
   points="194.58481,444.5072 196.42856,440.59064 198.27232,444.5072 202.56696,445.05045 199.41182,448.01422 200.22231,452.26654 196.42856,450.1817 192.63483,452.26654 193.4453,448.01422 190.29018,445.05045 "
   id="polygon758"
   style="fill:#003550" />
	<rect
   x="142.85713"
   y="428.57144"
   class="st0"
   width="35.714291"
   height="35.714291"
   id="rect760"
   style="fill:#00283c" />
	<rect
   x="107.14495"
   y="428.57144"
   class="st2"
   width="35.714298"
   height="35.714298"
   id="rect762"
   style="fill:#003c5a" />
	<path
   class="st0"
   d="m 131.89012,436.79135 c -1.8866,-0.56305 -3.77902,-1.49826 -3.77902,-2.30865 0,-1.43762 -0.67154,-2.02472 -2.19535,-2.02472 -1.52381,0 -2.1954,0.5871 -2.1954,2.02472 v 12.67657 c -5.12501,-0.24582 -10.75959,2.87735 -10.75959,7.70242 0,3.43137 2.58358,5.53751 6.57183,5.53751 5.07938,0 8.57846,-4.16498 8.57846,-6.83908 V 442.0271 c 3.01314,0 4.97398,1.37851 4.97398,2.8999 0,0.64676 -0.6412,1.7738 0.36998,2.31839 1.54198,0.83051 3.58849,-1.47787 3.58849,-4.14752 0,-3.4288 -1.52842,-5.22467 -5.15338,-6.30652 z"
   id="path764"
   style="fill:#00283c" />
	<rect
   x="71.428574"
   y="428.57144"
   class="st0"
   width="35.714291"
   height="35.714291"
   id="rect766"
   style="fill:#00283c" />
	<rect
   x="35.714272"
   y="428.57144"
   class="st2"
   width="35.714298"
   height="35.714298"
   id="rect768"
   style="fill:#003c5a" />
	<polygon
   class="st1"
   points="51.72766,444.5072 53.57142,440.59064 55.41518,444.5072 59.70982,445.05045 56.55468,448.01422 57.36516,452.26654 53.57142,450.1817 49.77769,452.26654 50.58816,448.01422 47.43303,445.05045 "
   id="polygon770"
   style="fill:#003550" />
	<rect
   x="-9.9999997e-06"
   y="428.57144"
   class="st0"
   width="35.714291"
   height="35.714291"
   id="rect772"
   style="fill:#00283c" />
	<rect
   x="464.28571"
   y="392.85715"
   class="st0"
   width="35.714291"
   height="35.714291"
   id="rect774"
   style="fill:#00283c" />
	<rect
   x="428.57141"
   y="392.85715"
   class="st1"
   width="35.714291"
   height="35.714291"
   id="rect776"
   style="fill:#003550" />
	<polygon
   class="st2"
   points="444.58481,408.79291 446.42856,404.87634 448.27231,408.79291 452.56696,409.33615 449.41183,412.29996 450.22229,416.55225 446.42856,414.46741 442.63483,416.55225 443.44531,412.29996 440.29016,409.33615 "
   id="polygon778"
   style="fill:#003c5a" />
	<rect
   x="392.85715"
   y="392.85715"
   class="st0"
   width="35.714291"
   height="35.714291"
   id="rect780"
   style="fill:#00283c" />
	<rect
   x="357.14285"
   y="392.85715"
   class="st1"
   width="35.714291"
   height="35.714291"
   id="rect782"
   style="fill:#003550" />
	<polygon
   class="st2"
   points="373.15625,408.79291 375,404.87634 376.84375,408.79291 381.1384,409.33615 377.98325,412.29996 378.79373,416.55225 375,414.46741 371.20627,416.55225 372.01672,412.29996 368.8616,409.33615 "
   id="polygon784"
   style="fill:#003c5a" />
	<rect
   x="321.42856"
   y="392.85715"
   class="st0"
   width="35.714291"
   height="35.714291"
   id="rect786"
   style="fill:#00283c" />
	<rect
   x="285.71426"
   y="392.85715"
   class="st1"
   width="35.714291"
   height="35.714291"
   id="rect788"
   style="fill:#003550" />
	<polygon
   class="st2"
   points="301.72766,408.79291 303.57141,404.87634 305.41519,408.79291 309.70981,409.33615 306.55469,412.29996 307.36514,416.55225 303.57141,414.46741 299.77768,416.55225 300.58817,412.29996 297.43301,409.33615 "
   id="polygon790"
   style="fill:#003c5a" />
	<rect
   x="250"
   y="392.85715"
   class="st0"
   width="35.714291"
   height="35.714291"
   id="rect792"
   style="fill:#00283c" />
	<rect
   x="214.28571"
   y="392.85715"
   class="st1"
   width="35.714291"
   height="35.714291"
   id="rect794"
   style="fill:#003550" />
	<polygon
   class="st2"
   points="230.29909,408.79291 232.14285,404.87634 233.9866,408.79291 238.28125,409.33615 235.12611,412.29996 235.93658,416.55225 232.14285,414.46741 228.34912,416.55225 229.15959,412.29996 226.00446,409.33615 "
   id="polygon796"
   style="fill:#003c5a" />
	<rect
   x="178.57143"
   y="392.85715"
   class="st0"
   width="35.714291"
   height="35.714291"
   id="rect798"
   style="fill:#00283c" />
	<rect
   x="142.85713"
   y="392.85715"
   class="st1"
   width="35.714291"
   height="35.714291"
   id="rect800"
   style="fill:#003550" />
	<polygon
   class="st2"
   points="158.87051,408.79291 160.71428,404.87634 162.55803,408.79291 166.85268,409.33615 163.69754,412.29996 164.50801,416.55225 160.71428,414.46741 156.92055,416.55225 157.73102,412.29996 154.57588,409.33615 "
   id="polygon802"
   style="fill:#003c5a" />
	<rect
   x="107.14285"
   y="392.85715"
   class="st0"
   width="35.714291"
   height="35.714291"
   id="rect804"
   style="fill:#00283c" />
	<rect
   x="71.428574"
   y="392.85715"
   class="st1"
   width="35.714291"
   height="35.714291"
   id="rect806"
   style="fill:#003550" />
	<polygon
   class="st2"
   points="87.44195,408.79291 89.28571,404.87634 91.12946,408.79291 95.4241,409.33615 92.26897,412.29996 93.07944,416.55225 89.28571,414.46741 85.49197,416.55225 86.30244,412.29996 83.14732,409.33615 "
   id="polygon808"
   style="fill:#003c5a" />
	<rect
   x="35.714279"
   y="392.85715"
   class="st0"
   width="35.714291"
   height="35.714291"
   id="rect810"
   style="fill:#00283c" />
	<rect
   x="-9.9999997e-06"
   y="392.85715"
   class="st1"
   width="35.714291"
   height="35.714291"
   id="rect812"
   style="fill:#003550" />
	<polygon
   class="st2"
   points="16.01338,408.79291 17.85714,404.87634 19.70089,408.79291 23.99553,409.33615 20.8404,412.29996 21.65087,416.55225 17.85714,414.46741 14.0634,416.55225 14.87387,412.29996 11.71874,409.33615 "
   id="polygon814"
   style="fill:#003c5a" />
	<rect
   x="464.28571"
   y="357.14285"
   class="st2"
   width="35.714298"
   height="35.714298"
   id="rect816"
   style="fill:#003c5a" />
	<path
   class="st0"
   d="m 489.03088,365.36276 c -1.8866,-0.56305 -3.77902,-1.49823 -3.77902,-2.30862 0,-1.43765 -0.67154,-2.02475 -2.19537,-2.02475 -1.5238,0 -2.19537,0.5871 -2.19537,2.02475 v 12.67654 c -5.12503,-0.24582 -10.75961,2.87738 -10.75961,7.70242 0,3.43137 2.58359,5.53751 6.57184,5.53751 5.07938,0 8.57846,-4.16495 8.57846,-6.83905 v -11.53305 c 3.01315,0 4.974,1.37851 4.974,2.89993 0,0.64673 -0.6412,1.77377 0.36996,2.31839 1.54199,0.83047 3.5885,-1.47791 3.5885,-4.14755 0,-3.4288 -1.52845,-5.22467 -5.15339,-6.30652 z"
   id="path818"
   style="fill:#00283c" />
	<rect
   x="428.57141"
   y="357.14285"
   class="st0"
   width="35.714291"
   height="35.714291"
   id="rect820"
   style="fill:#00283c" />
	<rect
   x="392.85715"
   y="357.14285"
   class="st2"
   width="35.714291"
   height="35.714291"
   id="rect822"
   style="fill:#003c5a" />
	<polygon
   class="st1"
   points="408.87051,373.07861 410.71426,369.16205 412.55804,373.07861 416.85266,373.62186 413.69754,376.58566 414.50803,380.83795 410.71426,378.75311 406.92053,380.83795 407.73102,376.58566 404.5759,373.62186 "
   id="polygon824"
   style="fill:#003550" />
	<rect
   x="357.14285"
   y="357.14285"
   class="st0"
   width="35.714291"
   height="35.714291"
   id="rect826"
   style="fill:#00283c" />
	<rect
   x="321.42856"
   y="357.14285"
   class="st2"
   width="35.714298"
   height="35.714298"
   id="rect828"
   style="fill:#003c5a" />
	<path
   class="st0"
   d="m 346.17374,365.36276 c -1.8866,-0.56305 -3.77902,-1.49823 -3.77902,-2.30862 0,-1.43765 -0.67154,-2.02475 -2.19537,-2.02475 -1.5238,0 -2.19537,0.5871 -2.19537,2.02475 v 12.67654 c -5.12503,-0.24582 -10.75961,2.87738 -10.75961,7.70242 0,3.43137 2.58359,5.53751 6.57184,5.53751 5.07938,0 8.57846,-4.16495 8.57846,-6.83905 v -11.53305 c 3.01315,0 4.97397,1.37851 4.97397,2.89993 0,0.64673 -0.64117,1.77377 0.37,2.31839 1.54196,0.83047 3.58847,-1.47791 3.58847,-4.14755 -2e-5,-3.4288 -1.52843,-5.22467 -5.15337,-6.30652 z"
   id="path830"
   style="fill:#00283c" />
	<rect
   x="285.71426"
   y="357.14285"
   class="st0"
   width="35.714291"
   height="35.714291"
   id="rect832"
   style="fill:#00283c" />
	<rect
   x="250"
   y="357.14285"
   class="st2"
   width="35.714291"
   height="35.714291"
   id="rect834"
   style="fill:#003c5a" />
	<polygon
   class="st1"
   points="266.01337,373.07861 267.85715,369.16205 269.7009,373.07861 273.99551,373.62186 270.84039,376.58566 271.65088,380.83795 267.85715,378.75311 264.06342,380.83795 264.87387,376.58566 261.71875,373.62186 "
   id="polygon836"
   style="fill:#003550" />
	<rect
   x="214.28571"
   y="357.14285"
   class="st0"
   width="35.714291"
   height="35.714291"
   id="rect838"
   style="fill:#00283c" />
	<rect
   x="178.57143"
   y="357.14285"
   class="st3"
   width="35.714298"
   height="35.714298"
   id="rect840"
   style="fill:#323232" />
	<path
   d="m 203.31659,365.36276 c -1.8866,-0.56305 -3.77902,-1.49823 -3.77902,-2.30862 0,-1.43765 -0.67154,-2.02475 -2.19534,-2.02475 -1.52382,0 -2.1954,0.5871 -2.1954,2.02475 v 12.67654 c -5.12502,-0.24582 -10.7596,2.87738 -10.7596,7.70242 0,3.43137 2.58359,5.53751 6.57184,5.53751 5.07938,0 8.57846,-4.16495 8.57846,-6.83905 v -11.53305 c 3.01314,0 4.97398,1.37851 4.97398,2.89993 0,0.64673 -0.6412,1.77377 0.36998,2.31839 1.54198,0.83047 3.58849,-1.47791 3.58849,-4.14755 -1e-5,-3.4288 -1.52844,-5.22467 -5.15339,-6.30652 z"
   id="path842" />
	<rect
   x="178.57143"
   y="357.14285"
   class="st2"
   width="35.714298"
   height="35.714298"
   id="rect844"
   style="fill:#003c5a" />
	<path
   class="st0"
   d="m 203.31659,365.36276 c -1.8866,-0.56305 -3.77902,-1.49823 -3.77902,-2.30862 0,-1.43765 -0.67154,-2.02475 -2.19534,-2.02475 -1.52382,0 -2.1954,0.5871 -2.1954,2.02475 v 12.67654 c -5.12502,-0.24582 -10.7596,2.87738 -10.7596,7.70242 0,3.43137 2.58359,5.53751 6.57184,5.53751 5.07938,0 8.57846,-4.16495 8.57846,-6.83905 v -11.53305 c 3.01314,0 4.97398,1.37851 4.97398,2.89993 0,0.64673 -0.6412,1.77377 0.36998,2.31839 1.54198,0.83047 3.58849,-1.47791 3.58849,-4.14755 -1e-5,-3.4288 -1.52844,-5.22467 -5.15339,-6.30652 z"
   id="path846"
   style="fill:#00283c" />
	<rect
   x="142.85713"
   y="357.14285"
   class="st0"
   width="35.714291"
   height="35.714291"
   id="rect848"
   style="fill:#00283c" />
	<rect
   x="107.14285"
   y="357.14285"
   class="st2"
   width="35.714291"
   height="35.714291"
   id="rect850"
   style="fill:#003c5a" />
	<polygon
   class="st1"
   points="123.15623,373.07861 124.99999,369.16205 126.84375,373.07861 131.13838,373.62186 127.98325,376.58566 128.79373,380.83795 124.99999,378.75311 121.20626,380.83795 122.01673,376.58566 118.8616,373.62186 "
   id="polygon852"
   style="fill:#003550" />
	<rect
   x="71.428574"
   y="357.14285"
   class="st0"
   width="35.714291"
   height="35.714291"
   id="rect854"
   style="fill:#00283c" />
	<rect
   x="35.715321"
   y="357.14285"
   class="st2"
   width="35.714298"
   height="35.714298"
   id="rect856"
   style="fill:#003c5a" />
	<path
   class="st0"
   d="m 60.46049,365.36276 c -1.8866,-0.56305 -3.77903,-1.49823 -3.77903,-2.30862 0,-1.43765 -0.67154,-2.02475 -2.19535,-2.02475 -1.52381,0 -2.19539,0.5871 -2.19539,2.02475 v 12.67654 c -5.12502,-0.24582 -10.7596,2.87738 -10.7596,7.70242 0,3.43137 2.58358,5.53751 6.57184,5.53751 5.07938,0 8.57846,-4.16495 8.57846,-6.83905 v -11.53305 c 3.01314,0 4.97398,1.37851 4.97398,2.89993 0,0.64673 -0.64119,1.77377 0.36998,2.31839 1.54198,0.83047 3.58849,-1.47791 3.58849,-4.14755 0,-3.4288 -1.52842,-5.22467 -5.15338,-6.30652 z"
   id="path858"
   style="fill:#00283c" />
	<rect
   x="-9.9999997e-06"
   y="357.14285"
   class="st0"
   width="35.714291"
   height="35.714291"
   id="rect860"
   style="fill:#00283c" />
	<rect
   x="464.28571"
   y="321.42859"
   class="st0"
   width="35.714291"
   height="35.714291"
   id="rect862"
   style="fill:#00283c" />
	<rect
   x="428.57141"
   y="321.42859"
   class="st1"
   width="35.714291"
   height="35.714291"
   id="rect864"
   style="fill:#003550" />
	<polygon
   class="st2"
   points="444.58481,337.36435 446.42856,333.44775 448.27231,337.36435 452.56696,337.90756 449.41183,340.87137 450.22229,345.12369 446.42856,343.03885 442.63483,345.12369 443.44531,340.87137 440.29016,337.90756 "
   id="polygon866"
   style="fill:#003c5a" />
	<rect
   x="392.85715"
   y="321.42859"
   class="st0"
   width="35.714291"
   height="35.714291"
   id="rect868"
   style="fill:#00283c" />
	<rect
   x="357.14285"
   y="321.42859"
   class="st1"
   width="35.714291"
   height="35.714291"
   id="rect870"
   style="fill:#003550" />
	<polygon
   class="st2"
   points="373.15625,337.36435 375,333.44775 376.84375,337.36435 381.1384,337.90756 377.98325,340.87137 378.79373,345.12369 375,343.03885 371.20627,345.12369 372.01672,340.87137 368.8616,337.90756 "
   id="polygon872"
   style="fill:#003c5a" />
	<rect
   x="321.42856"
   y="321.42859"
   class="st0"
   width="35.714291"
   height="35.714291"
   id="rect874"
   style="fill:#00283c" />
	<rect
   x="285.71426"
   y="321.42859"
   class="st1"
   width="35.714291"
   height="35.714291"
   id="rect876"
   style="fill:#003550" />
	<polygon
   class="st2"
   points="301.72766,337.36435 303.57141,333.44775 305.41519,337.36435 309.70981,337.90756 306.55469,340.87137 307.36514,345.12369 303.57141,343.03885 299.77768,345.12369 300.58817,340.87137 297.43301,337.90756 "
   id="polygon878"
   style="fill:#003c5a" />
	<rect
   x="250"
   y="321.42859"
   class="st0"
   width="35.714291"
   height="35.714291"
   id="rect880"
   style="fill:#00283c" />
	<rect
   x="214.28571"
   y="321.42859"
   class="st1"
   width="35.714291"
   height="35.714291"
   id="rect882"
   style="fill:#003550" />
	<polygon
   class="st2"
   points="230.29909,337.36435 232.14285,333.44775 233.9866,337.36435 238.28125,337.90756 235.12611,340.87137 235.93658,345.12369 232.14285,343.03885 228.34912,345.12369 229.15959,340.87137 226.00446,337.90756 "
   id="polygon884"
   style="fill:#003c5a" />
	<rect
   x="178.57143"
   y="321.42859"
   class="st0"
   width="35.714291"
   height="35.714291"
   id="rect886"
   style="fill:#00283c" />
	<rect
   x="142.85713"
   y="321.42859"
   class="st1"
   width="35.714291"
   height="35.714291"
   id="rect888"
   style="fill:#003550" />
	<polygon
   class="st2"
   points="158.87051,337.36435 160.71428,333.44775 162.55803,337.36435 166.85268,337.90756 163.69754,340.87137 164.50801,345.12369 160.71428,343.03885 156.92055,345.12369 157.73102,340.87137 154.57588,337.90756 "
   id="polygon890"
   style="fill:#003c5a" />
	<rect
   x="107.14285"
   y="321.42859"
   class="st0"
   width="35.714291"
   height="35.714291"
   id="rect892"
   style="fill:#00283c" />
	<rect
   x="71.428574"
   y="321.42859"
   class="st1"
   width="35.714291"
   height="35.714291"
   id="rect894"
   style="fill:#003550" />
	<polygon
   class="st2"
   points="87.44195,337.36435 89.28571,333.44775 91.12946,337.36435 95.4241,337.90756 92.26897,340.87137 93.07944,345.12369 89.28571,343.03885 85.49197,345.12369 86.30244,340.87137 83.14732,337.90756 "
   id="polygon896"
   style="fill:#003c5a" />
	<rect
   x="35.714279"
   y="321.42859"
   class="st0"
   width="35.714291"
   height="35.714291"
   id="rect898"
   style="fill:#00283c" />
	<rect
   x="-9.9999997e-06"
   y="321.42859"
   class="st1"
   width="35.714291"
   height="35.714291"
   id="rect900"
   style="fill:#003550" />
	<polygon
   class="st2"
   points="16.01338,337.36435 17.85714,333.44775 19.70089,337.36435 23.99553,337.90756 20.8404,340.87137 21.65087,345.12369 17.85714,343.03885 14.0634,345.12369 14.87387,340.87137 11.71874,337.90756 "
   id="polygon902"
   style="fill:#003c5a" />
	<rect
   x="464.28571"
   y="285.71429"
   class="st2"
   width="35.714291"
   height="35.714291"
   id="rect904"
   style="fill:#003c5a" />
	<polygon
   class="st1"
   points="480.2991,301.65005 482.14285,297.73349 483.9866,301.65005 488.28125,302.19327 485.1261,305.15707 485.93658,309.40939 482.14285,307.32455 478.34912,309.40939 479.15958,305.15707 476.00446,302.19327 "
   id="polygon906"
   style="fill:#003550" />
	<rect
   x="428.57141"
   y="285.71429"
   class="st0"
   width="35.714291"
   height="35.714291"
   id="rect908"
   style="fill:#00283c" />
	<rect
   x="392.85715"
   y="285.71429"
   class="st2"
   width="35.714298"
   height="35.714298"
   id="rect910"
   style="fill:#003c5a" />
	<path
   class="st0"
   d="m 417.60229,293.9342 c -1.8866,-0.56305 -3.77902,-1.49826 -3.77902,-2.30865 0,-1.43762 -0.67154,-2.02472 -2.19534,-2.02472 -1.5238,0 -2.1954,0.5871 -2.1954,2.02472 v 12.67657 c -5.125,-0.24582 -10.75958,2.87735 -10.75958,7.70242 0,3.43137 2.58359,5.53751 6.57184,5.53751 5.07938,0 8.57846,-4.16498 8.57846,-6.83908 v -11.53302 c 3.01312,0 4.97397,1.37851 4.97397,2.8999 0,0.64676 -0.64117,1.77377 0.37,2.31839 1.54196,0.83051 3.58847,-1.47787 3.58847,-4.14752 -1e-5,-3.4288 -1.52843,-5.22467 -5.1534,-6.30652 z"
   id="path912"
   style="fill:#00283c" />
	<rect
   x="357.14285"
   y="285.71429"
   class="st0"
   width="35.714291"
   height="35.714291"
   id="rect914"
   style="fill:#00283c" />
	<rect
   x="321.42856"
   y="285.71429"
   class="st2"
   width="35.714291"
   height="35.714291"
   id="rect916"
   style="fill:#003c5a" />
	<polygon
   class="st1"
   points="337.44196,301.65005 339.28571,297.73349 341.12946,301.65005 345.4241,302.19327 342.26898,305.15707 343.07944,309.40939 339.28571,307.32455 335.49197,309.40939 336.30246,305.15707 333.14731,302.19327 "
   id="polygon918"
   style="fill:#003550" />
	<rect
   x="285.71426"
   y="285.71429"
   class="st0"
   width="35.714291"
   height="35.714291"
   id="rect920"
   style="fill:#00283c" />
	<rect
   x="249.99998"
   y="285.71429"
   class="st2"
   width="35.714298"
   height="35.714298"
   id="rect922"
   style="fill:#003c5a" />
	<path
   class="st0"
   d="m 274.74515,293.9342 c -1.8866,-0.56305 -3.77902,-1.49826 -3.77902,-2.30865 0,-1.43762 -0.67154,-2.02472 -2.19534,-2.02472 -1.5238,0 -2.1954,0.5871 -2.1954,2.02472 v 12.67657 c -5.125,-0.24582 -10.75958,2.87735 -10.75958,7.70242 0,3.43137 2.58359,5.53751 6.57184,5.53751 5.07938,0 8.57846,-4.16498 8.57846,-6.83908 v -11.53302 c 3.01312,0 4.97397,1.37851 4.97397,2.8999 0,0.64676 -0.6412,1.77377 0.37,2.31839 1.54196,0.83051 3.58847,-1.47787 3.58847,-4.14752 -2e-5,-3.4288 -1.52843,-5.22467 -5.1534,-6.30652 z"
   id="path924"
   style="fill:#00283c" />
	<rect
   x="214.28571"
   y="285.71429"
   class="st0"
   width="35.714291"
   height="35.714291"
   id="rect926"
   style="fill:#00283c" />
	<rect
   x="178.57143"
   y="285.71429"
   class="st2"
   width="35.714291"
   height="35.714291"
   id="rect928"
   style="fill:#003c5a" />
	<polygon
   class="st1"
   points="194.58481,301.65005 196.42856,297.73349 198.27232,301.65005 202.56696,302.19327 199.41182,305.15707 200.22231,309.40939 196.42856,307.32455 192.63483,309.40939 193.4453,305.15707 190.29018,302.19327 "
   id="polygon930"
   style="fill:#003550" />
	<rect
   x="142.85713"
   y="285.71429"
   class="st0"
   width="35.714291"
   height="35.714291"
   id="rect932"
   style="fill:#00283c" />
	<rect
   x="107.14495"
   y="285.71429"
   class="st2"
   width="35.714298"
   height="35.714298"
   id="rect934"
   style="fill:#003c5a" />
	<path
   class="st0"
   d="m 131.89012,293.9342 c -1.8866,-0.56305 -3.77902,-1.49826 -3.77902,-2.30865 0,-1.43762 -0.67154,-2.02472 -2.19535,-2.02472 -1.52381,0 -2.1954,0.5871 -2.1954,2.02472 v 12.67657 c -5.12501,-0.24582 -10.75959,2.87735 -10.75959,7.70242 0,3.43137 2.58358,5.53751 6.57183,5.53751 5.07938,0 8.57846,-4.16498 8.57846,-6.83908 v -11.53302 c 3.01314,0 4.97398,1.37851 4.97398,2.8999 0,0.64676 -0.6412,1.77377 0.36998,2.31839 1.54198,0.83051 3.58849,-1.47787 3.58849,-4.14752 0,-3.4288 -1.52842,-5.22467 -5.15338,-6.30652 z"
   id="path936"
   style="fill:#00283c" />
	<rect
   x="71.428574"
   y="285.71429"
   class="st0"
   width="35.714291"
   height="35.714291"
   id="rect938"
   style="fill:#00283c" />
	<rect
   x="35.714272"
   y="285.71429"
   class="st2"
   width="35.714298"
   height="35.714298"
   id="rect940"
   style="fill:#003c5a" />
	<polygon
   class="st1"
   points="51.72766,301.65005 53.57142,297.73349 55.41518,301.65005 59.70982,302.19327 56.55468,305.15707 57.36516,309.40939 53.57142,307.32455 49.77769,309.40939 50.58816,305.15707 47.43303,302.19327 "
   id="polygon942"
   style="fill:#003550" />
	<rect
   x="-9.9999997e-06"
   y="285.71429"
   class="st0"
   width="35.714291"
   height="35.714291"
   id="rect944"
   style="fill:#00283c" />
	<rect
   x="464.28571"
   y="250"
   class="st0"
   width="35.714291"
   height="35.714291"
   id="rect946"
   style="fill:#00283c" />
	<rect
   x="428.57141"
   y="250"
   class="st1"
   width="35.714291"
   height="35.714291"
   id="rect948"
   style="fill:#003550" />
	<polygon
   class="st2"
   points="444.58481,265.93576 446.42856,262.0192 448.27231,265.93576 452.56696,266.47897 449.41183,269.44278 450.22229,273.6951 446.42856,271.61026 442.63483,273.6951 443.44531,269.44278 440.29016,266.47897 "
   id="polygon950"
   style="fill:#003c5a" />
	<rect
   x="392.85715"
   y="250"
   class="st0"
   width="35.714291"
   height="35.714291"
   id="rect952"
   style="fill:#00283c" />
	<rect
   x="357.14285"
   y="250"
   class="st1"
   width="35.714291"
   height="35.714291"
   id="rect954"
   style="fill:#003550" />
	<polygon
   class="st2"
   points="373.15625,265.93576 375,262.0192 376.84375,265.93576 381.1384,266.47897 377.98325,269.44278 378.79373,273.6951 375,271.61026 371.20627,273.6951 372.01672,269.44278 368.8616,266.47897 "
   id="polygon956"
   style="fill:#003c5a" />
	<rect
   x="321.42856"
   y="250"
   class="st0"
   width="35.714291"
   height="35.714291"
   id="rect958"
   style="fill:#00283c" />
	<rect
   x="285.71426"
   y="250"
   class="st1"
   width="35.714291"
   height="35.714291"
   id="rect960"
   style="fill:#003550" />
	<polygon
   class="st2"
   points="301.72766,265.93576 303.57141,262.0192 305.41519,265.93576 309.70981,266.47897 306.55469,269.44278 307.36514,273.6951 303.57141,271.61026 299.77768,273.6951 300.58817,269.44278 297.43301,266.47897 "
   id="polygon962"
   style="fill:#003c5a" />
	<rect
   x="250"
   y="250"
   class="st0"
   width="35.714291"
   height="35.714291"
   id="rect964"
   style="fill:#00283c" />
	<rect
   x="214.28571"
   y="250"
   class="st1"
   width="35.714291"
   height="35.714291"
   id="rect966"
   style="fill:#003550" />
	<polygon
   class="st2"
   points="230.29909,265.93576 232.14285,262.0192 233.9866,265.93576 238.28125,266.47897 235.12611,269.44278 235.93658,273.6951 232.14285,271.61026 228.34912,273.6951 229.15959,269.44278 226.00446,266.47897 "
   id="polygon968"
   style="fill:#003c5a" />
	<rect
   x="178.57143"
   y="250"
   class="st0"
   width="35.714291"
   height="35.714291"
   id="rect970"
   style="fill:#00283c" />
	<rect
   x="142.85713"
   y="250"
   class="st1"
   width="35.714291"
   height="35.714291"
   id="rect972"
   style="fill:#003550" />
	<polygon
   class="st2"
   points="158.87051,265.93576 160.71428,262.0192 162.55803,265.93576 166.85268,266.47897 163.69754,269.44278 164.50801,273.6951 160.71428,271.61026 156.92055,273.6951 157.73102,269.44278 154.57588,266.47897 "
   id="polygon974"
   style="fill:#003c5a" />
	<rect
   x="107.14285"
   y="250"
   class="st0"
   width="35.714291"
   height="35.714291"
   id="rect976"
   style="fill:#00283c" />
	<rect
   x="71.428574"
   y="250"
   class="st1"
   width="35.714291"
   height="35.714291"
   id="rect978"
   style="fill:#003550" />
	<polygon
   class="st2"
   points="87.44195,265.93576 89.28571,262.0192 91.12946,265.93576 95.4241,266.47897 92.26897,269.44278 93.07944,273.6951 89.28571,271.61026 85.49197,273.6951 86.30244,269.44278 83.14732,266.47897 "
   id="polygon980"
   style="fill:#003c5a" />
	<rect
   x="35.714279"
   y="250"
   class="st0"
   width="35.714291"
   height="35.714291"
   id="rect982"
   style="fill:#00283c" />
	<rect
   x="-9.9999997e-06"
   y="250"
   class="st1"
   width="35.714291"
   height="35.714291"
   id="rect984"
   style="fill:#003550" />
	<polygon
   class="st2"
   points="16.01338,265.93576 17.85714,262.0192 19.70089,265.93576 23.99553,266.47897 20.8404,269.44278 21.65087,273.6951 17.85714,271.61026 14.0634,273.6951 14.87387,269.44278 11.71874,266.47897 "
   id="polygon986"
   style="fill:#003c5a" />
	<rect
   x="464.28571"
   y="214.28571"
   class="st2"
   width="35.714298"
   height="35.714298"
   id="rect988"
   style="fill:#003c5a" />
	<path
   class="st0"
   d="m 489.03088,222.50562 c -1.8866,-0.56303 -3.77902,-1.49825 -3.77902,-2.30864 0,-1.43762 -0.67154,-2.02473 -2.19537,-2.02473 -1.5238,0 -2.19537,0.58711 -2.19537,2.02473 v 12.67656 c -5.12503,-0.2458 -10.75961,2.87737 -10.75961,7.70242 0,3.43137 2.58359,5.53751 6.57184,5.53751 5.07938,0 8.57846,-4.16496 8.57846,-6.83907 v -11.53304 c 3.01315,0 4.974,1.37851 4.974,2.89992 0,0.64676 -0.6412,1.77379 0.36996,2.31839 1.54199,0.83049 3.5885,-1.47787 3.5885,-4.14754 0,-3.42878 -1.52845,-5.22467 -5.15339,-6.30651 z"
   id="path990"
   style="fill:#00283c" />
	<rect
   x="428.57141"
   y="214.28572"
   class="st0"
   width="35.714291"
   height="35.714291"
   id="rect992"
   style="fill:#00283c" />
	<rect
   x="392.85715"
   y="214.28572"
   class="st2"
   width="35.714291"
   height="35.714291"
   id="rect994"
   style="fill:#003c5a" />
	<polygon
   class="st1"
   points="408.87051,230.22147 410.71426,226.3049 412.55804,230.22147 416.85266,230.76471 413.69754,233.7285 414.50803,237.98082 410.71426,235.89598 406.92053,237.98082 407.73102,233.7285 404.5759,230.76471 "
   id="polygon996"
   style="fill:#003550" />
	<rect
   x="357.14285"
   y="214.28572"
   class="st0"
   width="35.714291"
   height="35.714291"
   id="rect998"
   style="fill:#00283c" />
	<rect
   x="321.42856"
   y="214.28571"
   class="st2"
   width="35.714298"
   height="35.714298"
   id="rect1000"
   style="fill:#003c5a" />
	<path
   class="st0"
   d="m 346.17374,222.50562 c -1.8866,-0.56303 -3.77902,-1.49825 -3.77902,-2.30864 0,-1.43762 -0.67154,-2.02473 -2.19537,-2.02473 -1.5238,0 -2.19537,0.58711 -2.19537,2.02473 v 12.67656 c -5.12503,-0.2458 -10.75961,2.87737 -10.75961,7.70242 0,3.43137 2.58359,5.53751 6.57184,5.53751 5.07938,0 8.57846,-4.16496 8.57846,-6.83907 v -11.53304 c 3.01315,0 4.97397,1.37851 4.97397,2.89992 0,0.64676 -0.64117,1.77379 0.37,2.31839 1.54196,0.83049 3.58847,-1.47787 3.58847,-4.14754 -2e-5,-3.42878 -1.52843,-5.22467 -5.15337,-6.30651 z"
   id="path1002"
   style="fill:#00283c" />
	<rect
   x="285.71426"
   y="214.28572"
   class="st0"
   width="35.714291"
   height="35.714291"
   id="rect1004"
   style="fill:#00283c" />
	<rect
   x="250"
   y="214.28572"
   class="st2"
   width="35.714291"
   height="35.714291"
   id="rect1006"
   style="fill:#003c5a" />
	<polygon
   class="st1"
   points="266.01337,230.22147 267.85715,226.3049 269.7009,230.22147 273.99551,230.76471 270.84039,233.7285 271.65088,237.98082 267.85715,235.89598 264.06342,237.98082 264.87387,233.7285 261.71875,230.76471 "
   id="polygon1008"
   style="fill:#003550" />
	<rect
   x="214.28571"
   y="214.28572"
   class="st0"
   width="35.714291"
   height="35.714291"
   id="rect1010"
   style="fill:#00283c" />
	<rect
   x="178.57143"
   y="214.28571"
   class="st3"
   width="35.714298"
   height="35.714298"
   id="rect1012"
   style="fill:#323232" />
	<path
   d="m 203.31659,222.50562 c -1.8866,-0.56303 -3.77902,-1.49825 -3.77902,-2.30864 0,-1.43762 -0.67154,-2.02473 -2.19534,-2.02473 -1.52382,0 -2.1954,0.58711 -2.1954,2.02473 v 12.67656 c -5.12502,-0.2458 -10.7596,2.87737 -10.7596,7.70242 0,3.43137 2.58359,5.53751 6.57184,5.53751 5.07938,0 8.57846,-4.16496 8.57846,-6.83907 v -11.53304 c 3.01314,0 4.97398,1.37851 4.97398,2.89992 0,0.64676 -0.6412,1.77379 0.36998,2.31839 1.54198,0.83049 3.58849,-1.47787 3.58849,-4.14754 -1e-5,-3.42878 -1.52844,-5.22467 -5.15339,-6.30651 z"
   id="path1014" />
	<rect
   x="178.57143"
   y="214.28571"
   class="st2"
   width="35.714298"
   height="35.714298"
   id="rect1016"
   style="fill:#003c5a" />
	<path
   class="st0"
   d="m 203.31659,222.50562 c -1.8866,-0.56303 -3.77902,-1.49825 -3.77902,-2.30864 0,-1.43762 -0.67154,-2.02473 -2.19534,-2.02473 -1.52382,0 -2.1954,0.58711 -2.1954,2.02473 v 12.67656 c -5.12502,-0.2458 -10.7596,2.87737 -10.7596,7.70242 0,3.43137 2.58359,5.53751 6.57184,5.53751 5.07938,0 8.57846,-4.16496 8.57846,-6.83907 v -11.53304 c 3.01314,0 4.97398,1.37851 4.97398,2.89992 0,0.64676 -0.6412,1.77379 0.36998,2.31839 1.54198,0.83049 3.58849,-1.47787 3.58849,-4.14754 -1e-5,-3.42878 -1.52844,-5.22467 -5.15339,-6.30651 z"
   id="path1018"
   style="fill:#00283c" />
	<rect
   x="142.85713"
   y="214.28572"
   class="st0"
   width="35.714291"
   height="35.714291"
   id="rect1020"
   style="fill:#00283c" />
	<rect
   x="107.14285"
   y="214.28572"
   class="st2"
   width="35.714291"
   height="35.714291"
   id="rect1022"
   style="fill:#003c5a" />
	<polygon
   class="st1"
   points="123.15623,230.22147 124.99999,226.3049 126.84375,230.22147 131.13838,230.76471 127.98325,233.7285 128.79373,237.98082 124.99999,235.89598 121.20626,237.98082 122.01673,233.7285 118.8616,230.76471 "
   id="polygon1024"
   style="fill:#003550" />
	<rect
   x="71.428574"
   y="214.28572"
   class="st0"
   width="35.714291"
   height="35.714291"
   id="rect1026"
   style="fill:#00283c" />
	<rect
   x="35.715321"
   y="214.28571"
   class="st2"
   width="35.714298"
   height="35.714298"
   id="rect1028"
   style="fill:#003c5a" />
	<path
   class="st0"
   d="m 60.46049,222.50562 c -1.8866,-0.56303 -3.77903,-1.49825 -3.77903,-2.30864 0,-1.43762 -0.67154,-2.02473 -2.19535,-2.02473 -1.52381,0 -2.19539,0.58711 -2.19539,2.02473 v 12.67656 c -5.12502,-0.2458 -10.7596,2.87737 -10.7596,7.70242 0,3.43137 2.58358,5.53751 6.57184,5.53751 5.07938,0 8.57846,-4.16496 8.57846,-6.83907 v -11.53304 c 3.01314,0 4.97398,1.37851 4.97398,2.89992 0,0.64676 -0.64119,1.77379 0.36998,2.31839 1.54198,0.83049 3.58849,-1.47787 3.58849,-4.14754 0,-3.42878 -1.52842,-5.22467 -5.15338,-6.30651 z"
   id="path1030"
   style="fill:#00283c" />
	<rect
   x="-9.9999997e-06"
   y="214.28572"
   class="st0"
   width="35.714291"
   height="35.714291"
   id="rect1032"
   style="fill:#00283c" />
	<rect
   x="464.28571"
   y="178.57143"
   class="st0"
   width="35.714291"
   height="35.714291"
   id="rect1034"
   style="fill:#00283c" />
	<rect
   x="428.57141"
   y="178.57143"
   class="st1"
   width="35.714291"
   height="35.714291"
   id="rect1036"
   style="fill:#003550" />
	<polygon
   class="st2"
   points="444.58481,194.50719 446.42856,190.59061 448.27231,194.50719 452.56696,195.05042 449.41183,198.01422 450.22229,202.26653 446.42856,200.18169 442.63483,202.26653 443.44531,198.01422 440.29016,195.05042 "
   id="polygon1038"
   style="fill:#003c5a" />
	<rect
   x="392.85715"
   y="178.57143"
   class="st0"
   width="35.714291"
   height="35.714291"
   id="rect1040"
   style="fill:#00283c" />
	<rect
   x="357.14285"
   y="178.57143"
   class="st1"
   width="35.714291"
   height="35.714291"
   id="rect1042"
   style="fill:#003550" />
	<polygon
   class="st2"
   points="373.15625,194.50719 375,190.59061 376.84375,194.50719 381.1384,195.05042 377.98325,198.01422 378.79373,202.26653 375,200.18169 371.20627,202.26653 372.01672,198.01422 368.8616,195.05042 "
   id="polygon1044"
   style="fill:#003c5a" />
	<rect
   x="321.42856"
   y="178.57143"
   class="st0"
   width="35.714291"
   height="35.714291"
   id="rect1046"
   style="fill:#00283c" />
	<rect
   x="285.71426"
   y="178.57143"
   class="st1"
   width="35.714291"
   height="35.714291"
   id="rect1048"
   style="fill:#003550" />
	<polygon
   class="st2"
   points="301.72766,194.50719 303.57141,190.59061 305.41519,194.50719 309.70981,195.05042 306.55469,198.01422 307.36514,202.26653 303.57141,200.18169 299.77768,202.26653 300.58817,198.01422 297.43301,195.05042 "
   id="polygon1050"
   style="fill:#003c5a" />
	<rect
   x="250"
   y="178.57143"
   class="st0"
   width="35.714291"
   height="35.714291"
   id="rect1052"
   style="fill:#00283c" />
	<rect
   x="214.28571"
   y="178.57143"
   class="st1"
   width="35.714291"
   height="35.714291"
   id="rect1054"
   style="fill:#003550" />
	<polygon
   class="st2"
   points="230.29909,194.50719 232.14285,190.59061 233.9866,194.50719 238.28125,195.05042 235.12611,198.01422 235.93658,202.26653 232.14285,200.18169 228.34912,202.26653 229.15959,198.01422 226.00446,195.05042 "
   id="polygon1056"
   style="fill:#003c5a" />
	<rect
   x="178.57143"
   y="178.57143"
   class="st0"
   width="35.714291"
   height="35.714291"
   id="rect1058"
   style="fill:#00283c" />
	<rect
   x="142.85713"
   y="178.57143"
   class="st1"
   width="35.714291"
   height="35.714291"
   id="rect1060"
   style="fill:#003550" />
	<polygon
   class="st2"
   points="158.87051,194.50719 160.71428,190.59061 162.55803,194.50719 166.85268,195.05042 163.69754,198.01422 164.50801,202.26653 160.71428,200.18169 156.92055,202.26653 157.73102,198.01422 154.57588,195.05042 "
   id="polygon1062"
   style="fill:#003c5a" />
	<rect
   x="107.14285"
   y="178.57143"
   class="st0"
   width="35.714291"
   height="35.714291"
   id="rect1064"
   style="fill:#00283c" />
	<rect
   x="71.428574"
   y="178.57143"
   class="st1"
   width="35.714291"
   height="35.714291"
   id="rect1066"
   style="fill:#003550" />
	<polygon
   class="st2"
   points="87.44195,194.50719 89.28571,190.59061 91.12946,194.50719 95.4241,195.05042 92.26897,198.01422 93.07944,202.26653 89.28571,200.18169 85.49197,202.26653 86.30244,198.01422 83.14732,195.05042 "
   id="polygon1068"
   style="fill:#003c5a" />
	<rect
   x="35.714279"
   y="178.57143"
   class="st0"
   width="35.714291"
   height="35.714291"
   id="rect1070"
   style="fill:#00283c" />
	<rect
   x="-9.9999997e-06"
   y="178.57143"
   class="st1"
   width="35.714291"
   height="35.714291"
   id="rect1072"
   style="fill:#003550" />
	<polygon
   class="st2"
   points="16.01338,194.50719 17.85714,190.59061 19.70089,194.50719 23.99553,195.05042 20.8404,198.01422 21.65087,202.26653 17.85714,200.18169 14.0634,202.26653 14.87387,198.01422 11.71874,195.05042 "
   id="polygon1074"
   style="fill:#003c5a" />
	<rect
   x="464.28571"
   y="142.85715"
   class="st2"
   width="35.714291"
   height="35.714291"
   id="rect1076"
   style="fill:#003c5a" />
	<polygon
   class="st1"
   points="480.2991,158.79291 482.14285,154.87633 483.9866,158.79291 488.28125,159.33614 485.1261,162.29994 485.93658,166.55225 482.14285,164.46741 478.34912,166.55225 479.15958,162.29994 476.00446,159.33614 "
   id="polygon1078"
   style="fill:#003550" />
	<rect
   x="428.57141"
   y="142.85715"
   class="st0"
   width="35.714291"
   height="35.714291"
   id="rect1080"
   style="fill:#00283c" />
	<rect
   x="392.85715"
   y="142.85713"
   class="st2"
   width="35.714298"
   height="35.714298"
   id="rect1082"
   style="fill:#003c5a" />
	<path
   class="st0"
   d="m 417.60229,151.07706 c -1.8866,-0.56305 -3.77902,-1.49826 -3.77902,-2.30865 0,-1.43762 -0.67154,-2.02473 -2.19534,-2.02473 -1.5238,0 -2.1954,0.58711 -2.1954,2.02473 v 12.67656 c -5.125,-0.2458 -10.75958,2.87738 -10.75958,7.70242 0,3.43137 2.58359,5.53752 6.57184,5.53752 5.07938,0 8.57846,-4.16498 8.57846,-6.83908 v -11.53304 c 3.01312,0 4.97397,1.37851 4.97397,2.89992 0,0.64676 -0.64117,1.77379 0.37,2.31839 1.54196,0.83049 3.58847,-1.47787 3.58847,-4.14754 -1e-5,-3.42879 -1.52843,-5.22467 -5.1534,-6.3065 z"
   id="path1084"
   style="fill:#00283c" />
	<rect
   x="357.14285"
   y="142.85715"
   class="st0"
   width="35.714291"
   height="35.714291"
   id="rect1086"
   style="fill:#00283c" />
	<rect
   x="321.42856"
   y="142.85715"
   class="st2"
   width="35.714291"
   height="35.714291"
   id="rect1088"
   style="fill:#003c5a" />
	<polygon
   class="st1"
   points="337.44196,158.79291 339.28571,154.87633 341.12946,158.79291 345.4241,159.33614 342.26898,162.29994 343.07944,166.55225 339.28571,164.46741 335.49197,166.55225 336.30246,162.29994 333.14731,159.33614 "
   id="polygon1090"
   style="fill:#003550" />
	<rect
   x="285.71426"
   y="142.85715"
   class="st0"
   width="35.714291"
   height="35.714291"
   id="rect1092"
   style="fill:#00283c" />
	<rect
   x="249.99998"
   y="142.85713"
   class="st2"
   width="35.714298"
   height="35.714298"
   id="rect1094"
   style="fill:#003c5a" />
	<path
   class="st0"
   d="m 274.74515,151.07706 c -1.8866,-0.56305 -3.77902,-1.49826 -3.77902,-2.30865 0,-1.43762 -0.67154,-2.02473 -2.19534,-2.02473 -1.5238,0 -2.1954,0.58711 -2.1954,2.02473 v 12.67656 c -5.125,-0.2458 -10.75958,2.87738 -10.75958,7.70242 0,3.43137 2.58359,5.53752 6.57184,5.53752 5.07938,0 8.57846,-4.16498 8.57846,-6.83908 v -11.53304 c 3.01312,0 4.97397,1.37851 4.97397,2.89992 0,0.64676 -0.6412,1.77379 0.37,2.31839 1.54196,0.83049 3.58847,-1.47787 3.58847,-4.14754 -2e-5,-3.42879 -1.52843,-5.22467 -5.1534,-6.3065 z"
   id="path1096"
   style="fill:#00283c" />
	<rect
   x="214.28571"
   y="142.85715"
   class="st0"
   width="35.714291"
   height="35.714291"
   id="rect1098"
   style="fill:#00283c" />
	<rect
   x="178.57143"
   y="142.85715"
   class="st2"
   width="35.714291"
   height="35.714291"
   id="rect1100"
   style="fill:#003c5a" />
	<polygon
   class="st1"
   points="194.58481,158.79291 196.42856,154.87633 198.27232,158.79291 202.56696,159.33614 199.41182,162.29994 200.22231,166.55225 196.42856,164.46741 192.63483,166.55225 193.4453,162.29994 190.29018,159.33614 "
   id="polygon1102"
   style="fill:#003550" />
	<rect
   x="142.85713"
   y="142.85715"
   class="st0"
   width="35.714291"
   height="35.714291"
   id="rect1104"
   style="fill:#00283c" />
	<rect
   x="107.14495"
   y="142.85713"
   class="st2"
   width="35.714298"
   height="35.714298"
   id="rect1106"
   style="fill:#003c5a" />
	<path
   class="st0"
   d="m 131.89012,151.07706 c -1.8866,-0.56305 -3.77902,-1.49826 -3.77902,-2.30865 0,-1.43762 -0.67154,-2.02473 -2.19535,-2.02473 -1.52381,0 -2.1954,0.58711 -2.1954,2.02473 v 12.67656 c -5.12501,-0.2458 -10.75959,2.87738 -10.75959,7.70242 0,3.43137 2.58358,5.53752 6.57183,5.53752 5.07938,0 8.57846,-4.16498 8.57846,-6.83908 v -11.53304 c 3.01314,0 4.97398,1.37851 4.97398,2.89992 0,0.64676 -0.6412,1.77379 0.36998,2.31839 1.54198,0.83049 3.58849,-1.47787 3.58849,-4.14754 0,-3.42879 -1.52842,-5.22467 -5.15338,-6.3065 z"
   id="path1108"
   style="fill:#00283c" />
	<rect
   x="71.428574"
   y="142.85715"
   class="st0"
   width="35.714291"
   height="35.714291"
   id="rect1110"
   style="fill:#00283c" />
	<rect
   x="35.714272"
   y="142.85713"
   class="st2"
   width="35.714298"
   height="35.714298"
   id="rect1112"
   style="fill:#003c5a" />
	<polygon
   class="st1"
   points="51.72766,158.79291 53.57142,154.87633 55.41518,158.79291 59.70982,159.33614 56.55468,162.29994 57.36516,166.55225 53.57142,164.46741 49.77769,166.55225 50.58816,162.29994 47.43303,159.33614 "
   id="polygon1114"
   style="fill:#003550" />
	<rect
   x="-9.9999997e-06"
   y="142.85715"
   class="st0"
   width="35.714291"
   height="35.714291"
   id="rect1116"
   style="fill:#00283c" />
	<rect
   x="464.28571"
   y="107.14285"
   class="st0"
   width="35.714291"
   height="35.714291"
   id="rect1118"
   style="fill:#00283c" />
	<rect
   x="428.57141"
   y="107.14285"
   class="st1"
   width="35.714291"
   height="35.714291"
   id="rect1120"
   style="fill:#003550" />
	<polygon
   class="st2"
   points="444.58481,123.07861 446.42856,119.16203 448.27231,123.07861 452.56696,123.62184 449.41183,126.58564 450.22229,130.83795 446.42856,128.75311 442.63483,130.83795 443.44531,126.58564 440.29016,123.62184 "
   id="polygon1122"
   style="fill:#003c5a" />
	<rect
   x="392.85715"
   y="107.14285"
   class="st0"
   width="35.714291"
   height="35.714291"
   id="rect1124"
   style="fill:#00283c" />
	<rect
   x="357.14285"
   y="107.14285"
   class="st1"
   width="35.714291"
   height="35.714291"
   id="rect1126"
   style="fill:#003550" />
	<polygon
   class="st2"
   points="373.15625,123.07861 375,119.16203 376.84375,123.07861 381.1384,123.62184 377.98325,126.58564 378.79373,130.83795 375,128.75311 371.20627,130.83795 372.01672,126.58564 368.8616,123.62184 "
   id="polygon1128"
   style="fill:#003c5a" />
	<rect
   x="321.42856"
   y="107.14285"
   class="st0"
   width="35.714291"
   height="35.714291"
   id="rect1130"
   style="fill:#00283c" />
	<rect
   x="285.71426"
   y="107.14285"
   class="st1"
   width="35.714291"
   height="35.714291"
   id="rect1132"
   style="fill:#003550" />
	<polygon
   class="st2"
   points="301.72766,123.07861 303.57141,119.16203 305.41519,123.07861 309.70981,123.62184 306.55469,126.58564 307.36514,130.83795 303.57141,128.75311 299.77768,130.83795 300.58817,126.58564 297.43301,123.62184 "
   id="polygon1134"
   style="fill:#003c5a" />
	<rect
   x="250"
   y="107.14285"
   class="st0"
   width="35.714291"
   height="35.714291"
   id="rect1136"
   style="fill:#00283c" />
	<rect
   x="214.28571"
   y="107.14285"
   class="st1"
   width="35.714291"
   height="35.714291"
   id="rect1138"
   style="fill:#003550" />
	<polygon
   class="st2"
   points="230.29909,123.07861 232.14285,119.16203 233.9866,123.07861 238.28125,123.62184 235.12611,126.58564 235.93658,130.83795 232.14285,128.75311 228.34912,130.83795 229.15959,126.58564 226.00446,123.62184 "
   id="polygon1140"
   style="fill:#003c5a" />
	<rect
   x="178.57143"
   y="107.14285"
   class="st0"
   width="35.714291"
   height="35.714291"
   id="rect1142"
   style="fill:#00283c" />
	<rect
   x="142.85713"
   y="107.14285"
   class="st1"
   width="35.714291"
   height="35.714291"
   id="rect1144"
   style="fill:#003550" />
	<polygon
   class="st2"
   points="158.87051,123.07861 160.71428,119.16203 162.55803,123.07861 166.85268,123.62184 163.69754,126.58564 164.50801,130.83795 160.71428,128.75311 156.92055,130.83795 157.73102,126.58564 154.57588,123.62184 "
   id="polygon1146"
   style="fill:#003c5a" />
	<rect
   x="107.14285"
   y="107.14285"
   class="st0"
   width="35.714291"
   height="35.714291"
   id="rect1148"
   style="fill:#00283c" />
	<rect
   x="71.428574"
   y="107.14285"
   class="st1"
   width="35.714291"
   height="35.714291"
   id="rect1150"
   style="fill:#003550" />
	<polygon
   class="st2"
   points="87.44195,123.07861 89.28571,119.16203 91.12946,123.07861 95.4241,123.62184 92.26897,126.58564 93.07944,130.83795 89.28571,128.75311 85.49197,130.83795 86.30244,126.58564 83.14732,123.62184 "
   id="polygon1152"
   style="fill:#003c5a" />
	<rect
   x="35.714279"
   y="107.14285"
   class="st0"
   width="35.714291"
   height="35.714291"
   id="rect1154"
   style="fill:#00283c" />
	<rect
   x="-9.9999997e-06"
   y="107.14285"
   class="st1"
   width="35.714291"
   height="35.714291"
   id="rect1156"
   style="fill:#003550" />
	<polygon
   class="st2"
   points="16.01338,123.07861 17.85714,119.16203 19.70089,123.07861 23.99553,123.62184 20.8404,126.58564 21.65087,130.83795 17.85714,128.75311 14.0634,130.83795 14.87387,126.58564 11.71874,123.62184 "
   id="polygon1158"
   style="fill:#003c5a" />
	<rect
   x="464.28571"
   y="71.428558"
   class="st2"
   width="35.714298"
   height="35.714298"
   id="rect1160"
   style="fill:#003c5a" />
	<path
   class="st0"
   d="m 489.03088,79.64847 c -1.8866,-0.56304 -3.77902,-1.49825 -3.77902,-2.30865 0,-1.43762 -0.67154,-2.02473 -2.19537,-2.02473 -1.5238,0 -2.19537,0.5871 -2.19537,2.02473 v 12.67656 c -5.12503,-0.2458 -10.75961,2.87737 -10.75961,7.70242 0,3.43137 2.58359,5.53751 6.57184,5.53751 5.07938,0 8.57846,-4.16496 8.57846,-6.83907 V 84.88422 c 3.01315,0 4.974,1.3785 4.974,2.89992 0,0.64675 -0.6412,1.77378 0.36996,2.31839 1.54199,0.83049 3.5885,-1.47788 3.5885,-4.14754 0,-3.4288 -1.52845,-5.22467 -5.15339,-6.30652 z"
   id="path1162"
   style="fill:#00283c" />
	<rect
   x="428.57141"
   y="71.428574"
   class="st0"
   width="35.714291"
   height="35.714291"
   id="rect1164"
   style="fill:#00283c" />
	<rect
   x="392.85715"
   y="71.428574"
   class="st2"
   width="35.714291"
   height="35.714291"
   id="rect1166"
   style="fill:#003c5a" />
	<polygon
   class="st1"
   points="408.87051,87.36432 410.71426,83.44775 412.55804,87.36432 416.85266,87.90755 413.69754,90.87136 414.50803,95.12366 410.71426,93.03883 406.92053,95.12366 407.73102,90.87136 404.5759,87.90755 "
   id="polygon1168"
   style="fill:#003550" />
	<rect
   x="357.14285"
   y="71.428574"
   class="st0"
   width="35.714291"
   height="35.714291"
   id="rect1170"
   style="fill:#00283c" />
	<rect
   x="321.42856"
   y="71.428558"
   class="st2"
   width="35.714298"
   height="35.714298"
   id="rect1172"
   style="fill:#003c5a" />
	<path
   class="st0"
   d="m 346.17374,79.64847 c -1.8866,-0.56304 -3.77902,-1.49825 -3.77902,-2.30865 0,-1.43762 -0.67154,-2.02473 -2.19537,-2.02473 -1.5238,0 -2.19537,0.5871 -2.19537,2.02473 v 12.67656 c -5.12503,-0.2458 -10.75961,2.87737 -10.75961,7.70242 0,3.43137 2.58359,5.53751 6.57184,5.53751 5.07938,0 8.57846,-4.16496 8.57846,-6.83907 V 84.88422 c 3.01315,0 4.97397,1.3785 4.97397,2.89992 0,0.64675 -0.64117,1.77378 0.37,2.31839 1.54196,0.83049 3.58847,-1.47788 3.58847,-4.14754 -2e-5,-3.4288 -1.52843,-5.22467 -5.15337,-6.30652 z"
   id="path1174"
   style="fill:#00283c" />
	<rect
   x="285.71426"
   y="71.428574"
   class="st0"
   width="35.714291"
   height="35.714291"
   id="rect1176"
   style="fill:#00283c" />
	<rect
   x="250"
   y="71.428574"
   class="st2"
   width="35.714291"
   height="35.714291"
   id="rect1178"
   style="fill:#003c5a" />
	<polygon
   class="st1"
   points="266.01337,87.36432 267.85715,83.44775 269.7009,87.36432 273.99551,87.90755 270.84039,90.87136 271.65088,95.12366 267.85715,93.03883 264.06342,95.12366 264.87387,90.87136 261.71875,87.90755 "
   id="polygon1180"
   style="fill:#003550" />
	<rect
   x="214.28571"
   y="71.428574"
   class="st0"
   width="35.714291"
   height="35.714291"
   id="rect1182"
   style="fill:#00283c" />
	<rect
   x="178.57143"
   y="71.428558"
   class="st3"
   width="35.714298"
   height="35.714298"
   id="rect1184"
   style="fill:#323232" />
	<path
   d="m 203.31659,79.64847 c -1.8866,-0.56304 -3.77902,-1.49825 -3.77902,-2.30865 0,-1.43762 -0.67154,-2.02473 -2.19534,-2.02473 -1.52382,0 -2.1954,0.5871 -2.1954,2.02473 v 12.67656 c -5.12502,-0.2458 -10.7596,2.87737 -10.7596,7.70242 0,3.43137 2.58359,5.53751 6.57184,5.53751 5.07938,0 8.57846,-4.16496 8.57846,-6.83907 V 84.88422 c 3.01314,0 4.97398,1.3785 4.97398,2.89992 0,0.64675 -0.6412,1.77378 0.36998,2.31839 1.54198,0.83049 3.58849,-1.47788 3.58849,-4.14754 -1e-5,-3.4288 -1.52844,-5.22467 -5.15339,-6.30652 z"
   id="path1186" />
	<rect
   x="178.57143"
   y="71.428558"
   class="st2"
   width="35.714298"
   height="35.714298"
   id="rect1188"
   style="fill:#003c5a" />
	<path
   class="st0"
   d="m 203.31659,79.64847 c -1.8866,-0.56304 -3.77902,-1.49825 -3.77902,-2.30865 0,-1.43762 -0.67154,-2.02473 -2.19534,-2.02473 -1.52382,0 -2.1954,0.5871 -2.1954,2.02473 v 12.67656 c -5.12502,-0.2458 -10.7596,2.87737 -10.7596,7.70242 0,3.43137 2.58359,5.53751 6.57184,5.53751 5.07938,0 8.57846,-4.16496 8.57846,-6.83907 V 84.88422 c 3.01314,0 4.97398,1.3785 4.97398,2.89992 0,0.64675 -0.6412,1.77378 0.36998,2.31839 1.54198,0.83049 3.58849,-1.47788 3.58849,-4.14754 -1e-5,-3.4288 -1.52844,-5.22467 -5.15339,-6.30652 z"
   id="path1190"
   style="fill:#00283c" />
	<rect
   x="142.85713"
   y="71.428574"
   class="st0"
   width="35.714291"
   height="35.714291"
   id="rect1192"
   style="fill:#00283c" />
	<rect
   x="107.14285"
   y="71.428574"
   class="st2"
   width="35.714291"
   height="35.714291"
   id="rect1194"
   style="fill:#003c5a" />
	<polygon
   class="st1"
   points="123.15623,87.36432 124.99999,83.44775 126.84375,87.36432 131.13838,87.90755 127.98325,90.87136 128.79373,95.12366 124.99999,93.03883 121.20626,95.12366 122.01673,90.87136 118.8616,87.90755 "
   id="polygon1196"
   style="fill:#003550" />
	<rect
   x="71.428574"
   y="71.428574"
   class="st0"
   width="35.714291"
   height="35.714291"
   id="rect1198"
   style="fill:#00283c" />
	<rect
   x="35.715321"
   y="71.428558"
   class="st2"
   width="35.714298"
   height="35.714298"
   id="rect1200"
   style="fill:#003c5a" />
	<path
   class="st0"
   d="m 60.46049,79.64847 c -1.8866,-0.56304 -3.77903,-1.49825 -3.77903,-2.30865 0,-1.43762 -0.67154,-2.02473 -2.19535,-2.02473 -1.52381,0 -2.19539,0.5871 -2.19539,2.02473 v 12.67656 c -5.12502,-0.2458 -10.7596,2.87737 -10.7596,7.70242 0,3.43137 2.58358,5.53751 6.57184,5.53751 5.07938,0 8.57846,-4.16496 8.57846,-6.83907 V 84.88422 c 3.01314,0 4.97398,1.3785 4.97398,2.89992 0,0.64675 -0.64119,1.77378 0.36998,2.31839 1.54198,0.83049 3.58849,-1.47788 3.58849,-4.14754 0,-3.4288 -1.52842,-5.22467 -5.15338,-6.30652 z"
   id="path1202"
   style="fill:#00283c" />
	<rect
   x="-9.9999997e-06"
   y="71.428574"
   class="st0"
   width="35.714291"
   height="35.714291"
   id="rect1204"
   style="fill:#00283c" />
	<rect
   x="464.28571"
   y="35.714279"
   class="st0"
   width="35.714291"
   height="35.714291"
   id="rect1206"
   style="fill:#00283c" />
	<rect
   x="428.57141"
   y="35.714279"
   class="st1"
   width="35.714291"
   height="35.714291"
   id="rect1208"
   style="fill:#003550" />
	<polygon
   class="st2"
   points="444.58481,51.65004 446.42856,47.73346 448.27231,51.65004 452.56696,52.19327 449.41183,55.15707 450.22229,59.40938 446.42856,57.32454 442.63483,59.40938 443.44531,55.15707 440.29016,52.19327 "
   id="polygon1210"
   style="fill:#003c5a" />
	<rect
   x="392.85715"
   y="35.714279"
   class="st0"
   width="35.714291"
   height="35.714291"
   id="rect1212"
   style="fill:#00283c" />
	<rect
   x="357.14285"
   y="35.714279"
   class="st1"
   width="35.714291"
   height="35.714291"
   id="rect1214"
   style="fill:#003550" />
	<polygon
   class="st2"
   points="373.15625,51.65004 375,47.73346 376.84375,51.65004 381.1384,52.19327 377.98325,55.15707 378.79373,59.40938 375,57.32454 371.20627,59.40938 372.01672,55.15707 368.8616,52.19327 "
   id="polygon1216"
   style="fill:#003c5a" />
	<rect
   x="321.42856"
   y="35.714279"
   class="st0"
   width="35.714291"
   height="35.714291"
   id="rect1218"
   style="fill:#00283c" />
	<rect
   x="285.71426"
   y="35.714279"
   class="st1"
   width="35.714291"
   height="35.714291"
   id="rect1220"
   style="fill:#003550" />
	<polygon
   class="st2"
   points="301.72766,51.65004 303.57141,47.73346 305.41519,51.65004 309.70981,52.19327 306.55469,55.15707 307.36514,59.40938 303.57141,57.32454 299.77768,59.40938 300.58817,55.15707 297.43301,52.19327 "
   id="polygon1222"
   style="fill:#003c5a" />
	<rect
   x="250"
   y="35.714279"
   class="st0"
   width="35.714291"
   height="35.714291"
   id="rect1224"
   style="fill:#00283c" />
	<rect
   x="214.28571"
   y="35.714279"
   class="st1"
   width="35.714291"
   height="35.714291"
   id="rect1226"
   style="fill:#003550" />
	<polygon
   class="st2"
   points="230.29909,51.65004 232.14285,47.73346 233.9866,51.65004 238.28125,52.19327 235.12611,55.15707 235.93658,59.40938 232.14285,57.32454 228.34912,59.40938 229.15959,55.15707 226.00446,52.19327 "
   id="polygon1228"
   style="fill:#003c5a" />
	<rect
   x="178.57143"
   y="35.714279"
   class="st0"
   width="35.714291"
   height="35.714291"
   id="rect1230"
   style="fill:#00283c" />
	<rect
   x="142.85713"
   y="35.714279"
   class="st1"
   width="35.714291"
   height="35.714291"
   id="rect1232"
   style="fill:#003550" />
	<polygon
   class="st2"
   points="158.87051,51.65004 160.71428,47.73346 162.55803,51.65004 166.85268,52.19327 163.69754,55.15707 164.50801,59.40938 160.71428,57.32454 156.92055,59.40938 157.73102,55.15707 154.57588,52.19327 "
   id="polygon1234"
   style="fill:#003c5a" />
	<rect
   x="107.14285"
   y="35.714279"
   class="st0"
   width="35.714291"
   height="35.714291"
   id="rect1236"
   style="fill:#00283c" />
	<rect
   x="71.428574"
   y="35.714279"
   class="st1"
   width="35.714291"
   height="35.714291"
   id="rect1238"
   style="fill:#003550" />
	<polygon
   class="st2"
   points="87.44195,51.65004 89.28571,47.73346 91.12946,51.65004 95.4241,52.19327 92.26897,55.15707 93.07944,59.40938 89.28571,57.32454 85.49197,59.40938 86.30244,55.15707 83.14732,52.19327 "
   id="polygon1240"
   style="fill:#003c5a" />
	<rect
   x="35.714279"
   y="35.714279"
   class="st0"
   width="35.714291"
   height="35.714291"
   id="rect1242"
   style="fill:#00283c" />
	<rect
   x="-9.9999997e-06"
   y="35.714279"
   class="st1"
   width="35.714291"
   height="35.714291"
   id="rect1244"
   style="fill:#003550" />
	<polygon
   class="st2"
   points="16.01338,51.65004 17.85714,47.73346 19.70089,51.65004 23.99553,52.19327 20.8404,55.15707 21.65087,59.40938 17.85714,57.32454 14.0634,59.40938 14.87387,55.15707 11.71874,52.19327 "
   id="polygon1246"
   style="fill:#003c5a" />
	<rect
   x="464.28571"
   y="-9.9999997e-06"
   class="st2"
   width="35.714291"
   height="35.714291"
   id="rect1248"
   style="fill:#003c5a" />
	<polygon
   class="st1"
   points="480.2991,15.93575 482.14285,12.01918 483.9866,15.93575 488.28125,16.47898 485.1261,19.44279 485.93658,23.6951 482.14285,21.61025 478.34912,23.6951 479.15958,19.44279 476.00446,16.47898 "
   id="polygon1250"
   style="fill:#003550" />
	<rect
   x="428.57141"
   y="-9.9999997e-06"
   class="st0"
   width="35.714291"
   height="35.714291"
   id="rect1252"
   style="fill:#00283c" />
	<rect
   x="392.85715"
   y="-9.9999997e-06"
   class="st2"
   width="35.714298"
   height="35.714298"
   id="rect1254"
   style="fill:#003c5a" />
	<path
   class="st0"
   d="m 417.60229,8.2199 c -1.8866,-0.56305 -3.77902,-1.49825 -3.77902,-2.30865 0,-1.43762 -0.67154,-2.02473 -2.19534,-2.02473 -1.5238,0 -2.1954,0.58711 -2.1954,2.02473 v 12.67656 c -5.125,-0.24581 -10.75958,2.87737 -10.75958,7.70242 0,3.43136 2.58359,5.53751 6.57184,5.53751 5.07938,0 8.57846,-4.16497 8.57846,-6.83907 V 13.45565 c 3.01312,0 4.97397,1.3785 4.97397,2.89991 0,0.64676 -0.64117,1.77378 0.37,2.31839 1.54196,0.83049 3.58847,-1.47788 3.58847,-4.14754 -1e-5,-3.42879 -1.52843,-5.22466 -5.1534,-6.30651 z"
   id="path1256"
   style="fill:#00283c" />
	<rect
   x="357.14285"
   y="-9.9999997e-06"
   class="st0"
   width="35.714291"
   height="35.714291"
   id="rect1258"
   style="fill:#00283c" />
	<rect
   x="321.42856"
   y="-9.9999997e-06"
   class="st2"
   width="35.714291"
   height="35.714291"
   id="rect1260"
   style="fill:#003c5a" />
	<polygon
   class="st1"
   points="337.44196,15.93575 339.28571,12.01918 341.12946,15.93575 345.4241,16.47898 342.26898,19.44279 343.07944,23.6951 339.28571,21.61025 335.49197,23.6951 336.30246,19.44279 333.14731,16.47898 "
   id="polygon1262"
   style="fill:#003550" />
	<rect
   x="285.71426"
   y="-9.9999997e-06"
   class="st0"
   width="35.714291"
   height="35.714291"
   id="rect1264"
   style="fill:#00283c" />
	<rect
   x="249.99998"
   y="-9.9999997e-06"
   class="st2"
   width="35.714298"
   height="35.714298"
   id="rect1266"
   style="fill:#003c5a" />
	<path
   class="st0"
   d="m 274.74515,8.2199 c -1.8866,-0.56305 -3.77902,-1.49825 -3.77902,-2.30865 0,-1.43762 -0.67154,-2.02473 -2.19534,-2.02473 -1.5238,0 -2.1954,0.58711 -2.1954,2.02473 v 12.67656 c -5.125,-0.24581 -10.75958,2.87737 -10.75958,7.70242 0,3.43136 2.58359,5.53751 6.57184,5.53751 5.07938,0 8.57846,-4.16497 8.57846,-6.83907 V 13.45565 c 3.01312,0 4.97397,1.3785 4.97397,2.89991 0,0.64676 -0.6412,1.77378 0.37,2.31839 1.54196,0.83049 3.58847,-1.47788 3.58847,-4.14754 -2e-5,-3.42879 -1.52843,-5.22466 -5.1534,-6.30651 z"
   id="path1268"
   style="fill:#00283c" />
	<rect
   x="214.28571"
   y="-9.9999997e-06"
   class="st0"
   width="35.714291"
   height="35.714291"
   id="rect1270"
   style="fill:#00283c" />
	<rect
   x="178.57143"
   y="-9.9999997e-06"
   class="st2"
   width="35.714291"
   height="35.714291"
   id="rect1272"
   style="fill:#003c5a" />
	<polygon
   class="st1"
   points="194.58481,15.93575 196.42856,12.01918 198.27232,15.93575 202.56696,16.47898 199.41182,19.44279 200.22231,23.6951 196.42856,21.61025 192.63483,23.6951 193.4453,19.44279 190.29018,16.47898 "
   id="polygon1274"
   style="fill:#003550" />
	<rect
   x="142.85713"
   y="-9.9999997e-06"
   class="st0"
   width="35.714291"
   height="35.714291"
   id="rect1276"
   style="fill:#00283c" />
	<rect
   x="107.14495"
   y="-9.9999997e-06"
   class="st2"
   width="35.714298"
   height="35.714298"
   id="rect1278"
   style="fill:#003c5a" />
	<path
   class="st0"
   d="m 131.89012,8.2199 c -1.8866,-0.56305 -3.77902,-1.49825 -3.77902,-2.30865 0,-1.43762 -0.67154,-2.02473 -2.19535,-2.02473 -1.52381,0 -2.1954,0.58711 -2.1954,2.02473 v 12.67656 c -5.12501,-0.24581 -10.75959,2.87737 -10.75959,7.70242 0,3.43136 2.58358,5.53751 6.57183,5.53751 5.07938,0 8.57846,-4.16497 8.57846,-6.83907 V 13.45565 c 3.01314,0 4.97398,1.3785 4.97398,2.89991 0,0.64676 -0.6412,1.77378 0.36998,2.31839 1.54198,0.83049 3.58849,-1.47788 3.58849,-4.14754 0,-3.42879 -1.52842,-5.22466 -5.15338,-6.30651 z"
   id="path1280"
   style="fill:#00283c" />
	<rect
   x="71.428574"
   y="-9.9999997e-06"
   class="st0"
   width="35.714291"
   height="35.714291"
   id="rect1282"
   style="fill:#00283c" />
	<rect
   x="35.714272"
   y="-9.9999997e-06"
   class="st2"
   width="35.714298"
   height="35.714298"
   id="rect1284"
   style="fill:#003c5a" />
	<polygon
   class="st1"
   points="51.72766,15.93575 53.57142,12.01918 55.41518,15.93575 59.70982,16.47898 56.55468,19.44279 57.36516,23.6951 53.57142,21.61025 49.77769,23.6951 50.58816,19.44279 47.43303,16.47898 "
   id="polygon1286"
   style="fill:#003550" />
	<rect
   x="-9.9999997e-06"
   y="-9.9999997e-06"
   class="st0"
   width="35.714291"
   height="35.714291"
   id="rect1288"
   style="fill:#00283c" />
	<linearGradient
   id="linearGradient7278"
   gradientUnits="userSpaceOnUse"
   x1="250"
   y1="500"
   x2="250"
   y2="-2.407432e-09">
		<stop
   offset="0"
   style="stop-color:#000000;stop-opacity:0.75"
   id="stop7274" />
		<stop
   offset="0.75"
   style="stop-color:#000000;stop-opacity:0"
   id="stop7276" />
	</linearGradient>
	<rect
   x="9.9999997e-06"
   y="0"
   class="st4"
   width="500"
   height="500"
   id="rect1295"
   style="display:inline;fill:url(#SVGID_1_-3)" />
</g><g
   id="Rhythm_World_Wiki__x28_리듬_세상__xFF37__xFF29__xFF2B__xFF29__x29_"
   transform="scale(1.3333334)">
	<g
   id="Cloud">
		<linearGradient
   id="Spectrum_2_"
   gradientUnits="userSpaceOnUse"
   x1="368.10367"
   y1="305.94077"
   x2="52.870159"
   y2="191.20514">
			<stop
   offset="0"
   style="stop-color:#FF0000"
   id="stop2817" />
			<stop
   offset="0.02547"
   style="stop-color:#FF0900"
   id="stop2819" />
			<stop
   offset="0.06704"
   style="stop-color:#FF2100"
   id="stop2821" />
			<stop
   offset="0.11955"
   style="stop-color:#FF4900"
   id="stop2823" />
			<stop
   offset="0.18093"
   style="stop-color:#FF8000"
   id="stop2825" />
			<stop
   offset="0.24895"
   style="stop-color:#FFC600"
   id="stop2827" />
			<stop
   offset="0.3"
   style="stop-color:#FFFF00"
   id="stop2829" />
			<stop
   offset="0.30991"
   style="stop-color:#F1FD00"
   id="stop2831" />
			<stop
   offset="0.36189"
   style="stop-color:#ABF502"
   id="stop2833" />
			<stop
   offset="0.40873"
   style="stop-color:#74EF04"
   id="stop2835" />
			<stop
   offset="0.44882"
   style="stop-color:#4CEA05"
   id="stop2837" />
			<stop
   offset="0.48056"
   style="stop-color:#34E706"
   id="stop2839" />
			<stop
   offset="0.5"
   style="stop-color:#2BE606"
   id="stop2841" />
			<stop
   offset="0.65"
   style="stop-color:#03B3F4"
   id="stop2843" />
			<stop
   offset="0.68043"
   style="stop-color:#03B0F4"
   id="stop2845" />
			<stop
   offset="0.70487"
   style="stop-color:#03A6F5"
   id="stop2847" />
			<stop
   offset="0.72724"
   style="stop-color:#0395F6"
   id="stop2849" />
			<stop
   offset="0.74837"
   style="stop-color:#027DF8"
   id="stop2851" />
			<stop
   offset="0.76864"
   style="stop-color:#025EFA"
   id="stop2853" />
			<stop
   offset="0.78797"
   style="stop-color:#0139FC"
   id="stop2855" />
			<stop
   offset="0.8"
   style="stop-color:#011EFE"
   id="stop2857" />
			<stop
   offset="0.81587"
   style="stop-color:#1B1AFE"
   id="stop2859" />
			<stop
   offset="0.84709"
   style="stop-color:#4812FD"
   id="stop2861" />
			<stop
   offset="0.87851"
   style="stop-color:#6E0CFD"
   id="stop2863" />
			<stop
   offset="0.90965"
   style="stop-color:#8B07FC"
   id="stop2865" />
			<stop
   offset="0.94046"
   style="stop-color:#9F04FC"
   id="stop2867" />
			<stop
   offset="0.97077"
   style="stop-color:#AC02FC"
   id="stop2869" />
			<stop
   offset="1"
   style="stop-color:#B001FC"
   id="stop2871" />
		</linearGradient>
		<path
   id="Spectrum_1_"
   class="st4"
   d="m 327.59991,141.95677 c -26.21225,0 -50.0889,14.69691 -62.13184,37.04074 -3.37079,-0.44366 -6.77356,-0.66682 -10.19231,-0.66682 -11.39674,0 -22.49638,2.45415 -32.67137,7.16927 -12.59052,-10.71793 -28.61844,-16.68542 -45.52303,-16.68542 -25.99242,0 -49.65724,14.52638 -61.71748,36.65837 -4.23814,-0.70547 -8.54156,-1.06055 -12.88762,-1.06055 C 59.7558,204.41235 25,238.87172 25,281.22778 c 0,42.35606 34.7558,76.81546 77.47627,76.81546 32.91252,0 61.47099,-20.2674 72.56796,-49.84445 7.22656,0.20786 14.31589,-0.6655 21.11742,-2.58203 14.61832,17.04913 36.29932,27.2468 59.11412,27.2468 33.58269,0 62.44893,-20.94757 73.17418,-51.4379 38.40839,-0.45367 69.51428,-31.56023 69.51428,-69.73212 0,-38.45302 -31.56555,-69.73677 -70.36432,-69.73677 z"
   style="fill:url(#Spectrum_2_)" />
		<path
   id="White_1_"
   class="st5"
   d="m 327.59991,150.14259 c -25.177,0 -47.91187,15.32179 -57.43402,37.97804 -4.88034,-1.06586 -9.86591,-1.60413 -14.89012,-1.60413 -12.0256,0 -23.67949,3.05171 -34.04102,8.87332 -11.61125,-11.75447 -27.39268,-18.38948 -44.15338,-18.38948 -25.03047,0 -47.61745,15.23918 -57.1396,37.80084 -5.67972,-1.46356 -11.52998,-2.203 -17.4655,-2.203 -38.20721,0 -69.29044,30.78679 -69.29044,68.62959 0,37.8428 31.08324,68.62961 69.29044,68.62961 31.53622,0 58.60117,-20.78366 66.78166,-50.30942 2.59804,0.3291 5.21341,0.49496 7.82344,0.49496 7.59827,0 14.95673,-1.33698 21.94745,-3.98233 12.96756,17.78659 34.00504,28.61777 56.24695,28.61777 32.07848,0 59.34593,-21.35455 67.1787,-51.64706 1.71738,0.14255 3.43607,0.21384 5.14545,0.21384 34.28482,0 62.17847,-27.61186 62.17847,-61.55161 -10e-6,-33.93907 -27.89365,-61.55094 -62.17848,-61.55094 z" />
		<path
   id="Black_1_"
   d="m 327.59952,156.96387 c -25.17703,0 -46.41403,16.62282 -53.13162,39.36867 -6.04938,-1.93729 -12.49551,-2.99466 -19.19246,-2.99466 -13.09805,0 -25.25156,4.0088 -35.30156,10.85132 -10.1028,-12.41814 -25.55899,-20.36748 -42.89259,-20.36748 -25.09517,0 -46.25804,16.65385 -52.91895,39.42928 -6.75599,-2.47488 -14.0604,-3.83136 -21.68615,-3.83136 -34.5005,0 -62.46875,27.67247 -62.46875,61.80824 0,34.13568 27.96825,61.80817 62.46875,61.80817 30.90253,0 56.54737,-22.20718 61.56376,-51.36877 4.18253,1.00766 8.54657,1.55441 13.04134,1.55441 8.79071,0 17.09471,-2.05304 24.4684,-5.6864 10.93301,18.16034 30.89871,30.32156 53.72575,30.32156 31.20357,0 57.06615,-22.7182 61.80367,-52.43271 3.40735,0.64835 6.92169,0.99957 10.52042,0.99957 30.57336,0 55.35794,-24.50337 55.35794,-54.72992 -10e-6,-30.22647 -24.78459,-54.72992 -55.35795,-54.72992 z" />
		<rect
   x="323.02579"
   y="257.17093"
   width="35.36409"
   height="11.60259"
   id="rect2877" />
	</g>
	<g
   id="Wiki_00000126313517740190795660000005953169726056141237_">
		<path
   d="m 475,246.84189 c 0,-4.03336 -1.69159,-7.79182 -4.64127,-10.31113 -2.9761,-2.54178 -7.00684,-3.63116 -11.04633,-2.9911 -4.52234,0.71628 -8.46143,3.46025 -10.90891,7.17467 -0.24405,-0.24405 -0.49869,-0.47928 -0.76212,-0.70438 -2.90033,-2.47746 -6.74161,-3.55275 -10.53268,-2.95366 -4.59457,0.72774 -8.34424,3.66728 -11.12653,8.70589 l -2.87039,5.13289 c -0.30573,-1.04932 -0.73215,-2.05809 -1.32153,-3.08757 -2.67746,-4.63422 -7.83676,-7.08568 -13.14761,-6.24254 -3.61661,0.5731 -6.94162,2.5616 -9.28693,5.47296 -2.87921,-2.09818 -6.56631,-2.96202 -10.2684,-2.3757 -3.92056,0.62112 -7.4024,2.76643 -9.85342,5.74652 -1.66956,-1.18279 -3.63953,-1.96558 -5.80069,-2.28011 -8.56891,-1.25151 -15.31317,3.25452 -17.58093,11.75644 l -0.52686,1.97617 c -2.40698,-5.72275 -7.99976,-9.15787 -14.34494,-8.79312 -6.44736,0.37576 -11.65247,4.57916 -13.26123,10.70892 l -0.83609,3.18448 c -1.48279,-3.58667 -4.2316,-6.37866 -7.79446,-7.89975 -3.68359,-1.57263 -7.86496,-1.57486 -11.47278,-0.005 -7.50107,3.26376 -11.0014,11.32385 -8.1416,18.74875 l 15.66382,40.66302 c 2.77612,7.20767 8.64554,9.67105 13.63483,9.67017 0.79733,0 1.57263,-0.0626 2.30829,-0.17886 9.23495,-1.46249 12.01196,-8.29489 13.29651,-13.30661 l 0.11188,-0.43698 c 2.97699,7.5535 9.65521,10.09702 14.95459,9.25037 6.85001,-1.08456 11.27454,-5.29105 13.15201,-12.50314 l 4.23688,-16.28275 v 11.44327 c 0,3.69678 1.55588,7.14645 4.26944,9.46402 2.73474,2.33603 6.42535,3.33954 10.12833,2.75232 3.76022,-0.59558 7.07468,-2.74219 9.30542,-5.69675 2.75497,2.23694 6.39893,3.20786 10.24991,2.59949 4.36285,-0.69116 8.383,-3.55273 10.77234,-7.68698 1.52155,-2.66687 2.15851,-5.25446 2.2713,-9.47986 l 5.90289,7.22971 c 3.38403,4.13159 7.3284,5.77426 12.07977,5.02319 3.78668,-0.59955 7.15134,-2.78448 9.52924,-5.85092 2.73294,2.32681 6.42093,3.32458 10.11243,2.74002 6.87204,-1.08807 12.25513,-7.35617 12.25513,-14.26917 V 263.9365 c 0,-2.65411 -0.80173,-5.18045 -2.25809,-7.2522 2.21315,-2.766 3.54878,-6.22403 3.54878,-9.84241 z"
   id="path2880" />
		
			<linearGradient
   id="SVGID_2_"
   gradientUnits="userSpaceOnUse"
   x1="386.73743"
   y1="289.44812"
   x2="386.73743"
   y2="229.20096"
   gradientTransform="matrix(1,-0.15838,0,1,0,84.01804)">
			<stop
   offset="0.2"
   style="stop-color:#F8EC19"
   id="stop2882" />
			<stop
   offset="0.6"
   style="stop-color:#F15A2B"
   id="stop2884" />
		</linearGradient>
		<path
   class="st6"
   d="m 377.55643,264.71082 -11.58588,44.52917 c -0.90524,3.47919 -2.50626,6.65909 -7.5965,7.4653 -2.64227,0.41849 -5.93942,-0.95517 -7.53098,-5.04102 l -7.7009,-19.76956 -5.3963,21.0593 c -1.23093,4.8038 -3.11334,7.51157 -7.73581,8.24368 -2.37173,0.37564 -6.50528,-0.055 -8.48334,-5.18994 L 305.86295,275.345 c -1.50076,-3.89597 0.1514,-8.12555 4.4841,-10.01083 3.77762,-1.64371 8.68549,0.0899 10.33145,4.55508 l 7.30954,19.8295 6.35284,-24.20364 c 1.85818,-7.0795 12.08408,-7.62421 14.75336,-0.80447 l 7.46649,19.07599 5.90622,-22.13675 c 1.11115,-4.16458 3.96255,-7.62358 9.97916,-6.74715 4.94186,0.71987 6.20858,5.58705 5.11032,9.80809 z m 19.08343,39.36068 v -29.01282 c 0,-3.57928 -2.90182,-6.02084 -6.48047,-5.45404 -3.57861,0.5668 -6.48044,3.92755 -6.48044,7.50687 v 29.01279 c 0,3.57932 2.90182,6.02151 6.48044,5.45471 3.57865,-0.5668 6.48047,-3.92822 6.48047,-7.50751 z m 1.29044,-46.10714 c 0,4.29199 -3.47934,8.32242 -7.77133,9.0022 -4.29199,0.67978 -7.77133,-2.24847 -7.77133,-6.54047 0,-4.292 3.47934,-8.3224 7.77133,-9.0022 4.29199,-0.67978 7.77133,2.24849 7.77133,6.54047 z m 19.07193,20.92691 18.02698,22.07748 c 2.10776,2.57352 3.80884,2.90033 5.71277,2.59879 4.06506,-0.64386 7.37289,-4.94089 7.37289,-9.57883 0,-1.53201 -0.33621,-2.77838 -2.10681,-4.97479 l -12.27515,-15.04126 10.51883,-18.33528 c 0.95532,-1.63141 1.39438,-3.14201 1.39438,-4.77879 0,-4.45744 -3.41928,-7.68138 -7.46716,-7.04027 -1.55441,0.2462 -3.8898,1.06183 -6.22141,5.28473 L 417.00223,275.852 v -17.95361 c 0,-3.99838 -0.35144,-5.28806 -1.13913,-6.6653 -1.26581,-2.1897 -3.62311,-3.30643 -6.14804,-2.90652 -2.41541,0.38257 -4.61176,1.97766 -5.87469,4.26736 l -0.06,0.10237 c -1.04865,1.73619 -1.35248,3.42108 -1.35248,7.51044 v 38.71078 c 0,4.12457 0.27905,5.36667 1.06293,6.79736 1.23438,2.13943 3.56787,3.18756 6.22424,2.76685 2.30969,-0.36584 4.56982,-2.02057 5.89755,-4.31766 0.93912,-1.64648 1.38962,-3.20316 1.38962,-7.5549 z m 49.86157,14.05786 v -29.01282 c 0,-3.57928 -2.90182,-6.02084 -6.48047,-5.45404 -3.57861,0.5668 -6.48044,3.92755 -6.48044,7.50687 v 29.01279 c 0,3.57932 2.90182,6.02151 6.48044,5.45471 3.57865,-0.56681 6.48047,-3.92823 6.48047,-7.50751 z m 1.29044,-46.10713 c 0,4.29198 -3.47937,8.3224 -7.77133,9.00218 -4.29199,0.67978 -7.77133,-2.24849 -7.77133,-6.54047 0,-4.29199 3.47934,-8.3224 7.77133,-9.0022 4.29196,-0.67978 7.77133,2.24849 7.77133,6.54049 z"
   id="path2887"
   style="fill:url(#SVGID_2_)" />
		<g
   id="g3023">
			<circle
   class="st5"
   cx="308.71689"
   cy="272.39777"
   r="1.53484"
   id="circle2889" />
			<circle
   class="st5"
   cx="338.50711"
   cy="264.57581"
   r="1.53484"
   id="circle2891" />
			<circle
   class="st5"
   cx="367.2616"
   cy="259.09702"
   r="1.53484"
   id="circle2893" />
			
				<linearGradient
   id="SVGID_3_"
   gradientUnits="userSpaceOnUse"
   x1="310.1738"
   y1="270.19568"
   x2="327.21347"
   y2="314.5856"
   gradientTransform="translate(0,4.03391)">
				<stop
   offset="0"
   style="stop-color:#FFFFFF"
   id="stop2895" />
				<stop
   offset="0.21678"
   style="stop-color:#FFFFFC"
   id="stop2897" />
				<stop
   offset="0.39094"
   style="stop-color:#FFFEF2"
   id="stop2899" />
				<stop
   offset="0.55028"
   style="stop-color:#FEFCE1"
   id="stop2901" />
				<stop
   offset="0.70081"
   style="stop-color:#FEFAC9"
   id="stop2903" />
				<stop
   offset="0.84512"
   style="stop-color:#FDF7AA"
   id="stop2905" />
				<stop
   offset="0.98295"
   style="stop-color:#FCF385"
   id="stop2907" />
				<stop
   offset="1"
   style="stop-color:#FCF380"
   id="stop2909" />
			</linearGradient>
			<path
   class="st7"
   d="m 327.15756,318.53177 c -0.22385,0 -0.45032,-0.0493 -0.66617,-0.15323 -0.65817,-0.31775 -2.40753,-1.16245 -17.61871,-42.02234 -0.29578,-0.79474 0.10925,-1.67807 0.90332,-1.97385 0.79407,-0.29443 1.6774,0.10794 1.97452,0.90265 5.4039,14.51642 14.55969,38.18256 16.349,40.49817 0.56091,0.43365 0.76208,1.21573 0.44101,1.88058 -0.26383,0.54826 -0.81275,0.86802 -1.38297,0.86802 z"
   id="path2912"
   style="fill:url(#SVGID_3_)" />
			
				<linearGradient
   id="SVGID_4_"
   gradientUnits="userSpaceOnUse"
   x1="345.6254"
   y1="282.88104"
   x2="356.0462"
   y2="310.0282"
   gradientTransform="translate(0,4.03391)">
				<stop
   offset="0"
   style="stop-color:#FFFFFF"
   id="stop2914" />
				<stop
   offset="0.21678"
   style="stop-color:#FFFFFC"
   id="stop2916" />
				<stop
   offset="0.39094"
   style="stop-color:#FFFEF2"
   id="stop2918" />
				<stop
   offset="0.55028"
   style="stop-color:#FEFCE1"
   id="stop2920" />
				<stop
   offset="0.70081"
   style="stop-color:#FEFAC9"
   id="stop2922" />
				<stop
   offset="0.84512"
   style="stop-color:#FDF7AA"
   id="stop2924" />
				<stop
   offset="0.98295"
   style="stop-color:#FCF385"
   id="stop2926" />
				<stop
   offset="1"
   style="stop-color:#FCF380"
   id="stop2928" />
			</linearGradient>
			<path
   class="st8"
   d="m 355.92389,313.99985 c -0.22385,0 -0.45035,-0.0493 -0.66617,-0.15323 -0.59824,-0.28912 -2.42218,-1.16913 -10.77856,-24.89389 -0.2811,-0.79941 0.13858,-1.67542 0.93799,-1.95721 0.80206,-0.28046 1.6774,0.13858 1.9585,0.93796 3.64661,10.35489 8.12988,21.79626 9.40494,23.25647 0.62619,0.41904 0.86334,1.24442 0.52625,1.94189 -0.26381,0.54824 -0.81273,0.86801 -1.38295,0.86801 z"
   id="path2931"
   style="fill:url(#SVGID_4_)" />
			<path
   class="st5"
   d="m 331.64084,292.02441 c -0.1319,0 -0.26514,-0.0173 -0.39835,-0.0533 -0.8194,-0.21915 -1.30435,-1.06052 -1.08585,-1.87924 l 6.01678,-22.45441 c 0.21985,-0.8194 1.0632,-1.30368 1.87991,-1.08517 0.8194,0.21915 1.30435,1.06052 1.08585,1.87924 l -6.01678,22.45441 c -0.18386,0.68615 -0.80474,1.13848 -1.48156,1.13848 z"
   id="path2933" />
			<path
   class="st5"
   d="m 360.12872,287.3226 c -0.13193,0 -0.26514,-0.0173 -0.39838,-0.0533 -0.8194,-0.21918 -1.30435,-1.06055 -1.08585,-1.87924 l 6.24463,-23.30243 c 0.21982,-0.8194 1.06451,-1.30435 1.87991,-1.08521 0.81937,0.21918 1.30435,1.06055 1.08585,1.87927 l -6.24463,23.30243 c -0.18386,0.68616 -0.80471,1.13846 -1.48153,1.13846 z"
   id="path2935" />
			<path
   class="st5"
   d="m 390.57242,253.1963 c -1.76797,0 -3.34512,1.15038 -4.41257,2.21783 -1.6506,1.65059 -1.72055,4.59251 -1.62375,5.58803 0.10239,1.05325 0.77631,1.54974 1.62366,1.54974 0.84735,0 1.52551,-0.43796 1.52551,-1.82129 0,-0.67618 -0.0458,-2.34766 0.94678,-3.38553 0.44766,-0.46832 1.14102,-1.0791 1.94037,-1.0791 0.84738,0 1.53485,-0.68748 1.53485,-1.53485 0,-0.84734 -0.68747,-1.53483 -1.53485,-1.53483 z"
   id="path2937" />
			
				<linearGradient
   id="SVGID_5_"
   gradientUnits="userSpaceOnUse"
   x1="387.39371"
   y1="273.23093"
   x2="387.39371"
   y2="305.54855"
   gradientTransform="translate(0,4.03391)">
				<stop
   offset="0"
   style="stop-color:#FFFFFF"
   id="stop2939" />
				<stop
   offset="0.21678"
   style="stop-color:#FFFFFC"
   id="stop2941" />
				<stop
   offset="0.39094"
   style="stop-color:#FFFEF2"
   id="stop2943" />
				<stop
   offset="0.55028"
   style="stop-color:#FEFCE1"
   id="stop2945" />
				<stop
   offset="0.70081"
   style="stop-color:#FEFAC9"
   id="stop2947" />
				<stop
   offset="0.84512"
   style="stop-color:#FDF7AA"
   id="stop2949" />
				<stop
   offset="0.98295"
   style="stop-color:#FCF385"
   id="stop2951" />
				<stop
   offset="1"
   style="stop-color:#FCF380"
   id="stop2953" />
			</linearGradient>
			<path
   class="st9"
   d="m 388.68451,306.71063 c -0.0533,-0.054 -0.29309,-0.33441 -0.29309,-1.11249 v -26.79846 c 0,-0.84738 -0.6875,-1.53485 -1.53485,-1.53485 -0.84735,0 -1.53485,0.68747 -1.53485,1.53485 v 26.79846 c 0,2.85052 1.76266,3.7485 1.96387,3.84177 0.20917,0.0966 0.42767,0.14255 0.64349,0.14255 0.57956,0 1.13516,-0.33041 1.39362,-0.89066 0.33975,-0.73144 0.0533,-1.5928 -0.63819,-1.98117 z"
   id="path2956"
   style="fill:url(#SVGID_5_)" />
			<linearGradient
   id="SVGID_6_"
   gradientUnits="userSpaceOnUse"
   x1="406.59833"
   y1="256.13632"
   x2="406.59833"
   y2="306.52042">
				<stop
   offset="0"
   style="stop-color:#FFFFFF"
   id="stop2958" />
				<stop
   offset="0.21678"
   style="stop-color:#FFFFFC"
   id="stop2960" />
				<stop
   offset="0.39094"
   style="stop-color:#FFFEF2"
   id="stop2962" />
				<stop
   offset="0.55028"
   style="stop-color:#FEFCE1"
   id="stop2964" />
				<stop
   offset="0.70081"
   style="stop-color:#FEFAC9"
   id="stop2966" />
				<stop
   offset="0.84512"
   style="stop-color:#FDF7AA"
   id="stop2968" />
				<stop
   offset="0.98295"
   style="stop-color:#FCF385"
   id="stop2970" />
				<stop
   offset="1"
   style="stop-color:#FCF380"
   id="stop2972" />
			</linearGradient>
			<path
   class="st10"
   d="m 408.30316,303.71643 c 0,-4.3e-4 -0.0686,-0.0602 -0.0695,-0.0606 -0.67035,-0.58032 -0.6962,-0.60306 -0.6962,-2.52228 v -43.39978 c 0,-0.88208 -0.71494,-1.59744 -1.59744,-1.59744 -0.8825,0 -1.59741,0.71536 -1.59741,1.59744 v 42.48697 c 0,2.95816 0.45105,4.68262 1.86752,5.90878 0.30219,0.26251 0.6748,0.3909 1.04562,0.3909 0.44751,0 0.89142,-0.18631 1.20789,-0.55048 0.57764,-0.66631 0.50632,-1.6754 -0.16046,-2.2535 z"
   id="path2975"
   style="fill:url(#SVGID_6_)" />
			<path
   class="st5"
   d="m 423.44257,273.72589 c -0.26566,0 -0.53397,-0.0664 -0.78177,-0.2059 -0.76932,-0.43323 -1.0412,-1.4071 -0.60797,-2.17596 l 11.78372,-20.91945 c 0.43234,-0.76796 1.40756,-1.03984 2.17508,-0.60796 0.76929,0.43323 1.04117,1.4071 0.60794,2.17596 l -11.78372,20.91946 c -0.29328,0.52058 -0.83527,0.81385 -1.39328,0.81385 z"
   id="path2977" />
			<linearGradient
   id="SVGID_7_"
   gradientUnits="userSpaceOnUse"
   x1="427.81882"
   y1="279.55679"
   x2="438.483"
   y2="302.42621">
				<stop
   offset="0"
   style="stop-color:#FFFFFF"
   id="stop2979" />
				<stop
   offset="0.21678"
   style="stop-color:#FFFFFC"
   id="stop2981" />
				<stop
   offset="0.39094"
   style="stop-color:#FFFEF2"
   id="stop2983" />
				<stop
   offset="0.55028"
   style="stop-color:#FEFCE1"
   id="stop2985" />
				<stop
   offset="0.70081"
   style="stop-color:#FEFAC9"
   id="stop2987" />
				<stop
   offset="0.84512"
   style="stop-color:#FDF7AA"
   id="stop2989" />
				<stop
   offset="0.98295"
   style="stop-color:#FCF385"
   id="stop2991" />
				<stop
   offset="1"
   style="stop-color:#FCF380"
   id="stop2993" />
			</linearGradient>
			<path
   class="st11"
   d="m 440.71475,301.22128 c -0.0838,0 -0.16937,-0.007 -0.25494,-0.0205 -1.37991,-0.22195 -1.87286,-0.63425 -2.9292,-1.75519 -0.0259,-0.0268 -0.0499,-0.0544 -0.0731,-0.0829 l -13.10388,-15.99078 c -0.55893,-0.68237 -0.45911,-1.68924 0.22284,-2.24817 0.68195,-0.55801 1.68924,-0.45996 2.24817,0.22287 l 13.06915,15.948 c 0.6427,0.68237 0.65073,0.68372 1.07236,0.75146 0.87094,0.13995 1.46371,0.95959 1.32376,1.83096 -0.12567,0.78493 -0.80405,1.34428 -1.57514,1.34428 z"
   id="path2996"
   style="fill:url(#SVGID_7_)" />
			<circle
   class="st5"
   cx="406.59833"
   cy="254.09489"
   r="1.53484"
   id="circle2998" />
			<circle
   class="st5"
   cx="437.02533"
   cy="248.01706"
   r="1.53484"
   id="circle3000" />
			<path
   class="st5"
   d="m 460.79395,242.07393 c -1.76801,0 -3.34515,1.15038 -4.4126,2.21782 -1.65057,1.65059 -1.72052,4.59253 -1.62375,5.58806 0.10242,1.05324 0.77631,1.54973 1.62366,1.54973 0.84738,0 1.52554,-0.43797 1.52554,-1.82129 0,-0.67618 -0.0458,-2.34764 0.94678,-3.38553 0.44766,-0.46832 1.14102,-1.0791 1.94037,-1.0791 0.84735,0 1.53485,-0.68748 1.53485,-1.53485 0,-0.84736 -0.6875,-1.53484 -1.53485,-1.53484 z"
   id="path3002" />
			
				<linearGradient
   id="SVGID_8_"
   gradientUnits="userSpaceOnUse"
   x1="457.61765"
   y1="262.10855"
   x2="457.61765"
   y2="294.42618"
   gradientTransform="translate(0,4.03391)">
				<stop
   offset="0"
   style="stop-color:#FFFFFF"
   id="stop3004" />
				<stop
   offset="0.21678"
   style="stop-color:#FFFFFC"
   id="stop3006" />
				<stop
   offset="0.39094"
   style="stop-color:#FFFEF2"
   id="stop3008" />
				<stop
   offset="0.55028"
   style="stop-color:#FEFCE1"
   id="stop3010" />
				<stop
   offset="0.70081"
   style="stop-color:#FEFAC9"
   id="stop3012" />
				<stop
   offset="0.84512"
   style="stop-color:#FDF7AA"
   id="stop3014" />
				<stop
   offset="0.98295"
   style="stop-color:#FCF385"
   id="stop3016" />
				<stop
   offset="1"
   style="stop-color:#FCF380"
   id="stop3018" />
			</linearGradient>
			<path
   class="st12"
   d="m 458.90845,295.58826 c -0.0533,-0.054 -0.29309,-0.33441 -0.29309,-1.11249 v -26.79846 c 0,-0.84738 -0.6875,-1.53485 -1.53485,-1.53485 -0.84738,0 -1.53485,0.68747 -1.53485,1.53485 v 26.79846 c 0,2.85052 1.76266,3.7485 1.96387,3.84177 0.20917,0.0966 0.42767,0.14255 0.64349,0.14255 0.57956,0 1.13516,-0.33041 1.39362,-0.89066 0.33974,-0.73145 0.0533,-1.59281 -0.63819,-1.98117 z"
   id="path3021"
   style="fill:url(#SVGID_8_)" />
		</g>
	</g>
	<g
   id="리듬_세상">
		<path
   id="리"
   class="st13"
   d="m 108.25982,249.69547 v 5.07979 l 1.4488,-0.28162 c 1.44229,-0.28035 2.76286,-0.53705 2.76286,1.35812 v 30.00145 c -2.1308,1.21741 -4.85964,2.22269 -8.22358,2.87659 l -19.92642,3.87329 v -9.18237 l 18.47805,-3.59177 c 0.91943,-0.17874 1.66478,-1.08685 1.66478,-2.02832 v -18.05115 c 0,-0.94055 -0.7439,-1.55878 -1.6624,-1.38159 l -34.66126,6.68674 v 7.7731 l 23.63868,-4.59491 v 6.17368 l -24.73737,4.80847 v 5.16507 l 0.58405,-0.11353 c 1.17947,-0.22928 2.92844,-0.56924 2.92841,1.18674 v 12.2222 c 0,3.01276 2.38511,4.99146 5.32729,4.41956 l 26.01894,-5.05759 c 4.88078,-0.94873 8.42339,-2.14264 10.57082,-3.24063 v 28.7652 l 13.40082,-2.60486 v -73.68518 z" />
		<path
   id="듬"
   class="st14"
   d="m 201.08128,243.06824 -52.23608,10.15367 v 5.06792 l 0.64766,-0.12589 c 3.41862,-0.66449 3.55299,-0.1048 3.55299,1.56476 v 10.60599 c 0,3.41476 2.65521,5.66684 5.9306,5.03015 l 37.49214,-7.28772 c 3.27539,-0.63669 5.9306,-3.92099 5.9306,-7.33575 v -16.55531 c 1e-5,-0.75883 -0.59005,-1.2593 -1.31791,-1.11782 z m -12.98071,19.61514 -22.04097,4.28433 v -9.6246 l 22.04097,-4.28433 z m 14.29858,-30.86884 5e-5,7.38155 -65.43114,12.71854 v -7.38156 z m -38.90942,-11.00962 v 7.57539 l 38.90947,-7.56323 v 7.3815 l -45.09311,8.76521 c -3.63931,0.70741 -6.58955,-1.79489 -6.58957,-5.58905 l -2e-5,-8.7943 c 0,-1.52159 -0.13414,-1.98257 -3.54736,-1.31911 l -0.64667,0.12569 2e-5,-4.66553 55.87671,-10.86133 v 7.3815 z" />
		<path
   id="세"
   class="st13"
   d="m 251.63458,270.00656 -5.30147,7.27768 c -10.35692,-3.56204 -13.15424,-8.90552 -13.15424,-8.90552 0,0 -3.92209,7.50806 -12.14363,15.24738 l -6.85875,-5.95303 c 0,0 12.11775,-11.61597 12.11775,-23.29774 v -8.89185 c 0,-1.62611 -1.2849,-1.5921 -2.72202,-1.31276 l -1.44353,0.28059 v -5.13745 l 15.87125,-3.08505 -3e-5,16.35805 c 3e-5,15.66274 13.63467,17.4197 13.63467,17.4197 z m -1.60705,-39.24383 v 4.72437 l 1.22925,-0.23894 c 1.22372,-0.23787 2.34416,-0.45566 2.34416,1.17046 v 13.76784 l -10.36588,2.01492 v 7.40669 l 10.36588,-2.01492 2e-5,40.80002 11.37003,-2.21011 v -68.32503 z m 14.47787,-15.07091 v 4.72437 l 1.22925,-0.23894 c 1.22372,-0.23787 2.31784,-0.39813 2.31784,1.22798 v 60.16539 l 12.35895,-2.40234 v -66.56827 z" />
		<path
   id="상"
   class="st14"
   d="m 340.88232,222.08032 c -5.85742,-1.31984 -13.39746,-1.45871 -21.94974,4.36603 -5.62347,3.82996 -8.45941,8.49506 -8.45917,13.84146 9e-5,1.9261 0.42255,3.83742 1.26202,5.67587 2.57635,5.64229 6.39209,5.94518 11.57977,6.35703 8.47733,0.67296 13.57614,-1.57025 18.65857,-5.01392 5.67929,-3.8528 8.57858,-8.45044 8.57858,-13.82445 2e-5,-4.79742 -2.46214,-9.7779 -9.67003,-11.40202 z m -12.62069,22.26222 c -1.72256,-0.0339 -5.2359,-0.10309 -5.2359,-5.50494 0,-5.59824 4.46988,-9.61388 9.32904,-9.61443 4.98764,-6.1e-4 5.33826,3.37932 5.33826,5.43672 -1e-5,5.04322 -4.34656,9.78272 -9.4314,9.68265 z m 33.3764,-52.36856 v 8.31107 l -9.44839,1.83658 v 15.60796 l -12.62067,2.45322 V 184.2205 c 0,-1.61946 -1.32947,-1.60297 -2.84433,-1.30852 l -1.5217,0.29579 v -4.79922 l 16.98669,-3.30188 v 18.7039 z m -46.47461,18.2658 c 0,0 -1.38593,11.81114 -16.50909,27.06612 l -7.74295,-6.42967 c 7.74911,-6.27548 16.67975,-20.61539 16.67975,-33.39351 v -0.36064 c 0,-1.53493 -1.18759,-1.5334 -2.66663,-1.24591 l -1.4949,0.29059 v -4.54868 l 16.59448,-3.22563 v 6.67355 c 0,13.05014 7.19937,15.14824 16.76501,15.24199 l -4.7583,7.40182 c -14.53561,-1.30397 -16.86737,-7.47003 -16.86737,-7.47003 z" />
	</g>
</g></svg>
