<?xml version="1.0" encoding="UTF-8" standalone="no"?>
<!-- Created with Inkscape (http://www.inkscape.org/) -->

<svg
   version="1.1"
   id="svg2"
   width="666.66669"
   height="750.42133"
   viewBox="0 0 666.66669 750.42133"
   sodipodi:docname="Tibby Idle.ai"
   xmlns:inkscape="http://www.inkscape.org/namespaces/inkscape"
   xmlns:sodipodi="http://sodipodi.sourceforge.net/DTD/sodipodi-0.dtd"
   xmlns="http://www.w3.org/2000/svg"
   xmlns:svg="http://www.w3.org/2000/svg">
  <defs
     id="defs6">
    <clipPath
       clipPathUnits="userSpaceOnUse"
       id="clipPath16">
      <path
         d="M 0,562.816 H 500 V 0 H 0 Z"
         id="path14" />
    </clipPath>
    <linearGradient
       x1="0"
       y1="0"
       x2="1"
       y2="0"
       gradientUnits="userSpaceOnUse"
       gradientTransform="matrix(0,-332.95416,-332.95416,0,249.90424,546.96222)"
       spreadMethod="pad"
       id="linearGradient50">
      <stop
         style="stop-opacity:1;stop-color:#ff78fd"
         offset="0"
         id="stop42" />
      <stop
         style="stop-opacity:1;stop-color:#ff78fd"
         offset="0.29248118"
         id="stop44" />
      <stop
         style="stop-opacity:1;stop-color:#ff9afe"
         offset="0.5"
         id="stop46" />
      <stop
         style="stop-opacity:1;stop-color:#ffdcff"
         offset="1"
         id="stop48" />
    </linearGradient>
    <clipPath
       clipPathUnits="userSpaceOnUse"
       id="clipPath60">
      <path
         d="M 0,562.816 H 500 V 0 H 0 Z"
         id="path58" />
    </clipPath>
  </defs>
  <sodipodi:namedview
     id="namedview4"
     pagecolor="#ffffff"
     bordercolor="#000000"
     borderopacity="0.25"
     inkscape:showpageshadow="2"
     inkscape:pageopacity="0.0"
     inkscape:pagecheckerboard="0"
     inkscape:deskcolor="#d1d1d1" />
  <g
     id="g8"
     inkscape:groupmode="layer"
     inkscape:label="Tibby Idle"
     transform="matrix(1.3333333,0,0,-1.3333333,0,750.42133)">
    <g
       id="g10">
      <g
         id="g12"
         clip-path="url(#clipPath16)">
        <g
           id="g18"
           transform="translate(338.7339,97.9629)">
          <path
             d="m 0,0 c -1.031,1.992 -1.845,3.676 -2.173,5.684 -4.658,28.529 -16.212,51.65 -35.322,70.686 -5.852,5.829 -10.881,9.441 -17.864,9.441 -1.578,0 -3.245,-0.196 -4.956,-0.582 -2.162,-0.487 -3.452,-0.953 -4.08,-2.012 -0.606,-1.024 -0.414,-2.325 0.093,-4.092 5.582,-19.463 8.634,-37.201 9.329,-54.225 0.48,-11.739 0.164,-25.427 -5.812,-37.946 -5.477,-11.473 -15.665,-18.054 -27.951,-18.054 -1.831,0 -3.711,0.151 -5.589,0.449 -12.917,2.05 -21.375,10.038 -25.856,24.42 -3.956,12.699 -3.637,25.813 -2.703,38.093 1.104,14.51 4.114,30.412 8.947,47.263 0.382,1.333 0.639,2.73 -0.067,3.922 -0.614,1.036 -1.823,1.709 -3.92,2.182 -1.731,0.391 -3.413,0.589 -4.997,0.589 -7.615,0 -12.818,-4.466 -17.912,-9.441 -10.857,-10.604 -25.22,-28.83 -31.993,-55.441 -0.65,-2.553 -1.195,-5.166 -1.722,-7.694 -1.302,-6.244 -2.649,-12.7 -5.67,-18.595 -2.188,-4.268 -1.784,-9.58 1.081,-14.208 1.993,-3.219 4.765,-4.921 8.019,-4.921 0.606,0 1.236,0.059 1.872,0.177 4.443,0.82 5.603,4.479 6.152,7.949 0.182,1.15 0.267,2.304 0.357,3.526 0.013,0.179 0.027,0.36 0.041,0.543 l 1.629,-0.636 c 1.363,-0.531 3.06,-1.19 4.694,-1.19 1.765,0 3.23,0.771 4.355,2.293 2.231,3.018 1.863,6.377 -1.096,9.986 l -0.287,0.354 c -0.735,0.913 -1.569,1.949 -2.697,2.443 -4.283,1.877 -4.582,5.098 -3.677,9.688 0.208,1.052 0.388,2.122 0.562,3.156 0.079,0.47 0.158,0.94 0.24,1.409 2.936,16.858 10.179,33.314 22.141,50.307 0.094,0.134 0.191,0.276 0.291,0.423 0.52,0.765 1.231,1.813 1.874,1.813 0.156,0 0.335,-0.058 0.531,-0.173 0.39,-0.226 0.551,-0.32 -0.261,-1.792 -0.215,-0.391 -0.438,-0.795 -0.577,-1.199 -1.373,-3.985 -2.817,-8.023 -4.213,-11.928 -1.76,-4.921 -3.58,-10.01 -5.277,-15.052 -3.534,-10.499 -5.203,-19.343 -5.252,-27.832 -0.024,-4.042 1.131,-6.784 3.859,-9.171 4.464,-3.905 5.944,-8.951 4.398,-14.999 -0.38,-1.488 -0.602,-3.08 -0.661,-4.731 -0.405,-11.427 0.28,-23.906 2.157,-39.272 0.252,-2.061 0.711,-4.149 1.155,-6.168 1.348,-6.129 2.621,-11.917 -1.142,-17.776 -0.609,-0.949 -0.698,-1.97 -0.243,-2.802 0.495,-0.907 1.543,-1.448 2.804,-1.448 0.369,0 0.749,0.047 1.129,0.139 4.422,1.075 8.065,2.785 11.136,5.229 1.487,1.183 2.083,2.646 1.824,4.472 -1.253,8.839 -0.249,17.663 1.023,25.882 1.32,8.527 3.765,11.404 9.69,11.404 1.645,0 3.627,-0.222 6.057,-0.679 5.081,-0.955 11.788,-2.051 18.608,-2.051 3.402,0 6.566,0.258 9.673,0.789 1.09,0.187 2.18,0.394 3.27,0.601 2.776,0.527 5.646,1.072 8.46,1.242 0.379,0.023 0.751,0.034 1.105,0.034 5.209,0 7.894,-2.375 8.98,-7.941 1.88,-9.638 2.484,-18.827 1.795,-27.312 -0.354,-4.354 1.01,-6.817 4.706,-8.504 l 4.603,-2.1 c 0.716,-0.326 2.558,-1.086 4.214,-1.086 1.016,0 1.816,0.282 2.377,0.837 1.961,1.937 -0.125,5.585 -0.811,6.657 -1.195,1.866 -1.499,3.767 -1.015,6.356 2.124,11.371 3.484,21.574 4.159,31.192 l 0.07,1.003 c 0.591,8.381 1.202,17.048 -0.336,25.467 -1.278,6.994 0.297,12.143 4.955,16.204 2.133,1.86 3.08,3.968 3.166,7.049 0.256,9.162 -1.471,18.59 -5.6,30.571 -1.64,4.76 -3.358,9.581 -5.02,14.242 -1.434,4.025 -2.918,8.187 -4.344,12.29 -0.108,0.312 -0.269,0.613 -0.424,0.905 -0.559,1.052 -0.475,1.105 -0.162,1.305 0.175,0.113 0.326,0.17 0.449,0.17 0.342,0 0.797,-0.508 1.198,-0.955 0.176,-0.196 0.358,-0.399 0.55,-0.586 13.277,-17.751 21.505,-37.865 23.8,-58.176 0.372,-3.302 -0.339,-4.863 -2.819,-6.187 -2.019,-1.078 -3.773,-2.821 -5.212,-5.18 -2.472,-4.052 -1.272,-7.018 0.169,-8.794 1.082,-1.331 2.43,-1.978 4.123,-1.978 1.22,0 2.431,0.334 3.667,0.706 0.825,0.249 1.595,0.611 2.486,1.03 0.093,0.044 0.187,0.088 0.283,0.133 0.039,-0.417 0.074,-0.821 0.109,-1.215 0.144,-1.66 0.269,-3.094 0.572,-4.543 0.851,-4.068 3.658,-6.595 7.327,-6.595 1.366,0 2.769,0.353 4.17,1.049 2.916,1.448 4.827,3.983 5.842,7.749 C 4.295,-9.519 2.1,-4.06 0,0"
             style="fill:#ffacfe;fill-opacity:1;fill-rule:nonzero;stroke:none"
             id="path20" />
        </g>
        <g
           id="g22"
           transform="translate(265.3326,178.8754)">
          <path
             d="m 0,0 c -0.807,2.474 -2.189,3.484 -4.772,3.484 -0.157,0 -0.32,-0.003 -0.488,-0.009 l -0.804,-0.03 c -4.474,-0.162 -9.102,-0.33 -13.642,-0.33 -1.894,0 -3.639,0.028 -5.333,0.086 -0.164,0.006 -0.324,0.009 -0.48,0.009 -4.139,0 -5.537,-2.125 -6.363,-5.315 -3.379,-13.05 -7.452,-30.318 -8.975,-48.155 -0.981,-11.475 -1.347,-23.728 2.57,-35.58 3.742,-11.32 11.541,-17.33 22.552,-17.381 l 0.147,-10e-4 c 10.989,0 18.559,5.777 22.498,17.17 2.84,8.215 3.181,16.653 3.277,23.918 C 9.905,-45.374 4.954,-15.192 0,0"
             style="fill:#ffffff;fill-opacity:1;fill-rule:nonzero;stroke:none"
             id="path24" />
        </g>
        <g
           id="g26"
           transform="translate(343.6706,256.1357)">
          <path
             d="m 0,0 c -0.604,3.795 -1.282,7.643 -1.937,11.364 -2.587,14.696 -5.262,29.893 -4.016,45.164 0.359,4.398 -1.701,5.904 -5.139,6.909 -20.603,6.02 -40.196,9.737 -59.9,11.363 -7.482,0.618 -15.09,0.931 -22.611,0.931 v -0.924 l -0.002,0.924 c -27.847,-10e-4 -56.563,-4.311 -85.353,-12.812 -2.874,-0.849 -4.044,-2.422 -4.039,-5.43 0.014,-7.45 -0.642,-15.011 -1.277,-22.322 -0.111,-1.282 -0.222,-2.563 -0.33,-3.845 -0.575,-6.83 -1.694,-13.719 -2.777,-20.382 -1.248,-7.678 -2.538,-15.617 -3.013,-23.552 -1.222,-20.438 8.083,-33.925 27.66,-40.088 21.908,-6.897 44.841,-8.058 62.373,-8.299 18.589,0.006 30.462,0.552 42.361,1.947 11.138,1.307 24.17,3.401 36.375,9.03 15.728,7.254 23.461,19.255 22.986,35.67 C 1.224,-9.639 0.766,-4.811 0,0"
             style="fill:#ffffff;fill-opacity:1;fill-rule:nonzero;stroke:none"
             id="path28" />
        </g>
      </g>
    </g>
    <g
       id="g30">
      <g
         id="g32">
        <g
           id="g38">
          <g
             id="g40">
            <path
               d="m 250.792,546.039 -0.002,0.923 c -17.546,-10e-4 -35.497,-1.679 -53.361,-4.988 v 0 C 144.295,532.129 101.998,510.683 68.121,476.41 v 0 C 49.721,457.798 35.953,437.55 27.198,416.234 v 0 C 18.02,393.886 14.072,369.691 15.467,344.319 v 0 c 1.939,-35.31 15.003,-64.568 38.83,-86.956 v 0 c 11.831,-11.117 27.157,-21.127 44.322,-28.95 v 0 c 15.839,-7.217 32.12,-12.011 45.845,-13.497 v 0 l 1.745,-0.189 -0.832,1.545 c -5.946,11.039 -7.585,23.211 -5.009,37.209 v 0 c 2.697,14.66 4.987,27.918 5.699,41.714 v 0 c 0.169,3.254 0.304,6.563 0.435,9.764 v 0 c 0.22,5.409 0.449,11.003 0.843,16.486 v 0 c 0.36,5.006 3.124,8.093 8.7,9.714 v 0 c 17.4,5.062 34.78,8.889 51.655,11.374 v 0 c 16.206,2.388 30.855,3.548 44.786,3.547 v 0 c 10.439,0 20.663,-0.675 30.388,-2.008 v 0 c 19.502,-2.671 38.367,-7.633 56.612,-12.431 v 0 c 9.701,-2.552 12.796,-6.782 12.261,-16.766 v 0 c -0.723,-13.509 0.086,-27.269 2.472,-42.065 v 0 c 0.472,-2.921 1.022,-5.888 1.553,-8.758 v 0 c 2.938,-15.862 5.976,-32.263 -2.901,-48.392 v 0 l -0.909,-1.652 1.863,0.295 c 19.822,3.138 43.101,11.181 60.753,20.99 v 0 c 29.2,16.227 48.43,36.839 58.789,63.013 v 0 c 17.371,43.89 14.611,88.277 -8.199,131.929 v 0 c -22.922,43.862 -59.629,76.182 -109.105,96.062 v 0 c -34.124,13.712 -69.543,20.665 -105.271,20.665 v 0 z"
               style="fill:url(#linearGradient50);stroke:none"
               id="path52" />
          </g>
        </g>
      </g>
    </g>
    <g
       id="g54">
      <g
         id="g56"
         clip-path="url(#clipPath60)">
        <g
           id="g62"
           transform="translate(241.7477,169.5286)">
          <path
             d="m 0,0 v 2.998 c 0,1.999 0,2.946 3.691,2.946 2.717,0 3.63,-1.246 4.313,-1.246 0.682,0 1.595,1.246 4.312,1.246 3.692,0 3.692,-0.947 3.692,-2.946 V 0 c 0,-1.999 0,-2.946 -3.692,-2.946 -2.717,0 -3.63,1.246 -4.312,1.246 C 7.321,-1.7 6.408,-2.946 3.691,-2.946 0,-2.946 0,-1.999 0,0 m 83.192,82.694 c 0,-9.467 -5.675,-17.141 -12.675,-17.141 -7.001,0 -12.676,7.674 -12.676,17.141 0,9.467 5.675,17.141 12.676,17.141 7,0 12.675,-7.674 12.675,-17.141 m -126.508,0 c 0,-9.467 -5.675,-17.141 -12.675,-17.141 -7.001,0 -12.676,7.674 -12.676,17.141 0,9.467 5.675,17.141 12.676,17.141 7,0 12.675,-7.674 12.675,-17.141 m 73.774,-6.885 c 0,-4.945 -7.204,-9.108 -17.011,-10.363 v -4.528 c 0.015,-2.401 0.724,-3.758 2.594,-5.327 l 7.801,-6.546 c 2.614,-2.194 4.25,-4.929 1.829,-7.876 -2.271,-2.765 -5.504,-2.603 -8.259,-0.291 -3.27,2.743 -8.16,7.09 -10.149,7.09 -1.989,0 -6.88,-4.347 -10.149,-7.09 -2.755,-2.312 -5.988,-2.474 -8.259,0.291 -2.421,2.947 -0.786,5.682 1.828,7.876 l 7.801,6.546 c 1.871,1.569 2.579,2.926 2.594,5.327 v 4.528 c -9.807,1.255 -17.01,5.418 -17.01,10.363 0,5.938 10.384,10.752 23.195,10.752 12.81,0 23.195,-4.814 23.195,-10.752 m 200.303,53.308 C 219.578,100.862 198.576,81.129 172.382,66.572 154.606,56.694 131.569,48.795 111.933,45.686 c 10.655,19.361 4.537,38.605 1.451,57.742 -2.242,13.896 -3.212,27.852 -2.462,41.869 0.593,11.089 -3.605,15.251 -12.948,17.708 -18.762,4.934 -37.457,9.814 -56.722,12.453 -25.257,3.461 -50.356,2.154 -75.434,-1.54 -17.527,-2.581 -34.761,-6.45 -51.779,-11.401 -5.605,-1.63 -8.953,-4.836 -9.362,-10.535 -0.628,-8.741 -0.827,-17.513 -1.279,-26.268 -0.724,-14.023 -3.152,-27.819 -5.686,-41.594 -2.412,-13.11 -1.392,-25.754 5.104,-37.814 -26.881,2.91 -64.737,18.806 -89.635,42.202 -24.843,23.344 -36.694,52.727 -38.54,86.334 -2.848,51.831 16.488,95.072 52.389,131.391 35.61,36.025 79.32,56.133 128.82,65.304 54.359,10.072 107.201,4.836 158.122,-15.625 47.128,-18.938 84.799,-50.03 108.629,-95.633 22.077,-42.246 25.896,-86.348 8.16,-131.162 M 79.911,37.424 C 68.446,32.136 56.21,29.926 43.815,28.473 31.583,27.038 19.285,26.537 1.574,26.532 c -17.414,0.239 -40.118,1.334 -62.108,8.256 -19.252,6.06 -28.219,19.026 -27.015,39.152 0.884,14.771 4.548,29.178 5.788,43.912 0.736,8.741 1.626,17.469 1.611,26.246 -0.005,2.562 0.826,3.789 3.376,4.542 35.176,10.387 70.976,14.872 107.629,11.847 20.313,-1.677 40.17,-5.618 59.717,-11.33 3.264,-0.954 4.783,-2.197 4.477,-5.946 -1.571,-19.269 2.965,-37.935 5.962,-56.749 0.751,-4.713 1.211,-9.45 1.35,-14.234 0.486,-16.777 -7.589,-27.95 -22.45,-34.804 m -96.264,-78.416 c 1.39,16.273 4.859,32.2 8.95,48.002 0.878,3.394 2.271,4.74 5.917,4.615 6.605,-0.226 13.233,0.035 19.845,0.274 2.299,0.083 3.552,-0.398 4.348,-2.838 4.707,-14.433 9.854,-44.755 10.141,-61.836 -0.097,-7.357 -0.467,-15.65 -3.226,-23.628 -3.837,-11.099 -11.08,-16.598 -21.768,-16.548 -10.567,0.049 -18.054,5.78 -21.679,16.748 -3.805,11.51 -3.537,23.393 -2.528,35.211 M 93.902,-66.03 c 0.363,-2.222 1.28,-4.057 2.264,-5.96 2.46,-4.755 4.001,-9.683 2.542,-15.094 -0.833,-3.088 -2.396,-5.69 -5.361,-7.163 -4.707,-2.337 -9.104,-0.249 -10.183,4.908 -0.435,2.079 -0.498,4.236 -0.795,6.945 -1.612,-0.709 -2.68,-1.309 -3.825,-1.654 -2.393,-0.721 -4.903,-1.374 -6.807,0.97 -2.021,2.488 -1.669,5.155 -0.098,7.73 1.22,2.001 2.82,3.758 4.859,4.847 3.008,1.605 3.687,3.69 3.301,7.105 -2.414,21.373 -11.086,41.409 -24.022,58.686 -0.959,0.907 -1.823,2.537 -3.389,1.536 -1.463,-0.935 -0.147,-2.261 0.211,-3.292 3.079,-8.858 6.308,-17.664 9.364,-26.529 3.373,-9.791 5.843,-19.753 5.549,-30.245 -0.074,-2.634 -0.79,-4.583 -2.85,-6.379 -5.208,-4.541 -6.524,-10.127 -5.256,-17.066 1.577,-8.633 0.866,-17.493 0.253,-26.239 -0.732,-10.44 -2.224,-20.799 -4.146,-31.087 -0.474,-2.539 -0.297,-4.771 1.145,-7.024 1.036,-1.618 2.201,-4.257 0.941,-5.502 -1.153,-1.139 -3.85,-0.347 -5.559,0.432 l -4.604,2.101 c -3.223,1.47 -4.499,3.525 -4.169,7.589 0.748,9.205 -0.033,18.46 -1.809,27.563 -1.227,6.295 -4.601,9.041 -11.046,8.652 -3.967,-0.24 -7.894,-1.181 -11.831,-1.854 -9.412,-1.61 -18.687,-0.483 -27.954,1.259 -11.329,2.129 -15.105,-0.344 -16.83,-11.491 -1.339,-8.652 -2.269,-17.381 -1.025,-26.154 0.226,-1.59 -0.349,-2.715 -1.485,-3.62 -3.186,-2.536 -6.863,-4.102 -10.779,-5.053 -2.191,-0.532 -3.867,0.888 -2.694,2.714 5.293,8.243 1.112,16.484 0.126,24.556 -1.591,13.023 -2.616,26.02 -2.151,39.126 0.054,1.519 0.257,3.064 0.633,4.536 1.6,6.261 0.113,11.726 -4.685,15.922 -2.737,2.395 -3.563,5.025 -3.544,8.471 0.055,9.519 2.201,18.622 5.204,27.543 3.041,9.032 6.385,17.962 9.488,26.974 0.447,1.299 2.211,3.053 0.43,4.09 -1.855,1.08 -2.999,-1.028 -3.916,-2.33 -10.833,-15.39 -19.034,-31.952 -22.296,-50.68 -0.264,-1.515 -0.5,-3.036 -0.798,-4.545 -0.882,-4.471 -0.833,-8.494 4.213,-10.712 1.833,-0.806 6.812,-6.557 3.708,-11.389 -1.995,-3.105 -5.172,-1.88 -7.972,-0.791 -0.831,0.323 -1.661,0.649 -2.784,1.088 -0.173,-1.929 -0.231,-3.599 -0.49,-5.237 -0.527,-3.33 -1.54,-6.472 -5.407,-7.186 -3.931,-0.725 -6.907,1.04 -8.939,4.323 -2.615,4.226 -3.371,10.234 -1.25,14.371 4.307,8.405 5.412,16.538 7.671,25.412 5.819,22.863 17.997,41.582 31.743,55.007 6.607,6.453 12.438,10.785 22.061,8.613 3.738,-0.844 4.077,-2.249 3.303,-4.949 -4.417,-15.401 -7.764,-31.455 -8.98,-47.448 -0.983,-12.918 -1.177,-25.859 2.742,-38.437 4.146,-13.307 12.082,-22.755 26.593,-25.058 14.899,-2.364 28.008,4.483 34.518,18.12 5.809,12.169 6.439,25.215 5.901,38.381 -0.758,18.547 -4.261,36.647 -9.365,54.442 -0.997,3.477 -0.435,4.105 3.303,4.949 9.623,2.172 15.577,-2.249 21.965,-8.613 19.634,-19.557 30.653,-43.169 35.063,-70.18 m 137.576,344.7 c -26.037,43.45 -64.168,73.024 -110.321,92.262 -48.514,20.221 -99.086,26.456 -151.372,19.791 -44.412,-5.662 -85.759,-19.528 -122.212,-45.648 -63.327,-45.378 -97.2,-105.296 -87.759,-185.3 3.353,-28.407 14.655,-53.435 34.003,-74.719 25.234,-27.76 57.189,-43.614 93.08,-52.143 14.922,-3.547 22.176,-4.825 33.064,-6.035 1.821,-0.202 2.824,-0.744 3.549,-1.158 7.32,-4.187 14.292,-6.265 23.208,-9.367 -0.815,-0.928 -1.622,-1.834 -2.414,-2.752 -14.501,-16.792 -26.959,-34.794 -32.398,-56.717 -2.882,-11.614 -5.724,-23.275 -7.71,-35.063 -1.567,-9.306 -0.984,-18.626 7.592,-25.118 10.129,-7.669 24.163,-7.215 30.16,2.488 l -0.474,-15.91 c 0,-7.469 0.152,-16.026 4.829,-30.618 0.633,-1.975 0.122,-3.329 -0.867,-5.045 -4.492,-7.799 0.146,-16.59 9.054,-17.078 7.975,-0.436 15.646,1.205 22.688,4.996 6.764,3.641 10.385,9.166 10.015,17.251 -0.31,6.738 -0.659,13.525 0.722,20.249 0.556,2.708 1.259,3.96 4.535,3.249 10.194,-2.212 20.507,-1.86 30.715,-0.045 3.003,0.534 4.084,0.039 4.667,-3 1.323,-6.895 0.892,-13.814 0.677,-20.715 -0.224,-7.207 2.814,-12.517 8.741,-16.171 6.99,-4.31 14.801,-5.958 22.922,-5.859 9.95,0.122 14.924,8.699 10.042,17.339 -1.135,2.008 -1.048,3.573 -0.42,5.587 3.989,12.805 4.657,25.967 4.002,39.258 -0.114,2.319 -1.078,4.62 -0.379,7.74 2.251,-3.218 4.165,-5.725 7.204,-7.145 12.944,-6.048 29.67,3.436 31.239,17.603 0.888,8.014 -1.791,15.456 -2.874,23.169 -4.115,29.336 -14.447,53.032 -35.42,77.204 -1.642,1.892 -3.28,3.787 -5.269,6.089 8.869,1.881 16.506,4.966 23.836,8.887 1.17,0.626 2.64,0.814 3.996,0.95 27.003,2.701 52.932,9.466 77.228,21.591 33.902,16.92 60.988,41.267 73.964,77.556 18.922,52.916 13.051,104.129 -15.843,152.347"
             style="fill:#000000;fill-opacity:1;fill-rule:nonzero;stroke:none"
             id="path64" />
        </g>
        <g
           id="g66"
           transform="translate(311.3409,232.369)">
          <path
             d="m 0,0 c -7.14,0 -12.928,-5.788 -12.928,-12.928 0,-7.14 5.788,-12.928 12.928,-12.928 7.14,0 12.928,5.788 12.928,12.928 C 12.928,-5.788 7.14,0 0,0 m -112.657,-12.928 c 0,-7.14 -5.788,-12.928 -12.928,-12.928 -7.139,0 -12.927,5.788 -12.927,12.928 0,7.14 5.788,12.928 12.927,12.928 7.14,0 12.928,-5.788 12.928,-12.928"
             style="fill:#f5b2b2;fill-opacity:1;fill-rule:nonzero;stroke:none"
             id="path68" />
        </g>
      </g>
    </g>
  </g>
</svg>
