<?xml version="1.0" encoding="UTF-8" standalone="no"?>
<!-- Created with Inkscape (http://www.inkscape.org/) -->

<svg
   version="1.1"
   id="svg1"
   width="666.66669"
   height="312.05066"
   viewBox="0 0 666.66669 312.05066"
   sodipodi:docname="Polyrhythm Mania (ポリリズムマニア) Logo.ai"
   xmlns:inkscape="http://www.inkscape.org/namespaces/inkscape"
   xmlns:sodipodi="http://sodipodi.sourceforge.net/DTD/sodipodi-0.dtd"
   xmlns="http://www.w3.org/2000/svg"
   xmlns:svg="http://www.w3.org/2000/svg">
  <defs
     id="defs1">
    <clipPath
       clipPathUnits="userSpaceOnUse"
       id="clipPath2">
      <path
         d="M 0,234.038 H 500 V 0 H 0 Z"
         transform="translate(-496.62601,-146.69801)"
         id="path2" />
    </clipPath>
    <clipPath
       clipPathUnits="userSpaceOnUse"
       id="clipPath4">
      <path
         d="M 0,234.038 H 500 V 0 H 0 Z"
         transform="translate(-87.759805,-217.45191)"
         id="path4" />
    </clipPath>
    <clipPath
       clipPathUnits="userSpaceOnUse"
       id="clipPath6">
      <path
         d="M 0,234.038 H 500 V 0 H 0 Z"
         transform="translate(-98.921402,-213.04801)"
         id="path6" />
    </clipPath>
    <clipPath
       clipPathUnits="userSpaceOnUse"
       id="clipPath8">
      <path
         d="M 0,234.038 H 500 V 0 H 0 Z"
         transform="translate(-88.058605,-202.6359)"
         id="path8" />
    </clipPath>
  </defs>
  <sodipodi:namedview
     id="namedview1"
     pagecolor="#ffffff"
     bordercolor="#000000"
     borderopacity="0.25"
     inkscape:showpageshadow="2"
     inkscape:pageopacity="0.0"
     inkscape:pagecheckerboard="0"
     inkscape:deskcolor="#d1d1d1">
    <inkscape:page
       x="0"
       y="0"
       inkscape:label="1"
       id="page1"
       width="666.66669"
       height="312.05066"
       margin="0"
       bleed="0" />
  </sodipodi:namedview>
  <g
     id="layer-MC0"
     inkscape:groupmode="layer"
     inkscape:label="Layer 1">
    <path
       id="path1"
       d="m 0,0 c -8.193,20.309 -23.532,37.485 -24.182,38.206 l -5.089,5.657 -7.148,-4.009 c 4.107,8.927 13.388,31.084 13.388,31.084 l -38.909,15.926 -26.555,-69.885 -10.064,-1.084 1.079,-9.389 -5.763,5.012 c -8.074,7.024 -14.921,11.637 -20.248,14.696 5.919,8.8 9.654,16.807 11.994,23.127 l 23.375,13.914 -3.844,7.87 c -0.483,0.992 -3.218,6.212 -9.53,11.691 l -5.213,4.524 -7.895,-4.738 -2.707,2.815 -17.679,-10.903 h -56.082 V 42.807 h 29.358 l -37.325,-45.392 19.724,-19.95 6.382,3.751 c 9.378,5.513 18.051,11.751 25.879,18.61 l 24.06,-23.168 25.865,26.782 2.744,-23.914 9.042,0.594 c 20.879,1.37 36.563,3.898 47.478,6.255 l 4.795,-11.759 36.444,17.02 z m -246.518,-22.827 h 32.497 l 1.627,7.497 c 0.233,1.068 5.678,26.554 5.678,60.923 0,10.156 -0.474,20.147 -1.41,29.697 l -0.842,8.586 h -37.55 v -8.582 h -37.351 V 11.015 h 37.351 z m -98.009,0 h 32.497 l 1.627,7.497 c 0.232,1.068 5.677,26.554 5.677,60.923 0,10.159 -0.474,20.151 -1.41,29.698 l -0.842,8.585 h -37.549 v -8.582 h -37.352 V 11.015 h 37.352 z m -121.98,13.664 c 1.211,1.455 3.502,4.348 6.192,8.449 v -22.21 h 38.533 v 8.202 l 36.637,15.426 -3.617,8.738 c -3.742,9.039 -7.552,16.493 -10.813,22.15 h 6.075 v 23.121 c 2.029,2.962 3.218,6.537 3.218,10.384 0,10.248 -8.337,18.585 -18.584,18.585 -5.015,0 -9.57,-2.001 -12.916,-5.241 v 5.435 h -38.533 V 63.299 h -28.283 V 31.592 h 3.138 l -8.552,-27.23 -2.614,-8.322 25.645,-10.572 z m 172.125,-68.165 h 23.709 l -15.061,-61.619 31.417,-7.751 3.318,7.057 c 7.037,14.965 11.912,27.991 15.227,38.228 l 21.84,-2.978 3.282,5.094 c 10.854,16.85 13.846,35.795 14.629,43.157 l 1.117,10.519 h -99.478 z m -98.886,-58.026 h 99.974 v 34.632 h -99.974 z m 12.191,45.251 h 75.593 v 34.633 h -75.593 z m -19.076,10.011 c -3.428,-6.473 -9.028,-15.348 -17.561,-24.485 1.813,-1.337 3.553,-2.701 5.235,-4.103 l 6.876,-5.73 -22.554,-30.704 -53.939,39.88 15.949,23.466 c 0,0 11.813,-3.695 15.527,-5.072 l 5.052,7.465 h -42.883 v 31.707 h 96.575 l -0.413,-9.911 c -0.21,-5.054 -3.297,-13.891 -7.864,-22.513"
       style="fill:#000000;fill-opacity:1;fill-rule:nonzero;stroke:none"
       transform="matrix(1.3333333,0,0,-1.3333333,662.168,116.45333)"
       clip-path="url(#clipPath2)" />
    <path
       id="path3"
       d="m 0,0 c -3.121,0 -5.656,-2.536 -5.656,-5.657 0,-3.12 2.535,-5.558 5.656,-5.558 3.121,0 5.657,2.438 5.657,5.558 C 5.657,-2.536 3.121,0 0,0 m 0,-14.628 c -4.974,0 -9.069,3.998 -9.069,8.971 0,4.974 4.095,9.07 9.069,9.07 4.974,0 9.07,-4.096 9.07,-9.07 0,-4.973 -4.096,-8.971 -9.07,-8.971 m 380.83,-68.658 -4.096,10.045 c -10.826,-2.828 -28.575,-6.241 -53.834,-7.899 l -2.047,17.847 6.338,0.683 25.163,66.218 20.967,-8.582 c -2.145,-5.071 -14.336,-35.401 -27.405,-55.589 l 24.576,2.731 -4.876,12.191 11.996,6.729 c 2.632,-2.926 15.506,-18.237 22.43,-35.401 z m -80.671,74.606 -4.876,10.045 5.851,3.511 c 5.17,-4.486 7.218,-8.68 7.218,-8.68 z M 261.93,-57.832 c -7.997,-7.899 -18.042,-15.994 -30.818,-23.503 l -8.485,8.582 44.667,54.321 h -39.985 v 12.678 h 58.905 l -2.048,4.681 5.851,3.609 c 4.876,-5.072 7.021,-9.07 7.021,-9.07 l -6.143,-3.706 c -1.854,-7.51 -6.924,-21.845 -19.993,-37.84 4.583,-1.852 14.239,-5.948 28.477,-18.334 L 285.628,-80.653 Z M 171.863,-84.066 V 3.608 h 19.408 c 0.975,-9.947 1.365,-19.7 1.365,-28.769 0,-33.744 -5.461,-58.905 -5.461,-58.905 z m -37.351,79.092 h 19.992 v -45.251 h -19.992 z m -141.729,-67.779 -10.532,33.841 12.19,5.071 c 1.951,-2.341 9.363,-12.971 16.872,-31.11 z m -34.718,-11.41 v 54.516 h -28.282 v 12.678 h 28.282 V 3.608 H -22.43 V -16.969 H 5.852 V -29.647 H -22.43 v -54.516 z m -34.134,14.921 11.118,35.401 18.139,-4.973 C -52.078,-57.734 -62.513,-70.9 -64.951,-73.826 Z M 73.854,-84.066 V 3.608 h 19.407 c 0.975,-9.947 1.365,-19.7 1.365,-28.769 0,-33.744 -5.461,-58.905 -5.461,-58.905 z M 36.501,-4.974 H 56.494 V -50.225 H 36.501 Z m 98.128,-197.764 14.921,61.05 20.578,-4.584 c -0.684,-4.096 -5.462,-27.306 -20.87,-60.074 z m 40.57,39.887 3.998,24.284 h -55.198 v 12.679 h 79.384 c -0.487,-4.584 -2.925,-23.113 -13.166,-39.011 z m -137.895,27.112 h 56.564 v -15.604 H 37.304 Z M 25.113,-180.99 h 80.945 v -15.604 H 25.113 Z m -85.334,7.217 6.827,10.045 c 1.853,-0.586 7.607,-2.243 15.214,-5.56 l 19.407,28.673 H -70.07 v 12.678 H 7.071 c -0.195,-4.681 -7.509,-28.282 -31.012,-48.762 4.681,-2.829 9.557,-6.144 14.238,-10.045 l -11.605,-15.799 z"
       style="fill:#ffffff;fill-opacity:1;fill-rule:nonzero;stroke:none"
       transform="matrix(1.3333333,0,0,-1.3333333,117.01307,22.1148)"
       clip-path="url(#clipPath4)" />
    <path
       id="path5"
       d="m 0,0 c 0,-5.936 -4.863,-10.748 -10.863,-10.748 -5.999,0 -10.863,4.812 -10.863,10.748 0,5.936 4.864,10.749 10.863,10.749 C -4.863,10.749 0,5.936 0,0"
       style="fill:#ee186c;fill-opacity:1;fill-rule:nonzero;stroke:none"
       transform="matrix(1.3333333,0,0,-1.3333333,131.8952,27.986667)"
       clip-path="url(#clipPath6)" />
    <path
       id="path7"
       d="M 0,0 C -2.203,0 -4.246,0.672 -5.936,1.816 L 8.688,16.285 C 9.845,14.613 10.523,12.591 10.523,10.412 10.523,4.662 5.812,0 0,0 m -10.524,10.412 c 0,5.751 4.712,10.413 10.524,10.413 2.203,0 4.245,-0.672 5.935,-1.817 L -8.688,4.54 c -1.157,1.672 -1.836,3.693 -1.836,5.872 M 0,24.855 c -8.049,0 -14.597,-6.479 -14.597,-14.443 0,-7.964 6.548,-14.443 14.597,-14.443 8.049,0 14.597,6.479 14.597,14.443 0,7.964 -6.548,14.443 -14.597,14.443"
       style="fill:#000000;fill-opacity:1;fill-rule:nonzero;stroke:none"
       transform="matrix(1.3333333,0,0,-1.3333333,117.41147,41.869467)"
       clip-path="url(#clipPath8)" />
  </g>
</svg>
