<?xml version="1.0" encoding="UTF-8" standalone="no"?>
<svg
   xmlns:dc="http://purl.org/dc/elements/1.1/"
   xmlns:cc="http://creativecommons.org/ns#"
   xmlns:rdf="http://www.w3.org/1999/02/22-rdf-syntax-ns#"
   xmlns:svg="http://www.w3.org/2000/svg"
   xmlns="http://www.w3.org/2000/svg"
   xmlns:sodipodi="http://sodipodi.sourceforge.net/DTD/sodipodi-0.dtd"
   xmlns:inkscape="http://www.inkscape.org/namespaces/inkscape"
   version="1.1"
   id="svg2"
   xml:space="preserve"
   width="840.82397"
   height="393.56934"
   viewBox="0 0 840.82397 393.56934"
   sodipodi:docname="Polyrhythm Mania (ポリリズムマニア) Logo.ai"><metadata
     id="metadata8"><rdf:RDF><cc:Work
         rdf:about=""><dc:format>image/svg+xml</dc:format><dc:type
           rdf:resource="http://purl.org/dc/dcmitype/StillImage" /></cc:Work></rdf:RDF></metadata><defs
     id="defs6"><clipPath
       clipPathUnits="userSpaceOnUse"
       id="clipPath18"><path
         d="M 0,295.177 H 630.618 V 0 H 0 Z"
         id="path16" /></clipPath></defs><sodipodi:namedview
     pagecolor="#ffffff"
     bordercolor="#666666"
     borderopacity="1"
     objecttolerance="10"
     gridtolerance="10"
     guidetolerance="10"
     inkscape:pageopacity="0"
     inkscape:pageshadow="2"
     inkscape:window-width="640"
     inkscape:window-height="480"
     id="namedview4" /><g
     id="g10"
     inkscape:groupmode="layer"
     inkscape:label="Polyrhythm Mania (ポリリズムマニア) Logo"
     transform="matrix(1.3333333,0,0,-1.3333333,0,393.56933)"><g
       id="g12"><g
         id="g14"
         clip-path="url(#clipPath18)"><g
           id="g20"
           transform="translate(626.3629,185.021)"><path
             d="m 0,0 c -10.334,25.614 -29.68,47.277 -30.499,48.187 l -6.42,7.134 -9.014,-5.056 c 5.181,11.259 16.884,39.205 16.884,39.205 l -49.073,20.086 -33.491,-88.142 -12.693,-1.367 1.36,-11.842 -7.268,6.322 c -10.184,8.859 -18.819,14.677 -25.537,18.535 7.464,11.098 12.176,21.197 15.127,29.168 l 29.481,17.549 -4.847,9.927 c -0.611,1.25 -4.059,7.835 -12.02,14.744 l -6.575,5.706 -9.958,-5.975 -3.413,3.549 -22.298,-13.75 h -70.733 V 53.99 h 37.027 l -47.075,-57.251 24.876,-25.161 8.05,4.731 c 11.829,6.953 22.766,14.821 32.639,23.471 l 30.345,-29.22 32.622,33.779 3.461,-30.161 11.405,0.748 c 26.332,1.728 46.114,4.916 59.879,7.889 l 6.048,-14.83 45.966,21.466 z m -310.917,-28.79 h 40.986 l 2.053,9.455 c 0.292,1.347 7.16,33.49 7.16,76.838 0,12.809 -0.598,25.411 -1.778,37.455 l -1.062,10.83 h -47.359 V 94.964 h -47.108 V 13.892 h 47.108 z m -123.613,0 h 40.986 l 2.052,9.455 c 0.292,1.347 7.161,33.49 7.161,76.838 0,12.813 -0.599,25.415 -1.779,37.456 l -1.062,10.829 H -434.53 V 94.964 h -47.11 V 13.892 h 47.11 z m -153.846,17.234 c 1.528,1.834 4.417,5.483 7.809,10.655 v -28.012 h 48.6 v 10.345 l 46.208,19.455 -4.562,11.021 c -4.72,11.401 -9.525,20.801 -13.637,27.937 h 7.662 v 29.161 c 2.559,3.736 4.058,8.245 4.058,13.097 0,12.924 -10.514,23.439 -23.439,23.439 -6.325,0 -12.069,-2.523 -16.29,-6.609 v 6.855 h -48.6 V 79.835 h -35.67 v -39.99 h 3.956 l -10.785,-34.343 -3.297,-10.497 32.344,-13.333 z m 217.091,-85.972 h 29.902 l -18.995,-77.717 39.625,-9.776 4.185,8.9 c 8.875,18.875 15.023,35.304 19.204,48.216 l 27.546,-3.757 4.138,6.424 c 13.691,21.253 17.463,45.146 18.451,54.432 l 1.409,13.268 h -125.465 z m -124.718,-73.186 h 126.091 v 43.68 h -126.091 z m 15.375,57.072 h 95.34 v 43.681 h -95.34 z m -24.059,12.626 c -4.324,-8.164 -11.387,-19.357 -22.149,-30.88 2.286,-1.686 4.481,-3.408 6.604,-5.176 l 8.671,-7.226 -28.446,-38.725 -68.03,50.298 20.115,29.596 c 0,0 14.899,-4.66 19.583,-6.396 l 6.372,9.414 h -54.085 v 39.99 h 121.803 l -0.52,-12.499 c -0.265,-6.375 -4.158,-17.522 -9.918,-28.396"
             style="fill:#000000;fill-opacity:1;fill-rule:nonzero;stroke:none"
             id="path22" /></g><g
           id="g24"
           transform="translate(110.6861,274.2583)"><path
             d="m 0,0 c -3.936,0 -7.134,-3.198 -7.134,-7.134 0,-3.936 3.198,-7.012 7.134,-7.012 3.936,0 7.134,3.076 7.134,7.012 C 7.134,-3.198 3.936,0 0,0 m 0,-18.45 c -6.273,0 -11.439,5.043 -11.439,11.316 0,6.273 5.166,11.439 11.439,11.439 6.273,0 11.439,-5.166 11.439,-11.439 C 11.439,-13.407 6.273,-18.45 0,-18.45 m 480.316,-86.593 -5.166,12.669 c -13.653,-3.567 -36.039,-7.872 -67.896,-9.963 l -2.583,22.509 7.995,0.861 31.734,83.518 26.446,-10.824 c -2.706,-6.396 -18.081,-44.65 -34.564,-70.111 l 30.996,3.444 -6.15,15.376 15.13,8.486 c 3.32,-3.69 19.556,-23.001 28.29,-44.649 z m -101.745,94.096 -6.15,12.669 7.38,4.428 c 6.519,-5.658 9.102,-10.947 9.102,-10.947 z M 330.354,-72.94 c -10.085,-9.963 -22.754,-20.172 -38.868,-29.643 l -10.701,10.824 56.335,68.511 h -50.431 v 15.991 h 74.293 l -2.583,5.904 7.38,4.551 c 6.15,-6.396 8.856,-11.439 8.856,-11.439 l -7.749,-4.675 c -2.337,-9.47 -8.733,-27.551 -25.215,-47.724 5.781,-2.337 17.958,-7.503 35.916,-23.124 l -17.343,-17.958 z M 216.76,-106.027 V 4.551 h 24.477 c 1.23,-12.546 1.722,-24.846 1.722,-36.285 0,-42.559 -6.888,-74.293 -6.888,-74.293 z m -47.109,99.754 h 25.215 v -57.072 h -25.215 z m -178.753,-85.486 -13.284,42.681 15.375,6.396 c 2.46,-2.952 11.808,-16.359 21.279,-39.237 z M -52.89,-106.15 v 68.757 h -35.671 v 15.991 H -52.89 V 4.551 h 24.6 V -21.402 H 7.38 v -15.991 h -35.67 v -68.757 z m -43.051,18.819 14.023,44.649 22.877,-6.273 c -6.642,-23.862 -19.803,-40.467 -22.877,-44.157 z M 93.146,-106.027 V 4.551 h 24.478 c 1.23,-12.546 1.722,-24.846 1.722,-36.285 0,-42.559 -6.888,-74.293 -6.888,-74.293 z M 46.037,-6.273 H 71.252 V -63.345 H 46.037 Z m 123.762,-249.427 18.819,76.998 25.952,-5.781 c -0.861,-5.166 -6.887,-34.44 -26.321,-75.769 z m 51.168,50.306 5.043,30.628 h -69.618 v 15.991 h 100.122 c -0.615,-5.782 -3.69,-29.152 -16.606,-49.202 z m -173.918,34.196 h 71.34 v -19.681 h -71.34 z m -15.376,-57.073 h 102.091 v -19.68 H 31.673 Z m -107.626,9.102 8.611,12.669 c 2.337,-0.738 9.593,-2.829 19.188,-7.012 l 24.477,36.163 h -64.698 v 15.991 H 8.918 c -0.246,-5.905 -9.471,-35.671 -39.114,-61.501 5.904,-3.568 12.054,-7.749 17.958,-12.669 l -14.637,-19.927 z"
             style="fill:#ffffff;fill-opacity:1;fill-rule:nonzero;stroke:none"
             id="path26" /></g><g
           id="g28"
           transform="translate(124.7632,268.7041)"><path
             d="m 0,0 c 0,-7.487 -6.134,-13.556 -13.701,-13.556 -7.567,0 -13.7,6.069 -13.7,13.556 0,7.487 6.133,13.556 13.7,13.556 C -6.134,13.556 0,7.487 0,0"
             style="fill:#ee186c;fill-opacity:1;fill-rule:nonzero;stroke:none"
             id="path30" /></g><g
           id="g32"
           transform="translate(111.0626,255.5718)"><path
             d="M 0,0 C -2.778,0 -5.354,0.847 -7.486,2.291 L 10.958,20.539 C 12.417,18.43 13.273,15.881 13.273,13.132 13.273,5.879 7.331,0 0,0 m -13.273,13.132 c 0,7.253 5.942,13.133 13.273,13.133 2.778,0 5.354,-0.848 7.486,-2.291 L -10.958,5.726 c -1.459,2.109 -2.315,4.658 -2.315,7.406 M 0,31.349 c -10.152,0 -18.411,-8.172 -18.411,-18.217 0,-10.044 8.259,-18.215 18.411,-18.215 10.152,0 18.411,8.171 18.411,18.215 0,10.045 -8.259,18.217 -18.411,18.217"
             style="fill:#000000;fill-opacity:1;fill-rule:nonzero;stroke:none"
             id="path34" /></g></g></g></g></svg>
