<?xml version="1.0" encoding="UTF-8" standalone="no"?>
<!-- Created with Inkscape (http://www.inkscape.org/) -->

<svg
   version="1.1"
   id="svg1"
   width="666.66669"
   height="237.132"
   viewBox="0 0 666.66669 237.132"
   sodipodi:docname="Polyrhythm Mania Logo.ai"
   xmlns:inkscape="http://www.inkscape.org/namespaces/inkscape"
   xmlns:sodipodi="http://sodipodi.sourceforge.net/DTD/sodipodi-0.dtd"
   xmlns="http://www.w3.org/2000/svg"
   xmlns:svg="http://www.w3.org/2000/svg">
  <defs
     id="defs1">
    <clipPath
       clipPathUnits="userSpaceOnUse"
       id="clipPath2">
      <path
         d="M 0,177.849 H 500 V 0 H 0 Z"
         transform="translate(-272.18461,-30.687601)"
         id="path2" />
    </clipPath>
    <clipPath
       clipPathUnits="userSpaceOnUse"
       id="clipPath4">
      <path
         d="M 0,177.849 H 500 V 0 H 0 Z"
         id="path4" />
    </clipPath>
    <clipPath
       clipPathUnits="userSpaceOnUse"
       id="clipPath6">
      <path
         d="M 0,177.849 H 500 V 0 H 0 Z"
         transform="translate(-93.5947,-124.6251)"
         id="path6" />
    </clipPath>
    <clipPath
       clipPathUnits="userSpaceOnUse"
       id="clipPath8">
      <path
         d="M 0,177.849 H 500 V 0 H 0 Z"
         transform="translate(-83.5801,-114.9234)"
         id="path8" />
    </clipPath>
  </defs>
  <sodipodi:namedview
     id="namedview1"
     pagecolor="#ffffff"
     bordercolor="#000000"
     borderopacity="0.25"
     inkscape:showpageshadow="2"
     inkscape:pageopacity="0.0"
     inkscape:pagecheckerboard="0"
     inkscape:deskcolor="#d1d1d1">
    <inkscape:page
       x="0"
       y="0"
       inkscape:label="1"
       id="page1"
       width="666.66669"
       height="237.132"
       margin="0"
       bleed="0" />
  </sodipodi:namedview>
  <g
     id="layer-MC0"
     inkscape:groupmode="layer"
     inkscape:label="Layer 1">
    <path
       id="path1"
       d="m 0,0 v 25.778 h -34.078 c -5.09,0 -12.509,-3.164 -17.819,-9.466 V 46.655 H -82.596 V 15.801 15.692 c -4.05,5.944 -9.002,8.878 -9.352,9.08 l -1.743,1.006 h -42.577 V 0.09 h -0.441 c -1.109,0 -2.21,-0.03 -3.301,-0.09 v 25.778 h -34.078 c -5.316,0 -13.171,-3.451 -18.512,-10.324 v 31.201 h -28.314 l -11.417,-29.166 -11.471,29.166 h -28.305 v -77.342 h 30.699 v 6.208 h 18.109 v -6.208 h 30.699 v 10.455 c 0.657,-0.897 1.359,-1.762 2.119,-2.582 4.491,-4.857 10.418,-7.873 15.467,-7.873 h 86.431 l 2.228,3.359 c 1.421,2.141 2.67,4.261 3.759,6.355 v -9.714 h 30.699 v 9.547 c 0.456,-0.573 0.926,-1.135 1.425,-1.674 4.492,-4.857 10.419,-7.873 15.467,-7.873 H 10.812 V 0.09 H 3.301 C 2.191,0.09 1.091,0.06 0,0 m 227.815,94.015 c 0,-7.607 -2.295,-15.789 -6.822,-24.32 l -2.118,-3.99 h -66.938 v 9.149 c -1.013,-1.914 -2.158,-3.844 -3.449,-5.791 L 146.26,65.705 H 98.498 V 94.576 H 96.685 V 65.705 H 65.136 V 94.576 H 63.634 V 75.001 c 0,-3.982 -2.239,-10.391 -7.243,-15.73 C 51.842,54.417 43.279,48.631 28.32,48.631 H 20.81 V 68.97 c -2.917,1.515 -5.145,3.352 -6.785,5.044 -1.233,1.272 -2.323,2.677 -3.253,4.151 C 9.425,75.175 7.738,72.139 5.698,69.063 L 3.47,65.705 h -47.762 v 26.387 h -9.535 V 65.705 h -30.394 c -1.136,-2.171 -2.648,-4.381 -4.571,-6.434 -4.549,-4.854 -13.111,-10.64 -28.07,-10.64 h -7.512 V 68.97 c -2.916,1.515 -5.144,3.352 -6.783,5.044 -0.738,0.761 -1.424,1.57 -2.056,2.413 V 65.705 h -30.777 v 10.253 c -0.708,-0.863 -1.464,-1.698 -2.276,-2.496 -4.876,-4.785 -11.039,-7.757 -16.083,-7.757 h -12.511 c -5.044,0 -11.206,2.972 -16.082,7.757 -5.619,5.514 -8.773,12.674 -8.943,20.223 l -2.18,-2.214 h -18.98 c -1.273,-12.291 -5.077,-20.902 -5.268,-21.329 l -1.99,-4.437 h -23.882 v 77.343 h 44.581 c 5.185,0 11.275,-6.05 11.953,-6.74 5.077,-5.171 7.76,-11.422 7.76,-18.079 0,-0.445 -0.017,-0.892 -0.041,-1.338 5.187,3.635 10.814,5.28 14.307,5.28 h 10.041 c 3.783,0 10.071,-1.924 15.591,-6.223 1.483,-1.155 2.814,-2.423 4.003,-3.779 v 34.992 h 30.777 v -24.99 h 79.31 v -1.02 c 2.82,0.591 5.801,0.906 8.93,0.942 l 0.681,0.007 v 20.948 h 30.776 v -20.877 h 11.891 l 1.75,-1.018 c 0.288,-0.168 3.715,-2.214 7.169,-6.287 v 7.305 h 56.34 v -0.078 h 1.502 v 20.955 h 31.549 v -20.955 h 1.813 v 20.955 h 30.776 v -20.877 h 11.89 l 1.751,-1.018 c 0.34,-0.198 5.052,-3.01 9.022,-8.692 v 9.71 h 61.851 l 2.01,-1.52 c 0.491,-0.37 12.017,-9.283 12.017,-26.636"
       style="fill:#000000;fill-opacity:1;fill-rule:nonzero;stroke:none"
       transform="matrix(1.3333333,0,0,-1.3333333,362.9128,196.2152)"
       clip-path="url(#clipPath2)" />
    <path
       id="path3"
       d="M 248.996,36.383 H 237.798 V 20.006 h 11.198 z M 237.18,7.511 c -5.329,0 -15.909,7.528 -15.909,21.11 0,14.591 12.434,20.334 16.835,20.334 h 26.567 V 22.102 c 3.089,0.699 6.719,1.165 10.812,1.165 V 7.511 Z M 197.1,48.955 h 15.677 V 7.511 H 197.1 Z m 0,20.877 h 15.677 V 53.999 H 197.1 Z M 167.986,7.511 v 28.948 h -8.804 V 7.511 h -15.754 v 41.444 h 33.053 c 0,0 10.89,-6.286 10.89,-19.868 0,-5.82 -2.086,-12.961 -7.801,-21.576 z m -59,28.872 H 97.788 V 20.006 h 11.198 z M 97.17,7.511 c -5.329,0 -15.909,7.528 -15.909,21.11 0,14.591 12.434,20.334 16.836,20.334 h 26.566 V 22.102 c 3.089,0.699 6.719,1.165 10.813,1.165 V 7.511 Z m -40.774,0 V 31.648 C 51.068,20.86 45.739,13.72 45.739,13.72 H 34.078 c 0,0 -5.484,7.218 -10.812,18.083 V 7.511 H 7.588 V 69.832 H 23.266 L 39.87,27.612 56.396,69.832 H 72.074 V 7.511 Z m 418.64,96.392 v 28.949 h -6.024 v -28.949 h -15.678 v 28.949 h -5.946 v -28.949 h -15.754 v 41.444 h 51.819 c 0,0 9.036,-6.83 9.036,-20.644 0,-5.743 -1.622,-12.651 -5.946,-20.8 z m -72.207,0 v 28.949 h -8.881 v -28.949 h -15.755 v 62.321 h 15.755 v -20.877 h 17.376 c 0,0 10.812,-6.286 10.812,-19.868 0,-5.821 -2.008,-12.961 -7.723,-21.576 z m -57.997,0 v 28.871 h -8.882 v 12.496 h 8.882 v 20.954 h 16.526 V 145.27 h 8.958 v -12.496 h -8.958 v -28.871 z m -44.327,-4.191 h 12.125 v 4.734 c -1.699,-0.31 -3.476,-0.543 -5.406,-0.543 -14.673,0 -20.234,10.788 -20.234,15.833 v 25.611 h 15.754 v -29.104 h 9.886 v 29.104 h 15.678 v -39.658 c 0,-3.105 -4.634,-18.86 -27.803,-18.86 z m -40.466,4.191 v 28.949 h -8.881 v -28.949 h -15.754 v 62.321 h 15.754 v -20.877 h 17.376 c 0,0 10.813,-6.286 10.813,-19.868 0,-5.821 -2.009,-12.961 -7.723,-21.576 z m -65.024,0 v 41.444 h 15.755 v -4.346 c 4.247,2.561 9.653,4.191 16.527,4.269 v -14.979 h -16.45 v -26.388 z m -39.693,-4.191 h 12.125 v 4.734 c -1.699,-0.31 -3.475,-0.543 -5.406,-0.543 -14.673,0 -20.234,10.788 -20.234,15.833 v 25.611 h 15.755 v -29.104 h 9.885 v 29.104 h 15.677 v -39.658 c 0,-3.105 -4.633,-18.86 -27.802,-18.86 z m -39.616,70.625 H 131.46 V 103.903 H 115.706 Z M 88.909,132.929 H 78.175 V 116.398 H 88.909 Z M 77.325,103.903 c -5.484,0 -17.531,7.916 -17.531,21.11 0,14.746 14.519,20.334 18.766,20.334 H 88.6 c 4.248,0 18.767,-5.588 18.767,-20.334 0,-13.194 -12.048,-21.11 -17.531,-21.11 z M 37.63,153.729 H 24.038 V 142.165 H 37.63 Z M 24.038,129.67 c -0.078,-14.746 -5.02,-25.767 -5.02,-25.767 H 7.511 v 62.321 h 37.07 c 1.313,0 12.202,-6.209 12.202,-17.307 0,-5.355 -2.472,-11.796 -9.808,-19.247 z"
       style="fill:#ffffff;fill-opacity:1;fill-rule:nonzero;stroke:none"
       transform="matrix(1.3333333,0,0,-1.3333333,0,237.132)"
       clip-path="url(#clipPath4)" />
    <path
       id="path5"
       d="m 0,0 c 0,-5.531 -4.483,-10.015 -10.015,-10.015 -5.53,0 -10.014,4.484 -10.014,10.015 0,5.531 4.484,10.015 10.014,10.015 C -4.483,10.015 0,5.531 0,0"
       style="fill:#ee186c;fill-opacity:1;fill-rule:nonzero;stroke:none"
       transform="matrix(1.3333333,0,0,-1.3333333,124.79293,70.9652)"
       clip-path="url(#clipPath6)" />
    <path
       id="path7"
       d="M 0,0 C -2.03,0 -3.914,0.626 -5.472,1.692 L 8.01,15.173 C 9.076,13.616 9.702,11.732 9.702,9.702 9.702,4.344 5.358,0 0,0 m -9.702,9.702 c 0,5.358 4.344,9.702 9.702,9.702 2.031,0 3.914,-0.626 5.472,-1.693 L -8.009,4.23 C -9.076,5.788 -9.702,7.671 -9.702,9.702 M 0,23.159 c -7.42,0 -13.458,-6.037 -13.458,-13.457 0,-7.421 6.038,-13.458 13.458,-13.458 7.42,0 13.458,6.037 13.458,13.458 0,7.42 -6.038,13.457 -13.458,13.457"
       style="fill:#000000;fill-opacity:1;fill-rule:nonzero;stroke:none"
       transform="matrix(1.3333333,0,0,-1.3333333,111.44013,83.9008)"
       clip-path="url(#clipPath8)" />
  </g>
</svg>
