<?xml version="1.0" encoding="UTF-8" standalone="no"?>
<!-- Created with Inkscape (http://www.inkscape.org/) -->

<svg
   version="1.1"
   id="svg1"
   width="666.66669"
   height="357.98401"
   viewBox="0 0 666.66669 357.98401"
   sodipodi:docname="Polyrhythm Mania Story Mode Logo.ai"
   xmlns:inkscape="http://www.inkscape.org/namespaces/inkscape"
   xmlns:sodipodi="http://sodipodi.sourceforge.net/DTD/sodipodi-0.dtd"
   xmlns="http://www.w3.org/2000/svg"
   xmlns:svg="http://www.w3.org/2000/svg">
  <defs
     id="defs1">
    <clipPath
       clipPathUnits="userSpaceOnUse"
       id="clipPath2">
      <path
         d="M 0,268.488 H 500 V 0 H 0 Z"
         transform="translate(-380.64771,-120.1896)"
         id="path2" />
    </clipPath>
    <clipPath
       clipPathUnits="userSpaceOnUse"
       id="clipPath4">
      <path
         d="M 0,268.488 H 500 V 0 H 0 Z"
         id="path4" />
    </clipPath>
    <clipPath
       clipPathUnits="userSpaceOnUse"
       id="clipPath6">
      <path
         d="M 0,268.488 H 500 V 0 H 0 Z"
         transform="translate(-93.595,-215.26481)"
         id="path6" />
    </clipPath>
    <clipPath
       clipPathUnits="userSpaceOnUse"
       id="clipPath8">
      <path
         d="M 0,268.488 H 500 V 0 H 0 Z"
         transform="translate(-83.580302,-205.56261)"
         id="path8" />
    </clipPath>
    <clipPath
       clipPathUnits="userSpaceOnUse"
       id="clipPath10">
      <path
         d="M 0,268.488 H 500 V 0 H 0 Z"
         transform="translate(-253.12521,-56.474701)"
         id="path10" />
    </clipPath>
    <clipPath
       clipPathUnits="userSpaceOnUse"
       id="clipPath12">
      <path
         d="M 0,268.488 H 500 V 0 H 0 Z"
         transform="translate(-209.908,-6.3273002)"
         id="path12" />
    </clipPath>
  </defs>
  <sodipodi:namedview
     id="namedview1"
     pagecolor="#ffffff"
     bordercolor="#000000"
     borderopacity="0.25"
     inkscape:showpageshadow="2"
     inkscape:pageopacity="0.0"
     inkscape:pagecheckerboard="0"
     inkscape:deskcolor="#d1d1d1">
    <inkscape:page
       x="0"
       y="0"
       inkscape:label="1"
       id="page1"
       width="666.66669"
       height="357.98401"
       margin="0"
       bleed="0" />
  </sodipodi:namedview>
  <g
     id="layer-MC0"
     inkscape:groupmode="layer"
     inkscape:label="Layer 1">
    <path
       id="path1"
       d="m 0,0 v 25.778 h -34.078 c -5.09,0 -12.509,-3.164 -17.818,-9.466 v 30.344 h -30.7 V 15.801 15.692 c -4.05,5.944 -9.002,8.878 -9.351,9.08 l -1.743,1.006 h -42.578 V 0.09 h -0.441 c -1.109,0 -2.21,-0.03 -3.301,-0.09 v 25.778 h -34.077 c -5.317,0 -13.172,-3.451 -18.512,-10.324 v 31.202 h -28.315 l -11.417,-29.167 -11.471,29.167 h -28.305 v -77.343 h 30.699 v 6.208 h 18.109 v -6.208 h 30.7 v 10.455 c 0.656,-0.897 1.359,-1.762 2.118,-2.582 4.492,-4.857 10.418,-7.873 15.467,-7.873 h 86.431 l 2.229,3.358 c 1.42,2.142 2.669,4.262 3.758,6.356 v -9.714 h 30.7 v 9.547 c 0.455,-0.573 0.925,-1.135 1.424,-1.674 4.493,-4.857 10.419,-7.873 15.467,-7.873 H 10.812 V 0.09 H 3.301 C 2.192,0.09 1.091,0.06 0,0 m 119.353,95.153 c 0,-7.607 -2.296,-15.79 -6.824,-24.321 l -2.117,-3.99 H 43.475 v 9.149 c -1.014,-1.913 -2.159,-3.844 -3.451,-5.79 L 37.797,66.842 H -9.965 v 28.871 h -1.813 V 66.842 h -31.549 v 28.871 h -1.502 V 76.138 c 0,-3.982 -2.24,-10.39 -7.243,-15.729 -4.549,-4.854 -13.112,-10.641 -28.071,-10.641 h -7.511 v 20.339 c -2.916,1.516 -5.144,3.352 -6.784,5.044 -1.233,1.273 -2.323,2.678 -3.252,4.152 -1.348,-2.99 -3.035,-6.027 -5.075,-9.102 l -2.228,-3.359 h -47.762 v 26.387 h -9.535 V 66.842 h -30.394 c -1.137,-2.17 -2.648,-4.381 -4.571,-6.433 -4.549,-4.854 -13.112,-10.641 -28.071,-10.641 h -7.51 v 20.339 c -2.917,1.516 -5.145,3.352 -6.784,5.044 -0.738,0.761 -1.423,1.571 -2.056,2.413 V 66.842 h -30.777 v 10.253 c -0.708,-0.863 -1.464,-1.698 -2.276,-2.495 -4.876,-4.786 -11.039,-7.758 -16.083,-7.758 h -12.511 c -5.044,0 -11.207,2.972 -16.083,7.758 -5.618,5.513 -8.773,12.673 -8.943,20.222 l -2.179,-2.213 h -18.98 c -1.273,-12.292 -5.077,-20.902 -5.268,-21.33 l -1.991,-4.437 h -23.88 v 77.343 h 44.58 c 5.185,0 11.275,-6.05 11.953,-6.74 5.076,-5.171 7.76,-11.422 7.76,-18.078 0,-0.446 -0.017,-0.892 -0.041,-1.339 5.187,3.635 10.814,5.28 14.308,5.28 h 10.04 c 3.783,0 10.071,-1.924 15.59,-6.222 1.484,-1.155 2.814,-2.424 4.004,-3.779 v 34.992 h 30.777 v -24.991 h 79.309 v -1.019 c 2.821,0.591 5.802,0.906 8.931,0.941 l 0.681,0.008 v 20.947 h 30.776 v -20.877 h 11.891 l 1.75,-1.017 c 0.288,-0.168 3.714,-2.214 7.169,-6.288 v 7.305 h 56.34 v -0.078 h 1.502 v 20.955 h 31.549 V 123.23 h 1.813 v 20.955 h 30.777 v -20.877 h 11.889 l 1.751,-1.017 c 0.34,-0.198 5.052,-3.011 9.023,-8.693 v 9.71 h 61.85 l 2.01,-1.519 c 0.49,-0.371 12.018,-9.284 12.018,-26.636"
       style="fill:#000000;fill-opacity:1;fill-rule:nonzero;stroke:none"
       transform="matrix(1.3333333,0,0,-1.3333333,507.53027,197.7312)"
       clip-path="url(#clipPath2)" />
    <path
       id="path3"
       d="m 357.459,125.884 h -11.198 v -16.376 h 11.198 z M 345.643,97.013 c -5.328,0 -15.908,7.528 -15.908,21.11 0,14.591 12.433,20.334 16.835,20.334 h 26.567 v -26.853 c 3.088,0.698 6.719,1.164 10.811,1.164 V 97.013 Z m -40.08,41.444 h 15.678 V 97.013 h -15.678 z m 0,20.877 h 15.678 V 143.501 H 305.563 Z M 276.449,97.013 v 28.949 h -8.803 V 97.013 h -15.755 v 41.444 h 33.054 c 0,0 10.889,-6.286 10.889,-19.869 0,-5.82 -2.086,-12.96 -7.801,-21.575 z m -59,28.871 h -11.198 v -16.376 h 11.198 z M 205.634,97.013 c -5.329,0 -15.91,7.528 -15.91,21.11 0,14.591 12.434,20.334 16.836,20.334 h 26.567 v -26.853 c 3.089,0.698 6.718,1.164 10.812,1.164 V 97.013 Z m -40.774,0 v 24.137 c -5.329,-10.788 -10.658,-17.928 -10.658,-17.928 h -11.661 c 0,0 -5.483,7.218 -10.812,18.083 V 97.013 h -15.677 v 62.321 h 15.677 l 16.604,-42.22 16.527,42.22 h 15.677 V 97.013 Z m 310.175,97.53 v 28.948 h -6.023 v -28.948 h -15.678 v 28.948 h -5.946 v -28.948 h -15.754 v 41.443 h 51.819 c 0,0 9.036,-6.829 9.036,-20.644 0,-5.743 -1.622,-12.65 -5.947,-20.799 z m -72.206,0 v 28.948 h -8.881 v -28.948 h -15.754 v 62.321 h 15.754 v -20.878 h 17.376 c 0,0 10.812,-6.286 10.812,-19.868 0,-5.821 -2.008,-12.961 -7.723,-21.575 z m -57.997,0 v 28.871 h -8.882 v 12.495 h 8.882 v 20.955 h 16.527 v -20.955 h 8.958 v -12.495 h -8.958 v -28.871 z m -44.327,-4.191 h 12.125 v 4.734 c -1.699,-0.311 -3.475,-0.543 -5.406,-0.543 -14.673,0 -20.234,10.788 -20.234,15.832 v 25.611 h 15.754 v -29.104 h 9.886 v 29.104 h 15.677 v -39.658 c 0,-3.105 -4.633,-18.859 -27.802,-18.859 z m -40.466,4.191 v 28.948 h -8.881 v -28.948 h -15.754 v 62.321 h 15.754 v -20.878 h 17.376 c 0,0 10.812,-6.286 10.812,-19.868 0,-5.821 -2.008,-12.961 -7.723,-21.575 z m -65.024,0 v 41.443 h 15.755 v -4.346 c 4.247,2.561 9.653,4.191 16.527,4.269 V 220.93 h -16.45 v -26.387 z m -39.693,-4.191 h 12.125 v 4.734 c -1.699,-0.311 -3.475,-0.543 -5.406,-0.543 -14.674,0 -20.234,10.788 -20.234,15.832 v 25.611 h 15.755 v -29.104 h 9.885 v 29.104 h 15.677 v -39.658 c 0,-3.105 -4.634,-18.859 -27.802,-18.859 z m -39.616,70.625 H 131.46 V 194.542 H 115.706 Z M 88.909,223.569 H 78.174 V 207.038 H 88.909 Z M 77.324,194.543 c -5.482,0 -17.53,7.916 -17.53,21.109 0,14.747 14.519,20.334 18.766,20.334 H 88.6 c 4.248,0 18.766,-5.587 18.766,-20.334 0,-13.193 -12.047,-21.109 -17.53,-21.109 z M 37.63,244.368 H 24.038 V 232.804 H 37.63 Z M 24.038,220.309 c -0.077,-14.746 -5.02,-25.766 -5.02,-25.766 H 7.511 v 62.321 h 37.07 c 1.313,0 12.201,-6.209 12.201,-17.307 0,-5.356 -2.471,-11.797 -9.808,-19.248 z"
       style="fill:#ffffff;fill-opacity:1;fill-rule:nonzero;stroke:none"
       transform="matrix(1.3333333,0,0,-1.3333333,0,357.984)"
       clip-path="url(#clipPath4)" />
    <path
       id="path5"
       d="m 0,0 c 0,-5.531 -4.484,-10.015 -10.015,-10.015 -5.531,0 -10.015,4.484 -10.015,10.015 0,5.531 4.484,10.015 10.015,10.015 C -4.484,10.015 0,5.531 0,0"
       style="fill:#ee186c;fill-opacity:1;fill-rule:nonzero;stroke:none"
       transform="matrix(1.3333333,0,0,-1.3333333,124.79333,70.964267)"
       clip-path="url(#clipPath6)" />
    <path
       id="path7"
       d="M 0,0 C -2.031,0 -3.914,0.626 -5.472,1.692 L 8.009,15.174 C 9.076,13.616 9.702,11.732 9.702,9.702 9.702,4.344 5.358,0 0,0 m -9.702,9.702 c 0,5.358 4.344,9.702 9.702,9.702 2.03,0 3.914,-0.626 5.472,-1.693 L -8.01,4.23 C -9.076,5.788 -9.702,7.671 -9.702,9.702 M 0,23.159 c -7.42,0 -13.458,-6.036 -13.458,-13.457 0,-7.42 6.038,-13.457 13.458,-13.457 7.42,0 13.457,6.037 13.457,13.457 0,7.421 -6.037,13.457 -13.457,13.457"
       style="fill:#000000;fill-opacity:1;fill-rule:nonzero;stroke:none"
       transform="matrix(1.3333333,0,0,-1.3333333,111.4404,83.900533)"
       clip-path="url(#clipPath8)" />
    <path
       id="path9"
       d="m 0,0 -21.564,-52.55 c -0.975,-2.374 -3.287,-3.925 -5.853,-3.925 h -15.8 c -1.959,0 -3.807,0.908 -5.006,2.456 -1.197,1.55 -1.611,3.567 -1.118,5.462 l 0.88,3.391 c 0.725,2.789 3.243,4.736 6.124,4.736 h 2.058 l 0.149,0.366 h -152.828 c -1.79,0 -3.496,0.757 -4.695,2.085 -1.2,1.328 -1.781,3.101 -1.6,4.881 l 6.117,52.895 c 0.394,3.168 3.086,5.547 6.279,5.547 h 39.533 c 1.785,0 3.488,-0.754 4.687,-2.076 1.199,-1.323 1.784,-3.09 1.611,-4.867 l -0.249,-2.546 h 3.354 l 0.088,0.67 c 0.418,3.145 3.1,5.495 6.273,5.495 h 9.695 c 1.823,0 3.558,-0.787 4.76,-2.159 1.201,-1.371 1.752,-3.194 1.512,-5.001 l -0.813,-6.131 H -5.854 c 2.11,0 4.081,-1.051 5.255,-2.802 C 0.576,4.174 0.801,1.952 0,0 m 191.45,6.595 c -1.201,1.359 -2.928,2.138 -4.742,2.138 h -33.91 l 1.658,14.371 c 0.207,1.792 -0.361,3.587 -1.561,4.934 -1.202,1.348 -2.92,2.118 -4.724,2.118 h -9.695 c -3.218,0 -5.923,-2.414 -6.287,-5.61 L 130.386,8.733 H 70.22 l 0.99,9.634 c 0.184,1.781 -0.397,3.557 -1.597,4.886 -1.2,1.329 -2.906,2.089 -4.697,2.089 h -9.969 c -2.316,0 -4.447,-1.267 -5.555,-3.3 L 40.104,4.997 35.228,20.872 c -0.817,2.656 -3.271,4.47 -6.049,4.47 h -9.901 c -3.182,0 -5.869,-2.364 -6.275,-5.522 l -6.78,-52.751 c -0.232,-1.803 0.324,-3.62 1.525,-4.986 1.201,-1.365 2.932,-2.147 4.751,-2.147 h 169.869 c 3.171,0 5.852,2.346 6.272,5.489 l 4.346,36.2 c 0.224,1.8 -0.336,3.61 -1.536,4.97"
       style="fill:#000000;fill-opacity:1;fill-rule:nonzero;stroke:none"
       transform="matrix(1.3333333,0,0,-1.3333333,337.50027,282.6844)"
       clip-path="url(#clipPath10)" />
    <path
       id="path11"
       d="m 0,0 0.88,3.39 h 6.309 l 6.035,14.781 H 4.61 L -0.135,52.55 H 9.56 l 3.934,-30.989 h 1.152 L 27.328,52.55 H 37.363 L 15.799,0 Z m -28.971,16.409 4.745,36.141 h 22.448 l -1.154,-3.39 h -12.07 L -19.275,16.409 Z M -44.456,49.16 H -55.847 L -59.646,19.8 h 11.665 z M -69.747,16.409 -65.07,52.55 h 30.718 l -4.339,-36.141 z m -25.039,0 4.273,32.751 h -7.393 l 0.884,3.39 h 6.915 l 1.764,13.29 h 9.696 l -1.764,-13.29 h 9.358 l -1.154,-3.39 h -8.61 L -84.682,19.8 h 9.9 l -1.152,-3.391 z m -54.955,0 1.626,16.001 h 10.444 l -1.221,-12.477 h 20.479 l 2.306,22.512 h -30.854 l 3.321,26.719 h 39.534 l -1.425,-14.579 h -10.306 l 1.29,11.054 h -19.328 l -2.372,-19.665 h 30.515 l -2.645,-29.565 z m 344.271,0.001 4.746,36.143 h 30.649 l -2.236,-17.972 h -18.718 l 0.884,3.39 h 8.544 l 1.422,11.192 H 208.497 L 204.631,19.8 h 11.734 l 1.15,8.812 h 9.698 L 225.585,16.41 Z M 178.843,49.163 H 166.84 L 163.11,19.8 h 12.344 z M 153.008,16.41 157.55,52.553 h 21.7 l 2.443,21.424 h 9.695 L 184.743,16.41 Z M 137.455,49.163 H 126.064 L 122.265,19.8 h 11.664 z M 112.164,16.41 116.84,52.553 h 30.719 l -4.34,-36.143 z m -20.035,0 L 97.08,59.538 83.381,34.581 H 79.042 L 71.38,60.283 66.294,16.41 H 55.715 l 6.782,52.751 h 9.899 l 9.29,-30.24 16.479,30.24 h 9.968 L 102.708,16.41 Z"
       style="fill:#f13d5e;fill-opacity:1;fill-rule:nonzero;stroke:none"
       transform="matrix(1.3333333,0,0,-1.3333333,279.87733,349.5476)"
       clip-path="url(#clipPath12)" />
  </g>
</svg>
