<?xml version="1.0" encoding="UTF-8" standalone="no"?>
<svg
   xmlns:dc="http://purl.org/dc/elements/1.1/"
   xmlns:cc="http://creativecommons.org/ns#"
   xmlns:rdf="http://www.w3.org/1999/02/22-rdf-syntax-ns#"
   xmlns:svg="http://www.w3.org/2000/svg"
   xmlns="http://www.w3.org/2000/svg"
   xmlns:sodipodi="http://sodipodi.sourceforge.net/DTD/sodipodi-0.dtd"
   xmlns:inkscape="http://www.inkscape.org/namespaces/inkscape"
   version="1.1"
   id="svg2"
   xml:space="preserve"
   width="1065.0907"
   height="378.85068"
   viewBox="0 0 1065.0907 378.85068"
   sodipodi:docname="Polyrhythm Mania Logo.ai"><metadata
     id="metadata8"><rdf:RDF><cc:Work
         rdf:about=""><dc:format>image/svg+xml</dc:format><dc:type
           rdf:resource="http://purl.org/dc/dcmitype/StillImage" /></cc:Work></rdf:RDF></metadata><defs
     id="defs6"><clipPath
       clipPathUnits="userSpaceOnUse"
       id="clipPath18"><path
         d="M 0,284.138 H 798.818 V 0 H 0 Z"
         id="path16" /></clipPath></defs><sodipodi:namedview
     pagecolor="#ffffff"
     bordercolor="#666666"
     borderopacity="1"
     objecttolerance="10"
     gridtolerance="10"
     guidetolerance="10"
     inkscape:pageopacity="0"
     inkscape:pageshadow="2"
     inkscape:window-width="640"
     inkscape:window-height="480"
     id="namedview4" /><g
     id="g10"
     inkscape:groupmode="layer"
     inkscape:label="Polyrhythm Mania Logo"
     transform="matrix(1.3333333,0,0,-1.3333333,0,378.85067)"><g
       id="g12"><g
         id="g14"
         clip-path="url(#clipPath18)"><g
           id="g20"
           transform="translate(434.8516,49.0273)"><path
             d="m 0,0 v 41.185 h -54.444 c -8.133,0 -19.985,-5.056 -28.468,-15.124 v 48.478 h -49.046 V 25.244 25.071 c -6.471,9.495 -14.382,14.184 -14.941,14.506 l -2.785,1.608 h -68.022 V 0.144 h -0.705 c -1.772,0 -3.531,-0.048 -5.274,-0.144 v 41.185 h -54.443 c -8.494,0 -21.044,-5.514 -29.576,-16.496 v 49.85 h -45.236 l -18.24,-46.598 -18.326,46.598 h -45.223 V -49.027 h 49.047 v 9.92 h 28.932 v -9.92 h 49.046 v 16.704 c 1.049,-1.433 2.171,-2.815 3.385,-4.126 7.175,-7.759 16.644,-12.578 24.71,-12.578 h 138.086 l 3.56,5.366 c 2.27,3.423 4.266,6.808 6.005,10.154 v -15.52 h 49.046 v 15.254 c 0.727,-0.916 1.479,-1.814 2.277,-2.676 7.176,-7.759 16.645,-12.578 24.711,-12.578 H 17.273 V 0.144 h -12 C 3.502,0.144 1.743,0.096 0,0 m 363.967,150.203 c 0,-12.154 -3.667,-25.226 -10.901,-38.856 l -3.382,-6.375 H 242.742 v 14.618 c -1.62,-3.058 -3.449,-6.142 -5.512,-9.251 l -3.559,-5.367 h -76.307 v 46.126 h -2.896 v -46.126 h -50.404 v 46.126 h -2.4 v -31.274 c 0,-6.362 -3.578,-16.599 -11.572,-25.13 -7.267,-7.756 -20.946,-17 -44.846,-17 h -12 v 32.495 c -4.659,2.421 -8.219,5.355 -10.838,8.058 -1.97,2.033 -3.712,4.277 -5.197,6.633 -2.152,-4.777 -4.848,-9.628 -8.107,-14.541 l -3.56,-5.367 h -76.306 v 42.158 h -15.233 v -42.158 h -48.559 c -1.816,-3.467 -4.23,-6.998 -7.303,-10.278 -7.268,-7.756 -20.947,-17 -44.846,-17 h -12 v 32.494 c -4.66,2.421 -8.219,5.356 -10.838,8.059 -1.179,1.216 -2.273,2.51 -3.285,3.855 v -17.13 h -49.17 v 16.381 c -1.131,-1.378 -2.338,-2.713 -3.637,-3.987 -7.79,-7.645 -17.635,-12.394 -25.694,-12.394 h -19.988 c -8.059,0 -17.904,4.749 -25.694,12.394 -8.976,8.809 -14.016,20.248 -14.287,32.308 l -3.482,-3.536 h -30.325 c -2.033,-19.637 -8.109,-33.394 -8.416,-34.076 l -3.179,-7.09 h -38.154 v 123.567 h 71.224 c 8.283,0 18.014,-9.667 19.096,-10.769 8.111,-8.26 12.398,-18.248 12.398,-28.882 0,-0.712 -0.027,-1.425 -0.065,-2.138 8.287,5.807 17.277,8.435 22.858,8.435 h 16.04 c 6.045,0 16.092,-3.074 24.909,-9.941 2.37,-1.846 4.496,-3.872 6.396,-6.038 v 55.904 h 49.17 v -39.925 h 126.708 v -1.629 c 4.506,0.944 9.269,1.447 14.268,1.504 l 1.088,0.012 v 33.467 h 49.17 v -33.354 h 18.996 l 2.797,-1.626 c 0.46,-0.268 5.934,-3.538 11.453,-10.045 v 11.671 h 90.01 v -0.124 h 2.4 v 33.478 h 50.404 v -33.478 h 2.896 v 33.478 h 49.17 v -33.354 h 18.996 l 2.797,-1.626 c 0.543,-0.316 8.071,-4.81 14.415,-13.887 v 15.513 h 98.815 l 3.211,-2.428 c 0.783,-0.592 19.199,-14.831 19.199,-42.554"
             style="fill:#000000;fill-opacity:1;fill-rule:nonzero;stroke:none"
             id="path22" /></g><path
           d="M 397.805,58.126 H 379.914 V 31.963 h 17.891 z M 378.927,12 c -8.513,0 -25.417,12.027 -25.417,33.727 0,23.31 19.865,32.485 26.898,32.485 h 42.444 V 35.311 c 4.934,1.116 10.734,1.86 17.273,1.86 V 12 Z M 314.894,78.212 H 339.94 V 12 h -25.046 z m 0,33.354 H 339.94 V 86.271 H 314.894 Z M 268.381,12 V 58.249 H 254.315 V 12 h -25.169 v 66.212 h 52.807 c 0,0 17.397,-10.043 17.397,-31.742 0,-9.299 -3.331,-20.706 -12.462,-34.47 z M 174.12,58.126 H 156.229 V 31.963 H 174.12 Z M 155.243,12 c -8.514,0 -25.417,12.027 -25.417,33.727 0,23.31 19.864,32.485 26.897,32.485 h 42.444 V 35.311 c 4.935,1.116 10.734,1.86 17.273,1.86 V 12 Z M 90.101,12 V 50.562 C 81.588,33.327 73.074,21.92 73.074,21.92 H 54.443 c 0,0 -8.759,11.531 -17.273,28.89 V 12 H 12.123 v 99.566 H 37.17 l 26.527,-67.452 26.404,67.452 h 25.047 V 12 Z m 668.834,154 v 46.249 h -9.624 V 166 h -25.047 v 46.249 h -9.5 V 166 h -25.17 v 66.212 h 82.789 c 0,0 14.435,-10.912 14.435,-32.982 0,-9.176 -2.59,-20.211 -9.5,-33.23 z m -115.361,0 v 46.249 H 629.386 V 166 h -25.17 v 99.566 h 25.17 v -33.354 h 27.76 c 0,0 17.274,-10.044 17.274,-31.742 0,-9.3 -3.208,-20.707 -12.338,-34.47 z m -92.658,0 v 46.125 h -14.189 v 19.963 h 14.189 v 33.478 h 26.403 v -33.478 h 14.313 V 212.125 H 577.319 V 166 Z m -70.818,-6.696 h 19.371 v 7.564 c -2.714,-0.496 -5.552,-0.868 -8.637,-0.868 -23.442,0 -32.326,17.235 -32.326,25.294 v 40.918 h 25.17 v -46.498 h 15.793 v 46.498 h 25.047 v -63.36 c 0,-4.96 -7.403,-30.13 -44.418,-30.13 z M 415.448,166 v 46.249 H 401.26 V 166 h -25.17 v 99.566 h 25.17 v -33.354 h 27.761 c 0,0 17.273,-10.044 17.273,-31.742 0,-9.3 -3.208,-20.707 -12.338,-34.47 z m -103.885,0 v 66.212 h 25.171 v -6.944 c 6.786,4.092 15.422,6.696 26.404,6.82 V 208.157 H 336.857 V 166 Z m -63.415,-6.696 h 19.372 v 7.564 c -2.715,-0.496 -5.553,-0.868 -8.637,-0.868 -23.443,0 -32.326,17.235 -32.326,25.294 v 40.918 h 25.17 v -46.498 h 15.793 v 46.498 h 25.046 v -63.36 c 0,-4.96 -7.403,-30.13 -44.418,-30.13 z m -63.292,112.834 h 25.17 V 166 h -25.17 z m -42.812,-59.765 h -17.15 v -26.411 h 17.15 z M 123.537,166 c -8.761,0 -28.008,12.647 -28.008,33.726 0,23.558 23.196,32.486 29.982,32.486 h 16.04 c 6.786,0 29.982,-8.928 29.982,-32.486 C 171.533,178.647 152.285,166 143.525,166 Z M 60.119,245.603 H 38.404 V 227.128 H 60.119 Z M 38.404,207.166 C 38.28,183.606 30.384,166 30.384,166 H 12 v 99.566 h 59.224 c 2.097,0 19.494,-9.92 19.494,-27.65 0,-8.556 -3.948,-18.847 -15.67,-30.75 z"
           style="fill:#ffffff;fill-opacity:1;fill-rule:nonzero;stroke:none"
           id="path24" /><g
           id="g26"
           transform="translate(149.5308,199.1055)"><path
             d="m 0,0 c 0,-8.836 -7.164,-16 -16,-16 -8.836,0 -16,7.164 -16,16 0,8.837 7.164,16 16,16 C -7.164,16 0,8.837 0,0"
             style="fill:#ee186c;fill-opacity:1;fill-rule:nonzero;stroke:none"
             id="path28" /></g><g
           id="g30"
           transform="translate(133.5308,183.6055)"><path
             d="M 0,0 C -3.244,0 -6.253,1 -8.742,2.704 L 12.796,24.242 C 14.5,21.753 15.5,18.744 15.5,15.5 15.5,6.94 8.561,0 0,0 M -15.5,15.5 C -15.5,24.061 -8.561,31 0,31 3.244,31 6.253,30 8.742,28.296 L -12.796,6.758 C -14.5,9.248 -15.5,12.256 -15.5,15.5 M 0,37 C -11.855,37 -21.5,27.355 -21.5,15.5 -21.5,3.645 -11.855,-6 0,-6 11.855,-6 21.5,3.645 21.5,15.5 21.5,27.355 11.855,37 0,37"
             style="fill:#000000;fill-opacity:1;fill-rule:nonzero;stroke:none"
             id="path32" /></g></g></g></g></svg>
