<?xml version="1.0" encoding="UTF-8" standalone="no"?>
<!-- Created with Inkscape (http://www.inkscape.org/) -->

<svg
   version="1.1"
   id="svg1"
   width="666.66669"
   height="197.51466"
   viewBox="0 0 666.66669 197.51466"
   sodipodi:docname="Pomegranate Mania Logo.ai"
   xmlns:inkscape="http://www.inkscape.org/namespaces/inkscape"
   xmlns:sodipodi="http://sodipodi.sourceforge.net/DTD/sodipodi-0.dtd"
   xmlns="http://www.w3.org/2000/svg"
   xmlns:svg="http://www.w3.org/2000/svg">
  <defs
     id="defs1">
    <clipPath
       clipPathUnits="userSpaceOnUse"
       id="clipPath2">
      <path
         d="M 0,148.136 H 500 V 0 H 0 Z"
         transform="translate(-235.53741,-26.193703)"
         id="path2" />
    </clipPath>
    <clipPath
       clipPathUnits="userSpaceOnUse"
       id="clipPath4">
      <path
         d="M 0,148.136 H 500 V 0 H 0 Z"
         id="path4" />
    </clipPath>
    <clipPath
       clipPathUnits="userSpaceOnUse"
       id="clipPath6">
      <path
         d="M 0,148.136 H 500 V 0 H 0 Z"
         transform="translate(-80.6614,-106.6454)"
         id="path6" />
    </clipPath>
    <clipPath
       clipPathUnits="userSpaceOnUse"
       id="clipPath8">
      <path
         d="M 0,148.136 H 500 V 0 H 0 Z"
         transform="translate(-72.097902,-98.349502)"
         id="path8" />
    </clipPath>
  </defs>
  <sodipodi:namedview
     id="namedview1"
     pagecolor="#ffffff"
     bordercolor="#000000"
     borderopacity="0.25"
     inkscape:showpageshadow="2"
     inkscape:pageopacity="0.0"
     inkscape:pagecheckerboard="0"
     inkscape:deskcolor="#d1d1d1">
    <inkscape:page
       x="0"
       y="0"
       inkscape:label="1"
       id="page1"
       width="666.66669"
       height="197.51466"
       margin="0"
       bleed="0" />
  </sodipodi:namedview>
  <g
     id="layer-MC0"
     inkscape:groupmode="layer"
     inkscape:label="Layer 1">
    <path
       id="path1"
       d="m 0,0 h 6.422 v -26.193 h -39.176 c -4.317,0 -9.385,2.567 -13.226,6.7 -0.427,0.459 -0.829,0.937 -1.219,1.425 v -8.125 h -26.25 v 8.267 c -0.931,-1.782 -1.999,-3.586 -3.215,-5.409 l -1.905,-2.858 h -73.906 c -4.317,0 -9.385,2.567 -13.226,6.7 -0.649,0.698 -1.249,1.434 -1.811,2.198 v -8.898 h -26.251 v 5.284 h -15.484 v -5.284 h -26.251 v 65.824 h 24.204 l 9.808,-24.823 9.763,24.823 h 24.211 V 13.076 c 4.567,5.85 11.283,8.787 15.829,8.787 h 29.14 V -0.076 c 0.933,0.051 1.874,0.076 2.822,0.076 h 0.378 v 21.863 h 36.407 l 1.49,-0.856 c 0.3,-0.172 4.533,-2.669 7.997,-7.728 v 0.092 26.26 h 26.25 V 13.807 c 4.541,5.363 10.884,8.056 15.237,8.056 H -2.823 V -0.076 C -1.89,-0.025 -0.948,0 0,0 m 264.462,80.563 v -9.978 h -3.028 V 56.233 h -28.739 c -4.306,0 -9.352,2.566 -13.169,6.697 -2.325,2.516 -4.086,5.478 -5.228,8.704 V 56.233 h -63.893 c -4.304,0 -9.357,2.561 -13.189,6.684 -0.964,1.037 -1.826,2.152 -2.595,3.328 -1.111,-2.347 -2.472,-4.733 -4.085,-7.152 l -1.907,-2.86 H 54.818 c -4.303,0 -9.357,2.561 -13.189,6.683 -3.952,4.252 -6.296,9.77 -6.719,15.701 H 29.839 V 56.233 H 3.888 C 2.922,54.408 1.645,52.551 0.026,50.824 -3.855,46.685 -11.159,41.75 -23.916,41.75 h -6.422 v 16.271 c -2.241,1.152 -4.421,2.802 -6.306,4.83 -0.464,0.5 -0.902,1.021 -1.323,1.555 v -8.173 h -28.74 c -4.305,0 -9.351,2.566 -13.168,6.697 -0.584,0.632 -1.13,1.294 -1.642,1.979 -0.718,-1.739 -1.549,-3.498 -2.498,-5.275 l -1.813,-3.401 h -57.083 v 9 c -0.672,-0.838 -1.396,-1.648 -2.182,-2.416 -4.159,-4.061 -9.413,-6.584 -13.712,-6.584 h -10.665 c -4.299,0 -9.553,2.523 -13.712,6.584 -4.817,4.704 -7.514,10.819 -7.643,17.266 -0.029,-0.029 -0.055,-0.059 -0.084,-0.088 l -1.885,-1.905 h -16.164 c -1.091,-10.416 -4.329,-17.711 -4.492,-18.073 l -1.705,-3.784 h -20.383 v 65.709 h 38.023 c 4.418,0 9.614,-5.135 10.192,-5.721 4.339,-4.397 6.632,-9.716 6.632,-15.382 0,-0.387 -0.015,-0.775 -0.036,-1.163 4.454,3.14 9.308,4.557 12.31,4.557 h 8.559 c 3.224,0 8.584,-1.632 13.29,-5.279 1.366,-1.058 2.583,-2.227 3.657,-3.483 v 8.762 h 52.742 l 1.715,-1.29 c 0.243,-0.182 3.652,-2.809 6.475,-7.855 4.544,6.135 11.435,9.211 16.062,9.211 h 10.27 c 4.773,0 11.952,-3.277 16.481,-9.804 4.532,6.483 11.678,9.738 16.435,9.738 h 52.505 v -0.86 c 2.398,0.499 4.934,0.764 7.594,0.794 l 6.494,0.073 v -4.706 c 3.95,3.128 8.428,4.699 11.746,4.699 H 84.677 V 82.368 c 0.924,0.049 1.856,0.075 2.794,0.075 h 0.488 v 21.79 h 36.313 l 1.486,-0.853 c 0.324,-0.186 5.256,-3.095 8.828,-9.031 4.539,6.581 11.794,9.884 16.609,9.884 h 29.069 v -0.066 h 7.101 v 17.775 h 26.933 v -17.775 h 7.637 v -4.45 c 3.898,3.053 8.286,4.582 11.549,4.582 h 10.27 c 7.432,0 20.708,-7.932 20.708,-23.736"
       style="fill:#000000;fill-opacity:1;fill-rule:nonzero;stroke:none"
       transform="matrix(1.3333333,0,0,-1.3333333,314.04987,162.58973)"
       clip-path="url(#clipPath2)" />
    <path
       id="path3"
       d="m 212.886,30.964 h -9.575 V 17.026 h 9.575 z M 202.783,6.393 c -4.557,0 -13.604,6.406 -13.604,17.966 0,12.418 10.632,17.305 14.396,17.305 h 22.717 V 18.81 c 2.641,0.595 5.745,0.991 9.245,0.991 V 6.393 Z m -34.272,35.271 h 13.405 V 6.393 h -13.405 z m 0,17.769 h 13.405 V 45.957 H 168.511 Z M 143.616,6.393 V 31.03 h -7.528 V 6.393 h -13.471 v 35.271 h 28.264 c 0,0 9.311,-5.35 9.311,-16.909 0,-4.954 -1.784,-11.03 -6.67,-18.362 z M 93.166,30.964 H 83.59 V 17.026 h 9.576 z M 83.062,6.393 c -4.556,0 -13.603,6.406 -13.603,17.966 0,12.418 10.632,17.305 14.396,17.305 h 22.717 V 18.81 c 2.641,0.595 5.745,0.991 9.245,0.991 V 6.393 Z m -34.864,0 V 26.935 C 43.641,17.753 39.084,11.677 39.084,11.677 h -9.971 c 0,0 -4.689,6.143 -9.246,15.39 V 6.393 H 6.462 v 53.04 H 19.867 L 34.066,23.5 48.198,59.433 H 61.603 V 6.393 Z m 431.357,107.21 h -10.73 v -3.423 h 10.73 z M 468.232,88.849 c -4.543,0 -13.496,6.386 -13.496,17.907 0,12.377 10.599,17.314 14.285,17.314 h 10.271 c 3.686,0 14.285,-4.937 14.285,-17.314 v -3.554 h -24.752 v -3.753 h 21.724 v -10.6 z m -38.907,0 v 24.49 h -7.57 v 10.599 h 7.57 v 17.775 h 14.088 v -17.775 h 7.637 v -10.599 h -7.637 v -24.49 z m -33.311,24.49 h -9.545 V 99.448 h 9.545 z m -10.072,-24.49 c -4.543,0 -13.561,6.386 -13.561,17.907 0,12.377 10.598,17.248 14.351,17.248 h 22.647 v -22.778 c 2.632,0.593 5.727,0.988 9.216,0.988 V 88.849 Z m -35.088,0 v 24.556 h -7.505 V 88.849 H 329.92 v 35.155 h 28.176 c 0,0 9.283,-5.332 9.283,-16.853 0,-4.937 -1.778,-10.994 -6.65,-18.302 z m -50.426,24.49 h -9.547 V 99.448 h 9.547 z m -10.073,-24.49 c -4.542,0 -13.561,6.386 -13.561,17.907 0,12.377 10.599,17.248 14.351,17.248 h 22.647 v -22.778 c 2.634,0.593 5.727,0.988 9.217,0.988 V 88.849 Z m -44.896,0 v 35.155 h 13.429 v -3.686 c 3.622,2.172 8.23,3.555 14.088,3.62 V 111.233 H 258.955 V 88.849 Z m -23.568,24.49 h -9.282 V 99.382 h 9.282 z M 211.622,85.295 h 10.269 v 3.489 h -9.809 c -4.542,0 -13.561,6.386 -13.561,17.906 0,12.311 10.467,17.314 14.285,17.314 h 22.516 V 90.43 c 0,-2.634 -3.951,-16.063 -23.7,-16.063 z m -31.468,28.308 h -10.731 v -3.423 h 10.731 z M 168.831,88.849 c -4.543,0 -13.496,6.386 -13.496,17.907 0,12.377 10.599,17.314 14.286,17.314 h 10.269 c 3.687,0 14.286,-4.937 14.286,-17.314 v -3.554 h -24.753 v -3.753 h 21.725 v -10.6 z m -32.784,0 v 24.556 h -5.135 V 88.849 h -13.364 v 24.556 h -5.069 V 88.849 h -13.43 v 35.155 h 44.173 c 0,0 7.703,-5.793 7.703,-17.511 0,-4.872 -1.382,-10.731 -5.069,-17.644 z M 75.942,113.471 H 66.791 V 99.449 h 9.151 z M 66.067,88.849 c -4.674,0 -14.944,6.716 -14.944,17.907 0,12.509 12.377,17.248 15.998,17.248 h 8.558 c 3.621,0 15.998,-4.739 15.998,-17.248 0,-11.191 -10.271,-17.907 -14.945,-17.907 z m -33.97,42.265 H 20.511 v -9.809 H 32.097 Z M 20.511,110.706 C 20.445,98.198 16.232,88.849 16.232,88.849 H 6.423 v 52.864 h 31.599 c 1.119,0 10.402,-5.266 10.402,-14.68 0,-4.543 -2.107,-10.007 -8.361,-16.327 z"
       style="fill:#ffffff;fill-opacity:1;fill-rule:nonzero;stroke:none"
       transform="matrix(1.3333333,0,0,-1.3333333,0,197.51467)"
       clip-path="url(#clipPath4)" />
    <path
       id="path5"
       d="m 0,0 c 0,-4.729 -3.834,-8.563 -8.563,-8.563 -4.73,0 -8.564,3.834 -8.564,8.563 0,4.729 3.834,8.563 8.564,8.563 C -3.834,8.563 0,4.729 0,0"
       style="fill:#ee186c;fill-opacity:1;fill-rule:nonzero;stroke:none"
       transform="matrix(1.3333333,0,0,-1.3333333,107.54853,55.3208)"
       clip-path="url(#clipPath6)" />
    <path
       id="path7"
       d="M 0,0 C -1.736,0 -3.347,0.535 -4.679,1.447 L 6.849,12.975 C 7.761,11.643 8.296,10.032 8.296,8.296 8.296,3.714 4.582,0 0,0 m -8.296,8.296 c 0,4.581 3.714,8.296 8.296,8.296 1.736,0 3.347,-0.535 4.679,-1.447 L -6.849,3.617 C -7.761,4.949 -8.296,6.56 -8.296,8.296 M 0,19.803 c -6.345,0 -11.507,-5.162 -11.507,-11.507 0,-6.345 5.162,-11.507 11.507,-11.507 6.345,0 11.507,5.162 11.507,11.507 0,6.345 -5.162,11.507 -11.507,11.507"
       style="fill:#000000;fill-opacity:1;fill-rule:nonzero;stroke:none"
       transform="matrix(1.3333333,0,0,-1.3333333,96.130533,66.382)"
       clip-path="url(#clipPath8)" />
  </g>
</svg>
