<?xml version="1.0" encoding="UTF-8" standalone="no"?>
<!-- Created with Inkscape (http://www.inkscape.org/) -->

<svg
   version="1.1"
   id="svg1"
   width="666.66669"
   height="478.32266"
   viewBox="0 0 666.66669 478.32266"
   sodipodi:docname="Rhythm Paradise Advance (FRA) Logo (Wordmark).ai"
   xmlns:inkscape="http://www.inkscape.org/namespaces/inkscape"
   xmlns:sodipodi="http://sodipodi.sourceforge.net/DTD/sodipodi-0.dtd"
   xmlns="http://www.w3.org/2000/svg"
   xmlns:svg="http://www.w3.org/2000/svg">
  <defs
     id="defs1">
    <clipPath
       clipPathUnits="userSpaceOnUse"
       id="clipPath2">
      <path
         d="M 0,358.742 H 500 V 0 H 0 Z"
         transform="translate(-470.09151,-43.084401)"
         id="path2" />
    </clipPath>
    <clipPath
       clipPathUnits="userSpaceOnUse"
       id="clipPath4">
      <path
         d="M 0,358.742 H 500 V 0 H 0 Z"
         transform="translate(-491.61001,-85.2954)"
         id="path4" />
    </clipPath>
    <clipPath
       clipPathUnits="userSpaceOnUse"
       id="clipPath6">
      <path
         d="M 0,358.742 H 500 V 0 H 0 Z"
         transform="translate(-454.89421,-144.63911)"
         id="path6" />
    </clipPath>
    <clipPath
       clipPathUnits="userSpaceOnUse"
       id="clipPath8">
      <path
         d="M 0,358.742 H 500 V 0 H 0 Z"
         transform="translate(-423.36391,-204.8496)"
         id="path8" />
    </clipPath>
    <clipPath
       clipPathUnits="userSpaceOnUse"
       id="clipPath10">
      <path
         d="M 0,358.742 H 500 V 0 H 0 Z"
         transform="translate(-380.65011,-152.3618)"
         id="path10" />
    </clipPath>
    <clipPath
       clipPathUnits="userSpaceOnUse"
       id="clipPath12">
      <path
         d="M 0,358.742 H 500 V 0 H 0 Z"
         transform="translate(-325.40201,-147.7338)"
         id="path12" />
    </clipPath>
    <clipPath
       clipPathUnits="userSpaceOnUse"
       id="clipPath14">
      <path
         d="M 0,358.742 H 500 V 0 H 0 Z"
         transform="translate(-284.36101,-136.40861)"
         id="path14" />
    </clipPath>
    <clipPath
       clipPathUnits="userSpaceOnUse"
       id="clipPath16">
      <path
         d="M 0,358.742 H 500 V 0 H 0 Z"
         transform="translate(-234.6637,-124.93991)"
         id="path16" />
    </clipPath>
    <clipPath
       clipPathUnits="userSpaceOnUse"
       id="clipPath18">
      <path
         d="M 0,358.742 H 500 V 0 H 0 Z"
         transform="translate(-170.5338,-130.69091)"
         id="path18" />
    </clipPath>
    <clipPath
       clipPathUnits="userSpaceOnUse"
       id="clipPath20">
      <path
         d="M 0,358.742 H 500 V 0 H 0 Z"
         transform="translate(-123.2677,-90.5454)"
         id="path20" />
    </clipPath>
    <clipPath
       clipPathUnits="userSpaceOnUse"
       id="clipPath22">
      <path
         d="M 0,358.742 H 500 V 0 H 0 Z"
         transform="translate(-61.938101,-104.8442)"
         id="path22" />
    </clipPath>
    <clipPath
       clipPathUnits="userSpaceOnUse"
       id="clipPath24">
      <path
         d="M 0,358.742 H 500 V 0 H 0 Z"
         transform="translate(-391.57881,-355.68891)"
         id="path24" />
    </clipPath>
    <clipPath
       clipPathUnits="userSpaceOnUse"
       id="clipPath26">
      <path
         d="M 0,358.742 H 500 V 0 H 0 Z"
         transform="translate(-299.1706,-308.21771)"
         id="path26" />
    </clipPath>
    <clipPath
       clipPathUnits="userSpaceOnUse"
       id="clipPath28">
      <path
         d="M 0,358.742 H 500 V 0 H 0 Z"
         transform="translate(-206.7619,-301.33741)"
         id="path28" />
    </clipPath>
    <clipPath
       clipPathUnits="userSpaceOnUse"
       id="clipPath30">
      <path
         d="M 0,358.742 H 500 V 0 H 0 Z"
         transform="translate(-200.2345,-279.19281)"
         id="path30" />
    </clipPath>
    <clipPath
       clipPathUnits="userSpaceOnUse"
       id="clipPath32">
      <path
         d="M 0,358.742 H 500 V 0 H 0 Z"
         transform="translate(-119.00601,-280.57421)"
         id="path32" />
    </clipPath>
    <clipPath
       clipPathUnits="userSpaceOnUse"
       id="clipPath34">
      <path
         d="M 0,358.742 H 500 V 0 H 0 Z"
         transform="translate(-28.3024,-230.47361)"
         id="path34" />
    </clipPath>
  </defs>
  <sodipodi:namedview
     id="namedview1"
     pagecolor="#ffffff"
     bordercolor="#000000"
     borderopacity="0.25"
     inkscape:showpageshadow="2"
     inkscape:pageopacity="0.0"
     inkscape:pagecheckerboard="0"
     inkscape:deskcolor="#d1d1d1">
    <inkscape:page
       x="0"
       y="0"
       inkscape:label="1"
       id="page1"
       width="666.66669"
       height="478.32266"
       margin="0"
       bleed="0" />
  </sodipodi:namedview>
  <g
     id="layer-MC0"
     inkscape:groupmode="layer"
     inkscape:label="Layer 1">
    <path
       id="path1"
       d="M 0,0 13.265,3.062 6.695,19.267 6.632,19.252 Z m 20.398,-14.381 -3.879,9.437 -19.835,-4.58 -3.817,-11.213 -9.512,-2.196 18.523,52.171 9.51,2.196 18.52,-43.62 z m -49.995,24.584 c 0,0.821 -0.26,1.468 -0.782,1.941 -0.521,0.472 -1.157,0.623 -1.908,0.449 L -50.683,8.346 V -4.312 l 18.396,4.247 c 0.751,0.173 1.387,0.616 1.908,1.33 0.522,0.712 0.782,1.48 0.782,2.301 z m 0,11.769 c 1.252,0.289 2.451,0.292 3.599,0.009 1.146,-0.283 2.158,-0.791 3.034,-1.523 0.876,-0.733 1.574,-1.667 2.097,-2.8 0.521,-1.135 0.782,-2.431 0.782,-3.89 V 4.394 c 0,-1.369 -0.241,-2.736 -0.721,-4.1 -0.478,-1.366 -1.177,-2.633 -2.095,-3.803 -0.918,-1.17 -2.013,-2.187 -3.285,-3.051 -1.273,-0.864 -2.721,-1.483 -4.349,-1.859 l 11.013,-15.179 -10.324,-2.382 -11.012,15.178 -9.825,-2.268 v -17.721 l -9.573,-2.21 v 47.895 z m -42.61,-37.753 -22.212,-5.128 v -19.98 l -9.512,-2.195 V 4.811 l 36.48,8.421 V 4.475 l -26.968,-6.227 v -10.399 l 22.212,5.128 z"
       style="fill:#000000;fill-opacity:1;fill-rule:nonzero;stroke:none"
       transform="matrix(1.3333333,0,0,-1.3333333,626.78867,420.8768)"
       clip-path="url(#clipPath2)" />
    <path
       id="path3"
       d="M 0,0 -41.635,-9.612 V 44.96 L 0,54.572 v -9.978 l -30.727,-7.095 v -11.85 l 25.238,5.828 v -9.98 L -30.727,15.671 V 2.885 L 0,9.979 Z m -79.064,-18.253 c -1.426,-0.329 -2.792,-0.333 -4.099,-0.011 -1.309,0.322 -2.46,0.9 -3.458,1.736 -0.998,0.834 -1.795,1.897 -2.389,3.19 -0.594,1.292 -0.89,2.769 -0.89,4.433 v 30.872 c 0,1.559 0.285,3.119 0.855,4.68 0.57,1.561 1.342,2.999 2.316,4.317 0.974,1.315 2.116,2.449 3.423,3.401 1.307,0.951 2.72,1.603 4.242,1.954 l 22.6,5.217 c 1.426,0.33 2.791,0.333 4.1,0.012 1.306,-0.322 2.47,-0.9 3.493,-1.728 1.021,-0.83 1.829,-1.904 2.424,-3.221 0.593,-1.319 0.891,-2.784 0.891,-4.394 v -4.21 l -10.908,-2.518 v 2.728 c 0,0.936 -0.298,1.659 -0.891,2.172 -0.595,0.513 -1.319,0.671 -2.174,0.473 l -16.469,-3.802 c -0.856,-0.197 -1.581,-0.703 -2.175,-1.516 -0.595,-0.813 -0.891,-1.686 -0.891,-2.622 V -4.844 c 0,-0.935 0.296,-1.674 0.891,-2.211 0.594,-0.539 1.319,-0.709 2.175,-0.511 l 16.469,3.801 c 0.855,0.199 1.579,0.69 2.174,1.477 0.593,0.786 0.891,1.648 0.891,2.584 v 2.728 l 10.908,2.519 v -4.21 c 0,-1.664 -0.298,-3.278 -0.891,-4.845 -0.595,-1.567 -1.403,-3.001 -2.424,-4.301 -1.023,-1.302 -2.187,-2.416 -3.493,-3.34 -1.309,-0.926 -2.674,-1.553 -4.1,-1.882 z m -16.897,50.671 v -54.572 l -13.117,-3.029 -22.529,34.169 v -39.37 l -10.837,-2.502 v 54.573 l 13.118,3.028 22.529,-34.168 v 39.369 z m -75.143,-29.978 0.072,0.017 7.485,-18.464 -15.114,-3.489 z m 26.521,-35.819 -21.103,49.7 -10.836,-2.502 -21.103,-59.444 10.837,2.502 4.349,12.776 22.599,5.218 4.421,-10.752 z m -50.903,42.82 -21.103,-59.444 -10.837,-2.502 -21.102,49.7 11.335,2.618 15.185,-36.878 15.186,43.889 z m -65.733,-56.338 c 0,-0.936 -0.298,-1.811 -0.891,-2.623 -0.595,-0.813 -1.319,-1.318 -2.174,-1.515 l -20.961,-4.839 v 34.614 l 20.961,4.839 c 0.855,0.197 1.579,0.026 2.174,-0.512 0.593,-0.539 0.891,-1.275 0.891,-2.211 z m 10.908,31.831 c 0,1.663 -0.297,3.14 -0.891,4.433 -0.595,1.291 -1.391,2.356 -2.389,3.191 -0.998,0.834 -2.163,1.41 -3.493,1.727 -1.331,0.317 -2.709,0.31 -4.135,-0.019 l -34.863,-8.049 v -54.572 l 34.863,8.048 c 1.521,0.352 2.947,1.005 4.278,1.962 1.33,0.957 2.483,2.094 3.458,3.41 0.973,1.317 1.747,2.755 2.317,4.317 0.57,1.56 0.855,3.121 0.855,4.68 z m -74.43,-17.963 0.071,0.016 7.486,-18.463 -15.114,-3.489 z m 26.521,-35.82 -21.103,49.701 -10.837,-2.502 -21.103,-59.445 10.837,2.502 4.349,12.777 22.6,5.217 4.42,-10.752 z"
       style="fill:#000000;fill-opacity:1;fill-rule:nonzero;stroke:none"
       transform="matrix(1.3333333,0,0,-1.3333333,655.48,364.59547)"
       clip-path="url(#clipPath4)" />
    <path
       id="path5"
       d="m 0,0 v 9.042 l -2.273,-9.566 -2.462,-0.569 -2.219,8.53 V -1.605 L -9.281,-2.143 V 8.682 l 3.635,0.839 2.193,-8.08 0.026,0.007 2.139,9.079 3.588,0.828 V 0.531 Z m -16.803,-3.879 v 8.904 l -3.743,-0.864 v 1.92 l 9.902,2.286 V 6.447 L -14.253,5.614 V -3.29 Z"
       style="fill:#000000;fill-opacity:1;fill-rule:nonzero;stroke:none"
       transform="matrix(1.3333333,0,0,-1.3333333,606.5256,285.47053)"
       clip-path="url(#clipPath6)" />
    <path
       id="path7"
       d="m 0,0 c 5.236,1.973 16.196,4.92 25.403,6.917 v 28.5 L -20.606,24.794 v -76.172 l 46.009,10.622 v 12.69 c -6.04,-1.584 -18.559,-3.938 -24.04,-4.864 -6.674,-1.12 -7.623,7.38 -0.243,9.815 4.238,1.389 12.008,3.24 18.072,4.945 v 9.771 C 13.664,-9.519 6.187,-10.814 0.292,-11.642 -7.015,-12.69 -8.281,-3.118 0,0"
       style="fill:#000000;fill-opacity:1;fill-rule:nonzero;stroke:none"
       transform="matrix(1.3333333,0,0,-1.3333333,564.4852,205.18987)"
       clip-path="url(#clipPath8)" />
    <path
       id="path9"
       d="m 0,0 c -0.27,2.531 -4.647,3.104 -11.467,4.739 -11.922,2.96 -19.302,9.984 -18.548,22.323 0.802,13.319 7.545,22.607 43.232,28.667 V 28.024 C 0.339,26.414 -6.771,24.005 -9.786,21.538 c -3.216,-2.609 -3.028,-6.883 1.613,-8.434 2.017,-0.673 7.98,-2.665 11.582,-3.873 6.915,-2.304 10.298,-5.838 11.004,-12.093 1.991,-17.647 -29.946,-22.274 -43.114,-24.207 v 15.677 C -12.926,-8.213 0.608,-5.427 0,0"
       style="fill:#000000;fill-opacity:1;fill-rule:nonzero;stroke:none"
       transform="matrix(1.3333333,0,0,-1.3333333,507.53347,275.1736)"
       clip-path="url(#clipPath10)" />
    <path
       id="path11"
       d="M 0,0 V 67.906 L 17.171,71.87 V 3.964 Z"
       style="fill:#000000;fill-opacity:1;fill-rule:nonzero;stroke:none"
       transform="matrix(1.3333333,0,0,-1.3333333,433.86933,281.34427)"
       clip-path="url(#clipPath12)" />
    <path
       id="path13"
       d="m 0,0 c -4.726,-1.094 -6.771,0.486 -6.771,6.016 v 17.439 c 0,4.019 -0.208,7.229 3.605,8.306 C 5.115,34.099 14.37,29.666 15.247,20.653 16.271,10.181 10.444,2.411 0,0 M -18.413,58.139 V -15.93 C 17.391,-10.693 32.979,3.142 32.589,30.64 32.248,54.484 8.573,67.588 -18.413,58.139"
       style="fill:#000000;fill-opacity:1;fill-rule:nonzero;stroke:none"
       transform="matrix(1.3333333,0,0,-1.3333333,379.148,296.44453)"
       clip-path="url(#clipPath14)" />
    <path
       id="path15"
       d="m 0,0 -8.646,-1.996 c -2.173,-0.502 -3.411,0.851 -3.142,3.872 0.243,2.825 1.51,8.816 1.997,10.862 1.022,4.239 3.166,6.309 5.626,6.674 3.97,0.633 5.894,-2.266 7.429,-9.572 C 3.41,9.158 3.824,7.672 3.994,5.675 4.335,1.607 3.071,0.709 0,0 M 15.149,32.467 C 10.619,47.324 6.952,50.991 -2.07,48.908 -10.024,47.072 -14.546,42.931 -18.34,28.399 -22.067,14.127 -26.187,-6.271 -29.5,-29.361 l 13.132,3.032 c 0.244,1.826 0.682,3.97 1.316,7.233 0.681,3.288 2.459,5.64 5.991,6.455 l 10.23,2.362 c 2.734,0.632 5.236,-1.534 6.113,-5.188 0.585,-2.435 1.34,-5.889 1.803,-8.204 l 17.391,4.016 c -2.12,17.024 -6.821,37.362 -11.327,52.122"
       style="fill:#000000;fill-opacity:1;fill-rule:nonzero;stroke:none"
       transform="matrix(1.3333333,0,0,-1.3333333,312.88493,311.73613)"
       clip-path="url(#clipPath16)" />
    <path
       id="path17"
       d="m 0,0 c -4.461,-1.046 -6.945,1.438 -6.945,6.749 v 5.131 c 0,3.701 0.719,6.912 4.02,7.958 9.584,3.036 16.259,-1.095 16.259,-7.582 C 13.334,6.193 8.693,2.043 0,0 m 32.307,22.175 c 0,23.58 -23.074,30.427 -51.295,20.345 v -74.185 l 12.027,2.776 v 17.123 c 0,2.91 2.141,2.403 4.118,0.638 1.389,-1.242 9.739,-9.331 15.573,-15.148 l 18.36,4.239 c 0,0 -16.007,16.35 -17.854,17.968 10.753,4.02 19.071,14.496 19.071,26.244"
       style="fill:#000000;fill-opacity:1;fill-rule:nonzero;stroke:none"
       transform="matrix(1.3333333,0,0,-1.3333333,227.3784,304.06813)"
       clip-path="url(#clipPath18)" />
    <path
       id="path19"
       d="m 0,0 -8.646,-1.996 c -2.174,-0.502 -3.411,0.851 -3.143,3.872 0.244,2.825 1.511,8.816 1.997,10.862 1.023,4.239 3.167,6.309 5.627,6.674 3.97,0.634 5.894,-2.265 7.429,-9.572 C 3.41,9.158 3.824,7.673 3.994,5.675 4.335,1.607 3.071,0.709 0,0 M 15.15,32.467 C 10.62,47.324 6.952,50.991 -2.07,48.908 -10.024,47.072 -14.546,42.931 -18.34,28.399 -22.067,14.127 -26.187,-6.271 -29.5,-29.361 l 13.132,3.032 c 0.244,1.826 0.682,3.97 1.316,7.233 0.681,3.288 2.46,5.64 5.991,6.455 l 10.23,2.362 c 2.735,0.632 5.237,-1.534 6.113,-5.187 0.585,-2.436 1.34,-5.89 1.803,-8.205 l 17.391,4.016 c -2.12,17.024 -6.82,37.362 -11.326,52.122"
       style="fill:#000000;fill-opacity:1;fill-rule:nonzero;stroke:none"
       transform="matrix(1.3333333,0,0,-1.3333333,164.35693,357.59547)"
       clip-path="url(#clipPath20)" />
    <path
       id="path21"
       d="M 0,0 C -5.407,-1.322 -8.525,0.097 -8.525,4.628 V 21.02 c 0,4.629 2.558,7.55 7.648,8.209 C 9.329,30.543 13.932,24.576 13.932,16.806 13.932,10.327 10.108,2.472 0,0 M -33.93,52.879 V -49.787 l 25.43,5.871 v 24.113 c 0,4.409 1.096,6.601 3.726,7.064 23.698,4.169 40.579,16.084 40.579,40.53 0,26.844 -28.839,41.285 -69.735,25.088"
       style="fill:#000000;fill-opacity:1;fill-rule:nonzero;stroke:none"
       transform="matrix(1.3333333,0,0,-1.3333333,82.584133,338.5304)"
       clip-path="url(#clipPath22)" />
    <path
       id="path23"
       d="m 0,0 c -7.015,-23.163 -10.985,-34.489 -14.443,-44.037 -5.895,-16.245 -12.008,-9.864 -14.858,-5.334 -3.312,5.31 -7.818,15.637 -15.637,34.562 l -19.315,-4.459 v -90.918 l 16.027,3.7 c -0.122,14.492 0.122,24.332 0.901,28.156 0.707,3.434 2.777,3.921 4.872,0.511 1.728,-2.801 4.457,-8.866 9.889,-21.336 l 10.738,2.479 c 5.919,15.905 9.112,23.923 11.377,27.845 1.827,3.19 5.309,5.431 6.357,-0.463 0.804,-4.457 0.731,-16.549 0.706,-31.358 l 16.612,3.835 v 99.87 z"
       style="fill:#000000;fill-opacity:1;fill-rule:nonzero;stroke:none"
       transform="matrix(1.3333333,0,0,-1.3333333,522.10507,4.0708)"
       clip-path="url(#clipPath24)" />
    <path
       id="path25"
       d="m 0,0 c -0.073,-12.422 -0.049,-23.748 -0.585,-27.888 -1.242,-9.889 -18.145,-14.346 -18.974,-5.237 -0.389,4.287 -0.73,9.95 -0.73,22.591 l -13.664,-3.154 v -83.299 l 17.415,4.02 c 0,13.226 0,18.972 0.219,23.502 0.609,11.935 18.535,14.638 20.094,4.263 0.706,-4.726 0.829,-6.991 0.829,-17.659 l 13.882,3.205 V 4.268 Z"
       style="fill:#000000;fill-opacity:1;fill-rule:nonzero;stroke:none"
       transform="matrix(1.3333333,0,0,-1.3333333,398.89413,67.365733)"
       clip-path="url(#clipPath26)" />
    <path
       id="path27"
       d="m 0,0 v -33.529 l 9.718,2.244 c 5.895,1.361 8.33,0.593 8.33,-9.84 v -43.068 l 15.953,3.683 v 39.482 c 0,17.537 1.647,21.963 10.328,23.967 l 7.94,1.833 v 27.295 z"
       style="fill:#000000;fill-opacity:1;fill-rule:nonzero;stroke:none"
       transform="matrix(1.3333333,0,0,-1.3333333,275.68253,76.539467)"
       clip-path="url(#clipPath28)" />
    <path
       id="path29"
       d="m 0,0 -14.906,-3.441 c 0,0 0.219,-15.345 -0.365,-26.646 -0.853,-16.538 -17.513,-20.094 -18.853,-4.36 -0.682,8.257 -0.998,24.714 -0.998,24.714 l -18.535,-4.279 v -13.42 c 0,-32.029 20.824,-35.975 31.712,-26.841 0.657,0.56 1.315,0.901 1.851,0.658 0.609,-0.268 0.584,-0.926 0.341,-2.144 -0.658,-3.191 -5.383,-9.499 -14.931,-12.056 -7.282,-1.949 -14.419,-3.178 -17.975,-3.738 v -22.226 c 16.027,2.07 34.586,6.649 43.233,19.948 4.506,6.941 6.868,14.272 8.038,25.136 C 0.438,-31.597 0,0 0,0"
       style="fill:#000000;fill-opacity:1;fill-rule:nonzero;stroke:none"
       transform="matrix(1.3333333,0,0,-1.3333333,266.97933,106.0656)"
       clip-path="url(#clipPath30)" />
    <path
       id="path31"
       d="m 0,0 c -0.073,-12.421 -0.049,-23.748 -0.585,-27.888 -1.242,-9.889 -18.145,-14.346 -18.974,-5.237 -0.389,4.287 -0.73,9.951 -0.73,22.591 l -13.664,-3.154 v -83.299 l 17.414,4.021 c 0,13.225 0,18.971 0.22,23.502 0.609,11.934 18.535,14.638 20.094,4.262 0.706,-4.725 0.828,-6.99 0.828,-17.658 l 13.883,3.205 V 4.268 Z"
       style="fill:#000000;fill-opacity:1;fill-rule:nonzero;stroke:none"
       transform="matrix(1.3333333,0,0,-1.3333333,158.67467,104.22373)"
       clip-path="url(#clipPath32)" />
    <path
       id="path33"
       d="m 0,0 c -6.649,-1.559 -10.352,2.143 -10.352,10.059 v 7.648 c 0,5.516 1.072,10.303 5.992,11.861 C 9.925,34.094 19.875,27.937 19.875,18.267 19.875,9.231 12.958,3.044 0,0 m 48.153,33.051 c 0,35.147 -34.392,45.352 -76.455,30.324 V -50.08 l 17.926,4.139 v 28.404 c 0,4.336 3.191,3.58 6.138,0.95 2.07,-1.851 14.516,-13.907 23.212,-22.579 l 27.366,6.319 c 0,0 -23.859,24.371 -26.611,26.782 16.026,5.992 28.424,21.606 28.424,39.116"
       style="fill:#000000;fill-opacity:1;fill-rule:nonzero;stroke:none"
       transform="matrix(1.3333333,0,0,-1.3333333,37.736533,171.02453)"
       clip-path="url(#clipPath34)" />
  </g>
</svg>
