<?xml version="1.0" encoding="UTF-8" standalone="no"?>
<!-- Created with Inkscape (http://www.inkscape.org/) -->

<svg
   version="1.1"
   id="svg1"
   width="666.66669"
   height="477.96399"
   viewBox="0 0 666.66669 477.96399"
   sodipodi:docname="Rhythm Paradise Advance (DUT) Logo (Wordmark).ai"
   xmlns:inkscape="http://www.inkscape.org/namespaces/inkscape"
   xmlns:sodipodi="http://sodipodi.sourceforge.net/DTD/sodipodi-0.dtd"
   xmlns="http://www.w3.org/2000/svg"
   xmlns:svg="http://www.w3.org/2000/svg">
  <defs
     id="defs1">
    <clipPath
       clipPathUnits="userSpaceOnUse"
       id="clipPath2">
      <path
         d="M 0,358.473 H 500 V 0 H 0 Z"
         transform="translate(-499.99991,-69.966504)"
         id="path2" />
    </clipPath>
    <clipPath
       clipPathUnits="userSpaceOnUse"
       id="clipPath4">
      <path
         d="M 0,358.473 H 500 V 0 H 0 Z"
         transform="translate(-491.24111,-85.232102)"
         id="path4" />
    </clipPath>
    <clipPath
       clipPathUnits="userSpaceOnUse"
       id="clipPath6">
      <path
         d="M 0,358.473 H 500 V 0 H 0 Z"
         transform="translate(-454.55271,-144.53091)"
         id="path6" />
    </clipPath>
    <clipPath
       clipPathUnits="userSpaceOnUse"
       id="clipPath8">
      <path
         d="M 0,358.473 H 500 V 0 H 0 Z"
         transform="translate(-423.04581,-204.69601)"
         id="path8" />
    </clipPath>
    <clipPath
       clipPathUnits="userSpaceOnUse"
       id="clipPath10">
      <path
         d="M 0,358.473 H 500 V 0 H 0 Z"
         transform="translate(-380.36421,-152.2477)"
         id="path10" />
    </clipPath>
    <clipPath
       clipPathUnits="userSpaceOnUse"
       id="clipPath12">
      <path
         d="M 0,358.473 H 500 V 0 H 0 Z"
         transform="translate(-325.15811,-147.62271)"
         id="path12" />
    </clipPath>
    <clipPath
       clipPathUnits="userSpaceOnUse"
       id="clipPath14">
      <path
         d="M 0,358.473 H 500 V 0 H 0 Z"
         transform="translate(-284.14741,-136.3063)"
         id="path14" />
    </clipPath>
    <clipPath
       clipPathUnits="userSpaceOnUse"
       id="clipPath16">
      <path
         d="M 0,358.473 H 500 V 0 H 0 Z"
         transform="translate(-234.48721,-124.84641)"
         id="path16" />
    </clipPath>
    <clipPath
       clipPathUnits="userSpaceOnUse"
       id="clipPath18">
      <path
         d="M 0,358.473 H 500 V 0 H 0 Z"
         transform="translate(-170.40621,-130.5925)"
         id="path18" />
    </clipPath>
    <clipPath
       clipPathUnits="userSpaceOnUse"
       id="clipPath20">
      <path
         d="M 0,358.473 H 500 V 0 H 0 Z"
         transform="translate(-123.1752,-90.477205)"
         id="path20" />
    </clipPath>
    <clipPath
       clipPathUnits="userSpaceOnUse"
       id="clipPath22">
      <path
         d="M 0,358.473 H 500 V 0 H 0 Z"
         transform="translate(-61.891502,-104.76531)"
         id="path22" />
    </clipPath>
    <clipPath
       clipPathUnits="userSpaceOnUse"
       id="clipPath24">
      <path
         d="M 0,358.473 H 500 V 0 H 0 Z"
         transform="translate(-391.28511,-355.42211)"
         id="path24" />
    </clipPath>
    <clipPath
       clipPathUnits="userSpaceOnUse"
       id="clipPath26">
      <path
         d="M 0,358.473 H 500 V 0 H 0 Z"
         transform="translate(-298.9462,-307.98651)"
         id="path26" />
    </clipPath>
    <clipPath
       clipPathUnits="userSpaceOnUse"
       id="clipPath28">
      <path
         d="M 0,358.473 H 500 V 0 H 0 Z"
         transform="translate(-206.60691,-301.11151)"
         id="path28" />
    </clipPath>
    <clipPath
       clipPathUnits="userSpaceOnUse"
       id="clipPath30">
      <path
         d="M 0,358.473 H 500 V 0 H 0 Z"
         transform="translate(-200.08441,-278.9836)"
         id="path30" />
    </clipPath>
    <clipPath
       clipPathUnits="userSpaceOnUse"
       id="clipPath32">
      <path
         d="M 0,358.473 H 500 V 0 H 0 Z"
         transform="translate(-118.9164,-280.36401)"
         id="path32" />
    </clipPath>
    <clipPath
       clipPathUnits="userSpaceOnUse"
       id="clipPath34">
      <path
         d="M 0,358.473 H 500 V 0 H 0 Z"
         transform="translate(-28.281201,-230.3005)"
         id="path34" />
    </clipPath>
  </defs>
  <sodipodi:namedview
     id="namedview1"
     pagecolor="#ffffff"
     bordercolor="#000000"
     borderopacity="0.25"
     inkscape:showpageshadow="2"
     inkscape:pageopacity="0.0"
     inkscape:pagecheckerboard="0"
     inkscape:deskcolor="#d1d1d1">
    <inkscape:page
       x="0"
       y="0"
       inkscape:label="1"
       id="page1"
       width="666.66669"
       height="477.96399"
       margin="0"
       bleed="0" />
  </sodipodi:namedview>
  <g
     id="layer-MC0"
     inkscape:groupmode="layer"
     inkscape:label="Layer 1">
    <path
       id="path1"
       d="m 0,0 -15.381,-3.551 v -39.004 l -9.504,-2.194 v 39.004 l -15.442,-3.566 v 8.73 L 0,8.729 Z m -76.779,-56.729 c -1.335,-0.309 -2.575,-0.312 -3.72,-0.007 -1.147,0.303 -2.147,0.834 -3.002,1.59 -0.854,0.758 -1.532,1.704 -2.031,2.839 -0.501,1.135 -0.751,2.384 -0.751,3.748 v 37.368 l 9.504,2.194 V -45.07 c 0,-0.818 0.259,-1.451 0.781,-1.899 0.52,-0.448 1.156,-0.586 1.907,-0.412 l 16.256,3.753 c 0.751,0.173 1.396,0.617 1.939,1.334 0.541,0.716 0.812,1.482 0.812,2.302 v 36.004 l 9.566,2.209 v -37.368 c 0,-1.365 -0.25,-2.729 -0.75,-4.095 -0.5,-1.366 -1.178,-2.624 -2.032,-3.777 -0.854,-1.151 -1.866,-2.146 -3.032,-2.983 -1.168,-0.84 -2.418,-1.411 -3.752,-1.719 z m -26.761,29.825 c 0,0.818 -0.26,1.463 -0.78,1.933 -0.522,0.47 -1.158,0.619 -1.908,0.447 l -18.381,-4.245 v -30.275 l 18.381,4.243 c 0.75,0.174 1.386,0.615 1.908,1.327 0.52,0.711 0.78,1.476 0.78,2.294 z m 9.567,-23.43 c 0,-1.364 -0.25,-2.729 -0.751,-4.095 -0.5,-1.366 -1.177,-2.624 -2.031,-3.776 -0.855,-1.152 -1.867,-2.147 -3.033,-2.984 -1.168,-0.839 -2.418,-1.411 -3.752,-1.719 l -30.573,-7.059 v 47.734 l 30.573,7.058 c 1.251,0.288 2.46,0.295 3.628,0.019 1.166,-0.277 2.187,-0.78 3.062,-1.509 0.875,-0.731 1.574,-1.66 2.095,-2.789 0.521,-1.132 0.782,-2.424 0.782,-3.877 z"
       style="fill:#000000;fill-opacity:1;fill-rule:nonzero;stroke:none"
       transform="matrix(1.3333333,0,0,-1.3333333,666.66653,384.67533)"
       clip-path="url(#clipPath2)" />
    <path
       id="path3"
       d="M 0,0 -41.604,-9.605 V 44.926 L 0,54.53 V 44.56 L -30.704,37.471 V 25.63 l 25.219,5.822 V 21.48 L -30.704,15.658 V 2.883 L 0,9.971 Z m -79.005,-18.24 c -1.425,-0.329 -2.79,-0.332 -4.096,-0.011 -1.307,0.321 -2.458,0.899 -3.455,1.734 -0.998,0.833 -1.794,1.897 -2.386,3.189 -0.595,1.29 -0.891,2.766 -0.891,4.43 V 21.95 c 0,1.558 0.285,3.116 0.854,4.677 0.571,1.56 1.342,2.997 2.316,4.312 0.973,1.316 2.113,2.448 3.42,3.4 1.305,0.95 2.718,1.601 4.238,1.952 l 22.583,5.214 c 1.425,0.329 2.79,0.332 4.097,0.011 1.305,-0.323 2.469,-0.899 3.49,-1.726 1.022,-0.83 1.828,-1.903 2.423,-3.22 0.593,-1.317 0.891,-2.781 0.891,-4.39 v -4.206 l -10.901,-2.517 v 2.727 c 0,0.934 -0.297,1.657 -0.891,2.17 -0.593,0.511 -1.317,0.669 -2.172,0.472 l -16.456,-3.799 c -0.855,-0.198 -1.58,-0.703 -2.173,-1.514 -0.595,-0.813 -0.891,-1.686 -0.891,-2.621 V -4.841 c 0,-0.934 0.296,-1.672 0.891,-2.209 0.593,-0.539 1.318,-0.709 2.173,-0.512 l 16.456,3.8 c 0.855,0.198 1.579,0.688 2.172,1.475 0.594,0.786 0.891,1.647 0.891,2.582 v 2.726 l 10.901,2.517 V 1.331 c 0,-1.663 -0.298,-3.276 -0.891,-4.841 -0.595,-1.566 -1.401,-2.999 -2.423,-4.299 -1.021,-1.3 -2.185,-2.412 -3.49,-3.337 -1.307,-0.924 -2.672,-1.551 -4.097,-1.88 z m -16.884,50.634 v -54.532 l -13.108,-3.026 -22.512,34.143 v -39.34 l -10.828,-2.5 V 21.67 l 13.108,3.026 22.512,-34.143 v 39.341 z m -75.087,-29.956 0.072,0.016 7.48,-18.449 -15.103,-3.486 z m 26.501,-35.792 -21.087,49.663 -10.828,-2.5 -21.087,-59.4 10.829,2.5 4.345,12.766 22.583,5.214 4.417,-10.743 z m -50.865,42.788 -21.087,-59.4 -10.828,-2.5 -21.087,49.663 11.327,2.615 15.174,-36.85 15.174,43.856 z m -65.682,-56.296 c 0,-0.936 -0.298,-1.81 -0.891,-2.621 -0.595,-0.813 -1.318,-1.317 -2.173,-1.514 l -20.945,-4.836 v 34.588 l 20.945,4.836 c 0.855,0.197 1.578,0.026 2.173,-0.511 0.593,-0.539 0.891,-1.275 0.891,-2.21 z m 10.899,31.806 c 0,1.662 -0.297,3.138 -0.891,4.43 -0.594,1.291 -1.388,2.354 -2.386,3.189 -0.997,0.833 -2.162,1.409 -3.491,1.725 -1.33,0.316 -2.707,0.311 -4.131,-0.018 l -34.837,-8.043 v -54.532 l 34.837,8.043 c 1.518,0.351 2.943,1.004 4.274,1.961 1.329,0.955 2.48,2.092 3.455,3.407 0.973,1.316 1.745,2.752 2.315,4.313 0.57,1.56 0.855,3.119 0.855,4.677 z m -74.375,-17.949 0.072,0.017 7.48,-18.45 -15.103,-3.487 z m 26.501,-35.793 -21.086,49.663 -10.829,-2.5 -21.087,-59.399 10.829,2.5 4.345,12.766 22.583,5.214 4.417,-10.744 z"
       style="fill:#000000;fill-opacity:1;fill-rule:nonzero;stroke:none"
       transform="matrix(1.3333333,0,0,-1.3333333,654.98813,364.3212)"
       clip-path="url(#clipPath4)" />
    <path
       id="path5"
       d="m 0,0 v 9.035 l -2.271,-9.559 -2.46,-0.569 -2.218,8.524 V -1.604 L -9.274,-2.142 V 8.675 l 3.632,0.839 2.191,-8.074 0.027,0.006 2.137,9.073 3.586,0.828 V 0.53 Z m -16.79,-3.876 v 8.897 l -3.74,-0.863 v 1.918 l 9.894,2.284 V 6.442 L -14.242,5.61 v -8.898 z"
       style="fill:#000000;fill-opacity:1;fill-rule:nonzero;stroke:none"
       transform="matrix(1.3333333,0,0,-1.3333333,606.07027,285.25613)"
       clip-path="url(#clipPath6)" />
    <path
       id="path7"
       d="M 0,0 C 5.232,1.971 16.185,4.916 25.385,6.912 V 35.39 L -20.59,24.776 V -51.34 l 45.975,10.614 v 12.681 c -6.036,-1.582 -18.546,-3.935 -24.022,-4.86 -6.669,-1.119 -7.618,7.374 -0.244,9.808 4.235,1.387 11.999,3.237 18.06,4.941 v 9.763 C 13.654,-9.512 6.182,-10.807 0.292,-11.634 -7.01,-12.681 -8.275,-3.116 0,0"
       style="fill:#000000;fill-opacity:1;fill-rule:nonzero;stroke:none"
       transform="matrix(1.3333333,0,0,-1.3333333,564.06107,205.036)"
       clip-path="url(#clipPath8)" />
    <path
       id="path9"
       d="m 0,0 c -0.27,2.529 -4.644,3.102 -11.458,4.735 -11.913,2.958 -19.287,9.977 -18.534,22.307 0.802,13.309 7.539,22.59 43.199,28.646 V 28.003 C 0.339,26.394 -6.766,23.986 -9.778,21.522 -12.992,18.914 -12.805,14.644 -8.166,13.095 -6.151,12.422 -0.193,10.432 3.407,9.225 10.316,6.922 13.697,3.39 14.402,-2.86 16.393,-20.493 -15.521,-25.117 -28.68,-27.05 v 15.667 C -12.916,-8.207 0.608,-5.423 0,0"
       style="fill:#000000;fill-opacity:1;fill-rule:nonzero;stroke:none"
       transform="matrix(1.3333333,0,0,-1.3333333,507.15227,274.96707)"
       clip-path="url(#clipPath10)" />
    <path
       id="path11"
       d="m 0,0 v 67.855 l 17.158,3.961 V 3.962 Z"
       style="fill:#000000;fill-opacity:1;fill-rule:nonzero;stroke:none"
       transform="matrix(1.3333333,0,0,-1.3333333,433.54413,281.13373)"
       clip-path="url(#clipPath12)" />
    <path
       id="path13"
       d="m 0,0 c -4.722,-1.093 -6.766,0.486 -6.766,6.011 v 17.426 c 0,4.016 -0.208,7.224 3.603,8.299 C 5.111,34.073 14.36,29.644 15.236,20.639 16.258,10.173 10.437,2.409 0,0 M -18.399,58.095 V -15.917 C 17.378,-10.685 32.954,3.139 32.564,30.617 32.225,54.444 8.567,67.538 -18.399,58.095"
       style="fill:#000000;fill-opacity:1;fill-rule:nonzero;stroke:none"
       transform="matrix(1.3333333,0,0,-1.3333333,378.8632,296.22227)"
       clip-path="url(#clipPath14)" />
    <path
       id="path15"
       d="m 0,0 -8.64,-1.995 c -2.172,-0.501 -3.407,0.851 -3.139,3.869 0.243,2.823 1.508,8.811 1.996,10.855 1.021,4.235 3.164,6.303 5.622,6.668 3.967,0.633 5.89,-2.263 7.423,-9.565 C 3.408,9.151 3.821,7.666 3.992,5.671 4.333,1.606 3.069,0.708 0,0 M 15.139,32.442 C 10.612,47.289 6.947,50.953 -2.068,48.871 -10.017,47.036 -14.535,42.898 -18.326,28.378 -22.05,14.116 -26.167,-6.267 -29.477,-29.339 l 13.122,3.029 c 0.243,1.826 0.682,3.967 1.314,7.229 0.682,3.285 2.458,5.635 5.987,6.449 l 10.223,2.361 c 2.732,0.63 5.232,-1.534 6.108,-5.184 0.584,-2.434 1.339,-5.886 1.801,-8.198 l 17.378,4.012 C 24.339,-2.629 19.642,17.693 15.139,32.442"
       style="fill:#000000;fill-opacity:1;fill-rule:nonzero;stroke:none"
       transform="matrix(1.3333333,0,0,-1.3333333,312.6496,311.50213)"
       clip-path="url(#clipPath16)" />
    <path
       id="path17"
       d="m 0,0 c -4.458,-1.045 -6.94,1.437 -6.94,6.744 v 5.127 c 0,3.698 0.718,6.907 4.017,7.952 9.577,3.034 16.247,-1.094 16.247,-7.576 C 13.324,6.189 8.687,2.042 0,0 m 32.282,22.158 c 0,23.563 -23.056,30.405 -51.257,20.33 v -74.129 l 12.018,2.775 v 17.11 c 0,2.906 2.14,2.401 4.116,0.637 1.387,-1.241 9.732,-9.324 15.561,-15.137 l 18.347,4.235 c 0,0 -15.996,16.339 -17.841,17.956 10.745,4.016 19.056,14.485 19.056,26.223"
       style="fill:#000000;fill-opacity:1;fill-rule:nonzero;stroke:none"
       transform="matrix(1.3333333,0,0,-1.3333333,227.20827,303.84067)"
       clip-path="url(#clipPath18)" />
    <path
       id="path19"
       d="m 0,0 -8.64,-1.994 c -2.172,-0.501 -3.407,0.85 -3.14,3.868 0.244,2.823 1.509,8.811 1.996,10.855 1.022,4.235 3.164,6.304 5.622,6.668 3.967,0.633 5.89,-2.262 7.423,-9.564 C 3.407,9.151 3.821,7.667 3.991,5.671 4.332,1.606 3.069,0.709 0,0 m 15.138,32.443 c -4.527,14.846 -8.191,18.51 -17.207,16.428 -7.948,-1.834 -12.467,-5.973 -16.258,-20.492 -3.723,-14.263 -7.84,-34.645 -11.15,-57.718 l 13.122,3.029 c 0.243,1.827 0.681,3.968 1.314,7.229 0.682,3.286 2.458,5.635 5.987,6.45 l 10.222,2.36 c 2.733,0.63 5.233,-1.533 6.109,-5.183 0.584,-2.435 1.339,-5.887 1.801,-8.198 l 17.378,4.011 C 24.338,-2.628 19.641,17.694 15.138,32.443"
       style="fill:#000000;fill-opacity:1;fill-rule:nonzero;stroke:none"
       transform="matrix(1.3333333,0,0,-1.3333333,164.2336,357.32773)"
       clip-path="url(#clipPath20)" />
    <path
       id="path21"
       d="m 0,0 c -5.403,-1.321 -8.519,0.098 -8.519,4.624 l 10e-4,16.381 c 0,4.626 2.555,7.545 7.642,8.202 C 9.322,30.521 13.922,24.558 13.922,16.794 13.922,10.319 10.101,2.47 0,0 M -33.904,52.84 V -49.749 l 25.41,5.866 v 24.096 c 0,4.405 1.095,6.596 3.724,7.058 23.68,4.166 40.548,16.072 40.548,40.5 0,26.824 -28.817,41.253 -69.682,25.069"
       style="fill:#000000;fill-opacity:1;fill-rule:nonzero;stroke:none"
       transform="matrix(1.3333333,0,0,-1.3333333,82.522,338.27693)"
       clip-path="url(#clipPath22)" />
    <path
       id="path23"
       d="m 0,0 c -7.01,-23.146 -10.977,-34.463 -14.433,-44.003 -5.889,-16.234 -11.999,-9.857 -14.846,-5.33 -3.31,5.305 -7.813,15.625 -15.625,34.536 l -19.3,-4.456 v -90.851 l 16.015,3.698 c -0.123,14.481 0.121,24.314 0.9,28.135 0.705,3.431 2.774,3.918 4.867,0.511 1.728,-2.799 4.454,-8.86 9.882,-21.321 l 10.73,2.477 c 5.914,15.894 9.105,23.906 11.369,27.824 1.825,3.189 5.305,5.428 6.352,-0.462 0.803,-4.454 0.73,-16.537 0.705,-31.334 l 16.6,3.832 V 3.051 Z"
       style="fill:#000000;fill-opacity:1;fill-rule:nonzero;stroke:none"
       transform="matrix(1.3333333,0,0,-1.3333333,521.71347,4.0678667)"
       clip-path="url(#clipPath24)" />
    <path
       id="path25"
       d="m 0,0 c -0.073,-12.413 -0.049,-23.73 -0.584,-27.867 -1.241,-9.882 -18.133,-14.336 -18.96,-5.233 -0.39,4.284 -0.73,9.943 -0.73,22.574 l -13.654,-3.152 v -83.237 l 17.402,4.018 c 0,13.215 0,18.958 0.219,23.484 0.609,11.926 18.522,14.628 20.079,4.26 0.706,-4.722 0.828,-6.986 0.828,-17.645 l 13.873,3.202 V 4.265 Z"
       style="fill:#000000;fill-opacity:1;fill-rule:nonzero;stroke:none"
       transform="matrix(1.3333333,0,0,-1.3333333,398.59493,67.315333)"
       clip-path="url(#clipPath26)" />
    <path
       id="path27"
       d="m 0,0 v -33.504 l 9.711,2.242 c 5.889,1.36 8.324,0.593 8.324,-9.833 V -84.13 l 15.941,3.681 v 39.452 c 0,17.524 1.646,21.946 10.319,23.948 l 7.935,1.832 v 27.275 z"
       style="fill:#000000;fill-opacity:1;fill-rule:nonzero;stroke:none"
       transform="matrix(1.3333333,0,0,-1.3333333,275.47587,76.482)"
       clip-path="url(#clipPath28)" />
    <path
       id="path29"
       d="m 0,0 -14.895,-3.439 c 0,0 0.219,-15.333 -0.365,-26.626 -0.852,-16.525 -17.499,-20.079 -18.838,-4.356 -0.681,8.251 -0.998,24.695 -0.998,24.695 l -18.521,-4.275 v -13.411 c 0,-32.005 20.809,-35.947 31.688,-26.82 0.657,0.559 1.314,0.9 1.85,0.657 0.608,-0.268 0.584,-0.925 0.341,-2.142 -0.658,-3.188 -5.379,-9.492 -14.92,-12.048 -7.277,-1.946 -14.408,-3.174 -17.961,-3.735 v -22.208 c 16.014,2.068 34.559,6.643 43.2,19.932 4.502,6.936 6.863,14.262 8.031,25.117 C 0.438,-31.574 0,0 0,0"
       style="fill:#000000;fill-opacity:1;fill-rule:nonzero;stroke:none"
       transform="matrix(1.3333333,0,0,-1.3333333,266.7792,105.98587)"
       clip-path="url(#clipPath30)" />
    <path
       id="path31"
       d="m 0,0 c -0.073,-12.413 -0.049,-23.729 -0.584,-27.867 -1.241,-9.882 -18.132,-14.335 -18.959,-5.233 -0.39,4.284 -0.731,9.943 -0.731,22.574 l -13.654,-3.152 v -83.236 l 17.402,4.017 c 0,13.215 0,18.958 0.219,23.484 0.609,11.926 18.522,14.628 20.079,4.26 0.706,-4.722 0.828,-6.985 0.828,-17.645 l 13.873,3.202 V 4.265 Z"
       style="fill:#000000;fill-opacity:1;fill-rule:nonzero;stroke:none"
       transform="matrix(1.3333333,0,0,-1.3333333,158.5552,104.14533)"
       clip-path="url(#clipPath32)" />
    <path
       id="path33"
       d="m 0,0 c -6.645,-1.558 -10.344,2.142 -10.344,10.052 v 7.642 c 0,5.512 1.071,10.295 5.988,11.852 C 9.918,34.069 19.86,27.916 19.86,18.253 19.86,9.224 12.948,3.042 0,0 m 48.117,33.027 c 0,35.12 -34.366,45.318 -76.398,30.301 v -113.37 l 17.913,4.136 v 28.383 c 0,4.332 3.188,3.577 6.133,0.949 2.069,-1.85 14.506,-13.897 23.194,-22.562 l 27.346,6.314 c 0,0 -23.841,24.352 -26.591,26.762 16.015,5.987 28.402,21.59 28.403,39.087"
       style="fill:#000000;fill-opacity:1;fill-rule:nonzero;stroke:none"
       transform="matrix(1.3333333,0,0,-1.3333333,37.708267,170.89667)"
       clip-path="url(#clipPath34)" />
  </g>
</svg>
