<?xml version="1.0" encoding="UTF-8" standalone="no"?>
<!-- Created with Inkscape (http://www.inkscape.org/) -->

<svg
   version="1.1"
   id="svg1"
   width="666.66669"
   height="500.36533"
   viewBox="0 0 666.66669 500.36533"
   sodipodi:docname="Rhythm Heaven Advance (POR) Logo (Wordmark).ai"
   xmlns:inkscape="http://www.inkscape.org/namespaces/inkscape"
   xmlns:sodipodi="http://sodipodi.sourceforge.net/DTD/sodipodi-0.dtd"
   xmlns="http://www.w3.org/2000/svg"
   xmlns:svg="http://www.w3.org/2000/svg">
  <defs
     id="defs1">
    <clipPath
       clipPathUnits="userSpaceOnUse"
       id="clipPath2">
      <path
         d="M 0,375.274 H 500 V 0 H 0 Z"
         transform="translate(-490.41781,-62.380699)"
         id="path2" />
    </clipPath>
    <clipPath
       clipPathUnits="userSpaceOnUse"
       id="clipPath4">
      <path
         d="M 0,375.274 H 500 V 0 H 0 Z"
         transform="translate(-495.13751,-82.693302)"
         id="path4" />
    </clipPath>
    <clipPath
       clipPathUnits="userSpaceOnUse"
       id="clipPath6">
      <path
         d="M 0,375.274 H 500 V 0 H 0 Z"
         transform="translate(-467.20391,-155.38561)"
         id="path6" />
    </clipPath>
    <clipPath
       clipPathUnits="userSpaceOnUse"
       id="clipPath8">
      <path
         d="M 0,375.274 H 500 V 0 H 0 Z"
         transform="translate(-421.72931,-260.15221)"
         id="path8" />
    </clipPath>
    <clipPath
       clipPathUnits="userSpaceOnUse"
       id="clipPath10">
      <path
         d="M 0,375.274 H 500 V 0 H 0 Z"
         transform="translate(-346.17461,-158.7343)"
         id="path10" />
    </clipPath>
    <clipPath
       clipPathUnits="userSpaceOnUse"
       id="clipPath12">
      <path
         d="M 0,375.274 H 500 V 0 H 0 Z"
         transform="translate(-297.67651,-217.8851)"
         id="path12" />
    </clipPath>
    <clipPath
       clipPathUnits="userSpaceOnUse"
       id="clipPath14">
      <path
         d="M 0,375.274 H 500 V 0 H 0 Z"
         transform="translate(-238.86501,-129.9598)"
         id="path14" />
    </clipPath>
    <clipPath
       clipPathUnits="userSpaceOnUse"
       id="clipPath16">
      <path
         d="M 0,375.274 H 500 V 0 H 0 Z"
         transform="translate(-176.3694,-114.0311)"
         id="path16" />
    </clipPath>
    <clipPath
       clipPathUnits="userSpaceOnUse"
       id="clipPath18">
      <path
         d="M 0,375.274 H 500 V 0 H 0 Z"
         transform="translate(-121.9441,-180.2147)"
         id="path18" />
    </clipPath>
    <clipPath
       clipPathUnits="userSpaceOnUse"
       id="clipPath20">
      <path
         d="M 0,375.274 H 500 V 0 H 0 Z"
         transform="translate(-420.00271,-273.6971)"
         id="path20" />
    </clipPath>
    <clipPath
       clipPathUnits="userSpaceOnUse"
       id="clipPath22">
      <path
         d="M 0,375.274 H 500 V 0 H 0 Z"
         transform="translate(-310.42361,-328.73131)"
         id="path22" />
    </clipPath>
    <clipPath
       clipPathUnits="userSpaceOnUse"
       id="clipPath24">
      <path
         d="M 0,375.274 H 500 V 0 H 0 Z"
         transform="translate(-214.2547,-316.24301)"
         id="path24" />
    </clipPath>
    <clipPath
       clipPathUnits="userSpaceOnUse"
       id="clipPath26">
      <path
         d="M 0,375.274 H 500 V 0 H 0 Z"
         transform="translate(-206.67561,-301.01751)"
         id="path26" />
    </clipPath>
    <clipPath
       clipPathUnits="userSpaceOnUse"
       id="clipPath28">
      <path
         d="M 0,375.274 H 500 V 0 H 0 Z"
         transform="translate(-120.1228,-287.23961)"
         id="path28" />
    </clipPath>
    <clipPath
       clipPathUnits="userSpaceOnUse"
       id="clipPath30">
      <path
         d="M 0,375.274 H 500 V 0 H 0 Z"
         transform="translate(-29.8435,-225.9266)"
         id="path30" />
    </clipPath>
  </defs>
  <sodipodi:namedview
     id="namedview1"
     pagecolor="#ffffff"
     bordercolor="#000000"
     borderopacity="0.25"
     inkscape:showpageshadow="2"
     inkscape:pageopacity="0.0"
     inkscape:pagecheckerboard="0"
     inkscape:deskcolor="#d1d1d1">
    <inkscape:page
       x="0"
       y="0"
       inkscape:label="1"
       id="page1"
       width="666.66669"
       height="500.36533"
       margin="0"
       bleed="0" />
  </sodipodi:namedview>
  <g
     id="layer-MC0"
     inkscape:groupmode="layer"
     inkscape:label="Layer 1">
    <path
       id="path1"
       d="M 0,0 C 0,0.781 -0.248,1.396 -0.744,1.847 -1.24,2.295 -1.846,2.438 -2.559,2.273 l -17.498,-4.04 v -12.04 l 17.498,4.04 c 0.713,0.164 1.319,0.586 1.815,1.265 C -0.248,-7.824 0,-7.094 0,-6.312 Z M 0,11.195 C 1.19,11.47 2.331,11.473 3.422,11.204 4.514,10.936 5.476,10.452 6.309,9.756 7.142,9.058 7.807,8.17 8.303,7.092 8.799,6.012 9.047,4.778 9.047,3.391 v -8.917 c 0,-1.301 -0.23,-2.602 -0.685,-3.9 -0.457,-1.3 -1.121,-2.505 -1.994,-3.617 -0.873,-1.112 -1.914,-2.08 -3.124,-2.902 -1.211,-0.823 -2.589,-1.41 -4.137,-1.768 l 10.475,-14.438 -9.82,-2.268 -10.475,14.439 -9.344,-2.158 v -16.856 l -9.106,-2.103 V 4.462 Z m -45.648,-21.734 c 0,0.781 -0.259,1.394 -0.775,1.84 -0.515,0.444 -1.131,0.584 -1.845,0.42 l -15.533,-3.587 c -0.676,-0.155 -1.27,-0.575 -1.786,-1.258 -0.517,-0.684 -0.774,-1.415 -0.774,-2.196 v -23.17 c 0,-0.781 0.257,-1.395 0.774,-1.839 0.516,-0.445 1.11,-0.59 1.786,-0.434 l 15.533,3.586 c 0.714,0.165 1.33,0.589 1.845,1.273 0.516,0.682 0.775,1.415 0.775,2.196 z m -0.06,11.182 c 1.19,0.275 2.341,0.28 3.452,0.015 1.11,-0.264 2.083,-0.745 2.916,-1.441 0.833,-0.697 1.498,-1.586 1.994,-2.664 0.495,-1.08 0.743,-2.314 0.743,-3.701 v -25.773 c 0,-1.303 -0.238,-2.604 -0.713,-3.908 -0.476,-1.303 -1.122,-2.504 -1.935,-3.604 -0.813,-1.098 -1.776,-2.046 -2.886,-2.845 -1.111,-0.8 -2.302,-1.345 -3.571,-1.638 l -20.653,-4.769 c -1.19,-0.274 -2.331,-0.277 -3.422,-0.008 -1.091,0.268 -2.054,0.751 -2.887,1.448 -0.833,0.697 -1.498,1.584 -1.993,2.664 -0.497,1.078 -0.744,2.311 -0.744,3.701 v 25.773 c 0,1.302 0.238,2.603 0.714,3.907 0.476,1.304 1.121,2.505 1.934,3.603 0.813,1.099 1.765,2.045 2.858,2.84 1.09,0.794 2.27,1.338 3.54,1.632 z m -45.888,-21.789 c 0,0.781 -0.258,1.394 -0.773,1.839 -0.517,0.444 -1.111,0.589 -1.785,0.433 l -18.154,-4.19 v -15.23 l 18.154,4.191 c 0.674,0.156 1.268,0.563 1.785,1.226 0.515,0.661 0.773,1.383 0.773,2.163 z m 0,11.195 c 1.191,0.274 2.331,0.277 3.423,0.009 1.091,-0.269 2.053,-0.752 2.886,-1.45 0.834,-0.697 1.498,-1.585 1.994,-2.663 0.495,-1.08 0.744,-2.313 0.744,-3.701 v -12.171 c 0,-1.302 -0.238,-2.603 -0.715,-3.907 -0.475,-1.304 -1.121,-2.504 -1.933,-3.603 -0.814,-1.099 -1.777,-2.048 -2.887,-2.846 -1.111,-0.8 -2.282,-1.341 -3.512,-1.625 l -20.712,-4.781 v -13.603 l -9.046,-2.089 v 45.56 z"
       style="fill:#000000;fill-opacity:1;fill-rule:nonzero;stroke:none"
       transform="matrix(1.3333333,0,0,-1.3333333,653.8904,417.19107)"
       clip-path="url(#clipPath2)" />
    <path
       id="path3"
       d="M 0,0 -39.604,-9.144 V 42.767 L 0,51.91 V 42.418 L -29.229,35.67 V 24.398 L -5.222,29.94 V 20.448 L -29.229,14.906 V 2.744 L 0,9.492 Z m -75.208,-17.363 c -1.356,-0.314 -2.657,-0.317 -3.9,-0.011 -1.244,0.307 -2.339,0.856 -3.289,1.651 -0.95,0.793 -1.707,1.805 -2.272,3.035 -0.565,1.229 -0.848,2.634 -0.848,4.216 v 29.368 c 0,1.483 0.272,2.965 0.814,4.452 0.543,1.484 1.277,2.852 2.204,4.105 0.927,1.252 2.012,2.329 3.256,3.235 1.242,0.905 2.587,1.525 4.035,1.859 l 21.497,4.964 c 1.357,0.312 2.656,0.316 3.899,0.01 1.244,-0.307 2.351,-0.855 3.324,-1.643 0.971,-0.79 1.74,-1.812 2.305,-3.065 0.566,-1.254 0.848,-2.647 0.848,-4.179 v -4.005 l -10.376,-2.396 v 2.596 c 0,0.89 -0.282,1.578 -0.848,2.067 -0.565,0.487 -1.254,0.636 -2.068,0.449 l -15.665,-3.616 c -0.814,-0.189 -1.504,-0.67 -2.068,-1.443 -0.567,-0.773 -0.848,-1.604 -0.848,-2.494 v -26.4 c 0,-0.89 0.281,-1.592 0.848,-2.104 0.564,-0.513 1.254,-0.674 2.068,-0.486 l 15.665,3.617 c 0.814,0.187 1.503,0.655 2.068,1.404 0.566,0.748 0.848,1.568 0.848,2.457 v 2.596 l 10.376,2.395 V 1.268 c 0,-1.583 -0.282,-3.12 -0.848,-4.609 -0.565,-1.491 -1.334,-2.855 -2.305,-4.092 -0.973,-1.238 -2.08,-2.296 -3.324,-3.177 -1.243,-0.88 -2.542,-1.477 -3.899,-1.79 z m -16.073,48.2 v -51.911 l -12.478,-2.881 -21.43,32.503 v -37.45 l -10.308,-2.38 v 51.911 l 12.477,2.881 21.431,-32.503 v 37.45 z m -71.479,-28.516 0.069,0.016 7.12,-17.564 -14.377,-3.319 z m 25.228,-34.073 -20.073,47.276 -10.309,-2.379 -20.073,-56.545 10.307,2.379 4.137,12.154 21.498,4.963 4.205,-10.228 z m -48.421,40.732 -20.073,-56.544 -10.309,-2.38 -20.073,47.276 10.782,2.489 14.445,-35.079 14.446,41.748 z m -62.526,-53.59 c 0,-0.891 -0.284,-1.723 -0.848,-2.495 -0.567,-0.774 -1.255,-1.254 -2.069,-1.442 l -19.938,-4.602 v 32.925 l 19.938,4.603 c 0.814,0.188 1.502,0.025 2.069,-0.486 0.564,-0.513 0.848,-1.213 0.848,-2.103 z m 10.375,30.278 c 0,1.582 -0.283,2.987 -0.847,4.217 -0.567,1.228 -1.323,2.24 -2.273,3.035 -0.949,0.794 -2.057,1.342 -3.323,1.643 -1.265,0.301 -2.577,0.294 -3.932,-0.018 l -33.163,-7.656 v -51.91 l 33.163,7.655 c 1.446,0.334 2.802,0.956 4.068,1.867 1.265,0.909 2.362,1.991 3.289,3.243 0.927,1.252 1.662,2.62 2.204,4.106 0.543,1.484 0.814,2.968 0.814,4.452 z m -70.8,-17.087 0.068,0.016 7.12,-17.563 -14.377,-3.319 z m 25.227,-34.072 -20.073,47.276 -10.309,-2.38 -20.073,-56.545 10.308,2.38 4.137,12.153 21.498,4.962 4.204,-10.226 z"
       style="fill:#000000;fill-opacity:1;fill-rule:nonzero;stroke:none"
       transform="matrix(1.3333333,0,0,-1.3333333,660.18333,390.1076)"
       clip-path="url(#clipPath4)" />
    <path
       id="path5"
       d="m 0,0 v 8.233 l -2.07,-8.711 -2.242,-0.517 -2.02,7.766 v -8.233 l -2.119,-0.489 v 9.856 l 3.31,0.764 1.996,-7.357 0.025,0.006 1.947,8.267 3.267,0.755 V 0.483 Z m -15.299,-3.532 v 8.108 l -3.409,-0.787 v 1.742 l 9.017,2.081 V 5.87 l -3.287,-0.758 v -8.108 z"
       style="fill:#000000;fill-opacity:1;fill-rule:nonzero;stroke:none"
       transform="matrix(1.3333333,0,0,-1.3333333,622.93853,293.18453)"
       clip-path="url(#clipPath6)" />
    <path
       id="path7"
       d="m 0,0 c 0,0 -0.153,-40.007 -0.651,-47.045 -0.778,-10.993 -3.732,-11.288 -6.245,-9.639 -5.016,3.29 -14.387,22.027 -22.778,38.321 l -12.241,-2.826 v -101.244 l 14.969,3.456 0.05,25.69 c 0.026,13.186 3.626,14.045 8.858,9.254 3.971,-3.635 9.372,-11.651 17.885,-25.28 l 19.808,4.573 V 4.538 Z"
       style="fill:#000000;fill-opacity:1;fill-rule:nonzero;stroke:none"
       transform="matrix(1.3333333,0,0,-1.3333333,562.30573,153.49573)"
       clip-path="url(#clipPath8)" />
    <path
       id="path9"
       d="m 0,0 c -0.454,-0.003 -3.816,0.111 -4.176,2.677 -0.208,1.486 0.505,2.881 2.299,3.978 2.806,1.716 12.518,4.507 21.839,6.694 v 12.889 c 0,0 -16.878,-4.061 -22.068,-3.29 -1.578,0.236 -2.627,1.069 -2.836,2.525 -0.213,1.489 0.537,2.83 2.298,3.978 4.748,3.091 26.054,7.688 26.054,7.688 V 66.88 L -20.459,56.752 v -79.281 l 44.788,10.34 V 4.283 C 12.376,1.567 4.296,0.023 0,0"
       style="fill:#000000;fill-opacity:1;fill-rule:nonzero;stroke:none"
       transform="matrix(1.3333333,0,0,-1.3333333,461.56613,288.7196)"
       clip-path="url(#clipPath10)" />
    <path
       id="path11"
       d="m 0,0 c 0,0 -4.752,-31.311 -8.972,-45.78 -1.206,-4.135 -4.12,-10.461 -8.084,-1.416 -1.42,3.24 -5.634,18.376 -8.727,37.89 l -13.687,-3.16 c 1.199,-13.417 7.768,-49.656 16.522,-70.768 l 26.543,6.128 c 9.77,25.856 15.632,53.165 17.624,82.005 z"
       style="fill:#000000;fill-opacity:1;fill-rule:nonzero;stroke:none"
       transform="matrix(1.3333333,0,0,-1.3333333,396.902,209.85187)"
       clip-path="url(#clipPath12)" />
    <path
       id="path13"
       d="m 0,0 c -2.113,-0.461 -6.924,-1.679 -9.381,-2.139 -2.352,-0.461 -3.726,0.867 -3.435,4.223 0.263,3.141 1.643,9.8 2.167,12.048 1.157,4.972 3.43,7.045 6.104,7.418 3.428,0.478 6.422,-2.518 8.06,-10.64 C 3.674,10.125 4.073,8.495 4.334,6.28 4.65,3.592 3.33,0.839 0,0 M 11.698,44.883 C 5.056,57.121 -2.669,54.585 -6.627,53.275 -11.813,51.56 -16.416,48.896 -21.232,29.791 -26.295,9.708 -31.807,-32.478 -31.807,-32.478 l 13.898,3.209 1.428,7.999 c 0.689,3.863 3.148,6.317 6.896,7.419 0,0 10.769,2.795 14.444,3.213 1.553,0.177 3.378,-1.049 3.909,-3.48 l 1.877,-8.606 18.926,4.37 c 0,0 -9.415,47.655 -17.873,63.237"
       style="fill:#000000;fill-opacity:1;fill-rule:nonzero;stroke:none"
       transform="matrix(1.3333333,0,0,-1.3333333,318.48667,327.0856)"
       clip-path="url(#clipPath14)" />
    <path
       id="path15"
       d="m 0,0 c -0.455,-0.002 -3.817,0.112 -4.176,2.678 -0.209,1.485 0.505,2.881 2.299,3.977 2.805,1.717 12.517,4.508 21.838,6.695 v 12.889 c 0,0 -16.878,-4.061 -22.068,-3.29 -1.577,0.235 -2.627,1.069 -2.836,2.525 -0.213,1.489 0.537,2.83 2.299,3.977 4.747,3.092 26.053,7.689 26.053,7.689 L 23.41,69.196 -20.459,59.068 -20.46,-20.213 24.329,-9.873 V 4.284 C 12.375,1.568 4.295,0.024 0,0"
       style="fill:#000000;fill-opacity:1;fill-rule:nonzero;stroke:none"
       transform="matrix(1.3333333,0,0,-1.3333333,235.1592,348.32387)"
       clip-path="url(#clipPath16)" />
    <path
       id="path17"
       d="m 0,0 c 0,-15.82 0.08,-27.66 -2.087,-35.419 -1.317,-4.713 -4.215,-8.3 -8.085,-11.016 -3.941,-2.765 -7.892,-3.977 -11.762,-4.054 -4.719,-0.093 -8.168,2.474 -8.672,7.718 -0.724,7.531 -0.677,17.049 -0.677,30.239 l -17.126,-3.954 v -116.658 l 23.525,5.432 c 0,14.846 0.304,25.789 2.134,32.614 1.247,4.652 4.639,8.578 8.063,10.89 4.002,2.703 7.685,4.055 11.562,4.118 4.712,0.076 8.291,-2.356 8.735,-7.055 0.652,-6.885 0.694,-16.248 0.694,-29.025 l 17.432,4.025 V 5.48 Z"
       style="fill:#000000;fill-opacity:1;fill-rule:nonzero;stroke:none"
       transform="matrix(1.3333333,0,0,-1.3333333,162.59213,260.07907)"
       clip-path="url(#clipPath18)" />
    <path
       id="path19"
       d="M 0,0 V 101.577 L -13.886,98.371 C -21.25,74.052 -25.416,62.16 -29.05,52.137 c -6.183,-17.057 -12.615,-10.362 -15.598,-5.6 -3.489,5.568 -8.208,16.419 -16.417,36.288 l -20.279,-4.681 v -93.99 l 16.816,3.882 c -0.128,15.215 0.134,24.082 0.957,28.096 0.738,3.607 2.911,4.115 5.114,0.537 1.812,-2.942 4.68,-9.308 10.382,-22.4 l 11.277,2.603 c 6.214,16.698 9.571,25.112 11.943,29.233 1.923,3.347 5.566,5.701 6.673,-0.485 0.838,-4.681 0.768,-14.099 0.742,-29.646 z"
       style="fill:#000000;fill-opacity:1;fill-rule:nonzero;stroke:none"
       transform="matrix(1.3333333,0,0,-1.3333333,560.0036,135.43587)"
       clip-path="url(#clipPath20)" />
    <path
       id="path21"
       d="m 0,0 c 0,0 0.334,-22.062 -0.418,-29.365 -0.998,-9.692 -18.179,-13.039 -18.906,-3.133 -0.324,4.422 -0.573,10.125 -0.573,23.146 l -14.041,-3.242 v -87.012 l 19.252,4.444 v 20.095 c 0,15.455 19.199,16.747 20.233,5.944 0.325,-3.397 0.49,-8.692 0.49,-19.681 l 14.041,3.241 V 4.635 Z"
       style="fill:#000000;fill-opacity:1;fill-rule:nonzero;stroke:none"
       transform="matrix(1.3333333,0,0,-1.3333333,413.89813,62.056933)"
       clip-path="url(#clipPath22)" />
    <path
       id="path23"
       d="m 0,0 v -35.859 l 12.955,2.991 c 5.162,1.192 6.975,0.096 6.938,-10.276 v -46.083 l 15.348,3.543 v 42.645 c 0.107,18.307 2.255,22.096 11.36,24.198 l 8.128,1.877 v 29.599 z"
       style="fill:#000000;fill-opacity:1;fill-rule:nonzero;stroke:none"
       transform="matrix(1.3333333,0,0,-1.3333333,285.67293,78.708)"
       clip-path="url(#clipPath24)" />
    <path
       id="path25"
       d="m 0,0 -16.369,-3.779 c 0,0 -0.103,-12.387 -1.008,-28.791 -0.963,-17.437 -19.748,-22.784 -20.821,-5.045 -0.685,11.33 -0.576,26.695 -0.576,26.695 l -19.595,-4.524 v -8.389 c 0,-32.67 3.754,-43.757 23.489,-41.625 4.614,0.498 8.129,1.964 12.088,4.645 0.248,0.167 0.561,0.171 0.855,-0.056 0.281,-0.218 0.737,-0.952 0.05,-3.084 -3.7,-11.488 -35.387,-14.902 -35.387,-14.902 l -0.008,-25.671 c 18.114,2.666 37.83,6.522 48.177,23.712 C -5.241,-74.394 0,-66.641 0,0"
       style="fill:#000000;fill-opacity:1;fill-rule:nonzero;stroke:none"
       transform="matrix(1.3333333,0,0,-1.3333333,275.56747,99.008667)"
       clip-path="url(#clipPath26)" />
    <path
       id="path27"
       d="m 0,0 c 0,0 0.317,-20.967 -0.397,-27.908 -0.948,-9.211 -17.277,-12.392 -17.968,-2.977 -0.308,4.202 -0.545,9.622 -0.545,21.997 l -13.343,-3.081 v -82.695 l 18.296,4.224 v 19.098 c 0,14.688 18.247,15.916 19.229,5.649 0.309,-3.228 0.466,-8.261 0.466,-18.704 l 13.344,3.08 V 4.405 Z"
       style="fill:#000000;fill-opacity:1;fill-rule:nonzero;stroke:none"
       transform="matrix(1.3333333,0,0,-1.3333333,160.16373,117.3792)"
       clip-path="url(#clipPath28)" />
    <path
       id="path29"
       d="m 0,0 c -8.378,-2.136 -13.32,2.352 -13.32,13.614 0,8.984 0.169,18.259 16.616,18.259 11.71,0 16.606,-5.93 16.606,-12.618 C 19.902,13.43 12.775,3.258 0,0 m 49.169,37.107 c 0,20.687 -15.241,45.707 -79.013,30.359 V -45.04 l 16.607,3.834 v 20.327 c 0,8.261 4.76,6.739 7.797,4.761 2.359,-1.536 7.362,-5.569 19.189,-18.858 l 28.212,6.513 -21.984,22.51 c 0,0 29.192,11.755 29.192,43.06"
       style="fill:#000000;fill-opacity:1;fill-rule:nonzero;stroke:none"
       transform="matrix(1.3333333,0,0,-1.3333333,39.791333,199.12987)"
       clip-path="url(#clipPath30)" />
  </g>
</svg>
