<?xml version="1.0" encoding="UTF-8" standalone="no"?>
<!-- Created with Inkscape (http://www.inkscape.org/) -->

<svg
   version="1.1"
   id="svg1"
   width="666.66669"
   height="495.20132"
   viewBox="0 0 666.66669 495.20132"
   sodipodi:docname="Rhythm Heaven Advance (FRA) Logo (Wordmark).ai"
   xmlns:inkscape="http://www.inkscape.org/namespaces/inkscape"
   xmlns:sodipodi="http://sodipodi.sourceforge.net/DTD/sodipodi-0.dtd"
   xmlns="http://www.w3.org/2000/svg"
   xmlns:svg="http://www.w3.org/2000/svg">
  <defs
     id="defs1">
    <clipPath
       clipPathUnits="userSpaceOnUse"
       id="clipPath2">
      <path
         d="M 0,371.401 H 500 V 0 H 0 Z"
         transform="translate(-471.72661,-40.728799)"
         id="path2" />
    </clipPath>
    <clipPath
       clipPathUnits="userSpaceOnUse"
       id="clipPath4">
      <path
         d="M 0,371.401 H 500 V 0 H 0 Z"
         transform="translate(-492.06931,-80.633105)"
         id="path4" />
    </clipPath>
    <clipPath
       clipPathUnits="userSpaceOnUse"
       id="clipPath6">
      <path
         d="M 0,371.401 H 500 V 0 H 0 Z"
         transform="translate(-464.30861,-152.8753)"
         id="path6" />
    </clipPath>
    <clipPath
       clipPathUnits="userSpaceOnUse"
       id="clipPath8">
      <path
         d="M 0,371.401 H 500 V 0 H 0 Z"
         transform="translate(-419.11621,-256.99301)"
         id="path8" />
    </clipPath>
    <clipPath
       clipPathUnits="userSpaceOnUse"
       id="clipPath10">
      <path
         d="M 0,371.401 H 500 V 0 H 0 Z"
         transform="translate(-344.02931,-156.20251)"
         id="path10" />
    </clipPath>
    <clipPath
       clipPathUnits="userSpaceOnUse"
       id="clipPath12">
      <path
         d="M 0,371.401 H 500 V 0 H 0 Z"
         transform="translate(-295.83201,-214.98761)"
         id="path12" />
    </clipPath>
    <clipPath
       clipPathUnits="userSpaceOnUse"
       id="clipPath14">
      <path
         d="M 0,371.401 H 500 V 0 H 0 Z"
         transform="translate(-237.38481,-127.60681)"
         id="path14" />
    </clipPath>
    <clipPath
       clipPathUnits="userSpaceOnUse"
       id="clipPath16">
      <path
         d="M 0,371.401 H 500 V 0 H 0 Z"
         transform="translate(-175.27641,-111.77761)"
         id="path16" />
    </clipPath>
    <clipPath
       clipPathUnits="userSpaceOnUse"
       id="clipPath18">
      <path
         d="M 0,371.401 H 500 V 0 H 0 Z"
         transform="translate(-121.18851,-177.55111)"
         id="path18" />
    </clipPath>
    <clipPath
       clipPathUnits="userSpaceOnUse"
       id="clipPath20">
      <path
         d="M 0,371.401 H 500 V 0 H 0 Z"
         transform="translate(-417.39941,-270.45391)"
         id="path20" />
    </clipPath>
    <clipPath
       clipPathUnits="userSpaceOnUse"
       id="clipPath22">
      <path
         d="M 0,371.401 H 500 V 0 H 0 Z"
         transform="translate(-308.50001,-325.14681)"
         id="path22" />
    </clipPath>
    <clipPath
       clipPathUnits="userSpaceOnUse"
       id="clipPath24">
      <path
         d="M 0,371.401 H 500 V 0 H 0 Z"
         transform="translate(-212.92731,-312.73571)"
         id="path24" />
    </clipPath>
    <clipPath
       clipPathUnits="userSpaceOnUse"
       id="clipPath26">
      <path
         d="M 0,371.401 H 500 V 0 H 0 Z"
         transform="translate(-205.39501,-297.60431)"
         id="path26" />
    </clipPath>
    <clipPath
       clipPathUnits="userSpaceOnUse"
       id="clipPath28">
      <path
         d="M 0,371.401 H 500 V 0 H 0 Z"
         transform="translate(-119.3784,-283.91191)"
         id="path28" />
    </clipPath>
    <clipPath
       clipPathUnits="userSpaceOnUse"
       id="clipPath30">
      <path
         d="M 0,371.401 H 500 V 0 H 0 Z"
         transform="translate(-29.658201,-222.97931)"
         id="path30" />
    </clipPath>
  </defs>
  <sodipodi:namedview
     id="namedview1"
     pagecolor="#ffffff"
     bordercolor="#000000"
     borderopacity="0.25"
     inkscape:showpageshadow="2"
     inkscape:pageopacity="0.0"
     inkscape:pagecheckerboard="0"
     inkscape:deskcolor="#d1d1d1">
    <inkscape:page
       x="0"
       y="0"
       inkscape:label="1"
       id="page1"
       width="666.66669"
       height="495.20132"
       margin="0"
       bleed="0" />
  </sodipodi:namedview>
  <g
     id="layer-MC0"
     inkscape:groupmode="layer"
     inkscape:label="Layer 1">
    <path
       id="path1"
       d="M 0,0 12.539,2.896 6.329,18.214 6.27,18.2 Z m 19.283,-13.595 -3.668,8.921 -18.751,-4.329 -3.607,-10.6 -8.991,-2.076 17.508,49.32 8.992,2.075 17.507,-41.235 z M -27.979,9.646 c 0,0.776 -0.247,1.388 -0.739,1.834 -0.494,0.447 -1.094,0.588 -1.804,0.425 L -47.912,7.89 V -4.076 l 17.39,4.014 c 0.71,0.165 1.31,0.583 1.804,1.258 0.492,0.673 0.739,1.4 0.739,2.176 z m 0,11.125 c 1.183,0.273 2.317,0.276 3.402,0.009 1.084,-0.267 2.041,-0.748 2.868,-1.44 0.828,-0.693 1.488,-1.575 1.982,-2.647 0.493,-1.072 0.74,-2.298 0.74,-3.677 V 4.153 c 0,-1.293 -0.228,-2.585 -0.681,-3.875 -0.453,-1.292 -1.114,-2.489 -1.981,-3.595 -0.869,-1.106 -1.904,-2.067 -3.106,-2.883 -1.203,-0.818 -2.573,-1.403 -4.111,-1.758 l 10.411,-14.349 -9.76,-2.253 -10.41,14.349 -9.287,-2.144 v -16.752 l -9.05,-2.09 V 14.08 Z m -40.281,-35.689 -20.998,-4.848 v -18.887 l -8.991,-2.076 V 4.548 l 34.484,7.962 V 4.23 l -25.493,-5.885 v -9.831 l 20.998,4.847 z"
       style="fill:#000000;fill-opacity:1;fill-rule:nonzero;stroke:none"
       transform="matrix(1.3333333,0,0,-1.3333333,628.9688,440.89627)"
       clip-path="url(#clipPath2)" />
    <path
       id="path3"
       d="M 0,0 -39.359,-9.087 V 42.502 L 0,51.589 V 42.155 L -29.048,35.449 V 24.247 l 23.859,5.508 V 20.322 L -29.048,14.813 V 2.728 L 0,9.434 Z m -74.743,-17.256 c -1.348,-0.31 -2.64,-0.314 -3.875,-0.01 -1.236,0.304 -2.325,0.851 -3.269,1.641 -0.943,0.788 -1.696,1.794 -2.258,3.016 -0.562,1.221 -0.842,2.618 -0.842,4.191 v 29.185 c 0,1.473 0.269,2.947 0.808,4.423 0.54,1.476 1.27,2.836 2.191,4.081 0.921,1.244 1.999,2.315 3.235,3.215 1.235,0.9 2.571,1.515 4.01,1.847 l 21.365,4.933 c 1.348,0.311 2.639,0.314 3.875,0.01 1.235,-0.304 2.336,-0.849 3.303,-1.632 0.966,-0.786 1.728,-1.801 2.291,-3.046 0.561,-1.246 0.843,-2.631 0.843,-4.154 v -3.979 l -10.312,-2.381 v 2.579 c 0,0.885 -0.281,1.568 -0.843,2.054 -0.562,0.483 -1.247,0.633 -2.055,0.446 l -15.569,-3.594 c -0.808,-0.187 -1.494,-0.665 -2.055,-1.432 -0.563,-0.77 -0.843,-1.595 -0.843,-2.48 V -4.579 c 0,-0.885 0.28,-1.582 0.843,-2.091 0.561,-0.509 1.247,-0.67 2.055,-0.483 l 15.569,3.594 c 0.808,0.187 1.493,0.651 2.055,1.396 0.562,0.743 0.843,1.558 0.843,2.442 v 2.579 l 10.312,2.381 V 1.26 c 0,-1.573 -0.282,-3.1 -0.843,-4.58 -0.563,-1.482 -1.325,-2.837 -2.291,-4.067 -0.967,-1.23 -2.068,-2.282 -3.303,-3.157 -1.236,-0.875 -2.527,-1.468 -3.875,-1.779 z m -15.973,47.902 v -51.589 l -12.4,-2.863 -21.298,32.301 v -37.218 l -10.244,-2.365 v 51.589 l 12.401,2.863 21.297,-32.301 V 28.28 Z m -71.035,-28.339 0.067,0.015 7.077,-17.454 -14.289,-3.299 z m 25.071,-33.862 -19.949,46.984 -10.244,-2.366 -19.95,-56.194 10.245,2.365 4.11,12.078 21.365,4.932 4.179,-10.164 z m -48.121,40.48 -19.949,-56.195 -10.244,-2.365 -19.949,46.984 10.715,2.473 14.356,-34.861 14.355,41.49 z m -62.139,-53.259 c 0,-0.885 -0.282,-1.712 -0.843,-2.479 -0.562,-0.769 -1.246,-1.246 -2.056,-1.433 l -19.814,-4.574 v 32.722 l 19.814,4.575 c 0.81,0.186 1.494,0.024 2.056,-0.484 0.561,-0.51 0.843,-1.206 0.843,-2.091 z m 10.311,30.091 c 0,1.572 -0.281,2.969 -0.843,4.191 -0.561,1.221 -1.313,2.227 -2.257,3.016 -0.944,0.789 -2.045,1.334 -3.302,1.633 -1.259,0.299 -2.562,0.293 -3.909,-0.018 l -32.957,-7.608 v -51.589 l 32.957,7.608 c 1.437,0.332 2.785,0.949 4.044,1.855 1.256,0.904 2.347,1.979 3.268,3.223 0.921,1.244 1.651,2.604 2.191,4.08 0.539,1.476 0.808,2.951 0.808,4.424 z m -70.362,-16.981 0.068,0.016 7.076,-17.454 -14.287,-3.299 z m 25.072,-33.861 -19.949,46.982 -10.245,-2.364 -19.949,-56.195 10.244,2.365 4.111,12.078 21.365,4.932 4.179,-10.163 z"
       style="fill:#000000;fill-opacity:1;fill-rule:nonzero;stroke:none"
       transform="matrix(1.3333333,0,0,-1.3333333,656.0924,387.69053)"
       clip-path="url(#clipPath4)" />
    <path
       id="path5"
       d="m 0,0 v 8.183 l -2.058,-8.658 -2.227,-0.514 -2.008,7.718 v -8.182 l -2.106,-0.485 v 9.793 l 3.29,0.76 1.984,-7.31 0.024,0.005 1.935,8.215 3.247,0.75 V 0.48 Z m -15.204,-3.51 v 8.058 l -3.388,-0.782 v 1.731 l 8.96,2.068 V 5.834 L -12.897,5.08 v -8.058 z"
       style="fill:#000000;fill-opacity:1;fill-rule:nonzero;stroke:none"
       transform="matrix(1.3333333,0,0,-1.3333333,619.07813,291.3676)"
       clip-path="url(#clipPath6)" />
    <path
       id="path7"
       d="m 0,0 c 0,0 -0.152,-39.76 -0.647,-46.754 -0.774,-10.924 -3.709,-11.217 -6.207,-9.579 -4.984,3.27 -14.297,21.891 -22.636,38.083 l -12.166,-2.809 v -100.615 l 14.876,3.434 0.051,25.531 c 0.025,13.105 3.603,13.958 8.802,9.197 3.946,-3.613 9.315,-11.579 17.775,-25.124 l 19.684,4.545 v 108.6 z"
       style="fill:#000000;fill-opacity:1;fill-rule:nonzero;stroke:none"
       transform="matrix(1.3333333,0,0,-1.3333333,558.8216,152.544)"
       clip-path="url(#clipPath8)" />
    <path
       id="path9"
       d="m 0,0 c -0.451,-0.002 -3.793,0.111 -4.15,2.661 -0.207,1.477 0.502,2.862 2.285,3.953 2.788,1.706 12.439,4.48 21.703,6.653 v 12.809 c 0,0 -16.774,-4.036 -21.932,-3.268 -1.567,0.232 -2.61,1.06 -2.818,2.507 -0.212,1.48 0.534,2.814 2.285,3.954 4.718,3.073 25.892,7.64 25.892,7.64 V 66.466 L -20.332,56.401 v -78.79 l 44.511,10.276 V 4.258 C 12.299,1.559 4.269,0.023 0,0"
       style="fill:#000000;fill-opacity:1;fill-rule:nonzero;stroke:none"
       transform="matrix(1.3333333,0,0,-1.3333333,458.70573,286.93133)"
       clip-path="url(#clipPath10)" />
    <path
       id="path11"
       d="m 0,0 c 0,0 -4.723,-31.117 -8.917,-45.497 -1.198,-4.108 -4.094,-10.396 -8.034,-1.406 -1.41,3.219 -5.599,18.261 -8.673,37.654 l -13.602,-3.14 c 1.191,-13.334 7.72,-49.347 16.42,-70.329 l 26.378,6.09 c 9.709,25.695 15.535,52.836 17.515,81.496 z"
       style="fill:#000000;fill-opacity:1;fill-rule:nonzero;stroke:none"
       transform="matrix(1.3333333,0,0,-1.3333333,394.44267,208.5512)"
       clip-path="url(#clipPath12)" />
    <path
       id="path13"
       d="m 0,0 c -2.101,-0.457 -6.881,-1.668 -9.323,-2.125 -2.337,-0.458 -3.703,0.86 -3.414,4.197 0.262,3.12 1.633,9.739 2.153,11.973 1.15,4.941 3.41,7.001 6.067,7.372 3.407,0.475 6.382,-2.502 8.01,-10.574 C 3.65,10.063 4.048,8.443 4.308,6.242 4.622,3.569 3.31,0.834 0,0 M 11.626,44.605 C 5.024,56.768 -2.652,54.247 -6.586,52.945 -11.739,51.24 -16.314,48.593 -21.101,29.606 -26.132,9.648 -31.61,-32.275 -31.61,-32.275 l 13.812,3.188 1.419,7.948 c 0.685,3.84 3.129,6.279 6.854,7.374 0,0 10.701,2.779 14.354,3.194 1.543,0.175 3.357,-1.043 3.884,-3.459 l 1.866,-8.553 18.81,4.343 c 0,0 -9.358,47.359 -17.763,62.845"
       style="fill:#000000;fill-opacity:1;fill-rule:nonzero;stroke:none"
       transform="matrix(1.3333333,0,0,-1.3333333,316.51307,325.05893)"
       clip-path="url(#clipPath14)" />
    <path
       id="path15"
       d="m 0,0 c -0.452,-0.003 -3.793,0.111 -4.15,2.661 -0.207,1.476 0.501,2.862 2.284,3.953 2.788,1.705 12.44,4.48 21.703,6.652 v 12.809 c 0,0 -16.773,-4.036 -21.931,-3.268 -1.567,0.233 -2.611,1.061 -2.818,2.508 -0.212,1.48 0.533,2.813 2.285,3.954 4.717,3.072 25.891,7.64 25.891,7.64 V 68.767 L -20.333,58.702 v -78.79 L 24.178,-9.812 V 4.257 C 12.298,1.559 4.269,0.023 0,0"
       style="fill:#000000;fill-opacity:1;fill-rule:nonzero;stroke:none"
       transform="matrix(1.3333333,0,0,-1.3333333,233.70187,346.16453)"
       clip-path="url(#clipPath16)" />
    <path
       id="path17"
       d="m 0,0 c 0,-15.723 0.079,-27.489 -2.075,-35.2 -1.308,-4.684 -4.188,-8.248 -8.034,-10.947 -3.917,-2.749 -7.844,-3.954 -11.689,-4.03 -4.69,-0.093 -8.118,2.459 -8.619,7.67 -0.719,7.485 -0.672,16.945 -0.672,30.052 l -17.02,-3.93 v -115.933 l 23.379,5.397 c 0,14.754 0.302,25.629 2.121,32.412 1.239,4.623 4.61,8.525 8.013,10.822 3.978,2.687 7.637,4.03 11.491,4.092 4.683,0.076 8.239,-2.341 8.681,-7.011 0.647,-6.842 0.689,-16.147 0.689,-28.844 l 17.323,3.999 V 5.445 Z"
       style="fill:#000000;fill-opacity:1;fill-rule:nonzero;stroke:none"
       transform="matrix(1.3333333,0,0,-1.3333333,161.58467,258.46653)"
       clip-path="url(#clipPath18)" />
    <path
       id="path19"
       d="m 0,0 v 100.947 l -13.799,-3.186 c -7.319,-24.168 -11.459,-35.986 -15.07,-45.947 -6.146,-16.952 -12.537,-10.298 -15.502,-5.566 -3.467,5.534 -8.158,16.317 -16.316,36.064 l -20.152,-4.653 v -93.408 l 16.71,3.858 c -0.127,15.121 0.135,23.934 0.952,27.923 0.734,3.584 2.893,4.089 5.082,0.534 1.802,-2.925 4.652,-9.251 10.319,-22.262 l 11.207,2.587 c 6.175,16.595 9.512,24.956 11.868,29.052 1.912,3.326 5.532,5.666 6.633,-0.483 0.832,-4.651 0.761,-14.01 0.736,-29.461 z"
       style="fill:#000000;fill-opacity:1;fill-rule:nonzero;stroke:none"
       transform="matrix(1.3333333,0,0,-1.3333333,556.53253,134.59613)"
       clip-path="url(#clipPath20)" />
    <path
       id="path21"
       d="m 0,0 c 0,0 0.331,-21.925 -0.416,-29.183 -0.991,-9.632 -18.065,-12.958 -18.788,-3.113 -0.322,4.394 -0.57,10.061 -0.57,23.002 l -13.954,-3.222 v -86.473 l 19.133,4.417 v 19.97 c 0,15.359 19.08,16.644 20.108,5.907 C 5.836,-72.07 6,-77.333 6,-88.253 l 13.953,3.221 V 4.606 Z"
       style="fill:#000000;fill-opacity:1;fill-rule:nonzero;stroke:none"
       transform="matrix(1.3333333,0,0,-1.3333333,411.33333,61.672267)"
       clip-path="url(#clipPath22)" />
    <path
       id="path23"
       d="m 0,0 v -35.637 l 12.875,2.972 c 5.129,1.185 6.931,0.096 6.894,-10.211 v -45.798 l 15.253,3.521 v 42.381 c 0.106,18.193 2.241,21.959 11.289,24.048 l 8.078,1.865 v 29.416 z"
       style="fill:#000000;fill-opacity:1;fill-rule:nonzero;stroke:none"
       transform="matrix(1.3333333,0,0,-1.3333333,283.90307,78.2204)"
       clip-path="url(#clipPath24)" />
    <path
       id="path25"
       d="m 0,0 -16.268,-3.756 c 0,0 -0.102,-12.309 -1.002,-28.612 -0.956,-17.329 -19.626,-22.643 -20.691,-5.014 -0.682,11.26 -0.573,26.529 -0.573,26.529 l -19.473,-4.495 v -8.338 c 0,-32.466 3.731,-43.484 23.342,-41.367 4.587,0.496 8.079,1.952 12.015,4.617 0.245,0.166 0.556,0.17 0.848,-0.056 0.28,-0.217 0.734,-0.946 0.051,-3.065 -3.678,-11.416 -35.168,-14.809 -35.168,-14.809 l -0.009,-25.512 c 18.002,2.649 37.596,6.482 47.879,23.565 C -5.209,-73.932 0,-66.228 0,0"
       style="fill:#000000;fill-opacity:1;fill-rule:nonzero;stroke:none"
       transform="matrix(1.3333333,0,0,-1.3333333,273.86,98.3956)"
       clip-path="url(#clipPath26)" />
    <path
       id="path27"
       d="m 0,0 c 0,0 0.315,-20.837 -0.395,-27.735 -0.942,-9.154 -17.169,-12.315 -17.856,-2.958 -0.307,4.176 -0.541,9.562 -0.541,21.86 l -13.261,-3.062 v -82.182 l 18.182,4.198 V -70.9 c 0,14.597 18.134,15.817 19.11,5.614 0.307,-3.208 0.464,-8.209 0.464,-18.588 l 13.26,3.062 v 85.19 z"
       style="fill:#000000;fill-opacity:1;fill-rule:nonzero;stroke:none"
       transform="matrix(1.3333333,0,0,-1.3333333,159.1712,116.65213)"
       clip-path="url(#clipPath28)" />
    <path
       id="path29"
       d="m 0,0 c -8.326,-2.124 -13.237,2.337 -13.237,13.53 0,8.928 0.168,18.145 16.513,18.145 11.637,0 16.503,-5.893 16.503,-12.539 C 19.779,13.347 12.697,3.237 0,0 m 48.865,36.877 c 0,20.559 -15.147,45.424 -78.523,30.17 V -44.761 l 16.504,3.81 v 20.201 c 0,8.21 4.73,6.698 7.748,4.732 2.344,-1.527 7.317,-5.534 19.07,-18.741 l 28.037,6.472 -21.848,22.37 c 0,0 29.012,11.683 29.012,42.794"
       style="fill:#000000;fill-opacity:1;fill-rule:nonzero;stroke:none"
       transform="matrix(1.3333333,0,0,-1.3333333,39.544267,197.8956)"
       clip-path="url(#clipPath30)" />
  </g>
</svg>
