<?xml version="1.0" encoding="UTF-8" standalone="no"?>
<!-- Created with Inkscape (http://www.inkscape.org/) -->

<svg
   version="1.1"
   id="svg1"
   width="666.66669"
   height="496.73068"
   viewBox="0 0 666.66669 496.73068"
   sodipodi:docname="Rhythm Heaven Advance (ESP) Logo (Wordmark).ai"
   xmlns:inkscape="http://www.inkscape.org/namespaces/inkscape"
   xmlns:sodipodi="http://sodipodi.sourceforge.net/DTD/sodipodi-0.dtd"
   xmlns="http://www.w3.org/2000/svg"
   xmlns:svg="http://www.w3.org/2000/svg">
  <defs
     id="defs1">
    <clipPath
       clipPathUnits="userSpaceOnUse"
       id="clipPath2">
      <path
         d="M 0,372.548 H 500 V 0 H 0 Z"
         transform="translate(-490.98271,-61.119104)"
         id="path2" />
    </clipPath>
    <clipPath
       clipPathUnits="userSpaceOnUse"
       id="clipPath4">
      <path
         d="M 0,372.548 H 500 V 0 H 0 Z"
         transform="translate(-493.58911,-80.882805)"
         id="path4" />
    </clipPath>
    <clipPath
       clipPathUnits="userSpaceOnUse"
       id="clipPath6">
      <path
         d="M 0,372.548 H 500 V 0 H 0 Z"
         transform="translate(-465.74241,-153.3477)"
         id="path6" />
    </clipPath>
    <clipPath
       clipPathUnits="userSpaceOnUse"
       id="clipPath8">
      <path
         d="M 0,372.548 H 500 V 0 H 0 Z"
         transform="translate(-420.41041,-257.78711)"
         id="path8" />
    </clipPath>
    <clipPath
       clipPathUnits="userSpaceOnUse"
       id="clipPath10">
      <path
         d="M 0,372.548 H 500 V 0 H 0 Z"
         transform="translate(-345.09201,-156.6855)"
         id="path10" />
    </clipPath>
    <clipPath
       clipPathUnits="userSpaceOnUse"
       id="clipPath12">
      <path
         d="M 0,372.548 H 500 V 0 H 0 Z"
         transform="translate(-296.7454,-215.65191)"
         id="path12" />
    </clipPath>
    <clipPath
       clipPathUnits="userSpaceOnUse"
       id="clipPath14">
      <path
         d="M 0,372.548 H 500 V 0 H 0 Z"
         transform="translate(-238.11841,-128.001)"
         id="path14" />
    </clipPath>
    <clipPath
       clipPathUnits="userSpaceOnUse"
       id="clipPath16">
      <path
         d="M 0,372.548 H 500 V 0 H 0 Z"
         transform="translate(-175.81761,-112.12301)"
         id="path16" />
    </clipPath>
    <clipPath
       clipPathUnits="userSpaceOnUse"
       id="clipPath18">
      <path
         d="M 0,372.548 H 500 V 0 H 0 Z"
         transform="translate(-121.5627,-178.09961)"
         id="path18" />
    </clipPath>
    <clipPath
       clipPathUnits="userSpaceOnUse"
       id="clipPath20">
      <path
         d="M 0,372.548 H 500 V 0 H 0 Z"
         transform="translate(-418.68871,-271.28961)"
         id="path20" />
    </clipPath>
    <clipPath
       clipPathUnits="userSpaceOnUse"
       id="clipPath22">
      <path
         d="M 0,372.548 H 500 V 0 H 0 Z"
         transform="translate(-309.45241,-326.15141)"
         id="path22" />
    </clipPath>
    <clipPath
       clipPathUnits="userSpaceOnUse"
       id="clipPath24">
      <path
         d="M 0,372.548 H 500 V 0 H 0 Z"
         transform="translate(-213.58471,-313.70211)"
         id="path24" />
    </clipPath>
    <clipPath
       clipPathUnits="userSpaceOnUse"
       id="clipPath26">
      <path
         d="M 0,372.548 H 500 V 0 H 0 Z"
         transform="translate(-206.02911,-298.52391)"
         id="path26" />
    </clipPath>
    <clipPath
       clipPathUnits="userSpaceOnUse"
       id="clipPath28">
      <path
         d="M 0,372.548 H 500 V 0 H 0 Z"
         transform="translate(-119.74731,-284.78961)"
         id="path28" />
    </clipPath>
    <clipPath
       clipPathUnits="userSpaceOnUse"
       id="clipPath30">
      <path
         d="M 0,372.548 H 500 V 0 H 0 Z"
         transform="translate(-29.7502,-223.66851)"
         id="path30" />
    </clipPath>
  </defs>
  <sodipodi:namedview
     id="namedview1"
     pagecolor="#ffffff"
     bordercolor="#000000"
     borderopacity="0.25"
     inkscape:showpageshadow="2"
     inkscape:pageopacity="0.0"
     inkscape:pagecheckerboard="0"
     inkscape:deskcolor="#d1d1d1">
    <inkscape:page
       x="0"
       y="0"
       inkscape:label="1"
       id="page1"
       width="666.66669"
       height="496.73068"
       margin="0"
       bleed="0" />
  </sodipodi:namedview>
  <g
     id="layer-MC0"
     inkscape:groupmode="layer"
     inkscape:label="Layer 1">
    <path
       id="path1"
       d="m 0,0 c 0,0.779 -0.258,1.389 -0.772,1.833 -0.515,0.443 -1.108,0.588 -1.78,0.433 l -18.097,-4.178 v -15.183 l 18.097,4.179 c 0.672,0.155 1.265,0.562 1.78,1.222 0.514,0.658 0.772,1.378 0.772,2.157 z m 0,11.159 c 1.186,0.275 2.322,0.277 3.41,0.01 C 4.498,10.9 5.458,10.418 6.288,9.724 7.119,9.028 7.781,8.144 8.275,7.068 8.771,5.993 9.018,4.764 9.018,3.379 V -8.753 c 0,-1.298 -0.238,-2.597 -0.712,-3.895 -0.475,-1.3 -1.119,-2.498 -1.929,-3.592 C 5.565,-17.336 4.607,-18.281 3.5,-19.078 2.392,-19.876 1.225,-20.414 0,-20.697 l -20.649,-4.767 v -13.56 l -9.018,-2.082 V 4.311 Z m -62.952,-22.838 c -0.713,-0.164 -1.326,-0.588 -1.84,-1.268 -0.515,-0.682 -0.771,-1.41 -0.771,-2.19 v -4.152 c 0,-0.778 0.256,-1.391 0.771,-1.833 0.514,-0.444 1.127,-0.583 1.84,-0.419 l 17.443,4.027 c 1.187,0.275 2.323,0.277 3.411,0.01 1.088,-0.268 2.047,-0.751 2.878,-1.444 0.831,-0.696 1.492,-1.581 1.988,-2.656 0.495,-1.076 0.742,-2.306 0.742,-3.69 v -7.525 c 0,-1.298 -0.238,-2.597 -0.712,-3.896 -0.476,-1.3 -1.118,-2.497 -1.929,-3.592 -0.81,-1.095 -1.761,-2.039 -2.848,-2.831 -1.087,-0.793 -2.265,-1.334 -3.53,-1.626 l -20.589,-4.753 c -1.186,-0.274 -2.323,-0.277 -3.411,-0.009 -1.089,0.268 -2.057,0.736 -2.907,1.405 -0.852,0.668 -1.523,1.54 -2.018,2.616 -0.496,1.075 -0.742,2.305 -0.742,3.689 v 3.503 l 9.078,2.096 v -2.206 c 0,-0.778 0.247,-1.381 0.742,-1.807 0.495,-0.427 1.098,-0.558 1.809,-0.394 l 15.486,3.575 c 0.712,0.165 1.315,0.585 1.81,1.262 0.495,0.676 0.742,1.404 0.742,2.183 v 4.93 c 0,0.778 -0.247,1.393 -0.742,1.841 -0.495,0.447 -1.098,0.589 -1.81,0.425 l -17.443,-4.028 c -1.186,-0.273 -2.335,-0.279 -3.441,-0.014 -1.109,0.263 -2.077,0.742 -2.908,1.437 -0.831,0.695 -1.494,1.579 -1.988,2.656 -0.494,1.074 -0.742,2.303 -0.742,3.688 v 6.748 c 0,1.298 0.238,2.595 0.713,3.895 0.474,1.298 1.116,2.497 1.928,3.592 0.811,1.095 1.77,2.04 2.878,2.837 1.107,0.797 2.293,1.341 3.56,1.634 l 19.342,4.465 c 1.187,0.274 2.323,0.276 3.412,0.01 1.087,-0.269 2.056,-0.748 2.907,-1.438 0.851,-0.691 1.523,-1.586 2.017,-2.681 0.495,-1.097 0.742,-2.317 0.742,-3.657 v -3.504 l -9.078,-2.095 v 2.271 c 0,0.778 -0.247,1.38 -0.741,1.808 -0.495,0.425 -1.098,0.557 -1.81,0.392 z m -18.75,-41.44 -34.65,-8 v 45.417 l 34.65,7.999 v -8.304 l -25.572,-5.904 v -9.862 l 21.003,4.849 v -8.305 l -21.003,-4.85 v -10.64 l 25.572,5.904 z"
       style="fill:#000000;fill-opacity:1;fill-rule:nonzero;stroke:none"
       transform="matrix(1.3333333,0,0,-1.3333333,654.6436,415.23853)"
       clip-path="url(#clipPath2)" />
    <path
       id="path3"
       d="M 0,0 -39.481,-9.115 V 42.633 L 0,51.748 V 42.285 L -29.138,35.559 V 24.321 l 23.932,5.526 V 20.385 L -29.138,14.859 V 2.735 L 0,9.462 Z m -74.974,-17.309 c -1.352,-0.312 -2.648,-0.316 -3.887,-0.01 -1.24,0.304 -2.332,0.853 -3.279,1.645 -0.946,0.791 -1.702,1.8 -2.264,3.026 -0.565,1.224 -0.846,2.626 -0.846,4.204 V 20.83 c 0,1.479 0.271,2.957 0.812,4.439 0.541,1.479 1.273,2.843 2.197,4.091 0.923,1.248 2.005,2.324 3.245,3.226 1.239,0.902 2.579,1.52 4.022,1.853 l 21.431,4.948 c 1.352,0.312 2.647,0.315 3.887,0.01 1.239,-0.305 2.343,-0.852 3.313,-1.638 0.968,-0.787 1.735,-1.806 2.298,-3.055 0.564,-1.25 0.846,-2.639 0.846,-4.166 v -3.992 l -10.344,-2.388 v 2.587 c 0,0.888 -0.282,1.573 -0.845,2.06 -0.564,0.485 -1.251,0.635 -2.062,0.448 l -15.616,-3.606 c -0.812,-0.187 -1.499,-0.667 -2.063,-1.436 -0.563,-0.772 -0.845,-1.6 -0.845,-2.487 V -4.594 c 0,-0.886 0.282,-1.587 0.845,-2.096 0.564,-0.511 1.251,-0.672 2.063,-0.486 l 15.616,3.606 c 0.811,0.187 1.498,0.653 2.062,1.4 0.563,0.745 0.845,1.563 0.845,2.45 v 2.587 l 10.344,2.388 V 1.264 c 0,-1.578 -0.282,-3.11 -0.846,-4.594 -0.563,-1.486 -1.33,-2.847 -2.298,-4.079 -0.97,-1.236 -2.074,-2.29 -3.313,-3.168 -1.24,-0.878 -2.535,-1.473 -3.887,-1.784 z M -90.996,30.74 v -51.748 l -12.44,-2.872 -21.362,32.401 v -37.333 l -10.276,-2.373 v 51.749 l 12.439,2.872 21.364,-32.401 v 37.333 z m -71.255,-28.427 0.067,0.016 7.099,-17.508 -14.332,-3.308 z m 25.148,-33.965 -20.01,47.128 -10.276,-2.372 -20.01,-56.369 10.275,2.373 4.124,12.115 21.431,4.947 4.191,-10.194 z m -48.269,40.604 -20.011,-56.368 -10.275,-2.372 -20.012,47.128 10.75,2.481 14.399,-34.968 14.4,41.618 z m -62.331,-53.423 c 0,-0.887 -0.282,-1.717 -0.845,-2.487 -0.564,-0.771 -1.251,-1.25 -2.062,-1.437 l -19.875,-4.588 v 32.823 l 19.875,4.588 c 0.811,0.187 1.498,0.025 2.062,-0.485 0.563,-0.511 0.845,-1.21 0.845,-2.096 z m 10.344,30.184 c 0,1.577 -0.283,2.977 -0.846,4.204 -0.564,1.225 -1.317,2.233 -2.265,3.025 -0.946,0.791 -2.051,1.337 -3.312,1.638 -1.262,0.3 -2.569,0.294 -3.921,-0.018 l -33.059,-7.632 v -51.748 l 33.059,7.631 c 1.442,0.333 2.794,0.953 4.057,1.861 1.26,0.907 2.354,1.985 3.278,3.233 0.924,1.248 1.656,2.613 2.197,4.093 0.541,1.48 0.812,2.96 0.812,4.438 z m -70.579,-17.033 0.067,0.015 7.099,-17.508 -14.332,-3.309 z m 25.148,-33.967 -20.011,47.129 -10.276,-2.372 -20.01,-56.368 10.275,2.372 4.125,12.115 21.43,4.947 4.192,-10.195 z"
       style="fill:#000000;fill-opacity:1;fill-rule:nonzero;stroke:none"
       transform="matrix(1.3333333,0,0,-1.3333333,658.1188,388.88693)"
       clip-path="url(#clipPath4)" />
    <path
       id="path5"
       d="M 0,0 V 8.208 L -2.063,-0.476 -4.298,-0.992 -6.312,6.75 V -1.457 L -8.425,-1.944 V 7.88 l 3.3,0.763 1.99,-7.334 0.025,0.005 1.94,8.242 3.258,0.752 V 0.482 Z m -15.251,-3.521 v 8.083 l -3.398,-0.785 v 1.737 l 8.988,2.075 V 5.853 l -3.276,-0.757 v -8.082 z"
       style="fill:#000000;fill-opacity:1;fill-rule:nonzero;stroke:none"
       transform="matrix(1.3333333,0,0,-1.3333333,620.98987,292.26707)"
       clip-path="url(#clipPath6)" />
    <path
       id="path7"
       d="m 0,0 c 0,0 -0.153,-39.883 -0.649,-46.898 -0.776,-10.958 -3.72,-11.252 -6.226,-9.609 -5,3.28 -14.342,21.958 -22.706,38.201 l -12.203,-2.818 V -122.05 l 14.922,3.446 0.05,25.608 c 0.026,13.145 3.615,14.001 8.831,9.225 3.957,-3.623 9.342,-11.614 17.828,-25.201 l 19.746,4.559 V 4.523 Z"
       style="fill:#000000;fill-opacity:1;fill-rule:nonzero;stroke:none"
       transform="matrix(1.3333333,0,0,-1.3333333,560.5472,153.01453)"
       clip-path="url(#clipPath8)" />
    <path
       id="path9"
       d="m 0,0 c -0.453,-0.002 -3.805,0.111 -4.163,2.669 -0.208,1.481 0.503,2.872 2.292,3.966 2.797,1.711 12.477,4.493 21.77,6.672 v 12.849 c 0,0 -16.826,-4.049 -22,-3.279 -1.571,0.234 -2.618,1.064 -2.826,2.517 -0.213,1.484 0.535,2.821 2.291,3.965 4.733,3.082 25.973,7.664 25.973,7.664 V 66.671 L -20.396,56.575 V -22.458 L 24.253,-12.15 V 4.271 C 12.337,1.563 4.282,0.023 0,0"
       style="fill:#000000;fill-opacity:1;fill-rule:nonzero;stroke:none"
       transform="matrix(1.3333333,0,0,-1.3333333,460.12267,287.81667)"
       clip-path="url(#clipPath10)" />
    <path
       id="path11"
       d="m 0,0 c 0,0 -4.737,-31.212 -8.944,-45.637 -1.202,-4.121 -4.107,-10.428 -8.059,-1.41 -1.415,3.229 -5.616,18.318 -8.7,37.77 l -13.643,-3.15 c 1.194,-13.375 7.743,-49.5 16.47,-70.546 l 26.46,6.108 c 9.739,25.776 15.583,52.999 17.568,81.748 z"
       style="fill:#000000;fill-opacity:1;fill-rule:nonzero;stroke:none"
       transform="matrix(1.3333333,0,0,-1.3333333,395.66053,209.1948)"
       clip-path="url(#clipPath12)" />
    <path
       id="path13"
       d="m 0,0 c -2.107,-0.458 -6.902,-1.673 -9.353,-2.132 -2.344,-0.459 -3.713,0.863 -3.424,4.21 0.263,3.131 1.638,9.769 2.16,12.011 1.153,4.956 3.42,7.022 6.086,7.394 C -1.114,21.96 1.87,18.974 3.504,10.877 3.661,10.094 4.061,8.47 4.32,6.262 4.636,3.581 3.319,0.837 0,0 m 11.661,44.743 c -6.621,12.2 -14.322,9.672 -18.267,8.366 -5.17,-1.711 -9.759,-4.366 -14.561,-23.411 -5.046,-20.019 -10.541,-62.073 -10.541,-62.073 l 13.854,3.198 1.423,7.974 c 0.688,3.85 3.139,6.297 6.875,7.396 0,0 10.736,2.786 14.4,3.203 1.548,0.176 3.367,-1.045 3.895,-3.469 l 1.872,-8.579 18.868,4.356 c 0,0 -9.386,47.506 -17.818,63.039"
       style="fill:#000000;fill-opacity:1;fill-rule:nonzero;stroke:none"
       transform="matrix(1.3333333,0,0,-1.3333333,317.4912,326.06267)"
       clip-path="url(#clipPath14)" />
    <path
       id="path15"
       d="m 0,0 c -0.453,-0.002 -3.805,0.111 -4.163,2.669 -0.208,1.481 0.503,2.872 2.291,3.966 2.797,1.711 12.478,4.493 21.771,6.672 v 12.849 c 0,0 -16.825,-4.049 -22,-3.279 -1.571,0.234 -2.618,1.064 -2.826,2.517 -0.213,1.484 0.535,2.821 2.291,3.965 4.733,3.082 25.972,7.664 25.972,7.664 V 68.979 L -20.396,58.884 V -20.15 L 24.253,-9.842 V 4.271 C 12.336,1.563 4.282,0.023 0,0"
       style="fill:#000000;fill-opacity:1;fill-rule:nonzero;stroke:none"
       transform="matrix(1.3333333,0,0,-1.3333333,234.42347,347.23333)"
       clip-path="url(#clipPath16)" />
    <path
       id="path17"
       d="m 0,0 c 0,-15.771 0.08,-27.574 -2.081,-35.309 -1.313,-4.698 -4.201,-8.273 -8.059,-10.981 -3.929,-2.757 -7.868,-3.965 -11.725,-4.041 -4.704,-0.093 -8.143,2.467 -8.645,7.693 -0.722,7.508 -0.675,16.996 -0.675,30.145 l -17.072,-3.942 v -116.293 l 23.451,5.415 c 0,14.799 0.303,25.709 2.127,32.513 1.243,4.637 4.625,8.55 8.038,10.856 3.99,2.694 7.661,4.041 11.526,4.104 4.698,0.076 8.264,-2.348 8.708,-7.034 0.649,-6.862 0.691,-16.196 0.691,-28.933 l 17.378,4.012 V 5.463 Z"
       style="fill:#000000;fill-opacity:1;fill-rule:nonzero;stroke:none"
       transform="matrix(1.3333333,0,0,-1.3333333,162.0836,259.26453)"
       clip-path="url(#clipPath18)" />
    <path
       id="path19"
       d="M 0,0 V 101.258 L -13.842,98.063 C -21.184,73.82 -25.336,61.966 -28.959,51.974 c -6.164,-17.005 -12.576,-10.33 -15.55,-5.583 -3.476,5.551 -8.182,16.368 -16.365,36.175 l -20.215,-4.667 v -93.696 l 16.763,3.87 c -0.128,15.167 0.135,24.007 0.954,28.009 0.735,3.595 2.901,4.101 5.098,0.535 1.806,-2.933 4.665,-9.279 10.349,-22.331 l 11.242,2.596 c 6.195,16.646 9.542,25.033 11.905,29.141 1.919,3.336 5.549,5.684 6.653,-0.484 0.836,-4.666 0.766,-14.054 0.739,-29.553 z"
       style="fill:#000000;fill-opacity:1;fill-rule:nonzero;stroke:none"
       transform="matrix(1.3333333,0,0,-1.3333333,558.2516,135.0112)"
       clip-path="url(#clipPath20)" />
    <path
       id="path21"
       d="m 0,0 c 0,0 0.333,-21.993 -0.417,-29.273 -0.994,-9.662 -18.121,-12.998 -18.846,-3.123 -0.324,4.408 -0.572,10.093 -0.572,23.073 l -13.996,-3.231 v -86.741 l 19.191,4.431 v 20.031 c 0,15.407 19.139,16.695 20.17,5.926 0.324,-3.386 0.489,-8.665 0.489,-19.619 l 13.997,3.231 V 4.621 Z"
       style="fill:#000000;fill-opacity:1;fill-rule:nonzero;stroke:none"
       transform="matrix(1.3333333,0,0,-1.3333333,412.6032,61.862133)"
       clip-path="url(#clipPath22)" />
    <path
       id="path23"
       d="m 0,0 v -35.747 l 12.914,2.981 c 5.147,1.188 6.954,0.096 6.917,-10.243 v -45.939 l 15.299,3.532 v 42.511 c 0.107,18.25 2.248,22.028 11.325,24.123 l 8.103,1.871 v 29.507 z"
       style="fill:#000000;fill-opacity:1;fill-rule:nonzero;stroke:none"
       transform="matrix(1.3333333,0,0,-1.3333333,284.7796,78.4612)"
       clip-path="url(#clipPath24)" />
    <path
       id="path25"
       d="m 0,0 -16.318,-3.768 c 0,0 -0.102,-12.347 -1.005,-28.7 -0.959,-17.383 -19.686,-22.713 -20.755,-5.03 -0.683,11.296 -0.574,26.612 -0.574,26.612 l -19.534,-4.51 v -8.363 c 0,-32.567 3.742,-43.619 23.415,-41.494 4.6,0.496 8.103,1.958 12.051,4.63 0.246,0.167 0.558,0.171 0.851,-0.056 0.281,-0.217 0.736,-0.948 0.051,-3.074 -3.689,-11.452 -35.277,-14.855 -35.277,-14.855 l -0.008,-25.591 c 18.058,2.657 37.712,6.502 48.026,23.637 C -5.225,-74.161 0,-66.433 0,0"
       style="fill:#000000;fill-opacity:1;fill-rule:nonzero;stroke:none"
       transform="matrix(1.3333333,0,0,-1.3333333,274.70547,98.6988)"
       clip-path="url(#clipPath26)" />
    <path
       id="path27"
       d="m 0,0 c 0,0 0.316,-20.901 -0.396,-27.821 -0.945,-9.182 -17.223,-12.353 -17.912,-2.968 -0.307,4.19 -0.543,9.592 -0.543,21.928 l -13.302,-3.071 v -82.436 l 18.239,4.211 v 19.037 c 0,14.642 18.19,15.867 19.169,5.632 0.308,-3.218 0.465,-8.235 0.465,-18.645 l 13.302,3.071 V 4.391 Z"
       style="fill:#000000;fill-opacity:1;fill-rule:nonzero;stroke:none"
       transform="matrix(1.3333333,0,0,-1.3333333,159.66307,117.0112)"
       clip-path="url(#clipPath28)" />
    <path
       id="path29"
       d="m 0,0 c -8.353,-2.13 -13.278,2.344 -13.278,13.572 0,8.955 0.168,18.2 16.564,18.2 11.673,0 16.554,-5.91 16.554,-12.577 C 19.84,13.388 12.736,3.247 0,0 m 49.015,36.991 c 0,20.622 -15.193,45.564 -78.765,30.263 V -44.899 l 16.555,3.821 v 20.264 c 0,8.235 4.744,6.718 7.772,4.747 2.352,-1.532 7.339,-5.552 19.129,-18.8 l 28.124,6.493 -21.916,22.439 c 0,0 29.101,11.718 29.101,42.926"
       style="fill:#000000;fill-opacity:1;fill-rule:nonzero;stroke:none"
       transform="matrix(1.3333333,0,0,-1.3333333,39.666933,198.506)"
       clip-path="url(#clipPath30)" />
  </g>
</svg>
