<?xml version="1.0" encoding="UTF-8" standalone="no"?>
<!-- Created with Inkscape (http://www.inkscape.org/) -->

<svg
   version="1.1"
   id="svg1"
   width="666.66669"
   height="480.04001"
   viewBox="0 0 666.66669 480.04001"
   sodipodi:docname="Rhythm Tengoku+ (リズム天国＋) Logo (Wordmark).ai"
   xmlns:inkscape="http://www.inkscape.org/namespaces/inkscape"
   xmlns:sodipodi="http://sodipodi.sourceforge.net/DTD/sodipodi-0.dtd"
   xmlns="http://www.w3.org/2000/svg"
   xmlns:svg="http://www.w3.org/2000/svg">
  <defs
     id="defs1">
    <clipPath
       clipPathUnits="userSpaceOnUse"
       id="clipPath2">
      <path
         d="M 0,360.03 H 500 V 0 H 0 Z"
         transform="translate(-448.84791,-120.012)"
         id="path2" />
    </clipPath>
    <clipPath
       clipPathUnits="userSpaceOnUse"
       id="clipPath4">
      <path
         d="M 0,360.03 H 500 V 0 H 0 Z"
         transform="translate(-479.79611,-154.6429)"
         id="path4" />
    </clipPath>
    <clipPath
       clipPathUnits="userSpaceOnUse"
       id="clipPath6">
      <path
         d="M 0,360.03 H 500 V 0 H 0 Z"
         transform="translate(-485.55591,-191.0892)"
         id="path6" />
    </clipPath>
    <clipPath
       clipPathUnits="userSpaceOnUse"
       id="clipPath8">
      <path
         d="M 0,360.03 H 500 V 0 H 0 Z"
         transform="translate(-373.28831,-77.404599)"
         id="path8" />
    </clipPath>
    <clipPath
       clipPathUnits="userSpaceOnUse"
       id="clipPath10">
      <path
         d="M 0,360.03 H 500 V 0 H 0 Z"
         transform="translate(-342.49631,-160.6702)"
         id="path10" />
    </clipPath>
    <clipPath
       clipPathUnits="userSpaceOnUse"
       id="clipPath12">
      <path
         d="M 0,360.03 H 500 V 0 H 0 Z"
         transform="translate(-325.68091,-188.3592)"
         id="path12" />
    </clipPath>
    <clipPath
       clipPathUnits="userSpaceOnUse"
       id="clipPath14">
      <path
         d="M 0,360.03 H 500 V 0 H 0 Z"
         transform="translate(-270.22581,-184.7293)"
         id="path14" />
    </clipPath>
    <clipPath
       clipPathUnits="userSpaceOnUse"
       id="clipPath16">
      <path
         d="M 0,360.03 H 500 V 0 H 0 Z"
         transform="translate(-144.2487,-64.208304)"
         id="path16" />
    </clipPath>
    <clipPath
       clipPathUnits="userSpaceOnUse"
       id="clipPath18">
      <path
         d="M 0,360.03 H 500 V 0 H 0 Z"
         transform="translate(-165.8737,-158.29521)"
         id="path18" />
    </clipPath>
    <clipPath
       clipPathUnits="userSpaceOnUse"
       id="clipPath20">
      <path
         d="M 0,360.03 H 500 V 0 H 0 Z"
         transform="translate(-102.9211,-151.79331)"
         id="path20" />
    </clipPath>
    <clipPath
       clipPathUnits="userSpaceOnUse"
       id="clipPath22">
      <path
         d="M 0,360.03 H 500 V 0 H 0 Z"
         transform="translate(-489.91621,-273.1102)"
         id="path22" />
    </clipPath>
    <clipPath
       clipPathUnits="userSpaceOnUse"
       id="clipPath24">
      <path
         d="M 0,360.03 H 500 V 0 H 0 Z"
         transform="translate(-325.39381,-329.92271)"
         id="path24" />
    </clipPath>
    <clipPath
       clipPathUnits="userSpaceOnUse"
       id="clipPath26">
      <path
         d="M 0,360.03 H 500 V 0 H 0 Z"
         transform="translate(-87.4699,-279.7645)"
         id="path26" />
    </clipPath>
  </defs>
  <sodipodi:namedview
     id="namedview1"
     pagecolor="#ffffff"
     bordercolor="#000000"
     borderopacity="0.25"
     inkscape:showpageshadow="2"
     inkscape:pageopacity="0.0"
     inkscape:pagecheckerboard="0"
     inkscape:deskcolor="#d1d1d1">
    <inkscape:page
       x="0"
       y="0"
       inkscape:label="1"
       id="page1"
       width="666.66669"
       height="480.04001"
       margin="0"
       bleed="0" />
  </sodipodi:namedview>
  <g
     id="layer-MC0"
     inkscape:groupmode="layer"
     inkscape:label="Layer 1">
    <path
       id="path1"
       d="M 0,0 18.085,3.844 C 17.125,-2.455 14.138,-10.729 4.014,-12.882 l -5.238,-1.113 -0.415,-4.742 5.354,1.138 c 6.93,1.473 10.362,3.182 14.775,7.781 0.983,-0.6 2.233,-1.961 2.826,-4.039 l 8.15,1.732 c -0.995,1.49 -5.486,4.827 -8.203,5.446 3.443,4.572 4.137,7.583 4.858,10.905 0.256,1.202 0.882,1.778 1.546,1.919 L 28.9,6.407 29.297,10.94 0.421,4.803 Z"
       style="fill:#000000;fill-opacity:1;fill-rule:nonzero;stroke:none"
       transform="matrix(1.3333333,0,0,-1.3333333,598.46387,320.024)"
       clip-path="url(#clipPath2)" />
    <path
       id="path3"
       d="m 0,0 -28.447,-6.047 -0.407,-4.65 20.824,4.426 c -0.576,-6.584 -6.116,-10.124 -13.943,-11.787 l -7.668,-1.629 -0.411,-4.701 10.675,2.27 c 7.193,1.528 17.908,5.337 18.97,17.468 z m -0.917,2.105 -26.032,-5.534 0.353,4.037 26.032,5.534 z"
       style="fill:#000000;fill-opacity:1;fill-rule:nonzero;stroke:none"
       transform="matrix(1.3333333,0,0,-1.3333333,639.72813,273.84947)"
       clip-path="url(#clipPath4)" />
    <path
       id="path5"
       d="M 0,0 C -0.872,-0.185 -1.729,0.371 -1.914,1.243 -2.099,2.114 -1.543,2.971 -0.671,3.156 0.2,3.341 1.058,2.785 1.242,1.914 1.428,1.042 0.871,0.186 0,0 M 4.222,2.547 C 3.687,5.063 1.213,6.67 -1.305,6.135 -3.821,5.6 -5.428,3.126 -4.893,0.609 c 0.16,-0.748 0.505,-1.402 0.957,-1.958 l -27.058,-5.751 -0.42,-4.802 18.201,3.868 c -0.965,-6.299 -3.876,-14.558 -14.124,-16.737 l -5.302,-1.126 -0.415,-4.742 5.42,1.152 c 15.66,3.329 20.113,12.313 22.181,21.776 0.262,1.201 0.891,1.78 1.562,1.923 l 1.249,0.265 0.257,2.94 c 0.906,-0.447 1.953,-0.622 3.018,-0.396 2.516,0.535 4.123,3.009 3.589,5.526"
       style="fill:#000000;fill-opacity:1;fill-rule:nonzero;stroke:none"
       transform="matrix(1.3333333,0,0,-1.3333333,647.40787,225.2544)"
       clip-path="url(#clipPath6)" />
    <path
       id="path7"
       d="M 0,0 4.933,1.07 3.83,-10.398 7.188,-9.669 8.291,1.8 13.046,2.832 13.282,5.297 0.236,2.464 Z M 30.338,9.007 28.998,-4.934 25.967,-5.591 27.086,6.055 22.972,-6.242 19.729,-6.947 17.924,4.064 16.806,-7.581 l -3.067,-0.666 1.34,13.942 4.79,1.039 1.825,-10.429 0.035,0.007 3.88,11.669 z"
       style="fill:#000000;fill-opacity:1;fill-rule:nonzero;stroke:none"
       transform="matrix(1.3333333,0,0,-1.3333333,497.71773,376.83387)"
       clip-path="url(#clipPath8)" />
    <path
       id="path9"
       d="m 0,0 -72.559,-15.423 c -3.9,-0.817 -6.456,-3.949 -6.837,-8.307 l -7.049,-80.58 72.558,15.423 c 3.607,0.746 6.429,3.641 6.837,8.308 z M 30.607,21.631 20.253,-96.719 -117.036,-125.9 -106.682,-7.551 Z m -50.441,-95.693 -8.016,-1.703 c -4.681,-0.995 -6.821,0.631 -6.562,3.578 l 1.638,18.725 15.021,3.193 0.872,9.966 -15.021,-3.193 1.334,15.252 c 0.423,4.841 2.786,7.447 6.632,8.265 l 9,1.913 0.813,9.285 -51.556,-10.959 -0.812,-9.284 8.116,1.725 c 5.673,1.205 6.639,-1.585 6.464,-3.58 l -1.503,-17.189 -15.023,-3.194 -0.872,-9.965 15.023,3.193 -1.469,-16.787 c -0.418,-4.776 -2.816,-7.474 -6.533,-8.264 l -9.102,-1.935 -0.807,-9.222 51.556,10.958 z m -6.703,15.807 8.239,1.752 -0.991,-11.323 -8.238,-1.751 z"
       style="fill:#000000;fill-opacity:1;fill-rule:nonzero;stroke:none"
       transform="matrix(1.3333333,0,0,-1.3333333,456.66173,265.81307)"
       clip-path="url(#clipPath10)" />
    <path
       id="path11"
       d="m 0,0 c -0.703,0.256 -1.796,0.658 -1.795,1.292 0,0.534 0.487,1.043 1.676,2.234 4.736,4.787 5.27,5.332 8.696,9.206 L 5.981,14.083 C 4.28,11.945 3.626,11.223 -1.281,5.943 -3.808,3.224 -5.023,1.697 -5.024,0.455 -5.026,-1.169 -3.277,-1.864 -1.312,-2.638 2.351,-4.067 5.843,-5.786 9.117,-7.88 l 2.405,2.617 C 9.316,-3.753 3.565,-1.271 0,0"
       style="fill:#000000;fill-opacity:1;fill-rule:nonzero;stroke:none"
       transform="matrix(1.3333333,0,0,-1.3333333,434.2412,228.8944)"
       clip-path="url(#clipPath12)" />
    <path
       id="path13"
       d="M 0,0 1.774,-1.452 C 4.634,0.985 6.828,2.534 9.936,3.76 L 9.938,6.285 C 8.36,5.95 0.571,4.269 -1.179,3.897 -2.411,3.635 -5.468,2.986 -6.208,2.854 L -6.211,-0.058 C -4.633,0.38 -2.512,0.883 2.566,2.04 0.962,0.875 0.789,0.734 0,0 m 3.958,-12.555 c -3.698,-0.786 -8.431,-1.739 -8.428,1.61 10e-4,0.541 0.103,2.444 2.173,4.97 l -1.995,1.121 c -1.8,-2.495 -2.887,-4.35 -2.889,-6.719 -0.002,-2.036 1.303,-3.717 3.004,-4.205 2.095,-0.61 4.19,-0.397 9.044,0.635 3.821,0.812 5.546,1.41 6.408,1.723 l -0.095,2.865 c -2.391,-0.869 -4.807,-1.487 -7.222,-2 m 7.106,10.707 1.725,1.449 C 12.272,0.599 11.461,1.766 10.477,2.742 L 8.75,1.318 c 0.96,-1.057 1.453,-1.725 2.314,-3.166 M 7.419,0.701 C 8.7,-0.65 9.535,-2.173 9.758,-2.589 L 8.03,-4.038 c -1.107,2.005 -1.895,2.869 -2.288,3.327 z"
       style="fill:#000000;fill-opacity:1;fill-rule:nonzero;stroke:none"
       transform="matrix(1.3333333,0,0,-1.3333333,360.30107,233.73427)"
       clip-path="url(#clipPath14)" />
    <path
       id="path15"
       d="M 0,0 1.159,13.248 52.353,24.13 54.168,44.879 2.975,33.997 4.6,52.576 55.794,63.458 57.605,84.155 -80.672,54.764 l -1.81,-20.698 50.359,10.705 -1.625,-18.58 -50.36,-10.704 -1.815,-20.749 50.36,10.704 -0.672,-7.672 c -2.149,-24.571 -16.252,-33.352 -36.887,-37.752 l -16.139,-3.431 -1.82,-20.795 35.149,7.471 c 26.996,5.725 37.081,14.233 49.678,38.195 5.519,-2.773 20.156,-14.373 25.823,-22.146 l 36.353,7.726 C 46.352,-20.346 9.924,-2.862 0,0"
       style="fill:#000000;fill-opacity:1;fill-rule:nonzero;stroke:none"
       transform="matrix(1.3333333,0,0,-1.3333333,192.3316,394.42893)"
       clip-path="url(#clipPath16)" />
    <path
       id="path17"
       d="m 0,0 c -0.523,-5.733 -1.797,-8.152 -3.755,-8.568 -2.078,-0.442 -2.075,1.885 -2.073,2.627 l 0.002,1.099 c 0.003,1.841 -0.088,5.783 -4.024,4.946 -1.663,-0.353 -2.618,-1.272 -3.156,-1.795 0.419,1.468 2.678,8.62 3.171,10.258 l -3.079,-0.066 c -1.084,-3.86 -4.527,-16.17 -6.445,-22.61 l 2.809,-0.245 c 0.173,0.726 1.404,5.87 1.454,6.007 0.516,1.542 1.916,4.957 4.679,5.544 1.834,0.39 1.832,-1.271 1.829,-2.907 L -8.59,-6.579 c -10e-4,-0.564 0.07,-2.081 0.409,-2.955 0.536,-1.394 2.099,-2.341 4.104,-1.914 4.498,0.956 5.973,5.026 6.644,11.201 z"
       style="fill:#000000;fill-opacity:1;fill-rule:nonzero;stroke:none"
       transform="matrix(1.3333333,0,0,-1.3333333,221.16493,268.97973)"
       clip-path="url(#clipPath18)" />
    <path
       id="path19"
       d="M 0,0 C 1.121,0.811 2.576,1.718 4.72,2.174 5.745,2.392 6.294,2.459 6.795,2.516 L 6.751,5.321 C 4.296,4.7 -6.646,1.926 -8.696,1.391 -10.34,0.966 -12.129,0.486 -13.773,0.137 l 0.09,-2.821 c 3.696,1.109 7.39,2.194 11.109,3.208 -5.322,-4.52 -6.591,-8.676 -6.595,-11.243 -0.004,-2.318 1.397,-4.386 3.539,-5.077 2.168,-0.711 4.717,-0.792 9.843,0.274 l 0.386,3.046 C -2.266,-14.159 -6.435,-13.7 -6.428,-9.911 -6.422,-6.548 -3.388,-2.489 0,0"
       style="fill:#000000;fill-opacity:1;fill-rule:nonzero;stroke:none"
       transform="matrix(1.3333333,0,0,-1.3333333,137.22813,277.64893)"
       clip-path="url(#clipPath20)" />
    <path
       id="path21"
       d="m 0,0 -5.466,-1.162 c -3.578,-0.77 -7.322,0.601 -9.626,4.744 L -25.668,22.589 -61.907,14.886 -48,-10.203 l -44.698,-9.501 33.887,83.875 c 1.482,3.666 3.737,5.848 6.62,6.481 l 9.094,1.933 1.254,14.334 -44.638,-9.488 -40.238,-99.591 c -1.558,-3.858 -4.076,-5.642 -6.636,-6.186 l -5.535,-1.176 -1.812,-20.721 150.786,32.051 z"
       style="fill:#000000;fill-opacity:1;fill-rule:nonzero;stroke:none"
       transform="matrix(1.3333333,0,0,-1.3333333,653.2216,115.89307)"
       clip-path="url(#clipPath22)" />
    <path
       id="path23"
       d="m 0,0 c -1.028,5.168 -6.127,8.433 -11.206,7.299 -5.177,-1.126 -8.336,-6.134 -7.299,-11.206 1.125,-5.176 6.135,-8.336 11.206,-7.299 C -2.123,-10.081 1.134,-5.079 0,0 m -46.125,-94.791 c 15.283,20.107 18.355,33.332 21.543,47.915 1.131,5.279 3.911,7.815 6.86,8.442 l 5.483,1.165 1.741,19.902 -128.318,-27.275 -1.845,-21.083 80.361,17.082 c -4.235,-27.656 -17.475,-64.008 -62.462,-73.571 l -23.274,-4.947 -1.821,-20.817 23.79,5.059 c 30.793,6.544 46.042,14.086 65.634,34.317 4.371,-2.617 9.931,-8.578 12.58,-17.693 l 36.216,7.697 c -4.431,6.531 -24.403,21.124 -36.488,23.807 m 4.933,86.062 c -1.037,5.071 2.13,10.177 7.298,11.206 5.072,1.037 10.073,-2.22 11.207,-7.299 1.037,-5.072 -2.123,-10.081 -7.299,-11.206 -5.072,-1.037 -10.073,2.219 -11.206,7.299"
       style="fill:#000000;fill-opacity:1;fill-rule:nonzero;stroke:none"
       transform="matrix(1.3333333,0,0,-1.3333333,433.8584,40.143067)"
       clip-path="url(#clipPath24)" />
    <path
       id="path25"
       d="m 0,0 -1.346,-15.391 3.158,0.671 c 4.754,1.011 6.877,-0.706 6.625,-3.598 L 3.653,-72.986 c -1.217,-13.916 -7.626,-23.67 -19.721,-26.257 l -62.958,-13.382 -1.812,-20.707 88.04,18.714 c 17.817,3.728 30.272,18.575 32.076,39.187 l 5.511,62.99 c 0.38,4.354 2.132,7.31 6.597,8.258 l 3.872,0.824 1.347,15.391 z m -37.733,-81.172 -49.737,-10.572 1.344,15.36 4.093,0.87 c 4.405,0.936 6.234,4.022 6.609,8.314 l 2.769,31.639 c 0.253,2.892 -1.858,4.618 -6.62,3.606 l -3.02,-0.641 1.346,15.39 49.738,10.572 -1.347,-15.391 -4.084,-0.869 c -4.416,-0.938 -6.244,-4.033 -6.616,-8.284 l -2.768,-31.64 c -0.254,-2.909 1.878,-4.643 6.626,-3.634 l 3.011,0.64 z"
       style="fill:#000000;fill-opacity:1;fill-rule:nonzero;stroke:none"
       transform="matrix(1.3333333,0,0,-1.3333333,116.62653,107.02067)"
       clip-path="url(#clipPath26)" />
  </g>
</svg>
