<?xml version="1.0" encoding="UTF-8" standalone="no"?>
<!-- Created with Inkscape (http://www.inkscape.org/) -->

<svg
   version="1.1"
   id="svg1"
   width="666.66669"
   height="256.50534"
   viewBox="0 0 666.66669 256.50534"
   sodipodi:docname="Rhythm Heaven Advance Logo (Horizontial).ai"
   xmlns:inkscape="http://www.inkscape.org/namespaces/inkscape"
   xmlns:sodipodi="http://sodipodi.sourceforge.net/DTD/sodipodi-0.dtd"
   xmlns="http://www.w3.org/2000/svg"
   xmlns:svg="http://www.w3.org/2000/svg">
  <defs
     id="defs1">
    <clipPath
       clipPathUnits="userSpaceOnUse"
       id="clipPath2">
      <path
         d="M 0,192.379 H 500 V 0 H 0 Z"
         transform="translate(-426.77591,-191.5943)"
         id="path2" />
    </clipPath>
    <clipPath
       clipPathUnits="userSpaceOnUse"
       id="clipPath4">
      <path
         d="M 0,192.379 H 500 V 0 H 0 Z"
         transform="translate(-427.87061,-184.6788)"
         id="path4" />
    </clipPath>
    <clipPath
       clipPathUnits="userSpaceOnUse"
       id="clipPath6">
      <path
         d="M 0,192.379 H 500 V 0 H 0 Z"
         transform="translate(-428.82671,-178.6412)"
         id="path6" />
    </clipPath>
    <clipPath
       clipPathUnits="userSpaceOnUse"
       id="clipPath8">
      <path
         d="M 0,192.379 H 500 V 0 H 0 Z"
         transform="translate(-317.01221,-79.130404)"
         id="path8" />
    </clipPath>
    <clipPath
       clipPathUnits="userSpaceOnUse"
       id="clipPath10">
      <path
         d="M 0,192.379 H 500 V 0 H 0 Z"
         transform="translate(-467.06891,-105.2344)"
         id="path10" />
    </clipPath>
    <clipPath
       clipPathUnits="userSpaceOnUse"
       id="clipPath12">
      <path
         d="M 0,192.379 H 500 V 0 H 0 Z"
         transform="translate(-445.10111,-160.8702)"
         id="path12" />
    </clipPath>
    <clipPath
       clipPathUnits="userSpaceOnUse"
       id="clipPath14">
      <path
         d="M 0,192.379 H 500 V 0 H 0 Z"
         transform="translate(-417.39991,-126.0347)"
         id="path14" />
    </clipPath>
    <clipPath
       clipPathUnits="userSpaceOnUse"
       id="clipPath16">
      <path
         d="M 0,192.379 H 500 V 0 H 0 Z"
         transform="translate(-383.35311,-142.3428)"
         id="path16" />
    </clipPath>
    <clipPath
       clipPathUnits="userSpaceOnUse"
       id="clipPath18">
      <path
         d="M 0,192.379 H 500 V 0 H 0 Z"
         transform="translate(-348.57281,-104.1197)"
         id="path18" />
    </clipPath>
    <clipPath
       clipPathUnits="userSpaceOnUse"
       id="clipPath20">
      <path
         d="M 0,192.379 H 500 V 0 H 0 Z"
         transform="translate(-330.16361,-117.8291)"
         id="path20" />
    </clipPath>
    <clipPath
       clipPathUnits="userSpaceOnUse"
       id="clipPath22">
      <path
         d="M 0,192.379 H 500 V 0 H 0 Z"
         transform="translate(-291.34521,-140.961)"
         id="path22" />
    </clipPath>
    <clipPath
       clipPathUnits="userSpaceOnUse"
       id="clipPath24">
      <path
         d="M 0,192.379 H 500 V 0 H 0 Z"
         transform="translate(-249.09331,-127.6036)"
         id="path24" />
    </clipPath>
    <clipPath
       clipPathUnits="userSpaceOnUse"
       id="clipPath26">
      <path
         d="M 0,192.379 H 500 V 0 H 0 Z"
         transform="translate(-201.10891,-114.1475)"
         id="path26" />
    </clipPath>
    <clipPath
       clipPathUnits="userSpaceOnUse"
       id="clipPath28">
      <path
         d="M 0,192.379 H 500 V 0 H 0 Z"
         transform="translate(-150.2701,-114.77251)"
         id="path28" />
    </clipPath>
    <clipPath
       clipPathUnits="userSpaceOnUse"
       id="clipPath30">
      <path
         d="M 0,192.379 H 500 V 0 H 0 Z"
         transform="translate(-139.2867,-103.5284)"
         id="path30" />
    </clipPath>
    <clipPath
       clipPathUnits="userSpaceOnUse"
       id="clipPath32">
      <path
         d="M 0,192.379 H 500 V 0 H 0 Z"
         transform="translate(-105.0528,-104.1841)"
         id="path32" />
    </clipPath>
    <clipPath
       clipPathUnits="userSpaceOnUse"
       id="clipPath34">
      <path
         d="M 0,192.379 H 500 V 0 H 0 Z"
         transform="translate(-60.754001,-64.697802)"
         id="path34" />
    </clipPath>
    <clipPath
       clipPathUnits="userSpaceOnUse"
       id="clipPath36">
      <path
         d="M 0,192.379 H 500 V 0 H 0 Z"
         transform="translate(-490.02981,-86.787605)"
         id="path36" />
    </clipPath>
    <clipPath
       clipPathUnits="userSpaceOnUse"
       id="clipPath38">
      <path
         d="M 0,192.379 H 500 V 0 H 0 Z"
         transform="translate(-485.06591,-65.447802)"
         id="path38" />
    </clipPath>
    <clipPath
       clipPathUnits="userSpaceOnUse"
       id="clipPath40">
      <path
         d="M 461.131,92.968 V 61.596 l 23.935,3.852 v 5.736 l -17.665,-2.842 v 7.35 l 14.509,2.335 v 5.736 l -14.509,-2.335 v 6.812 l 17.665,2.844 v 5.736 z m -8.524,-1.372 -12.992,-2.092 c -0.875,-0.14 -1.688,-0.458 -2.439,-0.952 v 0 c -0.752,-0.495 -1.407,-1.1 -1.968,-1.818 v 0 c -0.559,-0.718 -1.003,-1.514 -1.331,-2.388 v 0 c -0.328,-0.875 -0.492,-1.759 -0.492,-2.656 v 0 -17.747 c 0,-0.957 0.17,-1.819 0.512,-2.584 v 0 c 0.342,-0.767 0.799,-1.411 1.373,-1.931 v 0 c 0.574,-0.52 1.236,-0.899 1.989,-1.137 v 0 c 0.75,-0.236 1.536,-0.29 2.356,-0.157 v 0 l 12.992,2.09 c 0.819,0.132 1.604,0.438 2.357,0.917 v 0 c 0.75,0.479 1.42,1.072 2.007,1.78 v 0 c 0.588,0.706 1.052,1.498 1.394,2.376 v 0 c 0.342,0.876 0.513,1.792 0.513,2.748 v 0 2.42 l -6.271,-1.008 v -1.57 c 0,-0.537 -0.171,-1.021 -0.513,-1.449 v 0 c -0.342,-0.428 -0.758,-0.681 -1.25,-0.76 v 0 l -9.467,-1.525 c -0.491,-0.079 -0.909,0.048 -1.249,0.382 v 0 c -0.343,0.333 -0.513,0.768 -0.513,1.306 v 0 15.956 c 0,0.538 0.17,1.027 0.513,1.471 v 0 c 0.34,0.443 0.758,0.704 1.249,0.784 v 0 l 9.467,1.524 c 0.492,0.079 0.908,-0.041 1.25,-0.359 v 0 c 0.342,-0.32 0.513,-0.747 0.513,-1.285 v 0 -1.569 l 6.271,1.009 v 2.42 c 0,0.927 -0.171,1.781 -0.513,2.562 v 0 c -0.342,0.781 -0.806,1.432 -1.394,1.95 v 0 c -0.587,0.517 -1.257,0.896 -2.007,1.133 v 0 c -0.484,0.153 -0.981,0.23 -1.492,0.23 v 0 c -0.284,0 -0.572,-0.024 -0.865,-0.071 M 423.672,86.939 V 64.306 L 410.721,84.855 403.18,83.641 V 52.269 l 6.23,1.003 v 22.632 l 12.951,-20.548 7.541,1.214 v 31.372 z m -40.083,-6.451 -12.131,-33.324 6.23,1.002 2.5,7.171 12.991,2.09 2.541,-6.358 6.231,1.003 -12.132,29.419 z m 3.115,-6.759 0.04,0.007 4.304,-10.915 -8.688,-1.399 z m -20.533,3.956 -8.73,-24.62 -8.73,21.81 -6.517,-1.049 12.132,-29.419 6.23,1.003 12.131,33.324 z M 334.9,72.652 314.859,69.426 v -31.37 l 20.041,3.225 c 0.874,0.141 1.695,0.457 2.459,0.956 v 0 c 0.765,0.496 1.428,1.103 1.988,1.82 v 0 c 0.56,0.718 1.004,1.514 1.332,2.388 v 0 c 0.327,0.875 0.491,1.761 0.491,2.657 v 0 17.747 c 0,0.956 -0.171,1.817 -0.511,2.584 v 0 c -0.343,0.767 -0.8,1.411 -1.373,1.931 v 0 c -0.575,0.519 -1.244,0.897 -2.009,1.133 v 0 c -0.49,0.15 -0.992,0.226 -1.505,0.226 v 0 c -0.287,0 -0.578,-0.024 -0.872,-0.071 m -13.811,-7.959 12.048,1.939 c 0.492,0.08 0.909,-0.048 1.25,-0.381 v 0 c 0.342,-0.334 0.513,-0.77 0.513,-1.307 v 0 -15.955 c 0,-0.538 -0.171,-1.03 -0.513,-1.472 v 0 c -0.341,-0.443 -0.758,-0.705 -1.25,-0.785 v 0 l -12.048,-1.937 z m -25.821,1.581 -12.131,-33.324 6.23,1.002 2.499,7.17 12.993,2.091 2.541,-6.359 6.229,1.003 -12.132,29.419 z m 3.115,-6.759 0.042,0.006 4.302,-10.915 -8.688,-1.397 z"
         transform="translate(-491.06111,-118.7334)"
         id="path40" />
    </clipPath>
    <clipPath
       clipPathUnits="userSpaceOnUse"
       id="clipPath42">
      <path
         d="M 461.131,92.968 V 61.596 l 23.935,3.852 v 5.736 l -17.665,-2.842 v 7.35 l 14.509,2.335 v 5.736 l -14.509,-2.335 v 6.812 l 17.665,2.844 v 5.736 z m -8.524,-1.372 -12.992,-2.092 c -0.875,-0.14 -1.688,-0.458 -2.439,-0.952 v 0 c -0.752,-0.495 -1.407,-1.1 -1.968,-1.818 v 0 c -0.559,-0.718 -1.003,-1.514 -1.331,-2.388 v 0 c -0.328,-0.875 -0.492,-1.759 -0.492,-2.656 v 0 -17.747 c 0,-0.957 0.17,-1.819 0.512,-2.584 v 0 c 0.342,-0.767 0.799,-1.411 1.373,-1.931 v 0 c 0.574,-0.52 1.236,-0.899 1.989,-1.137 v 0 c 0.75,-0.236 1.536,-0.29 2.356,-0.157 v 0 l 12.992,2.09 c 0.819,0.132 1.604,0.438 2.357,0.917 v 0 c 0.75,0.479 1.42,1.072 2.007,1.78 v 0 c 0.588,0.706 1.052,1.498 1.394,2.376 v 0 c 0.342,0.876 0.513,1.792 0.513,2.748 v 0 2.42 l -6.271,-1.008 v -1.57 c 0,-0.537 -0.171,-1.021 -0.513,-1.449 v 0 c -0.342,-0.428 -0.758,-0.681 -1.25,-0.76 v 0 l -9.467,-1.525 c -0.491,-0.079 -0.909,0.048 -1.249,0.382 v 0 c -0.343,0.333 -0.513,0.768 -0.513,1.306 v 0 15.956 c 0,0.538 0.17,1.027 0.513,1.471 v 0 c 0.34,0.443 0.758,0.704 1.249,0.784 v 0 l 9.467,1.524 c 0.492,0.079 0.908,-0.041 1.25,-0.359 v 0 c 0.342,-0.32 0.513,-0.747 0.513,-1.285 v 0 -1.569 l 6.271,1.009 v 2.42 c 0,0.927 -0.171,1.781 -0.513,2.562 v 0 c -0.342,0.781 -0.806,1.432 -1.394,1.95 v 0 c -0.587,0.517 -1.257,0.896 -2.007,1.133 v 0 c -0.484,0.153 -0.981,0.23 -1.492,0.23 v 0 c -0.284,0 -0.572,-0.024 -0.865,-0.071 M 423.672,86.939 V 64.306 L 410.721,84.855 403.18,83.641 V 52.269 l 6.23,1.003 v 22.632 l 12.951,-20.548 7.541,1.214 v 31.372 z m -40.083,-6.451 -12.131,-33.324 6.23,1.002 2.5,7.171 12.991,2.09 2.541,-6.358 6.231,1.003 -12.132,29.419 z m 3.115,-6.759 0.04,0.007 4.304,-10.915 -8.688,-1.399 z m -20.533,3.956 -8.73,-24.62 -8.73,21.81 -6.517,-1.049 12.132,-29.419 6.23,1.003 12.131,33.324 z M 334.9,72.652 314.859,69.426 v -31.37 l 20.041,3.225 c 0.874,0.141 1.695,0.457 2.459,0.956 v 0 c 0.765,0.496 1.428,1.103 1.988,1.82 v 0 c 0.56,0.718 1.004,1.514 1.332,2.388 v 0 c 0.327,0.875 0.491,1.761 0.491,2.657 v 0 17.747 c 0,0.956 -0.171,1.817 -0.511,2.584 v 0 c -0.343,0.767 -0.8,1.411 -1.373,1.931 v 0 c -0.575,0.519 -1.244,0.897 -2.009,1.133 v 0 c -0.49,0.15 -0.992,0.226 -1.505,0.226 v 0 c -0.287,0 -0.578,-0.024 -0.872,-0.071 m -13.811,-7.959 12.048,1.939 c 0.492,0.08 0.909,-0.048 1.25,-0.381 v 0 c 0.342,-0.334 0.513,-0.77 0.513,-1.307 v 0 -15.955 c 0,-0.538 -0.171,-1.03 -0.513,-1.472 v 0 c -0.341,-0.443 -0.758,-0.705 -1.25,-0.785 v 0 l -12.048,-1.937 z m -25.821,1.581 -12.131,-33.324 6.23,1.002 2.499,7.17 12.993,2.091 2.541,-6.359 6.229,1.003 -12.132,29.419 z m 3.115,-6.759 0.042,0.006 4.302,-10.915 -8.688,-1.397 z"
         transform="translate(-491.06111,-118.7334)"
         id="path42" />
    </clipPath>
    <clipPath
       clipPathUnits="userSpaceOnUse"
       id="clipPath44">
      <path
         d="M 461.131,92.968 V 61.596 l 23.935,3.852 v 5.736 l -17.665,-2.842 v 7.35 l 14.509,2.335 v 5.736 l -14.509,-2.335 v 6.812 l 17.665,2.844 v 5.736 z m -8.524,-1.372 -12.992,-2.092 c -0.875,-0.14 -1.688,-0.458 -2.439,-0.952 v 0 c -0.752,-0.495 -1.407,-1.1 -1.968,-1.818 v 0 c -0.559,-0.718 -1.003,-1.514 -1.331,-2.388 v 0 c -0.328,-0.875 -0.492,-1.759 -0.492,-2.656 v 0 -17.747 c 0,-0.957 0.17,-1.819 0.512,-2.584 v 0 c 0.342,-0.767 0.799,-1.411 1.373,-1.931 v 0 c 0.574,-0.52 1.236,-0.899 1.989,-1.137 v 0 c 0.75,-0.236 1.536,-0.29 2.356,-0.157 v 0 l 12.992,2.09 c 0.819,0.132 1.604,0.438 2.357,0.917 v 0 c 0.75,0.479 1.42,1.072 2.007,1.78 v 0 c 0.588,0.706 1.052,1.498 1.394,2.376 v 0 c 0.342,0.876 0.513,1.792 0.513,2.748 v 0 2.42 l -6.271,-1.008 v -1.57 c 0,-0.537 -0.171,-1.021 -0.513,-1.449 v 0 c -0.342,-0.428 -0.758,-0.681 -1.25,-0.76 v 0 l -9.467,-1.525 c -0.491,-0.079 -0.909,0.048 -1.249,0.382 v 0 c -0.343,0.333 -0.513,0.768 -0.513,1.306 v 0 15.956 c 0,0.538 0.17,1.027 0.513,1.471 v 0 c 0.34,0.443 0.758,0.704 1.249,0.784 v 0 l 9.467,1.524 c 0.492,0.079 0.908,-0.041 1.25,-0.359 v 0 c 0.342,-0.32 0.513,-0.747 0.513,-1.285 v 0 -1.569 l 6.271,1.009 v 2.42 c 0,0.927 -0.171,1.781 -0.513,2.562 v 0 c -0.342,0.781 -0.806,1.432 -1.394,1.95 v 0 c -0.587,0.517 -1.257,0.896 -2.007,1.133 v 0 c -0.484,0.153 -0.981,0.23 -1.492,0.23 v 0 c -0.284,0 -0.572,-0.024 -0.865,-0.071 M 423.672,86.939 V 64.306 L 410.721,84.855 403.18,83.641 V 52.269 l 6.23,1.003 v 22.632 l 12.951,-20.548 7.541,1.214 v 31.372 z m -40.083,-6.451 -12.131,-33.324 6.23,1.002 2.5,7.171 12.991,2.09 2.541,-6.358 6.231,1.003 -12.132,29.419 z m 3.115,-6.759 0.04,0.007 4.304,-10.915 -8.688,-1.399 z m -20.533,3.956 -8.73,-24.62 -8.73,21.81 -6.517,-1.049 12.132,-29.419 6.23,1.003 12.131,33.324 z M 334.9,72.652 314.859,69.426 v -31.37 l 20.041,3.225 c 0.874,0.141 1.695,0.457 2.459,0.956 v 0 c 0.765,0.496 1.428,1.103 1.988,1.82 v 0 c 0.56,0.718 1.004,1.514 1.332,2.388 v 0 c 0.327,0.875 0.491,1.761 0.491,2.657 v 0 17.747 c 0,0.956 -0.171,1.817 -0.511,2.584 v 0 c -0.343,0.767 -0.8,1.411 -1.373,1.931 v 0 c -0.575,0.519 -1.244,0.897 -2.009,1.133 v 0 c -0.49,0.15 -0.992,0.226 -1.505,0.226 v 0 c -0.287,0 -0.578,-0.024 -0.872,-0.071 m -13.811,-7.959 12.048,1.939 c 0.492,0.08 0.909,-0.048 1.25,-0.381 v 0 c 0.342,-0.334 0.513,-0.77 0.513,-1.307 v 0 -15.955 c 0,-0.538 -0.171,-1.03 -0.513,-1.472 v 0 c -0.341,-0.443 -0.758,-0.705 -1.25,-0.785 v 0 l -12.048,-1.937 z m -25.821,1.581 -12.131,-33.324 6.23,1.002 2.499,7.17 12.993,2.091 2.541,-6.359 6.229,1.003 -12.132,29.419 z m 3.115,-6.759 0.042,0.006 4.302,-10.915 -8.688,-1.397 z"
         transform="translate(-491.06111,-118.7334)"
         id="path44" />
    </clipPath>
    <clipPath
       clipPathUnits="userSpaceOnUse"
       id="clipPath46">
      <path
         d="M 461.131,92.968 V 61.596 l 23.935,3.852 v 5.736 l -17.665,-2.842 v 7.35 l 14.509,2.335 v 5.736 l -14.509,-2.335 v 6.812 l 17.665,2.844 v 5.736 z m -8.524,-1.372 -12.992,-2.092 c -0.875,-0.14 -1.688,-0.458 -2.439,-0.952 v 0 c -0.752,-0.495 -1.407,-1.1 -1.968,-1.818 v 0 c -0.559,-0.718 -1.003,-1.514 -1.331,-2.388 v 0 c -0.328,-0.875 -0.492,-1.759 -0.492,-2.656 v 0 -17.747 c 0,-0.957 0.17,-1.819 0.512,-2.584 v 0 c 0.342,-0.767 0.799,-1.411 1.373,-1.931 v 0 c 0.574,-0.52 1.236,-0.899 1.989,-1.137 v 0 c 0.75,-0.236 1.536,-0.29 2.356,-0.157 v 0 l 12.992,2.09 c 0.819,0.132 1.604,0.438 2.357,0.917 v 0 c 0.75,0.479 1.42,1.072 2.007,1.78 v 0 c 0.588,0.706 1.052,1.498 1.394,2.376 v 0 c 0.342,0.876 0.513,1.792 0.513,2.748 v 0 2.42 l -6.271,-1.008 v -1.57 c 0,-0.537 -0.171,-1.021 -0.513,-1.449 v 0 c -0.342,-0.428 -0.758,-0.681 -1.25,-0.76 v 0 l -9.467,-1.525 c -0.491,-0.079 -0.909,0.048 -1.249,0.382 v 0 c -0.343,0.333 -0.513,0.768 -0.513,1.306 v 0 15.956 c 0,0.538 0.17,1.027 0.513,1.471 v 0 c 0.34,0.443 0.758,0.704 1.249,0.784 v 0 l 9.467,1.524 c 0.492,0.079 0.908,-0.041 1.25,-0.359 v 0 c 0.342,-0.32 0.513,-0.747 0.513,-1.285 v 0 -1.569 l 6.271,1.009 v 2.42 c 0,0.927 -0.171,1.781 -0.513,2.562 v 0 c -0.342,0.781 -0.806,1.432 -1.394,1.95 v 0 c -0.587,0.517 -1.257,0.896 -2.007,1.133 v 0 c -0.484,0.153 -0.981,0.23 -1.492,0.23 v 0 c -0.284,0 -0.572,-0.024 -0.865,-0.071 M 423.672,86.939 V 64.306 L 410.721,84.855 403.18,83.641 V 52.269 l 6.23,1.003 v 22.632 l 12.951,-20.548 7.541,1.214 v 31.372 z m -40.083,-6.451 -12.131,-33.324 6.23,1.002 2.5,7.171 12.991,2.09 2.541,-6.358 6.231,1.003 -12.132,29.419 z m 3.115,-6.759 0.04,0.007 4.304,-10.915 -8.688,-1.399 z m -20.533,3.956 -8.73,-24.62 -8.73,21.81 -6.517,-1.049 12.132,-29.419 6.23,1.003 12.131,33.324 z M 334.9,72.652 314.859,69.426 v -31.37 l 20.041,3.225 c 0.874,0.141 1.695,0.457 2.459,0.956 v 0 c 0.765,0.496 1.428,1.103 1.988,1.82 v 0 c 0.56,0.718 1.004,1.514 1.332,2.388 v 0 c 0.327,0.875 0.491,1.761 0.491,2.657 v 0 17.747 c 0,0.956 -0.171,1.817 -0.511,2.584 v 0 c -0.343,0.767 -0.8,1.411 -1.373,1.931 v 0 c -0.575,0.519 -1.244,0.897 -2.009,1.133 v 0 c -0.49,0.15 -0.992,0.226 -1.505,0.226 v 0 c -0.287,0 -0.578,-0.024 -0.872,-0.071 m -13.811,-7.959 12.048,1.939 c 0.492,0.08 0.909,-0.048 1.25,-0.381 v 0 c 0.342,-0.334 0.513,-0.77 0.513,-1.307 v 0 -15.955 c 0,-0.538 -0.171,-1.03 -0.513,-1.472 v 0 c -0.341,-0.443 -0.758,-0.705 -1.25,-0.785 v 0 l -12.048,-1.937 z m -25.821,1.581 -12.131,-33.324 6.23,1.002 2.499,7.17 12.993,2.091 2.541,-6.359 6.229,1.003 -12.132,29.419 z m 3.115,-6.759 0.042,0.006 4.302,-10.915 -8.688,-1.397 z"
         transform="translate(-491.06111,-118.7334)"
         id="path46" />
    </clipPath>
  </defs>
  <sodipodi:namedview
     id="namedview1"
     pagecolor="#ffffff"
     bordercolor="#000000"
     borderopacity="0.25"
     inkscape:showpageshadow="2"
     inkscape:pageopacity="0.0"
     inkscape:pagecheckerboard="0"
     inkscape:deskcolor="#d1d1d1">
    <inkscape:page
       x="0"
       y="0"
       inkscape:label="1"
       id="page1"
       width="666.66669"
       height="256.50534"
       margin="0"
       bleed="0" />
  </sodipodi:namedview>
  <g
     id="layer-MC0"
     inkscape:groupmode="layer"
     inkscape:label="Layer 1">
    <path
       id="path1"
       d="m 0,0 c -13.829,-2.19 -25.905,-8.731 -35.063,-18.001 -12.008,5.935 -25.897,8.346 -40.104,6.096 -14.888,-2.358 -27.86,-9.476 -37.614,-19.553 -16.564,14.493 -39.196,21.821 -62.582,18.117 -22.745,-3.602 -41.586,-16.909 -52.975,-35.025 -13.511,7.649 -29.596,10.96 -46.086,8.348 -15.564,-2.465 -29.153,-9.836 -39.448,-20.282 -14.696,10.141 -33.153,14.882 -52.14,11.875 -39.225,-6.213 -66.083,-43.179 -59.871,-82.405 6.213,-39.227 43.18,-66.084 82.406,-59.871 16.145,2.557 30.192,10.328 40.703,21.318 14.365,-9.6 32.232,-14.04 50.602,-11.131 19.064,3.02 35.164,13.398 45.874,27.774 15.562,-10.518 34.981,-15.403 54.952,-12.239 20.899,3.309 38.503,14.811 50.058,30.708 13.438,-8.772 30.039,-12.791 47.1,-10.088 16.532,2.618 30.704,11.104 40.728,22.998 10.223,-4.08 21.632,-5.552 33.269,-3.709 34.482,5.462 58.091,37.958 52.629,72.44 C 66.978,-18.148 34.481,5.461 0,0"
       style="fill:#00b3f0;fill-opacity:1;fill-rule:nonzero;stroke:none"
       transform="matrix(1.3333333,0,0,-1.3333333,569.03453,1.0462667)"
       clip-path="url(#clipPath2)" />
    <path
       id="path3"
       d="m 0,0 c -14.145,-2.24 -26.229,-9.598 -34.672,-19.882 -11.724,7.114 -25.921,10.285 -40.494,7.977 -15.811,-2.504 -29.21,-11.001 -38.251,-22.806 -15.298,16.376 -38.194,25.132 -61.945,21.37 -23.172,-3.67 -41.887,-18.42 -51.599,-37.988 -13.248,9.534 -30.106,14.06 -47.463,11.311 -16.197,-2.565 -30.023,-11.024 -39.644,-22.838 -13.926,11.668 -32.631,17.49 -51.943,14.431 -35.412,-5.609 -59.659,-38.982 -54.051,-74.395 5.609,-35.411 38.982,-59.659 74.395,-54.05 16.743,2.652 30.987,11.513 40.763,23.859 13.66,-11.131 31.81,-16.638 50.542,-13.671 19.678,3.116 35.859,14.928 45.247,30.892 14.927,-12.434 34.928,-18.629 55.579,-15.359 21.493,3.404 39.15,16.344 49.346,33.816 12.844,-10.687 30.049,-16.009 47.812,-13.196 16.659,2.639 30.64,11.934 39.666,24.739 10.233,-5.222 22.142,-7.379 34.331,-5.449 30.668,4.858 51.667,33.76 46.81,64.429 C 59.571,-16.141 30.669,4.857 0,0"
       style="fill:#ffffff;fill-opacity:1;fill-rule:nonzero;stroke:none"
       transform="matrix(1.3333333,0,0,-1.3333333,570.49413,10.266933)"
       clip-path="url(#clipPath4)" />
    <path
       id="path5"
       d="m 0,0 c -14.591,-2.311 -26.709,-10.693 -34.193,-22.162 -11.286,8.535 -25.894,12.645 -40.973,10.257 -16.995,-2.692 -30.87,-13.047 -38.662,-26.985 -13.616,18.787 -37.048,29.428 -61.534,25.549 -23.935,-3.79 -42.624,-20.462 -50.127,-41.828 -12.628,11.927 -30.451,18.079 -48.935,15.151 -17.002,-2.693 -31.099,-12.521 -39.729,-25.945 -12.904,13.514 -32.006,20.682 -51.858,17.538 -32.135,-5.09 -54.059,-35.266 -48.969,-67.4 5.089,-32.135 35.266,-54.06 67.4,-48.97 17.519,2.774 32.003,13.007 40.73,26.946 12.697,-12.977 31.278,-19.815 50.576,-16.758 20.582,3.259 36.906,16.972 44.427,34.867 13.947,-14.851 34.761,-22.761 56.399,-19.333 22.43,3.552 40.253,18.419 48.579,37.859 11.813,-13.135 29.831,-20.209 48.578,-17.24 16.959,2.686 30.811,13.004 38.611,26.896 10.075,-6.612 22.547,-9.639 35.386,-7.606 27.384,4.338 46.066,30.052 41.73,57.435 C 53.099,-14.346 27.384,4.337 0,0"
       style="fill:#130c0e;fill-opacity:1;fill-rule:nonzero;stroke:none"
       transform="matrix(1.3333333,0,0,-1.3333333,571.76893,18.317067)"
       clip-path="url(#clipPath6)" />
    <path
       id="path7"
       d="m 0,0 1.321,-8.345 9.342,1.48 -1.321,8.344 z"
       style="fill:#130c0e;fill-opacity:1;fill-rule:nonzero;stroke:none"
       transform="matrix(1.3333333,0,0,-1.3333333,422.68293,150.99813)"
       clip-path="url(#clipPath8)" />
    <path
       id="path9"
       d="m 0,0 v 3.627 l -0.838,-3.76 -0.909,-0.144 -0.818,3.498 v -3.628 l -0.859,-0.135 v 4.341 l 1.341,0.213 0.81,-3.316 0.009,0.002 0.789,3.569 1.324,0.209 V 0.134 Z M -6.198,-0.982 V 2.59 L -7.579,2.371 v 0.768 l 3.652,0.578 V 2.95 L -5.258,2.739 v -3.572 z"
       style="fill:#f15a22;fill-opacity:1;fill-rule:nonzero;stroke:none"
       transform="matrix(1.3333333,0,0,-1.3333333,622.75853,116.1928)"
       clip-path="url(#clipPath10)" />
    <path
       id="path11"
       d="m 0,0 c -0.042,-40.992 -1.492,-37.775 -16.453,-7.65 l -6.581,-1.043 v -56.224 l 7.891,1.257 c 0.185,28.309 0.249,28.428 15.401,5.072 l 9.347,1.48 V 1.521 Z"
       style="fill:#f15a22;fill-opacity:1;fill-rule:nonzero;stroke:none"
       transform="matrix(1.3333333,0,0,-1.3333333,593.46813,42.011733)"
       clip-path="url(#clipPath12)" />
    <path
       id="path13"
       d="M 0,0 V 16.057 L -21.357,12.659 V -30.554 L 0,-27.171 v 8.696 c -13.226,-2.094 -13.226,-0.793 -13.226,0.724 0,1.515 0.02,2.833 11.384,4.638 v 7.285 c -11.359,-1.803 -11.384,-0.181 -11.384,1.437 0,1.615 1.67,2.56 13.226,4.391"
       style="fill:#f15a22;fill-opacity:1;fill-rule:nonzero;stroke:none"
       transform="matrix(1.3333333,0,0,-1.3333333,556.5332,88.459067)"
       clip-path="url(#clipPath14)" />
    <path
       id="path15"
       d="m 0,0 c -2.866,-17.055 -6.065,-27.7 -7.489,-27.928 -2.205,-0.352 -5.2,11.416 -7.118,22.977 l -7.065,-1.118 c 2.858,-20.17 6.875,-31.722 10.7,-38.878 l 9.274,1.469 c 4.73,10.497 7.768,22.421 11.526,45.035 z"
       style="fill:#f15a22;fill-opacity:1;fill-rule:nonzero;stroke:none"
       transform="matrix(1.3333333,0,0,-1.3333333,511.13747,66.714933)"
       clip-path="url(#clipPath16)" />
    <path
       id="path17"
       d="m 0,0 c -4.892,-0.777 -4.89,-0.778 -3.306,5.548 0.923,3.683 2.142,4.86 3.249,5.036 1.455,0.232 2.281,-0.37 3.311,-3.993 C 4.906,0.784 4.903,0.783 0,0 m 0.374,29.081 c -4.239,-0.676 -6.099,-3.93 -15.985,-49.028 l 7.744,1.226 c 2.209,9.946 2.41,11.242 7.755,12.093 5.636,0.899 5.827,0.099 8.246,-9.559 l 10.777,1.708 C 8.04,28.581 5.567,29.905 0.374,29.081"
       style="fill:#f15a22;fill-opacity:1;fill-rule:nonzero;stroke:none"
       transform="matrix(1.3333333,0,0,-1.3333333,464.76373,117.67907)"
       clip-path="url(#clipPath18)" />
    <path
       id="path19"
       d="M 0,0 V 16.057 L -21.358,12.659 V -30.554 L 0,-27.171 v 8.697 c -13.227,-2.095 -13.227,-0.793 -13.227,0.723 0,1.515 0.007,2.827 11.372,4.632 v 7.607 c -11.36,-1.803 -11.367,-0.822 -11.367,0.795 0,1.615 1.665,2.887 13.222,4.717"
       style="fill:#f15a22;fill-opacity:1;fill-rule:nonzero;stroke:none"
       transform="matrix(1.3333333,0,0,-1.3333333,440.21813,99.399867)"
       clip-path="url(#clipPath20)" />
    <path
       id="path21"
       d="m 0,0 v -21.228 c 0,-3.993 -2.953,-7.697 -6.586,-8.272 -3.639,-0.577 -6.586,2.188 -6.586,6.182 v 13.509 l -8.682,-1.375 v -66.05 l 11.949,1.893 v 21.564 c 0,4.12 3.046,7.95 6.791,8.543 3.76,0.596 6.798,-2.263 6.798,-6.378 v -15.796 l 8.789,1.393 V 1.976 Z"
       style="fill:#f15a22;fill-opacity:1;fill-rule:nonzero;stroke:none"
       transform="matrix(1.3333333,0,0,-1.3333333,388.46027,68.557333)"
       clip-path="url(#clipPath22)" />
    <path
       id="path23"
       d="m 0,0 c -8.947,-24.977 -10.468,-26.947 -12.168,-27.218 -1.387,-0.221 -3.873,0.714 -12.092,20.829 l -8.854,-1.403 v -48.654 l 8.242,1.306 c 0,14.012 0.227,19.078 0.985,19.198 1.074,0.17 2.566,-1.735 7.329,-13.431 l 4.426,0.702 c 5.021,13.02 7.179,16.802 7.96,16.925 1.123,0.179 1.346,-6.976 1.346,-22.426 l 8.245,1.305 V 0.858 Z"
       style="fill:#faa61a;fill-opacity:1;fill-rule:nonzero;stroke:none"
       transform="matrix(1.3333333,0,0,-1.3333333,332.1244,86.3672)"
       clip-path="url(#clipPath24)" />
    <path
       id="path25"
       d="m 0,0 v -16.067 c 0,-2.971 -2.192,-5.736 -4.896,-6.164 -2.712,-0.43 -4.904,1.633 -4.904,4.602 v 10.986 l -7.447,-1.18 v -46.101 l 9.878,1.564 v 12.07 c 0,3.063 2.259,5.912 5.056,6.355 2.795,0.442 5.06,-1.684 5.06,-4.746 v -9.548 l 7.524,1.191 V 1.627 Z"
       style="fill:#faa61a;fill-opacity:1;fill-rule:nonzero;stroke:none"
       transform="matrix(1.3333333,0,0,-1.3333333,268.1452,104.30867)"
       clip-path="url(#clipPath26)" />
    <path
       id="path27"
       d="m 0,0 v -13.638 l 5.109,0.809 c 4.459,0.706 5.555,-0.381 5.555,-4.494 v -32.172 l 8.267,1.31 v 35.662 c 0,2.974 1.095,5.556 5.554,6.266 l 5.286,0.837 V 4.715 Z"
       style="fill:#faa61a;fill-opacity:1;fill-rule:nonzero;stroke:none"
       transform="matrix(1.3333333,0,0,-1.3333333,200.36013,103.47533)"
       clip-path="url(#clipPath28)" />
    <path
       id="path29"
       d="m 0,0 v -12.969 c 0,-7.648 -2.126,-10.706 -4.742,-11.12 -2.616,-0.414 -4.736,1.726 -4.736,7.45 v 10.042 l -10.273,-1.627 v -8.507 c 0,-14.993 4.883,-18.785 11.727,-17.697 3.038,0.482 6.469,2.053 8.628,4.838 -0.591,-6.155 -7.021,-12.115 -14.134,-13.241 l -6.221,-0.985 v -13.038 l 4.899,0.776 c 12.022,1.904 22.299,10.995 22.299,32.561 l 0,24.697 z"
       style="fill:#faa61a;fill-opacity:1;fill-rule:nonzero;stroke:none"
       transform="matrix(1.3333333,0,0,-1.3333333,185.7156,118.46747)"
       clip-path="url(#clipPath30)" />
    <path
       id="path31"
       d="m 0,0 v -16.074 c 0,-2.973 -2.193,-5.73 -4.899,-6.158 -2.706,-0.429 -4.899,1.626 -4.899,4.598 v 10.989 l -7.45,-1.18 V -56.46 l 9.88,1.565 V -40.3 c 0,3.07 2.264,5.916 5.055,6.359 2.792,0.441 5.059,-1.681 5.059,-4.748 v -9.546 l 7.522,1.191 v 48.67 z"
       style="fill:#faa61a;fill-opacity:1;fill-rule:nonzero;stroke:none"
       transform="matrix(1.3333333,0,0,-1.3333333,140.0704,117.5932)"
       clip-path="url(#clipPath32)" />
    <path
       id="path33"
       d="m 0,0 c -5.756,-2.852 -5.969,0.167 -5.969,10.537 0,10.118 0.388,13.234 5.863,12.363 C 5.336,22.036 8.181,18.098 8.181,12.913 8.181,7.696 5.604,2.776 0,0 m -15.751,42.201 v -72.534 l 9.782,1.55 c 0,10.221 -0.284,15.079 0.47,15.448 0.745,0.364 2.744,-4.099 10.974,-16.05 l 16.422,2.601 -12.69,19.825 c 23.328,16.38 18.201,64.084 -24.958,49.16"
       style="fill:#faa61a;fill-opacity:1;fill-rule:nonzero;stroke:none"
       transform="matrix(1.3333333,0,0,-1.3333333,81.005333,170.2416)"
       clip-path="url(#clipPath34)" />
    <path
       id="path35"
       d="M 0,0 V 15.925 L -198.529,-16.026 -214.6,-60.172 0,-25.635 V -9.71 l -3.155,-0.508 v 9.71 z"
       style="fill:#130c0e;fill-opacity:1;fill-rule:nonzero;stroke:none"
       transform="matrix(1.3333333,0,0,-1.3333333,653.37307,140.78853)"
       clip-path="url(#clipPath36)" />
    <path
       id="path37"
       d="M 0,0 -23.935,-3.852 V 27.52 L 0,31.372 V 25.636 L -17.664,22.792 V 15.98 l 14.509,2.335 V 12.579 L -17.664,10.244 V 2.894 L 0,5.736 Z m -45.451,-7.314 c -0.82,-0.132 -1.606,-0.08 -2.357,0.158 -0.752,0.237 -1.414,0.616 -1.988,1.136 -0.573,0.52 -1.031,1.164 -1.373,1.931 -0.342,0.766 -0.512,1.627 -0.512,2.584 v 17.747 c 0,0.897 0.164,1.781 0.493,2.656 0.327,0.874 0.771,1.67 1.331,2.388 0.56,0.718 1.215,1.323 1.967,1.818 0.751,0.495 1.564,0.812 2.439,0.953 l 12.992,2.091 c 0.819,0.132 1.605,0.079 2.356,-0.159 0.751,-0.237 1.42,-0.616 2.008,-1.133 0.588,-0.518 1.052,-1.169 1.394,-1.95 0.342,-0.781 0.513,-1.635 0.513,-2.561 v -2.42 l -6.271,-1.009 v 1.568 c 0,0.538 -0.171,0.965 -0.513,1.285 -0.341,0.318 -0.757,0.438 -1.25,0.359 l -9.466,-1.524 c -0.493,-0.08 -0.91,-0.341 -1.25,-0.784 -0.343,-0.443 -0.513,-0.933 -0.513,-1.471 V 0.394 c 0,-0.539 0.17,-0.974 0.513,-1.307 0.34,-0.334 0.757,-0.461 1.25,-0.382 l 9.466,1.524 c 0.493,0.08 0.909,0.333 1.25,0.761 0.342,0.429 0.513,0.912 0.513,1.449 v 1.57 l 6.271,1.009 v -2.42 c 0,-0.957 -0.171,-1.873 -0.513,-2.749 -0.342,-0.877 -0.806,-1.669 -1.394,-2.376 -0.588,-0.707 -1.257,-1.3 -2.008,-1.78 -0.751,-0.479 -1.537,-0.785 -2.356,-0.917 z m -9.713,29.808 V -8.878 l -7.541,-1.214 -12.951,20.548 v -22.632 l -6.23,-1.003 v 31.372 l 7.541,1.214 12.951,-20.549 v 22.633 z m -43.198,-14.213 0.041,0.007 4.303,-10.915 -8.688,-1.398 z m 15.247,-21.657 -12.132,29.419 -6.23,-1.003 -12.131,-33.324 6.23,1.003 2.5,7.17 12.991,2.09 2.541,-6.358 z m -29.264,26.662 -12.131,-33.324 -6.229,-1.003 -12.132,29.419 6.517,1.049 8.729,-21.81 8.73,24.62 z m -37.787,-29.745 c 0,-0.538 -0.171,-1.029 -0.513,-1.472 -0.342,-0.443 -0.758,-0.705 -1.25,-0.784 l -12.049,-1.938 v 19.898 l 12.049,1.94 c 0.492,0.079 0.908,-0.049 1.25,-0.382 0.342,-0.334 0.513,-0.77 0.513,-1.307 z m 6.27,17.86 c 0,0.956 -0.17,1.818 -0.511,2.584 -0.343,0.767 -0.8,1.411 -1.373,1.931 -0.574,0.52 -1.244,0.897 -2.009,1.133 -0.765,0.235 -1.558,0.287 -2.377,0.155 l -20.041,-3.225 v -31.372 l 20.041,3.226 c 0.874,0.141 1.694,0.458 2.459,0.956 0.765,0.496 1.428,1.104 1.988,1.82 0.56,0.718 1.004,1.514 1.332,2.389 0.327,0.874 0.491,1.76 0.491,2.656 z m -42.787,-7.334 0.041,0.006 4.303,-10.915 -8.688,-1.397 z m 15.246,-21.658 -12.131,29.419 -6.23,-1.002 -12.131,-33.324 6.23,1.003 2.5,7.169 12.992,2.091 2.541,-6.359 z"
       style="fill:#7058f8;fill-opacity:1;fill-rule:nonzero;stroke:none"
       transform="matrix(1.3333333,0,0,-1.3333333,646.75453,169.2416)"
       clip-path="url(#clipPath38)" />
    <path
       id="path39"
       d="m 0,0 -219.272,-35.306 8.599,-37.85 L 8.6,-37.849 Z"
       style="fill:#9482fa;fill-opacity:1;fill-rule:nonzero;stroke:none"
       transform="matrix(1.3333333,0,0,-1.3333333,654.74813,98.194133)"
       clip-path="url(#clipPath40)" />
    <path
       id="path41"
       d="m 0,0 -219.272,-35.306 7.846,-35.69 219.273,35.307 z"
       style="fill:#cac1fd;fill-opacity:1;fill-rule:nonzero;stroke:none"
       transform="matrix(1.3333333,0,0,-1.3333333,654.74813,98.194133)"
       clip-path="url(#clipPath42)" />
    <path
       id="path43"
       d="m 0,0 -219.272,-35.306 7.148,-33.853 219.272,35.307 z"
       style="fill:#f2effe;fill-opacity:1;fill-rule:nonzero;stroke:none"
       transform="matrix(1.3333333,0,0,-1.3333333,654.74813,98.194133)"
       clip-path="url(#clipPath44)" />
    <path
       id="path45"
       d="m 0,0 -219.272,-35.306 6.885,-32.284 219.273,35.306 z"
       style="fill:#ffffff;fill-opacity:1;fill-rule:nonzero;stroke:none"
       transform="matrix(1.3333333,0,0,-1.3333333,654.74813,98.194133)"
       clip-path="url(#clipPath46)" />
  </g>
</svg>
