<?xml version="1.0" encoding="UTF-8" standalone="no"?>
<!-- Created with Inkscape (http://www.inkscape.org/) -->

<svg
   version="1.1"
   id="svg1"
   width="666.66669"
   height="256.50534"
   viewBox="0 0 666.66669 256.50534"
   sodipodi:docname="Rhythm Paradise Advance Logo (Horizontial).ai"
   xmlns:inkscape="http://www.inkscape.org/namespaces/inkscape"
   xmlns:sodipodi="http://sodipodi.sourceforge.net/DTD/sodipodi-0.dtd"
   xmlns="http://www.w3.org/2000/svg"
   xmlns:svg="http://www.w3.org/2000/svg">
  <defs
     id="defs1">
    <clipPath
       clipPathUnits="userSpaceOnUse"
       id="clipPath2">
      <path
         d="M 0,192.379 H 500 V 0 H 0 Z"
         transform="translate(-426.77551,-191.5942)"
         id="path2" />
    </clipPath>
    <clipPath
       clipPathUnits="userSpaceOnUse"
       id="clipPath4">
      <path
         d="M 0,192.379 H 500 V 0 H 0 Z"
         transform="translate(-427.87121,-184.6787)"
         id="path4" />
    </clipPath>
    <clipPath
       clipPathUnits="userSpaceOnUse"
       id="clipPath6">
      <path
         d="M 0,192.379 H 500 V 0 H 0 Z"
         transform="translate(-428.82731,-178.6411)"
         id="path6" />
    </clipPath>
    <clipPath
       clipPathUnits="userSpaceOnUse"
       id="clipPath8">
      <path
         d="M 0,192.379 H 500 V 0 H 0 Z"
         transform="translate(-317.01181,-79.130802)"
         id="path8" />
    </clipPath>
    <clipPath
       clipPathUnits="userSpaceOnUse"
       id="clipPath10">
      <path
         d="M 0,192.379 H 500 V 0 H 0 Z"
         transform="translate(-465.06951,-106.2343)"
         id="path10" />
    </clipPath>
    <clipPath
       clipPathUnits="userSpaceOnUse"
       id="clipPath12">
      <path
         d="M 0,192.379 H 500 V 0 H 0 Z"
         transform="translate(-449.23251,-130.3217)"
         id="path12" />
    </clipPath>
    <clipPath
       clipPathUnits="userSpaceOnUse"
       id="clipPath14">
      <path
         d="M 0,192.379 H 500 V 0 H 0 Z"
         transform="translate(-431.07921,-121.9384)"
         id="path14" />
    </clipPath>
    <clipPath
       clipPathUnits="userSpaceOnUse"
       id="clipPath16">
      <path
         d="M 0,192.379 H 500 V 0 H 0 Z"
         transform="translate(-411.57431,-97.354505)"
         id="path16" />
    </clipPath>
    <clipPath
       clipPathUnits="userSpaceOnUse"
       id="clipPath18">
      <path
         d="M 0,192.379 H 500 V 0 H 0 Z"
         transform="translate(-392.83801,-121.3642)"
         id="path18" />
    </clipPath>
    <clipPath
       clipPathUnits="userSpaceOnUse"
       id="clipPath20">
      <path
         d="M 0,192.379 H 500 V 0 H 0 Z"
         transform="translate(-364.53721,-106.0136)"
         id="path20" />
    </clipPath>
    <clipPath
       clipPathUnits="userSpaceOnUse"
       id="clipPath22">
      <path
         d="M 0,192.379 H 500 V 0 H 0 Z"
         transform="translate(-340.92201,-120.9023)"
         id="path22" />
    </clipPath>
    <clipPath
       clipPathUnits="userSpaceOnUse"
       id="clipPath24">
      <path
         d="M 0,192.379 H 500 V 0 H 0 Z"
         transform="translate(-314.20621,-99.054702)"
         id="path24" />
    </clipPath>
    <clipPath
       clipPathUnits="userSpaceOnUse"
       id="clipPath26">
      <path
         d="M 0,192.379 H 500 V 0 H 0 Z"
         transform="translate(-292.58121,-112.8154)"
         id="path26" />
    </clipPath>
    <clipPath
       clipPathUnits="userSpaceOnUse"
       id="clipPath28">
      <path
         d="M 0,192.379 H 500 V 0 H 0 Z"
         transform="translate(-249.09391,-127.604)"
         id="path28" />
    </clipPath>
    <clipPath
       clipPathUnits="userSpaceOnUse"
       id="clipPath30">
      <path
         d="M 0,192.379 H 500 V 0 H 0 Z"
         transform="translate(-201.10851,-114.1474)"
         id="path30" />
    </clipPath>
    <clipPath
       clipPathUnits="userSpaceOnUse"
       id="clipPath32">
      <path
         d="M 0,192.379 H 500 V 0 H 0 Z"
         transform="translate(-150.2706,-114.7724)"
         id="path32" />
    </clipPath>
    <clipPath
       clipPathUnits="userSpaceOnUse"
       id="clipPath34">
      <path
         d="M 0,192.379 H 500 V 0 H 0 Z"
         transform="translate(-139.28721,-103.5283)"
         id="path34" />
    </clipPath>
    <clipPath
       clipPathUnits="userSpaceOnUse"
       id="clipPath36">
      <path
         d="M 0,192.379 H 500 V 0 H 0 Z"
         transform="translate(-105.0528,-104.1841)"
         id="path36" />
    </clipPath>
    <clipPath
       clipPathUnits="userSpaceOnUse"
       id="clipPath38">
      <path
         d="M 0,192.379 H 500 V 0 H 0 Z"
         transform="translate(-60.754001,-64.698199)"
         id="path38" />
    </clipPath>
    <clipPath
       clipPathUnits="userSpaceOnUse"
       id="clipPath40">
      <path
         d="M 0,192.379 H 500 V 0 H 0 Z"
         transform="translate(-490.03041,-86.7881)"
         id="path40" />
    </clipPath>
    <clipPath
       clipPathUnits="userSpaceOnUse"
       id="clipPath42">
      <path
         d="M 0,192.379 H 500 V 0 H 0 Z"
         transform="translate(-485.06651,-65.448199)"
         id="path42" />
    </clipPath>
    <clipPath
       clipPathUnits="userSpaceOnUse"
       id="clipPath44">
      <path
         d="M 461.132,92.967 V 61.596 l 23.935,3.852 v 5.737 l -17.665,-2.843 v 7.35 l 14.508,2.334 v 5.737 l -14.508,-2.335 v 6.813 l 17.665,2.842 v 5.737 z m -8.526,-1.371 -12.992,-2.091 c -0.874,-0.14 -1.687,-0.459 -2.438,-0.953 v 0 c -0.753,-0.494 -1.408,-1.1 -1.967,-1.818 v 0 c -0.56,-0.717 -1.004,-1.513 -1.332,-2.389 v 0 c -0.328,-0.874 -0.492,-1.759 -0.492,-2.655 v 0 -17.748 c 0,-0.956 0.171,-1.817 0.512,-2.584 v 0 c 0.341,-0.766 0.799,-1.41 1.374,-1.929 v 0 c 0.573,-0.52 1.235,-0.899 1.987,-1.137 v 0 c 0.751,-0.238 1.537,-0.291 2.356,-0.159 v 0 l 12.992,2.09 c 0.821,0.134 1.606,0.438 2.357,0.918 v 0 c 0.752,0.479 1.421,1.072 2.008,1.78 v 0 c 0.588,0.706 1.052,1.498 1.395,2.375 v 0 c 0.341,0.877 0.511,1.793 0.511,2.748 v 0 2.421 l -6.271,-1.009 v -1.568 c 0,-0.538 -0.171,-1.022 -0.511,-1.45 v 0 c -0.342,-0.428 -0.759,-0.682 -1.25,-0.761 v 0 l -9.468,-1.524 c -0.492,-0.078 -0.908,0.049 -1.25,0.382 v 0 c -0.342,0.333 -0.513,0.769 -0.513,1.307 v 0 15.954 c 0,0.538 0.171,1.028 0.513,1.473 v 0 c 0.342,0.442 0.758,0.704 1.25,0.783 v 0 l 9.468,1.524 c 0.491,0.078 0.908,-0.041 1.25,-0.359 v 0 c 0.34,-0.32 0.511,-0.748 0.511,-1.286 v 0 -1.568 l 6.271,1.01 v 2.419 c 0,0.927 -0.17,1.78 -0.511,2.563 v 0 c -0.343,0.781 -0.807,1.43 -1.395,1.948 v 0 c -0.587,0.518 -1.256,0.896 -2.008,1.134 v 0 c -0.483,0.153 -0.979,0.229 -1.491,0.229 v 0 c -0.284,0 -0.572,-0.023 -0.866,-0.07 M 423.672,86.938 V 64.307 L 410.72,84.855 403.18,83.641 V 52.269 l 6.229,1.002 v 22.633 l 12.951,-20.548 7.541,1.214 v 31.372 z m -40.083,-6.45 -12.131,-33.324 6.23,1.003 2.5,7.169 12.991,2.09 2.542,-6.356 6.229,1.001 -12.131,29.42 z m 3.115,-6.758 0.041,0.005 4.304,-10.915 -8.689,-1.397 z m -20.533,3.954 -8.73,-24.62 -8.729,21.811 -6.517,-1.049 12.131,-29.419 6.23,1.003 12.131,33.324 z M 334.9,72.652 314.859,69.427 V 38.055 L 334.9,41.28 c 0.875,0.141 1.694,0.459 2.46,0.956 v 0 c 0.764,0.496 1.426,1.104 1.987,1.822 v 0 c 0.56,0.717 1.003,1.513 1.332,2.387 v 0 c 0.328,0.875 0.492,1.76 0.492,2.656 v 0 17.748 c 0,0.955 -0.172,1.817 -0.513,2.584 v 0 c -0.342,0.766 -0.798,1.41 -1.372,1.93 v 0 c -0.575,0.52 -1.244,0.899 -2.008,1.134 v 0 c -0.491,0.151 -0.993,0.226 -1.506,0.226 v 0 c -0.287,0 -0.578,-0.023 -0.872,-0.071 m -13.812,-7.96 12.05,1.94 c 0.491,0.079 0.908,-0.049 1.25,-0.381 v 0 c 0.341,-0.334 0.512,-0.77 0.512,-1.308 v 0 -15.954 c 0,-0.537 -0.171,-1.029 -0.512,-1.472 v 0 c -0.342,-0.443 -0.759,-0.704 -1.25,-0.784 v 0 l -12.05,-1.939 z m -25.82,1.581 -12.132,-33.323 6.23,1.002 2.5,7.17 12.993,2.091 2.541,-6.359 6.229,1.004 -12.131,29.418 z m 3.115,-6.759 0.041,0.007 4.304,-10.915 -8.69,-1.398 z"
         transform="translate(-491.06161,-118.7339)"
         id="path44" />
    </clipPath>
    <clipPath
       clipPathUnits="userSpaceOnUse"
       id="clipPath46">
      <path
         d="M 461.132,92.967 V 61.596 l 23.935,3.852 v 5.737 l -17.665,-2.843 v 7.35 l 14.508,2.334 v 5.737 l -14.508,-2.335 v 6.813 l 17.665,2.842 v 5.737 z m -8.526,-1.371 -12.992,-2.091 c -0.874,-0.14 -1.687,-0.459 -2.438,-0.953 v 0 c -0.753,-0.494 -1.408,-1.1 -1.967,-1.818 v 0 c -0.56,-0.717 -1.004,-1.513 -1.332,-2.389 v 0 c -0.328,-0.874 -0.492,-1.759 -0.492,-2.655 v 0 -17.748 c 0,-0.956 0.171,-1.817 0.512,-2.584 v 0 c 0.341,-0.766 0.799,-1.41 1.374,-1.929 v 0 c 0.573,-0.52 1.235,-0.899 1.987,-1.137 v 0 c 0.751,-0.238 1.537,-0.291 2.356,-0.159 v 0 l 12.992,2.09 c 0.821,0.134 1.606,0.438 2.357,0.918 v 0 c 0.752,0.479 1.421,1.072 2.008,1.78 v 0 c 0.588,0.706 1.052,1.498 1.395,2.375 v 0 c 0.341,0.877 0.511,1.793 0.511,2.748 v 0 2.421 l -6.271,-1.009 v -1.568 c 0,-0.538 -0.171,-1.022 -0.511,-1.45 v 0 c -0.342,-0.428 -0.759,-0.682 -1.25,-0.761 v 0 l -9.468,-1.524 c -0.492,-0.078 -0.908,0.049 -1.25,0.382 v 0 c -0.342,0.333 -0.513,0.769 -0.513,1.307 v 0 15.954 c 0,0.538 0.171,1.028 0.513,1.473 v 0 c 0.342,0.442 0.758,0.704 1.25,0.783 v 0 l 9.468,1.524 c 0.491,0.078 0.908,-0.041 1.25,-0.359 v 0 c 0.34,-0.32 0.511,-0.748 0.511,-1.286 v 0 -1.568 l 6.271,1.01 v 2.419 c 0,0.927 -0.17,1.78 -0.511,2.563 v 0 c -0.343,0.781 -0.807,1.43 -1.395,1.948 v 0 c -0.587,0.518 -1.256,0.896 -2.008,1.134 v 0 c -0.483,0.153 -0.979,0.229 -1.491,0.229 v 0 c -0.284,0 -0.572,-0.023 -0.866,-0.07 M 423.672,86.938 V 64.307 L 410.72,84.855 403.18,83.641 V 52.269 l 6.229,1.002 v 22.633 l 12.951,-20.548 7.541,1.214 v 31.372 z m -40.083,-6.45 -12.131,-33.324 6.23,1.003 2.5,7.169 12.991,2.09 2.542,-6.356 6.229,1.001 -12.131,29.42 z m 3.115,-6.758 0.041,0.005 4.304,-10.915 -8.689,-1.397 z m -20.533,3.954 -8.73,-24.62 -8.729,21.811 -6.517,-1.049 12.131,-29.419 6.23,1.003 12.131,33.324 z M 334.9,72.652 314.859,69.427 V 38.055 L 334.9,41.28 c 0.875,0.141 1.694,0.459 2.46,0.956 v 0 c 0.764,0.496 1.426,1.104 1.987,1.822 v 0 c 0.56,0.717 1.003,1.513 1.332,2.387 v 0 c 0.328,0.875 0.492,1.76 0.492,2.656 v 0 17.748 c 0,0.955 -0.172,1.817 -0.513,2.584 v 0 c -0.342,0.766 -0.798,1.41 -1.372,1.93 v 0 c -0.575,0.52 -1.244,0.899 -2.008,1.134 v 0 c -0.491,0.151 -0.993,0.226 -1.506,0.226 v 0 c -0.287,0 -0.578,-0.023 -0.872,-0.071 m -13.812,-7.96 12.05,1.94 c 0.491,0.079 0.908,-0.049 1.25,-0.381 v 0 c 0.341,-0.334 0.512,-0.77 0.512,-1.308 v 0 -15.954 c 0,-0.537 -0.171,-1.029 -0.512,-1.472 v 0 c -0.342,-0.443 -0.759,-0.704 -1.25,-0.784 v 0 l -12.05,-1.939 z m -25.82,1.581 -12.132,-33.323 6.23,1.002 2.5,7.17 12.993,2.091 2.541,-6.359 6.229,1.004 -12.131,29.418 z m 3.115,-6.759 0.041,0.007 4.304,-10.915 -8.69,-1.398 z"
         transform="translate(-491.06161,-118.7339)"
         id="path46" />
    </clipPath>
    <clipPath
       clipPathUnits="userSpaceOnUse"
       id="clipPath48">
      <path
         d="M 461.132,92.967 V 61.596 l 23.935,3.852 v 5.737 l -17.665,-2.843 v 7.35 l 14.508,2.334 v 5.737 l -14.508,-2.335 v 6.813 l 17.665,2.842 v 5.737 z m -8.526,-1.371 -12.992,-2.091 c -0.874,-0.14 -1.687,-0.459 -2.438,-0.953 v 0 c -0.753,-0.494 -1.408,-1.1 -1.967,-1.818 v 0 c -0.56,-0.717 -1.004,-1.513 -1.332,-2.389 v 0 c -0.328,-0.874 -0.492,-1.759 -0.492,-2.655 v 0 -17.748 c 0,-0.956 0.171,-1.817 0.512,-2.584 v 0 c 0.341,-0.766 0.799,-1.41 1.374,-1.929 v 0 c 0.573,-0.52 1.235,-0.899 1.987,-1.137 v 0 c 0.751,-0.238 1.537,-0.291 2.356,-0.159 v 0 l 12.992,2.09 c 0.821,0.134 1.606,0.438 2.357,0.918 v 0 c 0.752,0.479 1.421,1.072 2.008,1.78 v 0 c 0.588,0.706 1.052,1.498 1.395,2.375 v 0 c 0.341,0.877 0.511,1.793 0.511,2.748 v 0 2.421 l -6.271,-1.009 v -1.568 c 0,-0.538 -0.171,-1.022 -0.511,-1.45 v 0 c -0.342,-0.428 -0.759,-0.682 -1.25,-0.761 v 0 l -9.468,-1.524 c -0.492,-0.078 -0.908,0.049 -1.25,0.382 v 0 c -0.342,0.333 -0.513,0.769 -0.513,1.307 v 0 15.954 c 0,0.538 0.171,1.028 0.513,1.473 v 0 c 0.342,0.442 0.758,0.704 1.25,0.783 v 0 l 9.468,1.524 c 0.491,0.078 0.908,-0.041 1.25,-0.359 v 0 c 0.34,-0.32 0.511,-0.748 0.511,-1.286 v 0 -1.568 l 6.271,1.01 v 2.419 c 0,0.927 -0.17,1.78 -0.511,2.563 v 0 c -0.343,0.781 -0.807,1.43 -1.395,1.948 v 0 c -0.587,0.518 -1.256,0.896 -2.008,1.134 v 0 c -0.483,0.153 -0.979,0.229 -1.491,0.229 v 0 c -0.284,0 -0.572,-0.023 -0.866,-0.07 M 423.672,86.938 V 64.307 L 410.72,84.855 403.18,83.641 V 52.269 l 6.229,1.002 v 22.633 l 12.951,-20.548 7.541,1.214 v 31.372 z m -40.083,-6.45 -12.131,-33.324 6.23,1.003 2.5,7.169 12.991,2.09 2.542,-6.356 6.229,1.001 -12.131,29.42 z m 3.115,-6.758 0.041,0.005 4.304,-10.915 -8.689,-1.397 z m -20.533,3.954 -8.73,-24.62 -8.729,21.811 -6.517,-1.049 12.131,-29.419 6.23,1.003 12.131,33.324 z M 334.9,72.652 314.859,69.427 V 38.055 L 334.9,41.28 c 0.875,0.141 1.694,0.459 2.46,0.956 v 0 c 0.764,0.496 1.426,1.104 1.987,1.822 v 0 c 0.56,0.717 1.003,1.513 1.332,2.387 v 0 c 0.328,0.875 0.492,1.76 0.492,2.656 v 0 17.748 c 0,0.955 -0.172,1.817 -0.513,2.584 v 0 c -0.342,0.766 -0.798,1.41 -1.372,1.93 v 0 c -0.575,0.52 -1.244,0.899 -2.008,1.134 v 0 c -0.491,0.151 -0.993,0.226 -1.506,0.226 v 0 c -0.287,0 -0.578,-0.023 -0.872,-0.071 m -13.812,-7.96 12.05,1.94 c 0.491,0.079 0.908,-0.049 1.25,-0.381 v 0 c 0.341,-0.334 0.512,-0.77 0.512,-1.308 v 0 -15.954 c 0,-0.537 -0.171,-1.029 -0.512,-1.472 v 0 c -0.342,-0.443 -0.759,-0.704 -1.25,-0.784 v 0 l -12.05,-1.939 z m -25.82,1.581 -12.132,-33.323 6.23,1.002 2.5,7.17 12.993,2.091 2.541,-6.359 6.229,1.004 -12.131,29.418 z m 3.115,-6.759 0.041,0.007 4.304,-10.915 -8.69,-1.398 z"
         transform="translate(-491.06161,-118.7339)"
         id="path48" />
    </clipPath>
    <clipPath
       clipPathUnits="userSpaceOnUse"
       id="clipPath50">
      <path
         d="M 461.132,92.967 V 61.596 l 23.935,3.852 v 5.737 l -17.665,-2.843 v 7.35 l 14.508,2.334 v 5.737 l -14.508,-2.335 v 6.813 l 17.665,2.842 v 5.737 z m -8.526,-1.371 -12.992,-2.091 c -0.874,-0.14 -1.687,-0.459 -2.438,-0.953 v 0 c -0.753,-0.494 -1.408,-1.1 -1.967,-1.818 v 0 c -0.56,-0.717 -1.004,-1.513 -1.332,-2.389 v 0 c -0.328,-0.874 -0.492,-1.759 -0.492,-2.655 v 0 -17.748 c 0,-0.956 0.171,-1.817 0.512,-2.584 v 0 c 0.341,-0.766 0.799,-1.41 1.374,-1.929 v 0 c 0.573,-0.52 1.235,-0.899 1.987,-1.137 v 0 c 0.751,-0.238 1.537,-0.291 2.356,-0.159 v 0 l 12.992,2.09 c 0.821,0.134 1.606,0.438 2.357,0.918 v 0 c 0.752,0.479 1.421,1.072 2.008,1.78 v 0 c 0.588,0.706 1.052,1.498 1.395,2.375 v 0 c 0.341,0.877 0.511,1.793 0.511,2.748 v 0 2.421 l -6.271,-1.009 v -1.568 c 0,-0.538 -0.171,-1.022 -0.511,-1.45 v 0 c -0.342,-0.428 -0.759,-0.682 -1.25,-0.761 v 0 l -9.468,-1.524 c -0.492,-0.078 -0.908,0.049 -1.25,0.382 v 0 c -0.342,0.333 -0.513,0.769 -0.513,1.307 v 0 15.954 c 0,0.538 0.171,1.028 0.513,1.473 v 0 c 0.342,0.442 0.758,0.704 1.25,0.783 v 0 l 9.468,1.524 c 0.491,0.078 0.908,-0.041 1.25,-0.359 v 0 c 0.34,-0.32 0.511,-0.748 0.511,-1.286 v 0 -1.568 l 6.271,1.01 v 2.419 c 0,0.927 -0.17,1.78 -0.511,2.563 v 0 c -0.343,0.781 -0.807,1.43 -1.395,1.948 v 0 c -0.587,0.518 -1.256,0.896 -2.008,1.134 v 0 c -0.483,0.153 -0.979,0.229 -1.491,0.229 v 0 c -0.284,0 -0.572,-0.023 -0.866,-0.07 M 423.672,86.938 V 64.307 L 410.72,84.855 403.18,83.641 V 52.269 l 6.229,1.002 v 22.633 l 12.951,-20.548 7.541,1.214 v 31.372 z m -40.083,-6.45 -12.131,-33.324 6.23,1.003 2.5,7.169 12.991,2.09 2.542,-6.356 6.229,1.001 -12.131,29.42 z m 3.115,-6.758 0.041,0.005 4.304,-10.915 -8.689,-1.397 z m -20.533,3.954 -8.73,-24.62 -8.729,21.811 -6.517,-1.049 12.131,-29.419 6.23,1.003 12.131,33.324 z M 334.9,72.652 314.859,69.427 V 38.055 L 334.9,41.28 c 0.875,0.141 1.694,0.459 2.46,0.956 v 0 c 0.764,0.496 1.426,1.104 1.987,1.822 v 0 c 0.56,0.717 1.003,1.513 1.332,2.387 v 0 c 0.328,0.875 0.492,1.76 0.492,2.656 v 0 17.748 c 0,0.955 -0.172,1.817 -0.513,2.584 v 0 c -0.342,0.766 -0.798,1.41 -1.372,1.93 v 0 c -0.575,0.52 -1.244,0.899 -2.008,1.134 v 0 c -0.491,0.151 -0.993,0.226 -1.506,0.226 v 0 c -0.287,0 -0.578,-0.023 -0.872,-0.071 m -13.812,-7.96 12.05,1.94 c 0.491,0.079 0.908,-0.049 1.25,-0.381 v 0 c 0.341,-0.334 0.512,-0.77 0.512,-1.308 v 0 -15.954 c 0,-0.537 -0.171,-1.029 -0.512,-1.472 v 0 c -0.342,-0.443 -0.759,-0.704 -1.25,-0.784 v 0 l -12.05,-1.939 z m -25.82,1.581 -12.132,-33.323 6.23,1.002 2.5,7.17 12.993,2.091 2.541,-6.359 6.229,1.004 -12.131,29.418 z m 3.115,-6.759 0.041,0.007 4.304,-10.915 -8.69,-1.398 z"
         transform="translate(-491.06161,-118.7339)"
         id="path50" />
    </clipPath>
  </defs>
  <sodipodi:namedview
     id="namedview1"
     pagecolor="#ffffff"
     bordercolor="#000000"
     borderopacity="0.25"
     inkscape:showpageshadow="2"
     inkscape:pageopacity="0.0"
     inkscape:pagecheckerboard="0"
     inkscape:deskcolor="#d1d1d1">
    <inkscape:page
       x="0"
       y="0"
       inkscape:label="1"
       id="page1"
       width="666.66669"
       height="256.50534"
       margin="0"
       bleed="0" />
  </sodipodi:namedview>
  <g
     id="layer-MC0"
     inkscape:groupmode="layer"
     inkscape:label="Layer 1">
    <path
       id="path1"
       d="m 0,0 c -13.828,-2.19 -25.905,-8.731 -35.063,-18.001 -12.008,5.935 -25.896,8.346 -40.103,6.096 -14.888,-2.358 -27.86,-9.475 -37.615,-19.553 -16.564,14.493 -39.195,21.821 -62.582,18.117 -22.745,-3.602 -41.586,-16.909 -52.975,-35.025 -13.511,7.649 -29.595,10.96 -46.086,8.348 -15.564,-2.465 -29.153,-9.836 -39.447,-20.282 -14.696,10.141 -33.153,14.883 -52.14,11.875 -39.226,-6.213 -66.084,-43.179 -59.871,-82.406 6.213,-39.225 43.179,-66.083 82.405,-59.87 16.145,2.557 30.192,10.327 40.703,21.318 14.366,-9.6 32.232,-14.039 50.602,-11.13 19.064,3.019 35.164,13.397 45.874,27.773 15.563,-10.518 34.981,-15.403 54.952,-12.239 20.9,3.31 38.504,14.811 50.059,30.709 13.437,-8.772 30.038,-12.792 47.099,-10.09 16.533,2.619 30.705,11.106 40.729,22.998 10.222,-4.079 21.631,-5.551 33.269,-3.708 34.481,5.461 58.09,37.958 52.629,72.44 C 66.978,-18.148 34.482,5.461 0,0"
       style="fill:#00b3f0;fill-opacity:1;fill-rule:nonzero;stroke:none"
       transform="matrix(1.3333333,0,0,-1.3333333,569.034,1.0464)"
       clip-path="url(#clipPath2)" />
    <path
       id="path3"
       d="m 0,0 c -14.146,-2.24 -26.23,-9.598 -34.673,-19.882 -11.723,7.114 -25.921,10.285 -40.494,7.977 -15.811,-2.504 -29.21,-11.001 -38.25,-22.806 -15.299,16.376 -38.195,25.132 -61.946,21.37 -23.171,-3.67 -41.887,-18.42 -51.598,-37.988 -13.249,9.534 -30.106,14.06 -47.463,11.311 -16.198,-2.565 -30.023,-11.024 -39.644,-22.838 -13.927,11.668 -32.631,17.49 -51.944,14.431 -35.412,-5.609 -59.659,-38.982 -54.05,-74.394 5.609,-35.412 38.982,-59.66 74.394,-54.051 16.744,2.652 30.988,11.513 40.764,23.859 13.659,-11.131 31.81,-16.638 50.542,-13.672 19.677,3.118 35.859,14.929 45.247,30.894 14.926,-12.436 34.927,-18.63 55.578,-15.359 21.494,3.404 39.15,16.342 49.347,33.816 12.844,-10.688 30.049,-16.01 47.811,-13.196 16.66,2.638 30.641,11.932 39.667,24.738 10.233,-5.222 22.141,-7.38 34.33,-5.449 30.669,4.857 51.667,33.76 46.81,64.429 C 59.57,-16.141 30.668,4.857 0,0"
       style="fill:#ffffff;fill-opacity:1;fill-rule:nonzero;stroke:none"
       transform="matrix(1.3333333,0,0,-1.3333333,570.49493,10.267067)"
       clip-path="url(#clipPath4)" />
    <path
       id="path5"
       d="m 0,0 c -14.591,-2.311 -26.71,-10.693 -34.193,-22.162 -11.287,8.535 -25.894,12.645 -40.974,10.257 -16.994,-2.692 -30.87,-13.047 -38.662,-26.985 -13.615,18.787 -37.048,29.428 -61.534,25.55 -23.934,-3.791 -42.624,-20.463 -50.126,-41.829 -12.629,11.927 -30.451,18.079 -48.935,15.151 -17.003,-2.693 -31.099,-12.521 -39.729,-25.945 -12.905,13.514 -32.006,20.682 -51.858,17.538 -32.135,-5.09 -54.059,-35.266 -48.97,-67.401 5.09,-32.134 35.266,-54.058 67.401,-48.968 17.519,2.774 32.002,13.006 40.729,26.946 12.698,-12.978 31.278,-19.816 50.577,-16.759 20.581,3.26 36.906,16.973 44.427,34.867 13.946,-14.85 34.76,-22.76 56.398,-19.334 22.43,3.553 40.253,18.42 48.58,37.86 11.813,-13.134 29.83,-20.209 48.578,-17.24 16.958,2.686 30.81,13.003 38.611,26.896 10.074,-6.611 22.546,-9.639 35.386,-7.606 27.383,4.337 46.065,30.052 41.729,57.435 C 53.098,-14.345 27.383,4.337 0,0"
       style="fill:#130c0e;fill-opacity:1;fill-rule:nonzero;stroke:none"
       transform="matrix(1.3333333,0,0,-1.3333333,571.76973,18.3172)"
       clip-path="url(#clipPath6)" />
    <path
       id="path7"
       d="m 0,0 1.322,-8.346 9.341,1.48 -1.321,8.345 z"
       style="fill:#130c0e;fill-opacity:1;fill-rule:nonzero;stroke:none"
       transform="matrix(1.3333333,0,0,-1.3333333,422.6824,150.9976)"
       clip-path="url(#clipPath8)" />
    <path
       id="path9"
       d="m 0,0 v 3.627 l -0.839,-3.76 -0.908,-0.144 -0.818,3.498 v -3.627 l -0.859,-0.136 v 4.341 l 1.341,0.213 0.809,-3.316 0.009,0.002 0.789,3.569 1.325,0.209 V 0.134 Z M -6.199,-0.982 V 2.59 L -7.58,2.371 v 0.768 l 3.653,0.578 V 2.95 L -5.258,2.739 v -3.572 z"
       style="fill:#f15a22;fill-opacity:1;fill-rule:nonzero;stroke:none"
       transform="matrix(1.3333333,0,0,-1.3333333,620.09267,114.8596)"
       clip-path="url(#clipPath10)" />
    <path
       id="path11"
       d="M 0,0 C 2.749,0.187 6.226,0.537 8.804,0.873 L 8.815,-4.999 C 5.986,-5.589 2.363,-6.19 0.387,-6.694 c -3.443,-0.887 -2.999,-5.868 0.113,-5.571 2.556,0.246 8.36,0.916 11.178,1.451 V -17.79 L -9.746,-21.184 V 21.96 l 21.458,3.399 V 8.792 C 7.418,8.172 2.307,7.168 -0.136,6.425 -3.998,5.25 -3.407,-0.241 0,0"
       style="fill:#f15a22;fill-opacity:1;fill-rule:nonzero;stroke:none"
       transform="matrix(1.3333333,0,0,-1.3333333,598.97667,82.743067)"
       clip-path="url(#clipPath12)" />
    <path
       id="path13"
       d="m 0,0 -5.034,1.471 c -4.295,1.255 -5.198,8.271 8.992,7.315 V 21.371 C -16.927,24.332 -24.371,1.53 -9.076,-2.725 l 4.559,-1.269 c 5.931,-1.65 2.083,-8.389 -10.443,-7.614 v -6.673 C 6.611,-20.25 10.692,-3.124 0,0"
       style="fill:#f15a22;fill-opacity:1;fill-rule:nonzero;stroke:none"
       transform="matrix(1.3333333,0,0,-1.3333333,574.77227,93.9208)"
       clip-path="url(#clipPath14)" />
    <path
       id="path15"
       d="M 0,0 V 39.101 L -7.848,37.858 V -1.243 Z"
       style="fill:#f15a22;fill-opacity:1;fill-rule:nonzero;stroke:none"
       transform="matrix(1.3333333,0,0,-1.3333333,548.76573,126.69933)"
       clip-path="url(#clipPath16)" />
    <path
       id="path17"
       d="m 0,0 c 0,4.012 -1.885,7.11 -5.489,7.875 -3.627,0.77 -3.884,-1.634 -3.884,-9.464 0,-8.025 0.141,-10.364 3.954,-8.259 C -1.707,-7.798 0,-4.037 0,0 m 0.979,-13.894 c -3.792,-3.008 -6.428,-3.814 -16.612,-5.427 V 20.175 C 9.897,29.807 14.778,-2.942 0.979,-13.894"
       style="fill:#f15a22;fill-opacity:1;fill-rule:nonzero;stroke:none"
       transform="matrix(1.3333333,0,0,-1.3333333,523.784,94.6864)"
       clip-path="url(#clipPath18)" />
    <path
       id="path19"
       d="M 0,0 C -0.908,3.195 -1.636,3.726 -2.92,3.521 -3.896,3.366 -4.972,2.328 -5.785,-0.92 -7.183,-6.499 -7.184,-6.499 -2.869,-5.813 1.454,-5.123 1.458,-5.122 0,0 m 13.809,-18.583 -9.505,-1.505 c -2.133,8.517 -2.302,9.222 -7.273,8.43 -4.111,-0.655 -4.772,-1.612 -6.167,-7.667 l -6.843,-1.083 c 8.144,36.908 9.797,39.661 13.44,40.242 4.579,0.728 6.761,-0.441 16.348,-38.417"
       style="fill:#f15a22;fill-opacity:1;fill-rule:nonzero;stroke:none"
       transform="matrix(1.3333333,0,0,-1.3333333,486.0496,115.15387)"
       clip-path="url(#clipPath20)" />
    <path
       id="path21"
       d="m 0,0 c 0,3.016 -1.654,5.307 -4.82,5.81 -3.184,0.505 -3.409,-1.307 -3.409,-7.192 0,-6.032 0.123,-7.788 3.471,-6.129 C -1.499,-5.896 0,-3.035 0,0 m 0.597,-11.56 7.382,-11.531 -9.552,-1.513 c -4.787,6.952 -5.95,9.548 -6.384,9.336 -0.439,-0.214 -0.272,-3.041 -0.272,-8.986 l -5.691,-0.901 V 17.036 C 11.185,25.716 14.166,-2.031 0.597,-11.56"
       style="fill:#f15a22;fill-opacity:1;fill-rule:nonzero;stroke:none"
       transform="matrix(1.3333333,0,0,-1.3333333,454.56267,95.302267)"
       clip-path="url(#clipPath22)" />
    <path
       id="path23"
       d="M 0,0 C -0.909,3.195 -1.636,3.726 -2.92,3.521 -3.897,3.366 -4.972,2.328 -5.785,-0.92 -7.183,-6.499 -7.184,-6.499 -2.87,-5.813 1.454,-5.123 1.457,-5.122 0,0 m 13.809,-18.583 -9.505,-1.505 c -2.134,8.517 -2.302,9.222 -7.273,8.43 -4.112,-0.655 -4.772,-1.612 -6.167,-7.667 l -6.843,-1.083 c 8.144,36.908 9.796,39.661 13.439,40.242 4.58,0.728 6.761,-0.441 16.349,-38.417"
       style="fill:#f15a22;fill-opacity:1;fill-rule:nonzero;stroke:none"
       transform="matrix(1.3333333,0,0,-1.3333333,418.9416,124.4324)"
       clip-path="url(#clipPath24)" />
    <path
       id="path25"
       d="m 0,0 c 0,4.149 -2.277,7.302 -6.633,7.994 -4.382,0.695 -4.692,-1.797 -4.692,-9.896 0,-8.3 0.17,-10.716 4.777,-8.433 C -2.063,-8.113 0,-4.176 0,0 m 0.821,-15.906 c -2.681,-1.883 -5.59,-4.124 -10.877,-4.961 -1.269,-0.201 -1.269,-1.449 -1.269,-4.214 v -15.141 l -10.331,-1.635 V 23.045 C 12.888,34.99 19.492,-2.795 0.821,-15.906"
       style="fill:#f15a22;fill-opacity:1;fill-rule:nonzero;stroke:none"
       transform="matrix(1.3333333,0,0,-1.3333333,390.10827,106.0848)"
       clip-path="url(#clipPath26)" />
    <path
       id="path27"
       d="m 0,0 c -8.948,-24.977 -10.468,-26.948 -12.169,-27.219 -1.386,-0.221 -3.873,0.715 -12.092,20.829 l -8.853,-1.402 v -48.654 l 8.241,1.305 c 0,14.013 0.227,19.078 0.986,19.199 1.073,0.17 2.566,-1.736 7.328,-13.432 l 4.427,0.702 c 5.021,13.02 7.179,16.802 7.959,16.926 1.124,0.178 1.347,-6.977 1.347,-22.427 l 8.245,1.305 V 0.858 Z"
       style="fill:#faa61a;fill-opacity:1;fill-rule:nonzero;stroke:none"
       transform="matrix(1.3333333,0,0,-1.3333333,332.1252,86.366667)"
       clip-path="url(#clipPath28)" />
    <path
       id="path29"
       d="m 0,0 v -16.067 c 0,-2.971 -2.192,-5.736 -4.896,-6.164 -2.711,-0.43 -4.904,1.633 -4.904,4.602 v 10.986 l -7.447,-1.179 v -46.102 l 9.879,1.565 v 12.069 c 0,3.062 2.259,5.912 5.055,6.355 2.795,0.443 5.061,-1.683 5.061,-4.746 v -9.548 l 7.523,1.192 V 1.627 Z"
       style="fill:#faa61a;fill-opacity:1;fill-rule:nonzero;stroke:none"
       transform="matrix(1.3333333,0,0,-1.3333333,268.14467,104.3088)"
       clip-path="url(#clipPath30)" />
    <path
       id="path31"
       d="m 0,0 v -13.638 l 5.109,0.809 c 4.459,0.707 5.555,-0.381 5.555,-4.494 v -32.171 l 8.266,1.308 v 35.663 c 0,2.974 1.095,5.556 5.554,6.266 L 29.77,-5.42 V 4.715 Z"
       style="fill:#faa61a;fill-opacity:1;fill-rule:nonzero;stroke:none"
       transform="matrix(1.3333333,0,0,-1.3333333,200.3608,103.47547)"
       clip-path="url(#clipPath32)" />
    <path
       id="path33"
       d="m 0,0 v -12.97 c 0,-7.646 -2.127,-10.706 -4.743,-11.119 -2.615,-0.414 -4.736,1.727 -4.736,7.45 v 10.042 l -10.272,-1.627 v -8.507 c 0,-14.993 4.882,-18.785 11.727,-17.698 3.037,0.484 6.469,2.055 8.627,4.839 -0.591,-6.155 -7.02,-12.114 -14.134,-13.241 l -6.22,-0.984 v -13.039 l 4.898,0.776 c 12.023,1.904 22.299,10.996 22.299,32.56 l 0,24.698 z"
       style="fill:#faa61a;fill-opacity:1;fill-rule:nonzero;stroke:none"
       transform="matrix(1.3333333,0,0,-1.3333333,185.71627,118.4676)"
       clip-path="url(#clipPath34)" />
    <path
       id="path35"
       d="m 0,0 v -16.075 c 0,-2.971 -2.193,-5.729 -4.899,-6.157 -2.706,-0.429 -4.899,1.626 -4.899,4.598 v 10.989 l -7.45,-1.18 v -48.634 l 9.879,1.564 V -40.3 c 0,3.07 2.265,5.916 5.056,6.358 2.792,0.442 5.059,-1.68 5.059,-4.747 v -9.547 l 7.522,1.192 v 48.67 z"
       style="fill:#faa61a;fill-opacity:1;fill-rule:nonzero;stroke:none"
       transform="matrix(1.3333333,0,0,-1.3333333,140.0704,117.5932)"
       clip-path="url(#clipPath36)" />
    <path
       id="path37"
       d="m 0,0 c -5.756,-2.852 -5.969,0.167 -5.969,10.537 0,10.118 0.388,13.233 5.863,12.363 C 5.335,22.036 8.181,18.097 8.181,12.913 8.181,7.695 5.604,2.776 0,0 m -15.751,42.201 v -72.534 l 9.782,1.549 c 0,10.221 -0.284,15.08 0.47,15.449 0.745,0.364 2.744,-4.1 10.974,-16.051 L 21.897,-26.784 9.207,-6.96 C 32.535,9.421 27.408,57.124 -15.751,42.201"
       style="fill:#faa61a;fill-opacity:1;fill-rule:nonzero;stroke:none"
       transform="matrix(1.3333333,0,0,-1.3333333,81.005333,170.24107)"
       clip-path="url(#clipPath38)" />
    <path
       id="path39"
       d="M 0,0 V 15.925 L -198.529,-16.026 -214.601,-60.173 0,-25.636 v 15.925 l -3.156,-0.508 v 9.711 z"
       style="fill:#130c0e;fill-opacity:1;fill-rule:nonzero;stroke:none"
       transform="matrix(1.3333333,0,0,-1.3333333,653.37387,140.78787)"
       clip-path="url(#clipPath40)" />
    <path
       id="path41"
       d="M 0,0 -23.935,-3.853 V 27.52 L 0,31.372 v -5.737 l -17.664,-2.843 v -6.813 l 14.508,2.335 V 12.578 L -17.664,10.243 V 2.894 L 0,5.736 Z m -45.452,-7.315 c -0.819,-0.132 -1.606,-0.08 -2.357,0.159 -0.752,0.237 -1.414,0.616 -1.987,1.136 -0.574,0.52 -1.032,1.164 -1.373,1.93 -0.342,0.767 -0.513,1.628 -0.513,2.584 v 17.748 c 0,0.896 0.164,1.781 0.493,2.655 0.328,0.875 0.771,1.671 1.332,2.389 0.559,0.718 1.214,1.323 1.966,1.818 0.752,0.494 1.565,0.812 2.439,0.953 l 12.992,2.09 c 0.82,0.132 1.606,0.08 2.356,-0.158 0.752,-0.238 1.421,-0.616 2.009,-1.134 0.587,-0.518 1.052,-1.168 1.394,-1.949 0.341,-0.782 0.512,-1.635 0.512,-2.561 v -2.42 l -6.271,-1.01 v 1.568 c 0,0.538 -0.171,0.966 -0.512,1.286 -0.341,0.318 -0.758,0.437 -1.25,0.358 l -9.467,-1.523 c -0.493,-0.08 -0.909,-0.341 -1.25,-0.784 -0.342,-0.444 -0.513,-0.934 -0.513,-1.472 V 0.394 c 0,-0.539 0.171,-0.975 0.513,-1.307 0.341,-0.334 0.757,-0.461 1.25,-0.382 l 9.467,1.524 c 0.492,0.079 0.909,0.333 1.25,0.761 0.341,0.428 0.512,0.911 0.512,1.449 v 1.569 l 6.271,1.01 V 2.597 c 0,-0.956 -0.171,-1.872 -0.512,-2.749 -0.342,-0.877 -0.807,-1.669 -1.394,-2.375 -0.588,-0.707 -1.257,-1.301 -2.009,-1.78 -0.75,-0.48 -1.536,-0.785 -2.356,-0.918 z m -9.713,29.808 V -8.878 l -7.541,-1.214 -12.951,20.548 v -22.633 l -6.23,-1.002 v 31.371 l 7.541,1.214 12.951,-20.548 V 21.49 Z m -43.197,-14.212 0.041,0.006 4.303,-10.915 -8.689,-1.397 z m 15.246,-21.658 -12.132,29.419 -6.23,-1.002 -12.13,-33.324 6.229,1.003 2.5,7.169 12.992,2.091 2.541,-6.358 z m -29.263,26.662 -12.132,-33.324 -6.229,-1.002 -12.131,29.419 6.517,1.049 8.729,-21.811 8.729,24.62 z m -37.788,-29.744 c 0,-0.538 -0.171,-1.029 -0.512,-1.472 -0.342,-0.444 -0.758,-0.705 -1.25,-0.784 l -12.05,-1.939 v 19.898 l 12.05,1.94 c 0.492,0.079 0.908,-0.049 1.25,-0.381 0.341,-0.334 0.512,-0.77 0.512,-1.308 z m 6.271,17.86 c 0,0.955 -0.171,1.817 -0.512,2.584 -0.342,0.766 -0.799,1.41 -1.373,1.93 -0.574,0.52 -1.243,0.898 -2.008,1.134 -0.766,0.235 -1.558,0.287 -2.378,0.155 l -20.041,-3.225 v -31.373 l 20.041,3.226 c 0.875,0.141 1.694,0.459 2.46,0.956 0.765,0.496 1.427,1.104 1.987,1.821 0.56,0.718 1.004,1.513 1.332,2.388 0.328,0.875 0.492,1.76 0.492,2.656 z m -42.788,-7.335 0.041,0.007 4.304,-10.915 -8.689,-1.398 z m 15.247,-21.657 -12.131,29.419 -6.23,-1.003 -12.132,-33.323 6.23,1.002 2.5,7.17 12.992,2.091 2.541,-6.359 z"
       style="fill:#7058f8;fill-opacity:1;fill-rule:nonzero;stroke:none"
       transform="matrix(1.3333333,0,0,-1.3333333,646.75533,169.24107)"
       clip-path="url(#clipPath42)" />
    <path
       id="path43"
       d="m 0,0 -219.272,-35.307 8.598,-37.849 L 8.6,-37.849 Z"
       style="fill:#9482fa;fill-opacity:1;fill-rule:nonzero;stroke:none"
       transform="matrix(1.3333333,0,0,-1.3333333,654.7488,98.193467)"
       clip-path="url(#clipPath44)" />
    <path
       id="path45"
       d="m 0,0 -219.272,-35.307 7.845,-35.69 219.273,35.307 z"
       style="fill:#cac1fd;fill-opacity:1;fill-rule:nonzero;stroke:none"
       transform="matrix(1.3333333,0,0,-1.3333333,654.7488,98.193467)"
       clip-path="url(#clipPath46)" />
    <path
       id="path47"
       d="m 0,0 -219.272,-35.307 7.147,-33.853 219.272,35.307 z"
       style="fill:#f2effe;fill-opacity:1;fill-rule:nonzero;stroke:none"
       transform="matrix(1.3333333,0,0,-1.3333333,654.7488,98.193467)"
       clip-path="url(#clipPath48)" />
    <path
       id="path49"
       d="m 0,0 -219.272,-35.307 6.885,-32.284 219.273,35.306 z"
       style="fill:#ffffff;fill-opacity:1;fill-rule:nonzero;stroke:none"
       transform="matrix(1.3333333,0,0,-1.3333333,654.7488,98.193467)"
       clip-path="url(#clipPath50)" />
  </g>
</svg>
