<?xml version="1.0" encoding="UTF-8" standalone="no"?>
<!-- Created with Inkscape (http://www.inkscape.org/) -->

<svg
   version="1.1"
   id="svg1"
   width="666.66669"
   height="479.88666"
   viewBox="0 0 666.66669 479.88666"
   sodipodi:docname="Rhythm Paradise Advance (ESP) Logo (Wordmark).ai"
   xmlns:inkscape="http://www.inkscape.org/namespaces/inkscape"
   xmlns:sodipodi="http://sodipodi.sourceforge.net/DTD/sodipodi-0.dtd"
   xmlns="http://www.w3.org/2000/svg"
   xmlns:svg="http://www.w3.org/2000/svg">
  <defs
     id="defs1">
    <clipPath
       clipPathUnits="userSpaceOnUse"
       id="clipPath2">
      <path
         d="M 0,359.915 H 500 V 0 H 0 Z"
         transform="translate(-490.45941,-64.664099)"
         id="path2" />
    </clipPath>
    <clipPath
       clipPathUnits="userSpaceOnUse"
       id="clipPath4">
      <path
         d="M 0,359.915 H 500 V 0 H 0 Z"
         transform="translate(-493.21721,-85.575202)"
         id="path4" />
    </clipPath>
    <clipPath
       clipPathUnits="userSpaceOnUse"
       id="clipPath6">
      <path
         d="M 0,359.915 H 500 V 0 H 0 Z"
         transform="translate(-456.38031,-145.1123)"
         id="path6" />
    </clipPath>
    <clipPath
       clipPathUnits="userSpaceOnUse"
       id="clipPath8">
      <path
         d="M 0,359.915 H 500 V 0 H 0 Z"
         transform="translate(-424.74651,-205.51911)"
         id="path8" />
    </clipPath>
    <clipPath
       clipPathUnits="userSpaceOnUse"
       id="clipPath10">
      <path
         d="M 0,359.915 H 500 V 0 H 0 Z"
         transform="translate(-381.89401,-152.8604)"
         id="path10" />
    </clipPath>
    <clipPath
       clipPathUnits="userSpaceOnUse"
       id="clipPath12">
      <path
         d="M 0,359.915 H 500 V 0 H 0 Z"
         transform="translate(-326.46531,-148.2168)"
         id="path12" />
    </clipPath>
    <clipPath
       clipPathUnits="userSpaceOnUse"
       id="clipPath14">
      <path
         d="M 0,359.915 H 500 V 0 H 0 Z"
         transform="translate(-285.2905,-136.8545)"
         id="path14" />
    </clipPath>
    <clipPath
       clipPathUnits="userSpaceOnUse"
       id="clipPath16">
      <path
         d="M 0,359.915 H 500 V 0 H 0 Z"
         transform="translate(-235.43011,-125.3487)"
         id="path16" />
    </clipPath>
    <clipPath
       clipPathUnits="userSpaceOnUse"
       id="clipPath18">
      <path
         d="M 0,359.915 H 500 V 0 H 0 Z"
         transform="translate(-171.0912,-131.1182)"
         id="path18" />
    </clipPath>
    <clipPath
       clipPathUnits="userSpaceOnUse"
       id="clipPath20">
      <path
         d="M 0,359.915 H 500 V 0 H 0 Z"
         transform="translate(-123.6703,-90.8418)"
         id="path20" />
    </clipPath>
    <clipPath
       clipPathUnits="userSpaceOnUse"
       id="clipPath22">
      <path
         d="M 0,359.915 H 500 V 0 H 0 Z"
         transform="translate(-62.140601,-105.1866)"
         id="path22" />
    </clipPath>
    <clipPath
       clipPathUnits="userSpaceOnUse"
       id="clipPath24">
      <path
         d="M 0,359.915 H 500 V 0 H 0 Z"
         transform="translate(-392.85881,-356.85161)"
         id="path24" />
    </clipPath>
    <clipPath
       clipPathUnits="userSpaceOnUse"
       id="clipPath26">
      <path
         d="M 0,359.915 H 500 V 0 H 0 Z"
         transform="translate(-300.14791,-309.22511)"
         id="path26" />
    </clipPath>
    <clipPath
       clipPathUnits="userSpaceOnUse"
       id="clipPath28">
      <path
         d="M 0,359.915 H 500 V 0 H 0 Z"
         transform="translate(-207.43791,-302.32281)"
         id="path28" />
    </clipPath>
    <clipPath
       clipPathUnits="userSpaceOnUse"
       id="clipPath30">
      <path
         d="M 0,359.915 H 500 V 0 H 0 Z"
         transform="translate(-200.88861,-280.1055)"
         id="path30" />
    </clipPath>
    <clipPath
       clipPathUnits="userSpaceOnUse"
       id="clipPath32">
      <path
         d="M 0,359.915 H 500 V 0 H 0 Z"
         transform="translate(-119.39451,-281.49171)"
         id="path32" />
    </clipPath>
    <clipPath
       clipPathUnits="userSpaceOnUse"
       id="clipPath34">
      <path
         d="M 0,359.915 H 500 V 0 H 0 Z"
         transform="translate(-28.395001,-231.2271)"
         id="path34" />
    </clipPath>
  </defs>
  <sodipodi:namedview
     id="namedview1"
     pagecolor="#ffffff"
     bordercolor="#000000"
     borderopacity="0.25"
     inkscape:showpageshadow="2"
     inkscape:pageopacity="0.0"
     inkscape:pagecheckerboard="0"
     inkscape:deskcolor="#d1d1d1">
    <inkscape:page
       x="0"
       y="0"
       inkscape:label="1"
       id="page1"
       width="666.66669"
       height="479.88666"
       margin="0"
       bleed="0" />
  </sodipodi:namedview>
  <g
     id="layer-MC0"
     inkscape:groupmode="layer"
     inkscape:label="Layer 1">
    <path
       id="path1"
       d="m 0,0 c 0,0.825 -0.273,1.47 -0.816,1.94 -0.545,0.469 -1.172,0.623 -1.883,0.458 l -19.148,-4.42 v -16.063 l 19.148,4.42 c 0.711,0.164 1.338,0.594 1.883,1.293 C -0.273,-11.676 0,-10.914 0,-10.09 Z M 0,11.808 C 1.254,12.098 2.457,12.1 3.608,11.817 4.759,11.533 5.774,11.023 6.653,10.289 7.532,9.554 8.232,8.617 8.756,7.479 9.279,6.341 9.541,5.041 9.541,3.576 V -9.26 c 0,-1.374 -0.251,-2.747 -0.754,-4.121 -0.501,-1.375 -1.183,-2.642 -2.04,-3.801 -0.858,-1.159 -1.873,-2.16 -3.044,-3.002 C 2.53,-21.028 1.296,-21.598 0,-21.897 l -21.847,-5.043 v -14.347 l -9.541,-2.203 V 4.562 Z m -66.604,-24.163 c -0.754,-0.174 -1.404,-0.623 -1.947,-1.342 -0.545,-0.722 -0.816,-1.492 -0.816,-2.318 v -4.392 c 0,-0.823 0.271,-1.472 0.816,-1.94 0.543,-0.469 1.193,-0.617 1.947,-0.443 l 18.455,4.261 c 1.255,0.29 2.459,0.293 3.61,0.01 1.15,-0.284 2.165,-0.794 3.045,-1.528 0.878,-0.736 1.578,-1.673 2.102,-2.809 0.523,-1.139 0.785,-2.441 0.785,-3.904 v -7.963 c 0,-1.373 -0.251,-2.747 -0.753,-4.121 -0.503,-1.375 -1.183,-2.641 -2.04,-3.801 -0.859,-1.159 -1.864,-2.157 -3.014,-2.995 -1.151,-0.839 -2.397,-1.411 -3.735,-1.72 l -21.784,-5.029 c -1.254,-0.29 -2.458,-0.293 -3.608,-0.009 -1.152,0.283 -2.178,0.778 -3.076,1.486 -0.901,0.707 -1.612,1.63 -2.135,2.768 -0.524,1.137 -0.784,2.438 -0.784,3.903 v 3.707 l 9.603,2.217 v -2.334 c 0,-0.824 0.262,-1.461 0.786,-1.912 0.523,-0.452 1.161,-0.59 1.914,-0.417 l 16.384,3.783 c 0.753,0.174 1.391,0.618 1.915,1.335 0.523,0.715 0.785,1.485 0.785,2.309 v 5.217 c 0,0.823 -0.262,1.473 -0.785,1.947 -0.524,0.474 -1.162,0.623 -1.915,0.45 L -69.304,-32.2 c -1.256,-0.29 -2.47,-0.296 -3.641,-0.016 -1.172,0.278 -2.198,0.785 -3.076,1.521 -0.879,0.734 -1.581,1.671 -2.103,2.809 -0.523,1.137 -0.785,2.438 -0.785,3.903 v 7.139 c 0,1.373 0.251,2.746 0.754,4.121 0.502,1.374 1.181,2.642 2.039,3.8 0.858,1.159 1.873,2.159 3.045,3.003 1.172,0.842 2.426,1.418 3.767,1.728 l 20.464,4.724 c 1.256,0.29 2.458,0.293 3.61,0.01 1.151,-0.284 2.175,-0.792 3.077,-1.521 0.898,-0.731 1.61,-1.677 2.132,-2.836 0.524,-1.162 0.786,-2.452 0.786,-3.87 v -3.707 l -9.605,-2.217 v 2.403 c 0,0.823 -0.262,1.46 -0.784,1.913 -0.523,0.45 -1.161,0.59 -1.915,0.416 z m -19.837,-43.845 -36.661,-8.464 v 48.052 l 36.661,8.463 v -8.787 l -27.057,-6.246 v -10.434 l 22.223,5.131 v -8.787 l -22.223,-5.131 V -53.66 l 27.057,6.246 z"
       style="fill:#000000;fill-opacity:1;fill-rule:nonzero;stroke:none"
       transform="matrix(1.3333333,0,0,-1.3333333,653.94587,393.66787)"
       clip-path="url(#clipPath2)" />
    <path
       id="path3"
       d="M 0,0 -41.771,-9.645 V 45.106 L 0,54.75 V 44.738 L -30.828,37.621 V 25.732 l 25.32,5.846 V 21.566 l -25.32,-5.845 V 2.894 L 0,10.011 Z m -79.323,-18.313 c -1.431,-0.331 -2.802,-0.334 -4.113,-0.011 -1.312,0.322 -2.467,0.903 -3.469,1.741 -1.001,0.837 -1.8,1.903 -2.396,3.201 -0.596,1.296 -0.894,2.778 -0.894,4.447 v 30.973 c 0,1.565 0.286,3.129 0.858,4.695 0.572,1.567 1.347,3.01 2.324,4.33 0.978,1.322 2.122,2.458 3.434,3.414 1.311,0.954 2.729,1.608 4.256,1.96 l 22.674,5.235 c 1.43,0.33 2.8,0.333 4.113,0.011 1.31,-0.324 2.478,-0.902 3.505,-1.734 1.024,-0.832 1.835,-1.91 2.431,-3.231 0.596,-1.323 0.894,-2.793 0.894,-4.408 V 28.086 L -56.649,25.56 v 2.737 c 0,0.938 -0.298,1.664 -0.894,2.179 -0.598,0.513 -1.323,0.672 -2.182,0.474 l -16.522,-3.814 c -0.858,-0.199 -1.586,-0.706 -2.182,-1.521 -0.596,-0.816 -0.894,-1.692 -0.894,-2.631 V -4.86 c 0,-0.939 0.298,-1.679 0.894,-2.219 0.596,-0.54 1.324,-0.711 2.182,-0.513 l 16.522,3.815 c 0.859,0.198 1.584,0.691 2.182,1.481 0.596,0.789 0.894,1.653 0.894,2.592 V 3.033 L -45.706,5.56 V 1.336 c 0,-1.669 -0.298,-3.289 -0.894,-4.859 -0.596,-1.574 -1.407,-3.012 -2.431,-4.317 -1.027,-1.306 -2.195,-2.423 -3.505,-3.35 -1.313,-0.929 -2.683,-1.558 -4.113,-1.889 z m -16.952,50.836 v -54.75 l -13.161,-3.039 -22.602,34.281 v -39.498 l -10.872,-2.51 v 54.75 l 13.161,3.038 22.603,-34.28 v 39.499 z m -75.389,-30.075 0.072,0.017 7.51,-18.525 -15.163,-3.501 z m 26.608,-35.937 -21.172,49.863 -10.872,-2.511 -21.171,-59.637 10.872,2.509 4.363,12.818 22.674,5.235 4.434,-10.787 z m -51.07,42.961 -21.172,-59.639 -10.872,-2.51 -21.172,49.863 11.373,2.626 15.236,-36.999 15.235,44.033 z m -65.947,-56.523 c 0,-0.938 -0.298,-1.816 -0.894,-2.632 -0.597,-0.815 -1.323,-1.322 -2.181,-1.52 l -21.03,-4.855 v 34.728 l 21.03,4.854 c 0.858,0.199 1.584,0.027 2.181,-0.512 0.596,-0.541 0.894,-1.281 0.894,-2.219 z m 10.943,31.935 c 0,1.669 -0.298,3.15 -0.893,4.447 -0.597,1.296 -1.396,2.363 -2.397,3.201 -1.001,0.837 -2.17,1.416 -3.505,1.734 -1.335,0.317 -2.718,0.31 -4.148,-0.02 l -34.977,-8.074 v -54.751 l 34.977,8.075 c 1.525,0.352 2.956,1.008 4.292,1.969 1.334,0.959 2.491,2.099 3.469,3.421 0.976,1.32 1.751,2.762 2.324,4.33 0.572,1.565 0.858,3.131 0.858,4.695 z m -74.673,-18.022 0.071,0.017 7.51,-18.524 -15.163,-3.501 z m 26.608,-35.936 -21.172,49.862 -10.872,-2.51 -21.172,-59.638 10.872,2.51 4.363,12.818 22.674,5.234 4.435,-10.786 z"
       style="fill:#000000;fill-opacity:1;fill-rule:nonzero;stroke:none"
       transform="matrix(1.3333333,0,0,-1.3333333,657.62293,365.7864)"
       clip-path="url(#clipPath4)" />
    <path
       id="path5"
       d="M 0,0 V 9.072 L -2.28,-0.526 -4.75,-1.097 -6.977,7.461 V -1.61 L -9.312,-2.149 V 8.71 l 3.648,0.842 2.199,-8.106 0.027,0.006 2.146,9.11 3.601,0.831 V 0.533 Z m -16.857,-3.892 v 8.934 l -3.756,-0.867 v 1.926 l 9.934,2.294 V 6.469 l -3.62,-0.836 v -8.934 z"
       style="fill:#000000;fill-opacity:1;fill-rule:nonzero;stroke:none"
       transform="matrix(1.3333333,0,0,-1.3333333,608.50707,286.4036)"
       clip-path="url(#clipPath6)" />
    <path
       id="path7"
       d="m 0,0 c 5.254,1.979 16.25,4.936 25.487,6.94 v 28.593 l -46.16,-10.657 v -76.421 l 46.16,10.656 v 12.731 c -6.06,-1.588 -18.62,-3.951 -24.118,-4.88 -6.695,-1.124 -7.648,7.405 -0.245,9.848 4.252,1.394 12.047,3.25 18.132,4.961 v 9.803 C 13.709,-9.55 6.207,-10.849 0.294,-11.68 -7.037,-12.731 -8.308,-3.127 0,0"
       style="fill:#000000;fill-opacity:1;fill-rule:nonzero;stroke:none"
       transform="matrix(1.3333333,0,0,-1.3333333,566.32867,205.8612)"
       clip-path="url(#clipPath8)" />
    <path
       id="path9"
       d="m 0,0 c -0.271,2.539 -4.663,3.114 -11.504,4.754 -11.962,2.971 -19.365,10.017 -18.609,22.396 0.804,13.363 7.57,22.682 43.373,28.762 V 28.116 C 0.34,26.5 -6.793,24.083 -9.818,21.608 -13.045,18.99 -12.856,14.702 -8.199,13.147 -6.176,12.472 -0.194,10.474 3.421,9.262 10.358,6.949 13.752,3.403 14.46,-2.872 16.458,-20.576 -15.584,-25.219 -28.795,-27.158 v 15.729 C -12.968,-8.24 0.61,-5.445 0,0"
       style="fill:#000000;fill-opacity:1;fill-rule:nonzero;stroke:none"
       transform="matrix(1.3333333,0,0,-1.3333333,509.192,276.0728)"
       clip-path="url(#clipPath10)" />
    <path
       id="path11"
       d="m 0,0 v 68.128 l 17.228,3.977 V 3.978 Z"
       style="fill:#000000;fill-opacity:1;fill-rule:nonzero;stroke:none"
       transform="matrix(1.3333333,0,0,-1.3333333,435.28707,282.26427)"
       clip-path="url(#clipPath12)" />
    <path
       id="path13"
       d="m 0,0 c -4.741,-1.098 -6.793,0.488 -6.793,6.035 v 17.497 c 0,4.031 -0.209,7.252 3.616,8.332 C 5.132,34.21 14.417,29.763 15.297,20.722 16.323,10.214 10.478,2.419 0,0 m -18.474,58.329 v -74.31 C 17.447,-10.728 33.086,3.152 32.695,30.74 32.354,54.663 8.602,67.81 -18.474,58.329"
       style="fill:#000000;fill-opacity:1;fill-rule:nonzero;stroke:none"
       transform="matrix(1.3333333,0,0,-1.3333333,380.38733,297.414)"
       clip-path="url(#clipPath14)" />
    <path
       id="path15"
       d="m 0,0 -8.675,-2.003 c -2.179,-0.503 -3.421,0.855 -3.151,3.885 0.244,2.834 1.514,8.846 2.003,10.898 1.026,4.252 3.177,6.329 5.645,6.696 C -0.195,20.11 1.735,17.203 3.274,9.872 3.422,9.187 3.837,7.697 4.008,5.693 4.35,1.612 3.081,0.711 0,0 M 15.199,32.573 C 10.654,47.479 6.976,51.158 -2.076,49.067 -10.057,47.226 -14.594,43.071 -18.4,28.492 -22.139,14.173 -26.272,-6.292 -29.595,-29.457 l 13.174,3.042 c 0.245,1.832 0.685,3.982 1.32,7.257 0.684,3.299 2.468,5.658 6.011,6.475 l 10.263,2.37 c 2.744,0.633 5.254,-1.539 6.134,-5.204 0.587,-2.444 1.343,-5.91 1.808,-8.231 l 17.447,4.028 C 24.437,-2.64 19.721,17.765 15.199,32.573"
       style="fill:#000000;fill-opacity:1;fill-rule:nonzero;stroke:none"
       transform="matrix(1.3333333,0,0,-1.3333333,313.9068,312.75507)"
       clip-path="url(#clipPath16)" />
    <path
       id="path17"
       d="m 0,0 c -4.476,-1.049 -6.968,1.443 -6.968,6.771 v 5.148 c 0,3.713 0.722,6.935 4.033,7.984 9.616,3.046 16.313,-1.098 16.313,-7.607 C 13.378,6.214 8.722,2.05 0,0 m 32.412,22.247 c 0,23.657 -23.149,30.527 -51.463,20.411 v -74.427 l 12.067,2.787 v 17.178 c 0,2.918 2.148,2.41 4.131,0.64 1.394,-1.246 9.771,-9.361 15.624,-15.198 l 18.421,4.253 c 0,0 -16.06,16.404 -17.913,18.027 10.788,4.033 19.133,14.543 19.133,26.329"
       style="fill:#000000;fill-opacity:1;fill-rule:nonzero;stroke:none"
       transform="matrix(1.3333333,0,0,-1.3333333,228.1216,305.0624)"
       clip-path="url(#clipPath18)" />
    <path
       id="path19"
       d="m 0,0 -8.675,-2.003 c -2.18,-0.503 -3.421,0.855 -3.152,3.885 0.244,2.834 1.515,8.846 2.004,10.898 1.026,4.252 3.177,6.329 5.645,6.696 C -0.195,20.11 1.735,17.203 3.274,9.872 3.421,9.188 3.836,7.697 4.008,5.693 4.35,1.612 3.081,0.711 0,0 M 15.199,32.573 C 10.654,47.479 6.975,51.158 -2.077,49.067 -10.057,47.226 -14.594,43.071 -18.4,28.492 -22.139,14.173 -26.272,-6.292 -29.596,-29.457 l 13.175,3.042 c 0.244,1.832 0.684,3.982 1.319,7.257 0.685,3.299 2.469,5.658 6.012,6.475 l 10.263,2.37 c 2.744,0.633 5.254,-1.539 6.134,-5.204 0.586,-2.444 1.343,-5.91 1.808,-8.231 l 17.447,4.028 C 24.436,-2.64 19.72,17.765 15.199,32.573"
       style="fill:#000000;fill-opacity:1;fill-rule:nonzero;stroke:none"
       transform="matrix(1.3333333,0,0,-1.3333333,164.89373,358.76427)"
       clip-path="url(#clipPath20)" />
    <path
       id="path21"
       d="m 0,0 c -5.425,-1.326 -8.553,0.099 -8.553,4.644 v 16.445 c 0,4.645 2.566,7.576 7.674,8.235 C 9.359,30.644 13.978,24.657 13.978,16.861 13.978,10.361 10.142,2.48 0,0 M -34.041,53.053 V -49.948 l 25.513,5.889 v 24.193 c 0,4.423 1.099,6.622 3.738,7.086 23.776,4.182 40.712,16.136 40.712,40.663 0,26.931 -28.933,41.42 -69.963,25.17"
       style="fill:#000000;fill-opacity:1;fill-rule:nonzero;stroke:none"
       transform="matrix(1.3333333,0,0,-1.3333333,82.854133,339.63787)"
       clip-path="url(#clipPath22)" />
    <path
       id="path23"
       d="m 0,0 c -7.038,-23.239 -11.021,-34.602 -14.491,-44.18 -5.913,-16.299 -12.047,-9.897 -14.906,-5.352 -3.324,5.327 -7.844,15.688 -15.688,34.675 l -19.378,-4.474 v -91.215 l 16.079,3.712 c -0.122,14.539 0.122,24.411 0.905,28.248 0.708,3.445 2.785,3.934 4.886,0.513 1.736,-2.81 4.472,-8.895 9.921,-21.406 l 10.774,2.487 c 5.938,15.957 9.142,24.002 11.415,27.936 1.832,3.201 5.327,5.449 6.378,-0.465 0.805,-4.471 0.732,-16.603 0.708,-31.46 l 16.666,3.848 V 3.063 Z"
       style="fill:#000000;fill-opacity:1;fill-rule:nonzero;stroke:none"
       transform="matrix(1.3333333,0,0,-1.3333333,523.81173,4.0845333)"
       clip-path="url(#clipPath24)" />
    <path
       id="path25"
       d="m 0,0 c -0.073,-12.462 -0.049,-23.825 -0.586,-27.979 -1.247,-9.921 -18.205,-14.393 -19.036,-5.254 -0.391,4.301 -0.733,9.983 -0.733,22.665 l -13.708,-3.165 v -83.571 l 17.471,4.033 c 0,13.269 0,19.035 0.22,23.58 0.611,11.973 18.596,14.686 20.159,4.276 0.709,-4.741 0.831,-7.013 0.831,-17.716 l 13.929,3.215 V 4.282 Z"
       style="fill:#000000;fill-opacity:1;fill-rule:nonzero;stroke:none"
       transform="matrix(1.3333333,0,0,-1.3333333,400.1972,67.586533)"
       clip-path="url(#clipPath26)" />
    <path
       id="path27"
       d="m 0,0 v -33.639 l 9.75,2.251 c 5.913,1.366 8.356,0.596 8.356,-9.872 v -43.208 l 16.006,3.695 v 39.611 c 0,17.594 1.653,22.034 10.362,24.045 l 7.965,1.839 v 27.384 z"
       style="fill:#000000;fill-opacity:1;fill-rule:nonzero;stroke:none"
       transform="matrix(1.3333333,0,0,-1.3333333,276.58387,76.7896)"
       clip-path="url(#clipPath28)" />
    <path
       id="path29"
       d="m 0,0 -14.955,-3.453 c 0,0 0.22,-15.394 -0.366,-26.733 -0.856,-16.591 -17.57,-20.159 -18.914,-4.374 -0.684,8.285 -1.001,24.795 -1.001,24.795 l -18.597,-4.293 v -13.464 c 0,-32.133 20.893,-36.092 31.816,-26.928 0.66,0.562 1.32,0.904 1.857,0.659 0.611,-0.269 0.587,-0.928 0.343,-2.15 -0.661,-3.201 -5.401,-9.53 -14.98,-12.096 -7.307,-1.955 -14.466,-3.188 -18.034,-3.75 v -22.298 c 16.079,2.076 34.699,6.671 43.374,20.013 4.521,6.964 6.892,14.319 8.064,25.217 C 0.44,-31.701 0,0 0,0"
       style="fill:#000000;fill-opacity:1;fill-rule:nonzero;stroke:none"
       transform="matrix(1.3333333,0,0,-1.3333333,267.85147,106.41267)"
       clip-path="url(#clipPath30)" />
    <path
       id="path31"
       d="m 0,0 c -0.073,-12.462 -0.049,-23.825 -0.586,-27.98 -1.247,-9.92 -18.205,-14.392 -19.036,-5.253 -0.391,4.301 -0.733,9.983 -0.733,22.665 l -13.709,-3.165 v -83.571 l 17.472,4.033 c 0,13.269 0,19.034 0.22,23.58 0.611,11.973 18.596,14.686 20.16,4.275 0.708,-4.74 0.83,-7.013 0.83,-17.715 l 13.929,3.215 V 4.282 Z"
       style="fill:#000000;fill-opacity:1;fill-rule:nonzero;stroke:none"
       transform="matrix(1.3333333,0,0,-1.3333333,159.19267,104.5644)"
       clip-path="url(#clipPath32)" />
    <path
       id="path33"
       d="m 0,0 c -6.671,-1.564 -10.385,2.15 -10.385,10.092 v 7.673 c -10e-4,5.534 1.075,10.336 6.011,11.9 C 9.958,34.206 19.94,28.028 19.94,18.327 19.939,9.261 13,3.054 0,0 m 48.31,33.159 c 0,35.261 -34.504,45.5 -76.705,30.424 V -50.244 l 17.985,4.153 v 28.497 c 0,4.349 3.201,3.592 6.158,0.953 2.077,-1.857 14.564,-13.953 23.288,-22.652 l 27.456,6.338 c 0,0 -23.938,24.451 -26.699,26.87 16.079,6.011 28.517,21.677 28.517,39.244"
       style="fill:#000000;fill-opacity:1;fill-rule:nonzero;stroke:none"
       transform="matrix(1.3333333,0,0,-1.3333333,37.86,171.58387)"
       clip-path="url(#clipPath34)" />
  </g>
</svg>
