<?xml version="1.0" encoding="UTF-8" standalone="no"?>
<!-- Created with Inkscape (http://www.inkscape.org/) -->

<svg
   version="1.1"
   id="svg1"
   width="666.66669"
   height="481.76001"
   viewBox="0 0 666.66669 481.76001"
   sodipodi:docname="Rhythm Paradise Advance (NLD) Logo (Wordmark).ai"
   xmlns:inkscape="http://www.inkscape.org/namespaces/inkscape"
   xmlns:sodipodi="http://sodipodi.sourceforge.net/DTD/sodipodi-0.dtd"
   xmlns="http://www.w3.org/2000/svg"
   xmlns:svg="http://www.w3.org/2000/svg">
  <defs
     id="defs1">
    <clipPath
       clipPathUnits="userSpaceOnUse"
       id="clipPath2">
      <path
         d="M 0,361.32 H 500 V 0 H 0 Z"
         transform="translate(-490.35721,-64.451102)"
         id="path2" />
    </clipPath>
    <clipPath
       clipPathUnits="userSpaceOnUse"
       id="clipPath4">
      <path
         d="M 0,361.32 H 500 V 0 H 0 Z"
         transform="translate(-495.14331,-85.9081)"
         id="path4" />
    </clipPath>
    <clipPath
       clipPathUnits="userSpaceOnUse"
       id="clipPath6">
      <path
         d="M 0,361.32 H 500 V 0 H 0 Z"
         transform="translate(-458.16291,-145.6786)"
         id="path6" />
    </clipPath>
    <clipPath
       clipPathUnits="userSpaceOnUse"
       id="clipPath8">
      <path
         d="M 0,361.32 H 500 V 0 H 0 Z"
         transform="translate(-426.40601,-206.3212)"
         id="path8" />
    </clipPath>
    <clipPath
       clipPathUnits="userSpaceOnUse"
       id="clipPath10">
      <path
         d="M 0,361.32 H 500 V 0 H 0 Z"
         transform="translate(-383.38551,-153.456)"
         id="path10" />
    </clipPath>
    <clipPath
       clipPathUnits="userSpaceOnUse"
       id="clipPath12">
      <path
         d="M 0,361.32 H 500 V 0 H 0 Z"
         transform="translate(-327.74001,-148.79481)"
         id="path12" />
    </clipPath>
    <clipPath
       clipPathUnits="userSpaceOnUse"
       id="clipPath14">
      <path
         d="M 0,361.32 H 500 V 0 H 0 Z"
         transform="translate(-286.40511,-137.38761)"
         id="path14" />
    </clipPath>
    <clipPath
       clipPathUnits="userSpaceOnUse"
       id="clipPath16">
      <path
         d="M 0,361.32 H 500 V 0 H 0 Z"
         transform="translate(-236.35041,-125.8368)"
         id="path16" />
    </clipPath>
    <clipPath
       clipPathUnits="userSpaceOnUse"
       id="clipPath18">
      <path
         d="M 0,361.32 H 500 V 0 H 0 Z"
         transform="translate(-171.7596,-131.6298)"
         id="path18" />
    </clipPath>
    <clipPath
       clipPathUnits="userSpaceOnUse"
       id="clipPath20">
      <path
         d="M 0,361.32 H 500 V 0 H 0 Z"
         transform="translate(-124.1536,-91.195202)"
         id="path20" />
    </clipPath>
    <clipPath
       clipPathUnits="userSpaceOnUse"
       id="clipPath22">
      <path
         d="M 0,361.32 H 500 V 0 H 0 Z"
         transform="translate(-62.383102,-105.59661)"
         id="path22" />
    </clipPath>
    <clipPath
       clipPathUnits="userSpaceOnUse"
       id="clipPath24">
      <path
         d="M 0,361.32 H 500 V 0 H 0 Z"
         transform="translate(-394.39241,-358.24461)"
         id="path24" />
    </clipPath>
    <clipPath
       clipPathUnits="userSpaceOnUse"
       id="clipPath26">
      <path
         d="M 0,361.32 H 500 V 0 H 0 Z"
         transform="translate(-301.32011,-310.43211)"
         id="path26" />
    </clipPath>
    <clipPath
       clipPathUnits="userSpaceOnUse"
       id="clipPath28">
      <path
         d="M 0,361.32 H 500 V 0 H 0 Z"
         transform="translate(-208.2478,-303.50241)"
         id="path28" />
    </clipPath>
    <clipPath
       clipPathUnits="userSpaceOnUse"
       id="clipPath30">
      <path
         d="M 0,361.32 H 500 V 0 H 0 Z"
         transform="translate(-201.6736,-281.19871)"
         id="path30" />
    </clipPath>
    <clipPath
       clipPathUnits="userSpaceOnUse"
       id="clipPath32">
      <path
         d="M 0,361.32 H 500 V 0 H 0 Z"
         transform="translate(-119.8611,-282.59031)"
         id="path32" />
    </clipPath>
    <clipPath
       clipPathUnits="userSpaceOnUse"
       id="clipPath34">
      <path
         d="M 0,361.32 H 500 V 0 H 0 Z"
         transform="translate(-28.505701,-232.1293)"
         id="path34" />
    </clipPath>
  </defs>
  <sodipodi:namedview
     id="namedview1"
     pagecolor="#ffffff"
     bordercolor="#000000"
     borderopacity="0.25"
     inkscape:showpageshadow="2"
     inkscape:pageopacity="0.0"
     inkscape:pagecheckerboard="0"
     inkscape:deskcolor="#d1d1d1">
    <inkscape:page
       x="0"
       y="0"
       inkscape:label="1"
       id="page1"
       width="666.66669"
       height="481.76001"
       margin="0"
       bleed="0" />
  </sodipodi:namedview>
  <g
     id="layer-MC0"
     inkscape:groupmode="layer"
     inkscape:label="Layer 1">
    <path
       id="path1"
       d="M 0,0 C 0,0.827 -0.263,1.479 -0.787,1.955 -1.312,2.43 -1.953,2.581 -2.709,2.406 l -18.528,-4.277 v -30.597 l 18.528,4.278 c 0.756,0.174 1.397,0.62 1.922,1.339 0.524,0.718 0.787,1.491 0.787,2.318 z m 9.643,-23.685 c 0,-1.378 -0.252,-2.757 -0.756,-4.137 -0.505,-1.38 -1.188,-2.651 -2.049,-3.816 C 5.977,-32.801 4.957,-33.806 3.781,-34.65 2.604,-35.498 1.345,-36.075 0,-36.386 L -30.816,-43.5 V 4.739 L 0,11.854 C 1.261,12.145 2.479,12.15 3.656,11.87 4.831,11.59 5.861,11.081 6.743,10.344 7.626,9.605 8.329,8.664 8.854,7.523 9.38,6.38 9.643,5.074 9.643,3.604 Z m -72.284,-18.273 26.468,6.111 v -8.889 l -36.11,-8.337 v 48.238 l 9.642,2.227 z m -17.835,35.232 v -48.239 l -11.595,-2.677 -19.914,30.204 v -34.801 l -9.579,-2.212 v 48.239 l 11.595,2.677 19.914,-30.203 v 34.8 z"
       style="fill:#000000;fill-opacity:1;fill-rule:nonzero;stroke:none"
       transform="matrix(1.3333333,0,0,-1.3333333,653.8096,395.8252)"
       clip-path="url(#clipPath2)" />
    <path
       id="path3"
       d="M 0,0 -41.935,-9.682 V 45.283 L 0,54.964 V 44.913 L -30.948,37.769 V 25.834 l 25.419,5.868 V 21.651 L -30.948,15.783 V 2.905 L 0,10.051 Z m -79.633,-18.385 c -1.435,-0.331 -2.812,-0.335 -4.129,-0.011 -1.317,0.325 -2.477,0.907 -3.482,1.749 -1.005,0.839 -1.808,1.911 -2.405,3.213 -0.6,1.301 -0.898,2.788 -0.898,4.465 v 31.094 c 0,1.57 0.287,3.141 0.861,4.714 0.575,1.571 1.352,3.02 2.334,4.347 0.981,1.326 2.129,2.466 3.447,3.426 1.316,0.957 2.74,1.614 4.272,1.968 l 22.763,5.255 c 1.435,0.331 2.811,0.335 4.129,0.011 1.315,-0.325 2.488,-0.906 3.518,-1.74 1.029,-0.835 1.842,-1.918 2.442,-3.245 0.597,-1.328 0.897,-2.803 0.897,-4.424 V 28.196 L -56.87,25.659 v 2.749 c 0,0.942 -0.3,1.67 -0.898,2.188 -0.599,0.515 -1.328,0.675 -2.19,0.475 l -16.587,-3.829 c -0.861,-0.199 -1.592,-0.709 -2.19,-1.526 -0.599,-0.82 -0.898,-1.699 -0.898,-2.642 V -4.879 c 0,-0.942 0.299,-1.685 0.898,-2.226 0.598,-0.543 1.329,-0.715 2.19,-0.516 l 16.587,3.829 c 0.862,0.199 1.591,0.694 2.19,1.487 0.598,0.792 0.898,1.66 0.898,2.603 v 2.748 l 10.986,2.536 v -4.24 c 0,-1.676 -0.3,-3.302 -0.897,-4.879 -0.6,-1.579 -1.413,-3.023 -2.442,-4.333 -1.03,-1.311 -2.203,-2.432 -3.518,-3.364 -1.318,-0.932 -2.694,-1.564 -4.129,-1.896 z M -96.65,32.65 v -54.963 l -13.213,-3.05 -22.691,34.414 v -39.654 l -10.914,-2.519 v 54.965 l 13.212,3.05 22.691,-34.414 v 39.652 z m -75.684,-30.192 0.072,0.017 7.539,-18.597 -15.222,-3.514 z m 26.712,-36.077 -21.255,50.057 -10.914,-2.52 -21.255,-59.871 10.915,2.52 4.38,12.868 22.763,5.254 4.451,-10.828 z m -51.27,43.128 -21.254,-59.871 -10.915,-2.52 -21.254,50.057 11.418,2.636 15.293,-37.143 15.295,44.205 z m -66.205,-56.743 c 0,-0.943 -0.299,-1.824 -0.897,-2.642 -0.599,-0.819 -1.328,-1.327 -2.191,-1.526 l -21.11,-4.874 v 34.863 l 21.11,4.874 c 0.863,0.199 1.592,0.026 2.191,-0.516 0.598,-0.543 0.897,-1.284 0.897,-2.226 z m 10.987,32.059 c 0,1.675 -0.3,3.163 -0.898,4.465 -0.598,1.301 -1.4,2.372 -2.405,3.214 -1.006,0.84 -2.179,1.421 -3.519,1.739 -1.34,0.32 -2.728,0.313 -4.165,-0.018 l -35.112,-8.107 v -54.965 l 35.112,8.107 c 1.532,0.353 2.968,1.011 4.309,1.976 1.34,0.963 2.501,2.109 3.482,3.435 0.981,1.325 1.76,2.773 2.334,4.347 0.575,1.572 0.862,3.143 0.862,4.713 z m -74.966,-18.092 0.072,0.017 7.54,-18.596 -15.223,-3.514 z m 26.712,-36.077 -21.254,50.058 -10.915,-2.521 -21.254,-59.871 10.914,2.521 4.38,12.867 22.763,5.255 4.452,-10.828 z"
       style="fill:#000000;fill-opacity:1;fill-rule:nonzero;stroke:none"
       transform="matrix(1.3333333,0,0,-1.3333333,660.19107,367.21587)"
       clip-path="url(#clipPath4)" />
    <path
       id="path5"
       d="M 0,0 V 9.106 L -2.289,-0.529 -4.769,-1.102 -7.004,7.49 V -1.617 L -9.348,-2.158 V 8.743 l 3.662,0.846 2.208,-8.138 0.027,0.007 2.154,9.145 3.614,0.834 V 0.534 Z m -16.923,-3.907 v 8.969 l -3.77,-0.872 v 1.934 l 9.973,2.303 V 6.493 l -3.634,-0.839 v -8.968 z"
       style="fill:#000000;fill-opacity:1;fill-rule:nonzero;stroke:none"
       transform="matrix(1.3333333,0,0,-1.3333333,610.88387,287.52187)"
       clip-path="url(#clipPath6)" />
    <path
       id="path7"
       d="m 0,0 c 5.274,1.987 16.313,4.955 25.586,6.967 v 28.704 l -46.34,-10.698 v -76.72 l 46.34,10.698 v 12.781 c -6.084,-1.594 -18.692,-3.966 -24.212,-4.899 -6.722,-1.128 -7.679,7.434 -0.246,9.887 4.268,1.398 12.095,3.262 18.203,4.979 v 9.842 C 13.763,-9.588 6.23,-10.893 0.294,-11.727 -7.065,-12.781 -8.341,-3.14 0,0"
       style="fill:#000000;fill-opacity:1;fill-rule:nonzero;stroke:none"
       transform="matrix(1.3333333,0,0,-1.3333333,568.54133,206.66507)"
       clip-path="url(#clipPath8)" />
    <path
       id="path9"
       d="m 0,0 c -0.271,2.55 -4.681,3.127 -11.549,4.773 -12.009,2.982 -19.441,10.056 -18.681,22.484 0.807,13.414 7.599,22.77 43.542,28.873 V 28.227 C 0.342,26.604 -6.819,24.178 -9.856,21.693 c -3.24,-2.629 -3.05,-6.932 1.625,-8.494 C -6.2,12.521 -0.195,10.515 3.434,9.298 10.398,6.977 13.806,3.417 14.517,-2.883 16.522,-20.655 -15.645,-25.316 -28.907,-27.264 v 15.791 C -13.019,-8.271 0.613,-5.466 0,0"
       style="fill:#000000;fill-opacity:1;fill-rule:nonzero;stroke:none"
       transform="matrix(1.3333333,0,0,-1.3333333,511.18067,277.152)"
       clip-path="url(#clipPath10)" />
    <path
       id="path11"
       d="m 0,0 v 68.394 l 17.295,3.993 V 3.993 Z"
       style="fill:#000000;fill-opacity:1;fill-rule:nonzero;stroke:none"
       transform="matrix(1.3333333,0,0,-1.3333333,436.98667,283.36693)"
       clip-path="url(#clipPath12)" />
    <path
       id="path13"
       d="m 0,0 c -4.76,-1.101 -6.82,0.491 -6.82,6.06 v 17.564 c 0,4.048 -0.209,7.281 3.631,8.365 C 5.151,34.345 14.474,29.88 15.356,20.803 16.387,10.255 10.519,2.429 0,0 m -18.546,58.557 v -74.6 C 17.516,-10.769 33.215,3.165 32.822,30.86 32.479,54.877 8.635,68.075 -18.546,58.557"
       style="fill:#000000;fill-opacity:1;fill-rule:nonzero;stroke:none"
       transform="matrix(1.3333333,0,0,-1.3333333,381.87347,298.57653)"
       clip-path="url(#clipPath14)" />
    <path
       id="path15"
       d="m 0,0 -8.709,-2.01 c -2.188,-0.506 -3.435,0.858 -3.165,3.9 0.246,2.845 1.521,8.88 2.012,10.94 1.03,4.269 3.189,6.355 5.667,6.722 3.999,0.637 5.936,-2.281 7.482,-9.641 C 3.435,9.225 3.852,7.728 4.022,5.716 4.366,1.619 3.093,0.715 0,0 M 15.259,32.701 C 10.695,47.665 7.002,51.358 -2.085,49.26 -10.097,47.41 -14.651,43.239 -18.473,28.604 -22.226,14.229 -26.375,-6.315 -29.711,-29.571 l 13.226,3.053 c 0.245,1.84 0.686,3.998 1.324,7.286 0.687,3.311 2.477,5.679 6.035,6.501 l 10.303,2.378 c 2.755,0.636 5.274,-1.544 6.158,-5.224 0.588,-2.453 1.349,-5.933 1.814,-8.263 l 17.516,4.043 C 24.531,-2.649 19.797,17.835 15.259,32.701"
       style="fill:#000000;fill-opacity:1;fill-rule:nonzero;stroke:none"
       transform="matrix(1.3333333,0,0,-1.3333333,315.13387,313.9776)"
       clip-path="url(#clipPath16)" />
    <path
       id="path17"
       d="m 0,0 c -4.493,-1.054 -6.995,1.448 -6.995,6.797 v 5.168 c 0,3.727 0.724,6.962 4.049,8.015 C 6.707,23.039 13.43,18.878 13.43,12.344 13.43,6.237 8.756,2.058 0,0 m 32.539,22.334 c 0,23.75 -23.24,30.645 -51.664,20.491 v -74.718 l 12.113,2.796 v 17.246 c 10e-4,2.93 2.157,2.42 4.148,0.643 1.399,-1.251 9.809,-9.398 15.685,-15.258 l 18.492,4.27 c 0,0 -16.122,16.468 -17.982,18.097 10.83,4.049 19.208,14.601 19.208,26.433"
       style="fill:#000000;fill-opacity:1;fill-rule:nonzero;stroke:none"
       transform="matrix(1.3333333,0,0,-1.3333333,229.0128,306.2536)"
       clip-path="url(#clipPath18)" />
    <path
       id="path19"
       d="m 0,0 -8.709,-2.01 c -2.188,-0.506 -3.434,0.858 -3.165,3.9 0.246,2.845 1.521,8.88 2.012,10.94 1.03,4.269 3.189,6.355 5.667,6.722 3.999,0.637 5.937,-2.281 7.482,-9.641 C 3.435,9.225 3.852,7.728 4.023,5.716 4.367,1.619 3.093,0.715 0,0 M 15.258,32.701 C 10.696,47.665 7.002,51.358 -2.085,49.26 -10.097,47.41 -14.651,43.239 -18.472,28.604 -22.226,14.229 -26.375,-6.315 -29.711,-29.571 l 13.226,3.053 c 0.245,1.84 0.687,3.998 1.324,7.286 0.687,3.311 2.478,5.679 6.035,6.501 l 10.303,2.378 c 2.755,0.636 5.275,-1.544 6.158,-5.224 0.588,-2.453 1.349,-5.933 1.815,-8.264 l 17.516,4.044 C 24.531,-2.649 19.797,17.835 15.258,32.701"
       style="fill:#000000;fill-opacity:1;fill-rule:nonzero;stroke:none"
       transform="matrix(1.3333333,0,0,-1.3333333,165.53813,360.1664)"
       clip-path="url(#clipPath20)" />
    <path
       id="path21"
       d="m 0,0 c -5.446,-1.331 -8.586,0.099 -8.586,4.661 v 16.511 c 0,4.662 2.576,7.604 7.703,8.266 C 9.396,30.764 14.033,24.753 14.033,16.928 14.033,10.402 10.181,2.489 0,0 M -34.173,53.26 V -50.144 l 25.611,5.914 v 24.286 c 0,4.44 1.104,6.648 3.754,7.114 23.869,4.199 40.871,16.199 40.871,40.821 0,27.037 -29.047,41.582 -70.236,25.269"
       style="fill:#000000;fill-opacity:1;fill-rule:nonzero;stroke:none"
       transform="matrix(1.3333333,0,0,-1.3333333,83.177467,340.96453)"
       clip-path="url(#clipPath22)" />
    <path
       id="path23"
       d="m 0,0 c -7.064,-23.33 -11.063,-34.737 -14.547,-44.353 -5.936,-16.362 -12.094,-9.935 -14.964,-5.372 -3.337,5.348 -7.875,15.749 -15.749,34.81 l -19.454,-4.491 v -91.572 l 16.142,3.727 c -0.122,14.596 0.123,24.506 0.908,28.358 0.711,3.459 2.796,3.949 4.906,0.515 1.741,-2.821 4.489,-8.93 9.959,-21.49 l 10.817,2.497 c 5.961,16.019 9.176,24.096 11.459,28.045 1.839,3.214 5.347,5.471 6.402,-0.466 0.809,-4.489 0.736,-16.668 0.711,-31.583 l 16.731,3.862 V 3.075 Z"
       style="fill:#000000;fill-opacity:1;fill-rule:nonzero;stroke:none"
       transform="matrix(1.3333333,0,0,-1.3333333,525.85653,4.1005333)"
       clip-path="url(#clipPath24)" />
    <path
       id="path25"
       d="m 0,0 c -0.073,-12.511 -0.049,-23.918 -0.589,-28.088 -1.251,-9.96 -18.275,-14.45 -19.109,-5.275 -0.393,4.318 -0.737,10.022 -0.737,22.754 l -13.762,-3.178 v -83.897 l 17.54,4.049 c 0,13.321 0.001,19.109 0.221,23.671 0.614,12.021 18.668,14.744 20.239,4.293 0.711,-4.759 0.834,-7.04 0.834,-17.785 l 13.982,3.228 V 4.298 Z"
       style="fill:#000000;fill-opacity:1;fill-rule:nonzero;stroke:none"
       transform="matrix(1.3333333,0,0,-1.3333333,401.76013,67.850533)"
       clip-path="url(#clipPath26)" />
    <path
       id="path27"
       d="m 0,0 v -33.77 l 9.788,2.26 c 5.937,1.37 8.39,0.597 8.39,-9.911 v -43.377 l 16.068,3.71 v 39.765 c 0,17.663 1.658,22.121 10.401,24.139 l 7.998,1.847 v 27.491 z"
       style="fill:#000000;fill-opacity:1;fill-rule:nonzero;stroke:none"
       transform="matrix(1.3333333,0,0,-1.3333333,277.66373,77.090133)"
       clip-path="url(#clipPath28)" />
    <path
       id="path29"
       d="m 0,0 -15.014,-3.466 c 0,0 0.221,-15.455 -0.367,-26.837 -0.859,-16.657 -17.639,-20.239 -18.988,-4.391 -0.687,8.316 -1.006,24.891 -1.006,24.891 l -18.668,-4.31 v -13.516 c 0,-32.259 20.974,-36.233 31.94,-27.034 0.662,0.564 1.325,0.908 1.864,0.662 0.614,-0.27 0.589,-0.932 0.343,-2.159 -0.662,-3.213 -5.421,-9.567 -15.037,-12.142 -7.335,-1.963 -14.523,-3.201 -18.104,-3.765 v -22.386 c 16.141,2.085 34.834,6.697 43.543,20.091 4.538,6.992 6.918,14.376 8.096,25.317 C 0.441,-31.824 0,0 0,0"
       style="fill:#000000;fill-opacity:1;fill-rule:nonzero;stroke:none"
       transform="matrix(1.3333333,0,0,-1.3333333,268.89813,106.8284)"
       clip-path="url(#clipPath30)" />
    <path
       id="path31"
       d="m 0,0 c -0.074,-12.511 -0.049,-23.918 -0.589,-28.088 -1.251,-9.96 -18.276,-14.45 -19.11,-5.275 -0.392,4.318 -0.736,10.022 -0.736,22.754 l -13.762,-3.178 v -83.897 l 17.54,4.049 c 0,13.321 0,19.108 0.22,23.671 0.614,12.021 18.669,14.744 20.239,4.293 0.712,-4.759 0.834,-7.04 0.834,-17.785 l 13.983,3.228 V 4.298 Z"
       style="fill:#000000;fill-opacity:1;fill-rule:nonzero;stroke:none"
       transform="matrix(1.3333333,0,0,-1.3333333,159.8148,104.97293)"
       clip-path="url(#clipPath32)" />
    <path
       id="path33"
       d="m 0,0 c -6.697,-1.57 -10.426,2.159 -10.426,10.131 v 7.703 c 0,5.556 1.08,10.377 6.035,11.947 C 9.997,34.339 20.018,28.137 20.018,18.398 20.018,9.297 13.051,3.066 0,0 m 48.499,33.289 c 0,35.399 -34.639,45.677 -77.005,30.542 V -50.44 l 18.055,4.169 0.001,28.608 c 0,4.367 3.213,3.606 6.181,0.957 2.086,-1.864 14.621,-14.007 23.379,-22.741 l 27.563,6.364 c 0,0 -24.03,24.546 -26.802,26.975 16.141,6.034 28.628,21.761 28.628,39.397"
       style="fill:#000000;fill-opacity:1;fill-rule:nonzero;stroke:none"
       transform="matrix(1.3333333,0,0,-1.3333333,38.0076,172.25427)"
       clip-path="url(#clipPath34)" />
  </g>
</svg>
