<?xml version="1.0" encoding="UTF-8" standalone="no"?>
<!-- Created with Inkscape (http://www.inkscape.org/) -->

<svg
   version="1.1"
   id="svg1"
   width="666.66669"
   height="202.95332"
   viewBox="0 0 666.66669 202.95332"
   sodipodi:docname="Rhythm Paradise Advance Logo (Horizontial) (Alt).ai"
   xmlns:inkscape="http://www.inkscape.org/namespaces/inkscape"
   xmlns:sodipodi="http://sodipodi.sourceforge.net/DTD/sodipodi-0.dtd"
   xmlns="http://www.w3.org/2000/svg"
   xmlns:svg="http://www.w3.org/2000/svg">
  <defs
     id="defs1">
    <clipPath
       clipPathUnits="userSpaceOnUse"
       id="clipPath2">
      <path
         d="M 0,152.215 H 500 V 0 H 0 Z"
         transform="translate(-437.24061,-138.0838)"
         id="path2" />
    </clipPath>
    <clipPath
       clipPathUnits="userSpaceOnUse"
       id="clipPath4">
      <path
         d="M 0,152.215 H 500 V 0 H 0 Z"
         transform="translate(-437.24061,-131.1436)"
         id="path4" />
    </clipPath>
    <clipPath
       clipPathUnits="userSpaceOnUse"
       id="clipPath6">
      <path
         d="M 0,152.215 H 500 V 0 H 0 Z"
         transform="translate(-437.24061,-125.0843)"
         id="path6" />
    </clipPath>
    <clipPath
       clipPathUnits="userSpaceOnUse"
       id="clipPath8">
      <path
         d="M 0,152.215 H 500 V 0 H 0 Z"
         transform="translate(-487.14801,-26.700003)"
         id="path8" />
    </clipPath>
    <clipPath
       clipPathUnits="userSpaceOnUse"
       id="clipPath10">
      <path
         d="M 0,152.215 H 500 V 0 H 0 Z"
         transform="translate(-481.97811,-5.3058026)"
         id="path10" />
    </clipPath>
    <clipPath
       clipPathUnits="userSpaceOnUse"
       id="clipPath12">
      <path
         d="M 333.172,37.982 345.807,5.306 h 6.489 l 12.635,32.675 h -6.788 l -9.092,-24.18 -9.092,24.181 z m -28.473,0 V 5.306 h 20.874 c 0.911,0 1.765,0.195 2.562,0.585 v 0 c 0.796,0.387 1.486,0.909 2.071,1.563 v 0 c 0.582,0.653 1.045,1.407 1.386,2.263 v 0 c 0.342,0.856 0.512,1.751 0.512,2.685 v 0 18.484 c 0,0.996 -0.178,1.922 -0.533,2.778 v 0 c -0.356,0.856 -0.833,1.602 -1.43,2.241 v 0 c -0.598,0.637 -1.295,1.143 -2.092,1.516 v 0 c -0.796,0.374 -1.622,0.561 -2.476,0.561 v 0 z m 6.49,-5.975 h 12.549 c 0.512,0 0.946,-0.203 1.302,-0.607 v 0 c 0.356,-0.405 0.533,-0.887 0.533,-1.447 v 0 -16.618 c 0,-0.56 -0.177,-1.043 -0.533,-1.447 v 0 c -0.356,-0.405 -0.79,-0.607 -1.302,-0.607 v 0 H 311.189 Z M 284.296,37.982 271.66,5.306 h 6.489 l 2.603,7.049 h 13.532 l 2.647,-7.049 h 6.488 l -12.635,32.676 z m 3.243,-7.562 h 0.043 l 4.482,-12.09 h -9.049 z m 169.51,7.561 V 5.305 h 24.929 v 5.976 H 463.58 v 7.655 h 15.111 v 5.975 H 463.58 v 7.095 h 18.398 v 5.975 z m -22.41,0 c -0.912,0 -1.758,-0.195 -2.541,-0.583 v 0 c -0.783,-0.39 -1.465,-0.911 -2.048,-1.565 v 0 c -0.584,-0.653 -1.046,-1.408 -1.388,-2.263 v 0 c -0.341,-0.857 -0.512,-1.75 -0.512,-2.684 v 0 -18.485 c 0,-0.996 0.177,-1.921 0.534,-2.777 v 0 c 0.355,-0.856 0.832,-1.603 1.43,-2.24 v 0 c 0.597,-0.639 1.287,-1.144 2.07,-1.518 v 0 c 0.783,-0.373 1.601,-0.56 2.455,-0.56 v 0 h 13.531 c 0.853,0 1.672,0.187 2.455,0.56 v 0 c 0.782,0.374 1.479,0.879 2.091,1.517 v 0 c 0.612,0.638 1.095,1.385 1.452,2.241 v 0 c 0.355,0.856 0.534,1.781 0.534,2.777 v 0 2.521 h -6.532 v -1.634 c 0,-0.56 -0.178,-1.035 -0.533,-1.423 v 0 c -0.357,-0.39 -0.79,-0.584 -1.303,-0.584 v 0 h -9.86 c -0.512,0 -0.947,0.202 -1.302,0.607 v 0 c -0.356,0.403 -0.533,0.887 -0.533,1.446 v 0 16.618 c 0,0.561 0.177,1.042 0.533,1.447 v 0 c 0.355,0.404 0.79,0.607 1.302,0.607 v 0 h 9.86 c 0.513,0 0.946,-0.195 1.303,-0.583 v 0 c 0.355,-0.39 0.533,-0.864 0.533,-1.424 v 0 -1.634 h 6.532 v 2.52 c 0,0.965 -0.179,1.883 -0.534,2.754 v 0 c -0.357,0.871 -0.84,1.627 -1.452,2.265 v 0 c -0.612,0.637 -1.309,1.144 -2.091,1.517 v 0 c -0.783,0.373 -1.602,0.56 -2.455,0.56 v 0 z m -16.606,0 V 14.408 l -13.488,23.573 h -7.856 V 5.306 h 6.489 v 23.573 l 13.49,-23.573 h 7.854 v 32.675 z m -41.748,0 L 363.65,5.306 h 6.488 l 2.604,7.049 13.533,-0.001 2.646,-7.048 h 6.489 l -12.636,32.675 z m 3.245,-7.562 h 0.042 l 4.482,-12.09 h -9.049 z"
         transform="translate(-488.22231,-59.800001)"
         id="path12" />
    </clipPath>
    <clipPath
       clipPathUnits="userSpaceOnUse"
       id="clipPath14">
      <path
         d="M 333.172,37.982 345.807,5.306 h 6.489 l 12.635,32.675 h -6.788 l -9.092,-24.18 -9.092,24.181 z m -28.473,0 V 5.306 h 20.874 c 0.911,0 1.765,0.195 2.562,0.585 v 0 c 0.796,0.387 1.486,0.909 2.071,1.563 v 0 c 0.582,0.653 1.045,1.407 1.386,2.263 v 0 c 0.342,0.856 0.512,1.751 0.512,2.685 v 0 18.484 c 0,0.996 -0.178,1.922 -0.533,2.778 v 0 c -0.356,0.856 -0.833,1.602 -1.43,2.241 v 0 c -0.598,0.637 -1.295,1.143 -2.092,1.516 v 0 c -0.796,0.374 -1.622,0.561 -2.476,0.561 v 0 z m 6.49,-5.975 h 12.549 c 0.512,0 0.946,-0.203 1.302,-0.607 v 0 c 0.356,-0.405 0.533,-0.887 0.533,-1.447 v 0 -16.618 c 0,-0.56 -0.177,-1.043 -0.533,-1.447 v 0 c -0.356,-0.405 -0.79,-0.607 -1.302,-0.607 v 0 H 311.189 Z M 284.296,37.982 271.66,5.306 h 6.489 l 2.603,7.049 h 13.532 l 2.647,-7.049 h 6.488 l -12.635,32.676 z m 3.243,-7.562 h 0.043 l 4.482,-12.09 h -9.049 z m 169.51,7.561 V 5.305 h 24.929 v 5.976 H 463.58 v 7.655 h 15.111 v 5.975 H 463.58 v 7.095 h 18.398 v 5.975 z m -22.41,0 c -0.912,0 -1.758,-0.195 -2.541,-0.583 v 0 c -0.783,-0.39 -1.465,-0.911 -2.048,-1.565 v 0 c -0.584,-0.653 -1.046,-1.408 -1.388,-2.263 v 0 c -0.341,-0.857 -0.512,-1.75 -0.512,-2.684 v 0 -18.485 c 0,-0.996 0.177,-1.921 0.534,-2.777 v 0 c 0.355,-0.856 0.832,-1.603 1.43,-2.24 v 0 c 0.597,-0.639 1.287,-1.144 2.07,-1.518 v 0 c 0.783,-0.373 1.601,-0.56 2.455,-0.56 v 0 h 13.531 c 0.853,0 1.672,0.187 2.455,0.56 v 0 c 0.782,0.374 1.479,0.879 2.091,1.517 v 0 c 0.612,0.638 1.095,1.385 1.452,2.241 v 0 c 0.355,0.856 0.534,1.781 0.534,2.777 v 0 2.521 h -6.532 v -1.634 c 0,-0.56 -0.178,-1.035 -0.533,-1.423 v 0 c -0.357,-0.39 -0.79,-0.584 -1.303,-0.584 v 0 h -9.86 c -0.512,0 -0.947,0.202 -1.302,0.607 v 0 c -0.356,0.403 -0.533,0.887 -0.533,1.446 v 0 16.618 c 0,0.561 0.177,1.042 0.533,1.447 v 0 c 0.355,0.404 0.79,0.607 1.302,0.607 v 0 h 9.86 c 0.513,0 0.946,-0.195 1.303,-0.583 v 0 c 0.355,-0.39 0.533,-0.864 0.533,-1.424 v 0 -1.634 h 6.532 v 2.52 c 0,0.965 -0.179,1.883 -0.534,2.754 v 0 c -0.357,0.871 -0.84,1.627 -1.452,2.265 v 0 c -0.612,0.637 -1.309,1.144 -2.091,1.517 v 0 c -0.783,0.373 -1.602,0.56 -2.455,0.56 v 0 z m -16.606,0 V 14.408 l -13.488,23.573 h -7.856 V 5.306 h 6.489 v 23.573 l 13.49,-23.573 h 7.854 v 32.675 z m -41.748,0 L 363.65,5.306 h 6.488 l 2.604,7.049 13.533,-0.001 2.646,-7.048 h 6.489 l -12.636,32.675 z m 3.245,-7.562 h 0.042 l 4.482,-12.09 h -9.049 z"
         transform="translate(-488.22231,-59.800001)"
         id="path14" />
    </clipPath>
    <clipPath
       clipPathUnits="userSpaceOnUse"
       id="clipPath16">
      <path
         d="M 333.172,37.982 345.807,5.306 h 6.489 l 12.635,32.675 h -6.788 l -9.092,-24.18 -9.092,24.181 z m -28.473,0 V 5.306 h 20.874 c 0.911,0 1.765,0.195 2.562,0.585 v 0 c 0.796,0.387 1.486,0.909 2.071,1.563 v 0 c 0.582,0.653 1.045,1.407 1.386,2.263 v 0 c 0.342,0.856 0.512,1.751 0.512,2.685 v 0 18.484 c 0,0.996 -0.178,1.922 -0.533,2.778 v 0 c -0.356,0.856 -0.833,1.602 -1.43,2.241 v 0 c -0.598,0.637 -1.295,1.143 -2.092,1.516 v 0 c -0.796,0.374 -1.622,0.561 -2.476,0.561 v 0 z m 6.49,-5.975 h 12.549 c 0.512,0 0.946,-0.203 1.302,-0.607 v 0 c 0.356,-0.405 0.533,-0.887 0.533,-1.447 v 0 -16.618 c 0,-0.56 -0.177,-1.043 -0.533,-1.447 v 0 c -0.356,-0.405 -0.79,-0.607 -1.302,-0.607 v 0 H 311.189 Z M 284.296,37.982 271.66,5.306 h 6.489 l 2.603,7.049 h 13.532 l 2.647,-7.049 h 6.488 l -12.635,32.676 z m 3.243,-7.562 h 0.043 l 4.482,-12.09 h -9.049 z m 169.51,7.561 V 5.305 h 24.929 v 5.976 H 463.58 v 7.655 h 15.111 v 5.975 H 463.58 v 7.095 h 18.398 v 5.975 z m -22.41,0 c -0.912,0 -1.758,-0.195 -2.541,-0.583 v 0 c -0.783,-0.39 -1.465,-0.911 -2.048,-1.565 v 0 c -0.584,-0.653 -1.046,-1.408 -1.388,-2.263 v 0 c -0.341,-0.857 -0.512,-1.75 -0.512,-2.684 v 0 -18.485 c 0,-0.996 0.177,-1.921 0.534,-2.777 v 0 c 0.355,-0.856 0.832,-1.603 1.43,-2.24 v 0 c 0.597,-0.639 1.287,-1.144 2.07,-1.518 v 0 c 0.783,-0.373 1.601,-0.56 2.455,-0.56 v 0 h 13.531 c 0.853,0 1.672,0.187 2.455,0.56 v 0 c 0.782,0.374 1.479,0.879 2.091,1.517 v 0 c 0.612,0.638 1.095,1.385 1.452,2.241 v 0 c 0.355,0.856 0.534,1.781 0.534,2.777 v 0 2.521 h -6.532 v -1.634 c 0,-0.56 -0.178,-1.035 -0.533,-1.423 v 0 c -0.357,-0.39 -0.79,-0.584 -1.303,-0.584 v 0 h -9.86 c -0.512,0 -0.947,0.202 -1.302,0.607 v 0 c -0.356,0.403 -0.533,0.887 -0.533,1.446 v 0 16.618 c 0,0.561 0.177,1.042 0.533,1.447 v 0 c 0.355,0.404 0.79,0.607 1.302,0.607 v 0 h 9.86 c 0.513,0 0.946,-0.195 1.303,-0.583 v 0 c 0.355,-0.39 0.533,-0.864 0.533,-1.424 v 0 -1.634 h 6.532 v 2.52 c 0,0.965 -0.179,1.883 -0.534,2.754 v 0 c -0.357,0.871 -0.84,1.627 -1.452,2.265 v 0 c -0.612,0.637 -1.309,1.144 -2.091,1.517 v 0 c -0.783,0.373 -1.602,0.56 -2.455,0.56 v 0 z m -16.606,0 V 14.408 l -13.488,23.573 h -7.856 V 5.306 h 6.489 v 23.573 l 13.49,-23.573 h 7.854 v 32.675 z m -41.748,0 L 363.65,5.306 h 6.488 l 2.604,7.049 13.533,-0.001 2.646,-7.048 h 6.489 l -12.636,32.675 z m 3.245,-7.562 h 0.042 l 4.482,-12.09 h -9.049 z"
         transform="translate(-488.22231,-59.800001)"
         id="path16" />
    </clipPath>
    <clipPath
       clipPathUnits="userSpaceOnUse"
       id="clipPath18">
      <path
         d="M 333.172,37.982 345.807,5.306 h 6.489 l 12.635,32.675 h -6.788 l -9.092,-24.18 -9.092,24.181 z m -28.473,0 V 5.306 h 20.874 c 0.911,0 1.765,0.195 2.562,0.585 v 0 c 0.796,0.387 1.486,0.909 2.071,1.563 v 0 c 0.582,0.653 1.045,1.407 1.386,2.263 v 0 c 0.342,0.856 0.512,1.751 0.512,2.685 v 0 18.484 c 0,0.996 -0.178,1.922 -0.533,2.778 v 0 c -0.356,0.856 -0.833,1.602 -1.43,2.241 v 0 c -0.598,0.637 -1.295,1.143 -2.092,1.516 v 0 c -0.796,0.374 -1.622,0.561 -2.476,0.561 v 0 z m 6.49,-5.975 h 12.549 c 0.512,0 0.946,-0.203 1.302,-0.607 v 0 c 0.356,-0.405 0.533,-0.887 0.533,-1.447 v 0 -16.618 c 0,-0.56 -0.177,-1.043 -0.533,-1.447 v 0 c -0.356,-0.405 -0.79,-0.607 -1.302,-0.607 v 0 H 311.189 Z M 284.296,37.982 271.66,5.306 h 6.489 l 2.603,7.049 h 13.532 l 2.647,-7.049 h 6.488 l -12.635,32.676 z m 3.243,-7.562 h 0.043 l 4.482,-12.09 h -9.049 z m 169.51,7.561 V 5.305 h 24.929 v 5.976 H 463.58 v 7.655 h 15.111 v 5.975 H 463.58 v 7.095 h 18.398 v 5.975 z m -22.41,0 c -0.912,0 -1.758,-0.195 -2.541,-0.583 v 0 c -0.783,-0.39 -1.465,-0.911 -2.048,-1.565 v 0 c -0.584,-0.653 -1.046,-1.408 -1.388,-2.263 v 0 c -0.341,-0.857 -0.512,-1.75 -0.512,-2.684 v 0 -18.485 c 0,-0.996 0.177,-1.921 0.534,-2.777 v 0 c 0.355,-0.856 0.832,-1.603 1.43,-2.24 v 0 c 0.597,-0.639 1.287,-1.144 2.07,-1.518 v 0 c 0.783,-0.373 1.601,-0.56 2.455,-0.56 v 0 h 13.531 c 0.853,0 1.672,0.187 2.455,0.56 v 0 c 0.782,0.374 1.479,0.879 2.091,1.517 v 0 c 0.612,0.638 1.095,1.385 1.452,2.241 v 0 c 0.355,0.856 0.534,1.781 0.534,2.777 v 0 2.521 h -6.532 v -1.634 c 0,-0.56 -0.178,-1.035 -0.533,-1.423 v 0 c -0.357,-0.39 -0.79,-0.584 -1.303,-0.584 v 0 h -9.86 c -0.512,0 -0.947,0.202 -1.302,0.607 v 0 c -0.356,0.403 -0.533,0.887 -0.533,1.446 v 0 16.618 c 0,0.561 0.177,1.042 0.533,1.447 v 0 c 0.355,0.404 0.79,0.607 1.302,0.607 v 0 h 9.86 c 0.513,0 0.946,-0.195 1.303,-0.583 v 0 c 0.355,-0.39 0.533,-0.864 0.533,-1.424 v 0 -1.634 h 6.532 v 2.52 c 0,0.965 -0.179,1.883 -0.534,2.754 v 0 c -0.357,0.871 -0.84,1.627 -1.452,2.265 v 0 c -0.612,0.637 -1.309,1.144 -2.091,1.517 v 0 c -0.783,0.373 -1.602,0.56 -2.455,0.56 v 0 z m -16.606,0 V 14.408 l -13.488,23.573 h -7.856 V 5.306 h 6.489 v 23.573 l 13.49,-23.573 h 7.854 v 32.675 z m -41.748,0 L 363.65,5.306 h 6.488 l 2.604,7.049 13.533,-0.001 2.646,-7.048 h 6.489 l -12.636,32.675 z m 3.245,-7.562 h 0.042 l 4.482,-12.09 h -9.049 z"
         transform="translate(-488.22231,-59.800001)"
         id="path18" />
    </clipPath>
    <clipPath
       clipPathUnits="userSpaceOnUse"
       id="clipPath20">
      <path
         d="M 0,152.215 H 500 V 0 H 0 Z"
         transform="translate(-467.14961,-48.429199)"
         id="path20" />
    </clipPath>
    <clipPath
       clipPathUnits="userSpaceOnUse"
       id="clipPath22">
      <path
         d="M 0,152.215 H 500 V 0 H 0 Z"
         transform="translate(-450.98521,-74.911804)"
         id="path22" />
    </clipPath>
    <clipPath
       clipPathUnits="userSpaceOnUse"
       id="clipPath24">
      <path
         d="M 0,152.215 H 500 V 0 H 0 Z"
         transform="translate(-432.45601,-69.427099)"
         id="path24" />
    </clipPath>
    <clipPath
       clipPathUnits="userSpaceOnUse"
       id="clipPath26">
      <path
         d="M 0,152.215 H 500 V 0 H 0 Z"
         id="path26" />
    </clipPath>
    <clipPath
       clipPathUnits="userSpaceOnUse"
       id="clipPath28">
      <path
         d="M 0,152.215 H 500 V 0 H 0 Z"
         transform="translate(-393.42251,-74.886304)"
         id="path28" />
    </clipPath>
    <clipPath
       clipPathUnits="userSpaceOnUse"
       id="clipPath30">
      <path
         d="M 0,152.215 H 500 V 0 H 0 Z"
         transform="translate(-364.53541,-64.064299)"
         id="path30" />
    </clipPath>
    <clipPath
       clipPathUnits="userSpaceOnUse"
       id="clipPath32">
      <path
         d="M 0,152.215 H 500 V 0 H 0 Z"
         transform="translate(-340.43091,-82.613902)"
         id="path32" />
    </clipPath>
    <clipPath
       clipPathUnits="userSpaceOnUse"
       id="clipPath34">
      <path
         d="M 0,152.215 H 500 V 0 H 0 Z"
         transform="translate(-313.16141,-65.072704)"
         id="path34" />
    </clipPath>
    <clipPath
       clipPathUnits="userSpaceOnUse"
       id="clipPath36">
      <path
         d="M 0,152.215 H 500 V 0 H 0 Z"
         transform="translate(-291.088,-82.185202)"
         id="path36" />
    </clipPath>
    <clipPath
       clipPathUnits="userSpaceOnUse"
       id="clipPath38">
      <path
         d="M 0,152.215 H 500 V 0 H 0 Z"
         transform="translate(-248.68221,-102.7779)"
         id="path38" />
    </clipPath>
    <clipPath
       clipPathUnits="userSpaceOnUse"
       id="clipPath40">
      <path
         d="M 0,152.215 H 500 V 0 H 0 Z"
         transform="translate(-199.7031,-96.946602)"
         id="path40" />
    </clipPath>
    <clipPath
       clipPathUnits="userSpaceOnUse"
       id="clipPath42">
      <path
         d="M 0,152.215 H 500 V 0 H 0 Z"
         transform="translate(-148.80291,-105.5868)"
         id="path42" />
    </clipPath>
    <clipPath
       clipPathUnits="userSpaceOnUse"
       id="clipPath44">
      <path
         d="M 0,152.215 H 500 V 0 H 0 Z"
         transform="translate(-137.5918,-96.122802)"
         id="path44" />
    </clipPath>
    <clipPath
       clipPathUnits="userSpaceOnUse"
       id="clipPath46">
      <path
         d="M 0,152.215 H 500 V 0 H 0 Z"
         transform="translate(-102.64881,-101.1834)"
         id="path46" />
    </clipPath>
    <clipPath
       clipPathUnits="userSpaceOnUse"
       id="clipPath48">
      <path
         d="M 0,152.215 H 500 V 0 H 0 Z"
         transform="translate(-57.431902,-68.852104)"
         id="path48" />
    </clipPath>
  </defs>
  <sodipodi:namedview
     id="namedview1"
     pagecolor="#ffffff"
     bordercolor="#000000"
     borderopacity="0.25"
     inkscape:showpageshadow="2"
     inkscape:pageopacity="0.0"
     inkscape:pagecheckerboard="0"
     inkscape:deskcolor="#d1d1d1">
    <inkscape:page
       x="0"
       y="0"
       inkscape:label="1"
       id="page1"
       width="666.66669"
       height="202.95332"
       margin="0"
       bleed="0" />
  </sodipodi:namedview>
  <g
     id="layer-MC0"
     inkscape:groupmode="layer"
     inkscape:label="Layer 1">
    <path
       id="path1"
       d="M 0,0 C -13.878,0 -26.716,-4.531 -37.119,-12.187 -47.955,-4.514 -61.178,0 -75.437,0 c -14.941,0 -28.745,-4.957 -39.858,-13.31 -13.969,16.757 -34.989,27.441 -58.46,27.441 -22.827,0 -43.336,-10.105 -57.295,-26.076 -12.042,9.584 -27.276,15.319 -43.826,15.319 -15.62,0 -30.067,-5.109 -41.765,-13.74 -12.816,12.208 -30.151,19.712 -49.206,19.712 -39.366,0 -71.394,-32.028 -71.394,-71.394 0,-39.367 32.028,-71.394 71.394,-71.394 16.204,0 31.161,5.429 43.156,14.56 12.575,-11.627 29.379,-18.744 47.815,-18.744 19.132,0 36.504,7.664 49.219,20.078 13.605,-12.711 31.859,-20.504 51.902,-20.504 20.974,0 39.993,8.53 53.771,22.303 11.795,-10.672 27.425,-17.181 44.547,-17.181 16.592,0 31.783,6.111 43.441,16.2 9.375,-5.579 20.317,-8.789 31.996,-8.789 34.606,0 62.759,28.154 62.759,62.76 C 62.759,-28.153 34.606,0 0,0"
       style="fill:#00b3f0;fill-opacity:1;fill-rule:nonzero;stroke:none"
       transform="matrix(1.3333333,0,0,-1.3333333,582.98747,18.8416)"
       clip-path="url(#clipPath2)" />
    <path
       id="path3"
       d="M 0,0 C -14.196,0 -27.168,-5.33 -37.029,-14.089 -47.403,-5.306 -60.811,0 -75.437,0 c -15.867,0 -30.303,-6.241 -40.984,-16.396 -12.439,18.404 -33.497,30.527 -57.334,30.527 -23.255,0 -43.865,-11.538 -56.407,-29.191 -11.492,11.389 -27.295,18.434 -44.714,18.434 -16.255,0 -31.103,-6.137 -42.354,-16.212 -11.825,13.583 -29.235,22.184 -48.617,22.184 -35.539,0 -64.453,-28.914 -64.453,-64.454 0,-35.539 28.914,-64.453 64.453,-64.453 16.804,0 32.124,6.466 43.609,17.037 11.647,-13.015 28.563,-21.221 47.362,-21.221 19.749,0 37.422,9.054 49.089,23.229 12.685,-14.489 31.307,-23.656 52.032,-23.656 21.57,0 40.863,9.93 53.555,25.456 10.918,-12.455 26.937,-20.334 44.763,-20.334 16.72,0 31.848,6.932 42.671,18.069 9.209,-6.699 20.533,-10.658 32.766,-10.658 30.779,0 55.819,25.041 55.819,55.82 C 55.819,-25.04 30.779,0 0,0"
       style="fill:#ffffff;fill-opacity:1;fill-rule:nonzero;stroke:none"
       transform="matrix(1.3333333,0,0,-1.3333333,582.98747,28.0952)"
       clip-path="url(#clipPath4)" />
    <path
       id="path5"
       d="M 0,0 C -14.644,0 -27.808,-6.327 -36.913,-16.395 -46.64,-6.289 -60.303,0 -75.437,0 c -17.056,0 -32.246,-7.987 -42.036,-20.424 -10.417,20.505 -31.708,34.555 -56.282,34.555 -24.02,0 -44.904,-13.424 -55.562,-33.178 -10.514,13.635 -27.009,22.421 -45.559,22.421 -17.064,0 -32.389,-7.435 -42.919,-19.24 -10.539,15.231 -28.128,25.211 -48.052,25.211 -32.25,0 -58.394,-26.144 -58.394,-58.394 0,-32.25 26.144,-58.394 58.394,-58.394 17.583,0 33.349,7.772 44.054,20.066 10.419,-14.675 27.55,-24.25 46.917,-24.25 20.656,0 38.765,10.894 48.903,27.247 11.351,-16.701 30.503,-27.673 52.218,-27.673 22.511,0 42.265,11.791 53.432,29.532 9.529,-14.691 26.071,-24.411 44.886,-24.411 17.02,0 32.181,7.954 41.972,20.345 8.838,-8.035 20.579,-12.933 33.465,-12.933 27.482,0 49.76,22.278 49.76,49.76 C 49.76,-22.278 27.482,0 0,0"
       style="fill:#130c0e;fill-opacity:1;fill-rule:nonzero;stroke:none"
       transform="matrix(1.3333333,0,0,-1.3333333,582.98747,36.174267)"
       clip-path="url(#clipPath6)" />
    <path
       id="path7"
       d="M 0,0 V 16.586 L -206.776,16.588 -223.515,-26.699 0,-26.7 v 16.586 H -3.287 V 0 Z"
       style="fill:#130c0e;fill-opacity:1;fill-rule:nonzero;stroke:none"
       transform="matrix(1.3333333,0,0,-1.3333333,649.53067,167.35333)"
       clip-path="url(#clipPath8)" />
    <path
       id="path9"
       d="M 0,0 H -24.929 V 32.675 H 0 V 26.7 H -18.398 V 19.605 H -3.287 V 13.63 H -18.398 V 5.975 L 0,5.975 Z m -47.34,0 c -0.853,0 -1.672,0.187 -2.454,0.56 -0.783,0.374 -1.473,0.879 -2.07,1.517 -0.598,0.638 -1.075,1.385 -1.43,2.241 -0.357,0.856 -0.534,1.781 -0.534,2.777 V 25.58 c 0,0.934 0.171,1.828 0.512,2.684 0.342,0.856 0.804,1.61 1.388,2.264 0.582,0.653 1.265,1.174 2.048,1.564 0.783,0.388 1.629,0.583 2.54,0.583 h 13.532 c 0.854,0 1.671,-0.187 2.455,-0.56 0.782,-0.374 1.479,-0.88 2.091,-1.517 0.612,-0.638 1.095,-1.393 1.452,-2.264 0.355,-0.872 0.533,-1.79 0.533,-2.754 v -2.521 h -6.531 v 1.634 c 0,0.56 -0.178,1.034 -0.534,1.424 -0.356,0.388 -0.789,0.583 -1.301,0.583 h -9.861 c -0.512,0 -0.947,-0.202 -1.302,-0.607 -0.356,-0.404 -0.534,-0.886 -0.534,-1.447 V 8.029 c 0,-0.56 0.178,-1.043 0.534,-1.447 0.355,-0.405 0.79,-0.607 1.302,-0.607 h 9.861 c 0.512,0 0.945,0.194 1.301,0.584 0.356,0.388 0.534,0.863 0.534,1.423 v 1.634 h 6.531 V 7.095 c 0,-0.996 -0.178,-1.922 -0.533,-2.777 C -28.167,3.462 -28.65,2.715 -29.262,2.077 -29.874,1.439 -30.571,0.934 -31.353,0.56 -32.137,0.187 -32.954,0 -33.808,0 Z M -57.456,32.675 V 0 h -7.855 L -78.8,23.573 V 0 h -6.488 v 32.675 h 7.854 L -63.945,9.103 v 23.572 z m -44.992,-7.562 h 0.042 l 4.482,-12.089 h -9.049 z M -86.569,0 -99.204,32.675 h -6.489 L -118.328,10e-4 h 6.489 l 2.603,7.048 h 13.532 L -93.057,0 Z m -30.478,32.675 -12.636,-32.674 h -6.488 l -12.635,32.675 h 6.787 l 9.092,-24.18 9.093,24.18 z M -156.405,8.029 c 0,-0.56 -0.178,-1.042 -0.533,-1.447 -0.356,-0.404 -0.79,-0.606 -1.302,-0.606 h -12.55 v 20.725 h 12.55 c 0.512,0 0.946,-0.203 1.302,-0.607 0.355,-0.405 0.533,-0.887 0.533,-1.447 z m 6.532,17.552 c 0,0.995 -0.178,1.921 -0.534,2.777 -0.356,0.855 -0.832,1.602 -1.43,2.24 -0.598,0.638 -1.295,1.144 -2.092,1.518 -0.797,0.373 -1.622,0.56 -2.476,0.56 h -20.873 V 0.001 h 20.873 c 0.911,0 1.765,0.194 2.562,0.583 0.796,0.389 1.486,0.91 2.07,1.564 0.583,0.653 1.046,1.408 1.387,2.264 0.342,0.855 0.513,1.75 0.513,2.684 z m -44.565,-0.467 h 0.042 l 4.482,-12.09 h -9.049 z m 15.879,-25.113 -12.635,32.675 h -6.489 L -210.318,0.001 h 6.488 l 2.604,7.048 h 13.532 l 2.647,-7.048 z"
       style="fill:#7058f8;fill-opacity:1;fill-rule:nonzero;stroke:none"
       transform="matrix(1.3333333,0,0,-1.3333333,642.63747,195.87893)"
       clip-path="url(#clipPath10)" />
    <path
       id="path11"
       d="m 0,0 -228.382,-0.017 8.957,-40.862 228.382,0.016 z"
       style="fill:#9482fa;fill-opacity:1;fill-rule:nonzero;stroke:none"
       transform="matrix(1.3333333,0,0,-1.3333333,650.96307,123.22)"
       clip-path="url(#clipPath12)" />
    <path
       id="path13"
       d="m 0,0 -228.382,-0.017 8.172,-38.487 228.382,0.017 z"
       style="fill:#cac1fd;fill-opacity:1;fill-rule:nonzero;stroke:none"
       transform="matrix(1.3333333,0,0,-1.3333333,650.96307,123.22)"
       clip-path="url(#clipPath14)" />
    <path
       id="path15"
       d="m 0,0 -228.382,-0.017 7.445,-36.457 228.382,0.017 z"
       style="fill:#f2effe;fill-opacity:1;fill-rule:nonzero;stroke:none"
       transform="matrix(1.3333333,0,0,-1.3333333,650.96307,123.22)"
       clip-path="url(#clipPath16)" />
    <path
       id="path17"
       d="m 0,0 -228.382,-0.017 7.172,-34.779 228.382,0.017 z"
       style="fill:#ffffff;fill-opacity:1;fill-rule:nonzero;stroke:none"
       transform="matrix(1.3333333,0,0,-1.3333333,650.96307,123.22)"
       clip-path="url(#clipPath18)" />
    <path
       id="path19"
       d="M 0,0 V 3.612 L -0.856,0 H -1.783 L -2.619,3.612 V 0 h -0.876 v 4.323 h 1.369 L -1.3,0.894 h 0.01 l 0.805,3.429 H 0.866 L 0.866,0 Z m -6.327,0 v 3.557 h -1.409 v 0.764 h 3.728 V 3.557 H -5.367 V 0 Z"
       style="fill:#f15a22;fill-opacity:1;fill-rule:nonzero;stroke:none"
       transform="matrix(1.3333333,0,0,-1.3333333,622.86613,138.38107)"
       clip-path="url(#clipPath20)" />
    <path
       id="path21"
       d="M 0,0 C 2.806,-0.247 6.354,-0.447 8.986,-0.519 L 8.998,-6.368 C 6.111,-6.51 2.412,-6.536 0.394,-6.727 c -3.513,-0.339 -3.061,-5.369 0.116,-5.565 2.609,-0.157 8.534,-0.406 11.41,-0.318 v -6.946 H -9.949 v 42.96 H 11.954 V 6.907 C 7.572,6.967 2.354,6.773 -0.139,6.419 -4.081,5.859 -3.478,0.297 0,0"
       style="fill:#f15a22;fill-opacity:1;fill-rule:nonzero;stroke:none"
       transform="matrix(1.3333333,0,0,-1.3333333,601.3136,103.07093)"
       clip-path="url(#clipPath22)" />
    <path
       id="path23"
       d="m 0,0 -5.139,2.259 c -4.384,1.927 -5.306,9.055 9.178,5.865 V 20.655 C -17.278,26.898 -24.877,5.367 -9.264,-1.282 l 4.654,-1.983 c 6.053,-2.578 2.126,-8.681 -10.661,-5.934 v -6.645 C 6.748,-21.207 10.913,-4.797 0,0"
       style="fill:#f15a22;fill-opacity:1;fill-rule:nonzero;stroke:none"
       transform="matrix(1.3333333,0,0,-1.3333333,576.608,110.38387)"
       clip-path="url(#clipPath24)" />
    <path
       id="path25"
       d="m 412.546,86.958 h -8.01 V 48.024 h 8.01 z"
       style="fill:#f15a22;fill-opacity:1;fill-rule:nonzero;stroke:none"
       transform="matrix(1.3333333,0,0,-1.3333333,0,202.95333)"
       clip-path="url(#clipPath26)" />
    <path
       id="path27"
       d="m 0,0 c 0,3.995 -1.924,7.377 -5.604,8.707 -3.701,1.338 -3.964,-1.014 -3.964,-8.811 0,-7.99 0.144,-10.342 4.036,-8.847 C -1.742,-7.496 0,-4.02 0,0 m 0.999,-13.989 c -3.87,-2.398 -6.562,-2.784 -16.956,-2.784 V 22.555 C 10.102,28.119 15.084,-5.261 0.999,-13.989"
       style="fill:#f15a22;fill-opacity:1;fill-rule:nonzero;stroke:none"
       transform="matrix(1.3333333,0,0,-1.3333333,524.56333,103.10493)"
       clip-path="url(#clipPath28)" />
    <path
       id="path29"
       d="M 0,0 C -0.928,3.325 -1.67,3.968 -2.981,3.967 -3.978,3.966 -5.075,3.102 -5.905,-0.004 -7.332,-5.338 -7.333,-5.338 -2.929,-5.336 1.484,-5.33 1.487,-5.33 0,0 M 14.094,-20.681 H 4.393 c -2.178,8.817 -2.35,9.546 -7.424,9.541 -4.196,-0.004 -4.871,-0.852 -6.294,-6.661 h -6.985 c 8.312,35.466 9.999,37.947 13.717,37.952 4.675,0.001 6.901,-1.506 16.687,-40.832"
       style="fill:#f15a22;fill-opacity:1;fill-rule:nonzero;stroke:none"
       transform="matrix(1.3333333,0,0,-1.3333333,486.0472,117.53427)"
       clip-path="url(#clipPath30)" />
    <path
       id="path31"
       d="m 0,0 c 0,3.003 -1.689,5.545 -4.92,6.545 -3.25,1.006 -3.481,-0.763 -3.481,-6.623 0,-6.006 0.127,-7.774 3.544,-6.651 C -1.53,-5.635 0,-3.022 0,0 m 0.609,-11.604 7.535,-12.647 h -9.751 c -4.886,7.677 -6.073,10.446 -6.515,10.303 -0.448,-0.144 -0.279,-2.985 -0.279,-8.904 h -5.808 V 19.159 C 11.416,23.843 14.46,-4.257 0.609,-11.604"
       style="fill:#f15a22;fill-opacity:1;fill-rule:nonzero;stroke:none"
       transform="matrix(1.3333333,0,0,-1.3333333,453.90787,92.801467)"
       clip-path="url(#clipPath32)" />
    <path
       id="path33"
       d="M 0,0 C -0.928,3.325 -1.67,3.968 -2.981,3.967 -3.978,3.966 -5.075,3.102 -5.905,-0.004 -7.332,-5.338 -7.333,-5.338 -2.929,-5.336 1.484,-5.33 1.487,-5.33 0,0 M 14.094,-20.681 H 4.393 c -2.178,8.817 -2.35,9.546 -7.424,9.541 -4.196,-0.004 -4.871,-0.852 -6.294,-6.661 h -6.985 c 8.312,35.466 9.999,37.947 13.717,37.952 4.675,0.001 6.901,-1.506 16.687,-40.832"
       style="fill:#f15a22;fill-opacity:1;fill-rule:nonzero;stroke:none"
       transform="matrix(1.3333333,0,0,-1.3333333,417.54853,116.18973)"
       clip-path="url(#clipPath34)" />
    <path
       id="path35"
       d="m 0,0 c 0,4.132 -2.324,7.63 -6.77,9.006 -4.472,1.384 -4.79,-1.049 -4.79,-9.113 0,-8.265 0.174,-10.698 4.877,-9.152 C -2.105,-7.753 0,-4.158 0,0 m 0.838,-15.967 c -2.736,-1.452 -5.705,-3.225 -11.101,-3.225 -1.297,0 -1.297,-1.243 -1.297,-3.996 v -15.076 h -10.544 v 64.627 c 35.259,6.445 42.001,-32.22 22.942,-42.33"
       style="fill:#f15a22;fill-opacity:1;fill-rule:nonzero;stroke:none"
       transform="matrix(1.3333333,0,0,-1.3333333,388.11733,93.373067)"
       clip-path="url(#clipPath36)" />
    <path
       id="path37"
       d="m 0,0 c -9.133,-23.459 -10.685,-25.182 -12.421,-25.184 -1.414,-10e-4 -3.953,1.323 -12.342,22.648 H -33.8 v -48.447 h 8.412 c 0,13.952 0.232,18.961 1.007,18.961 1.094,0 2.618,-2.132 7.48,-14.529 h 4.518 c 5.124,12.173 7.327,15.599 8.124,15.599 1.147,0 1.374,-7.16 1.374,-22.544 H 5.531 L 5.531,0 Z"
       style="fill:#faa61a;fill-opacity:1;fill-rule:nonzero;stroke:none"
       transform="matrix(1.3333333,0,0,-1.3333333,331.57627,65.916133)"
       clip-path="url(#clipPath38)" />
    <path
       id="path39"
       d="m 0,0 v -15.999 c 0,-2.958 -2.238,-5.365 -4.997,-5.365 -2.768,0 -5.006,2.399 -5.006,5.355 v 10.94 h -7.601 v -45.905 h 10.083 v 12.018 c 0,3.05 2.305,5.53 5.16,5.53 2.854,0 5.166,-2.474 5.166,-5.523 v -9.507 l 7.679,-10e-4 0,48.457 z"
       style="fill:#faa61a;fill-opacity:1;fill-rule:nonzero;stroke:none"
       transform="matrix(1.3333333,0,0,-1.3333333,266.2708,73.6912)"
       clip-path="url(#clipPath40)" />
    <path
       id="path41"
       d="m 0,0 v -13.58 h 5.215 c 4.552,0 5.67,-1.256 5.67,-5.351 v -32.035 h 8.437 v 35.511 c 0,2.961 1.119,5.36 5.67,5.363 h 5.395 l 0,10.092 z"
       style="fill:#faa61a;fill-opacity:1;fill-rule:nonzero;stroke:none"
       transform="matrix(1.3333333,0,0,-1.3333333,198.40387,62.170933)"
       clip-path="url(#clipPath42)" />
    <path
       id="path43"
       d="m 0,0 v -12.914 c 0,-7.615 -2.171,-10.325 -4.841,-10.325 -2.669,0 -4.833,2.466 -4.833,8.165 v 10 H -20.16 v -8.471 c 0,-14.929 4.983,-19.475 11.97,-19.471 3.1,10e-4 6.603,1.025 8.806,3.457 -0.604,-6.036 -7.166,-10.955 -14.426,-10.955 h -6.35 v -12.983 h 5 c 12.272,0 22.761,7.432 22.761,28.905 L 7.601,0 Z"
       style="fill:#faa61a;fill-opacity:1;fill-rule:nonzero;stroke:none"
       transform="matrix(1.3333333,0,0,-1.3333333,183.45573,74.7896)"
       clip-path="url(#clipPath44)" />
    <path
       id="path45"
       d="m 0,0 v -16.006 c 0,-2.959 -2.239,-5.359 -5.001,-5.359 -2.762,0 -5,2.392 -5,5.351 v 10.943 h -7.605 v -48.428 h 10.085 v 14.533 c 0,3.056 2.311,5.534 5.16,5.534 2.849,0 5.164,-2.471 5.164,-5.526 v -9.505 H 10.48 L 10.48,0 Z"
       style="fill:#faa61a;fill-opacity:1;fill-rule:nonzero;stroke:none"
       transform="matrix(1.3333333,0,0,-1.3333333,136.86507,68.042133)"
       clip-path="url(#clipPath46)" />
    <path
       id="path47"
       d="m 0,0 c -5.875,-1.932 -6.092,1.108 -6.092,11.434 0,10.075 0.396,13.115 5.984,11.386 C 5.446,21.101 8.35,16.73 8.35,11.568 8.35,6.373 5.72,1.881 0,0 M -16.077,44.505 V -27.72 h 9.985 c 0,10.177 -0.291,15.06 0.479,15.309 0.761,0.245 2.801,-4.515 11.201,-17.713 H 22.351 L 9.398,-8.382 C 33.209,4.25 27.976,52.558 -16.077,44.505"
       style="fill:#faa61a;fill-opacity:1;fill-rule:nonzero;stroke:none"
       transform="matrix(1.3333333,0,0,-1.3333333,76.575867,111.15053)"
       clip-path="url(#clipPath48)" />
  </g>
</svg>
