<?xml version="1.0" encoding="UTF-8" standalone="no"?>
<!-- Created with Inkscape (http://www.inkscape.org/) -->

<svg
   version="1.1"
   id="svg1"
   width="666.66669"
   height="483.67599"
   viewBox="0 0 666.66669 483.67599"
   sodipodi:docname="Rhythm Paradise Advance (POR) Logo (Wordmark).ai"
   xmlns:inkscape="http://www.inkscape.org/namespaces/inkscape"
   xmlns:sodipodi="http://sodipodi.sourceforge.net/DTD/sodipodi-0.dtd"
   xmlns="http://www.w3.org/2000/svg"
   xmlns:svg="http://www.w3.org/2000/svg">
  <defs
     id="defs1">
    <clipPath
       clipPathUnits="userSpaceOnUse"
       id="clipPath2">
      <path
         d="M 0,362.757 H 500 V 0 H 0 Z"
         transform="translate(-489.86061,-66.012204)"
         id="path2" />
    </clipPath>
    <clipPath
       clipPathUnits="userSpaceOnUse"
       id="clipPath4">
      <path
         d="M 0,362.757 H 500 V 0 H 0 Z"
         transform="translate(-494.85471,-87.506402)"
         id="path4" />
    </clipPath>
    <clipPath
       clipPathUnits="userSpaceOnUse"
       id="clipPath6">
      <path
         d="M 0,362.757 H 500 V 0 H 0 Z"
         transform="translate(-457.89571,-147.24171)"
         id="path6" />
    </clipPath>
    <clipPath
       clipPathUnits="userSpaceOnUse"
       id="clipPath8">
      <path
         d="M 0,362.757 H 500 V 0 H 0 Z"
         transform="translate(-426.15741,-207.84861)"
         id="path8" />
    </clipPath>
    <clipPath
       clipPathUnits="userSpaceOnUse"
       id="clipPath10">
      <path
         d="M 0,362.757 H 500 V 0 H 0 Z"
         transform="translate(-383.16231,-155.0152)"
         id="path10" />
    </clipPath>
    <clipPath
       clipPathUnits="userSpaceOnUse"
       id="clipPath12">
      <path
         d="M 0,362.757 H 500 V 0 H 0 Z"
         transform="translate(-327.54901,-150.35601)"
         id="path12" />
    </clipPath>
    <clipPath
       clipPathUnits="userSpaceOnUse"
       id="clipPath14">
      <path
         d="M 0,362.757 H 500 V 0 H 0 Z"
         transform="translate(-286.23751,-138.9556)"
         id="path14" />
    </clipPath>
    <clipPath
       clipPathUnits="userSpaceOnUse"
       id="clipPath16">
      <path
         d="M 0,362.757 H 500 V 0 H 0 Z"
         transform="translate(-236.21211,-127.4116)"
         id="path16" />
    </clipPath>
    <clipPath
       clipPathUnits="userSpaceOnUse"
       id="clipPath18">
      <path
         d="M 0,362.757 H 500 V 0 H 0 Z"
         transform="translate(-171.6594,-133.2007)"
         id="path18" />
    </clipPath>
    <clipPath
       clipPathUnits="userSpaceOnUse"
       id="clipPath20">
      <path
         d="M 0,362.757 H 500 V 0 H 0 Z"
         transform="translate(-124.0813,-92.790505)"
         id="path20" />
    </clipPath>
    <clipPath
       clipPathUnits="userSpaceOnUse"
       id="clipPath22">
      <path
         d="M 0,362.757 H 500 V 0 H 0 Z"
         transform="translate(-62.346902,-107.1831)"
         id="path22" />
    </clipPath>
    <clipPath
       clipPathUnits="userSpaceOnUse"
       id="clipPath24">
      <path
         d="M 0,362.757 H 500 V 0 H 0 Z"
         transform="translate(-394.16231,-359.68361)"
         id="path24" />
    </clipPath>
    <clipPath
       clipPathUnits="userSpaceOnUse"
       id="clipPath26">
      <path
         d="M 0,362.757 H 500 V 0 H 0 Z"
         transform="translate(-301.14471,-311.89891)"
         id="path26" />
    </clipPath>
    <clipPath
       clipPathUnits="userSpaceOnUse"
       id="clipPath28">
      <path
         d="M 0,362.757 H 500 V 0 H 0 Z"
         transform="translate(-208.12671,-304.97361)"
         id="path28" />
    </clipPath>
    <clipPath
       clipPathUnits="userSpaceOnUse"
       id="clipPath30">
      <path
         d="M 0,362.757 H 500 V 0 H 0 Z"
         transform="translate(-201.55591,-282.68311)"
         id="path30" />
    </clipPath>
    <clipPath
       clipPathUnits="userSpaceOnUse"
       id="clipPath32">
      <path
         d="M 0,362.757 H 500 V 0 H 0 Z"
         transform="translate(-119.7912,-284.07321)"
         id="path32" />
    </clipPath>
    <clipPath
       clipPathUnits="userSpaceOnUse"
       id="clipPath34">
      <path
         d="M 0,362.757 H 500 V 0 H 0 Z"
         transform="translate(-28.489,-233.64211)"
         id="path34" />
    </clipPath>
  </defs>
  <sodipodi:namedview
     id="namedview1"
     pagecolor="#ffffff"
     bordercolor="#000000"
     borderopacity="0.25"
     inkscape:showpageshadow="2"
     inkscape:pageopacity="0.0"
     inkscape:pagecheckerboard="0"
     inkscape:deskcolor="#d1d1d1">
    <inkscape:page
       x="0"
       y="0"
       inkscape:label="1"
       id="page1"
       width="666.66669"
       height="483.67599"
       margin="0"
       bleed="0" />
  </sodipodi:namedview>
  <g
     id="layer-MC0"
     inkscape:groupmode="layer"
     inkscape:label="Layer 1">
    <path
       id="path1"
       d="m 0,0 c 0,0.826 -0.264,1.478 -0.788,1.953 -0.525,0.475 -1.165,0.626 -1.92,0.451 L -21.225,-1.87 v -12.741 l 18.517,4.275 c 0.755,0.174 1.395,0.62 1.92,1.338 C -0.264,-8.28 0,-7.507 0,-6.681 Z M 0,11.847 C 1.26,12.138 2.466,12.14 3.621,11.855 4.775,11.571 5.794,11.06 6.676,10.322 7.557,9.585 8.26,8.645 8.785,7.504 9.31,6.361 9.573,5.056 9.573,3.588 v -9.436 c 0,-1.377 -0.243,-2.754 -0.724,-4.128 -0.484,-1.375 -1.187,-2.65 -2.111,-3.827 -0.924,-1.177 -2.025,-2.201 -3.306,-3.07 -1.282,-0.871 -2.74,-1.493 -4.377,-1.871 l 11.085,-15.279 -10.392,-2.4 -11.085,15.279 -9.888,-2.283 v -17.838 l -9.636,-2.224 V 4.722 Z m -48.306,-22.999 c 0,0.826 -0.274,1.474 -0.819,1.946 -0.546,0.47 -1.197,0.618 -1.952,0.444 l -16.439,-3.795 c -0.714,-0.166 -1.344,-0.609 -1.889,-1.332 -0.546,-0.722 -0.819,-1.497 -0.819,-2.324 v -24.518 c 0,-0.827 0.273,-1.476 0.819,-1.946 0.545,-0.471 1.175,-0.624 1.889,-0.459 l 16.439,3.795 c 0.755,0.174 1.406,0.622 1.952,1.346 0.545,0.723 0.819,1.497 0.819,2.324 z M -48.369,0.68 c 1.26,0.291 2.477,0.296 3.652,0.016 1.176,-0.28 2.205,-0.789 3.087,-1.525 0.882,-0.738 1.584,-1.679 2.109,-2.819 0.525,-1.143 0.788,-2.449 0.788,-3.916 v -27.274 c 0,-1.378 -0.252,-2.756 -0.755,-4.135 -0.504,-1.38 -1.188,-2.65 -2.048,-3.813 -0.861,-1.163 -1.879,-2.167 -3.054,-3.012 -1.177,-0.847 -2.436,-1.424 -3.779,-1.733 l -21.855,-5.046 c -1.259,-0.291 -2.467,-0.294 -3.622,-0.009 -1.154,0.284 -2.173,0.795 -3.054,1.532 -0.881,0.738 -1.585,1.677 -2.11,2.82 -0.525,1.14 -0.787,2.446 -0.787,3.916 v 27.273 c 0,1.378 0.252,2.755 0.755,4.134 0.505,1.38 1.187,2.65 2.048,3.813 0.859,1.162 1.867,2.164 3.023,3.005 1.155,0.841 2.404,1.416 3.747,1.727 z m -48.559,-23.058 c 0,0.827 -0.273,1.476 -0.818,1.946 -0.547,0.47 -1.176,0.624 -1.89,0.459 l -19.209,-4.434 v -16.116 l 19.209,4.434 c 0.714,0.165 1.343,0.597 1.89,1.298 0.545,0.699 0.818,1.463 0.818,2.289 z m 0,11.847 c 1.26,0.291 2.466,0.294 3.622,0.01 1.155,-0.286 2.172,-0.796 3.054,-1.534 0.883,-0.738 1.585,-1.677 2.11,-2.819 0.525,-1.143 0.788,-2.447 0.788,-3.916 v -12.879 c 0,-1.378 -0.252,-2.756 -0.756,-4.135 -0.504,-1.38 -1.187,-2.649 -2.047,-3.812 -0.861,-1.164 -1.879,-2.168 -3.055,-3.013 -1.175,-0.846 -2.415,-1.419 -3.716,-1.719 l -21.917,-5.06 v -14.394 l -9.573,-2.211 v 48.211 z"
       style="fill:#000000;fill-opacity:1;fill-rule:nonzero;stroke:none"
       transform="matrix(1.3333333,0,0,-1.3333333,653.14747,395.65973)"
       clip-path="url(#clipPath2)" />
    <path
       id="path3"
       d="M 0,0 -41.91,-9.676 V 45.256 L 0,54.932 V 44.887 L -30.931,37.746 V 25.818 l 25.405,5.866 V 21.639 L -30.931,15.773 V 2.904 L 0,10.045 Z m -79.586,-18.374 c -1.435,-0.331 -2.811,-0.335 -4.127,-0.011 -1.316,0.324 -2.475,0.906 -3.48,1.747 -1.005,0.84 -1.807,1.91 -2.405,3.212 -0.598,1.3 -0.896,2.787 -0.896,4.462 v 31.075 c 0,1.571 0.287,3.14 0.86,4.712 0.574,1.571 1.352,3.019 2.333,4.344 0.98,1.325 2.128,2.466 3.445,3.425 1.315,0.957 2.738,1.613 4.27,1.967 l 22.749,5.252 c 1.435,0.331 2.81,0.335 4.126,0.01 1.315,-0.324 2.487,-0.904 3.517,-1.738 1.028,-0.836 1.84,-1.917 2.44,-3.243 0.598,-1.327 0.897,-2.802 0.897,-4.423 V 28.18 l -10.98,-2.535 v 2.746 c 0,0.942 -0.3,1.67 -0.897,2.186 -0.599,0.516 -1.328,0.675 -2.189,0.476 l -16.578,-3.827 c -0.86,-0.199 -1.591,-0.708 -2.188,-1.526 -0.599,-0.818 -0.897,-1.698 -0.897,-2.639 V -4.876 c 0,-0.942 0.298,-1.685 0.897,-2.226 0.597,-0.543 1.328,-0.713 2.188,-0.515 l 16.578,3.827 c 0.861,0.199 1.59,0.693 2.189,1.486 0.597,0.792 0.897,1.659 0.897,2.601 v 2.747 l 10.98,2.535 V 1.341 c 0,-1.675 -0.299,-3.3 -0.897,-4.876 -0.6,-1.578 -1.412,-3.022 -2.44,-4.33 -1.03,-1.311 -2.202,-2.431 -3.517,-3.363 -1.316,-0.931 -2.691,-1.563 -4.126,-1.894 z m -17.009,51.006 v -54.933 l -13.204,-3.048 -22.678,34.394 v -39.629 l -10.908,-2.519 v 54.932 l 13.205,3.049 22.677,-34.395 v 39.63 z m -75.638,-30.176 0.071,0.017 7.535,-18.585 -15.214,-3.513 z m 26.696,-36.056 -21.242,50.029 -10.908,-2.519 -21.243,-59.836 10.909,2.518 4.377,12.86 22.749,5.252 4.45,-10.822 z m -51.239,43.103 -21.243,-59.836 -10.908,-2.519 -21.242,50.029 11.41,2.634 15.286,-37.121 15.286,44.179 z m -66.167,-56.71 c 0,-0.941 -0.299,-1.822 -0.897,-2.64 -0.599,-0.819 -1.328,-1.327 -2.189,-1.525 l -21.098,-4.871 V -21.4 l 21.098,4.871 c 0.861,0.198 1.59,0.025 2.189,-0.516 0.598,-0.542 0.897,-1.283 0.897,-2.226 z m 10.98,32.041 c 0,1.674 -0.3,3.161 -0.897,4.462 -0.599,1.301 -1.4,2.371 -2.405,3.212 -1.005,0.84 -2.177,1.42 -3.516,1.739 -1.34,0.318 -2.727,0.312 -4.162,-0.019 l -35.093,-8.102 v -54.933 l 35.093,8.102 c 1.53,0.353 2.965,1.012 4.305,1.976 1.339,0.962 2.5,2.107 3.481,3.432 0.98,1.324 1.759,2.773 2.333,4.344 0.574,1.571 0.861,3.141 0.861,4.711 z m -74.922,-18.081 0.072,0.017 7.535,-18.586 -15.214,-3.512 z m 26.697,-36.057 -21.243,50.029 -10.908,-2.519 -21.242,-59.836 10.908,2.519 4.378,12.86 22.749,5.252 4.449,-10.822 z"
       style="fill:#000000;fill-opacity:1;fill-rule:nonzero;stroke:none"
       transform="matrix(1.3333333,0,0,-1.3333333,659.80627,367.0008)"
       clip-path="url(#clipPath4)" />
    <path
       id="path5"
       d="M 0,0 V 9.102 L -2.288,-0.528 -4.766,-1.101 -7,7.485 V -1.616 L -9.343,-2.157 V 8.738 l 3.66,0.846 2.207,-8.134 0.027,0.007 2.152,9.14 3.612,0.833 V 0.534 Z m -16.913,-3.905 v 8.964 l -3.769,-0.871 v 1.933 l 9.968,2.301 V 6.489 l -3.633,-0.838 v -8.964 z"
       style="fill:#000000;fill-opacity:1;fill-rule:nonzero;stroke:none"
       transform="matrix(1.3333333,0,0,-1.3333333,610.5276,287.35373)"
       clip-path="url(#clipPath6)" />
    <path
       id="path7"
       d="M 0,0 C 5.271,1.986 16.304,4.953 25.571,6.963 V 35.651 L -20.742,24.958 v -76.674 l 46.313,10.691 v 12.774 c -6.08,-1.594 -18.682,-3.964 -24.198,-4.896 -6.718,-1.128 -7.674,7.429 -0.245,9.881 4.266,1.397 12.087,3.261 18.191,4.976 v 9.836 C 13.754,-9.582 6.228,-10.885 0.294,-11.719 -7.062,-12.773 -8.336,-3.138 0,0"
       style="fill:#000000;fill-opacity:1;fill-rule:nonzero;stroke:none"
       transform="matrix(1.3333333,0,0,-1.3333333,568.20987,206.54453)"
       clip-path="url(#clipPath8)" />
    <path
       id="path9"
       d="m 0,0 c -0.271,2.548 -4.679,3.124 -11.543,4.77 -12.001,2.98 -19.43,10.05 -18.671,22.47 0.808,13.406 7.596,22.757 43.517,28.857 V 28.209 C 0.341,26.588 -6.815,24.163 -9.851,21.681 c -3.237,-2.627 -3.048,-6.93 1.624,-8.491 2.03,-0.677 8.032,-2.681 11.659,-3.898 6.96,-2.319 10.366,-5.877 11.076,-12.174 2.005,-17.762 -30.144,-22.421 -43.399,-24.366 v 15.781 C -13.012,-8.268 0.612,-5.463 0,0"
       style="fill:#000000;fill-opacity:1;fill-rule:nonzero;stroke:none"
       transform="matrix(1.3333333,0,0,-1.3333333,510.88307,276.98907)"
       clip-path="url(#clipPath10)" />
    <path
       id="path11"
       d="m 0,0 v 68.354 l 17.284,3.991 V 3.991 Z"
       style="fill:#000000;fill-opacity:1;fill-rule:nonzero;stroke:none"
       transform="matrix(1.3333333,0,0,-1.3333333,436.732,283.20133)"
       clip-path="url(#clipPath12)" />
    <path
       id="path13"
       d="M 0,0 C -4.757,-1.101 -6.815,0.491 -6.815,6.057 V 23.61 c 0,4.046 -0.209,7.278 3.628,8.361 8.336,2.353 17.653,-2.109 18.535,-11.18 C 16.378,10.249 10.513,2.428 0,0 M -18.535,58.522 V -16.033 C 17.506,-10.763 33.196,3.163 32.804,30.843 32.461,54.846 8.63,68.036 -18.535,58.522"
       style="fill:#000000;fill-opacity:1;fill-rule:nonzero;stroke:none"
       transform="matrix(1.3333333,0,0,-1.3333333,381.65,298.40187)"
       clip-path="url(#clipPath14)" />
    <path
       id="path15"
       d="m 0,0 -8.703,-2.009 c -2.188,-0.505 -3.433,0.857 -3.163,3.898 0.245,2.843 1.52,8.875 2.011,10.934 1.029,4.266 3.186,6.35 5.663,6.718 3.996,0.637 5.933,-2.28 7.477,-9.636 C 3.433,9.219 3.85,7.724 4.021,5.713 4.364,1.618 3.092,0.714 0,0 M 15.25,32.682 C 10.689,47.637 6.998,51.328 -2.084,49.23 c -8.007,-1.847 -12.558,-6.015 -16.377,-20.642 -3.751,-14.367 -7.898,-34.9 -11.233,-58.143 l 13.218,3.052 c 0.246,1.839 0.687,3.997 1.325,7.282 0.686,3.31 2.475,5.676 6.031,6.497 l 10.297,2.377 c 2.753,0.636 5.271,-1.544 6.154,-5.221 0.588,-2.452 1.348,-5.929 1.814,-8.258 l 17.505,4.041 c -2.132,17.138 -6.865,37.609 -11.4,52.467"
       style="fill:#000000;fill-opacity:1;fill-rule:nonzero;stroke:none"
       transform="matrix(1.3333333,0,0,-1.3333333,314.94947,313.79387)"
       clip-path="url(#clipPath16)" />
    <path
       id="path17"
       d="m 0,0 c -4.491,-1.053 -6.991,1.448 -6.991,6.794 v 5.165 c 0,3.725 0.724,6.958 4.047,8.011 9.647,3.055 16.366,-1.103 16.366,-7.633 C 13.422,6.234 8.751,2.057 0,0 m 32.52,22.321 c 0,23.737 -23.227,30.628 -51.634,20.48 v -74.675 l 12.107,2.795 v 17.236 c 0,2.928 2.154,2.418 4.145,0.642 1.398,-1.25 9.803,-9.393 15.675,-15.248 l 18.482,4.266 c 0,0 -16.113,16.459 -17.972,18.087 10.824,4.047 19.197,14.592 19.197,26.417"
       style="fill:#000000;fill-opacity:1;fill-rule:nonzero;stroke:none"
       transform="matrix(1.3333333,0,0,-1.3333333,228.8792,306.07507)"
       clip-path="url(#clipPath18)" />
    <path
       id="path19"
       d="m 0,0 -8.704,-2.009 c -2.187,-0.506 -3.432,0.857 -3.163,3.897 0.246,2.844 1.521,8.875 2.011,10.934 1.03,4.267 3.187,6.351 5.664,6.718 3.996,0.638 5.933,-2.28 7.477,-9.635 C 3.432,9.219 3.849,7.723 4.021,5.713 4.364,1.618 3.091,0.714 0,0 M 15.25,32.682 C 10.689,47.637 6.998,51.328 -2.084,49.23 -10.091,47.383 -14.643,43.214 -18.461,28.587 -22.213,14.22 -26.36,-6.312 -29.694,-29.555 l 13.218,3.052 c 0.246,1.839 0.687,3.996 1.324,7.281 0.687,3.311 2.476,5.677 6.031,6.497 l 10.298,2.378 c 2.752,0.635 5.271,-1.544 6.154,-5.221 0.588,-2.453 1.348,-5.93 1.814,-8.259 l 17.505,4.042 c -2.133,17.138 -6.865,37.609 -11.4,52.467"
       style="fill:#000000;fill-opacity:1;fill-rule:nonzero;stroke:none"
       transform="matrix(1.3333333,0,0,-1.3333333,165.44173,359.95533)"
       clip-path="url(#clipPath20)" />
    <path
       id="path21"
       d="m 0,0 c -5.443,-1.33 -8.581,0.099 -8.581,4.659 v 16.5 c 0,4.66 2.574,7.601 7.699,8.263 C 9.391,30.746 14.024,24.738 14.024,16.918 14.024,10.396 10.175,2.488 0,0 M -34.153,53.229 V -50.114 l 25.596,5.909 v 24.272 c 0,4.438 1.103,6.645 3.751,7.111 23.855,4.196 40.847,16.189 40.848,40.797 0,27.021 -29.03,41.558 -70.195,25.254"
       style="fill:#000000;fill-opacity:1;fill-rule:nonzero;stroke:none"
       transform="matrix(1.3333333,0,0,-1.3333333,83.1292,340.7652)"
       clip-path="url(#clipPath22)" />
    <path
       id="path23"
       d="m 0,0 c -7.061,-23.316 -11.057,-34.716 -14.538,-44.327 -5.934,-16.353 -12.088,-9.929 -14.956,-5.369 -3.334,5.344 -7.87,15.74 -15.739,34.79 l -19.443,-4.489 v -91.518 l 16.132,3.724 c -0.122,14.588 0.123,24.493 0.907,28.342 0.711,3.457 2.795,3.947 4.904,0.515 1.741,-2.82 4.487,-8.924 9.954,-21.477 l 10.809,2.496 c 5.958,16.009 9.172,24.081 11.452,28.028 1.839,3.211 5.345,5.467 6.4,-0.466 0.808,-4.487 0.735,-16.659 0.71,-31.565 l 16.721,3.86 V 3.074 Z"
       style="fill:#000000;fill-opacity:1;fill-rule:nonzero;stroke:none"
       transform="matrix(1.3333333,0,0,-1.3333333,525.54973,4.0978667)"
       clip-path="url(#clipPath24)" />
    <path
       id="path25"
       d="m 0,0 c -0.073,-12.503 -0.049,-23.904 -0.589,-28.072 -1.25,-9.954 -18.265,-14.441 -19.098,-5.271 -0.393,4.315 -0.736,10.015 -0.736,22.74 l -13.755,-3.175 v -83.849 l 17.531,4.047 c 0,13.313 0,19.097 0.22,23.657 0.614,12.014 18.657,14.735 20.227,4.291 0.711,-4.757 0.834,-7.036 0.834,-17.775 l 13.974,3.226 V 4.296 Z"
       style="fill:#000000;fill-opacity:1;fill-rule:nonzero;stroke:none"
       transform="matrix(1.3333333,0,0,-1.3333333,401.52627,67.8108)"
       clip-path="url(#clipPath26)" />
    <path
       id="path27"
       d="m 0,0 v -33.75 l 9.782,2.258 c 5.933,1.37 8.385,0.597 8.385,-9.905 v -43.352 l 16.059,3.708 v 39.742 c 0,17.653 1.657,22.108 10.395,24.125 l 7.993,1.845 v 27.476 z"
       style="fill:#000000;fill-opacity:1;fill-rule:nonzero;stroke:none"
       transform="matrix(1.3333333,0,0,-1.3333333,277.50227,77.044533)"
       clip-path="url(#clipPath28)" />
    <path
       id="path29"
       d="m 0,0 -15.005,-3.464 c 0,0 0.221,-15.446 -0.368,-26.822 -0.857,-16.647 -17.627,-20.227 -18.976,-4.388 -0.686,8.311 -1.005,24.877 -1.005,24.877 l -18.657,-4.307 v -13.509 c 0,-32.241 20.962,-36.212 31.921,-27.018 0.662,0.564 1.324,0.907 1.863,0.661 0.613,-0.269 0.588,-0.931 0.343,-2.157 -0.661,-3.212 -5.418,-9.561 -15.029,-12.136 -7.33,-1.961 -14.514,-3.198 -18.093,-3.762 v -22.373 c 16.132,2.084 34.814,6.693 43.518,20.079 4.535,6.987 6.914,14.367 8.091,25.302 C 0.441,-31.806 0,0 0,0"
       style="fill:#000000;fill-opacity:1;fill-rule:nonzero;stroke:none"
       transform="matrix(1.3333333,0,0,-1.3333333,268.7412,106.7652)"
       clip-path="url(#clipPath30)" />
    <path
       id="path31"
       d="m 0,0 c -0.074,-12.503 -0.049,-23.904 -0.588,-28.072 -1.251,-9.954 -18.266,-14.441 -19.099,-5.271 -0.393,4.315 -0.736,10.016 -0.736,22.74 l -13.754,-3.175 v -83.849 l 17.53,4.047 c 0,13.313 0,19.097 0.22,23.657 0.613,12.014 18.658,14.735 20.227,4.291 0.711,-4.757 0.833,-7.036 0.833,-17.775 l 13.975,3.226 V 4.296 Z"
       style="fill:#000000;fill-opacity:1;fill-rule:nonzero;stroke:none"
       transform="matrix(1.3333333,0,0,-1.3333333,159.7216,104.91173)"
       clip-path="url(#clipPath32)" />
    <path
       id="path33"
       d="m 0,0 c -6.693,-1.569 -10.42,2.157 -10.419,10.125 v 7.699 c -10e-4,5.552 1.078,10.37 6.03,11.94 C 9.991,34.319 20.006,28.121 20.006,18.388 20.006,9.292 13.043,3.064 0,0 m 48.471,33.27 c 0,35.378 -34.619,45.65 -76.96,30.523 V -50.41 l 18.045,4.166 v 28.592 c 0,4.363 3.212,3.604 6.178,0.956 2.084,-1.864 14.612,-13.999 23.365,-22.728 l 27.547,6.36 c 0,0 -24.017,24.532 -26.787,26.959 16.132,6.031 28.612,21.749 28.612,39.375"
       style="fill:#000000;fill-opacity:1;fill-rule:nonzero;stroke:none"
       transform="matrix(1.3333333,0,0,-1.3333333,37.985333,172.1532)"
       clip-path="url(#clipPath34)" />
  </g>
</svg>
