<?xml version="1.0" encoding="UTF-8" standalone="no"?>
<!-- Created with Inkscape (http://www.inkscape.org/) -->

<svg
   version="1.1"
   id="svg1"
   width="666.66669"
   height="496.35468"
   viewBox="0 0 666.66669 496.35468"
   sodipodi:docname="Rhythm Tengoku+ (リズム天国＋) Logo (Flat).ai"
   xmlns:inkscape="http://www.inkscape.org/namespaces/inkscape"
   xmlns:sodipodi="http://sodipodi.sourceforge.net/DTD/sodipodi-0.dtd"
   xmlns="http://www.w3.org/2000/svg"
   xmlns:svg="http://www.w3.org/2000/svg">
  <defs
     id="defs1">
    <clipPath
       clipPathUnits="userSpaceOnUse"
       id="clipPath2">
      <path
         d="M 0,372.266 H 500 V 0 H 0 Z"
         transform="translate(-481.88271,-224.03151)"
         id="path2" />
    </clipPath>
    <clipPath
       clipPathUnits="userSpaceOnUse"
       id="clipPath4">
      <path
         d="M 0,372.266 H 500 V 0 H 0 Z"
         transform="translate(-468.89151,-222.42021)"
         id="path4" />
    </clipPath>
    <clipPath
       clipPathUnits="userSpaceOnUse"
       id="clipPath6">
      <path
         d="M 0,372.266 H 500 V 0 H 0 Z"
         transform="translate(-457.02731,-220.91381)"
         id="path6" />
    </clipPath>
    <clipPath
       clipPathUnits="userSpaceOnUse"
       id="clipPath8">
      <path
         d="M 0,372.266 H 500 V 0 H 0 Z"
         transform="translate(-420.48041,-186.3323)"
         id="path8" />
    </clipPath>
    <clipPath
       clipPathUnits="userSpaceOnUse"
       id="clipPath10">
      <path
         d="M 0,372.266 H 500 V 0 H 0 Z"
         transform="translate(-411.26461,-175.9158)"
         id="path10" />
    </clipPath>
    <clipPath
       clipPathUnits="userSpaceOnUse"
       id="clipPath12">
      <path
         d="M 0,372.266 H 500 V 0 H 0 Z"
         transform="translate(-382.52531,-145.3523)"
         id="path12" />
    </clipPath>
    <clipPath
       clipPathUnits="userSpaceOnUse"
       id="clipPath14">
      <path
         d="M 0,372.266 H 500 V 0 H 0 Z"
         transform="translate(-402.99211,-168.2556)"
         id="path14" />
    </clipPath>
    <clipPath
       clipPathUnits="userSpaceOnUse"
       id="clipPath16">
      <path
         d="M 0,372.266 H 500 V 0 H 0 Z"
         transform="translate(-406.80171,-192.36011)"
         id="path16" />
    </clipPath>
    <clipPath
       clipPathUnits="userSpaceOnUse"
       id="clipPath18">
      <path
         d="M 0,372.266 H 500 V 0 H 0 Z"
         transform="translate(-332.55361,-117.1745)"
         id="path18" />
    </clipPath>
    <clipPath
       clipPathUnits="userSpaceOnUse"
       id="clipPath20">
      <path
         d="M 0,372.266 H 500 V 0 H 0 Z"
         transform="translate(-312.18941,-172.2419)"
         id="path20" />
    </clipPath>
    <clipPath
       clipPathUnits="userSpaceOnUse"
       id="clipPath22">
      <path
         d="M 0,372.266 H 500 V 0 H 0 Z"
         transform="translate(-301.06831,-190.55441)"
         id="path22" />
    </clipPath>
    <clipPath
       clipPathUnits="userSpaceOnUse"
       id="clipPath24">
      <path
         d="M 0,372.266 H 500 V 0 H 0 Z"
         transform="translate(-264.3925,-188.15351)"
         id="path24" />
    </clipPath>
    <clipPath
       clipPathUnits="userSpaceOnUse"
       id="clipPath26">
      <path
         d="M 0,372.266 H 500 V 0 H 0 Z"
         transform="translate(-181.07751,-108.447)"
         id="path26" />
    </clipPath>
    <clipPath
       clipPathUnits="userSpaceOnUse"
       id="clipPath28">
      <path
         d="M 0,372.266 H 500 V 0 H 0 Z"
         transform="translate(-195.3793,-170.67161)"
         id="path28" />
    </clipPath>
    <clipPath
       clipPathUnits="userSpaceOnUse"
       id="clipPath30">
      <path
         d="M 0,372.266 H 500 V 0 H 0 Z"
         transform="translate(-153.745,-166.3718)"
         id="path30" />
    </clipPath>
    <clipPath
       clipPathUnits="userSpaceOnUse"
       id="clipPath32">
      <path
         d="M 0,372.266 H 500 V 0 H 0 Z"
         transform="translate(-409.68551,-246.60471)"
         id="path32" />
    </clipPath>
    <clipPath
       clipPathUnits="userSpaceOnUse"
       id="clipPath34">
      <path
         d="M 0,372.266 H 500 V 0 H 0 Z"
         transform="translate(-300.87781,-284.17791)"
         id="path34" />
    </clipPath>
    <clipPath
       clipPathUnits="userSpaceOnUse"
       id="clipPath36">
      <path
         d="M 0,372.266 H 500 V 0 H 0 Z"
         transform="translate(-143.52681,-251.00561)"
         id="path36" />
    </clipPath>
  </defs>
  <sodipodi:namedview
     id="namedview1"
     pagecolor="#ffffff"
     bordercolor="#000000"
     borderopacity="0.25"
     inkscape:showpageshadow="2"
     inkscape:pageopacity="0.0"
     inkscape:pagecheckerboard="0"
     inkscape:deskcolor="#d1d1d1">
    <inkscape:page
       x="0"
       y="0"
       inkscape:label="1"
       id="page1"
       width="666.66669"
       height="496.35468"
       margin="0"
       bleed="0" />
  </sodipodi:namedview>
  <g
     id="layer-MC0"
     inkscape:groupmode="layer"
     inkscape:label="Layer 1">
    <path
       id="path1"
       d="m 0,0 c 4.894,12.547 7.441,25.99 7.441,39.551 0,59.928 -48.754,108.683 -108.682,108.683 -34.925,0 -67.126,-16.686 -87.342,-43.975 -14.012,7.001 -29.565,10.725 -45.455,10.725 -20.991,0 -41.147,-6.349 -58.288,-18.36 -8.888,-6.229 -16.636,-13.735 -23.038,-22.255 -17.194,10.789 -37.268,16.702 -57.836,16.702 -59.928,0 -108.683,-48.755 -108.683,-108.683 0,-24.092 7.724,-46.916 22.336,-66.007 10.206,-13.335 23.493,-24.171 38.472,-31.557 -0.205,-2.623 -0.307,-5.258 -0.307,-7.897 0,-55.669 45.29,-100.959 100.958,-100.959 20.885,0 40.931,6.327 57.972,18.298 10.137,7.121 18.774,15.914 25.603,25.984 11.397,-4.307 23.536,-6.534 35.935,-6.534 31.208,0 60.532,14.581 79.601,38.459 12.554,-5.597 26.177,-8.498 40.267,-8.498 54.679,0 99.163,44.484 99.163,99.162 C 18.117,-36.458 11.765,-16.626 0,0"
       style="fill:#00b3f0;fill-opacity:1;fill-rule:nonzero;stroke:none"
       transform="matrix(1.3333333,0,0,-1.3333333,642.51027,197.646)"
       clip-path="url(#clipPath2)" />
    <path
       id="path3"
       d="m 0,0 c 5.98,12.826 9.115,26.918 9.115,41.162 0,53.688 -43.678,97.366 -97.365,97.366 -34.693,0 -66.385,-18.377 -83.768,-47.706 -14.529,9.386 -31.55,14.456 -49.028,14.456 -18.656,0 -36.566,-5.64 -51.794,-16.312 -10.96,-7.68 -19.968,-17.542 -26.537,-28.964 -17.16,13.703 -38.677,21.363 -60.831,21.363 -53.688,0 -97.366,-43.678 -97.366,-97.365 0,-40.116 24.959,-76.144 61.727,-90.631 -0.815,-4.887 -1.227,-9.848 -1.227,-14.83 0,-49.429 40.213,-89.642 89.641,-89.642 18.544,0 36.341,5.616 51.467,16.241 11.591,8.143 20.975,18.746 27.566,31.059 12.499,-6.276 26.296,-9.552 40.477,-9.552 30.846,0 59.619,16.027 76.091,41.624 13.257,-7.66 28.192,-11.663 43.777,-11.663 48.438,0 87.845,39.407 87.845,87.845 C 19.79,-35.123 12.811,-15.654 0,0"
       style="fill:#ffffff;fill-opacity:1;fill-rule:nonzero;stroke:none"
       transform="matrix(1.3333333,0,0,-1.3333333,625.18867,199.7944)"
       clip-path="url(#clipPath4)" />
    <path
       id="path5"
       d="m 0,0 c 7.066,12.623 11.101,27.174 11.101,42.668 0,48.318 -39.169,87.486 -87.487,87.486 -35.965,0 -66.855,-21.705 -80.301,-52.728 -14.093,12.138 -32.437,19.478 -52.495,19.478 -34.319,0 -63.615,-21.483 -75.188,-51.733 -15.969,17.115 -38.72,27.82 -63.974,27.82 -48.317,0 -87.486,-39.168 -87.486,-87.485 0,-39.96 26.792,-73.661 63.392,-84.124 -1.882,-6.792 -2.892,-13.946 -2.892,-21.337 0,-44.051 35.711,-79.762 79.762,-79.762 34.078,0 63.159,21.375 74.582,51.446 12.832,-8.648 28.29,-13.698 44.927,-13.698 32.058,0 59.734,18.744 72.675,45.869 13.102,-9.979 29.454,-15.908 47.195,-15.908 43.058,0 77.963,34.906 77.963,77.965 C 21.774,-33.06 13.483,-14.015 0,0"
       style="fill:#130c0e;fill-opacity:1;fill-rule:nonzero;stroke:none"
       transform="matrix(1.3333333,0,0,-1.3333333,609.36973,201.80293)"
       clip-path="url(#clipPath6)" />
    <path
       id="path7"
       d="m 0,0 3.043,34.786 -49.177,-10.453 -3.043,-34.786 -34.62,-7.358 -2.851,-32.599 34.619,7.36 -3.043,-34.786 49.176,10.453 3.043,34.785 34.621,7.358 2.851,32.599 z"
       style="fill:#130c0e;fill-opacity:1;fill-rule:nonzero;stroke:none"
       transform="matrix(1.3333333,0,0,-1.3333333,560.64053,247.9116)"
       clip-path="url(#clipPath8)" />
    <path
       id="path9"
       d="m 0,0 3.043,34.786 -32.253,-6.855 -3.043,-34.786 -34.62,-7.359 -1.344,-15.362 34.619,7.358 -3.043,-34.786 32.253,6.857 3.044,34.785 34.619,7.358 1.345,15.363 z"
       style="fill:#fff000;fill-opacity:1;fill-rule:nonzero;stroke:none"
       transform="matrix(1.3333333,0,0,-1.3333333,548.3528,261.80027)"
       clip-path="url(#clipPath10)" />
    <path
       id="path11"
       d="M 0,0 11.96,2.543 C 11.325,-1.623 9.35,-7.096 2.654,-8.519 l -3.464,-0.736 -0.274,-3.137 3.54,0.753 c 4.583,0.975 6.854,2.105 9.772,5.146 0.65,-0.397 1.476,-1.297 1.869,-2.671 l 5.389,1.145 c -0.658,0.986 -3.627,3.193 -5.424,3.602 2.277,3.024 2.736,5.016 3.212,7.212 0.169,0.795 0.583,1.176 1.023,1.269 L 19.113,4.237 19.375,7.236 0.277,3.177 Z"
       style="fill:#ff0000;fill-opacity:1;fill-rule:nonzero;stroke:none"
       transform="matrix(1.3333333,0,0,-1.3333333,510.03373,302.5516)"
       clip-path="url(#clipPath12)" />
    <path
       id="path13"
       d="m 0,0 -18.813,-3.999 -0.269,-3.075 13.771,2.927 c -0.38,-4.354 -4.044,-6.695 -9.22,-7.795 l -5.072,-1.079 -0.271,-3.107 7.06,1.5 c 4.756,1.012 11.843,3.529 12.545,11.553 z m -0.606,1.393 -17.216,-3.66 0.233,2.669 17.216,3.66 z"
       style="fill:#ff0000;fill-opacity:1;fill-rule:nonzero;stroke:none"
       transform="matrix(1.3333333,0,0,-1.3333333,537.3228,272.01387)"
       clip-path="url(#clipPath14)" />
    <path
       id="path15"
       d="M 0,0 C -0.576,-0.123 -1.143,0.245 -1.266,0.822 -1.388,1.398 -1.021,1.964 -0.443,2.087 0.133,2.209 0.699,1.842 0.821,1.265 0.944,0.689 0.576,0.122 0,0 M 2.792,1.684 C 2.438,3.349 0.802,4.411 -0.862,4.057 -2.527,3.704 -3.59,2.067 -3.235,0.403 c 0.104,-0.495 0.334,-0.928 0.632,-1.295 l -17.895,-3.804 -0.277,-3.176 12.037,2.559 c -0.639,-4.166 -2.564,-9.628 -9.341,-11.069 l -3.507,-0.746 -0.274,-3.136 3.584,0.762 c 10.357,2.202 13.301,8.144 14.67,14.402 0.173,0.794 0.588,1.177 1.033,1.272 l 0.826,0.175 0.17,1.944 c 0.598,-0.295 1.292,-0.411 1.996,-0.261 1.664,0.353 2.727,1.99 2.373,3.654"
       style="fill:#ff0000;fill-opacity:1;fill-rule:nonzero;stroke:none"
       transform="matrix(1.3333333,0,0,-1.3333333,542.40227,239.87453)"
       clip-path="url(#clipPath16)" />
    <path
       id="path17"
       d="M 0,0 3.262,0.708 2.533,-6.878 4.754,-6.396 5.482,1.19 8.628,1.873 8.784,3.503 0.156,1.629 Z m 20.063,5.956 -0.885,-9.219 -2.005,-0.435 0.74,7.702 -2.721,-8.133 -2.145,-0.466 -1.193,7.283 -0.74,-7.703 -2.028,-0.44 0.886,9.221 3.169,0.687 1.207,-6.897 0.023,0.004 2.566,7.718 z"
       style="fill:#f15a22;fill-opacity:1;fill-rule:nonzero;stroke:none"
       transform="matrix(1.3333333,0,0,-1.3333333,443.4048,340.122)"
       clip-path="url(#clipPath18)" />
    <path
       id="path19"
       d="m 0,0 -47.987,-10.2 c -2.579,-0.54 -4.27,-2.612 -4.522,-5.494 l -4.663,-53.291 47.987,10.2 c 2.386,0.493 4.252,2.407 4.522,5.494 z m 20.242,14.306 -6.847,-78.271 -90.797,-19.3 6.847,78.272 z m -33.36,-63.286 -5.301,-1.127 c -3.096,-0.659 -4.511,0.418 -4.34,2.367 l 1.083,12.384 9.935,2.111 0.577,6.591 -9.936,-2.112 0.883,10.087 c 0.28,3.201 1.843,4.925 4.387,5.466 l 5.952,1.266 0.537,6.139 -34.097,-7.247 -0.537,-6.14 5.369,1.141 c 3.752,0.797 4.39,-1.049 4.274,-2.368 l -0.994,-11.368 -9.935,-2.111 -0.577,-6.591 9.936,2.111 -0.972,-11.101 c -0.276,-3.16 -1.862,-4.944 -4.321,-5.466 l -6.019,-1.28 -0.534,-6.099 34.097,7.247 z m -4.433,10.454 5.449,1.158 -0.655,-7.488 -5.449,-1.159 z"
       style="fill:#f15a22;fill-opacity:1;fill-rule:nonzero;stroke:none"
       transform="matrix(1.3333333,0,0,-1.3333333,416.25253,266.6988)"
       clip-path="url(#clipPath20)" />
    <path
       id="path21"
       d="m 0,0 c -0.465,0.169 -1.187,0.436 -1.187,0.855 0,0.353 0.322,0.689 1.108,1.477 3.133,3.166 3.485,3.526 5.751,6.088 L 3.956,9.313 C 2.83,7.899 2.397,7.422 -0.848,3.931 -2.519,2.132 -3.322,1.123 -3.323,0.3 -3.324,-0.773 -2.168,-1.233 -0.868,-1.745 1.554,-2.689 3.863,-3.827 6.029,-5.212 L 7.62,-3.481 C 6.161,-2.482 2.358,-0.841 0,0"
       style="fill:#f15a22;fill-opacity:1;fill-rule:nonzero;stroke:none"
       transform="matrix(1.3333333,0,0,-1.3333333,401.4244,242.28213)"
       clip-path="url(#clipPath22)" />
    <path
       id="path23"
       d="m 0,0 1.174,-0.96 c 1.89,1.611 3.342,2.636 5.397,3.447 l 0.001,1.67 C 5.529,3.935 0.378,2.824 -0.779,2.578 -1.595,2.404 -3.616,1.975 -4.105,1.887 l -0.002,-1.925 c 1.044,0.29 2.446,0.622 5.804,1.387 C 0.636,0.579 0.522,0.485 0,0 m 2.618,-8.303 c -2.446,-0.52 -5.576,-1.151 -5.574,1.064 10e-4,0.359 0.067,1.616 1.437,3.287 l -1.32,0.742 c -1.19,-1.65 -1.909,-2.876 -1.91,-4.444 -0.001,-1.346 0.862,-2.458 1.987,-2.78 1.385,-0.404 2.771,-0.264 5.981,0.419 2.527,0.537 3.668,0.933 4.238,1.14 L 7.394,-6.981 C 5.813,-7.555 4.215,-7.963 2.618,-8.303 m 4.699,7.081 1.141,0.958 C 8.116,0.396 7.58,1.168 6.929,1.813 L 5.787,0.872 C 6.422,0.173 6.748,-0.269 7.317,-1.222 M 4.906,0.464 C 5.754,-0.43 6.307,-1.437 6.453,-1.712 L 5.312,-2.67 c -0.734,1.326 -1.254,1.897 -1.514,2.199 z"
       style="fill:#f15a22;fill-opacity:1;fill-rule:nonzero;stroke:none"
       transform="matrix(1.3333333,0,0,-1.3333333,352.52333,245.48333)"
       clip-path="url(#clipPath24)" />
    <path
       id="path25"
       d="m 0,0 0.767,8.762 33.857,7.196 1.2,13.723 -33.857,-7.198 1.075,12.288 33.857,7.197 1.198,13.688 -91.45,-19.438 -1.197,-13.689 33.305,7.079 -1.074,-12.287 -33.306,-7.079 -1.201,-13.722 33.306,7.079 -0.444,-5.074 c -1.422,-16.25 -10.748,-22.058 -24.395,-24.968 l -10.674,-2.269 -1.203,-13.753 23.245,4.942 c 17.854,3.787 24.524,9.413 32.855,25.259 3.65,-1.834 13.33,-9.505 17.078,-14.646 l 24.042,5.11 C 30.654,-13.456 6.563,-1.893 0,0"
       style="fill:#faa61a;fill-opacity:1;fill-rule:nonzero;stroke:none"
       transform="matrix(1.3333333,0,0,-1.3333333,241.43667,351.75867)"
       clip-path="url(#clipPath26)" />
    <path
       id="path27"
       d="m 0,0 c -0.346,-3.792 -1.189,-5.392 -2.483,-5.667 -1.375,-0.292 -1.372,1.247 -1.371,1.737 v 0.728 c 0.003,1.218 -0.057,3.824 -2.66,3.271 -1.1,-0.234 -1.732,-0.841 -2.088,-1.187 0.277,0.971 1.772,5.7 2.098,6.784 L -8.541,5.622 C -9.258,3.069 -11.535,-5.072 -12.804,-9.331 l 1.859,-0.162 c 0.114,0.48 0.928,3.882 0.961,3.972 0.342,1.02 1.267,3.279 3.095,3.667 1.213,0.258 1.211,-0.84 1.209,-1.922 l -0.001,-0.576 c -0.001,-0.372 0.046,-1.376 0.27,-1.954 0.355,-0.922 1.389,-1.548 2.715,-1.265 2.975,0.632 3.949,3.324 4.394,7.408 z"
       style="fill:#faa61a;fill-opacity:1;fill-rule:nonzero;stroke:none"
       transform="matrix(1.3333333,0,0,-1.3333333,260.50573,268.79253)"
       clip-path="url(#clipPath28)" />
    <path
       id="path29"
       d="M 0,0 C 0.742,0.535 1.704,1.136 3.122,1.437 3.8,1.581 4.163,1.626 4.494,1.663 L 4.465,3.519 C 2.841,3.107 -4.395,1.273 -5.75,0.919 -6.838,0.639 -8.021,0.321 -9.108,0.09 l 0.059,-1.865 c 2.445,0.733 4.887,1.45 7.347,2.122 -3.52,-2.99 -4.359,-5.739 -4.362,-7.436 -0.002,-1.533 0.924,-2.901 2.341,-3.358 1.434,-0.47 3.12,-0.524 6.51,0.18 l 0.255,2.016 C -1.499,-9.364 -4.255,-9.062 -4.251,-6.556 -4.247,-4.331 -2.241,-1.646 0,0"
       style="fill:#faa61a;fill-opacity:1;fill-rule:nonzero;stroke:none"
       transform="matrix(1.3333333,0,0,-1.3333333,204.99333,274.5256)"
       clip-path="url(#clipPath30)" />
    <path
       id="path31"
       d="m 0,0 -3.615,-0.769 c -2.366,-0.509 -4.842,0.398 -6.366,3.137 l -6.995,12.571 -23.966,-5.094 9.197,-16.593 -29.562,-6.283 22.412,55.471 c 0.98,2.424 2.471,3.867 4.378,4.286 l 6.015,1.278 0.829,9.48 -29.521,-6.275 -26.612,-65.865 c -1.031,-2.551 -2.695,-3.731 -4.389,-4.091 l -3.66,-0.777 -1.199,-13.705 99.723,21.197 z"
       style="fill:#f15a22;fill-opacity:1;fill-rule:nonzero;stroke:none"
       transform="matrix(1.3333333,0,0,-1.3333333,546.24733,167.5484)"
       clip-path="url(#clipPath32)" />
    <path
       id="path33"
       d="m 0,0 c -0.68,3.418 -4.052,5.577 -7.411,4.827 -3.423,-0.744 -5.513,-4.057 -4.827,-7.411 0.744,-3.423 4.057,-5.513 7.411,-4.828 C -1.403,-6.667 0.75,-3.359 0,0 m -30.505,-62.69 c 10.108,13.297 12.14,22.044 14.248,31.688 0.747,3.491 2.586,5.169 4.537,5.583 l 3.626,0.771 1.152,13.162 -84.864,-18.038 -1.22,-13.943 53.147,11.297 c -2.802,-18.291 -11.557,-42.332 -41.309,-48.657 l -15.393,-3.272 -1.204,-13.767 15.733,3.346 c 20.365,4.327 30.45,9.315 43.408,22.695 2.891,-1.731 6.568,-5.672 8.32,-11.701 l 23.951,5.091 c -2.931,4.319 -16.139,13.97 -24.132,15.745 m 3.263,56.917 c -0.686,3.354 1.409,6.731 4.827,7.411 3.353,0.685 6.661,-1.468 7.411,-4.827 0.686,-3.354 -1.403,-6.667 -4.827,-7.412 -3.354,-0.686 -6.661,1.468 -7.411,4.828"
       style="fill:#faa61a;fill-opacity:1;fill-rule:nonzero;stroke:none"
       transform="matrix(1.3333333,0,0,-1.3333333,401.1704,117.4508)"
       clip-path="url(#clipPath34)" />
    <path
       id="path35"
       d="m 0,0 -0.891,-10.179 2.089,0.444 c 3.145,0.668 4.549,-0.467 4.381,-2.38 L 2.416,-48.27 c -0.805,-9.203 -5.043,-15.654 -13.043,-17.365 l -41.638,-8.849 -1.197,-13.695 58.225,12.376 c 11.783,2.465 20.021,12.284 21.213,25.916 l 3.645,41.658 c 0.252,2.88 1.41,4.835 4.363,5.463 l 2.561,0.544 0.891,10.179 z m -24.955,-53.684 -32.894,-6.991 0.889,10.158 2.708,0.576 c 2.912,0.619 4.122,2.66 4.37,5.498 l 1.831,20.925 c 0.167,1.912 -1.228,3.054 -4.378,2.384 l -1.997,-0.424 0.89,10.179 32.894,6.991 -0.89,-10.178 -2.701,-0.575 c -2.921,-0.621 -4.13,-2.667 -4.376,-5.479 l -1.83,-20.925 c -0.169,-1.924 1.241,-3.071 4.381,-2.403 l 1.992,0.423 z"
       style="fill:#f15a22;fill-opacity:1;fill-rule:nonzero;stroke:none"
       transform="matrix(1.3333333,0,0,-1.3333333,191.36907,161.68053)"
       clip-path="url(#clipPath36)" />
  </g>
</svg>
