<?xml version="1.0" encoding="UTF-8" standalone="no"?>
<!-- Created with Inkscape (http://www.inkscape.org/) -->

<svg
   version="1.1"
   id="svg1"
   width="666.66669"
   height="486.59732"
   viewBox="0 0 666.66669 486.59732"
   sodipodi:docname="HS Levels Logo (Wordmark).ai"
   xmlns:inkscape="http://www.inkscape.org/namespaces/inkscape"
   xmlns:sodipodi="http://sodipodi.sourceforge.net/DTD/sodipodi-0.dtd"
   xmlns="http://www.w3.org/2000/svg"
   xmlns:svg="http://www.w3.org/2000/svg">
  <defs
     id="defs1">
    <clipPath
       clipPathUnits="userSpaceOnUse"
       id="clipPath2">
      <path
         d="M 0,364.948 H 500 V 0 H 0 Z"
         transform="translate(-470.70771,-181.79131)"
         id="path2" />
    </clipPath>
    <clipPath
       clipPathUnits="userSpaceOnUse"
       id="clipPath4">
      <path
         d="M 0,364.948 H 500 V 0 H 0 Z"
         transform="translate(-358.34491,-112.0222)"
         id="path4" />
    </clipPath>
    <clipPath
       clipPathUnits="userSpaceOnUse"
       id="clipPath6">
      <path
         d="M 0,364.948 H 500 V 0 H 0 Z"
         transform="translate(-319.03091,-161.3093)"
         id="path6" />
    </clipPath>
    <clipPath
       clipPathUnits="userSpaceOnUse"
       id="clipPath8">
      <path
         d="M 0,364.948 H 500 V 0 H 0 Z"
         transform="translate(-207.09831,-164.7595)"
         id="path8" />
    </clipPath>
    <clipPath
       clipPathUnits="userSpaceOnUse"
       id="clipPath10">
      <path
         d="M 0,364.948 H 500 V 0 H 0 Z"
         transform="translate(-154.9518,-123.42901)"
         id="path10" />
    </clipPath>
    <clipPath
       clipPathUnits="userSpaceOnUse"
       id="clipPath12">
      <path
         d="M 0,364.948 H 500 V 0 H 0 Z"
         transform="translate(-29.5993,-36.125201)"
         id="path12" />
    </clipPath>
    <clipPath
       clipPathUnits="userSpaceOnUse"
       id="clipPath14">
      <path
         d="M 0,364.948 H 500 V 0 H 0 Z"
         transform="translate(-291.85221,-305.40311)"
         id="path14" />
    </clipPath>
    <clipPath
       clipPathUnits="userSpaceOnUse"
       id="clipPath16">
      <path
         d="M 0,364.948 H 500 V 0 H 0 Z"
         transform="translate(-149.1979,-326.55831)"
         id="path16" />
    </clipPath>
  </defs>
  <sodipodi:namedview
     id="namedview1"
     pagecolor="#ffffff"
     bordercolor="#000000"
     borderopacity="0.25"
     inkscape:showpageshadow="2"
     inkscape:pageopacity="0.0"
     inkscape:pagecheckerboard="0"
     inkscape:deskcolor="#d1d1d1">
    <inkscape:page
       x="0"
       y="0"
       inkscape:label="1"
       id="page1"
       width="666.66669"
       height="486.59732"
       margin="0"
       bleed="0" />
  </sodipodi:namedview>
  <g
     id="layer-MC0"
     inkscape:groupmode="layer"
     inkscape:label="Layer 1">
    <path
       id="path1"
       d="m 0,0 v 0.001 l -31.699,-7.318 v 13.06 l 56.281,12.993 c 2.98,0.688 4.469,4.639 2.357,6.254 L 3.261,43.106 -31.699,35.035 -60.992,4.799 V -19.898 L -31.699,-36.609 0,-29.291 v -13.061 l -56.281,-12.994 c -2.98,-0.688 -4.469,-4.638 -2.358,-6.253 L -34.959,-79.715 0,-71.644 v 0.001 l 29.292,30.236 v 24.697 z"
       style="fill:#000000;fill-opacity:1;fill-rule:nonzero;stroke:none"
       transform="matrix(1.3333333,0,0,-1.3333333,627.61027,244.20893)"
       clip-path="url(#clipPath2)" />
    <path
       id="path3"
       d="M 0,0 V 87.655 L -29.6,80.822 V -36.125 L 43.019,-19.36 V 9.932 Z"
       style="fill:#000000;fill-opacity:1;fill-rule:nonzero;stroke:none"
       transform="matrix(1.3333333,0,0,-1.3333333,477.7932,337.2344)"
       clip-path="url(#clipPath4)" />
    <path
       id="path5"
       d="M 0,0 V 29.292 L -43.326,19.29 -72.619,-10.947 v -70 L -43.326,-97.658 0,-87.655 v 29.292 l -43.326,-10.003 v 16.012 L 0,-42.352 v 29.292 l -43.326,-10.002 v 13.06 z"
       style="fill:#000000;fill-opacity:1;fill-rule:nonzero;stroke:none"
       transform="matrix(1.3333333,0,0,-1.3333333,425.37453,271.51827)"
       clip-path="url(#clipPath6)" />
    <path
       id="path7"
       d="m 0,0 v -87.655 l -13.42,-3.098 v 87.655 l -29.6,-6.834 V -126.879 L 0,-116.947 29.599,-86.955 V 6.833 Z"
       style="fill:#000000;fill-opacity:1;fill-rule:nonzero;stroke:none"
       transform="matrix(1.3333333,0,0,-1.3333333,276.13107,266.918)"
       clip-path="url(#clipPath8)" />
    <path
       id="path9"
       d="M 0,0 V 29.292 L -43.326,19.289 -72.619,-10.947 v -70 L -43.326,-97.658 0,-87.655 v 29.291 l -43.326,-10.002 v 16.012 L 0,-42.352 v 29.292 l -43.326,-10.002 v 13.059 z"
       style="fill:#000000;fill-opacity:1;fill-rule:nonzero;stroke:none"
       transform="matrix(1.3333333,0,0,-1.3333333,206.6024,322.02533)"
       clip-path="url(#clipPath10)" />
    <path
       id="path11"
       d="M 0,0 V 87.656 L -29.599,80.822 V -36.125 L 43.02,-19.36 V 9.932 Z"
       style="fill:#000000;fill-opacity:1;fill-rule:nonzero;stroke:none"
       transform="matrix(1.3333333,0,0,-1.3333333,39.465733,438.4304)"
       clip-path="url(#clipPath12)" />
    <path
       id="path13"
       d="m 0,0 v 0.001 l -43.787,-10.108 v 18.04 l 77.743,17.948 c 4.117,0.951 6.174,6.408 3.257,8.64 L 4.504,59.544 -43.787,48.396 -84.251,6.629 V -27.487 L -43.787,-50.57 0,-40.461 v -18.042 l -77.743,-17.949 c -4.117,-0.95 -6.175,-6.407 -3.257,-8.639 L -48.292,-110.115 0,-98.966 v 10e-4 l 40.463,41.767 v 34.115 z"
       style="fill:#000000;fill-opacity:1;fill-rule:nonzero;stroke:none"
       transform="matrix(1.3333333,0,0,-1.3333333,389.13627,79.3932)"
       clip-path="url(#clipPath14)" />
    <path
       id="path15"
       d="m 0,0 c 0,-21.187 0.107,-37.044 -2.795,-47.435 -1.764,-6.311 -5.644,-11.115 -10.827,-14.752 -5.278,-3.704 -10.57,-5.327 -15.753,-5.429 -6.319,-0.125 -10.938,3.313 -11.613,10.335 -0.97,10.087 -0.906,22.834 -0.906,40.497 l -22.936,-5.295 v -156.23 l 31.505,7.273 c 0,19.883 0.408,34.538 2.858,43.679 1.67,6.23 6.213,11.486 10.799,14.584 5.359,3.619 10.291,5.43 15.483,5.514 6.311,0.102 11.103,-3.156 11.699,-9.449 0.872,-9.22 0.929,-21.759 0.929,-38.869 l 23.345,5.39 V 7.339 Z"
       style="fill:#000000;fill-opacity:1;fill-rule:nonzero;stroke:none"
       transform="matrix(1.3333333,0,0,-1.3333333,198.93053,51.186267)"
       clip-path="url(#clipPath16)" />
  </g>
</svg>
