<?xml version="1.0" encoding="UTF-8" standalone="no"?>
<!-- Created with Inkscape (http://www.inkscape.org/) -->

<svg
   version="1.1"
   id="svg1"
   width="666.66669"
   height="477.08133"
   viewBox="0 0 666.66669 477.08133"
   sodipodi:docname="Paradise Studio Logo (Print).ai"
   xmlns:inkscape="http://www.inkscape.org/namespaces/inkscape"
   xmlns:sodipodi="http://sodipodi.sourceforge.net/DTD/sodipodi-0.dtd"
   xmlns="http://www.w3.org/2000/svg"
   xmlns:svg="http://www.w3.org/2000/svg">
  <defs
     id="defs1">
    <clipPath
       clipPathUnits="userSpaceOnUse"
       id="clipPath2">
      <path
         d="M 0,357.811 H 500 V 0 H 0 Z"
         transform="translate(-390.30111,-271.15561)"
         id="path2" />
    </clipPath>
    <clipPath
       clipPathUnits="userSpaceOnUse"
       id="clipPath4">
      <path
         d="M 0,357.811 H 500 V 0 H 0 Z"
         transform="translate(-273.6028,-225.72451)"
         id="path4" />
    </clipPath>
    <clipPath
       clipPathUnits="userSpaceOnUse"
       id="clipPath6">
      <path
         d="M 0,357.811 H 500 V 0 H 0 Z"
         transform="translate(-144.4671,-196.11511)"
         id="path6" />
    </clipPath>
    <clipPath
       clipPathUnits="userSpaceOnUse"
       id="clipPath8">
      <path
         d="M 0,357.811 H 500 V 0 H 0 Z"
         transform="translate(-392.82061,-357.81141)"
         id="path8" />
    </clipPath>
    <clipPath
       clipPathUnits="userSpaceOnUse"
       id="clipPath10">
      <path
         d="M 0,357.811 H 500 V 0 H 0 Z"
         transform="translate(-249.57841,-322.77771)"
         id="path10" />
    </clipPath>
    <clipPath
       clipPathUnits="userSpaceOnUse"
       id="clipPath12">
      <path
         d="M 0,357.811 H 500 V 0 H 0 Z"
         transform="translate(-107.1795,-297.10431)"
         id="path12" />
    </clipPath>
    <clipPath
       clipPathUnits="userSpaceOnUse"
       id="clipPath14">
      <path
         d="M 0,357.811 H 500 V 0 H 0 Z"
         transform="translate(-390.30111,-259.75381)"
         id="path14" />
    </clipPath>
    <clipPath
       clipPathUnits="userSpaceOnUse"
       id="clipPath16">
      <path
         d="M 0,357.811 H 500 V 0 H 0 Z"
         transform="translate(-273.6028,-214.3226)"
         id="path16" />
    </clipPath>
    <clipPath
       clipPathUnits="userSpaceOnUse"
       id="clipPath18">
      <path
         d="M 0,357.811 H 500 V 0 H 0 Z"
         transform="translate(-144.4671,-184.7132)"
         id="path18" />
    </clipPath>
    <clipPath
       clipPathUnits="userSpaceOnUse"
       id="clipPath20">
      <path
         d="M 0,357.811 H 500 V 0 H 0 Z"
         transform="translate(-392.82061,-346.40951)"
         id="path20" />
    </clipPath>
    <clipPath
       clipPathUnits="userSpaceOnUse"
       id="clipPath22">
      <path
         d="M 0,357.811 H 500 V 0 H 0 Z"
         transform="translate(-249.57841,-311.37581)"
         id="path22" />
    </clipPath>
    <clipPath
       clipPathUnits="userSpaceOnUse"
       id="clipPath24">
      <path
         d="M 0,357.811 H 500 V 0 H 0 Z"
         transform="translate(-107.1795,-285.70251)"
         id="path24" />
    </clipPath>
    <clipPath
       clipPathUnits="userSpaceOnUse"
       id="clipPath26">
      <path
         d="M 0,357.811 H 500 V 0 H 0 Z"
         transform="translate(-390.30111,-250.6322)"
         id="path26" />
    </clipPath>
    <clipPath
       clipPathUnits="userSpaceOnUse"
       id="clipPath28">
      <path
         d="M 0,357.811 H 500 V 0 H 0 Z"
         transform="translate(-273.6028,-205.2005)"
         id="path28" />
    </clipPath>
    <clipPath
       clipPathUnits="userSpaceOnUse"
       id="clipPath30">
      <path
         d="M 0,357.811 H 500 V 0 H 0 Z"
         transform="translate(-144.4671,-175.5916)"
         id="path30" />
    </clipPath>
    <clipPath
       clipPathUnits="userSpaceOnUse"
       id="clipPath32">
      <path
         d="M 0,357.811 H 500 V 0 H 0 Z"
         transform="translate(-392.82061,-337.28791)"
         id="path32" />
    </clipPath>
    <clipPath
       clipPathUnits="userSpaceOnUse"
       id="clipPath34">
      <path
         d="M 0,357.811 H 500 V 0 H 0 Z"
         transform="translate(-249.57841,-302.25421)"
         id="path34" />
    </clipPath>
    <clipPath
       clipPathUnits="userSpaceOnUse"
       id="clipPath36">
      <path
         d="M 0,357.811 H 500 V 0 H 0 Z"
         transform="translate(-107.179,-276.58091)"
         id="path36" />
    </clipPath>
    <clipPath
       clipPathUnits="userSpaceOnUse"
       id="clipPath38">
      <path
         d="M 0,357.811 H 500 V 0 H 0 Z"
         id="path38" />
    </clipPath>
    <clipPath
       clipPathUnits="userSpaceOnUse"
       id="clipPath40">
      <path
         d="M 0,357.811 H 500 V 0 H 0 Z"
         transform="translate(-425.38411,-143.95)"
         id="path40" />
    </clipPath>
    <clipPath
       clipPathUnits="userSpaceOnUse"
       id="clipPath42">
      <path
         d="M 0,357.811 H 500 V 0 H 0 Z"
         transform="translate(-375.85961,-172.89781)"
         id="path42" />
    </clipPath>
    <clipPath
       clipPathUnits="userSpaceOnUse"
       id="clipPath44">
      <path
         d="M 0,357.811 H 500 V 0 H 0 Z"
         transform="translate(-294.1072,-147.2171)"
         id="path44" />
    </clipPath>
    <clipPath
       clipPathUnits="userSpaceOnUse"
       id="clipPath46">
      <path
         d="M 0,357.811 H 500 V 0 H 0 Z"
         transform="translate(-246.4261,-163.2826)"
         id="path46" />
    </clipPath>
    <clipPath
       clipPathUnits="userSpaceOnUse"
       id="clipPath48">
      <path
         d="M 0,357.811 H 500 V 0 H 0 Z"
         transform="translate(-207.8167,-154.36951)"
         id="path48" />
    </clipPath>
    <clipPath
       clipPathUnits="userSpaceOnUse"
       id="clipPath50">
      <path
         d="M 0,357.811 H 500 V 0 H 0 Z"
         transform="translate(-145.2498,-110.6209)"
         id="path50" />
    </clipPath>
    <clipPath
       clipPathUnits="userSpaceOnUse"
       id="clipPath52">
      <path
         d="M 0,357.811 H 500 V 0 H 0 Z"
         transform="translate(-419.22541,-268.05701)"
         id="path52" />
    </clipPath>
    <clipPath
       clipPathUnits="userSpaceOnUse"
       id="clipPath54">
      <path
         d="M 0,357.811 H 500 V 0 H 0 Z"
         transform="translate(-381.89381,-225.37441)"
         id="path54" />
    </clipPath>
    <clipPath
       clipPathUnits="userSpaceOnUse"
       id="clipPath56">
      <path
         d="M 0,357.811 H 500 V 0 H 0 Z"
         transform="translate(-333.77271,-215.59901)"
         id="path56" />
    </clipPath>
    <clipPath
       clipPathUnits="userSpaceOnUse"
       id="clipPath58">
      <path
         d="M 0,357.811 H 500 V 0 H 0 Z"
         transform="translate(-297.89821,-209.26351)"
         id="path58" />
    </clipPath>
    <clipPath
       clipPathUnits="userSpaceOnUse"
       id="clipPath60">
      <path
         d="M 0,357.811 H 500 V 0 H 0 Z"
         transform="translate(-253.0618,-200.07311)"
         id="path60" />
    </clipPath>
    <clipPath
       clipPathUnits="userSpaceOnUse"
       id="clipPath62">
      <path
         d="M 0,357.811 H 500 V 0 H 0 Z"
         transform="translate(-193.12431,-202.1156)"
         id="path62" />
    </clipPath>
    <clipPath
       clipPathUnits="userSpaceOnUse"
       id="clipPath64">
      <path
         d="M 0,357.811 H 500 V 0 H 0 Z"
         transform="translate(-148.17171,-176.0414)"
         id="path64" />
    </clipPath>
    <clipPath
       clipPathUnits="userSpaceOnUse"
       id="clipPath66">
      <path
         d="M 0,357.811 H 500 V 0 H 0 Z"
         transform="translate(-92.323,-185.5067)"
         id="path66" />
    </clipPath>
  </defs>
  <sodipodi:namedview
     id="namedview1"
     pagecolor="#ffffff"
     bordercolor="#000000"
     borderopacity="0.25"
     inkscape:showpageshadow="2"
     inkscape:pageopacity="0.0"
     inkscape:pagecheckerboard="0"
     inkscape:deskcolor="#d1d1d1">
    <inkscape:page
       x="0"
       y="0"
       inkscape:label="1"
       id="page1"
       width="666.66669"
       height="477.08133"
       margin="0"
       bleed="0" />
  </sodipodi:namedview>
  <g
     id="layer-MC0"
     inkscape:groupmode="layer"
     inkscape:label="Layer 1">
    <path
       id="path1"
       d="m 0,0 c -59.099,0 -107.179,-48.081 -107.179,-107.179 0,-59.099 48.08,-107.179 107.179,-107.179 59.099,0 107.179,48.08 107.179,107.179 C 107.179,-48.081 59.099,0 0,0"
       style="fill:#000000;fill-opacity:1;fill-rule:nonzero;stroke:none"
       transform="matrix(1.3333333,0,0,-1.3333333,520.40147,115.54053)"
       clip-path="url(#clipPath2)" />
    <path
       id="path3"
       d="m 0,0 c -54.069,0 -98.058,-43.988 -98.058,-98.058 0,-54.069 43.989,-98.057 98.058,-98.057 54.069,0 98.058,43.988 98.058,98.057 C 98.058,-43.988 54.069,0 0,0"
       style="fill:#000000;fill-opacity:1;fill-rule:nonzero;stroke:none"
       transform="matrix(1.3333333,0,0,-1.3333333,364.80373,176.11533)"
       clip-path="url(#clipPath4)" />
    <path
       id="path5"
       d="m 0,0 c -54.069,0 -98.058,-43.988 -98.058,-98.058 0,-54.069 43.989,-98.057 98.058,-98.057 54.069,0 98.058,43.988 98.058,98.057 C 98.058,-43.988 54.069,0 0,0"
       style="fill:#000000;fill-opacity:1;fill-rule:nonzero;stroke:none"
       transform="matrix(1.3333333,0,0,-1.3333333,192.6228,215.59453)"
       clip-path="url(#clipPath6)" />
    <path
       id="path7"
       d="m 0,0 c -59.099,0 -107.179,-48.081 -107.179,-107.179 0,-59.099 48.08,-107.179 107.179,-107.179 59.099,0 107.179,48.08 107.179,107.179 C 107.179,-48.081 59.099,0 0,0"
       style="fill:#000000;fill-opacity:1;fill-rule:nonzero;stroke:none"
       transform="matrix(1.3333333,0,0,-1.3333333,523.7608,-5.3333333e-4)"
       clip-path="url(#clipPath8)" />
    <path
       id="path9"
       d="m 0,0 c -59.099,0 -107.179,-48.081 -107.179,-107.179 0,-59.099 48.08,-107.179 107.179,-107.179 59.099,0 107.179,48.08 107.179,107.179 C 107.179,-48.081 59.099,0 0,0"
       style="fill:#000000;fill-opacity:1;fill-rule:nonzero;stroke:none"
       transform="matrix(1.3333333,0,0,-1.3333333,332.7712,46.711067)"
       clip-path="url(#clipPath10)" />
    <path
       id="path11"
       d="m 0,0 c -59.099,0 -107.18,-48.081 -107.18,-107.179 0,-59.099 48.081,-107.179 107.18,-107.179 59.099,0 107.179,48.08 107.179,107.179 C 107.179,-48.081 59.099,0 0,0"
       style="fill:#000000;fill-opacity:1;fill-rule:nonzero;stroke:none"
       transform="matrix(1.3333333,0,0,-1.3333333,142.906,80.942267)"
       clip-path="url(#clipPath12)" />
    <path
       id="path13"
       d="m 0,0 c -52.812,0 -95.777,-42.966 -95.777,-95.777 0,-52.812 42.965,-95.777 95.777,-95.777 52.812,0 95.777,42.965 95.777,95.777 C 95.777,-42.966 52.812,0 0,0"
       style="fill:#ffffff;fill-opacity:1;fill-rule:nonzero;stroke:none"
       transform="matrix(1.3333333,0,0,-1.3333333,520.40147,130.74293)"
       clip-path="url(#clipPath14)" />
    <path
       id="path15"
       d="m 0,0 c -47.782,0 -86.655,-38.874 -86.655,-86.656 0,-47.782 38.873,-86.656 86.655,-86.656 47.782,0 86.656,38.874 86.656,86.656 C 86.656,-38.874 47.782,0 0,0"
       style="fill:#ffffff;fill-opacity:1;fill-rule:nonzero;stroke:none"
       transform="matrix(1.3333333,0,0,-1.3333333,364.80373,191.31787)"
       clip-path="url(#clipPath16)" />
    <path
       id="path17"
       d="m 0,0 c -47.782,0 -86.655,-38.874 -86.655,-86.656 0,-47.782 38.873,-86.655 86.655,-86.655 47.782,0 86.656,38.873 86.656,86.655 C 86.656,-38.874 47.782,0 0,0"
       style="fill:#ffffff;fill-opacity:1;fill-rule:nonzero;stroke:none"
       transform="matrix(1.3333333,0,0,-1.3333333,192.6228,230.79707)"
       clip-path="url(#clipPath18)" />
    <path
       id="path19"
       d="m 0,0 c -52.812,0 -95.777,-42.966 -95.777,-95.777 0,-52.812 42.965,-95.778 95.777,-95.778 52.812,0 95.777,42.966 95.777,95.778 C 95.777,-42.966 52.812,0 0,0"
       style="fill:#ffffff;fill-opacity:1;fill-rule:nonzero;stroke:none"
       transform="matrix(1.3333333,0,0,-1.3333333,523.7608,15.202)"
       clip-path="url(#clipPath20)" />
    <path
       id="path21"
       d="m 0,0 c -52.812,0 -95.777,-42.966 -95.777,-95.777 0,-52.812 42.965,-95.777 95.777,-95.777 52.812,0 95.777,42.965 95.777,95.777 C 95.777,-42.966 52.812,0 0,0"
       style="fill:#ffffff;fill-opacity:1;fill-rule:nonzero;stroke:none"
       transform="matrix(1.3333333,0,0,-1.3333333,332.7712,61.9136)"
       clip-path="url(#clipPath22)" />
    <path
       id="path23"
       d="m 0,0 c -52.812,0 -95.777,-42.966 -95.777,-95.777 0,-52.812 42.965,-95.778 95.777,-95.778 52.812,0 95.777,42.966 95.777,95.778 C 95.777,-42.966 52.812,0 0,0"
       style="fill:#ffffff;fill-opacity:1;fill-rule:nonzero;stroke:none"
       transform="matrix(1.3333333,0,0,-1.3333333,142.906,96.144667)"
       clip-path="url(#clipPath24)" />
    <path
       id="path25"
       d="m 0,0 c -47.858,0 -86.655,-38.797 -86.655,-86.655 0,-47.859 38.797,-86.656 86.655,-86.656 47.858,0 86.656,38.797 86.656,86.656 C 86.656,-38.797 47.858,0 0,0"
       style="fill:#000000;fill-opacity:1;fill-rule:nonzero;stroke:none"
       transform="matrix(1.3333333,0,0,-1.3333333,520.40147,142.90507)"
       clip-path="url(#clipPath26)" />
    <path
       id="path27"
       d="m 0,0 c -42.821,0 -77.534,-34.713 -77.534,-77.534 0,-42.82 34.713,-77.534 77.534,-77.534 42.821,0 77.534,34.714 77.534,77.534 C 77.534,-34.713 42.821,0 0,0"
       style="fill:#000000;fill-opacity:1;fill-rule:nonzero;stroke:none"
       transform="matrix(1.3333333,0,0,-1.3333333,364.80373,203.48067)"
       clip-path="url(#clipPath28)" />
    <path
       id="path29"
       d="m 0,0 c -42.821,0 -77.534,-34.713 -77.534,-77.534 0,-42.821 34.713,-77.534 77.534,-77.534 42.821,0 77.534,34.713 77.534,77.534 C 77.534,-34.713 42.821,0 0,0"
       style="fill:#000000;fill-opacity:1;fill-rule:nonzero;stroke:none"
       transform="matrix(1.3333333,0,0,-1.3333333,192.6228,242.9592)"
       clip-path="url(#clipPath30)" />
    <path
       id="path31"
       d="m 0,0 c -47.858,0 -86.655,-38.797 -86.655,-86.656 0,-47.858 38.797,-86.655 86.655,-86.655 47.858,0 86.656,38.797 86.656,86.655 C 86.656,-38.797 47.858,0 0,0"
       style="fill:#000000;fill-opacity:1;fill-rule:nonzero;stroke:none"
       transform="matrix(1.3333333,0,0,-1.3333333,523.7608,27.364133)"
       clip-path="url(#clipPath32)" />
    <path
       id="path33"
       d="m 0,0 c -47.858,0 -86.656,-38.797 -86.656,-86.656 0,-47.858 38.798,-86.655 86.656,-86.655 47.858,0 86.655,38.797 86.655,86.655 C 86.655,-38.797 47.858,0 0,0"
       style="fill:#000000;fill-opacity:1;fill-rule:nonzero;stroke:none"
       transform="matrix(1.3333333,0,0,-1.3333333,332.7712,74.075733)"
       clip-path="url(#clipPath34)" />
    <path
       id="path35"
       d="m 0,0 c -47.858,0 -86.655,-38.797 -86.655,-86.656 0,-47.858 38.797,-86.656 86.655,-86.656 47.859,0 86.656,38.798 86.656,86.656 C 86.656,-38.797 47.859,0 0,0"
       style="fill:#000000;fill-opacity:1;fill-rule:nonzero;stroke:none"
       transform="matrix(1.3333333,0,0,-1.3333333,142.90533,108.3068)"
       clip-path="url(#clipPath36)" />
    <path
       id="path37"
       d="m 206.856,148.704 h -28.57 v 30.116 h 28.57 z"
       style="fill:#000000;fill-opacity:1;fill-rule:nonzero;stroke:none"
       transform="matrix(1.3333333,0,0,-1.3333333,0,477.08133)"
       clip-path="url(#clipPath38)" />
    <path
       id="path39"
       d="M 0,0 V -0.001 0 l -22.323,-5.154 h -0.001 V 35.228 L 0,40.381 Z M 0,60.648 -22.324,55.495 -42.803,30.5 V -9.882 L -22.324,-25.421 0,-20.267 20.479,4.728 v 40.381 z"
       style="fill:#ffffff;fill-opacity:1;fill-rule:nonzero;stroke:none"
       transform="matrix(1.3333333,0,0,-1.3333333,567.1788,285.148)"
       clip-path="url(#clipPath40)" />
    <path
       id="path41"
       d="M 0,0 V 20.267 L -42.306,10.5 V -9.767 l 10.913,2.519 v -40.381 l -10.913,-2.519 V -70.416 L 0,-60.648 v 20.267 l -10.913,-2.52 V -2.52 Z"
       style="fill:#ffffff;fill-opacity:1;fill-rule:nonzero;stroke:none"
       transform="matrix(1.3333333,0,0,-1.3333333,501.14613,246.55093)"
       clip-path="url(#clipPath42)" />
    <path
       id="path43"
       d="M 0,0 17.773,-10.157 0,-27.133 Z M 0,27.074 -20.479,22.346 V -58.57 L 0,-53.842 35.508,-17.156 V 6.783 Z"
       style="fill:#ffffff;fill-opacity:1;fill-rule:nonzero;stroke:none"
       transform="matrix(1.3333333,0,0,-1.3333333,392.14293,280.79187)"
       clip-path="url(#clipPath44)" />
    <path
       id="path45"
       d="m 0,0 v -60.648 l -9.285,-2.144 v 60.648 l -20.48,-4.728 V -67.52 L -13.522,-84.037 0,-80.915 20.48,-60.164 V 4.729 Z"
       style="fill:#ffffff;fill-opacity:1;fill-rule:nonzero;stroke:none"
       transform="matrix(1.3333333,0,0,-1.3333333,328.56813,259.3712)"
       clip-path="url(#clipPath46)" />
    <path
       id="path47"
       d="m 0,0 -46.589,-10.756 c -2.063,-0.476 -3.093,-3.209 -1.632,-4.327 l 14.686,-11.236 v -60.297 l 20.48,4.728 v 60.297 L 1.632,-3.573 C 3.093,-1.781 2.062,0.476 0,0"
       style="fill:#ffffff;fill-opacity:1;fill-rule:nonzero;stroke:none"
       transform="matrix(1.3333333,0,0,-1.3333333,277.08893,271.25533)"
       clip-path="url(#clipPath48)" />
    <path
       id="path49"
       d="m 0,0 v 0 l -21.933,-5.062 v 9.036 l 38.94,8.989 c 2.063,0.476 3.093,3.21 1.632,4.328 L 2.256,29.825 -21.933,24.24 -42.2,3.32 V -13.768 L -21.933,-25.33 0,-20.266 v -9.038 l -38.94,-8.989 c -2.063,-0.477 -3.093,-3.21 -1.632,-4.328 L -24.189,-55.155 0,-49.57 v 0 l 20.267,20.92 v 17.088 z"
       style="fill:#ffffff;fill-opacity:1;fill-rule:nonzero;stroke:none"
       transform="matrix(1.3333333,0,0,-1.3333333,193.6664,329.5868)"
       clip-path="url(#clipPath50)" />
    <path
       id="path51"
       d="m 0,0 c 4.675,1.761 14.458,4.392 22.677,6.175 v 25.441 l -41.071,-9.483 v -67.996 l 41.071,9.482 v 11.327 c -5.392,-1.413 -16.568,-3.515 -21.459,-4.342 -5.958,-1 -6.806,6.588 -0.218,8.763 3.783,1.239 10.719,2.891 16.133,4.413 v 8.723 C 12.198,-8.497 5.522,-9.653 0.261,-10.393 -6.262,-11.328 -7.392,-2.783 0,0"
       style="fill:#ffffff;fill-opacity:1;fill-rule:nonzero;stroke:none"
       transform="matrix(1.3333333,0,0,-1.3333333,558.9672,119.672)"
       clip-path="url(#clipPath52)" />
    <path
       id="path53"
       d="m 0,0 c -0.241,2.26 -4.149,2.771 -10.236,4.23 -10.643,2.644 -17.23,8.913 -16.557,19.928 0.715,11.889 6.735,20.18 38.591,25.59 V 25.017 C 0.302,23.579 -6.044,21.429 -8.736,19.227 c -2.87,-2.33 -2.703,-6.145 1.441,-7.529 1.8,-0.601 7.122,-2.379 10.338,-3.457 6.173,-2.057 9.193,-5.212 9.823,-10.796 1.778,-15.752 -26.732,-19.883 -38.487,-21.609 v 13.996 C -11.539,-7.331 0.543,-4.844 0,0"
       style="fill:#ffffff;fill-opacity:1;fill-rule:nonzero;stroke:none"
       transform="matrix(1.3333333,0,0,-1.3333333,509.19173,176.58213)"
       clip-path="url(#clipPath54)" />
    <path
       id="path55"
       d="m 0,0 v 60.617 l 15.328,3.539 V 3.539 Z"
       style="fill:#ffffff;fill-opacity:1;fill-rule:nonzero;stroke:none"
       transform="matrix(1.3333333,0,0,-1.3333333,445.03027,189.616)"
       clip-path="url(#clipPath56)" />
    <path
       id="path57"
       d="m 0,0 c -4.218,-0.976 -6.044,0.435 -6.044,5.37 v 15.567 c 0,3.588 -0.185,6.454 3.218,7.415 7.392,2.087 15.654,-1.87 16.437,-9.915 C 14.524,9.088 9.323,2.152 0,0 M -16.437,51.898 V -14.22 C 15.524,-9.545 29.439,2.805 29.091,27.352 28.787,48.637 7.653,60.334 -16.437,51.898"
       style="fill:#ffffff;fill-opacity:1;fill-rule:nonzero;stroke:none"
       transform="matrix(1.3333333,0,0,-1.3333333,397.1976,198.06333)"
       clip-path="url(#clipPath58)" />
    <path
       id="path59"
       d="m 0,0 -7.719,-1.782 c -1.939,-0.448 -3.044,0.76 -2.804,3.456 0.217,2.522 1.348,7.87 1.783,9.697 0.913,3.783 2.826,5.631 5.022,5.957 3.544,0.566 5.261,-2.022 6.632,-8.544 C 3.044,8.175 3.414,6.849 3.566,5.066 3.87,1.435 2.741,0.633 0,0 M 13.524,28.982 C 9.479,42.245 6.206,45.518 -1.848,43.658 -8.949,42.02 -12.985,38.323 -16.372,25.351 -19.698,12.61 -23.376,-5.598 -26.333,-26.21 l 11.722,2.707 c 0.217,1.63 0.609,3.544 1.174,6.457 0.609,2.935 2.196,5.034 5.349,5.762 l 9.131,2.108 c 2.442,0.563 4.675,-1.369 5.458,-4.631 0.521,-2.174 1.196,-5.258 1.609,-7.323 l 15.524,3.584 c -1.892,15.197 -6.088,33.352 -10.11,46.528"
       style="fill:#ffffff;fill-opacity:1;fill-rule:nonzero;stroke:none"
       transform="matrix(1.3333333,0,0,-1.3333333,337.41573,210.3172)"
       clip-path="url(#clipPath60)" />
    <path
       id="path61"
       d="m 0,0 c -3.982,-0.934 -6.2,1.284 -6.2,6.024 v 4.581 c 0,3.303 0.642,6.17 3.589,7.103 C 5.944,20.419 11.903,16.731 11.903,10.94 11.903,5.528 7.76,1.823 0,0 m 28.839,19.794 c 0,21.05 -20.597,27.162 -45.79,18.162 v -66.223 l 10.737,2.479 v 15.285 c 0,2.597 1.91,2.145 3.675,0.569 1.241,-1.108 8.695,-8.329 13.902,-13.523 l 16.39,3.785 c 0,0 -14.289,14.595 -15.938,16.04 9.599,3.588 17.024,12.94 17.024,23.426"
       style="fill:#ffffff;fill-opacity:1;fill-rule:nonzero;stroke:none"
       transform="matrix(1.3333333,0,0,-1.3333333,257.49907,207.59387)"
       clip-path="url(#clipPath62)" />
    <path
       id="path63"
       d="m 0,0 -7.719,-1.782 c -1.94,-0.447 -3.044,0.761 -2.804,3.456 0.217,2.522 1.348,7.871 1.782,9.698 0.914,3.782 2.827,5.63 5.023,5.957 3.544,0.565 5.261,-2.022 6.631,-8.545 C 3.044,8.175 3.414,6.849 3.565,5.066 3.87,1.435 2.741,0.633 0,0 M 13.523,28.982 C 9.479,42.245 6.206,45.519 -1.848,43.659 -8.949,42.02 -12.985,38.323 -16.372,25.352 c -3.327,-12.741 -7.004,-30.95 -9.961,-51.561 l 11.722,2.706 c 0.217,1.63 0.609,3.544 1.174,6.457 0.609,2.936 2.196,5.034 5.349,5.762 l 9.131,2.108 c 2.441,0.564 4.675,-1.369 5.457,-4.63 0.522,-2.174 1.196,-5.258 1.609,-7.324 l 15.525,3.584 C 21.742,-2.348 17.546,15.807 13.523,28.982"
       style="fill:#ffffff;fill-opacity:1;fill-rule:nonzero;stroke:none"
       transform="matrix(1.3333333,0,0,-1.3333333,197.56227,242.35947)"
       clip-path="url(#clipPath64)" />
    <path
       id="path65"
       d="m 0,0 c -4.827,-1.18 -7.61,0.087 -7.61,4.131 v 14.633 c 0,4.133 2.283,6.74 6.827,7.327 9.111,1.174 13.22,-4.153 13.22,-11.089 C 12.437,9.219 9.023,2.206 0,0 m -30.288,47.204 v -91.647 l 22.7,5.241 v 21.525 c 0,3.935 0.978,5.892 3.327,6.305 21.154,3.722 36.223,14.358 36.223,36.181 0,23.962 -25.744,36.854 -62.25,22.395"
       style="fill:#ffffff;fill-opacity:1;fill-rule:nonzero;stroke:none"
       transform="matrix(1.3333333,0,0,-1.3333333,123.09733,229.73907)"
       clip-path="url(#clipPath66)" />
  </g>
</svg>
