<?xml version="1.0" encoding="UTF-8" standalone="no"?>
<!-- Created with Inkscape (http://www.inkscape.org/) -->

<svg
   version="1.1"
   id="svg2"
   width="666.66669"
   height="472.32132"
   viewBox="0 0 666.66669 472.32132"
   sodipodi:docname="World Studio (세상스튜디오) Logo (Flat).ai"
   xmlns:inkscape="http://www.inkscape.org/namespaces/inkscape"
   xmlns:sodipodi="http://sodipodi.sourceforge.net/DTD/sodipodi-0.dtd"
   xmlns="http://www.w3.org/2000/svg"
   xmlns:svg="http://www.w3.org/2000/svg">
  <defs
     id="defs6">
    <clipPath
       clipPathUnits="userSpaceOnUse"
       id="clipPath16">
      <path
         d="M 0,354.241 H 500 V 0 H 0 Z"
         id="path14" />
    </clipPath>
  </defs>
  <sodipodi:namedview
     id="namedview4"
     pagecolor="#ffffff"
     bordercolor="#000000"
     borderopacity="0.25"
     inkscape:showpageshadow="2"
     inkscape:pageopacity="0.0"
     inkscape:pagecheckerboard="0"
     inkscape:deskcolor="#d1d1d1" />
  <g
     id="g8"
     inkscape:groupmode="layer"
     inkscape:label="World Studio (세상스튜디오) Logo (Flat)"
     transform="matrix(1.3333333,0,0,-1.3333333,0,472.32133)">
    <g
       id="g10">
      <g
         id="g12"
         clip-path="url(#clipPath16)">
        <g
           id="g18"
           transform="translate(402.0451,259.1395)">
          <path
             d="m 0,0 c -54.012,0 -97.955,-43.943 -97.955,-97.955 0,-54.012 43.943,-97.955 97.955,-97.955 54.012,0 97.955,43.943 97.955,97.955 C 97.955,-43.943 54.012,0 0,0"
             style="fill:#0096e6;fill-opacity:1;fill-rule:nonzero;stroke:none"
             id="path20" />
        </g>
        <g
           id="g22"
           transform="translate(307.1508,257.6551)">
          <path
             d="m 0,0 c -54.012,0 -97.955,-43.943 -97.955,-97.955 0,-54.012 43.943,-97.955 97.955,-97.955 54.012,0 97.955,43.943 97.955,97.955 C 97.955,-43.943 54.012,0 0,0"
             style="fill:#0096e6;fill-opacity:1;fill-rule:nonzero;stroke:none"
             id="path24" />
        </g>
        <g
           id="g26"
           transform="translate(200.1239,235.5311)">
          <path
             d="m 0,0 c -54.012,0 -97.955,-43.943 -97.955,-97.955 0,-54.012 43.943,-97.955 97.955,-97.955 54.012,0 97.955,43.943 97.955,97.955 C 97.955,-43.943 54.012,0 0,0"
             style="fill:#0096e6;fill-opacity:1;fill-rule:nonzero;stroke:none"
             id="path28" />
        </g>
        <g
           id="g30"
           transform="translate(97.9549,195.9098)">
          <path
             d="m 0,0 c -54.012,0 -97.955,-43.943 -97.955,-97.955 0,-54.012 43.943,-97.955 97.955,-97.955 54.012,0 97.955,43.943 97.955,97.955 C 97.955,-43.943 54.012,0 0,0"
             style="fill:#0096e6;fill-opacity:1;fill-rule:nonzero;stroke:none"
             id="path32" />
        </g>
        <g
           id="g34"
           transform="translate(276.658,354.2406)">
          <path
             d="m 0,0 c -57.047,0 -103.458,-46.411 -103.458,-103.458 0,-57.047 46.411,-103.458 103.458,-103.458 57.047,0 103.458,46.411 103.458,103.458 C 103.458,-46.411 57.047,0 0,0"
             style="fill:#0096e6;fill-opacity:1;fill-rule:nonzero;stroke:none"
             id="path36" />
        </g>
        <g
           id="g38"
           transform="translate(176.2424,339.2168)">
          <path
             d="m 0,0 c -57.047,0 -103.458,-46.411 -103.458,-103.458 0,-57.047 46.411,-103.458 103.458,-103.458 57.047,0 103.458,46.411 103.458,103.458 C 103.458,-46.411 57.047,0 0,0"
             style="fill:#0096e6;fill-opacity:1;fill-rule:nonzero;stroke:none"
             id="path40" />
        </g>
        <g
           id="g42"
           transform="translate(402.0451,248.7187)">
          <path
             d="m 0,0 c -48.266,0 -87.534,-39.268 -87.534,-87.534 0,-48.267 39.268,-87.534 87.534,-87.534 48.266,0 87.534,39.267 87.534,87.534 C 87.534,-39.268 48.266,0 0,0"
             style="fill:#ffffff;fill-opacity:1;fill-rule:nonzero;stroke:none"
             id="path44" />
        </g>
        <g
           id="g46"
           transform="translate(307.1508,247.2344)">
          <path
             d="m 0,0 c -48.266,0 -87.534,-39.268 -87.534,-87.534 0,-48.267 39.268,-87.534 87.534,-87.534 48.266,0 87.534,39.267 87.534,87.534 C 87.534,-39.268 48.266,0 0,0"
             style="fill:#ffffff;fill-opacity:1;fill-rule:nonzero;stroke:none"
             id="path48" />
        </g>
        <g
           id="g50"
           transform="translate(200.1239,225.1104)">
          <path
             d="m 0,0 c -48.266,0 -87.534,-39.268 -87.534,-87.534 0,-48.267 39.268,-87.534 87.534,-87.534 48.266,0 87.534,39.267 87.534,87.534 C 87.534,-39.268 48.266,0 0,0"
             style="fill:#ffffff;fill-opacity:1;fill-rule:nonzero;stroke:none"
             id="path52" />
        </g>
        <g
           id="g54"
           transform="translate(97.9549,185.4891)">
          <path
             d="m 0,0 c -48.266,0 -87.534,-39.268 -87.534,-87.534 0,-48.267 39.268,-87.534 87.534,-87.534 48.266,0 87.534,39.267 87.534,87.534 C 87.534,-39.268 48.266,0 0,0"
             style="fill:#ffffff;fill-opacity:1;fill-rule:nonzero;stroke:none"
             id="path56" />
        </g>
        <g
           id="g58"
           transform="translate(276.658,343.2344)">
          <path
             d="m 0,0 c -50.978,0 -92.452,-41.474 -92.452,-92.452 0,-50.978 41.474,-92.452 92.452,-92.452 50.978,0 92.452,41.474 92.452,92.452 C 92.452,-41.474 50.978,0 0,0"
             style="fill:#ffffff;fill-opacity:1;fill-rule:nonzero;stroke:none"
             id="path60" />
        </g>
        <g
           id="g62"
           transform="translate(176.2424,328.2106)">
          <path
             d="m 0,0 c -50.978,0 -92.452,-41.474 -92.452,-92.452 0,-50.978 41.474,-92.452 92.452,-92.452 50.978,0 92.452,41.474 92.452,92.452 C 92.452,-41.474 50.978,0 0,0"
             style="fill:#ffffff;fill-opacity:1;fill-rule:nonzero;stroke:none"
             id="path64" />
        </g>
        <g
           id="g66"
           transform="translate(402.045,240.3822)">
          <path
             d="m 0,0 c -43.74,0 -79.198,-35.458 -79.198,-79.198 0,-43.739 35.458,-79.197 79.198,-79.197 43.74,0 79.198,35.458 79.198,79.197 C 79.198,-35.458 43.74,0 0,0"
             style="fill:#000000;fill-opacity:1;fill-rule:nonzero;stroke:none"
             id="path68" />
        </g>
        <g
           id="g70"
           transform="translate(307.1508,238.8978)">
          <path
             d="m 0,0 c -43.74,0 -79.198,-35.458 -79.198,-79.198 0,-43.739 35.458,-79.197 79.198,-79.197 43.74,0 79.198,35.458 79.198,79.197 C 79.198,-35.458 43.74,0 0,0"
             style="fill:#000000;fill-opacity:1;fill-rule:nonzero;stroke:none"
             id="path72" />
        </g>
        <g
           id="g74"
           transform="translate(200.1238,216.7739)">
          <path
             d="m 0,0 c -43.74,0 -79.198,-35.458 -79.198,-79.198 0,-43.739 35.458,-79.197 79.198,-79.197 43.74,0 79.198,35.458 79.198,79.197 C 79.198,-35.458 43.74,0 0,0"
             style="fill:#000000;fill-opacity:1;fill-rule:nonzero;stroke:none"
             id="path76" />
        </g>
        <g
           id="g78"
           transform="translate(97.9548,177.1526)">
          <path
             d="m 0,0 c -43.74,0 -79.198,-35.458 -79.198,-79.198 0,-43.739 35.458,-79.197 79.198,-79.197 43.74,0 79.198,35.458 79.198,79.197 C 79.198,-35.458 43.74,0 0,0"
             style="fill:#000000;fill-opacity:1;fill-rule:nonzero;stroke:none"
             id="path80" />
        </g>
        <g
           id="g82"
           transform="translate(276.6579,334.4296)">
          <path
             d="m 0,0 c -46.197,0 -83.647,-37.45 -83.647,-83.647 0,-46.197 37.45,-83.647 83.647,-83.647 46.197,0 83.647,37.45 83.647,83.647 C 83.647,-37.45 46.197,0 0,0"
             style="fill:#000000;fill-opacity:1;fill-rule:nonzero;stroke:none"
             id="path84" />
        </g>
        <g
           id="g86"
           transform="translate(176.2424,319.4058)">
          <path
             d="m 0,0 c -46.197,0 -83.647,-37.45 -83.647,-83.647 0,-46.197 37.45,-83.647 83.647,-83.647 46.197,0 83.647,37.45 83.647,83.647 C 83.647,-37.45 46.197,0 0,0"
             style="fill:#000000;fill-opacity:1;fill-rule:nonzero;stroke:none"
             id="path88" />
        </g>
        <g
           id="g90"
           transform="translate(380.116,177.9456)">
          <path
             d="M 0,0 C 0,10.475 11.569,21.216 25.839,23.99 40.11,26.764 51.678,20.521 51.678,10.045 51.678,-0.43 40.11,-11.171 25.839,-13.945 11.569,-16.719 0,-10.475 0,0 m 34.461,-37.308 v 14.349 c 19.676,6.629 34.486,21.72 34.486,36.361 0,16.714 -19.3,26.512 -43.108,21.884 -23.807,-4.627 -43.107,-21.928 -43.107,-38.643 0,-14.641 14.81,-23.974 34.486,-22.953 v -14.35 l -41.591,-8.084 V -65 l 100.424,19.521 v 16.255 z"
             style="fill:#c25cbd;fill-opacity:1;fill-rule:nonzero;stroke:none"
             id="path92" />
        </g>
        <g
           id="g94"
           transform="translate(280.7749,174.9672)">
          <path
             d="M 0,0 48.427,9.413 V 23.345 L -14.746,11.066 v -69.383 l 63.177,12.281 v 13.932 L 0,-41.518 Z m 68.347,27.218 v -90.526 l -15.449,-3.003 v 90.526 z"
             style="fill:#c25cbd;fill-opacity:1;fill-rule:nonzero;stroke:none"
             id="path96" />
        </g>
        <g
           id="g98"
           transform="translate(242.0801,133.6458)">
          <path
             d="M 0,0 V 12.932 L -51.018,3.015 v 5.761 l 51.013,9.916 v 10.346 l -51.013,-9.916 v 5.761 l 51.013,9.916 V 47.731 L -65.764,34.949 V -12.783 Z M 17.328,-18.282 -0.45,-21.738 v -21.143 l -17.243,-3.352 v 21.143 l -30.382,-5.905 v -21.144 l -17.243,-3.351 v 21.143 l -17.778,-3.456 v 16.256 l 100.424,19.52 z"
             style="fill:#c25cbd;fill-opacity:1;fill-rule:nonzero;stroke:none"
             id="path100" />
        </g>
        <g
           id="g102"
           transform="translate(102.1721,118.3849)">
          <path
             d="M 0,0 C 10.357,-9.885 26.366,-15.966 44.056,-15.6 V 1.517 c -11.68,1.596 -31.96,11.641 -31.961,29.797 0,0.001 0,0.001 0,0.002 v 6.833 l -24.196,-4.704 v -6.832 c 0,-18.158 -20.281,-36.088 -31.961,-42.224 V -32.729 C -26.373,-26.217 -10.361,-13.911 0,0 m 50.209,-28.713 v -16.256 l -100.424,-19.52 v 16.255 z"
             style="fill:#c25cbd;fill-opacity:1;fill-rule:nonzero;stroke:none"
             id="path104" />
        </g>
        <g
           id="g106"
           transform="translate(262.2036,257.2782)">
          <path
             d="m 0,0 c 0,0 -2.002,-17.065 -23.853,-39.106 l -11.187,9.29 c 11.196,9.067 24.099,29.786 24.099,48.248 v 0.521 c 0,2.218 -1.716,2.215 -3.853,1.8 l -2.159,-0.42 v 6.572 L 7.023,31.566 V 21.924 C 7.023,3.068 17.425,0.037 31.245,-0.099 L 24.371,-10.793 C 3.369,-8.909 0,0 0,0 M 67.148,26.391 V 14.383 L 53.497,11.729 v -22.551 l -18.235,-3.544 v 51.96 c 0,2.339 -1.921,2.316 -4.11,1.89 l -2.198,-0.427 v 6.934 l 24.543,4.77 V 23.737 Z M 18.925,-49.273 c -2.489,0.049 -7.565,0.149 -7.565,7.954 0,8.088 6.458,13.89 13.479,13.891 7.206,0.001 7.712,-4.882 7.712,-7.855 0,-7.287 -6.28,-14.134 -13.626,-13.99 m 18.234,32.165 C 28.696,-15.201 17.802,-15 5.446,-23.416 -2.679,-28.949 -6.777,-35.69 -6.776,-43.414 c 0,-2.783 0.61,-5.545 1.823,-8.201 3.723,-8.152 9.236,-8.59 16.731,-9.185 12.248,-0.972 19.615,2.269 26.958,7.244 8.206,5.567 12.395,12.21 12.395,19.974 0,6.932 -3.557,14.128 -13.972,16.474"
             style="fill:#ffaa00;fill-opacity:1;fill-rule:nonzero;stroke:none"
             id="path108" />
        </g>
        <g
           id="g110"
           transform="translate(188.6723,294.0714)">
          <path
             d="m 0,0 v -6.798 l 1.828,0.355 c 1.82,0.354 3.448,0.595 3.448,-1.745 v -86.573 l 18.382,3.573 V 4.599 Z m -21.534,-21.822 v -6.798 l 1.828,0.355 c 1.82,0.354 3.487,0.678 3.487,-1.662 v -19.811 l -15.418,-2.997 v -10.657 l 15.418,2.997 v -58.708 l 16.911,3.287 v 98.314 z m 2.39,-56.454 -7.885,-10.522 c -15.405,5.028 -19.565,12.691 -19.565,12.691 0,0 -5.834,-10.841 -18.063,-22.055 l -10.201,8.502 c 0,0 18.023,16.828 18.023,33.638 v 12.794 c 0,2.34 -1.911,2.279 -4.048,1.864 l -2.147,-0.418 v 7.393 l 23.606,4.588 v -23.538 c 0,-22.537 20.28,-24.937 20.28,-24.937"
             style="fill:#ff5500;fill-opacity:1;fill-rule:nonzero;stroke:none"
             id="path112" />
        </g>
      </g>
    </g>
  </g>
</svg>
