<?xml version="1.0" encoding="UTF-8" standalone="no"?>
<!-- Created with Inkscape (http://www.inkscape.org/) -->

<svg
   version="1.1"
   id="svg1"
   width="666.66669"
   height="419.16132"
   viewBox="0 0 666.66669 419.16132"
   sodipodi:docname="World Studio (세상스튜디오) Logo (Wordmark).ai"
   xmlns:inkscape="http://www.inkscape.org/namespaces/inkscape"
   xmlns:sodipodi="http://sodipodi.sourceforge.net/DTD/sodipodi-0.dtd"
   xmlns="http://www.w3.org/2000/svg"
   xmlns:svg="http://www.w3.org/2000/svg">
  <defs
     id="defs1">
    <clipPath
       clipPathUnits="userSpaceOnUse"
       id="clipPath2">
      <path
         d="M 0,314.371 H 500 V 0 H 0 Z"
         transform="translate(-405.92611,-153.4468)"
         id="path2" />
    </clipPath>
    <clipPath
       clipPathUnits="userSpaceOnUse"
       id="clipPath4">
      <path
         d="M 0,314.371 H 500 V 0 H 0 Z"
         transform="translate(-283.04331,-149.76271)"
         id="path4" />
    </clipPath>
    <clipPath
       clipPathUnits="userSpaceOnUse"
       id="clipPath6">
      <path
         d="M 0,314.371 H 500 V 0 H 0 Z"
         transform="translate(-235.17811,-98.649005)"
         id="path6" />
    </clipPath>
    <clipPath
       clipPathUnits="userSpaceOnUse"
       id="clipPath8">
      <path
         d="M 0,314.371 H 500 V 0 H 0 Z"
         transform="translate(-62.114602,-79.771504)"
         id="path8" />
    </clipPath>
    <clipPath
       clipPathUnits="userSpaceOnUse"
       id="clipPath10">
      <path
         d="M 0,314.371 H 500 V 0 H 0 Z"
         transform="translate(-260.0707,-251.58011)"
         id="path10" />
    </clipPath>
    <clipPath
       clipPathUnits="userSpaceOnUse"
       id="clipPath12">
      <path
         d="M 0,314.371 H 500 V 0 H 0 Z"
         transform="translate(-169.1136,-297.09231)"
         id="path12" />
    </clipPath>
  </defs>
  <sodipodi:namedview
     id="namedview1"
     pagecolor="#ffffff"
     bordercolor="#000000"
     borderopacity="0.25"
     inkscape:showpageshadow="2"
     inkscape:pageopacity="0.0"
     inkscape:pagecheckerboard="0"
     inkscape:deskcolor="#d1d1d1">
    <inkscape:page
       x="0"
       y="0"
       inkscape:label="1"
       id="page1"
       width="666.66669"
       height="419.16132"
       margin="0"
       bleed="0" />
  </sodipodi:namedview>
  <g
     id="layer-MC0"
     inkscape:groupmode="layer"
     inkscape:label="Layer 1">
    <path
       id="path1"
       d="M 0,0 C 0,12.958 14.311,26.244 31.963,29.675 49.615,33.106 63.926,25.384 63.926,12.426 63.926,-0.532 49.615,-13.818 31.963,-17.249 14.311,-20.68 0,-12.958 0,0 m 42.627,-46.149 v 17.75 c 24.34,8.199 42.659,26.866 42.659,44.977 0,20.675 -23.874,32.796 -53.323,27.071 C 2.514,37.924 -21.36,16.523 -21.36,-4.152 c 0,-18.111 18.319,-29.656 42.658,-28.393 v -17.75 l -51.446,-10 v -20.108 l 124.222,24.146 v 20.108 z"
       style="fill:#000000;fill-opacity:1;fill-rule:nonzero;stroke:none"
       transform="matrix(1.3333333,0,0,-1.3333333,541.2348,214.5656)"
       clip-path="url(#clipPath2)" />
    <path
       id="path3"
       d="m 0,0 59.902,11.644 v 17.234 l -78.143,-15.19 v -85.825 l 78.149,15.191 v 17.234 L 0,-51.357 Z M 84.544,33.668 V -78.311 l -19.11,-3.714 V 29.953 Z"
       style="fill:#000000;fill-opacity:1;fill-rule:nonzero;stroke:none"
       transform="matrix(1.3333333,0,0,-1.3333333,377.39107,219.47773)"
       clip-path="url(#clipPath4)" />
    <path
       id="path5"
       d="M 0,0 V 15.997 L -63.107,3.73 v 7.126 L -0.006,23.122 V 35.919 L -63.107,23.654 V 30.78 L -0.006,43.046 V 59.042 L -81.348,43.231 v -59.044 z m 21.435,-22.615 -21.992,-4.274 v -26.154 l -21.329,-4.146 v 26.154 l -37.582,-7.306 v -26.153 l -21.329,-4.147 v 26.155 l -21.991,-4.275 v 20.108 L 21.435,-2.507 Z"
       style="fill:#000000;fill-opacity:1;fill-rule:nonzero;stroke:none"
       transform="matrix(1.3333333,0,0,-1.3333333,313.5708,287.62933)"
       clip-path="url(#clipPath6)" />
    <path
       id="path7"
       d="M 0,0 C 12.812,-12.228 32.615,-19.749 54.496,-19.297 V 1.877 C 40.049,3.851 14.963,16.276 14.961,38.735 v 0.002 8.452 l -29.93,-5.817 v -8.453 c 0,-22.46 -25.087,-44.639 -39.535,-52.23 V -40.485 C -32.623,-32.43 -12.816,-17.208 0,0 M 62.107,-35.518 V -55.625 L -62.114,-79.771 v 20.107 z"
       style="fill:#000000;fill-opacity:1;fill-rule:nonzero;stroke:none"
       transform="matrix(1.3333333,0,0,-1.3333333,82.819467,312.79933)"
       clip-path="url(#clipPath8)" />
    <path
       id="path9"
       d="m 0,0 c 0,0 -2.477,-21.109 -29.506,-48.374 l -13.838,11.492 c 13.85,11.215 29.811,36.844 29.811,59.682 v 0.644 c 0,2.743 -2.123,2.741 -4.766,2.227 l -2.672,-0.519 v 8.129 L 8.688,39.046 V 27.119 C 8.688,3.795 21.555,0.045 38.65,-0.122 L 30.146,-13.351 C 4.168,-11.02 0,0 0,0 M 83.061,32.645 V 17.791 L 66.175,14.509 v -27.895 l -22.557,-4.385 v 64.273 c 0,2.895 -2.376,2.865 -5.083,2.339 l -2.72,-0.529 v 8.578 l 30.36,5.901 V 29.363 Z M 23.41,-60.95 c -3.079,0.061 -9.358,0.185 -9.358,9.839 0,10.006 7.989,17.182 16.673,17.183 8.914,10e-4 9.541,-6.039 9.541,-9.717 0,-9.013 -7.769,-17.483 -16.856,-17.305 m 22.556,39.788 c -8.589,2.153 -23.858,2.478 -39.23,-7.803 -13.257,-8.867 -17.929,-24.462 -13.22,-35.179 7.215,-16.424 36.143,-14.289 54.4,-2.104 10.202,6.81 15.332,15.103 15.332,24.708 0,8.574 -4.474,17.167 -17.282,20.378"
       style="fill:#000000;fill-opacity:1;fill-rule:nonzero;stroke:none"
       transform="matrix(1.3333333,0,0,-1.3333333,346.76093,83.7212)"
       clip-path="url(#clipPath10)" />
    <path
       id="path11"
       d="m 0,0 v -8.409 l 2.262,0.44 c 2.252,0.437 4.264,0.736 4.264,-2.159 v -107.089 l 22.74,4.42 V 5.688 Z m -26.637,-26.994 v -8.408 l 2.262,0.439 c 2.251,0.438 4.313,0.838 4.313,-2.056 v -24.505 l -19.072,-3.708 v -13.183 l 19.072,3.707 v -72.621 l 20.918,4.067 v 121.613 z m 2.956,-69.832 -9.754,-13.015 c -19.054,6.219 -24.201,15.698 -24.201,15.698 0,0 -7.217,-13.41 -22.343,-27.281 l -12.619,10.516 c 0,0 22.295,20.817 22.295,41.61 v 15.826 c 0,2.894 -2.364,2.819 -5.009,2.305 l -2.655,-0.516 v 9.144 l 29.201,5.676 v -29.116 c 0,-27.878 25.085,-30.847 25.085,-30.847"
       style="fill:#000000;fill-opacity:1;fill-rule:nonzero;stroke:none"
       transform="matrix(1.3333333,0,0,-1.3333333,225.4848,23.038267)"
       clip-path="url(#clipPath12)" />
  </g>
</svg>
