<?xml version="1.0" encoding="UTF-8" standalone="no"?>
<!-- Created with Inkscape (http://www.inkscape.org/) -->

<svg
   version="1.1"
   id="svg2"
   width="2560"
   height="1440"
   viewBox="0 0 2560 1440"
   sodipodi:docname="Rhythm Heaven (Alt).ai"
   xmlns:inkscape="http://www.inkscape.org/namespaces/inkscape"
   xmlns:sodipodi="http://sodipodi.sourceforge.net/DTD/sodipodi-0.dtd"
   xmlns="http://www.w3.org/2000/svg"
   xmlns:svg="http://www.w3.org/2000/svg">
  <defs
     id="defs6">
    <clipPath
       clipPathUnits="userSpaceOnUse"
       id="clipPath18">
      <path
         d="M 0,1080 H 1920 V 0 H 0 Z"
         id="path16" />
    </clipPath>
  </defs>
  <sodipodi:namedview
     id="namedview4"
     pagecolor="#ffffff"
     bordercolor="#000000"
     borderopacity="0.25"
     inkscape:showpageshadow="2"
     inkscape:pageopacity="0.0"
     inkscape:pagecheckerboard="0"
     inkscape:deskcolor="#d1d1d1" />
  <g
     id="g8"
     inkscape:groupmode="layer"
     inkscape:label="Rhythm Heaven (Alt)"
     transform="matrix(1.3333333,0,0,-1.3333333,0,1440)">
    <path
       d="M 0,0 H 1920 V 1080 H 0 Z"
       style="fill:#b67200;fill-opacity:1;fill-rule:nonzero;stroke:none"
       id="path10" />
    <g
       id="g12">
      <g
         id="g14"
         clip-path="url(#clipPath18)">
        <g
           id="g20"
           transform="translate(695.6868,880.899)">
          <path
             d="m 0,0 c 5.187,0 9.391,-4.155 9.391,-9.282 0,-5.126 -4.204,-9.281 -9.391,-9.281 -5.187,0 -9.391,4.155 -9.391,9.281 C -9.391,-4.155 -5.187,0 0,0"
             style="fill:#ffffff;fill-opacity:1;fill-rule:nonzero;stroke:none"
             id="path22" />
        </g>
        <g
           id="g24"
           transform="translate(664.9412,897.4379)">
          <path
             d="m 0,0 c 5.187,0 9.391,-4.156 9.391,-9.282 0,-5.126 -4.204,-9.281 -9.391,-9.281 -5.187,0 -9.391,4.155 -9.391,9.281 C -9.391,-4.156 -5.187,0 0,0"
             style="fill:#ffffff;fill-opacity:1;fill-rule:nonzero;stroke:none"
             id="path26" />
        </g>
        <g
           id="g28"
           transform="translate(632.7212,911.5717)">
          <path
             d="m 0,0 c 5.187,0 9.391,-4.156 9.391,-9.282 0,-5.126 -4.204,-9.281 -9.391,-9.281 -5.187,0 -9.391,4.155 -9.391,9.281 C -9.391,-4.156 -5.187,0 0,0"
             style="fill:#ffffff;fill-opacity:1;fill-rule:nonzero;stroke:none"
             id="path30" />
        </g>
        <g
           id="g32"
           transform="translate(564.6447,927.8592)">
          <path
             d="m 0,0 c 5.187,0 9.391,-4.156 9.391,-9.282 0,-5.126 -4.204,-9.281 -9.391,-9.281 -5.187,0 -9.391,4.155 -9.391,9.281 C -9.391,-4.156 -5.187,0 0,0"
             style="fill:#ffffff;fill-opacity:1;fill-rule:nonzero;stroke:none"
             id="path34" />
        </g>
        <g
           id="g36"
           transform="translate(529.7321,931.0263)">
          <path
             d="m 0,0 c 5.187,0 9.391,-4.156 9.391,-9.282 0,-5.126 -4.204,-9.281 -9.391,-9.281 -5.187,0 -9.391,4.155 -9.391,9.281 C -9.391,-4.156 -5.187,0 0,0"
             style="fill:#ffffff;fill-opacity:1;fill-rule:nonzero;stroke:none"
             id="path38" />
        </g>
        <g
           id="g40"
           transform="translate(494.5399,930.5698)">
          <path
             d="m 0,0 c 5.187,0 9.391,-4.156 9.391,-9.282 0,-5.126 -4.204,-9.281 -9.391,-9.281 -5.187,0 -9.391,4.155 -9.391,9.281 C -9.391,-4.156 -5.187,0 0,0"
             style="fill:#ffffff;fill-opacity:1;fill-rule:nonzero;stroke:none"
             id="path42" />
        </g>
        <g
           id="g44"
           transform="translate(459.6634,926.2033)">
          <path
             d="m 0,0 c 5.187,0 9.391,-4.155 9.391,-9.282 0,-5.126 -4.204,-9.281 -9.391,-9.281 -5.187,0 -9.391,4.155 -9.391,9.281 C -9.391,-4.155 -5.187,0 0,0"
             style="fill:#ffffff;fill-opacity:1;fill-rule:nonzero;stroke:none"
             id="path46" />
        </g>
        <g
           id="g48"
           transform="translate(425.3153,918.1782)">
          <path
             d="m 0,0 c 5.187,0 9.391,-4.156 9.391,-9.282 0,-5.126 -4.204,-9.281 -9.391,-9.281 -5.187,0 -9.391,4.155 -9.391,9.281 C -9.391,-4.156 -5.187,0 0,0"
             style="fill:#ffffff;fill-opacity:1;fill-rule:nonzero;stroke:none"
             id="path50" />
        </g>
        <g
           id="g52"
           transform="translate(392.2102,906.9741)">
          <path
             d="m 0,0 c 5.187,0 9.391,-4.155 9.391,-9.282 0,-5.126 -4.204,-9.281 -9.391,-9.281 -5.187,0 -9.391,4.155 -9.391,9.281 C -9.391,-4.155 -5.187,0 0,0"
             style="fill:#ffffff;fill-opacity:1;fill-rule:nonzero;stroke:none"
             id="path54" />
        </g>
        <g
           id="g56"
           transform="translate(360.4826,892.1214)">
          <path
             d="m 0,0 c 5.187,0 9.391,-4.155 9.391,-9.282 0,-5.126 -4.204,-9.281 -9.391,-9.281 -5.187,0 -9.391,4.155 -9.391,9.281 C -9.391,-4.155 -5.187,0 0,0"
             style="fill:#ffffff;fill-opacity:1;fill-rule:nonzero;stroke:none"
             id="path58" />
        </g>
        <g
           id="g60"
           transform="translate(330.4297,873.8608)">
          <path
             d="m 0,0 c 5.187,0 9.391,-4.156 9.391,-9.282 0,-5.126 -4.204,-9.281 -9.391,-9.281 -5.187,0 -9.391,4.155 -9.391,9.281 C -9.391,-4.156 -5.187,0 0,0"
             style="fill:#ffffff;fill-opacity:1;fill-rule:nonzero;stroke:none"
             id="path62" />
        </g>
        <g
           id="g64"
           transform="translate(302.29,852.9772)">
          <path
             d="m 0,0 c 5.187,0 9.391,-4.156 9.391,-9.282 0,-5.126 -4.204,-9.281 -9.391,-9.281 -5.187,0 -9.391,4.155 -9.391,9.281 C -9.391,-4.156 -5.187,0 0,0"
             style="fill:#ffffff;fill-opacity:1;fill-rule:nonzero;stroke:none"
             id="path66" />
        </g>
        <g
           id="g68"
           transform="translate(276.6942,829.014)">
          <path
             d="m 0,0 c 5.187,0 9.391,-4.156 9.391,-9.282 0,-5.126 -4.204,-9.281 -9.391,-9.281 -5.187,0 -9.391,4.155 -9.391,9.281 C -9.391,-4.156 -5.187,0 0,0"
             style="fill:#ffffff;fill-opacity:1;fill-rule:nonzero;stroke:none"
             id="path70" />
        </g>
        <g
           id="g72"
           transform="translate(253.1758,802.1518)">
          <path
             d="m 0,0 c 5.187,0 9.391,-4.156 9.391,-9.282 0,-5.126 -4.204,-9.281 -9.391,-9.281 -5.187,0 -9.391,4.155 -9.391,9.281 C -9.391,-4.156 -5.187,0 0,0"
             style="fill:#ffffff;fill-opacity:1;fill-rule:nonzero;stroke:none"
             id="path74" />
        </g>
        <g
           id="g76"
           transform="translate(232.4809,773.2465)">
          <path
             d="m 0,0 c 5.187,0 9.391,-4.156 9.391,-9.282 0,-5.126 -4.204,-9.281 -9.391,-9.281 -5.187,0 -9.391,4.155 -9.391,9.281 C -9.391,-4.156 -5.187,0 0,0"
             style="fill:#ffffff;fill-opacity:1;fill-rule:nonzero;stroke:none"
             id="path78" />
        </g>
        <g
           id="g80"
           transform="translate(214.6374,741.1375)">
          <path
             d="m 0,0 c 5.187,0 9.391,-4.155 9.391,-9.282 0,-5.126 -4.204,-9.281 -9.391,-9.281 -5.187,0 -9.391,4.155 -9.391,9.281 C -9.391,-4.155 -5.187,0 0,0"
             style="fill:#ffffff;fill-opacity:1;fill-rule:nonzero;stroke:none"
             id="path82" />
        </g>
        <g
           id="g84"
           transform="translate(200.8639,707.7998)">
          <path
             d="m 0,0 c 5.187,0 9.391,-4.156 9.391,-9.282 0,-5.126 -4.204,-9.281 -9.391,-9.281 -5.187,0 -9.391,4.155 -9.391,9.281 C -9.391,-4.156 -5.187,0 0,0"
             style="fill:#ffffff;fill-opacity:1;fill-rule:nonzero;stroke:none"
             id="path86" />
        </g>
        <g
           id="g88"
           transform="translate(190.5988,673.8427)">
          <path
             d="m 0,0 c 5.187,0 9.391,-4.155 9.391,-9.282 0,-5.126 -4.204,-9.281 -9.391,-9.281 -5.187,0 -9.391,4.155 -9.391,9.281 C -9.391,-4.155 -5.187,0 0,0"
             style="fill:#ffffff;fill-opacity:1;fill-rule:nonzero;stroke:none"
             id="path90" />
        </g>
        <g
           id="g92"
           transform="translate(183.8912,638.3407)">
          <path
             d="m 0,0 c 5.187,0 9.391,-4.156 9.391,-9.282 0,-5.126 -4.204,-9.281 -9.391,-9.281 -5.187,0 -9.391,4.155 -9.391,9.281 C -9.391,-4.156 -5.187,0 0,0"
             style="fill:#ffffff;fill-opacity:1;fill-rule:nonzero;stroke:none"
             id="path94" />
        </g>
        <g
           id="g96"
           transform="translate(186.3891,531.6025)">
          <path
             d="m 0,0 c 5.187,0 9.391,-4.155 9.391,-9.282 0,-5.126 -4.204,-9.281 -9.391,-9.281 -5.187,0 -9.391,4.155 -9.391,9.281 C -9.391,-4.155 -5.187,0 0,0"
             style="fill:#ffffff;fill-opacity:1;fill-rule:nonzero;stroke:none"
             id="path98" />
        </g>
        <g
           id="g100"
           transform="translate(194.8576,496.7966)">
          <path
             d="m 0,0 c 5.187,0 9.391,-4.155 9.391,-9.282 0,-5.126 -4.204,-9.281 -9.391,-9.281 -5.187,0 -9.391,4.155 -9.391,9.281 C -9.391,-4.155 -5.187,0 0,0"
             style="fill:#ffffff;fill-opacity:1;fill-rule:nonzero;stroke:none"
             id="path102" />
        </g>
        <g
           id="g104"
           transform="translate(206.4979,462.9489)">
          <path
             d="m 0,0 c 5.187,0 9.391,-4.155 9.391,-9.282 0,-5.126 -4.204,-9.281 -9.391,-9.281 -5.187,0 -9.391,4.155 -9.391,9.281 C -9.391,-4.155 -5.187,0 0,0"
             style="fill:#ffffff;fill-opacity:1;fill-rule:nonzero;stroke:none"
             id="path106" />
        </g>
        <g
           id="g108"
           transform="translate(225.8489,431.6904)">
          <path
             d="m 0,0 c 5.187,0 9.391,-4.155 9.391,-9.282 0,-5.126 -4.204,-9.281 -9.391,-9.281 -5.187,0 -9.391,4.155 -9.391,9.281 C -9.391,-4.155 -5.187,0 0,0"
             style="fill:#ffffff;fill-opacity:1;fill-rule:nonzero;stroke:none"
             id="path110" />
        </g>
        <g
           id="g112"
           transform="translate(245.8976,401.5958)">
          <path
             d="m 0,0 c 5.187,0 9.391,-4.156 9.391,-9.282 0,-5.126 -4.204,-9.281 -9.391,-9.281 -5.187,0 -9.391,4.155 -9.391,9.281 C -9.391,-4.156 -5.187,0 0,0"
             style="fill:#ffffff;fill-opacity:1;fill-rule:nonzero;stroke:none"
             id="path114" />
        </g>
        <g
           id="g116"
           transform="translate(268.2094,374.5793)">
          <path
             d="m 0,0 c 5.187,0 9.391,-4.156 9.391,-9.282 0,-5.126 -4.204,-9.281 -9.391,-9.281 -5.187,0 -9.391,4.155 -9.391,9.281 C -9.391,-4.156 -5.187,0 0,0"
             style="fill:#ffffff;fill-opacity:1;fill-rule:nonzero;stroke:none"
             id="path118" />
        </g>
        <g
           id="g120"
           transform="translate(292.9967,349.7599)">
          <path
             d="m 0,0 c 5.187,0 9.391,-4.155 9.391,-9.282 0,-5.126 -4.204,-9.281 -9.391,-9.281 -5.187,0 -9.391,4.155 -9.391,9.281 C -9.391,-4.155 -5.187,0 0,0"
             style="fill:#ffffff;fill-opacity:1;fill-rule:nonzero;stroke:none"
             id="path122" />
        </g>
        <g
           id="g124"
           transform="translate(320.1349,327.6397)">
          <path
             d="m 0,0 c 5.187,0 9.391,-4.155 9.391,-9.282 0,-5.126 -4.204,-9.281 -9.391,-9.281 -5.187,0 -9.391,4.155 -9.391,9.281 C -9.391,-4.155 -5.187,0 0,0"
             style="fill:#ffffff;fill-opacity:1;fill-rule:nonzero;stroke:none"
             id="path126" />
        </g>
        <g
           id="g128"
           transform="translate(349.6165,308.7094)">
          <path
             d="m 0,0 c 5.187,0 9.391,-4.156 9.391,-9.282 0,-5.126 -4.204,-9.281 -9.391,-9.281 -5.187,0 -9.391,4.155 -9.391,9.281 C -9.391,-4.156 -5.187,0 0,0"
             style="fill:#f0e5c9;fill-opacity:1;fill-rule:nonzero;stroke:none"
             id="path130" />
        </g>
        <g
           id="g132"
           transform="translate(380.4785,293.994)">
          <path
             d="m 0,0 c 5.187,0 9.391,-4.155 9.391,-9.282 0,-5.126 -4.204,-9.281 -9.391,-9.281 -5.187,0 -9.391,4.155 -9.391,9.281 C -9.391,-4.155 -5.187,0 0,0"
             style="fill:#f0e5c9;fill-opacity:1;fill-rule:nonzero;stroke:none"
             id="path134" />
        </g>
        <g
           id="g136"
           transform="translate(181.9074,567.1031)">
          <path
             d="m 0,0 c 5.187,0 9.391,-4.156 9.391,-9.282 0,-5.126 -4.204,-9.281 -9.391,-9.281 -5.187,0 -9.391,4.155 -9.391,9.281 C -9.391,-4.156 -5.187,0 0,0"
             style="fill:#ffffff;fill-opacity:1;fill-rule:nonzero;stroke:none"
             id="path138" />
        </g>
        <g
           id="g140"
           transform="translate(181.0426,602.9371)">
          <path
             d="m 0,0 c 5.187,0 9.391,-4.156 9.391,-9.282 0,-5.126 -4.204,-9.281 -9.391,-9.281 -5.187,0 -9.391,4.155 -9.391,9.281 C -9.391,-4.156 -5.187,0 0,0"
             style="fill:#ffffff;fill-opacity:1;fill-rule:nonzero;stroke:none"
             id="path142" />
        </g>
        <g
           id="g144"
           transform="translate(1622.5736,417.9332)">
          <path
             d="m 0,0 c 5.187,0 9.391,-4.156 9.391,-9.282 0,-5.126 -4.204,-9.281 -9.391,-9.281 -5.187,0 -9.391,4.155 -9.391,9.281 C -9.391,-4.156 -5.187,0 0,0"
             style="fill:#ffffff;fill-opacity:1;fill-rule:nonzero;stroke:none"
             id="path146" />
        </g>
        <g
           id="g148"
           transform="translate(1627.7731,454.4619)">
          <path
             d="m 0,0 c 5.187,0 9.391,-4.156 9.391,-9.282 0,-5.126 -4.204,-9.281 -9.391,-9.281 -5.187,0 -9.391,4.155 -9.391,9.281 C -9.391,-4.156 -5.187,0 0,0"
             style="fill:#ffffff;fill-opacity:1;fill-rule:nonzero;stroke:none"
             id="path150" />
        </g>
        <g
           id="g152"
           transform="translate(1629.1818,491.7255)">
          <path
             d="m 0,0 c 5.187,0 9.391,-4.155 9.391,-9.282 0,-5.126 -4.204,-9.281 -9.391,-9.281 -5.187,0 -9.391,4.155 -9.391,9.281 C -9.391,-4.155 -5.187,0 0,0"
             style="fill:#ffffff;fill-opacity:1;fill-rule:nonzero;stroke:none"
             id="path154" />
        </g>
        <g
           id="g156"
           transform="translate(1626.868,528.7527)">
          <path
             d="m 0,0 c 5.187,0 9.391,-4.156 9.391,-9.282 0,-5.126 -4.204,-9.281 -9.391,-9.281 -5.187,0 -9.391,4.155 -9.391,9.281 C -9.391,-4.156 -5.187,0 0,0"
             style="fill:#ffffff;fill-opacity:1;fill-rule:nonzero;stroke:none"
             id="path158" />
        </g>
        <g
           id="g160"
           transform="translate(1620.6467,565.3868)">
          <path
             d="m 0,0 c 5.187,0 9.391,-4.156 9.391,-9.282 0,-5.126 -4.204,-9.281 -9.391,-9.281 -5.187,0 -9.391,4.155 -9.391,9.281 C -9.391,-4.156 -5.187,0 0,0"
             style="fill:#ffffff;fill-opacity:1;fill-rule:nonzero;stroke:none"
             id="path162" />
        </g>
        <g
           id="g164"
           transform="translate(1610.2676,601.0528)">
          <path
             d="m 0,0 c 5.187,0 9.391,-4.155 9.391,-9.282 0,-5.126 -4.204,-9.281 -9.391,-9.281 -5.187,0 -9.391,4.155 -9.391,9.281 C -9.391,-4.155 -5.187,0 0,0"
             style="fill:#ffffff;fill-opacity:1;fill-rule:nonzero;stroke:none"
             id="path166" />
        </g>
        <g
           id="g168"
           transform="translate(1596.6481,635.8558)">
          <path
             d="m 0,0 c 5.187,0 9.391,-4.156 9.391,-9.282 0,-5.126 -4.204,-9.281 -9.391,-9.281 -5.187,0 -9.391,4.155 -9.391,9.281 C -9.391,-4.156 -5.187,0 0,0"
             style="fill:#ffffff;fill-opacity:1;fill-rule:nonzero;stroke:none"
             id="path170" />
        </g>
        <g
           id="g172"
           transform="translate(1579.24,668.9993)">
          <path
             d="m 0,0 c 5.187,0 9.391,-4.156 9.391,-9.282 0,-5.126 -4.204,-9.281 -9.391,-9.281 -5.187,0 -9.391,4.155 -9.391,9.281 C -9.391,-4.156 -5.187,0 0,0"
             style="fill:#ffffff;fill-opacity:1;fill-rule:nonzero;stroke:none"
             id="path174" />
        </g>
        <g
           id="g176"
           transform="translate(1556.4398,702.6247)">
          <path
             d="m 0,0 c 5.187,0 9.391,-4.156 9.391,-9.282 0,-5.126 -4.204,-9.281 -9.391,-9.281 -5.187,0 -9.391,4.155 -9.391,9.281 C -9.391,-4.156 -5.187,0 0,0"
             style="fill:#ffffff;fill-opacity:1;fill-rule:nonzero;stroke:none"
             id="path178" />
        </g>
        <g
           id="g180"
           transform="translate(1479.7567,217.189)">
          <path
             d="m 0,0 c 5.187,0 9.391,-4.156 9.391,-9.282 0,-5.126 -4.204,-9.281 -9.391,-9.281 -5.187,0 -9.391,4.155 -9.391,9.281 C -9.391,-4.156 -5.187,0 0,0"
             style="fill:#f4ecdc;fill-opacity:1;fill-rule:nonzero;stroke:none"
             id="path182" />
        </g>
        <g
           id="g184"
           transform="translate(1448.3285,201.9889)">
          <path
             d="m 0,0 c 5.187,0 9.391,-4.156 9.391,-9.282 0,-5.126 -4.204,-9.281 -9.391,-9.281 -5.187,0 -9.391,4.155 -9.391,9.281 C -9.391,-4.156 -5.187,0 0,0"
             style="fill:#f4ecdc;fill-opacity:1;fill-rule:nonzero;stroke:none"
             id="path186" />
        </g>
        <g
           id="g188"
           transform="translate(1414.7606,190.1814)">
          <path
             d="m 0,0 c 5.187,0 9.391,-4.156 9.391,-9.282 0,-5.126 -4.204,-9.281 -9.391,-9.281 -5.187,0 -9.391,4.155 -9.391,9.281 C -9.391,-4.156 -5.187,0 0,0"
             style="fill:#f4ecdc;fill-opacity:1;fill-rule:nonzero;stroke:none"
             id="path190" />
        </g>
        <g
           id="g192"
           transform="translate(1381.1034,183.2642)">
          <path
             d="m 0,0 c 5.187,0 9.391,-4.156 9.391,-9.282 0,-5.126 -4.204,-9.281 -9.391,-9.281 -5.187,0 -9.391,4.155 -9.391,9.281 C -9.391,-4.156 -5.187,0 0,0"
             style="fill:#f4ecdc;fill-opacity:1;fill-rule:nonzero;stroke:none"
             id="path194" />
        </g>
        <g
           id="g196"
           transform="translate(1294.4419,180.2242)">
          <path
             d="m 0,0 c 5.187,0 9.391,-4.156 9.391,-9.282 0,-5.126 -4.204,-9.281 -9.391,-9.281 -5.187,0 -9.391,4.155 -9.391,9.281 C -9.391,-4.156 -5.187,0 0,0"
             style="fill:#f8ecdc;fill-opacity:1;fill-rule:nonzero;stroke:none"
             id="path198" />
        </g>
        <g
           id="g200"
           transform="translate(1260.1384,186.106)">
          <path
             d="m 0,0 c 5.187,0 9.391,-4.156 9.391,-9.282 0,-5.126 -4.204,-9.281 -9.391,-9.281 -5.187,0 -9.391,4.155 -9.391,9.281 C -9.391,-4.156 -5.187,0 0,0"
             style="fill:#f8ecdc;fill-opacity:1;fill-rule:nonzero;stroke:none"
             id="path202" />
        </g>
        <g
           id="g204"
           transform="translate(1226.3475,195.975)">
          <path
             d="m 0,0 c 5.187,0 9.391,-4.156 9.391,-9.282 0,-5.126 -4.204,-9.281 -9.391,-9.281 -5.187,0 -9.391,4.155 -9.391,9.281 C -9.391,-4.156 -5.187,0 0,0"
             style="fill:#f8ecdc;fill-opacity:1;fill-rule:nonzero;stroke:none"
             id="path206" />
        </g>
        <g
           id="g208"
           transform="translate(1192.9298,212.6839)">
          <path
             d="m 0,0 c 5.187,0 9.391,-4.156 9.391,-9.282 0,-5.126 -4.204,-9.281 -9.391,-9.281 -5.187,0 -9.391,4.155 -9.391,9.281 C -9.391,-4.156 -5.187,0 0,0"
             style="fill:#f8ecdc;fill-opacity:1;fill-rule:nonzero;stroke:none"
             id="path210" />
        </g>
        <g
           id="g212"
           transform="translate(1509.4128,235.5215)">
          <path
             d="m 0,0 c 5.187,0 9.391,-4.156 9.391,-9.282 0,-5.126 -4.204,-9.281 -9.391,-9.281 -5.187,0 -9.391,4.155 -9.391,9.281 C -9.391,-4.156 -5.187,0 0,0"
             style="fill:#ffffff;fill-opacity:1;fill-rule:nonzero;stroke:none"
             id="path214" />
        </g>
        <g
           id="g216"
           transform="translate(1537.0162,254.8205)">
          <path
             d="m 0,0 c 5.187,0 9.391,-4.156 9.391,-9.282 0,-5.126 -4.204,-9.281 -9.391,-9.281 -5.187,0 -9.391,4.155 -9.391,9.281 C -9.391,-4.156 -5.187,0 0,0"
             style="fill:#ffffff;fill-opacity:1;fill-rule:nonzero;stroke:none"
             id="path218" />
        </g>
        <g
           id="g220"
           transform="translate(1564.1448,281.9926)">
          <path
             d="m 0,0 c 5.187,0 9.391,-4.156 9.391,-9.282 0,-5.126 -4.204,-9.281 -9.391,-9.281 -5.187,0 -9.391,4.155 -9.391,9.281 C -9.391,-4.156 -5.187,0 0,0"
             style="fill:#ffffff;fill-opacity:1;fill-rule:nonzero;stroke:none"
             id="path222" />
        </g>
        <g
           id="g224"
           transform="translate(1584.134,313.4854)">
          <path
             d="m 0,0 c 5.187,0 9.391,-4.156 9.391,-9.282 0,-5.126 -4.204,-9.281 -9.391,-9.281 -5.187,0 -9.391,4.155 -9.391,9.281 C -9.391,-4.156 -5.187,0 0,0"
             style="fill:#ffffff;fill-opacity:1;fill-rule:nonzero;stroke:none"
             id="path226" />
        </g>
        <g
           id="g228"
           transform="translate(1613.3341,381.8788)">
          <path
             d="m 0,0 c 5.187,0 9.391,-4.156 9.391,-9.282 0,-5.126 -4.204,-9.281 -9.391,-9.281 -5.187,0 -9.391,4.155 -9.391,9.281 C -9.391,-4.156 -5.187,0 0,0"
             style="fill:#ffffff;fill-opacity:1;fill-rule:nonzero;stroke:none"
             id="path230" />
        </g>
        <g
           id="g232"
           transform="translate(1600.4373,346.9608)">
          <path
             d="m 0,0 c 5.187,0 9.391,-4.156 9.391,-9.282 0,-5.126 -4.204,-9.281 -9.391,-9.281 -5.187,0 -9.391,4.155 -9.391,9.281 C -9.391,-4.156 -5.187,0 0,0"
             style="fill:#ffffff;fill-opacity:1;fill-rule:nonzero;stroke:none"
             id="path234" />
        </g>
        <g
           id="g236"
           transform="translate(792.8757,963.011)">
          <path
             d="m 0,0 c 5.187,0 9.391,-4.156 9.391,-9.282 0,-5.126 -4.204,-9.281 -9.391,-9.281 -5.187,0 -9.391,4.155 -9.391,9.281 C -9.391,-4.156 -5.187,0 0,0"
             style="fill:#f0e5cc;fill-opacity:1;fill-rule:nonzero;stroke:none"
             id="path238" />
        </g>
        <g
           id="g240"
           transform="translate(763.8399,982.4553)">
          <path
             d="m 0,0 c 5.187,0 9.391,-4.155 9.391,-9.282 0,-5.126 -4.204,-9.281 -9.391,-9.281 -5.187,0 -9.391,4.155 -9.391,9.281 C -9.391,-4.155 -5.187,0 0,0"
             style="fill:#f0e5cc;fill-opacity:1;fill-rule:nonzero;stroke:none"
             id="path242" />
        </g>
        <g
           id="g244"
           transform="translate(732.9846,999.6306)">
          <path
             d="m 0,0 c 5.187,0 9.391,-4.156 9.391,-9.282 0,-5.126 -4.204,-9.281 -9.391,-9.281 -5.187,0 -9.391,4.155 -9.391,9.281 C -9.391,-4.156 -5.187,0 0,0"
             style="fill:#f0e5cc;fill-opacity:1;fill-rule:nonzero;stroke:none"
             id="path246" />
        </g>
        <g
           id="g248"
           transform="translate(701.7555,1014.5737)">
          <path
             d="m 0,0 c 5.187,0 9.391,-4.156 9.391,-9.282 0,-5.126 -4.204,-9.281 -9.391,-9.281 -5.187,0 -9.391,4.155 -9.391,9.281 C -9.391,-4.156 -5.187,0 0,0"
             style="fill:#f0e5cc;fill-opacity:1;fill-rule:nonzero;stroke:none"
             id="path250" />
        </g>
        <g
           id="g252"
           transform="translate(669.0003,1026.9814)">
          <path
             d="m 0,0 c 5.187,0 9.391,-4.155 9.391,-9.282 0,-5.126 -4.204,-9.281 -9.391,-9.281 -5.187,0 -9.391,4.155 -9.391,9.281 C -9.391,-4.155 -5.187,0 0,0"
             style="fill:#f0e5cc;fill-opacity:1;fill-rule:nonzero;stroke:none"
             id="path254" />
        </g>
        <g
           id="g256"
           transform="translate(635.3492,1037.3195)">
          <path
             d="m 0,0 c 5.187,0 9.391,-4.156 9.391,-9.282 0,-5.126 -4.204,-9.281 -9.391,-9.281 -5.187,0 -9.391,4.155 -9.391,9.281 C -9.391,-4.156 -5.187,0 0,0"
             style="fill:#f0e5cc;fill-opacity:1;fill-rule:nonzero;stroke:none"
             id="path258" />
        </g>
        <g
           id="g260"
           transform="translate(601.2032,1044.7755)">
          <path
             d="m 0,0 c 5.187,0 9.391,-4.156 9.391,-9.282 0,-5.126 -4.204,-9.281 -9.391,-9.281 -5.187,0 -9.391,4.155 -9.391,9.281 C -9.391,-4.156 -5.187,0 0,0"
             style="fill:#f0e5cc;fill-opacity:1;fill-rule:nonzero;stroke:none"
             id="path262" />
        </g>
        <g
           id="g264"
           transform="translate(566.7214,1049.746)">
          <path
             d="m 0,0 c 5.187,0 9.391,-4.156 9.391,-9.281 0,-5.127 -4.204,-9.282 -9.391,-9.282 -5.187,0 -9.391,4.155 -9.391,9.282 C -9.391,-4.156 -5.187,0 0,0"
             style="fill:#f0e5cc;fill-opacity:1;fill-rule:nonzero;stroke:none"
             id="path266" />
        </g>
        <g
           id="g268"
           transform="translate(531.7046,1052.1677)">
          <path
             d="m 0,0 c 5.187,0 9.391,-4.156 9.391,-9.282 0,-5.126 -4.204,-9.281 -9.391,-9.281 -5.187,0 -9.391,4.155 -9.391,9.281 C -9.391,-4.156 -5.187,0 0,0"
             style="fill:#f0e5cc;fill-opacity:1;fill-rule:nonzero;stroke:none"
             id="path270" />
        </g>
        <g
           id="g272"
           transform="translate(496.4886,1051.8652)">
          <path
             d="m 0,0 c 5.187,0 9.391,-4.156 9.391,-9.282 0,-5.126 -4.204,-9.281 -9.391,-9.281 -5.187,0 -9.391,4.155 -9.391,9.281 C -9.391,-4.156 -5.187,0 0,0"
             style="fill:#f0e5cc;fill-opacity:1;fill-rule:nonzero;stroke:none"
             id="path274" />
        </g>
        <g
           id="g276"
           transform="translate(461.6048,1048.6519)">
          <path
             d="m 0,0 c 5.187,0 9.391,-4.156 9.391,-9.281 0,-5.127 -4.204,-9.282 -9.391,-9.282 -5.187,0 -9.391,4.155 -9.391,9.282 C -9.391,-4.156 -5.187,0 0,0"
             style="fill:#f0e5cc;fill-opacity:1;fill-rule:nonzero;stroke:none"
             id="path278" />
        </g>
        <g
           id="g280"
           transform="translate(426.9276,1043.0852)">
          <path
             d="m 0,0 c 5.187,0 9.391,-4.156 9.391,-9.282 0,-5.126 -4.204,-9.281 -9.391,-9.281 -5.187,0 -9.391,4.155 -9.391,9.281 C -9.391,-4.156 -5.187,0 0,0"
             style="fill:#f0e5cc;fill-opacity:1;fill-rule:nonzero;stroke:none"
             id="path282" />
        </g>
        <g
           id="g284"
           transform="translate(393.038,1035.2516)">
          <path
             d="m 0,0 c 5.187,0 9.391,-4.156 9.391,-9.281 0,-5.127 -4.204,-9.282 -9.391,-9.282 -5.187,0 -9.391,4.155 -9.391,9.282 C -9.391,-4.156 -5.187,0 0,0"
             style="fill:#f0e5cc;fill-opacity:1;fill-rule:nonzero;stroke:none"
             id="path286" />
        </g>
        <g
           id="g288"
           transform="translate(295.6566,995.6492)">
          <path
             d="m 0,0 c 5.187,0 9.391,-4.156 9.391,-9.282 0,-5.126 -4.204,-9.281 -9.391,-9.281 -5.187,0 -9.391,4.155 -9.391,9.281 C -9.391,-4.156 -5.187,0 0,0"
             style="fill:#efe5cb;fill-opacity:1;fill-rule:nonzero;stroke:none"
             id="path290" />
        </g>
        <g
           id="g292"
           transform="translate(265.762,977.5825)">
          <path
             d="m 0,0 c 5.187,0 9.391,-4.156 9.391,-9.282 0,-5.126 -4.204,-9.281 -9.391,-9.281 -5.187,0 -9.391,4.155 -9.391,9.281 C -9.391,-4.156 -5.187,0 0,0"
             style="fill:#efe5cb;fill-opacity:1;fill-rule:nonzero;stroke:none"
             id="path294" />
        </g>
        <g
           id="g296"
           transform="translate(236.7321,957.6276)">
          <path
             d="m 0,0 c 5.187,0 9.391,-4.156 9.391,-9.282 0,-5.126 -4.204,-9.281 -9.391,-9.281 -5.187,0 -9.391,4.155 -9.391,9.281 C -9.391,-4.156 -5.187,0 0,0"
             style="fill:#efe5cb;fill-opacity:1;fill-rule:nonzero;stroke:none"
             id="path298" />
        </g>
        <g
           id="g300"
           transform="translate(209.5159,934.5883)">
          <path
             d="m 0,0 c 5.187,0 9.391,-4.156 9.391,-9.282 0,-5.126 -4.204,-9.281 -9.391,-9.281 -5.187,0 -9.391,4.155 -9.391,9.281 C -9.391,-4.156 -5.187,0 0,0"
             style="fill:#efe5cb;fill-opacity:1;fill-rule:nonzero;stroke:none"
             id="path302" />
        </g>
        <g
           id="g304"
           transform="translate(184.2917,909.7932)">
          <path
             d="m 0,0 c 5.187,0 9.391,-4.156 9.391,-9.282 0,-5.126 -4.204,-9.281 -9.391,-9.281 -5.187,0 -9.391,4.155 -9.391,9.281 C -9.391,-4.156 -5.187,0 0,0"
             style="fill:#efe5cb;fill-opacity:1;fill-rule:nonzero;stroke:none"
             id="path306" />
        </g>
        <g
           id="g308"
           transform="translate(160.5786,883.6343)">
          <path
             d="m 0,0 c 5.187,0 9.391,-4.156 9.391,-9.282 0,-5.126 -4.204,-9.281 -9.391,-9.281 -5.187,0 -9.391,4.155 -9.391,9.281 C -9.391,-4.156 -5.187,0 0,0"
             style="fill:#ece6c8;fill-opacity:1;fill-rule:nonzero;stroke:none"
             id="path310" />
        </g>
        <g
           id="g312"
           transform="translate(139.1633,855.5297)">
          <path
             d="m 0,0 c 5.187,0 9.391,-4.155 9.391,-9.282 0,-5.126 -4.204,-9.281 -9.391,-9.281 -5.187,0 -9.391,4.155 -9.391,9.281 C -9.391,-4.155 -5.187,0 0,0"
             style="fill:#ece6c8;fill-opacity:1;fill-rule:nonzero;stroke:none"
             id="path314" />
        </g>
        <g
           id="g316"
           transform="translate(119.8929,825.6641)">
          <path
             d="m 0,0 c 5.187,0 9.391,-4.156 9.391,-9.282 0,-5.126 -4.204,-9.281 -9.391,-9.281 -5.187,0 -9.391,4.155 -9.391,9.281 C -9.391,-4.156 -5.187,0 0,0"
             style="fill:#ece6c8;fill-opacity:1;fill-rule:nonzero;stroke:none"
             id="path318" />
        </g>
        <g
           id="g320"
           transform="translate(102.8585,794.7354)">
          <path
             d="m 0,0 c 5.187,0 9.391,-4.156 9.391,-9.282 0,-5.126 -4.204,-9.281 -9.391,-9.281 -5.187,0 -9.391,4.155 -9.391,9.281 C -9.391,-4.156 -5.187,0 0,0"
             style="fill:#ece6c8;fill-opacity:1;fill-rule:nonzero;stroke:none"
             id="path322" />
        </g>
        <g
           id="g324"
           transform="translate(87.9015,762.9107)">
          <path
             d="m 0,0 c 5.187,0 9.391,-4.156 9.391,-9.282 0,-5.126 -4.204,-9.281 -9.391,-9.281 -5.187,0 -9.391,4.155 -9.391,9.281 C -9.391,-4.156 -5.187,0 0,0"
             style="fill:#ece6c8;fill-opacity:1;fill-rule:nonzero;stroke:none"
             id="path326" />
        </g>
        <g
           id="g328"
           transform="translate(75.7248,729.6967)">
          <path
             d="m 0,0 c 5.187,0 9.391,-4.156 9.391,-9.282 0,-5.126 -4.204,-9.281 -9.391,-9.281 -5.187,0 -9.391,4.155 -9.391,9.281 C -9.391,-4.156 -5.187,0 0,0"
             style="fill:#ece6c8;fill-opacity:1;fill-rule:nonzero;stroke:none"
             id="path330" />
        </g>
        <g
           id="g332"
           transform="translate(65.7747,695.9628)">
          <path
             d="m 0,0 c 5.187,0 9.391,-4.156 9.391,-9.282 0,-5.126 -4.204,-9.281 -9.391,-9.281 -5.187,0 -9.391,4.155 -9.391,9.281 C -9.391,-4.156 -5.187,0 0,0"
             style="fill:#ece6c8;fill-opacity:1;fill-rule:nonzero;stroke:none"
             id="path334" />
        </g>
        <g
           id="g336"
           transform="translate(58.8865,652.7624)">
          <path
             d="m 0,0 c 5.187,0 9.391,-4.156 9.391,-9.282 0,-5.126 -4.204,-9.281 -9.391,-9.281 -5.187,0 -9.391,4.155 -9.391,9.281 C -9.391,-4.156 -5.187,0 0,0"
             style="fill:#ece6c8;fill-opacity:1;fill-rule:nonzero;stroke:none"
             id="path338" />
        </g>
        <g
           id="g340"
           transform="translate(437.9326,136.9038)">
          <path
             d="m 0,0 c 5.187,0 9.391,-4.156 9.391,-9.282 0,-5.126 -4.204,-9.281 -9.391,-9.281 -5.187,0 -9.391,4.155 -9.391,9.281 C -9.391,-4.156 -5.187,0 0,0"
             style="fill:#e4d6ae;fill-opacity:1;fill-rule:nonzero;stroke:none"
             id="path342" />
        </g>
        <g
           id="g344"
           transform="translate(357.7284,157.3918)">
          <path
             d="m 0,0 c 5.187,0 9.391,-4.156 9.391,-9.282 0,-5.126 -4.204,-9.281 -9.391,-9.281 -5.187,0 -9.391,4.155 -9.391,9.281 C -9.391,-4.156 -5.187,0 0,0"
             style="fill:#eae6cc;fill-opacity:1;fill-rule:nonzero;stroke:none"
             id="path346" />
        </g>
        <g
           id="g348"
           transform="translate(322.7815,170.4844)">
          <path
             d="m 0,0 c 5.187,0 9.391,-4.156 9.391,-9.282 0,-5.126 -4.204,-9.281 -9.391,-9.281 -5.187,0 -9.391,4.155 -9.391,9.281 C -9.391,-4.156 -5.187,0 0,0"
             style="fill:#eae6cc;fill-opacity:1;fill-rule:nonzero;stroke:none"
             id="path350" />
        </g>
        <g
           id="g352"
           transform="translate(285.3054,187.8551)">
          <path
             d="m 0,0 c 5.187,0 9.391,-4.156 9.391,-9.282 0,-5.126 -4.204,-9.281 -9.391,-9.281 -5.187,0 -9.391,4.155 -9.391,9.281 C -9.391,-4.156 -5.187,0 0,0"
             style="fill:#eae6cc;fill-opacity:1;fill-rule:nonzero;stroke:none"
             id="path354" />
        </g>
        <g
           id="g356"
           transform="translate(253.5354,210.1044)">
          <path
             d="m 0,0 c 5.187,0 9.391,-4.156 9.391,-9.282 0,-5.126 -4.204,-9.281 -9.391,-9.281 -5.187,0 -9.391,4.155 -9.391,9.281 C -9.391,-4.156 -5.187,0 0,0"
             style="fill:#eae6cc;fill-opacity:1;fill-rule:nonzero;stroke:none"
             id="path358" />
        </g>
        <g
           id="g360"
           transform="translate(225.6141,232.0366)">
          <path
             d="m 0,0 c 5.187,0 9.391,-4.156 9.391,-9.282 0,-5.126 -4.204,-9.281 -9.391,-9.281 -5.187,0 -9.391,4.155 -9.391,9.281 C -9.391,-4.156 -5.187,0 0,0"
             style="fill:#eae6cc;fill-opacity:1;fill-rule:nonzero;stroke:none"
             id="path362" />
        </g>
        <g
           id="g364"
           transform="translate(199.4582,256.6357)">
          <path
             d="m 0,0 c 5.187,0 9.391,-4.156 9.391,-9.282 0,-5.126 -4.204,-9.281 -9.391,-9.281 -5.187,0 -9.391,4.155 -9.391,9.281 C -9.391,-4.156 -5.187,0 0,0"
             style="fill:#eae6cc;fill-opacity:1;fill-rule:nonzero;stroke:none"
             id="path366" />
        </g>
        <g
           id="g368"
           transform="translate(168.0924,282.2562)">
          <path
             d="m 0,0 c 5.187,0 9.391,-4.155 9.391,-9.282 0,-5.126 -4.204,-9.281 -9.391,-9.281 -5.187,0 -9.391,4.155 -9.391,9.281 C -9.391,-4.155 -5.187,0 0,0"
             style="fill:#eae6cc;fill-opacity:1;fill-rule:nonzero;stroke:none"
             id="path370" />
        </g>
        <g
           id="g372"
           transform="translate(56.3359,617.6892)">
          <path
             d="m 0,0 c 5.187,0 9.391,-4.156 9.391,-9.282 0,-5.126 -4.204,-9.281 -9.391,-9.281 -5.187,0 -9.391,4.155 -9.391,9.281 C -9.391,-4.156 -5.187,0 0,0"
             style="fill:#ece6c8;fill-opacity:1;fill-rule:nonzero;stroke:none"
             id="path374" />
        </g>
        <g
           id="g376"
           transform="translate(57.2052,582.5176)">
          <path
             d="m 0,0 c 5.187,0 9.391,-4.156 9.391,-9.282 0,-5.126 -4.204,-9.281 -9.391,-9.281 -5.187,0 -9.391,4.155 -9.391,9.281 C -9.391,-4.156 -5.187,0 0,0"
             style="fill:#ece6c8;fill-opacity:1;fill-rule:nonzero;stroke:none"
             id="path378" />
        </g>
        <g
           id="g380"
           transform="translate(65.1544,511.4848)">
          <path
             d="m 0,0 c 5.187,0 9.391,-4.156 9.391,-9.282 0,-5.126 -4.204,-9.281 -9.391,-9.281 -5.187,0 -9.391,4.155 -9.391,9.281 C -9.391,-4.156 -5.187,0 0,0"
             style="fill:#ece6c8;fill-opacity:1;fill-rule:nonzero;stroke:none"
             id="path382" />
        </g>
        <g
           id="g384"
           transform="translate(59.6875,547.2197)">
          <path
             d="m 0,0 c 5.187,0 9.391,-4.156 9.391,-9.282 0,-5.126 -4.204,-9.281 -9.391,-9.281 -5.187,0 -9.391,4.155 -9.391,9.281 C -9.391,-4.156 -5.187,0 0,0"
             style="fill:#ece6c8;fill-opacity:1;fill-rule:nonzero;stroke:none"
             id="path386" />
        </g>
        <g
           id="g388"
           transform="translate(71.8323,475.8102)">
          <path
             d="m 0,0 c 5.187,0 9.391,-4.155 9.391,-9.282 0,-5.126 -4.204,-9.281 -9.391,-9.281 -5.187,0 -9.391,4.155 -9.391,9.281 C -9.391,-4.155 -5.187,0 0,0"
             style="fill:#ece6c8;fill-opacity:1;fill-rule:nonzero;stroke:none"
             id="path390" />
        </g>
        <g
           id="g392"
           transform="translate(82.6167,441.1071)">
          <path
             d="m 0,0 c 5.187,0 9.391,-4.155 9.391,-9.282 0,-5.126 -4.204,-9.281 -9.391,-9.281 -5.187,0 -9.391,4.155 -9.391,9.281 C -9.391,-4.155 -5.187,0 0,0"
             style="fill:#ece6c8;fill-opacity:1;fill-rule:nonzero;stroke:none"
             id="path394" />
        </g>
        <g
           id="g396"
           transform="translate(93.4315,407.667)">
          <path
             d="m 0,0 c 5.187,0 9.391,-4.155 9.391,-9.282 0,-5.126 -4.204,-9.281 -9.391,-9.281 -5.187,0 -9.391,4.155 -9.391,9.281 C -9.391,-4.155 -5.187,0 0,0"
             style="fill:#ece6c8;fill-opacity:1;fill-rule:nonzero;stroke:none"
             id="path398" />
        </g>
        <g
           id="g400"
           transform="translate(107.0163,374.0565)">
          <path
             d="m 0,0 c 5.187,0 9.391,-4.155 9.391,-9.282 0,-5.126 -4.204,-9.281 -9.391,-9.281 -5.187,0 -9.391,4.155 -9.391,9.281 C -9.391,-4.155 -5.187,0 0,0"
             style="fill:#ede1cd;fill-opacity:1;fill-rule:nonzero;stroke:none"
             id="path402" />
        </g>
        <g
           id="g404"
           transform="translate(1725.5232,426.7206)">
          <path
             d="m 0,0 c 5.187,0 9.391,-4.155 9.391,-9.282 0,-5.126 -4.204,-9.281 -9.391,-9.281 -5.187,0 -9.391,4.155 -9.391,9.281 C -9.391,-4.155 -5.187,0 0,0"
             style="fill:#eae5c9;fill-opacity:1;fill-rule:nonzero;stroke:none"
             id="path406" />
        </g>
        <g
           id="g408"
           transform="translate(1733.0464,463.8793)">
          <path
             d="m 0,0 c 5.187,0 9.391,-4.156 9.391,-9.282 0,-5.126 -4.204,-9.281 -9.391,-9.281 -5.187,0 -9.391,4.155 -9.391,9.281 C -9.391,-4.156 -5.187,0 0,0"
             style="fill:#eae5c9;fill-opacity:1;fill-rule:nonzero;stroke:none"
             id="path410" />
        </g>
        <g
           id="g412"
           transform="translate(1738.155,510.4869)">
          <path
             d="m 0,0 c 5.187,0 9.391,-4.156 9.391,-9.282 0,-5.126 -4.204,-9.281 -9.391,-9.281 -5.187,0 -9.391,4.155 -9.391,9.281 C -9.391,-4.156 -5.187,0 0,0"
             style="fill:#eae5c9;fill-opacity:1;fill-rule:nonzero;stroke:none"
             id="path414" />
        </g>
        <g
           id="g416"
           transform="translate(1737.7181,548.2359)">
          <path
             d="m 0,0 c 5.187,0 9.391,-4.156 9.391,-9.282 0,-5.126 -4.204,-9.281 -9.391,-9.281 -5.187,0 -9.391,4.155 -9.391,9.281 C -9.391,-4.156 -5.187,0 0,0"
             style="fill:#eae5c9;fill-opacity:1;fill-rule:nonzero;stroke:none"
             id="path418" />
        </g>
        <g
           id="g420"
           transform="translate(1734.7002,586.0334)">
          <path
             d="m 0,0 c 5.187,0 9.391,-4.155 9.391,-9.282 0,-5.126 -4.204,-9.281 -9.391,-9.281 -5.187,0 -9.391,4.155 -9.391,9.281 C -9.391,-4.155 -5.187,0 0,0"
             style="fill:#eae5c9;fill-opacity:1;fill-rule:nonzero;stroke:none"
             id="path422" />
        </g>
        <g
           id="g424"
           transform="translate(1728.5304,623.2581)">
          <path
             d="m 0,0 c 5.187,0 9.391,-4.156 9.391,-9.282 0,-5.126 -4.204,-9.281 -9.391,-9.281 -5.187,0 -9.391,4.155 -9.391,9.281 C -9.391,-4.156 -5.187,0 0,0"
             style="fill:#eae5c9;fill-opacity:1;fill-rule:nonzero;stroke:none"
             id="path426" />
        </g>
        <g
           id="g428"
           transform="translate(1719.8301,660.217)">
          <path
             d="m 0,0 c 5.187,0 9.391,-4.155 9.391,-9.282 0,-5.126 -4.204,-9.281 -9.391,-9.281 -5.187,0 -9.391,4.155 -9.391,9.281 C -9.391,-4.155 -5.187,0 0,0"
             style="fill:#eae5c9;fill-opacity:1;fill-rule:nonzero;stroke:none"
             id="path430" />
        </g>
        <g
           id="g432"
           transform="translate(1708.2456,696.1185)">
          <path
             d="m 0,0 c 5.187,0 9.391,-4.156 9.391,-9.282 0,-5.126 -4.204,-9.281 -9.391,-9.281 -5.187,0 -9.391,4.155 -9.391,9.281 C -9.391,-4.156 -5.187,0 0,0"
             style="fill:#eae5c9;fill-opacity:1;fill-rule:nonzero;stroke:none"
             id="path434" />
        </g>
        <g
           id="g436"
           transform="translate(1693.8169,731.39)">
          <path
             d="m 0,0 c 5.187,0 9.391,-4.156 9.391,-9.282 0,-5.126 -4.204,-9.281 -9.391,-9.281 -5.187,0 -9.391,4.155 -9.391,9.281 C -9.391,-4.156 -5.187,0 0,0"
             style="fill:#ece3c8;fill-opacity:1;fill-rule:nonzero;stroke:none"
             id="path438" />
        </g>
        <g
           id="g440"
           transform="translate(1647.0707,799.633)">
          <path
             d="m 0,0 c 5.187,0 9.391,-4.155 9.391,-9.282 0,-5.126 -4.204,-9.281 -9.391,-9.281 -5.187,0 -9.391,4.155 -9.391,9.281 C -9.391,-4.155 -5.187,0 0,0"
             style="fill:#ece3c8;fill-opacity:1;fill-rule:nonzero;stroke:none"
             id="path442" />
        </g>
        <g
           id="g444"
           transform="translate(1677.145,765.563)">
          <path
             d="m 0,0 c 5.187,0 9.391,-4.156 9.391,-9.282 0,-5.126 -4.204,-9.281 -9.391,-9.281 -5.187,0 -9.391,4.155 -9.391,9.281 C -9.391,-4.156 -5.187,0 0,0"
             style="fill:#ece3c8;fill-opacity:1;fill-rule:nonzero;stroke:none"
             id="path446" />
        </g>
        <g
           id="g448"
           transform="translate(1624.0826,828.0513)">
          <path
             d="m 0,0 c 5.187,0 9.391,-4.156 9.391,-9.282 0,-5.126 -4.204,-9.281 -9.391,-9.281 -5.187,0 -9.391,4.155 -9.391,9.281 C -9.391,-4.156 -5.187,0 0,0"
             style="fill:#ece3c8;fill-opacity:1;fill-rule:nonzero;stroke:none"
             id="path450" />
        </g>
        <g
           id="g452"
           transform="translate(1599.3309,854.9694)">
          <path
             d="m 0,0 c 5.187,0 9.391,-4.156 9.391,-9.282 0,-5.126 -4.204,-9.281 -9.391,-9.281 -5.187,0 -9.391,4.155 -9.391,9.281 C -9.391,-4.156 -5.187,0 0,0"
             style="fill:#ece3c8;fill-opacity:1;fill-rule:nonzero;stroke:none"
             id="path454" />
        </g>
        <g
           id="g456"
           transform="translate(1572.3962,879.7961)">
          <path
             d="m 0,0 c 5.187,0 9.391,-4.155 9.391,-9.282 0,-5.126 -4.204,-9.281 -9.391,-9.281 -5.187,0 -9.391,4.155 -9.391,9.281 C -9.391,-4.155 -5.187,0 0,0"
             style="fill:#ece3c8;fill-opacity:1;fill-rule:nonzero;stroke:none"
             id="path458" />
        </g>
        <g
           id="g460"
           transform="translate(1539.7222,896.912)">
          <path
             d="m 0,0 c 5.187,0 9.391,-4.155 9.391,-9.282 0,-5.126 -4.204,-9.281 -9.391,-9.281 -5.187,0 -9.391,4.155 -9.391,9.281 C -9.391,-4.155 -5.187,0 0,0"
             style="fill:#ece3c8;fill-opacity:1;fill-rule:nonzero;stroke:none"
             id="path462" />
        </g>
        <g
           id="g464"
           transform="translate(1715.0104,390.6525)">
          <path
             d="m 0,0 c 5.187,0 9.391,-4.155 9.391,-9.282 0,-5.126 -4.204,-9.281 -9.391,-9.281 -5.187,0 -9.391,4.155 -9.391,9.281 C -9.391,-4.155 -5.187,0 0,0"
             style="fill:#eae5c9;fill-opacity:1;fill-rule:nonzero;stroke:none"
             id="path466" />
        </g>
        <g
           id="g468"
           transform="translate(1701.8009,355.3869)">
          <path
             d="m 0,0 c 5.187,0 9.391,-4.156 9.391,-9.282 0,-5.126 -4.204,-9.281 -9.391,-9.281 -5.187,0 -9.391,4.155 -9.391,9.281 C -9.391,-4.156 -5.187,0 0,0"
             style="fill:#eae5c9;fill-opacity:1;fill-rule:nonzero;stroke:none"
             id="path470" />
        </g>
        <g
           id="g472"
           transform="translate(1669.0576,274.2707)">
          <path
             d="m 0,0 c 5.187,0 9.391,-4.155 9.391,-9.282 0,-5.126 -4.204,-9.281 -9.391,-9.281 -5.187,0 -9.391,4.155 -9.391,9.281 C -9.391,-4.155 -5.187,0 0,0"
             style="fill:#eee8d2;fill-opacity:1;fill-rule:nonzero;stroke:none"
             id="path474" />
        </g>
        <g
           id="g476"
           transform="translate(1647.838,244.3992)">
          <path
             d="m 0,0 c 5.187,0 9.391,-4.156 9.391,-9.282 0,-5.126 -4.204,-9.281 -9.391,-9.281 -5.187,0 -9.391,4.155 -9.391,9.281 C -9.391,-4.156 -5.187,0 0,0"
             style="fill:#eee8d2;fill-opacity:1;fill-rule:nonzero;stroke:none"
             id="path478" />
        </g>
        <g
           id="g480"
           transform="translate(1624.4786,215.8496)">
          <path
             d="m 0,0 c 5.187,0 9.391,-4.156 9.391,-9.282 0,-5.126 -4.204,-9.281 -9.391,-9.281 -5.187,0 -9.391,4.155 -9.391,9.281 C -9.391,-4.156 -5.187,0 0,0"
             style="fill:#eee8d2;fill-opacity:1;fill-rule:nonzero;stroke:none"
             id="path482" />
        </g>
        <g
           id="g484"
           transform="translate(1596.0779,188.9887)">
          <path
             d="m 0,0 c 5.187,0 9.391,-4.156 9.391,-9.282 0,-5.126 -4.204,-9.281 -9.391,-9.281 -5.187,0 -9.391,4.155 -9.391,9.281 C -9.391,-4.156 -5.187,0 0,0"
             style="fill:#eee8d2;fill-opacity:1;fill-rule:nonzero;stroke:none"
             id="path486" />
        </g>
        <g
           id="g488"
           transform="translate(1565.7076,165.0127)">
          <path
             d="m 0,0 c 5.187,0 9.391,-4.156 9.391,-9.282 0,-5.126 -4.204,-9.281 -9.391,-9.281 -5.187,0 -9.391,4.155 -9.391,9.281 C -9.391,-4.156 -5.187,0 0,0"
             style="fill:#eee8d2;fill-opacity:1;fill-rule:nonzero;stroke:none"
             id="path490" />
        </g>
        <g
           id="g492"
           transform="translate(1532.6338,144.3956)">
          <path
             d="m 0,0 c 5.187,0 9.391,-4.156 9.391,-9.282 0,-5.126 -4.204,-9.281 -9.391,-9.281 -5.187,0 -9.391,4.155 -9.391,9.281 C -9.391,-4.156 -5.187,0 0,0"
             style="fill:#eee8d2;fill-opacity:1;fill-rule:nonzero;stroke:none"
             id="path494" />
        </g>
        <g
           id="g496"
           transform="translate(1500.0216,125.8325)">
          <path
             d="m 0,0 c 5.187,0 9.391,-4.156 9.391,-9.282 0,-5.126 -4.204,-9.281 -9.391,-9.281 -5.187,0 -9.391,4.155 -9.391,9.281 C -9.391,-4.156 -5.187,0 0,0"
             style="fill:#eee8d2;fill-opacity:1;fill-rule:nonzero;stroke:none"
             id="path498" />
        </g>
        <g
           id="g500"
           transform="translate(1465.9224,112.2375)">
          <path
             d="m 0,0 c 5.187,0 9.391,-4.156 9.391,-9.282 0,-5.126 -4.204,-9.281 -9.391,-9.281 -5.187,0 -9.391,4.155 -9.391,9.281 C -9.391,-4.156 -5.187,0 0,0"
             style="fill:#eee8d2;fill-opacity:1;fill-rule:nonzero;stroke:none"
             id="path502" />
        </g>
        <g
           id="g504"
           transform="translate(1428.5305,101.6533)">
          <path
             d="m 0,0 c 5.187,0 9.391,-4.156 9.391,-9.282 0,-5.126 -4.204,-9.281 -9.391,-9.281 -5.187,0 -9.391,4.155 -9.391,9.281 C -9.391,-4.156 -5.187,0 0,0"
             style="fill:#eee8d2;fill-opacity:1;fill-rule:nonzero;stroke:none"
             id="path506" />
        </g>
        <g
           id="g508"
           transform="translate(1388.9564,94.5636)">
          <path
             d="m 0,0 c 5.187,0 9.391,-4.156 9.391,-9.282 0,-5.126 -4.204,-9.281 -9.391,-9.281 -5.187,0 -9.391,4.155 -9.391,9.281 C -9.391,-4.156 -5.187,0 0,0"
             style="fill:#eee8d2;fill-opacity:1;fill-rule:nonzero;stroke:none"
             id="path510" />
        </g>
        <g
           id="g512"
           transform="translate(1348.7107,90.7768)">
          <path
             d="m 0,0 c 5.187,0 9.391,-4.156 9.391,-9.282 0,-5.126 -4.204,-9.281 -9.391,-9.281 -5.187,0 -9.391,4.155 -9.391,9.281 C -9.391,-4.156 -5.187,0 0,0"
             style="fill:#eee8d2;fill-opacity:1;fill-rule:nonzero;stroke:none"
             id="path514" />
        </g>
        <g
           id="g516"
           transform="translate(1309.8347,92.9793)">
          <path
             d="m 0,0 c 5.187,0 9.391,-4.156 9.391,-9.282 0,-5.126 -4.204,-9.281 -9.391,-9.281 -5.187,0 -9.391,4.155 -9.391,9.281 C -9.391,-4.156 -5.187,0 0,0"
             style="fill:#eee8d2;fill-opacity:1;fill-rule:nonzero;stroke:none"
             id="path518" />
        </g>
        <g
           id="g520"
           transform="translate(1271.1006,96.473)">
          <path
             d="m 0,0 c 5.187,0 9.391,-4.156 9.391,-9.282 0,-5.126 -4.204,-9.281 -9.391,-9.281 -5.187,0 -9.391,4.155 -9.391,9.281 C -9.391,-4.156 -5.187,0 0,0"
             style="fill:#eee8d2;fill-opacity:1;fill-rule:nonzero;stroke:none"
             id="path522" />
        </g>
        <g
           id="g524"
           transform="translate(1231.2272,105.7546)">
          <path
             d="m 0,0 c 5.187,0 9.391,-4.156 9.391,-9.282 0,-5.126 -4.204,-9.281 -9.391,-9.281 -5.187,0 -9.391,4.155 -9.391,9.281 C -9.391,-4.156 -5.187,0 0,0"
             style="fill:#eee8d2;fill-opacity:1;fill-rule:nonzero;stroke:none"
             id="path526" />
        </g>
        <g
           id="g528"
           transform="translate(1192.0372,117.8305)">
          <path
             d="m 0,0 c 5.187,0 9.391,-4.156 9.391,-9.282 0,-5.126 -4.204,-9.281 -9.391,-9.281 -5.187,0 -9.391,4.155 -9.391,9.281 C -9.391,-4.156 -5.187,0 0,0"
             style="fill:#eee8d2;fill-opacity:1;fill-rule:nonzero;stroke:none"
             id="path530" />
        </g>
        <g
           id="g532"
           transform="translate(1155.5815,135.3748)">
          <path
             d="m 0,0 c 5.187,0 9.391,-4.156 9.391,-9.282 0,-5.126 -4.204,-9.281 -9.391,-9.281 -5.187,0 -9.391,4.155 -9.391,9.281 C -9.391,-4.156 -5.187,0 0,0"
             style="fill:#eee8d2;fill-opacity:1;fill-rule:nonzero;stroke:none"
             id="path534" />
        </g>
        <g
           id="g536"
           transform="translate(1123.6829,153.938)">
          <path
             d="m 0,0 c 5.187,0 9.391,-4.156 9.391,-9.282 0,-5.126 -4.204,-9.281 -9.391,-9.281 -5.187,0 -9.391,4.155 -9.391,9.281 C -9.391,-4.156 -5.187,0 0,0"
             style="fill:#eee8d2;fill-opacity:1;fill-rule:nonzero;stroke:none"
             id="path538" />
        </g>
        <g
           id="g540"
           transform="translate(1598.7826,1057.5803)">
          <path
             d="m 0,0 c 5.187,0 9.391,-4.156 9.391,-9.282 0,-5.126 -4.204,-9.281 -9.391,-9.281 -5.187,0 -9.391,4.155 -9.391,9.281 C -9.391,-4.156 -5.187,0 0,0"
             style="fill:#c9ad63;fill-opacity:1;fill-rule:nonzero;stroke:none"
             id="path542" />
        </g>
        <g
           id="g544"
           transform="translate(1026.507,1078.2795)">
          <path
             d="m 0,0 c 5.187,0 9.391,-4.156 9.391,-9.282 0,-5.126 -4.204,-9.281 -9.391,-9.281 -5.187,0 -9.391,4.155 -9.391,9.281 C -9.391,-4.156 -5.187,0 0,0"
             style="fill:#e4d6ae;fill-opacity:1;fill-rule:nonzero;stroke:none"
             id="path546" />
        </g>
        <g
           id="g548"
           transform="translate(1049.3594,1054.1555)">
          <path
             d="m 0,0 c 5.187,0 9.391,-4.156 9.391,-9.282 0,-5.126 -4.204,-9.281 -9.391,-9.281 -5.187,0 -9.391,4.155 -9.391,9.281 C -9.391,-4.156 -5.187,0 0,0"
             style="fill:#e4d6ae;fill-opacity:1;fill-rule:nonzero;stroke:none"
             id="path550" />
        </g>
        <g
           id="g552"
           transform="translate(1071.839,1027.1052)">
          <path
             d="m 0,0 c 5.187,0 9.391,-4.155 9.391,-9.282 0,-5.126 -4.204,-9.281 -9.391,-9.281 -5.187,0 -9.391,4.155 -9.391,9.281 C -9.391,-4.155 -5.187,0 0,0"
             style="fill:#e4d6ae;fill-opacity:1;fill-rule:nonzero;stroke:none"
             id="path554" />
        </g>
        <g
           id="g556"
           transform="translate(1092.332,998.6922)">
          <path
             d="m 0,0 c 5.187,0 9.391,-4.156 9.391,-9.282 0,-5.126 -4.204,-9.281 -9.391,-9.281 -5.187,0 -9.391,4.155 -9.391,9.281 C -9.391,-4.156 -5.187,0 0,0"
             style="fill:#e4d6ae;fill-opacity:1;fill-rule:nonzero;stroke:none"
             id="path558" />
        </g>
        <g
           id="g560"
           transform="translate(760.9185,27.6127)">
          <path
             d="m 0,0 c 5.187,0 9.391,-4.156 9.391,-9.282 0,-5.126 -4.204,-9.281 -9.391,-9.281 -5.187,0 -9.391,4.155 -9.391,9.281 C -9.391,-4.156 -5.187,0 0,0"
             style="fill:#e4d6ac;fill-opacity:1;fill-rule:nonzero;stroke:none"
             id="path562" />
        </g>
        <g
           id="g564"
           transform="translate(785.5261,2.4335)">
          <path
             d="m 0,0 c 5.187,0 9.391,-4.156 9.391,-9.282 0,-5.126 -4.204,-9.281 -9.391,-9.281 -5.187,0 -9.391,4.155 -9.391,9.281 C -9.391,-4.156 -5.187,0 0,0"
             style="fill:#e4d6ac;fill-opacity:1;fill-rule:nonzero;stroke:none"
             id="path566" />
        </g>
        <g
           id="g568"
           transform="translate(805.9202,1076.5476)">
          <path
             d="m 0,0 c 5.187,0 9.391,-4.156 9.391,-9.282 0,-5.126 -4.204,-9.281 -9.391,-9.281 -5.187,0 -9.391,4.155 -9.391,9.281 C -9.391,-4.156 -5.187,0 0,0"
             style="fill:#c9ad63;fill-opacity:1;fill-rule:nonzero;stroke:none"
             id="path570" />
        </g>
        <g
           id="g572"
           transform="translate(779.8259,1052.5815)">
          <path
             d="m 0,0 c 5.187,0 9.391,-4.156 9.391,-9.282 0,-5.126 -4.204,-9.281 -9.391,-9.281 -5.187,0 -9.391,4.155 -9.391,9.281 C -9.391,-4.156 -5.187,0 0,0"
             style="fill:#c9ad63;fill-opacity:1;fill-rule:nonzero;stroke:none"
             id="path574" />
        </g>
        <g
           id="g576"
           transform="translate(755.5185,1026.8071)">
          <path
             d="m 0,0 c 5.187,0 9.391,-4.156 9.391,-9.282 0,-5.126 -4.204,-9.281 -9.391,-9.281 -5.187,0 -9.391,4.155 -9.391,9.281 C -9.391,-4.156 -5.187,0 0,0"
             style="fill:#c9ad63;fill-opacity:1;fill-rule:nonzero;stroke:none"
             id="path578" />
        </g>
        <g
           id="g580"
           transform="translate(707.6229,966.9086)">
          <path
             d="m 0,0 c 5.187,0 9.391,-4.156 9.391,-9.282 0,-5.126 -4.204,-9.281 -9.391,-9.281 -5.187,0 -9.391,4.155 -9.391,9.281 C -9.391,-4.156 -5.187,0 0,0"
             style="fill:#c9ad63;fill-opacity:1;fill-rule:nonzero;stroke:none"
             id="path582" />
        </g>
        <g
           id="g584"
           transform="translate(683.8325,932.5668)">
          <path
             d="m 0,0 c 5.187,0 9.391,-4.155 9.391,-9.282 0,-5.126 -4.204,-9.281 -9.391,-9.281 -5.187,0 -9.391,4.155 -9.391,9.281 C -9.391,-4.155 -5.187,0 0,0"
             style="fill:#c9ad63;fill-opacity:1;fill-rule:nonzero;stroke:none"
             id="path586" />
        </g>
        <g
           id="g588"
           transform="translate(1537.5704,969.743)">
          <path
             d="m 0,0 c 5.187,0 9.391,-4.156 9.391,-9.282 0,-5.126 -4.204,-9.281 -9.391,-9.281 -5.187,0 -9.391,4.155 -9.391,9.281 C -9.391,-4.156 -5.187,0 0,0"
             style="fill:#c9ad63;fill-opacity:1;fill-rule:nonzero;stroke:none"
             id="path590" />
        </g>
        <g
           id="g592"
           transform="translate(1509.6401,945.793)">
          <path
             d="m 0,0 c 5.187,0 9.391,-4.156 9.391,-9.282 0,-5.126 -4.204,-9.281 -9.391,-9.281 -5.187,0 -9.391,4.155 -9.391,9.281 C -9.391,-4.156 -5.187,0 0,0"
             style="fill:#c9ad63;fill-opacity:1;fill-rule:nonzero;stroke:none"
             id="path594" />
        </g>
        <g
           id="g596"
           transform="translate(1616.9263,1091.682)">
          <path
             d="m 0,0 c 5.187,0 9.391,-4.156 9.391,-9.282 0,-5.126 -4.204,-9.281 -9.391,-9.281 -5.187,0 -9.391,4.155 -9.391,9.281 C -9.391,-4.156 -5.187,0 0,0"
             style="fill:#c9ad63;fill-opacity:1;fill-rule:nonzero;stroke:none"
             id="path598" />
        </g>
        <g
           id="g600"
           transform="translate(154.1461,322.2342)">
          <path
             d="m 0,0 14.808,-10.027 -16.271,-2.201 -0.939,-0.266 -1.134,-1.445 3.224,-17.452 -14.148,11.455 -2.35,-0.55 -10.129,-15.102 -1.779,16.799 c 0,0 -1.208,0.661 -1.461,1.121 -0.245,0.225 -1.225,1.128 -1.225,1.128 l -16.94,-3.395 11.811,14.459 -0.54,1.855 -15.485,9.067 17.227,1.999 c 0,0 0.44,0.952 0.668,1.194 0.229,0.242 0.914,0.968 0.914,0.968 l -2.497,17.009 13.895,-10.995 1.412,0.283 10.112,15.571 2.293,-17.953 c 0,0 0.735,-0.677 0.98,-0.903 0.245,-0.226 0.971,-0.669 0.971,-0.669 l 16.94,3.395 -10.855,-14.66 z"
             style="fill:#ffffff;fill-opacity:1;fill-rule:nonzero;stroke:none"
             id="path602" />
        </g>
        <g
           id="g604"
           transform="translate(1588.3097,1005.8408)">
          <path
             d="m 0,0 12.848,-8.182 -13.861,-1.982 -0.76,-0.292 -0.965,-1.314 3.11,-14.753 -12.142,9.482 -1.792,-0.345 -8.372,-12.821 -1.794,14.316 c 0,0 -1.072,0.703 -1.343,0.942 -0.271,0.239 -1.085,0.955 -1.085,0.955 l -14.324,-3.017 9.947,12.396 -0.596,1.486 -13.324,7.399 14.635,2.022 c 0,0 0.475,0.783 0.72,1.048 0.244,0.266 0.72,1.049 0.72,1.049 l -2.309,14.289 11.87,-9.244 1.018,0.306 8.604,13.338 2.349,-15.046 c 0,0 0.801,-0.464 0.814,-0.716 C -5.76,11.077 -5.218,10.6 -5.218,10.6 L 9.106,13.617 -0.067,1.26 Z"
             style="fill:#ffffff;fill-opacity:1;fill-rule:nonzero;stroke:none"
             id="path606" />
        </g>
        <g
           id="g608"
           transform="translate(1706.0424,305.8204)">
          <path
             d="m 0,0 12.519,-8.065 -13.5,-1.944 -0.74,-0.287 -0.939,-1.294 3.037,-14.531 -11.83,9.346 -1.746,-0.34 -8.147,-12.62 -1.755,14.099 c 0,0 -1.045,0.693 -1.309,0.928 -0.264,0.235 -1.058,0.941 -1.058,0.941 l -13.949,-2.963 9.681,12.202 -0.581,1.464 -12.982,7.294 14.253,1.983 c 0,0 0.463,0.771 0.701,1.032 0.238,0.262 0.701,1.032 0.701,1.032 l -2.258,14.074 11.567,-9.11 0.992,0.3 8.372,13.13 2.297,-14.818 c 0,0 0.78,-0.457 0.793,-0.706 0.264,-0.235 0.793,-0.705 0.793,-0.705 L 8.861,13.405 -0.066,1.241 Z"
             style="fill:#ffffff;fill-opacity:1;fill-rule:nonzero;stroke:none"
             id="path610" />
        </g>
        <g
           id="g612"
           transform="translate(1348.8722,168.3375)">
          <path
             d="m 0,0 8.322,-5.997 -9.362,-0.857 -0.52,-0.171 -0.694,-0.857 1.561,-10.109 -7.802,6.854 -1.214,-0.172 -6.068,-8.395 -0.693,9.766 c 0,0 -0.694,0.514 -0.867,0.685 -0.173,0.172 -0.693,0.686 -0.693,0.686 l -9.709,-1.542 7.108,8.053 -0.347,1.028 -8.668,5.483 9.882,0.857 c 0,0 0.347,0.514 0.52,0.685 0.173,0.171 0.52,0.685 0.52,0.685 l -1.04,9.767 7.628,-6.682 0.694,0.171 6.241,8.738 1.04,-10.28 c 0,0 0.52,-0.343 0.52,-0.514 0.173,-0.171 0.52,-0.514 0.52,-0.514 L 6.588,8.91 0,0.857 Z"
             style="fill:#ffffff;fill-opacity:1;fill-rule:nonzero;stroke:none"
             id="path614" />
        </g>
        <g
           id="g616"
           transform="translate(419.7794,143.8645)">
          <path
             d="m 0,0 -13.148,-9.282 4.696,-15.314 -13.148,9.513 -13.148,-9.049 5.165,14.85 L -42.496,0.232 -26.53,0 -21.365,15.083 -16.435,0 Z"
             style="fill:#e4d6ae;fill-opacity:1;fill-rule:nonzero;stroke:none"
             id="path618" />
        </g>
        <g
           id="g620"
           transform="translate(392.4699,1005.7382)">
          <path
             d="m 0,0 -30.319,-11.6 1.289,-32.502 -20.713,25.096 -30.562,-11.369 17.41,26.933 -20.237,25.105 31.384,-8.179 17.644,27.172 2.235,-32.014 z"
             style="fill:#ffffff;fill-opacity:1;fill-rule:nonzero;stroke:none"
             id="path622" />
        </g>
        <g
           id="g624"
           transform="translate(608.2836,913.4191)">
          <path
             d="m 0,0 7.237,-4.901 -7.952,-1.075 -0.459,-0.131 -0.554,-0.706 1.575,-8.529 -6.914,5.598 -1.149,-0.268 -4.951,-7.382 -0.869,8.211 c 0,0 -0.59,0.323 -0.714,0.548 -0.12,0.11 -0.598,0.551 -0.598,0.551 l -8.28,-1.659 5.772,7.066 -0.263,0.907 -7.569,4.431 8.42,0.978 c 0,0 0.215,0.465 0.327,0.583 0.111,0.119 0.446,0.474 0.446,0.474 l -1.22,8.313 6.791,-5.374 0.69,0.138 4.942,7.61 1.121,-8.774 c 0,0 0.359,-0.331 0.479,-0.441 0.12,-0.111 0.475,-0.327 0.475,-0.327 L 5.062,7.5 -0.243,0.335 Z"
             style="fill:#ffffff;fill-opacity:1;fill-rule:nonzero;stroke:none"
             id="path626" />
        </g>
        <g
           id="g628"
           transform="translate(1850.9761,1017.921)">
          <path
             d="m 0,0 7.666,-5.129 -8.383,-1.06 -0.462,-0.17 -0.596,-0.791 1.723,-9.033 -7.226,5.915 -1.084,-0.192 -5.185,-7.73 -0.933,8.752 c 0,0 -0.639,0.44 -0.8,0.589 -0.161,0.148 -0.645,0.594 -0.645,0.594 l -8.672,-1.686 6.129,7.454 -0.344,0.913 -7.961,4.657 8.85,1.076 c 0,0 0.295,0.472 0.445,0.632 0.151,0.159 0.446,0.631 0.446,0.631 l -1.244,8.742 7.064,-5.767 0.618,0.176 5.329,8.043 1.261,-9.203 c 0,0 0.478,-0.292 0.483,-0.446 0.161,-0.148 0.484,-0.445 0.484,-0.445 L 5.635,8.208 -0.027,0.77 Z"
             style="fill:#ffffff;fill-opacity:1;fill-rule:nonzero;stroke:none"
             id="path630" />
        </g>
        <g
           id="g632"
           transform="translate(1812.1152,1086.0763)">
          <path
             d="m 0,0 c 5.187,0 9.391,-4.155 9.391,-9.281 0,-5.127 -4.204,-9.282 -9.391,-9.282 -5.187,0 -9.391,4.155 -9.391,9.282 C -9.391,-4.155 -5.187,0 0,0"
             style="fill:#ece3c8;fill-opacity:1;fill-rule:nonzero;stroke:none"
             id="path634" />
        </g>
        <g
           id="g636"
           transform="translate(1823.0817,1057.2623)">
          <path
             d="m 0,0 c 5.187,0 9.391,-4.156 9.391,-9.282 0,-5.126 -4.204,-9.281 -9.391,-9.281 -5.187,0 -9.391,4.155 -9.391,9.281 C -9.391,-4.156 -5.187,0 0,0"
             style="fill:#ece3c8;fill-opacity:1;fill-rule:nonzero;stroke:none"
             id="path638" />
        </g>
        <g
           id="g640"
           transform="translate(1863.3365,1005.1856)">
          <path
             d="m 0,0 c 5.187,0 9.391,-4.156 9.391,-9.282 0,-5.126 -4.204,-9.281 -9.391,-9.281 -5.187,0 -9.391,4.155 -9.391,9.281 C -9.391,-4.156 -5.187,0 0,0"
             style="fill:#ece3c8;fill-opacity:1;fill-rule:nonzero;stroke:none"
             id="path642" />
        </g>
        <g
           id="g644"
           transform="translate(1889.1477,983.2447)">
          <path
             d="m 0,0 c 5.187,0 9.391,-4.156 9.391,-9.282 0,-5.126 -4.204,-9.281 -9.391,-9.281 -5.187,0 -9.391,4.155 -9.391,9.281 C -9.391,-4.156 -5.187,0 0,0"
             style="fill:#ece3c8;fill-opacity:1;fill-rule:nonzero;stroke:none"
             id="path646" />
        </g>
        <g
           id="g648"
           transform="translate(1916.8822,969.3135)">
          <path
             d="m 0,0 c 5.187,0 9.391,-4.156 9.391,-9.282 0,-5.126 -4.204,-9.281 -9.391,-9.281 -5.187,0 -9.391,4.155 -9.391,9.281 C -9.391,-4.156 -5.187,0 0,0"
             style="fill:#ece3c8;fill-opacity:1;fill-rule:nonzero;stroke:none"
             id="path650" />
        </g>
        <g
           id="g652"
           transform="translate(11.6651,131.298)">
          <path
             d="m 0,0 c 5.187,0 9.391,-4.156 9.391,-9.282 0,-5.126 -4.204,-9.281 -9.391,-9.281 -5.187,0 -9.391,4.155 -9.391,9.281 C -9.391,-4.156 -5.187,0 0,0"
             style="fill:#eae6cc;fill-opacity:1;fill-rule:nonzero;stroke:none"
             id="path654" />
        </g>
        <g
           id="g656"
           transform="translate(39.683,117.2214)">
          <path
             d="m 0,0 c 5.187,0 9.391,-4.156 9.391,-9.282 0,-5.126 -4.204,-9.281 -9.391,-9.281 -5.187,0 -9.391,4.155 -9.391,9.281 C -9.391,-4.156 -5.187,0 0,0"
             style="fill:#eae6cc;fill-opacity:1;fill-rule:nonzero;stroke:none"
             id="path658" />
        </g>
        <g
           id="g660"
           transform="translate(65.6949,95.5448)">
          <path
             d="m 0,0 c 5.187,0 9.391,-4.156 9.391,-9.282 0,-5.126 -4.204,-9.281 -9.391,-9.281 -5.187,0 -9.391,4.155 -9.391,9.281 C -9.391,-4.156 -5.187,0 0,0"
             style="fill:#eae6cc;fill-opacity:1;fill-rule:nonzero;stroke:none"
             id="path662" />
        </g>
        <g
           id="g664"
           transform="translate(87.9844,73.4276)">
          <path
             d="m 0,0 c 5.187,0 9.391,-4.156 9.391,-9.282 0,-5.126 -4.204,-9.281 -9.391,-9.281 -5.187,0 -9.391,4.155 -9.391,9.281 C -9.391,-4.156 -5.187,0 0,0"
             style="fill:#eae6cc;fill-opacity:1;fill-rule:nonzero;stroke:none"
             id="path666" />
        </g>
        <g
           id="g668"
           transform="translate(105.9051,43.4241)">
          <path
             d="m 0,0 c 5.187,0 9.391,-4.156 9.391,-9.282 0,-5.126 -4.204,-9.281 -9.391,-9.281 -5.187,0 -9.391,4.155 -9.391,9.281 C -9.391,-4.156 -5.187,0 0,0"
             style="fill:#eae6cc;fill-opacity:1;fill-rule:nonzero;stroke:none"
             id="path670" />
        </g>
        <g
           id="g672"
           transform="translate(116.8715,14.4118)">
          <path
             d="m 0,0 c 5.187,0 9.391,-4.156 9.391,-9.282 0,-5.126 -4.204,-9.281 -9.391,-9.281 -5.187,0 -9.391,4.155 -9.391,9.281 C -9.391,-4.156 -5.187,0 0,0"
             style="fill:#eae6cc;fill-opacity:1;fill-rule:nonzero;stroke:none"
             id="path674" />
        </g>
        <g
           id="g676"
           transform="translate(1546.2449,641.0046)">
          <path
             d="m 0,0 c 13.46,34.513 20.468,71.487 20.468,108.788 0,164.838 -134.105,298.944 -298.942,298.944 -96.063,0 -184.636,-45.896 -240.241,-120.957 -38.541,19.255 -81.323,29.5 -125.029,29.5 -57.738,0 -113.178,-17.464 -160.328,-50.503 -24.448,-17.132 -45.759,-37.779 -63.368,-61.214 -47.292,29.676 -102.508,45.942 -159.082,45.942 -164.838,0 -298.943,-134.105 -298.943,-298.943 0,-66.267 21.244,-129.048 61.436,-181.558 28.074,-36.679 64.62,-66.484 105.821,-86.802 -0.563,-7.215 -0.845,-14.462 -0.845,-21.72 0,-153.123 124.575,-277.697 277.696,-277.697 57.445,0 112.584,17.403 159.458,50.33 27.882,19.587 51.638,43.773 70.423,71.469 31.349,-11.845 64.737,-17.97 98.843,-17.97 85.841,0 166.5,40.107 218.952,105.785 34.53,-15.397 72.001,-23.374 110.757,-23.374 150.398,0 272.757,122.355 272.757,272.754 C 49.833,-100.28 32.36,-45.731 0,0"
             style="fill:#00b3f0;fill-opacity:1;fill-rule:nonzero;stroke:none"
             id="path678" />
        </g>
        <g
           id="g680"
           transform="translate(1510.5118,636.5726)">
          <path
             d="m 0,0 c 16.45,35.28 25.072,74.042 25.072,113.22 0,147.674 -120.139,267.815 -267.812,267.815 -95.427,0 -182.598,-50.547 -230.411,-131.221 -39.964,25.816 -86.783,39.764 -134.86,39.764 -51.313,0 -100.576,-15.515 -142.463,-44.868 -30.146,-21.125 -54.924,-48.252 -72.994,-79.668 -47.198,37.69 -106.384,58.761 -167.321,58.761 -147.673,0 -267.814,-120.141 -267.814,-267.814 0,-110.341 68.652,-209.44 169.787,-249.289 -2.243,-13.441 -3.375,-27.087 -3.375,-40.791 0,-135.959 110.61,-246.568 246.567,-246.568 51.007,0 99.959,15.448 141.564,44.673 31.883,22.397 57.693,51.563 75.821,85.429 34.382,-17.261 72.331,-26.273 111.339,-26.273 84.844,0 163.988,44.085 209.295,114.491 36.464,-21.07 77.546,-32.08 120.414,-32.08 133.232,0 241.625,108.393 241.625,241.625 C 54.434,-96.608 35.237,-43.059 0,0"
             style="fill:#ffffff;fill-opacity:1;fill-rule:nonzero;stroke:none"
             id="path682" />
        </g>
        <g
           id="g684"
           transform="translate(1477.8778,632.4291)">
          <path
             d="m 0,0 c 19.437,34.721 30.532,74.744 30.532,117.364 0,132.901 -107.737,240.638 -240.638,240.638 -98.926,0 -183.894,-59.702 -220.88,-145.034 -38.763,33.388 -89.217,53.577 -144.391,53.577 -94.397,0 -174.979,-59.092 -206.81,-142.297 -43.925,47.076 -106.503,76.522 -175.968,76.522 -132.901,0 -240.638,-107.738 -240.638,-240.638 0,-109.914 73.693,-202.611 174.365,-231.391 -5.175,-18.682 -7.952,-38.361 -7.952,-58.69 0,-121.166 98.224,-219.39 219.39,-219.39 93.736,0 173.727,58.792 205.147,141.508 35.293,-23.791 77.813,-37.68 123.577,-37.68 88.176,0 164.303,51.558 199.899,126.167 36.036,-27.447 81.016,-43.755 129.811,-43.755 118.437,0 214.449,96.012 214.449,214.449 C 59.893,-90.934 37.086,-38.549 0,0"
             style="fill:#130c0e;fill-opacity:1;fill-rule:nonzero;stroke:none"
             id="path686" />
        </g>
        <g
           id="g688"
           transform="translate(1477.8605,403.4648)">
          <path
             d="m 0,0 v 18.509 l -4.653,-19.583 -5.04,-1.164 -4.542,17.46 V -3.286 l -4.764,-1.1 v 22.157 l 7.442,1.718 4.488,-16.539 0.055,0.013 4.377,18.585 7.345,1.696 V 1.087 Z m -34.394,-7.94 v 18.227 l -7.662,-1.769 v 3.916 l 20.268,4.68 v -3.917 l -7.386,-1.705 V -6.735 Z"
             style="fill:#f15a22;fill-opacity:1;fill-rule:nonzero;stroke:none"
             id="path690" />
        </g>
        <g
           id="g692"
           transform="translate(1375.6307,638.9887)">
          <path
             d="m 0,0 c 0,0 -0.345,-89.94 -1.464,-105.762 -1.12,-15.821 -3.876,-22.27 -8.183,-23.044 -2.068,-0.258 -4.131,0.244 -5.857,1.376 -11.275,7.397 -32.342,49.518 -51.205,86.148 l -27.52,-6.354 v -227.603 l 33.323,7.694 0.441,57.827 c 0,12.038 1.292,20.035 4.048,23.818 0.948,1.29 2.495,2.169 3.962,2.408 9.703,1.58 28.769,-23.044 52.11,-62.254 l 44.531,10.281 V 10.201 Z"
             style="fill:#f15a22;fill-opacity:1;fill-rule:nonzero;stroke:none"
             id="path694" />
        </g>
        <g
           id="g696"
           transform="translate(1205.778,410.9919)">
          <path
             d="m 0,0 c -1.021,-0.006 -8.58,0.252 -9.388,6.019 -0.469,3.34 1.206,6.363 5.167,8.942 3.446,2.064 8.7,4.214 15.763,6.277 l 33.333,8.771 v 28.977 c 0,0 -37.943,-9.13 -49.612,-7.395 -3.544,0.527 -5.857,2.408 -6.374,5.675 -0.431,3.353 1.206,6.363 5.168,8.943 10.67,6.951 58.57,17.283 58.57,17.283 v 66.86 L -45.994,127.584 -45.995,-50.647 54.694,-27.401 V 9.63 C 27.821,3.525 9.656,0.053 0,0"
             style="fill:#f15a22;fill-opacity:1;fill-rule:nonzero;stroke:none"
             id="path698" />
        </g>
        <g
           id="g700"
           transform="translate(1096.75,543.9684)">
          <path
             d="m 0,0 c 0,0 -10.684,-70.389 -20.17,-102.918 -2.711,-9.294 -9.262,-23.516 -18.174,-3.181 -3.192,7.283 -12.666,41.31 -19.62,85.178 l -30.767,-7.103 c 2.693,-30.163 17.463,-111.63 37.142,-159.091 l 59.67,13.776 c 21.964,58.126 35.142,119.519 39.621,184.352 z"
             style="fill:#f15a22;fill-opacity:1;fill-rule:nonzero;stroke:none"
             id="path702" />
        </g>
        <g
           id="g704"
           transform="translate(964.5376,346.3048)">
          <path
             d="m 0,0 c -4.753,-1.035 -15.565,-3.773 -21.09,-4.808 -5.288,-1.035 -8.377,1.947 -7.724,9.494 0.595,7.06 3.696,22.03 4.872,27.084 2.601,11.179 7.712,15.838 13.723,16.677 7.706,1.074 14.437,-5.66 18.12,-23.919 C 8.258,22.763 9.157,19.099 9.743,14.12 10.455,8.074 7.485,1.887 0,0 M 26.299,100.901 C 11.365,128.413 -6,122.712 -14.898,119.768 -26.557,115.91 -36.905,109.923 -47.733,66.973 -59.115,21.826 -71.505,-73.011 -71.505,-73.011 l 31.243,7.213 3.21,17.981 c 1.55,8.684 7.078,14.201 15.503,16.681 0,0 24.209,6.283 32.472,7.222 3.491,0.397 7.594,-2.358 8.786,-7.824 l 4.22,-19.347 42.55,9.823 c 0,0 -21.167,107.133 -40.18,142.163"
             style="fill:#f15a22;fill-opacity:1;fill-rule:nonzero;stroke:none"
             id="path706" />
        </g>
        <g
           id="g708"
           transform="translate(824.041,310.4394)">
          <path
             d="m 0,0 c -1.021,-0.006 -8.58,0.252 -9.389,6.019 -0.468,3.34 1.206,6.363 5.168,8.942 3.446,2.064 8.7,4.214 15.763,6.277 l 33.333,8.771 v 28.977 c 0,0 -37.944,-9.13 -49.612,-7.395 -3.544,0.527 -5.857,2.408 -6.374,5.675 -0.431,3.353 1.206,6.363 5.168,8.943 10.67,6.951 58.57,17.283 58.57,17.283 v 72.141 L -45.994,132.865 V -45.4 L 54.694,-22.155 V 9.63 C 27.82,3.525 9.656,0.053 0,0"
             style="fill:#f15a22;fill-opacity:1;fill-rule:nonzero;stroke:none"
             id="path710" />
        </g>
        <g
           id="g712"
           transform="translate(701.3028,459.1938)">
          <path
             d="m 0,0 c 0.947,-35.512 0.566,-62.095 -4.307,-79.536 -2.959,-10.595 -9.474,-18.659 -18.173,-24.764 -8.861,-6.218 -17.744,-8.942 -26.443,-9.114 -10.608,-0.21 -18.275,3.919 -19.293,15.047 -1.551,16.939 -2.24,40.617 -1.723,70.282 l -38.501,-8.889 v -262.254 l 52.885,12.209 c -0.948,33.449 0.193,58.26 4.306,73.604 2.804,10.456 10.476,19.306 18.174,24.506 8.997,6.075 17.726,9.23 26.443,9.372 10.594,0.172 18.294,-4.74 19.293,-15.305 1.465,-15.478 2.154,-37.807 1.723,-66.268 l 39.362,9.087 V 12.408 Z"
             style="fill:#f15a22;fill-opacity:1;fill-rule:nonzero;stroke:none"
             id="path714" />
        </g>
        <g
           id="g716"
           transform="translate(1371.7483,669.4389)">
          <path
             d="m 0,0 v 228.352 l -31.216,-7.207 c -16.556,-54.67 -25.926,-81.402 -34.089,-103.937 -13.912,-38.344 -28.342,-23.282 -35.068,-12.59 -7.818,12.533 -18.453,36.912 -36.906,81.579 l -45.588,-10.524 V -35.624 l 37.802,8.727 c -0.288,34.205 0.312,54.138 2.152,63.163 1.667,8.106 6.554,9.256 11.497,1.207 4.082,-6.611 10.52,-20.925 23.34,-50.358 l 25.352,5.853 c 13.969,37.539 21.5,56.463 26.846,65.718 4.312,7.531 12.533,12.82 15.004,-1.092 1.898,-10.52 1.725,-31.693 1.668,-66.645 z"
             style="fill:#faa61a;fill-opacity:1;fill-rule:nonzero;stroke:none"
             id="path718" />
        </g>
        <g
           id="g720"
           transform="translate(1124.4662,792.9427)">
          <path
             d="m 0,0 v -65.798 c -2.181,-21.225 -39.749,-30.212 -42.412,-7.92 -0.903,9.927 -1.379,23.638 -1.379,52.91 l -31.563,-7.287 v -195.612 l 43.279,9.992 v 46.822 c 2.632,33.864 41.876,35.743 45.485,11.716 1.215,-7.575 1.103,-19.541 1.103,-44.244 l 31.564,7.287 V 10.638 Z"
             style="fill:#faa61a;fill-opacity:1;fill-rule:nonzero;stroke:none"
             id="path722" />
        </g>
        <g
           id="g724"
           transform="translate(909.2111,765.0848)">
          <path
             d="m 0,0 v -80.614 l 29.123,6.723 c 11.606,2.68 15.681,0.216 15.597,-23.1 V -200.59 l 34.504,7.966 v 95.869 c 0.24,41.155 5.069,49.674 25.536,54.399 l 18.275,4.219 v 66.542 z"
             style="fill:#faa61a;fill-opacity:1;fill-rule:nonzero;stroke:none"
             id="path726" />
        </g>
        <g
           id="g728"
           transform="translate(892.1725,730.8561)">
          <path
             d="m 0,0 -36.8,-8.496 c 0,0 -0.836,-37.085 -2.265,-64.723 -2.131,-39.203 -44.052,-51.4 -46.376,-11.517 -1.061,20.332 -1.398,60.262 -1.398,60.262 l -44.378,-10.245 v -18.86 c 0,-73.443 9.103,-99.348 52.803,-93.576 10.345,1.366 18.197,4.019 26.917,10.307 0.566,0.359 1.123,0.304 1.572,0 0.937,-0.674 1.939,-2.564 0.394,-7.358 -8.318,-25.825 -79.225,-32.562 -79.225,-32.562 l -0.019,-58.215 c 40.722,5.993 85.176,14.586 108.305,53.306 C -11.734,-167.271 0.004,-138.132 0,0"
             style="fill:#faa61a;fill-opacity:1;fill-rule:nonzero;stroke:none"
             id="path730" />
        </g>
        <g
           id="g732"
           transform="translate(696.7018,699.6766)">
          <path
             d="m 0,0 v -62.533 c -2.072,-20.172 -37.777,-28.713 -40.308,-7.526 -0.857,9.433 -1.309,22.464 -1.309,50.284 l -29.998,-6.926 v -185.905 l 41.132,9.496 v 44.499 c 2.501,32.183 39.797,33.969 43.228,11.134 1.154,-7.198 1.048,-18.571 1.048,-42.048 L 43.79,-182.6 V 10.11 Z"
             style="fill:#faa61a;fill-opacity:1;fill-rule:nonzero;stroke:none"
             id="path734" />
        </g>
        <g
           id="g736"
           transform="translate(494.6394,562.0465)">
          <path
             d="m 0,0 c -18.835,-4.803 -29.944,5.287 -29.944,30.606 0,20.196 0.38,41.046 37.355,41.046 26.324,0 37.306,-13.329 37.331,-28.365 C 44.766,29.259 28.721,7.323 0,0 m 110.537,83.421 c 0,46.504 -34.264,102.752 -177.627,68.247 v -252.921 l 37.333,8.619 v 45.192 c 0,22.062 14.358,13.201 17.528,11.208 5.358,-3.368 16.55,-12.518 43.138,-42.394 l 63.423,14.642 -49.423,50.603 c 0,0 65.628,26.425 65.628,96.804"
             style="fill:#faa61a;fill-opacity:1;fill-rule:nonzero;stroke:none"
             id="path738" />
        </g>
        <g
           id="g740"
           transform="translate(367.7697,201.0503)">
          <path
             d="m 0,0 c -15.369,10.037 -36.196,13.87 -58.649,10.793 l -0.03,-0.003 c -18.324,-3.141 -34.352,-10.841 -46.361,-22.276 -11.124,-10.899 -18.303,-25.903 -20.212,-42.248 -1.339,-11.571 -2.164,-28.578 6.094,-42.613 9.139,-16.425 26.762,-23.385 36.458,-26.072 7.179,-1.961 16.021,-3.971 25.271,-3.971 3.349,0 6.753,0.263 10.149,0.888 9.363,1.93 19.396,5.497 30.678,10.906 12.448,6.048 29.012,16.954 37.227,34.541 5.931,12.13 6.931,27.273 2.97,45.022 C 20.039,-20.078 11.436,-7.309 0,0 m -15.258,-137.631 c 4.821,-11.996 8.761,-22.875 8.229,-34.696 -0.038,-0.702 -0.072,-1.406 -0.106,-2.118 -0.274,-5.845 -0.586,-12.47 -4.847,-17.053 l -0.272,-0.201 c -1.792,-0.855 -3.634,-0.83 -5.323,0.078 -2.724,1.46 -4.332,4.805 -4.672,7.296 -0.977,5.08 -1.372,10.4 -1.755,15.544 -0.535,7.222 -1.089,14.69 -3.292,21.685 -1.013,2.916 -2.392,6.4 -4.491,9.431 2.191,-7.726 3.618,-14.593 4.443,-21.332 0.427,-3.466 0.611,-7.034 0.79,-10.484 0.354,-6.826 0.721,-13.883 2.977,-20.386 l 0.048,-0.236 c 1.498,-23.425 0.396,-42.44 -3.466,-59.839 -0.797,-3.595 -7.235,-9.153 -12.729,-9.907 -0.372,-0.053 -0.743,-0.08 -1.115,-0.08 -3.843,0 -7.627,2.725 -8.762,6.493 l -0.039,0.222 c -0.186,4.468 2.613,8.169 5.364,11.304 -2.104,9.652 -3.905,19.668 -5.356,29.773 -0.093,0.462 -0.161,0.938 -0.214,1.418 -0.322,-7.416 0.726,-14.872 1.75,-22.136 0.347,-2.472 0.694,-4.938 0.988,-7.396 l 0.035,-0.285 -0.138,-0.252 c -0.489,-0.9 -1.025,-1.792 -1.562,-2.688 -2.054,-3.417 -3.993,-6.647 -3.593,-10.51 l 0.062,-0.593 -0.522,-0.291 c -3.428,-1.894 -7.431,-3.796 -11.608,-2.414 -3.441,1.813 -5.352,5.581 -4.585,8.827 0.385,2.439 1.803,4.363 3.174,6.225 0.605,0.823 1.181,1.604 1.668,2.426 -1.737,14.471 -3.34,25.469 -5.182,35.59 -0.648,1.024 -1.335,2.04 -2.027,3.063 -2.219,3.279 -4.512,6.67 -5.777,10.724 -2.683,8.353 -1.434,17.091 -0.225,25.541 l 0.376,2.656 c 0.683,5.341 2.098,10.539 3.467,15.564 0.328,1.204 0.659,2.425 0.983,3.654 -7.133,-12.795 -10.312,-28.074 -8.996,-43.642 l 0.062,-0.73 -1.025,-0.306 c -1.826,-0.552 -4.095,-1.238 -5.841,0.504 -3.212,4.077 -2.36,9.137 -1.608,13.602 0.092,0.548 0.185,1.09 0.266,1.619 2.205,10.824 6.317,22.309 12.952,36.18 0.143,0.392 0.306,0.848 0.466,1.3 0.873,2.461 1.698,4.787 3.887,6.464 l 0.552,-0.716 c 0,0 0,0 0,0 v -0.001 l 0.057,-0.073 c 12.98,-2.19 29.724,0.094 44.843,6.115 l 0.397,0.159 0.375,-0.205 c 6.039,-3.297 8.745,-9.724 10.917,-14.887"
             style="fill:#ffffff;fill-opacity:1;fill-rule:nonzero;stroke:none"
             id="path742" />
        </g>
        <g
           id="g744"
           transform="translate(341.5212,156.5104)">
          <path
             d="m 0,0 c -6.762,0 -12.243,-5.458 -12.243,-12.191 0,-6.733 5.481,-12.191 12.243,-12.191 6.762,0 12.243,5.458 12.243,12.191 C 12.243,-5.458 6.762,0 0,0 m -15.957,-43.967 c -8.908,-1.496 -17.749,1.806 -26.837,1.445 -9.06,-0.36 -16.654,-6.813 -25.931,-5.778 -4.16,0.464 -8.978,3.01 -8.523,8.125 0.512,5.756 5.259,9.389 9.792,11.917 -3.808,-0.722 -7.751,-1.317 -10.699,-3.792 -5.715,-4.799 -4.811,-14.831 1.632,-18.417 4.045,-2.251 8.886,-2.891 13.419,-2.528 6.71,0.539 12.512,4.698 19.222,5.417 10.154,1.088 20.374,-4.01 30.464,-0.903 2.191,0.675 4.533,-0.18 6.709,-0.902 -0.544,3.611 -1.813,7.222 -4.533,9.75 -1.088,-1.806 -2.363,-3.938 -4.715,-4.334 M 49.324,9.299 C 46.155,23.043 38.125,36.089 26.113,43.786 8.768,54.898 -12.75,57.37 -32.277,54.439 -49.197,51.898 -65.591,44.275 -77.792,32.41 -89.168,21.347 -95.834,6.218 -97.739,-9.299 c -1.73,-14.094 -1.298,-29.344 5.984,-42.071 7.595,-13.272 21.364,-21.605 35.905,-25.639 11.398,-3.163 23.234,-5.362 34.997,-3.07 10.54,2.055 20.685,6.113 30.464,10.834 15.253,7.362 29.42,18.662 36.811,34.126 6.588,13.781 6.268,29.815 2.902,44.418 M -0.362,-78.815 c -13.781,-5.778 -30.238,-8.544 -44.926,-5.836 -9.147,-11.709 -15.927,-30.262 -18.168,-42.777 -0.837,-4.676 -1.527,-10.454 1.984,-14.402 1.36,-1.529 3.446,-0.722 5.259,-0.181 -1.451,17.154 2.539,34.848 12.149,49.113 -1.813,-8.306 -4.686,-16.435 -5.802,-24.737 -1.239,-9.213 -2.94,-18.734 -0.182,-27.806 1.531,-5.033 4.896,-9.209 7.798,-13.723 2.176,-11.917 3.808,-24.014 5.259,-36.112 -1.814,-2.708 -4.322,-5.241 -4.897,-8.667 -0.516,-3.074 1.158,-6.552 3.99,-7.764 3.688,-1.578 7.616,0.723 10.88,2.348 -0.544,5.236 2.901,9.389 5.259,13.722 -1.451,12.098 -3.99,24.376 -1.995,36.654 1.088,-2.528 4.715,-28.529 6.709,-38.459 -2.719,-3.07 -6.253,-6.742 -5.44,-11.015 0.705,-3.704 5.076,-6.31 8.886,-5.777 5.257,0.734 9.792,4.513 11.968,9.208 4.171,19.5 4.715,39.723 3.445,59.585 -3.445,9.931 -2.541,20.74 -3.808,31.056 -1.061,8.649 -3.082,16.973 -5.621,25.279 3.627,-3.431 5.84,-8.293 7.435,-13.001 4.086,-12.065 3.131,-24.879 5.077,-37.376 0.617,-3.962 4.53,-9.756 8.704,-6.68 5.471,4.032 4.48,12.279 4.715,18.597 0.443,11.921 -3.686,23.341 -8.16,34.306 -2.295,5.624 -5.346,10.882 -10.518,14.445 m 50.774,41.529 C 41.479,-56.042 23.574,-68.703 4.897,-76.828 c 13.655,-12.965 20.608,-43.028 17.227,-60.669 -0.834,-4.348 -2.081,-9.272 -5.803,-12.097 -2.973,-2.257 -5.961,-3.162 -9.974,-1.084 0.544,-8.486 0.363,-17.153 0.182,-25.639 -0.363,-9.028 -2.297,-17.862 -3.264,-26.903 -0.829,-7.754 -7.95,-13.648 -15.051,-15.529 -5.058,-1.339 -9.792,1.987 -13.419,5.237 -2.72,-1.445 -5.628,-3.039 -8.704,-3.25 -6.575,-0.453 -12.875,5.048 -12.693,11.556 0.115,4.151 2.538,7.583 4.714,10.653 -1.45,11.014 -2.72,22.209 -4.714,33.223 -2.902,4.694 -6.528,9.028 -8.16,14.444 -3.083,-0.541 -6.891,-1.624 -9.43,0.903 -4.171,4.153 -4.938,11.915 -4.018,17.33 2.146,12.644 9.227,33.225 17.8,44.963 -13.963,3.25 -27.926,8.848 -37.899,19.32 -9.43,9.389 -14.326,22.57 -15.051,35.571 -1.088,19.681 3.083,40.265 15.051,56.154 12.693,17.153 32.64,27.445 53.131,31.237 19.947,3.25 41.525,1.263 59.296,-8.667 13.963,-7.584 24.118,-21.126 28.47,-36.293 4.714,-16.611 5.4,-35.01 -2.176,-50.918 m -77.611,-58.321 -11.606,8.125 1.995,-18.958 9.792,9.389 11.787,-6.5 -2.176,18.417 z m -48.047,71.225 c -6.762,0 -12.244,5.458 -12.244,12.191 0,6.733 5.482,12.191 12.244,12.191 6.762,0 12.243,-5.458 12.243,-12.191 0,-6.733 -5.481,-12.191 -12.243,-12.191"
             style="fill:#000000;fill-opacity:1;fill-rule:nonzero;stroke:none"
             id="path746" />
        </g>
      </g>
    </g>
  </g>
</svg>
