<?xml version="1.0" encoding="UTF-8" standalone="no"?>
<!-- Created with Inkscape (http://www.inkscape.org/) -->

<svg
   version="1.1"
   id="svg2"
   xml:space="preserve"
   width="2560"
   height="1440"
   viewBox="0 0 2560 1440"
   sodipodi:docname="Rhythm Heaven 2008 (Beta) Logo (Fever Style with Background).ai"
   xmlns:inkscape="http://www.inkscape.org/namespaces/inkscape"
   xmlns:sodipodi="http://sodipodi.sourceforge.net/DTD/sodipodi-0.dtd"
   xmlns="http://www.w3.org/2000/svg"
   xmlns:svg="http://www.w3.org/2000/svg"><defs
     id="defs6"><linearGradient
       x1="0"
       y1="0"
       x2="1"
       y2="0"
       gradientUnits="userSpaceOnUse"
       gradientTransform="matrix(0,-1296,-1296,0,142.42584,1185.7413)"
       spreadMethod="pad"
       id="linearGradient36"><stop
         style="stop-opacity:1;stop-color:#fc7571"
         offset="0"
         id="stop22" /><stop
         style="stop-opacity:1;stop-color:#fc7571"
         offset="0.1"
         id="stop24" /><stop
         style="stop-opacity:1;stop-color:#fa1013"
         offset="0.26601506"
         id="stop26" /><stop
         style="stop-opacity:1;stop-color:#fa1013"
         offset="0.5"
         id="stop28" /><stop
         style="stop-opacity:1;stop-color:#fa1013"
         offset="0.73398494"
         id="stop30" /><stop
         style="stop-opacity:1;stop-color:#fc7571"
         offset="0.9"
         id="stop32" /><stop
         style="stop-opacity:1;stop-color:#fc7571"
         offset="1"
         id="stop34" /></linearGradient><linearGradient
       x1="0"
       y1="0"
       x2="1"
       y2="0"
       gradientUnits="userSpaceOnUse"
       gradientTransform="matrix(0,-1296,-1296,0,414.54724,1185.7413)"
       spreadMethod="pad"
       id="linearGradient66"><stop
         style="stop-opacity:1;stop-color:#fdb44d"
         offset="0"
         id="stop52" /><stop
         style="stop-opacity:1;stop-color:#fdb44d"
         offset="0.1"
         id="stop54" /><stop
         style="stop-opacity:1;stop-color:#fb6413"
         offset="0.26601506"
         id="stop56" /><stop
         style="stop-opacity:1;stop-color:#fb6413"
         offset="0.5"
         id="stop58" /><stop
         style="stop-opacity:1;stop-color:#fb6413"
         offset="0.73398494"
         id="stop60" /><stop
         style="stop-opacity:1;stop-color:#fdb44d"
         offset="0.9"
         id="stop62" /><stop
         style="stop-opacity:1;stop-color:#fdb44d"
         offset="1"
         id="stop64" /></linearGradient><linearGradient
       x1="0"
       y1="0"
       x2="1"
       y2="0"
       gradientUnits="userSpaceOnUse"
       gradientTransform="matrix(0,-1296,-1296,0,688.99597,1185.7413)"
       spreadMethod="pad"
       id="linearGradient96"><stop
         style="stop-opacity:1;stop-color:#fef007"
         offset="0"
         id="stop82" /><stop
         style="stop-opacity:1;stop-color:#fef007"
         offset="0.1"
         id="stop84" /><stop
         style="stop-opacity:1;stop-color:#f2c802"
         offset="0.26601506"
         id="stop86" /><stop
         style="stop-opacity:1;stop-color:#f2c802"
         offset="0.5"
         id="stop88" /><stop
         style="stop-opacity:1;stop-color:#f2c802"
         offset="0.73398494"
         id="stop90" /><stop
         style="stop-opacity:1;stop-color:#fef007"
         offset="0.9"
         id="stop92" /><stop
         style="stop-opacity:1;stop-color:#fef007"
         offset="1"
         id="stop94" /></linearGradient><linearGradient
       x1="0"
       y1="0"
       x2="1"
       y2="0"
       gradientUnits="userSpaceOnUse"
       gradientTransform="matrix(0,-1296,-1296,0,969.55579,1185.7413)"
       spreadMethod="pad"
       id="linearGradient126"><stop
         style="stop-opacity:1;stop-color:#c5fc0a"
         offset="0"
         id="stop112" /><stop
         style="stop-opacity:1;stop-color:#c5fc0a"
         offset="0.1"
         id="stop114" /><stop
         style="stop-opacity:1;stop-color:#c4dc0f"
         offset="0.26601506"
         id="stop116" /><stop
         style="stop-opacity:1;stop-color:#c4dc0f"
         offset="0.5"
         id="stop118" /><stop
         style="stop-opacity:1;stop-color:#c4dc0f"
         offset="0.73398494"
         id="stop120" /><stop
         style="stop-opacity:1;stop-color:#c5fc0a"
         offset="0.9"
         id="stop122" /><stop
         style="stop-opacity:1;stop-color:#c5fc0a"
         offset="1"
         id="stop124" /></linearGradient><linearGradient
       x1="0"
       y1="0"
       x2="1"
       y2="0"
       gradientUnits="userSpaceOnUse"
       gradientTransform="matrix(0,-1296,-1296,0,1246.7122,1185.7413)"
       spreadMethod="pad"
       id="linearGradient156"><stop
         style="stop-opacity:1;stop-color:#79e93f"
         offset="0"
         id="stop142" /><stop
         style="stop-opacity:1;stop-color:#79e93f"
         offset="0.1"
         id="stop144" /><stop
         style="stop-opacity:1;stop-color:#5bd20e"
         offset="0.26601506"
         id="stop146" /><stop
         style="stop-opacity:1;stop-color:#5bd20e"
         offset="0.5"
         id="stop148" /><stop
         style="stop-opacity:1;stop-color:#5bd20e"
         offset="0.73398494"
         id="stop150" /><stop
         style="stop-opacity:1;stop-color:#79e93f"
         offset="0.9"
         id="stop152" /><stop
         style="stop-opacity:1;stop-color:#79e93f"
         offset="1"
         id="stop154" /></linearGradient><linearGradient
       x1="0"
       y1="0"
       x2="1"
       y2="0"
       gradientUnits="userSpaceOnUse"
       gradientTransform="matrix(0,-1296,-1296,0,1520.0923,1185.7413)"
       spreadMethod="pad"
       id="linearGradient186"><stop
         style="stop-opacity:1;stop-color:#6f77fe"
         offset="0"
         id="stop172" /><stop
         style="stop-opacity:1;stop-color:#6f77fe"
         offset="0.1"
         id="stop174" /><stop
         style="stop-opacity:1;stop-color:#080cfb"
         offset="0.26601506"
         id="stop176" /><stop
         style="stop-opacity:1;stop-color:#080cfb"
         offset="0.5"
         id="stop178" /><stop
         style="stop-opacity:1;stop-color:#080cfb"
         offset="0.73398494"
         id="stop180" /><stop
         style="stop-opacity:1;stop-color:#6f77fe"
         offset="0.9"
         id="stop182" /><stop
         style="stop-opacity:1;stop-color:#6f77fe"
         offset="1"
         id="stop184" /></linearGradient><linearGradient
       x1="0"
       y1="0"
       x2="1"
       y2="0"
       gradientUnits="userSpaceOnUse"
       gradientTransform="matrix(0,-1296,-1296,0,1787.2296,1185.7413)"
       spreadMethod="pad"
       id="linearGradient216"><stop
         style="stop-opacity:1;stop-color:#af58e7"
         offset="0"
         id="stop202" /><stop
         style="stop-opacity:1;stop-color:#af58e7"
         offset="0.1"
         id="stop204" /><stop
         style="stop-opacity:1;stop-color:#7010bc"
         offset="0.26601506"
         id="stop206" /><stop
         style="stop-opacity:1;stop-color:#7010bc"
         offset="0.5"
         id="stop208" /><stop
         style="stop-opacity:1;stop-color:#7010bc"
         offset="0.73398494"
         id="stop210" /><stop
         style="stop-opacity:1;stop-color:#af58e7"
         offset="0.9"
         id="stop212" /><stop
         style="stop-opacity:1;stop-color:#af58e7"
         offset="1"
         id="stop214" /></linearGradient><linearGradient
       x1="0"
       y1="0"
       x2="1"
       y2="0"
       gradientUnits="userSpaceOnUse"
       gradientTransform="matrix(-1308.5563,755.4953,755.4953,1308.5563,1619.3464,182.55313)"
       spreadMethod="pad"
       id="linearGradient250"><stop
         style="stop-opacity:1;stop-color:#ff0000"
         offset="0"
         id="stop232" /><stop
         style="stop-opacity:1;stop-color:#ff0000"
         offset="0.05"
         id="stop234" /><stop
         style="stop-opacity:1;stop-color:#f49f00"
         offset="0.2"
         id="stop236" /><stop
         style="stop-opacity:1;stop-color:#eeff00"
         offset="0.2771859"
         id="stop238" /><stop
         style="stop-opacity:1;stop-color:#eeff00"
         offset="0.35"
         id="stop240" /><stop
         style="stop-opacity:1;stop-color:#00ff00"
         offset="0.5"
         id="stop242" /><stop
         style="stop-opacity:1;stop-color:#1d0fff"
         offset="0.75"
         id="stop244" /><stop
         style="stop-opacity:1;stop-color:#710ec0"
         offset="0.95"
         id="stop246" /><stop
         style="stop-opacity:1;stop-color:#710ec0"
         offset="1"
         id="stop248" /></linearGradient><clipPath
       clipPathUnits="userSpaceOnUse"
       id="clipPath260"><path
         d="M 0,1080 H 1920 V 0 H 0 Z"
         id="path258" /></clipPath></defs><sodipodi:namedview
     id="namedview4"
     pagecolor="#ffffff"
     bordercolor="#666666"
     borderopacity="1.0"
     inkscape:pageshadow="2"
     inkscape:pageopacity="0.0"
     inkscape:pagecheckerboard="0" /><g
     id="g8"
     inkscape:groupmode="layer"
     inkscape:label="Rhythm Heaven 2008 (Beta) Logo (Fever Style with Background)"
     transform="matrix(1.3333333,0,0,-1.3333333,0,1440)"><g
       id="g10"><g
         id="g12"><g
           id="g18"><g
             id="g20"><path
               d="M 0,0 H 284.852 V 1080 H 0 Z"
               style="fill:url(#linearGradient36);stroke:none"
               id="path38" /></g></g></g></g><g
       id="g40"><g
         id="g42"><g
           id="g48"><g
             id="g50"><path
               d="M 272.073,0 H 557.022 V 1080 H 272.073 Z"
               style="fill:url(#linearGradient66);stroke:none"
               id="path68" /></g></g></g></g><g
       id="g70"><g
         id="g72"><g
           id="g78"><g
             id="g80"><path
               d="M 548.55,0 H 829.442 V 1080 H 548.55 Z"
               style="fill:url(#linearGradient96);stroke:none"
               id="path98" /></g></g></g></g><g
       id="g100"><g
         id="g102"><g
           id="g108"><g
             id="g110"><path
               d="m 825.027,0 h 289.057 V 1080 H 825.027 Z"
               style="fill:url(#linearGradient126);stroke:none"
               id="path128" /></g></g></g></g><g
       id="g130"><g
         id="g132"><g
           id="g138"><g
             id="g140"><path
               d="M 1101.505,0 H 1391.92 V 1080 H 1101.505 Z"
               style="fill:url(#linearGradient156);stroke:none"
               id="path158" /></g></g></g></g><g
       id="g160"><g
         id="g162"><g
           id="g168"><g
             id="g170"><path
               d="m 1377.982,0 h 284.221 v 1080 h -284.221 z"
               style="fill:url(#linearGradient186);stroke:none"
               id="path188" /></g></g></g></g><g
       id="g190"><g
         id="g192"><g
           id="g198"><g
             id="g200"><path
               d="m 1654.459,0 h 265.54 v 1080 h -265.54 z"
               style="fill:url(#linearGradient216);stroke:none"
               id="path218" /></g></g></g></g><g
       id="g220"><g
         id="g222"><g
           id="g228"><g
             id="g230"><path
               d="m 1067.729,948.442 c -37.514,17.992 -78.932,27.671 -121.086,27.671 v 0 c -64.654,0 -125.838,-21.966 -174.726,-61.078 v 0 C 708.989,961.814 632.303,987.62 552.19,987.62 v 0 c -203.297,0 -368.691,-165.395 -368.691,-368.692 v 0 c 0,-136.606 75.809,-260.796 193.436,-324.425 v 0 C 389.133,135.134 522.71,9.195 685.149,9.195 v 0 c 67.271,0 131.242,21.251 184.998,61.451 v 0 c 25.395,18.993 47.41,41.36 65.578,66.437 v 0 c 32.265,-13.87 67.337,-21.147 103.602,-21.147 v 0 c 71.356,0 137.986,28.839 186.37,77.63 v 0 c 52.329,-31.424 112.242,-48.162 174.953,-48.162 v 0 c 189.214,0 343.151,155.167 343.151,345.896 v 0 c 0,101.426 -43.48,195.996 -118.282,261.249 v 0 c 0.063,2.513 0.094,5.022 0.094,7.525 v 0 c 0,171.338 -139.394,310.731 -310.73,310.731 v 0 c -98.839,0 -189.492,-46.705 -247.154,-122.363"
               style="fill:url(#linearGradient250);stroke:none"
               id="path252" /></g></g></g></g><g
       id="g254"><g
         id="g256"
         clip-path="url(#clipPath260)"><g
           id="g262"
           transform="translate(1581.5869,733.3363)"><path
             d="m 0,0 c 0.906,8.945 1.362,17.881 1.362,26.738 0,147.812 -120.254,268.065 -268.066,268.065 -98.028,0 -186.725,-53.256 -233.57,-136.493 -39.24,27.2 -85.682,41.802 -134.671,41.802 -66.532,0 -128.739,-27.452 -173.223,-75.038 -59.917,55.427 -138.509,86.544 -221.229,86.544 -179.771,0 -326.025,-146.254 -326.025,-326.026 0,-128.927 76.376,-245.354 192.547,-297.512 -0.012,-1.038 -0.018,-2.069 -0.018,-3.101 0,-146.925 119.531,-266.455 266.455,-266.455 57.988,0 113.125,18.311 159.445,52.954 31.461,23.527 57.484,54.083 75.906,88.61 35.09,-22.682 75.964,-34.823 118.828,-34.823 71.865,0 138.01,34.933 178.732,91.852 52.127,-40.495 115.54,-62.384 182.59,-62.384 165.689,0 300.486,136.029 300.486,303.23 C 119.549,-146.123 75.252,-57.221 0,0"
             style="fill:#ffffff;fill-opacity:1;fill-rule:nonzero;stroke:none"
             id="path264" /></g><g
           id="g266"
           transform="translate(1544.3456,717.2498)"><path
             d="m 0,0 c 2.577,13.89 3.989,28.188 3.989,42.824 0,128.931 -104.52,233.45 -233.451,233.45 -102.566,0 -189.62,-66.174 -220.96,-158.133 -36.974,39.046 -89.263,63.442 -147.282,63.442 -71.649,0 -134.574,-37.179 -170.665,-93.262 -53.456,64.024 -133.858,104.768 -223.786,104.768 -160.942,0 -291.411,-130.469 -291.411,-291.41 0,-126.778 80.967,-234.628 194.005,-274.711 -0.946,-8.509 -1.476,-17.142 -1.476,-25.903 0,-128.042 103.798,-231.841 231.84,-231.841 104.036,0 192.066,68.525 221.418,162.902 33.643,-34.62 80.675,-56.16 132.762,-56.16 76.151,0 141.537,45.987 169.972,111.692 48.358,-50.661 116.185,-82.224 191.349,-82.224 146.837,0 265.872,120.264 265.872,268.616 C 122.176,-131.1 73.474,-47.796 0,0"
             style="fill:#220614;fill-opacity:1;fill-rule:nonzero;stroke:none"
             id="path268" /></g><g
           id="g270"
           transform="translate(1531.0677,535.9623)"><path
             d="M 0,0 C -10.852,28.827 -34.513,36.989 -62.454,29.102 -72.007,26.406 -83.638,16.448 -89.6,12.717 c -1.503,-0.941 -5.122,-2.622 -4.876,1.408 0.719,11.798 0.039,15.895 -1.727,20.663 -3.057,8.254 -26.816,18.931 -36.989,-5.93 -13.084,-31.976 -12.402,-85.995 0.856,-125.244 11.616,-34.391 69.118,-17.731 45.916,25.281 -25.135,46.594 12.717,68.766 30.753,68.766 21.643,0 26.779,-14.719 12.014,-56.722 -20.644,-58.725 25.972,-56.701 39.893,-38.456 C 12.381,-76.363 5.359,-14.235 0,0"
             style="fill:#f06917;fill-opacity:1;fill-rule:nonzero;stroke:none"
             id="path272" /></g><g
           id="g274"
           transform="translate(1302.8959,520.6868)"><path
             d="m 0,0 c 14.234,2.19 26.944,-2.87 28.387,-11.299 1.444,-8.43 -8.925,-17.039 -23.16,-19.228 -14.234,-2.19 -26.943,2.869 -28.387,11.299 C -24.604,-10.798 -14.234,-2.19 0,0 m 51.754,-60.782 c -23.233,0 -22.591,-22.667 -49.737,-22.667 -10.73,0 -24.119,6.526 -24.119,15.82 0,39.068 86.206,0.559 86.206,44.754 0,38.823 -43.132,59.614 -74.895,50.623 -55.335,-15.663 -70.551,-87.125 -30.255,-127.022 40.895,-40.491 102.096,-9.819 109.491,5.905 8.505,18.082 -0.03,32.587 -16.691,32.587"
             style="fill:#f06917;fill-opacity:1;fill-rule:nonzero;stroke:none"
             id="path276" /></g><g
           id="g278"
           transform="translate(1226.6794,487.2333)"><path
             d="m 0,0 c 0,45.366 -41.079,40.2 -43.831,1.132 -1.107,-15.717 -3.241,-46.296 -5.563,-66.672 -1.896,-16.63 -10.394,-22.316 -14.552,-0.917 -4.015,20.669 -4.302,40.129 -13.939,66.764 -11.128,30.753 -45.453,29.713 -45.453,-4.032 0,-26.045 20.82,-77.946 45.758,-99.233 24.639,-21.032 47.139,-7.214 61.721,27.054 C -6.296,-53.427 0,-24.255 0,0"
             style="fill:#f06917;fill-opacity:1;fill-rule:nonzero;stroke:none"
             id="path280" /></g><g
           id="g282"
           transform="translate(1029.0557,387.341)"><path
             d="m 0,0 c -14.071,-2.713 -26.878,1.948 -28.606,10.41 -1.727,8.462 8.28,17.521 22.351,20.235 C 7.816,33.358 20.624,28.697 22.351,20.235 24.078,11.773 14.071,2.713 0,0 m 63.551,12.8 c -3.982,2.106 -10.455,7.306 -10.455,15.255 0,8.483 3.577,11.677 3.577,28.399 0,33.565 -29.163,53.741 -60.528,53.741 -24.425,0 -43.713,-13.085 -53.558,-26.595 -8.621,-11.831 -2.935,-32.068 13.848,-32.068 21.46,0 13.851,26.473 43.348,26.473 12.734,0 26.81,-9.079 26.81,-18.616 0,-4.219 -4.219,-9.666 -9.711,-9.666 -4.963,0 -5.295,1.274 -13.492,1.274 -45.327,0 -63.004,-18.968 -63.004,-42.324 0,-27.146 19.247,-45.915 48.147,-45.915 28.063,0 38.702,11.341 46.268,22.667 1.232,1.845 3.015,3.356 5.41,0.96 4.332,-4.331 11.968,-11.399 24.624,-11.399 20.822,0 22.866,16.21 22.866,22.682 0,14.949 -16.171,10.914 -24.15,15.132"
             style="fill:#f06917;fill-opacity:1;fill-rule:nonzero;stroke:none"
             id="path284" /></g><g
           id="g286"
           transform="translate(878.9186,449.0425)"><path
             d="m 0,0 c 14.491,2.75 27.681,-1.974 29.459,-10.551 1.779,-8.576 -8.526,-17.758 -23.017,-20.508 -14.491,-2.75 -27.681,1.974 -29.46,10.55 C -24.797,-11.932 -14.491,-2.75 0,0 m 54.971,-59.387 c -23.316,0 -25.373,-24.883 -50.379,-24.883 -10.775,0 -24.578,6.319 -24.578,15.651 0,38.946 84.922,3.86 84.922,48.239 0,26.046 -32.295,60.18 -75.476,47.506 -55.411,-16.265 -68.284,-89.193 -26.447,-127.82 42.459,-39.201 102.435,-6.392 109.168,9.698 7.828,18.704 -0.733,31.609 -17.21,31.609"
             style="fill:#f06917;fill-opacity:1;fill-rule:nonzero;stroke:none"
             id="path288" /></g><g
           id="g290"
           transform="translate(747.5366,490.5969)"><path
             d="m 0,0 c -15.479,9.716 -36.923,6.532 -45.793,-13.512 -18.25,-41.238 37.784,-76.057 -34.116,-82.446 -67.444,-5.993 -28.613,56.401 -44.571,74.651 -17.221,19.695 -46.596,8.932 -58.51,-16.508 -21.705,-46.343 -16.589,-111.806 8.089,-159.795 30.984,-63.002 116.391,-33.802 68.457,31.25 -13.957,18.943 -6.939,37.02 23.233,40.963 44.846,5.862 70.988,-11.955 55.301,-46.129 -28.033,-61.069 51.738,-60.34 68.445,-10.853 C 61.506,-120.261 41.789,-26.229 0,0"
             style="fill:#f06917;fill-opacity:1;fill-rule:nonzero;stroke:none"
             id="path292" /></g><g
           id="g294"
           transform="translate(1445.9618,730.1102)"><path
             d="m 0,0 c -7.887,37.692 -53.466,42.339 -81.121,18.917 -12.208,13.762 -38.315,20.426 -68.64,-2.685 -1.443,-1.099 -7.107,-3.668 -7.107,1.239 0,3.714 2.399,15.514 -3.042,22.85 -3.424,4.618 -15.224,9.171 -23.783,4.25 -16.635,-9.565 -17.15,-38.457 -17.15,-67.315 0,-18.25 6.267,-92.901 35.003,-92.901 36.805,0 17.547,52.763 12.594,66.336 -7.176,19.669 6.603,44.999 30.692,44.999 21.277,0 11.027,-24.837 7.948,-33.382 -9.171,-25.456 -15.529,-51.999 -2.445,-62.24 12.119,-9.486 33.848,-1.499 37.662,13.573 3.851,15.223 -0.884,40.15 1.712,59.794 2.259,17.105 22.302,28.937 38.395,23.355 17.364,-6.022 -11.846,-56.793 -16.874,-70.188 -10.639,-28.338 18.97,-38.175 33.565,-24.639 C 2.657,-74.62 6.163,-29.452 0,0"
             style="fill:#feef0e;fill-opacity:1;fill-rule:nonzero;stroke:none"
             id="path296" /></g><g
           id="g298"
           transform="translate(1180.1669,732.673)"><path
             d="m 0,0 c -30.705,1.072 -40.355,-25.661 -46.801,-25.436 -2.444,0.085 -3.6,1.15 -3.415,6.451 0.763,21.844 12.331,29.882 13.314,58.05 1.078,30.857 -32.358,29.883 -46.051,8.765 -21.971,-38.385 -15.528,-126.866 -4.072,-164.361 7.967,-26.075 14.985,-34.273 33.52,-32.554 13.656,1.267 22.858,11.157 21.775,26.158 -1.213,16.793 -17.262,34.129 -16.264,50.417 1.584,25.862 33.057,40.386 49.046,34.299 25.387,-9.665 -3.57,-39.151 -8.09,-64.35 -4.798,-26.748 15.476,-36.849 32.951,-27.824 21.938,11.33 23.216,39.566 23.849,57.709 C 50.778,-43.587 49.921,-1.743 0,0"
             style="fill:#feef0e;fill-opacity:1;fill-rule:nonzero;stroke:none"
             id="path300" /></g><g
           id="g302"
           transform="translate(1054.5936,614.8779)"><path
             d="m 0,0 c -11.693,5.273 -21.691,-5.815 -32.786,1.33 -9.805,6.314 -8.696,25.954 -7.704,51.449 0.159,4.075 1.07,7.394 19.534,3.668 38.472,-7.765 34.85,39.802 8.285,39.435 -14.536,-0.201 -17.608,-12.839 -24.089,-9.11 -4.267,2.456 4.461,19.808 -2.446,35.155 -4.952,11.005 -32.237,10.247 -36.989,-3.974 -4.679,-14.003 6.794,-33.948 1.895,-37.723 -4.998,-3.852 -37.111,12.106 -45.426,-10.76 -7.024,-19.316 12.472,-38.518 31.609,-26.596 19.11,11.905 19.99,9.275 17.932,-12.395 -2.045,-21.539 -6.438,-56.754 8.602,-66.78 15.93,-10.62 54.11,-6.618 66.856,9.66 C 12.885,-16.92 9.656,-4.355 0,0"
             style="fill:#feef0e;fill-opacity:1;fill-rule:nonzero;stroke:none"
             id="path304" /></g><g
           id="g306"
           transform="translate(924.7795,604.4384)"><path
             d="m 0,0 c 0,95.744 -28.837,87.922 -41.177,83.853 -17.242,-5.686 -17.099,-25.743 -7.796,-42.829 14.032,-25.77 4.769,-50.901 -11.482,-50.901 -15.419,0 -23.428,25.589 -23.428,44.176 0,42.033 -46.283,31.487 -46.283,5.686 0,-16.005 10.639,-82.355 48.423,-82.355 21.46,0 16.263,8.682 26.29,8.682 18.586,0 9.904,-37.111 -17.486,-37.111 -15.942,0 -15.377,7.734 -30.784,7.917 -23.415,0.279 -27.936,-34.4 -6.817,-41.727 C -61.109,-121.759 0,-88.316 0,0"
             style="fill:#feef0e;fill-opacity:1;fill-rule:nonzero;stroke:none"
             id="path308" /></g><g
           id="g310"
           transform="translate(781.7995,606.5739)"><path
             d="m 0,0 c 0,29.107 -2.318,70.895 -52.268,70.895 -30.724,0 -39.435,-27.054 -45.886,-27.054 -2.445,0 -3.637,1.024 -3.637,6.328 0,21.857 11.28,30.295 11.28,58.48 0,30.875 -33.382,28.735 -46.329,7.152 -20.619,-39.128 -11.091,-127.33 1.667,-164.402 8.872,-25.782 16.171,-33.73 34.635,-31.365 13.604,1.743 22.455,11.948 20.849,26.901 -1.799,16.742 -18.443,33.507 -18.014,49.82 0.681,25.901 31.628,41.515 47.819,35.989 25.709,-8.773 -2.201,-39.251 -5.839,-64.593 -3.861,-26.899 16.752,-36.286 33.902,-26.657 C -0.292,-46.417 0,-18.154 0,0"
             style="fill:#feef0e;fill-opacity:1;fill-rule:nonzero;stroke:none"
             id="path312" /></g><g
           id="g314"
           transform="translate(499.6777,634.2744)"><path
             d="m 0,0 c -22.893,0 -41.452,18.559 -41.452,41.452 0,22.894 18.559,41.453 41.452,41.453 22.893,0 41.452,-18.559 41.452,-41.453 C 41.452,18.559 22.893,0 0,0 m 95.866,-27.268 c -21.879,10.466 -32.098,8.498 -32.098,19.809 0,12.289 24.123,16.27 33.291,28.644 26.228,35.399 -3.21,100.88 -91.984,100.88 -122.891,0 -145.757,-182.654 -79.106,-234.479 32.769,-25.48 67.55,-21.481 67.55,7.132 0,30.02 -23.89,33.199 -23.89,54.567 0,12.954 8.544,29.01 30.563,29.01 23.966,0 41.973,-16.037 49.545,-23.966 18.8,-19.687 1.742,-43.409 9.079,-63.768 3.456,-9.59 16.984,-13.207 26.718,-13.207 49.645,0 58.388,72.389 10.332,95.378"
             style="fill:#feef0e;fill-opacity:1;fill-rule:nonzero;stroke:none"
             id="path316" /></g><g
           id="g318"
           transform="translate(1787.7302,379.9393)"><path
             d="m 0,0 0.405,23.314 -5.815,-24.663 -5.859,-1.461 -4.877,21.997 -0.405,-23.314 -5.538,-1.38 0.485,27.909 8.652,2.157 4.833,-20.836 0.064,0.016 5.474,23.406 8.54,2.129 L 5.474,1.365 Z m -39.989,-9.97 0.399,22.959 -8.909,-2.221 0.086,4.933 23.566,5.876 -0.086,-4.934 -8.588,-2.141 -0.399,-22.959 z"
             style="fill:#130c0e;fill-opacity:1;fill-rule:nonzero;stroke:none"
             id="path320" /></g></g></g></g></svg>
