<?xml version="1.0" encoding="UTF-8" standalone="no"?>
<!-- Created with Inkscape (http://www.inkscape.org/) -->

<svg
   version="1.1"
   id="svg1"
   width="2560"
   height="1440"
   viewBox="0 0 2560 1440"
   sodipodi:docname="Rhythm Paradise (Mysikt).ai"
   xmlns:inkscape="http://www.inkscape.org/namespaces/inkscape"
   xmlns:sodipodi="http://sodipodi.sourceforge.net/DTD/sodipodi-0.dtd"
   xmlns="http://www.w3.org/2000/svg"
   xmlns:svg="http://www.w3.org/2000/svg">
  <defs
     id="defs1">
    <clipPath
       clipPathUnits="userSpaceOnUse"
       id="clipPath3">
      <path
         d="M 0,1080 H 1920 V 0 H 0 Z"
         transform="translate(-1800,-1019.2498)"
         id="path3" />
    </clipPath>
    <clipPath
       clipPathUnits="userSpaceOnUse"
       id="clipPath5">
      <path
         d="M 0,1080 H 1920 V 0 H 0 Z"
         transform="translate(-1920,-1019.9998)"
         id="path5" />
    </clipPath>
    <clipPath
       clipPathUnits="userSpaceOnUse"
       id="clipPath7">
      <path
         d="M 0,1080 H 1920 V 0 H 0 Z"
         transform="translate(-1876.1748,-660.55012)"
         id="path7" />
    </clipPath>
    <clipPath
       clipPathUnits="userSpaceOnUse"
       id="clipPath9">
      <path
         d="M 0,1080 H 1920 V 0 H 0 Z"
         transform="translate(-1876.1748,-685.74982)"
         id="path9" />
    </clipPath>
    <clipPath
       clipPathUnits="userSpaceOnUse"
       id="clipPath11">
      <path
         d="M 0,1080 H 1920 V 0 H 0 Z"
         transform="translate(-1603.2754,-1036.4001)"
         id="path11" />
    </clipPath>
    <clipPath
       clipPathUnits="userSpaceOnUse"
       id="clipPath13">
      <path
         d="M 0,1080 H 1920 V 0 H 0 Z"
         transform="translate(-1583.4249,-1096.6248)"
         id="path13" />
    </clipPath>
    <clipPath
       clipPathUnits="userSpaceOnUse"
       id="clipPath15">
      <path
         d="M 0,1080 H 1920 V 0 H 0 Z"
         transform="translate(-1824.75,-1004.7249)"
         id="path15" />
    </clipPath>
    <clipPath
       clipPathUnits="userSpaceOnUse"
       id="clipPath17">
      <path
         d="M 0,1080 H 1920 V 0 H 0 Z"
         transform="translate(-1444.5273,-685.36511)"
         id="path17" />
    </clipPath>
    <clipPath
       clipPathUnits="userSpaceOnUse"
       id="clipPath19">
      <path
         d="M 0,1080 H 1920 V 0 H 0 Z"
         transform="translate(-1418.8722,-677.11072)"
         id="path19" />
    </clipPath>
    <clipPath
       clipPathUnits="userSpaceOnUse"
       id="clipPath21">
      <path
         d="M 0,1080 H 1920 V 0 H 0 Z"
         transform="translate(-1391.8486,-668.51152)"
         id="path21" />
    </clipPath>
    <clipPath
       clipPathUnits="userSpaceOnUse"
       id="clipPath23">
      <path
         d="M 0,1080 H 1920 V 0 H 0 Z"
         transform="translate(-1413.4863,-433.01451)"
         id="path23" />
    </clipPath>
    <clipPath
       clipPathUnits="userSpaceOnUse"
       id="clipPath25">
      <path
         d="M 0,1080 H 1920 V 0 H 0 Z"
         transform="translate(-1353.4336,-547.68832)"
         id="path25" />
    </clipPath>
    <clipPath
       clipPathUnits="userSpaceOnUse"
       id="clipPath27">
      <path
         d="M 0,1080 H 1920 V 0 H 0 Z"
         transform="translate(-1272.0831,-447.72251)"
         id="path27" />
    </clipPath>
    <clipPath
       clipPathUnits="userSpaceOnUse"
       id="clipPath29">
      <path
         d="M 0,1080 H 1920 V 0 H 0 Z"
         transform="translate(-1166.8605,-438.90801)"
         id="path29" />
    </clipPath>
    <clipPath
       clipPathUnits="userSpaceOnUse"
       id="clipPath31">
      <path
         d="M 0,1080 H 1920 V 0 H 0 Z"
         transform="translate(-1088.6953,-417.33771)"
         id="path31" />
    </clipPath>
    <clipPath
       clipPathUnits="userSpaceOnUse"
       id="clipPath33">
      <path
         d="M 0,1080 H 1920 V 0 H 0 Z"
         transform="translate(-994.04395,-395.49591)"
         id="path33" />
    </clipPath>
    <clipPath
       clipPathUnits="userSpaceOnUse"
       id="clipPath35">
      <path
         d="M 0,1080 H 1920 V 0 H 0 Z"
         transform="translate(-871.9048,-406.44901)"
         id="path35" />
    </clipPath>
    <clipPath
       clipPathUnits="userSpaceOnUse"
       id="clipPath37">
      <path
         d="M 0,1080 H 1920 V 0 H 0 Z"
         transform="translate(-781.88334,-329.99011)"
         id="path37" />
    </clipPath>
    <clipPath
       clipPathUnits="userSpaceOnUse"
       id="clipPath39">
      <path
         d="M 0,1080 H 1920 V 0 H 0 Z"
         transform="translate(-665.07761,-357.22151)"
         id="path39" />
    </clipPath>
    <clipPath
       clipPathUnits="userSpaceOnUse"
       id="clipPath41">
      <path
         d="M 0,1080 H 1920 V 0 H 0 Z"
         transform="translate(-1292.8975,-834.97102)"
         id="path41" />
    </clipPath>
    <clipPath
       clipPathUnits="userSpaceOnUse"
       id="clipPath43">
      <path
         d="M 0,1080 H 1920 V 0 H 0 Z"
         transform="translate(-1116.9004,-744.55892)"
         id="path43" />
    </clipPath>
    <clipPath
       clipPathUnits="userSpaceOnUse"
       id="clipPath45">
      <path
         d="M 0,1080 H 1920 V 0 H 0 Z"
         transform="translate(-940.9033,-731.45592)"
         id="path45" />
    </clipPath>
    <clipPath
       clipPathUnits="userSpaceOnUse"
       id="clipPath47">
      <path
         d="M 0,1080 H 1920 V 0 H 0 Z"
         transform="translate(-928.47122,-689.28011)"
         id="path47" />
    </clipPath>
    <clipPath
       clipPathUnits="userSpaceOnUse"
       id="clipPath49">
      <path
         d="M 0,1080 H 1920 V 0 H 0 Z"
         transform="translate(-773.76609,-691.91092)"
         id="path49" />
    </clipPath>
    <clipPath
       clipPathUnits="userSpaceOnUse"
       id="clipPath51">
      <path
         d="M 0,1080 H 1920 V 0 H 0 Z"
         transform="translate(-601.01612,-596.49052)"
         id="path51" />
    </clipPath>
  </defs>
  <sodipodi:namedview
     id="namedview1"
     pagecolor="#ffffff"
     bordercolor="#000000"
     borderopacity="0.25"
     inkscape:showpageshadow="2"
     inkscape:pageopacity="0.0"
     inkscape:pagecheckerboard="0"
     inkscape:deskcolor="#d1d1d1">
    <inkscape:page
       x="0"
       y="0"
       inkscape:label="1"
       id="page1"
       width="2560"
       height="1440"
       margin="0"
       bleed="0" />
  </sodipodi:namedview>
  <g
     id="layer-MC0"
     inkscape:groupmode="layer"
     inkscape:label="Layer 1">
    <path
       id="path1"
       d="M 0,0 H 1920 V 1080 H 0 Z"
       style="fill:#38f0d0;fill-opacity:1;fill-rule:nonzero;stroke:none"
       transform="matrix(1.3333333,0,0,-1.3333333,0,1440)" />
    <path
       id="path2"
       d="M 0,0 V 1.525 C -0.184,17.775 -6.05,31.667 -17.6,43.2 -29.3,54.9 -43.434,60.75 -60,60.75 -76.566,60.75 -90.717,54.9 -102.45,43.2 -113.95,31.667 -119.8,17.775 -120,1.525 V 0 c 0.2,-16.25 6.05,-30.125 17.55,-41.625 11.55,-11.55 25.442,-17.425 41.675,-17.625 h 1.55 c 16.233,0.2 30.108,6.075 41.625,17.625 C -6.05,-30.125 -0.184,-16.25 0,0 m 60.775,-59.25 h -1.55 C 42.992,-59.433 29.1,-65.283 17.55,-76.8 6.05,-88.333 0.2,-102.225 0,-118.475 V -120 c 0.2,-16.25 6.05,-30.125 17.55,-41.625 11.55,-11.55 25.442,-17.425 41.675,-17.625 h 1.55 c 16.233,0.2 30.108,6.075 41.625,17.625 11.733,11.7 17.6,25.825 17.6,42.375 0,16.567 -5.867,30.717 -17.6,42.45 -11.517,11.517 -25.392,17.367 -41.625,17.55 M -120,-120 v 1.525 c -0.184,16.25 -6.05,30.142 -17.6,41.675 -11.517,11.517 -25.392,17.367 -41.625,17.55 h -1.55 c -16.233,-0.183 -30.125,-6.033 -41.675,-17.55 -11.5,-11.533 -17.35,-25.425 -17.55,-41.675 V -120 c 0.2,-16.25 6.05,-30.125 17.55,-41.625 11.55,-11.55 25.442,-17.425 41.675,-17.625 h 1.55 c 16.233,0.2 30.108,6.075 41.625,17.625 11.55,11.5 17.416,25.375 17.6,41.625 m 60.775,-59.25 h -1.55 c -16.233,-0.183 -30.125,-6.033 -41.675,-17.55 -11.5,-11.533 -17.35,-25.425 -17.55,-41.675 V -240 c 0.2,-16.25 6.05,-30.125 17.55,-41.625 11.55,-11.55 25.442,-17.425 41.675,-17.625 h 1.55 c 16.233,0.2 30.108,6.075 41.625,17.625 11.55,11.5 17.416,25.375 17.6,41.625 v 1.525 c -0.184,16.25 -6.05,30.142 -17.6,41.675 -11.517,11.517 -25.392,17.367 -41.625,17.55 M -137.6,-316.8 c -11.517,11.517 -25.392,17.367 -41.625,17.55 h -1.55 c -16.233,-0.183 -30.125,-6.033 -41.675,-17.55 -11.5,-11.533 -17.35,-25.425 -17.55,-41.675 V -360 c 0.2,-16.25 6.05,-30.133 17.55,-41.65 11.55,-11.533 25.442,-17.4 41.675,-17.6 h 1.55 c 16.233,0.2 30.108,6.067 41.625,17.6 11.55,11.517 17.416,25.4 17.6,41.65 v 1.525 c -0.184,16.25 -6.05,30.142 -17.6,41.675 m 198.375,17.55 h -1.55 C 42.992,-299.433 29.1,-305.283 17.55,-316.8 6.05,-328.333 0.2,-342.225 0,-358.475 V -360 c 0.2,-16.25 6.05,-30.133 17.55,-41.65 11.55,-11.533 25.442,-17.4 41.675,-17.6 h 1.55 c 16.233,0.2 30.108,6.067 41.625,17.6 11.733,11.717 17.6,25.85 17.6,42.4 0,16.567 -5.867,30.717 -17.6,42.45 -11.517,11.517 -25.392,17.367 -41.625,17.55 M -240,0 v 1.525 c -0.184,16.25 -6.05,30.142 -17.6,41.675 -11.7,11.7 -25.834,17.55 -42.4,17.55 -16.566,0 -30.717,-5.85 -42.45,-17.55 C -353.95,31.667 -359.8,17.775 -360,1.525 V 0 c 0.2,-16.25 6.05,-30.125 17.55,-41.625 11.55,-11.55 25.442,-17.425 41.675,-17.625 h 1.55 c 16.233,0.2 30.108,6.075 41.625,17.625 11.55,11.5 17.416,25.375 17.6,41.625 m -240,0 v 1.525 c -0.2,16.25 -6.066,30.142 -17.6,41.675 -11.7,11.7 -25.834,17.55 -42.4,17.55 -16.566,0 -30.717,-5.85 -42.45,-17.55 C -593.967,31.667 -599.816,17.775 -600,1.525 V 0 c 0.184,-16.25 6.033,-30.125 17.55,-41.625 11.55,-11.55 25.442,-17.425 41.675,-17.625 h 1.55 c 16.233,0.2 30.108,6.075 41.625,17.625 11.534,11.5 17.4,25.375 17.6,41.625 m 0,-118.475 V -120 c 0.2,-16.25 6.05,-30.125 17.55,-41.625 11.55,-11.55 25.442,-17.425 41.675,-17.625 h 1.55 c 16.233,0.2 30.108,6.075 41.625,17.625 11.55,11.5 17.416,25.375 17.6,41.625 v 1.525 c -0.184,16.25 -6.05,30.142 -17.6,41.675 -11.517,11.517 -25.392,17.367 -41.625,17.55 h -1.55 c -16.233,-0.183 -30.125,-6.033 -41.675,-17.55 -11.5,-11.533 -17.35,-25.425 -17.55,-41.675 M -480,-240 v 1.525 c -0.2,16.25 -6.066,30.142 -17.6,41.675 -11.517,11.517 -25.392,17.367 -41.625,17.55 h -1.55 c -16.233,-0.183 -30.125,-6.033 -41.675,-17.55 -11.517,-11.533 -17.366,-25.425 -17.55,-41.675 V -240 c 0.184,-16.25 6.033,-30.125 17.55,-41.625 11.55,-11.55 25.442,-17.425 41.675,-17.625 h 1.55 c 16.233,0.2 30.108,6.075 41.625,17.625 11.534,11.5 17.4,25.375 17.6,41.625 m 120,1.525 V -240 c 0.2,-16.25 6.05,-30.125 17.55,-41.625 11.55,-11.55 25.442,-17.425 41.675,-17.625 h 1.55 c 16.233,0.2 30.108,6.075 41.625,17.625 11.55,11.5 17.416,25.375 17.6,41.625 v 1.525 c -0.184,16.25 -6.05,30.142 -17.6,41.675 -11.517,11.517 -25.392,17.367 -41.625,17.55 h -1.55 c -16.233,-0.183 -30.125,-6.033 -41.675,-17.55 -11.5,-11.533 -17.35,-25.425 -17.55,-41.675 m -59.225,-60.775 h -1.55 c -16.233,-0.183 -30.125,-6.033 -41.675,-17.55 -11.5,-11.533 -17.35,-25.425 -17.55,-41.675 V -360 c 0.2,-16.25 6.05,-30.133 17.55,-41.65 11.55,-11.533 25.442,-17.4 41.675,-17.6 h 1.55 c 16.233,0.2 30.108,6.067 41.625,17.6 11.55,11.517 17.416,25.4 17.6,41.65 v 1.525 c -0.184,16.25 -6.05,30.142 -17.6,41.675 -11.517,11.517 -25.392,17.367 -41.625,17.55 m 120,-120 h -1.55 c -16.233,-0.183 -30.125,-6.033 -41.675,-17.55 -11.5,-11.533 -17.35,-25.425 -17.55,-41.675 V -480 c 0.2,-16.25 6.05,-30.133 17.55,-41.649 11.55,-11.535 25.442,-17.401 41.675,-17.601 h 1.55 c 16.233,0.2 30.108,6.066 41.625,17.601 11.55,11.516 17.416,25.399 17.6,41.649 v 1.525 c -0.184,16.25 -6.05,30.142 -17.6,41.675 -11.517,11.517 -25.392,17.367 -41.625,17.55 M -480,-480 v 1.525 c -0.2,16.25 -6.066,30.142 -17.6,41.675 -11.517,11.517 -25.392,17.367 -41.625,17.55 h -1.55 c -16.233,-0.183 -30.125,-6.033 -41.675,-17.55 -11.517,-11.533 -17.366,-25.425 -17.55,-41.675 V -480 c 0.184,-16.25 6.033,-30.133 17.55,-41.649 11.55,-11.535 25.442,-17.401 41.675,-17.601 h 1.55 c 16.233,0.2 30.108,6.066 41.625,17.601 11.534,11.516 17.4,25.399 17.6,41.649 m 60.775,-59.25 h -1.55 c -16.233,-0.184 -30.125,-6.033 -41.675,-17.55 -11.5,-11.533 -17.35,-25.425 -17.55,-41.675 V -600 c 0.2,-16.25 6.05,-30.133 17.55,-41.649 11.55,-11.535 25.442,-17.401 41.675,-17.601 h 1.55 c 16.233,0.2 30.108,6.066 41.625,17.601 11.55,11.516 17.416,25.399 17.6,41.649 v 1.525 c -0.184,16.25 -6.05,30.142 -17.6,41.675 -11.517,11.517 -25.392,17.366 -41.625,17.55 M -480,-720 v 1.525 c -0.2,16.25 -6.066,30.142 -17.6,41.675 -11.517,11.517 -25.392,17.366 -41.625,17.55 h -1.55 c -16.233,-0.184 -30.125,-6.033 -41.675,-17.55 -11.517,-11.533 -17.366,-25.425 -17.55,-41.675 V -720 c 0.184,-16.25 6.033,-30.133 17.55,-41.649 11.55,-11.535 25.442,-17.401 41.675,-17.601 h 1.55 c 16.233,0.2 30.108,6.066 41.625,17.601 11.534,11.516 17.4,25.399 17.6,41.649 m 120,1.525 V -720 c 0.2,-16.25 6.05,-30.133 17.55,-41.649 11.55,-11.535 25.442,-17.401 41.675,-17.601 h 1.55 c 16.233,0.2 30.108,6.066 41.625,17.601 11.55,11.516 17.416,25.399 17.6,41.649 v 1.525 c -0.184,16.25 -6.05,30.142 -17.6,41.675 -11.517,11.517 -25.392,17.366 -41.625,17.55 h -1.55 c -16.233,-0.184 -30.125,-6.033 -41.675,-17.55 -11.5,-11.533 -17.35,-25.425 -17.55,-41.675 m 120,120 V -600 c 0.2,-16.25 6.05,-30.133 17.55,-41.649 11.55,-11.535 25.442,-17.401 41.675,-17.601 h 1.55 c 16.233,0.2 30.108,6.066 41.625,17.601 11.55,11.516 17.416,25.399 17.6,41.649 v 1.525 c -0.184,16.25 -6.05,30.142 -17.6,41.675 -11.517,11.517 -25.392,17.366 -41.625,17.55 h -1.55 c -16.233,-0.184 -30.125,-6.033 -41.675,-17.55 -11.5,-11.533 -17.35,-25.425 -17.55,-41.675 M 0,-480 v 1.525 c -0.184,16.25 -6.05,30.142 -17.6,41.675 -11.517,11.517 -25.392,17.367 -41.625,17.55 h -1.55 c -16.233,-0.183 -30.125,-6.033 -41.675,-17.55 -11.5,-11.533 -17.35,-25.425 -17.55,-41.675 V -480 c 0.2,-16.25 6.05,-30.133 17.55,-41.649 11.55,-11.535 25.442,-17.401 41.675,-17.601 h 1.55 c 16.233,0.2 30.108,6.066 41.625,17.601 C -6.05,-510.133 -0.184,-496.25 0,-480 M -120,-718.475 V -720 c 0.2,-16.25 6.05,-30.133 17.55,-41.649 11.55,-11.535 25.442,-17.401 41.675,-17.601 h 1.55 c 16.233,0.2 30.108,6.066 41.625,17.601 11.55,11.516 17.416,25.399 17.6,41.649 v 1.525 c -0.184,16.25 -6.05,30.142 -17.6,41.675 -11.517,11.517 -25.392,17.366 -41.625,17.55 h -1.55 c -16.233,-0.184 -30.125,-6.033 -41.675,-17.55 -11.5,-11.533 -17.35,-25.425 -17.55,-41.675 m 240,119.225 c 0,16.566 -5.867,30.717 -17.6,42.45 -11.517,11.517 -25.392,17.366 -41.625,17.55 h -1.55 C 42.992,-539.434 29.1,-545.283 17.55,-556.8 6.05,-568.333 0.2,-582.225 0,-598.475 V -600 c 0.2,-16.25 6.05,-30.133 17.55,-41.649 11.55,-11.535 25.442,-17.401 41.675,-17.601 h 1.55 c 16.233,0.2 30.108,6.066 41.625,17.601 11.733,11.715 17.6,25.849 17.6,42.399 m -59.225,-180 h -1.55 C 42.992,-779.434 29.1,-785.283 17.55,-796.8 6.05,-808.333 0.2,-822.225 0,-838.475 V -840 c 0.2,-16.25 6.05,-30.133 17.55,-41.649 11.55,-11.535 25.442,-17.401 41.675,-17.601 h 1.55 c 16.233,0.2 30.108,6.066 41.625,17.601 11.733,11.715 17.6,25.849 17.6,42.399 0,16.566 -5.867,30.717 -17.6,42.45 -11.517,11.517 -25.392,17.366 -41.625,17.55 M -137.6,-796.8 c -11.517,11.517 -25.392,17.366 -41.625,17.55 h -1.55 c -16.233,-0.184 -30.125,-6.033 -41.675,-17.55 -11.5,-11.533 -17.35,-25.425 -17.55,-41.675 V -840 c 0.2,-16.25 6.05,-30.133 17.55,-41.649 11.55,-11.535 25.442,-17.401 41.675,-17.601 h 1.55 c 16.233,0.2 30.108,6.066 41.625,17.601 11.55,11.516 17.416,25.399 17.6,41.649 v 1.525 c -0.184,16.25 -6.05,30.142 -17.6,41.675 m 78.375,-102.45 h -1.55 c -16.233,-0.184 -30.125,-6.033 -41.675,-17.55 -11.5,-11.533 -17.35,-25.425 -17.55,-41.675 V -960 c 0.2,-16.25 6.05,-30.133 17.55,-41.649 11.55,-11.534 25.442,-17.401 41.675,-17.601 h 1.55 c 16.233,0.2 30.108,6.067 41.625,17.601 11.55,11.516 17.416,25.399 17.6,41.649 v 1.525 c -0.184,16.25 -6.05,30.142 -17.6,41.675 -11.517,11.517 -25.392,17.366 -41.625,17.55 m -240,0 h -1.55 c -16.233,-0.184 -30.125,-6.033 -41.675,-17.55 -11.5,-11.533 -17.35,-25.425 -17.55,-41.675 V -960 c 0.2,-16.25 6.05,-30.133 17.55,-41.649 11.55,-11.534 25.442,-17.401 41.675,-17.601 h 1.55 c 16.233,0.2 30.108,6.067 41.625,17.601 11.55,11.516 17.416,25.399 17.6,41.649 v 1.525 c -0.184,16.25 -6.05,30.142 -17.6,41.675 -11.517,11.517 -25.392,17.366 -41.625,17.55 m -120,120 h -1.55 c -16.233,-0.184 -30.125,-6.033 -41.675,-17.55 -11.5,-11.533 -17.35,-25.425 -17.55,-41.675 V -840 c 0.2,-16.25 6.05,-30.133 17.55,-41.649 11.55,-11.535 25.442,-17.401 41.675,-17.601 h 1.55 c 16.233,0.2 30.108,6.066 41.625,17.601 11.55,11.516 17.416,25.399 17.6,41.649 v 1.525 c -0.184,16.25 -6.05,30.142 -17.6,41.675 -11.517,11.517 -25.392,17.366 -41.625,17.55 M -480,-960 v 1.525 c -0.2,16.25 -6.066,30.142 -17.6,41.675 -11.517,11.517 -25.392,17.366 -41.625,17.55 h -1.55 c -16.233,-0.184 -30.125,-6.033 -41.675,-17.55 -11.517,-11.533 -17.366,-25.425 -17.55,-41.675 V -960 c 0.184,-16.25 6.033,-30.133 17.55,-41.649 11.55,-11.534 25.442,-17.401 41.675,-17.601 h 1.55 c 16.233,0.2 30.108,6.067 41.625,17.601 11.534,11.516 17.4,25.399 17.6,41.649 m -179.225,900.75 h -1.55 c -16.233,-0.183 -30.125,-6.033 -41.675,-17.55 -11.517,-11.533 -17.366,-25.425 -17.55,-41.675 V -120 c 0.184,-16.25 6.033,-30.125 17.55,-41.625 11.55,-11.55 25.442,-17.425 41.675,-17.625 h 1.55 c 16.233,0.2 30.108,6.075 41.625,17.625 11.534,11.5 17.4,25.375 17.6,41.625 v 1.525 c -0.2,16.25 -6.066,30.142 -17.6,41.675 -11.517,11.517 -25.392,17.367 -41.625,17.55 M -720,0 v 1.525 c -0.2,16.25 -6.066,30.142 -17.6,41.675 -11.7,11.7 -25.834,17.55 -42.4,17.55 -16.566,0 -30.717,-5.85 -42.45,-17.55 C -833.967,31.667 -839.816,17.775 -840,1.525 V 0 c 0.184,-16.25 6.033,-30.125 17.55,-41.625 11.55,-11.55 25.442,-17.425 41.675,-17.625 h 1.55 c 16.233,0.2 30.108,6.075 41.625,17.625 11.534,11.5 17.4,25.375 17.6,41.625 m -59.225,-179.25 h -1.55 c -16.233,-0.183 -30.125,-6.033 -41.675,-17.55 -11.517,-11.533 -17.366,-25.425 -17.55,-41.675 V -240 c 0.184,-16.25 6.033,-30.125 17.55,-41.625 11.55,-11.55 25.442,-17.425 41.675,-17.625 h 1.55 c 16.233,0.2 30.108,6.075 41.625,17.625 11.534,11.5 17.4,25.375 17.6,41.625 v 1.525 c -0.2,16.25 -6.066,30.142 -17.6,41.675 -11.517,11.517 -25.392,17.367 -41.625,17.55 m 120,-120 h -1.55 c -16.233,-0.183 -30.125,-6.033 -41.675,-17.55 -11.517,-11.533 -17.366,-25.425 -17.55,-41.675 V -360 c 0.184,-16.25 6.033,-30.133 17.55,-41.65 11.55,-11.533 25.442,-17.4 41.675,-17.6 h 1.55 c 16.233,0.2 30.108,6.067 41.625,17.6 11.534,11.517 17.4,25.4 17.6,41.65 v 1.525 c -0.2,16.25 -6.066,30.142 -17.6,41.675 -11.517,11.517 -25.392,17.367 -41.625,17.55 M -960,0 v 1.525 c -0.2,16.25 -6.066,30.142 -17.6,41.675 -11.7,11.7 -25.833,17.55 -42.4,17.55 -16.566,0 -30.717,-5.85 -42.45,-17.55 -11.517,-11.533 -17.366,-25.425 -17.55,-41.675 V 0 c 0.184,-16.25 6.033,-30.125 17.55,-41.625 11.55,-11.55 25.442,-17.425 41.675,-17.625 h 1.55 c 16.233,0.2 30.108,6.075 41.625,17.625 11.534,11.5 17.4,25.375 17.6,41.625 m 0,-118.475 V -120 c 0.184,-16.25 6.033,-30.125 17.55,-41.625 11.55,-11.55 25.442,-17.425 41.675,-17.625 h 1.55 c 16.233,0.2 30.108,6.075 41.625,17.625 11.534,11.5 17.4,25.375 17.6,41.625 v 1.525 c -0.2,16.25 -6.066,30.142 -17.6,41.675 -11.517,11.517 -25.392,17.367 -41.625,17.55 h -1.55 c -16.233,-0.183 -30.125,-6.033 -41.675,-17.55 -11.517,-11.533 -17.366,-25.425 -17.55,-41.675 m -179.225,59.225 h -1.55 c -16.233,-0.183 -30.125,-6.033 -41.675,-17.55 -11.517,-11.533 -17.366,-25.425 -17.55,-41.675 V -120 c 0.184,-16.25 6.033,-30.125 17.55,-41.625 11.55,-11.55 25.442,-17.425 41.675,-17.625 h 1.55 c 16.233,0.2 30.108,6.075 41.625,17.625 11.534,11.5 17.4,25.375 17.6,41.625 v 1.525 c -0.2,16.25 -6.066,30.142 -17.6,41.675 -11.517,11.517 -25.392,17.367 -41.625,17.55 m 120,-120 h -1.55 c -16.233,-0.183 -30.125,-6.033 -41.675,-17.55 -11.517,-11.533 -17.366,-25.425 -17.55,-41.675 V -240 c 0.184,-16.25 6.033,-30.125 17.55,-41.625 11.55,-11.55 25.442,-17.425 41.675,-17.625 h 1.55 c 16.233,0.2 30.108,6.075 41.625,17.625 11.534,11.5 17.4,25.375 17.6,41.625 v 1.525 c -0.2,16.25 -6.066,30.142 -17.6,41.675 -11.517,11.517 -25.392,17.367 -41.625,17.55 m -120,-120 h -1.55 c -16.233,-0.183 -30.125,-6.033 -41.675,-17.55 -11.517,-11.533 -17.366,-25.425 -17.55,-41.675 V -360 c 0.184,-16.25 6.033,-30.133 17.55,-41.65 11.55,-11.533 25.442,-17.4 41.675,-17.6 h 1.55 c 16.233,0.2 30.108,6.067 41.625,17.6 11.534,11.517 17.4,25.4 17.6,41.65 v 1.525 c -0.2,16.25 -6.066,30.142 -17.6,41.675 -11.517,11.517 -25.392,17.367 -41.625,17.55 m 240,0 h -1.55 c -16.233,-0.183 -30.125,-6.033 -41.675,-17.55 -11.517,-11.533 -17.366,-25.425 -17.55,-41.675 V -360 c 0.184,-16.25 6.033,-30.133 17.55,-41.65 11.55,-11.533 25.442,-17.4 41.675,-17.6 h 1.55 c 16.233,0.2 30.108,6.067 41.625,17.6 11.534,11.517 17.4,25.4 17.6,41.65 v 1.525 c -0.2,16.25 -6.066,30.142 -17.6,41.675 -11.517,11.517 -25.392,17.367 -41.625,17.55 M -960,-480 v 1.525 c -0.2,16.25 -6.066,30.142 -17.6,41.675 -11.517,11.517 -25.392,17.367 -41.625,17.55 h -1.55 c -16.233,-0.183 -30.125,-6.033 -41.675,-17.55 -11.517,-11.533 -17.366,-25.425 -17.55,-41.675 V -480 c 0.184,-16.25 6.033,-30.133 17.55,-41.649 11.55,-11.535 25.442,-17.401 41.675,-17.601 h 1.55 c 16.233,0.2 30.108,6.066 41.625,17.601 11.534,11.516 17.4,25.399 17.6,41.649 m 120,1.525 V -480 c 0.184,-16.25 6.033,-30.133 17.55,-41.649 11.55,-11.535 25.442,-17.401 41.675,-17.601 h 1.55 c 16.233,0.2 30.108,6.066 41.625,17.601 11.534,11.516 17.4,25.399 17.6,41.649 v 1.525 c -0.2,16.25 -6.066,30.142 -17.6,41.675 -11.517,11.517 -25.392,17.367 -41.625,17.55 h -1.55 c -16.233,-0.183 -30.125,-6.033 -41.675,-17.55 -11.517,-11.533 -17.366,-25.425 -17.55,-41.675 m -299.225,-60.775 h -1.55 c -16.233,-0.184 -30.125,-6.033 -41.675,-17.55 -11.517,-11.533 -17.366,-25.425 -17.55,-41.675 V -600 c 0.184,-16.25 6.033,-30.133 17.55,-41.649 11.55,-11.535 25.442,-17.401 41.675,-17.601 h 1.55 c 16.233,0.2 30.108,6.066 41.625,17.601 11.534,11.516 17.4,25.399 17.6,41.649 v 1.525 c -0.2,16.25 -6.066,30.142 -17.6,41.675 -11.517,11.517 -25.392,17.366 -41.625,17.55 M -1080,-718.475 V -720 c 0.184,-16.25 6.033,-30.133 17.55,-41.649 11.55,-11.535 25.442,-17.401 41.675,-17.601 h 1.55 c 16.233,0.2 30.108,6.066 41.625,17.601 11.534,11.516 17.4,25.399 17.6,41.649 v 1.525 c -0.2,16.25 -6.066,30.142 -17.6,41.675 -11.517,11.517 -25.392,17.366 -41.625,17.55 h -1.55 c -16.233,-0.184 -30.125,-6.033 -41.675,-17.55 -11.517,-11.533 -17.366,-25.425 -17.55,-41.675 m 180.775,179.225 h -1.55 c -16.233,-0.184 -30.125,-6.033 -41.675,-17.55 -11.517,-11.533 -17.366,-25.425 -17.55,-41.675 V -600 c 0.184,-16.25 6.033,-30.133 17.55,-41.649 11.55,-11.535 25.442,-17.401 41.675,-17.601 h 1.55 c 16.233,0.2 30.108,6.066 41.625,17.601 11.534,11.516 17.4,25.399 17.6,41.649 v 1.525 c -0.2,16.25 -6.066,30.142 -17.6,41.675 -11.517,11.517 -25.392,17.366 -41.625,17.55 M -840,-718.475 V -720 c 0.184,-16.25 6.033,-30.133 17.55,-41.649 11.55,-11.535 25.442,-17.401 41.675,-17.601 h 1.55 c 16.233,0.2 30.108,6.066 41.625,17.601 11.534,11.516 17.4,25.399 17.6,41.649 v 1.525 c -0.2,16.25 -6.066,30.142 -17.6,41.675 -11.517,11.517 -25.392,17.366 -41.625,17.55 h -1.55 c -16.233,-0.184 -30.125,-6.033 -41.675,-17.55 -11.517,-11.533 -17.366,-25.425 -17.55,-41.675 m 120,120 V -600 c 0.184,-16.25 6.033,-30.133 17.55,-41.649 11.55,-11.535 25.442,-17.401 41.675,-17.601 h 1.55 c 16.233,0.2 30.108,6.066 41.625,17.601 11.534,11.516 17.4,25.399 17.6,41.649 v 1.525 c -0.2,16.25 -6.066,30.142 -17.6,41.675 -11.517,11.517 -25.392,17.366 -41.625,17.55 h -1.55 c -16.233,-0.184 -30.125,-6.033 -41.675,-17.55 -11.517,-11.533 -17.366,-25.425 -17.55,-41.675 M -1200,0 v 1.525 c -0.2,16.25 -6.066,30.142 -17.6,41.675 -11.7,11.7 -25.833,17.55 -42.4,17.55 -16.566,0 -30.717,-5.85 -42.45,-17.55 -11.517,-11.533 -17.366,-25.425 -17.55,-41.675 V 0 c 0.184,-16.25 6.033,-30.125 17.55,-41.625 11.55,-11.55 25.442,-17.425 41.675,-17.625 h 1.55 c 16.233,0.2 30.108,6.075 41.625,17.625 11.534,11.5 17.4,25.375 17.6,41.625 m -240,0 v 1.525 c -0.2,16.25 -6.066,30.142 -17.6,41.675 -11.7,11.7 -25.833,17.55 -42.4,17.55 -16.567,0 -30.717,-5.85 -42.45,-17.55 -11.517,-11.533 -17.367,-25.425 -17.55,-41.675 L -1560,0 c 0.183,-16.25 6.033,-30.125 17.55,-41.625 11.55,-11.55 25.442,-17.425 41.675,-17.625 h 1.55 c 16.233,0.2 30.108,6.075 41.625,17.625 11.534,11.5 17.4,25.375 17.6,41.625 m 0,-118.475 V -120 c 0.184,-16.25 6.033,-30.125 17.55,-41.625 11.55,-11.55 25.442,-17.425 41.675,-17.625 h 1.55 c 16.233,0.2 30.108,6.075 41.625,17.625 11.534,11.5 17.4,25.375 17.6,41.625 v 1.525 c -0.2,16.25 -6.066,30.142 -17.6,41.675 -11.517,11.517 -25.392,17.367 -41.625,17.55 h -1.55 c -16.233,-0.183 -30.125,-6.033 -41.675,-17.55 -11.517,-11.533 -17.366,-25.425 -17.55,-41.675 m 0,-121.525 v 1.525 c -0.2,16.25 -6.066,30.142 -17.6,41.675 -11.517,11.517 -25.392,17.367 -41.625,17.55 h -1.55 c -16.233,-0.183 -30.125,-6.033 -41.675,-17.55 -11.517,-11.533 -17.367,-25.425 -17.55,-41.675 V -240 c 0.183,-16.25 6.033,-30.125 17.55,-41.625 11.55,-11.55 25.442,-17.425 41.675,-17.625 h 1.55 c 16.233,0.2 30.108,6.075 41.625,17.625 11.534,11.5 17.4,25.375 17.6,41.625 m 120,1.525 V -240 c 0.184,-16.25 6.033,-30.125 17.55,-41.625 11.55,-11.55 25.442,-17.425 41.675,-17.625 h 1.55 c 16.233,0.2 30.108,6.075 41.625,17.625 11.534,11.5 17.4,25.375 17.6,41.625 v 1.525 c -0.2,16.25 -6.066,30.142 -17.6,41.675 -11.517,11.517 -25.392,17.367 -41.625,17.55 h -1.55 c -16.233,-0.183 -30.125,-6.033 -41.675,-17.55 -11.517,-11.533 -17.366,-25.425 -17.55,-41.675 m -59.225,-60.775 h -1.55 c -16.233,-0.183 -30.125,-6.033 -41.675,-17.55 -11.517,-11.533 -17.366,-25.425 -17.55,-41.675 V -360 c 0.184,-16.25 6.033,-30.133 17.55,-41.65 11.55,-11.533 25.442,-17.4 41.675,-17.6 h 1.55 c 16.233,0.2 30.108,6.067 41.625,17.6 11.534,11.517 17.4,25.4 17.6,41.65 v 1.525 c -0.2,16.25 -6.066,30.142 -17.6,41.675 -11.517,11.517 -25.392,17.367 -41.625,17.55 m -240,240 h -1.55 c -16.233,-0.183 -30.125,-6.033 -41.675,-17.55 -11.517,-11.533 -17.367,-25.425 -17.55,-41.675 V -120 c 0.183,-16.25 6.033,-30.125 17.55,-41.625 11.55,-11.55 25.442,-17.425 41.675,-17.625 h 1.55 c 16.233,0.2 30.108,6.075 41.625,17.625 11.533,11.5 17.4,25.375 17.6,41.625 v 1.525 c -0.2,16.25 -6.067,30.142 -17.6,41.675 -11.517,11.517 -25.392,17.367 -41.625,17.55 M -1680,0 v 1.525 c -0.2,16.25 -6.067,30.142 -17.6,41.675 -11.7,11.7 -25.833,17.55 -42.4,17.55 -16.567,0 -30.717,-5.85 -42.45,-17.55 -11.7,-11.733 -17.55,-25.883 -17.55,-42.45 0,-16.55 5.85,-30.675 17.55,-42.375 11.55,-11.55 25.442,-17.425 41.675,-17.625 h 1.55 c 16.233,0.2 30.108,6.075 41.625,17.625 11.533,11.5 17.4,25.375 17.6,41.625 m -59.225,-179.25 h -1.55 c -16.233,-0.183 -30.125,-6.033 -41.675,-17.55 -11.7,-11.733 -17.55,-25.883 -17.55,-42.45 0,-16.55 5.85,-30.675 17.55,-42.375 11.55,-11.55 25.442,-17.425 41.675,-17.625 h 1.55 c 16.233,0.2 30.108,6.075 41.625,17.625 11.533,11.5 17.4,25.375 17.6,41.625 v 1.525 c -0.2,16.25 -6.067,30.142 -17.6,41.675 -11.517,11.517 -25.392,17.367 -41.625,17.55 m 120,-120 h -1.55 c -16.233,-0.183 -30.125,-6.033 -41.675,-17.55 -11.517,-11.533 -17.367,-25.425 -17.55,-41.675 V -360 c 0.183,-16.25 6.033,-30.133 17.55,-41.65 11.55,-11.533 25.442,-17.4 41.675,-17.6 h 1.55 c 16.233,0.2 30.108,6.067 41.625,17.6 11.533,11.517 17.4,25.4 17.6,41.65 v 1.525 c -0.2,16.25 -6.067,30.142 -17.6,41.675 -11.517,11.517 -25.392,17.367 -41.625,17.55 m 120,-120 h -1.55 c -16.233,-0.183 -30.125,-6.033 -41.675,-17.55 -11.517,-11.533 -17.367,-25.425 -17.55,-41.675 V -480 c 0.183,-16.25 6.033,-30.133 17.55,-41.649 11.55,-11.535 25.442,-17.401 41.675,-17.601 h 1.55 c 16.233,0.2 30.108,6.066 41.625,17.601 11.534,11.516 17.4,25.399 17.6,41.649 v 1.525 c -0.2,16.25 -6.066,30.142 -17.6,41.675 -11.517,11.517 -25.392,17.367 -41.625,17.55 m -240,0 h -1.55 c -16.233,-0.183 -30.125,-6.033 -41.675,-17.55 -11.7,-11.733 -17.55,-25.883 -17.55,-42.45 0,-3.429 0.25,-6.754 0.75,-9.975 1.924,-12.327 7.524,-23.135 16.8,-32.424 11.55,-11.535 25.442,-17.401 41.675,-17.601 h 1.55 c 3.742,0.046 7.359,0.396 10.85,1.05 11.655,2.159 21.913,7.676 30.775,16.551 11.533,11.516 17.4,25.399 17.6,41.649 v 1.525 c -0.2,16.25 -6.067,30.142 -17.6,41.675 -11.517,11.517 -25.392,17.367 -41.625,17.55 M -1680,-598.475 V -600 c 0.183,-16.25 6.033,-30.133 17.55,-41.649 11.55,-11.535 25.442,-17.401 41.675,-17.601 h 1.55 c 16.233,0.2 30.108,6.066 41.625,17.601 11.533,11.516 17.4,25.399 17.6,41.649 v 1.525 c -0.2,16.25 -6.067,30.142 -17.6,41.675 -11.517,11.517 -25.392,17.366 -41.625,17.55 h -1.55 c -16.233,-0.184 -30.125,-6.033 -41.675,-17.55 -11.517,-11.533 -17.367,-25.425 -17.55,-41.675 m -48.375,-61.799 c -3.491,0.64 -7.108,0.982 -10.85,1.024 h -1.55 c -16.233,-0.184 -30.125,-6.033 -41.675,-17.55 -11.7,-11.733 -17.55,-25.884 -17.55,-42.45 0,-16.55 5.85,-30.684 17.55,-42.399 6.435,-6.426 13.593,-11.093 21.475,-14 6.277,-2.312 13.011,-3.512 20.2,-3.601 h 1.55 c 16.233,0.2 30.108,6.066 41.625,17.601 11.533,11.516 17.4,25.399 17.6,41.649 v 1.525 c -0.2,16.25 -6.067,30.142 -17.6,41.675 -8.862,8.863 -19.12,14.37 -30.775,16.526 M -1560,-718.475 V -720 c 0.183,-16.25 6.033,-30.133 17.55,-41.649 11.55,-11.535 25.442,-17.401 41.675,-17.601 h 1.55 c 16.233,0.2 30.108,6.066 41.625,17.601 11.534,11.516 17.4,25.399 17.6,41.649 v 1.525 c -0.2,16.25 -6.066,30.142 -17.6,41.675 -11.517,11.517 -25.392,17.366 -41.625,17.55 h -1.55 c -16.233,-0.184 -30.125,-6.033 -41.675,-17.55 -11.517,-11.533 -17.367,-25.425 -17.55,-41.675 m 300.775,299.225 h -1.55 c -16.233,-0.183 -30.125,-6.033 -41.675,-17.55 -11.517,-11.533 -17.366,-25.425 -17.55,-41.675 V -480 c 0.184,-16.25 6.033,-30.133 17.55,-41.649 11.55,-11.535 25.442,-17.401 41.675,-17.601 h 1.55 c 16.233,0.2 30.108,6.066 41.625,17.601 11.534,11.516 17.4,25.399 17.6,41.649 v 1.525 c -0.2,16.25 -6.066,30.142 -17.6,41.675 -11.517,11.517 -25.392,17.367 -41.625,17.55 m -120,-120 h -1.55 c -16.233,-0.184 -30.125,-6.033 -41.675,-17.55 -11.517,-11.533 -17.366,-25.425 -17.55,-41.675 V -600 c 0.184,-16.25 6.033,-30.133 17.55,-41.649 11.55,-11.535 25.442,-17.401 41.675,-17.601 h 1.55 c 16.233,0.2 30.108,6.066 41.625,17.601 11.534,11.516 17.4,25.399 17.6,41.649 v 1.525 c -0.2,16.25 -6.066,30.142 -17.6,41.675 -11.517,11.517 -25.392,17.366 -41.625,17.55 M -1320,-718.475 V -720 c 0.184,-16.25 6.033,-30.133 17.55,-41.649 11.55,-11.535 25.442,-17.401 41.675,-17.601 h 1.55 c 16.233,0.2 30.108,6.066 41.625,17.601 11.534,11.516 17.4,25.399 17.6,41.649 v 1.525 c -0.2,16.25 -6.066,30.142 -17.6,41.675 -11.517,11.517 -25.392,17.366 -41.625,17.55 h -1.55 c -16.233,-0.184 -30.125,-6.033 -41.675,-17.55 -11.517,-11.533 -17.366,-25.425 -17.55,-41.675 m 60.775,-180.775 h -1.55 c -16.233,-0.184 -30.125,-6.033 -41.675,-17.55 -11.517,-11.533 -17.366,-25.425 -17.55,-41.675 V -960 c 0.184,-16.25 6.033,-30.133 17.55,-41.649 11.55,-11.534 25.442,-17.401 41.675,-17.601 h 1.55 c 16.233,0.2 30.108,6.067 41.625,17.601 11.534,11.516 17.4,25.399 17.6,41.649 v 1.525 c -0.2,16.25 -6.066,30.142 -17.6,41.675 -11.517,11.517 -25.392,17.366 -41.625,17.55 m 59.225,60.775 V -840 c 0.184,-16.25 6.033,-30.133 17.55,-41.649 11.55,-11.535 25.442,-17.401 41.675,-17.601 h 1.55 c 16.233,0.2 30.108,6.066 41.625,17.601 11.534,11.516 17.4,25.399 17.6,41.649 v 1.525 c -0.2,16.25 -6.066,30.142 -17.6,41.675 -11.517,11.517 -25.392,17.366 -41.625,17.55 h -1.55 c -16.233,-0.184 -30.125,-6.033 -41.675,-17.55 -11.517,-11.533 -17.366,-25.425 -17.55,-41.675 m -179.225,59.225 h -1.55 c -16.233,-0.184 -30.125,-6.033 -41.675,-17.55 -11.517,-11.533 -17.366,-25.425 -17.55,-41.675 V -840 c 0.184,-16.25 6.033,-30.133 17.55,-41.649 11.55,-11.535 25.442,-17.401 41.675,-17.601 h 1.55 c 16.233,0.2 30.108,6.066 41.625,17.601 11.534,11.516 17.4,25.399 17.6,41.649 v 1.525 c -0.2,16.25 -6.066,30.142 -17.6,41.675 -11.517,11.517 -25.392,17.366 -41.625,17.55 M -1440,-960 v 1.525 c -0.2,16.25 -6.066,30.142 -17.6,41.675 -11.517,11.517 -25.392,17.366 -41.625,17.55 h -1.55 c -16.233,-0.184 -30.125,-6.033 -41.675,-17.55 -11.517,-11.533 -17.367,-25.425 -17.55,-41.675 V -960 c 0.183,-16.25 6.033,-30.133 17.55,-41.649 11.55,-11.534 25.442,-17.401 41.675,-17.601 h 1.55 c 16.233,0.2 30.108,6.067 41.625,17.601 11.534,11.516 17.4,25.399 17.6,41.649 m -179.225,180.75 h -1.55 c -16.233,-0.184 -30.125,-6.033 -41.675,-17.55 -11.517,-11.533 -17.367,-25.425 -17.55,-41.675 V -840 c 0.183,-16.25 6.033,-30.133 17.55,-41.649 11.55,-11.535 25.442,-17.401 41.675,-17.601 h 1.55 c 16.233,0.2 30.108,6.066 41.625,17.601 11.533,11.516 17.4,25.399 17.6,41.649 v 1.525 c -0.2,16.25 -6.067,30.142 -17.6,41.675 -11.517,11.517 -25.392,17.366 -41.625,17.55 m -120,-120 h -1.55 c -16.233,-0.184 -30.125,-6.033 -41.675,-17.55 -11.7,-11.733 -17.55,-25.884 -17.55,-42.45 0,-16.55 5.85,-30.683 17.55,-42.399 11.55,-11.534 25.442,-17.401 41.675,-17.601 h 1.55 c 16.233,0.2 30.108,6.067 41.625,17.601 11.533,11.516 17.4,25.399 17.6,41.649 v 1.525 c -0.2,16.25 -6.067,30.142 -17.6,41.675 -11.517,11.517 -25.392,17.366 -41.625,17.55 m 1080,120 h -1.55 c -16.233,-0.184 -30.125,-6.033 -41.675,-17.55 -11.517,-11.533 -17.366,-25.425 -17.55,-41.675 V -840 c 0.184,-16.25 6.033,-30.133 17.55,-41.649 11.55,-11.535 25.442,-17.401 41.675,-17.601 h 1.55 c 16.233,0.2 30.108,6.066 41.625,17.601 11.534,11.516 17.4,25.399 17.6,41.649 v 1.525 c -0.2,16.25 -6.066,30.142 -17.6,41.675 -11.517,11.517 -25.392,17.366 -41.625,17.55 m -120,-120 h -1.55 c -16.233,-0.184 -30.125,-6.033 -41.675,-17.55 -11.517,-11.533 -17.366,-25.425 -17.55,-41.675 V -960 c 0.184,-16.25 6.033,-30.133 17.55,-41.649 11.55,-11.534 25.442,-17.401 41.675,-17.601 h 1.55 c 16.233,0.2 30.108,6.067 41.625,17.601 11.534,11.516 17.4,25.399 17.6,41.649 v 1.525 c -0.2,16.25 -6.066,30.142 -17.6,41.675 -11.517,11.517 -25.392,17.366 -41.625,17.55 m -120,120 h -1.55 c -16.233,-0.184 -30.125,-6.033 -41.675,-17.55 -11.517,-11.533 -17.366,-25.425 -17.55,-41.675 V -840 c 0.184,-16.25 6.033,-30.133 17.55,-41.649 11.55,-11.535 25.442,-17.401 41.675,-17.601 h 1.55 c 16.233,0.2 30.108,6.066 41.625,17.601 11.534,11.516 17.4,25.399 17.6,41.649 v 1.525 c -0.2,16.25 -6.066,30.142 -17.6,41.675 -11.517,11.517 -25.392,17.366 -41.625,17.55 m -120,-120 h -1.55 c -16.233,-0.184 -30.125,-6.033 -41.675,-17.55 -11.517,-11.533 -17.366,-25.425 -17.55,-41.675 V -960 c 0.184,-16.25 6.033,-30.133 17.55,-41.649 11.55,-11.534 25.442,-17.401 41.675,-17.601 h 1.55 c 16.233,0.2 30.108,6.067 41.625,17.601 11.534,11.516 17.4,25.399 17.6,41.649 v 1.525 c -0.2,16.25 -6.066,30.142 -17.6,41.675 -11.517,11.517 -25.392,17.366 -41.625,17.55"
       style="fill:#50e0d0;fill-opacity:1;fill-rule:nonzero;stroke:none"
       transform="matrix(1.3333333,0,0,-1.3333333,2400,81.000267)"
       clip-path="url(#clipPath3)" />
    <path
       id="path4"
       d="M 0,0 C 0,16.567 -5.867,30.717 -17.6,42.45 -29.3,54.15 -43.434,60 -60,60 -76.566,60 -90.717,54.15 -102.45,42.45 -113.95,30.917 -119.8,17.025 -120,0.775 V -0.75 c 0.2,-16.25 6.05,-30.125 17.55,-41.625 C -90.9,-53.925 -77.008,-59.8 -60.775,-60 h 1.55 c 16.233,0.2 30.108,6.075 41.625,17.625 C -5.867,-30.675 0,-16.55 0,0 m -120,-120.75 v 1.525 c -0.184,16.25 -6.05,30.142 -17.6,41.675 -11.517,11.517 -25.392,17.367 -41.625,17.55 h -1.55 c -16.233,-0.183 -30.125,-6.033 -41.675,-17.55 -11.5,-11.533 -17.35,-25.425 -17.55,-41.675 v -1.525 c 0.2,-16.25 6.05,-30.125 17.55,-41.625 11.55,-11.55 25.442,-17.425 41.675,-17.625 h 1.55 c 16.233,0.2 30.108,6.075 41.625,17.625 11.55,11.5 17.416,25.375 17.6,41.625 m -120,120 v 1.525 c -0.184,16.25 -6.05,30.142 -17.6,41.675 C -269.3,54.15 -283.434,60 -300,60 -316.566,60 -330.717,54.15 -342.45,42.45 -353.95,30.917 -359.8,17.025 -360,0.775 V -0.75 c 0.2,-16.25 6.05,-30.125 17.55,-41.625 11.55,-11.55 25.442,-17.425 41.675,-17.625 h 1.55 c 16.233,0.2 30.108,6.075 41.625,17.625 11.55,11.5 17.416,25.375 17.6,41.625 m -17.6,-196.8 c -11.517,11.517 -25.392,17.367 -41.625,17.55 h -1.55 c -16.233,-0.183 -30.125,-6.033 -41.675,-17.55 -11.5,-11.533 -17.35,-25.425 -17.55,-41.675 v -1.525 c 0.2,-16.25 6.05,-30.125 17.55,-41.625 11.55,-11.55 25.442,-17.425 41.675,-17.625 h 1.55 c 16.233,0.2 30.108,6.075 41.625,17.625 11.55,11.5 17.416,25.375 17.6,41.625 v 1.525 c -0.184,16.25 -6.05,30.142 -17.6,41.675 M -179.225,-300 h -1.55 c -16.233,-0.183 -30.125,-6.033 -41.675,-17.55 -11.5,-11.533 -17.35,-25.425 -17.55,-41.675 v -1.525 c 0.2,-16.25 6.05,-30.133 17.55,-41.65 11.55,-11.533 25.442,-17.4 41.675,-17.6 h 1.55 c 16.233,0.2 30.108,6.067 41.625,17.6 11.55,11.517 17.416,25.4 17.6,41.65 v 1.525 c -0.184,16.25 -6.05,30.142 -17.6,41.675 -11.517,11.517 -25.392,17.367 -41.625,17.55 m 120,120 h -1.55 c -16.233,-0.183 -30.125,-6.033 -41.675,-17.55 -11.5,-11.533 -17.35,-25.425 -17.55,-41.675 v -1.525 c 0.2,-16.25 6.05,-30.125 17.55,-41.625 11.55,-11.55 25.442,-17.425 41.675,-17.625 h 1.55 c 16.233,0.2 30.108,6.075 41.625,17.625 11.733,11.7 17.6,25.825 17.6,42.375 0,16.567 -5.867,30.717 -17.6,42.45 -11.517,11.517 -25.392,17.367 -41.625,17.55 m -360,120 h -1.55 c -16.233,-0.183 -30.125,-6.033 -41.675,-17.55 -11.5,-11.533 -17.35,-25.425 -17.55,-41.675 v -1.525 c 0.2,-16.25 6.05,-30.125 17.55,-41.625 11.55,-11.55 25.442,-17.425 41.675,-17.625 h 1.55 c 16.233,0.2 30.108,6.075 41.625,17.625 11.55,11.5 17.416,25.375 17.6,41.625 v 1.525 c -0.184,16.25 -6.05,30.142 -17.6,41.675 -11.517,11.517 -25.392,17.367 -41.625,17.55 M -480,-0.75 v 1.525 c -0.184,16.25 -6.05,30.142 -17.6,41.675 C -509.3,54.15 -523.434,60 -540,60 -556.566,60 -570.717,54.15 -582.45,42.45 -593.95,30.917 -599.8,17.025 -600,0.775 V -0.75 c 0.2,-16.25 6.05,-30.125 17.55,-41.625 11.55,-11.55 25.442,-17.425 41.675,-17.625 h 1.55 c 16.233,0.2 30.108,6.075 41.625,17.625 11.55,11.5 17.416,25.375 17.6,41.625 m -120,-120 v 1.525 c -0.2,16.25 -6.066,30.142 -17.6,41.675 -11.517,11.517 -25.392,17.367 -41.625,17.55 h -1.55 c -16.233,-0.183 -30.125,-6.033 -41.675,-17.55 -11.517,-11.533 -17.366,-25.425 -17.55,-41.675 v -1.525 c 0.184,-16.25 6.033,-30.125 17.55,-41.625 11.55,-11.55 25.442,-17.425 41.675,-17.625 h 1.55 c 16.233,0.2 30.108,6.075 41.625,17.625 11.534,11.5 17.4,25.375 17.6,41.625 m 60.775,-59.25 h -1.55 c -16.233,-0.183 -30.125,-6.033 -41.675,-17.55 -11.5,-11.533 -17.35,-25.425 -17.55,-41.675 v -1.525 c 0.2,-16.25 6.05,-30.125 17.55,-41.625 11.55,-11.55 25.442,-17.425 41.675,-17.625 h 1.55 c 16.233,0.2 30.108,6.075 41.625,17.625 11.55,11.5 17.416,25.375 17.6,41.625 v 1.525 c -0.184,16.25 -6.05,30.142 -17.6,41.675 -11.517,11.517 -25.392,17.367 -41.625,17.55 m 120,-120 h -1.55 c -16.233,-0.183 -30.125,-6.033 -41.675,-17.55 -11.5,-11.533 -17.35,-25.425 -17.55,-41.675 v -1.525 c 0.2,-16.25 6.05,-30.133 17.55,-41.65 11.55,-11.533 25.442,-17.4 41.675,-17.6 h 1.55 c 16.233,0.2 30.108,6.067 41.625,17.6 11.55,11.517 17.416,25.4 17.6,41.65 v 1.525 c -0.184,16.25 -6.05,30.142 -17.6,41.675 -11.517,11.517 -25.392,17.367 -41.625,17.55 M -360,-479.225 v -1.525 c 0.2,-16.25 6.05,-30.133 17.55,-41.649 11.55,-11.535 25.442,-17.401 41.675,-17.601 h 1.55 c 16.233,0.2 30.108,6.066 41.625,17.601 11.55,11.516 17.416,25.399 17.6,41.649 v 1.525 c -0.184,16.25 -6.05,30.142 -17.6,41.675 -11.517,11.517 -25.392,17.367 -41.625,17.55 h -1.55 c -16.233,-0.183 -30.125,-6.033 -41.675,-17.55 -11.5,-11.533 -17.35,-25.425 -17.55,-41.675 M -539.225,-420 h -1.55 c -16.233,-0.183 -30.125,-6.033 -41.675,-17.55 -11.5,-11.533 -17.35,-25.425 -17.55,-41.675 v -1.525 c 0.2,-16.25 6.05,-30.133 17.55,-41.649 11.55,-11.535 25.442,-17.401 41.675,-17.601 h 1.55 c 16.233,0.2 30.108,6.066 41.625,17.601 11.55,11.516 17.416,25.399 17.6,41.649 v 1.525 c -0.184,16.25 -6.05,30.142 -17.6,41.675 -11.517,11.517 -25.392,17.367 -41.625,17.55 M -600,-360.75 v 1.525 c -0.2,16.25 -6.066,30.142 -17.6,41.675 -11.517,11.517 -25.392,17.367 -41.625,17.55 h -1.55 c -16.233,-0.183 -30.125,-6.033 -41.675,-17.55 -11.517,-11.533 -17.366,-25.425 -17.55,-41.675 v -1.525 c 0.184,-16.25 6.033,-30.133 17.55,-41.65 11.55,-11.533 25.442,-17.4 41.675,-17.6 h 1.55 c 16.233,0.2 30.108,6.067 41.625,17.6 11.534,11.517 17.4,25.4 17.6,41.65 m 120,-238.475 v -1.525 c 0.2,-16.25 6.05,-30.133 17.55,-41.649 11.55,-11.535 25.442,-17.401 41.675,-17.601 h 1.55 c 16.233,0.2 30.108,6.066 41.625,17.601 11.55,11.516 17.416,25.399 17.6,41.649 v 1.525 c -0.184,16.25 -6.05,30.142 -17.6,41.675 -11.517,11.517 -25.392,17.366 -41.625,17.55 h -1.55 c -16.233,-0.184 -30.125,-6.033 -41.675,-17.55 -11.5,-11.533 -17.35,-25.425 -17.55,-41.675 m -120,-1.525 v 1.525 c -0.2,16.25 -6.066,30.142 -17.6,41.675 -11.517,11.517 -25.392,17.366 -41.625,17.55 h -1.55 c -16.233,-0.184 -30.125,-6.033 -41.675,-17.55 -11.517,-11.533 -17.366,-25.425 -17.55,-41.675 v -1.525 c 0.184,-16.25 6.033,-30.133 17.55,-41.649 11.55,-11.535 25.442,-17.401 41.675,-17.601 h 1.55 c 16.233,0.2 30.108,6.066 41.625,17.601 11.534,11.516 17.4,25.399 17.6,41.649 m 0,-118.475 v -1.525 c 0.2,-16.25 6.05,-30.133 17.55,-41.649 11.55,-11.535 25.442,-17.401 41.675,-17.601 h 1.55 c 16.233,0.2 30.108,6.066 41.625,17.601 11.55,11.516 17.416,25.399 17.6,41.649 v 1.525 c -0.184,16.25 -6.05,30.142 -17.6,41.675 -11.517,11.517 -25.392,17.366 -41.625,17.55 h -1.55 c -16.233,-0.184 -30.125,-6.033 -41.675,-17.55 -11.5,-11.533 -17.35,-25.425 -17.55,-41.675 m 240,0 v -1.525 c 0.2,-16.25 6.05,-30.133 17.55,-41.649 11.55,-11.535 25.442,-17.401 41.675,-17.601 h 1.55 c 16.233,0.2 30.108,6.066 41.625,17.601 11.55,11.516 17.416,25.399 17.6,41.649 v 1.525 c -0.184,16.25 -6.05,30.142 -17.6,41.675 -11.517,11.517 -25.392,17.366 -41.625,17.55 h -1.55 c -16.233,-0.184 -30.125,-6.033 -41.675,-17.55 -11.5,-11.533 -17.35,-25.425 -17.55,-41.675 M -59.225,-420 h -1.55 c -16.233,-0.183 -30.125,-6.033 -41.675,-17.55 -11.5,-11.533 -17.35,-25.425 -17.55,-41.675 v -1.525 c 0.2,-16.25 6.05,-30.133 17.55,-41.649 11.55,-11.535 25.442,-17.401 41.675,-17.601 h 1.55 c 16.233,0.2 30.108,6.066 41.625,17.601 C -5.867,-510.684 0,-496.55 0,-480 c 0,16.567 -5.867,30.717 -17.6,42.45 -11.517,11.517 -25.392,17.367 -41.625,17.55 m -120,-120 h -1.55 c -16.233,-0.184 -30.125,-6.033 -41.675,-17.55 -11.5,-11.533 -17.35,-25.425 -17.55,-41.675 v -1.525 c 0.2,-16.25 6.05,-30.133 17.55,-41.649 11.55,-11.535 25.442,-17.401 41.675,-17.601 h 1.55 c 16.233,0.2 30.108,6.066 41.625,17.601 11.55,11.516 17.416,25.399 17.6,41.649 v 1.525 c -0.184,16.25 -6.05,30.142 -17.6,41.675 -11.517,11.517 -25.392,17.366 -41.625,17.55 m 120,-120 h -1.55 c -16.233,-0.184 -30.125,-6.033 -41.675,-17.55 -11.5,-11.533 -17.35,-25.425 -17.55,-41.675 v -1.525 c 0.2,-16.25 6.05,-30.133 17.55,-41.649 11.55,-11.535 25.442,-17.401 41.675,-17.601 h 1.55 c 16.233,0.2 30.108,6.066 41.625,17.601 C -5.867,-750.684 0,-736.55 0,-720 c 0,16.566 -5.867,30.717 -17.6,42.45 -11.517,11.517 -25.392,17.366 -41.625,17.55 M -120,-840.75 v 1.525 c -0.184,16.25 -6.05,30.142 -17.6,41.675 -11.517,11.517 -25.392,17.366 -41.625,17.55 h -1.55 c -16.233,-0.184 -30.125,-6.033 -41.675,-17.55 -11.5,-11.533 -17.35,-25.425 -17.55,-41.675 v -1.525 c 0.2,-16.25 6.05,-30.133 17.55,-41.649 11.55,-11.535 25.442,-17.401 41.675,-17.601 h 1.55 c 16.233,0.2 30.108,6.066 41.625,17.601 11.55,11.516 17.416,25.399 17.6,41.649 M -59.225,-900 h -1.55 c -16.233,-0.184 -30.125,-6.033 -41.675,-17.55 -11.5,-11.533 -17.35,-25.425 -17.55,-41.675 v -1.525 c 0.2,-16.25 6.05,-30.133 17.55,-41.649 11.55,-11.534 25.442,-17.401 41.675,-17.601 h 1.55 c 16.233,0.2 30.108,6.067 41.625,17.601 C -5.867,-990.683 0,-976.55 0,-960 c 0,16.566 -5.867,30.717 -17.6,42.45 -11.517,11.517 -25.392,17.366 -41.625,17.55 M -257.6,-917.55 c -11.517,11.517 -25.392,17.366 -41.625,17.55 h -1.55 c -16.233,-0.184 -30.125,-6.033 -41.675,-17.55 -11.5,-11.533 -17.35,-25.425 -17.55,-41.675 v -1.525 c 0.2,-16.25 6.05,-30.133 17.55,-41.649 11.55,-11.534 25.442,-17.401 41.675,-17.601 h 1.55 c 16.233,0.2 30.108,6.067 41.625,17.601 11.55,11.516 17.416,25.399 17.6,41.649 v 1.525 c -0.184,16.25 -6.05,30.142 -17.6,41.675 M -419.225,-780 h -1.55 c -16.233,-0.184 -30.125,-6.033 -41.675,-17.55 -11.5,-11.533 -17.35,-25.425 -17.55,-41.675 v -1.525 c 0.2,-16.25 6.05,-30.133 17.55,-41.649 11.55,-11.535 25.442,-17.401 41.675,-17.601 h 1.55 c 16.233,0.2 30.108,6.066 41.625,17.601 11.55,11.516 17.416,25.399 17.6,41.649 v 1.525 c -0.184,16.25 -6.05,30.142 -17.6,41.675 -11.517,11.517 -25.392,17.366 -41.625,17.55 M -600,-840.75 v 1.525 c -0.2,16.25 -6.066,30.142 -17.6,41.675 -11.517,11.517 -25.392,17.366 -41.625,17.55 h -1.55 c -16.233,-0.184 -30.125,-6.033 -41.675,-17.55 -11.517,-11.533 -17.366,-25.425 -17.55,-41.675 v -1.525 c 0.184,-16.25 6.033,-30.133 17.55,-41.649 11.55,-11.535 25.442,-17.401 41.675,-17.601 h 1.55 c 16.233,0.2 30.108,6.066 41.625,17.601 11.534,11.516 17.4,25.399 17.6,41.649 m 60.775,-59.25 h -1.55 c -16.233,-0.184 -30.125,-6.033 -41.675,-17.55 -11.5,-11.533 -17.35,-25.425 -17.55,-41.675 v -1.525 c 0.2,-16.25 6.05,-30.133 17.55,-41.649 11.55,-11.534 25.442,-17.401 41.675,-17.601 h 1.55 c 16.233,0.2 30.108,6.067 41.625,17.601 11.55,11.516 17.416,25.399 17.6,41.649 v 1.525 c -0.184,16.25 -6.05,30.142 -17.6,41.675 -11.517,11.517 -25.392,17.366 -41.625,17.55 M -720,-0.75 v 1.525 c -0.2,16.25 -6.066,30.142 -17.6,41.675 C -749.3,54.15 -763.434,60 -780,60 -796.566,60 -810.717,54.15 -822.45,42.45 -833.967,30.917 -839.816,17.025 -840,0.775 V -0.75 c 0.184,-16.25 6.033,-30.125 17.55,-41.625 11.55,-11.55 25.442,-17.425 41.675,-17.625 h 1.55 c 16.233,0.2 30.108,6.075 41.625,17.625 11.534,11.5 17.4,25.375 17.6,41.625 M -899.225,-60 h -1.55 c -16.233,-0.183 -30.125,-6.033 -41.675,-17.55 -11.517,-11.533 -17.366,-25.425 -17.55,-41.675 v -1.525 c 0.184,-16.25 6.033,-30.125 17.55,-41.625 11.55,-11.55 25.442,-17.425 41.675,-17.625 h 1.55 c 16.233,0.2 30.108,6.075 41.625,17.625 11.534,11.5 17.4,25.375 17.6,41.625 v 1.525 c -0.2,16.25 -6.066,30.142 -17.6,41.675 -11.517,11.517 -25.392,17.367 -41.625,17.55 m 0,-240 h -1.55 c -16.233,-0.183 -30.125,-6.033 -41.675,-17.55 -11.517,-11.533 -17.366,-25.425 -17.55,-41.675 v -1.525 c 0.184,-16.25 6.033,-30.133 17.55,-41.65 11.55,-11.533 25.442,-17.4 41.675,-17.6 h 1.55 c 16.233,0.2 30.108,6.067 41.625,17.6 11.534,11.517 17.4,25.4 17.6,41.65 v 1.525 c -0.2,16.25 -6.066,30.142 -17.6,41.675 -11.517,11.517 -25.392,17.367 -41.625,17.55 m 59.225,60.775 v -1.525 c 0.184,-16.25 6.033,-30.125 17.55,-41.625 11.55,-11.55 25.442,-17.425 41.675,-17.625 h 1.55 c 16.233,0.2 30.108,6.075 41.625,17.625 11.534,11.5 17.4,25.375 17.6,41.625 v 1.525 c -0.2,16.25 -6.066,30.142 -17.6,41.675 -11.517,11.517 -25.392,17.367 -41.625,17.55 h -1.55 c -16.233,-0.183 -30.125,-6.033 -41.675,-17.55 -11.517,-11.533 -17.366,-25.425 -17.55,-41.675 M -960,-0.75 v 1.525 c -0.2,16.25 -6.066,30.142 -17.6,41.675 -11.7,11.7 -25.833,17.55 -42.4,17.55 -16.566,0 -30.717,-5.85 -42.45,-17.55 -11.517,-11.533 -17.366,-25.425 -17.55,-41.675 V -0.75 c 0.184,-16.25 6.033,-30.125 17.55,-41.625 11.55,-11.55 25.442,-17.425 41.675,-17.625 h 1.55 c 16.233,0.2 30.108,6.075 41.625,17.625 11.534,11.5 17.4,25.375 17.6,41.625 m -120,-120 v 1.525 c -0.2,16.25 -6.066,30.142 -17.6,41.675 -11.517,11.517 -25.392,17.367 -41.625,17.55 h -1.55 c -16.233,-0.183 -30.125,-6.033 -41.675,-17.55 -11.517,-11.533 -17.366,-25.425 -17.55,-41.675 v -1.525 c 0.184,-16.25 6.033,-30.125 17.55,-41.625 11.55,-11.55 25.442,-17.425 41.675,-17.625 h 1.55 c 16.233,0.2 30.108,6.075 41.625,17.625 11.534,11.5 17.4,25.375 17.6,41.625 m -120,120 v 1.525 c -0.2,16.25 -6.066,30.142 -17.6,41.675 -11.7,11.7 -25.833,17.55 -42.4,17.55 -16.566,0 -30.717,-5.85 -42.45,-17.55 -11.517,-11.533 -17.366,-25.425 -17.55,-41.675 V -0.75 c 0.184,-16.25 6.033,-30.125 17.55,-41.625 11.55,-11.55 25.442,-17.425 41.675,-17.625 h 1.55 c 16.233,0.2 30.108,6.075 41.625,17.625 11.534,11.5 17.4,25.375 17.6,41.625 M -1259.225,-180 h -1.55 c -16.233,-0.183 -30.125,-6.033 -41.675,-17.55 -11.517,-11.533 -17.366,-25.425 -17.55,-41.675 v -1.525 c 0.184,-16.25 6.033,-30.125 17.55,-41.625 11.55,-11.55 25.442,-17.425 41.675,-17.625 h 1.55 c 16.233,0.2 30.108,6.075 41.625,17.625 11.534,11.5 17.4,25.375 17.6,41.625 v 1.525 c -0.2,16.25 -6.066,30.142 -17.6,41.675 -11.517,11.517 -25.392,17.367 -41.625,17.55 m 120,-120 h -1.55 c -16.233,-0.183 -30.125,-6.033 -41.675,-17.55 -11.517,-11.533 -17.366,-25.425 -17.55,-41.675 v -1.525 c 0.184,-16.25 6.033,-30.133 17.55,-41.65 11.55,-11.533 25.442,-17.4 41.675,-17.6 h 1.55 c 16.233,0.2 30.108,6.067 41.625,17.6 11.534,11.517 17.4,25.4 17.6,41.65 v 1.525 c -0.2,16.25 -6.066,30.142 -17.6,41.675 -11.517,11.517 -25.392,17.367 -41.625,17.55 m 120,120 h -1.55 c -16.233,-0.183 -30.125,-6.033 -41.675,-17.55 -11.517,-11.533 -17.366,-25.425 -17.55,-41.675 v -1.525 c 0.184,-16.25 6.033,-30.125 17.55,-41.625 11.55,-11.55 25.442,-17.425 41.675,-17.625 h 1.55 c 16.233,0.2 30.108,6.075 41.625,17.625 11.534,11.5 17.4,25.375 17.6,41.625 v 1.525 c -0.2,16.25 -6.066,30.142 -17.6,41.675 -11.517,11.517 -25.392,17.367 -41.625,17.55 m 0,-240 h -1.55 c -16.233,-0.183 -30.125,-6.033 -41.675,-17.55 -11.517,-11.533 -17.366,-25.425 -17.55,-41.675 v -1.525 c 0.184,-16.25 6.033,-30.133 17.55,-41.649 11.55,-11.535 25.442,-17.401 41.675,-17.601 h 1.55 c 16.233,0.2 30.108,6.066 41.625,17.601 11.534,11.516 17.4,25.399 17.6,41.649 v 1.525 c -0.2,16.25 -6.066,30.142 -17.6,41.675 -11.517,11.517 -25.392,17.367 -41.625,17.55 m -240,0 h -1.55 c -16.233,-0.183 -30.125,-6.033 -41.675,-17.55 -11.517,-11.533 -17.366,-25.425 -17.55,-41.675 v -1.525 c 0.184,-16.25 6.033,-30.133 17.55,-41.649 11.55,-11.535 25.442,-17.401 41.675,-17.601 h 1.55 c 16.233,0.2 30.108,6.066 41.625,17.601 11.534,11.516 17.4,25.399 17.6,41.649 v 1.525 c -0.2,16.25 -6.066,30.142 -17.6,41.675 -11.517,11.517 -25.392,17.367 -41.625,17.55 m 120,-120 h -1.55 c -16.233,-0.184 -30.125,-6.033 -41.675,-17.55 -11.517,-11.533 -17.366,-25.425 -17.55,-41.675 v -1.525 c 0.184,-16.25 6.033,-30.133 17.55,-41.649 11.55,-11.535 25.442,-17.401 41.675,-17.601 h 1.55 c 16.233,0.2 30.108,6.066 41.625,17.601 11.534,11.516 17.4,25.399 17.6,41.649 v 1.525 c -0.2,16.25 -6.066,30.142 -17.6,41.675 -11.517,11.517 -25.392,17.366 -41.625,17.55 m -120,-120 h -1.55 c -16.233,-0.184 -30.125,-6.033 -41.675,-17.55 -11.517,-11.533 -17.366,-25.425 -17.55,-41.675 v -1.525 c 0.184,-16.25 6.033,-30.133 17.55,-41.649 11.55,-11.535 25.442,-17.401 41.675,-17.601 h 1.55 c 16.233,0.2 30.108,6.066 41.625,17.601 11.534,11.516 17.4,25.399 17.6,41.649 v 1.525 c -0.2,16.25 -6.066,30.142 -17.6,41.675 -11.517,11.517 -25.392,17.366 -41.625,17.55 M -960,-599.225 v -1.525 c 0.184,-16.25 6.033,-30.133 17.55,-41.649 11.55,-11.535 25.442,-17.401 41.675,-17.601 h 1.55 c 16.233,0.2 30.108,6.066 41.625,17.601 11.534,11.516 17.4,25.399 17.6,41.649 v 1.525 c -0.2,16.25 -6.066,30.142 -17.6,41.675 -11.517,11.517 -25.392,17.366 -41.625,17.55 h -1.55 c -16.233,-0.184 -30.125,-6.033 -41.675,-17.55 -11.517,-11.533 -17.366,-25.425 -17.55,-41.675 m -120,-120 v -1.525 c 0.184,-16.25 6.033,-30.133 17.55,-41.649 11.55,-11.535 25.442,-17.401 41.675,-17.601 h 1.55 c 16.233,0.2 30.108,6.066 41.625,17.601 11.534,11.516 17.4,25.399 17.6,41.649 v 1.525 c -0.2,16.25 -6.066,30.142 -17.6,41.675 -11.517,11.517 -25.392,17.366 -41.625,17.55 h -1.55 c -16.233,-0.184 -30.125,-6.033 -41.675,-17.55 -11.517,-11.533 -17.366,-25.425 -17.55,-41.675 M -779.225,-420 h -1.55 c -16.233,-0.183 -30.125,-6.033 -41.675,-17.55 -11.517,-11.533 -17.366,-25.425 -17.55,-41.675 v -1.525 c 0.184,-16.25 6.033,-30.133 17.55,-41.649 11.55,-11.535 25.442,-17.401 41.675,-17.601 h 1.55 c 16.233,0.2 30.108,6.066 41.625,17.601 11.534,11.516 17.4,25.399 17.6,41.649 v 1.525 c -0.2,16.25 -6.066,30.142 -17.6,41.675 -11.517,11.517 -25.392,17.367 -41.625,17.55 M -840,-719.225 v -1.525 c 0.184,-16.25 6.033,-30.133 17.55,-41.649 11.55,-11.535 25.442,-17.401 41.675,-17.601 h 1.55 c 16.233,0.2 30.108,6.066 41.625,17.601 11.534,11.516 17.4,25.399 17.6,41.649 v 1.525 c -0.2,16.25 -6.066,30.142 -17.6,41.675 -11.517,11.517 -25.392,17.366 -41.625,17.55 h -1.55 c -16.233,-0.184 -30.125,-6.033 -41.675,-17.55 -11.517,-11.533 -17.366,-25.425 -17.55,-41.675 M -1379.225,-60 h -1.55 c -16.233,-0.183 -30.125,-6.033 -41.675,-17.55 -11.517,-11.533 -17.366,-25.425 -17.55,-41.675 v -1.525 c 0.184,-16.25 6.033,-30.125 17.55,-41.625 11.55,-11.55 25.442,-17.425 41.675,-17.625 h 1.55 c 16.233,0.2 30.108,6.075 41.625,17.625 11.534,11.5 17.4,25.375 17.6,41.625 v 1.525 c -0.2,16.25 -6.066,30.142 -17.6,41.675 -11.517,11.517 -25.392,17.367 -41.625,17.55 M -1440,-0.75 v 1.525 c -0.2,16.25 -6.066,30.142 -17.6,41.675 -11.7,11.7 -25.833,17.55 -42.4,17.55 -16.566,0 -30.717,-5.85 -42.45,-17.55 -11.517,-11.533 -17.366,-25.425 -17.55,-41.675 V -0.75 c 0.184,-16.25 6.033,-30.125 17.55,-41.625 11.55,-11.55 25.442,-17.425 41.675,-17.625 h 1.55 c 16.233,0.2 30.108,6.075 41.625,17.625 11.534,11.5 17.4,25.375 17.6,41.625 m -120,-120 v 1.525 c -0.2,16.25 -6.066,30.142 -17.6,41.675 -11.517,11.517 -25.392,17.367 -41.625,17.55 h -1.55 c -16.233,-0.183 -30.125,-6.033 -41.675,-17.55 -11.517,-11.533 -17.367,-25.425 -17.55,-41.675 v -1.525 c 0.183,-16.25 6.033,-30.125 17.55,-41.625 11.55,-11.55 25.442,-17.425 41.675,-17.625 h 1.55 c 16.233,0.2 30.108,6.075 41.625,17.625 11.534,11.5 17.4,25.375 17.6,41.625 m 60.775,-59.25 h -1.55 c -16.233,-0.183 -30.125,-6.033 -41.675,-17.55 -11.517,-11.533 -17.366,-25.425 -17.55,-41.675 v -1.525 c 0.184,-16.25 6.033,-30.125 17.55,-41.625 11.55,-11.55 25.442,-17.425 41.675,-17.625 h 1.55 c 16.233,0.2 30.108,6.075 41.625,17.625 11.534,11.5 17.4,25.375 17.6,41.625 v 1.525 c -0.2,16.25 -6.066,30.142 -17.6,41.675 -11.517,11.517 -25.392,17.367 -41.625,17.55 m 120,-120 h -1.55 c -16.233,-0.183 -30.125,-6.033 -41.675,-17.55 -11.517,-11.533 -17.366,-25.425 -17.55,-41.675 v -1.525 c 0.184,-16.25 6.033,-30.133 17.55,-41.65 11.55,-11.533 25.442,-17.4 41.675,-17.6 h 1.55 c 16.233,0.2 30.108,6.067 41.625,17.6 11.534,11.517 17.4,25.4 17.6,41.65 v 1.525 c -0.2,16.25 -6.066,30.142 -17.6,41.675 -11.517,11.517 -25.392,17.367 -41.625,17.55 M -1680,-0.75 v 1.525 c -0.2,16.25 -6.067,30.142 -17.6,41.675 -11.7,11.7 -25.833,17.55 -42.4,17.55 -16.567,0 -30.717,-5.85 -42.45,-17.55 -11.517,-11.533 -17.367,-25.425 -17.55,-41.675 V -0.75 c 0.183,-16.25 6.033,-30.125 17.55,-41.625 11.55,-11.55 25.442,-17.425 41.675,-17.625 h 1.55 c 16.233,0.2 30.108,6.075 41.625,17.625 11.533,11.5 17.4,25.375 17.6,41.625 M -1859.225,-60 h -1.55 c -16.233,-0.183 -30.125,-6.033 -41.675,-17.55 -11.7,-11.733 -17.55,-25.883 -17.55,-42.45 0,-16.55 5.85,-30.675 17.55,-42.375 11.55,-11.55 25.442,-17.425 41.675,-17.625 h 1.55 c 16.233,0.2 30.108,6.075 41.625,17.625 11.533,11.5 17.4,25.375 17.6,41.625 v 1.525 c -0.2,16.25 -6.067,30.142 -17.6,41.675 -11.517,11.517 -25.392,17.367 -41.625,17.55 m 0,-240 h -1.55 c -16.233,-0.183 -30.125,-6.033 -41.675,-17.55 -11.7,-11.733 -17.55,-25.883 -17.55,-42.45 0,-16.55 5.85,-30.683 17.55,-42.4 11.55,-11.533 25.442,-17.4 41.675,-17.6 h 1.55 c 16.233,0.2 30.108,6.067 41.625,17.6 11.533,11.517 17.4,25.4 17.6,41.65 v 1.525 c -0.2,16.25 -6.067,30.142 -17.6,41.675 -11.517,11.517 -25.392,17.367 -41.625,17.55 m 59.225,60.775 v -1.525 c 0.183,-16.25 6.033,-30.125 17.55,-41.625 11.55,-11.55 25.442,-17.425 41.675,-17.625 h 1.55 c 16.233,0.2 30.108,6.075 41.625,17.625 11.533,11.5 17.4,25.375 17.6,41.625 v 1.525 c -0.2,16.25 -6.067,30.142 -17.6,41.675 -11.517,11.517 -25.392,17.367 -41.625,17.55 h -1.55 c -16.233,-0.183 -30.125,-6.033 -41.675,-17.55 -11.517,-11.533 -17.367,-25.425 -17.55,-41.675 M -1619.225,-300 h -1.55 c -16.233,-0.183 -30.125,-6.033 -41.675,-17.55 -11.517,-11.533 -17.367,-25.425 -17.55,-41.675 v -1.525 c 0.183,-16.25 6.033,-30.133 17.55,-41.65 11.55,-11.533 25.442,-17.4 41.675,-17.6 h 1.55 c 16.233,0.2 30.108,6.067 41.625,17.6 11.534,11.517 17.4,25.4 17.6,41.65 v 1.525 c -0.2,16.25 -6.066,30.142 -17.6,41.675 -11.517,11.517 -25.392,17.367 -41.625,17.55 m -120,-120 h -1.55 c -16.233,-0.183 -30.125,-6.033 -41.675,-17.55 -11.517,-11.533 -17.367,-25.425 -17.55,-41.675 v -1.525 c 0.183,-16.25 6.033,-30.133 17.55,-41.649 11.55,-11.535 25.442,-17.401 41.675,-17.601 h 1.55 c 16.233,0.2 30.108,6.066 41.625,17.601 11.533,11.516 17.4,25.399 17.6,41.649 v 1.525 c -0.2,16.25 -6.067,30.142 -17.6,41.675 -11.517,11.517 -25.392,17.367 -41.625,17.55 M -1800,-600.75 v 1.525 c -0.2,16.25 -6.067,30.142 -17.6,41.675 -8.862,8.863 -19.12,14.37 -30.775,16.526 -3.491,0.64 -7.108,0.982 -10.85,1.024 h -1.55 c -16.233,-0.184 -30.125,-6.033 -41.675,-17.55 -11.7,-11.733 -17.55,-25.884 -17.55,-42.45 0,-16.55 5.85,-30.684 17.55,-42.399 11.55,-11.535 25.442,-17.401 41.675,-17.601 h 1.55 c 3.742,0.046 7.359,0.396 10.85,1.05 11.655,2.159 21.913,7.676 30.775,16.551 11.533,11.516 17.4,25.399 17.6,41.649 m 0,-118.475 v -1.525 c 0.183,-16.25 6.033,-30.133 17.55,-41.649 11.55,-11.535 25.442,-17.401 41.675,-17.601 h 1.55 c 16.233,0.2 30.108,6.066 41.625,17.601 11.533,11.516 17.4,25.399 17.6,41.649 v 1.525 c -0.2,16.25 -6.067,30.142 -17.6,41.675 -11.517,11.517 -25.392,17.366 -41.625,17.55 h -1.55 c -16.233,-0.184 -30.125,-6.033 -41.675,-17.55 -11.517,-11.533 -17.367,-25.425 -17.55,-41.675 M -1619.225,-540 h -1.55 c -16.233,-0.184 -30.125,-6.033 -41.675,-17.55 -11.517,-11.533 -17.367,-25.425 -17.55,-41.675 v -1.525 c 0.183,-16.25 6.033,-30.133 17.55,-41.649 11.55,-11.535 25.442,-17.401 41.675,-17.601 h 1.55 c 16.233,0.2 30.108,6.066 41.625,17.601 11.534,11.516 17.4,25.399 17.6,41.649 v 1.525 c -0.2,16.25 -6.066,30.142 -17.6,41.675 -11.517,11.517 -25.392,17.366 -41.625,17.55 m 120,120 h -1.55 c -16.233,-0.183 -30.125,-6.033 -41.675,-17.55 -11.517,-11.533 -17.366,-25.425 -17.55,-41.675 v -1.525 c 0.184,-16.25 6.033,-30.133 17.55,-41.649 11.55,-11.535 25.442,-17.401 41.675,-17.601 h 1.55 c 16.233,0.2 30.108,6.066 41.625,17.601 11.534,11.516 17.4,25.399 17.6,41.649 v 1.525 c -0.2,16.25 -6.066,30.142 -17.6,41.675 -11.517,11.517 -25.392,17.367 -41.625,17.55 M -1440,-599.225 v -1.525 c 0.184,-16.25 6.033,-30.133 17.55,-41.649 11.55,-11.535 25.442,-17.401 41.675,-17.601 h 1.55 c 16.233,0.2 30.108,6.066 41.625,17.601 11.534,11.516 17.4,25.399 17.6,41.649 v 1.525 c -0.2,16.25 -6.066,30.142 -17.6,41.675 -11.517,11.517 -25.392,17.366 -41.625,17.55 h -1.55 c -16.233,-0.184 -30.125,-6.033 -41.675,-17.55 -11.517,-11.533 -17.366,-25.425 -17.55,-41.675 m -120,-120 v -1.525 c 0.184,-16.25 6.033,-30.133 17.55,-41.649 11.55,-11.535 25.442,-17.401 41.675,-17.601 h 1.55 c 16.233,0.2 30.108,6.066 41.625,17.601 11.534,11.516 17.4,25.399 17.6,41.649 v 1.525 c -0.2,16.25 -6.066,30.142 -17.6,41.675 -11.517,11.517 -25.392,17.366 -41.625,17.55 h -1.55 c -16.233,-0.184 -30.125,-6.033 -41.675,-17.55 -11.517,-11.533 -17.366,-25.425 -17.55,-41.675 M -1379.225,-780 h -1.55 c -16.233,-0.184 -30.125,-6.033 -41.675,-17.55 -11.517,-11.533 -17.366,-25.425 -17.55,-41.675 v -1.525 c 0.184,-16.25 6.033,-30.133 17.55,-41.649 11.55,-11.535 25.442,-17.401 41.675,-17.601 h 1.55 c 16.233,0.2 30.108,6.066 41.625,17.601 11.534,11.516 17.4,25.399 17.6,41.649 v 1.525 c -0.2,16.25 -6.066,30.142 -17.6,41.675 -11.517,11.517 -25.392,17.366 -41.625,17.55 M -1560,-840.75 v 1.525 c -0.2,16.25 -6.066,30.142 -17.6,41.675 -11.517,11.517 -25.392,17.366 -41.625,17.55 h -1.55 c -16.233,-0.184 -30.125,-6.033 -41.675,-17.55 -11.517,-11.533 -17.367,-25.425 -17.55,-41.675 v -1.525 c 0.183,-16.25 6.033,-30.133 17.55,-41.649 11.55,-11.535 25.442,-17.401 41.675,-17.601 h 1.55 c 16.233,0.2 30.108,6.066 41.625,17.601 11.534,11.516 17.4,25.399 17.6,41.649 m 60.775,-59.25 h -1.55 c -16.233,-0.184 -30.125,-6.033 -41.675,-17.55 -11.517,-11.533 -17.366,-25.425 -17.55,-41.675 v -1.525 c 0.184,-16.25 6.033,-30.133 17.55,-41.649 11.55,-11.534 25.442,-17.401 41.675,-17.601 h 1.55 c 16.233,0.2 30.108,6.067 41.625,17.601 11.534,11.516 17.4,25.399 17.6,41.649 v 1.525 c -0.2,16.25 -6.066,30.142 -17.6,41.675 -11.517,11.517 -25.392,17.366 -41.625,17.55 M -1320,-959.225 v -1.525 c 0.184,-16.25 6.033,-30.133 17.55,-41.649 11.55,-11.534 25.442,-17.401 41.675,-17.601 h 1.55 c 16.233,0.2 30.108,6.067 41.625,17.601 11.534,11.516 17.4,25.399 17.6,41.649 v 1.525 c -0.2,16.25 -6.066,30.142 -17.6,41.675 -11.517,11.517 -25.392,17.366 -41.625,17.55 h -1.55 c -16.233,-0.184 -30.125,-6.033 -41.675,-17.55 -11.517,-11.533 -17.366,-25.425 -17.55,-41.675 M -1739.225,-900 h -1.55 c -16.233,-0.184 -30.125,-6.033 -41.675,-17.55 -11.517,-11.533 -17.367,-25.425 -17.55,-41.675 v -1.525 c 0.183,-16.25 6.033,-30.133 17.55,-41.649 11.55,-11.534 25.442,-17.401 41.675,-17.601 h 1.55 c 16.233,0.2 30.108,6.067 41.625,17.601 11.533,11.516 17.4,25.399 17.6,41.649 v 1.525 c -0.2,16.25 -6.067,30.142 -17.6,41.675 -11.517,11.517 -25.392,17.366 -41.625,17.55 m -120,120 h -1.55 c -16.233,-0.184 -30.125,-6.033 -41.675,-17.55 -11.7,-11.733 -17.55,-25.884 -17.55,-42.45 0,-16.55 5.85,-30.684 17.55,-42.399 11.55,-11.535 25.442,-17.401 41.675,-17.601 h 1.55 c 16.233,0.2 30.108,6.066 41.625,17.601 11.533,11.516 17.4,25.399 17.6,41.649 v 1.525 c -0.2,16.25 -6.067,30.142 -17.6,41.675 -11.517,11.517 -25.392,17.366 -41.625,17.55 m 1080,-120 h -1.55 c -16.233,-0.184 -30.125,-6.033 -41.675,-17.55 -11.517,-11.533 -17.366,-25.425 -17.55,-41.675 v -1.525 c 0.184,-16.25 6.033,-30.133 17.55,-41.649 11.55,-11.534 25.442,-17.401 41.675,-17.601 h 1.55 c 16.233,0.2 30.108,6.067 41.625,17.601 11.534,11.516 17.4,25.399 17.6,41.649 v 1.525 c -0.2,16.25 -6.066,30.142 -17.6,41.675 -11.517,11.517 -25.392,17.366 -41.625,17.55 m -120,120 h -1.55 c -16.233,-0.184 -30.125,-6.033 -41.675,-17.55 -11.517,-11.533 -17.366,-25.425 -17.55,-41.675 v -1.525 c 0.184,-16.25 6.033,-30.133 17.55,-41.649 11.55,-11.535 25.442,-17.401 41.675,-17.601 h 1.55 c 16.233,0.2 30.108,6.066 41.625,17.601 11.534,11.516 17.4,25.399 17.6,41.649 v 1.525 c -0.2,16.25 -6.066,30.142 -17.6,41.675 -11.517,11.517 -25.392,17.366 -41.625,17.55 M -1080,-840.75 v 1.525 c -0.2,16.25 -6.066,30.142 -17.6,41.675 -11.517,11.517 -25.392,17.366 -41.625,17.55 h -1.55 c -16.233,-0.184 -30.125,-6.033 -41.675,-17.55 -11.517,-11.533 -17.366,-25.425 -17.55,-41.675 v -1.525 c 0.184,-16.25 6.033,-30.133 17.55,-41.649 11.55,-11.535 25.442,-17.401 41.675,-17.601 h 1.55 c 16.233,0.2 30.108,6.066 41.625,17.601 11.534,11.516 17.4,25.399 17.6,41.649 m 60.775,-59.25 h -1.55 c -16.233,-0.184 -30.125,-6.033 -41.675,-17.55 -11.517,-11.533 -17.366,-25.425 -17.55,-41.675 v -1.525 c 0.184,-16.25 6.033,-30.133 17.55,-41.649 11.55,-11.534 25.442,-17.401 41.675,-17.601 h 1.55 c 16.233,0.2 30.108,6.067 41.625,17.601 11.534,11.516 17.4,25.399 17.6,41.649 v 1.525 c -0.2,16.25 -6.066,30.142 -17.6,41.675 -11.517,11.517 -25.392,17.366 -41.625,17.55"
       style="fill:#70f8f8;fill-opacity:1;fill-rule:nonzero;stroke:none"
       transform="matrix(1.3333333,0,0,-1.3333333,2560,80.000267)"
       clip-path="url(#clipPath5)" />
    <path
       id="path6"
       d="m 0,0 -0.125,0.2 -25.024,-7.125 -12,-15.35 9.099,-13.575 z m -4.024,-97.375 0.174,0.225 -22.2,33.125 -33.974,12.55 -36.226,-46.225 -0.95,-26.025 0.25,-0.075 36.926,47.125 56,-20.7 m -147.351,54.325 -0.024,-0.25 55.474,-20.25 0.901,24.875 -18.151,6.625 -38.2,-11 m -121.524,393.7 -0.125,0.2 -25.026,-7.125 -12,-15.35 9.1,-13.575 28.051,35.85 m -4.026,-97.375 0.175,0.225 -22.2,33.125 -33.975,12.55 -36.224,-46.225 -0.951,-26.025 0.25,-0.075 36.925,47.125 56,-20.7 m -91,58.7 -18.15,6.625 -38.199,-11 -0.026,-0.25 55.475,-20.25 0.9,24.875 m -241.05,-919.775 -25.025,-7.125 -12,-15.35 9.101,-13.575 28.049,35.85 -0.125,0.2 m -25.924,-64.225 -33.976,12.55 -36.225,-46.225 -0.95,-26.025 0.25,-0.075 36.925,47.125 56,-20.7 0.175,0.225 -22.199,33.125 m -125.326,20.975 -0.025,-0.25 55.476,-20.25 0.899,24.875 -18.149,6.625 -38.201,-11 m -167.4,1098.475 -0.125,0.2 -25.025,-7.125 -12,-15.35 9.1,-13.575 28.05,35.85 m -4.025,-97.375 0.175,0.225 -22.2,33.125 -33.975,12.55 -36.225,-46.225 -0.95,-26.025 0.25,-0.075 36.925,47.125 56,-20.7 m -91,58.7 -18.15,6.625 -38.2,-11 -0.025,-0.25 55.475,-20.25 0.9,24.875 m -798.175,-672.775 -0.125,0.2 -25.025,-7.125 -12,-15.35 9.1,-13.575 28.05,35.85 m -4.025,-97.375 0.175,0.225 -22.2,33.125 -33.975,12.55 -36.225,-46.225 -0.95,-26.025 0.25,-0.075 36.925,47.125 56,-20.7 m -91.9,33.825 0.9,24.875 -18.15,6.625 -38.2,-11 -0.025,-0.25 55.475,-20.25 m 262.825,-233.375 -0.125,0.2 -25.025,-7.125 -12,-15.35 9.1,-13.575 28.05,35.85 m -95.025,-38.675 -18.15,6.625 -38.2,-11 -0.025,-0.25 55.475,-20.25 0.9,24.875 m 91,-58.7 0.175,0.225 -22.2,33.125 -33.975,12.55 -36.225,-46.225 -0.95,-26.025 0.25,-0.075 36.925,47.125 56,-20.7 m 288.725,983.125 -12.025,-15.35 9.1,-13.575 28.05,35.85 -0.125,0.2 -25,-7.125 m -126.25,-36.125 -0.025,-0.25 55.475,-20.25 0.9,24.875 -18.125,6.625 -38.225,-11 m 125.325,-21 -33.975,12.575 -36.225,-46.25 -0.95,-26 0.25,-0.075 36.925,47.125 56,-20.7 0.175,0.225 z"
       style="fill:#10c0b8;fill-opacity:1;fill-rule:nonzero;stroke:none"
       transform="matrix(1.3333333,0,0,-1.3333333,2501.5664,559.26653)"
       clip-path="url(#clipPath7)" />
    <path
       id="path8"
       d="M 0,0 -0.125,0.2 -57.774,-16.225 -90.95,33.3 -91.2,33.225 -93.524,-26.4 l -57.851,-16.65 -0.024,-0.25 38.224,-13.95 18.151,-6.625 -0.901,-24.875 -1.275,-34.975 0.25,-0.075 0.7,0.9 36.226,46.225 33.974,-12.55 22.026,-8.15 0.174,0.225 -24.2,36.1 -9.099,13.575 12,15.35 z m -608.85,-608 -0.125,0.2 -57.65,-16.425 -33.175,49.525 -0.25,-0.074 -2.325,-59.625 -57.85,-16.651 -0.025,-0.25 38.226,-13.95 18.149,-6.625 -0.899,-24.875 -1.276,-34.975 0.25,-0.075 0.7,0.901 36.225,46.224 33.976,-12.55 22.024,-8.15 0.175,0.226 -24.199,36.099 -9.101,13.575 12,15.35 25.15,32.125 m -1302.925,377.275 -0.25,-0.075 -2.325,-59.625 -57.85,-16.65 -0.025,-0.25 38.225,-13.949 18.15,-6.625 -0.9,-24.875 -1.275,-34.976 0.25,-0.075 0.7,0.9 36.225,46.225 33.975,-12.55 22.025,-8.149 0.175,0.224 -24.2,36.1 -9.1,13.575 12,15.351 25.15,32.125 -0.125,0.199 -57.65,-16.425 -33.175,49.525 m 476.725,595.75 -0.25,-0.075 -2.325,-59.625 -57.85,-16.65 -0.025,-0.25 38.25,-13.95 18.125,-6.625 -0.9,-24.875 -1.275,-34.975 0.25,-0.075 0.7,0.875 36.225,46.25 33.975,-12.575 22.025,-8.125 0.175,0.225 -24.2,36.1 -9.1,13.575 12.025,15.35 25.125,32.125 -0.125,0.2 -57.65,-16.425 z"
       style="fill:#f85000;fill-opacity:1;fill-rule:nonzero;stroke:none"
       transform="matrix(1.3333333,0,0,-1.3333333,2501.5664,525.66693)"
       clip-path="url(#clipPath9)" />
    <path
       id="path10"
       d="M 0,0 -0.125,0.2 -57.775,-16.225 -90.95,33.3 -91.2,33.225 -93.525,-26.4 l -57.85,-16.65 -0.025,-0.25 38.224,-13.95 18.151,-6.625 -0.901,-24.875 -1.274,-34.975 0.25,-0.075 0.7,0.9 36.225,46.225 33.974,-12.55 22.026,-8.15 0.174,0.225 -24.2,36.1 -9.099,13.575 12,15.35 z m -654.726,96.775 -0.125,0.2 -57.649,-16.425 -33.175,49.525 -0.25,-0.075 -2.325,-59.625 -57.851,-16.65 -0.024,-0.25 38.225,-13.95 18.15,-6.625 -0.9,-24.875 -1.275,-34.975 0.25,-0.075 0.699,0.9 36.226,46.225 33.975,-12.55 22.025,-8.15 0.175,0.225 -24.2,36.1 -9.1,13.575 12,15.35 25.149,32.125 m -726.299,-1008.376 -0.125,0.201 -57.65,-16.425 -33.176,49.525 -0.25,-0.075 -2.324,-59.625 -57.85,-16.65 -0.025,-0.25 38.225,-13.951 18.15,-6.625 -0.9,-24.875 -1.276,-34.974 0.25,-0.075 0.701,0.9 36.225,46.225 33.975,-12.55 22.025,-8.151 0.175,0.226 -24.2,36.1 -9.1,13.575 12,15.349 z"
       style="fill:#f8d008;fill-opacity:1;fill-rule:nonzero;stroke:none"
       transform="matrix(1.3333333,0,0,-1.3333333,2137.7005,58.1332)"
       clip-path="url(#clipPath11)" />
    <path
       id="path12"
       d="m 0,0 -12.45,-3.425 -7.15,10.35 h -0.049 l -0.5,-12.5 -12.5,-3.475 V -9.1 l 12.174,-4.3 -0.475,-12.55 h 0.051 l 7.974,9.85 12.075,-4.325 0.05,0.05 -7.2,10.4 8.025,9.925 z M 1.325,-607.95 1.175,-608 -0.149,-641.85 -33,-651.3 v -0.15 l 32,-11.675 -1.225,-33.975 0.125,-0.049 20.975,26.75 31.775,-11.75 0.1,0.149 -18.899,28.175 21.099,26.95 -0.075,0.125 -32.725,-9.325 -18.825,28.125 m 190.25,-378.025 -0.15,-0.049 -1.324,-33.851 -32.851,-9.45 v -0.15 l 32,-11.674 -1.225,-33.976 0.125,-0.05 20.975,26.75 31.775,-11.75 0.1,0.151 -18.899,28.174 21.099,26.951 -0.075,0.125 -32.725,-9.326 -18.825,28.125 m -297.25,-55.424 -7.15,10.349 h -0.05 l -0.5,-12.5 -12.5,-3.474 v -0.051 l 12.175,-4.3 -0.475,-12.55 h 0.05 l 7.976,9.85 12.074,-4.324 0.051,0.049 -7.201,10.4 8.025,9.926 -0.025,0.049 -12.45,-3.424 m -177.3,1067.774 -0.075,0.125 -32.724,-9.325 -18.826,28.125 -0.15,-0.05 -1.325,-33.85 -32.85,-9.45 V 1.8 l 32,-11.675 -1.224,-33.975 0.125,-0.05 20.974,26.75 31.776,-11.75 0.099,0.15 -18.9,28.175 21.1,26.95 M -445.1,-0.2 l -12.45,-3.425 -7.15,10.35 h -0.05 l -0.5,-12.5 -12.5,-3.475 V -9.3 l 12.175,-4.3 -0.475,-12.55 h 0.05 l 7.976,9.85 12.074,-4.325 0.051,0.05 -7.201,10.4 8.025,9.925 -0.025,0.05 m -441.375,-107.975 -0.15,-0.05 -1.325,-33.85 -32.85,-9.45 v -0.15 l 32,-11.675 -1.225,-33.975 0.125,-0.05 20.975,26.75 31.775,-11.75 0.1,0.15 -18.9,28.175 21.1,26.95 -0.075,0.125 -32.725,-9.325 -18.825,28.125 m -314.3,-122.95 v -0.05 l 12.175,-4.3 -0.475,-12.55 h 0.05 l 7.975,9.85 12.075,-4.325 0.05,0.05 -7.2,10.4 8.025,9.925 -0.025,0.05 -12.45,-3.425 -7.15,10.35 h -0.05 l -0.5,-12.5 -12.5,-3.475 m -167.775,-257.825 -0.15,-0.05 -1.325,-33.85 -32.85,-9.45 v -0.15 l 32,-11.675 -1.225,-33.975 0.125,-0.049 20.975,26.749 31.775,-11.749 0.1,0.149 -18.9,28.175 21.1,26.95 -0.075,0.125 -32.725,-9.325 -18.825,28.125 m -61.5,-80.1 -0.025,0.05 -12.45,-3.425 -7.15,10.35 h -0.05 l -0.5,-12.5 -12.5,-3.475 v -0.05 l 12.175,-4.299 -0.475,-12.551 h 0.05 l 7.975,9.85 12.075,-4.325 0.05,0.05 -7.2,10.4 8.025,9.925 m -113.775,-348.075 h -0.05 l -0.5,-12.5 -12.5,-3.475 v -0.049 l 12.175,-4.301 -0.475,-12.55 h 0.05 l 7.975,9.851 12.075,-4.326 0.05,0.05 -7.2,10.401 8.025,9.924 -0.025,0.05 -12.45,-3.425 -7.15,10.35 m 715.2,-131.95 -0.15,-0.05 -1.325,-33.85 -32.85,-9.45 v -0.15 l 32,-11.675 -1.225,-33.975 0.125,-0.049 20.975,26.75 31.775,-11.75 0.1,0.149 -18.9,28.175 21.1,26.95 -0.075,0.125 -32.725,-9.325 z"
       style="fill:#f85000;fill-opacity:1;fill-rule:nonzero;stroke:none"
       transform="matrix(1.3333333,0,0,-1.3333333,2111.2331,-22.1664)"
       clip-path="url(#clipPath13)" />
    <path
       id="path14"
       d="m 0,0 -0.15,-0.05 -1.325,-33.85 -32.85,-9.45 v -0.15 l 32,-11.675 -1.225,-33.975 0.125,-0.05 20.975,26.75 31.775,-11.75 0.1,0.15 -18.9,28.175 21.1,26.95 -0.075,0.125 -32.725,-9.325 z m 69.9,-498.225 12.175,-4.3 -0.475,-12.55 h 0.05 l 7.975,9.85 12.075,-4.325 0.05,0.05 -7.2,10.4 8.025,9.925 -0.025,0.05 -12.45,-3.425 -7.15,10.35 H 82.9 l -0.5,-12.5 -12.5,-3.475 v -0.05 m -402.85,-336.05 -0.15,-0.05 -1.325,-33.85 -32.85,-9.45 v -0.15 l 32,-11.675 -1.225,-33.975 0.125,-0.05 20.975,26.75 31.775,-11.75 0.1,0.15 -18.9,28.175 21.1,26.95 -0.075,0.125 -32.725,-9.325 -18.825,28.125 m -486.525,836.2 -0.025,0.05 -12.45,-3.425 -7.15,10.35 h -0.05 l -0.5,-12.5 -12.5,-3.475 v -0.05 l 12.175,-4.3 -0.475,-12.55 h 0.05 l 7.975,9.85 12.075,-4.325 0.05,0.05 -7.2,10.4 8.025,9.925 m -884.575,58.2 -0.15,-0.05 -1.325,-33.85 -32.85,-9.45 v -0.15 l 32,-11.675 -1.225,-33.975 0.125,-0.05 20.975,26.75 31.775,-11.75 0.1,0.15 -18.9,28.175 21.1,26.95 -0.075,0.125 -32.725,-9.325 -18.825,28.125 m 64.1,-580.675 -7.15,10.35 h -0.05 l -0.5,-12.5 -12.5,-3.475 v -0.05 l 12.175,-4.3 -0.475,-12.55 h 0.05 l 7.975,9.85 12.075,-4.325 0.05,0.05 -7.2,10.4 8.025,9.925 -0.025,0.05 -12.45,-3.425 m 198.875,-226.65 v -0.05 l 12.175,-4.3 -0.475,-12.55 h 0.05 l 7.975,9.85 12.075,-4.325 0.05,0.05 -7.2,10.4 8.025,9.925 -0.025,0.05 -12.45,-3.425 -7.15,10.35 h -0.05 l -0.5,-12.5 -12.5,-3.475 m 27.85,-69.3 v -0.15 l 32,-11.675 -1.225,-33.975 0.125,-0.05 20.975,26.75 31.775,-11.75 0.1,0.15 -18.9,28.175 21.1,26.95 -0.075,0.125 -32.725,-9.325 -18.825,28.125 -0.15,-0.05 -1.325,-33.85 -32.85,-9.45 m 262.2,-139.625 -0.5,-12.5 -12.5,-3.475 v -0.05 l 12.175,-4.3 -0.475,-12.55 h 0.05 l 7.975,9.85 12.075,-4.325 0.05,0.05 -7.2,10.4 8.025,9.925 -0.025,0.05 -12.45,-3.425 -7.15,10.35 h -0.05 m 355.15,-4.175 -0.15,-0.05 -1.325,-33.85 -32.85,-9.45 v -0.15 l 32,-11.675 -1.225,-33.975 0.125,-0.05 20.975,26.75 31.775,-11.75 0.1,0.15 -18.9,28.175 21.1,26.95 -0.075,0.125 -32.725,-9.325 -18.825,28.125 m 268.925,12.2 H -527 l -0.5,-12.5 -12.5,-3.475 v -0.05 l 12.175,-4.3 -0.475,-12.55 h 0.05 l 7.975,9.85 12.075,-4.325 0.05,0.05 -7.2,10.4 8.025,9.925 -0.025,0.05 -12.45,-3.425 z"
       style="fill:#f8d008;fill-opacity:1;fill-rule:nonzero;stroke:none"
       transform="matrix(1.3333333,0,0,-1.3333333,2433,100.3668)"
       clip-path="url(#clipPath15)" />
    <path
       id="path16"
       d="m 0,0 c 3.702,16.08 5.567,32.601 5.567,49.412 0,120.883 -98.342,219.228 -219.226,219.228 -48.477,0 -94.424,-15.506 -132.878,-44.842 -19.306,-14.726 -36.026,-32.656 -49.459,-52.756 -34.919,22.514 -75.869,34.799 -118.469,34.799 -69.675,0 -134.335,-33.581 -175.06,-87.586 -37.449,25.129 -81.828,38.909 -127.866,38.909 -126.617,0 -229.627,-103.01 -229.627,-229.626 0,-71.77 32.908,-137.878 88.081,-180.907 -8.715,-24.553 -13.228,-50.551 -13.228,-76.859 0,-126.473 102.894,-229.368 229.367,-229.368 50.26,0 97.993,15.971 138.04,46.183 22.096,16.671 41.023,37.36 55.786,60.641 32.02,-17.702 68.157,-27.108 105.737,-27.108 76.942,0 147.077,40.68 186.342,103.836 32.325,-16.763 68.406,-25.675 105.516,-25.675 126.473,0 229.365,102.895 229.365,229.403 C 77.938,-105.448 49.309,-43.221 0,0"
       style="fill:#00b3f0;fill-opacity:1;fill-rule:nonzero;stroke:none"
       transform="matrix(1.3333333,0,0,-1.3333333,1926.0364,526.17987)"
       clip-path="url(#clipPath17)" />
    <path
       id="path18"
       d="m 0,0 c 5.69,18.561 8.567,37.885 8.567,57.667 0,108.389 -88.181,196.57 -196.571,196.57 -74.707,0 -142.519,-42.995 -175.512,-108.007 -34.943,29.045 -79.036,45.208 -125.294,45.208 -70.24,0 -134.789,-38.056 -169.541,-97.419 -37.084,31.279 -84.183,48.742 -133.385,48.742 -114.123,0 -206.969,-92.846 -206.969,-206.969 0,-70.409 35.142,-134.778 93.054,-172.854 -11.956,-26.567 -18.202,-55.527 -18.202,-84.911 0,-113.98 92.73,-206.712 206.71,-206.712 45.296,0 88.31,14.391 124.394,41.614 25.976,19.598 47.089,45.344 61.357,74.398 33.033,-23.581 72.451,-36.296 113.812,-36.296 76.598,0 145.669,44.956 177.684,112.535 33.662,-22.333 73.221,-34.374 114.174,-34.374 113.98,0 206.709,92.731 206.709,206.728 C 80.937,-99.128 50.973,-39.036 0,0"
       style="fill:#ffffff;fill-opacity:1;fill-rule:nonzero;stroke:none"
       transform="matrix(1.3333333,0,0,-1.3333333,1891.8295,537.18573)"
       clip-path="url(#clipPath19)" />
    <path
       id="path20"
       d="m 0,0 c 8.432,20.433 13.036,42.78 13.036,66.265 0,96.113 -77.904,174.017 -174.017,174.017 -79.301,0 -146.187,-53.022 -167.189,-125.547 -31.865,38.332 -79.87,62.748 -133.617,62.748 -74.645,0 -138.272,-47.073 -162.843,-113.183 -33.831,39.469 -84.06,64.506 -140.083,64.506 -101.854,0 -184.414,-82.56 -184.414,-184.415 0,-71.593 40.762,-133.617 100.354,-164.188 -16.191,-27.417 -25.502,-59.437 -25.502,-93.578 0,-101.7 82.456,-184.156 184.156,-184.156 83.18,0 153.532,55.195 176.345,130.927 31.503,-31.607 75.059,-51.212 123.218,-51.212 79.663,0 146.808,53.54 167.396,126.581 32.797,-30.055 76.456,-48.418 124.461,-48.418 101.699,0 184.155,82.456 184.155,184.155 C 85.405,-90.112 51.315,-32.693 0,0"
       style="fill:#130c0e;fill-opacity:1;fill-rule:nonzero;stroke:none"
       transform="matrix(1.3333333,0,0,-1.3333333,1855.7981,548.65133)"
       clip-path="url(#clipPath21)" />
    <path
       id="path22"
       d="M 0,0 V 17.222 L -4.33,-0.999 -9.019,-2.082 -13.245,14.164 V -3.058 l -4.433,-1.023 v 20.616 l 6.925,1.599 4.175,-15.389 0.052,0.012 4.072,17.293 6.835,1.577 V 1.012 Z M -32.002,-7.388 V 9.571 l -7.13,-1.645 v 3.656 l 18.86,4.354 v -3.657 l -6.874,-1.587 V -6.267 Z"
       style="fill:#f15a22;fill-opacity:1;fill-rule:nonzero;stroke:none"
       transform="matrix(1.3333333,0,0,-1.3333333,1884.6484,862.64733)"
       clip-path="url(#clipPath23)" />
    <path
       id="path24"
       d="m 0,0 c 9.974,3.757 30.849,9.37 48.383,13.174 v 54.28 L -39.245,47.223 V -97.853 l 87.628,20.231 v 24.169 c -11.504,-3.016 -35.348,-7.501 -45.785,-9.264 -12.71,-2.134 -14.52,14.056 -0.464,18.695 8.072,2.644 22.869,6.169 34.42,9.417 v 18.61 C 26.024,-18.129 11.782,-20.597 0.557,-22.174 -13.359,-24.168 -15.771,-5.937 0,0"
       style="fill:#f15a22;fill-opacity:1;fill-rule:nonzero;stroke:none"
       transform="matrix(1.3333333,0,0,-1.3333333,1804.5781,709.74893)"
       clip-path="url(#clipPath25)" />
    <path
       id="path26"
       d="m 0,0 c -0.514,4.82 -8.851,5.912 -21.839,9.025 -22.707,5.64 -36.762,19.016 -35.326,42.517 1.528,25.365 14.37,43.057 82.337,54.599 V 53.374 c -24.526,-3.067 -38.067,-7.655 -43.81,-12.353 -6.125,-4.97 -5.767,-13.11 3.074,-16.062 3.84,-1.283 15.196,-5.076 22.058,-7.377 13.17,-4.39 19.612,-11.12 20.956,-23.033 3.794,-33.609 -57.034,-42.422 -82.112,-46.105 v 29.861 C -24.618,-15.642 1.159,-10.336 0,0"
       style="fill:#f15a22;fill-opacity:1;fill-rule:nonzero;stroke:none"
       transform="matrix(1.3333333,0,0,-1.3333333,1696.1107,843.03667)"
       clip-path="url(#clipPath27)" />
    <path
       id="path28"
       d="m 0,0 v 129.331 l 32.703,7.55 V 7.551 Z"
       style="fill:#f15a22;fill-opacity:1;fill-rule:nonzero;stroke:none"
       transform="matrix(1.3333333,0,0,-1.3333333,1555.8139,854.78933)"
       clip-path="url(#clipPath29)" />
    <path
       id="path30"
       d="m 0,0 c -9.001,-2.082 -12.896,0.928 -12.896,11.458 v 33.214 c 0,7.654 -0.396,13.768 6.866,15.818 C 9.742,64.944 27.369,56.501 29.039,39.338 30.987,19.391 19.891,4.593 0,0 M -35.069,110.729 V -30.338 c 68.19,9.974 97.879,36.322 97.136,88.694 -0.649,45.415 -45.738,70.372 -97.136,52.373"
       style="fill:#f15a22;fill-opacity:1;fill-rule:nonzero;stroke:none"
       transform="matrix(1.3333333,0,0,-1.3333333,1451.5937,883.54973)"
       clip-path="url(#clipPath31)" />
    <path
       id="path32"
       d="m 0,0 -16.468,-3.802 c -4.139,-0.956 -6.495,1.621 -5.984,7.374 0.464,5.381 2.876,16.792 3.804,20.689 1.948,8.072 6.03,12.014 10.715,12.711 7.562,1.206 11.226,-4.315 14.149,-18.231 0.278,-1.3 1.066,-4.129 1.391,-7.932 C 8.257,3.062 5.849,1.351 0,0 M 28.854,61.836 C 20.225,90.132 13.241,97.115 -3.943,93.147 -19.093,89.651 -27.705,81.764 -34.931,54.089 -42.028,26.905 -49.875,-11.943 -56.184,-55.92 l 25.01,5.774 c 0.464,3.479 1.299,7.562 2.506,13.778 1.299,6.262 4.685,10.74 11.411,12.293 l 19.484,4.498 c 5.208,1.202 9.973,-2.921 11.642,-9.88 1.113,-4.639 2.552,-11.218 3.434,-15.625 l 33.121,7.646 C 46.388,-5.01 37.435,33.725 28.854,61.836"
       style="fill:#f15a22;fill-opacity:1;fill-rule:nonzero;stroke:none"
       transform="matrix(1.3333333,0,0,-1.3333333,1325.3919,912.67213)"
       clip-path="url(#clipPath33)" />
    <path
       id="path34"
       d="m 0,0 c -8.497,-1.992 -13.227,2.739 -13.227,12.854 v 9.772 c -10e-4,7.049 1.369,13.165 7.656,15.157 C 12.683,43.565 25.396,35.697 25.396,23.342 25.396,11.795 16.557,3.891 0,0 m 61.529,42.233 c 0,44.911 -43.945,57.951 -97.694,38.747 V -60.308 l 22.907,5.288 v 32.612 c 0,5.54 4.077,4.575 7.842,1.214 2.646,-2.366 18.549,-17.772 29.66,-28.851 l 34.969,8.073 c 0,0 -30.487,31.141 -34.004,34.222 20.479,7.656 36.32,27.608 36.32,49.983"
       style="fill:#f15a22;fill-opacity:1;fill-rule:nonzero;stroke:none"
       transform="matrix(1.3333333,0,0,-1.3333333,1162.5397,898.068)"
       clip-path="url(#clipPath35)" />
    <path
       id="path36"
       d="m 0,0 -16.468,-3.803 c -4.138,-0.955 -6.494,1.622 -5.984,7.374 0.464,5.381 2.876,16.793 3.804,20.69 1.948,8.071 6.03,12.014 10.715,12.71 C -0.371,38.177 3.293,32.657 6.216,18.74 6.494,17.441 7.283,14.612 7.607,10.808 8.257,3.062 5.849,1.35 0,0 M 28.854,61.835 C 20.226,90.132 13.241,97.115 -3.943,93.147 -19.092,89.65 -27.705,81.764 -34.93,54.089 -42.028,26.905 -49.875,-11.944 -56.183,-55.92 l 25.01,5.774 c 0.464,3.479 1.299,7.561 2.505,13.777 1.299,6.263 4.685,10.74 11.411,12.293 l 19.484,4.498 c 5.208,1.202 9.973,-2.921 11.643,-9.879 1.113,-4.639 2.551,-11.219 3.433,-15.626 l 33.121,7.647 c -4.036,32.425 -12.988,71.16 -21.57,99.271"
       style="fill:#f15a22;fill-opacity:1;fill-rule:nonzero;stroke:none"
       transform="matrix(1.3333333,0,0,-1.3333333,1042.5111,1000.0132)"
       clip-path="url(#clipPath37)" />
    <path
       id="path38"
       d="m 0,0 c -10.298,-2.518 -16.236,0.186 -16.236,8.814 v 31.22 c 0,8.819 4.871,14.381 14.566,15.634 19.438,2.505 28.205,-8.86 28.205,-23.659 C 26.535,19.67 19.252,4.708 0,0 M -64.621,100.712 V -94.82 l 48.431,11.18 v 45.926 c 0,8.397 2.087,12.571 7.098,13.452 45.134,7.941 77.284,30.633 77.285,77.193 0,51.126 -54.926,78.63 -132.814,47.781"
       style="fill:#f15a22;fill-opacity:1;fill-rule:nonzero;stroke:none"
       transform="matrix(1.3333333,0,0,-1.3333333,886.77013,963.70467)"
       clip-path="url(#clipPath39)" />
    <path
       id="path40"
       d="m 0,0 c -13.359,-44.115 -20.921,-65.686 -27.508,-83.87 -11.226,-30.941 -22.87,-18.787 -28.297,-10.159 -6.309,10.113 -14.89,29.781 -29.781,65.825 l -36.786,-8.493 v -173.159 l 30.523,7.047 c -0.232,27.601 0.232,46.342 1.716,53.624 1.346,6.541 5.288,7.469 9.279,0.975 3.292,-5.335 8.488,-16.886 18.833,-40.637 l 20.452,4.722 c 11.272,30.292 17.354,45.563 21.669,53.032 3.478,6.077 10.112,10.344 12.107,-0.882 1.53,-8.489 1.392,-31.519 1.345,-59.722 l 31.637,7.303 V 5.815 Z"
       style="fill:#faa61a;fill-opacity:1;fill-rule:nonzero;stroke:none"
       transform="matrix(1.3333333,0,0,-1.3333333,1723.8633,326.70533)"
       clip-path="url(#clipPath41)" />
    <path
       id="path42"
       d="m 0,0 c -0.139,-23.658 -0.093,-45.228 -1.113,-53.114 -2.366,-18.834 -34.56,-27.323 -36.137,-9.974 -0.742,8.165 -1.392,18.951 -1.392,43.026 l -26.023,-6.008 v -158.648 l 33.167,7.657 c 0,25.189 0,36.134 0.418,44.762 1.159,22.73 35.302,27.879 38.27,8.118 1.345,-9 1.578,-13.314 1.578,-33.631 l 26.441,6.104 V 8.129 Z"
       style="fill:#faa61a;fill-opacity:1;fill-rule:nonzero;stroke:none"
       transform="matrix(1.3333333,0,0,-1.3333333,1489.2005,447.2548)"
       clip-path="url(#clipPath43)" />
    <path
       id="path44"
       d="m 0,0 v -63.858 l 18.509,4.273 c 11.225,2.591 15.864,1.13 15.864,-18.741 v -82.025 l 30.385,7.015 v 75.195 c 0,33.401 3.136,41.829 19.669,45.646 l 15.122,3.492 v 51.985 z"
       style="fill:#faa61a;fill-opacity:1;fill-rule:nonzero;stroke:none"
       transform="matrix(1.3333333,0,0,-1.3333333,1254.5377,464.72547)"
       clip-path="url(#clipPath45)" />
    <path
       id="path46"
       d="m 0,0 -28.39,-6.555 c 0,0 0.417,-29.224 -0.695,-50.748 -1.624,-31.498 -33.354,-38.27 -35.905,-8.303 -1.299,15.725 -1.902,47.069 -1.902,47.069 l -35.301,-8.15 v -25.56 c 0,-61 39.661,-68.515 60.397,-51.12 1.253,1.067 2.505,1.717 3.525,1.253 1.16,-0.511 1.114,-1.763 0.65,-4.082 -1.253,-6.077 -10.252,-18.092 -28.436,-22.962 -13.87,-3.712 -27.462,-6.052 -34.235,-7.119 v -42.331 c 30.523,3.943 65.871,12.664 82.339,37.992 8.582,13.22 13.082,27.183 15.308,47.872 C 0.835,-60.179 0,0 0,0"
       style="fill:#faa61a;fill-opacity:1;fill-rule:nonzero;stroke:none"
       transform="matrix(1.3333333,0,0,-1.3333333,1237.9616,520.95987)"
       clip-path="url(#clipPath47)" />
    <path
       id="path48"
       d="m 0,0 c -0.139,-23.658 -0.093,-45.229 -1.113,-53.115 -2.366,-18.833 -34.56,-27.322 -36.137,-9.973 -0.742,8.164 -1.392,18.95 -1.392,43.026 l -26.024,-6.008 v -158.648 l 33.168,7.657 c 0,25.189 0,36.134 0.417,44.762 1.161,22.73 35.302,27.879 38.271,8.117 1.345,-8.999 1.577,-13.313 1.577,-33.63 l 26.441,6.104 V 8.128 Z"
       style="fill:#faa61a;fill-opacity:1;fill-rule:nonzero;stroke:none"
       transform="matrix(1.3333333,0,0,-1.3333333,1031.6881,517.45213)"
       clip-path="url(#clipPath49)" />
    <path
       id="path50"
       d="m 0,0 c -12.664,-2.969 -19.715,4.083 -19.715,19.159 v 14.566 c -0.001,10.505 2.041,19.622 11.411,22.59 27.207,8.62 46.157,-3.107 46.157,-21.523 C 37.853,17.581 24.679,5.799 0,0 m 91.709,62.949 c 10e-4,66.938 -65.5,86.375 -145.612,57.754 V -95.379 l 34.141,7.881 v 54.099 c 0,8.257 6.077,6.819 11.69,1.809 3.943,-3.526 27.648,-26.488 44.208,-43.002 l 52.122,12.033 c 0,0 -45.442,46.416 -50.684,51.008 30.524,11.412 54.135,41.15 54.135,74.5"
       style="fill:#faa61a;fill-opacity:1;fill-rule:nonzero;stroke:none"
       transform="matrix(1.3333333,0,0,-1.3333333,801.3548,644.67933)"
       clip-path="url(#clipPath51)" />
  </g>
</svg>
