<?xml version="1.0" encoding="UTF-8" standalone="no"?>
<!-- Created with Inkscape (http://www.inkscape.org/) -->

<svg
   version="1.1"
   id="svg2"
   width="2560"
   height="1440"
   viewBox="0 0 2560 1440"
   sodipodi:docname="Rhythm Tengoku (リズム天国) (Ripping Reapers).svg"
   inkscape:version="1.2.2 (b0a8486541, 2022-12-01)"
   xmlns:inkscape="http://www.inkscape.org/namespaces/inkscape"
   xmlns:sodipodi="http://sodipodi.sourceforge.net/DTD/sodipodi-0.dtd"
   xmlns="http://www.w3.org/2000/svg"
   xmlns:svg="http://www.w3.org/2000/svg">
  <defs
     id="defs6">
    <clipPath
       clipPathUnits="userSpaceOnUse"
       id="clipPath178">
      <path
         d="M 0,1080 H 1920 V 0 H 0 Z"
         id="path176" />
    </clipPath>
  </defs>
  <sodipodi:namedview
     id="namedview4"
     pagecolor="#ffffff"
     bordercolor="#000000"
     borderopacity="0.25"
     inkscape:showpageshadow="2"
     inkscape:pageopacity="0.0"
     inkscape:pagecheckerboard="0"
     inkscape:deskcolor="#d1d1d1"
     showgrid="false"
     inkscape:zoom="1.1109375"
     inkscape:cx="1140.0281"
     inkscape:cy="726.4135"
     inkscape:window-width="2560"
     inkscape:window-height="1400"
     inkscape:window-x="0"
     inkscape:window-y="0"
     inkscape:window-maximized="1"
     inkscape:current-layer="g224" />
  <g
     id="g8"
     inkscape:groupmode="layer"
     inkscape:label="Rhythm Tengoku (Ripping Reapers)"
     transform="matrix(1.3333333,0,0,-1.3333333,0,1440)">
    <path
       d="M 0,0 H 1920 V 1080 H 0 Z"
       style="fill:#2d25fd;fill-opacity:1;fill-rule:nonzero;stroke:none"
       id="path10" />
    <g
       id="g12"
       transform="translate(477.8788,1080)">
      <path
         d="m 0,0 -361.363,-1080 h 1351.5 L 1351.5,0 Z"
         style="fill:#491fe8;fill-opacity:1;fill-rule:nonzero;stroke:none"
         id="path14" />
    </g>
    <g
       id="g16"
       transform="translate(464.5331,1080)">
      <path
         d="M 0,0 -361.363,-1080 H 990.136 L 1351.499,0 Z"
         style="fill:#4433ff;fill-opacity:1;fill-rule:nonzero;stroke:none"
         id="path18" />
    </g>
    <g
       id="g20"
       transform="translate(1704.0359,345.4401)">
      <path
         d="m 0,0 5.45,-14.085 14.772,-2.207 -10.177,-9.341 6.997,-14.393 -17.099,8.62 -16.139,-8.734 7.431,14.607 -11.19,9.146 14.952,2.137 z"
         style="fill:#491fe8;fill-opacity:1;fill-rule:nonzero;stroke:none"
         id="path22" />
    </g>
    <g
       id="g24"
       transform="translate(1521.0486,824.2249)">
      <path
         d="m 0,0 5.45,-14.085 14.772,-2.207 -10.177,-9.341 6.997,-14.393 -17.099,8.62 -16.139,-8.734 7.431,14.607 -11.19,9.146 14.952,2.137 z"
         style="fill:#491fe8;fill-opacity:1;fill-rule:nonzero;stroke:none"
         id="path26" />
    </g>
    <g
       id="g28"
       transform="translate(1520.1941,943.3895)">
      <path
         d="m 0,0 5.45,-14.085 14.772,-2.207 -10.177,-9.341 6.997,-14.393 -17.099,8.62 -16.139,-8.734 7.431,14.607 -11.19,9.146 14.952,2.137 z"
         style="fill:#491fe8;fill-opacity:1;fill-rule:nonzero;stroke:none"
         id="path30" />
    </g>
    <g
       id="g32"
       transform="translate(1458.2373,178.9971)">
      <path
         d="m 0,0 5.45,-14.085 14.772,-2.207 -10.177,-9.341 6.997,-14.393 -17.099,8.62 -16.139,-8.734 7.431,14.607 -11.19,9.146 14.952,2.137 z"
         style="fill:#491fe8;fill-opacity:1;fill-rule:nonzero;stroke:none"
         id="path34" />
    </g>
    <g
       id="g36"
       transform="translate(1392.1045,858.0667)">
      <path
         d="m 0,0 5.45,-14.086 14.772,-2.206 -10.177,-9.341 6.997,-14.393 -17.099,8.62 -16.139,-8.734 7.431,14.607 -11.19,9.146 14.952,2.137 z"
         style="fill:#491fe8;fill-opacity:1;fill-rule:nonzero;stroke:none"
         id="path38" />
    </g>
    <g
       id="g40"
       transform="translate(1172.3341,132.054)">
      <path
         d="m 0,0 5.45,-14.085 14.772,-2.207 -10.177,-9.341 6.997,-14.393 -17.099,8.62 -16.139,-8.734 7.431,14.607 -11.19,9.146 14.952,2.137 z"
         style="fill:#491fe8;fill-opacity:1;fill-rule:nonzero;stroke:none"
         id="path42" />
    </g>
    <g
       id="g44"
       transform="translate(808.0249,960.0414)">
      <path
         d="m 0,0 5.45,-14.085 14.772,-2.207 -10.177,-9.341 6.997,-14.393 -17.099,8.62 -16.139,-8.734 7.431,14.607 -11.19,9.146 14.952,2.137 z"
         style="fill:#491fe8;fill-opacity:1;fill-rule:nonzero;stroke:none"
         id="path46" />
    </g>
    <g
       id="g48"
       transform="translate(574.7084,829.4274)">
      <path
         d="m 0,0 5.45,-14.085 14.772,-2.207 -10.177,-9.341 6.997,-14.393 -17.099,8.62 -16.139,-8.734 7.431,14.607 -11.19,9.146 14.952,2.137 z"
         style="fill:#491fe8;fill-opacity:1;fill-rule:nonzero;stroke:none"
         id="path50" />
    </g>
    <g
       id="g52"
       transform="translate(419.892,948.6395)">
      <path
         d="m 0,0 5.45,-14.085 14.772,-2.207 -10.177,-9.341 6.997,-14.393 -17.099,8.62 -16.139,-8.734 7.431,14.607 -11.19,9.146 14.952,2.137 z"
         style="fill:#491fe8;fill-opacity:1;fill-rule:nonzero;stroke:none"
         id="path54" />
    </g>
    <g
       id="g56"
       transform="translate(260.4363,124.0195)">
      <path
         d="m 0,0 5.45,-14.085 14.772,-2.207 -10.177,-9.341 6.997,-14.393 -17.099,8.62 -16.139,-8.734 7.431,14.607 -11.19,9.146 14.952,2.137 z"
         style="fill:#491fe8;fill-opacity:1;fill-rule:nonzero;stroke:none"
         id="path58" />
    </g>
    <g
       id="g60"
       transform="translate(223.5249,383.9372)">
      <path
         d="m 0,0 5.45,-14.085 14.772,-2.207 -10.177,-9.341 6.997,-14.393 -17.099,8.62 -16.139,-8.734 7.431,14.607 -11.19,9.146 14.952,2.137 z"
         style="fill:#491fe8;fill-opacity:1;fill-rule:nonzero;stroke:none"
         id="path62" />
    </g>
    <g
       id="g64"
       transform="translate(555.1926,158.3241)">
      <path
         d="m 0,0 14.523,-43.879 32.86,-3.238 -24.941,-19.599 5.98,-33.299 -27.227,20.778 -32.011,-20.778 6.916,33.528 -22.678,20.937 32.402,3.55 z"
         style="fill:#491fe8;fill-opacity:1;fill-rule:nonzero;stroke:none"
         id="path66" />
    </g>
    <g
       id="g68"
       transform="translate(666.3502,955.816)">
      <path
         d="m 0,0 14.523,-43.879 32.86,-3.238 -24.941,-19.599 5.98,-33.299 -27.227,20.778 -32.011,-20.778 6.916,33.528 -22.678,20.937 32.402,3.55 z"
         style="fill:#491fe8;fill-opacity:1;fill-rule:nonzero;stroke:none"
         id="path70" />
    </g>
    <g
       id="g72"
       transform="translate(1686.0632,822.3165)">
      <path
         d="m 0,0 14.203,-41.051 36.493,-3.019 -27.343,-22.424 7.482,-35.886 -32.458,22.51 -27.883,-23.155 5.232,36.392 -27.391,20.684 37.14,4.101 z"
         style="fill:#491fe8;fill-opacity:1;fill-rule:nonzero;stroke:none"
         id="path74" />
    </g>
    <g
       id="g76"
       transform="translate(337.7314,291.731)">
      <path
         d="m 0,0 14.203,-41.051 36.493,-3.019 -27.343,-22.424 7.482,-35.886 -32.458,22.51 -27.883,-23.155 5.232,36.392 -27.391,20.684 37.14,4.101 z"
         style="fill:#491fe8;fill-opacity:1;fill-rule:nonzero;stroke:none"
         id="path78" />
    </g>
    <g
       id="g80"
       transform="translate(288.2599,810.3259)">
      <path
         d="m 0,0 14.203,-41.051 36.493,-3.019 -27.343,-22.424 7.482,-35.886 -32.458,22.51 -27.883,-23.155 5.232,36.392 -27.391,20.684 37.14,4.101 z"
         style="fill:#491fe8;fill-opacity:1;fill-rule:nonzero;stroke:none"
         id="path82" />
    </g>
    <g
       id="g84"
       transform="translate(1625.4508,229.9114)">
      <path
         d="m 0,0 25.301,-53.791 57.759,-5.487 -43.975,-40.899 11.165,-57.741 -50.013,26.526 -50.895,-24.978 10.772,55.069 -43.174,39.098 56.81,9.304 z"
         style="fill:#491fe8;fill-opacity:1;fill-rule:nonzero;stroke:none"
         id="path86" />
    </g>
    <g
       id="g88"
       transform="translate(1202.6171,1006.6456)">
      <path
         d="m 0,0 25.301,-53.791 57.759,-5.488 -43.975,-40.898 11.165,-57.741 -50.013,26.526 -50.895,-24.978 10.772,55.069 -43.174,39.098 56.81,9.304 z"
         style="fill:#491fe8;fill-opacity:1;fill-rule:nonzero;stroke:none"
         id="path90" />
    </g>
    <g
       id="g92"
       transform="translate(864.4629,229.9114)">
      <path
         d="m 0,0 25.301,-53.791 57.759,-5.487 -43.975,-40.899 11.165,-57.741 -50.013,26.526 -50.895,-24.978 10.772,55.069 -43.174,39.098 56.81,9.304 z"
         style="fill:#491fe8;fill-opacity:1;fill-rule:nonzero;stroke:none"
         id="path94" />
    </g>
    <g
       id="g96"
       transform="translate(1694.0359,355.4401)">
      <path
         d="m 0,0 5.45,-14.085 14.772,-2.207 -10.177,-9.341 6.997,-14.393 -17.099,8.62 -16.139,-8.734 7.431,14.607 -11.19,9.146 14.952,2.137 z"
         style="fill:#f15a22;fill-opacity:1;fill-rule:nonzero;stroke:none"
         id="path98" />
    </g>
    <g
       id="g100"
       transform="translate(1511.0486,834.2249)">
      <path
         d="m 0,0 5.45,-14.085 14.772,-2.207 -10.177,-9.341 6.997,-14.393 -17.099,8.62 -16.139,-8.734 7.431,14.607 -11.19,9.146 14.952,2.137 z"
         style="fill:#f15a22;fill-opacity:1;fill-rule:nonzero;stroke:none"
         id="path102" />
    </g>
    <g
       id="g104"
       transform="translate(1510.1941,953.3895)">
      <path
         d="m 0,0 5.45,-14.085 14.772,-2.207 -10.177,-9.341 6.997,-14.393 -17.099,8.62 -16.139,-8.734 7.431,14.607 -11.19,9.146 14.952,2.137 z"
         style="fill:#ffffff;fill-opacity:1;fill-rule:nonzero;stroke:none"
         id="path106" />
    </g>
    <g
       id="g108"
       transform="translate(1448.2373,188.9971)">
      <path
         d="m 0,0 5.45,-14.085 14.772,-2.207 -10.177,-9.341 6.997,-14.393 -17.099,8.62 -16.139,-8.734 7.431,14.607 -11.19,9.146 14.952,2.137 z"
         style="fill:#faa61a;fill-opacity:1;fill-rule:nonzero;stroke:none"
         id="path110" />
    </g>
    <g
       id="g112"
       transform="translate(1382.1045,868.0667)">
      <path
         d="m 0,0 5.45,-14.086 14.772,-2.206 -10.177,-9.341 6.997,-14.393 -17.099,8.62 -16.139,-8.734 7.431,14.607 -11.19,9.146 14.952,2.137 z"
         style="fill:#faa61a;fill-opacity:1;fill-rule:nonzero;stroke:none"
         id="path114" />
    </g>
    <g
       id="g116"
       transform="translate(1162.3341,142.054)">
      <path
         d="m 0,0 5.45,-14.085 14.772,-2.207 -10.177,-9.341 6.997,-14.393 -17.099,8.62 -16.139,-8.734 7.431,14.607 -11.19,9.146 14.952,2.137 z"
         style="fill:#ffffff;fill-opacity:1;fill-rule:nonzero;stroke:none"
         id="path118" />
    </g>
    <g
       id="g120"
       transform="translate(798.0249,970.0414)">
      <path
         d="m 0,0 5.45,-14.085 14.772,-2.207 -10.177,-9.341 6.997,-14.393 -17.099,8.62 -16.139,-8.734 7.431,14.607 -11.19,9.146 14.952,2.137 z"
         style="fill:#faa61a;fill-opacity:1;fill-rule:nonzero;stroke:none"
         id="path122" />
    </g>
    <g
       id="g124"
       transform="translate(564.7084,839.4274)">
      <path
         d="m 0,0 5.45,-14.085 14.772,-2.207 -10.177,-9.341 6.997,-14.393 -17.099,8.62 -16.139,-8.734 7.431,14.607 -11.19,9.146 14.952,2.137 z"
         style="fill:#f15a22;fill-opacity:1;fill-rule:nonzero;stroke:none"
         id="path126" />
    </g>
    <g
       id="g128"
       transform="translate(409.892,958.6395)">
      <path
         d="m 0,0 5.45,-14.085 14.772,-2.207 -10.177,-9.341 6.997,-14.393 -17.099,8.62 -16.139,-8.734 7.431,14.607 -11.19,9.146 14.952,2.137 z"
         style="fill:#faa61a;fill-opacity:1;fill-rule:nonzero;stroke:none"
         id="path130" />
    </g>
    <g
       id="g132"
       transform="translate(250.4363,134.0194)">
      <path
         d="m 0,0 5.45,-14.085 14.772,-2.207 -10.177,-9.341 6.997,-14.393 -17.099,8.62 -16.139,-8.734 7.431,14.607 -11.19,9.146 14.952,2.137 z"
         style="fill:#faa61a;fill-opacity:1;fill-rule:nonzero;stroke:none"
         id="path134" />
    </g>
    <g
       id="g136"
       transform="translate(213.5249,393.9372)">
      <path
         d="m 0,0 5.45,-14.085 14.772,-2.207 -10.177,-9.341 6.997,-14.393 -17.099,8.62 -16.139,-8.734 7.431,14.607 -11.19,9.146 14.952,2.137 z"
         style="fill:#f15a22;fill-opacity:1;fill-rule:nonzero;stroke:none"
         id="path138" />
    </g>
    <g
       id="g140"
       transform="translate(545.1926,168.3241)">
      <path
         d="m 0,0 14.523,-43.879 32.86,-3.238 -24.941,-19.599 5.98,-33.299 -27.227,20.778 -32.011,-20.778 6.916,33.528 -22.678,20.937 32.402,3.55 z"
         style="fill:#f15a22;fill-opacity:1;fill-rule:nonzero;stroke:none"
         id="path142" />
    </g>
    <g
       id="g144"
       transform="translate(656.3502,965.816)">
      <path
         d="m 0,0 14.523,-43.879 32.86,-3.238 -24.941,-19.599 5.98,-33.299 -27.227,20.778 -32.011,-20.778 6.916,33.528 -22.678,20.937 32.402,3.55 z"
         style="fill:#ffffff;fill-opacity:1;fill-rule:nonzero;stroke:none"
         id="path146" />
    </g>
    <g
       id="g148"
       transform="translate(1676.0632,832.3165)">
      <path
         d="m 0,0 14.203,-41.051 36.493,-3.019 -27.343,-22.424 7.482,-35.886 -32.458,22.51 -27.883,-23.155 5.232,36.392 -27.391,20.684 37.14,4.101 z"
         style="fill:#faa61a;fill-opacity:1;fill-rule:nonzero;stroke:none"
         id="path150" />
    </g>
    <g
       id="g152"
       transform="translate(327.7314,301.731)">
      <path
         d="m 0,0 14.203,-41.051 36.493,-3.019 -27.343,-22.424 7.482,-35.886 -32.458,22.51 -27.883,-23.155 5.232,36.392 -27.391,20.684 37.14,4.101 z"
         style="fill:#ffffff;fill-opacity:1;fill-rule:nonzero;stroke:none"
         id="path154" />
    </g>
    <g
       id="g156"
       transform="translate(278.2599,820.3259)">
      <path
         d="m 0,0 14.203,-41.051 36.493,-3.019 -27.343,-22.424 7.482,-35.886 -32.458,22.51 -27.883,-23.155 5.232,36.392 -27.391,20.684 37.14,4.101 z"
         style="fill:#f15a22;fill-opacity:1;fill-rule:nonzero;stroke:none"
         id="path158" />
    </g>
    <g
       id="g160"
       transform="translate(1615.4508,239.9114)">
      <path
         d="m 0,0 25.301,-53.791 57.759,-5.487 -43.975,-40.899 11.165,-57.741 -50.013,26.526 -50.895,-24.978 10.772,55.069 -43.174,39.098 56.81,9.304 z"
         style="fill:#ffffff;fill-opacity:1;fill-rule:nonzero;stroke:none"
         id="path162" />
    </g>
    <g
       id="g164"
       transform="translate(1192.6171,1016.6456)">
      <path
         d="m 0,0 25.301,-53.791 57.759,-5.488 -43.975,-40.898 11.165,-57.741 -50.013,26.526 -50.895,-24.978 10.772,55.069 -43.174,39.098 56.81,9.304 z"
         style="fill:#ffffff;fill-opacity:1;fill-rule:nonzero;stroke:none"
         id="path166" />
    </g>
    <g
       id="g168"
       transform="translate(854.4629,239.9114)">
      <path
         d="m 0,0 25.301,-53.791 57.759,-5.487 -43.975,-40.899 11.165,-57.741 -50.013,26.526 -50.895,-24.978 10.772,55.069 -43.174,39.098 56.81,9.304 z"
         style="fill:#faa61a;fill-opacity:1;fill-rule:nonzero;stroke:none"
         id="path170" />
    </g>
    <g
       id="g172">
      <g
         id="g174"
         clip-path="url(#clipPath178)">
        <g
           id="g180"
           transform="translate(1402.5331,760.7346)">
          <path
             d="m 0,0 h -0.003 -0.511 c -63.001,0 -120.534,-29.211 -157.283,-78.17 -19.237,6.154 -39.446,9.364 -59.778,9.417 h -0.528 c -19.301,0 -38.556,-2.863 -56.969,-8.4 -36.735,48.135 -93.86,76.995 -155.996,77.153 h -0.511 c -62.886,0 -120.386,-29.156 -157.164,-78.008 -0.73,0.232 -1.46,0.461 -2.195,0.685 -38.561,11.753 -78.901,11.443 -116.591,-0.492 -36.696,48.571 -93.985,77.673 -156.551,77.83 h -0.456 c -108.34,0 -196.62,-87.774 -196.885,-195.866 -0.282,-108.261 87.805,-196.579 196.365,-196.877 20.312,0.047 40.509,3.052 59.786,9.109 24.86,-32.658 59.666,-57.19 99.305,-69.282 44.819,-13.658 93.175,-10.868 136.166,7.861 31.193,13.591 58.174,34.917 78.42,61.591 19.111,-6.063 39.164,-9.226 59.323,-9.279 h 0.539 c 19.298,0 38.541,2.859 56.952,8.394 36.755,-48.131 93.886,-76.991 156.004,-77.151 h 0.511 c 63.004,0 120.548,29.212 157.305,78.162 19.218,-6.147 39.408,-9.358 59.745,-9.422 h 0.455 c 108.312,0 196.599,87.775 196.9,195.889 C 196.618,-88.592 108.535,-0.282 0,0"
             style="fill:#2d25fd;fill-opacity:1;fill-rule:nonzero;stroke:none"
             id="path182" />
        </g>
        <g
           id="g184"
           transform="translate(1392.5331,770.7346)">
          <path
             d="m 0,0 h -0.003 -0.511 c -63.001,0 -120.534,-29.211 -157.283,-78.17 -19.237,6.154 -39.446,9.364 -59.778,9.417 h -0.528 c -19.301,0 -38.556,-2.863 -56.969,-8.4 -36.735,48.135 -93.86,76.995 -155.996,77.153 h -0.511 c -62.886,0 -120.386,-29.156 -157.164,-78.008 -0.73,0.232 -1.46,0.461 -2.195,0.685 -38.561,11.753 -78.901,11.443 -116.591,-0.492 -36.696,48.571 -93.985,77.673 -156.551,77.83 h -0.456 c -108.34,0 -196.62,-87.774 -196.885,-195.866 -0.282,-108.261 87.805,-196.579 196.365,-196.877 20.312,0.047 40.509,3.052 59.786,9.109 24.86,-32.658 59.666,-57.19 99.305,-69.282 44.819,-13.658 93.175,-10.868 136.166,7.861 31.193,13.591 58.174,34.917 78.42,61.591 19.111,-6.063 39.164,-9.226 59.323,-9.279 h 0.539 c 19.298,0 38.541,2.859 56.952,8.394 36.755,-48.131 93.886,-76.991 156.004,-77.151 h 0.511 c 63.004,0 120.548,29.212 157.305,78.162 19.218,-6.147 39.408,-9.358 59.745,-9.422 h 0.455 c 108.312,0 196.599,87.775 196.9,195.889 C 196.618,-88.592 108.535,-0.282 0,0"
             style="fill:#00b3f0;fill-opacity:1;fill-rule:nonzero;stroke:none"
             id="path186" />
        </g>
        <g
           id="g188"
           transform="translate(1392.4717,747.1439)">
          <path
             d="m 0,0 h -0.003 -0.449 c -61.376,0 -116.86,-31.493 -148.163,-83.179 -21.631,9.408 -45.193,14.363 -68.96,14.426 h -0.467 c -22.674,0 -45.265,-4.484 -66.122,-13.057 -31.402,50.653 -86.458,81.656 -146.904,81.81 h -0.449 c -61.254,0 -116.699,-31.414 -148.051,-82.975 -5.919,2.552 -11.997,4.785 -18.185,6.676 -39.526,12.049 -81.184,9.697 -118.807,-6.452 -31.296,51.251 -86.564,82.613 -147.513,82.766 h -0.401 c -95.359,0 -173.062,-77.228 -173.295,-172.337 -0.249,-95.254 77.286,-172.962 172.837,-173.225 h 0.461 c 23.47,0 46.803,4.798 68.291,13.971 22.067,-36.202 56.091,-62.644 97.153,-75.165 16.972,-5.175 34.161,-7.654 51.089,-7.654 59.551,0 115.816,30.722 147.586,83.053 21.491,-9.265 44.873,-14.144 68.421,-14.205 h 0.475 c 22.669,0 45.249,4.479 66.103,13.046 31.424,-50.649 86.486,-81.649 146.915,-81.802 h 0.45 c 61.384,0 116.875,31.485 148.187,83.168 21.606,-9.397 45.152,-14.353 68.916,-14.429 h 0.399 c 95.338,0 173.047,77.234 173.312,172.357 C 173.058,-77.949 95.527,-0.249 0,0"
             style="fill:#ffffff;fill-opacity:1;fill-rule:nonzero;stroke:none"
             id="path190" />
        </g>
        <g
           id="g192"
           transform="translate(1392.4326,732.132)">
          <path
             d="m 0,0 c -62.379,0.156 -116.417,-35.692 -142.31,-87.914 -22.357,12.153 -47.992,19.089 -75.268,19.161 -26.235,0.071 -51.001,-6.24 -72.816,-17.455 -26.107,51.042 -79.261,86.052 -140.67,86.208 -62.28,0.156 -116.232,-35.578 -142.196,-87.644 -9.026,4.847 -18.65,8.884 -28.83,11.997 -41.791,12.736 -84.879,7.306 -120.695,-11.727 -25.892,51.668 -79.389,87.232 -141.283,87.388 -87.402,0.199 -158.436,-70.217 -158.65,-157.364 -0.228,-87.118 70.449,-157.933 157.866,-158.174 27.104,-0.071 52.641,6.68 74.983,18.592 18.721,-37.355 52.142,-67.29 95.258,-80.438 75.04,-22.87 154.273,12.821 188.021,80.736 22.243,-11.982 47.694,-18.819 74.741,-18.89 26.235,-0.071 51.001,6.24 72.802,17.441 26.121,-51.015 79.275,-86.038 140.684,-86.195 62.394,-0.156 116.432,35.678 142.339,87.9 22.357,-12.153 47.964,-19.075 75.211,-19.16 87.402,-0.199 158.422,70.26 158.664,157.378 C 158.065,-71.028 87.402,-0.227 0,0"
             style="fill:#130c0e;fill-opacity:1;fill-rule:nonzero;stroke:none"
             id="path194" />
        </g>
        <g
           id="g196"
           transform="translate(1459.5642,630.7827)">
          <path
             d="m 0,0 h -94.735 c -5.09,0.015 -9.115,-3.219 -10.747,-8.563 l -30.203,-98.787 h 94.736 c 4.704,-0.026 8.997,2.841 10.747,8.562 z m 43.979,18.895 -44.36,-145.094 h -179.25 l 44.359,145.094 z m -96.841,-98.502 h 10.757 l 4.244,13.882 h -10.757 z m -37.905,61.005 3.48,11.382 h 67.313 l -3.48,-11.382 h -11.752 c -5.021,0 -8.665,-2.629 -10.479,-8.563 l -5.717,-18.699 h 19.613 l -3.735,-12.217 h -19.613 l -7.018,-22.956 c -1.105,-3.614 1.135,-6.214 7.248,-6.214 h 10.465 l -3.457,-11.306 h -67.313 l 3.457,11.306 h 11.883 c 4.854,0 8.566,2.735 10.356,8.589 l 6.292,20.581 h -19.614 l 3.736,12.217 h 19.613 l 6.443,21.074 c 0.748,2.446 0.282,6.188 -7.125,6.188 z"
             style="fill:#f15a22;fill-opacity:1;fill-rule:nonzero;stroke:none"
             id="path198" />
        </g>
        <g
           id="g200"
           transform="translate(1457.9397,658.9039)">
          <path
             d="m 0,0 c -4.276,3.484 -8.836,6.558 -13.618,9.314 -2.567,1.488 -4.849,2.819 -4.849,4.846 0,1.551 1.586,3.135 4.88,5.86 6.399,5.29 7.253,6.017 9.471,8.235 l 3.389,-2.375 c -4.467,-3.928 -5.164,-4.467 -11.341,-9.186 -1.55,-1.172 -2.185,-1.679 -2.185,-2.345 0,-0.791 1.427,-1.583 2.345,-2.09 C -7.253,9.725 0.255,5.1 3.136,2.63 Z"
             style="fill:#f15a22;fill-opacity:1;fill-rule:nonzero;stroke:none"
             id="path202" />
        </g>
        <g
           id="g204"
           transform="translate(1388.0148,674.7286)">
          <path
             d="m 0,0 c -1.126,2.027 -1.77,2.992 -3.025,4.568 l 2.252,1.318 C 0.513,4.406 1.574,2.734 2.25,1.351 Z m -3.957,-1.929 c -1.449,2.797 -2.478,4.084 -2.991,4.76 L -4.761,4.15 C -3.088,2.123 -1.996,0 -1.705,-0.579 Z M -1.48,7.302 C -5.534,6.595 -8.396,5.243 -12.126,2.96 l -2.318,2.283 c 1.029,0.707 1.255,0.837 3.347,1.866 C -17.723,7.012 -20.491,6.948 -22.55,6.82 v 3.634 c 0.967,-0.032 4.956,-0.032 6.564,-0.032 2.283,0 12.448,0.032 14.506,0.032 z m -15.955,-8.91 c -2.7,-2.605 -2.831,-4.953 -2.831,-5.628 0,-4.182 6.176,-4.247 11.003,-4.247 3.15,0 6.304,0.13 9.423,0.58 l 0.128,-3.602 c -1.126,-0.161 -3.376,-0.451 -8.362,-0.451 -6.336,0 -9.07,0.29 -11.804,1.608 -2.221,1.061 -3.926,3.506 -3.926,6.048 0,2.958 1.417,4.985 3.763,7.622 z"
             style="fill:#f15a22;fill-opacity:1;fill-rule:nonzero;stroke:none"
             id="path206" />
        </g>
        <g
           id="g208"
           transform="translate(1272.7837,552.486)">
          <path
             d="M 0.00117795,7.11754e-4 7.7490865,25.347441 H -172.586 L -180.33391,7.11754e-4 h 65.6761 l -6.9555,-22.753192754 h -65.67862 l -7.76804,-25.409619 h 65.67611 l -2.87025,-9.393081 c -9.19687,-30.091065 -29.12509,-37.308191 -56.04153,-37.3258 h -21.04765 l -7.78312,-25.464959 h 45.83844 c 35.20267,-0.0151 50.04444,7.92651 72.115919,34.483223 6.150531,-4.922941 21.339451,-23.278943 26.350436,-34.483223 h 47.408144 c -8.595651,18.28305 -49.410526,49.75767 -61.034904,55.961028 l 4.958158,16.222812 h 66.765338 l 7.7680326,25.409619 H -73.722184 L -66.76416,7.11754e-4 Z"
             style="fill:#faa61a;fill-opacity:1;fill-rule:nonzero;stroke:none;stroke-width:2.51555"
             id="path44" />
        </g>
        <g
           id="g212"
           transform="translate(1226.3927,613.539)">
          <path
             d="m 0,0 c -0.637,-1.908 -3.56,-10.209 -4.102,-11.926 0.7,0.509 1.94,1.4 4.102,1.4 5.119,0 5.246,-4.929 5.246,-7.22 v -1.367 c 0,-0.922 0,-3.817 2.704,-3.817 2.545,0 4.197,2.673 4.865,9.668 l 3.341,-0.985 c -0.86,-7.506 -2.768,-12.181 -8.618,-12.181 -2.608,0 -4.643,1.591 -5.345,3.467 -0.443,1.177 -0.538,3.084 -0.538,3.785 v 1.081 c 0,2.035 0,4.102 -2.385,4.102 -3.594,0 -5.407,-3.879 -6.075,-5.661 -0.065,-0.158 -1.655,-6.233 -1.877,-7.091 l -3.657,1.049 c 2.481,7.505 6.932,21.912 8.333,26.428 z"
             style="fill:#faa61a;fill-opacity:1;fill-rule:nonzero;stroke:none"
             id="path214" />
        </g>
        <g
           id="g216"
           transform="translate(1167.4988,609.6877)">
          <path
             d="m 0,0 c -0.653,0.062 -1.369,0.124 -2.706,0.124 -2.797,0 -4.693,-0.747 -6.153,-1.46 -4.415,-2.208 -8.364,-6.468 -8.364,-10.663 0,-4.726 5.44,-6.405 14.393,-6.125 l -0.496,-3.699 c -6.685,0.03 -10.011,0.807 -12.841,2.269 -2.797,1.43 -4.63,4.383 -4.63,7.275 0,3.201 1.646,8.051 8.579,12.279 -4.85,-0.28 -9.667,-0.653 -14.487,-1.057 l -0.124,3.544 c 2.144,0 4.478,0.124 6.622,0.218 2.673,0.124 16.942,0.683 20.144,0.807 z"
             style="fill:#faa61a;fill-opacity:1;fill-rule:nonzero;stroke:none"
             id="path218" />
        </g>
        <g
           id="g220"
           transform="translate(1043.5178,530.1143)">
          <path
             d="m 0,0 h -7.166 c -4.693,-0.012 -9.023,2.707 -10.809,8.516 l -8.198,26.662 H -73.682 L -62.928,0 h -58.598 l 64.868,96.172 c 2.835,4.202 6.245,6.337 10.03,6.364 l 11.923,-0.001 5.395,17.645 H -87.831 L -164.854,5.989 C -167.837,1.566 -171.47,0 -174.827,0 h -7.256 l -7.798,-25.507 H 7.798 Z"
             style="fill:#f15a22;fill-opacity:1;fill-rule:nonzero;stroke:none"
             id="path222" />
        </g>
        <g
           id="g224"
           transform="translate(653.0918,533.8774)">
          <path
             d="m -619.69136,-18.607878 h 105.84951 c -12.74632,-33.718496 -39.1697,-75.984845 -98.42359,-75.984845 h -30.65707 l -7.87117,-25.744187 31.33627,0.003 c 40.55828,-0.003 61.79711,5.41598 91.9083,25.663684 4.80723,-4.47014 10.21567,-13.470794 11.11372,-25.666204 h 47.70247 c -3.83622,9.41572 -25.09518,33.157526 -39.60741,39.77595 24.64489,21.243859 32.06074,37.086823 39.98474,54.612694 2.84006,6.34926 7.02091,8.79941 10.90745,8.79941 h 7.21964 l 7.52654,24.6147028 h -169.01761 z m 152.78725,32.981438 c 6.82721,0.0327 12.15012,5.499003 12.20044,12.167738 -0.0679,6.703953 -5.49901,12.147614 -12.16774,12.20044 -6.78697,0.08805 -12.14762,-5.499002 -12.19793,-12.167738 0.0679,-6.703953 5.49649,-12.147613 12.16523,-12.20044 m 42.08523,12.167738 c 0.0679,-6.703953 -5.37575,-12.135036 -12.20045,-12.167738 -6.66873,0.05283 -12.13755,5.37574 -12.16773,12.20044 0.0503,6.668736 5.37322,12.135036 12.20044,12.167738 6.70395,0.06792 12.25326,-5.410958 12.16774,-12.20044"
             style="fill:#faa61a;fill-opacity:1;fill-rule:nonzero;stroke:none;stroke-width:2.51555"
             id="path60"
             transform="translate(619.69191,18.608599)" />
        </g>
        <g
           id="g228"
           transform="translate(569.1547,650.5598)">
          <path
             d="m 0,0 -5.803,-18.981 h 4.148 c 6.245,0 8.454,-2.724 7.363,-6.29 l -20.611,-67.418 c -5.247,-17.162 -15.905,-27.706 -31.796,-27.726 h -82.686 l -7.807,-25.536 115.628,0.001 c 23.385,-0.076 43.001,15.254 50.773,40.674 l 23.749,77.679 c 1.641,5.37 4.632,8.616 10.496,8.616 H 68.54 L 74.343,0 Z m -69.095,-91.922 h -65.323 l 5.792,18.943 h 5.376 c 5.784,0 8.907,3.389 10.525,8.682 l 11.929,39.018 c 1.09,3.565 -1.1,6.298 -7.354,6.298 l -3.967,0.001 5.803,18.98 h 65.322 l -5.803,-18.981 h -5.364 c -5.8,0 -8.923,-3.4 -10.526,-8.643 l -11.929,-39.019 c -1.096,-3.588 1.119,-6.336 7.356,-6.336 h 3.954 z"
             style="fill:#f15a22;fill-opacity:1;fill-rule:nonzero;stroke:none"
             id="path230" />
        </g>
        <g
           id="g232"
           transform="translate(1573.8586,380.4525)">
          <path
             d="M 0,0 V 20.551 L -4.79,0 h -5.187 l -4.676,20.551 V 0 h -4.903 v 24.602 h 7.66 L -7.277,5.088 h 0.057 l 4.505,19.514 H 4.846 L 4.846,0 Z m -35.403,0 v 20.238 h -7.888 v 4.349 h 20.864 v -4.349 h -7.604 V 0 Z"
             style="fill:#130c0e;fill-opacity:1;fill-rule:nonzero;stroke:none"
             id="path234" />
        </g>
      </g>
    </g>
  </g>
</svg>
