<?xml version="1.0" encoding="UTF-8" standalone="no"?>
<!-- Created with Inkscape (http://www.inkscape.org/) -->

<svg
   version="1.1"
   id="svg1"
   width="2560"
   height="1440"
   viewBox="0 0 2560 1440"
   sodipodi:docname="Rhythm Heaven (Mysikt).ai"
   xmlns:inkscape="http://www.inkscape.org/namespaces/inkscape"
   xmlns:sodipodi="http://sodipodi.sourceforge.net/DTD/sodipodi-0.dtd"
   xmlns="http://www.w3.org/2000/svg"
   xmlns:svg="http://www.w3.org/2000/svg">
  <defs
     id="defs1">
    <clipPath
       clipPathUnits="userSpaceOnUse"
       id="clipPath3">
      <path
         d="M 0,1080 H 1920 V 0 H 0 Z"
         transform="translate(-1800,-1019.2498)"
         id="path3" />
    </clipPath>
    <clipPath
       clipPathUnits="userSpaceOnUse"
       id="clipPath5">
      <path
         d="M 0,1080 H 1920 V 0 H 0 Z"
         transform="translate(-1920,-1019.9998)"
         id="path5" />
    </clipPath>
    <clipPath
       clipPathUnits="userSpaceOnUse"
       id="clipPath7">
      <path
         d="M 0,1080 H 1920 V 0 H 0 Z"
         transform="translate(-1876.1748,-660.55012)"
         id="path7" />
    </clipPath>
    <clipPath
       clipPathUnits="userSpaceOnUse"
       id="clipPath9">
      <path
         d="M 0,1080 H 1920 V 0 H 0 Z"
         transform="translate(-1876.1748,-685.74982)"
         id="path9" />
    </clipPath>
    <clipPath
       clipPathUnits="userSpaceOnUse"
       id="clipPath11">
      <path
         d="M 0,1080 H 1920 V 0 H 0 Z"
         transform="translate(-1603.2754,-1036.4001)"
         id="path11" />
    </clipPath>
    <clipPath
       clipPathUnits="userSpaceOnUse"
       id="clipPath13">
      <path
         d="M 0,1080 H 1920 V 0 H 0 Z"
         transform="translate(-1583.4249,-1096.6248)"
         id="path13" />
    </clipPath>
    <clipPath
       clipPathUnits="userSpaceOnUse"
       id="clipPath15">
      <path
         d="M 0,1080 H 1920 V 0 H 0 Z"
         transform="translate(-1824.75,-1004.7249)"
         id="path15" />
    </clipPath>
    <clipPath
       clipPathUnits="userSpaceOnUse"
       id="clipPath17">
      <path
         d="M 0,1080 H 1920 V 0 H 0 Z"
         transform="translate(-1475.917,-624.20642)"
         id="path17" />
    </clipPath>
    <clipPath
       clipPathUnits="userSpaceOnUse"
       id="clipPath19">
      <path
         d="M 0,1080 H 1920 V 0 H 0 Z"
         transform="translate(-1447.0137,-620.62142)"
         id="path19" />
    </clipPath>
    <clipPath
       clipPathUnits="userSpaceOnUse"
       id="clipPath21">
      <path
         d="M 0,1080 H 1920 V 0 H 0 Z"
         transform="translate(-1420.6173,-617.26982)"
         id="path21" />
    </clipPath>
    <clipPath
       clipPathUnits="userSpaceOnUse"
       id="clipPath23">
      <path
         d="M 0,1080 H 1920 V 0 H 0 Z"
         transform="translate(-1420.6035,-432.07011)"
         id="path23" />
    </clipPath>
    <clipPath
       clipPathUnits="userSpaceOnUse"
       id="clipPath25">
      <path
         d="M 0,1080 H 1920 V 0 H 0 Z"
         transform="translate(-1337.9142,-622.57601)"
         id="path25" />
    </clipPath>
    <clipPath
       clipPathUnits="userSpaceOnUse"
       id="clipPath27">
      <path
         d="M 0,1080 H 1920 V 0 H 0 Z"
         transform="translate(-1200.5265,-438.16191)"
         id="path27" />
    </clipPath>
    <clipPath
       clipPathUnits="userSpaceOnUse"
       id="clipPath29">
      <path
         d="M 0,1080 H 1920 V 0 H 0 Z"
         transform="translate(-1112.3379,-545.71762)"
         id="path29" />
    </clipPath>
    <clipPath
       clipPathUnits="userSpaceOnUse"
       id="clipPath31">
      <path
         d="M 0,1080 H 1920 V 0 H 0 Z"
         transform="translate(-1005.3966,-385.83481)"
         id="path31" />
    </clipPath>
    <clipPath
       clipPathUnits="userSpaceOnUse"
       id="clipPath33">
      <path
         d="M 0,1080 H 1920 V 0 H 0 Z"
         transform="translate(-891.75445,-356.87191)"
         id="path33" />
    </clipPath>
    <clipPath
       clipPathUnits="userSpaceOnUse"
       id="clipPath35">
      <path
         d="M 0,1080 H 1920 V 0 H 0 Z"
         transform="translate(-792.78864,-477.21861)"
         id="path35" />
    </clipPath>
    <clipPath
       clipPathUnits="userSpaceOnUse"
       id="clipPath37">
      <path
         d="M 0,1080 H 1920 V 0 H 0 Z"
         transform="translate(-1334.7735,-647.20592)"
         id="path37" />
    </clipPath>
    <clipPath
       clipPathUnits="userSpaceOnUse"
       id="clipPath39">
      <path
         d="M 0,1080 H 1920 V 0 H 0 Z"
         transform="translate(-1135.5166,-747.27862)"
         id="path39" />
    </clipPath>
    <clipPath
       clipPathUnits="userSpaceOnUse"
       id="clipPath41">
      <path
         d="M 0,1080 H 1920 V 0 H 0 Z"
         transform="translate(-960.64555,-724.57012)"
         id="path41" />
    </clipPath>
    <clipPath
       clipPathUnits="userSpaceOnUse"
       id="clipPath43">
      <path
         d="M 0,1080 H 1920 V 0 H 0 Z"
         transform="translate(-946.86332,-696.88361)"
         id="path43" />
    </clipPath>
    <clipPath
       clipPathUnits="userSpaceOnUse"
       id="clipPath45">
      <path
         d="M 0,1080 H 1920 V 0 H 0 Z"
         transform="translate(-789.47709,-671.83042)"
         id="path45" />
    </clipPath>
    <clipPath
       clipPathUnits="userSpaceOnUse"
       id="clipPath47">
      <path
         d="M 0,1080 H 1920 V 0 H 0 Z"
         transform="translate(-625.31452,-560.34011)"
         id="path47" />
    </clipPath>
  </defs>
  <sodipodi:namedview
     id="namedview1"
     pagecolor="#ffffff"
     bordercolor="#000000"
     borderopacity="0.25"
     inkscape:showpageshadow="2"
     inkscape:pageopacity="0.0"
     inkscape:pagecheckerboard="0"
     inkscape:deskcolor="#d1d1d1">
    <inkscape:page
       x="0"
       y="0"
       inkscape:label="1"
       id="page1"
       width="2560"
       height="1440"
       margin="0"
       bleed="0" />
  </sodipodi:namedview>
  <g
     id="layer-MC0"
     inkscape:groupmode="layer"
     inkscape:label="Layer 1">
    <path
       id="path1"
       d="M 0,0 H 1920 V 1080 H 0 Z"
       style="fill:#38f0d0;fill-opacity:1;fill-rule:nonzero;stroke:none"
       transform="matrix(1.3333333,0,0,-1.3333333,0,1440)" />
    <path
       id="path2"
       d="M 0,0 V 1.525 C -0.184,17.775 -6.05,31.667 -17.6,43.2 -29.3,54.9 -43.434,60.75 -60,60.75 -76.566,60.75 -90.717,54.9 -102.45,43.2 -113.95,31.667 -119.8,17.775 -120,1.525 V 0 c 0.2,-16.25 6.05,-30.125 17.55,-41.625 11.55,-11.55 25.442,-17.425 41.675,-17.625 h 1.55 c 16.233,0.2 30.108,6.075 41.625,17.625 C -6.05,-30.125 -0.184,-16.25 0,0 m 60.775,-59.25 h -1.55 C 42.992,-59.433 29.1,-65.283 17.55,-76.8 6.05,-88.333 0.2,-102.225 0,-118.475 V -120 c 0.2,-16.25 6.05,-30.125 17.55,-41.625 11.55,-11.55 25.442,-17.425 41.675,-17.625 h 1.55 c 16.233,0.2 30.108,6.075 41.625,17.625 11.733,11.7 17.6,25.825 17.6,42.375 0,16.567 -5.867,30.717 -17.6,42.45 -11.517,11.517 -25.392,17.367 -41.625,17.55 M -120,-120 v 1.525 c -0.184,16.25 -6.05,30.142 -17.6,41.675 -11.517,11.517 -25.392,17.367 -41.625,17.55 h -1.55 c -16.233,-0.183 -30.125,-6.033 -41.675,-17.55 -11.5,-11.533 -17.35,-25.425 -17.55,-41.675 V -120 c 0.2,-16.25 6.05,-30.125 17.55,-41.625 11.55,-11.55 25.442,-17.425 41.675,-17.625 h 1.55 c 16.233,0.2 30.108,6.075 41.625,17.625 11.55,11.5 17.416,25.375 17.6,41.625 m 60.775,-59.25 h -1.55 c -16.233,-0.183 -30.125,-6.033 -41.675,-17.55 -11.5,-11.533 -17.35,-25.425 -17.55,-41.675 V -240 c 0.2,-16.25 6.05,-30.125 17.55,-41.625 11.55,-11.55 25.442,-17.425 41.675,-17.625 h 1.55 c 16.233,0.2 30.108,6.075 41.625,17.625 11.55,11.5 17.416,25.375 17.6,41.625 v 1.525 c -0.184,16.25 -6.05,30.142 -17.6,41.675 -11.517,11.517 -25.392,17.367 -41.625,17.55 M -137.6,-316.8 c -11.517,11.517 -25.392,17.367 -41.625,17.55 h -1.55 c -16.233,-0.183 -30.125,-6.033 -41.675,-17.55 -11.5,-11.533 -17.35,-25.425 -17.55,-41.675 V -360 c 0.2,-16.25 6.05,-30.133 17.55,-41.65 11.55,-11.533 25.442,-17.4 41.675,-17.6 h 1.55 c 16.233,0.2 30.108,6.067 41.625,17.6 11.55,11.517 17.416,25.4 17.6,41.65 v 1.525 c -0.184,16.25 -6.05,30.142 -17.6,41.675 m 198.375,17.55 h -1.55 C 42.992,-299.433 29.1,-305.283 17.55,-316.8 6.05,-328.333 0.2,-342.225 0,-358.475 V -360 c 0.2,-16.25 6.05,-30.133 17.55,-41.65 11.55,-11.533 25.442,-17.4 41.675,-17.6 h 1.55 c 16.233,0.2 30.108,6.067 41.625,17.6 11.733,11.717 17.6,25.85 17.6,42.4 0,16.567 -5.867,30.717 -17.6,42.45 -11.517,11.517 -25.392,17.367 -41.625,17.55 M -240,0 v 1.525 c -0.184,16.25 -6.05,30.142 -17.6,41.675 -11.7,11.7 -25.834,17.55 -42.4,17.55 -16.566,0 -30.717,-5.85 -42.45,-17.55 C -353.95,31.667 -359.8,17.775 -360,1.525 V 0 c 0.2,-16.25 6.05,-30.125 17.55,-41.625 11.55,-11.55 25.442,-17.425 41.675,-17.625 h 1.55 c 16.233,0.2 30.108,6.075 41.625,17.625 11.55,11.5 17.416,25.375 17.6,41.625 m -240,0 v 1.525 c -0.2,16.25 -6.066,30.142 -17.6,41.675 -11.7,11.7 -25.834,17.55 -42.4,17.55 -16.566,0 -30.717,-5.85 -42.45,-17.55 C -593.967,31.667 -599.816,17.775 -600,1.525 V 0 c 0.184,-16.25 6.033,-30.125 17.55,-41.625 11.55,-11.55 25.442,-17.425 41.675,-17.625 h 1.55 c 16.233,0.2 30.108,6.075 41.625,17.625 11.534,11.5 17.4,25.375 17.6,41.625 m 0,-118.475 V -120 c 0.2,-16.25 6.05,-30.125 17.55,-41.625 11.55,-11.55 25.442,-17.425 41.675,-17.625 h 1.55 c 16.233,0.2 30.108,6.075 41.625,17.625 11.55,11.5 17.416,25.375 17.6,41.625 v 1.525 c -0.184,16.25 -6.05,30.142 -17.6,41.675 -11.517,11.517 -25.392,17.367 -41.625,17.55 h -1.55 c -16.233,-0.183 -30.125,-6.033 -41.675,-17.55 -11.5,-11.533 -17.35,-25.425 -17.55,-41.675 M -480,-240 v 1.525 c -0.2,16.25 -6.066,30.142 -17.6,41.675 -11.517,11.517 -25.392,17.367 -41.625,17.55 h -1.55 c -16.233,-0.183 -30.125,-6.033 -41.675,-17.55 -11.517,-11.533 -17.366,-25.425 -17.55,-41.675 V -240 c 0.184,-16.25 6.033,-30.125 17.55,-41.625 11.55,-11.55 25.442,-17.425 41.675,-17.625 h 1.55 c 16.233,0.2 30.108,6.075 41.625,17.625 11.534,11.5 17.4,25.375 17.6,41.625 m 120,1.525 V -240 c 0.2,-16.25 6.05,-30.125 17.55,-41.625 11.55,-11.55 25.442,-17.425 41.675,-17.625 h 1.55 c 16.233,0.2 30.108,6.075 41.625,17.625 11.55,11.5 17.416,25.375 17.6,41.625 v 1.525 c -0.184,16.25 -6.05,30.142 -17.6,41.675 -11.517,11.517 -25.392,17.367 -41.625,17.55 h -1.55 c -16.233,-0.183 -30.125,-6.033 -41.675,-17.55 -11.5,-11.533 -17.35,-25.425 -17.55,-41.675 m -59.225,-60.775 h -1.55 c -16.233,-0.183 -30.125,-6.033 -41.675,-17.55 -11.5,-11.533 -17.35,-25.425 -17.55,-41.675 V -360 c 0.2,-16.25 6.05,-30.133 17.55,-41.65 11.55,-11.533 25.442,-17.4 41.675,-17.6 h 1.55 c 16.233,0.2 30.108,6.067 41.625,17.6 11.55,11.517 17.416,25.4 17.6,41.65 v 1.525 c -0.184,16.25 -6.05,30.142 -17.6,41.675 -11.517,11.517 -25.392,17.367 -41.625,17.55 m 120,-120 h -1.55 c -16.233,-0.183 -30.125,-6.033 -41.675,-17.55 -11.5,-11.533 -17.35,-25.425 -17.55,-41.675 V -480 c 0.2,-16.25 6.05,-30.133 17.55,-41.649 11.55,-11.535 25.442,-17.401 41.675,-17.601 h 1.55 c 16.233,0.2 30.108,6.066 41.625,17.601 11.55,11.516 17.416,25.399 17.6,41.649 v 1.525 c -0.184,16.25 -6.05,30.142 -17.6,41.675 -11.517,11.517 -25.392,17.367 -41.625,17.55 M -480,-480 v 1.525 c -0.2,16.25 -6.066,30.142 -17.6,41.675 -11.517,11.517 -25.392,17.367 -41.625,17.55 h -1.55 c -16.233,-0.183 -30.125,-6.033 -41.675,-17.55 -11.517,-11.533 -17.366,-25.425 -17.55,-41.675 V -480 c 0.184,-16.25 6.033,-30.133 17.55,-41.649 11.55,-11.535 25.442,-17.401 41.675,-17.601 h 1.55 c 16.233,0.2 30.108,6.066 41.625,17.601 11.534,11.516 17.4,25.399 17.6,41.649 m 60.775,-59.25 h -1.55 c -16.233,-0.184 -30.125,-6.033 -41.675,-17.55 -11.5,-11.533 -17.35,-25.425 -17.55,-41.675 V -600 c 0.2,-16.25 6.05,-30.133 17.55,-41.649 11.55,-11.535 25.442,-17.401 41.675,-17.601 h 1.55 c 16.233,0.2 30.108,6.066 41.625,17.601 11.55,11.516 17.416,25.399 17.6,41.649 v 1.525 c -0.184,16.25 -6.05,30.142 -17.6,41.675 -11.517,11.517 -25.392,17.366 -41.625,17.55 M -480,-720 v 1.525 c -0.2,16.25 -6.066,30.142 -17.6,41.675 -11.517,11.517 -25.392,17.366 -41.625,17.55 h -1.55 c -16.233,-0.184 -30.125,-6.033 -41.675,-17.55 -11.517,-11.533 -17.366,-25.425 -17.55,-41.675 V -720 c 0.184,-16.25 6.033,-30.133 17.55,-41.649 11.55,-11.535 25.442,-17.401 41.675,-17.601 h 1.55 c 16.233,0.2 30.108,6.066 41.625,17.601 11.534,11.516 17.4,25.399 17.6,41.649 m 120,1.525 V -720 c 0.2,-16.25 6.05,-30.133 17.55,-41.649 11.55,-11.535 25.442,-17.401 41.675,-17.601 h 1.55 c 16.233,0.2 30.108,6.066 41.625,17.601 11.55,11.516 17.416,25.399 17.6,41.649 v 1.525 c -0.184,16.25 -6.05,30.142 -17.6,41.675 -11.517,11.517 -25.392,17.366 -41.625,17.55 h -1.55 c -16.233,-0.184 -30.125,-6.033 -41.675,-17.55 -11.5,-11.533 -17.35,-25.425 -17.55,-41.675 m 120,120 V -600 c 0.2,-16.25 6.05,-30.133 17.55,-41.649 11.55,-11.535 25.442,-17.401 41.675,-17.601 h 1.55 c 16.233,0.2 30.108,6.066 41.625,17.601 11.55,11.516 17.416,25.399 17.6,41.649 v 1.525 c -0.184,16.25 -6.05,30.142 -17.6,41.675 -11.517,11.517 -25.392,17.366 -41.625,17.55 h -1.55 c -16.233,-0.184 -30.125,-6.033 -41.675,-17.55 -11.5,-11.533 -17.35,-25.425 -17.55,-41.675 M 0,-480 v 1.525 c -0.184,16.25 -6.05,30.142 -17.6,41.675 -11.517,11.517 -25.392,17.367 -41.625,17.55 h -1.55 c -16.233,-0.183 -30.125,-6.033 -41.675,-17.55 -11.5,-11.533 -17.35,-25.425 -17.55,-41.675 V -480 c 0.2,-16.25 6.05,-30.133 17.55,-41.649 11.55,-11.535 25.442,-17.401 41.675,-17.601 h 1.55 c 16.233,0.2 30.108,6.066 41.625,17.601 C -6.05,-510.133 -0.184,-496.25 0,-480 M -120,-718.475 V -720 c 0.2,-16.25 6.05,-30.133 17.55,-41.649 11.55,-11.535 25.442,-17.401 41.675,-17.601 h 1.55 c 16.233,0.2 30.108,6.066 41.625,17.601 11.55,11.516 17.416,25.399 17.6,41.649 v 1.525 c -0.184,16.25 -6.05,30.142 -17.6,41.675 -11.517,11.517 -25.392,17.366 -41.625,17.55 h -1.55 c -16.233,-0.184 -30.125,-6.033 -41.675,-17.55 -11.5,-11.533 -17.35,-25.425 -17.55,-41.675 m 240,119.225 c 0,16.566 -5.867,30.717 -17.6,42.45 -11.517,11.517 -25.392,17.366 -41.625,17.55 h -1.55 C 42.992,-539.434 29.1,-545.283 17.55,-556.8 6.05,-568.333 0.2,-582.225 0,-598.475 V -600 c 0.2,-16.25 6.05,-30.133 17.55,-41.649 11.55,-11.535 25.442,-17.401 41.675,-17.601 h 1.55 c 16.233,0.2 30.108,6.066 41.625,17.601 11.733,11.715 17.6,25.849 17.6,42.399 m -59.225,-180 h -1.55 C 42.992,-779.434 29.1,-785.283 17.55,-796.8 6.05,-808.333 0.2,-822.225 0,-838.475 V -840 c 0.2,-16.25 6.05,-30.133 17.55,-41.649 11.55,-11.535 25.442,-17.401 41.675,-17.601 h 1.55 c 16.233,0.2 30.108,6.066 41.625,17.601 11.733,11.715 17.6,25.849 17.6,42.399 0,16.566 -5.867,30.717 -17.6,42.45 -11.517,11.517 -25.392,17.366 -41.625,17.55 M -137.6,-796.8 c -11.517,11.517 -25.392,17.366 -41.625,17.55 h -1.55 c -16.233,-0.184 -30.125,-6.033 -41.675,-17.55 -11.5,-11.533 -17.35,-25.425 -17.55,-41.675 V -840 c 0.2,-16.25 6.05,-30.133 17.55,-41.649 11.55,-11.535 25.442,-17.401 41.675,-17.601 h 1.55 c 16.233,0.2 30.108,6.066 41.625,17.601 11.55,11.516 17.416,25.399 17.6,41.649 v 1.525 c -0.184,16.25 -6.05,30.142 -17.6,41.675 m 78.375,-102.45 h -1.55 c -16.233,-0.184 -30.125,-6.033 -41.675,-17.55 -11.5,-11.533 -17.35,-25.425 -17.55,-41.675 V -960 c 0.2,-16.25 6.05,-30.133 17.55,-41.649 11.55,-11.534 25.442,-17.401 41.675,-17.601 h 1.55 c 16.233,0.2 30.108,6.067 41.625,17.601 11.55,11.516 17.416,25.399 17.6,41.649 v 1.525 c -0.184,16.25 -6.05,30.142 -17.6,41.675 -11.517,11.517 -25.392,17.366 -41.625,17.55 m -240,0 h -1.55 c -16.233,-0.184 -30.125,-6.033 -41.675,-17.55 -11.5,-11.533 -17.35,-25.425 -17.55,-41.675 V -960 c 0.2,-16.25 6.05,-30.133 17.55,-41.649 11.55,-11.534 25.442,-17.401 41.675,-17.601 h 1.55 c 16.233,0.2 30.108,6.067 41.625,17.601 11.55,11.516 17.416,25.399 17.6,41.649 v 1.525 c -0.184,16.25 -6.05,30.142 -17.6,41.675 -11.517,11.517 -25.392,17.366 -41.625,17.55 m -120,120 h -1.55 c -16.233,-0.184 -30.125,-6.033 -41.675,-17.55 -11.5,-11.533 -17.35,-25.425 -17.55,-41.675 V -840 c 0.2,-16.25 6.05,-30.133 17.55,-41.649 11.55,-11.535 25.442,-17.401 41.675,-17.601 h 1.55 c 16.233,0.2 30.108,6.066 41.625,17.601 11.55,11.516 17.416,25.399 17.6,41.649 v 1.525 c -0.184,16.25 -6.05,30.142 -17.6,41.675 -11.517,11.517 -25.392,17.366 -41.625,17.55 M -480,-960 v 1.525 c -0.2,16.25 -6.066,30.142 -17.6,41.675 -11.517,11.517 -25.392,17.366 -41.625,17.55 h -1.55 c -16.233,-0.184 -30.125,-6.033 -41.675,-17.55 -11.517,-11.533 -17.366,-25.425 -17.55,-41.675 V -960 c 0.184,-16.25 6.033,-30.133 17.55,-41.649 11.55,-11.534 25.442,-17.401 41.675,-17.601 h 1.55 c 16.233,0.2 30.108,6.067 41.625,17.601 11.534,11.516 17.4,25.399 17.6,41.649 m -179.225,900.75 h -1.55 c -16.233,-0.183 -30.125,-6.033 -41.675,-17.55 -11.517,-11.533 -17.366,-25.425 -17.55,-41.675 V -120 c 0.184,-16.25 6.033,-30.125 17.55,-41.625 11.55,-11.55 25.442,-17.425 41.675,-17.625 h 1.55 c 16.233,0.2 30.108,6.075 41.625,17.625 11.534,11.5 17.4,25.375 17.6,41.625 v 1.525 c -0.2,16.25 -6.066,30.142 -17.6,41.675 -11.517,11.517 -25.392,17.367 -41.625,17.55 M -720,0 v 1.525 c -0.2,16.25 -6.066,30.142 -17.6,41.675 -11.7,11.7 -25.834,17.55 -42.4,17.55 -16.566,0 -30.717,-5.85 -42.45,-17.55 C -833.967,31.667 -839.816,17.775 -840,1.525 V 0 c 0.184,-16.25 6.033,-30.125 17.55,-41.625 11.55,-11.55 25.442,-17.425 41.675,-17.625 h 1.55 c 16.233,0.2 30.108,6.075 41.625,17.625 11.534,11.5 17.4,25.375 17.6,41.625 m -59.225,-179.25 h -1.55 c -16.233,-0.183 -30.125,-6.033 -41.675,-17.55 -11.517,-11.533 -17.366,-25.425 -17.55,-41.675 V -240 c 0.184,-16.25 6.033,-30.125 17.55,-41.625 11.55,-11.55 25.442,-17.425 41.675,-17.625 h 1.55 c 16.233,0.2 30.108,6.075 41.625,17.625 11.534,11.5 17.4,25.375 17.6,41.625 v 1.525 c -0.2,16.25 -6.066,30.142 -17.6,41.675 -11.517,11.517 -25.392,17.367 -41.625,17.55 m 120,-120 h -1.55 c -16.233,-0.183 -30.125,-6.033 -41.675,-17.55 -11.517,-11.533 -17.366,-25.425 -17.55,-41.675 V -360 c 0.184,-16.25 6.033,-30.133 17.55,-41.65 11.55,-11.533 25.442,-17.4 41.675,-17.6 h 1.55 c 16.233,0.2 30.108,6.067 41.625,17.6 11.534,11.517 17.4,25.4 17.6,41.65 v 1.525 c -0.2,16.25 -6.066,30.142 -17.6,41.675 -11.517,11.517 -25.392,17.367 -41.625,17.55 M -960,0 v 1.525 c -0.2,16.25 -6.066,30.142 -17.6,41.675 -11.7,11.7 -25.833,17.55 -42.4,17.55 -16.566,0 -30.717,-5.85 -42.45,-17.55 -11.517,-11.533 -17.366,-25.425 -17.55,-41.675 V 0 c 0.184,-16.25 6.033,-30.125 17.55,-41.625 11.55,-11.55 25.442,-17.425 41.675,-17.625 h 1.55 c 16.233,0.2 30.108,6.075 41.625,17.625 11.534,11.5 17.4,25.375 17.6,41.625 m 0,-118.475 V -120 c 0.184,-16.25 6.033,-30.125 17.55,-41.625 11.55,-11.55 25.442,-17.425 41.675,-17.625 h 1.55 c 16.233,0.2 30.108,6.075 41.625,17.625 11.534,11.5 17.4,25.375 17.6,41.625 v 1.525 c -0.2,16.25 -6.066,30.142 -17.6,41.675 -11.517,11.517 -25.392,17.367 -41.625,17.55 h -1.55 c -16.233,-0.183 -30.125,-6.033 -41.675,-17.55 -11.517,-11.533 -17.366,-25.425 -17.55,-41.675 m -179.225,59.225 h -1.55 c -16.233,-0.183 -30.125,-6.033 -41.675,-17.55 -11.517,-11.533 -17.366,-25.425 -17.55,-41.675 V -120 c 0.184,-16.25 6.033,-30.125 17.55,-41.625 11.55,-11.55 25.442,-17.425 41.675,-17.625 h 1.55 c 16.233,0.2 30.108,6.075 41.625,17.625 11.534,11.5 17.4,25.375 17.6,41.625 v 1.525 c -0.2,16.25 -6.066,30.142 -17.6,41.675 -11.517,11.517 -25.392,17.367 -41.625,17.55 m 120,-120 h -1.55 c -16.233,-0.183 -30.125,-6.033 -41.675,-17.55 -11.517,-11.533 -17.366,-25.425 -17.55,-41.675 V -240 c 0.184,-16.25 6.033,-30.125 17.55,-41.625 11.55,-11.55 25.442,-17.425 41.675,-17.625 h 1.55 c 16.233,0.2 30.108,6.075 41.625,17.625 11.534,11.5 17.4,25.375 17.6,41.625 v 1.525 c -0.2,16.25 -6.066,30.142 -17.6,41.675 -11.517,11.517 -25.392,17.367 -41.625,17.55 m -120,-120 h -1.55 c -16.233,-0.183 -30.125,-6.033 -41.675,-17.55 -11.517,-11.533 -17.366,-25.425 -17.55,-41.675 V -360 c 0.184,-16.25 6.033,-30.133 17.55,-41.65 11.55,-11.533 25.442,-17.4 41.675,-17.6 h 1.55 c 16.233,0.2 30.108,6.067 41.625,17.6 11.534,11.517 17.4,25.4 17.6,41.65 v 1.525 c -0.2,16.25 -6.066,30.142 -17.6,41.675 -11.517,11.517 -25.392,17.367 -41.625,17.55 m 240,0 h -1.55 c -16.233,-0.183 -30.125,-6.033 -41.675,-17.55 -11.517,-11.533 -17.366,-25.425 -17.55,-41.675 V -360 c 0.184,-16.25 6.033,-30.133 17.55,-41.65 11.55,-11.533 25.442,-17.4 41.675,-17.6 h 1.55 c 16.233,0.2 30.108,6.067 41.625,17.6 11.534,11.517 17.4,25.4 17.6,41.65 v 1.525 c -0.2,16.25 -6.066,30.142 -17.6,41.675 -11.517,11.517 -25.392,17.367 -41.625,17.55 M -960,-480 v 1.525 c -0.2,16.25 -6.066,30.142 -17.6,41.675 -11.517,11.517 -25.392,17.367 -41.625,17.55 h -1.55 c -16.233,-0.183 -30.125,-6.033 -41.675,-17.55 -11.517,-11.533 -17.366,-25.425 -17.55,-41.675 V -480 c 0.184,-16.25 6.033,-30.133 17.55,-41.649 11.55,-11.535 25.442,-17.401 41.675,-17.601 h 1.55 c 16.233,0.2 30.108,6.066 41.625,17.601 11.534,11.516 17.4,25.399 17.6,41.649 m 120,1.525 V -480 c 0.184,-16.25 6.033,-30.133 17.55,-41.649 11.55,-11.535 25.442,-17.401 41.675,-17.601 h 1.55 c 16.233,0.2 30.108,6.066 41.625,17.601 11.534,11.516 17.4,25.399 17.6,41.649 v 1.525 c -0.2,16.25 -6.066,30.142 -17.6,41.675 -11.517,11.517 -25.392,17.367 -41.625,17.55 h -1.55 c -16.233,-0.183 -30.125,-6.033 -41.675,-17.55 -11.517,-11.533 -17.366,-25.425 -17.55,-41.675 m -299.225,-60.775 h -1.55 c -16.233,-0.184 -30.125,-6.033 -41.675,-17.55 -11.517,-11.533 -17.366,-25.425 -17.55,-41.675 V -600 c 0.184,-16.25 6.033,-30.133 17.55,-41.649 11.55,-11.535 25.442,-17.401 41.675,-17.601 h 1.55 c 16.233,0.2 30.108,6.066 41.625,17.601 11.534,11.516 17.4,25.399 17.6,41.649 v 1.525 c -0.2,16.25 -6.066,30.142 -17.6,41.675 -11.517,11.517 -25.392,17.366 -41.625,17.55 M -1080,-718.475 V -720 c 0.184,-16.25 6.033,-30.133 17.55,-41.649 11.55,-11.535 25.442,-17.401 41.675,-17.601 h 1.55 c 16.233,0.2 30.108,6.066 41.625,17.601 11.534,11.516 17.4,25.399 17.6,41.649 v 1.525 c -0.2,16.25 -6.066,30.142 -17.6,41.675 -11.517,11.517 -25.392,17.366 -41.625,17.55 h -1.55 c -16.233,-0.184 -30.125,-6.033 -41.675,-17.55 -11.517,-11.533 -17.366,-25.425 -17.55,-41.675 m 180.775,179.225 h -1.55 c -16.233,-0.184 -30.125,-6.033 -41.675,-17.55 -11.517,-11.533 -17.366,-25.425 -17.55,-41.675 V -600 c 0.184,-16.25 6.033,-30.133 17.55,-41.649 11.55,-11.535 25.442,-17.401 41.675,-17.601 h 1.55 c 16.233,0.2 30.108,6.066 41.625,17.601 11.534,11.516 17.4,25.399 17.6,41.649 v 1.525 c -0.2,16.25 -6.066,30.142 -17.6,41.675 -11.517,11.517 -25.392,17.366 -41.625,17.55 M -840,-718.475 V -720 c 0.184,-16.25 6.033,-30.133 17.55,-41.649 11.55,-11.535 25.442,-17.401 41.675,-17.601 h 1.55 c 16.233,0.2 30.108,6.066 41.625,17.601 11.534,11.516 17.4,25.399 17.6,41.649 v 1.525 c -0.2,16.25 -6.066,30.142 -17.6,41.675 -11.517,11.517 -25.392,17.366 -41.625,17.55 h -1.55 c -16.233,-0.184 -30.125,-6.033 -41.675,-17.55 -11.517,-11.533 -17.366,-25.425 -17.55,-41.675 m 120,120 V -600 c 0.184,-16.25 6.033,-30.133 17.55,-41.649 11.55,-11.535 25.442,-17.401 41.675,-17.601 h 1.55 c 16.233,0.2 30.108,6.066 41.625,17.601 11.534,11.516 17.4,25.399 17.6,41.649 v 1.525 c -0.2,16.25 -6.066,30.142 -17.6,41.675 -11.517,11.517 -25.392,17.366 -41.625,17.55 h -1.55 c -16.233,-0.184 -30.125,-6.033 -41.675,-17.55 -11.517,-11.533 -17.366,-25.425 -17.55,-41.675 M -1200,0 v 1.525 c -0.2,16.25 -6.066,30.142 -17.6,41.675 -11.7,11.7 -25.833,17.55 -42.4,17.55 -16.566,0 -30.717,-5.85 -42.45,-17.55 -11.517,-11.533 -17.366,-25.425 -17.55,-41.675 V 0 c 0.184,-16.25 6.033,-30.125 17.55,-41.625 11.55,-11.55 25.442,-17.425 41.675,-17.625 h 1.55 c 16.233,0.2 30.108,6.075 41.625,17.625 11.534,11.5 17.4,25.375 17.6,41.625 m -240,0 v 1.525 c -0.2,16.25 -6.066,30.142 -17.6,41.675 -11.7,11.7 -25.833,17.55 -42.4,17.55 -16.567,0 -30.717,-5.85 -42.45,-17.55 -11.517,-11.533 -17.367,-25.425 -17.55,-41.675 L -1560,0 c 0.183,-16.25 6.033,-30.125 17.55,-41.625 11.55,-11.55 25.442,-17.425 41.675,-17.625 h 1.55 c 16.233,0.2 30.108,6.075 41.625,17.625 11.534,11.5 17.4,25.375 17.6,41.625 m 0,-118.475 V -120 c 0.184,-16.25 6.033,-30.125 17.55,-41.625 11.55,-11.55 25.442,-17.425 41.675,-17.625 h 1.55 c 16.233,0.2 30.108,6.075 41.625,17.625 11.534,11.5 17.4,25.375 17.6,41.625 v 1.525 c -0.2,16.25 -6.066,30.142 -17.6,41.675 -11.517,11.517 -25.392,17.367 -41.625,17.55 h -1.55 c -16.233,-0.183 -30.125,-6.033 -41.675,-17.55 -11.517,-11.533 -17.366,-25.425 -17.55,-41.675 m 0,-121.525 v 1.525 c -0.2,16.25 -6.066,30.142 -17.6,41.675 -11.517,11.517 -25.392,17.367 -41.625,17.55 h -1.55 c -16.233,-0.183 -30.125,-6.033 -41.675,-17.55 -11.517,-11.533 -17.367,-25.425 -17.55,-41.675 V -240 c 0.183,-16.25 6.033,-30.125 17.55,-41.625 11.55,-11.55 25.442,-17.425 41.675,-17.625 h 1.55 c 16.233,0.2 30.108,6.075 41.625,17.625 11.534,11.5 17.4,25.375 17.6,41.625 m 120,1.525 V -240 c 0.184,-16.25 6.033,-30.125 17.55,-41.625 11.55,-11.55 25.442,-17.425 41.675,-17.625 h 1.55 c 16.233,0.2 30.108,6.075 41.625,17.625 11.534,11.5 17.4,25.375 17.6,41.625 v 1.525 c -0.2,16.25 -6.066,30.142 -17.6,41.675 -11.517,11.517 -25.392,17.367 -41.625,17.55 h -1.55 c -16.233,-0.183 -30.125,-6.033 -41.675,-17.55 -11.517,-11.533 -17.366,-25.425 -17.55,-41.675 m -59.225,-60.775 h -1.55 c -16.233,-0.183 -30.125,-6.033 -41.675,-17.55 -11.517,-11.533 -17.366,-25.425 -17.55,-41.675 V -360 c 0.184,-16.25 6.033,-30.133 17.55,-41.65 11.55,-11.533 25.442,-17.4 41.675,-17.6 h 1.55 c 16.233,0.2 30.108,6.067 41.625,17.6 11.534,11.517 17.4,25.4 17.6,41.65 v 1.525 c -0.2,16.25 -6.066,30.142 -17.6,41.675 -11.517,11.517 -25.392,17.367 -41.625,17.55 m -240,240 h -1.55 c -16.233,-0.183 -30.125,-6.033 -41.675,-17.55 -11.517,-11.533 -17.367,-25.425 -17.55,-41.675 V -120 c 0.183,-16.25 6.033,-30.125 17.55,-41.625 11.55,-11.55 25.442,-17.425 41.675,-17.625 h 1.55 c 16.233,0.2 30.108,6.075 41.625,17.625 11.533,11.5 17.4,25.375 17.6,41.625 v 1.525 c -0.2,16.25 -6.067,30.142 -17.6,41.675 -11.517,11.517 -25.392,17.367 -41.625,17.55 M -1680,0 v 1.525 c -0.2,16.25 -6.067,30.142 -17.6,41.675 -11.7,11.7 -25.833,17.55 -42.4,17.55 -16.567,0 -30.717,-5.85 -42.45,-17.55 -11.7,-11.733 -17.55,-25.883 -17.55,-42.45 0,-16.55 5.85,-30.675 17.55,-42.375 11.55,-11.55 25.442,-17.425 41.675,-17.625 h 1.55 c 16.233,0.2 30.108,6.075 41.625,17.625 11.533,11.5 17.4,25.375 17.6,41.625 m -59.225,-179.25 h -1.55 c -16.233,-0.183 -30.125,-6.033 -41.675,-17.55 -11.7,-11.733 -17.55,-25.883 -17.55,-42.45 0,-16.55 5.85,-30.675 17.55,-42.375 11.55,-11.55 25.442,-17.425 41.675,-17.625 h 1.55 c 16.233,0.2 30.108,6.075 41.625,17.625 11.533,11.5 17.4,25.375 17.6,41.625 v 1.525 c -0.2,16.25 -6.067,30.142 -17.6,41.675 -11.517,11.517 -25.392,17.367 -41.625,17.55 m 120,-120 h -1.55 c -16.233,-0.183 -30.125,-6.033 -41.675,-17.55 -11.517,-11.533 -17.367,-25.425 -17.55,-41.675 V -360 c 0.183,-16.25 6.033,-30.133 17.55,-41.65 11.55,-11.533 25.442,-17.4 41.675,-17.6 h 1.55 c 16.233,0.2 30.108,6.067 41.625,17.6 11.533,11.517 17.4,25.4 17.6,41.65 v 1.525 c -0.2,16.25 -6.067,30.142 -17.6,41.675 -11.517,11.517 -25.392,17.367 -41.625,17.55 m 120,-120 h -1.55 c -16.233,-0.183 -30.125,-6.033 -41.675,-17.55 -11.517,-11.533 -17.367,-25.425 -17.55,-41.675 V -480 c 0.183,-16.25 6.033,-30.133 17.55,-41.649 11.55,-11.535 25.442,-17.401 41.675,-17.601 h 1.55 c 16.233,0.2 30.108,6.066 41.625,17.601 11.534,11.516 17.4,25.399 17.6,41.649 v 1.525 c -0.2,16.25 -6.066,30.142 -17.6,41.675 -11.517,11.517 -25.392,17.367 -41.625,17.55 m -240,0 h -1.55 c -16.233,-0.183 -30.125,-6.033 -41.675,-17.55 -11.7,-11.733 -17.55,-25.883 -17.55,-42.45 0,-3.429 0.25,-6.754 0.75,-9.975 1.924,-12.327 7.524,-23.135 16.8,-32.424 11.55,-11.535 25.442,-17.401 41.675,-17.601 h 1.55 c 3.742,0.046 7.359,0.396 10.85,1.05 11.655,2.159 21.913,7.676 30.775,16.551 11.533,11.516 17.4,25.399 17.6,41.649 v 1.525 c -0.2,16.25 -6.067,30.142 -17.6,41.675 -11.517,11.517 -25.392,17.367 -41.625,17.55 M -1680,-598.475 V -600 c 0.183,-16.25 6.033,-30.133 17.55,-41.649 11.55,-11.535 25.442,-17.401 41.675,-17.601 h 1.55 c 16.233,0.2 30.108,6.066 41.625,17.601 11.533,11.516 17.4,25.399 17.6,41.649 v 1.525 c -0.2,16.25 -6.067,30.142 -17.6,41.675 -11.517,11.517 -25.392,17.366 -41.625,17.55 h -1.55 c -16.233,-0.184 -30.125,-6.033 -41.675,-17.55 -11.517,-11.533 -17.367,-25.425 -17.55,-41.675 m -48.375,-61.799 c -3.491,0.64 -7.108,0.982 -10.85,1.024 h -1.55 c -16.233,-0.184 -30.125,-6.033 -41.675,-17.55 -11.7,-11.733 -17.55,-25.884 -17.55,-42.45 0,-16.55 5.85,-30.684 17.55,-42.399 6.435,-6.426 13.593,-11.093 21.475,-14 6.277,-2.312 13.011,-3.512 20.2,-3.601 h 1.55 c 16.233,0.2 30.108,6.066 41.625,17.601 11.533,11.516 17.4,25.399 17.6,41.649 v 1.525 c -0.2,16.25 -6.067,30.142 -17.6,41.675 -8.862,8.863 -19.12,14.37 -30.775,16.526 M -1560,-718.475 V -720 c 0.183,-16.25 6.033,-30.133 17.55,-41.649 11.55,-11.535 25.442,-17.401 41.675,-17.601 h 1.55 c 16.233,0.2 30.108,6.066 41.625,17.601 11.534,11.516 17.4,25.399 17.6,41.649 v 1.525 c -0.2,16.25 -6.066,30.142 -17.6,41.675 -11.517,11.517 -25.392,17.366 -41.625,17.55 h -1.55 c -16.233,-0.184 -30.125,-6.033 -41.675,-17.55 -11.517,-11.533 -17.367,-25.425 -17.55,-41.675 m 300.775,299.225 h -1.55 c -16.233,-0.183 -30.125,-6.033 -41.675,-17.55 -11.517,-11.533 -17.366,-25.425 -17.55,-41.675 V -480 c 0.184,-16.25 6.033,-30.133 17.55,-41.649 11.55,-11.535 25.442,-17.401 41.675,-17.601 h 1.55 c 16.233,0.2 30.108,6.066 41.625,17.601 11.534,11.516 17.4,25.399 17.6,41.649 v 1.525 c -0.2,16.25 -6.066,30.142 -17.6,41.675 -11.517,11.517 -25.392,17.367 -41.625,17.55 m -120,-120 h -1.55 c -16.233,-0.184 -30.125,-6.033 -41.675,-17.55 -11.517,-11.533 -17.366,-25.425 -17.55,-41.675 V -600 c 0.184,-16.25 6.033,-30.133 17.55,-41.649 11.55,-11.535 25.442,-17.401 41.675,-17.601 h 1.55 c 16.233,0.2 30.108,6.066 41.625,17.601 11.534,11.516 17.4,25.399 17.6,41.649 v 1.525 c -0.2,16.25 -6.066,30.142 -17.6,41.675 -11.517,11.517 -25.392,17.366 -41.625,17.55 M -1320,-718.475 V -720 c 0.184,-16.25 6.033,-30.133 17.55,-41.649 11.55,-11.535 25.442,-17.401 41.675,-17.601 h 1.55 c 16.233,0.2 30.108,6.066 41.625,17.601 11.534,11.516 17.4,25.399 17.6,41.649 v 1.525 c -0.2,16.25 -6.066,30.142 -17.6,41.675 -11.517,11.517 -25.392,17.366 -41.625,17.55 h -1.55 c -16.233,-0.184 -30.125,-6.033 -41.675,-17.55 -11.517,-11.533 -17.366,-25.425 -17.55,-41.675 m 60.775,-180.775 h -1.55 c -16.233,-0.184 -30.125,-6.033 -41.675,-17.55 -11.517,-11.533 -17.366,-25.425 -17.55,-41.675 V -960 c 0.184,-16.25 6.033,-30.133 17.55,-41.649 11.55,-11.534 25.442,-17.401 41.675,-17.601 h 1.55 c 16.233,0.2 30.108,6.067 41.625,17.601 11.534,11.516 17.4,25.399 17.6,41.649 v 1.525 c -0.2,16.25 -6.066,30.142 -17.6,41.675 -11.517,11.517 -25.392,17.366 -41.625,17.55 m 59.225,60.775 V -840 c 0.184,-16.25 6.033,-30.133 17.55,-41.649 11.55,-11.535 25.442,-17.401 41.675,-17.601 h 1.55 c 16.233,0.2 30.108,6.066 41.625,17.601 11.534,11.516 17.4,25.399 17.6,41.649 v 1.525 c -0.2,16.25 -6.066,30.142 -17.6,41.675 -11.517,11.517 -25.392,17.366 -41.625,17.55 h -1.55 c -16.233,-0.184 -30.125,-6.033 -41.675,-17.55 -11.517,-11.533 -17.366,-25.425 -17.55,-41.675 m -179.225,59.225 h -1.55 c -16.233,-0.184 -30.125,-6.033 -41.675,-17.55 -11.517,-11.533 -17.366,-25.425 -17.55,-41.675 V -840 c 0.184,-16.25 6.033,-30.133 17.55,-41.649 11.55,-11.535 25.442,-17.401 41.675,-17.601 h 1.55 c 16.233,0.2 30.108,6.066 41.625,17.601 11.534,11.516 17.4,25.399 17.6,41.649 v 1.525 c -0.2,16.25 -6.066,30.142 -17.6,41.675 -11.517,11.517 -25.392,17.366 -41.625,17.55 M -1440,-960 v 1.525 c -0.2,16.25 -6.066,30.142 -17.6,41.675 -11.517,11.517 -25.392,17.366 -41.625,17.55 h -1.55 c -16.233,-0.184 -30.125,-6.033 -41.675,-17.55 -11.517,-11.533 -17.367,-25.425 -17.55,-41.675 V -960 c 0.183,-16.25 6.033,-30.133 17.55,-41.649 11.55,-11.534 25.442,-17.401 41.675,-17.601 h 1.55 c 16.233,0.2 30.108,6.067 41.625,17.601 11.534,11.516 17.4,25.399 17.6,41.649 m -179.225,180.75 h -1.55 c -16.233,-0.184 -30.125,-6.033 -41.675,-17.55 -11.517,-11.533 -17.367,-25.425 -17.55,-41.675 V -840 c 0.183,-16.25 6.033,-30.133 17.55,-41.649 11.55,-11.535 25.442,-17.401 41.675,-17.601 h 1.55 c 16.233,0.2 30.108,6.066 41.625,17.601 11.533,11.516 17.4,25.399 17.6,41.649 v 1.525 c -0.2,16.25 -6.067,30.142 -17.6,41.675 -11.517,11.517 -25.392,17.366 -41.625,17.55 m -120,-120 h -1.55 c -16.233,-0.184 -30.125,-6.033 -41.675,-17.55 -11.7,-11.733 -17.55,-25.884 -17.55,-42.45 0,-16.55 5.85,-30.683 17.55,-42.399 11.55,-11.534 25.442,-17.401 41.675,-17.601 h 1.55 c 16.233,0.2 30.108,6.067 41.625,17.601 11.533,11.516 17.4,25.399 17.6,41.649 v 1.525 c -0.2,16.25 -6.067,30.142 -17.6,41.675 -11.517,11.517 -25.392,17.366 -41.625,17.55 m 1080,120 h -1.55 c -16.233,-0.184 -30.125,-6.033 -41.675,-17.55 -11.517,-11.533 -17.366,-25.425 -17.55,-41.675 V -840 c 0.184,-16.25 6.033,-30.133 17.55,-41.649 11.55,-11.535 25.442,-17.401 41.675,-17.601 h 1.55 c 16.233,0.2 30.108,6.066 41.625,17.601 11.534,11.516 17.4,25.399 17.6,41.649 v 1.525 c -0.2,16.25 -6.066,30.142 -17.6,41.675 -11.517,11.517 -25.392,17.366 -41.625,17.55 m -120,-120 h -1.55 c -16.233,-0.184 -30.125,-6.033 -41.675,-17.55 -11.517,-11.533 -17.366,-25.425 -17.55,-41.675 V -960 c 0.184,-16.25 6.033,-30.133 17.55,-41.649 11.55,-11.534 25.442,-17.401 41.675,-17.601 h 1.55 c 16.233,0.2 30.108,6.067 41.625,17.601 11.534,11.516 17.4,25.399 17.6,41.649 v 1.525 c -0.2,16.25 -6.066,30.142 -17.6,41.675 -11.517,11.517 -25.392,17.366 -41.625,17.55 m -120,120 h -1.55 c -16.233,-0.184 -30.125,-6.033 -41.675,-17.55 -11.517,-11.533 -17.366,-25.425 -17.55,-41.675 V -840 c 0.184,-16.25 6.033,-30.133 17.55,-41.649 11.55,-11.535 25.442,-17.401 41.675,-17.601 h 1.55 c 16.233,0.2 30.108,6.066 41.625,17.601 11.534,11.516 17.4,25.399 17.6,41.649 v 1.525 c -0.2,16.25 -6.066,30.142 -17.6,41.675 -11.517,11.517 -25.392,17.366 -41.625,17.55 m -120,-120 h -1.55 c -16.233,-0.184 -30.125,-6.033 -41.675,-17.55 -11.517,-11.533 -17.366,-25.425 -17.55,-41.675 V -960 c 0.184,-16.25 6.033,-30.133 17.55,-41.649 11.55,-11.534 25.442,-17.401 41.675,-17.601 h 1.55 c 16.233,0.2 30.108,6.067 41.625,17.601 11.534,11.516 17.4,25.399 17.6,41.649 v 1.525 c -0.2,16.25 -6.066,30.142 -17.6,41.675 -11.517,11.517 -25.392,17.366 -41.625,17.55"
       style="fill:#50e0d0;fill-opacity:1;fill-rule:nonzero;stroke:none"
       transform="matrix(1.3333333,0,0,-1.3333333,2400,81.000267)"
       clip-path="url(#clipPath3)" />
    <path
       id="path4"
       d="M 0,0 C 0,16.567 -5.867,30.717 -17.6,42.45 -29.3,54.15 -43.434,60 -60,60 -76.566,60 -90.717,54.15 -102.45,42.45 -113.95,30.917 -119.8,17.025 -120,0.775 V -0.75 c 0.2,-16.25 6.05,-30.125 17.55,-41.625 C -90.9,-53.925 -77.008,-59.8 -60.775,-60 h 1.55 c 16.233,0.2 30.108,6.075 41.625,17.625 C -5.867,-30.675 0,-16.55 0,0 m -120,-120.75 v 1.525 c -0.184,16.25 -6.05,30.142 -17.6,41.675 -11.517,11.517 -25.392,17.367 -41.625,17.55 h -1.55 c -16.233,-0.183 -30.125,-6.033 -41.675,-17.55 -11.5,-11.533 -17.35,-25.425 -17.55,-41.675 v -1.525 c 0.2,-16.25 6.05,-30.125 17.55,-41.625 11.55,-11.55 25.442,-17.425 41.675,-17.625 h 1.55 c 16.233,0.2 30.108,6.075 41.625,17.625 11.55,11.5 17.416,25.375 17.6,41.625 m -120,120 v 1.525 c -0.184,16.25 -6.05,30.142 -17.6,41.675 C -269.3,54.15 -283.434,60 -300,60 -316.566,60 -330.717,54.15 -342.45,42.45 -353.95,30.917 -359.8,17.025 -360,0.775 V -0.75 c 0.2,-16.25 6.05,-30.125 17.55,-41.625 11.55,-11.55 25.442,-17.425 41.675,-17.625 h 1.55 c 16.233,0.2 30.108,6.075 41.625,17.625 11.55,11.5 17.416,25.375 17.6,41.625 m -17.6,-196.8 c -11.517,11.517 -25.392,17.367 -41.625,17.55 h -1.55 c -16.233,-0.183 -30.125,-6.033 -41.675,-17.55 -11.5,-11.533 -17.35,-25.425 -17.55,-41.675 v -1.525 c 0.2,-16.25 6.05,-30.125 17.55,-41.625 11.55,-11.55 25.442,-17.425 41.675,-17.625 h 1.55 c 16.233,0.2 30.108,6.075 41.625,17.625 11.55,11.5 17.416,25.375 17.6,41.625 v 1.525 c -0.184,16.25 -6.05,30.142 -17.6,41.675 M -179.225,-300 h -1.55 c -16.233,-0.183 -30.125,-6.033 -41.675,-17.55 -11.5,-11.533 -17.35,-25.425 -17.55,-41.675 v -1.525 c 0.2,-16.25 6.05,-30.133 17.55,-41.65 11.55,-11.533 25.442,-17.4 41.675,-17.6 h 1.55 c 16.233,0.2 30.108,6.067 41.625,17.6 11.55,11.517 17.416,25.4 17.6,41.65 v 1.525 c -0.184,16.25 -6.05,30.142 -17.6,41.675 -11.517,11.517 -25.392,17.367 -41.625,17.55 m 120,120 h -1.55 c -16.233,-0.183 -30.125,-6.033 -41.675,-17.55 -11.5,-11.533 -17.35,-25.425 -17.55,-41.675 v -1.525 c 0.2,-16.25 6.05,-30.125 17.55,-41.625 11.55,-11.55 25.442,-17.425 41.675,-17.625 h 1.55 c 16.233,0.2 30.108,6.075 41.625,17.625 11.733,11.7 17.6,25.825 17.6,42.375 0,16.567 -5.867,30.717 -17.6,42.45 -11.517,11.517 -25.392,17.367 -41.625,17.55 m -360,120 h -1.55 c -16.233,-0.183 -30.125,-6.033 -41.675,-17.55 -11.5,-11.533 -17.35,-25.425 -17.55,-41.675 v -1.525 c 0.2,-16.25 6.05,-30.125 17.55,-41.625 11.55,-11.55 25.442,-17.425 41.675,-17.625 h 1.55 c 16.233,0.2 30.108,6.075 41.625,17.625 11.55,11.5 17.416,25.375 17.6,41.625 v 1.525 c -0.184,16.25 -6.05,30.142 -17.6,41.675 -11.517,11.517 -25.392,17.367 -41.625,17.55 M -480,-0.75 v 1.525 c -0.184,16.25 -6.05,30.142 -17.6,41.675 C -509.3,54.15 -523.434,60 -540,60 -556.566,60 -570.717,54.15 -582.45,42.45 -593.95,30.917 -599.8,17.025 -600,0.775 V -0.75 c 0.2,-16.25 6.05,-30.125 17.55,-41.625 11.55,-11.55 25.442,-17.425 41.675,-17.625 h 1.55 c 16.233,0.2 30.108,6.075 41.625,17.625 11.55,11.5 17.416,25.375 17.6,41.625 m -120,-120 v 1.525 c -0.2,16.25 -6.066,30.142 -17.6,41.675 -11.517,11.517 -25.392,17.367 -41.625,17.55 h -1.55 c -16.233,-0.183 -30.125,-6.033 -41.675,-17.55 -11.517,-11.533 -17.366,-25.425 -17.55,-41.675 v -1.525 c 0.184,-16.25 6.033,-30.125 17.55,-41.625 11.55,-11.55 25.442,-17.425 41.675,-17.625 h 1.55 c 16.233,0.2 30.108,6.075 41.625,17.625 11.534,11.5 17.4,25.375 17.6,41.625 m 60.775,-59.25 h -1.55 c -16.233,-0.183 -30.125,-6.033 -41.675,-17.55 -11.5,-11.533 -17.35,-25.425 -17.55,-41.675 v -1.525 c 0.2,-16.25 6.05,-30.125 17.55,-41.625 11.55,-11.55 25.442,-17.425 41.675,-17.625 h 1.55 c 16.233,0.2 30.108,6.075 41.625,17.625 11.55,11.5 17.416,25.375 17.6,41.625 v 1.525 c -0.184,16.25 -6.05,30.142 -17.6,41.675 -11.517,11.517 -25.392,17.367 -41.625,17.55 m 120,-120 h -1.55 c -16.233,-0.183 -30.125,-6.033 -41.675,-17.55 -11.5,-11.533 -17.35,-25.425 -17.55,-41.675 v -1.525 c 0.2,-16.25 6.05,-30.133 17.55,-41.65 11.55,-11.533 25.442,-17.4 41.675,-17.6 h 1.55 c 16.233,0.2 30.108,6.067 41.625,17.6 11.55,11.517 17.416,25.4 17.6,41.65 v 1.525 c -0.184,16.25 -6.05,30.142 -17.6,41.675 -11.517,11.517 -25.392,17.367 -41.625,17.55 M -360,-479.225 v -1.525 c 0.2,-16.25 6.05,-30.133 17.55,-41.649 11.55,-11.535 25.442,-17.401 41.675,-17.601 h 1.55 c 16.233,0.2 30.108,6.066 41.625,17.601 11.55,11.516 17.416,25.399 17.6,41.649 v 1.525 c -0.184,16.25 -6.05,30.142 -17.6,41.675 -11.517,11.517 -25.392,17.367 -41.625,17.55 h -1.55 c -16.233,-0.183 -30.125,-6.033 -41.675,-17.55 -11.5,-11.533 -17.35,-25.425 -17.55,-41.675 M -539.225,-420 h -1.55 c -16.233,-0.183 -30.125,-6.033 -41.675,-17.55 -11.5,-11.533 -17.35,-25.425 -17.55,-41.675 v -1.525 c 0.2,-16.25 6.05,-30.133 17.55,-41.649 11.55,-11.535 25.442,-17.401 41.675,-17.601 h 1.55 c 16.233,0.2 30.108,6.066 41.625,17.601 11.55,11.516 17.416,25.399 17.6,41.649 v 1.525 c -0.184,16.25 -6.05,30.142 -17.6,41.675 -11.517,11.517 -25.392,17.367 -41.625,17.55 M -600,-360.75 v 1.525 c -0.2,16.25 -6.066,30.142 -17.6,41.675 -11.517,11.517 -25.392,17.367 -41.625,17.55 h -1.55 c -16.233,-0.183 -30.125,-6.033 -41.675,-17.55 -11.517,-11.533 -17.366,-25.425 -17.55,-41.675 v -1.525 c 0.184,-16.25 6.033,-30.133 17.55,-41.65 11.55,-11.533 25.442,-17.4 41.675,-17.6 h 1.55 c 16.233,0.2 30.108,6.067 41.625,17.6 11.534,11.517 17.4,25.4 17.6,41.65 m 120,-238.475 v -1.525 c 0.2,-16.25 6.05,-30.133 17.55,-41.649 11.55,-11.535 25.442,-17.401 41.675,-17.601 h 1.55 c 16.233,0.2 30.108,6.066 41.625,17.601 11.55,11.516 17.416,25.399 17.6,41.649 v 1.525 c -0.184,16.25 -6.05,30.142 -17.6,41.675 -11.517,11.517 -25.392,17.366 -41.625,17.55 h -1.55 c -16.233,-0.184 -30.125,-6.033 -41.675,-17.55 -11.5,-11.533 -17.35,-25.425 -17.55,-41.675 m -120,-1.525 v 1.525 c -0.2,16.25 -6.066,30.142 -17.6,41.675 -11.517,11.517 -25.392,17.366 -41.625,17.55 h -1.55 c -16.233,-0.184 -30.125,-6.033 -41.675,-17.55 -11.517,-11.533 -17.366,-25.425 -17.55,-41.675 v -1.525 c 0.184,-16.25 6.033,-30.133 17.55,-41.649 11.55,-11.535 25.442,-17.401 41.675,-17.601 h 1.55 c 16.233,0.2 30.108,6.066 41.625,17.601 11.534,11.516 17.4,25.399 17.6,41.649 m 0,-118.475 v -1.525 c 0.2,-16.25 6.05,-30.133 17.55,-41.649 11.55,-11.535 25.442,-17.401 41.675,-17.601 h 1.55 c 16.233,0.2 30.108,6.066 41.625,17.601 11.55,11.516 17.416,25.399 17.6,41.649 v 1.525 c -0.184,16.25 -6.05,30.142 -17.6,41.675 -11.517,11.517 -25.392,17.366 -41.625,17.55 h -1.55 c -16.233,-0.184 -30.125,-6.033 -41.675,-17.55 -11.5,-11.533 -17.35,-25.425 -17.55,-41.675 m 240,0 v -1.525 c 0.2,-16.25 6.05,-30.133 17.55,-41.649 11.55,-11.535 25.442,-17.401 41.675,-17.601 h 1.55 c 16.233,0.2 30.108,6.066 41.625,17.601 11.55,11.516 17.416,25.399 17.6,41.649 v 1.525 c -0.184,16.25 -6.05,30.142 -17.6,41.675 -11.517,11.517 -25.392,17.366 -41.625,17.55 h -1.55 c -16.233,-0.184 -30.125,-6.033 -41.675,-17.55 -11.5,-11.533 -17.35,-25.425 -17.55,-41.675 M -59.225,-420 h -1.55 c -16.233,-0.183 -30.125,-6.033 -41.675,-17.55 -11.5,-11.533 -17.35,-25.425 -17.55,-41.675 v -1.525 c 0.2,-16.25 6.05,-30.133 17.55,-41.649 11.55,-11.535 25.442,-17.401 41.675,-17.601 h 1.55 c 16.233,0.2 30.108,6.066 41.625,17.601 C -5.867,-510.684 0,-496.55 0,-480 c 0,16.567 -5.867,30.717 -17.6,42.45 -11.517,11.517 -25.392,17.367 -41.625,17.55 m -120,-120 h -1.55 c -16.233,-0.184 -30.125,-6.033 -41.675,-17.55 -11.5,-11.533 -17.35,-25.425 -17.55,-41.675 v -1.525 c 0.2,-16.25 6.05,-30.133 17.55,-41.649 11.55,-11.535 25.442,-17.401 41.675,-17.601 h 1.55 c 16.233,0.2 30.108,6.066 41.625,17.601 11.55,11.516 17.416,25.399 17.6,41.649 v 1.525 c -0.184,16.25 -6.05,30.142 -17.6,41.675 -11.517,11.517 -25.392,17.366 -41.625,17.55 m 120,-120 h -1.55 c -16.233,-0.184 -30.125,-6.033 -41.675,-17.55 -11.5,-11.533 -17.35,-25.425 -17.55,-41.675 v -1.525 c 0.2,-16.25 6.05,-30.133 17.55,-41.649 11.55,-11.535 25.442,-17.401 41.675,-17.601 h 1.55 c 16.233,0.2 30.108,6.066 41.625,17.601 C -5.867,-750.684 0,-736.55 0,-720 c 0,16.566 -5.867,30.717 -17.6,42.45 -11.517,11.517 -25.392,17.366 -41.625,17.55 M -120,-840.75 v 1.525 c -0.184,16.25 -6.05,30.142 -17.6,41.675 -11.517,11.517 -25.392,17.366 -41.625,17.55 h -1.55 c -16.233,-0.184 -30.125,-6.033 -41.675,-17.55 -11.5,-11.533 -17.35,-25.425 -17.55,-41.675 v -1.525 c 0.2,-16.25 6.05,-30.133 17.55,-41.649 11.55,-11.535 25.442,-17.401 41.675,-17.601 h 1.55 c 16.233,0.2 30.108,6.066 41.625,17.601 11.55,11.516 17.416,25.399 17.6,41.649 M -59.225,-900 h -1.55 c -16.233,-0.184 -30.125,-6.033 -41.675,-17.55 -11.5,-11.533 -17.35,-25.425 -17.55,-41.675 v -1.525 c 0.2,-16.25 6.05,-30.133 17.55,-41.649 11.55,-11.534 25.442,-17.401 41.675,-17.601 h 1.55 c 16.233,0.2 30.108,6.067 41.625,17.601 C -5.867,-990.683 0,-976.55 0,-960 c 0,16.566 -5.867,30.717 -17.6,42.45 -11.517,11.517 -25.392,17.366 -41.625,17.55 M -257.6,-917.55 c -11.517,11.517 -25.392,17.366 -41.625,17.55 h -1.55 c -16.233,-0.184 -30.125,-6.033 -41.675,-17.55 -11.5,-11.533 -17.35,-25.425 -17.55,-41.675 v -1.525 c 0.2,-16.25 6.05,-30.133 17.55,-41.649 11.55,-11.534 25.442,-17.401 41.675,-17.601 h 1.55 c 16.233,0.2 30.108,6.067 41.625,17.601 11.55,11.516 17.416,25.399 17.6,41.649 v 1.525 c -0.184,16.25 -6.05,30.142 -17.6,41.675 M -419.225,-780 h -1.55 c -16.233,-0.184 -30.125,-6.033 -41.675,-17.55 -11.5,-11.533 -17.35,-25.425 -17.55,-41.675 v -1.525 c 0.2,-16.25 6.05,-30.133 17.55,-41.649 11.55,-11.535 25.442,-17.401 41.675,-17.601 h 1.55 c 16.233,0.2 30.108,6.066 41.625,17.601 11.55,11.516 17.416,25.399 17.6,41.649 v 1.525 c -0.184,16.25 -6.05,30.142 -17.6,41.675 -11.517,11.517 -25.392,17.366 -41.625,17.55 M -600,-840.75 v 1.525 c -0.2,16.25 -6.066,30.142 -17.6,41.675 -11.517,11.517 -25.392,17.366 -41.625,17.55 h -1.55 c -16.233,-0.184 -30.125,-6.033 -41.675,-17.55 -11.517,-11.533 -17.366,-25.425 -17.55,-41.675 v -1.525 c 0.184,-16.25 6.033,-30.133 17.55,-41.649 11.55,-11.535 25.442,-17.401 41.675,-17.601 h 1.55 c 16.233,0.2 30.108,6.066 41.625,17.601 11.534,11.516 17.4,25.399 17.6,41.649 m 60.775,-59.25 h -1.55 c -16.233,-0.184 -30.125,-6.033 -41.675,-17.55 -11.5,-11.533 -17.35,-25.425 -17.55,-41.675 v -1.525 c 0.2,-16.25 6.05,-30.133 17.55,-41.649 11.55,-11.534 25.442,-17.401 41.675,-17.601 h 1.55 c 16.233,0.2 30.108,6.067 41.625,17.601 11.55,11.516 17.416,25.399 17.6,41.649 v 1.525 c -0.184,16.25 -6.05,30.142 -17.6,41.675 -11.517,11.517 -25.392,17.366 -41.625,17.55 M -720,-0.75 v 1.525 c -0.2,16.25 -6.066,30.142 -17.6,41.675 C -749.3,54.15 -763.434,60 -780,60 -796.566,60 -810.717,54.15 -822.45,42.45 -833.967,30.917 -839.816,17.025 -840,0.775 V -0.75 c 0.184,-16.25 6.033,-30.125 17.55,-41.625 11.55,-11.55 25.442,-17.425 41.675,-17.625 h 1.55 c 16.233,0.2 30.108,6.075 41.625,17.625 11.534,11.5 17.4,25.375 17.6,41.625 M -899.225,-60 h -1.55 c -16.233,-0.183 -30.125,-6.033 -41.675,-17.55 -11.517,-11.533 -17.366,-25.425 -17.55,-41.675 v -1.525 c 0.184,-16.25 6.033,-30.125 17.55,-41.625 11.55,-11.55 25.442,-17.425 41.675,-17.625 h 1.55 c 16.233,0.2 30.108,6.075 41.625,17.625 11.534,11.5 17.4,25.375 17.6,41.625 v 1.525 c -0.2,16.25 -6.066,30.142 -17.6,41.675 -11.517,11.517 -25.392,17.367 -41.625,17.55 m 0,-240 h -1.55 c -16.233,-0.183 -30.125,-6.033 -41.675,-17.55 -11.517,-11.533 -17.366,-25.425 -17.55,-41.675 v -1.525 c 0.184,-16.25 6.033,-30.133 17.55,-41.65 11.55,-11.533 25.442,-17.4 41.675,-17.6 h 1.55 c 16.233,0.2 30.108,6.067 41.625,17.6 11.534,11.517 17.4,25.4 17.6,41.65 v 1.525 c -0.2,16.25 -6.066,30.142 -17.6,41.675 -11.517,11.517 -25.392,17.367 -41.625,17.55 m 59.225,60.775 v -1.525 c 0.184,-16.25 6.033,-30.125 17.55,-41.625 11.55,-11.55 25.442,-17.425 41.675,-17.625 h 1.55 c 16.233,0.2 30.108,6.075 41.625,17.625 11.534,11.5 17.4,25.375 17.6,41.625 v 1.525 c -0.2,16.25 -6.066,30.142 -17.6,41.675 -11.517,11.517 -25.392,17.367 -41.625,17.55 h -1.55 c -16.233,-0.183 -30.125,-6.033 -41.675,-17.55 -11.517,-11.533 -17.366,-25.425 -17.55,-41.675 M -960,-0.75 v 1.525 c -0.2,16.25 -6.066,30.142 -17.6,41.675 -11.7,11.7 -25.833,17.55 -42.4,17.55 -16.566,0 -30.717,-5.85 -42.45,-17.55 -11.517,-11.533 -17.366,-25.425 -17.55,-41.675 V -0.75 c 0.184,-16.25 6.033,-30.125 17.55,-41.625 11.55,-11.55 25.442,-17.425 41.675,-17.625 h 1.55 c 16.233,0.2 30.108,6.075 41.625,17.625 11.534,11.5 17.4,25.375 17.6,41.625 m -120,-120 v 1.525 c -0.2,16.25 -6.066,30.142 -17.6,41.675 -11.517,11.517 -25.392,17.367 -41.625,17.55 h -1.55 c -16.233,-0.183 -30.125,-6.033 -41.675,-17.55 -11.517,-11.533 -17.366,-25.425 -17.55,-41.675 v -1.525 c 0.184,-16.25 6.033,-30.125 17.55,-41.625 11.55,-11.55 25.442,-17.425 41.675,-17.625 h 1.55 c 16.233,0.2 30.108,6.075 41.625,17.625 11.534,11.5 17.4,25.375 17.6,41.625 m -120,120 v 1.525 c -0.2,16.25 -6.066,30.142 -17.6,41.675 -11.7,11.7 -25.833,17.55 -42.4,17.55 -16.566,0 -30.717,-5.85 -42.45,-17.55 -11.517,-11.533 -17.366,-25.425 -17.55,-41.675 V -0.75 c 0.184,-16.25 6.033,-30.125 17.55,-41.625 11.55,-11.55 25.442,-17.425 41.675,-17.625 h 1.55 c 16.233,0.2 30.108,6.075 41.625,17.625 11.534,11.5 17.4,25.375 17.6,41.625 M -1259.225,-180 h -1.55 c -16.233,-0.183 -30.125,-6.033 -41.675,-17.55 -11.517,-11.533 -17.366,-25.425 -17.55,-41.675 v -1.525 c 0.184,-16.25 6.033,-30.125 17.55,-41.625 11.55,-11.55 25.442,-17.425 41.675,-17.625 h 1.55 c 16.233,0.2 30.108,6.075 41.625,17.625 11.534,11.5 17.4,25.375 17.6,41.625 v 1.525 c -0.2,16.25 -6.066,30.142 -17.6,41.675 -11.517,11.517 -25.392,17.367 -41.625,17.55 m 120,-120 h -1.55 c -16.233,-0.183 -30.125,-6.033 -41.675,-17.55 -11.517,-11.533 -17.366,-25.425 -17.55,-41.675 v -1.525 c 0.184,-16.25 6.033,-30.133 17.55,-41.65 11.55,-11.533 25.442,-17.4 41.675,-17.6 h 1.55 c 16.233,0.2 30.108,6.067 41.625,17.6 11.534,11.517 17.4,25.4 17.6,41.65 v 1.525 c -0.2,16.25 -6.066,30.142 -17.6,41.675 -11.517,11.517 -25.392,17.367 -41.625,17.55 m 120,120 h -1.55 c -16.233,-0.183 -30.125,-6.033 -41.675,-17.55 -11.517,-11.533 -17.366,-25.425 -17.55,-41.675 v -1.525 c 0.184,-16.25 6.033,-30.125 17.55,-41.625 11.55,-11.55 25.442,-17.425 41.675,-17.625 h 1.55 c 16.233,0.2 30.108,6.075 41.625,17.625 11.534,11.5 17.4,25.375 17.6,41.625 v 1.525 c -0.2,16.25 -6.066,30.142 -17.6,41.675 -11.517,11.517 -25.392,17.367 -41.625,17.55 m 0,-240 h -1.55 c -16.233,-0.183 -30.125,-6.033 -41.675,-17.55 -11.517,-11.533 -17.366,-25.425 -17.55,-41.675 v -1.525 c 0.184,-16.25 6.033,-30.133 17.55,-41.649 11.55,-11.535 25.442,-17.401 41.675,-17.601 h 1.55 c 16.233,0.2 30.108,6.066 41.625,17.601 11.534,11.516 17.4,25.399 17.6,41.649 v 1.525 c -0.2,16.25 -6.066,30.142 -17.6,41.675 -11.517,11.517 -25.392,17.367 -41.625,17.55 m -240,0 h -1.55 c -16.233,-0.183 -30.125,-6.033 -41.675,-17.55 -11.517,-11.533 -17.366,-25.425 -17.55,-41.675 v -1.525 c 0.184,-16.25 6.033,-30.133 17.55,-41.649 11.55,-11.535 25.442,-17.401 41.675,-17.601 h 1.55 c 16.233,0.2 30.108,6.066 41.625,17.601 11.534,11.516 17.4,25.399 17.6,41.649 v 1.525 c -0.2,16.25 -6.066,30.142 -17.6,41.675 -11.517,11.517 -25.392,17.367 -41.625,17.55 m 120,-120 h -1.55 c -16.233,-0.184 -30.125,-6.033 -41.675,-17.55 -11.517,-11.533 -17.366,-25.425 -17.55,-41.675 v -1.525 c 0.184,-16.25 6.033,-30.133 17.55,-41.649 11.55,-11.535 25.442,-17.401 41.675,-17.601 h 1.55 c 16.233,0.2 30.108,6.066 41.625,17.601 11.534,11.516 17.4,25.399 17.6,41.649 v 1.525 c -0.2,16.25 -6.066,30.142 -17.6,41.675 -11.517,11.517 -25.392,17.366 -41.625,17.55 m -120,-120 h -1.55 c -16.233,-0.184 -30.125,-6.033 -41.675,-17.55 -11.517,-11.533 -17.366,-25.425 -17.55,-41.675 v -1.525 c 0.184,-16.25 6.033,-30.133 17.55,-41.649 11.55,-11.535 25.442,-17.401 41.675,-17.601 h 1.55 c 16.233,0.2 30.108,6.066 41.625,17.601 11.534,11.516 17.4,25.399 17.6,41.649 v 1.525 c -0.2,16.25 -6.066,30.142 -17.6,41.675 -11.517,11.517 -25.392,17.366 -41.625,17.55 M -960,-599.225 v -1.525 c 0.184,-16.25 6.033,-30.133 17.55,-41.649 11.55,-11.535 25.442,-17.401 41.675,-17.601 h 1.55 c 16.233,0.2 30.108,6.066 41.625,17.601 11.534,11.516 17.4,25.399 17.6,41.649 v 1.525 c -0.2,16.25 -6.066,30.142 -17.6,41.675 -11.517,11.517 -25.392,17.366 -41.625,17.55 h -1.55 c -16.233,-0.184 -30.125,-6.033 -41.675,-17.55 -11.517,-11.533 -17.366,-25.425 -17.55,-41.675 m -120,-120 v -1.525 c 0.184,-16.25 6.033,-30.133 17.55,-41.649 11.55,-11.535 25.442,-17.401 41.675,-17.601 h 1.55 c 16.233,0.2 30.108,6.066 41.625,17.601 11.534,11.516 17.4,25.399 17.6,41.649 v 1.525 c -0.2,16.25 -6.066,30.142 -17.6,41.675 -11.517,11.517 -25.392,17.366 -41.625,17.55 h -1.55 c -16.233,-0.184 -30.125,-6.033 -41.675,-17.55 -11.517,-11.533 -17.366,-25.425 -17.55,-41.675 M -779.225,-420 h -1.55 c -16.233,-0.183 -30.125,-6.033 -41.675,-17.55 -11.517,-11.533 -17.366,-25.425 -17.55,-41.675 v -1.525 c 0.184,-16.25 6.033,-30.133 17.55,-41.649 11.55,-11.535 25.442,-17.401 41.675,-17.601 h 1.55 c 16.233,0.2 30.108,6.066 41.625,17.601 11.534,11.516 17.4,25.399 17.6,41.649 v 1.525 c -0.2,16.25 -6.066,30.142 -17.6,41.675 -11.517,11.517 -25.392,17.367 -41.625,17.55 M -840,-719.225 v -1.525 c 0.184,-16.25 6.033,-30.133 17.55,-41.649 11.55,-11.535 25.442,-17.401 41.675,-17.601 h 1.55 c 16.233,0.2 30.108,6.066 41.625,17.601 11.534,11.516 17.4,25.399 17.6,41.649 v 1.525 c -0.2,16.25 -6.066,30.142 -17.6,41.675 -11.517,11.517 -25.392,17.366 -41.625,17.55 h -1.55 c -16.233,-0.184 -30.125,-6.033 -41.675,-17.55 -11.517,-11.533 -17.366,-25.425 -17.55,-41.675 M -1379.225,-60 h -1.55 c -16.233,-0.183 -30.125,-6.033 -41.675,-17.55 -11.517,-11.533 -17.366,-25.425 -17.55,-41.675 v -1.525 c 0.184,-16.25 6.033,-30.125 17.55,-41.625 11.55,-11.55 25.442,-17.425 41.675,-17.625 h 1.55 c 16.233,0.2 30.108,6.075 41.625,17.625 11.534,11.5 17.4,25.375 17.6,41.625 v 1.525 c -0.2,16.25 -6.066,30.142 -17.6,41.675 -11.517,11.517 -25.392,17.367 -41.625,17.55 M -1440,-0.75 v 1.525 c -0.2,16.25 -6.066,30.142 -17.6,41.675 -11.7,11.7 -25.833,17.55 -42.4,17.55 -16.566,0 -30.717,-5.85 -42.45,-17.55 -11.517,-11.533 -17.366,-25.425 -17.55,-41.675 V -0.75 c 0.184,-16.25 6.033,-30.125 17.55,-41.625 11.55,-11.55 25.442,-17.425 41.675,-17.625 h 1.55 c 16.233,0.2 30.108,6.075 41.625,17.625 11.534,11.5 17.4,25.375 17.6,41.625 m -120,-120 v 1.525 c -0.2,16.25 -6.066,30.142 -17.6,41.675 -11.517,11.517 -25.392,17.367 -41.625,17.55 h -1.55 c -16.233,-0.183 -30.125,-6.033 -41.675,-17.55 -11.517,-11.533 -17.367,-25.425 -17.55,-41.675 v -1.525 c 0.183,-16.25 6.033,-30.125 17.55,-41.625 11.55,-11.55 25.442,-17.425 41.675,-17.625 h 1.55 c 16.233,0.2 30.108,6.075 41.625,17.625 11.534,11.5 17.4,25.375 17.6,41.625 m 60.775,-59.25 h -1.55 c -16.233,-0.183 -30.125,-6.033 -41.675,-17.55 -11.517,-11.533 -17.366,-25.425 -17.55,-41.675 v -1.525 c 0.184,-16.25 6.033,-30.125 17.55,-41.625 11.55,-11.55 25.442,-17.425 41.675,-17.625 h 1.55 c 16.233,0.2 30.108,6.075 41.625,17.625 11.534,11.5 17.4,25.375 17.6,41.625 v 1.525 c -0.2,16.25 -6.066,30.142 -17.6,41.675 -11.517,11.517 -25.392,17.367 -41.625,17.55 m 120,-120 h -1.55 c -16.233,-0.183 -30.125,-6.033 -41.675,-17.55 -11.517,-11.533 -17.366,-25.425 -17.55,-41.675 v -1.525 c 0.184,-16.25 6.033,-30.133 17.55,-41.65 11.55,-11.533 25.442,-17.4 41.675,-17.6 h 1.55 c 16.233,0.2 30.108,6.067 41.625,17.6 11.534,11.517 17.4,25.4 17.6,41.65 v 1.525 c -0.2,16.25 -6.066,30.142 -17.6,41.675 -11.517,11.517 -25.392,17.367 -41.625,17.55 M -1680,-0.75 v 1.525 c -0.2,16.25 -6.067,30.142 -17.6,41.675 -11.7,11.7 -25.833,17.55 -42.4,17.55 -16.567,0 -30.717,-5.85 -42.45,-17.55 -11.517,-11.533 -17.367,-25.425 -17.55,-41.675 V -0.75 c 0.183,-16.25 6.033,-30.125 17.55,-41.625 11.55,-11.55 25.442,-17.425 41.675,-17.625 h 1.55 c 16.233,0.2 30.108,6.075 41.625,17.625 11.533,11.5 17.4,25.375 17.6,41.625 M -1859.225,-60 h -1.55 c -16.233,-0.183 -30.125,-6.033 -41.675,-17.55 -11.7,-11.733 -17.55,-25.883 -17.55,-42.45 0,-16.55 5.85,-30.675 17.55,-42.375 11.55,-11.55 25.442,-17.425 41.675,-17.625 h 1.55 c 16.233,0.2 30.108,6.075 41.625,17.625 11.533,11.5 17.4,25.375 17.6,41.625 v 1.525 c -0.2,16.25 -6.067,30.142 -17.6,41.675 -11.517,11.517 -25.392,17.367 -41.625,17.55 m 0,-240 h -1.55 c -16.233,-0.183 -30.125,-6.033 -41.675,-17.55 -11.7,-11.733 -17.55,-25.883 -17.55,-42.45 0,-16.55 5.85,-30.683 17.55,-42.4 11.55,-11.533 25.442,-17.4 41.675,-17.6 h 1.55 c 16.233,0.2 30.108,6.067 41.625,17.6 11.533,11.517 17.4,25.4 17.6,41.65 v 1.525 c -0.2,16.25 -6.067,30.142 -17.6,41.675 -11.517,11.517 -25.392,17.367 -41.625,17.55 m 59.225,60.775 v -1.525 c 0.183,-16.25 6.033,-30.125 17.55,-41.625 11.55,-11.55 25.442,-17.425 41.675,-17.625 h 1.55 c 16.233,0.2 30.108,6.075 41.625,17.625 11.533,11.5 17.4,25.375 17.6,41.625 v 1.525 c -0.2,16.25 -6.067,30.142 -17.6,41.675 -11.517,11.517 -25.392,17.367 -41.625,17.55 h -1.55 c -16.233,-0.183 -30.125,-6.033 -41.675,-17.55 -11.517,-11.533 -17.367,-25.425 -17.55,-41.675 M -1619.225,-300 h -1.55 c -16.233,-0.183 -30.125,-6.033 -41.675,-17.55 -11.517,-11.533 -17.367,-25.425 -17.55,-41.675 v -1.525 c 0.183,-16.25 6.033,-30.133 17.55,-41.65 11.55,-11.533 25.442,-17.4 41.675,-17.6 h 1.55 c 16.233,0.2 30.108,6.067 41.625,17.6 11.534,11.517 17.4,25.4 17.6,41.65 v 1.525 c -0.2,16.25 -6.066,30.142 -17.6,41.675 -11.517,11.517 -25.392,17.367 -41.625,17.55 m -120,-120 h -1.55 c -16.233,-0.183 -30.125,-6.033 -41.675,-17.55 -11.517,-11.533 -17.367,-25.425 -17.55,-41.675 v -1.525 c 0.183,-16.25 6.033,-30.133 17.55,-41.649 11.55,-11.535 25.442,-17.401 41.675,-17.601 h 1.55 c 16.233,0.2 30.108,6.066 41.625,17.601 11.533,11.516 17.4,25.399 17.6,41.649 v 1.525 c -0.2,16.25 -6.067,30.142 -17.6,41.675 -11.517,11.517 -25.392,17.367 -41.625,17.55 M -1800,-600.75 v 1.525 c -0.2,16.25 -6.067,30.142 -17.6,41.675 -8.862,8.863 -19.12,14.37 -30.775,16.526 -3.491,0.64 -7.108,0.982 -10.85,1.024 h -1.55 c -16.233,-0.184 -30.125,-6.033 -41.675,-17.55 -11.7,-11.733 -17.55,-25.884 -17.55,-42.45 0,-16.55 5.85,-30.684 17.55,-42.399 11.55,-11.535 25.442,-17.401 41.675,-17.601 h 1.55 c 3.742,0.046 7.359,0.396 10.85,1.05 11.655,2.159 21.913,7.676 30.775,16.551 11.533,11.516 17.4,25.399 17.6,41.649 m 0,-118.475 v -1.525 c 0.183,-16.25 6.033,-30.133 17.55,-41.649 11.55,-11.535 25.442,-17.401 41.675,-17.601 h 1.55 c 16.233,0.2 30.108,6.066 41.625,17.601 11.533,11.516 17.4,25.399 17.6,41.649 v 1.525 c -0.2,16.25 -6.067,30.142 -17.6,41.675 -11.517,11.517 -25.392,17.366 -41.625,17.55 h -1.55 c -16.233,-0.184 -30.125,-6.033 -41.675,-17.55 -11.517,-11.533 -17.367,-25.425 -17.55,-41.675 M -1619.225,-540 h -1.55 c -16.233,-0.184 -30.125,-6.033 -41.675,-17.55 -11.517,-11.533 -17.367,-25.425 -17.55,-41.675 v -1.525 c 0.183,-16.25 6.033,-30.133 17.55,-41.649 11.55,-11.535 25.442,-17.401 41.675,-17.601 h 1.55 c 16.233,0.2 30.108,6.066 41.625,17.601 11.534,11.516 17.4,25.399 17.6,41.649 v 1.525 c -0.2,16.25 -6.066,30.142 -17.6,41.675 -11.517,11.517 -25.392,17.366 -41.625,17.55 m 120,120 h -1.55 c -16.233,-0.183 -30.125,-6.033 -41.675,-17.55 -11.517,-11.533 -17.366,-25.425 -17.55,-41.675 v -1.525 c 0.184,-16.25 6.033,-30.133 17.55,-41.649 11.55,-11.535 25.442,-17.401 41.675,-17.601 h 1.55 c 16.233,0.2 30.108,6.066 41.625,17.601 11.534,11.516 17.4,25.399 17.6,41.649 v 1.525 c -0.2,16.25 -6.066,30.142 -17.6,41.675 -11.517,11.517 -25.392,17.367 -41.625,17.55 M -1440,-599.225 v -1.525 c 0.184,-16.25 6.033,-30.133 17.55,-41.649 11.55,-11.535 25.442,-17.401 41.675,-17.601 h 1.55 c 16.233,0.2 30.108,6.066 41.625,17.601 11.534,11.516 17.4,25.399 17.6,41.649 v 1.525 c -0.2,16.25 -6.066,30.142 -17.6,41.675 -11.517,11.517 -25.392,17.366 -41.625,17.55 h -1.55 c -16.233,-0.184 -30.125,-6.033 -41.675,-17.55 -11.517,-11.533 -17.366,-25.425 -17.55,-41.675 m -120,-120 v -1.525 c 0.184,-16.25 6.033,-30.133 17.55,-41.649 11.55,-11.535 25.442,-17.401 41.675,-17.601 h 1.55 c 16.233,0.2 30.108,6.066 41.625,17.601 11.534,11.516 17.4,25.399 17.6,41.649 v 1.525 c -0.2,16.25 -6.066,30.142 -17.6,41.675 -11.517,11.517 -25.392,17.366 -41.625,17.55 h -1.55 c -16.233,-0.184 -30.125,-6.033 -41.675,-17.55 -11.517,-11.533 -17.366,-25.425 -17.55,-41.675 M -1379.225,-780 h -1.55 c -16.233,-0.184 -30.125,-6.033 -41.675,-17.55 -11.517,-11.533 -17.366,-25.425 -17.55,-41.675 v -1.525 c 0.184,-16.25 6.033,-30.133 17.55,-41.649 11.55,-11.535 25.442,-17.401 41.675,-17.601 h 1.55 c 16.233,0.2 30.108,6.066 41.625,17.601 11.534,11.516 17.4,25.399 17.6,41.649 v 1.525 c -0.2,16.25 -6.066,30.142 -17.6,41.675 -11.517,11.517 -25.392,17.366 -41.625,17.55 M -1560,-840.75 v 1.525 c -0.2,16.25 -6.066,30.142 -17.6,41.675 -11.517,11.517 -25.392,17.366 -41.625,17.55 h -1.55 c -16.233,-0.184 -30.125,-6.033 -41.675,-17.55 -11.517,-11.533 -17.367,-25.425 -17.55,-41.675 v -1.525 c 0.183,-16.25 6.033,-30.133 17.55,-41.649 11.55,-11.535 25.442,-17.401 41.675,-17.601 h 1.55 c 16.233,0.2 30.108,6.066 41.625,17.601 11.534,11.516 17.4,25.399 17.6,41.649 m 60.775,-59.25 h -1.55 c -16.233,-0.184 -30.125,-6.033 -41.675,-17.55 -11.517,-11.533 -17.366,-25.425 -17.55,-41.675 v -1.525 c 0.184,-16.25 6.033,-30.133 17.55,-41.649 11.55,-11.534 25.442,-17.401 41.675,-17.601 h 1.55 c 16.233,0.2 30.108,6.067 41.625,17.601 11.534,11.516 17.4,25.399 17.6,41.649 v 1.525 c -0.2,16.25 -6.066,30.142 -17.6,41.675 -11.517,11.517 -25.392,17.366 -41.625,17.55 M -1320,-959.225 v -1.525 c 0.184,-16.25 6.033,-30.133 17.55,-41.649 11.55,-11.534 25.442,-17.401 41.675,-17.601 h 1.55 c 16.233,0.2 30.108,6.067 41.625,17.601 11.534,11.516 17.4,25.399 17.6,41.649 v 1.525 c -0.2,16.25 -6.066,30.142 -17.6,41.675 -11.517,11.517 -25.392,17.366 -41.625,17.55 h -1.55 c -16.233,-0.184 -30.125,-6.033 -41.675,-17.55 -11.517,-11.533 -17.366,-25.425 -17.55,-41.675 M -1739.225,-900 h -1.55 c -16.233,-0.184 -30.125,-6.033 -41.675,-17.55 -11.517,-11.533 -17.367,-25.425 -17.55,-41.675 v -1.525 c 0.183,-16.25 6.033,-30.133 17.55,-41.649 11.55,-11.534 25.442,-17.401 41.675,-17.601 h 1.55 c 16.233,0.2 30.108,6.067 41.625,17.601 11.533,11.516 17.4,25.399 17.6,41.649 v 1.525 c -0.2,16.25 -6.067,30.142 -17.6,41.675 -11.517,11.517 -25.392,17.366 -41.625,17.55 m -120,120 h -1.55 c -16.233,-0.184 -30.125,-6.033 -41.675,-17.55 -11.7,-11.733 -17.55,-25.884 -17.55,-42.45 0,-16.55 5.85,-30.684 17.55,-42.399 11.55,-11.535 25.442,-17.401 41.675,-17.601 h 1.55 c 16.233,0.2 30.108,6.066 41.625,17.601 11.533,11.516 17.4,25.399 17.6,41.649 v 1.525 c -0.2,16.25 -6.067,30.142 -17.6,41.675 -11.517,11.517 -25.392,17.366 -41.625,17.55 m 1080,-120 h -1.55 c -16.233,-0.184 -30.125,-6.033 -41.675,-17.55 -11.517,-11.533 -17.366,-25.425 -17.55,-41.675 v -1.525 c 0.184,-16.25 6.033,-30.133 17.55,-41.649 11.55,-11.534 25.442,-17.401 41.675,-17.601 h 1.55 c 16.233,0.2 30.108,6.067 41.625,17.601 11.534,11.516 17.4,25.399 17.6,41.649 v 1.525 c -0.2,16.25 -6.066,30.142 -17.6,41.675 -11.517,11.517 -25.392,17.366 -41.625,17.55 m -120,120 h -1.55 c -16.233,-0.184 -30.125,-6.033 -41.675,-17.55 -11.517,-11.533 -17.366,-25.425 -17.55,-41.675 v -1.525 c 0.184,-16.25 6.033,-30.133 17.55,-41.649 11.55,-11.535 25.442,-17.401 41.675,-17.601 h 1.55 c 16.233,0.2 30.108,6.066 41.625,17.601 11.534,11.516 17.4,25.399 17.6,41.649 v 1.525 c -0.2,16.25 -6.066,30.142 -17.6,41.675 -11.517,11.517 -25.392,17.366 -41.625,17.55 M -1080,-840.75 v 1.525 c -0.2,16.25 -6.066,30.142 -17.6,41.675 -11.517,11.517 -25.392,17.366 -41.625,17.55 h -1.55 c -16.233,-0.184 -30.125,-6.033 -41.675,-17.55 -11.517,-11.533 -17.366,-25.425 -17.55,-41.675 v -1.525 c 0.184,-16.25 6.033,-30.133 17.55,-41.649 11.55,-11.535 25.442,-17.401 41.675,-17.601 h 1.55 c 16.233,0.2 30.108,6.066 41.625,17.601 11.534,11.516 17.4,25.399 17.6,41.649 m 60.775,-59.25 h -1.55 c -16.233,-0.184 -30.125,-6.033 -41.675,-17.55 -11.517,-11.533 -17.366,-25.425 -17.55,-41.675 v -1.525 c 0.184,-16.25 6.033,-30.133 17.55,-41.649 11.55,-11.534 25.442,-17.401 41.675,-17.601 h 1.55 c 16.233,0.2 30.108,6.067 41.625,17.601 11.534,11.516 17.4,25.399 17.6,41.649 v 1.525 c -0.2,16.25 -6.066,30.142 -17.6,41.675 -11.517,11.517 -25.392,17.366 -41.625,17.55"
       style="fill:#70f8f8;fill-opacity:1;fill-rule:nonzero;stroke:none"
       transform="matrix(1.3333333,0,0,-1.3333333,2560,80.000267)"
       clip-path="url(#clipPath5)" />
    <path
       id="path6"
       d="m 0,0 -0.125,0.2 -25.024,-7.125 -12,-15.35 9.099,-13.575 z m -4.024,-97.375 0.174,0.225 -22.2,33.125 -33.974,12.55 -36.226,-46.225 -0.95,-26.025 0.25,-0.075 36.926,47.125 56,-20.7 m -147.351,54.325 -0.024,-0.25 55.474,-20.25 0.901,24.875 -18.151,6.625 -38.2,-11 m -121.524,393.7 -0.125,0.2 -25.026,-7.125 -12,-15.35 9.1,-13.575 28.051,35.85 m -4.026,-97.375 0.175,0.225 -22.2,33.125 -33.975,12.55 -36.224,-46.225 -0.951,-26.025 0.25,-0.075 36.925,47.125 56,-20.7 m -91,58.7 -18.15,6.625 -38.199,-11 -0.026,-0.25 55.475,-20.25 0.9,24.875 m -241.05,-919.775 -25.025,-7.125 -12,-15.35 9.101,-13.575 28.049,35.85 -0.125,0.2 m -25.924,-64.225 -33.976,12.55 -36.225,-46.225 -0.95,-26.025 0.25,-0.075 36.925,47.125 56,-20.7 0.175,0.225 -22.199,33.125 m -125.326,20.975 -0.025,-0.25 55.476,-20.25 0.899,24.875 -18.149,6.625 -38.201,-11 m -167.4,1098.475 -0.125,0.2 -25.025,-7.125 -12,-15.35 9.1,-13.575 28.05,35.85 m -4.025,-97.375 0.175,0.225 -22.2,33.125 -33.975,12.55 -36.225,-46.225 -0.95,-26.025 0.25,-0.075 36.925,47.125 56,-20.7 m -91,58.7 -18.15,6.625 -38.2,-11 -0.025,-0.25 55.475,-20.25 0.9,24.875 m -798.175,-672.775 -0.125,0.2 -25.025,-7.125 -12,-15.35 9.1,-13.575 28.05,35.85 m -4.025,-97.375 0.175,0.225 -22.2,33.125 -33.975,12.55 -36.225,-46.225 -0.95,-26.025 0.25,-0.075 36.925,47.125 56,-20.7 m -91.9,33.825 0.9,24.875 -18.15,6.625 -38.2,-11 -0.025,-0.25 55.475,-20.25 m 262.825,-233.375 -0.125,0.2 -25.025,-7.125 -12,-15.35 9.1,-13.575 28.05,35.85 m -95.025,-38.675 -18.15,6.625 -38.2,-11 -0.025,-0.25 55.475,-20.25 0.9,24.875 m 91,-58.7 0.175,0.225 -22.2,33.125 -33.975,12.55 -36.225,-46.225 -0.95,-26.025 0.25,-0.075 36.925,47.125 56,-20.7 m 288.725,983.125 -12.025,-15.35 9.1,-13.575 28.05,35.85 -0.125,0.2 -25,-7.125 m -126.25,-36.125 -0.025,-0.25 55.475,-20.25 0.9,24.875 -18.125,6.625 -38.225,-11 m 125.325,-21 -33.975,12.575 -36.225,-46.25 -0.95,-26 0.25,-0.075 36.925,47.125 56,-20.7 0.175,0.225 z"
       style="fill:#10c0b8;fill-opacity:1;fill-rule:nonzero;stroke:none"
       transform="matrix(1.3333333,0,0,-1.3333333,2501.5664,559.26653)"
       clip-path="url(#clipPath7)" />
    <path
       id="path8"
       d="M 0,0 -0.125,0.2 -57.774,-16.225 -90.95,33.3 -91.2,33.225 -93.524,-26.4 l -57.851,-16.65 -0.024,-0.25 38.224,-13.95 18.151,-6.625 -0.901,-24.875 -1.275,-34.975 0.25,-0.075 0.7,0.9 36.226,46.225 33.974,-12.55 22.026,-8.15 0.174,0.225 -24.2,36.1 -9.099,13.575 12,15.35 z m -608.85,-608 -0.125,0.2 -57.65,-16.425 -33.175,49.525 -0.25,-0.074 -2.325,-59.625 -57.85,-16.651 -0.025,-0.25 38.226,-13.95 18.149,-6.625 -0.899,-24.875 -1.276,-34.975 0.25,-0.075 0.7,0.901 36.225,46.224 33.976,-12.55 22.024,-8.15 0.175,0.226 -24.199,36.099 -9.101,13.575 12,15.35 25.15,32.125 m -1302.925,377.275 -0.25,-0.075 -2.325,-59.625 -57.85,-16.65 -0.025,-0.25 38.225,-13.949 18.15,-6.625 -0.9,-24.875 -1.275,-34.976 0.25,-0.075 0.7,0.9 36.225,46.225 33.975,-12.55 22.025,-8.149 0.175,0.224 -24.2,36.1 -9.1,13.575 12,15.351 25.15,32.125 -0.125,0.199 -57.65,-16.425 -33.175,49.525 m 476.725,595.75 -0.25,-0.075 -2.325,-59.625 -57.85,-16.65 -0.025,-0.25 38.25,-13.95 18.125,-6.625 -0.9,-24.875 -1.275,-34.975 0.25,-0.075 0.7,0.875 36.225,46.25 33.975,-12.575 22.025,-8.125 0.175,0.225 -24.2,36.1 -9.1,13.575 12.025,15.35 25.125,32.125 -0.125,0.2 -57.65,-16.425 z"
       style="fill:#f85000;fill-opacity:1;fill-rule:nonzero;stroke:none"
       transform="matrix(1.3333333,0,0,-1.3333333,2501.5664,525.66693)"
       clip-path="url(#clipPath9)" />
    <path
       id="path10"
       d="M 0,0 -0.125,0.2 -57.775,-16.225 -90.95,33.3 -91.2,33.225 -93.525,-26.4 l -57.85,-16.65 -0.025,-0.25 38.224,-13.95 18.151,-6.625 -0.901,-24.875 -1.274,-34.975 0.25,-0.075 0.7,0.9 36.225,46.225 33.974,-12.55 22.026,-8.15 0.174,0.225 -24.2,36.1 -9.099,13.575 12,15.35 z m -654.726,96.775 -0.125,0.2 -57.649,-16.425 -33.175,49.525 -0.25,-0.075 -2.325,-59.625 -57.851,-16.65 -0.024,-0.25 38.225,-13.95 18.15,-6.625 -0.9,-24.875 -1.275,-34.975 0.25,-0.075 0.699,0.9 36.226,46.225 33.975,-12.55 22.025,-8.15 0.175,0.225 -24.2,36.1 -9.1,13.575 12,15.35 25.149,32.125 m -726.299,-1008.376 -0.125,0.201 -57.65,-16.425 -33.176,49.525 -0.25,-0.075 -2.324,-59.625 -57.85,-16.65 -0.025,-0.25 38.225,-13.951 18.15,-6.625 -0.9,-24.875 -1.276,-34.974 0.25,-0.075 0.701,0.9 36.225,46.225 33.975,-12.55 22.025,-8.151 0.175,0.226 -24.2,36.1 -9.1,13.575 12,15.349 z"
       style="fill:#f8d008;fill-opacity:1;fill-rule:nonzero;stroke:none"
       transform="matrix(1.3333333,0,0,-1.3333333,2137.7005,58.1332)"
       clip-path="url(#clipPath11)" />
    <path
       id="path12"
       d="m 0,0 -12.45,-3.425 -7.15,10.35 h -0.049 l -0.5,-12.5 -12.5,-3.475 V -9.1 l 12.174,-4.3 -0.475,-12.55 h 0.051 l 7.974,9.85 12.075,-4.325 0.05,0.05 -7.2,10.4 8.025,9.925 z M 1.325,-607.95 1.175,-608 -0.149,-641.85 -33,-651.3 v -0.15 l 32,-11.675 -1.225,-33.975 0.125,-0.049 20.975,26.75 31.775,-11.75 0.1,0.149 -18.899,28.175 21.099,26.95 -0.075,0.125 -32.725,-9.325 -18.825,28.125 m 190.25,-378.025 -0.15,-0.049 -1.324,-33.851 -32.851,-9.45 v -0.15 l 32,-11.674 -1.225,-33.976 0.125,-0.05 20.975,26.75 31.775,-11.75 0.1,0.151 -18.899,28.174 21.099,26.951 -0.075,0.125 -32.725,-9.326 -18.825,28.125 m -297.25,-55.424 -7.15,10.349 h -0.05 l -0.5,-12.5 -12.5,-3.474 v -0.051 l 12.175,-4.3 -0.475,-12.55 h 0.05 l 7.976,9.85 12.074,-4.324 0.051,0.049 -7.201,10.4 8.025,9.926 -0.025,0.049 -12.45,-3.424 m -177.3,1067.774 -0.075,0.125 -32.724,-9.325 -18.826,28.125 -0.15,-0.05 -1.325,-33.85 -32.85,-9.45 V 1.8 l 32,-11.675 -1.224,-33.975 0.125,-0.05 20.974,26.75 31.776,-11.75 0.099,0.15 -18.9,28.175 21.1,26.95 M -445.1,-0.2 l -12.45,-3.425 -7.15,10.35 h -0.05 l -0.5,-12.5 -12.5,-3.475 V -9.3 l 12.175,-4.3 -0.475,-12.55 h 0.05 l 7.976,9.85 12.074,-4.325 0.051,0.05 -7.201,10.4 8.025,9.925 -0.025,0.05 m -441.375,-107.975 -0.15,-0.05 -1.325,-33.85 -32.85,-9.45 v -0.15 l 32,-11.675 -1.225,-33.975 0.125,-0.05 20.975,26.75 31.775,-11.75 0.1,0.15 -18.9,28.175 21.1,26.95 -0.075,0.125 -32.725,-9.325 -18.825,28.125 m -314.3,-122.95 v -0.05 l 12.175,-4.3 -0.475,-12.55 h 0.05 l 7.975,9.85 12.075,-4.325 0.05,0.05 -7.2,10.4 8.025,9.925 -0.025,0.05 -12.45,-3.425 -7.15,10.35 h -0.05 l -0.5,-12.5 -12.5,-3.475 m -167.775,-257.825 -0.15,-0.05 -1.325,-33.85 -32.85,-9.45 v -0.15 l 32,-11.675 -1.225,-33.975 0.125,-0.049 20.975,26.749 31.775,-11.749 0.1,0.149 -18.9,28.175 21.1,26.95 -0.075,0.125 -32.725,-9.325 -18.825,28.125 m -61.5,-80.1 -0.025,0.05 -12.45,-3.425 -7.15,10.35 h -0.05 l -0.5,-12.5 -12.5,-3.475 v -0.05 l 12.175,-4.299 -0.475,-12.551 h 0.05 l 7.975,9.85 12.075,-4.325 0.05,0.05 -7.2,10.4 8.025,9.925 m -113.775,-348.075 h -0.05 l -0.5,-12.5 -12.5,-3.475 v -0.049 l 12.175,-4.301 -0.475,-12.55 h 0.05 l 7.975,9.851 12.075,-4.326 0.05,0.05 -7.2,10.401 8.025,9.924 -0.025,0.05 -12.45,-3.425 -7.15,10.35 m 715.2,-131.95 -0.15,-0.05 -1.325,-33.85 -32.85,-9.45 v -0.15 l 32,-11.675 -1.225,-33.975 0.125,-0.049 20.975,26.75 31.775,-11.75 0.1,0.149 -18.9,28.175 21.1,26.95 -0.075,0.125 -32.725,-9.325 z"
       style="fill:#f85000;fill-opacity:1;fill-rule:nonzero;stroke:none"
       transform="matrix(1.3333333,0,0,-1.3333333,2111.2331,-22.1664)"
       clip-path="url(#clipPath13)" />
    <path
       id="path14"
       d="m 0,0 -0.15,-0.05 -1.325,-33.85 -32.85,-9.45 v -0.15 l 32,-11.675 -1.225,-33.975 0.125,-0.05 20.975,26.75 31.775,-11.75 0.1,0.15 -18.9,28.175 21.1,26.95 -0.075,0.125 -32.725,-9.325 z m 69.9,-498.225 12.175,-4.3 -0.475,-12.55 h 0.05 l 7.975,9.85 12.075,-4.325 0.05,0.05 -7.2,10.4 8.025,9.925 -0.025,0.05 -12.45,-3.425 -7.15,10.35 H 82.9 l -0.5,-12.5 -12.5,-3.475 v -0.05 m -402.85,-336.05 -0.15,-0.05 -1.325,-33.85 -32.85,-9.45 v -0.15 l 32,-11.675 -1.225,-33.975 0.125,-0.05 20.975,26.75 31.775,-11.75 0.1,0.15 -18.9,28.175 21.1,26.95 -0.075,0.125 -32.725,-9.325 -18.825,28.125 m -486.525,836.2 -0.025,0.05 -12.45,-3.425 -7.15,10.35 h -0.05 l -0.5,-12.5 -12.5,-3.475 v -0.05 l 12.175,-4.3 -0.475,-12.55 h 0.05 l 7.975,9.85 12.075,-4.325 0.05,0.05 -7.2,10.4 8.025,9.925 m -884.575,58.2 -0.15,-0.05 -1.325,-33.85 -32.85,-9.45 v -0.15 l 32,-11.675 -1.225,-33.975 0.125,-0.05 20.975,26.75 31.775,-11.75 0.1,0.15 -18.9,28.175 21.1,26.95 -0.075,0.125 -32.725,-9.325 -18.825,28.125 m 64.1,-580.675 -7.15,10.35 h -0.05 l -0.5,-12.5 -12.5,-3.475 v -0.05 l 12.175,-4.3 -0.475,-12.55 h 0.05 l 7.975,9.85 12.075,-4.325 0.05,0.05 -7.2,10.4 8.025,9.925 -0.025,0.05 -12.45,-3.425 m 198.875,-226.65 v -0.05 l 12.175,-4.3 -0.475,-12.55 h 0.05 l 7.975,9.85 12.075,-4.325 0.05,0.05 -7.2,10.4 8.025,9.925 -0.025,0.05 -12.45,-3.425 -7.15,10.35 h -0.05 l -0.5,-12.5 -12.5,-3.475 m 27.85,-69.3 v -0.15 l 32,-11.675 -1.225,-33.975 0.125,-0.05 20.975,26.75 31.775,-11.75 0.1,0.15 -18.9,28.175 21.1,26.95 -0.075,0.125 -32.725,-9.325 -18.825,28.125 -0.15,-0.05 -1.325,-33.85 -32.85,-9.45 m 262.2,-139.625 -0.5,-12.5 -12.5,-3.475 v -0.05 l 12.175,-4.3 -0.475,-12.55 h 0.05 l 7.975,9.85 12.075,-4.325 0.05,0.05 -7.2,10.4 8.025,9.925 -0.025,0.05 -12.45,-3.425 -7.15,10.35 h -0.05 m 355.15,-4.175 -0.15,-0.05 -1.325,-33.85 -32.85,-9.45 v -0.15 l 32,-11.675 -1.225,-33.975 0.125,-0.05 20.975,26.75 31.775,-11.75 0.1,0.15 -18.9,28.175 21.1,26.95 -0.075,0.125 -32.725,-9.325 -18.825,28.125 m 268.925,12.2 H -527 l -0.5,-12.5 -12.5,-3.475 v -0.05 l 12.175,-4.3 -0.475,-12.55 h 0.05 l 7.975,9.85 12.075,-4.325 0.05,0.05 -7.2,10.4 8.025,9.925 -0.025,0.05 -12.45,-3.425 z"
       style="fill:#f8d008;fill-opacity:1;fill-rule:nonzero;stroke:none"
       transform="matrix(1.3333333,0,0,-1.3333333,2433,100.3668)"
       clip-path="url(#clipPath15)" />
    <path
       id="path16"
       d="m 0,0 c 10.888,27.916 16.556,57.823 16.556,87.995 0,133.331 -108.472,241.804 -241.802,241.804 -77.702,0 -149.346,-37.124 -194.322,-97.838 -31.174,15.575 -65.779,23.862 -101.131,23.862 -46.702,0 -91.546,-14.126 -129.683,-40.85 -19.775,-13.858 -37.014,-30.558 -51.257,-49.514 -38.252,24.004 -82.914,37.161 -128.674,37.161 -133.332,0 -241.804,-108.473 -241.804,-241.804 0,-53.601 17.184,-104.382 49.693,-146.855 22.708,-29.669 52.269,-53.776 85.595,-70.211 -0.456,-5.835 -0.684,-11.698 -0.684,-17.568 0,-123.855 100.764,-224.619 224.617,-224.619 46.466,0 91.065,14.077 128.98,40.71 22.553,15.844 41.768,35.407 56.963,57.81 25.356,-9.583 52.363,-14.536 79.95,-14.536 69.433,0 134.675,32.441 177.102,85.566 27.929,-12.454 58.239,-18.907 89.587,-18.907 121.651,0 220.622,98.968 220.622,220.621 C 40.308,-81.112 26.175,-36.99 0,0"
       style="fill:#00b3f0;fill-opacity:1;fill-rule:nonzero;stroke:none"
       transform="matrix(1.3333333,0,0,-1.3333333,1967.8893,607.7248)"
       clip-path="url(#clipPath17)" />
    <path
       id="path18"
       d="m 0,0 c 13.306,28.536 20.28,59.89 20.28,91.58 0,119.447 -97.176,216.625 -216.623,216.625 -77.187,0 -147.696,-40.886 -186.37,-106.14 -32.325,20.882 -70.196,32.164 -109.083,32.164 -41.505,0 -81.352,-12.55 -115.232,-36.292 -24.385,-17.087 -44.427,-39.03 -59.043,-64.44 -38.176,30.484 -86.05,47.528 -135.34,47.528 -119.446,0 -216.624,-97.177 -216.624,-216.624 0,-89.25 55.53,-169.407 137.335,-201.64 -1.815,-10.872 -2.73,-21.909 -2.73,-32.995 0,-109.971 89.468,-199.438 199.438,-199.438 41.257,0 80.853,12.495 114.506,36.133 25.789,18.117 46.665,41.708 61.329,69.101 27.809,-13.961 58.506,-21.251 90.057,-21.251 68.627,0 132.644,35.658 169.29,92.607 29.496,-17.043 62.725,-25.948 97.399,-25.948 107.766,0 195.441,87.675 195.441,195.441 C 44.03,-78.143 28.502,-34.829 0,0"
       style="fill:#ffffff;fill-opacity:1;fill-rule:nonzero;stroke:none"
       transform="matrix(1.3333333,0,0,-1.3333333,1929.3516,612.5048)"
       clip-path="url(#clipPath19)" />
    <path
       id="path20"
       d="m 0,0 c 15.722,28.084 24.696,60.458 24.696,94.932 0,107.498 -87.144,194.642 -194.642,194.642 -80.017,0 -148.745,-48.291 -178.661,-117.313 -31.354,27.007 -72.164,43.337 -116.792,43.337 -76.354,0 -141.534,-47.797 -167.281,-115.099 -35.529,38.078 -86.146,61.896 -142.334,61.896 -107.498,0 -194.642,-87.145 -194.642,-194.643 0,-88.905 59.607,-163.884 141.036,-187.163 -4.185,-15.111 -6.432,-31.028 -6.432,-47.472 0,-98.006 79.45,-177.456 177.457,-177.456 75.819,0 140.521,47.555 165.935,114.461 28.547,-19.244 62.939,-30.479 99.957,-30.479 71.321,0 132.897,41.703 161.689,102.053 29.149,-22.202 65.532,-35.393 105,-35.393 95.799,0 173.459,77.66 173.459,173.459 C 48.445,-73.553 29.997,-31.181 0,0"
       style="fill:#130c0e;fill-opacity:1;fill-rule:nonzero;stroke:none"
       transform="matrix(1.3333333,0,0,-1.3333333,1894.1563,616.9736)"
       clip-path="url(#clipPath21)" />
    <path
       id="path22"
       d="M 0,0 V 14.971 L -3.764,-0.869 -7.84,-1.811 -11.515,12.313 V -2.658 l -3.852,-0.89 v 17.921 l 6.019,1.391 3.63,-13.378 0.044,0.01 3.541,15.033 5.942,1.372 V 0.879 Z M -27.819,-6.423 V 8.32 l -6.199,-1.43 v 3.177 l 16.395,3.786 V 10.674 L -23.598,9.295 V -5.448 Z"
       style="fill:#f15a22;fill-opacity:1;fill-rule:nonzero;stroke:none"
       transform="matrix(1.3333333,0,0,-1.3333333,1894.138,863.90653)"
       clip-path="url(#clipPath23)" />
    <path
       id="path24"
       d="m 0,0 c 0,0 -0.279,-72.75 -1.185,-85.547 -1.415,-19.988 -6.785,-20.524 -11.356,-17.526 -9.119,5.982 -26.16,40.053 -41.418,69.681 l -22.259,-5.139 V -222.63 l 27.218,6.284 0.092,46.713 c 0.048,23.979 6.595,25.539 16.108,16.828 7.219,-6.609 17.042,-21.185 32.521,-45.969 l 36.019,8.315 V 8.251 Z"
       style="fill:#f15a22;fill-opacity:1;fill-rule:nonzero;stroke:none"
       transform="matrix(1.3333333,0,0,-1.3333333,1783.8855,609.89867)"
       clip-path="url(#clipPath25)" />
    <path
       id="path26"
       d="m 0,0 c -0.825,-0.004 -6.939,0.204 -7.594,4.869 -0.379,2.701 0.918,5.237 4.18,7.234 5.102,3.12 22.762,8.196 39.712,12.17 v 23.439 c 0,0 -30.692,-7.385 -40.129,-5.982 -2.867,0.427 -4.776,1.942 -5.156,4.59 -0.388,2.707 0.975,5.147 4.18,7.234 8.632,5.622 47.375,13.979 47.375,13.979 V 121.61 L -37.203,103.194 V -40.971 L 44.24,-22.168 V 7.79 C 22.503,2.852 7.811,0.043 0,0"
       style="fill:#f15a22;fill-opacity:1;fill-rule:nonzero;stroke:none"
       transform="matrix(1.3333333,0,0,-1.3333333,1600.7019,855.78413)"
       clip-path="url(#clipPath27)" />
    <path
       id="path28"
       d="m 0,0 c 0,0 -8.642,-56.935 -16.314,-83.246 -2.193,-7.518 -7.493,-19.022 -14.701,-2.573 -2.582,5.89 -10.245,33.414 -15.87,68.897 l -24.886,-5.746 c 2.178,-24.397 14.125,-90.293 30.042,-128.683 l 48.266,11.144 c 17.766,47.016 28.425,96.674 32.048,149.115 z"
       style="fill:#f15a22;fill-opacity:1;fill-rule:nonzero;stroke:none"
       transform="matrix(1.3333333,0,0,-1.3333333,1483.1172,712.37653)"
       clip-path="url(#clipPath29)" />
    <path
       id="path30"
       d="m 0,0 -17.059,-3.938 c -4.279,-0.988 -6.768,1.625 -6.247,7.729 0.488,5.712 2.99,17.819 3.941,21.907 2.103,9.042 6.238,12.811 11.099,13.49 C -2.032,40.057 3.411,34.608 6.392,19.84 6.68,18.412 7.407,15.449 7.881,11.422 8.456,6.531 6.057,1.398 0,0 M 21.272,81.615 C 9.193,103.869 -4.854,99.258 -12.051,96.876 -21.48,93.756 -29.851,88.912 -38.608,54.172 -47.815,17.654 -57.849,-59.145 -57.849,-59.145 l 25.268,5.834 2.611,14.634 c 1.254,7.025 5.725,11.488 12.54,13.492 6.554,1.929 19.581,5.082 26.266,5.842 2.823,0.322 6.142,-1.907 7.106,-6.328 l 3.413,-15.649 34.417,7.946 c 0,0 -17.121,86.654 -32.5,114.989"
       style="fill:#f15a22;fill-opacity:1;fill-rule:nonzero;stroke:none"
       transform="matrix(1.3333333,0,0,-1.3333333,1340.5287,925.5536)"
       clip-path="url(#clipPath31)" />
    <path
       id="path32"
       d="m 0,0 c -0.826,-0.005 -6.94,0.204 -7.594,4.868 -0.379,2.702 0.918,5.238 4.18,7.234 5.102,3.121 22.762,8.196 39.711,12.171 v 23.439 c 0,0 -30.69,-7.386 -40.129,-5.982 -2.866,0.426 -4.776,1.942 -5.155,4.59 -0.388,2.707 0.976,5.147 4.18,7.234 8.632,5.622 47.375,13.979 47.375,13.979 v 58.292 L -37.203,107.408 V -36.756 L 44.24,-17.953 V 7.79 C 22.503,2.852 7.811,0.043 0,0"
       style="fill:#f15a22;fill-opacity:1;fill-rule:nonzero;stroke:none"
       transform="matrix(1.3333333,0,0,-1.3333333,1189.0059,964.1708)"
       clip-path="url(#clipPath33)" />
    <path
       id="path34"
       d="m 0,0 c 0,-28.768 0.146,-50.298 -3.796,-64.405 -2.393,-8.571 -7.663,-15.093 -14.7,-20.032 -7.167,-5.029 -14.352,-7.232 -21.388,-7.372 -8.58,-0.169 -14.852,4.5 -15.769,14.034 -1.317,13.695 -1.23,31.004 -1.23,54.986 l -31.142,-7.19 v -212.126 l 42.776,9.875 c 0,26.997 0.554,46.895 3.881,59.306 2.268,8.458 8.435,15.597 14.662,19.802 7.278,4.914 13.973,7.372 21.024,7.487 8.569,0.139 15.076,-4.284 15.884,-12.83 1.185,-12.518 1.262,-29.544 1.262,-52.776 l 31.697,7.318 V 9.965 Z"
       style="fill:#f15a22;fill-opacity:1;fill-rule:nonzero;stroke:none"
       transform="matrix(1.3333333,0,0,-1.3333333,1057.0515,803.70853)"
       clip-path="url(#clipPath35)" />
    <path
       id="path36"
       d="m 0,0 v 184.705 l -25.249,-5.83 c -13.392,-44.22 -20.967,-65.844 -27.574,-84.07 -11.244,-31.018 -22.94,-18.842 -28.365,-10.183 -6.342,10.125 -14.925,29.856 -29.852,65.985 l -36.873,-8.512 v -170.91 l 30.575,7.059 c -0.232,27.667 0.247,43.791 1.741,51.09 1.343,6.558 5.294,7.482 9.3,0.977 3.296,-5.352 8.51,-16.926 18.879,-40.733 l 20.506,4.734 c 11.299,30.364 17.405,45.662 21.715,53.157 3.499,6.085 10.123,10.366 12.136,-0.884 1.524,-8.511 1.395,-25.635 1.349,-53.906 z"
       style="fill:#faa61a;fill-opacity:1;fill-rule:nonzero;stroke:none"
       transform="matrix(1.3333333,0,0,-1.3333333,1779.6979,577.0588)"
       clip-path="url(#clipPath37)" />
    <path
       id="path38"
       d="m 0,0 c 0,0 0.607,-40.116 -0.76,-53.397 -1.814,-17.624 -33.055,-23.709 -34.378,-5.696 -0.59,8.041 -1.043,18.41 -1.043,42.087 l -25.53,-5.894 v -158.223 l 35.007,8.082 v 36.54 c 0,28.103 34.911,30.453 36.791,10.809 0.592,-6.177 0.892,-15.806 0.892,-35.787 l 25.531,5.894 V 8.429 Z"
       style="fill:#faa61a;fill-opacity:1;fill-rule:nonzero;stroke:none"
       transform="matrix(1.3333333,0,0,-1.3333333,1514.0221,443.62853)"
       clip-path="url(#clipPath39)" />
    <path
       id="path40"
       d="m 0,0 v -65.206 l 23.556,5.438 c 9.388,2.168 12.684,0.175 12.616,-18.685 v -83.797 l 27.909,6.444 v 77.544 c 0.194,33.289 4.101,40.18 20.655,44.002 l 14.782,3.412 v 53.824 z"
       style="fill:#faa61a;fill-opacity:1;fill-rule:nonzero;stroke:none"
       transform="matrix(1.3333333,0,0,-1.3333333,1280.8607,473.90653)"
       clip-path="url(#clipPath41)" />
    <path
       id="path42"
       d="m 0,0 -29.766,-6.872 c 0,0 -0.186,-22.523 -1.832,-52.352 -1.751,-31.708 -35.91,-41.431 -37.86,-9.175 -1.246,20.604 -1.048,48.542 -1.048,48.542 l -35.63,-8.226 v -15.255 c 0,-59.405 6.825,-79.566 42.71,-75.69 8.392,0.906 14.781,3.572 21.983,8.447 0.448,0.304 1.018,0.311 1.552,-0.102 0.512,-0.397 1.342,-1.73 0.093,-5.608 -6.729,-20.889 -64.363,-27.1 -64.363,-27.1 v -46.677 c 32.938,4.847 68.79,11.861 87.603,43.117 C -9.53,-135.275 0,-121.179 0,0"
       style="fill:#faa61a;fill-opacity:1;fill-rule:nonzero;stroke:none"
       transform="matrix(1.3333333,0,0,-1.3333333,1262.4844,510.82187)"
       clip-path="url(#clipPath43)" />
    <path
       id="path44"
       d="m 0,0 c 0,0 0.577,-38.125 -0.722,-50.747 -1.724,-16.75 -31.416,-22.533 -32.672,-5.413 -0.561,7.641 -0.991,17.496 -0.991,39.998 l -24.264,-5.602 v -150.371 l 33.27,7.681 v 34.726 c 0,26.709 33.179,28.942 34.965,10.273 0.562,-5.87 0.848,-15.021 0.848,-34.011 l 24.264,5.601 V 8.011 Z"
       style="fill:#faa61a;fill-opacity:1;fill-rule:nonzero;stroke:none"
       transform="matrix(1.3333333,0,0,-1.3333333,1052.6361,544.22613)"
       clip-path="url(#clipPath45)" />
    <path
       id="path46"
       d="m 0,0 c -15.235,-3.885 -24.221,4.276 -24.221,24.756 0,16.336 0.308,33.201 30.216,33.201 21.292,0 30.195,-10.782 30.195,-22.944 C 36.19,24.421 23.231,5.924 0,0 m 89.409,67.476 c 0,37.615 -27.715,83.112 -143.676,55.203 V -81.9 l 30.198,6.972 v 36.962 c 0,15.022 8.654,12.255 14.177,8.658 4.29,-2.793 13.387,-10.125 34.893,-34.291 l 51.3,11.844 -39.976,40.93 c 0,0 53.084,21.374 53.084,78.301"
       style="fill:#faa61a;fill-opacity:1;fill-rule:nonzero;stroke:none"
       transform="matrix(1.3333333,0,0,-1.3333333,833.75267,692.87987)"
       clip-path="url(#clipPath47)" />
  </g>
</svg>
