<?xml version="1.0" encoding="UTF-8" standalone="no"?>
<!-- Created with Inkscape (http://www.inkscape.org/) -->

<svg
   version="1.1"
   id="svg2"
   width="2560"
   height="1440"
   viewBox="0 0 2560 1440"
   sodipodi:docname="Rhythm Heaven (Mysikt).ai"
   xmlns:inkscape="http://www.inkscape.org/namespaces/inkscape"
   xmlns:sodipodi="http://sodipodi.sourceforge.net/DTD/sodipodi-0.dtd"
   xmlns="http://www.w3.org/2000/svg"
   xmlns:svg="http://www.w3.org/2000/svg">
  <defs
     id="defs6">
    <clipPath
       clipPathUnits="userSpaceOnUse"
       id="clipPath18">
      <path
         d="M 0,1080 H 1920 V 0 H 0 Z"
         id="path16" />
    </clipPath>
  </defs>
  <sodipodi:namedview
     id="namedview4"
     pagecolor="#ffffff"
     bordercolor="#000000"
     borderopacity="0.25"
     inkscape:showpageshadow="2"
     inkscape:pageopacity="0.0"
     inkscape:pagecheckerboard="0"
     inkscape:deskcolor="#d1d1d1" />
  <g
     id="g8"
     inkscape:groupmode="layer"
     inkscape:label="Rhythm Heaven (Mysikt)"
     transform="matrix(1.3333333,0,0,-1.3333333,0,1440)">
    <path
       d="M 0,0 H 1920 V 1080 H 0 Z"
       style="fill:#38f0d0;fill-opacity:1;fill-rule:nonzero;stroke:none"
       id="path10" />
    <g
       id="g12">
      <g
         id="g14"
         clip-path="url(#clipPath18)">
        <g
           id="g20"
           transform="translate(1800,1019.25)">
          <path
             d="M 0,0 V 1.525 C -0.183,17.775 -6.05,31.667 -17.6,43.2 -29.3,54.9 -43.433,60.75 -60,60.75 -76.567,60.75 -90.717,54.9 -102.45,43.2 -113.95,31.667 -119.8,17.775 -120,1.525 V 0 c 0.2,-16.25 6.05,-30.125 17.55,-41.625 11.55,-11.55 25.442,-17.425 41.675,-17.625 h 1.55 c 16.233,0.2 30.108,6.075 41.625,17.625 C -6.05,-30.125 -0.183,-16.25 0,0 m 60.775,-59.25 h -1.55 C 42.992,-59.433 29.1,-65.283 17.55,-76.8 6.05,-88.333 0.2,-102.225 0,-118.475 V -120 c 0.2,-16.25 6.05,-30.125 17.55,-41.625 11.55,-11.55 25.442,-17.425 41.675,-17.625 h 1.55 c 16.233,0.2 30.108,6.075 41.625,17.625 11.733,11.7 17.6,25.825 17.6,42.375 0,16.567 -5.867,30.717 -17.6,42.45 -11.517,11.517 -25.392,17.367 -41.625,17.55 M -120,-120 v 1.525 c -0.183,16.25 -6.05,30.142 -17.6,41.675 -11.517,11.517 -25.392,17.367 -41.625,17.55 h -1.55 c -16.233,-0.183 -30.125,-6.033 -41.675,-17.55 -11.5,-11.533 -17.35,-25.425 -17.55,-41.675 V -120 c 0.2,-16.25 6.05,-30.125 17.55,-41.625 11.55,-11.55 25.442,-17.425 41.675,-17.625 h 1.55 c 16.233,0.2 30.108,6.075 41.625,17.625 11.55,11.5 17.417,25.375 17.6,41.625 m 60.775,-59.25 h -1.55 c -16.233,-0.183 -30.125,-6.033 -41.675,-17.55 -11.5,-11.533 -17.35,-25.425 -17.55,-41.675 V -240 c 0.2,-16.25 6.05,-30.125 17.55,-41.625 11.55,-11.55 25.442,-17.425 41.675,-17.625 h 1.55 c 16.233,0.2 30.108,6.075 41.625,17.625 11.55,11.5 17.417,25.375 17.6,41.625 v 1.525 c -0.183,16.25 -6.05,30.142 -17.6,41.675 -11.517,11.517 -25.392,17.367 -41.625,17.55 M -137.6,-316.8 c -11.517,11.517 -25.392,17.367 -41.625,17.55 h -1.55 c -16.233,-0.183 -30.125,-6.033 -41.675,-17.55 -11.5,-11.533 -17.35,-25.425 -17.55,-41.675 V -360 c 0.2,-16.25 6.05,-30.133 17.55,-41.65 11.55,-11.533 25.442,-17.4 41.675,-17.6 h 1.55 c 16.233,0.2 30.108,6.067 41.625,17.6 11.55,11.517 17.417,25.4 17.6,41.65 v 1.525 c -0.183,16.25 -6.05,30.142 -17.6,41.675 m 198.375,17.55 h -1.55 C 42.992,-299.433 29.1,-305.283 17.55,-316.8 6.05,-328.333 0.2,-342.225 0,-358.475 V -360 c 0.2,-16.25 6.05,-30.133 17.55,-41.65 11.55,-11.533 25.442,-17.4 41.675,-17.6 h 1.55 c 16.233,0.2 30.108,6.067 41.625,17.6 11.733,11.717 17.6,25.85 17.6,42.4 0,16.567 -5.867,30.717 -17.6,42.45 -11.517,11.517 -25.392,17.367 -41.625,17.55 M -240,0 v 1.525 c -0.183,16.25 -6.05,30.142 -17.6,41.675 -11.7,11.7 -25.833,17.55 -42.4,17.55 -16.567,0 -30.717,-5.85 -42.45,-17.55 C -353.95,31.667 -359.8,17.775 -360,1.525 V 0 c 0.2,-16.25 6.05,-30.125 17.55,-41.625 11.55,-11.55 25.442,-17.425 41.675,-17.625 h 1.55 c 16.233,0.2 30.108,6.075 41.625,17.625 11.55,11.5 17.417,25.375 17.6,41.625 m -240,0 v 1.525 c -0.2,16.25 -6.067,30.142 -17.6,41.675 -11.7,11.7 -25.833,17.55 -42.4,17.55 -16.567,0 -30.717,-5.85 -42.45,-17.55 C -593.967,31.667 -599.817,17.775 -600,1.525 V 0 c 0.183,-16.25 6.033,-30.125 17.55,-41.625 11.55,-11.55 25.442,-17.425 41.675,-17.625 h 1.55 c 16.233,0.2 30.108,6.075 41.625,17.625 11.533,11.5 17.4,25.375 17.6,41.625 m 0,-118.475 V -120 c 0.2,-16.25 6.05,-30.125 17.55,-41.625 11.55,-11.55 25.442,-17.425 41.675,-17.625 h 1.55 c 16.233,0.2 30.108,6.075 41.625,17.625 11.55,11.5 17.417,25.375 17.6,41.625 v 1.525 c -0.183,16.25 -6.05,30.142 -17.6,41.675 -11.517,11.517 -25.392,17.367 -41.625,17.55 h -1.55 c -16.233,-0.183 -30.125,-6.033 -41.675,-17.55 -11.5,-11.533 -17.35,-25.425 -17.55,-41.675 M -480,-240 v 1.525 c -0.2,16.25 -6.067,30.142 -17.6,41.675 -11.517,11.517 -25.392,17.367 -41.625,17.55 h -1.55 c -16.233,-0.183 -30.125,-6.033 -41.675,-17.55 -11.517,-11.533 -17.367,-25.425 -17.55,-41.675 V -240 c 0.183,-16.25 6.033,-30.125 17.55,-41.625 11.55,-11.55 25.442,-17.425 41.675,-17.625 h 1.55 c 16.233,0.2 30.108,6.075 41.625,17.625 11.533,11.5 17.4,25.375 17.6,41.625 m 120,1.525 V -240 c 0.2,-16.25 6.05,-30.125 17.55,-41.625 11.55,-11.55 25.442,-17.425 41.675,-17.625 h 1.55 c 16.233,0.2 30.108,6.075 41.625,17.625 11.55,11.5 17.417,25.375 17.6,41.625 v 1.525 c -0.183,16.25 -6.05,30.142 -17.6,41.675 -11.517,11.517 -25.392,17.367 -41.625,17.55 h -1.55 c -16.233,-0.183 -30.125,-6.033 -41.675,-17.55 -11.5,-11.533 -17.35,-25.425 -17.55,-41.675 m -59.225,-60.775 h -1.55 c -16.233,-0.183 -30.125,-6.033 -41.675,-17.55 -11.5,-11.533 -17.35,-25.425 -17.55,-41.675 V -360 c 0.2,-16.25 6.05,-30.133 17.55,-41.65 11.55,-11.533 25.442,-17.4 41.675,-17.6 h 1.55 c 16.233,0.2 30.108,6.067 41.625,17.6 11.55,11.517 17.417,25.4 17.6,41.65 v 1.525 c -0.183,16.25 -6.05,30.142 -17.6,41.675 -11.517,11.517 -25.392,17.367 -41.625,17.55 m 120,-120 h -1.55 c -16.233,-0.183 -30.125,-6.033 -41.675,-17.55 -11.5,-11.533 -17.35,-25.425 -17.55,-41.675 V -480 c 0.2,-16.25 6.05,-30.133 17.55,-41.65 11.55,-11.533 25.442,-17.4 41.675,-17.6 h 1.55 c 16.233,0.2 30.108,6.067 41.625,17.6 11.55,11.517 17.417,25.4 17.6,41.65 v 1.525 c -0.183,16.25 -6.05,30.142 -17.6,41.675 -11.517,11.517 -25.392,17.367 -41.625,17.55 M -480,-480 v 1.525 c -0.2,16.25 -6.067,30.142 -17.6,41.675 -11.517,11.517 -25.392,17.367 -41.625,17.55 h -1.55 c -16.233,-0.183 -30.125,-6.033 -41.675,-17.55 -11.517,-11.533 -17.367,-25.425 -17.55,-41.675 V -480 c 0.183,-16.25 6.033,-30.133 17.55,-41.65 11.55,-11.533 25.442,-17.4 41.675,-17.6 h 1.55 c 16.233,0.2 30.108,6.067 41.625,17.6 11.533,11.517 17.4,25.4 17.6,41.65 m 60.775,-59.25 h -1.55 c -16.233,-0.183 -30.125,-6.033 -41.675,-17.55 -11.5,-11.533 -17.35,-25.425 -17.55,-41.675 V -600 c 0.2,-16.25 6.05,-30.133 17.55,-41.65 11.55,-11.533 25.442,-17.4 41.675,-17.6 h 1.55 c 16.233,0.2 30.108,6.067 41.625,17.6 11.55,11.517 17.417,25.4 17.6,41.65 v 1.525 c -0.183,16.25 -6.05,30.142 -17.6,41.675 -11.517,11.517 -25.392,17.367 -41.625,17.55 M -480,-720 v 1.525 c -0.2,16.25 -6.067,30.142 -17.6,41.675 -11.517,11.517 -25.392,17.367 -41.625,17.55 h -1.55 c -16.233,-0.183 -30.125,-6.033 -41.675,-17.55 -11.517,-11.533 -17.367,-25.425 -17.55,-41.675 V -720 c 0.183,-16.25 6.033,-30.133 17.55,-41.65 11.55,-11.533 25.442,-17.4 41.675,-17.6 h 1.55 c 16.233,0.2 30.108,6.067 41.625,17.6 11.533,11.517 17.4,25.4 17.6,41.65 m 120,1.525 V -720 c 0.2,-16.25 6.05,-30.133 17.55,-41.65 11.55,-11.533 25.442,-17.4 41.675,-17.6 h 1.55 c 16.233,0.2 30.108,6.067 41.625,17.6 11.55,11.517 17.417,25.4 17.6,41.65 v 1.525 c -0.183,16.25 -6.05,30.142 -17.6,41.675 -11.517,11.517 -25.392,17.367 -41.625,17.55 h -1.55 c -16.233,-0.183 -30.125,-6.033 -41.675,-17.55 -11.5,-11.533 -17.35,-25.425 -17.55,-41.675 m 120,120 V -600 c 0.2,-16.25 6.05,-30.133 17.55,-41.65 11.55,-11.533 25.442,-17.4 41.675,-17.6 h 1.55 c 16.233,0.2 30.108,6.067 41.625,17.6 11.55,11.517 17.417,25.4 17.6,41.65 v 1.525 c -0.183,16.25 -6.05,30.142 -17.6,41.675 -11.517,11.517 -25.392,17.367 -41.625,17.55 h -1.55 c -16.233,-0.183 -30.125,-6.033 -41.675,-17.55 -11.5,-11.533 -17.35,-25.425 -17.55,-41.675 M 0,-480 v 1.525 c -0.183,16.25 -6.05,30.142 -17.6,41.675 -11.517,11.517 -25.392,17.367 -41.625,17.55 h -1.55 c -16.233,-0.183 -30.125,-6.033 -41.675,-17.55 -11.5,-11.533 -17.35,-25.425 -17.55,-41.675 V -480 c 0.2,-16.25 6.05,-30.133 17.55,-41.65 11.55,-11.533 25.442,-17.4 41.675,-17.6 h 1.55 c 16.233,0.2 30.108,6.067 41.625,17.6 11.55,11.517 17.417,25.4 17.6,41.65 M -120,-718.475 V -720 c 0.2,-16.25 6.05,-30.133 17.55,-41.65 11.55,-11.533 25.442,-17.4 41.675,-17.6 h 1.55 c 16.233,0.2 30.108,6.067 41.625,17.6 11.55,11.517 17.417,25.4 17.6,41.65 v 1.525 c -0.183,16.25 -6.05,30.142 -17.6,41.675 -11.517,11.517 -25.392,17.367 -41.625,17.55 h -1.55 c -16.233,-0.183 -30.125,-6.033 -41.675,-17.55 -11.5,-11.533 -17.35,-25.425 -17.55,-41.675 m 240,119.225 c 0,16.567 -5.867,30.717 -17.6,42.45 -11.517,11.517 -25.392,17.367 -41.625,17.55 h -1.55 C 42.992,-539.433 29.1,-545.283 17.55,-556.8 6.05,-568.333 0.2,-582.225 0,-598.475 V -600 c 0.2,-16.25 6.05,-30.133 17.55,-41.65 11.55,-11.533 25.442,-17.4 41.675,-17.6 h 1.55 c 16.233,0.2 30.108,6.067 41.625,17.6 11.733,11.717 17.6,25.85 17.6,42.4 m -59.225,-180 h -1.55 C 42.992,-779.433 29.1,-785.283 17.55,-796.8 6.05,-808.333 0.2,-822.225 0,-838.475 V -840 c 0.2,-16.25 6.05,-30.133 17.55,-41.65 11.55,-11.533 25.442,-17.4 41.675,-17.6 h 1.55 c 16.233,0.2 30.108,6.067 41.625,17.6 11.733,11.717 17.6,25.85 17.6,42.4 0,16.567 -5.867,30.717 -17.6,42.45 -11.517,11.517 -25.392,17.367 -41.625,17.55 M -137.6,-796.8 c -11.517,11.517 -25.392,17.367 -41.625,17.55 h -1.55 c -16.233,-0.183 -30.125,-6.033 -41.675,-17.55 -11.5,-11.533 -17.35,-25.425 -17.55,-41.675 V -840 c 0.2,-16.25 6.05,-30.133 17.55,-41.65 11.55,-11.533 25.442,-17.4 41.675,-17.6 h 1.55 c 16.233,0.2 30.108,6.067 41.625,17.6 11.55,11.517 17.417,25.4 17.6,41.65 v 1.525 c -0.183,16.25 -6.05,30.142 -17.6,41.675 m 78.375,-102.45 h -1.55 c -16.233,-0.183 -30.125,-6.033 -41.675,-17.55 -11.5,-11.533 -17.35,-25.425 -17.55,-41.675 V -960 c 0.2,-16.25 6.05,-30.133 17.55,-41.65 11.55,-11.533 25.442,-17.4 41.675,-17.6 h 1.55 c 16.233,0.2 30.108,6.067 41.625,17.6 11.55,11.517 17.417,25.4 17.6,41.65 v 1.525 c -0.183,16.25 -6.05,30.142 -17.6,41.675 -11.517,11.517 -25.392,17.367 -41.625,17.55 m -240,0 h -1.55 c -16.233,-0.183 -30.125,-6.033 -41.675,-17.55 -11.5,-11.533 -17.35,-25.425 -17.55,-41.675 V -960 c 0.2,-16.25 6.05,-30.133 17.55,-41.65 11.55,-11.533 25.442,-17.4 41.675,-17.6 h 1.55 c 16.233,0.2 30.108,6.067 41.625,17.6 11.55,11.517 17.417,25.4 17.6,41.65 v 1.525 c -0.183,16.25 -6.05,30.142 -17.6,41.675 -11.517,11.517 -25.392,17.367 -41.625,17.55 m -120,120 h -1.55 c -16.233,-0.183 -30.125,-6.033 -41.675,-17.55 -11.5,-11.533 -17.35,-25.425 -17.55,-41.675 V -840 c 0.2,-16.25 6.05,-30.133 17.55,-41.65 11.55,-11.533 25.442,-17.4 41.675,-17.6 h 1.55 c 16.233,0.2 30.108,6.067 41.625,17.6 11.55,11.517 17.417,25.4 17.6,41.65 v 1.525 c -0.183,16.25 -6.05,30.142 -17.6,41.675 -11.517,11.517 -25.392,17.367 -41.625,17.55 M -480,-960 v 1.525 c -0.2,16.25 -6.067,30.142 -17.6,41.675 -11.517,11.517 -25.392,17.367 -41.625,17.55 h -1.55 c -16.233,-0.183 -30.125,-6.033 -41.675,-17.55 -11.517,-11.533 -17.367,-25.425 -17.55,-41.675 V -960 c 0.183,-16.25 6.033,-30.133 17.55,-41.65 11.55,-11.533 25.442,-17.4 41.675,-17.6 h 1.55 c 16.233,0.2 30.108,6.067 41.625,17.6 11.533,11.517 17.4,25.4 17.6,41.65 m -179.225,900.75 h -1.55 c -16.233,-0.183 -30.125,-6.033 -41.675,-17.55 -11.517,-11.533 -17.367,-25.425 -17.55,-41.675 V -120 c 0.183,-16.25 6.033,-30.125 17.55,-41.625 11.55,-11.55 25.442,-17.425 41.675,-17.625 h 1.55 c 16.233,0.2 30.108,6.075 41.625,17.625 11.533,11.5 17.4,25.375 17.6,41.625 v 1.525 c -0.2,16.25 -6.067,30.142 -17.6,41.675 -11.517,11.517 -25.392,17.367 -41.625,17.55 M -720,0 v 1.525 c -0.2,16.25 -6.067,30.142 -17.6,41.675 -11.7,11.7 -25.833,17.55 -42.4,17.55 -16.567,0 -30.717,-5.85 -42.45,-17.55 C -833.967,31.667 -839.817,17.775 -840,1.525 V 0 c 0.183,-16.25 6.033,-30.125 17.55,-41.625 11.55,-11.55 25.442,-17.425 41.675,-17.625 h 1.55 c 16.233,0.2 30.108,6.075 41.625,17.625 11.533,11.5 17.4,25.375 17.6,41.625 m -59.225,-179.25 h -1.55 c -16.233,-0.183 -30.125,-6.033 -41.675,-17.55 -11.517,-11.533 -17.367,-25.425 -17.55,-41.675 V -240 c 0.183,-16.25 6.033,-30.125 17.55,-41.625 11.55,-11.55 25.442,-17.425 41.675,-17.625 h 1.55 c 16.233,0.2 30.108,6.075 41.625,17.625 11.533,11.5 17.4,25.375 17.6,41.625 v 1.525 c -0.2,16.25 -6.067,30.142 -17.6,41.675 -11.517,11.517 -25.392,17.367 -41.625,17.55 m 120,-120 h -1.55 c -16.233,-0.183 -30.125,-6.033 -41.675,-17.55 -11.517,-11.533 -17.367,-25.425 -17.55,-41.675 V -360 c 0.183,-16.25 6.033,-30.133 17.55,-41.65 11.55,-11.533 25.442,-17.4 41.675,-17.6 h 1.55 c 16.233,0.2 30.108,6.067 41.625,17.6 11.533,11.517 17.4,25.4 17.6,41.65 v 1.525 c -0.2,16.25 -6.067,30.142 -17.6,41.675 -11.517,11.517 -25.392,17.367 -41.625,17.55 M -960,0 v 1.525 c -0.2,16.25 -6.067,30.142 -17.6,41.675 -11.7,11.7 -25.833,17.55 -42.4,17.55 -16.567,0 -30.717,-5.85 -42.45,-17.55 -11.517,-11.533 -17.367,-25.425 -17.55,-41.675 V 0 c 0.183,-16.25 6.033,-30.125 17.55,-41.625 11.55,-11.55 25.442,-17.425 41.675,-17.625 h 1.55 c 16.233,0.2 30.108,6.075 41.625,17.625 11.533,11.5 17.4,25.375 17.6,41.625 m 0,-118.475 V -120 c 0.183,-16.25 6.033,-30.125 17.55,-41.625 11.55,-11.55 25.442,-17.425 41.675,-17.625 h 1.55 c 16.233,0.2 30.108,6.075 41.625,17.625 11.533,11.5 17.4,25.375 17.6,41.625 v 1.525 c -0.2,16.25 -6.067,30.142 -17.6,41.675 -11.517,11.517 -25.392,17.367 -41.625,17.55 h -1.55 c -16.233,-0.183 -30.125,-6.033 -41.675,-17.55 -11.517,-11.533 -17.367,-25.425 -17.55,-41.675 m -179.225,59.225 h -1.55 c -16.233,-0.183 -30.125,-6.033 -41.675,-17.55 -11.517,-11.533 -17.367,-25.425 -17.55,-41.675 V -120 c 0.183,-16.25 6.033,-30.125 17.55,-41.625 11.55,-11.55 25.442,-17.425 41.675,-17.625 h 1.55 c 16.233,0.2 30.108,6.075 41.625,17.625 11.533,11.5 17.4,25.375 17.6,41.625 v 1.525 c -0.2,16.25 -6.067,30.142 -17.6,41.675 -11.517,11.517 -25.392,17.367 -41.625,17.55 m 120,-120 h -1.55 c -16.233,-0.183 -30.125,-6.033 -41.675,-17.55 -11.517,-11.533 -17.367,-25.425 -17.55,-41.675 V -240 c 0.183,-16.25 6.033,-30.125 17.55,-41.625 11.55,-11.55 25.442,-17.425 41.675,-17.625 h 1.55 c 16.233,0.2 30.108,6.075 41.625,17.625 11.533,11.5 17.4,25.375 17.6,41.625 v 1.525 c -0.2,16.25 -6.067,30.142 -17.6,41.675 -11.517,11.517 -25.392,17.367 -41.625,17.55 m -120,-120 h -1.55 c -16.233,-0.183 -30.125,-6.033 -41.675,-17.55 -11.517,-11.533 -17.367,-25.425 -17.55,-41.675 V -360 c 0.183,-16.25 6.033,-30.133 17.55,-41.65 11.55,-11.533 25.442,-17.4 41.675,-17.6 h 1.55 c 16.233,0.2 30.108,6.067 41.625,17.6 11.533,11.517 17.4,25.4 17.6,41.65 v 1.525 c -0.2,16.25 -6.067,30.142 -17.6,41.675 -11.517,11.517 -25.392,17.367 -41.625,17.55 m 240,0 h -1.55 c -16.233,-0.183 -30.125,-6.033 -41.675,-17.55 -11.517,-11.533 -17.367,-25.425 -17.55,-41.675 V -360 c 0.183,-16.25 6.033,-30.133 17.55,-41.65 11.55,-11.533 25.442,-17.4 41.675,-17.6 h 1.55 c 16.233,0.2 30.108,6.067 41.625,17.6 11.533,11.517 17.4,25.4 17.6,41.65 v 1.525 c -0.2,16.25 -6.067,30.142 -17.6,41.675 -11.517,11.517 -25.392,17.367 -41.625,17.55 M -960,-480 v 1.525 c -0.2,16.25 -6.067,30.142 -17.6,41.675 -11.517,11.517 -25.392,17.367 -41.625,17.55 h -1.55 c -16.233,-0.183 -30.125,-6.033 -41.675,-17.55 -11.517,-11.533 -17.367,-25.425 -17.55,-41.675 V -480 c 0.183,-16.25 6.033,-30.133 17.55,-41.65 11.55,-11.533 25.442,-17.4 41.675,-17.6 h 1.55 c 16.233,0.2 30.108,6.067 41.625,17.6 11.533,11.517 17.4,25.4 17.6,41.65 m 120,1.525 V -480 c 0.183,-16.25 6.033,-30.133 17.55,-41.65 11.55,-11.533 25.442,-17.4 41.675,-17.6 h 1.55 c 16.233,0.2 30.108,6.067 41.625,17.6 11.533,11.517 17.4,25.4 17.6,41.65 v 1.525 c -0.2,16.25 -6.067,30.142 -17.6,41.675 -11.517,11.517 -25.392,17.367 -41.625,17.55 h -1.55 c -16.233,-0.183 -30.125,-6.033 -41.675,-17.55 -11.517,-11.533 -17.367,-25.425 -17.55,-41.675 m -299.225,-60.775 h -1.55 c -16.233,-0.183 -30.125,-6.033 -41.675,-17.55 -11.517,-11.533 -17.367,-25.425 -17.55,-41.675 V -600 c 0.183,-16.25 6.033,-30.133 17.55,-41.65 11.55,-11.533 25.442,-17.4 41.675,-17.6 h 1.55 c 16.233,0.2 30.108,6.067 41.625,17.6 11.533,11.517 17.4,25.4 17.6,41.65 v 1.525 c -0.2,16.25 -6.067,30.142 -17.6,41.675 -11.517,11.517 -25.392,17.367 -41.625,17.55 M -1080,-718.475 V -720 c 0.183,-16.25 6.033,-30.133 17.55,-41.65 11.55,-11.533 25.442,-17.4 41.675,-17.6 h 1.55 c 16.233,0.2 30.108,6.067 41.625,17.6 11.533,11.517 17.4,25.4 17.6,41.65 v 1.525 c -0.2,16.25 -6.067,30.142 -17.6,41.675 -11.517,11.517 -25.392,17.367 -41.625,17.55 h -1.55 c -16.233,-0.183 -30.125,-6.033 -41.675,-17.55 -11.517,-11.533 -17.367,-25.425 -17.55,-41.675 m 180.775,179.225 h -1.55 c -16.233,-0.183 -30.125,-6.033 -41.675,-17.55 -11.517,-11.533 -17.367,-25.425 -17.55,-41.675 V -600 c 0.183,-16.25 6.033,-30.133 17.55,-41.65 11.55,-11.533 25.442,-17.4 41.675,-17.6 h 1.55 c 16.233,0.2 30.108,6.067 41.625,17.6 11.533,11.517 17.4,25.4 17.6,41.65 v 1.525 c -0.2,16.25 -6.067,30.142 -17.6,41.675 -11.517,11.517 -25.392,17.367 -41.625,17.55 M -840,-718.475 V -720 c 0.183,-16.25 6.033,-30.133 17.55,-41.65 11.55,-11.533 25.442,-17.4 41.675,-17.6 h 1.55 c 16.233,0.2 30.108,6.067 41.625,17.6 11.533,11.517 17.4,25.4 17.6,41.65 v 1.525 c -0.2,16.25 -6.067,30.142 -17.6,41.675 -11.517,11.517 -25.392,17.367 -41.625,17.55 h -1.55 c -16.233,-0.183 -30.125,-6.033 -41.675,-17.55 -11.517,-11.533 -17.367,-25.425 -17.55,-41.675 m 120,120 V -600 c 0.183,-16.25 6.033,-30.133 17.55,-41.65 11.55,-11.533 25.442,-17.4 41.675,-17.6 h 1.55 c 16.233,0.2 30.108,6.067 41.625,17.6 11.533,11.517 17.4,25.4 17.6,41.65 v 1.525 c -0.2,16.25 -6.067,30.142 -17.6,41.675 -11.517,11.517 -25.392,17.367 -41.625,17.55 h -1.55 c -16.233,-0.183 -30.125,-6.033 -41.675,-17.55 -11.517,-11.533 -17.367,-25.425 -17.55,-41.675 M -1200,0 v 1.525 c -0.2,16.25 -6.067,30.142 -17.6,41.675 -11.7,11.7 -25.833,17.55 -42.4,17.55 -16.567,0 -30.717,-5.85 -42.45,-17.55 -11.517,-11.533 -17.367,-25.425 -17.55,-41.675 V 0 c 0.183,-16.25 6.033,-30.125 17.55,-41.625 11.55,-11.55 25.442,-17.425 41.675,-17.625 h 1.55 c 16.233,0.2 30.108,6.075 41.625,17.625 11.533,11.5 17.4,25.375 17.6,41.625 m -240,0 v 1.525 c -0.2,16.25 -6.067,30.142 -17.6,41.675 -11.7,11.7 -25.833,17.55 -42.4,17.55 -16.567,0 -30.717,-5.85 -42.45,-17.55 -11.517,-11.533 -17.367,-25.425 -17.55,-41.675 L -1560,0 c 0.183,-16.25 6.033,-30.125 17.55,-41.625 11.55,-11.55 25.442,-17.425 41.675,-17.625 h 1.55 c 16.233,0.2 30.108,6.075 41.625,17.625 11.533,11.5 17.4,25.375 17.6,41.625 m 0,-118.475 V -120 c 0.183,-16.25 6.033,-30.125 17.55,-41.625 11.55,-11.55 25.442,-17.425 41.675,-17.625 h 1.55 c 16.233,0.2 30.108,6.075 41.625,17.625 11.533,11.5 17.4,25.375 17.6,41.625 v 1.525 c -0.2,16.25 -6.067,30.142 -17.6,41.675 -11.517,11.517 -25.392,17.367 -41.625,17.55 h -1.55 c -16.233,-0.183 -30.125,-6.033 -41.675,-17.55 -11.517,-11.533 -17.367,-25.425 -17.55,-41.675 m 0,-121.525 v 1.525 c -0.2,16.25 -6.067,30.142 -17.6,41.675 -11.517,11.517 -25.392,17.367 -41.625,17.55 h -1.55 c -16.233,-0.183 -30.125,-6.033 -41.675,-17.55 -11.517,-11.533 -17.367,-25.425 -17.55,-41.675 V -240 c 0.183,-16.25 6.033,-30.125 17.55,-41.625 11.55,-11.55 25.442,-17.425 41.675,-17.625 h 1.55 c 16.233,0.2 30.108,6.075 41.625,17.625 11.533,11.5 17.4,25.375 17.6,41.625 m 120,1.525 V -240 c 0.183,-16.25 6.033,-30.125 17.55,-41.625 11.55,-11.55 25.442,-17.425 41.675,-17.625 h 1.55 c 16.233,0.2 30.108,6.075 41.625,17.625 11.533,11.5 17.4,25.375 17.6,41.625 v 1.525 c -0.2,16.25 -6.067,30.142 -17.6,41.675 -11.517,11.517 -25.392,17.367 -41.625,17.55 h -1.55 c -16.233,-0.183 -30.125,-6.033 -41.675,-17.55 -11.517,-11.533 -17.367,-25.425 -17.55,-41.675 m -59.225,-60.775 h -1.55 c -16.233,-0.183 -30.125,-6.033 -41.675,-17.55 -11.517,-11.533 -17.367,-25.425 -17.55,-41.675 V -360 c 0.183,-16.25 6.033,-30.133 17.55,-41.65 11.55,-11.533 25.442,-17.4 41.675,-17.6 h 1.55 c 16.233,0.2 30.108,6.067 41.625,17.6 11.533,11.517 17.4,25.4 17.6,41.65 v 1.525 c -0.2,16.25 -6.067,30.142 -17.6,41.675 -11.517,11.517 -25.392,17.367 -41.625,17.55 m -240,240 h -1.55 c -16.233,-0.183 -30.125,-6.033 -41.675,-17.55 -11.517,-11.533 -17.367,-25.425 -17.55,-41.675 V -120 c 0.183,-16.25 6.033,-30.125 17.55,-41.625 11.55,-11.55 25.442,-17.425 41.675,-17.625 h 1.55 c 16.233,0.2 30.108,6.075 41.625,17.625 11.533,11.5 17.4,25.375 17.6,41.625 v 1.525 c -0.2,16.25 -6.067,30.142 -17.6,41.675 -11.517,11.517 -25.392,17.367 -41.625,17.55 M -1680,0 v 1.525 c -0.2,16.25 -6.067,30.142 -17.6,41.675 -11.7,11.7 -25.833,17.55 -42.4,17.55 -16.567,0 -30.717,-5.85 -42.45,-17.55 -11.7,-11.733 -17.55,-25.883 -17.55,-42.45 0,-16.55 5.85,-30.675 17.55,-42.375 11.55,-11.55 25.442,-17.425 41.675,-17.625 h 1.55 c 16.233,0.2 30.108,6.075 41.625,17.625 11.533,11.5 17.4,25.375 17.6,41.625 m -59.225,-179.25 h -1.55 c -16.233,-0.183 -30.125,-6.033 -41.675,-17.55 -11.7,-11.733 -17.55,-25.883 -17.55,-42.45 0,-16.55 5.85,-30.675 17.55,-42.375 11.55,-11.55 25.442,-17.425 41.675,-17.625 h 1.55 c 16.233,0.2 30.108,6.075 41.625,17.625 11.533,11.5 17.4,25.375 17.6,41.625 v 1.525 c -0.2,16.25 -6.067,30.142 -17.6,41.675 -11.517,11.517 -25.392,17.367 -41.625,17.55 m 120,-120 h -1.55 c -16.233,-0.183 -30.125,-6.033 -41.675,-17.55 -11.517,-11.533 -17.367,-25.425 -17.55,-41.675 V -360 c 0.183,-16.25 6.033,-30.133 17.55,-41.65 11.55,-11.533 25.442,-17.4 41.675,-17.6 h 1.55 c 16.233,0.2 30.108,6.067 41.625,17.6 11.533,11.517 17.4,25.4 17.6,41.65 v 1.525 c -0.2,16.25 -6.067,30.142 -17.6,41.675 -11.517,11.517 -25.392,17.367 -41.625,17.55 m 120,-120 h -1.55 c -16.233,-0.183 -30.125,-6.033 -41.675,-17.55 -11.517,-11.533 -17.367,-25.425 -17.55,-41.675 V -480 c 0.183,-16.25 6.033,-30.133 17.55,-41.65 11.55,-11.533 25.442,-17.4 41.675,-17.6 h 1.55 c 16.233,0.2 30.108,6.067 41.625,17.6 11.533,11.517 17.4,25.4 17.6,41.65 v 1.525 c -0.2,16.25 -6.067,30.142 -17.6,41.675 -11.517,11.517 -25.392,17.367 -41.625,17.55 m -240,0 h -1.55 c -16.233,-0.183 -30.125,-6.033 -41.675,-17.55 -11.7,-11.733 -17.55,-25.883 -17.55,-42.45 0,-3.429 0.25,-6.754 0.75,-9.975 1.924,-12.327 7.524,-23.136 16.8,-32.425 11.55,-11.533 25.442,-17.4 41.675,-17.6 h 1.55 c 3.742,0.046 7.359,0.396 10.85,1.05 11.655,2.159 21.913,7.675 30.775,16.55 11.533,11.517 17.4,25.4 17.6,41.65 v 1.525 c -0.2,16.25 -6.067,30.142 -17.6,41.675 -11.517,11.517 -25.392,17.367 -41.625,17.55 M -1680,-598.475 V -600 c 0.183,-16.25 6.033,-30.133 17.55,-41.65 11.55,-11.533 25.442,-17.4 41.675,-17.6 h 1.55 c 16.233,0.2 30.108,6.067 41.625,17.6 11.533,11.517 17.4,25.4 17.6,41.65 v 1.525 c -0.2,16.25 -6.067,30.142 -17.6,41.675 -11.517,11.517 -25.392,17.367 -41.625,17.55 h -1.55 c -16.233,-0.183 -30.125,-6.033 -41.675,-17.55 -11.517,-11.533 -17.367,-25.425 -17.55,-41.675 m -48.375,-61.8 c -3.491,0.641 -7.108,0.983 -10.85,1.025 h -1.55 c -16.233,-0.183 -30.125,-6.033 -41.675,-17.55 -11.7,-11.733 -17.55,-25.883 -17.55,-42.45 0,-16.55 5.85,-30.683 17.55,-42.4 6.435,-6.426 13.593,-11.092 21.475,-14 6.277,-2.311 13.011,-3.511 20.2,-3.6 h 1.55 c 16.233,0.2 30.108,6.067 41.625,17.6 11.533,11.517 17.4,25.4 17.6,41.65 v 1.525 c -0.2,16.25 -6.067,30.142 -17.6,41.675 -8.862,8.862 -19.12,14.37 -30.775,16.525 m 168.375,-58.2 V -720 c 0.183,-16.25 6.033,-30.133 17.55,-41.65 11.55,-11.533 25.442,-17.4 41.675,-17.6 h 1.55 c 16.233,0.2 30.108,6.067 41.625,17.6 11.533,11.517 17.4,25.4 17.6,41.65 v 1.525 c -0.2,16.25 -6.067,30.142 -17.6,41.675 -11.517,11.517 -25.392,17.367 -41.625,17.55 h -1.55 c -16.233,-0.183 -30.125,-6.033 -41.675,-17.55 -11.517,-11.533 -17.367,-25.425 -17.55,-41.675 m 300.775,299.225 h -1.55 c -16.233,-0.183 -30.125,-6.033 -41.675,-17.55 -11.517,-11.533 -17.367,-25.425 -17.55,-41.675 V -480 c 0.183,-16.25 6.033,-30.133 17.55,-41.65 11.55,-11.533 25.442,-17.4 41.675,-17.6 h 1.55 c 16.233,0.2 30.108,6.067 41.625,17.6 11.533,11.517 17.4,25.4 17.6,41.65 v 1.525 c -0.2,16.25 -6.067,30.142 -17.6,41.675 -11.517,11.517 -25.392,17.367 -41.625,17.55 m -120,-120 h -1.55 c -16.233,-0.183 -30.125,-6.033 -41.675,-17.55 -11.517,-11.533 -17.367,-25.425 -17.55,-41.675 V -600 c 0.183,-16.25 6.033,-30.133 17.55,-41.65 11.55,-11.533 25.442,-17.4 41.675,-17.6 h 1.55 c 16.233,0.2 30.108,6.067 41.625,17.6 11.533,11.517 17.4,25.4 17.6,41.65 v 1.525 c -0.2,16.25 -6.067,30.142 -17.6,41.675 -11.517,11.517 -25.392,17.367 -41.625,17.55 M -1320,-718.475 V -720 c 0.183,-16.25 6.033,-30.133 17.55,-41.65 11.55,-11.533 25.442,-17.4 41.675,-17.6 h 1.55 c 16.233,0.2 30.108,6.067 41.625,17.6 11.533,11.517 17.4,25.4 17.6,41.65 v 1.525 c -0.2,16.25 -6.067,30.142 -17.6,41.675 -11.517,11.517 -25.392,17.367 -41.625,17.55 h -1.55 c -16.233,-0.183 -30.125,-6.033 -41.675,-17.55 -11.517,-11.533 -17.367,-25.425 -17.55,-41.675 m 60.775,-180.775 h -1.55 c -16.233,-0.183 -30.125,-6.033 -41.675,-17.55 -11.517,-11.533 -17.367,-25.425 -17.55,-41.675 V -960 c 0.183,-16.25 6.033,-30.133 17.55,-41.65 11.55,-11.533 25.442,-17.4 41.675,-17.6 h 1.55 c 16.233,0.2 30.108,6.067 41.625,17.6 11.533,11.517 17.4,25.4 17.6,41.65 v 1.525 c -0.2,16.25 -6.067,30.142 -17.6,41.675 -11.517,11.517 -25.392,17.367 -41.625,17.55 m 59.225,60.775 V -840 c 0.183,-16.25 6.033,-30.133 17.55,-41.65 11.55,-11.533 25.442,-17.4 41.675,-17.6 h 1.55 c 16.233,0.2 30.108,6.067 41.625,17.6 11.533,11.517 17.4,25.4 17.6,41.65 v 1.525 c -0.2,16.25 -6.067,30.142 -17.6,41.675 -11.517,11.517 -25.392,17.367 -41.625,17.55 h -1.55 c -16.233,-0.183 -30.125,-6.033 -41.675,-17.55 -11.517,-11.533 -17.367,-25.425 -17.55,-41.675 m -179.225,59.225 h -1.55 c -16.233,-0.183 -30.125,-6.033 -41.675,-17.55 -11.517,-11.533 -17.367,-25.425 -17.55,-41.675 V -840 c 0.183,-16.25 6.033,-30.133 17.55,-41.65 11.55,-11.533 25.442,-17.4 41.675,-17.6 h 1.55 c 16.233,0.2 30.108,6.067 41.625,17.6 11.533,11.517 17.4,25.4 17.6,41.65 v 1.525 c -0.2,16.25 -6.067,30.142 -17.6,41.675 -11.517,11.517 -25.392,17.367 -41.625,17.55 M -1440,-960 v 1.525 c -0.2,16.25 -6.067,30.142 -17.6,41.675 -11.517,11.517 -25.392,17.367 -41.625,17.55 h -1.55 c -16.233,-0.183 -30.125,-6.033 -41.675,-17.55 -11.517,-11.533 -17.367,-25.425 -17.55,-41.675 V -960 c 0.183,-16.25 6.033,-30.133 17.55,-41.65 11.55,-11.533 25.442,-17.4 41.675,-17.6 h 1.55 c 16.233,0.2 30.108,6.067 41.625,17.6 11.533,11.517 17.4,25.4 17.6,41.65 m -179.225,180.75 h -1.55 c -16.233,-0.183 -30.125,-6.033 -41.675,-17.55 -11.517,-11.533 -17.367,-25.425 -17.55,-41.675 V -840 c 0.183,-16.25 6.033,-30.133 17.55,-41.65 11.55,-11.533 25.442,-17.4 41.675,-17.6 h 1.55 c 16.233,0.2 30.108,6.067 41.625,17.6 11.533,11.517 17.4,25.4 17.6,41.65 v 1.525 c -0.2,16.25 -6.067,30.142 -17.6,41.675 -11.517,11.517 -25.392,17.367 -41.625,17.55 m -120,-120 h -1.55 c -16.233,-0.183 -30.125,-6.033 -41.675,-17.55 -11.7,-11.733 -17.55,-25.883 -17.55,-42.45 0,-16.55 5.85,-30.683 17.55,-42.4 11.55,-11.533 25.442,-17.4 41.675,-17.6 h 1.55 c 16.233,0.2 30.108,6.067 41.625,17.6 11.533,11.517 17.4,25.4 17.6,41.65 v 1.525 c -0.2,16.25 -6.067,30.142 -17.6,41.675 -11.517,11.517 -25.392,17.367 -41.625,17.55 m 1080,120 h -1.55 c -16.233,-0.183 -30.125,-6.033 -41.675,-17.55 -11.517,-11.533 -17.367,-25.425 -17.55,-41.675 V -840 c 0.183,-16.25 6.033,-30.133 17.55,-41.65 11.55,-11.533 25.442,-17.4 41.675,-17.6 h 1.55 c 16.233,0.2 30.108,6.067 41.625,17.6 11.533,11.517 17.4,25.4 17.6,41.65 v 1.525 c -0.2,16.25 -6.067,30.142 -17.6,41.675 -11.517,11.517 -25.392,17.367 -41.625,17.55 m -120,-120 h -1.55 c -16.233,-0.183 -30.125,-6.033 -41.675,-17.55 -11.517,-11.533 -17.367,-25.425 -17.55,-41.675 V -960 c 0.183,-16.25 6.033,-30.133 17.55,-41.65 11.55,-11.533 25.442,-17.4 41.675,-17.6 h 1.55 c 16.233,0.2 30.108,6.067 41.625,17.6 11.533,11.517 17.4,25.4 17.6,41.65 v 1.525 c -0.2,16.25 -6.067,30.142 -17.6,41.675 -11.517,11.517 -25.392,17.367 -41.625,17.55 m -120,120 h -1.55 c -16.233,-0.183 -30.125,-6.033 -41.675,-17.55 -11.517,-11.533 -17.367,-25.425 -17.55,-41.675 V -840 c 0.183,-16.25 6.033,-30.133 17.55,-41.65 11.55,-11.533 25.442,-17.4 41.675,-17.6 h 1.55 c 16.233,0.2 30.108,6.067 41.625,17.6 11.533,11.517 17.4,25.4 17.6,41.65 v 1.525 c -0.2,16.25 -6.067,30.142 -17.6,41.675 -11.517,11.517 -25.392,17.367 -41.625,17.55 m -120,-120 h -1.55 c -16.233,-0.183 -30.125,-6.033 -41.675,-17.55 -11.517,-11.533 -17.367,-25.425 -17.55,-41.675 V -960 c 0.183,-16.25 6.033,-30.133 17.55,-41.65 11.55,-11.533 25.442,-17.4 41.675,-17.6 h 1.55 c 16.233,0.2 30.108,6.067 41.625,17.6 11.533,11.517 17.4,25.4 17.6,41.65 v 1.525 c -0.2,16.25 -6.067,30.142 -17.6,41.675 -11.517,11.517 -25.392,17.367 -41.625,17.55"
             style="fill:#50e0d0;fill-opacity:1;fill-rule:nonzero;stroke:none"
             id="path22" />
        </g>
        <g
           id="g24"
           transform="translate(1920,1020)">
          <path
             d="M 0,0 C 0,16.567 -5.867,30.717 -17.6,42.45 -29.3,54.15 -43.433,60 -60,60 -76.567,60 -90.717,54.15 -102.45,42.45 -113.95,30.917 -119.8,17.025 -120,0.775 V -0.75 c 0.2,-16.25 6.05,-30.125 17.55,-41.625 C -90.9,-53.925 -77.008,-59.8 -60.775,-60 h 1.55 c 16.233,0.2 30.108,6.075 41.625,17.625 C -5.867,-30.675 0,-16.55 0,0 m -120,-120.75 v 1.525 c -0.183,16.25 -6.05,30.142 -17.6,41.675 -11.517,11.517 -25.392,17.367 -41.625,17.55 h -1.55 c -16.233,-0.183 -30.125,-6.033 -41.675,-17.55 -11.5,-11.533 -17.35,-25.425 -17.55,-41.675 v -1.525 c 0.2,-16.25 6.05,-30.125 17.55,-41.625 11.55,-11.55 25.442,-17.425 41.675,-17.625 h 1.55 c 16.233,0.2 30.108,6.075 41.625,17.625 11.55,11.5 17.417,25.375 17.6,41.625 m -120,120 v 1.525 c -0.183,16.25 -6.05,30.142 -17.6,41.675 C -269.3,54.15 -283.433,60 -300,60 -316.567,60 -330.717,54.15 -342.45,42.45 -353.95,30.917 -359.8,17.025 -360,0.775 V -0.75 c 0.2,-16.25 6.05,-30.125 17.55,-41.625 11.55,-11.55 25.442,-17.425 41.675,-17.625 h 1.55 c 16.233,0.2 30.108,6.075 41.625,17.625 11.55,11.5 17.417,25.375 17.6,41.625 m -17.6,-196.8 c -11.517,11.517 -25.392,17.367 -41.625,17.55 h -1.55 c -16.233,-0.183 -30.125,-6.033 -41.675,-17.55 -11.5,-11.533 -17.35,-25.425 -17.55,-41.675 v -1.525 c 0.2,-16.25 6.05,-30.125 17.55,-41.625 11.55,-11.55 25.442,-17.425 41.675,-17.625 h 1.55 c 16.233,0.2 30.108,6.075 41.625,17.625 11.55,11.5 17.417,25.375 17.6,41.625 v 1.525 c -0.183,16.25 -6.05,30.142 -17.6,41.675 M -179.225,-300 h -1.55 c -16.233,-0.183 -30.125,-6.033 -41.675,-17.55 -11.5,-11.533 -17.35,-25.425 -17.55,-41.675 v -1.525 c 0.2,-16.25 6.05,-30.133 17.55,-41.65 11.55,-11.533 25.442,-17.4 41.675,-17.6 h 1.55 c 16.233,0.2 30.108,6.067 41.625,17.6 11.55,11.517 17.417,25.4 17.6,41.65 v 1.525 c -0.183,16.25 -6.05,30.142 -17.6,41.675 -11.517,11.517 -25.392,17.367 -41.625,17.55 m 120,120 h -1.55 c -16.233,-0.183 -30.125,-6.033 -41.675,-17.55 -11.5,-11.533 -17.35,-25.425 -17.55,-41.675 v -1.525 c 0.2,-16.25 6.05,-30.125 17.55,-41.625 11.55,-11.55 25.442,-17.425 41.675,-17.625 h 1.55 c 16.233,0.2 30.108,6.075 41.625,17.625 11.733,11.7 17.6,25.825 17.6,42.375 0,16.567 -5.867,30.717 -17.6,42.45 -11.517,11.517 -25.392,17.367 -41.625,17.55 m -360,120 h -1.55 c -16.233,-0.183 -30.125,-6.033 -41.675,-17.55 -11.5,-11.533 -17.35,-25.425 -17.55,-41.675 v -1.525 c 0.2,-16.25 6.05,-30.125 17.55,-41.625 11.55,-11.55 25.442,-17.425 41.675,-17.625 h 1.55 c 16.233,0.2 30.108,6.075 41.625,17.625 11.55,11.5 17.417,25.375 17.6,41.625 v 1.525 c -0.183,16.25 -6.05,30.142 -17.6,41.675 -11.517,11.517 -25.392,17.367 -41.625,17.55 M -480,-0.75 v 1.525 c -0.183,16.25 -6.05,30.142 -17.6,41.675 C -509.3,54.15 -523.433,60 -540,60 -556.567,60 -570.717,54.15 -582.45,42.45 -593.95,30.917 -599.8,17.025 -600,0.775 V -0.75 c 0.2,-16.25 6.05,-30.125 17.55,-41.625 11.55,-11.55 25.442,-17.425 41.675,-17.625 h 1.55 c 16.233,0.2 30.108,6.075 41.625,17.625 11.55,11.5 17.417,25.375 17.6,41.625 m -120,-120 v 1.525 c -0.2,16.25 -6.067,30.142 -17.6,41.675 -11.517,11.517 -25.392,17.367 -41.625,17.55 h -1.55 c -16.233,-0.183 -30.125,-6.033 -41.675,-17.55 -11.517,-11.533 -17.367,-25.425 -17.55,-41.675 v -1.525 c 0.183,-16.25 6.033,-30.125 17.55,-41.625 11.55,-11.55 25.442,-17.425 41.675,-17.625 h 1.55 c 16.233,0.2 30.108,6.075 41.625,17.625 11.533,11.5 17.4,25.375 17.6,41.625 m 60.775,-59.25 h -1.55 c -16.233,-0.183 -30.125,-6.033 -41.675,-17.55 -11.5,-11.533 -17.35,-25.425 -17.55,-41.675 v -1.525 c 0.2,-16.25 6.05,-30.125 17.55,-41.625 11.55,-11.55 25.442,-17.425 41.675,-17.625 h 1.55 c 16.233,0.2 30.108,6.075 41.625,17.625 11.55,11.5 17.417,25.375 17.6,41.625 v 1.525 c -0.183,16.25 -6.05,30.142 -17.6,41.675 -11.517,11.517 -25.392,17.367 -41.625,17.55 m 120,-120 h -1.55 c -16.233,-0.183 -30.125,-6.033 -41.675,-17.55 -11.5,-11.533 -17.35,-25.425 -17.55,-41.675 v -1.525 c 0.2,-16.25 6.05,-30.133 17.55,-41.65 11.55,-11.533 25.442,-17.4 41.675,-17.6 h 1.55 c 16.233,0.2 30.108,6.067 41.625,17.6 11.55,11.517 17.417,25.4 17.6,41.65 v 1.525 c -0.183,16.25 -6.05,30.142 -17.6,41.675 -11.517,11.517 -25.392,17.367 -41.625,17.55 M -360,-479.225 v -1.525 c 0.2,-16.25 6.05,-30.133 17.55,-41.65 11.55,-11.533 25.442,-17.4 41.675,-17.6 h 1.55 c 16.233,0.2 30.108,6.067 41.625,17.6 11.55,11.517 17.417,25.4 17.6,41.65 v 1.525 c -0.183,16.25 -6.05,30.142 -17.6,41.675 -11.517,11.517 -25.392,17.367 -41.625,17.55 h -1.55 c -16.233,-0.183 -30.125,-6.033 -41.675,-17.55 -11.5,-11.533 -17.35,-25.425 -17.55,-41.675 M -539.225,-420 h -1.55 c -16.233,-0.183 -30.125,-6.033 -41.675,-17.55 -11.5,-11.533 -17.35,-25.425 -17.55,-41.675 v -1.525 c 0.2,-16.25 6.05,-30.133 17.55,-41.65 11.55,-11.533 25.442,-17.4 41.675,-17.6 h 1.55 c 16.233,0.2 30.108,6.067 41.625,17.6 11.55,11.517 17.417,25.4 17.6,41.65 v 1.525 c -0.183,16.25 -6.05,30.142 -17.6,41.675 -11.517,11.517 -25.392,17.367 -41.625,17.55 M -600,-360.75 v 1.525 c -0.2,16.25 -6.067,30.142 -17.6,41.675 -11.517,11.517 -25.392,17.367 -41.625,17.55 h -1.55 c -16.233,-0.183 -30.125,-6.033 -41.675,-17.55 -11.517,-11.533 -17.367,-25.425 -17.55,-41.675 v -1.525 c 0.183,-16.25 6.033,-30.133 17.55,-41.65 11.55,-11.533 25.442,-17.4 41.675,-17.6 h 1.55 c 16.233,0.2 30.108,6.067 41.625,17.6 11.533,11.517 17.4,25.4 17.6,41.65 m 120,-238.475 v -1.525 c 0.2,-16.25 6.05,-30.133 17.55,-41.65 11.55,-11.533 25.442,-17.4 41.675,-17.6 h 1.55 c 16.233,0.2 30.108,6.067 41.625,17.6 11.55,11.517 17.417,25.4 17.6,41.65 v 1.525 c -0.183,16.25 -6.05,30.142 -17.6,41.675 -11.517,11.517 -25.392,17.367 -41.625,17.55 h -1.55 c -16.233,-0.183 -30.125,-6.033 -41.675,-17.55 -11.5,-11.533 -17.35,-25.425 -17.55,-41.675 m -120,-1.525 v 1.525 c -0.2,16.25 -6.067,30.142 -17.6,41.675 -11.517,11.517 -25.392,17.367 -41.625,17.55 h -1.55 c -16.233,-0.183 -30.125,-6.033 -41.675,-17.55 -11.517,-11.533 -17.367,-25.425 -17.55,-41.675 v -1.525 c 0.183,-16.25 6.033,-30.133 17.55,-41.65 11.55,-11.533 25.442,-17.4 41.675,-17.6 h 1.55 c 16.233,0.2 30.108,6.067 41.625,17.6 11.533,11.517 17.4,25.4 17.6,41.65 m 0,-118.475 v -1.525 c 0.2,-16.25 6.05,-30.133 17.55,-41.65 11.55,-11.533 25.442,-17.4 41.675,-17.6 h 1.55 c 16.233,0.2 30.108,6.067 41.625,17.6 11.55,11.517 17.417,25.4 17.6,41.65 v 1.525 c -0.183,16.25 -6.05,30.142 -17.6,41.675 -11.517,11.517 -25.392,17.367 -41.625,17.55 h -1.55 c -16.233,-0.183 -30.125,-6.033 -41.675,-17.55 -11.5,-11.533 -17.35,-25.425 -17.55,-41.675 m 240,0 v -1.525 c 0.2,-16.25 6.05,-30.133 17.55,-41.65 11.55,-11.533 25.442,-17.4 41.675,-17.6 h 1.55 c 16.233,0.2 30.108,6.067 41.625,17.6 11.55,11.517 17.417,25.4 17.6,41.65 v 1.525 c -0.183,16.25 -6.05,30.142 -17.6,41.675 -11.517,11.517 -25.392,17.367 -41.625,17.55 h -1.55 c -16.233,-0.183 -30.125,-6.033 -41.675,-17.55 -11.5,-11.533 -17.35,-25.425 -17.55,-41.675 M -59.225,-420 h -1.55 c -16.233,-0.183 -30.125,-6.033 -41.675,-17.55 -11.5,-11.533 -17.35,-25.425 -17.55,-41.675 v -1.525 c 0.2,-16.25 6.05,-30.133 17.55,-41.65 11.55,-11.533 25.442,-17.4 41.675,-17.6 h 1.55 c 16.233,0.2 30.108,6.067 41.625,17.6 11.733,11.717 17.6,25.85 17.6,42.4 0,16.567 -5.867,30.717 -17.6,42.45 -11.517,11.517 -25.392,17.367 -41.625,17.55 m -120,-120 h -1.55 c -16.233,-0.183 -30.125,-6.033 -41.675,-17.55 -11.5,-11.533 -17.35,-25.425 -17.55,-41.675 v -1.525 c 0.2,-16.25 6.05,-30.133 17.55,-41.65 11.55,-11.533 25.442,-17.4 41.675,-17.6 h 1.55 c 16.233,0.2 30.108,6.067 41.625,17.6 11.55,11.517 17.417,25.4 17.6,41.65 v 1.525 c -0.183,16.25 -6.05,30.142 -17.6,41.675 -11.517,11.517 -25.392,17.367 -41.625,17.55 m 120,-120 h -1.55 c -16.233,-0.183 -30.125,-6.033 -41.675,-17.55 -11.5,-11.533 -17.35,-25.425 -17.55,-41.675 v -1.525 c 0.2,-16.25 6.05,-30.133 17.55,-41.65 11.55,-11.533 25.442,-17.4 41.675,-17.6 h 1.55 c 16.233,0.2 30.108,6.067 41.625,17.6 11.733,11.717 17.6,25.85 17.6,42.4 0,16.567 -5.867,30.717 -17.6,42.45 -11.517,11.517 -25.392,17.367 -41.625,17.55 M -120,-840.75 v 1.525 c -0.183,16.25 -6.05,30.142 -17.6,41.675 -11.517,11.517 -25.392,17.367 -41.625,17.55 h -1.55 c -16.233,-0.183 -30.125,-6.033 -41.675,-17.55 -11.5,-11.533 -17.35,-25.425 -17.55,-41.675 v -1.525 c 0.2,-16.25 6.05,-30.133 17.55,-41.65 11.55,-11.533 25.442,-17.4 41.675,-17.6 h 1.55 c 16.233,0.2 30.108,6.067 41.625,17.6 11.55,11.517 17.417,25.4 17.6,41.65 M -59.225,-900 h -1.55 c -16.233,-0.183 -30.125,-6.033 -41.675,-17.55 -11.5,-11.533 -17.35,-25.425 -17.55,-41.675 v -1.525 c 0.2,-16.25 6.05,-30.133 17.55,-41.65 11.55,-11.533 25.442,-17.4 41.675,-17.6 h 1.55 c 16.233,0.2 30.108,6.067 41.625,17.6 11.733,11.717 17.6,25.85 17.6,42.4 0,16.567 -5.867,30.717 -17.6,42.45 -11.517,11.517 -25.392,17.367 -41.625,17.55 M -257.6,-917.55 c -11.517,11.517 -25.392,17.367 -41.625,17.55 h -1.55 c -16.233,-0.183 -30.125,-6.033 -41.675,-17.55 -11.5,-11.533 -17.35,-25.425 -17.55,-41.675 v -1.525 c 0.2,-16.25 6.05,-30.133 17.55,-41.65 11.55,-11.533 25.442,-17.4 41.675,-17.6 h 1.55 c 16.233,0.2 30.108,6.067 41.625,17.6 11.55,11.517 17.417,25.4 17.6,41.65 v 1.525 c -0.183,16.25 -6.05,30.142 -17.6,41.675 M -419.225,-780 h -1.55 c -16.233,-0.183 -30.125,-6.033 -41.675,-17.55 -11.5,-11.533 -17.35,-25.425 -17.55,-41.675 v -1.525 c 0.2,-16.25 6.05,-30.133 17.55,-41.65 11.55,-11.533 25.442,-17.4 41.675,-17.6 h 1.55 c 16.233,0.2 30.108,6.067 41.625,17.6 11.55,11.517 17.417,25.4 17.6,41.65 v 1.525 c -0.183,16.25 -6.05,30.142 -17.6,41.675 -11.517,11.517 -25.392,17.367 -41.625,17.55 M -600,-840.75 v 1.525 c -0.2,16.25 -6.067,30.142 -17.6,41.675 -11.517,11.517 -25.392,17.367 -41.625,17.55 h -1.55 c -16.233,-0.183 -30.125,-6.033 -41.675,-17.55 -11.517,-11.533 -17.367,-25.425 -17.55,-41.675 v -1.525 c 0.183,-16.25 6.033,-30.133 17.55,-41.65 11.55,-11.533 25.442,-17.4 41.675,-17.6 h 1.55 c 16.233,0.2 30.108,6.067 41.625,17.6 11.533,11.517 17.4,25.4 17.6,41.65 m 60.775,-59.25 h -1.55 c -16.233,-0.183 -30.125,-6.033 -41.675,-17.55 -11.5,-11.533 -17.35,-25.425 -17.55,-41.675 v -1.525 c 0.2,-16.25 6.05,-30.133 17.55,-41.65 11.55,-11.533 25.442,-17.4 41.675,-17.6 h 1.55 c 16.233,0.2 30.108,6.067 41.625,17.6 11.55,11.517 17.417,25.4 17.6,41.65 v 1.525 c -0.183,16.25 -6.05,30.142 -17.6,41.675 -11.517,11.517 -25.392,17.367 -41.625,17.55 M -720,-0.75 v 1.525 c -0.2,16.25 -6.067,30.142 -17.6,41.675 C -749.3,54.15 -763.433,60 -780,60 -796.567,60 -810.717,54.15 -822.45,42.45 -833.967,30.917 -839.817,17.025 -840,0.775 V -0.75 c 0.183,-16.25 6.033,-30.125 17.55,-41.625 11.55,-11.55 25.442,-17.425 41.675,-17.625 h 1.55 c 16.233,0.2 30.108,6.075 41.625,17.625 11.533,11.5 17.4,25.375 17.6,41.625 M -899.225,-60 h -1.55 c -16.233,-0.183 -30.125,-6.033 -41.675,-17.55 -11.517,-11.533 -17.367,-25.425 -17.55,-41.675 v -1.525 c 0.183,-16.25 6.033,-30.125 17.55,-41.625 11.55,-11.55 25.442,-17.425 41.675,-17.625 h 1.55 c 16.233,0.2 30.108,6.075 41.625,17.625 11.533,11.5 17.4,25.375 17.6,41.625 v 1.525 c -0.2,16.25 -6.067,30.142 -17.6,41.675 -11.517,11.517 -25.392,17.367 -41.625,17.55 m 0,-240 h -1.55 c -16.233,-0.183 -30.125,-6.033 -41.675,-17.55 -11.517,-11.533 -17.367,-25.425 -17.55,-41.675 v -1.525 c 0.183,-16.25 6.033,-30.133 17.55,-41.65 11.55,-11.533 25.442,-17.4 41.675,-17.6 h 1.55 c 16.233,0.2 30.108,6.067 41.625,17.6 11.533,11.517 17.4,25.4 17.6,41.65 v 1.525 c -0.2,16.25 -6.067,30.142 -17.6,41.675 -11.517,11.517 -25.392,17.367 -41.625,17.55 m 59.225,60.775 v -1.525 c 0.183,-16.25 6.033,-30.125 17.55,-41.625 11.55,-11.55 25.442,-17.425 41.675,-17.625 h 1.55 c 16.233,0.2 30.108,6.075 41.625,17.625 11.533,11.5 17.4,25.375 17.6,41.625 v 1.525 c -0.2,16.25 -6.067,30.142 -17.6,41.675 -11.517,11.517 -25.392,17.367 -41.625,17.55 h -1.55 c -16.233,-0.183 -30.125,-6.033 -41.675,-17.55 -11.517,-11.533 -17.367,-25.425 -17.55,-41.675 M -960,-0.75 v 1.525 c -0.2,16.25 -6.067,30.142 -17.6,41.675 -11.7,11.7 -25.833,17.55 -42.4,17.55 -16.567,0 -30.717,-5.85 -42.45,-17.55 -11.517,-11.533 -17.367,-25.425 -17.55,-41.675 V -0.75 c 0.183,-16.25 6.033,-30.125 17.55,-41.625 11.55,-11.55 25.442,-17.425 41.675,-17.625 h 1.55 c 16.233,0.2 30.108,6.075 41.625,17.625 11.533,11.5 17.4,25.375 17.6,41.625 m -120,-120 v 1.525 c -0.2,16.25 -6.067,30.142 -17.6,41.675 -11.517,11.517 -25.392,17.367 -41.625,17.55 h -1.55 c -16.233,-0.183 -30.125,-6.033 -41.675,-17.55 -11.517,-11.533 -17.367,-25.425 -17.55,-41.675 v -1.525 c 0.183,-16.25 6.033,-30.125 17.55,-41.625 11.55,-11.55 25.442,-17.425 41.675,-17.625 h 1.55 c 16.233,0.2 30.108,6.075 41.625,17.625 11.533,11.5 17.4,25.375 17.6,41.625 m -120,120 v 1.525 c -0.2,16.25 -6.067,30.142 -17.6,41.675 -11.7,11.7 -25.833,17.55 -42.4,17.55 -16.567,0 -30.717,-5.85 -42.45,-17.55 -11.517,-11.533 -17.367,-25.425 -17.55,-41.675 V -0.75 c 0.183,-16.25 6.033,-30.125 17.55,-41.625 11.55,-11.55 25.442,-17.425 41.675,-17.625 h 1.55 c 16.233,0.2 30.108,6.075 41.625,17.625 11.533,11.5 17.4,25.375 17.6,41.625 M -1259.225,-180 h -1.55 c -16.233,-0.183 -30.125,-6.033 -41.675,-17.55 -11.517,-11.533 -17.367,-25.425 -17.55,-41.675 v -1.525 c 0.183,-16.25 6.033,-30.125 17.55,-41.625 11.55,-11.55 25.442,-17.425 41.675,-17.625 h 1.55 c 16.233,0.2 30.108,6.075 41.625,17.625 11.533,11.5 17.4,25.375 17.6,41.625 v 1.525 c -0.2,16.25 -6.067,30.142 -17.6,41.675 -11.517,11.517 -25.392,17.367 -41.625,17.55 m 120,-120 h -1.55 c -16.233,-0.183 -30.125,-6.033 -41.675,-17.55 -11.517,-11.533 -17.367,-25.425 -17.55,-41.675 v -1.525 c 0.183,-16.25 6.033,-30.133 17.55,-41.65 11.55,-11.533 25.442,-17.4 41.675,-17.6 h 1.55 c 16.233,0.2 30.108,6.067 41.625,17.6 11.533,11.517 17.4,25.4 17.6,41.65 v 1.525 c -0.2,16.25 -6.067,30.142 -17.6,41.675 -11.517,11.517 -25.392,17.367 -41.625,17.55 m 120,120 h -1.55 c -16.233,-0.183 -30.125,-6.033 -41.675,-17.55 -11.517,-11.533 -17.367,-25.425 -17.55,-41.675 v -1.525 c 0.183,-16.25 6.033,-30.125 17.55,-41.625 11.55,-11.55 25.442,-17.425 41.675,-17.625 h 1.55 c 16.233,0.2 30.108,6.075 41.625,17.625 11.533,11.5 17.4,25.375 17.6,41.625 v 1.525 c -0.2,16.25 -6.067,30.142 -17.6,41.675 -11.517,11.517 -25.392,17.367 -41.625,17.55 m 0,-240 h -1.55 c -16.233,-0.183 -30.125,-6.033 -41.675,-17.55 -11.517,-11.533 -17.367,-25.425 -17.55,-41.675 v -1.525 c 0.183,-16.25 6.033,-30.133 17.55,-41.65 11.55,-11.533 25.442,-17.4 41.675,-17.6 h 1.55 c 16.233,0.2 30.108,6.067 41.625,17.6 11.533,11.517 17.4,25.4 17.6,41.65 v 1.525 c -0.2,16.25 -6.067,30.142 -17.6,41.675 -11.517,11.517 -25.392,17.367 -41.625,17.55 m -240,0 h -1.55 c -16.233,-0.183 -30.125,-6.033 -41.675,-17.55 -11.517,-11.533 -17.367,-25.425 -17.55,-41.675 v -1.525 c 0.183,-16.25 6.033,-30.133 17.55,-41.65 11.55,-11.533 25.442,-17.4 41.675,-17.6 h 1.55 c 16.233,0.2 30.108,6.067 41.625,17.6 11.533,11.517 17.4,25.4 17.6,41.65 v 1.525 c -0.2,16.25 -6.067,30.142 -17.6,41.675 -11.517,11.517 -25.392,17.367 -41.625,17.55 m 120,-120 h -1.55 c -16.233,-0.183 -30.125,-6.033 -41.675,-17.55 -11.517,-11.533 -17.367,-25.425 -17.55,-41.675 v -1.525 c 0.183,-16.25 6.033,-30.133 17.55,-41.65 11.55,-11.533 25.442,-17.4 41.675,-17.6 h 1.55 c 16.233,0.2 30.108,6.067 41.625,17.6 11.533,11.517 17.4,25.4 17.6,41.65 v 1.525 c -0.2,16.25 -6.067,30.142 -17.6,41.675 -11.517,11.517 -25.392,17.367 -41.625,17.55 m -120,-120 h -1.55 c -16.233,-0.183 -30.125,-6.033 -41.675,-17.55 -11.517,-11.533 -17.367,-25.425 -17.55,-41.675 v -1.525 c 0.183,-16.25 6.033,-30.133 17.55,-41.65 11.55,-11.533 25.442,-17.4 41.675,-17.6 h 1.55 c 16.233,0.2 30.108,6.067 41.625,17.6 11.533,11.517 17.4,25.4 17.6,41.65 v 1.525 c -0.2,16.25 -6.067,30.142 -17.6,41.675 -11.517,11.517 -25.392,17.367 -41.625,17.55 M -960,-599.225 v -1.525 c 0.183,-16.25 6.033,-30.133 17.55,-41.65 11.55,-11.533 25.442,-17.4 41.675,-17.6 h 1.55 c 16.233,0.2 30.108,6.067 41.625,17.6 11.533,11.517 17.4,25.4 17.6,41.65 v 1.525 c -0.2,16.25 -6.067,30.142 -17.6,41.675 -11.517,11.517 -25.392,17.367 -41.625,17.55 h -1.55 c -16.233,-0.183 -30.125,-6.033 -41.675,-17.55 -11.517,-11.533 -17.367,-25.425 -17.55,-41.675 m -120,-120 v -1.525 c 0.183,-16.25 6.033,-30.133 17.55,-41.65 11.55,-11.533 25.442,-17.4 41.675,-17.6 h 1.55 c 16.233,0.2 30.108,6.067 41.625,17.6 11.533,11.517 17.4,25.4 17.6,41.65 v 1.525 c -0.2,16.25 -6.067,30.142 -17.6,41.675 -11.517,11.517 -25.392,17.367 -41.625,17.55 h -1.55 c -16.233,-0.183 -30.125,-6.033 -41.675,-17.55 -11.517,-11.533 -17.367,-25.425 -17.55,-41.675 M -779.225,-420 h -1.55 c -16.233,-0.183 -30.125,-6.033 -41.675,-17.55 -11.517,-11.533 -17.367,-25.425 -17.55,-41.675 v -1.525 c 0.183,-16.25 6.033,-30.133 17.55,-41.65 11.55,-11.533 25.442,-17.4 41.675,-17.6 h 1.55 c 16.233,0.2 30.108,6.067 41.625,17.6 11.533,11.517 17.4,25.4 17.6,41.65 v 1.525 c -0.2,16.25 -6.067,30.142 -17.6,41.675 -11.517,11.517 -25.392,17.367 -41.625,17.55 M -840,-719.225 v -1.525 c 0.183,-16.25 6.033,-30.133 17.55,-41.65 11.55,-11.533 25.442,-17.4 41.675,-17.6 h 1.55 c 16.233,0.2 30.108,6.067 41.625,17.6 11.533,11.517 17.4,25.4 17.6,41.65 v 1.525 c -0.2,16.25 -6.067,30.142 -17.6,41.675 -11.517,11.517 -25.392,17.367 -41.625,17.55 h -1.55 c -16.233,-0.183 -30.125,-6.033 -41.675,-17.55 -11.517,-11.533 -17.367,-25.425 -17.55,-41.675 M -1379.225,-60 h -1.55 c -16.233,-0.183 -30.125,-6.033 -41.675,-17.55 -11.517,-11.533 -17.367,-25.425 -17.55,-41.675 v -1.525 c 0.183,-16.25 6.033,-30.125 17.55,-41.625 11.55,-11.55 25.442,-17.425 41.675,-17.625 h 1.55 c 16.233,0.2 30.108,6.075 41.625,17.625 11.533,11.5 17.4,25.375 17.6,41.625 v 1.525 c -0.2,16.25 -6.067,30.142 -17.6,41.675 -11.517,11.517 -25.392,17.367 -41.625,17.55 M -1440,-0.75 v 1.525 c -0.2,16.25 -6.067,30.142 -17.6,41.675 -11.7,11.7 -25.833,17.55 -42.4,17.55 -16.567,0 -30.717,-5.85 -42.45,-17.55 -11.517,-11.533 -17.367,-25.425 -17.55,-41.675 V -0.75 c 0.183,-16.25 6.033,-30.125 17.55,-41.625 11.55,-11.55 25.442,-17.425 41.675,-17.625 h 1.55 c 16.233,0.2 30.108,6.075 41.625,17.625 11.533,11.5 17.4,25.375 17.6,41.625 m -120,-120 v 1.525 c -0.2,16.25 -6.067,30.142 -17.6,41.675 -11.517,11.517 -25.392,17.367 -41.625,17.55 h -1.55 c -16.233,-0.183 -30.125,-6.033 -41.675,-17.55 -11.517,-11.533 -17.367,-25.425 -17.55,-41.675 v -1.525 c 0.183,-16.25 6.033,-30.125 17.55,-41.625 11.55,-11.55 25.442,-17.425 41.675,-17.625 h 1.55 c 16.233,0.2 30.108,6.075 41.625,17.625 11.533,11.5 17.4,25.375 17.6,41.625 m 60.775,-59.25 h -1.55 c -16.233,-0.183 -30.125,-6.033 -41.675,-17.55 -11.517,-11.533 -17.367,-25.425 -17.55,-41.675 v -1.525 c 0.183,-16.25 6.033,-30.125 17.55,-41.625 11.55,-11.55 25.442,-17.425 41.675,-17.625 h 1.55 c 16.233,0.2 30.108,6.075 41.625,17.625 11.533,11.5 17.4,25.375 17.6,41.625 v 1.525 c -0.2,16.25 -6.067,30.142 -17.6,41.675 -11.517,11.517 -25.392,17.367 -41.625,17.55 m 120,-120 h -1.55 c -16.233,-0.183 -30.125,-6.033 -41.675,-17.55 -11.517,-11.533 -17.367,-25.425 -17.55,-41.675 v -1.525 c 0.183,-16.25 6.033,-30.133 17.55,-41.65 11.55,-11.533 25.442,-17.4 41.675,-17.6 h 1.55 c 16.233,0.2 30.108,6.067 41.625,17.6 11.533,11.517 17.4,25.4 17.6,41.65 v 1.525 c -0.2,16.25 -6.067,30.142 -17.6,41.675 -11.517,11.517 -25.392,17.367 -41.625,17.55 M -1680,-0.75 v 1.525 c -0.2,16.25 -6.067,30.142 -17.6,41.675 -11.7,11.7 -25.833,17.55 -42.4,17.55 -16.567,0 -30.717,-5.85 -42.45,-17.55 -11.517,-11.533 -17.367,-25.425 -17.55,-41.675 V -0.75 c 0.183,-16.25 6.033,-30.125 17.55,-41.625 11.55,-11.55 25.442,-17.425 41.675,-17.625 h 1.55 c 16.233,0.2 30.108,6.075 41.625,17.625 11.533,11.5 17.4,25.375 17.6,41.625 M -1859.225,-60 h -1.55 c -16.233,-0.183 -30.125,-6.033 -41.675,-17.55 -11.7,-11.733 -17.55,-25.883 -17.55,-42.45 0,-16.55 5.85,-30.675 17.55,-42.375 11.55,-11.55 25.442,-17.425 41.675,-17.625 h 1.55 c 16.233,0.2 30.108,6.075 41.625,17.625 11.533,11.5 17.4,25.375 17.6,41.625 v 1.525 c -0.2,16.25 -6.067,30.142 -17.6,41.675 -11.517,11.517 -25.392,17.367 -41.625,17.55 m 0,-240 h -1.55 c -16.233,-0.183 -30.125,-6.033 -41.675,-17.55 -11.7,-11.733 -17.55,-25.883 -17.55,-42.45 0,-16.55 5.85,-30.683 17.55,-42.4 11.55,-11.533 25.442,-17.4 41.675,-17.6 h 1.55 c 16.233,0.2 30.108,6.067 41.625,17.6 11.533,11.517 17.4,25.4 17.6,41.65 v 1.525 c -0.2,16.25 -6.067,30.142 -17.6,41.675 -11.517,11.517 -25.392,17.367 -41.625,17.55 m 59.225,60.775 v -1.525 c 0.183,-16.25 6.033,-30.125 17.55,-41.625 11.55,-11.55 25.442,-17.425 41.675,-17.625 h 1.55 c 16.233,0.2 30.108,6.075 41.625,17.625 11.533,11.5 17.4,25.375 17.6,41.625 v 1.525 c -0.2,16.25 -6.067,30.142 -17.6,41.675 -11.517,11.517 -25.392,17.367 -41.625,17.55 h -1.55 c -16.233,-0.183 -30.125,-6.033 -41.675,-17.55 -11.517,-11.533 -17.367,-25.425 -17.55,-41.675 M -1619.225,-300 h -1.55 c -16.233,-0.183 -30.125,-6.033 -41.675,-17.55 -11.517,-11.533 -17.367,-25.425 -17.55,-41.675 v -1.525 c 0.183,-16.25 6.033,-30.133 17.55,-41.65 11.55,-11.533 25.442,-17.4 41.675,-17.6 h 1.55 c 16.233,0.2 30.108,6.067 41.625,17.6 11.533,11.517 17.4,25.4 17.6,41.65 v 1.525 c -0.2,16.25 -6.067,30.142 -17.6,41.675 -11.517,11.517 -25.392,17.367 -41.625,17.55 m -120,-120 h -1.55 c -16.233,-0.183 -30.125,-6.033 -41.675,-17.55 -11.517,-11.533 -17.367,-25.425 -17.55,-41.675 v -1.525 c 0.183,-16.25 6.033,-30.133 17.55,-41.65 11.55,-11.533 25.442,-17.4 41.675,-17.6 h 1.55 c 16.233,0.2 30.108,6.067 41.625,17.6 11.533,11.517 17.4,25.4 17.6,41.65 v 1.525 c -0.2,16.25 -6.067,30.142 -17.6,41.675 -11.517,11.517 -25.392,17.367 -41.625,17.55 M -1800,-600.75 v 1.525 c -0.2,16.25 -6.067,30.142 -17.6,41.675 -8.862,8.862 -19.12,14.37 -30.775,16.525 -3.491,0.641 -7.108,0.983 -10.85,1.025 h -1.55 c -16.233,-0.183 -30.125,-6.033 -41.675,-17.55 -11.7,-11.733 -17.55,-25.883 -17.55,-42.45 0,-16.55 5.85,-30.683 17.55,-42.4 11.55,-11.533 25.442,-17.4 41.675,-17.6 h 1.55 c 3.742,0.046 7.359,0.396 10.85,1.05 11.655,2.159 21.913,7.675 30.775,16.55 11.533,11.517 17.4,25.4 17.6,41.65 m 0,-118.475 v -1.525 c 0.183,-16.25 6.033,-30.133 17.55,-41.65 11.55,-11.533 25.442,-17.4 41.675,-17.6 h 1.55 c 16.233,0.2 30.108,6.067 41.625,17.6 11.533,11.517 17.4,25.4 17.6,41.65 v 1.525 c -0.2,16.25 -6.067,30.142 -17.6,41.675 -11.517,11.517 -25.392,17.367 -41.625,17.55 h -1.55 c -16.233,-0.183 -30.125,-6.033 -41.675,-17.55 -11.517,-11.533 -17.367,-25.425 -17.55,-41.675 M -1619.225,-540 h -1.55 c -16.233,-0.183 -30.125,-6.033 -41.675,-17.55 -11.517,-11.533 -17.367,-25.425 -17.55,-41.675 v -1.525 c 0.183,-16.25 6.033,-30.133 17.55,-41.65 11.55,-11.533 25.442,-17.4 41.675,-17.6 h 1.55 c 16.233,0.2 30.108,6.067 41.625,17.6 11.533,11.517 17.4,25.4 17.6,41.65 v 1.525 c -0.2,16.25 -6.067,30.142 -17.6,41.675 -11.517,11.517 -25.392,17.367 -41.625,17.55 m 120,120 h -1.55 c -16.233,-0.183 -30.125,-6.033 -41.675,-17.55 -11.517,-11.533 -17.367,-25.425 -17.55,-41.675 v -1.525 c 0.183,-16.25 6.033,-30.133 17.55,-41.65 11.55,-11.533 25.442,-17.4 41.675,-17.6 h 1.55 c 16.233,0.2 30.108,6.067 41.625,17.6 11.533,11.517 17.4,25.4 17.6,41.65 v 1.525 c -0.2,16.25 -6.067,30.142 -17.6,41.675 -11.517,11.517 -25.392,17.367 -41.625,17.55 M -1440,-599.225 v -1.525 c 0.183,-16.25 6.033,-30.133 17.55,-41.65 11.55,-11.533 25.442,-17.4 41.675,-17.6 h 1.55 c 16.233,0.2 30.108,6.067 41.625,17.6 11.533,11.517 17.4,25.4 17.6,41.65 v 1.525 c -0.2,16.25 -6.067,30.142 -17.6,41.675 -11.517,11.517 -25.392,17.367 -41.625,17.55 h -1.55 c -16.233,-0.183 -30.125,-6.033 -41.675,-17.55 -11.517,-11.533 -17.367,-25.425 -17.55,-41.675 m -120,-120 v -1.525 c 0.183,-16.25 6.033,-30.133 17.55,-41.65 11.55,-11.533 25.442,-17.4 41.675,-17.6 h 1.55 c 16.233,0.2 30.108,6.067 41.625,17.6 11.533,11.517 17.4,25.4 17.6,41.65 v 1.525 c -0.2,16.25 -6.067,30.142 -17.6,41.675 -11.517,11.517 -25.392,17.367 -41.625,17.55 h -1.55 c -16.233,-0.183 -30.125,-6.033 -41.675,-17.55 -11.517,-11.533 -17.367,-25.425 -17.55,-41.675 M -1379.225,-780 h -1.55 c -16.233,-0.183 -30.125,-6.033 -41.675,-17.55 -11.517,-11.533 -17.367,-25.425 -17.55,-41.675 v -1.525 c 0.183,-16.25 6.033,-30.133 17.55,-41.65 11.55,-11.533 25.442,-17.4 41.675,-17.6 h 1.55 c 16.233,0.2 30.108,6.067 41.625,17.6 11.533,11.517 17.4,25.4 17.6,41.65 v 1.525 c -0.2,16.25 -6.067,30.142 -17.6,41.675 -11.517,11.517 -25.392,17.367 -41.625,17.55 M -1560,-840.75 v 1.525 c -0.2,16.25 -6.067,30.142 -17.6,41.675 -11.517,11.517 -25.392,17.367 -41.625,17.55 h -1.55 c -16.233,-0.183 -30.125,-6.033 -41.675,-17.55 -11.517,-11.533 -17.367,-25.425 -17.55,-41.675 v -1.525 c 0.183,-16.25 6.033,-30.133 17.55,-41.65 11.55,-11.533 25.442,-17.4 41.675,-17.6 h 1.55 c 16.233,0.2 30.108,6.067 41.625,17.6 11.533,11.517 17.4,25.4 17.6,41.65 m 60.775,-59.25 h -1.55 c -16.233,-0.183 -30.125,-6.033 -41.675,-17.55 -11.517,-11.533 -17.367,-25.425 -17.55,-41.675 v -1.525 c 0.183,-16.25 6.033,-30.133 17.55,-41.65 11.55,-11.533 25.442,-17.4 41.675,-17.6 h 1.55 c 16.233,0.2 30.108,6.067 41.625,17.6 11.533,11.517 17.4,25.4 17.6,41.65 v 1.525 c -0.2,16.25 -6.067,30.142 -17.6,41.675 -11.517,11.517 -25.392,17.367 -41.625,17.55 M -1320,-959.225 v -1.525 c 0.183,-16.25 6.033,-30.133 17.55,-41.65 11.55,-11.533 25.442,-17.4 41.675,-17.6 h 1.55 c 16.233,0.2 30.108,6.067 41.625,17.6 11.533,11.517 17.4,25.4 17.6,41.65 v 1.525 c -0.2,16.25 -6.067,30.142 -17.6,41.675 -11.517,11.517 -25.392,17.367 -41.625,17.55 h -1.55 c -16.233,-0.183 -30.125,-6.033 -41.675,-17.55 -11.517,-11.533 -17.367,-25.425 -17.55,-41.675 M -1739.225,-900 h -1.55 c -16.233,-0.183 -30.125,-6.033 -41.675,-17.55 -11.517,-11.533 -17.367,-25.425 -17.55,-41.675 v -1.525 c 0.183,-16.25 6.033,-30.133 17.55,-41.65 11.55,-11.533 25.442,-17.4 41.675,-17.6 h 1.55 c 16.233,0.2 30.108,6.067 41.625,17.6 11.533,11.517 17.4,25.4 17.6,41.65 v 1.525 c -0.2,16.25 -6.067,30.142 -17.6,41.675 -11.517,11.517 -25.392,17.367 -41.625,17.55 m -120,120 h -1.55 c -16.233,-0.183 -30.125,-6.033 -41.675,-17.55 -11.7,-11.733 -17.55,-25.883 -17.55,-42.45 0,-16.55 5.85,-30.683 17.55,-42.4 11.55,-11.533 25.442,-17.4 41.675,-17.6 h 1.55 c 16.233,0.2 30.108,6.067 41.625,17.6 11.533,11.517 17.4,25.4 17.6,41.65 v 1.525 c -0.2,16.25 -6.067,30.142 -17.6,41.675 -11.517,11.517 -25.392,17.367 -41.625,17.55 m 1080,-120 h -1.55 c -16.233,-0.183 -30.125,-6.033 -41.675,-17.55 -11.517,-11.533 -17.367,-25.425 -17.55,-41.675 v -1.525 c 0.183,-16.25 6.033,-30.133 17.55,-41.65 11.55,-11.533 25.442,-17.4 41.675,-17.6 h 1.55 c 16.233,0.2 30.108,6.067 41.625,17.6 11.533,11.517 17.4,25.4 17.6,41.65 v 1.525 c -0.2,16.25 -6.067,30.142 -17.6,41.675 -11.517,11.517 -25.392,17.367 -41.625,17.55 m -120,120 h -1.55 c -16.233,-0.183 -30.125,-6.033 -41.675,-17.55 -11.517,-11.533 -17.367,-25.425 -17.55,-41.675 v -1.525 c 0.183,-16.25 6.033,-30.133 17.55,-41.65 11.55,-11.533 25.442,-17.4 41.675,-17.6 h 1.55 c 16.233,0.2 30.108,6.067 41.625,17.6 11.533,11.517 17.4,25.4 17.6,41.65 v 1.525 c -0.2,16.25 -6.067,30.142 -17.6,41.675 -11.517,11.517 -25.392,17.367 -41.625,17.55 M -1080,-840.75 v 1.525 c -0.2,16.25 -6.067,30.142 -17.6,41.675 -11.517,11.517 -25.392,17.367 -41.625,17.55 h -1.55 c -16.233,-0.183 -30.125,-6.033 -41.675,-17.55 -11.517,-11.533 -17.367,-25.425 -17.55,-41.675 v -1.525 c 0.183,-16.25 6.033,-30.133 17.55,-41.65 11.55,-11.533 25.442,-17.4 41.675,-17.6 h 1.55 c 16.233,0.2 30.108,6.067 41.625,17.6 11.533,11.517 17.4,25.4 17.6,41.65 m 60.775,-59.25 h -1.55 c -16.233,-0.183 -30.125,-6.033 -41.675,-17.55 -11.517,-11.533 -17.367,-25.425 -17.55,-41.675 v -1.525 c 0.183,-16.25 6.033,-30.133 17.55,-41.65 11.55,-11.533 25.442,-17.4 41.675,-17.6 h 1.55 c 16.233,0.2 30.108,6.067 41.625,17.6 11.533,11.517 17.4,25.4 17.6,41.65 v 1.525 c -0.2,16.25 -6.067,30.142 -17.6,41.675 -11.517,11.517 -25.392,17.367 -41.625,17.55"
             style="fill:#70f8f8;fill-opacity:1;fill-rule:nonzero;stroke:none"
             id="path26" />
        </g>
        <g
           id="g28"
           transform="translate(1876.1749,660.55)">
          <path
             d="m 0,0 -0.125,0.2 -25.025,-7.125 -12,-15.35 9.1,-13.575 z m -4.025,-97.375 0.175,0.225 -22.2,33.125 -33.975,12.55 -36.225,-46.225 -0.95,-26.025 0.25,-0.075 36.925,47.125 56,-20.7 m -147.35,54.325 -0.025,-0.25 55.475,-20.25 0.9,24.875 -18.15,6.625 -38.2,-11 m -121.525,393.7 -0.125,0.2 -25.025,-7.125 -12,-15.35 9.1,-13.575 28.05,35.85 m -4.025,-97.375 0.175,0.225 -22.2,33.125 -33.975,12.55 -36.225,-46.225 -0.95,-26.025 0.25,-0.075 36.925,47.125 56,-20.7 m -91,58.7 -18.15,6.625 -38.2,-11 -0.025,-0.25 55.475,-20.25 0.9,24.875 m -241.05,-919.775 -25.025,-7.125 -12,-15.35 9.1,-13.575 28.05,35.85 -0.125,0.2 m -25.925,-64.225 -33.975,12.55 -36.225,-46.225 -0.95,-26.025 0.25,-0.075 36.925,47.125 56,-20.7 0.175,0.225 -22.2,33.125 m -125.325,20.975 -0.025,-0.25 55.475,-20.25 0.9,24.875 -18.15,6.625 -38.2,-11 m -167.4,1098.475 -0.125,0.2 -25.025,-7.125 -12,-15.35 9.1,-13.575 28.05,35.85 m -4.025,-97.375 0.175,0.225 -22.2,33.125 -33.975,12.55 -36.225,-46.225 -0.95,-26.025 0.25,-0.075 36.925,47.125 56,-20.7 m -91,58.7 -18.15,6.625 -38.2,-11 -0.025,-0.25 55.475,-20.25 0.9,24.875 m -798.175,-672.775 -0.125,0.2 -25.025,-7.125 -12,-15.35 9.1,-13.575 28.05,35.85 m -4.025,-97.375 0.175,0.225 -22.2,33.125 -33.975,12.55 -36.225,-46.225 -0.95,-26.025 0.25,-0.075 36.925,47.125 56,-20.7 m -91.9,33.825 0.9,24.875 -18.15,6.625 -38.2,-11 -0.025,-0.25 55.475,-20.25 m 262.825,-233.375 -0.125,0.2 -25.025,-7.125 -12,-15.35 9.1,-13.575 28.05,35.85 m -95.025,-38.675 -18.15,6.625 -38.2,-11 -0.025,-0.25 55.475,-20.25 0.9,24.875 m 91,-58.7 0.175,0.225 -22.2,33.125 -33.975,12.55 -36.225,-46.225 -0.95,-26.025 0.25,-0.075 36.925,47.125 56,-20.7 m 288.725,983.125 -12.025,-15.35 9.1,-13.575 28.05,35.85 -0.125,0.2 -25,-7.125 m -126.25,-36.125 -0.025,-0.25 55.475,-20.25 0.9,24.875 -18.125,6.625 -38.225,-11 m 125.325,-21 -33.975,12.575 -36.225,-46.25 -0.95,-26 0.25,-0.075 36.925,47.125 56,-20.7 0.175,0.225 z"
             style="fill:#10c0b8;fill-opacity:1;fill-rule:nonzero;stroke:none"
             id="path30" />
        </g>
        <g
           id="g32"
           transform="translate(1876.1749,685.75)">
          <path
             d="M 0,0 -0.125,0.2 -57.775,-16.225 -90.95,33.3 -91.2,33.225 -93.525,-26.4 l -57.85,-16.65 -0.025,-0.25 38.225,-13.95 18.15,-6.625 -0.9,-24.875 -1.275,-34.975 0.25,-0.075 0.7,0.9 36.225,46.225 33.975,-12.55 22.025,-8.15 0.175,0.225 -24.2,36.1 -9.1,13.575 12,15.35 z m -608.85,-608 -0.125,0.2 -57.65,-16.425 -33.175,49.525 -0.25,-0.075 -2.325,-59.625 -57.85,-16.65 -0.025,-0.25 38.225,-13.95 18.15,-6.625 -0.9,-24.875 -1.275,-34.975 0.25,-0.075 0.7,0.9 36.225,46.225 33.975,-12.55 22.025,-8.15 0.175,0.225 -24.2,36.1 -9.1,13.575 12,15.35 25.15,32.125 m -1302.925,377.275 -0.25,-0.075 -2.325,-59.625 -57.85,-16.65 -0.025,-0.25 38.225,-13.95 18.15,-6.625 -0.9,-24.875 -1.275,-34.975 0.25,-0.075 0.7,0.9 36.225,46.225 33.975,-12.55 22.025,-8.15 0.175,0.225 -24.2,36.1 -9.1,13.575 12,15.35 25.15,32.125 -0.125,0.2 -57.65,-16.425 -33.175,49.525 m 476.725,595.75 -0.25,-0.075 -2.325,-59.625 -57.85,-16.65 -0.025,-0.25 38.25,-13.95 18.125,-6.625 -0.9,-24.875 -1.275,-34.975 0.25,-0.075 0.7,0.875 36.225,46.25 33.975,-12.575 22.025,-8.125 0.175,0.225 -24.2,36.1 -9.1,13.575 12.025,15.35 25.125,32.125 -0.125,0.2 -57.65,-16.425 z"
             style="fill:#f85000;fill-opacity:1;fill-rule:nonzero;stroke:none"
             id="path34" />
        </g>
        <g
           id="g36"
           transform="translate(1603.2749,1036.4)">
          <path
             d="M 0,0 -0.125,0.2 -57.775,-16.225 -90.95,33.3 -91.2,33.225 -93.525,-26.4 l -57.85,-16.65 -0.025,-0.25 38.225,-13.95 18.15,-6.625 -0.9,-24.875 -1.275,-34.975 0.25,-0.075 0.7,0.9 36.225,46.225 33.975,-12.55 22.025,-8.15 0.175,0.225 -24.2,36.1 -9.1,13.575 12,15.35 z m -654.725,96.775 -0.125,0.2 -57.65,-16.425 -33.175,49.525 -0.25,-0.075 -2.325,-59.625 -57.85,-16.65 -0.025,-0.25 38.225,-13.95 18.15,-6.625 -0.9,-24.875 -1.275,-34.975 0.25,-0.075 0.7,0.9 36.225,46.225 33.975,-12.55 22.025,-8.15 0.175,0.225 -24.2,36.1 -9.1,13.575 12,15.35 25.15,32.125 m -726.3,-1008.375 -0.125,0.2 -57.65,-16.425 -33.175,49.525 -0.25,-0.075 -2.325,-59.625 -57.85,-16.65 -0.025,-0.25 38.225,-13.95 18.15,-6.625 -0.9,-24.875 -1.275,-34.975 0.25,-0.075 0.7,0.9 36.225,46.225 33.975,-12.55 22.025,-8.15 0.175,0.225 -24.2,36.1 -9.1,13.575 12,15.35 z"
             style="fill:#f8d008;fill-opacity:1;fill-rule:nonzero;stroke:none"
             id="path38" />
        </g>
        <g
           id="g40"
           transform="translate(1583.425,1096.625)">
          <path
             d="m 0,0 -12.45,-3.425 -7.15,10.35 h -0.05 l -0.5,-12.5 -12.5,-3.475 V -9.1 l 12.175,-4.3 -0.475,-12.55 h 0.05 l 7.975,9.85 12.075,-4.325 0.05,0.05 -7.2,10.4 8.025,9.925 z M 1.325,-607.95 1.175,-608 -0.15,-641.85 -33,-651.3 v -0.15 l 32,-11.675 -1.225,-33.975 0.125,-0.05 20.975,26.75 31.775,-11.75 0.1,0.15 -18.9,28.175 21.1,26.95 -0.075,0.125 -32.725,-9.325 -18.825,28.125 m 190.25,-378.025 -0.15,-0.05 -1.325,-33.85 -32.85,-9.45 v -0.15 l 32,-11.675 -1.225,-33.975 0.125,-0.05 20.975,26.75 31.775,-11.75 0.1,0.15 -18.9,28.175 21.1,26.95 -0.075,0.125 -32.725,-9.325 -18.825,28.125 m -297.25,-55.425 -7.15,10.35 h -0.05 l -0.5,-12.5 -12.5,-3.475 v -0.05 l 12.175,-4.3 -0.475,-12.55 h 0.05 l 7.975,9.85 12.075,-4.325 0.05,0.05 -7.2,10.4 8.025,9.925 -0.025,0.05 -12.45,-3.425 m -177.3,1067.775 -0.075,0.125 -32.725,-9.325 -18.825,28.125 -0.15,-0.05 -1.325,-33.85 -32.85,-9.45 V 1.8 l 32,-11.675 -1.225,-33.975 0.125,-0.05 20.975,26.75 31.775,-11.75 0.1,0.15 -18.9,28.175 21.1,26.95 M -445.1,-0.2 l -12.45,-3.425 -7.15,10.35 h -0.05 l -0.5,-12.5 -12.5,-3.475 V -9.3 l 12.175,-4.3 -0.475,-12.55 h 0.05 l 7.975,9.85 12.075,-4.325 0.05,0.05 -7.2,10.4 8.025,9.925 -0.025,0.05 m -441.375,-107.975 -0.15,-0.05 -1.325,-33.85 -32.85,-9.45 v -0.15 l 32,-11.675 -1.225,-33.975 0.125,-0.05 20.975,26.75 31.775,-11.75 0.1,0.15 -18.9,28.175 21.1,26.95 -0.075,0.125 -32.725,-9.325 -18.825,28.125 m -314.3,-122.95 v -0.05 l 12.175,-4.3 -0.475,-12.55 h 0.05 l 7.975,9.85 12.075,-4.325 0.05,0.05 -7.2,10.4 8.025,9.925 -0.025,0.05 -12.45,-3.425 -7.15,10.35 h -0.05 l -0.5,-12.5 -12.5,-3.475 m -167.775,-257.825 -0.15,-0.05 -1.325,-33.85 -32.85,-9.45 v -0.15 l 32,-11.675 -1.225,-33.975 0.125,-0.05 20.975,26.75 31.775,-11.75 0.1,0.15 -18.9,28.175 21.1,26.95 -0.075,0.125 -32.725,-9.325 -18.825,28.125 m -61.5,-80.1 -0.025,0.05 -12.45,-3.425 -7.15,10.35 h -0.05 l -0.5,-12.5 -12.5,-3.475 v -0.05 l 12.175,-4.3 -0.475,-12.55 h 0.05 l 7.975,9.85 12.075,-4.325 0.05,0.05 -7.2,10.4 8.025,9.925 m -113.775,-348.075 h -0.05 l -0.5,-12.5 -12.5,-3.475 v -0.05 l 12.175,-4.3 -0.475,-12.55 h 0.05 l 7.975,9.85 12.075,-4.325 0.05,0.05 -7.2,10.4 8.025,9.925 -0.025,0.05 -12.45,-3.425 -7.15,10.35 m 715.2,-131.95 -0.15,-0.05 -1.325,-33.85 -32.85,-9.45 v -0.15 l 32,-11.675 -1.225,-33.975 0.125,-0.05 20.975,26.75 31.775,-11.75 0.1,0.15 -18.9,28.175 21.1,26.95 -0.075,0.125 -32.725,-9.325 z"
             style="fill:#f85000;fill-opacity:1;fill-rule:nonzero;stroke:none"
             id="path42" />
        </g>
        <g
           id="g44"
           transform="translate(1824.75,1004.725)">
          <path
             d="m 0,0 -0.15,-0.05 -1.325,-33.85 -32.85,-9.45 v -0.15 l 32,-11.675 -1.225,-33.975 0.125,-0.05 20.975,26.75 31.775,-11.75 0.1,0.15 -18.9,28.175 21.1,26.95 -0.075,0.125 -32.725,-9.325 z m 69.9,-498.225 12.175,-4.3 -0.475,-12.55 h 0.05 l 7.975,9.85 12.075,-4.325 0.05,0.05 -7.2,10.4 8.025,9.925 -0.025,0.05 -12.45,-3.425 -7.15,10.35 H 82.9 l -0.5,-12.5 -12.5,-3.475 v -0.05 m -402.85,-336.05 -0.15,-0.05 -1.325,-33.85 -32.85,-9.45 v -0.15 l 32,-11.675 -1.225,-33.975 0.125,-0.05 20.975,26.75 31.775,-11.75 0.1,0.15 -18.9,28.175 21.1,26.95 -0.075,0.125 -32.725,-9.325 -18.825,28.125 m -486.525,836.2 -0.025,0.05 -12.45,-3.425 -7.15,10.35 h -0.05 l -0.5,-12.5 -12.5,-3.475 v -0.05 l 12.175,-4.3 -0.475,-12.55 h 0.05 l 7.975,9.85 12.075,-4.325 0.05,0.05 -7.2,10.4 8.025,9.925 m -884.575,58.2 -0.15,-0.05 -1.325,-33.85 -32.85,-9.45 v -0.15 l 32,-11.675 -1.225,-33.975 0.125,-0.05 20.975,26.75 31.775,-11.75 0.1,0.15 -18.9,28.175 21.1,26.95 -0.075,0.125 -32.725,-9.325 -18.825,28.125 m 64.1,-580.675 -7.15,10.35 h -0.05 l -0.5,-12.5 -12.5,-3.475 v -0.05 l 12.175,-4.3 -0.475,-12.55 h 0.05 l 7.975,9.85 12.075,-4.325 0.05,0.05 -7.2,10.4 8.025,9.925 -0.025,0.05 -12.45,-3.425 m 198.875,-226.65 v -0.05 l 12.175,-4.3 -0.475,-12.55 h 0.05 l 7.975,9.85 12.075,-4.325 0.05,0.05 -7.2,10.4 8.025,9.925 -0.025,0.05 -12.45,-3.425 -7.15,10.35 h -0.05 l -0.5,-12.5 -12.5,-3.475 m 27.85,-69.3 v -0.15 l 32,-11.675 -1.225,-33.975 0.125,-0.05 20.975,26.75 31.775,-11.75 0.1,0.15 -18.9,28.175 21.1,26.95 -0.075,0.125 -32.725,-9.325 -18.825,28.125 -0.15,-0.05 -1.325,-33.85 -32.85,-9.45 m 262.2,-139.625 -0.5,-12.5 -12.5,-3.475 v -0.05 l 12.175,-4.3 -0.475,-12.55 h 0.05 l 7.975,9.85 12.075,-4.325 0.05,0.05 -7.2,10.4 8.025,9.925 -0.025,0.05 -12.45,-3.425 -7.15,10.35 h -0.05 m 355.15,-4.175 -0.15,-0.05 -1.325,-33.85 -32.85,-9.45 v -0.15 l 32,-11.675 -1.225,-33.975 0.125,-0.05 20.975,26.75 31.775,-11.75 0.1,0.15 -18.9,28.175 21.1,26.95 -0.075,0.125 -32.725,-9.325 -18.825,28.125 m 268.925,12.2 H -527 l -0.5,-12.5 -12.5,-3.475 v -0.05 l 12.175,-4.3 -0.475,-12.55 h 0.05 l 7.975,9.85 12.075,-4.325 0.05,0.05 -7.2,10.4 8.025,9.925 -0.025,0.05 -12.45,-3.425 z"
             style="fill:#f8d008;fill-opacity:1;fill-rule:nonzero;stroke:none"
             id="path46" />
        </g>
        <g
           id="g48"
           transform="translate(1475.917,624.2063)">
          <path
             d="m 0,0 c 10.887,27.916 16.556,57.823 16.556,87.994 0,133.332 -108.472,241.805 -241.802,241.805 -77.703,0 -149.345,-37.124 -194.322,-97.838 -31.174,15.575 -65.779,23.862 -101.131,23.862 -46.702,0 -91.546,-14.126 -129.683,-40.85 -19.775,-13.858 -37.013,-30.558 -51.257,-49.514 -38.252,24.004 -82.914,37.161 -128.675,37.161 -133.331,0 -241.803,-108.472 -241.803,-241.804 0,-53.6 17.184,-104.382 49.693,-146.855 22.708,-29.668 52.269,-53.776 85.595,-70.211 -0.455,-5.836 -0.684,-11.698 -0.684,-17.568 0,-123.855 100.764,-224.619 224.618,-224.619 46.465,0 91.064,14.077 128.979,40.71 22.553,15.844 41.768,35.407 56.963,57.81 25.356,-9.582 52.363,-14.536 79.95,-14.536 69.433,0 134.675,32.441 177.101,85.566 27.93,-12.454 58.24,-18.907 89.587,-18.907 121.652,0 220.623,98.968 220.623,220.62 C 40.308,-81.112 26.175,-36.99 0,0"
             style="fill:#00b3f0;fill-opacity:1;fill-rule:nonzero;stroke:none"
             id="path50" />
        </g>
        <g
           id="g52"
           transform="translate(1447.014,620.6214)">
          <path
             d="m 0,0 c 13.306,28.536 20.28,59.89 20.28,91.58 0,119.447 -97.176,216.625 -216.623,216.625 -77.188,0 -147.696,-40.886 -186.37,-106.14 -32.326,20.882 -70.196,32.164 -109.083,32.164 -41.505,0 -81.353,-12.55 -115.233,-36.292 -24.384,-17.088 -44.426,-39.03 -59.042,-64.441 -38.177,30.486 -86.05,47.529 -135.34,47.529 -119.447,0 -216.624,-97.177 -216.624,-216.624 0,-89.25 55.53,-169.408 137.334,-201.64 -1.814,-10.872 -2.73,-21.909 -2.73,-32.994 0,-109.972 89.468,-199.44 199.438,-199.44 41.258,0 80.853,12.496 114.506,36.135 25.789,18.116 46.666,41.707 61.329,69.1 27.81,-13.961 58.506,-21.251 90.058,-21.251 68.627,0 132.643,35.659 169.29,92.607 29.495,-17.042 62.724,-25.948 97.399,-25.948 107.766,0 195.441,87.675 195.441,195.441 C 44.03,-78.142 28.502,-34.828 0,0"
             style="fill:#ffffff;fill-opacity:1;fill-rule:nonzero;stroke:none"
             id="path54" />
        </g>
        <g
           id="g56"
           transform="translate(1420.6176,617.27)">
          <path
             d="m 0,0 c 15.722,28.085 24.696,60.457 24.696,94.931 0,107.498 -87.144,194.643 -194.642,194.643 -80.018,0 -148.746,-48.291 -178.662,-117.313 -31.354,27.006 -72.164,43.337 -116.792,43.337 -76.354,0 -141.533,-47.798 -167.281,-115.099 -35.529,38.078 -86.146,61.896 -142.333,61.896 -107.498,0 -194.643,-87.145 -194.643,-194.643 0,-88.904 59.608,-163.884 141.037,-187.163 -4.186,-15.111 -6.432,-31.028 -6.432,-47.472 0,-98.006 79.45,-177.456 177.456,-177.456 75.82,0 140.521,47.555 165.936,114.46 28.547,-19.243 62.939,-30.478 99.956,-30.478 71.322,0 132.898,41.703 161.69,102.052 29.149,-22.201 65.531,-35.392 105,-35.392 95.799,0 173.459,77.66 173.459,173.459 C 48.445,-73.553 29.997,-31.181 0,0"
             style="fill:#130c0e;fill-opacity:1;fill-rule:nonzero;stroke:none"
             id="path58" />
        </g>
        <g
           id="g60"
           transform="translate(1420.6035,432.0697)">
          <path
             d="M 0,0 V 14.971 L -3.764,-0.869 -7.84,-1.81 -11.514,12.313 V -2.658 l -3.853,-0.89 v 17.922 l 6.019,1.39 3.63,-13.378 0.045,0.011 3.54,15.032 5.941,1.372 V 0.879 Z M -27.819,-6.423 V 8.321 L -34.018,6.89 v 3.168 l 16.395,3.785 v -3.168 l -5.975,-1.38 V -5.448 Z"
             style="fill:#f15a22;fill-opacity:1;fill-rule:nonzero;stroke:none"
             id="path62" />
        </g>
        <g
           id="g64"
           transform="translate(1337.9139,622.5757)">
          <path
             d="m 0,0 c 0,0 -0.279,-72.749 -1.185,-85.546 -0.905,-12.798 -3.135,-18.014 -6.618,-18.64 -1.672,-0.209 -3.342,0.197 -4.737,1.113 -9.12,5.983 -26.161,40.053 -41.418,69.681 l -22.26,-5.139 V -222.63 l 26.953,6.223 0.357,46.774 c 0,9.738 1.045,16.206 3.275,19.266 0.766,1.043 2.017,1.754 3.204,1.947 7.848,1.278 23.27,-18.639 42.15,-50.354 l 36.019,8.316 V 8.251 Z"
             style="fill:#f15a22;fill-opacity:1;fill-rule:nonzero;stroke:none"
             id="path66" />
        </g>
        <g
           id="g68"
           transform="translate(1200.5267,438.158)">
          <path
             d="m 0,0 c -0.826,-0.005 -6.94,0.204 -7.594,4.868 -0.379,2.702 0.975,5.147 4.18,7.234 2.787,1.669 7.037,3.408 12.749,5.077 l 26.962,7.094 v 23.438 c 0,0 -30.69,-7.385 -40.129,-5.981 -2.866,0.426 -4.737,1.947 -5.155,4.59 -0.349,2.713 0.975,5.147 4.18,7.234 8.631,5.623 47.375,13.979 47.375,13.979 v 54.081 L -37.203,103.198 V -40.966 L 44.24,-22.164 V 7.79 C 22.503,2.851 7.81,0.043 0,0"
             style="fill:#f15a22;fill-opacity:1;fill-rule:nonzero;stroke:none"
             id="path70" />
        </g>
        <g
           id="g72"
           transform="translate(1112.3381,545.7175)">
          <path
             d="m 0,0 c 0,0 -8.641,-56.935 -16.315,-83.246 -2.192,-7.518 -7.492,-19.021 -14.7,-2.573 -2.582,5.891 -10.245,33.414 -15.87,68.897 l -24.886,-5.746 c 2.178,-24.397 14.125,-90.293 30.042,-128.682 l 48.266,11.143 c 17.765,47.015 28.425,96.674 32.047,149.115 z"
             style="fill:#f15a22;fill-opacity:1;fill-rule:nonzero;stroke:none"
             id="path74" />
        </g>
        <g
           id="g76"
           transform="translate(1005.3967,385.8352)">
          <path
             d="m 0,0 c -3.844,-0.837 -12.59,-3.052 -17.059,-3.889 -4.277,-0.837 -6.776,1.575 -6.247,7.68 0.48,5.71 2.989,17.818 3.94,21.907 2.104,9.042 6.238,12.811 11.101,13.489 C -2.033,40.056 3.412,34.608 6.391,19.84 6.679,18.412 7.407,15.448 7.881,11.421 8.456,6.531 6.055,1.526 0,0 m 21.272,81.615 c -12.079,22.253 -26.125,17.642 -33.323,15.26 -9.43,-3.12 -17.8,-7.963 -26.558,-42.703 -9.206,-36.518 -19.228,-113.228 -19.228,-113.228 l 25.271,5.835 2.596,14.543 c 1.254,7.025 5.725,11.488 12.54,13.493 0,0 19.581,5.082 26.266,5.842 2.823,0.321 6.141,-1.908 7.106,-6.329 l 3.413,-15.649 34.417,7.946 c 0,0 -17.121,86.655 -32.5,114.99"
             style="fill:#f15a22;fill-opacity:1;fill-rule:nonzero;stroke:none"
             id="path78" />
        </g>
        <g
           id="g80"
           transform="translate(891.7545,356.825)">
          <path
             d="m 0,0 c -0.826,-0.005 -6.94,0.204 -7.594,4.868 -0.379,2.702 0.975,5.147 4.18,7.234 2.787,1.669 7.037,3.408 12.75,5.077 l 26.961,7.094 v 23.438 c 0,0 -30.69,-7.385 -40.129,-5.981 -2.866,0.426 -4.737,1.947 -5.155,4.59 -0.349,2.713 0.975,5.147 4.18,7.234 8.631,5.623 47.375,13.979 47.375,13.979 v 58.353 L -37.203,107.469 V -36.722 L 44.24,-17.92 V 7.79 C 22.503,2.851 7.81,0.043 0,0"
             style="fill:#f15a22;fill-opacity:1;fill-rule:nonzero;stroke:none"
             id="path82" />
        </g>
        <g
           id="g84"
           transform="translate(792.4763,477.1467)">
          <path
             d="m 0,0 c 0.766,-28.724 0.458,-50.226 -3.483,-64.334 -2.394,-8.57 -7.664,-15.092 -14.7,-20.03 -7.168,-5.03 -14.352,-7.233 -21.389,-7.372 -8.58,-0.17 -14.782,3.169 -15.606,12.171 -1.254,13.701 -1.811,32.853 -1.393,56.848 l -31.142,-7.19 v -212.127 l 42.777,9.876 c -0.767,27.055 0.156,47.124 3.483,59.535 2.268,8.458 8.473,15.616 14.7,19.822 7.278,4.914 14.338,7.466 21.389,7.58 8.569,0.14 14.797,-3.834 15.605,-12.379 1.185,-12.519 1.742,-30.581 1.394,-53.602 l 31.838,7.351 V 10.037 Z"
             style="fill:#f15a22;fill-opacity:1;fill-rule:nonzero;stroke:none"
             id="path86" />
        </g>
        <g
           id="g88"
           transform="translate(1334.7736,647.2057)">
          <path
             d="m 0,0 v 184.705 l -25.249,-5.83 C -38.641,134.655 -46.22,113.033 -52.823,94.805 -64.076,63.79 -75.747,75.973 -81.188,84.622 c -6.323,10.137 -14.926,29.856 -29.852,65.986 l -36.874,-8.513 v -170.91 l 30.576,7.059 c -0.232,27.667 0.253,43.79 1.741,51.09 1.349,6.557 5.301,7.487 9.3,0.977 3.301,-5.348 8.509,-16.926 18.879,-40.733 l 20.506,4.734 c 11.299,30.364 17.39,45.671 21.715,53.157 3.487,6.091 10.137,10.369 12.136,-0.884 1.535,-8.509 1.395,-25.635 1.349,-53.906 z"
             style="fill:#faa61a;fill-opacity:1;fill-rule:nonzero;stroke:none"
             id="path90" />
        </g>
        <g
           id="g92"
           transform="translate(1134.7567,747.1031)">
          <path
             d="m 0,0 v -53.221 c -1.764,-17.169 -32.152,-24.438 -34.306,-6.406 -0.73,8.029 -1.114,19.119 -1.114,42.796 l -25.531,-5.894 v -158.223 l 35.007,8.082 v 37.873 c 2.128,27.391 33.871,28.911 36.791,9.476 0.983,-6.126 0.892,-15.805 0.892,-35.787 l 25.531,5.894 V 8.604 Z"
             style="fill:#faa61a;fill-opacity:1;fill-rule:nonzero;stroke:none"
             id="path94" />
        </g>
        <g
           id="g96"
           transform="translate(960.6453,724.5699)">
          <path
             d="m 0,0 v -65.206 l 23.556,5.439 c 9.388,2.167 12.684,0.174 12.616,-18.686 v -83.796 l 27.909,6.443 v 77.544 c 0.194,33.289 4.101,40.18 20.656,44.002 l 14.781,3.413 v 53.823 z"
             style="fill:#faa61a;fill-opacity:1;fill-rule:nonzero;stroke:none"
             id="path98" />
        </g>
        <g
           id="g100"
           transform="translate(946.8634,696.8837)">
          <path
             d="m 0,0 -29.766,-6.872 c 0,0 -0.676,-29.997 -1.832,-52.352 -1.724,-31.71 -35.632,-41.576 -37.512,-9.316 -0.858,16.446 -1.131,48.744 -1.131,48.744 l -35.896,-8.287 v -15.255 c 0,-59.405 7.364,-80.358 42.711,-75.69 8.368,1.105 14.718,3.251 21.772,8.337 0.458,0.29 0.908,0.246 1.272,0 0.757,-0.545 1.568,-2.074 0.318,-5.952 -6.728,-20.888 -64.082,-26.338 -64.082,-26.338 l -0.015,-47.088 c 32.938,4.848 68.896,11.798 87.603,43.118 C -9.491,-135.299 0.003,-111.729 0,0"
             style="fill:#faa61a;fill-opacity:1;fill-rule:nonzero;stroke:none"
             id="path102" />
        </g>
        <g
           id="g104"
           transform="translate(788.7548,671.6638)">
          <path
             d="m 0,0 v -50.58 c -1.676,-16.317 -30.556,-23.225 -32.603,-6.088 -0.694,7.63 -1.06,18.171 -1.06,40.673 l -24.264,-5.602 v -150.371 l 33.27,7.681 v 35.993 c 2.023,26.031 32.191,27.476 34.966,9.006 0.934,-5.823 0.847,-15.022 0.847,-34.012 l 24.264,5.602 V 8.177 Z"
             style="fill:#faa61a;fill-opacity:1;fill-rule:nonzero;stroke:none"
             id="path106" />
        </g>
        <g
           id="g108"
           transform="translate(625.3144,560.3402)">
          <path
             d="m 0,0 c -15.235,-3.885 -24.221,4.276 -24.221,24.756 0,16.336 0.308,33.201 30.216,33.201 21.292,0 30.175,-10.782 30.195,-22.944 C 36.209,23.666 23.231,5.924 0,0 m 89.409,67.476 c 0,37.615 -27.715,83.112 -143.676,55.202 V -81.9 l 30.198,6.972 v 36.554 c 0,17.845 11.613,10.678 14.177,9.066 4.334,-2.725 13.387,-10.126 34.893,-34.292 l 51.3,11.844 -39.976,40.931 c 0,0 53.084,21.374 53.084,78.301"
             style="fill:#faa61a;fill-opacity:1;fill-rule:nonzero;stroke:none"
             id="path110" />
        </g>
      </g>
    </g>
  </g>
</svg>
