<?xml version="1.0" encoding="UTF-8" standalone="no"?>
<!-- Generator: Adobe Illustrator 25.0.0, SVG Export Plug-In . SVG Version: 6.00 Build 0)  -->

<svg
   version="1.1"
   id="Layer_1"
   x="0px"
   y="0px"
   viewBox="0 0 2560 1440"
   xml:space="preserve"
   sodipodi:docname="Rhythm Heaven Fever (GilvaSunner &amp; SilvaGunner).svg"
   width="2560"
   height="1440"
   inkscape:version="1.2.2 (b0a8486541, 2022-12-01)"
   xmlns:inkscape="http://www.inkscape.org/namespaces/inkscape"
   xmlns:sodipodi="http://sodipodi.sourceforge.net/DTD/sodipodi-0.dtd"
   xmlns:xlink="http://www.w3.org/1999/xlink"
   xmlns="http://www.w3.org/2000/svg"
   xmlns:svg="http://www.w3.org/2000/svg"><defs
   id="defs6256" /><sodipodi:namedview
   id="namedview6254"
   pagecolor="#505050"
   bordercolor="#eeeeee"
   borderopacity="1"
   inkscape:showpageshadow="0"
   inkscape:pageopacity="0"
   inkscape:pagecheckerboard="0"
   inkscape:deskcolor="#505050"
   showgrid="false"
   inkscape:zoom="1.0546875"
   inkscape:cx="970.42963"
   inkscape:cy="539.4963"
   inkscape:window-width="2560"
   inkscape:window-height="1400"
   inkscape:window-x="0"
   inkscape:window-y="0"
   inkscape:window-maximized="1"
   inkscape:current-layer="Layer_1" />
<style
   type="text/css"
   id="style6032">
	.st0{clip-path:url(#SVGID_2_);}
	.st1{fill:url(#SVGID_3_);}
	.st2{fill:url(#SVGID_4_);}
	.st3{fill:url(#SVGID_5_);}
	.st4{fill:url(#SVGID_6_);}
	.st5{fill:url(#SVGID_7_);}
	.st6{fill:url(#SVGID_8_);}
	.st7{fill:url(#SVGID_9_);}
	.st8{fill:url(#Spectrum_1_);}
	.st9{fill:#FFFFFF;}
	.st10{fill:#220614;}
	.st11{fill:#F06917;}
	.st12{fill:#FEEF0E;}
</style>
<g
   id="Rhythm_Heaven"
   transform="scale(1.3333333)">
	<defs
   id="defs6035">
		<rect
   id="SVGID_1_"
   width="1920"
   height="1080"
   x="0"
   y="0" />
	</defs>
	<clipPath
   id="SVGID_2_">
		<use
   xlink:href="#SVGID_1_"
   style="overflow:visible"
   id="use6037" />
	</clipPath>
	<g
   id="Background_00000005256791534830830540000006453514778233329563_"
   class="st0"
   clip-path="url(#SVGID_2_)">
		<linearGradient
   id="SVGID_3_"
   gradientUnits="userSpaceOnUse"
   x1="142.42584"
   y1="-105.74131"
   x2="142.42584"
   y2="1190.2587">
			<stop
   offset="0.1"
   style="stop-color:#FC7571"
   id="stop6040" />
			<stop
   offset="0.12891"
   style="stop-color:#FC6461"
   id="stop6042" />
			<stop
   offset="0.1918"
   style="stop-color:#FB4645"
   id="stop6044" />
			<stop
   offset="0.25797"
   style="stop-color:#FB2E2F"
   id="stop6046" />
			<stop
   offset="0.32804"
   style="stop-color:#FA1D1F"
   id="stop6048" />
			<stop
   offset="0.40463"
   style="stop-color:#FA1316"
   id="stop6050" />
			<stop
   offset="0.5"
   style="stop-color:#FA1013"
   id="stop6052" />
			<stop
   offset="0.59537"
   style="stop-color:#FA1316"
   id="stop6054" />
			<stop
   offset="0.67196"
   style="stop-color:#FA1D1F"
   id="stop6056" />
			<stop
   offset="0.74203"
   style="stop-color:#FB2E2F"
   id="stop6058" />
			<stop
   offset="0.8082"
   style="stop-color:#FB4645"
   id="stop6060" />
			<stop
   offset="0.87109"
   style="stop-color:#FC6461"
   id="stop6062" />
			<stop
   offset="0.9"
   style="stop-color:#FC7571"
   id="stop6064" />
		</linearGradient>
		<rect
   y="-105.74131"
   class="st1"
   width="284.85168"
   height="1296"
   id="rect6067"
   style="fill:url(#SVGID_3_)"
   x="0" />
		<linearGradient
   id="SVGID_4_"
   gradientUnits="userSpaceOnUse"
   x1="414.54724"
   y1="-105.74131"
   x2="414.54724"
   y2="1190.2587">
			<stop
   offset="0.1"
   style="stop-color:#FDB44D"
   id="stop6069" />
			<stop
   offset="0.16095"
   style="stop-color:#FC9A3A"
   id="stop6071" />
			<stop
   offset="0.2334"
   style="stop-color:#FC8229"
   id="stop6073" />
			<stop
   offset="0.31058"
   style="stop-color:#FB711D"
   id="stop6075" />
			<stop
   offset="0.39495"
   style="stop-color:#FB6715"
   id="stop6077" />
			<stop
   offset="0.5"
   style="stop-color:#FB6413"
   id="stop6079" />
			<stop
   offset="0.60505"
   style="stop-color:#FB6715"
   id="stop6081" />
			<stop
   offset="0.68942"
   style="stop-color:#FB711D"
   id="stop6083" />
			<stop
   offset="0.7666"
   style="stop-color:#FC8229"
   id="stop6085" />
			<stop
   offset="0.83905"
   style="stop-color:#FC9A3A"
   id="stop6087" />
			<stop
   offset="0.9"
   style="stop-color:#FDB44D"
   id="stop6089" />
		</linearGradient>
		<rect
   x="272.07233"
   y="-105.74131"
   class="st2"
   width="284.94983"
   height="1296"
   id="rect6092"
   style="fill:url(#SVGID_4_)" />
		<linearGradient
   id="SVGID_5_"
   gradientUnits="userSpaceOnUse"
   x1="688.99597"
   y1="-105.74131"
   x2="688.99597"
   y2="1190.2587">
			<stop
   offset="0.1"
   style="stop-color:#FEF007"
   id="stop6094" />
			<stop
   offset="0.14491"
   style="stop-color:#FBE606"
   id="stop6096" />
			<stop
   offset="0.24749"
   style="stop-color:#F6D504"
   id="stop6098" />
			<stop
   offset="0.35994"
   style="stop-color:#F3CB02"
   id="stop6100" />
			<stop
   offset="0.5"
   style="stop-color:#F2C802"
   id="stop6102" />
			<stop
   offset="0.64006"
   style="stop-color:#F3CB02"
   id="stop6104" />
			<stop
   offset="0.75251"
   style="stop-color:#F6D504"
   id="stop6106" />
			<stop
   offset="0.85509"
   style="stop-color:#FBE606"
   id="stop6108" />
			<stop
   offset="0.9"
   style="stop-color:#FEF007"
   id="stop6110" />
		</linearGradient>
		<rect
   x="548.54974"
   y="-105.74131"
   class="st3"
   width="280.89243"
   height="1296"
   id="rect6113"
   style="fill:url(#SVGID_5_)" />
		<linearGradient
   id="SVGID_6_"
   gradientUnits="userSpaceOnUse"
   x1="969.55579"
   y1="-105.74131"
   x2="969.55579"
   y2="1190.2587">
			<stop
   offset="0.1"
   style="stop-color:#C5FC0A"
   id="stop6115" />
			<stop
   offset="0.1106"
   style="stop-color:#C5FA0A"
   id="stop6117" />
			<stop
   offset="0.22314"
   style="stop-color:#C4E90D"
   id="stop6119" />
			<stop
   offset="0.34634"
   style="stop-color:#C4DF0E"
   id="stop6121" />
			<stop
   offset="0.5"
   style="stop-color:#C4DC0F"
   id="stop6123" />
			<stop
   offset="0.65366"
   style="stop-color:#C4DF0E"
   id="stop6125" />
			<stop
   offset="0.77686"
   style="stop-color:#C4E90D"
   id="stop6127" />
			<stop
   offset="0.8894"
   style="stop-color:#C5FA0A"
   id="stop6129" />
			<stop
   offset="0.9"
   style="stop-color:#C5FC0A"
   id="stop6131" />
		</linearGradient>
		<rect
   x="825.0271"
   y="-105.74131"
   class="st4"
   width="289.05725"
   height="1296"
   id="rect6134"
   style="fill:url(#SVGID_6_)" />
		<linearGradient
   id="SVGID_7_"
   gradientUnits="userSpaceOnUse"
   x1="1246.7122"
   y1="-105.74131"
   x2="1246.7122"
   y2="1190.2587">
			<stop
   offset="0.1"
   style="stop-color:#79E93F"
   id="stop6136" />
			<stop
   offset="0.17358"
   style="stop-color:#6DE02C"
   id="stop6138" />
			<stop
   offset="0.26786"
   style="stop-color:#63D81B"
   id="stop6140" />
			<stop
   offset="0.37125"
   style="stop-color:#5DD311"
   id="stop6142" />
			<stop
   offset="0.5"
   style="stop-color:#5BD20E"
   id="stop6144" />
			<stop
   offset="0.62875"
   style="stop-color:#5DD311"
   id="stop6146" />
			<stop
   offset="0.73214"
   style="stop-color:#63D81B"
   id="stop6148" />
			<stop
   offset="0.82642"
   style="stop-color:#6DE02C"
   id="stop6150" />
			<stop
   offset="0.9"
   style="stop-color:#79E93F"
   id="stop6152" />
		</linearGradient>
		<rect
   x="1101.5045"
   y="-105.74131"
   class="st5"
   width="290.41516"
   height="1296"
   id="rect6155"
   style="fill:url(#SVGID_7_)" />
		<linearGradient
   id="SVGID_8_"
   gradientUnits="userSpaceOnUse"
   x1="1520.0923"
   y1="-105.74131"
   x2="1520.0923"
   y2="1190.2587">
			<stop
   offset="0.1"
   style="stop-color:#6F77FE"
   id="stop6157" />
			<stop
   offset="0.13765"
   style="stop-color:#5960FD"
   id="stop6159" />
			<stop
   offset="0.19904"
   style="stop-color:#3C42FD"
   id="stop6161" />
			<stop
   offset="0.26368"
   style="stop-color:#252AFC"
   id="stop6163" />
			<stop
   offset="0.3321"
   style="stop-color:#1519FB"
   id="stop6165" />
			<stop
   offset="0.40689"
   style="stop-color:#0B0FFB"
   id="stop6167" />
			<stop
   offset="0.5"
   style="stop-color:#080CFB"
   id="stop6169" />
			<stop
   offset="0.59311"
   style="stop-color:#0B0FFB"
   id="stop6171" />
			<stop
   offset="0.6679"
   style="stop-color:#1519FB"
   id="stop6173" />
			<stop
   offset="0.73632"
   style="stop-color:#252AFC"
   id="stop6175" />
			<stop
   offset="0.80096"
   style="stop-color:#3C42FD"
   id="stop6177" />
			<stop
   offset="0.86235"
   style="stop-color:#5960FD"
   id="stop6179" />
			<stop
   offset="0.9"
   style="stop-color:#6F77FE"
   id="stop6181" />
		</linearGradient>
		<rect
   x="1377.9819"
   y="-105.74131"
   class="st6"
   width="284.22067"
   height="1296"
   id="rect6184"
   style="fill:url(#SVGID_8_)" />
		<linearGradient
   id="SVGID_9_"
   gradientUnits="userSpaceOnUse"
   x1="1787.2296"
   y1="-105.74131"
   x2="1787.2296"
   y2="1190.2587">
			<stop
   offset="0.1"
   style="stop-color:#AF58E7"
   id="stop6186" />
			<stop
   offset="0.14582"
   style="stop-color:#9F46DC"
   id="stop6188" />
			<stop
   offset="0.22151"
   style="stop-color:#8A2ECE"
   id="stop6190" />
			<stop
   offset="0.30212"
   style="stop-color:#7C1DC4"
   id="stop6192" />
			<stop
   offset="0.39026"
   style="stop-color:#7313BE"
   id="stop6194" />
			<stop
   offset="0.5"
   style="stop-color:#7010BC"
   id="stop6196" />
			<stop
   offset="0.60974"
   style="stop-color:#7313BE"
   id="stop6198" />
			<stop
   offset="0.69788"
   style="stop-color:#7C1DC4"
   id="stop6200" />
			<stop
   offset="0.77849"
   style="stop-color:#8A2ECE"
   id="stop6202" />
			<stop
   offset="0.85418"
   style="stop-color:#9F46DC"
   id="stop6204" />
			<stop
   offset="0.9"
   style="stop-color:#AF58E7"
   id="stop6206" />
		</linearGradient>
		<rect
   x="1654.4594"
   y="-105.74131"
   class="st7"
   width="265.54068"
   height="1296"
   id="rect6209"
   style="fill:url(#SVGID_9_)" />
	</g>
	<g
   id="Rhythm_Heaven_x2122_"
   class="st0"
   clip-path="url(#SVGID_2_)">
		<g
   id="Cloud_00000183241834984758457490000002696117968237109669_">
			<linearGradient
   id="Spectrum_1_"
   gradientUnits="userSpaceOnUse"
   x1="1570.2604"
   y1="854.08881"
   x2="383.34839"
   y2="168.82483">
				<stop
   offset="0.05"
   style="stop-color:#FF0000"
   id="stop6212" />
				<stop
   offset="0.2"
   style="stop-color:#F49F00"
   id="stop6214" />
				<stop
   offset="0.22617"
   style="stop-color:#F2BD00"
   id="stop6216" />
				<stop
   offset="0.25775"
   style="stop-color:#F0DA00"
   id="stop6218" />
				<stop
   offset="0.2892"
   style="stop-color:#EFEE00"
   id="stop6220" />
				<stop
   offset="0.32014"
   style="stop-color:#EEFB00"
   id="stop6222" />
				<stop
   offset="0.35"
   style="stop-color:#EEFF00"
   id="stop6224" />
				<stop
   offset="0.5"
   style="stop-color:#00FF00"
   id="stop6226" />
				<stop
   offset="0.75"
   style="stop-color:#1D0FFF"
   id="stop6228" />
				<stop
   offset="0.95"
   style="stop-color:#710EC0"
   id="stop6230" />
			</linearGradient>
			<path
   id="Spectrum_00000022559809750841097690000018122181789288358071_"
   class="st8"
   d="m 1624.5371,431.92267 c 13.9551,-35.78189 21.221,-74.11612 21.221,-112.78873 0,-170.89996 -139.0365,-309.93781 -309.9351,-309.93781 -99.5966,0 -191.426,47.5843 -249.0764,125.40573 -39.9579,-19.96361 -84.3131,-30.58524 -129.6263,-30.58524 -59.86157,0 -117.34064,18.10607 -166.22412,52.36042 -25.3468,17.76213 -47.44226,39.16832 -65.69873,63.46524 -49.03107,-30.76765 -106.27759,-47.63165 -164.93188,-47.63165 -170.89996,0 -309.9364,139.03647 -309.9364,309.93643 0,68.70364 22.02583,133.79385 63.69499,188.23459 29.10645,38.02789 66.99649,68.9292 109.71277,89.99426 -0.58344,7.48029 -0.87585,14.99396 -0.87585,22.51874 0,158.7536 129.15561,287.90915 287.90781,287.90915 59.55804,0 116.72382,-18.0433 165.32184,-52.1808 28.90729,-20.30746 53.53699,-45.38277 73.01324,-74.09792 32.50128,12.28143 67.11763,18.63098 102.47763,18.63098 88.9973,0 172.6224,-41.58142 227.0033,-109.67517 35.7999,15.96307 74.6494,24.23425 114.83,24.23425 155.9297,0 282.7878,-126.85529 282.7878,-282.78497 -10e-5,-59.03997 -18.1159,-115.59448 -51.6656,-163.0075 z"
   style="fill:url(#Spectrum_1_)" />
			<path
   id="White_00000053532133141924872060000017591559169146523808_"
   class="st9"
   d="m 1587.4901,436.51764 c 17.0547,-36.577 25.9943,-76.76462 25.9943,-117.38391 0,-153.10457 -124.5579,-277.66382 -277.661,-277.66382 -98.9367,0 -189.3125,52.40643 -238.884,136.047 -41.4338,-26.76576 -89.9748,-41.22641 -139.8191,-41.22641 -53.20013,0 -104.27533,16.08563 -147.70184,46.51773 -31.255,21.90192 -56.9444,50.02672 -75.67853,82.59761 C 684.80634,226.3308 623.4436,204.48458 560.2652,204.48458 c -153.10318,0 -277.66245,124.55923 -277.66245,277.66241 0,114.39847 71.17673,217.14212 176.03134,258.45627 -2.32541,13.93567 -3.49924,28.08301 -3.49924,42.29163 0,140.95819 114.67697,255.63511 255.63376,255.63511 52.88263,0 103.63483,-16.016 146.77032,-46.31578 33.05548,-23.22058 59.81427,-53.45911 78.60962,-88.57123 35.64545,17.89581 74.99055,27.2392 115.43315,27.2392 87.9641,0 170.0186,-45.70593 216.9917,-118.70117 37.8051,21.84479 80.3975,33.26013 124.8419,33.26013 138.1315,0 250.511,-112.37939 250.511,-250.51093 0,-58.25194 -19.9038,-113.77049 -56.4362,-158.41258 z" />
			<path
   id="Black_00000088122886637718662610000017639178807345155209_"
   class="st10"
   d="m 1553.6559,440.81348 c 20.1517,-35.99792 31.6545,-77.49261 31.6545,-121.68024 0,-137.78784 -111.6989,-249.48688 -249.4868,-249.48688 -102.5637,0 -190.6572,61.89732 -229.0027,150.36768 -40.1885,-34.61557 -92.4985,-55.54756 -149.70073,-55.54756 -97.86816,0 -181.41376,61.26534 -214.41577,147.53017 -45.53979,-48.80743 -110.41925,-79.33586 -182.43896,-79.33586 -137.78778,0 -249.48688,111.69908 -249.48688,249.48686 0,113.95551 76.40295,210.06207 180.77646,239.90039 -5.36481,19.36914 -8.24414,39.77124 -8.24414,60.84814 0,125.62177 101.83652,227.45822 227.45822,227.45822 97.18298,0 180.11554,-60.9548 212.6911,-146.71201 36.591,24.66541 80.674,39.06573 128.1216,39.06573 91.4181,0 170.3445,-53.45398 207.2494,-130.80731 37.3617,28.45709 83.9955,45.36487 134.5851,45.36487 122.7923,0 222.3353,-99.54291 222.3353,-222.33533 0,-59.83886 -23.6462,-114.14974 -62.0957,-154.11687 z" />
		</g>
		<g
   id="Rhythm_Heaven_x2122__2_">
			<path
   id="_x2122__2_"
   class="st11"
   d="m 1517.9796,686.43005 v -18.8974 l -7.9447,1.83417 v -4.06079 l 21.0142,-4.8515 v 4.06079 l -7.6584,1.76807 v 18.89746 z m 35.6583,-8.23236 v -19.18933 l -4.8241,20.3031 -5.2249,1.20624 -4.7096,-18.10205 v 19.18933 l -4.9386,1.1402 v -22.9715 l 7.7157,-1.78137 4.6523,17.14661 0.057,-0.0132 4.5377,-19.26825 7.6155,-1.75818 v 22.9715 z" />
			<path
   id="N_2_"
   class="st11"
   d="m 1447.6487,434.01263 c 0,0 -0.3576,93.24799 -1.5182,109.65094 -1.813,25.62122 -8.6975,26.30817 -14.5557,22.46509 -11.6897,-7.66858 -33.5315,-51.33893 -53.0883,-89.31567 l -28.5318,6.58707 v 235.97281 l 34.888,-8.05457 0.1176,-59.87561 c 0.06,-30.73535 8.4525,-32.73474 20.6464,-21.56995 9.2533,8.47235 21.8437,27.1546 41.6844,58.92255 l 46.1681,-10.65869 V 423.43643 Z" />
			<path
   id="E_4_"
   class="st11"
   d="m 1271.5498,670.39386 c -1.0585,0.006 -8.8956,-0.26111 -9.7338,-6.2403 -0.4853,-3.46271 1.1768,-6.71368 5.3581,-9.27136 6.5393,-4.00012 29.175,-10.50568 50.9007,-15.60083 v -30.04254 c 0,0 -39.3386,9.46576 -51.4364,7.66663 -3.6744,-0.54645 -6.1219,-2.48859 -6.6084,-5.88361 -0.497,-3.46985 1.2508,-6.59637 5.3581,-9.27136 11.0641,-7.20575 60.7236,-17.9187 60.7236,-17.9187 l 2e-4,-69.31927 -102.2479,23.60577 -2e-4,184.78516 104.3911,-24.10059 V 660.4093 c -27.8615,6.32971 -46.6941,9.92981 -56.7051,9.98456 z" />
			<path
   id="V_2_"
   class="st11"
   d="m 1158.5125,532.52722 c 0,0 -11.0765,72.97748 -20.9118,106.70215 -2.8103,9.63635 -9.6029,24.38098 -18.8421,3.29858 -3.3092,-7.55096 -13.1321,-42.82953 -20.3415,-88.3103 l -31.8987,7.36438 c 2.7917,31.27191 18.1048,115.73468 38.5076,164.94159 l 61.865,-14.28265 c 22.7712,-60.26349 36.4342,-123.91461 41.0776,-191.13165 z" />
			<path
   id="A_2_"
   class="st11"
   d="m 1048.7036,632.84814 c -15.4823,-28.52399 -33.4864,-22.61304 -42.7118,-19.56055 -12.08726,3.99945 -22.81553,10.20728 -34.04167,54.73633 -11.80054,46.80762 -24.64648,145.13177 -24.64648,145.13177 l 32.39209,-7.47833 3.32764,-18.64185 c 1.60724,-9.00397 7.33807,-14.724 16.07373,-17.29449 0,0 25.09849,-6.51422 33.66609,-7.48828 3.6194,-0.41156 7.8724,2.44537 9.1086,8.11224 l 4.3755,20.05823 44.1139,-10.18451 c 0,10e-6 -21.9444,-111.07201 -41.6576,-147.39056 z m -27.2656,104.61158 c -4.9275,1.07275 -16.1376,3.91223 -21.86579,4.98499 -5.48187,1.07257 -8.68469,-2.01917 -8.00726,-9.84381 0.61597,-7.31958 3.83136,-22.83954 5.05066,-28.0799 2.69653,-11.58978 7.99599,-16.42047 14.22819,-17.28961 7.9887,-1.11414 14.9674,5.86835 18.7862,24.79858 0.3695,1.83008 1.3018,5.62836 1.9093,10.79034 0.7377,6.26795 -2.3404,12.68329 -10.1013,14.63941 z" />
			<path
   id="E_3_"
   class="st11"
   d="m 875.77496,774.58392 c -1.05859,0.006 -8.89575,-0.26105 -9.73383,-6.2403 -0.48535,-3.46271 1.1767,-6.71362 5.35797,-9.27136 6.53937,-4.00012 29.17511,-10.50562 50.90076,-15.60083 v -30.04254 c 0,0 -39.33856,9.46582 -51.4364,7.66663 -3.67444,-0.54645 -6.12189,-2.48853 -6.60828,-5.88354 -0.49719,-3.46985 1.25067,-6.59644 5.35797,-9.27136 11.06409,-7.20581 60.72363,-17.9187 60.72363,-17.9187 l 1.8e-4,-74.71667 -102.24792,23.60577 -1.8e-4,184.78516 104.39105,-24.10059 v -32.99622 c -27.86138,6.32971 -46.69396,9.9298 -56.70495,9.98455 z" />
			<path
   id="H_6_"
   class="st11"
   d="m 748.52301,620.41937 c 0.9823,36.81781 0.58643,64.37805 -4.46503,82.46118 -3.06836,10.98456 -9.82288,19.34491 -18.84204,25.67438 -9.18677,6.44702 -18.39581,9.2713 -27.41498,9.44952 -10.99811,0.21741 -18.94714,-4.06299 -20.00299,-15.60071 -1.60748,-17.56207 -2.32184,-42.11078 -1.78601,-72.86658 l -39.91699,9.21558 v 271.8985 l 54.82983,-12.65845 c -0.98218,-34.67828 0.20001,-60.40173 4.46503,-76.31006 2.90649,-10.84119 10.86041,-20.01666 18.84216,-25.40698 9.328,-6.29926 18.3775,-9.57031 27.41498,-9.71698 10.98383,-0.17834 18.96674,4.91461 20.00299,15.86816 1.51819,16.04651 2.23254,39.19684 1.78601,68.70459 l 40.80988,-9.42169 V 607.55475 Z" />
			<path
   id="M_2_"
   class="st12"
   d="M 1443.6235,402.44266 V 165.69373 l -32.3634,7.47169 c -17.1651,56.68071 -26.8742,84.39738 -35.3436,107.7589 -14.4133,39.7576 -29.4039,24.1514 -36.3567,13.05267 -8.1299,-12.97797 -19.1319,-38.26872 -38.2639,-84.57881 l -47.2637,10.9117 v 219.06705 l 39.1914,-9.04803 c -0.2979,-35.46271 0.3158,-56.13046 2.2314,-65.48611 1.7209,-8.40527 6.7851,-9.59 11.9202,-1.25162 4.2239,6.85889 10.907,21.69485 24.1981,52.2106 l 26.2841,-6.06818 c 14.4831,-38.91956 22.3092,-58.52884 27.8337,-68.13525 4.4851,-7.79913 12.9746,-13.28775 15.5559,1.13242 1.9528,10.90955 1.7882,32.85876 1.7285,69.09625 z" />
			<path
   id="H_5_"
   class="st12"
   d="m 1188.2221,274.17224 c 0,0 0.778,51.42007 -0.9743,68.44247 -2.3254,22.59048 -42.3697,30.39053 -44.0644,7.30112 -0.7564,-10.30627 -1.3363,-23.59726 -1.3363,-53.94571 l -32.7245,7.55502 v 202.80521 l 44.8711,-10.35928 v -46.83542 c 0,-36.02148 44.7476,-39.03409 47.1576,-13.85516 0.7576,7.91745 1.1431,20.25946 1.1431,45.87143 l 32.7245,-7.55502 V 263.36832 Z" />
			<path
   id="T_2_"
   class="st12"
   d="m 964.07703,303.27948 v 83.57867 l 30.19373,-6.97076 c 12.03314,-2.77808 16.25804,-0.22394 16.17104,23.95032 v 107.40823 l 35.7728,-8.25882 v -99.39413 c 0.2484,-42.6684 5.2555,-51.50107 26.4752,-56.40005 l 18.9467,-4.37415 v -68.98874 z" />
			<path
   id="Y_2_"
   class="st12"
   d="m 946.4118,338.76694 -38.15283,8.80829 c 0,0 -0.23828,28.86942 -2.34888,67.10287 -2.24359,40.6431 -46.02838,53.10529 -48.52832,11.76056 -1.59686,-26.40961 -1.34253,-62.21942 -1.34253,-62.21942 l -45.67023,10.54379 v 19.55316 c 0,76.14401 9.43793,103.00098 54.74554,97.01773 10.72498,-1.41635 18.94574,-4.57846 28.17621,-10.82764 0.57538,-0.38959 1.30573,-0.39825 1.98938,0.13144 0.65662,0.50876 1.72034,2.21729 0.1192,7.18793 -8.62463,26.77444 -82.479,34.73172 -82.479,34.73172 l -0.0194,59.83386 c 42.21967,-6.21326 88.17365,-15.20325 112.28772,-55.26678 9.00746,-14.96521 21.22309,-33.03418 21.22309,-188.35751 z" />
			<path
   id="H_4_"
   class="st12"
   d="m 744.67865,370.87927 c 0,0 0.73944,48.8685 -0.92584,65.0462 -2.21002,21.46948 -40.26727,28.88248 -41.87787,6.93881 -0.71887,-9.79486 -1.27002,-22.4263 -1.27002,-51.26877 l -31.10065,7.18011 v 192.74146 l 42.64447,-9.84521 v -44.51135 c 0,-34.23398 42.52728,-37.09711 44.8175,-13.1676 0.72015,7.52454 1.08649,19.25415 1.08649,43.59515 l 31.10065,-7.18011 V 360.61148 Z" />
			<path
   id="R_2_"
   class="st12"
   d="m 648.86127,427.29593 c 0,-48.2146 -35.5235,-106.53091 -184.15906,-70.75717 v 262.22241 l 38.70621,-8.93604 v -47.37695 c 0,-19.25446 11.09366,-15.70758 18.17233,-11.0976 5.49823,3.58069 17.15906,12.97864 44.7243,43.95374 l 65.75555,-15.18091 -51.24048,-52.46362 c 10e-6,0 68.04121,-27.39734 68.04115,-100.36386 z m -114.6015,86.48837 c -19.52808,4.97943 -31.04562,-5.48102 -31.04562,-31.7319 0,-20.93832 0.39459,-42.55511 38.72934,-42.55511 27.29156,0 38.70398,13.81973 38.70398,29.40826 -10e-6,13.57678 -16.6106,37.28607 -46.3877,44.87875 z" />
		</g>
	</g>
</g>
</svg>
