<?xml version="1.0" encoding="UTF-8" standalone="no"?>
<!-- Created with Inkscape (http://www.inkscape.org/) -->

<svg
   xmlns:dc="http://purl.org/dc/elements/1.1/"
   xmlns:cc="http://creativecommons.org/ns#"
   xmlns:rdf="http://www.w3.org/1999/02/22-rdf-syntax-ns#"
   xmlns:svg="http://www.w3.org/2000/svg"
   xmlns="http://www.w3.org/2000/svg"
   xmlns:sodipodi="http://sodipodi.sourceforge.net/DTD/sodipodi-0.dtd"
   xmlns:inkscape="http://www.inkscape.org/namespaces/inkscape"
   version="1.1"
   id="svg2"
   xml:space="preserve"
   width="2560"
   height="1440"
   viewBox="0 0 2560 1440"
   sodipodi:docname="Rhythm World (리듬 세상) Logo (Fever Style with Background).svg"
   inkscape:version="0.92.4 (5da689c313, 2019-01-14)"><metadata
     id="metadata13871"><rdf:RDF><cc:Work
         rdf:about=""><dc:format>image/svg+xml</dc:format><dc:type
           rdf:resource="http://purl.org/dc/dcmitype/StillImage" /></cc:Work></rdf:RDF></metadata><defs
     id="defs6"><linearGradient
       x1="0"
       y1="0"
       x2="1"
       y2="0"
       gradientUnits="userSpaceOnUse"
       gradientTransform="matrix(0,-1296,-1296,0,142.42584,1185.7413)"
       spreadMethod="pad"
       id="linearGradient36"><stop
         style="stop-opacity:1;stop-color:#fc7571"
         offset="0"
         id="stop22" /><stop
         style="stop-opacity:1;stop-color:#fc7571"
         offset="0.1"
         id="stop24" /><stop
         style="stop-opacity:1;stop-color:#fa1013"
         offset="0.26601506"
         id="stop26" /><stop
         style="stop-opacity:1;stop-color:#fa1013"
         offset="0.5"
         id="stop28" /><stop
         style="stop-opacity:1;stop-color:#fa1013"
         offset="0.73398494"
         id="stop30" /><stop
         style="stop-opacity:1;stop-color:#fc7571"
         offset="0.9"
         id="stop32" /><stop
         style="stop-opacity:1;stop-color:#fc7571"
         offset="1"
         id="stop34" /></linearGradient><linearGradient
       x1="0"
       y1="0"
       x2="1"
       y2="0"
       gradientUnits="userSpaceOnUse"
       gradientTransform="matrix(0,-1296,-1296,0,414.54724,1185.7413)"
       spreadMethod="pad"
       id="linearGradient66"><stop
         style="stop-opacity:1;stop-color:#fdb44d"
         offset="0"
         id="stop52" /><stop
         style="stop-opacity:1;stop-color:#fdb44d"
         offset="0.1"
         id="stop54" /><stop
         style="stop-opacity:1;stop-color:#fb6413"
         offset="0.26601506"
         id="stop56" /><stop
         style="stop-opacity:1;stop-color:#fb6413"
         offset="0.5"
         id="stop58" /><stop
         style="stop-opacity:1;stop-color:#fb6413"
         offset="0.73398494"
         id="stop60" /><stop
         style="stop-opacity:1;stop-color:#fdb44d"
         offset="0.9"
         id="stop62" /><stop
         style="stop-opacity:1;stop-color:#fdb44d"
         offset="1"
         id="stop64" /></linearGradient><linearGradient
       x1="0"
       y1="0"
       x2="1"
       y2="0"
       gradientUnits="userSpaceOnUse"
       gradientTransform="matrix(0,-1296,-1296,0,688.99597,1185.7413)"
       spreadMethod="pad"
       id="linearGradient96"><stop
         style="stop-opacity:1;stop-color:#fef007"
         offset="0"
         id="stop82" /><stop
         style="stop-opacity:1;stop-color:#fef007"
         offset="0.1"
         id="stop84" /><stop
         style="stop-opacity:1;stop-color:#f2c802"
         offset="0.26601506"
         id="stop86" /><stop
         style="stop-opacity:1;stop-color:#f2c802"
         offset="0.5"
         id="stop88" /><stop
         style="stop-opacity:1;stop-color:#f2c802"
         offset="0.73398494"
         id="stop90" /><stop
         style="stop-opacity:1;stop-color:#fef007"
         offset="0.9"
         id="stop92" /><stop
         style="stop-opacity:1;stop-color:#fef007"
         offset="1"
         id="stop94" /></linearGradient><linearGradient
       x1="0"
       y1="0"
       x2="1"
       y2="0"
       gradientUnits="userSpaceOnUse"
       gradientTransform="matrix(0,-1296,-1296,0,969.55579,1185.7413)"
       spreadMethod="pad"
       id="linearGradient126"><stop
         style="stop-opacity:1;stop-color:#c5fc0a"
         offset="0"
         id="stop112" /><stop
         style="stop-opacity:1;stop-color:#c5fc0a"
         offset="0.1"
         id="stop114" /><stop
         style="stop-opacity:1;stop-color:#c4dc0f"
         offset="0.26601506"
         id="stop116" /><stop
         style="stop-opacity:1;stop-color:#c4dc0f"
         offset="0.5"
         id="stop118" /><stop
         style="stop-opacity:1;stop-color:#c4dc0f"
         offset="0.73398494"
         id="stop120" /><stop
         style="stop-opacity:1;stop-color:#c5fc0a"
         offset="0.9"
         id="stop122" /><stop
         style="stop-opacity:1;stop-color:#c5fc0a"
         offset="1"
         id="stop124" /></linearGradient><linearGradient
       x1="0"
       y1="0"
       x2="1"
       y2="0"
       gradientUnits="userSpaceOnUse"
       gradientTransform="matrix(0,-1296,-1296,0,1246.7122,1185.7413)"
       spreadMethod="pad"
       id="linearGradient156"><stop
         style="stop-opacity:1;stop-color:#79e93f"
         offset="0"
         id="stop142" /><stop
         style="stop-opacity:1;stop-color:#79e93f"
         offset="0.1"
         id="stop144" /><stop
         style="stop-opacity:1;stop-color:#5bd20e"
         offset="0.26601506"
         id="stop146" /><stop
         style="stop-opacity:1;stop-color:#5bd20e"
         offset="0.5"
         id="stop148" /><stop
         style="stop-opacity:1;stop-color:#5bd20e"
         offset="0.73398494"
         id="stop150" /><stop
         style="stop-opacity:1;stop-color:#79e93f"
         offset="0.9"
         id="stop152" /><stop
         style="stop-opacity:1;stop-color:#79e93f"
         offset="1"
         id="stop154" /></linearGradient><linearGradient
       x1="0"
       y1="0"
       x2="1"
       y2="0"
       gradientUnits="userSpaceOnUse"
       gradientTransform="matrix(0,-1296,-1296,0,1520.0923,1185.7413)"
       spreadMethod="pad"
       id="linearGradient186"><stop
         style="stop-opacity:1;stop-color:#6f77fe"
         offset="0"
         id="stop172" /><stop
         style="stop-opacity:1;stop-color:#6f77fe"
         offset="0.1"
         id="stop174" /><stop
         style="stop-opacity:1;stop-color:#080cfb"
         offset="0.26601506"
         id="stop176" /><stop
         style="stop-opacity:1;stop-color:#080cfb"
         offset="0.5"
         id="stop178" /><stop
         style="stop-opacity:1;stop-color:#080cfb"
         offset="0.73398494"
         id="stop180" /><stop
         style="stop-opacity:1;stop-color:#6f77fe"
         offset="0.9"
         id="stop182" /><stop
         style="stop-opacity:1;stop-color:#6f77fe"
         offset="1"
         id="stop184" /></linearGradient><linearGradient
       x1="0"
       y1="0"
       x2="1"
       y2="0"
       gradientUnits="userSpaceOnUse"
       gradientTransform="matrix(0,-1296,-1296,0,1787.2296,1185.7413)"
       spreadMethod="pad"
       id="linearGradient216"><stop
         style="stop-opacity:1;stop-color:#af58e7"
         offset="0"
         id="stop202" /><stop
         style="stop-opacity:1;stop-color:#af58e7"
         offset="0.1"
         id="stop204" /><stop
         style="stop-opacity:1;stop-color:#7010bc"
         offset="0.26601506"
         id="stop206" /><stop
         style="stop-opacity:1;stop-color:#7010bc"
         offset="0.5"
         id="stop208" /><stop
         style="stop-opacity:1;stop-color:#7010bc"
         offset="0.73398494"
         id="stop210" /><stop
         style="stop-opacity:1;stop-color:#af58e7"
         offset="0.9"
         id="stop212" /><stop
         style="stop-opacity:1;stop-color:#af58e7"
         offset="1"
         id="stop214" /></linearGradient><linearGradient
       x1="0"
       y1="0"
       x2="1"
       y2="0"
       gradientUnits="userSpaceOnUse"
       gradientTransform="matrix(-1313.2286,758.19293,758.19293,1313.2286,1619.8909,191.49051)"
       spreadMethod="pad"
       id="linearGradient250"><stop
         style="stop-opacity:1;stop-color:#ff0000"
         offset="0"
         id="stop232" /><stop
         style="stop-opacity:1;stop-color:#ff0000"
         offset="0.05"
         id="stop234" /><stop
         style="stop-opacity:1;stop-color:#f49f00"
         offset="0.2"
         id="stop236" /><stop
         style="stop-opacity:1;stop-color:#eeff00"
         offset="0.2771859"
         id="stop238" /><stop
         style="stop-opacity:1;stop-color:#eeff00"
         offset="0.35"
         id="stop240" /><stop
         style="stop-opacity:1;stop-color:#00ff00"
         offset="0.5"
         id="stop242" /><stop
         style="stop-opacity:1;stop-color:#1d0fff"
         offset="0.75"
         id="stop244" /><stop
         style="stop-opacity:1;stop-color:#710ec0"
         offset="0.95"
         id="stop246" /><stop
         style="stop-opacity:1;stop-color:#710ec0"
         offset="1"
         id="stop248" /></linearGradient><clipPath
       clipPathUnits="userSpaceOnUse"
       id="clipPath260"><path
         d="M 0,1080 H 1920 V 0 H 0 Z"
         id="path258" /></clipPath></defs><sodipodi:namedview
     id="namedview4"
     pagecolor="#ffffff"
     bordercolor="#666666"
     borderopacity="1.0"
     inkscape:pageshadow="2"
     inkscape:pageopacity="0.0"
     inkscape:pagecheckerboard="0"
     showgrid="false"
     inkscape:zoom="0.55234375"
     inkscape:cx="1280"
     inkscape:cy="720"
     inkscape:window-width="1920"
     inkscape:window-height="1057"
     inkscape:window-x="-8"
     inkscape:window-y="-8"
     inkscape:window-maximized="1"
     inkscape:current-layer="g254" /><g
     id="g8"
     inkscape:groupmode="layer"
     inkscape:label="Rhythm World (리듬 세상) Logo (Fever Style with Background)"
     transform="matrix(1.3333333,0,0,-1.3333333,0,1440)"><g
       id="g10"><g
         id="g12"><g
           id="g18"><g
             id="g20"><path
               d="M 0,0 H 284.852 V 1080 H 0 Z"
               style="fill:url(#linearGradient36);stroke:none"
               id="path38" /></g></g></g></g><g
       id="g40"><g
         id="g42"><g
           id="g48"><g
             id="g50"><path
               d="M 272.073,0 H 557.022 V 1080 H 272.073 Z"
               style="fill:url(#linearGradient66);stroke:none"
               id="path68" /></g></g></g></g><g
       id="g70"><g
         id="g72"><g
           id="g78"><g
             id="g80"><path
               d="M 548.55,0 H 829.442 V 1080 H 548.55 Z"
               style="fill:url(#linearGradient96);stroke:none"
               id="path98" /></g></g></g></g><g
       id="g100"><g
         id="g102"><g
           id="g108"><g
             id="g110"><path
               d="m 825.027,0 h 289.057 V 1080 H 825.027 Z"
               style="fill:url(#linearGradient126);stroke:none"
               id="path128" /></g></g></g></g><g
       id="g130"><g
         id="g132"><g
           id="g138"><g
             id="g140"><path
               d="M 1101.505,0 H 1391.92 V 1080 H 1101.505 Z"
               style="fill:url(#linearGradient156);stroke:none"
               id="path158" /></g></g></g></g><g
       id="g160"><g
         id="g162"><g
           id="g168"><g
             id="g170"><path
               d="m 1377.982,0 h 284.221 v 1080 h -284.221 z"
               style="fill:url(#linearGradient186);stroke:none"
               id="path188" /></g></g></g></g><g
       id="g190"><g
         id="g192"><g
           id="g198"><g
             id="g200"><path
               d="m 1654.459,0 h 265.54 v 1080 h -265.54 z"
               style="fill:url(#linearGradient216);stroke:none"
               id="path218" /></g></g></g></g><g
       id="g220"><g
         id="g222"><g
           id="g228"><g
             id="g230"><path
               d="m 828.952,776.574 c -43.711,5.901 -88.063,3.228 -130.165,-7.542 v 0 C 635.076,833.353 548.691,869.655 457.014,869.655 v 0 c -187.797,0 -340.578,-152.783 -340.578,-340.578 v 0 c 0,-187.795 152.781,-340.578 340.578,-340.578 v 0 c 28.762,0 57.119,3.558 84.667,10.608 v 0 C 605.441,134.728 691.855,98.401 783.536,98.401 v 0 c 136.499,0 259.154,82.347 312.52,205.025 v 0 c 62.491,-8.438 126.453,0.833 183.382,26.014 v 0 c 55.911,-37.562 122.281,-57.959 190.08,-57.959 v 0 c 187.795,0 340.578,152.783 340.578,340.579 v 0 c 0,187.843 -152.82,340.663 -340.661,340.663 v 0 c -47.637,0 -94.712,-9.985 -137.881,-29.08 v 0 c -55.907,37.56 -122.274,57.956 -190.08,57.956 v 0 c -136.498,0 -259.152,-82.345 -312.522,-205.025"
               style="fill:url(#linearGradient250);stroke:none"
               id="path252" /></g></g></g></g><g
       id="g254"><g
         id="g256"
         clip-path="url(#clipPath260)"><g
           id="g262"
           transform="translate(1469.4357,926.3043)"><path
             d="m 0,0 c -48.924,0 -97.197,-11.412 -140.554,-33.116 -53.946,40.079 -119.903,61.993 -187.408,61.993 -132.866,0 -251.505,-84.568 -295.843,-208.185 -20.542,4.135 -41.375,6.225 -62.179,6.225 -31.715,0 -62.89,-4.689 -92.893,-13.954 -59.584,66.271 -143.816,103.968 -233.545,103.968 -173.228,0 -314.159,-140.931 -314.159,-314.159 0,-173.226 140.931,-314.157 314.159,-314.157 31.718,0 62.894,4.687 92.895,13.952 59.639,-66.327 143.9,-104.051 233.627,-104.051 132.867,0 251.506,84.564 295.842,208.182 20.542,-4.135 41.376,-6.223 62.179,-6.223 48.928,0 97.194,11.41 140.554,33.113 53.952,-40.079 119.906,-61.991 187.408,-61.991 173.226,0 314.157,140.931 314.157,314.159 C 314.24,-140.969 173.273,0 0,0"
             style="fill:#ffffff;fill-opacity:1;fill-rule:nonzero;stroke:none"
             id="path264" /></g><g
           id="g266"
           transform="translate(1469.4341,903.3558)"><path
             d="m 0,0 c -51.908,0 -100.683,-13.549 -142.938,-37.428 -50.299,41.408 -114.74,66.303 -185.023,66.303 -133.539,0 -246.077,-89.928 -280.456,-212.459 -24.727,6.775 -50.723,10.501 -77.566,10.501 -35.226,0 -69.013,-6.267 -100.26,-17.698 -53.348,65.71 -134.893,107.711 -226.177,107.711 -160.805,0 -291.21,-130.405 -291.21,-291.21 0,-160.805 130.405,-291.211 291.21,-291.211 35.226,0 69.013,6.266 100.26,17.698 53.432,-65.795 134.893,-107.796 226.262,-107.796 133.538,0 246.076,89.929 280.456,212.459 24.726,-6.774 50.722,-10.5 77.566,-10.5 51.908,0 100.683,13.548 142.937,37.428 50.3,-41.408 114.74,-66.304 185.024,-66.304 160.805,0 291.21,130.406 291.21,291.211 C 291.295,-130.49 160.89,0 0,0"
             style="fill:#220614;fill-opacity:1;fill-rule:nonzero;stroke:none"
             id="path268" /></g><g
           id="g270"
           transform="translate(1425.3162,633.2304)"><path
             d="m 0,0 c 0,0 -6.881,-58.643 -81.969,-134.385 l -38.444,31.924 c 38.475,31.158 82.816,102.357 82.816,165.801 v 1.79 c 0,7.621 -5.897,7.614 -13.24,6.186 l -7.422,-1.442 v 22.584 l 82.392,16.016 V 75.339 c 0,-64.795 35.746,-75.212 83.24,-75.678 L 83.748,-37.089 C 11.577,-30.615 0,0 0,0 M 230.75,90.691 V 49.426 l -46.912,-9.119 v -77.494 l -62.663,-12.181 v 178.556 c 0,8.04 -6.601,7.959 -14.122,6.497 l -7.555,-1.469 v 23.828 l 84.34,16.394 V 81.572 Z M 65.033,-169.323 c -8.552,0.169 -25.996,0.512 -25.996,27.333 0,27.795 22.193,47.733 46.319,47.736 24.764,0.003 26.505,-16.779 26.505,-26.994 0,-25.04 -21.581,-48.572 -46.828,-48.075 m 62.663,110.534 c -29.082,6.553 -66.519,7.242 -108.982,-21.678 -27.921,-19.016 -42.002,-42.178 -42,-68.724 0,-9.563 2.098,-19.053 6.266,-28.181 12.791,-28.014 31.737,-29.518 57.494,-31.563 42.091,-3.341 67.407,7.797 92.641,24.895 28.198,19.129 42.594,41.957 42.594,68.639 0,23.82 -12.225,48.548 -48.013,56.612"
             style="fill:#feef0e;fill-opacity:1;fill-rule:nonzero;stroke:none"
             id="path272" /></g><g
           id="g274"
           transform="translate(1202.3484,828.1265)"><path
             d="m 0,0 v -23.361 l 6.283,1.221 c 6.255,1.216 11.847,2.044 11.847,-5.997 V -325.64 l 63.17,12.279 V 15.803 Z m -74.001,-74.991 v -23.361 l 6.283,1.222 c 6.255,1.216 11.982,2.329 11.982,-5.712 v -68.079 l -52.983,-10.298 v -36.625 l 52.983,10.299 v -201.746 l 58.116,11.296 v 337.851 z m 8.215,-193.999 -27.098,-36.158 c -52.937,17.278 -67.235,43.61 -67.235,43.61 0,0 -20.047,-37.253 -62.07,-75.788 l -35.057,29.215 c 0,0 61.938,57.83 61.938,115.594 v 43.968 c 0,8.04 -6.568,7.83 -13.913,6.403 l -7.379,-1.435 v 25.404 l 81.123,15.769 v -80.887 c 0,-77.449 69.691,-85.695 69.691,-85.695"
             style="fill:#f06917;fill-opacity:1;fill-rule:nonzero;stroke:none"
             id="path276" /></g><g
           id="g278"
           transform="translate(724.1757,525.3554)"><path
             d="M 0,0 V -37.351 L 200.012,1.527 V -34.869 L -31.787,-79.926 c -18.707,-3.636 -33.873,8.582 -33.873,27.289 v 43.362 c 0,7.502 -0.689,9.77 -18.235,6.359 l -3.324,-0.646 V 19.442 L 200.012,75.274 V 38.878 Z m 200.011,-52.698 0.001,-36.395 -336.345,-65.379 v 36.396 z M 126.51,-205.484 13.21,-227.507 v 47.455 l 113.3,22.024 z m 66.727,97.245 -268.516,-52.195 v -24.988 l 3.329,0.647 c 17.573,3.416 18.264,0.662 18.264,-7.57 v -52.294 c 0,-16.837 13.649,-27.833 30.486,-24.56 l 192.726,37.462 c 16.837,3.273 30.486,19.575 30.486,36.412 v 81.628 c 0,3.741 -3.034,6.185 -6.775,5.458"
             style="fill:#feef0e;fill-opacity:1;fill-rule:nonzero;stroke:none"
             id="path280" /></g><g
           id="g282"
           transform="translate(468.7846,690.6427)"><path
             id="path284-7"
             style="fill:#f06917;fill-opacity:1;fill-rule:nonzero;stroke:none;stroke-width:0.99999994"
             d="m 0,-3e-5 v -25.234 l 7.37,1.432 c 7.336,1.426 14.054,2.732 14.054,-6.682 V -179.519 c -10.839,-6.097 -24.72,-11.154 -41.832,-14.48001 l -101.36,-19.70299 v 45.615 l 93.993,18.27 c 4.677,0.909 8.468,5.437 8.468,10.114 v 90.31197 c 0,4.677 -3.791,7.731 -8.468,6.822 L -204.076,-76.838 v -39.003 l 120.244,23.373 v -30.668 l -125.833,-24.459 v -25.658 l 2.971,0.577 c 6,1.167 14.896,2.89599 14.896,-5.827 v -60.715 c 0,-14.966 12.133,-24.74 27.099,-21.831 l 132.352,25.726 c 24.827,4.82599 42.847,10.839 53.771,16.344 v -142.894 l 68.166,13.25 V 17.41497 Z"
             inkscape:connector-curvature="0" /></g><g
           id="g286"
           transform="translate(1789.1252,301.5064)"><path
             d="M 0,0 V 33.499 L -8.426,-1.987 -17.552,-4.139 -25.777,27.42 V -6.078 l -8.626,-2.034 v 40.101 l 13.476,3.177 8.126,-29.891 0.1,0.024 7.925,33.676 13.302,3.137 V 2.01 Z m -62.281,-14.686 v 32.989 l -13.876,-3.272 v 7.089 l 36.703,8.655 V 23.686 L -52.83,20.531 v -32.989 z"
             style="fill:#220614;fill-opacity:1;fill-rule:nonzero;stroke:none"
             id="path288" /></g></g></g></g></svg>