<?xml version="1.0" encoding="UTF-8" standalone="no"?>
<!-- Created with Inkscape (http://www.inkscape.org/) -->

<svg
   version="1.1"
   id="svg1"
   width="2560"
   height="1440"
   viewBox="0 0 2560 1440"
   sodipodi:docname="Rhythm World (리듬 세상) (Mysikt).ai"
   xmlns:inkscape="http://www.inkscape.org/namespaces/inkscape"
   xmlns:sodipodi="http://sodipodi.sourceforge.net/DTD/sodipodi-0.dtd"
   xmlns="http://www.w3.org/2000/svg"
   xmlns:svg="http://www.w3.org/2000/svg">
  <defs
     id="defs1">
    <clipPath
       clipPathUnits="userSpaceOnUse"
       id="clipPath3">
      <path
         d="M 0,1080 H 1920 V 0 H 0 Z"
         transform="translate(-1800,-1019.2498)"
         id="path3" />
    </clipPath>
    <clipPath
       clipPathUnits="userSpaceOnUse"
       id="clipPath5">
      <path
         d="M 0,1080 H 1920 V 0 H 0 Z"
         transform="translate(-1920,-1019.9998)"
         id="path5" />
    </clipPath>
    <clipPath
       clipPathUnits="userSpaceOnUse"
       id="clipPath7">
      <path
         d="M 0,1080 H 1920 V 0 H 0 Z"
         transform="translate(-1876.1748,-660.55012)"
         id="path7" />
    </clipPath>
    <clipPath
       clipPathUnits="userSpaceOnUse"
       id="clipPath9">
      <path
         d="M 0,1080 H 1920 V 0 H 0 Z"
         transform="translate(-1876.1748,-685.74982)"
         id="path9" />
    </clipPath>
    <clipPath
       clipPathUnits="userSpaceOnUse"
       id="clipPath11">
      <path
         d="M 0,1080 H 1920 V 0 H 0 Z"
         transform="translate(-1603.2754,-1036.4001)"
         id="path11" />
    </clipPath>
    <clipPath
       clipPathUnits="userSpaceOnUse"
       id="clipPath13">
      <path
         d="M 0,1080 H 1920 V 0 H 0 Z"
         transform="translate(-1583.4249,-1096.6248)"
         id="path13" />
    </clipPath>
    <clipPath
       clipPathUnits="userSpaceOnUse"
       id="clipPath15">
      <path
         d="M 0,1080 H 1920 V 0 H 0 Z"
         transform="translate(-1824.75,-1004.7249)"
         id="path15" />
    </clipPath>
    <clipPath
       clipPathUnits="userSpaceOnUse"
       id="clipPath17">
      <path
         d="M 0,1080 H 1920 V 0 H 0 Z"
         transform="translate(-1315.3398,-829.61652)"
         id="path17" />
    </clipPath>
    <clipPath
       clipPathUnits="userSpaceOnUse"
       id="clipPath19">
      <path
         d="M 0,1080 H 1920 V 0 H 0 Z"
         transform="translate(-1315.3398,-811.07062)"
         id="path19" />
    </clipPath>
    <clipPath
       clipPathUnits="userSpaceOnUse"
       id="clipPath21">
      <path
         d="M 0,1080 H 1920 V 0 H 0 Z"
         transform="translate(-1315.3389,-794.96082)"
         id="path21" />
    </clipPath>
    <clipPath
       clipPathUnits="userSpaceOnUse"
       id="clipPath23">
      <path
         d="M 0,1080 H 1920 V 0 H 0 Z"
         transform="translate(-1284.3682,-605.33482)"
         id="path23" />
    </clipPath>
    <clipPath
       clipPathUnits="userSpaceOnUse"
       id="clipPath25">
      <path
         d="M 0,1080 H 1920 V 0 H 0 Z"
         transform="translate(-1127.8467,-742.15022)"
         id="path25" />
    </clipPath>
    <clipPath
       clipPathUnits="userSpaceOnUse"
       id="clipPath27">
      <path
         d="M 0,1080 H 1920 V 0 H 0 Z"
         transform="translate(-792.17289,-529.60721)"
         id="path27" />
    </clipPath>
    <clipPath
       clipPathUnits="userSpaceOnUse"
       id="clipPath29">
      <path
         d="M 0,1080 H 1920 V 0 H 0 Z"
         transform="translate(-612.89012,-645.63752)"
         id="path29" />
    </clipPath>
    <clipPath
       clipPathUnits="userSpaceOnUse"
       id="clipPath31">
      <path
         d="M 0,1080 H 1920 V 0 H 0 Z"
         transform="translate(-1539.7599,-372.46661)"
         id="path31" />
    </clipPath>
  </defs>
  <sodipodi:namedview
     id="namedview1"
     pagecolor="#ffffff"
     bordercolor="#000000"
     borderopacity="0.25"
     inkscape:showpageshadow="2"
     inkscape:pageopacity="0.0"
     inkscape:pagecheckerboard="0"
     inkscape:deskcolor="#d1d1d1">
    <inkscape:page
       x="0"
       y="0"
       inkscape:label="1"
       id="page1"
       width="2560"
       height="1440"
       margin="0"
       bleed="0" />
  </sodipodi:namedview>
  <g
     id="layer-MC0"
     inkscape:groupmode="layer"
     inkscape:label="Layer 1">
    <path
       id="path1"
       d="M 0,0 H 1920 V 1080 H 0 Z"
       style="fill:#38f0d0;fill-opacity:1;fill-rule:nonzero;stroke:none"
       transform="matrix(1.3333333,0,0,-1.3333333,0,1440)" />
    <path
       id="path2"
       d="M 0,0 V 1.525 C -0.184,17.775 -6.05,31.667 -17.6,43.2 -29.3,54.9 -43.434,60.75 -60,60.75 -76.566,60.75 -90.717,54.9 -102.45,43.2 -113.95,31.667 -119.8,17.775 -120,1.525 V 0 c 0.2,-16.25 6.05,-30.125 17.55,-41.625 11.55,-11.55 25.442,-17.425 41.675,-17.625 h 1.55 c 16.233,0.2 30.108,6.075 41.625,17.625 C -6.05,-30.125 -0.184,-16.25 0,0 m 60.775,-59.25 h -1.55 C 42.992,-59.433 29.1,-65.283 17.55,-76.8 6.05,-88.333 0.2,-102.225 0,-118.475 V -120 c 0.2,-16.25 6.05,-30.125 17.55,-41.625 11.55,-11.55 25.442,-17.425 41.675,-17.625 h 1.55 c 16.233,0.2 30.108,6.075 41.625,17.625 11.733,11.7 17.6,25.825 17.6,42.375 0,16.567 -5.867,30.717 -17.6,42.45 -11.517,11.517 -25.392,17.367 -41.625,17.55 M -120,-120 v 1.525 c -0.184,16.25 -6.05,30.142 -17.6,41.675 -11.517,11.517 -25.392,17.367 -41.625,17.55 h -1.55 c -16.233,-0.183 -30.125,-6.033 -41.675,-17.55 -11.5,-11.533 -17.35,-25.425 -17.55,-41.675 V -120 c 0.2,-16.25 6.05,-30.125 17.55,-41.625 11.55,-11.55 25.442,-17.425 41.675,-17.625 h 1.55 c 16.233,0.2 30.108,6.075 41.625,17.625 11.55,11.5 17.416,25.375 17.6,41.625 m 60.775,-59.25 h -1.55 c -16.233,-0.183 -30.125,-6.033 -41.675,-17.55 -11.5,-11.533 -17.35,-25.425 -17.55,-41.675 V -240 c 0.2,-16.25 6.05,-30.125 17.55,-41.625 11.55,-11.55 25.442,-17.425 41.675,-17.625 h 1.55 c 16.233,0.2 30.108,6.075 41.625,17.625 11.55,11.5 17.416,25.375 17.6,41.625 v 1.525 c -0.184,16.25 -6.05,30.142 -17.6,41.675 -11.517,11.517 -25.392,17.367 -41.625,17.55 M -137.6,-316.8 c -11.517,11.517 -25.392,17.367 -41.625,17.55 h -1.55 c -16.233,-0.183 -30.125,-6.033 -41.675,-17.55 -11.5,-11.533 -17.35,-25.425 -17.55,-41.675 V -360 c 0.2,-16.25 6.05,-30.133 17.55,-41.65 11.55,-11.533 25.442,-17.4 41.675,-17.6 h 1.55 c 16.233,0.2 30.108,6.067 41.625,17.6 11.55,11.517 17.416,25.4 17.6,41.65 v 1.525 c -0.184,16.25 -6.05,30.142 -17.6,41.675 m 198.375,17.55 h -1.55 C 42.992,-299.433 29.1,-305.283 17.55,-316.8 6.05,-328.333 0.2,-342.225 0,-358.475 V -360 c 0.2,-16.25 6.05,-30.133 17.55,-41.65 11.55,-11.533 25.442,-17.4 41.675,-17.6 h 1.55 c 16.233,0.2 30.108,6.067 41.625,17.6 11.733,11.717 17.6,25.85 17.6,42.4 0,16.567 -5.867,30.717 -17.6,42.45 -11.517,11.517 -25.392,17.367 -41.625,17.55 M -240,0 v 1.525 c -0.184,16.25 -6.05,30.142 -17.6,41.675 -11.7,11.7 -25.834,17.55 -42.4,17.55 -16.566,0 -30.717,-5.85 -42.45,-17.55 C -353.95,31.667 -359.8,17.775 -360,1.525 V 0 c 0.2,-16.25 6.05,-30.125 17.55,-41.625 11.55,-11.55 25.442,-17.425 41.675,-17.625 h 1.55 c 16.233,0.2 30.108,6.075 41.625,17.625 11.55,11.5 17.416,25.375 17.6,41.625 m -240,0 v 1.525 c -0.2,16.25 -6.066,30.142 -17.6,41.675 -11.7,11.7 -25.834,17.55 -42.4,17.55 -16.566,0 -30.717,-5.85 -42.45,-17.55 C -593.967,31.667 -599.816,17.775 -600,1.525 V 0 c 0.184,-16.25 6.033,-30.125 17.55,-41.625 11.55,-11.55 25.442,-17.425 41.675,-17.625 h 1.55 c 16.233,0.2 30.108,6.075 41.625,17.625 11.534,11.5 17.4,25.375 17.6,41.625 m 0,-118.475 V -120 c 0.2,-16.25 6.05,-30.125 17.55,-41.625 11.55,-11.55 25.442,-17.425 41.675,-17.625 h 1.55 c 16.233,0.2 30.108,6.075 41.625,17.625 11.55,11.5 17.416,25.375 17.6,41.625 v 1.525 c -0.184,16.25 -6.05,30.142 -17.6,41.675 -11.517,11.517 -25.392,17.367 -41.625,17.55 h -1.55 c -16.233,-0.183 -30.125,-6.033 -41.675,-17.55 -11.5,-11.533 -17.35,-25.425 -17.55,-41.675 M -480,-240 v 1.525 c -0.2,16.25 -6.066,30.142 -17.6,41.675 -11.517,11.517 -25.392,17.367 -41.625,17.55 h -1.55 c -16.233,-0.183 -30.125,-6.033 -41.675,-17.55 -11.517,-11.533 -17.366,-25.425 -17.55,-41.675 V -240 c 0.184,-16.25 6.033,-30.125 17.55,-41.625 11.55,-11.55 25.442,-17.425 41.675,-17.625 h 1.55 c 16.233,0.2 30.108,6.075 41.625,17.625 11.534,11.5 17.4,25.375 17.6,41.625 m 120,1.525 V -240 c 0.2,-16.25 6.05,-30.125 17.55,-41.625 11.55,-11.55 25.442,-17.425 41.675,-17.625 h 1.55 c 16.233,0.2 30.108,6.075 41.625,17.625 11.55,11.5 17.416,25.375 17.6,41.625 v 1.525 c -0.184,16.25 -6.05,30.142 -17.6,41.675 -11.517,11.517 -25.392,17.367 -41.625,17.55 h -1.55 c -16.233,-0.183 -30.125,-6.033 -41.675,-17.55 -11.5,-11.533 -17.35,-25.425 -17.55,-41.675 m -59.225,-60.775 h -1.55 c -16.233,-0.183 -30.125,-6.033 -41.675,-17.55 -11.5,-11.533 -17.35,-25.425 -17.55,-41.675 V -360 c 0.2,-16.25 6.05,-30.133 17.55,-41.65 11.55,-11.533 25.442,-17.4 41.675,-17.6 h 1.55 c 16.233,0.2 30.108,6.067 41.625,17.6 11.55,11.517 17.416,25.4 17.6,41.65 v 1.525 c -0.184,16.25 -6.05,30.142 -17.6,41.675 -11.517,11.517 -25.392,17.367 -41.625,17.55 m 120,-120 h -1.55 c -16.233,-0.183 -30.125,-6.033 -41.675,-17.55 -11.5,-11.533 -17.35,-25.425 -17.55,-41.675 V -480 c 0.2,-16.25 6.05,-30.133 17.55,-41.649 11.55,-11.535 25.442,-17.401 41.675,-17.601 h 1.55 c 16.233,0.2 30.108,6.066 41.625,17.601 11.55,11.516 17.416,25.399 17.6,41.649 v 1.525 c -0.184,16.25 -6.05,30.142 -17.6,41.675 -11.517,11.517 -25.392,17.367 -41.625,17.55 M -480,-480 v 1.525 c -0.2,16.25 -6.066,30.142 -17.6,41.675 -11.517,11.517 -25.392,17.367 -41.625,17.55 h -1.55 c -16.233,-0.183 -30.125,-6.033 -41.675,-17.55 -11.517,-11.533 -17.366,-25.425 -17.55,-41.675 V -480 c 0.184,-16.25 6.033,-30.133 17.55,-41.649 11.55,-11.535 25.442,-17.401 41.675,-17.601 h 1.55 c 16.233,0.2 30.108,6.066 41.625,17.601 11.534,11.516 17.4,25.399 17.6,41.649 m 60.775,-59.25 h -1.55 c -16.233,-0.184 -30.125,-6.033 -41.675,-17.55 -11.5,-11.533 -17.35,-25.425 -17.55,-41.675 V -600 c 0.2,-16.25 6.05,-30.133 17.55,-41.649 11.55,-11.535 25.442,-17.401 41.675,-17.601 h 1.55 c 16.233,0.2 30.108,6.066 41.625,17.601 11.55,11.516 17.416,25.399 17.6,41.649 v 1.525 c -0.184,16.25 -6.05,30.142 -17.6,41.675 -11.517,11.517 -25.392,17.366 -41.625,17.55 M -480,-720 v 1.525 c -0.2,16.25 -6.066,30.142 -17.6,41.675 -11.517,11.517 -25.392,17.366 -41.625,17.55 h -1.55 c -16.233,-0.184 -30.125,-6.033 -41.675,-17.55 -11.517,-11.533 -17.366,-25.425 -17.55,-41.675 V -720 c 0.184,-16.25 6.033,-30.133 17.55,-41.649 11.55,-11.535 25.442,-17.401 41.675,-17.601 h 1.55 c 16.233,0.2 30.108,6.066 41.625,17.601 11.534,11.516 17.4,25.399 17.6,41.649 m 120,1.525 V -720 c 0.2,-16.25 6.05,-30.133 17.55,-41.649 11.55,-11.535 25.442,-17.401 41.675,-17.601 h 1.55 c 16.233,0.2 30.108,6.066 41.625,17.601 11.55,11.516 17.416,25.399 17.6,41.649 v 1.525 c -0.184,16.25 -6.05,30.142 -17.6,41.675 -11.517,11.517 -25.392,17.366 -41.625,17.55 h -1.55 c -16.233,-0.184 -30.125,-6.033 -41.675,-17.55 -11.5,-11.533 -17.35,-25.425 -17.55,-41.675 m 120,120 V -600 c 0.2,-16.25 6.05,-30.133 17.55,-41.649 11.55,-11.535 25.442,-17.401 41.675,-17.601 h 1.55 c 16.233,0.2 30.108,6.066 41.625,17.601 11.55,11.516 17.416,25.399 17.6,41.649 v 1.525 c -0.184,16.25 -6.05,30.142 -17.6,41.675 -11.517,11.517 -25.392,17.366 -41.625,17.55 h -1.55 c -16.233,-0.184 -30.125,-6.033 -41.675,-17.55 -11.5,-11.533 -17.35,-25.425 -17.55,-41.675 M 0,-480 v 1.525 c -0.184,16.25 -6.05,30.142 -17.6,41.675 -11.517,11.517 -25.392,17.367 -41.625,17.55 h -1.55 c -16.233,-0.183 -30.125,-6.033 -41.675,-17.55 -11.5,-11.533 -17.35,-25.425 -17.55,-41.675 V -480 c 0.2,-16.25 6.05,-30.133 17.55,-41.649 11.55,-11.535 25.442,-17.401 41.675,-17.601 h 1.55 c 16.233,0.2 30.108,6.066 41.625,17.601 C -6.05,-510.133 -0.184,-496.25 0,-480 M -120,-718.475 V -720 c 0.2,-16.25 6.05,-30.133 17.55,-41.649 11.55,-11.535 25.442,-17.401 41.675,-17.601 h 1.55 c 16.233,0.2 30.108,6.066 41.625,17.601 11.55,11.516 17.416,25.399 17.6,41.649 v 1.525 c -0.184,16.25 -6.05,30.142 -17.6,41.675 -11.517,11.517 -25.392,17.366 -41.625,17.55 h -1.55 c -16.233,-0.184 -30.125,-6.033 -41.675,-17.55 -11.5,-11.533 -17.35,-25.425 -17.55,-41.675 m 240,119.225 c 0,16.566 -5.867,30.717 -17.6,42.45 -11.517,11.517 -25.392,17.366 -41.625,17.55 h -1.55 C 42.992,-539.434 29.1,-545.283 17.55,-556.8 6.05,-568.333 0.2,-582.225 0,-598.475 V -600 c 0.2,-16.25 6.05,-30.133 17.55,-41.649 11.55,-11.535 25.442,-17.401 41.675,-17.601 h 1.55 c 16.233,0.2 30.108,6.066 41.625,17.601 11.733,11.715 17.6,25.849 17.6,42.399 m -59.225,-180 h -1.55 C 42.992,-779.434 29.1,-785.283 17.55,-796.8 6.05,-808.333 0.2,-822.225 0,-838.475 V -840 c 0.2,-16.25 6.05,-30.133 17.55,-41.649 11.55,-11.535 25.442,-17.401 41.675,-17.601 h 1.55 c 16.233,0.2 30.108,6.066 41.625,17.601 11.733,11.715 17.6,25.849 17.6,42.399 0,16.566 -5.867,30.717 -17.6,42.45 -11.517,11.517 -25.392,17.366 -41.625,17.55 M -137.6,-796.8 c -11.517,11.517 -25.392,17.366 -41.625,17.55 h -1.55 c -16.233,-0.184 -30.125,-6.033 -41.675,-17.55 -11.5,-11.533 -17.35,-25.425 -17.55,-41.675 V -840 c 0.2,-16.25 6.05,-30.133 17.55,-41.649 11.55,-11.535 25.442,-17.401 41.675,-17.601 h 1.55 c 16.233,0.2 30.108,6.066 41.625,17.601 11.55,11.516 17.416,25.399 17.6,41.649 v 1.525 c -0.184,16.25 -6.05,30.142 -17.6,41.675 m 78.375,-102.45 h -1.55 c -16.233,-0.184 -30.125,-6.033 -41.675,-17.55 -11.5,-11.533 -17.35,-25.425 -17.55,-41.675 V -960 c 0.2,-16.25 6.05,-30.133 17.55,-41.649 11.55,-11.534 25.442,-17.401 41.675,-17.601 h 1.55 c 16.233,0.2 30.108,6.067 41.625,17.601 11.55,11.516 17.416,25.399 17.6,41.649 v 1.525 c -0.184,16.25 -6.05,30.142 -17.6,41.675 -11.517,11.517 -25.392,17.366 -41.625,17.55 m -240,0 h -1.55 c -16.233,-0.184 -30.125,-6.033 -41.675,-17.55 -11.5,-11.533 -17.35,-25.425 -17.55,-41.675 V -960 c 0.2,-16.25 6.05,-30.133 17.55,-41.649 11.55,-11.534 25.442,-17.401 41.675,-17.601 h 1.55 c 16.233,0.2 30.108,6.067 41.625,17.601 11.55,11.516 17.416,25.399 17.6,41.649 v 1.525 c -0.184,16.25 -6.05,30.142 -17.6,41.675 -11.517,11.517 -25.392,17.366 -41.625,17.55 m -120,120 h -1.55 c -16.233,-0.184 -30.125,-6.033 -41.675,-17.55 -11.5,-11.533 -17.35,-25.425 -17.55,-41.675 V -840 c 0.2,-16.25 6.05,-30.133 17.55,-41.649 11.55,-11.535 25.442,-17.401 41.675,-17.601 h 1.55 c 16.233,0.2 30.108,6.066 41.625,17.601 11.55,11.516 17.416,25.399 17.6,41.649 v 1.525 c -0.184,16.25 -6.05,30.142 -17.6,41.675 -11.517,11.517 -25.392,17.366 -41.625,17.55 M -480,-960 v 1.525 c -0.2,16.25 -6.066,30.142 -17.6,41.675 -11.517,11.517 -25.392,17.366 -41.625,17.55 h -1.55 c -16.233,-0.184 -30.125,-6.033 -41.675,-17.55 -11.517,-11.533 -17.366,-25.425 -17.55,-41.675 V -960 c 0.184,-16.25 6.033,-30.133 17.55,-41.649 11.55,-11.534 25.442,-17.401 41.675,-17.601 h 1.55 c 16.233,0.2 30.108,6.067 41.625,17.601 11.534,11.516 17.4,25.399 17.6,41.649 m -179.225,900.75 h -1.55 c -16.233,-0.183 -30.125,-6.033 -41.675,-17.55 -11.517,-11.533 -17.366,-25.425 -17.55,-41.675 V -120 c 0.184,-16.25 6.033,-30.125 17.55,-41.625 11.55,-11.55 25.442,-17.425 41.675,-17.625 h 1.55 c 16.233,0.2 30.108,6.075 41.625,17.625 11.534,11.5 17.4,25.375 17.6,41.625 v 1.525 c -0.2,16.25 -6.066,30.142 -17.6,41.675 -11.517,11.517 -25.392,17.367 -41.625,17.55 M -720,0 v 1.525 c -0.2,16.25 -6.066,30.142 -17.6,41.675 -11.7,11.7 -25.834,17.55 -42.4,17.55 -16.566,0 -30.717,-5.85 -42.45,-17.55 C -833.967,31.667 -839.816,17.775 -840,1.525 V 0 c 0.184,-16.25 6.033,-30.125 17.55,-41.625 11.55,-11.55 25.442,-17.425 41.675,-17.625 h 1.55 c 16.233,0.2 30.108,6.075 41.625,17.625 11.534,11.5 17.4,25.375 17.6,41.625 m -59.225,-179.25 h -1.55 c -16.233,-0.183 -30.125,-6.033 -41.675,-17.55 -11.517,-11.533 -17.366,-25.425 -17.55,-41.675 V -240 c 0.184,-16.25 6.033,-30.125 17.55,-41.625 11.55,-11.55 25.442,-17.425 41.675,-17.625 h 1.55 c 16.233,0.2 30.108,6.075 41.625,17.625 11.534,11.5 17.4,25.375 17.6,41.625 v 1.525 c -0.2,16.25 -6.066,30.142 -17.6,41.675 -11.517,11.517 -25.392,17.367 -41.625,17.55 m 120,-120 h -1.55 c -16.233,-0.183 -30.125,-6.033 -41.675,-17.55 -11.517,-11.533 -17.366,-25.425 -17.55,-41.675 V -360 c 0.184,-16.25 6.033,-30.133 17.55,-41.65 11.55,-11.533 25.442,-17.4 41.675,-17.6 h 1.55 c 16.233,0.2 30.108,6.067 41.625,17.6 11.534,11.517 17.4,25.4 17.6,41.65 v 1.525 c -0.2,16.25 -6.066,30.142 -17.6,41.675 -11.517,11.517 -25.392,17.367 -41.625,17.55 M -960,0 v 1.525 c -0.2,16.25 -6.066,30.142 -17.6,41.675 -11.7,11.7 -25.833,17.55 -42.4,17.55 -16.566,0 -30.717,-5.85 -42.45,-17.55 -11.517,-11.533 -17.366,-25.425 -17.55,-41.675 V 0 c 0.184,-16.25 6.033,-30.125 17.55,-41.625 11.55,-11.55 25.442,-17.425 41.675,-17.625 h 1.55 c 16.233,0.2 30.108,6.075 41.625,17.625 11.534,11.5 17.4,25.375 17.6,41.625 m 0,-118.475 V -120 c 0.184,-16.25 6.033,-30.125 17.55,-41.625 11.55,-11.55 25.442,-17.425 41.675,-17.625 h 1.55 c 16.233,0.2 30.108,6.075 41.625,17.625 11.534,11.5 17.4,25.375 17.6,41.625 v 1.525 c -0.2,16.25 -6.066,30.142 -17.6,41.675 -11.517,11.517 -25.392,17.367 -41.625,17.55 h -1.55 c -16.233,-0.183 -30.125,-6.033 -41.675,-17.55 -11.517,-11.533 -17.366,-25.425 -17.55,-41.675 m -179.225,59.225 h -1.55 c -16.233,-0.183 -30.125,-6.033 -41.675,-17.55 -11.517,-11.533 -17.366,-25.425 -17.55,-41.675 V -120 c 0.184,-16.25 6.033,-30.125 17.55,-41.625 11.55,-11.55 25.442,-17.425 41.675,-17.625 h 1.55 c 16.233,0.2 30.108,6.075 41.625,17.625 11.534,11.5 17.4,25.375 17.6,41.625 v 1.525 c -0.2,16.25 -6.066,30.142 -17.6,41.675 -11.517,11.517 -25.392,17.367 -41.625,17.55 m 120,-120 h -1.55 c -16.233,-0.183 -30.125,-6.033 -41.675,-17.55 -11.517,-11.533 -17.366,-25.425 -17.55,-41.675 V -240 c 0.184,-16.25 6.033,-30.125 17.55,-41.625 11.55,-11.55 25.442,-17.425 41.675,-17.625 h 1.55 c 16.233,0.2 30.108,6.075 41.625,17.625 11.534,11.5 17.4,25.375 17.6,41.625 v 1.525 c -0.2,16.25 -6.066,30.142 -17.6,41.675 -11.517,11.517 -25.392,17.367 -41.625,17.55 m -120,-120 h -1.55 c -16.233,-0.183 -30.125,-6.033 -41.675,-17.55 -11.517,-11.533 -17.366,-25.425 -17.55,-41.675 V -360 c 0.184,-16.25 6.033,-30.133 17.55,-41.65 11.55,-11.533 25.442,-17.4 41.675,-17.6 h 1.55 c 16.233,0.2 30.108,6.067 41.625,17.6 11.534,11.517 17.4,25.4 17.6,41.65 v 1.525 c -0.2,16.25 -6.066,30.142 -17.6,41.675 -11.517,11.517 -25.392,17.367 -41.625,17.55 m 240,0 h -1.55 c -16.233,-0.183 -30.125,-6.033 -41.675,-17.55 -11.517,-11.533 -17.366,-25.425 -17.55,-41.675 V -360 c 0.184,-16.25 6.033,-30.133 17.55,-41.65 11.55,-11.533 25.442,-17.4 41.675,-17.6 h 1.55 c 16.233,0.2 30.108,6.067 41.625,17.6 11.534,11.517 17.4,25.4 17.6,41.65 v 1.525 c -0.2,16.25 -6.066,30.142 -17.6,41.675 -11.517,11.517 -25.392,17.367 -41.625,17.55 M -960,-480 v 1.525 c -0.2,16.25 -6.066,30.142 -17.6,41.675 -11.517,11.517 -25.392,17.367 -41.625,17.55 h -1.55 c -16.233,-0.183 -30.125,-6.033 -41.675,-17.55 -11.517,-11.533 -17.366,-25.425 -17.55,-41.675 V -480 c 0.184,-16.25 6.033,-30.133 17.55,-41.649 11.55,-11.535 25.442,-17.401 41.675,-17.601 h 1.55 c 16.233,0.2 30.108,6.066 41.625,17.601 11.534,11.516 17.4,25.399 17.6,41.649 m 120,1.525 V -480 c 0.184,-16.25 6.033,-30.133 17.55,-41.649 11.55,-11.535 25.442,-17.401 41.675,-17.601 h 1.55 c 16.233,0.2 30.108,6.066 41.625,17.601 11.534,11.516 17.4,25.399 17.6,41.649 v 1.525 c -0.2,16.25 -6.066,30.142 -17.6,41.675 -11.517,11.517 -25.392,17.367 -41.625,17.55 h -1.55 c -16.233,-0.183 -30.125,-6.033 -41.675,-17.55 -11.517,-11.533 -17.366,-25.425 -17.55,-41.675 m -299.225,-60.775 h -1.55 c -16.233,-0.184 -30.125,-6.033 -41.675,-17.55 -11.517,-11.533 -17.366,-25.425 -17.55,-41.675 V -600 c 0.184,-16.25 6.033,-30.133 17.55,-41.649 11.55,-11.535 25.442,-17.401 41.675,-17.601 h 1.55 c 16.233,0.2 30.108,6.066 41.625,17.601 11.534,11.516 17.4,25.399 17.6,41.649 v 1.525 c -0.2,16.25 -6.066,30.142 -17.6,41.675 -11.517,11.517 -25.392,17.366 -41.625,17.55 M -1080,-718.475 V -720 c 0.184,-16.25 6.033,-30.133 17.55,-41.649 11.55,-11.535 25.442,-17.401 41.675,-17.601 h 1.55 c 16.233,0.2 30.108,6.066 41.625,17.601 11.534,11.516 17.4,25.399 17.6,41.649 v 1.525 c -0.2,16.25 -6.066,30.142 -17.6,41.675 -11.517,11.517 -25.392,17.366 -41.625,17.55 h -1.55 c -16.233,-0.184 -30.125,-6.033 -41.675,-17.55 -11.517,-11.533 -17.366,-25.425 -17.55,-41.675 m 180.775,179.225 h -1.55 c -16.233,-0.184 -30.125,-6.033 -41.675,-17.55 -11.517,-11.533 -17.366,-25.425 -17.55,-41.675 V -600 c 0.184,-16.25 6.033,-30.133 17.55,-41.649 11.55,-11.535 25.442,-17.401 41.675,-17.601 h 1.55 c 16.233,0.2 30.108,6.066 41.625,17.601 11.534,11.516 17.4,25.399 17.6,41.649 v 1.525 c -0.2,16.25 -6.066,30.142 -17.6,41.675 -11.517,11.517 -25.392,17.366 -41.625,17.55 M -840,-718.475 V -720 c 0.184,-16.25 6.033,-30.133 17.55,-41.649 11.55,-11.535 25.442,-17.401 41.675,-17.601 h 1.55 c 16.233,0.2 30.108,6.066 41.625,17.601 11.534,11.516 17.4,25.399 17.6,41.649 v 1.525 c -0.2,16.25 -6.066,30.142 -17.6,41.675 -11.517,11.517 -25.392,17.366 -41.625,17.55 h -1.55 c -16.233,-0.184 -30.125,-6.033 -41.675,-17.55 -11.517,-11.533 -17.366,-25.425 -17.55,-41.675 m 120,120 V -600 c 0.184,-16.25 6.033,-30.133 17.55,-41.649 11.55,-11.535 25.442,-17.401 41.675,-17.601 h 1.55 c 16.233,0.2 30.108,6.066 41.625,17.601 11.534,11.516 17.4,25.399 17.6,41.649 v 1.525 c -0.2,16.25 -6.066,30.142 -17.6,41.675 -11.517,11.517 -25.392,17.366 -41.625,17.55 h -1.55 c -16.233,-0.184 -30.125,-6.033 -41.675,-17.55 -11.517,-11.533 -17.366,-25.425 -17.55,-41.675 M -1200,0 v 1.525 c -0.2,16.25 -6.066,30.142 -17.6,41.675 -11.7,11.7 -25.833,17.55 -42.4,17.55 -16.566,0 -30.717,-5.85 -42.45,-17.55 -11.517,-11.533 -17.366,-25.425 -17.55,-41.675 V 0 c 0.184,-16.25 6.033,-30.125 17.55,-41.625 11.55,-11.55 25.442,-17.425 41.675,-17.625 h 1.55 c 16.233,0.2 30.108,6.075 41.625,17.625 11.534,11.5 17.4,25.375 17.6,41.625 m -240,0 v 1.525 c -0.2,16.25 -6.066,30.142 -17.6,41.675 -11.7,11.7 -25.833,17.55 -42.4,17.55 -16.567,0 -30.717,-5.85 -42.45,-17.55 -11.517,-11.533 -17.367,-25.425 -17.55,-41.675 L -1560,0 c 0.183,-16.25 6.033,-30.125 17.55,-41.625 11.55,-11.55 25.442,-17.425 41.675,-17.625 h 1.55 c 16.233,0.2 30.108,6.075 41.625,17.625 11.534,11.5 17.4,25.375 17.6,41.625 m 0,-118.475 V -120 c 0.184,-16.25 6.033,-30.125 17.55,-41.625 11.55,-11.55 25.442,-17.425 41.675,-17.625 h 1.55 c 16.233,0.2 30.108,6.075 41.625,17.625 11.534,11.5 17.4,25.375 17.6,41.625 v 1.525 c -0.2,16.25 -6.066,30.142 -17.6,41.675 -11.517,11.517 -25.392,17.367 -41.625,17.55 h -1.55 c -16.233,-0.183 -30.125,-6.033 -41.675,-17.55 -11.517,-11.533 -17.366,-25.425 -17.55,-41.675 m 0,-121.525 v 1.525 c -0.2,16.25 -6.066,30.142 -17.6,41.675 -11.517,11.517 -25.392,17.367 -41.625,17.55 h -1.55 c -16.233,-0.183 -30.125,-6.033 -41.675,-17.55 -11.517,-11.533 -17.367,-25.425 -17.55,-41.675 V -240 c 0.183,-16.25 6.033,-30.125 17.55,-41.625 11.55,-11.55 25.442,-17.425 41.675,-17.625 h 1.55 c 16.233,0.2 30.108,6.075 41.625,17.625 11.534,11.5 17.4,25.375 17.6,41.625 m 120,1.525 V -240 c 0.184,-16.25 6.033,-30.125 17.55,-41.625 11.55,-11.55 25.442,-17.425 41.675,-17.625 h 1.55 c 16.233,0.2 30.108,6.075 41.625,17.625 11.534,11.5 17.4,25.375 17.6,41.625 v 1.525 c -0.2,16.25 -6.066,30.142 -17.6,41.675 -11.517,11.517 -25.392,17.367 -41.625,17.55 h -1.55 c -16.233,-0.183 -30.125,-6.033 -41.675,-17.55 -11.517,-11.533 -17.366,-25.425 -17.55,-41.675 m -59.225,-60.775 h -1.55 c -16.233,-0.183 -30.125,-6.033 -41.675,-17.55 -11.517,-11.533 -17.366,-25.425 -17.55,-41.675 V -360 c 0.184,-16.25 6.033,-30.133 17.55,-41.65 11.55,-11.533 25.442,-17.4 41.675,-17.6 h 1.55 c 16.233,0.2 30.108,6.067 41.625,17.6 11.534,11.517 17.4,25.4 17.6,41.65 v 1.525 c -0.2,16.25 -6.066,30.142 -17.6,41.675 -11.517,11.517 -25.392,17.367 -41.625,17.55 m -240,240 h -1.55 c -16.233,-0.183 -30.125,-6.033 -41.675,-17.55 -11.517,-11.533 -17.367,-25.425 -17.55,-41.675 V -120 c 0.183,-16.25 6.033,-30.125 17.55,-41.625 11.55,-11.55 25.442,-17.425 41.675,-17.625 h 1.55 c 16.233,0.2 30.108,6.075 41.625,17.625 11.533,11.5 17.4,25.375 17.6,41.625 v 1.525 c -0.2,16.25 -6.067,30.142 -17.6,41.675 -11.517,11.517 -25.392,17.367 -41.625,17.55 M -1680,0 v 1.525 c -0.2,16.25 -6.067,30.142 -17.6,41.675 -11.7,11.7 -25.833,17.55 -42.4,17.55 -16.567,0 -30.717,-5.85 -42.45,-17.55 -11.7,-11.733 -17.55,-25.883 -17.55,-42.45 0,-16.55 5.85,-30.675 17.55,-42.375 11.55,-11.55 25.442,-17.425 41.675,-17.625 h 1.55 c 16.233,0.2 30.108,6.075 41.625,17.625 11.533,11.5 17.4,25.375 17.6,41.625 m -59.225,-179.25 h -1.55 c -16.233,-0.183 -30.125,-6.033 -41.675,-17.55 -11.7,-11.733 -17.55,-25.883 -17.55,-42.45 0,-16.55 5.85,-30.675 17.55,-42.375 11.55,-11.55 25.442,-17.425 41.675,-17.625 h 1.55 c 16.233,0.2 30.108,6.075 41.625,17.625 11.533,11.5 17.4,25.375 17.6,41.625 v 1.525 c -0.2,16.25 -6.067,30.142 -17.6,41.675 -11.517,11.517 -25.392,17.367 -41.625,17.55 m 120,-120 h -1.55 c -16.233,-0.183 -30.125,-6.033 -41.675,-17.55 -11.517,-11.533 -17.367,-25.425 -17.55,-41.675 V -360 c 0.183,-16.25 6.033,-30.133 17.55,-41.65 11.55,-11.533 25.442,-17.4 41.675,-17.6 h 1.55 c 16.233,0.2 30.108,6.067 41.625,17.6 11.533,11.517 17.4,25.4 17.6,41.65 v 1.525 c -0.2,16.25 -6.067,30.142 -17.6,41.675 -11.517,11.517 -25.392,17.367 -41.625,17.55 m 120,-120 h -1.55 c -16.233,-0.183 -30.125,-6.033 -41.675,-17.55 -11.517,-11.533 -17.367,-25.425 -17.55,-41.675 V -480 c 0.183,-16.25 6.033,-30.133 17.55,-41.649 11.55,-11.535 25.442,-17.401 41.675,-17.601 h 1.55 c 16.233,0.2 30.108,6.066 41.625,17.601 11.534,11.516 17.4,25.399 17.6,41.649 v 1.525 c -0.2,16.25 -6.066,30.142 -17.6,41.675 -11.517,11.517 -25.392,17.367 -41.625,17.55 m -240,0 h -1.55 c -16.233,-0.183 -30.125,-6.033 -41.675,-17.55 -11.7,-11.733 -17.55,-25.883 -17.55,-42.45 0,-3.429 0.25,-6.754 0.75,-9.975 1.924,-12.327 7.524,-23.135 16.8,-32.424 11.55,-11.535 25.442,-17.401 41.675,-17.601 h 1.55 c 3.742,0.046 7.359,0.396 10.85,1.05 11.655,2.159 21.913,7.676 30.775,16.551 11.533,11.516 17.4,25.399 17.6,41.649 v 1.525 c -0.2,16.25 -6.067,30.142 -17.6,41.675 -11.517,11.517 -25.392,17.367 -41.625,17.55 M -1680,-598.475 V -600 c 0.183,-16.25 6.033,-30.133 17.55,-41.649 11.55,-11.535 25.442,-17.401 41.675,-17.601 h 1.55 c 16.233,0.2 30.108,6.066 41.625,17.601 11.533,11.516 17.4,25.399 17.6,41.649 v 1.525 c -0.2,16.25 -6.067,30.142 -17.6,41.675 -11.517,11.517 -25.392,17.366 -41.625,17.55 h -1.55 c -16.233,-0.184 -30.125,-6.033 -41.675,-17.55 -11.517,-11.533 -17.367,-25.425 -17.55,-41.675 m -48.375,-61.799 c -3.491,0.64 -7.108,0.982 -10.85,1.024 h -1.55 c -16.233,-0.184 -30.125,-6.033 -41.675,-17.55 -11.7,-11.733 -17.55,-25.884 -17.55,-42.45 0,-16.55 5.85,-30.684 17.55,-42.399 6.435,-6.426 13.593,-11.093 21.475,-14 6.277,-2.312 13.011,-3.512 20.2,-3.601 h 1.55 c 16.233,0.2 30.108,6.066 41.625,17.601 11.533,11.516 17.4,25.399 17.6,41.649 v 1.525 c -0.2,16.25 -6.067,30.142 -17.6,41.675 -8.862,8.863 -19.12,14.37 -30.775,16.526 M -1560,-718.475 V -720 c 0.183,-16.25 6.033,-30.133 17.55,-41.649 11.55,-11.535 25.442,-17.401 41.675,-17.601 h 1.55 c 16.233,0.2 30.108,6.066 41.625,17.601 11.534,11.516 17.4,25.399 17.6,41.649 v 1.525 c -0.2,16.25 -6.066,30.142 -17.6,41.675 -11.517,11.517 -25.392,17.366 -41.625,17.55 h -1.55 c -16.233,-0.184 -30.125,-6.033 -41.675,-17.55 -11.517,-11.533 -17.367,-25.425 -17.55,-41.675 m 300.775,299.225 h -1.55 c -16.233,-0.183 -30.125,-6.033 -41.675,-17.55 -11.517,-11.533 -17.366,-25.425 -17.55,-41.675 V -480 c 0.184,-16.25 6.033,-30.133 17.55,-41.649 11.55,-11.535 25.442,-17.401 41.675,-17.601 h 1.55 c 16.233,0.2 30.108,6.066 41.625,17.601 11.534,11.516 17.4,25.399 17.6,41.649 v 1.525 c -0.2,16.25 -6.066,30.142 -17.6,41.675 -11.517,11.517 -25.392,17.367 -41.625,17.55 m -120,-120 h -1.55 c -16.233,-0.184 -30.125,-6.033 -41.675,-17.55 -11.517,-11.533 -17.366,-25.425 -17.55,-41.675 V -600 c 0.184,-16.25 6.033,-30.133 17.55,-41.649 11.55,-11.535 25.442,-17.401 41.675,-17.601 h 1.55 c 16.233,0.2 30.108,6.066 41.625,17.601 11.534,11.516 17.4,25.399 17.6,41.649 v 1.525 c -0.2,16.25 -6.066,30.142 -17.6,41.675 -11.517,11.517 -25.392,17.366 -41.625,17.55 M -1320,-718.475 V -720 c 0.184,-16.25 6.033,-30.133 17.55,-41.649 11.55,-11.535 25.442,-17.401 41.675,-17.601 h 1.55 c 16.233,0.2 30.108,6.066 41.625,17.601 11.534,11.516 17.4,25.399 17.6,41.649 v 1.525 c -0.2,16.25 -6.066,30.142 -17.6,41.675 -11.517,11.517 -25.392,17.366 -41.625,17.55 h -1.55 c -16.233,-0.184 -30.125,-6.033 -41.675,-17.55 -11.517,-11.533 -17.366,-25.425 -17.55,-41.675 m 60.775,-180.775 h -1.55 c -16.233,-0.184 -30.125,-6.033 -41.675,-17.55 -11.517,-11.533 -17.366,-25.425 -17.55,-41.675 V -960 c 0.184,-16.25 6.033,-30.133 17.55,-41.649 11.55,-11.534 25.442,-17.401 41.675,-17.601 h 1.55 c 16.233,0.2 30.108,6.067 41.625,17.601 11.534,11.516 17.4,25.399 17.6,41.649 v 1.525 c -0.2,16.25 -6.066,30.142 -17.6,41.675 -11.517,11.517 -25.392,17.366 -41.625,17.55 m 59.225,60.775 V -840 c 0.184,-16.25 6.033,-30.133 17.55,-41.649 11.55,-11.535 25.442,-17.401 41.675,-17.601 h 1.55 c 16.233,0.2 30.108,6.066 41.625,17.601 11.534,11.516 17.4,25.399 17.6,41.649 v 1.525 c -0.2,16.25 -6.066,30.142 -17.6,41.675 -11.517,11.517 -25.392,17.366 -41.625,17.55 h -1.55 c -16.233,-0.184 -30.125,-6.033 -41.675,-17.55 -11.517,-11.533 -17.366,-25.425 -17.55,-41.675 m -179.225,59.225 h -1.55 c -16.233,-0.184 -30.125,-6.033 -41.675,-17.55 -11.517,-11.533 -17.366,-25.425 -17.55,-41.675 V -840 c 0.184,-16.25 6.033,-30.133 17.55,-41.649 11.55,-11.535 25.442,-17.401 41.675,-17.601 h 1.55 c 16.233,0.2 30.108,6.066 41.625,17.601 11.534,11.516 17.4,25.399 17.6,41.649 v 1.525 c -0.2,16.25 -6.066,30.142 -17.6,41.675 -11.517,11.517 -25.392,17.366 -41.625,17.55 M -1440,-960 v 1.525 c -0.2,16.25 -6.066,30.142 -17.6,41.675 -11.517,11.517 -25.392,17.366 -41.625,17.55 h -1.55 c -16.233,-0.184 -30.125,-6.033 -41.675,-17.55 -11.517,-11.533 -17.367,-25.425 -17.55,-41.675 V -960 c 0.183,-16.25 6.033,-30.133 17.55,-41.649 11.55,-11.534 25.442,-17.401 41.675,-17.601 h 1.55 c 16.233,0.2 30.108,6.067 41.625,17.601 11.534,11.516 17.4,25.399 17.6,41.649 m -179.225,180.75 h -1.55 c -16.233,-0.184 -30.125,-6.033 -41.675,-17.55 -11.517,-11.533 -17.367,-25.425 -17.55,-41.675 V -840 c 0.183,-16.25 6.033,-30.133 17.55,-41.649 11.55,-11.535 25.442,-17.401 41.675,-17.601 h 1.55 c 16.233,0.2 30.108,6.066 41.625,17.601 11.533,11.516 17.4,25.399 17.6,41.649 v 1.525 c -0.2,16.25 -6.067,30.142 -17.6,41.675 -11.517,11.517 -25.392,17.366 -41.625,17.55 m -120,-120 h -1.55 c -16.233,-0.184 -30.125,-6.033 -41.675,-17.55 -11.7,-11.733 -17.55,-25.884 -17.55,-42.45 0,-16.55 5.85,-30.683 17.55,-42.399 11.55,-11.534 25.442,-17.401 41.675,-17.601 h 1.55 c 16.233,0.2 30.108,6.067 41.625,17.601 11.533,11.516 17.4,25.399 17.6,41.649 v 1.525 c -0.2,16.25 -6.067,30.142 -17.6,41.675 -11.517,11.517 -25.392,17.366 -41.625,17.55 m 1080,120 h -1.55 c -16.233,-0.184 -30.125,-6.033 -41.675,-17.55 -11.517,-11.533 -17.366,-25.425 -17.55,-41.675 V -840 c 0.184,-16.25 6.033,-30.133 17.55,-41.649 11.55,-11.535 25.442,-17.401 41.675,-17.601 h 1.55 c 16.233,0.2 30.108,6.066 41.625,17.601 11.534,11.516 17.4,25.399 17.6,41.649 v 1.525 c -0.2,16.25 -6.066,30.142 -17.6,41.675 -11.517,11.517 -25.392,17.366 -41.625,17.55 m -120,-120 h -1.55 c -16.233,-0.184 -30.125,-6.033 -41.675,-17.55 -11.517,-11.533 -17.366,-25.425 -17.55,-41.675 V -960 c 0.184,-16.25 6.033,-30.133 17.55,-41.649 11.55,-11.534 25.442,-17.401 41.675,-17.601 h 1.55 c 16.233,0.2 30.108,6.067 41.625,17.601 11.534,11.516 17.4,25.399 17.6,41.649 v 1.525 c -0.2,16.25 -6.066,30.142 -17.6,41.675 -11.517,11.517 -25.392,17.366 -41.625,17.55 m -120,120 h -1.55 c -16.233,-0.184 -30.125,-6.033 -41.675,-17.55 -11.517,-11.533 -17.366,-25.425 -17.55,-41.675 V -840 c 0.184,-16.25 6.033,-30.133 17.55,-41.649 11.55,-11.535 25.442,-17.401 41.675,-17.601 h 1.55 c 16.233,0.2 30.108,6.066 41.625,17.601 11.534,11.516 17.4,25.399 17.6,41.649 v 1.525 c -0.2,16.25 -6.066,30.142 -17.6,41.675 -11.517,11.517 -25.392,17.366 -41.625,17.55 m -120,-120 h -1.55 c -16.233,-0.184 -30.125,-6.033 -41.675,-17.55 -11.517,-11.533 -17.366,-25.425 -17.55,-41.675 V -960 c 0.184,-16.25 6.033,-30.133 17.55,-41.649 11.55,-11.534 25.442,-17.401 41.675,-17.601 h 1.55 c 16.233,0.2 30.108,6.067 41.625,17.601 11.534,11.516 17.4,25.399 17.6,41.649 v 1.525 c -0.2,16.25 -6.066,30.142 -17.6,41.675 -11.517,11.517 -25.392,17.366 -41.625,17.55"
       style="fill:#50e0d0;fill-opacity:1;fill-rule:nonzero;stroke:none"
       transform="matrix(1.3333333,0,0,-1.3333333,2400,81.000267)"
       clip-path="url(#clipPath3)" />
    <path
       id="path4"
       d="M 0,0 C 0,16.567 -5.867,30.717 -17.6,42.45 -29.3,54.15 -43.434,60 -60,60 -76.566,60 -90.717,54.15 -102.45,42.45 -113.95,30.917 -119.8,17.025 -120,0.775 V -0.75 c 0.2,-16.25 6.05,-30.125 17.55,-41.625 C -90.9,-53.925 -77.008,-59.8 -60.775,-60 h 1.55 c 16.233,0.2 30.108,6.075 41.625,17.625 C -5.867,-30.675 0,-16.55 0,0 m -120,-120.75 v 1.525 c -0.184,16.25 -6.05,30.142 -17.6,41.675 -11.517,11.517 -25.392,17.367 -41.625,17.55 h -1.55 c -16.233,-0.183 -30.125,-6.033 -41.675,-17.55 -11.5,-11.533 -17.35,-25.425 -17.55,-41.675 v -1.525 c 0.2,-16.25 6.05,-30.125 17.55,-41.625 11.55,-11.55 25.442,-17.425 41.675,-17.625 h 1.55 c 16.233,0.2 30.108,6.075 41.625,17.625 11.55,11.5 17.416,25.375 17.6,41.625 m -120,120 v 1.525 c -0.184,16.25 -6.05,30.142 -17.6,41.675 C -269.3,54.15 -283.434,60 -300,60 -316.566,60 -330.717,54.15 -342.45,42.45 -353.95,30.917 -359.8,17.025 -360,0.775 V -0.75 c 0.2,-16.25 6.05,-30.125 17.55,-41.625 11.55,-11.55 25.442,-17.425 41.675,-17.625 h 1.55 c 16.233,0.2 30.108,6.075 41.625,17.625 11.55,11.5 17.416,25.375 17.6,41.625 m -17.6,-196.8 c -11.517,11.517 -25.392,17.367 -41.625,17.55 h -1.55 c -16.233,-0.183 -30.125,-6.033 -41.675,-17.55 -11.5,-11.533 -17.35,-25.425 -17.55,-41.675 v -1.525 c 0.2,-16.25 6.05,-30.125 17.55,-41.625 11.55,-11.55 25.442,-17.425 41.675,-17.625 h 1.55 c 16.233,0.2 30.108,6.075 41.625,17.625 11.55,11.5 17.416,25.375 17.6,41.625 v 1.525 c -0.184,16.25 -6.05,30.142 -17.6,41.675 M -179.225,-300 h -1.55 c -16.233,-0.183 -30.125,-6.033 -41.675,-17.55 -11.5,-11.533 -17.35,-25.425 -17.55,-41.675 v -1.525 c 0.2,-16.25 6.05,-30.133 17.55,-41.65 11.55,-11.533 25.442,-17.4 41.675,-17.6 h 1.55 c 16.233,0.2 30.108,6.067 41.625,17.6 11.55,11.517 17.416,25.4 17.6,41.65 v 1.525 c -0.184,16.25 -6.05,30.142 -17.6,41.675 -11.517,11.517 -25.392,17.367 -41.625,17.55 m 120,120 h -1.55 c -16.233,-0.183 -30.125,-6.033 -41.675,-17.55 -11.5,-11.533 -17.35,-25.425 -17.55,-41.675 v -1.525 c 0.2,-16.25 6.05,-30.125 17.55,-41.625 11.55,-11.55 25.442,-17.425 41.675,-17.625 h 1.55 c 16.233,0.2 30.108,6.075 41.625,17.625 11.733,11.7 17.6,25.825 17.6,42.375 0,16.567 -5.867,30.717 -17.6,42.45 -11.517,11.517 -25.392,17.367 -41.625,17.55 m -360,120 h -1.55 c -16.233,-0.183 -30.125,-6.033 -41.675,-17.55 -11.5,-11.533 -17.35,-25.425 -17.55,-41.675 v -1.525 c 0.2,-16.25 6.05,-30.125 17.55,-41.625 11.55,-11.55 25.442,-17.425 41.675,-17.625 h 1.55 c 16.233,0.2 30.108,6.075 41.625,17.625 11.55,11.5 17.416,25.375 17.6,41.625 v 1.525 c -0.184,16.25 -6.05,30.142 -17.6,41.675 -11.517,11.517 -25.392,17.367 -41.625,17.55 M -480,-0.75 v 1.525 c -0.184,16.25 -6.05,30.142 -17.6,41.675 C -509.3,54.15 -523.434,60 -540,60 -556.566,60 -570.717,54.15 -582.45,42.45 -593.95,30.917 -599.8,17.025 -600,0.775 V -0.75 c 0.2,-16.25 6.05,-30.125 17.55,-41.625 11.55,-11.55 25.442,-17.425 41.675,-17.625 h 1.55 c 16.233,0.2 30.108,6.075 41.625,17.625 11.55,11.5 17.416,25.375 17.6,41.625 m -120,-120 v 1.525 c -0.2,16.25 -6.066,30.142 -17.6,41.675 -11.517,11.517 -25.392,17.367 -41.625,17.55 h -1.55 c -16.233,-0.183 -30.125,-6.033 -41.675,-17.55 -11.517,-11.533 -17.366,-25.425 -17.55,-41.675 v -1.525 c 0.184,-16.25 6.033,-30.125 17.55,-41.625 11.55,-11.55 25.442,-17.425 41.675,-17.625 h 1.55 c 16.233,0.2 30.108,6.075 41.625,17.625 11.534,11.5 17.4,25.375 17.6,41.625 m 60.775,-59.25 h -1.55 c -16.233,-0.183 -30.125,-6.033 -41.675,-17.55 -11.5,-11.533 -17.35,-25.425 -17.55,-41.675 v -1.525 c 0.2,-16.25 6.05,-30.125 17.55,-41.625 11.55,-11.55 25.442,-17.425 41.675,-17.625 h 1.55 c 16.233,0.2 30.108,6.075 41.625,17.625 11.55,11.5 17.416,25.375 17.6,41.625 v 1.525 c -0.184,16.25 -6.05,30.142 -17.6,41.675 -11.517,11.517 -25.392,17.367 -41.625,17.55 m 120,-120 h -1.55 c -16.233,-0.183 -30.125,-6.033 -41.675,-17.55 -11.5,-11.533 -17.35,-25.425 -17.55,-41.675 v -1.525 c 0.2,-16.25 6.05,-30.133 17.55,-41.65 11.55,-11.533 25.442,-17.4 41.675,-17.6 h 1.55 c 16.233,0.2 30.108,6.067 41.625,17.6 11.55,11.517 17.416,25.4 17.6,41.65 v 1.525 c -0.184,16.25 -6.05,30.142 -17.6,41.675 -11.517,11.517 -25.392,17.367 -41.625,17.55 M -360,-479.225 v -1.525 c 0.2,-16.25 6.05,-30.133 17.55,-41.649 11.55,-11.535 25.442,-17.401 41.675,-17.601 h 1.55 c 16.233,0.2 30.108,6.066 41.625,17.601 11.55,11.516 17.416,25.399 17.6,41.649 v 1.525 c -0.184,16.25 -6.05,30.142 -17.6,41.675 -11.517,11.517 -25.392,17.367 -41.625,17.55 h -1.55 c -16.233,-0.183 -30.125,-6.033 -41.675,-17.55 -11.5,-11.533 -17.35,-25.425 -17.55,-41.675 M -539.225,-420 h -1.55 c -16.233,-0.183 -30.125,-6.033 -41.675,-17.55 -11.5,-11.533 -17.35,-25.425 -17.55,-41.675 v -1.525 c 0.2,-16.25 6.05,-30.133 17.55,-41.649 11.55,-11.535 25.442,-17.401 41.675,-17.601 h 1.55 c 16.233,0.2 30.108,6.066 41.625,17.601 11.55,11.516 17.416,25.399 17.6,41.649 v 1.525 c -0.184,16.25 -6.05,30.142 -17.6,41.675 -11.517,11.517 -25.392,17.367 -41.625,17.55 M -600,-360.75 v 1.525 c -0.2,16.25 -6.066,30.142 -17.6,41.675 -11.517,11.517 -25.392,17.367 -41.625,17.55 h -1.55 c -16.233,-0.183 -30.125,-6.033 -41.675,-17.55 -11.517,-11.533 -17.366,-25.425 -17.55,-41.675 v -1.525 c 0.184,-16.25 6.033,-30.133 17.55,-41.65 11.55,-11.533 25.442,-17.4 41.675,-17.6 h 1.55 c 16.233,0.2 30.108,6.067 41.625,17.6 11.534,11.517 17.4,25.4 17.6,41.65 m 120,-238.475 v -1.525 c 0.2,-16.25 6.05,-30.133 17.55,-41.649 11.55,-11.535 25.442,-17.401 41.675,-17.601 h 1.55 c 16.233,0.2 30.108,6.066 41.625,17.601 11.55,11.516 17.416,25.399 17.6,41.649 v 1.525 c -0.184,16.25 -6.05,30.142 -17.6,41.675 -11.517,11.517 -25.392,17.366 -41.625,17.55 h -1.55 c -16.233,-0.184 -30.125,-6.033 -41.675,-17.55 -11.5,-11.533 -17.35,-25.425 -17.55,-41.675 m -120,-1.525 v 1.525 c -0.2,16.25 -6.066,30.142 -17.6,41.675 -11.517,11.517 -25.392,17.366 -41.625,17.55 h -1.55 c -16.233,-0.184 -30.125,-6.033 -41.675,-17.55 -11.517,-11.533 -17.366,-25.425 -17.55,-41.675 v -1.525 c 0.184,-16.25 6.033,-30.133 17.55,-41.649 11.55,-11.535 25.442,-17.401 41.675,-17.601 h 1.55 c 16.233,0.2 30.108,6.066 41.625,17.601 11.534,11.516 17.4,25.399 17.6,41.649 m 0,-118.475 v -1.525 c 0.2,-16.25 6.05,-30.133 17.55,-41.649 11.55,-11.535 25.442,-17.401 41.675,-17.601 h 1.55 c 16.233,0.2 30.108,6.066 41.625,17.601 11.55,11.516 17.416,25.399 17.6,41.649 v 1.525 c -0.184,16.25 -6.05,30.142 -17.6,41.675 -11.517,11.517 -25.392,17.366 -41.625,17.55 h -1.55 c -16.233,-0.184 -30.125,-6.033 -41.675,-17.55 -11.5,-11.533 -17.35,-25.425 -17.55,-41.675 m 240,0 v -1.525 c 0.2,-16.25 6.05,-30.133 17.55,-41.649 11.55,-11.535 25.442,-17.401 41.675,-17.601 h 1.55 c 16.233,0.2 30.108,6.066 41.625,17.601 11.55,11.516 17.416,25.399 17.6,41.649 v 1.525 c -0.184,16.25 -6.05,30.142 -17.6,41.675 -11.517,11.517 -25.392,17.366 -41.625,17.55 h -1.55 c -16.233,-0.184 -30.125,-6.033 -41.675,-17.55 -11.5,-11.533 -17.35,-25.425 -17.55,-41.675 M -59.225,-420 h -1.55 c -16.233,-0.183 -30.125,-6.033 -41.675,-17.55 -11.5,-11.533 -17.35,-25.425 -17.55,-41.675 v -1.525 c 0.2,-16.25 6.05,-30.133 17.55,-41.649 11.55,-11.535 25.442,-17.401 41.675,-17.601 h 1.55 c 16.233,0.2 30.108,6.066 41.625,17.601 C -5.867,-510.684 0,-496.55 0,-480 c 0,16.567 -5.867,30.717 -17.6,42.45 -11.517,11.517 -25.392,17.367 -41.625,17.55 m -120,-120 h -1.55 c -16.233,-0.184 -30.125,-6.033 -41.675,-17.55 -11.5,-11.533 -17.35,-25.425 -17.55,-41.675 v -1.525 c 0.2,-16.25 6.05,-30.133 17.55,-41.649 11.55,-11.535 25.442,-17.401 41.675,-17.601 h 1.55 c 16.233,0.2 30.108,6.066 41.625,17.601 11.55,11.516 17.416,25.399 17.6,41.649 v 1.525 c -0.184,16.25 -6.05,30.142 -17.6,41.675 -11.517,11.517 -25.392,17.366 -41.625,17.55 m 120,-120 h -1.55 c -16.233,-0.184 -30.125,-6.033 -41.675,-17.55 -11.5,-11.533 -17.35,-25.425 -17.55,-41.675 v -1.525 c 0.2,-16.25 6.05,-30.133 17.55,-41.649 11.55,-11.535 25.442,-17.401 41.675,-17.601 h 1.55 c 16.233,0.2 30.108,6.066 41.625,17.601 C -5.867,-750.684 0,-736.55 0,-720 c 0,16.566 -5.867,30.717 -17.6,42.45 -11.517,11.517 -25.392,17.366 -41.625,17.55 M -120,-840.75 v 1.525 c -0.184,16.25 -6.05,30.142 -17.6,41.675 -11.517,11.517 -25.392,17.366 -41.625,17.55 h -1.55 c -16.233,-0.184 -30.125,-6.033 -41.675,-17.55 -11.5,-11.533 -17.35,-25.425 -17.55,-41.675 v -1.525 c 0.2,-16.25 6.05,-30.133 17.55,-41.649 11.55,-11.535 25.442,-17.401 41.675,-17.601 h 1.55 c 16.233,0.2 30.108,6.066 41.625,17.601 11.55,11.516 17.416,25.399 17.6,41.649 M -59.225,-900 h -1.55 c -16.233,-0.184 -30.125,-6.033 -41.675,-17.55 -11.5,-11.533 -17.35,-25.425 -17.55,-41.675 v -1.525 c 0.2,-16.25 6.05,-30.133 17.55,-41.649 11.55,-11.534 25.442,-17.401 41.675,-17.601 h 1.55 c 16.233,0.2 30.108,6.067 41.625,17.601 C -5.867,-990.683 0,-976.55 0,-960 c 0,16.566 -5.867,30.717 -17.6,42.45 -11.517,11.517 -25.392,17.366 -41.625,17.55 M -257.6,-917.55 c -11.517,11.517 -25.392,17.366 -41.625,17.55 h -1.55 c -16.233,-0.184 -30.125,-6.033 -41.675,-17.55 -11.5,-11.533 -17.35,-25.425 -17.55,-41.675 v -1.525 c 0.2,-16.25 6.05,-30.133 17.55,-41.649 11.55,-11.534 25.442,-17.401 41.675,-17.601 h 1.55 c 16.233,0.2 30.108,6.067 41.625,17.601 11.55,11.516 17.416,25.399 17.6,41.649 v 1.525 c -0.184,16.25 -6.05,30.142 -17.6,41.675 M -419.225,-780 h -1.55 c -16.233,-0.184 -30.125,-6.033 -41.675,-17.55 -11.5,-11.533 -17.35,-25.425 -17.55,-41.675 v -1.525 c 0.2,-16.25 6.05,-30.133 17.55,-41.649 11.55,-11.535 25.442,-17.401 41.675,-17.601 h 1.55 c 16.233,0.2 30.108,6.066 41.625,17.601 11.55,11.516 17.416,25.399 17.6,41.649 v 1.525 c -0.184,16.25 -6.05,30.142 -17.6,41.675 -11.517,11.517 -25.392,17.366 -41.625,17.55 M -600,-840.75 v 1.525 c -0.2,16.25 -6.066,30.142 -17.6,41.675 -11.517,11.517 -25.392,17.366 -41.625,17.55 h -1.55 c -16.233,-0.184 -30.125,-6.033 -41.675,-17.55 -11.517,-11.533 -17.366,-25.425 -17.55,-41.675 v -1.525 c 0.184,-16.25 6.033,-30.133 17.55,-41.649 11.55,-11.535 25.442,-17.401 41.675,-17.601 h 1.55 c 16.233,0.2 30.108,6.066 41.625,17.601 11.534,11.516 17.4,25.399 17.6,41.649 m 60.775,-59.25 h -1.55 c -16.233,-0.184 -30.125,-6.033 -41.675,-17.55 -11.5,-11.533 -17.35,-25.425 -17.55,-41.675 v -1.525 c 0.2,-16.25 6.05,-30.133 17.55,-41.649 11.55,-11.534 25.442,-17.401 41.675,-17.601 h 1.55 c 16.233,0.2 30.108,6.067 41.625,17.601 11.55,11.516 17.416,25.399 17.6,41.649 v 1.525 c -0.184,16.25 -6.05,30.142 -17.6,41.675 -11.517,11.517 -25.392,17.366 -41.625,17.55 M -720,-0.75 v 1.525 c -0.2,16.25 -6.066,30.142 -17.6,41.675 C -749.3,54.15 -763.434,60 -780,60 -796.566,60 -810.717,54.15 -822.45,42.45 -833.967,30.917 -839.816,17.025 -840,0.775 V -0.75 c 0.184,-16.25 6.033,-30.125 17.55,-41.625 11.55,-11.55 25.442,-17.425 41.675,-17.625 h 1.55 c 16.233,0.2 30.108,6.075 41.625,17.625 11.534,11.5 17.4,25.375 17.6,41.625 M -899.225,-60 h -1.55 c -16.233,-0.183 -30.125,-6.033 -41.675,-17.55 -11.517,-11.533 -17.366,-25.425 -17.55,-41.675 v -1.525 c 0.184,-16.25 6.033,-30.125 17.55,-41.625 11.55,-11.55 25.442,-17.425 41.675,-17.625 h 1.55 c 16.233,0.2 30.108,6.075 41.625,17.625 11.534,11.5 17.4,25.375 17.6,41.625 v 1.525 c -0.2,16.25 -6.066,30.142 -17.6,41.675 -11.517,11.517 -25.392,17.367 -41.625,17.55 m 0,-240 h -1.55 c -16.233,-0.183 -30.125,-6.033 -41.675,-17.55 -11.517,-11.533 -17.366,-25.425 -17.55,-41.675 v -1.525 c 0.184,-16.25 6.033,-30.133 17.55,-41.65 11.55,-11.533 25.442,-17.4 41.675,-17.6 h 1.55 c 16.233,0.2 30.108,6.067 41.625,17.6 11.534,11.517 17.4,25.4 17.6,41.65 v 1.525 c -0.2,16.25 -6.066,30.142 -17.6,41.675 -11.517,11.517 -25.392,17.367 -41.625,17.55 m 59.225,60.775 v -1.525 c 0.184,-16.25 6.033,-30.125 17.55,-41.625 11.55,-11.55 25.442,-17.425 41.675,-17.625 h 1.55 c 16.233,0.2 30.108,6.075 41.625,17.625 11.534,11.5 17.4,25.375 17.6,41.625 v 1.525 c -0.2,16.25 -6.066,30.142 -17.6,41.675 -11.517,11.517 -25.392,17.367 -41.625,17.55 h -1.55 c -16.233,-0.183 -30.125,-6.033 -41.675,-17.55 -11.517,-11.533 -17.366,-25.425 -17.55,-41.675 M -960,-0.75 v 1.525 c -0.2,16.25 -6.066,30.142 -17.6,41.675 -11.7,11.7 -25.833,17.55 -42.4,17.55 -16.566,0 -30.717,-5.85 -42.45,-17.55 -11.517,-11.533 -17.366,-25.425 -17.55,-41.675 V -0.75 c 0.184,-16.25 6.033,-30.125 17.55,-41.625 11.55,-11.55 25.442,-17.425 41.675,-17.625 h 1.55 c 16.233,0.2 30.108,6.075 41.625,17.625 11.534,11.5 17.4,25.375 17.6,41.625 m -120,-120 v 1.525 c -0.2,16.25 -6.066,30.142 -17.6,41.675 -11.517,11.517 -25.392,17.367 -41.625,17.55 h -1.55 c -16.233,-0.183 -30.125,-6.033 -41.675,-17.55 -11.517,-11.533 -17.366,-25.425 -17.55,-41.675 v -1.525 c 0.184,-16.25 6.033,-30.125 17.55,-41.625 11.55,-11.55 25.442,-17.425 41.675,-17.625 h 1.55 c 16.233,0.2 30.108,6.075 41.625,17.625 11.534,11.5 17.4,25.375 17.6,41.625 m -120,120 v 1.525 c -0.2,16.25 -6.066,30.142 -17.6,41.675 -11.7,11.7 -25.833,17.55 -42.4,17.55 -16.566,0 -30.717,-5.85 -42.45,-17.55 -11.517,-11.533 -17.366,-25.425 -17.55,-41.675 V -0.75 c 0.184,-16.25 6.033,-30.125 17.55,-41.625 11.55,-11.55 25.442,-17.425 41.675,-17.625 h 1.55 c 16.233,0.2 30.108,6.075 41.625,17.625 11.534,11.5 17.4,25.375 17.6,41.625 M -1259.225,-180 h -1.55 c -16.233,-0.183 -30.125,-6.033 -41.675,-17.55 -11.517,-11.533 -17.366,-25.425 -17.55,-41.675 v -1.525 c 0.184,-16.25 6.033,-30.125 17.55,-41.625 11.55,-11.55 25.442,-17.425 41.675,-17.625 h 1.55 c 16.233,0.2 30.108,6.075 41.625,17.625 11.534,11.5 17.4,25.375 17.6,41.625 v 1.525 c -0.2,16.25 -6.066,30.142 -17.6,41.675 -11.517,11.517 -25.392,17.367 -41.625,17.55 m 120,-120 h -1.55 c -16.233,-0.183 -30.125,-6.033 -41.675,-17.55 -11.517,-11.533 -17.366,-25.425 -17.55,-41.675 v -1.525 c 0.184,-16.25 6.033,-30.133 17.55,-41.65 11.55,-11.533 25.442,-17.4 41.675,-17.6 h 1.55 c 16.233,0.2 30.108,6.067 41.625,17.6 11.534,11.517 17.4,25.4 17.6,41.65 v 1.525 c -0.2,16.25 -6.066,30.142 -17.6,41.675 -11.517,11.517 -25.392,17.367 -41.625,17.55 m 120,120 h -1.55 c -16.233,-0.183 -30.125,-6.033 -41.675,-17.55 -11.517,-11.533 -17.366,-25.425 -17.55,-41.675 v -1.525 c 0.184,-16.25 6.033,-30.125 17.55,-41.625 11.55,-11.55 25.442,-17.425 41.675,-17.625 h 1.55 c 16.233,0.2 30.108,6.075 41.625,17.625 11.534,11.5 17.4,25.375 17.6,41.625 v 1.525 c -0.2,16.25 -6.066,30.142 -17.6,41.675 -11.517,11.517 -25.392,17.367 -41.625,17.55 m 0,-240 h -1.55 c -16.233,-0.183 -30.125,-6.033 -41.675,-17.55 -11.517,-11.533 -17.366,-25.425 -17.55,-41.675 v -1.525 c 0.184,-16.25 6.033,-30.133 17.55,-41.649 11.55,-11.535 25.442,-17.401 41.675,-17.601 h 1.55 c 16.233,0.2 30.108,6.066 41.625,17.601 11.534,11.516 17.4,25.399 17.6,41.649 v 1.525 c -0.2,16.25 -6.066,30.142 -17.6,41.675 -11.517,11.517 -25.392,17.367 -41.625,17.55 m -240,0 h -1.55 c -16.233,-0.183 -30.125,-6.033 -41.675,-17.55 -11.517,-11.533 -17.366,-25.425 -17.55,-41.675 v -1.525 c 0.184,-16.25 6.033,-30.133 17.55,-41.649 11.55,-11.535 25.442,-17.401 41.675,-17.601 h 1.55 c 16.233,0.2 30.108,6.066 41.625,17.601 11.534,11.516 17.4,25.399 17.6,41.649 v 1.525 c -0.2,16.25 -6.066,30.142 -17.6,41.675 -11.517,11.517 -25.392,17.367 -41.625,17.55 m 120,-120 h -1.55 c -16.233,-0.184 -30.125,-6.033 -41.675,-17.55 -11.517,-11.533 -17.366,-25.425 -17.55,-41.675 v -1.525 c 0.184,-16.25 6.033,-30.133 17.55,-41.649 11.55,-11.535 25.442,-17.401 41.675,-17.601 h 1.55 c 16.233,0.2 30.108,6.066 41.625,17.601 11.534,11.516 17.4,25.399 17.6,41.649 v 1.525 c -0.2,16.25 -6.066,30.142 -17.6,41.675 -11.517,11.517 -25.392,17.366 -41.625,17.55 m -120,-120 h -1.55 c -16.233,-0.184 -30.125,-6.033 -41.675,-17.55 -11.517,-11.533 -17.366,-25.425 -17.55,-41.675 v -1.525 c 0.184,-16.25 6.033,-30.133 17.55,-41.649 11.55,-11.535 25.442,-17.401 41.675,-17.601 h 1.55 c 16.233,0.2 30.108,6.066 41.625,17.601 11.534,11.516 17.4,25.399 17.6,41.649 v 1.525 c -0.2,16.25 -6.066,30.142 -17.6,41.675 -11.517,11.517 -25.392,17.366 -41.625,17.55 M -960,-599.225 v -1.525 c 0.184,-16.25 6.033,-30.133 17.55,-41.649 11.55,-11.535 25.442,-17.401 41.675,-17.601 h 1.55 c 16.233,0.2 30.108,6.066 41.625,17.601 11.534,11.516 17.4,25.399 17.6,41.649 v 1.525 c -0.2,16.25 -6.066,30.142 -17.6,41.675 -11.517,11.517 -25.392,17.366 -41.625,17.55 h -1.55 c -16.233,-0.184 -30.125,-6.033 -41.675,-17.55 -11.517,-11.533 -17.366,-25.425 -17.55,-41.675 m -120,-120 v -1.525 c 0.184,-16.25 6.033,-30.133 17.55,-41.649 11.55,-11.535 25.442,-17.401 41.675,-17.601 h 1.55 c 16.233,0.2 30.108,6.066 41.625,17.601 11.534,11.516 17.4,25.399 17.6,41.649 v 1.525 c -0.2,16.25 -6.066,30.142 -17.6,41.675 -11.517,11.517 -25.392,17.366 -41.625,17.55 h -1.55 c -16.233,-0.184 -30.125,-6.033 -41.675,-17.55 -11.517,-11.533 -17.366,-25.425 -17.55,-41.675 M -779.225,-420 h -1.55 c -16.233,-0.183 -30.125,-6.033 -41.675,-17.55 -11.517,-11.533 -17.366,-25.425 -17.55,-41.675 v -1.525 c 0.184,-16.25 6.033,-30.133 17.55,-41.649 11.55,-11.535 25.442,-17.401 41.675,-17.601 h 1.55 c 16.233,0.2 30.108,6.066 41.625,17.601 11.534,11.516 17.4,25.399 17.6,41.649 v 1.525 c -0.2,16.25 -6.066,30.142 -17.6,41.675 -11.517,11.517 -25.392,17.367 -41.625,17.55 M -840,-719.225 v -1.525 c 0.184,-16.25 6.033,-30.133 17.55,-41.649 11.55,-11.535 25.442,-17.401 41.675,-17.601 h 1.55 c 16.233,0.2 30.108,6.066 41.625,17.601 11.534,11.516 17.4,25.399 17.6,41.649 v 1.525 c -0.2,16.25 -6.066,30.142 -17.6,41.675 -11.517,11.517 -25.392,17.366 -41.625,17.55 h -1.55 c -16.233,-0.184 -30.125,-6.033 -41.675,-17.55 -11.517,-11.533 -17.366,-25.425 -17.55,-41.675 M -1379.225,-60 h -1.55 c -16.233,-0.183 -30.125,-6.033 -41.675,-17.55 -11.517,-11.533 -17.366,-25.425 -17.55,-41.675 v -1.525 c 0.184,-16.25 6.033,-30.125 17.55,-41.625 11.55,-11.55 25.442,-17.425 41.675,-17.625 h 1.55 c 16.233,0.2 30.108,6.075 41.625,17.625 11.534,11.5 17.4,25.375 17.6,41.625 v 1.525 c -0.2,16.25 -6.066,30.142 -17.6,41.675 -11.517,11.517 -25.392,17.367 -41.625,17.55 M -1440,-0.75 v 1.525 c -0.2,16.25 -6.066,30.142 -17.6,41.675 -11.7,11.7 -25.833,17.55 -42.4,17.55 -16.566,0 -30.717,-5.85 -42.45,-17.55 -11.517,-11.533 -17.366,-25.425 -17.55,-41.675 V -0.75 c 0.184,-16.25 6.033,-30.125 17.55,-41.625 11.55,-11.55 25.442,-17.425 41.675,-17.625 h 1.55 c 16.233,0.2 30.108,6.075 41.625,17.625 11.534,11.5 17.4,25.375 17.6,41.625 m -120,-120 v 1.525 c -0.2,16.25 -6.066,30.142 -17.6,41.675 -11.517,11.517 -25.392,17.367 -41.625,17.55 h -1.55 c -16.233,-0.183 -30.125,-6.033 -41.675,-17.55 -11.517,-11.533 -17.367,-25.425 -17.55,-41.675 v -1.525 c 0.183,-16.25 6.033,-30.125 17.55,-41.625 11.55,-11.55 25.442,-17.425 41.675,-17.625 h 1.55 c 16.233,0.2 30.108,6.075 41.625,17.625 11.534,11.5 17.4,25.375 17.6,41.625 m 60.775,-59.25 h -1.55 c -16.233,-0.183 -30.125,-6.033 -41.675,-17.55 -11.517,-11.533 -17.366,-25.425 -17.55,-41.675 v -1.525 c 0.184,-16.25 6.033,-30.125 17.55,-41.625 11.55,-11.55 25.442,-17.425 41.675,-17.625 h 1.55 c 16.233,0.2 30.108,6.075 41.625,17.625 11.534,11.5 17.4,25.375 17.6,41.625 v 1.525 c -0.2,16.25 -6.066,30.142 -17.6,41.675 -11.517,11.517 -25.392,17.367 -41.625,17.55 m 120,-120 h -1.55 c -16.233,-0.183 -30.125,-6.033 -41.675,-17.55 -11.517,-11.533 -17.366,-25.425 -17.55,-41.675 v -1.525 c 0.184,-16.25 6.033,-30.133 17.55,-41.65 11.55,-11.533 25.442,-17.4 41.675,-17.6 h 1.55 c 16.233,0.2 30.108,6.067 41.625,17.6 11.534,11.517 17.4,25.4 17.6,41.65 v 1.525 c -0.2,16.25 -6.066,30.142 -17.6,41.675 -11.517,11.517 -25.392,17.367 -41.625,17.55 M -1680,-0.75 v 1.525 c -0.2,16.25 -6.067,30.142 -17.6,41.675 -11.7,11.7 -25.833,17.55 -42.4,17.55 -16.567,0 -30.717,-5.85 -42.45,-17.55 -11.517,-11.533 -17.367,-25.425 -17.55,-41.675 V -0.75 c 0.183,-16.25 6.033,-30.125 17.55,-41.625 11.55,-11.55 25.442,-17.425 41.675,-17.625 h 1.55 c 16.233,0.2 30.108,6.075 41.625,17.625 11.533,11.5 17.4,25.375 17.6,41.625 M -1859.225,-60 h -1.55 c -16.233,-0.183 -30.125,-6.033 -41.675,-17.55 -11.7,-11.733 -17.55,-25.883 -17.55,-42.45 0,-16.55 5.85,-30.675 17.55,-42.375 11.55,-11.55 25.442,-17.425 41.675,-17.625 h 1.55 c 16.233,0.2 30.108,6.075 41.625,17.625 11.533,11.5 17.4,25.375 17.6,41.625 v 1.525 c -0.2,16.25 -6.067,30.142 -17.6,41.675 -11.517,11.517 -25.392,17.367 -41.625,17.55 m 0,-240 h -1.55 c -16.233,-0.183 -30.125,-6.033 -41.675,-17.55 -11.7,-11.733 -17.55,-25.883 -17.55,-42.45 0,-16.55 5.85,-30.683 17.55,-42.4 11.55,-11.533 25.442,-17.4 41.675,-17.6 h 1.55 c 16.233,0.2 30.108,6.067 41.625,17.6 11.533,11.517 17.4,25.4 17.6,41.65 v 1.525 c -0.2,16.25 -6.067,30.142 -17.6,41.675 -11.517,11.517 -25.392,17.367 -41.625,17.55 m 59.225,60.775 v -1.525 c 0.183,-16.25 6.033,-30.125 17.55,-41.625 11.55,-11.55 25.442,-17.425 41.675,-17.625 h 1.55 c 16.233,0.2 30.108,6.075 41.625,17.625 11.533,11.5 17.4,25.375 17.6,41.625 v 1.525 c -0.2,16.25 -6.067,30.142 -17.6,41.675 -11.517,11.517 -25.392,17.367 -41.625,17.55 h -1.55 c -16.233,-0.183 -30.125,-6.033 -41.675,-17.55 -11.517,-11.533 -17.367,-25.425 -17.55,-41.675 M -1619.225,-300 h -1.55 c -16.233,-0.183 -30.125,-6.033 -41.675,-17.55 -11.517,-11.533 -17.367,-25.425 -17.55,-41.675 v -1.525 c 0.183,-16.25 6.033,-30.133 17.55,-41.65 11.55,-11.533 25.442,-17.4 41.675,-17.6 h 1.55 c 16.233,0.2 30.108,6.067 41.625,17.6 11.534,11.517 17.4,25.4 17.6,41.65 v 1.525 c -0.2,16.25 -6.066,30.142 -17.6,41.675 -11.517,11.517 -25.392,17.367 -41.625,17.55 m -120,-120 h -1.55 c -16.233,-0.183 -30.125,-6.033 -41.675,-17.55 -11.517,-11.533 -17.367,-25.425 -17.55,-41.675 v -1.525 c 0.183,-16.25 6.033,-30.133 17.55,-41.649 11.55,-11.535 25.442,-17.401 41.675,-17.601 h 1.55 c 16.233,0.2 30.108,6.066 41.625,17.601 11.533,11.516 17.4,25.399 17.6,41.649 v 1.525 c -0.2,16.25 -6.067,30.142 -17.6,41.675 -11.517,11.517 -25.392,17.367 -41.625,17.55 M -1800,-600.75 v 1.525 c -0.2,16.25 -6.067,30.142 -17.6,41.675 -8.862,8.863 -19.12,14.37 -30.775,16.526 -3.491,0.64 -7.108,0.982 -10.85,1.024 h -1.55 c -16.233,-0.184 -30.125,-6.033 -41.675,-17.55 -11.7,-11.733 -17.55,-25.884 -17.55,-42.45 0,-16.55 5.85,-30.684 17.55,-42.399 11.55,-11.535 25.442,-17.401 41.675,-17.601 h 1.55 c 3.742,0.046 7.359,0.396 10.85,1.05 11.655,2.159 21.913,7.676 30.775,16.551 11.533,11.516 17.4,25.399 17.6,41.649 m 0,-118.475 v -1.525 c 0.183,-16.25 6.033,-30.133 17.55,-41.649 11.55,-11.535 25.442,-17.401 41.675,-17.601 h 1.55 c 16.233,0.2 30.108,6.066 41.625,17.601 11.533,11.516 17.4,25.399 17.6,41.649 v 1.525 c -0.2,16.25 -6.067,30.142 -17.6,41.675 -11.517,11.517 -25.392,17.366 -41.625,17.55 h -1.55 c -16.233,-0.184 -30.125,-6.033 -41.675,-17.55 -11.517,-11.533 -17.367,-25.425 -17.55,-41.675 M -1619.225,-540 h -1.55 c -16.233,-0.184 -30.125,-6.033 -41.675,-17.55 -11.517,-11.533 -17.367,-25.425 -17.55,-41.675 v -1.525 c 0.183,-16.25 6.033,-30.133 17.55,-41.649 11.55,-11.535 25.442,-17.401 41.675,-17.601 h 1.55 c 16.233,0.2 30.108,6.066 41.625,17.601 11.534,11.516 17.4,25.399 17.6,41.649 v 1.525 c -0.2,16.25 -6.066,30.142 -17.6,41.675 -11.517,11.517 -25.392,17.366 -41.625,17.55 m 120,120 h -1.55 c -16.233,-0.183 -30.125,-6.033 -41.675,-17.55 -11.517,-11.533 -17.366,-25.425 -17.55,-41.675 v -1.525 c 0.184,-16.25 6.033,-30.133 17.55,-41.649 11.55,-11.535 25.442,-17.401 41.675,-17.601 h 1.55 c 16.233,0.2 30.108,6.066 41.625,17.601 11.534,11.516 17.4,25.399 17.6,41.649 v 1.525 c -0.2,16.25 -6.066,30.142 -17.6,41.675 -11.517,11.517 -25.392,17.367 -41.625,17.55 M -1440,-599.225 v -1.525 c 0.184,-16.25 6.033,-30.133 17.55,-41.649 11.55,-11.535 25.442,-17.401 41.675,-17.601 h 1.55 c 16.233,0.2 30.108,6.066 41.625,17.601 11.534,11.516 17.4,25.399 17.6,41.649 v 1.525 c -0.2,16.25 -6.066,30.142 -17.6,41.675 -11.517,11.517 -25.392,17.366 -41.625,17.55 h -1.55 c -16.233,-0.184 -30.125,-6.033 -41.675,-17.55 -11.517,-11.533 -17.366,-25.425 -17.55,-41.675 m -120,-120 v -1.525 c 0.184,-16.25 6.033,-30.133 17.55,-41.649 11.55,-11.535 25.442,-17.401 41.675,-17.601 h 1.55 c 16.233,0.2 30.108,6.066 41.625,17.601 11.534,11.516 17.4,25.399 17.6,41.649 v 1.525 c -0.2,16.25 -6.066,30.142 -17.6,41.675 -11.517,11.517 -25.392,17.366 -41.625,17.55 h -1.55 c -16.233,-0.184 -30.125,-6.033 -41.675,-17.55 -11.517,-11.533 -17.366,-25.425 -17.55,-41.675 M -1379.225,-780 h -1.55 c -16.233,-0.184 -30.125,-6.033 -41.675,-17.55 -11.517,-11.533 -17.366,-25.425 -17.55,-41.675 v -1.525 c 0.184,-16.25 6.033,-30.133 17.55,-41.649 11.55,-11.535 25.442,-17.401 41.675,-17.601 h 1.55 c 16.233,0.2 30.108,6.066 41.625,17.601 11.534,11.516 17.4,25.399 17.6,41.649 v 1.525 c -0.2,16.25 -6.066,30.142 -17.6,41.675 -11.517,11.517 -25.392,17.366 -41.625,17.55 M -1560,-840.75 v 1.525 c -0.2,16.25 -6.066,30.142 -17.6,41.675 -11.517,11.517 -25.392,17.366 -41.625,17.55 h -1.55 c -16.233,-0.184 -30.125,-6.033 -41.675,-17.55 -11.517,-11.533 -17.367,-25.425 -17.55,-41.675 v -1.525 c 0.183,-16.25 6.033,-30.133 17.55,-41.649 11.55,-11.535 25.442,-17.401 41.675,-17.601 h 1.55 c 16.233,0.2 30.108,6.066 41.625,17.601 11.534,11.516 17.4,25.399 17.6,41.649 m 60.775,-59.25 h -1.55 c -16.233,-0.184 -30.125,-6.033 -41.675,-17.55 -11.517,-11.533 -17.366,-25.425 -17.55,-41.675 v -1.525 c 0.184,-16.25 6.033,-30.133 17.55,-41.649 11.55,-11.534 25.442,-17.401 41.675,-17.601 h 1.55 c 16.233,0.2 30.108,6.067 41.625,17.601 11.534,11.516 17.4,25.399 17.6,41.649 v 1.525 c -0.2,16.25 -6.066,30.142 -17.6,41.675 -11.517,11.517 -25.392,17.366 -41.625,17.55 M -1320,-959.225 v -1.525 c 0.184,-16.25 6.033,-30.133 17.55,-41.649 11.55,-11.534 25.442,-17.401 41.675,-17.601 h 1.55 c 16.233,0.2 30.108,6.067 41.625,17.601 11.534,11.516 17.4,25.399 17.6,41.649 v 1.525 c -0.2,16.25 -6.066,30.142 -17.6,41.675 -11.517,11.517 -25.392,17.366 -41.625,17.55 h -1.55 c -16.233,-0.184 -30.125,-6.033 -41.675,-17.55 -11.517,-11.533 -17.366,-25.425 -17.55,-41.675 M -1739.225,-900 h -1.55 c -16.233,-0.184 -30.125,-6.033 -41.675,-17.55 -11.517,-11.533 -17.367,-25.425 -17.55,-41.675 v -1.525 c 0.183,-16.25 6.033,-30.133 17.55,-41.649 11.55,-11.534 25.442,-17.401 41.675,-17.601 h 1.55 c 16.233,0.2 30.108,6.067 41.625,17.601 11.533,11.516 17.4,25.399 17.6,41.649 v 1.525 c -0.2,16.25 -6.067,30.142 -17.6,41.675 -11.517,11.517 -25.392,17.366 -41.625,17.55 m -120,120 h -1.55 c -16.233,-0.184 -30.125,-6.033 -41.675,-17.55 -11.7,-11.733 -17.55,-25.884 -17.55,-42.45 0,-16.55 5.85,-30.684 17.55,-42.399 11.55,-11.535 25.442,-17.401 41.675,-17.601 h 1.55 c 16.233,0.2 30.108,6.066 41.625,17.601 11.533,11.516 17.4,25.399 17.6,41.649 v 1.525 c -0.2,16.25 -6.067,30.142 -17.6,41.675 -11.517,11.517 -25.392,17.366 -41.625,17.55 m 1080,-120 h -1.55 c -16.233,-0.184 -30.125,-6.033 -41.675,-17.55 -11.517,-11.533 -17.366,-25.425 -17.55,-41.675 v -1.525 c 0.184,-16.25 6.033,-30.133 17.55,-41.649 11.55,-11.534 25.442,-17.401 41.675,-17.601 h 1.55 c 16.233,0.2 30.108,6.067 41.625,17.601 11.534,11.516 17.4,25.399 17.6,41.649 v 1.525 c -0.2,16.25 -6.066,30.142 -17.6,41.675 -11.517,11.517 -25.392,17.366 -41.625,17.55 m -120,120 h -1.55 c -16.233,-0.184 -30.125,-6.033 -41.675,-17.55 -11.517,-11.533 -17.366,-25.425 -17.55,-41.675 v -1.525 c 0.184,-16.25 6.033,-30.133 17.55,-41.649 11.55,-11.535 25.442,-17.401 41.675,-17.601 h 1.55 c 16.233,0.2 30.108,6.066 41.625,17.601 11.534,11.516 17.4,25.399 17.6,41.649 v 1.525 c -0.2,16.25 -6.066,30.142 -17.6,41.675 -11.517,11.517 -25.392,17.366 -41.625,17.55 M -1080,-840.75 v 1.525 c -0.2,16.25 -6.066,30.142 -17.6,41.675 -11.517,11.517 -25.392,17.366 -41.625,17.55 h -1.55 c -16.233,-0.184 -30.125,-6.033 -41.675,-17.55 -11.517,-11.533 -17.366,-25.425 -17.55,-41.675 v -1.525 c 0.184,-16.25 6.033,-30.133 17.55,-41.649 11.55,-11.535 25.442,-17.401 41.675,-17.601 h 1.55 c 16.233,0.2 30.108,6.066 41.625,17.601 11.534,11.516 17.4,25.399 17.6,41.649 m 60.775,-59.25 h -1.55 c -16.233,-0.184 -30.125,-6.033 -41.675,-17.55 -11.517,-11.533 -17.366,-25.425 -17.55,-41.675 v -1.525 c 0.184,-16.25 6.033,-30.133 17.55,-41.649 11.55,-11.534 25.442,-17.401 41.675,-17.601 h 1.55 c 16.233,0.2 30.108,6.067 41.625,17.601 11.534,11.516 17.4,25.399 17.6,41.649 v 1.525 c -0.2,16.25 -6.066,30.142 -17.6,41.675 -11.517,11.517 -25.392,17.366 -41.625,17.55"
       style="fill:#70f8f8;fill-opacity:1;fill-rule:nonzero;stroke:none"
       transform="matrix(1.3333333,0,0,-1.3333333,2560,80.000267)"
       clip-path="url(#clipPath5)" />
    <path
       id="path6"
       d="m 0,0 -0.125,0.2 -25.024,-7.125 -12,-15.35 9.099,-13.575 z m -4.024,-97.375 0.174,0.225 -22.2,33.125 -33.974,12.55 -36.226,-46.225 -0.95,-26.025 0.25,-0.075 36.926,47.125 56,-20.7 m -147.351,54.325 -0.024,-0.25 55.474,-20.25 0.901,24.875 -18.151,6.625 -38.2,-11 m -121.524,393.7 -0.125,0.2 -25.026,-7.125 -12,-15.35 9.1,-13.575 28.051,35.85 m -4.026,-97.375 0.175,0.225 -22.2,33.125 -33.975,12.55 -36.224,-46.225 -0.951,-26.025 0.25,-0.075 36.925,47.125 56,-20.7 m -91,58.7 -18.15,6.625 -38.199,-11 -0.026,-0.25 55.475,-20.25 0.9,24.875 m -241.05,-919.775 -25.025,-7.125 -12,-15.35 9.101,-13.575 28.049,35.85 -0.125,0.2 m -25.924,-64.225 -33.976,12.55 -36.225,-46.225 -0.95,-26.025 0.25,-0.075 36.925,47.125 56,-20.7 0.175,0.225 -22.199,33.125 m -125.326,20.975 -0.025,-0.25 55.476,-20.25 0.899,24.875 -18.149,6.625 -38.201,-11 m -167.4,1098.475 -0.125,0.2 -25.025,-7.125 -12,-15.35 9.1,-13.575 28.05,35.85 m -4.025,-97.375 0.175,0.225 -22.2,33.125 -33.975,12.55 -36.225,-46.225 -0.95,-26.025 0.25,-0.075 36.925,47.125 56,-20.7 m -91,58.7 -18.15,6.625 -38.2,-11 -0.025,-0.25 55.475,-20.25 0.9,24.875 m -798.175,-672.775 -0.125,0.2 -25.025,-7.125 -12,-15.35 9.1,-13.575 28.05,35.85 m -4.025,-97.375 0.175,0.225 -22.2,33.125 -33.975,12.55 -36.225,-46.225 -0.95,-26.025 0.25,-0.075 36.925,47.125 56,-20.7 m -91.9,33.825 0.9,24.875 -18.15,6.625 -38.2,-11 -0.025,-0.25 55.475,-20.25 m 262.825,-233.375 -0.125,0.2 -25.025,-7.125 -12,-15.35 9.1,-13.575 28.05,35.85 m -95.025,-38.675 -18.15,6.625 -38.2,-11 -0.025,-0.25 55.475,-20.25 0.9,24.875 m 91,-58.7 0.175,0.225 -22.2,33.125 -33.975,12.55 -36.225,-46.225 -0.95,-26.025 0.25,-0.075 36.925,47.125 56,-20.7 m 288.725,983.125 -12.025,-15.35 9.1,-13.575 28.05,35.85 -0.125,0.2 -25,-7.125 m -126.25,-36.125 -0.025,-0.25 55.475,-20.25 0.9,24.875 -18.125,6.625 -38.225,-11 m 125.325,-21 -33.975,12.575 -36.225,-46.25 -0.95,-26 0.25,-0.075 36.925,47.125 56,-20.7 0.175,0.225 z"
       style="fill:#10c0b8;fill-opacity:1;fill-rule:nonzero;stroke:none"
       transform="matrix(1.3333333,0,0,-1.3333333,2501.5664,559.26653)"
       clip-path="url(#clipPath7)" />
    <path
       id="path8"
       d="M 0,0 -0.125,0.2 -57.774,-16.225 -90.95,33.3 -91.2,33.225 -93.524,-26.4 l -57.851,-16.65 -0.024,-0.25 38.224,-13.95 18.151,-6.625 -0.901,-24.875 -1.275,-34.975 0.25,-0.075 0.7,0.9 36.226,46.225 33.974,-12.55 22.026,-8.15 0.174,0.225 -24.2,36.1 -9.099,13.575 12,15.35 z m -608.85,-608 -0.125,0.2 -57.65,-16.425 -33.175,49.525 -0.25,-0.074 -2.325,-59.625 -57.85,-16.651 -0.025,-0.25 38.226,-13.95 18.149,-6.625 -0.899,-24.875 -1.276,-34.975 0.25,-0.075 0.7,0.901 36.225,46.224 33.976,-12.55 22.024,-8.15 0.175,0.226 -24.199,36.099 -9.101,13.575 12,15.35 25.15,32.125 m -1302.925,377.275 -0.25,-0.075 -2.325,-59.625 -57.85,-16.65 -0.025,-0.25 38.225,-13.949 18.15,-6.625 -0.9,-24.875 -1.275,-34.976 0.25,-0.075 0.7,0.9 36.225,46.225 33.975,-12.55 22.025,-8.149 0.175,0.224 -24.2,36.1 -9.1,13.575 12,15.351 25.15,32.125 -0.125,0.199 -57.65,-16.425 -33.175,49.525 m 476.725,595.75 -0.25,-0.075 -2.325,-59.625 -57.85,-16.65 -0.025,-0.25 38.25,-13.95 18.125,-6.625 -0.9,-24.875 -1.275,-34.975 0.25,-0.075 0.7,0.875 36.225,46.25 33.975,-12.575 22.025,-8.125 0.175,0.225 -24.2,36.1 -9.1,13.575 12.025,15.35 25.125,32.125 -0.125,0.2 -57.65,-16.425 z"
       style="fill:#f85000;fill-opacity:1;fill-rule:nonzero;stroke:none"
       transform="matrix(1.3333333,0,0,-1.3333333,2501.5664,525.66693)"
       clip-path="url(#clipPath9)" />
    <path
       id="path10"
       d="M 0,0 -0.125,0.2 -57.775,-16.225 -90.95,33.3 -91.2,33.225 -93.525,-26.4 l -57.85,-16.65 -0.025,-0.25 38.224,-13.95 18.151,-6.625 -0.901,-24.875 -1.274,-34.975 0.25,-0.075 0.7,0.9 36.225,46.225 33.974,-12.55 22.026,-8.15 0.174,0.225 -24.2,36.1 -9.099,13.575 12,15.35 z m -654.726,96.775 -0.125,0.2 -57.649,-16.425 -33.175,49.525 -0.25,-0.075 -2.325,-59.625 -57.851,-16.65 -0.024,-0.25 38.225,-13.95 18.15,-6.625 -0.9,-24.875 -1.275,-34.975 0.25,-0.075 0.699,0.9 36.226,46.225 33.975,-12.55 22.025,-8.15 0.175,0.225 -24.2,36.1 -9.1,13.575 12,15.35 25.149,32.125 m -726.299,-1008.376 -0.125,0.201 -57.65,-16.425 -33.176,49.525 -0.25,-0.075 -2.324,-59.625 -57.85,-16.65 -0.025,-0.25 38.225,-13.951 18.15,-6.625 -0.9,-24.875 -1.276,-34.974 0.25,-0.075 0.701,0.9 36.225,46.225 33.975,-12.55 22.025,-8.151 0.175,0.226 -24.2,36.1 -9.1,13.575 12,15.349 z"
       style="fill:#f8d008;fill-opacity:1;fill-rule:nonzero;stroke:none"
       transform="matrix(1.3333333,0,0,-1.3333333,2137.7005,58.1332)"
       clip-path="url(#clipPath11)" />
    <path
       id="path12"
       d="m 0,0 -12.45,-3.425 -7.15,10.35 h -0.049 l -0.5,-12.5 -12.5,-3.475 V -9.1 l 12.174,-4.3 -0.475,-12.55 h 0.051 l 7.974,9.85 12.075,-4.325 0.05,0.05 -7.2,10.4 8.025,9.925 z M 1.325,-607.95 1.175,-608 -0.149,-641.85 -33,-651.3 v -0.15 l 32,-11.675 -1.225,-33.975 0.125,-0.049 20.975,26.75 31.775,-11.75 0.1,0.149 -18.899,28.175 21.099,26.95 -0.075,0.125 -32.725,-9.325 -18.825,28.125 m 190.25,-378.025 -0.15,-0.049 -1.324,-33.851 -32.851,-9.45 v -0.15 l 32,-11.674 -1.225,-33.976 0.125,-0.05 20.975,26.75 31.775,-11.75 0.1,0.151 -18.899,28.174 21.099,26.951 -0.075,0.125 -32.725,-9.326 -18.825,28.125 m -297.25,-55.424 -7.15,10.349 h -0.05 l -0.5,-12.5 -12.5,-3.474 v -0.051 l 12.175,-4.3 -0.475,-12.55 h 0.05 l 7.976,9.85 12.074,-4.324 0.051,0.049 -7.201,10.4 8.025,9.926 -0.025,0.049 -12.45,-3.424 m -177.3,1067.774 -0.075,0.125 -32.724,-9.325 -18.826,28.125 -0.15,-0.05 -1.325,-33.85 -32.85,-9.45 V 1.8 l 32,-11.675 -1.224,-33.975 0.125,-0.05 20.974,26.75 31.776,-11.75 0.099,0.15 -18.9,28.175 21.1,26.95 M -445.1,-0.2 l -12.45,-3.425 -7.15,10.35 h -0.05 l -0.5,-12.5 -12.5,-3.475 V -9.3 l 12.175,-4.3 -0.475,-12.55 h 0.05 l 7.976,9.85 12.074,-4.325 0.051,0.05 -7.201,10.4 8.025,9.925 -0.025,0.05 m -441.375,-107.975 -0.15,-0.05 -1.325,-33.85 -32.85,-9.45 v -0.15 l 32,-11.675 -1.225,-33.975 0.125,-0.05 20.975,26.75 31.775,-11.75 0.1,0.15 -18.9,28.175 21.1,26.95 -0.075,0.125 -32.725,-9.325 -18.825,28.125 m -314.3,-122.95 v -0.05 l 12.175,-4.3 -0.475,-12.55 h 0.05 l 7.975,9.85 12.075,-4.325 0.05,0.05 -7.2,10.4 8.025,9.925 -0.025,0.05 -12.45,-3.425 -7.15,10.35 h -0.05 l -0.5,-12.5 -12.5,-3.475 m -167.775,-257.825 -0.15,-0.05 -1.325,-33.85 -32.85,-9.45 v -0.15 l 32,-11.675 -1.225,-33.975 0.125,-0.049 20.975,26.749 31.775,-11.749 0.1,0.149 -18.9,28.175 21.1,26.95 -0.075,0.125 -32.725,-9.325 -18.825,28.125 m -61.5,-80.1 -0.025,0.05 -12.45,-3.425 -7.15,10.35 h -0.05 l -0.5,-12.5 -12.5,-3.475 v -0.05 l 12.175,-4.299 -0.475,-12.551 h 0.05 l 7.975,9.85 12.075,-4.325 0.05,0.05 -7.2,10.4 8.025,9.925 m -113.775,-348.075 h -0.05 l -0.5,-12.5 -12.5,-3.475 v -0.049 l 12.175,-4.301 -0.475,-12.55 h 0.05 l 7.975,9.851 12.075,-4.326 0.05,0.05 -7.2,10.401 8.025,9.924 -0.025,0.05 -12.45,-3.425 -7.15,10.35 m 715.2,-131.95 -0.15,-0.05 -1.325,-33.85 -32.85,-9.45 v -0.15 l 32,-11.675 -1.225,-33.975 0.125,-0.049 20.975,26.75 31.775,-11.75 0.1,0.149 -18.9,28.175 21.1,26.95 -0.075,0.125 -32.725,-9.325 z"
       style="fill:#f85000;fill-opacity:1;fill-rule:nonzero;stroke:none"
       transform="matrix(1.3333333,0,0,-1.3333333,2111.2331,-22.1664)"
       clip-path="url(#clipPath13)" />
    <path
       id="path14"
       d="m 0,0 -0.15,-0.05 -1.325,-33.85 -32.85,-9.45 v -0.15 l 32,-11.675 -1.225,-33.975 0.125,-0.05 20.975,26.75 31.775,-11.75 0.1,0.15 -18.9,28.175 21.1,26.95 -0.075,0.125 -32.725,-9.325 z m 69.9,-498.225 12.175,-4.3 -0.475,-12.55 h 0.05 l 7.975,9.85 12.075,-4.325 0.05,0.05 -7.2,10.4 8.025,9.925 -0.025,0.05 -12.45,-3.425 -7.15,10.35 H 82.9 l -0.5,-12.5 -12.5,-3.475 v -0.05 m -402.85,-336.05 -0.15,-0.05 -1.325,-33.85 -32.85,-9.45 v -0.15 l 32,-11.675 -1.225,-33.975 0.125,-0.05 20.975,26.75 31.775,-11.75 0.1,0.15 -18.9,28.175 21.1,26.95 -0.075,0.125 -32.725,-9.325 -18.825,28.125 m -486.525,836.2 -0.025,0.05 -12.45,-3.425 -7.15,10.35 h -0.05 l -0.5,-12.5 -12.5,-3.475 v -0.05 l 12.175,-4.3 -0.475,-12.55 h 0.05 l 7.975,9.85 12.075,-4.325 0.05,0.05 -7.2,10.4 8.025,9.925 m -884.575,58.2 -0.15,-0.05 -1.325,-33.85 -32.85,-9.45 v -0.15 l 32,-11.675 -1.225,-33.975 0.125,-0.05 20.975,26.75 31.775,-11.75 0.1,0.15 -18.9,28.175 21.1,26.95 -0.075,0.125 -32.725,-9.325 -18.825,28.125 m 64.1,-580.675 -7.15,10.35 h -0.05 l -0.5,-12.5 -12.5,-3.475 v -0.05 l 12.175,-4.3 -0.475,-12.55 h 0.05 l 7.975,9.85 12.075,-4.325 0.05,0.05 -7.2,10.4 8.025,9.925 -0.025,0.05 -12.45,-3.425 m 198.875,-226.65 v -0.05 l 12.175,-4.3 -0.475,-12.55 h 0.05 l 7.975,9.85 12.075,-4.325 0.05,0.05 -7.2,10.4 8.025,9.925 -0.025,0.05 -12.45,-3.425 -7.15,10.35 h -0.05 l -0.5,-12.5 -12.5,-3.475 m 27.85,-69.3 v -0.15 l 32,-11.675 -1.225,-33.975 0.125,-0.05 20.975,26.75 31.775,-11.75 0.1,0.15 -18.9,28.175 21.1,26.95 -0.075,0.125 -32.725,-9.325 -18.825,28.125 -0.15,-0.05 -1.325,-33.85 -32.85,-9.45 m 262.2,-139.625 -0.5,-12.5 -12.5,-3.475 v -0.05 l 12.175,-4.3 -0.475,-12.55 h 0.05 l 7.975,9.85 12.075,-4.325 0.05,0.05 -7.2,10.4 8.025,9.925 -0.025,0.05 -12.45,-3.425 -7.15,10.35 h -0.05 m 355.15,-4.175 -0.15,-0.05 -1.325,-33.85 -32.85,-9.45 v -0.15 l 32,-11.675 -1.225,-33.975 0.125,-0.05 20.975,26.75 31.775,-11.75 0.1,0.15 -18.9,28.175 21.1,26.95 -0.075,0.125 -32.725,-9.325 -18.825,28.125 m 268.925,12.2 H -527 l -0.5,-12.5 -12.5,-3.475 v -0.05 l 12.175,-4.3 -0.475,-12.55 h 0.05 l 7.975,9.85 12.075,-4.325 0.05,0.05 -7.2,10.4 8.025,9.925 -0.025,0.05 -12.45,-3.425 z"
       style="fill:#f8d008;fill-opacity:1;fill-rule:nonzero;stroke:none"
       transform="matrix(1.3333333,0,0,-1.3333333,2433,100.3668)"
       clip-path="url(#clipPath15)" />
    <path
       id="path16"
       d="m 0,0 c -33.44,0 -66.487,-7.01 -96.791,-20.414 -39.247,26.367 -85.836,40.685 -133.436,40.685 -95.821,0 -181.922,-57.806 -219.388,-143.927 -30.684,4.143 -61.82,2.267 -91.375,-5.294 -44.724,45.153 -105.366,70.636 -169.723,70.636 -131.832,0 -239.083,-107.251 -239.083,-239.083 0,-131.831 107.251,-239.084 239.083,-239.084 20.191,0 40.098,2.499 59.436,7.447 44.758,-45.193 105.421,-70.695 169.78,-70.695 95.822,0 181.925,57.808 219.388,143.927 43.867,-5.924 88.768,0.585 128.732,18.26 39.249,-26.367 85.841,-40.685 133.436,-40.685 131.83,0 239.083,107.253 239.083,239.084 C 239.142,-107.279 131.863,0 0,0"
       style="fill:#00b3f0;fill-opacity:1;fill-rule:nonzero;stroke:none"
       transform="matrix(1.3333333,0,0,-1.3333333,1753.7864,333.84467)"
       clip-path="url(#clipPath17)" />
    <path
       id="path18"
       d="m 0,0 c -34.344,0 -68.231,-8.012 -98.668,-23.247 -37.869,28.135 -84.171,43.518 -131.559,43.518 -93.271,0 -176.554,-59.366 -207.679,-146.144 -14.421,2.903 -29.046,4.37 -43.65,4.37 -22.263,0 -44.148,-3.291 -65.21,-9.796 -41.828,46.522 -100.958,72.985 -163.947,72.985 -121.605,0 -220.537,-98.933 -220.537,-220.537 0,-121.605 98.932,-220.537 220.537,-220.537 22.266,0 44.151,3.291 65.212,9.795 41.866,-46.562 101.016,-73.043 164.004,-73.043 93.272,0 176.556,59.363 207.68,146.141 14.42,-2.902 29.045,-4.367 43.649,-4.367 34.347,0 68.229,8.009 98.668,23.244 37.874,-28.134 84.173,-43.516 131.559,-43.516 121.603,0 220.536,98.932 220.536,220.537 C 220.595,-98.959 121.637,0 0,0"
       style="fill:#ffffff;fill-opacity:1;fill-rule:nonzero;stroke:none"
       transform="matrix(1.3333333,0,0,-1.3333333,1753.7864,358.57253)"
       clip-path="url(#clipPath19)" />
    <path
       id="path20"
       d="m 0,0 c -36.439,0 -70.679,-9.511 -100.341,-26.274 -35.31,29.068 -80.547,46.545 -129.886,46.545 -93.743,0 -172.743,-63.13 -196.877,-149.146 -17.358,4.756 -35.607,7.372 -54.451,7.372 -24.729,0 -48.447,-4.399 -70.382,-12.424 -37.45,46.129 -94.694,75.613 -158.775,75.613 -112.884,0 -204.428,-91.544 -204.428,-204.428 0,-112.884 91.544,-204.428 204.428,-204.428 24.729,0 48.447,4.399 70.382,12.424 37.509,-46.188 94.694,-75.672 158.834,-75.672 93.743,0 172.744,63.129 196.879,149.145 17.357,-4.756 35.606,-7.372 54.45,-7.372 36.439,0 70.679,9.511 100.342,26.275 35.309,-29.068 80.546,-46.545 129.885,-46.545 112.883,0 204.427,91.544 204.427,204.428 C 204.487,-91.603 112.943,0 0,0"
       style="fill:#130c0e;fill-opacity:1;fill-rule:nonzero;stroke:none"
       transform="matrix(1.3333333,0,0,-1.3333333,1753.7852,380.05227)"
       clip-path="url(#clipPath21)" />
    <path
       id="path22"
       d="m 0,0 c 0,0 -4.83,-41.167 -57.541,-94.338 l -26.988,22.41 c 27.009,21.873 58.136,71.855 58.136,116.392 v 1.257 c 0,5.35 -4.138,5.344 -9.294,4.342 l -5.21,-1.012 V 64.905 L 16.942,76.147 V 52.887 C 16.942,7.402 42.035,0.089 75.376,-0.238 L 58.791,-26.037 C 8.128,-21.492 0,0 0,0 M 161.985,63.665 V 34.697 l -32.931,-6.402 v -54.4 l -43.99,-8.551 V 90.689 c 0,5.644 -4.633,5.587 -9.914,4.561 l -5.303,-1.031 v 16.727 l 59.207,11.509 V 57.263 Z M 45.653,-118.863 c -6.004,0.118 -18.249,0.359 -18.249,19.186 0,19.513 15.579,33.509 32.516,33.511 17.384,0.002 18.606,-11.778 18.606,-18.949 0,-17.578 -15.15,-34.097 -32.873,-33.748 m 43.99,77.593 c -16.751,4.199 -46.527,4.832 -76.505,-15.217 -25.856,-17.293 -34.966,-47.705 -25.784,-68.605 14.072,-32.031 70.488,-27.867 106.092,-4.103 19.896,13.279 29.901,29.454 29.901,48.184 0,16.721 -8.725,33.479 -33.704,39.741"
       style="fill:#faa61a;fill-opacity:1;fill-rule:nonzero;stroke:none"
       transform="matrix(1.3333333,0,0,-1.3333333,1712.4909,632.88693)"
       clip-path="url(#clipPath23)" />
    <path
       id="path24"
       d="m 0,0 v -16.399 l 4.411,0.857 c 4.391,0.854 8.317,1.435 8.317,-4.209 v -208.846 l 44.344,8.619 V 11.094 Z m -51.948,-52.643 v -16.399 l 4.411,0.857 c 4.391,0.854 8.411,1.635 8.411,-4.009 v -47.791 l -37.194,-7.23 v -25.71 l 37.194,7.23 v -141.624 l 40.797,7.929 v 237.17 z m 5.766,-136.186 -19.022,-25.383 c -37.161,12.13 -47.198,30.614 -47.198,30.614 0,0 -14.074,-26.151 -43.573,-53.202 l -24.609,20.508 c 0,0 43.479,40.597 43.479,81.146 v 30.865 c 0,5.645 -4.611,5.498 -9.767,4.495 l -5.18,-1.006 v 17.833 l 56.948,11.069 v -56.782 c 0,-54.368 48.922,-60.157 48.922,-60.157"
       style="fill:#f15a22;fill-opacity:1;fill-rule:nonzero;stroke:none"
       transform="matrix(1.3333333,0,0,-1.3333333,1503.7956,450.4664)"
       clip-path="url(#clipPath25)" />
    <path
       id="path26"
       d="M 0,0 V -26.221 L 140.407,1.071 V -24.478 L -22.314,-56.107 c -13.133,-2.553 -23.779,6.024 -23.779,19.156 v 30.439 c 0,5.267 -0.484,6.859 -12.801,4.465 l -2.333,-0.454 v 16.149 l 201.634,39.194 v -25.55 z m 140.407,-36.993 v -25.55 l -236.112,-45.895 v 25.549 z M 88.81,-144.248 9.273,-159.708 v 33.312 l 79.537,15.461 z m 46.841,68.265 -188.497,-36.64 v -17.542 l 2.338,0.454 c 12.336,2.398 12.82,0.465 12.82,-5.313 v -36.711 c 0,-11.82 9.582,-19.538 21.401,-17.241 l 135.293,26.298 c 11.819,2.297 21.401,13.741 21.401,25.561 v 57.303 c 0,2.626 -2.13,4.341 -4.756,3.831"
       style="fill:#faa61a;fill-opacity:1;fill-rule:nonzero;stroke:none"
       transform="matrix(1.3333333,0,0,-1.3333333,1056.2305,733.85707)"
       clip-path="url(#clipPath27)" />
    <path
       id="path28"
       d="m 0,0 v -17.714 l 5.173,1.006 c 5.151,1 9.866,1.917 9.866,-4.691 v -104.622 c -7.609,-4.28 -17.353,-7.83 -29.365,-10.165 l -71.154,-13.831 v 32.021 l 65.982,12.826 c 3.283,0.638 5.945,3.817 5.945,7.1 v 63.398 c 0,3.283 -2.662,5.427 -5.945,4.789 L -143.26,-53.939 v -27.38 l 84.41,16.407 V -86.44 l -88.334,-17.171 v -18.011 l 2.086,0.405 c 4.212,0.819 10.457,2.032 10.457,-4.091 v -42.621 c 0,-10.507 8.517,-17.368 19.023,-15.326 l 92.91,18.061 c 17.429,3.387 30.079,7.608 37.747,11.472 v -100.31 l 47.853,9.302 V 12.225 Z"
       style="fill:#f15a22;fill-opacity:1;fill-rule:nonzero;stroke:none"
       transform="matrix(1.3333333,0,0,-1.3333333,817.1868,579.15)"
       clip-path="url(#clipPath29)" />
    <path
       id="path30"
       d="m 0,0 v 23.516 l -5.914,-24.911 -6.407,-1.51 -5.775,22.154 V -4.267 l -6.054,-1.427 v 28.15 l 9.46,2.231 5.704,-20.984 0.07,0.017 5.564,23.64 9.337,2.202 V 1.411 Z m -43.721,-10.31 v 23.159 l -9.741,-2.297 v 4.976 l 25.766,6.076 v -4.977 l -9.39,-2.214 V -8.745 Z"
       style="fill:#130c0e;fill-opacity:1;fill-rule:nonzero;stroke:none"
       transform="matrix(1.3333333,0,0,-1.3333333,2053.0131,943.37787)"
       clip-path="url(#clipPath31)" />
  </g>
</svg>
