<?xml version="1.0" encoding="UTF-8" standalone="no"?>
<!-- Created with Inkscape (http://www.inkscape.org/) -->

<svg
   version="1.1"
   id="svg2"
   width="2560"
   height="1440"
   viewBox="0 0 2560 1440"
   sodipodi:docname="Rhythm Tengoku Gold (リズム天国ゴールド) (Mysikt).svg"
   inkscape:version="1.2.2 (b0a8486541, 2022-12-01)"
   xmlns:inkscape="http://www.inkscape.org/namespaces/inkscape"
   xmlns:sodipodi="http://sodipodi.sourceforge.net/DTD/sodipodi-0.dtd"
   xmlns="http://www.w3.org/2000/svg"
   xmlns:svg="http://www.w3.org/2000/svg">
  <defs
     id="defs6">
    <clipPath
       clipPathUnits="userSpaceOnUse"
       id="clipPath18">
      <path
         d="M 0,1080 H 1920 V 0 H 0 Z"
         id="path16" />
    </clipPath>
  </defs>
  <sodipodi:namedview
     id="namedview4"
     pagecolor="#ffffff"
     bordercolor="#000000"
     borderopacity="0.25"
     inkscape:showpageshadow="2"
     inkscape:pageopacity="0.0"
     inkscape:pagecheckerboard="0"
     inkscape:deskcolor="#d1d1d1"
     showgrid="false"
     inkscape:zoom="0.55546875"
     inkscape:cx="1259.2968"
     inkscape:cy="720.11252"
     inkscape:window-width="2560"
     inkscape:window-height="1400"
     inkscape:window-x="2560"
     inkscape:window-y="0"
     inkscape:window-maximized="1"
     inkscape:current-layer="g88" />
  <g
     id="g8"
     inkscape:groupmode="layer"
     inkscape:label="Rhythm Tengoku Gold (Mysikt)"
     transform="matrix(1.3333333,0,0,-1.3333333,0,1440)">
    <path
       d="M 0,0 H 1920 V 1080 H 0 Z"
       style="fill:#38f0d0;fill-opacity:1;fill-rule:nonzero;stroke:none"
       id="path10" />
    <g
       id="g12">
      <g
         id="g14"
         clip-path="url(#clipPath18)">
        <g
           id="g20"
           transform="translate(1800,1019.25)">
          <path
             d="M 0,0 V 1.525 C -0.183,17.775 -6.05,31.667 -17.6,43.2 -29.3,54.9 -43.433,60.75 -60,60.75 -76.567,60.75 -90.717,54.9 -102.45,43.2 -113.95,31.667 -119.8,17.775 -120,1.525 V 0 c 0.2,-16.25 6.05,-30.125 17.55,-41.625 11.55,-11.55 25.442,-17.425 41.675,-17.625 h 1.55 c 16.233,0.2 30.108,6.075 41.625,17.625 C -6.05,-30.125 -0.183,-16.25 0,0 m 60.775,-59.25 h -1.55 C 42.992,-59.433 29.1,-65.283 17.55,-76.8 6.05,-88.333 0.2,-102.225 0,-118.475 V -120 c 0.2,-16.25 6.05,-30.125 17.55,-41.625 11.55,-11.55 25.442,-17.425 41.675,-17.625 h 1.55 c 16.233,0.2 30.108,6.075 41.625,17.625 11.733,11.7 17.6,25.825 17.6,42.375 0,16.567 -5.867,30.717 -17.6,42.45 -11.517,11.517 -25.392,17.367 -41.625,17.55 M -120,-120 v 1.525 c -0.183,16.25 -6.05,30.142 -17.6,41.675 -11.517,11.517 -25.392,17.367 -41.625,17.55 h -1.55 c -16.233,-0.183 -30.125,-6.033 -41.675,-17.55 -11.5,-11.533 -17.35,-25.425 -17.55,-41.675 V -120 c 0.2,-16.25 6.05,-30.125 17.55,-41.625 11.55,-11.55 25.442,-17.425 41.675,-17.625 h 1.55 c 16.233,0.2 30.108,6.075 41.625,17.625 11.55,11.5 17.417,25.375 17.6,41.625 m 60.775,-59.25 h -1.55 c -16.233,-0.183 -30.125,-6.033 -41.675,-17.55 -11.5,-11.533 -17.35,-25.425 -17.55,-41.675 V -240 c 0.2,-16.25 6.05,-30.125 17.55,-41.625 11.55,-11.55 25.442,-17.425 41.675,-17.625 h 1.55 c 16.233,0.2 30.108,6.075 41.625,17.625 11.55,11.5 17.417,25.375 17.6,41.625 v 1.525 c -0.183,16.25 -6.05,30.142 -17.6,41.675 -11.517,11.517 -25.392,17.367 -41.625,17.55 M -137.6,-316.8 c -11.517,11.517 -25.392,17.367 -41.625,17.55 h -1.55 c -16.233,-0.183 -30.125,-6.033 -41.675,-17.55 -11.5,-11.533 -17.35,-25.425 -17.55,-41.675 V -360 c 0.2,-16.25 6.05,-30.133 17.55,-41.65 11.55,-11.533 25.442,-17.4 41.675,-17.6 h 1.55 c 16.233,0.2 30.108,6.067 41.625,17.6 11.55,11.517 17.417,25.4 17.6,41.65 v 1.525 c -0.183,16.25 -6.05,30.142 -17.6,41.675 m 198.375,17.55 h -1.55 C 42.992,-299.433 29.1,-305.283 17.55,-316.8 6.05,-328.333 0.2,-342.225 0,-358.475 V -360 c 0.2,-16.25 6.05,-30.133 17.55,-41.65 11.55,-11.533 25.442,-17.4 41.675,-17.6 h 1.55 c 16.233,0.2 30.108,6.067 41.625,17.6 11.733,11.717 17.6,25.85 17.6,42.4 0,16.567 -5.867,30.717 -17.6,42.45 -11.517,11.517 -25.392,17.367 -41.625,17.55 M -240,0 v 1.525 c -0.183,16.25 -6.05,30.142 -17.6,41.675 -11.7,11.7 -25.833,17.55 -42.4,17.55 -16.567,0 -30.717,-5.85 -42.45,-17.55 C -353.95,31.667 -359.8,17.775 -360,1.525 V 0 c 0.2,-16.25 6.05,-30.125 17.55,-41.625 11.55,-11.55 25.442,-17.425 41.675,-17.625 h 1.55 c 16.233,0.2 30.108,6.075 41.625,17.625 11.55,11.5 17.417,25.375 17.6,41.625 m -240,0 v 1.525 c -0.2,16.25 -6.067,30.142 -17.6,41.675 -11.7,11.7 -25.833,17.55 -42.4,17.55 -16.567,0 -30.717,-5.85 -42.45,-17.55 C -593.967,31.667 -599.817,17.775 -600,1.525 V 0 c 0.183,-16.25 6.033,-30.125 17.55,-41.625 11.55,-11.55 25.442,-17.425 41.675,-17.625 h 1.55 c 16.233,0.2 30.108,6.075 41.625,17.625 11.533,11.5 17.4,25.375 17.6,41.625 m 0,-118.475 V -120 c 0.2,-16.25 6.05,-30.125 17.55,-41.625 11.55,-11.55 25.442,-17.425 41.675,-17.625 h 1.55 c 16.233,0.2 30.108,6.075 41.625,17.625 11.55,11.5 17.417,25.375 17.6,41.625 v 1.525 c -0.183,16.25 -6.05,30.142 -17.6,41.675 -11.517,11.517 -25.392,17.367 -41.625,17.55 h -1.55 c -16.233,-0.183 -30.125,-6.033 -41.675,-17.55 -11.5,-11.533 -17.35,-25.425 -17.55,-41.675 M -480,-240 v 1.525 c -0.2,16.25 -6.067,30.142 -17.6,41.675 -11.517,11.517 -25.392,17.367 -41.625,17.55 h -1.55 c -16.233,-0.183 -30.125,-6.033 -41.675,-17.55 -11.517,-11.533 -17.367,-25.425 -17.55,-41.675 V -240 c 0.183,-16.25 6.033,-30.125 17.55,-41.625 11.55,-11.55 25.442,-17.425 41.675,-17.625 h 1.55 c 16.233,0.2 30.108,6.075 41.625,17.625 11.533,11.5 17.4,25.375 17.6,41.625 m 120,1.525 V -240 c 0.2,-16.25 6.05,-30.125 17.55,-41.625 11.55,-11.55 25.442,-17.425 41.675,-17.625 h 1.55 c 16.233,0.2 30.108,6.075 41.625,17.625 11.55,11.5 17.417,25.375 17.6,41.625 v 1.525 c -0.183,16.25 -6.05,30.142 -17.6,41.675 -11.517,11.517 -25.392,17.367 -41.625,17.55 h -1.55 c -16.233,-0.183 -30.125,-6.033 -41.675,-17.55 -11.5,-11.533 -17.35,-25.425 -17.55,-41.675 m -59.225,-60.775 h -1.55 c -16.233,-0.183 -30.125,-6.033 -41.675,-17.55 -11.5,-11.533 -17.35,-25.425 -17.55,-41.675 V -360 c 0.2,-16.25 6.05,-30.133 17.55,-41.65 11.55,-11.533 25.442,-17.4 41.675,-17.6 h 1.55 c 16.233,0.2 30.108,6.067 41.625,17.6 11.55,11.517 17.417,25.4 17.6,41.65 v 1.525 c -0.183,16.25 -6.05,30.142 -17.6,41.675 -11.517,11.517 -25.392,17.367 -41.625,17.55 m 120,-120 h -1.55 c -16.233,-0.183 -30.125,-6.033 -41.675,-17.55 -11.5,-11.533 -17.35,-25.425 -17.55,-41.675 V -480 c 0.2,-16.25 6.05,-30.133 17.55,-41.65 11.55,-11.533 25.442,-17.4 41.675,-17.6 h 1.55 c 16.233,0.2 30.108,6.067 41.625,17.6 11.55,11.517 17.417,25.4 17.6,41.65 v 1.525 c -0.183,16.25 -6.05,30.142 -17.6,41.675 -11.517,11.517 -25.392,17.367 -41.625,17.55 M -480,-480 v 1.525 c -0.2,16.25 -6.067,30.142 -17.6,41.675 -11.517,11.517 -25.392,17.367 -41.625,17.55 h -1.55 c -16.233,-0.183 -30.125,-6.033 -41.675,-17.55 -11.517,-11.533 -17.367,-25.425 -17.55,-41.675 V -480 c 0.183,-16.25 6.033,-30.133 17.55,-41.65 11.55,-11.533 25.442,-17.4 41.675,-17.6 h 1.55 c 16.233,0.2 30.108,6.067 41.625,17.6 11.533,11.517 17.4,25.4 17.6,41.65 m 60.775,-59.25 h -1.55 c -16.233,-0.183 -30.125,-6.033 -41.675,-17.55 -11.5,-11.533 -17.35,-25.425 -17.55,-41.675 V -600 c 0.2,-16.25 6.05,-30.133 17.55,-41.65 11.55,-11.533 25.442,-17.4 41.675,-17.6 h 1.55 c 16.233,0.2 30.108,6.067 41.625,17.6 11.55,11.517 17.417,25.4 17.6,41.65 v 1.525 c -0.183,16.25 -6.05,30.142 -17.6,41.675 -11.517,11.517 -25.392,17.367 -41.625,17.55 M -480,-720 v 1.525 c -0.2,16.25 -6.067,30.142 -17.6,41.675 -11.517,11.517 -25.392,17.367 -41.625,17.55 h -1.55 c -16.233,-0.183 -30.125,-6.033 -41.675,-17.55 -11.517,-11.533 -17.367,-25.425 -17.55,-41.675 V -720 c 0.183,-16.25 6.033,-30.133 17.55,-41.65 11.55,-11.533 25.442,-17.4 41.675,-17.6 h 1.55 c 16.233,0.2 30.108,6.067 41.625,17.6 11.533,11.517 17.4,25.4 17.6,41.65 m 120,1.525 V -720 c 0.2,-16.25 6.05,-30.133 17.55,-41.65 11.55,-11.533 25.442,-17.4 41.675,-17.6 h 1.55 c 16.233,0.2 30.108,6.067 41.625,17.6 11.55,11.517 17.417,25.4 17.6,41.65 v 1.525 c -0.183,16.25 -6.05,30.142 -17.6,41.675 -11.517,11.517 -25.392,17.367 -41.625,17.55 h -1.55 c -16.233,-0.183 -30.125,-6.033 -41.675,-17.55 -11.5,-11.533 -17.35,-25.425 -17.55,-41.675 m 120,120 V -600 c 0.2,-16.25 6.05,-30.133 17.55,-41.65 11.55,-11.533 25.442,-17.4 41.675,-17.6 h 1.55 c 16.233,0.2 30.108,6.067 41.625,17.6 11.55,11.517 17.417,25.4 17.6,41.65 v 1.525 c -0.183,16.25 -6.05,30.142 -17.6,41.675 -11.517,11.517 -25.392,17.367 -41.625,17.55 h -1.55 c -16.233,-0.183 -30.125,-6.033 -41.675,-17.55 -11.5,-11.533 -17.35,-25.425 -17.55,-41.675 M 0,-480 v 1.525 c -0.183,16.25 -6.05,30.142 -17.6,41.675 -11.517,11.517 -25.392,17.367 -41.625,17.55 h -1.55 c -16.233,-0.183 -30.125,-6.033 -41.675,-17.55 -11.5,-11.533 -17.35,-25.425 -17.55,-41.675 V -480 c 0.2,-16.25 6.05,-30.133 17.55,-41.65 11.55,-11.533 25.442,-17.4 41.675,-17.6 h 1.55 c 16.233,0.2 30.108,6.067 41.625,17.6 11.55,11.517 17.417,25.4 17.6,41.65 M -120,-718.475 V -720 c 0.2,-16.25 6.05,-30.133 17.55,-41.65 11.55,-11.533 25.442,-17.4 41.675,-17.6 h 1.55 c 16.233,0.2 30.108,6.067 41.625,17.6 11.55,11.517 17.417,25.4 17.6,41.65 v 1.525 c -0.183,16.25 -6.05,30.142 -17.6,41.675 -11.517,11.517 -25.392,17.367 -41.625,17.55 h -1.55 c -16.233,-0.183 -30.125,-6.033 -41.675,-17.55 -11.5,-11.533 -17.35,-25.425 -17.55,-41.675 m 240,119.225 c 0,16.567 -5.867,30.717 -17.6,42.45 -11.517,11.517 -25.392,17.367 -41.625,17.55 h -1.55 C 42.992,-539.433 29.1,-545.283 17.55,-556.8 6.05,-568.333 0.2,-582.225 0,-598.475 V -600 c 0.2,-16.25 6.05,-30.133 17.55,-41.65 11.55,-11.533 25.442,-17.4 41.675,-17.6 h 1.55 c 16.233,0.2 30.108,6.067 41.625,17.6 11.733,11.717 17.6,25.85 17.6,42.4 m -59.225,-180 h -1.55 C 42.992,-779.433 29.1,-785.283 17.55,-796.8 6.05,-808.333 0.2,-822.225 0,-838.475 V -840 c 0.2,-16.25 6.05,-30.133 17.55,-41.65 11.55,-11.533 25.442,-17.4 41.675,-17.6 h 1.55 c 16.233,0.2 30.108,6.067 41.625,17.6 11.733,11.717 17.6,25.85 17.6,42.4 0,16.567 -5.867,30.717 -17.6,42.45 -11.517,11.517 -25.392,17.367 -41.625,17.55 M -137.6,-796.8 c -11.517,11.517 -25.392,17.367 -41.625,17.55 h -1.55 c -16.233,-0.183 -30.125,-6.033 -41.675,-17.55 -11.5,-11.533 -17.35,-25.425 -17.55,-41.675 V -840 c 0.2,-16.25 6.05,-30.133 17.55,-41.65 11.55,-11.533 25.442,-17.4 41.675,-17.6 h 1.55 c 16.233,0.2 30.108,6.067 41.625,17.6 11.55,11.517 17.417,25.4 17.6,41.65 v 1.525 c -0.183,16.25 -6.05,30.142 -17.6,41.675 m 78.375,-102.45 h -1.55 c -16.233,-0.183 -30.125,-6.033 -41.675,-17.55 -11.5,-11.533 -17.35,-25.425 -17.55,-41.675 V -960 c 0.2,-16.25 6.05,-30.133 17.55,-41.65 11.55,-11.533 25.442,-17.4 41.675,-17.6 h 1.55 c 16.233,0.2 30.108,6.067 41.625,17.6 11.55,11.517 17.417,25.4 17.6,41.65 v 1.525 c -0.183,16.25 -6.05,30.142 -17.6,41.675 -11.517,11.517 -25.392,17.367 -41.625,17.55 m -240,0 h -1.55 c -16.233,-0.183 -30.125,-6.033 -41.675,-17.55 -11.5,-11.533 -17.35,-25.425 -17.55,-41.675 V -960 c 0.2,-16.25 6.05,-30.133 17.55,-41.65 11.55,-11.533 25.442,-17.4 41.675,-17.6 h 1.55 c 16.233,0.2 30.108,6.067 41.625,17.6 11.55,11.517 17.417,25.4 17.6,41.65 v 1.525 c -0.183,16.25 -6.05,30.142 -17.6,41.675 -11.517,11.517 -25.392,17.367 -41.625,17.55 m -120,120 h -1.55 c -16.233,-0.183 -30.125,-6.033 -41.675,-17.55 -11.5,-11.533 -17.35,-25.425 -17.55,-41.675 V -840 c 0.2,-16.25 6.05,-30.133 17.55,-41.65 11.55,-11.533 25.442,-17.4 41.675,-17.6 h 1.55 c 16.233,0.2 30.108,6.067 41.625,17.6 11.55,11.517 17.417,25.4 17.6,41.65 v 1.525 c -0.183,16.25 -6.05,30.142 -17.6,41.675 -11.517,11.517 -25.392,17.367 -41.625,17.55 M -480,-960 v 1.525 c -0.2,16.25 -6.067,30.142 -17.6,41.675 -11.517,11.517 -25.392,17.367 -41.625,17.55 h -1.55 c -16.233,-0.183 -30.125,-6.033 -41.675,-17.55 -11.517,-11.533 -17.367,-25.425 -17.55,-41.675 V -960 c 0.183,-16.25 6.033,-30.133 17.55,-41.65 11.55,-11.533 25.442,-17.4 41.675,-17.6 h 1.55 c 16.233,0.2 30.108,6.067 41.625,17.6 11.533,11.517 17.4,25.4 17.6,41.65 m -179.225,900.75 h -1.55 c -16.233,-0.183 -30.125,-6.033 -41.675,-17.55 -11.517,-11.533 -17.367,-25.425 -17.55,-41.675 V -120 c 0.183,-16.25 6.033,-30.125 17.55,-41.625 11.55,-11.55 25.442,-17.425 41.675,-17.625 h 1.55 c 16.233,0.2 30.108,6.075 41.625,17.625 11.533,11.5 17.4,25.375 17.6,41.625 v 1.525 c -0.2,16.25 -6.067,30.142 -17.6,41.675 -11.517,11.517 -25.392,17.367 -41.625,17.55 M -720,0 v 1.525 c -0.2,16.25 -6.067,30.142 -17.6,41.675 -11.7,11.7 -25.833,17.55 -42.4,17.55 -16.567,0 -30.717,-5.85 -42.45,-17.55 C -833.967,31.667 -839.817,17.775 -840,1.525 V 0 c 0.183,-16.25 6.033,-30.125 17.55,-41.625 11.55,-11.55 25.442,-17.425 41.675,-17.625 h 1.55 c 16.233,0.2 30.108,6.075 41.625,17.625 11.533,11.5 17.4,25.375 17.6,41.625 m -59.225,-179.25 h -1.55 c -16.233,-0.183 -30.125,-6.033 -41.675,-17.55 -11.517,-11.533 -17.367,-25.425 -17.55,-41.675 V -240 c 0.183,-16.25 6.033,-30.125 17.55,-41.625 11.55,-11.55 25.442,-17.425 41.675,-17.625 h 1.55 c 16.233,0.2 30.108,6.075 41.625,17.625 11.533,11.5 17.4,25.375 17.6,41.625 v 1.525 c -0.2,16.25 -6.067,30.142 -17.6,41.675 -11.517,11.517 -25.392,17.367 -41.625,17.55 m 120,-120 h -1.55 c -16.233,-0.183 -30.125,-6.033 -41.675,-17.55 -11.517,-11.533 -17.367,-25.425 -17.55,-41.675 V -360 c 0.183,-16.25 6.033,-30.133 17.55,-41.65 11.55,-11.533 25.442,-17.4 41.675,-17.6 h 1.55 c 16.233,0.2 30.108,6.067 41.625,17.6 11.533,11.517 17.4,25.4 17.6,41.65 v 1.525 c -0.2,16.25 -6.067,30.142 -17.6,41.675 -11.517,11.517 -25.392,17.367 -41.625,17.55 M -960,0 v 1.525 c -0.2,16.25 -6.067,30.142 -17.6,41.675 -11.7,11.7 -25.833,17.55 -42.4,17.55 -16.567,0 -30.717,-5.85 -42.45,-17.55 -11.517,-11.533 -17.367,-25.425 -17.55,-41.675 V 0 c 0.183,-16.25 6.033,-30.125 17.55,-41.625 11.55,-11.55 25.442,-17.425 41.675,-17.625 h 1.55 c 16.233,0.2 30.108,6.075 41.625,17.625 11.533,11.5 17.4,25.375 17.6,41.625 m 0,-118.475 V -120 c 0.183,-16.25 6.033,-30.125 17.55,-41.625 11.55,-11.55 25.442,-17.425 41.675,-17.625 h 1.55 c 16.233,0.2 30.108,6.075 41.625,17.625 11.533,11.5 17.4,25.375 17.6,41.625 v 1.525 c -0.2,16.25 -6.067,30.142 -17.6,41.675 -11.517,11.517 -25.392,17.367 -41.625,17.55 h -1.55 c -16.233,-0.183 -30.125,-6.033 -41.675,-17.55 -11.517,-11.533 -17.367,-25.425 -17.55,-41.675 m -179.225,59.225 h -1.55 c -16.233,-0.183 -30.125,-6.033 -41.675,-17.55 -11.517,-11.533 -17.367,-25.425 -17.55,-41.675 V -120 c 0.183,-16.25 6.033,-30.125 17.55,-41.625 11.55,-11.55 25.442,-17.425 41.675,-17.625 h 1.55 c 16.233,0.2 30.108,6.075 41.625,17.625 11.533,11.5 17.4,25.375 17.6,41.625 v 1.525 c -0.2,16.25 -6.067,30.142 -17.6,41.675 -11.517,11.517 -25.392,17.367 -41.625,17.55 m 120,-120 h -1.55 c -16.233,-0.183 -30.125,-6.033 -41.675,-17.55 -11.517,-11.533 -17.367,-25.425 -17.55,-41.675 V -240 c 0.183,-16.25 6.033,-30.125 17.55,-41.625 11.55,-11.55 25.442,-17.425 41.675,-17.625 h 1.55 c 16.233,0.2 30.108,6.075 41.625,17.625 11.533,11.5 17.4,25.375 17.6,41.625 v 1.525 c -0.2,16.25 -6.067,30.142 -17.6,41.675 -11.517,11.517 -25.392,17.367 -41.625,17.55 m -120,-120 h -1.55 c -16.233,-0.183 -30.125,-6.033 -41.675,-17.55 -11.517,-11.533 -17.367,-25.425 -17.55,-41.675 V -360 c 0.183,-16.25 6.033,-30.133 17.55,-41.65 11.55,-11.533 25.442,-17.4 41.675,-17.6 h 1.55 c 16.233,0.2 30.108,6.067 41.625,17.6 11.533,11.517 17.4,25.4 17.6,41.65 v 1.525 c -0.2,16.25 -6.067,30.142 -17.6,41.675 -11.517,11.517 -25.392,17.367 -41.625,17.55 m 240,0 h -1.55 c -16.233,-0.183 -30.125,-6.033 -41.675,-17.55 -11.517,-11.533 -17.367,-25.425 -17.55,-41.675 V -360 c 0.183,-16.25 6.033,-30.133 17.55,-41.65 11.55,-11.533 25.442,-17.4 41.675,-17.6 h 1.55 c 16.233,0.2 30.108,6.067 41.625,17.6 11.533,11.517 17.4,25.4 17.6,41.65 v 1.525 c -0.2,16.25 -6.067,30.142 -17.6,41.675 -11.517,11.517 -25.392,17.367 -41.625,17.55 M -960,-480 v 1.525 c -0.2,16.25 -6.067,30.142 -17.6,41.675 -11.517,11.517 -25.392,17.367 -41.625,17.55 h -1.55 c -16.233,-0.183 -30.125,-6.033 -41.675,-17.55 -11.517,-11.533 -17.367,-25.425 -17.55,-41.675 V -480 c 0.183,-16.25 6.033,-30.133 17.55,-41.65 11.55,-11.533 25.442,-17.4 41.675,-17.6 h 1.55 c 16.233,0.2 30.108,6.067 41.625,17.6 11.533,11.517 17.4,25.4 17.6,41.65 m 120,1.525 V -480 c 0.183,-16.25 6.033,-30.133 17.55,-41.65 11.55,-11.533 25.442,-17.4 41.675,-17.6 h 1.55 c 16.233,0.2 30.108,6.067 41.625,17.6 11.533,11.517 17.4,25.4 17.6,41.65 v 1.525 c -0.2,16.25 -6.067,30.142 -17.6,41.675 -11.517,11.517 -25.392,17.367 -41.625,17.55 h -1.55 c -16.233,-0.183 -30.125,-6.033 -41.675,-17.55 -11.517,-11.533 -17.367,-25.425 -17.55,-41.675 m -299.225,-60.775 h -1.55 c -16.233,-0.183 -30.125,-6.033 -41.675,-17.55 -11.517,-11.533 -17.367,-25.425 -17.55,-41.675 V -600 c 0.183,-16.25 6.033,-30.133 17.55,-41.65 11.55,-11.533 25.442,-17.4 41.675,-17.6 h 1.55 c 16.233,0.2 30.108,6.067 41.625,17.6 11.533,11.517 17.4,25.4 17.6,41.65 v 1.525 c -0.2,16.25 -6.067,30.142 -17.6,41.675 -11.517,11.517 -25.392,17.367 -41.625,17.55 M -1080,-718.475 V -720 c 0.183,-16.25 6.033,-30.133 17.55,-41.65 11.55,-11.533 25.442,-17.4 41.675,-17.6 h 1.55 c 16.233,0.2 30.108,6.067 41.625,17.6 11.533,11.517 17.4,25.4 17.6,41.65 v 1.525 c -0.2,16.25 -6.067,30.142 -17.6,41.675 -11.517,11.517 -25.392,17.367 -41.625,17.55 h -1.55 c -16.233,-0.183 -30.125,-6.033 -41.675,-17.55 -11.517,-11.533 -17.367,-25.425 -17.55,-41.675 m 180.775,179.225 h -1.55 c -16.233,-0.183 -30.125,-6.033 -41.675,-17.55 -11.517,-11.533 -17.367,-25.425 -17.55,-41.675 V -600 c 0.183,-16.25 6.033,-30.133 17.55,-41.65 11.55,-11.533 25.442,-17.4 41.675,-17.6 h 1.55 c 16.233,0.2 30.108,6.067 41.625,17.6 11.533,11.517 17.4,25.4 17.6,41.65 v 1.525 c -0.2,16.25 -6.067,30.142 -17.6,41.675 -11.517,11.517 -25.392,17.367 -41.625,17.55 M -840,-718.475 V -720 c 0.183,-16.25 6.033,-30.133 17.55,-41.65 11.55,-11.533 25.442,-17.4 41.675,-17.6 h 1.55 c 16.233,0.2 30.108,6.067 41.625,17.6 11.533,11.517 17.4,25.4 17.6,41.65 v 1.525 c -0.2,16.25 -6.067,30.142 -17.6,41.675 -11.517,11.517 -25.392,17.367 -41.625,17.55 h -1.55 c -16.233,-0.183 -30.125,-6.033 -41.675,-17.55 -11.517,-11.533 -17.367,-25.425 -17.55,-41.675 m 120,120 V -600 c 0.183,-16.25 6.033,-30.133 17.55,-41.65 11.55,-11.533 25.442,-17.4 41.675,-17.6 h 1.55 c 16.233,0.2 30.108,6.067 41.625,17.6 11.533,11.517 17.4,25.4 17.6,41.65 v 1.525 c -0.2,16.25 -6.067,30.142 -17.6,41.675 -11.517,11.517 -25.392,17.367 -41.625,17.55 h -1.55 c -16.233,-0.183 -30.125,-6.033 -41.675,-17.55 -11.517,-11.533 -17.367,-25.425 -17.55,-41.675 M -1200,0 v 1.525 c -0.2,16.25 -6.067,30.142 -17.6,41.675 -11.7,11.7 -25.833,17.55 -42.4,17.55 -16.567,0 -30.717,-5.85 -42.45,-17.55 -11.517,-11.533 -17.367,-25.425 -17.55,-41.675 V 0 c 0.183,-16.25 6.033,-30.125 17.55,-41.625 11.55,-11.55 25.442,-17.425 41.675,-17.625 h 1.55 c 16.233,0.2 30.108,6.075 41.625,17.625 11.533,11.5 17.4,25.375 17.6,41.625 m -240,0 v 1.525 c -0.2,16.25 -6.067,30.142 -17.6,41.675 -11.7,11.7 -25.833,17.55 -42.4,17.55 -16.567,0 -30.717,-5.85 -42.45,-17.55 -11.517,-11.533 -17.367,-25.425 -17.55,-41.675 L -1560,0 c 0.183,-16.25 6.033,-30.125 17.55,-41.625 11.55,-11.55 25.442,-17.425 41.675,-17.625 h 1.55 c 16.233,0.2 30.108,6.075 41.625,17.625 11.533,11.5 17.4,25.375 17.6,41.625 m 0,-118.475 V -120 c 0.183,-16.25 6.033,-30.125 17.55,-41.625 11.55,-11.55 25.442,-17.425 41.675,-17.625 h 1.55 c 16.233,0.2 30.108,6.075 41.625,17.625 11.533,11.5 17.4,25.375 17.6,41.625 v 1.525 c -0.2,16.25 -6.067,30.142 -17.6,41.675 -11.517,11.517 -25.392,17.367 -41.625,17.55 h -1.55 c -16.233,-0.183 -30.125,-6.033 -41.675,-17.55 -11.517,-11.533 -17.367,-25.425 -17.55,-41.675 m 0,-121.525 v 1.525 c -0.2,16.25 -6.067,30.142 -17.6,41.675 -11.517,11.517 -25.392,17.367 -41.625,17.55 h -1.55 c -16.233,-0.183 -30.125,-6.033 -41.675,-17.55 -11.517,-11.533 -17.367,-25.425 -17.55,-41.675 V -240 c 0.183,-16.25 6.033,-30.125 17.55,-41.625 11.55,-11.55 25.442,-17.425 41.675,-17.625 h 1.55 c 16.233,0.2 30.108,6.075 41.625,17.625 11.533,11.5 17.4,25.375 17.6,41.625 m 120,1.525 V -240 c 0.183,-16.25 6.033,-30.125 17.55,-41.625 11.55,-11.55 25.442,-17.425 41.675,-17.625 h 1.55 c 16.233,0.2 30.108,6.075 41.625,17.625 11.533,11.5 17.4,25.375 17.6,41.625 v 1.525 c -0.2,16.25 -6.067,30.142 -17.6,41.675 -11.517,11.517 -25.392,17.367 -41.625,17.55 h -1.55 c -16.233,-0.183 -30.125,-6.033 -41.675,-17.55 -11.517,-11.533 -17.367,-25.425 -17.55,-41.675 m -59.225,-60.775 h -1.55 c -16.233,-0.183 -30.125,-6.033 -41.675,-17.55 -11.517,-11.533 -17.367,-25.425 -17.55,-41.675 V -360 c 0.183,-16.25 6.033,-30.133 17.55,-41.65 11.55,-11.533 25.442,-17.4 41.675,-17.6 h 1.55 c 16.233,0.2 30.108,6.067 41.625,17.6 11.533,11.517 17.4,25.4 17.6,41.65 v 1.525 c -0.2,16.25 -6.067,30.142 -17.6,41.675 -11.517,11.517 -25.392,17.367 -41.625,17.55 m -240,240 h -1.55 c -16.233,-0.183 -30.125,-6.033 -41.675,-17.55 -11.517,-11.533 -17.367,-25.425 -17.55,-41.675 V -120 c 0.183,-16.25 6.033,-30.125 17.55,-41.625 11.55,-11.55 25.442,-17.425 41.675,-17.625 h 1.55 c 16.233,0.2 30.108,6.075 41.625,17.625 11.533,11.5 17.4,25.375 17.6,41.625 v 1.525 c -0.2,16.25 -6.067,30.142 -17.6,41.675 -11.517,11.517 -25.392,17.367 -41.625,17.55 M -1680,0 v 1.525 c -0.2,16.25 -6.067,30.142 -17.6,41.675 -11.7,11.7 -25.833,17.55 -42.4,17.55 -16.567,0 -30.717,-5.85 -42.45,-17.55 -11.7,-11.733 -17.55,-25.883 -17.55,-42.45 0,-16.55 5.85,-30.675 17.55,-42.375 11.55,-11.55 25.442,-17.425 41.675,-17.625 h 1.55 c 16.233,0.2 30.108,6.075 41.625,17.625 11.533,11.5 17.4,25.375 17.6,41.625 m -59.225,-179.25 h -1.55 c -16.233,-0.183 -30.125,-6.033 -41.675,-17.55 -11.7,-11.733 -17.55,-25.883 -17.55,-42.45 0,-16.55 5.85,-30.675 17.55,-42.375 11.55,-11.55 25.442,-17.425 41.675,-17.625 h 1.55 c 16.233,0.2 30.108,6.075 41.625,17.625 11.533,11.5 17.4,25.375 17.6,41.625 v 1.525 c -0.2,16.25 -6.067,30.142 -17.6,41.675 -11.517,11.517 -25.392,17.367 -41.625,17.55 m 120,-120 h -1.55 c -16.233,-0.183 -30.125,-6.033 -41.675,-17.55 -11.517,-11.533 -17.367,-25.425 -17.55,-41.675 V -360 c 0.183,-16.25 6.033,-30.133 17.55,-41.65 11.55,-11.533 25.442,-17.4 41.675,-17.6 h 1.55 c 16.233,0.2 30.108,6.067 41.625,17.6 11.533,11.517 17.4,25.4 17.6,41.65 v 1.525 c -0.2,16.25 -6.067,30.142 -17.6,41.675 -11.517,11.517 -25.392,17.367 -41.625,17.55 m 120,-120 h -1.55 c -16.233,-0.183 -30.125,-6.033 -41.675,-17.55 -11.517,-11.533 -17.367,-25.425 -17.55,-41.675 V -480 c 0.183,-16.25 6.033,-30.133 17.55,-41.65 11.55,-11.533 25.442,-17.4 41.675,-17.6 h 1.55 c 16.233,0.2 30.108,6.067 41.625,17.6 11.533,11.517 17.4,25.4 17.6,41.65 v 1.525 c -0.2,16.25 -6.067,30.142 -17.6,41.675 -11.517,11.517 -25.392,17.367 -41.625,17.55 m -240,0 h -1.55 c -16.233,-0.183 -30.125,-6.033 -41.675,-17.55 -11.7,-11.733 -17.55,-25.883 -17.55,-42.45 0,-3.429 0.25,-6.754 0.75,-9.975 1.924,-12.327 7.524,-23.136 16.8,-32.425 11.55,-11.533 25.442,-17.4 41.675,-17.6 h 1.55 c 3.742,0.046 7.359,0.396 10.85,1.05 11.655,2.159 21.913,7.675 30.775,16.55 11.533,11.517 17.4,25.4 17.6,41.65 v 1.525 c -0.2,16.25 -6.067,30.142 -17.6,41.675 -11.517,11.517 -25.392,17.367 -41.625,17.55 M -1680,-598.475 V -600 c 0.183,-16.25 6.033,-30.133 17.55,-41.65 11.55,-11.533 25.442,-17.4 41.675,-17.6 h 1.55 c 16.233,0.2 30.108,6.067 41.625,17.6 11.533,11.517 17.4,25.4 17.6,41.65 v 1.525 c -0.2,16.25 -6.067,30.142 -17.6,41.675 -11.517,11.517 -25.392,17.367 -41.625,17.55 h -1.55 c -16.233,-0.183 -30.125,-6.033 -41.675,-17.55 -11.517,-11.533 -17.367,-25.425 -17.55,-41.675 m -48.375,-61.8 c -3.491,0.641 -7.108,0.983 -10.85,1.025 h -1.55 c -16.233,-0.183 -30.125,-6.033 -41.675,-17.55 -11.7,-11.733 -17.55,-25.883 -17.55,-42.45 0,-16.55 5.85,-30.683 17.55,-42.4 6.435,-6.426 13.593,-11.092 21.475,-14 6.277,-2.311 13.011,-3.511 20.2,-3.6 h 1.55 c 16.233,0.2 30.108,6.067 41.625,17.6 11.533,11.517 17.4,25.4 17.6,41.65 v 1.525 c -0.2,16.25 -6.067,30.142 -17.6,41.675 -8.862,8.862 -19.12,14.37 -30.775,16.525 m 168.375,-58.2 V -720 c 0.183,-16.25 6.033,-30.133 17.55,-41.65 11.55,-11.533 25.442,-17.4 41.675,-17.6 h 1.55 c 16.233,0.2 30.108,6.067 41.625,17.6 11.533,11.517 17.4,25.4 17.6,41.65 v 1.525 c -0.2,16.25 -6.067,30.142 -17.6,41.675 -11.517,11.517 -25.392,17.367 -41.625,17.55 h -1.55 c -16.233,-0.183 -30.125,-6.033 -41.675,-17.55 -11.517,-11.533 -17.367,-25.425 -17.55,-41.675 m 300.775,299.225 h -1.55 c -16.233,-0.183 -30.125,-6.033 -41.675,-17.55 -11.517,-11.533 -17.367,-25.425 -17.55,-41.675 V -480 c 0.183,-16.25 6.033,-30.133 17.55,-41.65 11.55,-11.533 25.442,-17.4 41.675,-17.6 h 1.55 c 16.233,0.2 30.108,6.067 41.625,17.6 11.533,11.517 17.4,25.4 17.6,41.65 v 1.525 c -0.2,16.25 -6.067,30.142 -17.6,41.675 -11.517,11.517 -25.392,17.367 -41.625,17.55 m -120,-120 h -1.55 c -16.233,-0.183 -30.125,-6.033 -41.675,-17.55 -11.517,-11.533 -17.367,-25.425 -17.55,-41.675 V -600 c 0.183,-16.25 6.033,-30.133 17.55,-41.65 11.55,-11.533 25.442,-17.4 41.675,-17.6 h 1.55 c 16.233,0.2 30.108,6.067 41.625,17.6 11.533,11.517 17.4,25.4 17.6,41.65 v 1.525 c -0.2,16.25 -6.067,30.142 -17.6,41.675 -11.517,11.517 -25.392,17.367 -41.625,17.55 M -1320,-718.475 V -720 c 0.183,-16.25 6.033,-30.133 17.55,-41.65 11.55,-11.533 25.442,-17.4 41.675,-17.6 h 1.55 c 16.233,0.2 30.108,6.067 41.625,17.6 11.533,11.517 17.4,25.4 17.6,41.65 v 1.525 c -0.2,16.25 -6.067,30.142 -17.6,41.675 -11.517,11.517 -25.392,17.367 -41.625,17.55 h -1.55 c -16.233,-0.183 -30.125,-6.033 -41.675,-17.55 -11.517,-11.533 -17.367,-25.425 -17.55,-41.675 m 60.775,-180.775 h -1.55 c -16.233,-0.183 -30.125,-6.033 -41.675,-17.55 -11.517,-11.533 -17.367,-25.425 -17.55,-41.675 V -960 c 0.183,-16.25 6.033,-30.133 17.55,-41.65 11.55,-11.533 25.442,-17.4 41.675,-17.6 h 1.55 c 16.233,0.2 30.108,6.067 41.625,17.6 11.533,11.517 17.4,25.4 17.6,41.65 v 1.525 c -0.2,16.25 -6.067,30.142 -17.6,41.675 -11.517,11.517 -25.392,17.367 -41.625,17.55 m 59.225,60.775 V -840 c 0.183,-16.25 6.033,-30.133 17.55,-41.65 11.55,-11.533 25.442,-17.4 41.675,-17.6 h 1.55 c 16.233,0.2 30.108,6.067 41.625,17.6 11.533,11.517 17.4,25.4 17.6,41.65 v 1.525 c -0.2,16.25 -6.067,30.142 -17.6,41.675 -11.517,11.517 -25.392,17.367 -41.625,17.55 h -1.55 c -16.233,-0.183 -30.125,-6.033 -41.675,-17.55 -11.517,-11.533 -17.367,-25.425 -17.55,-41.675 m -179.225,59.225 h -1.55 c -16.233,-0.183 -30.125,-6.033 -41.675,-17.55 -11.517,-11.533 -17.367,-25.425 -17.55,-41.675 V -840 c 0.183,-16.25 6.033,-30.133 17.55,-41.65 11.55,-11.533 25.442,-17.4 41.675,-17.6 h 1.55 c 16.233,0.2 30.108,6.067 41.625,17.6 11.533,11.517 17.4,25.4 17.6,41.65 v 1.525 c -0.2,16.25 -6.067,30.142 -17.6,41.675 -11.517,11.517 -25.392,17.367 -41.625,17.55 M -1440,-960 v 1.525 c -0.2,16.25 -6.067,30.142 -17.6,41.675 -11.517,11.517 -25.392,17.367 -41.625,17.55 h -1.55 c -16.233,-0.183 -30.125,-6.033 -41.675,-17.55 -11.517,-11.533 -17.367,-25.425 -17.55,-41.675 V -960 c 0.183,-16.25 6.033,-30.133 17.55,-41.65 11.55,-11.533 25.442,-17.4 41.675,-17.6 h 1.55 c 16.233,0.2 30.108,6.067 41.625,17.6 11.533,11.517 17.4,25.4 17.6,41.65 m -179.225,180.75 h -1.55 c -16.233,-0.183 -30.125,-6.033 -41.675,-17.55 -11.517,-11.533 -17.367,-25.425 -17.55,-41.675 V -840 c 0.183,-16.25 6.033,-30.133 17.55,-41.65 11.55,-11.533 25.442,-17.4 41.675,-17.6 h 1.55 c 16.233,0.2 30.108,6.067 41.625,17.6 11.533,11.517 17.4,25.4 17.6,41.65 v 1.525 c -0.2,16.25 -6.067,30.142 -17.6,41.675 -11.517,11.517 -25.392,17.367 -41.625,17.55 m -120,-120 h -1.55 c -16.233,-0.183 -30.125,-6.033 -41.675,-17.55 -11.7,-11.733 -17.55,-25.883 -17.55,-42.45 0,-16.55 5.85,-30.683 17.55,-42.4 11.55,-11.533 25.442,-17.4 41.675,-17.6 h 1.55 c 16.233,0.2 30.108,6.067 41.625,17.6 11.533,11.517 17.4,25.4 17.6,41.65 v 1.525 c -0.2,16.25 -6.067,30.142 -17.6,41.675 -11.517,11.517 -25.392,17.367 -41.625,17.55 m 1080,120 h -1.55 c -16.233,-0.183 -30.125,-6.033 -41.675,-17.55 -11.517,-11.533 -17.367,-25.425 -17.55,-41.675 V -840 c 0.183,-16.25 6.033,-30.133 17.55,-41.65 11.55,-11.533 25.442,-17.4 41.675,-17.6 h 1.55 c 16.233,0.2 30.108,6.067 41.625,17.6 11.533,11.517 17.4,25.4 17.6,41.65 v 1.525 c -0.2,16.25 -6.067,30.142 -17.6,41.675 -11.517,11.517 -25.392,17.367 -41.625,17.55 m -120,-120 h -1.55 c -16.233,-0.183 -30.125,-6.033 -41.675,-17.55 -11.517,-11.533 -17.367,-25.425 -17.55,-41.675 V -960 c 0.183,-16.25 6.033,-30.133 17.55,-41.65 11.55,-11.533 25.442,-17.4 41.675,-17.6 h 1.55 c 16.233,0.2 30.108,6.067 41.625,17.6 11.533,11.517 17.4,25.4 17.6,41.65 v 1.525 c -0.2,16.25 -6.067,30.142 -17.6,41.675 -11.517,11.517 -25.392,17.367 -41.625,17.55 m -120,120 h -1.55 c -16.233,-0.183 -30.125,-6.033 -41.675,-17.55 -11.517,-11.533 -17.367,-25.425 -17.55,-41.675 V -840 c 0.183,-16.25 6.033,-30.133 17.55,-41.65 11.55,-11.533 25.442,-17.4 41.675,-17.6 h 1.55 c 16.233,0.2 30.108,6.067 41.625,17.6 11.533,11.517 17.4,25.4 17.6,41.65 v 1.525 c -0.2,16.25 -6.067,30.142 -17.6,41.675 -11.517,11.517 -25.392,17.367 -41.625,17.55 m -120,-120 h -1.55 c -16.233,-0.183 -30.125,-6.033 -41.675,-17.55 -11.517,-11.533 -17.367,-25.425 -17.55,-41.675 V -960 c 0.183,-16.25 6.033,-30.133 17.55,-41.65 11.55,-11.533 25.442,-17.4 41.675,-17.6 h 1.55 c 16.233,0.2 30.108,6.067 41.625,17.6 11.533,11.517 17.4,25.4 17.6,41.65 v 1.525 c -0.2,16.25 -6.067,30.142 -17.6,41.675 -11.517,11.517 -25.392,17.367 -41.625,17.55"
             style="fill:#50e0d0;fill-opacity:1;fill-rule:nonzero;stroke:none"
             id="path22" />
        </g>
        <g
           id="g24"
           transform="translate(1920,1020)">
          <path
             d="M 0,0 C 0,16.567 -5.867,30.717 -17.6,42.45 -29.3,54.15 -43.433,60 -60,60 -76.567,60 -90.717,54.15 -102.45,42.45 -113.95,30.917 -119.8,17.025 -120,0.775 V -0.75 c 0.2,-16.25 6.05,-30.125 17.55,-41.625 C -90.9,-53.925 -77.008,-59.8 -60.775,-60 h 1.55 c 16.233,0.2 30.108,6.075 41.625,17.625 C -5.867,-30.675 0,-16.55 0,0 m -120,-120.75 v 1.525 c -0.183,16.25 -6.05,30.142 -17.6,41.675 -11.517,11.517 -25.392,17.367 -41.625,17.55 h -1.55 c -16.233,-0.183 -30.125,-6.033 -41.675,-17.55 -11.5,-11.533 -17.35,-25.425 -17.55,-41.675 v -1.525 c 0.2,-16.25 6.05,-30.125 17.55,-41.625 11.55,-11.55 25.442,-17.425 41.675,-17.625 h 1.55 c 16.233,0.2 30.108,6.075 41.625,17.625 11.55,11.5 17.417,25.375 17.6,41.625 m -120,120 v 1.525 c -0.183,16.25 -6.05,30.142 -17.6,41.675 C -269.3,54.15 -283.433,60 -300,60 -316.567,60 -330.717,54.15 -342.45,42.45 -353.95,30.917 -359.8,17.025 -360,0.775 V -0.75 c 0.2,-16.25 6.05,-30.125 17.55,-41.625 11.55,-11.55 25.442,-17.425 41.675,-17.625 h 1.55 c 16.233,0.2 30.108,6.075 41.625,17.625 11.55,11.5 17.417,25.375 17.6,41.625 m -17.6,-196.8 c -11.517,11.517 -25.392,17.367 -41.625,17.55 h -1.55 c -16.233,-0.183 -30.125,-6.033 -41.675,-17.55 -11.5,-11.533 -17.35,-25.425 -17.55,-41.675 v -1.525 c 0.2,-16.25 6.05,-30.125 17.55,-41.625 11.55,-11.55 25.442,-17.425 41.675,-17.625 h 1.55 c 16.233,0.2 30.108,6.075 41.625,17.625 11.55,11.5 17.417,25.375 17.6,41.625 v 1.525 c -0.183,16.25 -6.05,30.142 -17.6,41.675 M -179.225,-300 h -1.55 c -16.233,-0.183 -30.125,-6.033 -41.675,-17.55 -11.5,-11.533 -17.35,-25.425 -17.55,-41.675 v -1.525 c 0.2,-16.25 6.05,-30.133 17.55,-41.65 11.55,-11.533 25.442,-17.4 41.675,-17.6 h 1.55 c 16.233,0.2 30.108,6.067 41.625,17.6 11.55,11.517 17.417,25.4 17.6,41.65 v 1.525 c -0.183,16.25 -6.05,30.142 -17.6,41.675 -11.517,11.517 -25.392,17.367 -41.625,17.55 m 120,120 h -1.55 c -16.233,-0.183 -30.125,-6.033 -41.675,-17.55 -11.5,-11.533 -17.35,-25.425 -17.55,-41.675 v -1.525 c 0.2,-16.25 6.05,-30.125 17.55,-41.625 11.55,-11.55 25.442,-17.425 41.675,-17.625 h 1.55 c 16.233,0.2 30.108,6.075 41.625,17.625 11.733,11.7 17.6,25.825 17.6,42.375 0,16.567 -5.867,30.717 -17.6,42.45 -11.517,11.517 -25.392,17.367 -41.625,17.55 m -360,120 h -1.55 c -16.233,-0.183 -30.125,-6.033 -41.675,-17.55 -11.5,-11.533 -17.35,-25.425 -17.55,-41.675 v -1.525 c 0.2,-16.25 6.05,-30.125 17.55,-41.625 11.55,-11.55 25.442,-17.425 41.675,-17.625 h 1.55 c 16.233,0.2 30.108,6.075 41.625,17.625 11.55,11.5 17.417,25.375 17.6,41.625 v 1.525 c -0.183,16.25 -6.05,30.142 -17.6,41.675 -11.517,11.517 -25.392,17.367 -41.625,17.55 M -480,-0.75 v 1.525 c -0.183,16.25 -6.05,30.142 -17.6,41.675 C -509.3,54.15 -523.433,60 -540,60 -556.567,60 -570.717,54.15 -582.45,42.45 -593.95,30.917 -599.8,17.025 -600,0.775 V -0.75 c 0.2,-16.25 6.05,-30.125 17.55,-41.625 11.55,-11.55 25.442,-17.425 41.675,-17.625 h 1.55 c 16.233,0.2 30.108,6.075 41.625,17.625 11.55,11.5 17.417,25.375 17.6,41.625 m -120,-120 v 1.525 c -0.2,16.25 -6.067,30.142 -17.6,41.675 -11.517,11.517 -25.392,17.367 -41.625,17.55 h -1.55 c -16.233,-0.183 -30.125,-6.033 -41.675,-17.55 -11.517,-11.533 -17.367,-25.425 -17.55,-41.675 v -1.525 c 0.183,-16.25 6.033,-30.125 17.55,-41.625 11.55,-11.55 25.442,-17.425 41.675,-17.625 h 1.55 c 16.233,0.2 30.108,6.075 41.625,17.625 11.533,11.5 17.4,25.375 17.6,41.625 m 60.775,-59.25 h -1.55 c -16.233,-0.183 -30.125,-6.033 -41.675,-17.55 -11.5,-11.533 -17.35,-25.425 -17.55,-41.675 v -1.525 c 0.2,-16.25 6.05,-30.125 17.55,-41.625 11.55,-11.55 25.442,-17.425 41.675,-17.625 h 1.55 c 16.233,0.2 30.108,6.075 41.625,17.625 11.55,11.5 17.417,25.375 17.6,41.625 v 1.525 c -0.183,16.25 -6.05,30.142 -17.6,41.675 -11.517,11.517 -25.392,17.367 -41.625,17.55 m 120,-120 h -1.55 c -16.233,-0.183 -30.125,-6.033 -41.675,-17.55 -11.5,-11.533 -17.35,-25.425 -17.55,-41.675 v -1.525 c 0.2,-16.25 6.05,-30.133 17.55,-41.65 11.55,-11.533 25.442,-17.4 41.675,-17.6 h 1.55 c 16.233,0.2 30.108,6.067 41.625,17.6 11.55,11.517 17.417,25.4 17.6,41.65 v 1.525 c -0.183,16.25 -6.05,30.142 -17.6,41.675 -11.517,11.517 -25.392,17.367 -41.625,17.55 M -360,-479.225 v -1.525 c 0.2,-16.25 6.05,-30.133 17.55,-41.65 11.55,-11.533 25.442,-17.4 41.675,-17.6 h 1.55 c 16.233,0.2 30.108,6.067 41.625,17.6 11.55,11.517 17.417,25.4 17.6,41.65 v 1.525 c -0.183,16.25 -6.05,30.142 -17.6,41.675 -11.517,11.517 -25.392,17.367 -41.625,17.55 h -1.55 c -16.233,-0.183 -30.125,-6.033 -41.675,-17.55 -11.5,-11.533 -17.35,-25.425 -17.55,-41.675 M -539.225,-420 h -1.55 c -16.233,-0.183 -30.125,-6.033 -41.675,-17.55 -11.5,-11.533 -17.35,-25.425 -17.55,-41.675 v -1.525 c 0.2,-16.25 6.05,-30.133 17.55,-41.65 11.55,-11.533 25.442,-17.4 41.675,-17.6 h 1.55 c 16.233,0.2 30.108,6.067 41.625,17.6 11.55,11.517 17.417,25.4 17.6,41.65 v 1.525 c -0.183,16.25 -6.05,30.142 -17.6,41.675 -11.517,11.517 -25.392,17.367 -41.625,17.55 M -600,-360.75 v 1.525 c -0.2,16.25 -6.067,30.142 -17.6,41.675 -11.517,11.517 -25.392,17.367 -41.625,17.55 h -1.55 c -16.233,-0.183 -30.125,-6.033 -41.675,-17.55 -11.517,-11.533 -17.367,-25.425 -17.55,-41.675 v -1.525 c 0.183,-16.25 6.033,-30.133 17.55,-41.65 11.55,-11.533 25.442,-17.4 41.675,-17.6 h 1.55 c 16.233,0.2 30.108,6.067 41.625,17.6 11.533,11.517 17.4,25.4 17.6,41.65 m 120,-238.475 v -1.525 c 0.2,-16.25 6.05,-30.133 17.55,-41.65 11.55,-11.533 25.442,-17.4 41.675,-17.6 h 1.55 c 16.233,0.2 30.108,6.067 41.625,17.6 11.55,11.517 17.417,25.4 17.6,41.65 v 1.525 c -0.183,16.25 -6.05,30.142 -17.6,41.675 -11.517,11.517 -25.392,17.367 -41.625,17.55 h -1.55 c -16.233,-0.183 -30.125,-6.033 -41.675,-17.55 -11.5,-11.533 -17.35,-25.425 -17.55,-41.675 m -120,-1.525 v 1.525 c -0.2,16.25 -6.067,30.142 -17.6,41.675 -11.517,11.517 -25.392,17.367 -41.625,17.55 h -1.55 c -16.233,-0.183 -30.125,-6.033 -41.675,-17.55 -11.517,-11.533 -17.367,-25.425 -17.55,-41.675 v -1.525 c 0.183,-16.25 6.033,-30.133 17.55,-41.65 11.55,-11.533 25.442,-17.4 41.675,-17.6 h 1.55 c 16.233,0.2 30.108,6.067 41.625,17.6 11.533,11.517 17.4,25.4 17.6,41.65 m 0,-118.475 v -1.525 c 0.2,-16.25 6.05,-30.133 17.55,-41.65 11.55,-11.533 25.442,-17.4 41.675,-17.6 h 1.55 c 16.233,0.2 30.108,6.067 41.625,17.6 11.55,11.517 17.417,25.4 17.6,41.65 v 1.525 c -0.183,16.25 -6.05,30.142 -17.6,41.675 -11.517,11.517 -25.392,17.367 -41.625,17.55 h -1.55 c -16.233,-0.183 -30.125,-6.033 -41.675,-17.55 -11.5,-11.533 -17.35,-25.425 -17.55,-41.675 m 240,0 v -1.525 c 0.2,-16.25 6.05,-30.133 17.55,-41.65 11.55,-11.533 25.442,-17.4 41.675,-17.6 h 1.55 c 16.233,0.2 30.108,6.067 41.625,17.6 11.55,11.517 17.417,25.4 17.6,41.65 v 1.525 c -0.183,16.25 -6.05,30.142 -17.6,41.675 -11.517,11.517 -25.392,17.367 -41.625,17.55 h -1.55 c -16.233,-0.183 -30.125,-6.033 -41.675,-17.55 -11.5,-11.533 -17.35,-25.425 -17.55,-41.675 M -59.225,-420 h -1.55 c -16.233,-0.183 -30.125,-6.033 -41.675,-17.55 -11.5,-11.533 -17.35,-25.425 -17.55,-41.675 v -1.525 c 0.2,-16.25 6.05,-30.133 17.55,-41.65 11.55,-11.533 25.442,-17.4 41.675,-17.6 h 1.55 c 16.233,0.2 30.108,6.067 41.625,17.6 11.733,11.717 17.6,25.85 17.6,42.4 0,16.567 -5.867,30.717 -17.6,42.45 -11.517,11.517 -25.392,17.367 -41.625,17.55 m -120,-120 h -1.55 c -16.233,-0.183 -30.125,-6.033 -41.675,-17.55 -11.5,-11.533 -17.35,-25.425 -17.55,-41.675 v -1.525 c 0.2,-16.25 6.05,-30.133 17.55,-41.65 11.55,-11.533 25.442,-17.4 41.675,-17.6 h 1.55 c 16.233,0.2 30.108,6.067 41.625,17.6 11.55,11.517 17.417,25.4 17.6,41.65 v 1.525 c -0.183,16.25 -6.05,30.142 -17.6,41.675 -11.517,11.517 -25.392,17.367 -41.625,17.55 m 120,-120 h -1.55 c -16.233,-0.183 -30.125,-6.033 -41.675,-17.55 -11.5,-11.533 -17.35,-25.425 -17.55,-41.675 v -1.525 c 0.2,-16.25 6.05,-30.133 17.55,-41.65 11.55,-11.533 25.442,-17.4 41.675,-17.6 h 1.55 c 16.233,0.2 30.108,6.067 41.625,17.6 11.733,11.717 17.6,25.85 17.6,42.4 0,16.567 -5.867,30.717 -17.6,42.45 -11.517,11.517 -25.392,17.367 -41.625,17.55 M -120,-840.75 v 1.525 c -0.183,16.25 -6.05,30.142 -17.6,41.675 -11.517,11.517 -25.392,17.367 -41.625,17.55 h -1.55 c -16.233,-0.183 -30.125,-6.033 -41.675,-17.55 -11.5,-11.533 -17.35,-25.425 -17.55,-41.675 v -1.525 c 0.2,-16.25 6.05,-30.133 17.55,-41.65 11.55,-11.533 25.442,-17.4 41.675,-17.6 h 1.55 c 16.233,0.2 30.108,6.067 41.625,17.6 11.55,11.517 17.417,25.4 17.6,41.65 M -59.225,-900 h -1.55 c -16.233,-0.183 -30.125,-6.033 -41.675,-17.55 -11.5,-11.533 -17.35,-25.425 -17.55,-41.675 v -1.525 c 0.2,-16.25 6.05,-30.133 17.55,-41.65 11.55,-11.533 25.442,-17.4 41.675,-17.6 h 1.55 c 16.233,0.2 30.108,6.067 41.625,17.6 11.733,11.717 17.6,25.85 17.6,42.4 0,16.567 -5.867,30.717 -17.6,42.45 -11.517,11.517 -25.392,17.367 -41.625,17.55 M -257.6,-917.55 c -11.517,11.517 -25.392,17.367 -41.625,17.55 h -1.55 c -16.233,-0.183 -30.125,-6.033 -41.675,-17.55 -11.5,-11.533 -17.35,-25.425 -17.55,-41.675 v -1.525 c 0.2,-16.25 6.05,-30.133 17.55,-41.65 11.55,-11.533 25.442,-17.4 41.675,-17.6 h 1.55 c 16.233,0.2 30.108,6.067 41.625,17.6 11.55,11.517 17.417,25.4 17.6,41.65 v 1.525 c -0.183,16.25 -6.05,30.142 -17.6,41.675 M -419.225,-780 h -1.55 c -16.233,-0.183 -30.125,-6.033 -41.675,-17.55 -11.5,-11.533 -17.35,-25.425 -17.55,-41.675 v -1.525 c 0.2,-16.25 6.05,-30.133 17.55,-41.65 11.55,-11.533 25.442,-17.4 41.675,-17.6 h 1.55 c 16.233,0.2 30.108,6.067 41.625,17.6 11.55,11.517 17.417,25.4 17.6,41.65 v 1.525 c -0.183,16.25 -6.05,30.142 -17.6,41.675 -11.517,11.517 -25.392,17.367 -41.625,17.55 M -600,-840.75 v 1.525 c -0.2,16.25 -6.067,30.142 -17.6,41.675 -11.517,11.517 -25.392,17.367 -41.625,17.55 h -1.55 c -16.233,-0.183 -30.125,-6.033 -41.675,-17.55 -11.517,-11.533 -17.367,-25.425 -17.55,-41.675 v -1.525 c 0.183,-16.25 6.033,-30.133 17.55,-41.65 11.55,-11.533 25.442,-17.4 41.675,-17.6 h 1.55 c 16.233,0.2 30.108,6.067 41.625,17.6 11.533,11.517 17.4,25.4 17.6,41.65 m 60.775,-59.25 h -1.55 c -16.233,-0.183 -30.125,-6.033 -41.675,-17.55 -11.5,-11.533 -17.35,-25.425 -17.55,-41.675 v -1.525 c 0.2,-16.25 6.05,-30.133 17.55,-41.65 11.55,-11.533 25.442,-17.4 41.675,-17.6 h 1.55 c 16.233,0.2 30.108,6.067 41.625,17.6 11.55,11.517 17.417,25.4 17.6,41.65 v 1.525 c -0.183,16.25 -6.05,30.142 -17.6,41.675 -11.517,11.517 -25.392,17.367 -41.625,17.55 M -720,-0.75 v 1.525 c -0.2,16.25 -6.067,30.142 -17.6,41.675 C -749.3,54.15 -763.433,60 -780,60 -796.567,60 -810.717,54.15 -822.45,42.45 -833.967,30.917 -839.817,17.025 -840,0.775 V -0.75 c 0.183,-16.25 6.033,-30.125 17.55,-41.625 11.55,-11.55 25.442,-17.425 41.675,-17.625 h 1.55 c 16.233,0.2 30.108,6.075 41.625,17.625 11.533,11.5 17.4,25.375 17.6,41.625 M -899.225,-60 h -1.55 c -16.233,-0.183 -30.125,-6.033 -41.675,-17.55 -11.517,-11.533 -17.367,-25.425 -17.55,-41.675 v -1.525 c 0.183,-16.25 6.033,-30.125 17.55,-41.625 11.55,-11.55 25.442,-17.425 41.675,-17.625 h 1.55 c 16.233,0.2 30.108,6.075 41.625,17.625 11.533,11.5 17.4,25.375 17.6,41.625 v 1.525 c -0.2,16.25 -6.067,30.142 -17.6,41.675 -11.517,11.517 -25.392,17.367 -41.625,17.55 m 0,-240 h -1.55 c -16.233,-0.183 -30.125,-6.033 -41.675,-17.55 -11.517,-11.533 -17.367,-25.425 -17.55,-41.675 v -1.525 c 0.183,-16.25 6.033,-30.133 17.55,-41.65 11.55,-11.533 25.442,-17.4 41.675,-17.6 h 1.55 c 16.233,0.2 30.108,6.067 41.625,17.6 11.533,11.517 17.4,25.4 17.6,41.65 v 1.525 c -0.2,16.25 -6.067,30.142 -17.6,41.675 -11.517,11.517 -25.392,17.367 -41.625,17.55 m 59.225,60.775 v -1.525 c 0.183,-16.25 6.033,-30.125 17.55,-41.625 11.55,-11.55 25.442,-17.425 41.675,-17.625 h 1.55 c 16.233,0.2 30.108,6.075 41.625,17.625 11.533,11.5 17.4,25.375 17.6,41.625 v 1.525 c -0.2,16.25 -6.067,30.142 -17.6,41.675 -11.517,11.517 -25.392,17.367 -41.625,17.55 h -1.55 c -16.233,-0.183 -30.125,-6.033 -41.675,-17.55 -11.517,-11.533 -17.367,-25.425 -17.55,-41.675 M -960,-0.75 v 1.525 c -0.2,16.25 -6.067,30.142 -17.6,41.675 -11.7,11.7 -25.833,17.55 -42.4,17.55 -16.567,0 -30.717,-5.85 -42.45,-17.55 -11.517,-11.533 -17.367,-25.425 -17.55,-41.675 V -0.75 c 0.183,-16.25 6.033,-30.125 17.55,-41.625 11.55,-11.55 25.442,-17.425 41.675,-17.625 h 1.55 c 16.233,0.2 30.108,6.075 41.625,17.625 11.533,11.5 17.4,25.375 17.6,41.625 m -120,-120 v 1.525 c -0.2,16.25 -6.067,30.142 -17.6,41.675 -11.517,11.517 -25.392,17.367 -41.625,17.55 h -1.55 c -16.233,-0.183 -30.125,-6.033 -41.675,-17.55 -11.517,-11.533 -17.367,-25.425 -17.55,-41.675 v -1.525 c 0.183,-16.25 6.033,-30.125 17.55,-41.625 11.55,-11.55 25.442,-17.425 41.675,-17.625 h 1.55 c 16.233,0.2 30.108,6.075 41.625,17.625 11.533,11.5 17.4,25.375 17.6,41.625 m -120,120 v 1.525 c -0.2,16.25 -6.067,30.142 -17.6,41.675 -11.7,11.7 -25.833,17.55 -42.4,17.55 -16.567,0 -30.717,-5.85 -42.45,-17.55 -11.517,-11.533 -17.367,-25.425 -17.55,-41.675 V -0.75 c 0.183,-16.25 6.033,-30.125 17.55,-41.625 11.55,-11.55 25.442,-17.425 41.675,-17.625 h 1.55 c 16.233,0.2 30.108,6.075 41.625,17.625 11.533,11.5 17.4,25.375 17.6,41.625 M -1259.225,-180 h -1.55 c -16.233,-0.183 -30.125,-6.033 -41.675,-17.55 -11.517,-11.533 -17.367,-25.425 -17.55,-41.675 v -1.525 c 0.183,-16.25 6.033,-30.125 17.55,-41.625 11.55,-11.55 25.442,-17.425 41.675,-17.625 h 1.55 c 16.233,0.2 30.108,6.075 41.625,17.625 11.533,11.5 17.4,25.375 17.6,41.625 v 1.525 c -0.2,16.25 -6.067,30.142 -17.6,41.675 -11.517,11.517 -25.392,17.367 -41.625,17.55 m 120,-120 h -1.55 c -16.233,-0.183 -30.125,-6.033 -41.675,-17.55 -11.517,-11.533 -17.367,-25.425 -17.55,-41.675 v -1.525 c 0.183,-16.25 6.033,-30.133 17.55,-41.65 11.55,-11.533 25.442,-17.4 41.675,-17.6 h 1.55 c 16.233,0.2 30.108,6.067 41.625,17.6 11.533,11.517 17.4,25.4 17.6,41.65 v 1.525 c -0.2,16.25 -6.067,30.142 -17.6,41.675 -11.517,11.517 -25.392,17.367 -41.625,17.55 m 120,120 h -1.55 c -16.233,-0.183 -30.125,-6.033 -41.675,-17.55 -11.517,-11.533 -17.367,-25.425 -17.55,-41.675 v -1.525 c 0.183,-16.25 6.033,-30.125 17.55,-41.625 11.55,-11.55 25.442,-17.425 41.675,-17.625 h 1.55 c 16.233,0.2 30.108,6.075 41.625,17.625 11.533,11.5 17.4,25.375 17.6,41.625 v 1.525 c -0.2,16.25 -6.067,30.142 -17.6,41.675 -11.517,11.517 -25.392,17.367 -41.625,17.55 m 0,-240 h -1.55 c -16.233,-0.183 -30.125,-6.033 -41.675,-17.55 -11.517,-11.533 -17.367,-25.425 -17.55,-41.675 v -1.525 c 0.183,-16.25 6.033,-30.133 17.55,-41.65 11.55,-11.533 25.442,-17.4 41.675,-17.6 h 1.55 c 16.233,0.2 30.108,6.067 41.625,17.6 11.533,11.517 17.4,25.4 17.6,41.65 v 1.525 c -0.2,16.25 -6.067,30.142 -17.6,41.675 -11.517,11.517 -25.392,17.367 -41.625,17.55 m -240,0 h -1.55 c -16.233,-0.183 -30.125,-6.033 -41.675,-17.55 -11.517,-11.533 -17.367,-25.425 -17.55,-41.675 v -1.525 c 0.183,-16.25 6.033,-30.133 17.55,-41.65 11.55,-11.533 25.442,-17.4 41.675,-17.6 h 1.55 c 16.233,0.2 30.108,6.067 41.625,17.6 11.533,11.517 17.4,25.4 17.6,41.65 v 1.525 c -0.2,16.25 -6.067,30.142 -17.6,41.675 -11.517,11.517 -25.392,17.367 -41.625,17.55 m 120,-120 h -1.55 c -16.233,-0.183 -30.125,-6.033 -41.675,-17.55 -11.517,-11.533 -17.367,-25.425 -17.55,-41.675 v -1.525 c 0.183,-16.25 6.033,-30.133 17.55,-41.65 11.55,-11.533 25.442,-17.4 41.675,-17.6 h 1.55 c 16.233,0.2 30.108,6.067 41.625,17.6 11.533,11.517 17.4,25.4 17.6,41.65 v 1.525 c -0.2,16.25 -6.067,30.142 -17.6,41.675 -11.517,11.517 -25.392,17.367 -41.625,17.55 m -120,-120 h -1.55 c -16.233,-0.183 -30.125,-6.033 -41.675,-17.55 -11.517,-11.533 -17.367,-25.425 -17.55,-41.675 v -1.525 c 0.183,-16.25 6.033,-30.133 17.55,-41.65 11.55,-11.533 25.442,-17.4 41.675,-17.6 h 1.55 c 16.233,0.2 30.108,6.067 41.625,17.6 11.533,11.517 17.4,25.4 17.6,41.65 v 1.525 c -0.2,16.25 -6.067,30.142 -17.6,41.675 -11.517,11.517 -25.392,17.367 -41.625,17.55 M -960,-599.225 v -1.525 c 0.183,-16.25 6.033,-30.133 17.55,-41.65 11.55,-11.533 25.442,-17.4 41.675,-17.6 h 1.55 c 16.233,0.2 30.108,6.067 41.625,17.6 11.533,11.517 17.4,25.4 17.6,41.65 v 1.525 c -0.2,16.25 -6.067,30.142 -17.6,41.675 -11.517,11.517 -25.392,17.367 -41.625,17.55 h -1.55 c -16.233,-0.183 -30.125,-6.033 -41.675,-17.55 -11.517,-11.533 -17.367,-25.425 -17.55,-41.675 m -120,-120 v -1.525 c 0.183,-16.25 6.033,-30.133 17.55,-41.65 11.55,-11.533 25.442,-17.4 41.675,-17.6 h 1.55 c 16.233,0.2 30.108,6.067 41.625,17.6 11.533,11.517 17.4,25.4 17.6,41.65 v 1.525 c -0.2,16.25 -6.067,30.142 -17.6,41.675 -11.517,11.517 -25.392,17.367 -41.625,17.55 h -1.55 c -16.233,-0.183 -30.125,-6.033 -41.675,-17.55 -11.517,-11.533 -17.367,-25.425 -17.55,-41.675 M -779.225,-420 h -1.55 c -16.233,-0.183 -30.125,-6.033 -41.675,-17.55 -11.517,-11.533 -17.367,-25.425 -17.55,-41.675 v -1.525 c 0.183,-16.25 6.033,-30.133 17.55,-41.65 11.55,-11.533 25.442,-17.4 41.675,-17.6 h 1.55 c 16.233,0.2 30.108,6.067 41.625,17.6 11.533,11.517 17.4,25.4 17.6,41.65 v 1.525 c -0.2,16.25 -6.067,30.142 -17.6,41.675 -11.517,11.517 -25.392,17.367 -41.625,17.55 M -840,-719.225 v -1.525 c 0.183,-16.25 6.033,-30.133 17.55,-41.65 11.55,-11.533 25.442,-17.4 41.675,-17.6 h 1.55 c 16.233,0.2 30.108,6.067 41.625,17.6 11.533,11.517 17.4,25.4 17.6,41.65 v 1.525 c -0.2,16.25 -6.067,30.142 -17.6,41.675 -11.517,11.517 -25.392,17.367 -41.625,17.55 h -1.55 c -16.233,-0.183 -30.125,-6.033 -41.675,-17.55 -11.517,-11.533 -17.367,-25.425 -17.55,-41.675 M -1379.225,-60 h -1.55 c -16.233,-0.183 -30.125,-6.033 -41.675,-17.55 -11.517,-11.533 -17.367,-25.425 -17.55,-41.675 v -1.525 c 0.183,-16.25 6.033,-30.125 17.55,-41.625 11.55,-11.55 25.442,-17.425 41.675,-17.625 h 1.55 c 16.233,0.2 30.108,6.075 41.625,17.625 11.533,11.5 17.4,25.375 17.6,41.625 v 1.525 c -0.2,16.25 -6.067,30.142 -17.6,41.675 -11.517,11.517 -25.392,17.367 -41.625,17.55 M -1440,-0.75 v 1.525 c -0.2,16.25 -6.067,30.142 -17.6,41.675 -11.7,11.7 -25.833,17.55 -42.4,17.55 -16.567,0 -30.717,-5.85 -42.45,-17.55 -11.517,-11.533 -17.367,-25.425 -17.55,-41.675 V -0.75 c 0.183,-16.25 6.033,-30.125 17.55,-41.625 11.55,-11.55 25.442,-17.425 41.675,-17.625 h 1.55 c 16.233,0.2 30.108,6.075 41.625,17.625 11.533,11.5 17.4,25.375 17.6,41.625 m -120,-120 v 1.525 c -0.2,16.25 -6.067,30.142 -17.6,41.675 -11.517,11.517 -25.392,17.367 -41.625,17.55 h -1.55 c -16.233,-0.183 -30.125,-6.033 -41.675,-17.55 -11.517,-11.533 -17.367,-25.425 -17.55,-41.675 v -1.525 c 0.183,-16.25 6.033,-30.125 17.55,-41.625 11.55,-11.55 25.442,-17.425 41.675,-17.625 h 1.55 c 16.233,0.2 30.108,6.075 41.625,17.625 11.533,11.5 17.4,25.375 17.6,41.625 m 60.775,-59.25 h -1.55 c -16.233,-0.183 -30.125,-6.033 -41.675,-17.55 -11.517,-11.533 -17.367,-25.425 -17.55,-41.675 v -1.525 c 0.183,-16.25 6.033,-30.125 17.55,-41.625 11.55,-11.55 25.442,-17.425 41.675,-17.625 h 1.55 c 16.233,0.2 30.108,6.075 41.625,17.625 11.533,11.5 17.4,25.375 17.6,41.625 v 1.525 c -0.2,16.25 -6.067,30.142 -17.6,41.675 -11.517,11.517 -25.392,17.367 -41.625,17.55 m 120,-120 h -1.55 c -16.233,-0.183 -30.125,-6.033 -41.675,-17.55 -11.517,-11.533 -17.367,-25.425 -17.55,-41.675 v -1.525 c 0.183,-16.25 6.033,-30.133 17.55,-41.65 11.55,-11.533 25.442,-17.4 41.675,-17.6 h 1.55 c 16.233,0.2 30.108,6.067 41.625,17.6 11.533,11.517 17.4,25.4 17.6,41.65 v 1.525 c -0.2,16.25 -6.067,30.142 -17.6,41.675 -11.517,11.517 -25.392,17.367 -41.625,17.55 M -1680,-0.75 v 1.525 c -0.2,16.25 -6.067,30.142 -17.6,41.675 -11.7,11.7 -25.833,17.55 -42.4,17.55 -16.567,0 -30.717,-5.85 -42.45,-17.55 -11.517,-11.533 -17.367,-25.425 -17.55,-41.675 V -0.75 c 0.183,-16.25 6.033,-30.125 17.55,-41.625 11.55,-11.55 25.442,-17.425 41.675,-17.625 h 1.55 c 16.233,0.2 30.108,6.075 41.625,17.625 11.533,11.5 17.4,25.375 17.6,41.625 M -1859.225,-60 h -1.55 c -16.233,-0.183 -30.125,-6.033 -41.675,-17.55 -11.7,-11.733 -17.55,-25.883 -17.55,-42.45 0,-16.55 5.85,-30.675 17.55,-42.375 11.55,-11.55 25.442,-17.425 41.675,-17.625 h 1.55 c 16.233,0.2 30.108,6.075 41.625,17.625 11.533,11.5 17.4,25.375 17.6,41.625 v 1.525 c -0.2,16.25 -6.067,30.142 -17.6,41.675 -11.517,11.517 -25.392,17.367 -41.625,17.55 m 0,-240 h -1.55 c -16.233,-0.183 -30.125,-6.033 -41.675,-17.55 -11.7,-11.733 -17.55,-25.883 -17.55,-42.45 0,-16.55 5.85,-30.683 17.55,-42.4 11.55,-11.533 25.442,-17.4 41.675,-17.6 h 1.55 c 16.233,0.2 30.108,6.067 41.625,17.6 11.533,11.517 17.4,25.4 17.6,41.65 v 1.525 c -0.2,16.25 -6.067,30.142 -17.6,41.675 -11.517,11.517 -25.392,17.367 -41.625,17.55 m 59.225,60.775 v -1.525 c 0.183,-16.25 6.033,-30.125 17.55,-41.625 11.55,-11.55 25.442,-17.425 41.675,-17.625 h 1.55 c 16.233,0.2 30.108,6.075 41.625,17.625 11.533,11.5 17.4,25.375 17.6,41.625 v 1.525 c -0.2,16.25 -6.067,30.142 -17.6,41.675 -11.517,11.517 -25.392,17.367 -41.625,17.55 h -1.55 c -16.233,-0.183 -30.125,-6.033 -41.675,-17.55 -11.517,-11.533 -17.367,-25.425 -17.55,-41.675 M -1619.225,-300 h -1.55 c -16.233,-0.183 -30.125,-6.033 -41.675,-17.55 -11.517,-11.533 -17.367,-25.425 -17.55,-41.675 v -1.525 c 0.183,-16.25 6.033,-30.133 17.55,-41.65 11.55,-11.533 25.442,-17.4 41.675,-17.6 h 1.55 c 16.233,0.2 30.108,6.067 41.625,17.6 11.533,11.517 17.4,25.4 17.6,41.65 v 1.525 c -0.2,16.25 -6.067,30.142 -17.6,41.675 -11.517,11.517 -25.392,17.367 -41.625,17.55 m -120,-120 h -1.55 c -16.233,-0.183 -30.125,-6.033 -41.675,-17.55 -11.517,-11.533 -17.367,-25.425 -17.55,-41.675 v -1.525 c 0.183,-16.25 6.033,-30.133 17.55,-41.65 11.55,-11.533 25.442,-17.4 41.675,-17.6 h 1.55 c 16.233,0.2 30.108,6.067 41.625,17.6 11.533,11.517 17.4,25.4 17.6,41.65 v 1.525 c -0.2,16.25 -6.067,30.142 -17.6,41.675 -11.517,11.517 -25.392,17.367 -41.625,17.55 M -1800,-600.75 v 1.525 c -0.2,16.25 -6.067,30.142 -17.6,41.675 -8.862,8.862 -19.12,14.37 -30.775,16.525 -3.491,0.641 -7.108,0.983 -10.85,1.025 h -1.55 c -16.233,-0.183 -30.125,-6.033 -41.675,-17.55 -11.7,-11.733 -17.55,-25.883 -17.55,-42.45 0,-16.55 5.85,-30.683 17.55,-42.4 11.55,-11.533 25.442,-17.4 41.675,-17.6 h 1.55 c 3.742,0.046 7.359,0.396 10.85,1.05 11.655,2.159 21.913,7.675 30.775,16.55 11.533,11.517 17.4,25.4 17.6,41.65 m 0,-118.475 v -1.525 c 0.183,-16.25 6.033,-30.133 17.55,-41.65 11.55,-11.533 25.442,-17.4 41.675,-17.6 h 1.55 c 16.233,0.2 30.108,6.067 41.625,17.6 11.533,11.517 17.4,25.4 17.6,41.65 v 1.525 c -0.2,16.25 -6.067,30.142 -17.6,41.675 -11.517,11.517 -25.392,17.367 -41.625,17.55 h -1.55 c -16.233,-0.183 -30.125,-6.033 -41.675,-17.55 -11.517,-11.533 -17.367,-25.425 -17.55,-41.675 M -1619.225,-540 h -1.55 c -16.233,-0.183 -30.125,-6.033 -41.675,-17.55 -11.517,-11.533 -17.367,-25.425 -17.55,-41.675 v -1.525 c 0.183,-16.25 6.033,-30.133 17.55,-41.65 11.55,-11.533 25.442,-17.4 41.675,-17.6 h 1.55 c 16.233,0.2 30.108,6.067 41.625,17.6 11.533,11.517 17.4,25.4 17.6,41.65 v 1.525 c -0.2,16.25 -6.067,30.142 -17.6,41.675 -11.517,11.517 -25.392,17.367 -41.625,17.55 m 120,120 h -1.55 c -16.233,-0.183 -30.125,-6.033 -41.675,-17.55 -11.517,-11.533 -17.367,-25.425 -17.55,-41.675 v -1.525 c 0.183,-16.25 6.033,-30.133 17.55,-41.65 11.55,-11.533 25.442,-17.4 41.675,-17.6 h 1.55 c 16.233,0.2 30.108,6.067 41.625,17.6 11.533,11.517 17.4,25.4 17.6,41.65 v 1.525 c -0.2,16.25 -6.067,30.142 -17.6,41.675 -11.517,11.517 -25.392,17.367 -41.625,17.55 M -1440,-599.225 v -1.525 c 0.183,-16.25 6.033,-30.133 17.55,-41.65 11.55,-11.533 25.442,-17.4 41.675,-17.6 h 1.55 c 16.233,0.2 30.108,6.067 41.625,17.6 11.533,11.517 17.4,25.4 17.6,41.65 v 1.525 c -0.2,16.25 -6.067,30.142 -17.6,41.675 -11.517,11.517 -25.392,17.367 -41.625,17.55 h -1.55 c -16.233,-0.183 -30.125,-6.033 -41.675,-17.55 -11.517,-11.533 -17.367,-25.425 -17.55,-41.675 m -120,-120 v -1.525 c 0.183,-16.25 6.033,-30.133 17.55,-41.65 11.55,-11.533 25.442,-17.4 41.675,-17.6 h 1.55 c 16.233,0.2 30.108,6.067 41.625,17.6 11.533,11.517 17.4,25.4 17.6,41.65 v 1.525 c -0.2,16.25 -6.067,30.142 -17.6,41.675 -11.517,11.517 -25.392,17.367 -41.625,17.55 h -1.55 c -16.233,-0.183 -30.125,-6.033 -41.675,-17.55 -11.517,-11.533 -17.367,-25.425 -17.55,-41.675 M -1379.225,-780 h -1.55 c -16.233,-0.183 -30.125,-6.033 -41.675,-17.55 -11.517,-11.533 -17.367,-25.425 -17.55,-41.675 v -1.525 c 0.183,-16.25 6.033,-30.133 17.55,-41.65 11.55,-11.533 25.442,-17.4 41.675,-17.6 h 1.55 c 16.233,0.2 30.108,6.067 41.625,17.6 11.533,11.517 17.4,25.4 17.6,41.65 v 1.525 c -0.2,16.25 -6.067,30.142 -17.6,41.675 -11.517,11.517 -25.392,17.367 -41.625,17.55 M -1560,-840.75 v 1.525 c -0.2,16.25 -6.067,30.142 -17.6,41.675 -11.517,11.517 -25.392,17.367 -41.625,17.55 h -1.55 c -16.233,-0.183 -30.125,-6.033 -41.675,-17.55 -11.517,-11.533 -17.367,-25.425 -17.55,-41.675 v -1.525 c 0.183,-16.25 6.033,-30.133 17.55,-41.65 11.55,-11.533 25.442,-17.4 41.675,-17.6 h 1.55 c 16.233,0.2 30.108,6.067 41.625,17.6 11.533,11.517 17.4,25.4 17.6,41.65 m 60.775,-59.25 h -1.55 c -16.233,-0.183 -30.125,-6.033 -41.675,-17.55 -11.517,-11.533 -17.367,-25.425 -17.55,-41.675 v -1.525 c 0.183,-16.25 6.033,-30.133 17.55,-41.65 11.55,-11.533 25.442,-17.4 41.675,-17.6 h 1.55 c 16.233,0.2 30.108,6.067 41.625,17.6 11.533,11.517 17.4,25.4 17.6,41.65 v 1.525 c -0.2,16.25 -6.067,30.142 -17.6,41.675 -11.517,11.517 -25.392,17.367 -41.625,17.55 M -1320,-959.225 v -1.525 c 0.183,-16.25 6.033,-30.133 17.55,-41.65 11.55,-11.533 25.442,-17.4 41.675,-17.6 h 1.55 c 16.233,0.2 30.108,6.067 41.625,17.6 11.533,11.517 17.4,25.4 17.6,41.65 v 1.525 c -0.2,16.25 -6.067,30.142 -17.6,41.675 -11.517,11.517 -25.392,17.367 -41.625,17.55 h -1.55 c -16.233,-0.183 -30.125,-6.033 -41.675,-17.55 -11.517,-11.533 -17.367,-25.425 -17.55,-41.675 M -1739.225,-900 h -1.55 c -16.233,-0.183 -30.125,-6.033 -41.675,-17.55 -11.517,-11.533 -17.367,-25.425 -17.55,-41.675 v -1.525 c 0.183,-16.25 6.033,-30.133 17.55,-41.65 11.55,-11.533 25.442,-17.4 41.675,-17.6 h 1.55 c 16.233,0.2 30.108,6.067 41.625,17.6 11.533,11.517 17.4,25.4 17.6,41.65 v 1.525 c -0.2,16.25 -6.067,30.142 -17.6,41.675 -11.517,11.517 -25.392,17.367 -41.625,17.55 m -120,120 h -1.55 c -16.233,-0.183 -30.125,-6.033 -41.675,-17.55 -11.7,-11.733 -17.55,-25.883 -17.55,-42.45 0,-16.55 5.85,-30.683 17.55,-42.4 11.55,-11.533 25.442,-17.4 41.675,-17.6 h 1.55 c 16.233,0.2 30.108,6.067 41.625,17.6 11.533,11.517 17.4,25.4 17.6,41.65 v 1.525 c -0.2,16.25 -6.067,30.142 -17.6,41.675 -11.517,11.517 -25.392,17.367 -41.625,17.55 m 1080,-120 h -1.55 c -16.233,-0.183 -30.125,-6.033 -41.675,-17.55 -11.517,-11.533 -17.367,-25.425 -17.55,-41.675 v -1.525 c 0.183,-16.25 6.033,-30.133 17.55,-41.65 11.55,-11.533 25.442,-17.4 41.675,-17.6 h 1.55 c 16.233,0.2 30.108,6.067 41.625,17.6 11.533,11.517 17.4,25.4 17.6,41.65 v 1.525 c -0.2,16.25 -6.067,30.142 -17.6,41.675 -11.517,11.517 -25.392,17.367 -41.625,17.55 m -120,120 h -1.55 c -16.233,-0.183 -30.125,-6.033 -41.675,-17.55 -11.517,-11.533 -17.367,-25.425 -17.55,-41.675 v -1.525 c 0.183,-16.25 6.033,-30.133 17.55,-41.65 11.55,-11.533 25.442,-17.4 41.675,-17.6 h 1.55 c 16.233,0.2 30.108,6.067 41.625,17.6 11.533,11.517 17.4,25.4 17.6,41.65 v 1.525 c -0.2,16.25 -6.067,30.142 -17.6,41.675 -11.517,11.517 -25.392,17.367 -41.625,17.55 M -1080,-840.75 v 1.525 c -0.2,16.25 -6.067,30.142 -17.6,41.675 -11.517,11.517 -25.392,17.367 -41.625,17.55 h -1.55 c -16.233,-0.183 -30.125,-6.033 -41.675,-17.55 -11.517,-11.533 -17.367,-25.425 -17.55,-41.675 v -1.525 c 0.183,-16.25 6.033,-30.133 17.55,-41.65 11.55,-11.533 25.442,-17.4 41.675,-17.6 h 1.55 c 16.233,0.2 30.108,6.067 41.625,17.6 11.533,11.517 17.4,25.4 17.6,41.65 m 60.775,-59.25 h -1.55 c -16.233,-0.183 -30.125,-6.033 -41.675,-17.55 -11.517,-11.533 -17.367,-25.425 -17.55,-41.675 v -1.525 c 0.183,-16.25 6.033,-30.133 17.55,-41.65 11.55,-11.533 25.442,-17.4 41.675,-17.6 h 1.55 c 16.233,0.2 30.108,6.067 41.625,17.6 11.533,11.517 17.4,25.4 17.6,41.65 v 1.525 c -0.2,16.25 -6.067,30.142 -17.6,41.675 -11.517,11.517 -25.392,17.367 -41.625,17.55"
             style="fill:#70f8f8;fill-opacity:1;fill-rule:nonzero;stroke:none"
             id="path26" />
        </g>
        <g
           id="g28"
           transform="translate(1876.1749,660.55)">
          <path
             d="m 0,0 -0.125,0.2 -25.025,-7.125 -12,-15.35 9.1,-13.575 z m -4.025,-97.375 0.175,0.225 -22.2,33.125 -33.975,12.55 -36.225,-46.225 -0.95,-26.025 0.25,-0.075 36.925,47.125 56,-20.7 m -147.35,54.325 -0.025,-0.25 55.475,-20.25 0.9,24.875 -18.15,6.625 -38.2,-11 m -121.525,393.7 -0.125,0.2 -25.025,-7.125 -12,-15.35 9.1,-13.575 28.05,35.85 m -4.025,-97.375 0.175,0.225 -22.2,33.125 -33.975,12.55 -36.225,-46.225 -0.95,-26.025 0.25,-0.075 36.925,47.125 56,-20.7 m -91,58.7 -18.15,6.625 -38.2,-11 -0.025,-0.25 55.475,-20.25 0.9,24.875 m -241.05,-919.775 -25.025,-7.125 -12,-15.35 9.1,-13.575 28.05,35.85 -0.125,0.2 m -25.925,-64.225 -33.975,12.55 -36.225,-46.225 -0.95,-26.025 0.25,-0.075 36.925,47.125 56,-20.7 0.175,0.225 -22.2,33.125 m -125.325,20.975 -0.025,-0.25 55.475,-20.25 0.9,24.875 -18.15,6.625 -38.2,-11 m -167.4,1098.475 -0.125,0.2 -25.025,-7.125 -12,-15.35 9.1,-13.575 28.05,35.85 m -4.025,-97.375 0.175,0.225 -22.2,33.125 -33.975,12.55 -36.225,-46.225 -0.95,-26.025 0.25,-0.075 36.925,47.125 56,-20.7 m -91,58.7 -18.15,6.625 -38.2,-11 -0.025,-0.25 55.475,-20.25 0.9,24.875 m -798.175,-672.775 -0.125,0.2 -25.025,-7.125 -12,-15.35 9.1,-13.575 28.05,35.85 m -4.025,-97.375 0.175,0.225 -22.2,33.125 -33.975,12.55 -36.225,-46.225 -0.95,-26.025 0.25,-0.075 36.925,47.125 56,-20.7 m -91.9,33.825 0.9,24.875 -18.15,6.625 -38.2,-11 -0.025,-0.25 55.475,-20.25 m 262.825,-233.375 -0.125,0.2 -25.025,-7.125 -12,-15.35 9.1,-13.575 28.05,35.85 m -95.025,-38.675 -18.15,6.625 -38.2,-11 -0.025,-0.25 55.475,-20.25 0.9,24.875 m 91,-58.7 0.175,0.225 -22.2,33.125 -33.975,12.55 -36.225,-46.225 -0.95,-26.025 0.25,-0.075 36.925,47.125 56,-20.7 m 288.725,983.125 -12.025,-15.35 9.1,-13.575 28.05,35.85 -0.125,0.2 -25,-7.125 m -126.25,-36.125 -0.025,-0.25 55.475,-20.25 0.9,24.875 -18.125,6.625 -38.225,-11 m 125.325,-21 -33.975,12.575 -36.225,-46.25 -0.95,-26 0.25,-0.075 36.925,47.125 56,-20.7 0.175,0.225 z"
             style="fill:#10c0b8;fill-opacity:1;fill-rule:nonzero;stroke:none"
             id="path30" />
        </g>
        <g
           id="g32"
           transform="translate(1876.1749,685.75)">
          <path
             d="M 0,0 -0.125,0.2 -57.775,-16.225 -90.95,33.3 -91.2,33.225 -93.525,-26.4 l -57.85,-16.65 -0.025,-0.25 38.225,-13.95 18.15,-6.625 -0.9,-24.875 -1.275,-34.975 0.25,-0.075 0.7,0.9 36.225,46.225 33.975,-12.55 22.025,-8.15 0.175,0.225 -24.2,36.1 -9.1,13.575 12,15.35 z m -608.85,-608 -0.125,0.2 -57.65,-16.425 -33.175,49.525 -0.25,-0.075 -2.325,-59.625 -57.85,-16.65 -0.025,-0.25 38.225,-13.95 18.15,-6.625 -0.9,-24.875 -1.275,-34.975 0.25,-0.075 0.7,0.9 36.225,46.225 33.975,-12.55 22.025,-8.15 0.175,0.225 -24.2,36.1 -9.1,13.575 12,15.35 25.15,32.125 m -1302.925,377.275 -0.25,-0.075 -2.325,-59.625 -57.85,-16.65 -0.025,-0.25 38.225,-13.95 18.15,-6.625 -0.9,-24.875 -1.275,-34.975 0.25,-0.075 0.7,0.9 36.225,46.225 33.975,-12.55 22.025,-8.15 0.175,0.225 -24.2,36.1 -9.1,13.575 12,15.35 25.15,32.125 -0.125,0.2 -57.65,-16.425 -33.175,49.525 m 476.725,595.75 -0.25,-0.075 -2.325,-59.625 -57.85,-16.65 -0.025,-0.25 38.25,-13.95 18.125,-6.625 -0.9,-24.875 -1.275,-34.975 0.25,-0.075 0.7,0.875 36.225,46.25 33.975,-12.575 22.025,-8.125 0.175,0.225 -24.2,36.1 -9.1,13.575 12.025,15.35 25.125,32.125 -0.125,0.2 -57.65,-16.425 z"
             style="fill:#f85000;fill-opacity:1;fill-rule:nonzero;stroke:none"
             id="path34" />
        </g>
        <g
           id="g36"
           transform="translate(1603.2749,1036.4)">
          <path
             d="M 0,0 -0.125,0.2 -57.775,-16.225 -90.95,33.3 -91.2,33.225 -93.525,-26.4 l -57.85,-16.65 -0.025,-0.25 38.225,-13.95 18.15,-6.625 -0.9,-24.875 -1.275,-34.975 0.25,-0.075 0.7,0.9 36.225,46.225 33.975,-12.55 22.025,-8.15 0.175,0.225 -24.2,36.1 -9.1,13.575 12,15.35 z m -654.725,96.775 -0.125,0.2 -57.65,-16.425 -33.175,49.525 -0.25,-0.075 -2.325,-59.625 -57.85,-16.65 -0.025,-0.25 38.225,-13.95 18.15,-6.625 -0.9,-24.875 -1.275,-34.975 0.25,-0.075 0.7,0.9 36.225,46.225 33.975,-12.55 22.025,-8.15 0.175,0.225 -24.2,36.1 -9.1,13.575 12,15.35 25.15,32.125 m -726.3,-1008.375 -0.125,0.2 -57.65,-16.425 -33.175,49.525 -0.25,-0.075 -2.325,-59.625 -57.85,-16.65 -0.025,-0.25 38.225,-13.95 18.15,-6.625 -0.9,-24.875 -1.275,-34.975 0.25,-0.075 0.7,0.9 36.225,46.225 33.975,-12.55 22.025,-8.15 0.175,0.225 -24.2,36.1 -9.1,13.575 12,15.35 z"
             style="fill:#f8d008;fill-opacity:1;fill-rule:nonzero;stroke:none"
             id="path38" />
        </g>
        <g
           id="g40"
           transform="translate(1583.425,1096.625)">
          <path
             d="m 0,0 -12.45,-3.425 -7.15,10.35 h -0.05 l -0.5,-12.5 -12.5,-3.475 V -9.1 l 12.175,-4.3 -0.475,-12.55 h 0.05 l 7.975,9.85 12.075,-4.325 0.05,0.05 -7.2,10.4 8.025,9.925 z M 1.325,-607.95 1.175,-608 -0.15,-641.85 -33,-651.3 v -0.15 l 32,-11.675 -1.225,-33.975 0.125,-0.05 20.975,26.75 31.775,-11.75 0.1,0.15 -18.9,28.175 21.1,26.95 -0.075,0.125 -32.725,-9.325 -18.825,28.125 m 190.25,-378.025 -0.15,-0.05 -1.325,-33.85 -32.85,-9.45 v -0.15 l 32,-11.675 -1.225,-33.975 0.125,-0.05 20.975,26.75 31.775,-11.75 0.1,0.15 -18.9,28.175 21.1,26.95 -0.075,0.125 -32.725,-9.325 -18.825,28.125 m -297.25,-55.425 -7.15,10.35 h -0.05 l -0.5,-12.5 -12.5,-3.475 v -0.05 l 12.175,-4.3 -0.475,-12.55 h 0.05 l 7.975,9.85 12.075,-4.325 0.05,0.05 -7.2,10.4 8.025,9.925 -0.025,0.05 -12.45,-3.425 m -177.3,1067.775 -0.075,0.125 -32.725,-9.325 -18.825,28.125 -0.15,-0.05 -1.325,-33.85 -32.85,-9.45 V 1.8 l 32,-11.675 -1.225,-33.975 0.125,-0.05 20.975,26.75 31.775,-11.75 0.1,0.15 -18.9,28.175 21.1,26.95 M -445.1,-0.2 l -12.45,-3.425 -7.15,10.35 h -0.05 l -0.5,-12.5 -12.5,-3.475 V -9.3 l 12.175,-4.3 -0.475,-12.55 h 0.05 l 7.975,9.85 12.075,-4.325 0.05,0.05 -7.2,10.4 8.025,9.925 -0.025,0.05 m -441.375,-107.975 -0.15,-0.05 -1.325,-33.85 -32.85,-9.45 v -0.15 l 32,-11.675 -1.225,-33.975 0.125,-0.05 20.975,26.75 31.775,-11.75 0.1,0.15 -18.9,28.175 21.1,26.95 -0.075,0.125 -32.725,-9.325 -18.825,28.125 m -314.3,-122.95 v -0.05 l 12.175,-4.3 -0.475,-12.55 h 0.05 l 7.975,9.85 12.075,-4.325 0.05,0.05 -7.2,10.4 8.025,9.925 -0.025,0.05 -12.45,-3.425 -7.15,10.35 h -0.05 l -0.5,-12.5 -12.5,-3.475 m -167.775,-257.825 -0.15,-0.05 -1.325,-33.85 -32.85,-9.45 v -0.15 l 32,-11.675 -1.225,-33.975 0.125,-0.05 20.975,26.75 31.775,-11.75 0.1,0.15 -18.9,28.175 21.1,26.95 -0.075,0.125 -32.725,-9.325 -18.825,28.125 m -61.5,-80.1 -0.025,0.05 -12.45,-3.425 -7.15,10.35 h -0.05 l -0.5,-12.5 -12.5,-3.475 v -0.05 l 12.175,-4.3 -0.475,-12.55 h 0.05 l 7.975,9.85 12.075,-4.325 0.05,0.05 -7.2,10.4 8.025,9.925 m -113.775,-348.075 h -0.05 l -0.5,-12.5 -12.5,-3.475 v -0.05 l 12.175,-4.3 -0.475,-12.55 h 0.05 l 7.975,9.85 12.075,-4.325 0.05,0.05 -7.2,10.4 8.025,9.925 -0.025,0.05 -12.45,-3.425 -7.15,10.35 m 715.2,-131.95 -0.15,-0.05 -1.325,-33.85 -32.85,-9.45 v -0.15 l 32,-11.675 -1.225,-33.975 0.125,-0.05 20.975,26.75 31.775,-11.75 0.1,0.15 -18.9,28.175 21.1,26.95 -0.075,0.125 -32.725,-9.325 z"
             style="fill:#f85000;fill-opacity:1;fill-rule:nonzero;stroke:none"
             id="path42" />
        </g>
        <g
           id="g44"
           transform="translate(1824.75,1004.725)">
          <path
             d="m 0,0 -0.15,-0.05 -1.325,-33.85 -32.85,-9.45 v -0.15 l 32,-11.675 -1.225,-33.975 0.125,-0.05 20.975,26.75 31.775,-11.75 0.1,0.15 -18.9,28.175 21.1,26.95 -0.075,0.125 -32.725,-9.325 z m 69.9,-498.225 12.175,-4.3 -0.475,-12.55 h 0.05 l 7.975,9.85 12.075,-4.325 0.05,0.05 -7.2,10.4 8.025,9.925 -0.025,0.05 -12.45,-3.425 -7.15,10.35 H 82.9 l -0.5,-12.5 -12.5,-3.475 v -0.05 m -402.85,-336.05 -0.15,-0.05 -1.325,-33.85 -32.85,-9.45 v -0.15 l 32,-11.675 -1.225,-33.975 0.125,-0.05 20.975,26.75 31.775,-11.75 0.1,0.15 -18.9,28.175 21.1,26.95 -0.075,0.125 -32.725,-9.325 -18.825,28.125 m -486.525,836.2 -0.025,0.05 -12.45,-3.425 -7.15,10.35 h -0.05 l -0.5,-12.5 -12.5,-3.475 v -0.05 l 12.175,-4.3 -0.475,-12.55 h 0.05 l 7.975,9.85 12.075,-4.325 0.05,0.05 -7.2,10.4 8.025,9.925 m -884.575,58.2 -0.15,-0.05 -1.325,-33.85 -32.85,-9.45 v -0.15 l 32,-11.675 -1.225,-33.975 0.125,-0.05 20.975,26.75 31.775,-11.75 0.1,0.15 -18.9,28.175 21.1,26.95 -0.075,0.125 -32.725,-9.325 -18.825,28.125 m 64.1,-580.675 -7.15,10.35 h -0.05 l -0.5,-12.5 -12.5,-3.475 v -0.05 l 12.175,-4.3 -0.475,-12.55 h 0.05 l 7.975,9.85 12.075,-4.325 0.05,0.05 -7.2,10.4 8.025,9.925 -0.025,0.05 -12.45,-3.425 m 198.875,-226.65 v -0.05 l 12.175,-4.3 -0.475,-12.55 h 0.05 l 7.975,9.85 12.075,-4.325 0.05,0.05 -7.2,10.4 8.025,9.925 -0.025,0.05 -12.45,-3.425 -7.15,10.35 h -0.05 l -0.5,-12.5 -12.5,-3.475 m 27.85,-69.3 v -0.15 l 32,-11.675 -1.225,-33.975 0.125,-0.05 20.975,26.75 31.775,-11.75 0.1,0.15 -18.9,28.175 21.1,26.95 -0.075,0.125 -32.725,-9.325 -18.825,28.125 -0.15,-0.05 -1.325,-33.85 -32.85,-9.45 m 262.2,-139.625 -0.5,-12.5 -12.5,-3.475 v -0.05 l 12.175,-4.3 -0.475,-12.55 h 0.05 l 7.975,9.85 12.075,-4.325 0.05,0.05 -7.2,10.4 8.025,9.925 -0.025,0.05 -12.45,-3.425 -7.15,10.35 h -0.05 m 355.15,-4.175 -0.15,-0.05 -1.325,-33.85 -32.85,-9.45 v -0.15 l 32,-11.675 -1.225,-33.975 0.125,-0.05 20.975,26.75 31.775,-11.75 0.1,0.15 -18.9,28.175 21.1,26.95 -0.075,0.125 -32.725,-9.325 -18.825,28.125 m 268.925,12.2 H -527 l -0.5,-12.5 -12.5,-3.475 v -0.05 l 12.175,-4.3 -0.475,-12.55 h 0.05 l 7.975,9.85 12.075,-4.325 0.05,0.05 -7.2,10.4 8.025,9.925 -0.025,0.05 -12.45,-3.425 z"
             style="fill:#f8d008;fill-opacity:1;fill-rule:nonzero;stroke:none"
             id="path46" />
        </g>
        <g
           id="g48"
           transform="translate(1391.6111,532.7051)">
          <path
             d="m 0,0 c -27.074,27.399 -60.916,45.782 -97.801,53.56 0.014,0.961 0.022,1.922 0.022,2.882 0,28.091 -5.967,55.421 -17.451,80.552 44.634,36.558 71.28,91.582 71.28,150.419 0,107.183 -87.2,194.382 -194.384,194.382 -56.814,0 -110.237,-24.735 -146.95,-67.135 -7.426,0.862 -14.885,1.296 -22.327,1.296 -50.267,0 -97.286,-18.866 -133.056,-52.632 -27.915,14.934 -58.954,22.715 -91.267,22.715 -107.183,0 -194.382,-87.199 -194.382,-194.381 0,-43.892 15.056,-86.921 42.395,-121.16 18.585,-23.275 42.37,-41.963 69.061,-54.602 -4.863,-17.189 -7.372,-35.055 -7.372,-52.957 0,-20.978 3.393,-41.728 9.959,-61.443 -26.161,-12.551 -49.49,-30.927 -67.819,-53.757 -27.549,-34.313 -42.721,-77.482 -42.721,-121.561 0,-107.183 87.2,-194.383 194.382,-194.383 53.585,0 103.79,21.644 140.375,59.965 0.485,-0.003 0.969,-0.006 1.453,-0.006 37.687,0 73.568,10.555 104.817,30.687 15.425,-3.871 31.27,-5.827 47.305,-5.827 53.438,0 104.362,22.205 140.806,60.457 17.89,-5.338 36.43,-8.032 55.387,-8.032 107.181,0 194.382,87.2 194.382,194.384 C 56.094,-85.109 36.172,-36.605 0,0"
             style="fill:#00b3f0;fill-opacity:1;fill-rule:nonzero;stroke:none"
             id="path50" />
        </g>
        <g
           id="g52"
           transform="translate(1378.8909,520.1354)">
          <path
             d="m 0,0 c -28.222,28.563 -64.552,46.335 -103.854,51.134 0.606,5.951 0.911,11.922 0.911,17.877 0,30.314 -7.654,59.651 -22.269,85.817 47.338,32.777 76.097,86.908 76.097,145.155 0,97.322 -79.177,176.499 -176.498,176.499 -54.817,0 -106.155,-25.36 -139.514,-68.38 -9.861,1.687 -19.831,2.541 -29.764,2.541 -50.113,0 -96.674,-20.657 -130.064,-57.196 -28.171,17.895 -60.445,27.279 -94.259,27.279 -97.322,0 -176.498,-79.177 -176.498,-176.499 0,-75.05 46.676,-140.586 115.716,-165.732 -7.646,-20.041 -11.633,-41.483 -11.633,-62.986 0,-24.588 5.133,-48.826 14.966,-71.144 -29.899,-11.043 -56.643,-30.191 -76.764,-55.253 -25.009,-31.148 -38.782,-70.342 -38.782,-110.364 0,-97.322 79.177,-176.499 176.498,-176.499 51.267,0 99.129,21.826 132.708,60.194 40.149,-2.053 78.453,9.139 110.741,31.986 16.365,-4.887 33.311,-7.361 50.501,-7.361 52.283,0 101.922,23.418 135.315,63.247 19.473,-7.187 39.893,-10.822 60.878,-10.822 97.322,0 176.497,79.177 176.497,176.499 C 50.929,-77.276 32.842,-33.236 0,0"
             style="fill:#ffffff;fill-opacity:1;fill-rule:nonzero;stroke:none"
             id="path54" />
        </g>
        <g
           id="g56"
           transform="translate(1255.4501,555.6299)">
          <path
             d="m 0,0 c 2.312,10.811 3.556,22.017 3.556,33.517 0,33.938 -10.628,65.376 -28.692,91.237 49.193,27.179 82.521,79.556 82.521,139.734 0,88.121 -71.436,159.557 -159.557,159.557 -55.016,0 -103.526,-27.848 -132.211,-70.214 -11.9,2.833 -24.3,4.375 -37.067,4.375 -51.844,0 -97.893,-24.743 -127.037,-63.046 -26.932,20.755 -60.655,33.129 -97.286,33.129 -88.12,0 -159.556,-71.436 -159.556,-159.556 0,-75.214 52.058,-138.233 122.098,-155.091 -11.485,-22.034 -18.015,-47.062 -18.015,-73.628 0,-29.771 8.178,-57.622 22.373,-81.473 -70.47,-16.549 -122.953,-79.769 -122.953,-155.288 0,-88.121 71.435,-159.557 159.556,-159.557 50.823,0 96.062,23.792 125.281,60.813 5.44,-0.561 10.959,-0.854 16.547,-0.854 37.202,0 71.4,12.767 98.535,34.111 16.752,-5.973 34.784,-9.251 53.587,-9.251 53.55,0 100.903,26.409 129.843,66.883 20.21,-9.257 42.666,-14.457 66.35,-14.457 88.12,0 159.556,71.436 159.556,159.556 C 157.429,-72.096 87.135,-1.144 0,0"
             style="fill:#130c0e;fill-opacity:1;fill-rule:nonzero;stroke:none"
             id="path58" />
        </g>
        <g
           id="g60"
           transform="translate(1260.8774,415.5782)">
          <path
             d="m 0,0 v 31.833 c 0,5.242 4.271,10.809 9.561,12.427 l 4.085,1.248 V 66.893 L -61.358,43.963 V 22.578 l 7.256,2.218 c 3.547,1.084 6.39,-0.898 6.39,-4.376 v -98.645 c 0,-5.242 -4.271,-10.809 -9.562,-12.426 l -4.084,-1.249 v -21.385 l 75.003,22.931 v 21.385 L 6.39,-71.187 C 2.843,-72.272 0,-70.29 0,-66.811 v 40.369 c 0,0 34.296,12.809 82.883,-29.249 V -9.609 C 46.388,14.626 0,0 0,0 m 74.944,28.66 c 6.759,2.067 10.562,9.22 8.496,15.979 -2.066,6.758 -9.22,10.562 -15.978,8.496 -6.759,-2.067 -10.563,-9.22 -8.496,-15.979 2.066,-6.758 9.22,-10.562 15.978,-8.496 M 29.678,28.202 c -2.067,6.758 1.737,13.912 8.495,15.978 6.759,2.067 13.912,-1.737 15.979,-8.495 2.066,-6.759 -1.738,-13.913 -8.496,-15.979 -6.759,-2.066 -13.912,1.738 -15.978,8.496"
             style="fill:#faa61a;fill-opacity:1;fill-rule:nonzero;stroke:none"
             id="path62" />
        </g>
        <g
           id="g64"
           transform="translate(1129.2388,348.6158)">
          <path
             d="m 0,0 c 0,0 -3.314,-48.172 -32.291,-63.602 v 97.477 c 10e-4,4.66 3.757,9.559 8.417,10.984 l 4.707,1.439 v 20.957 l -60.341,-18.448 10e-4,-154.776 39.325,12.023 c 63.186,19.318 77.051,65.922 85.35,107.755 z M -99.953,24.587 V -70.18 c 0,-23.205 -18.827,-47.796 -42.029,-54.889 l -16.743,-5.119 v 28.054 c 11.22,3.43 20.257,15.264 20.257,26.485 v 59.248 c 0,4.66 -3.747,7.264 -8.417,5.836 l -4.469,-1.367 V 8.872 Z"
             style="fill:#f15a22;fill-opacity:1;fill-rule:nonzero;stroke:none"
             id="path66" />
        </g>
        <g
           id="g68"
           transform="translate(868.338,286.7877)">
          <path
             d="M 0,0 V -28.636 L 87.681,-1.829 V 26.807 Z"
             style="fill:#faa61a;fill-opacity:1;fill-rule:nonzero;stroke:none"
             id="path70" />
        </g>
        <g
           id="g72"
           transform="translate(865.5615,377.7398)">
          <path
             d="m 0,0 c -2.088,6.831 -9.319,10.675 -16.149,8.587 -6.831,-2.089 -10.675,-9.319 -8.587,-16.15 2.088,-6.83 9.319,-10.675 16.149,-8.586 C -1.756,-14.061 2.088,-6.831 0,0 m -178.596,-102.108 85.731,26.21 c 10.494,3.209 18.924,-2.674 18.924,-13.134 v -61.295 l -104.655,-31.996 v -28.101 l 151.919,46.446 v 102.381 c 0,4.042 3.264,8.372 7.37,9.627 l 7.703,2.356 v 26.912 l -166.992,-51.054 z m 124.648,85.614 c -2.088,6.831 1.756,14.062 8.587,16.15 6.83,2.088 14.061,-1.756 16.149,-8.587 2.088,-6.831 -1.756,-14.061 -8.587,-16.149 -6.83,-2.089 -14.061,1.756 -16.149,8.586"
             style="fill:#f15a22;fill-opacity:1;fill-rule:nonzero;stroke:none"
             id="path74" />
        </g>
        <g
           id="g76"
           transform="translate(1140.2697,626.5495)">
          <path
             d="m 0,0 -95.747,-29.273 c -5.148,-1.557 -8.216,-6.069 -8.216,-11.974 v -109.175 l 95.747,29.273 c 4.763,1.428 8.216,5.651 8.216,11.975 z m 38.61,32.685 v -160.348 l -181.164,-55.388 V -22.702 Z M -17.956,-93.467 v 15.342 l -10.872,-3.324 V -96.79 Z m 0,-20.943 -68.032,-20.799 v 12.495 l 12.01,3.672 c 4.905,1.5 7.812,5.41 7.812,11.881 v 22.744 l -19.822,-6.061 v 13.502 l 19.822,6.061 v 23.29 c 0,2.702 -1.627,6.341 -9.113,4.052 l -10.709,-3.274 v 12.579 l 68.032,20.799 v -12.578 l -11.878,-3.632 c -5.075,-1.551 -7.945,-5.335 -7.945,-11.893 v -20.664 l 19.823,6.06 v -13.502 l -19.823,-6.06 v -25.37 c 0,-3.993 3.068,-5.929 9.246,-4.04 l 10.577,3.234 z"
             style="fill:#f15a22;fill-opacity:1;fill-rule:nonzero;stroke:none"
             id="path78" />
        </g>
        <g
           id="g80"
           transform="translate(1132.3003,654.7516)">
          <path
             d="m 0,0 c -5.45,3.221 -8.126,4.112 -15.31,6.59 -1.487,0.545 -3.32,1.536 -3.32,3.319 0,1.735 1.784,4.113 3.915,6.689 8.423,10.157 8.571,10.455 10.553,13.229 l 3.419,-1.585 c -4.658,-5.896 -5.5,-6.788 -12.536,-14.815 -0.693,-0.743 -1.139,-1.437 -1.139,-2.031 0,-0.892 1.486,-1.338 2.378,-1.586 C -7.581,8.522 0.05,5.698 3.072,3.815 Z"
             style="fill:#f15a22;fill-opacity:1;fill-rule:nonzero;stroke:none"
             id="path82" />
        </g>
        <g
           id="g84"
           transform="translate(1046.937,644.2453)">
          <path
             d="m 0,0 c -2.69,-3.619 -2.788,-6.212 -2.788,-6.848 0,-4.451 6.065,-2.69 10.761,-1.271 3.081,0.929 6.211,2.005 9.244,3.424 l 0.098,-3.816 c -1.076,-0.538 -3.277,-1.467 -8.169,-2.983 -6.211,-1.859 -8.901,-2.397 -11.592,-1.81 -2.2,0.489 -3.864,2.592 -3.864,5.283 0,3.179 1.419,5.722 3.718,9.293 z M 15.652,17.608 V 14.233 C 11.69,12.277 8.853,9.978 5.234,6.407 L 2.984,8.168 C 4.011,9.244 4.206,9.44 6.261,11.103 L 6.212,11.152 C 1.956,9.782 -2.397,8.413 -4.94,7.483 v 3.864 c 0.929,0.245 4.842,1.419 6.456,1.908 z m 5.869,-6.897 c -1.37,2.446 -2.299,3.473 -2.788,4.011 l 2.054,1.957 c 1.37,-1.419 2.348,-3.033 2.886,-3.913 z M 17.07,6.896 c -1.076,1.81 -1.712,2.691 -2.984,4.011 l 2.201,2.054 C 17.559,11.788 18.586,10.271 19.271,9 Z"
             style="fill:#f15a22;fill-opacity:1;fill-rule:nonzero;stroke:none"
             id="path86" />
        </g>
        <g
           id="g88"
           transform="translate(896.1483,485.0495)">
          <path
             d="m -112.8873,-239.25824 v 17.87721 l 67.280587,20.5691 v 27.99955 l -67.280587,-20.57091 v 25.07074 l 67.280587,20.5691 v 27.9303 l -181.726467,-55.55989 v -27.92847 l 66.18342,20.23375 v -25.07075 l -66.18342,-20.23375 v -27.99956 l 66.18342,20.23557 v -10.35198 c 0,-33.15732 -17.85534,-46.56933 -44.97462,-54.88008 l -21.2088,-6.48275 v -28.06152 l 46.19207,14.1228 c 35.48105,10.83131 47.98908,23.40495 62.04992,56.96871 7.7166,-3.06732 28.675711,-16.88576 37.175999,-26.63084 l 47.775848,14.60395 c -14.294116,15.77583 -65.122705,34.91971 -78.747957,37.58972"
             style="fill:#faa61a;fill-opacity:1;fill-rule:nonzero;stroke:none;stroke-width:1.82253"
             id="path60"
             transform="translate(112.9774,239.2372)" />
        </g>
        <g
           id="g92"
           transform="translate(904.4552,626.2802)">
          <path
             d="m 0,0 c -0.681,-2.287 -3.601,-11.97 -4.136,-13.965 l 0.049,-0.049 c 0.632,0.73 1.849,2.044 3.99,2.725 4.963,1.46 5.157,-3.503 5.157,-6.228 v -1.46 c 0,-1.022 0,-4.087 2.677,-3.308 3.016,0.875 4.282,5.595 4.865,11.823 l 3.309,-0.097 c -0.827,-7.737 -2.579,-13.867 -8.466,-15.619 -5.839,-1.752 -5.888,4.136 -5.888,6.034 v 1.167 c 0,2.19 0.049,4.428 -2.336,3.698 -3.114,-0.924 -5.011,-4.622 -6.13,-8.272 -0.292,-1.265 -1.509,-6.666 -1.801,-7.785 l -3.6,0.049 c 1.849,6.471 6.276,23.015 8.369,30.849 z"
             style="fill:#faa61a;fill-opacity:1;fill-rule:nonzero;stroke:none"
             id="path94" />
        </g>
        <g
           id="g96"
           transform="translate(851.2781,608.9163)">
          <path
             d="m 0,0 v -3.877 c -0.834,-0.148 -1.62,-0.295 -3.19,-0.786 -5.35,-1.57 -14.037,-10.453 -14.086,-17.325 -0.049,-3.877 3.239,-4.122 5.448,-4.073 1.963,0.049 4.81,0.491 8.736,1.669 l -0.491,-4.27 c -3.19,-0.835 -6.871,-1.62 -9.963,-1.473 -3.436,0.098 -7.411,1.571 -7.411,6.822 0.049,2.847 1.227,8.884 8.834,15.902 l -0.049,0.049 c -6.969,-2.307 -7.803,-2.552 -15.018,-5.055 v 3.926 c 1.276,0.344 10.307,3.19 14.037,4.368 z"
             style="fill:#faa61a;fill-opacity:1;fill-rule:nonzero;stroke:none"
             id="path98" />
        </g>
        <g
           id="g100"
           transform="translate(1250.4497,803.4816)">
          <path
             d="m 0,0 -7.053,-2.156 c -4.616,-1.425 -9.696,-0.052 -13.203,5.129 l -16.091,23.776 -46.764,-14.297 21.172,-31.389 -57.679,-17.634 34.91,114.182 c 1.525,4.99 4.239,8.117 7.957,9.283 l 11.736,3.587 v 18.992 l -57.602,-17.611 -41.45,-135.576 c -1.605,-5.251 -4.71,-7.887 -8.014,-8.897 l -7.142,-2.183 V -82.247 L 15.352,-22.76 Z"
             style="fill:#f15a22;fill-opacity:1;fill-rule:nonzero;stroke:none"
             id="path102" />
        </g>
        <g
           id="g104"
           transform="translate(1009.1257,724.2867)">
          <path
             d="M 1.407513e-4,-0.00210098 C 17.713327,28.084936 20.222954,45.756205 22.72529,65.222667 c 0.874815,7.042255 4.226451,10.681851 8.017317,11.840982 l 7.04773,2.156055 V 105.48421 L -127.14697,55.058407 V 27.233814 L -23.851333,58.814645 C -26.231559,22.107032 -39.406642,-27.021135 -97.23193,-44.699693 l -29.91504,-9.145465 v -27.474666 l 30.578441,9.35141 c 39.579923,12.097966 58.689169,23.723897 82.032156,52.467045 6.0252903,-2.926986 13.98975421,-10.096826 18.5041655,-21.731869 L 50.517077,-27.001087 C 43.965075,-18.956432 16.136837,-2.1308181 1.407513e-4,-0.00210098 M 12.112687,105.00488 c 6.650419,2.06675 10.215291,8.98873 8.276117,15.51157 -2.066751,6.52467 -8.990549,10.21529 -15.5133907,8.27612 -6.652241,-1.93918 -10.2152907,-8.98873 -8.2761169,-15.51157 2.0667511,-6.52284 8.9905494,-10.21529 15.5133906,-8.27612 M 25.761628,122.195 c -1.940997,6.52284 1.623875,13.44664 8.276116,15.51522 6.521019,2.06675 13.572395,-1.6257 15.511569,-8.27612 2.066751,-6.52284 -1.623876,-13.44664 -8.276117,-15.51339 -6.522842,-1.93917 -13.444817,1.62387 -15.511568,8.27429"
             style="fill:#faa61a;fill-opacity:1;fill-rule:nonzero;stroke:none;stroke-width:1.82253"
             id="path76" />
        </g>
        <g
           id="g108"
           transform="translate(742.8416,710.9636)">
          <path
             d="m 0,0 -3.882,-1.187 c -6.12,-1.871 -9.12,0.162 -9.12,4.012 v 41.876 c 0,5.627 2.045,9.902 7.737,11.643 L 0,57.953 V 78.324 L -64.113,58.722 V 38.353 l 3.893,1.189 c 6.139,1.877 9.109,-0.149 9.109,-3.975 V -6.308 c 0,-5.681 -2.048,-9.944 -7.726,-11.68 l -5.276,-1.613 v -20.33 L 0,-20.33 Z m 113.199,112.932 v -20.37 l -4.991,-1.527 c -5.756,-1.759 -7.717,-5.843 -7.717,-11.606 V -3.938 c 0,-27.282 -14.653,-48.214 -37.627,-55.157 L -50.623,-93.792 v 27.405 l 81.155,24.812 c 15.59,4.788 22.887,18.336 22.887,36.754 v 72.354 c 0,3.828 -2.986,5.839 -9.115,3.965 l -4.071,-1.244 v 20.37 z"
             style="fill:#f15a22;fill-opacity:1;fill-rule:nonzero;stroke:none"
             id="path110" />
        </g>
        <g
           id="g112"
           transform="translate(1472.4755,293.652)">
          <path
             d="M 0,0 V 17.3 L -4.032,-1.005 -8.399,-2.094 -12.335,14.224 V -3.075 l -4.127,-1.029 v 20.709 l 6.448,1.608 3.889,-15.457 0.047,0.012 3.793,17.372 6.365,1.587 V 1.017 Z M -29.802,-7.43 V 9.606 l -6.64,-1.655 v 3.66 l 17.563,4.379 v -3.661 l -6.4,-1.595 V -6.303 Z"
             style="fill:#130c0e;fill-opacity:1;fill-rule:nonzero;stroke:none"
             id="path114" />
        </g>
      </g>
    </g>
  </g>
</svg>
