<?xml version="1.0" encoding="UTF-8" standalone="no"?>
<!-- Created with Inkscape (http://www.inkscape.org/) -->

<svg
   version="1.1"
   id="svg2"
   width="2560"
   height="1440"
   viewBox="0 0 2560 1440"
   sodipodi:docname="Rhythm Tengoku (リズム天国) Logo (Fever Style with Background).ai"
   xmlns:inkscape="http://www.inkscape.org/namespaces/inkscape"
   xmlns:sodipodi="http://sodipodi.sourceforge.net/DTD/sodipodi-0.dtd"
   xmlns="http://www.w3.org/2000/svg"
   xmlns:svg="http://www.w3.org/2000/svg">
  <defs
     id="defs6">
    <linearGradient
       x1="0"
       y1="0"
       x2="1"
       y2="0"
       gradientUnits="userSpaceOnUse"
       gradientTransform="matrix(0,-1296,-1296,0,142.42584,1185.7413)"
       spreadMethod="pad"
       id="linearGradient36">
      <stop
         style="stop-opacity:1;stop-color:#fc7571"
         offset="0"
         id="stop22" />
      <stop
         style="stop-opacity:1;stop-color:#fc7571"
         offset="0.1"
         id="stop24" />
      <stop
         style="stop-opacity:1;stop-color:#fa1013"
         offset="0.26601506"
         id="stop26" />
      <stop
         style="stop-opacity:1;stop-color:#fa1013"
         offset="0.5"
         id="stop28" />
      <stop
         style="stop-opacity:1;stop-color:#fa1013"
         offset="0.73398494"
         id="stop30" />
      <stop
         style="stop-opacity:1;stop-color:#fc7571"
         offset="0.9"
         id="stop32" />
      <stop
         style="stop-opacity:1;stop-color:#fc7571"
         offset="1"
         id="stop34" />
    </linearGradient>
    <linearGradient
       x1="0"
       y1="0"
       x2="1"
       y2="0"
       gradientUnits="userSpaceOnUse"
       gradientTransform="matrix(0,-1296,-1296,0,414.54724,1185.7413)"
       spreadMethod="pad"
       id="linearGradient66">
      <stop
         style="stop-opacity:1;stop-color:#fdb44d"
         offset="0"
         id="stop52" />
      <stop
         style="stop-opacity:1;stop-color:#fdb44d"
         offset="0.1"
         id="stop54" />
      <stop
         style="stop-opacity:1;stop-color:#fb6413"
         offset="0.26601506"
         id="stop56" />
      <stop
         style="stop-opacity:1;stop-color:#fb6413"
         offset="0.5"
         id="stop58" />
      <stop
         style="stop-opacity:1;stop-color:#fb6413"
         offset="0.73398494"
         id="stop60" />
      <stop
         style="stop-opacity:1;stop-color:#fdb44d"
         offset="0.9"
         id="stop62" />
      <stop
         style="stop-opacity:1;stop-color:#fdb44d"
         offset="1"
         id="stop64" />
    </linearGradient>
    <linearGradient
       x1="0"
       y1="0"
       x2="1"
       y2="0"
       gradientUnits="userSpaceOnUse"
       gradientTransform="matrix(0,-1296,-1296,0,688.99597,1185.7413)"
       spreadMethod="pad"
       id="linearGradient96">
      <stop
         style="stop-opacity:1;stop-color:#fef007"
         offset="0"
         id="stop82" />
      <stop
         style="stop-opacity:1;stop-color:#fef007"
         offset="0.1"
         id="stop84" />
      <stop
         style="stop-opacity:1;stop-color:#f2c802"
         offset="0.26601506"
         id="stop86" />
      <stop
         style="stop-opacity:1;stop-color:#f2c802"
         offset="0.5"
         id="stop88" />
      <stop
         style="stop-opacity:1;stop-color:#f2c802"
         offset="0.73398494"
         id="stop90" />
      <stop
         style="stop-opacity:1;stop-color:#fef007"
         offset="0.9"
         id="stop92" />
      <stop
         style="stop-opacity:1;stop-color:#fef007"
         offset="1"
         id="stop94" />
    </linearGradient>
    <linearGradient
       x1="0"
       y1="0"
       x2="1"
       y2="0"
       gradientUnits="userSpaceOnUse"
       gradientTransform="matrix(0,-1296,-1296,0,969.55579,1185.7413)"
       spreadMethod="pad"
       id="linearGradient126">
      <stop
         style="stop-opacity:1;stop-color:#c5fc0a"
         offset="0"
         id="stop112" />
      <stop
         style="stop-opacity:1;stop-color:#c5fc0a"
         offset="0.1"
         id="stop114" />
      <stop
         style="stop-opacity:1;stop-color:#c4dc0f"
         offset="0.26601506"
         id="stop116" />
      <stop
         style="stop-opacity:1;stop-color:#c4dc0f"
         offset="0.5"
         id="stop118" />
      <stop
         style="stop-opacity:1;stop-color:#c4dc0f"
         offset="0.73398494"
         id="stop120" />
      <stop
         style="stop-opacity:1;stop-color:#c5fc0a"
         offset="0.9"
         id="stop122" />
      <stop
         style="stop-opacity:1;stop-color:#c5fc0a"
         offset="1"
         id="stop124" />
    </linearGradient>
    <linearGradient
       x1="0"
       y1="0"
       x2="1"
       y2="0"
       gradientUnits="userSpaceOnUse"
       gradientTransform="matrix(0,-1296,-1296,0,1246.7122,1185.7413)"
       spreadMethod="pad"
       id="linearGradient156">
      <stop
         style="stop-opacity:1;stop-color:#79e93f"
         offset="0"
         id="stop142" />
      <stop
         style="stop-opacity:1;stop-color:#79e93f"
         offset="0.1"
         id="stop144" />
      <stop
         style="stop-opacity:1;stop-color:#5bd20e"
         offset="0.26601506"
         id="stop146" />
      <stop
         style="stop-opacity:1;stop-color:#5bd20e"
         offset="0.5"
         id="stop148" />
      <stop
         style="stop-opacity:1;stop-color:#5bd20e"
         offset="0.73398494"
         id="stop150" />
      <stop
         style="stop-opacity:1;stop-color:#79e93f"
         offset="0.9"
         id="stop152" />
      <stop
         style="stop-opacity:1;stop-color:#79e93f"
         offset="1"
         id="stop154" />
    </linearGradient>
    <linearGradient
       x1="0"
       y1="0"
       x2="1"
       y2="0"
       gradientUnits="userSpaceOnUse"
       gradientTransform="matrix(0,-1296,-1296,0,1520.0923,1185.7413)"
       spreadMethod="pad"
       id="linearGradient186">
      <stop
         style="stop-opacity:1;stop-color:#6f77fe"
         offset="0"
         id="stop172" />
      <stop
         style="stop-opacity:1;stop-color:#6f77fe"
         offset="0.1"
         id="stop174" />
      <stop
         style="stop-opacity:1;stop-color:#080cfb"
         offset="0.26601506"
         id="stop176" />
      <stop
         style="stop-opacity:1;stop-color:#080cfb"
         offset="0.5"
         id="stop178" />
      <stop
         style="stop-opacity:1;stop-color:#080cfb"
         offset="0.73398494"
         id="stop180" />
      <stop
         style="stop-opacity:1;stop-color:#6f77fe"
         offset="0.9"
         id="stop182" />
      <stop
         style="stop-opacity:1;stop-color:#6f77fe"
         offset="1"
         id="stop184" />
    </linearGradient>
    <linearGradient
       x1="0"
       y1="0"
       x2="1"
       y2="0"
       gradientUnits="userSpaceOnUse"
       gradientTransform="matrix(0,-1296,-1296,0,1787.2296,1185.7413)"
       spreadMethod="pad"
       id="linearGradient216">
      <stop
         style="stop-opacity:1;stop-color:#af58e7"
         offset="0"
         id="stop202" />
      <stop
         style="stop-opacity:1;stop-color:#af58e7"
         offset="0.1"
         id="stop204" />
      <stop
         style="stop-opacity:1;stop-color:#7010bc"
         offset="0.26601506"
         id="stop206" />
      <stop
         style="stop-opacity:1;stop-color:#7010bc"
         offset="0.5"
         id="stop208" />
      <stop
         style="stop-opacity:1;stop-color:#7010bc"
         offset="0.73398494"
         id="stop210" />
      <stop
         style="stop-opacity:1;stop-color:#af58e7"
         offset="0.9"
         id="stop212" />
      <stop
         style="stop-opacity:1;stop-color:#af58e7"
         offset="1"
         id="stop214" />
    </linearGradient>
    <linearGradient
       x1="0"
       y1="0"
       x2="1"
       y2="0"
       gradientUnits="userSpaceOnUse"
       gradientTransform="matrix(-1358.3562,784.24731,784.24731,1358.3562,1639.1655,161.26227)"
       spreadMethod="pad"
       id="linearGradient250">
      <stop
         style="stop-opacity:1;stop-color:#ff0000"
         offset="0"
         id="stop232" />
      <stop
         style="stop-opacity:1;stop-color:#ff0000"
         offset="0.05"
         id="stop234" />
      <stop
         style="stop-opacity:1;stop-color:#f49f00"
         offset="0.2"
         id="stop236" />
      <stop
         style="stop-opacity:1;stop-color:#eeff00"
         offset="0.2771859"
         id="stop238" />
      <stop
         style="stop-opacity:1;stop-color:#eeff00"
         offset="0.35"
         id="stop240" />
      <stop
         style="stop-opacity:1;stop-color:#00ff00"
         offset="0.5"
         id="stop242" />
      <stop
         style="stop-opacity:1;stop-color:#1d0fff"
         offset="0.75"
         id="stop244" />
      <stop
         style="stop-opacity:1;stop-color:#710ec0"
         offset="0.95"
         id="stop246" />
      <stop
         style="stop-opacity:1;stop-color:#710ec0"
         offset="1"
         id="stop248" />
    </linearGradient>
    <clipPath
       clipPathUnits="userSpaceOnUse"
       id="clipPath260">
      <path
         d="M 0,1080 H 1920 V 0 H 0 Z"
         id="path258" />
    </clipPath>
  </defs>
  <sodipodi:namedview
     id="namedview4"
     pagecolor="#ffffff"
     bordercolor="#000000"
     borderopacity="0.25"
     inkscape:showpageshadow="2"
     inkscape:pageopacity="0.0"
     inkscape:pagecheckerboard="0"
     inkscape:deskcolor="#d1d1d1" />
  <g
     id="g8"
     inkscape:groupmode="layer"
     inkscape:label="Rhythm Tengoku (リズム天国) Logo (Fever Style with Background)"
     transform="matrix(1.3333333,0,0,-1.3333333,0,1440)">
    <g
       id="g10">
      <g
         id="g12">
        <g
           id="g18">
          <g
             id="g20">
            <path
               d="M 0,0 H 284.852 V 1080 H 0 Z"
               style="fill:url(#linearGradient36);stroke:none"
               id="path38" />
          </g>
        </g>
      </g>
    </g>
    <g
       id="g40">
      <g
         id="g42">
        <g
           id="g48">
          <g
             id="g50">
            <path
               d="M 272.073,0 H 557.022 V 1080 H 272.073 Z"
               style="fill:url(#linearGradient66);stroke:none"
               id="path68" />
          </g>
        </g>
      </g>
    </g>
    <g
       id="g70">
      <g
         id="g72">
        <g
           id="g78">
          <g
             id="g80">
            <path
               d="M 548.55,0 H 829.442 V 1080 H 548.55 Z"
               style="fill:url(#linearGradient96);stroke:none"
               id="path98" />
          </g>
        </g>
      </g>
    </g>
    <g
       id="g100">
      <g
         id="g102">
        <g
           id="g108">
          <g
             id="g110">
            <path
               d="m 825.027,0 h 289.057 V 1080 H 825.027 Z"
               style="fill:url(#linearGradient126);stroke:none"
               id="path128" />
          </g>
        </g>
      </g>
    </g>
    <g
       id="g130">
      <g
         id="g132">
        <g
           id="g138">
          <g
             id="g140">
            <path
               d="M 1101.505,0 H 1391.92 V 1080 H 1101.505 Z"
               style="fill:url(#linearGradient156);stroke:none"
               id="path158" />
          </g>
        </g>
      </g>
    </g>
    <g
       id="g160">
      <g
         id="g162">
        <g
           id="g168">
          <g
             id="g170">
            <path
               d="m 1377.982,0 h 284.221 v 1080 h -284.221 z"
               style="fill:url(#linearGradient186);stroke:none"
               id="path188" />
          </g>
        </g>
      </g>
    </g>
    <g
       id="g190">
      <g
         id="g192">
        <g
           id="g198">
          <g
             id="g200">
            <path
               d="m 1654.459,0 h 265.54 v 1080 h -265.54 z"
               style="fill:url(#linearGradient216);stroke:none"
               id="path218" />
          </g>
        </g>
      </g>
    </g>
    <g
       id="g220">
      <g
         id="g222">
        <g
           id="g228">
          <g
             id="g230">
            <path
               d="M 366.492,823.167 C 217.648,823.167 96.365,702.578 96.001,554.075 v 0 C 95.614,405.34 216.633,284.006 365.778,283.595 v 0 c 27.906,0.066 55.653,4.193 82.139,12.515 v 0 c 34.154,-44.867 81.971,-78.57 136.429,-95.181 v 0 c 61.575,-18.765 128.008,-14.931 187.072,10.8 v 0 c 42.855,18.672 79.923,47.97 107.736,84.617 v 0 c 26.257,-8.329 53.807,-12.676 81.502,-12.749 v 0 h 0.74 c 26.514,0 52.951,3.929 78.244,11.533 v 0 c 50.496,-66.125 128.986,-105.775 214.327,-105.992 v 0 h 0.702 c 86.558,0 165.616,40.133 216.114,107.382 v 0 c 26.402,-8.444 54.14,-12.855 82.081,-12.944 v 0 h 0.625 c 148.804,0 270.096,120.591 270.51,269.123 v 0 c 0.36,148.738 -120.653,270.064 -269.764,270.451 v 0 0 h -0.702 c -86.554,0 -165.596,-40.132 -216.083,-107.394 v 0 c -26.43,8.453 -54.194,12.863 -82.127,12.936 v 0 h -0.725 c -26.518,0 -52.97,-3.933 -78.267,-11.541 v 0 c -50.469,66.132 -128.951,105.78 -214.315,105.997 v 0 h -0.702 c -86.398,0 -165.393,-40.057 -215.921,-107.172 v 0 c -1.003,0.319 -2.006,0.634 -3.015,0.941 v 0 C 689.4,733.063 633.979,732.638 582.199,716.241 v 0 C 531.784,782.969 453.077,822.951 367.12,823.167 v 0 h -0.625 z"
               style="fill:url(#linearGradient250);stroke:none"
               id="path252" />
          </g>
        </g>
      </g>
    </g>
    <g
       id="g254">
      <g
         id="g256"
         clip-path="url(#clipPath260)">
        <g
           id="g262"
           transform="translate(1554.1511,790.7397)">
          <path
             d="m 0,0 h -0.004 -0.617 c -84.322,0 -160.548,-43.268 -203.554,-114.277 -29.717,12.925 -62.089,19.733 -94.741,19.819 h -0.64 c -31.152,0 -62.189,-6.159 -90.843,-17.937 -43.141,69.589 -118.781,112.182 -201.824,112.393 h -0.618 c -84.154,0 -160.326,-43.158 -203.4,-113.996 -8.131,3.506 -16.481,6.573 -24.982,9.172 -54.303,16.553 -111.535,13.322 -163.224,-8.864 -42.997,70.41 -118.926,113.497 -202.662,113.707 h -0.55 c -131.009,0 -237.761,-106.101 -238.081,-236.766 -0.341,-130.865 106.18,-237.625 237.453,-237.985 h 0.633 c 32.245,0 64.301,6.591 93.822,19.194 30.318,-49.736 77.061,-86.063 133.474,-103.265 23.318,-7.109 46.933,-10.516 70.189,-10.515 81.814,0 159.115,42.209 202.762,114.103 29.525,-12.729 61.647,-19.431 94,-19.515 h 0.652 c 31.144,0 62.166,6.154 90.816,17.924 43.172,-69.585 118.819,-112.173 201.839,-112.384 h 0.618 c 84.333,0 160.57,43.256 203.588,114.261 29.682,-12.909 62.031,-19.719 94.679,-19.822 h 0.549 c 130.98,0 237.74,106.109 238.104,236.793 C 237.756,-107.09 131.241,-0.341 0,0"
             style="fill:#ffffff;fill-opacity:1;fill-rule:nonzero;stroke:none"
             id="path264" />
        </g>
        <g
           id="g266"
           transform="translate(1554.0977,770.1157)">
          <path
             d="m 0,0 c -85.7,0.215 -159.94,-49.035 -195.512,-120.782 -30.715,16.697 -65.935,26.226 -103.408,26.324 -36.043,0.097 -70.068,-8.573 -100.038,-23.981 -35.867,70.125 -108.893,118.223 -193.261,118.437 -85.562,0.215 -159.685,-48.879 -195.355,-120.41 -12.4,6.659 -25.622,12.205 -39.608,16.481 -57.414,17.497 -116.611,10.037 -165.817,-16.111 -35.573,70.984 -109.069,119.843 -194.102,120.058 -120.078,0.273 -217.667,-96.469 -217.961,-216.196 -0.313,-119.687 96.788,-216.976 216.885,-217.307 37.237,-0.098 72.32,9.178 103.015,25.543 25.72,-51.32 71.636,-92.446 130.871,-110.509 103.095,-31.42 211.948,17.615 258.313,110.92 30.558,-16.462 65.524,-25.855 102.683,-25.952 36.043,-0.098 70.068,8.573 100.019,23.961 35.886,-70.086 108.912,-118.203 193.28,-118.417 85.719,-0.215 159.959,49.015 195.551,120.762 30.715,-16.697 65.896,-26.207 103.33,-26.324 120.077,-0.273 217.647,96.528 217.98,216.215 C 217.158,-97.581 120.078,-0.312 0,0"
             style="fill:#220614;fill-opacity:1;fill-rule:nonzero;stroke:none"
             id="path268" />
        </g>
        <g
           id="g270"
           transform="translate(1646.3269,630.8768)">
          <path
             d="m 0,0 h -130.153 c -6.992,0.021 -12.521,-4.422 -14.764,-11.764 l -41.494,-135.719 h 130.153 c 6.462,-0.035 12.361,3.903 14.764,11.764 z M 60.42,25.958 -0.523,-173.378 h -246.264 l 60.943,199.336 z M -72.625,-109.368 h 14.779 l 5.83,19.072 h -14.778 z m -52.076,83.812 4.781,15.637 h 92.479 l -4.781,-15.637 h -16.146 c -6.899,0 -11.904,-3.613 -14.397,-11.765 l -7.854,-25.689 h 26.946 l -5.132,-16.785 H -75.75 l -9.642,-31.538 c -1.518,-4.965 1.56,-8.536 9.958,-8.536 h 14.377 l -4.749,-15.534 h -92.479 l 4.75,15.534 h 16.326 c 6.668,0 11.768,3.756 14.227,11.799 l 8.644,28.275 h -26.946 l 5.132,16.785 h 26.946 l 8.852,28.952 c 1.027,3.36 0.387,8.502 -9.789,8.502 z"
             style="fill:#f06917;fill-opacity:1;fill-rule:nonzero;stroke:none"
             id="path272" />
        </g>
        <g
           id="g274"
           transform="translate(1644.095,669.5111)">
          <path
             d="m 0,0 c -5.875,4.787 -12.14,9.009 -18.709,12.795 -3.526,2.045 -6.662,3.873 -6.662,6.658 0,2.132 2.179,4.308 6.704,8.051 8.791,7.268 9.964,8.267 13.012,11.314 l 4.656,-3.263 c -6.137,-5.397 -7.094,-6.137 -15.581,-12.62 -2.129,-1.611 -3.001,-2.307 -3.001,-3.221 0,-1.088 1.959,-2.176 3.221,-2.872 C -9.964,13.361 0.351,7.007 4.309,3.613 Z"
             style="fill:#f06917;fill-opacity:1;fill-rule:nonzero;stroke:none"
             id="path276" />
        </g>
        <g
           id="g278"
           transform="translate(1548.0286,691.2519)">
          <path
             d="m 0,0 c -1.547,2.785 -2.432,4.111 -4.156,6.275 l 3.094,1.812 C 0.705,6.054 2.162,3.756 3.091,1.857 Z m -5.437,-2.65 c -1.99,3.843 -3.404,5.611 -4.109,6.54 l 3.005,1.811 C -4.242,2.916 -2.742,0 -2.342,-0.795 Z m 3.404,12.682 C -7.603,9.06 -11.536,7.203 -16.659,4.066 l -3.185,3.137 c 1.414,0.972 1.724,1.15 4.599,2.564 C -24.349,9.634 -28.152,9.546 -30.98,9.37 v 4.992 c 1.328,-0.043 6.808,-0.043 9.017,-0.043 3.138,0 17.102,0.043 19.93,0.043 z m -21.92,-12.241 c -3.709,-3.579 -3.889,-6.804 -3.889,-7.733 0,-5.744 8.484,-5.834 15.115,-5.834 4.329,0 8.661,0.178 12.946,0.797 l 0.177,-4.949 c -1.547,-0.221 -4.638,-0.619 -11.489,-0.619 -8.704,0 -12.46,0.398 -16.217,2.209 -3.051,1.457 -5.393,4.816 -5.393,8.308 0,4.064 1.946,6.849 5.17,10.473 z"
             style="fill:#f06917;fill-opacity:1;fill-rule:nonzero;stroke:none"
             id="path280" />
        </g>
        <g
           id="g282"
           transform="translate(1389.7183,523.3087)">
          <path
             d="M 0,0 10.646,34.822 H -237.109 L -247.755,0 h 90.232 l -9.557,-31.257 h -90.231 l -10.673,-34.909 h 90.232 l -3.947,-12.907 c -12.638,-41.338 -40.013,-51.254 -76.991,-51.278 h -28.917 l -10.696,-34.986 h 62.977 c 48.365,-0.021 68.753,10.888 99.079,47.375 8.45,-6.765 29.316,-31.983 36.199,-47.375 h 65.135 c -11.811,25.115 -67.992,68.418 -83.962,76.939 3.204,8.831 6.92,22.232 6.92,22.232 h 91.726 l 10.673,34.909 h -91.726 L -91.726,0 Z"
             style="fill:#feef0e;fill-opacity:1;fill-rule:nonzero;stroke:none"
             id="path284" />
        </g>
        <g
           id="g286"
           transform="translate(1325.984,607.1865)">
          <path
             d="m 0,0 c -0.875,-2.622 -4.892,-14.026 -5.635,-16.384 0.96,0.699 2.664,1.923 5.635,1.923 7.033,0 7.208,-6.772 7.208,-9.919 v -1.878 c 0,-1.267 0,-5.244 3.714,-5.244 3.497,0 5.766,3.671 6.684,13.282 l 4.589,-1.353 c -1.181,-10.312 -3.803,-16.735 -11.839,-16.735 -3.583,0 -6.379,2.186 -7.343,4.763 -0.608,1.617 -0.74,4.237 -0.74,5.2 v 1.485 c 0,2.796 0,5.635 -3.276,5.635 -4.938,0 -7.428,-5.329 -8.346,-7.777 -0.089,-0.217 -2.273,-8.563 -2.579,-9.742 l -5.024,1.441 c 3.408,10.311 9.524,30.104 11.448,36.308 z"
             style="fill:#feef0e;fill-opacity:1;fill-rule:nonzero;stroke:none"
             id="path288" />
        </g>
        <g
           id="g290"
           transform="translate(1245.0725,601.8955)">
          <path
             d="m 0,0 c -0.897,0.085 -1.881,0.17 -3.718,0.17 -3.842,0 -6.447,-1.026 -8.454,-2.006 -6.064,-3.033 -11.489,-8.885 -11.489,-14.649 0,-6.493 7.473,-8.799 19.773,-8.414 l -0.682,-5.083 c -9.184,0.042 -13.753,1.109 -17.641,3.118 -3.843,1.965 -6.361,6.021 -6.361,9.994 0,4.398 2.261,11.061 11.786,16.87 -6.663,-0.384 -13.281,-0.897 -19.902,-1.452 l -0.171,4.869 c 2.946,0 6.152,0.17 9.097,0.299 3.673,0.17 23.276,0.939 27.675,1.109 z"
             style="fill:#feef0e;fill-opacity:1;fill-rule:nonzero;stroke:none"
             id="path292" />
        </g>
        <g
           id="g294"
           transform="translate(1074.741,492.5735)">
          <path
             d="m 0,0 h -9.845 c -6.447,-0.017 -12.397,3.719 -14.851,11.7 l -11.261,36.629 h -65.272 L -86.453,0 h -80.506 l 89.119,132.125 c 3.895,5.774 8.58,8.707 13.781,8.743 h 16.38 l 7.412,24.242 h -80.4 L -226.485,8.228 C -230.583,2.152 -235.575,0 -240.187,0 h -9.967 l -10.714,-35.043 H 10.714 Z"
             style="fill:#f06917;fill-opacity:1;fill-rule:nonzero;stroke:none"
             id="path296" />
        </g>
        <g
           id="g298"
           transform="translate(538.3538,497.7434)">
          <path
             d="M 0,0 H 145.422 C 114.758,-81.112 63.787,-104.391 -17.622,-104.391 h -14.293 l -10.814,-35.371 43.05,0.003 c 55.722,-0.003 84.9,7.443 126.268,35.26 6.605,-6.139 14.037,-18.505 15.269,-35.263 h 65.535 c -5.268,12.938 -34.476,45.554 -54.413,54.647 33.86,29.189 44.047,50.955 54.933,75.031 3.899,8.723 9.646,12.091 14.984,12.091 h 9.921 l 10.339,33.816 H 10.952 Z m 209.908,45.313 c 9.377,0.044 16.691,7.554 16.762,16.716 -0.094,9.211 -7.554,16.69 -16.716,16.761 -9.326,0.121 -16.69,-7.554 -16.761,-16.716 0.093,-9.211 7.554,-16.69 16.715,-16.761 m 57.816,16.716 c 0.094,-9.212 -7.385,-16.672 -16.761,-16.716 -9.162,0.071 -16.672,7.385 -16.716,16.761 0.071,9.162 7.385,16.672 16.762,16.716 9.211,0.094 16.836,-7.435 16.715,-16.761"
             style="fill:#feef0e;fill-opacity:1;fill-rule:nonzero;stroke:none"
             id="path300" />
        </g>
        <g
           id="g302"
           transform="translate(423.0367,658.0475)">
          <path
             d="m 0,0 -7.972,-26.077 h 5.698 c 8.58,0 11.615,-3.742 10.116,-8.642 l -28.317,-92.622 c -7.208,-23.578 -21.851,-38.064 -43.682,-38.092 h -113.599 l -10.725,-35.082 158.855,10e-4 c 32.127,-0.104 59.077,20.957 69.754,55.88 l 32.628,106.72 c 2.255,7.377 6.364,11.837 14.42,11.837 h 6.987 L 102.136,0 Z m -94.926,-126.287 h -89.744 l 7.956,26.024 h 7.387 c 7.947,0 12.237,4.657 14.46,11.928 l 16.389,53.606 c 1.497,4.897 -1.512,8.652 -10.105,8.652 l -5.449,0.002 L -146.06,0 h 89.743 l -7.972,-26.077 h -7.369 c -7.968,0 -12.259,-4.672 -14.461,-11.875 l -16.389,-53.606 c -1.507,-4.928 1.538,-8.705 10.105,-8.705 h 5.433 z"
             style="fill:#f06917;fill-opacity:1;fill-rule:nonzero;stroke:none"
             id="path304" />
        </g>
        <g
           id="g306"
           transform="translate(1803.3516,286.9609)">
          <path
             d="M 0,0 V 28.234 L -6.58,0 h -7.127 l -6.424,28.234 V 0 h -6.736 v 33.799 h 10.524 L -9.997,6.99 h 0.078 L -3.73,33.799 H 6.658 L 6.658,0 Z m -48.638,0 v 27.804 h -10.837 v 5.975 h 28.663 V 27.804 H -41.258 V 0 Z"
             style="fill:#220614;fill-opacity:1;fill-rule:nonzero;stroke:none"
             id="path308" />
        </g>
      </g>
    </g>
  </g>
</svg>
