<?xml version="1.0" encoding="UTF-8" standalone="no"?>
<!-- Created with Inkscape (http://www.inkscape.org/) -->

<svg
   version="1.1"
   id="svg2"
   width="1666.04"
   height="733.80267"
   viewBox="0 0 1666.04 733.80267"
   sodipodi:docname="Auto &amp; Perfect.ai"
   xmlns:inkscape="http://www.inkscape.org/namespaces/inkscape"
   xmlns:sodipodi="http://sodipodi.sourceforge.net/DTD/sodipodi-0.dtd"
   xmlns="http://www.w3.org/2000/svg"
   xmlns:svg="http://www.w3.org/2000/svg">
  <defs
     id="defs6">
    <clipPath
       clipPathUnits="userSpaceOnUse"
       id="clipPath16">
      <path
         d="M 0,550.352 H 1249.527 V 0 H 0 Z"
         id="path14" />
    </clipPath>
  </defs>
  <sodipodi:namedview
     id="namedview4"
     pagecolor="#ffffff"
     bordercolor="#000000"
     borderopacity="0.25"
     inkscape:showpageshadow="2"
     inkscape:pageopacity="0.0"
     inkscape:pagecheckerboard="0"
     inkscape:deskcolor="#d1d1d1" />
  <g
     id="g8"
     inkscape:groupmode="layer"
     inkscape:label="Auto &amp; Perfect"
     transform="matrix(1.3333333,0,0,-1.3333333,0,733.80267)">
    <g
       id="g10">
      <g
         id="g12"
         clip-path="url(#clipPath16)">
        <g
           id="g18"
           transform="translate(821.9294,550.3522)">
          <path
             d="m 0,0 h -221.357 c -27.931,0 -50.572,-22.642 -50.572,-50.572 v -449.207 c 0,-27.93 22.641,-50.572 50.572,-50.572 l 133.485,-10e-4 c 13.413,0 26.276,5.328 35.76,14.812 9.484,9.484 14.813,22.348 14.813,35.76 v 89.114 h 35.234 c 139.802,0 230.136,80.831 230.136,205.928 C 228.071,-84.191 134.284,0 0,0"
             style="fill:#000000;fill-opacity:1;fill-rule:nonzero;stroke:none"
             id="path20" />
        </g>
        <g
           id="g22"
           transform="translate(833.0306,290.2888)">
          <path
             d="M 0,0 H -107.748 V 85.541 H 0 c 22.994,0 41.807,-19.052 41.807,-42.77 C 41.807,19.053 22.994,0 0,0 m -11.101,209.491 h -221.357 v -449.207 l 133.485,-0.001 0.001,139.686 h 85.806 c 111.71,0 179.563,59.584 179.563,155.356 0,89.351 -69.219,154.166 -177.498,154.166"
             style="fill:#f74aff;fill-opacity:1;fill-rule:nonzero;stroke:none"
             id="path24" />
        </g>
        <g
           id="g26"
           transform="translate(798.1491,465.7317)">
          <path
             d="m 0,0 c -13.965,0 -25.286,-11.321 -25.286,-25.286 0,-13.965 11.321,-25.286 25.286,-25.286 13.965,0 25.286,11.321 25.286,25.286 C 25.286,-11.321 13.965,0 0,0 m -63.215,-25.286 c 0,-13.965 -11.321,-25.286 -25.286,-25.286 -13.965,0 -25.286,11.321 -25.286,25.286 0,13.965 11.321,25.286 25.286,25.286 13.965,0 25.286,-11.321 25.286,-25.286"
             style="fill:#000000;fill-opacity:1;fill-rule:nonzero;stroke:none"
             id="path28" />
        </g>
        <g
           id="g30"
           transform="translate(1173.604,540.852)">
          <path
             d="m 0,0 c -36.627,0 -66.425,-29.798 -66.425,-66.424 0,-5.277 0.633,-10.56 1.882,-15.708 l -32.451,-54.412 60.407,14.682 c 10.869,-7.188 23.516,-10.986 36.587,-10.986 36.626,0 66.424,29.798 66.424,66.424 C 66.424,-29.798 36.626,0 0,0"
             style="fill:#ffffff;fill-opacity:1;fill-rule:nonzero;stroke:none"
             id="path32" />
        </g>
        <g
           id="g34"
           transform="translate(1173.6035,550.3522)">
          <path
             d="m 0,0 c -41.865,0 -75.924,-34.059 -75.924,-75.924 0,-4.704 0.44,-9.413 1.311,-14.048 l -42.137,-70.651 78.538,19.089 c 11.579,-6.761 24.697,-10.314 38.212,-10.314 41.865,0 75.924,34.059 75.924,75.924 C 75.924,-34.059 41.865,0 0,0 m 0,-10 c 36.409,0 65.924,-29.515 65.924,-65.924 0,-36.409 -29.515,-65.924 -65.924,-65.924 -13.505,0 -26.056,4.068 -36.509,11.034 l 0.009,-0.013 -59.454,-14.45 31.94,53.554 0.014,-0.019 c -1.249,5.069 -1.924,10.364 -1.924,15.818 C -65.924,-39.515 -36.409,-10 0,-10"
             style="fill:#000000;fill-opacity:1;fill-rule:nonzero;stroke:none"
             id="path36" />
        </g>
        <path
           d="m 1159.665,449.598 h 20.613 v -20.383 h -20.613 z m 20.722,21.841 v -10.361 h -20.493 v 26.242 h 19.485 v 16.331 h -24.775 v 15.991 h 31.753 c 1.916,0 18.247,-7.546 18.247,-23.198 0,-6.758 -3.045,-15.093 -11.6,-25.005 z"
           style="fill:#000000;fill-opacity:1;fill-rule:nonzero;stroke:none"
           id="path38" />
        <g
           id="g40"
           transform="translate(434.8537,494.0266)">
          <path
             d="m 0,0 c -41.516,36.849 -97.854,56.326 -162.925,56.326 h -43.858 c -65.07,0 -121.409,-19.477 -162.925,-56.326 -42.01,-37.288 -65.146,-89.995 -65.146,-148.413 v -295.04 c 0,-27.93 22.642,-50.573 50.572,-50.573 l 133.486,-10e-4 h 0.001 c 13.411,0 26.275,5.33 35.759,14.813 9.484,9.483 14.813,22.347 14.813,35.76 v 89.113 h 30.739 v -89.112 c 0,-27.931 22.641,-50.573 50.572,-50.573 H 14.574 c 27.931,0 50.572,22.642 50.572,50.573 v 295.04 C 65.146,-89.995 42.011,-37.288 0,0"
             style="fill:#000000;fill-opacity:1;fill-rule:nonzero;stroke:none"
             id="path42" />
        </g>
        <g
           id="g44"
           transform="translate(324.838,290.2887)">
          <path
             d="m 0,0 h -149.838 l 0.162,42.771 c 0,23.718 18.813,42.77 41.807,42.77 h 66.061 C -18.813,85.541 0,66.489 0,42.771 Z m -52.909,209.491 h -43.858 c -108.279,0 -177.499,-64.815 -177.499,-154.166 v -295.041 l 133.486,-0.001 0.001,139.686 h 85.805 46.077 V -239.716 H 124.59 V 55.325 c 0,89.351 -69.22,154.166 -177.499,154.166"
             style="fill:#52ff4a;fill-opacity:1;fill-rule:nonzero;stroke:none"
             id="path46" />
        </g>
        <g
           id="g48"
           transform="translate(294.2505,465.7315)">
          <path
             d="m 0,0 c -13.965,0 -25.286,-11.321 -25.286,-25.286 0,-13.965 11.321,-25.286 25.286,-25.286 13.965,0 25.286,11.321 25.286,25.286 C 25.286,-11.321 13.965,0 0,0 m -63.215,-25.286 c 0,-13.965 -11.321,-25.286 -25.286,-25.286 -13.965,0 -25.286,11.321 -25.286,25.286 0,13.965 11.321,25.286 25.286,25.286 13.965,0 25.286,-11.321 25.286,-25.286"
             style="fill:#000000;fill-opacity:1;fill-rule:nonzero;stroke:none"
             id="path50" />
        </g>
      </g>
    </g>
  </g>
</svg>
