<?xml version="1.0" encoding="UTF-8" standalone="no"?>
<!-- Created with Inkscape (http://www.inkscape.org/) -->

<svg
   version="1.1"
   id="svg2"
   width="666.66669"
   height="733.80267"
   viewBox="0 0 666.66669 733.80267"
   sodipodi:docname="Cheerful Perfect.ai"
   xmlns:inkscape="http://www.inkscape.org/namespaces/inkscape"
   xmlns:sodipodi="http://sodipodi.sourceforge.net/DTD/sodipodi-0.dtd"
   xmlns="http://www.w3.org/2000/svg"
   xmlns:svg="http://www.w3.org/2000/svg">
  <defs
     id="defs6">
    <clipPath
       clipPathUnits="userSpaceOnUse"
       id="clipPath16">
      <path
         d="M 0,550.352 H 500 V 0 H 0 Z"
         id="path14" />
    </clipPath>
  </defs>
  <sodipodi:namedview
     id="namedview4"
     pagecolor="#ffffff"
     bordercolor="#000000"
     borderopacity="0.25"
     inkscape:showpageshadow="2"
     inkscape:pageopacity="0.0"
     inkscape:pagecheckerboard="0"
     inkscape:deskcolor="#d1d1d1" />
  <g
     id="g8"
     inkscape:groupmode="layer"
     inkscape:label="Cheerful Perfect"
     transform="matrix(1.3333333,0,0,-1.3333333,0,733.80267)">
    <g
       id="g10">
      <g
         id="g12"
         clip-path="url(#clipPath16)">
        <g
           id="g18"
           transform="translate(271.9293,550.3522)">
          <path
             d="m 0,0 h -221.357 c -27.931,0 -50.572,-22.642 -50.572,-50.572 v -449.207 c 0,-27.93 22.641,-50.572 50.572,-50.572 l 133.485,-10e-4 c 13.413,0 26.276,5.328 35.76,14.812 9.484,9.484 14.813,22.348 14.813,35.76 v 89.114 h 35.234 c 139.802,0 230.136,80.831 230.136,205.928 C 228.071,-84.191 134.284,0 0,0"
             style="fill:#000000;fill-opacity:1;fill-rule:nonzero;stroke:none"
             id="path20" />
        </g>
        <g
           id="g22"
           transform="translate(243.8984,275.1761)">
          <path
             d="M 0,0 C -74.778,0 -74.778,100.654 -74.778,100.654 H 74.778 C 74.778,100.654 74.778,0 0,0 m 28.031,224.604 h -221.357 v -449.207 l 133.485,-0.001 10e-4,139.686 h 85.806 c 111.711,0 179.564,59.584 179.564,155.356 0,89.351 -69.22,154.166 -177.499,154.166"
             style="fill:#f74aff;fill-opacity:1;fill-rule:nonzero;stroke:none"
             id="path24" />
        </g>
        <g
           id="g26"
           transform="translate(371.5183,358.3451)">
          <path
             d="m 0,0 c -18.138,0 -32.842,-14.704 -32.842,-32.842 0,-18.138 14.704,-32.842 32.842,-32.842 18.138,0 32.842,14.704 32.842,32.842 C 32.842,-14.704 18.138,0 0,0 m -222.398,-32.842 c 0,-18.138 -14.704,-32.842 -32.842,-32.842 -18.138,0 -32.842,14.704 -32.842,32.842 0,18.138 14.704,32.842 32.842,32.842 18.138,0 32.842,-14.704 32.842,-32.842"
             style="fill:#f5b2b2;fill-opacity:1;fill-rule:nonzero;stroke:none"
             id="path28" />
        </g>
        <g
           id="g30"
           transform="translate(318.8502,456.0293)">
          <path
             d="m 0,0 c -2.723,5.514 -6.683,9.712 -11.879,12.594 -5.196,2.881 -11.447,4.322 -18.754,4.322 -7.352,0 -13.637,-1.441 -18.856,-4.322 -5.219,-2.882 -9.19,-7.08 -11.913,-12.594 -2.723,-5.514 -4.085,-12.151 -4.085,-19.911 V -48.084 H -51.6 v 28.649 c 0,7.216 1.827,12.798 5.48,16.746 3.654,3.948 8.816,5.923 15.487,5.923 6.626,0 11.754,-1.975 15.385,-5.923 3.63,-3.948 5.445,-9.53 5.445,-16.746 V -48.084 H 4.084 v 28.173 C 4.084,-12.151 2.723,-5.514 0,0 m -88.501,0 c 2.723,-5.514 4.084,-12.151 4.084,-19.911 v -28.173 h -13.887 v 28.649 c 0,7.216 -1.815,12.798 -5.446,16.746 -3.63,3.948 -8.758,5.923 -15.384,5.923 -6.671,0 -11.834,-1.975 -15.487,-5.923 -3.653,-3.948 -5.48,-9.53 -5.48,-16.746 v -28.649 h -13.887 v 28.173 c 0,7.76 1.362,14.397 4.084,19.911 2.723,5.514 6.694,9.712 11.913,12.594 5.219,2.881 11.505,4.322 18.857,4.322 7.306,0 13.558,-1.441 18.754,-4.322 5.196,-2.882 9.156,-7.08 11.879,-12.594"
             style="fill:#000000;fill-opacity:1;fill-rule:nonzero;stroke:none"
             id="path32" />
        </g>
      </g>
    </g>
  </g>
</svg>
