<?xml version="1.0" encoding="UTF-8" standalone="no"?>
<!-- Created with Inkscape (http://www.inkscape.org/) -->

<svg
   version="1.1"
   id="svg2"
   width="666.66669"
   height="96.573196"
   viewBox="0 0 666.66669 96.573196"
   sodipodi:docname="Go For A Perfect!.ai"
   xmlns:inkscape="http://www.inkscape.org/namespaces/inkscape"
   xmlns:sodipodi="http://sodipodi.sourceforge.net/DTD/sodipodi-0.dtd"
   xmlns="http://www.w3.org/2000/svg"
   xmlns:svg="http://www.w3.org/2000/svg">
  <defs
     id="defs6">
    <clipPath
       clipPathUnits="userSpaceOnUse"
       id="clipPath16">
      <path
         d="M 0,72.43 H 500 V 0 H 0 Z"
         id="path14" />
    </clipPath>
  </defs>
  <sodipodi:namedview
     id="namedview4"
     pagecolor="#ffffff"
     bordercolor="#000000"
     borderopacity="0.25"
     inkscape:showpageshadow="2"
     inkscape:pageopacity="0.0"
     inkscape:pagecheckerboard="0"
     inkscape:deskcolor="#d1d1d1" />
  <g
     id="g8"
     inkscape:groupmode="layer"
     inkscape:label="Go For A Perfect!"
     transform="matrix(1.3333333,0,0,-1.3333333,0,96.5732)">
    <g
       id="g10">
      <g
         id="g12"
         clip-path="url(#clipPath16)">
        <g
           id="g18"
           transform="translate(145.9139,64.3704)">
          <path
             d="m 0,0 h -9.9 c -1.577,0 -3.079,-0.318 -4.453,-0.885 v 0.559 c 0,4.489 -3.652,8.141 -8.142,8.141 H -39.51 c -4.49,0 -8.142,-3.652 -8.142,-8.141 v -33.136 c 0,-4.489 3.652,-8.142 8.142,-8.142 h 17.015 c 2.198,0 4.192,0.88 5.658,2.3 1.944,-1.438 4.339,-2.3 6.937,-2.3 H 0 c 6.451,0 11.699,5.249 11.699,11.7 v 18.205 C 11.699,-5.248 6.451,0 0,0 m 95.352,-3.583 h -4.451 c -1.394,1.96 -3.803,3.42 -6.947,3.42 h -2.442 c -2.266,0 -4.317,-0.932 -5.794,-2.431 C 73.71,-0.975 71.162,0 68.388,0 h -9.9 c -1.271,0 -2.493,-0.21 -3.639,-0.587 v 0.261 c 0,4.489 -3.653,8.141 -8.142,8.141 h -4.641 c -7.991,0 -14.038,-5.414 -14.164,-12.632 -2.161,-1.466 -3.584,-3.942 -3.584,-6.744 v -2.687 c 0,-2.801 1.422,-5.277 3.582,-6.742 v -12.472 c 0,-4.489 3.653,-8.142 8.142,-8.142 h 2.687 c 4.489,0 8.141,3.653 8.141,8.142 v 2.226 c 0.664,-5.826 5.618,-10.368 11.618,-10.368 h 9.9 c 2.735,0 5.247,0.951 7.242,2.528 1.483,-1.553 3.569,-2.528 5.882,-2.528 h 2.605 c 4.489,0 8.142,3.653 8.142,8.142 v 10.91 h 3.093 c 4.489,0 8.142,3.652 8.142,8.141 v 2.687 c 0,4.489 -3.653,8.141 -8.142,8.141 m 38.102,3.42 h -9.281 c -4.489,0 -8.142,-3.652 -8.142,-8.142 v -2.686 c 0,-1.743 0.551,-3.359 1.487,-4.685 -2.156,-2.449 -3.441,-5.783 -3.441,-9.563 v -2.524 c 0,-8.019 5.342,-13.841 12.701,-13.841 h 12.864 c 4.489,0 8.141,3.653 8.141,8.142 v 20.598 c 0,7.241 -6.16,12.701 -14.329,12.701 m 220.632,-19.296 c 0,-1.942 -0.683,-3.728 -1.823,-5.128 1.14,-1.402 1.823,-3.187 1.823,-5.13 v -3.745 c 0,-4.489 -3.652,-8.142 -8.141,-8.142 h -2.117 c -3.606,0 -6.667,2.359 -7.734,5.613 -1.067,-3.254 -4.128,-5.613 -7.734,-5.613 h -3.094 c -3.418,0 -6.326,1.507 -8.307,4.003 -1.42,-2.391 -4.022,-4.003 -6.999,-4.003 h -14.492 c -1.761,0 -3.388,0.568 -4.722,1.522 -1.333,-0.954 -2.961,-1.522 -4.721,-1.522 h -17.098 c -4.073,0 -7.447,3.009 -8.04,6.919 -0.593,-3.91 -3.967,-6.919 -8.039,-6.919 h -2.687 c -4.489,0 -8.141,3.653 -8.141,8.142 v 12.472 c -0.124,0.084 -0.236,0.182 -0.355,0.273 -1.403,-1.146 -3.192,-1.835 -5.14,-1.835 h -3.094 v -10.91 c 0,-4.489 -3.653,-8.142 -8.142,-8.142 h -2.605 c -1.798,0 -3.455,0.593 -4.804,1.583 -1.348,-0.99 -3.005,-1.583 -4.803,-1.583 H 195.98 c -4.308,0 -7.835,3.365 -8.115,7.603 -0.421,-0.068 -0.849,-0.112 -1.289,-0.112 h -7.189 c -0.333,-4.186 -3.846,-7.491 -8.116,-7.491 h -2.687 c -4.489,0 -8.142,3.653 -8.142,8.142 v 33.136 c 0,4.489 3.653,8.141 8.142,8.141 h 17.992 c 4.49,0 8.143,-3.652 8.143,-8.141 v -0.026 c 0.412,0.064 0.831,0.107 1.261,0.107 h 17.097 c 1.773,0 3.411,-0.576 4.749,-1.542 1.358,1.015 3.036,1.624 4.858,1.624 h 2.442 c 3.144,0 5.553,-1.46 6.947,-3.42 h 4.452 c 1.852,0 3.556,-0.628 4.926,-1.674 0.186,0.152 0.371,0.304 0.571,0.439 0.126,7.219 6.172,12.633 14.164,12.633 h 4.64 c 4.462,0 8.093,-3.608 8.138,-8.06 h 17.061 c 1.76,0 3.388,-0.567 4.721,-1.521 1.334,0.954 2.961,1.521 4.722,1.521 h 14.492 c 1.728,0 3.329,-0.545 4.649,-1.467 1.078,3.235 4.134,5.574 7.726,5.574 h 2.605 c 3.593,0 6.651,-2.34 7.728,-5.576 1.338,-0.878 2.389,-2.136 3.019,-3.578 v 5.21 c 0,4.489 3.652,8.142 8.141,8.142 h 2.117 c 4.489,0 8.141,-3.653 8.141,-8.142 z"
             style="fill:#000000;fill-opacity:1;fill-rule:nonzero;stroke:none"
             id="path20" />
        </g>
        <g
           id="g22"
           transform="translate(491.8588,37.0962)">
          <path
             d="m 0,0 h -2.117 c -1.349,0 -2.442,-1.094 -2.442,-2.442 v -3.745 c 0,-1.349 1.093,-2.443 2.442,-2.443 H 0 c 1.349,0 2.442,1.094 2.442,2.443 v 3.745 C 2.442,-1.094 1.349,0 0,0 M 2.442,27.192 V 7.816 C 2.442,6.467 1.349,5.373 0,5.373 h -2.117 c -1.349,0 -2.442,1.094 -2.442,2.443 v 19.376 c 0,1.349 1.093,2.443 2.442,2.443 H 0 c 1.349,0 2.442,-1.094 2.442,-2.443"
             style="fill:#ffffff;fill-opacity:1;fill-rule:nonzero;stroke:none"
             id="path24" />
        </g>
        <g
           id="g26"
           transform="translate(474.2734,35.9564)">
          <path
             d="m 0,0 h -0.407 c -0.315,0 -0.57,0.255 -0.57,0.57 v 13.071 c 0,0.894 0.608,1.666 1.472,1.893 0.969,0.253 1.785,1.212 1.785,2.214 v 2.339 c 0,0.943 -0.816,1.902 -1.785,2.155 -0.864,0.227 -1.472,0.999 -1.472,1.893 0,1.349 -1.093,2.442 -2.442,2.442 h -2.606 c -1.349,0 -2.442,-1.093 -2.442,-2.442 0,-0.894 -0.608,-1.666 -1.472,-1.893 -0.969,-0.253 -1.785,-1.212 -1.785,-2.214 v -2.292 c 0,-0.996 0.805,-1.953 1.771,-2.199 0.872,-0.221 1.486,-0.997 1.486,-1.896 V -0.651 c 0,-3.597 1.776,-6.839 5.373,-6.839 H 0 c 1.349,0 2.442,1.093 2.442,2.442 v 2.606 C 2.442,-1.094 1.349,0 0,0"
             style="fill:#ffffff;fill-opacity:1;fill-rule:nonzero;stroke:none"
             id="path28" />
        </g>
        <g
           id="g30"
           transform="translate(458.3162,53.8675)">
          <path
             d="m 0,0 v 2.117 c 0,1.349 -1.094,2.442 -2.442,2.442 h -14.492 c -1.349,0 -2.443,-1.093 -2.443,-2.442 v -25.076 c 0,-1.349 1.094,-2.442 2.443,-2.442 h 14.492 c 1.348,0 2.442,1.093 2.442,2.442 v 2.605 c 0,1.349 -1.094,2.443 -2.442,2.443 h -8.142 c -1.259,0 -2.279,1.02 -2.279,2.279 v 10.91 c 0,1.259 1.02,2.28 2.279,2.28 h 8.142 C -1.094,-2.442 0,-1.349 0,0"
             style="fill:#ffffff;fill-opacity:1;fill-rule:nonzero;stroke:none"
             id="path32" />
        </g>
        <g
           id="g34"
           transform="translate(421.2728,51.0994)">
          <path
             d="M 0,0 H 4.396 C 5.61,0 6.595,-0.984 6.595,-2.198 6.595,-3.412 5.61,-4.396 4.396,-4.396 H 0 c -1.214,0 -2.198,0.984 -2.198,2.198 C -2.198,-0.984 -1.214,0 0,0 m 0,-11.072 h 11.154 c 1.349,0 1.954,1.093 1.954,2.442 V 4.885 c 0,1.349 -1.094,2.442 -2.443,2.442 H -6.432 c -1.349,0 -2.442,-1.093 -2.442,-2.442 v -25.076 c 0,-1.349 1.093,-2.442 2.442,-2.442 h 17.097 c 1.349,0 2.443,1.093 2.443,2.442 v 2.28 c 0,1.349 -0.605,2.442 -1.954,2.442 H 0 c -1.214,0 -2.198,0.984 -2.198,2.198 0,1.215 0.984,2.199 2.198,2.199"
             style="fill:#ffffff;fill-opacity:1;fill-rule:nonzero;stroke:none"
             id="path36" />
        </g>
        <g
           id="g38"
           transform="translate(409.1827,61.3576)">
          <path
             d="m 0,0 v 2.687 c 0,1.349 -1.094,2.442 -2.442,2.442 h -4.641 c -4.496,0 -8.467,-2.668 -8.467,-7.164 v -4.071 h -1.14 c -1.349,0 -2.442,-1.094 -2.442,-2.442 v -2.687 c 0,-1.349 1.093,-2.443 2.442,-2.443 h 1.14 v -16.771 c 0,-1.349 1.093,-2.442 2.442,-2.442 h 2.687 c 1.349,0 2.442,1.093 2.442,2.442 v 16.771 h 4.722 c 1.349,0 2.443,1.094 2.443,2.443 v 2.687 c 0,1.348 -1.094,2.442 -2.443,2.442 h -4.722 v 3.175 c 0,0.27 0.219,0.489 0.489,0.489 h 5.048 C -1.094,-2.442 0,-1.349 0,0"
             style="fill:#ffffff;fill-opacity:1;fill-rule:nonzero;stroke:none"
             id="path40" />
        </g>
        <g
           id="g42"
           transform="translate(382.4382,55.0887)">
          <path
             d="m 0,0 h -6.839 c -1.079,0 -1.954,0.875 -1.954,1.628 0,0.263 -0.502,1.791 -2.605,1.791 h -2.442 c -1.349,0 -2.443,-1.093 -2.443,-2.442 V -24.18 c 0,-1.349 1.094,-2.442 2.443,-2.442 h 2.605 c 1.349,0 2.442,1.093 2.442,2.442 v 14.655 c 0,1.079 0.875,1.953 1.954,1.953 H 0 c 1.349,0 2.442,1.094 2.442,2.443 v 2.687 C 2.442,-1.094 1.349,0 0,0"
             style="fill:#ffffff;fill-opacity:1;fill-rule:nonzero;stroke:none"
             id="path44" />
        </g>
        <g
           id="g46"
           transform="translate(348.3257,51.0994)">
          <path
             d="M 0,0 H 4.396 C 5.61,0 6.595,-0.984 6.595,-2.198 6.595,-3.412 5.61,-4.396 4.396,-4.396 H 0 c -1.214,0 -2.198,0.984 -2.198,2.198 C -2.198,-0.984 -1.214,0 0,0 m 0,-11.072 h 11.154 c 1.349,0 1.954,1.093 1.954,2.442 V 4.885 c 0,1.349 -1.094,2.442 -2.443,2.442 H -6.432 c -1.349,0 -2.442,-1.093 -2.442,-2.442 v -25.076 c 0,-1.349 1.093,-2.442 2.442,-2.442 h 17.097 c 1.349,0 2.443,1.093 2.443,2.442 v 2.28 c 0,1.349 -0.605,2.442 -1.954,2.442 H 0 c -1.214,0 -2.198,0.984 -2.198,2.198 0,1.215 0.984,2.199 2.198,2.199"
             style="fill:#ffffff;fill-opacity:1;fill-rule:nonzero;stroke:none"
             id="path48" />
        </g>
        <g
           id="g50"
           transform="translate(327.3615,44.5863)">
          <path
             d="m 0,0 c 0,-0.674 -0.547,-1.221 -1.221,-1.221 h -5.292 c -0.675,0 -1.221,0.547 -1.221,1.221 v 13.108 c 0,0.674 0.546,1.221 1.221,1.221 h 5.292 C -0.547,14.329 0,13.782 0,13.108 Z m 5.129,21.9 h -17.992 c -1.349,0 -2.443,-1.093 -2.443,-2.442 v -33.136 c 0,-1.348 1.094,-2.442 2.443,-2.442 h 2.686 c 1.349,0 2.443,1.094 2.443,2.442 V -8.63 H 5.129 c 1.349,0 2.443,1.094 2.443,2.443 v 25.645 c 0,1.349 -1.094,2.442 -2.443,2.442"
             style="fill:#ffffff;fill-opacity:1;fill-rule:nonzero;stroke:none"
             id="path52" />
        </g>
        <g
           id="g54"
           transform="translate(279.1643,35.875)">
          <path
             d="m 0,0 h -4.478 c -1.191,0 -2.157,0.966 -2.157,2.157 0,1.192 0.966,2.158 2.157,2.158 L 0,4.315 C 1.192,4.315 2.158,3.349 2.158,2.157 2.158,0.966 1.192,0 0,0 m 0.204,22.633 h -9.282 c -1.349,0 -2.442,-1.093 -2.442,-2.442 v -2.687 c 0,-1.349 1.093,-2.442 2.442,-2.442 h 9.404 c 1.011,0 1.832,-0.821 1.832,-1.832 0,-1.012 -0.821,-1.832 -1.832,-1.832 h -6.473 c -4.496,0 -7.327,-3.645 -7.327,-8.141 V 0.733 c 0,-4.497 2.505,-8.142 7.002,-8.142 H 6.391 c 1.349,0 2.442,1.094 2.442,2.443 v 20.598 c 0,4.496 -4.133,7.001 -8.629,7.001"
             style="fill:#ffffff;fill-opacity:1;fill-rule:nonzero;stroke:none"
             id="path56" />
        </g>
        <g
           id="g58"
           transform="translate(241.266,55.0887)">
          <path
             d="m 0,0 h -6.839 c -1.079,0 -1.954,0.875 -1.954,1.628 0,0.263 -0.502,1.791 -2.605,1.791 h -2.442 c -1.349,0 -2.443,-1.093 -2.443,-2.442 V -24.18 c 0,-1.349 1.094,-2.442 2.443,-2.442 h 2.605 c 1.349,0 2.442,1.093 2.442,2.442 v 14.655 c 0,1.079 0.875,1.953 1.954,1.953 H 0 c 1.349,0 2.442,1.094 2.442,2.443 v 2.687 C 2.442,-1.094 1.349,0 0,0"
             style="fill:#ffffff;fill-opacity:1;fill-rule:nonzero;stroke:none"
             id="path60" />
        </g>
        <g
           id="g62"
           transform="translate(211.2188,35.875)">
          <path
             d="m 0,0 h -3.734 c -1.105,0 -2,0.895 -2,2 v 11.55 c 0,1.105 0.895,2 2,2 H 0 c 1.105,0 2,-0.895 2,-2 V 2 C 2,0.895 1.105,0 0,0 M -12.817,16.796 V -1.409 c 0,-3.313 2.686,-6 6,-6 h 9.9 c 3.314,0 6,2.687 6,6 v 18.205 c 0,3.314 -2.686,6 -6,6 h -9.9 c -3.314,0 -6,-2.686 -6,-6"
             style="fill:#ffffff;fill-opacity:1;fill-rule:nonzero;stroke:none"
             id="path64" />
        </g>
        <g
           id="g66"
           transform="translate(195.0635,61.3576)">
          <path
             d="m 0,0 v 2.687 c 0,1.349 -1.094,2.442 -2.442,2.442 h -4.641 c -4.496,0 -8.467,-2.668 -8.467,-7.164 v -4.071 h -1.14 c -1.349,0 -2.442,-1.094 -2.442,-2.442 v -2.687 c 0,-1.349 1.093,-2.443 2.442,-2.443 h 1.14 v -16.771 c 0,-1.349 1.093,-2.442 2.442,-2.442 h 2.687 c 1.349,0 2.442,1.093 2.442,2.442 v 16.771 h 4.722 c 1.349,0 2.443,1.094 2.443,2.443 v 2.687 c 0,1.348 -1.094,2.442 -2.443,2.442 h -4.722 v 3.175 c 0,0.27 0.219,0.489 0.489,0.489 h 5.048 C -1.094,-2.442 0,-1.349 0,0"
             style="fill:#ffffff;fill-opacity:1;fill-rule:nonzero;stroke:none"
             id="path68" />
        </g>
        <g
           id="g70"
           transform="translate(142.8309,35.875)">
          <path
             d="m 0,0 h -3.734 c -1.105,0 -2,0.895 -2,2 v 11.55 c 0,1.105 0.895,2 2,2 H 0 c 1.105,0 2,-0.895 2,-2 V 2 C 2,0.895 1.105,0 0,0 M -12.817,16.796 V -1.409 c 0,-3.313 2.686,-6 6,-6 h 9.9 c 3.314,0 6,2.687 6,6 v 18.205 c 0,3.314 -2.686,6 -6,6 h -9.9 c -3.314,0 -6,-2.686 -6,-6"
             style="fill:#ffffff;fill-opacity:1;fill-rule:nonzero;stroke:none"
             id="path72" />
        </g>
        <g
           id="g74"
           transform="translate(111.5325,36.0378)">
          <path
             d="m 0,0 v 22.877 h 11.886 c 1.349,0 2.443,1.094 2.443,2.443 v 2.686 c 0,1.349 -1.094,2.443 -2.443,2.443 H -5.129 c -1.349,0 -2.443,-1.094 -2.443,-2.443 V -5.129 c 0,-1.349 1.094,-2.443 2.443,-2.443 h 17.015 c 1.349,0 2.443,1.094 2.443,2.443 v 18.155 c 0,1.349 -1.094,2.443 -2.443,2.443 H 5.943 c -1.349,0 -2.442,-1.094 -2.442,-2.443 V 10.34 c 0,-1.349 1.093,-2.443 2.442,-2.443 H 6.757 V 0 Z"
             style="fill:#ffffff;fill-opacity:1;fill-rule:nonzero;stroke:none"
             id="path76" />
        </g>
        <g
           id="g78"
           transform="translate(34.5994,70.0251)">
          <path
             d="m 0,0 h -28.165 c -3.554,0 -6.434,-2.881 -6.434,-6.435 V -63.59 c 0,-3.554 2.88,-6.435 6.434,-6.435 h 16.985 c 1.706,0 3.343,0.678 4.549,1.885 1.207,1.206 1.885,2.843 1.885,4.55 v 11.338 h 4.483 c 17.788,0 29.282,10.285 29.282,26.202 C 29.019,-10.712 17.086,0 0,0"
             style="fill:#000000;fill-opacity:1;fill-rule:nonzero;stroke:none"
             id="path80" />
        </g>
        <g
           id="g82"
           transform="translate(36.0119,36.9355)">
          <path
             d="M 0,0 H -13.71 V 10.884 H 0 C 2.926,10.884 5.319,8.46 5.319,5.442 5.319,2.424 2.926,0 0,0 m -1.412,26.655 h -28.165 v -57.156 h 16.984 v 17.773 h 10.918 c 14.213,0 22.847,7.582 22.847,19.767 0,11.369 -8.807,19.616 -22.584,19.616"
             style="fill:#f74aff;fill-opacity:1;fill-rule:nonzero;stroke:none"
             id="path84" />
        </g>
        <g
           id="g86"
           transform="translate(36.6632,59.2583)">
          <path
             d="m 0,0 c -1.777,0 -3.217,-1.44 -3.217,-3.217 0,-1.777 1.44,-3.218 3.217,-3.218 1.777,0 3.217,1.441 3.217,3.218 C 3.217,-1.44 1.777,0 0,0 m -8.043,-3.217 c 0,-1.777 -1.441,-3.218 -3.218,-3.218 -1.776,0 -3.217,1.441 -3.217,3.218 0,1.777 1.441,3.217 3.217,3.217 1.777,0 3.218,-1.44 3.218,-3.217"
             style="fill:#000000;fill-opacity:1;fill-rule:nonzero;stroke:none"
             id="path88" />
        </g>
      </g>
    </g>
  </g>
</svg>
