<?xml version="1.0" encoding="UTF-8" standalone="no"?>
<!-- Created with Inkscape (http://www.inkscape.org/) -->

<svg
   version="1.1"
   id="svg2"
   width="666.66669"
   height="733.80267"
   viewBox="0 0 666.66669 733.80267"
   sodipodi:docname="P(OG)erfect.ai"
   xmlns:inkscape="http://www.inkscape.org/namespaces/inkscape"
   xmlns:sodipodi="http://sodipodi.sourceforge.net/DTD/sodipodi-0.dtd"
   xmlns="http://www.w3.org/2000/svg"
   xmlns:svg="http://www.w3.org/2000/svg">
  <defs
     id="defs6">
    <clipPath
       clipPathUnits="userSpaceOnUse"
       id="clipPath16">
      <path
         d="M 0,550.352 H 500 V 0 H 0 Z"
         id="path14" />
    </clipPath>
  </defs>
  <sodipodi:namedview
     id="namedview4"
     pagecolor="#ffffff"
     bordercolor="#000000"
     borderopacity="0.25"
     inkscape:showpageshadow="2"
     inkscape:pageopacity="0.0"
     inkscape:pagecheckerboard="0"
     inkscape:deskcolor="#d1d1d1" />
  <g
     id="g8"
     inkscape:groupmode="layer"
     inkscape:label="P(OG)erfect"
     transform="matrix(1.3333333,0,0,-1.3333333,0,733.80267)">
    <g
       id="g10">
      <g
         id="g12"
         clip-path="url(#clipPath16)">
        <g
           id="g18"
           transform="translate(271.9293,550.3522)">
          <path
             d="m 0,0 h -221.357 c -27.931,0 -50.572,-22.642 -50.572,-50.572 v -449.207 c 0,-27.93 22.641,-50.572 50.572,-50.572 l 133.485,-10e-4 c 13.413,0 26.276,5.328 35.76,14.812 9.484,9.484 14.813,22.348 14.813,35.76 v 89.114 h 35.234 c 139.802,0 230.136,80.831 230.136,205.928 C 228.071,-84.191 134.284,0 0,0"
             style="fill:#005aff;fill-opacity:1;fill-rule:nonzero;stroke:none"
             id="path20" />
        </g>
        <g
           id="g22"
           transform="translate(283.0305,288.5893)">
          <path
             d="m 0,0 h -64.978 c -23.621,0 -42.77,27.914 -42.77,62.349 v 0 c 0,34.435 19.149,62.351 42.77,62.351 L 0,124.7 C 22.994,124.7 41.807,96.926 41.807,62.349 41.807,27.775 22.994,0 0,0 m -11.101,211.191 h -221.357 v -449.207 l 133.485,-0.001 0.001,139.686 h 85.806 c 111.71,0 179.563,59.584 179.563,155.356 0,89.351 -69.219,154.166 -177.498,154.166"
             style="fill:#ffffff;fill-opacity:1;fill-rule:nonzero;stroke:none"
             id="path24" />
        </g>
        <g
           id="g26"
           transform="translate(288.149,490.1076)">
          <path
             d="m 0,0 c -13.965,0 -25.286,-11.321 -25.286,-25.286 0,-13.965 11.321,-25.286 25.286,-25.286 13.965,0 25.286,11.321 25.286,25.286 C 25.286,-11.321 13.965,0 0,0 m -63.215,-25.286 c 0,-13.965 -11.321,-25.286 -25.286,-25.286 -13.965,0 -25.286,11.321 -25.286,25.286 0,13.965 11.321,25.286 25.286,25.286 13.965,0 25.286,-11.321 25.286,-25.286"
             style="fill:#005aff;fill-opacity:1;fill-rule:nonzero;stroke:none"
             id="path28" />
        </g>
      </g>
    </g>
  </g>
</svg>
