<?xml version="1.0" encoding="UTF-8" standalone="no"?>
<!-- Created with Inkscape (http://www.inkscape.org/) -->

<svg
   version="1.1"
   id="svg2"
   width="666.66669"
   height="158.65601"
   viewBox="0 0 666.66669 158.65601"
   sodipodi:docname="Rhythm Tengoku (リズム天国) Logo (Wordmark).ai"
   xmlns:inkscape="http://www.inkscape.org/namespaces/inkscape"
   xmlns:sodipodi="http://sodipodi.sourceforge.net/DTD/sodipodi-0.dtd"
   xmlns="http://www.w3.org/2000/svg"
   xmlns:svg="http://www.w3.org/2000/svg">
  <defs
     id="defs6">
    <clipPath
       clipPathUnits="userSpaceOnUse"
       id="clipPath16">
      <path
         d="M 0,118.992 H 500 V 0 H 0 Z"
         id="path14" />
    </clipPath>
  </defs>
  <sodipodi:namedview
     id="namedview4"
     pagecolor="#ffffff"
     bordercolor="#000000"
     borderopacity="0.25"
     inkscape:showpageshadow="2"
     inkscape:pageopacity="0.0"
     inkscape:pagecheckerboard="0"
     inkscape:deskcolor="#d1d1d1" />
  <g
     id="g8"
     inkscape:groupmode="layer"
     inkscape:label="Rhythm Tengoku (リズム天国) Logo (Wordmark)"
     transform="matrix(1.3333333,0,0,-1.3333333,0,158.656)">
    <g
       id="g10">
      <g
         id="g12"
         clip-path="url(#clipPath16)">
        <g
           id="g18"
           transform="translate(479.48,92.6867)">
          <path
             d="m 0,0 h -44.204 c -2.375,0.007 -4.253,-1.502 -5.015,-3.996 L -63.312,-50.09 h 44.205 c 2.195,-0.012 4.198,1.325 5.014,3.995 z M 20.52,8.816 -0.178,-58.885 h -83.638 l 20.698,67.701 z m -45.186,-45.961 h 5.02 l 1.98,6.478 h -5.02 z m -17.687,28.465 1.624,5.311 H -9.32 l -1.624,-5.311 h -5.484 c -2.343,0 -4.043,-1.227 -4.889,-3.995 l -2.667,-8.725 h 9.151 l -1.743,-5.701 h -9.152 l -3.274,-10.711 c -0.516,-1.686 0.529,-2.899 3.382,-2.899 h 4.883 l -1.613,-5.276 h -31.409 l 1.613,5.276 h 5.545 c 2.265,0 3.997,1.275 4.832,4.007 l 2.936,9.603 h -9.151 l 1.743,5.701 h 9.151 l 3.006,9.833 c 0.349,1.141 0.132,2.887 -3.324,2.887 z"
             style="fill:#000000;fill-opacity:1;fill-rule:nonzero;stroke:none"
             id="path20" />
        </g>
        <g
           id="g22"
           transform="translate(478.7212,105.8078)">
          <path
             d="m 0,0 c -1.995,1.626 -4.123,3.06 -6.354,4.346 -1.198,0.694 -2.262,1.315 -2.262,2.261 0,0.724 0.74,1.463 2.276,2.734 2.986,2.469 3.385,2.808 4.419,3.843 l 1.582,-1.108 C -2.424,10.243 -2.748,9.991 -5.631,7.79 -6.354,7.243 -6.65,7.006 -6.65,6.696 c 0,-0.37 0.666,-0.739 1.094,-0.976 2.172,-1.182 5.675,-3.34 7.02,-4.493 z"
             style="fill:#000000;fill-opacity:1;fill-rule:nonzero;stroke:none"
             id="path24" />
        </g>
        <g
           id="g26"
           transform="translate(446.0943,113.1916)">
          <path
             d="M 0,0 C -0.525,0.946 -0.826,1.396 -1.411,2.131 L -0.36,2.747 C 0.24,2.056 0.734,1.276 1.05,0.631 Z m -1.847,-0.9 c -0.675,1.305 -1.155,1.906 -1.395,2.221 l 1.02,0.616 C -1.44,0.991 -0.931,0 -0.795,-0.27 Z M -0.69,3.407 C -2.582,3.077 -3.918,2.447 -5.658,1.381 l -1.081,1.066 c 0.48,0.33 0.585,0.39 1.561,0.87 C -8.27,3.272 -9.561,3.242 -10.521,3.183 v 1.695 c 0.451,-0.015 2.312,-0.015 3.062,-0.015 1.065,0 5.809,0.015 6.769,0.015 z M -8.135,-0.75 c -1.26,-1.215 -1.321,-2.311 -1.321,-2.626 0,-1.951 2.882,-1.982 5.134,-1.982 1.47,0 2.941,0.061 4.397,0.271 l 0.06,-1.681 c -0.526,-0.075 -1.575,-0.21 -3.903,-0.21 -2.956,0 -4.231,0.135 -5.507,0.75 -1.037,0.495 -1.831,1.636 -1.831,2.822 0,1.38 0.661,2.326 1.755,3.556 z"
             style="fill:#000000;fill-opacity:1;fill-rule:nonzero;stroke:none"
             id="path28" />
        </g>
        <g
           id="g30"
           transform="translate(392.3277,56.1535)">
          <path
             d="M 0,0 3.615,11.827 H -80.529 L -84.145,0 H -53.5 l -3.245,-10.616 h -30.646 l -3.625,-11.856 h 30.646 l -1.34,-4.383 c -4.293,-14.041 -13.59,-17.408 -26.148,-17.416 h -9.822 l -3.633,-11.882 h 21.389 c 16.426,-0.008 23.351,3.697 33.651,16.09 2.87,-2.298 9.956,-10.863 12.294,-16.09 h 22.122 c -4.012,8.529 -23.057,23.216 -28.481,26.111 l 2.315,7.57 H -6.87 l 3.624,11.856 H -34.398 L -31.153,0 Z"
             style="fill:#000000;fill-opacity:1;fill-rule:nonzero;stroke:none"
             id="path32" />
        </g>
        <g
           id="g34"
           transform="translate(370.6812,84.6408)">
          <path
             d="m 0,0 c -0.297,-0.891 -1.661,-4.764 -1.913,-5.564 0.326,0.237 0.904,0.652 1.913,0.652 2.389,0 2.448,-2.299 2.448,-3.368 v -0.638 c 0,-0.43 0,-1.781 1.262,-1.781 1.187,0 1.958,1.247 2.269,4.511 l 1.559,-0.46 c -0.4,-3.502 -1.291,-5.684 -4.02,-5.684 -1.217,0 -2.166,0.743 -2.495,1.619 -0.206,0.548 -0.251,1.439 -0.251,1.765 v 0.505 c 0,0.949 0,1.914 -1.113,1.914 -1.677,0 -2.522,-1.81 -2.834,-2.642 -0.03,-0.073 -0.772,-2.908 -0.876,-3.308 l -1.706,0.489 c 1.157,3.502 3.235,10.224 3.888,12.331 z"
             style="fill:#000000;fill-opacity:1;fill-rule:nonzero;stroke:none"
             id="path36" />
        </g>
        <g
           id="g38"
           transform="translate(343.2017,82.8439)">
          <path
             d="m 0,0 c -0.305,0.029 -0.639,0.058 -1.263,0.058 -1.304,0 -2.189,-0.349 -2.871,-0.682 -2.059,-1.03 -3.902,-3.018 -3.902,-4.975 0,-2.205 2.538,-2.988 6.716,-2.858 l -0.232,-1.726 c -3.119,0.014 -4.672,0.377 -5.992,1.059 -1.305,0.667 -2.16,2.045 -2.16,3.395 0,1.493 0.767,3.756 4.003,5.729 -2.263,-0.131 -4.511,-0.305 -6.76,-0.493 l -0.058,1.653 c 1,0 2.09,0.058 3.09,0.102 1.247,0.058 7.906,0.319 9.4,0.377 z"
             style="fill:#000000;fill-opacity:1;fill-rule:nonzero;stroke:none"
             id="path40" />
        </g>
        <g
           id="g42"
           transform="translate(285.3521,45.715)">
          <path
             d="m 0,0 h -3.344 c -2.189,-0.006 -4.21,1.263 -5.044,3.973 l -3.824,12.441 H -34.38 L -29.362,0 h -27.343 l 30.268,44.874 c 1.323,1.96 2.915,2.957 4.68,2.969 h 5.564 l 2.517,8.233 H -40.982 L -76.921,2.794 C -78.313,0.73 -80.008,0 -81.575,0 h -3.385 l -3.639,-11.902 H 3.639 Z"
             style="fill:#000000;fill-opacity:1;fill-rule:nonzero;stroke:none"
             id="path44" />
        </g>
        <g
           id="g46"
           transform="translate(103.1787,47.4709)">
          <path
             d="M 0,0 H 49.39 C 43.442,-15.733 31.113,-35.455 3.465,-35.454 h -14.304 l -3.673,-12.014 14.621,0.001 c 18.925,-0.001 28.835,2.529 42.885,11.976 2.243,-2.085 4.767,-6.285 5.185,-11.977 h 22.258 c -1.79,4.395 -11.709,15.472 -18.48,18.56 11.5,9.914 14.96,17.305 18.656,25.482 1.325,2.963 3.277,4.107 5.09,4.107 h 3.369 l 3.511,11.486 H 3.72 Z m 71.291,15.389 c 3.185,0.015 5.669,2.566 5.693,5.677 -0.032,3.129 -2.566,5.669 -5.677,5.693 -3.168,0.041 -5.669,-2.566 -5.693,-5.677 0.032,-3.128 2.566,-5.668 5.677,-5.693 m 19.636,5.677 c 0.032,-3.128 -2.508,-5.662 -5.693,-5.677 -3.111,0.025 -5.662,2.508 -5.676,5.693 0.024,3.111 2.507,5.662 5.692,5.677 3.128,0.032 5.718,-2.525 5.677,-5.693"
             style="fill:#000000;fill-opacity:1;fill-rule:nonzero;stroke:none"
             id="path48" />
        </g>
        <g
           id="g50"
           transform="translate(64.0137,101.9147)">
          <path
             d="m 0,0 -2.708,-8.856 h 1.936 c 2.914,0 3.944,-1.271 3.436,-2.936 l -9.618,-31.457 c -2.448,-8.008 -7.421,-12.927 -14.836,-12.937 h -38.581 l -3.643,-11.915 h 53.952 c 10.912,-0.035 20.064,7.118 23.691,18.979 l 11.081,36.245 c 0.766,2.506 2.162,4.021 4.898,4.021 h 2.373 L 34.688,0 Z m -32.24,-42.891 h -30.479 l 2.702,8.839 h 2.509 c 2.698,0 4.155,1.581 4.91,4.051 l 5.567,18.206 c 0.508,1.663 -0.514,2.939 -3.432,2.939 h -1.851 L -49.606,0 h 30.48 l -2.708,-8.856 h -2.503 c -2.706,0 -4.163,-1.587 -4.912,-4.034 l -5.566,-18.206 c -0.512,-1.674 0.523,-2.956 3.432,-2.956 h 1.845 z"
             style="fill:#000000;fill-opacity:1;fill-rule:nonzero;stroke:none"
             id="path52" />
        </g>
        <g
           id="g54"
           transform="translate(497.7388,2e-4)">
          <path
             d="M 0,0 V 9.589 L -2.235,0 h -2.42 L -6.837,9.589 V 0 h -2.288 v 11.479 h 3.574 l 2.155,-9.105 h 0.027 l 2.102,9.105 H 2.261 L 2.261,0 Z m -16.52,0 v 9.443 h -3.679 v 2.03 h 9.734 v -2.03 h -3.548 V 0 Z"
             style="fill:#000000;fill-opacity:1;fill-rule:nonzero;stroke:none"
             id="path56" />
        </g>
      </g>
    </g>
  </g>
</svg>
