<?xml version="1.0" encoding="UTF-8" standalone="no"?>
<!-- Created with Inkscape (http://www.inkscape.org/) -->

<svg
   version="1.1"
   id="svg2"
   width="666.66669"
   height="259.276"
   viewBox="0 0 666.66669 259.276"
   sodipodi:docname="Rhythm Tengoku (リズム天国) (Arcade) Logo.ai"
   xmlns:inkscape="http://www.inkscape.org/namespaces/inkscape"
   xmlns:sodipodi="http://sodipodi.sourceforge.net/DTD/sodipodi-0.dtd"
   xmlns="http://www.w3.org/2000/svg"
   xmlns:svg="http://www.w3.org/2000/svg">
  <defs
     id="defs6">
    <clipPath
       clipPathUnits="userSpaceOnUse"
       id="clipPath16">
      <path
         d="M 0,194.457 H 500 V 0 H 0 Z"
         id="path14" />
    </clipPath>
  </defs>
  <sodipodi:namedview
     id="namedview4"
     pagecolor="#ffffff"
     bordercolor="#000000"
     borderopacity="0.25"
     inkscape:showpageshadow="2"
     inkscape:pageopacity="0.0"
     inkscape:pagecheckerboard="0"
     inkscape:deskcolor="#d1d1d1" />
  <g
     id="g8"
     inkscape:groupmode="layer"
     inkscape:label="Rhythm Tengoku (リズム天国) (Arcade) Logo"
     transform="matrix(1.3333333,0,0,-1.3333333,0,259.276)">
    <g
       id="g10">
      <g
         id="g12"
         clip-path="url(#clipPath16)">
        <g
           id="g18"
           transform="translate(415.991,194.4517)">
          <path
             d="m 0,0 h -0.22 c -24.766,0 -47.592,-10.415 -63.512,-28.775 -6.466,1.573 -13.091,2.376 -19.777,2.393 h -0.203 c -6.285,0 -12.543,-0.703 -18.676,-2.093 -15.896,18.107 -38.55,28.412 -63.041,28.475 h -0.196 c -24.728,0 -47.536,-10.396 -63.465,-28.723 -12.979,3.141 -26.367,3.161 -39.265,0.065 -15.889,18.229 -38.605,28.602 -63.226,28.664 h -0.175 c -46.334,0 -84.121,-37.603 -84.235,-83.822 -0.12,-46.329 37.567,-84.125 84.055,-84.253 6.743,0.015 13.373,0.791 19.784,2.314 10.312,-11.703 23.861,-20.497 38.709,-25.026 19.173,-5.841 39.861,-4.649 58.251,3.362 11.401,4.968 21.586,12.414 29.753,21.71 6.424,-1.551 13,-2.343 19.631,-2.36 h 0.207 c 6.283,0 12.54,0.702 18.671,2.091 15.901,-18.105 38.557,-28.411 63.043,-28.474 h 0.196 c 24.768,0 47.595,10.413 63.52,28.771 6.459,-1.57 13.079,-2.374 19.765,-2.395 h 0.174 c 46.322,0 84.112,37.605 84.241,83.832 C 84.12,-37.913 46.434,-0.121 0,0"
             style="fill:#ffff01;fill-opacity:1;fill-rule:nonzero;stroke:none"
             id="path20" />
        </g>
        <g
           id="g22"
           transform="translate(415.9681,185.7642)">
          <path
             d="m 0,0 h -0.001 -0.196 c -24.174,0 -46.251,-11.208 -60.352,-29.995 -7.381,2.361 -15.136,3.593 -22.937,3.613 h -0.203 c -7.406,0 -14.794,-1.098 -21.86,-3.223 -14.095,18.47 -36.015,29.544 -59.857,29.605 h -0.196 c -24.13,0 -46.194,-11.188 -60.306,-29.932 -0.28,0.088 -0.56,0.176 -0.842,0.262 -14.797,4.51 -30.276,4.391 -44.738,-0.189 -14.08,18.638 -36.063,29.804 -60.07,29.865 h -0.175 c -41.572,0 -75.446,-33.68 -75.548,-75.157 -0.108,-41.541 33.692,-75.429 75.348,-75.544 7.794,0.018 15.544,1.171 22.941,3.495 9.539,-12.531 22.894,-21.944 38.104,-26.584 17.198,-5.24 35.753,-4.17 52.249,3.017 11.969,5.215 22.322,13.398 30.091,23.633 7.333,-2.326 15.027,-3.54 22.763,-3.561 h 0.206 c 7.406,0 14.789,1.097 21.854,3.221 14.103,-18.468 36.025,-29.542 59.86,-29.603 h 0.197 c 24.175,0 46.255,11.209 60.36,29.991 7.374,-2.358 15.121,-3.591 22.924,-3.615 h 0.175 c 41.561,0 75.437,33.68 75.553,75.165 C 75.445,-33.994 41.646,-0.108 0,0"
             style="fill:#00b3f0;fill-opacity:1;fill-rule:nonzero;stroke:none"
             id="path24" />
        </g>
        <g
           id="g26"
           transform="translate(415.9446,176.7121)">
          <path
             d="m 0,0 h -0.001 -0.173 c -23.55,0 -44.84,-12.084 -56.851,-31.917 -8.3,3.61 -17.342,5.511 -26.461,5.535 h -0.179 c -8.701,0 -17.369,-1.72 -25.372,-5.009 -12.049,19.436 -33.175,31.332 -56.369,31.391 h -0.173 c -23.504,0 -44.778,-12.054 -56.809,-31.839 -2.271,0.98 -4.603,1.836 -6.977,2.562 -15.167,4.623 -31.152,3.721 -45.588,-2.475 -12.009,19.665 -33.216,31.699 -56.603,31.758 h -0.154 c -36.59,0 -66.405,-29.634 -66.495,-66.128 -0.095,-36.55 29.656,-66.368 66.32,-66.469 h 0.177 c 9.006,0 17.959,1.841 26.204,5.361 8.467,-13.891 21.523,-24.037 37.278,-28.842 6.513,-1.985 13.109,-2.937 19.604,-2.937 22.851,0 44.44,11.789 56.631,31.869 8.246,-3.555 17.218,-5.427 26.254,-5.451 h 0.182 c 8.698,0 17.363,1.719 25.365,5.006 12.057,-19.435 33.185,-31.329 56.373,-31.388 h 0.172 c 23.554,0 44.847,12.081 56.862,31.912 8.29,-3.605 17.325,-5.507 26.443,-5.536 h 0.154 c 36.582,0 66.4,29.636 66.501,66.135 C 66.404,-29.91 36.655,-0.095 0,0"
             style="fill:#ffffff;fill-opacity:1;fill-rule:nonzero;stroke:none"
             id="path28" />
        </g>
        <g
           id="g30"
           transform="translate(415.9296,170.9519)">
          <path
             d="m 0,0 c -23.936,0.06 -44.671,-13.695 -54.606,-33.734 -8.579,4.664 -18.415,7.325 -28.881,7.352 -10.067,0.028 -19.57,-2.394 -27.941,-6.697 -10.017,19.586 -30.413,33.019 -53.977,33.079 -23.897,0.06 -44.599,-13.652 -54.562,-33.63 -3.463,1.86 -7.156,3.409 -11.063,4.603 -16.035,4.887 -32.568,2.804 -46.312,-4.499 -9.935,19.825 -30.462,33.471 -54.212,33.531 -33.537,0.077 -60.794,-26.943 -60.876,-60.382 -0.087,-33.428 27.033,-60.601 60.575,-60.694 10.401,-0.027 20.199,2.564 28.772,7.134 7.184,-14.333 20.008,-25.819 36.552,-30.864 28.794,-8.776 59.196,4.919 72.146,30.979 8.535,-4.598 18.301,-7.221 28.679,-7.249 10.067,-0.027 19.57,2.395 27.935,6.693 10.023,-19.575 30.419,-33.014 53.983,-33.074 23.941,-0.06 44.676,13.69 54.617,33.728 8.578,-4.663 18.404,-7.319 28.859,-7.352 33.537,-0.076 60.788,26.96 60.881,60.388 C 60.652,-27.254 33.537,-0.087 0,0"
             style="fill:#130c0e;fill-opacity:1;fill-rule:nonzero;stroke:none"
             id="path32" />
        </g>
        <g
           id="g34"
           transform="translate(441.6888,132.0629)">
          <path
             d="m 0,0 h -36.351 c -1.953,0.006 -3.497,-1.235 -4.124,-3.286 l -11.589,-37.906 h 36.351 c 1.805,-0.009 3.453,1.09 4.124,3.286 z M 16.875,7.25 -0.146,-48.424 H -68.927 L -51.906,7.25 Z m -37.159,-37.796 h 4.128 l 1.628,5.326 h -4.127 z m -14.545,23.408 1.336,4.368 H -7.664 L -9,-7.138 h -4.509 c -1.927,0 -3.325,-1.009 -4.021,-3.286 l -2.194,-7.175 h 7.526 l -1.433,-4.687 -7.526,-10e-4 -2.693,-8.808 c -0.424,-1.387 0.436,-2.384 2.781,-2.384 h 4.016 l -1.326,-4.339 h -25.829 l 1.326,4.339 h 4.56 c 1.862,0 3.287,1.049 3.973,3.296 l 2.415,7.896 h -7.526 l 1.433,4.688 h 7.526 l 2.472,8.087 c 0.287,0.938 0.109,2.374 -2.734,2.374 z"
             style="fill:#f15a22;fill-opacity:1;fill-rule:nonzero;stroke:none"
             id="path36" />
        </g>
        <g
           id="g38"
           transform="translate(441.0655,142.8533)">
          <path
             d="m 0,0 c -1.641,1.337 -3.391,2.516 -5.225,3.574 -0.985,0.571 -1.861,1.081 -1.861,1.859 0,0.596 0.609,1.203 1.872,2.249 2.456,2.03 2.783,2.309 3.634,3.16 L -0.279,9.93 C -1.993,8.423 -2.26,8.216 -4.631,6.406 c -0.594,-0.45 -0.838,-0.645 -0.838,-0.9 0,-0.304 0.547,-0.608 0.9,-0.802 1.786,-0.972 4.667,-2.747 5.772,-3.695 z"
             style="fill:#f15a22;fill-opacity:1;fill-rule:nonzero;stroke:none"
             id="path40" />
        </g>
        <g
           id="g42"
           transform="translate(414.2344,148.9255)">
          <path
             d="m 0,0 c -0.432,0.778 -0.679,1.148 -1.161,1.753 l 0.865,0.506 c 0.493,-0.568 0.9,-1.21 1.159,-1.74 z m -1.518,-0.74 c -0.556,1.073 -0.951,1.567 -1.148,1.826 l 0.839,0.506 C -1.185,0.815 -0.766,0 -0.654,-0.222 Z m 0.95,3.542 C -2.123,2.53 -3.222,2.012 -4.653,1.136 l -0.889,0.876 c 0.395,0.271 0.481,0.321 1.284,0.716 C -6.8,2.691 -7.863,2.666 -8.653,2.617 v 1.394 c 0.371,-0.012 1.902,-0.012 2.519,-0.012 0.876,0 4.776,0.012 5.566,0.012 z M -6.69,-0.617 c -1.036,-0.999 -1.086,-1.9 -1.086,-2.16 0,-1.604 2.369,-1.629 4.222,-1.629 1.208,0 2.418,0.05 3.615,0.222 l 0.05,-1.382 c -0.433,-0.062 -1.296,-0.173 -3.209,-0.173 -2.431,0 -3.48,0.111 -4.53,0.617 -0.852,0.407 -1.506,1.345 -1.506,2.321 0,1.135 0.544,1.913 1.444,2.925 z"
             style="fill:#f15a22;fill-opacity:1;fill-rule:nonzero;stroke:none"
             id="path44" />
        </g>
        <g
           id="g46"
           transform="translate(370.0188,102.0194)">
          <path
             d="M 0,0 2.973,9.726 H -66.224 L -69.197,0 h 25.201 l -2.669,-8.73 h -25.201 l -2.981,-9.75 h 25.201 l -1.102,-3.605 C -54.278,-33.63 -61.923,-36.4 -72.251,-36.407 h -8.077 l -2.987,-9.771 h 17.589 c 13.508,-0.006 19.203,3.041 27.673,13.232 2.36,-1.89 8.187,-8.933 10.11,-13.232 h 18.192 c -3.299,7.014 -18.99,19.109 -23.45,21.489 0.895,2.466 1.932,6.209 1.932,6.209 H -5.65 l 2.981,9.75 H -28.288 L -25.619,0 Z"
             style="fill:#faa61a;fill-opacity:1;fill-rule:nonzero;stroke:none"
             id="path48" />
        </g>
        <g
           id="g50"
           transform="translate(352.218,125.4463)">
          <path
             d="m 0,0 c -0.244,-0.732 -1.366,-3.917 -1.574,-4.576 0.268,0.195 0.744,0.537 1.574,0.537 1.964,0 2.013,-1.891 2.013,-2.77 v -0.525 c 0,-0.354 0,-1.464 1.037,-1.464 0.977,0 1.611,1.025 1.867,3.709 l 1.282,-0.378 c -0.33,-2.88 -1.062,-4.674 -3.307,-4.674 -1,0 -1.781,0.611 -2.05,1.331 -0.17,0.451 -0.207,1.183 -0.207,1.452 v 0.415 c 0,0.781 0,1.574 -0.915,1.574 -1.379,0 -2.075,-1.489 -2.331,-2.172 -0.025,-0.061 -0.635,-2.392 -0.721,-2.721 l -1.403,0.402 c 0.952,2.88 2.66,8.408 3.198,10.141 z"
             style="fill:#faa61a;fill-opacity:1;fill-rule:nonzero;stroke:none"
             id="path52" />
        </g>
        <g
           id="g54"
           transform="translate(329.6197,123.9685)">
          <path
             d="m 0,0 c -0.251,0.024 -0.525,0.048 -1.038,0.048 -1.074,0 -1.801,-0.287 -2.361,-0.561 -1.694,-0.847 -3.21,-2.481 -3.21,-4.091 0,-1.814 2.088,-2.458 5.523,-2.35 l -0.19,-1.42 c -2.565,0.012 -3.842,0.31 -4.928,0.871 -1.073,0.549 -1.776,1.682 -1.776,2.791 0,1.229 0.631,3.089 3.292,4.712 -1.861,-0.107 -3.71,-0.251 -5.559,-0.406 l -0.048,1.36 c 0.823,0 1.719,0.048 2.541,0.084 1.026,0.047 6.501,0.262 7.73,0.31 z"
             style="fill:#faa61a;fill-opacity:1;fill-rule:nonzero;stroke:none"
             id="path56" />
        </g>
        <g
           id="g58"
           transform="translate(282.0466,93.4352)">
          <path
             d="m 0,0 h -2.75 c -1.8,-0.005 -3.462,1.039 -4.147,3.268 l -3.146,10.23 h -18.23 L -24.146,0 h -22.485 l 24.891,36.902 c 1.087,1.613 2.396,2.432 3.848,2.442 h 4.575 l 2.07,6.771 H -33.702 L -63.256,2.298 C -64.401,0.601 -65.795,0 -67.083,0 h -2.784 L -72.86,-9.787 H 2.992 Z"
             style="fill:#f15a22;fill-opacity:1;fill-rule:nonzero;stroke:none"
             id="path60" />
        </g>
        <g
           id="g62"
           transform="translate(132.2353,94.8791)">
          <path
             d="M 0,0 H 40.616 C 32.052,-22.654 17.815,-29.156 -4.922,-29.156 h -3.992 l -3.02,-9.879 12.024,10e-4 c 15.563,-10e-4 23.712,2.079 35.266,9.848 1.845,-1.715 3.92,-5.169 4.264,-9.849 h 18.304 c -1.471,3.613 -9.629,12.723 -15.197,15.263 9.457,8.152 12.302,14.231 15.342,20.955 1.09,2.437 2.695,3.377 4.185,3.377 h 2.771 l 2.888,9.445 H 3.059 Z m 58.627,12.656 c 2.619,0.012 4.661,2.11 4.681,4.668 -0.026,2.573 -2.11,4.662 -4.669,4.682 -2.604,0.034 -4.661,-2.11 -4.681,-4.669 0.026,-2.573 2.11,-4.661 4.669,-4.681 m 16.148,4.668 c 0.026,-2.572 -2.063,-4.656 -4.682,-4.668 -2.559,0.02 -4.656,2.062 -4.669,4.681 0.02,2.559 2.063,4.657 4.682,4.669 2.573,0.026 4.702,-2.077 4.669,-4.682"
             style="fill:#faa61a;fill-opacity:1;fill-rule:nonzero;stroke:none"
             id="path64" />
        </g>
        <g
           id="g66"
           transform="translate(100.0276,139.6516)">
          <path
             d="m 0,0 -2.227,-7.283 h 1.592 c 2.396,0 3.244,-1.045 2.825,-2.414 l -7.909,-25.869 c -2.013,-6.585 -6.103,-10.631 -12.2,-10.639 h -31.728 l -2.995,-9.798 h 44.368 c 8.973,-0.029 16.5,5.853 19.482,15.607 l 9.113,29.807 c 0.629,2.06 1.777,3.306 4.027,3.306 H 26.3 L 28.526,0 Z m -26.513,-35.272 h -25.065 l 2.222,7.269 h 2.063 c 2.22,0 3.418,1.3 4.039,3.331 l 4.577,14.972 c 0.419,1.368 -0.422,2.417 -2.822,2.417 h -1.522 L -40.794,0 h 25.065 l -2.227,-7.283 h -2.058 c -2.225,0 -3.424,-1.305 -4.039,-3.317 l -4.577,-14.972 c -0.421,-1.376 0.429,-2.431 2.822,-2.431 h 1.518 z"
             style="fill:#f15a22;fill-opacity:1;fill-rule:nonzero;stroke:none"
             id="path68" />
        </g>
      </g>
    </g>
  </g>
</svg>
