<?xml version="1.0" encoding="UTF-8" standalone="no"?>
<!-- Created with Inkscape (http://www.inkscape.org/) -->

<svg
   version="1.1"
   id="svg2"
   width="666.66669"
   height="606.63599"
   viewBox="0 0 666.66669 606.63599"
   sodipodi:docname="Rhythm Tengoku (リズム天国) Logo (Unused).ai"
   xmlns:inkscape="http://www.inkscape.org/namespaces/inkscape"
   xmlns:sodipodi="http://sodipodi.sourceforge.net/DTD/sodipodi-0.dtd"
   xmlns="http://www.w3.org/2000/svg"
   xmlns:svg="http://www.w3.org/2000/svg">
  <defs
     id="defs6">
    <clipPath
       clipPathUnits="userSpaceOnUse"
       id="clipPath16">
      <path
         d="M 0,454.977 H 500 V 0 H 0 Z"
         id="path14" />
    </clipPath>
  </defs>
  <sodipodi:namedview
     id="namedview4"
     pagecolor="#ffffff"
     bordercolor="#000000"
     borderopacity="0.25"
     inkscape:showpageshadow="2"
     inkscape:pageopacity="0.0"
     inkscape:pagecheckerboard="0"
     inkscape:deskcolor="#d1d1d1" />
  <g
     id="g8"
     inkscape:groupmode="layer"
     inkscape:label="Rhythm Tengoku (リズム天国) Logo (Unused)"
     transform="matrix(1.3333333,0,0,-1.3333333,0,606.636)">
    <g
       id="g10">
      <g
         id="g12"
         clip-path="url(#clipPath16)">
        <g
           id="g18"
           transform="translate(500,333.0126)">
          <path
             d="m 0,0 c 0,67.251 -54.713,121.964 -121.964,121.964 -37.318,0 -71.885,-16.79 -94.937,-45.529 -6.651,1.123 -13.337,1.69 -19.992,1.69 -31.755,0 -61.597,-12.135 -84.16,-33.782 -17.51,9.333 -36.916,14.202 -56.983,14.202 C -445.287,58.545 -500,3.833 -500,-63.418 c 0,-49.043 30.015,-93.079 73.915,-112.033 -3.522,-11.52 -5.343,-23.548 -5.343,-35.597 0,-67.252 54.713,-121.965 121.964,-121.965 47.152,0 89.455,27.295 109.567,68.584 13.453,-4.982 27.701,-7.564 42.092,-7.564 67.251,0 121.964,54.712 121.964,121.963 0,18.561 -4.173,36.592 -12.192,53.065 C -17.995,-74.118 0,-38.515 0,0"
             style="fill:#00b3f0;fill-opacity:1;fill-rule:nonzero;stroke:none"
             id="path20" />
        </g>
        <g
           id="g22"
           transform="translate(488.2998,333.0126)">
          <path
             d="m 0,0 c 0,60.8 -49.464,110.264 -110.263,110.264 -36.078,0 -69.316,-17.37 -90.021,-46.747 -8.262,1.931 -16.617,2.908 -24.908,2.908 -31.637,0 -61.175,-13.329 -82.124,-36.815 -17.708,11.298 -37.964,17.235 -59.02,17.235 -60.799,0 -110.264,-49.464 -110.264,-110.263 0,-48.08 31.908,-90.836 77.13,-105.124 -5.618,-13.436 -8.557,-27.955 -8.557,-42.506 0,-60.8 49.464,-110.264 110.263,-110.264 46.409,0 87.623,29.253 103.405,72.238 15.043,-7.363 31.545,-11.219 48.254,-11.219 60.8,0 110.264,49.464 110.264,110.263 0,20.121 -5.43,39.556 -15.776,56.702 C -19.575,-73.21 0,-38.185 0,0"
             style="fill:#ffffff;fill-opacity:1;fill-rule:nonzero;stroke:none"
             id="path24" />
        </g>
        <g
           id="g26"
           transform="translate(480.4996,333.0126)">
          <path
             d="m 0,0 c 0,56.589 -45.874,102.464 -102.463,102.464 -36.506,0 -68.466,-19.149 -86.615,-47.892 -9.002,2.586 -18.48,4.053 -28.314,4.053 -32.802,0 -61.93,-15.472 -80.684,-39.451 -16.959,12.437 -37.817,19.871 -60.46,19.871 -56.589,0 -102.463,-45.874 -102.463,-102.463 0,-48.99 34.404,-89.889 80.353,-100.006 -7.491,-14.236 -11.781,-30.421 -11.781,-47.624 0,-56.59 45.875,-102.464 102.463,-102.464 47.352,0 87.088,32.164 98.837,75.805 15.44,-9.323 33.471,-14.786 52.822,-14.786 56.589,0 102.464,45.875 102.464,102.463 0,22.138 -7.092,42.58 -19.028,59.334 C -22.264,-73.55 0,-39.397 0,0"
             style="fill:#130c0e;fill-opacity:1;fill-rule:nonzero;stroke:none"
             id="path28" />
        </g>
        <g
           id="g30"
           transform="translate(369.2116,218.008)">
          <path
             d="m 0,0 -62.763,-19.189 c -3.375,-1.02 -5.387,-3.978 -5.386,-7.849 v -71.566 l 62.763,19.189 C -2.264,-78.479 0,-75.71 0,-71.565 Z M 25.309,21.426 V -83.685 l -118.755,-36.307 v 105.111 z m -37.08,-82.695 v 10.057 l -7.126,-2.179 v -10.057 z m 0,-13.728 -44.596,-13.635 v 8.191 l 7.873,2.407 c 3.216,0.984 5.121,3.547 5.121,7.788 v 14.909 l -12.994,-3.972 v 8.85 l 12.994,3.973 v 15.267 c 0,1.772 -1.066,4.157 -5.973,2.657 l -7.021,-2.147 v 8.246 l 44.596,13.634 v -8.246 l -7.785,-2.38 c -3.327,-1.017 -5.208,-3.497 -5.209,-7.796 v -13.546 l 12.994,3.973 v -8.851 l -12.994,-3.973 v -16.63 c 0,-2.618 2.011,-3.886 6.061,-2.648 l 6.933,2.12 z"
             style="fill:#f15a22;fill-opacity:1;fill-rule:nonzero;stroke:none"
             id="path32" />
        </g>
        <g
           id="g34"
           transform="translate(361.076,235.2548)">
          <path
             d="m 0,0 c -3.429,2.026 -5.112,2.587 -9.631,4.146 -0.935,0.342 -2.089,0.966 -2.089,2.088 0,1.091 1.122,2.587 2.463,4.208 5.298,6.39 5.392,6.577 6.639,8.322 l 2.151,-0.997 c -2.93,-3.71 -3.46,-4.271 -7.886,-9.32 C -8.79,7.979 -9.07,7.543 -9.07,7.169 -9.07,6.608 -8.135,6.327 -7.574,6.172 -4.769,5.361 0.031,3.584 1.933,2.4 Z"
             style="fill:#f15a22;fill-opacity:1;fill-rule:nonzero;stroke:none"
             id="path36" />
        </g>
        <g
           id="g38"
           transform="translate(308.1815,229.0521)">
          <path
             d="m 0,0 c -1.714,-2.307 -1.777,-3.959 -1.777,-4.364 0,-2.836 3.865,-1.714 6.858,-0.81 1.963,0.592 3.958,1.278 5.891,2.182 l 0.062,-2.431 C 10.348,-5.766 8.946,-6.359 5.829,-7.325 1.87,-8.509 0.156,-8.852 -1.558,-8.478 c -1.403,0.312 -2.463,1.652 -2.463,3.366 0,2.026 0.904,3.647 2.369,5.922 z M 9.974,11.221 V 9.07 C 7.449,7.824 5.642,6.359 3.335,4.083 L 1.901,5.205 c 0.655,0.686 0.78,0.811 2.089,1.87 L 3.959,7.107 C 1.247,6.234 -1.527,5.361 -3.148,4.769 v 2.462 c 0.592,0.156 3.086,0.904 4.114,1.216 z M 13.715,6.826 C 12.842,8.385 12.25,9.039 11.938,9.382 l 1.309,1.247 C 14.12,9.725 14.743,8.696 15.086,8.135 Z M 10.878,4.395 C 10.192,5.548 9.787,6.109 8.977,6.951 L 10.379,8.26 C 11.19,7.512 11.844,6.546 12.281,5.735 Z"
             style="fill:#f15a22;fill-opacity:1;fill-rule:nonzero;stroke:none"
             id="path40" />
        </g>
        <g
           id="g42"
           transform="translate(211.524,125.3452)">
          <path
             d="M 0,0 C 0.245,4.773 0.06,11.846 0.06,11.846 L 44.689,25.491 V 44.063 L 0.06,30.418 v 16.63 L 44.689,60.693 V 79.219 L -75.856,42.365 V 23.839 l 43.902,13.422 V 20.631 L -75.856,7.209 v -18.572 l 43.902,13.422 v -6.868 c 0,-21.992 -11.844,-30.889 -29.832,-36.401 l -14.07,-4.302 v -18.613 l 30.642,9.368 c 23.535,7.184 31.832,15.525 41.159,37.788 5.118,-2.034 19.022,-11.2 24.66,-17.665 l 31.691,9.689 C 42.814,-14.482 9.038,-1.771 0,0"
             style="fill:#faa61a;fill-opacity:1;fill-rule:nonzero;stroke:none"
             id="path44" />
        </g>
        <g
           id="g46"
           transform="translate(217.2973,217.2234)">
          <path
             d="m 0,0 c -0.442,-1.482 -2.334,-7.759 -2.681,-9.052 l 0.032,-0.032 c 0.41,0.473 1.198,1.325 2.586,1.766 3.217,0.947 3.343,-2.271 3.343,-4.037 v -0.946 c 0,-0.662 0,-2.65 1.735,-2.145 1.956,0.568 2.776,3.627 3.154,7.665 l 2.145,-0.063 c -0.536,-5.016 -1.672,-8.99 -5.488,-10.125 -3.785,-1.136 -3.817,2.681 -3.817,3.911 v 0.757 c 0,1.419 0.032,2.87 -1.514,2.397 -2.018,-0.599 -3.248,-2.996 -3.974,-5.362 -0.189,-0.82 -0.978,-4.321 -1.167,-5.047 l -2.334,0.032 c 1.199,4.195 4.069,14.919 5.425,19.997 z"
             style="fill:#faa61a;fill-opacity:1;fill-rule:nonzero;stroke:none"
             id="path48" />
        </g>
        <g
           id="g50"
           transform="translate(182.7281,206.3416)">
          <path
             d="m 0,0 v -2.492 c -0.536,-0.094 -1.041,-0.189 -2.05,-0.504 -3.438,-1.01 -9.021,-6.719 -9.053,-11.134 -0.031,-2.492 2.082,-2.65 3.502,-2.618 1.261,0.031 3.091,0.315 5.614,1.072 l -0.316,-2.744 c -2.05,-0.536 -4.415,-1.041 -6.402,-0.946 -2.208,0.063 -4.763,1.009 -4.763,4.384 0.031,1.829 0.788,5.709 5.677,10.219 l -0.031,0.032 c -4.479,-1.483 -5.015,-1.64 -9.652,-3.249 v 2.523 c 0.82,0.221 6.624,2.051 9.021,2.808 z"
             style="fill:#faa61a;fill-opacity:1;fill-rule:nonzero;stroke:none"
             id="path52" />
        </g>
        <g
           id="g54"
           transform="translate(437.8562,327.886)">
          <path
             d="m 0,0 -4.591,-1.404 c -3.005,-0.927 -6.312,-0.033 -8.595,3.339 l -10.475,15.478 -30.441,-9.307 13.782,-20.433 -37.547,-11.479 22.725,74.328 c 0.993,3.248 2.76,5.284 5.18,6.042 l 7.639,2.336 v 12.363 l -37.496,-11.464 -26.982,-88.255 c -1.045,-3.419 -3.067,-5.134 -5.218,-5.792 l -4.648,-1.421 V -53.54 l 126.66,38.724 z"
             style="fill:#f15a22;fill-opacity:1;fill-rule:nonzero;stroke:none"
             id="path56" />
        </g>
        <g
           id="g58"
           transform="translate(283.5719,276.9924)">
          <path
             d="m 0,0 c 11.632,18.444 13.28,30.05 14.924,42.833 0.575,4.625 2.775,7.016 5.265,7.777 l 4.628,1.415 V 69.273 L -83.498,36.158 V 17.886 l 67.834,20.739 C -18.4,-3.584 -38.857,-21.712 -76.831,-33.322 l -6.667,-2.038 v -18.042 l 20.081,6.141 c 25.992,7.945 38.541,15.58 53.871,34.455 3.956,-1.922 9.187,-6.63 12.151,-14.271 l 30.57,9.346 C 28.872,-12.447 10.596,-1.398 0,0 m 27.105,74.813 c 4.367,1.358 6.792,5.905 5.435,10.188 -1.274,4.368 -5.905,6.792 -10.188,5.435 -4.368,-1.358 -6.708,-5.904 -5.435,-10.188 1.358,-4.367 5.904,-6.708 10.188,-5.435 m -29.338,-0.42 c -1.274,4.284 1.067,8.914 5.434,10.188 4.284,1.273 8.831,-1.152 10.188,-5.435 1.274,-4.284 -1.067,-8.83 -5.435,-10.188 -4.283,-1.273 -8.83,1.152 -10.187,5.435"
             style="fill:#faa61a;fill-opacity:1;fill-rule:nonzero;stroke:none"
             id="path60" />
        </g>
        <g
           id="g62"
           transform="translate(113.8215,269.4909)">
          <path
             d="m 0,0 -2.49,-0.761 c -3.926,-1.201 -5.85,0.104 -5.85,2.573 v 26.862 c 0,3.609 1.312,6.351 4.963,7.467 L 0,37.174 V 50.241 L -41.125,37.667 V 24.601 l 2.497,0.763 c 3.938,1.204 5.843,-0.095 5.843,-2.549 V -4.047 c 0,-3.643 -1.314,-6.378 -4.956,-7.491 l -3.384,-1.035 V -25.614 L 0,-13.04 Z M 72.611,72.44 V 59.373 L 69.41,58.395 C 65.718,57.266 64.46,54.646 64.46,50.95 V -2.526 c 0,-17.5 -9.4,-30.927 -24.136,-35.38 l -72.796,-22.257 v 17.579 l 52.057,15.916 c 10,3.071 14.68,11.761 14.68,23.576 v 46.411 c 0,2.455 -1.915,3.745 -5.846,2.543 l -2.612,-0.798 v 13.067 z"
             style="fill:#f15a22;fill-opacity:1;fill-rule:nonzero;stroke:none"
             id="path64" />
        </g>
      </g>
    </g>
  </g>
</svg>
