<?xml version="1.0" encoding="UTF-8" standalone="no"?>
<!-- Created with Inkscape (http://www.inkscape.org/) -->

<svg
   version="1.1"
   id="svg2"
   width="666.66669"
   height="244.61067"
   viewBox="0 0 666.66669 244.61067"
   sodipodi:docname="Rhythm Tengoku (リズム天国) Logo (Alt).ai"
   xmlns:inkscape="http://www.inkscape.org/namespaces/inkscape"
   xmlns:sodipodi="http://sodipodi.sourceforge.net/DTD/sodipodi-0.dtd"
   xmlns="http://www.w3.org/2000/svg"
   xmlns:svg="http://www.w3.org/2000/svg">
  <defs
     id="defs6">
    <clipPath
       clipPathUnits="userSpaceOnUse"
       id="clipPath16">
      <path
         d="M 0,183.458 H 500 V 0 H 0 Z"
         id="path14" />
    </clipPath>
  </defs>
  <sodipodi:namedview
     id="namedview4"
     pagecolor="#ffffff"
     bordercolor="#000000"
     borderopacity="0.25"
     inkscape:showpageshadow="2"
     inkscape:pageopacity="0.0"
     inkscape:pagecheckerboard="0"
     inkscape:deskcolor="#d1d1d1" />
  <g
     id="g8"
     inkscape:groupmode="layer"
     inkscape:label="Rhythm Tengoku (リズム天国) Logo (Alt)"
     transform="matrix(1.3333333,0,0,-1.3333333,0,244.61067)">
    <g
       id="g10">
      <g
         id="g12"
         clip-path="url(#clipPath16)">
        <g
           id="g18"
           transform="translate(421.9434,183.4524)">
          <path
             d="m 0,0 h -0.001 -0.203 c -25.045,0 -47.916,-11.612 -62.524,-31.074 -7.648,2.446 -15.681,3.722 -23.764,3.743 h -0.21 c -7.673,0 -15.327,-1.138 -22.646,-3.339 -14.604,19.135 -37.312,30.607 -62.013,30.67 h -0.203 c -24.999,0 -47.857,-11.59 -62.477,-31.01 -0.29,0.092 -0.581,0.183 -0.872,0.272 -15.33,4.672 -31.366,4.549 -46.349,-0.195 -14.587,19.308 -37.361,30.876 -62.233,30.939 h -0.181 c -43.068,0 -78.162,-34.892 -78.267,-77.862 -0.112,-43.037 34.905,-78.145 78.06,-78.264 8.075,0.019 16.104,1.213 23.767,3.621 9.882,-12.982 23.719,-22.734 39.476,-27.541 17.817,-5.429 37.04,-4.32 54.13,3.125 12.4,5.403 23.126,13.88 31.174,24.484 7.597,-2.41 15.569,-3.668 23.582,-3.689 h 0.214 c 7.672,0 15.322,1.137 22.64,3.337 14.611,-19.133 37.323,-30.606 62.016,-30.669 h 0.203 c 25.046,0 47.921,11.612 62.533,31.071 7.64,-2.444 15.666,-3.72 23.751,-3.746 h 0.181 c 43.056,0 78.152,34.893 78.272,77.871 C 78.161,-35.218 43.145,-0.112 0,0"
             style="fill:#00b3f0;fill-opacity:1;fill-rule:nonzero;stroke:none"
             id="path20" />
        </g>
        <g
           id="g22"
           transform="translate(421.9189,174.0745)">
          <path
             d="M 0,0 H -0.001 -0.18 c -24.398,0 -46.454,-12.519 -58.898,-33.066 -8.599,3.74 -17.966,5.71 -27.414,5.735 h -0.185 c -9.014,0 -17.995,-1.783 -26.286,-5.19 -12.483,20.135 -34.369,32.46 -58.398,32.521 h -0.179 c -24.35,0 -46.39,-12.488 -58.854,-32.985 -2.353,1.015 -4.769,1.902 -7.229,2.654 -15.712,4.79 -32.272,3.855 -47.229,-2.565 -12.441,20.374 -34.411,32.841 -58.64,32.902 h -0.159 c -37.908,0 -68.797,-30.7 -68.89,-68.508 -0.099,-37.866 30.723,-68.758 68.708,-68.862 h 0.183 c 9.33,0 18.605,1.907 27.147,5.554 8.773,-14.391 22.298,-24.903 38.621,-29.88 6.747,-2.057 13.58,-3.043 20.31,-3.043 23.673,0 46.04,12.213 58.669,33.016 8.543,-3.683 17.838,-5.623 27.199,-5.647 h 0.189 c 9.011,0 17.988,1.78 26.278,5.186 12.491,-20.134 34.38,-32.457 58.402,-32.518 h 0.179 c 24.402,0 46.461,12.516 58.908,33.061 8.589,-3.735 17.949,-5.706 27.396,-5.736 h 0.159 c 37.899,0 68.79,30.703 68.896,68.517 C 68.795,-30.987 37.975,-0.099 0,0"
             style="fill:#ffffff;fill-opacity:1;fill-rule:nonzero;stroke:none"
             id="path24" />
        </g>
        <g
           id="g26"
           transform="translate(421.9034,168.1069)">
          <path
             d="m 0,0 c -24.797,0.062 -46.279,-14.188 -56.572,-34.948 -8.887,4.831 -19.078,7.588 -29.921,7.617 -10.429,0.028 -20.274,-2.481 -28.946,-6.939 -10.378,20.291 -31.509,34.208 -55.921,34.27 -24.757,0.062 -46.205,-14.143 -56.526,-34.841 -3.588,1.927 -7.414,3.532 -11.461,4.769 -16.613,5.063 -33.741,2.905 -47.979,-4.661 -10.293,20.539 -31.559,34.676 -56.164,34.739 -34.745,0.079 -62.982,-27.914 -63.067,-62.557 -0.091,-34.632 28.005,-62.782 62.755,-62.878 10.775,-0.028 20.926,2.655 29.808,7.391 7.442,-14.85 20.728,-26.75 37.868,-31.976 29.83,-9.092 61.327,5.096 74.743,32.094 8.842,-4.763 18.96,-7.481 29.712,-7.509 10.429,-0.028 20.274,2.48 28.94,6.933 10.384,-20.28 31.514,-34.202 55.926,-34.265 24.803,-0.062 46.285,14.183 56.583,34.943 8.888,-4.831 19.067,-7.583 29.899,-7.617 34.745,-0.079 62.977,27.93 63.073,62.562 C 62.835,-28.235 34.745,-0.09 0,0"
             style="fill:#130c0e;fill-opacity:1;fill-rule:nonzero;stroke:none"
             id="path28" />
        </g>
        <g
           id="g30"
           transform="translate(448.5901,127.8178)">
          <path
             d="m 0,0 h -37.66 c -2.023,0.006 -3.623,-1.28 -4.272,-3.404 l -12.006,-39.271 h 37.66 c 1.87,-0.01 3.576,1.13 4.272,3.404 z M 17.483,7.511 -0.151,-50.167 h -71.257 l 17.634,57.678 z m -38.497,-39.157 h 4.276 l 1.687,5.519 h -4.276 z m -15.068,24.251 1.383,4.525 H -7.94 l -1.384,-4.525 h -4.671 c -1.996,0 -3.445,-1.045 -4.166,-3.404 l -2.273,-7.433 h 7.797 l -1.485,-4.857 h -7.797 l -2.789,-9.125 c -0.44,-1.437 0.451,-2.47 2.881,-2.47 h 4.16 l -1.374,-4.495 H -45.8 l 1.374,4.495 h 4.724 c 1.93,0 3.405,1.086 4.117,3.414 l 2.501,8.181 h -7.797 l 1.485,4.857 h 7.797 l 2.561,8.377 c 0.297,0.972 0.112,2.46 -2.832,2.46 z"
             style="fill:#f15a22;fill-opacity:1;fill-rule:nonzero;stroke:none"
             id="path32" />
        </g>
        <g
           id="g34"
           transform="translate(447.0022,141.7408)">
          <path
             d="m 0,0 c -2.055,1.674 -4.246,3.151 -6.543,4.475 -1.233,0.715 -2.33,1.354 -2.33,2.328 0,0.746 0.762,1.507 2.345,2.816 3.074,2.542 3.484,2.891 4.55,3.957 l 1.629,-1.141 C -2.496,10.547 -2.83,10.288 -5.798,8.021 -6.543,7.458 -6.848,7.214 -6.848,6.895 -6.848,6.514 -6.163,6.134 -5.722,5.89 -3.485,4.673 0.123,2.451 1.507,1.263 Z"
             style="fill:#f15a22;fill-opacity:1;fill-rule:nonzero;stroke:none"
             id="path36" />
        </g>
        <g
           id="g38"
           transform="translate(422.1827,149.5482)">
          <path
             d="m 0,0 c -0.533,0.959 -0.838,1.416 -1.431,2.161 l 1.066,0.624 C 0.243,2.085 0.745,1.294 1.064,0.639 Z M -1.872,-0.913 C -2.557,0.411 -3.044,1.02 -3.287,1.339 l 1.035,0.624 C -1.461,1.004 -0.944,0 -0.807,-0.274 Z M -0.7,3.454 C -2.618,3.12 -3.972,2.48 -5.736,1.4 L -6.833,2.48 C -6.346,2.815 -6.24,2.876 -5.25,3.363 -8.384,3.317 -9.694,3.287 -10.668,3.226 v 1.719 c 0.458,-0.014 2.345,-0.014 3.105,-0.014 1.081,0 5.889,0.014 6.863,0.014 z m -7.548,-4.215 c -1.277,-1.232 -1.339,-2.343 -1.339,-2.662 0,-1.978 2.921,-2.009 5.205,-2.009 1.49,0 2.982,0.061 4.458,0.274 l 0.06,-1.704 c -0.532,-0.076 -1.597,-0.213 -3.956,-0.213 -2.997,0 -4.29,0.137 -5.584,0.761 -1.051,0.501 -1.857,1.658 -1.857,2.86 0,1.4 0.67,2.359 1.78,3.606 z"
             style="fill:#f15a22;fill-opacity:1;fill-rule:nonzero;stroke:none"
             id="path40" />
        </g>
        <g
           id="g42"
           transform="translate(374.3398,96.6928)">
          <path
             d="M 0,0 3.081,10.076 H -68.608 L -71.688,0 h 26.108 l -2.765,-9.044 h -26.108 l -3.089,-10.101 h 26.109 l -1.142,-3.735 c -3.657,-11.961 -11.578,-14.83 -22.277,-14.837 h -8.368 l -3.095,-10.123 h 18.223 c 13.994,-0.007 19.894,3.15 28.669,13.708 2.445,-1.958 8.482,-9.255 10.474,-13.708 h 18.847 c -3.418,7.266 -19.674,19.796 -24.295,22.262 0.927,2.555 2.003,6.433 2.003,6.433 h 26.541 l 3.088,10.101 H -29.306 L -26.541,0 Z"
             style="fill:#faa61a;fill-opacity:1;fill-rule:nonzero;stroke:none"
             id="path44" />
        </g>
        <g
           id="g46"
           transform="translate(354.1153,125.9485)">
          <path
             d="m 0,0 c -0.3,-0.9 -1.679,-4.815 -1.935,-5.625 0.33,0.24 0.915,0.66 1.935,0.66 2.415,0 2.474,-2.325 2.474,-3.405 v -0.645 c 0,-0.435 0,-1.8 1.276,-1.8 1.2,0 1.979,1.26 2.295,4.56 L 7.62,-6.72 c -0.405,-3.54 -1.305,-5.745 -4.065,-5.745 -1.229,0 -2.189,0.75 -2.52,1.635 -0.209,0.555 -0.255,1.455 -0.255,1.785 v 0.51 c 0,0.96 0,1.935 -1.124,1.935 -1.696,0 -2.551,-1.83 -2.866,-2.67 -0.03,-0.075 -0.78,-2.94 -0.885,-3.345 l -1.725,0.495 c 1.17,3.54 3.27,10.335 3.931,12.465 z"
             style="fill:#faa61a;fill-opacity:1;fill-rule:nonzero;stroke:none"
             id="path48" />
        </g>
        <g
           id="g50"
           transform="translate(334.606,124.167)">
          <path
             d="m 0,0 c -0.316,0.03 -0.662,0.06 -1.307,0.06 -1.352,0 -2.268,-0.361 -2.974,-0.706 -2.133,-1.066 -4.04,-3.125 -4.04,-5.152 0,-2.283 2.628,-3.094 6.954,-2.959 l -0.24,-1.787 c -3.23,0.014 -4.837,0.39 -6.204,1.096 -1.352,0.691 -2.237,2.118 -2.237,3.515 0,1.547 0.795,3.89 4.144,5.933 -2.343,-0.135 -4.67,-0.316 -6.999,-0.511 l -0.06,1.713 c 1.036,0 2.164,0.06 3.2,0.105 1.291,0.06 8.185,0.33 9.732,0.39 z"
             style="fill:#faa61a;fill-opacity:1;fill-rule:nonzero;stroke:none"
             id="path52" />
        </g>
        <g
           id="g54"
           transform="translate(283.2005,87.7995)">
          <path
             d="m 0,0 h -2.849 c -1.865,-0.005 -3.587,1.076 -4.297,3.385 l -3.258,10.599 H -29.291 L -25.015,0 H -48.31 l 25.787,38.231 c 1.127,1.67 2.482,2.519 3.987,2.53 h 4.74 l 2.145,7.014 H -34.915 L -65.534,2.381 C -66.72,0.623 -68.164,0 -69.498,0 h -2.885 l -3.1,-10.14 H 3.1 Z"
             style="fill:#f15a22;fill-opacity:1;fill-rule:nonzero;stroke:none"
             id="path56" />
        </g>
        <g
           id="g58"
           transform="translate(127.9958,89.2954)">
          <path
             d="M 0,0 H 42.078 C 33.206,-23.47 18.457,-30.206 -5.099,-30.206 H -9.235 L -12.364,-40.44 H 0.093 c 16.123,0 24.566,2.154 36.536,10.203 1.911,-1.776 4.061,-5.354 4.418,-10.203 H 60.01 c -1.525,3.743 -9.976,13.181 -15.745,15.812 9.798,8.446 12.745,14.744 15.895,21.71 1.128,2.524 2.791,3.499 4.336,3.499 h 2.87 l 2.992,9.785 H 3.169 Z m 60.737,13.111 c 2.713,0.013 4.83,2.186 4.85,4.837 -0.027,2.665 -2.185,4.83 -4.836,4.85 -2.699,0.035 -4.83,-2.186 -4.85,-4.837 0.027,-2.665 2.185,-4.829 4.836,-4.85 m 16.73,4.837 c 0.027,-2.665 -2.137,-4.824 -4.85,-4.837 -2.651,0.021 -4.824,2.137 -4.837,4.85 0.02,2.651 2.137,4.824 4.85,4.837 2.665,0.027 4.872,-2.151 4.837,-4.85"
             style="fill:#faa61a;fill-opacity:1;fill-rule:nonzero;stroke:none"
             id="path60" />
        </g>
        <g
           id="g62"
           transform="translate(94.6286,135.6797)">
          <path
             d="m 0,0 -2.307,-7.545 h 1.649 c 2.483,0 3.361,-1.083 2.927,-2.501 l -8.193,-26.8 c -2.086,-6.823 -6.323,-11.014 -12.64,-11.022 h -32.87 l -3.103,-10.151 h 45.965 c 9.296,-0.03 17.094,6.064 20.183,16.169 l 9.441,30.88 c 0.653,2.134 1.842,3.425 4.173,3.425 h 2.021 L 29.553,0 Z m -27.467,-36.541 h -25.968 l 2.303,7.53 h 2.137 c 2.299,0 3.541,1.347 4.184,3.451 l 4.742,15.511 c 0.433,1.417 -0.437,2.504 -2.924,2.504 h -1.576 L -42.263,0 h 25.968 l -2.307,-7.545 h -2.133 c -2.305,0 -3.547,-1.352 -4.184,-3.436 l -4.742,-15.511 c -0.436,-1.427 0.445,-2.519 2.924,-2.519 h 1.572 z"
             style="fill:#f15a22;fill-opacity:1;fill-rule:nonzero;stroke:none"
             id="path64" />
        </g>
        <g
           id="g66"
           transform="translate(494.0251,28.3049)">
          <path
             d="M 0,0 V 8.17 L -1.904,0 H -3.966 L -5.825,8.17 V 0 h -1.949 v 9.78 h 3.045 l 1.836,-7.757 h 0.023 l 1.791,7.757 h 3.006 l 0,-9.78 z m -14.074,0 v 8.045 h -3.135 v 1.729 h 8.294 V 8.045 h -3.023 V 0 Z"
             style="fill:#130c0e;fill-opacity:1;fill-rule:nonzero;stroke:none"
             id="path68" />
        </g>
      </g>
    </g>
  </g>
</svg>
