<?xml version="1.0" encoding="UTF-8" standalone="no"?>
<!-- Created with Inkscape (http://www.inkscape.org/) -->

<svg
   version="1.1"
   id="svg2"
   width="666.66669"
   height="571.08398"
   viewBox="0 0 666.66669 571.08398"
   sodipodi:docname="Custard Paradise Megamix Logo.ai"
   xmlns:inkscape="http://www.inkscape.org/namespaces/inkscape"
   xmlns:sodipodi="http://sodipodi.sourceforge.net/DTD/sodipodi-0.dtd"
   xmlns="http://www.w3.org/2000/svg"
   xmlns:svg="http://www.w3.org/2000/svg">
  <defs
     id="defs6">
    <clipPath
       clipPathUnits="userSpaceOnUse"
       id="clipPath16">
      <path
         d="M 0,428.313 H 500 V 0 H 0 Z"
         id="path14" />
    </clipPath>
    <linearGradient
       x1="0"
       y1="0"
       x2="1"
       y2="0"
       gradientUnits="userSpaceOnUse"
       gradientTransform="matrix(59.113621,-2e-7,-0.018473,-59.113563,434.3945,160.93443)"
       spreadMethod="pad"
       id="linearGradient52">
      <stop
         style="stop-opacity:1;stop-color:#ff8c3c"
         offset="0"
         id="stop46" />
      <stop
         style="stop-opacity:1;stop-color:#ff5a00"
         offset="0.75"
         id="stop48" />
      <stop
         style="stop-opacity:1;stop-color:#ff5a00"
         offset="1"
         id="stop50" />
    </linearGradient>
    <clipPath
       clipPathUnits="userSpaceOnUse"
       id="clipPath62">
      <path
         d="M 0,428.313 H 500 V 0 H 0 Z"
         id="path60" />
    </clipPath>
    <clipPath
       clipPathUnits="userSpaceOnUse"
       id="clipPath70">
      <path
         d="M 50.055,221.872 H 578.29 V -135.16 H 50.055 Z"
         id="path68" />
    </clipPath>
    <clipPath
       clipPathUnits="userSpaceOnUse"
       id="clipPath74">
      <path
         d="m 434.404,116.711 v 10.33 c -0.028,8.97 -0.015,17.764 10.461,30.657 -7.674,5.077 -10.461,12.265 -10.461,26.286 v 7.519 l 22.633,5.237 v -16.659 c 0,-3.875 2.411,-6.701 6.913,-5.662 4.502,1.039 6.913,4.979 6.913,8.854 l 0.002,16.659 22.634,5.226 v -7.531 c 0,-14.021 -2.788,-22.496 -10.461,-31.116 10.461,-8.046 10.461,-16.85 10.461,-25.827 v -10.33 l -22.634,-5.225 v 17.576 c 0,6.268 -2.413,9.035 -6.915,7.996 -4.502,-1.04 -6.913,-4.921 -6.913,-11.188 v -17.576 z"
         id="path72" />
    </clipPath>
    <linearGradient
       x1="0"
       y1="0"
       x2="1"
       y2="0"
       gradientUnits="userSpaceOnUse"
       gradientTransform="matrix(39.135792,9.0352097,0.0865576,-41.137714,392.22263,152.00374)"
       spreadMethod="pad"
       id="linearGradient108">
      <stop
         style="stop-opacity:1;stop-color:#aa37be"
         offset="0"
         id="stop104" />
      <stop
         style="stop-opacity:1;stop-color:#5f14a5"
         offset="1"
         id="stop106" />
    </linearGradient>
    <clipPath
       clipPathUnits="userSpaceOnUse"
       id="clipPath118">
      <path
         d="M 0,428.313 H 500 V 0 H 0 Z"
         id="path116" />
    </clipPath>
    <clipPath
       clipPathUnits="userSpaceOnUse"
       id="clipPath126">
      <path
         d="M 50.055,221.872 H 578.29 V -135.16 H 50.055 Z"
         id="path124" />
    </clipPath>
    <clipPath
       clipPathUnits="userSpaceOnUse"
       id="clipPath130">
      <path
         d="m 403.767,192.073 22.66,5.231 v -74.807 l -22.66,-5.232 z"
         id="path128" />
    </clipPath>
    <linearGradient
       x1="0"
       y1="0"
       x2="1"
       y2="0"
       gradientUnits="userSpaceOnUse"
       gradientTransform="matrix(91.19725,21.054598,5.45e-5,-91.197243,305.71747,125.66695)"
       spreadMethod="pad"
       id="linearGradient166">
      <stop
         style="stop-opacity:1;stop-color:#ffff00"
         offset="0"
         id="stop160" />
      <stop
         style="stop-opacity:1;stop-color:#ffbe00"
         offset="0.75"
         id="stop162" />
      <stop
         style="stop-opacity:1;stop-color:#ffbe00"
         offset="1"
         id="stop164" />
    </linearGradient>
    <clipPath
       clipPathUnits="userSpaceOnUse"
       id="clipPath176">
      <path
         d="M 0,428.313 H 500 V 0 H 0 Z"
         id="path174" />
    </clipPath>
    <clipPath
       clipPathUnits="userSpaceOnUse"
       id="clipPath184">
      <path
         d="M -34.8694,313.585 H 578.29 V -135.16 H -34.8694 Z"
         id="path182" />
    </clipPath>
    <clipPath
       clipPathUnits="userSpaceOnUse"
       id="clipPath188">
      <path
         d="m 388.958,173.471 c -5.556,5.105 -13.053,6.719 -21.832,4.693 -5.896,-1.362 -10.641,-3.826 -15.885,-8.382 -5.244,2.134 -9.961,2.415 -15.885,1.047 -8.753,-2.021 -16.277,-7.104 -21.832,-14.773 -5.844,-8.067 -7.812,-15.257 -7.812,-28.804 V 87.337 l 22.744,5.25 v 44.238 c 0,6.667 2.149,9.456 5.658,10.266 3.51,0.811 5.755,-0.964 5.755,-7.631 V 95.222 l 22.744,5.251 v 44.238 c 0,6.667 2.245,9.478 5.755,10.288 3.509,0.811 5.658,-0.986 5.658,-7.653 v -44.238 l 22.743,5.251 v 39.915 c 0,13.547 -1.968,19.828 -7.811,25.197"
         id="path186" />
    </clipPath>
    <linearGradient
       x1="0"
       y1="0"
       x2="1"
       y2="0"
       gradientUnits="userSpaceOnUse"
       gradientTransform="matrix(59.094528,13.643046,0,-59.094528,238.73795,117.95165)"
       spreadMethod="pad"
       id="linearGradient228">
      <stop
         style="stop-opacity:1;stop-color:#6ee6ff"
         offset="0"
         id="stop222" />
      <stop
         style="stop-opacity:1;stop-color:#00a0ff"
         offset="0.85"
         id="stop224" />
      <stop
         style="stop-opacity:1;stop-color:#00a0ff"
         offset="1"
         id="stop226" />
    </linearGradient>
    <clipPath
       clipPathUnits="userSpaceOnUse"
       id="clipPath238">
      <path
         d="M 0,428.313 H 500 V 0 H 0 Z"
         id="path236" />
    </clipPath>
    <clipPath
       clipPathUnits="userSpaceOnUse"
       id="clipPath246">
      <path
         d="M -34.8694,313.585 H 494.066 V -52.2432 H -34.8694 Z"
         id="path244" />
    </clipPath>
    <clipPath
       clipPathUnits="userSpaceOnUse"
       id="clipPath250">
      <path
         d="m 275.791,122.654 -7.506,2.4 -7.506,-5.866 1.408,9.131 -6.046,4.856 8.375,3.244 3.769,8.866 3.769,-7.126 8.376,0.624 -6.046,-7.648 z m 15.685,34.282 c -5.346,5.928 -14.22,8.221 -23.191,6.15 -8.97,-2.071 -17.831,-8.468 -23.171,-16.854 -4.681,-7.349 -6.376,-14.021 -6.376,-25.367 V 79.639 l 22.606,5.219 v 16.417 l 13.883,3.185 V 88.063 l 22.605,5.219 v 41.226 c 0,11.346 -1.683,17.247 -6.356,22.428"
         id="path248" />
    </clipPath>
    <linearGradient
       x1="0"
       y1="0"
       x2="1"
       y2="0"
       gradientUnits="userSpaceOnUse"
       gradientTransform="matrix(58.345142,13.470038,0.1290433,-61.329681,173.62611,94.672005)"
       spreadMethod="pad"
       id="linearGradient286">
      <stop
         style="stop-opacity:1;stop-color:#ff8232"
         offset="0"
         id="stop280" />
      <stop
         style="stop-opacity:1;stop-color:#c80000"
         offset="0.75"
         id="stop282" />
      <stop
         style="stop-opacity:1;stop-color:#c80000"
         offset="1"
         id="stop284" />
    </linearGradient>
    <clipPath
       clipPathUnits="userSpaceOnUse"
       id="clipPath296">
      <path
         d="M 0,428.313 H 500 V 0 H 0 Z"
         id="path294" />
    </clipPath>
    <clipPath
       clipPathUnits="userSpaceOnUse"
       id="clipPath304">
      <path
         d="M -34.8694,313.585 H 494.066 V -52.2432 H -34.8694 Z"
         id="path302" />
    </clipPath>
    <clipPath
       clipPathUnits="userSpaceOnUse"
       id="clipPath308">
      <path
         d="m 231.893,70.849 c -7.563,-3.177 -12.052,-4.757 -18.134,-6.161 -12.705,-2.933 -20.948,-1.729 -28.485,4.021 -7.506,5.728 -11.648,14.899 -11.648,25.914 0,10.544 3.815,21.499 10.654,30.255 7.459,9.548 16.944,15.415 29.838,18.391 5.657,1.306 10.405,1.955 17.775,2.178 v -23.44 c -6.928,-0.14 -11.251,-0.669 -16.561,-1.895 -12.365,-2.855 -19.376,-10.221 -19.376,-20.376 0,-8.535 5.244,-13.495 13.331,-12.747 v 22.308 l 22.606,5.219 z"
         id="path306" />
    </clipPath>
    <linearGradient
       x1="0"
       y1="0"
       x2="1"
       y2="0"
       gradientUnits="userSpaceOnUse"
       gradientTransform="matrix(47.973873,11.075642,0.1061049,-50.427891,118.52718,89.627159)"
       spreadMethod="pad"
       id="linearGradient344">
      <stop
         style="stop-opacity:1;stop-color:#c8f000"
         offset="0"
         id="stop338" />
      <stop
         style="stop-opacity:1;stop-color:#14b400"
         offset="0.8"
         id="stop340" />
      <stop
         style="stop-opacity:1;stop-color:#14b400"
         offset="1"
         id="stop342" />
    </linearGradient>
    <clipPath
       clipPathUnits="userSpaceOnUse"
       id="clipPath354">
      <path
         d="M 0,428.313 H 500 V 0 H 0 Z"
         id="path352" />
    </clipPath>
    <clipPath
       clipPathUnits="userSpaceOnUse"
       id="clipPath362">
      <path
         d="M -34.8694,313.585 H 494.066 V -52.2432 H -34.8694 Z"
         id="path360" />
    </clipPath>
    <clipPath
       clipPathUnits="userSpaceOnUse"
       id="clipPath366">
      <path
         d="m 142.658,57.779 c -8.86,-2.045 -13.258,-1.752 -17.472,0.892 -4.4,2.761 -6.624,7.782 -6.624,14.627 0,8.28 2.87,13.663 10.433,19.434 -7.149,2.068 -9.716,5.407 -9.716,12.666 0,7.066 2.885,13.87 7.867,18.965 3.93,4.019 9.798,6.958 17.803,8.783 l 21.473,4.957 v -21.087 l -15.07,-3.479 c -5.962,-1.376 -7.784,-2.772 -7.784,-6.029 0,-3.257 1.822,-3.811 7.784,-2.435 l 15.07,3.48 V 92.744 l -15.07,-3.479 c -5.962,-1.377 -6.569,-4.173 -6.569,-5.747 0,-1.683 0.607,-4.125 6.569,-2.748 l 15.07,3.479 V 63.266 Z"
         id="path364" />
    </clipPath>
    <linearGradient
       x1="0"
       y1="0"
       x2="1"
       y2="0"
       gradientUnits="userSpaceOnUse"
       gradientTransform="matrix(101.58785,23.453464,6.07e-5,-101.58784,12.604266,59.069161)"
       spreadMethod="pad"
       id="linearGradient402">
      <stop
         style="stop-opacity:1;stop-color:#ffff00"
         offset="0"
         id="stop396" />
      <stop
         style="stop-opacity:1;stop-color:#ffbe00"
         offset="0.75"
         id="stop398" />
      <stop
         style="stop-opacity:1;stop-color:#ffbe00"
         offset="1"
         id="stop400" />
    </linearGradient>
    <clipPath
       clipPathUnits="userSpaceOnUse"
       id="clipPath412">
      <path
         d="M 0,428.313 H 500 V 0 H 0 Z"
         id="path410" />
    </clipPath>
    <clipPath
       clipPathUnits="userSpaceOnUse"
       id="clipPath420">
      <path
         d="M -34.8694,313.585 H 494.066 V -52.2432 H -34.8694 Z"
         id="path418" />
    </clipPath>
    <clipPath
       clipPathUnits="userSpaceOnUse"
       id="clipPath424">
      <path
         d="m 104.154,108.792 c -5.556,5.104 -13.053,6.719 -21.833,4.692 -5.896,-1.361 -10.64,-3.826 -15.885,-8.381 -5.244,2.134 -9.96,2.414 -15.884,1.047 C 41.798,104.129 34.275,99.046 28.719,91.376 22.876,83.309 20.908,76.12 20.908,62.573 V 22.657 l 22.743,5.251 v 44.238 c 0,6.667 2.149,9.456 5.659,10.266 3.509,0.81 5.755,-0.964 5.755,-7.631 V 30.543 l 22.743,5.251 v 44.238 c 0,6.666 2.245,9.478 5.755,10.288 3.51,0.81 5.658,-0.987 5.658,-7.653 V 38.429 l 22.744,5.25 v 39.916 c 0,13.547 -1.968,19.828 -7.811,25.197"
         id="path422" />
    </clipPath>
    <radialGradient
       fx="0"
       fy="0"
       cx="0"
       cy="0"
       r="1"
       gradientUnits="userSpaceOnUse"
       gradientTransform="matrix(11.215127,0,0,-11.215127,430.89865,119.57646)"
       spreadMethod="pad"
       id="radialGradient460">
      <stop
         style="stop-opacity:1;stop-color:#faffc8"
         offset="0"
         id="stop454" />
      <stop
         style="stop-opacity:1;stop-color:#c8ff00"
         offset="0.45"
         id="stop456" />
      <stop
         style="stop-opacity:1;stop-color:#00a000"
         offset="1"
         id="stop458" />
    </radialGradient>
    <clipPath
       clipPathUnits="userSpaceOnUse"
       id="clipPath470">
      <path
         d="M 0,428.313 H 500 V 0 H 0 Z"
         id="path468" />
    </clipPath>
    <radialGradient
       fx="0"
       fy="0"
       cx="0"
       cy="0"
       r="1"
       gradientUnits="userSpaceOnUse"
       gradientTransform="matrix(9.7658634,0,0,-9.7658634,201.11731,145.63638)"
       spreadMethod="pad"
       id="radialGradient494">
      <stop
         style="stop-opacity:1;stop-color:#ffffa0"
         offset="0"
         id="stop488" />
      <stop
         style="stop-opacity:1;stop-color:#ffff00"
         offset="0.55"
         id="stop490" />
      <stop
         style="stop-opacity:1;stop-color:#ffc800"
         offset="1"
         id="stop492" />
    </radialGradient>
    <clipPath
       clipPathUnits="userSpaceOnUse"
       id="clipPath504">
      <path
         d="M 0,428.313 H 500 V 0 H 0 Z"
         id="path502" />
    </clipPath>
    <radialGradient
       fx="0"
       fy="0"
       cx="0"
       cy="0"
       r="1"
       gradientUnits="userSpaceOnUse"
       gradientTransform="matrix(11.332798,0,0,-11.332798,20.494005,20.418552)"
       spreadMethod="pad"
       id="radialGradient528">
      <stop
         style="stop-opacity:1;stop-color:#d9ffff"
         offset="0"
         id="stop522" />
      <stop
         style="stop-opacity:1;stop-color:#96d2ff"
         offset="0.42"
         id="stop524" />
      <stop
         style="stop-opacity:1;stop-color:#00aaff"
         offset="1"
         id="stop526" />
    </radialGradient>
    <clipPath
       clipPathUnits="userSpaceOnUse"
       id="clipPath538">
      <path
         d="M 0,428.313 H 500 V 0 H 0 Z"
         id="path536" />
    </clipPath>
  </defs>
  <sodipodi:namedview
     id="namedview4"
     pagecolor="#ffffff"
     bordercolor="#000000"
     borderopacity="0.25"
     inkscape:showpageshadow="2"
     inkscape:pageopacity="0.0"
     inkscape:pagecheckerboard="0"
     inkscape:deskcolor="#d1d1d1" />
  <g
     id="g8"
     inkscape:groupmode="layer"
     inkscape:label="Custard Paradise Megamix Logo"
     transform="matrix(1.3333333,0,0,-1.3333333,0,571.084)">
    <g
       id="g10">
      <g
         id="g12"
         clip-path="url(#clipPath16)">
        <g
           id="g18"
           transform="translate(489.222,264.4647)">
          <path
             d="m 0,0 c 0,40.209 -24.848,74.696 -59.934,88.802 -11.846,43.229 -50.983,75.047 -97.31,75.047 -37.68,0 -70.6,-21.05 -87.954,-52.164 -10.732,3.711 -22.245,5.732 -34.223,5.732 -18.96,0 -36.762,-5.053 -52.132,-13.883 -13.785,7.254 -29.469,11.368 -46.097,11.368 -54.765,0 -99.319,-44.554 -99.319,-99.319 0,-11.56 1.993,-22.663 5.64,-32.99 -11.203,-15.094 -17.855,-33.859 -17.855,-54.174 0,-43.04 29.849,-79.129 69.628,-88.056 18.044,-21.137 46.142,-34.75 77.649,-34.75 21.313,0 41.066,6.23 57.203,16.804 12.124,-5.121 25.571,-7.974 39.718,-7.974 23.756,0 45.536,8.048 62.396,21.373 7.134,-1.508 14.528,-2.308 22.105,-2.308 49.155,0 90.646,33.408 102.982,78.708 C -23.707,-73.087 0,-39.273 0,0"
             style="fill:#0096e6;fill-opacity:1;fill-rule:nonzero;stroke:none"
             id="path20" />
        </g>
        <g
           id="g22"
           transform="translate(477.7582,264.4647)">
          <path
             d="m 0,0 c 0,37.435 -24.464,69.226 -58.168,80.117 -8.52,41.221 -44.565,72.268 -87.612,72.268 -36.921,0 -68.69,-22.838 -82.362,-55.344 -12.088,5.712 -25.584,8.913 -39.815,8.913 -19.185,0 -37.036,-5.811 -51.896,-15.76 -13.46,8.389 -29.339,13.244 -46.334,13.244 -48.443,0 -87.854,-39.411 -87.854,-87.855 0,-12.431 2.601,-24.266 7.279,-34.994 -12.116,-13.901 -19.494,-32.17 -19.494,-52.17 0,-38.919 27.902,-71.313 64.413,-77.595 15.747,-20.385 41.878,-33.747 71.4,-33.747 21.32,0 40.871,6.972 56.021,18.521 12.151,-6.173 26.089,-9.691 40.9,-9.691 23.1,0 44.071,8.559 59.448,22.415 7.986,-2.179 16.385,-3.35 25.053,-3.35 45.831,0 84.202,32.537 93.238,75.723 C -23.316,-67.71 0,-36.546 0,0"
             style="fill:#ffffff;fill-opacity:1;fill-rule:nonzero;stroke:none"
             id="path24" />
        </g>
        <g
           id="g26"
           transform="translate(471.0027,264.4647)">
          <path
             d="m 0,0 c 0,35.904 -24.329,66.089 -57.319,74.831 -6.327,40.133 -40.493,70.798 -81.706,70.798 -36.744,0 -67.877,-24.379 -78.685,-58.107 -12.789,7.423 -27.643,11.676 -43.492,11.676 -19.41,0 -37.331,-6.376 -51.788,-17.147 -13.157,9.21 -29.161,14.631 -46.441,14.631 -44.79,0 -81.099,-36.309 -81.099,-81.099 0,-13.016 3.084,-25.306 8.534,-36.207 -12.816,-13.028 -20.749,-31.048 -20.749,-50.957 0,-36.563 26.754,-66.735 61.389,-71.333 14.264,-19.99 39.23,-33.254 67.668,-33.254 21.437,0 40.896,7.545 55.296,19.815 12.07,-6.952 26.332,-10.984 41.625,-10.984 22.801,0 43.324,8.941 57.674,23.21 8.462,-2.689 17.474,-4.145 26.827,-4.145 43.981,0 80.462,32.084 87.331,74.122 C -23.165,-64.613 0,-35.033 0,0"
             style="fill:#000000;fill-opacity:1;fill-rule:nonzero;stroke:none"
             id="path28" />
        </g>
        <g
           id="g30"
           transform="translate(500,213.1606)">
          <path
             d="m 0,0 -72.098,-16.66 v -87.792 L 0,-87.807 v 16.834 c 0,8.345 -0.001,17.657 -8.131,26.198 C -2.349,-36.292 0,-27.087 0,-14.032 Z"
             style="fill:#000000;fill-opacity:1;fill-rule:nonzero;stroke:none"
             id="path32" />
        </g>
      </g>
    </g>
    <g
       id="g34">
      <g
         id="g36">
        <g
           id="g42">
          <g
             id="g44">
            <path
               d="m 470.866,199.932 -0.003,-16.659 c 0,-3.874 -2.411,-7.814 -6.913,-8.854 v 0 c -4.502,-1.039 -6.913,1.787 -6.913,5.662 v 0 16.659 l -22.633,-5.237 v -7.519 c 0,-14.021 2.787,-21.209 10.461,-26.286 v 0 C 434.389,144.805 434.376,136.011 434.404,127.04 v 0 -10.329 l 22.633,5.226 v 17.576 c 0,6.267 2.411,10.148 6.913,11.188 v 0 c 4.502,1.039 6.916,-1.729 6.916,-7.995 v 0 -17.577 l 22.633,5.225 v 10.33 c 0,8.976 0,17.781 -10.462,25.828 v 0 c 7.674,8.619 10.462,17.093 10.462,31.115 v 0 7.531 z"
               style="fill:url(#linearGradient52);stroke:none"
               id="path54" />
          </g>
        </g>
      </g>
    </g>
    <g
       id="g56">
      <g
         id="g58"
         clip-path="url(#clipPath62)">
        <g
           id="g64">
          <g
             id="g66" />
          <g
             id="g86">
            <g
               clip-path="url(#clipPath70)"
               opacity="0.199997"
               id="g84">
              <g
                 id="g82">
                <g
                   clip-path="url(#clipPath74)"
                   id="g80">
                  <g
                     transform="translate(78.8985,-135.1603)"
                     id="g78">
                    <path
                       d="m 0,0 -28.843,54.89 499.419,302.143 28.815,-54.918 z"
                       style="fill:#ffffff;fill-opacity:1;fill-rule:nonzero;stroke:none"
                       id="path76" />
                  </g>
                </g>
              </g>
            </g>
          </g>
        </g>
        <g
           id="g88"
           transform="translate(397.2649,197.0733)">
          <path
             d="m 0,0 v -87.811 l 35.664,8.234 V 8.234 Z"
             style="fill:#000000;fill-opacity:1;fill-rule:nonzero;stroke:none"
             id="path90" />
        </g>
      </g>
    </g>
    <g
       id="g92">
      <g
         id="g94">
        <g
           id="g100">
          <g
             id="g102">
            <path
               d="m 403.766,192.073 v -74.807 l 22.661,5.23 v 74.808 z"
               style="fill:url(#linearGradient108);stroke:none"
               id="path110" />
          </g>
        </g>
      </g>
    </g>
    <g
       id="g112">
      <g
         id="g114"
         clip-path="url(#clipPath118)">
        <g
           id="g120">
          <g
             id="g122" />
          <g
             id="g142">
            <g
               clip-path="url(#clipPath126)"
               opacity="0.199997"
               id="g140">
              <g
                 id="g138">
                <g
                   clip-path="url(#clipPath130)"
                   id="g136">
                  <g
                     transform="translate(78.8985,-135.1603)"
                     id="g134">
                    <path
                       d="m 0,0 -28.843,54.89 499.419,302.143 28.815,-54.918 z"
                       style="fill:#ffffff;fill-opacity:1;fill-rule:nonzero;stroke:none"
                       id="path132" />
                  </g>
                </g>
              </g>
            </g>
          </g>
        </g>
        <g
           id="g144"
           transform="translate(393.8636,178.8702)">
          <path
             d="m 0,0 c -6.809,6.257 -16.056,8.261 -26.738,5.795 -5.832,-1.346 -10.869,-3.674 -15.885,-7.392 -5.015,1.402 -10.052,1.404 -15.884,0.058 -10.683,-2.467 -19.929,-8.74 -26.739,-18.142 -6.945,-9.589 -9.407,-18.339 -9.407,-33.438 V -99.537 L 9.408,-75.512 v 46.418 C 9.408,-13.995 6.946,-6.381 0,0"
             style="fill:#000000;fill-opacity:1;fill-rule:nonzero;stroke:none"
             id="path146" />
        </g>
      </g>
    </g>
    <g
       id="g148">
      <g
         id="g150">
        <g
           id="g156">
          <g
             id="g158">
            <path
               d="m 367.125,178.163 c -5.895,-1.361 -10.639,-3.825 -15.884,-8.381 v 0 c -5.244,2.134 -9.961,2.415 -15.885,1.047 v 0 c -8.753,-2.02 -16.276,-7.104 -21.832,-14.774 v 0 c -5.844,-8.066 -7.811,-15.256 -7.811,-28.803 v 0 -39.915 l 22.743,5.251 v 44.237 c 0,6.667 2.148,9.456 5.658,10.266 v 0 c 3.51,0.81 5.755,-0.964 5.755,-7.631 v 0 -44.237 l 22.744,5.25 v 44.238 c 0,6.666 2.245,9.478 5.754,10.289 v 0 c 3.51,0.81 5.659,-0.988 5.659,-7.654 v 0 -44.238 l 22.744,5.251 v 39.915 c 0,13.547 -1.969,19.828 -7.812,25.197 v 0 c -4,3.675 -9.008,5.542 -14.775,5.542 v 0 c -2.243,0 -4.6,-0.282 -7.058,-0.85"
               style="fill:url(#linearGradient166);stroke:none"
               id="path168" />
          </g>
        </g>
      </g>
    </g>
    <g
       id="g170">
      <g
         id="g172"
         clip-path="url(#clipPath176)">
        <g
           id="g178">
          <g
             id="g180" />
          <g
             id="g204">
            <g
               clip-path="url(#clipPath184)"
               opacity="0.199997"
               id="g202">
              <g
                 id="g200">
                <g
                   clip-path="url(#clipPath188)"
                   id="g198">
                  <g
                     transform="translate(-4.7843,-52.2432)"
                     id="g192">
                    <path
                       d="m 0,0 -30.085,61.978 498.85,303.85 30.085,-61.978 z"
                       style="fill:#ffffff;fill-opacity:1;fill-rule:nonzero;stroke:none"
                       id="path190" />
                  </g>
                  <g
                     transform="translate(78.8985,-135.1603)"
                     id="g196">
                    <path
                       d="m 0,0 -28.843,54.89 499.419,302.143 28.815,-54.918 z"
                       style="fill:#ffffff;fill-opacity:1;fill-rule:nonzero;stroke:none"
                       id="path194" />
                  </g>
                </g>
              </g>
            </g>
          </g>
        </g>
        <g
           id="g206"
           transform="translate(296.6866,162.0275)">
          <path
             d="M 0,0 C -6.499,7.207 -17.382,10.104 -28.401,7.56 -39.407,5.019 -50.282,-2.9 -56.783,-13.108 c -5.589,-8.776 -7.667,-16.786 -7.667,-29.555 v -47.728 l 72.098,16.645 v 47.728 C 7.648,-13.234 5.575,-6.182 0,0"
             style="fill:#000000;fill-opacity:1;fill-rule:nonzero;stroke:none"
             id="path208" />
        </g>
      </g>
    </g>
    <g
       id="g210">
      <g
         id="g212">
        <g
           id="g218">
          <g
             id="g220">
            <path
               d="m 268.285,163.086 c -8.97,-2.071 -17.83,-8.468 -23.171,-16.854 v 0 c -4.681,-7.349 -6.376,-14.021 -6.376,-25.367 v 0 -41.226 l 22.606,5.218 v 16.418 l 13.883,3.184 V 88.063 l 22.605,5.219 v 41.226 c 0,11.346 -1.683,17.246 -6.356,22.428 v 0 c -4.051,4.492 -10.129,6.897 -16.739,6.897 v 0 c -2.113,0 -4.279,-0.245 -6.452,-0.747 m -6.099,-34.767 -6.045,4.857 8.375,3.242 3.769,8.867 3.77,-7.126 8.375,0.624 -6.046,-7.648 1.407,-8.481 -7.506,2.4 -7.506,-5.865 z"
               style="fill:url(#linearGradient228);stroke:none"
               id="path230" />
          </g>
        </g>
      </g>
    </g>
    <g
       id="g232">
      <g
         id="g234"
         clip-path="url(#clipPath238)">
        <g
           id="g240">
          <g
             id="g242" />
          <g
             id="g262">
            <g
               clip-path="url(#clipPath246)"
               opacity="0.199997"
               id="g260">
              <g
                 id="g258">
                <g
                   clip-path="url(#clipPath250)"
                   id="g256">
                  <g
                     transform="translate(-4.7843,-52.2432)"
                     id="g254">
                    <path
                       d="m 0,0 -30.085,61.978 498.85,303.85 30.085,-61.978 z"
                       style="fill:#ffffff;fill-opacity:1;fill-rule:nonzero;stroke:none"
                       id="path252" />
                  </g>
                </g>
              </g>
            </g>
          </g>
        </g>
        <g
           id="g264"
           transform="translate(233.1717,152.1171)">
          <path
             d="m 0,0 c -7.464,-0.227 -12.628,-0.862 -19.054,-2.346 -14.574,-3.364 -25.874,-10.395 -34.544,-21.495 -7.912,-10.129 -12.449,-22.942 -12.449,-35.155 0,-12.724 4.818,-23.407 13.566,-30.082 8.807,-6.72 18.696,-8.171 33.068,-4.853 6.285,1.451 10.985,3.043 19.342,6.553 l 5.294,2.223 V 0.159 Z"
             style="fill:#000000;fill-opacity:1;fill-rule:nonzero;stroke:none"
             id="path266" />
        </g>
      </g>
    </g>
    <g
       id="g268">
      <g
         id="g270">
        <g
           id="g276">
          <g
             id="g278">
            <path
               d="m 214.117,143.269 c -12.893,-2.976 -22.378,-8.843 -29.837,-18.391 v 0 c -6.839,-8.756 -10.654,-19.711 -10.654,-30.255 v 0 c 0,-11.015 4.142,-20.187 11.648,-25.914 v 0 c 7.537,-5.75 15.78,-6.954 28.485,-4.021 v 0 c 6.082,1.404 10.571,2.985 18.134,6.161 v 0 43.667 l -22.606,-5.219 V 86.989 c -8.087,-0.748 -13.331,4.213 -13.331,12.747 v 0 c 0,10.156 7.01,17.521 19.376,20.376 v 0 c 5.31,1.226 9.633,1.755 16.561,1.895 v 0 23.44 c -7.37,-0.223 -12.118,-0.872 -17.776,-2.178"
               style="fill:url(#linearGradient286);stroke:none"
               id="path288" />
          </g>
        </g>
      </g>
    </g>
    <g
       id="g290">
      <g
         id="g292"
         clip-path="url(#clipPath296)">
        <g
           id="g298">
          <g
             id="g300" />
          <g
             id="g320">
            <g
               clip-path="url(#clipPath304)"
               opacity="0.199997"
               id="g318">
              <g
                 id="g316">
                <g
                   clip-path="url(#clipPath308)"
                   id="g314">
                  <g
                     transform="translate(-4.7843,-52.2432)"
                     id="g312">
                    <path
                       d="m 0,0 -30.085,61.978 498.85,303.85 30.085,-61.978 z"
                       style="fill:#ffffff;fill-opacity:1;fill-rule:nonzero;stroke:none"
                       id="path310" />
                  </g>
                </g>
              </g>
            </g>
          </g>
        </g>
        <g
           id="g322"
           transform="translate(144.9674,139.6522)">
          <path
             d="m 0,0 c -9.516,-2.146 -16.657,-5.806 -21.858,-11.124 -6.566,-6.715 -10.332,-15.692 -10.332,-24.631 0,-6.252 1.651,-10.665 5.319,-13.728 -4.127,-5.339 -6.036,-11.27 -6.036,-18.373 0,-8.804 3.074,-15.386 8.891,-19.037 6.299,-3.952 12.976,-3.497 21.706,-1.482 l 30.267,6.988 V 6.454 Z"
             style="fill:#000000;fill-opacity:1;fill-rule:nonzero;stroke:none"
             id="path324" />
        </g>
      </g>
    </g>
    <g
       id="g326">
      <g
         id="g328">
        <g
           id="g334">
          <g
             id="g336">
            <path
               d="m 144.949,133.146 c -8.005,-1.824 -13.873,-4.764 -17.803,-8.783 v 0 c -4.982,-5.095 -7.867,-11.899 -7.867,-18.965 v 0 c 0,-7.259 2.567,-10.597 9.716,-12.666 v 0 c -7.562,-5.77 -10.433,-11.154 -10.433,-19.434 v 0 c 0,-6.846 2.224,-11.867 6.624,-14.627 v 0 c 4.214,-2.644 8.612,-2.937 17.471,-0.892 v 0 l 23.766,5.487 V 84.249 L 151.352,80.77 c -5.961,-1.376 -6.569,1.064 -6.569,2.748 v 0 c 0,1.573 0.608,4.371 6.569,5.747 v 0 l 15.071,3.479 v 15.809 l -15.071,-3.48 c -5.961,-1.376 -7.784,-0.822 -7.784,2.436 v 0 c 0,3.256 1.823,4.652 7.784,6.028 v 0 l 15.071,3.479 v 21.087 z"
               style="fill:url(#linearGradient344);stroke:none"
               id="path346" />
          </g>
        </g>
      </g>
    </g>
    <g
       id="g348">
      <g
         id="g350"
         clip-path="url(#clipPath354)">
        <g
           id="g356">
          <g
             id="g358" />
          <g
             id="g378">
            <g
               clip-path="url(#clipPath362)"
               opacity="0.199997"
               id="g376">
              <g
                 id="g374">
                <g
                   clip-path="url(#clipPath366)"
                   id="g372">
                  <g
                     transform="translate(-4.7843,-52.2432)"
                     id="g370">
                    <path
                       d="m 0,0 -30.085,61.978 498.85,303.85 30.085,-61.978 z"
                       style="fill:#ffffff;fill-opacity:1;fill-rule:nonzero;stroke:none"
                       id="path368" />
                  </g>
                </g>
              </g>
            </g>
          </g>
        </g>
        <g
           id="g380"
           transform="translate(109.0591,114.1904)">
          <path
             d="m 0,0 c -6.81,6.257 -16.056,8.261 -26.738,5.795 -5.834,-1.347 -10.87,-3.675 -15.884,-7.392 -5.015,1.402 -10.052,1.404 -15.885,0.058 -10.683,-2.467 -19.929,-8.74 -26.738,-18.141 -6.946,-9.589 -9.408,-18.339 -9.408,-33.439 v -46.417 l 104.06,24.025 v 46.417 C 9.407,-13.995 6.946,-6.381 0,0"
             style="fill:#000000;fill-opacity:1;fill-rule:nonzero;stroke:none"
             id="path382" />
        </g>
      </g>
    </g>
    <g
       id="g384">
      <g
         id="g386">
        <g
           id="g392">
          <g
             id="g394">
            <path
               d="m 82.321,113.484 c -5.896,-1.361 -10.641,-3.825 -15.885,-8.381 v 0 c -5.244,2.134 -9.96,2.415 -15.884,1.047 v 0 C 41.799,104.129 34.275,99.046 28.719,91.376 v 0 C 22.876,83.309 20.908,76.119 20.908,62.572 v 0 -39.914 l 22.744,5.25 v 44.238 c 0,6.667 2.148,9.456 5.658,10.266 v 0 c 3.509,0.81 5.755,-0.965 5.755,-7.631 v 0 -44.239 l 22.743,5.252 v 44.238 c 0,6.666 2.245,9.478 5.755,10.288 v 0 c 3.51,0.81 5.658,-0.987 5.658,-7.653 v 0 -44.239 l 22.744,5.252 v 39.915 c 0,13.546 -1.968,19.828 -7.812,25.197 v 0 c -4,3.675 -9.007,5.541 -14.774,5.541 v 0 c -2.243,0.001 -4.6,-0.282 -7.058,-0.849"
               style="fill:url(#linearGradient402);stroke:none"
               id="path404" />
          </g>
        </g>
      </g>
    </g>
    <g
       id="g406">
      <g
         id="g408"
         clip-path="url(#clipPath412)">
        <g
           id="g414">
          <g
             id="g416" />
          <g
             id="g436">
            <g
               clip-path="url(#clipPath420)"
               opacity="0.199997"
               id="g434">
              <g
                 id="g432">
                <g
                   clip-path="url(#clipPath424)"
                   id="g430">
                  <g
                     transform="translate(-4.7843,-52.2432)"
                     id="g428">
                    <path
                       d="m 0,0 -30.085,61.978 498.85,303.85 30.085,-61.978 z"
                       style="fill:#ffffff;fill-opacity:1;fill-rule:nonzero;stroke:none"
                       id="path426" />
                  </g>
                </g>
              </g>
            </g>
          </g>
        </g>
        <g
           id="g438"
           transform="translate(452.1109,126.3686)">
          <path
             d="m 0,0 -14.832,1.545 -7.143,13.144 -6.043,-13.695 -14.7,-2.734 11.114,-9.975 -1.91,-14.748 12.886,7.423 13.48,-6.456 -3.101,14.629 z"
             style="fill:#000000;fill-opacity:1;fill-rule:nonzero;stroke:none"
             id="path440" />
        </g>
      </g>
    </g>
    <g
       id="g442">
      <g
         id="g444">
        <g
           id="g450">
          <g
             id="g452">
            <path
               d="m 427.338,123.261 -7.866,-1.462 5.934,-5.327 -1.021,-7.895 6.9,3.975 7.204,-3.45 -1.656,7.811 5.493,5.824 -7.95,0.828 -3.809,7.011 z"
               style="fill:url(#radialGradient460);stroke:none"
               id="path462" />
          </g>
        </g>
      </g>
    </g>
    <g
       id="g464">
      <g
         id="g466"
         clip-path="url(#clipPath470)">
        <g
           id="g472"
           transform="translate(211.7283,146.6261)">
          <path
             d="m 0,0 5.222,12.008 -12.708,-3.137 -9.816,8.668 -0.941,-13.061 -11.283,-6.687 12.152,-4.902 2.82,-12.794 8.462,10.028 13.043,-1.257 z"
             style="fill:#000000;fill-opacity:1;fill-rule:nonzero;stroke:none"
             id="path474" />
        </g>
      </g>
    </g>
    <g
       id="g476">
      <g
         id="g478">
        <g
           id="g484">
          <g
             id="g486">
            <path
               d="m 197.447,148.655 -5.963,-3.534 6.431,-2.594 1.491,-6.762 4.472,5.299 6.872,-0.662 -3.671,5.879 2.76,6.348 -6.707,-1.656 -5.189,4.582 z"
               style="fill:url(#radialGradient494);stroke:none"
               id="path496" />
          </g>
        </g>
      </g>
    </g>
    <g
       id="g498">
      <g
         id="g500"
         clip-path="url(#clipPath504)">
        <g
           id="g506"
           transform="translate(30.8971,24.5273)">
          <path
             d="M 0,0 2.779,13.994 -10.002,7.7 l -12.42,6.966 1.999,-14.096 -10.474,-9.695 14.053,-2.431 5.9,-12.971 6.727,12.624 14.166,1.662 z"
             style="fill:#000000;fill-opacity:1;fill-rule:nonzero;stroke:none"
             id="path508" />
        </g>
      </g>
    </g>
    <g
       id="g510">
      <g
         id="g512">
        <g
           id="g518">
          <g
             id="g520">
            <path
               d="m 14.863,23.538 -5.934,-5.493 7.977,-1.381 3.339,-7.341 3.809,7.149 8.005,0.938 -5.631,5.796 1.574,7.922 -7.232,-3.561 -7.039,3.947 z"
               style="fill:url(#radialGradient528);stroke:none"
               id="path530" />
          </g>
        </g>
      </g>
    </g>
    <g
       id="g532">
      <g
         id="g534"
         clip-path="url(#clipPath538)">
        <g
           id="g540"
           transform="translate(416.4941,213.094)">
          <path
             d="M 0,0 V 6.784 L -1.706,-0.402 -3.554,-0.838 -5.22,5.553 v -6.784 l -1.747,-0.412 v 8.121 l 2.729,0.644 1.646,-6.054 0.02,0.005 1.605,6.82 2.694,0.635 V 0.407 Z m -12.613,-2.974 v 6.681 l -2.81,-0.663 V 4.48 L -7.99,6.232 V 4.797 l -2.709,-0.639 v -6.681 z"
             style="fill:#ff5500;fill-opacity:1;fill-rule:nonzero;stroke:none"
             id="path542" />
        </g>
        <g
           id="g544"
           transform="translate(377.3585,217.3258)">
          <path
             d="m 0,0 v 61.63 l 33.648,7.768 V 48.855 C 27.227,47.372 22.179,46.122 18.512,45.11 14.837,44.096 12.075,43.196 10.225,42.405 8.368,41.613 7.213,40.866 6.752,40.162 6.284,39.46 6.058,38.645 6.058,37.72 c 0,-0.994 0.177,-1.813 0.541,-2.456 0.363,-0.643 1.357,-0.991 2.98,-1.048 1.615,-0.059 4.071,0.196 7.342,0.754 3.279,0.559 7.826,1.508 13.65,2.852 V 31.373 C 25.208,30.135 20.992,29.077 17.914,28.201 14.837,27.325 12.519,26.491 10.968,25.704 9.409,24.912 8.416,24.106 7.988,23.28 7.56,22.45 7.342,21.475 7.342,20.352 c 0,-1.062 0.234,-1.9 0.694,-2.521 0.469,-0.619 1.624,-0.933 3.473,-0.935 1.858,-0.003 4.588,0.317 8.19,0.95 3.611,0.632 8.554,1.676 14.837,3.127 v -13 z"
             style="fill:#ff5500;fill-opacity:1;fill-rule:nonzero;stroke:none"
             id="path546" />
        </g>
        <g
           id="g548"
           transform="translate(371.6493,221.0688)">
          <path
             d="m 0,0 c 0,-3.328 -0.584,-6.133 -1.753,-8.416 -1.169,-2.287 -3.022,-4.275 -5.56,-5.97 -2.544,-1.702 -5.823,-3.186 -9.857,-4.467 -4.027,-1.279 -8.873,-2.576 -14.532,-3.882 v 13.577 c 5.481,1.265 9.878,2.309 13.178,3.132 3.3,0.819 5.837,1.522 7.619,2.108 1.782,0.586 2.944,1.132 3.5,1.638 0.556,0.51 0.834,1.116 0.834,1.814 0,0.585 -0.129,1.079 -0.392,1.488 -0.264,0.403 -0.763,0.669 -1.49,0.793 -0.734,0.123 -1.782,0.098 -3.15,-0.071 -1.376,-0.172 -3.2,-0.518 -5.474,-1.043 -2.865,-0.662 -5.317,-0.996 -7.363,-1.001 -2.038,-0.004 -3.734,0.452 -5.074,1.369 -1.347,0.915 -2.338,2.365 -2.979,4.348 -0.642,1.983 -0.963,4.638 -0.963,7.967 0,3.385 0.628,6.406 1.882,9.062 1.254,2.652 3.207,5.017 5.866,7.091 2.658,2.072 6.029,3.901 10.121,5.487 4.083,1.585 8.959,3.034 14.625,4.343 V 18.608 c -5.78,-1.334 -10.306,-2.482 -13.578,-3.441 -3.271,-0.962 -5.709,-1.813 -7.312,-2.565 -1.604,-0.748 -2.602,-1.445 -2.98,-2.088 -0.377,-0.643 -0.57,-1.343 -0.57,-2.102 0,-0.585 0.1,-1.057 0.307,-1.419 0.206,-0.359 0.613,-0.589 1.226,-0.679 0.613,-0.094 1.503,-0.063 2.672,0.093 1.169,0.152 2.716,0.448 4.64,0.893 3.036,0.701 5.624,1.049 7.755,1.045 2.131,-0.003 3.834,-0.326 5.124,-0.962 1.283,-0.637 2.217,-1.577 2.801,-2.81 C -0.292,3.332 0,1.81 0,0"
             style="fill:#ff5500;fill-opacity:1;fill-rule:nonzero;stroke:none"
             id="path550" />
        </g>
        <g
           id="g552"
           transform="translate(319.2923,195.9951)">
          <path
             d="m 0,0 v 89.471 l 12.889,2.976 V 2.976 Z"
             style="fill:#ff5500;fill-opacity:1;fill-rule:nonzero;stroke:none"
             id="path554" />
        </g>
        <g
           id="g556"
           transform="translate(305.9112,224.3965)">
          <path
             d="m 0,0 c 0,2.74 -0.164,4.989 -0.498,6.738 -0.335,1.752 -1.004,3.058 -2.008,3.923 -1.011,0.864 -2.454,1.323 -4.343,1.374 -1.889,0.051 -4.387,-0.281 -7.496,-0.998 -2.312,-0.534 -4.186,-1.183 -5.614,-1.94 -1.435,-0.755 -2.551,-1.73 -3.339,-2.916 -0.796,-1.188 -1.324,-2.667 -1.599,-4.437 -0.275,-1.77 -0.409,-3.931 -0.409,-6.489 0,-2.741 0.119,-4.922 0.365,-6.542 0.238,-1.622 0.699,-2.839 1.368,-3.659 0.669,-0.82 1.584,-1.263 2.744,-1.33 1.153,-0.068 2.647,0.11 4.477,0.532 3.532,0.816 6.38,1.67 8.544,2.564 2.164,0.897 3.822,1.949 4.982,3.162 1.153,1.21 1.919,2.621 2.283,4.226 C -0.178,-4.183 0,-2.253 0,0 M 7.042,12.408 C 7.042,7.047 6.916,2.448 6.67,-1.382 6.432,-5.215 5.882,-8.51 5.027,-11.266 c -0.855,-2.755 -2.112,-5.086 -3.793,-6.999 -1.673,-1.911 -3.926,-3.587 -6.759,-5.033 -2.833,-1.446 -6.351,-2.764 -10.552,-3.942 -4.202,-1.186 -9.266,-2.459 -15.17,-3.822 v 58.39 c 6.454,1.49 12.091,2.609 16.902,3.352 4.812,0.746 8.805,0.694 11.973,-0.159 3.168,-0.852 5.525,-2.684 7.079,-5.493 1.554,-2.809 2.335,-7.016 2.335,-12.62"
             style="fill:#ff5500;fill-opacity:1;fill-rule:nonzero;stroke:none"
             id="path558" />
        </g>
        <g
           id="g560"
           transform="translate(256.8329,206.9375)">
          <path
             d="M 0,0 C -0.667,2.033 -1.416,3.591 -2.231,4.678 -3.054,5.763 -3.87,6.561 -4.693,7.067 -5.515,7.578 -6.301,7.849 -7.057,7.889 -7.821,7.924 -8.473,7.881 -9.022,7.754 -9.563,7.63 -10.171,7.396 -10.838,7.061 -11.513,6.723 -12.21,6.155 -12.936,5.35 c -0.727,-0.806 -1.446,-1.961 -2.142,-3.457 -0.697,-1.499 -1.32,-3.433 -1.869,-5.805 -0.971,-3.991 -0.882,-6.628 0.275,-7.91 1.156,-1.279 3.706,-1.465 7.65,-0.554 2.068,0.477 3.825,1.031 5.286,1.676 1.46,0.638 2.565,1.426 3.328,2.362 0.756,0.931 1.164,2.074 1.223,3.426 C 0.875,-3.564 0.608,-1.924 0,0 m 8.199,-26.348 c -0.363,2.163 -0.778,3.95 -1.231,5.365 -0.459,1.41 -1.186,2.458 -2.187,3.139 -1,0.681 -2.372,1.016 -4.099,1.01 -1.727,-0.002 -4.085,-0.35 -7.057,-1.036 -2.491,-0.575 -4.463,-1.197 -5.923,-1.868 -1.461,-0.67 -2.625,-1.488 -3.507,-2.448 -0.882,-0.963 -1.534,-2.07 -1.957,-3.324 -0.43,-1.252 -0.853,-2.747 -1.275,-4.479 l -8.748,-2.02 10.475,58.985 19.949,4.606 11.572,-56.542 z"
             style="fill:#ff5500;fill-opacity:1;fill-rule:nonzero;stroke:none"
             id="path562" />
        </g>
        <g
           id="g564"
           transform="translate(218.7544,214.4165)">
          <path
             d="m 0,0 c 0,1.599 -0.152,2.928 -0.441,3.987 -0.304,1.055 -0.89,1.867 -1.78,2.436 -0.891,0.562 -2.135,0.839 -3.734,0.824 -1.6,-0.011 -3.734,-0.327 -6.404,-0.943 -2.613,-0.603 -4.668,-1.302 -6.18,-2.092 -1.512,-0.795 -2.656,-1.681 -3.423,-2.658 -0.774,-0.982 -1.244,-2.053 -1.425,-3.22 -0.174,-1.168 -0.268,-2.435 -0.268,-3.795 0,-1.364 0.152,-2.577 0.449,-3.634 0.296,-1.057 0.861,-1.903 1.686,-2.545 0.832,-0.637 1.975,-1.009 3.422,-1.12 1.455,-0.109 3.365,0.111 5.739,0.659 2.373,0.548 4.341,1.194 5.912,1.94 1.57,0.75 2.829,1.619 3.777,2.609 0.948,0.986 1.635,2.11 2.048,3.36 C -0.21,-2.939 0,-1.545 0,0 m -5.688,-32.881 c -2.199,2.336 -4.052,4.253 -5.557,5.743 -1.512,1.486 -2.837,2.649 -3.958,3.486 -1.129,0.836 -2.12,1.378 -2.981,1.624 -0.862,0.246 -1.73,0.266 -2.62,0.061 -0.774,-0.179 -1.411,-0.474 -1.918,-0.884 -0.499,-0.416 -0.882,-1.08 -1.15,-2.003 -0.268,-0.919 -0.449,-2.176 -0.536,-3.767 -0.086,-1.594 -0.13,-3.662 -0.13,-6.209 l -5.427,-1.253 v 57.795 c 5.746,1.326 10.637,2.365 14.668,3.118 4.03,0.754 7.395,1.162 10.094,1.22 2.699,0.059 4.834,-0.277 6.404,-1.011 1.57,-0.733 2.757,-1.943 3.553,-3.626 0.803,-1.681 1.31,-3.891 1.513,-6.63 0.209,-2.737 0.311,-6.036 0.311,-9.889 0,-5.988 -0.876,-10.825 -2.62,-14.52 -1.751,-3.693 -4.58,-6.318 -8.495,-7.873 L 8.539,-29.596 Z"
             style="fill:#ff5500;fill-opacity:1;fill-rule:nonzero;stroke:none"
             id="path566" />
        </g>
        <g
           id="g568"
           transform="translate(173.2255,181.122)">
          <path
             d="M 0,0 C -0.667,2.033 -1.416,3.591 -2.231,4.678 -3.054,5.763 -3.87,6.561 -4.693,7.067 -5.515,7.578 -6.301,7.849 -7.057,7.889 -7.821,7.924 -8.473,7.881 -9.022,7.754 -9.563,7.63 -10.171,7.396 -10.838,7.061 -11.513,6.723 -12.21,6.155 -12.936,5.35 c -0.726,-0.806 -1.446,-1.961 -2.142,-3.457 -0.697,-1.499 -1.32,-3.433 -1.869,-5.805 -0.971,-3.991 -0.882,-6.628 0.275,-7.91 1.156,-1.279 3.706,-1.465 7.65,-0.554 2.068,0.477 3.825,1.031 5.286,1.676 1.46,0.638 2.565,1.426 3.328,2.362 0.756,0.931 1.164,2.074 1.223,3.426 C 0.875,-3.564 0.608,-1.924 0,0 m 8.199,-26.348 c -0.363,2.163 -0.778,3.95 -1.231,5.365 -0.459,1.41 -1.186,2.458 -2.186,3.139 -1.001,0.681 -2.373,1.016 -4.1,1.01 -1.727,-0.002 -4.085,-0.35 -7.057,-1.036 -2.491,-0.575 -4.463,-1.197 -5.923,-1.868 -1.461,-0.67 -2.625,-1.488 -3.507,-2.448 -0.882,-0.963 -1.534,-2.07 -1.957,-3.324 -0.43,-1.252 -0.853,-2.747 -1.275,-4.479 l -8.748,-2.02 10.475,58.985 19.949,4.606 11.572,-56.542 z"
             style="fill:#ff5500;fill-opacity:1;fill-rule:nonzero;stroke:none"
             id="path570" />
        </g>
        <g
           id="g572"
           transform="translate(139.9971,194.9557)">
          <path
             d="m 0,0 c 0,2.208 -0.228,4.068 -0.694,5.572 -0.467,1.504 -1.358,2.62 -2.675,3.332 -1.316,0.717 -3.213,1.041 -5.67,0.986 -2.467,-0.061 -5.649,-0.542 -9.556,-1.444 -3.908,-0.902 -6.987,-1.914 -9.236,-3.024 -2.249,-1.115 -3.929,-2.353 -5.027,-3.71 -1.109,-1.36 -1.804,-2.858 -2.104,-4.497 -0.301,-1.64 -0.446,-3.436 -0.446,-5.39 0,-1.953 0.218,-3.66 0.643,-5.132 0.425,-1.478 1.243,-2.626 2.477,-3.445 1.233,-0.819 2.954,-1.293 5.162,-1.415 2.208,-0.128 5.048,0.206 8.531,1.01 7.048,1.628 11.909,3.792 14.584,6.487 C -1.337,-7.969 0,-4.416 0,0 M 8.406,7.035 C 8.406,0.837 7.919,-4.282 6.945,-8.327 5.97,-12.376 4.499,-15.686 2.55,-18.261 c -1.949,-2.575 -4.374,-4.575 -7.256,-6.002 -2.892,-1.435 -6.24,-2.592 -10.065,-3.475 -2.975,-0.686 -5.307,-1.396 -7.007,-2.125 -1.7,-0.735 -2.995,-1.816 -3.887,-3.256 -0.891,-1.434 -1.461,-3.307 -1.72,-5.616 -0.249,-2.307 -0.373,-5.367 -0.373,-9.192 l -16.181,-3.736 v 82.789 c 8.23,1.9 15.237,3.388 21.011,4.467 5.773,1.079 10.593,1.663 14.459,1.747 3.867,0.084 6.925,-0.397 9.174,-1.448 C 2.954,34.841 4.654,33.109 5.794,30.698 6.945,28.289 7.67,25.124 7.961,21.2 8.261,17.279 8.406,12.555 8.406,7.035"
             style="fill:#ff5500;fill-opacity:1;fill-rule:nonzero;stroke:none"
             id="path574" />
        </g>
        <g
           id="g576"
           transform="translate(371.6002,299.6972)">
          <path
             d="m 0,0 c 0,5.928 -0.138,10.608 -0.407,14.043 -0.26,3.437 -0.642,6.032 -1.146,7.778 -0.496,1.751 -1.114,2.808 -1.846,3.172 -0.732,0.363 -1.569,0.438 -2.496,0.224 -0.871,-0.201 -1.741,-0.702 -2.603,-1.499 -0.862,-0.801 -1.862,-2.146 -3,-4.043 -1.13,-1.891 -2.448,-4.46 -3.944,-7.705 -1.496,-3.244 -3.318,-7.377 -5.448,-12.398 l -1.399,-0.323 -3.293,-0.76 c -2.001,3.998 -3.619,7.26 -4.847,9.774 -1.236,2.511 -2.301,4.429 -3.195,5.755 -0.903,1.324 -1.716,2.169 -2.448,2.533 -0.74,0.362 -1.57,0.439 -2.505,0.223 -1.195,-0.276 -2.163,-0.719 -2.895,-1.319 -0.731,-0.604 -1.284,-1.732 -1.65,-3.378 C -43.488,10.423 -43.74,8.084 -43.87,5.058 -44,2.031 -44.066,-2.017 -44.066,-7.079 l -6.7,-1.547 -0.098,63.929 10.889,2.514 c 3.204,-7.189 5.928,-12.87 8.196,-17.043 2.261,-4.174 4.196,-7.293 5.798,-9.354 1.594,-2.064 2.928,-3.321 3.993,-3.775 1.065,-0.453 2,-0.587 2.797,-0.403 0.602,0.139 1.236,0.42 1.903,0.838 0.667,0.422 1.431,1.18 2.293,2.282 0.87,1.099 1.838,2.603 2.903,4.516 1.065,1.909 2.293,4.425 3.692,7.545 1.399,3.12 2.936,6.923 4.603,11.406 1.658,4.481 3.529,9.857 5.594,16.128 L 7.188,71.202 7.294,1.684 Z"
             style="fill:#ffaa00;fill-opacity:1;fill-rule:nonzero;stroke:none"
             id="path578" />
        </g>
        <g
           id="g580"
           transform="translate(308.2961,271.7056)">
          <path
             d="m 0,0 c 0,4.611 -0.174,8.267 -0.513,10.97 -0.34,2.699 -0.985,4.69 -1.929,5.962 -0.952,1.27 -2.243,1.957 -3.866,2.059 -1.631,0.095 -3.7,-0.143 -6.209,-0.722 -2.98,-0.688 -5.389,-1.467 -7.218,-2.328 -1.83,-0.866 -3.254,-2.192 -4.272,-3.987 -1.018,-1.796 -1.697,-4.275 -2.036,-7.437 -0.34,-3.166 -0.505,-7.426 -0.505,-12.782 l -7.633,-1.762 v 66.528 l 5.389,1.244 c 0,-5.36 0.141,-9.566 0.406,-12.622 0.273,-3.058 0.836,-5.287 1.681,-6.681 0.844,-1.403 2.102,-2.127 3.766,-2.185 1.656,-0.057 3.883,0.238 6.664,0.88 2.368,0.547 4.321,1.234 5.844,2.061 1.532,0.826 2.716,2.216 3.56,4.179 0.853,1.956 1.441,4.72 1.78,8.292 0.339,3.571 0.513,8.409 0.513,14.514 l 9.76,2.253 V 1.196 Z"
             style="fill:#ffaa00;fill-opacity:1;fill-rule:nonzero;stroke:none"
             id="path582" />
        </g>
        <g
           id="g584"
           transform="translate(262.5111,318.6022)">
          <path
             d="m 0,0 c -1.888,-0.641 -3.431,-1.551 -4.638,-2.737 -1.214,-1.187 -2.134,-2.795 -2.774,-4.827 -0.64,-2.031 -1.108,-4.795 -1.412,-8.292 -0.303,-3.501 -0.492,-7.882 -0.558,-13.142 -0.066,-5.261 -0.098,-11.654 -0.098,-19.185 l -6.255,-1.444 c 0,7.125 -0.033,13.138 -0.099,18.031 -0.073,4.891 -0.254,8.917 -0.558,12.077 -0.303,3.155 -0.788,5.547 -1.461,7.177 -0.673,1.626 -1.633,2.73 -2.873,3.318 -1.247,0.586 -2.807,0.747 -4.695,0.479 -1.879,-0.265 -4.169,-0.708 -6.853,-1.328 V 11.005 L 6.961,20.063 V 1.907 C 4.203,1.27 1.88,0.635 0,0"
             style="fill:#ffaa00;fill-opacity:1;fill-rule:nonzero;stroke:none"
             id="path586" />
        </g>
        <g
           id="g588"
           transform="translate(225.3715,278.5289)">
          <path
             d="m 0,0 c 0,-6.339 -0.429,-11.59 -1.295,-15.752 -0.859,-4.161 -2.65,-7.658 -5.376,-10.491 -2.717,-2.835 -6.595,-5.245 -11.626,-7.235 -5.03,-1.986 -11.718,-3.946 -20.055,-5.871 v 21.397 c 9.17,2.117 16.11,4.014 20.829,5.688 4.72,1.674 7.083,3.376 7.083,5.101 0,0.618 -0.101,1.129 -0.311,1.531 -0.21,0.397 -0.707,0.661 -1.497,0.79 -0.791,0.128 -1.952,0.15 -3.466,0.078 -1.514,-0.076 -3.584,-0.242 -6.2,-0.501 -2.625,-0.261 -4.913,-0.394 -6.873,-0.397 -1.968,-0.008 -3.617,0.301 -4.963,0.92 -1.346,0.618 -2.448,1.605 -3.306,2.959 -0.867,1.352 -1.54,3.245 -2.019,5.683 -0.48,2.438 -0.808,5.5 -0.984,9.182 -0.169,3.679 -0.253,8.173 -0.253,13.481 l 11.988,2.663 c 0,-6.751 0.134,-12.028 0.412,-15.821 0.278,-3.797 0.808,-6.552 1.607,-8.26 0.791,-1.715 1.893,-2.634 3.306,-2.753 1.413,-0.124 3.289,0.086 5.636,0.628 2.549,0.588 4.526,1.495 5.939,2.717 1.413,1.222 2.465,3.101 3.155,5.637 0.69,2.536 1.119,5.928 1.295,10.171 0.168,4.241 0.253,9.707 0.253,16.39 L 0,39.487 Z"
             style="fill:#ffaa00;fill-opacity:1;fill-rule:nonzero;stroke:none"
             id="path590" />
        </g>
        <g
           id="g592"
           transform="translate(173.0581,250.9553)">
          <path
             d="m 0,0 c 0,4.611 -0.174,8.267 -0.513,10.97 -0.34,2.699 -0.985,4.69 -1.929,5.962 -0.952,1.27 -2.243,1.957 -3.866,2.059 -1.631,0.095 -3.7,-0.143 -6.209,-0.722 -2.98,-0.688 -5.389,-1.467 -7.218,-2.328 -1.83,-0.866 -3.254,-2.192 -4.272,-3.987 -1.018,-1.796 -1.697,-4.275 -2.036,-7.437 -0.34,-3.166 -0.505,-7.426 -0.505,-12.782 l -7.633,-1.762 v 66.528 l 5.389,1.244 c 0,-5.36 0.141,-9.566 0.406,-12.622 0.273,-3.058 0.836,-5.287 1.681,-6.681 0.844,-1.403 2.102,-2.127 3.766,-2.185 1.656,-0.057 3.883,0.238 6.664,0.88 2.368,0.547 4.321,1.234 5.844,2.061 1.532,0.826 2.716,2.216 3.56,4.179 0.853,1.956 1.44,4.72 1.78,8.292 0.339,3.571 0.513,8.409 0.513,14.514 l 9.76,2.253 V 1.196 Z"
             style="fill:#ffaa00;fill-opacity:1;fill-rule:nonzero;stroke:none"
             id="path594" />
        </g>
        <g
           id="g596"
           transform="translate(119.6965,295.2539)">
          <path
             d="m 0,0 c 0,2.384 -0.227,4.364 -0.658,5.942 -0.453,1.572 -1.327,2.784 -2.653,3.631 -1.327,0.837 -3.182,1.25 -5.565,1.229 -2.384,-0.017 -5.566,-0.487 -9.546,-1.406 -3.893,-0.899 -6.956,-1.94 -9.21,-3.119 -2.255,-1.183 -3.959,-2.504 -5.102,-3.96 -1.154,-1.464 -1.855,-3.06 -2.125,-4.799 -0.259,-1.743 -0.399,-3.63 -0.399,-5.658 0,-2.033 0.227,-3.841 0.669,-5.416 0.442,-1.575 1.283,-2.837 2.513,-3.794 1.24,-0.948 2.944,-1.504 5.101,-1.669 2.168,-0.163 5.016,0.165 8.553,0.982 3.538,0.817 6.472,1.78 8.812,2.892 2.341,1.117 4.217,2.413 5.63,3.888 1.413,1.47 2.438,3.146 3.052,5.008 C -0.313,-4.381 0,-2.303 0,0 m -8.477,-49.009 c -3.279,3.487 -6.04,6.339 -8.284,8.56 -2.254,2.214 -4.228,3.948 -5.899,5.196 -1.683,1.246 -3.161,2.053 -4.444,2.42 -1.283,0.367 -2.578,0.397 -3.904,0.091 -1.154,-0.267 -2.104,-0.707 -2.859,-1.318 -0.744,-0.619 -1.315,-1.609 -1.714,-2.984 -0.399,-1.371 -0.669,-3.245 -0.799,-5.615 -0.129,-2.376 -0.194,-5.459 -0.194,-9.256 l -8.089,-1.867 v 86.144 c 8.564,1.977 15.855,3.525 21.862,4.648 6.008,1.123 11.023,1.73 15.046,1.818 4.023,0.087 7.205,-0.413 9.545,-1.507 C 4.131,36.228 5.9,34.425 7.086,31.916 8.283,29.41 9.038,26.117 9.34,22.034 9.653,17.954 9.804,13.038 9.804,7.295 9.804,-1.63 8.499,-8.84 5.9,-14.347 3.29,-19.852 -0.928,-23.764 -6.763,-26.082 l 19.49,-18.032 z"
             style="fill:#ffaa00;fill-opacity:1;fill-rule:nonzero;stroke:none"
             id="path598" />
        </g>
      </g>
    </g>
  </g>
</svg>
