<?xml version="1.0" encoding="UTF-8" standalone="no"?>
<!-- Created with Inkscape (http://www.inkscape.org/) -->

<svg
   version="1.1"
   id="svg2"
   width="666.66669"
   height="490.80399"
   viewBox="0 0 666.66669 490.80399"
   sodipodi:docname="Custard Paradise Logo.ai"
   xmlns:inkscape="http://www.inkscape.org/namespaces/inkscape"
   xmlns:sodipodi="http://sodipodi.sourceforge.net/DTD/sodipodi-0.dtd"
   xmlns="http://www.w3.org/2000/svg"
   xmlns:svg="http://www.w3.org/2000/svg">
  <defs
     id="defs6">
    <clipPath
       clipPathUnits="userSpaceOnUse"
       id="clipPath16">
      <path
         d="M 0,368.103 H 500 V 0 H 0 Z"
         id="path14" />
    </clipPath>
  </defs>
  <sodipodi:namedview
     id="namedview4"
     pagecolor="#ffffff"
     bordercolor="#000000"
     borderopacity="0.25"
     inkscape:showpageshadow="2"
     inkscape:pageopacity="0.0"
     inkscape:pagecheckerboard="0"
     inkscape:deskcolor="#d1d1d1" />
  <g
     id="g8"
     inkscape:groupmode="layer"
     inkscape:label="Custard Paradise Logo"
     transform="matrix(1.3333333,0,0,-1.3333333,0,490.804)">
    <g
       id="g10">
      <g
         id="g12"
         clip-path="url(#clipPath16)">
        <g
           id="g18"
           transform="translate(465.3388,248.7078)">
          <path
             d="m 0,0 c 1.646,7.146 2.475,14.489 2.475,21.961 0,53.726 -43.708,97.434 -97.434,97.434 -21.545,0 -41.966,-6.891 -59.057,-19.93 -8.58,-6.544 -16.012,-14.513 -21.981,-23.446 -15.52,10.006 -33.72,15.465 -52.653,15.465 -30.966,0 -59.704,-14.924 -77.804,-38.926 -16.644,11.168 -36.368,17.292 -56.829,17.292 -56.274,0 -102.056,-45.782 -102.056,-102.055 0,-31.898 14.626,-61.279 39.147,-80.403 -3.873,-10.912 -5.879,-22.467 -5.879,-34.159 0,-56.21 45.73,-101.941 101.94,-101.941 22.338,0 43.553,7.098 61.351,20.526 9.82,7.409 18.232,16.604 24.794,26.951 14.231,-7.867 30.291,-12.048 46.994,-12.048 34.196,0 65.367,18.08 82.818,46.149 14.366,-7.45 30.402,-11.411 46.896,-11.411 56.21,0 101.939,45.731 101.939,101.956 C 34.639,-46.865 21.915,-19.209 0,0"
             style="fill:#00b3f0;fill-opacity:1;fill-rule:nonzero;stroke:none"
             id="path20" />
        </g>
        <g
           id="g22"
           transform="translate(453.9365,245.0393)">
          <path
             d="m 0,0 c 2.529,8.249 3.808,16.837 3.808,25.629 0,48.173 -39.192,87.365 -87.365,87.365 -33.203,0 -63.342,-19.109 -78.005,-48.003 -15.53,12.908 -35.127,20.092 -55.686,20.092 -31.218,0 -59.906,-16.914 -75.351,-43.297 -16.481,13.902 -37.415,21.663 -59.282,21.663 -50.721,0 -91.986,-41.265 -91.986,-91.986 0,-31.293 15.619,-59.901 41.357,-76.823 -5.313,-11.808 -8.089,-24.679 -8.089,-37.739 0,-50.657 41.213,-91.871 91.871,-91.871 20.131,0 39.248,6.396 55.285,18.495 11.545,8.71 20.929,20.153 27.27,33.066 14.681,-10.481 32.2,-16.132 50.583,-16.132 34.043,0 64.741,19.98 78.97,50.015 14.961,-9.925 32.543,-15.277 50.744,-15.277 50.657,0 91.87,41.214 91.87,91.879 C 35.972,-44.057 22.654,-17.349 0,0"
             style="fill:#ffffff;fill-opacity:1;fill-rule:nonzero;stroke:none"
             id="path24" />
        </g>
        <g
           id="g26"
           transform="translate(441.9262,241.2175)">
          <path
             d="m 0,0 c 3.747,9.081 5.794,19.013 5.794,29.451 0,42.717 -34.624,77.341 -77.341,77.341 -35.245,0 -64.971,-23.566 -74.306,-55.799 -14.162,17.036 -35.497,27.888 -59.385,27.888 -33.175,0 -61.453,-20.922 -72.374,-50.304 -15.036,17.542 -37.36,28.67 -62.259,28.67 -45.268,0 -81.961,-36.693 -81.961,-81.962 0,-31.819 18.116,-59.385 44.602,-72.972 -7.197,-12.185 -11.335,-26.416 -11.335,-41.59 0,-45.2 36.647,-81.847 81.847,-81.847 36.969,0 68.236,24.531 78.375,58.189 14.001,-14.047 33.359,-22.76 54.764,-22.76 35.405,0 65.247,23.795 74.397,56.258 14.576,-13.358 33.98,-21.52 55.316,-21.52 45.199,0 81.846,36.648 81.846,81.847 C 37.958,-40.05 22.807,-14.53 0,0"
             style="fill:#130c0e;fill-opacity:1;fill-rule:nonzero;stroke:none"
             id="path28" />
        </g>
        <g
           id="g30"
           transform="translate(452.25,133.5011)">
          <path
             d="m 0,0 v 7.65 l -1.924,-8.104 -2.084,-0.491 -1.879,7.207 v -7.65 l -1.97,-0.465 v 9.158 l 3.078,0.726 1.856,-6.826 0.022,0.005 1.81,7.691 3.038,0.716 V 0.459 Z M -14.223,-3.354 V 4.18 L -17.392,3.433 V 5.051 L -9.01,7.028 V 5.409 l -3.055,-0.72 v -7.534 z"
             style="fill:#f15a22;fill-opacity:1;fill-rule:nonzero;stroke:none"
             id="path32" />
        </g>
        <g
           id="g34"
           transform="translate(408.1181,138.2731)">
          <path
             d="m 0,0 v 69.498 l 37.944,8.76 V 55.092 C 30.703,53.42 25.01,52.01 20.875,50.869 16.731,49.726 13.616,48.71 11.531,47.819 9.436,46.926 8.133,46.083 7.614,45.289 7.086,44.498 6.831,43.578 6.831,42.535 c 0,-1.12 0.2,-2.044 0.61,-2.769 0.41,-0.725 1.53,-1.117 3.361,-1.182 1.822,-0.067 4.59,0.222 8.279,0.85 3.698,0.631 8.826,1.701 15.392,3.217 V 35.378 C 28.426,33.982 23.671,32.789 20.201,31.801 16.731,30.813 14.117,29.873 12.369,28.986 10.611,28.093 9.49,27.183 9.008,26.252 8.525,25.316 8.279,24.217 8.279,22.951 c 0,-1.198 0.264,-2.143 0.783,-2.843 0.529,-0.698 1.831,-1.053 3.917,-1.054 2.095,-0.004 5.173,0.356 9.235,1.071 4.071,0.712 9.645,1.89 16.731,3.525 V 8.991 Z"
             style="fill:#f15a22;fill-opacity:1;fill-rule:nonzero;stroke:none"
             id="path36" />
        </g>
        <g
           id="g38"
           transform="translate(401.6799,142.494)">
          <path
             d="m 0,0 c 0,-3.753 -0.659,-6.915 -1.977,-9.49 -1.318,-2.579 -3.408,-4.822 -6.269,-6.732 -2.87,-1.92 -6.567,-3.594 -11.116,-5.038 -4.541,-1.442 -10.006,-2.905 -16.388,-4.378 v 15.311 c 6.181,1.427 11.14,2.604 14.861,3.531 3.721,0.924 6.583,1.717 8.592,2.378 2.009,0.661 3.319,1.276 3.946,1.847 0.627,0.575 0.941,1.258 0.941,2.046 0,0.659 -0.145,1.216 -0.442,1.678 -0.298,0.454 -0.86,0.754 -1.68,0.894 -0.828,0.138 -2.01,0.111 -3.553,-0.081 -1.551,-0.193 -3.608,-0.584 -6.172,-1.176 -3.231,-0.746 -5.996,-1.123 -8.303,-1.129 -2.298,-0.004 -4.211,0.511 -5.722,1.544 -1.519,1.032 -2.636,2.667 -3.36,4.903 -0.723,2.236 -1.085,5.231 -1.085,8.984 0,3.818 0.707,7.224 2.122,10.219 1.415,2.991 3.617,5.658 6.615,7.997 2.998,2.336 6.799,4.399 11.413,6.188 4.605,1.786 10.102,3.421 16.492,4.896 V 20.984 c -6.518,-1.505 -11.622,-2.8 -15.311,-3.88 -3.689,-1.085 -6.438,-2.045 -8.246,-2.893 -1.809,-0.843 -2.934,-1.63 -3.36,-2.355 -0.426,-0.725 -0.643,-1.515 -0.643,-2.371 0,-0.659 0.113,-1.191 0.346,-1.6 0.233,-0.404 0.691,-0.664 1.382,-0.765 0.691,-0.106 1.696,-0.071 3.014,0.105 1.318,0.171 3.062,0.506 5.232,1.007 3.424,0.79 6.342,1.182 8.745,1.179 C -7.523,9.407 -5.602,9.043 -4.147,8.326 -2.701,7.607 -1.648,6.548 -0.989,5.157 -0.33,3.758 0,2.041 0,0"
             style="fill:#f15a22;fill-opacity:1;fill-rule:nonzero;stroke:none"
             id="path40" />
        </g>
        <g
           id="g42"
           transform="translate(342.6387,114.2192)">
          <path
             d="m 0,0 v 100.894 l 14.535,3.356 V 3.356 Z"
             style="fill:#f15a22;fill-opacity:1;fill-rule:nonzero;stroke:none"
             id="path44" />
        </g>
        <g
           id="g46"
           transform="translate(327.5493,146.2465)">
          <path
             d="m 0,0 c 0,3.09 -0.184,5.626 -0.562,7.598 -0.377,1.975 -1.132,3.449 -2.264,4.425 -1.14,0.973 -2.767,1.491 -4.897,1.548 -2.13,0.058 -4.948,-0.316 -8.453,-1.125 -2.608,-0.602 -4.721,-1.334 -6.331,-2.187 -1.619,-0.852 -2.876,-1.952 -3.765,-3.289 -0.898,-1.339 -1.493,-3.007 -1.803,-5.003 -0.31,-1.996 -0.461,-4.434 -0.461,-7.318 0,-3.09 0.134,-5.55 0.41,-7.377 0.269,-1.829 0.789,-3.202 1.543,-4.126 0.755,-0.924 1.787,-1.424 3.095,-1.499 1.3,-0.078 2.985,0.123 5.048,0.599 3.983,0.92 7.195,1.883 9.635,2.891 2.44,1.012 4.31,2.199 5.618,3.566 1.3,1.365 2.164,2.956 2.575,4.766 C -0.201,-4.717 0,-2.541 0,0 M 7.941,13.993 C 7.941,7.947 7.799,2.761 7.522,-1.559 7.254,-5.881 6.633,-9.596 5.669,-12.704 4.704,-15.811 3.287,-18.44 1.392,-20.597 c -1.887,-2.154 -4.428,-4.045 -7.623,-5.676 -3.195,-1.63 -7.161,-3.116 -11.899,-4.445 -4.738,-1.337 -10.448,-2.773 -17.107,-4.31 v 65.844 c 7.279,1.681 13.636,2.943 19.061,3.78 5.426,0.842 9.929,0.783 13.501,-0.178 3.572,-0.962 6.231,-3.027 7.983,-6.195 1.753,-3.168 2.633,-7.912 2.633,-14.23"
             style="fill:#f15a22;fill-opacity:1;fill-rule:nonzero;stroke:none"
             id="path48" />
        </g>
        <g
           id="g50"
           transform="translate(272.2052,126.5586)">
          <path
             d="m 0,0 c -0.752,2.292 -1.597,4.049 -2.516,5.275 -0.928,1.224 -1.848,2.123 -2.776,2.695 -0.928,0.575 -1.814,0.881 -2.666,0.926 -0.861,0.04 -1.597,-0.009 -2.216,-0.152 -0.61,-0.14 -1.295,-0.403 -2.048,-0.782 -0.76,-0.38 -1.546,-1.021 -2.365,-1.929 -0.82,-0.908 -1.631,-2.212 -2.416,-3.898 -0.786,-1.69 -1.488,-3.871 -2.107,-6.547 -1.095,-4.499 -0.995,-7.473 0.309,-8.919 1.304,-1.442 4.18,-1.652 8.627,-0.625 2.333,0.538 4.314,1.163 5.961,1.89 1.647,0.719 2.892,1.608 3.753,2.664 0.853,1.05 1.313,2.339 1.38,3.863 C 0.986,-4.019 0.686,-2.17 0,0 m 9.246,-29.711 c -0.41,2.438 -0.878,4.453 -1.388,6.049 -0.518,1.59 -1.337,2.772 -2.466,3.54 -1.129,0.767 -2.675,1.146 -4.623,1.139 -1.948,-0.002 -4.606,-0.394 -7.958,-1.168 -2.809,-0.649 -5.033,-1.35 -6.68,-2.107 -1.646,-0.756 -2.959,-1.678 -3.954,-2.76 -0.994,-1.086 -1.73,-2.335 -2.207,-3.749 -0.484,-1.412 -0.961,-3.097 -1.437,-5.051 l -9.865,-2.277 11.812,66.515 22.496,5.193 13.049,-63.759 z"
             style="fill:#f15a22;fill-opacity:1;fill-rule:nonzero;stroke:none"
             id="path52" />
        </g>
        <g
           id="g54"
           transform="translate(229.2655,134.9924)">
          <path
             d="m 0,0 c 0,1.803 -0.171,3.302 -0.498,4.495 -0.342,1.19 -1.003,2.107 -2.007,2.748 -1.004,0.633 -2.407,0.946 -4.211,0.929 -1.803,-0.012 -4.21,-0.368 -7.221,-1.063 -2.946,-0.68 -5.263,-1.468 -6.969,-2.36 -1.705,-0.895 -2.995,-1.895 -3.86,-2.996 -0.873,-1.107 -1.403,-2.315 -1.607,-3.631 -0.196,-1.318 -0.302,-2.746 -0.302,-4.28 0,-1.539 0.171,-2.907 0.506,-4.098 0.334,-1.192 0.971,-2.147 1.901,-2.87 0.939,-0.718 2.228,-1.138 3.86,-1.263 1.64,-0.123 3.794,0.125 6.471,0.743 2.676,0.618 4.896,1.346 6.666,2.188 1.771,0.845 3.191,1.826 4.26,2.942 1.069,1.111 1.844,2.38 2.309,3.788 C -0.237,-3.315 0,-1.742 0,0 m -6.414,-37.079 c -2.48,2.635 -4.569,4.796 -6.267,6.477 -1.705,1.675 -3.198,2.986 -4.463,3.931 -1.273,0.942 -2.391,1.553 -3.362,1.831 -0.971,0.277 -1.95,0.3 -2.954,0.068 -0.873,-0.201 -1.591,-0.534 -2.162,-0.997 -0.563,-0.468 -0.996,-1.217 -1.298,-2.258 -0.302,-1.036 -0.506,-2.454 -0.604,-4.248 -0.098,-1.797 -0.147,-4.13 -0.147,-7.002 l -6.119,-1.413 v 65.174 c 6.479,1.496 11.995,2.667 16.54,3.517 4.545,0.849 8.339,1.309 11.383,1.375 3.044,0.066 5.451,-0.312 7.222,-1.14 1.77,-0.827 3.109,-2.191 4.006,-4.089 0.906,-1.896 1.477,-4.388 1.706,-7.477 0.236,-3.087 0.35,-6.806 0.35,-11.151 0,-6.752 -0.987,-12.207 -2.953,-16.374 -1.975,-4.164 -5.166,-7.124 -9.58,-8.878 L 9.629,-33.375 Z"
             style="fill:#f15a22;fill-opacity:1;fill-rule:nonzero;stroke:none"
             id="path56" />
        </g>
        <g
           id="g58"
           transform="translate(177.924,97.4473)">
          <path
             d="m 0,0 c -0.752,2.292 -1.597,4.049 -2.516,5.275 -0.928,1.224 -1.848,2.123 -2.776,2.695 -0.928,0.575 -1.814,0.881 -2.666,0.926 -0.861,0.04 -1.597,-0.009 -2.216,-0.152 -0.61,-0.14 -1.295,-0.403 -2.048,-0.782 -0.76,-0.38 -1.546,-1.021 -2.366,-1.929 -0.819,-0.908 -1.63,-2.212 -2.415,-3.898 -0.786,-1.69 -1.488,-3.871 -2.107,-6.547 -1.095,-4.499 -0.995,-7.473 0.309,-8.919 1.304,-1.442 4.18,-1.652 8.627,-0.625 2.333,0.538 4.314,1.163 5.961,1.89 1.647,0.719 2.892,1.608 3.753,2.664 0.853,1.05 1.313,2.339 1.38,3.863 C 0.986,-4.019 0.685,-2.17 0,0 m 9.246,-29.711 c -0.41,2.438 -0.878,4.453 -1.388,6.049 -0.518,1.59 -1.338,2.772 -2.466,3.54 -1.129,0.767 -2.675,1.146 -4.623,1.139 -1.948,-0.002 -4.606,-0.394 -7.958,-1.168 -2.809,-0.649 -5.033,-1.35 -6.68,-2.107 -1.646,-0.756 -2.959,-1.678 -3.954,-2.76 -0.994,-1.086 -1.73,-2.335 -2.207,-3.749 -0.484,-1.412 -0.961,-3.097 -1.437,-5.051 l -9.865,-2.277 11.812,66.515 22.496,5.193 13.049,-63.759 z"
             style="fill:#f15a22;fill-opacity:1;fill-rule:nonzero;stroke:none"
             id="path60" />
        </g>
        <g
           id="g62"
           transform="translate(140.4534,113.0471)">
          <path
             d="m 0,0 c 0,2.49 -0.257,4.587 -0.783,6.283 -0.526,1.696 -1.531,2.954 -3.016,3.757 -1.484,0.809 -3.623,1.174 -6.394,1.113 -2.781,-0.069 -6.37,-0.611 -10.777,-1.629 -4.406,-1.017 -7.878,-2.158 -10.414,-3.409 -2.537,-1.258 -4.43,-2.654 -5.669,-4.185 -1.251,-1.533 -2.034,-3.222 -2.373,-5.071 -0.339,-1.849 -0.503,-3.874 -0.503,-6.077 0,-2.204 0.246,-4.128 0.725,-5.788 0.479,-1.666 1.403,-2.961 2.794,-3.885 1.391,-0.923 3.331,-1.457 5.821,-1.596 2.489,-0.144 5.692,0.233 9.619,1.14 7.949,1.835 13.431,4.275 16.446,7.315 C -1.508,-8.986 0,-4.979 0,0 M 9.48,7.934 C 9.48,0.944 8.93,-4.829 7.831,-9.39 6.733,-13.957 5.073,-17.689 2.875,-20.592 c -2.197,-2.904 -4.932,-5.16 -8.182,-6.769 -3.261,-1.618 -7.036,-2.922 -11.349,-3.918 -3.355,-0.774 -5.985,-1.574 -7.902,-2.397 -1.917,-0.828 -3.378,-2.048 -4.383,-3.671 -1.005,-1.617 -1.648,-3.729 -1.941,-6.333 -0.28,-2.601 -0.42,-6.053 -0.42,-10.366 l -18.246,-4.212 v 93.357 c 9.28,2.143 17.182,3.821 23.693,5.038 6.51,1.217 11.945,1.875 16.305,1.97 4.36,0.095 7.808,-0.447 10.345,-1.633 C 3.331,39.289 5.248,37.336 6.534,34.617 7.831,31.901 8.65,28.332 8.977,23.907 9.316,19.485 9.48,14.158 9.48,7.934"
             style="fill:#f15a22;fill-opacity:1;fill-rule:nonzero;stroke:none"
             id="path64" />
        </g>
        <g
           id="g66"
           transform="translate(401.6246,231.1606)">
          <path
             d="m 0,0 c 0,6.685 -0.156,11.963 -0.458,15.836 -0.294,3.875 -0.725,6.802 -1.293,8.77 -0.56,1.976 -1.257,3.167 -2.082,3.577 -0.825,0.41 -1.77,0.495 -2.815,0.254 -0.981,-0.227 -1.962,-0.793 -2.934,-1.691 -0.972,-0.903 -2.1,-2.42 -3.384,-4.559 -1.275,-2.133 -2.76,-5.03 -4.447,-8.688 -1.688,-3.659 -3.742,-8.319 -6.144,-13.981 l -1.577,-0.364 -3.714,-0.858 c -2.256,4.509 -4.081,8.187 -5.465,11.021 -1.394,2.833 -2.596,4.995 -3.604,6.49 -1.018,1.494 -1.935,2.447 -2.76,2.857 -0.835,0.408 -1.77,0.495 -2.825,0.251 -1.348,-0.311 -2.439,-0.811 -3.264,-1.487 -0.825,-0.681 -1.449,-1.953 -1.862,-3.809 -0.412,-1.865 -0.696,-4.503 -0.843,-7.916 -0.147,-3.413 -0.22,-7.978 -0.22,-13.686 l -7.556,-1.744 -0.11,72.09 12.278,2.835 c 3.613,-8.107 6.685,-14.513 9.243,-19.218 2.55,-4.707 4.732,-8.224 6.538,-10.549 1.798,-2.327 3.302,-3.745 4.503,-4.256 1.201,-0.511 2.256,-0.662 3.154,-0.455 0.679,0.157 1.394,0.473 2.146,0.945 0.752,0.476 1.614,1.331 2.586,2.573 0.981,1.24 2.072,2.936 3.273,5.093 1.202,2.153 2.586,4.989 4.164,8.508 1.577,3.519 3.31,7.807 5.19,12.862 1.87,5.054 3.979,11.116 6.309,18.187 L 8.106,80.292 8.225,1.899 Z"
             style="fill:#faa61a;fill-opacity:1;fill-rule:nonzero;stroke:none"
             id="path68" />
        </g>
        <g
           id="g70"
           transform="translate(330.2387,199.5955)">
          <path
             d="m 0,0 c 0,5.2 -0.196,9.322 -0.579,12.371 -0.383,3.043 -1.111,5.288 -2.175,6.723 -1.073,1.432 -2.53,2.207 -4.359,2.321 -1.839,0.108 -4.173,-0.16 -7.002,-0.813 -3.36,-0.776 -6.077,-1.655 -8.14,-2.626 -2.063,-0.976 -3.668,-2.472 -4.817,-4.496 -1.148,-2.025 -1.913,-4.82 -2.296,-8.386 -0.383,-3.57 -0.57,-8.374 -0.57,-14.414 l -8.606,-1.987 v 75.021 l 6.077,1.403 c 0,-6.044 0.158,-10.787 0.457,-14.233 0.308,-3.448 0.943,-5.962 1.895,-7.535 0.952,-1.581 2.371,-2.397 4.248,-2.464 1.867,-0.063 4.378,0.269 7.514,0.993 2.67,0.616 4.873,1.391 6.591,2.324 1.727,0.931 3.062,2.5 4.014,4.713 0.961,2.205 1.624,5.322 2.007,9.35 0.383,4.028 0.579,9.483 0.579,16.367 L 5.844,77.173 V 1.349 Z"
             style="fill:#faa61a;fill-opacity:1;fill-rule:nonzero;stroke:none"
             id="path72" />
        </g>
        <g
           id="g74"
           transform="translate(278.6084,252.4792)">
          <path
             d="m 0,0 c -2.129,-0.723 -3.869,-1.749 -5.23,-3.086 -1.37,-1.339 -2.406,-3.152 -3.128,-5.443 -0.722,-2.291 -1.25,-5.407 -1.592,-9.351 -0.343,-3.948 -0.556,-8.889 -0.63,-14.821 -0.074,-5.931 -0.111,-13.141 -0.111,-21.633 l -7.053,-1.629 c 0,8.034 -0.037,14.815 -0.111,20.333 -0.083,5.516 -0.287,10.055 -0.629,13.619 -0.343,3.558 -0.889,6.255 -1.648,8.093 -0.759,1.834 -1.842,3.078 -3.24,3.742 -1.406,0.66 -3.165,0.842 -5.294,0.54 -2.12,-0.299 -4.702,-0.798 -7.729,-1.497 V 12.41 L 7.849,22.624 V 2.15 C 4.739,1.432 2.12,0.716 0,0"
             style="fill:#faa61a;fill-opacity:1;fill-rule:nonzero;stroke:none"
             id="path76" />
        </g>
        <g
           id="g78"
           transform="translate(236.7273,207.2899)">
          <path
             d="m 0,0 c 0,-7.148 -0.484,-13.07 -1.461,-17.764 -0.967,-4.691 -2.988,-8.634 -6.062,-11.829 -3.064,-3.198 -7.437,-5.915 -13.11,-8.159 -5.672,-2.239 -13.214,-4.45 -22.615,-6.62 v 24.128 c 10.34,2.387 18.166,4.526 23.488,6.414 5.322,1.888 7.988,3.808 7.988,5.752 0,0.698 -0.114,1.274 -0.351,1.726 -0.238,0.448 -0.797,0.746 -1.689,0.891 -0.892,0.145 -2.201,0.17 -3.908,0.089 -1.708,-0.086 -4.041,-0.273 -6.992,-0.566 -2.959,-0.294 -5.54,-0.444 -7.75,-0.447 -2.22,-0.009 -4.079,0.339 -5.597,1.037 -1.518,0.698 -2.76,1.81 -3.728,3.337 -0.977,1.525 -1.736,3.659 -2.277,6.409 -0.54,2.749 -0.91,6.202 -1.11,10.354 -0.189,4.149 -0.284,9.217 -0.284,15.203 l 13.518,3.002 c 0,-7.613 0.152,-13.564 0.465,-17.841 0.313,-4.282 0.91,-7.388 1.812,-9.314 0.891,-1.934 2.134,-2.97 3.728,-3.105 1.593,-0.14 3.709,0.097 6.355,0.708 2.875,0.664 5.104,1.686 6.698,3.064 1.593,1.379 2.779,3.497 3.557,6.357 0.778,2.859 1.262,6.685 1.461,11.469 0.19,4.782 0.285,10.947 0.285,18.484 L 0,44.528 Z"
             style="fill:#faa61a;fill-opacity:1;fill-rule:nonzero;stroke:none"
             id="path80" />
        </g>
        <g
           id="g82"
           transform="translate(177.7352,176.196)">
          <path
             d="m 0,0 c 0,5.2 -0.196,9.322 -0.579,12.371 -0.383,3.043 -1.111,5.288 -2.175,6.723 -1.073,1.432 -2.53,2.207 -4.359,2.321 -1.839,0.108 -4.173,-0.16 -7.002,-0.813 -3.36,-0.776 -6.077,-1.655 -8.14,-2.626 -2.063,-0.976 -3.668,-2.472 -4.817,-4.496 -1.148,-2.025 -1.913,-4.82 -2.296,-8.386 -0.383,-3.57 -0.57,-8.374 -0.57,-14.414 l -8.606,-1.987 v 75.021 l 6.077,1.403 c 0,-6.044 0.158,-10.787 0.457,-14.233 0.308,-3.448 0.943,-5.962 1.895,-7.535 0.952,-1.581 2.371,-2.397 4.248,-2.464 1.867,-0.063 4.378,0.269 7.514,0.993 2.67,0.617 4.873,1.391 6.591,2.324 1.727,0.931 3.062,2.5 4.014,4.713 0.961,2.205 1.624,5.322 2.007,9.35 0.383,4.028 0.579,9.483 0.579,16.367 L 5.844,77.173 V 1.349 Z"
             style="fill:#faa61a;fill-opacity:1;fill-rule:nonzero;stroke:none"
             id="path84" />
        </g>
        <g
           id="g86"
           transform="translate(117.5612,226.1501)">
          <path
             d="m 0,0 c 0,2.688 -0.255,4.922 -0.742,6.701 -0.511,1.773 -1.496,3.139 -2.992,4.095 -1.496,0.944 -3.588,1.409 -6.276,1.385 -2.688,-0.019 -6.276,-0.549 -10.763,-1.585 -4.391,-1.014 -7.845,-2.188 -10.387,-3.517 -2.542,-1.335 -4.464,-2.825 -5.753,-4.466 -1.301,-1.651 -2.092,-3.451 -2.396,-5.412 -0.292,-1.965 -0.45,-4.094 -0.45,-6.38 0,-2.293 0.255,-4.332 0.754,-6.108 0.499,-1.776 1.447,-3.199 2.834,-4.278 1.398,-1.069 3.32,-1.696 5.753,-1.882 2.444,-0.184 5.655,0.186 9.645,1.107 3.989,0.921 7.297,2.007 9.936,3.261 2.639,1.26 4.756,2.722 6.349,4.385 1.593,1.657 2.749,3.548 3.442,5.648 C -0.353,-4.94 0,-2.597 0,0 m -9.56,-55.266 c -3.697,3.933 -6.811,7.148 -9.34,9.653 -2.542,2.497 -4.768,4.452 -6.653,5.859 -1.898,1.405 -3.564,2.316 -5.011,2.729 -1.448,0.414 -2.907,0.448 -4.403,0.103 -1.301,-0.301 -2.372,-0.797 -3.223,-1.486 -0.839,-0.699 -1.484,-1.814 -1.934,-3.366 -0.45,-1.545 -0.754,-3.658 -0.9,-6.331 -0.146,-2.679 -0.219,-6.156 -0.219,-10.438 l -9.122,-2.105 v 97.141 c 9.657,2.23 17.879,3.976 24.654,5.242 6.774,1.266 12.43,1.951 16.966,2.05 4.537,0.099 8.125,-0.466 10.764,-1.699 2.639,-1.233 4.634,-3.266 5.972,-6.095 1.35,-2.826 2.201,-6.54 2.542,-11.144 0.352,-4.601 0.523,-10.144 0.523,-16.621 0,-10.064 -1.472,-18.194 -4.403,-24.405 -2.943,-6.207 -7.699,-10.619 -14.279,-13.233 l 21.978,-20.333 z"
             style="fill:#faa61a;fill-opacity:1;fill-rule:nonzero;stroke:none"
             id="path88" />
        </g>
      </g>
    </g>
  </g>
</svg>
