<?xml version="1.0" encoding="UTF-8" standalone="no"?>
<!-- Generator: Adobe Illustrator 27.7.0, SVG Export Plug-In . SVG Version: 6.00 Build 0)  -->

<svg
   xmlns:dc="http://purl.org/dc/elements/1.1/"
   xmlns:cc="http://creativecommons.org/ns#"
   xmlns:rdf="http://www.w3.org/1999/02/22-rdf-syntax-ns#"
   xmlns:svg="http://www.w3.org/2000/svg"
   xmlns="http://www.w3.org/2000/svg"
   xmlns:sodipodi="http://sodipodi.sourceforge.net/DTD/sodipodi-0.dtd"
   xmlns:inkscape="http://www.inkscape.org/namespaces/inkscape"
   version="1.1"
   id="Layer_1"
   x="0px"
   y="0px"
   viewBox="0 0 666.66669 497.67847"
   xml:space="preserve"
   sodipodi:docname="Hnevea Sudtio Logo.svg"
   width="666.66669"
   height="497.67847"
   inkscape:version="0.92.4 (5da689c313, 2019-01-14)"><metadata
   id="metadata1535"><rdf:RDF><cc:Work
       rdf:about=""><dc:format>image/svg+xml</dc:format><dc:type
         rdf:resource="http://purl.org/dc/dcmitype/StillImage" /><dc:title></dc:title></cc:Work></rdf:RDF></metadata><defs
   id="defs1533" /><sodipodi:namedview
   pagecolor="#ffffff"
   bordercolor="#666666"
   borderopacity="1"
   objecttolerance="10"
   gridtolerance="10"
   guidetolerance="10"
   inkscape:pageopacity="0"
   inkscape:pageshadow="2"
   inkscape:window-width="1920"
   inkscape:window-height="1057"
   id="namedview1531"
   showgrid="false"
   fit-margin-top="0"
   fit-margin-left="0"
   fit-margin-right="0"
   fit-margin-bottom="0"
   inkscape:zoom="0.84111987"
   inkscape:cx="397.89154"
   inkscape:cy="109.94058"
   inkscape:window-x="-8"
   inkscape:window-y="-8"
   inkscape:window-maximized="1"
   inkscape:current-layer="Layer_1" />
<style
   type="text/css"
   id="style1176">
	.st0{fill:#0096E6;}
	.st1{fill:#FFFFFF;}
	.st2{fill:url(#SVGID_1_);}
	.st3{fill:url(#SVGID_00000077323737083157512010000005211450293965287585_);}
	.st4{fill:url(#SVGID_00000152258857652428007360000003346817269202673299_);}
	.st5{fill:url(#SVGID_00000166665778012154368280000008531065477839921288_);}
	.st6{fill:#C25CBD;}
	.st7{fill:url(#SVGID_00000181052254631630865590000004732971558132458686_);}
	.st8{fill:url(#SVGID_00000011751346563634858820000010803854206981666739_);}
	.st9{fill:url(#SVGID_00000158724956524275832690000009848239332213399687_);}
	.st10{fill:url(#SVGID_00000129203740885573726090000009525035777815136394_);}
	.st11{fill:url(#SVGID_00000141418079538862494720000007924138746688908717_);}
	.st12{fill:url(#SVGID_00000151524071080426777820000015981817726720901522_);}
	.st13{fill:url(#SVGID_00000004525639152160877410000007352430646748960167_);}
	.st14{fill:url(#SVGID_00000122679853133224684130000005737292490907365261_);}
	.st15{fill:url(#SVGID_00000150070404164557920800000014371367140854537109_);}
	.st16{fill:#FF5500;}
</style>
<g
   id="Cloud_00000083799666631409244050000015707857231055609009_"
   transform="scale(1.3333334)">
	<g
   id="Light_Blue_00000160191808892990395100000006227512186535804863_">
		<circle
   class="st0"
   cx="381.19464"
   cy="195.49513"
   r="118.80535"
   id="circle1178"
   style="fill:#0096e6" />
		<circle
   class="st0"
   cx="251.83781"
   cy="235.7435"
   r="108.69426"
   id="circle1180"
   style="fill:#0096e6" />
		<circle
   class="st0"
   cx="108.69426"
   cy="264.56458"
   r="108.69426"
   id="circle1182"
   style="fill:#0096e6" />
		<circle
   class="st0"
   cx="352.66437"
   cy="103.63871"
   r="103.63871"
   id="circle1184"
   style="fill:#0096e6" />
		<circle
   class="st0"
   cx="240.02542"
   cy="140.34821"
   r="103.63871"
   id="circle1186"
   style="fill:#0096e6" />
		<circle
   class="st0"
   cx="125.91002"
   cy="165.48892"
   r="113.7498"
   id="circle1188"
   style="fill:#0096e6" />
	</g>
	<g
   id="White_00000173863859387743365500000013956353504390998424_">
		<circle
   class="st1"
   cx="381.19464"
   cy="195.49513"
   r="106.16648"
   id="circle1191"
   style="fill:#ffffff" />
		<circle
   class="st1"
   cx="251.83781"
   cy="235.7435"
   r="96.055389"
   id="circle1193"
   style="fill:#ffffff" />
		<circle
   class="st1"
   cx="108.69426"
   cy="264.56458"
   r="96.055389"
   id="circle1195"
   style="fill:#ffffff" />
		<circle
   class="st1"
   cx="352.66437"
   cy="103.63871"
   r="90.99984"
   id="circle1197"
   style="fill:#ffffff" />
		<circle
   class="st1"
   cx="240.02542"
   cy="140.34821"
   r="90.99984"
   id="circle1199"
   style="fill:#ffffff" />
		<circle
   class="st1"
   cx="125.91002"
   cy="165.48892"
   r="101.11094"
   id="circle1201"
   style="fill:#ffffff" />
	</g>
	<g
   id="Black_00000169545454085168482590000000394691436740915639_">
		<circle
   cx="381.19458"
   cy="195.49504"
   r="96.055389"
   id="circle1204" />
		<circle
   cx="251.83763"
   cy="235.74358"
   r="85.944298"
   id="circle1206" />
		<circle
   cx="108.69431"
   cy="264.56451"
   r="85.944298"
   id="circle1208" />
		<circle
   cx="352.66422"
   cy="103.63869"
   r="80.888748"
   id="circle1210" />
		<circle
   cx="240.02562"
   cy="140.34836"
   r="80.888748"
   id="circle1212" />
		<circle
   cx="125.90977"
   cy="165.48874"
   r="90.99984"
   id="circle1214" />
	</g>
</g>
<g
   id="Hnevea_Sudtio"
   transform="scale(1.3333334)">
	<g
   id="O_00000013878606409352139440000006254328200323922353_">
		<g
   id="g1239">
			
				<linearGradient
   id="SVGID_1_"
   gradientUnits="userSpaceOnUse"
   x1="438.56604"
   y1="-32.044151"
   x2="413.36978"
   y2="-6.8479099"
   gradientTransform="matrix(1,-0.23087,0,1,0,283.59473)">
				<stop
   offset="0"
   style="stop-color:#C25CBD"
   id="stop1218" />
				<stop
   offset="0.18185"
   style="stop-color:#BF5ABA"
   id="stop1220" />
				<stop
   offset="0.32793"
   style="stop-color:#B556B0"
   id="stop1222" />
				<stop
   offset="0.46165"
   style="stop-color:#A44EA0"
   id="stop1224" />
				<stop
   offset="0.58795"
   style="stop-color:#8C4288"
   id="stop1226" />
				<stop
   offset="0.70909"
   style="stop-color:#6D346A"
   id="stop1228" />
				<stop
   offset="0.82635"
   style="stop-color:#472246"
   id="stop1230" />
				<stop
   offset="0.93834"
   style="stop-color:#1C0D1B"
   id="stop1232" />
				<stop
   offset="1"
   style="stop-color:#000000"
   id="stop1234" />
			</linearGradient>
			<polygon
   class="st2"
   points="442.78387,167.69133 431.43323,174.15617 420.08261,172.93233 416.23825,162.58717 420.08261,150.46695 "
   id="polygon1237"
   style="fill:url(#SVGID_1_)" />
		</g>
		<g
   id="g1262">
			
				<linearGradient
   id="SVGID_00000096029134248935516520000008867632201418340779_"
   gradientUnits="userSpaceOnUse"
   x1="375.10959"
   y1="-33.789219"
   x2="403.2323"
   y2="-5.6664901"
   gradientTransform="matrix(1,-0.23087,0,1,0,283.59473)">
				<stop
   offset="0"
   style="stop-color:#C25CBD"
   id="stop1241" />
				<stop
   offset="0.18185"
   style="stop-color:#BF5ABA"
   id="stop1243" />
				<stop
   offset="0.32793"
   style="stop-color:#B556B0"
   id="stop1245" />
				<stop
   offset="0.46165"
   style="stop-color:#A44EA0"
   id="stop1247" />
				<stop
   offset="0.58795"
   style="stop-color:#8C4288"
   id="stop1249" />
				<stop
   offset="0.70909"
   style="stop-color:#6D346A"
   id="stop1251" />
				<stop
   offset="0.82635"
   style="stop-color:#472246"
   id="stop1253" />
				<stop
   offset="0.93834"
   style="stop-color:#1C0D1B"
   id="stop1255" />
				<stop
   offset="1"
   style="stop-color:#000000"
   id="stop1257" />
			</linearGradient>
			<polygon
   style="fill:url(#SVGID_00000096029134248935516520000008867632201418340779_)"
   points="395.33777,178.64513 383.98746,185.10989 372.63712,183.88599 395.33777,156.17975 399.18213,166.5249 "
   id="polygon1260" />
		</g>
		<g
   id="g1285">
			
				<linearGradient
   id="SVGID_00000020372687667844063910000010383323153438809764_"
   gradientUnits="userSpaceOnUse"
   x1="2049.1077"
   y1="2233.9788"
   x2="2023.9114"
   y2="2259.1748"
   gradientTransform="matrix(-1,0.23087,0,-1,2425.9624,2006.9443)">
				<stop
   offset="0"
   style="stop-color:#C25CBD"
   id="stop1264" />
				<stop
   offset="0.18185"
   style="stop-color:#BF5ABA"
   id="stop1266" />
				<stop
   offset="0.32793"
   style="stop-color:#B556B0"
   id="stop1268" />
				<stop
   offset="0.46165"
   style="stop-color:#A44EA0"
   id="stop1270" />
				<stop
   offset="0.58795"
   style="stop-color:#8C4288"
   id="stop1272" />
				<stop
   offset="0.70909"
   style="stop-color:#6D346A"
   id="stop1274" />
				<stop
   offset="0.82635"
   style="stop-color:#472246"
   id="stop1276" />
				<stop
   offset="0.93834"
   style="stop-color:#1C0D1B"
   id="stop1278" />
				<stop
   offset="1"
   style="stop-color:#000000"
   id="stop1280" />
			</linearGradient>
			<polygon
   style="fill:url(#SVGID_00000020372687667844063910000010383323153438809764_)"
   points="372.63712,228.64781 383.98746,222.18303 395.33838,223.40681 399.18912,233.75049 395.33777,245.87233 "
   id="polygon1283" />
		</g>
		<g
   id="g1308">
			
				<linearGradient
   id="SVGID_00000070810688111864258180000007744760971566440347_"
   gradientUnits="userSpaceOnUse"
   x1="1985.6511"
   y1="2232.2334"
   x2="2013.7739"
   y2="2260.356"
   gradientTransform="matrix(-1,0.23087,0,-1,2425.9624,2006.9443)">
				<stop
   offset="0"
   style="stop-color:#C25CBD"
   id="stop1287" />
				<stop
   offset="0.18185"
   style="stop-color:#BF5ABA"
   id="stop1289" />
				<stop
   offset="0.32793"
   style="stop-color:#B556B0"
   id="stop1291" />
				<stop
   offset="0.46165"
   style="stop-color:#A44EA0"
   id="stop1293" />
				<stop
   offset="0.58795"
   style="stop-color:#8C4288"
   id="stop1295" />
				<stop
   offset="0.70909"
   style="stop-color:#6D346A"
   id="stop1297" />
				<stop
   offset="0.82635"
   style="stop-color:#472246"
   id="stop1299" />
				<stop
   offset="0.93834"
   style="stop-color:#1C0D1B"
   id="stop1301" />
				<stop
   offset="1"
   style="stop-color:#000000"
   id="stop1303" />
			</linearGradient>
			<polygon
   style="fill:url(#SVGID_00000070810688111864258180000007744760971566440347_)"
   points="420.08319,217.69402 431.43323,211.22931 442.78387,212.45316 420.08261,240.15955 416.24451,229.81294 "
   id="polygon1306" />
		</g>
		<g
   id="g1312">
			<polygon
   class="st6"
   points="420.08261,217.69415 420.08261,240.15955 395.33777,245.87233 395.33777,223.40695 "
   id="polygon1310"
   style="fill:#c25cbd" />
		</g>
		<g
   id="g1316">
			<polygon
   class="st6"
   points="420.08261,150.46695 420.08261,172.93233 395.33777,178.64513 395.33777,156.17975 "
   id="polygon1314"
   style="fill:#c25cbd" />
		</g>
		<g
   id="g1320">
			<polygon
   class="st6"
   points="395.33777,178.64513 395.33777,223.40695 372.63712,228.64781 372.63712,183.88599 "
   id="polygon1318"
   style="fill:#c25cbd" />
		</g>
		<g
   id="g1324">
			<polygon
   class="st6"
   points="442.78387,167.69133 442.78387,212.45316 420.08261,217.69415 420.08261,172.93233 "
   id="polygon1322"
   style="fill:#c25cbd" />
		</g>
	</g>
	<g
   id="I_00000142855878672775932030000013369462798621942202_">
		<g
   id="g1356">
			
				<linearGradient
   id="SVGID_00000037665022292567672780000014777516322295027630_"
   gradientUnits="userSpaceOnUse"
   x1="341.74051"
   y1="52.159389"
   x2="341.74051"
   y2="-34.760651"
   gradientTransform="matrix(1,-0.23087,0,1,0,283.59473)">
				<stop
   offset="0"
   style="stop-color:#000000"
   id="stop1327" />
				<stop
   offset="0.09966"
   style="stop-color:#3A1C39"
   id="stop1329" />
				<stop
   offset="0.19597"
   style="stop-color:#6B3368"
   id="stop1331" />
				<stop
   offset="0.28653"
   style="stop-color:#91458D"
   id="stop1333" />
				<stop
   offset="0.36996"
   style="stop-color:#AC51A7"
   id="stop1335" />
				<stop
   offset="0.44369"
   style="stop-color:#BC59B7"
   id="stop1337" />
				<stop
   offset="0.5"
   style="stop-color:#C25CBD"
   id="stop1339" />
				<stop
   offset="0.55631"
   style="stop-color:#BC59B7"
   id="stop1341" />
				<stop
   offset="0.63004"
   style="stop-color:#AC51A7"
   id="stop1343" />
				<stop
   offset="0.71347"
   style="stop-color:#91458D"
   id="stop1345" />
				<stop
   offset="0.80403"
   style="stop-color:#6B3368"
   id="stop1347" />
				<stop
   offset="0.90034"
   style="stop-color:#3A1C39"
   id="stop1349" />
				<stop
   offset="1"
   style="stop-color:#000000"
   id="stop1351" />
			</linearGradient>
			<polygon
   style="fill:url(#SVGID_00000037665022292567672780000014777516322295027630_)"
   points="353.09113,167.31656 353.09113,254.23659 330.38989,259.47757 330.38989,172.55756 "
   id="polygon1354" />
		</g>
		<g
   id="g1360">
			<polygon
   class="st6"
   points="365.18796,163.13739 365.18796,185.60278 318.29309,196.42931 318.29309,173.96393 "
   id="polygon1358"
   style="fill:#c25cbd" />
		</g>
		<g
   id="g1364">
			<polygon
   class="st6"
   points="365.18796,230.36461 365.18796,252.82999 318.29309,263.65652 318.29309,241.19113 "
   id="polygon1362"
   style="fill:#c25cbd" />
		</g>
	</g>
	<g
   id="T_00000120531149439472427580000008561953264280464281_">
		<g
   id="g1400">
			
				<linearGradient
   id="SVGID_00000140704750028023389830000016155308071173409431_"
   gradientUnits="userSpaceOnUse"
   x1="255.75081"
   y1="-24.23661"
   x2="312.53021"
   y2="-24.23661"
   gradientTransform="matrix(1,-0.23087,0,1,0,283.59473)">
				<stop
   offset="0.1"
   style="stop-color:#C25CBD"
   id="stop1367" />
				<stop
   offset="0.15545"
   style="stop-color:#BE5AB9"
   id="stop1369" />
				<stop
   offset="0.21294"
   style="stop-color:#B154AD"
   id="stop1371" />
				<stop
   offset="0.2714"
   style="stop-color:#9D4A99"
   id="stop1373" />
				<stop
   offset="0.33052"
   style="stop-color:#803C7C"
   id="stop1375" />
				<stop
   offset="0.39012"
   style="stop-color:#5A2B58"
   id="stop1377" />
				<stop
   offset="0.44928"
   style="stop-color:#2D152C"
   id="stop1379" />
				<stop
   offset="0.5"
   style="stop-color:#000000"
   id="stop1381" />
				<stop
   offset="0.55072"
   style="stop-color:#2D152C"
   id="stop1383" />
				<stop
   offset="0.60988"
   style="stop-color:#5A2B58"
   id="stop1385" />
				<stop
   offset="0.66948"
   style="stop-color:#803C7C"
   id="stop1387" />
				<stop
   offset="0.7286"
   style="stop-color:#9D4A99"
   id="stop1389" />
				<stop
   offset="0.78706"
   style="stop-color:#B154AD"
   id="stop1391" />
				<stop
   offset="0.84455"
   style="stop-color:#BE5AB9"
   id="stop1393" />
				<stop
   offset="0.9"
   style="stop-color:#C25CBD"
   id="stop1395" />
			</linearGradient>
			<path
   style="fill:url(#SVGID_00000140704750028023389830000016155308071173409431_)"
   d="m 293.61087,202.80537 -18.9407,4.37282 -18.15988,-13.89404 c -1.61958,-1.23914 -0.47723,-4.26863 1.80856,-4.79634 L 309.96219,176.565 c 2.2858,-0.52773 3.42813,1.97432 1.80856,3.96126 z"
   id="path1398"
   inkscape:connector-curvature="0" />
		</g>
		<g
   id="g1404">
			<polygon
   class="st6"
   points="295.49115,179.9059 295.49115,267.33594 272.78989,272.57693 272.78989,185.1469 "
   id="polygon1402"
   style="fill:#c25cbd" />
		</g>
	</g>
	<g
   id="D_00000037655928894252914970000004003630363302235803_">
		<g
   id="g1409">
			<polygon
   class="st6"
   points="245.14305,208.05994 263.1412,218.3447 243.45369,240.99437 "
   id="polygon1407"
   style="fill:#c25cbd" />
		</g>
		<g
   id="g1418">
			
				<linearGradient
   id="SVGID_00000055685366773259227450000007902920401086593668_"
   gradientUnits="userSpaceOnUse"
   x1="256.48071"
   y1="-10.76532"
   x2="152.60808"
   y2="-10.76532"
   gradientTransform="matrix(1,-0.23087,0,1,0,283.59473)">
				<stop
   offset="0.11503"
   style="stop-color:#C25CBD"
   id="stop1411" />
				<stop
   offset="0.68658"
   style="stop-color:#000000"
   id="stop1413" />
			</linearGradient>
			<polygon
   style="fill:url(#SVGID_00000055685366773259227450000007902920401086593668_)"
   points="249.47327,210.53438 249.47328,240.54588 217.37451,222.20239 223.78174,195.85338 "
   id="polygon1416" />
		</g>
		<g
   id="g1427">
			
				<linearGradient
   id="SVGID_00000118373469801364815780000016711622415471381632_"
   gradientUnits="userSpaceOnUse"
   x1="256.03302"
   y1="24.55813"
   x2="149.23601"
   y2="24.55813"
   gradientTransform="matrix(1,-0.23087,0,1,0,283.59473)">
				<stop
   offset="0"
   style="stop-color:#C25CBD"
   id="stop1420" />
				<stop
   offset="1"
   style="stop-color:#000000"
   id="stop1422" />
			</linearGradient>
			<polygon
   style="fill:url(#SVGID_00000118373469801364815780000016711622415471381632_)"
   points="223.78174,285.54596 218.57336,260.91547 263.1412,218.3447 263.1412,244.88094 "
   id="polygon1425" />
		</g>
		<g
   id="g1431">
			<polygon
   class="st6"
   points="223.78174,195.85338 223.78174,285.54596 201.08051,290.78696 201.08051,201.09436 "
   id="polygon1429"
   style="fill:#c25cbd" />
		</g>
	</g>
	<g
   id="U_00000069393042851980858360000008746213070556037777_">
		<g
   id="g1441">
			
				<linearGradient
   id="SVGID_00000102516569627283146150000013896966398401894057_"
   gradientUnits="userSpaceOnUse"
   x1="144.39635"
   y1="-21.04743"
   x2="144.39635"
   y2="159.68155"
   gradientTransform="matrix(1,-0.23087,0,1,0,283.59473)">
				<stop
   offset="0"
   style="stop-color:#C25CBD"
   id="stop1434" />
				<stop
   offset="1"
   style="stop-color:#000000"
   id="stop1436" />
			</linearGradient>
			<polygon
   style="fill:url(#SVGID_00000102516569627283146150000013896966398401894057_)"
   points="155.74698,210.05411 155.74698,284.97 133.04572,282.52231 133.04572,215.2951 "
   id="polygon1439" />
		</g>
		<g
   id="g1450">
			
				<linearGradient
   id="SVGID_00000178926176005023097740000010307535486727849129_"
   gradientUnits="userSpaceOnUse"
   x1="151.73203"
   y1="40.87632"
   x2="209.28755"
   y2="40.87632"
   gradientTransform="matrix(1,-0.23087,0,1,0,283.59473)">
				<stop
   offset="0"
   style="stop-color:#C25CBD"
   id="stop1443" />
				<stop
   offset="1"
   style="stop-color:#000000"
   id="stop1445" />
			</linearGradient>
			<polygon
   style="fill:url(#SVGID_00000178926176005023097740000010307535486727849129_)"
   points="172.44647,273.42593 166.03923,297.37054 151.04987,300.83112 133.04572,282.52231 "
   id="polygon1448" />
		</g>
		<g
   id="g1454">
			<polygon
   class="st6"
   points="166.03923,297.37054 166.03925,207.67795 188.74051,202.43695 188.74051,274.36795 "
   id="polygon1452"
   style="fill:#c25cbd" />
		</g>
	</g>
	<g
   id="S_00000109010743745108188090000012486718585038301630_">
		<g
   id="g1494">
			
				<linearGradient
   id="SVGID_00000147907710318921526120000007963936232250666942_"
   gradientUnits="userSpaceOnUse"
   x1="74.842697"
   y1="5.6459699"
   x2="111.96833"
   y2="5.6459699"
   gradientTransform="matrix(1,-0.23087,0,1,0,283.59473)">
				<stop
   offset="0"
   style="stop-color:#000000"
   id="stop1457" />
				<stop
   offset="0.03083"
   style="stop-color:#1C0D1B"
   id="stop1459" />
				<stop
   offset="0.08683"
   style="stop-color:#472246"
   id="stop1461" />
				<stop
   offset="0.14546"
   style="stop-color:#6D346A"
   id="stop1463" />
				<stop
   offset="0.20603"
   style="stop-color:#8C4288"
   id="stop1465" />
				<stop
   offset="0.26917"
   style="stop-color:#A44EA0"
   id="stop1467" />
				<stop
   offset="0.33603"
   style="stop-color:#B556B0"
   id="stop1469" />
				<stop
   offset="0.40908"
   style="stop-color:#BF5ABA"
   id="stop1471" />
				<stop
   offset="0.5"
   style="stop-color:#C25CBD"
   id="stop1473" />
				<stop
   offset="0.59092"
   style="stop-color:#BF5ABA"
   id="stop1475" />
				<stop
   offset="0.66397"
   style="stop-color:#B556B0"
   id="stop1477" />
				<stop
   offset="0.73083"
   style="stop-color:#A44EA0"
   id="stop1479" />
				<stop
   offset="0.79397"
   style="stop-color:#8C4288"
   id="stop1481" />
				<stop
   offset="0.85454"
   style="stop-color:#6D346A"
   id="stop1483" />
				<stop
   offset="0.91317"
   style="stop-color:#472246"
   id="stop1485" />
				<stop
   offset="0.96917"
   style="stop-color:#1C0D1B"
   id="stop1487" />
				<stop
   offset="1"
   style="stop-color:#000000"
   id="stop1489" />
			</linearGradient>
			<polygon
   style="fill:url(#SVGID_00000147907710318921526120000007963936232250666942_)"
   points="105.5611,253.6373 111.96833,274.62344 81.24994,281.71533 74.8427,260.72919 "
   id="polygon1492" />
		</g>
		<g
   id="g1503">
			
				<linearGradient
   id="SVGID_00000088853902756127887820000004058086721745775272_"
   gradientUnits="userSpaceOnUse"
   x1="44.974659"
   y1="-26.83573"
   x2="97.114014"
   y2="-26.83573"
   gradientTransform="matrix(1,-0.23087,0,1,0,283.59473)">
				<stop
   offset="0"
   style="stop-color:#000000"
   id="stop1496" />
				<stop
   offset="1"
   style="stop-color:#C25CBD"
   id="stop1498" />
			</linearGradient>
			<path
   style="fill:url(#SVGID_00000088853902756127887820000004058086721745775272_)"
   d="m 124.41402,239.26843 -49.57132,11.44445 6.40723,-23.94461 26.81206,-6.19005 18.16055,13.89384 c 1.61963,1.23911 0.4773,4.26865 -1.80852,4.79637 z"
   id="path1501"
   inkscape:connector-curvature="0" />
		</g>
		<g
   id="g1512">
			
				<linearGradient
   id="SVGID_00000136407209445595267950000016855222723526643862_"
   gradientUnits="userSpaceOnUse"
   x1="1832.3285"
   y1="2301.9629"
   x2="1878.5962"
   y2="2301.9629"
   gradientTransform="matrix(-1,0.23087,0,-1,1964.9296,2170.0466)">
				<stop
   offset="0"
   style="stop-color:#321933"
   id="stop1505" />
				<stop
   offset="1"
   style="stop-color:#C25CBD"
   id="stop1507" />
			</linearGradient>
			<path
   style="fill:url(#SVGID_00000136407209445595267950000016855222723526643862_)"
   d="m 62.397,296.08545 43.69963,-10.08884 -0.53556,22.58902 -26.81206,6.19006 -18.16055,-13.89386 c -1.61961,-1.2391 -0.47728,-4.26864 1.80854,-4.79638 z"
   id="path1510"
   inkscape:connector-curvature="0" />
		</g>
		<g
   id="g1516">
			<polygon
   class="st6"
   points="81.24994,226.76826 81.24994,281.71533 58.78388,268.8992 58.78388,249.95779 "
   id="polygon1514"
   style="fill:#c25cbd" />
		</g>
		<g
   id="g1520">
			<polygon
   class="st6"
   points="105.56107,308.58499 105.56107,253.63792 128.02713,266.45407 128.02713,285.39548 "
   id="polygon1518"
   style="fill:#c25cbd" />
		</g>
	</g>
	<path
   id="A_00000013167402903808568350000017311687377194491030_"
   class="st16"
   d="m 394.02576,75.54603 c -6.35712,-11.71206 -13.74969,-9.285 -17.53766,-8.03163 -4.96307,1.64219 -9.36816,4.19114 -13.97766,22.47496 -4.84534,19.21937 -10.1199,59.59165 -10.1199,59.59165 l 13.30029,-3.07062 1.36633,-7.65442 c 0.65994,-3.69707 3.01303,-6.04573 6.59995,-7.10118 0,0 10.30551,-2.67477 13.82343,-3.07472 1.48615,-0.16899 3.23245,1.00407 3.74002,3.33092 l 1.7966,8.23599 18.11337,-4.18181 c -1e-5,0 -9.01053,-45.60661 -17.10477,-60.51914 z m -11.19538,42.95392 c -2.02328,0.44048 -6.62619,1.60638 -8.97821,2.04686 -2.25085,0.44041 -3.56595,-0.82906 -3.28781,-4.04189 0.2529,-3.00546 1.57318,-9.37803 2.07382,-11.52973 1.10721,-4.7588 3.28317,-6.74231 5.84213,-7.09918 3.28021,-0.45746 6.14566,2.40957 7.71371,10.18241 0.1517,0.75143 0.53452,2.311 0.78397,4.43055 0.30292,2.57364 -0.96102,5.20778 -4.14761,6.01098 z"
   inkscape:connector-curvature="0"
   style="fill:#ff5500" />
	<path
   id="E_00000062879257162288001860000009118189516100670348_"
   class="st16"
   d="m 323.40503,138.45198 c -0.38391,0.002 -3.22623,-0.0947 -3.53018,-2.26318 -0.17599,-1.25583 0.45346,-2.39255 1.94321,-3.36246 1.29544,-0.77596 3.27106,-1.58417 5.92673,-2.36012 l 12.53354,-3.29787 v -10.89561 c 0,0 -14.267,3.43298 -18.65454,2.78048 -1.33261,-0.19818 -2.2023,-0.90524 -2.39664,-2.13381 -0.16196,-1.26092 0.45346,-2.39255 1.94318,-3.36246 4.01227,-2.61391 22.0228,-6.49862 22.0228,-6.49862 l 6e-5,-25.14018 -37.08249,8.56116 -6e-5,67.01643 37.85974,-8.7406 v -13.92429 c -10.1046,2.29561 -16.93464,3.60128 -20.56535,3.62113 z"
   inkscape:connector-curvature="0"
   style="fill:#ff5500" />
	<path
   id="V_00000043442439817638450530000016531600861203232695_"
   class="st16"
   d="m 280.36414,85.81886 c 0,0 -4.01712,26.46691 -7.58411,38.69792 -1.0192,3.49483 -3.4827,8.8423 -6.83353,1.1963 -1.20013,-2.73852 -4.76266,-15.53309 -7.37726,-32.02771 l -11.56879,2.67087 c 1.01247,11.34145 6.56612,41.97378 13.96561,59.81974 l 22.43674,-5.17993 c 8.25851,-21.85588 13.21368,-44.94038 14.89774,-69.31814 z"
   inkscape:connector-curvature="0"
   style="fill:#ff5500" />
	<path
   id="E_00000083776149525664189630000008762906426278241922_"
   class="st16"
   d="m 221.70503,165.59627 c -0.38391,0.002 -3.22623,-0.0947 -3.53017,-2.26317 -0.17603,-1.25583 0.45346,-2.39255 1.94319,-3.36247 1.29546,-0.77596 3.27106,-1.58417 5.92673,-2.36012 l 12.53355,-3.29787 v -10.8956 c 0,0 -14.26701,3.43298 -18.65456,2.78047 -1.33261,-0.19818 -2.2023,-0.90523 -2.39665,-2.1338 -0.16193,-1.26091 0.45346,-2.39255 1.94319,-3.36247 4.01227,-2.61391 22.0228,-6.49861 22.0228,-6.49861 v -27.12587 l -37.08243,8.56115 v 67.02926 l 37.85966,-8.74059 v -11.95142 c -10.10454,2.29559 -16.9346,3.60126 -20.56531,3.62111 z"
   inkscape:connector-curvature="0"
   style="fill:#ff5500" />
	<path
   id="N_00000085957260708187461120000016800497164275890066_"
   class="st16"
   d="m 177.30055,99.13895 c 0,0 -0.10716,27.94752 -0.45505,32.86367 -0.34787,4.91623 -1.20438,6.92007 -2.54259,7.16055 -0.64244,0.0802 -1.28365,-0.0757 -1.8199,-0.42749 -3.50352,-2.29837 -10.04977,-15.38689 -15.91122,-26.76897 l -8.5513,1.97423 v 70.72382 l 10.35454,-2.39052 0.13705,-17.96895 c 0,-3.74063 0.40146,-6.22543 1.25797,-7.40102 0.2943,-0.40077 0.77499,-0.67389 1.23105,-0.74817 3.01491,-0.49097 8.93932,7.1606 16.19229,19.34421 l 13.83711,-3.19455 V 95.96915 Z"
   inkscape:connector-curvature="0"
   style="fill:#ff5500" />
	<path
   id="H_00000094578529400105830230000005820675196786026418_"
   class="st16"
   d="m 115.98502,104.14441 c 0.35626,13.35281 0.21268,23.34814 -1.61933,29.90639 -1.1128,3.98378 -3.56248,7.01585 -6.83348,9.31139 -3.33178,2.33817 -6.67165,3.36244 -9.94266,3.42708 -3.98872,0.0789 -6.8716,-1.47354 -7.25454,-5.65794 -0.58299,-6.36926 -0.84206,-15.27241 -0.64774,-26.42668 l -14.47678,3.34222 v 98.61006 l 19.88526,-4.59088 c -0.35622,-12.57686 0.07254,-21.90602 1.61933,-27.67554 1.05412,-3.93179 3.93879,-7.25949 6.83353,-9.2144 3.38301,-2.28458 6.66502,-3.4709 9.94266,-3.52408 3.98353,-0.0647 6.87872,1.78239 7.25454,5.75494 0.55059,5.81961 0.80966,14.21561 0.64773,24.91724 l 14.8006,-3.41698 V 99.47876 Z"
   inkscape:connector-curvature="0"
   style="fill:#ff5500" />
</g>
</svg>