<?xml version="1.0" encoding="UTF-8" standalone="no"?>
<!-- Generator: Adobe Illustrator 25.0.0, SVG Export Plug-In . SVG Version: 6.00 Build 0)  -->

<svg
   version="1.1"
   id="Layer_1"
   x="0px"
   y="0px"
   viewBox="0 0 666.66669 497.67847"
   xml:space="preserve"
   sodipodi:docname="Hnevea Sudtio Logo.svg"
   width="666.66669"
   height="497.67847"
   inkscape:version="1.2.2 (b0a8486541, 2022-12-01)"
   xmlns:inkscape="http://www.inkscape.org/namespaces/inkscape"
   xmlns:sodipodi="http://sodipodi.sourceforge.net/DTD/sodipodi-0.dtd"
   xmlns="http://www.w3.org/2000/svg"
   xmlns:svg="http://www.w3.org/2000/svg"><defs
   id="defs359" /><sodipodi:namedview
   id="namedview357"
   pagecolor="#505050"
   bordercolor="#eeeeee"
   borderopacity="1"
   inkscape:showpageshadow="0"
   inkscape:pageopacity="0"
   inkscape:pagecheckerboard="0"
   inkscape:deskcolor="#505050"
   showgrid="false"
   inkscape:zoom="2.751442"
   inkscape:cx="250.23242"
   inkscape:cy="186.44769"
   inkscape:window-width="2560"
   inkscape:window-height="1400"
   inkscape:window-x="2560"
   inkscape:window-y="0"
   inkscape:window-maximized="1"
   inkscape:current-layer="Layer_1" />
<style
   type="text/css"
   id="style2">
	.st0{fill:#0096E6;}
	.st1{fill:#FFFFFF;}
	.st2{fill:url(#SVGID_1_);}
	.st3{fill:url(#SVGID_2_);}
	.st4{fill:url(#SVGID_3_);}
	.st5{fill:url(#SVGID_4_);}
	.st6{fill:#C25CBD;}
	.st7{fill:url(#SVGID_5_);}
	.st8{fill:url(#SVGID_6_);}
	.st9{fill:url(#SVGID_7_);}
	.st10{fill:url(#SVGID_8_);}
	.st11{fill:url(#SVGID_9_);}
	.st12{fill:url(#SVGID_10_);}
	.st13{fill:url(#SVGID_11_);}
	.st14{fill:url(#SVGID_12_);}
	.st15{fill:url(#SVGID_13_);}
	.st16{fill:#FF5500;}
</style>
<g
   id="Cloud_00000083799666631409244050000015707857231055609009_"
   transform="scale(1.3333334)">
	<g
   id="Light_Blue_00000160191808892990395100000006227512186535804863_">
		<circle
   class="st0"
   cx="381.19464"
   cy="195.49513"
   r="118.80535"
   id="circle4" />
		<circle
   class="st0"
   cx="251.83781"
   cy="235.7435"
   r="108.69426"
   id="circle6" />
		<circle
   class="st0"
   cx="108.69426"
   cy="264.56458"
   r="108.69426"
   id="circle8" />
		<circle
   class="st0"
   cx="352.66437"
   cy="103.63871"
   r="103.63871"
   id="circle10" />
		<circle
   class="st0"
   cx="240.02542"
   cy="140.34821"
   r="103.63871"
   id="circle12" />
		<circle
   class="st0"
   cx="125.91002"
   cy="165.48892"
   r="113.7498"
   id="circle14" />
	</g>
	<g
   id="White_00000173863859387743365500000013956353504390998424_">
		<circle
   class="st1"
   cx="381.19464"
   cy="195.49513"
   r="106.16648"
   id="circle17" />
		<circle
   class="st1"
   cx="251.83781"
   cy="235.7435"
   r="96.055389"
   id="circle19" />
		<circle
   class="st1"
   cx="108.69426"
   cy="264.56458"
   r="96.055389"
   id="circle21" />
		<circle
   class="st1"
   cx="352.66437"
   cy="103.63871"
   r="90.99984"
   id="circle23" />
		<circle
   class="st1"
   cx="240.02542"
   cy="140.34821"
   r="90.99984"
   id="circle25" />
		<circle
   class="st1"
   cx="125.91002"
   cy="165.48892"
   r="101.11094"
   id="circle27" />
	</g>
	<g
   id="Black_00000169545454085168482590000000394691436740915639_">
		<circle
   cx="381.19458"
   cy="195.49504"
   r="96.055389"
   id="circle30" />
		<circle
   cx="251.83763"
   cy="235.74358"
   r="85.944298"
   id="circle32" />
		<circle
   cx="108.69431"
   cy="264.56451"
   r="85.944298"
   id="circle34" />
		<circle
   cx="352.66422"
   cy="103.63869"
   r="80.888748"
   id="circle36" />
		<circle
   cx="240.02562"
   cy="140.34836"
   r="80.888748"
   id="circle38" />
		<circle
   cx="125.90977"
   cy="165.48874"
   r="90.99984"
   id="circle40" />
	</g>
</g>
<g
   id="Hnevea_Sudtio"
   transform="scale(1.3333334)">
	<g
   id="O_00000013878606409352139440000006254328200323922353_">
		<g
   id="g65">
			
				<linearGradient
   id="SVGID_1_"
   gradientUnits="userSpaceOnUse"
   x1="438.56604"
   y1="-32.044151"
   x2="413.36978"
   y2="-6.8479099"
   gradientTransform="matrix(1,-0.23087,0,1,0,283.59473)">
				<stop
   offset="0"
   style="stop-color:#C25CBD"
   id="stop44" />
				<stop
   offset="0.18185"
   style="stop-color:#BF5ABA"
   id="stop46" />
				<stop
   offset="0.32793"
   style="stop-color:#B556B0"
   id="stop48" />
				<stop
   offset="0.46165"
   style="stop-color:#A44EA0"
   id="stop50" />
				<stop
   offset="0.58795"
   style="stop-color:#8C4288"
   id="stop52" />
				<stop
   offset="0.70909"
   style="stop-color:#6D346A"
   id="stop54" />
				<stop
   offset="0.82635"
   style="stop-color:#472246"
   id="stop56" />
				<stop
   offset="0.93834"
   style="stop-color:#1C0D1B"
   id="stop58" />
				<stop
   offset="1"
   style="stop-color:#000000"
   id="stop60" />
			</linearGradient>
			<polygon
   class="st2"
   points="442.78387,167.69133 431.43323,174.15617 420.08261,172.93233 416.23825,162.58717 420.08261,150.46695 "
   id="polygon63"
   style="fill:url(#SVGID_1_)" />
		</g>
		<g
   id="g88">
			
				<linearGradient
   id="SVGID_2_"
   gradientUnits="userSpaceOnUse"
   x1="375.10959"
   y1="-33.789219"
   x2="403.2323"
   y2="-5.6664901"
   gradientTransform="matrix(1,-0.23087,0,1,0,283.59473)">
				<stop
   offset="0"
   style="stop-color:#C25CBD"
   id="stop67" />
				<stop
   offset="0.18185"
   style="stop-color:#BF5ABA"
   id="stop69" />
				<stop
   offset="0.32793"
   style="stop-color:#B556B0"
   id="stop71" />
				<stop
   offset="0.46165"
   style="stop-color:#A44EA0"
   id="stop73" />
				<stop
   offset="0.58795"
   style="stop-color:#8C4288"
   id="stop75" />
				<stop
   offset="0.70909"
   style="stop-color:#6D346A"
   id="stop77" />
				<stop
   offset="0.82635"
   style="stop-color:#472246"
   id="stop79" />
				<stop
   offset="0.93834"
   style="stop-color:#1C0D1B"
   id="stop81" />
				<stop
   offset="1"
   style="stop-color:#000000"
   id="stop83" />
			</linearGradient>
			<polygon
   class="st3"
   points="395.33777,178.64513 383.98746,185.10989 372.63712,183.88599 395.33777,156.17975 399.18213,166.5249 "
   id="polygon86"
   style="fill:url(#SVGID_2_)" />
		</g>
		<g
   id="g111">
			
				<linearGradient
   id="SVGID_3_"
   gradientUnits="userSpaceOnUse"
   x1="2049.1077"
   y1="2233.9788"
   x2="2023.9114"
   y2="2259.1748"
   gradientTransform="matrix(-1,0.23087,0,-1,2425.9624,2006.9443)">
				<stop
   offset="0"
   style="stop-color:#C25CBD"
   id="stop90" />
				<stop
   offset="0.18185"
   style="stop-color:#BF5ABA"
   id="stop92" />
				<stop
   offset="0.32793"
   style="stop-color:#B556B0"
   id="stop94" />
				<stop
   offset="0.46165"
   style="stop-color:#A44EA0"
   id="stop96" />
				<stop
   offset="0.58795"
   style="stop-color:#8C4288"
   id="stop98" />
				<stop
   offset="0.70909"
   style="stop-color:#6D346A"
   id="stop100" />
				<stop
   offset="0.82635"
   style="stop-color:#472246"
   id="stop102" />
				<stop
   offset="0.93834"
   style="stop-color:#1C0D1B"
   id="stop104" />
				<stop
   offset="1"
   style="stop-color:#000000"
   id="stop106" />
			</linearGradient>
			<polygon
   class="st4"
   points="372.63712,228.64781 383.98746,222.18303 395.33838,223.40681 399.18912,233.75049 395.33777,245.87233 "
   id="polygon109"
   style="fill:url(#SVGID_3_)" />
		</g>
		<g
   id="g134">
			
				<linearGradient
   id="SVGID_4_"
   gradientUnits="userSpaceOnUse"
   x1="1985.6511"
   y1="2232.2334"
   x2="2013.7739"
   y2="2260.356"
   gradientTransform="matrix(-1,0.23087,0,-1,2425.9624,2006.9443)">
				<stop
   offset="0"
   style="stop-color:#C25CBD"
   id="stop113" />
				<stop
   offset="0.18185"
   style="stop-color:#BF5ABA"
   id="stop115" />
				<stop
   offset="0.32793"
   style="stop-color:#B556B0"
   id="stop117" />
				<stop
   offset="0.46165"
   style="stop-color:#A44EA0"
   id="stop119" />
				<stop
   offset="0.58795"
   style="stop-color:#8C4288"
   id="stop121" />
				<stop
   offset="0.70909"
   style="stop-color:#6D346A"
   id="stop123" />
				<stop
   offset="0.82635"
   style="stop-color:#472246"
   id="stop125" />
				<stop
   offset="0.93834"
   style="stop-color:#1C0D1B"
   id="stop127" />
				<stop
   offset="1"
   style="stop-color:#000000"
   id="stop129" />
			</linearGradient>
			<polygon
   class="st5"
   points="420.08319,217.69402 431.43323,211.22931 442.78387,212.45316 420.08261,240.15955 416.24451,229.81294 "
   id="polygon132"
   style="fill:url(#SVGID_4_)" />
		</g>
		<g
   id="g138">
			<polygon
   class="st6"
   points="420.08261,217.69415 420.08261,240.15955 395.33777,245.87233 395.33777,223.40695 "
   id="polygon136" />
		</g>
		<g
   id="g142">
			<polygon
   class="st6"
   points="420.08261,150.46695 420.08261,172.93233 395.33777,178.64513 395.33777,156.17975 "
   id="polygon140" />
		</g>
		<g
   id="g146">
			<polygon
   class="st6"
   points="395.33777,178.64513 395.33777,223.40695 372.63712,228.64781 372.63712,183.88599 "
   id="polygon144" />
		</g>
		<g
   id="g150">
			<polygon
   class="st6"
   points="442.78387,167.69133 442.78387,212.45316 420.08261,217.69415 420.08261,172.93233 "
   id="polygon148" />
		</g>
	</g>
	<g
   id="I_00000142855878672775932030000013369462798621942202_">
		<g
   id="g182">
			
				<linearGradient
   id="SVGID_5_"
   gradientUnits="userSpaceOnUse"
   x1="341.74051"
   y1="52.159389"
   x2="341.74051"
   y2="-34.760651"
   gradientTransform="matrix(1,-0.23087,0,1,0,283.59473)">
				<stop
   offset="0"
   style="stop-color:#000000"
   id="stop153" />
				<stop
   offset="0.09966"
   style="stop-color:#3A1C39"
   id="stop155" />
				<stop
   offset="0.19597"
   style="stop-color:#6B3368"
   id="stop157" />
				<stop
   offset="0.28653"
   style="stop-color:#91458D"
   id="stop159" />
				<stop
   offset="0.36996"
   style="stop-color:#AC51A7"
   id="stop161" />
				<stop
   offset="0.44369"
   style="stop-color:#BC59B7"
   id="stop163" />
				<stop
   offset="0.5"
   style="stop-color:#C25CBD"
   id="stop165" />
				<stop
   offset="0.55631"
   style="stop-color:#BC59B7"
   id="stop167" />
				<stop
   offset="0.63004"
   style="stop-color:#AC51A7"
   id="stop169" />
				<stop
   offset="0.71347"
   style="stop-color:#91458D"
   id="stop171" />
				<stop
   offset="0.80403"
   style="stop-color:#6B3368"
   id="stop173" />
				<stop
   offset="0.90034"
   style="stop-color:#3A1C39"
   id="stop175" />
				<stop
   offset="1"
   style="stop-color:#000000"
   id="stop177" />
			</linearGradient>
			<polygon
   class="st7"
   points="353.09113,167.31656 353.09113,254.23659 330.38989,259.47757 330.38989,172.55756 "
   id="polygon180"
   style="fill:url(#SVGID_5_)" />
		</g>
		<g
   id="g186">
			<polygon
   class="st6"
   points="365.18796,163.13739 365.18796,185.60278 318.29309,196.42931 318.29309,173.96393 "
   id="polygon184" />
		</g>
		<g
   id="g190">
			<polygon
   class="st6"
   points="365.18796,230.36461 365.18796,252.82999 318.29309,263.65652 318.29309,241.19113 "
   id="polygon188" />
		</g>
	</g>
	<g
   id="T_00000120531149439472427580000008561953264280464281_">
		<g
   id="g226">
			
				<linearGradient
   id="SVGID_6_"
   gradientUnits="userSpaceOnUse"
   x1="255.75081"
   y1="-24.23661"
   x2="312.53021"
   y2="-24.23661"
   gradientTransform="matrix(1,-0.23087,0,1,0,283.59473)">
				<stop
   offset="0.1"
   style="stop-color:#C25CBD"
   id="stop193" />
				<stop
   offset="0.15545"
   style="stop-color:#BE5AB9"
   id="stop195" />
				<stop
   offset="0.21294"
   style="stop-color:#B154AD"
   id="stop197" />
				<stop
   offset="0.2714"
   style="stop-color:#9D4A99"
   id="stop199" />
				<stop
   offset="0.33052"
   style="stop-color:#803C7C"
   id="stop201" />
				<stop
   offset="0.39012"
   style="stop-color:#5A2B58"
   id="stop203" />
				<stop
   offset="0.44928"
   style="stop-color:#2D152C"
   id="stop205" />
				<stop
   offset="0.5"
   style="stop-color:#000000"
   id="stop207" />
				<stop
   offset="0.55072"
   style="stop-color:#2D152C"
   id="stop209" />
				<stop
   offset="0.60988"
   style="stop-color:#5A2B58"
   id="stop211" />
				<stop
   offset="0.66948"
   style="stop-color:#803C7C"
   id="stop213" />
				<stop
   offset="0.7286"
   style="stop-color:#9D4A99"
   id="stop215" />
				<stop
   offset="0.78706"
   style="stop-color:#B154AD"
   id="stop217" />
				<stop
   offset="0.84455"
   style="stop-color:#BE5AB9"
   id="stop219" />
				<stop
   offset="0.9"
   style="stop-color:#C25CBD"
   id="stop221" />
			</linearGradient>
			<path
   class="st8"
   d="m 293.61087,202.80537 -18.9407,4.37282 -18.15988,-13.89404 c -1.61958,-1.23914 -0.47723,-4.26863 1.80856,-4.79634 L 309.96219,176.565 c 2.2858,-0.52773 3.42813,1.97432 1.80856,3.96126 z"
   id="path224"
   style="fill:url(#SVGID_6_)" />
		</g>
		<g
   id="g230">
			<polygon
   class="st6"
   points="295.49115,179.9059 295.49115,267.33594 272.78989,272.57693 272.78989,185.1469 "
   id="polygon228" />
		</g>
	</g>
	<g
   id="D_00000037655928894252914970000004003630363302235803_">
		<g
   id="g235">
			<polygon
   class="st6"
   points="245.14305,208.05994 263.1412,218.3447 243.45369,240.99437 "
   id="polygon233" />
		</g>
		<g
   id="g244">
			
				<linearGradient
   id="SVGID_7_"
   gradientUnits="userSpaceOnUse"
   x1="256.48071"
   y1="-10.76532"
   x2="152.60808"
   y2="-10.76532"
   gradientTransform="matrix(1,-0.23087,0,1,0,283.59473)">
				<stop
   offset="0.11503"
   style="stop-color:#C25CBD"
   id="stop237" />
				<stop
   offset="0.68658"
   style="stop-color:#000000"
   id="stop239" />
			</linearGradient>
			<polygon
   class="st9"
   points="249.47327,210.53438 249.47328,240.54588 217.37451,222.20239 223.78174,195.85338 "
   id="polygon242"
   style="fill:url(#SVGID_7_)" />
		</g>
		<g
   id="g253">
			
				<linearGradient
   id="SVGID_8_"
   gradientUnits="userSpaceOnUse"
   x1="256.03302"
   y1="24.55813"
   x2="149.23601"
   y2="24.55813"
   gradientTransform="matrix(1,-0.23087,0,1,0,283.59473)">
				<stop
   offset="0"
   style="stop-color:#C25CBD"
   id="stop246" />
				<stop
   offset="1"
   style="stop-color:#000000"
   id="stop248" />
			</linearGradient>
			<polygon
   class="st10"
   points="223.78174,285.54596 218.57336,260.91547 263.1412,218.3447 263.1412,244.88094 "
   id="polygon251"
   style="fill:url(#SVGID_8_)" />
		</g>
		<g
   id="g257">
			<polygon
   class="st6"
   points="223.78174,195.85338 223.78174,285.54596 201.08051,290.78696 201.08051,201.09436 "
   id="polygon255" />
		</g>
	</g>
	<g
   id="U_00000069393042851980858360000008746213070556037777_">
		<g
   id="g267">
			
				<linearGradient
   id="SVGID_9_"
   gradientUnits="userSpaceOnUse"
   x1="144.39635"
   y1="-21.04743"
   x2="144.39635"
   y2="159.68155"
   gradientTransform="matrix(1,-0.23087,0,1,0,283.59473)">
				<stop
   offset="0"
   style="stop-color:#C25CBD"
   id="stop260" />
				<stop
   offset="1"
   style="stop-color:#000000"
   id="stop262" />
			</linearGradient>
			<polygon
   class="st11"
   points="155.74698,210.05411 155.74698,284.97 133.04572,282.52231 133.04572,215.2951 "
   id="polygon265"
   style="fill:url(#SVGID_9_)" />
		</g>
		<g
   id="g276">
			
				<linearGradient
   id="SVGID_10_"
   gradientUnits="userSpaceOnUse"
   x1="151.73203"
   y1="40.87632"
   x2="209.28755"
   y2="40.87632"
   gradientTransform="matrix(1,-0.23087,0,1,0,283.59473)">
				<stop
   offset="0"
   style="stop-color:#C25CBD"
   id="stop269" />
				<stop
   offset="1"
   style="stop-color:#000000"
   id="stop271" />
			</linearGradient>
			<polygon
   class="st12"
   points="172.44647,273.42593 166.03923,297.37054 151.04987,300.83112 133.04572,282.52231 "
   id="polygon274"
   style="fill:url(#SVGID_10_)" />
		</g>
		<g
   id="g280">
			<polygon
   class="st6"
   points="166.03923,297.37054 166.03925,207.67795 188.74051,202.43695 188.74051,274.36795 "
   id="polygon278" />
		</g>
	</g>
	<g
   id="S_00000109010743745108188090000012486718585038301630_">
		<g
   id="g320">
			
				<linearGradient
   id="SVGID_11_"
   gradientUnits="userSpaceOnUse"
   x1="74.842697"
   y1="5.6459699"
   x2="111.96833"
   y2="5.6459699"
   gradientTransform="matrix(1,-0.23087,0,1,0,283.59473)">
				<stop
   offset="0"
   style="stop-color:#000000"
   id="stop283" />
				<stop
   offset="0.03083"
   style="stop-color:#1C0D1B"
   id="stop285" />
				<stop
   offset="0.08683"
   style="stop-color:#472246"
   id="stop287" />
				<stop
   offset="0.14546"
   style="stop-color:#6D346A"
   id="stop289" />
				<stop
   offset="0.20603"
   style="stop-color:#8C4288"
   id="stop291" />
				<stop
   offset="0.26917"
   style="stop-color:#A44EA0"
   id="stop293" />
				<stop
   offset="0.33603"
   style="stop-color:#B556B0"
   id="stop295" />
				<stop
   offset="0.40908"
   style="stop-color:#BF5ABA"
   id="stop297" />
				<stop
   offset="0.5"
   style="stop-color:#C25CBD"
   id="stop299" />
				<stop
   offset="0.59092"
   style="stop-color:#BF5ABA"
   id="stop301" />
				<stop
   offset="0.66397"
   style="stop-color:#B556B0"
   id="stop303" />
				<stop
   offset="0.73083"
   style="stop-color:#A44EA0"
   id="stop305" />
				<stop
   offset="0.79397"
   style="stop-color:#8C4288"
   id="stop307" />
				<stop
   offset="0.85454"
   style="stop-color:#6D346A"
   id="stop309" />
				<stop
   offset="0.91317"
   style="stop-color:#472246"
   id="stop311" />
				<stop
   offset="0.96917"
   style="stop-color:#1C0D1B"
   id="stop313" />
				<stop
   offset="1"
   style="stop-color:#000000"
   id="stop315" />
			</linearGradient>
			<polygon
   class="st13"
   points="105.5611,253.6373 111.96833,274.62344 81.24994,281.71533 74.8427,260.72919 "
   id="polygon318"
   style="fill:url(#SVGID_11_)" />
		</g>
		<g
   id="g329">
			
				<linearGradient
   id="SVGID_12_"
   gradientUnits="userSpaceOnUse"
   x1="44.974659"
   y1="-26.83573"
   x2="97.114014"
   y2="-26.83573"
   gradientTransform="matrix(1,-0.23087,0,1,0,283.59473)">
				<stop
   offset="0"
   style="stop-color:#000000"
   id="stop322" />
				<stop
   offset="1"
   style="stop-color:#C25CBD"
   id="stop324" />
			</linearGradient>
			<path
   class="st14"
   d="m 124.41402,239.26843 -49.57132,11.44445 6.40723,-23.94461 26.81206,-6.19005 18.16055,13.89384 c 1.61963,1.23911 0.4773,4.26865 -1.80852,4.79637 z"
   id="path327"
   style="fill:url(#SVGID_12_)" />
		</g>
		<g
   id="g338">
			
				<linearGradient
   id="SVGID_13_"
   gradientUnits="userSpaceOnUse"
   x1="1832.3285"
   y1="2301.9629"
   x2="1878.5962"
   y2="2301.9629"
   gradientTransform="matrix(-1,0.23087,0,-1,1964.9296,2170.0466)">
				<stop
   offset="0"
   style="stop-color:#321933"
   id="stop331" />
				<stop
   offset="1"
   style="stop-color:#C25CBD"
   id="stop333" />
			</linearGradient>
			<path
   class="st15"
   d="m 62.397,296.08545 43.69963,-10.08884 -0.53556,22.58902 -26.81206,6.19006 -18.16055,-13.89386 c -1.61961,-1.2391 -0.47728,-4.26864 1.80854,-4.79638 z"
   id="path336"
   style="fill:url(#SVGID_13_)" />
		</g>
		<g
   id="g342">
			<polygon
   class="st6"
   points="81.24994,226.76826 81.24994,281.71533 58.78388,268.8992 58.78388,249.95779 "
   id="polygon340" />
		</g>
		<g
   id="g346">
			<polygon
   class="st6"
   points="105.56107,308.58499 105.56107,253.63792 128.02713,266.45407 128.02713,285.39548 "
   id="polygon344" />
		</g>
	</g>
	<path
   id="A_00000013167402903808568350000017311687377194491030_"
   class="st16"
   d="m 394.02576,75.54603 c -6.35712,-11.71206 -13.74969,-9.285 -17.53766,-8.03163 -4.96307,1.64219 -9.36816,4.19114 -13.97766,22.47496 -4.84534,19.21937 -10.1199,59.59165 -10.1199,59.59165 l 13.30029,-3.07062 1.36633,-7.65442 c 0.65994,-3.69707 3.01303,-6.04573 6.59995,-7.10118 0,0 10.30551,-2.67477 13.82343,-3.07472 1.48615,-0.16899 3.23245,1.00407 3.74002,3.33092 l 1.7966,8.23599 18.11337,-4.18181 c -1e-5,0 -9.01053,-45.60661 -17.10477,-60.51914 z m -11.19538,42.95392 c -2.02328,0.44048 -6.62619,1.60638 -8.97821,2.04686 -2.25085,0.44041 -3.56595,-0.82906 -3.28781,-4.04189 0.2529,-3.00546 1.57318,-9.37803 2.07382,-11.52973 1.10721,-4.7588 3.28317,-6.74231 5.84213,-7.09918 3.28021,-0.45746 6.14566,2.40957 7.71371,10.18241 0.1517,0.75143 0.53452,2.311 0.78397,4.43055 0.30292,2.57364 -0.96102,5.20778 -4.14761,6.01098 z" />
	<path
   id="E_00000141415673586521803210000001037206312179412915_"
   class="st16"
   d="m 323.40503,138.45195 c -0.38391,0.002 -3.22623,-0.0947 -3.53015,-2.26317 -0.17603,-1.25583 0.42673,-2.43486 1.94318,-3.36246 2.37164,-1.45073 10.58099,-3.81012 18.46027,-5.65798 v -10.8956 c 0,0 -14.267,3.43298 -18.65454,2.78048 -1.33261,-0.19818 -2.22021,-0.90253 -2.39664,-2.13381 -0.1803,-1.25842 0.45358,-2.39233 1.94318,-3.36246 4.01263,-2.61334 22.02277,-6.49862 22.02277,-6.49862 l 6e-5,-25.14014 -37.08243,8.56115 -9e-5,67.01636 37.85971,-8.7406 v -13.92426 c -10.10457,2.29561 -16.93461,3.60126 -20.56532,3.62111 z" />
	<path
   id="V_00000043442439817638450530000016531600861203232695_"
   class="st16"
   d="m 280.36414,85.81886 c 0,0 -4.01712,26.46691 -7.58411,38.69792 -1.0192,3.49483 -3.4827,8.8423 -6.83353,1.1963 -1.20013,-2.73852 -4.76266,-15.53309 -7.37726,-32.02771 l -11.56879,2.67087 c 1.01247,11.34145 6.56612,41.97378 13.96561,59.81974 l 22.43674,-5.17993 c 8.25851,-21.85588 13.21368,-44.94038 14.89774,-69.31814 z" />
	<path
   id="E_1_"
   class="st16"
   d="m 221.70508,165.57443 c -0.38391,0.002 -3.22623,-0.0947 -3.53017,-2.26317 -0.17603,-1.25583 0.42674,-2.43486 1.94318,-3.36246 2.37164,-1.45073 10.58099,-3.81012 18.46027,-5.65799 v -10.89558 c 0,0 -14.26698,3.43297 -18.65453,2.78047 -1.33261,-0.19818 -2.22023,-0.90254 -2.39665,-2.1338 -0.1803,-1.25842 0.4536,-2.39233 1.94319,-3.36247 4.01263,-2.61333 22.02277,-6.49861 22.02277,-6.49861 l 6e-5,-27.09762 -37.08244,8.56115 -8e-5,67.01637 37.8597,-8.7406 v -11.9668 c -10.10455,2.2956 -16.9346,3.60126 -20.5653,3.62111 z" />
	<path
   id="N_00000029749576977222268470000000250585185731990184_"
   class="st16"
   d="m 177.30055,99.13899 c 0,0 -0.10716,27.94752 -0.45505,32.86368 -0.54337,7.67897 -2.60672,7.88487 -4.36249,6.73306 -3.50352,-2.29837 -10.04977,-15.38689 -15.91122,-26.76897 l -8.5513,1.97422 v 70.72382 l 10.45634,-2.41403 0.0352,-17.94543 c 0.0181,-9.21175 2.53333,-9.81097 6.18797,-6.46477 2.77333,2.53926 6.54684,8.13857 12.49333,17.65979 l 13.83711,-3.19455 V 95.96918 Z" />
	<path
   id="H_00000094578529400105830230000005820675196786026418_"
   class="st16"
   d="m 115.98502,104.14441 c 0.35626,13.35281 0.21268,23.34814 -1.61933,29.90639 -1.1128,3.98378 -3.56248,7.01585 -6.83348,9.31139 -3.33178,2.33817 -6.67165,3.36244 -9.94266,3.42708 -3.98872,0.0789 -6.8716,-1.47354 -7.25454,-5.65794 -0.58299,-6.36926 -0.84206,-15.27241 -0.64774,-26.42668 l -14.47678,3.34222 v 98.61006 l 19.88526,-4.59088 c -0.35622,-12.57686 0.07254,-21.90602 1.61933,-27.67554 1.05412,-3.93179 3.93879,-7.25949 6.83353,-9.2144 3.38301,-2.28458 6.66502,-3.4709 9.94266,-3.52408 3.98353,-0.0647 6.87872,1.78239 7.25454,5.75494 0.55059,5.81961 0.80966,14.21561 0.64773,24.91724 l 14.8006,-3.41698 V 99.47876 Z" />
</g>
</svg>
