<?xml version="1.0" encoding="utf-8"?>
<!-- Generator: Adobe Illustrator 27.7.0, SVG Export Plug-In . SVG Version: 6.00 Build 0)  -->
<svg version="1.1" id="Layer_1" xmlns="http://www.w3.org/2000/svg" xmlns:xlink="http://www.w3.org/1999/xlink" x="0px" y="0px"
	 viewBox="0 0 500 348.71729" style="enable-background:new 0 0 500 348.71729;" xml:space="preserve">
<style type="text/css">
	.st0{fill:#0096E6;}
	.st1{fill:#FFFFFF;}
	.st2{fill:url(#SVGID_1_);}
	.st3{fill:#C25CBD;}
	.st4{fill:url(#SVGID_00000042717474479553209430000005281738243213102746_);}
	.st5{fill:url(#SVGID_00000113324731591744373430000012193265717680057518_);}
	.st6{fill:url(#SVGID_00000109031117906859188450000002542431736993985162_);}
	.st7{fill:url(#SVGID_00000089539525104166056780000016252068966689442979_);}
	.st8{fill:url(#SVGID_00000149352133349360969260000017254775609292276618_);}
	.st9{fill:url(#SVGID_00000005978284104399356000000016666470725570184880_);}
	.st10{fill:#FF5500;}
	.st11{fill:#FFAA00;}
</style>
<g id="Cloud">
	<g id="Light_Blue">
		<ellipse class="st0" cx="401.89478" cy="182.68433" rx="98.10522" ry="99.59466"/>
		<ellipse class="st0" cx="290.56329" cy="206.16273" rx="98.10522" ry="99.59466"/>
		<ellipse class="st0" cx="191.7831" cy="225.7766" rx="98.10522" ry="99.59435"/>
		<ellipse class="st0" cx="98.10502" cy="249.12283" rx="98.10502" ry="99.59445"/>
		<ellipse class="st0" cx="298.6947" cy="99.59445" rx="98.10522" ry="99.59466"/>
		<ellipse class="st0" cx="173.10703" cy="125.76768" rx="98.10522" ry="99.59435"/>
	</g>
	<g id="White">
		<ellipse class="st1" cx="401.89478" cy="182.68433" rx="87.4389" ry="88.92833"/>
		<ellipse class="st1" cx="290.56329" cy="206.16273" rx="87.4389" ry="88.92833"/>
		<ellipse class="st1" cx="191.7831" cy="225.7766" rx="87.4389" ry="88.92802"/>
		<ellipse class="st1" cx="98.10502" cy="249.12283" rx="87.43869" ry="88.92812"/>
		<ellipse class="st1" cx="298.6947" cy="99.59445" rx="87.4389" ry="88.92833"/>
		<ellipse class="st1" cx="173.10703" cy="125.76768" rx="87.4389" ry="88.92802"/>
	</g>
	<g id="Black">
		<ellipse cx="401.89487" cy="182.68431" rx="78.90575" ry="80.39509"/>
		<ellipse cx="290.56348" cy="206.16275" rx="78.90575" ry="80.39509"/>
		<ellipse cx="191.78313" cy="225.7766" rx="78.90575" ry="80.39509"/>
		<ellipse cx="98.10486" cy="249.12279" rx="78.90575" ry="80.39509"/>
		<ellipse cx="298.69498" cy="99.59455" rx="78.90575" ry="80.39509"/>
		<ellipse cx="173.10675" cy="125.76765" rx="78.90575" ry="80.39509"/>
	</g>
</g>
<g id="天国スタジオ">
	<g id="オ">
		
			<linearGradient id="SVGID_1_" gradientUnits="userSpaceOnUse" x1="331.09421" y1="254.39709" x2="421.97418" y2="190.76224" gradientTransform="matrix(1 -0.21256 0 1 0 52.61271)">
			<stop  offset="0.7" style="stop-color:#C25CBD"/>
			<stop  offset="1" style="stop-color:#000000"/>
		</linearGradient>
		<path class="st2" d="M415.14621,148.43465c0,44.21356-54.31998,89.71906-75.09097,99.09187l0.00006-17.9194
			c36.69836-24.32556,56.23352-60.44226,59.73145-78.40094l-0.00006-2.55989l15.35953-3.26477V148.43465z"/>
		<polygon class="st3" points="426.26718,229.2016 408.34775,233.01048 408.34775,128.90715 426.26718,125.09825 		"/>
		<polygon class="st3" points="444.1586,138.36142 444.1586,156.28085 340.05524,178.40871 340.05524,160.48927 		"/>
	</g>
	<g id="ジ">
		
			<linearGradient id="SVGID_00000144298704120207422300000006766870025596694930_" gradientUnits="userSpaceOnUse" x1="323.41577" y1="180.15753" x2="323.41577" y2="250.98196" gradientTransform="matrix(1 -0.21256 0 1 0 52.61271)">
			<stop  offset="0.8" style="stop-color:#C25CBD"/>
			<stop  offset="0.82252" style="stop-color:#BC59B7"/>
			<stop  offset="0.85202" style="stop-color:#AC51A7"/>
			<stop  offset="0.88539" style="stop-color:#91458D"/>
			<stop  offset="0.92161" style="stop-color:#6B3368"/>
			<stop  offset="0.96014" style="stop-color:#3A1C39"/>
			<stop  offset="1" style="stop-color:#000000"/>
		</linearGradient>
		<polygon style="fill:url(#SVGID_00000144298704120207422300000006766870025596694930_);" points="332.37549,228.67952 
			314.45605,236.75497 314.45605,165.93057 332.37549,162.12166 		"/>
		<polygon class="st3" points="248.75146,266.93375 311.89615,253.51192 332.37549,228.67955 248.75146,246.45439 		"/>
		<polygon class="st3" points="322.98911,162.4102 314.45605,164.22397 314.45605,148.86446 322.98911,147.05069 		"/>
		<polygon class="st3" points="332.37549,160.41507 323.84244,162.22884 323.84244,146.86932 332.37549,145.05556 		"/>
		<polygon class="st3" points="303.41913,182.38365 294.45944,199.80681 253.81526,184.9801 262.77493,167.55696 		"/>
		<polygon class="st3" points="291.47284,205.61453 282.51315,223.03767 241.86897,208.21098 250.82864,190.78784 		"/>
	</g>
	<g id="タ">
		
			<linearGradient id="SVGID_00000086692005319485147000000004298318152880730815_" gradientUnits="userSpaceOnUse" x1="177.0106" y1="186.98401" x2="221.38962" y2="186.98401" gradientTransform="matrix(1 -0.21256 0 1 0 52.61271)">
			<stop  offset="0.75" style="stop-color:#C25CBD"/>
			<stop  offset="1" style="stop-color:#000000"/>
		</linearGradient>
		<polygon style="fill:url(#SVGID_00000086692005319485147000000004298318152880730815_);" points="221.38962,202.77858 
			177.0106,212.21162 185.24123,189.9828 215.41647,183.56885 		"/>
		
			<linearGradient id="SVGID_00000181079995573912302270000005779955797630209960_" gradientUnits="userSpaceOnUse" x1="176.39381" y1="181.69576" x2="203.96371" y2="194.55182" gradientTransform="matrix(1 -0.21256 0 1 0 52.61271)">
			<stop  offset="0" style="stop-color:#000000"/>
			<stop  offset="0.5" style="stop-color:#C25CBD"/>
		</linearGradient>
		<polygon style="fill:url(#SVGID_00000181079995573912302270000005779955797630209960_);" points="202.7178,206.74739 
			172.75116,213.11699 178.7027,191.3726 202.7178,186.26804 		"/>
		
			<linearGradient id="SVGID_00000136396976195303296860000018380248703111130789_" gradientUnits="userSpaceOnUse" x1="176.25644" y1="210.81691" x2="207.30983" y2="241.8703" gradientTransform="matrix(1 -0.21256 0 1 0 52.61271)">
			<stop  offset="0.7" style="stop-color:#C25CBD"/>
			<stop  offset="1" style="stop-color:#000000"/>
		</linearGradient>
		<polygon style="fill:url(#SVGID_00000136396976195303296860000018380248703111130789_);" points="200.37099,258.83167 
			169.31758,234.37895 183.19528,217.55142 214.24869,242.00417 		"/>
		<path class="st3" d="M234.18921,204.32446c0,34.36989-19.75566,69.90378-60.31046,78.52399l-13.07388,2.77893v-20.47937
			l18.77274-3.99026c7.13969-1.51758,35.83887-9.88606,35.83887-57.10954v-20.47935l18.77274,14.78247V204.32446z"/>
		<path class="st3" d="M169.1246,179.75558c-1.70541,18.44376-10.16655,30.73653-20.05269,36.68797v20.47935
			c25.8696-10.78635,38.46857-36.92796,40.53204-61.52034L169.1246,179.75558z"/>
	</g>
	<g id="ス">
		
			<linearGradient id="SVGID_00000173844086007212252480000000386331573436155537_" gradientUnits="userSpaceOnUse" x1="64.36977" y1="173.00537" x2="120.688" y2="173.00537" gradientTransform="matrix(1 -0.21256 0 1 0 52.61271)">
			<stop  offset="0.8" style="stop-color:#C25CBD"/>
			<stop  offset="1" style="stop-color:#000000"/>
		</linearGradient>
		<polygon style="fill:url(#SVGID_00000173844086007212252480000000386331573436155537_);" points="120.688,210.20473 
			64.36977,222.17554 64.36977,201.69618 114.71485,190.99501 		"/>
		
			<linearGradient id="SVGID_00000047755915287232332820000015449033176531134359_" gradientUnits="userSpaceOnUse" x1="106.62359" y1="229.2653" x2="141.08144" y2="253.63034" gradientTransform="matrix(0.98654 -0.22316 -0.01346 0.9894 10.47868 60.86407)">
			<stop  offset="0" style="stop-color:#000000"/>
			<stop  offset="0.3" style="stop-color:#C25CBD"/>
		</linearGradient>
		<polygon style="fill:url(#SVGID_00000047755915287232332820000015449033176531134359_);" points="136.04752,291.21545 
			108.90237,269.84021 122.78008,253.01268 149.92522,274.38794 		"/>
		<path class="st3" d="M132.63428,217.05183c0,34.01344-20.81419,78.66185-75.09095,90.19875v-20.47937
			c60.62795-12.88687,57.17152-66.59096,57.17152-75.29684v-20.47935l17.91943,14.11053V217.05183z"/>
	</g>
	<path id="国_00000154391069060815751530000006741416892683236229_" class="st10" d="M272.58902,88.50417l0.56918-6.50523
		l36.12411-7.67854l-0.56915,6.50523l-6.30667,1.3405c-2.69495,0.57288-4.35016,2.39964-4.64694,5.79114l-0.93497,10.68678
		l10.52545-2.23729l-0.61084,6.98246l-10.52551,2.23755l-1.1478,13.11987c-0.18066,2.06528,1.31812,3.2049,4.5986,2.50766
		l5.61621-1.19385l-0.56531,6.46221l-36.12418,7.67856l0.56534-6.46221l6.37729-1.3555
		c2.60474-0.55372,4.28494-2.44445,4.57773-5.7906l1.02905-11.76221l-10.5256,2.23732l0.6109-6.98272l10.52557-2.23732
		l1.05371-12.04443c0.12228-1.39767-0.55444-3.35308-4.52945-2.5082L272.58902,88.50417z M340.62393,53.0108l-7.25476,82.92522
		l-96.19583,20.44739l7.25475-82.92522L340.62393,53.0108z M319.17792,68.16743l-50.84033,10.80665
		c-2.73294,0.57234-4.52393,2.76698-4.79068,5.82107l-4.93945,56.46019l50.84033-10.80672
		c2.52747-0.52284,4.50461-2.55096,4.79068-5.82107L319.17792,68.16743z M278.02728,91.10078l-5.7728,1.22707l-0.69409,7.93385
		l5.7728-1.22706L278.02728,91.10078z M298.7265,117.16621l2.88641-0.61354l0.69409-7.93385l-2.88641,0.61354L298.7265,117.16621z
		 M273.58868,122.50951l2.88635-0.61353l0.69409-7.93385l-2.88635,0.61353L273.58868,122.50951z M269.53873,123.37036
		l2.88635-0.61352l0.69409-7.93385l-2.88635,0.61353L269.53873,123.37036z M305.49222,85.26283l-0.69409,7.93385l2.88641-0.61355
		l0.69412-7.93385L305.49222,85.26283z M300.74817,94.05754l2.88641-0.61354l0.69412-7.93385l-2.88644,0.61354L300.74817,94.05754z
		 M303.04538,113.23134l-0.26892,3.07401l7.44971-1.58351l0.26895-3.07401L303.04538,113.23134z"/>
	<path id="く" class="st10" d="M307.39627,48.76583c-0.4928-0.17969-1.25821-0.46133-1.25787-0.90574
		c0.0004-0.3735,0.34128-0.73033,1.17407-1.56525c3.31888-3.35347,3.69296-3.73552,6.09338-6.45011l-1.81854-0.94658
		c-1.19199,1.4982-1.6507,2.0039-5.08896,5.70335c-1.76974,1.90531-2.6221,2.97512-2.62283,3.84595
		c-0.00092,1.13784,1.22403,1.6244,2.60129,2.16674c2.56622,1.00113,5.01321,2.20561,7.30762,3.67334l1.68521-1.83383
		C313.92386,51.39564,309.89478,49.65687,307.39627,48.76583z"/>
	<path id="ご" class="st10" d="M273.73785,50.8181c0.89771,0.94682,1.48309,2.0136,1.63885,2.30527l-1.20996,1.01485
		c-0.77634-1.40462-1.3284-2.00965-1.6037-2.33033L273.73785,50.8181z M276.29239,52.60395l1.20859-1.01526
		c-0.36215-0.6991-0.93097-1.51661-1.62061-2.20035l-1.20999,0.99718C275.3432,51.12654,275.68869,51.59469,276.29239,52.60395z
		 M271.31335,60.10638c-2.59158,0.55089-5.90744,1.21893-5.90555-1.12799c0.00043-0.37917,0.07175-1.71198,1.52277-3.48214
		l-1.39828-0.78595c-1.26126,1.74813-2.02289,3.04759-2.0242,4.7079c-0.00122,1.42672,0.91315,2.60442,2.10513,2.94621
		c1.46738,0.42806,2.93542,0.27853,6.33698-0.44457c2.67746-0.56913,3.88556-0.98831,4.49026-1.2071l-0.06729-2.00743
		C274.69824,59.31419,273.00507,59.74677,271.31335,60.10638z M268.53955,51.30942l1.2435,1.0174
		c2.00348-1.70755,3.54114-2.79281,5.71823-3.65237l0.00146-1.76908c-1.10532,0.2349-6.56284,1.41259-7.789,1.6732
		c-0.86343,0.18346-3.00504,0.63872-3.52396,0.7314l-0.00165,2.03964c1.10532-0.30695,2.59167-0.65893,6.14948-1.46952
		C269.21359,50.69659,269.09256,50.7951,268.53955,51.30942z"/>
	<path id="天" class="st11" d="M184.78867,136.07047c0.51909-3.71976,0.85825-9.26947,0.85825-9.26947l35.87094-7.62459
		l1.27194-14.53852l-35.87085,7.62459l1.13892-13.01806l35.87085-7.62458l1.26881-14.50278l-96.88841,20.59438l-1.26881,14.50269
		l35.28644-7.50035l-1.13893,13.01805l-35.28643,7.50036l-1.27186,14.53851l35.28627-7.50035l-0.47029,5.37587
		c-1.50618,17.21622-11.38734,23.36949-25.84618,26.4528l-11.30861,2.40369l-1.27473,14.57065l24.62828-5.23486
		c18.91556-4.01189,25.98181-9.9729,34.8082-26.76247c3.86697,1.94312,14.12311,10.07054,18.09427,15.51765l25.47191-5.41431
		C217.31235,150.33977,191.74226,138.07544,184.78867,136.07047z"/>
	<path id="ん" class="st11" d="M199.98706,70.15858c-0.36693,4.01734-1.25969,5.71199-2.63121,6.00358
		c-1.45647,0.30949-1.45358-1.32131-1.45268-1.84065l0.0014-0.77026c0.0023-1.29025-0.06122-4.05242-2.81935-3.4662
		c-1.16496,0.24771-1.83415,0.89153-2.21136,1.25821c0.29332-1.02907,1.87672-6.03989,2.22189-7.18793L190.9382,64.202
		c-0.75934,2.70441-3.17207,11.32998-4.51614,15.84225l1.96881,0.17205c0.12094-0.50907,0.98364-4.11338,1.01863-4.20975
		c0.36176-1.08009,1.34235-3.47286,3.27872-3.88457c1.285-0.27302,1.28294,0.89104,1.28088,2.03759l-0.00107,0.60898
		c-0.00073,0.39462,0.04897,1.45802,0.28641,2.07029c0.37614,0.97648,1.47118,1.63985,2.87613,1.34119
		c3.15161-0.66994,4.18462-3.52223,4.65532-7.84882L199.98706,70.15858z"/>
	<path id="て" class="st11" d="M155.87688,74.71405c0.78546-0.56782,1.80482-1.20374,3.30756-1.52318
		c0.71808-0.15266,1.10284-0.19965,1.45367-0.23942l-0.03049-1.9657c-1.72054,0.43537-9.38721,2.37904-10.82346,2.75403
		c-1.15198,0.2975-2.40601,0.63371-3.55782,0.87846l0.0631,1.97663c2.58972-0.77724,5.17812-1.53706,7.78409-2.248
		c-3.7292,3.16705-4.61801,6.07941-4.62122,7.87749c-0.00288,1.62457,0.97878,3.07397,2.4801,3.55798
		c1.51898,0.49798,3.30516,0.55467,6.89682-0.19167l0.27031-2.13487c-4.81052,1.1795-7.73141,0.858-7.72665-1.79678
		C151.37701,79.30224,153.50293,76.45808,155.87688,74.71405z"/>
</g>
</svg>
