<?xml version="1.0" encoding="UTF-8" standalone="no"?>
<!-- Generator: Adobe Illustrator 25.0.0, SVG Export Plug-In . SVG Version: 6.00 Build 0)  -->

<svg
   version="1.1"
   id="Layer_1"
   x="0px"
   y="0px"
   viewBox="0 0 666.66669 566.85699"
   xml:space="preserve"
   sodipodi:docname="Not Fat.svg"
   width="666.66669"
   height="566.85699"
   inkscape:version="1.2.2 (b0a8486541, 2022-12-01)"
   xmlns:inkscape="http://www.inkscape.org/namespaces/inkscape"
   xmlns:sodipodi="http://sodipodi.sourceforge.net/DTD/sodipodi-0.dtd"
   xmlns:xlink="http://www.w3.org/1999/xlink"
   xmlns="http://www.w3.org/2000/svg"
   xmlns:svg="http://www.w3.org/2000/svg"><defs
   id="defs155614" /><sodipodi:namedview
   id="namedview155612"
   pagecolor="#505050"
   bordercolor="#eeeeee"
   borderopacity="1"
   inkscape:showpageshadow="0"
   inkscape:pageopacity="0"
   inkscape:pagecheckerboard="0"
   inkscape:deskcolor="#505050"
   showgrid="false"
   inkscape:zoom="2.8508073"
   inkscape:cx="249.9292"
   inkscape:cy="212.57136"
   inkscape:window-width="2560"
   inkscape:window-height="1414"
   inkscape:window-x="0"
   inkscape:window-y="0"
   inkscape:window-maximized="1"
   inkscape:current-layer="Layer_1" />
<style
   type="text/css"
   id="style155394">
	.st0{fill:#0096E6;}
	.st1{fill:#FFFFFF;}
	.st2{fill:url(#SVGID_1_);}
	.st3{opacity:0.2;}
	.st4{clip-path:url(#SVGID_3_);}
	.st5{fill:url(#SVGID_4_);}
	.st6{clip-path:url(#SVGID_6_);}
	.st7{fill:url(#SVGID_7_);}
	.st8{clip-path:url(#SVGID_9_);}
	.st9{fill:url(#SVGID_10_);}
	.st10{clip-path:url(#SVGID_12_);}
	.st11{fill:url(#SVGID_13_);}
	.st12{clip-path:url(#SVGID_15_);}
	.st13{fill:url(#SVGID_16_);}
	.st14{clip-path:url(#SVGID_18_);}
	.st15{fill:url(#SVGID_19_);}
	.st16{clip-path:url(#SVGID_21_);}
	.st17{fill:url(#SVGID_22_);}
	.st18{fill:url(#SVGID_23_);}
	.st19{fill:url(#SVGID_24_);}
	.st20{fill:#FF5500;}
	.st21{fill:#FFAA00;}
</style>
<g
   id="Cloud_00000122703240977288030390000009418691447765243804_"
   transform="matrix(1.3333334,0,0,1.3333334,0,-4.0000002e-5)">
	<path
   id="Light_Blue_00000158017485880077908190000016515758339003143097_"
   class="st0"
   d="M 423.95969,90.62759 C 419.15747,39.85703 376.23862,3e-5 324.17685,3e-5 c -37.37448,0 -71.16727,20.91543 -88.34323,52.84885 -10.79736,-3.79673 -22.22461,-5.75994 -33.82814,-5.75994 -18.12303,0 -35.97772,4.8937 -51.47849,13.96252 -14.40546,-7.81803 -30.46255,-11.89995 -47.11417,-11.89995 -54.72392,0 -99.245,44.59014 -99.245,99.39827 0,37.66025 21.10968,71.35365 53.35804,88.17313 -2.42692,7.6541 -3.67435,15.66524 -3.67435,23.81224 0,44.37512 36.96354,80.47635 82.39746,80.47635 27.52533,0 52.1516,-13.09067 67.16673,-33.72763 18.30157,16.94635 42.54834,26.72141 68.46808,26.72141 41.88922,0 78.82809,-25.89053 93.76575,-63.65353 2.46341,0.18527 4.93243,0.27847 7.40372,0.27847 54.04126,0 98.00656,-43.54427 98.00656,-97.06792 0,-34.08975 -18.1466,-65.47693 -47.10012,-82.93471 z" />
	<path
   id="White_00000023265767759718524010000007989588149201484986_"
   class="st1"
   d="M 413.29761,97.33685 C 411.81888,49.517 372.40879,11.06631 324.17685,11.06631 c -36.65701,0 -69.44153,22.61422 -82.81065,56.04264 -12.21208,-5.87951 -25.64633,-8.95373 -39.36072,-8.95373 -18.5918,0 -36.20229,5.4624 -51.28143,15.855 -14.13936,-9.04075 -30.37891,-13.79242 -47.31123,-13.79242 -48.62209,0 -88.17873,39.62569 -88.17873,88.33199 0,36.87933 22.76748,69.4752 56.45808,82.44574 -4.45301,9.19232 -6.77438,19.24246 -6.77438,29.53963 0,38.27274 31.99911,69.4101 71.33119,69.4101 28.83057,0 53.98007,-16.51859 65.17097,-41.09433 16.82283,21.35782 42.55394,34.08807 70.46384,34.08807 40.1882,0 75.25534,-26.7551 86.20709,-64.65955 4.94031,0.85333 9.94797,1.28448 14.96237,1.28448 47.93887,0 86.94028,-38.58037 86.94028,-86.00163 0,-32.08275 -18.16568,-61.46855 -46.69592,-76.22545 z" />
	<path
   id="Black_00000127003813349280224450000001235054226271293089_"
   d="m 405.52673,102.20852 c 0.0177,-0.69662 0.0529,-1.3889 0.0529,-2.08974 0,-44.8961 -36.44522,-81.2915 -81.4028,-81.2915 -37.40704,0 -68.89922,25.20598 -78.4295,59.53145 -12.66183,-7.86995 -27.65445,-12.44296 -43.74193,-12.44296 -19.33952,0 -37.10179,6.59874 -51.12221,17.60978 -13.30583,-9.76733 -29.71114,-15.54678 -47.47011,-15.54678 -44.41378,0 -80.41825,36.07289 -80.41825,80.5711 0,37.50781 25.58191,69.02715 60.21755,78.00522 -6.65116,9.74362 -10.53379,21.41992 -10.53379,33.98007 0,34.04807 28.46153,61.64948 63.57056,61.64948 31.53596,0 57.69414,-22.27411 62.69466,-51.48172 13.59418,26.4007 41.14252,44.47491 72.94029,44.47491 39.89529,0 73.11832,-28.43796 80.45102,-66.09926 6.60599,1.76567 13.54752,2.72433 20.71866,2.72433 43.72925,0 79.17883,-35.02954 79.17883,-78.24068 10e-6,-31.77194 -19.17636,-59.10036 -46.7059,-71.3537 z" />
	<rect
   x="394.23721"
   y="247.16812"
   width="4.7941899"
   height="4.79425"
   id="rect155399" />
</g>
<g
   id="Megamix_00000106104928807225099170000011756329890572531349_"
   transform="matrix(1.3333334,0,0,1.3333334,0,-4.0000002e-5)">
	<g
   id="X_00000086658258889094988390000004016246198062688902_">
		<path
   d="m 500,211.98225 -72.09784,16.65976 v 87.79256 L 500,299.78946 V 282.9548 c 0,-8.34409 -9.8e-4,-17.65695 -8.13113,-26.19785 C 497.65073,248.27464 500,239.06975 500,226.01442 Z"
   id="path155402" />
		
			<linearGradient
   id="SVGID_1_"
   gradientUnits="userSpaceOnUse"
   x1="444.58765"
   y1="4615.457"
   x2="503.70059"
   y2="4615.2686"
   gradientTransform="matrix(1,0.00319,-0.0035,1,5.96096,-4352.666)">
			<stop
   offset="0"
   style="stop-color:#FF8C3C"
   id="stop155404" />
			<stop
   offset="0.75"
   style="stop-color:#FF5A00"
   id="stop155406" />
		</linearGradient>
		<path
   class="st2"
   d="m 434.40405,308.43155 -3e-5,-10.32944 c -0.0276,-8.97043 -0.0147,-17.76404 10.46057,-30.65771 -7.67319,-5.07626 -10.46054,-12.26434 -10.46054,-26.28584 v -7.51834 l 22.63309,-5.23727 3e-5,16.65895 c 0,3.87448 2.4108,6.70142 6.91284,5.66203 4.50204,-1.03937 6.9129,-4.97948 6.9129,-8.85396 l 0.003,-16.65955 22.63315,-5.22527 v 7.53033 c 0,14.02151 -2.78775,22.49672 -10.46097,31.11598 10.46155,8.04626 10.46094,16.8508 10.46094,25.82761 v 10.32944 l -22.63315,5.22528 3e-5,-17.57635 c 0,-6.26755 -2.41339,-9.03476 -6.91544,-7.99536 -4.50204,1.03937 -6.91287,4.92035 -6.91287,11.18787 l 3e-5,17.57635 z"
   id="path155409"
   style="fill:url(#SVGID_1_)" />
		<g
   class="st3"
   id="g155421">
			<defs
   id="defs155412">
				<path
   id="SVGID_2_"
   class="st3"
   d="m 434.40405,308.43155 -3e-5,-10.32944 c -0.0276,-8.97043 -0.0147,-17.76404 10.46057,-30.65771 -7.67319,-5.07626 -10.46054,-12.26434 -10.46054,-26.28584 v -7.51834 l 22.63309,-5.23727 3e-5,16.65895 c 0,3.87448 2.4108,6.70142 6.91284,5.66203 4.50204,-1.03937 6.9129,-4.97948 6.9129,-8.85396 l 0.003,-16.65955 22.63315,-5.22527 v 7.53033 c 0,14.02151 -2.78775,22.49672 -10.46097,31.11598 10.46155,8.04626 10.46094,16.8508 10.46094,25.82761 v 10.32944 l -22.63315,5.22528 3e-5,-17.57635 c 0,-6.26755 -2.41339,-9.03476 -6.91544,-7.99536 -4.50204,1.03937 -6.91287,4.92035 -6.91287,11.18787 l 3e-5,17.57635 z" />
			</defs>
			<clipPath
   id="SVGID_3_">
				<use
   xlink:href="#SVGID_2_"
   style="overflow:visible"
   id="use155414" />
			</clipPath>
			<g
   class="st4"
   clip-path="url(#SVGID_3_)"
   id="g155419">
				<polygon
   class="st1"
   points="578.28992,258.18808 78.89845,560.3031 50.05502,505.41296 549.47412,203.27036 "
   id="polygon155417" />
			</g>
		</g>
	</g>
	<g
   id="I_00000110456001608755106790000002269719925448085636_">
		<polygon
   points="432.92892,219.83585 397.26486,228.06953 397.26486,315.88065 432.92892,307.64697 "
   id="polygon155424" />
		
			<linearGradient
   id="SVGID_4_"
   gradientUnits="userSpaceOnUse"
   x1="1411.0635"
   y1="4219.4844"
   x2="1450.2363"
   y2="4210.7593"
   gradientTransform="matrix(0.9523,0.0031,-0.2099,1.04947,-65.86328,-4159.4424)">
			<stop
   offset="0"
   style="stop-color:#AA37BE"
   id="stop155426" />
			<stop
   offset="1"
   style="stop-color:#5F14A5"
   id="stop155428" />
		</linearGradient>
		<path
   class="st5"
   d="m 403.76651,233.07016 22.66074,-5.23164 v 74.8076 l -22.66074,5.23163 z"
   id="path155431"
   style="fill:url(#SVGID_4_)" />
		<g
   class="st3"
   id="g155443">
			<defs
   id="defs155434">
				<path
   id="SVGID_5_"
   class="st3"
   d="m 403.76651,233.07016 22.66074,-5.23164 v 74.8076 l -22.66074,5.23163 z" />
			</defs>
			<clipPath
   id="SVGID_6_">
				<use
   xlink:href="#SVGID_5_"
   style="overflow:visible"
   id="use155436" />
			</clipPath>
			<g
   class="st6"
   clip-path="url(#SVGID_6_)"
   id="g155441">
				<polygon
   class="st1"
   points="578.28992,258.18808 78.89845,560.3031 50.05502,505.41296 549.47412,203.27036 "
   id="polygon155439" />
			</g>
		</g>
	</g>
	<g
   id="M_00000012467527633565478900000006767654119687667110_">
		<path
   d="m 393.86356,246.27264 c -6.80948,-6.2572 -16.05615,-8.26126 -26.73779,-5.79521 -5.83264,1.34657 -10.86917,3.6747 -15.88519,7.39204 -5.01505,-1.40149 -10.05157,-1.40407 -15.88422,-0.0575 -10.68262,2.46628 -19.92831,8.73962 -26.73877,18.14124 -6.94525,9.58902 -9.40686,18.33926 -9.40686,33.43811 v 46.41797 L 403.27139,321.785 v -46.41797 c 0,-15.09982 -2.46161,-22.71345 -9.40783,-29.09439 z"
   id="path155446" />
		
			<linearGradient
   id="SVGID_7_"
   gradientUnits="userSpaceOnUse"
   x1="305.71747"
   y1="310.68295"
   x2="396.9147"
   y2="310.68289"
   gradientTransform="matrix(1,-0.23087,0,1,0,59.37336)">
			<stop
   offset="0"
   style="stop-color:#FFFF00"
   id="stop155448" />
			<stop
   offset="0.75"
   style="stop-color:#FFBE00"
   id="stop155450" />
		</linearGradient>
		<path
   class="st7"
   d="m 388.95816,251.67184 c -5.55569,-5.1046 -13.05301,-6.71948 -21.83261,-4.69255 -5.8956,1.36111 -10.64038,3.82567 -15.88461,8.38161 -5.24423,-2.13448 -9.96078,-2.41473 -15.88458,-1.0471 -8.75354,2.02092 -16.27692,7.10359 -21.8327,14.77348 -5.8432,8.06671 -7.81116,15.25647 -7.81116,28.80347 v 39.9155 l 22.74341,-5.2507 v -44.23819 c 0,-6.66653 2.14868,-9.45572 5.65836,-10.26599 3.50968,-0.81027 5.75497,0.96448 5.75497,7.63098 v 44.23822 l 22.74341,-5.25073 v -44.23822 c 0,-6.6665 2.24533,-9.478 5.75494,-10.28824 3.50974,-0.8103 5.65839,0.98676 5.65839,7.65329 v 44.23819 l 22.74341,-5.25073 V 276.8686 c -10e-6,-13.54698 -1.96794,-19.82807 -7.81123,-25.19676 z"
   id="path155453"
   style="fill:url(#SVGID_7_)" />
		<g
   class="st3"
   id="g155467">
			<defs
   id="defs155456">
				<path
   id="SVGID_8_"
   class="st3"
   d="m 388.95816,251.67184 c -5.55569,-5.1046 -13.05301,-6.71948 -21.83261,-4.69255 -5.8956,1.36111 -10.64038,3.82567 -15.88461,8.38161 -5.24423,-2.13448 -9.96078,-2.41473 -15.88458,-1.0471 -8.75354,2.02092 -16.27692,7.10359 -21.8327,14.77348 -5.8432,8.06671 -7.81116,15.25647 -7.81116,28.80347 v 39.9155 l 22.74341,-5.2507 v -44.23819 c 0,-6.66653 2.14868,-9.45572 5.65836,-10.26599 3.50968,-0.81027 5.75497,0.96448 5.75497,7.63098 v 44.23822 l 22.74341,-5.25073 v -44.23822 c 0,-6.6665 2.24533,-9.478 5.75494,-10.28824 3.50974,-0.8103 5.65839,0.98676 5.65839,7.65329 v 44.23819 l 22.74341,-5.25073 V 276.8686 c -10e-6,-13.54698 -1.96794,-19.82807 -7.81123,-25.19676 z" />
			</defs>
			<clipPath
   id="SVGID_9_">
				<use
   xlink:href="#SVGID_8_"
   style="overflow:visible"
   id="use155458" />
			</clipPath>
			<g
   class="st8"
   clip-path="url(#SVGID_9_)"
   id="g155465">
				<polygon
   class="st1"
   points="494.06555,173.53561 -4.78429,477.38602 -34.86943,415.40848 463.98041,111.55808 "
   id="polygon155461" />
				<polygon
   class="st1"
   points="578.28992,258.18808 78.89845,560.3031 50.05502,505.41296 549.47412,203.27036 "
   id="polygon155463" />
			</g>
		</g>
	</g>
	<g
   id="A_00000096017154671532898690000006217220080438480810_">
		<path
   d="m 296.68658,263.11536 c -6.49884,-7.20708 -17.38168,-10.10425 -28.40131,-7.56017 -11.00595,2.54091 -21.88098,10.46031 -28.3813,20.6685 -5.58942,8.77585 -7.66762,16.78604 -7.66762,29.55515 v 47.72791 l 72.09784,-16.64511 v -47.72791 c 1e-5,-12.78473 -2.07284,-19.83655 -7.64761,-26.01837 z"
   id="path155470" />
		
			<linearGradient
   id="SVGID_10_"
   gradientUnits="userSpaceOnUse"
   x1="238.73795"
   y1="302.93481"
   x2="297.83249"
   y2="302.93481"
   gradientTransform="matrix(1,-0.23087,0,1,0,59.37336)">
			<stop
   offset="0"
   style="stop-color:#6EE6FF"
   id="stop155472" />
			<stop
   offset="0.85"
   style="stop-color:#00A0FF"
   id="stop155474" />
		</linearGradient>
		<path
   class="st9"
   d="m 291.47601,268.20691 c -5.3465,-5.92834 -14.22034,-8.2211 -23.1908,-6.15012 -8.97043,2.07098 -17.83093,8.46802 -23.17139,16.85361 -4.68053,7.34949 -6.37589,14.0213 -6.37589,25.36768 V 345.504 l 22.60556,-5.2189 v -16.41714 l 13.88342,-3.18484 v 16.39676 l 22.60556,-5.2189 v -41.22592 c 2e-5,-11.34639 -1.6837,-17.24688 -6.35646,-22.42815 z m -15.68502,34.28183 -7.50577,-2.39987 -7.50577,5.86557 1.40717,-9.13089 -6.04602,-4.85599 8.37546,-3.24332 3.76917,-8.86676 3.76917,7.1264 8.37546,-0.62393 -6.04605,7.64767 z"
   id="path155477"
   style="fill:url(#SVGID_10_)" />
		<g
   class="st3"
   id="g155489">
			<defs
   id="defs155480">
				<path
   id="SVGID_11_"
   class="st3"
   d="m 291.47601,268.20691 c -5.3465,-5.92834 -14.22034,-8.2211 -23.1908,-6.15012 -8.97043,2.07098 -17.83093,8.46802 -23.17139,16.85361 -4.68053,7.34949 -6.37589,14.0213 -6.37589,25.36768 V 345.504 l 22.60556,-5.2189 v -16.41714 l 13.88342,-3.18484 v 16.39676 l 22.60556,-5.2189 v -41.22592 c 2e-5,-11.34639 -1.6837,-17.24688 -6.35646,-22.42815 z m -15.68502,34.28183 -7.50577,-2.39987 -7.50577,5.86557 1.40717,-9.13089 -6.04602,-4.85599 8.37546,-3.24332 3.76917,-8.86676 3.76917,7.1264 8.37546,-0.62393 -6.04605,7.64767 z" />
			</defs>
			<clipPath
   id="SVGID_12_">
				<use
   xlink:href="#SVGID_11_"
   style="overflow:visible"
   id="use155482" />
			</clipPath>
			<g
   class="st10"
   clip-path="url(#SVGID_12_)"
   id="g155487">
				<polygon
   class="st1"
   points="494.06555,173.53561 -4.78429,477.38602 -34.86943,415.40848 463.98041,111.55808 "
   id="polygon155485" />
			</g>
		</g>
	</g>
	<g
   id="G_00000072259711136487289110000006566737849794008758_">
		<path
   d="m 233.17166,273.0257 c -7.46394,0.22668 -12.62796,0.86209 -19.05403,2.34567 -14.5743,3.36475 -25.87378,10.39554 -34.54411,21.49542 -7.91183,10.12866 -12.4492,22.94211 -12.4492,35.15445 0,12.72418 4.81821,23.40701 13.5667,30.08203 8.80661,6.72021 18.69603,8.17148 33.06764,4.85352 6.2854,-1.45108 10.98541,-3.04315 19.34219,-6.55298 l 5.29393,-2.22345 V 272.867 Z"
   id="path155492" />
		
			<linearGradient
   id="SVGID_13_"
   gradientUnits="userSpaceOnUse"
   x1="1193.7004"
   y1="4274.7568"
   x2="1252.101"
   y2="4261.749"
   gradientTransform="matrix(0.9523,0.0031,-0.2099,1.04947,-65.86328,-4159.4429)">
			<stop
   offset="0"
   style="stop-color:#FF8232"
   id="stop155494" />
			<stop
   offset="0.75"
   style="stop-color:#C80000"
   id="stop155496" />
		</linearGradient>
		<path
   class="st11"
   d="m 231.89276,354.29388 c -7.56277,3.17651 -12.0517,4.75653 -18.13406,6.16077 -12.70461,2.93307 -20.94807,1.72961 -28.4846,-4.0209 -7.50639,-5.72751 -11.64778,-14.89902 -11.64778,-25.91403 0,-10.54373 3.81454,-21.49866 10.65413,-30.25443 7.45844,-9.54803 16.94347,-15.4151 29.83707,-18.39182 5.65742,-1.30612 10.4057,-1.95444 17.77525,-2.17755 v 23.43991 c -6.92793,0.14017 -11.25089,0.66891 -16.56081,1.89481 -12.36542,2.85477 -19.37616,10.22073 -19.37616,20.37585 0,8.53525 5.24429,13.49545 13.33148,12.74765 v -22.30826 l 22.60548,-5.2189 z"
   id="path155499"
   style="fill:url(#SVGID_13_)" />
		<g
   class="st3"
   id="g155511">
			<defs
   id="defs155502">
				<path
   id="SVGID_14_"
   class="st3"
   d="m 231.89276,354.29388 c -7.56277,3.17651 -12.0517,4.75653 -18.13406,6.16077 -12.70461,2.93307 -20.94807,1.72961 -28.4846,-4.0209 -7.50639,-5.72751 -11.64778,-14.89902 -11.64778,-25.91403 0,-10.54373 3.81454,-21.49866 10.65413,-30.25443 7.45844,-9.54803 16.94347,-15.4151 29.83707,-18.39182 5.65742,-1.30612 10.4057,-1.95444 17.77525,-2.17755 v 23.43991 c -6.92793,0.14017 -11.25089,0.66891 -16.56081,1.89481 -12.36542,2.85477 -19.37616,10.22073 -19.37616,20.37585 0,8.53525 5.24429,13.49545 13.33148,12.74765 v -22.30826 l 22.60548,-5.2189 z" />
			</defs>
			<clipPath
   id="SVGID_15_">
				<use
   xlink:href="#SVGID_14_"
   style="overflow:visible"
   id="use155504" />
			</clipPath>
			<g
   class="st12"
   clip-path="url(#SVGID_15_)"
   id="g155509">
				<polygon
   class="st1"
   points="494.06555,173.53561 -4.78429,477.38602 -34.86943,415.40848 463.98041,111.55808 "
   id="polygon155507" />
			</g>
		</g>
	</g>
	<g
   id="E_00000078003450398959639130000011775615813855833526_">
		<path
   d="m 144.96738,285.4906 c -9.51628,2.14621 -16.65739,5.80615 -21.85754,11.12405 -6.56625,6.71463 -10.33241,15.6918 -10.33241,24.63077 0,6.25171 1.65084,10.66486 5.31884,13.72827 -4.12711,5.33881 -6.03632,11.27032 -6.03632,18.37286 0,8.80417 3.07457,15.38638 8.89159,19.03696 6.29909,3.95248 12.97572,3.49731 21.70612,1.48175 l 30.26659,-6.98761 v -87.8414 z"
   id="path155514" />
		
			<linearGradient
   id="SVGID_16_"
   gradientUnits="userSpaceOnUse"
   x1="1136.938"
   y1="4279.7314"
   x2="1184.9574"
   y2="4269.0356"
   gradientTransform="matrix(0.9523,0.0031,-0.2099,1.04947,-65.86328,-4159.4424)">
			<stop
   offset="0"
   style="stop-color:#C8F000"
   id="stop155516" />
			<stop
   offset="0.8"
   style="stop-color:#14B400"
   id="stop155518" />
		</linearGradient>
		<path
   class="st13"
   d="m 142.65759,367.36362 c -8.86003,2.04529 -13.25746,1.75266 -17.47166,-0.89182 -4.39948,-2.76074 -6.62433,-7.78149 -6.62433,-14.62665 0,-8.2804 2.87054,-13.6636 10.43331,-19.43466 -7.14875,-2.06787 -9.71568,-5.4068 -9.71568,-12.66595 0,-7.06595 2.88457,-13.86987 7.86639,-18.9646 3.93051,-4.01959 9.79848,-6.95856 17.80287,-8.78278 l 21.47386,-4.95764 v 21.08688 l -15.07033,3.47925 c -5.9619,1.37643 -7.78362,2.772 -7.78362,6.02896 0,3.25693 1.82172,3.81137 7.78362,2.43497 l 15.07033,-3.47928 -2e-5,15.80853 -15.07031,3.47925 c -5.9619,1.37643 -6.56915,4.17307 -6.56915,5.74634 0,1.68369 0.60725,4.12491 6.56915,2.7485 l 15.07033,-3.47925 v 20.9834 z"
   id="path155521"
   style="fill:url(#SVGID_16_)" />
		<g
   class="st3"
   id="g155533">
			<defs
   id="defs155524">
				<path
   id="SVGID_17_"
   class="st3"
   d="m 142.65759,367.36362 c -8.86003,2.04529 -13.25746,1.75266 -17.47166,-0.89182 -4.39948,-2.76074 -6.62433,-7.78149 -6.62433,-14.62665 0,-8.2804 2.87054,-13.6636 10.43331,-19.43466 -7.14875,-2.06787 -9.71568,-5.4068 -9.71568,-12.66595 0,-7.06595 2.88457,-13.86987 7.86639,-18.9646 3.93051,-4.01959 9.79848,-6.95856 17.80287,-8.78278 l 21.47386,-4.95764 v 21.08688 l -15.07033,3.47925 c -5.9619,1.37643 -7.78362,2.772 -7.78362,6.02896 0,3.25693 1.82172,3.81137 7.78362,2.43497 l 15.07033,-3.47928 -2e-5,15.80853 -15.07031,3.47925 c -5.9619,1.37643 -6.56915,4.17307 -6.56915,5.74634 0,1.68369 0.60725,4.12491 6.56915,2.7485 l 15.07033,-3.47925 v 20.9834 z" />
			</defs>
			<clipPath
   id="SVGID_18_">
				<use
   xlink:href="#SVGID_17_"
   style="overflow:visible"
   id="use155526" />
			</clipPath>
			<g
   class="st14"
   clip-path="url(#SVGID_18_)"
   id="g155531">
				<polygon
   class="st1"
   points="494.06555,173.53561 -4.78429,477.38602 -34.86943,415.40848 463.98041,111.55808 "
   id="polygon155529" />
			</g>
		</g>
	</g>
	<g
   id="M_00000128444486173018280470000003670912814012902803_">
		<path
   d="m 109.05912,310.95236 c -6.80997,-6.25708 -16.05566,-8.26135 -26.73827,-5.7951 -5.83363,1.3468 -10.87016,3.67496 -15.88422,7.39182 -5.01455,-1.40158 -10.05157,-1.40405 -15.88471,-0.0574 -10.68261,2.46628 -19.9283,8.73965 -26.73827,18.14114 -6.94575,9.58817 -9.40736,18.33838 -9.40736,33.43823 v 46.41696 l 104.0602,-24.02417 v -46.41699 c -10e-6,-15.09983 -2.46162,-22.71344 -9.40737,-29.09452 z"
   id="path155536" />
		
			<linearGradient
   id="SVGID_19_"
   gradientUnits="userSpaceOnUse"
   x1="12.60427"
   y1="309.61023"
   x2="114.19212"
   y2="309.61017"
   gradientTransform="matrix(1,-0.23087,0,1,0,59.37336)">
			<stop
   offset="0"
   style="stop-color:#FFFF00"
   id="stop155538" />
			<stop
   offset="0.75"
   style="stop-color:#FFBE00"
   id="stop155540" />
		</linearGradient>
		<path
   class="st15"
   d="m 104.15366,316.35126 c -5.55572,-5.10461 -13.05301,-6.71948 -21.83263,-4.69257 -5.89559,1.36111 -10.64036,3.82568 -15.88459,8.38162 -5.24423,-2.13449 -9.96079,-2.41473 -15.88459,-1.04712 -8.75356,2.0209 -16.27691,7.10358 -21.83269,14.77347 -5.84321,8.06674 -7.81116,15.2565 -7.81116,28.80347 v 39.91553 l 22.74339,-5.25073 v -44.23819 c 0,-6.6665 2.14867,-9.45569 5.65836,-10.26596 3.50968,-0.81027 5.75496,0.96448 5.75496,7.63098 v 44.23822 l 22.74343,-5.25076 v -44.23819 c 0,-6.6665 2.24531,-9.478 5.75493,-10.28827 3.50974,-0.81027 5.65838,0.98679 5.65838,7.65329 v 44.23822 l 22.74343,-5.25073 V 341.548 c 0,-13.54696 -1.96795,-19.82806 -7.81122,-25.19674 z"
   id="path155543"
   style="fill:url(#SVGID_19_)" />
		<g
   class="st3"
   id="g155555">
			<defs
   id="defs155546">
				<path
   id="SVGID_20_"
   class="st3"
   d="m 104.15366,316.35126 c -5.55572,-5.10461 -13.05301,-6.71948 -21.83263,-4.69257 -5.89559,1.36111 -10.64036,3.82568 -15.88459,8.38162 -5.24423,-2.13449 -9.96079,-2.41473 -15.88459,-1.04712 -8.75356,2.0209 -16.27691,7.10358 -21.83269,14.77347 -5.84321,8.06674 -7.81116,15.2565 -7.81116,28.80347 v 39.91553 l 22.74339,-5.25073 v -44.23819 c 0,-6.6665 2.14867,-9.45569 5.65836,-10.26596 3.50968,-0.81027 5.75496,0.96448 5.75496,7.63098 v 44.23822 l 22.74343,-5.25076 v -44.23819 c 0,-6.6665 2.24531,-9.478 5.75493,-10.28827 3.50974,-0.81027 5.65838,0.98679 5.65838,7.65329 v 44.23822 l 22.74343,-5.25073 V 341.548 c 0,-13.54696 -1.96795,-19.82806 -7.81122,-25.19674 z" />
			</defs>
			<clipPath
   id="SVGID_21_">
				<use
   xlink:href="#SVGID_20_"
   style="overflow:visible"
   id="use155548" />
			</clipPath>
			<g
   class="st16"
   clip-path="url(#SVGID_21_)"
   id="g155553">
				<polygon
   class="st1"
   points="494.06555,173.53561 -4.78429,477.38602 -34.86943,415.40848 463.98041,111.55808 "
   id="polygon155551" />
			</g>
		</g>
	</g>
	<g
   id="_x2605__00000055669354295850239440000000225889814098885275_">
		<polygon
   points="424.09253,297.77982 409.39319,300.51398 420.50659,310.48935 418.59689,325.23752 431.48322,317.81461 444.96249,324.27045 441.86203,309.64145 452.11093,298.77423 437.27875,297.22888 430.13617,284.08563 "
   id="polygon155558" />
		
			<radialGradient
   id="SVGID_22_"
   cx="499.37759"
   cy="668.92572"
   r="24.922501"
   gradientTransform="matrix(0.45,0,0,0.45,206.17873,4.54977)"
   gradientUnits="userSpaceOnUse">
			<stop
   offset="0"
   style="stop-color:#FAFFC8"
   id="stop155560" />
			<stop
   offset="0.45"
   style="stop-color:#C8FF00"
   id="stop155562" />
			<stop
   offset="1"
   style="stop-color:#00A000"
   id="stop155564" />
		</radialGradient>
		<polygon
   class="st17"
   points="427.3381,301.88162 419.47168,303.34442 425.40607,308.67145 424.38477,316.56558 431.2851,312.59085 438.48898,316.04102 436.83301,308.2298 442.32559,302.40594 434.3764,301.57794 430.56738,294.56714 "
   id="polygon155567"
   style="fill:url(#SVGID_22_)" />
	</g>
	<g
   id="_x2605__00000151542417986511424430000005911961844926333828_">
		<polygon
   points="194.4267,260.97775 193.48552,274.03894 182.20265,280.72534 194.35442,285.62805 197.17451,298.4216 205.63582,288.39346 218.67943,289.65063 211.7283,278.51672 216.94995,266.50858 204.24237,269.64615 "
   id="polygon155570" />
		
			<radialGradient
   id="SVGID_23_"
   cx="-11.24759"
   cy="611.01477"
   r="21.70192"
   gradientTransform="matrix(0.45,0,0,0.45,206.17873,4.54977)"
   gradientUnits="userSpaceOnUse">
			<stop
   offset="0"
   style="stop-color:#FFFFA0"
   id="stop155572" />
			<stop
   offset="0.55"
   style="stop-color:#FFFF00"
   id="stop155574" />
			<stop
   offset="1"
   style="stop-color:#FFC800"
   id="stop155576" />
		</radialGradient>
		<polygon
   class="st18"
   points="197.9431,269.58789 197.44626,276.48822 191.48442,280.02127 197.9155,282.61584 199.40602,289.3782 203.87746,284.07867 210.75018,284.74121 207.07927,278.86203 209.83929,272.51373 203.13214,274.16971 "
   id="polygon155579"
   style="fill:url(#SVGID_23_)" />
	</g>
	<g
   id="_x2605__00000165235180282004194370000009724183725231266710_">
		<polygon
   points="8.47497,385.94943 10.47454,400.04507 0,409.74011 14.05316,412.17145 19.95272,425.14276 26.68015,412.51822 40.84613,410.85663 30.89712,400.61554 33.6762,386.62149 20.89487,392.91519 "
   id="polygon155582" />
		
			<radialGradient
   id="SVGID_24_"
   cx="-412.63272"
   cy="889.27661"
   r="25.18399"
   gradientTransform="matrix(0.45,0,0,0.45,206.17873,4.54977)"
   gradientUnits="userSpaceOnUse">
			<stop
   offset="0"
   style="stop-color:#D9FFFF"
   id="stop155584" />
			<stop
   offset="0.42"
   style="stop-color:#96D2FF"
   id="stop155586" />
			<stop
   offset="1"
   style="stop-color:#00AAFF"
   id="stop155588" />
		</radialGradient>
		<polygon
   class="st19"
   points="13.7316,393.62851 14.86325,401.60532 8.92901,407.09796 16.9058,408.47803 20.24546,415.82001 24.05461,408.6712 32.05899,407.73279 26.4283,401.93652 28.00149,394.01492 20.77002,397.57553 "
   id="polygon155591"
   style="fill:url(#SVGID_24_)" />
	</g>
</g>
<g
   id="Rhythm_Paradise_x2122__1_"
   transform="matrix(1.3333334,0,0,1.3333334,0,-4.0000002e-5)">
	<path
   id="_x2122__2_"
   class="st20"
   d="m 409.59802,215.20645 v -6.68332 l -2.80975,0.64868 v -1.44086 l 7.43195,-1.71579 v 1.44086 l -2.7085,0.62531 v 6.68332 z m 12.61099,-2.91147 v -6.78658 l -1.70609,7.18045 -1.84787,0.42662 -1.66562,-6.40204 v 6.78658 l -1.74661,0.40323 v -8.12418 l 2.72876,-0.62999 1.64536,6.06412 0.0203,-0.005 1.60483,-6.81447 2.69333,-0.62181 v 8.12419 z" />
	<path
   id="E_1_"
   class="st20"
   d="m 398.54395,167.10486 c 3.93027,-1.48071 12.15649,-3.69261 19.06653,-5.19162 V 140.5231 l -34.53201,7.97235 v 57.17065 l 34.53201,-7.97234 v -9.52414 c -4.53363,1.18823 -13.92984,2.9558 -18.04294,3.6505 -5.00882,0.84082 -5.7218,-5.53905 -0.1828,-7.3671 3.18088,-1.04196 9.01227,-2.43123 13.56418,-3.71089 v -7.33382 c -4.14957,0.84085 -9.76184,1.81308 -14.1857,2.43463 -5.48414,0.78604 -6.43473,-6.39818 -0.21927,-8.73808 z" />
	<path
   id="S_2_"
   class="st20"
   d="m 366.48569,206.49901 c -0.20242,-1.89977 -3.48813,-2.32988 -8.60611,-3.55678 -8.94833,-2.22221 -14.48718,-7.49355 -13.92136,-16.75456 0.60214,-9.99611 5.66299,-16.96767 32.4469,-21.51608 l 3e-5,20.79384 c -9.66507,1.20877 -15.00107,3.01683 -17.26422,4.86813 -2.41367,1.95871 -2.27292,5.16631 1.21097,6.32986 1.51358,0.50551 5.98849,2.00008 8.69281,2.90698 5.18985,1.72963 7.72891,4.38219 8.25836,9.0769 1.49487,13.24406 -22.47565,16.71733 -32.3587,18.16847 v -11.76726 c 11.83993,-2.38564 21.9981,-4.47646 21.54132,-8.5495 z" />
	<polygon
   id="I_1_"
   class="st20"
   points="337.90741,206.99706 325.01978,209.97238 325.01981,159.00645 337.90741,156.03111 " />
	<path
   id="D_2_"
   class="st20"
   d="m 280.39691,174.83723 v 55.5909 c 26.87244,-3.93027 38.5719,-14.31351 38.27936,-34.95213 -0.25583,-17.89664 -18.02457,-27.73152 -38.27936,-20.63877 z m 13.82007,43.63552 c -3.54697,0.82069 -5.08185,-0.36566 -5.08182,-4.51527 v -13.08885 c 0,-3.0163 -0.15607,-5.42567 2.70547,-6.23361 6.21542,-1.75496 13.16193,1.57216 13.82004,8.33592 0.76764,7.8606 -3.60519,13.69218 -11.44369,15.50181 z" />
	<path
   id="A_4_"
   class="st20"
   d="m 268.28754,202.71233 c -3.40018,-11.15108 -6.1525,-13.90308 -12.9243,-12.33937 -5.97002,1.37794 -9.36385,4.48599 -12.21136,15.39214 -2.79697,10.71234 -5.88914,26.02177 -8.37531,43.35168 l 9.85588,-2.27541 c 0.18283,-1.37103 0.5119,-2.97974 0.98721,-5.42934 0.51184,-2.46783 1.84627,-4.23233 4.49698,-4.84428 l 7.67783,-1.77257 c 2.05243,-0.47383 3.9303,1.15109 4.58838,3.89313 0.43872,1.82806 1.0054,4.42097 1.35272,6.15765 l 13.05234,-3.01337 c -1.59043,-12.77806 -5.11851,-28.04231 -8.50037,-39.12026 z m -11.37055,24.36782 -6.48956,1.49823 c -1.63097,0.37654 -2.55928,-0.63904 -2.35815,-2.90585 0.18277,-2.1205 1.13339,-6.61748 1.49899,-8.15303 0.76779,-3.18083 2.37648,-4.7347 4.22281,-5.00888 2.97971,-0.4753 4.42386,1.70009 5.5755,7.18428 0.10971,0.51186 0.42047,1.62692 0.54843,3.12595 0.25592,3.05284 -0.69303,3.72718 -2.99802,4.2593 z" />
	<path
   id="R_3_"
   class="st20"
   d="m 233.03229,206.12076 c 5e-5,-17.69791 -17.31773,-22.83681 -38.49884,-15.26955 v 55.67853 l 9.02679,-2.084 5e-5,-12.85141 c 0,-2.18312 1.60667,-1.8029 3.09068,-0.47833 1.0425,0.93213 7.30974,7.00311 11.6882,11.36935 l 13.78043,-3.18146 c 0,0 -12.01427,-12.27199 -13.40019,-13.48616 8.07016,-3.01709 14.31285,-10.87967 14.31288,-19.69697 z m -24.24724,16.64305 c -3.34824,0.78491 -5.21246,-1.07928 -5.21246,-5.06531 l 2e-5,-3.85109 c -1.7e-4,-2.77763 0.53964,-5.18794 3.01711,-5.97285 7.19324,-2.27896 12.20334,0.82173 12.20334,5.69078 -3e-5,4.5502 -3.48318,7.66539 -10.00801,9.19847 z" />
	<path
   id="A_3_"
   class="st20"
   d="m 184.68031,228.52673 c -3.40016,-11.15108 -6.15248,-13.90306 -12.9243,-12.33936 -5.97,1.37794 -9.36383,4.48598 -12.21135,15.39212 -2.79697,10.71234 -5.88914,26.02179 -8.37531,43.35168 l 9.85588,-2.27539 c 0.18283,-1.37103 0.51189,-2.97974 0.9872,-5.42935 0.51184,-2.46783 1.84628,-4.23233 4.49699,-4.84427 l 7.67781,-1.77258 c 2.05243,-0.47382 3.93031,1.15109 4.58838,3.89313 0.43872,1.82806 1.00543,4.42099 1.35272,6.15768 l 13.05234,-3.0134 c -1.5904,-12.77803 -5.11849,-28.0423 -8.50036,-39.12026 z m -11.37053,24.36785 -6.48956,1.49823 c -1.63097,0.37653 -2.55928,-0.63904 -2.35815,-2.90585 0.18277,-2.12051 1.13339,-6.61748 1.49899,-8.15305 0.76779,-3.18082 2.37648,-4.7347 4.22281,-5.00888 2.97971,-0.47528 4.42386,1.7001 5.57552,7.18428 0.1097,0.51187 0.42047,1.62694 0.5484,3.12595 0.25595,3.05285 -0.69301,3.72718 -2.99801,4.25932 z" />
	<path
   id="P_2_"
   class="st20"
   d="m 101.81407,202.47504 v 77.05466 l 19.0854,-4.40622 5e-5,-18.09802 c 2e-5,-3.30888 0.82262,-4.95416 2.79695,-5.3015 17.78652,-3.12889 30.45614,-12.07153 30.4562,-30.41946 1e-4,-20.14764 -21.64486,-30.98622 -52.3386,-18.82946 z m 25.46549,39.68798 c -4.0583,0.99226 -6.39829,-0.0731 -6.39828,-3.47342 l 3e-5,-12.30309 c 1e-5,-3.47475 1.91952,-5.6671 5.74018,-6.16066 7.65978,-0.98712 11.11483,3.49174 11.11481,9.32332 -2e-5,4.86274 -2.86995,10.75886 -10.45674,12.61385 z" />
	<path
   id="M_2_"
   class="st21"
   d="m 357.71365,56.86298 c -5.26486,17.3847 -8.24463,25.88511 -10.84048,33.05108 -4.42389,12.19308 -9.01236,7.40359 -11.15106,4.00341 -2.48615,-3.98517 -5.86804,-11.73611 -11.73605,-25.94003 l -14.49655,3.34679 v 68.23788 l 12.02859,-2.77702 c -0.0914,-10.87688 0.0914,-18.26213 0.67636,-21.13218 0.53021,-2.57755 2.08395,-2.94315 3.6561,-0.3839 1.29785,2.10229 3.3454,6.65415 7.42188,16.01377 l 8.05972,-1.86073 c 4.44217,-11.93713 6.83893,-17.95531 8.53903,-20.89848 1.37103,-2.39474 3.98517,-4.07653 4.77121,0.34734 0.60315,3.34534 0.54834,12.42083 0.53003,23.53535 l 12.46753,-2.87834 -3e-5,-74.9566 z" />
	<path
   id="H_4_"
   class="st21"
   d="m 288.35748,92.4921 c -0.0548,9.32301 -0.0366,17.82342 -0.43878,20.93112 -0.93231,7.42187 -13.61902,10.76719 -14.24054,3.93027 -0.29245,-3.21735 -0.5484,-7.46786 -0.54837,-16.95541 l -10.25549,2.36767 -3e-5,62.51917 13.07059,-3.01758 c 3e-5,-9.92628 3e-5,-14.2392 0.16458,-17.63934 0.45703,-8.95744 13.91144,-10.98656 15.08139,-3.19902 0.53012,3.54642 0.62152,5.24651 0.62149,13.25333 l 10.41989,-2.40561 V 89.28886 Z" />
	<path
   id="T_1_"
   class="st21"
   d="m 219.00122,97.65585 -6e-5,25.16492 7.29391,-1.68393 c 4.42374,-1.0213 6.25191,-0.44529 6.25191,7.38531 v 32.32391 l 11.97375,-2.76436 v -29.63266 c 0,-13.16226 1.23579,-16.4838 7.75093,-17.98794 l 5.95944,-1.37585 6e-5,-20.48635 z" />
	<path
   id="Y_2_"
   class="st21"
   d="m 214.10204,114.27627 -11.18776,2.58289 c 0,0 0.16449,11.51665 -0.27414,19.99878 -0.63997,12.41249 -13.14378,15.08138 -14.14912,3.27222 -0.51187,-6.19711 -0.74944,-18.54903 -0.74944,-18.54903 l -13.91145,3.21171 v 10.07247 c -6e-5,24.0388 15.62962,27.00034 23.80104,20.14514 0.49361,-0.42046 0.9872,-0.67636 1.38933,-0.49358 0.45702,0.2011 0.43872,0.69469 0.256,1.60869 -0.49361,2.39473 -4.04004,7.12939 -11.20596,9.0488 -5.46594,1.46243 -10.82211,2.3849 -13.491,2.80533 v 16.68159 c 12.0285,-1.55377 25.95816,-4.99045 32.4478,-14.9716 3.3819,-5.20992 5.15518,-10.71236 6.03264,-18.86543 1.37105,-12.83289 1.04206,-36.54798 1.04206,-36.54798 z" />
	<path
   id="H_3_"
   class="st21"
   d="m 153.13658,113.23946 c -0.0549,9.32301 -0.0366,17.82342 -0.43877,20.93113 -0.93234,7.42186 -13.61902,10.76718 -14.24054,3.93025 -0.29248,-3.21733 -0.5484,-7.46785 -0.54839,-16.95541 l -10.2555,2.36767 v 62.51917 l 13.07056,-3.01758 c 3e-5,-9.92627 5e-5,-14.2392 0.16458,-17.63933 0.45703,-8.95746 13.91145,-10.98656 15.08139,-3.19904 0.53012,3.54642 0.62152,5.24652 0.62151,13.25334 l 10.41988,-2.40562 v -62.98782 z" />
	<path
   id="R_2_"
   class="st21"
   d="m 121.20052,126.03571 c 7e-5,-26.37876 -25.81213,-34.03831 -57.3826,-22.7593 v 85.1526 l 13.45445,-3.1062 5e-5,-21.31866 c 1e-5,-3.25395 2.39476,-2.68724 4.60668,-0.71297 1.55385,1.38934 10.89519,10.43814 17.4213,16.94604 l 20.53976,-4.74197 c 0,0 -17.9073,-18.29141 -19.97303,-20.10115 12.02861,-4.49697 21.33336,-16.21615 21.33339,-29.35839 z m -36.14055,24.80653 c -4.99058,1.16991 -7.76921,-1.60869 -7.7692,-7.54987 l 2e-5,-5.74005 c -2.6e-4,-4.14009 0.80434,-7.73265 4.497,-8.90257 10.72154,-3.39679 18.18912,1.22481 18.18909,8.48213 0,6.78208 -5.19166,11.42528 -14.91691,13.71036 z" />
</g>
</svg>
