<?xml version="1.0" encoding="UTF-8" standalone="no"?>
<!-- Created with Inkscape (http://www.inkscape.org/) -->

<svg
   version="1.1"
   id="svg2"
   width="666.66669"
   height="493.02667"
   viewBox="0 0 666.66669 493.02667"
   sodipodi:docname="Rhythm Heaven Logo but different.ai"
   xmlns:inkscape="http://www.inkscape.org/namespaces/inkscape"
   xmlns:sodipodi="http://sodipodi.sourceforge.net/DTD/sodipodi-0.dtd"
   xmlns="http://www.w3.org/2000/svg"
   xmlns:svg="http://www.w3.org/2000/svg">
  <defs
     id="defs6">
    <clipPath
       clipPathUnits="userSpaceOnUse"
       id="clipPath16">
      <path
         d="M 0,369.77 H 500 V 0 H 0 Z"
         id="path14" />
    </clipPath>
  </defs>
  <sodipodi:namedview
     id="namedview4"
     pagecolor="#ffffff"
     bordercolor="#000000"
     borderopacity="0.25"
     inkscape:showpageshadow="2"
     inkscape:pageopacity="0.0"
     inkscape:pagecheckerboard="0"
     inkscape:deskcolor="#d1d1d1" />
  <g
     id="g8"
     inkscape:groupmode="layer"
     inkscape:label="Rhythm Heaven Logo but different"
     transform="matrix(1.3333333,0,0,-1.3333333,0,493.02667)">
    <g
       id="g10">
      <g
         id="g12"
         clip-path="url(#clipPath16)">
        <g
           id="g18"
           transform="translate(472.1938,237.9971)">
          <path
             d="m 0,0 c 3.548,10.355 5.387,21.299 5.387,32.312 0,54.843 -44.618,99.461 -99.46,99.461 -21.962,0 -42.784,-7.021 -60.214,-20.304 -8.771,-6.684 -16.37,-14.828 -22.473,-23.958 -15.875,10.273 -34.511,15.88 -53.903,15.88 -31.603,0 -60.959,-15.25 -79.441,-39.769 -16.966,11.336 -37.05,17.551 -57.857,17.551 -57.474,0 -104.233,-46.758 -104.233,-104.232 0,-40.09 22.91,-75.957 57.711,-93.301 -1.335,-6.597 -2.008,-13.336 -2.008,-20.173 0,-55.947 45.517,-101.464 101.465,-101.464 21.005,0 41.163,6.369 58.295,18.419 10.418,7.327 19.258,16.412 26.188,26.83 11.725,-4.58 24.255,-6.95 37.064,-6.95 19.635,0 38.711,5.604 55.166,16.206 9.719,6.263 18.255,14.081 25.296,23.101 12.784,-5.807 26.68,-8.816 41.052,-8.816 55.014,0 99.771,44.854 99.771,99.987 C 27.806,-43.364 17.629,-18.478 0,0"
             style="fill:#00b3f0;fill-opacity:1;fill-rule:nonzero;stroke:none"
             id="path20" />
        </g>
        <g
           id="g22"
           transform="translate(460.2645,235.3811)">
          <path
             d="m 0,0 c 4.665,10.989 7.103,22.912 7.103,34.928 0,49.212 -40.036,89.248 -89.247,89.248 -19.706,0 -38.387,-6.298 -54.023,-18.214 -10.732,-8.179 -19.509,-18.789 -25.593,-30.757 -15.877,13.228 -35.929,20.59 -56.974,20.59 -31.844,0 -61.148,-17.263 -76.941,-44.177 -16.813,14.092 -38.127,21.959 -60.357,21.959 -51.843,0 -94.02,-42.177 -94.02,-94.02 0,-38.94 23.963,-73.465 59.474,-87.465 -2.505,-8.404 -3.771,-17.114 -3.771,-26.008 0,-50.317 40.936,-91.252 91.252,-91.252 33.663,0 64.618,18.891 80.365,48.043 12.715,-6.402 26.748,-9.744 41.182,-9.744 31.268,0 60.465,16.246 77.246,42.206 13.429,-7.693 28.53,-11.715 44.268,-11.715 49.383,0 89.559,40.272 89.559,89.774 C 29.523,-41.24 18.621,-16.92 0,0"
             style="fill:#ffffff;fill-opacity:1;fill-rule:nonzero;stroke:none"
             id="path24" />
        </g>
        <g
           id="g26"
           transform="translate(447.598,232.6056)">
          <path
             d="m 0,0 c 6.094,11.206 9.557,24.051 9.557,37.704 0,43.65 -35.385,79.035 -79.035,79.035 -35.965,0 -66.298,-24.031 -75.872,-56.906 -14.471,17.425 -36.296,28.524 -60.717,28.524 -33.843,0 -62.698,-21.314 -73.902,-51.246 -15.367,17.769 -38.06,29.028 -63.396,29.028 -46.286,0 -83.807,-37.521 -83.807,-83.807 0,-38.909 26.519,-71.616 62.466,-81.056 -4.34,-9.929 -6.763,-20.887 -6.763,-32.417 0,-44.756 36.282,-81.039 81.039,-81.039 34.649,0 64.204,21.754 75.793,52.342 13.054,-8.864 28.8,-14.043 45.753,-14.043 32.491,0 60.548,19.018 73.714,46.556 13.295,-10.079 29.849,-16.064 47.801,-16.064 43.821,0 79.345,35.62 79.345,79.56 C 31.976,-37.694 19.406,-14.504 0,0"
             style="fill:#130c0e;fill-opacity:1;fill-rule:nonzero;stroke:none"
             id="path28" />
        </g>
        <g
           id="g30"
           transform="translate(458.4053,143.9253)">
          <path
             d="m 0,0 v 7.87 l -1.978,-8.327 -2.143,-0.494 -1.932,7.423 v -7.869 l -2.025,-0.468 v 9.421 l 3.164,0.73 1.908,-7.032 0.024,0.006 1.861,7.902 3.123,0.721 V 0.462 Z m -14.624,-3.376 v 7.75 l -3.258,-0.752 v 1.665 l 8.618,1.99 V 5.611 l -3.141,-0.725 v -7.75 z"
             style="fill:#f15a22;fill-opacity:1;fill-rule:nonzero;stroke:none"
             id="path32" />
        </g>
        <g
           id="g34"
           transform="translate(419.6855,225.7546)">
          <path
             d="m 0,0 c 0,0 -0.127,-33.221 -0.541,-39.064 -0.413,-5.844 -1.432,-8.226 -3.022,-8.512 -0.764,-0.095 -1.526,0.09 -2.164,0.508 -4.164,2.732 -11.946,18.29 -18.913,31.82 l -10.165,-2.347 v -84.068 l 12.309,2.842 0.162,21.359 c 0,4.446 0.478,7.4 1.496,8.797 0.35,0.477 0.921,0.801 1.463,0.89 3.584,0.583 10.626,-8.512 19.248,-22.994 l 16.448,3.797 v 90.74 z"
             style="fill:#f15a22;fill-opacity:1;fill-rule:nonzero;stroke:none"
             id="path36" />
        </g>
        <g
           id="g38"
           transform="translate(356.9482,141.541)">
          <path
             d="m 0,0 c -0.377,-0.002 -3.169,0.093 -3.468,2.223 -0.173,1.234 0.446,2.35 1.909,3.303 1.273,0.762 3.213,1.556 5.822,2.319 l 12.312,3.239 v 10.703 c 0,0 -14.015,-3.372 -18.325,-2.731 -1.309,0.195 -2.163,0.889 -2.354,2.096 -0.159,1.239 0.445,2.35 1.909,3.303 3.941,2.568 21.633,6.384 21.633,6.384 v 24.696 l -36.427,-8.41 v -65.832 l 37.191,8.586 V 3.557 C 10.276,1.302 3.567,0.02 0,0"
             style="fill:#f15a22;fill-opacity:1;fill-rule:nonzero;stroke:none"
             id="path40" />
        </g>
        <g
           id="g42"
           transform="translate(316.6772,190.6576)">
          <path
             d="m 0,0 c 0,0 -3.946,-25.999 -7.45,-38.014 -1.001,-3.433 -3.421,-8.686 -6.713,-1.175 -1.179,2.69 -4.678,15.258 -7.247,31.462 l -11.364,-2.624 c 0.995,-11.141 6.45,-41.232 13.719,-58.763 l 22.04,5.089 c 8.113,21.469 12.98,44.146 14.634,68.093 z"
             style="fill:#f15a22;fill-opacity:1;fill-rule:nonzero;stroke:none"
             id="path44" />
        </g>
        <g
           id="g46"
           transform="translate(267.8428,117.648)">
          <path
             d="m 0,0 c -1.756,-0.382 -5.749,-1.394 -7.79,-1.776 -1.953,-0.382 -3.094,0.719 -2.853,3.507 0.22,2.608 1.365,8.137 1.8,10.004 0.96,4.129 2.848,5.85 5.069,6.159 2.846,0.397 5.332,-2.09 6.692,-8.834 C 3.05,8.408 3.382,7.054 3.599,5.215 3.862,2.982 2.765,0.697 0,0 m 9.714,37.269 c -5.516,10.162 -11.93,8.056 -15.217,6.969 -4.306,-1.425 -8.128,-3.637 -12.128,-19.501 -4.204,-16.675 -8.78,-51.705 -8.78,-51.705 l 11.54,2.665 1.185,6.641 c 0.573,3.208 2.615,5.246 5.727,6.161 0,0 8.941,2.321 11.994,2.668 1.289,0.147 2.804,-0.871 3.245,-2.89 l 1.559,-7.146 15.716,3.628 c 0,0 -7.818,39.571 -14.841,52.51"
             style="fill:#f15a22;fill-opacity:1;fill-rule:nonzero;stroke:none"
             id="path48" />
        </g>
        <g
           id="g50"
           transform="translate(215.9485,104.4006)">
          <path
             d="m 0,0 c -0.377,-0.002 -3.169,0.093 -3.468,2.223 -0.173,1.234 0.446,2.35 1.909,3.303 1.273,0.762 3.213,1.556 5.822,2.319 l 12.312,3.239 v 10.703 c 0,0 -14.015,-3.372 -18.325,-2.731 -1.309,0.195 -2.163,0.889 -2.354,2.096 -0.159,1.239 0.445,2.35 1.909,3.303 3.941,2.568 21.633,6.384 21.633,6.384 v 26.646 l -36.427,-8.41 v -65.844 l 37.191,8.586 V 3.557 C 10.276,1.302 3.567,0.02 0,0"
             style="fill:#f15a22;fill-opacity:1;fill-rule:nonzero;stroke:none"
             id="path52" />
        </g>
        <g
           id="g54"
           transform="translate(170.6135,159.345)">
          <path
             d="m 0,0 c 0.35,-13.117 0.209,-22.935 -1.591,-29.378 -1.093,-3.913 -3.499,-6.892 -6.712,-9.147 -3.273,-2.296 -6.554,-3.303 -9.767,-3.366 -3.919,-0.078 -6.75,1.447 -7.127,5.558 -0.572,6.257 -0.827,15.002 -0.636,25.959 l -14.221,-3.283 v -96.867 l 19.534,4.51 c -0.35,12.354 0.071,21.519 1.591,27.186 1.035,3.863 3.869,7.131 6.712,9.052 3.324,2.244 6.548,3.409 9.767,3.462 3.913,0.063 6.757,-1.751 7.127,-5.654 0.541,-5.716 0.795,-13.964 0.636,-24.476 l 14.539,3.356 V 4.583 Z"
             style="fill:#f15a22;fill-opacity:1;fill-rule:nonzero;stroke:none"
             id="path56" />
        </g>
        <g
           id="g58"
           transform="translate(406.3236,315.8365)">
          <path
             d="m 0,0 c -6.064,-20.024 -9.496,-29.815 -12.486,-38.069 -5.096,-14.044 -10.381,-8.528 -12.844,-4.611 -2.864,4.59 -6.759,13.518 -13.518,29.878 l -16.697,-3.853 v -78.6 l 13.855,3.199 c -0.106,12.528 0.105,21.035 0.779,24.341 0.61,2.968 2.4,3.389 4.211,0.442 1.495,-2.422 3.853,-7.665 8.548,-18.445 l 9.284,2.143 c 5.116,13.749 7.877,20.681 9.835,24.071 1.579,2.759 4.59,4.696 5.496,-0.4 0.694,-3.853 0.631,-14.306 0.61,-27.108 l 14.36,3.315 V 2.64 Z"
             style="fill:#faa61a;fill-opacity:1;fill-rule:nonzero;stroke:none"
             id="path60" />
        </g>
        <g
           id="g62"
           transform="translate(326.4378,274.798)">
          <path
             d="m 0,0 c -0.063,-10.738 -0.042,-20.529 -0.505,-24.109 -1.074,-8.549 -15.687,-12.402 -16.403,-4.527 -0.337,3.706 -0.632,8.602 -0.632,19.53 l -11.812,-2.727 v -72.011 l 15.055,3.476 c 0,11.433 0,16.401 0.19,20.317 0.526,10.317 16.023,12.654 17.371,3.685 0.61,-4.085 0.716,-6.043 0.716,-15.266 l 12.001,2.771 V 3.69 Z"
             style="fill:#faa61a;fill-opacity:1;fill-rule:nonzero;stroke:none"
             id="path64" />
        </g>
        <g
           id="g66"
           transform="translate(246.5521,268.8501)">
          <path
             d="m 0,0 v -28.985 l 8.401,1.939 c 5.096,1.177 7.201,0.513 7.201,-8.506 V -72.76 l 13.792,3.16 v 34.132 c 0,15.16 1.423,18.986 8.928,20.719 l 6.864,1.584 v 23.597 z"
             style="fill:#faa61a;fill-opacity:1;fill-rule:nonzero;stroke:none"
             id="path68" />
        </g>
        <g
           id="g70"
           transform="translate(240.9091,249.7064)">
          <path
             d="m 0,0 -12.886,-2.975 c 0,0 0.189,-13.265 -0.316,-23.035 -0.737,-14.297 -15.139,-17.371 -16.297,-3.769 -0.59,7.138 -0.863,21.365 -0.863,21.365 l -16.024,-3.699 v -11.602 c 0,-27.688 18.003,-31.099 27.415,-23.203 0.568,0.484 1.137,0.779 1.6,0.568 0.526,-0.232 0.505,-0.8 0.295,-1.853 -0.569,-2.758 -4.654,-8.212 -12.907,-10.422 -6.296,-1.685 -12.466,-2.747 -15.54,-3.232 v -19.214 c 13.855,1.79 29.9,5.748 37.374,17.245 3.896,6.001 5.938,12.338 6.949,21.729 C 0.379,-27.315 0,0 0,0"
             style="fill:#faa61a;fill-opacity:1;fill-rule:nonzero;stroke:none"
             id="path72" />
        </g>
        <g
           id="g74"
           transform="translate(170.688,250.9004)">
          <path
             d="m 0,0 c -0.063,-10.738 -0.042,-20.529 -0.505,-24.109 -1.074,-8.549 -15.687,-12.402 -16.403,-4.527 -0.337,3.706 -0.632,8.602 -0.632,19.53 l -11.812,-2.727 v -72.011 l 15.055,3.476 c 0,11.433 0,16.401 0.19,20.317 0.526,10.317 16.023,12.654 17.371,3.685 0.61,-4.085 0.716,-6.043 0.716,-15.266 l 12.001,2.771 V 3.69 Z"
             style="fill:#faa61a;fill-opacity:1;fill-rule:nonzero;stroke:none"
             id="path76" />
        </g>
        <g
           id="g78"
           transform="translate(92.2762,207.5886)">
          <path
             d="m 0,0 c -5.748,-1.348 -8.949,1.853 -8.949,8.696 v 6.612 c 0,4.768 0.927,8.906 5.18,10.254 C 8.58,29.474 17.182,24.151 17.182,15.792 17.182,7.98 11.202,2.632 0,0 m 41.627,28.573 c 0,30.383 -29.73,39.206 -66.094,26.214 v -98.08 l 15.497,3.578 v 24.555 c 0,3.748 2.759,3.095 5.306,0.821 1.79,-1.6 12.55,-12.023 20.066,-19.519 l 23.659,5.462 c 0,0 -20.626,21.069 -23.006,23.153 13.855,5.18 24.572,18.678 24.572,33.816"
             style="fill:#faa61a;fill-opacity:1;fill-rule:nonzero;stroke:none"
             id="path80" />
        </g>
      </g>
    </g>
  </g>
</svg>
