<?xml version="1.0" encoding="UTF-8" standalone="no"?>
<!-- Generator: Adobe Illustrator 25.0.0, SVG Export Plug-In . SVG Version: 6.00 Build 0)  -->

<svg
   version="1.1"
   id="Layer_1"
   x="0px"
   y="0px"
   viewBox="0 0 666.66669 571.45661"
   xml:space="preserve"
   sodipodi:docname="Rhythm Heaven Ohiomix Logo.svg"
   width="666.66669"
   height="571.4566"
   inkscape:version="1.2.2 (b0a8486541, 2022-12-01)"
   xmlns:inkscape="http://www.inkscape.org/namespaces/inkscape"
   xmlns:sodipodi="http://sodipodi.sourceforge.net/DTD/sodipodi-0.dtd"
   xmlns:xlink="http://www.w3.org/1999/xlink"
   xmlns="http://www.w3.org/2000/svg"
   xmlns:svg="http://www.w3.org/2000/svg"><defs
   id="defs157627" /><sodipodi:namedview
   id="namedview157625"
   pagecolor="#505050"
   bordercolor="#eeeeee"
   borderopacity="1"
   inkscape:showpageshadow="0"
   inkscape:pageopacity="0"
   inkscape:pagecheckerboard="0"
   inkscape:deskcolor="#505050"
   showgrid="false"
   inkscape:zoom="2.8278614"
   inkscape:cx="249.83544"
   inkscape:cy="214.29622"
   inkscape:window-width="2560"
   inkscape:window-height="1414"
   inkscape:window-x="0"
   inkscape:window-y="0"
   inkscape:window-maximized="1"
   inkscape:current-layer="Layer_1" />
<style
   type="text/css"
   id="style157407">
	.st0{fill:#0096E6;}
	.st1{fill:#FFFFFF;}
	.st2{fill:url(#SVGID_1_);}
	.st3{opacity:0.2;}
	.st4{clip-path:url(#SVGID_3_);}
	.st5{fill:url(#SVGID_4_);}
	.st6{clip-path:url(#SVGID_6_);}
	.st7{fill:url(#SVGID_7_);}
	.st8{clip-path:url(#SVGID_9_);}
	.st9{fill:url(#SVGID_10_);}
	.st10{clip-path:url(#SVGID_12_);}
	.st11{fill:url(#SVGID_13_);}
	.st12{clip-path:url(#SVGID_15_);}
	.st13{fill:url(#SVGID_16_);}
	.st14{clip-path:url(#SVGID_18_);}
	.st15{fill:url(#SVGID_19_);}
	.st16{clip-path:url(#SVGID_21_);}
	.st17{fill:url(#SVGID_22_);}
	.st18{fill:url(#SVGID_23_);}
	.st19{fill:url(#SVGID_24_);}
	.st20{fill:#FF5500;}
	.st21{fill:#FFAA00;}
</style>
<g
   id="Cloud"
   transform="scale(1.3333334)">
	<path
   id="Light_Blue"
   class="st0"
   d="M 423.3205,91.38934 C 418.47794,40.19202 375.19833,0 322.69894,0 285.01028,0 250.93345,21.09124 233.61311,53.29309 222.725,49.46444 211.20169,47.48473 199.50062,47.48473 c -18.27538,0 -36.28015,4.93484 -51.91119,14.07989 C 133.06288,53.68088 116.87081,49.56465 100.07923,49.56465 44.89531,49.56464 0,94.52959 0,149.79842 c 0,37.97681 21.28712,71.95343 53.80655,88.91428 -2.44732,7.71844 -3.70523,15.79692 -3.70523,24.01241 0,44.74814 37.27425,81.15283 83.09007,81.15283 27.7567,0 52.58997,-13.20071 67.73132,-34.01117 18.4554,17.08881 42.90598,26.94601 69.04359,26.94601 42.24136,0 79.49069,-26.10815 94.55392,-64.18857 2.48413,0.18683 4.97391,0.28079 7.46594,0.28079 54.49551,0 98.83038,-43.91026 98.83038,-97.88382 2e-5,-34.3763 -18.29914,-66.02731 -47.49604,-83.63184 z" />
	<path
   id="White"
   class="st1"
   d="m 412.56882,98.155 c -1.49115,-48.22181 -41.23254,-86.9957 -89.86987,-86.9957 -36.96518,0 -70.02524,22.80431 -83.50674,56.51372 -12.31473,-5.92894 -25.86191,-9.02899 -39.69157,-9.02899 -18.74808,0 -36.50659,5.50832 -51.71248,15.98827 -14.25822,-9.11674 -30.63428,-13.90835 -47.70892,-13.90835 -49.0308,0 -88.91994,39.95877 -88.91994,89.07448 0,37.18935 22.95886,70.0592 56.93265,83.13876 -4.49044,9.26959 -6.83133,19.40421 -6.83133,29.78792 0,38.59445 32.26808,69.99353 71.93078,69.99353 29.07292,0 54.43381,-16.65741 65.71878,-41.43973 16.96425,21.53732 42.91164,34.3746 71.05614,34.3746 40.526,0 75.88794,-26.98001 86.93173,-65.20306 4.98181,0.8605 10.03159,1.29529 15.08813,1.29529 48.34183,0 87.67108,-38.90468 87.67108,-86.72455 0,-32.35244 -18.31839,-61.98525 -47.08844,-76.86619 z" />
	<path
   id="Black"
   d="m 404.73264,103.06762 c 0.0178,-0.70248 0.0533,-1.40057 0.0533,-2.1073 0,-45.27348 -36.75159,-81.97482 -82.08704,-81.97482 -37.7215,0 -69.47838,25.41786 -79.08878,60.03186 -12.76826,-7.9361 -27.8869,-12.54755 -44.1096,-12.54755 -19.50209,0 -37.41367,6.65421 -51.55193,17.7578 -13.41768,-9.84943 -29.96088,-15.67747 -47.86913,-15.67747 -44.78712,0 -81.09422,36.37611 -81.09422,81.24835 0,37.8231 25.79694,69.60736 60.72372,78.66092 -6.70706,9.82552 -10.62233,21.59996 -10.62233,34.26569 0,34.33426 28.70077,62.16766 64.10493,62.16766 31.80104,0 58.17909,-22.4613 63.22163,-51.91443 13.70845,26.62262 41.48836,44.84875 73.55341,44.84875 40.23065,0 73.73294,-28.677 81.12729,-66.65488 6.6615,1.78052 13.66138,2.74722 20.89282,2.74722 44.0968,0 79.84436,-35.32397 79.84436,-78.89832 10e-6,-32.039 -19.33755,-59.59713 -47.09847,-71.95348 z" />
	<rect
   x="388.34821"
   y="250.2457"
   width="4.8344898"
   height="4.8345499"
   id="rect157412" />
	<rect
   x="182.71274"
   y="270.91882"
   width="38.961529"
   height="38.962021"
   id="rect157414" />
</g>
<g
   id="Ohiomix_00000109007059400877276280000007188025569754299801_"
   transform="scale(1.3333334)">
	<g
   id="X_00000016049749731581465470000011631285304195345084_">
		<path
   d="m 500,213.76408 -76.26846,17.62346 v 92.87109 L 500,306.65067 v -17.8085 c 0,-8.82678 -10e-4,-18.67834 -8.6015,-27.71332 C 497.51483,252.15587 500,242.41849 500,228.60796 Z"
   id="path157417" />
		
			<linearGradient
   id="SVGID_1_"
   gradientUnits="userSpaceOnUse"
   x1="440.79596"
   y1="4618.1714"
   x2="503.32843"
   y2="4617.9722"
   gradientTransform="matrix(1,0.00319,-0.0035,1,5.96707,-4350.5649)">
			<stop
   offset="0"
   style="stop-color:#FF8C3C"
   id="stop157419" />
			<stop
   offset="0.75"
   style="stop-color:#FF5A00"
   id="stop157421" />
		</linearGradient>
		<path
   class="st2"
   d="m 430.60953,315.79266 v -10.92697 c -0.0292,-9.48932 -0.0156,-18.79163 11.06567,-32.43115 -8.11707,-5.3699 -11.06567,-12.97382 -11.06567,-27.8064 v -7.95326 l 23.94232,-5.54024 6e-5,17.62262 c 0,4.0986 2.55026,7.08908 7.31274,5.98958 4.76245,-1.0995 7.31277,-5.26755 7.31277,-9.36615 l 0.003,-17.62325 23.94238,-5.52753 v 7.96594 c 0,14.83261 -2.94901,23.79808 -11.06607,32.91592 11.06668,8.51175 11.06604,17.82559 11.06604,27.32169 v 10.92694 l -23.94241,5.52753 6e-5,-18.59308 c 0,-6.6301 -2.55301,-9.55737 -7.31546,-8.45786 -4.76248,1.09949 -7.31281,5.20496 -7.31281,11.83505 l 6e-5,18.59308 z"
   id="path157424"
   style="fill:url(#SVGID_1_)" />
		<g
   class="st3"
   id="g157436">
			<defs
   id="defs157427">
				<path
   id="SVGID_2_"
   class="st3"
   d="m 430.60953,315.79266 v -10.92697 c -0.0292,-9.48932 -0.0156,-18.79163 11.06567,-32.43115 -8.11707,-5.3699 -11.06567,-12.97382 -11.06567,-27.8064 v -7.95326 l 23.94232,-5.54024 6e-5,17.62262 c 0,4.0986 2.55026,7.08908 7.31274,5.98958 4.76245,-1.0995 7.31277,-5.26755 7.31277,-9.36615 l 0.003,-17.62325 23.94238,-5.52753 v 7.96594 c 0,14.83261 -2.94901,23.79808 -11.06607,32.91592 11.06668,8.51175 11.06604,17.82559 11.06604,27.32169 v 10.92694 l -23.94241,5.52753 6e-5,-18.59308 c 0,-6.6301 -2.55301,-9.55737 -7.31546,-8.45786 -4.76248,1.09949 -7.31281,5.20496 -7.31281,11.83505 l 6e-5,18.59308 z" />
			</defs>
			<clipPath
   id="SVGID_3_">
				<use
   xlink:href="#SVGID_2_"
   style="overflow:visible"
   id="use157429" />
			</clipPath>
			<g
   class="st4"
   clip-path="url(#SVGID_3_)"
   id="g157434">
				<polygon
   class="st1"
   points="582.81879,262.64276 54.53906,582.23413 24.02714,524.16882 552.33606,204.54823 "
   id="polygon157432" />
			</g>
		</g>
	</g>
	<g
   id="I_00000114771525833748213400000011417541078528419981_">
		<polygon
   points="429.04907,222.07198 391.32199,230.78197 391.32199,323.67267 429.04907,314.96268 "
   id="polygon157439" />
		
			<linearGradient
   id="SVGID_4_"
   gradientUnits="userSpaceOnUse"
   x1="1404.9346"
   y1="4222.6519"
   x2="1446.3735"
   y2="4213.4219"
   gradientTransform="matrix(0.9523,0.0031,-0.2099,1.04947,-65.59653,-4157.4277)">
			<stop
   offset="0"
   style="stop-color:#AA37BE"
   id="stop157441" />
			<stop
   offset="1"
   style="stop-color:#5F14A5"
   id="stop157443" />
		</linearGradient>
		<path
   class="st5"
   d="m 398.19971,236.07185 23.97159,-5.53429 v 79.13498 l -23.97159,5.53427 z"
   id="path157446"
   style="fill:url(#SVGID_4_)" />
		<g
   class="st3"
   id="g157458">
			<defs
   id="defs157449">
				<path
   id="SVGID_5_"
   class="st3"
   d="m 398.19971,236.07185 23.97159,-5.53429 v 79.13498 l -23.97159,5.53427 z" />
			</defs>
			<clipPath
   id="SVGID_6_">
				<use
   xlink:href="#SVGID_5_"
   style="overflow:visible"
   id="use157451" />
			</clipPath>
			<g
   class="st6"
   clip-path="url(#SVGID_6_)"
   id="g157456">
				<polygon
   class="st1"
   points="582.81879,262.64276 54.53906,582.23413 24.02714,524.16882 552.33606,204.54823 "
   id="polygon157454" />
			</g>
		</g>
	</g>
	<g
   id="M_00000012456745628385622000000012547203016393709464_">
		<path
   d="m 387.72391,250.03806 c -7.2034,-6.61916 -16.98495,-8.73915 -28.28448,-6.13045 -6.17004,1.42447 -11.49792,3.88728 -16.80411,7.81964 -5.30515,-1.48254 -10.63303,-1.48528 -16.80307,-0.0608 -11.30057,2.60893 -21.08109,9.24521 -28.28552,19.19064 -7.34702,10.14374 -9.95102,19.40015 -9.95102,35.37241 v 49.10309 l 110.08026,-25.41403 v -49.10309 c -1e-5,-15.9733 -2.60401,-24.02734 -9.95206,-30.7774 z"
   id="path157461" />
		
			<linearGradient
   id="SVGID_7_"
   gradientUnits="userSpaceOnUse"
   x1="294.47855"
   y1="313.31848"
   x2="390.95126"
   y2="313.31842"
   gradientTransform="matrix(1,-0.23087,0,1,0,60.98651)">
			<stop
   offset="0"
   style="stop-color:#FFFF00"
   id="stop157463" />
			<stop
   offset="0.75"
   style="stop-color:#FFBE00"
   id="stop157465" />
		</linearGradient>
		<path
   class="st7"
   d="m 382.53476,255.74959 c -5.87711,-5.39989 -13.80807,-7.10818 -23.09558,-4.964 -6.23663,1.43985 -11.25586,4.04698 -16.80347,8.86646 -5.54761,-2.25797 -10.53699,-2.55441 -16.80347,-1.10767 -9.25992,2.13782 -17.21848,7.5145 -23.09564,15.62808 -6.18121,8.53336 -8.263,16.13901 -8.263,30.46964 v 42.22452 l 24.05902,-5.55447 v -46.79721 c 0,-7.05219 2.27298,-10.00272 5.98566,-10.85986 3.71271,-0.85712 6.08789,1.02029 6.08789,8.07245 v 46.79724 l 24.05905,-5.55447 v -46.79724 c 0,-7.05215 2.37521,-10.02628 6.08783,-10.88342 3.71277,-0.85715 5.98572,1.04388 5.98572,8.09601 v 46.79724 l 24.05905,-5.55447 V 282.4039 c 0,-14.33063 -2.08179,-20.97507 -8.26306,-26.65431 z"
   id="path157468"
   style="fill:url(#SVGID_7_)" />
		<g
   class="st3"
   id="g157482">
			<defs
   id="defs157471">
				<path
   id="SVGID_8_"
   class="st3"
   d="m 382.53476,255.74959 c -5.87711,-5.39989 -13.80807,-7.10818 -23.09558,-4.964 -6.23663,1.43985 -11.25586,4.04698 -16.80347,8.86646 -5.54761,-2.25797 -10.53699,-2.55441 -16.80347,-1.10767 -9.25992,2.13782 -17.21848,7.5145 -23.09564,15.62808 -6.18121,8.53336 -8.263,16.13901 -8.263,30.46964 v 42.22452 l 24.05902,-5.55447 v -46.79721 c 0,-7.05219 2.27298,-10.00272 5.98566,-10.85986 3.71271,-0.85712 6.08789,1.02029 6.08789,8.07245 v 46.79724 l 24.05905,-5.55447 v -46.79724 c 0,-7.05215 2.37521,-10.02628 6.08783,-10.88342 3.71277,-0.85715 5.98572,1.04388 5.98572,8.09601 v 46.79724 l 24.05905,-5.55447 V 282.4039 c 0,-14.33063 -2.08179,-20.97507 -8.26306,-26.65431 z" />
			</defs>
			<clipPath
   id="SVGID_9_">
				<use
   xlink:href="#SVGID_8_"
   style="overflow:visible"
   id="use157473" />
			</clipPath>
			<g
   class="st8"
   clip-path="url(#SVGID_9_)"
   id="g157480">
				<polygon
   class="st1"
   points="493.72223,173.09346 -33.9845,494.52063 -65.80997,428.95792 461.89673,107.53073 "
   id="polygon157476" />
				<polygon
   class="st1"
   points="582.81879,262.64276 54.53906,582.23413 24.02714,524.16882 552.33606,204.54823 "
   id="polygon157478" />
			</g>
		</g>
	</g>
	<g
   id="O_00000018204369891237119790000010390082151430439835_">
		
			<ellipse
   transform="rotate(-48.292376,246.9862,320.8809)"
   cx="246.98615"
   cy="320.88113"
   rx="53.205589"
   ry="42.258469"
   id="ellipse157485" />
		
			<linearGradient
   id="SVGID_10_"
   gradientUnits="userSpaceOnUse"
   x1="206.44519"
   y1="316.90939"
   x2="287.52762"
   y2="316.90939"
   gradientTransform="matrix(1,-0.23087,0,1,0,60.99318)">
			<stop
   offset="0"
   style="stop-color:#6EE6FF"
   id="stop157487" />
			<stop
   offset="0.85"
   style="stop-color:#00A0FF"
   id="stop157489" />
		</linearGradient>
		<path
   class="st9"
   d="m 246.9864,280.34003 c -22.39034,5.16922 -40.54121,27.51065 -40.54121,49.90091 0,22.39035 18.15088,36.35077 40.54121,31.18155 22.39033,-5.16922 40.54121,-27.51056 40.54121,-49.90091 1e-5,-22.39026 -18.15087,-36.35074 -40.54121,-31.18155 z m 16.36654,33.75168 v 2.16492 l -0.22119,2.36298 -0.1485,2.64914 -1.04681,2.03241 -1.41806,1.89542 -1.04688,0.98859 -0.96811,-0.002 -0.59995,0.81116 -1.04227,1.80862 -0.44693,0.69861 v 1.12259 l 0.52118,0.69928 -0.22424,0.79868 -0.8196,0.63614 -0.22424,-0.76782 -0.59839,-0.38754 -0.59543,0.43744 -0.44997,1.89609 -0.0743,2.33054 -0.74535,0.84473 -0.0773,1.28592 -0.89384,0.57904 -1.00594,0.26859 -1.60744,-0.71057 -0.8196,-0.26074 -0.29849,-1.19916 -0.74535,0.17209 -0.82263,0.78836 -1.26956,1.48538 -0.59846,-0.52997 -1.41798,0.10165 -1.11809,0.92929 -0.97115,0.15152 -0.8196,-0.63498 -2.6891,0.47388 -0.74541,-1.84286 -1.34381,-0.43814 -1.12106,0.63303 -1.90282,0.55139 -0.26059,-2.59109 -1.19537,-10.54871 -0.8196,-6.15552 -0.59995,-6.61536 3.58598,-1.38696 4.70259,-1.83258 2.25735,-0.84836 1.09833,0.37213 1.19537,0.3952 2.39069,-0.85043 1.56798,1.05606 0.96809,-0.29626 2.54216,-1.7822 1.34077,-0.53223 1.49379,-0.71912 1.86343,-2.22095 1.56804,-2.07996 1.79376,-1.45648 3.28143,-2.68314 1.34686,8.63058 0.85446,4.76587 -0.63327,0.48401 -0.44995,0.77353 z"
   id="path157492"
   style="fill:url(#SVGID_10_)" />
		<g
   class="st3"
   id="g157504">
			<defs
   id="defs157495">
				<path
   id="SVGID_11_"
   class="st3"
   d="m 246.9864,280.34003 c -22.39034,5.16922 -40.54121,27.51065 -40.54121,49.90091 0,22.39035 18.15088,36.35077 40.54121,31.18155 22.39033,-5.16922 40.54121,-27.51056 40.54121,-49.90091 1e-5,-22.39026 -18.15087,-36.35074 -40.54121,-31.18155 z m 16.36654,33.75168 v 2.16492 l -0.22119,2.36298 -0.1485,2.64914 -1.04681,2.03241 -1.41806,1.89542 -1.04688,0.98859 -0.96811,-0.002 -0.59995,0.81116 -1.04227,1.80862 -0.44693,0.69861 v 1.12259 l 0.52118,0.69928 -0.22424,0.79868 -0.8196,0.63614 -0.22424,-0.76782 -0.59839,-0.38754 -0.59543,0.43744 -0.44997,1.89609 -0.0743,2.33054 -0.74535,0.84473 -0.0773,1.28592 -0.89384,0.57904 -1.00594,0.26859 -1.60744,-0.71057 -0.8196,-0.26074 -0.29849,-1.19916 -0.74535,0.17209 -0.82263,0.78836 -1.26956,1.48538 -0.59846,-0.52997 -1.41798,0.10165 -1.11809,0.92929 -0.97115,0.15152 -0.8196,-0.63498 -2.6891,0.47388 -0.74541,-1.84286 -1.34381,-0.43814 -1.12106,0.63303 -1.90282,0.55139 -0.26059,-2.59109 -1.19537,-10.54871 -0.8196,-6.15552 -0.59995,-6.61536 3.58598,-1.38696 4.70259,-1.83258 2.25735,-0.84836 1.09833,0.37213 1.19537,0.3952 2.39069,-0.85043 1.56798,1.05606 0.96809,-0.29626 2.54216,-1.7822 1.34077,-0.53223 1.49379,-0.71912 1.86343,-2.22095 1.56804,-2.07996 1.79376,-1.45648 3.28143,-2.68314 1.34686,8.63058 0.85446,4.76587 -0.63327,0.48401 -0.44995,0.77353 z" />
			</defs>
			<clipPath
   id="SVGID_12_">
				<use
   xlink:href="#SVGID_11_"
   style="overflow:visible"
   id="use157497" />
			</clipPath>
			<g
   class="st10"
   clip-path="url(#SVGID_12_)"
   id="g157502">
				<polygon
   class="st1"
   points="493.72223,173.09346 -33.9845,494.52063 -65.80997,428.95792 461.89673,107.53073 "
   id="polygon157500" />
			</g>
		</g>
	</g>
	<g
   id="I_00000075860853730318324970000014309603021731570345_">
		<polygon
   points="205.58185,285.92526 167.85835,294.6344 167.85835,387.52142 205.58185,378.81226 "
   id="polygon157507" />
		
			<linearGradient
   id="SVGID_13_"
   gradientUnits="userSpaceOnUse"
   x1="1183.8304"
   y1="4284.147"
   x2="1225.2694"
   y2="4274.917"
   gradientTransform="matrix(0.9523,0.0031,-0.2099,1.04947,-65.59653,-4157.4277)">
			<stop
   offset="0"
   style="stop-color:#FF8232"
   id="stop157509" />
			<stop
   offset="0.75"
   style="stop-color:#C80000"
   id="stop157511" />
		</linearGradient>
		<path
   class="st11"
   d="m 174.73439,299.92297 23.9716,-5.53427 v 79.13498 l -23.9716,5.53427 z"
   id="path157514"
   style="fill:url(#SVGID_13_)" />
		<g
   class="st3"
   id="g157526">
			<defs
   id="defs157517">
				<path
   id="SVGID_14_"
   class="st3"
   d="m 174.73439,299.92297 23.9716,-5.53427 v 79.13498 l -23.9716,5.53427 z" />
			</defs>
			<clipPath
   id="SVGID_15_">
				<use
   xlink:href="#SVGID_14_"
   style="overflow:visible"
   id="use157519" />
			</clipPath>
			<g
   class="st12"
   clip-path="url(#SVGID_15_)"
   id="g157524">
				<polygon
   class="st1"
   points="493.72223,173.09346 -33.9845,494.52063 -65.80997,428.95792 461.89673,107.53073 "
   id="polygon157522" />
			</g>
		</g>
	</g>
	<g
   id="H_00000127726548052774365710000014857688740432292781_">
		<polygon
   points="173.19965,283.44131 93.56207,301.82712 93.56207,394.74512 173.19965,376.35931 "
   id="polygon157529" />
		
			<linearGradient
   id="SVGID_16_"
   gradientUnits="userSpaceOnUse"
   x1="100.43793"
   y1="308.89346"
   x2="166.32338"
   y2="308.89346"
   gradientTransform="matrix(1,-0.23087,0,1,0,60.99318)">
			<stop
   offset="0"
   style="stop-color:#C8F000"
   id="stop157531" />
			<stop
   offset="0.8"
   style="stop-color:#14B400"
   id="stop157533" />
		</linearGradient>
		<path
   class="st13"
   d="m 141.09435,347.20105 -15.54339,3.58847 v 29.69485 l -25.11303,5.79779 v -79.16693 l 25.11303,-5.79779 v 25.51901 l 15.54339,-3.58847 v -25.51901 l 25.22903,-5.82458 v 79.16693 l -25.22903,5.82458 z"
   id="path157536"
   style="fill:url(#SVGID_16_)" />
		<g
   class="st3"
   id="g157548">
			<defs
   id="defs157539">
				<path
   id="SVGID_17_"
   class="st3"
   d="m 141.09435,347.20105 -15.54339,3.58847 v 29.69485 l -25.11303,5.79779 v -79.16693 l 25.11303,-5.79779 v 25.51901 l 15.54339,-3.58847 v -25.51901 l 25.22903,-5.82458 v 79.16693 l -25.22903,5.82458 z" />
			</defs>
			<clipPath
   id="SVGID_18_">
				<use
   xlink:href="#SVGID_17_"
   style="overflow:visible"
   id="use157541" />
			</clipPath>
			<g
   class="st14"
   clip-path="url(#SVGID_18_)"
   id="g157546">
				<polygon
   class="st1"
   points="493.72223,173.09346 -33.9845,494.52063 -65.80997,428.95792 461.89673,107.53073 "
   id="polygon157544" />
			</g>
		</g>
	</g>
	<g
   id="O_00000018941273804982586470000007476793499322399114_">
		<path
   d="m 52.36765,317.76974 c -26.14607,6.03632 -47.41716,32.21872 -47.41716,58.36533 0,26.14554 21.27109,42.50632 47.41716,36.47003 26.14607,-6.03629 47.41768,-32.21884 47.41768,-58.36438 -1e-5,-26.14657 -21.27161,-42.50726 -47.41768,-36.47098 z"
   id="path157551" />
		
			<linearGradient
   id="SVGID_19_"
   gradientUnits="userSpaceOnUse"
   x1="11.82658"
   y1="316.28436"
   x2="92.909058"
   y2="316.28436"
   gradientTransform="matrix(1,-0.23087,0,1,0,60.99318)">
			<stop
   offset="0"
   style="stop-color:#FFFF00"
   id="stop157553" />
			<stop
   offset="0.75"
   style="stop-color:#FFBE00"
   id="stop157555" />
		</linearGradient>
		<path
   class="st15"
   d="m 52.36782,324.64621 c -22.39031,5.16922 -40.54124,27.51062 -40.54124,49.90094 0,22.39032 18.15093,36.35077 40.54124,31.18155 22.39031,-5.16922 40.54124,-27.51062 40.54124,-49.90091 0,-22.39032 -18.15093,-36.35077 -40.54124,-31.18158 z m 12.02597,56.2709 -12.02597,-3.54608 -12.02597,9.09891 2.29673,-13.92139 -9.72917,-7.23743 13.44542,-5.05786 6.01299,-13.57187 6.01299,10.79544 13.44542,-1.15036 -9.72924,11.72974 z"
   id="path157558"
   style="fill:url(#SVGID_19_)" />
		<g
   class="st3"
   id="g157570">
			<defs
   id="defs157561">
				<path
   id="SVGID_20_"
   class="st3"
   d="m 52.36782,324.64621 c -22.39031,5.16922 -40.54124,27.51062 -40.54124,49.90094 0,22.39032 18.15093,36.35077 40.54124,31.18155 22.39031,-5.16922 40.54124,-27.51062 40.54124,-49.90091 0,-22.39032 -18.15093,-36.35077 -40.54124,-31.18158 z m 12.02597,56.2709 -12.02597,-3.54608 -12.02597,9.09891 2.29673,-13.92139 -9.72917,-7.23743 13.44542,-5.05786 6.01299,-13.57187 6.01299,10.79544 13.44542,-1.15036 -9.72924,11.72974 z" />
			</defs>
			<clipPath
   id="SVGID_21_">
				<use
   xlink:href="#SVGID_20_"
   style="overflow:visible"
   id="use157563" />
			</clipPath>
			<g
   class="st16"
   clip-path="url(#SVGID_21_)"
   id="g157568">
				<polygon
   class="st1"
   points="493.72229,173.09346 -33.98445,494.52063 -65.80992,428.95792 461.89679,107.53073 "
   id="polygon157566" />
			</g>
		</g>
	</g>
	<g
   id="_x2605__00000004530120211010648770000014232801799721284019_">
		<polygon
   points="419.70151,304.52475 404.15189,307.41705 415.90814,317.96948 413.88797,333.5708 427.51974,325.71848 441.77875,332.54779 438.49893,317.07257 449.3407,305.57669 433.65051,303.94196 426.09476,290.03842 "
   id="polygon157573" />
		<radialGradient
   id="SVGID_22_"
   cx="426.90134"
   cy="312.76172"
   r="11.86389"
   gradientUnits="userSpaceOnUse">
			<stop
   offset="0"
   style="stop-color:#FAFFC8"
   id="stop157575" />
			<stop
   offset="0.45"
   style="stop-color:#C8FF00"
   id="stop157577" />
			<stop
   offset="1"
   style="stop-color:#00A000"
   id="stop157579" />
		</radialGradient>
		<polygon
   class="st17"
   points="423.13483,308.86383 414.81339,310.41125 421.09103,316.04645 420.01068,324.39722 427.31015,320.19257 434.93076,323.84232 433.17899,315.57922 438.98932,309.41849 430.58029,308.5426 426.55093,301.12622 "
   id="polygon157582"
   style="fill:url(#SVGID_22_)" />
	</g>
	<g
   id="_x2605__00000051341717171786417440000006289075544971475356_">
		<polygon
   points="180.78952,269.24942 179.7939,283.06616 167.85835,290.13934 180.71304,295.32565 183.69629,308.85925 192.64705,298.25104 206.44519,299.58093 199.09196,287.80298 204.61566,275.10016 191.17299,278.41925 "
   id="polygon157585" />
		<radialGradient
   id="SVGID_23_"
   cx="187.86716"
   cy="288.84991"
   r="10.33079"
   gradientUnits="userSpaceOnUse">
			<stop
   offset="0"
   style="stop-color:#FFFFA0"
   id="stop157587" />
			<stop
   offset="0.55"
   style="stop-color:#FFFF00"
   id="stop157589" />
			<stop
   offset="1"
   style="stop-color:#FFC800"
   id="stop157591" />
		</radialGradient>
		<polygon
   class="st18"
   points="184.50932,278.3576 183.98375,285.6571 177.67705,289.39453 184.48013,292.13922 186.05688,299.29272 190.78697,293.68665 198.05727,294.38748 194.174,288.16824 197.09369,281.4527 189.99854,283.20447 "
   id="polygon157594"
   style="fill:url(#SVGID_23_)" />
	</g>
	<g
   id="_x2605__00000049921400270055945010000018317911051596641973_">
		<polygon
   points="8.96522,387.1319 11.08046,402.04294 0,412.2988 14.86609,414.87079 21.10692,428.59244 28.22351,415.23761 43.20895,413.47992 32.68442,402.64642 35.62426,387.84283 22.10357,394.50061 "
   id="polygon157597" />
		<radialGradient
   id="SVGID_24_"
   cx="21.67952"
   cy="406.9928"
   r="11.98836"
   gradientUnits="userSpaceOnUse">
			<stop
   offset="0"
   style="stop-color:#D9FFFF"
   id="stop157599" />
			<stop
   offset="0.42"
   style="stop-color:#96D2FF"
   id="stop157601" />
			<stop
   offset="1"
   style="stop-color:#00AAFF"
   id="stop157603" />
		</radialGradient>
		<polygon
   class="st19"
   points="14.52593,395.25519 15.72305,403.69342 9.44553,409.50381 17.88375,410.96371 21.4166,418.73041 25.44609,411.16806 33.91351,410.17535 27.9571,404.04379 29.62129,395.66394 21.9715,399.43051 "
   id="polygon157606"
   style="fill:url(#SVGID_24_)" />
	</g>
</g>
<g
   id="Rhythm_Heaven_x2122__1_"
   transform="scale(1.3333334)">
	<path
   id="_x2122__1_"
   class="st20"
   d="m 389.3125,210.80269 v -6.785 l -2.85251,0.65855 v -1.46278 l 7.54501,-1.7419 v 1.46278 l -2.74969,0.63481 v 6.785 z m 12.80289,-2.95577 v -6.88983 l -1.73206,7.2897 -1.87601,0.43311 -1.69092,-6.49945 v 6.88983 l -1.77319,0.40938 v -8.24779 l 2.77029,-0.63957 1.67038,6.15637 0.0205,-0.005 1.62927,-6.91815 2.73431,-0.63127 v 8.24779 z" />
	<path
   id="N_2_"
   class="st20"
   d="m 368.21652,136.20601 c 0,0 -0.11154,29.08444 -0.47354,34.20059 -0.56549,7.99136 -2.71277,8.20563 -4.53998,7.00696 -3.64606,-2.39186 -10.45862,-16.01283 -16.5585,-27.85794 l -8.89917,2.05453 v 73.60092 l 10.88171,-2.51224 0.0367,-18.67546 c 0.0188,-9.5865 2.63638,-10.2101 6.4397,-6.72777 2.88617,2.64256 6.81317,8.46965 13.00159,18.3782 l 14.39999,-3.32451 v -79.44205 z" />
	<path
   id="E_2_"
   class="st20"
   d="m 313.29053,209.93262 c -0.33017,0.002 -2.7746,-0.0814 -3.03601,-1.94637 -0.15137,-1.08003 0.36703,-2.09402 1.67117,-2.89178 2.03967,-1.24765 9.09985,-3.27676 15.87616,-4.86595 v -9.37041 c 0,0 -12.26987,2.95242 -16.04321,2.39125 -1.14609,-0.17044 -1.90945,-0.7762 -2.06116,-1.83511 -0.15506,-1.08226 0.39011,-2.05743 1.67117,-2.89177 3.45093,-2.24751 18.93997,-5.58893 18.93997,-5.58893 v -21.61926 l -31.89151,7.36273 -6e-5,57.63527 32.56,-7.51707 v -11.97681 c -8.69009,1.97424 -14.56406,3.09713 -17.68652,3.11421 z" />
	<path
   id="V_1_"
   class="st20"
   d="m 278.03366,166.93314 c 0,0 -3.45477,22.76198 -6.52243,33.28085 -0.87656,3.00562 -2.99518,7.60452 -5.87695,1.02884 -1.03214,-2.35516 -4.09598,-13.35872 -6.34457,-27.54437 l -9.94936,2.297 c 0.87074,9.75383 5.64697,36.09814 12.01067,51.44598 l 19.29596,-4.45483 c 7.10248,-18.79643 11.36401,-38.64949 12.81232,-59.61476 z" />
	<path
   id="A_1_"
   class="st20"
   d="m 243.78386,198.22365 c -4.82901,-8.89674 -10.4446,-7.0531 -13.32202,-6.10101 -3.77005,1.24744 -7.11626,3.18369 -10.61774,17.07251 -3.68063,14.59947 -7.69186,45.3027 -7.69186,45.3027 l 10.10164,-2.33215 1.04402,-5.85034 c 0.5013,-2.80836 2.28877,-4.59247 5.01346,-5.39421 2.62,-0.77095 7.82831,-2.03183 10.5006,-2.33563 1.12892,-0.12837 2.45544,0.76273 2.84102,2.53024 l 1.36473,6.25624 13.75934,-3.17659 c -10e-6,-1e-5 -6.8446,-34.64385 -12.99319,-45.97176 z m -8.50427,32.6288 -6.82004,1.57454 c -1.71088,0.39499 -2.7058,-0.6499 -2.49751,-3.09001 0.19492,-2.28342 1.19504,-7.12376 1.57532,-8.75826 0.84106,-3.6149 2.49399,-5.12161 4.43784,-5.3927 2.49171,-0.3475 4.66803,1.83051 5.85951,7.73479 0.1152,0.57083 0.40602,1.75551 0.59552,3.36555 0.23009,1.955 -0.72949,4.00711 -3.15064,4.56609 z" />
	<path
   id="E_1_"
   class="st20"
   d="m 189.84665,242.43166 c -0.33017,0.002 -2.77461,-0.0814 -3.03601,-1.94638 -0.15138,-1.08003 0.367,-2.09401 1.67117,-2.89177 2.03964,-1.24765 9.09984,-3.27676 15.87616,-4.86597 v -9.37041 c 0,0 -12.26987,2.95242 -16.04323,2.39127 -1.14607,-0.17044 -1.90944,-0.7762 -2.06116,-1.83511 -0.15508,-1.08226 0.39009,-2.05745 1.67117,-2.89178 3.45093,-2.24751 18.93997,-5.58891 18.93997,-5.58891 v -23.30443 l -31.89151,7.36273 -6e-5,57.63527 32.56001,-7.51707 v -10.29166 c -8.69008,1.97425 -14.56404,3.09714 -17.68651,3.11422 z" />
	<path
   id="H_2_"
   class="st20"
   d="m 150.28113,194.31822 c 0,11.50099 0.058,20.10863 -1.51756,25.74884 -0.95703,3.42612 -3.06378,6.03375 -5.87691,8.00795 -2.86539,2.01086 -5.73773,2.89177 -8.55086,2.94734 -3.43036,0.0678 -5.93779,-1.79875 -6.30428,-5.61028 -0.52647,-5.47533 -0.49181,-12.39484 -0.49181,-21.98305 l -12.45028,2.87437 v 84.8063 l 17.10166,-3.94821 c 0,-10.79282 0.2213,-18.74826 1.55156,-23.71011 0.90656,-3.38141 3.37234,-6.23517 5.86186,-7.91641 2.90945,-1.96477 5.58607,-2.94745 8.40489,-2.99319 3.4259,-0.0556 6.02715,1.71268 6.35037,5.12915 0.4735,5.00494 0.50436,11.81125 0.50436,21.09937 l 12.67226,-2.92563 v -85.51013 z" />
	<path
   id="M_1_"
   class="st21"
   d="m 356.51819,57.34014 c -5.30914,17.53096 -8.314,26.10289 -10.93167,33.32915 -4.46112,12.29565 -9.08823,7.46588 -11.2449,4.03709 -2.50708,-4.01869 -5.91739,-11.83484 -11.83478,-26.15826 l -14.61853,3.37495 v 68.81199 l 12.12982,-2.80038 c -0.0922,-10.9684 0.0922,-18.41579 0.68204,-21.30997 0.53467,-2.59923 2.10147,-2.96791 3.68686,-0.38712 1.30875,2.11997 3.37354,6.71013 7.48431,16.1485 l 8.12753,-1.87639 c 4.47955,-12.03757 6.89645,-18.10638 8.61087,-21.07432 1.38257,-2.41487 4.01868,-4.11082 4.81134,0.35027 0.60822,3.37349 0.55295,12.52533 0.53448,23.73335 l 12.57242,-2.90256 V 55.02921 Z" />
	<path
   id="H_1_"
   class="st21"
   d="m 286.57852,93.26901 c -0.0553,9.40144 -0.0369,17.97337 -0.44247,21.10722 -0.94019,7.48431 -13.73361,10.85777 -14.36035,3.96333 -0.29492,-3.24442 -0.55301,-7.53069 -0.55298,-17.09806 l -10.3418,2.38759 v 63.04515 l 13.18054,-3.04297 c 3e-5,-10.00978 3e-5,-14.35899 0.16595,-17.78773 0.46088,-9.03282 14.02847,-11.07899 15.20828,-3.22595 0.53458,3.57626 0.62674,5.29066 0.62671,13.36484 l 10.50754,-2.42586 V 90.03883 Z" />
	<path
   id="T_2_"
   class="st21"
   d="m 216.63875,98.4762 -6e-5,25.37663 7.35529,-1.6981 c 4.46095,-1.02989 6.30449,-0.44903 6.30449,7.44746 v 32.59586 l 12.07449,-2.78761 v -29.88197 c 0,-13.27299 1.2462,-16.62248 7.81615,-18.13927 l 6.00957,-1.38741 6e-5,-20.65871 z" />
	<path
   id="Y_1_"
   class="st21"
   d="m 211.69833,115.23646 -11.28188,2.60462 c 0,0 0.16588,11.61354 -0.27644,20.16702 -0.64536,12.51692 -13.25435,15.20827 -14.26816,3.29974 -0.51619,-6.24924 -0.75575,-18.70507 -0.75575,-18.70507 l -14.02847,3.23872 v 10.15722 c -8e-5,24.24104 15.76111,27.22748 24.00128,20.31462 0.49774,-0.42398 0.9955,-0.68205 1.401,-0.49773 0.46086,0.20279 0.44241,0.70053 0.25815,1.62222 -0.49774,2.41487 -4.07402,7.18938 -11.30023,9.12492 -5.51192,1.47473 -10.91316,2.40497 -13.60451,2.82893 v 16.82195 c 12.1297,-1.56685 26.17656,-5.03246 32.72079,-15.09756 3.41035,-5.25375 5.19856,-10.80249 6.08339,-19.02415 1.38261,-12.94083 1.05083,-36.85545 1.05083,-36.85545 z" />
	<path
   id="H_3_"
   class="st21"
   d="m 150.21999,114.19093 c -0.0553,9.40144 -0.0369,17.97337 -0.44246,21.10722 -0.94019,7.48431 -13.7336,10.85779 -14.36035,3.96333 -0.29494,-3.2444 -0.55302,-7.53069 -0.55299,-17.09806 l -10.34179,2.38758 -1e-5,63.04514 13.18053,-3.04297 c 3e-5,-10.00978 5e-5,-14.35898 0.16597,-17.78772 0.46088,-9.03282 14.02847,-11.07899 15.20827,-3.22595 0.53458,3.57626 0.62675,5.29065 0.62674,13.36484 l 10.50754,-2.42586 -2e-5,-63.51774 z" />
	<path
   id="R_1_"
   class="st21"
   d="m 118.01524,127.09483 c 7e-5,-26.60069 -26.02928,-34.32468 -57.86536,-22.95078 v 85.86899 l 13.56764,-3.13232 6e-5,-21.49803 c 1e-5,-3.28131 2.4149,-2.70984 4.64544,-0.71895 1.56692,1.40103 10.98685,10.52596 17.56786,17.08862 l 20.71256,-4.78188 c 0,0 -18.05795,-18.44531 -20.14107,-20.27028 12.12981,-4.53479 21.51284,-16.35257 21.51287,-29.60537 z m -36.4446,25.01522 c -5.03256,1.17976 -7.83457,-1.62221 -7.83456,-7.61337 l 2e-5,-5.78835 c -2.6e-4,-4.17491 0.8111,-7.7977 4.53483,-8.97746 10.81174,-3.42537 18.34215,1.23511 18.34213,8.55348 -2e-5,6.83914 -5.23534,11.52141 -15.04242,13.8257 z" />
</g>
</svg>
