<?xml version="1.0" encoding="UTF-8" standalone="no"?>
<!-- Generator: Adobe Illustrator 25.0.0, SVG Export Plug-In . SVG Version: 6.00 Build 0)  -->

<svg
   version="1.1"
   id="Layer_1"
   x="0px"
   y="0px"
   viewBox="0 0 666.66669 564.32794"
   xml:space="preserve"
   sodipodi:docname="Rhythm Paradise Megashit Logo.svg"
   width="666.66669"
   height="564.32794"
   inkscape:version="1.2.2 (b0a8486541, 2022-12-01)"
   xmlns:inkscape="http://www.inkscape.org/namespaces/inkscape"
   xmlns:sodipodi="http://sodipodi.sourceforge.net/DTD/sodipodi-0.dtd"
   xmlns:xlink="http://www.w3.org/1999/xlink"
   xmlns="http://www.w3.org/2000/svg"
   xmlns:svg="http://www.w3.org/2000/svg"><defs
   id="defs159631" /><sodipodi:namedview
   id="namedview159629"
   pagecolor="#505050"
   bordercolor="#eeeeee"
   borderopacity="1"
   inkscape:showpageshadow="0"
   inkscape:pageopacity="0"
   inkscape:pagecheckerboard="0"
   inkscape:deskcolor="#505050"
   showgrid="false"
   inkscape:zoom="2.8635833"
   inkscape:cx="249.86177"
   inkscape:cy="211.62297"
   inkscape:window-width="2560"
   inkscape:window-height="1414"
   inkscape:window-x="0"
   inkscape:window-y="0"
   inkscape:window-maximized="1"
   inkscape:current-layer="Layer_1" />
<style
   type="text/css"
   id="style159391">
	.st0{fill:#0096E6;}
	.st1{fill:#FFFFFF;}
	.st2{fill:url(#SVGID_1_);}
	.st3{opacity:0.2;}
	.st4{clip-path:url(#SVGID_3_);}
	.st5{fill:url(#SVGID_4_);}
	.st6{clip-path:url(#SVGID_6_);}
	.st7{fill:url(#SVGID_7_);}
	.st8{clip-path:url(#SVGID_9_);}
	.st9{fill:url(#SVGID_10_);}
	.st10{clip-path:url(#SVGID_12_);}
	.st11{fill:url(#SVGID_13_);}
	.st12{clip-path:url(#SVGID_15_);}
	.st13{fill:url(#SVGID_16_);}
	.st14{clip-path:url(#SVGID_18_);}
	.st15{fill:url(#SVGID_19_);}
	.st16{clip-path:url(#SVGID_21_);}
	.st17{fill:url(#SVGID_22_);}
	.st18{clip-path:url(#SVGID_24_);}
	.st19{fill:url(#SVGID_25_);}
	.st20{fill:url(#SVGID_26_);}
	.st21{fill:url(#SVGID_27_);}
	.st22{fill:#FF5500;}
	.st23{fill:#FFAA00;}
</style>
<g
   id="Cloud"
   transform="scale(1.3333334)">
	<path
   id="Light_Blue"
   class="st0"
   d="m 483.43408,161.91016 c 0,-39.73304 -24.55417,-73.81232 -59.22488,-87.75188 C 412.50317,31.44156 373.82983,0 328.05029,0 290.81662,0 258.28521,20.80028 241.13713,51.54691 230.53181,47.87964 219.15483,45.88183 207.319,45.88183 c -18.73576,0 -36.32715,4.99392 -51.51579,13.71953 -13.62158,-7.16833 -29.11962,-11.23367 -45.55155,-11.23367 -54.11625,0 -98.14333,44.02708 -98.14333,98.14333 0,11.42403 1.96874,22.3952 5.57341,32.60066 C 6.61055,194.02661 0.038,212.56973 0.038,232.64384 c 0,42.53145 29.49525,78.19347 68.80392,87.01485 17.83083,20.8869 45.5957,34.33887 76.73015,34.33887 21.0612,0 40.57996,-6.15698 56.52623,-16.60513 11.98108,5.06052 25.26877,7.87955 39.24788,7.87955 23.47554,0 44.99788,-7.95264 61.65804,-21.12067 7.05011,1.49069 111.41751,-30.73169 123.60678,-75.49603 33.3969,-14.52314 56.82308,-47.93658 56.82308,-86.74512 z" />
	<path
   id="White"
   class="st1"
   d="m 472.10583,161.91016 c 0,-36.99254 -24.17419,-68.40659 -57.48001,-79.16933 -8.4191,-40.73351 -44.03732,-71.41258 -86.57553,-71.41258 -36.48386,0 -67.87704,22.56721 -81.38716,54.68898 -11.94487,-5.64397 -25.2813,-8.80715 -39.34413,-8.80715 -18.9576,0 -36.59808,5.7418 -51.28238,15.57331 -13.30035,-8.28943 -28.99164,-13.08745 -45.78497,-13.08745 -47.87023,0 -86.81509,38.94486 -86.81509,86.81509 0,12.28481 2.5703,23.97902 7.19269,34.58086 -11.97238,13.73593 -19.26351,31.78944 -19.26351,51.55197 0,38.45921 27.57272,70.46941 63.65138,76.67769 15.5604,20.14359 41.38259,33.34781 70.55493,33.34781 21.06807,0 40.38744,-6.88943 55.35881,-18.30237 12.00737,6.10007 25.77998,9.57675 40.4153,9.57675 22.8268,0 43.55,-8.45758 58.74467,-22.15009 7.89209,2.15366 16.19116,3.31021 24.75659,3.31021 45.28906,0 83.20667,-32.15143 92.13565,-74.82738 32.0826,-11.45721 55.12276,-42.25257 55.12276,-78.36632 z" />
	<path
   id="Black"
   d="m 465.43027,161.91016 c 0,-35.47952 -24.04138,-65.30674 -56.64105,-73.94574 -6.25229,-39.65849 -40.01337,-69.96025 -80.73904,-69.96025 -36.3093,0 -67.07425,24.09097 -77.75462,57.41899 -12.6368,-7.33479 -27.31566,-11.53717 -42.97679,-11.53717 -19.18076,0 -36.88976,6.30079 -51.17551,16.94411 -13.00143,-9.10124 -28.81648,-14.45813 -45.89159,-14.45813 -44.25964,0 -80.13916,35.87952 -80.13916,80.13916 0,12.86249 3.04738,25.00725 8.43297,35.77927 -12.66477,12.87395 -20.5033,30.68005 -20.5033,50.35381 0,36.13017 26.43714,65.94521 60.6619,70.48872 14.09516,19.75348 38.76585,32.86072 66.868,32.86072 21.18327,0 40.41179,-7.45541 54.6411,-19.58017 11.92799,6.86942 26.02098,10.85431 41.13301,10.85431 22.53127,0 42.81093,-8.83609 56.99126,-22.93561 8.3624,2.65729 17.26785,4.09549 26.51022,4.09549 43.46014,0 79.50961,-31.70404 86.29785,-73.2444 31.39366,-9.42439 54.28475,-38.65487 54.28475,-73.27311 z" />
</g>
<g
   id="Megashit_00000097500153362693377600000012307940062965598607_"
   transform="scale(1.3333334)">
	<g
   id="T_00000025418145632679367430000010441988929253086376_">
		<polygon
   points="484.64093,240.40562 500,236.85971 500,200.45186 434.24429,215.63275 434.24429,302.40344 484.64093,290.76846 "
   id="polygon159397" />
		
			<linearGradient
   id="SVGID_1_"
   gradientUnits="userSpaceOnUse"
   x1="434.28775"
   y1="289.45331"
   x2="489.67981"
   y2="302.24158"
   gradientTransform="matrix(1,-0.23087,0,1,0,60.50049)">
			<stop
   offset="0"
   style="stop-color:#FF8C3C"
   id="stop159399" />
			<stop
   offset="0.75"
   style="stop-color:#FF5A00"
   id="stop159401" />
		</linearGradient>
		<path
   class="st2"
   d="m 478.21564,235.46359 v 50.36325 l -22.49667,5.19376 v -50.36324 l -15.04947,3.47444 v -23.557 l 52.90591,-12.21429 v 23.55701 z"
   id="path159404"
   style="fill:url(#SVGID_1_)" />
		<g
   class="st3"
   id="g159416">
			<defs
   id="defs159407">
				<path
   id="SVGID_2_"
   class="st3"
   d="m 478.21564,235.46359 v 50.36325 l -22.49667,5.19376 v -50.36324 l -15.04947,3.47444 v -23.557 l 52.90591,-12.21429 v 23.55701 z" />
			</defs>
			<clipPath
   id="SVGID_3_">
				<use
   xlink:href="#SVGID_2_"
   style="overflow:visible"
   id="use159409" />
			</clipPath>
			<g
   class="st4"
   clip-path="url(#SVGID_3_)"
   id="g159414">
				<polygon
   class="st1"
   points="571.44824,253.0224 77.96503,551.56311 49.46285,497.32239 542.97333,198.75441 "
   id="polygon159412" />
			</g>
		</g>
	</g>
	<g
   id="I_00000047745470021215564360000011914186736382909072_">
		<polygon
   points="439.99286,222.24242 404.74976,230.37892 404.74976,317.14963 439.99286,309.01312 "
   id="polygon159419" />
		
			<linearGradient
   id="SVGID_4_"
   gradientUnits="userSpaceOnUse"
   x1="411.17447"
   y1="306.70782"
   x2="433.56766"
   y2="306.70782"
   gradientTransform="matrix(1,-0.23087,0,1,0,60.50049)">
			<stop
   offset="0"
   style="stop-color:#AA37BE"
   id="stop159421" />
			<stop
   offset="1"
   style="stop-color:#5F14A5"
   id="stop159423" />
		</linearGradient>
		<path
   class="st5"
   d="m 433.56766,230.1512 v 73.92024 l -22.39319,5.16989 v -73.92026 z"
   id="path159426"
   style="fill:url(#SVGID_4_)" />
		<g
   class="st3"
   id="g159438">
			<defs
   id="defs159429">
				<path
   id="SVGID_5_"
   class="st3"
   d="m 433.56766,230.1512 v 73.92024 l -22.39319,5.16989 v -73.92026 z" />
			</defs>
			<clipPath
   id="SVGID_6_">
				<use
   xlink:href="#SVGID_5_"
   style="overflow:visible"
   id="use159431" />
			</clipPath>
			<g
   class="st6"
   clip-path="url(#SVGID_6_)"
   id="g159436">
				<polygon
   class="st1"
   points="571.44824,253.0224 77.96503,551.56311 49.46285,497.32239 542.97333,198.75441 "
   id="polygon159434" />
			</g>
		</g>
	</g>
	<g
   id="H_00000093890599040613910910000017405506889819149977_">
		<polygon
   points="410.77527,222.89322 339.17548,239.42334 339.17548,326.19403 410.77527,309.66391 "
   id="polygon159441" />
		
			<linearGradient
   id="SVGID_7_"
   gradientUnits="userSpaceOnUse"
   x1="345.60034"
   y1="300.61322"
   x2="404.35022"
   y2="300.61322"
   gradientTransform="matrix(1,-0.23087,0,1,0,60.50049)">
			<stop
   offset="0"
   style="stop-color:#FFFF00"
   id="stop159443" />
			<stop
   offset="0.75"
   style="stop-color:#FFBE00"
   id="stop159445" />
		</linearGradient>
		<path
   class="st7"
   d="m 381.85358,282.18915 -13.86002,3.19983 v 27.72687 l -22.39322,5.16986 v -73.92024 l 22.39322,-5.16989 v 23.82777 l 13.86002,-3.19983 v -23.82777 l 22.49664,-5.19376 v 73.92024 l -22.49664,5.19376 z"
   id="path159448"
   style="fill:url(#SVGID_7_)" />
		<g
   class="st3"
   id="g159462">
			<defs
   id="defs159451">
				<path
   id="SVGID_8_"
   class="st3"
   d="m 381.85358,282.18915 -13.86002,3.19983 v 27.72687 l -22.39322,5.16986 v -73.92024 l 22.39322,-5.16989 v 23.82777 l 13.86002,-3.19983 v -23.82777 l 22.49664,-5.19376 v 73.92024 l -22.49664,5.19376 z" />
			</defs>
			<clipPath
   id="SVGID_9_">
				<use
   xlink:href="#SVGID_8_"
   style="overflow:visible"
   id="use159453" />
			</clipPath>
			<g
   class="st8"
   clip-path="url(#SVGID_9_)"
   id="g159460">
				<polygon
   class="st1"
   points="488.22031,176.43144 -4.72768,476.68701 -34.45689,415.44272 458.49109,115.18716 "
   id="polygon159456" />
				<polygon
   class="st1"
   points="571.44824,253.0224 77.96503,551.56311 49.46285,497.32239 542.97333,198.75441 "
   id="polygon159458" />
			</g>
		</g>
	</g>
	<g
   id="S_00000010995124142449895920000004498150421753820044_">
		<path
   d="m 340.90616,248.91263 c -3.63519,-0.67293 -7.40643,-0.56944 -11.20856,0.30835 -8.76807,2.02426 -16.22568,7.10712 -22.173,15.12039 -5.40503,7.311 -12.95526,44.39853 -12.95526,44.39853 v 35.466 l 4.3985,0.4465 c 4.2229,0.42917 8.38498,0.17947 12.37045,-0.74063 8.2518,-1.90509 15.42761,-6.39502 21.3161,-13.32935 6.79654,-7.97 10.24258,-16.7713 10.24258,-26.15891 0,-6.29089 1.96573,-20.78271 1.96573,-20.78271 v -33.99532 z"
   id="path159465" />
		
			<linearGradient
   id="SVGID_10_"
   gradientUnits="userSpaceOnUse"
   x1="300.99454"
   y1="310.06311"
   x2="338.43723"
   y2="310.06311"
   gradientTransform="matrix(1,-0.23087,0,1,0,60.50049)">
			<stop
   offset="0"
   style="stop-color:#C8F000"
   id="stop159467" />
			<stop
   offset="0.8"
   style="stop-color:#14B400"
   id="stop159469" />
		</linearGradient>
		<path
   class="st9"
   d="m 300.99454,338.08783 v -21.49918 c 2.17209,0.32892 4.12006,0.29437 5.84396,-0.10364 1.68939,-0.39001 3.1633,-1.30795 4.42175,-2.75375 1.25842,-1.44583 1.88763,-2.96298 1.88763,-4.55151 0,-1.37189 -0.79297,-3.31888 -2.37894,-5.84094 -3.30988,-5.30112 -4.96478,-10.74963 -4.96478,-16.34555 0,-7.11224 2.17209,-13.60675 6.51627,-19.48355 4.68896,-6.31741 10.4812,-10.27209 17.37671,-11.86406 2.96509,-0.68454 5.87845,-0.76144 8.74008,-0.23071 v 20.9576 c -1.37909,-0.11484 -2.55133,-0.0608 -3.51672,0.16205 -1.79282,0.41391 -3.23227,1.33292 -4.3183,2.75699 -1.08606,1.42407 -1.62909,3.11087 -1.62909,5.06042 0,1.11917 0.17239,2.10831 0.51718,2.96738 0.34476,0.85907 1.10327,2.14612 2.27551,3.86111 3.13745,4.65497 4.70621,9.56378 4.70621,14.72647 0,7.58157 -2.74097,14.58649 -8.22293,21.0148 -4.68893,5.52316 -10.32605,9.04489 -16.91125,10.56522 -3.30988,0.76412 -6.75763,0.96441 -10.34329,0.60085 z"
   id="path159472"
   style="fill:url(#SVGID_10_)" />
		<g
   class="st3"
   id="g159484">
			<defs
   id="defs159475">
				<path
   id="SVGID_11_"
   class="st3"
   d="m 300.99454,338.08783 v -21.49918 c 2.17209,0.32892 4.12006,0.29437 5.84396,-0.10364 1.68939,-0.39001 3.1633,-1.30795 4.42175,-2.75375 1.25842,-1.44583 1.88763,-2.96298 1.88763,-4.55151 0,-1.37189 -0.79297,-3.31888 -2.37894,-5.84094 -3.30988,-5.30112 -4.96478,-10.74963 -4.96478,-16.34555 0,-7.11224 2.17209,-13.60675 6.51627,-19.48355 4.68896,-6.31741 10.4812,-10.27209 17.37671,-11.86406 2.96509,-0.68454 5.87845,-0.76144 8.74008,-0.23071 v 20.9576 c -1.37909,-0.11484 -2.55133,-0.0608 -3.51672,0.16205 -1.79282,0.41391 -3.23227,1.33292 -4.3183,2.75699 -1.08606,1.42407 -1.62909,3.11087 -1.62909,5.06042 0,1.11917 0.17239,2.10831 0.51718,2.96738 0.34476,0.85907 1.10327,2.14612 2.27551,3.86111 3.13745,4.65497 4.70621,9.56378 4.70621,14.72647 0,7.58157 -2.74097,14.58649 -8.22293,21.0148 -4.68893,5.52316 -10.32605,9.04489 -16.91125,10.56522 -3.30988,0.76412 -6.75763,0.96441 -10.34329,0.60085 z" />
			</defs>
			<clipPath
   id="SVGID_12_">
				<use
   xlink:href="#SVGID_11_"
   style="overflow:visible"
   id="use159477" />
			</clipPath>
			<g
   class="st10"
   clip-path="url(#SVGID_12_)"
   id="g159482">
				<polygon
   class="st1"
   points="488.22031,176.43144 -4.72768,476.68701 -34.45689,415.44272 458.49109,115.18716 "
   id="polygon159480" />
			</g>
		</g>
	</g>
	<g
   id="A_00000088132194609141221120000011813474450706307241_">
		<path
   d="m 293.17651,264.95139 c -6.42197,-7.12183 -17.17606,-9.98473 -28.06531,-7.47073 -10.87573,2.51083 -21.62212,10.33655 -28.04552,20.42395 -5.52328,8.67206 -7.5769,16.58746 -7.5769,29.20551 v 47.16321 l 71.24486,-16.44815 v -47.16324 c 0,-12.6335 -2.04831,-19.60191 -7.55713,-25.71055 z"
   id="path159487" />
		
			<linearGradient
   id="SVGID_13_"
   gradientUnits="userSpaceOnUse"
   x1="235.91345"
   y1="302.47681"
   x2="294.30884"
   y2="302.47681"
   gradientTransform="matrix(1,-0.23087,0,1,0,60.49382)">
			<stop
   offset="0"
   style="stop-color:#6EE6FF"
   id="stop159489" />
			<stop
   offset="0.85"
   style="stop-color:#00A0FF"
   id="stop159491" />
		</linearGradient>
		<path
   class="st11"
   d="m 288.02756,269.98267 c -5.28323,-5.85818 -14.05206,-8.12384 -22.91641,-6.07733 -8.86429,2.04648 -17.61996,8.3678 -22.89723,16.65421 -4.62517,7.26254 -6.30046,13.85544 -6.30046,25.06754 v 40.73822 l 22.3381,-5.15717 V 324.9852 l 13.71918,-3.14716 v 16.20276 l 22.3381,-5.15717 v -40.73819 c 0,-11.21212 -1.66376,-17.04278 -6.28128,-22.16277 z m -15.49945,33.87625 -7.41696,-2.37149 -7.41696,5.79617 1.39053,-9.02283 -5.9745,-4.79855 8.27635,-3.20493 3.72458,-8.76187 3.72458,7.04208 8.27637,-0.61655 -5.97452,7.55719 z"
   id="path159494"
   style="fill:url(#SVGID_13_)" />
		<g
   class="st3"
   id="g159506">
			<defs
   id="defs159497">
				<path
   id="SVGID_14_"
   class="st3"
   d="m 288.02756,269.98267 c -5.28323,-5.85818 -14.05206,-8.12384 -22.91641,-6.07733 -8.86429,2.04648 -17.61996,8.3678 -22.89723,16.65421 -4.62517,7.26254 -6.30046,13.85544 -6.30046,25.06754 v 40.73822 l 22.3381,-5.15717 V 324.9852 l 13.71918,-3.14716 v 16.20276 l 22.3381,-5.15717 v -40.73819 c 0,-11.21212 -1.66376,-17.04278 -6.28128,-22.16277 z m -15.49945,33.87625 -7.41696,-2.37149 -7.41696,5.79617 1.39053,-9.02283 -5.9745,-4.79855 8.27635,-3.20493 3.72458,-8.76187 3.72458,7.04208 8.27637,-0.61655 -5.97452,7.55719 z" />
			</defs>
			<clipPath
   id="SVGID_15_">
				<use
   xlink:href="#SVGID_14_"
   style="overflow:visible"
   id="use159499" />
			</clipPath>
			<g
   class="st12"
   clip-path="url(#SVGID_15_)"
   id="g159504">
				<polygon
   class="st1"
   points="488.22031,176.43144 -4.72768,476.68701 -34.45689,415.44272 458.49109,115.18716 "
   id="polygon159502" />
			</g>
		</g>
	</g>
	<g
   id="G_00000093166422709984804910000003927688650719084172_">
		<path
   d="m 230.41302,274.74445 c -7.37564,0.224 -12.47856,0.8519 -18.82861,2.31793 -14.40187,3.32492 -25.56766,10.27255 -34.13542,21.24112 -7.81822,10.00885 -12.30191,22.67068 -12.30191,34.73853 0,12.57364 4.7612,23.1301 13.40619,29.72614 8.70241,6.64072 18.47484,8.0748 32.67641,4.79611 6.21104,-1.43393 10.85547,-3.00714 19.11337,-6.47546 l 5.23129,-2.19714 v -84.30402 z"
   id="path159509" />
		
			<linearGradient
   id="SVGID_16_"
   gradientUnits="userSpaceOnUse"
   x1="1191.8359"
   y1="4273.9238"
   x2="1249.5454"
   y2="4261.0698"
   gradientTransform="matrix(0.9523,0.0031,-0.2099,1.04947,-66.31673,-4157.5234)">
			<stop
   offset="0"
   style="stop-color:#FF8232"
   id="stop159511" />
			<stop
   offset="0.75"
   style="stop-color:#C80000"
   id="stop159513" />
		</linearGradient>
		<path
   class="st13"
   d="m 229.14925,355.05115 c -7.4733,3.13895 -11.9091,4.70029 -17.91951,6.08789 -12.55431,2.89838 -20.70026,1.70917 -28.14761,-3.97333 -7.41759,-5.65976 -11.50996,-14.72275 -11.50996,-25.60745 0,-10.41898 3.76941,-21.24429 10.52806,-29.89648 7.37019,-9.43506 16.74303,-15.23273 29.48407,-18.17422 5.5905,-1.29068 10.28261,-1.9313 17.56496,-2.15179 v 23.1626 c -6.84596,0.13852 -11.11777,0.66101 -16.36487,1.87241 -12.21912,2.82098 -19.14693,10.09982 -19.14693,20.1348 0,8.43427 5.18225,13.33575 13.17377,12.59683 v -22.04434 l 22.33803,-5.15717 v 43.15025 z"
   id="path159516"
   style="fill:url(#SVGID_16_)" />
		<g
   class="st3"
   id="g159528">
			<defs
   id="defs159519">
				<path
   id="SVGID_17_"
   class="st3"
   d="m 229.14925,355.05115 c -7.4733,3.13895 -11.9091,4.70029 -17.91951,6.08789 -12.55431,2.89838 -20.70026,1.70917 -28.14761,-3.97333 -7.41759,-5.65976 -11.50996,-14.72275 -11.50996,-25.60745 0,-10.41898 3.76941,-21.24429 10.52806,-29.89648 7.37019,-9.43506 16.74303,-15.23273 29.48407,-18.17422 5.5905,-1.29068 10.28261,-1.9313 17.56496,-2.15179 v 23.1626 c -6.84596,0.13852 -11.11777,0.66101 -16.36487,1.87241 -12.21912,2.82098 -19.14693,10.09982 -19.14693,20.1348 0,8.43427 5.18225,13.33575 13.17377,12.59683 v -22.04434 l 22.33803,-5.15717 v 43.15025 z" />
			</defs>
			<clipPath
   id="SVGID_18_">
				<use
   xlink:href="#SVGID_17_"
   style="overflow:visible"
   id="use159521" />
			</clipPath>
			<g
   class="st14"
   clip-path="url(#SVGID_18_)"
   id="g159526">
				<polygon
   class="st1"
   points="488.22031,176.43144 -4.72768,476.68701 -34.45689,415.44272 458.49109,115.18716 "
   id="polygon159524" />
			</g>
		</g>
	</g>
	<g
   id="E_00000013878832237012640600000001705909344127187123_">
		<path
   d="m 143.25227,287.06189 c -9.40369,2.12082 -16.46031,5.73749 -21.59895,10.99246 -6.48856,6.63516 -10.21017,15.50613 -10.21017,24.33936 0,6.17773 1.63132,10.53867 5.25591,13.56586 -4.07828,5.27563 -5.9649,11.13699 -5.9649,18.15549 0,8.70001 3.0382,15.20435 8.7864,18.81174 6.22456,3.90573 12.8222,3.45593 21.44932,1.4642 l 29.90851,-6.90494 V 280.6839 Z"
   id="path159531" />
		
			<linearGradient
   id="SVGID_19_"
   gradientUnits="userSpaceOnUse"
   x1="1135.7451"
   y1="4278.8394"
   x2="1183.1964"
   y2="4268.2705"
   gradientTransform="matrix(0.9523,0.0031,-0.2099,1.04947,-66.31673,-4157.5229)">
			<stop
   offset="0"
   style="stop-color:#C8F000"
   id="stop159533" />
			<stop
   offset="0.8"
   style="stop-color:#14B400"
   id="stop159535" />
		</linearGradient>
		<path
   class="st15"
   d="m 140.96982,367.96628 c -8.75522,2.02109 -13.10061,1.7319 -17.26495,-0.88126 -4.34743,-2.72809 -6.54596,-7.68945 -6.54596,-14.45361 0,-8.18243 2.83658,-13.50195 10.30988,-19.20474 -7.06417,-2.0434 -9.60074,-5.3428 -9.60074,-12.51611 0,-6.98233 2.85044,-13.70575 7.77332,-18.7402 3.88402,-3.97205 9.68256,-6.87625 17.59225,-8.67886 l 21.2198,-4.89899 v 20.8374 l -14.89203,3.43808 c -5.89137,1.36014 -7.69153,2.73923 -7.69153,5.95761 0,3.21841 1.80016,3.7663 7.69153,2.40616 l 14.89203,-3.43808 -2e-5,15.62149 -14.89201,3.43808 c -5.89137,1.36014 -6.49142,4.12372 -6.49142,5.67834 0,1.66376 0.60005,4.07611 6.49142,2.716 l 14.89203,-3.43811 v 20.73517 z"
   id="path159538"
   style="fill:url(#SVGID_19_)" />
		<g
   class="st3"
   id="g159550">
			<defs
   id="defs159541">
				<path
   id="SVGID_20_"
   class="st3"
   d="m 140.96982,367.96628 c -8.75522,2.02109 -13.10061,1.7319 -17.26495,-0.88126 -4.34743,-2.72809 -6.54596,-7.68945 -6.54596,-14.45361 0,-8.18243 2.83658,-13.50195 10.30988,-19.20474 -7.06417,-2.0434 -9.60074,-5.3428 -9.60074,-12.51611 0,-6.98233 2.85044,-13.70575 7.77332,-18.7402 3.88402,-3.97205 9.68256,-6.87625 17.59225,-8.67886 l 21.2198,-4.89899 v 20.8374 l -14.89203,3.43808 c -5.89137,1.36014 -7.69153,2.73923 -7.69153,5.95761 0,3.21841 1.80016,3.7663 7.69153,2.40616 l 14.89203,-3.43808 -2e-5,15.62149 -14.89201,3.43808 c -5.89137,1.36014 -6.49142,4.12372 -6.49142,5.67834 0,1.66376 0.60005,4.07611 6.49142,2.716 l 14.89203,-3.43811 v 20.73517 z" />
			</defs>
			<clipPath
   id="SVGID_21_">
				<use
   xlink:href="#SVGID_20_"
   style="overflow:visible"
   id="use159543" />
			</clipPath>
			<g
   class="st16"
   clip-path="url(#SVGID_21_)"
   id="g159548">
				<polygon
   class="st1"
   points="488.22031,176.43144 -4.72768,476.68701 -34.45689,415.44272 458.49109,115.18716 "
   id="polygon159546" />
			</g>
		</g>
	</g>
	<g
   id="M_00000081647093195280493480000014035226258231994519_">
		<path
   d="m 107.76884,312.22241 c -6.7294,-6.18304 -15.86571,-8.16364 -26.42193,-5.72653 -5.76461,1.33087 -10.74155,3.63147 -15.6963,7.30438 -4.95522,-1.38501 -9.93265,-1.38745 -15.69678,-0.0567 -10.55622,2.43707 -19.69253,8.63623 -26.42193,17.92648 -6.86357,9.47473 -9.29606,18.12143 -9.29606,33.04263 V 410.5805 L 117.0649,386.84054 v -45.86783 c 0,-14.9212 -2.43248,-22.44473 -9.29606,-28.7503 z"
   id="path159553" />
		
			<linearGradient
   id="SVGID_22_"
   gradientUnits="userSpaceOnUse"
   x1="12.4552"
   y1="309.07318"
   x2="112.84118"
   y2="309.07312"
   gradientTransform="matrix(1,-0.23087,0,1,0,60.49382)">
			<stop
   offset="0"
   style="stop-color:#FFFF00"
   id="stop159555" />
			<stop
   offset="0.75"
   style="stop-color:#FFBE00"
   id="stop159557" />
		</linearGradient>
		<path
   class="st17"
   d="m 102.92142,317.55743 c -5.48999,-5.04422 -12.89857,-6.63998 -21.57433,-4.63702 -5.82584,1.345 -10.51448,3.7804 -15.69666,8.28244 -5.18219,-2.10925 -9.84295,-2.38617 -15.69666,-1.03473 -8.64999,1.99701 -16.08434,7.01953 -21.57439,14.59869 -5.77408,7.97128 -7.71874,15.07599 -7.71874,28.46271 v 39.44327 l 22.47431,-5.1886 v -43.71481 c 0,-6.58765 2.12326,-9.34384 5.59142,-10.14453 3.46816,-0.80069 5.68687,0.95306 5.68687,7.54071 v 43.71484 l 22.47435,-5.18863 v -43.71481 c 0,-6.58765 2.21875,-9.36588 5.68684,-10.16656 3.46822,-0.80069 5.59144,0.97513 5.59144,7.56274 v 43.71484 l 22.47435,-5.18863 v -39.44327 c 1e-5,-13.38671 -1.94466,-19.59347 -7.7188,-24.89865 z"
   id="path159560"
   style="fill:url(#SVGID_22_)" />
		<g
   class="st3"
   id="g159572">
			<defs
   id="defs159563">
				<path
   id="SVGID_23_"
   class="st3"
   d="m 102.92142,317.55743 c -5.48999,-5.04422 -12.89857,-6.63998 -21.57433,-4.63702 -5.82584,1.345 -10.51448,3.7804 -15.69666,8.28244 -5.18219,-2.10925 -9.84295,-2.38617 -15.69666,-1.03473 -8.64999,1.99701 -16.08434,7.01953 -21.57439,14.59869 -5.77408,7.97128 -7.71874,15.07599 -7.71874,28.46271 v 39.44327 l 22.47431,-5.1886 v -43.71481 c 0,-6.58765 2.12326,-9.34384 5.59142,-10.14453 3.46816,-0.80069 5.68687,0.95306 5.68687,7.54071 v 43.71484 l 22.47435,-5.18863 v -43.71481 c 0,-6.58765 2.21875,-9.36588 5.68684,-10.16656 3.46822,-0.80069 5.59144,0.97513 5.59144,7.56274 v 43.71484 l 22.47435,-5.18863 v -39.44327 c 1e-5,-13.38671 -1.94466,-19.59347 -7.7188,-24.89865 z" />
			</defs>
			<clipPath
   id="SVGID_24_">
				<use
   xlink:href="#SVGID_23_"
   style="overflow:visible"
   id="use159565" />
			</clipPath>
			<g
   class="st18"
   clip-path="url(#SVGID_24_)"
   id="g159570">
				<polygon
   class="st1"
   points="488.22031,176.43144 -4.72768,476.68701 -34.45689,415.44272 458.49109,115.18716 "
   id="polygon159568" />
			</g>
		</g>
	</g>
	<g
   id="_x2605__00000040542502895594008980000008547189874425788585_">
		<polygon
   points="401.6684,301.58258 387.14297,304.28439 398.12488,314.14175 396.23776,328.71542 408.97165,321.38031 422.29144,327.75983 419.22766,313.30389 429.35532,302.56522 414.69861,301.03818 407.64053,288.05042 "
   id="polygon159575" />
		<radialGradient
   id="SVGID_25_"
   cx="408.39398"
   cy="309.27698"
   r="11.08244"
   gradientUnits="userSpaceOnUse">
			<stop
   offset="0"
   style="stop-color:#FAFFC8"
   id="stop159577" />
			<stop
   offset="0.45"
   style="stop-color:#C8FF00"
   id="stop159579" />
			<stop
   offset="1"
   style="stop-color:#00A000"
   id="stop159581" />
		</radialGradient>
		<polygon
   class="st19"
   points="404.87558,305.63586 397.10223,307.08136 402.9664,312.34534 401.95718,320.14609 408.77588,316.21838 415.89453,319.62775 414.25815,311.90894 419.68576,306.15396 411.8306,305.33578 408.06665,298.4079 "
   id="polygon159584"
   style="fill:url(#SVGID_25_)" />
	</g>
	<g
   id="_x2605__00000021111600942016354720000014308090122250428600_">
		<polygon
   points="192.12645,261.02316 191.19641,273.92984 180.04703,280.53711 192.05502,285.38184 194.84177,298.02399 203.20296,288.1145 216.09224,289.35681 209.22336,278.35464 214.38322,266.48853 201.82599,269.58899 "
   id="polygon159587" />
		<radialGradient
   id="SVGID_26_"
   cx="198.7379"
   cy="279.33261"
   r="9.6503201"
   gradientUnits="userSpaceOnUse">
			<stop
   offset="0"
   style="stop-color:#FFFFA0"
   id="stop159589" />
			<stop
   offset="0.55"
   style="stop-color:#FFFF00"
   id="stop159591" />
			<stop
   offset="1"
   style="stop-color:#FFC800"
   id="stop159593" />
		</radialGradient>
		<polygon
   class="st20"
   points="195.60124,269.53143 195.11029,276.3501 189.21898,279.84137 195.57397,282.40527 197.04686,289.08762 201.46539,283.85077 208.25682,284.50546 204.62932,278.69583 207.3567,272.42267 200.7289,274.05902 "
   id="polygon159596"
   style="fill:url(#SVGID_26_)" />
	</g>
	<g
   id="_x2605__00000119802173393419444920000006065638629973878420_">
		<polygon
   points="8.37471,384.5163 10.35062,398.44519 0,408.02551 13.8869,410.4281 19.71666,423.24594 26.3645,410.77075 40.36288,409.12881 30.53158,399.00891 33.27778,385.18042 20.64767,391.39966 "
   id="polygon159599" />
		<radialGradient
   id="SVGID_27_"
   cx="20.251539"
   cy="403.069"
   r="11.19872"
   gradientUnits="userSpaceOnUse">
			<stop
   offset="0"
   style="stop-color:#D9FFFF"
   id="stop159601" />
			<stop
   offset="0.42"
   style="stop-color:#96D2FF"
   id="stop159603" />
			<stop
   offset="1"
   style="stop-color:#00AAFF"
   id="stop159605" />
		</radialGradient>
		<polygon
   class="st21"
   points="13.56914,392.10452 14.68741,399.98694 8.82337,405.41461 16.70579,406.77838 20.00594,414.03348 23.77002,406.96924 31.67971,406.04193 26.11563,400.31424 27.67021,392.48636 20.52429,396.00485 "
   id="polygon159608"
   style="fill:url(#SVGID_27_)" />
	</g>
</g>
<g
   id="Rhythm_Paradise_x2122__1_"
   transform="scale(1.3333334)">
	<path
   id="_x2122__2_"
   class="st22"
   d="m 399.10327,215.57957 v -6.60512 l -2.77689,0.6411 v -1.42401 l 7.34497,-1.69572 v 1.42401 l -2.67679,0.61798 v 6.60513 z m 12.46344,-2.87741 V 205.995 l -1.68613,7.09645 -1.82626,0.42162 -1.64612,-6.32713 v 6.70717 l -1.72617,0.39851 v -8.02911 l 2.69684,-0.62262 1.6261,5.99316 0.02,-0.005 1.58606,-6.73474 2.6618,-0.61453 v 8.02913 z" />
	<path
   id="E_1_"
   class="st22"
   d="m 388.17853,168.0408 c 3.88428,-1.46339 12.01425,-3.64941 18.84344,-5.13087 v -21.13986 l -34.12799,7.87907 3e-5,56.50171 34.12796,-7.87906 v -9.41269 c -4.48059,1.17433 -13.76685,2.92122 -17.83182,3.60779 -4.95023,0.83098 -5.65488,-5.47424 -0.18066,-7.2809 3.14368,-1.02977 8.9068,-2.40279 13.40546,-3.66747 l 3e-5,-7.248 c -4.10101,0.83101 -9.64764,1.79185 -14.01974,2.40613 -5.41996,0.77684 -6.35941,-6.32332 -0.21671,-8.63585 z" />
	<path
   id="S_2_"
   class="st22"
   d="m 356.49539,206.97401 c -0.20007,-1.87755 -3.44733,-2.30263 -8.50543,-3.51517 -8.84363,-2.19621 -14.31766,-7.40587 -13.75845,-16.55852 0.59509,-9.87915 5.59674,-16.76913 32.06726,-21.26433 v 20.55054 c -9.55197,1.19463 -14.82553,2.98154 -17.06219,4.81116 -2.38544,1.93581 -2.24634,5.10587 1.19678,6.25581 1.49588,0.4996 5.91843,1.97667 8.59113,2.87297 5.12909,1.7094 7.63846,4.3309 8.16171,8.97069 1.47739,13.08911 -22.21268,16.52173 -31.98007,17.9559 v -11.62958 c 11.70137,-2.35773 21.74068,-4.42409 21.28926,-8.44947 z" />
	<polygon
   id="I_1_"
   class="st22"
   points="328.2515,207.46622 315.51465,210.40675 315.51468,160.03716 328.2515,157.09663 " />
	<path
   id="D_2_"
   class="st22"
   d="m 271.41388,175.68269 v 54.94046 c 26.55804,-3.88428 38.12061,-14.14603 37.83148,-34.54317 -0.25284,-17.68723 -17.81366,-27.40705 -37.83148,-20.39729 z m 13.65839,43.12496 c -3.50546,0.81108 -5.02237,-0.36137 -5.02237,-4.46245 v -12.9357 c 0,-2.981 -0.15424,-5.36218 2.67383,-6.16068 6.1427,-1.73442 13.00793,1.55377 13.65833,8.23839 0.75869,7.76865 -3.563,13.53197 -11.30979,15.32044 z" />
	<path
   id="A_4_"
   class="st22"
   d="m 259.4462,203.23163 c -3.36038,-11.0206 -6.08049,-13.74039 -12.77307,-12.19499 -5.90016,1.36183 -9.25427,4.4335 -12.06847,15.21204 -2.76425,10.58701 -5.82024,25.7173 -8.27731,42.84445 l 9.74055,-2.24879 c 0.18069,-1.35498 0.50591,-2.94485 0.97566,-5.3658 0.50584,-2.43896 1.82466,-4.18282 4.44437,-4.7876 l 7.58798,-1.75183 c 2.02841,-0.46829 3.88432,1.13762 4.53468,3.84758 0.43358,1.80667 0.99367,4.36925 1.3369,6.0856 l 12.89961,-2.9781 c -1.5718,-12.62857 -5.05859,-27.71423 -8.4009,-38.66256 z m -11.23749,24.08272 -6.41362,1.4807 c -1.61189,0.37213 -2.52934,-0.63156 -2.33057,-2.87184 0.18063,-2.0957 1.12013,-6.54005 1.48146,-8.05765 0.7588,-3.14362 2.34866,-4.67929 4.17339,-4.95027 2.94485,-0.46974 4.3721,1.68021 5.51028,7.10022 0.10841,0.50587 0.41554,1.60789 0.54199,3.08937 0.25295,3.01711 -0.6849,3.68356 -2.96293,4.20947 z" />
	<path
   id="R_3_"
   class="st22"
   d="m 224.60347,206.60019 c 5e-5,-17.49083 -17.1151,-22.56961 -38.04837,-15.0909 v 55.02707 l 8.92117,-2.05962 3e-5,-12.70103 c 2e-5,-2.15758 1.58789,-1.78181 3.05453,-0.47275 1.0303,0.92123 7.22421,6.92117 11.55144,11.23633 l 13.61919,-3.14424 c 0,0 -11.87369,-12.12839 -13.24341,-13.32835 7.97574,-2.9818 14.1454,-10.75237 14.14542,-19.46651 z m -23.96352,16.44832 c -3.30907,0.77573 -5.15149,-1.06665 -5.15147,-5.00604 v -3.80603 c -1.7e-4,-2.74515 0.53333,-5.12724 2.98181,-5.90297 7.10907,-2.25229 12.06056,0.81212 12.06055,5.62419 -2e-5,4.49696 -3.44242,7.5757 -9.89089,9.09085 z" />
	<path
   id="A_3_"
   class="st22"
   d="m 176.81725,228.744 c -3.36037,-11.0206 -6.08049,-13.74039 -12.77307,-12.19499 -5.90016,1.36183 -9.25427,4.4335 -12.06847,15.21204 -2.76425,10.58701 -5.82024,25.71732 -8.27731,42.84445 l 9.74055,-2.24878 c 0.18069,-1.35501 0.50591,-2.94489 0.97566,-5.36581 0.50584,-2.43896 1.82466,-4.18283 4.44437,-4.7876 l 7.58798,-1.75183 c 2.02841,-0.46829 3.88432,1.1376 4.53468,3.84756 0.43358,1.80667 0.99367,4.36926 1.3369,6.0856 l 12.89961,-2.97809 c -1.57179,-12.62855 -5.0586,-27.71421 -8.4009,-38.66255 z m -11.23749,24.08272 -6.41362,1.4807 c -1.61189,0.37213 -2.52934,-0.63156 -2.33057,-2.87186 0.18063,-2.09569 1.12013,-6.54005 1.48145,-8.05765 0.75882,-3.1436 2.34868,-4.67929 4.1734,-4.95026 2.94485,-0.46974 4.3721,1.68019 5.51028,7.1002 0.10841,0.50587 0.41554,1.60789 0.54199,3.08937 0.25295,3.01715 -0.6849,3.68359 -2.96293,4.2095 z" />
	<path
   id="P_2_"
   class="st22"
   d="m 94.9206,202.99713 v 76.15305 l 18.86208,-4.35464 5e-5,-17.88626 c 1e-5,-3.27017 0.813,-4.89621 2.76422,-5.23947 17.57841,-3.09229 30.09979,-11.93028 30.09984,-30.06354 1.1e-4,-19.9119 -21.39159,-30.62367 -51.72619,-18.60914 z m 25.16752,39.2236 c -4.01082,0.98065 -6.32343,-0.0723 -6.32342,-3.43277 l 3e-5,-12.15915 c 1e-5,-3.43408 1.89706,-5.60077 5.67302,-6.08856 7.57015,-0.97557 10.98478,3.45088 10.98476,9.21423 -10e-6,4.80584 -2.83637,10.63297 -10.33439,12.46625 z" />
	<path
   id="M_2_"
   class="st23"
   d="m 364.6019,56.15437 c -5.20328,17.18129 -8.14819,25.58224 -10.71365,32.66436 -4.37213,12.05042 -8.90692,7.31697 -11.0206,3.95657 -2.45706,-3.93853 -5.79938,-11.59879 -11.59872,-25.63651 l -14.32697,3.30763 3e-5,67.43947 11.88785,-2.74454 c -0.0904,-10.74962 0.0903,-18.04845 0.66846,-20.88492 0.52399,-2.54739 2.05957,-2.90871 3.61331,-0.3794 1.28265,2.07769 3.30624,6.57629 7.33502,15.82639 l 7.96542,-1.83896 c 4.3902,-11.79745 6.75891,-17.74523 8.43912,-20.65396 1.35501,-2.36671 3.93854,-4.02882 4.71539,0.34328 0.59607,3.30621 0.54193,12.2755 0.5238,23.25997 l 12.32166,-2.84467 V 53.88952 Z" />
	<path
   id="H_4_"
   class="st23"
   d="m 296.05722,91.3666 c -0.0542,9.21391 -0.0362,17.61488 -0.43365,20.68621 -0.92142,7.33502 -13.45966,10.64121 -14.07391,3.88428 -0.28903,-3.1797 -0.54199,-7.38048 -0.54196,-16.75702 l -10.1355,2.33997 v 61.78764 l 12.91763,-2.98227 c 3e-5,-9.81012 3e-5,-14.07259 0.16266,-17.43294 0.45169,-8.85265 13.74866,-10.858 14.90491,-3.16159 0.52393,3.50491 0.61426,5.18512 0.61426,13.09825 l 10.29794,-2.37747 V 88.20085 Z" />
	<path
   id="T_1_"
   class="st23"
   d="m 227.51248,96.46992 -8e-5,24.87048 7.20859,-1.66423 c 4.37196,-1.00935 6.17874,-0.44008 6.17874,7.2989 v 31.9457 l 11.83365,-2.73203 V 126.9028 c 0,-13.00825 1.22134,-16.29092 7.66026,-17.77746 l 5.88971,-1.35975 3e-5,-20.24665 z" />
	<path
   id="Y_2_"
   class="st23"
   d="m 222.67061,112.89588 -11.05685,2.55267 c 0,0 0.16257,11.3819 -0.27094,19.76478 -0.63248,12.26726 -12.98999,14.90492 -13.98357,3.23392 -0.50589,-6.12459 -0.74068,-18.33198 -0.74068,-18.33198 l -13.74867,3.17413 v 9.95462 c -6e-5,23.75752 15.44675,26.6844 23.52255,19.90942 0.48782,-0.41553 0.97565,-0.66844 1.37308,-0.48779 0.45166,0.19873 0.43358,0.68655 0.25299,1.58986 -0.48782,2.36671 -3.99277,7.04599 -11.07484,8.94293 -5.40198,1.44531 -10.69548,2.35698 -13.33315,2.77251 v 16.4864 c 11.88776,-1.5356 25.65445,-4.93207 32.06815,-14.79643 3.34233,-5.14896 5.09486,-10.58702 5.96205,-18.64468 1.35503,-12.68274 1.02988,-36.12036 1.02988,-36.12036 z" />
	<path
   id="H_3_"
   class="st23"
   d="m 162.41849,111.87121 c -0.0542,9.21392 -0.0361,17.61488 -0.43364,20.68621 -0.92142,7.33502 -13.45966,10.6412 -14.07391,3.88428 -0.28905,-3.17969 -0.54198,-7.38048 -0.54196,-16.75702 l -10.1355,2.33997 -2e-5,61.78764 12.91765,-2.98227 c 3e-5,-9.81012 3e-5,-14.07259 0.16266,-17.43294 0.45168,-8.85265 13.74866,-10.858 14.90492,-3.16159 0.52391,3.50491 0.61424,5.18512 0.61423,13.09825 l 10.29796,-2.37747 v -62.25081 z" />
	<path
   id="R_2_"
   class="st23"
   d="m 130.85611,124.51773 c 6e-5,-26.07011 -25.51011,-33.64005 -56.71119,-22.493 v 84.15625 l 13.29703,-3.06985 5e-5,-21.06923 c 1e-5,-3.21587 2.36674,-2.65579 4.55278,-0.70461 1.53567,1.37308 10.76771,10.31601 17.21746,16.74777 l 20.29943,-4.68649 c 0,0 -17.69777,-18.07741 -19.73933,-19.86597 11.88785,-4.44436 21.08374,-16.02642 21.08377,-29.01487 z M 95.13843,149.034 c -4.93218,1.15622 -7.67831,-1.58986 -7.67829,-7.46152 l 2e-5,-5.6729 c -2.5e-4,-4.09164 0.79492,-7.64217 4.44438,-8.79839 10.59609,-3.35705 17.9763,1.21047 17.97627,8.38288 -2e-5,6.70271 -5.13092,11.2916 -14.74238,13.54993 z" />
</g>
</svg>
