<?xml version="1.0" encoding="UTF-8" standalone="no"?>
<!-- Created with Inkscape (http://www.inkscape.org/) -->

<svg
   version="1.1"
   id="svg1"
   width="666.66669"
   height="496.35468"
   viewBox="0 0 666.66669 496.35468"
   sodipodi:docname="Rhythm H(EA)ven Logo.ai"
   xmlns:inkscape="http://www.inkscape.org/namespaces/inkscape"
   xmlns:sodipodi="http://sodipodi.sourceforge.net/DTD/sodipodi-0.dtd"
   xmlns="http://www.w3.org/2000/svg"
   xmlns:svg="http://www.w3.org/2000/svg">
  <defs
     id="defs1">
    <clipPath
       clipPathUnits="userSpaceOnUse"
       id="clipPath2">
      <path
         d="M 0,372.266 H 500 V 0 H 0 Z"
         transform="translate(-481.88311,-224.0316)"
         id="path2" />
    </clipPath>
    <clipPath
       clipPathUnits="userSpaceOnUse"
       id="clipPath4">
      <path
         d="M 0,372.266 H 500 V 0 H 0 Z"
         transform="translate(-468.89181,-222.42021)"
         id="path4" />
    </clipPath>
    <clipPath
       clipPathUnits="userSpaceOnUse"
       id="clipPath6">
      <path
         d="M 0,372.266 H 500 V 0 H 0 Z"
         transform="translate(-457.02761,-220.91391)"
         id="path6" />
    </clipPath>
    <clipPath
       clipPathUnits="userSpaceOnUse"
       id="clipPath8">
      <path
         d="M 0,372.266 H 500 V 0 H 0 Z"
         transform="translate(-457.02081,-137.6727)"
         id="path8" />
    </clipPath>
    <clipPath
       clipPathUnits="userSpaceOnUse"
       id="clipPath10">
      <path
         d="M 0,372.266 H 500 V 0 H 0 Z"
         transform="translate(-419.85471,-223.29861)"
         id="path10" />
    </clipPath>
    <clipPath
       clipPathUnits="userSpaceOnUse"
       id="clipPath12">
      <path
         d="M 0,372.266 H 500 V 0 H 0 Z"
         transform="translate(-358.10381,-140.409)"
         id="path12" />
    </clipPath>
    <clipPath
       clipPathUnits="userSpaceOnUse"
       id="clipPath14">
      <path
         d="M 0,372.266 H 500 V 0 H 0 Z"
         transform="translate(-318.46511,-188.75321)"
         id="path14" />
    </clipPath>
    <clipPath
       clipPathUnits="userSpaceOnUse"
       id="clipPath16">
      <path
         d="M 0,372.266 H 500 V 0 H 0 Z"
         transform="translate(-256.44751,-162.6566)"
         id="path16" />
    </clipPath>
    <clipPath
       clipPathUnits="userSpaceOnUse"
       id="clipPath18">
      <path
         d="M 0,372.266 H 500 V 0 H 0 Z"
         transform="translate(-174.83811,-157.96511)"
         id="path18" />
    </clipPath>
    <clipPath
       clipPathUnits="userSpaceOnUse"
       id="clipPath20">
      <path
         d="M 0,372.266 H 500 V 0 H 0 Z"
         transform="translate(-418.44361,-234.369)"
         id="path20" />
    </clipPath>
    <clipPath
       clipPathUnits="userSpaceOnUse"
       id="clipPath22">
      <path
         d="M 0,372.266 H 500 V 0 H 0 Z"
         transform="translate(-328.88401,-279.34841)"
         id="path22" />
    </clipPath>
    <clipPath
       clipPathUnits="userSpaceOnUse"
       id="clipPath24">
      <path
         d="M 0,372.266 H 500 V 0 H 0 Z"
         transform="translate(-250.2844,-269.14191)"
         id="path24" />
    </clipPath>
    <clipPath
       clipPathUnits="userSpaceOnUse"
       id="clipPath26">
      <path
         d="M 0,372.266 H 500 V 0 H 0 Z"
         transform="translate(-244.09011,-256.69761)"
         id="path26" />
    </clipPath>
    <clipPath
       clipPathUnits="userSpaceOnUse"
       id="clipPath28">
      <path
         d="M 0,372.266 H 500 V 0 H 0 Z"
         transform="translate(-173.3499,-245.43731)"
         id="path28" />
    </clipPath>
    <clipPath
       clipPathUnits="userSpaceOnUse"
       id="clipPath30">
      <path
         d="M 0,372.266 H 500 V 0 H 0 Z"
         transform="translate(-99.563702,-195.326)"
         id="path30" />
    </clipPath>
  </defs>
  <sodipodi:namedview
     id="namedview1"
     pagecolor="#ffffff"
     bordercolor="#000000"
     borderopacity="0.25"
     inkscape:showpageshadow="2"
     inkscape:pageopacity="0.0"
     inkscape:pagecheckerboard="0"
     inkscape:deskcolor="#d1d1d1">
    <inkscape:page
       x="0"
       y="0"
       inkscape:label="1"
       id="page1"
       width="666.66669"
       height="496.35468"
       margin="0"
       bleed="0" />
  </sodipodi:namedview>
  <g
     id="layer-MC0"
     inkscape:groupmode="layer"
     inkscape:label="Layer 1">
    <path
       id="path1"
       d="m 0,0 c 4.894,12.547 7.441,25.99 7.441,39.551 0,59.928 -48.754,108.683 -108.682,108.683 -34.925,0 -67.126,-16.686 -87.342,-43.975 -14.012,7.001 -29.565,10.725 -45.455,10.725 -20.991,0 -41.147,-6.349 -58.289,-18.36 -8.888,-6.229 -16.636,-13.735 -23.038,-22.255 -17.193,10.789 -37.267,16.702 -57.835,16.702 -59.928,0 -108.683,-48.755 -108.683,-108.683 0,-24.092 7.723,-46.916 22.335,-66.007 10.207,-13.335 23.493,-24.171 38.472,-31.557 -0.204,-2.623 -0.307,-5.258 -0.307,-7.897 0,-55.669 45.29,-100.959 100.959,-100.959 20.884,0 40.93,6.327 57.972,18.298 10.137,7.121 18.773,15.914 25.603,25.984 11.397,-4.307 23.536,-6.534 35.935,-6.534 31.208,0 60.532,14.581 79.601,38.459 12.554,-5.597 26.177,-8.498 40.267,-8.498 54.679,0 99.163,44.484 99.163,99.162 C 18.117,-36.458 11.765,-16.626 0,0"
       style="fill:#00b3f0;fill-opacity:1;fill-rule:nonzero;stroke:none"
       transform="matrix(1.3333333,0,0,-1.3333333,642.5108,197.64587)"
       clip-path="url(#clipPath2)" />
    <path
       id="path3"
       d="m 0,0 c 5.98,12.826 9.115,26.918 9.115,41.162 0,53.688 -43.678,97.366 -97.365,97.366 -34.693,0 -66.385,-18.377 -83.768,-47.706 -14.529,9.386 -31.55,14.456 -49.029,14.456 -18.655,0 -36.565,-5.64 -51.793,-16.312 -10.96,-7.68 -19.969,-17.542 -26.538,-28.964 -17.159,13.703 -38.677,21.363 -60.831,21.363 -53.687,0 -97.366,-43.678 -97.366,-97.365 0,-40.116 24.959,-76.144 61.728,-90.631 -0.816,-4.887 -1.227,-9.848 -1.227,-14.83 0,-49.429 40.213,-89.642 89.641,-89.642 18.544,0 36.341,5.616 51.467,16.241 11.591,8.143 20.974,18.746 27.565,31.059 12.5,-6.276 26.297,-9.552 40.478,-9.552 30.846,0 59.619,16.027 76.091,41.624 13.257,-7.66 28.192,-11.663 43.777,-11.663 48.438,0 87.845,39.407 87.845,87.845 C 19.79,-35.123 12.811,-15.654 0,0"
       style="fill:#ffffff;fill-opacity:1;fill-rule:nonzero;stroke:none"
       transform="matrix(1.3333333,0,0,-1.3333333,625.18907,199.7944)"
       clip-path="url(#clipPath4)" />
    <path
       id="path5"
       d="m 0,0 c 7.066,12.623 11.1,27.174 11.1,42.668 0,48.318 -39.168,87.486 -87.486,87.486 -35.965,0 -66.856,-21.705 -80.302,-52.728 -14.093,12.138 -32.436,19.478 -52.495,19.478 -34.318,0 -63.615,-21.483 -75.187,-51.733 -15.969,17.115 -38.72,27.82 -63.975,27.82 -48.317,0 -87.485,-39.168 -87.485,-87.485 0,-39.96 26.791,-73.661 63.391,-84.124 -1.881,-6.792 -2.891,-13.946 -2.891,-21.337 0,-44.051 35.71,-79.762 79.761,-79.762 34.079,0 63.16,21.375 74.583,51.446 12.831,-8.648 28.29,-13.698 44.927,-13.698 32.057,0 59.734,18.744 72.675,45.869 13.102,-9.979 29.454,-15.908 47.194,-15.908 43.058,0 77.964,34.906 77.964,77.965 C 21.774,-33.06 13.482,-14.015 0,0"
       style="fill:#130c0e;fill-opacity:1;fill-rule:nonzero;stroke:none"
       transform="matrix(1.3333333,0,0,-1.3333333,609.37013,201.8028)"
       clip-path="url(#clipPath6)" />
    <path
       id="path7"
       d="m 0,0 v 6.729 l -1.691,-7.12 -1.832,-0.423 -1.652,6.348 v -6.729 l -1.731,-0.4 V 6.46 l 2.705,0.625 1.632,-6.013 0.019,0.005 1.592,6.756 2.67,0.617 V 0.395 Z m -12.504,-2.888 v 6.627 l -2.785,-0.643 v 1.425 l 7.368,1.701 V 4.798 l -2.685,-0.62 v -6.627 z"
       style="fill:#f15a22;fill-opacity:1;fill-rule:nonzero;stroke:none"
       transform="matrix(1.3333333,0,0,-1.3333333,609.36107,312.79107)"
       clip-path="url(#clipPath8)" />
    <path
       id="path9"
       d="m 0,0 c 0,0 -0.125,-32.699 -0.532,-38.45 -0.636,-8.985 -3.05,-9.226 -5.105,-7.878 -4.098,2.689 -11.758,18.002 -18.616,31.32 l -10.005,-2.31 v -82.747 l 12.235,2.825 0.041,20.996 c 0.021,10.777 2.963,11.478 7.24,7.563 3.244,-2.97 7.659,-9.522 14.617,-20.662 l 16.189,3.738 V 3.708 Z"
       style="fill:#f15a22;fill-opacity:1;fill-rule:nonzero;stroke:none"
       transform="matrix(1.3333333,0,0,-1.3333333,559.80627,198.6232)"
       clip-path="url(#clipPath10)" />
    <path
       id="path11"
       d="m 0,0 c -0.371,-0.002 -3.119,0.091 -3.413,2.188 -0.171,1.214 0.412,2.354 1.879,3.251 2.293,1.403 10.23,3.684 17.848,5.471 v 10.534 c 0,0 -13.794,-3.319 -18.037,-2.688 -1.288,0.192 -2.146,0.873 -2.317,2.063 -0.174,1.217 0.438,2.313 1.879,3.251 3.88,2.527 21.294,6.284 21.294,6.284 v 24.308 l -35.855,-8.278 v -64.797 l 36.606,8.451 V 3.501 C 10.114,1.281 3.511,0.019 0,0"
       style="fill:#f15a22;fill-opacity:1;fill-rule:nonzero;stroke:none"
       transform="matrix(1.3333333,0,0,-1.3333333,477.47173,309.14267)"
       clip-path="url(#clipPath12)" />
    <path
       id="path13"
       d="m 0,0 c 0,0 -3.884,-25.59 -7.332,-37.417 -0.986,-3.378 -3.368,-8.548 -6.607,-1.156 -1.161,2.648 -4.606,15.019 -7.133,30.967 l -11.187,-2.582 c 0.98,-10.966 6.35,-40.584 13.504,-57.839 l 21.693,5.008 c 7.986,21.133 12.777,43.453 14.405,67.023 z"
       style="fill:#f15a22;fill-opacity:1;fill-rule:nonzero;stroke:none"
       transform="matrix(1.3333333,0,0,-1.3333333,424.62013,244.68373)"
       clip-path="url(#clipPath14)" />
    <path
       id="path15"
       d="m 0,0 -12.5,-52.11 -25.521,-5.892 3.227,12.854 15.877,3.665 3.075,12.976 -35.401,-8.173 -3.074,-12.976 8.467,1.955 -6.183,-25.803 47.516,10.969 9.584,40.585 9.655,-11.766 -5.647,-1.304 -3.107,-12.826 17.171,3.964 8.452,-10.317 10.937,2.526 z m -10.65,-15.042 -37.484,-8.809 3.074,12.977 37.518,8.662 v 0 z"
       style="fill:#f15a22;fill-opacity:1;fill-rule:nonzero;stroke:none"
       transform="matrix(1.3333333,0,0,-1.3333333,341.93,279.4792)"
       clip-path="url(#clipPath16)" />
    <path
       id="path17"
       d="m 0,0 c 0,-12.93 0.065,-22.607 -1.706,-28.949 -1.076,-3.851 -3.444,-6.783 -6.607,-9.003 -3.222,-2.26 -6.451,-3.251 -9.614,-3.313 -3.856,-0.076 -6.676,2.022 -7.087,6.307 -0.592,6.156 -0.553,13.935 -0.553,24.715 l -13.997,-3.231 v -95.345 l 19.226,4.439 c 0,12.133 0.249,21.078 1.744,26.656 1.02,3.802 3.792,7.011 6.591,8.9 3.271,2.209 6.28,3.314 9.449,3.366 3.852,0.062 6.776,-1.926 7.139,-5.767 0.533,-5.627 0.567,-13.278 0.567,-23.721 l 14.247,3.289 V 4.479 Z"
       style="fill:#f15a22;fill-opacity:1;fill-rule:nonzero;stroke:none"
       transform="matrix(1.3333333,0,0,-1.3333333,233.11747,285.73453)"
       clip-path="url(#clipPath18)" />
    <path
       id="path19"
       d="m 0,0 v 83.019 l -11.349,-2.62 C -17.368,60.523 -20.772,50.804 -23.742,42.612 -28.797,28.67 -34.054,34.143 -36.491,38.035 -39.343,42.586 -43.2,51.454 -49.909,67.693 l -16.573,-3.826 v -76.818 l 13.742,3.173 c -0.105,12.435 0.111,19.682 0.783,22.963 0.603,2.947 2.379,3.363 4.18,0.439 1.481,-2.405 3.824,-7.608 8.485,-18.309 l 9.217,2.128 c 5.078,13.648 7.823,20.524 9.76,23.893 1.573,2.735 4.549,4.66 5.455,-0.397 0.684,-3.826 0.627,-11.522 0.606,-24.23 z"
       style="fill:#faa61a;fill-opacity:1;fill-rule:nonzero;stroke:none"
       transform="matrix(1.3333333,0,0,-1.3333333,557.9248,183.86267)"
       clip-path="url(#clipPath20)" />
    <path
       id="path21"
       d="m 0,0 c 0,0 0.272,-18.031 -0.342,-24 -0.815,-7.921 -14.857,-10.657 -15.452,-2.56 -0.265,3.614 -0.469,8.274 -0.469,18.916 l -11.474,-2.649 v -71.116 l 15.734,3.633 v 16.423 c 0,12.631 15.691,13.688 16.536,4.859 0.266,-2.777 0.402,-7.105 0.402,-16.086 l 11.474,2.649 v 73.72 z"
       style="fill:#faa61a;fill-opacity:1;fill-rule:nonzero;stroke:none"
       transform="matrix(1.3333333,0,0,-1.3333333,438.512,123.89013)"
       clip-path="url(#clipPath22)" />
    <path
       id="path23"
       d="m 0,0 v -29.308 l 10.588,2.444 c 4.22,0.975 5.701,0.079 5.671,-8.398 v -37.664 l 12.544,2.896 v 34.854 c 0.087,14.962 1.843,18.059 9.284,19.777 l 6.643,1.534 v 24.192 z"
       style="fill:#faa61a;fill-opacity:1;fill-rule:nonzero;stroke:none"
       transform="matrix(1.3333333,0,0,-1.3333333,333.71253,137.4988)"
       clip-path="url(#clipPath24)" />
    <path
       id="path25"
       d="m 0,0 -13.379,-3.088 c 0,0 -0.083,-10.124 -0.824,-23.531 -0.786,-14.252 -16.14,-18.622 -17.017,-4.124 -0.56,9.261 -0.47,21.818 -0.47,21.818 l -16.015,-3.697 v -6.857 c 0,-26.701 3.068,-35.762 19.197,-34.021 3.772,0.408 6.644,1.606 9.88,3.797 0.202,0.137 0.458,0.14 0.698,-0.046 0.23,-0.178 0.603,-0.777 0.042,-2.52 -3.025,-9.389 -28.923,-12.179 -28.923,-12.179 l -0.006,-20.982 c 14.804,2.179 30.919,5.331 39.375,19.38 C -4.284,-60.802 0,-54.466 0,0"
       style="fill:#faa61a;fill-opacity:1;fill-rule:nonzero;stroke:none"
       transform="matrix(1.3333333,0,0,-1.3333333,325.45347,154.0912)"
       clip-path="url(#clipPath26)" />
    <path
       id="path27"
       d="m 0,0 c 0,0 0.259,-17.137 -0.325,-22.81 -0.775,-7.528 -14.12,-10.128 -14.685,-2.433 -0.252,3.435 -0.445,7.865 -0.445,17.978 L -26.361,-9.782 V -77.37 l 14.954,3.453 v 15.608 c 0,12.005 14.912,13.009 15.716,4.618 0.252,-2.639 0.38,-6.752 0.38,-15.288 l 10.906,2.518 V 3.601 Z"
       style="fill:#faa61a;fill-opacity:1;fill-rule:nonzero;stroke:none"
       transform="matrix(1.3333333,0,0,-1.3333333,231.1332,169.10493)"
       clip-path="url(#clipPath28)" />
    <path
       id="path29"
       d="m 0,0 c -6.848,-1.746 -10.887,1.922 -10.887,11.127 0,7.342 0.139,14.922 13.581,14.922 9.571,0 13.573,-4.846 13.573,-10.312 C 16.267,10.976 10.442,2.662 0,0 m 40.187,30.328 c 0,16.907 -12.458,37.357 -64.578,24.812 v -91.952 l 13.573,3.134 v 16.613 c 0,6.752 3.89,5.508 6.372,3.892 1.928,-1.256 6.017,-4.552 15.683,-15.413 l 23.058,5.323 -17.968,18.397 c 0,0 23.86,9.607 23.86,35.194"
       style="fill:#faa61a;fill-opacity:1;fill-rule:nonzero;stroke:none"
       transform="matrix(1.3333333,0,0,-1.3333333,132.7516,235.92)"
       clip-path="url(#clipPath30)" />
  </g>
</svg>
