<?xml version="1.0" encoding="UTF-8" standalone="no"?>
<!-- Created with Inkscape (http://www.inkscape.org/) -->

<svg
   width="666.66669"
   height="427.54385"
   viewBox="0 0 176.38889 113.12098"
   version="1.1"
   id="svg10662"
   xml:space="preserve"
   inkscape:version="1.2.2 (b0a8486541, 2022-12-01)"
   sodipodi:docname="Rhythm Heaven The Best+ Logo.svg"
   xmlns:inkscape="http://www.inkscape.org/namespaces/inkscape"
   xmlns:sodipodi="http://sodipodi.sourceforge.net/DTD/sodipodi-0.dtd"
   xmlns="http://www.w3.org/2000/svg"
   xmlns:svg="http://www.w3.org/2000/svg"><sodipodi:namedview
     id="namedview10664"
     pagecolor="#505050"
     bordercolor="#eeeeee"
     borderopacity="1"
     inkscape:showpageshadow="0"
     inkscape:pageopacity="0"
     inkscape:pagecheckerboard="0"
     inkscape:deskcolor="#505050"
     inkscape:document-units="px"
     showgrid="false"
     inkscape:zoom="1.0672419"
     inkscape:cx="-435.23405"
     inkscape:cy="561.25984"
     inkscape:window-width="2560"
     inkscape:window-height="1400"
     inkscape:window-x="0"
     inkscape:window-y="0"
     inkscape:window-maximized="1"
     inkscape:current-layer="layer1"><inkscape:page
       x="0"
       y="0"
       width="176.38889"
       height="113.12098"
       id="page10890" /><inkscape:page
       x="-0.10202018"
       y="-6.8146401e-06"
       width="176.38889"
       height="113.12384"
       id="page10892" /></sodipodi:namedview><defs
     id="defs10659"><clipPath
       clipPathUnits="userSpaceOnUse"
       id="clipPath10682"><path
         d="M 0,320.666 H 500 V 0 H 0 Z"
         id="path10680" /></clipPath><linearGradient
       x1="0"
       y1="0"
       x2="1"
       y2="0"
       gradientUnits="userSpaceOnUse"
       gradientTransform="matrix(115.27258,-25.555317,-25.555317,-115.27258,364.02936,154.7258)"
       spreadMethod="pad"
       id="linearGradient10724"><stop
         style="stop-opacity:1;stop-color:#feee04"
         offset="0"
         id="stop10716" /><stop
         style="stop-opacity:1;stop-color:#feee04"
         offset="0.35"
         id="stop10718" /><stop
         style="stop-opacity:1;stop-color:#fdd902"
         offset="0.65"
         id="stop10720" /><stop
         style="stop-opacity:1;stop-color:#fdd902"
         offset="1"
         id="stop10722" /></linearGradient><radialGradient
       fx="0"
       fy="0"
       cx="0"
       cy="0"
       r="1"
       gradientUnits="userSpaceOnUse"
       gradientTransform="matrix(22.5,0,0,-22.5,363.54816,136.17441)"
       spreadMethod="pad"
       id="radialGradient10744"><stop
         style="stop-opacity:1;stop-color:#ffffff"
         offset="0"
         id="stop10740" /><stop
         style="stop-opacity:1;stop-color:#feee04"
         offset="1"
         id="stop10742" /></radialGradient><radialGradient
       fx="0"
       fy="0"
       cx="0"
       cy="0"
       r="1"
       gradientUnits="userSpaceOnUse"
       gradientTransform="matrix(22.5,0,0,-22.5,480.28842,159.50465)"
       spreadMethod="pad"
       id="radialGradient10766"><stop
         style="stop-opacity:1;stop-color:#fdc900"
         offset="0"
         id="stop10760" /><stop
         style="stop-opacity:1;stop-color:#fdc900"
         offset="0.4854273"
         id="stop10762" /><stop
         style="stop-opacity:1;stop-color:#fdd902"
         offset="1"
         id="stop10764" /></radialGradient><clipPath
       clipPathUnits="userSpaceOnUse"
       id="clipPath10776"><path
         d="M 0,320.666 H 500 V 0 H 0 Z"
         id="path10774" /></clipPath></defs><g
     inkscape:label="Rhythm Heaven The Best+ Logo"
     inkscape:groupmode="layer"
     id="layer1"
     transform="translate(-220.10202)"><g
       id="g10676"
       transform="matrix(0.35298196,0,0,-0.35298196,219.99994,113.18932)"><g
         id="g10678"
         clip-path="url(#clipPath10682)"><g
           id="g10684"
           transform="translate(421.3022,320.8596)"><path
             d="m 0,0 c -13.569,0 -26.952,-3.485 -38.703,-10.078 -11.448,-6.423 -21.173,-15.691 -28.162,-26.828 -4.991,0.98 -10.115,1.477 -15.241,1.477 -16.886,0 -32.92,-5.206 -46.419,-15.066 -12.677,8.079 -27.325,12.346 -42.411,12.346 -13.557,0 -26.933,-3.483 -38.681,-10.071 -11.447,-6.419 -21.174,-15.679 -28.165,-26.807 -4.903,0.944 -9.933,1.422 -14.965,1.422 -16.93,0 -32.996,-5.23 -46.51,-15.133 -12.735,8.172 -27.473,12.488 -42.667,12.488 -43.61,0 -79.089,-35.479 -79.089,-79.088 0,-19.464 7.098,-38.099 20.006,-52.582 -12.268,-12.435 -19.011,-28.901 -19.011,-46.477 0,-36.541 29.728,-66.269 66.268,-66.269 10.595,0 21.108,2.528 30.403,7.31 9.05,4.655 17.006,11.475 23.041,19.743 1.958,-0.193 3.946,-0.29 5.917,-0.29 9.386,0 18.352,2.092 26.66,6.222 9.21,-4.639 19.154,-6.991 29.566,-6.991 17.796,0 34.413,6.935 46.867,19.541 7.379,-2.752 15.125,-4.148 23.033,-4.148 16.7,0 32.547,6.183 44.69,17.425 6.382,-1.987 12.983,-2.994 19.63,-2.994 16.66,0 32.576,6.25 44.818,17.599 12.024,11.148 19.427,26.187 20.888,42.405 9.687,4.118 18.37,10.618 25.14,18.828 6.718,8.147 11.432,17.826 13.663,28.042 43.295,0.306 78.42,35.621 78.42,78.986 C 78.986,-35.434 43.554,0 0,0"
             style="fill:#0096e6;fill-opacity:1;fill-rule:nonzero;stroke:none"
             id="path10686" /></g><g
           id="g10688"
           transform="translate(421.3022,311.8327)"><path
             d="m 0,0 c -26.58,0 -50.504,-14.848 -62.378,-38.263 -6.394,1.882 -13.008,2.834 -19.728,2.834 -17.147,0 -33.308,-6.11 -46.063,-17.315 -12.213,9.446 -27.204,14.594 -42.767,14.594 -26.549,0 -50.465,-14.828 -62.35,-38.208 -6.309,1.829 -12.832,2.753 -19.461,2.753 -17.198,0 -33.392,-6.142 -46.162,-17.403 -12.263,9.552 -27.341,14.758 -43.015,14.758 -38.633,0 -70.062,-31.429 -70.062,-70.062 0,-20.525 8.927,-39.77 24.246,-53.001 -14.525,-10.695 -23.251,-27.656 -23.251,-46.058 0,-31.563 25.678,-57.241 57.241,-57.241 20.373,0 38.779,10.537 49.096,27.799 3.368,-0.688 6.805,-1.037 10.265,-1.037 9.511,0 18.65,2.585 26.667,7.51 8.902,-5.428 19.039,-8.278 29.559,-8.278 17.448,0 33.701,7.903 44.47,21.387 7.868,-3.935 16.56,-5.994 25.43,-5.994 16.351,0 31.529,6.814 42.326,18.852 6.937,-2.902 14.453,-4.421 21.994,-4.421 31.401,0 56.946,25.545 56.946,56.946 0,0.138 0,0.277 -10e-4,0.417 22.05,6.868 38.002,26.8 39.856,49.871 2.371,-0.241 4.756,-0.362 7.142,-0.362 38.575,0 69.96,31.384 69.96,69.961 C 69.96,-31.384 38.575,0 0,0"
             style="fill:#ffffff;fill-opacity:1;fill-rule:nonzero;stroke:none"
             id="path10690" /></g><g
           id="g10692"
           transform="translate(421.3022,305.9924)"><path
             d="m 0,0 c -26.739,0 -49.645,-16.371 -59.267,-39.632 -7.097,2.707 -14.791,4.203 -22.839,4.203 -17.957,0 -34.182,-7.391 -45.822,-19.287 -11.375,10.294 -26.458,16.566 -43.008,16.566 -26.708,0 -49.595,-16.334 -59.235,-39.554 -7.024,2.643 -14.628,4.099 -22.576,4.099 -18.012,0 -34.278,-7.437 -45.926,-19.396 -11.413,10.405 -26.591,16.751 -43.251,16.751 -35.469,0 -64.222,-28.752 -64.222,-64.221 0,-22.313 11.385,-41.962 28.657,-53.472 -16.435,-8.577 -27.661,-25.766 -27.661,-45.587 0,-28.388 23.013,-51.402 51.4,-51.402 20.25,0 37.757,11.715 46.136,28.732 4.184,-1.277 8.623,-1.968 13.225,-1.968 9.962,0 19.165,3.225 26.641,8.678 8.351,-5.941 18.555,-9.447 29.585,-9.447 17.916,0 33.668,9.227 42.793,23.18 7.858,-4.928 17.146,-7.787 27.106,-7.787 16.617,0 31.374,7.935 40.708,20.216 7.064,-3.689 15.092,-5.786 23.613,-5.786 28.225,0 51.106,22.881 51.106,51.106 0,1.637 -0.085,3.254 -0.235,4.852 23.018,4.97 40.27,25.438 40.27,49.944 0,0.758 -0.024,1.512 -0.057,2.263 4.155,-0.846 8.455,-1.292 12.859,-1.292 35.412,0 64.12,28.708 64.12,64.121 C 64.12,-28.708 35.412,0 0,0"
             style="fill:#000000;fill-opacity:1;fill-rule:nonzero;stroke:none"
             id="path10694" /></g><g
           id="g10696"
           transform="translate(454.4175,169.9963)"><path
             d="m 0,0 3.472,44.109 -62.174,-13.784 -3.471,-44.109 -43.39,-9.619 -3.33,-42.312 43.39,9.619 -3.472,-44.109 62.173,13.784 3.472,44.108 43.389,9.62 3.33,42.312 z"
             style="fill:#000000;fill-opacity:1;fill-rule:nonzero;stroke:none"
             id="path10698" /></g><g
           id="g10700"
           transform="translate(442.8276,156.2097)"><path
             d="m 0,0 3.472,44.109 -40.791,-9.043 -3.472,-44.109 -43.389,-9.619 -1.533,-19.48 43.389,9.619 -3.471,-44.109 40.79,9.043 3.472,44.109 43.388,9.619 1.534,19.48 z"
             style="fill:#feee04;fill-opacity:1;fill-rule:nonzero;stroke:none"
             id="path10702" /></g></g></g><g
       id="g10704"
       transform="matrix(0.35298196,0,0,-0.35298196,219.99994,113.18932)"><g
         id="g10706"><g
           id="g10712"><g
             id="g10714"><path
               d="m 406.814,190.069 -3.472,-44.108 -43.389,-9.619 -1.293,-16.436 43.389,9.619 -3.471,-44.11 37.939,8.412 3.471,44.109 43.389,9.619 1.295,16.436 -43.39,-9.619 3.471,44.109 z"
               style="fill:url(#linearGradient10724);stroke:none"
               id="path10726" /></g></g></g></g><g
       id="g10728"
       transform="matrix(0.35298196,0,0,-0.35298196,219.99994,113.18932)"><g
         id="g10730"><g
           id="g10736"><g
             id="g10738"><path
               d="m 359.953,136.342 -1.293,-16.436 24.627,5.46 c 1.761,3.208 2.762,6.891 2.762,10.808 v 0 c 0,2.001 -0.261,3.94 -0.751,5.787 v 0 z"
               style="fill:url(#radialGradient10744);stroke:none"
               id="path10746" /></g></g></g></g><g
       id="g10748"
       transform="matrix(0.35298196,0,0,-0.35298196,219.99994,113.18932)"><g
         id="g10750"><g
           id="g10756"><g
             id="g10758"><path
               d="m 457.835,158.041 c 0.368,-5.734 2.884,-10.883 6.751,-14.652 v 0 l 18.791,4.166 1.295,16.436 z"
               style="fill:url(#radialGradient10766);stroke:none"
               id="path10768" /></g></g></g></g><g
       id="g10770"
       transform="matrix(0.35298196,0,0,-0.35298196,219.99994,113.18932)"><g
         id="g10772"
         clip-path="url(#clipPath10776)"><g
           id="g10778"
           transform="translate(416.1177,112.7331)"><path
             d="m 0,0 c -0.568,-4.21 1.559,-6.668 5.22,-7.775 2.095,-0.613 3.454,-0.843 3.47,-1.71 0.045,-1.859 -4.276,-2.703 -9.312,-3.664 l -0.421,-5.357 c 4.184,0.556 14.329,1.883 14.179,7.928 -0.053,2.143 -1.02,3.378 -3.127,4.22 -1.099,0.441 -2.916,1.169 -3.53,1.415 -1.416,0.567 -1.359,2.028 -0.28,2.895 1.012,0.819 3.308,1.585 7.392,2.033 l 0.745,9.467 C 2.976,7.664 0.609,4.544 0,0"
             style="fill:#e60214;fill-opacity:1;fill-rule:nonzero;stroke:none"
             id="path10780" /></g><g
           id="g10782"
           transform="translate(417.9282,120.7776)"><path
             d="M 0,0 C 7.188,1.594 7.649,7.44 8.82,22.322 L 5.433,21.57 C 4.613,11.17 3.995,7.993 1.021,7.333 -1.865,6.693 -1.872,8.259 -0.933,20.203 L -5.437,19.205 C -6.676,3.453 -7.383,-1.637 0,0"
             style="fill:#e60214;fill-opacity:1;fill-rule:nonzero;stroke:none"
             id="path10784" /></g><g
           id="g10786"
           transform="translate(426.6196,149.3747)"><path
             d="M 0,0 C -1.626,0.313 -2.111,1.589 -1.884,4.483 L -0.852,17.603 -6.346,16.384 -8.172,-6.825 6.09,-3.664 6.471,1.177 C 6.471,1.177 1.658,-0.319 0,0"
             style="fill:#e60214;fill-opacity:1;fill-rule:nonzero;stroke:none"
             id="path10788" /></g><g
           id="g10790"
           transform="translate(420.772,180.3454)"><path
             d="M 0,0 C 0.075,0.96 0.637,1.559 1.669,1.683 3.739,1.93 4.566,0.681 4.439,-0.93 4.334,-2.273 3.438,-3.89 1.368,-4.379 c -1.107,-0.26 -1.71,0.041 -1.636,0.981 z m -0.661,-8.463 c 0.071,0.914 0.327,1.365 0.863,1.455 4.826,0.808 8.417,3.235 8.808,8.3 C 9.218,6.805 3.894,9.925 -4.58,6.67 l -1.676,-21.286 5.201,1.153 z"
             style="fill:#e60214;fill-opacity:1;fill-rule:nonzero;stroke:none"
             id="path10792" /></g><g
           id="g10794"
           transform="translate(310.1807,163.4729)"><path
             d="m 0,0 v -29.396 l 8.52,1.967 c 5.168,1.194 7.303,0.521 7.303,-8.627 V -73.79 l 13.987,3.205 v 34.615 c 0,15.375 1.443,19.255 9.054,21.012 l 6.961,1.607 V 10.58 Z"
             style="fill:#feee04;fill-opacity:1;fill-rule:nonzero;stroke:none"
             id="path10796" /></g><g
           id="g10798"
           transform="translate(293.0513,112.4079)"><path
             d="m 0,0 c -0.218,2.049 -3.762,2.513 -9.281,3.836 -9.651,2.396 -15.624,8.081 -15.014,18.069 0.649,10.78 6.108,18.299 34.992,23.204 V 22.684 C 0.274,21.38 -5.48,19.43 -7.921,17.434 -10.524,15.321 -10.373,11.862 -6.615,10.607 -4.983,10.062 -0.157,8.45 2.76,7.472 8.356,5.607 11.095,2.747 11.666,-2.317 13.278,-16.6 -12.573,-20.346 -23.231,-21.911 V -9.22 C -10.462,-6.647 0.493,-4.393 0,0"
             style="fill:#feee04;fill-opacity:1;fill-rule:nonzero;stroke:none"
             id="path10800" /></g><g
           id="g10802"
           transform="translate(242.1489,84.8908)"><path
             d="m 0,0 c -0.355,-0.002 -2.983,0.088 -3.264,2.093 -0.163,1.161 0.394,2.251 1.797,3.109 2.193,1.341 9.782,3.522 17.068,5.231 v 10.073 c 0,0 -13.191,-3.173 -17.248,-2.57 -1.232,0.183 -2.053,0.835 -2.216,1.973 -0.167,1.163 0.42,2.212 1.797,3.109 3.71,2.416 20.361,6.008 20.361,6.008 V 54.08 L -15.99,46.165 v -61.962 l 35.004,8.081 V 3.348 C 9.672,1.226 3.357,0.019 0,0"
             style="fill:#feee04;fill-opacity:1;fill-rule:nonzero;stroke:none"
             id="path10804" /></g><g
           id="g10806"
           transform="translate(189.4438,73.7102)"><path
             d="m 0,0 c -4.473,-1.095 -7.938,-0.802 -7.938,3.199 v 10.655 c 0,2.908 0.535,6.686 4.07,7.733 7.883,2.129 15.27,1.093 16.103,-5.381 C 13.21,8.684 9.925,2.419 0,0 m -7.938,42.811 c -0.015,3.206 0.726,7.343 3.806,8.297 12.282,3.207 15.116,-2.036 15.116,-7.663 0,-5.256 -4.33,-8.928 -12.44,-10.831 -4.161,-0.977 -6.482,1.141 -6.482,5.748 z m 24.092,-9.712 c 0,0 10.655,5.241 10.655,20.878 0,20.101 -23.172,18.914 -48.023,11.153 v -81.316 c 44.745,4.943 50.472,19.523 50.472,34.554 0,16.795 -13.104,14.731 -13.104,14.731"
             style="fill:#feee04;fill-opacity:1;fill-rule:nonzero;stroke:none"
             id="path10808" /></g><g
           id="g10810"
           transform="translate(158.3223,91.7253)"><path
             d="m 0,0 -10.026,-0.763 -4.543,8.096 -4.416,-10.082 -10.007,-3.678 7.297,-5.469 -1.642,-10.37 8.927,6.703 8.992,-2.73 -1.781,9.611 z"
             style="fill:#feee04;fill-opacity:1;fill-rule:nonzero;stroke:none"
             id="path10812" /></g><g
           id="g10814"
           transform="translate(107.7031,65.9138)"><path
             d="m 0,0 c -0.246,-0.001 -2.069,0.061 -2.264,1.451 -0.112,0.805 0.274,1.562 1.246,2.156 1.521,0.931 6.786,2.444 11.838,3.629 v 6.987 c 0,0 -9.149,-2.202 -11.962,-1.784 -0.855,0.128 -1.424,0.58 -1.537,1.369 -0.116,0.807 0.291,1.534 1.246,2.156 2.573,1.676 14.122,4.167 14.122,4.167 V 37.508 L -11.09,32.019 v -42.976 l 24.278,5.605 V 2.322 C 6.708,0.85 2.328,0.013 0,0"
             style="fill:#feee04;fill-opacity:1;fill-rule:nonzero;stroke:none"
             id="path10816" /></g><g
           id="g10818"
           transform="translate(82.4248,85.8049)"><path
             d="m 0,0 c -0.033,-5.702 -0.022,-10.901 -0.268,-12.802 -0.57,-4.539 -8.33,-6.585 -8.71,-2.404 -0.179,1.968 -0.335,4.568 -0.335,10.371 l -6.272,-1.448 v -38.238 l 7.994,1.846 c 0,6.071 0,8.709 0.1,10.788 0.28,5.479 8.509,6.72 9.224,1.957 0.325,-2.169 0.38,-3.209 0.38,-8.106 l 6.373,1.471 V 1.959 Z"
             style="fill:#feee04;fill-opacity:1;fill-rule:nonzero;stroke:none"
             id="path10820" /></g><g
           id="g10822"
           transform="translate(32.3569,81.532)"><path
             d="m 0,0 v -18.922 l 5.484,1.266 c 3.327,0.768 4.701,0.335 4.701,-5.553 v -24.289 l 9.003,2.063 v 22.281 c 0,9.897 0.93,12.395 5.829,13.526 l 4.481,1.034 V 6.81 Z"
             style="fill:#feee04;fill-opacity:1;fill-rule:nonzero;stroke:none"
             id="path10824" /></g><g
           id="g10826"
           transform="translate(444.605,281.8152)"><path
             d="m 0,0 c 0,0 -0.076,-19.826 -0.323,-23.313 -0.386,-5.447 -1.849,-5.593 -3.095,-4.776 -2.485,1.63 -7.129,10.915 -11.287,18.989 l -6.066,-1.4 v -50.17 l 7.417,1.712 0.026,12.73 c 0.013,6.535 1.797,6.96 4.39,4.586 1.966,-1.801 4.643,-5.773 8.862,-12.527 l 9.815,2.266 V 2.249 Z"
             style="fill:#ff5500;fill-opacity:1;fill-rule:nonzero;stroke:none"
             id="path10828" /></g><g
           id="g10830"
           transform="translate(407.1646,231.5583)"><path
             d="m 0,0 c -0.226,-0.001 -1.892,0.055 -2.069,1.327 -0.104,0.736 0.25,1.427 1.138,1.971 1.391,0.85 6.203,2.233 10.823,3.317 v 6.387 c 0,0 -8.365,-2.013 -10.936,-1.63 -0.781,0.116 -1.302,0.529 -1.405,1.251 -0.106,0.737 0.265,1.402 1.138,1.971 2.353,1.532 12.912,3.81 12.912,3.81 v 14.738 l -21.74,-5.019 V -11.164 L 12.056,-6.04 V 2.123 C 6.132,0.777 2.128,0.011 0,0"
             style="fill:#ff5500;fill-opacity:1;fill-rule:nonzero;stroke:none"
             id="path10832" /></g><g
           id="g10834"
           transform="translate(383.1318,260.8698)"><path
             d="m 0,0 c 0,0 -2.355,-15.516 -4.446,-22.686 -0.598,-2.049 -2.042,-5.184 -4.006,-0.701 -0.704,1.605 -2.792,9.106 -4.325,18.775 l -6.782,-1.565 c 0.594,-6.649 3.849,-24.607 8.187,-35.069 l 13.153,3.037 c 4.842,12.813 7.746,26.346 8.734,40.637 z"
             style="fill:#ff5500;fill-opacity:1;fill-rule:nonzero;stroke:none"
             id="path10836" /></g><g
           id="g10838"
           transform="translate(353.9883,217.299)"><path
             d="m 0,0 c -1.047,-0.228 -3.431,-0.832 -4.649,-1.06 -1.165,-0.228 -1.846,0.43 -1.702,2.093 0.131,1.556 0.814,4.856 1.074,5.97 0.573,2.464 1.699,3.492 3.025,3.676 C -0.554,10.916 0.93,9.432 1.742,5.407 1.82,5.018 2.019,4.21 2.147,3.113 2.305,1.78 1.65,0.416 0,0 m 5.797,22.242 c -3.292,6.064 -7.12,4.807 -9.081,4.158 -2.57,-0.85 -4.851,-2.17 -7.237,-11.637 -2.509,-9.952 -5.241,-30.856 -5.241,-30.856 l 6.887,1.59 0.708,3.963 c 0.341,1.914 1.56,3.13 3.417,3.677 0,0 5.336,1.385 7.158,1.592 0.769,0.087 1.674,-0.52 1.936,-1.725 l 0.931,-4.264 9.379,2.165 c 0,0 -4.666,23.615 -8.857,31.337"
             style="fill:#ff5500;fill-opacity:1;fill-rule:nonzero;stroke:none"
             id="path10840" /></g><g
           id="g10842"
           transform="translate(323.019,209.4065)"><path
             d="m 0,0 c -0.225,-0.001 -1.891,0.055 -2.069,1.327 -0.104,0.736 0.25,1.427 1.139,1.971 1.39,0.85 6.202,2.233 10.822,3.317 v 6.387 c 0,0 -8.364,-2.013 -10.936,-1.63 -0.782,0.116 -1.302,0.529 -1.405,1.251 -0.106,0.737 0.266,1.402 1.139,1.971 2.352,1.532 12.91,3.81 12.91,3.81 l 0.001,15.885 -21.74,-5.018 v -39.288 l 22.195,5.124 V 2.123 C 6.132,0.777 2.128,0.011 0,0"
             style="fill:#ff5500;fill-opacity:1;fill-rule:nonzero;stroke:none"
             id="path10844" /></g><g
           id="g10846"
           transform="translate(296.0493,242.2029)"><path
             d="m 0,0 c 0,-7.84 0.04,-13.707 -1.035,-17.552 -0.652,-2.335 -2.088,-4.113 -4.006,-5.458 -1.953,-1.371 -3.911,-1.971 -5.828,-2.01 -2.339,-0.045 -4.048,1.227 -4.298,3.825 -0.358,3.732 -0.335,8.449 -0.335,14.985 l -8.487,-1.96 v -57.808 l 11.658,2.691 c 0,7.357 0.151,12.78 1.058,16.162 0.617,2.305 2.298,4.25 3.995,5.396 1.984,1.34 3.808,2.01 5.729,2.041 2.336,0.038 4.109,-1.167 4.329,-3.497 0.323,-3.411 0.344,-8.05 0.344,-14.382 l 8.638,1.994 V 2.715 Z"
             style="fill:#ff5500;fill-opacity:1;fill-rule:nonzero;stroke:none"
             id="path10848" /></g><g
           id="g10850"
           transform="translate(244.1328,224.8073)"><path
             d="m 0,0 c -3.619,-11.95 -5.667,-17.793 -7.451,-22.719 -3.041,-8.381 -6.195,-5.089 -7.665,-2.752 -1.709,2.74 -4.034,8.068 -8.068,17.831 l -9.964,-2.299 v -46.907 l 8.268,1.909 c -0.062,7.477 0.063,12.553 0.465,14.526 0.365,1.772 1.433,2.023 2.513,0.264 0.892,-1.445 2.3,-4.574 5.102,-11.008 l 5.54,1.279 c 3.053,8.206 4.701,12.342 5.869,14.365 0.943,1.647 2.74,2.803 3.28,-0.239 0.415,-2.299 0.377,-8.537 0.364,-16.177 l 8.57,1.978 V 1.575 Z"
             style="fill:#ffaa00;fill-opacity:1;fill-rule:nonzero;stroke:none"
             id="path10852" /></g><g
           id="g10854"
           transform="translate(196.459,200.3166)"><path
             d="m 0,0 c -0.038,-6.409 -0.025,-12.251 -0.302,-14.388 -0.64,-5.101 -9.361,-7.401 -9.788,-2.701 -0.201,2.211 -0.377,5.133 -0.377,11.654 l -7.05,-1.627 v -42.975 l 8.985,2.075 c 0,6.823 0,9.787 0.113,12.125 0.314,6.157 9.563,7.551 10.367,2.198 0.364,-2.437 0.427,-3.606 0.427,-9.11 l 7.162,1.654 V 2.202 Z"
             style="fill:#ffaa00;fill-opacity:1;fill-rule:nonzero;stroke:none"
             id="path10856" /></g><g
           id="g10858"
           transform="translate(148.7852,196.7668)"><path
             d="m 0,0 v -17.298 l 5.014,1.158 c 3.04,0.702 4.297,0.306 4.297,-5.077 v -22.204 l 8.231,1.885 v 20.369 c 0,9.048 0.849,11.331 5.327,12.365 l 4.097,0.946 V 6.226 Z"
             style="fill:#ffaa00;fill-opacity:1;fill-rule:nonzero;stroke:none"
             id="path10860" /></g><g
           id="g10862"
           transform="translate(145.4175,185.3425)"><path
             d="m 0,0 -7.69,-1.776 c 0,0 0.113,-7.916 -0.189,-13.746 -0.44,-8.533 -9.035,-10.367 -9.725,-2.249 -0.353,4.259 -0.516,12.75 -0.516,12.75 l -9.562,-2.208 v -6.924 c 0,-16.524 10.744,-18.559 16.36,-13.847 0.34,0.289 0.679,0.465 0.955,0.339 0.314,-0.138 0.302,-0.477 0.176,-1.106 -0.339,-1.646 -2.777,-4.9 -7.703,-6.22 -3.757,-1.005 -7.439,-1.639 -9.273,-1.928 v -11.466 c 8.268,1.068 17.843,3.43 22.304,10.291 2.324,3.581 3.544,7.363 4.147,12.967 C 0.226,-16.301 0,0 0,0"
             style="fill:#ffaa00;fill-opacity:1;fill-rule:nonzero;stroke:none"
             id="path10864" /></g><g
           id="g10866"
           transform="translate(103.5107,186.0549)"><path
             d="m 0,0 c -0.038,-6.409 -0.025,-12.251 -0.301,-14.388 -0.641,-5.101 -9.362,-7.401 -9.789,-2.701 -0.201,2.211 -0.377,5.133 -0.377,11.654 l -7.049,-1.627 v -42.975 l 8.984,2.075 c 0,6.823 0,9.788 0.113,12.125 0.315,6.157 9.563,7.552 10.367,2.199 0.364,-2.438 0.427,-3.607 0.427,-9.111 l 7.163,1.654 V 2.202 Z"
             style="fill:#ffaa00;fill-opacity:1;fill-rule:nonzero;stroke:none"
             id="path10868" /></g><g
           id="g10870"
           transform="translate(56.7163,160.2072)"><path
             d="m 0,0 c -3.43,-0.804 -5.34,1.106 -5.34,5.189 v 3.946 c 0,2.846 0.552,5.316 3.091,6.12 C 5.121,17.59 10.254,14.413 10.254,9.424 10.254,4.763 6.685,1.571 0,0 m 24.842,17.052 c 0,18.132 -17.742,23.397 -39.443,15.644 v -58.532 l 9.248,2.135 v 14.654 c 0,2.236 1.646,1.847 3.167,0.49 1.068,-0.955 7.489,-7.175 11.975,-11.649 l 14.118,3.26 c 0,0 -12.309,12.573 -13.729,13.817 8.269,3.091 14.664,11.147 14.664,20.181"
             style="fill:#ffaa00;fill-opacity:1;fill-rule:nonzero;stroke:none"
             id="path10872" /></g></g></g></g></svg>
