<?xml version="1.0" encoding="UTF-8" standalone="no"?>
<!-- Created with Inkscape (http://www.inkscape.org/) -->

<svg
   version="1.1"
   id="svg2"
   width="666.66669"
   height="496.35468"
   viewBox="0 0 666.66669 496.35468"
   sodipodi:docname="RhYthm Heaven Logo.ai"
   xmlns:inkscape="http://www.inkscape.org/namespaces/inkscape"
   xmlns:sodipodi="http://sodipodi.sourceforge.net/DTD/sodipodi-0.dtd"
   xmlns="http://www.w3.org/2000/svg"
   xmlns:svg="http://www.w3.org/2000/svg">
  <defs
     id="defs6">
    <clipPath
       clipPathUnits="userSpaceOnUse"
       id="clipPath16">
      <path
         d="M 0,372.266 H 500 V 0 H 0 Z"
         id="path14" />
    </clipPath>
  </defs>
  <sodipodi:namedview
     id="namedview4"
     pagecolor="#ffffff"
     bordercolor="#000000"
     borderopacity="0.25"
     inkscape:showpageshadow="2"
     inkscape:pageopacity="0.0"
     inkscape:pagecheckerboard="0"
     inkscape:deskcolor="#d1d1d1" />
  <g
     id="g8"
     inkscape:groupmode="layer"
     inkscape:label="RhYthm Heaven Logo"
     transform="matrix(1.3333333,0,0,-1.3333333,0,496.35467)">
    <g
       id="g10">
      <g
         id="g12"
         clip-path="url(#clipPath16)">
        <g
           id="g18"
           transform="translate(481.8827,224.0315)">
          <path
             d="m 0,0 c 4.894,12.547 7.441,25.99 7.441,39.551 0,59.928 -48.754,108.683 -108.682,108.683 -34.925,0 -67.126,-16.686 -87.342,-43.975 -14.012,7.001 -29.565,10.725 -45.455,10.725 -20.991,0 -41.147,-6.349 -58.288,-18.36 -8.888,-6.229 -16.636,-13.735 -23.038,-22.255 -17.194,10.789 -37.268,16.702 -57.836,16.702 -59.928,0 -108.683,-48.755 -108.683,-108.683 0,-24.092 7.724,-46.916 22.336,-66.007 10.206,-13.335 23.493,-24.171 38.472,-31.557 -0.205,-2.623 -0.307,-5.258 -0.307,-7.897 0,-55.669 45.29,-100.959 100.958,-100.959 20.885,0 40.931,6.327 57.972,18.298 10.137,7.121 18.774,15.914 25.603,25.984 11.397,-4.307 23.536,-6.534 35.935,-6.534 31.208,0 60.532,14.581 79.601,38.459 12.554,-5.597 26.177,-8.498 40.267,-8.498 54.679,0 99.163,44.484 99.163,99.162 C 18.117,-36.458 11.765,-16.626 0,0"
             style="fill:#00b3f0;fill-opacity:1;fill-rule:nonzero;stroke:none"
             id="path20" />
        </g>
        <g
           id="g22"
           transform="translate(468.8915,222.4202)">
          <path
             d="m 0,0 c 5.98,12.826 9.115,26.918 9.115,41.162 0,53.688 -43.678,97.366 -97.365,97.366 -34.693,0 -66.385,-18.377 -83.768,-47.706 -14.529,9.386 -31.55,14.456 -49.028,14.456 -18.656,0 -36.566,-5.64 -51.794,-16.312 -10.96,-7.68 -19.968,-17.542 -26.537,-28.964 -17.16,13.703 -38.677,21.363 -60.831,21.363 -53.688,0 -97.366,-43.678 -97.366,-97.365 0,-40.116 24.959,-76.144 61.727,-90.631 -0.815,-4.887 -1.227,-9.848 -1.227,-14.83 0,-49.429 40.213,-89.642 89.641,-89.642 18.544,0 36.341,5.616 51.467,16.241 11.591,8.143 20.975,18.746 27.566,31.059 12.499,-6.276 26.296,-9.552 40.477,-9.552 30.846,0 59.619,16.027 76.091,41.624 13.257,-7.66 28.192,-11.663 43.777,-11.663 48.438,0 87.845,39.407 87.845,87.845 C 19.79,-35.123 12.811,-15.654 0,0"
             style="fill:#ffffff;fill-opacity:1;fill-rule:nonzero;stroke:none"
             id="path24" />
        </g>
        <g
           id="g26"
           transform="translate(457.0273,220.9138)">
          <path
             d="m 0,0 c 7.066,12.623 11.101,27.174 11.101,42.669 0,48.317 -39.169,87.485 -87.487,87.485 -35.965,0 -66.855,-21.705 -80.301,-52.728 -14.093,12.138 -32.437,19.478 -52.495,19.478 -34.319,0 -63.615,-21.483 -75.188,-51.733 -15.969,17.115 -38.72,27.82 -63.974,27.82 -48.317,0 -87.486,-39.168 -87.486,-87.485 0,-39.96 26.792,-73.661 63.392,-84.124 -1.882,-6.792 -2.892,-13.946 -2.892,-21.337 0,-44.051 35.711,-79.762 79.762,-79.762 34.078,0 63.159,21.375 74.582,51.446 12.832,-8.648 28.29,-13.698 44.927,-13.698 32.058,0 59.734,18.744 72.675,45.869 13.102,-9.979 29.454,-15.908 47.195,-15.908 43.058,0 77.963,34.906 77.963,77.965 C 21.774,-33.06 13.483,-14.015 0,0"
             style="fill:#130c0e;fill-opacity:1;fill-rule:nonzero;stroke:none"
             id="path28" />
        </g>
        <g
           id="g30"
           transform="translate(457.0214,137.6726)">
          <path
             d="m 0,0 v 6.729 l -1.691,-7.12 -1.833,-0.423 -1.652,6.348 v -6.729 l -1.731,-0.4 V 6.46 l 2.705,0.625 1.632,-6.013 0.02,0.005 1.591,6.756 2.671,0.617 V 0.395 Z M -12.504,-2.888 V 3.739 L -15.29,3.097 v 1.424 l 7.369,1.701 V 4.798 l -2.685,-0.62 v -6.627 z"
             style="fill:#f15a22;fill-opacity:1;fill-rule:nonzero;stroke:none"
             id="path32" />
        </g>
        <g
           id="g34"
           transform="translate(419.8544,223.2986)">
          <path
             d="m 0,0 c 0,0 -0.125,-32.698 -0.532,-38.45 -0.636,-8.985 -3.05,-9.226 -5.104,-7.878 -4.099,2.689 -11.759,18.003 -18.616,31.32 l -10.005,-2.31 v -82.747 l 12.234,2.825 0.041,20.996 c 0.021,10.777 2.963,11.478 7.24,7.563 3.245,-2.97 7.66,-9.522 14.617,-20.662 l 16.189,3.739 V 3.709 Z"
             style="fill:#f15a22;fill-opacity:1;fill-rule:nonzero;stroke:none"
             id="path36" />
        </g>
        <g
           id="g38"
           transform="translate(358.1034,140.4089)">
          <path
             d="m 0,0 c -0.371,-0.002 -3.119,0.092 -3.413,2.188 -0.17,1.214 0.412,2.354 1.879,3.251 2.293,1.403 10.23,3.684 17.848,5.471 v 10.534 c 0,0 -13.793,-3.319 -18.036,-2.688 -1.289,0.191 -2.147,0.873 -2.317,2.063 -0.175,1.217 0.438,2.314 1.879,3.251 3.879,2.528 21.293,6.284 21.293,6.284 v 24.308 l -35.855,-8.278 v -64.797 l 36.607,8.451 V 3.501 C 10.114,1.281 3.511,0.019 0,0"
             style="fill:#f15a22;fill-opacity:1;fill-rule:nonzero;stroke:none"
             id="path40" />
        </g>
        <g
           id="g42"
           transform="translate(318.4657,188.7532)">
          <path
             d="m 0,0 c 0,0 -3.884,-25.59 -7.333,-37.417 -0.985,-3.378 -3.367,-8.548 -6.607,-1.156 -1.161,2.648 -4.605,15.019 -7.133,30.967 l -11.186,-2.582 c 0.979,-10.966 6.349,-40.584 13.503,-57.839 l 21.694,5.008 c 7.985,21.133 12.776,43.452 14.405,67.023 z"
             style="fill:#f15a22;fill-opacity:1;fill-rule:nonzero;stroke:none"
             id="path44" />
        </g>
        <g
           id="g46"
           transform="translate(270.3983,116.8913)">
          <path
             d="m 0,0 c -1.728,-0.376 -5.658,-1.372 -7.667,-1.748 -1.923,-0.376 -3.046,0.708 -2.808,3.452 0.216,2.567 1.343,8.009 1.771,9.846 0.946,4.064 2.804,5.759 4.989,6.063 2.802,0.391 5.249,-2.057 6.588,-8.696 C 3.003,8.275 3.329,6.943 3.543,5.134 3.801,2.936 2.722,0.686 0,0 M 9.562,36.684 C 4.133,46.686 -2.181,44.612 -5.416,43.542 -9.654,42.14 -13.417,39.963 -17.354,24.349 -21.491,7.935 -25.996,-26.544 -25.996,-26.544 l 11.359,2.622 1.167,6.537 c 0.564,3.157 2.574,5.163 5.636,6.065 0,0 8.802,2.284 11.806,2.626 1.269,0.144 2.76,-0.858 3.194,-2.845 l 1.534,-7.033 15.469,3.571 c 0,0 -7.695,38.948 -14.607,51.685"
             style="fill:#f15a22;fill-opacity:1;fill-rule:nonzero;stroke:none"
             id="path48" />
        </g>
        <g
           id="g50"
           transform="translate(219.3202,103.8728)">
          <path
             d="M 0,0 C -0.371,-0.002 -3.12,0.092 -3.413,2.188 -3.583,3.403 -3,4.543 -1.535,5.439 0.759,6.843 8.696,9.124 16.314,10.91 v 10.535 c 0,0 -13.794,-3.319 -18.036,-2.688 -1.289,0.191 -2.147,0.872 -2.318,2.063 -0.174,1.216 0.439,2.313 1.879,3.251 3.88,2.527 21.294,6.283 21.294,6.283 v 26.201 l -35.855,-8.278 v -64.798 l 36.606,8.452 V 3.502 C 10.114,1.282 3.51,0.02 0,0"
             style="fill:#f15a22;fill-opacity:1;fill-rule:nonzero;stroke:none"
             id="path52" />
        </g>
        <g
           id="g54"
           transform="translate(174.6977,157.9324)">
          <path
             d="m 0,0 c 0.345,-12.91 0.206,-22.574 -1.565,-28.916 -1.077,-3.852 -3.445,-6.783 -6.608,-9.003 -3.221,-2.261 -6.451,-3.251 -9.613,-3.313 -3.857,-0.077 -6.644,1.424 -7.014,5.47 -0.564,6.158 -0.815,14.767 -0.627,25.552 l -13.997,-3.231 v -95.345 l 19.227,4.438 c -0.345,12.161 0.07,21.181 1.565,26.76 1.02,3.801 3.809,7.019 6.608,8.909 3.271,2.209 6.444,3.356 9.613,3.408 3.851,0.062 6.651,-1.724 7.014,-5.565 0.533,-5.627 0.783,-13.745 0.626,-24.092 l 14.311,3.304 V 4.512 Z"
             style="fill:#f15a22;fill-opacity:1;fill-rule:nonzero;stroke:none"
             id="path56" />
        </g>
        <g
           id="g58"
           transform="translate(418.4433,234.3689)">
          <path
             d="m 0,0 v 83.019 l -11.349,-2.62 c -6.019,-19.876 -9.425,-29.594 -12.393,-37.787 -5.058,-13.94 -10.304,-8.465 -12.749,-4.577 -2.843,4.556 -6.709,13.42 -13.418,29.658 l -16.573,-3.826 v -76.818 l 13.743,3.173 c -0.105,12.435 0.113,19.682 0.782,22.963 0.606,2.947 2.383,3.365 4.18,0.439 1.484,-2.404 3.825,-7.608 8.485,-18.309 l 9.217,2.128 c 5.079,13.648 7.816,20.528 9.761,23.893 1.567,2.738 4.555,4.661 5.455,-0.397 0.689,-3.825 0.627,-11.522 0.605,-24.23 z"
             style="fill:#faa61a;fill-opacity:1;fill-rule:nonzero;stroke:none"
             id="path60" />
        </g>
        <g
           id="g62"
           transform="translate(328.5419,279.2697)">
          <path
             d="m 0,0 v -23.921 c -0.793,-7.717 -14.451,-10.984 -15.419,-2.88 -0.328,3.609 -0.501,8.594 -0.501,19.236 l -11.476,-2.649 V -81.33 l 15.735,3.632 v 17.023 c 0.957,12.311 15.224,12.994 16.537,4.259 0.441,-2.753 0.4,-7.104 0.4,-16.085 l 11.476,2.649 V 3.867 Z"
             style="fill:#faa61a;fill-opacity:1;fill-rule:nonzero;stroke:none"
             id="path64" />
        </g>
        <g
           id="g66"
           transform="translate(250.2846,269.1418)">
          <path
             d="m 0,0 v -29.308 l 10.587,2.445 c 4.22,0.974 5.702,0.078 5.671,-8.399 v -37.664 l 12.544,2.896 v 34.854 c 0.087,14.962 1.843,18.059 9.284,19.777 l 6.644,1.534 v 24.192 z"
             style="fill:#faa61a;fill-opacity:1;fill-rule:nonzero;stroke:none"
             id="path68" />
        </g>
        <g
           id="g70"
           transform="translate(230.7113,253.6091)">
          <path
             d="m 0,0 c 0,0 -0.304,-13.483 -0.824,-23.531 -0.775,-14.252 -16.015,-18.687 -16.86,-4.187 -0.386,7.392 -0.508,21.909 -0.508,21.909 l -16.135,-3.725 v -6.857 c 0,-25.771 3.087,-35.438 17.588,-34.193 v -28.115 l 14.582,3.367 v 28.286 c 6.62,3.369 14.483,12.129 15.145,26.478 0.332,7.205 0.391,14.528 0.39,23.656 z"
             style="fill:#faa61a;fill-opacity:1;fill-rule:nonzero;stroke:none"
             id="path72" />
        </g>
        <g
           id="g74"
           transform="translate(173.0248,245.362)">
          <path
             d="m 0,0 v -22.734 c -0.753,-7.334 -13.734,-10.439 -14.654,-2.737 -0.312,3.43 -0.476,8.168 -0.476,18.282 l -10.906,-2.518 v -67.587 l 14.954,3.452 v 16.178 c 0.909,11.7 14.469,12.35 15.716,4.048 0.419,-2.617 0.381,-6.752 0.381,-15.287 l 10.905,2.517 V 3.676 Z"
             style="fill:#faa61a;fill-opacity:1;fill-rule:nonzero;stroke:none"
             id="path76" />
        </g>
        <g
           id="g78"
           transform="translate(99.5639,195.3259)">
          <path
             d="m 0,0 c -6.848,-1.746 -10.887,1.922 -10.887,11.127 0,7.342 0.139,14.922 13.581,14.922 9.57,0 13.563,-4.845 13.572,-10.312 C 16.275,10.637 10.441,2.662 0,0 m 40.187,30.328 c 0,16.907 -12.458,37.357 -64.578,24.812 v -91.952 l 13.573,3.134 v 16.43 c 0,8.02 5.219,4.799 6.372,4.075 1.948,-1.224 6.017,-4.552 15.683,-15.413 l 23.058,5.323 -17.968,18.397 c 0,0 23.86,9.607 23.86,35.194"
             style="fill:#faa61a;fill-opacity:1;fill-rule:nonzero;stroke:none"
             id="path80" />
        </g>
      </g>
    </g>
  </g>
</svg>
