<?xml version="1.0" encoding="UTF-8" standalone="no"?>
<!-- Created with Inkscape (http://www.inkscape.org/) -->

<svg
   version="1.1"
   id="svg1"
   width="666.66669"
   height="347.64932"
   viewBox="0 0 666.66669 347.64932"
   sodipodi:docname="Rhythm World (리듬 세상) Logo but with 2015 Colors.ai"
   xmlns:inkscape="http://www.inkscape.org/namespaces/inkscape"
   xmlns:sodipodi="http://sodipodi.sourceforge.net/DTD/sodipodi-0.dtd"
   xmlns="http://www.w3.org/2000/svg"
   xmlns:svg="http://www.w3.org/2000/svg">
  <defs
     id="defs1">
    <clipPath
       clipPathUnits="userSpaceOnUse"
       id="clipPath2">
      <path
         d="M 0,260.737 H 500 V 0 H 0 Z"
         transform="translate(-399.43071,-252.21191)"
         id="path2" />
    </clipPath>
    <clipPath
       clipPathUnits="userSpaceOnUse"
       id="clipPath4">
      <path
         d="M 0,260.737 H 500 V 0 H 0 Z"
         transform="translate(-399.43071,-244.41261)"
         id="path4" />
    </clipPath>
    <clipPath
       clipPathUnits="userSpaceOnUse"
       id="clipPath6">
      <path
         d="M 0,260.737 H 500 V 0 H 0 Z"
         transform="translate(-399.43071,-237.63771)"
         id="path6" />
    </clipPath>
    <clipPath
       clipPathUnits="userSpaceOnUse"
       id="clipPath8">
      <path
         d="M 0,260.737 H 500 V 0 H 0 Z"
         transform="translate(-386.40621,-157.8916)"
         id="path8" />
    </clipPath>
    <clipPath
       clipPathUnits="userSpaceOnUse"
       id="clipPath10">
      <path
         d="M 0,260.737 H 500 V 0 H 0 Z"
         transform="translate(-320.58201,-215.42871)"
         id="path10" />
    </clipPath>
    <clipPath
       clipPathUnits="userSpaceOnUse"
       id="clipPath12">
      <path
         d="M 0,260.737 H 500 V 0 H 0 Z"
         transform="translate(-179.416,-126.0449)"
         id="path12" />
    </clipPath>
    <clipPath
       clipPathUnits="userSpaceOnUse"
       id="clipPath14">
      <path
         d="M 0,260.737 H 500 V 0 H 0 Z"
         transform="translate(-104.02,-174.8408)"
         id="path14" />
    </clipPath>
    <clipPath
       clipPathUnits="userSpaceOnUse"
       id="clipPath16">
      <path
         d="M 0,260.737 H 500 V 0 H 0 Z"
         transform="translate(-493.80861,-59.960899)"
         id="path16" />
    </clipPath>
  </defs>
  <sodipodi:namedview
     id="namedview1"
     pagecolor="#ffffff"
     bordercolor="#000000"
     borderopacity="0.25"
     inkscape:showpageshadow="2"
     inkscape:pageopacity="0.0"
     inkscape:pagecheckerboard="0"
     inkscape:deskcolor="#d1d1d1">
    <inkscape:page
       x="0"
       y="0"
       inkscape:label="1"
       id="page1"
       width="666.66669"
       height="347.64932"
       margin="0"
       bleed="0" />
  </sodipodi:namedview>
  <g
     id="layer-MC0"
     inkscape:groupmode="layer"
     inkscape:label="Layer 1">
    <path
       id="path1"
       d="M 0,0 C -14.063,0 -27.961,-2.948 -40.705,-8.585 -57.21,2.503 -76.803,8.525 -96.82,8.525 c -40.297,0 -76.507,-24.31 -92.263,-60.527 -12.904,1.742 -25.998,0.953 -38.427,-2.227 -18.808,18.989 -44.311,29.706 -71.376,29.706 -55.441,0 -100.545,-45.104 -100.545,-100.545 0,-55.441 45.104,-100.545 100.545,-100.545 8.491,0 16.863,1.051 24.996,3.132 18.823,-19.006 44.334,-29.731 71.4,-29.731 40.297,0 76.507,24.311 92.261,60.527 18.449,-2.491 37.332,0.247 54.138,7.68 16.506,-11.089 36.1,-17.11 56.115,-17.11 55.441,0 100.545,45.104 100.545,100.545 C 100.569,-45.115 55.454,0 0,0"
       style="fill:#0096e6;fill-opacity:1;fill-rule:nonzero;stroke:none"
       transform="matrix(1.3333333,0,0,-1.3333333,532.57427,11.3668)"
       clip-path="url(#clipPath2)" />
    <path
       id="path3"
       d="M 0,0 C -14.443,0 -28.694,-3.369 -41.494,-9.776 -57.42,2.056 -76.892,8.525 -96.82,8.525 c -39.225,0 -74.249,-24.966 -87.339,-61.46 -6.064,1.221 -12.215,1.838 -18.356,1.838 -9.363,0 -18.567,-1.384 -27.424,-4.12 -17.59,19.565 -42.457,30.694 -68.947,30.694 -51.14,0 -92.745,-41.606 -92.745,-92.746 0,-51.14 41.605,-92.745 92.745,-92.745 9.364,0 18.568,1.384 27.425,4.119 17.606,-19.581 42.482,-30.718 68.971,-30.718 39.224,0 74.249,24.965 87.338,61.459 6.064,-1.221 12.214,-1.837 18.356,-1.837 14.444,0 28.693,3.368 41.494,9.776 15.928,-11.832 35.399,-18.301 55.326,-18.301 51.14,0 92.746,41.605 92.746,92.745 C 92.77,-41.617 51.153,0 0,0"
       style="fill:#ffffff;fill-opacity:1;fill-rule:nonzero;stroke:none"
       transform="matrix(1.3333333,0,0,-1.3333333,532.57427,21.765867)"
       clip-path="url(#clipPath4)" />
    <path
       id="path5"
       d="M 0,0 C -15.325,0 -29.724,-4 -42.198,-11.049 -57.048,1.175 -76.071,8.525 -96.82,8.525 c -39.424,0 -72.647,-26.549 -82.797,-62.722 -7.299,2 -14.974,3.1 -22.898,3.1 -10.4,0 -20.374,-1.85 -29.599,-5.225 -15.749,19.399 -39.823,31.799 -66.772,31.799 -47.472,0 -85.97,-38.499 -85.97,-85.971 0,-47.473 38.498,-85.971 85.97,-85.971 10.4,0 20.374,1.85 29.599,5.225 15.774,-19.424 39.823,-31.823 66.797,-31.823 39.423,0 72.646,26.548 82.796,62.721 7.299,-2 14.973,-3.099 22.898,-3.099 15.324,0 29.724,3.999 42.198,11.048 14.85,-12.223 33.873,-19.574 54.622,-19.574 47.473,0 85.971,38.499 85.971,85.971 C 85.995,-38.523 47.497,0 0,0"
       style="fill:#000000;fill-opacity:1;fill-rule:nonzero;stroke:none"
       transform="matrix(1.3333333,0,0,-1.3333333,532.57427,30.799067)"
       clip-path="url(#clipPath6)" />
    <path
       id="path7"
       d="m 0,0 c 0,0 -2.032,-17.312 -24.199,-39.673 l -11.35,9.425 C -24.19,-21.05 -11.1,-0.031 -11.1,18.699 v 0.529 c 0,2.25 -1.741,2.248 -3.909,1.826 l -2.19,-0.426 v 6.667 L 7.124,32.023 V 22.242 C 7.124,3.113 17.677,0.038 31.698,-0.1 L 24.724,-10.949 C 3.417,-9.038 0,0 0,0 M 68.121,26.774 V 14.592 l -13.85,-2.693 v -22.877 l -18.499,-3.596 v 52.713 c 0,2.374 -1.948,2.349 -4.168,1.918 l -2.231,-0.434 v 7.035 l 24.898,4.84 V 24.082 Z M 19.198,-49.987 c -2.524,0.049 -7.675,0.151 -7.675,8.069 0,8.206 6.553,14.092 13.675,14.093 7.311,10e-4 7.825,-4.953 7.825,-7.969 0,-7.393 -6.371,-14.34 -13.825,-14.193 m 18.5,32.632 c -7.045,1.765 -19.566,2.032 -32.174,-6.4 -10.874,-7.272 -14.705,-20.062 -10.843,-28.851 5.918,-13.471 29.643,-11.719 44.617,-1.726 8.367,5.585 12.574,12.387 12.574,20.264 0,7.032 -3.669,14.079 -14.174,16.713"
       style="fill:#ffaa00;fill-opacity:1;fill-rule:nonzero;stroke:none"
       transform="matrix(1.3333333,0,0,-1.3333333,515.20827,137.1272)"
       clip-path="url(#clipPath8)" />
    <path
       id="path9"
       d="m 0,0 v -6.896 l 1.854,0.36 c 1.847,0.359 3.498,0.603 3.498,-1.771 v -87.828 l 18.649,3.625 V 4.666 Z m -21.847,-22.139 v -6.896 l 1.855,0.36 c 1.846,0.359 3.537,0.688 3.537,-1.686 V -50.459 L -32.097,-53.5 v -10.812 l 15.642,3.041 v -59.559 l 17.157,3.335 v 99.74 z m 2.425,-57.272 -8,-10.674 c -15.628,5.101 -19.849,12.874 -19.849,12.874 0,0 -5.917,-10.998 -18.324,-22.374 l -10.349,8.625 c 0,0 18.285,17.072 18.285,34.125 v 12.981 c 0,2.373 -1.939,2.312 -4.108,1.89 l -2.177,-0.424 v 7.5 l 23.948,4.655 v -23.879 c 0,-22.865 20.574,-25.299 20.574,-25.299"
       style="fill:#ff5500;fill-opacity:1;fill-rule:nonzero;stroke:none"
       transform="matrix(1.3333333,0,0,-1.3333333,427.44267,60.411067)"
       clip-path="url(#clipPath10)" />
    <path
       id="path11"
       d="M 0,0 V -11.026 L 59.047,0.451 V -10.294 L -9.384,-23.596 c -5.523,-1.073 -10,2.534 -10,8.057 v 12.801 c 0,2.215 -0.203,2.884 -5.383,1.878 l -0.982,-0.192 V 5.74 L 59.047,22.222 V 11.478 Z m 59.047,-15.558 v -10.744 l -99.295,-19.301 v 10.745 z M 37.348,-60.662 3.9,-67.164 v 14.01 l 33.448,6.502 z m 19.699,28.708 -79.271,-15.408 v -7.377 l 0.983,0.19 c 5.188,1.009 5.392,0.195 5.392,-2.234 v -15.439 c 0,-4.97 4.03,-8.216 9,-7.251 l 56.896,11.06 c 4.971,0.967 9,5.779 9,10.75 v 24.098 c 0,1.104 -0.895,1.826 -2,1.611"
       style="fill:#ffaa00;fill-opacity:1;fill-rule:nonzero;stroke:none"
       transform="matrix(1.3333333,0,0,-1.3333333,239.22133,179.58947)"
       clip-path="url(#clipPath12)" />
    <path
       id="path13"
       d="m 0,0 v -7.45 l 2.176,0.424 C 4.341,-6.605 6.325,-6.22 6.325,-9 v -43.997 c -3.2,-1.8 -7.298,-3.293 -12.35,-4.275 l -29.923,-5.817 v 13.467 l 27.748,5.393 c 1.381,0.269 2.5,1.605 2.5,2.986 v 26.662 c 0,1.381 -1.119,2.283 -2.5,2.014 l -52.047,-10.117 v -11.514 l 35.498,6.9 v -9.054 l -37.148,-7.221 v -7.574 l 0.877,0.17 c 1.771,0.344 4.398,0.855 4.398,-1.72 v -17.924 c 0,-4.419 3.581,-7.304 8,-6.445 l 39.072,7.594 c 7.33,1.425 12.65,3.201 15.875,4.826 v -42.185 l 20.124,3.911 V 5.141 Z"
       style="fill:#ff5500;fill-opacity:1;fill-rule:nonzero;stroke:none"
       transform="matrix(1.3333333,0,0,-1.3333333,138.69333,114.52827)"
       clip-path="url(#clipPath14)" />
    <path
       id="path15"
       d="M 0,0 V 9.89 L -2.487,-0.587 -5.182,-1.222 -7.609,8.095 v -9.89 l -2.547,-0.601 V 9.443 l 3.978,0.939 2.4,-8.825 0.029,0.007 2.34,9.942 3.927,0.926 V 0.594 Z M -18.386,-4.336 V 5.403 L -22.482,4.437 V 6.53 l 10.835,2.555 V 6.992 l -3.949,-0.93 v -9.74 z"
       style="fill:#000000;fill-opacity:1;fill-rule:nonzero;stroke:none"
       transform="matrix(1.3333333,0,0,-1.3333333,658.41147,267.70147)"
       clip-path="url(#clipPath16)" />
  </g>
</svg>
