<?xml version="1.0" encoding="UTF-8" standalone="no"?>
<!-- Created with Inkscape (http://www.inkscape.org/) -->

<svg
   version="1.1"
   id="svg1"
   width="666.66669"
   height="493.02667"
   viewBox="0 0 666.66669 493.02667"
   sodipodi:docname="Rhythm Heaven Logo but different.ai"
   xmlns:inkscape="http://www.inkscape.org/namespaces/inkscape"
   xmlns:sodipodi="http://sodipodi.sourceforge.net/DTD/sodipodi-0.dtd"
   xmlns="http://www.w3.org/2000/svg"
   xmlns:svg="http://www.w3.org/2000/svg">
  <defs
     id="defs1">
    <clipPath
       clipPathUnits="userSpaceOnUse"
       id="clipPath2">
      <path
         d="M 0,369.77 H 500 V 0 H 0 Z"
         transform="translate(-472.19411,-237.9969)"
         id="path2" />
    </clipPath>
    <clipPath
       clipPathUnits="userSpaceOnUse"
       id="clipPath4">
      <path
         d="M 0,369.77 H 500 V 0 H 0 Z"
         transform="translate(-460.26441,-235.3812)"
         id="path4" />
    </clipPath>
    <clipPath
       clipPathUnits="userSpaceOnUse"
       id="clipPath6">
      <path
         d="M 0,369.77 H 500 V 0 H 0 Z"
         transform="translate(-447.59841,-232.6053)"
         id="path6" />
    </clipPath>
    <clipPath
       clipPathUnits="userSpaceOnUse"
       id="clipPath8">
      <path
         d="M 0,369.77 H 500 V 0 H 0 Z"
         transform="translate(-458.40501,-143.9252)"
         id="path8" />
    </clipPath>
    <clipPath
       clipPathUnits="userSpaceOnUse"
       id="clipPath10">
      <path
         d="M 0,369.77 H 500 V 0 H 0 Z"
         transform="translate(-419.68531,-225.7548)"
         id="path10" />
    </clipPath>
    <clipPath
       clipPathUnits="userSpaceOnUse"
       id="clipPath12">
      <path
         d="M 0,369.77 H 500 V 0 H 0 Z"
         transform="translate(-356.94801,-141.5414)"
         id="path12" />
    </clipPath>
    <clipPath
       clipPathUnits="userSpaceOnUse"
       id="clipPath14">
      <path
         d="M 0,369.77 H 500 V 0 H 0 Z"
         transform="translate(-316.67751,-190.65761)"
         id="path14" />
    </clipPath>
    <clipPath
       clipPathUnits="userSpaceOnUse"
       id="clipPath16">
      <path
         d="M 0,369.77 H 500 V 0 H 0 Z"
         transform="translate(-267.8425,-117.64781)"
         id="path16" />
    </clipPath>
    <clipPath
       clipPathUnits="userSpaceOnUse"
       id="clipPath18">
      <path
         d="M 0,369.77 H 500 V 0 H 0 Z"
         transform="translate(-215.9485,-104.4222)"
         id="path18" />
    </clipPath>
    <clipPath
       clipPathUnits="userSpaceOnUse"
       id="clipPath20">
      <path
         d="M 0,369.77 H 500 V 0 H 0 Z"
         transform="translate(-170.7561,-159.3783)"
         id="path20" />
    </clipPath>
    <clipPath
       clipPathUnits="userSpaceOnUse"
       id="clipPath22">
      <path
         d="M 0,369.77 H 500 V 0 H 0 Z"
         transform="translate(-406.32401,-315.83681)"
         id="path22" />
    </clipPath>
    <clipPath
       clipPathUnits="userSpaceOnUse"
       id="clipPath24">
      <path
         d="M 0,369.77 H 500 V 0 H 0 Z"
         transform="translate(-326.43821,-274.7982)"
         id="path24" />
    </clipPath>
    <clipPath
       clipPathUnits="userSpaceOnUse"
       id="clipPath26">
      <path
         d="M 0,369.77 H 500 V 0 H 0 Z"
         transform="translate(-246.55201,-268.85001)"
         id="path26" />
    </clipPath>
    <clipPath
       clipPathUnits="userSpaceOnUse"
       id="clipPath28">
      <path
         d="M 0,369.77 H 500 V 0 H 0 Z"
         transform="translate(-240.90891,-249.70641)"
         id="path28" />
    </clipPath>
    <clipPath
       clipPathUnits="userSpaceOnUse"
       id="clipPath30">
      <path
         d="M 0,369.77 H 500 V 0 H 0 Z"
         transform="translate(-170.6877,-250.90031)"
         id="path30" />
    </clipPath>
    <clipPath
       clipPathUnits="userSpaceOnUse"
       id="clipPath32">
      <path
         d="M 0,369.77 H 500 V 0 H 0 Z"
         transform="translate(-92.276102,-207.58871)"
         id="path32" />
    </clipPath>
  </defs>
  <sodipodi:namedview
     id="namedview1"
     pagecolor="#ffffff"
     bordercolor="#000000"
     borderopacity="0.25"
     inkscape:showpageshadow="2"
     inkscape:pageopacity="0.0"
     inkscape:pagecheckerboard="0"
     inkscape:deskcolor="#d1d1d1">
    <inkscape:page
       x="0"
       y="0"
       inkscape:label="1"
       id="page1"
       width="666.66669"
       height="493.02667"
       margin="0"
       bleed="0" />
  </sodipodi:namedview>
  <g
     id="layer-MC0"
     inkscape:groupmode="layer"
     inkscape:label="Layer 1">
    <path
       id="path1"
       d="m 0,0 c 3.547,10.354 5.387,21.3 5.387,32.313 0,54.842 -44.618,99.46 -99.46,99.46 -21.962,0 -42.783,-7.021 -60.215,-20.304 -8.771,-6.684 -16.369,-14.828 -22.472,-23.958 -15.875,10.273 -34.511,15.881 -53.904,15.881 -31.602,0 -60.959,-15.251 -79.44,-39.77 -16.966,11.336 -37.05,17.552 -57.857,17.552 -57.475,0 -104.233,-46.759 -104.233,-104.233 0,-40.09 22.91,-75.957 57.711,-93.301 -1.336,-6.597 -2.009,-13.336 -2.009,-20.173 0,-55.947 45.518,-101.464 101.466,-101.464 21.005,0 41.163,6.37 58.295,18.419 10.418,7.327 19.257,16.412 26.188,26.829 11.725,-4.579 24.255,-6.949 37.064,-6.949 19.634,0 38.71,5.605 55.166,16.206 9.719,6.263 18.254,14.081 25.295,23.101 12.785,-5.807 26.681,-8.816 41.053,-8.816 55.014,0 99.771,44.854 99.771,99.987 C 27.806,-43.364 17.629,-18.478 0,0"
       style="fill:#00b3f0;fill-opacity:1;fill-rule:nonzero;stroke:none"
       transform="matrix(1.3333333,0,0,-1.3333333,629.59213,175.69747)"
       clip-path="url(#clipPath2)" />
    <path
       id="path3"
       d="m 0,0 c 4.665,10.989 7.104,22.912 7.104,34.928 0,49.212 -40.037,89.248 -89.248,89.248 -19.706,0 -38.387,-6.299 -54.023,-18.215 -10.731,-8.178 -19.509,-18.788 -25.593,-30.756 -15.878,13.228 -35.929,20.589 -56.974,20.589 -31.844,0 -61.148,-17.262 -76.941,-44.176 -16.813,14.092 -38.127,21.959 -60.357,21.959 -51.843,0 -94.02,-42.178 -94.02,-94.02 0,-38.941 23.963,-73.465 59.474,-87.464 -2.505,-8.406 -3.771,-17.115 -3.771,-26.01 0,-50.316 40.936,-91.251 91.252,-91.251 33.663,0 64.618,18.891 80.365,48.043 12.715,-6.402 26.749,-9.744 41.182,-9.744 31.268,0 60.466,16.246 77.246,42.206 13.429,-7.693 28.531,-11.715 44.269,-11.715 49.383,0 89.557,40.273 89.557,89.774 C 29.522,-41.241 18.621,-16.92 0,0"
       style="fill:#ffffff;fill-opacity:1;fill-rule:nonzero;stroke:none"
       transform="matrix(1.3333333,0,0,-1.3333333,613.68587,179.18507)"
       clip-path="url(#clipPath4)" />
    <path
       id="path5"
       d="m 0,0 c 6.094,11.207 9.557,24.051 9.557,37.704 0,43.65 -35.385,79.035 -79.036,79.035 -35.964,0 -66.297,-24.031 -75.872,-56.906 -14.47,17.425 -36.295,28.524 -60.717,28.524 -33.842,0 -62.697,-21.314 -73.901,-51.246 -15.367,17.769 -38.06,29.029 -63.397,29.029 -46.285,0 -83.807,-37.522 -83.807,-83.807 0,-38.91 26.519,-71.617 62.466,-81.056 -4.34,-9.93 -6.763,-20.888 -6.763,-32.417 0,-44.757 36.283,-81.039 81.039,-81.039 34.65,0 64.205,21.753 75.793,52.342 13.055,-8.865 28.801,-14.043 45.754,-14.043 32.49,0 60.547,19.017 73.713,46.554 13.295,-10.078 29.85,-16.063 47.802,-16.063 43.82,0 79.345,35.62 79.345,79.56 C 31.976,-37.693 19.406,-14.503 0,0"
       style="fill:#130c0e;fill-opacity:1;fill-rule:nonzero;stroke:none"
       transform="matrix(1.3333333,0,0,-1.3333333,596.79787,182.88627)"
       clip-path="url(#clipPath6)" />
    <path
       id="path7"
       d="m 0,0 v 7.87 l -1.979,-8.327 -2.142,-0.494 -1.932,7.424 v -7.87 l -2.025,-0.468 v 9.421 l 3.165,0.73 1.907,-7.031 0.024,0.005 1.861,7.902 3.123,0.721 V 0.462 Z m -14.623,-3.376 v 7.75 l -3.259,-0.752 v 1.665 l 8.618,1.989 V 5.611 l -3.14,-0.724 v -7.75 z"
       style="fill:#f15a22;fill-opacity:1;fill-rule:nonzero;stroke:none"
       transform="matrix(1.3333333,0,0,-1.3333333,611.20667,301.1264)"
       clip-path="url(#clipPath8)" />
    <path
       id="path9"
       d="m 0,0 c 0,0 -0.127,-33.221 -0.541,-39.064 -0.646,-9.129 -3.099,-9.373 -5.186,-8.004 -4.164,2.732 -11.946,18.29 -18.913,31.82 l -10.165,-2.347 v -84.068 l 12.43,2.87 0.042,21.331 c 0.021,10.95 3.011,11.662 7.355,7.684 3.296,-3.018 7.783,-9.674 14.851,-20.991 l 16.447,3.797 v 90.74 z"
       style="fill:#f15a22;fill-opacity:1;fill-rule:nonzero;stroke:none"
       transform="matrix(1.3333333,0,0,-1.3333333,559.5804,192.02027)"
       clip-path="url(#clipPath10)" />
    <path
       id="path11"
       d="m 0,0 c -0.377,-0.002 -3.169,0.093 -3.468,2.223 -0.173,1.233 0.419,2.391 1.909,3.303 2.33,1.425 10.394,3.743 18.134,5.558 v 10.703 c 0,0 -14.014,-3.372 -18.325,-2.731 -1.309,0.194 -2.181,0.886 -2.354,2.095 -0.177,1.237 0.446,2.351 1.909,3.304 3.941,2.566 21.633,6.384 21.633,6.384 v 24.695 l -36.426,-8.409 v -65.832 l 37.19,8.586 V 3.557 C 10.276,1.302 3.566,0.02 0,0"
       style="fill:#f15a22;fill-opacity:1;fill-rule:nonzero;stroke:none"
       transform="matrix(1.3333333,0,0,-1.3333333,475.93067,304.3048)"
       clip-path="url(#clipPath12)" />
    <path
       id="path13"
       d="m 0,0 c 0,0 -3.946,-25.999 -7.45,-38.014 -1.001,-3.433 -3.421,-8.686 -6.713,-1.175 -1.179,2.69 -4.679,15.258 -7.247,31.461 l -11.364,-2.623 c 0.995,-11.141 6.45,-41.232 13.718,-58.762 l 22.04,5.088 c 8.113,21.469 12.981,44.146 14.635,68.093 z"
       style="fill:#f15a22;fill-opacity:1;fill-rule:nonzero;stroke:none"
       transform="matrix(1.3333333,0,0,-1.3333333,422.23667,238.81653)"
       clip-path="url(#clipPath14)" />
    <path
       id="path15"
       d="m 0,0 c -1.755,-0.382 -5.749,-1.394 -7.79,-1.775 -1.953,-0.383 -3.094,0.718 -2.853,3.506 0.22,2.608 1.366,8.137 1.8,10.004 0.96,4.129 2.849,5.85 5.069,6.16 C -0.928,18.292 1.559,15.804 2.919,9.06 3.051,8.408 3.383,7.055 3.599,5.216 3.861,2.982 2.765,0.697 0,0 m 9.714,37.27 c -5.516,10.162 -11.93,8.055 -15.217,6.968 -4.306,-1.425 -8.128,-3.636 -12.127,-19.501 -4.204,-16.675 -8.781,-51.705 -8.781,-51.705 l 11.54,2.665 1.185,6.641 c 0.573,3.208 2.615,5.246 5.727,6.162 0,0 8.941,2.32 11.994,2.667 1.289,0.147 2.805,-0.871 3.245,-2.89 l 1.559,-7.146 15.716,3.629 c 0,0 -7.818,39.57 -14.841,52.51"
       style="fill:#f15a22;fill-opacity:1;fill-rule:nonzero;stroke:none"
       transform="matrix(1.3333333,0,0,-1.3333333,357.12333,336.16293)"
       clip-path="url(#clipPath16)" />
    <path
       id="path17"
       d="m 0,0 c -0.377,-0.002 -3.169,0.093 -3.468,2.223 -0.173,1.234 0.42,2.392 1.909,3.303 2.33,1.425 10.394,3.743 18.134,5.558 v 10.703 c 0,0 -14.015,-3.372 -18.325,-2.731 -1.309,0.194 -2.181,0.886 -2.354,2.095 -0.177,1.237 0.446,2.351 1.909,3.304 3.942,2.567 21.633,6.384 21.633,6.384 v 26.618 l -36.427,-8.409 v -65.832 l 37.191,8.586 V 3.557 C 10.276,1.302 3.566,0.02 0,0"
       style="fill:#f15a22;fill-opacity:1;fill-rule:nonzero;stroke:none"
       transform="matrix(1.3333333,0,0,-1.3333333,287.93133,353.79707)"
       clip-path="url(#clipPath18)" />
    <path
       id="path19"
       d="m 0,0 c 0,-13.137 0.066,-22.969 -1.733,-29.411 -1.094,-3.913 -3.5,-6.892 -6.713,-9.147 -3.273,-2.296 -6.554,-3.302 -9.767,-3.367 -3.918,-0.077 -6.782,2.055 -7.201,6.408 -0.601,6.255 -0.562,14.159 -0.562,25.11 l -14.22,-3.282 v -96.868 l 19.533,4.509 c 0,12.328 0.253,21.415 1.772,27.083 1.036,3.862 3.852,7.121 6.696,9.042 3.323,2.244 6.381,3.366 9.6,3.419 3.913,0.064 6.885,-1.956 7.254,-5.858 0.541,-5.717 0.576,-13.492 0.576,-24.101 l 14.474,3.342 V 4.55 Z"
       style="fill:#f15a22;fill-opacity:1;fill-rule:nonzero;stroke:none"
       transform="matrix(1.3333333,0,0,-1.3333333,227.6748,280.52227)"
       clip-path="url(#clipPath20)" />
    <path
       id="path21"
       d="m 0,0 c -6.064,-20.024 -9.497,-29.815 -12.486,-38.069 -5.096,-14.044 -10.381,-8.528 -12.845,-4.611 -2.863,4.59 -6.759,13.517 -13.518,29.878 l -16.697,-3.853 v -78.6 l 13.855,3.199 c -0.105,12.528 0.105,21.035 0.779,24.34 0.61,2.969 2.4,3.39 4.211,0.443 1.495,-2.422 3.853,-7.665 8.549,-18.445 l 9.283,2.143 c 5.117,13.749 7.878,20.681 9.836,24.071 1.579,2.758 4.59,4.695 5.495,-0.4 0.695,-3.853 0.632,-14.306 0.61,-27.108 l 14.361,3.315 V 2.639 Z"
       style="fill:#faa61a;fill-opacity:1;fill-rule:nonzero;stroke:none"
       transform="matrix(1.3333333,0,0,-1.3333333,541.76533,71.910933)"
       clip-path="url(#clipPath22)" />
    <path
       id="path23"
       d="m 0,0 c -0.063,-10.739 -0.043,-20.529 -0.506,-24.109 -1.074,-8.549 -15.686,-12.402 -16.402,-4.527 -0.337,3.706 -0.632,8.602 -0.632,19.53 l -11.813,-2.727 v -72.011 l 15.056,3.475 c 0,11.433 0,16.401 0.19,20.318 0.526,10.317 16.023,12.654 17.37,3.684 0.611,-4.084 0.716,-6.043 0.716,-15.265 l 12.001,2.771 v 72.55 z"
       style="fill:#faa61a;fill-opacity:1;fill-rule:nonzero;stroke:none"
       transform="matrix(1.3333333,0,0,-1.3333333,435.25093,126.62907)"
       clip-path="url(#clipPath24)" />
    <path
       id="path25"
       d="m 0,0 v -28.985 l 8.401,1.94 c 5.096,1.176 7.201,0.512 7.201,-8.507 v -37.207 l 13.792,3.159 v 34.132 c 0,15.16 1.423,18.987 8.928,20.719 l 6.864,1.584 v 23.597 z"
       style="fill:#faa61a;fill-opacity:1;fill-rule:nonzero;stroke:none"
       transform="matrix(1.3333333,0,0,-1.3333333,328.736,134.56)"
       clip-path="url(#clipPath26)" />
    <path
       id="path27"
       d="m 0,0 -12.886,-2.975 c 0,0 0.189,-13.265 -0.316,-23.035 -0.737,-14.297 -15.139,-17.371 -16.297,-3.769 -0.589,7.138 -0.863,21.365 -0.863,21.365 l -16.024,-3.699 v -11.602 c 0,-27.688 18.003,-31.099 27.415,-23.203 0.568,0.484 1.137,0.778 1.6,0.568 0.526,-0.232 0.505,-0.8 0.295,-1.853 -0.569,-2.758 -4.653,-8.212 -12.907,-10.422 -6.296,-1.685 -12.465,-2.748 -15.539,-3.232 v -19.214 c 13.854,1.79 29.898,5.749 37.374,17.245 3.895,6.001 5.938,12.339 6.948,21.729 C 0.379,-27.315 0,0 0,0"
       style="fill:#faa61a;fill-opacity:1;fill-rule:nonzero;stroke:none"
       transform="matrix(1.3333333,0,0,-1.3333333,321.21187,160.0848)"
       clip-path="url(#clipPath28)" />
    <path
       id="path29"
       d="m 0,0 c -0.063,-10.738 -0.042,-20.529 -0.505,-24.109 -1.074,-8.548 -15.687,-12.402 -16.403,-4.527 -0.337,3.706 -0.632,8.602 -0.632,19.53 l -11.812,-2.727 v -72.011 l 15.055,3.475 c 0,11.434 0,16.402 0.19,20.318 0.526,10.318 16.023,12.655 17.371,3.685 0.611,-4.085 0.716,-6.043 0.716,-15.265 l 12.001,2.77 V 3.69 Z"
       style="fill:#faa61a;fill-opacity:1;fill-rule:nonzero;stroke:none"
       transform="matrix(1.3333333,0,0,-1.3333333,227.5836,158.49293)"
       clip-path="url(#clipPath30)" />
    <path
       id="path31"
       d="m 0,0 c -5.748,-1.348 -8.949,1.853 -8.949,8.696 v 6.612 c 0,4.768 0.927,8.906 5.18,10.254 C 8.58,29.474 17.182,24.151 17.182,15.792 17.182,7.98 11.202,2.632 0,0 m 41.627,28.573 c 0,30.383 -29.731,39.206 -66.094,26.214 v -98.08 l 15.497,3.578 v 24.555 c 0,3.748 2.759,3.095 5.306,0.821 1.79,-1.6 12.55,-12.023 20.066,-19.519 l 23.659,5.462 c 0,0 -20.626,21.068 -23.006,23.153 13.855,5.18 24.572,18.678 24.572,33.816"
       style="fill:#faa61a;fill-opacity:1;fill-rule:nonzero;stroke:none"
       transform="matrix(1.3333333,0,0,-1.3333333,123.0348,216.24173)"
       clip-path="url(#clipPath32)" />
  </g>
</svg>
