<?xml version="1.0" encoding="UTF-8" standalone="no"?>
<!-- Created with Inkscape (http://www.inkscape.org/) -->

<svg
   version="1.1"
   id="svg2"
   width="666.66669"
   height="421.90399"
   viewBox="0 0 666.66669 421.90399"
   sodipodi:docname="Rhythm Tengoku The Best+ (リズム天国 ザ・ベスト＋) Logo (Back View).ai"
   xmlns:inkscape="http://www.inkscape.org/namespaces/inkscape"
   xmlns:sodipodi="http://sodipodi.sourceforge.net/DTD/sodipodi-0.dtd"
   xmlns="http://www.w3.org/2000/svg"
   xmlns:svg="http://www.w3.org/2000/svg">
  <defs
     id="defs6">
    <clipPath
       clipPathUnits="userSpaceOnUse"
       id="clipPath20">
      <path
         d="M 0,316.428 H 500 V 0 H 0 Z"
         id="path18" />
    </clipPath>
  </defs>
  <sodipodi:namedview
     id="namedview4"
     pagecolor="#ffffff"
     bordercolor="#000000"
     borderopacity="0.25"
     inkscape:showpageshadow="2"
     inkscape:pageopacity="0.0"
     inkscape:pagecheckerboard="0"
     inkscape:deskcolor="#d1d1d1" />
  <g
     id="g8"
     inkscape:groupmode="layer"
     inkscape:label="Rhythm Tengoku The Best+ (リズム天国 ザ・ベスト＋) Logo (Back View)"
     transform="matrix(1.3333333,0,0,-1.3333333,0,421.904)">
    <g
       id="g10"
       transform="translate(46.3671,167.3946)">
      <path
         d="m 0,0 -3.85,44.01 62.196,-13.221 3.85,-44.009 43.406,-9.226 3.693,-42.218 -43.405,9.227 3.85,-44.01 -62.196,13.22 -3.85,44.01 -43.405,9.226 -3.694,42.217 z"
         style="fill:#000000;fill-opacity:1;fill-rule:nonzero;stroke:none"
         id="path12" />
    </g>
    <g
       id="g14">
      <g
         id="g16"
         clip-path="url(#clipPath20)">
        <g
           id="g22"
           transform="translate(78.9356,316.428)">
          <path
             d="m 0,0 c 27.788,0 52.25,-14.447 66.32,-36.21 5.148,1.06 10.478,1.618 15.935,1.618 17.005,0 32.758,-5.423 45.658,-14.606 12.399,8.113 27.198,12.85 43.09,12.85 27.741,0 52.167,-14.397 66.249,-36.098 5.074,1.028 10.322,1.572 15.696,1.572 17.124,0 32.98,-5.499 45.93,-14.8 12.432,8.177 27.291,12.952 43.25,12.952 43.526,0 78.936,-35.41 78.936,-78.936 0,-19.967 -7.466,-38.213 -19.735,-52.129 12.091,-11.943 19.601,-28.514 19.601,-46.811 0,-36.299 -29.532,-65.83 -65.831,-65.83 -21.519,0 -40.658,10.38 -52.677,26.395 -2.357,-0.279 -4.74,-0.437 -7.149,-0.437 -9.35,0 -18.203,2.16 -26.094,6 -9.014,-4.645 -19.223,-7.285 -30.043,-7.285 -18.1,0 -34.516,7.345 -46.429,19.209 -7.417,-2.836 -15.362,-4.336 -23.542,-4.336 -16.437,0 -31.953,5.986 -44.063,16.922 -6.411,-2.089 -13.245,-3.232 -20.345,-3.232 -34.141,0 -62.288,26.128 -65.514,59.437 -19.37,8.05 -34.081,25.094 -38.922,45.891 -0.108,-0.001 -0.213,-0.008 -0.321,-0.008 -43.525,0 -78.936,35.41 -78.936,78.936 C -78.936,-35.411 -43.525,0 0,0"
             style="fill:#0096e6;fill-opacity:1;fill-rule:nonzero;stroke:none"
             id="path24" />
        </g>
        <g
           id="g26"
           transform="translate(18.6964,182.9445)">
          <path
             d="m 0,0 -2.563,0.556 0.572,-5.96 -1.745,0.379 -0.573,5.961 -2.471,0.536 -0.123,1.281 6.78,-1.472 z m -15.767,4.681 0.696,-7.245 1.575,-0.342 -0.581,6.053 2.138,-6.391 1.686,-0.366 0.937,5.723 0.582,-6.053 1.593,-0.346 -0.696,7.246 -2.49,0.54 -0.948,-5.42 -0.019,0.003 -2.016,6.065 z"
             style="fill:#000000;fill-opacity:1;fill-rule:nonzero;stroke:none"
             id="path28" />
        </g>
      </g>
    </g>
  </g>
</svg>
