<?xml version="1.0" encoding="UTF-8" standalone="no"?>
<!-- Created with Inkscape (http://www.inkscape.org/) -->

<svg
   version="1.1"
   id="svg2"
   width="666.66669"
   height="566.8573"
   viewBox="0 0 666.66669 566.8573"
   sodipodi:docname="Rhythm Heaven Megamix Logo (Fever Style).ai"
   xmlns:inkscape="http://www.inkscape.org/namespaces/inkscape"
   xmlns:sodipodi="http://sodipodi.sourceforge.net/DTD/sodipodi-0.dtd"
   xmlns="http://www.w3.org/2000/svg"
   xmlns:svg="http://www.w3.org/2000/svg">
  <defs
     id="defs6">
    <linearGradient
       x1="0"
       y1="0"
       x2="1"
       y2="0"
       gradientUnits="userSpaceOnUse"
       gradientTransform="matrix(-383.68375,221.51991,221.51991,383.68375,423.86743,144.0844)"
       spreadMethod="pad"
       id="linearGradient40">
      <stop
         style="stop-opacity:1;stop-color:#ff0000"
         offset="0"
         id="stop22" />
      <stop
         style="stop-opacity:1;stop-color:#ff0000"
         offset="0.05"
         id="stop24" />
      <stop
         style="stop-opacity:1;stop-color:#f49f00"
         offset="0.2"
         id="stop26" />
      <stop
         style="stop-opacity:1;stop-color:#eeff00"
         offset="0.2771859"
         id="stop28" />
      <stop
         style="stop-opacity:1;stop-color:#eeff00"
         offset="0.35"
         id="stop30" />
      <stop
         style="stop-opacity:1;stop-color:#00ff00"
         offset="0.5"
         id="stop32" />
      <stop
         style="stop-opacity:1;stop-color:#1d0fff"
         offset="0.75"
         id="stop34" />
      <stop
         style="stop-opacity:1;stop-color:#710ec0"
         offset="0.95"
         id="stop36" />
      <stop
         style="stop-opacity:1;stop-color:#710ec0"
         offset="1"
         id="stop38" />
    </linearGradient>
    <clipPath
       clipPathUnits="userSpaceOnUse"
       id="clipPath50">
      <path
         d="M 0,425.143 H 500 V 0 H 0 Z"
         id="path48" />
    </clipPath>
    <linearGradient
       x1="0"
       y1="0"
       x2="1"
       y2="0"
       gradientUnits="userSpaceOnUse"
       gradientTransform="matrix(59.113621,-2e-7,-0.018473,-59.113563,434.3945,160.93434)"
       spreadMethod="pad"
       id="linearGradient84">
      <stop
         style="stop-opacity:1;stop-color:#ff8c3c"
         offset="0"
         id="stop78" />
      <stop
         style="stop-opacity:1;stop-color:#ff5a00"
         offset="0.75"
         id="stop80" />
      <stop
         style="stop-opacity:1;stop-color:#ff5a00"
         offset="1"
         id="stop82" />
    </linearGradient>
    <clipPath
       clipPathUnits="userSpaceOnUse"
       id="clipPath94">
      <path
         d="M 0,425.143 H 500 V 0 H 0 Z"
         id="path92" />
    </clipPath>
    <clipPath
       clipPathUnits="userSpaceOnUse"
       id="clipPath102">
      <path
         d="M 50.055,221.872 H 578.29 V -135.16 H 50.055 Z"
         id="path100" />
    </clipPath>
    <clipPath
       clipPathUnits="userSpaceOnUse"
       id="clipPath106">
      <path
         d="m 434.404,116.711 v 10.33 c -0.028,8.97 -0.015,17.764 10.461,30.657 -7.674,5.077 -10.461,12.265 -10.461,26.286 v 7.519 l 22.633,5.237 v -16.659 c 0,-3.875 2.411,-6.702 6.913,-5.662 4.502,1.039 6.913,4.979 6.913,8.854 l 0.002,16.659 22.634,5.226 v -7.531 c 0,-14.021 -2.788,-22.496 -10.461,-31.116 10.461,-8.046 10.461,-16.851 10.461,-25.827 v -10.33 l -22.634,-5.225 v 17.576 c 0,6.268 -2.413,9.035 -6.915,7.996 -4.502,-1.04 -6.913,-4.921 -6.913,-11.188 v -17.577 z"
         id="path104" />
    </clipPath>
    <linearGradient
       x1="0"
       y1="0"
       x2="1"
       y2="0"
       gradientUnits="userSpaceOnUse"
       gradientTransform="matrix(39.135792,9.0352097,0.0865576,-41.137714,392.22263,152.00366)"
       spreadMethod="pad"
       id="linearGradient140">
      <stop
         style="stop-opacity:1;stop-color:#aa37be"
         offset="0"
         id="stop136" />
      <stop
         style="stop-opacity:1;stop-color:#5f14a5"
         offset="1"
         id="stop138" />
    </linearGradient>
    <clipPath
       clipPathUnits="userSpaceOnUse"
       id="clipPath150">
      <path
         d="M 0,425.143 H 500 V 0 H 0 Z"
         id="path148" />
    </clipPath>
    <clipPath
       clipPathUnits="userSpaceOnUse"
       id="clipPath158">
      <path
         d="M 50.055,221.872 H 578.29 V -135.16 H 50.055 Z"
         id="path156" />
    </clipPath>
    <clipPath
       clipPathUnits="userSpaceOnUse"
       id="clipPath162">
      <path
         d="m 403.767,192.073 22.66,5.231 v -74.807 l -22.66,-5.232 z"
         id="path160" />
    </clipPath>
    <linearGradient
       x1="0"
       y1="0"
       x2="1"
       y2="0"
       gradientUnits="userSpaceOnUse"
       gradientTransform="matrix(91.19725,21.054598,5.45e-5,-91.197243,305.71747,125.66687)"
       spreadMethod="pad"
       id="linearGradient198">
      <stop
         style="stop-opacity:1;stop-color:#ffff00"
         offset="0"
         id="stop192" />
      <stop
         style="stop-opacity:1;stop-color:#ffbe00"
         offset="0.75"
         id="stop194" />
      <stop
         style="stop-opacity:1;stop-color:#ffbe00"
         offset="1"
         id="stop196" />
    </linearGradient>
    <clipPath
       clipPathUnits="userSpaceOnUse"
       id="clipPath208">
      <path
         d="M 0,425.143 H 500 V 0 H 0 Z"
         id="path206" />
    </clipPath>
    <clipPath
       clipPathUnits="userSpaceOnUse"
       id="clipPath216">
      <path
         d="M -34.8694,313.585 H 578.29 V -135.16 H -34.8694 Z"
         id="path214" />
    </clipPath>
    <clipPath
       clipPathUnits="userSpaceOnUse"
       id="clipPath220">
      <path
         d="m 388.958,173.471 c -5.556,5.105 -13.053,6.719 -21.832,4.692 -5.896,-1.361 -10.641,-3.825 -15.885,-8.381 -5.244,2.134 -9.961,2.415 -15.885,1.047 -8.753,-2.021 -16.277,-7.104 -21.832,-14.774 -5.844,-8.066 -7.812,-15.256 -7.812,-28.803 V 87.336 l 22.744,5.251 v 44.238 c 0,6.667 2.149,9.456 5.658,10.266 3.51,0.811 5.755,-0.964 5.755,-7.631 V 95.222 l 22.744,5.251 v 44.238 c 0,6.667 2.245,9.478 5.755,10.288 3.509,0.811 5.658,-0.986 5.658,-7.653 v -44.238 l 22.743,5.251 v 39.915 c 0,13.547 -1.968,19.828 -7.811,25.197"
         id="path218" />
    </clipPath>
    <linearGradient
       x1="0"
       y1="0"
       x2="1"
       y2="0"
       gradientUnits="userSpaceOnUse"
       gradientTransform="matrix(59.094528,13.643046,0,-59.094528,238.73795,117.95157)"
       spreadMethod="pad"
       id="linearGradient260">
      <stop
         style="stop-opacity:1;stop-color:#6ee6ff"
         offset="0"
         id="stop254" />
      <stop
         style="stop-opacity:1;stop-color:#00a0ff"
         offset="0.85"
         id="stop256" />
      <stop
         style="stop-opacity:1;stop-color:#00a0ff"
         offset="1"
         id="stop258" />
    </linearGradient>
    <clipPath
       clipPathUnits="userSpaceOnUse"
       id="clipPath270">
      <path
         d="M 0,425.143 H 500 V 0 H 0 Z"
         id="path268" />
    </clipPath>
    <clipPath
       clipPathUnits="userSpaceOnUse"
       id="clipPath278">
      <path
         d="M -34.8694,313.585 H 494.066 V -52.2433 H -34.8694 Z"
         id="path276" />
    </clipPath>
    <clipPath
       clipPathUnits="userSpaceOnUse"
       id="clipPath282">
      <path
         d="m 275.791,122.654 -7.506,2.4 -7.506,-5.866 1.408,9.131 -6.046,4.856 8.375,3.243 3.769,8.867 3.769,-7.126 8.376,0.624 -6.046,-7.648 z m 15.685,34.282 c -5.346,5.928 -14.22,8.221 -23.191,6.15 -8.97,-2.071 -17.831,-8.468 -23.171,-16.854 -4.681,-7.349 -6.376,-14.021 -6.376,-25.367 V 79.639 l 22.606,5.219 v 16.417 l 13.883,3.185 V 88.063 l 22.605,5.219 v 41.226 c 0,11.346 -1.683,17.247 -6.356,22.428"
         id="path280" />
    </clipPath>
    <linearGradient
       x1="0"
       y1="0"
       x2="1"
       y2="0"
       gradientUnits="userSpaceOnUse"
       gradientTransform="matrix(58.345142,13.470038,0.1290433,-61.329681,173.62611,94.671921)"
       spreadMethod="pad"
       id="linearGradient318">
      <stop
         style="stop-opacity:1;stop-color:#ff8232"
         offset="0"
         id="stop312" />
      <stop
         style="stop-opacity:1;stop-color:#c80000"
         offset="0.75"
         id="stop314" />
      <stop
         style="stop-opacity:1;stop-color:#c80000"
         offset="1"
         id="stop316" />
    </linearGradient>
    <clipPath
       clipPathUnits="userSpaceOnUse"
       id="clipPath328">
      <path
         d="M 0,425.143 H 500 V 0 H 0 Z"
         id="path326" />
    </clipPath>
    <clipPath
       clipPathUnits="userSpaceOnUse"
       id="clipPath336">
      <path
         d="M -34.8694,313.585 H 494.066 V -52.2433 H -34.8694 Z"
         id="path334" />
    </clipPath>
    <clipPath
       clipPathUnits="userSpaceOnUse"
       id="clipPath340">
      <path
         d="m 231.893,70.849 c -7.563,-3.177 -12.052,-4.757 -18.134,-6.161 -12.705,-2.933 -20.948,-1.73 -28.485,4.021 -7.506,5.728 -11.648,14.899 -11.648,25.914 0,10.544 3.815,21.499 10.654,30.254 7.459,9.548 16.944,15.416 29.838,18.392 5.657,1.306 10.405,1.955 17.775,2.178 v -23.44 c -6.928,-0.14 -11.251,-0.669 -16.561,-1.895 -12.365,-2.855 -19.376,-10.221 -19.376,-20.376 0,-8.535 5.244,-13.495 13.331,-12.747 v 22.308 l 22.606,5.219 z"
         id="path338" />
    </clipPath>
    <linearGradient
       x1="0"
       y1="0"
       x2="1"
       y2="0"
       gradientUnits="userSpaceOnUse"
       gradientTransform="matrix(47.973873,11.075642,0.1061049,-50.427891,118.52718,89.627075)"
       spreadMethod="pad"
       id="linearGradient376">
      <stop
         style="stop-opacity:1;stop-color:#c8f000"
         offset="0"
         id="stop370" />
      <stop
         style="stop-opacity:1;stop-color:#14b400"
         offset="0.8"
         id="stop372" />
      <stop
         style="stop-opacity:1;stop-color:#14b400"
         offset="1"
         id="stop374" />
    </linearGradient>
    <clipPath
       clipPathUnits="userSpaceOnUse"
       id="clipPath386">
      <path
         d="M 0,425.143 H 500 V 0 H 0 Z"
         id="path384" />
    </clipPath>
    <clipPath
       clipPathUnits="userSpaceOnUse"
       id="clipPath394">
      <path
         d="M -34.8694,313.585 H 494.066 V -52.2433 H -34.8694 Z"
         id="path392" />
    </clipPath>
    <clipPath
       clipPathUnits="userSpaceOnUse"
       id="clipPath398">
      <path
         d="m 142.658,57.779 c -8.86,-2.045 -13.258,-1.753 -17.472,0.892 -4.4,2.761 -6.624,7.781 -6.624,14.627 0,8.28 2.87,13.663 10.433,19.434 -7.149,2.068 -9.716,5.407 -9.716,12.666 0,7.066 2.885,13.87 7.867,18.965 3.93,4.019 9.798,6.958 17.803,8.783 l 21.473,4.957 v -21.087 l -15.07,-3.479 c -5.962,-1.376 -7.784,-2.772 -7.784,-6.029 0,-3.257 1.822,-3.811 7.784,-2.435 l 15.07,3.479 V 92.744 l -15.07,-3.479 c -5.962,-1.377 -6.569,-4.173 -6.569,-5.747 0,-1.683 0.607,-4.125 6.569,-2.748 l 15.07,3.479 V 63.266 Z"
         id="path396" />
    </clipPath>
    <linearGradient
       x1="0"
       y1="0"
       x2="1"
       y2="0"
       gradientUnits="userSpaceOnUse"
       gradientTransform="matrix(101.58785,23.453464,6.07e-5,-101.58784,12.604265,59.069077)"
       spreadMethod="pad"
       id="linearGradient434">
      <stop
         style="stop-opacity:1;stop-color:#ffff00"
         offset="0"
         id="stop428" />
      <stop
         style="stop-opacity:1;stop-color:#ffbe00"
         offset="0.75"
         id="stop430" />
      <stop
         style="stop-opacity:1;stop-color:#ffbe00"
         offset="1"
         id="stop432" />
    </linearGradient>
    <clipPath
       clipPathUnits="userSpaceOnUse"
       id="clipPath444">
      <path
         d="M 0,425.143 H 500 V 0 H 0 Z"
         id="path442" />
    </clipPath>
    <clipPath
       clipPathUnits="userSpaceOnUse"
       id="clipPath452">
      <path
         d="M -34.8694,313.585 H 494.066 V -52.2433 H -34.8694 Z"
         id="path450" />
    </clipPath>
    <clipPath
       clipPathUnits="userSpaceOnUse"
       id="clipPath456">
      <path
         d="m 104.154,108.791 c -5.556,5.105 -13.053,6.72 -21.833,4.693 -5.896,-1.361 -10.64,-3.826 -15.885,-8.382 -5.244,2.135 -9.96,2.415 -15.884,1.048 C 41.798,104.129 34.275,99.046 28.719,91.376 22.876,83.309 20.908,76.12 20.908,62.573 V 22.657 l 22.743,5.251 v 44.238 c 0,6.667 2.149,9.456 5.659,10.266 3.509,0.81 5.755,-0.965 5.755,-7.631 V 30.543 l 22.743,5.251 v 44.238 c 0,6.666 2.245,9.478 5.755,10.288 3.51,0.81 5.658,-0.987 5.658,-7.653 V 38.428 l 22.744,5.251 v 39.916 c 0,13.547 -1.968,19.828 -7.811,25.196"
         id="path454" />
    </clipPath>
    <radialGradient
       fx="0"
       fy="0"
       cx="0"
       cy="0"
       r="1"
       gradientUnits="userSpaceOnUse"
       gradientTransform="matrix(11.215127,0,0,-11.215127,430.89865,119.57639)"
       spreadMethod="pad"
       id="radialGradient492">
      <stop
         style="stop-opacity:1;stop-color:#faffc8"
         offset="0"
         id="stop486" />
      <stop
         style="stop-opacity:1;stop-color:#c8ff00"
         offset="0.45"
         id="stop488" />
      <stop
         style="stop-opacity:1;stop-color:#00a000"
         offset="1"
         id="stop490" />
    </radialGradient>
    <clipPath
       clipPathUnits="userSpaceOnUse"
       id="clipPath502">
      <path
         d="M 0,425.143 H 500 V 0 H 0 Z"
         id="path500" />
    </clipPath>
    <radialGradient
       fx="0"
       fy="0"
       cx="0"
       cy="0"
       r="1"
       gradientUnits="userSpaceOnUse"
       gradientTransform="matrix(9.7658634,0,0,-9.7658634,201.11731,145.63631)"
       spreadMethod="pad"
       id="radialGradient526">
      <stop
         style="stop-opacity:1;stop-color:#ffffa0"
         offset="0"
         id="stop520" />
      <stop
         style="stop-opacity:1;stop-color:#ffff00"
         offset="0.55"
         id="stop522" />
      <stop
         style="stop-opacity:1;stop-color:#ffc800"
         offset="1"
         id="stop524" />
    </radialGradient>
    <clipPath
       clipPathUnits="userSpaceOnUse"
       id="clipPath536">
      <path
         d="M 0,425.143 H 500 V 0 H 0 Z"
         id="path534" />
    </clipPath>
    <radialGradient
       fx="0"
       fy="0"
       cx="0"
       cy="0"
       r="1"
       gradientUnits="userSpaceOnUse"
       gradientTransform="matrix(11.332797,0,0,-11.332797,20.494005,20.418472)"
       spreadMethod="pad"
       id="radialGradient560">
      <stop
         style="stop-opacity:1;stop-color:#d9ffff"
         offset="0"
         id="stop554" />
      <stop
         style="stop-opacity:1;stop-color:#96d2ff"
         offset="0.42"
         id="stop556" />
      <stop
         style="stop-opacity:1;stop-color:#00aaff"
         offset="1"
         id="stop558" />
    </radialGradient>
    <clipPath
       clipPathUnits="userSpaceOnUse"
       id="clipPath570">
      <path
         d="M 0,425.143 H 500 V 0 H 0 Z"
         id="path568" />
    </clipPath>
  </defs>
  <sodipodi:namedview
     id="namedview4"
     pagecolor="#ffffff"
     bordercolor="#000000"
     borderopacity="0.25"
     inkscape:showpageshadow="2"
     inkscape:pageopacity="0.0"
     inkscape:pagecheckerboard="0"
     inkscape:deskcolor="#d1d1d1" />
  <g
     id="g8"
     inkscape:groupmode="layer"
     inkscape:label="Rhythm Heaven Megamix Logo (Fever Style)"
     transform="matrix(1.3333333,0,0,-1.3333333,0,566.85733)">
    <g
       id="g10">
      <g
         id="g12">
        <g
           id="g18">
          <g
             id="g20">
            <path
               d="m 324.176,425.143 c -37.374,0 -71.166,-20.916 -88.343,-52.849 v 0 c -10.797,3.796 -22.224,5.76 -33.827,5.76 v 0 c -18.123,0 -35.979,-4.894 -51.479,-13.963 v 0 c -14.406,7.819 -30.463,11.9 -47.114,11.9 v 0 c -54.724,0 -99.245,-44.59 -99.245,-99.399 v 0 c 0,-37.659 21.109,-71.352 53.358,-88.173 v 0 c -2.427,-7.653 -3.674,-15.664 -3.674,-23.812 v 0 c 0,-44.374 36.963,-80.476 82.397,-80.476 v 0 c 27.525,0 52.152,13.091 67.166,33.728 v 0 c 18.303,-16.946 42.549,-26.721 68.469,-26.721 v 0 c 41.889,0 78.828,25.89 93.765,63.653 v 0 c 2.464,-0.185 4.933,-0.278 7.405,-0.278 v 0 c 54.04,0 98.006,43.544 98.006,97.068 v 0 c 0,34.089 -18.147,65.476 -47.101,82.934 v 0 c -4.801,50.77 -47.72,90.628 -99.783,90.628 z"
               style="fill:url(#linearGradient40);stroke:none"
               id="path42" />
          </g>
        </g>
      </g>
    </g>
    <g
       id="g44">
      <g
         id="g46"
         clip-path="url(#clipPath50)">
        <g
           id="g52"
           transform="translate(413.2976,327.8059)">
          <path
             d="m 0,0 c -1.479,47.82 -40.889,86.271 -89.121,86.271 -36.657,0 -69.441,-22.615 -82.81,-56.043 -12.212,5.879 -25.647,8.954 -39.361,8.954 -18.592,0 -36.202,-5.463 -51.282,-15.855 -14.139,9.04 -30.378,13.792 -47.311,13.792 -48.622,0 -88.179,-39.626 -88.179,-88.332 0,-36.879 22.768,-69.475 56.459,-82.446 -4.453,-9.192 -6.775,-19.242 -6.775,-29.539 0,-38.273 31.999,-69.41 71.331,-69.41 28.831,0 53.98,16.518 65.171,41.094 16.823,-21.358 42.554,-34.088 70.464,-34.088 40.188,0 75.256,26.755 86.207,64.659 4.941,-0.853 9.948,-1.284 14.963,-1.284 47.939,0 86.94,38.58 86.94,86.002 C 46.696,-44.143 28.53,-14.757 0,0"
             style="fill:#ffffff;fill-opacity:1;fill-rule:nonzero;stroke:none"
             id="path54" />
        </g>
        <g
           id="g56"
           transform="translate(405.5267,322.9342)">
          <path
             d="m 0,0 c 0.018,0.697 0.053,1.389 0.053,2.09 0,44.896 -36.445,81.291 -81.403,81.291 -37.407,0 -68.899,-25.206 -78.429,-59.531 -12.662,7.87 -27.655,12.443 -43.742,12.443 -19.34,0 -37.102,-6.599 -51.123,-17.61 -13.305,9.767 -29.711,15.547 -47.47,15.547 -44.413,0 -80.418,-36.073 -80.418,-80.571 0,-37.508 25.582,-69.027 60.218,-78.006 -6.651,-9.743 -10.534,-21.419 -10.534,-33.98 0,-34.048 28.461,-61.649 63.57,-61.649 31.536,0 57.695,22.274 62.695,51.482 13.594,-26.401 41.143,-44.475 72.94,-44.475 39.896,0 73.119,28.438 80.451,66.099 6.606,-1.766 13.548,-2.724 20.719,-2.724 43.729,0 79.179,35.029 79.179,78.24 C 46.706,-39.582 27.53,-12.253 0,0"
             style="fill:#220614;fill-opacity:1;fill-rule:nonzero;stroke:none"
             id="path58" />
        </g>
        <path
           d="m 394.237,173.18 h 4.794 v 4.794 h -4.794 z"
           style="fill:#220614;fill-opacity:1;fill-rule:nonzero;stroke:none"
           id="path60" />
        <g
           id="g62"
           transform="translate(500,213.1605)">
          <path
             d="m 0,0 -72.098,-16.66 v -87.792 L 0,-87.807 v 16.834 c 0,8.345 -0.001,17.657 -8.131,26.198 C -2.349,-36.292 0,-27.087 0,-14.032 Z"
             style="fill:#220614;fill-opacity:1;fill-rule:nonzero;stroke:none"
             id="path64" />
        </g>
      </g>
    </g>
    <g
       id="g66">
      <g
         id="g68">
        <g
           id="g74">
          <g
             id="g76">
            <path
               d="m 470.866,199.932 -0.003,-16.66 c 0,-3.874 -2.411,-7.813 -6.913,-8.853 v 0 c -4.502,-1.039 -6.913,1.787 -6.913,5.662 v 0 16.659 l -22.633,-5.237 v -7.519 c 0,-14.022 2.787,-21.209 10.461,-26.286 v 0 C 434.389,144.805 434.376,136.011 434.404,127.04 v 0 -10.329 l 22.633,5.226 v 17.576 c 0,6.267 2.411,10.148 6.913,11.188 v 0 c 4.502,1.039 6.916,-1.729 6.916,-7.996 v 0 -17.576 l 22.633,5.225 v 10.33 c 0,8.976 0,17.781 -10.462,25.828 v 0 c 7.674,8.618 10.462,17.093 10.462,31.115 v 0 7.531 z"
               style="fill:url(#linearGradient84);stroke:none"
               id="path86" />
          </g>
        </g>
      </g>
    </g>
    <g
       id="g88">
      <g
         id="g90"
         clip-path="url(#clipPath94)">
        <g
           id="g96">
          <g
             id="g98" />
          <g
             id="g118">
            <g
               clip-path="url(#clipPath102)"
               opacity="0.199997"
               id="g116">
              <g
                 id="g114">
                <g
                   clip-path="url(#clipPath106)"
                   id="g112">
                  <g
                     transform="translate(78.8985,-135.1603)"
                     id="g110">
                    <path
                       d="m 0,0 -28.843,54.89 499.419,302.143 28.815,-54.918 z"
                       style="fill:#ffffff;fill-opacity:1;fill-rule:nonzero;stroke:none"
                       id="path108" />
                  </g>
                </g>
              </g>
            </g>
          </g>
        </g>
        <g
           id="g120"
           transform="translate(397.2649,197.0732)">
          <path
             d="m 0,0 v -87.811 l 35.664,8.234 V 8.234 Z"
             style="fill:#220614;fill-opacity:1;fill-rule:nonzero;stroke:none"
             id="path122" />
        </g>
      </g>
    </g>
    <g
       id="g124">
      <g
         id="g126">
        <g
           id="g132">
          <g
             id="g134">
            <path
               d="m 403.766,192.073 v -74.808 l 22.661,5.231 v 74.808 z"
               style="fill:url(#linearGradient140);stroke:none"
               id="path142" />
          </g>
        </g>
      </g>
    </g>
    <g
       id="g144">
      <g
         id="g146"
         clip-path="url(#clipPath150)">
        <g
           id="g152">
          <g
             id="g154" />
          <g
             id="g174">
            <g
               clip-path="url(#clipPath158)"
               opacity="0.199997"
               id="g172">
              <g
                 id="g170">
                <g
                   clip-path="url(#clipPath162)"
                   id="g168">
                  <g
                     transform="translate(78.8985,-135.1603)"
                     id="g166">
                    <path
                       d="m 0,0 -28.843,54.89 499.419,302.143 28.815,-54.918 z"
                       style="fill:#ffffff;fill-opacity:1;fill-rule:nonzero;stroke:none"
                       id="path164" />
                  </g>
                </g>
              </g>
            </g>
          </g>
        </g>
        <g
           id="g176"
           transform="translate(393.8636,178.8701)">
          <path
             d="m 0,0 c -6.809,6.257 -16.056,8.261 -26.738,5.795 -5.832,-1.346 -10.869,-3.674 -15.885,-7.392 -5.015,1.402 -10.052,1.404 -15.884,0.058 -10.683,-2.467 -19.929,-8.74 -26.739,-18.142 -6.945,-9.589 -9.407,-18.339 -9.407,-33.438 V -99.537 L 9.408,-75.512 v 46.418 C 9.408,-13.995 6.946,-6.381 0,0"
             style="fill:#220614;fill-opacity:1;fill-rule:nonzero;stroke:none"
             id="path178" />
        </g>
      </g>
    </g>
    <g
       id="g180">
      <g
         id="g182">
        <g
           id="g188">
          <g
             id="g190">
            <path
               d="m 367.125,178.163 c -5.895,-1.361 -10.639,-3.825 -15.884,-8.382 v 0 c -5.244,2.135 -9.961,2.416 -15.885,1.048 v 0 c -8.753,-2.021 -16.276,-7.104 -21.832,-14.774 v 0 c -5.844,-8.066 -7.811,-15.256 -7.811,-28.803 v 0 -39.915 l 22.743,5.251 v 44.237 c 0,6.667 2.148,9.456 5.658,10.266 v 0 c 3.51,0.81 5.755,-0.964 5.755,-7.631 v 0 -44.238 l 22.744,5.251 v 44.238 c 0,6.666 2.245,9.478 5.754,10.289 v 0 c 3.51,0.81 5.659,-0.988 5.659,-7.654 v 0 -44.238 l 22.744,5.25 v 39.916 c 0,13.547 -1.969,19.828 -7.812,25.196 v 0 c -4,3.676 -9.008,5.543 -14.775,5.543 v 0 c -2.243,0 -4.6,-0.282 -7.058,-0.85"
               style="fill:url(#linearGradient198);stroke:none"
               id="path200" />
          </g>
        </g>
      </g>
    </g>
    <g
       id="g202">
      <g
         id="g204"
         clip-path="url(#clipPath208)">
        <g
           id="g210">
          <g
             id="g212" />
          <g
             id="g236">
            <g
               clip-path="url(#clipPath216)"
               opacity="0.199997"
               id="g234">
              <g
                 id="g232">
                <g
                   clip-path="url(#clipPath220)"
                   id="g230">
                  <g
                     transform="translate(-4.7843,-52.2433)"
                     id="g224">
                    <path
                       d="m 0,0 -30.085,61.978 498.85,303.85 30.085,-61.978 z"
                       style="fill:#ffffff;fill-opacity:1;fill-rule:nonzero;stroke:none"
                       id="path222" />
                  </g>
                  <g
                     transform="translate(78.8985,-135.1603)"
                     id="g228">
                    <path
                       d="m 0,0 -28.843,54.89 499.419,302.143 28.815,-54.918 z"
                       style="fill:#ffffff;fill-opacity:1;fill-rule:nonzero;stroke:none"
                       id="path226" />
                  </g>
                </g>
              </g>
            </g>
          </g>
        </g>
        <g
           id="g238"
           transform="translate(296.6866,162.0274)">
          <path
             d="M 0,0 C -6.499,7.207 -17.382,10.104 -28.401,7.56 -39.407,5.019 -50.282,-2.9 -56.783,-13.108 c -5.589,-8.776 -7.667,-16.786 -7.667,-29.555 v -47.728 l 72.098,16.645 v 47.728 C 7.648,-13.234 5.575,-6.182 0,0"
             style="fill:#220614;fill-opacity:1;fill-rule:nonzero;stroke:none"
             id="path240" />
        </g>
      </g>
    </g>
    <g
       id="g242">
      <g
         id="g244">
        <g
           id="g250">
          <g
             id="g252">
            <path
               d="m 268.285,163.086 c -8.97,-2.072 -17.83,-8.468 -23.171,-16.854 v 0 c -4.681,-7.349 -6.376,-14.021 -6.376,-25.367 v 0 -41.227 l 22.606,5.219 v 16.418 l 13.883,3.184 V 88.063 l 22.605,5.218 v 41.227 c 0,11.346 -1.683,17.246 -6.356,22.428 v 0 c -4.051,4.492 -10.129,6.897 -16.739,6.897 v 0 c -2.113,0 -4.279,-0.245 -6.452,-0.747 m -6.099,-34.767 -6.045,4.856 8.375,3.243 3.769,8.867 3.77,-7.126 8.375,0.624 -6.046,-7.648 1.407,-8.481 -7.506,2.4 -7.506,-5.866 z"
               style="fill:url(#linearGradient260);stroke:none"
               id="path262" />
          </g>
        </g>
      </g>
    </g>
    <g
       id="g264">
      <g
         id="g266"
         clip-path="url(#clipPath270)">
        <g
           id="g272">
          <g
             id="g274" />
          <g
             id="g294">
            <g
               clip-path="url(#clipPath278)"
               opacity="0.199997"
               id="g292">
              <g
                 id="g290">
                <g
                   clip-path="url(#clipPath282)"
                   id="g288">
                  <g
                     transform="translate(-4.7843,-52.2433)"
                     id="g286">
                    <path
                       d="m 0,0 -30.085,61.978 498.85,303.85 30.085,-61.978 z"
                       style="fill:#ffffff;fill-opacity:1;fill-rule:nonzero;stroke:none"
                       id="path284" />
                  </g>
                </g>
              </g>
            </g>
          </g>
        </g>
        <g
           id="g296"
           transform="translate(233.1717,152.1171)">
          <path
             d="m 0,0 c -7.464,-0.227 -12.628,-0.862 -19.054,-2.346 -14.574,-3.364 -25.874,-10.395 -34.544,-21.495 -7.912,-10.129 -12.449,-22.942 -12.449,-35.155 0,-12.724 4.818,-23.407 13.566,-30.082 8.807,-6.72 18.696,-8.171 33.068,-4.853 6.285,1.451 10.985,3.043 19.342,6.553 l 5.294,2.223 V 0.159 Z"
             style="fill:#220614;fill-opacity:1;fill-rule:nonzero;stroke:none"
             id="path298" />
        </g>
      </g>
    </g>
    <g
       id="g300">
      <g
         id="g302">
        <g
           id="g308">
          <g
             id="g310">
            <path
               d="m 214.117,143.269 c -12.893,-2.976 -22.378,-8.843 -29.837,-18.391 v 0 c -6.839,-8.756 -10.654,-19.711 -10.654,-30.255 v 0 c 0,-11.015 4.142,-20.187 11.648,-25.914 v 0 c 7.537,-5.75 15.78,-6.954 28.485,-4.021 v 0 c 6.082,1.404 10.571,2.984 18.134,6.161 v 0 43.667 l -22.606,-5.219 V 86.989 c -8.087,-0.748 -13.331,4.212 -13.331,12.747 v 0 c 0,10.156 7.01,17.521 19.376,20.376 v 0 c 5.31,1.226 9.633,1.754 16.561,1.895 v 0 23.44 c -7.37,-0.223 -12.118,-0.872 -17.776,-2.178"
               style="fill:url(#linearGradient318);stroke:none"
               id="path320" />
          </g>
        </g>
      </g>
    </g>
    <g
       id="g322">
      <g
         id="g324"
         clip-path="url(#clipPath328)">
        <g
           id="g330">
          <g
             id="g332" />
          <g
             id="g352">
            <g
               clip-path="url(#clipPath336)"
               opacity="0.199997"
               id="g350">
              <g
                 id="g348">
                <g
                   clip-path="url(#clipPath340)"
                   id="g346">
                  <g
                     transform="translate(-4.7843,-52.2433)"
                     id="g344">
                    <path
                       d="m 0,0 -30.085,61.978 498.85,303.85 30.085,-61.978 z"
                       style="fill:#ffffff;fill-opacity:1;fill-rule:nonzero;stroke:none"
                       id="path342" />
                  </g>
                </g>
              </g>
            </g>
          </g>
        </g>
        <g
           id="g354"
           transform="translate(144.9674,139.6521)">
          <path
             d="m 0,0 c -9.516,-2.146 -16.657,-5.806 -21.858,-11.124 -6.566,-6.715 -10.332,-15.692 -10.332,-24.631 0,-6.252 1.651,-10.665 5.319,-13.728 -4.127,-5.339 -6.036,-11.27 -6.036,-18.373 0,-8.804 3.074,-15.386 8.891,-19.037 6.299,-3.952 12.976,-3.497 21.706,-1.482 l 30.267,6.988 V 6.454 Z"
             style="fill:#220614;fill-opacity:1;fill-rule:nonzero;stroke:none"
             id="path356" />
        </g>
      </g>
    </g>
    <g
       id="g358">
      <g
         id="g360">
        <g
           id="g366">
          <g
             id="g368">
            <path
               d="m 144.949,133.146 c -8.005,-1.824 -13.873,-4.764 -17.803,-8.783 v 0 c -4.982,-5.095 -7.867,-11.899 -7.867,-18.965 v 0 c 0,-7.259 2.567,-10.598 9.716,-12.666 v 0 c -7.562,-5.77 -10.433,-11.154 -10.433,-19.434 v 0 c 0,-6.846 2.224,-11.867 6.624,-14.627 v 0 c 4.214,-2.644 8.612,-2.938 17.471,-0.892 v 0 l 23.766,5.487 V 84.249 L 151.352,80.77 c -5.961,-1.376 -6.569,1.064 -6.569,2.748 v 0 c 0,1.573 0.608,4.371 6.569,5.747 v 0 l 15.071,3.479 v 15.809 l -15.071,-3.48 c -5.961,-1.376 -7.784,-0.822 -7.784,2.435 v 0 c 0,3.257 1.823,4.653 7.784,6.029 v 0 l 15.071,3.479 v 21.087 z"
               style="fill:url(#linearGradient376);stroke:none"
               id="path378" />
          </g>
        </g>
      </g>
    </g>
    <g
       id="g380">
      <g
         id="g382"
         clip-path="url(#clipPath386)">
        <g
           id="g388">
          <g
             id="g390" />
          <g
             id="g410">
            <g
               clip-path="url(#clipPath394)"
               opacity="0.199997"
               id="g408">
              <g
                 id="g406">
                <g
                   clip-path="url(#clipPath398)"
                   id="g404">
                  <g
                     transform="translate(-4.7843,-52.2433)"
                     id="g402">
                    <path
                       d="m 0,0 -30.085,61.978 498.85,303.85 30.085,-61.978 z"
                       style="fill:#ffffff;fill-opacity:1;fill-rule:nonzero;stroke:none"
                       id="path400" />
                  </g>
                </g>
              </g>
            </g>
          </g>
        </g>
        <g
           id="g412"
           transform="translate(109.0591,114.1904)">
          <path
             d="m 0,0 c -6.81,6.257 -16.056,8.261 -26.738,5.795 -5.834,-1.347 -10.87,-3.675 -15.884,-7.392 -5.015,1.402 -10.052,1.404 -15.885,0.058 -10.683,-2.467 -19.929,-8.74 -26.738,-18.141 -6.946,-9.589 -9.408,-18.339 -9.408,-33.439 v -46.417 l 104.06,24.025 v 46.417 C 9.407,-13.995 6.946,-6.381 0,0"
             style="fill:#220614;fill-opacity:1;fill-rule:nonzero;stroke:none"
             id="path414" />
        </g>
      </g>
    </g>
    <g
       id="g416">
      <g
         id="g418">
        <g
           id="g424">
          <g
             id="g426">
            <path
               d="m 82.321,113.484 c -5.896,-1.361 -10.641,-3.825 -15.885,-8.382 v 0 c -5.244,2.135 -9.96,2.416 -15.884,1.048 v 0 C 41.799,104.128 34.275,99.046 28.719,91.376 v 0 C 22.876,83.309 20.908,76.119 20.908,62.572 v 0 -39.914 l 22.744,5.25 v 44.238 c 0,6.666 2.148,9.456 5.658,10.266 v 0 c 3.509,0.81 5.755,-0.965 5.755,-7.631 v 0 -44.239 l 22.743,5.252 v 44.238 c 0,6.666 2.245,9.478 5.755,10.288 v 0 c 3.51,0.81 5.658,-0.987 5.658,-7.653 v 0 -44.239 l 22.744,5.251 v 39.916 c 0,13.546 -1.968,19.828 -7.812,25.196 v 0 c -4,3.676 -9.007,5.542 -14.775,5.542 v 0 c -2.242,0.001 -4.599,-0.282 -7.057,-0.849"
               style="fill:url(#linearGradient434);stroke:none"
               id="path436" />
          </g>
        </g>
      </g>
    </g>
    <g
       id="g438">
      <g
         id="g440"
         clip-path="url(#clipPath444)">
        <g
           id="g446">
          <g
             id="g448" />
          <g
             id="g468">
            <g
               clip-path="url(#clipPath452)"
               opacity="0.199997"
               id="g466">
              <g
                 id="g464">
                <g
                   clip-path="url(#clipPath456)"
                   id="g462">
                  <g
                     transform="translate(-4.7843,-52.2433)"
                     id="g460">
                    <path
                       d="m 0,0 -30.085,61.978 498.85,303.85 30.085,-61.978 z"
                       style="fill:#ffffff;fill-opacity:1;fill-rule:nonzero;stroke:none"
                       id="path458" />
                  </g>
                </g>
              </g>
            </g>
          </g>
        </g>
        <g
           id="g470"
           transform="translate(452.1109,126.3685)">
          <path
             d="m 0,0 -14.832,1.545 -7.143,13.144 -6.043,-13.695 -14.7,-2.734 11.114,-9.975 -1.91,-14.748 12.886,7.423 13.48,-6.456 -3.101,14.629 z"
             style="fill:#220614;fill-opacity:1;fill-rule:nonzero;stroke:none"
             id="path472" />
        </g>
      </g>
    </g>
    <g
       id="g474">
      <g
         id="g476">
        <g
           id="g482">
          <g
             id="g484">
            <path
               d="m 427.338,123.261 -7.866,-1.463 5.934,-5.326 -1.021,-7.895 6.9,3.975 7.204,-3.45 -1.656,7.811 5.493,5.824 -7.95,0.828 -3.809,7.011 z"
               style="fill:url(#radialGradient492);stroke:none"
               id="path494" />
          </g>
        </g>
      </g>
    </g>
    <g
       id="g496">
      <g
         id="g498"
         clip-path="url(#clipPath502)">
        <g
           id="g504"
           transform="translate(211.7283,146.626)">
          <path
             d="m 0,0 5.222,12.008 -12.708,-3.137 -9.816,8.668 -0.941,-13.061 -11.283,-6.687 12.152,-4.902 2.82,-12.794 8.462,10.028 13.043,-1.257 z"
             style="fill:#220614;fill-opacity:1;fill-rule:nonzero;stroke:none"
             id="path506" />
        </g>
      </g>
    </g>
    <g
       id="g508">
      <g
         id="g510">
        <g
           id="g516">
          <g
             id="g518">
            <path
               d="m 197.447,148.655 -5.963,-3.534 6.431,-2.594 1.491,-6.763 4.472,5.3 6.872,-0.662 -3.671,5.879 2.76,6.348 -6.707,-1.656 -5.189,4.582 z"
               style="fill:url(#radialGradient526);stroke:none"
               id="path528" />
          </g>
        </g>
      </g>
    </g>
    <g
       id="g530">
      <g
         id="g532"
         clip-path="url(#clipPath536)">
        <g
           id="g538"
           transform="translate(30.8971,24.5272)">
          <path
             d="M 0,0 2.779,13.994 -10.002,7.7 l -12.42,6.966 1.999,-14.096 -10.474,-9.695 14.053,-2.431 5.9,-12.971 6.727,12.624 14.166,1.662 z"
             style="fill:#220614;fill-opacity:1;fill-rule:nonzero;stroke:none"
             id="path540" />
        </g>
      </g>
    </g>
    <g
       id="g542">
      <g
         id="g544">
        <g
           id="g550">
          <g
             id="g552">
            <path
               d="m 14.863,23.538 -5.934,-5.493 7.977,-1.381 3.339,-7.341 3.809,7.149 8.005,0.938 -5.631,5.796 1.574,7.921 -7.232,-3.56 -7.039,3.947 z"
               style="fill:url(#radialGradient560);stroke:none"
               id="path562" />
          </g>
        </g>
      </g>
    </g>
    <g
       id="g564">
      <g
         id="g566"
         clip-path="url(#clipPath570)">
        <g
           id="g572"
           transform="translate(402.9313,219.0283)">
          <path
             d="m 0,0 v 6.832 l -1.718,-7.229 -1.86,-0.429 -1.677,6.445 V -1.213 L -7.013,-1.619 V 6.56 l 2.747,0.634 1.656,-6.105 0.021,0.005 1.615,6.86 2.712,0.626 V 0.401 Z M -12.696,-2.931 V 3.797 L -15.525,3.144 V 4.59 l 7.482,1.727 V 4.872 l -2.727,-0.63 v -6.728 z"
             style="fill:#f06917;fill-opacity:1;fill-rule:nonzero;stroke:none"
             id="path574" />
        </g>
        <g
           id="g576"
           transform="translate(369.3149,290.0721)">
          <path
             d="m 0,0 c 0,0 -0.111,-28.842 -0.47,-33.916 -0.359,-5.073 -1.243,-7.141 -2.624,-7.389 -0.663,-0.083 -1.324,0.078 -1.878,0.441 -3.615,2.372 -10.371,15.879 -16.42,27.626 l -8.825,-2.038 v -72.987 l 10.686,2.467 0.141,18.544 c 0,3.86 0.414,6.425 1.298,7.638 0.304,0.413 0.8,0.695 1.271,0.772 3.111,0.507 9.225,-7.39 16.71,-19.963 l 14.28,3.296 v 78.78 z"
             style="fill:#f06917;fill-opacity:1;fill-rule:nonzero;stroke:none"
             id="path578" />
        </g>
        <g
           id="g580"
           transform="translate(314.8467,216.9583)">
          <path
             d="m 0,0 c -0.327,-0.002 -2.751,0.081 -3.011,1.93 -0.15,1.071 0.387,2.041 1.658,2.868 1.104,0.662 2.789,1.351 5.054,2.013 L 14.39,9.623 v 9.293 c 0,0 -12.167,-2.928 -15.909,-2.372 -1.137,0.169 -1.878,0.772 -2.044,1.82 -0.138,1.075 0.387,2.041 1.657,2.868 3.422,2.229 18.782,5.542 18.782,5.542 v 21.441 l -31.625,-7.302 -10e-4,-57.154 32.289,7.454 V 3.088 C 8.921,1.13 3.096,0.017 0,0"
             style="fill:#f06917;fill-opacity:1;fill-rule:nonzero;stroke:none"
             id="path582" />
        </g>
        <g
           id="g584"
           transform="translate(279.8837,259.601)">
          <path
             d="m 0,0 c 0,0 -3.426,-22.572 -6.468,-33.003 -0.869,-2.981 -2.97,-7.542 -5.828,-1.021 -1.024,2.336 -4.062,13.248 -6.292,27.315 l -9.866,-2.278 c 0.863,-9.672 5.6,-35.797 11.91,-51.017 l 19.136,4.418 c 7.043,18.639 11.269,38.327 12.705,59.118 z"
             style="fill:#f06917;fill-opacity:1;fill-rule:nonzero;stroke:none"
             id="path586" />
        </g>
        <g
           id="g588"
           transform="translate(237.4859,196.2145)">
          <path
             d="m 0,0 c -1.524,-0.332 -4.991,-1.21 -6.763,-1.542 -1.696,-0.332 -2.686,0.625 -2.477,3.045 0.191,2.264 1.185,7.064 1.562,8.685 0.834,3.585 2.473,5.079 4.401,5.348 2.471,0.344 4.63,-1.815 5.811,-7.67 C 2.648,7.299 2.936,6.125 3.124,4.528 3.353,2.589 2.4,0.605 0,0 m 8.433,32.357 c -4.788,8.822 -10.357,6.994 -13.211,6.05 -3.738,-1.237 -7.057,-3.157 -10.529,-16.93 -3.65,-14.478 -7.623,-44.89 -7.623,-44.89 l 10.019,2.313 1.029,5.766 c 0.497,2.785 2.27,4.554 4.972,5.349 0,0 7.763,2.015 10.413,2.316 1.119,0.128 2.435,-0.756 2.817,-2.509 l 1.354,-6.204 13.644,3.15 c 0,0 -6.787,34.355 -12.885,45.589"
             style="fill:#f06917;fill-opacity:1;fill-rule:nonzero;stroke:none"
             id="path590" />
        </g>
        <g
           id="g592"
           transform="translate(192.4316,184.7132)">
          <path
             d="m 0,0 c -0.327,-0.002 -2.751,0.081 -3.011,1.93 -0.15,1.071 0.387,2.041 1.658,2.868 1.104,0.662 2.789,1.351 5.054,2.013 L 14.39,9.623 v 9.293 c 0,0 -12.167,-2.928 -15.909,-2.372 -1.137,0.169 -1.878,0.772 -2.044,1.82 -0.138,1.075 0.387,2.041 1.657,2.868 3.422,2.229 18.782,5.542 18.782,5.542 v 23.134 l -31.625,-7.301 v -57.166 l 32.288,7.455 V 3.088 C 8.921,1.13 3.096,0.017 0,0"
             style="fill:#f06917;fill-opacity:1;fill-rule:nonzero;stroke:none"
             id="path594" />
        </g>
        <g
           id="g596"
           transform="translate(153.072,232.4156)">
          <path
             d="m 0,0 c 0.304,-11.388 0.181,-19.912 -1.381,-25.506 -0.949,-3.397 -3.038,-5.983 -5.828,-7.941 -2.841,-1.994 -5.69,-2.868 -8.48,-2.923 -3.401,-0.067 -5.86,1.257 -6.187,4.826 -0.497,5.432 -0.718,13.025 -0.552,22.538 l -12.347,-2.851 v -84.099 l 16.96,3.915 c -0.304,10.726 0.061,18.683 1.381,23.603 0.899,3.353 3.359,6.191 5.828,7.859 2.885,1.948 5.684,2.96 8.479,3.005 3.398,0.055 5.867,-1.52 6.187,-4.908 0.47,-4.963 0.691,-12.124 0.553,-21.251 l 12.622,2.915 V 3.979 Z"
             style="fill:#f06917;fill-opacity:1;fill-rule:nonzero;stroke:none"
             id="path598" />
        </g>
        <g
           id="g600"
           transform="translate(357.7142,368.2807)">
          <path
             d="m 0,0 c -5.265,-17.385 -8.245,-25.885 -10.84,-33.051 -4.424,-12.193 -9.013,-7.404 -11.152,-4.004 -2.486,3.986 -5.868,11.736 -11.736,25.94 L -48.224,-14.46 V -82.7 l 12.029,2.778 c -0.092,10.876 0.091,18.262 0.676,21.132 0.53,2.577 2.084,2.943 3.656,0.384 1.298,-2.103 3.345,-6.654 7.422,-16.014 l 8.06,1.861 c 4.442,11.937 6.839,17.955 8.539,20.898 1.371,2.395 3.985,4.077 4.771,-0.347 0.603,-3.345 0.548,-12.421 0.53,-23.535 l 12.467,2.878 V 2.292 Z"
             style="fill:#feef0e;fill-opacity:1;fill-rule:nonzero;stroke:none"
             id="path602" />
        </g>
        <g
           id="g604"
           transform="translate(288.3578,332.6513)">
          <path
             d="m 0,0 c -0.055,-9.323 -0.037,-17.823 -0.439,-20.931 -0.932,-7.422 -13.619,-10.767 -14.24,-3.931 -0.293,3.218 -0.549,7.468 -0.549,16.956 l -10.255,-2.368 v -62.519 l 13.071,3.018 c 0,9.926 0,14.239 0.164,17.639 0.457,8.957 13.912,10.987 15.081,3.199 0.531,-3.546 0.622,-5.247 0.622,-13.253 l 10.42,2.405 V 3.203 Z"
             style="fill:#feef0e;fill-opacity:1;fill-rule:nonzero;stroke:none"
             id="path606" />
        </g>
        <g
           id="g608"
           transform="translate(219.0014,327.4874)">
          <path
             d="m 0,0 v -25.165 l 7.294,1.684 c 4.424,1.021 6.252,0.445 6.252,-7.385 v -32.303 l 11.974,2.743 v 29.633 c 0,13.162 1.235,16.484 7.751,17.988 l 5.959,1.376 V 9.057 Z"
             style="fill:#feef0e;fill-opacity:1;fill-rule:nonzero;stroke:none"
             id="path610" />
        </g>
        <g
           id="g612"
           transform="translate(214.1023,310.8669)">
          <path
             d="m 0,0 -11.188,-2.583 c 0,0 0.165,-11.517 -0.274,-19.999 -0.64,-12.412 -13.144,-15.081 -14.149,-3.272 -0.512,6.197 -0.75,18.549 -0.75,18.549 l -13.911,-3.212 v -10.072 c 0,-24.039 15.63,-27.001 23.801,-20.145 0.494,0.42 0.987,0.676 1.39,0.493 0.457,-0.201 0.438,-0.694 0.256,-1.608 -0.494,-2.395 -4.041,-7.13 -11.206,-9.049 -5.466,-1.463 -10.823,-2.385 -13.491,-2.806 v -16.681 c 12.028,1.554 25.958,4.99 32.447,14.971 3.382,5.21 5.156,10.713 6.033,18.866 C 0.329,-23.715 0,0 0,0"
             style="fill:#feef0e;fill-opacity:1;fill-rule:nonzero;stroke:none"
             id="path614" />
        </g>
        <g
           id="g616"
           transform="translate(153.1366,311.9035)">
          <path
             d="m 0,0 c -0.055,-9.323 -0.037,-17.823 -0.439,-20.931 -0.932,-7.422 -13.619,-10.767 -14.24,-3.93 -0.293,3.217 -0.549,7.467 -0.549,16.955 l -10.255,-2.368 v -62.519 l 13.071,3.018 c 0,9.926 0,14.239 0.164,17.639 0.457,8.957 13.912,10.987 15.081,3.199 0.531,-3.546 0.622,-5.247 0.622,-13.253 l 10.42,2.405 V 3.203 Z"
             style="fill:#feef0e;fill-opacity:1;fill-rule:nonzero;stroke:none"
             id="path618" />
        </g>
        <g
           id="g620"
           transform="translate(85.0599,274.3005)">
          <path
             d="m 0,0 c -4.991,-1.17 -7.769,1.609 -7.769,7.55 v 5.74 c -10e-4,4.14 0.804,7.733 4.497,8.903 C 7.449,25.589 14.917,20.968 14.917,13.71 14.917,6.928 9.725,2.285 0,0 m 36.141,24.807 c 0,26.379 -25.812,34.038 -57.383,22.759 v -85.153 l 13.454,3.106 v 21.319 c 0,3.254 2.395,2.687 4.607,0.713 1.554,-1.389 10.895,-10.438 17.422,-16.946 l 20.539,4.742 c 0,0 -17.907,18.291 -19.973,20.101 12.029,4.497 21.334,16.216 21.334,29.359"
             style="fill:#feef0e;fill-opacity:1;fill-rule:nonzero;stroke:none"
             id="path622" />
        </g>
      </g>
    </g>
  </g>
</svg>
