<?xml version="1.0" encoding="UTF-8" standalone="no"?>
<!-- Created with Inkscape (http://www.inkscape.org/) -->

<svg
   version="1.1"
   id="svg2"
   width="666.66669"
   height="244.61067"
   viewBox="0 0 666.66669 244.61067"
   sodipodi:docname="Rhythm Tengoku (リズム天国) Logo but with 2015 Colors.ai"
   xmlns:inkscape="http://www.inkscape.org/namespaces/inkscape"
   xmlns:sodipodi="http://sodipodi.sourceforge.net/DTD/sodipodi-0.dtd"
   xmlns="http://www.w3.org/2000/svg"
   xmlns:svg="http://www.w3.org/2000/svg">
  <defs
     id="defs6">
    <clipPath
       clipPathUnits="userSpaceOnUse"
       id="clipPath16">
      <path
         d="M 0,183.458 H 500 V 0 H 0 Z"
         id="path14" />
    </clipPath>
  </defs>
  <sodipodi:namedview
     id="namedview4"
     pagecolor="#ffffff"
     bordercolor="#000000"
     borderopacity="0.25"
     inkscape:showpageshadow="2"
     inkscape:pageopacity="0.0"
     inkscape:pagecheckerboard="0"
     inkscape:deskcolor="#d1d1d1" />
  <g
     id="g8"
     inkscape:groupmode="layer"
     inkscape:label="Rhythm Tengoku (リズム天国) Logo but with 2015 Colors"
     transform="matrix(1.3333333,0,0,-1.3333333,0,244.61067)">
    <g
       id="g10">
      <g
         id="g12"
         clip-path="url(#clipPath16)">
        <g
           id="g18"
           transform="translate(421.9436,183.4522)">
          <path
             d="m 0,0 h -0.001 -0.203 c -25.045,0 -47.916,-11.612 -62.525,-31.074 -7.647,2.446 -15.68,3.722 -23.763,3.743 h -0.21 c -7.673,0 -15.326,-1.138 -22.647,-3.339 -14.603,19.135 -37.312,30.608 -62.012,30.67 h -0.203 c -24.999,0 -47.857,-11.59 -62.477,-31.01 -0.291,0.092 -0.581,0.183 -0.873,0.272 -15.329,4.673 -31.365,4.549 -46.348,-0.195 -14.587,19.308 -37.361,30.876 -62.233,30.939 h -0.181 c -43.068,0 -78.162,-34.892 -78.267,-77.862 -0.113,-43.036 34.904,-78.145 78.06,-78.264 8.075,0.019 16.103,1.213 23.767,3.621 9.882,-12.982 23.719,-22.734 39.476,-27.541 17.817,-5.429 37.039,-4.32 54.13,3.125 12.4,5.403 23.125,13.88 31.174,24.484 7.597,-2.41 15.568,-3.668 23.582,-3.689 h 0.214 c 7.672,0 15.321,1.137 22.641,3.337 14.61,-19.134 37.321,-30.606 62.015,-30.67 h 0.203 c 25.046,0 47.921,11.614 62.534,31.072 7.639,-2.444 15.665,-3.72 23.75,-3.745 h 0.18 c 43.057,0 78.154,34.893 78.274,77.871 C 78.16,-35.218 43.146,-0.112 0,0"
             style="fill:#0096e6;fill-opacity:1;fill-rule:nonzero;stroke:none"
             id="path20" />
        </g>
        <g
           id="g22"
           transform="translate(421.9192,174.0743)">
          <path
             d="M 0,0 H -0.001 -0.18 c -24.398,0 -46.455,-12.52 -58.899,-33.066 -8.599,3.74 -17.965,5.71 -27.413,5.735 h -0.186 c -9.013,0 -17.994,-1.782 -26.285,-5.19 -12.483,20.135 -34.369,32.46 -58.398,32.521 h -0.179 c -24.35,0 -46.391,-12.488 -58.854,-32.985 -2.353,1.015 -4.769,1.902 -7.229,2.654 -15.712,4.79 -32.273,3.855 -47.229,-2.565 -12.441,20.374 -34.411,32.841 -58.64,32.902 h -0.159 c -37.908,0 -68.797,-30.7 -68.89,-68.508 -0.099,-37.867 30.723,-68.757 68.708,-68.862 h 0.183 c 9.33,0 18.605,1.907 27.147,5.554 8.773,-14.392 22.298,-24.902 38.621,-29.88 6.747,-2.058 13.58,-3.043 20.309,-3.043 23.674,0 46.04,12.213 58.67,33.016 8.543,-3.683 17.838,-5.622 27.199,-5.647 h 0.189 c 9.011,0 17.988,1.781 26.278,5.187 12.491,-20.135 34.38,-32.458 58.402,-32.52 h 0.179 c 24.401,0 46.461,12.517 58.908,33.062 8.589,-3.736 17.949,-5.705 27.395,-5.736 h 0.16 c 37.899,0 68.791,30.703 68.896,68.517 C 68.795,-30.987 37.975,-0.099 0,0"
             style="fill:#ffffff;fill-opacity:1;fill-rule:nonzero;stroke:none"
             id="path24" />
        </g>
        <g
           id="g26"
           transform="translate(421.9035,168.107)">
          <path
             d="m 0,0 c -24.798,0.062 -46.279,-14.188 -56.572,-34.948 -8.887,4.831 -19.078,7.588 -29.921,7.616 -10.429,0.029 -20.275,-2.48 -28.946,-6.939 -10.378,20.292 -31.508,34.209 -55.92,34.271 -24.758,0.062 -46.206,-14.143 -56.527,-34.841 -3.588,1.927 -7.414,3.531 -11.461,4.769 -16.613,5.063 -33.741,2.905 -47.979,-4.661 -10.293,20.539 -31.559,34.676 -56.164,34.738 -34.745,0.079 -62.983,-27.913 -63.068,-62.556 -0.09,-34.632 28.006,-62.782 62.756,-62.879 10.775,-0.028 20.927,2.657 29.808,7.392 7.442,-14.85 20.728,-26.75 37.868,-31.977 29.83,-9.091 61.327,5.097 74.743,32.095 8.842,-4.764 18.96,-7.481 29.712,-7.51 10.429,-0.028 20.274,2.481 28.941,6.934 10.383,-20.279 31.513,-34.202 55.925,-34.265 24.803,-0.062 46.284,14.183 56.583,34.943 8.888,-4.831 19.068,-7.583 29.899,-7.617 34.745,-0.079 62.976,27.93 63.073,62.562 C 62.835,-28.235 34.744,-0.09 0,0"
             style="fill:#000000;fill-opacity:1;fill-rule:nonzero;stroke:none"
             id="path28" />
        </g>
        <g
           id="g30"
           transform="translate(448.5901,127.8179)">
          <path
             d="m 0,0 h -37.66 c -2.023,0.006 -3.623,-1.28 -4.272,-3.404 l -12.006,-39.271 h 37.66 c 1.87,-0.01 3.577,1.13 4.272,3.404 z M 17.482,7.511 -0.151,-50.167 h -71.257 l 17.634,57.678 z m -38.496,-39.157 h 4.276 l 1.687,5.519 h -4.276 z m -15.068,24.251 1.383,4.525 H -7.94 l -1.383,-4.525 h -4.672 c -1.996,0 -3.444,-1.045 -4.166,-3.404 l -2.273,-7.433 h 7.797 l -1.485,-4.857 h -7.797 l -2.789,-9.125 c -0.439,-1.437 0.451,-2.471 2.881,-2.471 h 4.16 l -1.374,-4.495 H -45.8 l 1.374,4.495 h 4.724 c 1.93,0 3.405,1.087 4.117,3.415 l 2.501,8.181 h -7.797 l 1.485,4.857 h 7.797 l 2.561,8.377 c 0.298,0.972 0.112,2.46 -2.832,2.46 z"
             style="fill:#ff5500;fill-opacity:1;fill-rule:nonzero;stroke:none"
             id="path32" />
        </g>
        <g
           id="g34"
           transform="translate(447.9445,138.9966)">
          <path
             d="m 0,0 c -1.7,1.385 -3.513,2.607 -5.414,3.703 -1.02,0.591 -1.928,1.12 -1.928,1.926 0,0.617 0.631,1.246 1.941,2.329 2.544,2.104 2.882,2.393 3.764,3.274 l 1.348,-0.944 C -2.065,8.727 -2.342,8.512 -4.798,6.636 -5.414,6.17 -5.666,5.969 -5.666,5.705 c 0,-0.315 0.566,-0.63 0.932,-0.831 1.85,-1.008 4.836,-2.846 5.98,-3.829 z"
             style="fill:#ff5500;fill-opacity:1;fill-rule:nonzero;stroke:none"
             id="path36" />
        </g>
        <g
           id="g38"
           transform="translate(420.1477,145.2876)">
          <path
             d="M 0,0 C -0.448,0.806 -0.704,1.189 -1.203,1.815 L -0.308,2.34 C 0.204,1.751 0.625,1.087 0.894,0.537 Z m -1.573,-0.767 c -0.576,1.112 -0.986,1.623 -1.19,1.892 l 0.869,0.524 C -1.228,0.844 -0.794,0 -0.678,-0.23 Z m 0.984,3.669 C -2.2,2.622 -3.338,2.084 -4.821,1.176 l -0.921,0.908 c 0.409,0.281 0.499,0.333 1.33,0.742 C -7.046,2.788 -8.146,2.762 -8.965,2.711 v 1.444 c 0.385,-0.012 1.97,-0.012 2.61,-0.012 0.908,0 4.948,0.012 5.766,0.012 z M -6.932,-0.64 c -1.073,-1.035 -1.125,-1.968 -1.125,-2.237 0,-1.662 2.455,-1.688 4.374,-1.688 1.252,0 2.506,0.051 3.746,0.231 l 0.051,-1.433 c -0.448,-0.064 -1.342,-0.178 -3.324,-0.178 -2.519,0 -3.605,0.114 -4.692,0.639 -0.883,0.421 -1.561,1.393 -1.561,2.404 0,1.175 0.563,1.982 1.496,3.03 z"
             style="fill:#ff5500;fill-opacity:1;fill-rule:nonzero;stroke:none"
             id="path40" />
        </g>
        <g
           id="g42"
           transform="translate(374.3401,96.6929)">
          <path
             d="M 0,0 3.08,10.076 H -68.608 L -71.688,0 h 26.108 l -2.765,-9.045 h -26.109 l -3.088,-10.101 h 26.108 l -1.141,-3.734 c -3.656,-11.962 -11.578,-14.831 -22.278,-14.838 h -8.367 l -3.094,-10.123 h 18.222 c 13.994,-0.006 19.894,3.151 28.668,13.708 2.445,-1.957 8.483,-9.254 10.475,-13.708 h 18.846 c -3.417,7.268 -19.642,19.78 -24.263,22.246 l 1.971,6.449 h 26.541 l 3.088,10.101 H -29.307 L -26.541,0 Z"
             style="fill:#ffaa00;fill-opacity:1;fill-rule:nonzero;stroke:none"
             id="path44" />
        </g>
        <g
           id="g46"
           transform="translate(355.8987,120.9629)">
          <path
             d="m 0,0 c -0.254,-0.759 -1.416,-4.058 -1.631,-4.741 0.277,0.202 0.771,0.556 1.631,0.556 2.034,0 2.085,-1.959 2.085,-2.869 v -0.544 c 0,-0.366 0,-1.517 1.075,-1.517 1.012,0 1.668,1.062 1.934,3.843 l 1.328,-0.392 c -0.342,-2.983 -1.101,-4.842 -3.426,-4.842 -1.036,0 -1.846,0.633 -2.125,1.379 -0.176,0.467 -0.214,1.226 -0.214,1.504 v 0.43 c 0,0.809 0,1.631 -0.948,1.631 -1.429,0 -2.149,-1.542 -2.415,-2.251 -0.025,-0.062 -0.657,-2.478 -0.746,-2.819 l -1.453,0.417 c 0.986,2.984 2.756,8.711 3.312,10.506 z"
             style="fill:#ffaa00;fill-opacity:1;fill-rule:nonzero;stroke:none"
             id="path48" />
        </g>
        <g
           id="g50"
           transform="translate(332.4865,119.4322)">
          <path
             d="m 0,0 c -0.26,0.024 -0.545,0.049 -1.076,0.049 -1.112,0 -1.865,-0.297 -2.446,-0.58 -1.755,-0.878 -3.325,-2.572 -3.325,-4.24 0,-1.878 2.162,-2.545 5.722,-2.434 l -0.197,-1.47 c -2.657,0.011 -3.98,0.321 -5.105,0.902 -1.112,0.568 -1.841,1.742 -1.841,2.892 0,1.272 0.655,3.2 3.411,4.881 -1.928,-0.111 -3.843,-0.26 -5.759,-0.42 l -0.049,1.408 c 0.852,0 1.779,0.05 2.632,0.087 1.062,0.05 6.735,0.272 8.008,0.321 z"
             style="fill:#ffaa00;fill-opacity:1;fill-rule:nonzero;stroke:none"
             id="path52" />
        </g>
        <g
           id="g54"
           transform="translate(283.2004,87.7994)">
          <path
             d="m 0,0 h -2.849 c -1.865,-0.005 -3.587,1.076 -4.297,3.385 l -3.258,10.599 H -29.291 L -25.016,0 H -48.31 l 25.788,38.231 c 1.126,1.67 2.482,2.519 3.987,2.53 h 4.739 l 2.145,7.014 H -34.915 L -65.534,2.381 C -66.72,0.623 -68.164,0 -69.499,0 h -2.883 l -3.1,-10.14 H 3.101 Z"
             style="fill:#ff5500;fill-opacity:1;fill-rule:nonzero;stroke:none"
             id="path56" />
        </g>
        <g
           id="g58"
           transform="translate(127.9958,89.2955)">
          <path
             d="M 0,0 H 42.078 C 37.011,-13.404 26.507,-30.206 2.952,-30.206 H -9.235 l -3.129,-10.234 12.457,10e-4 c 16.123,-10e-4 24.566,2.153 36.536,10.202 1.911,-1.777 4.061,-5.355 4.418,-10.203 H 60.01 c -1.525,3.743 -9.976,13.181 -15.745,15.812 9.797,8.445 12.745,14.743 15.895,21.71 1.129,2.524 2.791,3.498 4.336,3.498 h 2.87 l 2.992,9.785 H 3.169 Z m 60.737,13.111 c 2.714,0.013 4.83,2.186 4.85,4.837 -0.027,2.665 -2.186,4.829 -4.837,4.85 -2.698,0.035 -4.829,-2.186 -4.849,-4.837 0.027,-2.665 2.185,-4.829 4.836,-4.85 m 16.73,4.837 c 0.027,-2.665 -2.137,-4.824 -4.85,-4.837 -2.651,0.021 -4.825,2.137 -4.837,4.85 0.02,2.651 2.136,4.824 4.85,4.837 2.665,0.027 4.871,-2.151 4.837,-4.85"
             style="fill:#ffaa00;fill-opacity:1;fill-rule:nonzero;stroke:none"
             id="path60" />
        </g>
        <g
           id="g62"
           transform="translate(94.6286,135.6797)">
          <path
             d="m 0,0 -2.307,-7.545 h 1.649 c 2.483,0 3.361,-1.083 2.927,-2.501 l -8.193,-26.8 c -2.086,-6.822 -6.323,-11.014 -12.64,-11.023 h -32.87 l -3.104,-10.15 h 45.966 c 9.296,-0.03 17.094,6.063 20.183,16.169 l 9.441,30.88 c 0.653,2.134 1.842,3.425 4.173,3.425 h 2.022 L 29.553,0 Z m -27.467,-36.542 h -25.968 l 2.303,7.531 h 2.137 c 2.299,0 3.54,1.347 4.184,3.451 l 4.742,15.511 c 0.433,1.417 -0.437,2.504 -2.924,2.504 h -1.576 L -42.263,0 h 25.968 l -2.307,-7.545 h -2.132 c -2.306,0 -3.548,-1.352 -4.185,-3.436 l -4.742,-15.512 c -0.436,-1.425 0.445,-2.518 2.924,-2.518 h 1.572 z"
             style="fill:#ff5500;fill-opacity:1;fill-rule:nonzero;stroke:none"
             id="path64" />
        </g>
        <g
           id="g66"
           transform="translate(494.0246,28.3052)">
          <path
             d="M 0,0 V 8.169 L -1.903,0 H -3.966 L -5.824,8.169 V 0 h -1.949 v 9.779 h 3.044 l 1.836,-7.757 h 0.023 l 1.791,7.757 H 1.927 L 1.927,0 Z m -14.073,0 v 8.045 h -3.136 v 1.728 h 8.294 V 8.045 h -3.023 V 0 Z"
             style="fill:#000000;fill-opacity:1;fill-rule:nonzero;stroke:none"
             id="path68" />
        </g>
      </g>
    </g>
  </g>
</svg>
