<?xml version="1.0" encoding="UTF-8" standalone="no"?>
<!-- Created with Inkscape (http://www.inkscape.org/) -->

<svg
   version="1.1"
   id="svg2"
   width="666.66669"
   height="222.31467"
   viewBox="0 0 666.66669 222.31467"
   sodipodi:docname="Rhythm Tengoku (リズム天国) but it's not a Cloud.ai"
   xmlns:inkscape="http://www.inkscape.org/namespaces/inkscape"
   xmlns:sodipodi="http://sodipodi.sourceforge.net/DTD/sodipodi-0.dtd"
   xmlns="http://www.w3.org/2000/svg"
   xmlns:svg="http://www.w3.org/2000/svg">
  <defs
     id="defs6">
    <clipPath
       clipPathUnits="userSpaceOnUse"
       id="clipPath16">
      <path
         d="M 0,166.736 H 500 V 0 H 0 Z"
         id="path14" />
    </clipPath>
  </defs>
  <sodipodi:namedview
     id="namedview4"
     pagecolor="#ffffff"
     bordercolor="#000000"
     borderopacity="0.25"
     inkscape:showpageshadow="2"
     inkscape:pageopacity="0.0"
     inkscape:pagecheckerboard="0"
     inkscape:deskcolor="#d1d1d1" />
  <g
     id="g8"
     inkscape:groupmode="layer"
     inkscape:label="Rhythm Tengoku (リズム天国) but it's not a Cloud"
     transform="matrix(1.3333333,0,0,-1.3333333,0,222.31467)">
    <g
       id="g10">
      <g
         id="g12"
         clip-path="url(#clipPath16)">
        <g
           id="g18"
           transform="translate(493.8683,138.7368)">
          <path
             d="m 0,0 c -4.249,5.744 -10.346,9.815 -17.131,11.629 -2.241,3.804 -5.285,7.129 -8.982,9.72 l -1.385,0.97 c -9.825,6.885 -22.379,7.431 -32.55,2.07 -4.008,1.814 -8.406,2.792 -12.918,2.792 l -5.917,-0.012 c -0.437,-0.001 -1.419,-0.004 -1.823,0.001 -8.372,0.231 -16.608,-2.99 -22.619,-8.813 -2.29,-2.219 -4.209,-4.76 -5.711,-7.522 -7.437,-2.676 -13.625,-8.102 -17.246,-15.299 -2.042,0.851 -4.183,1.489 -6.387,1.893 l -1.64,0.299 c -5.963,1.089 -11.997,0.416 -17.435,-1.8 -3.765,1.359 -7.786,2.009 -11.83,1.848 -1.344,-0.051 -7.34,-0.287 -8.41,-0.337 l -0.722,-0.033 c -0.201,-0.01 -0.405,-0.022 -0.582,-0.025 -7.837,0 -15.471,-3 -21.219,-8.286 -0.971,3.962 -2.713,7.745 -5.182,11.098 -5.877,7.982 -15.305,12.748 -25.217,12.748 h -23.887 c -10.427,0 -20.133,-5.161 -25.963,-13.805 l -8.873,-13.155 c -4.492,1.894 -9.353,2.863 -14.248,2.85 -1.996,-0.01 -3.979,-0.183 -5.934,-0.518 -1.893,0.326 -3.81,0.498 -5.736,0.516 -9.645,0.136 -18.815,-3.536 -25.758,-10.335 -0.794,-0.778 -1.549,-1.587 -2.263,-2.428 h -7.855 c 1.546,8.456 -0.46,17.317 -5.622,24.294 -5.88,7.945 -15.291,12.689 -25.175,12.689 h -30.344 c -2.844,0 -5.656,-0.385 -8.367,-1.137 -2.71,0.751 -5.523,1.137 -8.365,1.137 h -26.663 c -13.861,0 -25.896,-8.906 -29.948,-22.161 l -2.369,-7.746 c -1.16,-3.796 -1.571,-7.763 -1.255,-11.668 -2.445,-3.06 -4.323,-6.578 -5.484,-10.373 l -2.363,-7.732 c -1.843,-6.026 -1.806,-12.412 0.006,-18.329 l -1.139,-3.724 c -2.889,-9.452 -1.105,-19.839 4.774,-27.783 5.879,-7.946 15.29,-12.69 25.175,-12.69 h 46.308 c 0.342,-6.033 2.416,-11.936 6.082,-16.89 5.879,-7.944 15.29,-12.687 25.175,-12.687 l 12.798,0.001 c 11.23,0 20.137,0.971 28.284,3.163 4.228,-2.071 8.905,-3.164 13.757,-3.164 h 19.471 c 10.444,0 20.158,5.174 25.988,13.842 3.196,4.754 4.979,10.194 5.287,15.734 h 40.168 c 0.342,-6.033 2.415,-11.936 6.081,-16.89 5.879,-7.945 15.29,-12.689 25.174,-12.689 h 18.749 c 9.777,0 17.892,1.218 25.126,3.853 4.554,-2.49 9.716,-3.853 15.027,-3.853 h 19.351 c 10.777,0 20.661,5.432 26.44,14.532 2.93,4.617 4.557,9.789 4.85,15.038 h 55.166 c 13.861,0 25.896,8.906 29.948,22.161 l 18.105,59.22 C 7.665,-18.334 5.88,-7.947 0,0"
             style="fill:#00b3f0;fill-opacity:1;fill-rule:nonzero;stroke:none"
             id="path20" />
        </g>
        <g
           id="g22"
           transform="translate(487.6785,134.1565)">
          <path
             d="m 0,0 c -3.862,5.22 -9.745,8.607 -16.125,9.393 -1.7,4.083 -4.527,7.644 -8.218,10.23 l -1.384,0.97 c -8.531,5.976 -19.785,5.619 -27.864,-0.553 -3.848,2.583 -8.427,4.021 -13.169,4.021 l -5.919,-0.013 c -0.481,0 -1.597,-10e-4 -1.987,0.003 -6.311,0.183 -12.565,-2.242 -17.11,-6.644 -2.459,-2.382 -4.35,-5.256 -5.572,-8.406 -8.171,-1.816 -14.85,-7.851 -17.384,-16.143 l -1.327,-4.338 c -3.268,3.023 -7.364,5.102 -11.805,5.913 l -1.637,0.3 c -5.524,1.007 -11.119,0.015 -15.872,-2.68 -3.592,1.843 -7.65,2.765 -11.714,2.609 -1.336,-0.052 -7.289,-0.286 -8.359,-0.335 l -0.706,-0.032 c -0.317,-0.015 -0.641,-0.034 -0.946,-0.034 -6.369,0 -12.561,-2.628 -16.986,-7.209 -2.059,-2.131 -3.693,-4.655 -4.822,-7.396 -2.994,-0.677 -5.787,-1.922 -8.246,-3.637 l 0.987,3.178 c 2.218,7.139 0.897,14.993 -3.535,21.011 -4.432,6.019 -11.541,9.613 -19.017,9.613 h -23.886 c -7.863,0 -15.182,-3.892 -19.579,-10.411 l -12.796,-18.971 c -4.852,3.433 -10.691,5.344 -16.673,5.272 -2.016,-0.01 -4.016,-0.232 -5.973,-0.662 -1.915,0.424 -3.86,0.645 -5.786,0.659 -7.638,0.117 -14.839,-2.77 -20.317,-8.135 -1.44,-1.411 -2.717,-2.958 -3.821,-4.628 h -21.874 l 1.976,6.463 c 2.179,7.128 0.833,14.961 -3.6,20.952 -4.433,5.992 -11.53,9.569 -18.984,9.569 h -30.345 c -2.873,0 -5.706,-0.523 -8.366,-1.531 -2.661,1.008 -5.493,1.531 -8.365,1.531 h -26.663 c -10.453,0 -19.528,-6.716 -22.584,-16.711 l -2.369,-7.747 c -1.185,-3.877 -1.332,-7.989 -0.489,-11.902 -2.888,-2.773 -5.065,-6.264 -6.249,-10.139 l -2.364,-7.732 c -1.608,-5.26 -1.318,-10.883 0.748,-15.9 l -1.881,-6.153 c -2.179,-7.128 -0.833,-14.961 3.6,-20.952 4.433,-5.992 11.531,-9.569 18.984,-9.569 h 47.268 c 2.581,0 5.13,0.22 7.625,0.652 -2.055,-7.05 -0.686,-14.752 3.688,-20.662 4.433,-5.99 11.53,-9.567 18.985,-9.567 l 12.798,0.001 c 11.913,0 20.948,1.143 29.232,3.764 3.781,-2.451 8.191,-3.765 12.809,-3.765 h 19.471 c 7.876,0 15.201,3.902 19.597,10.439 3.812,5.668 4.957,12.632 3.256,19.137 h 56.994 c -1.789,-6.869 -0.372,-14.281 3.867,-20.01 4.434,-5.992 11.53,-9.569 18.984,-9.569 h 18.749 c 10.434,0 18.676,1.501 25.9,4.793 4.058,-3.067 9.061,-4.793 14.252,-4.793 h 19.352 c 8.127,0 15.58,4.096 19.938,10.959 3.566,5.618 4.572,12.327 2.922,18.611 h 63.596 c 10.452,0 19.528,6.717 22.583,16.713 l 18.106,59.22 C 5.78,-13.825 4.434,-5.992 0,0"
             style="fill:#ffffff;fill-opacity:1;fill-rule:nonzero;stroke:none"
             id="path24" />
        </g>
        <g
           id="g26"
           transform="translate(481.4878,129.5761)">
          <path
             d="m 0,0 c -3.001,4.056 -7.748,6.448 -12.794,6.448 h -3.099 c -0.461,4.596 -2.876,8.784 -6.678,11.448 l -1.384,0.97 c -6.328,4.434 -14.923,3.683 -20.386,-1.78 -0.377,-0.377 -0.426,-0.426 -2.757,-2.353 -0.157,-0.13 -0.338,-0.28 -0.529,-0.442 -2.888,4.022 -7.596,6.649 -12.926,6.649 l -5.921,-0.012 c -0.534,-0.001 -1.801,-0.002 -2.175,0.004 -4.285,0.133 -8.484,-1.478 -11.578,-4.476 -2.751,-2.666 -4.429,-6.223 -4.769,-10.008 h -0.963 c -6.997,0 -13.173,-4.57 -15.219,-11.262 l -4.979,-16.287 c -1.567,2.31 -3.737,4.214 -6.347,5.45 -2.376,3.719 -6.195,6.293 -10.553,7.089 l -1.635,0.299 c -5.393,0.984 -10.7,-0.881 -14.296,-4.593 -0.023,0.022 -0.043,0.047 -0.066,0.069 -3.111,2.938 -7.266,4.5 -11.545,4.334 -1.326,-0.051 -7.237,-0.283 -8.307,-0.333 l -0.431,-0.019 c -0.518,-0.024 -1.064,-0.054 -1.57,-0.054 -4.317,0 -8.448,-1.754 -11.447,-4.859 -2.426,-2.511 -3.923,-5.736 -4.335,-9.159 h -0.739 c -6.998,0 -13.175,-4.571 -15.22,-11.262 l -2.469,-8.075 -0.916,2.981 c -1.435,4.667 -4.881,8.299 -9.209,10.063 2.628,1.963 4.652,4.737 5.676,8.03 l 2.238,7.202 c 1.501,4.831 0.617,10.087 -2.383,14.16 -2.999,4.074 -7.756,6.478 -12.815,6.478 h -23.887 c -5.29,0 -10.235,-2.629 -13.194,-7.015 l -18.094,-26.827 c -0.815,1.296 -1.757,2.515 -2.848,3.608 -3.939,3.949 -9.373,6.168 -14.874,6.124 -2.089,-0.01 -4.11,-0.33 -6.016,-0.919 -1.874,0.581 -3.855,0.902 -5.899,0.918 -5.563,0.086 -10.827,-2.037 -14.809,-5.937 -1.989,-1.948 -3.559,-4.283 -4.633,-6.827 h -39.889 c -0.306,0 -0.607,-0.02 -0.909,-0.037 3.078,1.989 5.463,5.021 6.589,8.704 l 2.369,7.748 c 1.475,4.825 0.575,10.064 -2.426,14.12 -3.001,4.056 -7.748,6.448 -12.793,6.448 h -30.345 c -3.033,0 -5.911,-0.858 -8.366,-2.376 -2.482,1.534 -5.371,2.376 -8.366,2.376 h -26.662 c -6.998,0 -13.175,-4.57 -15.22,-11.262 l -2.368,-7.747 c -1.282,-4.191 -0.771,-8.695 1.353,-12.464 -3.805,-1.907 -6.788,-5.311 -8.092,-9.577 l -2.364,-7.732 c -1.339,-4.377 -0.722,-9.096 1.646,-12.963 l -2.779,-9.089 c -1.475,-4.825 -0.575,-10.064 2.426,-14.12 3.002,-4.056 7.748,-6.448 12.794,-6.448 h 47.145 0.123 c 7.775,0 14.991,2.391 21.001,6.67 -1.189,-1.513 -2.125,-3.251 -2.712,-5.171 l -3.213,-10.509 c -1.475,-4.825 -0.575,-10.064 2.427,-14.12 3.001,-4.056 7.748,-6.447 12.794,-6.447 l 12.788,0.001 h 0.011 c 12.589,0 21.891,1.315 30.706,4.742 2.895,-2.937 6.916,-4.743 11.335,-4.743 h 19.47 c 5.299,0 10.25,2.637 13.207,7.034 2.957,4.397 3.532,9.977 1.533,14.884 -1.34,3.291 -4.271,7.549 -7.952,11.677 0.427,0.596 0.826,1.183 1.213,1.766 3.014,-3.64 7.484,-5.785 12.24,-5.785 h 69.992 l -2.754,-9.012 c -1.475,-4.825 -0.575,-10.063 2.426,-14.119 3.001,-4.056 7.748,-6.448 12.794,-6.448 h 18.703 0.046 c 11.385,0 19.731,1.833 27.274,6.562 2.955,-4.07 7.718,-6.562 12.878,-6.562 h 19.352 c 5.447,0 10.516,2.786 13.436,7.385 2.92,4.599 3.284,10.372 0.966,15.301 -1.129,2.402 -2.798,4.87 -4.782,7.315 1.191,-0.283 2.421,-0.431 3.67,-0.431 H -30.9 c 6.997,0 13.174,4.57 15.22,11.262 L 2.426,-14.12 C 3.902,-9.295 3.001,-4.056 0,0"
             style="fill:#130c0e;fill-opacity:1;fill-rule:nonzero;stroke:none"
             id="path28" />
        </g>
        <g
           id="g30"
           transform="translate(450.7436,112.397)">
          <path
             d="m 0,0 h -38.668 c -2.078,0.006 -3.72,-1.314 -4.387,-3.495 l -12.328,-40.322 h 38.669 c 1.92,-0.011 3.672,1.159 4.386,3.495 z M 17.951,7.712 -0.155,-51.511 H -73.32 l 18.106,59.223 z m -39.528,-40.205 h 4.391 l 1.732,5.666 h -4.39 z m -15.472,24.9 1.421,4.646 h 27.475 l -1.42,-4.646 h -4.797 c -2.05,0 -3.537,-1.073 -4.277,-3.495 l -2.334,-7.632 h 8.006 l -1.525,-4.987 h -8.005 l -2.865,-9.37 c -0.451,-1.475 0.463,-2.536 2.958,-2.536 h 4.272 l -1.411,-4.615 h -27.475 l 1.411,4.615 h 4.85 c 1.981,0 3.496,1.116 4.227,3.506 l 2.568,8.4 h -8.005 l 1.524,4.987 h 8.006 l 2.63,8.601 c 0.305,0.999 0.115,2.526 -2.908,2.526 z"
             style="fill:#f15a22;fill-opacity:1;fill-rule:nonzero;stroke:none"
             id="path32" />
        </g>
        <g
           id="g34"
           transform="translate(450.0805,123.8752)">
          <path
             d="m 0,0 c -1.745,1.422 -3.607,2.677 -5.559,3.802 -1.047,0.607 -1.979,1.15 -1.979,1.978 0,0.633 0.648,1.279 1.992,2.392 2.612,2.159 2.96,2.456 3.866,3.361 l 1.383,-0.97 C -2.12,8.96 -2.405,8.74 -4.926,6.814 -5.559,6.335 -5.818,6.129 -5.818,5.857 -5.818,5.534 -5.235,5.211 -4.861,5.004 -2.96,3.969 0.104,2.082 1.28,1.073 Z"
             style="fill:#f15a22;fill-opacity:1;fill-rule:nonzero;stroke:none"
             id="path36" />
        </g>
        <g
           id="g38"
           transform="translate(421.5391,130.3344)">
          <path
             d="m 0,0 c -0.46,0.827 -0.723,1.221 -1.235,1.864 l 0.92,0.539 C 0.21,1.799 0.642,1.116 0.918,0.552 Z M -1.615,-0.787 C -2.206,0.354 -2.627,0.88 -2.836,1.156 l 0.893,0.538 C -1.26,0.866 -0.815,0 -0.696,-0.236 Z M -0.604,2.98 C -2.259,2.692 -3.427,2.14 -4.949,1.208 L -5.896,2.14 c 0.421,0.289 0.512,0.342 1.367,0.762 -2.705,-0.04 -3.835,-0.066 -4.675,-0.118 v 1.483 c 0.394,-0.013 2.022,-0.013 2.679,-0.013 0.932,0 5.081,0.013 5.921,0.013 z m -6.512,-3.636 c -1.103,-1.063 -1.156,-2.022 -1.156,-2.298 0,-1.706 2.521,-1.733 4.491,-1.733 1.286,0 2.573,0.053 3.846,0.237 l 0.053,-1.471 c -0.46,-0.065 -1.378,-0.184 -3.414,-0.184 -2.586,0 -3.702,0.119 -4.818,0.657 -0.906,0.433 -1.602,1.431 -1.602,2.468 0,1.208 0.578,2.035 1.536,3.111 z"
             style="fill:#f15a22;fill-opacity:1;fill-rule:nonzero;stroke:none"
             id="path40" />
        </g>
        <g
           id="g42"
           transform="translate(374.5051,80.4384)">
          <path
             d="M 0,0 3.163,10.346 H -70.445 L -73.608,0 H -46.8 l -2.839,-9.287 h -26.808 l -3.171,-10.371 h 26.808 l -1.173,-3.835 c -3.754,-12.281 -11.888,-15.227 -22.874,-15.234 h -8.591 l -3.178,-10.395 h 18.711 c 14.369,-0.006 20.426,3.235 29.436,14.076 2.511,-2.01 8.71,-9.503 10.755,-14.076 h 19.351 c -3.509,7.462 -20.2,20.327 -24.945,22.859 0.952,2.624 2.056,6.605 2.056,6.605 H -6.01 l 3.171,10.371 H -30.091 L -27.252,0 Z"
             style="fill:#faa61a;fill-opacity:1;fill-rule:nonzero;stroke:none"
             id="path44" />
        </g>
        <g
           id="g46"
           transform="translate(355.5696,105.3586)">
          <path
             d="m 0,0 c -0.26,-0.779 -1.453,-4.167 -1.674,-4.868 0.285,0.208 0.791,0.572 1.674,0.572 2.09,0 2.141,-2.012 2.141,-2.947 v -0.558 c 0,-0.377 0,-1.558 1.104,-1.558 1.039,0 1.713,1.091 1.986,3.946 l 1.363,-0.402 c -0.351,-3.064 -1.13,-4.972 -3.517,-4.972 -1.065,0 -1.895,0.649 -2.182,1.415 -0.18,0.48 -0.22,1.259 -0.22,1.545 v 0.441 c 0,0.831 0,1.674 -0.973,1.674 -1.467,0 -2.207,-1.583 -2.48,-2.31 -0.026,-0.065 -0.675,-2.544 -0.766,-2.895 l -1.492,0.428 c 1.012,3.064 2.829,8.944 3.401,10.788 z"
             style="fill:#faa61a;fill-opacity:1;fill-rule:nonzero;stroke:none"
             id="path48" />
        </g>
        <g
           id="g50"
           transform="translate(331.5308,103.7866)">
          <path
             d="m 0,0 c -0.267,0.025 -0.559,0.051 -1.104,0.051 -1.142,0 -1.916,-0.305 -2.512,-0.597 -1.802,-0.9 -3.414,-2.639 -3.414,-4.352 0,-1.929 2.22,-2.614 5.875,-2.5 l -0.203,-1.51 c -2.728,0.013 -4.086,0.33 -5.241,0.927 -1.142,0.583 -1.89,1.789 -1.89,2.969 0,1.306 0.672,3.286 3.502,5.012 -1.98,-0.114 -3.946,-0.267 -5.913,-0.431 l -0.051,1.446 c 0.875,0 1.828,0.051 2.703,0.089 1.091,0.051 6.915,0.279 8.222,0.33 z"
             style="fill:#faa61a;fill-opacity:1;fill-rule:nonzero;stroke:none"
             id="path52" />
        </g>
        <g
           id="g54"
           transform="translate(280.9253,71.307)">
          <path
             d="M 0,0 H -2.925 C -4.84,-0.005 -6.608,1.105 -7.337,3.476 l -3.346,10.883 H -30.075 L -25.685,0 h -23.919 l 26.478,39.254 c 1.157,1.716 2.549,2.587 4.094,2.598 h 4.867 l 2.202,7.202 H -35.85 L -67.289,2.445 C -68.506,0.639 -69.989,0 -71.359,0 h -2.962 l -3.183,-10.411 H 3.183 Z"
             style="fill:#f15a22;fill-opacity:1;fill-rule:nonzero;stroke:none"
             id="path56" />
        </g>
        <g
           id="g58"
           transform="translate(121.5645,72.843)">
          <path
             d="m 0,0 h 43.205 c -9.11,-24.098 -24.254,-31.015 -48.44,-31.015 h -4.247 l -3.213,-10.508 12.79,0.001 c 16.555,-0.001 25.224,2.211 37.515,10.475 1.962,-1.824 4.17,-5.497 4.536,-10.476 h 19.471 c -1.566,3.844 -10.243,13.534 -16.166,16.235 10.059,8.672 13.086,15.139 16.32,22.292 1.159,2.592 2.866,3.592 4.452,3.592 h 2.947 l 3.072,10.047 H 3.254 Z m 62.364,13.462 c 2.786,0.013 4.959,2.245 4.98,4.967 -0.028,2.736 -2.245,4.958 -4.967,4.98 -2.771,0.036 -4.958,-2.245 -4.979,-4.967 0.027,-2.736 2.244,-4.958 4.966,-4.98 m 17.177,4.967 c 0.028,-2.737 -2.194,-4.953 -4.98,-4.966 -2.722,0.021 -4.953,2.194 -4.966,4.979 0.021,2.722 2.194,4.954 4.98,4.967 2.736,0.028 5.002,-2.209 4.966,-4.98"
             style="fill:#faa61a;fill-opacity:1;fill-rule:nonzero;stroke:none"
             id="path60" />
        </g>
        <g
           id="g62"
           transform="translate(87.3038,120.4694)">
          <path
             d="m 0,0 -2.369,-7.747 h 1.693 c 2.549,0 3.451,-1.112 3.006,-2.568 l -8.413,-27.518 c -2.142,-7.005 -6.492,-11.309 -12.978,-11.317 h -33.75 l -3.187,-10.423 h 47.196 c 9.545,-0.031 17.552,6.227 20.724,16.602 l 9.694,31.707 c 0.67,2.192 1.891,3.517 4.284,3.517 h 2.076 L 30.345,0 Z m -28.203,-37.52 h -26.663 l 2.364,7.732 h 2.195 c 2.361,0 3.635,1.383 4.296,3.544 l 4.869,15.926 c 0.445,1.455 -0.449,2.571 -3.002,2.571 h -1.619 L -43.394,0 h 26.662 L -19.1,-7.747 h -2.19 c -2.367,0 -3.642,-1.388 -4.296,-3.528 l -4.869,-15.927 c -0.448,-1.464 0.457,-2.586 3.002,-2.586 h 1.614 z"
             style="fill:#f15a22;fill-opacity:1;fill-rule:nonzero;stroke:none"
             id="path64" />
        </g>
      </g>
    </g>
  </g>
</svg>
