<?xml version="1.0" encoding="UTF-8" standalone="no"?>
<!-- Generator: Adobe Illustrator 25.0.0, SVG Export Plug-In . SVG Version: 6.00 Build 0)  -->

<svg
   version="1.1"
   id="Layer_1"
   x="0px"
   y="0px"
   viewBox="0 0 666.66699 496.35456"
   xml:space="preserve"
   sodipodi:docname="Rhythm Heaven Logo (Fever Style).svg"
   width="666.66699"
   height="496.35455"
   inkscape:version="1.2.2 (b0a8486541, 2022-12-01)"
   xmlns:inkscape="http://www.inkscape.org/namespaces/inkscape"
   xmlns:sodipodi="http://sodipodi.sourceforge.net/DTD/sodipodi-0.dtd"
   xmlns="http://www.w3.org/2000/svg"
   xmlns:svg="http://www.w3.org/2000/svg"><defs
   id="defs46" /><sodipodi:namedview
   id="namedview44"
   pagecolor="#505050"
   bordercolor="#eeeeee"
   borderopacity="1"
   inkscape:showpageshadow="0"
   inkscape:pageopacity="0"
   inkscape:pagecheckerboard="0"
   inkscape:deskcolor="#505050"
   showgrid="false"
   inkscape:zoom="1.9507534"
   inkscape:cx="243.75198"
   inkscape:cy="242.47042"
   inkscape:window-width="2560"
   inkscape:window-height="1400"
   inkscape:window-x="0"
   inkscape:window-y="0"
   inkscape:window-maximized="1"
   inkscape:current-layer="Rhythm_Heaven_x2122__00000088820035268166996840000005309173992790592188_" />
<style
   type="text/css"
   id="style2">
	.st0{fill:url(#Spectrum_1_);}
	.st1{fill:#FFFFFF;}
	.st2{fill:#220614;}
	.st3{fill:#F06917;}
	.st4{fill:#FEEF0E;}
</style>
<g
   id="Cloud_00000183241834984758457490000002696117968237109669_"
   transform="scale(1.333334)">
	<linearGradient
   id="Spectrum_1_"
   gradientUnits="userSpaceOnUse"
   x1="462.85007"
   y1="296.27197"
   x2="46.644821"
   y2="55.975761">
		<stop
   offset="0.05"
   style="stop-color:#FF0000"
   id="stop4" />
		<stop
   offset="0.2"
   style="stop-color:#F49F00"
   id="stop6" />
		<stop
   offset="0.22617"
   style="stop-color:#F2BD00"
   id="stop8" />
		<stop
   offset="0.25775"
   style="stop-color:#F0DA00"
   id="stop10" />
		<stop
   offset="0.2892"
   style="stop-color:#EFEE00"
   id="stop12" />
		<stop
   offset="0.32014"
   style="stop-color:#EEFB00"
   id="stop14" />
		<stop
   offset="0.35"
   style="stop-color:#EEFF00"
   id="stop16" />
		<stop
   offset="0.5"
   style="stop-color:#00FF00"
   id="stop18" />
		<stop
   offset="0.75"
   style="stop-color:#1D0FFF"
   id="stop20" />
		<stop
   offset="0.95"
   style="stop-color:#710EC0"
   id="stop22" />
	</linearGradient>
	<path
   id="Spectrum"
   class="st0"
   d="m 481.88284,148.23424 c 4.89352,-12.54736 7.44138,-25.98973 7.44138,-39.55075 C 489.32422,48.75533 440.5694,0 380.64172,0 345.71695,0 313.5158,16.68602 293.30001,43.97506 279.28829,36.97458 263.73461,33.24997 247.84496,33.24997 c -20.9912,0 -41.14693,6.34912 -58.28851,18.36082 -8.88818,6.22851 -16.63622,13.73485 -23.03807,22.25486 C 149.32504,63.0766 129.25085,57.16303 108.683,57.16303 48.75484,57.16303 0,105.91786 0,165.84602 c 0,24.09178 7.72363,46.91646 22.33543,66.00677 10.20653,13.33495 23.49314,24.17088 38.47213,31.5576 -0.20459,2.62302 -0.30713,5.25778 -0.30713,7.89645 0,55.66891 45.28999,100.95889 100.9584,100.95889 20.88474,0 40.93062,-6.32715 57.97211,-18.29782 10.1367,-7.12109 18.77342,-15.91406 25.603,-25.98337 11.39697,4.30661 23.53561,6.53317 35.93503,6.53317 31.20798,0 60.53217,-14.58102 79.60147,-38.45892 12.55371,5.59763 26.17676,8.49802 40.26657,8.49802 54.67865,0 99.16299,-44.48334 99.16299,-99.162 0,-20.7031 -6.35254,-40.53463 -18.11716,-57.16057 z"
   style="fill:url(#Spectrum_1_)" />
	<path
   id="White_00000053532133141924872060000017591559169146523808_"
   class="st1"
   d="m 468.89185,149.84552 c 5.98047,-12.82617 9.11523,-26.91846 9.11523,-41.16211 0,-53.68799 -43.67773,-97.36621 -97.36523,-97.36621 -34.69336,0 -66.38477,18.37695 -83.76758,47.70654 -14.5293,-9.38574 -31.55078,-14.45654 -49.0293,-14.45654 -18.65527,0 -36.56543,5.64062 -51.79346,16.31201 -10.95996,7.68018 -19.96826,17.54248 -26.5376,28.96387 -17.15918,-13.70215 -38.67676,-21.36279 -60.83105,-21.36279 -53.6875,0 -97.36572,43.67822 -97.36572,97.36572 0,40.11523 24.95898,76.14355 61.72754,90.63086 -0.81543,4.88672 -1.22705,9.84766 -1.22705,14.83008 0,49.42871 40.21289,89.6416 89.64111,89.6416 18.54395,0 36.34082,-5.61621 51.4668,-16.24121 11.59131,-8.14258 20.97461,-18.74609 27.56543,-31.05859 12.49951,6.27539 26.29639,9.55176 40.47803,9.55176 30.8457,0 59.61914,-16.02734 76.09082,-41.62402 13.25684,7.66016 28.19238,11.66309 43.77734,11.66309 48.4375,0 87.84473,-39.40723 87.84473,-87.84473 -1e-5,-20.42677 -6.9795,-39.89503 -19.79004,-55.54933 z" />
	<path
   id="Black_00000088122886637718662610000017639178807345155209_"
   class="st2"
   d="m 457.0275,151.35191 c 7.06641,-12.62312 11.10004,-27.17374 11.10004,-42.66867 0,-48.31699 -39.16861,-87.48563 -87.48563,-87.48563 -35.96518,0 -66.85629,21.70505 -80.30258,52.72826 -14.09259,-12.13837 -32.43573,-19.47843 -52.4944,-19.47843 -34.31866,0 -63.61494,21.48344 -75.18752,51.73326 -15.9691,-17.11493 -38.71985,-27.82009 -63.97446,-27.82009 -48.31697,0 -87.48563,39.16865 -87.48563,87.48562 0,39.9599 26.79163,73.66084 63.39148,84.12401 -1.88124,6.79202 -2.89091,13.94629 -2.89091,21.33716 0,44.05078 35.71022,79.76102 79.76102,79.76102 34.0784,0 63.15971,-21.37457 74.58275,-51.44638 12.83107,8.64923 28.28934,13.69888 44.9274,13.69888 32.05685,0 59.7334,-18.74429 72.67453,-45.8692 13.10132,9.97885 29.45404,15.90775 47.19391,15.90775 43.05862,0 77.9646,-34.90591 77.9646,-77.96458 -10e-6,-20.98325 -8.29188,-40.02802 -21.7746,-54.04298 z" />
</g>
<g
   id="Rhythm_Heaven_x2122__00000088820035268166996840000005309173992790592188_"
   transform="scale(1.333334)">
	<path
   id="_x2122__00000084523126737295585340000004809024844952198328_"
   class="st3"
   d="m 444.51712,237.48036 v -6.6266 l -2.78592,0.64317 v -1.42397 l 7.3689,-1.70125 v 1.42398 l -2.68552,0.62 v 6.62662 z m 12.504,-2.88676 v -6.72899 l -1.69162,7.11952 -1.83221,0.423 -1.65146,-6.34772 v 6.72899 l -1.73178,0.39981 v -8.05525 l 2.7056,-0.62463 1.63141,6.01265 0.0201,-0.005 1.59122,-6.75665 2.67047,-0.61653 v 8.05524 z" />
	<path
   d="m 419.8545,148.96743 c 0,0 -0.12501,32.69802 -0.532,38.45003 -0.636,8.98501 -3.05001,9.226 -5.10401,7.87801 -4.099,-2.68901 -11.759,-18.00302 -18.61601,-31.32003 l -10.00501,2.31001 v 82.74705 l 12.23401,-2.825 0.041,-20.99602 c 0.021,-10.77701 2.96299,-11.478 7.24,-7.56301 3.245,2.97001 7.66,9.52201 14.61701,20.66202 l 16.18901,-3.739 v -89.31306 z"
   style="fill:#f06917;fill-opacity:1;fill-rule:nonzero;stroke:none;stroke-width:0.999998"
   id="path36"
   inkscape:label="N_00000029749576977222268470000000250585185731990184_" /><path
   d="m 358.10346,231.85719 c -0.37101,0.002 -3.11901,-0.092 -3.41301,-2.18801 -0.16999,-1.21399 0.41201,-2.35399 1.87901,-3.25099 2.293,-1.40301 10.23001,-3.68401 17.84801,-5.47101 v -10.53401 c 0,0 -13.79301,3.319 -18.03601,2.68801 -1.28901,-0.19101 -2.14701,-0.873 -2.317,-2.06301 -0.17501,-1.217 0.438,-2.314 1.879,-3.251 3.879,-2.528 21.29301,-6.284 21.29301,-6.284 v -24.30802 l -35.85502,8.27801 v 64.79704 l 36.60702,-8.45101 v -13.463 c -9.77101,2.22 -16.37401,3.48199 -19.88501,3.501"
   style="fill:#f06917;fill-opacity:1;fill-rule:nonzero;stroke:none;stroke-width:0.999998"
   id="path40"
   inkscape:label="E_00000141415673586521803210000001037206312179412915_" />
	
	<path
   id="V_00000085929962132880534560000014672246115285576350_"
   class="st3"
   d="m 318.46552,183.51245 c 0,0 -3.88406,25.59045 -7.33292,37.41643 -0.98547,3.37909 -3.36737,8.54948 -6.60724,1.15668 -1.1604,-2.64783 -4.60495,-15.01871 -7.13297,-30.9671 l -11.1857,2.58243 c 0.97894,10.96587 6.34869,40.58379 13.50317,57.83878 l 21.6937,-5.00839 c 7.98505,-21.13211 12.77612,-43.45216 14.40442,-67.02263 z" />
	<path
   id="A_00000133530497519337124040000002342243645749724802_"
   class="st3"
   d="m 279.95975,218.69121 c -5.42905,-10.00229 -11.74246,-7.92953 -14.97745,-6.85915 -4.23853,1.40245 -8.00055,3.5793 -11.93712,19.19398 -4.138,16.41364 -8.64258,50.89223 -8.64258,50.89223 l 11.35867,-2.62238 1.16689,-6.53699 c 0.5636,-3.15735 2.57318,-5.16315 5.63644,-6.06451 0,0 8.80106,-2.2843 11.80542,-2.62589 1.2692,-0.14432 2.76056,0.85751 3.19403,2.84467 l 1.53433,7.03366 15.46912,-3.57132 c 0,10e-6 -7.69512,-38.94877 -14.60775,-51.6843 z m -9.56101,36.68333 c -1.72794,0.37617 -5.65887,1.37186 -7.66754,1.74805 -1.92227,0.37613 -3.04538,-0.70804 -2.80783,-3.45184 0.21597,-2.56671 1.34351,-8.00899 1.77106,-9.84657 0.94559,-4.06409 2.80389,-5.75804 4.98929,-6.06282 2.80133,-0.39067 5.24847,2.05782 6.58765,8.69594 0.12952,0.64174 0.45645,1.97365 0.66949,3.78377 0.25869,2.19793 -0.82074,4.44753 -3.54212,5.13347 z" /><path
   d="m 219.32016,268.39332 c -0.371,0.002 -3.12,-0.092 -3.413,-2.18801 -0.17001,-1.215 0.413,-2.355 1.878,-3.251 2.294,-1.404 10.231,-3.68501 17.84901,-5.471 V 246.9483 c 0,0 -13.79401,3.319 -18.03601,2.688 -1.289,-0.191 -2.147,-0.872 -2.318,-2.063 -0.174,-1.216 0.43899,-2.313 1.879,-3.251 3.88,-2.527 21.29401,-6.28301 21.29401,-6.28301 v -26.20102 l -35.85502,8.27801 v 64.79805 l 36.60603,-8.45201 v -11.57101 c -9.77001,2.22 -16.37402,3.482 -19.88402,3.50201"
   style="fill:#f06917;fill-opacity:1;fill-rule:nonzero;stroke:none;stroke-width:0.999998"
   id="path52"
   inkscape:label="E_00000147221733142039496880000012234858037909101187_" />
	
	<path
   id="H"
   class="st3"
   d="m 174.69772,214.3329 c 0.34447,12.91064 0.20564,22.57495 -1.5657,28.91603 -1.07596,3.85187 -3.4445,6.78352 -6.60719,9.00304 -3.22145,2.26074 -6.45071,3.2511 -9.6134,3.3136 -3.85663,0.0762 -6.64404,-1.42474 -7.0143,-5.4706 -0.56369,-6.15834 -0.81418,-14.76665 -0.62628,-25.55154 l -13.99738,3.23155 v 95.34456 l 19.22675,-4.43887 c -0.34441,-12.16037 0.0701,-21.1806 1.5657,-26.75903 1.01921,-3.80161 3.80836,-7.0191 6.60724,-8.90927 3.271,-2.20892 6.44431,-3.35596 9.6134,-3.40738 3.85162,-0.0625 6.65092,1.72336 7.01431,5.56436 0.53235,5.62689 0.78285,13.74487 0.62628,24.0921 l 14.31047,-3.30383 v -96.13585 z" />
	<path
   id="M_00000100340778104210018230000008393450839633984436_"
   class="st4"
   d="M 418.44324,137.89671 V 54.8778 l -11.34863,2.62004 c -6.0192,19.87579 -9.42584,29.59422 -12.39365,37.78697 -5.05777,13.94022 -10.30365,8.46445 -12.74893,4.57708 -2.84238,-4.55618 -6.70883,-13.4194 -13.41769,-29.65859 l -16.57361,3.82632 v 76.81854 l 13.74295,-3.17281 c -0.10449,-12.43542 0.11368,-19.68224 0.78244,-22.96351 0.60611,-2.94688 2.3826,-3.36487 4.17999,-0.43889 1.48389,2.40349 3.82468,7.60755 8.48535,18.30828 l 9.21683,-2.12788 c 5.07867,-13.64761 7.81656,-20.52758 9.76022,-23.89246 1.5675,-2.73788 4.55618,-4.66067 5.45486,0.3971 0.68973,3.82468 0.62704,11.52232 0.60614,24.22944 z" />
	<path
   id="H_00000145763939918446220190000001430981262183303569_"
   class="st4"
   d="m 328.54196,92.99598 v 23.92133 c -0.79276,7.71667 -14.45114,10.98389 -15.41925,2.87923 -0.32806,-3.60886 -0.5011,-8.59367 -0.5011,-19.23573 l -11.47525,2.64926 v 71.11613 l 15.73459,-3.63261 v -17.02254 c 0.95667,-12.31131 15.22409,-12.99445 16.53641,-4.25935 0.44165,2.75385 0.40088,7.10423 0.40088,16.08537 l 11.47525,-2.64926 V 89.12859 Z" />
	<path
   id="T_00000120521799395022029790000010046024180823586488_"
   class="st4"
   d="m 250.28438,103.12392 v 29.30788 l 10.58781,-2.44438 c 4.21954,-0.97417 5.70108,-0.0785 5.67056,8.39847 v 37.66402 l 12.54419,-2.89606 v -34.85378 c 0.0871,-14.96219 1.8429,-18.05948 9.28387,-19.77736 l 6.64386,-1.53386 V 92.79713 Z" />
	<path
   id="Y_00000016773161810460983000000017670374392130270609_"
   class="st4"
   d="m 244.08986,115.56804 -13.37877,3.08873 c 0,0 -0.30396,13.48273 -0.82365,23.53046 -0.77464,14.25266 -16.01524,18.68713 -16.86034,4.18723 -0.38564,-7.39189 -0.50822,-21.90879 -0.50822,-21.90879 l -16.13408,3.72485 v 6.85657 c 0,26.70082 3.30952,36.11855 19.19719,34.02045 3.76085,-0.49666 6.61536,-1.46114 9.78589,-3.74727 0.20573,-0.13058 0.40797,-0.11063 0.57153,0 0.34039,0.24486 0.70462,0.93193 0.14316,2.67494 -3.02432,9.38878 -28.80312,11.83817 -28.80312,11.83817 l -0.007,21.16451 c 14.80484,-2.17874 30.96648,-5.30281 39.37506,-19.37996 3.17621,-5.2371 7.44357,-15.83105 7.44214,-66.04989 z" />
	<path
   id="H_00000063612071077053300350000005459407038994333871_"
   class="st4"
   d="m 173.02499,126.90357 v 22.73429 c -0.75342,7.33376 -13.73402,10.43884 -14.6541,2.73636 -0.3118,-3.42978 -0.47624,-8.16724 -0.47624,-18.2812 l -10.90581,2.51781 v 67.58716 l 14.9538,-3.45236 v -16.17784 c 0.90919,-11.70038 14.46861,-12.34962 15.71582,-4.04799 0.41972,2.61719 0.381,6.75171 0.381,15.28719 l 10.90581,-2.51779 v -70.0611 z" />
	<path
   id="R_00000054233167956677277050000015837465222506455691_"
   class="st4"
   d="m 139.75012,146.61182 c 0,-16.90704 -12.45674,-37.35638 -64.57763,-24.81187 v 91.95149 l 13.5728,-3.13351 v -16.43016 c 0,-8.02048 5.21984,-4.79918 6.37236,-4.07466 1.94791,1.22453 6.01703,4.55112 15.68311,15.4129 l 23.05798,-5.32335 -17.96809,-18.39703 c 1e-5,-1e-5 23.85949,-9.60722 23.85947,-35.19381 z m -40.18641,30.32821 c -6.84778,1.74609 -10.88653,-1.922 -10.88653,-11.1272 0,-7.34227 0.13837,-14.92247 13.58092,-14.92247 9.57012,0 13.5628,4.84607 13.57201,10.31238 0.009,5.10009 -5.82471,13.07482 -16.2664,15.73729 z" />
</g>
</svg>
