<?xml version="1.0" encoding="UTF-8" standalone="no"?>
<!-- Created with Inkscape (http://www.inkscape.org/) -->

<svg
   version="1.1"
   id="svg2"
   width="666.66669"
   height="244.61067"
   viewBox="0 0 666.66669 244.61067"
   sodipodi:docname="Rhythm Tengoku (リズム天国) Logo (Color Swap).ai"
   xmlns:inkscape="http://www.inkscape.org/namespaces/inkscape"
   xmlns:sodipodi="http://sodipodi.sourceforge.net/DTD/sodipodi-0.dtd"
   xmlns="http://www.w3.org/2000/svg"
   xmlns:svg="http://www.w3.org/2000/svg">
  <defs
     id="defs6">
    <clipPath
       clipPathUnits="userSpaceOnUse"
       id="clipPath16">
      <path
         d="M 0,183.458 H 500 V 0 H 0 Z"
         id="path14" />
    </clipPath>
  </defs>
  <sodipodi:namedview
     id="namedview4"
     pagecolor="#ffffff"
     bordercolor="#000000"
     borderopacity="0.25"
     inkscape:showpageshadow="2"
     inkscape:pageopacity="0.0"
     inkscape:pagecheckerboard="0"
     inkscape:deskcolor="#d1d1d1" />
  <g
     id="g8"
     inkscape:groupmode="layer"
     inkscape:label="Rhythm Tengoku (リズム天国) Logo (Color Swap)"
     transform="matrix(1.3333333,0,0,-1.3333333,0,244.61067)">
    <g
       id="g10">
      <g
         id="g12"
         clip-path="url(#clipPath16)">
        <g
           id="g18"
           transform="translate(421.9434,183.4524)">
          <path
             d="m 0,0 h -0.001 -0.203 c -25.045,0 -47.916,-11.612 -62.524,-31.074 -7.648,2.446 -15.681,3.722 -23.764,3.743 h -0.21 c -7.673,0 -15.327,-1.138 -22.646,-3.339 -14.604,19.135 -37.312,30.607 -62.013,30.67 h -0.203 c -24.999,0 -47.857,-11.59 -62.477,-31.01 -0.29,0.092 -0.581,0.183 -0.872,0.272 -15.33,4.672 -31.366,4.549 -46.349,-0.195 -14.587,19.308 -37.361,30.876 -62.233,30.939 h -0.181 c -43.068,0 -78.162,-34.892 -78.267,-77.862 -0.112,-43.037 34.905,-78.145 78.06,-78.264 8.075,0.019 16.104,1.213 23.767,3.621 9.882,-12.982 23.718,-22.734 39.476,-27.541 17.817,-5.429 37.04,-4.32 54.13,3.125 12.4,5.403 23.126,13.88 31.174,24.484 7.597,-2.41 15.569,-3.668 23.582,-3.689 h 0.214 c 7.672,0 15.322,1.137 22.64,3.337 14.611,-19.133 37.323,-30.606 62.016,-30.669 h 0.203 c 25.046,0 47.921,11.612 62.533,31.071 7.64,-2.444 15.666,-3.72 23.751,-3.746 h 0.181 c 43.056,0 78.152,34.893 78.272,77.871 C 78.161,-35.218 43.145,-0.112 0,0"
             style="fill:#00b3f0;fill-opacity:1;fill-rule:nonzero;stroke:none"
             id="path20" />
        </g>
        <g
           id="g22"
           transform="translate(421.9189,174.0744)">
          <path
             d="M 0,0 H -0.001 -0.18 c -24.398,0 -46.454,-12.519 -58.898,-33.066 -8.599,3.74 -17.966,5.71 -27.414,5.735 h -0.185 c -9.014,0 -17.995,-1.783 -26.286,-5.19 -12.483,20.135 -34.369,32.46 -58.398,32.521 h -0.179 c -24.35,0 -46.39,-12.488 -58.854,-32.985 -2.353,1.015 -4.769,1.902 -7.229,2.654 -15.712,4.79 -32.272,3.855 -47.229,-2.565 -12.441,20.374 -34.411,32.841 -58.64,32.902 h -0.159 c -37.908,0 -68.797,-30.7 -68.89,-68.508 -0.099,-37.866 30.723,-68.758 68.708,-68.862 h 0.183 c 9.33,0 18.605,1.907 27.147,5.554 8.773,-14.391 22.298,-24.903 38.621,-29.88 6.747,-2.057 13.58,-3.043 20.31,-3.043 23.673,0 46.04,12.213 58.669,33.016 8.543,-3.683 17.838,-5.623 27.199,-5.647 h 0.189 c 9.011,0 17.988,1.78 26.278,5.186 12.491,-20.134 34.38,-32.457 58.402,-32.518 h 0.179 c 24.402,0 46.461,12.516 58.908,33.061 8.589,-3.735 17.949,-5.706 27.396,-5.736 h 0.159 c 37.899,0 68.79,30.703 68.896,68.517 C 68.795,-30.987 37.975,-0.099 0,0"
             style="fill:#ffffff;fill-opacity:1;fill-rule:nonzero;stroke:none"
             id="path24" />
        </g>
        <g
           id="g26"
           transform="translate(421.9034,168.1068)">
          <path
             d="m 0,0 c -24.797,0.062 -46.279,-14.188 -56.572,-34.948 -8.887,4.831 -19.078,7.588 -29.921,7.617 -10.429,0.028 -20.274,-2.481 -28.946,-6.939 -10.378,20.291 -31.509,34.208 -55.921,34.27 -24.757,0.062 -46.205,-14.143 -56.526,-34.841 -3.588,1.927 -7.414,3.532 -11.461,4.769 -16.613,5.063 -33.741,2.905 -47.979,-4.661 -10.293,20.539 -31.559,34.676 -56.164,34.739 -34.745,0.079 -62.982,-27.914 -63.067,-62.557 -0.091,-34.632 28.005,-62.782 62.755,-62.878 10.775,-0.028 20.926,2.655 29.808,7.391 7.442,-14.85 20.728,-26.75 37.868,-31.976 29.83,-9.092 61.327,5.096 74.743,32.094 8.842,-4.763 18.96,-7.481 29.712,-7.509 10.429,-0.028 20.274,2.48 28.94,6.933 10.384,-20.28 31.514,-34.202 55.926,-34.265 24.803,-0.062 46.285,14.183 56.583,34.943 8.888,-4.831 19.067,-7.583 29.899,-7.617 34.745,-0.079 62.977,27.93 63.073,62.562 C 62.835,-28.235 34.745,-0.09 0,0"
             style="fill:#130c0e;fill-opacity:1;fill-rule:nonzero;stroke:none"
             id="path28" />
        </g>
        <g
           id="g30"
           transform="translate(448.5901,127.8178)">
          <path
             d="m 0,0 h -37.66 c -2.023,0.006 -3.623,-1.28 -4.272,-3.404 l -12.006,-39.271 h 37.66 c 1.87,-0.01 3.576,1.13 4.272,3.404 z M 17.483,7.511 -0.151,-50.167 h -71.257 l 17.634,57.678 z m -38.497,-39.157 h 4.276 l 1.687,5.519 h -4.276 z m -15.068,24.251 1.383,4.525 H -7.94 l -1.384,-4.525 h -4.671 c -1.996,0 -3.445,-1.045 -4.166,-3.404 l -2.273,-7.433 h 7.797 l -1.485,-4.857 h -7.797 l -2.789,-9.125 c -0.44,-1.437 0.451,-2.47 2.881,-2.47 h 4.16 l -1.374,-4.495 H -45.8 l 1.374,4.495 h 4.724 c 1.93,0 3.405,1.086 4.117,3.414 l 2.501,8.181 h -7.797 l 1.485,4.857 h 7.797 l 2.561,8.377 c 0.297,0.972 0.112,2.46 -2.832,2.46 z"
             style="fill:#faa61a;fill-opacity:1;fill-rule:nonzero;stroke:none"
             id="path32" />
        </g>
        <g
           id="g34"
           transform="translate(447.9442,138.9967)">
          <path
             d="m 0,0 c -1.7,1.385 -3.513,2.607 -5.414,3.702 -1.02,0.592 -1.927,1.121 -1.927,1.927 0,0.617 0.63,1.246 1.94,2.329 2.543,2.103 2.883,2.392 3.765,3.274 l 1.347,-0.944 C -2.065,8.726 -2.342,8.512 -4.797,6.636 -5.414,6.17 -5.666,5.969 -5.666,5.704 -5.666,5.39 -5.099,5.075 -4.734,4.873 -2.883,3.866 0.102,2.028 1.247,1.045 Z"
             style="fill:#faa61a;fill-opacity:1;fill-rule:nonzero;stroke:none"
             id="path36" />
        </g>
        <g
           id="g38"
           transform="translate(420.1472,145.2874)">
          <path
             d="M 0,0 C -0.448,0.806 -0.704,1.189 -1.202,1.816 L -0.307,2.34 C 0.204,1.752 0.626,1.087 0.894,0.537 Z m -1.573,-0.767 c -0.576,1.112 -0.985,1.624 -1.189,1.892 l 0.869,0.525 c 0.666,-0.806 1.1,-1.65 1.215,-1.88 z m 0.985,3.67 C -2.2,2.622 -3.338,2.084 -4.82,1.176 l -0.922,0.908 c 0.409,0.281 0.499,0.333 1.331,0.742 C -7.045,2.788 -8.146,2.762 -8.964,2.711 v 1.445 c 0.384,-0.013 1.97,-0.013 2.609,-0.013 0.908,0 4.948,0.013 5.767,0.013 z m -6.343,-3.542 c -1.073,-1.036 -1.125,-1.969 -1.125,-2.238 0,-1.662 2.455,-1.688 4.374,-1.688 1.252,0 2.506,0.052 3.746,0.231 l 0.051,-1.432 c -0.448,-0.064 -1.342,-0.179 -3.325,-0.179 -2.518,0 -3.605,0.115 -4.692,0.639 -0.883,0.422 -1.561,1.393 -1.561,2.404 0,1.176 0.563,1.982 1.496,3.03 z"
             style="fill:#faa61a;fill-opacity:1;fill-rule:nonzero;stroke:none"
             id="path40" />
        </g>
        <g
           id="g42"
           transform="translate(374.3398,96.6927)">
          <path
             d="M 0,0 3.081,10.076 H -68.608 L -71.688,0 h 26.108 l -2.765,-9.044 h -26.108 l -3.089,-10.101 h 26.109 l -1.142,-3.735 c -3.657,-11.961 -11.578,-14.83 -22.277,-14.837 h -8.368 l -3.095,-10.123 h 18.223 c 13.994,-0.007 19.894,3.15 28.669,13.708 2.445,-1.958 8.482,-9.255 10.474,-13.708 h 18.847 c -3.418,7.266 -19.674,19.796 -24.295,22.262 0.927,2.555 2.003,6.433 2.003,6.433 h 26.541 l 3.088,10.101 H -29.306 L -26.541,0 Z"
             style="fill:#f15a22;fill-opacity:1;fill-rule:nonzero;stroke:none"
             id="path44" />
        </g>
        <g
           id="g46"
           transform="translate(355.8982,120.963)">
          <path
             d="m 0,0 c -0.253,-0.759 -1.415,-4.058 -1.631,-4.741 0.278,0.202 0.771,0.557 1.631,0.557 2.035,0 2.086,-1.96 2.086,-2.87 v -0.544 c 0,-0.366 0,-1.517 1.074,-1.517 1.012,0 1.669,1.062 1.934,3.843 l 1.328,-0.392 c -0.341,-2.983 -1.1,-4.842 -3.425,-4.842 -1.037,0 -1.846,0.633 -2.125,1.379 -0.176,0.467 -0.214,1.226 -0.214,1.504 v 0.43 c 0,0.809 0,1.63 -0.948,1.63 -1.429,0 -2.15,-1.542 -2.415,-2.25 -0.026,-0.063 -0.658,-2.478 -0.747,-2.819 l -1.453,0.417 c 0.986,2.984 2.756,8.711 3.313,10.506 z"
             style="fill:#f15a22;fill-opacity:1;fill-rule:nonzero;stroke:none"
             id="path48" />
        </g>
        <g
           id="g50"
           transform="translate(332.4863,119.432)">
          <path
             d="m 0,0 c -0.26,0.025 -0.544,0.049 -1.076,0.049 -1.112,0 -1.865,-0.297 -2.446,-0.58 -1.755,-0.878 -3.324,-2.571 -3.324,-4.239 0,-1.879 2.162,-2.546 5.721,-2.435 l -0.197,-1.47 c -2.658,0.012 -3.98,0.321 -5.105,0.902 -1.112,0.568 -1.84,1.742 -1.84,2.892 0,1.272 0.654,3.2 3.41,4.881 -1.928,-0.111 -3.843,-0.26 -5.759,-0.42 l -0.049,1.409 c 0.852,0 1.78,0.049 2.632,0.086 1.063,0.049 6.735,0.272 8.008,0.321 z"
             style="fill:#f15a22;fill-opacity:1;fill-rule:nonzero;stroke:none"
             id="path52" />
        </g>
        <g
           id="g54"
           transform="translate(283.2005,87.7994)">
          <path
             d="m 0,0 h -2.849 c -1.865,-0.005 -3.587,1.076 -4.297,3.385 l -3.258,10.599 H -29.291 L -25.015,0 H -48.31 l 25.787,38.231 c 1.127,1.67 2.482,2.519 3.987,2.53 h 4.74 l 2.145,7.014 H -34.915 L -65.534,2.381 C -66.72,0.623 -68.164,0 -69.498,0 h -2.885 l -3.1,-10.14 H 3.1 Z"
             style="fill:#faa61a;fill-opacity:1;fill-rule:nonzero;stroke:none"
             id="path56" />
        </g>
        <g
           id="g58"
           transform="translate(127.9958,89.2954)">
          <path
             d="M 0,0 H 42.078 C 33.206,-23.47 18.457,-30.206 -5.099,-30.206 H -9.235 L -12.364,-40.44 H 0.093 c 16.123,0 24.566,2.154 36.536,10.203 1.911,-1.776 4.061,-5.354 4.418,-10.203 H 60.01 c -1.525,3.743 -9.976,13.181 -15.745,15.812 9.798,8.446 12.745,14.744 15.895,21.71 1.128,2.524 2.791,3.499 4.336,3.499 h 2.87 l 2.992,9.785 H 3.169 Z m 60.737,13.111 c 2.713,0.013 4.83,2.186 4.85,4.837 -0.027,2.665 -2.185,4.83 -4.836,4.85 -2.699,0.035 -4.83,-2.186 -4.85,-4.837 0.027,-2.665 2.185,-4.829 4.836,-4.85 m 16.73,4.837 c 0.027,-2.665 -2.137,-4.824 -4.85,-4.837 -2.651,0.021 -4.824,2.137 -4.837,4.85 0.02,2.651 2.137,4.824 4.85,4.837 2.665,0.027 4.872,-2.151 4.837,-4.85"
             style="fill:#f15a22;fill-opacity:1;fill-rule:nonzero;stroke:none"
             id="path60" />
        </g>
        <g
           id="g62"
           transform="translate(94.6286,135.6797)">
          <path
             d="m 0,0 -2.307,-7.545 h 1.649 c 2.483,0 3.361,-1.083 2.927,-2.501 l -8.193,-26.8 c -2.086,-6.823 -6.323,-11.014 -12.64,-11.022 h -32.87 l -3.103,-10.151 h 45.965 c 9.296,-0.03 17.094,6.064 20.183,16.169 l 9.441,30.88 c 0.653,2.134 1.842,3.425 4.173,3.425 h 2.021 L 29.553,0 Z m -27.467,-36.541 h -25.968 l 2.303,7.53 h 2.137 c 2.299,0 3.541,1.347 4.184,3.451 l 4.742,15.511 c 0.433,1.417 -0.437,2.504 -2.924,2.504 h -1.576 L -42.263,0 h 25.968 l -2.307,-7.545 h -2.133 c -2.305,0 -3.547,-1.352 -4.184,-3.436 l -4.742,-15.511 c -0.436,-1.427 0.445,-2.519 2.924,-2.519 h 1.572 z"
             style="fill:#faa61a;fill-opacity:1;fill-rule:nonzero;stroke:none"
             id="path64" />
        </g>
        <g
           id="g66"
           transform="translate(494.0251,28.3049)">
          <path
             d="M 0,0 V 8.17 L -1.904,0 H -3.966 L -5.825,8.17 V 0 h -1.949 v 9.78 h 3.045 l 1.836,-7.757 h 0.023 l 1.791,7.757 h 3.006 l 0,-9.78 z m -14.074,0 v 8.045 h -3.135 v 1.729 h 8.294 V 8.045 h -3.023 V 0 Z"
             style="fill:#130c0e;fill-opacity:1;fill-rule:nonzero;stroke:none"
             id="path68" />
        </g>
      </g>
    </g>
  </g>
</svg>
