<?xml version="1.0" encoding="UTF-8" standalone="no"?>
<!-- Created with Inkscape (http://www.inkscape.org/) -->

<svg
   version="1.1"
   id="svg2"
   width="666.66669"
   height="564.328"
   viewBox="0 0 666.66669 564.328"
   sodipodi:docname="Rhythm Paradise Megashit Logo.ai"
   xmlns:inkscape="http://www.inkscape.org/namespaces/inkscape"
   xmlns:sodipodi="http://sodipodi.sourceforge.net/DTD/sodipodi-0.dtd"
   xmlns="http://www.w3.org/2000/svg"
   xmlns:svg="http://www.w3.org/2000/svg">
  <defs
     id="defs6">
    <clipPath
       clipPathUnits="userSpaceOnUse"
       id="clipPath16">
      <path
         d="M 0,423.246 H 500 V 0 H 0 Z"
         id="path14" />
    </clipPath>
    <linearGradient
       x1="0"
       y1="0"
       x2="1"
       y2="0"
       gradientUnits="userSpaceOnUse"
       gradientTransform="matrix(55.392071,0,-12.788267,-58.344475,434.28775,173.55539)"
       spreadMethod="pad"
       id="linearGradient52">
      <stop
         style="stop-opacity:1;stop-color:#ff8c3c"
         offset="0"
         id="stop46" />
      <stop
         style="stop-opacity:1;stop-color:#ff5a00"
         offset="0.75"
         id="stop48" />
      <stop
         style="stop-opacity:1;stop-color:#ff5a00"
         offset="1"
         id="stop50" />
    </linearGradient>
    <clipPath
       clipPathUnits="userSpaceOnUse"
       id="clipPath62">
      <path
         d="M 0,423.246 H 500 V 0 H 0 Z"
         id="path60" />
    </clipPath>
    <clipPath
       clipPathUnits="userSpaceOnUse"
       id="clipPath70">
      <path
         d="M 49.4628,224.492 H 571.448 V -128.317 H 49.4628 Z"
         id="path68" />
    </clipPath>
    <clipPath
       clipPathUnits="userSpaceOnUse"
       id="clipPath74">
      <path
         d="m 478.216,187.782 v -50.363 l -22.497,-5.194 v 50.364 l -15.05,-3.475 v 23.557 l 52.906,12.214 v -23.557 z"
         id="path72" />
    </clipPath>
    <linearGradient
       x1="0"
       y1="0"
       x2="1"
       y2="0"
       gradientUnits="userSpaceOnUse"
       gradientTransform="matrix(22.393217,5.1698813,0,-22.393217,411.17447,150.96474)"
       spreadMethod="pad"
       id="linearGradient108">
      <stop
         style="stop-opacity:1;stop-color:#aa37be"
         offset="0"
         id="stop104" />
      <stop
         style="stop-opacity:1;stop-color:#5f14a5"
         offset="1"
         id="stop106" />
    </linearGradient>
    <clipPath
       clipPathUnits="userSpaceOnUse"
       id="clipPath118">
      <path
         d="M 0,423.246 H 500 V 0 H 0 Z"
         id="path116" />
    </clipPath>
    <clipPath
       clipPathUnits="userSpaceOnUse"
       id="clipPath126">
      <path
         d="M 49.4628,224.492 H 571.448 V -128.317 H 49.4628 Z"
         id="path124" />
    </clipPath>
    <clipPath
       clipPathUnits="userSpaceOnUse"
       id="clipPath130">
      <path
         d="m 433.568,193.095 v -73.921 l -22.394,-5.169 v 73.92 z"
         id="path128" />
    </clipPath>
    <linearGradient
       x1="0"
       y1="0"
       x2="1"
       y2="0"
       gradientUnits="userSpaceOnUse"
       gradientTransform="matrix(58.74987,13.563477,0,-58.74987,345.60034,141.92036)"
       spreadMethod="pad"
       id="linearGradient166">
      <stop
         style="stop-opacity:1;stop-color:#ffff00"
         offset="0"
         id="stop160" />
      <stop
         style="stop-opacity:1;stop-color:#ffbe00"
         offset="0.75"
         id="stop162" />
      <stop
         style="stop-opacity:1;stop-color:#ffbe00"
         offset="1"
         id="stop164" />
    </linearGradient>
    <clipPath
       clipPathUnits="userSpaceOnUse"
       id="clipPath176">
      <path
         d="M 0,423.246 H 500 V 0 H 0 Z"
         id="path174" />
    </clipPath>
    <clipPath
       clipPathUnits="userSpaceOnUse"
       id="clipPath184">
      <path
         d="M -34.4569,308.059 H 571.448 V -128.317 H -34.4569 Z"
         id="path182" />
    </clipPath>
    <clipPath
       clipPathUnits="userSpaceOnUse"
       id="clipPath188">
      <path
         d="m 381.854,141.057 -13.86,-3.2 V 110.13 L 345.6,104.96 v 73.92 l 22.394,5.17 v -23.827 l 13.86,3.199 v 23.828 l 22.496,5.194 v -73.92 l -22.496,-5.194 z"
         id="path186" />
    </clipPath>
    <linearGradient
       x1="0"
       y1="0"
       x2="1"
       y2="0"
       gradientUnits="userSpaceOnUse"
       gradientTransform="matrix(37.442699,8.6443281,0,-37.442699,300.99454,122.17241)"
       spreadMethod="pad"
       id="linearGradient228">
      <stop
         style="stop-opacity:1;stop-color:#c8f000"
         offset="0"
         id="stop222" />
      <stop
         style="stop-opacity:1;stop-color:#14b400"
         offset="0.8"
         id="stop224" />
      <stop
         style="stop-opacity:1;stop-color:#14b400"
         offset="1"
         id="stop226" />
    </linearGradient>
    <clipPath
       clipPathUnits="userSpaceOnUse"
       id="clipPath238">
      <path
         d="M 0,423.246 H 500 V 0 H 0 Z"
         id="path236" />
    </clipPath>
    <clipPath
       clipPathUnits="userSpaceOnUse"
       id="clipPath246">
      <path
         d="M -34.4569,308.059 H 488.22 V -53.4411 H -34.4569 Z"
         id="path244" />
    </clipPath>
    <clipPath
       clipPathUnits="userSpaceOnUse"
       id="clipPath250">
      <path
         d="m 300.995,85.158 v 21.499 c 2.172,-0.329 4.12,-0.294 5.844,0.104 1.689,0.39 3.163,1.308 4.421,2.754 1.259,1.446 1.888,2.963 1.888,4.551 0,1.372 -0.793,3.319 -2.379,5.841 -3.31,5.301 -4.965,10.75 -4.965,16.346 0,7.112 2.172,13.606 6.516,19.483 4.689,6.318 10.482,10.272 17.377,11.864 2.965,0.685 5.879,0.762 8.74,0.231 v -20.958 c -1.379,0.115 -2.551,0.061 -3.516,-0.162 -1.793,-0.414 -3.233,-1.333 -4.319,-2.757 -1.086,-1.424 -1.629,-3.11 -1.629,-5.06 0,-1.119 0.173,-2.108 0.517,-2.967 0.345,-0.859 1.104,-2.147 2.276,-3.862 3.137,-4.655 4.706,-9.563 4.706,-14.726 0,-7.582 -2.741,-14.586 -8.223,-21.015 -4.689,-5.523 -10.326,-9.045 -16.911,-10.565 -3.31,-0.764 -6.758,-0.964 -10.343,-0.601"
         id="path248" />
    </clipPath>
    <linearGradient
       x1="0"
       y1="0"
       x2="1"
       y2="0"
       gradientUnits="userSpaceOnUse"
       gradientTransform="matrix(58.395386,13.481637,0,-58.395386,235.91345,114.74023)"
       spreadMethod="pad"
       id="linearGradient286">
      <stop
         style="stop-opacity:1;stop-color:#6ee6ff"
         offset="0"
         id="stop280" />
      <stop
         style="stop-opacity:1;stop-color:#00a0ff"
         offset="0.85"
         id="stop282" />
      <stop
         style="stop-opacity:1;stop-color:#00a0ff"
         offset="1"
         id="stop284" />
    </linearGradient>
    <clipPath
       clipPathUnits="userSpaceOnUse"
       id="clipPath296">
      <path
         d="M 0,423.246 H 500 V 0 H 0 Z"
         id="path294" />
    </clipPath>
    <clipPath
       clipPathUnits="userSpaceOnUse"
       id="clipPath304">
      <path
         d="M -34.4569,308.059 H 488.22 V -53.4411 H -34.4569 Z"
         id="path302" />
    </clipPath>
    <clipPath
       clipPathUnits="userSpaceOnUse"
       id="clipPath308">
      <path
         d="m 272.528,119.387 -7.417,2.372 -7.417,-5.797 1.391,9.023 -5.975,4.799 8.277,3.205 3.724,8.762 3.725,-7.043 8.276,0.617 -5.974,-7.557 z m 15.5,33.876 c -5.284,5.858 -14.053,8.124 -22.917,6.078 -8.864,-2.047 -17.62,-8.368 -22.897,-16.655 -4.625,-7.262 -6.301,-13.855 -6.301,-25.067 V 76.881 l 22.339,5.157 v 16.223 l 13.719,3.147 V 85.205 l 22.338,5.157 V 131.1 c 0,11.213 -1.664,17.043 -6.281,22.163"
         id="path306" />
    </clipPath>
    <linearGradient
       x1="0"
       y1="0"
       x2="1"
       y2="0"
       gradientUnits="userSpaceOnUse"
       gradientTransform="matrix(57.654861,13.310674,0.1275166,-60.604088,171.57196,91.736)"
       spreadMethod="pad"
       id="linearGradient344">
      <stop
         style="stop-opacity:1;stop-color:#ff8232"
         offset="0"
         id="stop338" />
      <stop
         style="stop-opacity:1;stop-color:#c80000"
         offset="0.75"
         id="stop340" />
      <stop
         style="stop-opacity:1;stop-color:#c80000"
         offset="1"
         id="stop342" />
    </linearGradient>
    <clipPath
       clipPathUnits="userSpaceOnUse"
       id="clipPath354">
      <path
         d="M 0,423.246 H 500 V 0 H 0 Z"
         id="path352" />
    </clipPath>
    <clipPath
       clipPathUnits="userSpaceOnUse"
       id="clipPath362">
      <path
         d="M -34.4569,308.059 H 488.22 V -53.4411 H -34.4569 Z"
         id="path360" />
    </clipPath>
    <clipPath
       clipPathUnits="userSpaceOnUse"
       id="clipPath366">
      <path
         d="m 229.149,68.195 c -7.473,-3.139 -11.909,-4.7 -17.919,-6.088 -12.555,-2.898 -20.701,-1.709 -28.148,3.973 -7.417,5.66 -11.51,14.723 -11.51,25.608 0,10.419 3.77,21.244 10.528,29.896 7.37,9.435 16.743,15.233 29.484,18.174 5.591,1.291 10.283,1.932 17.565,2.152 v -23.162 c -6.846,-0.139 -11.118,-0.661 -16.365,-1.873 -12.219,-2.821 -19.147,-10.1 -19.147,-20.135 0,-8.434 5.183,-13.335 13.174,-12.596 v 22.044 l 22.338,5.157 z"
         id="path364" />
    </clipPath>
    <linearGradient
       x1="0"
       y1="0"
       x2="1"
       y2="0"
       gradientUnits="userSpaceOnUse"
       gradientTransform="matrix(47.406296,10.944606,0.1048496,-49.83128,117.12489,86.750839)"
       spreadMethod="pad"
       id="linearGradient402">
      <stop
         style="stop-opacity:1;stop-color:#c8f000"
         offset="0"
         id="stop396" />
      <stop
         style="stop-opacity:1;stop-color:#14b400"
         offset="0.8"
         id="stop398" />
      <stop
         style="stop-opacity:1;stop-color:#14b400"
         offset="1"
         id="stop400" />
    </linearGradient>
    <clipPath
       clipPathUnits="userSpaceOnUse"
       id="clipPath412">
      <path
         d="M 0,423.246 H 500 V 0 H 0 Z"
         id="path410" />
    </clipPath>
    <clipPath
       clipPathUnits="userSpaceOnUse"
       id="clipPath420">
      <path
         d="M -34.4569,308.059 H 488.22 V -53.4411 H -34.4569 Z"
         id="path418" />
    </clipPath>
    <clipPath
       clipPathUnits="userSpaceOnUse"
       id="clipPath424">
      <path
         d="m 140.97,55.28 c -8.755,-2.021 -13.101,-1.732 -17.265,0.881 -4.348,2.728 -6.546,7.689 -6.546,14.454 0,8.182 2.836,13.502 10.31,19.204 -7.064,2.044 -9.601,5.343 -9.601,12.516 0,6.983 2.85,13.706 7.773,18.741 3.884,3.972 9.683,6.876 17.593,8.678 l 21.219,4.899 v -20.837 l -14.892,-3.438 c -5.891,-1.36 -7.691,-2.739 -7.691,-5.958 0,-3.218 1.8,-3.766 7.691,-2.406 l 14.892,3.438 V 89.831 l -14.892,-3.438 c -5.891,-1.36 -6.491,-4.124 -6.491,-5.679 0,-1.663 0.6,-4.076 6.491,-2.716 l 14.892,3.438 V 60.701 Z"
         id="path422" />
    </clipPath>
    <linearGradient
       x1="0"
       y1="0"
       x2="1"
       y2="0"
       gradientUnits="userSpaceOnUse"
       gradientTransform="matrix(100.38598,23.175989,6e-5,-100.38596,12.455204,56.554443)"
       spreadMethod="pad"
       id="linearGradient460">
      <stop
         style="stop-opacity:1;stop-color:#ffff00"
         offset="0"
         id="stop454" />
      <stop
         style="stop-opacity:1;stop-color:#ffbe00"
         offset="0.75"
         id="stop456" />
      <stop
         style="stop-opacity:1;stop-color:#ffbe00"
         offset="1"
         id="stop458" />
    </linearGradient>
    <clipPath
       clipPathUnits="userSpaceOnUse"
       id="clipPath470">
      <path
         d="M 0,423.246 H 500 V 0 H 0 Z"
         id="path468" />
    </clipPath>
    <clipPath
       clipPathUnits="userSpaceOnUse"
       id="clipPath478">
      <path
         d="M -34.4569,308.059 H 488.22 V -53.4411 H -34.4569 Z"
         id="path476" />
    </clipPath>
    <clipPath
       clipPathUnits="userSpaceOnUse"
       id="clipPath482">
      <path
         d="m 102.921,105.689 c -5.49,5.044 -12.898,6.64 -21.574,4.637 -5.826,-1.345 -10.514,-3.781 -15.697,-8.283 -5.182,2.109 -9.843,2.386 -15.696,1.035 C 41.304,101.081 33.869,96.058 28.379,88.479 22.605,80.508 20.661,73.403 20.661,60.016 V 20.573 l 22.474,5.189 v 43.715 c 0,6.587 2.123,9.343 5.591,10.144 3.469,0.801 5.687,-0.953 5.687,-7.541 V 28.366 l 22.475,5.188 v 43.715 c 0,6.588 2.218,9.366 5.686,10.167 3.469,0.8 5.592,-0.976 5.592,-7.563 V 36.158 l 22.474,5.189 V 80.79 c 0,13.387 -1.944,19.593 -7.719,24.899"
         id="path480" />
    </clipPath>
    <radialGradient
       fx="0"
       fy="0"
       cx="0"
       cy="0"
       r="1"
       gradientUnits="userSpaceOnUse"
       gradientTransform="matrix(11.082442,0,0,-11.082442,408.39398,113.96896)"
       spreadMethod="pad"
       id="radialGradient518">
      <stop
         style="stop-opacity:1;stop-color:#faffc8"
         offset="0"
         id="stop512" />
      <stop
         style="stop-opacity:1;stop-color:#c8ff00"
         offset="0.45"
         id="stop514" />
      <stop
         style="stop-opacity:1;stop-color:#00a000"
         offset="1"
         id="stop516" />
    </radialGradient>
    <clipPath
       clipPathUnits="userSpaceOnUse"
       id="clipPath528">
      <path
         d="M 0,423.246 H 500 V 0 H 0 Z"
         id="path526" />
    </clipPath>
    <radialGradient
       fx="0"
       fy="0"
       cx="0"
       cy="0"
       r="1"
       gradientUnits="userSpaceOnUse"
       gradientTransform="matrix(9.6503239,0,0,-9.6503239,198.7379,143.91333)"
       spreadMethod="pad"
       id="radialGradient552">
      <stop
         style="stop-opacity:1;stop-color:#ffffa0"
         offset="0"
         id="stop546" />
      <stop
         style="stop-opacity:1;stop-color:#ffff00"
         offset="0.55"
         id="stop548" />
      <stop
         style="stop-opacity:1;stop-color:#ffc800"
         offset="1"
         id="stop550" />
    </radialGradient>
    <clipPath
       clipPathUnits="userSpaceOnUse"
       id="clipPath562">
      <path
         d="M 0,423.246 H 500 V 0 H 0 Z"
         id="path560" />
    </clipPath>
    <radialGradient
       fx="0"
       fy="0"
       cx="0"
       cy="0"
       r="1"
       gradientUnits="userSpaceOnUse"
       gradientTransform="matrix(11.19872,0,0,-11.19872,20.251541,20.176935)"
       spreadMethod="pad"
       id="radialGradient586">
      <stop
         style="stop-opacity:1;stop-color:#d9ffff"
         offset="0"
         id="stop580" />
      <stop
         style="stop-opacity:1;stop-color:#96d2ff"
         offset="0.42"
         id="stop582" />
      <stop
         style="stop-opacity:1;stop-color:#00aaff"
         offset="1"
         id="stop584" />
    </radialGradient>
    <clipPath
       clipPathUnits="userSpaceOnUse"
       id="clipPath596">
      <path
         d="M 0,423.246 H 500 V 0 H 0 Z"
         id="path594" />
    </clipPath>
  </defs>
  <sodipodi:namedview
     id="namedview4"
     pagecolor="#ffffff"
     bordercolor="#000000"
     borderopacity="0.25"
     inkscape:showpageshadow="2"
     inkscape:pageopacity="0.0"
     inkscape:pagecheckerboard="0"
     inkscape:deskcolor="#d1d1d1" />
  <g
     id="g8"
     inkscape:groupmode="layer"
     inkscape:label="Rhythm Paradise Megashit Logo"
     transform="matrix(1.3333333,0,0,-1.3333333,0,564.328)">
    <g
       id="g10">
      <g
         id="g12"
         clip-path="url(#clipPath16)">
        <g
           id="g18"
           transform="translate(483.4341,261.3358)">
          <path
             d="m 0,0 c 0,39.733 -24.554,73.812 -59.225,87.752 -11.706,42.717 -50.379,74.158 -96.159,74.158 -37.233,0 -69.765,-20.8 -86.913,-51.547 -10.605,3.668 -21.982,5.665 -33.818,5.665 -18.736,0 -36.327,-4.994 -51.516,-13.719 -13.621,7.168 -29.119,11.233 -45.551,11.233 -54.117,0 -98.144,-44.027 -98.144,-98.143 0,-11.424 1.969,-22.395 5.574,-32.601 -11.072,-14.914 -17.644,-33.458 -17.644,-53.532 0,-42.531 29.495,-78.193 68.804,-87.015 17.831,-20.886 45.596,-34.338 76.73,-34.338 21.061,0 40.58,6.157 56.526,16.605 11.981,-5.061 25.269,-7.88 39.248,-7.88 23.476,0 44.998,7.953 61.658,21.121 7.05,-1.491 111.418,30.732 123.607,75.496 C -23.426,-72.222 0,-38.809 0,0"
             style="fill:#0096e6;fill-opacity:1;fill-rule:nonzero;stroke:none"
             id="path20" />
        </g>
        <g
           id="g22"
           transform="translate(472.1058,261.3358)">
          <path
             d="m 0,0 c 0,36.993 -24.174,68.407 -57.48,79.169 -8.419,40.734 -44.037,71.413 -86.576,71.413 -36.483,0 -67.877,-22.567 -81.387,-54.689 -11.945,5.644 -25.281,8.807 -39.344,8.807 -18.957,0 -36.598,-5.742 -51.282,-15.573 -13.301,8.289 -28.992,13.087 -45.785,13.087 -47.87,0 -86.815,-38.945 -86.815,-86.815 0,-12.285 2.57,-23.979 7.192,-34.581 -11.972,-13.736 -19.263,-31.789 -19.263,-51.552 0,-38.459 27.573,-70.469 63.651,-76.677 15.561,-20.144 41.383,-33.348 70.555,-33.348 21.068,0 40.388,6.889 55.359,18.302 12.007,-6.1 25.78,-9.577 40.415,-9.577 22.827,0 43.55,8.458 58.745,22.151 7.892,-2.154 16.191,-3.311 24.757,-3.311 45.289,0 83.206,32.152 92.135,74.828 C -23.04,-66.909 0,-36.114 0,0"
             style="fill:#ffffff;fill-opacity:1;fill-rule:nonzero;stroke:none"
             id="path24" />
        </g>
        <g
           id="g26"
           transform="translate(465.4303,261.3358)">
          <path
             d="m 0,0 c 0,35.48 -24.041,65.307 -56.641,73.946 -6.252,39.658 -40.013,69.96 -80.739,69.96 -36.309,0 -67.074,-24.091 -77.755,-57.419 -12.637,7.335 -27.315,11.537 -42.977,11.537 -19.18,0 -36.889,-6.301 -51.175,-16.944 -13.001,9.101 -28.817,14.458 -45.892,14.458 -44.259,0 -80.139,-35.879 -80.139,-80.139 0,-12.862 3.048,-25.007 8.433,-35.779 -12.665,-12.874 -20.503,-30.68 -20.503,-50.354 0,-36.13 26.437,-65.945 60.662,-70.489 14.095,-19.753 38.766,-32.86 66.868,-32.86 21.183,0 40.412,7.455 54.641,19.58 11.928,-6.87 26.021,-10.855 41.133,-10.855 22.531,0 42.811,8.836 56.991,22.936 8.363,-2.657 17.268,-4.096 26.51,-4.096 43.461,0 79.51,31.705 86.298,73.245 C -22.891,-63.849 0,-34.618 0,0"
             style="fill:#000000;fill-opacity:1;fill-rule:nonzero;stroke:none"
             id="path28" />
        </g>
        <g
           id="g30"
           transform="translate(434.2443,207.6132)">
          <path
             d="m 0,0 v -86.771 l 50.397,11.635 v 50.363 l 15.359,3.546 v 36.408 z"
             style="fill:#000000;fill-opacity:1;fill-rule:nonzero;stroke:none"
             id="path32" />
        </g>
      </g>
    </g>
    <g
       id="g34">
      <g
         id="g36">
        <g
           id="g42">
          <g
             id="g44">
            <path
               d="m 440.67,202.671 v -23.557 l 15.049,3.474 v -50.363 l 22.497,5.194 v 50.363 l 15.359,3.546 v 23.558 z"
               style="fill:url(#linearGradient52);stroke:none"
               id="path54" />
          </g>
        </g>
      </g>
    </g>
    <g
       id="g56">
      <g
         id="g58"
         clip-path="url(#clipPath62)">
        <g
           id="g64">
          <g
             id="g66" />
          <g
             id="g86">
            <g
               clip-path="url(#clipPath70)"
               opacity="0.199997"
               id="g84">
              <g
                 id="g82">
                <g
                   clip-path="url(#clipPath74)"
                   id="g80">
                  <g
                     transform="translate(77.965,-128.3172)"
                     id="g78">
                    <path
                       d="m 0,0 -28.502,54.241 493.51,298.568 28.475,-54.268 z"
                       style="fill:#ffffff;fill-opacity:1;fill-rule:nonzero;stroke:none"
                       id="path76" />
                  </g>
                </g>
              </g>
            </g>
          </g>
        </g>
        <g
           id="g88"
           transform="translate(404.7498,192.867)">
          <path
             d="m 0,0 v -86.771 l 35.243,8.137 V 8.137 Z"
             style="fill:#000000;fill-opacity:1;fill-rule:nonzero;stroke:none"
             id="path90" />
        </g>
      </g>
    </g>
    <g
       id="g92">
      <g
         id="g94">
        <g
           id="g100">
          <g
             id="g102">
            <path
               d="m 411.175,187.924 v -73.919 l 22.393,5.169 v 73.921 z"
               style="fill:url(#linearGradient108);stroke:none"
               id="path110" />
          </g>
        </g>
      </g>
    </g>
    <g
       id="g112">
      <g
         id="g114"
         clip-path="url(#clipPath118)">
        <g
           id="g120">
          <g
             id="g122" />
          <g
             id="g142">
            <g
               clip-path="url(#clipPath126)"
               opacity="0.199997"
               id="g140">
              <g
                 id="g138">
                <g
                   clip-path="url(#clipPath130)"
                   id="g136">
                  <g
                     transform="translate(77.965,-128.3172)"
                     id="g134">
                    <path
                       d="m 0,0 -28.502,54.241 493.51,298.568 28.475,-54.268 z"
                       style="fill:#ffffff;fill-opacity:1;fill-rule:nonzero;stroke:none"
                       id="path132" />
                  </g>
                </g>
              </g>
            </g>
          </g>
        </g>
        <g
           id="g144"
           transform="translate(339.1755,183.8226)">
          <path
             d="m 0,0 v -86.771 l 71.6,16.53 V 16.53 Z"
             style="fill:#000000;fill-opacity:1;fill-rule:nonzero;stroke:none"
             id="path146" />
        </g>
      </g>
    </g>
    <g
       id="g148">
      <g
         id="g150">
        <g
           id="g156">
          <g
             id="g158">
            <path
               d="m 381.854,187.25 v -23.828 l -13.86,-3.199 V 184.05 L 345.6,178.88 v -73.92 l 22.394,5.17 v 27.727 l 13.86,3.2 V 113.33 l 22.496,5.194 v 73.92 z"
               style="fill:url(#linearGradient166);stroke:none"
               id="path168" />
          </g>
        </g>
      </g>
    </g>
    <g
       id="g170">
      <g
         id="g172"
         clip-path="url(#clipPath176)">
        <g
           id="g178">
          <g
             id="g180" />
          <g
             id="g204">
            <g
               clip-path="url(#clipPath184)"
               opacity="0.199997"
               id="g202">
              <g
                 id="g200">
                <g
                   clip-path="url(#clipPath188)"
                   id="g198">
                  <g
                     transform="translate(-4.7277,-53.4411)"
                     id="g192">
                    <path
                       d="M 0,0 -29.729,61.244 463.219,361.5 492.948,300.256 Z"
                       style="fill:#ffffff;fill-opacity:1;fill-rule:nonzero;stroke:none"
                       id="path190" />
                  </g>
                  <g
                     transform="translate(77.965,-128.3172)"
                     id="g196">
                    <path
                       d="m 0,0 -28.502,54.241 493.51,298.568 28.475,-54.268 z"
                       style="fill:#ffffff;fill-opacity:1;fill-rule:nonzero;stroke:none"
                       id="path194" />
                  </g>
                </g>
              </g>
            </g>
          </g>
        </g>
        <g
           id="g206"
           transform="translate(340.9062,174.3333)">
          <path
             d="m 0,0 c -3.635,0.673 -7.406,0.569 -11.209,-0.308 -8.768,-2.025 -16.225,-7.107 -22.173,-15.121 -5.405,-7.311 -12.955,-44.398 -12.955,-44.398 v -35.466 l 4.399,-0.447 c 4.223,-0.429 8.385,-0.179 12.37,0.741 8.252,1.905 15.428,6.395 21.316,13.329 6.797,7.97 10.243,16.772 10.243,26.159 0,6.291 1.966,20.783 1.966,20.783 v 33.995 z"
             style="fill:#000000;fill-opacity:1;fill-rule:nonzero;stroke:none"
             id="path208" />
        </g>
      </g>
    </g>
    <g
       id="g210">
      <g
         id="g212">
        <g
           id="g218">
          <g
             id="g220">
            <path
               d="m 329.697,167.601 c -6.896,-1.592 -12.687,-5.547 -17.376,-11.865 v 0 c -4.345,-5.877 -6.517,-12.371 -6.517,-19.483 v 0 c 0,-5.596 1.655,-11.045 4.965,-16.346 v 0 c 1.586,-2.522 2.379,-4.468 2.379,-5.841 v 0 c 0,-1.588 -0.629,-3.106 -1.888,-4.551 v 0 c -1.259,-1.446 -2.732,-2.364 -4.421,-2.754 v 0 c -1.725,-0.398 -3.672,-0.432 -5.845,-0.104 v 0 -21.499 c 3.586,-0.364 7.034,-0.163 10.344,0.601 v 0 c 6.585,1.52 12.222,5.042 16.911,10.565 v 0 c 5.482,6.428 8.223,13.434 8.223,21.015 v 0 c 0,5.163 -1.568,10.071 -4.706,14.726 v 0 c -1.173,1.716 -1.931,3.002 -2.276,3.862 v 0 c -0.345,0.859 -0.517,1.848 -0.517,2.967 v 0 c 0,1.95 0.543,3.636 1.629,5.06 v 0 c 1.086,1.425 2.526,2.344 4.319,2.758 v 0 c 0.965,0.222 2.137,0.276 3.516,0.162 v 0 20.957 c -1.25,0.232 -2.509,0.348 -3.778,0.348 v 0 c -1.637,0 -3.292,-0.193 -4.962,-0.578"
               style="fill:url(#linearGradient228);stroke:none"
               id="path230" />
          </g>
        </g>
      </g>
    </g>
    <g
       id="g232">
      <g
         id="g234"
         clip-path="url(#clipPath238)">
        <g
           id="g240">
          <g
             id="g242" />
          <g
             id="g262">
            <g
               clip-path="url(#clipPath246)"
               opacity="0.199997"
               id="g260">
              <g
                 id="g258">
                <g
                   clip-path="url(#clipPath250)"
                   id="g256">
                  <g
                     transform="translate(-4.7277,-53.4411)"
                     id="g254">
                    <path
                       d="M 0,0 -29.729,61.244 463.219,361.5 492.948,300.256 Z"
                       style="fill:#ffffff;fill-opacity:1;fill-rule:nonzero;stroke:none"
                       id="path252" />
                  </g>
                </g>
              </g>
            </g>
          </g>
        </g>
        <g
           id="g264"
           transform="translate(293.1765,158.2946)">
          <path
             d="M 0,0 C -6.422,7.122 -17.176,9.985 -28.065,7.471 -38.941,4.96 -49.687,-2.866 -56.111,-12.953 c -5.523,-8.672 -7.577,-16.588 -7.577,-29.206 v -47.163 l 71.245,16.448 v 47.163 C 7.557,-13.077 5.509,-6.109 0,0"
             style="fill:#000000;fill-opacity:1;fill-rule:nonzero;stroke:none"
             id="path266" />
        </g>
      </g>
    </g>
    <g
       id="g268">
      <g
         id="g270">
        <g
           id="g276">
          <g
             id="g278">
            <path
               d="m 265.111,159.34 c -8.864,-2.046 -17.62,-8.367 -22.897,-16.654 v 0 c -4.626,-7.262 -6.301,-13.855 -6.301,-25.067 v 0 -40.738 l 22.338,5.157 v 16.223 l 13.72,3.147 V 85.205 l 22.338,5.158 V 131.1 c 0,11.212 -1.664,17.044 -6.281,22.164 v 0 c -4.004,4.439 -10.01,6.815 -16.541,6.815 v 0 c -2.088,0 -4.228,-0.243 -6.376,-0.739 m -6.026,-34.355 -5.974,4.799 8.276,3.204 3.724,8.763 3.724,-7.043 8.277,0.617 -5.974,-7.557 1.39,-8.381 -7.417,2.371 -7.417,-5.796 z"
               style="fill:url(#linearGradient286);stroke:none"
               id="path288" />
          </g>
        </g>
      </g>
    </g>
    <g
       id="g290">
      <g
         id="g292"
         clip-path="url(#clipPath296)">
        <g
           id="g298">
          <g
             id="g300" />
          <g
             id="g320">
            <g
               clip-path="url(#clipPath304)"
               opacity="0.199997"
               id="g318">
              <g
                 id="g316">
                <g
                   clip-path="url(#clipPath308)"
                   id="g314">
                  <g
                     transform="translate(-4.7277,-53.4411)"
                     id="g312">
                    <path
                       d="M 0,0 -29.729,61.244 463.219,361.5 492.948,300.256 Z"
                       style="fill:#ffffff;fill-opacity:1;fill-rule:nonzero;stroke:none"
                       id="path310" />
                  </g>
                </g>
              </g>
            </g>
          </g>
        </g>
        <g
           id="g322"
           transform="translate(230.413,148.5015)">
          <path
             d="m 0,0 c -7.376,-0.224 -12.479,-0.852 -18.829,-2.318 -14.401,-3.325 -25.567,-10.272 -34.135,-21.241 -7.818,-10.009 -12.302,-22.671 -12.302,-34.739 0,-12.573 4.761,-23.13 13.406,-29.726 8.703,-6.64 18.475,-8.075 32.677,-4.796 6.211,1.434 10.855,3.007 19.113,6.476 l 5.231,2.197 V 0.157 Z"
             style="fill:#000000;fill-opacity:1;fill-rule:nonzero;stroke:none"
             id="path324" />
        </g>
      </g>
    </g>
    <g
       id="g326">
      <g
         id="g328">
        <g
           id="g334">
          <g
             id="g336">
            <path
               d="m 211.585,139.758 c -12.742,-2.941 -22.114,-8.739 -29.484,-18.173 v 0 c -6.759,-8.653 -10.529,-19.478 -10.529,-29.897 v 0 c 0,-10.885 4.093,-19.948 11.511,-25.608 v 0 c 7.446,-5.682 15.592,-6.872 28.147,-3.973 v 0 c 6.01,1.387 10.446,2.949 17.919,6.088 v 0 43.15 l -22.338,-5.157 V 84.144 c -7.991,-0.739 -13.173,4.162 -13.173,12.596 v 0 c 0,10.035 6.927,17.314 19.146,20.135 v 0 c 5.247,1.211 9.52,1.734 16.365,1.873 v 0 23.162 c -7.282,-0.22 -11.975,-0.861 -17.564,-2.152"
               style="fill:url(#linearGradient344);stroke:none"
               id="path346" />
          </g>
        </g>
      </g>
    </g>
    <g
       id="g348">
      <g
         id="g350"
         clip-path="url(#clipPath354)">
        <g
           id="g356">
          <g
             id="g358" />
          <g
             id="g378">
            <g
               clip-path="url(#clipPath362)"
               opacity="0.199997"
               id="g376">
              <g
                 id="g374">
                <g
                   clip-path="url(#clipPath366)"
                   id="g372">
                  <g
                     transform="translate(-4.7277,-53.4411)"
                     id="g370">
                    <path
                       d="M 0,0 -29.729,61.244 463.219,361.5 492.948,300.256 Z"
                       style="fill:#ffffff;fill-opacity:1;fill-rule:nonzero;stroke:none"
                       id="path368" />
                  </g>
                </g>
              </g>
            </g>
          </g>
        </g>
        <g
           id="g380"
           transform="translate(143.2523,136.184)">
          <path
             d="m 0,0 c -9.404,-2.121 -16.46,-5.737 -21.599,-10.992 -6.489,-6.636 -10.21,-15.507 -10.21,-24.34 0,-6.178 1.631,-10.538 5.256,-13.566 -4.078,-5.275 -5.965,-11.137 -5.965,-18.155 0,-8.7 3.038,-15.204 8.786,-18.812 6.225,-3.906 12.822,-3.456 21.45,-1.464 l 29.908,6.905 V 6.378 Z"
             style="fill:#000000;fill-opacity:1;fill-rule:nonzero;stroke:none"
             id="path382" />
        </g>
      </g>
    </g>
    <g
       id="g384">
      <g
         id="g386">
        <g
           id="g392">
          <g
             id="g394">
            <path
               d="m 143.233,129.755 c -7.909,-1.803 -13.708,-4.707 -17.591,-8.68 v 0 c -4.923,-5.033 -7.774,-11.757 -7.774,-18.74 v 0 c 0,-7.173 2.537,-10.472 9.601,-12.516 v 0 c -7.474,-5.702 -10.31,-11.022 -10.31,-19.204 v 0 c 0,-6.765 2.198,-11.726 6.546,-14.454 v 0 c 4.164,-2.614 8.509,-2.903 17.265,-0.881 v 0 l 23.483,5.421 v 20.736 l -14.892,-3.438 c -5.891,-1.36 -6.491,1.052 -6.491,2.716 v 0 c 0,1.554 0.6,4.318 6.491,5.678 v 0 l 14.892,3.438 v 15.621 l -14.892,-3.438 c -5.891,-1.36 -7.691,-0.812 -7.691,2.407 v 0 c 0,3.218 1.8,4.597 7.691,5.957 v 0 l 14.892,3.438 v 20.837 z"
               style="fill:url(#linearGradient402);stroke:none"
               id="path404" />
          </g>
        </g>
      </g>
    </g>
    <g
       id="g406">
      <g
         id="g408"
         clip-path="url(#clipPath412)">
        <g
           id="g414">
          <g
             id="g416" />
          <g
             id="g436">
            <g
               clip-path="url(#clipPath420)"
               opacity="0.199997"
               id="g434">
              <g
                 id="g432">
                <g
                   clip-path="url(#clipPath424)"
                   id="g430">
                  <g
                     transform="translate(-4.7277,-53.4411)"
                     id="g428">
                    <path
                       d="M 0,0 -29.729,61.244 463.219,361.5 492.948,300.256 Z"
                       style="fill:#ffffff;fill-opacity:1;fill-rule:nonzero;stroke:none"
                       id="path426" />
                  </g>
                </g>
              </g>
            </g>
          </g>
        </g>
        <g
           id="g438"
           transform="translate(107.7688,111.0235)">
          <path
             d="m 0,0 c -6.729,6.183 -15.866,8.164 -26.422,5.727 -5.765,-1.331 -10.741,-3.632 -15.696,-7.305 -4.955,1.385 -9.933,1.388 -15.697,0.057 -10.556,-2.437 -19.693,-8.636 -26.422,-17.927 -6.864,-9.474 -9.296,-18.121 -9.296,-33.042 V -98.358 L 9.296,-74.618 V -28.75 C 9.296,-13.829 6.864,-6.306 0,0"
             style="fill:#000000;fill-opacity:1;fill-rule:nonzero;stroke:none"
             id="path440" />
        </g>
      </g>
    </g>
    <g
       id="g442">
      <g
         id="g444">
        <g
           id="g450">
          <g
             id="g452">
            <path
               d="M 81.347,110.326 C 75.522,108.98 70.833,106.545 65.65,102.043 v 0 c -5.182,2.109 -9.843,2.387 -15.696,1.035 v 0 C 41.304,101.081 33.87,96.058 28.38,88.479 v 0 C 22.605,80.508 20.66,73.403 20.66,60.016 v 0 -39.443 l 22.475,5.189 v 43.714 c 0,6.588 2.123,9.344 5.591,10.145 v 0 c 3.469,0.801 5.687,-0.953 5.687,-7.541 v 0 -43.715 l 22.475,5.189 v 43.715 c 0,6.588 2.218,9.366 5.686,10.167 v 0 c 3.469,0.8 5.592,-0.976 5.592,-7.563 v 0 -43.715 l 22.475,5.189 V 80.79 c 0,13.387 -1.945,19.593 -7.72,24.899 v 0 c -3.953,3.632 -8.901,5.476 -14.601,5.476 v 0 c -2.216,0 -4.544,-0.279 -6.973,-0.839"
               style="fill:url(#linearGradient460);stroke:none"
               id="path462" />
          </g>
        </g>
      </g>
    </g>
    <g
       id="g464">
      <g
         id="g466"
         clip-path="url(#clipPath470)">
        <g
           id="g472">
          <g
             id="g474" />
          <g
             id="g494">
            <g
               clip-path="url(#clipPath478)"
               opacity="0.199997"
               id="g492">
              <g
                 id="g490">
                <g
                   clip-path="url(#clipPath482)"
                   id="g488">
                  <g
                     transform="translate(-4.7277,-53.4411)"
                     id="g486">
                    <path
                       d="M 0,0 -29.729,61.244 463.219,361.5 492.948,300.256 Z"
                       style="fill:#ffffff;fill-opacity:1;fill-rule:nonzero;stroke:none"
                       id="path484" />
                  </g>
                </g>
              </g>
            </g>
          </g>
        </g>
        <g
           id="g496"
           transform="translate(429.3553,120.6807)">
          <path
             d="m 0,0 -14.657,1.527 -7.058,12.988 -5.972,-13.532 -14.525,-2.702 10.982,-9.858 -1.888,-14.573 12.734,7.335 13.32,-6.38 -3.064,14.456 z"
             style="fill:#000000;fill-opacity:1;fill-rule:nonzero;stroke:none"
             id="path498" />
        </g>
      </g>
    </g>
    <g
       id="g500">
      <g
         id="g502">
        <g
           id="g508">
          <g
             id="g510">
            <path
               d="m 404.876,117.61 -7.773,-1.445 5.863,-5.264 -1.009,-7.801 6.818,3.928 7.12,-3.41 -1.637,7.719 5.428,5.755 -7.855,0.818 -3.765,6.928 z"
               style="fill:url(#radialGradient518);stroke:none"
               id="path520" />
          </g>
        </g>
      </g>
    </g>
    <g
       id="g522">
      <g
         id="g524"
         clip-path="url(#clipPath528)">
        <g
           id="g530"
           transform="translate(209.2234,144.8913)">
          <path
             d="m 0,0 5.16,11.866 -12.557,-3.1 -9.7,8.565 -0.93,-12.906 -11.149,-6.607 12.008,-4.845 2.786,-12.642 8.362,9.909 12.889,-1.242 z"
             style="fill:#000000;fill-opacity:1;fill-rule:nonzero;stroke:none"
             id="path532" />
        </g>
      </g>
    </g>
    <g
       id="g534">
      <g
         id="g536">
        <g
           id="g542">
          <g
             id="g544">
            <path
               d="m 195.11,146.896 -5.891,-3.492 6.355,-2.563 1.473,-6.683 4.418,5.238 6.791,-0.656 -3.627,5.81 2.727,6.273 -6.627,-1.636 -5.127,4.528 z"
               style="fill:url(#radialGradient552);stroke:none"
               id="path554" />
          </g>
        </g>
      </g>
    </g>
    <g
       id="g556">
      <g
         id="g558"
         clip-path="url(#clipPath562)">
        <g
           id="g564"
           transform="translate(30.5316,24.237)">
          <path
             d="m 0,0 2.746,13.829 -12.63,-6.22 -12.273,6.884 1.976,-13.929 -10.351,-9.581 13.887,-2.402 5.83,-12.818 6.648,12.475 13.998,1.642 z"
             style="fill:#000000;fill-opacity:1;fill-rule:nonzero;stroke:none"
             id="path566" />
        </g>
      </g>
    </g>
    <g
       id="g568">
      <g
         id="g570">
        <g
           id="g576">
          <g
             id="g578">
            <path
               d="m 14.687,23.259 -5.863,-5.427 7.882,-1.365 3.3,-7.255 3.764,7.065 7.91,0.927 -5.565,5.728 1.556,7.827 -7.146,-3.518 -6.956,3.901 z"
               style="fill:url(#radialGradient586);stroke:none"
               id="path588" />
          </g>
        </g>
      </g>
    </g>
    <g
       id="g590">
      <g
         id="g592"
         clip-path="url(#clipPath596)">
        <g
           id="g598"
           transform="translate(411.5666,210.5729)">
          <path
             d="m 0,0 v 6.704 l -1.686,-7.102 -1.826,-0.43 -1.647,6.315 v -6.703 l -1.726,-0.407 v 8.024 l 2.697,0.636 1.626,-5.981 0.02,0.004 1.586,6.74 2.662,0.627 V 0.402 Z M -12.463,-2.939 V 3.663 L -15.24,3.008 v 1.419 l 7.345,1.731 V 4.74 l -2.677,-0.631 v -6.602 z"
             style="fill:#ff5500;fill-opacity:1;fill-rule:nonzero;stroke:none"
             id="path600" />
        </g>
        <g
           id="g602"
           transform="translate(388.1784,255.2055)">
          <path
             d="m 0,0 c 3.884,1.463 12.014,3.649 18.843,5.131 v 21.14 L -15.284,18.392 V -38.11 l 34.073,7.867 v 9.412 c -4.48,-1.174 -13.712,-2.908 -17.777,-3.595 -4.951,-0.831 -5.655,5.474 -0.181,7.281 3.144,1.03 8.907,2.403 13.405,3.667 l -0.018,7.245 C 10.117,-7.064 4.589,-8.022 0.217,-8.636 -5.203,-9.413 -6.143,-2.313 0,0"
             style="fill:#ff5500;fill-opacity:1;fill-rule:nonzero;stroke:none"
             id="path604" />
        </g>
        <g
           id="g606"
           transform="translate(356.4954,216.2722)">
          <path
             d="m 0,0 c -0.2,1.878 -3.447,2.303 -8.505,3.515 -8.844,2.196 -14.318,7.406 -13.759,16.559 0.595,9.879 5.597,16.769 32.067,21.264 V 20.787 C 0.251,19.593 -5.022,17.806 -7.259,15.976 -9.644,14.04 -9.505,10.87 -6.062,9.72 -4.566,9.221 -0.144,7.744 2.529,6.848 c 5.129,-1.71 7.639,-4.331 8.162,-8.971 1.477,-13.089 -22.213,-16.522 -31.98,-17.956 V -8.45 C -9.588,-6.092 0.451,-4.025 0,0"
             style="fill:#ff5500;fill-opacity:1;fill-rule:nonzero;stroke:none"
             id="path608" />
        </g>
        <g
           id="g610"
           transform="translate(315.5146,212.8394)">
          <path
             d="m 0,0 v 50.37 l 12.737,2.94 V 2.941 Z"
             style="fill:#ff5500;fill-opacity:1;fill-rule:nonzero;stroke:none"
             id="path612" />
        </g>
        <g
           id="g614"
           transform="translate(285.0724,204.4384)">
          <path
             d="m 0,0 c -3.505,-0.811 -5.022,0.361 -5.022,4.462 v 12.936 c 0,2.981 -0.155,5.362 2.673,6.161 C 3.794,25.293 10.659,22.005 11.31,15.32 12.068,7.552 7.747,1.788 0,0 M -13.658,43.125 V -11.816 C 12.9,-7.931 24.462,2.331 24.173,22.728 23.92,40.415 6.359,50.135 -13.658,43.125"
             style="fill:#ff5500;fill-opacity:1;fill-rule:nonzero;stroke:none"
             id="path616" />
        </g>
        <g
           id="g618"
           transform="translate(248.1985,195.9292)">
          <path
             d="m 0,0 -6.414,-1.481 c -1.611,-0.372 -2.529,0.632 -2.33,2.872 0.18,2.096 1.12,6.54 1.481,8.058 0.759,3.143 2.349,4.679 4.174,4.95 2.944,0.47 4.372,-1.68 5.51,-7.1 C 2.529,6.793 2.836,5.691 2.963,4.209 3.216,1.192 2.278,0.526 0,0 m 11.237,24.083 c -3.36,11.02 -6.08,13.74 -12.773,12.195 -5.9,-1.362 -9.254,-4.434 -12.068,-15.212 -2.764,-10.587 -5.799,-25.583 -8.257,-42.71 l 9.72,2.114 c 0.181,1.355 0.506,2.945 0.976,5.366 0.506,2.439 1.825,4.183 4.444,4.787 2.157,0.498 6.171,1.425 7.588,1.752 2.029,0.469 3.885,-1.137 4.535,-3.847 0.433,-1.807 0.994,-4.354 1.337,-6.071 l 12.899,2.963 C 18.067,-1.951 14.58,13.134 11.237,24.083"
             style="fill:#ff5500;fill-opacity:1;fill-rule:nonzero;stroke:none"
             id="path620" />
        </g>
        <g
           id="g622"
           transform="translate(200.6402,200.1978)">
          <path
             d="m 0,0 c -3.309,-0.776 -5.151,1.067 -5.151,5.006 v 3.806 c -0.001,2.745 0.533,5.127 2.981,5.903 C 4.939,16.967 9.891,13.903 9.891,9.091 9.891,4.594 6.448,1.515 0,0 m 23.963,16.448 c 0,17.491 -17.115,22.57 -38.048,15.091 v -55.027 l 8.921,2.059 v 12.702 c 0,2.157 1.588,1.782 3.055,0.473 1.03,-0.922 7.224,-6.922 11.551,-11.237 l 13.62,3.144 c 0,0 -11.874,12.129 -13.244,13.329 7.976,2.982 14.145,10.752 14.145,19.466"
             style="fill:#ff5500;fill-opacity:1;fill-rule:nonzero;stroke:none"
             id="path624" />
        </g>
        <g
           id="g626"
           transform="translate(165.5801,170.4191)">
          <path
             d="m 0,0 -6.414,-1.481 c -1.611,-0.372 -2.529,0.632 -2.33,2.872 0.18,2.096 1.12,6.54 1.481,8.058 0.759,3.143 2.349,4.679 4.174,4.95 2.944,0.47 4.372,-1.68 5.51,-7.1 C 2.529,6.793 2.836,5.691 2.963,4.209 3.216,1.192 2.278,0.526 0,0 m 11.237,24.083 c -3.36,11.02 -6.08,13.74 -12.773,12.195 -5.9,-1.362 -9.254,-4.434 -12.068,-15.212 -2.764,-10.587 -5.799,-25.583 -8.257,-42.71 l 9.72,2.114 c 0.181,1.355 0.506,2.945 0.976,5.366 0.506,2.439 1.825,4.183 4.444,4.787 2.157,0.498 6.171,1.425 7.588,1.752 2.029,0.469 3.885,-1.137 4.535,-3.847 0.433,-1.807 0.994,-4.354 1.337,-6.071 l 12.899,2.963 C 18.067,-1.951 14.58,13.134 11.237,24.083"
             style="fill:#ff5500;fill-opacity:1;fill-rule:nonzero;stroke:none"
             id="path628" />
        </g>
        <g
           id="g630"
           transform="translate(120.0885,181.0249)">
          <path
             d="m 0,0 c -4.011,-0.976 -6.323,0.072 -6.323,3.433 v 12.159 c 0,3.434 1.897,5.601 5.673,6.088 7.57,0.976 10.984,-3.45 10.984,-9.214 C 10.334,7.66 7.498,1.843 0,0 m -25.167,39.224 v -76.153 l 18.862,4.354 v 17.886 c 0,3.271 0.813,4.897 2.764,5.24 17.578,3.092 30.1,11.93 30.1,30.064 0,19.911 -21.392,30.623 -51.726,18.609"
             style="fill:#ff5500;fill-opacity:1;fill-rule:nonzero;stroke:none"
             id="path632" />
        </g>
        <g
           id="g634"
           transform="translate(364.6014,367.0917)">
          <path
             d="m 0,0 c -5.203,-17.181 -8.148,-25.582 -10.714,-32.664 -4.372,-12.051 -8.906,-7.317 -11.02,-3.957 -2.457,3.939 -5.8,11.599 -11.599,25.637 l -14.327,-3.307 v -67.441 l 11.888,2.745 c -0.09,10.75 0.091,18.048 0.669,20.885 0.524,2.547 2.059,2.909 3.613,0.379 1.283,-2.077 3.306,-6.576 7.335,-15.826 l 7.965,1.839 c 4.391,11.797 6.759,17.745 8.439,20.654 1.355,2.367 3.939,4.029 4.716,-0.343 0.596,-3.307 0.542,-12.276 0.524,-23.26 l 12.321,2.844 v 74.08 z"
             style="fill:#ffaa00;fill-opacity:1;fill-rule:nonzero;stroke:none"
             id="path636" />
        </g>
        <g
           id="g638"
           transform="translate(296.0569,331.8793)">
          <path
             d="m 0,0 c -0.054,-9.214 -0.036,-17.615 -0.434,-20.686 -0.921,-7.335 -13.459,-10.641 -14.073,-3.884 -0.29,3.179 -0.542,7.38 -0.542,16.756 l -10.136,-2.339 v -61.788 l 12.918,2.982 c 0,9.81 0,14.073 0.162,17.433 0.452,8.853 13.749,10.858 14.905,3.162 0.524,-3.505 0.615,-5.185 0.615,-13.098 l 10.297,2.377 V 3.166 Z"
             style="fill:#ffaa00;fill-opacity:1;fill-rule:nonzero;stroke:none"
             id="path640" />
        </g>
        <g
           id="g642"
           transform="translate(227.5123,326.7758)">
          <path
             d="m 0,0 v -24.87 l 7.209,1.664 c 4.372,1.009 6.178,0.44 6.178,-7.299 V -62.43 l 11.834,2.711 v 29.286 c 0,13.008 1.221,16.291 7.66,17.778 l 5.89,1.359 V 8.951 Z"
             style="fill:#ffaa00;fill-opacity:1;fill-rule:nonzero;stroke:none"
             id="path644" />
        </g>
        <g
           id="g646"
           transform="translate(222.6705,310.3499)">
          <path
             d="m 0,0 -11.057,-2.553 c 0,0 0.163,-11.382 -0.271,-19.764 -0.632,-12.268 -12.99,-14.905 -13.983,-3.234 -0.506,6.124 -0.741,18.332 -0.741,18.332 l -13.749,-3.175 v -9.954 c 0,-23.758 15.447,-26.685 23.523,-19.91 0.488,0.416 0.976,0.669 1.373,0.488 0.452,-0.198 0.434,-0.686 0.253,-1.59 -0.488,-2.366 -3.993,-7.046 -11.075,-8.943 -5.402,-1.445 -10.695,-2.357 -13.333,-2.772 v -16.486 c 11.888,1.535 25.655,4.932 32.068,14.796 3.343,5.149 5.095,10.587 5.962,18.645 C 0.325,-23.438 0,0 0,0"
             style="fill:#ffaa00;fill-opacity:1;fill-rule:nonzero;stroke:none"
             id="path648" />
        </g>
        <g
           id="g650"
           transform="translate(162.4184,311.3744)">
          <path
             d="m 0,0 c -0.054,-9.214 -0.036,-17.615 -0.434,-20.686 -0.921,-7.335 -13.459,-10.641 -14.073,-3.885 -0.29,3.18 -0.542,7.381 -0.542,16.757 l -10.136,-2.339 v -61.788 l 12.918,2.982 c 0,9.81 0,14.073 0.162,17.433 0.452,8.853 13.749,10.858 14.905,3.162 0.524,-3.505 0.615,-5.185 0.615,-13.098 l 10.298,2.377 V 3.166 Z"
             style="fill:#ffaa00;fill-opacity:1;fill-rule:nonzero;stroke:none"
             id="path652" />
        </g>
        <g
           id="g654"
           transform="translate(95.1386,274.2115)">
          <path
             d="m 0,0 c -4.932,-1.156 -7.678,1.59 -7.678,7.461 v 5.673 c -0.001,4.092 0.795,7.643 4.444,8.799 C 7.362,25.29 14.742,20.722 14.742,13.55 14.742,6.847 9.611,2.258 0,0 m 35.718,24.516 c 0,26.07 -25.51,33.64 -56.711,22.493 v -84.156 l 13.297,3.07 v 21.069 c 0,3.216 2.366,2.656 4.552,0.705 1.536,-1.373 10.768,-10.316 17.218,-16.748 l 20.299,4.686 c 0,0 -17.698,18.078 -19.739,19.866 11.888,4.445 21.084,16.027 21.084,29.015"
             style="fill:#ffaa00;fill-opacity:1;fill-rule:nonzero;stroke:none"
             id="path656" />
        </g>
      </g>
    </g>
  </g>
</svg>
