<?xml version="1.0" encoding="UTF-8" standalone="no"?>
<!-- Created with Inkscape (http://www.inkscape.org/) -->

<svg
   version="1.1"
   id="svg2"
   width="666.66669"
   height="573.31335"
   viewBox="0 0 666.66669 573.31335"
   sodipodi:docname="Rhythm Paradise Ohiomix Logo.ai"
   xmlns:inkscape="http://www.inkscape.org/namespaces/inkscape"
   xmlns:sodipodi="http://sodipodi.sourceforge.net/DTD/sodipodi-0.dtd"
   xmlns="http://www.w3.org/2000/svg"
   xmlns:svg="http://www.w3.org/2000/svg">
  <defs
     id="defs6">
    <clipPath
       clipPathUnits="userSpaceOnUse"
       id="clipPath16">
      <path
         d="M 224.224,429.986 0,378.219 V 142.615 L 23.66,40.135 500,150.108 v 158.936 l -27.922,120.942 z"
         id="path14" />
    </clipPath>
    <clipPath
       clipPathUnits="userSpaceOnUse"
       id="clipPath28">
      <path
         d="M 0,429.985 H 500 V 0 H 0 Z"
         id="path26" />
    </clipPath>
    <linearGradient
       x1="0"
       y1="0"
       x2="1"
       y2="0"
       gradientUnits="userSpaceOnUse"
       gradientTransform="matrix(62.533161,-2e-7,-0.0195416,-62.5331,430.59943,159.58112)"
       spreadMethod="pad"
       id="linearGradient60">
      <stop
         style="stop-opacity:1;stop-color:#ff8c3c"
         offset="0"
         id="stop54" />
      <stop
         style="stop-opacity:1;stop-color:#ff5a00"
         offset="0.75"
         id="stop56" />
      <stop
         style="stop-opacity:1;stop-color:#ff5a00"
         offset="1"
         id="stop58" />
    </linearGradient>
    <clipPath
       clipPathUnits="userSpaceOnUse"
       id="clipPath70">
      <path
         d="M 0,429.985 H 500 V 0 H 0 Z"
         id="path68" />
    </clipPath>
    <clipPath
       clipPathUnits="userSpaceOnUse"
       id="clipPath78">
      <path
         d="M 24.0271,224.044 H 582.819 V -153.642 H 24.0271 Z"
         id="path76" />
    </clipPath>
    <clipPath
       clipPathUnits="userSpaceOnUse"
       id="clipPath82">
      <path
         d="m 430.61,112.8 v 10.927 c -0.03,9.489 -0.016,18.791 11.065,32.431 -8.117,5.37 -11.065,12.974 -11.065,27.806 v 7.954 l 23.942,5.54 v -17.623 c 0,-4.098 2.55,-7.089 7.313,-5.989 4.762,1.099 7.312,5.267 7.312,9.366 l 0.003,17.623 23.942,5.528 v -7.966 c 0,-14.833 -2.949,-23.798 -11.066,-32.916 11.067,-8.512 11.066,-17.826 11.066,-27.322 v -10.927 l -23.942,-5.528 v 18.594 c 0,6.63 -2.553,9.557 -7.315,8.457 -4.763,-1.099 -7.313,-5.205 -7.313,-11.835 v -18.593 z"
         id="path80" />
    </clipPath>
    <linearGradient
       x1="0"
       y1="0"
       x2="1"
       y2="0"
       gradientUnits="userSpaceOnUse"
       gradientTransform="matrix(41.399673,9.5578671,0.0915646,-43.517395,385.98804,150.13382)"
       spreadMethod="pad"
       id="linearGradient116">
      <stop
         style="stop-opacity:1;stop-color:#aa37be"
         offset="0"
         id="stop112" />
      <stop
         style="stop-opacity:1;stop-color:#5f14a5"
         offset="1"
         id="stop114" />
    </linearGradient>
    <clipPath
       clipPathUnits="userSpaceOnUse"
       id="clipPath126">
      <path
         d="M 0,429.985 H 500 V 0 H 0 Z"
         id="path124" />
    </clipPath>
    <clipPath
       clipPathUnits="userSpaceOnUse"
       id="clipPath134">
      <path
         d="M 24.0271,224.044 H 582.819 V -153.642 H 24.0271 Z"
         id="path132" />
    </clipPath>
    <clipPath
       clipPathUnits="userSpaceOnUse"
       id="clipPath138">
      <path
         d="m 398.2,192.521 23.971,5.534 V 118.92 L 398.2,113.386 Z"
         id="path136" />
    </clipPath>
    <linearGradient
       x1="0"
       y1="0"
       x2="1"
       y2="0"
       gradientUnits="userSpaceOnUse"
       gradientTransform="matrix(96.472725,22.272541,5.76e-5,-96.47271,294.47855,122.27317)"
       spreadMethod="pad"
       id="linearGradient174">
      <stop
         style="stop-opacity:1;stop-color:#ffff00"
         offset="0"
         id="stop168" />
      <stop
         style="stop-opacity:1;stop-color:#ffbe00"
         offset="0.75"
         id="stop170" />
      <stop
         style="stop-opacity:1;stop-color:#ffbe00"
         offset="1"
         id="stop172" />
    </linearGradient>
    <clipPath
       clipPathUnits="userSpaceOnUse"
       id="clipPath184">
      <path
         d="M 0,429.985 H 500 V 0 H 0 Z"
         id="path182" />
    </clipPath>
    <clipPath
       clipPathUnits="userSpaceOnUse"
       id="clipPath192">
      <path
         d="M -65.81,321.062 H 582.819 V -153.642 H -65.81 Z"
         id="path190" />
    </clipPath>
    <clipPath
       clipPathUnits="userSpaceOnUse"
       id="clipPath196">
      <path
         d="m 382.535,172.843 c -5.877,5.4 -13.808,7.108 -23.096,4.964 -6.236,-1.44 -11.256,-4.047 -16.803,-8.867 -5.548,2.258 -10.537,2.555 -16.804,1.108 -9.26,-2.138 -17.218,-7.514 -23.095,-15.628 -6.182,-8.533 -8.263,-16.139 -8.263,-30.47 V 81.726 l 24.059,5.554 v 46.798 c 0,7.052 2.273,10.002 5.985,10.859 3.713,0.858 6.088,-1.02 6.088,-8.072 V 90.068 l 24.059,5.554 v 46.797 c 0,7.053 2.375,10.027 6.088,10.884 3.713,0.857 5.986,-1.044 5.986,-8.096 V 98.41 l 24.059,5.554 v 42.225 c 0,14.33 -2.082,20.975 -8.263,26.654"
         id="path194" />
    </clipPath>
    <linearGradient
       x1="0"
       y1="0"
       x2="1"
       y2="0"
       gradientUnits="userSpaceOnUse"
       gradientTransform="matrix(81.082436,18.719355,0,-81.082436,206.44519,98.351509)"
       spreadMethod="pad"
       id="linearGradient236">
      <stop
         style="stop-opacity:1;stop-color:#6ee6ff"
         offset="0"
         id="stop230" />
      <stop
         style="stop-opacity:1;stop-color:#00a0ff"
         offset="0.85"
         id="stop232" />
      <stop
         style="stop-opacity:1;stop-color:#00a0ff"
         offset="1"
         id="stop234" />
    </linearGradient>
    <clipPath
       clipPathUnits="userSpaceOnUse"
       id="clipPath246">
      <path
         d="M 0,429.985 H 500 V 0 H 0 Z"
         id="path244" />
    </clipPath>
    <clipPath
       clipPathUnits="userSpaceOnUse"
       id="clipPath254">
      <path
         d="M -65.81,321.062 H 493.722 V -65.9282 H -65.81 Z"
         id="path252" />
    </clipPath>
    <clipPath
       clipPathUnits="userSpaceOnUse"
       id="clipPath258">
      <path
         d="m 263.353,114.501 v -2.165 l -0.221,-2.363 -0.149,-2.649 -1.047,-2.033 -1.418,-1.895 -1.047,-0.989 -0.968,0.003 -0.6,-0.812 -1.042,-1.808 -0.447,-0.699 v -1.122 l 0.521,-0.7 -0.224,-0.798 -0.819,-0.637 -0.225,0.768 -0.598,0.388 -0.595,-0.438 -0.45,-1.896 -0.075,-2.33 -0.745,-0.845 -0.077,-1.286 -0.894,-0.579 -1.006,-0.269 -1.608,0.711 -0.819,0.261 -0.299,1.199 -0.745,-0.172 -0.823,-0.789 -1.269,-1.485 -0.599,0.53 -1.418,-0.102 -1.118,-0.929 -0.971,-0.151 -0.819,0.635 -2.69,-0.474 -0.745,1.843 -1.344,0.438 -1.121,-0.633 -1.903,-0.552 -0.26,2.591 -1.196,10.549 -0.819,6.156 -0.6,6.615 3.586,1.387 4.702,1.833 2.258,0.848 1.098,-0.372 1.195,-0.395 2.391,0.85 1.568,-1.056 0.968,0.296 2.542,1.782 1.341,0.533 1.494,0.719 1.863,2.221 1.568,2.08 1.794,1.456 3.282,2.683 1.346,-8.63 0.855,-4.766 -0.633,-0.484 -0.45,-0.774 z m -16.367,33.751 c -22.39,-5.169 -40.541,-27.51 -40.541,-49.9 0,-22.391 18.151,-36.351 40.541,-31.182 22.391,5.169 40.542,27.511 40.542,49.901 0,22.39 -18.151,36.351 -40.542,31.181"
         id="path256" />
    </clipPath>
    <linearGradient
       x1="0"
       y1="0"
       x2="1"
       y2="0"
       gradientUnits="userSpaceOnUse"
       gradientTransform="matrix(41.399673,9.5578671,0.0915646,-43.517395,162.52274,86.282707)"
       spreadMethod="pad"
       id="linearGradient294">
      <stop
         style="stop-opacity:1;stop-color:#ff8232"
         offset="0"
         id="stop288" />
      <stop
         style="stop-opacity:1;stop-color:#c80000"
         offset="0.75"
         id="stop290" />
      <stop
         style="stop-opacity:1;stop-color:#c80000"
         offset="1"
         id="stop292" />
    </linearGradient>
    <clipPath
       clipPathUnits="userSpaceOnUse"
       id="clipPath304">
      <path
         d="M 0,429.985 H 500 V 0 H 0 Z"
         id="path302" />
    </clipPath>
    <clipPath
       clipPathUnits="userSpaceOnUse"
       id="clipPath312">
      <path
         d="M -65.81,321.062 H 493.722 V -65.9282 H -65.81 Z"
         id="path310" />
    </clipPath>
    <clipPath
       clipPathUnits="userSpaceOnUse"
       id="clipPath316">
      <path
         d="m 174.734,128.669 23.972,5.535 V 55.069 l -23.972,-5.534 z"
         id="path314" />
    </clipPath>
    <linearGradient
       x1="0"
       y1="0"
       x2="1"
       y2="0"
       gradientUnits="userSpaceOnUse"
       gradientTransform="matrix(65.885445,15.210854,0,-65.885445,100.43793,81.893745)"
       spreadMethod="pad"
       id="linearGradient352">
      <stop
         style="stop-opacity:1;stop-color:#c8f000"
         offset="0"
         id="stop346" />
      <stop
         style="stop-opacity:1;stop-color:#14b400"
         offset="0.8"
         id="stop348" />
      <stop
         style="stop-opacity:1;stop-color:#14b400"
         offset="1"
         id="stop350" />
    </linearGradient>
    <clipPath
       clipPathUnits="userSpaceOnUse"
       id="clipPath362">
      <path
         d="M 0,429.985 H 500 V 0 H 0 Z"
         id="path360" />
    </clipPath>
    <clipPath
       clipPathUnits="userSpaceOnUse"
       id="clipPath370">
      <path
         d="M -65.81,321.062 H 493.722 V -65.9282 H -65.81 Z"
         id="path368" />
    </clipPath>
    <clipPath
       clipPathUnits="userSpaceOnUse"
       id="clipPath374">
      <path
         d="M 141.094,81.391 125.551,77.803 V 48.108 L 100.438,42.31 v 79.167 l 25.113,5.798 v -25.519 l 15.543,3.588 v 25.519 l 25.229,5.825 V 57.521 l -25.229,-5.824 z"
         id="path372" />
    </clipPath>
    <linearGradient
       x1="0"
       y1="0"
       x2="1"
       y2="0"
       gradientUnits="userSpaceOnUse"
       gradientTransform="matrix(81.082474,18.719364,0,-81.082474,11.826582,54.045299)"
       spreadMethod="pad"
       id="linearGradient410">
      <stop
         style="stop-opacity:1;stop-color:#ffff00"
         offset="0"
         id="stop404" />
      <stop
         style="stop-opacity:1;stop-color:#ffbe00"
         offset="0.75"
         id="stop406" />
      <stop
         style="stop-opacity:1;stop-color:#ffbe00"
         offset="1"
         id="stop408" />
    </linearGradient>
    <clipPath
       clipPathUnits="userSpaceOnUse"
       id="clipPath420">
      <path
         d="M 0,429.985 H 500 V 0 H 0 Z"
         id="path418" />
    </clipPath>
    <clipPath
       clipPathUnits="userSpaceOnUse"
       id="clipPath428">
      <path
         d="M -65.8099,321.062 H 493.722 V -65.9282 H -65.8099 Z"
         id="path426" />
    </clipPath>
    <clipPath
       clipPathUnits="userSpaceOnUse"
       id="clipPath432">
      <path
         d="m 64.394,47.675 -12.026,3.546 -12.026,-9.098 2.297,13.921 -9.73,7.237 13.446,5.058 6.013,13.572 6.013,-10.795 13.445,1.15 -9.729,-11.73 z M 52.368,103.946 C 29.978,98.777 11.827,76.436 11.827,54.045 c 0,-22.39 18.151,-36.35 40.541,-31.181 22.39,5.169 40.541,27.51 40.541,49.901 0,22.39 -18.151,36.35 -40.541,31.181"
         id="path430" />
    </clipPath>
    <radialGradient
       fx="0"
       fy="0"
       cx="0"
       cy="0"
       r="1"
       gradientUnits="userSpaceOnUse"
       gradientTransform="matrix(11.863887,0,0,-11.863887,426.90134,115.83073)"
       spreadMethod="pad"
       id="radialGradient468">
      <stop
         style="stop-opacity:1;stop-color:#faffc8"
         offset="0"
         id="stop462" />
      <stop
         style="stop-opacity:1;stop-color:#c8ff00"
         offset="0.45"
         id="stop464" />
      <stop
         style="stop-opacity:1;stop-color:#00a000"
         offset="1"
         id="stop466" />
    </radialGradient>
    <clipPath
       clipPathUnits="userSpaceOnUse"
       id="clipPath478">
      <path
         d="M 0,429.985 H 500 V 0 H 0 Z"
         id="path476" />
    </clipPath>
    <radialGradient
       fx="0"
       fy="0"
       cx="0"
       cy="0"
       r="1"
       gradientUnits="userSpaceOnUse"
       gradientTransform="matrix(10.330788,0,0,-10.330788,187.86716,139.74254)"
       spreadMethod="pad"
       id="radialGradient502">
      <stop
         style="stop-opacity:1;stop-color:#ffffa0"
         offset="0"
         id="stop496" />
      <stop
         style="stop-opacity:1;stop-color:#ffff00"
         offset="0.55"
         id="stop498" />
      <stop
         style="stop-opacity:1;stop-color:#ffc800"
         offset="1"
         id="stop500" />
    </radialGradient>
    <clipPath
       clipPathUnits="userSpaceOnUse"
       id="clipPath512">
      <path
         d="M 0,429.985 H 500 V 0 H 0 Z"
         id="path510" />
    </clipPath>
    <radialGradient
       fx="0"
       fy="0"
       cx="0"
       cy="0"
       r="1"
       gradientUnits="userSpaceOnUse"
       gradientTransform="matrix(11.988364,0,0,-11.988364,21.679518,21.599651)"
       spreadMethod="pad"
       id="radialGradient536">
      <stop
         style="stop-opacity:1;stop-color:#d9ffff"
         offset="0"
         id="stop530" />
      <stop
         style="stop-opacity:1;stop-color:#96d2ff"
         offset="0.42"
         id="stop532" />
      <stop
         style="stop-opacity:1;stop-color:#00aaff"
         offset="1"
         id="stop534" />
    </radialGradient>
    <clipPath
       clipPathUnits="userSpaceOnUse"
       id="clipPath546">
      <path
         d="M 0,429.985 H 500 V 0 H 0 Z"
         id="path544" />
    </clipPath>
  </defs>
  <sodipodi:namedview
     id="namedview4"
     pagecolor="#ffffff"
     bordercolor="#000000"
     borderopacity="0.25"
     inkscape:showpageshadow="2"
     inkscape:pageopacity="0.0"
     inkscape:pagecheckerboard="0"
     inkscape:deskcolor="#d1d1d1" />
  <g
     id="g8"
     inkscape:groupmode="layer"
     inkscape:label="Rhythm Paradise Ohiomix Logo"
     transform="matrix(1.3333333,0,0,-1.3333333,0,573.31333)">
    <g
       id="g10">
      <g
         id="g12"
         clip-path="url(#clipPath16)">
        <g
           id="g18"
           transform="translate(489.222,266.1369)">
          <path
             d="m 0,0 c 0,40.209 -24.848,74.696 -59.934,88.802 -11.846,43.229 -50.983,75.047 -97.31,75.047 -37.68,0 -70.6,-21.05 -87.954,-52.164 -10.732,3.711 -22.245,5.732 -34.223,5.732 -18.96,0 -36.762,-5.053 -52.132,-13.883 -13.785,7.254 -29.469,11.368 -46.097,11.368 -54.765,0 -99.319,-44.554 -99.319,-99.319 0,-11.56 1.993,-22.663 5.64,-32.99 -11.203,-15.094 -17.855,-33.859 -17.855,-54.174 0,-43.04 29.849,-79.129 69.628,-88.056 18.044,-21.137 46.142,-34.75 77.649,-34.75 21.313,0 41.066,6.231 57.203,16.804 12.124,-5.121 25.571,-7.974 39.718,-7.974 23.756,0 45.536,8.048 62.396,21.373 7.134,-1.508 14.528,-2.308 22.105,-2.308 49.155,0 90.646,33.408 102.982,78.708 C -23.707,-73.087 0,-39.273 0,0"
             style="fill:#0096e6;fill-opacity:1;fill-rule:nonzero;stroke:none"
             id="path20" />
        </g>
      </g>
    </g>
    <g
       id="g22">
      <g
         id="g24"
         clip-path="url(#clipPath28)">
        <g
           id="g30"
           transform="translate(477.7582,266.1369)">
          <path
             d="m 0,0 c 0,37.435 -24.464,69.226 -58.168,80.117 -8.52,41.221 -44.565,72.268 -87.612,72.268 -36.921,0 -68.69,-22.838 -82.362,-55.344 -12.088,5.712 -25.584,8.913 -39.815,8.913 -19.185,0 -37.036,-5.811 -51.896,-15.76 -13.46,8.389 -29.339,13.244 -46.334,13.244 -48.443,0 -87.854,-39.411 -87.854,-87.855 0,-12.431 2.601,-24.266 7.279,-34.994 -12.116,-13.901 -19.494,-32.17 -19.494,-52.17 0,-38.919 27.902,-71.313 64.413,-77.595 15.747,-20.385 41.878,-33.747 71.4,-33.747 21.32,0 40.871,6.972 56.021,18.521 12.151,-6.173 26.089,-9.691 40.9,-9.691 23.1,0 44.071,8.559 59.448,22.415 7.986,-2.179 16.385,-3.35 25.053,-3.35 45.831,0 84.202,32.537 93.238,75.723 C -23.316,-67.71 0,-36.546 0,0"
             style="fill:#ffffff;fill-opacity:1;fill-rule:nonzero;stroke:none"
             id="path32" />
        </g>
        <g
           id="g34"
           transform="translate(471.0027,266.1369)">
          <path
             d="m 0,0 c 0,35.904 -24.329,66.089 -57.319,74.831 -6.327,40.133 -40.493,70.798 -81.706,70.798 -36.744,0 -67.877,-24.379 -78.685,-58.107 -12.789,7.423 -27.643,11.676 -43.492,11.676 -19.41,0 -37.331,-6.376 -51.788,-17.147 -13.157,9.21 -29.161,14.631 -46.441,14.631 -44.79,0 -81.099,-36.309 -81.099,-81.099 0,-13.016 3.084,-25.306 8.534,-36.207 -12.816,-13.028 -20.749,-31.048 -20.749,-50.957 0,-36.563 26.754,-66.735 61.389,-71.333 14.264,-19.99 39.23,-33.254 67.668,-33.254 21.437,0 40.896,7.545 55.296,19.815 12.07,-6.952 26.332,-10.984 41.625,-10.984 22.801,0 43.324,8.941 57.674,23.21 8.462,-2.689 17.474,-4.145 26.827,-4.145 43.981,0 80.462,32.084 87.331,74.122 C -23.165,-64.613 0,-35.033 0,0"
             style="fill:#000000;fill-opacity:1;fill-rule:nonzero;stroke:none"
             id="path36" />
        </g>
        <g
           id="g38"
           transform="translate(500,214.8284)">
          <path
             d="m 0,0 -76.268,-17.623 v -92.872 L 0,-92.887 v 17.809 C 0,-66.251 -0.001,-56.4 -8.602,-47.365 -2.485,-38.392 0,-28.654 0,-14.844 Z"
             style="fill:#000000;fill-opacity:1;fill-rule:nonzero;stroke:none"
             id="path40" />
        </g>
      </g>
    </g>
    <g
       id="g42">
      <g
         id="g44">
        <g
           id="g50">
          <g
             id="g52">
            <path
               d="m 469.18,200.835 -0.003,-17.623 c 0,-4.099 -2.549,-8.267 -7.312,-9.366 v 0 c -4.763,-1.1 -7.313,1.891 -7.313,5.989 v 0 17.623 l -23.943,-5.54 v -7.954 c 0,-14.832 2.949,-22.437 11.066,-27.806 v 0 c -11.081,-13.639 -11.094,-22.942 -11.066,-32.431 v 0 -10.927 l 23.943,5.527 v 18.594 c 0,6.63 2.55,10.735 7.313,11.835 v 0 c 4.763,1.098 7.315,-1.828 7.315,-8.459 v 0 -18.593 l 23.943,5.528 v 10.927 c 0,9.496 0.001,18.81 -11.067,27.321 v 0 c 8.117,9.118 11.067,18.084 11.067,32.917 v 0 7.966 z"
               style="fill:url(#linearGradient60);stroke:none"
               id="path62" />
          </g>
        </g>
      </g>
    </g>
    <g
       id="g64">
      <g
         id="g66"
         clip-path="url(#clipPath70)">
        <g
           id="g72">
          <g
             id="g74" />
          <g
             id="g94">
            <g
               clip-path="url(#clipPath78)"
               opacity="0.199997"
               id="g92">
              <g
                 id="g90">
                <g
                   clip-path="url(#clipPath82)"
                   id="g88">
                  <g
                     transform="translate(54.5391,-153.6417)"
                     id="g86">
                    <path
                       d="M 0,0 -30.512,58.065 497.797,377.686 528.28,319.591 Z"
                       style="fill:#ffffff;fill-opacity:1;fill-rule:nonzero;stroke:none"
                       id="path84" />
                  </g>
                </g>
              </g>
            </g>
          </g>
        </g>
        <g
           id="g96"
           transform="translate(391.322,197.8105)">
          <path
             d="m 0,0 v -92.891 l 37.727,8.71 V 8.71 Z"
             style="fill:#000000;fill-opacity:1;fill-rule:nonzero;stroke:none"
             id="path98" />
        </g>
      </g>
    </g>
    <g
       id="g100">
      <g
         id="g102">
        <g
           id="g108">
          <g
             id="g110">
            <path
               d="m 398.2,192.521 v -79.135 l 23.971,5.534 v 79.135 z"
               style="fill:url(#linearGradient116);stroke:none"
               id="path118" />
          </g>
        </g>
      </g>
    </g>
    <g
       id="g120">
      <g
         id="g122"
         clip-path="url(#clipPath126)">
        <g
           id="g128">
          <g
             id="g130" />
          <g
             id="g150">
            <g
               clip-path="url(#clipPath134)"
               opacity="0.199997"
               id="g148">
              <g
                 id="g146">
                <g
                   clip-path="url(#clipPath138)"
                   id="g144">
                  <g
                     transform="translate(54.5391,-153.6417)"
                     id="g142">
                    <path
                       d="M 0,0 -30.512,58.065 497.797,377.686 528.28,319.591 Z"
                       style="fill:#ffffff;fill-opacity:1;fill-rule:nonzero;stroke:none"
                       id="path140" />
                  </g>
                </g>
              </g>
            </g>
          </g>
        </g>
        <g
           id="g152"
           transform="translate(387.7239,178.5544)">
          <path
             d="m 0,0 c -7.203,6.619 -16.985,8.739 -28.284,6.13 -6.171,-1.424 -11.498,-3.887 -16.805,-7.819 -5.305,1.482 -10.633,1.485 -16.803,0.061 -11.3,-2.609 -21.081,-9.246 -28.285,-19.191 -7.347,-10.144 -9.951,-19.4 -9.951,-35.372 v -49.104 L 9.952,-79.88 v 49.103 C 9.952,-14.804 7.348,-6.75 0,0"
             style="fill:#000000;fill-opacity:1;fill-rule:nonzero;stroke:none"
             id="path154" />
        </g>
      </g>
    </g>
    <g
       id="g156">
      <g
         id="g158">
        <g
           id="g164">
          <g
             id="g166">
            <path
               d="m 359.439,177.807 c -6.237,-1.44 -11.256,-4.047 -16.804,-8.866 v 0 c -5.547,2.257 -10.536,2.554 -16.803,1.107 v 0 c -9.26,-2.138 -17.218,-7.514 -23.095,-15.628 v 0 c -6.182,-8.534 -8.263,-16.139 -8.263,-30.469 v 0 -42.226 l 24.059,5.555 v 46.797 c 0,7.053 2.273,10.003 5.985,10.861 v 0 c 3.713,0.857 6.088,-1.021 6.088,-8.073 v 0 -46.797 l 24.059,5.554 v 46.798 c 0,7.052 2.376,10.026 6.088,10.882 v 0 c 3.713,0.858 5.986,-1.043 5.986,-8.095 v 0 -46.797 l 24.059,5.554 v 42.225 c 0,14.331 -2.082,20.974 -8.263,26.654 v 0 c -4.232,3.888 -9.529,5.863 -15.63,5.863 v 0 c -2.372,0 -4.866,-0.299 -7.466,-0.899"
               style="fill:url(#linearGradient174);stroke:none"
               id="path176" />
          </g>
        </g>
      </g>
    </g>
    <g
       id="g178">
      <g
         id="g180"
         clip-path="url(#clipPath184)">
        <g
           id="g186">
          <g
             id="g188" />
          <g
             id="g212">
            <g
               clip-path="url(#clipPath192)"
               opacity="0.199997"
               id="g210">
              <g
                 id="g208">
                <g
                   clip-path="url(#clipPath196)"
                   id="g206">
                  <g
                     transform="translate(-33.9845,-65.9282)"
                     id="g200">
                    <path
                       d="M 0,0 -31.825,65.563 495.881,386.99 527.707,321.427 Z"
                       style="fill:#ffffff;fill-opacity:1;fill-rule:nonzero;stroke:none"
                       id="path198" />
                  </g>
                  <g
                     transform="translate(54.5391,-153.6417)"
                     id="g204">
                    <path
                       d="M 0,0 -30.512,58.065 497.797,377.686 528.28,319.591 Z"
                       style="fill:#ffffff;fill-opacity:1;fill-rule:nonzero;stroke:none"
                       id="path202" />
                  </g>
                </g>
              </g>
            </g>
          </g>
        </g>
        <g
           id="g214"
           transform="translate(246.9861,155.1285)">
          <path
             d="m 0,0 c -26.146,-6.036 -47.417,-32.219 -47.417,-58.364 0,-26.146 21.271,-42.507 47.417,-36.47 26.146,6.036 47.417,32.218 47.417,58.364 C 47.417,-10.324 26.146,6.036 0,0"
             style="fill:#000000;fill-opacity:1;fill-rule:nonzero;stroke:none"
             id="path216" />
        </g>
      </g>
    </g>
    <g
       id="g218">
      <g
         id="g220">
        <g
           id="g226">
          <g
             id="g228">
            <path
               d="m 246.986,148.253 c -22.39,-5.17 -40.54,-27.511 -40.54,-49.902 v 0 c 0,-22.39 18.15,-36.35 40.54,-31.181 v 0 c 22.39,5.169 40.541,27.511 40.541,49.901 v 0 c 0,19.24 -13.406,32.255 -31.385,32.257 v 0 c -2.943,0 -6.006,-0.348 -9.156,-1.075 m 0.842,-29.274 2.541,1.782 1.341,0.533 1.494,0.719 1.863,2.22 1.568,2.08 1.795,1.457 3.281,2.683 1.346,-8.63 0.855,-4.766 -0.633,-0.484 -0.45,-0.774 0.524,-1.298 v -2.165 l -0.221,-2.363 -0.148,-2.649 -1.048,-2.033 -1.418,-1.895 -1.046,-0.989 -0.969,0.002 -0.6,-0.811 -1.042,-1.809 -0.447,-0.698 v -1.122 l 0.522,-0.7 -0.225,-0.798 -0.819,-0.636 -0.225,0.767 -0.598,0.387 -0.596,-0.437 -0.45,-1.895 -0.074,-2.331 -0.745,-0.845 -0.077,-1.286 -0.894,-0.579 -1.006,-0.268 -1.608,0.711 -0.819,0.26 -0.298,1.199 -0.746,-0.172 -0.823,-0.789 -1.269,-1.485 -0.598,0.53 -1.419,-0.101 -1.118,-0.93 -0.971,-0.151 -0.82,0.635 -2.689,-0.474 -0.745,1.843 -1.344,0.437 -1.121,-0.632 -1.903,-0.552 -0.26,2.591 -1.196,10.549 -0.819,6.156 -0.6,6.615 3.586,1.387 4.703,1.832 2.257,0.849 1.098,-0.373 1.195,-0.395 2.391,0.851 1.568,-1.056 z"
               style="fill:url(#linearGradient236);stroke:none"
               id="path238" />
          </g>
        </g>
      </g>
    </g>
    <g
       id="g240">
      <g
         id="g242"
         clip-path="url(#clipPath246)">
        <g
           id="g248">
          <g
             id="g250" />
          <g
             id="g270">
            <g
               clip-path="url(#clipPath254)"
               opacity="0.199997"
               id="g268">
              <g
                 id="g266">
                <g
                   clip-path="url(#clipPath258)"
                   id="g264">
                  <g
                     transform="translate(-33.9845,-65.9282)"
                     id="g262">
                    <path
                       d="M 0,0 -31.825,65.563 495.881,386.99 527.707,321.427 Z"
                       style="fill:#ffffff;fill-opacity:1;fill-rule:nonzero;stroke:none"
                       id="path260" />
                  </g>
                </g>
              </g>
            </g>
          </g>
        </g>
        <g
           id="g272"
           transform="translate(167.8584,133.958)">
          <path
             d="m 0,0 v -92.887 l 37.723,8.709 V 8.709 Z"
             style="fill:#000000;fill-opacity:1;fill-rule:nonzero;stroke:none"
             id="path274" />
        </g>
      </g>
    </g>
    <g
       id="g276">
      <g
         id="g278">
        <g
           id="g284">
          <g
             id="g286">
            <path
               d="M 174.734,128.669 V 49.534 l 23.972,5.535 v 79.134 z"
               style="fill:url(#linearGradient294);stroke:none"
               id="path296" />
          </g>
        </g>
      </g>
    </g>
    <g
       id="g298">
      <g
         id="g300"
         clip-path="url(#clipPath304)">
        <g
           id="g306">
          <g
             id="g308" />
          <g
             id="g328">
            <g
               clip-path="url(#clipPath312)"
               opacity="0.199997"
               id="g326">
              <g
                 id="g324">
                <g
                   clip-path="url(#clipPath316)"
                   id="g322">
                  <g
                     transform="translate(-33.9845,-65.9282)"
                     id="g320">
                    <path
                       d="M 0,0 -31.825,65.563 495.881,386.99 527.707,321.427 Z"
                       style="fill:#ffffff;fill-opacity:1;fill-rule:nonzero;stroke:none"
                       id="path318" />
                  </g>
                </g>
              </g>
            </g>
          </g>
        </g>
        <g
           id="g330"
           transform="translate(93.5621,126.7653)">
          <path
             d="m 0,0 v -92.918 l 79.638,18.386 v 92.918 z"
             style="fill:#000000;fill-opacity:1;fill-rule:nonzero;stroke:none"
             id="path332" />
        </g>
      </g>
    </g>
    <g
       id="g334">
      <g
         id="g336">
        <g
           id="g342">
          <g
             id="g344">
            <path
               d="m 141.095,130.864 v -25.52 l -15.544,-3.588 v 25.519 l -25.113,-5.797 V 42.31 l 25.113,5.798 v 29.695 l 15.544,3.588 V 51.697 l 25.229,5.824 v 79.167 z"
               style="fill:url(#linearGradient352);stroke:none"
               id="path354" />
          </g>
        </g>
      </g>
    </g>
    <g
       id="g356">
      <g
         id="g358"
         clip-path="url(#clipPath362)">
        <g
           id="g364">
          <g
             id="g366" />
          <g
             id="g386">
            <g
               clip-path="url(#clipPath370)"
               opacity="0.199997"
               id="g384">
              <g
                 id="g382">
                <g
                   clip-path="url(#clipPath374)"
                   id="g380">
                  <g
                     transform="translate(-33.9845,-65.9282)"
                     id="g378">
                    <path
                       d="M 0,0 -31.825,65.563 495.881,386.99 527.707,321.427 Z"
                       style="fill:#ffffff;fill-opacity:1;fill-rule:nonzero;stroke:none"
                       id="path376" />
                  </g>
                </g>
              </g>
            </g>
          </g>
        </g>
        <g
           id="g388"
           transform="translate(52.3676,110.8227)">
          <path
             d="m 0,0 c -26.146,-6.036 -47.417,-32.219 -47.417,-58.365 0,-26.146 21.271,-42.507 47.417,-36.47 26.146,6.036 47.418,32.218 47.418,58.364 C 47.418,-10.324 26.146,6.036 0,0"
             style="fill:#000000;fill-opacity:1;fill-rule:nonzero;stroke:none"
             id="path390" />
        </g>
      </g>
    </g>
    <g
       id="g392">
      <g
         id="g394">
        <g
           id="g400">
          <g
             id="g402">
            <path
               d="M 52.367,103.946 C 29.977,98.777 11.827,76.435 11.827,54.045 v 0 c 0,-22.39 18.15,-36.35 40.54,-31.181 v 0 c 22.391,5.169 40.542,27.511 40.542,49.901 v 0 c 0,19.24 -13.406,32.255 -31.385,32.257 v 0 c -2.944,0 -6.006,-0.348 -9.157,-1.076 m -9.729,-47.902 -9.729,7.238 13.446,5.057 6.012,13.572 6.014,-10.796 13.445,1.151 -9.729,-11.73 2.297,-12.86 -12.027,3.546 -12.025,-9.099 z"
               style="fill:url(#linearGradient410);stroke:none"
               id="path412" />
          </g>
        </g>
      </g>
    </g>
    <g
       id="g414">
      <g
         id="g416"
         clip-path="url(#clipPath420)">
        <g
           id="g422">
          <g
             id="g424" />
          <g
             id="g444">
            <g
               clip-path="url(#clipPath428)"
               opacity="0.199997"
               id="g442">
              <g
                 id="g440">
                <g
                   clip-path="url(#clipPath432)"
                   id="g438">
                  <g
                     transform="translate(-33.9845,-65.9282)"
                     id="g436">
                    <path
                       d="M 0,0 -31.825,65.563 495.881,386.99 527.707,321.427 Z"
                       style="fill:#ffffff;fill-opacity:1;fill-rule:nonzero;stroke:none"
                       id="path434" />
                  </g>
                </g>
              </g>
            </g>
          </g>
        </g>
        <g
           id="g446"
           transform="translate(449.3407,123.0158)">
          <path
             d="m 0,0 -15.69,1.635 -7.556,13.903 -6.393,-14.486 -15.55,-2.892 11.756,-10.553 -2.02,-15.601 13.632,7.852 14.259,-6.829 -3.28,15.475 z"
             style="fill:#000000;fill-opacity:1;fill-rule:nonzero;stroke:none"
             id="path448" />
        </g>
      </g>
    </g>
    <g
       id="g450">
      <g
         id="g452">
        <g
           id="g458">
          <g
             id="g460">
            <path
               d="m 423.135,119.729 -8.321,-1.548 6.277,-5.635 -1.08,-8.351 7.299,4.205 7.62,-3.65 -1.751,8.263 5.81,6.161 -8.408,0.876 -4.03,7.416 z"
               style="fill:url(#radialGradient468);stroke:none"
               id="path470" />
          </g>
        </g>
      </g>
    </g>
    <g
       id="g472">
      <g
         id="g474"
         clip-path="url(#clipPath478)">
        <g
           id="g480"
           transform="translate(199.092,140.7895)">
          <path
             d="m 0,0 5.524,12.703 -13.443,-3.319 -10.383,9.17 -0.996,-13.817 -11.936,-7.073 12.855,-5.187 2.983,-13.533 8.951,10.608 13.798,-1.33 z"
             style="fill:#000000;fill-opacity:1;fill-rule:nonzero;stroke:none"
             id="path482" />
        </g>
      </g>
    </g>
    <g
       id="g484">
      <g
         id="g486">
        <g
           id="g492">
          <g
             id="g494">
            <path
               d="m 183.983,142.935 -6.306,-3.737 6.803,-2.745 1.577,-7.154 4.73,5.607 7.271,-0.701 -3.884,6.219 2.92,6.716 -7.096,-1.752 -5.489,4.847 z"
               style="fill:url(#radialGradient502);stroke:none"
               id="path504" />
          </g>
        </g>
      </g>
    </g>
    <g
       id="g506">
      <g
         id="g508"
         clip-path="url(#clipPath512)">
        <g
           id="g514"
           transform="translate(32.6844,25.946)">
          <path
             d="m 0,0 2.94,14.804 -13.521,-6.658 -13.138,7.369 2.115,-14.912 -11.08,-10.255 14.866,-2.572 6.241,-13.722 7.116,13.355 14.986,1.758 z"
             style="fill:#000000;fill-opacity:1;fill-rule:nonzero;stroke:none"
             id="path516" />
        </g>
      </g>
    </g>
    <g
       id="g518">
      <g
         id="g520">
        <g
           id="g526">
          <g
             id="g528">
            <path
               d="m 15.723,24.899 -6.278,-5.81 8.439,-1.461 3.532,-7.766 4.03,7.562 8.468,0.993 -5.957,6.131 1.665,8.38 -7.65,-3.766 -7.446,4.175 z"
               style="fill:url(#radialGradient536);stroke:none"
               id="path538" />
          </g>
        </g>
      </g>
    </g>
    <g
       id="g540">
      <g
         id="g542"
         clip-path="url(#clipPath546)">
        <g
           id="g548"
           transform="translate(416.4941,214.7662)">
          <path
             d="M 0,0 V 6.784 L -1.706,-0.402 -3.554,-0.838 -5.22,5.553 v -6.784 l -1.747,-0.412 v 8.121 l 2.729,0.644 1.646,-6.054 0.02,0.005 1.605,6.82 2.694,0.635 V 0.407 Z m -12.613,-2.974 v 6.681 l -2.81,-0.663 V 4.48 L -7.99,6.232 V 4.797 l -2.709,-0.639 v -6.681 z"
             style="fill:#ff5500;fill-opacity:1;fill-rule:nonzero;stroke:none"
             id="path550" />
        </g>
        <g
           id="g552"
           transform="translate(392.8259,259.9332)">
          <path
             d="m 0,0 c 3.931,1.481 12.158,3.693 19.069,5.192 v 21.393 l -34.536,-7.973 v -57.178 l 34.481,7.96 v 9.526 c -4.534,-1.189 -13.877,-2.944 -17.99,-3.638 -5.01,-0.841 -5.723,5.539 -0.183,7.368 3.181,1.042 9.013,2.431 13.566,3.711 l -0.019,7.331 C 10.238,-7.149 4.644,-8.118 0.219,-8.739 -5.266,-9.525 -6.216,-2.34 0,0"
             style="fill:#ff5500;fill-opacity:1;fill-rule:nonzero;stroke:none"
             id="path554" />
        </g>
        <g
           id="g556"
           transform="translate(360.7635,220.5338)">
          <path
             d="m 0,0 c -0.202,1.9 -3.489,2.33 -8.607,3.557 -8.95,2.223 -14.489,7.495 -13.923,16.757 0.602,9.997 5.663,16.97 32.451,21.519 V 21.036 C 0.254,19.827 -5.082,18.019 -7.346,16.168 -9.76,14.209 -9.619,11.001 -6.135,9.837 c 1.514,-0.506 5.99,-2 8.694,-2.907 5.191,-1.73 7.73,-4.383 8.26,-9.079 1.495,-13.245 -22.479,-16.719 -32.363,-18.17 V -8.551 C -9.703,-6.165 0.457,-4.074 0,0"
             style="fill:#ff5500;fill-opacity:1;fill-rule:nonzero;stroke:none"
             id="path558" />
        </g>
        <g
           id="g560"
           transform="translate(319.2921,217.0598)">
          <path
             d="m 0,0 v 50.973 l 12.889,2.975 V 2.976 Z"
             style="fill:#ff5500;fill-opacity:1;fill-rule:nonzero;stroke:none"
             id="path562" />
        </g>
        <g
           id="g564"
           transform="translate(288.4854,208.5583)">
          <path
             d="m 0,0 c -3.547,-0.821 -5.083,0.366 -5.083,4.516 v 13.09 c 0,3.017 -0.156,5.427 2.706,6.235 C 3.84,25.596 10.787,22.269 11.445,15.504 12.213,7.642 7.84,1.81 0,0 M -13.822,43.641 V -11.957 C 13.054,-8.026 24.755,2.358 24.462,23 24.206,40.899 6.436,50.735 -13.822,43.641"
             style="fill:#ff5500;fill-opacity:1;fill-rule:nonzero;stroke:none"
             id="path566" />
        </g>
        <g
           id="g568"
           transform="translate(251.1701,199.9473)">
          <path
             d="m 0,0 -6.49,-1.498 c -1.632,-0.377 -2.56,0.639 -2.359,2.906 0.183,2.121 1.134,6.618 1.499,8.154 0.768,3.181 2.377,4.735 4.224,5.009 2.98,0.476 4.424,-1.7 5.576,-7.185 C 2.56,6.874 2.87,5.759 2.998,4.26 3.254,1.207 2.305,0.532 0,0 M 11.372,24.371 C 7.971,35.524 5.219,38.276 -1.554,36.712 -7.525,35.334 -10.919,32.225 -13.767,21.318 -16.564,10.604 -19.636,-4.571 -22.122,-21.903 l 9.836,2.139 c 0.183,1.371 0.512,2.98 0.987,5.43 0.512,2.468 1.847,4.233 4.498,4.845 2.182,0.504 6.245,1.442 7.679,1.773 2.052,0.474 3.93,-1.151 4.589,-3.894 0.438,-1.828 1.005,-4.406 1.353,-6.143 l 13.054,2.999 c -1.591,12.779 -5.12,28.046 -8.502,39.125"
             style="fill:#ff5500;fill-opacity:1;fill-rule:nonzero;stroke:none"
             id="path570" />
        </g>
        <g
           id="g572"
           transform="translate(203.0423,204.2669)">
          <path
             d="m 0,0 c -3.349,-0.785 -5.213,1.079 -5.213,5.066 v 3.852 c 0,2.778 0.54,5.188 3.017,5.973 C 4.998,17.17 10.009,14.069 10.009,9.2 10.009,4.649 6.526,1.533 0,0 m 24.25,16.645 c 0,17.7 -17.32,22.84 -38.503,15.272 V -23.77 l 9.028,2.085 v 12.853 c 0,2.184 1.606,1.803 3.091,0.479 1.042,-0.933 7.31,-7.004 11.689,-11.371 l 13.783,3.182 c 0,0 -12.016,12.273 -13.402,13.488 8.071,3.017 14.314,10.881 14.314,19.699"
             style="fill:#ff5500;fill-opacity:1;fill-rule:nonzero;stroke:none"
             id="path574" />
        </g>
        <g
           id="g576"
           transform="translate(167.5625,174.1317)">
          <path
             d="m 0,0 -6.49,-1.498 c -1.632,-0.377 -2.56,0.639 -2.359,2.906 0.183,2.121 1.134,6.618 1.499,8.154 0.768,3.181 2.377,4.735 4.224,5.009 2.98,0.476 4.424,-1.7 5.576,-7.185 C 2.56,6.874 2.87,5.759 2.998,4.26 3.254,1.207 2.305,0.532 0,0 M 11.372,24.371 C 7.971,35.524 5.219,38.276 -1.554,36.712 -7.525,35.334 -10.919,32.225 -13.767,21.318 -16.564,10.604 -19.636,-4.571 -22.122,-21.903 l 9.836,2.139 c 0.183,1.371 0.512,2.98 0.987,5.43 0.512,2.468 1.847,4.233 4.498,4.845 2.182,0.504 6.245,1.442 7.679,1.773 2.052,0.474 3.93,-1.151 4.589,-3.894 0.438,-1.828 1.005,-4.406 1.353,-6.143 l 13.054,2.999 c -1.591,12.779 -5.12,28.046 -8.502,39.125"
             style="fill:#ff5500;fill-opacity:1;fill-rule:nonzero;stroke:none"
             id="path578" />
        </g>
        <g
           id="g580"
           transform="translate(121.5263,184.8645)">
          <path
             d="m 0,0 c -4.059,-0.987 -6.399,0.073 -6.399,3.474 v 12.305 c 0,3.475 1.92,5.667 5.741,6.161 7.661,0.987 11.116,-3.492 11.116,-9.324 C 10.458,7.752 7.588,1.865 0,0 m -25.469,39.693 v -77.065 l 19.088,4.407 v 18.101 c 0,3.309 0.823,4.954 2.797,5.302 17.789,3.129 30.461,12.073 30.461,30.423 0,20.151 -21.648,30.991 -52.346,18.832"
             style="fill:#ff5500;fill-opacity:1;fill-rule:nonzero;stroke:none"
             id="path582" />
        </g>
        <g
           id="g584"
           transform="translate(368.9667,373.159)">
          <path
             d="m 0,0 c -5.266,-17.387 -8.246,-25.889 -10.842,-33.055 -4.424,-12.195 -9.013,-7.405 -11.152,-4.004 -2.487,3.985 -5.869,11.737 -11.738,25.943 L -48.23,-14.462 V -82.71 l 12.03,2.777 c -0.092,10.879 0.091,18.265 0.676,21.135 0.531,2.578 2.085,2.944 3.657,0.384 1.298,-2.102 3.346,-6.655 7.423,-16.016 l 8.061,1.861 c 4.442,11.939 6.839,17.958 8.54,20.902 1.371,2.395 3.985,4.077 4.771,-0.348 0.604,-3.346 0.549,-12.422 0.531,-23.538 l 12.469,2.879 V 2.292 Z"
             style="fill:#ffaa00;fill-opacity:1;fill-rule:nonzero;stroke:none"
             id="path586" />
        </g>
        <g
           id="g588"
           transform="translate(299.6014,337.525)">
          <path
             d="m 0,0 c -0.055,-9.324 -0.037,-17.826 -0.439,-20.934 -0.932,-7.423 -13.621,-10.768 -14.242,-3.931 -0.293,3.218 -0.549,7.469 -0.549,16.958 l -10.256,-2.368 v -62.527 l 13.072,3.018 c 0,9.927 0,14.241 0.164,17.641 0.458,8.959 13.914,10.988 15.084,3.2 0.53,-3.547 0.621,-5.247 0.621,-13.255 l 10.422,2.406 V 3.204 Z"
             style="fill:#ffaa00;fill-opacity:1;fill-rule:nonzero;stroke:none"
             id="path590" />
        </g>
        <g
           id="g592"
           transform="translate(230.2362,332.3604)">
          <path
             d="m 0,0 v -25.168 l 7.295,1.684 c 4.424,1.021 6.253,0.445 6.253,-7.386 v -32.308 l 11.975,2.744 v 29.637 c 0,13.164 1.236,16.486 7.752,17.99 l 5.96,1.376 V 9.058 Z"
             style="fill:#ffaa00;fill-opacity:1;fill-rule:nonzero;stroke:none"
             id="path594" />
        </g>
        <g
           id="g596"
           transform="translate(225.3364,315.7378)">
          <path
             d="m 0,0 -11.189,-2.583 c 0,0 0.164,-11.518 -0.274,-20.002 -0.64,-12.414 -13.146,-15.083 -14.151,-3.272 -0.512,6.198 -0.75,18.551 -0.75,18.551 l -13.913,-3.212 v -10.074 c 0,-24.042 15.632,-27.004 23.804,-20.148 0.494,0.421 0.987,0.677 1.39,0.494 0.457,-0.201 0.438,-0.695 0.256,-1.609 -0.494,-2.395 -4.041,-7.13 -11.208,-9.05 -5.466,-1.462 -10.823,-2.385 -13.493,-2.806 v -16.683 c 12.031,1.554 25.962,4.991 32.453,14.973 3.382,5.211 5.155,10.714 6.033,18.868 C 0.329,-23.718 0,0 0,0"
             style="fill:#ffaa00;fill-opacity:1;fill-rule:nonzero;stroke:none"
             id="path598" />
        </g>
        <g
           id="g600"
           transform="translate(164.363,316.7746)">
          <path
             d="m 0,0 c -0.055,-9.324 -0.037,-17.826 -0.439,-20.934 -0.932,-7.423 -13.621,-10.768 -14.242,-3.931 -0.293,3.218 -0.549,7.469 -0.549,16.958 l -10.256,-2.368 v -62.527 l 13.072,3.018 c 0,9.927 0,14.241 0.165,17.641 0.457,8.959 13.913,10.988 15.083,3.2 0.53,-3.547 0.621,-5.247 0.621,-13.255 l 10.422,2.406 V 3.204 Z"
             style="fill:#ffaa00;fill-opacity:1;fill-rule:nonzero;stroke:none"
             id="path602" />
        </g>
        <g
           id="g604"
           transform="translate(96.2776,279.1667)">
          <path
             d="m 0,0 c -4.991,-1.17 -7.77,1.609 -7.77,7.551 v 5.741 c 0,4.14 0.804,7.733 4.497,8.903 C 7.45,25.593 14.919,20.97 14.919,13.712 14.919,6.929 9.727,2.285 0,0 m 36.145,24.81 c 0,26.382 -25.815,34.043 -57.39,22.762 v -85.164 l 13.456,3.107 v 21.321 c 0,3.255 2.396,2.688 4.608,0.713 1.554,-1.389 10.896,-10.439 17.423,-16.948 l 20.543,4.743 c 0,0 -17.91,18.294 -19.976,20.104 12.03,4.497 21.336,16.218 21.336,29.362"
             style="fill:#ffaa00;fill-opacity:1;fill-rule:nonzero;stroke:none"
             id="path606" />
        </g>
      </g>
    </g>
  </g>
</svg>
