<?xml version="1.0" encoding="UTF-8" standalone="no"?>
<!-- Created with Inkscape (http://www.inkscape.org/) -->

<svg
   version="1.1"
   id="svg2"
   width="666.66669"
   height="571.08398"
   viewBox="0 0 666.66669 571.08398"
   sodipodi:docname="Rhythm Paradise Megamix Logo (Back View).ai"
   xmlns:inkscape="http://www.inkscape.org/namespaces/inkscape"
   xmlns:sodipodi="http://sodipodi.sourceforge.net/DTD/sodipodi-0.dtd"
   xmlns="http://www.w3.org/2000/svg"
   xmlns:svg="http://www.w3.org/2000/svg">
  <defs
     id="defs6">
    <clipPath
       clipPathUnits="userSpaceOnUse"
       id="clipPath16">
      <path
         d="M 0,428.313 H 500 V 0 H 0 Z"
         id="path14" />
    </clipPath>
  </defs>
  <sodipodi:namedview
     id="namedview4"
     pagecolor="#ffffff"
     bordercolor="#000000"
     borderopacity="0.25"
     inkscape:showpageshadow="2"
     inkscape:pageopacity="0.0"
     inkscape:pagecheckerboard="0"
     inkscape:deskcolor="#d1d1d1" />
  <g
     id="g8"
     inkscape:groupmode="layer"
     inkscape:label="Rhythm Paradise Megamix Logo (Back View)"
     transform="matrix(1.3333333,0,0,-1.3333333,0,571.084)">
    <g
       id="g10">
      <g
         id="g12"
         clip-path="url(#clipPath16)">
        <g
           id="g18"
           transform="translate(489.5255,25.0977)">
          <path
             d="m 0,0 2,14.096 -5.932,-3.327 v 25.205 c 0,15.1 -2.461,23.85 -9.407,33.438 -6.81,9.402 -16.056,15.675 -26.738,18.141 -5.834,1.347 -10.871,1.345 -15.885,-0.057 -5.014,3.717 -10.051,6.045 -15.884,7.392 -10.683,2.466 -19.929,0.462 -26.739,-5.795 -1.641,-1.508 -3.024,-3.091 -4.192,-4.819 -1.194,7.045 -4.636,13.817 -9.858,19.156 -5.2,5.318 -12.342,8.978 -21.858,11.125 l -27.957,6.454 V 92.452 c -1.828,3.786 -4.053,7.403 -6.649,10.726 -3.726,4.77 -7.941,8.784 -12.689,12.083 l 10.06,4.059 -11.283,6.686 -0.941,13.061 -9.816,-8.668 -12.707,3.138 3.978,-9.15 c -0.383,0.095 -0.759,0.197 -1.146,0.287 -6.426,1.483 -11.59,2.119 -19.054,2.345 l -5.223,0.159 v -5.876 c -0.475,0.836 -0.971,1.674 -1.509,2.519 -6.501,10.209 -17.376,18.128 -28.382,20.669 -11.019,2.544 -21.902,-0.353 -28.401,-7.56 -3.202,-3.551 -5.244,-7.395 -6.406,-12.441 -1.395,3.285 -3.205,6.399 -5.525,9.603 -6.811,9.401 -16.056,15.675 -26.739,18.141 -5.833,1.347 -10.869,1.344 -15.884,-0.057 -5.016,3.717 -10.053,6.045 -15.885,7.392 -10.682,2.466 -19.929,0.462 -26.738,-5.795 -1.283,-1.179 -2.412,-2.401 -3.401,-3.704 v 21.907 l -35.664,8.233 v -7.644 l -67.072,15.498 v -14.032 c 0,-13.056 2.35,-22.261 8.132,-30.743 -8.131,-8.541 -8.132,-17.854 -8.132,-26.198 V 100.256 L -432.109,87 l -2.379,-11.225 13.479,6.456 12.887,-7.423 -1.907,14.721 17.232,-3.978 V 78.26 l 104.061,-24.024 v 7.765 L -227.92,47.96 v -6.095 l 5.294,-2.224 c 8.356,-3.51 13.056,-5.102 19.342,-6.553 14.371,-3.318 24.261,-1.866 33.067,4.854 3.099,2.364 5.694,5.24 7.767,8.523 V 33.167 l 30.267,-6.987 c 8.73,-2.016 15.407,-2.471 21.706,1.482 0.897,0.562 1.72,1.203 2.485,1.902 V 13.581 l 82.757,-19.106 -5.137,-5.287 14.166,-1.661 6.728,-12.625 5.899,12.972 14.053,2.431 z"
             style="fill:#000000;fill-opacity:1;fill-rule:nonzero;stroke:none"
             id="path20" />
        </g>
        <g
           id="g22"
           transform="translate(10.778,264.4647)">
          <path
             d="m 0,0 c 0,40.209 24.848,74.696 59.934,88.802 11.846,43.229 50.983,75.047 97.31,75.047 37.68,0 70.6,-21.05 87.954,-52.164 10.732,3.711 22.245,5.732 34.223,5.732 18.96,0 36.762,-5.053 52.132,-13.883 13.785,7.254 29.469,11.368 46.097,11.368 54.765,0 99.319,-44.554 99.319,-99.319 0,-11.56 -1.993,-22.663 -5.64,-32.99 11.203,-15.094 17.855,-33.859 17.855,-54.174 0,-43.04 -29.849,-79.129 -69.628,-88.056 -18.044,-21.137 -46.142,-34.75 -77.649,-34.75 -21.313,0 -41.066,6.231 -57.203,16.804 -12.124,-5.121 -25.571,-7.974 -39.718,-7.974 -23.756,0 -45.536,8.048 -62.396,21.373 -7.134,-1.508 -14.528,-2.308 -22.105,-2.308 -49.155,0 -90.646,33.408 -102.982,78.708 C 23.707,-73.087 0,-39.273 0,0"
             style="fill:#0096e6;fill-opacity:1;fill-rule:nonzero;stroke:none"
             id="path24" />
        </g>
      </g>
    </g>
  </g>
</svg>
