<?xml version="1.0" encoding="UTF-8" standalone="no"?>
<!-- Created with Inkscape (http://www.inkscape.org/) -->

<svg
   version="1.1"
   id="svg1"
   width="666.66669"
   height="474.14667"
   viewBox="0 0 666.66669 474.14667"
   sodipodi:docname="Rhythm Tengoku Logo but English.ai"
   xmlns:inkscape="http://www.inkscape.org/namespaces/inkscape"
   xmlns:sodipodi="http://sodipodi.sourceforge.net/DTD/sodipodi-0.dtd"
   xmlns="http://www.w3.org/2000/svg"
   xmlns:svg="http://www.w3.org/2000/svg">
  <defs
     id="defs1">
    <clipPath
       clipPathUnits="userSpaceOnUse"
       id="clipPath2">
      <path
         d="M 0,355.61 H 500 V 0 H 0 Z"
         transform="translate(-467.77411,-245.0457)"
         id="path2" />
    </clipPath>
    <clipPath
       clipPathUnits="userSpaceOnUse"
       id="clipPath4">
      <path
         d="M 0,355.61 H 500 V 0 H 0 Z"
         transform="translate(-455.94991,-240.5067)"
         id="path4" />
    </clipPath>
    <clipPath
       clipPathUnits="userSpaceOnUse"
       id="clipPath6">
      <path
         d="M 0,355.61 H 500 V 0 H 0 Z"
         transform="translate(-445.83811,-236.63661)"
         id="path6" />
    </clipPath>
    <clipPath
       clipPathUnits="userSpaceOnUse"
       id="clipPath8">
      <path
         d="M 0,355.61 H 500 V 0 H 0 Z"
         transform="translate(-425.96751,-209.48081)"
         id="path8" />
    </clipPath>
    <clipPath
       clipPathUnits="userSpaceOnUse"
       id="clipPath10">
      <path
         d="M 0,355.61 H 500 V 0 H 0 Z"
         transform="translate(-375.65351,-154.7064)"
         id="path10" />
    </clipPath>
    <clipPath
       clipPathUnits="userSpaceOnUse"
       id="clipPath12">
      <path
         d="M 0,355.61 H 500 V 0 H 0 Z"
         transform="translate(-318.20531,-149.3699)"
         id="path12" />
    </clipPath>
    <clipPath
       clipPathUnits="userSpaceOnUse"
       id="clipPath14">
      <path
         d="M 0,355.61 H 500 V 0 H 0 Z"
         transform="translate(-262.29811,-108.9183)"
         id="path14" />
    </clipPath>
    <clipPath
       clipPathUnits="userSpaceOnUse"
       id="clipPath16">
      <path
         d="M 0,355.61 H 500 V 0 H 0 Z"
         transform="translate(-227.86981,-151.8524)"
         id="path16" />
    </clipPath>
    <clipPath
       clipPathUnits="userSpaceOnUse"
       id="clipPath18">
      <path
         d="M 0,355.61 H 500 V 0 H 0 Z"
         transform="translate(-165.44361,-86.622405)"
         id="path18" />
    </clipPath>
    <clipPath
       clipPathUnits="userSpaceOnUse"
       id="clipPath20">
      <path
         d="M 0,355.61 H 500 V 0 H 0 Z"
         transform="translate(-143.26,-140.77961)"
         id="path20" />
    </clipPath>
    <clipPath
       clipPathUnits="userSpaceOnUse"
       id="clipPath22">
      <path
         d="M 0,355.61 H 500 V 0 H 0 Z"
         transform="translate(-405.15351,-219.28061)"
         id="path22" />
    </clipPath>
    <clipPath
       clipPathUnits="userSpaceOnUse"
       id="clipPath24">
      <path
         d="M 0,355.61 H 500 V 0 H 0 Z"
         transform="translate(-317.60371,-263.25081)"
         id="path24" />
    </clipPath>
    <clipPath
       clipPathUnits="userSpaceOnUse"
       id="clipPath26">
      <path
         d="M 0,355.61 H 500 V 0 H 0 Z"
         transform="translate(-240.76881,-253.27331)"
         id="path26" />
    </clipPath>
    <clipPath
       clipPathUnits="userSpaceOnUse"
       id="clipPath28">
      <path
         d="M 0,355.61 H 500 V 0 H 0 Z"
         transform="translate(-234.71311,-241.1082)"
         id="path28" />
    </clipPath>
    <clipPath
       clipPathUnits="userSpaceOnUse"
       id="clipPath30">
      <path
         d="M 0,355.61 H 500 V 0 H 0 Z"
         transform="translate(-165.5608,-230.10041)"
         id="path30" />
    </clipPath>
    <clipPath
       clipPathUnits="userSpaceOnUse"
       id="clipPath32">
      <path
         d="M 0,355.61 H 500 V 0 H 0 Z"
         transform="translate(-93.430405,-181.1136)"
         id="path32" />
    </clipPath>
  </defs>
  <sodipodi:namedview
     id="namedview1"
     pagecolor="#ffffff"
     bordercolor="#000000"
     borderopacity="0.25"
     inkscape:showpageshadow="2"
     inkscape:pageopacity="0.0"
     inkscape:pagecheckerboard="0"
     inkscape:deskcolor="#d1d1d1">
    <inkscape:page
       x="0"
       y="0"
       inkscape:label="1"
       id="page1"
       width="666.66669"
       height="474.14667"
       margin="0"
       bleed="0" />
  </sodipodi:namedview>
  <g
     id="layer-MC0"
     inkscape:groupmode="layer"
     inkscape:label="Layer 1">
    <path
       id="path1"
       d="m 0,0 c 0.231,2.798 0.355,5.625 0.355,8.482 0,56.288 -45.793,102.082 -102.081,102.082 -34.87,0 -65.707,-17.578 -84.13,-44.334 -13.178,6.492 -27.995,10.147 -43.651,10.147 -32.291,0 -61.022,-15.526 -79.128,-39.502 -15.582,8.977 -33.642,14.116 -52.881,14.116 -58.591,0 -106.258,-47.667 -106.258,-106.259 0,-30.457 12.884,-57.958 33.484,-77.35 -0.308,-3.228 -0.471,-6.498 -0.471,-9.805 0,-56.586 46.036,-102.623 102.622,-102.623 33.737,0 63.72,16.366 82.436,41.573 14.53,-7.474 30.996,-11.696 48.429,-11.696 37.264,0 70.102,19.288 89.07,48.401 12.964,-5.991 27.389,-9.341 42.582,-9.341 56.16,0 101.848,45.689 101.848,101.847 C 32.226,-45.004 19.821,-18.594 0,0"
       style="fill:#00b3f0;fill-opacity:1;fill-rule:nonzero;stroke:none"
       transform="matrix(1.3333333,0,0,-1.3333333,623.6988,147.41907)"
       clip-path="url(#clipPath2)" />
    <path
       id="path3"
       d="m 0,0 c 0.614,4.254 0.937,8.6 0.937,13.021 0,50.09 -40.75,90.84 -90.839,90.84 -34.695,0 -64.904,-19.554 -80.199,-48.218 -13.722,8.874 -30.06,14.031 -47.582,14.031 -32.373,0 -60.71,-17.601 -75.953,-43.733 -15.724,11.528 -35.107,18.348 -56.055,18.348 -52.392,0 -95.017,-42.625 -95.017,-95.018 0,-29.244 13.284,-55.44 34.13,-72.884 -0.733,-4.652 -1.117,-9.417 -1.117,-14.271 0,-50.388 40.993,-91.381 91.381,-91.381 33.623,0 63.058,18.256 78.926,45.374 14.936,-9.792 32.783,-15.497 51.938,-15.497 36.978,0 69.085,21.24 84.772,52.157 13.685,-8.309 29.734,-13.097 46.881,-13.097 49.96,0 90.605,40.645 90.605,90.605 C 32.808,-41.712 20.031,-16.633 0,0"
       style="fill:#ffffff;fill-opacity:1;fill-rule:nonzero;stroke:none"
       transform="matrix(1.3333333,0,0,-1.3333333,607.9332,153.47107)"
       clip-path="url(#clipPath4)" />
    <path
       id="path5"
       d="m 0,0 c 1.148,5.451 1.762,11.099 1.762,16.892 0,45.04 -36.512,81.552 -81.553,81.552 -35.088,0 -64.996,-22.163 -76.501,-53.252 -13.765,11.871 -31.676,19.065 -51.279,19.065 -32.972,0 -61.183,-20.317 -72.844,-49.107 -15.387,14.686 -36.214,23.722 -59.164,23.722 -47.348,0 -85.73,-38.383 -85.73,-85.73 0,-28.372 13.79,-53.514 35.025,-69.118 -1.302,-5.807 -2.012,-11.838 -2.012,-18.038 0,-45.339 36.754,-82.094 82.093,-82.094 33.982,0 63.14,20.648 75.617,50.082 14.92,-12.598 34.191,-20.205 55.248,-20.205 37.255,0 68.944,23.776 80.756,56.977 13.935,-11.201 31.627,-17.917 50.897,-17.917 44.911,0 81.318,36.407 81.318,81.318 C 33.633,-38.76 20.372,-14.778 0,0"
       style="fill:#130c0e;fill-opacity:1;fill-rule:nonzero;stroke:none"
       transform="matrix(1.3333333,0,0,-1.3333333,594.4508,158.6312)"
       clip-path="url(#clipPath6)" />
    <path
       id="path7"
       d="m 0,0 c -0.002,-0.306 -0.217,-32.977 -0.93,-42.657 -0.546,-8.079 -4.94,-12.872 -8.898,-12.872 h -0.061 c -2.667,0.032 -5.616,2.391 -5.894,8.913 -0.408,9.722 -0.413,38.294 -0.413,38.556 l -14.634,-3.378 v -28.206 c 0,-14.357 2.668,-23.46 8.157,-27.826 2.546,-2.025 5.659,-3.031 9.425,-3.031 1.931,0 4.033,0.264 6.318,0.792 12.616,2.912 27.097,10.411 27.097,42.827 V 4.656 Z"
       style="fill:#f15a22;fill-opacity:1;fill-rule:nonzero;stroke:none"
       transform="matrix(1.3333333,0,0,-1.3333333,567.95667,194.83893)"
       clip-path="url(#clipPath8)" />
    <path
       id="path9"
       d="M 0,0 15.88,36.905 -2.885,32.572 -11.688,2.549 c -1.085,-3.505 -2.459,-4.592 -3.989,-4.408 -1.082,0.129 -1.427,1.663 -1.427,3.676 v 24.792 l -12.055,-2.782 v -60.986 l 12.055,2.784 v 8.901 c 0,11.315 4.461,12.099 8.169,10.342 2.858,-1.354 4.612,-6.751 5.008,-13.883 l 17.456,4.031 C 12.939,-9.378 4.449,-0.912 0,0"
       style="fill:#f15a22;fill-opacity:1;fill-rule:nonzero;stroke:none"
       transform="matrix(1.3333333,0,0,-1.3333333,500.87133,267.87147)"
       clip-path="url(#clipPath10)" />
    <path
       id="path11"
       d="M 0,0 C -7.751,3.044 -17.144,-2.042 -14.591,-17.32 -12.676,-29.099 -2.645,-28.606 2.28,-23 7.295,-17.192 9.94,-3.906 0,0 m 19.878,-15.073 c -2.316,-5.938 -8.587,-17.806 -20.552,-20.182 -8.973,-1.783 -20.552,2.008 -25.279,14.522 -7.045,18.636 3.763,47.279 26.148,47.912 18.622,0.537 27.402,-22.812 19.683,-42.252"
       style="fill:#f15a22;fill-opacity:1;fill-rule:nonzero;stroke:none"
       transform="matrix(1.3333333,0,0,-1.3333333,424.27373,274.9868)"
       clip-path="url(#clipPath12)" />
    <path
       id="path13"
       d="m 0,0 5.065,1.169 c -2.991,-6.601 -8.103,-8.844 -11.973,-8.093 -3.928,0.759 -8.125,4.773 -8.125,13.763 0,7.919 2.682,14.689 7.169,18.105 2.722,2.011 5.764,2.557 8.34,1.496 2.86,-1.178 4.787,-4.102 5.424,-8.233 l 0.08,-0.52 17.406,4.019 c -0.282,8.711 -4.077,17.096 -10.135,21.757 -5.196,3.999 -11.551,5.28 -18.373,3.704 -7.995,-1.846 -14.512,-6.96 -18.848,-14.789 -5.511,-9.951 -6.695,-23.271 -3.014,-33.937 2.862,-8.126 10.211,-14.136 18.723,-15.313 1.03,-0.143 2.054,-0.212 3.071,-0.212 7.431,0 14.44,3.755 19.729,10.628 v -6.689 l 8.835,2.041 V 16.42 L 0,11.022 Z"
       style="fill:#f15a22;fill-opacity:1;fill-rule:nonzero;stroke:none"
       transform="matrix(1.3333333,0,0,-1.3333333,349.7308,328.92227)"
       clip-path="url(#clipPath14)" />
    <path
       id="path15"
       d="m 0,0 v -67.455 l -12.304,-2.84 c -5.219,8.488 -8.575,13.399 -10.998,15.73 -3.263,2.88 -5.5,2.364 -5.5,-5.745 l -0.093,-13.815 -9.228,-2.131 v 60.586 l 7.55,1.742 c 5.22,-10.073 10.999,-21.695 14.169,-23.759 1.49,-1.054 3.355,-0.81 3.821,6.009 0.279,4.351 0.373,28.859 0.373,28.859 z"
       style="fill:#f15a22;fill-opacity:1;fill-rule:nonzero;stroke:none"
       transform="matrix(1.3333333,0,0,-1.3333333,303.8264,271.6768)"
       clip-path="url(#clipPath16)" />
    <path
       id="path17"
       d="m 0,0 c -0.355,-0.002 -2.987,0.087 -3.269,2.095 -0.163,1.163 0.395,2.255 1.8,3.113 2.196,1.344 9.797,3.528 17.092,5.239 v 10.089 c 0,0 -13.21,-3.179 -17.272,-2.575 -1.234,0.184 -2.056,0.836 -2.219,1.976 -0.167,1.165 0.42,2.215 1.799,3.113 3.715,2.42 20.391,6.017 20.391,6.017 v 25.09 L -16.013,46.23 v -62.05 l 35.055,8.092 V 3.353 C 9.686,1.227 3.362,0.018 0,0"
       style="fill:#f15a22;fill-opacity:1;fill-rule:nonzero;stroke:none"
       transform="matrix(1.3333333,0,0,-1.3333333,220.59147,358.65013)"
       clip-path="url(#clipPath18)" />
    <path
       id="path19"
       d="m 0,0 v -25.406 l -7.458,-1.722 c -8.09,-1.868 -9.606,-6.01 -9.606,-22.317 v -36.658 l -14.79,-3.414 v 40.071 c 0,9.732 -2.275,10.345 -7.837,9.061 l -8.975,-2.072 v 31.221 z"
       style="fill:#f15a22;fill-opacity:1;fill-rule:nonzero;stroke:none"
       transform="matrix(1.3333333,0,0,-1.3333333,191.01333,286.44053)"
       clip-path="url(#clipPath20)" />
    <path
       id="path21"
       d="m 0,0 v 81.156 l -11.094,-2.561 c -5.884,-19.43 -9.212,-28.931 -12.115,-36.939 -4.941,-13.629 -10.08,-8.279 -12.463,-4.475 -2.787,4.449 -6.558,13.118 -13.117,28.993 l -16.201,-3.74 v -75.095 l 13.434,3.102 c -0.102,12.156 0.108,19.241 0.765,22.448 0.59,2.882 2.326,3.287 4.086,0.429 1.448,-2.351 3.739,-7.437 8.295,-17.897 l 9.01,2.08 c 4.965,13.341 7.648,20.063 9.541,23.356 1.538,2.674 4.448,4.555 5.333,-0.388 0.669,-3.74 0.612,-11.264 0.592,-23.686 z"
       style="fill:#faa61a;fill-opacity:1;fill-rule:nonzero;stroke:none"
       transform="matrix(1.3333333,0,0,-1.3333333,540.20467,181.77253)"
       clip-path="url(#clipPath22)" />
    <path
       id="path23"
       d="m 0,0 c 0,0 0.267,-17.626 -0.334,-23.461 -0.797,-7.745 -14.524,-10.418 -15.105,-2.503 -0.259,3.533 -0.458,8.088 -0.458,18.492 l -11.218,-2.59 v -69.52 l 15.382,3.551 v 16.055 c 0,12.348 15.339,13.38 16.165,4.749 0.26,-2.714 0.392,-6.944 0.392,-15.724 l 11.218,2.59 V 3.704 Z"
       style="fill:#faa61a;fill-opacity:1;fill-rule:nonzero;stroke:none"
       transform="matrix(1.3333333,0,0,-1.3333333,423.4716,123.1456)"
       clip-path="url(#clipPath24)" />
    <path
       id="path25"
       d="m 0,0 v -28.65 l 10.35,2.389 c 4.125,0.952 5.573,0.077 5.544,-8.21 V -71.29 l 12.262,2.832 v 34.071 c 0.085,14.627 1.802,17.654 9.075,19.334 l 6.495,1.499 v 23.649 z"
       style="fill:#faa61a;fill-opacity:1;fill-rule:nonzero;stroke:none"
       transform="matrix(1.3333333,0,0,-1.3333333,321.02507,136.44893)"
       clip-path="url(#clipPath26)" />
    <path
       id="path27"
       d="m 0,0 -13.079,-3.02 c 0,0 -0.081,-9.896 -0.805,-23.002 -0.769,-13.932 -15.778,-18.204 -16.635,-4.031 -0.547,9.053 -0.46,21.328 -0.46,21.328 l -15.655,-3.614 v -6.703 c 0,-26.102 2.999,-34.959 18.766,-33.257 3.687,0.399 6.494,1.57 9.659,3.712 0.197,0.133 0.447,0.136 0.682,-0.045 0.225,-0.175 0.589,-0.76 0.04,-2.464 -2.956,-9.178 -28.28,-11.907 -28.28,-11.907 v -20.51 c 14.473,2.13 30.226,5.212 38.492,18.946 C -4.187,-59.438 0,-53.244 0,0"
       style="fill:#faa61a;fill-opacity:1;fill-rule:nonzero;stroke:none"
       transform="matrix(1.3333333,0,0,-1.3333333,312.9508,152.66907)"
       clip-path="url(#clipPath28)" />
    <path
       id="path29"
       d="m 0,0 c 0,0 0.253,-16.752 -0.317,-22.297 -0.758,-7.36 -13.804,-9.901 -14.356,-2.379 -0.246,3.358 -0.435,7.688 -0.435,17.574 L -25.77,-9.563 v -66.07 l 14.619,3.375 V -57 c 0,11.735 14.578,12.717 15.363,4.514 0.247,-2.579 0.372,-6.6 0.372,-14.944 l 10.662,2.461 V 3.52 Z"
       style="fill:#faa61a;fill-opacity:1;fill-rule:nonzero;stroke:none"
       transform="matrix(1.3333333,0,0,-1.3333333,220.74773,167.34613)"
       clip-path="url(#clipPath30)" />
    <path
       id="path31"
       d="m 0,0 c -6.694,-1.707 -10.642,1.879 -10.642,10.877 0,7.178 0.135,14.588 13.276,14.588 9.355,0 13.267,-4.737 13.267,-10.081 C 15.901,10.73 10.208,2.603 0,0 m 39.285,29.647 c 0,16.528 -12.178,36.519 -63.129,24.256 v -89.888 l 13.268,3.063 v 16.24 c 0,6.601 3.804,5.385 6.23,3.805 1.885,-1.228 5.882,-4.449 15.331,-15.067 l 22.54,5.203 -17.565,17.985 c 0,0 23.325,9.391 23.325,34.403"
       style="fill:#faa61a;fill-opacity:1;fill-rule:nonzero;stroke:none"
       transform="matrix(1.3333333,0,0,-1.3333333,124.57387,232.66187)"
       clip-path="url(#clipPath32)" />
  </g>
</svg>
