<?xml version="1.0" encoding="UTF-8" standalone="no"?>
<!-- Created with Inkscape (http://www.inkscape.org/) -->

<svg
   version="1.1"
   id="svg2"
   width="666.66669"
   height="493.02667"
   viewBox="0 0 666.66669 493.02667"
   sodipodi:docname="Rhythm Heaven Logo but different.ai"
   xmlns:inkscape="http://www.inkscape.org/namespaces/inkscape"
   xmlns:sodipodi="http://sodipodi.sourceforge.net/DTD/sodipodi-0.dtd"
   xmlns="http://www.w3.org/2000/svg"
   xmlns:svg="http://www.w3.org/2000/svg">
  <defs
     id="defs6">
    <clipPath
       clipPathUnits="userSpaceOnUse"
       id="clipPath16">
      <path
         d="M 0,369.77 H 500 V 0 H 0 Z"
         id="path14" />
    </clipPath>
  </defs>
  <sodipodi:namedview
     id="namedview4"
     pagecolor="#ffffff"
     bordercolor="#000000"
     borderopacity="0.25"
     inkscape:showpageshadow="2"
     inkscape:pageopacity="0.0"
     inkscape:pagecheckerboard="0"
     inkscape:deskcolor="#d1d1d1" />
  <g
     id="g8"
     inkscape:groupmode="layer"
     inkscape:label="Rhythm Heaven Logo but different"
     transform="matrix(1.3333333,0,0,-1.3333333,0,493.02667)">
    <g
       id="g10">
      <g
         id="g12"
         clip-path="url(#clipPath16)">
        <g
           id="g18"
           transform="translate(472.1941,237.9969)">
          <path
             d="m 0,0 c 3.547,10.354 5.387,21.3 5.387,32.313 0,54.842 -44.618,99.46 -99.46,99.46 -21.962,0 -42.783,-7.021 -60.215,-20.304 -8.771,-6.684 -16.369,-14.828 -22.472,-23.958 -15.875,10.273 -34.511,15.881 -53.904,15.881 -31.602,0 -60.959,-15.251 -79.44,-39.77 -16.966,11.336 -37.05,17.552 -57.857,17.552 -57.475,0 -104.233,-46.759 -104.233,-104.233 0,-40.09 22.91,-75.957 57.711,-93.301 -1.336,-6.597 -2.009,-13.336 -2.009,-20.173 0,-55.947 45.518,-101.464 101.466,-101.464 21.005,0 41.163,6.37 58.295,18.419 10.418,7.327 19.257,16.412 26.188,26.829 11.725,-4.579 24.255,-6.949 37.064,-6.949 19.634,0 38.71,5.605 55.166,16.206 9.719,6.263 18.254,14.081 25.295,23.101 12.785,-5.807 26.681,-8.816 41.053,-8.816 55.014,0 99.771,44.854 99.771,99.987 C 27.806,-43.364 17.629,-18.478 0,0"
             style="fill:#00b3f0;fill-opacity:1;fill-rule:nonzero;stroke:none"
             id="path20" />
        </g>
        <g
           id="g22"
           transform="translate(460.2644,235.3812)">
          <path
             d="m 0,0 c 4.665,10.989 7.104,22.912 7.104,34.928 0,49.212 -40.037,89.248 -89.248,89.248 -19.706,0 -38.387,-6.299 -54.023,-18.215 -10.731,-8.178 -19.509,-18.788 -25.593,-30.756 -15.878,13.228 -35.929,20.589 -56.974,20.589 -31.844,0 -61.148,-17.262 -76.941,-44.176 -16.813,14.092 -38.127,21.959 -60.357,21.959 -51.843,0 -94.02,-42.178 -94.02,-94.02 0,-38.941 23.963,-73.465 59.474,-87.464 -2.505,-8.406 -3.771,-17.115 -3.771,-26.01 0,-50.316 40.936,-91.251 91.252,-91.251 33.663,0 64.618,18.891 80.365,48.043 12.715,-6.402 26.749,-9.744 41.182,-9.744 31.268,0 60.466,16.246 77.246,42.206 13.429,-7.693 28.531,-11.715 44.269,-11.715 49.383,0 89.557,40.273 89.557,89.774 C 29.522,-41.241 18.621,-16.92 0,0"
             style="fill:#ffffff;fill-opacity:1;fill-rule:nonzero;stroke:none"
             id="path24" />
        </g>
        <g
           id="g26"
           transform="translate(447.5984,232.6053)">
          <path
             d="m 0,0 c 6.094,11.207 9.557,24.051 9.557,37.704 0,43.65 -35.385,79.035 -79.036,79.035 -35.964,0 -66.297,-24.031 -75.872,-56.906 -14.47,17.425 -36.295,28.524 -60.717,28.524 -33.842,0 -62.697,-21.314 -73.901,-51.246 -15.367,17.769 -38.06,29.029 -63.397,29.029 -46.285,0 -83.807,-37.522 -83.807,-83.807 0,-38.91 26.519,-71.617 62.466,-81.056 -4.34,-9.93 -6.763,-20.888 -6.763,-32.417 0,-44.757 36.283,-81.039 81.039,-81.039 34.65,0 64.205,21.753 75.793,52.342 13.055,-8.865 28.801,-14.043 45.754,-14.043 32.49,0 60.547,19.017 73.713,46.554 13.295,-10.078 29.85,-16.063 47.802,-16.063 43.82,0 79.345,35.62 79.345,79.56 C 31.976,-37.693 19.406,-14.503 0,0"
             style="fill:#130c0e;fill-opacity:1;fill-rule:nonzero;stroke:none"
             id="path28" />
        </g>
        <g
           id="g30"
           transform="translate(458.405,143.9252)">
          <path
             d="m 0,0 v 7.87 l -1.979,-8.327 -2.142,-0.494 -1.932,7.424 v -7.87 l -2.025,-0.468 v 9.421 l 3.165,0.73 1.907,-7.031 0.024,0.005 1.861,7.902 3.123,0.721 V 0.462 Z m -14.623,-3.376 v 7.75 l -3.259,-0.752 v 1.665 l 8.618,1.989 V 5.611 l -3.14,-0.725 v -7.749 z"
             style="fill:#f15a22;fill-opacity:1;fill-rule:nonzero;stroke:none"
             id="path32" />
        </g>
        <g
           id="g34"
           transform="translate(419.6853,225.7548)">
          <path
             d="m 0,0 c 0,0 -0.127,-33.221 -0.541,-39.064 -0.646,-9.129 -3.099,-9.373 -5.186,-8.004 -4.164,2.732 -11.946,18.29 -18.913,31.82 l -10.165,-2.347 v -84.068 l 12.43,2.87 0.042,21.331 c 0.021,10.95 3.011,11.662 7.355,7.684 3.296,-3.018 7.783,-9.674 14.851,-20.991 l 16.447,3.797 v 90.74 z"
             style="fill:#f15a22;fill-opacity:1;fill-rule:nonzero;stroke:none"
             id="path36" />
        </g>
        <g
           id="g38"
           transform="translate(356.948,141.5414)">
          <path
             d="m 0,0 c -0.377,-0.002 -3.169,0.093 -3.468,2.223 -0.173,1.233 0.419,2.391 1.909,3.302 2.33,1.426 10.394,3.744 18.134,5.559 v 10.703 c 0,0 -14.014,-3.372 -18.325,-2.731 -1.309,0.194 -2.181,0.886 -2.354,2.095 -0.177,1.237 0.446,2.351 1.909,3.304 3.941,2.566 21.633,6.384 21.633,6.384 v 24.695 l -36.426,-8.409 v -65.832 l 37.19,8.586 V 3.557 C 10.276,1.302 3.566,0.02 0,0"
             style="fill:#f15a22;fill-opacity:1;fill-rule:nonzero;stroke:none"
             id="path40" />
        </g>
        <g
           id="g42"
           transform="translate(316.6775,190.6576)">
          <path
             d="m 0,0 c 0,0 -3.946,-25.999 -7.45,-38.014 -1.001,-3.433 -3.421,-8.686 -6.713,-1.175 -1.179,2.69 -4.679,15.258 -7.247,31.461 l -11.364,-2.623 c 0.995,-11.141 6.45,-41.232 13.718,-58.762 l 22.04,5.088 c 8.113,21.469 12.981,44.146 14.635,68.093 z"
             style="fill:#f15a22;fill-opacity:1;fill-rule:nonzero;stroke:none"
             id="path44" />
        </g>
        <g
           id="g46"
           transform="translate(267.8425,117.6478)">
          <path
             d="m 0,0 c -1.755,-0.382 -5.749,-1.394 -7.79,-1.775 -1.953,-0.383 -3.094,0.718 -2.853,3.506 0.22,2.608 1.366,8.137 1.8,10.004 0.96,4.129 2.849,5.85 5.069,6.16 C -0.928,18.292 1.559,15.804 2.919,9.06 3.051,8.408 3.383,7.055 3.599,5.216 3.861,2.982 2.765,0.697 0,0 m 9.714,37.27 c -5.516,10.162 -11.93,8.055 -15.217,6.968 -4.306,-1.425 -8.128,-3.636 -12.127,-19.501 -4.204,-16.675 -8.781,-51.705 -8.781,-51.705 l 11.54,2.665 1.185,6.641 c 0.573,3.208 2.615,5.246 5.727,6.162 0,0 8.941,2.32 11.994,2.667 1.289,0.147 2.805,-0.871 3.245,-2.89 l 1.559,-7.146 15.716,3.629 c 0,0 -7.818,39.57 -14.841,52.51"
             style="fill:#f15a22;fill-opacity:1;fill-rule:nonzero;stroke:none"
             id="path48" />
        </g>
        <g
           id="g50"
           transform="translate(215.9485,104.4222)">
          <path
             d="m 0,0 c -0.377,-0.002 -3.169,0.093 -3.468,2.223 -0.173,1.234 0.42,2.392 1.909,3.303 2.33,1.425 10.394,3.743 18.134,5.558 v 10.703 c 0,0 -14.015,-3.372 -18.325,-2.731 -1.309,0.194 -2.181,0.886 -2.354,2.095 -0.177,1.237 0.446,2.351 1.909,3.304 3.942,2.567 21.633,6.384 21.633,6.384 v 26.618 l -36.427,-8.409 v -65.832 l 37.191,8.586 V 3.557 C 10.276,1.302 3.566,0.02 0,0"
             style="fill:#f15a22;fill-opacity:1;fill-rule:nonzero;stroke:none"
             id="path52" />
        </g>
        <g
           id="g54"
           transform="translate(170.6135,159.3451)">
          <path
             d="m 0,0 c 0.35,-13.117 0.209,-22.936 -1.591,-29.378 -1.093,-3.913 -3.499,-6.892 -6.712,-9.146 -3.273,-2.297 -6.554,-3.304 -9.767,-3.368 -3.919,-0.077 -6.75,1.449 -7.127,5.559 -0.573,6.257 -0.827,15.002 -0.636,25.959 l -14.221,-3.283 v -96.866 l 19.534,4.509 c -0.35,12.355 0.071,21.519 1.591,27.186 1.035,3.862 3.869,7.132 6.712,9.052 3.323,2.244 6.548,3.409 9.767,3.462 3.913,0.063 6.758,-1.751 7.127,-5.654 0.54,-5.717 0.795,-13.964 0.636,-24.476 l 14.539,3.356 V 4.583 Z"
             style="fill:#f15a22;fill-opacity:1;fill-rule:nonzero;stroke:none"
             id="path56" />
        </g>
        <g
           id="g58"
           transform="translate(406.324,315.8363)">
          <path
             d="m 0,0 c -6.064,-20.024 -9.497,-29.815 -12.486,-38.069 -5.096,-14.044 -10.381,-8.527 -12.845,-4.611 -2.863,4.59 -6.759,13.518 -13.518,29.878 l -16.697,-3.853 v -78.599 l 13.855,3.198 c -0.105,12.529 0.105,21.035 0.779,24.341 0.61,2.968 2.4,3.39 4.211,0.442 1.495,-2.421 3.853,-7.665 8.549,-18.445 l 9.283,2.143 c 5.117,13.75 7.878,20.681 9.836,24.072 1.579,2.758 4.59,4.695 5.495,-0.4 0.695,-3.854 0.632,-14.307 0.61,-27.109 l 14.361,3.315 V 2.64 Z"
             style="fill:#faa61a;fill-opacity:1;fill-rule:nonzero;stroke:none"
             id="path60" />
        </g>
        <g
           id="g62"
           transform="translate(326.4382,274.7982)">
          <path
             d="m 0,0 c -0.063,-10.739 -0.043,-20.53 -0.506,-24.109 -1.074,-8.549 -15.686,-12.402 -16.402,-4.527 -0.337,3.706 -0.632,8.601 -0.632,19.53 l -11.813,-2.727 v -72.011 l 15.056,3.475 c 0,11.433 0,16.401 0.19,20.318 0.526,10.317 16.023,12.654 17.37,3.684 0.611,-4.085 0.716,-6.043 0.716,-15.265 l 12.001,2.771 v 72.55 z"
             style="fill:#faa61a;fill-opacity:1;fill-rule:nonzero;stroke:none"
             id="path64" />
        </g>
        <g
           id="g66"
           transform="translate(246.552,268.85)">
          <path
             d="m 0,0 v -28.985 l 8.401,1.939 c 5.096,1.177 7.201,0.513 7.201,-8.506 v -37.207 l 13.792,3.159 v 34.132 c 0,15.16 1.423,18.987 8.928,20.719 l 6.864,1.584 v 23.597 z"
             style="fill:#faa61a;fill-opacity:1;fill-rule:nonzero;stroke:none"
             id="path68" />
        </g>
        <g
           id="g70"
           transform="translate(240.9089,249.7064)">
          <path
             d="m 0,0 -12.886,-2.975 c 0,0 0.189,-13.265 -0.316,-23.035 -0.737,-14.297 -15.139,-17.371 -16.297,-3.769 -0.589,7.138 -0.863,21.365 -0.863,21.365 l -16.024,-3.699 v -11.602 c 0,-27.688 18.003,-31.099 27.415,-23.203 0.568,0.484 1.137,0.778 1.6,0.568 0.526,-0.232 0.505,-0.8 0.295,-1.853 -0.569,-2.758 -4.653,-8.212 -12.907,-10.422 -6.296,-1.685 -12.465,-2.748 -15.539,-3.232 v -19.214 c 13.854,1.79 29.898,5.748 37.374,17.245 3.895,6.001 5.938,12.338 6.948,21.729 C 0.379,-27.315 0,0 0,0"
             style="fill:#faa61a;fill-opacity:1;fill-rule:nonzero;stroke:none"
             id="path72" />
        </g>
        <g
           id="g74"
           transform="translate(170.6877,250.9003)">
          <path
             d="m 0,0 c -0.063,-10.738 -0.042,-20.529 -0.505,-24.109 -1.074,-8.548 -15.687,-12.402 -16.403,-4.527 -0.337,3.706 -0.632,8.602 -0.632,19.53 l -11.812,-2.727 v -72.011 l 15.055,3.475 c 0,11.434 0,16.402 0.19,20.318 0.526,10.318 16.023,12.655 17.371,3.685 0.611,-4.085 0.716,-6.043 0.716,-15.265 l 12.001,2.77 V 3.69 Z"
             style="fill:#faa61a;fill-opacity:1;fill-rule:nonzero;stroke:none"
             id="path76" />
        </g>
        <g
           id="g78"
           transform="translate(92.2761,207.5887)">
          <path
             d="m 0,0 c -5.748,-1.348 -8.949,1.853 -8.949,8.696 v 6.612 c 0,4.768 0.927,8.906 5.18,10.254 C 8.58,29.474 17.182,24.151 17.182,15.792 17.182,7.98 11.202,2.632 0,0 m 41.627,28.573 c 0,30.383 -29.731,39.206 -66.094,26.214 v -98.08 l 15.497,3.578 v 24.555 c 0,3.748 2.759,3.095 5.306,0.821 1.79,-1.6 12.55,-12.023 20.066,-19.519 l 23.659,5.462 c 0,0 -20.626,21.068 -23.006,23.153 13.855,5.18 24.572,18.678 24.572,33.816"
             style="fill:#faa61a;fill-opacity:1;fill-rule:nonzero;stroke:none"
             id="path80" />
        </g>
      </g>
    </g>
  </g>
</svg>
