<?xml version="1.0" encoding="UTF-8" standalone="no"?>
<!-- Created with Inkscape (http://www.inkscape.org/) -->

<svg
   version="1.1"
   id="svg2"
   width="666.66669"
   height="433.69199"
   viewBox="0 0 666.66669 433.69199"
   sodipodi:docname="Rhythm Abomination.ai"
   xmlns:inkscape="http://www.inkscape.org/namespaces/inkscape"
   xmlns:sodipodi="http://sodipodi.sourceforge.net/DTD/sodipodi-0.dtd"
   xmlns="http://www.w3.org/2000/svg"
   xmlns:svg="http://www.w3.org/2000/svg">
  <defs
     id="defs6">
    <clipPath
       clipPathUnits="userSpaceOnUse"
       id="clipPath16">
      <path
         d="M 0,325.269 H 500 V 0 H 0 Z"
         id="path14" />
    </clipPath>
  </defs>
  <sodipodi:namedview
     id="namedview4"
     pagecolor="#ffffff"
     bordercolor="#000000"
     borderopacity="0.25"
     inkscape:showpageshadow="2"
     inkscape:pageopacity="0.0"
     inkscape:pagecheckerboard="0"
     inkscape:deskcolor="#d1d1d1" />
  <g
     id="g8"
     inkscape:groupmode="layer"
     inkscape:label="Rhythm Abomination"
     transform="matrix(1.3333333,0,0,-1.3333333,0,433.692)">
    <g
       id="g10">
      <g
         id="g12"
         clip-path="url(#clipPath16)">
        <g
           id="g18"
           transform="translate(479.2557,140.8701)">
          <path
             d="m 0,0 c 10.992,10.183 17.534,24.639 17.534,40.203 -0.012,15.855 -6.749,30.618 -18.369,40.932 0.834,3.736 1.254,7.57 1.254,11.468 0,28.892 -23.505,52.397 -52.397,52.397 -17.539,0 -33.653,-8.891 -43.254,-22.853 -8.241,5.187 -17.848,8.012 -27.836,8.012 -3.798,0 -7.545,-0.408 -11.186,-1.201 0.021,4.188 -0.436,8.397 -1.383,12.551 -6.773,29.665 -36.481,48.279 -66.215,41.494 -17.191,-3.924 -31.078,-15.441 -38.114,-31.042 -5.535,0.42 -11.143,0.012 -16.59,-1.23 -5.219,-1.19 -10.25,-3.14 -14.898,-5.755 -13.069,10.687 -30.409,14.892 -47.314,11.034 -17.161,-3.916 -31.042,-15.416 -38.092,-30.99 -0.092,0.006 -0.183,0.013 -0.274,0.019 -11.177,0.777 -22.085,-1.796 -31.576,-7.318 -13.087,10.805 -30.483,15.062 -47.504,11.179 -29.739,-6.795 -48.426,-36.453 -41.655,-66.112 3.294,-14.442 12.154,-26.725 24.46,-34.427 -1.21,-4.684 -1.818,-9.516 -1.818,-14.454 0,-22.208 12.89,-42.305 32.333,-51.887 -0.109,-1.393 -0.163,-2.791 -0.163,-4.192 0,-29.601 24.083,-53.683 53.684,-53.683 17.926,0 34.554,9.109 44.417,23.555 6.067,-2.297 12.53,-3.483 19.132,-3.483 7.06,0 13.969,1.383 20.37,3.988 4.894,-30.021 31.008,-53.005 62.389,-53.005 4.864,0 9.666,0.549 14.348,1.635 11.73,-11.333 27.349,-17.705 43.892,-17.705 24.707,0 46.968,14.533 57.244,36.37 10.552,-1.111 21.274,0.479 30.963,4.516 10.136,-6.497 22.019,-10.014 34.149,-10.014 34.856,0 63.213,28.357 63.213,63.213 C 20.744,-28.8 12.96,-11.829 0,0"
             style="fill:#00b3f0;fill-opacity:1;fill-rule:nonzero;stroke:none"
             id="path20" />
        </g>
        <g
           id="g22"
           transform="translate(469.6629,140.8821)">
          <path
             d="m 0,0 c 13.063,8.985 21.109,23.907 21.109,40.186 -0.012,15.344 -7.1,29.539 -19.152,38.748 1.353,4.396 2.037,8.972 2.037,13.657 0,25.574 -20.806,46.379 -46.379,46.379 -17.659,0 -33.686,-10.182 -41.454,-25.569 -8.256,6.892 -18.688,10.728 -29.636,10.728 -6.258,0 -12.356,-1.249 -17.989,-3.626 1.17,6.456 1.04,13.132 -0.448,19.655 -6.033,26.429 -32.5,43.011 -59.008,36.966 -16.77,-3.828 -30.012,-15.761 -35.582,-31.697 -6.317,1.048 -12.839,0.859 -19.124,-0.575 -6.038,-1.377 -11.793,-3.895 -16.884,-7.366 -11.92,11.578 -28.853,16.404 -45.326,12.645 -16.737,-3.82 -29.975,-15.731 -35.564,-31.637 -1.507,0.246 -3.028,0.423 -4.555,0.53 -11.422,0.787 -22.528,-2.336 -31.779,-8.855 -11.932,11.736 -28.942,16.642 -45.547,12.852 -26.505,-6.055 -43.161,-32.481 -37.128,-58.906 3.278,-14.367 12.741,-26.337 25.759,-32.903 -1.971,-5.536 -2.967,-11.339 -2.967,-17.317 0,-21.332 13.272,-40.489 32.823,-48.192 -0.433,-2.6 -0.652,-5.237 -0.652,-7.887 0,-26.282 21.383,-47.666 47.666,-47.666 17.607,0 33.802,9.895 42.018,25.156 6.648,-3.34 13.987,-5.084 21.531,-5.084 9.134,0 17.984,2.605 25.569,7.373 0.433,-31.167 25.922,-56.389 57.19,-56.389 5.525,0 10.96,0.781 16.204,2.327 10.826,-11.736 25.948,-18.398 42.036,-18.398 23.853,0 45.187,14.972 53.516,36.967 11.996,-2.202 24.481,-0.472 35.294,4.771 9.714,-7.029 21.495,-10.866 33.546,-10.866 31.537,0 57.196,25.659 57.196,57.196 C 24.32,-28.099 15.018,-10.609 0,0"
             style="fill:#ffffff;fill-opacity:1;fill-rule:nonzero;stroke:none"
             id="path24" />
        </g>
        <g
           id="g26"
           transform="translate(459.0657,141.021)">
          <path
             d="M 0,0 C 15.551,6.638 26.453,22.067 26.453,40.043 26.44,55.495 18.384,69.065 6.257,76.792 c 1.992,4.829 3.08,10.11 3.08,15.66 0,22.714 -18.411,41.125 -41.125,41.125 -18.741,0 -34.548,-12.53 -39.512,-29.67 -7.53,9.059 -18.875,14.829 -31.577,14.829 -10.88,0 -20.766,-4.236 -28.111,-11.145 5.166,9.171 7.071,20.205 4.552,31.259 -5.398,23.646 -28.997,38.424 -52.718,33.013 -16.928,-3.864 -29.34,-16.971 -33.093,-32.756 -6.825,1.896 -14.212,2.172 -21.615,0.483 -7.12,-1.623 -13.442,-4.886 -18.656,-9.293 -10.277,12.209 -26.886,18.376 -43.552,14.573 -16.902,-3.857 -29.298,-16.928 -33.079,-32.675 -2.752,0.749 -5.615,1.241 -8.571,1.448 -12.132,0.838 -23.479,-3.333 -32.001,-10.738 -10.259,12.392 -26.995,18.688 -43.792,14.855 -23.719,-5.419 -38.576,-28.966 -33.177,-52.616 3.407,-14.933 14.082,-26.324 27.461,-31.332 -2.907,-6.073 -4.537,-12.874 -4.537,-20.056 0,-21.249 14.246,-39.169 33.708,-44.733 -1,-3.611 -1.537,-7.416 -1.537,-11.346 0,-23.423 18.988,-42.412 42.412,-42.412 18.121,0 33.585,11.366 39.659,27.356 6.823,-4.599 15.043,-7.284 23.89,-7.284 12.806,0 24.296,5.625 32.138,14.539 -0.854,-3.736 -1.32,-7.619 -1.32,-11.614 0,-28.682 23.259,-51.942 51.941,-51.942 6.284,0 12.31,1.118 17.883,3.157 9.531,-11.736 24.061,-19.227 40.357,-19.227 23.819,0 43.892,16.04 50.024,37.895 4.41,-1.208 9.047,-1.873 13.835,-1.873 9.259,0 17.958,2.417 25.495,6.676 8.972,-7.385 20.466,-11.826 33.002,-11.826 28.682,0 51.942,23.26 51.942,51.942 C 29.663,-26.231 17.538,-8.348 0,0"
             style="fill:#130c0e;fill-opacity:1;fill-rule:nonzero;stroke:none"
             id="path28" />
        </g>
        <g
           id="g30"
           transform="translate(493.7932,38.6928)">
          <path
             d="m 0,0 v 5.975 l -1.503,-6.329 -1.628,-0.384 -1.467,5.629 v -5.975 l -1.538,-0.363 v 7.153 l 2.403,0.566 1.45,-5.331 0.018,0.004 1.413,6.007 2.373,0.559 V 0.359 Z m -11.109,-2.619 v 5.884 l -2.475,-0.584 v 1.264 l 6.547,1.544 V 4.225 L -9.423,3.662 v -5.884 z"
             style="fill:#130c0e;fill-opacity:1;fill-rule:nonzero;stroke:none"
             id="path32" />
        </g>
        <g
           id="g34"
           transform="translate(428.9024,97.8608)">
          <path
             d="m 0,0 c 0,0 -1.227,-10.46 -14.62,-23.97 l -6.858,5.694 c 6.863,5.558 14.772,18.257 14.772,29.574 v 0.319 c 0,1.359 -1.052,1.358 -2.362,1.103 l -1.323,-0.257 v 4.028 l 14.696,2.857 v -5.91 C 4.305,1.881 10.68,0.023 19.152,-0.06 L 14.938,-6.615 C 2.065,-5.461 0,0 0,0 M 41.158,16.176 V 8.816 L 32.79,7.189 V -6.633 L 21.613,-8.805 v 31.848 c 0,1.434 -1.177,1.419 -2.519,1.158 L 17.747,23.939 V 28.19 L 32.79,31.114 V 14.55 Z M 11.6,-30.201 c -1.526,0.03 -4.637,0.091 -4.637,4.875 0,4.958 3.958,8.514 8.262,8.514 4.417,0.001 4.727,-2.992 4.727,-4.814 0,-4.467 -3.849,-8.664 -8.352,-8.575 m 11.177,19.715 c -5.188,1.169 -11.865,1.292 -19.439,-3.866 -4.98,-3.392 -7.492,-7.524 -7.491,-12.258 0,-1.706 0.374,-3.399 1.117,-5.027 2.282,-4.997 5.661,-5.265 10.255,-5.63 7.508,-0.596 12.023,1.391 16.524,4.441 5.03,3.412 7.597,7.483 7.597,12.242 0,4.249 -2.18,8.66 -8.563,10.098"
             style="fill:#faa61a;fill-opacity:1;fill-rule:nonzero;stroke:none"
             id="path36" />
        </g>
        <g
           id="g38"
           transform="translate(389.1327,132.6234)">
          <path
             d="m 0,0 v -4.167 l 1.121,0.218 c 1.115,0.217 2.113,0.365 2.113,-1.07 v -53.064 l 11.267,2.19 V 2.819 Z m -13.199,-13.376 v -4.166 l 1.121,0.217 c 1.115,0.217 2.137,0.416 2.137,-1.018 v -12.143 l -9.451,-1.837 v -6.533 l 9.451,1.837 v -35.984 l 10.365,2.015 v 60.26 z m 1.465,-34.602 -4.833,-6.45 c -9.442,3.082 -11.993,7.779 -11.993,7.779 0,0 -3.575,-6.645 -11.071,-13.518 l -6.253,5.211 c 0,0 11.048,10.315 11.048,20.618 v 7.842 c 0,1.434 -1.172,1.397 -2.482,1.142 l -1.316,-0.256 v 4.531 l 14.47,2.813 v -14.427 c 0,-13.815 12.43,-15.285 12.43,-15.285"
             style="fill:#f15a22;fill-opacity:1;fill-rule:nonzero;stroke:none"
             id="path40" />
        </g>
        <g
           id="g42"
           transform="translate(303.8434,78.6197)">
          <path
             d="M 0,0 V -6.662 L 35.675,0.272 V -6.219 L -5.67,-14.256 c -3.336,-0.649 -6.041,1.531 -6.041,4.867 v 7.735 c 0,1.338 -0.123,1.742 -3.253,1.134 l -0.593,-0.115 v 4.103 l 51.232,9.958 V 6.935 Z m 35.675,-9.399 v -6.492 l -59.992,-11.661 v 6.491 z M 22.565,-36.651 2.356,-40.579 v 8.464 l 20.209,3.928 z m 11.902,17.345 -47.894,-9.31 v -4.457 l 0.594,0.116 c 3.134,0.609 3.257,0.118 3.257,-1.351 v -9.327 c 0,-3.003 2.435,-4.964 5.438,-4.381 l 34.375,6.682 c 3.004,0.584 5.438,3.492 5.438,6.495 v 14.559 c 0,0.668 -0.541,1.104 -1.208,0.974"
             style="fill:#faa61a;fill-opacity:1;fill-rule:nonzero;stroke:none"
             id="path44" />
        </g>
        <g
           id="g46"
           transform="translate(258.2906,108.1011)">
          <path
             d="m 0,0 v -4.501 l 1.314,0.256 c 1.309,0.254 2.507,0.487 2.507,-1.192 V -32.02 c -1.933,-1.087 -4.409,-1.989 -7.461,-2.583 l -18.079,-3.514 v 8.136 l 16.765,3.259 c 0.834,0.162 1.51,0.97 1.51,1.804 V -8.81 c 0,0.835 -0.676,1.379 -1.51,1.217 L -36.4,-13.705 v -6.957 l 21.447,4.169 v -5.47 l -22.444,-4.363 v -4.576 l 0.53,0.103 c 1.07,0.208 2.657,0.516 2.657,-1.04 v -10.829 c 0,-2.67 2.164,-4.413 4.833,-3.894 l 23.607,4.589 c 4.429,0.86 7.643,1.933 9.591,2.915 v -25.487 l 12.159,2.363 V 3.106 Z"
             style="fill:#f15a22;fill-opacity:1;fill-rule:nonzero;stroke:none"
             id="path48" />
        </g>
        <g
           id="g50"
           transform="translate(456.2439,189.2587)">
          <path
             d="M 0,0 C 2.357,0.888 7.29,2.215 11.434,3.113 V 15.941 L -9.275,11.16 v -34.285 l 20.676,4.773 v 5.712 c -2.718,-0.713 -8.32,-1.765 -10.787,-2.182 -3.004,-0.504 -3.432,3.322 -0.11,4.418 1.908,0.625 5.405,1.458 8.135,2.226 L 8.628,-3.782 C 6.139,-4.286 2.785,-4.868 0.132,-5.24 -3.157,-5.712 -3.727,-1.403 0,0"
             style="fill:#f15a22;fill-opacity:1;fill-rule:nonzero;stroke:none"
             id="path52" />
        </g>
        <g
           id="g54"
           transform="translate(437.0184,165.6338)">
          <path
             d="m 0,0 c -0.121,1.139 -2.092,1.397 -5.161,2.133 -5.367,1.333 -8.688,4.494 -8.349,10.048 0.361,5.995 3.396,10.175 19.459,12.903 V 12.614 C 0.153,11.889 -3.048,10.805 -4.405,9.695 -5.852,8.52 -5.768,6.596 -3.678,5.898 -2.771,5.595 -0.087,4.699 1.535,4.155 4.647,3.118 6.17,1.527 6.487,-1.288 7.384,-9.231 -6.992,-11.314 -12.918,-12.184 v 7.057 C -5.818,-3.697 0.274,-2.443 0,0"
             style="fill:#f15a22;fill-opacity:1;fill-rule:nonzero;stroke:none"
             id="path56" />
        </g>
        <g
           id="g58"
           transform="translate(412.151,163.5507)">
          <path
             d="m 0,0 v 30.565 l 7.729,1.784 V 1.784 Z"
             style="fill:#f15a22;fill-opacity:1;fill-rule:nonzero;stroke:none"
             id="path60" />
        </g>
        <g
           id="g62"
           transform="translate(393.6784,158.4529)">
          <path
             d="m 0,0 c -2.127,-0.492 -3.048,0.219 -3.048,2.708 v 7.849 c 0,1.809 -0.093,3.254 1.623,3.739 C 2.302,15.348 6.468,13.353 6.863,9.297 7.323,4.583 4.701,1.085 0,0 M -8.288,26.169 V -7.17 C 7.828,-4.813 14.844,1.414 14.668,13.791 14.515,24.524 3.859,30.422 -8.288,26.169"
             style="fill:#f15a22;fill-opacity:1;fill-rule:nonzero;stroke:none"
             id="path64" />
        </g>
        <g
           id="g66"
           transform="translate(371.3031,153.2895)">
          <path
             d="m 0,0 -3.892,-0.899 c -0.978,-0.225 -1.535,0.384 -1.414,1.743 0.11,1.272 0.68,3.969 0.899,4.89 0.46,1.907 1.425,2.839 2.532,3.003 C -0.088,9.022 0.778,7.718 1.469,4.429 1.535,4.122 1.721,3.453 1.798,2.554 1.951,0.724 1.382,0.319 0,0 m 6.819,14.614 c -2.039,6.687 -3.69,8.337 -7.751,7.4 -3.58,-0.827 -5.615,-2.691 -7.323,-9.231 -1.677,-6.425 -3.519,-15.524 -5.01,-25.917 l 5.898,1.283 c 0.11,0.822 0.307,1.787 0.592,3.256 0.307,1.48 1.107,2.538 2.697,2.905 1.309,0.302 3.744,0.865 4.604,1.063 1.231,0.284 2.357,-0.69 2.752,-2.334 0.263,-1.097 0.603,-2.643 0.811,-3.684 l 7.828,1.798 C 10.963,-1.184 8.847,7.97 6.819,14.614"
             style="fill:#f15a22;fill-opacity:1;fill-rule:nonzero;stroke:none"
             id="path68" />
        </g>
        <g
           id="g70"
           transform="translate(342.4443,155.8797)">
          <path
             d="m 0,0 c -2.008,-0.471 -3.126,0.647 -3.126,3.038 v 2.309 c 0,1.666 0.324,3.111 1.809,3.582 C 2.997,10.296 6.002,8.436 6.002,5.516 6.002,2.788 3.913,0.919 0,0 m 14.541,9.981 c 0,10.614 -10.385,13.695 -23.088,9.157 v -33.391 l 5.414,1.25 v 7.707 c 0,1.31 0.963,1.081 1.853,0.287 0.625,-0.559 4.384,-4.2 7.01,-6.818 l 8.264,1.908 c 0,0 -7.205,7.359 -8.036,8.088 4.839,1.809 8.583,6.524 8.583,11.812"
             style="fill:#f15a22;fill-opacity:1;fill-rule:nonzero;stroke:none"
             id="path72" />
        </g>
        <g
           id="g74"
           transform="translate(321.1696,137.8097)">
          <path
             d="m 0,0 -3.892,-0.898 c -0.978,-0.226 -1.535,0.383 -1.414,1.742 0.11,1.272 0.68,3.969 0.899,4.89 0.46,1.907 1.425,2.839 2.532,3.003 C -0.088,9.022 0.778,7.718 1.469,4.429 1.535,4.122 1.721,3.453 1.798,2.554 1.951,0.724 1.382,0.319 0,0 m 6.819,14.614 c -2.039,6.687 -3.69,8.337 -7.751,7.4 -3.58,-0.827 -5.615,-2.691 -7.323,-9.231 -1.677,-6.424 -3.519,-15.524 -5.01,-25.917 l 5.898,1.283 c 0.11,0.822 0.307,1.787 0.592,3.256 0.307,1.48 1.107,2.538 2.697,2.905 1.309,0.302 3.744,0.865 4.604,1.063 1.231,0.284 2.357,-0.69 2.752,-2.334 0.263,-1.097 0.603,-2.643 0.811,-3.684 l 7.828,1.798 C 10.963,-1.184 8.847,7.97 6.819,14.614"
             style="fill:#f15a22;fill-opacity:1;fill-rule:nonzero;stroke:none"
             id="path76" />
        </g>
        <g
           id="g78"
           transform="translate(293.565,144.2454)">
          <path
             d="m 0,0 c -2.434,-0.592 -3.837,0.044 -3.837,2.083 v 7.378 c 0,2.084 1.151,3.399 3.442,3.695 C 4.199,13.748 6.271,11.062 6.271,7.565 6.271,4.648 4.55,1.118 0,0 m -15.272,23.801 v -46.21 l 11.446,2.642 v 10.854 c 0,1.984 0.493,2.971 1.677,3.179 10.667,1.877 18.265,7.24 18.265,18.243 0,12.083 -12.981,18.583 -31.388,11.292"
             style="fill:#f15a22;fill-opacity:1;fill-rule:nonzero;stroke:none"
             id="path80" />
        </g>
        <g
           id="g82"
           transform="translate(441.9373,257.1521)">
          <path
             d="m 0,0 c -3.157,-10.426 -4.944,-15.523 -6.501,-19.821 -2.653,-7.312 -5.405,-4.44 -6.687,-2.401 -1.491,2.39 -3.52,7.038 -7.039,15.557 l -8.693,-2.007 v -40.923 l 7.213,1.665 c -0.054,6.523 0.055,10.952 0.406,12.673 0.318,1.546 1.25,1.765 2.193,0.23 0.778,-1.26 2.006,-3.99 4.451,-9.603 l 4.833,1.116 c 2.664,7.159 4.101,10.768 5.121,12.533 0.822,1.436 2.39,2.445 2.861,-0.208 0.362,-2.007 0.329,-7.449 0.318,-14.115 l 7.477,1.726 V 1.374 Z"
             style="fill:#faa61a;fill-opacity:1;fill-rule:nonzero;stroke:none"
             id="path84" />
        </g>
        <g
           id="g86"
           transform="translate(400.3439,235.785)">
          <path
             d="m 0,0 c -0.033,-5.591 -0.022,-10.689 -0.263,-12.553 -0.559,-4.45 -8.167,-6.457 -8.54,-2.357 -0.176,1.93 -0.329,4.479 -0.329,10.169 l -6.15,-1.42 v -37.493 l 7.838,1.809 c 0,5.953 0,8.54 0.099,10.579 0.274,5.372 8.343,6.588 9.044,1.918 0.318,-2.127 0.373,-3.146 0.373,-7.948 l 6.249,1.443 V 1.921 Z"
             style="fill:#faa61a;fill-opacity:1;fill-rule:nonzero;stroke:none"
             id="path88" />
        </g>
        <g
           id="g90"
           transform="translate(358.7506,232.6882)">
          <path
             d="m 0,0 v -15.092 l 4.374,1.01 c 2.653,0.613 3.75,0.267 3.75,-4.429 v -19.372 l 7.18,1.645 v 17.771 c 0,7.894 0.741,9.886 4.649,10.788 l 3.573,0.825 V 5.432 Z"
             style="fill:#faa61a;fill-opacity:1;fill-rule:nonzero;stroke:none"
             id="path92" />
        </g>
        <g
           id="g94"
           transform="translate(355.8125,222.7208)">
          <path
             d="m 0,0 -6.709,-1.549 c 0,0 0.098,-6.907 -0.165,-11.993 -0.384,-7.444 -7.882,-9.045 -8.485,-1.963 -0.307,3.717 -0.45,11.124 -0.45,11.124 l -8.342,-1.926 v -6.04 c 0,-14.417 9.373,-16.193 14.273,-12.082 0.296,0.253 0.592,0.406 0.834,0.296 0.274,-0.12 0.263,-0.416 0.153,-0.964 -0.296,-1.436 -2.423,-4.276 -6.72,-5.427 -3.278,-0.877 -6.49,-1.43 -8.091,-1.682 V -42.21 c 7.214,0.931 15.568,2.992 19.459,8.978 2.028,3.125 3.092,6.425 3.618,11.314 C 0.197,-14.222 0,0 0,0"
             style="fill:#faa61a;fill-opacity:1;fill-rule:nonzero;stroke:none"
             id="path96" />
        </g>
        <g
           id="g98"
           transform="translate(319.2511,223.3425)">
          <path
             d="m 0,0 c -0.033,-5.591 -0.022,-10.689 -0.263,-12.553 -0.559,-4.45 -8.167,-6.457 -8.54,-2.357 -0.176,1.93 -0.329,4.479 -0.329,10.169 l -6.15,-1.42 v -37.493 l 7.838,1.809 c 0,5.953 0,8.54 0.099,10.579 0.274,5.372 8.343,6.588 9.044,1.918 0.318,-2.127 0.373,-3.146 0.373,-7.948 l 6.249,1.443 V 1.921 Z"
             style="fill:#faa61a;fill-opacity:1;fill-rule:nonzero;stroke:none"
             id="path100" />
        </g>
        <g
           id="g102"
           transform="translate(278.4252,200.7917)">
          <path
             d="M 0,0 C -2.993,-0.702 -4.659,0.965 -4.659,4.528 V 7.97 c 0,2.483 0.482,4.637 2.697,5.339 C 4.467,15.346 8.946,12.574 8.946,8.222 8.946,4.155 5.832,1.37 0,0 m 21.674,14.877 c 0,15.819 -15.48,20.413 -34.413,13.649 v -51.067 l 8.069,1.863 v 12.785 c 0,1.951 1.436,1.611 2.762,0.427 0.932,-0.833 6.534,-6.26 10.448,-10.162 l 12.318,2.843 c 0,0 -10.739,10.97 -11.978,12.055 7.214,2.697 12.794,9.725 12.794,17.607"
             style="fill:#faa61a;fill-opacity:1;fill-rule:nonzero;stroke:none"
             id="path104" />
        </g>
        <g
           id="g106"
           transform="translate(247.2835,163.7521)">
          <path
             d="m 0,0 c 0,0 -0.067,-17.387 -0.283,-20.446 -0.217,-3.058 -0.749,-4.305 -1.582,-4.455 -0.4,-0.05 -0.799,0.047 -1.132,0.266 -2.18,1.43 -6.253,9.573 -9.899,16.654 l -5.32,-1.228 v -44 l 6.442,1.487 0.085,11.179 c 0,2.328 0.25,3.874 0.783,4.605 0.183,0.249 0.482,0.419 0.765,0.465 1.876,0.306 5.562,-4.455 10.074,-12.034 l 8.609,1.987 V 1.972 Z"
             style="fill:#f15a22;fill-opacity:1;fill-rule:nonzero;stroke:none"
             id="path108" />
        </g>
        <g
           id="g110"
           transform="translate(214.4476,119.6758)">
          <path
             d="m 0,0 c -0.197,-0.001 -1.659,0.049 -1.815,1.164 -0.09,0.645 0.233,1.23 0.999,1.728 0.666,0.399 1.682,0.815 3.047,1.214 l 6.444,1.695 v 5.602 c 0,0 -7.335,-1.765 -9.591,-1.429 -0.685,0.101 -1.132,0.465 -1.232,1.097 -0.083,0.648 0.233,1.23 0.999,1.728 2.063,1.344 11.323,3.342 11.323,3.342 V 29.066 L -8.892,24.664 V -9.791 l 19.465,4.494 V 1.862 C 5.378,0.682 1.867,0.01 0,0"
             style="fill:#f15a22;fill-opacity:1;fill-rule:nonzero;stroke:none"
             id="path112" />
        </g>
        <g
           id="g114"
           transform="translate(193.3703,145.3828)">
          <path
             d="m 0,0 c 0,0 -2.065,-13.608 -3.899,-19.896 -0.524,-1.797 -1.791,-4.546 -3.514,-0.615 -0.617,1.408 -2.448,7.986 -3.793,16.467 l -5.947,-1.374 c 0.52,-5.831 3.375,-21.58 7.18,-30.755 l 11.535,2.663 c 4.246,11.237 6.794,23.106 7.66,35.639 z"
             style="fill:#f15a22;fill-opacity:1;fill-rule:nonzero;stroke:none"
             id="path116" />
        </g>
        <g
           id="g118"
           transform="translate(167.8111,107.1706)">
          <path
             d="m 0,0 c -0.919,-0.2 -3.009,-0.729 -4.077,-0.93 -1.022,-0.2 -1.62,0.377 -1.493,1.836 0.115,1.365 0.714,4.259 0.942,5.236 0.502,2.161 1.49,3.062 2.653,3.224 C -0.486,9.573 0.815,8.271 1.528,4.742 1.596,4.4 1.77,3.692 1.884,2.73 2.021,1.561 1.447,0.365 0,0 m 5.084,19.506 c -2.887,5.319 -6.244,4.217 -7.964,3.647 -2.254,-0.745 -4.254,-1.903 -6.348,-10.206 -2.2,-8.728 -4.595,-27.061 -4.595,-27.061 l 6.04,1.394 0.62,3.476 c 0.3,1.679 1.368,2.745 2.997,3.225 0,0 4.68,1.214 6.278,1.396 0.675,0.077 1.468,-0.456 1.698,-1.513 l 0.816,-3.74 8.226,1.899 c 0,0 -4.092,20.711 -7.768,27.483"
             style="fill:#f15a22;fill-opacity:1;fill-rule:nonzero;stroke:none"
             id="path120" />
        </g>
        <g
           id="g122"
           transform="translate(140.6503,100.2371)">
          <path
             d="m 0,0 c -0.197,-0.001 -1.659,0.049 -1.815,1.164 -0.09,0.645 0.233,1.23 0.999,1.728 0.666,0.399 1.682,0.815 3.047,1.214 l 6.444,1.695 v 5.602 c 0,0 -7.335,-1.765 -9.591,-1.429 -0.685,0.101 -1.132,0.465 -1.232,1.097 -0.083,0.648 0.233,1.23 0.999,1.728 2.063,1.344 11.323,3.342 11.323,3.342 V 30.087 L -8.892,25.685 V -8.777 l 19.465,4.494 V 1.862 C 5.378,0.681 1.867,0.01 0,0"
             style="fill:#f15a22;fill-opacity:1;fill-rule:nonzero;stroke:none"
             id="path124" />
        </g>
        <g
           id="g126"
           transform="translate(116.9226,128.9942)">
          <path
             d="m 0,0 c 0.183,-6.865 0.109,-12.004 -0.833,-15.376 -0.572,-2.048 -1.831,-3.607 -3.513,-4.787 -1.713,-1.202 -3.43,-1.729 -5.112,-1.762 -2.05,-0.041 -3.533,0.757 -3.73,2.909 -0.299,3.274 -0.433,7.852 -0.333,13.587 l -7.443,-1.719 v -50.699 l 10.224,2.361 c -0.183,6.466 0.037,11.262 0.833,14.229 0.542,2.021 2.025,3.732 3.513,4.737 1.739,1.175 3.427,1.785 5.112,1.812 2.048,0.033 3.536,-0.916 3.73,-2.959 0.283,-2.992 0.416,-7.309 0.333,-12.811 l 7.609,1.757 v 51.12 z"
             style="fill:#f15a22;fill-opacity:1;fill-rule:nonzero;stroke:none"
             id="path128" />
        </g>
        <g
           id="g130"
           transform="translate(246.5329,169.6387)">
          <path
             d="m 0,0 v 44.145 l -6.035,-1.393 c -3.2,-10.569 -5.012,-15.737 -6.59,-20.093 -2.689,-7.413 -5.479,-4.501 -6.779,-2.434 -1.511,2.423 -3.567,7.135 -7.135,15.771 l -8.813,-2.035 V -6.887 l 7.308,1.687 c -0.056,6.613 0.06,10.466 0.416,12.211 0.322,1.567 1.267,1.789 2.223,0.233 0.789,-1.278 2.034,-4.045 4.512,-9.735 l 4.901,1.132 c 2.7,7.257 4.156,10.915 5.19,12.704 0.833,1.456 2.422,2.478 2.9,-0.211 C -7.535,9.1 -7.568,5.007 -7.579,-1.75 Z"
             style="fill:#faa61a;fill-opacity:1;fill-rule:nonzero;stroke:none"
             id="path132" />
        </g>
        <g
           id="g134"
           transform="translate(198.7284,193.5144)">
          <path
             d="m 0,0 v -12.72 c -0.422,-4.103 -7.684,-5.841 -8.199,-1.531 -0.175,1.919 -0.267,4.57 -0.267,10.228 l -6.101,-1.408 v -37.816 l 8.366,1.932 v 9.051 c 0.509,6.547 8.096,6.91 8.793,2.265 0.235,-1.464 0.214,-3.777 0.214,-8.553 l 6.102,1.409 V 2.056 Z"
             style="fill:#faa61a;fill-opacity:1;fill-rule:nonzero;stroke:none"
             id="path136" />
        </g>
        <g
           id="g138"
           transform="translate(157.1154,188.129)">
          <path
             d="m 0,0 v -15.584 l 5.63,1.299 c 2.244,0.518 3.032,0.042 3.015,-4.465 v -20.028 l 6.671,1.54 v 18.533 c 0.046,7.956 0.98,9.603 4.936,10.517 l 3.533,0.815 V 5.491 Z"
             style="fill:#faa61a;fill-opacity:1;fill-rule:nonzero;stroke:none"
             id="path140" />
        </g>
        <g
           id="g142"
           transform="translate(153.8215,181.5119)">
          <path
             d="m 0,0 -7.114,-1.642 c 0,0 -0.162,-7.17 -0.438,-12.513 -0.412,-7.578 -8.516,-9.936 -8.965,-2.226 -0.206,3.93 -0.271,11.65 -0.271,11.65 l -8.579,-1.981 v -3.646 c 0,-14.198 1.76,-19.206 10.208,-18.09 2,0.264 3.518,0.777 5.204,1.993 0.109,0.069 0.217,0.058 0.304,0 0.181,-0.131 0.374,-0.496 0.076,-1.423 -1.608,-4.992 -15.316,-6.295 -15.316,-6.295 l -0.004,-11.254 c 7.873,1.159 16.466,2.82 20.938,10.305 C -2.268,-32.337 0.001,-26.704 0,0"
             style="fill:#faa61a;fill-opacity:1;fill-rule:nonzero;stroke:none"
             id="path144" />
        </g>
        <g
           id="g146"
           transform="translate(116.0332,175.4843)">
          <path
             d="m 0,0 v -12.089 c -0.401,-3.9 -7.303,-5.551 -7.792,-1.455 -0.166,1.824 -0.253,4.343 -0.253,9.721 l -5.8,-1.339 v -35.939 l 7.952,1.836 v 8.602 c 0.483,6.222 7.694,6.567 8.357,2.153 0.223,-1.392 0.202,-3.59 0.202,-8.129 L 8.465,-35.3 V 1.954 Z"
             style="fill:#faa61a;fill-opacity:1;fill-rule:nonzero;stroke:none"
             id="path148" />
        </g>
        <g
           id="g150"
           transform="translate(76.9705,148.8777)">
          <path
             d="m 0,0 c -3.641,-0.928 -5.789,1.022 -5.789,5.917 0,3.904 0.074,7.935 7.222,7.935 5.089,0 7.212,-2.577 7.217,-5.484 C 8.654,5.656 5.552,1.416 0,0 m 21.369,16.127 c 0,8.99 -6.624,19.864 -34.339,13.193 v -48.894 l 7.217,1.666 v 8.737 c 0,4.264 2.776,2.552 3.389,2.166 1.036,-0.651 3.199,-2.42 8.339,-8.195 l 12.261,2.83 -9.554,9.783 c 0,0 12.687,5.108 12.687,18.714"
             style="fill:#faa61a;fill-opacity:1;fill-rule:nonzero;stroke:none"
             id="path152" />
        </g>
        <g
           id="g154"
           transform="translate(297.876,263.151)">
          <path
             d="m 0,0 -2.839,-0.655 c -1.657,-0.383 -2.428,0.182 -2.354,1.231 l 0.466,6.666 5.319,1.228 0.248,3.547 -5.319,-1.228 0.379,5.43 c 0.121,1.723 0.944,2.664 2.306,2.979 l 3.188,0.736 0.231,3.305 -18.257,-4.215 -0.231,-3.305 2.874,0.663 c 2.009,0.464 2.369,-0.522 2.32,-1.232 l -0.428,-6.119 -5.32,-1.229 -0.248,-3.547 5.32,1.228 -0.418,-5.976 c -0.119,-1.7 -0.955,-2.674 -2.271,-2.978 l -3.223,-0.744 -0.23,-3.283 18.257,4.215 z m 6.59,26.448 -25.694,-5.933 c -1.382,-0.314 -2.271,-1.443 -2.379,-2.995 l -2.006,-28.685 25.695,5.932 c 1.277,0.288 2.262,1.334 2.379,2.995 z m 10.745,7.878 -2.946,-42.131 -48.617,-11.224 2.946,42.131 z M -2.481,5.577 0.437,6.25 0.155,2.219 -2.762,1.546 Z"
             style="fill:#f15a22;fill-opacity:1;fill-rule:nonzero;stroke:none"
             id="path156" />
        </g>
        <g
           id="g158"
           transform="translate(298.2674,299.7034)">
          <path
             d="m 0,0 c -0.281,0.08 -0.717,0.205 -0.767,0.42 -0.041,0.181 0.099,0.358 0.446,0.773 1.38,1.666 1.535,1.856 2.501,3.201 L 1.112,4.827 C 0.649,4.086 0.463,3.835 -0.941,2 -1.664,1.054 -1.995,0.526 -1.898,0.105 c 0.127,-0.55 0.829,-0.768 1.619,-1.011 1.469,-0.448 2.898,-0.996 4.276,-1.673 L 4.683,-1.67 C 3.747,-1.18 1.421,-0.396 0,0"
             style="fill:#f15a22;fill-opacity:1;fill-rule:nonzero;stroke:none"
             id="path160" />
        </g>
        <g
           id="g162"
           transform="translate(283.0345,294.0904)">
          <path
             d="m 0,0 c -0.818,-0.318 -1.665,-0.55 -2.52,-0.747 -1.309,-0.303 -2.988,-0.672 -3.25,0.463 -0.042,0.183 -0.153,0.828 0.416,1.703 L -6.182,1.78 c -0.471,-0.863 -0.729,-1.501 -0.543,-2.303 0.159,-0.69 0.774,-1.246 1.443,-1.395 0.824,-0.186 1.584,-0.094 3.302,0.303 1.353,0.312 1.945,0.532 2.24,0.646 z M -4.972,3.465 -4.2,2.991 c 0.868,0.853 1.56,1.398 2.615,1.844 L -1.782,5.69 C -2.34,5.561 -5.095,4.916 -5.715,4.773 -6.151,4.672 -7.233,4.423 -7.497,4.371 l 0.228,-0.986 c 0.55,0.164 1.297,0.354 3.088,0.796 C -4.684,3.77 -4.737,3.721 -4.972,3.465 m 4.246,-0.518 0.525,0.508 C -0.47,3.787 -0.863,4.174 -1.304,4.495 L -1.833,3.997 c 0.439,-0.349 0.675,-0.571 1.107,-1.05 M -2.277,3.775 C -1.696,3.33 -1.267,2.822 -1.152,2.683 L -1.679,2.176 C -2.247,2.844 -2.606,3.129 -2.788,3.28 Z"
             style="fill:#f15a22;fill-opacity:1;fill-rule:nonzero;stroke:none"
             id="path164" />
        </g>
        <g
           id="g166"
           transform="translate(239.2697,233.7968)">
          <path
             d="m 0,0 c 0.23,1.889 0.353,4.705 0.353,4.705 l 18.109,4.18 0.516,7.378 -18.109,-4.18 0.462,6.606 18.108,4.181 0.515,7.36 -48.912,-11.293 -0.515,-7.36 17.814,4.113 -0.462,-6.606 -17.814,-4.113 -0.515,-7.378 17.813,4.113 -0.191,-2.729 c -0.611,-8.737 -5.563,-11.942 -12.862,-13.632 l -5.709,-1.318 -0.517,-7.394 12.433,2.87 c 9.549,2.2 13.077,5.283 17.401,13.869 1.977,-0.951 7.245,-4.978 9.306,-7.703 l 12.859,2.968 C 16.606,-6.943 3.541,-0.954 0,0"
             style="fill:#faa61a;fill-opacity:1;fill-rule:nonzero;stroke:none"
             id="path168" />
        </g>
        <g
           id="g170"
           transform="translate(247.5776,267.4682)">
          <path
             d="m 0,0 -0.968,0.058 c 0.257,-1.939 -0.024,-2.767 -0.714,-2.927 -0.733,-0.169 -0.914,0.616 -0.972,0.866 l -0.086,0.371 c -0.143,0.621 -0.486,1.95 -1.875,1.63 -0.586,-0.136 -0.867,-0.455 -1.025,-0.637 0.04,0.5 0.313,2.934 0.366,3.492 L -6.406,2.8 C -6.503,1.488 -6.809,-2.699 -7.012,-4.89 l 1.058,-0.055 c 0.007,0.247 0.057,1.994 0.065,2.041 0.07,0.525 0.318,1.69 1.293,1.915 0.647,0.15 0.776,-0.411 0.904,-0.963 l 0.068,-0.293 c 0.043,-0.19 0.189,-0.701 0.383,-0.993 0.307,-0.465 0.959,-0.769 1.666,-0.605 C 0.012,-3.477 0.237,-2.09 0,0"
             style="fill:#faa61a;fill-opacity:1;fill-rule:nonzero;stroke:none"
             id="path172" />
        </g>
        <g
           id="g174"
           transform="translate(226.9385,260.4955)">
          <path
             d="m 0,0 c -2.411,-0.636 -3.991,-0.522 -4.287,0.76 -0.263,1.138 0.541,2.541 1.6,3.416 0.352,0.285 0.819,0.606 1.578,0.781 0.363,0.084 0.561,0.112 0.742,0.136 L -0.604,6.042 C -1.465,5.807 -5.3,4.762 -6.017,4.561 -6.593,4.402 -7.218,4.222 -7.8,4.087 l 0.256,-0.953 c 1.282,0.411 2.565,0.814 3.863,1.194 -1.616,-1.581 -1.759,-3 -1.558,-3.868 0.181,-0.784 0.863,-1.47 1.711,-1.683 0.859,-0.219 1.81,-0.222 3.625,0.189 z"
             style="fill:#faa61a;fill-opacity:1;fill-rule:nonzero;stroke:none"
             id="path176" />
        </g>
        <g
           id="g178"
           transform="translate(197.9269,236.2425)">
          <path
             d="m 0,0 -1.944,-0.449 c -1.272,-0.297 -2.617,0.169 -3.465,1.633 l -3.892,6.718 -12.886,-2.975 5.119,-8.867 -15.893,-3.67 11.572,30.147 c 0.505,1.317 1.297,2.11 2.322,2.354 l 3.234,0.746 0.358,5.124 -15.873,-3.665 -13.74,-35.794 c -0.532,-1.387 -1.419,-2.039 -2.33,-2.249 l -1.968,-0.455 -0.518,-7.406 53.616,12.378 z"
             style="fill:#f15a22;fill-opacity:1;fill-rule:nonzero;stroke:none"
             id="path180" />
        </g>
        <g
           id="g182"
           transform="translate(125.8779,202.9846)">
          <path
             d="m 0,0 c 5.354,7.306 6.373,12.067 7.425,17.316 0.372,1.9 1.353,2.827 2.407,3.07 l 1.959,0.452 0.5,7.148 -45.843,-10.584 -0.529,-7.571 28.709,6.628 c -2.356,-17.411 -11.358,-24.33 -27.43,-28.04 l -2.822,-0.652 -0.523,-7.476 8.499,1.963 c 11.001,2.539 16.422,5.339 23.321,12.716 1.584,-0.911 3.615,-3.013 4.622,-6.266 l 12.938,2.987 C 11.603,-5.994 4.35,-0.886 0,0 m 15.946,34.279 c -0.401,1.847 -2.249,2.986 -4.064,2.547 -1.849,-0.436 -2.95,-2.252 -2.547,-4.064 0.436,-1.849 2.252,-2.95 4.064,-2.547 1.849,0.436 2.986,2.25 2.547,4.064 M 1.23,30.891 c -0.403,1.812 0.701,3.663 2.547,4.064 1.812,0.404 3.626,-0.733 4.064,-2.547 C 8.245,30.596 7.143,28.78 5.294,28.344 3.482,27.94 1.668,29.077 1.23,30.891"
             style="fill:#faa61a;fill-opacity:1;fill-rule:nonzero;stroke:none"
             id="path184" />
        </g>
        <g
           id="g186"
           transform="translate(61.7245,239.2068)">
          <path
             d="m 0,0 -0.385,-5.511 1.125,0.259 c 1.693,0.391 2.463,-0.209 2.391,-1.245 L 1.762,-26.073 c -0.349,-4.983 -2.579,-8.511 -6.888,-9.511 l -22.427,-5.178 -0.518,-7.415 31.361,7.241 c 6.348,1.444 10.708,6.83 11.224,14.211 l 1.578,22.556 c 0.109,1.559 0.717,2.627 2.307,2.994 l 1.379,0.319 0.386,5.511 z m -12.985,-29.258 -17.717,-4.091 0.385,5.501 1.458,0.336 c 1.569,0.362 2.204,1.477 2.311,3.014 l 0.792,11.33 c 0.073,1.035 -0.693,1.639 -2.389,1.248 l -1.076,-0.248 0.386,5.511 17.717,4.09 -0.385,-5.511 -1.455,-0.336 c -1.573,-0.363 -2.208,-1.481 -2.314,-3.004 l -0.792,-11.33 c -0.073,-1.041 0.7,-1.648 2.391,-1.258 l 1.073,0.248 z"
             style="fill:#f15a22;fill-opacity:1;fill-rule:nonzero;stroke:none"
             id="path188" />
        </g>
      </g>
    </g>
  </g>
</svg>
