<?xml version="1.0" encoding="UTF-8" standalone="no"?>
<!-- Created with Inkscape (http://www.inkscape.org/) -->

<svg
   version="1.1"
   id="svg2"
   width="666.66669"
   height="222.31467"
   viewBox="0 0 666.66669 222.31467"
   sodipodi:docname="Rhythm Tengoku (リズム天国) but it's not a Cloud.ai"
   xmlns:inkscape="http://www.inkscape.org/namespaces/inkscape"
   xmlns:sodipodi="http://sodipodi.sourceforge.net/DTD/sodipodi-0.dtd"
   xmlns="http://www.w3.org/2000/svg"
   xmlns:svg="http://www.w3.org/2000/svg">
  <defs
     id="defs6">
    <clipPath
       clipPathUnits="userSpaceOnUse"
       id="clipPath16">
      <path
         d="M 0,166.736 H 500 V 0 H 0 Z"
         id="path14" />
    </clipPath>
  </defs>
  <sodipodi:namedview
     id="namedview4"
     pagecolor="#ffffff"
     bordercolor="#000000"
     borderopacity="0.25"
     inkscape:showpageshadow="2"
     inkscape:pageopacity="0.0"
     inkscape:pagecheckerboard="0"
     inkscape:deskcolor="#d1d1d1" />
  <g
     id="g8"
     inkscape:groupmode="layer"
     inkscape:label="Rhythm Tengoku (リズム天国) but it's not a Cloud"
     transform="matrix(1.3333333,0,0,-1.3333333,0,222.31467)">
    <g
       id="g10">
      <g
         id="g12"
         clip-path="url(#clipPath16)">
        <g
           id="g18"
           transform="translate(493.8686,138.7367)">
          <path
             d="m 0,0 c -4.25,5.744 -10.347,9.815 -17.132,11.629 -2.241,3.804 -5.284,7.129 -8.981,9.72 l -1.386,0.97 c -9.824,6.885 -22.378,7.431 -32.55,2.07 -4.008,1.814 -8.405,2.792 -12.918,2.792 l -5.917,-0.013 c -0.436,-10e-4 -1.419,-0.002 -1.823,0.002 -8.371,0.231 -16.607,-2.989 -22.618,-8.813 -2.29,-2.219 -4.209,-4.759 -5.711,-7.522 -7.438,-2.676 -13.625,-8.102 -17.246,-15.299 -2.042,0.851 -4.184,1.489 -6.387,1.893 l -1.641,0.299 c -5.962,1.089 -11.997,0.417 -17.434,-1.8 -3.765,1.359 -7.786,2.009 -11.83,1.849 -1.345,-0.052 -7.341,-0.288 -8.41,-0.338 l -0.723,-0.033 c -0.2,-0.01 -0.404,-0.022 -0.581,-0.025 -7.837,0 -15.471,-3 -21.22,-8.286 -0.971,3.962 -2.712,7.746 -5.181,11.098 -5.877,7.982 -15.305,12.748 -25.218,12.748 h -23.886 c -10.427,0 -20.133,-5.161 -25.963,-13.805 l -8.873,-13.155 c -4.493,1.894 -9.353,2.863 -14.249,2.851 -1.995,-0.011 -3.978,-0.184 -5.934,-0.519 -1.892,0.326 -3.809,0.499 -5.735,0.516 -9.645,0.136 -18.816,-3.536 -25.759,-10.335 -0.793,-0.778 -1.548,-1.587 -2.262,-2.428 h -7.855 c 1.545,8.456 -0.46,17.317 -5.622,24.294 -5.88,7.946 -15.291,12.689 -25.175,12.689 h -30.345 c -2.844,0 -5.656,-0.385 -8.367,-1.136 -2.71,0.751 -5.523,1.136 -8.364,1.136 h -26.663 c -13.861,0 -25.897,-8.905 -29.949,-22.16 l -2.368,-7.747 c -1.161,-3.796 -1.571,-7.763 -1.256,-11.667 -2.445,-3.061 -4.323,-6.579 -5.483,-10.374 l -2.363,-7.731 c -1.843,-6.027 -1.806,-12.412 0.005,-18.33 l -1.138,-3.725 c -2.89,-9.451 -1.105,-19.837 4.774,-27.783 5.879,-7.945 15.29,-12.688 25.174,-12.688 h 46.309 c 0.341,-6.034 2.416,-11.937 6.082,-16.89 5.879,-7.945 15.29,-12.687 25.175,-12.687 l 12.798,0.001 c 11.23,0 20.136,0.97 28.283,3.162 4.228,-2.071 8.906,-3.163 13.758,-3.163 h 19.471 c 10.443,0 20.158,5.173 25.987,13.84 3.197,4.755 4.979,10.196 5.287,15.736 h 40.168 c 0.343,-6.034 2.416,-11.937 6.082,-16.891 5.879,-7.945 15.289,-12.688 25.174,-12.688 h 18.749 c 9.777,0 17.892,1.217 25.126,3.852 4.554,-2.49 9.716,-3.852 15.026,-3.852 h 19.352 c 10.777,0 20.661,5.431 26.439,14.532 2.931,4.616 4.558,9.788 4.851,15.037 h 55.166 c 13.861,0 25.895,8.906 29.948,22.161 l 18.104,59.22 C 7.664,-18.333 5.88,-7.946 0,0"
             style="fill:#00b3f0;fill-opacity:1;fill-rule:nonzero;stroke:none"
             id="path20" />
        </g>
        <g
           id="g22"
           transform="translate(487.6782,134.1566)">
          <path
             d="m 0,0 c -3.862,5.219 -9.745,8.606 -16.124,9.393 -1.701,4.083 -4.527,7.644 -8.219,10.23 l -1.384,0.97 c -8.531,5.976 -19.785,5.619 -27.864,-0.553 -3.848,2.583 -8.427,4.021 -13.169,4.021 l -5.919,-0.013 c -0.48,-10e-4 -1.596,-10e-4 -1.987,0.002 -6.311,0.183 -12.564,-2.24 -17.11,-6.644 -2.458,-2.382 -4.35,-5.255 -5.572,-8.406 -8.172,-1.815 -14.849,-7.85 -17.384,-16.143 l -1.327,-4.337 c -3.267,3.023 -7.364,5.102 -11.804,5.913 l -1.638,0.299 c -5.524,1.008 -11.119,0.016 -15.872,-2.679 -3.592,1.843 -7.649,2.765 -11.714,2.609 -1.335,-0.052 -7.288,-0.286 -8.358,-0.335 l -0.707,-0.033 c -0.317,-0.015 -0.641,-0.033 -0.946,-0.033 -6.369,0 -12.561,-2.628 -16.986,-7.209 -2.059,-2.132 -3.692,-4.655 -4.822,-7.396 -2.993,-0.677 -5.786,-1.923 -8.246,-3.637 l 0.988,3.178 c 2.218,7.138 0.896,14.993 -3.536,21.011 -4.432,6.019 -11.541,9.612 -19.017,9.612 h -23.886 c -7.863,0 -15.182,-3.891 -19.579,-10.41 l -12.796,-18.972 c -4.852,3.434 -10.69,5.344 -16.673,5.272 -2.016,-0.009 -4.016,-0.231 -5.973,-0.661 -1.915,0.424 -3.86,0.645 -5.786,0.659 -7.638,0.117 -14.839,-2.77 -20.317,-8.135 -1.44,-1.411 -2.716,-2.958 -3.821,-4.628 h -21.874 l 1.976,6.463 c 2.179,7.128 0.834,14.961 -3.6,20.952 -4.433,5.992 -11.53,9.569 -18.984,9.569 h -30.345 c -2.873,0 -5.706,-0.523 -8.366,-1.531 -2.661,1.008 -5.492,1.531 -8.365,1.531 h -26.663 c -10.453,0 -19.528,-6.716 -22.584,-16.712 l -2.368,-7.746 c -1.186,-3.877 -1.333,-7.989 -0.489,-11.902 -2.889,-2.773 -5.065,-6.264 -6.25,-10.14 l -2.364,-7.732 c -1.608,-5.259 -1.318,-10.882 0.749,-15.899 l -1.882,-6.153 c -2.178,-7.128 -0.833,-14.96 3.6,-20.952 4.434,-5.992 11.531,-9.569 18.984,-9.569 h 47.269 c 2.581,0 5.129,0.22 7.625,0.652 -2.056,-7.05 -0.686,-14.752 3.687,-20.662 4.434,-5.99 11.531,-9.567 18.985,-9.567 l 12.798,0.001 c 11.913,0 20.949,1.143 29.233,3.764 3.78,-2.452 8.19,-3.765 12.808,-3.765 h 19.471 c 7.876,0 15.202,3.902 19.597,10.438 3.812,5.668 4.957,12.632 3.256,19.138 h 56.995 c -1.789,-6.869 -0.372,-14.281 3.866,-20.01 4.434,-5.992 11.53,-9.569 18.984,-9.569 h 18.749 c 10.435,0 18.677,1.501 25.901,4.793 4.057,-3.067 9.061,-4.793 14.252,-4.793 h 19.351 c 8.127,0 15.58,4.097 19.938,10.959 3.567,5.618 4.573,12.327 2.921,18.611 h 63.597 c 10.452,0 19.528,6.716 22.583,16.712 L 3.599,-20.953 C 5.78,-13.826 4.435,-5.992 0,0"
             style="fill:#ffffff;fill-opacity:1;fill-rule:nonzero;stroke:none"
             id="path24" />
        </g>
        <g
           id="g26"
           transform="translate(481.4878,129.576)">
          <path
             d="m 0,0 c -3.001,4.056 -7.748,6.448 -12.794,6.448 h -3.099 c -0.461,4.596 -2.876,8.784 -6.678,11.448 l -1.384,0.97 c -6.328,4.433 -14.923,3.683 -20.386,-1.78 -0.377,-0.378 -0.427,-0.426 -2.758,-2.353 -0.156,-0.129 -0.337,-0.28 -0.528,-0.442 -2.889,4.022 -7.597,6.649 -12.926,6.649 l -5.921,-0.012 c -0.534,-0.001 -1.8,-0.002 -2.174,0.004 -4.287,0.133 -8.485,-1.478 -11.58,-4.476 -2.751,-2.666 -4.428,-6.223 -4.768,-10.008 h -0.963 c -6.996,0 -13.173,-4.57 -15.219,-11.261 l -4.979,-16.288 c -1.568,2.31 -3.737,4.214 -6.347,5.45 -2.376,3.719 -6.195,6.293 -10.553,7.089 l -1.635,0.299 c -5.393,0.984 -10.701,-0.881 -14.296,-4.593 -0.023,0.023 -0.043,0.047 -0.067,0.069 -3.11,2.938 -7.265,4.499 -11.545,4.334 -1.325,-0.051 -7.236,-0.283 -8.306,-0.333 l -0.431,-0.019 c -0.518,-0.024 -1.064,-0.054 -1.57,-0.054 -4.317,0 -8.448,-1.754 -11.447,-4.859 -2.426,-2.511 -3.923,-5.736 -4.334,-9.159 h -0.74 c -6.998,0 -13.175,-4.571 -15.22,-11.262 l -2.468,-8.075 -0.917,2.981 c -1.435,4.667 -4.881,8.299 -9.209,10.063 2.628,1.963 4.652,4.737 5.676,8.03 l 2.238,7.202 c 1.501,4.831 0.617,10.087 -2.383,14.16 -2.999,4.073 -7.757,6.478 -12.815,6.478 h -23.887 c -5.291,0 -10.235,-2.629 -13.194,-7.015 l -18.095,-26.827 c -0.814,1.296 -1.756,2.515 -2.847,3.608 -3.939,3.949 -9.373,6.167 -14.874,6.124 -2.089,-0.009 -4.11,-0.331 -6.016,-0.919 -1.873,0.581 -3.855,0.902 -5.899,0.918 -5.562,0.086 -10.827,-2.037 -14.809,-5.937 -1.989,-1.948 -3.559,-4.283 -4.633,-6.827 h -39.889 c -0.306,0 -0.607,-0.02 -0.909,-0.037 3.078,1.989 5.463,5.021 6.589,8.704 l 2.369,7.748 c 1.475,4.825 0.576,10.064 -2.426,14.12 -3.001,4.056 -7.748,6.449 -12.793,6.449 h -30.345 c -3.033,0 -5.911,-0.859 -8.366,-2.376 -2.482,1.533 -5.371,2.376 -8.366,2.376 h -26.662 c -6.998,0 -13.174,-4.571 -15.22,-11.263 l -2.369,-7.747 c -1.281,-4.191 -0.77,-8.695 1.354,-12.464 -3.805,-1.907 -6.788,-5.311 -8.092,-9.577 l -2.364,-7.732 c -1.339,-4.378 -0.722,-9.096 1.646,-12.963 l -2.779,-9.089 c -1.474,-4.825 -0.575,-10.064 2.426,-14.12 3.001,-4.056 7.748,-6.448 12.794,-6.448 h 47.144 0.124 c 7.775,0 14.991,2.391 21.001,6.67 -1.189,-1.513 -2.125,-3.251 -2.712,-5.171 l -3.213,-10.509 c -1.475,-4.825 -0.575,-10.063 2.427,-14.12 3.001,-4.056 7.748,-6.447 12.794,-6.447 l 12.788,0.001 h 0.011 c 12.589,0 21.891,1.315 30.706,4.743 2.895,-2.938 6.916,-4.744 11.335,-4.744 h 19.47 c 5.299,0 10.25,2.636 13.207,7.034 2.956,4.396 3.532,9.976 1.533,14.884 -1.34,3.291 -4.271,7.549 -7.952,11.676 0.427,0.597 0.826,1.184 1.213,1.767 3.014,-3.641 7.484,-5.785 12.24,-5.785 h 69.993 l -2.755,-9.012 c -1.476,-4.825 -0.575,-10.063 2.427,-14.119 3.001,-4.056 7.747,-6.448 12.793,-6.448 h 18.704 0.045 c 11.385,0 19.731,1.833 27.274,6.562 2.955,-4.069 7.718,-6.562 12.878,-6.562 h 19.352 c 5.447,0 10.516,2.786 13.436,7.384 2.92,4.6 3.283,10.373 0.967,15.302 -1.13,2.403 -2.8,4.87 -4.783,7.315 1.19,-0.283 2.422,-0.431 3.671,-0.431 h 73.165 c 6.997,0 13.173,4.57 15.218,11.262 L 2.426,-14.12 C 3.901,-9.294 3.001,-4.056 0,0"
             style="fill:#130c0e;fill-opacity:1;fill-rule:nonzero;stroke:none"
             id="path28" />
        </g>
        <g
           id="g30"
           transform="translate(450.7436,112.3969)">
          <path
             d="m 0,0 h -38.668 c -2.078,0.006 -3.721,-1.313 -4.387,-3.495 l -12.328,-40.322 h 38.668 c 1.921,-0.011 3.673,1.16 4.387,3.495 z M 17.951,7.712 -0.155,-51.511 H -73.32 l 18.106,59.223 z m -39.528,-40.205 h 4.39 l 1.733,5.666 h -4.391 z m -15.472,24.9 1.421,4.646 h 27.475 l -1.42,-4.646 h -4.797 c -2.05,0 -3.537,-1.073 -4.277,-3.495 l -2.333,-7.632 h 8.004 l -1.524,-4.987 h -8.006 l -2.864,-9.37 c -0.451,-1.475 0.464,-2.536 2.959,-2.536 h 4.271 l -1.411,-4.616 h -27.475 l 1.411,4.616 h 4.85 c 1.981,0 3.496,1.116 4.227,3.506 l 2.568,8.4 h -8.006 l 1.525,4.987 h 8.006 l 2.63,8.601 c 0.305,0.999 0.115,2.526 -2.909,2.526 z"
             style="fill:#f15a22;fill-opacity:1;fill-rule:nonzero;stroke:none"
             id="path32" />
        </g>
        <g
           id="g34"
           transform="translate(450.0805,123.8754)">
          <path
             d="m 0,0 c -1.745,1.422 -3.606,2.676 -5.559,3.801 -1.047,0.608 -1.979,1.151 -1.979,1.978 0,0.634 0.647,1.28 1.992,2.392 2.611,2.16 2.96,2.456 3.865,3.362 l 1.384,-0.97 C -2.12,8.96 -2.404,8.74 -4.926,6.814 -5.559,6.335 -5.817,6.128 -5.817,5.857 c 0,-0.323 0.582,-0.647 0.957,-0.854 1.9,-1.034 4.964,-2.921 6.14,-3.93 z"
             style="fill:#f15a22;fill-opacity:1;fill-rule:nonzero;stroke:none"
             id="path36" />
        </g>
        <g
           id="g38"
           transform="translate(421.5395,130.3344)">
          <path
             d="m 0,0 c -0.46,0.828 -0.723,1.221 -1.235,1.864 l 0.92,0.539 C 0.209,1.799 0.642,1.116 0.918,0.552 Z M -1.615,-0.787 C -2.207,0.354 -2.627,0.88 -2.837,1.156 l 0.893,0.538 C -1.261,0.867 -0.815,0 -0.696,-0.236 Z M -0.604,2.98 C -2.259,2.692 -3.428,2.14 -4.95,1.208 L -5.896,2.14 c 0.42,0.289 0.512,0.342 1.367,0.762 -2.705,-0.04 -3.835,-0.066 -4.675,-0.118 v 1.483 c 0.393,-0.013 2.022,-0.013 2.679,-0.013 0.931,0 5.081,0.013 5.921,0.013 z m -6.513,-3.636 c -1.102,-1.063 -1.155,-2.022 -1.155,-2.298 0,-1.706 2.52,-1.733 4.491,-1.733 1.286,0 2.573,0.053 3.845,0.237 l 0.053,-1.47 c -0.46,-0.066 -1.378,-0.184 -3.413,-0.184 -2.586,0 -3.702,0.118 -4.818,0.656 -0.907,0.433 -1.603,1.431 -1.603,2.468 0,1.208 0.578,2.035 1.536,3.111 z"
             style="fill:#f15a22;fill-opacity:1;fill-rule:nonzero;stroke:none"
             id="path40" />
        </g>
        <g
           id="g42"
           transform="translate(374.5053,80.4384)">
          <path
             d="M 0,0 3.163,10.346 H -70.445 L -73.608,0 h 26.807 l -2.839,-9.287 h -26.807 l -3.171,-10.371 h 26.807 l -1.172,-3.835 c -3.754,-12.281 -11.888,-15.227 -22.874,-15.234 h -8.591 l -3.178,-10.395 h 18.71 c 14.369,-0.005 20.427,3.236 29.437,14.076 2.51,-2.01 8.709,-9.502 10.754,-14.076 h 19.352 c -3.509,7.462 -20.169,20.311 -24.913,22.842 l 2.024,6.622 H -6.01 l 3.17,10.371 H -30.091 L -27.252,0 Z"
             style="fill:#faa61a;fill-opacity:1;fill-rule:nonzero;stroke:none"
             id="path44" />
        </g>
        <g
           id="g46"
           transform="translate(355.5698,105.3588)">
          <path
             d="m 0,0 c -0.26,-0.779 -1.453,-4.167 -1.675,-4.868 0.286,0.208 0.792,0.571 1.675,0.571 2.09,0 2.142,-2.012 2.142,-2.947 v -0.557 c 0,-0.377 0,-1.558 1.102,-1.558 1.039,0 1.714,1.09 1.986,3.945 l 1.364,-0.401 c -0.351,-3.064 -1.13,-4.972 -3.518,-4.972 -1.063,0 -1.894,0.649 -2.18,1.415 -0.182,0.48 -0.221,1.259 -0.221,1.545 v 0.441 c 0,0.831 0,1.674 -0.973,1.674 -1.468,0 -2.207,-1.583 -2.479,-2.31 -0.028,-0.065 -0.676,-2.544 -0.767,-2.895 l -1.492,0.428 c 1.012,3.064 2.829,8.944 3.4,10.787 z"
             style="fill:#faa61a;fill-opacity:1;fill-rule:nonzero;stroke:none"
             id="path48" />
        </g>
        <g
           id="g50"
           transform="translate(331.5307,103.7865)">
          <path
             d="m 0,0 c -0.267,0.025 -0.559,0.051 -1.104,0.051 -1.142,0 -1.916,-0.305 -2.512,-0.596 -1.802,-0.901 -3.413,-2.64 -3.413,-4.353 0,-1.929 2.219,-2.614 5.874,-2.499 l -0.202,-1.511 c -2.729,0.013 -4.086,0.33 -5.242,0.927 -1.141,0.584 -1.889,1.789 -1.889,2.969 0,1.306 0.671,3.286 3.501,5.012 -1.98,-0.114 -3.946,-0.267 -5.913,-0.431 l -0.051,1.446 c 0.876,0 1.828,0.051 2.703,0.089 1.091,0.051 6.915,0.279 8.223,0.33 z"
             style="fill:#faa61a;fill-opacity:1;fill-rule:nonzero;stroke:none"
             id="path52" />
        </g>
        <g
           id="g54"
           transform="translate(280.9253,71.307)">
          <path
             d="m 0,0 h -2.925 c -1.916,-0.005 -3.683,1.104 -4.412,3.476 l -3.346,10.882 H -30.075 L -25.686,0 h -23.918 l 26.478,39.254 c 1.157,1.716 2.549,2.587 4.094,2.598 h 4.867 l 2.201,7.202 H -35.85 L -67.289,2.444 C -68.506,0.64 -69.989,0 -71.359,0 h -2.962 l -3.183,-10.411 H 3.183 Z"
             style="fill:#f15a22;fill-opacity:1;fill-rule:nonzero;stroke:none"
             id="path56" />
        </g>
        <g
           id="g58"
           transform="translate(121.5644,72.8431)">
          <path
             d="M 0,0 H 43.205 C 38.002,-13.763 27.217,-31.015 3.031,-31.015 H -9.482 l -3.213,-10.508 12.791,0.001 c 16.554,-0.001 25.223,2.21 37.513,10.475 1.963,-1.824 4.171,-5.498 4.537,-10.476 h 19.471 c -1.566,3.843 -10.243,13.534 -16.166,16.235 10.059,8.672 13.086,15.139 16.32,22.292 1.159,2.592 2.866,3.592 4.452,3.592 h 2.947 l 3.072,10.047 H 3.254 Z m 62.364,13.462 c 2.785,0.013 4.959,2.245 4.98,4.967 -0.028,2.736 -2.244,4.958 -4.967,4.979 -2.771,0.036 -4.958,-2.244 -4.98,-4.966 0.028,-2.736 2.245,-4.959 4.967,-4.98 m 17.177,4.967 c 0.028,-2.737 -2.194,-4.953 -4.98,-4.967 -2.722,0.021 -4.953,2.194 -4.966,4.98 0.021,2.722 2.194,4.954 4.98,4.966 2.737,0.029 5.002,-2.208 4.966,-4.979"
             style="fill:#faa61a;fill-opacity:1;fill-rule:nonzero;stroke:none"
             id="path60" />
        </g>
        <g
           id="g62"
           transform="translate(87.3037,120.4696)">
          <path
             d="m 0,0 -2.369,-7.748 h 1.693 c 2.55,0 3.451,-1.111 3.006,-2.567 l -8.413,-27.518 c -2.142,-7.005 -6.492,-11.309 -12.978,-11.317 h -33.75 l -3.187,-10.423 h 47.196 c 9.545,-0.031 17.552,6.227 20.724,16.602 l 9.694,31.706 c 0.67,2.192 1.891,3.517 4.284,3.517 h 2.076 L 30.345,0 Z m -28.203,-37.52 h -26.662 l 2.364,7.731 h 2.194 c 2.361,0 3.636,1.384 4.296,3.544 l 4.869,15.927 c 0.445,1.455 -0.449,2.57 -3.002,2.57 l -1.619,0.001 2.368,7.747 h 26.664 L -19.1,-7.748 h -2.19 c -2.367,0 -3.642,-1.388 -4.296,-3.528 l -4.869,-15.926 c -0.448,-1.465 0.457,-2.587 3.002,-2.587 h 1.614 z"
             style="fill:#f15a22;fill-opacity:1;fill-rule:nonzero;stroke:none"
             id="path64" />
        </g>
      </g>
    </g>
  </g>
</svg>
