<?xml version="1.0" encoding="UTF-8" standalone="no"?>
<!-- Generator: Adobe Illustrator 25.0.0, SVG Export Plug-In . SVG Version: 6.00 Build 0)  -->

<svg
   version="1.1"
   id="Layer_1"
   x="0px"
   y="0px"
   viewBox="0 0 666.66699 566.85724"
   xml:space="preserve"
   sodipodi:docname="Rhythm Heaven Megamix Logo (Fever Style).svg"
   width="666.66699"
   height="566.85724"
   inkscape:version="1.2.2 (b0a8486541, 2022-12-01)"
   xmlns:inkscape="http://www.inkscape.org/namespaces/inkscape"
   xmlns:sodipodi="http://sodipodi.sourceforge.net/DTD/sodipodi-0.dtd"
   xmlns:xlink="http://www.w3.org/1999/xlink"
   xmlns="http://www.w3.org/2000/svg"
   xmlns:svg="http://www.w3.org/2000/svg"><defs
   id="defs241" /><sodipodi:namedview
   id="namedview239"
   pagecolor="#505050"
   bordercolor="#eeeeee"
   borderopacity="1"
   inkscape:showpageshadow="0"
   inkscape:pageopacity="0"
   inkscape:pagecheckerboard="0"
   inkscape:deskcolor="#505050"
   showgrid="false"
   inkscape:zoom="2.4156593"
   inkscape:cx="245.27465"
   inkscape:cy="212.36438"
   inkscape:window-width="2560"
   inkscape:window-height="1400"
   inkscape:window-x="0"
   inkscape:window-y="0"
   inkscape:window-maximized="1"
   inkscape:current-layer="Rhythm_Heaven_x2122__00000129173644620777115040000018028889835627112075_" />
<style
   type="text/css"
   id="style2">
	.st0{fill:url(#Spectrum_1_);}
	.st1{fill:#FFFFFF;}
	.st2{fill:#220614;}
	.st3{fill:url(#SVGID_1_);}
	.st4{opacity:0.2;}
	.st5{clip-path:url(#SVGID_3_);}
	.st6{fill:url(#SVGID_4_);}
	.st7{clip-path:url(#SVGID_6_);}
	.st8{fill:url(#SVGID_7_);}
	.st9{clip-path:url(#SVGID_9_);}
	.st10{fill:url(#SVGID_10_);}
	.st11{clip-path:url(#SVGID_12_);}
	.st12{fill:url(#SVGID_13_);}
	.st13{clip-path:url(#SVGID_15_);}
	.st14{fill:url(#SVGID_16_);}
	.st15{clip-path:url(#SVGID_18_);}
	.st16{fill:url(#SVGID_19_);}
	.st17{clip-path:url(#SVGID_21_);}
	.st18{fill:url(#SVGID_22_);}
	.st19{fill:url(#SVGID_23_);}
	.st20{fill:url(#SVGID_24_);}
	.st21{fill:#F06917;}
	.st22{fill:#FEEF0E;}
</style>
<g
   id="Cloud_00000122703240977288030390000009418691447765243804_"
   transform="matrix(1.333334,0,0,1.333334,0,-4.000002e-5)">
	<linearGradient
   id="Spectrum_1_"
   gradientUnits="userSpaceOnUse"
   x1="423.86743"
   y1="281.05835"
   x2="40.18367"
   y2="59.538422">
		<stop
   offset="0.05"
   style="stop-color:#FF0000"
   id="stop4" />
		<stop
   offset="0.2"
   style="stop-color:#F49F00"
   id="stop6" />
		<stop
   offset="0.22617"
   style="stop-color:#F2BD00"
   id="stop8" />
		<stop
   offset="0.25775"
   style="stop-color:#F0DA00"
   id="stop10" />
		<stop
   offset="0.2892"
   style="stop-color:#EFEE00"
   id="stop12" />
		<stop
   offset="0.32014"
   style="stop-color:#EEFB00"
   id="stop14" />
		<stop
   offset="0.35"
   style="stop-color:#EEFF00"
   id="stop16" />
		<stop
   offset="0.5"
   style="stop-color:#00FF00"
   id="stop18" />
		<stop
   offset="0.75"
   style="stop-color:#1D0FFF"
   id="stop20" />
		<stop
   offset="0.95"
   style="stop-color:#710EC0"
   id="stop22" />
	</linearGradient>
	<path
   id="Spectrum"
   class="st0"
   d="M 423.95969,90.62759 C 419.15747,39.85703 376.23862,3e-5 324.17685,3e-5 c -37.37448,0 -71.16727,20.91543 -88.34323,52.84885 -10.79736,-3.79673 -22.22461,-5.75994 -33.82814,-5.75994 -18.12303,0 -35.97772,4.8937 -51.47849,13.96252 -14.40546,-7.81803 -30.46255,-11.89995 -47.11417,-11.89995 -54.72392,0 -99.245,44.59014 -99.245,99.39827 0,37.66025 21.10968,71.35365 53.35804,88.17313 -2.42692,7.6541 -3.67435,15.66524 -3.67435,23.81224 0,44.37512 36.96354,80.47635 82.39746,80.47635 27.52533,0 52.1516,-13.09067 67.16673,-33.72763 18.30157,16.94635 42.54834,26.72141 68.46808,26.72141 41.88922,0 78.82809,-25.89053 93.76575,-63.65353 2.46341,0.18527 4.93243,0.27847 7.40372,0.27847 54.04126,0 98.00656,-43.54427 98.00656,-97.06792 0,-34.08975 -18.1466,-65.47693 -47.10012,-82.93471 z"
   style="fill:url(#Spectrum_1_)" />
	<path
   id="White_00000023265767759718524010000007989588149201484986_"
   class="st1"
   d="M 413.29761,97.33685 C 411.81888,49.517 372.40879,11.06631 324.17685,11.06631 c -36.65701,0 -69.44153,22.61422 -82.81065,56.04264 -12.21208,-5.87951 -25.64633,-8.95373 -39.36072,-8.95373 -18.5918,0 -36.20229,5.4624 -51.28143,15.855 -14.13936,-9.04075 -30.37891,-13.79242 -47.31123,-13.79242 -48.62209,0 -88.17873,39.62569 -88.17873,88.33199 0,36.87933 22.76748,69.4752 56.45808,82.44574 -4.45301,9.19232 -6.77438,19.24246 -6.77438,29.53963 0,38.27274 31.99911,69.4101 71.33119,69.4101 28.83057,0 53.98007,-16.51859 65.17097,-41.09433 16.82283,21.35782 42.55394,34.08807 70.46384,34.08807 40.1882,0 75.25534,-26.7551 86.20709,-64.65955 4.94031,0.85333 9.94797,1.28448 14.96237,1.28448 47.93887,0 86.94028,-38.58037 86.94028,-86.00163 0,-32.08275 -18.16568,-61.46855 -46.69592,-76.22545 z" />
	<path
   id="Black_00000127003813349280224450000001235054226271293089_"
   class="st2"
   d="m 405.52673,102.20852 c 0.0177,-0.69662 0.0529,-1.3889 0.0529,-2.08974 0,-44.8961 -36.44522,-81.2915 -81.4028,-81.2915 -37.40704,0 -68.89922,25.20598 -78.4295,59.53145 -12.66183,-7.86995 -27.65445,-12.44296 -43.74193,-12.44296 -19.33952,0 -37.10179,6.59874 -51.12221,17.60978 -13.30583,-9.76733 -29.71114,-15.54678 -47.47011,-15.54678 -44.41378,0 -80.41825,36.07289 -80.41825,80.5711 0,37.50781 25.58191,69.02715 60.21755,78.00522 -6.65116,9.74362 -10.53379,21.41992 -10.53379,33.98007 0,34.04807 28.46153,61.64948 63.57056,61.64948 31.53596,0 57.69414,-22.27411 62.69466,-51.48172 13.59418,26.4007 41.14252,44.47491 72.94029,44.47491 39.89529,0 73.11832,-28.43796 80.45102,-66.09926 6.60599,1.76567 13.54752,2.72433 20.71866,2.72433 43.72925,0 79.17883,-35.02954 79.17883,-78.24068 10e-6,-31.77194 -19.17636,-59.10036 -46.7059,-71.3537 z" />
	<rect
   x="394.23721"
   y="247.16812"
   class="st2"
   width="4.7941899"
   height="4.79425"
   id="rect28" />
</g>
<g
   id="Megamix_00000106104928807225099170000011756329890572531349_"
   transform="matrix(1.333334,0,0,1.333334,0,-4.000002e-5)">
	<g
   id="X_00000086658258889094988390000004016246198062688902_">
		<path
   class="st2"
   d="m 500,211.98225 -72.09784,16.65976 v 87.79256 L 500,299.78946 V 282.9548 c 0,-8.34409 -9.8e-4,-17.65695 -8.13113,-26.19785 C 497.65073,248.27464 500,239.06975 500,226.01442 Z"
   id="path31" />
		
			<linearGradient
   id="SVGID_1_"
   gradientUnits="userSpaceOnUse"
   x1="444.58765"
   y1="4615.457"
   x2="503.70059"
   y2="4615.2686"
   gradientTransform="matrix(1,0.00319,-0.0035,1,5.96096,-4352.666)">
			<stop
   offset="0"
   style="stop-color:#FF8C3C"
   id="stop33" />
			<stop
   offset="0.75"
   style="stop-color:#FF5A00"
   id="stop35" />
		</linearGradient>
		<path
   class="st3"
   d="m 434.40405,308.43155 -3e-5,-10.32944 c -0.0276,-8.97043 -0.0147,-17.76404 10.46057,-30.65771 -7.67319,-5.07626 -10.46054,-12.26434 -10.46054,-26.28584 v -7.51834 l 22.63309,-5.23727 3e-5,16.65895 c 0,3.87448 2.4108,6.70142 6.91284,5.66203 4.50204,-1.03937 6.9129,-4.97948 6.9129,-8.85396 l 0.003,-16.65955 22.63315,-5.22527 v 7.53033 c 0,14.02151 -2.78775,22.49672 -10.46097,31.11598 10.46155,8.04626 10.46094,16.8508 10.46094,25.82761 v 10.32944 l -22.63315,5.22528 3e-5,-17.57635 c 0,-6.26755 -2.41339,-9.03476 -6.91544,-7.99536 -4.50204,1.03937 -6.91287,4.92035 -6.91287,11.18787 l 3e-5,17.57635 z"
   id="path38"
   style="fill:url(#SVGID_1_)" />
		<g
   class="st4"
   id="g50">
			<defs
   id="defs41">
				<path
   id="SVGID_2_"
   class="st4"
   d="m 434.40405,308.43155 -3e-5,-10.32944 c -0.0276,-8.97043 -0.0147,-17.76404 10.46057,-30.65771 -7.67319,-5.07626 -10.46054,-12.26434 -10.46054,-26.28584 v -7.51834 l 22.63309,-5.23727 3e-5,16.65895 c 0,3.87448 2.4108,6.70142 6.91284,5.66203 4.50204,-1.03937 6.9129,-4.97948 6.9129,-8.85396 l 0.003,-16.65955 22.63315,-5.22527 v 7.53033 c 0,14.02151 -2.78775,22.49672 -10.46097,31.11598 10.46155,8.04626 10.46094,16.8508 10.46094,25.82761 v 10.32944 l -22.63315,5.22528 3e-5,-17.57635 c 0,-6.26755 -2.41339,-9.03476 -6.91544,-7.99536 -4.50204,1.03937 -6.91287,4.92035 -6.91287,11.18787 l 3e-5,17.57635 z" />
			</defs>
			<clipPath
   id="SVGID_3_">
				<use
   xlink:href="#SVGID_2_"
   style="overflow:visible"
   id="use43" />
			</clipPath>
			<g
   class="st5"
   clip-path="url(#SVGID_3_)"
   id="g48">
				<polygon
   class="st1"
   points="578.28992,258.18808 78.89845,560.3031 50.05502,505.41296 549.47412,203.27036 "
   id="polygon46" />
			</g>
		</g>
	</g>
	<g
   id="I_00000110456001608755106790000002269719925448085636_">
		<polygon
   class="st2"
   points="432.92892,219.83585 397.26486,228.06953 397.26486,315.88065 432.92892,307.64697 "
   id="polygon53" />
		
			<linearGradient
   id="SVGID_4_"
   gradientUnits="userSpaceOnUse"
   x1="1411.0635"
   y1="4219.4844"
   x2="1450.2363"
   y2="4210.7593"
   gradientTransform="matrix(0.9523,0.0031,-0.2099,1.04947,-65.86328,-4159.4424)">
			<stop
   offset="0"
   style="stop-color:#AA37BE"
   id="stop55" />
			<stop
   offset="1"
   style="stop-color:#5F14A5"
   id="stop57" />
		</linearGradient>
		<path
   class="st6"
   d="m 403.76651,233.07016 22.66074,-5.23164 v 74.8076 l -22.66074,5.23163 z"
   id="path60"
   style="fill:url(#SVGID_4_)" />
		<g
   class="st4"
   id="g72">
			<defs
   id="defs63">
				<path
   id="SVGID_5_"
   class="st4"
   d="m 403.76651,233.07016 22.66074,-5.23164 v 74.8076 l -22.66074,5.23163 z" />
			</defs>
			<clipPath
   id="SVGID_6_">
				<use
   xlink:href="#SVGID_5_"
   style="overflow:visible"
   id="use65" />
			</clipPath>
			<g
   class="st7"
   clip-path="url(#SVGID_6_)"
   id="g70">
				<polygon
   class="st1"
   points="578.28992,258.18808 78.89845,560.3031 50.05502,505.41296 549.47412,203.27036 "
   id="polygon68" />
			</g>
		</g>
	</g>
	<g
   id="M_00000012467527633565478900000006767654119687667110_">
		<path
   class="st2"
   d="m 393.86356,246.27264 c -6.80948,-6.2572 -16.05615,-8.26126 -26.73779,-5.79521 -5.83264,1.34657 -10.86917,3.6747 -15.88519,7.39204 -5.01505,-1.40149 -10.05157,-1.40407 -15.88422,-0.0575 -10.68262,2.46628 -19.92831,8.73962 -26.73877,18.14124 -6.94525,9.58902 -9.40686,18.33926 -9.40686,33.43811 v 46.41797 L 403.27139,321.785 v -46.41797 c 0,-15.09982 -2.46161,-22.71345 -9.40783,-29.09439 z"
   id="path75" />
		
			<linearGradient
   id="SVGID_7_"
   gradientUnits="userSpaceOnUse"
   x1="305.71747"
   y1="310.68295"
   x2="396.9147"
   y2="310.68289"
   gradientTransform="matrix(1,-0.23087,0,1,0,59.37336)">
			<stop
   offset="0"
   style="stop-color:#FFFF00"
   id="stop77" />
			<stop
   offset="0.75"
   style="stop-color:#FFBE00"
   id="stop79" />
		</linearGradient>
		<path
   class="st8"
   d="m 388.95816,251.67184 c -5.55569,-5.1046 -13.05301,-6.71948 -21.83261,-4.69255 -5.8956,1.36111 -10.64038,3.82567 -15.88461,8.38161 -5.24423,-2.13448 -9.96078,-2.41473 -15.88458,-1.0471 -8.75354,2.02092 -16.27692,7.10359 -21.8327,14.77348 -5.8432,8.06671 -7.81116,15.25647 -7.81116,28.80347 v 39.9155 l 22.74341,-5.2507 v -44.23819 c 0,-6.66653 2.14868,-9.45572 5.65836,-10.26599 3.50968,-0.81027 5.75497,0.96448 5.75497,7.63098 v 44.23822 l 22.74341,-5.25073 v -44.23822 c 0,-6.6665 2.24533,-9.478 5.75494,-10.28824 3.50974,-0.8103 5.65839,0.98676 5.65839,7.65329 v 44.23819 l 22.74341,-5.25073 V 276.8686 c -10e-6,-13.54698 -1.96794,-19.82807 -7.81123,-25.19676 z"
   id="path82"
   style="fill:url(#SVGID_7_)" />
		<g
   class="st4"
   id="g96">
			<defs
   id="defs85">
				<path
   id="SVGID_8_"
   class="st4"
   d="m 388.95816,251.67184 c -5.55569,-5.1046 -13.05301,-6.71948 -21.83261,-4.69255 -5.8956,1.36111 -10.64038,3.82567 -15.88461,8.38161 -5.24423,-2.13448 -9.96078,-2.41473 -15.88458,-1.0471 -8.75354,2.02092 -16.27692,7.10359 -21.8327,14.77348 -5.8432,8.06671 -7.81116,15.25647 -7.81116,28.80347 v 39.9155 l 22.74341,-5.2507 v -44.23819 c 0,-6.66653 2.14868,-9.45572 5.65836,-10.26599 3.50968,-0.81027 5.75497,0.96448 5.75497,7.63098 v 44.23822 l 22.74341,-5.25073 v -44.23822 c 0,-6.6665 2.24533,-9.478 5.75494,-10.28824 3.50974,-0.8103 5.65839,0.98676 5.65839,7.65329 v 44.23819 l 22.74341,-5.25073 V 276.8686 c -10e-6,-13.54698 -1.96794,-19.82807 -7.81123,-25.19676 z" />
			</defs>
			<clipPath
   id="SVGID_9_">
				<use
   xlink:href="#SVGID_8_"
   style="overflow:visible"
   id="use87" />
			</clipPath>
			<g
   class="st9"
   clip-path="url(#SVGID_9_)"
   id="g94">
				<polygon
   class="st1"
   points="494.06555,173.53561 -4.78429,477.38602 -34.86943,415.40848 463.98041,111.55808 "
   id="polygon90" />
				<polygon
   class="st1"
   points="578.28992,258.18808 78.89845,560.3031 50.05502,505.41296 549.47412,203.27036 "
   id="polygon92" />
			</g>
		</g>
	</g>
	<g
   id="A_00000096017154671532898690000006217220080438480810_">
		<path
   class="st2"
   d="m 296.68658,263.11536 c -6.49884,-7.20708 -17.38168,-10.10425 -28.40131,-7.56017 -11.00595,2.54091 -21.88098,10.46031 -28.3813,20.6685 -5.58942,8.77585 -7.66762,16.78604 -7.66762,29.55515 v 47.72791 l 72.09784,-16.64511 v -47.72791 c 1e-5,-12.78473 -2.07284,-19.83655 -7.64761,-26.01837 z"
   id="path99" />
		
			<linearGradient
   id="SVGID_10_"
   gradientUnits="userSpaceOnUse"
   x1="238.73795"
   y1="302.93481"
   x2="297.83249"
   y2="302.93481"
   gradientTransform="matrix(1,-0.23087,0,1,0,59.37336)">
			<stop
   offset="0"
   style="stop-color:#6EE6FF"
   id="stop101" />
			<stop
   offset="0.85"
   style="stop-color:#00A0FF"
   id="stop103" />
		</linearGradient>
		<path
   class="st10"
   d="m 291.47601,268.20691 c -5.3465,-5.92834 -14.22034,-8.2211 -23.1908,-6.15012 -8.97043,2.07098 -17.83093,8.46802 -23.17139,16.85361 -4.68053,7.34949 -6.37589,14.0213 -6.37589,25.36768 V 345.504 l 22.60556,-5.2189 v -16.41714 l 13.88342,-3.18484 v 16.39676 l 22.60556,-5.2189 v -41.22592 c 2e-5,-11.34639 -1.6837,-17.24688 -6.35646,-22.42815 z m -15.68502,34.28183 -7.50577,-2.39987 -7.50577,5.86557 1.40717,-9.13089 -6.04602,-4.85599 8.37546,-3.24332 3.76917,-8.86676 3.76917,7.1264 8.37546,-0.62393 -6.04605,7.64767 z"
   id="path106"
   style="fill:url(#SVGID_10_)" />
		<g
   class="st4"
   id="g118">
			<defs
   id="defs109">
				<path
   id="SVGID_11_"
   class="st4"
   d="m 291.47601,268.20691 c -5.3465,-5.92834 -14.22034,-8.2211 -23.1908,-6.15012 -8.97043,2.07098 -17.83093,8.46802 -23.17139,16.85361 -4.68053,7.34949 -6.37589,14.0213 -6.37589,25.36768 V 345.504 l 22.60556,-5.2189 v -16.41714 l 13.88342,-3.18484 v 16.39676 l 22.60556,-5.2189 v -41.22592 c 2e-5,-11.34639 -1.6837,-17.24688 -6.35646,-22.42815 z m -15.68502,34.28183 -7.50577,-2.39987 -7.50577,5.86557 1.40717,-9.13089 -6.04602,-4.85599 8.37546,-3.24332 3.76917,-8.86676 3.76917,7.1264 8.37546,-0.62393 -6.04605,7.64767 z" />
			</defs>
			<clipPath
   id="SVGID_12_">
				<use
   xlink:href="#SVGID_11_"
   style="overflow:visible"
   id="use111" />
			</clipPath>
			<g
   class="st11"
   clip-path="url(#SVGID_12_)"
   id="g116">
				<polygon
   class="st1"
   points="494.06555,173.53561 -4.78429,477.38602 -34.86943,415.40848 463.98041,111.55808 "
   id="polygon114" />
			</g>
		</g>
	</g>
	<g
   id="G_00000072259711136487289110000006566737849794008758_">
		<path
   class="st2"
   d="m 233.17166,273.0257 c -7.46394,0.22668 -12.62796,0.86209 -19.05403,2.34567 -14.5743,3.36475 -25.87378,10.39554 -34.54411,21.49542 -7.91183,10.12866 -12.4492,22.94211 -12.4492,35.15445 0,12.72418 4.81821,23.40701 13.5667,30.08203 8.80661,6.72021 18.69603,8.17148 33.06764,4.85352 6.2854,-1.45108 10.98541,-3.04315 19.34219,-6.55298 l 5.29393,-2.22345 V 272.867 Z"
   id="path121" />
		
			<linearGradient
   id="SVGID_13_"
   gradientUnits="userSpaceOnUse"
   x1="1193.7004"
   y1="4274.7568"
   x2="1252.101"
   y2="4261.749"
   gradientTransform="matrix(0.9523,0.0031,-0.2099,1.04947,-65.86328,-4159.4429)">
			<stop
   offset="0"
   style="stop-color:#FF8232"
   id="stop123" />
			<stop
   offset="0.75"
   style="stop-color:#C80000"
   id="stop125" />
		</linearGradient>
		<path
   class="st12"
   d="m 231.89276,354.29388 c -7.56277,3.17651 -12.0517,4.75653 -18.13406,6.16077 -12.70461,2.93307 -20.94807,1.72961 -28.4846,-4.0209 -7.50639,-5.72751 -11.64778,-14.89902 -11.64778,-25.91403 0,-10.54373 3.81454,-21.49866 10.65413,-30.25443 7.45844,-9.54803 16.94347,-15.4151 29.83707,-18.39182 5.65742,-1.30612 10.4057,-1.95444 17.77525,-2.17755 v 23.43991 c -6.92793,0.14017 -11.25089,0.66891 -16.56081,1.89481 -12.36542,2.85477 -19.37616,10.22073 -19.37616,20.37585 0,8.53525 5.24429,13.49545 13.33148,12.74765 v -22.30826 l 22.60548,-5.2189 z"
   id="path128"
   style="fill:url(#SVGID_13_)" />
		<g
   class="st4"
   id="g140">
			<defs
   id="defs131">
				<path
   id="SVGID_14_"
   class="st4"
   d="m 231.89276,354.29388 c -7.56277,3.17651 -12.0517,4.75653 -18.13406,6.16077 -12.70461,2.93307 -20.94807,1.72961 -28.4846,-4.0209 -7.50639,-5.72751 -11.64778,-14.89902 -11.64778,-25.91403 0,-10.54373 3.81454,-21.49866 10.65413,-30.25443 7.45844,-9.54803 16.94347,-15.4151 29.83707,-18.39182 5.65742,-1.30612 10.4057,-1.95444 17.77525,-2.17755 v 23.43991 c -6.92793,0.14017 -11.25089,0.66891 -16.56081,1.89481 -12.36542,2.85477 -19.37616,10.22073 -19.37616,20.37585 0,8.53525 5.24429,13.49545 13.33148,12.74765 v -22.30826 l 22.60548,-5.2189 z" />
			</defs>
			<clipPath
   id="SVGID_15_">
				<use
   xlink:href="#SVGID_14_"
   style="overflow:visible"
   id="use133" />
			</clipPath>
			<g
   class="st13"
   clip-path="url(#SVGID_15_)"
   id="g138">
				<polygon
   class="st1"
   points="494.06555,173.53561 -4.78429,477.38602 -34.86943,415.40848 463.98041,111.55808 "
   id="polygon136" />
			</g>
		</g>
	</g>
	<g
   id="E_00000078003450398959639130000011775615813855833526_">
		<path
   class="st2"
   d="m 144.96738,285.4906 c -9.51628,2.14621 -16.65739,5.80615 -21.85754,11.12405 -6.56625,6.71463 -10.33241,15.6918 -10.33241,24.63077 0,6.25171 1.65084,10.66486 5.31884,13.72827 -4.12711,5.33881 -6.03632,11.27032 -6.03632,18.37286 0,8.80417 3.07457,15.38638 8.89159,19.03696 6.29909,3.95248 12.97572,3.49731 21.70612,1.48175 l 30.26659,-6.98761 v -87.8414 z"
   id="path143" />
		
			<linearGradient
   id="SVGID_16_"
   gradientUnits="userSpaceOnUse"
   x1="1136.938"
   y1="4279.7314"
   x2="1184.9574"
   y2="4269.0356"
   gradientTransform="matrix(0.9523,0.0031,-0.2099,1.04947,-65.86328,-4159.4424)">
			<stop
   offset="0"
   style="stop-color:#C8F000"
   id="stop145" />
			<stop
   offset="0.8"
   style="stop-color:#14B400"
   id="stop147" />
		</linearGradient>
		<path
   class="st14"
   d="m 142.65759,367.36362 c -8.86003,2.04529 -13.25746,1.75266 -17.47166,-0.89182 -4.39948,-2.76074 -6.62433,-7.78149 -6.62433,-14.62665 0,-8.2804 2.87054,-13.6636 10.43331,-19.43466 -7.14875,-2.06787 -9.71568,-5.4068 -9.71568,-12.66595 0,-7.06595 2.88457,-13.86987 7.86639,-18.9646 3.93051,-4.01959 9.79848,-6.95856 17.80287,-8.78278 l 21.47386,-4.95764 v 21.08688 l -15.07033,3.47925 c -5.9619,1.37643 -7.78362,2.772 -7.78362,6.02896 0,3.25693 1.82172,3.81137 7.78362,2.43497 l 15.07033,-3.47928 -2e-5,15.80853 -15.07031,3.47925 c -5.9619,1.37643 -6.56915,4.17307 -6.56915,5.74634 0,1.68369 0.60725,4.12491 6.56915,2.7485 l 15.07033,-3.47925 v 20.9834 z"
   id="path150"
   style="fill:url(#SVGID_16_)" />
		<g
   class="st4"
   id="g162">
			<defs
   id="defs153">
				<path
   id="SVGID_17_"
   class="st4"
   d="m 142.65759,367.36362 c -8.86003,2.04529 -13.25746,1.75266 -17.47166,-0.89182 -4.39948,-2.76074 -6.62433,-7.78149 -6.62433,-14.62665 0,-8.2804 2.87054,-13.6636 10.43331,-19.43466 -7.14875,-2.06787 -9.71568,-5.4068 -9.71568,-12.66595 0,-7.06595 2.88457,-13.86987 7.86639,-18.9646 3.93051,-4.01959 9.79848,-6.95856 17.80287,-8.78278 l 21.47386,-4.95764 v 21.08688 l -15.07033,3.47925 c -5.9619,1.37643 -7.78362,2.772 -7.78362,6.02896 0,3.25693 1.82172,3.81137 7.78362,2.43497 l 15.07033,-3.47928 -2e-5,15.80853 -15.07031,3.47925 c -5.9619,1.37643 -6.56915,4.17307 -6.56915,5.74634 0,1.68369 0.60725,4.12491 6.56915,2.7485 l 15.07033,-3.47925 v 20.9834 z" />
			</defs>
			<clipPath
   id="SVGID_18_">
				<use
   xlink:href="#SVGID_17_"
   style="overflow:visible"
   id="use155" />
			</clipPath>
			<g
   class="st15"
   clip-path="url(#SVGID_18_)"
   id="g160">
				<polygon
   class="st1"
   points="494.06555,173.53561 -4.78429,477.38602 -34.86943,415.40848 463.98041,111.55808 "
   id="polygon158" />
			</g>
		</g>
	</g>
	<g
   id="M_00000128444486173018280470000003670912814012902803_">
		<path
   class="st2"
   d="m 109.05912,310.95236 c -6.80997,-6.25708 -16.05566,-8.26135 -26.73827,-5.7951 -5.83363,1.3468 -10.87016,3.67496 -15.88422,7.39182 -5.01455,-1.40158 -10.05157,-1.40405 -15.88471,-0.0574 -10.68261,2.46628 -19.9283,8.73965 -26.73827,18.14114 -6.94575,9.58817 -9.40736,18.33838 -9.40736,33.43823 v 46.41696 l 104.0602,-24.02417 v -46.41699 c -10e-6,-15.09983 -2.46162,-22.71344 -9.40737,-29.09452 z"
   id="path165" />
		
			<linearGradient
   id="SVGID_19_"
   gradientUnits="userSpaceOnUse"
   x1="12.60427"
   y1="309.61023"
   x2="114.19212"
   y2="309.61017"
   gradientTransform="matrix(1,-0.23087,0,1,0,59.37336)">
			<stop
   offset="0"
   style="stop-color:#FFFF00"
   id="stop167" />
			<stop
   offset="0.75"
   style="stop-color:#FFBE00"
   id="stop169" />
		</linearGradient>
		<path
   class="st16"
   d="m 104.15366,316.35126 c -5.55572,-5.10461 -13.05301,-6.71948 -21.83263,-4.69257 -5.89559,1.36111 -10.64036,3.82568 -15.88459,8.38162 -5.24423,-2.13449 -9.96079,-2.41473 -15.88459,-1.04712 -8.75356,2.0209 -16.27691,7.10358 -21.83269,14.77347 -5.84321,8.06674 -7.81116,15.2565 -7.81116,28.80347 v 39.91553 l 22.74339,-5.25073 v -44.23819 c 0,-6.6665 2.14867,-9.45569 5.65836,-10.26596 3.50968,-0.81027 5.75496,0.96448 5.75496,7.63098 v 44.23822 l 22.74343,-5.25076 v -44.23819 c 0,-6.6665 2.24531,-9.478 5.75493,-10.28827 3.50974,-0.81027 5.65838,0.98679 5.65838,7.65329 v 44.23822 l 22.74343,-5.25073 V 341.548 c 0,-13.54696 -1.96795,-19.82806 -7.81122,-25.19674 z"
   id="path172"
   style="fill:url(#SVGID_19_)" />
		<g
   class="st4"
   id="g184">
			<defs
   id="defs175">
				<path
   id="SVGID_20_"
   class="st4"
   d="m 104.15366,316.35126 c -5.55572,-5.10461 -13.05301,-6.71948 -21.83263,-4.69257 -5.89559,1.36111 -10.64036,3.82568 -15.88459,8.38162 -5.24423,-2.13449 -9.96079,-2.41473 -15.88459,-1.04712 -8.75356,2.0209 -16.27691,7.10358 -21.83269,14.77347 -5.84321,8.06674 -7.81116,15.2565 -7.81116,28.80347 v 39.91553 l 22.74339,-5.25073 v -44.23819 c 0,-6.6665 2.14867,-9.45569 5.65836,-10.26596 3.50968,-0.81027 5.75496,0.96448 5.75496,7.63098 v 44.23822 l 22.74343,-5.25076 v -44.23819 c 0,-6.6665 2.24531,-9.478 5.75493,-10.28827 3.50974,-0.81027 5.65838,0.98679 5.65838,7.65329 v 44.23822 l 22.74343,-5.25073 V 341.548 c 0,-13.54696 -1.96795,-19.82806 -7.81122,-25.19674 z" />
			</defs>
			<clipPath
   id="SVGID_21_">
				<use
   xlink:href="#SVGID_20_"
   style="overflow:visible"
   id="use177" />
			</clipPath>
			<g
   class="st17"
   clip-path="url(#SVGID_21_)"
   id="g182">
				<polygon
   class="st1"
   points="494.06555,173.53561 -4.78429,477.38602 -34.86943,415.40848 463.98041,111.55808 "
   id="polygon180" />
			</g>
		</g>
	</g>
	<g
   id="_x2605__00000055669354295850239440000000225889814098885275_">
		<polygon
   class="st2"
   points="424.09253,297.77982 409.39319,300.51398 420.50659,310.48935 418.59689,325.23752 431.48322,317.81461 444.96249,324.27045 441.86203,309.64145 452.11093,298.77423 437.27875,297.22888 430.13617,284.08563 "
   id="polygon187" />
		
			<radialGradient
   id="SVGID_22_"
   cx="499.37759"
   cy="668.92572"
   r="24.922501"
   gradientTransform="matrix(0.45,0,0,0.45,206.17873,4.54977)"
   gradientUnits="userSpaceOnUse">
			<stop
   offset="0"
   style="stop-color:#FAFFC8"
   id="stop189" />
			<stop
   offset="0.45"
   style="stop-color:#C8FF00"
   id="stop191" />
			<stop
   offset="1"
   style="stop-color:#00A000"
   id="stop193" />
		</radialGradient>
		<polygon
   class="st18"
   points="427.3381,301.88162 419.47168,303.34442 425.40607,308.67145 424.38477,316.56558 431.2851,312.59085 438.48898,316.04102 436.83301,308.2298 442.32559,302.40594 434.3764,301.57794 430.56738,294.56714 "
   id="polygon196"
   style="fill:url(#SVGID_22_)" />
	</g>
	<g
   id="_x2605__00000151542417986511424430000005911961844926333828_">
		<polygon
   class="st2"
   points="194.4267,260.97775 193.48552,274.03894 182.20265,280.72534 194.35442,285.62805 197.17451,298.4216 205.63582,288.39346 218.67943,289.65063 211.7283,278.51672 216.94995,266.50858 204.24237,269.64615 "
   id="polygon199" />
		
			<radialGradient
   id="SVGID_23_"
   cx="-11.24759"
   cy="611.01477"
   r="21.70192"
   gradientTransform="matrix(0.45,0,0,0.45,206.17873,4.54977)"
   gradientUnits="userSpaceOnUse">
			<stop
   offset="0"
   style="stop-color:#FFFFA0"
   id="stop201" />
			<stop
   offset="0.55"
   style="stop-color:#FFFF00"
   id="stop203" />
			<stop
   offset="1"
   style="stop-color:#FFC800"
   id="stop205" />
		</radialGradient>
		<polygon
   class="st19"
   points="197.9431,269.58789 197.44626,276.48822 191.48442,280.02127 197.9155,282.61584 199.40602,289.3782 203.87746,284.07867 210.75018,284.74121 207.07927,278.86203 209.83929,272.51373 203.13214,274.16971 "
   id="polygon208"
   style="fill:url(#SVGID_23_)" />
	</g>
	<g
   id="_x2605__00000165235180282004194370000009724183725231266710_">
		<polygon
   class="st2"
   points="8.47497,385.94943 10.47454,400.04507 0,409.74011 14.05316,412.17145 19.95272,425.14276 26.68015,412.51822 40.84613,410.85663 30.89712,400.61554 33.6762,386.62149 20.89487,392.91519 "
   id="polygon211" />
		
			<radialGradient
   id="SVGID_24_"
   cx="-412.63272"
   cy="889.27661"
   r="25.18399"
   gradientTransform="matrix(0.45,0,0,0.45,206.17873,4.54977)"
   gradientUnits="userSpaceOnUse">
			<stop
   offset="0"
   style="stop-color:#D9FFFF"
   id="stop213" />
			<stop
   offset="0.42"
   style="stop-color:#96D2FF"
   id="stop215" />
			<stop
   offset="1"
   style="stop-color:#00AAFF"
   id="stop217" />
		</radialGradient>
		<polygon
   class="st20"
   points="13.7316,393.62851 14.86325,401.60532 8.92901,407.09796 16.9058,408.47803 20.24546,415.82001 24.05461,408.6712 32.05899,407.73279 26.4283,401.93652 28.00149,394.01492 20.77002,397.57553 "
   id="polygon220"
   style="fill:url(#SVGID_24_)" />
	</g>
</g>
<g
   id="Rhythm_Heaven_x2122__00000129173644620777115040000018028889835627112075_"
   transform="matrix(1.333334,0,0,1.333334,0,-4.000002e-5)">
	<path
   id="_x2122__00000147219630015364283730000015548906908492006068_"
   class="st21"
   d="m 390.23511,209.04558 v -6.72845 l -2.82874,0.65306 v -1.44586 l 7.48215,-1.72739 v 1.44586 l -2.72678,0.62953 v 6.72845 z m 12.69619,-2.93114 v -6.83241 l -1.71765,7.22896 -1.86035,0.42949 -1.67682,-6.44528 v 6.83241 l -1.75842,0.40596 v -8.17905 l 2.74719,-0.63425 1.65646,6.10507 0.0204,-0.005 1.61569,-6.8605 2.71152,-0.62601 v 8.17905 z" />
	<path
   d="m 369.31514,135.07127 c 0,0 -0.11026,28.84156 -0.46925,33.91516 -0.56099,7.92529 -2.69028,8.13787 -4.50203,6.94886 -3.61556,-2.37186 -10.37213,-15.87971 -16.42041,-27.62609 l -8.825,2.03756 v 72.98772 l 10.79111,-2.49181 0.0362,-18.51971 c 0.0185,-9.50595 2.61353,-10.12427 6.3861,-6.67101 2.86228,2.61971 6.75657,8.39896 12.89305,18.22509 l 14.27966,-3.29801 v -78.77932 z"
   style="fill:#f06917;fill-opacity:1;fill-rule:nonzero;stroke:none;stroke-width:0.882057"
   id="path36"
   inkscape:label="N_00000154407663233479812950000015599957547319346829_" /><path
   d="m 314.84713,208.18485 c -0.32724,0.002 -2.75114,-0.0812 -3.01046,-1.92994 -0.14995,-1.07082 0.36341,-2.07637 1.65739,-2.86758 2.02256,-1.23753 9.02346,-3.2495 15.74298,-4.82574 v -9.29161 c 0,0 -12.16624,2.92755 -15.90881,2.37098 -1.13698,-0.16848 -1.89378,-0.77004 -2.04373,-1.81969 -0.15436,-1.07346 0.38634,-2.04108 1.65739,-2.86757 3.4215,-2.22985 18.78168,-5.54286 18.78168,-5.54286 v -21.44108 l -31.62622,7.30168 v 57.15476 l 32.28952,-7.45428 v -11.87516 c -8.6186,1.95818 -14.44283,3.07134 -17.53974,3.08809"
   style="fill:#f06917;fill-opacity:1;fill-rule:nonzero;stroke:none;stroke-width:0.882057"
   id="path40"
   inkscape:label="E_00000115489675941594069710000008350943951853782156_" />
	
	<path
   id="V_00000081629889794476699830000006914860488744837041_"
   class="st21"
   d="m 279.88367,165.54167 c 0,0 -3.42596,22.57228 -6.46808,33.00349 -0.86923,2.98056 -2.97021,7.54114 -5.82797,1.02025 -1.02353,-2.33553 -4.06183,-13.24738 -6.29169,-27.31479 l -9.86642,2.27785 c 0.86348,9.67253 5.59988,35.79729 11.91055,51.0172 l 19.13513,-4.41769 c 7.04327,-18.63977 11.26929,-38.32736 12.70554,-59.1179 z" />
	<path
   id="A_00000011026132927807966790000011452485035826213029_"
   class="st21"
   d="m 245.91931,196.57141 c -4.78874,-8.8226 -10.35753,-6.99432 -13.21098,-6.05017 -3.73863,1.23705 -7.05695,3.15715 -10.52924,16.93022 -3.64996,14.4778 -7.62328,44.88992 -7.62328,44.88992 l 10.01903,-2.31306 1.02925,-5.76602 c 0.49712,-2.78497 2.26968,-4.5542 4.97168,-5.34926 0,0 7.76305,-2.01489 10.41307,-2.31618 1.11951,-0.12729 2.43498,0.75638 2.81734,2.50917 l 1.35336,6.2041 13.64466,-3.15013 c 0,0 -6.78754,-34.3551 -12.88489,-45.58859 z m -8.43338,32.35686 c -1.52411,0.3318 -4.99144,1.21007 -6.76321,1.54189 -1.69556,0.33176 -2.6862,-0.62454 -2.47668,-3.04474 0.19052,-2.26398 1.18507,-7.06439 1.56219,-8.68526 0.83405,-3.58476 2.47319,-5.07892 4.40083,-5.34775 2.47095,-0.3446 4.62947,1.81511 5.81068,7.67032 0.11427,0.56606 0.40263,1.74088 0.59056,3.33751 0.22819,1.9387 -0.72393,3.92299 -3.12437,4.52803 z" /><path
   d="m 192.4322,240.41184 c -0.32725,0.002 -2.75203,-0.0812 -3.01047,-1.92994 -0.14995,-1.0717 0.36429,-2.07725 1.6565,-2.86758 2.02345,-1.23841 9.02435,-3.25038 15.74387,-4.82574 v -9.29249 c 0,0 -12.16711,2.92755 -15.90881,2.37098 -1.13697,-0.16848 -1.89378,-0.76916 -2.04461,-1.81969 -0.15348,-1.07258 0.38723,-2.04021 1.65739,-2.86758 3.42239,-2.22896 18.78255,-5.54197 18.78255,-5.54197 v -23.11082 l -31.62621,7.30168 v 57.15564 l 32.28864,-7.45515 v -10.20631 c -8.61771,1.95817 -14.44283,3.07133 -17.53885,3.08897"
   style="fill:#f06917;fill-opacity:1;fill-rule:nonzero;stroke:none;stroke-width:0.882057"
   id="path52"
   inkscape:label="E_00000050650956856311358550000014081449469969630607_" />
	
	<path
   id="H_00000122690198087056904420000016455812663034975626_"
   class="st21"
   d="m 153.07202,192.72713 c 0.30383,11.38794 0.18138,19.91245 -1.38104,25.50563 -0.94907,3.39758 -3.03827,5.98347 -5.82794,7.94121 -2.84151,1.99411 -5.68991,2.86768 -8.47958,2.92279 -3.40176,0.0673 -5.86043,-1.2567 -6.18703,-4.82538 -0.49721,-5.43202 -0.71815,-13.02505 -0.55241,-22.53796 l -12.34651,2.85042 v 84.09949 l 16.95914,-3.91531 c -0.3038,-10.72617 0.0619,-18.68256 1.38104,-23.60306 0.899,-3.35324 3.35919,-6.19127 5.82797,-7.85851 2.88519,-1.94839 5.68425,-2.96014 8.47958,-3.00551 3.39735,-0.0552 5.8665,1.52011 6.18703,4.9081 0.46957,4.96327 0.69052,12.12376 0.55241,21.25066 l 12.62268,-2.91418 v -84.79745 z" />
	<path
   id="M"
   class="st22"
   d="m 357.71417,56.862 c -5.26483,17.38477 -8.2446,25.88522 -10.84042,33.05121 -4.42386,12.19313 -9.01239,7.40365 -11.15109,4.00345 -2.48618,-3.98517 -5.86807,-11.73612 -11.73615,-25.94007 l -14.49643,3.34531 v 68.23961 l 12.02866,-2.77702 c -0.0915,-10.87691 0.0913,-18.26222 0.6763,-21.13228 0.53018,-2.57755 2.08395,-2.94316 3.6561,-0.3839 1.29785,2.10229 3.34543,6.65413 7.42194,16.01377 l 8.05975,-1.86073 c 4.44214,-11.93719 6.8389,-17.95539 8.539,-20.89857 1.37103,-2.39474 3.98514,-4.07655 4.77121,0.34734 0.60315,3.34535 0.54837,12.42082 0.53009,23.53539 l 12.46735,-2.87831 V 54.57034 Z" />
	<path
   id="H_00000031896610271962245250000000626054935239758492_"
   class="st22"
   d="m 288.35779,92.49142 c -0.0548,9.32303 -0.0365,17.82347 -0.43869,20.93118 -0.93234,7.42189 -13.61905,10.76727 -14.2406,3.93032 -0.29245,-3.21735 -0.5484,-7.46788 -0.5484,-16.95547 l -10.25537,2.36758 v 62.51944 l 13.07059,-3.01759 c 0,-9.9263 0,-14.23923 0.16455,-17.63939 0.457,-8.95747 13.91144,-10.98662 15.08142,-3.19907 0.53012,3.54643 0.62155,5.24649 0.62155,13.25334 l 10.41989,-2.40562 V 89.28815 Z" />
	<path
   id="T_00000170237883190621908460000010861630205109580214_"
   class="st22"
   d="m 219.00143,97.65535 v 25.16498 l 7.29395,-1.68394 c 4.42375,-1.0213 6.25194,-0.44531 6.25194,7.38532 v 32.30313 l 11.97375,-2.7435 3e-5,-29.63278 c -3e-5,-13.1623 1.23576,-16.48386 7.75092,-17.98801 l 5.95946,-1.37585 V 88.59839 Z" />
	<path
   id="Y"
   class="st22"
   d="m 214.10228,114.27586 -11.18779,2.58291 c 0,0 0.16454,11.51669 -0.27408,19.99883 -0.63994,12.41254 -13.14378,15.08147 -14.14915,3.27226 -0.5119,-6.19713 -0.7495,-18.54907 -0.7495,-18.54907 l -13.91145,3.21171 v 10.07255 c 0,24.03886 15.62975,27.00037 23.80116,20.14513 0.49361,-0.42044 0.9872,-0.67636 1.38933,-0.49358 0.45702,0.2011 0.43872,0.69469 0.256,1.60869 -0.49359,2.39474 -4.04002,7.12944 -11.20596,9.04886 -5.46596,1.46245 -10.82214,2.38493 -13.49103,2.80537 v 16.68166 c 12.02852,-1.5538 25.95827,-4.99054 32.44789,-14.97174 3.38191,-5.20995 5.15518,-10.71242 6.03261,-18.86549 1.37103,-12.83294 1.04197,-36.54809 1.04197,-36.54809 z" />
	<path
   id="H_00000049186684702005796530000003856009416099161237_"
   class="st22"
   d="m 153.13664,113.2392 c -0.0548,9.32303 -0.0365,17.82347 -0.43872,20.93118 -0.93231,7.42189 -13.61902,10.76726 -14.24057,3.93031 -0.29248,-3.21735 -0.54842,-7.46788 -0.54842,-16.95546 l -10.25537,2.36758 v 62.51944 l 13.0706,-3.01759 c 0,-9.9263 0,-14.23923 0.16454,-17.63939 0.45702,-8.95747 13.91145,-10.98662 15.08142,-3.19908 0.53014,3.54643 0.62155,5.24651 0.62155,13.25334 l 10.41989,-2.40562 v -62.98799 z" />
	<path
   id="R_00000068678057294261153770000015506118549526003101_"
   class="st22"
   d="m 121.20052,126.03556 c 0,-26.37883 -25.81207,-34.0384 -57.3826,-22.75926 v 85.1529 l 13.45449,-3.10622 v -21.31876 c 0,-3.25395 2.39476,-2.68726 4.60669,-0.71298 1.55386,1.38934 10.89525,10.43825 17.42139,16.94617 l 20.53981,-4.74205 c 0,0 -17.90739,-18.29153 -19.97314,-20.10127 12.02862,-4.49703 21.33336,-16.21626 21.33336,-29.35853 z m -36.14058,24.80669 c -4.99059,1.16992 -7.76924,-1.60867 -7.76924,-7.54987 v -5.74007 c -2.7e-4,-4.14011 0.80432,-7.73268 4.49699,-8.9026 10.72157,-3.39684 18.18917,1.22476 18.18917,8.4821 0,6.7821 -5.19165,11.42533 -14.91692,13.71044 z" />
</g>
</svg>
