<?xml version="1.0" encoding="UTF-8" standalone="no"?>
<!-- Created with Inkscape (http://www.inkscape.org/) -->

<svg
   version="1.1"
   id="svg2"
   width="666.66669"
   height="496.35468"
   viewBox="0 0 666.66669 496.35468"
   sodipodi:docname="Rhythm Heaven Logo but it's Pizza Time!.ai"
   xmlns:inkscape="http://www.inkscape.org/namespaces/inkscape"
   xmlns:sodipodi="http://sodipodi.sourceforge.net/DTD/sodipodi-0.dtd"
   xmlns="http://www.w3.org/2000/svg"
   xmlns:svg="http://www.w3.org/2000/svg">
  <defs
     id="defs6">
    <clipPath
       clipPathUnits="userSpaceOnUse"
       id="clipPath16">
      <path
         d="M 0,372.266 H 500 V 0 H 0 Z"
         id="path14" />
    </clipPath>
  </defs>
  <sodipodi:namedview
     id="namedview4"
     pagecolor="#ffffff"
     bordercolor="#000000"
     borderopacity="0.25"
     inkscape:showpageshadow="2"
     inkscape:pageopacity="0.0"
     inkscape:pagecheckerboard="0"
     inkscape:deskcolor="#d1d1d1" />
  <g
     id="g8"
     inkscape:groupmode="layer"
     inkscape:label="Rhythm Heaven Logo but it's Pizza Time!"
     transform="matrix(1.3333333,0,0,-1.3333333,0,496.35467)">
    <g
       id="g10">
      <g
         id="g12"
         clip-path="url(#clipPath16)">
        <g
           id="g18"
           transform="translate(481.8831,224.0316)">
          <path
             d="m 0,0 c 4.894,12.547 7.441,25.99 7.441,39.551 0,59.928 -48.754,108.683 -108.682,108.683 -34.925,0 -67.126,-16.686 -87.342,-43.975 -14.012,7.001 -29.565,10.725 -45.455,10.725 -20.991,0 -41.147,-6.349 -58.289,-18.36 -8.888,-6.229 -16.636,-13.735 -23.038,-22.255 -17.193,10.789 -37.267,16.702 -57.835,16.702 -59.928,0 -108.683,-48.755 -108.683,-108.683 0,-24.092 7.723,-46.916 22.335,-66.007 10.207,-13.335 23.493,-24.171 38.472,-31.557 -0.204,-2.623 -0.307,-5.258 -0.307,-7.897 0,-55.669 45.29,-100.959 100.959,-100.959 20.884,0 40.93,6.327 57.972,18.298 10.137,7.121 18.773,15.914 25.603,25.984 11.397,-4.307 23.536,-6.534 35.935,-6.534 31.208,0 60.532,14.581 79.601,38.459 12.554,-5.597 26.177,-8.498 40.267,-8.498 54.679,0 99.163,44.484 99.163,99.162 C 18.117,-36.458 11.765,-16.626 0,0"
             style="fill:#e08858;fill-opacity:1;fill-rule:nonzero;stroke:none"
             id="path20" />
        </g>
        <g
           id="g22"
           transform="translate(468.8918,222.4202)">
          <path
             d="m 0,0 c 5.98,12.826 9.115,26.918 9.115,41.162 0,53.688 -43.678,97.366 -97.365,97.366 -34.693,0 -66.385,-18.377 -83.768,-47.706 -14.529,9.386 -31.55,14.456 -49.029,14.456 -18.655,0 -36.565,-5.64 -51.793,-16.312 -10.96,-7.68 -19.969,-17.542 -26.538,-28.964 -17.159,13.703 -38.677,21.363 -60.831,21.363 -53.687,0 -97.366,-43.678 -97.366,-97.365 0,-40.116 24.959,-76.144 61.728,-90.631 -0.816,-4.887 -1.227,-9.848 -1.227,-14.83 0,-49.429 40.213,-89.642 89.641,-89.642 18.544,0 36.341,5.616 51.467,16.241 11.591,8.143 20.974,18.746 27.565,31.059 12.5,-6.276 26.297,-9.552 40.478,-9.552 30.846,0 59.619,16.027 76.091,41.624 13.257,-7.66 28.192,-11.663 43.777,-11.663 48.438,0 87.845,39.407 87.845,87.845 C 19.79,-35.123 12.811,-15.654 0,0"
             style="fill:#ff0000;fill-opacity:1;fill-rule:nonzero;stroke:none"
             id="path24" />
        </g>
        <g
           id="g26"
           transform="translate(457.0276,220.9139)">
          <path
             d="m 0,0 c 7.066,12.623 11.1,27.174 11.1,42.668 0,48.318 -39.168,87.486 -87.486,87.486 -35.965,0 -66.856,-21.705 -80.302,-52.728 -14.093,12.138 -32.436,19.478 -52.495,19.478 -34.318,0 -63.615,-21.483 -75.187,-51.733 -15.969,17.115 -38.72,27.82 -63.975,27.82 -48.317,0 -87.485,-39.168 -87.485,-87.485 0,-39.96 26.791,-73.661 63.391,-84.124 -1.881,-6.792 -2.891,-13.946 -2.891,-21.337 0,-44.051 35.71,-79.762 79.761,-79.762 34.079,0 63.16,21.375 74.583,51.446 12.831,-8.648 28.29,-13.698 44.927,-13.698 32.057,0 59.734,18.744 72.675,45.869 13.102,-9.979 29.454,-15.908 47.194,-15.908 43.058,0 77.964,34.906 77.964,77.965 C 21.774,-33.06 13.482,-14.015 0,0"
             style="fill:#f8e080;fill-opacity:1;fill-rule:nonzero;stroke:none"
             id="path28" />
        </g>
        <g
           id="g30"
           transform="translate(457.0208,137.6717)">
          <path
             d="M 0,0 V 6.729 L -1.691,-0.39 -3.523,-0.813 -5.175,5.534 v -6.728 l -1.731,-0.4 v 8.055 l 2.705,0.625 1.632,-6.013 0.019,0.005 1.592,6.756 2.67,0.617 V 0.396 Z M -12.504,-2.887 V 3.74 l -2.785,-0.643 v 1.424 l 7.368,1.702 V 4.799 l -2.685,-0.62 v -6.627 z"
             style="fill:#b80000;fill-opacity:1;fill-rule:nonzero;stroke:none"
             id="path32" />
        </g>
        <g
           id="g34"
           transform="translate(419.8547,223.2986)">
          <path
             d="m 0,0 c 0,0 -0.125,-32.699 -0.532,-38.451 -0.636,-8.984 -3.05,-9.225 -5.105,-7.877 -4.098,2.689 -11.758,18.002 -18.616,31.32 l -10.005,-2.31 v -82.747 l 12.235,2.825 0.041,20.996 c 0.021,10.777 2.963,11.478 7.24,7.563 3.244,-2.97 7.659,-9.522 14.617,-20.662 l 16.189,3.738 V 3.708 Z"
             style="fill:#b80000;fill-opacity:1;fill-rule:nonzero;stroke:none"
             id="path36" />
        </g>
        <g
           id="g38"
           transform="translate(358.1038,140.409)">
          <path
             d="m 0,0 c -0.371,-0.002 -3.119,0.091 -3.413,2.188 -0.171,1.214 0.412,2.354 1.879,3.251 2.293,1.403 10.23,3.684 17.848,5.47 v 10.535 c 0,0 -13.794,-3.319 -18.037,-2.688 -1.288,0.192 -2.146,0.873 -2.317,2.063 -0.174,1.217 0.438,2.313 1.879,3.251 3.88,2.527 21.294,6.284 21.294,6.284 v 24.307 l -35.855,-8.277 v -64.797 l 36.606,8.451 V 3.501 C 10.114,1.281 3.511,0.019 0,0"
             style="fill:#b80000;fill-opacity:1;fill-rule:nonzero;stroke:none"
             id="path40" />
        </g>
        <g
           id="g42"
           transform="translate(318.4651,188.7532)">
          <path
             d="m 0,0 c 0,0 -3.884,-25.59 -7.332,-37.417 -0.986,-3.378 -3.368,-8.549 -6.607,-1.156 -1.161,2.648 -4.606,15.019 -7.133,30.967 l -11.187,-2.582 c 0.98,-10.966 6.35,-40.584 13.504,-57.839 l 21.693,5.008 c 7.986,21.133 12.777,43.453 14.405,67.023 z"
             style="fill:#b80000;fill-opacity:1;fill-rule:nonzero;stroke:none"
             id="path44" />
        </g>
        <g
           id="g46"
           transform="translate(270.3987,116.8914)">
          <path
             d="m 0,0 c -1.728,-0.376 -5.659,-1.372 -7.667,-1.748 -1.923,-0.376 -3.046,0.708 -2.809,3.451 0.216,2.568 1.344,8.01 1.772,9.847 0.945,4.064 2.804,5.759 4.989,6.063 2.801,0.391 5.248,-2.058 6.588,-8.696 C 3.002,8.275 3.329,6.943 3.542,5.133 3.801,2.936 2.722,0.686 0,0 m 9.562,36.684 c -5.43,10.002 -11.744,7.929 -14.978,6.858 -4.239,-1.402 -8.001,-3.579 -11.938,-19.193 -4.137,-16.414 -8.642,-50.893 -8.642,-50.893 l 11.358,2.622 1.167,6.537 c 0.564,3.157 2.574,5.163 5.637,6.065 0,0 8.801,2.284 11.806,2.626 1.268,0.144 2.76,-0.858 3.193,-2.845 l 1.535,-7.033 15.469,3.571 c 0,0 -7.695,38.948 -14.607,51.685"
             style="fill:#b80000;fill-opacity:1;fill-rule:nonzero;stroke:none"
             id="path48" />
        </g>
        <g
           id="g50"
           transform="translate(219.3201,103.8729)">
          <path
             d="M 0,0 C -0.371,-0.002 -3.119,0.092 -3.413,2.188 -3.583,3.402 -3,4.543 -1.534,5.439 0.759,6.843 8.696,9.124 16.314,10.91 v 10.535 c 0,0 -13.794,-3.319 -18.036,-2.688 -1.289,0.191 -2.147,0.872 -2.318,2.062 -0.174,1.217 0.439,2.314 1.879,3.252 3.88,2.527 21.294,6.283 21.294,6.283 v 26.201 l -35.855,-8.278 v -64.798 l 36.606,8.452 V 3.502 C 10.115,1.282 3.511,0.02 0,0"
             style="fill:#b80000;fill-opacity:1;fill-rule:nonzero;stroke:none"
             id="path52" />
        </g>
        <g
           id="g54"
           transform="translate(174.698,157.9329)">
          <path
             d="m 0,0 c 0.344,-12.911 0.206,-22.575 -1.566,-28.917 -1.076,-3.851 -3.444,-6.783 -6.607,-9.002 -3.222,-2.261 -6.451,-3.251 -9.614,-3.314 -3.856,-0.076 -6.644,1.425 -7.014,5.471 -0.564,6.158 -0.814,14.766 -0.626,25.552 l -13.997,-3.232 v -95.345 l 19.226,4.439 c -0.344,12.161 0.071,21.181 1.566,26.76 1.019,3.8 3.808,7.018 6.607,8.909 3.271,2.209 6.444,3.355 9.613,3.407 3.852,0.063 6.652,-1.724 7.015,-5.564 0.532,-5.627 0.783,-13.746 0.626,-24.092 l 14.311,3.303 V 4.511 Z"
             style="fill:#b80000;fill-opacity:1;fill-rule:nonzero;stroke:none"
             id="path56" />
        </g>
        <g
           id="g58"
           transform="translate(418.4436,234.369)">
          <path
             d="m 0,0 v 83.019 l -11.349,-2.62 c -6.019,-19.876 -9.425,-29.594 -12.393,-37.787 -5.059,-13.94 -10.304,-8.465 -12.749,-4.577 -2.843,4.556 -6.709,13.419 -13.418,29.658 l -16.573,-3.826 v -76.818 l 13.742,3.173 c -0.105,12.435 0.114,19.682 0.783,22.963 0.605,2.947 2.382,3.365 4.18,0.439 1.483,-2.404 3.824,-7.608 8.485,-18.309 l 9.217,2.128 c 5.078,13.648 7.816,20.528 9.76,23.893 1.568,2.738 4.556,4.661 5.455,-0.397 0.689,-3.825 0.627,-11.522 0.606,-24.23 z"
             style="fill:#b80000;fill-opacity:1;fill-rule:nonzero;stroke:none"
             id="path60" />
        </g>
        <g
           id="g62"
           transform="translate(328.5422,279.2698)">
          <path
             d="m 0,0 v -23.921 c -0.793,-7.717 -14.451,-10.984 -15.42,-2.88 -0.327,3.609 -0.501,8.594 -0.501,19.236 l -11.475,-2.649 V -81.33 l 15.735,3.632 v 17.023 c 0.957,12.311 15.224,12.994 16.536,4.259 0.441,-2.753 0.401,-7.104 0.401,-16.085 l 11.475,2.649 V 3.867 Z"
             style="fill:#b80000;fill-opacity:1;fill-rule:nonzero;stroke:none"
             id="path64" />
        </g>
        <g
           id="g66"
           transform="translate(250.2844,269.1419)">
          <path
             d="m 0,0 v -29.308 l 10.588,2.444 c 4.22,0.974 5.701,0.079 5.671,-8.398 v -37.664 l 12.544,2.896 v 34.854 c 0.087,14.962 1.843,18.059 9.284,19.777 l 6.643,1.534 v 24.192 z"
             style="fill:#b80000;fill-opacity:1;fill-rule:nonzero;stroke:none"
             id="path68" />
        </g>
        <g
           id="g70"
           transform="translate(244.0901,256.6976)">
          <path
             d="m 0,0 -13.379,-3.088 c 0,0 -0.304,-13.483 -0.824,-23.531 -0.774,-14.253 -16.015,-18.687 -16.86,-4.187 -0.386,7.391 -0.508,21.909 -0.508,21.909 l -16.134,-3.726 v -6.856 c 0,-26.701 3.309,-36.119 19.197,-34.021 3.761,0.498 6.615,1.462 9.786,3.748 0.205,0.13 0.408,0.11 0.571,0 0.341,-0.245 0.705,-0.932 0.144,-2.675 -3.025,-9.389 -28.804,-11.838 -28.804,-11.838 l -0.006,-21.165 c 14.804,2.179 30.966,5.303 39.375,19.38 C -4.266,-60.813 0.001,-50.219 0,0"
             style="fill:#b80000;fill-opacity:1;fill-rule:nonzero;stroke:none"
             id="path72" />
        </g>
        <g
           id="g74"
           transform="translate(173.0251,245.3621)">
          <path
             d="m 0,0 v -22.734 c -0.753,-7.334 -13.734,-10.439 -14.654,-2.737 -0.312,3.43 -0.476,8.168 -0.476,18.282 l -10.906,-2.518 v -67.587 l 14.953,3.452 v 16.178 c 0.91,11.7 14.469,12.35 15.716,4.048 0.42,-2.617 0.381,-6.752 0.381,-15.287 l 10.906,2.517 V 3.675 Z"
             style="fill:#b80000;fill-opacity:1;fill-rule:nonzero;stroke:none"
             id="path76" />
        </g>
        <g
           id="g78"
           transform="translate(99.5637,195.3255)">
          <path
             d="m 0,0 c -6.848,-1.746 -10.887,1.922 -10.887,11.127 0,7.343 0.139,14.923 13.581,14.923 9.571,0 13.563,-4.846 13.573,-10.313 C 16.275,10.637 10.442,2.663 0,0 m 40.187,30.329 c 0,16.906 -12.458,37.356 -64.578,24.811 v -91.951 l 13.573,3.133 v 16.43 c 0,8.021 5.219,4.8 6.372,4.075 1.948,-1.224 6.017,-4.551 15.683,-15.413 l 23.058,5.324 -17.968,18.397 c 0,0 23.86,9.607 23.86,35.194"
             style="fill:#b80000;fill-opacity:1;fill-rule:nonzero;stroke:none"
             id="path80" />
        </g>
      </g>
    </g>
  </g>
</svg>
