<?xml version="1.0" encoding="UTF-8" standalone="no"?>
<!-- Generator: Adobe Illustrator 25.0.0, SVG Export Plug-In . SVG Version: 6.00 Build 0)  -->

<svg
   version="1.1"
   id="Layer_1"
   x="0px"
   y="0px"
   viewBox="0 0 666.66669 566.85699"
   xml:space="preserve"
   sodipodi:docname="Rhythm Heaven Megamix Logo but with 2006 Colors.svg"
   width="666.66669"
   height="566.85699"
   inkscape:version="1.2.2 (b0a8486541, 2022-12-01)"
   xmlns:inkscape="http://www.inkscape.org/namespaces/inkscape"
   xmlns:sodipodi="http://sodipodi.sourceforge.net/DTD/sodipodi-0.dtd"
   xmlns:xlink="http://www.w3.org/1999/xlink"
   xmlns="http://www.w3.org/2000/svg"
   xmlns:svg="http://www.w3.org/2000/svg"><defs
   id="defs156850" /><sodipodi:namedview
   id="namedview156848"
   pagecolor="#505050"
   bordercolor="#eeeeee"
   borderopacity="1"
   inkscape:showpageshadow="0"
   inkscape:pageopacity="0"
   inkscape:pagecheckerboard="0"
   inkscape:deskcolor="#505050"
   showgrid="false"
   inkscape:zoom="2.8508073"
   inkscape:cx="249.9292"
   inkscape:cy="212.57136"
   inkscape:window-width="2560"
   inkscape:window-height="1414"
   inkscape:window-x="0"
   inkscape:window-y="0"
   inkscape:window-maximized="1"
   inkscape:current-layer="Layer_1" />
<style
   type="text/css"
   id="style156632">
	.st0{fill:#00B3F0;}
	.st1{fill:#FFFFFF;}
	.st2{fill:#130C0E;}
	.st3{fill:url(#SVGID_1_);}
	.st4{opacity:0.2;}
	.st5{clip-path:url(#SVGID_3_);}
	.st6{fill:url(#SVGID_4_);}
	.st7{clip-path:url(#SVGID_6_);}
	.st8{fill:url(#SVGID_7_);}
	.st9{clip-path:url(#SVGID_9_);}
	.st10{fill:url(#SVGID_10_);}
	.st11{clip-path:url(#SVGID_12_);}
	.st12{fill:url(#SVGID_13_);}
	.st13{clip-path:url(#SVGID_15_);}
	.st14{fill:url(#SVGID_16_);}
	.st15{clip-path:url(#SVGID_18_);}
	.st16{fill:url(#SVGID_19_);}
	.st17{clip-path:url(#SVGID_21_);}
	.st18{fill:url(#SVGID_22_);}
	.st19{fill:url(#SVGID_23_);}
	.st20{fill:url(#SVGID_24_);}
	.st21{fill:#F15A22;}
	.st22{fill:#FAA61A;}
</style>
<g
   id="Cloud_00000122703240977288030390000009418691447765243804_"
   transform="matrix(1.3333334,0,0,1.3333334,0,-4.0000002e-5)">
	<path
   id="Light_Blue_00000158017485880077908190000016515758339003143097_"
   class="st0"
   d="M 423.95969,90.62759 C 419.15747,39.85703 376.23862,3e-5 324.17685,3e-5 c -37.37448,0 -71.16727,20.91543 -88.34323,52.84885 -10.79736,-3.79673 -22.22461,-5.75994 -33.82814,-5.75994 -18.12303,0 -35.97772,4.8937 -51.47849,13.96252 -14.40546,-7.81803 -30.46255,-11.89995 -47.11417,-11.89995 -54.72392,0 -99.245,44.59014 -99.245,99.39827 0,37.66025 21.10968,71.35365 53.35804,88.17313 -2.42692,7.6541 -3.67435,15.66524 -3.67435,23.81224 0,44.37512 36.96354,80.47635 82.39746,80.47635 27.52533,0 52.1516,-13.09067 67.16673,-33.72763 18.30157,16.94635 42.54834,26.72141 68.46808,26.72141 41.88922,0 78.82809,-25.89053 93.76575,-63.65353 2.46341,0.18527 4.93243,0.27847 7.40372,0.27847 54.04126,0 98.00656,-43.54427 98.00656,-97.06792 0,-34.08975 -18.1466,-65.47693 -47.10012,-82.93471 z" />
	<path
   id="White_00000023265767759718524010000007989588149201484986_"
   class="st1"
   d="M 413.29761,97.33685 C 411.81888,49.517 372.40879,11.06631 324.17685,11.06631 c -36.65701,0 -69.44153,22.61422 -82.81065,56.04264 -12.21208,-5.87951 -25.64633,-8.95373 -39.36072,-8.95373 -18.5918,0 -36.20229,5.4624 -51.28143,15.855 -14.13936,-9.04075 -30.37891,-13.79242 -47.31123,-13.79242 -48.62209,0 -88.17873,39.62569 -88.17873,88.33199 0,36.87933 22.76748,69.4752 56.45808,82.44574 -4.45301,9.19232 -6.77438,19.24246 -6.77438,29.53963 0,38.27274 31.99911,69.4101 71.33119,69.4101 28.83057,0 53.98007,-16.51859 65.17097,-41.09433 16.82283,21.35782 42.55394,34.08807 70.46384,34.08807 40.1882,0 75.25534,-26.7551 86.20709,-64.65955 4.94031,0.85333 9.94797,1.28448 14.96237,1.28448 47.93887,0 86.94028,-38.58037 86.94028,-86.00163 0,-32.08275 -18.16568,-61.46855 -46.69592,-76.22545 z" />
	<path
   id="Black_00000127003813349280224450000001235054226271293089_"
   class="st2"
   d="m 405.52673,102.20852 c 0.0177,-0.69662 0.0529,-1.3889 0.0529,-2.08974 0,-44.8961 -36.44522,-81.2915 -81.4028,-81.2915 -37.40704,0 -68.89922,25.20598 -78.4295,59.53145 -12.66183,-7.86995 -27.65445,-12.44296 -43.74193,-12.44296 -19.33952,0 -37.10179,6.59874 -51.12221,17.60978 -13.30583,-9.76733 -29.71114,-15.54678 -47.47011,-15.54678 -44.41378,0 -80.41825,36.07289 -80.41825,80.5711 0,37.50781 25.58191,69.02715 60.21755,78.00522 -6.65116,9.74362 -10.53379,21.41992 -10.53379,33.98007 0,34.04807 28.46153,61.64948 63.57056,61.64948 31.53596,0 57.69414,-22.27411 62.69466,-51.48172 13.59418,26.4007 41.14252,44.47491 72.94029,44.47491 39.89529,0 73.11832,-28.43796 80.45102,-66.09926 6.60599,1.76567 13.54752,2.72433 20.71866,2.72433 43.72925,0 79.17883,-35.02954 79.17883,-78.24068 10e-6,-31.77194 -19.17636,-59.10036 -46.7059,-71.3537 z" />
	<rect
   x="394.23721"
   y="247.16812"
   class="st2"
   width="4.7941899"
   height="4.79425"
   id="rect156637" />
</g>
<g
   id="Megamix_00000106104928807225099170000011756329890572531349_"
   transform="matrix(1.3333334,0,0,1.3333334,0,-4.0000002e-5)">
	<g
   id="X_00000086658258889094988390000004016246198062688902_">
		<path
   class="st2"
   d="m 500,211.98225 -72.09784,16.65976 v 87.79256 L 500,299.78946 V 282.9548 c 0,-8.34409 -9.8e-4,-17.65695 -8.13113,-26.19785 C 497.65073,248.27464 500,239.06975 500,226.01442 Z"
   id="path156640" />
		
			<linearGradient
   id="SVGID_1_"
   gradientUnits="userSpaceOnUse"
   x1="444.58765"
   y1="4615.457"
   x2="503.70059"
   y2="4615.2686"
   gradientTransform="matrix(1,0.00319,-0.0035,1,5.96096,-4352.666)">
			<stop
   offset="0"
   style="stop-color:#FF8C3C"
   id="stop156642" />
			<stop
   offset="0.75"
   style="stop-color:#FF5A00"
   id="stop156644" />
		</linearGradient>
		<path
   class="st3"
   d="m 434.40405,308.43155 -3e-5,-10.32944 c -0.0276,-8.97043 -0.0147,-17.76404 10.46057,-30.65771 -7.67319,-5.07626 -10.46054,-12.26434 -10.46054,-26.28584 v -7.51834 l 22.63309,-5.23727 3e-5,16.65895 c 0,3.87448 2.4108,6.70142 6.91284,5.66203 4.50204,-1.03937 6.9129,-4.97948 6.9129,-8.85396 l 0.003,-16.65955 22.63315,-5.22527 v 7.53033 c 0,14.02151 -2.78775,22.49672 -10.46097,31.11598 10.46155,8.04626 10.46094,16.8508 10.46094,25.82761 v 10.32944 l -22.63315,5.22528 3e-5,-17.57635 c 0,-6.26755 -2.41339,-9.03476 -6.91544,-7.99536 -4.50204,1.03937 -6.91287,4.92035 -6.91287,11.18787 l 3e-5,17.57635 z"
   id="path156647"
   style="fill:url(#SVGID_1_)" />
		<g
   class="st4"
   id="g156659">
			<defs
   id="defs156650">
				<path
   id="SVGID_2_"
   class="st4"
   d="m 434.40405,308.43155 -3e-5,-10.32944 c -0.0276,-8.97043 -0.0147,-17.76404 10.46057,-30.65771 -7.67319,-5.07626 -10.46054,-12.26434 -10.46054,-26.28584 v -7.51834 l 22.63309,-5.23727 3e-5,16.65895 c 0,3.87448 2.4108,6.70142 6.91284,5.66203 4.50204,-1.03937 6.9129,-4.97948 6.9129,-8.85396 l 0.003,-16.65955 22.63315,-5.22527 v 7.53033 c 0,14.02151 -2.78775,22.49672 -10.46097,31.11598 10.46155,8.04626 10.46094,16.8508 10.46094,25.82761 v 10.32944 l -22.63315,5.22528 3e-5,-17.57635 c 0,-6.26755 -2.41339,-9.03476 -6.91544,-7.99536 -4.50204,1.03937 -6.91287,4.92035 -6.91287,11.18787 l 3e-5,17.57635 z" />
			</defs>
			<clipPath
   id="SVGID_3_">
				<use
   xlink:href="#SVGID_2_"
   style="overflow:visible"
   id="use156652" />
			</clipPath>
			<g
   class="st5"
   clip-path="url(#SVGID_3_)"
   id="g156657">
				<polygon
   class="st1"
   points="78.89845,560.3031 50.05502,505.41296 549.47412,203.27036 578.28992,258.18808 "
   id="polygon156655" />
			</g>
		</g>
	</g>
	<g
   id="I_00000110456001608755106790000002269719925448085636_">
		<polygon
   class="st2"
   points="397.26486,228.06953 397.26486,315.88065 432.92892,307.64697 432.92892,219.83585 "
   id="polygon156662" />
		
			<linearGradient
   id="SVGID_4_"
   gradientUnits="userSpaceOnUse"
   x1="1411.0635"
   y1="4219.4844"
   x2="1450.2363"
   y2="4210.7593"
   gradientTransform="matrix(0.9523,0.0031,-0.2099,1.04947,-65.86328,-4159.4424)">
			<stop
   offset="0"
   style="stop-color:#AA37BE"
   id="stop156664" />
			<stop
   offset="1"
   style="stop-color:#5F14A5"
   id="stop156666" />
		</linearGradient>
		<path
   class="st6"
   d="m 403.76651,233.07016 22.66074,-5.23164 v 74.8076 l -22.66074,5.23163 z"
   id="path156669"
   style="fill:url(#SVGID_4_)" />
		<g
   class="st4"
   id="g156681">
			<defs
   id="defs156672">
				<path
   id="SVGID_5_"
   class="st4"
   d="m 403.76651,233.07016 22.66074,-5.23164 v 74.8076 l -22.66074,5.23163 z" />
			</defs>
			<clipPath
   id="SVGID_6_">
				<use
   xlink:href="#SVGID_5_"
   style="overflow:visible"
   id="use156674" />
			</clipPath>
			<g
   class="st7"
   clip-path="url(#SVGID_6_)"
   id="g156679">
				<polygon
   class="st1"
   points="78.89845,560.3031 50.05502,505.41296 549.47412,203.27036 578.28992,258.18808 "
   id="polygon156677" />
			</g>
		</g>
	</g>
	<g
   id="M_00000012467527633565478900000006767654119687667110_">
		<path
   class="st2"
   d="m 393.86356,246.27264 c -6.80948,-6.2572 -16.05615,-8.26126 -26.73779,-5.79521 -5.83264,1.34657 -10.86917,3.6747 -15.88519,7.39204 -5.01505,-1.40149 -10.05157,-1.40407 -15.88422,-0.0575 -10.68262,2.46628 -19.92831,8.73962 -26.73877,18.14124 -6.94525,9.58902 -9.40686,18.33926 -9.40686,33.43811 v 46.41797 L 403.27139,321.785 v -46.41797 c 0,-15.09982 -2.46161,-22.71345 -9.40783,-29.09439 z"
   id="path156684" />
		
			<linearGradient
   id="SVGID_7_"
   gradientUnits="userSpaceOnUse"
   x1="305.71747"
   y1="310.68295"
   x2="396.9147"
   y2="310.68289"
   gradientTransform="matrix(1,-0.23087,0,1,0,59.37336)">
			<stop
   offset="0"
   style="stop-color:#FFFF00"
   id="stop156686" />
			<stop
   offset="0.75"
   style="stop-color:#FFBE00"
   id="stop156688" />
		</linearGradient>
		<path
   class="st8"
   d="m 388.95816,251.67184 c -5.55569,-5.1046 -13.05301,-6.71948 -21.83261,-4.69255 -5.8956,1.36111 -10.64038,3.82567 -15.88461,8.38161 -5.24423,-2.13448 -9.96078,-2.41473 -15.88458,-1.0471 -8.75354,2.02092 -16.27692,7.10359 -21.8327,14.77348 -5.8432,8.06671 -7.81116,15.25647 -7.81116,28.80347 v 39.9155 l 22.74341,-5.2507 v -44.23819 c 0,-6.66653 2.14868,-9.45572 5.65836,-10.26599 3.50968,-0.81027 5.75497,0.96448 5.75497,7.63098 v 44.23822 l 22.74341,-5.25073 v -44.23822 c 0,-6.6665 2.24533,-9.478 5.75494,-10.28824 3.50974,-0.8103 5.65839,0.98676 5.65839,7.65329 v 44.23819 l 22.74341,-5.25073 V 276.8686 c -10e-6,-13.54698 -1.96794,-19.82807 -7.81123,-25.19676 z"
   id="path156691"
   style="fill:url(#SVGID_7_)" />
		<g
   class="st4"
   id="g156705">
			<defs
   id="defs156694">
				<path
   id="SVGID_8_"
   class="st4"
   d="m 388.95816,251.67184 c -5.55569,-5.1046 -13.05301,-6.71948 -21.83261,-4.69255 -5.8956,1.36111 -10.64038,3.82567 -15.88461,8.38161 -5.24423,-2.13448 -9.96078,-2.41473 -15.88458,-1.0471 -8.75354,2.02092 -16.27692,7.10359 -21.8327,14.77348 -5.8432,8.06671 -7.81116,15.25647 -7.81116,28.80347 v 39.9155 l 22.74341,-5.2507 v -44.23819 c 0,-6.66653 2.14868,-9.45572 5.65836,-10.26599 3.50968,-0.81027 5.75497,0.96448 5.75497,7.63098 v 44.23822 l 22.74341,-5.25073 v -44.23822 c 0,-6.6665 2.24533,-9.478 5.75494,-10.28824 3.50974,-0.8103 5.65839,0.98676 5.65839,7.65329 v 44.23819 l 22.74341,-5.25073 V 276.8686 c -10e-6,-13.54698 -1.96794,-19.82807 -7.81123,-25.19676 z" />
			</defs>
			<clipPath
   id="SVGID_9_">
				<use
   xlink:href="#SVGID_8_"
   style="overflow:visible"
   id="use156696" />
			</clipPath>
			<g
   class="st9"
   clip-path="url(#SVGID_9_)"
   id="g156703">
				<polygon
   class="st1"
   points="-4.78429,477.38602 -34.86943,415.40848 463.98041,111.55808 494.06555,173.53561 "
   id="polygon156699" />
				<polygon
   class="st1"
   points="78.89845,560.3031 50.05502,505.41296 549.47412,203.27036 578.28992,258.18808 "
   id="polygon156701" />
			</g>
		</g>
	</g>
	<g
   id="A_00000096017154671532898690000006217220080438480810_">
		<path
   class="st2"
   d="m 296.68658,263.11536 c -6.49884,-7.20708 -17.38168,-10.10425 -28.40131,-7.56017 -11.00595,2.54091 -21.88098,10.46031 -28.3813,20.6685 -5.58942,8.77585 -7.66762,16.78604 -7.66762,29.55515 v 47.72791 l 72.09784,-16.64511 v -47.72791 c 1e-5,-12.78473 -2.07284,-19.83655 -7.64761,-26.01837 z"
   id="path156708" />
		
			<linearGradient
   id="SVGID_10_"
   gradientUnits="userSpaceOnUse"
   x1="238.73795"
   y1="302.93481"
   x2="297.83249"
   y2="302.93481"
   gradientTransform="matrix(1,-0.23087,0,1,0,59.37336)">
			<stop
   offset="0"
   style="stop-color:#6EE6FF"
   id="stop156710" />
			<stop
   offset="0.85"
   style="stop-color:#00A0FF"
   id="stop156712" />
		</linearGradient>
		<path
   class="st10"
   d="m 291.47601,268.20691 c -5.3465,-5.92834 -14.22034,-8.2211 -23.1908,-6.15012 -8.97043,2.07098 -17.83093,8.46802 -23.17139,16.85361 -4.68053,7.34949 -6.37589,14.0213 -6.37589,25.36768 V 345.504 l 22.60556,-5.2189 v -16.41714 l 13.88342,-3.18484 v 16.39676 l 22.60556,-5.2189 v -41.22592 c 2e-5,-11.34639 -1.6837,-17.24688 -6.35646,-22.42815 z m -15.68502,34.28183 -7.50577,-2.39987 -7.50577,5.86557 1.40717,-9.13089 -6.04602,-4.85599 8.37546,-3.24332 3.76917,-8.86676 3.76917,7.1264 8.37546,-0.62393 -6.04605,7.64767 z"
   id="path156715"
   style="fill:url(#SVGID_10_)" />
		<g
   class="st4"
   id="g156727">
			<defs
   id="defs156718">
				<path
   id="SVGID_11_"
   class="st4"
   d="m 291.47601,268.20691 c -5.3465,-5.92834 -14.22034,-8.2211 -23.1908,-6.15012 -8.97043,2.07098 -17.83093,8.46802 -23.17139,16.85361 -4.68053,7.34949 -6.37589,14.0213 -6.37589,25.36768 V 345.504 l 22.60556,-5.2189 v -16.41714 l 13.88342,-3.18484 v 16.39676 l 22.60556,-5.2189 v -41.22592 c 2e-5,-11.34639 -1.6837,-17.24688 -6.35646,-22.42815 z m -15.68502,34.28183 -7.50577,-2.39987 -7.50577,5.86557 1.40717,-9.13089 -6.04602,-4.85599 8.37546,-3.24332 3.76917,-8.86676 3.76917,7.1264 8.37546,-0.62393 -6.04605,7.64767 z" />
			</defs>
			<clipPath
   id="SVGID_12_">
				<use
   xlink:href="#SVGID_11_"
   style="overflow:visible"
   id="use156720" />
			</clipPath>
			<g
   class="st11"
   clip-path="url(#SVGID_12_)"
   id="g156725">
				<polygon
   class="st1"
   points="-4.78429,477.38602 -34.86943,415.40848 463.98041,111.55808 494.06555,173.53561 "
   id="polygon156723" />
			</g>
		</g>
	</g>
	<g
   id="G_00000072259711136487289110000006566737849794008758_">
		<path
   class="st2"
   d="m 233.17166,273.0257 c -7.46394,0.22668 -12.62796,0.86209 -19.05403,2.34567 -14.5743,3.36475 -25.87378,10.39554 -34.54411,21.49542 -7.91183,10.12866 -12.4492,22.94211 -12.4492,35.15445 0,12.72418 4.81821,23.40701 13.5667,30.08203 8.80661,6.72021 18.69603,8.17148 33.06764,4.85352 6.2854,-1.45108 10.98541,-3.04315 19.34219,-6.55298 l 5.29393,-2.22345 V 272.867 Z"
   id="path156730" />
		
			<linearGradient
   id="SVGID_13_"
   gradientUnits="userSpaceOnUse"
   x1="1193.7004"
   y1="4274.7568"
   x2="1252.101"
   y2="4261.749"
   gradientTransform="matrix(0.9523,0.0031,-0.2099,1.04947,-65.86328,-4159.4429)">
			<stop
   offset="0"
   style="stop-color:#FF8232"
   id="stop156732" />
			<stop
   offset="0.75"
   style="stop-color:#C80000"
   id="stop156734" />
		</linearGradient>
		<path
   class="st12"
   d="m 231.89276,354.29388 c -7.56277,3.17651 -12.0517,4.75653 -18.13406,6.16077 -12.70461,2.93307 -20.94807,1.72961 -28.4846,-4.0209 -7.50639,-5.72751 -11.64778,-14.89902 -11.64778,-25.91403 0,-10.54373 3.81454,-21.49866 10.65413,-30.25443 7.45844,-9.54803 16.94347,-15.4151 29.83707,-18.39182 5.65742,-1.30612 10.4057,-1.95444 17.77525,-2.17755 v 23.43991 c -6.92793,0.14017 -11.25089,0.66891 -16.56081,1.89481 -12.36542,2.85477 -19.37616,10.22073 -19.37616,20.37585 0,8.53525 5.24429,13.49545 13.33148,12.74765 v -22.30826 l 22.60548,-5.2189 z"
   id="path156737"
   style="fill:url(#SVGID_13_)" />
		<g
   class="st4"
   id="g156749">
			<defs
   id="defs156740">
				<path
   id="SVGID_14_"
   class="st4"
   d="m 231.89276,354.29388 c -7.56277,3.17651 -12.0517,4.75653 -18.13406,6.16077 -12.70461,2.93307 -20.94807,1.72961 -28.4846,-4.0209 -7.50639,-5.72751 -11.64778,-14.89902 -11.64778,-25.91403 0,-10.54373 3.81454,-21.49866 10.65413,-30.25443 7.45844,-9.54803 16.94347,-15.4151 29.83707,-18.39182 5.65742,-1.30612 10.4057,-1.95444 17.77525,-2.17755 v 23.43991 c -6.92793,0.14017 -11.25089,0.66891 -16.56081,1.89481 -12.36542,2.85477 -19.37616,10.22073 -19.37616,20.37585 0,8.53525 5.24429,13.49545 13.33148,12.74765 v -22.30826 l 22.60548,-5.2189 z" />
			</defs>
			<clipPath
   id="SVGID_15_">
				<use
   xlink:href="#SVGID_14_"
   style="overflow:visible"
   id="use156742" />
			</clipPath>
			<g
   class="st13"
   clip-path="url(#SVGID_15_)"
   id="g156747">
				<polygon
   class="st1"
   points="-4.78429,477.38602 -34.86943,415.40848 463.98041,111.55808 494.06555,173.53561 "
   id="polygon156745" />
			</g>
		</g>
	</g>
	<g
   id="E_00000078003450398959639130000011775615813855833526_">
		<path
   class="st2"
   d="m 144.96738,285.4906 c -9.51628,2.14621 -16.65739,5.80615 -21.85754,11.12405 -6.56625,6.71463 -10.33241,15.6918 -10.33241,24.63077 0,6.25171 1.65084,10.66486 5.31884,13.72827 -4.12711,5.33881 -6.03632,11.27032 -6.03632,18.37286 0,8.80417 3.07457,15.38638 8.89159,19.03696 6.29909,3.95248 12.97572,3.49731 21.70612,1.48175 l 30.26659,-6.98761 v -87.8414 z"
   id="path156752" />
		
			<linearGradient
   id="SVGID_16_"
   gradientUnits="userSpaceOnUse"
   x1="1136.938"
   y1="4279.7314"
   x2="1184.9574"
   y2="4269.0356"
   gradientTransform="matrix(0.9523,0.0031,-0.2099,1.04947,-65.86328,-4159.4424)">
			<stop
   offset="0"
   style="stop-color:#C8F000"
   id="stop156754" />
			<stop
   offset="0.8"
   style="stop-color:#14B400"
   id="stop156756" />
		</linearGradient>
		<path
   class="st14"
   d="m 142.65759,367.36362 c -8.86003,2.04529 -13.25746,1.75266 -17.47166,-0.89182 -4.39948,-2.76074 -6.62433,-7.78149 -6.62433,-14.62665 0,-8.2804 2.87054,-13.6636 10.43331,-19.43466 -7.14875,-2.06787 -9.71568,-5.4068 -9.71568,-12.66595 0,-7.06595 2.88457,-13.86987 7.86639,-18.9646 3.93051,-4.01959 9.79848,-6.95856 17.80287,-8.78278 l 21.47386,-4.95764 v 21.08688 l -15.07033,3.47925 c -5.9619,1.37643 -7.78362,2.772 -7.78362,6.02896 0,3.25693 1.82172,3.81137 7.78362,2.43497 l 15.07033,-3.47928 -2e-5,15.80853 -15.07031,3.47925 c -5.9619,1.37643 -6.56915,4.17307 -6.56915,5.74634 0,1.68369 0.60725,4.12491 6.56915,2.7485 l 15.07033,-3.47925 v 20.9834 z"
   id="path156759"
   style="fill:url(#SVGID_16_)" />
		<g
   class="st4"
   id="g156771">
			<defs
   id="defs156762">
				<path
   id="SVGID_17_"
   class="st4"
   d="m 142.65759,367.36362 c -8.86003,2.04529 -13.25746,1.75266 -17.47166,-0.89182 -4.39948,-2.76074 -6.62433,-7.78149 -6.62433,-14.62665 0,-8.2804 2.87054,-13.6636 10.43331,-19.43466 -7.14875,-2.06787 -9.71568,-5.4068 -9.71568,-12.66595 0,-7.06595 2.88457,-13.86987 7.86639,-18.9646 3.93051,-4.01959 9.79848,-6.95856 17.80287,-8.78278 l 21.47386,-4.95764 v 21.08688 l -15.07033,3.47925 c -5.9619,1.37643 -7.78362,2.772 -7.78362,6.02896 0,3.25693 1.82172,3.81137 7.78362,2.43497 l 15.07033,-3.47928 -2e-5,15.80853 -15.07031,3.47925 c -5.9619,1.37643 -6.56915,4.17307 -6.56915,5.74634 0,1.68369 0.60725,4.12491 6.56915,2.7485 l 15.07033,-3.47925 v 20.9834 z" />
			</defs>
			<clipPath
   id="SVGID_18_">
				<use
   xlink:href="#SVGID_17_"
   style="overflow:visible"
   id="use156764" />
			</clipPath>
			<g
   class="st15"
   clip-path="url(#SVGID_18_)"
   id="g156769">
				<polygon
   class="st1"
   points="-4.78429,477.38602 -34.86943,415.40848 463.98041,111.55808 494.06555,173.53561 "
   id="polygon156767" />
			</g>
		</g>
	</g>
	<g
   id="M_00000128444486173018280470000003670912814012902803_">
		<path
   class="st2"
   d="m 109.05912,310.95236 c -6.80997,-6.25708 -16.05566,-8.26135 -26.73827,-5.7951 -5.83363,1.3468 -10.87016,3.67496 -15.88422,7.39182 -5.01455,-1.40158 -10.05157,-1.40405 -15.88471,-0.0574 -10.68261,2.46628 -19.9283,8.73965 -26.73827,18.14114 -6.94575,9.58817 -9.40736,18.33838 -9.40736,33.43823 v 46.41696 l 104.0602,-24.02417 v -46.41699 c -10e-6,-15.09983 -2.46162,-22.71344 -9.40737,-29.09452 z"
   id="path156774" />
		
			<linearGradient
   id="SVGID_19_"
   gradientUnits="userSpaceOnUse"
   x1="12.60427"
   y1="309.61023"
   x2="114.19212"
   y2="309.61017"
   gradientTransform="matrix(1,-0.23087,0,1,0,59.37336)">
			<stop
   offset="0"
   style="stop-color:#FFFF00"
   id="stop156776" />
			<stop
   offset="0.75"
   style="stop-color:#FFBE00"
   id="stop156778" />
		</linearGradient>
		<path
   class="st16"
   d="m 104.15366,316.35126 c -5.55572,-5.10461 -13.05301,-6.71948 -21.83263,-4.69257 -5.89559,1.36111 -10.64036,3.82568 -15.88459,8.38162 -5.24423,-2.13449 -9.96079,-2.41473 -15.88459,-1.04712 -8.75356,2.0209 -16.27691,7.10358 -21.83269,14.77347 -5.84321,8.06674 -7.81116,15.2565 -7.81116,28.80347 v 39.91553 l 22.74339,-5.25073 v -44.23819 c 0,-6.6665 2.14867,-9.45569 5.65836,-10.26596 3.50968,-0.81027 5.75496,0.96448 5.75496,7.63098 v 44.23822 l 22.74343,-5.25076 v -44.23819 c 0,-6.6665 2.24531,-9.478 5.75493,-10.28827 3.50974,-0.81027 5.65838,0.98679 5.65838,7.65329 v 44.23822 l 22.74343,-5.25073 V 341.548 c 0,-13.54696 -1.96795,-19.82806 -7.81122,-25.19674 z"
   id="path156781"
   style="fill:url(#SVGID_19_)" />
		<g
   class="st4"
   id="g156793">
			<defs
   id="defs156784">
				<path
   id="SVGID_20_"
   class="st4"
   d="m 104.15366,316.35126 c -5.55572,-5.10461 -13.05301,-6.71948 -21.83263,-4.69257 -5.89559,1.36111 -10.64036,3.82568 -15.88459,8.38162 -5.24423,-2.13449 -9.96079,-2.41473 -15.88459,-1.04712 -8.75356,2.0209 -16.27691,7.10358 -21.83269,14.77347 -5.84321,8.06674 -7.81116,15.2565 -7.81116,28.80347 v 39.91553 l 22.74339,-5.25073 v -44.23819 c 0,-6.6665 2.14867,-9.45569 5.65836,-10.26596 3.50968,-0.81027 5.75496,0.96448 5.75496,7.63098 v 44.23822 l 22.74343,-5.25076 v -44.23819 c 0,-6.6665 2.24531,-9.478 5.75493,-10.28827 3.50974,-0.81027 5.65838,0.98679 5.65838,7.65329 v 44.23822 l 22.74343,-5.25073 V 341.548 c 0,-13.54696 -1.96795,-19.82806 -7.81122,-25.19674 z" />
			</defs>
			<clipPath
   id="SVGID_21_">
				<use
   xlink:href="#SVGID_20_"
   style="overflow:visible"
   id="use156786" />
			</clipPath>
			<g
   class="st17"
   clip-path="url(#SVGID_21_)"
   id="g156791">
				<polygon
   class="st1"
   points="-4.78429,477.38602 -34.86943,415.40848 463.98041,111.55808 494.06555,173.53561 "
   id="polygon156789" />
			</g>
		</g>
	</g>
	<g
   id="_x2605__00000055669354295850239440000000225889814098885275_">
		<polygon
   class="st2"
   points="444.96249,324.27045 441.86203,309.64145 452.11093,298.77423 437.27875,297.22888 430.13617,284.08563 424.09253,297.77982 409.39319,300.51398 420.50659,310.48935 418.59689,325.23752 431.48322,317.81461 "
   id="polygon156796" />
		
			<radialGradient
   id="SVGID_22_"
   cx="499.37759"
   cy="668.92572"
   r="24.922501"
   gradientTransform="matrix(0.45,0,0,0.45,206.17873,4.54977)"
   gradientUnits="userSpaceOnUse">
			<stop
   offset="0"
   style="stop-color:#FAFFC8"
   id="stop156798" />
			<stop
   offset="0.45"
   style="stop-color:#C8FF00"
   id="stop156800" />
			<stop
   offset="1"
   style="stop-color:#00A000"
   id="stop156802" />
		</radialGradient>
		<polygon
   class="st18"
   points="438.48898,316.04102 436.83301,308.2298 442.32559,302.40594 434.3764,301.57794 430.56738,294.56714 427.3381,301.88162 419.47168,303.34442 425.40607,308.67145 424.38477,316.56558 431.2851,312.59085 "
   id="polygon156805"
   style="fill:url(#SVGID_22_)" />
	</g>
	<g
   id="_x2605__00000151542417986511424430000005911961844926333828_">
		<polygon
   class="st2"
   points="205.63582,288.39346 218.67943,289.65063 211.7283,278.51672 216.94995,266.50858 204.24237,269.64615 194.4267,260.97775 193.48552,274.03894 182.20265,280.72534 194.35442,285.62805 197.17451,298.4216 "
   id="polygon156808" />
		
			<radialGradient
   id="SVGID_23_"
   cx="-11.24759"
   cy="611.01477"
   r="21.70192"
   gradientTransform="matrix(0.45,0,0,0.45,206.17873,4.54977)"
   gradientUnits="userSpaceOnUse">
			<stop
   offset="0"
   style="stop-color:#FFFFA0"
   id="stop156810" />
			<stop
   offset="0.55"
   style="stop-color:#FFFF00"
   id="stop156812" />
			<stop
   offset="1"
   style="stop-color:#FFC800"
   id="stop156814" />
		</radialGradient>
		<polygon
   class="st19"
   points="203.87746,284.07867 210.75018,284.74121 207.07927,278.86203 209.83929,272.51373 203.13214,274.16971 197.9431,269.58789 197.44626,276.48822 191.48442,280.02127 197.9155,282.61584 199.40602,289.3782 "
   id="polygon156817"
   style="fill:url(#SVGID_23_)" />
	</g>
	<g
   id="_x2605__00000165235180282004194370000009724183725231266710_">
		<polygon
   class="st2"
   points="26.68015,412.51822 40.84613,410.85663 30.89712,400.61554 33.6762,386.62149 20.89487,392.91519 8.47497,385.94943 10.47454,400.04507 0,409.74011 14.05316,412.17145 19.95272,425.14276 "
   id="polygon156820" />
		
			<radialGradient
   id="SVGID_24_"
   cx="-412.63272"
   cy="889.27661"
   r="25.18399"
   gradientTransform="matrix(0.45,0,0,0.45,206.17873,4.54977)"
   gradientUnits="userSpaceOnUse">
			<stop
   offset="0"
   style="stop-color:#D9FFFF"
   id="stop156822" />
			<stop
   offset="0.42"
   style="stop-color:#96D2FF"
   id="stop156824" />
			<stop
   offset="1"
   style="stop-color:#00AAFF"
   id="stop156826" />
		</radialGradient>
		<polygon
   class="st20"
   points="24.05461,408.6712 32.05899,407.73279 26.4283,401.93652 28.00149,394.01492 20.77002,397.57553 13.7316,393.62851 14.86325,401.60532 8.92901,407.09796 16.9058,408.47803 20.24546,415.82001 "
   id="polygon156829"
   style="fill:url(#SVGID_24_)" />
	</g>
</g>
<g
   id="Rhythm_Heaven_x2122__1_"
   transform="matrix(1.3333334,0,0,1.3333334,0,-4.0000002e-5)">
	<path
   id="_x2122__1_"
   class="st21"
   d="m 390.23508,209.04556 v -6.72847 l -2.82874,0.65308 v -1.45059 l 7.48215,-1.7274 v 1.45059 l -2.72681,0.62953 v 6.72847 z m 12.69616,-2.93115 V 199.282 l -1.71762,7.22896 -1.86035,0.4295 -1.67685,-6.44528 v 6.83241 l -1.75842,0.40596 v -8.17906 l 2.74722,-0.63423 1.65646,6.10506 0.0204,-0.005 1.61569,-6.8605 2.71152,-0.62599 v 8.17905 z" />
	<path
   id="N_2_"
   class="st21"
   d="m 369.31491,135.07057 c 0,0 -0.1106,28.84204 -0.4696,33.91556 -0.56079,7.92476 -2.69019,8.13725 -4.50214,6.94856 -3.61566,-2.37193 -10.37143,-15.87938 -16.4205,-27.62576 l -8.82501,2.03741 v 72.98752 l 10.79102,-2.49132 0.0364,-18.51981 c 0.0187,-9.50661 2.61441,-10.12502 6.38605,-6.67169 2.86209,2.62053 6.75638,8.39905 12.89322,18.22504 l 14.28,-3.2968 v -78.77997 z" />
	<path
   id="E_4_"
   class="st21"
   d="m 314.84668,208.18272 c -0.32742,0.002 -2.7515,-0.0807 -3.01071,-1.93015 -0.15012,-1.07103 0.36395,-2.07657 1.65726,-2.86768 2.02264,-1.23724 9.02399,-3.24945 15.74384,-4.82541 v -9.29231 c 0,0 -12.1676,2.92783 -15.90952,2.37134 -1.13654,-0.16902 -1.89352,-0.76973 -2.04398,-1.81982 -0.15378,-1.07324 0.38684,-2.0403 1.65723,-2.86768 3.42218,-2.22879 18.78214,-5.54234 18.78214,-5.54234 v -21.43909 l -31.6257,7.30136 -9e-5,57.15494 32.28867,-7.45442 v -11.877 c -8.61769,1.9578 -14.4427,3.07134 -17.53914,3.08826 z" />
	<path
   id="V_1_"
   class="st21"
   d="m 279.88364,165.54161 c 0,0 -3.42596,22.57228 -6.46808,33.00349 -0.86923,2.98056 -2.97021,7.54115 -5.82797,1.02026 -1.02353,-2.33554 -4.06183,-13.24739 -6.29169,-27.31482 l -9.86642,2.27785 c 0.86348,9.67255 5.59988,35.7973 11.91055,51.01723 l 19.13516,-4.41769 c 7.04327,-18.63979 11.26929,-38.32738 12.70554,-59.11794 z" />
	<path
   id="A_1_"
   class="st21"
   d="m 245.91928,196.57135 c -4.78876,-8.8226 -10.35754,-6.99432 -13.21098,-6.05017 -3.73863,1.23705 -7.05696,3.15715 -10.52925,16.93022 -3.64996,14.4778 -7.62776,44.92514 -7.62776,44.92514 l 10.01746,-2.31271 1.03531,-5.80157 c 0.49713,-2.78497 2.2697,-4.5542 4.97168,-5.34927 2.59816,-0.76451 7.76306,-2.01488 10.41309,-2.31616 1.11951,-0.12729 2.43498,0.75636 2.81734,2.50916 l 1.35336,6.2041 13.64465,-3.15012 c -10e-6,-10e-6 -6.78755,-34.35513 -12.8849,-45.58862 z m -8.43338,32.35686 -6.76321,1.56142 c -1.69662,0.39169 -2.68324,-0.64449 -2.47668,-3.06425 0.19328,-2.26439 1.18506,-7.06439 1.56218,-8.68527 0.83406,-3.58476 2.47321,-5.07892 4.40085,-5.34775 2.47095,-0.3446 4.62914,1.81525 5.81068,7.67033 0.11423,0.56606 0.40263,1.74086 0.59055,3.33749 0.22817,1.9387 -0.7234,3.97372 -3.12437,4.52803 z" />
	<path
   id="E_1_"
   class="st21"
   d="m 192.43159,240.4109 c -0.32742,0.002 -2.75148,-0.0807 -3.01071,-1.93015 -0.15012,-1.07103 0.36395,-2.07657 1.65726,-2.86768 2.02264,-1.23726 9.02399,-3.24945 15.74384,-4.82541 v -9.29231 c 0,0 -12.1676,2.92783 -15.90952,2.37134 -1.13652,-0.16902 -1.89352,-0.76973 -2.04399,-1.81982 -0.15376,-1.07324 0.38686,-2.0403 1.65726,-2.86768 3.42216,-2.22879 18.78212,-5.54234 18.78212,-5.54234 v -23.1102 l -31.62572,7.30136 -6e-5,57.15492 32.28865,-7.45442 v -10.20587 c -8.61766,1.9578 -14.44267,3.07134 -17.53913,3.08826 z" />
	<path
   id="H_2_"
   class="st21"
   d="m 153.19583,192.69847 c 0,11.40514 0.0575,19.94104 -1.50491,25.53424 -0.94907,3.39757 -3.03825,5.98347 -5.82794,7.94121 -2.84151,1.99411 -5.68991,2.86766 -8.47958,2.92279 -3.40178,0.0673 -5.88831,-1.78378 -6.25174,-5.56352 -0.52208,-5.42969 -0.4877,-12.29153 -0.4877,-21.79984 l -12.34652,2.85042 v 84.09952 l 16.95913,-3.91531 c 0,-10.70285 0.21945,-18.59201 1.53862,-23.51251 0.899,-3.35324 3.34424,-6.1832 5.81302,-7.85043 2.88521,-1.94839 5.53952,-2.9229 8.33485,-2.96825 3.39735,-0.0552 5.9769,1.69839 6.29742,5.08638 0.46957,4.96326 0.50017,11.71283 0.50017,20.92352 l 12.56665,-2.90121 v -84.7975 z" />
	<path
   id="M_1_"
   class="st22"
   d="m 357.71408,56.86199 c -5.26492,17.38485 -8.24472,25.88535 -10.84061,33.05137 -4.42392,12.19318 -9.01245,7.40366 -11.15115,4.00345 -2.48618,-3.9852 -5.86807,-11.73621 -11.73615,-25.94026 l -14.4967,3.34682 v 68.23849 l 12.02872,-2.77704 c -0.0914,-10.87699 0.0914,-18.26231 0.67639,-21.13238 0.53018,-2.57757 2.08395,-2.94318 3.6561,-0.3839 1.29785,2.10231 3.34543,6.65421 7.42194,16.01391 l 8.05978,-1.86075 c 4.44223,-11.93723 6.83902,-17.95547 8.53912,-20.89867 1.37106,-2.39475 3.9852,-4.07655 4.77127,0.34735 0.60312,3.34538 0.54834,12.42094 0.53,23.53556 l 12.46765,-2.87837 V 54.57031 Z" />
	<path
   id="H_1_"
   class="st22"
   d="m 288.35727,92.49142 c -0.0548,9.32308 -0.0366,17.82357 -0.43878,20.9313 -0.93234,7.42193 -13.61914,10.76728 -14.24066,3.9303 -0.29245,-3.21737 -0.5484,-7.46793 -0.54837,-16.95557 l -10.25558,2.36769 -3e-5,62.51971 13.07071,-3.01761 c 3e-5,-9.92635 3e-5,-14.2393 0.16458,-17.63948 0.45703,-8.95753 13.91156,-10.98665 15.08151,-3.19905 0.53012,3.54645 0.62152,5.24655 0.62152,13.25345 l 10.41995,-2.40564 V 89.28816 Z" />
	<path
   id="T_1_"
   class="st22"
   d="m 219.00041,97.65521 -6e-5,25.16514 7.29398,-1.68394 c 4.42378,-1.02131 6.25195,-0.44529 6.25195,7.38538 v 32.32419 l 11.97386,-2.76437 v -29.63293 c 0,-13.16238 1.23581,-16.48394 7.75101,-17.98809 l 5.9595,-1.37585 3e-5,-20.48654 z" />
	<path
   id="Y_1_"
   class="st22"
   d="m 214.10117,114.27578 -11.18785,2.58292 c 0,0 0.16451,11.51675 -0.27414,19.99895 -0.63997,12.41261 -13.14389,15.08151 -14.14925,3.27225 -0.51187,-6.19716 -0.74945,-18.54919 -0.74945,-18.54919 l -13.91156,3.21174 v 10.07256 c -6e-5,24.03902 15.62976,27.00056 23.80125,20.14531 0.49359,-0.42044 0.9872,-0.67636 1.38933,-0.49356 0.45702,0.20108 0.43872,0.69469 0.256,1.60869 -0.49361,2.39474 -4.04007,7.12947 -11.20605,9.04889 -5.46599,1.46243 -10.8222,2.3849 -13.49112,2.80536 v 16.68173 c 12.02861,-1.55379 25.95839,-4.99049 32.44809,-14.97174 3.38193,-5.20996 5.15523,-10.71245 6.03268,-18.86559 1.37108,-12.83301 1.04207,-36.54832 1.04207,-36.54832 z" />
	<path
   id="H_3_"
   class="st22"
   d="m 153.13519,113.23897 c -0.0549,9.32309 -0.0366,17.82358 -0.43878,20.9313 -0.93234,7.42194 -13.61914,10.76729 -14.24066,3.9303 -0.29248,-3.21736 -0.54842,-7.46793 -0.54839,-16.95556 l -10.25559,2.36769 v 62.51972 l 13.07069,-3.01761 c 3e-5,-9.92636 3e-5,-14.23932 0.16458,-17.6395 0.45703,-8.95752 13.91156,-10.98665 15.08151,-3.19905 0.53014,3.54645 0.62154,5.24657 0.62152,13.25345 l 10.41997,-2.40564 -2e-5,-62.98837 z" />
	<path
   id="R_1_"
   class="st22"
   d="m 121.19885,126.03533 c 7e-5,-26.37899 -25.81236,-34.03861 -57.38311,-22.7595 v 85.15335 l 13.45457,-3.10623 5e-5,-21.31886 c 1e-5,-3.25397 2.39478,-2.68726 4.60672,-0.71295 1.55386,1.38934 10.89529,10.43823 17.42146,16.9462 l 20.53994,-4.74202 c 0,0 -17.90746,-18.29158 -19.97321,-20.10135 12.02871,-4.49701 21.33354,-16.2163 21.33358,-29.35864 z m -36.14087,24.80674 c -4.99062,1.16992 -7.76928,-1.60869 -7.76926,-7.54993 l 2e-5,-5.7401 c -2.6e-4,-4.14014 0.80434,-7.73273 4.49704,-8.90265 10.72163,-3.39683 18.18928,1.22481 18.18925,8.48219 -2e-5,6.78215 -5.19171,11.4254 -14.91705,13.71049 z" />
</g>
</svg>
