<?xml version="1.0" encoding="UTF-8" standalone="no"?>
<!-- Generator: Adobe Illustrator 25.0.0, SVG Export Plug-In . SVG Version: 6.00 Build 0)  -->

<svg
   version="1.1"
   id="Layer_1"
   x="0px"
   y="0px"
   viewBox="0 0 666.66669 496.35434"
   xml:space="preserve"
   sodipodi:docname="Rhythm Heaven Logo (Fever Style).svg"
   width="666.66669"
   height="496.35434"
   inkscape:version="1.2.2 (b0a8486541, 2022-12-01)"
   xmlns:inkscape="http://www.inkscape.org/namespaces/inkscape"
   xmlns:sodipodi="http://sodipodi.sourceforge.net/DTD/sodipodi-0.dtd"
   xmlns="http://www.w3.org/2000/svg"
   xmlns:svg="http://www.w3.org/2000/svg"><defs
   id="defs155812" /><sodipodi:namedview
   id="namedview155810"
   pagecolor="#505050"
   bordercolor="#eeeeee"
   borderopacity="1"
   inkscape:showpageshadow="0"
   inkscape:pageopacity="0"
   inkscape:pagecheckerboard="0"
   inkscape:deskcolor="#505050"
   showgrid="false"
   inkscape:zoom="3.2557387"
   inkscape:cx="249.86649"
   inkscape:cy="186.13288"
   inkscape:window-width="2560"
   inkscape:window-height="1414"
   inkscape:window-x="0"
   inkscape:window-y="0"
   inkscape:window-maximized="1"
   inkscape:current-layer="Layer_1" />
<style
   type="text/css"
   id="style155768">
	.st0{fill:url(#Spectrum_1_);}
	.st1{fill:#FFFFFF;}
	.st2{fill:#220614;}
	.st3{fill:#F06917;}
	.st4{fill:#FEEF0E;}
</style>
<g
   id="Cloud_00000183241834984758457490000002696117968237109669_"
   transform="scale(1.3333334)">
	<linearGradient
   id="Spectrum_1_"
   gradientUnits="userSpaceOnUse"
   x1="462.85007"
   y1="296.27197"
   x2="46.644821"
   y2="55.975761">
		<stop
   offset="0.05"
   style="stop-color:#FF0000"
   id="stop155770" />
		<stop
   offset="0.2"
   style="stop-color:#F49F00"
   id="stop155772" />
		<stop
   offset="0.22617"
   style="stop-color:#F2BD00"
   id="stop155774" />
		<stop
   offset="0.25775"
   style="stop-color:#F0DA00"
   id="stop155776" />
		<stop
   offset="0.2892"
   style="stop-color:#EFEE00"
   id="stop155778" />
		<stop
   offset="0.32014"
   style="stop-color:#EEFB00"
   id="stop155780" />
		<stop
   offset="0.35"
   style="stop-color:#EEFF00"
   id="stop155782" />
		<stop
   offset="0.5"
   style="stop-color:#00FF00"
   id="stop155784" />
		<stop
   offset="0.75"
   style="stop-color:#1D0FFF"
   id="stop155786" />
		<stop
   offset="0.95"
   style="stop-color:#710EC0"
   id="stop155788" />
	</linearGradient>
	<path
   id="Spectrum"
   class="st0"
   d="m 481.88284,148.23424 c 4.89352,-12.54736 7.44138,-25.98973 7.44138,-39.55075 C 489.32422,48.75533 440.5694,0 380.64172,0 345.71695,0 313.5158,16.68602 293.30001,43.97506 279.28829,36.97458 263.73461,33.24997 247.84496,33.24997 c -20.9912,0 -41.14693,6.34912 -58.28851,18.36082 -8.88818,6.22851 -16.63622,13.73485 -23.03807,22.25486 C 149.32504,63.0766 129.25085,57.16303 108.683,57.16303 48.75484,57.16303 0,105.91786 0,165.84602 c 0,24.09178 7.72363,46.91646 22.33543,66.00677 10.20653,13.33495 23.49314,24.17088 38.47213,31.5576 -0.20459,2.62302 -0.30713,5.25778 -0.30713,7.89645 0,55.66891 45.28999,100.95889 100.9584,100.95889 20.88474,0 40.93062,-6.32715 57.97211,-18.29782 10.1367,-7.12109 18.77342,-15.91406 25.603,-25.98337 11.39697,4.30661 23.53561,6.53317 35.93503,6.53317 31.20798,0 60.53217,-14.58102 79.60147,-38.45892 12.55371,5.59763 26.17676,8.49802 40.26657,8.49802 54.67865,0 99.16299,-44.48334 99.16299,-99.162 0,-20.7031 -6.35254,-40.53463 -18.11716,-57.16057 z"
   style="fill:url(#Spectrum_1_)" />
	<path
   id="White_00000053532133141924872060000017591559169146523808_"
   class="st1"
   d="m 468.89185,149.84552 c 5.98047,-12.82617 9.11523,-26.91846 9.11523,-41.16211 0,-53.68799 -43.67773,-97.36621 -97.36523,-97.36621 -34.69336,0 -66.38477,18.37695 -83.76758,47.70654 -14.5293,-9.38574 -31.55078,-14.45654 -49.0293,-14.45654 -18.65527,0 -36.56543,5.64062 -51.79346,16.31201 -10.95996,7.68018 -19.96826,17.54248 -26.5376,28.96387 -17.15918,-13.70215 -38.67676,-21.36279 -60.83105,-21.36279 -53.6875,0 -97.36572,43.67822 -97.36572,97.36572 0,40.11523 24.95898,76.14355 61.72754,90.63086 -0.81543,4.88672 -1.22705,9.84766 -1.22705,14.83008 0,49.42871 40.21289,89.6416 89.64111,89.6416 18.54395,0 36.34082,-5.61621 51.4668,-16.24121 11.59131,-8.14258 20.97461,-18.74609 27.56543,-31.05859 12.49951,6.27539 26.29639,9.55176 40.47803,9.55176 30.8457,0 59.61914,-16.02734 76.09082,-41.62402 13.25684,7.66016 28.19238,11.66309 43.77734,11.66309 48.4375,0 87.84473,-39.40723 87.84473,-87.84473 -1e-5,-20.42677 -6.9795,-39.89503 -19.79004,-55.54933 z" />
	<path
   id="Black_00000088122886637718662610000017639178807345155209_"
   class="st2"
   d="m 457.0275,151.35191 c 7.06641,-12.62312 11.10004,-27.17374 11.10004,-42.66867 0,-48.31699 -39.16861,-87.48563 -87.48563,-87.48563 -35.96518,0 -66.85629,21.70505 -80.30258,52.72826 -14.09259,-12.13837 -32.43573,-19.47843 -52.4944,-19.47843 -34.31866,0 -63.61494,21.48344 -75.18752,51.73326 -15.9691,-17.11493 -38.71985,-27.82009 -63.97446,-27.82009 -48.31697,0 -87.48563,39.16865 -87.48563,87.48562 0,39.9599 26.79163,73.66084 63.39148,84.12401 -1.88124,6.79202 -2.89091,13.94629 -2.89091,21.33716 0,44.05078 35.71022,79.76102 79.76102,79.76102 34.0784,0 63.15971,-21.37457 74.58275,-51.44638 12.83107,8.64923 28.28934,13.69888 44.9274,13.69888 32.05685,0 59.7334,-18.74429 72.67453,-45.8692 13.10132,9.97885 29.45404,15.90775 47.19391,15.90775 43.05862,0 77.9646,-34.90591 77.9646,-77.96458 -10e-6,-20.98325 -8.29188,-40.02802 -21.7746,-54.04298 z" />
</g>
<g
   id="Rhythm_Heaven_x2122__2_"
   transform="scale(1.3333334)">
	<path
   id="_x2122__2_"
   class="st3"
   d="m 444.51715,237.48035 v -6.62662 l -2.78589,0.64319 v -1.42863 l 7.36887,-1.70125 v 1.42863 l -2.68552,0.62 v 6.62662 z m 12.50403,-2.88678 v -6.72899 l -1.69165,7.11954 -1.83218,0.42299 -1.65146,-6.34772 v 6.72899 l -1.73181,0.39981 v -8.05524 l 2.70563,-0.62465 1.63138,6.01266 0.0201,-0.005 1.59122,-6.75665 2.67047,-0.61653 v 8.05525 z" />
	<path
   id="N_2_"
   class="st3"
   d="m 419.85477,148.96709 c 0,0 -0.1254,32.69853 -0.53241,38.45044 -0.63574,8.98439 -3.04987,9.22528 -5.1041,7.87766 -4.09912,-2.68909 -11.75821,-18.00262 -18.61612,-31.31963 l -10.005,2.30983 v 82.74675 l 12.23392,-2.82442 0.0412,-20.99612 c 0.0212,-10.77774 2.96399,-11.47884 7.23993,-7.56377 3.24478,2.97093 7.65979,9.52209 14.61716,20.66193 l 16.18939,-3.73763 v -89.31372 z" />
	<path
   id="E_4_"
   class="st3"
   d="m 358.10355,231.85513 c -0.37122,0.002 -3.11938,-0.0916 -3.41327,-2.18823 -0.1702,-1.21423 0.41263,-2.35422 1.87885,-3.25111 2.29309,-1.40269 10.23059,-3.68394 17.84897,-5.47061 v -10.53481 c 0,0 -13.79456,3.31931 -18.0368,2.6884 -1.28848,-0.19162 -2.14673,-0.87263 -2.31729,-2.06314 -0.17435,-1.21675 0.43857,-2.31311 1.87885,-3.25111 3.87976,-2.52679 21.29349,-6.28342 21.29349,-6.28342 v -24.30573 l -35.8544,8.27763 -9e-5,64.79716 36.60602,-8.45116 v -13.46509 c -9.76998,2.21961 -16.37387,3.48203 -19.88433,3.50122 z" />
	<path
   id="V_2_"
   class="st3"
   d="m 318.46558,183.51242 c 0,0 -3.88406,25.59045 -7.33295,37.41643 -0.98544,3.37909 -3.36734,8.54948 -6.60724,1.15668 -1.1604,-2.64783 -4.60495,-15.01869 -7.13297,-30.96709 l -11.18567,2.58241 c 0.97894,10.96587 6.34866,40.5838 13.50314,57.83878 l 21.69373,-5.00838 c 7.98505,-21.13213 12.77609,-43.45218 14.40439,-67.02264 z" />
	<path
   id="A_2_"
   class="st3"
   d="m 279.95981,218.69118 c -5.42908,-10.00227 -11.74246,-7.92953 -14.97745,-6.85913 -4.23853,1.40245 -8.00055,3.5793 -11.93713,19.19397 -4.138,16.41365 -8.64767,50.93214 -8.64767,50.93214 l 11.3569,-2.62195 1.17374,-6.57733 c 0.5636,-3.15735 2.57318,-5.16315 5.63644,-6.06451 2.94556,-0.86673 8.80109,-2.2843 11.80545,-2.62585 1.2692,-0.14432 2.76056,0.85748 3.19403,2.84464 l 1.53433,7.03366 15.46909,-3.57132 c 0,-10e-6 -7.6951,-38.94877 -14.60773,-51.68432 z m -9.56104,36.68333 -7.66751,1.7702 c -1.92349,0.44406 -3.04202,-0.73068 -2.80786,-3.474 0.21915,-2.56715 1.34354,-8.00897 1.77106,-9.84657 0.94559,-4.06409 2.80389,-5.75803 4.98929,-6.06281 2.80136,-0.39069 5.24811,2.05797 6.58765,8.69594 0.12952,0.64175 0.45648,1.97363 0.66953,3.78377 0.25865,2.19792 -0.82014,4.50504 -3.54216,5.13347 z" />
	<path
   id="E_3_"
   class="st3"
   d="m 219.32022,268.39258 c -0.3712,0.002 -3.11938,-0.0915 -3.41327,-2.18823 -0.1702,-1.21423 0.41261,-2.35422 1.87885,-3.25113 2.29309,-1.40268 10.23059,-3.68393 17.84895,-5.47061 v -10.53479 c 0,0 -13.79454,3.31931 -18.03679,2.6884 -1.28848,-0.19162 -2.14671,-0.87265 -2.31729,-2.06314 -0.17433,-1.21675 0.43858,-2.31311 1.87885,-3.25113 3.87976,-2.52679 21.29349,-6.28342 21.29349,-6.28342 v -26.20027 l -35.85442,8.27763 -8e-5,64.79716 36.606,-8.45117 v -11.5705 c -9.76994,2.21958 -16.37381,3.482 -19.88429,3.5012 z" />
	<path
   id="H_6_"
   class="st3"
   d="m 174.8382,214.30046 c 0,12.93013 0.0652,22.60738 -1.70613,28.94844 -1.07596,3.85187 -3.4445,6.78354 -6.60719,9.00304 -3.22145,2.26074 -6.45071,3.25111 -9.6134,3.3136 -3.85663,0.0762 -6.67564,-2.02228 -7.08766,-6.30743 -0.59189,-6.15569 -0.55292,-13.93504 -0.55292,-24.71471 l -13.99738,3.23155 v 95.34456 l 19.22675,-4.43884 c 0,-12.13394 0.24879,-21.07794 1.74435,-26.6564 1.01921,-3.80161 3.7914,-7.00995 6.59029,-8.90012 3.27098,-2.20892 6.2802,-3.31372 9.4493,-3.36514 3.85162,-0.0625 6.77609,1.92551 7.13948,5.76651 0.53235,5.62689 0.56703,13.27896 0.56703,23.72122 l 14.24696,-3.28915 v -96.13583 z" />
	<path
   id="M_2_"
   class="st4"
   d="M 418.4433,137.89668 V 54.87777 l -11.34866,2.62004 c -6.01917,19.87578 -9.42377,29.59497 -12.39362,37.78698 -5.05426,13.94149 -10.31088,8.46899 -12.74893,4.57707 -2.85086,-4.55087 -6.70886,-13.41939 -13.41772,-29.65858 l -16.57361,3.82632 v 76.81855 l 13.74298,-3.17282 c -0.10452,-12.43542 0.11072,-19.68283 0.78244,-22.9635 0.60349,-2.94742 2.3793,-3.36285 4.17996,-0.43889 1.4812,2.40515 3.82471,7.60756 8.48535,18.30829 l 9.21686,-2.12788 c 5.07867,-13.64762 7.82303,-20.52386 9.76022,-23.89246 1.57275,-2.73486 4.54968,-4.65952 5.45486,0.3971 0.68478,3.82555 0.62701,11.52232 0.60614,24.22945 z" />
	<path
   id="H_5_"
   class="st4"
   d="m 328.88361,92.91708 c 0,0 0.27286,18.03109 -0.34161,24.00021 -0.81543,7.92162 -14.85745,10.65681 -15.45172,2.56022 -0.26526,-3.61402 -0.46863,-8.27467 -0.46863,-18.91673 l -11.47522,2.64927 v 71.11612 l 15.73459,-3.63261 v -16.4234 c 0,-12.63138 15.69135,-13.68779 16.53638,-4.85849 0.26572,2.77635 0.40091,7.10423 0.40091,16.08539 l 11.47522,-2.64928 V 89.12856 Z" />
	<path
   id="T_2_"
   class="st4"
   d="m 250.28442,103.1239 v 29.30789 l 10.5878,-2.4444 c 4.21957,-0.97417 5.70108,-0.0785 5.67059,8.39847 v 37.66402 l 12.54416,-2.89604 v -34.85378 c 0.0871,-14.9622 1.84293,-18.05949 9.28387,-19.77737 l 6.64386,-1.53386 V 92.7971 Z" />
	<path
   id="Y_2_"
   class="st4"
   d="m 244.0899,115.56802 -13.37877,3.08873 c 0,0 -0.0836,10.12342 -0.82365,23.53045 -0.78674,14.252 -16.14043,18.62201 -17.01704,4.12398 -0.55997,-9.26085 -0.47076,-21.818 -0.47076,-21.818 l -16.01483,3.6973 v 6.85657 c 0,26.70082 3.06812,35.76233 19.19719,34.02045 3.77158,-0.40732 6.64357,-1.60548 9.88033,-3.79684 0.20178,-0.13661 0.45787,-0.13965 0.6976,0.0461 0.23024,0.17841 0.60326,0.77753 0.0418,2.52054 -3.02431,9.38878 -28.92905,12.18068 -28.92905,12.18068 v 20.97989 c 14.80484,-2.17874 30.91917,-5.33119 39.37506,-19.37997 3.15858,-5.24775 7.44213,-11.58386 7.44213,-66.04988 z" />
	<path
   id="H_4_"
   class="st4"
   d="m 173.3497,126.8286 c 0,0 0.25929,17.13634 -0.32466,22.80925 -0.77496,7.52853 -14.12021,10.12799 -14.68497,2.43317 -0.25209,-3.43468 -0.44537,-7.86404 -0.44537,-17.97801 l -10.90581,2.51779 v 67.58716 l 14.9538,-3.45236 v -15.60843 c 0,-12.00458 14.91272,-13.00856 15.71582,-4.6174 0.25253,2.63858 0.381,6.75169 0.381,15.28719 l 10.90581,-2.51781 v -70.06107 z" />
	<path
   id="R_2_"
   class="st4"
   d="m 139.75017,146.61179 c 0,-16.90703 -12.45674,-37.35637 -64.57763,-24.81187 v 91.9515 l 13.5728,-3.13353 v -16.61331 c 0,-6.75182 3.89013,-5.50806 6.37236,-3.89151 1.92802,1.25563 6.01703,4.55112 15.68311,15.41292 l 23.05798,-5.32336 -17.96809,-18.39703 c 0,0 23.85948,-9.60721 23.85947,-35.19381 z M 99.56375,176.94 c -6.84777,1.74609 -10.88653,-1.922 -10.88653,-11.12718 0,-7.34229 0.13837,-14.92247 13.58092,-14.92247 9.57012,0 13.57201,4.84605 13.57201,10.31236 0,4.76087 -5.8247,13.07482 -16.2664,15.73729 z" />
</g>
</svg>
