<?xml version="1.0" encoding="UTF-8" standalone="no"?>
<!-- Created with Inkscape (http://www.inkscape.org/) -->

<svg
   version="1.1"
   id="svg2"
   width="666.66669"
   height="480.26001"
   viewBox="0 0 666.66669 480.26001"
   sodipodi:docname="Rhythm Paradise but it's not a Cloud.ai"
   xmlns:inkscape="http://www.inkscape.org/namespaces/inkscape"
   xmlns:sodipodi="http://sodipodi.sourceforge.net/DTD/sodipodi-0.dtd"
   xmlns="http://www.w3.org/2000/svg"
   xmlns:svg="http://www.w3.org/2000/svg">
  <defs
     id="defs6">
    <clipPath
       clipPathUnits="userSpaceOnUse"
       id="clipPath16">
      <path
         d="M 0,360.195 H 500 V 0 H 0 Z"
         id="path14" />
    </clipPath>
  </defs>
  <sodipodi:namedview
     id="namedview4"
     pagecolor="#ffffff"
     bordercolor="#000000"
     borderopacity="0.25"
     inkscape:showpageshadow="2"
     inkscape:pageopacity="0.0"
     inkscape:pagecheckerboard="0"
     inkscape:deskcolor="#d1d1d1" />
  <g
     id="g8"
     inkscape:groupmode="layer"
     inkscape:label="Rhythm Paradise but it's not a Cloud"
     transform="matrix(1.3333333,0,0,-1.3333333,0,480.26)">
    <g
       id="g10">
      <g
         id="g12"
         clip-path="url(#clipPath16)">
        <g
           id="g18"
           transform="translate(500,212.248)">
          <path
             d="m 0,0 c 0,10.347 -4.644,19.976 -12.743,26.42 -8.101,6.443 -18.528,8.804 -28.609,6.473 l -1.016,-0.235 v 81.519 c 0,10.347 -4.644,19.976 -12.743,26.42 -8.099,6.442 -18.526,8.803 -28.609,6.473 l -12.744,-2.942 c -9.334,-2.155 -17.229,-8.184 -21.833,-16.357 -6.528,2.94 -14.017,3.807 -21.474,2.086 l -18.612,-4.296 c -13.396,-3.091 -23.278,-13.719 -25.631,-26.835 l -1.505,-0.347 c -2.894,-0.668 -5.653,-1.707 -8.22,-3.068 -0.597,0.553 -1.217,1.085 -1.858,1.594 -8.1,6.443 -18.527,8.804 -28.607,6.472 l -50.372,-11.629 c -13.166,-3.04 -22.939,-13.361 -25.501,-26.167 -2.133,-0.845 -4.168,-1.903 -6.075,-3.154 -1.826,2.584 -4.028,4.927 -6.569,6.948 -8.098,6.444 -18.526,8.804 -28.612,6.476 l -17.816,-4.113 c -4.994,-1.153 -9.581,-3.408 -13.476,-6.519 -3.888,5.058 -8.523,9.517 -13.783,13.224 -22.481,15.84 -55.72,17.657 -91.192,4.984 C -490.999,78.64 -500,65.865 -500,51.637 V -57.701 c 0,-10.348 4.645,-19.978 12.745,-26.421 4.166,-3.313 9.073,-5.584 14.248,-6.647 v -87.721 c 0,-10.349 4.644,-19.979 12.744,-26.421 5.95,-4.732 13.413,-7.337 21.014,-7.337 2.55,0 5.104,0.291 7.594,0.865 l 24.505,5.658 c 4.509,1.041 8.619,2.935 12.179,5.492 5.596,-3.854 12.228,-5.935 19.115,-5.934 h 0.007 c 2.415,0 4.832,0.26 7.173,0.771 l 12.628,2.746 c 2.942,0.639 5.764,1.666 8.398,3.036 5.35,-1.467 11.045,-1.623 16.516,-0.369 l 16.76,3.85 c 14.429,3.315 24.661,15.374 26.045,29.537 5.738,-4.168 12.638,-6.427 19.813,-6.427 h 0.008 c 2.414,0 4.831,0.259 7.174,0.771 l 12.626,2.745 c 2.943,0.64 5.765,1.667 8.4,3.037 5.347,-1.464 11.041,-1.622 16.514,-0.37 l 16.76,3.851 c 10.408,2.391 18.75,9.417 23.036,18.623 11.552,3.376 21.247,8.049 29.329,14.131 1.573,-2.234 3.427,-4.289 5.535,-6.11 6.13,-5.298 13.968,-8.215 22.071,-8.215 1.639,0 3.289,0.12 4.962,0.366 l 0.071,0.011 c 7.836,1.15 20.952,3.075 33.474,7.91 15.393,5.945 24.287,14.465 29.425,22.361 l 32.896,7.594 c 15.405,3.556 26.165,17.081 26.165,32.893 v 12.229 c 0,5.972 -1.572,11.747 -4.472,16.8 C -1.596,-39.317 0,-33.5 0,-27.465 Z"
             style="fill:#00b3f0;fill-opacity:1;fill-rule:nonzero;stroke:none"
             id="path20" />
        </g>
        <g
           id="g22"
           transform="translate(491.5605,212.248)">
          <path
             d="m 0,0 c 0,7.76 -3.483,14.982 -9.557,19.815 -6.076,4.832 -13.897,6.602 -21.457,4.854 l -11.354,-2.621 v 92.129 c 0,7.76 -3.484,14.982 -9.558,19.815 -6.072,4.831 -13.894,6.6 -21.456,4.854 l -12.745,-2.942 c -8.813,-2.034 -15.916,-8.675 -18.536,-17.331 -0.384,-1.267 -0.762,-2.507 -1.132,-3.721 -6.012,6.049 -14.861,8.805 -23.638,6.782 l -18.613,-4.296 c -11.555,-2.666 -19.625,-12.811 -19.625,-24.67 v -0.779 l -7.511,-1.734 c -4.399,-1.015 -8.38,-3.171 -11.589,-6.169 -1.503,2.391 -3.404,4.536 -5.639,6.314 -6.076,4.831 -13.898,6.601 -21.456,4.854 l -50.372,-11.629 c -11.472,-2.649 -19.509,-12.67 -19.622,-24.419 l -1.036,-0.24 c -4.076,-0.941 -7.82,-2.866 -10.929,-5.573 -2.098,0.24 -4.222,0.213 -6.324,-0.079 -1.629,3.689 -4.14,6.974 -7.388,9.557 -6.073,4.833 -13.894,6.602 -21.458,4.857 l -17.816,-4.113 c -5.899,-1.362 -11.043,-4.776 -14.588,-9.516 -1.08,-0.031 -2.158,-0.131 -3.225,-0.299 -4.007,7.091 -9.437,13.074 -16.206,17.844 -20.207,14.238 -50.637,15.674 -83.491,3.936 -10.049,-3.59 -16.8,-13.172 -16.8,-23.843 V -57.701 c 0,-7.762 3.483,-14.983 9.558,-19.815 4.463,-3.549 10.058,-5.503 15.754,-5.503 h 0.007 c 0.558,0 1.116,0.018 1.674,0.055 v -95.526 c 0,-7.762 3.483,-14.984 9.558,-19.816 4.462,-3.548 10.06,-5.503 15.761,-5.503 1.912,0 3.828,0.218 5.695,0.649 l 24.505,5.658 c 5.669,1.309 10.5,4.418 13.95,8.647 0.622,-0.73 1.289,-1.426 2,-2.088 4.702,-4.375 10.826,-6.784 17.244,-6.784 h 0.006 c 1.81,0 3.622,0.195 5.38,0.578 l 12.627,2.746 c 3.331,0.724 6.457,2.109 9.204,4.045 4.888,-2.08 10.39,-2.598 15.614,-1.4 l 16.76,3.85 c 12.701,2.918 21.065,14.871 19.456,27.805 -0.162,1.302 -0.34,2.634 -0.531,3.99 0.442,0.22 0.877,0.452 1.306,0.697 2.816,-0.734 5.741,-0.981 8.649,-0.725 0.514,-0.576 1.057,-1.129 1.626,-1.659 4.702,-4.375 10.825,-6.784 17.243,-6.784 h 0.006 c 1.811,0 3.622,0.195 5.381,0.578 l 12.627,2.746 c 3.331,0.725 6.457,2.11 9.203,4.045 4.889,-2.078 10.387,-2.595 15.614,-1.399 l 16.76,3.85 c 9.058,2.081 16.029,8.843 18.58,17.411 14.706,3.757 26.217,9.526 35.067,17.553 1.212,1.101 2.383,2.257 3.506,3.465 1.174,-5.254 4.006,-10.042 8.155,-13.626 5.526,-4.776 12.897,-6.972 20.26,-5.887 l 0.1,0.014 c 7.488,1.1 20.018,2.939 31.659,7.434 15.331,5.921 23.109,14.552 27.051,21.899 l 36.413,8.406 c 11.553,2.667 19.623,12.811 19.623,24.67 v 12.229 c 0,6.012 -2.124,11.76 -5.932,16.287 l -0.003,1.068 C -2.149,-39.302 0,-33.529 0,-27.465 Z"
             style="fill:#ffffff;fill-opacity:1;fill-rule:nonzero;stroke:none"
             id="path24" />
        </g>
        <g
           id="g26"
           transform="translate(483.1211,184.7826)">
          <path
             d="m 0,0 v 27.465 c 0,5.144 -2.346,10.008 -6.371,13.21 -4.027,3.203 -9.297,4.394 -14.305,3.237 L -43.814,38.57 c 0.93,2.1 1.446,4.413 1.446,6.826 v 96.246 c 0,5.144 -2.346,10.008 -6.371,13.21 -4.028,3.203 -9.294,4.393 -14.305,3.237 l -12.745,-2.943 c -5.892,-1.36 -10.606,-5.767 -12.358,-11.553 -2.911,-9.612 -5.255,-17.033 -7.239,-23.081 -1.411,3.35 -2.866,6.858 -4.313,10.362 -3.152,7.626 -11.356,11.857 -19.397,10.001 l -18.613,-4.295 c -7.658,-1.767 -13.083,-8.587 -13.083,-16.447 v -7.492 l -14.053,-3.244 c -5.51,-1.271 -9.865,-5.159 -11.874,-10.171 -2.023,0.478 -4.132,0.575 -6.221,0.282 -0.423,4.556 -2.668,8.775 -6.283,11.651 -4.026,3.202 -9.293,4.395 -14.305,3.237 l -50.372,-11.63 c -7.658,-1.767 -13.082,-8.587 -13.082,-16.446 v -6.463 l -7.575,-1.748 c -4.132,-0.955 -7.611,-3.378 -9.94,-6.639 -3.024,1.095 -6.336,1.315 -9.542,0.576 l -5.956,-1.376 c -0.074,5.052 -2.397,9.812 -6.357,12.962 -4.026,3.204 -9.293,4.395 -14.305,3.238 l -17.816,-4.113 c -5.51,-1.272 -9.866,-5.16 -11.874,-10.172 -2.494,0.59 -5.119,0.612 -7.679,0.02 l -4.829,-1.115 c -3.43,8.352 -8.975,15.39 -16.397,20.62 -17.933,12.637 -45.557,13.689 -75.79,2.888 -6.717,-2.4 -11.2,-8.762 -11.2,-15.895 V -30.235 c 0,-5.145 2.346,-10.008 6.371,-13.21 3.017,-2.399 6.728,-3.67 10.508,-3.669 1.266,0 2.539,0.142 3.797,0.432 l 7.951,1.836 c -1.054,-2.217 -1.634,-4.679 -1.634,-7.238 v -98.941 c 0,-5.144 2.345,-10.008 6.371,-13.21 3.016,-2.398 6.728,-3.669 10.508,-3.669 1.266,0 2.54,0.143 3.797,0.433 l 24.506,5.658 c 7.658,1.768 13.081,8.587 13.081,16.446 v 15.825 c 2.703,0.792 5.284,1.696 7.75,2.699 -0.863,-5.141 -1.68,-10.396 -2.442,-15.703 -0.785,-5.474 1.16,-10.986 5.208,-14.753 3.155,-2.937 7.276,-4.525 11.5,-4.524 1.194,0 2.396,0.126 3.587,0.386 l 12.628,2.746 c 4.038,0.878 7.504,3.172 9.885,6.323 0.593,-0.515 1.226,-0.991 1.895,-1.423 3.828,-2.476 8.497,-3.294 12.941,-2.276 l 16.759,3.85 c 8.438,1.938 14.041,9.945 12.972,18.536 -0.444,3.561 -0.983,7.184 -1.593,10.806 l 1.967,0.454 c 2.879,0.664 5.443,2.043 7.521,3.922 3.487,-1.775 7.538,-2.31 11.456,-1.405 l 2.247,0.519 c 0.888,-1.766 2.089,-3.387 3.575,-4.771 3.156,-2.936 7.277,-4.524 11.501,-4.523 1.193,0 2.396,0.126 3.587,0.386 l 12.627,2.746 c 4.039,0.878 7.504,3.172 9.884,6.323 0.595,-0.515 1.229,-0.992 1.898,-1.425 3.828,-2.473 8.499,-3.291 12.939,-2.274 l 16.76,3.85 c 7.643,1.755 12.942,8.494 13.081,16.132 16.08,3.379 27.925,8.822 36.784,16.858 2.558,2.32 4.814,4.851 6.8,7.564 0.498,-0.044 0.999,-0.07 1.501,-0.07 1.267,0 2.54,0.143 3.797,0.433 l 4.908,1.133 v -6.314 c 0,-4.904 2.133,-9.567 5.845,-12.773 3.086,-2.667 7.009,-4.106 11.034,-4.106 0.815,0 1.635,0.059 2.452,0.179 l 0.13,0.019 c 7.139,1.048 19.085,2.802 29.844,6.956 14.753,5.698 21.359,13.951 24.166,21.32 l 40.44,9.336 c 7.658,1.767 13.082,8.587 13.082,16.446 v 12.229 c 0,4.955 -2.175,9.643 -5.923,12.84 l -0.016,6.168 c -10e-4,0.581 -0.032,1.159 -0.093,1.731 C -2.337,-9.866 0,-5.159 0,0"
             style="fill:#130c0e;fill-opacity:1;fill-rule:nonzero;stroke:none"
             id="path28" />
        </g>
        <g
           id="g30"
           transform="translate(441.7602,178.1161)">
          <path
             d="m 0,0 c 5.047,1.901 15.609,4.741 24.482,6.666 v 27.466 l -44.34,-10.237 v -73.409 l 44.27,10.221 v 12.229 C 18.59,-28.59 6.596,-30.843 1.314,-31.735 c -6.431,-1.08 -7.347,7.112 -0.234,9.459 4.084,1.338 11.572,3.122 17.416,4.765 l -0.023,9.413 C 13.145,-9.178 5.962,-10.422 0.282,-11.22 -6.76,-12.229 -7.981,-3.005 0,0"
             style="fill:#f15a22;fill-opacity:1;fill-rule:nonzero;stroke:none"
             id="path32" />
        </g>
        <g
           id="g34"
           transform="translate(400.5966,127.5328)">
          <path
             d="m 0,0 c -0.26,2.439 -4.479,2.992 -11.051,4.567 -11.489,2.853 -18.602,9.622 -17.875,21.513 0.773,12.836 7.271,21.787 41.663,27.628 v -26.7 C 0.327,25.456 -6.525,23.134 -9.431,20.757 -12.53,18.242 -12.349,14.123 -7.876,12.629 -5.933,11.98 -0.187,10.061 3.286,8.897 9.95,6.676 13.21,3.27 13.89,-2.758 15.809,-19.764 -14.97,-24.224 -27.66,-26.087 v 15.109 C -12.457,-7.915 0.587,-5.23 0,0"
             style="fill:#f15a22;fill-opacity:1;fill-rule:nonzero;stroke:none"
             id="path36" />
        </g>
        <g
           id="g38"
           transform="translate(347.3529,123.0727)">
          <path
             d="m 0,0 v 65.442 l 16.548,3.82 V 3.82 Z"
             style="fill:#f15a22;fill-opacity:1;fill-rule:nonzero;stroke:none"
             id="path40" />
        </g>
        <g
           id="g42"
           transform="translate(307.8014,112.1579)">
          <path
             d="m 0,0 c -4.554,-1.054 -6.525,0.469 -6.525,5.798 v 16.806 c 0,3.873 -0.201,6.967 3.474,8.004 7.98,2.254 16.9,-2.018 17.745,-10.703 C 15.68,9.812 10.065,2.324 0,0 m -17.745,56.029 v -71.38 c 34.505,5.047 49.527,18.379 49.151,44.88 -0.328,22.979 -23.144,35.608 -49.151,26.5"
             style="fill:#f15a22;fill-opacity:1;fill-rule:nonzero;stroke:none"
             id="path44" />
        </g>
        <g
           id="g46"
           transform="translate(259.8936,101.1025)">
          <path
             d="m 0,0 -8.333,-1.924 c -2.094,-0.483 -3.286,0.821 -3.028,3.731 0.235,2.723 1.456,8.497 1.925,10.469 0.986,4.084 3.051,6.08 5.422,6.432 3.826,0.61 5.681,-2.183 7.159,-9.225 C 3.286,8.826 3.685,7.394 3.85,5.469 4.178,1.549 2.96,0.683 0,0 M 14.6,31.289 C 10.234,45.607 6.7,49.141 -1.995,47.133 -9.661,45.364 -14.019,41.373 -17.675,27.369 -21.266,13.614 -25.21,-5.868 -28.402,-28.12 l 12.628,2.746 c 0.235,1.76 0.658,3.826 1.268,6.971 0.657,3.169 2.371,5.435 5.774,6.221 2.802,0.647 8.018,1.851 9.859,2.276 2.635,0.608 5.046,-1.478 5.891,-4.999 0.564,-2.347 1.291,-5.657 1.737,-7.887 l 16.76,3.849 C 23.473,-2.535 18.942,17.065 14.6,31.289"
             style="fill:#f15a22;fill-opacity:1;fill-rule:nonzero;stroke:none"
             id="path48" />
        </g>
        <g
           id="g50"
           transform="translate(198.1043,106.6483)">
          <path
             d="m 0,0 c -4.299,-1.008 -6.693,1.386 -6.693,6.504 v 4.945 c 0,3.566 0.693,6.661 3.874,7.669 9.236,2.926 15.67,-1.055 15.67,-7.307 C 12.851,5.969 8.378,1.969 0,0 m 31.134,21.37 c 0,22.725 -22.236,29.323 -49.433,19.607 v -71.494 l 11.59,2.676 v 16.502 c 0,2.804 2.063,2.315 3.969,0.615 1.338,-1.197 9.386,-8.993 15.008,-14.599 l 17.694,4.085 c 0,0 -15.426,15.758 -17.206,17.317 10.362,3.874 18.378,13.97 18.378,25.291"
             style="fill:#f15a22;fill-opacity:1;fill-rule:nonzero;stroke:none"
             id="path52" />
        </g>
        <g
           id="g54"
           transform="translate(152.5531,67.9588)">
          <path
             d="m 0,0 -8.333,-1.924 c -2.094,-0.483 -3.286,0.821 -3.028,3.731 0.235,2.723 1.456,8.497 1.925,10.469 0.986,4.084 3.051,6.08 5.422,6.432 3.826,0.61 5.681,-2.183 7.159,-9.225 C 3.286,8.826 3.685,7.394 3.85,5.469 4.178,1.549 2.96,0.683 0,0 M 14.6,31.289 C 10.234,45.607 6.7,49.141 -1.995,47.133 -9.661,45.364 -14.019,41.373 -17.675,27.369 -21.266,13.614 -25.21,-5.868 -28.402,-28.12 l 12.628,2.746 c 0.235,1.76 0.658,3.826 1.268,6.971 0.657,3.169 2.371,5.435 5.774,6.221 2.802,0.647 8.018,1.851 9.859,2.276 2.635,0.608 5.046,-1.478 5.891,-4.999 0.564,-2.347 1.291,-5.657 1.737,-7.887 l 16.76,3.849 C 23.473,-2.535 18.942,17.065 14.6,31.289"
             style="fill:#f15a22;fill-opacity:1;fill-rule:nonzero;stroke:none"
             id="path56" />
        </g>
        <g
           id="g58"
           transform="translate(93.4488,81.7383)">
          <path
             d="m 0,0 c -5.211,-1.267 -8.216,0.094 -8.216,4.46 v 15.797 c 0,4.462 2.465,7.277 7.371,7.911 C 8.99,29.436 13.427,23.685 13.427,16.197 13.427,9.953 9.741,2.394 0,0 M -32.698,50.961 V -47.98 l 24.506,5.658 v 23.238 c 0,4.249 1.056,6.361 3.591,6.807 22.839,4.018 39.107,15.501 39.107,39.06 0,25.87 -27.793,39.787 -67.204,24.178"
             style="fill:#f15a22;fill-opacity:1;fill-rule:nonzero;stroke:none"
             id="path60" />
        </g>
        <g
           id="g62"
           transform="translate(411.1283,323.4825)">
          <path
             d="m 0,0 c -6.76,-22.322 -10.586,-33.237 -13.919,-42.439 -5.681,-15.656 -11.573,-9.506 -14.319,-5.14 -3.192,5.117 -7.534,15.069 -15.069,33.308 l -18.614,-4.296 v -87.621 l 15.445,3.565 c -0.117,13.967 0.117,23.45 0.869,27.135 0.68,3.309 2.675,3.779 4.694,0.493 1.667,-2.7 4.296,-8.544 9.53,-20.562 l 10.349,2.389 c 5.704,15.328 8.781,23.055 10.964,26.834 1.761,3.075 5.117,5.235 6.127,-0.446 0.774,-4.295 0.704,-15.948 0.68,-30.22 l 16.009,3.696 V 2.943 Z"
             style="fill:#faa61a;fill-opacity:1;fill-rule:nonzero;stroke:none"
             id="path64" />
        </g>
        <g
           id="g66"
           transform="translate(322.0729,277.7334)">
          <path
             d="m 0,0 c -0.07,-11.971 -0.047,-22.886 -0.563,-26.876 -1.197,-9.53 -17.488,-13.826 -18.286,-5.047 -0.375,4.131 -0.704,9.589 -0.704,21.771 l -13.168,-3.04 v -80.276 l 16.783,3.874 c 0,12.746 0,18.284 0.211,22.65 0.587,11.502 17.863,14.107 19.365,4.108 0.681,-4.554 0.798,-6.737 0.798,-17.018 l 13.38,3.089 V 4.113 Z"
             style="fill:#faa61a;fill-opacity:1;fill-rule:nonzero;stroke:none"
             id="path68" />
        </g>
        <g
           id="g70"
           transform="translate(233.0175,271.1028)">
          <path
             d="m 0,0 v -32.312 l 9.366,2.162 c 5.68,1.311 8.027,0.572 8.027,-9.483 v -41.478 l 15.375,3.522 v 38.05 c 0,16.9 1.587,21.165 9.952,23.097 l 7.652,1.766 v 26.305 z"
             style="fill:#faa61a;fill-opacity:1;fill-rule:nonzero;stroke:none"
             id="path72" />
        </g>
        <g
           id="g74"
           transform="translate(226.7268,249.7616)">
          <path
             d="m 0,0 -14.365,-3.317 c 0,0 0.211,-14.787 -0.352,-25.679 -0.822,-15.938 -16.877,-19.365 -18.168,-4.201 -0.658,7.957 -0.963,23.817 -0.963,23.817 l -17.862,-4.124 v -12.933 c 0,-30.867 20.069,-34.669 30.561,-25.867 0.634,0.54 1.268,0.869 1.784,0.634 0.587,-0.258 0.563,-0.892 0.329,-2.066 -0.634,-3.075 -5.188,-9.154 -14.389,-11.619 -7.018,-1.878 -13.896,-3.062 -17.323,-3.602 v -21.42 c 15.445,1.996 33.331,6.408 41.664,19.225 4.343,6.689 6.619,13.755 7.746,24.223 C 0.423,-30.451 0,0 0,0"
             style="fill:#faa61a;fill-opacity:1;fill-rule:nonzero;stroke:none"
             id="path76" />
        </g>
        <g
           id="g78"
           transform="translate(148.4454,251.0927)">
          <path
             d="m 0,0 c -0.07,-11.971 -0.047,-22.886 -0.563,-26.876 -1.197,-9.53 -17.488,-13.826 -18.286,-5.047 -0.375,4.131 -0.704,9.589 -0.704,21.771 l -13.168,-3.04 v -80.276 l 16.783,3.874 c 0,12.746 0,18.284 0.211,22.65 0.587,11.502 17.863,14.107 19.365,4.108 0.681,-4.554 0.798,-6.737 0.798,-17.018 l 13.38,3.089 V 4.113 Z"
             style="fill:#faa61a;fill-opacity:1;fill-rule:nonzero;stroke:none"
             id="path80" />
        </g>
        <g
           id="g82"
           transform="translate(61.0331,202.8094)">
          <path
             d="m 0,0 c -6.408,-1.502 -9.976,2.066 -9.976,9.694 v 7.371 c 0,5.316 1.033,9.929 5.774,11.431 C 9.565,32.857 19.154,26.923 19.154,17.605 19.154,8.896 12.488,2.934 0,0 m 46.405,31.852 c 0,33.872 -33.143,43.707 -73.68,29.224 V -48.263 l 17.276,3.989 V -16.9 c 0,4.178 3.075,3.45 5.915,0.915 1.995,-1.784 13.99,-13.403 22.369,-21.759 l 26.374,6.089 c 0,0 -22.994,23.487 -25.646,25.81 15.445,5.775 27.392,20.822 27.392,37.697"
             style="fill:#faa61a;fill-opacity:1;fill-rule:nonzero;stroke:none"
             id="path84" />
        </g>
      </g>
    </g>
  </g>
</svg>
