<?xml version="1.0" encoding="UTF-8"?>
<svg width="750px" height="497px" viewBox="0 0 750 497" version="1.1" xmlns="http://www.w3.org/2000/svg" xmlns:xlink="http://www.w3.org/1999/xlink">
    <title>Rhythm Heaven Logo but Wii</title>
    <defs>
        <polygon id="path-1" points="0 496.354654 666.66665 496.354654 666.66665 0 0 0"></polygon>
        <linearGradient x1="57.7378876%" y1="33.5704539%" x2="48.9315756%" y2="65.1997805%" id="linearGradient-3">
            <stop stop-color="#F8EC19" offset="0%"></stop>
            <stop stop-color="#F8EC19" offset="20%"></stop>
            <stop stop-color="#F15A2B" offset="60%"></stop>
            <stop stop-color="#F15A2B" offset="100%"></stop>
        </linearGradient>
        <linearGradient x1="41.2902646%" y1="100.128318%" x2="58.6267927%" y2="-0.196804405%" id="linearGradient-4">
            <stop stop-color="#FFFFFF" offset="0%"></stop>
            <stop stop-color="#FFFFFF" offset="58.496236%"></stop>
            <stop stop-color="#FCF380" offset="100%"></stop>
        </linearGradient>
        <linearGradient x1="40.5624687%" y1="99.9747028%" x2="59.116515%" y2="-0.228849256%" id="linearGradient-5">
            <stop stop-color="#FFFFFF" offset="0%"></stop>
            <stop stop-color="#FFFFFF" offset="58.496236%"></stop>
            <stop stop-color="#FCF380" offset="100%"></stop>
        </linearGradient>
        <linearGradient x1="50.0007846%" y1="99.9996619%" x2="50.0007846%" y2="0.000588515189%" id="linearGradient-6">
            <stop stop-color="#FFFFFF" offset="0%"></stop>
            <stop stop-color="#FFFFFF" offset="58.496236%"></stop>
            <stop stop-color="#FCF380" offset="100%"></stop>
        </linearGradient>
        <linearGradient x1="49.9943716%" y1="100%" x2="49.9943716%" y2="-0.00157776108%" id="linearGradient-7">
            <stop stop-color="#FFFFFF" offset="0%"></stop>
            <stop stop-color="#FFFFFF" offset="58.496236%"></stop>
            <stop stop-color="#FCF380" offset="100%"></stop>
        </linearGradient>
    </defs>
    <g id="Page-1" stroke="none" stroke-width="1" fill="none" fill-rule="evenodd">
        <g id="Rhythm-Heaven-Logo-but-Wii" transform="translate(0, 0)">
            <g id="g12-Clipped" transform="translate(333.3333, 248.1773) scale(-1, 1) rotate(-180) translate(-333.3333, -248.1773)translate(-0, 0)">
                <mask id="mask-2" fill="white">
                    <use xlink:href="#path-1"></use>
                </mask>
                <g id="path14"></g>
                <g id="g12" mask="url(#mask-2)">
                    <g transform="translate(-0.0003, -0.0007)">
                        <g id="g18">
                            <path d="M642.510651,298.709326 C649.035984,315.438659 652.431984,333.362658 652.431984,351.443991 C652.431984,431.347989 587.426652,496.354654 507.522654,496.354654 C460.955988,496.354654 418.021323,474.106655 391.066657,437.721322 C372.383991,447.055989 351.646658,452.021322 330.459992,452.021322 C302.471992,452.021322 275.597326,443.555989 252.74266,427.539989 C240.890661,419.23599 230.559994,409.22799 222.025328,397.86799 C199.099995,412.253323 172.334662,420.137323 144.910663,420.137323 C65.006665,420.137323 0,355.130658 0,275.22666 C0,243.103994 10.2986664,212.671995 29.7813326,187.217329 C43.3893322,169.437329 61.1053318,154.990663 81.0773313,145.14133 C80.803998,141.643996 80.667998,138.130663 80.667998,134.611997 C80.667998,60.3866652 141.054663,0 215.278661,0 C243.125327,0 269.853327,8.43733312 292.574659,24.3973327 C306.090659,33.8919992 317.606659,45.6159989 326.711992,59.0426652 C341.907991,53.2999987 358.093324,50.3306654 374.625324,50.3306654 C416.23599,50.3306654 455.334655,69.7733316 480.761321,101.609331 C497.498654,94.1466643 515.662654,90.2786644 534.44932,90.2786644 C607.354651,90.2786644 666.66665,149.590663 666.66665,222.494661 C666.66665,250.099994 658.197317,276.541326 642.510651,298.709326" id="path20" fill="#00B3F0" fill-rule="nonzero"></path>
                        </g>
                        <g id="g22" transform="translate(15.0893, 15.0903)">
                            <path d="M610.099985,281.47066 C618.073318,298.571993 622.253318,317.361325 622.253318,336.353325 C622.253318,407.937323 564.015986,466.174655 492.433321,466.174655 C446.175989,466.174655 403.91999,441.671989 380.742657,402.566657 C361.370658,415.081323 338.675992,421.841323 315.370659,421.841323 C290.497326,421.841323 266.617327,414.321323 246.313327,400.09199 C231.699994,389.85199 219.687995,376.702657 210.929328,361.473324 C188.050662,379.743991 159.359996,389.957324 129.82133,389.957324 C58.2386652,389.957324 0,331.719992 0,260.137327 C0,206.649328 33.2786658,158.611996 82.3039979,139.295997 C81.215998,132.779997 80.667998,126.16533 80.667998,119.522664 C80.667998,53.617332 134.28533,0 200.189328,0 C224.914661,0 248.643994,7.48799981 268.811993,21.6546661 C284.26666,32.5119992 296.777326,46.6493322 305.565326,63.0666651 C322.231992,54.6986653 340.627991,50.3306654 359.535991,50.3306654 C400.66399,50.3306654 439.027989,71.6999982 460.990655,105.829331 C478.666655,95.6159976 498.579988,90.2786644 519.359987,90.2786644 C583.943985,90.2786644 636.486651,142.82133 636.486651,207.405328 C636.486651,234.639994 627.181318,260.59866 610.099985,281.47066" id="path24" fill="#FFFFFF" fill-rule="nonzero"></path>
                        </g>
                        <g id="g26" transform="translate(28.2636, 28.2631)">
                            <path d="M581.106652,266.289327 C590.527985,283.119993 595.906652,302.521326 595.906652,323.181325 C595.906652,387.60399 543.68132,439.827989 479.258655,439.827989 C431.305323,439.827989 390.117324,410.88799 372.189324,369.523991 C353.398658,385.70799 328.941325,395.494657 302.195992,395.494657 C256.43866,395.494657 217.375995,366.850657 201.946662,326.517325 C180.654662,349.337325 150.319996,363.610658 116.646664,363.610658 C52.225332,363.610658 0,311.386659 0,246.963994 C0,193.683995 35.7213324,148.74933 84.5213312,134.798663 C82.0133313,125.742664 80.6666647,116.202664 80.6666647,106.349331 C80.6666647,47.6146655 128.28133,0 187.014662,0 C232.453328,0 271.227993,28.5 286.45866,68.5959983 C303.566659,57.0639986 324.177325,50.3306654 346.362658,50.3306654 C389.10399,50.3306654 426.006656,75.3226648 443.261322,111.489331 C460.729322,98.1839975 482.533321,90.2786644 506.186654,90.2786644 C563.598653,90.2786644 610.139985,136.819997 610.139985,194.231995 C610.139985,222.209328 599.083985,247.60266 581.106652,266.289327" id="path28" fill="#130C0E" fill-rule="nonzero"></path>
                        </g>
                        <g id="g30" transform="translate(588.9752, 179.7143)">
                            <path d="M20.3866662,3.84933324 L20.3866662,12.821333 L18.1306662,3.32799992 L15.6879996,2.76399993 L13.4866663,11.2279997 L13.4866663,2.25599994 L11.1773331,1.72266662 L11.1773331,12.4639997 L14.785333,13.2959997 L16.9599996,5.27999987 L16.9866662,5.2853332 L19.1079995,14.2946663 L22.6693328,15.1159996 L22.6693328,4.37599989 L20.3866662,3.84933324 Z M3.71466657,0 L3.71466657,8.83599978 L0,7.97866647 L0,9.87733309 L9.82533309,12.145333 L9.82533309,10.2466664 L6.24399984,9.41999976 L6.24399984,0.583999985 L3.71466657,0 Z" id="path32" fill="#F15A22" fill-rule="nonzero"></path>
                        </g>
                        <g id="g34" transform="translate(514.1293, 164.3121)">
                            <path d="M45.6773322,133.419997 C45.6773322,133.419997 45.5106655,89.8213311 44.9679989,82.1533313 C44.4253322,74.4839981 43.0879989,71.3573315 41.0013323,70.9826649 C39.9986657,70.8573316 38.9986657,71.0999982 38.1613324,71.6493315 C32.6959992,75.2346648 22.4839994,95.6533309 13.3399997,113.40933 L0,110.329331 L0,0 L16.1533329,3.72933324 L16.3679996,31.7599992 C16.3679996,37.5959991 16.9933329,41.471999 18.3293329,43.3066656 C18.7893329,43.9319989 19.5386662,44.3573322 20.2506662,44.4733322 C24.9533327,45.2386655 34.1959991,33.3026658 45.5106655,14.2959996 L67.0959983,19.2799995 L67.0959983,138.36533 L45.6773322,133.419997 Z" id="path36" fill="#F15A22" fill-rule="nonzero"></path>
                        </g>
                        <g id="g38" transform="translate(455.1756, 162.6616)">
                            <path d="M22.2959994,24.5506661 C21.8013328,24.5479994 18.1373329,24.6733327 17.7453329,27.4679993 C17.5186662,29.0866659 18.3293329,30.5533326 20.2506662,31.8026659 C21.9199995,32.8039992 24.4666661,33.8453325 27.890666,34.8453325 L44.0493322,39.0973324 L44.0493322,53.1439987 C44.0493322,53.1439987 25.6559994,48.7173321 20,49.5586654 C18.2813329,49.8146654 17.1599996,50.7266654 16.9093329,52.3106654 C16.7013329,53.9359987 17.4946662,55.3946653 19.4146662,56.6453319 C24.5879994,60.0146652 47.8066655,65.022665 47.8066655,65.022665 L47.8066655,97.4333309 L0,86.3959978 L0,0 L48.8079988,11.2679997 L48.8079988,29.2186659 C35.7813324,26.2599993 26.9759993,24.5759994 22.2959994,24.5506661" id="path40" fill="#F15A22" fill-rule="nonzero"></path>
                        </g>
                        <g id="g42" transform="translate(381.6091, 160.9691)">
                            <path d="M43.0119989,90.7026644 C43.0119989,90.7026644 37.8333324,56.5826653 33.2346658,40.8146656 C31.9213325,36.3079991 28.7453326,29.4146659 24.4253327,39.271999 C22.8773328,42.8026656 18.2853329,59.2973319 14.9146663,80.5613313 L0,77.1186647 C1.3053333,62.4973318 8.46533312,23.0066661 18.0039995,0 L46.9293322,6.67733317 C57.5759986,34.8533325 63.9639984,64.6133317 66.134665,96.0413309 L43.0119989,90.7026644 Z" id="path44" fill="#F15A22" fill-rule="nonzero"></path>
                        </g>
                        <g id="g46" transform="translate(325.8707, 120.4636)">
                            <path d="M34.6613325,35.3919991 C32.3573325,34.8906658 27.1159993,33.5626658 24.4373327,33.0613325 C21.8746661,32.5599992 20.3773328,34.0053325 20.6946661,37.6639991 C20.9826661,41.0853323 22.4853328,48.3426655 23.0559994,50.7919987 C24.3159994,56.2106653 26.794666,58.4693319 29.7079993,58.8759985 C33.4426658,59.3973318 36.7053324,56.1319986 38.491999,47.2813322 C38.663999,46.4253322 39.099999,44.6506656 39.383999,42.2359989 C39.7293323,39.3066657 38.2893324,36.3066658 34.6613325,35.3919991 M47.4093321,84.3026646 C40.1706657,97.6399976 31.7533325,94.8759976 27.4399993,93.4479977 C21.7879995,91.5786644 16.7719996,88.6759978 11.5226664,67.8559983 C6.00533318,45.9719989 0,0 0,0 L15.145333,3.49733325 L16.6999996,12.213333 C17.4519996,16.4226663 20.1319995,19.0973329 24.2159994,20.2986662 C24.2159994,20.2986662 35.9506658,23.3439994 39.955999,23.7999994 C41.6493323,23.9919994 43.6373322,22.6573328 44.2146656,20.0066662 L46.2613322,10.6293331 L66.886665,15.3906663 C66.886665,15.3906663 56.6266653,67.322665 47.4093321,84.3026646" id="path48" fill="#F15A22" fill-rule="nonzero"></path>
                        </g>
                        <g id="g50" transform="translate(270.1312, 116.4621)">
                            <path d="M22.2959994,22.0079994 C21.8013328,22.0053328 18.1373329,22.1306661 17.7453329,24.9253327 C17.5186662,26.5439993 18.3293329,28.010666 20.2506662,29.2599993 C21.9199995,30.2613326 24.4666661,31.3026659 27.890666,32.3026659 L44.0493322,36.5546658 L44.0493322,50.6013321 C44.0493322,50.6013321 25.6559994,46.1746655 20,47.0159988 C18.2813329,47.2719988 17.1599996,48.1839988 16.9093329,49.7679988 C16.7013329,51.393332 17.4946662,52.8519987 19.4146662,54.1026653 C24.5879994,57.4719986 47.8066655,62.4799984 47.8066655,62.4799984 L47.8066655,97.4506642 L0,86.4133312 L0,0 L48.8079988,11.2693331 L48.8079988,26.6759993 C35.7813324,23.7173327 26.9759993,22.0333328 22.2959994,22.0079994" id="path52" fill="#F15A22" fill-rule="nonzero"></path>
                        </g>
                        <g id="g54" transform="translate(180.3653, 65.5284)">
                            <path d="M52.565332,145.04933 C53.0239987,127.834663 52.8399987,114.94933 50.4773321,106.494664 C49.0426654,101.358664 45.8853322,97.4493309 41.667999,94.4906643 C37.3733324,91.4759977 33.0666658,90.1559977 28.8506659,90.0719977 C23.7079994,89.9706644 19.9919995,91.9719977 19.4973328,97.3666642 C18.7466662,105.577331 18.4119995,117.055997 18.6626662,131.434663 L0,127.126663 L0,0 L25.634666,5.91866652 C25.1759994,22.1333328 25.7293327,34.1599991 27.722666,41.5973323 C29.0813326,46.6666655 32.8013325,50.9559987 36.5319991,53.477332 C40.8933323,56.4213319 45.1253322,57.9506652 49.3506654,58.0199985 C54.485332,58.1026652 58.2186652,55.7226653 58.7026652,50.6013321 C59.4119985,43.0986656 59.7466652,32.2746659 59.5373318,18.4773329 L78.6186647,22.8826661 L78.6186647,151.063996 L52.565332,145.04933 Z" id="path56" fill="#F15A22" fill-rule="nonzero"></path>
                        </g>
                        <g id="g58" transform="translate(469.2807, 295.2247)">
                            <path d="M88.6439978,17.2679996 L88.6439978,127.959997 L73.5119982,124.466664 C65.486665,97.9653309 60.9439985,85.0079979 56.9879986,74.0839981 C50.2439987,55.4973319 43.2493323,62.7973318 39.9893323,67.9813316 C36.1986658,74.0559981 31.0439992,85.8733312 22.0986661,107.525331 L0,102.423997 L0,0 L18.3239995,4.22933323 C18.1853329,20.8106661 18.4759995,30.4733326 19.3679995,34.8479991 C20.1759995,38.7773324 22.5439994,39.3346657 24.9413327,35.4333324 C26.9199993,32.2279992 30.0413326,25.2893327 36.2546658,11.0213331 L48.5439988,13.8586663 C55.3159986,32.0559992 58.9666652,41.2293323 61.5573318,45.7159989 C63.6479984,49.3666654 67.6319983,51.929332 68.8306649,45.1866655 C69.7506649,40.0866657 69.6666649,29.8226659 69.6386649,12.8799997 L88.6439978,17.2679996 Z" id="path60" fill="#FAA61A" fill-rule="nonzero"></path>
                        </g>
                        <g id="g62" transform="translate(401.5283, 263.9204)">
                            <path d="M36.5279991,108.439997 L36.5279991,76.5453314 C35.4706658,66.2559983 17.2599996,61.8999985 15.9693329,72.7053315 C15.5319996,77.5173314 15.301333,84.1639979 15.301333,98.3533309 L0,94.821331 L0,0 L20.9799995,4.84266655 L20.9799995,27.5399993 C22.2559994,43.9546656 41.2786656,44.8653322 43.0279989,33.2186658 C43.6173322,29.5466659 43.5626656,23.7466661 43.5626656,11.7719997 L58.8626652,15.3039996 L58.8626652,113.595997 L36.5279991,108.439997 Z" id="path64" fill="#FAA61A" fill-rule="nonzero"></path>
                        </g>
                        <g id="g66" transform="translate(333.7128, 261.6217)">
                            <path d="M0,97.2346642 L0,58.1573319 L14.117333,61.4173318 C19.7426662,62.7159984 21.7186661,61.5213318 21.6773328,50.2186654 L21.6773328,0 L38.403999,3.86133324 L38.403999,50.3333321 C38.519999,70.2826649 40.859999,74.4119981 50.7813321,76.7026647 L59.6399985,78.747998 L59.6399985,111.003997 L0,97.2346642 Z" id="path68" fill="#FAA61A" fill-rule="nonzero"></path>
                        </g>
                        <g id="g70" transform="translate(261.8468, 228.3576)">
                            <path d="M63.6066653,113.906664 L45.7679989,109.787997 C45.7679989,109.787997 45.3626655,91.8119977 44.6706655,78.4146647 C43.6373322,59.4106652 23.3159994,53.4986653 22.1893328,72.8319982 C21.6759995,82.6866646 21.5119995,102.042664 21.5119995,102.042664 L0,97.0773309 L0,87.9346645 C0,52.333332 4.41199989,39.775999 25.5959994,42.5746656 C30.6106659,43.2359989 34.4159991,44.5226656 38.643999,47.5706655 C38.9186657,47.7439988 39.187999,47.7173321 39.4066657,47.5706655 C39.859999,47.2439988 40.3453323,46.3279988 39.5973323,44.0039989 C35.5639991,31.4853325 1.1933333,28.2199993 1.1933333,28.2199993 L1.18399997,0 C20.9239995,2.90533326 42.4719989,7.07066649 53.6839987,25.8399994 C57.9186652,32.8226658 63.6079984,46.9479988 63.6066653,113.906664" id="path72" fill="#FAA61A" fill-rule="nonzero"></path>
                        </g>
                        <g id="g74" transform="translate(195.9856, 224.0916)">
                            <path d="M34.7146658,103.058664 L34.7146658,72.7466648 C33.7106658,62.9679984 16.4026663,58.8279985 15.1759996,69.0973316 C14.7599996,73.6706648 14.541333,79.987998 14.541333,93.473331 L0,90.1159977 L0,0 L19.9386662,4.60266655 L19.9386662,26.1733327 C21.1506661,41.7733323 39.2293324,42.6386656 40.891999,31.5706659 C41.451999,28.0813326 41.399999,22.5679994 41.399999,11.1879997 L55.9413319,14.5439996 L55.9413319,107.958664 L34.7146658,103.058664 Z" id="path76" fill="#FAA61A" fill-rule="nonzero"></path>
                        </g>
                        <g id="g78" transform="translate(100.2307, 211.3536)">
                            <path d="M32.5213325,49.0813321 C23.3906661,46.7533322 18.0053329,51.6439987 18.0053329,63.9173317 C18.0053329,73.7066648 18.1906662,83.8146646 36.1133324,83.8146646 C48.8746654,83.8146646 54.197332,77.3533314 54.2093458,70.0639982 C54.221332,63.2639984 46.4439988,52.6306654 32.5213325,49.0813321 M86.1026645,89.5186644 C86.1026645,112.061331 69.4946649,139.327997 0,122.60133 L0,0 L18.0973329,4.17733323 L18.0973329,26.0839993 C18.0973329,36.7786657 25.0559994,32.4826659 26.5933327,31.5173325 C29.1906659,29.8839993 34.6159991,25.4493327 47.5039988,10.9666664 L78.247998,18.0639995 L54.2906653,42.5933323 C54.2906653,42.5933323 86.1026645,55.4039986 86.1026645,89.5186644" id="path80" fill="#FAA61A" fill-rule="nonzero"></path>
                        </g>
                    </g>
                </g>
            </g>
            <g id="Group" transform="translate(533, 295)" fill-rule="nonzero">
                <path d="M216.0854,122.91333 C216.0854,129.546663 213.304067,135.726663 208.4534,139.870663 C203.5614,144.04933 196.930734,145.83733 190.288067,144.787996 C181.466734,143.38933 173.993401,137.299997 170.362734,129.419997 C169.485401,130.546663 168.494734,131.587997 167.397401,132.523997 C162.505401,136.703997 155.872068,138.495997 149.233401,137.442663 C142.770735,136.418663 137.033402,132.87733 132.998735,127.959997 C130.246735,129.91733 126.996069,131.211997 123.429402,131.731997 C109.325402,133.78933 98.2427361,126.37733 94.5120695,112.393331 L93.6134029,109.025331 C89.6760696,118.50133 80.4680698,124.194664 69.9707368,123.59333 C59.3694037,122.974664 50.8080706,116.06133 48.165404,105.981331 L46.757404,100.617331 C44.3294041,106.569331 39.7907375,111.203997 33.8947377,113.72133 C27.8347378,116.30933 20.9560713,116.31333 15.0227382,113.730664 C2.68807179,108.362664 -3.0692614,95.1066643 1.63207182,82.8946646 L27.4374045,15.9066663 C32.0027377,4.0519999 41.6534042,0 49.8600706,0 C51.1707372,0 52.4467372,0.103999997 53.6574039,0.295999993 C68.8507368,2.7026666 73.41607,13.941333 75.5294033,22.1866661 L75.7454033,23.0319994 L75.7494033,23.0239994 C80.6227365,10.5106664 91.6454029,6.30933318 100.385403,7.69733314 C111.649402,9.47999976 118.928069,16.3999996 122.018735,28.2653326 L129.077402,55.3946653 L129.077402,36.2279991 C129.077402,30.1493326 131.636069,24.4773327 136.096068,20.6666662 C140.593402,16.8279996 146.662735,15.1799996 152.749401,16.1413329 C162.261401,17.6493329 170.038734,25.1893327 172.264068,34.3173325 C173.446734,31.9173325 175.097401,29.7666659 177.152067,28.0119993 C181.649401,24.1746661 187.718734,22.5239994 193.8054,23.4866661 C205.106733,25.278666 213.960067,35.5866658 213.960067,46.9546655 L213.960067,94.7519976 C213.960067,99.1266642 212.634733,103.290664 210.2294,106.701331 C213.8814,111.253331 216.0854,116.951997 216.0854,122.91333" id="path84" fill="#000000" transform="translate(108.0427, 72.541) scale(1, -1) translate(-108.0427, -72.541)"></path>
                <path d="M191.626651,133.984927 C184.555984,132.86626 178.825318,126.22626 178.825318,119.15426 L178.825318,119.15426 C178.825318,112.083594 184.555984,107.259594 191.626651,108.379594 L191.626651,108.379594 C198.697317,109.499594 204.429317,116.139594 204.429317,123.21026 L204.429317,123.21026 C204.429317,129.59426 199.757317,134.14626 193.645317,134.14626 L193.645317,134.14626 C192.987984,134.14626 192.313317,134.09426 191.626651,133.984927 M150.571985,126.639593 C143.499985,125.519593 137.769319,118.879594 137.769319,111.808927 L137.769319,111.808927 C137.769319,104.738261 143.499985,99.915594 150.571985,101.034261 L150.571985,101.034261 C157.642651,102.154261 163.373318,108.79426 163.373318,115.864927 L163.373318,115.864927 C163.373318,122.248927 158.701318,126.80226 152.590652,126.800927 L152.590652,126.800927 C151.933318,126.800927 151.258652,126.748927 150.571985,126.639593 M104.950653,109.792927 L95.2213197,73.3235947 L82.92132,104.750261 C78.5226534,115.984927 61.6773205,115.088927 58.6159873,103.426261 L58.6159873,103.426261 L48.1493209,63.5515949 L36.1079878,96.2182608 C33.3959879,103.575594 25.3106548,106.431594 19.0879882,103.723594 L19.0879882,103.723594 C11.9493218,100.618261 9.22798849,93.6502609 11.7013218,87.2315943 L11.7013218,87.2315943 L37.5053211,20.243596 C40.7639877,11.7835962 47.5733209,11.0742629 51.4813208,11.6929296 L51.4813208,11.6929296 C59.0959872,12.8995962 62.1973205,17.3595961 64.2253205,25.2742626 L64.2253205,25.2742626 L73.1146536,59.967595 L85.8026532,27.3982625 C88.4239865,20.6662627 93.854653,18.4035961 98.2093196,19.0942627 L98.2093196,19.0942627 C106.594653,20.4222627 109.231986,25.6595959 110.722653,31.3929291 L110.722653,31.3929291 L129.809319,104.750261 C131.618652,111.704927 129.531985,119.72226 121.390652,120.908927 L121.390652,120.908927 C120.341319,121.06226 119.353319,121.13426 118.418652,121.13426 L118.418652,121.13426 C110.517319,121.13426 106.587986,115.927594 104.950653,109.792927 M191.627984,104.032927 C185.731984,103.099594 180.950651,97.5635941 180.950651,91.6675942 L180.950651,91.6675942 L180.950651,43.8702621 C180.950651,37.9729289 185.731984,33.9515957 191.627984,34.884929 L191.627984,34.884929 C197.52265,35.8182623 202.303984,41.3555955 202.303984,47.2529287 L202.303984,47.2529287 L202.303984,95.0489275 C202.303984,100.372927 198.407984,104.167594 193.311984,104.167594 L193.311984,104.167594 C192.763984,104.167594 192.201317,104.123594 191.627984,104.032927 M150.571985,96.6875941 C144.675985,95.7542608 139.895985,90.2182609 139.895985,84.3209278 L139.895985,84.3209278 L139.895985,36.5249289 C139.895985,30.6275958 144.675985,26.6049292 150.571985,27.5395958 L150.571985,27.5395958 C156.467985,28.4729292 161.247985,34.0102623 161.247985,39.9062622 L161.247985,39.9062622 L161.247985,87.7035943 C161.247985,93.0262609 157.350651,96.8222608 152.254652,96.8222608 L152.254652,96.8222608 C151.706652,96.8222608 151.145318,96.7782608 150.571985,96.6875941" id="path58" fill="url(#linearGradient-3)" transform="translate(107.6183, 72.8351) scale(-1, 1) rotate(-180) translate(-107.6183, -72.8351)"></path>
                <path d="M18.1466549,129.427993 C16.8373216,128.941326 16.170655,127.485326 16.6573216,126.175993 L16.6573216,126.175993 C41.717321,58.8639945 44.5999876,57.4719945 45.6839876,56.9479945 L45.6839876,56.9479945 C46.0399876,56.7773279 46.4133209,56.6946612 46.7813209,56.6946612 L46.7813209,56.6946612 C47.7213209,56.6946612 48.6253208,57.2226612 49.0599875,58.1253278 L49.0599875,58.1253278 C49.5879875,59.2213278 49.2573208,60.5106611 48.3333209,61.2239944 L48.3333209,61.2239944 C45.3853209,65.038661 30.3026546,104.02666 21.3986549,127.941326 L21.3986549,127.941326 C21.0186549,128.959993 20.0533216,129.586659 19.0279882,129.586659 L19.0279882,129.586659 C18.7346549,129.586659 18.4373216,129.535993 18.1466549,129.427993" id="path100" fill="url(#linearGradient-4)" transform="translate(32.905, 93.1407) scale(-1, 1) rotate(-180) translate(-32.905, -93.1407)"></path>
                <path d="M76.8626535,121.975993 C75.5453202,121.511993 74.8546535,120.069326 75.3173202,118.751993 L75.3173202,118.751993 C89.0839865,79.667994 92.0893198,78.215994 93.0733197,77.739994 L93.0733197,77.739994 C93.4306531,77.5693273 93.8039864,77.487994 94.1719864,77.487994 L94.1719864,77.487994 C95.1119863,77.487994 96.014653,78.0146607 96.4493196,78.9186606 L96.4493196,78.9186606 C97.0053196,80.0666606 96.614653,81.4266606 95.582653,82.1173272 L95.582653,82.1173272 C93.4813197,84.5226605 86.0973199,103.371993 80.0893201,120.43066 L80.0893201,120.43066 C79.7226534,121.47066 78.7479868,122.119993 77.7039868,122.119993 L77.7039868,122.119993 C77.4253201,122.119993 77.1413201,122.073326 76.8626535,121.975993" id="path122" fill="url(#linearGradient-5)" transform="translate(85.9381, 99.804) scale(-1, 1) rotate(-180) translate(-85.9381, -99.804)"></path>
                <path d="M54.1673207,43.8663405 C53.9499874,43.8663405 53.7299874,43.8943405 53.5113207,43.9543405 C52.1606541,44.3156738 51.3619874,45.7010071 51.7219874,47.0503404 L61.6339872,84.0423395 C61.9966538,85.3916728 63.3859871,86.1903395 64.7313204,85.8303395 C66.0806537,85.4690061 66.8806537,84.0823395 66.5206537,82.7343396 L56.608654,45.7423405 C56.304654,44.6116738 55.2819873,43.8663405 54.1673207,43.8663405" id="path134" fill="#FFFFFF" transform="translate(59.1213, 64.8915) scale(-1, 1) rotate(-180) translate(-59.1213, -64.8915)"></path>
                <path d="M101.09892,34.7240574 C100.881586,34.7240574 100.661586,34.7520574 100.44292,34.8120574 C99.0922529,35.1733907 98.2935863,36.558724 98.6535863,37.9080573 L108.941586,76.2973897 C109.302919,77.646723 110.694919,78.4453896 112.038919,78.0840563 C113.388253,77.7240574 114.186919,76.3373897 113.826919,74.9880564 L103.540253,36.6000573 C103.236253,35.4693907 102.213586,34.7240574 101.09892,34.7240574" id="path138" fill="#FFFFFF" transform="translate(106.2403, 56.4475) scale(-1, 1) rotate(-180) translate(-106.2403, -56.4475)"></path>
                <path d="M151.252652,37.362395 C148.340652,37.362395 145.741985,35.4677284 143.983318,33.7090618 C141.264652,30.9890618 141.148652,26.1423953 141.308652,24.5023953 C141.476652,22.7677287 142.587318,21.9503954 143.983318,21.9503954 C145.379318,21.9503954 146.496652,22.6717287 146.496652,24.9503954 C146.496652,26.0637286 146.420652,28.8183952 148.056652,30.5277285 C148.793985,31.2997285 149.935318,32.3050618 151.252652,32.3050618 C152.648652,32.3050618 153.780652,33.4383951 153.780652,34.8343951 C153.780652,36.230395 152.648652,37.362395 151.252652,37.362395" id="path142" fill="#FFFFFF" transform="translate(147.5215, 29.6564) scale(-1, 1) rotate(-180) translate(-147.5215, -29.6564)"></path>
                <path d="M142.602652,112.31466 L142.602652,68.1653276 C142.602652,63.4693277 145.506652,61.9893277 145.838652,61.8359944 L145.838652,61.8359944 C146.182652,61.6773277 146.542652,61.6013277 146.897318,61.6013277 L146.897318,61.6013277 C147.853318,61.6013277 148.767985,62.1453277 149.193318,63.0693277 L149.193318,63.0693277 C149.753318,64.2733277 149.281318,65.6933276 148.142652,66.3333276 L148.142652,66.3333276 C148.054652,66.4213276 147.659985,66.8839943 147.659985,68.1653276 L147.659985,68.1653276 L147.659985,112.31466 C147.659985,113.709326 146.526652,114.84266 145.130652,114.84266 L145.130652,114.84266 C143.735985,114.84266 142.602652,113.709326 142.602652,112.31466" id="path164" fill="url(#linearGradient-6)" transform="translate(146.0159, 88.222) scale(-1, 1) rotate(-180) translate(-146.0159, -88.222)"></path>
                <path d="M183.658651,104.967993 L183.658651,60.8199944 C183.658651,56.1226612 186.562651,54.6439946 186.893317,54.4893279 L186.893317,54.4893279 C187.237317,54.3306613 187.597317,54.2559946 187.953317,54.2559946 L187.953317,54.2559946 C188.907984,54.2559946 189.823984,54.7986612 190.249317,55.7226612 L190.249317,55.7226612 C190.809317,56.9279945 190.337317,58.3466612 189.197317,58.9853278 L189.197317,58.9853278 C189.109317,59.0746611 188.714651,59.5359945 188.714651,60.8199944 L188.714651,60.8199944 L188.714651,104.967993 C188.714651,106.36266 187.582651,107.495993 186.186651,107.495993 L186.186651,107.495993 C184.789317,107.495993 183.658651,106.36266 183.658651,104.967993" id="path198" fill="url(#linearGradient-7)" transform="translate(187.0719, 80.876) scale(-1, 1) rotate(-180) translate(-187.0719, -80.876)"></path>
            </g>
        </g>
    </g>
</svg>