<?xml version="1.0" encoding="UTF-8" standalone="no"?>
<!-- Created with Inkscape (http://www.inkscape.org/) -->

<svg
   version="1.1"
   id="svg1"
   width="666.66669"
   height="433.69199"
   viewBox="0 0 666.66669 433.69199"
   sodipodi:docname="Rhythm Abomination.ai"
   xmlns:inkscape="http://www.inkscape.org/namespaces/inkscape"
   xmlns:sodipodi="http://sodipodi.sourceforge.net/DTD/sodipodi-0.dtd"
   xmlns="http://www.w3.org/2000/svg"
   xmlns:svg="http://www.w3.org/2000/svg">
  <defs
     id="defs1">
    <clipPath
       clipPathUnits="userSpaceOnUse"
       id="clipPath2">
      <path
         d="M 0,325.269 H 500 V 0 H 0 Z"
         transform="translate(-479.25541,-140.87001)"
         id="path2" />
    </clipPath>
    <clipPath
       clipPathUnits="userSpaceOnUse"
       id="clipPath4">
      <path
         d="M 0,325.269 H 500 V 0 H 0 Z"
         transform="translate(-469.66261,-140.8822)"
         id="path4" />
    </clipPath>
    <clipPath
       clipPathUnits="userSpaceOnUse"
       id="clipPath6">
      <path
         d="M 0,325.269 H 500 V 0 H 0 Z"
         transform="translate(-459.06591,-141.02091)"
         id="path6" />
    </clipPath>
    <clipPath
       clipPathUnits="userSpaceOnUse"
       id="clipPath8">
      <path
         d="M 0,325.269 H 500 V 0 H 0 Z"
         transform="translate(-493.79351,-38.693303)"
         id="path8" />
    </clipPath>
    <clipPath
       clipPathUnits="userSpaceOnUse"
       id="clipPath10">
      <path
         d="M 0,325.269 H 500 V 0 H 0 Z"
         transform="translate(-428.90291,-97.8607)"
         id="path10" />
    </clipPath>
    <clipPath
       clipPathUnits="userSpaceOnUse"
       id="clipPath12">
      <path
         d="M 0,325.269 H 500 V 0 H 0 Z"
         transform="translate(-389.13241,-132.6234)"
         id="path12" />
    </clipPath>
    <clipPath
       clipPathUnits="userSpaceOnUse"
       id="clipPath14">
      <path
         d="M 0,325.269 H 500 V 0 H 0 Z"
         transform="translate(-303.84331,-78.620004)"
         id="path14" />
    </clipPath>
    <clipPath
       clipPathUnits="userSpaceOnUse"
       id="clipPath16">
      <path
         d="M 0,325.269 H 500 V 0 H 0 Z"
         transform="translate(-258.29061,-108.10101)"
         id="path16" />
    </clipPath>
    <clipPath
       clipPathUnits="userSpaceOnUse"
       id="clipPath18">
      <path
         d="M 0,325.269 H 500 V 0 H 0 Z"
         transform="translate(-456.24371,-189.2587)"
         id="path18" />
    </clipPath>
    <clipPath
       clipPathUnits="userSpaceOnUse"
       id="clipPath20">
      <path
         d="M 0,325.269 H 500 V 0 H 0 Z"
         transform="translate(-437.01811,-165.6337)"
         id="path20" />
    </clipPath>
    <clipPath
       clipPathUnits="userSpaceOnUse"
       id="clipPath22">
      <path
         d="M 0,325.269 H 500 V 0 H 0 Z"
         transform="translate(-412.15091,-163.5507)"
         id="path22" />
    </clipPath>
    <clipPath
       clipPathUnits="userSpaceOnUse"
       id="clipPath24">
      <path
         d="M 0,325.269 H 500 V 0 H 0 Z"
         transform="translate(-393.67831,-158.45301)"
         id="path24" />
    </clipPath>
    <clipPath
       clipPathUnits="userSpaceOnUse"
       id="clipPath26">
      <path
         d="M 0,325.269 H 500 V 0 H 0 Z"
         transform="translate(-371.30911,-153.29091)"
         id="path26" />
    </clipPath>
    <clipPath
       clipPathUnits="userSpaceOnUse"
       id="clipPath28">
      <path
         d="M 0,325.269 H 500 V 0 H 0 Z"
         transform="translate(-342.44391,-155.87931)"
         id="path28" />
    </clipPath>
    <clipPath
       clipPathUnits="userSpaceOnUse"
       id="clipPath30">
      <path
         d="M 0,325.269 H 500 V 0 H 0 Z"
         transform="translate(-321.16951,-137.81001)"
         id="path30" />
    </clipPath>
    <clipPath
       clipPathUnits="userSpaceOnUse"
       id="clipPath32">
      <path
         d="M 0,325.269 H 500 V 0 H 0 Z"
         transform="translate(-293.56501,-144.2455)"
         id="path32" />
    </clipPath>
    <clipPath
       clipPathUnits="userSpaceOnUse"
       id="clipPath34">
      <path
         d="M 0,325.269 H 500 V 0 H 0 Z"
         transform="translate(-441.93701,-257.15171)"
         id="path34" />
    </clipPath>
    <clipPath
       clipPathUnits="userSpaceOnUse"
       id="clipPath36">
      <path
         d="M 0,325.269 H 500 V 0 H 0 Z"
         transform="translate(-400.34431,-235.78501)"
         id="path36" />
    </clipPath>
    <clipPath
       clipPathUnits="userSpaceOnUse"
       id="clipPath38">
      <path
         d="M 0,325.269 H 500 V 0 H 0 Z"
         transform="translate(-358.75051,-232.68841)"
         id="path38" />
    </clipPath>
    <clipPath
       clipPathUnits="userSpaceOnUse"
       id="clipPath40">
      <path
         d="M 0,325.269 H 500 V 0 H 0 Z"
         transform="translate(-355.81301,-222.72061)"
         id="path40" />
    </clipPath>
    <clipPath
       clipPathUnits="userSpaceOnUse"
       id="clipPath42">
      <path
         d="M 0,325.269 H 500 V 0 H 0 Z"
         transform="translate(-319.25151,-223.34271)"
         id="path42" />
    </clipPath>
    <clipPath
       clipPathUnits="userSpaceOnUse"
       id="clipPath44">
      <path
         d="M 0,325.269 H 500 V 0 H 0 Z"
         transform="translate(-278.4253,-200.7919)"
         id="path44" />
    </clipPath>
    <clipPath
       clipPathUnits="userSpaceOnUse"
       id="clipPath46">
      <path
         d="M 0,325.269 H 500 V 0 H 0 Z"
         transform="translate(-247.28371,-163.7523)"
         id="path46" />
    </clipPath>
    <clipPath
       clipPathUnits="userSpaceOnUse"
       id="clipPath48">
      <path
         d="M 0,325.269 H 500 V 0 H 0 Z"
         transform="translate(-214.44781,-119.6767)"
         id="path48" />
    </clipPath>
    <clipPath
       clipPathUnits="userSpaceOnUse"
       id="clipPath50">
      <path
         d="M 0,325.269 H 500 V 0 H 0 Z"
         transform="translate(-193.37061,-145.3827)"
         id="path50" />
    </clipPath>
    <clipPath
       clipPathUnits="userSpaceOnUse"
       id="clipPath52">
      <path
         d="M 0,325.269 H 500 V 0 H 0 Z"
         transform="translate(-167.8111,-107.1708)"
         id="path52" />
    </clipPath>
    <clipPath
       clipPathUnits="userSpaceOnUse"
       id="clipPath54">
      <path
         d="M 0,325.269 H 500 V 0 H 0 Z"
         transform="translate(-140.6499,-100.2484)"
         id="path54" />
    </clipPath>
    <clipPath
       clipPathUnits="userSpaceOnUse"
       id="clipPath56">
      <path
         d="M 0,325.269 H 500 V 0 H 0 Z"
         transform="translate(-116.9976,-129.01161)"
         id="path56" />
    </clipPath>
    <clipPath
       clipPathUnits="userSpaceOnUse"
       id="clipPath58">
      <path
         d="M 0,325.269 H 500 V 0 H 0 Z"
         transform="translate(-246.53271,-169.6386)"
         id="path58" />
    </clipPath>
    <clipPath
       clipPathUnits="userSpaceOnUse"
       id="clipPath60">
      <path
         d="M 0,325.269 H 500 V 0 H 0 Z"
         transform="translate(-198.9097,-193.5565)"
         id="path60" />
    </clipPath>
    <clipPath
       clipPathUnits="userSpaceOnUse"
       id="clipPath62">
      <path
         d="M 0,325.269 H 500 V 0 H 0 Z"
         transform="translate(-157.1157,-188.1288)"
         id="path62" />
    </clipPath>
    <clipPath
       clipPathUnits="userSpaceOnUse"
       id="clipPath64">
      <path
         d="M 0,325.269 H 500 V 0 H 0 Z"
         transform="translate(-153.8218,-181.5121)"
         id="path64" />
    </clipPath>
    <clipPath
       clipPathUnits="userSpaceOnUse"
       id="clipPath66">
      <path
         d="M 0,325.269 H 500 V 0 H 0 Z"
         transform="translate(-116.2056,-175.5243)"
         id="path66" />
    </clipPath>
    <clipPath
       clipPathUnits="userSpaceOnUse"
       id="clipPath68">
      <path
         d="M 0,325.269 H 500 V 0 H 0 Z"
         transform="translate(-76.970199,-148.8778)"
         id="path68" />
    </clipPath>
    <clipPath
       clipPathUnits="userSpaceOnUse"
       id="clipPath70">
      <path
         d="M 0,325.269 H 500 V 0 H 0 Z"
         transform="translate(-297.87651,-263.15081)"
         id="path70" />
    </clipPath>
    <clipPath
       clipPathUnits="userSpaceOnUse"
       id="clipPath72">
      <path
         d="M 0,325.269 H 500 V 0 H 0 Z"
         transform="translate(-298.26711,-299.70351)"
         id="path72" />
    </clipPath>
    <clipPath
       clipPathUnits="userSpaceOnUse"
       id="clipPath74">
      <path
         d="M 0,325.269 H 500 V 0 H 0 Z"
         transform="translate(-283.03471,-294.09021)"
         id="path74" />
    </clipPath>
    <clipPath
       clipPathUnits="userSpaceOnUse"
       id="clipPath76">
      <path
         d="M 0,325.269 H 500 V 0 H 0 Z"
         transform="translate(-239.29351,-233.7904)"
         id="path76" />
    </clipPath>
    <clipPath
       clipPathUnits="userSpaceOnUse"
       id="clipPath78">
      <path
         d="M 0,325.269 H 500 V 0 H 0 Z"
         transform="translate(-247.57771,-267.46811)"
         id="path78" />
    </clipPath>
    <clipPath
       clipPathUnits="userSpaceOnUse"
       id="clipPath80">
      <path
         d="M 0,325.269 H 500 V 0 H 0 Z"
         transform="translate(-226.93801,-260.49551)"
         id="path80" />
    </clipPath>
    <clipPath
       clipPathUnits="userSpaceOnUse"
       id="clipPath82">
      <path
         d="M 0,325.269 H 500 V 0 H 0 Z"
         transform="translate(-197.92731,-236.2426)"
         id="path82" />
    </clipPath>
    <clipPath
       clipPathUnits="userSpaceOnUse"
       id="clipPath84">
      <path
         d="M 0,325.269 H 500 V 0 H 0 Z"
         transform="translate(-141.8247,-237.26361)"
         id="path84" />
    </clipPath>
    <clipPath
       clipPathUnits="userSpaceOnUse"
       id="clipPath86">
      <path
         d="M 0,325.269 H 500 V 0 H 0 Z"
         transform="translate(-61.724602,-239.2069)"
         id="path86" />
    </clipPath>
  </defs>
  <sodipodi:namedview
     id="namedview1"
     pagecolor="#ffffff"
     bordercolor="#000000"
     borderopacity="0.25"
     inkscape:showpageshadow="2"
     inkscape:pageopacity="0.0"
     inkscape:pagecheckerboard="0"
     inkscape:deskcolor="#d1d1d1">
    <inkscape:page
       x="0"
       y="0"
       inkscape:label="1"
       id="page1"
       width="666.66669"
       height="433.69199"
       margin="0"
       bleed="0" />
  </sodipodi:namedview>
  <g
     id="layer-MC0"
     inkscape:groupmode="layer"
     inkscape:label="Layer 1">
    <path
       id="path1"
       d="m 0,0 c 10.992,10.184 17.534,24.64 17.534,40.203 -0.012,15.855 -6.749,30.618 -18.368,40.932 0.833,3.736 1.254,7.57 1.254,11.468 0,28.892 -23.506,52.397 -52.398,52.397 -17.539,0 -33.653,-8.891 -43.253,-22.853 -8.242,5.187 -17.848,8.012 -27.836,8.012 -3.799,0 -7.546,-0.408 -11.187,-1.201 0.022,4.188 -0.435,8.397 -1.383,12.552 -6.773,29.664 -36.481,48.279 -66.215,41.492 -17.191,-3.923 -31.078,-15.44 -38.114,-31.041 -5.535,0.42 -11.143,0.013 -16.59,-1.23 -5.218,-1.19 -10.25,-3.14 -14.897,-5.755 -13.069,10.687 -30.409,14.892 -47.315,11.034 -17.161,-3.916 -31.043,-15.416 -38.092,-30.99 -0.091,0.006 -0.183,0.013 -0.273,0.019 -11.178,0.776 -22.085,-1.796 -31.577,-7.318 -13.086,10.805 -30.482,15.062 -47.504,11.178 -29.739,-6.794 -48.426,-36.452 -41.655,-66.111 3.295,-14.442 12.155,-26.725 24.46,-34.427 -1.209,-4.684 -1.818,-9.516 -1.818,-14.454 0,-22.207 12.89,-42.305 32.333,-51.887 -0.108,-1.393 -0.162,-2.791 -0.162,-4.192 0,-29.6 24.082,-53.683 53.684,-53.683 17.926,0 34.554,9.109 44.416,23.555 6.067,-2.297 12.53,-3.483 19.132,-3.483 7.06,0 13.97,1.384 20.371,3.988 4.893,-30.02 31.007,-53.005 62.389,-53.005 4.864,0 9.665,0.549 14.347,1.636 11.731,-11.334 27.35,-17.706 43.893,-17.706 24.706,0 46.968,14.533 57.243,36.37 10.553,-1.11 21.274,0.479 30.964,4.517 10.136,-6.498 22.018,-10.015 34.148,-10.015 34.857,0 63.213,28.357 63.213,63.213 C 20.744,-28.8 12.961,-11.829 0,0"
       style="fill:#00b3f0;fill-opacity:1;fill-rule:nonzero;stroke:none"
       transform="matrix(1.3333333,0,0,-1.3333333,639.0072,245.86533)"
       clip-path="url(#clipPath2)" />
    <path
       id="path3"
       d="M 0,0 C 13.063,8.985 21.109,23.907 21.109,40.186 21.098,55.529 14.01,69.724 1.957,78.934 c 1.354,4.396 2.038,8.972 2.038,13.657 0,25.574 -20.807,46.379 -46.38,46.379 -17.659,0 -33.686,-10.182 -41.453,-25.569 -8.257,6.892 -18.689,10.728 -29.637,10.728 -6.258,0 -12.356,-1.25 -17.989,-3.627 1.17,6.456 1.04,13.133 -0.447,19.656 -6.033,26.428 -32.501,43.011 -59.009,36.966 -16.769,-3.828 -30.012,-15.761 -35.582,-31.697 -6.317,1.048 -12.839,0.859 -19.124,-0.575 -6.038,-1.377 -11.792,-3.895 -16.884,-7.366 -11.92,11.577 -28.853,16.404 -45.326,12.645 -16.737,-3.82 -29.975,-15.731 -35.564,-31.637 -1.507,0.246 -3.028,0.422 -4.555,0.529 -11.422,0.788 -22.527,-2.336 -31.778,-8.855 -11.932,11.737 -28.943,16.643 -45.548,12.853 -26.505,-6.056 -43.16,-32.481 -37.128,-58.907 3.278,-14.366 12.741,-26.336 25.76,-32.903 -1.972,-5.535 -2.968,-11.338 -2.968,-17.316 0,-21.332 13.272,-40.489 32.824,-48.192 -0.434,-2.6 -0.653,-5.237 -0.653,-7.887 0,-26.282 21.383,-47.666 47.667,-47.666 17.606,0 33.8,9.895 42.017,25.155 6.648,-3.34 13.987,-5.083 21.531,-5.083 9.134,0 17.984,2.605 25.57,7.373 0.432,-31.167 25.922,-56.389 57.189,-56.389 5.526,0 10.96,0.781 16.204,2.327 10.827,-11.737 25.949,-18.398 42.037,-18.398 23.852,0 45.187,14.972 53.515,36.967 11.996,-2.202 24.482,-0.473 35.294,4.772 9.714,-7.031 21.495,-10.867 33.546,-10.867 31.537,0 57.196,25.659 57.196,57.196 C 24.32,-28.099 15.019,-10.609 0,0"
       style="fill:#ffffff;fill-opacity:1;fill-rule:nonzero;stroke:none"
       transform="matrix(1.3333333,0,0,-1.3333333,626.2168,245.84907)"
       clip-path="url(#clipPath4)" />
    <path
       id="path5"
       d="M 0,0 C 15.551,6.638 26.452,22.067 26.452,40.043 26.44,55.496 18.384,69.065 6.257,76.792 c 1.992,4.829 3.08,10.11 3.08,15.66 0,22.714 -18.411,41.126 -41.125,41.126 -18.741,0 -34.549,-12.531 -39.512,-29.671 -7.531,9.059 -18.876,14.829 -31.578,14.829 -10.88,0 -20.766,-4.236 -28.11,-11.145 5.166,9.172 7.071,20.205 4.551,31.259 -5.398,23.646 -28.997,38.424 -52.716,33.013 -16.929,-3.864 -29.341,-16.97 -33.094,-32.756 -6.825,1.896 -14.212,2.172 -21.614,0.483 -7.12,-1.623 -13.443,-4.885 -18.658,-9.293 -10.277,12.209 -26.885,18.376 -43.551,14.573 -16.902,-3.857 -29.298,-16.928 -33.079,-32.675 -2.752,0.749 -5.616,1.242 -8.572,1.449 -12.132,0.837 -23.478,-3.334 -32.001,-10.739 -10.257,12.392 -26.994,18.689 -43.792,14.855 -23.718,-5.419 -38.575,-28.966 -33.176,-52.615 3.407,-14.934 14.082,-26.325 27.461,-31.333 -2.907,-6.073 -4.537,-12.874 -4.537,-20.056 0,-21.249 14.246,-39.169 33.707,-44.733 -1,-3.611 -1.537,-7.416 -1.537,-11.345 0,-23.425 18.99,-42.413 42.413,-42.413 18.121,0 33.585,11.365 39.659,27.357 6.823,-4.6 15.043,-7.285 23.89,-7.285 12.805,0 24.295,5.625 32.138,14.539 -0.855,-3.736 -1.32,-7.62 -1.32,-11.614 0,-28.681 23.259,-51.941 51.941,-51.941 6.283,0 12.31,1.117 17.883,3.156 9.53,-11.735 24.06,-19.227 40.357,-19.227 23.819,0 43.892,16.041 50.024,37.895 4.41,-1.208 9.047,-1.872 13.835,-1.872 9.258,0 17.959,2.416 25.495,6.676 8.971,-7.386 20.466,-11.826 33.002,-11.826 28.681,0 51.941,23.259 51.941,51.941 C 29.662,-26.23 17.538,-8.348 0,0"
       style="fill:#130c0e;fill-opacity:1;fill-rule:nonzero;stroke:none"
       transform="matrix(1.3333333,0,0,-1.3333333,612.08787,245.66413)"
       clip-path="url(#clipPath6)" />
    <path
       id="path7"
       d="m 0,0 v 5.975 l -1.503,-6.329 -1.628,-0.384 -1.467,5.629 v -5.976 l -1.539,-0.362 v 7.152 l 2.404,0.567 1.45,-5.332 0.017,0.004 1.413,6.007 2.374,0.56 V 0.358 Z m -11.109,-2.62 v 5.885 l -2.475,-0.584 v 1.264 l 6.547,1.543 V 4.225 L -9.423,3.662 v -5.885 z"
       style="fill:#130c0e;fill-opacity:1;fill-rule:nonzero;stroke:none"
       transform="matrix(1.3333333,0,0,-1.3333333,658.39133,382.10093)"
       clip-path="url(#clipPath8)" />
    <path
       id="path9"
       d="m 0,0 c 0,0 -1.228,-10.459 -14.621,-23.969 l -6.857,5.693 c 6.863,5.558 14.772,18.257 14.772,29.574 v 0.319 c 0,1.36 -1.052,1.358 -2.362,1.103 l -1.324,-0.257 v 4.028 l 14.696,2.857 v -5.91 C 4.304,1.881 10.68,0.022 19.151,-0.061 L 14.938,-6.616 C 2.064,-5.46 0,0 0,0 M 41.157,16.176 V 8.816 L 32.79,7.189 V -6.633 L 21.613,-8.805 v 31.847 c 0,1.435 -1.177,1.42 -2.519,1.16 l -1.348,-0.263 v 4.25 L 32.79,31.114 V 14.55 Z M 11.6,-30.202 c -1.526,0.031 -4.638,0.092 -4.638,4.876 0,4.957 3.959,8.514 8.262,8.514 4.418,0.001 4.727,-2.992 4.727,-4.814 0,-4.466 -3.848,-8.664 -8.351,-8.576 m 11.176,19.716 c -5.187,1.169 -11.865,1.292 -19.438,-3.866 -4.981,-3.393 -7.492,-7.523 -7.492,-12.258 0,-1.706 0.375,-3.398 1.118,-5.027 2.281,-4.996 5.66,-5.265 10.255,-5.63 7.508,-0.596 12.022,1.391 16.523,4.44 5.03,3.412 7.598,7.485 7.598,12.244 0,4.249 -2.181,8.659 -8.564,10.097"
       style="fill:#faa61a;fill-opacity:1;fill-rule:nonzero;stroke:none"
       transform="matrix(1.3333333,0,0,-1.3333333,571.87053,303.21107)"
       clip-path="url(#clipPath10)" />
    <path
       id="path11"
       d="m 0,0 v -4.167 l 1.121,0.218 c 1.115,0.217 2.113,0.365 2.113,-1.07 v -53.064 l 11.268,2.19 V 2.819 Z m -13.199,-13.375 v -4.167 l 1.121,0.217 c 1.115,0.217 2.137,0.416 2.137,-1.018 v -12.143 l -9.451,-1.837 v -6.533 l 9.451,1.837 v -35.984 l 10.366,2.014 v 60.261 z m 1.466,-34.603 -4.833,-6.449 c -9.443,3.081 -11.994,7.778 -11.994,7.778 0,0 -3.575,-6.644 -11.07,-13.518 l -6.253,5.21 c 0,0 11.047,10.316 11.047,20.619 v 7.842 c 0,1.434 -1.171,1.397 -2.481,1.142 l -1.317,-0.256 v 4.531 l 14.47,2.813 v -14.427 c 0,-13.814 12.431,-15.285 12.431,-15.285"
       style="fill:#f15a22;fill-opacity:1;fill-rule:nonzero;stroke:none"
       transform="matrix(1.3333333,0,0,-1.3333333,518.8432,256.8608)"
       clip-path="url(#clipPath12)" />
    <path
       id="path13"
       d="M 0,0 V -6.662 L 35.675,0.272 V -6.22 L -5.67,-14.256 c -3.336,-0.649 -6.041,1.53 -6.041,4.867 v 7.735 c 0,1.338 -0.123,1.742 -3.253,1.133 l -0.593,-0.115 v 4.104 l 51.232,9.958 V 6.935 Z m 35.675,-9.399 v -6.493 l -59.991,-11.661 v 6.491 z M 22.565,-36.651 2.356,-40.58 v 8.465 l 20.209,3.928 z m 11.902,17.344 -47.894,-9.309 v -4.457 l 0.594,0.115 c 3.134,0.609 3.258,0.118 3.258,-1.35 v -9.328 c 0,-3.003 2.434,-4.964 5.437,-4.38 l 34.375,6.682 c 3.004,0.584 5.438,3.491 5.438,6.494 v 14.56 c 0,0.668 -0.541,1.103 -1.208,0.973"
       style="fill:#faa61a;fill-opacity:1;fill-rule:nonzero;stroke:none"
       transform="matrix(1.3333333,0,0,-1.3333333,405.1244,328.86533)"
       clip-path="url(#clipPath14)" />
    <path
       id="path15"
       d="m 0,0 v -4.501 l 1.314,0.256 c 1.309,0.254 2.507,0.487 2.507,-1.192 V -32.02 c -1.933,-1.087 -4.409,-1.989 -7.461,-2.582 l -18.079,-3.515 v 8.136 l 16.765,3.259 c 0.834,0.162 1.511,0.97 1.511,1.805 V -8.81 c 0,0.835 -0.677,1.379 -1.511,1.217 L -36.4,-13.706 v -6.956 l 21.447,4.169 v -5.47 l -22.443,-4.363 v -4.576 l 0.529,0.103 c 1.07,0.208 2.657,0.516 2.657,-1.039 v -10.829 c 0,-2.67 2.164,-4.414 4.833,-3.895 l 23.607,4.589 c 4.429,0.86 7.643,1.933 9.591,2.915 v -25.487 l 12.158,2.363 V 3.106 Z"
       style="fill:#f15a22;fill-opacity:1;fill-rule:nonzero;stroke:none"
       transform="matrix(1.3333333,0,0,-1.3333333,344.38747,289.55733)"
       clip-path="url(#clipPath16)" />
    <path
       id="path17"
       d="M 0,0 C 2.357,0.888 7.29,2.214 11.435,3.113 V 15.941 L -9.274,11.16 v -34.285 l 20.709,4.78 v 5.712 c -2.719,-0.712 -8.354,-1.772 -10.821,-2.189 -3.004,-0.504 -3.431,3.322 -0.11,4.418 1.908,0.625 5.405,1.458 8.135,2.225 V -3.78 C 6.15,-4.285 2.785,-4.868 0.132,-5.24 -3.157,-5.712 -3.728,-1.403 0,0"
       style="fill:#f15a22;fill-opacity:1;fill-rule:nonzero;stroke:none"
       transform="matrix(1.3333333,0,0,-1.3333333,608.32493,181.34707)"
       clip-path="url(#clipPath18)" />
    <path
       id="path19"
       d="m 0,0 c -0.121,1.139 -2.092,1.397 -5.161,2.133 -5.366,1.333 -8.688,4.494 -8.349,10.048 0.362,5.994 3.397,10.175 19.459,12.903 V 12.614 C 0.152,11.889 -3.047,10.805 -4.404,9.694 -5.852,8.52 -5.768,6.596 -3.679,5.898 -2.771,5.595 -0.087,4.699 1.535,4.155 4.647,3.118 6.17,1.527 6.487,-1.289 7.384,-9.231 -6.991,-11.314 -12.918,-12.184 v 7.057 C -5.817,-3.697 0.274,-2.443 0,0"
       style="fill:#f15a22;fill-opacity:1;fill-rule:nonzero;stroke:none"
       transform="matrix(1.3333333,0,0,-1.3333333,582.6908,212.84707)"
       clip-path="url(#clipPath20)" />
    <path
       id="path21"
       d="m 0,0 v 30.564 l 7.729,1.785 V 1.784 Z"
       style="fill:#f15a22;fill-opacity:1;fill-rule:nonzero;stroke:none"
       transform="matrix(1.3333333,0,0,-1.3333333,549.53453,215.6244)"
       clip-path="url(#clipPath22)" />
    <path
       id="path23"
       d="m 0,0 c -2.127,-0.492 -3.048,0.219 -3.048,2.708 v 7.849 c 0,1.809 -0.094,3.254 1.623,3.738 C 2.303,15.348 6.468,13.353 6.863,9.296 7.323,4.583 4.701,1.085 0,0 M -8.288,26.168 V -7.17 C 7.828,-4.813 14.844,1.414 14.668,13.791 14.515,24.524 3.859,30.422 -8.288,26.168"
       style="fill:#f15a22;fill-opacity:1;fill-rule:nonzero;stroke:none"
       transform="matrix(1.3333333,0,0,-1.3333333,524.9044,222.42133)"
       clip-path="url(#clipPath24)" />
    <path
       id="path25"
       d="m 0,0 -3.892,-0.898 c -0.978,-0.226 -1.535,0.383 -1.414,1.742 0.11,1.272 0.68,3.969 0.899,4.89 0.461,1.907 1.426,2.839 2.533,3.003 C -0.088,9.022 0.778,7.718 1.469,4.429 1.535,4.122 1.722,3.453 1.798,2.554 1.951,0.724 1.383,0.319 0,0 m 6.819,14.614 c -2.039,6.687 -3.689,8.337 -7.751,7.4 -3.58,-0.827 -5.615,-2.691 -7.323,-9.231 -1.678,-6.425 -3.532,-15.606 -5.022,-25.998 l 5.91,1.364 c 0.11,0.822 0.307,1.787 0.592,3.256 0.307,1.48 1.107,2.538 2.697,2.905 l 4.604,1.064 c 1.231,0.284 2.358,-0.691 2.752,-2.335 0.263,-1.097 0.603,-2.652 0.811,-3.693 l 7.828,1.807 C 10.963,-1.184 8.848,7.97 6.819,14.614"
       style="fill:#f15a22;fill-opacity:1;fill-rule:nonzero;stroke:none"
       transform="matrix(1.3333333,0,0,-1.3333333,495.0788,229.30413)"
       clip-path="url(#clipPath26)" />
    <path
       id="path27"
       d="m 0,0 c -2.008,-0.471 -3.126,0.647 -3.126,3.038 v 2.31 c 0,1.665 0.324,3.11 1.81,3.581 C 2.998,10.296 6.002,8.437 6.002,5.517 6.002,2.788 3.913,0.919 0,0 m 14.542,9.981 c 0,10.614 -10.386,13.696 -23.089,9.157 v -33.39 l 5.414,1.25 v 7.707 c 0,1.309 0.964,1.081 1.854,0.286 0.625,-0.559 4.383,-4.199 7.009,-6.818 l 8.264,1.908 c 0,0 -7.205,7.359 -8.036,8.088 4.84,1.809 8.584,6.524 8.584,11.812"
       style="fill:#f15a22;fill-opacity:1;fill-rule:nonzero;stroke:none"
       transform="matrix(1.3333333,0,0,-1.3333333,456.59187,225.85293)"
       clip-path="url(#clipPath28)" />
    <path
       id="path29"
       d="m 0,0 -3.892,-0.898 c -0.978,-0.227 -1.535,0.383 -1.414,1.742 0.11,1.272 0.68,3.968 0.899,4.889 0.461,1.908 1.426,2.84 2.532,3.004 C -0.088,9.022 0.778,7.718 1.469,4.429 1.535,4.122 1.722,3.453 1.798,2.554 1.951,0.724 1.383,0.319 0,0 m 6.819,14.613 c -2.039,6.688 -3.69,8.338 -7.751,7.401 -3.58,-0.827 -5.615,-2.691 -7.323,-9.231 -1.678,-6.425 -3.532,-15.606 -5.022,-25.998 l 5.91,1.364 c 0.109,0.822 0.306,1.787 0.592,3.256 0.307,1.48 1.107,2.538 2.697,2.905 l 4.604,1.063 c 1.231,0.284 2.357,-0.69 2.752,-2.334 0.263,-1.097 0.603,-2.652 0.811,-3.693 l 7.828,1.807 C 10.963,-1.184 8.847,7.97 6.819,14.613"
       style="fill:#f15a22;fill-opacity:1;fill-rule:nonzero;stroke:none"
       transform="matrix(1.3333333,0,0,-1.3333333,428.226,249.94533)"
       clip-path="url(#clipPath30)" />
    <path
       id="path31"
       d="m 0,0 c -2.434,-0.595 -3.837,0.044 -3.837,2.083 v 7.378 c 0,2.084 1.151,3.399 3.442,3.695 C 4.199,13.748 6.271,11.062 6.271,7.565 6.271,4.648 4.55,1.113 0,0 m -15.271,23.801 v -46.21 l 11.445,2.642 v 10.854 c 0,1.984 0.493,2.971 1.678,3.18 10.666,1.876 18.264,7.239 18.264,18.242 0,12.083 -12.98,18.583 -31.387,11.292"
       style="fill:#f15a22;fill-opacity:1;fill-rule:nonzero;stroke:none"
       transform="matrix(1.3333333,0,0,-1.3333333,391.42,241.36467)"
       clip-path="url(#clipPath32)" />
    <path
       id="path33"
       d="m 0,0 c -3.157,-10.425 -4.944,-15.523 -6.501,-19.821 -2.652,-7.312 -5.404,-4.44 -6.687,-2.401 -1.491,2.39 -3.519,7.038 -7.039,15.557 l -8.693,-2.007 v -40.923 l 7.214,1.665 c -0.055,6.523 0.055,10.952 0.405,12.674 0.319,1.545 1.25,1.764 2.193,0.23 0.778,-1.261 2.006,-3.991 4.451,-9.604 l 4.833,1.116 c 2.664,7.159 4.101,10.768 5.121,12.533 0.822,1.436 2.39,2.445 2.861,-0.208 0.363,-2.006 0.329,-7.449 0.319,-14.115 l 7.476,1.726 V 1.375 Z"
       style="fill:#faa61a;fill-opacity:1;fill-rule:nonzero;stroke:none"
       transform="matrix(1.3333333,0,0,-1.3333333,589.24933,90.823067)"
       clip-path="url(#clipPath34)" />
    <path
       id="path35"
       d="m 0,0 c -0.033,-5.591 -0.022,-10.689 -0.264,-12.553 -0.558,-4.45 -8.167,-6.457 -8.54,-2.357 -0.175,1.93 -0.329,4.479 -0.329,10.169 l -6.149,-1.42 v -37.493 l 7.838,1.809 c 0,5.953 0,8.539 0.098,10.579 0.275,5.371 8.343,6.588 9.045,1.918 0.318,-2.127 0.372,-3.146 0.372,-7.948 l 6.249,1.442 V 1.921 Z"
       style="fill:#faa61a;fill-opacity:1;fill-rule:nonzero;stroke:none"
       transform="matrix(1.3333333,0,0,-1.3333333,533.7924,119.312)"
       clip-path="url(#clipPath36)" />
    <path
       id="path37"
       d="m 0,0 v -15.092 l 4.374,1.01 c 2.653,0.613 3.75,0.267 3.75,-4.429 v -19.385 l 7.181,1.658 v 17.771 c 0,7.893 0.741,9.885 4.648,10.787 l 3.573,0.826 V 5.431 Z"
       style="fill:#faa61a;fill-opacity:1;fill-rule:nonzero;stroke:none"
       transform="matrix(1.3333333,0,0,-1.3333333,478.334,123.4408)"
       clip-path="url(#clipPath38)" />
    <path
       id="path39"
       d="m 0,0 -6.71,-1.549 c 0,0 0.099,-6.907 -0.164,-11.993 -0.384,-7.444 -7.883,-9.044 -8.485,-1.962 -0.307,3.716 -0.45,11.124 -0.45,11.124 l -8.342,-1.927 v -6.04 c 0,-14.416 9.373,-16.193 14.273,-12.081 0.296,0.252 0.592,0.406 0.833,0.296 0.274,-0.121 0.263,-0.417 0.153,-0.965 -0.296,-1.436 -2.422,-4.276 -6.719,-5.427 -3.279,-0.877 -6.491,-1.43 -8.091,-1.682 V -42.21 c 7.214,0.932 15.567,2.993 19.459,8.979 2.028,3.124 3.092,6.424 3.618,11.313 C 0.197,-14.222 0,0 0,0"
       style="fill:#faa61a;fill-opacity:1;fill-rule:nonzero;stroke:none"
       transform="matrix(1.3333333,0,0,-1.3333333,474.41733,136.7312)"
       clip-path="url(#clipPath40)" />
    <path
       id="path41"
       d="m 0,0 c -0.033,-5.591 -0.022,-10.689 -0.264,-12.553 -0.558,-4.45 -8.167,-6.457 -8.54,-2.357 -0.175,1.93 -0.329,4.479 -0.329,10.169 l -6.149,-1.42 v -37.493 l 7.838,1.809 c 0,5.953 0,8.54 0.098,10.579 0.275,5.371 8.343,6.588 9.045,1.918 0.318,-2.127 0.372,-3.146 0.372,-7.948 l 6.249,1.443 V 1.921 Z"
       style="fill:#faa61a;fill-opacity:1;fill-rule:nonzero;stroke:none"
       transform="matrix(1.3333333,0,0,-1.3333333,425.66867,135.90173)"
       clip-path="url(#clipPath42)" />
    <path
       id="path43"
       d="M 0,0 C -2.993,-0.702 -4.659,0.965 -4.659,4.528 V 7.97 c 0,2.483 0.482,4.637 2.696,5.339 C 4.468,15.346 8.945,12.575 8.945,8.222 8.945,4.155 5.832,1.371 0,0 m 21.674,14.877 c 0,15.819 -15.48,20.413 -34.413,13.648 v -51.066 l 8.069,1.863 v 12.785 c 0,1.951 1.436,1.611 2.763,0.427 0.931,-0.833 6.533,-6.26 10.447,-10.162 l 12.317,2.843 c 0,0 -10.738,10.97 -11.977,12.056 7.214,2.696 12.794,9.724 12.794,17.606"
       style="fill:#faa61a;fill-opacity:1;fill-rule:nonzero;stroke:none"
       transform="matrix(1.3333333,0,0,-1.3333333,371.23373,165.96947)"
       clip-path="url(#clipPath44)" />
    <path
       id="path45"
       d="m 0,0 c 0,0 -0.067,-17.388 -0.283,-20.446 -0.338,-4.778 -1.622,-4.906 -2.714,-4.189 -2.18,1.43 -6.253,9.573 -9.899,16.654 l -5.321,-1.228 v -44 l 6.506,1.501 0.022,11.165 c 0.011,5.731 1.576,6.104 3.849,4.022 1.726,-1.58 4.073,-5.063 7.773,-10.987 l 8.609,1.988 V 1.972 Z"
       style="fill:#f15a22;fill-opacity:1;fill-rule:nonzero;stroke:none"
       transform="matrix(1.3333333,0,0,-1.3333333,329.7116,215.3556)"
       clip-path="url(#clipPath46)" />
    <path
       id="path47"
       d="m 0,0 c -0.197,-0.001 -1.659,0.049 -1.815,1.164 -0.09,0.646 0.219,1.252 0.999,1.729 1.219,0.745 5.44,1.959 9.491,2.908 v 5.602 c 0,0 -7.335,-1.765 -9.591,-1.429 -0.686,0.102 -1.142,0.464 -1.232,1.097 -0.093,0.647 0.233,1.23 0.999,1.729 2.063,1.343 11.323,3.341 11.323,3.341 V 29.065 L -8.892,24.664 V -9.792 l 19.465,4.494 v 7.16 C 5.378,0.682 1.866,0.01 0,0"
       style="fill:#f15a22;fill-opacity:1;fill-rule:nonzero;stroke:none"
       transform="matrix(1.3333333,0,0,-1.3333333,285.9304,274.12307)"
       clip-path="url(#clipPath48)" />
    <path
       id="path49"
       d="m 0,0 c 0,0 -2.065,-13.607 -3.899,-19.896 -0.525,-1.797 -1.791,-4.546 -3.514,-0.615 -0.617,1.408 -2.448,7.986 -3.793,16.467 l -5.947,-1.373 c 0.52,-5.832 3.375,-21.581 7.179,-30.756 l 11.536,2.663 c 4.246,11.237 6.793,23.106 7.66,35.639 z"
       style="fill:#f15a22;fill-opacity:1;fill-rule:nonzero;stroke:none"
       transform="matrix(1.3333333,0,0,-1.3333333,257.82747,239.8484)"
       clip-path="url(#clipPath50)" />
    <path
       id="path51"
       d="m 0,0 -4.077,-0.941 c -1.023,-0.237 -1.617,0.388 -1.493,1.847 0.116,1.365 0.715,4.259 0.941,5.236 0.503,2.161 1.491,3.062 2.653,3.223 C -0.485,9.573 0.815,8.271 1.527,4.741 1.597,4.4 1.771,3.692 1.884,2.729 2.021,1.561 1.447,0.334 0,0 m 5.084,19.506 c -2.887,5.319 -6.244,4.216 -7.964,3.647 -2.254,-0.745 -4.255,-1.903 -6.348,-10.206 -2.2,-8.728 -4.598,-27.083 -4.598,-27.083 l 6.039,1.394 0.624,3.498 c 0.3,1.679 1.368,2.745 2.997,3.224 1.566,0.461 4.681,1.215 6.277,1.397 0.675,0.077 1.469,-0.456 1.7,-1.513 l 0.815,-3.74 8.226,1.899 c 0,0 -4.092,20.711 -7.768,27.483"
       style="fill:#f15a22;fill-opacity:1;fill-rule:nonzero;stroke:none"
       transform="matrix(1.3333333,0,0,-1.3333333,223.74813,290.7976)"
       clip-path="url(#clipPath52)" />
    <path
       id="path53"
       d="m 0,0 c -0.197,-0.001 -1.658,0.048 -1.814,1.164 -0.091,0.645 0.219,1.251 0.999,1.728 1.219,0.746 5.44,1.959 9.491,2.909 v 5.602 c 0,0 -7.335,-1.765 -9.591,-1.429 -0.686,0.101 -1.142,0.464 -1.232,1.096 -0.093,0.647 0.233,1.23 0.999,1.729 2.062,1.344 11.322,3.342 11.322,3.342 V 30.072 L -8.892,25.671 V -8.785 l 19.466,4.494 V 1.862 C 5.379,0.681 1.867,0.01 0,0"
       style="fill:#f15a22;fill-opacity:1;fill-rule:nonzero;stroke:none"
       transform="matrix(1.3333333,0,0,-1.3333333,187.5332,300.02747)"
       clip-path="url(#clipPath54)" />
    <path
       id="path55"
       d="m 0,0 c 0,-6.875 0.034,-12.021 -0.907,-15.394 -0.572,-2.047 -1.832,-3.606 -3.514,-4.787 -1.713,-1.202 -3.43,-1.728 -5.112,-1.762 -2.05,-0.04 -3.549,1.076 -3.769,3.354 -0.314,3.274 -0.294,7.41 -0.294,13.142 l -7.443,-1.718 v -50.699 l 10.225,2.36 c 0,6.452 0.131,11.208 0.926,14.175 0.542,2.021 2.017,3.727 3.505,4.732 1.739,1.175 3.339,1.762 5.025,1.789 2.047,0.034 3.603,-1.023 3.796,-3.066 0.283,-2.992 0.301,-7.061 0.301,-12.613 l 7.576,1.749 V 2.381 Z"
       style="fill:#f15a22;fill-opacity:1;fill-rule:nonzero;stroke:none"
       transform="matrix(1.3333333,0,0,-1.3333333,155.9968,261.67653)"
       clip-path="url(#clipPath56)" />
    <path
       id="path57"
       d="m 0,0 v 44.145 l -6.034,-1.393 c -3.201,-10.569 -5.012,-15.737 -6.591,-20.093 -2.688,-7.413 -5.482,-4.504 -6.779,-2.434 -1.516,2.42 -3.568,7.136 -7.135,15.771 l -8.813,-2.035 V -6.887 l 7.308,1.687 c -0.056,6.613 0.059,10.467 0.416,12.211 0.321,1.568 1.266,1.788 2.223,0.234 0.788,-1.279 2.034,-4.046 4.512,-9.736 l 4.901,1.132 c 2.701,7.257 4.16,10.913 5.19,12.704 0.836,1.455 2.419,2.478 2.901,-0.211 C -7.537,9.1 -7.568,5.007 -7.579,-1.75 Z"
       style="fill:#faa61a;fill-opacity:1;fill-rule:nonzero;stroke:none"
       transform="matrix(1.3333333,0,0,-1.3333333,328.71027,207.5072)"
       clip-path="url(#clipPath58)" />
    <path
       id="path59"
       d="m 0,0 c 0,0 0.146,-9.588 -0.182,-12.762 -0.433,-4.213 -7.9,-5.667 -8.215,-1.362 -0.142,1.922 -0.249,4.4 -0.249,10.06 l -6.103,-1.409 v -37.816 l 8.367,1.932 v 8.732 c 0,6.717 8.344,7.279 8.793,2.584 0.142,-1.476 0.213,-3.777 0.213,-8.553 l 6.103,1.408 v 39.2 z"
       style="fill:#faa61a;fill-opacity:1;fill-rule:nonzero;stroke:none"
       transform="matrix(1.3333333,0,0,-1.3333333,265.21293,175.61667)"
       clip-path="url(#clipPath60)" />
    <path
       id="path61"
       d="m 0,0 v -15.584 l 5.63,1.3 c 2.243,0.518 3.031,0.041 3.015,-4.466 v -20.028 l 6.67,1.54 v 18.533 c 0.046,7.956 0.98,9.603 4.937,10.517 l 3.533,0.815 V 5.491 Z"
       style="fill:#faa61a;fill-opacity:1;fill-rule:nonzero;stroke:none"
       transform="matrix(1.3333333,0,0,-1.3333333,209.4876,182.8536)"
       clip-path="url(#clipPath62)" />
    <path
       id="path63"
       d="m 0,0 -7.114,-1.643 c 0,0 -0.045,-5.383 -0.439,-12.512 -0.418,-7.578 -8.582,-9.902 -9.049,-2.193 -0.296,4.925 -0.25,11.602 -0.25,11.602 l -8.515,-1.966 v -3.646 c 0,-14.198 1.632,-19.017 10.208,-18.09 2.006,0.217 3.532,0.853 5.254,2.019 0.107,0.073 0.243,0.074 0.371,-0.025 0.122,-0.095 0.32,-0.413 0.021,-1.34 -1.607,-4.993 -15.383,-6.477 -15.383,-6.477 v -11.156 c 7.874,1.158 16.442,2.835 20.938,10.305 C -2.278,-32.332 0,-28.962 0,0"
       style="fill:#faa61a;fill-opacity:1;fill-rule:nonzero;stroke:none"
       transform="matrix(1.3333333,0,0,-1.3333333,205.09573,191.67587)"
       clip-path="url(#clipPath64)" />
    <path
       id="path65"
       d="m 0,0 c 0,0 0.138,-9.112 -0.173,-12.129 -0.412,-4.003 -7.508,-5.385 -7.808,-1.294 -0.134,1.827 -0.237,4.182 -0.237,9.56 l -5.799,-1.339 v -35.939 l 7.952,1.836 v 8.3 c 0,6.383 7.929,6.917 8.356,2.455 0.135,-1.403 0.203,-3.59 0.203,-8.129 l 5.799,1.339 V 1.915 Z"
       style="fill:#faa61a;fill-opacity:1;fill-rule:nonzero;stroke:none"
       transform="matrix(1.3333333,0,0,-1.3333333,154.9408,199.6596)"
       clip-path="url(#clipPath66)" />
    <path
       id="path67"
       d="m 0,0 c -3.641,-0.929 -5.789,1.022 -5.789,5.917 0,3.904 0.074,7.935 7.222,7.935 5.088,0 7.216,-2.577 7.216,-5.484 C 8.649,5.836 5.553,1.416 0,0 m 21.369,16.126 c 0,8.991 -6.624,19.865 -34.339,13.194 v -48.894 l 7.218,1.666 v 8.834 c 0,3.59 2.068,2.928 3.388,2.069 1.025,-0.667 3.2,-2.42 8.34,-8.196 l 12.26,2.831 -9.554,9.783 c 0,0 12.687,5.108 12.687,18.713"
       style="fill:#faa61a;fill-opacity:1;fill-rule:nonzero;stroke:none"
       transform="matrix(1.3333333,0,0,-1.3333333,102.62693,235.18827)"
       clip-path="url(#clipPath68)" />
    <path
       id="path69"
       d="m 0,0 -2.839,-0.655 c -1.658,-0.383 -2.429,0.182 -2.355,1.231 l 0.466,6.666 5.32,1.228 0.248,3.548 -5.319,-1.228 0.379,5.429 c 0.121,1.723 0.944,2.664 2.306,2.979 l 3.188,0.736 0.231,3.305 -18.258,-4.215 -0.231,-3.305 2.874,0.663 c 2.01,0.464 2.37,-0.522 2.32,-1.232 l -0.428,-6.119 -5.319,-1.228 -0.248,-3.548 5.319,1.228 -0.418,-5.976 c -0.119,-1.7 -0.954,-2.674 -2.27,-2.978 l -3.224,-0.744 -0.229,-3.283 18.257,4.215 z m 6.59,26.448 -25.694,-5.932 c -1.382,-0.315 -2.271,-1.444 -2.379,-2.996 l -2.006,-28.685 25.694,5.932 c 1.278,0.288 2.263,1.334 2.379,2.996 z m 10.745,7.878 -2.946,-42.131 -48.618,-11.224 2.946,42.131 z M -2.481,5.577 0.437,6.25 0.154,2.22 -2.763,1.546 Z"
       style="fill:#f15a22;fill-opacity:1;fill-rule:nonzero;stroke:none"
       transform="matrix(1.3333333,0,0,-1.3333333,397.16867,82.824267)"
       clip-path="url(#clipPath70)" />
    <path
       id="path71"
       d="m 0,0 c -0.28,0.08 -0.717,0.205 -0.767,0.42 -0.042,0.181 0.099,0.358 0.447,0.773 1.38,1.666 1.534,1.856 2.5,3.202 L 1.112,4.826 C 0.649,4.086 0.463,3.835 -0.941,2 -1.664,1.054 -1.995,0.525 -1.897,0.105 -1.771,-0.445 -1.068,-0.663 -0.279,-0.906 1.19,-1.354 2.62,-1.902 3.998,-2.58 l 0.686,0.91 C 3.748,-1.18 1.422,-0.396 0,0"
       style="fill:#f15a22;fill-opacity:1;fill-rule:nonzero;stroke:none"
       transform="matrix(1.3333333,0,0,-1.3333333,397.68947,34.087333)"
       clip-path="url(#clipPath72)" />
    <path
       id="path73"
       d="m 0,0 c -0.818,-0.317 -1.665,-0.55 -2.52,-0.747 -1.309,-0.302 -2.988,-0.671 -3.25,0.463 -0.042,0.183 -0.154,0.828 0.416,1.703 L -6.182,1.78 c -0.471,-0.863 -0.729,-1.501 -0.544,-2.303 0.16,-0.69 0.775,-1.246 1.444,-1.394 0.824,-0.187 1.584,-0.094 3.303,0.302 1.352,0.313 1.944,0.532 2.239,0.646 z M -4.973,3.465 -4.2,2.991 c 0.868,0.853 1.559,1.399 2.615,1.844 L -1.782,5.69 C -2.341,5.561 -5.096,4.916 -5.715,4.773 -6.151,4.672 -7.232,4.423 -7.497,4.371 L -7.27,3.385 c 0.551,0.164 1.297,0.355 3.088,0.796 -0.503,-0.41 -0.555,-0.46 -0.791,-0.716 m 4.246,-0.518 0.526,0.508 c -0.27,0.333 -0.662,0.72 -1.104,1.041 L -1.833,3.997 c 0.439,-0.349 0.675,-0.57 1.106,-1.05 m -1.55,0.828 C -1.696,3.33 -1.268,2.822 -1.152,2.684 L -1.679,2.176 C -2.247,2.844 -2.606,3.129 -2.788,3.28 Z"
       style="fill:#f15a22;fill-opacity:1;fill-rule:nonzero;stroke:none"
       transform="matrix(1.3333333,0,0,-1.3333333,377.3796,41.571733)"
       clip-path="url(#clipPath74)" />
    <path
       id="path75"
       d="m 0,0 0.329,4.711 18.109,4.181 0.516,7.378 -18.109,-4.181 0.462,6.606 18.109,4.181 0.515,7.36 -48.912,-11.292 -0.515,-7.36 17.813,4.112 -0.462,-6.606 -17.813,-4.112 -0.517,-7.379 17.815,4.113 -0.192,-2.728 c -0.61,-8.737 -5.563,-11.942 -12.862,-13.633 l -5.709,-1.318 -0.516,-7.394 12.432,2.87 c 9.549,2.2 13.077,5.283 17.402,13.869 1.976,-0.95 7.245,-4.978 9.305,-7.703 l 12.859,2.969 C 16.583,-6.937 3.541,-0.955 0,0"
       style="fill:#faa61a;fill-opacity:1;fill-rule:nonzero;stroke:none"
       transform="matrix(1.3333333,0,0,-1.3333333,319.058,121.97147)"
       clip-path="url(#clipPath76)" />
    <path
       id="path77"
       d="m 0,0 -0.968,0.058 c 0.257,-1.939 -0.023,-2.767 -0.714,-2.927 -0.733,-0.169 -0.915,0.616 -0.972,0.866 l -0.086,0.371 c -0.143,0.621 -0.487,1.95 -1.875,1.63 -0.586,-0.136 -0.867,-0.455 -1.025,-0.637 0.039,0.5 0.313,2.934 0.366,3.492 L -6.406,2.8 C -6.504,1.488 -6.809,-2.698 -7.012,-4.89 l 1.058,-0.055 c 0.007,0.247 0.058,1.994 0.065,2.041 0.07,0.525 0.319,1.691 1.293,1.916 0.647,0.149 0.777,-0.411 0.904,-0.964 l 0.068,-0.293 c 0.043,-0.19 0.188,-0.701 0.383,-0.992 0.307,-0.466 0.959,-0.769 1.667,-0.606 C 0.012,-3.477 0.236,-2.089 0,0"
       style="fill:#faa61a;fill-opacity:1;fill-rule:nonzero;stroke:none"
       transform="matrix(1.3333333,0,0,-1.3333333,330.1036,77.067867)"
       clip-path="url(#clipPath78)" />
    <path
       id="path79"
       d="m 0,0 c -2.41,-0.636 -3.991,-0.522 -4.287,0.76 -0.263,1.138 0.542,2.541 1.6,3.416 0.352,0.285 0.82,0.606 1.579,0.781 0.362,0.084 0.56,0.112 0.741,0.136 L -0.604,6.042 C -1.465,5.808 -5.3,4.762 -6.017,4.561 -6.593,4.401 -7.218,4.222 -7.799,4.087 l 0.255,-0.953 c 1.282,0.411 2.565,0.814 3.863,1.194 -1.616,-1.581 -1.758,-2.999 -1.557,-3.868 0.18,-0.784 0.862,-1.47 1.711,-1.683 0.859,-0.219 1.809,-0.222 3.625,0.189 z"
       style="fill:#faa61a;fill-opacity:1;fill-rule:nonzero;stroke:none"
       transform="matrix(1.3333333,0,0,-1.3333333,302.584,86.364667)"
       clip-path="url(#clipPath80)" />
    <path
       id="path81"
       d="m 0,0 -1.944,-0.449 c -1.272,-0.297 -2.617,0.169 -3.465,1.633 l -3.893,6.718 -12.885,-2.975 5.119,-8.867 -15.894,-3.67 11.572,30.147 c 0.506,1.317 1.297,2.109 2.323,2.354 l 3.233,0.746 0.358,5.124 -15.872,-3.665 -13.74,-35.794 c -0.532,-1.387 -1.42,-2.039 -2.33,-2.249 l -1.968,-0.455 -0.518,-7.406 53.616,12.378 z"
       style="fill:#f15a22;fill-opacity:1;fill-rule:nonzero;stroke:none"
       transform="matrix(1.3333333,0,0,-1.3333333,263.90307,118.70187)"
       clip-path="url(#clipPath82)" />
    <path
       id="path83"
       d="m 0,0 c -0.401,1.847 -2.25,2.986 -4.064,2.547 -1.85,-0.436 -2.952,-2.252 -2.547,-4.064 0.435,-1.849 2.252,-2.95 4.063,-2.547 C -0.698,-3.628 0.437,-1.814 0,0 m -10.652,-5.935 c 1.848,0.436 2.95,2.252 2.547,4.064 -0.439,1.814 -2.252,2.951 -4.065,2.547 -1.847,-0.401 -2.95,-2.252 -2.547,-4.064 0.439,-1.814 2.252,-2.95 4.065,-2.547 m 7.938,-36.652 -12.938,-2.987 c -1.007,3.252 -3.037,5.354 -4.621,6.265 -6.9,-7.377 -12.321,-10.177 -23.322,-12.716 l -8.499,-1.963 0.524,7.476 8.314,1.92 c 16.071,3.71 20.592,16.828 21.938,26.772 l -28.709,-6.628 0.529,7.572 45.842,10.583 -0.5,-7.147 -1.958,-0.453 c -1.054,-0.243 -2.035,-1.17 -2.407,-3.069 -1.052,-5.25 -2.072,-10.011 -7.426,-17.317 4.35,-0.887 11.603,-5.994 13.233,-8.308"
       style="fill:#faa61a;fill-opacity:1;fill-rule:nonzero;stroke:none"
       transform="matrix(1.3333333,0,0,-1.3333333,189.0996,117.34053)"
       clip-path="url(#clipPath84)" />
    <path
       id="path85"
       d="m 0,0 -0.386,-5.512 1.125,0.26 C 2.433,-4.861 3.203,-5.461 3.13,-6.497 L 1.762,-26.073 c -0.349,-4.983 -2.579,-8.51 -6.888,-9.511 l -22.427,-5.178 -0.518,-7.415 31.361,7.241 c 6.347,1.444 10.709,6.83 11.224,14.211 l 1.577,22.556 c 0.11,1.559 0.717,2.627 2.308,2.994 l 1.379,0.319 0.386,5.511 z m -12.985,-29.258 -17.717,-4.091 0.385,5.5 1.458,0.337 c 1.569,0.363 2.203,1.477 2.311,3.014 l 0.792,11.33 c 0.072,1.035 -0.693,1.639 -2.389,1.248 l -1.076,-0.248 0.386,5.511 17.717,4.09 -0.385,-5.511 -1.455,-0.336 c -1.574,-0.363 -2.208,-1.482 -2.314,-3.004 l -0.792,-11.33 c -0.073,-1.042 0.7,-1.648 2.391,-1.258 l 1.073,0.248 z"
       style="fill:#f15a22;fill-opacity:1;fill-rule:nonzero;stroke:none"
       transform="matrix(1.3333333,0,0,-1.3333333,82.299467,114.74947)"
       clip-path="url(#clipPath86)" />
  </g>
</svg>
