<?xml version="1.0" encoding="UTF-8" standalone="no"?>
<!-- Created with Inkscape (http://www.inkscape.org/) -->

<svg
   version="1.1"
   id="svg1"
   width="666.66669"
   height="490.80399"
   viewBox="0 0 666.66669 490.80399"
   sodipodi:docname="Rhythm Paradise Logo (Color Swap).ai"
   xmlns:inkscape="http://www.inkscape.org/namespaces/inkscape"
   xmlns:sodipodi="http://sodipodi.sourceforge.net/DTD/sodipodi-0.dtd"
   xmlns="http://www.w3.org/2000/svg"
   xmlns:svg="http://www.w3.org/2000/svg">
  <defs
     id="defs1">
    <clipPath
       clipPathUnits="userSpaceOnUse"
       id="clipPath2">
      <path
         d="M 0,368.103 H 500 V 0 H 0 Z"
         transform="translate(-465.33861,-248.70771)"
         id="path2" />
    </clipPath>
    <clipPath
       clipPathUnits="userSpaceOnUse"
       id="clipPath4">
      <path
         d="M 0,368.103 H 500 V 0 H 0 Z"
         transform="translate(-453.93631,-245.0392)"
         id="path4" />
    </clipPath>
    <clipPath
       clipPathUnits="userSpaceOnUse"
       id="clipPath6">
      <path
         d="M 0,368.103 H 500 V 0 H 0 Z"
         transform="translate(-441.92651,-241.2175)"
         id="path6" />
    </clipPath>
    <clipPath
       clipPathUnits="userSpaceOnUse"
       id="clipPath8">
      <path
         d="M 0,368.103 H 500 V 0 H 0 Z"
         transform="translate(-451.54271,-136.5529)"
         id="path8" />
    </clipPath>
    <clipPath
       clipPathUnits="userSpaceOnUse"
       id="clipPath10">
      <path
         d="M 0,368.103 H 500 V 0 H 0 Z"
         transform="translate(-424.85331,-187.51821)"
         id="path10" />
    </clipPath>
    <clipPath
       clipPathUnits="userSpaceOnUse"
       id="clipPath12">
      <path
         d="M 0,368.103 H 500 V 0 H 0 Z"
         transform="translate(-388.69701,-143.08911)"
         id="path12" />
    </clipPath>
    <clipPath
       clipPathUnits="userSpaceOnUse"
       id="clipPath14">
      <path
         d="M 0,368.103 H 500 V 0 H 0 Z"
         transform="translate(-341.93141,-139.1721)"
         id="path14" />
    </clipPath>
    <clipPath
       clipPathUnits="userSpaceOnUse"
       id="clipPath16">
      <path
         d="M 0,368.103 H 500 V 0 H 0 Z"
         transform="translate(-307.19211,-129.5851)"
         id="path16" />
    </clipPath>
    <clipPath
       clipPathUnits="userSpaceOnUse"
       id="clipPath18">
      <path
         d="M 0,368.103 H 500 V 0 H 0 Z"
         transform="translate(-265.1248,-119.87811)"
         id="path18" />
    </clipPath>
    <clipPath
       clipPathUnits="userSpaceOnUse"
       id="clipPath20">
      <path
         d="M 0,368.103 H 500 V 0 H 0 Z"
         transform="translate(-210.84111,-124.74531)"
         id="path20" />
    </clipPath>
    <clipPath
       clipPathUnits="userSpaceOnUse"
       id="clipPath22">
      <path
         d="M 0,368.103 H 500 V 0 H 0 Z"
         transform="translate(-170.8318,-90.7639)"
         id="path22" />
    </clipPath>
    <clipPath
       clipPathUnits="userSpaceOnUse"
       id="clipPath24">
      <path
         d="M 0,368.103 H 500 V 0 H 0 Z"
         transform="translate(-118.9182,-102.8674)"
         id="path24" />
    </clipPath>
    <clipPath
       clipPathUnits="userSpaceOnUse"
       id="clipPath26">
      <path
         d="M 0,368.103 H 500 V 0 H 0 Z"
         transform="translate(-397.94801,-315.19891)"
         id="path26" />
    </clipPath>
    <clipPath
       clipPathUnits="userSpaceOnUse"
       id="clipPath28">
      <path
         d="M 0,368.103 H 500 V 0 H 0 Z"
         transform="translate(-319.72731,-275.01631)"
         id="path28" />
    </clipPath>
    <clipPath
       clipPathUnits="userSpaceOnUse"
       id="clipPath30">
      <path
         d="M 0,368.103 H 500 V 0 H 0 Z"
         transform="translate(-241.50711,-269.19261)"
         id="path30" />
    </clipPath>
    <clipPath
       clipPathUnits="userSpaceOnUse"
       id="clipPath32">
      <path
         d="M 0,368.103 H 500 V 0 H 0 Z"
         transform="translate(-235.98171,-250.4479)"
         id="path32" />
    </clipPath>
    <clipPath
       clipPathUnits="userSpaceOnUse"
       id="clipPath34">
      <path
         d="M 0,368.103 H 500 V 0 H 0 Z"
         transform="translate(-167.22441,-251.61691)"
         id="path34" />
    </clipPath>
    <clipPath
       clipPathUnits="userSpaceOnUse"
       id="clipPath36">
      <path
         d="M 0,368.103 H 500 V 0 H 0 Z"
         transform="translate(-90.447002,-209.20821)"
         id="path36" />
    </clipPath>
  </defs>
  <sodipodi:namedview
     id="namedview1"
     pagecolor="#ffffff"
     bordercolor="#000000"
     borderopacity="0.25"
     inkscape:showpageshadow="2"
     inkscape:pageopacity="0.0"
     inkscape:pagecheckerboard="0"
     inkscape:deskcolor="#d1d1d1">
    <inkscape:page
       x="0"
       y="0"
       inkscape:label="1"
       id="page1"
       width="666.66669"
       height="490.80399"
       margin="0"
       bleed="0" />
  </sodipodi:namedview>
  <g
     id="layer-MC0"
     inkscape:groupmode="layer"
     inkscape:label="Layer 1">
    <path
       id="path1"
       d="m 0,0 c 1.646,7.146 2.475,14.489 2.475,21.961 0,53.726 -43.708,97.434 -97.434,97.434 -21.545,0 -41.966,-6.892 -59.057,-19.93 -8.58,-6.545 -16.011,-14.513 -21.981,-23.446 -15.52,10.005 -33.72,15.465 -52.653,15.465 -30.966,0 -59.704,-14.924 -77.804,-38.926 -16.644,11.168 -36.367,17.292 -56.829,17.292 -56.274,0 -102.056,-45.782 -102.056,-102.055 0,-31.898 14.626,-61.279 39.148,-80.403 -3.874,-10.912 -5.88,-22.467 -5.88,-34.159 0,-56.21 45.731,-101.941 101.941,-101.941 22.337,0 43.552,7.098 61.35,20.526 9.821,7.409 18.233,16.604 24.794,26.951 14.231,-7.867 30.292,-12.048 46.994,-12.048 34.196,0 65.367,18.08 82.818,46.15 14.366,-7.451 30.403,-11.412 46.896,-11.412 56.21,0 101.939,45.731 101.939,101.957 C 34.639,-46.865 21.915,-19.209 0,0"
       style="fill:#00b3f0;fill-opacity:1;fill-rule:nonzero;stroke:none"
       transform="matrix(1.3333333,0,0,-1.3333333,620.45147,159.19373)"
       clip-path="url(#clipPath2)" />
    <path
       id="path3"
       d="m 0,0 c 2.529,8.249 3.808,16.837 3.808,25.629 0,48.173 -39.192,87.365 -87.365,87.365 -33.203,0 -63.341,-19.109 -78.005,-48.003 -15.53,12.908 -35.126,20.092 -55.686,20.092 -31.217,0 -59.905,-16.914 -75.351,-43.297 -16.481,13.902 -37.414,21.663 -59.281,21.663 -50.722,0 -91.986,-41.265 -91.986,-91.986 0,-31.293 15.618,-59.901 41.357,-76.823 -5.314,-11.808 -8.09,-24.679 -8.09,-37.739 0,-50.657 41.213,-91.871 91.871,-91.871 20.131,0 39.249,6.396 55.286,18.495 11.545,8.71 20.928,20.153 27.269,33.066 14.681,-10.481 32.2,-16.132 50.583,-16.132 34.043,0 64.741,19.98 78.97,50.016 14.961,-9.926 32.543,-15.278 50.744,-15.278 50.657,0 91.87,41.214 91.87,91.879 C 35.972,-44.057 22.654,-17.349 0,0"
       style="fill:#ffffff;fill-opacity:1;fill-rule:nonzero;stroke:none"
       transform="matrix(1.3333333,0,0,-1.3333333,605.2484,164.08507)"
       clip-path="url(#clipPath4)" />
    <path
       id="path5"
       d="m 0,0 c 3.747,9.082 5.793,19.013 5.793,29.451 0,42.716 -34.623,77.341 -77.34,77.341 -35.245,0 -64.972,-23.566 -74.306,-55.799 -14.163,17.036 -35.498,27.888 -59.385,27.888 -33.175,0 -61.454,-20.922 -72.374,-50.303 -15.036,17.541 -37.36,28.669 -62.259,28.669 -45.269,0 -81.962,-36.693 -81.962,-81.962 0,-31.819 18.117,-59.385 44.602,-72.972 -7.196,-12.186 -11.334,-26.416 -11.334,-41.59 0,-45.2 36.647,-81.847 81.847,-81.847 36.968,0 68.236,24.531 78.375,58.189 14.001,-14.047 33.359,-22.761 54.763,-22.761 35.406,0 65.248,23.796 74.398,56.259 14.577,-13.357 33.98,-21.52 55.316,-21.52 45.199,0 81.846,36.648 81.846,81.847 C 37.957,-40.05 22.807,-14.53 0,0"
       style="fill:#130c0e;fill-opacity:1;fill-rule:nonzero;stroke:none"
       transform="matrix(1.3333333,0,0,-1.3333333,589.23533,169.18067)"
       clip-path="url(#clipPath6)" />
    <path
       id="path7"
       d="M 0,0 V 7.653 L -1.924,-0.444 -4.008,-0.926 -5.887,6.295 V -1.359 L -7.856,-1.814 V 7.349 L -4.779,8.059 -2.923,1.22 -2.9,1.225 -1.091,8.91 1.947,9.611 V 0.449 Z M -14.223,-3.284 V 4.254 L -17.392,3.522 V 5.147 L -9.01,7.082 V 5.457 l -3.054,-0.705 v -7.537 z"
       style="fill:#faa61a;fill-opacity:1;fill-rule:nonzero;stroke:none"
       transform="matrix(1.3333333,0,0,-1.3333333,602.05693,308.73347)"
       clip-path="url(#clipPath8)" />
    <path
       id="path9"
       d="M 0,0 C 4.433,1.67 13.71,4.165 21.503,5.855 V 29.979 L -17.442,20.988 V -43.49 l 38.945,8.991 v 10.743 c -5.112,-1.341 -15.71,-3.334 -20.349,-4.118 -5.649,-0.948 -6.453,6.248 -0.206,8.309 3.587,1.175 10.164,2.741 15.298,4.185 v 8.271 C 11.566,-8.057 5.236,-9.154 0.247,-9.855 -5.937,-10.741 -7.01,-2.639 0,0"
       style="fill:#faa61a;fill-opacity:1;fill-rule:nonzero;stroke:none"
       transform="matrix(1.3333333,0,0,-1.3333333,566.47107,240.77973)"
       clip-path="url(#clipPath10)" />
    <path
       id="path11"
       d="m 0,0 c -0.228,2.143 -3.934,2.628 -9.706,4.012 -10.092,2.506 -16.338,8.451 -15.7,18.895 0.678,11.275 6.386,19.137 36.594,24.267 V 23.723 C 0.287,22.359 -5.73,20.319 -8.283,18.231 -11.005,16.022 -10.847,12.405 -6.917,11.093 -5.21,10.522 -0.163,8.837 2.887,7.814 8.739,5.863 11.604,2.872 12.2,-2.423 13.887,-17.359 -13.147,-21.276 -24.294,-22.913 V -9.642 C -10.94,-6.951 0.516,-4.594 0,0"
       style="fill:#faa61a;fill-opacity:1;fill-rule:nonzero;stroke:none"
       transform="matrix(1.3333333,0,0,-1.3333333,518.26267,300.01853)"
       clip-path="url(#clipPath12)" />
    <path
       id="path13"
       d="m 0,0 v 57.48 l 14.535,3.355 V 3.355 Z"
       style="fill:#faa61a;fill-opacity:1;fill-rule:nonzero;stroke:none"
       transform="matrix(1.3333333,0,0,-1.3333333,455.90853,305.2412)"
       clip-path="url(#clipPath14)" />
    <path
       id="path15"
       d="m 0,0 c -4,-0.926 -5.731,0.412 -5.731,5.093 v 14.761 c 0,3.402 -0.176,6.12 3.051,7.031 7.01,1.979 14.844,-1.774 15.586,-9.402 C 13.772,8.618 8.84,2.041 0,0 M -15.587,49.213 V -13.483 C 14.721,-9.051 27.915,2.659 27.585,25.937 27.297,46.12 7.257,57.212 -15.587,49.213"
       style="fill:#faa61a;fill-opacity:1;fill-rule:nonzero;stroke:none"
       transform="matrix(1.3333333,0,0,-1.3333333,409.58947,318.02387)"
       clip-path="url(#clipPath16)" />
    <path
       id="path17"
       d="m 0,0 -7.319,-1.69 c -1.839,-0.425 -2.886,0.72 -2.66,3.277 0.207,2.392 1.279,7.464 1.691,9.195 0.866,3.587 2.681,5.34 4.763,5.65 3.36,0.536 4.989,-1.918 6.288,-8.103 C 2.887,7.752 3.237,6.494 3.381,4.804 3.67,1.36 2.6,0.6 0,0 M 12.824,27.481 C 8.989,40.059 5.885,43.162 -1.752,41.398 -8.485,39.845 -12.313,36.339 -15.524,24.039 -18.679,11.957 -22.166,-5.309 -24.97,-24.854 l 11.116,2.567 c 0.206,1.546 0.577,3.36 1.113,6.123 0.577,2.783 2.082,4.773 5.072,5.464 l 8.658,1.999 c 2.316,0.534 4.433,-1.299 5.175,-4.391 0.495,-2.062 1.135,-4.986 1.526,-6.945 l 14.721,3.398 c -1.794,14.411 -5.773,31.627 -9.587,44.12"
       style="fill:#faa61a;fill-opacity:1;fill-rule:nonzero;stroke:none"
       transform="matrix(1.3333333,0,0,-1.3333333,353.49973,330.96653)"
       clip-path="url(#clipPath18)" />
    <path
       id="path19"
       d="m 0,0 c -3.776,-0.885 -5.878,1.218 -5.878,5.713 v 4.344 c -10e-4,3.132 0.608,5.85 3.402,6.736 8.113,2.57 13.763,-0.927 13.763,-6.418 C 11.287,5.243 7.359,1.729 0,0 m 27.346,18.771 c 0,19.959 -19.531,25.755 -43.419,17.221 v -62.795 l 10.18,2.35 v 14.494 c 0,2.463 1.812,2.033 3.486,0.54 1.176,-1.052 8.244,-7.898 13.182,-12.822 l 15.542,3.588 c 0,0 -13.55,13.84 -15.113,15.21 9.102,3.402 16.142,12.269 16.142,22.214"
       style="fill:#faa61a;fill-opacity:1;fill-rule:nonzero;stroke:none"
       transform="matrix(1.3333333,0,0,-1.3333333,281.12147,324.47693)"
       clip-path="url(#clipPath20)" />
    <path
       id="path21"
       d="m 0,0 -7.319,-1.689 c -1.839,-0.425 -2.887,0.72 -2.66,3.277 0.207,2.391 1.279,7.463 1.691,9.195 0.866,3.587 2.68,5.34 4.763,5.649 3.36,0.536 4.989,-1.917 6.288,-8.103 C 2.886,7.752 3.237,6.494 3.381,4.804 3.67,1.36 2.6,0.601 0,0 M 12.824,27.482 C 8.989,40.059 5.885,43.162 -1.752,41.398 -8.485,39.845 -12.313,36.34 -15.524,24.039 -18.679,11.958 -22.167,-5.309 -24.97,-24.853 l 11.116,2.566 c 0.206,1.547 0.577,3.361 1.113,6.124 0.577,2.783 2.082,4.772 5.072,5.463 l 8.659,1.999 c 2.314,0.534 4.432,-1.298 5.175,-4.391 0.494,-2.061 1.133,-4.986 1.525,-6.944 l 14.721,3.398 c -1.794,14.411 -5.773,31.626 -9.587,44.12"
       style="fill:#faa61a;fill-opacity:1;fill-rule:nonzero;stroke:none"
       transform="matrix(1.3333333,0,0,-1.3333333,227.77573,369.78547)"
       clip-path="url(#clipPath22)" />
    <path
       id="path23"
       d="m 0,0 c -4.577,-1.119 -7.216,0.082 -7.216,3.917 v 13.876 c 0,3.919 2.165,6.391 6.474,6.947 C 7.897,25.854 11.793,20.803 11.793,14.226 11.793,8.741 8.557,2.092 0,0 m -28.72,44.761 v -86.904 l 21.525,4.969 v 20.411 c 0,3.733 0.927,5.588 3.154,5.98 20.06,3.529 34.349,13.614 34.349,34.307 0,22.723 -24.412,34.947 -59.028,21.237"
       style="fill:#faa61a;fill-opacity:1;fill-rule:nonzero;stroke:none"
       transform="matrix(1.3333333,0,0,-1.3333333,158.5576,353.64747)"
       clip-path="url(#clipPath24)" />
    <path
       id="path25"
       d="m 0,0 c -5.937,-19.606 -9.298,-29.193 -12.226,-37.275 -4.989,-13.752 -10.164,-8.35 -12.576,-4.516 -2.803,4.495 -6.618,13.237 -13.236,29.256 l -16.35,-3.775 v -76.959 l 13.567,3.132 c -0.104,12.267 0.102,20.596 0.762,23.833 0.598,2.907 2.351,3.32 4.123,0.433 1.464,-2.371 3.774,-7.504 8.372,-18.06 l 9.089,2.098 c 5.01,13.463 7.713,20.25 9.63,23.57 1.547,2.7 4.495,4.597 5.381,-0.392 0.681,-3.773 0.619,-14.008 0.598,-26.543 l 14.061,3.246 V 2.584 Z"
       style="fill:#f15a22;fill-opacity:1;fill-rule:nonzero;stroke:none"
       transform="matrix(1.3333333,0,0,-1.3333333,530.59733,70.5388)"
       clip-path="url(#clipPath26)" />
    <path
       id="path27"
       d="m 0,0 c -0.062,-10.515 -0.041,-20.102 -0.494,-23.606 -1.052,-8.371 -15.36,-12.144 -16.061,-4.433 -0.33,3.628 -0.619,8.422 -0.619,19.122 l -11.566,-2.67 v -70.51 l 14.741,3.404 c 0,11.194 0,16.059 0.186,19.894 0.515,10.102 15.689,12.39 17.009,3.608 0.598,-4 0.7,-5.918 0.7,-14.948 l 11.752,2.713 V 3.612 Z"
       style="fill:#f15a22;fill-opacity:1;fill-rule:nonzero;stroke:none"
       transform="matrix(1.3333333,0,0,-1.3333333,426.30307,124.1156)"
       clip-path="url(#clipPath28)" />
    <path
       id="path29"
       d="m 0,0 v -28.381 l 8.226,1.899 c 4.989,1.151 7.051,0.502 7.051,-8.33 v -36.455 l 13.504,3.118 v 33.42 c 0,14.845 1.394,18.591 8.742,20.287 l 6.721,1.552 v 23.104 z"
       style="fill:#f15a22;fill-opacity:1;fill-rule:nonzero;stroke:none"
       transform="matrix(1.3333333,0,0,-1.3333333,322.00947,131.88053)"
       clip-path="url(#clipPath30)" />
    <path
       id="path31"
       d="m 0,0 -12.618,-2.913 c 0,0 0.186,-12.989 -0.309,-22.555 -0.721,-13.999 -14.823,-17.009 -15.957,-3.69 -0.577,6.989 -0.845,20.919 -0.845,20.919 l -15.69,-3.622 v -11.36 c 0,-27.111 17.627,-30.451 26.843,-22.719 0.556,0.474 1.114,0.762 1.567,0.556 0.515,-0.227 0.495,-0.783 0.289,-1.814 -0.557,-2.701 -4.557,-8.041 -12.638,-10.205 -6.165,-1.65 -12.206,-2.69 -15.216,-3.164 v -18.814 c 13.566,1.753 29.276,5.629 36.595,16.885 3.814,5.876 5.814,12.081 6.804,21.277 C 0.371,-26.746 0,0 0,0"
       style="fill:#f15a22;fill-opacity:1;fill-rule:nonzero;stroke:none"
       transform="matrix(1.3333333,0,0,-1.3333333,314.64227,156.87347)"
       clip-path="url(#clipPath32)" />
    <path
       id="path33"
       d="m 0,0 c -0.062,-10.514 -0.042,-20.101 -0.495,-23.606 -1.051,-8.371 -15.359,-12.144 -16.061,-4.433 -0.329,3.629 -0.618,8.423 -0.618,19.123 l -11.566,-2.67 v -70.51 l 14.741,3.403 c 0,11.195 0,16.059 0.186,19.894 0.515,10.102 15.689,12.391 17.008,3.608 0.598,-4 0.701,-5.917 0.701,-14.947 l 11.752,2.713 V 3.613 Z"
       style="fill:#f15a22;fill-opacity:1;fill-rule:nonzero;stroke:none"
       transform="matrix(1.3333333,0,0,-1.3333333,222.96587,155.3148)"
       clip-path="url(#clipPath34)" />
    <path
       id="path35"
       d="m 0,0 c -5.628,-1.319 -8.762,1.814 -8.762,8.515 v 6.474 c -10e-4,4.669 0.907,8.72 5.072,10.04 C 8.401,28.86 16.823,23.647 16.823,15.463 16.823,7.814 10.968,2.577 0,0 m 40.759,27.977 c 0,29.751 -29.111,38.389 -64.716,25.669 v -96.037 l 15.174,3.503 v 24.044 c 0,3.67 2.701,3.031 5.196,0.804 1.752,-1.567 12.287,-11.772 19.647,-19.111 l 23.165,5.347 c 0,0 -20.196,20.63 -22.526,22.671 13.567,5.071 24.06,18.288 24.06,33.11"
       style="fill:#f15a22;fill-opacity:1;fill-rule:nonzero;stroke:none"
       transform="matrix(1.3333333,0,0,-1.3333333,120.596,211.85973)"
       clip-path="url(#clipPath36)" />
  </g>
</svg>
