<?xml version="1.0" encoding="UTF-8" standalone="no"?>
<!-- Generator: Adobe Illustrator 25.0.0, SVG Export Plug-In . SVG Version: 6.00 Build 0)  -->

<svg
   version="1.1"
   id="Layer_1"
   x="0px"
   y="0px"
   viewBox="0 0 666.66699 421.66284"
   xml:space="preserve"
   sodipodi:docname="Rhythm World The Best+ (리듬 세상 더・베스트＋) Logo (Fever Style).svg"
   width="666.66699"
   height="421.66284"
   inkscape:version="1.2.2 (b0a8486541, 2022-12-01)"
   xmlns:inkscape="http://www.inkscape.org/namespaces/inkscape"
   xmlns:sodipodi="http://sodipodi.sourceforge.net/DTD/sodipodi-0.dtd"
   xmlns:xlink="http://www.w3.org/1999/xlink"
   xmlns="http://www.w3.org/2000/svg"
   xmlns:svg="http://www.w3.org/2000/svg"><defs
   id="defs74" /><sodipodi:namedview
   id="namedview72"
   pagecolor="#505050"
   bordercolor="#eeeeee"
   borderopacity="1"
   inkscape:showpageshadow="0"
   inkscape:pageopacity="0"
   inkscape:pagecheckerboard="0"
   inkscape:deskcolor="#505050"
   showgrid="false"
   inkscape:zoom="2.844"
   inkscape:cx="250.17581"
   inkscape:cy="158.22785"
   inkscape:window-width="2560"
   inkscape:window-height="1404"
   inkscape:window-x="2560"
   inkscape:window-y="0"
   inkscape:window-maximized="1"
   inkscape:current-layer="Layer_1" />
<style
   type="text/css"
   id="style2">
	.st0{fill:url(#Spectrum_1_);}
	.st1{fill:#FFFFFF;}
	.st2{fill:#220614;}
	.st3{fill:#FEEE04;}
	.st4{fill:url(#SVGID_1_);}
	.st5{clip-path:url(#SVGID_3_);fill:url(#SVGID_4_);}
	.st6{fill:#FF0000;}
	.st7{fill:#FEEF0E;}
	.st8{fill:#F06917;}
</style>
<g
   id="Cloud_00000089551920205542769720000006095197863447250065_"
   transform="scale(1.3333339)">
	<linearGradient
   id="Spectrum_1_"
   gradientUnits="userSpaceOnUse"
   x1="416.59741"
   y1="256.2356"
   x2="40.90667"
   y2="39.330429">
		<stop
   offset="0.05"
   style="stop-color:#FF0000"
   id="stop4" />
		<stop
   offset="0.2"
   style="stop-color:#F49F00"
   id="stop6" />
		<stop
   offset="0.22617"
   style="stop-color:#F2BD00"
   id="stop8" />
		<stop
   offset="0.25775"
   style="stop-color:#F0DA00"
   id="stop10" />
		<stop
   offset="0.2892"
   style="stop-color:#EFEE00"
   id="stop12" />
		<stop
   offset="0.32014"
   style="stop-color:#EEFB00"
   id="stop14" />
		<stop
   offset="0.35"
   style="stop-color:#EEFF00"
   id="stop16" />
		<stop
   offset="0.5"
   style="stop-color:#00FF00"
   id="stop18" />
		<stop
   offset="0.75"
   style="stop-color:#1D0FFF"
   id="stop20" />
		<stop
   offset="0.95"
   style="stop-color:#710EC0"
   id="stop22" />
	</linearGradient>
	<path
   id="Spectrum"
   class="st0"
   d="M 411.81668,0 C 390.79629,0 371.47369,7.39706 356.30524,19.71925 341.99396,9.69039 324.58389,3.7956 305.82056,3.7956 c -38.76291,0 -71.76428,25.14007 -83.5563,59.97156 -7.56203,-2.11824 -15.53004,-3.2548 -23.75916,-3.2548 -16.85197,0 -32.61292,4.75463 -46.01768,12.98829 C 136.38788,56.336 113.51853,45.59331 88.18406,45.59331 39.55929,45.59331 0,85.15223 0,133.77699 c 0,28.89828 13.9732,54.59364 35.51733,70.68663 -14.36624,11.51602 -23.59034,29.19455 -23.59034,48.99661 0,34.62103 28.16575,62.78677 62.78642,62.78677 14.17933,0 27.27166,-4.72986 37.79401,-12.68747 1.6745,0.13458 3.36199,0.22256 5.07058,0.22256 9.63,0 18.75737,-2.18506 26.9213,-6.07626 7.53731,3.20978 15.82457,4.98911 24.52034,4.98911 15.42952,0 29.56781,-5.60498 40.51134,-14.87204 6.95459,2.60187 14.38753,3.97443 22.03499,3.97443 18.04073,0 34.31723,-7.65891 45.78036,-19.88303 6.52747,2.30484 13.54053,3.57224 20.84705,3.57224 28.82977,0 53.16724,-19.53853 60.50745,-46.06494 26.63641,-4.65939 47.54517,-26.15034 51.31915,-53.07703 0.59763,0.012 1.19553,0.0228 1.79599,0.0228 48.62476,0 88.18405,-39.55853 88.18405,-88.1833 C 500,39.55967 460.44147,3.8e-4 411.81668,0 Z"
   style="fill:url(#Spectrum_1_)" />
	<path
   id="White_00000093136117711823620240000017682408938875315841_"
   class="st1"
   d="m 411.81668,8.83514 c -21.38751,0 -40.82254,8.50872 -55.10678,22.3147 -13.78598,-11.55232 -31.5386,-18.51911 -50.89008,-18.51911 -37.97824,0 -69.80479,26.82216 -77.54547,62.51721 -9.19762,-3.73637 -19.24622,-5.80045 -29.76926,-5.80045 -17.84055,0 -34.32356,5.91988 -47.59132,15.89631 -14.52731,-18.73377 -37.2427,-30.81536 -62.72971,-30.81536 -43.75328,0 -79.34892,35.59564 -79.34892,79.34854 0,30.79158 17.63056,57.54237 43.32671,70.68967 -18.51488,8.55688 -31.39972,27.29338 -31.39972,48.99358 0,29.74881 24.20247,53.95166 53.95128,53.95166 13.39651,0 25.65831,-4.91913 35.10168,-13.03134 2.53637,0.36722 5.12643,0.56641 7.76291,0.56641 9.70235,0 18.80632,-2.58731 26.68149,-7.08871 7.56259,3.91592 15.99915,6.00159 24.76015,6.00159 15.17761,0 28.90195,-6.3093 38.71474,-16.43146 7.32249,3.61224 15.42731,5.53381 23.83159,5.53381 17.65265,0 33.35187,-8.52249 43.20078,-21.66852 7.08902,3.43143 15.03693,5.35773 23.42664,5.35773 26.78241,0 49.05902,-19.62015 53.2374,-45.23978 28.08725,-1.84782 50.37738,-25.27353 50.37738,-53.82013 0,-0.2314 -0.0146,-0.4593 -0.0175,-0.69 3.28421,0.41592 6.63007,0.63106 10.0253,0.6311 43.75327,0 79.34891,-35.59563 79.34891,-79.34853 0,-43.7529 -35.59568,-79.34855 -79.34821,-79.34892 z" />
	<path
   id="Black_00000062190560780801297450000002757869863246288012_"
   class="st2"
   d="m 411.81628,14.98151 c -21.81265,0 -41.3931,9.54395 -54.80405,24.67959 -13.19986,-12.91743 -31.26416,-20.88404 -51.19196,-20.88404 -37.7793,-5e-5 -68.87061,28.62013 -72.78375,65.36115 -10.28714,-5.51408 -22.04301,-8.64457 -34.53134,-8.64457 -18.74072,-5e-5 -35.83347,7.04585 -48.78246,18.62865 C 136.68923,73.93773 113.99794,60.5745 88.18386,60.5745 c -40.42857,0 -73.20236,32.77379 -73.20236,73.20236 0,35.69209 25.54619,65.41248 59.35043,71.8878 -26.22546,0.20613 -47.42363,21.52148 -47.42368,47.79558 0,26.40216 21.40313,47.80527 47.80528,47.80533 12.90796,0 24.6124,-5.12488 33.21368,-13.43958 3.11712,0.63904 6.34472,0.97501 9.65086,0.97501 9.83285,0 18.96992,-2.97208 26.56866,-8.06198 7.24655,4.42392 15.76137,6.97485 24.87283,6.97485 15.14873,6e-5 28.64198,-7.0542 37.40068,-18.04788 7.30595,4.52847 15.91812,7.14972 25.14565,7.14972 17.57527,3e-5 32.92555,-9.49069 41.23158,-23.62036 7.35953,4.62515 16.06171,7.30994 25.39554,7.30994 25.51318,0 46.35403,-19.98747 47.72876,-45.15736 0.64261,0.0256 1.28592,0.049 1.93481,0.049 26.4021,0 47.80527,-21.40312 47.80527,-47.80524 0,-2.78372 -0.25137,-5.50719 -0.70801,-8.16051 5.41391,1.27649 11.05869,1.95515 16.86243,1.95515 40.42856,0 73.20236,-32.77379 73.20239,-73.20236 2e-5,-40.42858 -32.77382,-73.20241 -73.20238,-73.20241 z" />
</g>
<g
   id="_xFF0B__00000054255216110128827750000012672302154573233562_"
   transform="scale(1.3333339)">
	<g
   id="_xFF0B__00000126321729885662335950000005435185427455240578_">
		<polygon
   class="st2"
   points="379.59732,194.33119 337.54565,203.26956 333.96735,244.16997 376.01895,235.23166 372.28873,277.86859 432.54532,265.06064 436.27554,222.42372 478.32654,213.48552 481.90485,172.58507 439.85391,181.52325 443.58414,138.88634 383.32755,151.69427 "
   id="polygon29" />
		<polygon
   class="st3"
   points="388.99359,203.164 346.94244,212.10225 345.29501,230.9321 387.34613,221.99384 383.61591,264.63095 423.14877,256.22797 426.87906,213.59085 468.93024,204.65266 470.57767,185.82275 428.52643,194.76102 432.25671,152.12392 392.72382,160.52695 "
   id="polygon31" />
		
			<linearGradient
   id="SVGID_1_"
   gradientUnits="userSpaceOnUse"
   x1="347.24576"
   y1="230.48436"
   x2="468.56912"
   y2="186.32625"
   gradientTransform="translate(0.0289,-0.02789)">
			<stop
   offset="0.5"
   style="stop-color:#FEEE04"
   id="stop33" />
			<stop
   offset="1"
   style="stop-color:#FFC602"
   id="stop35" />
		</linearGradient>
		<polygon
   class="st4"
   points="390.2464,204.34175 348.19528,213.27994 346.80533,229.16705 388.85645,220.22881 385.12622,262.86597 421.89594,255.05026 425.62622,212.41316 467.6774,203.47491 469.06732,187.5878 427.01611,196.52605 430.7464,153.88895 393.97668,161.70459 "
   id="polygon38"
   style="fill:url(#SVGID_1_)" />
		<g
   id="g53">
			<defs
   id="defs41">
				<polygon
   id="SVGID_2_"
   points="390.2464,204.34175 348.19525,213.27992 346.80533,229.16704 388.85648,220.22882 " />
			</defs>
			<clipPath
   id="SVGID_3_">
				<use
   xlink:href="#SVGID_2_"
   style="overflow:visible"
   id="use43" />
			</clipPath>
			
				<radialGradient
   id="SVGID_4_"
   cx="362.35849"
   cy="251.46172"
   r="33.78614"
   gradientTransform="matrix(0.86024,0,0,0.86024,40.71867,-5.84374)"
   gradientUnits="userSpaceOnUse">
				<stop
   offset="0.1"
   style="stop-color:#FFFFFF"
   id="stop46" />
				<stop
   offset="1"
   style="stop-color:#FEEE04"
   id="stop48" />
			</radialGradient>
			<circle
   class="st5"
   cx="353.90695"
   cy="212.35097"
   r="29.064301"
   clip-path="url(#SVGID_3_)"
   id="circle51"
   style="fill:url(#SVGID_4_)" />
		</g>
	</g>
	<path
   id="스_00000168090629560625151070000016189836504021496963_"
   class="st6"
   d="m 415.89996,234.27827 -2.12354,4.64542 c -4.61331,0.48062 -8.81589,-2.54256 -8.81589,-2.54256 0,0 -4.7316,4.72131 -9.23526,6.78267 l -2.26389,-3.58875 c 0,0 8.75211,-4.31126 9.12512,-8.65405 l 0.16119,-1.34831 c 0.0666,-0.77563 -0.41348,-0.77461 -1.03714,-0.64204 l -0.62643,0.13315 0.21048,-2.4505 6.8876,-1.46399 -0.43439,4.52882 c -0.40275,4.68936 8.15215,4.60014 8.15215,4.60014 z m -24.70669,12.8599 -0.30133,3.50819 25.89978,-5.50513 0.30133,-3.50819 z" />
	<path
   id="러_00000182486935621652461920000010461163061127598229_"
   class="st6"
   d="m 407.61151,216.5378 c 1.41824,-0.30147 2.89859,-0.8718 3.82751,-1.41838 l -0.30325,3.53081 c -0.93124,0.49379 -2.75467,1.13652 -4.81247,1.57391 l -9.50089,2.01945 c -1.24042,0.26367 -2.15311,-0.60385 -2.03854,-1.93768 l 0.46478,-5.41113 c 0.0668,-0.77739 -0.67062,-0.62065 -1.16788,-0.51495 l -0.24625,0.0523 0.19641,-2.28673 11.16385,-2.37292 0.23477,-2.73326 -10.70065,2.27448 0.29559,-3.44139 15.34595,-3.23979 c 0.38721,-0.0817 0.67178,0.18935 0.63602,0.60576 l -0.68643,7.99174 c -0.0358,0.41679 -0.37906,0.82153 -0.76672,0.90393 l -7.79044,1.65588 -0.34918,4.06531 z m 6.66708,-18.58551 -0.22919,2.66849 0.47476,-0.10092 c 0.47263,-0.10046 0.90536,-0.19243 0.84979,0.45424 l -0.42621,4.96223 -3.26904,0.69485 -0.37222,4.3335 3.26904,-0.69485 -1.25055,14.56003 5.12576,-1.08951 2.3338,-27.17091 z" />
	<path
   id="플_2_"
   class="st6"
   d="m 420.21005,189.93231 -0.25119,2.92474 -19.23727,4.08896 c -2.12994,0.45274 -2.862,0.023 -2.7532,-1.24358 l 0.15131,-1.76151 c 0.0472,-0.54924 -0.0125,-0.67784 -0.65747,-0.54074 l -0.5611,0.11928 0.22693,-2.64191 17.81369,-3.78642 0.13867,-1.61456 -17.24796,3.66617 0.27039,-3.14763 21.5015,-4.55467 c 0.50226,-0.10635 0.88361,0.10318 0.82913,0.73744 l -0.45087,5.24895 c -0.0253,0.29448 -0.48956,1.04111 -0.99237,1.14798 l -15.24576,3.24055 -0.14148,1.6469 z m 3.99875,-13.73273 -29.17188,6.20062 -0.24832,2.89122 29.17188,-6.20062 z m -5.99298,-2.51042 0.34909,-4.06406 2.79648,-0.59441 0.20789,-2.4203 -22.11673,4.70102 -0.20789,2.4203 2.79651,-0.59442 -0.34909,4.06407 -3.45239,0.73381 -0.20789,2.42027 23.42859,-4.97986 0.20789,-2.42027 z m -12.11749,-0.3813 8.22864,-1.74902 -0.16833,1.95975 -8.22864,1.74904 z" />
</g>
<g
   id="리듬_세상_더_x30FB_베스트_00000103263409905183370200000018248673388108709786_"
   transform="scale(1.3333339)">
	<path
   id="트_00000000945114361324115010000005865206268483230627_"
   class="st7"
   d="m 292.82211,196.27953 3e-5,5.28065 26.7583,-5.68762 v 7.51083 l -26.7583,5.68762 -3e-5,5.49481 26.75833,-5.68762 v 6.86353 l -32.78232,6.96805 c -2.7045,0.57484 -5.07602,-1.61525 -5.07599,-4.98929 l 3e-5,-19.96988 c 0,-1.35306 -0.20966,-1.74165 -2.45709,-1.26395 l -0.48059,0.10216 6e-5,-4.73903 40.7959,-8.67137 v 7.41348 z m -20.71197,36.73794 v 7.10707 L 326.9827,228.4611 v -7.10707 z" />
	<path
   id="스"
   class="st7"
   d="m 257.44739,219.89452 -3.80115,8.78596 c -10.34314,0.79723 -18.59196,-6.45688 -18.59196,-6.45688 0,0 -8.3315,10.26788 -19.17851,14.92067 l -4.86133,-7.14273 c 0,0 18.08069,-8.5652 18.0807,-17.50706 v -4.67152 c 0,-1.59705 -1.03152,-1.58968 -2.34729,-1.31001 l -1.17694,0.25017 v -4.46246 l 13.69034,-2.90996 v 10.02298 c -2e-5,9.65544 18.18614,10.48084 18.18614,10.48084 z m -50.37197,26.4943 -2e-5,7.22339 54.64175,-11.61438 3e-5,-7.22339 z" />
	<path
   id="베_00000009573437358738409150000009700819374110416568_"
   class="st7"
   d="m 194.21686,208.61031 v 53.70152 l -10.18011,2.16388 8e-5,-46.26407 c 0,-1.31181 -0.79787,-1.82378 -1.85551,-1.59897 l -1.01749,0.21628 v -5.44411 z m -26.33435,13.48133 0.75214,-0.15985 c 0.99629,-0.21176 1.84781,0.0893 1.84781,1.33279 v 4.87025 l -6.99478,1.4868 2e-5,-10.60896 -12.35365,2.62587 v 5.56459 l 0.36133,-0.0768 c 0.99629,-0.21176 2.33051,-0.14413 2.33051,1.09943 l -3e-5,3.44955 -6.51059,1.38388 v -10.60895 l -12.15565,2.58377 v 5.48274 l 0.4567,-0.097 c 0.99629,-0.21176 2.45827,-0.25693 2.45827,0.98663 l -3e-5,22.02602 c 0,2.21579 1.48308,3.41798 3.62064,2.96364 l 21.79248,-4.6321 2e-5,-14.24913 6.99478,-1.48679 -5e-5,31.32867 9.33749,-1.98468 v -51.4241 l -11.93738,2.53738 v 5.60638 z m -14.05667,23.82677 -6.51059,1.38383 v -6.34987 l 6.51059,-1.38388 z" />
	<polygon
   id="_x2605__00000004534710938598532490000006635105183316058764_"
   class="st7"
   points="115.49011,243.03479 109.6565,245.10573 113.91053,248.23537 112.95335,254.13463 118.15737,250.33929 123.39942,251.91428 122.36155,246.43906 126.5585,241.51317 120.71313,241.92461 118.06491,237.30527 " />
	<path
   id="더_00000026850777565970525300000000796465136535063448_"
   class="st7"
   d="m 97.75137,226.35286 v 50.95247 l -9.61487,2.04367 4e-5,-25.44005 -11.0996,2.3593 v -8.43327 l 11.09962,-2.35931 2e-5,-10.34479 c 0,-1.21266 -1.35274,-1.02568 -2.34061,-0.8157 l -0.38842,0.0826 v -5.42113 z m -51.77543,15.9678 31.06099,-6.60226 v 7.61766 l -17.15793,3.64705 -3e-5,17.21352 17.15796,-3.64703 v 7.23346 l -19.82846,4.21463 c -6.00088,1.27554 -8.23213,-0.37686 -8.23209,-5.83603 l -10e-6,-17.02486 c 0,-2.12914 -0.31087,-2.65852 -2.21494,-2.64255 l -0.7855,0.007 z" />
	<path
   id="상_00000036242600277152928430000015907343537609579690_"
   class="st7"
   d="m 422.68851,98.95165 c -7.72324,-1.61201 -17.66501,-1.61291 -28.94153,6.33949 -7.41479,5.22898 -11.15408,11.50036 -11.15378,18.60844 1.2e-4,2.56075 0.55716,5.09156 1.66403,7.51534 3.397,7.43867 8.42816,7.7484 15.26831,8.16953 11.17767,0.68814 17.9007,-2.41846 24.60205,-7.12068 7.48834,-5.26069 11.31122,-11.44392 11.31122,-18.58871 3e-5,-6.37821 -3.24643,-12.93979 -12.7503,-14.92341 z m -16.6409,29.90525 c -2.27127,-0.003 -6.90372,-0.009 -6.90372,-7.19126 0,-7.44289 5.89374,-12.89062 12.30069,-13.00976 6.57642,-0.12233 7.0387,4.36275 7.0387,7.09808 -3e-5,6.70499 -5.73111,13.11208 -12.43567,13.10294 z m 44.00812,-70.43754 v 11.04959 l -12.45804,2.67197 -3e-5,20.75088 -16.64084,3.56908 9e-5,-47.81208 c 0,-2.15308 -1.75299,-2.09875 -3.7504,-1.67036 l -2.00641,0.43033 3e-5,-6.38058 22.39761,-4.80379 -6e-5,24.86693 z m -61.27851,25.41692 c 0,0 -1.82745,15.73674 -21.76791,36.3868 l -10.20935,-8.35961 c 10.2175,-8.5321 21.99289,-27.8147 21.99292,-44.80326 v -0.47948 c 0,-2.0407 -1.56586,-2.00974 -3.51605,-1.59146 l -1.97104,0.42274 v -6.04749 l 21.88043,-4.69286 -3e-5,8.87254 c -3e-5,17.35024 9.49265,19.96423 22.10529,19.85579 l -6.27402,9.9567 c -19.16574,-1.37943 -22.24024,-9.52041 -22.24024,-9.52041 z" />
	<path
   id="세_00000145045990267788316690000000397497758977897122_"
   class="st8"
   d="m 300.52637,120.565 -6.9794,9.69385 c -13.63483,-4.42908 -17.3175,-11.38359 -17.3175,-11.38359 0,0 -5.16342,9.96303 -15.98706,20.33475 l -9.02953,-7.65671 c 0,0 15.95299,-15.56155 15.95302,-30.91434 l 3e-5,-11.68612 c 0,-2.13712 -1.69156,-2.06112 -3.58353,-1.65897 l -1.90039,0.40394 V 80.9459 l 20.89447,-4.44122 -6e-5,21.4986 c -3e-5,20.58482 17.94995,22.56172 17.94995,22.56172 z m -2.1156,-51.53716 v 6.209 l 1.61829,-0.34397 c 1.61102,-0.34244 3.08609,-0.65597 3.08609,1.48116 l -3e-5,18.09442 -13.64667,2.90067 v 9.73429 l 13.64667,-2.90067 -6e-5,53.6215 14.96857,-3.18166 1.5e-4,-89.79633 z m 19.06012,-20.15971 v 6.209 l 1.61829,-0.34398 c 1.61102,-0.34243 3.05142,-0.57972 3.05142,1.55741 l -1.2e-4,79.07251 16.27054,-3.45837 1.5e-4,-87.48753 z" />
	<path
   id="듬_00000180341582744280728510000006285377037053826696_"
   class="st7"
   d="m 231.29382,148.31621 -69.17398,14.70326 -2e-5,6.73271 0.85767,-0.18231 c 4.52713,-0.96227 4.70506,-0.22183 4.70506,1.99617 l -2e-5,14.08995 c -2e-5,4.53648 3.51616,7.46661 7.85362,6.54466 l 49.64922,-10.55318 c 4.33746,-0.92195 7.85365,-5.34685 7.85367,-9.88333 l 3e-5,-21.99356 c 1e-5,-1.00808 -0.78138,-1.65925 -1.74525,-1.45437 z m -17.18985,26.36026 -29.1879,6.20403 2e-5,-12.78618 29.18791,-6.20404 z m 18.93508,-41.34133 3e-5,9.80632 -86.64761,18.41737 2e-5,-9.80632 z m -51.52603,-13.72175 -2e-5,10.06384 51.52612,-10.95213 -2e-5,9.80626 -59.71486,12.69269 c -4.81938,1.02438 -8.72626,-2.23132 -8.72626,-7.27182 l -2e-5,-11.68314 c 0,-2.02142 -0.17763,-2.63071 -4.69762,-1.66997 l -0.85634,0.18202 3e-5,-6.19811 73.9951,-15.72803 -2e-5,9.80627 z" />
	<path
   id="리_00000042719246295660188650000004627922409533853855_"
   class="st8"
   d="m 98.3169,89.70148 v 6.65979 l 1.90768,-0.40409 c 1.89912,-0.40228 3.63795,-0.7706 3.63795,1.71405 v 39.33299 c -2.8057,1.64734 -6.39886,3.03102 -10.82829,3.96927 l -26.23782,5.55772 v -12.03845 l 24.3307,-5.15376 c 1.21065,-0.25644 2.19208,-1.46494 2.19208,-2.69926 l -10e-6,-23.83489 c 0,-1.23432 -0.98142,-2.02705 -2.19207,-1.77061 l -45.63657,9.6668 v 10.29347 l 31.12589,-6.59312 v 8.09391 l -32.57258,6.89957 v 6.77158 l 0.76905,-0.1629 c 1.55306,-0.32896 3.85598,-0.81677 3.85595,1.48537 v 16.02374 c 0,3.94984 3.14055,6.48657 7.01463,5.66597 l 34.26008,-7.25697 c 6.4267,-1.36131 11.09138,-3.01189 13.91897,-4.50313 v 37.71223 l 17.64534,-3.73766 V 84.78915 Z" />
</g>
<path
   id="_x2122_"
   class="st2"
   d="m 641.41964,226.42821 0.9397,-10.94051 -4.18617,0.88979 0.20191,-2.35098 11.07267,-2.35353 -0.20194,2.35097 -4.03533,0.85774 -0.93969,10.94049 z m 18.7888,-3.99365 0.95422,-11.10953 -3.49609,11.64981 -2.7531,0.58518 -1.5273,-10.58207 -0.95423,11.10954 -2.60225,0.55312 1.14233,-13.29918 4.06551,-0.86413 1.54529,10.02763 0.0302,-0.006 3.29708,-11.05691 4.01274,-0.85292 -1.14234,13.29918 z"
   style="stroke-width:1.33333" />
</svg>
