<?xml version="1.0" encoding="UTF-8" standalone="no"?>
<!-- Generator: Adobe Illustrator 25.0.0, SVG Export Plug-In . SVG Version: 6.00 Build 0)  -->

<svg
   version="1.1"
   id="Layer_1"
   x="0px"
   y="0px"
   viewBox="0 0 666.66669 560.15051"
   xml:space="preserve"
   sodipodi:docname="Rhythm Heaven Megashit Logo.svg"
   width="666.66669"
   height="560.15051"
   inkscape:version="1.2.2 (b0a8486541, 2022-12-01)"
   xmlns:inkscape="http://www.inkscape.org/namespaces/inkscape"
   xmlns:sodipodi="http://sodipodi.sourceforge.net/DTD/sodipodi-0.dtd"
   xmlns:xlink="http://www.w3.org/1999/xlink"
   xmlns="http://www.w3.org/2000/svg"
   xmlns:svg="http://www.w3.org/2000/svg"><defs
   id="defs157242" /><sodipodi:namedview
   id="namedview157240"
   pagecolor="#505050"
   bordercolor="#eeeeee"
   borderopacity="1"
   inkscape:showpageshadow="0"
   inkscape:pageopacity="0"
   inkscape:pagecheckerboard="0"
   inkscape:deskcolor="#505050"
   showgrid="false"
   inkscape:zoom="2.8849389"
   inkscape:cx="250.09195"
   inkscape:cy="210.05644"
   inkscape:window-width="2560"
   inkscape:window-height="1414"
   inkscape:window-x="0"
   inkscape:window-y="0"
   inkscape:window-maximized="1"
   inkscape:current-layer="Layer_1" />
<style
   type="text/css"
   id="style157002">
	.st0{fill:#0096E6;}
	.st1{fill:#FFFFFF;}
	.st2{fill:url(#SVGID_1_);}
	.st3{opacity:0.2;}
	.st4{clip-path:url(#SVGID_3_);}
	.st5{fill:url(#SVGID_4_);}
	.st6{clip-path:url(#SVGID_6_);}
	.st7{fill:url(#SVGID_7_);}
	.st8{clip-path:url(#SVGID_9_);}
	.st9{fill:url(#SVGID_10_);}
	.st10{clip-path:url(#SVGID_12_);}
	.st11{fill:url(#SVGID_13_);}
	.st12{clip-path:url(#SVGID_15_);}
	.st13{fill:url(#SVGID_16_);}
	.st14{clip-path:url(#SVGID_18_);}
	.st15{fill:url(#SVGID_19_);}
	.st16{clip-path:url(#SVGID_21_);}
	.st17{fill:url(#SVGID_22_);}
	.st18{clip-path:url(#SVGID_24_);}
	.st19{fill:url(#SVGID_25_);}
	.st20{fill:url(#SVGID_26_);}
	.st21{fill:url(#SVGID_27_);}
	.st22{fill:#FF5500;}
	.st23{fill:#FFAA00;}
</style>
<g
   id="Cloud"
   transform="scale(1.3333334)">
	<path
   id="Light_Blue"
   class="st0"
   d="M 418.94382,89.55534 C 414.19846,39.38544 371.78735,0 320.34152,0 c -36.93231,0 -70.32527,20.66798 -87.29803,52.2236 -10.66962,-3.75181 -21.96167,-5.6918 -33.42792,-5.6918 -17.90863,0 -35.55208,4.83581 -50.86945,13.79733 -14.23503,-7.72553 -30.10216,-11.75916 -46.55677,-11.75916 -54.07649,0 -98.07085,44.0626 -98.07085,98.22229 0,37.21469 20.85993,70.50948 52.72677,87.12996 -2.39821,7.56354 -3.63088,15.4799 -3.63088,23.53053 0,43.8501 36.52623,79.52423 81.42262,79.52423 27.19968,0 51.53459,-12.93579 66.37209,-33.32861 18.08505,16.74585 42.04495,26.40527 67.65804,26.40527 41.39365,0 77.89548,-25.58423 92.6564,-62.90045 2.4343,0.18307 4.87408,0.27518 7.31613,0.27518 53.40192,0 96.84705,-43.02908 96.84705,-95.91951 0,-33.68643 -17.93191,-64.70227 -46.5429,-81.95352 z" />
	<path
   id="White"
   class="st1"
   d="m 408.4079,96.18523 c -1.46121,-47.2541 -40.40509,-85.24988 -88.06638,-85.24988 -36.22333,0 -68.61996,22.34667 -81.83092,55.37961 -12.0676,-5.80996 -25.34291,-8.8478 -38.89503,-8.8478 -18.37186,0 -35.77399,5.39777 -50.67473,15.66741 -13.97208,-8.93378 -30.0195,-13.62924 -46.75149,-13.62924 -48.04685,0 -87.1355,39.15689 -87.1355,87.28694 0,36.44302 22.49812,68.65326 55.79012,81.47034 -4.40032,9.08357 -6.69424,19.01482 -6.69424,29.19016 0,37.81992 31.62053,68.5889 70.48728,68.5889 28.48949,0 53.34143,-16.32315 64.39993,-40.60812 16.62381,21.1051 42.05049,33.68475 69.63019,33.68475 39.71274,0 74.36502,-26.43854 85.18719,-63.89455 4.88184,0.84322 9.83026,1.26927 14.78534,1.26927 47.3717,0 85.91171,-38.12392 85.91171,-84.98415 2e-5,-31.70319 -17.95078,-60.74133 -46.14347,-75.32364 z" />
	<path
   id="Black"
   d="m 400.72897,100.99926 c 0.0175,-0.68839 0.0523,-1.37247 0.0523,-2.06501 0,-44.36493 -36.01404,-80.32975 -80.43973,-80.32975 -36.96448,0 -68.08406,24.90777 -77.5016,58.82714 -12.51202,-7.77685 -27.32727,-12.29575 -43.22443,-12.29575 -19.1107,0 -36.66284,6.52067 -50.51738,17.40144 -13.14841,-9.65178 -29.35962,-15.36285 -46.90849,-15.36285 -43.88833,0 -79.46683,35.64611 -79.46683,79.61786 0,37.06407 25.27925,68.21048 59.50512,77.08235 -6.57247,9.62834 -10.40916,21.1665 -10.40916,33.57806 0,33.64523 28.1248,60.92007 62.81847,60.92007 31.16286,0 57.01157,-22.01056 61.95291,-50.87262 13.43335,26.08835 40.65578,43.94873 72.07735,43.94873 39.42331,0 72.25327,-28.1015 79.49921,-65.31725 6.52783,1.74478 13.38724,2.69209 20.47354,2.69209 43.21188,0 78.24207,-34.6151 78.24207,-77.315 -10e-6,-31.39604 -18.9495,-58.40113 -46.15333,-70.50951 z" />
	<rect
   x="426.23904"
   y="212.88481"
   width="10.62855"
   height="10.62869"
   id="rect157007" />
</g>
<g
   id="Megashit_00000011738056624603245680000010246291818058333870_"
   transform="scale(1.3333334)">
	<g
   id="T_00000106134643466095206060000015960334209772443060_">
		<polygon
   points="484.64093,237.27258 500,233.72665 500,197.3188 434.24429,212.49971 434.24429,299.27042 484.64093,287.63544 "
   id="polygon157010" />
		
			<linearGradient
   id="SVGID_1_"
   gradientUnits="userSpaceOnUse"
   x1="434.28775"
   y1="286.32947"
   x2="489.67981"
   y2="299.11774"
   gradientTransform="matrix(1,-0.23087,0,1,0,60.49126)">
			<stop
   offset="0"
   style="stop-color:#FF8C3C"
   id="stop157012" />
			<stop
   offset="0.75"
   style="stop-color:#FF5A00"
   id="stop157014" />
		</linearGradient>
		<path
   class="st2"
   d="m 478.21564,232.33055 v 50.36324 l -22.49667,5.19379 v -50.36327 l -15.04947,3.47444 v -23.55699 l 52.90591,-12.21429 v 23.55701 z"
   id="path157017"
   style="fill:url(#SVGID_1_)" />
		<g
   class="st3"
   id="g157029">
			<defs
   id="defs157020">
				<path
   id="SVGID_2_"
   class="st3"
   d="m 478.21564,232.33055 v 50.36324 l -22.49667,5.19379 v -50.36327 l -15.04947,3.47444 v -23.55699 l 52.90591,-12.21429 v 23.55701 z" />
			</defs>
			<clipPath
   id="SVGID_3_">
				<use
   xlink:href="#SVGID_2_"
   style="overflow:visible"
   id="use157022" />
			</clipPath>
			<g
   class="st4"
   clip-path="url(#SVGID_3_)"
   id="g157027">
				<polygon
   class="st1"
   points="571.44824,249.88934 77.96503,548.43005 49.46285,494.18933 542.97333,195.62137 "
   id="polygon157025" />
			</g>
		</g>
	</g>
	<g
   id="I_00000001645874359246218630000015328241251556398476_">
		<polygon
   points="439.99286,219.10936 404.74976,227.24586 404.74976,314.01657 439.99286,305.88007 "
   id="polygon157032" />
		
			<linearGradient
   id="SVGID_4_"
   gradientUnits="userSpaceOnUse"
   x1="411.17447"
   y1="303.58401"
   x2="433.56766"
   y2="303.58401"
   gradientTransform="matrix(1,-0.23087,0,1,0,60.49126)">
			<stop
   offset="0"
   style="stop-color:#AA37BE"
   id="stop157034" />
			<stop
   offset="1"
   style="stop-color:#5F14A5"
   id="stop157036" />
		</linearGradient>
		<path
   class="st5"
   d="m 433.56766,227.01816 v 73.92026 l -22.39319,5.16986 v -73.92024 z"
   id="path157039"
   style="fill:url(#SVGID_4_)" />
		<g
   class="st3"
   id="g157051">
			<defs
   id="defs157042">
				<path
   id="SVGID_5_"
   class="st3"
   d="m 433.56766,227.01816 v 73.92026 l -22.39319,5.16986 v -73.92024 z" />
			</defs>
			<clipPath
   id="SVGID_6_">
				<use
   xlink:href="#SVGID_5_"
   style="overflow:visible"
   id="use157044" />
			</clipPath>
			<g
   class="st6"
   clip-path="url(#SVGID_6_)"
   id="g157049">
				<polygon
   class="st1"
   points="571.44824,249.88934 77.96503,548.43005 49.46285,494.18933 542.97333,195.62137 "
   id="polygon157047" />
			</g>
		</g>
	</g>
	<g
   id="H_00000120522199811123195020000018133147371269349263_">
		<polygon
   points="410.77527,219.76018 339.17548,236.29028 339.17548,323.06097 410.77527,306.53088 "
   id="polygon157054" />
		
			<linearGradient
   id="SVGID_7_"
   gradientUnits="userSpaceOnUse"
   x1="345.60034"
   y1="297.48941"
   x2="404.35022"
   y2="297.48941"
   gradientTransform="matrix(1,-0.23087,0,1,0,60.49126)">
			<stop
   offset="0"
   style="stop-color:#FFFF00"
   id="stop157056" />
			<stop
   offset="0.75"
   style="stop-color:#FFBE00"
   id="stop157058" />
		</linearGradient>
		<path
   class="st7"
   d="m 381.85358,279.05609 -13.86002,3.19983 v 27.72687 l -22.39322,5.16989 v -73.92027 l 22.39322,-5.16988 v 23.82776 l 13.86002,-3.19983 V 232.8627 l 22.49664,-5.19377 v 73.92027 l -22.49664,5.19376 z"
   id="path157061"
   style="fill:url(#SVGID_7_)" />
		<g
   class="st3"
   id="g157075">
			<defs
   id="defs157064">
				<path
   id="SVGID_8_"
   class="st3"
   d="m 381.85358,279.05609 -13.86002,3.19983 v 27.72687 l -22.39322,5.16989 v -73.92027 l 22.39322,-5.16988 v 23.82776 l 13.86002,-3.19983 V 232.8627 l 22.49664,-5.19377 v 73.92027 l -22.49664,5.19376 z" />
			</defs>
			<clipPath
   id="SVGID_9_">
				<use
   xlink:href="#SVGID_8_"
   style="overflow:visible"
   id="use157066" />
			</clipPath>
			<g
   class="st8"
   clip-path="url(#SVGID_9_)"
   id="g157073">
				<polygon
   class="st1"
   points="488.22031,173.29839 -4.72768,473.55396 -34.45689,412.30969 458.49109,112.05412 "
   id="polygon157069" />
				<polygon
   class="st1"
   points="571.44824,249.88934 77.96503,548.43005 49.46285,494.18933 542.97333,195.62137 "
   id="polygon157071" />
			</g>
		</g>
	</g>
	<g
   id="S_00000071535515334645082720000000727866698068062348_">
		<path
   d="m 340.90616,245.77957 c -3.63519,-0.67291 -7.40643,-0.56943 -11.20856,0.30835 -8.76807,2.02428 -16.22568,7.10712 -22.173,15.12039 -5.40503,7.311 -12.95526,44.39853 -12.95526,44.39853 v 35.466 l 4.3985,0.4465 c 4.2229,0.42917 8.38498,0.17947 12.37045,-0.74063 8.2518,-1.90509 15.42761,-6.39502 21.3161,-13.32932 6.79654,-7.97003 10.24258,-16.77133 10.24258,-26.15894 0,-6.29089 1.96573,-20.78268 1.96573,-20.78268 v -33.99535 z"
   id="path157078" />
		
			<linearGradient
   id="SVGID_10_"
   gradientUnits="userSpaceOnUse"
   x1="300.99454"
   y1="306.9393"
   x2="338.43723"
   y2="306.9393"
   gradientTransform="matrix(1,-0.23087,0,1,0,60.49126)">
			<stop
   offset="0"
   style="stop-color:#C8F000"
   id="stop157080" />
			<stop
   offset="0.8"
   style="stop-color:#14B400"
   id="stop157082" />
		</linearGradient>
		<path
   class="st9"
   d="m 300.99454,334.95477 v -21.49915 c 2.17209,0.32889 4.12006,0.29434 5.84396,-0.10364 1.68939,-0.39005 3.1633,-1.30795 4.42175,-2.75378 1.25842,-1.44583 1.88763,-2.96298 1.88763,-4.55151 0,-1.37189 -0.79297,-3.31888 -2.37894,-5.84094 -3.30988,-5.30112 -4.96478,-10.74963 -4.96478,-16.34555 0,-7.11221 2.17209,-13.60675 6.51627,-19.48352 4.68896,-6.31744 10.4812,-10.27213 17.37671,-11.86407 2.96509,-0.68454 5.87845,-0.76146 8.74008,-0.23073 v 20.95763 c -1.37909,-0.11487 -2.55133,-0.0609 -3.51672,0.16205 -1.79282,0.41391 -3.23227,1.33289 -4.3183,2.75696 -1.08606,1.42407 -1.62909,3.11087 -1.62909,5.06042 0,1.11917 0.17239,2.10831 0.51718,2.96738 0.34476,0.85907 1.10327,2.14612 2.27551,3.86115 3.13745,4.65494 4.70621,9.56378 4.70621,14.72647 0,7.58154 -2.74097,14.58649 -8.22293,21.01477 -4.68893,5.52316 -10.32605,9.04489 -16.91125,10.56522 -3.30988,0.76411 -6.75763,0.9644 -10.34329,0.60084 z"
   id="path157085"
   style="fill:url(#SVGID_10_)" />
		<g
   class="st3"
   id="g157097">
			<defs
   id="defs157088">
				<path
   id="SVGID_11_"
   class="st3"
   d="m 300.99454,334.95477 v -21.49915 c 2.17209,0.32889 4.12006,0.29434 5.84396,-0.10364 1.68939,-0.39005 3.1633,-1.30795 4.42175,-2.75378 1.25842,-1.44583 1.88763,-2.96298 1.88763,-4.55151 0,-1.37189 -0.79297,-3.31888 -2.37894,-5.84094 -3.30988,-5.30112 -4.96478,-10.74963 -4.96478,-16.34555 0,-7.11221 2.17209,-13.60675 6.51627,-19.48352 4.68896,-6.31744 10.4812,-10.27213 17.37671,-11.86407 2.96509,-0.68454 5.87845,-0.76146 8.74008,-0.23073 v 20.95763 c -1.37909,-0.11487 -2.55133,-0.0609 -3.51672,0.16205 -1.79282,0.41391 -3.23227,1.33289 -4.3183,2.75696 -1.08606,1.42407 -1.62909,3.11087 -1.62909,5.06042 0,1.11917 0.17239,2.10831 0.51718,2.96738 0.34476,0.85907 1.10327,2.14612 2.27551,3.86115 3.13745,4.65494 4.70621,9.56378 4.70621,14.72647 0,7.58154 -2.74097,14.58649 -8.22293,21.01477 -4.68893,5.52316 -10.32605,9.04489 -16.91125,10.56522 -3.30988,0.76411 -6.75763,0.9644 -10.34329,0.60084 z" />
			</defs>
			<clipPath
   id="SVGID_12_">
				<use
   xlink:href="#SVGID_11_"
   style="overflow:visible"
   id="use157090" />
			</clipPath>
			<g
   class="st10"
   clip-path="url(#SVGID_12_)"
   id="g157095">
				<polygon
   class="st1"
   points="488.22031,173.29839 -4.72768,473.55396 -34.45689,412.30969 458.49109,112.05412 "
   id="polygon157093" />
			</g>
		</g>
	</g>
	<g
   id="A_00000088132194609141221120000011813474450706307241_">
		<path
   d="m 293.17651,261.81833 c -6.42197,-7.12181 -17.17606,-9.98471 -28.06531,-7.47073 -10.87573,2.51086 -21.62212,10.33658 -28.04552,20.42398 -5.52328,8.67203 -7.5769,16.58743 -7.5769,29.20547 v 47.16324 l 71.24486,-16.44818 v -47.16324 c 0,-12.63348 -2.04831,-19.60187 -7.55713,-25.71054 z"
   id="path157100" />
		
			<linearGradient
   id="SVGID_13_"
   gradientUnits="userSpaceOnUse"
   x1="235.91345"
   y1="299.353"
   x2="294.30884"
   y2="299.353"
   gradientTransform="matrix(1,-0.23087,0,1,0,60.48459)">
			<stop
   offset="0"
   style="stop-color:#6EE6FF"
   id="stop157102" />
			<stop
   offset="0.85"
   style="stop-color:#00A0FF"
   id="stop157104" />
		</linearGradient>
		<path
   class="st11"
   d="m 288.02756,266.84961 c -5.28323,-5.85818 -14.05206,-8.12381 -22.91641,-6.07733 -8.86429,2.04648 -17.61996,8.36783 -22.89723,16.65421 -4.62517,7.26257 -6.30046,13.85544 -6.30046,25.06757 v 40.73819 l 22.3381,-5.15717 v -16.22293 l 13.71918,-3.14716 v 16.20276 l 22.3381,-5.15714 v -40.73822 c 0,-11.21213 -1.66376,-17.04279 -6.28128,-22.16278 z m -15.49945,33.87625 -7.41696,-2.37146 -7.41696,5.79617 1.39053,-9.02286 -5.9745,-4.79855 8.27635,-3.20493 3.72458,-8.76184 3.72458,7.04208 8.27637,-0.61658 -5.97452,7.55719 z"
   id="path157107"
   style="fill:url(#SVGID_13_)" />
		<g
   class="st3"
   id="g157119">
			<defs
   id="defs157110">
				<path
   id="SVGID_14_"
   class="st3"
   d="m 288.02756,266.84961 c -5.28323,-5.85818 -14.05206,-8.12381 -22.91641,-6.07733 -8.86429,2.04648 -17.61996,8.36783 -22.89723,16.65421 -4.62517,7.26257 -6.30046,13.85544 -6.30046,25.06757 v 40.73819 l 22.3381,-5.15717 v -16.22293 l 13.71918,-3.14716 v 16.20276 l 22.3381,-5.15714 v -40.73822 c 0,-11.21213 -1.66376,-17.04279 -6.28128,-22.16278 z m -15.49945,33.87625 -7.41696,-2.37146 -7.41696,5.79617 1.39053,-9.02286 -5.9745,-4.79855 8.27635,-3.20493 3.72458,-8.76184 3.72458,7.04208 8.27637,-0.61658 -5.97452,7.55719 z" />
			</defs>
			<clipPath
   id="SVGID_15_">
				<use
   xlink:href="#SVGID_14_"
   style="overflow:visible"
   id="use157112" />
			</clipPath>
			<g
   class="st12"
   clip-path="url(#SVGID_15_)"
   id="g157117">
				<polygon
   class="st1"
   points="488.22031,173.29839 -4.72768,473.55396 -34.45689,412.30969 458.49109,112.05412 "
   id="polygon157115" />
			</g>
		</g>
	</g>
	<g
   id="G_00000093166422709984804910000003927688650719084172_">
		<path
   d="m 230.41302,271.61139 c -7.37564,0.22403 -12.47856,0.8519 -18.82861,2.31793 -14.40187,3.32495 -25.56766,10.27255 -34.13542,21.24112 -7.81822,10.00885 -12.30191,22.67068 -12.30191,34.73853 0,12.57364 4.7612,23.1301 13.40619,29.72617 8.70241,6.64069 18.47484,8.07477 32.67641,4.79608 6.21104,-1.43393 10.85547,-3.00714 19.11337,-6.47546 l 5.23129,-2.19714 V 271.4546 Z"
   id="path157122" />
		
			<linearGradient
   id="SVGID_16_"
   gradientUnits="userSpaceOnUse"
   x1="1191.4028"
   y1="4270.8896"
   x2="1249.1124"
   y2="4258.0356"
   gradientTransform="matrix(0.9523,0.0031,-0.2099,1.04947,-66.54125,-4157.4707)">
			<stop
   offset="0"
   style="stop-color:#FF8232"
   id="stop157124" />
			<stop
   offset="0.75"
   style="stop-color:#C80000"
   id="stop157126" />
		</linearGradient>
		<path
   class="st13"
   d="m 229.14925,351.91809 c -7.4733,3.13895 -11.9091,4.70029 -17.91951,6.08789 -12.55431,2.89841 -20.70026,1.70917 -28.14761,-3.9733 -7.41759,-5.65976 -11.50996,-14.72278 -11.50996,-25.60748 0,-10.41895 3.76941,-21.24429 10.52806,-29.89648 7.37019,-9.43503 16.74303,-15.23273 29.48407,-18.17422 5.5905,-1.29065 10.28261,-1.9313 17.56496,-2.15176 v 23.16257 c -6.84596,0.13852 -11.11777,0.66101 -16.36487,1.87241 -12.21912,2.82101 -19.14693,10.09982 -19.14693,20.1348 0,8.43427 5.18225,13.33578 13.17377,12.59683 v -22.04434 l 22.33803,-5.15717 v 43.15025 z"
   id="path157129"
   style="fill:url(#SVGID_16_)" />
		<g
   class="st3"
   id="g157141">
			<defs
   id="defs157132">
				<path
   id="SVGID_17_"
   class="st3"
   d="m 229.14925,351.91809 c -7.4733,3.13895 -11.9091,4.70029 -17.91951,6.08789 -12.55431,2.89841 -20.70026,1.70917 -28.14761,-3.9733 -7.41759,-5.65976 -11.50996,-14.72278 -11.50996,-25.60748 0,-10.41895 3.76941,-21.24429 10.52806,-29.89648 7.37019,-9.43503 16.74303,-15.23273 29.48407,-18.17422 5.5905,-1.29065 10.28261,-1.9313 17.56496,-2.15176 v 23.16257 c -6.84596,0.13852 -11.11777,0.66101 -16.36487,1.87241 -12.21912,2.82101 -19.14693,10.09982 -19.14693,20.1348 0,8.43427 5.18225,13.33578 13.17377,12.59683 v -22.04434 l 22.33803,-5.15717 v 43.15025 z" />
			</defs>
			<clipPath
   id="SVGID_18_">
				<use
   xlink:href="#SVGID_17_"
   style="overflow:visible"
   id="use157134" />
			</clipPath>
			<g
   class="st14"
   clip-path="url(#SVGID_18_)"
   id="g157139">
				<polygon
   class="st1"
   points="488.22031,173.29839 -4.72768,473.55396 -34.45689,412.30969 458.49109,112.05412 "
   id="polygon157137" />
			</g>
		</g>
	</g>
	<g
   id="E_00000013878832237012640600000001705909344127187123_">
		<path
   d="m 143.25227,283.92886 c -9.40369,2.12082 -16.46031,5.73746 -21.59895,10.99243 -6.48856,6.63516 -10.21017,15.50613 -10.21017,24.33936 0,6.17773 1.63132,10.5387 5.25591,13.56586 -4.07828,5.27563 -5.9649,11.13699 -5.9649,18.15549 0,8.70001 3.0382,15.20435 8.7864,18.81174 6.22456,3.90573 12.8222,3.45593 21.44932,1.4642 l 29.90851,-6.90491 v -86.80215 z"
   id="path157144" />
		
			<linearGradient
   id="SVGID_19_"
   gradientUnits="userSpaceOnUse"
   x1="1135.312"
   y1="4275.8052"
   x2="1182.7633"
   y2="4265.2363"
   gradientTransform="matrix(0.9523,0.0031,-0.2099,1.04947,-66.54125,-4157.4702)">
			<stop
   offset="0"
   style="stop-color:#C8F000"
   id="stop157146" />
			<stop
   offset="0.8"
   style="stop-color:#14B400"
   id="stop157148" />
		</linearGradient>
		<path
   class="st15"
   d="m 140.96982,364.83322 c -8.75522,2.02109 -13.10061,1.73193 -17.26495,-0.88126 -4.34743,-2.72806 -6.54596,-7.68945 -6.54596,-14.45361 0,-8.18243 2.83658,-13.50195 10.30988,-19.20474 -7.06417,-2.0434 -9.60074,-5.3428 -9.60074,-12.51608 0,-6.98236 2.85044,-13.70578 7.77332,-18.74023 3.88402,-3.97205 9.68256,-6.87622 17.59225,-8.67886 l 21.2198,-4.89899 v 20.8374 l -14.89203,3.43808 c -5.89137,1.36014 -7.69153,2.73923 -7.69153,5.95764 0,3.21841 1.80016,3.76627 7.69153,2.40616 l 14.89203,-3.43811 -2e-5,15.62149 -14.89201,3.43811 c -5.89137,1.36011 -6.49142,4.12369 -6.49142,5.67834 0,1.66376 0.60005,4.07611 6.49142,2.71597 l 14.89203,-3.43808 v 20.73514 z"
   id="path157151"
   style="fill:url(#SVGID_19_)" />
		<g
   class="st3"
   id="g157163">
			<defs
   id="defs157154">
				<path
   id="SVGID_20_"
   class="st3"
   d="m 140.96982,364.83322 c -8.75522,2.02109 -13.10061,1.73193 -17.26495,-0.88126 -4.34743,-2.72806 -6.54596,-7.68945 -6.54596,-14.45361 0,-8.18243 2.83658,-13.50195 10.30988,-19.20474 -7.06417,-2.0434 -9.60074,-5.3428 -9.60074,-12.51608 0,-6.98236 2.85044,-13.70578 7.77332,-18.74023 3.88402,-3.97205 9.68256,-6.87622 17.59225,-8.67886 l 21.2198,-4.89899 v 20.8374 l -14.89203,3.43808 c -5.89137,1.36014 -7.69153,2.73923 -7.69153,5.95764 0,3.21841 1.80016,3.76627 7.69153,2.40616 l 14.89203,-3.43811 -2e-5,15.62149 -14.89201,3.43811 c -5.89137,1.36011 -6.49142,4.12369 -6.49142,5.67834 0,1.66376 0.60005,4.07611 6.49142,2.71597 l 14.89203,-3.43808 v 20.73514 z" />
			</defs>
			<clipPath
   id="SVGID_21_">
				<use
   xlink:href="#SVGID_20_"
   style="overflow:visible"
   id="use157156" />
			</clipPath>
			<g
   class="st16"
   clip-path="url(#SVGID_21_)"
   id="g157161">
				<polygon
   class="st1"
   points="488.22031,173.29839 -4.72768,473.55396 -34.45689,412.30969 458.49109,112.05412 "
   id="polygon157159" />
			</g>
		</g>
	</g>
	<g
   id="M_00000081647093195280493480000014035226258231994519_">
		<path
   d="m 107.76884,309.08939 c -6.7294,-6.18307 -15.86571,-8.16364 -26.42193,-5.72656 -5.76461,1.33087 -10.74155,3.63147 -15.6963,7.30438 -4.95522,-1.38501 -9.93265,-1.38745 -15.69678,-0.0567 -10.55622,2.4371 -19.69253,8.63623 -26.42193,17.92651 -6.86357,9.4747 -9.29606,18.12143 -9.29606,33.0426 v 45.86783 L 117.0649,383.70749 v -45.86783 c 0,-14.92117 -2.43248,-22.44473 -9.29606,-28.75027 z"
   id="path157166" />
		
			<linearGradient
   id="SVGID_22_"
   gradientUnits="userSpaceOnUse"
   x1="12.4552"
   y1="305.94937"
   x2="112.84118"
   y2="305.94931"
   gradientTransform="matrix(1,-0.23087,0,1,0,60.48459)">
			<stop
   offset="0"
   style="stop-color:#FFFF00"
   id="stop157168" />
			<stop
   offset="0.75"
   style="stop-color:#FFBE00"
   id="stop157170" />
		</linearGradient>
		<path
   class="st17"
   d="m 102.92142,314.42438 c -5.48999,-5.04422 -12.89857,-6.63998 -21.57433,-4.63702 -5.82584,1.345 -10.51448,3.7804 -15.69666,8.28244 -5.18219,-2.10922 -9.84295,-2.38617 -15.69666,-1.03473 -8.64999,1.99701 -16.08434,7.01956 -21.57439,14.59869 -5.77408,7.97131 -7.71874,15.07599 -7.71874,28.46271 v 39.44327 l 22.47431,-5.1886 v -43.71481 c 0,-6.58765 2.12326,-9.34384 5.59142,-10.14453 3.46816,-0.80069 5.68687,0.95309 5.68687,7.54071 v 43.71484 l 22.47435,-5.18863 V 342.8439 c 0,-6.58765 2.21875,-9.36588 5.68684,-10.16653 3.46822,-0.80072 5.59144,0.9751 5.59144,7.56274 v 43.71481 l 22.47435,-5.1886 v -39.4433 c 1e-5,-13.38668 -1.94466,-19.59347 -7.7188,-24.89864 z"
   id="path157173"
   style="fill:url(#SVGID_22_)" />
		<g
   class="st3"
   id="g157185">
			<defs
   id="defs157176">
				<path
   id="SVGID_23_"
   class="st3"
   d="m 102.92142,314.42438 c -5.48999,-5.04422 -12.89857,-6.63998 -21.57433,-4.63702 -5.82584,1.345 -10.51448,3.7804 -15.69666,8.28244 -5.18219,-2.10922 -9.84295,-2.38617 -15.69666,-1.03473 -8.64999,1.99701 -16.08434,7.01956 -21.57439,14.59869 -5.77408,7.97131 -7.71874,15.07599 -7.71874,28.46271 v 39.44327 l 22.47431,-5.1886 v -43.71481 c 0,-6.58765 2.12326,-9.34384 5.59142,-10.14453 3.46816,-0.80069 5.68687,0.95309 5.68687,7.54071 v 43.71484 l 22.47435,-5.18863 V 342.8439 c 0,-6.58765 2.21875,-9.36588 5.68684,-10.16653 3.46822,-0.80072 5.59144,0.9751 5.59144,7.56274 v 43.71481 l 22.47435,-5.1886 v -39.4433 c 1e-5,-13.38668 -1.94466,-19.59347 -7.7188,-24.89864 z" />
			</defs>
			<clipPath
   id="SVGID_24_">
				<use
   xlink:href="#SVGID_23_"
   style="overflow:visible"
   id="use157178" />
			</clipPath>
			<g
   class="st18"
   clip-path="url(#SVGID_24_)"
   id="g157183">
				<polygon
   class="st1"
   points="488.22031,173.29839 -4.72768,473.55396 -34.45689,412.30969 458.49109,112.05412 "
   id="polygon157181" />
			</g>
		</g>
	</g>
	<g
   id="_x2605__00000052070486418197664890000002389501922079356344_">
		<polygon
   points="401.6684,298.44952 387.14297,301.15134 398.12488,311.0087 396.23776,325.5824 408.97165,318.24728 422.29144,324.62677 419.22766,310.17084 429.35532,299.43219 414.69861,297.90512 407.64053,284.91736 "
   id="polygon157188" />
		<radialGradient
   id="SVGID_25_"
   cx="408.39398"
   cy="306.14395"
   r="11.08244"
   gradientUnits="userSpaceOnUse">
			<stop
   offset="0"
   style="stop-color:#FAFFC8"
   id="stop157190" />
			<stop
   offset="0.45"
   style="stop-color:#C8FF00"
   id="stop157192" />
			<stop
   offset="1"
   style="stop-color:#00A000"
   id="stop157194" />
		</radialGradient>
		<polygon
   class="st19"
   points="404.87558,302.50281 397.10223,303.9483 402.9664,309.21231 401.95718,317.01303 408.77588,313.08533 415.89453,316.49469 414.25815,308.77588 419.68576,303.02094 411.8306,302.20273 408.06665,295.27484 "
   id="polygon157197"
   style="fill:url(#SVGID_25_)" />
	</g>
	<g
   id="_x2605__00000021111600942016354720000014308090122250428600_">
		<polygon
   points="192.12645,257.89011 191.19641,270.79678 180.04703,277.40408 192.05502,282.24878 194.84177,294.89096 203.20296,284.98148 216.09224,286.22375 209.22336,275.22159 214.38322,263.3555 201.82599,266.45593 "
   id="polygon157200" />
		<radialGradient
   id="SVGID_26_"
   cx="198.7379"
   cy="276.19958"
   r="9.6503201"
   gradientUnits="userSpaceOnUse">
			<stop
   offset="0"
   style="stop-color:#FFFFA0"
   id="stop157202" />
			<stop
   offset="0.55"
   style="stop-color:#FFFF00"
   id="stop157204" />
			<stop
   offset="1"
   style="stop-color:#FFC800"
   id="stop157206" />
		</radialGradient>
		<polygon
   class="st20"
   points="195.60124,266.39838 195.11029,273.21707 189.21898,276.70834 195.57397,279.27222 197.04686,285.95456 201.46539,280.71771 208.25682,281.37241 204.62932,275.56281 207.3567,269.28961 200.7289,270.92599 "
   id="polygon157209"
   style="fill:url(#SVGID_26_)" />
	</g>
	<g
   id="_x2605__00000119802173393419444920000006065638629973878420_">
		<polygon
   points="8.37471,381.38324 10.35062,395.31213 0,404.89249 13.8869,407.29504 19.71666,420.11288 26.3645,407.6377 40.36288,405.99579 30.53158,395.87585 33.27778,382.04736 20.64767,388.2666 "
   id="polygon157212" />
		<radialGradient
   id="SVGID_27_"
   cx="20.251539"
   cy="399.93594"
   r="11.19872"
   gradientUnits="userSpaceOnUse">
			<stop
   offset="0"
   style="stop-color:#D9FFFF"
   id="stop157214" />
			<stop
   offset="0.42"
   style="stop-color:#96D2FF"
   id="stop157216" />
			<stop
   offset="1"
   style="stop-color:#00AAFF"
   id="stop157218" />
		</radialGradient>
		<polygon
   class="st21"
   points="13.56914,388.9715 14.68741,396.85391 8.82337,402.28159 16.70579,403.64532 20.00594,410.90042 23.77002,403.83621 31.67971,402.90887 26.11563,397.18118 27.67021,389.3533 20.52429,392.8718 "
   id="polygon157221"
   style="fill:url(#SVGID_27_)" />
	</g>
</g>
<g
   id="Rhythm_Heaven_x2122__1_"
   transform="scale(1.3333334)">
	<path
   id="_x2122__1_"
   class="st22"
   d="m 385.61823,206.57233 v -6.64885 l -2.79529,0.64534 v -1.43344 l 7.39365,-1.70695 v 1.43344 l -2.69455,0.62207 v 6.64886 z m 12.54599,-2.89647 v -6.75157 l -1.69733,7.14343 -1.83835,0.42441 -1.65698,-6.36902 v 6.75157 l -1.73761,0.40117 v -8.08231 l 2.71469,-0.62672 1.63687,6.03284 0.0201,-0.005 1.59656,-6.77934 2.67944,-0.61859 v 8.08229 z" />
	<path
   id="N_2_"
   class="st22"
   d="m 364.94553,133.47246 c 0,0 -0.10928,28.50085 -0.46405,33.51434 -0.55414,7.83102 -2.65833,8.04099 -4.44885,6.86636 -3.57291,-2.34386 -10.24875,-15.69151 -16.22626,-27.29895 l -8.72061,2.01331 v 72.12408 l 10.66339,-2.46184 0.0359,-18.30072 c 0.0185,-9.39415 2.5835,-10.00523 6.31052,-6.59277 2.82822,2.58954 6.67645,8.2997 12.74066,18.00945 l 14.11108,-3.2578 V 130.2399 Z" />
	<path
   id="E_4_"
   class="st22"
   d="m 311.12167,205.71971 c -0.32355,0.002 -2.71893,-0.0798 -2.9751,-1.90732 -0.14835,-1.05835 0.35965,-2.052 1.63763,-2.83374 1.99872,-1.22263 8.91724,-3.21101 15.55759,-4.76833 v -9.18239 c 0,0 -12.02365,2.89319 -15.72131,2.34328 -1.12305,-0.16702 -1.87112,-0.76062 -2.01978,-1.79829 -0.15198,-1.06055 0.38226,-2.01616 1.63763,-2.83376 3.38168,-2.20241 18.55994,-5.47678 18.55994,-5.47678 v -21.18546 l -31.25159,7.21498 -6e-5,56.47879 31.90668,-7.36623 v -11.7365 c -8.51571,1.93467 -14.27181,3.03503 -17.33163,3.05175 z" />
	<path
   id="V_1_"
   class="st22"
   d="m 276.57224,163.58302 c 0,0 -3.38544,22.30527 -6.39157,32.61308 -0.85895,2.94528 -2.93506,7.45193 -5.759,1.00818 -1.01144,-2.30791 -4.01379,-13.09067 -6.21729,-26.99167 l -9.74971,2.2509 c 0.85327,9.55812 5.53366,35.37383 11.76967,50.41368 l 18.90878,-4.36543 c 6.95996,-18.41927 11.13596,-37.87396 12.55524,-58.41856 z" />
	<path
   id="A_1_"
   class="st22"
   d="m 243.00967,194.2457 c -4.7321,-8.71825 -10.23502,-6.91159 -13.0547,-5.97861 -3.69441,1.22243 -6.97348,3.11981 -10.40469,16.72995 -3.60678,14.30653 -7.53752,44.39368 -7.53752,44.39368 l 9.89896,-2.28535 1.02306,-5.73294 c 0.49124,-2.75203 2.24284,-4.50032 4.91287,-5.286 2.56741,-0.75546 7.67122,-1.99104 10.2899,-2.28876 1.10625,-0.12579 2.40616,0.74742 2.784,2.47948 l 1.33736,6.13071 13.48325,-3.11285 c -2e-5,-1e-5 -6.70728,-33.94871 -12.73249,-45.04931 z m -8.33361,31.97407 -6.68321,1.54295 c -1.67654,0.38705 -2.65149,-0.63687 -2.44739,-3.02802 0.19101,-2.23759 1.17105,-6.98082 1.54372,-8.58252 0.82419,-3.54234 2.44394,-5.01884 4.34877,-5.28448 2.44173,-0.34053 4.57437,1.79378 5.74196,7.57959 0.11287,0.55937 0.39786,1.72028 0.58356,3.29802 0.22547,1.91578 -0.71484,3.92672 -3.08741,4.47446 z" />
	<path
   id="E_1_"
   class="st22"
   d="m 190.15474,237.56664 c -0.32355,0.002 -2.71893,-0.0798 -2.97508,-1.90732 -0.14835,-1.05835 0.35963,-2.052 1.63763,-2.83374 1.99872,-1.22263 8.91724,-3.21101 15.55759,-4.76833 v -9.18239 c 0,0 -12.02365,2.89319 -15.72131,2.34328 -1.12306,-0.16702 -1.87112,-0.76062 -2.01979,-1.79829 -0.15196,-1.06055 0.38228,-2.01616 1.63763,-2.83376 3.3817,-2.20241 18.55994,-5.47678 18.55994,-5.47678 V 188.2725 l -31.25159,7.215 -6e-5,56.47879 31.90668,-7.36624 v -10.08514 c -8.51572,1.93463 -14.27183,3.035 -17.33164,3.05173 z" />
	<path
   id="H_2_"
   class="st22"
   d="m 151.38313,190.41864 c 0,11.2702 0.0568,19.70512 -1.48712,25.23216 -0.93782,3.35738 -3.0023,5.91269 -5.75899,7.84726 -2.80789,1.97052 -5.6226,2.83376 -8.37927,2.88821 -3.36153,0.0665 -5.81865,-1.76266 -6.17778,-5.49771 -0.5159,-5.36545 -0.48195,-12.14612 -0.48195,-21.54193 l -12.20045,2.8167 v 83.10464 l 16.75851,-3.86902 c 0,-10.57623 0.21684,-18.37204 1.52042,-23.23438 0.88837,-3.31355 3.30469,-6.11003 5.74426,-7.75754 2.85106,-1.92535 5.47397,-2.88832 8.23624,-2.93314 3.35716,-0.0545 5.9062,1.67831 6.22293,5.02621 0.46402,4.90454 0.49425,11.57428 0.49425,20.67599 l 12.418,-2.86691 v -83.79433 z" />
	<path
   id="M_1_"
   class="st23"
   d="m 353.48193,56.18908 c -5.20261,17.17919 -8.14719,25.57912 -10.71234,32.66038 -4.37158,12.04894 -8.90582,7.31609 -11.01926,3.95609 -2.45676,-3.93805 -5.79865,-11.59737 -11.59732,-25.63338 l -14.3252,3.30723 3e-5,67.43124 11.88641,-2.7442 c -0.0904,-10.74831 0.0903,-18.04626 0.66837,-20.88238 0.52393,-2.54707 2.0593,-2.90836 3.61285,-0.37936 1.2825,2.07744 3.30585,6.57549 7.33414,15.82446 l 7.96445,-1.83873 c 4.38968,-11.79602 6.75809,-17.74306 8.43811,-20.65144 1.35483,-2.36642 3.93805,-4.02834 4.71481,0.34324 0.59601,3.3058 0.54184,12.274 0.52374,23.25713 l 12.32013,-2.84432 V 53.92451 Z" />
	<path
   id="H_1_"
   class="st23"
   d="m 284.94562,91.39702 c -0.0542,9.21279 -0.0361,17.61272 -0.43356,20.68369 -0.92133,7.33413 -13.45804,10.63991 -14.0722,3.8838 -0.28903,-3.17931 -0.54193,-7.37958 -0.5419,-16.75498 l -10.13428,2.33968 v 61.78011 l 12.91608,-2.9819 c 0,-9.80893 3e-5,-14.07088 0.16263,-17.43082 0.45163,-8.85156 13.74698,-10.85669 14.90311,-3.16121 0.52383,3.50449 0.61417,5.18449 0.61417,13.09665 l 10.29669,-2.37717 V 88.23166 Z" />
	<path
   id="T_1_"
   class="st23"
   d="m 216.40926,96.49973 -8e-5,24.86744 7.2077,-1.66402 c 4.37144,-1.00923 6.17799,-0.44003 6.17799,7.29801 v 31.9418 l 11.8322,-2.73167 2e-5,-29.28237 c 0,-13.00667 1.22118,-16.28894 7.6593,-17.7753 l 5.88899,-1.35958 6e-5,-20.24418 z" />
	<path
   id="Y_1_"
   class="st23"
   d="m 211.56796,112.92368 -11.0555,2.55236 c 0,0 0.16255,11.38051 -0.27089,19.76237 -0.63242,12.26576 -12.9884,14.90311 -13.98187,3.23354 -0.50583,-6.12386 -0.74059,-18.32975 -0.74059,-18.32975 l -13.74699,3.17374 v 9.95341 c -6e-5,23.75462 15.44485,26.68115 23.51968,19.907 0.48776,-0.41548 0.97552,-0.66837 1.37291,-0.48773 0.4516,0.19872 0.43352,0.68646 0.25296,1.58966 -0.48776,2.36642 -3.99228,7.04512 -11.0735,8.94183 -5.40132,1.44514 -10.69417,2.3567 -13.33151,2.77217 v 16.48441 c 11.88631,-1.53542 25.65132,-4.93147 32.06422,-14.79463 3.34193,-5.14833 5.09425,-10.58572 5.96133,-18.64241 1.35487,-12.68122 1.02975,-36.11597 1.02975,-36.11597 z" />
	<path
   id="H_3_"
   class="st23"
   d="m 151.32321,111.89913 c -0.0542,9.21279 -0.0361,17.61272 -0.43359,20.68369 -0.92131,7.33412 -13.45802,10.63991 -14.0722,3.8838 -0.289,-3.17932 -0.54192,-7.37959 -0.54189,-16.75498 l -10.13427,2.33968 -1e-5,61.78011 12.91606,-2.9819 c 3e-5,-9.80893 5e-5,-14.07086 0.16264,-17.43082 0.45163,-8.85156 13.74698,-10.85667 14.90309,-3.16121 0.52386,3.5045 0.61418,5.18449 0.61417,13.09666 l 10.29669,-2.37718 v -62.24323 z" />
	<path
   id="R_1_"
   class="st23"
   d="m 119.76467,124.54411 c 7e-5,-26.06693 -25.507,-33.63594 -56.70427,-22.49025 v 84.14599 l 13.2954,-3.06949 5e-5,-21.06665 c 1e-5,-3.21548 2.36646,-2.65547 4.55223,-0.70453 1.53548,1.37292 10.76639,10.31476 17.21535,16.74573 l 20.29695,-4.68591 c 0,0 -17.69561,-18.0752 -19.73692,-19.86356 11.88642,-4.44382 21.08117,-16.02446 21.08121,-29.01133 z m -35.71332,24.51328 c -4.93158,1.15608 -7.67737,-1.58966 -7.67735,-7.4606 l 2e-5,-5.67221 c -2.6e-4,-4.09114 0.79482,-7.64124 4.44383,-8.79733 10.5948,-3.35664 17.97411,1.21032 17.97408,8.38186 -2e-5,6.7019 -5.13029,11.29022 -14.74058,13.54828 z" />
</g>
</svg>
