<?xml version="1.0" encoding="UTF-8" standalone="no"?>
<!-- Generator: Adobe Illustrator 25.0.0, SVG Export Plug-In . SVG Version: 6.00 Build 0)  -->

<svg
   version="1.1"
   id="Layer_1"
   x="0px"
   y="0px"
   viewBox="0 0 666.66669 347.64911"
   xml:space="preserve"
   sodipodi:docname="Rhythm World (리듬 세상) Logo (Fever Style).svg"
   width="666.66669"
   height="347.64911"
   inkscape:version="1.2.2 (b0a8486541, 2022-12-01)"
   xmlns:inkscape="http://www.inkscape.org/namespaces/inkscape"
   xmlns:sodipodi="http://sodipodi.sourceforge.net/DTD/sodipodi-0.dtd"
   xmlns="http://www.w3.org/2000/svg"
   xmlns:svg="http://www.w3.org/2000/svg"><defs
   id="defs1802" /><sodipodi:namedview
   id="namedview1800"
   pagecolor="#505050"
   bordercolor="#eeeeee"
   borderopacity="1"
   inkscape:showpageshadow="0"
   inkscape:pageopacity="0"
   inkscape:pagecheckerboard="0"
   inkscape:deskcolor="#505050"
   showgrid="false"
   inkscape:zoom="3.814"
   inkscape:cx="250"
   inkscape:cy="130.30939"
   inkscape:window-width="2560"
   inkscape:window-height="1412"
   inkscape:window-x="0"
   inkscape:window-y="0"
   inkscape:window-maximized="1"
   inkscape:current-layer="Layer_1" />
<style
   type="text/css"
   id="style1766">
	.st0{fill:url(#Spectrum_1_);}
	.st1{fill:#FFFFFF;}
	.st2{fill:#220614;}
	.st3{fill:#FEEF0E;}
	.st4{fill:#F06917;}
</style>
<g
   id="Cloud"
   transform="scale(1.3333334)">
	<linearGradient
   id="Spectrum_1_"
   gradientUnits="userSpaceOnUse"
   x1="443.84784"
   y1="233.25482"
   x2="56.158428"
   y2="9.4222498">
		<stop
   offset="0.05"
   style="stop-color:#FF0000"
   id="stop1768" />
		<stop
   offset="0.2"
   style="stop-color:#F49F00"
   id="stop1770" />
		<stop
   offset="0.22617"
   style="stop-color:#F2BD00"
   id="stop1772" />
		<stop
   offset="0.25775"
   style="stop-color:#F0DA00"
   id="stop1774" />
		<stop
   offset="0.2892"
   style="stop-color:#EFEE00"
   id="stop1776" />
		<stop
   offset="0.32014"
   style="stop-color:#EEFB00"
   id="stop1778" />
		<stop
   offset="0.35"
   style="stop-color:#EEFF00"
   id="stop1780" />
		<stop
   offset="0.5"
   style="stop-color:#00FF00"
   id="stop1782" />
		<stop
   offset="0.75"
   style="stop-color:#1D0FFF"
   id="stop1784" />
		<stop
   offset="0.95"
   style="stop-color:#710EC0"
   id="stop1786" />
	</linearGradient>
	<path
   id="Spectrum"
   class="st0"
   d="m 399.43066,8.5249 c -14.06348,0 -27.96094,2.94775 -40.70508,8.58496 C 342.2207,6.02148 322.62793,0 302.61035,0 262.31347,0 226.104,24.31006 210.34814,60.52734 197.44384,58.78515 184.35009,59.57422 171.92089,62.7539 153.1123,43.76513 127.60985,33.04833 100.54491,33.04833 45.104,33.04834 0,78.15234 0,133.59326 c 0,55.44043 45.104,100.54492 100.54492,100.54492 8.49121,0 16.86279,-1.05078 24.99561,-3.13184 18.82275,19.00586 44.33398,29.73047 71.3999,29.73047 40.29688,0 76.50684,-24.31055 92.26172,-60.52734 18.44824,2.49121 37.33105,-0.24609 54.1377,-7.67969 16.50586,11.08887 36.09961,17.11035 56.11523,17.11035 C 454.89551,209.64014 500,164.53564 500,109.09473 500,53.64014 454.88477,8.5249 399.43066,8.5249 Z"
   style="fill:url(#Spectrum_1_)" />
	<path
   id="White_00000135681541214125001520000006644785703236485533_"
   class="st1"
   d="m 399.43066,16.32422 c -14.44336,0 -28.69434,3.36914 -41.49414,9.77637 C 342.01074,14.26856 322.53906,7.79932 302.61035,7.79932 c -39.22461,0 -74.24902,24.96582 -87.33838,61.45996 -6.06445,-1.2207 -12.21484,-1.83789 -18.35645,-1.83789 -9.36279,0 -18.56641,1.38428 -27.42383,4.11963 -17.59033,-19.56445 -42.45703,-30.69336 -68.94678,-30.69336 -51.14014,0 -92.74561,41.60547 -92.74561,92.74561 0,51.13965 41.60547,92.74512 92.74561,92.74512 9.36377,0 18.56738,-1.38379 27.42432,-4.11914 17.60645,19.58105 42.48193,30.71777 68.97119,30.71777 39.22461,0 74.24902,-24.96484 87.33789,-61.45898 6.06445,1.2207 12.21484,1.83691 18.35645,1.83691 14.44434,0 28.69336,-3.36816 41.49414,-9.77539 15.92773,11.83203 35.39844,18.30078 55.32617,18.30078 51.13965,0 92.74512,-41.60547 92.74512,-92.74561 10e-6,-51.15381 -41.61621,-92.77051 -92.76953,-92.77051 z" />
	<path
   id="Black"
   class="st2"
   d="m 399.43021,23.09901 c -15.32425,0 -29.72354,3.9998 -42.19791,11.04945 -14.84927,-12.22439 -33.87332,-19.57402 -54.62228,-19.57402 -39.42303,0 -72.64636,26.54867 -82.79587,62.72187 -7.29964,-1.99989 -14.97426,-3.09984 -22.89885,-3.09984 -10.39948,0 -20.37399,1.84991 -29.59853,5.22474 -15.74922,-19.39904 -39.82301,-31.79842 -66.77168,-31.79842 -47.47263,0 -85.9707,38.49808 -85.9707,85.97072 0,47.47264 38.49808,85.9707 85.9707,85.9707 10.39948,0 20.37399,-1.84991 29.59852,-5.22475 15.77422,19.42404 39.82301,31.82341 66.79668,31.82341 39.42303,0 72.64638,-26.54868 82.79585,-62.72186 7.29962,1.99991 14.97427,3.09985 22.89886,3.09985 15.32425,0 29.72351,-3.9998 42.19791,-11.04945 14.84927,12.2244 33.87329,19.57402 54.62225,19.57402 47.47266,0 85.97073,-38.49808 85.97073,-85.9707 0,-47.47262 -38.49806,-85.99572 -85.99568,-85.99572 z" />
</g>
<g
   id="리듬_세상_1_"
   transform="scale(1.3333334)">
	<path
   id="상_2_"
   class="st3"
   d="m 424.104,120.20069 c -7.04428,-1.76587 -19.56619,-2.03223 -32.17346,6.39962 -10.87354,7.27229 -14.7048,20.062 -10.84329,28.85139 5.91806,13.47034 29.64337,11.71919 44.61661,1.72546 8.36694,-5.58443 12.57437,-12.38649 12.57437,-20.26363 0,-7.03197 -3.66919,-14.07943 -14.17423,-16.71284 z m -18.49914,32.63154 c -2.5249,-0.0497 -7.67468,-0.15109 -7.67468,-8.06905 0,-8.2058 6.55188,-14.09184 13.67432,-14.09265 7.31079,-8.9e-4 7.82471,4.95335 7.82471,7.96906 -1e-5,7.39224 -6.3711,14.33932 -13.82435,14.19264 z m 48.92248,-76.76085 v 12.18219 l -13.84924,2.69202 v 22.87787 l -18.49915,3.59587 V 64.70644 c 0,-2.37378 -1.94873,-2.3496 -4.16919,-1.91798 l -2.23047,0.43356 V 56.1874 l 24.8988,-4.83984 V 78.7634 Z m -68.12158,26.77366 c 0,0 -2.03149,17.31255 -24.19873,39.673 l -11.34949,-9.4245 c 11.35852,-9.19848 24.44885,-30.21765 24.44885,-48.94757 v -0.52863 c 0,-2.24988 -1.74072,-2.24763 -3.90869,-1.82623 l -2.19116,0.42592 v -6.66736 l 24.32385,-4.72807 v 9.78198 c 0,19.12866 10.55273,22.204 24.57385,22.34143 l -6.97461,10.84943 c -21.30602,-1.91131 -24.72387,-10.9494 -24.72387,-10.9494 z" />
	<path
   id="세_1_"
   class="st4"
   d="m 301.16016,124.71894 -7.99963,10.67448 c -15.62805,-5.10081 -19.84906,-12.8744 -19.84906,-12.8744 0,0 -5.91824,10.99762 -18.3241,22.37392 l -10.34949,-8.62462 c 0,0 18.28503,-17.07261 18.28503,-34.12547 V 89.16267 c 0,-2.37378 -1.93884,-2.31184 -4.10736,-1.89033 l -2.17822,0.4234 v -7.49957 l 23.94888,-4.65519 -3e-5,23.87922 c 0,22.86426 20.57398,25.29874 20.57398,25.29874 z M 298.7352,67.44675 v 6.89655 l 1.85486,-0.36054 c 1.84656,-0.35893 3.53723,-0.68757 3.53723,1.6862 v 20.09808 l -15.64157,3.04041 v 10.8122 l 15.64157,-3.04042 3e-5,59.5592 17.15674,-3.33493 V 63.06369 Z m 21.84637,-22.13863 v 6.89655 l 1.85486,-0.36055 c 1.84653,-0.35893 3.4975,-0.60333 3.4975,1.77044 v 87.8285 l 18.64899,-3.625 3e-5,-97.17534 z" />
	<path
   id="듬_1_"
   class="st3"
   d="m 236.46326,166.64598 -79.27094,15.40871 v 7.37695 l 0.98285,-0.19104 c 5.18793,-1.00844 5.39185,-0.19536 5.39185,2.23488 v 15.43823 c 0,4.97058 4.02942,8.21677 9,7.25058 l 56.89624,-11.05951 c 4.97058,-0.96619 9,-5.77884 9,-10.74942 v -24.09814 c 0,-1.10456 -0.89545,-1.82595 -2,-1.61124 z m -19.69892,28.70834 -33.4483,6.50169 v -14.0097 l 33.4483,-6.50169 z m 21.69886,-45.10525 6e-5,10.74469 -99.2951,19.30101 v -10.74471 z m -59.04706,-15.55734 v 11.02686 l 59.04712,-11.4776 v 10.74463 l -68.43112,13.30167 c -5.52283,1.07353 -9.99998,-2.53334 -10,-8.05617 l -3e-5,-12.80112 c 0,-2.21484 -0.20355,-2.88425 -5.3833,-1.8774 l -0.98134,0.19075 2e-5,-6.79121 84.79578,-16.48264 v 10.74463 z" />
	<path
   id="리_1_"
   class="st4"
   d="m 104.01996,85.89586 v 7.44962 l 2.17566,-0.4229 c 2.16589,-0.42101 4.14899,-0.80648 4.14899,1.97284 v 43.9978 c -3.19983,1.7999 -7.29773,3.29286 -12.34937,4.2748 l -29.92352,5.81654 v -13.46619 l 27.7485,-5.39375 c 1.38071,-0.26839 2.5,-1.60524 2.5,-2.98595 v -26.66166 c 0,-1.38071 -1.11929,-2.28243 -2.5,-2.01405 l -52.04727,10.11697 v 11.51426 l 35.49823,-6.90015 v 9.05383 l -37.14813,7.22086 v 7.57468 l 0.87708,-0.17049 c 1.77122,-0.34428 4.39764,-0.85481 4.3976,1.72037 v 17.92413 c 0,4.41827 3.58172,7.30377 7.99999,6.44495 l 39.07269,-7.59491 c 7.32948,-1.42471 12.64941,-3.19987 15.87421,-4.82481 v 42.18481 l 20.12402,-3.91171 V 80.75476 Z" />
</g>
<path
   id="_x2122_"
   class="st2"
   d="m 633.89663,273.48229 v -12.98526 l -5.46204,1.28798 v -2.79038 l 14.44743,-3.40676 v 2.79038 l -5.26521,1.24156 v 12.98527 z m 24.51535,-5.7808 V 254.5156 l -3.31661,13.96796 -3.5922,0.84707 -3.23784,-12.4224 v 13.18589 l -3.39535,0.80064 v -15.78477 l 5.3046,-1.25086 3.19853,11.76602 0.0393,-0.009 3.11979,-13.25588 5.23572,-1.23462 v 15.78479 z"
   style="stroke-width:1.33333" />
</svg>
