<?xml version="1.0" encoding="UTF-8" standalone="no"?>
<!-- Created with Inkscape (http://www.inkscape.org/) -->

<svg
   version="1.1"
   id="svg2"
   width="666.66669"
   height="480.24533"
   viewBox="0 0 666.66669 480.24533"
   sodipodi:docname="Rhythm Paradise but it's not a Cloud.ai"
   xmlns:inkscape="http://www.inkscape.org/namespaces/inkscape"
   xmlns:sodipodi="http://sodipodi.sourceforge.net/DTD/sodipodi-0.dtd"
   xmlns="http://www.w3.org/2000/svg"
   xmlns:svg="http://www.w3.org/2000/svg">
  <defs
     id="defs6">
    <clipPath
       clipPathUnits="userSpaceOnUse"
       id="clipPath16">
      <path
         d="M 0,360.184 H 500 V 0 H 0 Z"
         id="path14" />
    </clipPath>
  </defs>
  <sodipodi:namedview
     id="namedview4"
     pagecolor="#ffffff"
     bordercolor="#000000"
     borderopacity="0.25"
     inkscape:showpageshadow="2"
     inkscape:pageopacity="0.0"
     inkscape:pagecheckerboard="0"
     inkscape:deskcolor="#d1d1d1" />
  <g
     id="g8"
     inkscape:groupmode="layer"
     inkscape:label="Rhythm Paradise but it's not a Cloud"
     transform="matrix(1.3333333,0,0,-1.3333333,0,480.24533)">
    <g
       id="g10">
      <g
         id="g12"
         clip-path="url(#clipPath16)">
        <g
           id="g18"
           transform="translate(499.9998,212.2478)">
          <path
             d="m 0,0 c 0,10.288 -4.691,20.016 -12.744,26.42 -8.052,6.405 -18.585,8.789 -28.61,6.474 l -1.013,-0.234 10e-4,81.516 c 0,10.289 -4.692,20.016 -12.744,26.421 -8.052,6.404 -18.584,8.788 -28.611,6.473 l -12.746,-2.942 c -9.373,-2.164 -17.255,-8.184 -21.851,-16.381 -6.537,2.943 -14.032,3.823 -21.452,2.111 l -18.614,-4.295 c -13.306,-3.071 -23.238,-13.77 -25.617,-26.832 l -1.52,-0.351 c -2.917,-0.673 -5.661,-1.733 -8.21,-3.085 -0.602,0.555 -1.217,1.096 -1.862,1.609 -8.052,6.405 -18.586,8.787 -28.61,6.474 L -274.576,91.75 c -13.077,-3.02 -22.892,-13.406 -25.484,-26.162 -2.158,-0.853 -4.194,-1.921 -6.094,-3.169 -1.828,2.592 -4.031,4.941 -6.568,6.96 -8.051,6.405 -18.585,8.787 -28.611,6.473 l -17.815,-4.113 c -5.039,-1.163 -9.592,-3.425 -13.438,-6.491 -3.854,4.994 -8.474,9.429 -13.819,13.195 -22.812,16.076 -55.199,17.845 -91.194,4.986 C -491.033,78.629 -500,65.904 -500,51.638 V -57.7 c 0,-10.289 4.691,-20.016 12.744,-26.421 4.213,-3.352 9.105,-5.598 14.248,-6.649 v -87.717 c 0,-10.288 4.692,-20.016 12.743,-26.421 6.033,-4.799 13.457,-7.34 21.018,-7.34 2.531,0 5.079,0.285 7.593,0.866 l 24.506,5.657 c 4.489,1.037 8.59,2.947 12.151,5.517 5.645,-3.889 12.33,-5.96 19.15,-5.96 2.387,0 4.792,0.254 7.173,0.772 l 12.628,2.746 c 2.965,0.645 5.777,1.671 8.383,3.025 5.346,-1.473 11.022,-1.622 16.53,-0.357 l 16.759,3.849 c 14.378,3.303 24.634,15.418 26.034,29.559 5.785,-4.202 12.734,-6.451 19.832,-6.451 2.388,0 4.794,0.254 7.176,0.772 l 12.628,2.747 c 2.965,0.645 5.775,1.671 8.381,3.024 5.344,-1.473 11.022,-1.622 16.53,-0.358 l 16.76,3.85 c 10.483,2.408 18.776,9.503 23.044,18.65 11.573,3.402 21.286,8.082 29.325,14.117 1.575,-2.238 3.42,-4.303 5.53,-6.126 6.173,-5.333 14.021,-8.213 22.07,-8.213 1.63,0 3.27,0.119 4.905,0.359 l 0.13,0.018 c 7.323,1.076 20.953,3.077 33.472,7.912 15.157,5.852 24.188,14.074 29.518,22.38 l 32.804,7.575 c 15.316,3.535 26.165,17.174 26.165,32.893 v 12.229 c 0,5.972 -1.581,11.753 -4.479,16.802 C -1.643,-39.383 0,-33.583 0,-27.466 Z"
             style="fill:#00b3f0;fill-opacity:1;fill-rule:nonzero;stroke:none"
             id="path20" />
        </g>
        <g
           id="g22"
           transform="translate(491.5652,184.782)">
          <path
             d="m 0,0 v 27.466 c 0,7.718 -3.52,15.014 -9.56,19.819 -6.041,4.804 -13.94,6.595 -21.461,4.856 l -11.346,-2.619 10e-4,92.12 c 0,7.718 -3.52,15.015 -9.56,19.819 -6.04,4.805 -13.94,6.594 -21.463,4.857 l -12.746,-2.943 c -8.839,-2.041 -15.911,-8.654 -18.541,-17.336 -0.387,-1.281 -0.764,-2.522 -1.133,-3.726 -6.02,6.033 -14.885,8.808 -23.629,6.792 l -18.615,-4.295 c -11.491,-2.652 -19.631,-12.884 -19.631,-24.677 v -0.773 l -7.504,-1.733 c -4.457,-1.028 -8.405,-3.201 -11.574,-6.159 -1.499,2.374 -3.397,4.511 -5.647,6.301 -6.041,4.805 -13.943,6.593 -21.462,4.856 l -50.373,-11.629 c -11.405,-2.633 -19.499,-12.735 -19.617,-24.417 l -1.039,-0.24 c -4.162,-0.961 -7.881,-2.915 -10.933,-5.575 -2.089,0.236 -4.214,0.21 -6.326,-0.082 -1.635,3.689 -4.141,6.985 -7.379,9.562 -6.04,4.804 -13.943,6.592 -21.462,4.856 l -17.816,-4.114 c -6.003,-1.386 -11.095,-4.843 -14.586,-9.512 -1.068,-0.031 -2.137,-0.137 -3.202,-0.305 -3.983,7.022 -9.436,13.061 -16.225,17.846 -20.507,14.448 -50.159,15.846 -83.497,3.937 -10.078,-3.6 -16.805,-13.147 -16.805,-23.848 V -30.234 c 0,-7.718 3.52,-15.015 9.56,-19.82 4.526,-3.599 10.094,-5.506 15.766,-5.506 0.555,0 1.111,0.025 1.667,0.061 l -0.001,-95.522 c 0,-7.718 3.52,-15.015 9.56,-19.82 4.525,-3.599 10.095,-5.506 15.766,-5.506 1.899,0 3.81,0.214 5.696,0.65 l 24.506,5.657 c 5.639,1.302 10.464,4.436 13.923,8.679 0.629,-0.739 1.301,-1.448 2.02,-2.118 4.735,-4.407 10.918,-6.788 17.255,-6.788 1.791,0 3.595,0.191 5.381,0.579 l 12.628,2.746 c 3.378,0.735 6.488,2.13 9.199,4.04 4.895,-2.092 10.362,-2.601 15.618,-1.394 l 16.759,3.85 c 12.659,2.908 21.066,14.921 19.462,27.81 -0.165,1.324 -0.344,2.656 -0.533,3.992 0.441,0.219 0.879,0.442 1.304,0.685 2.798,-0.73 5.724,-0.975 8.652,-0.714 0.513,-0.574 1.046,-1.134 1.616,-1.664 4.734,-4.406 10.916,-6.787 17.253,-6.787 1.792,0 3.596,0.19 5.384,0.579 l 12.628,2.747 c 3.376,0.735 6.487,2.129 9.197,4.038 4.894,-2.09 10.362,-2.601 15.618,-1.393 l 16.76,3.849 c 9.125,2.096 16.038,8.923 18.588,17.399 14.802,3.769 26.154,9.488 35.06,17.568 1.23,1.115 2.383,2.281 3.499,3.472 1.176,-5.255 4.008,-10.052 8.155,-13.635 4.631,-4 10.517,-6.161 16.555,-6.161 1.224,0 2.454,0.089 3.68,0.268 l 0.131,0.02 c 7.487,1.1 20.018,2.939 31.659,7.435 14.841,5.73 22.8,13.97 27,21.885 l 36.462,8.418 c 11.489,2.653 19.628,12.884 19.628,24.676 v 12.229 c 0,6.005 -2.131,11.751 -5.915,16.267 v 1.112 C -2.225,-11.901 0,-6.167 0,0"
             style="fill:#ffffff;fill-opacity:1;fill-rule:nonzero;stroke:none"
             id="path24" />
        </g>
        <g
           id="g26"
           transform="translate(483.1189,184.782)">
          <path
             d="m 0,0 v 27.466 c 0,5.143 -2.346,10.007 -6.371,13.209 -4.026,3.202 -9.293,4.394 -14.304,3.237 L -43.813,38.57 c 0.93,2.101 1.446,4.413 1.446,6.826 l 10e-4,96.246 c 0,5.144 -2.346,10.007 -6.371,13.21 -4.028,3.203 -9.297,4.393 -14.305,3.236 l -12.746,-2.942 c -5.892,-1.36 -10.606,-5.768 -12.358,-11.555 -2.911,-9.61 -5.254,-17.032 -7.238,-23.079 -1.411,3.348 -2.866,6.858 -4.313,10.361 -3.152,7.628 -11.36,11.858 -19.396,10.002 l -18.614,-4.295 c -7.659,-1.767 -13.084,-8.587 -13.084,-16.447 v -7.491 l -14.052,-3.245 c -5.51,-1.271 -9.865,-5.159 -11.874,-10.171 -2.023,0.478 -4.133,0.575 -6.221,0.283 -0.423,4.555 -2.667,8.774 -6.283,11.65 -4.025,3.201 -9.29,4.392 -14.304,3.237 l -50.373,-11.629 C -261.556,101 -266.98,94.18 -266.98,86.321 v -6.463 l -7.574,-1.748 c -4.133,-0.954 -7.611,-3.378 -9.94,-6.639 -3.025,1.095 -6.336,1.315 -9.542,0.575 l -5.956,-1.375 c -0.074,5.052 -2.397,9.812 -6.358,12.963 -4.025,3.202 -9.291,4.393 -14.304,3.237 l -17.816,-4.114 c -5.509,-1.272 -9.864,-5.159 -11.873,-10.171 -2.494,0.59 -5.12,0.611 -7.679,0.02 l -4.83,-1.115 c -3.429,8.352 -8.974,15.39 -16.396,20.62 -17.934,12.637 -45.558,13.69 -75.79,2.888 -6.717,-2.4 -11.201,-8.763 -11.201,-15.895 V -30.234 c 0,-5.145 2.346,-10.008 6.372,-13.21 3.016,-2.4 6.728,-3.67 10.508,-3.669 1.266,0 2.54,0.141 3.797,0.432 l 7.95,1.836 c -1.054,-2.217 -1.634,-4.678 -1.634,-7.237 l -0.001,-98.939 c 0,-5.144 2.346,-10.008 6.372,-13.21 3.016,-2.399 6.728,-3.669 10.508,-3.669 1.265,0 2.539,0.141 3.797,0.432 l 24.506,5.657 c 7.657,1.768 13.082,8.587 13.082,16.447 v 15.824 c 2.702,0.792 5.283,1.695 7.749,2.699 -0.863,-5.141 -1.681,-10.395 -2.442,-15.703 -0.785,-5.474 1.16,-10.985 5.208,-14.753 3.155,-2.937 7.277,-4.524 11.5,-4.524 1.194,0 2.396,0.127 3.587,0.385 l 12.628,2.747 c 4.037,0.878 7.504,3.172 9.884,6.323 0.595,-0.516 1.227,-0.991 1.896,-1.424 3.83,-2.475 8.498,-3.292 12.941,-2.274 l 16.759,3.849 c 8.437,1.939 14.041,9.945 12.971,18.536 -0.443,3.562 -0.983,7.184 -1.593,10.806 l 1.968,0.454 c 2.879,0.664 5.442,2.042 7.52,3.922 3.487,-1.775 7.538,-2.311 11.456,-1.405 l 2.247,0.518 c 0.889,-1.765 2.089,-3.387 3.576,-4.77 3.155,-2.938 7.276,-4.525 11.5,-4.525 1.194,0.001 2.397,0.127 3.587,0.387 l 12.629,2.747 c 4.037,0.878 7.503,3.172 9.883,6.322 0.594,-0.515 1.227,-0.992 1.896,-1.423 3.83,-2.476 8.5,-3.295 12.941,-2.276 l 16.759,3.85 c 7.643,1.756 12.942,8.494 13.081,16.133 16.08,3.377 27.925,8.821 36.784,16.858 2.558,2.32 4.814,4.851 6.799,7.564 0.498,-0.045 0.999,-0.07 1.501,-0.07 1.267,0 2.54,0.142 3.797,0.433 l 4.908,1.133 v -6.315 c 0,-4.904 2.133,-9.566 5.845,-12.773 3.086,-2.666 7.009,-4.107 11.034,-4.106 0.815,0 1.635,0.059 2.453,0.179 l 0.129,0.019 c 7.139,1.048 19.085,2.802 29.844,6.956 14.754,5.698 21.36,13.951 24.167,21.32 l 40.438,9.336 c 7.658,1.767 13.082,8.587 13.082,16.446 v 12.229 c 0,4.95 -2.172,9.635 -5.915,12.833 v 6.137 c 0,0.6 -0.032,1.196 -0.095,1.786 C -2.327,-9.847 0,-5.149 0,0"
             style="fill:#130c0e;fill-opacity:1;fill-rule:nonzero;stroke:none"
             id="path28" />
        </g>
        <g
           id="g30"
           transform="translate(441.7585,178.116)">
          <path
             d="M 0,0 C 5.047,1.901 15.609,4.741 24.482,6.666 V 34.131 L -19.857,23.895 v -73.409 l 44.269,10.221 v 12.23 c -5.821,-1.527 -17.816,-3.78 -23.098,-4.672 -6.43,-1.079 -7.346,7.112 -0.234,9.46 4.084,1.338 11.572,3.122 17.417,4.764 v 9.417 C 13.169,-9.174 5.962,-10.422 0.282,-11.22 -6.76,-12.229 -7.98,-3.004 0,0"
             style="fill:#f15a22;fill-opacity:1;fill-rule:nonzero;stroke:none"
             id="path32" />
        </g>
        <g
           id="g34"
           transform="translate(400.5955,127.533)">
          <path
             d="m 0,0 c -0.26,2.439 -4.479,2.992 -11.051,4.567 -11.489,2.854 -18.601,9.622 -17.875,21.513 0.774,12.835 7.272,21.787 41.663,27.628 v -26.7 C 0.327,25.456 -6.524,23.134 -9.431,20.757 -12.53,18.242 -12.35,14.123 -7.876,12.629 -5.933,11.98 -0.187,10.062 3.286,8.896 9.95,6.676 13.21,3.27 13.89,-2.759 15.81,-19.764 -14.97,-24.224 -27.659,-26.087 v 15.109 C -12.457,-7.914 0.587,-5.229 0,0"
             style="fill:#f15a22;fill-opacity:1;fill-rule:nonzero;stroke:none"
             id="path36" />
        </g>
        <g
           id="g38"
           transform="translate(347.3523,123.073)">
          <path
             d="m 0,0 v 65.441 l 16.548,3.821 V 3.82 Z"
             style="fill:#f15a22;fill-opacity:1;fill-rule:nonzero;stroke:none"
             id="path40" />
        </g>
        <g
           id="g42"
           transform="translate(307.8015,112.1589)">
          <path
             d="m 0,0 c -4.555,-1.054 -6.525,0.469 -6.525,5.797 v 16.807 c 0,3.873 -0.201,6.966 3.473,8.003 C 4.929,32.861 13.849,28.589 14.693,19.904 15.679,9.812 10.064,2.323 0,0 m -17.745,56.028 -10e-4,-71.38 c 34.505,5.047 49.527,18.379 49.151,44.88 -0.328,22.98 -23.143,35.608 -49.15,26.5"
             style="fill:#f15a22;fill-opacity:1;fill-rule:nonzero;stroke:none"
             id="path44" />
        </g>
        <g
           id="g46"
           transform="translate(259.8933,101.1033)">
          <path
             d="m 0,0 -8.332,-1.924 c -2.095,-0.483 -3.286,0.82 -3.028,3.732 0.234,2.722 1.455,8.497 1.924,10.468 0.986,4.084 3.052,6.079 5.422,6.432 3.827,0.61 5.681,-2.184 7.16,-9.226 C 3.286,8.825 3.686,7.394 3.85,5.469 4.179,1.549 2.96,0.684 0,0 M 14.601,31.289 C 10.234,45.607 6.7,49.141 -1.995,47.133 -9.66,45.363 -14.019,41.373 -17.674,27.369 -21.266,13.614 -25.209,-5.868 -28.401,-28.12 l 12.628,2.746 c 0.234,1.761 0.657,3.826 1.267,6.972 0.657,3.169 2.371,5.434 5.775,6.219 2.801,0.648 8.017,1.852 9.858,2.277 2.636,0.608 5.047,-1.478 5.892,-4.999 0.563,-2.347 1.291,-5.657 1.737,-7.887 l 16.759,3.85 C 23.473,-2.535 18.942,17.064 14.601,31.289"
             style="fill:#f15a22;fill-opacity:1;fill-rule:nonzero;stroke:none"
             id="path48" />
        </g>
        <g
           id="g50"
           transform="translate(198.1047,106.657)">
          <path
             d="m 0,0 c -4.299,-1.008 -6.693,1.387 -6.693,6.506 v 4.946 c 0,3.569 0.693,6.664 3.874,7.672 9.236,2.926 15.67,-1.057 15.67,-7.311 C 12.851,5.97 8.378,1.969 0,0 m 31.134,21.374 c 0,22.731 -22.42,29.211 -49.433,19.615 v -71.513 l 11.59,2.675 v 16.507 c 0,2.805 2.063,2.316 3.969,0.614 1.338,-1.197 9.386,-8.995 15.008,-14.603 l 17.694,4.085 c 0,0 -15.427,15.764 -17.206,17.323 10.362,3.874 18.378,13.972 18.378,25.297"
             style="fill:#f15a22;fill-opacity:1;fill-rule:nonzero;stroke:none"
             id="path52" />
        </g>
        <g
           id="g54"
           transform="translate(152.5535,67.9607)">
          <path
             d="m 0,0 -8.333,-1.924 c -2.094,-0.484 -3.286,0.82 -3.027,3.731 0.234,2.722 1.455,8.497 1.924,10.468 0.986,4.084 3.052,6.08 5.422,6.432 3.827,0.61 5.681,-2.183 7.16,-9.225 C 3.287,8.825 3.686,7.394 3.85,5.469 4.178,1.549 2.96,0.683 0,0 M 14.6,31.288 C 10.234,45.606 6.7,49.141 -1.995,47.133 -9.661,45.363 -14.018,41.372 -17.674,27.368 -21.266,13.613 -25.209,-5.868 -28.401,-28.12 l 12.628,2.746 c 0.234,1.76 0.657,3.826 1.267,6.971 0.657,3.169 2.371,5.434 5.775,6.22 2.802,0.647 8.017,1.851 9.858,2.277 2.635,0.608 5.046,-1.479 5.892,-4.999 0.563,-2.348 1.291,-5.658 1.736,-7.887 l 16.76,3.849 C 23.473,-2.535 18.942,17.064 14.6,31.288"
             style="fill:#f15a22;fill-opacity:1;fill-rule:nonzero;stroke:none"
             id="path56" />
        </g>
        <g
           id="g58"
           transform="translate(93.45,81.74)">
          <path
             d="m 0,0 c -5.211,-1.268 -8.216,0.094 -8.215,4.46 v 15.797 c 0,4.462 2.464,7.277 7.37,7.911 C 8.99,29.435 13.427,23.684 13.427,16.196 13.427,9.952 9.741,2.394 0,0 m -32.698,50.96 v -98.94 l 24.506,5.658 v 23.238 c 0,4.249 1.056,6.361 3.591,6.808 22.838,4.017 39.106,15.5 39.106,39.058 10e-4,25.87 -27.792,39.787 -67.203,24.178"
             style="fill:#f15a22;fill-opacity:1;fill-rule:nonzero;stroke:none"
             id="path60" />
        </g>
        <g
           id="g62"
           transform="translate(411.1277,323.4812)">
          <path
             d="m 0,0 c -6.76,-22.322 -10.586,-33.237 -13.919,-42.438 -5.681,-15.656 -11.572,-9.506 -14.318,-5.141 -3.193,5.118 -7.535,15.07 -15.07,33.308 l -18.614,-4.295 v -87.622 l 15.445,3.566 c -0.117,13.967 0.118,23.45 0.869,27.135 0.68,3.309 2.675,3.778 4.694,0.492 1.667,-2.699 4.296,-8.544 9.53,-20.562 l 10.349,2.39 c 5.704,15.327 8.781,23.055 10.964,26.834 1.76,3.075 5.117,5.234 6.127,-0.446 0.774,-4.296 0.704,-15.949 0.68,-30.22 l 16.008,3.696 V 2.943 Z"
             style="fill:#faa61a;fill-opacity:1;fill-rule:nonzero;stroke:none"
             id="path64" />
        </g>
        <g
           id="g66"
           transform="translate(322.073,277.7327)">
          <path
             d="m 0,0 c -0.07,-11.971 -0.047,-22.886 -0.563,-26.876 -1.198,-9.53 -17.488,-13.825 -18.286,-5.046 -0.376,4.13 -0.704,9.588 -0.704,21.771 l -13.168,-3.04 v -80.276 l 16.783,3.874 c 0,12.746 0,18.284 0.211,22.65 0.587,11.501 17.863,14.107 19.365,4.107 0.68,-4.554 0.798,-6.736 0.798,-17.018 l 13.379,3.089 V 4.113 Z"
             style="fill:#faa61a;fill-opacity:1;fill-rule:nonzero;stroke:none"
             id="path68" />
        </g>
        <g
           id="g70"
           transform="translate(233.0178,271.1023)">
          <path
             d="m 0,0 v -32.312 l 9.366,2.162 c 5.679,1.312 8.027,0.572 8.027,-9.483 V -81.11 l 15.375,3.522 v 38.049 c 0,16.901 1.587,21.165 9.952,23.097 l 7.653,1.767 v 26.304 z"
             style="fill:#faa61a;fill-opacity:1;fill-rule:nonzero;stroke:none"
             id="path72" />
        </g>
        <g
           id="g74"
           transform="translate(226.7273,249.7615)">
          <path
             d="m 0,0 -14.365,-3.316 c 0,0 0.211,-14.788 -0.352,-25.679 -0.822,-15.938 -16.877,-19.365 -18.168,-4.202 -0.657,7.957 -0.962,23.818 -0.962,23.818 l -17.863,-4.124 v -12.934 c 0,-30.866 20.069,-34.669 30.561,-25.867 0.634,0.54 1.268,0.869 1.784,0.634 0.587,-0.258 0.563,-0.892 0.329,-2.065 -0.634,-3.075 -5.188,-9.155 -14.389,-11.619 -7.018,-1.878 -13.896,-3.063 -17.323,-3.602 v -21.42 c 15.445,1.995 33.331,6.408 41.664,19.224 4.342,6.69 6.619,13.755 7.746,24.224 C 0.422,-30.451 0,0 0,0"
             style="fill:#faa61a;fill-opacity:1;fill-rule:nonzero;stroke:none"
             id="path76" />
        </g>
        <g
           id="g78"
           transform="translate(148.4465,251.093)">
          <path
             d="m 0,0 c -0.07,-11.971 -0.047,-22.886 -0.563,-26.876 -1.198,-9.53 -17.488,-13.826 -18.286,-5.047 -0.375,4.131 -0.704,9.589 -0.704,21.771 l -13.168,-3.04 v -80.275 l 16.783,3.874 c 0,12.746 0,18.283 0.211,22.649 0.587,11.502 17.863,14.107 19.365,4.108 0.681,-4.554 0.798,-6.737 0.798,-17.018 l 13.379,3.089 V 4.113 Z"
             style="fill:#faa61a;fill-opacity:1;fill-rule:nonzero;stroke:none"
             id="path80" />
        </g>
        <g
           id="g82"
           transform="translate(61.0349,202.8098)">
          <path
             d="m 0,0 c -6.408,-1.502 -9.976,2.066 -9.976,9.694 v 7.371 c -10e-4,5.316 1.033,9.929 5.774,11.431 C 9.565,32.857 19.153,26.923 19.153,17.604 19.153,8.896 12.487,2.934 0,0 m 46.405,31.853 c 0,33.87 -33.143,43.705 -73.68,29.223 V -48.262 L -10,-44.274 V -16.9 c 0,4.178 3.075,3.45 5.916,0.916 1.995,-1.785 13.989,-13.403 22.369,-21.76 l 26.373,6.089 c 0,0 -22.993,23.487 -25.645,25.811 15.445,5.774 27.392,20.822 27.392,37.697"
             style="fill:#faa61a;fill-opacity:1;fill-rule:nonzero;stroke:none"
             id="path84" />
        </g>
      </g>
    </g>
  </g>
</svg>
