<?xml version="1.0" encoding="UTF-8" standalone="no"?>
<!-- Created with Inkscape (http://www.inkscape.org/) -->

<svg
   version="1.1"
   id="svg1"
   width="666.66669"
   height="520.45734"
   viewBox="0 0 666.66669 520.45734"
   sodipodi:docname="Rhythm Heaven but it's not a Cloud.ai"
   xmlns:inkscape="http://www.inkscape.org/namespaces/inkscape"
   xmlns:sodipodi="http://sodipodi.sourceforge.net/DTD/sodipodi-0.dtd"
   xmlns="http://www.w3.org/2000/svg"
   xmlns:svg="http://www.w3.org/2000/svg">
  <defs
     id="defs1">
    <clipPath
       clipPathUnits="userSpaceOnUse"
       id="clipPath2">
      <path
         d="M 0,390.343 H 500 V 0 H 0 Z"
         transform="translate(-486.35281,-275.31811)"
         id="path2" />
    </clipPath>
    <clipPath
       clipPathUnits="userSpaceOnUse"
       id="clipPath4">
      <path
         d="M 0,390.343 H 500 V 0 H 0 Z"
         transform="translate(-480.44751,-267.89671)"
         id="path4" />
    </clipPath>
    <clipPath
       clipPathUnits="userSpaceOnUse"
       id="clipPath6">
      <path
         d="M 0,390.343 H 500 V 0 H 0 Z"
         transform="translate(-474.91141,-260.9387)"
         id="path6" />
    </clipPath>
    <clipPath
       clipPathUnits="userSpaceOnUse"
       id="clipPath8">
      <path
         d="M 0,390.343 H 500 V 0 H 0 Z"
         transform="translate(-444.79611,-242.62471)"
         id="path8" />
    </clipPath>
    <clipPath
       clipPathUnits="userSpaceOnUse"
       id="clipPath10">
      <path
         d="M 0,390.343 H 500 V 0 H 0 Z"
         transform="translate(-371.58721,-144.35521)"
         id="path10" />
    </clipPath>
    <clipPath
       clipPathUnits="userSpaceOnUse"
       id="clipPath12">
      <path
         d="M 0,390.343 H 500 V 0 H 0 Z"
         transform="translate(-324.59401,-201.66971)"
         id="path12" />
    </clipPath>
    <clipPath
       clipPathUnits="userSpaceOnUse"
       id="clipPath14">
      <path
         d="M 0,390.343 H 500 V 0 H 0 Z"
         transform="translate(-267.60861,-116.4734)"
         id="path14" />
    </clipPath>
    <clipPath
       clipPathUnits="userSpaceOnUse"
       id="clipPath16">
      <path
         d="M 0,390.343 H 500 V 0 H 0 Z"
         transform="translate(-207.05301,-101.0408)"
         id="path16" />
    </clipPath>
    <clipPath
       clipPathUnits="userSpaceOnUse"
       id="clipPath18">
      <path
         d="M 0,390.343 H 500 V 0 H 0 Z"
         transform="translate(-154.1506,-165.1306)"
         id="path18" />
    </clipPath>
    <clipPath
       clipPathUnits="userSpaceOnUse"
       id="clipPath20">
      <path
         d="M 0,390.343 H 500 V 0 H 0 Z"
         transform="translate(-443.12231,-255.7493)"
         id="path20" />
    </clipPath>
    <clipPath
       clipPathUnits="userSpaceOnUse"
       id="clipPath22">
      <path
         d="M 0,390.343 H 500 V 0 H 0 Z"
         transform="translate(-336.94561,-309.07451)"
         id="path22" />
    </clipPath>
    <clipPath
       clipPathUnits="userSpaceOnUse"
       id="clipPath24">
      <path
         d="M 0,390.343 H 500 V 0 H 0 Z"
         transform="translate(-243.76251,-296.97391)"
         id="path24" />
    </clipPath>
    <clipPath
       clipPathUnits="userSpaceOnUse"
       id="clipPath26">
      <path
         d="M 0,390.343 H 500 V 0 H 0 Z"
         transform="translate(-236.41821,-282.22091)"
         id="path26" />
    </clipPath>
    <clipPath
       clipPathUnits="userSpaceOnUse"
       id="clipPath28">
      <path
         d="M 0,390.343 H 500 V 0 H 0 Z"
         transform="translate(-152.5525,-268.87081)"
         id="path28" />
    </clipPath>
    <clipPath
       clipPathUnits="userSpaceOnUse"
       id="clipPath30">
      <path
         d="M 0,390.343 H 500 V 0 H 0 Z"
         transform="translate(-65.075902,-209.4617)"
         id="path30" />
    </clipPath>
  </defs>
  <sodipodi:namedview
     id="namedview1"
     pagecolor="#ffffff"
     bordercolor="#000000"
     borderopacity="0.25"
     inkscape:showpageshadow="2"
     inkscape:pageopacity="0.0"
     inkscape:pagecheckerboard="0"
     inkscape:deskcolor="#d1d1d1">
    <inkscape:page
       x="0"
       y="0"
       inkscape:label="1"
       id="page1"
       width="666.66669"
       height="520.45734"
       margin="0"
       bleed="0" />
  </sodipodi:namedview>
  <g
     id="layer-MC0"
     inkscape:groupmode="layer"
     inkscape:label="Layer 1">
    <path
       id="path1"
       d="m 0,0 -0.004,0.003 c -2.194,1.746 -4.568,3.212 -7.067,4.388 v 74.463 c 0,11.083 -4.975,21.397 -13.651,28.3 -8.674,6.897 -19.841,9.425 -30.641,6.932 l -13.455,-3.106 c -9.838,-2.272 -18.183,-8.562 -23.148,-17.105 -6.886,2.991 -14.745,3.846 -22.567,2.042 l -19.65,-4.536 c -11.957,-2.761 -21.301,-11.129 -25.54,-21.972 l -2.225,-0.513 c -4.151,-0.959 -8.053,-2.634 -11.554,-4.908 -8.274,5.532 -18.391,7.408 -28.191,5.143 l -53.031,-12.243 c -10.468,-2.416 -19.111,-9.406 -23.913,-18.585 -4.523,-1.139 -8.717,-3.108 -12.402,-5.782 -2.827,0.025 -5.66,-0.287 -8.459,-0.935 l -4.438,-1.024 c -7.254,3.423 -15.482,4.344 -23.509,2.492 l -18.874,-4.358 c -5.859,-1.353 -11.267,-4.167 -15.731,-8.085 -0.253,-0.042 -0.506,-0.087 -0.758,-0.134 -1.262,1.168 -2.57,2.285 -3.922,3.35 -21.887,17.246 -54.16,20.895 -95.924,10.843 -16.309,-3.925 -27.699,-18.381 -27.699,-35.156 v -109.012 c 0,-11.084 4.975,-21.398 13.651,-28.3 6.373,-5.068 14.367,-7.859 22.509,-7.859 2.731,0 5.467,0.311 8.132,0.927 l 16.092,3.714 c 3.886,0.898 7.55,2.417 10.869,4.468 v -102.611 c 0,-11.084 4.975,-21.399 13.65,-28.3 6.374,-5.067 14.367,-7.859 22.51,-7.859 2.731,0 5.466,0.311 8.132,0.927 l 22.792,5.261 c 7.164,1.653 13.428,5.352 18.207,10.422 3.934,-0.409 7.959,-0.171 11.94,0.747 l 16.964,3.915 c 14.437,3.332 25.064,14.835 27.498,29.002 l 8.529,1.97 c 4.751,-2.223 9.967,-3.399 15.315,-3.399 2.739,0 5.479,0.314 8.132,0.928 l 13.465,3.107 c 4.775,1.103 9.233,3.174 13.124,6.008 4.795,-0.864 9.759,-0.772 14.546,0.336 l 18.337,4.234 c 14.021,3.235 24.216,14.058 27.168,27.195 l 2.213,0.51 c 7.806,-4.466 17.288,-5.909 26.122,-3.869 l 25.401,5.865 c 5.659,-3.457 12.221,-5.325 18.884,-5.325 2.731,0 5.467,0.311 8.133,0.926 l 14.361,3.316 c 6.197,1.429 11.752,4.384 16.259,8.496 3.264,-0.15 6.576,0.144 9.846,0.901 l 19.191,4.43 c 16.503,3.808 28.028,18.296 28.028,35.232 V -28.297 C 13.647,-17.214 8.674,-6.901 0,0"
       style="fill:#00b3f0;fill-opacity:1;fill-rule:nonzero;stroke:none"
       transform="matrix(1.3333333,0,0,-1.3333333,648.4704,153.36653)"
       clip-path="url(#clipPath2)" />
    <path
       id="path3"
       d="M 0,0 -0.002,0.001 C -3.147,2.503 -6.796,4.229 -10.65,5.106 v 81.169 c 0,8.177 -3.67,15.786 -10.07,20.877 -6.399,5.088 -14.636,6.953 -22.605,5.115 l -13.454,-3.107 c -9.284,-2.143 -16.769,-9.14 -19.53,-18.26 -0.415,-1.365 -0.821,-2.701 -1.22,-4.009 -6.332,6.413 -15.684,9.349 -24.966,7.206 l -19.649,-4.536 c -10.42,-2.406 -18.152,-10.586 -20.161,-20.729 l -7.602,-1.756 c -5.35,-1.236 -10.142,-4.084 -13.768,-8.083 -1.023,1.159 -2.149,2.228 -3.376,3.204 -6.402,5.091 -14.638,6.957 -22.605,5.114 l -53.03,-12.243 c -9.107,-2.102 -16.343,-8.899 -19.262,-17.504 l -3.942,-0.91 c -4.601,-1.063 -8.757,-3.279 -12.136,-6.419 -3.125,0.407 -6.309,0.254 -9.433,-0.469 l -7.923,-1.829 c -5.951,3.692 -13.09,4.896 -20.024,3.297 l -18.874,-4.358 c -5.23,-1.207 -9.971,-3.993 -13.583,-7.889 -1.46,-0.09 -2.915,-0.301 -4.354,-0.634 l -3.718,-0.858 c -2.076,2.286 -4.337,4.395 -6.76,6.303 -19.49,15.358 -49.043,18.408 -87.835,9.072 -12.031,-2.895 -20.433,-13.56 -20.433,-25.934 v -109.013 c 0,-8.176 3.67,-15.786 10.069,-20.877 4.702,-3.738 10.6,-5.797 16.606,-5.797 2.014,0 4.033,0.23 6,0.684 l 16.091,3.714 c 4.644,1.072 8.859,3.352 12.259,6.545 3.29,-1.019 6.762,-1.396 10.228,-1.09 v -112.84 c 0,-8.177 3.669,-15.786 10.069,-20.877 4.702,-3.738 10.599,-5.798 16.606,-5.798 2.014,0 4.032,0.231 5.999,0.685 l 22.793,5.262 c 6.983,1.61 12.808,5.858 16.477,11.591 4.373,-1.315 9.061,-1.488 13.669,-0.423 l 16.965,3.917 c 12.174,2.808 20.675,13.496 20.675,25.99 v 1.435 l 18.817,4.344 c 4.176,-2.572 9.002,-3.955 13.982,-3.955 2.02,0 4.04,0.231 6,0.685 l 13.465,3.108 c 4.911,1.134 9.369,3.656 12.873,7.16 4.723,-1.639 9.885,-1.952 14.797,-0.817 l 18.337,4.233 c 12.294,2.837 20.6,13.582 20.687,25.699 l 11.131,2.57 c 0.49,0.113 0.976,0.24 1.461,0.383 6.235,-4.774 14.549,-6.587 22.222,-4.816 l 29.523,6.817 c 0.097,-0.08 0.193,-0.159 0.291,-0.236 4.702,-3.738 10.599,-5.798 16.605,-5.798 2.014,0 4.034,0.231 6,0.684 l 14.362,3.316 c 5.949,1.372 11.099,4.651 14.783,9.236 3.696,-0.754 7.545,-0.712 11.32,0.161 l 19.194,4.431 c 12.172,2.808 20.675,13.496 20.675,25.99 V -20.876 C 10.068,-12.7 6.398,-5.091 0,0"
       style="fill:#ffffff;fill-opacity:1;fill-rule:nonzero;stroke:none"
       transform="matrix(1.3333333,0,0,-1.3333333,640.59667,163.26173)"
       clip-path="url(#clipPath4)" />
    <path
       id="path5"
       d="m 0,0 c -3.959,3.148 -9.053,4.423 -14.006,3.593 v 89.64 c 0,5.42 -2.472,10.544 -6.712,13.918 -4.243,3.374 -9.793,4.627 -15.071,3.41 l -13.454,-3.106 c -6.207,-1.434 -11.174,-6.077 -13.021,-12.174 -3.086,-10.193 -5.569,-18.052 -7.669,-24.45 -1.5,3.561 -3.049,7.295 -4.589,11.023 -3.32,8.036 -11.966,12.49 -20.436,10.538 l -19.648,-4.537 c -8.069,-1.862 -13.784,-9.047 -13.784,-17.327 v -1.93 l -13.981,-3.228 c -5.088,-1.175 -9.241,-4.467 -11.613,-8.814 -2.378,0.444 -4.848,0.403 -7.263,-0.155 l -0.953,-0.22 c -1.145,2.307 -2.782,4.371 -4.849,6.014 -4.243,3.374 -9.792,4.63 -15.07,3.411 l -53.03,-12.243 c -7.708,-1.78 -13.255,-8.42 -13.736,-16.229 l -9.469,-2.186 c -4.641,-1.071 -8.51,-3.906 -10.956,-7.706 -3.335,1.336 -7.036,1.646 -10.613,0.819 l -11.959,-2.762 c -0.302,0.277 -0.595,0.562 -0.917,0.819 -4.243,3.373 -9.791,4.628 -15.071,3.41 l -18.874,-4.357 c -4.871,-1.125 -8.885,-4.19 -11.3,-8.264 -2.182,0.326 -4.434,0.249 -6.637,-0.26 l -9.098,-2.1 c -2.499,3.426 -5.459,6.529 -8.882,9.225 -17.241,13.585 -44.244,16.078 -80.252,7.411 -7.99,-1.923 -13.623,-9.071 -13.623,-17.289 V -95.119 c 0,-5.419 2.472,-10.544 6.713,-13.917 3.178,-2.527 7.089,-3.866 11.072,-3.866 1.333,0 2.674,0.151 3.999,0.456 l 16.091,3.714 c 5.15,1.19 9.341,4.547 11.7,8.973 4.114,-2.987 9.375,-4.107 14.448,-2.936 l 11.68,2.696 c -2.785,-3.162 -4.45,-7.29 -4.45,-11.745 V -224.78 c 0,-5.419 2.471,-10.544 6.713,-13.917 3.178,-2.527 7.088,-3.866 11.071,-3.866 1.333,0 2.675,0.15 3.999,0.456 l 22.794,5.263 c 7.578,1.748 13.057,8.18 13.716,15.775 0.399,-0.389 0.817,-0.761 1.254,-1.114 4.252,-3.436 9.848,-4.722 15.175,-3.494 l 16.966,3.917 c 8.068,1.862 13.783,9.047 13.783,17.327 v 8.508 l 29.702,6.857 c 0.013,-0.011 0.025,-0.023 0.037,-0.035 3.307,-3.001 7.58,-4.614 11.951,-4.614 1.332,0 2.674,0.149 4,0.457 l 13.466,3.108 c 5.504,1.27 9.984,5.048 12.228,10.054 0.607,-0.51 1.249,-0.981 1.926,-1.409 4.017,-2.542 8.885,-3.372 13.514,-2.303 l 18.339,4.234 c 9.356,2.159 15.306,11.356 13.446,20.774 -0.151,0.76 -0.361,1.813 -0.626,3.109 l 18.995,4.385 c 1.959,0.452 3.782,1.248 5.439,2.289 0.91,-1.221 1.96,-2.345 3.176,-3.312 3.178,-2.527 7.089,-3.865 11.071,-3.865 1.334,0 2.675,0.151 4,0.456 l 34.354,7.932 c 0.866,-1.122 1.861,-2.155 2.993,-3.056 3.179,-2.527 7.088,-3.865 11.072,-3.865 1.333,0 2.674,0.15 4,0.456 l 14.363,3.315 c 6.106,1.41 10.87,5.872 12.821,11.554 3.883,-2.375 8.631,-3.231 13.281,-2.157 l 19.194,4.431 c 8.068,1.862 13.783,9.046 13.783,17.327 V -13.917 C 6.713,-8.498 4.241,-3.374 0,0"
       style="fill:#130c0e;fill-opacity:1;fill-rule:nonzero;stroke:none"
       transform="matrix(1.3333333,0,0,-1.3333333,633.2152,172.53907)"
       clip-path="url(#clipPath6)" />
    <path
       id="path7"
       d="m 0,0 c 0,0 -0.149,-38.766 -0.632,-45.585 -0.754,-10.651 -3.615,-10.937 -6.051,-9.339 -4.859,3.188 -13.94,21.343 -22.07,37.131 l -11.861,-2.739 v -98.1 l 14.504,3.349 0.048,24.891 c 0.026,12.778 3.514,13.609 8.583,8.968 3.847,-3.522 9.082,-11.289 17.33,-24.496 l 19.193,4.432 V 4.397 Z"
       style="fill:#f15a22;fill-opacity:1;fill-rule:nonzero;stroke:none"
       transform="matrix(1.3333333,0,0,-1.3333333,593.06147,196.95773)"
       clip-path="url(#clipPath8)" />
    <path
       id="path9"
       d="m 0,0 c -0.44,-0.003 -3.698,0.108 -4.047,2.594 -0.202,1.439 0.489,2.791 2.228,3.854 2.718,1.663 12.129,4.367 21.16,6.486 v 12.489 c 0,0 -16.354,-3.935 -21.383,-3.187 -1.527,0.227 -2.545,1.035 -2.747,2.446 -0.207,1.443 0.519,2.742 2.227,3.855 4.6,2.995 25.245,7.449 25.245,7.449 V 64.804 L -19.824,54.99 v -76.82 l 43.397,10.019 V 4.15 C 11.99,1.52 4.161,0.022 0,0"
       style="fill:#f15a22;fill-opacity:1;fill-rule:nonzero;stroke:none"
       transform="matrix(1.3333333,0,0,-1.3333333,495.4496,327.98373)"
       clip-path="url(#clipPath10)" />
    <path
       id="path11"
       d="m 0,0 c 0,0 -4.604,-30.339 -8.693,-44.359 -1.168,-4.006 -3.993,-10.136 -7.833,-1.371 -1.376,3.139 -5.46,17.805 -8.457,36.713 l -13.261,-3.062 c 1.16,-13.001 7.526,-48.113 16.009,-68.57 l 25.718,5.937 c 9.467,25.054 15.147,51.515 17.078,79.459 z"
       style="fill:#f15a22;fill-opacity:1;fill-rule:nonzero;stroke:none"
       transform="matrix(1.3333333,0,0,-1.3333333,432.792,251.5644)"
       clip-path="url(#clipPath12)" />
    <path
       id="path13"
       d="m 0,0 c -2.049,-0.445 -6.709,-1.626 -9.09,-2.072 -2.279,-0.446 -3.61,0.84 -3.329,4.093 0.256,3.042 1.593,9.495 2.1,11.673 1.121,4.818 3.324,6.827 5.915,7.188 3.321,0.463 6.222,-2.44 7.809,-10.31 C 3.56,9.812 3.947,8.232 4.199,6.086 4.506,3.48 3.227,0.813 0,0 M 11.335,43.49 C 4.898,55.348 -2.586,52.891 -6.421,51.622 -11.446,49.959 -15.906,47.379 -20.573,28.866 -25.479,9.407 -30.819,-31.469 -30.819,-31.469 l 13.465,3.11 1.384,7.75 c 0.668,3.743 3.051,6.121 6.682,7.189 0,0 10.434,2.708 13.996,3.113 1.505,0.171 3.273,-1.016 3.787,-3.372 l 1.819,-8.339 18.339,4.234 c 0,0 -9.123,46.176 -17.318,61.274"
       style="fill:#f15a22;fill-opacity:1;fill-rule:nonzero;stroke:none"
       transform="matrix(1.3333333,0,0,-1.3333333,356.81147,365.15947)"
       clip-path="url(#clipPath14)" />
    <path
       id="path15"
       d="m 0,0 c -0.44,-0.003 -3.698,0.108 -4.047,2.594 -0.202,1.439 0.489,2.791 2.228,3.854 2.718,1.663 12.129,4.367 21.16,6.486 v 12.489 c 0,0 -16.354,-3.935 -21.383,-3.187 -1.528,0.227 -2.545,1.035 -2.747,2.446 -0.207,1.443 0.519,2.742 2.227,3.854 4.6,2.996 25.245,7.449 25.245,7.449 V 67.047 L -19.825,57.233 V -19.586 L 23.574,-9.567 V 4.15 C 11.991,1.519 4.162,0.022 0,0"
       style="fill:#f15a22;fill-opacity:1;fill-rule:nonzero;stroke:none"
       transform="matrix(1.3333333,0,0,-1.3333333,276.07067,385.73627)"
       clip-path="url(#clipPath16)" />
    <path
       id="path17"
       d="m 0,0 c 0.409,-15.307 0.244,-26.764 -1.856,-34.281 -1.276,-4.567 -4.083,-8.042 -7.833,-10.674 -3.819,-2.68 -7.648,-3.855 -11.397,-3.928 -4.573,-0.091 -7.877,1.689 -8.316,6.486 -0.668,7.3 -0.965,17.506 -0.743,30.292 l -16.594,-3.832 v -113.035 l 22.794,5.263 c -0.408,14.417 0.083,25.11 1.856,31.724 1.209,4.506 4.515,8.321 7.834,10.562 3.878,2.619 7.639,3.979 11.397,4.04 4.566,0.074 7.884,-2.043 8.316,-6.596 0.63,-6.671 0.928,-16.296 0.742,-28.563 l 16.966,3.917 V 5.348 Z"
       style="fill:#f15a22;fill-opacity:1;fill-rule:nonzero;stroke:none"
       transform="matrix(1.3333333,0,0,-1.3333333,205.53413,300.2832)"
       clip-path="url(#clipPath18)" />
    <path
       id="path19"
       d="M 0,0 V 98.423 L -13.454,95.316 C -20.59,71.753 -24.627,60.23 -28.147,50.518 -34.14,33.99 -40.371,40.478 -43.262,45.092 c -3.38,5.395 -7.954,15.909 -15.907,35.161 l -19.649,-4.536 v -91.071 l 16.293,3.761 c -0.124,14.743 0.131,23.335 0.927,27.224 0.716,3.495 2.822,3.987 4.956,0.52 1.756,-2.851 4.535,-9.019 10.06,-21.705 l 10.927,2.523 c 6.021,16.18 9.274,24.332 11.571,28.325 1.864,3.243 5.394,5.524 6.467,-0.47 0.812,-4.535 0.743,-13.66 0.719,-28.725 z"
       style="fill:#faa61a;fill-opacity:1;fill-rule:nonzero;stroke:none"
       transform="matrix(1.3333333,0,0,-1.3333333,590.82973,179.45827)"
       clip-path="url(#clipPath20)" />
    <path
       id="path21"
       d="m 0,0 c 0,0 0.323,-21.376 -0.405,-28.453 -0.967,-9.392 -17.615,-12.634 -18.319,-3.035 -0.314,4.284 -0.555,9.809 -0.555,22.426 l -13.605,-3.141 v -84.311 l 18.655,4.306 v 19.471 c 0,14.975 18.602,16.228 19.604,5.76 0.314,-3.291 0.475,-8.422 0.475,-19.07 l 13.604,3.141 V 4.492 Z"
       style="fill:#faa61a;fill-opacity:1;fill-rule:nonzero;stroke:none"
       transform="matrix(1.3333333,0,0,-1.3333333,449.2608,108.358)"
       clip-path="url(#clipPath22)" />
    <path
       id="path23"
       d="m 0,0 v -34.746 l 12.552,2.898 c 5.002,1.155 6.759,0.093 6.723,-9.957 v -44.652 l 14.872,3.434 v 41.32 c 0.103,17.739 2.185,21.411 11.006,23.447 l 7.877,1.819 v 28.68 z"
       style="fill:#faa61a;fill-opacity:1;fill-rule:nonzero;stroke:none"
       transform="matrix(1.3333333,0,0,-1.3333333,325.01667,124.49213)"
       clip-path="url(#clipPath24)" />
    <path
       id="path25"
       d="m 0,0 -15.861,-3.662 c 0,0 -0.099,-12.002 -0.976,-27.896 -0.933,-16.897 -19.136,-22.078 -20.175,-4.89 -0.664,10.98 -0.558,25.867 -0.558,25.867 l -18.986,-4.384 v -8.128 c 0,-31.656 3.923,-42.821 22.759,-40.333 4.459,0.589 7.876,1.903 11.714,4.501 0.239,0.162 0.542,0.166 0.826,-0.055 0.273,-0.211 0.715,-0.921 0.05,-2.988 -3.585,-11.131 -34.289,-14.439 -34.289,-14.439 l -0.008,-24.874 c 17.552,2.583 36.656,6.32 46.681,22.976 C -5.078,-72.084 0,-64.572 0,0"
       style="fill:#faa61a;fill-opacity:1;fill-rule:nonzero;stroke:none"
       transform="matrix(1.3333333,0,0,-1.3333333,315.22427,144.1628)"
       clip-path="url(#clipPath26)" />
    <path
       id="path27"
       d="m 0,0 c 0,0 0.308,-20.316 -0.385,-27.042 -0.919,-8.925 -16.74,-12.006 -17.409,-2.884 -0.299,4.072 -0.528,9.323 -0.528,21.314 l -12.93,-2.985 v -80.128 l 17.729,4.093 v 18.505 c 0,14.231 17.679,15.422 18.631,5.474 0.3,-3.128 0.452,-8.005 0.452,-18.124 l 12.929,2.985 V 4.269 Z"
       style="fill:#faa61a;fill-opacity:1;fill-rule:nonzero;stroke:none"
       transform="matrix(1.3333333,0,0,-1.3333333,203.40333,161.96293)"
       clip-path="url(#clipPath28)" />
    <path
       id="path29"
       d="m 0,0 c -8.118,-2.07 -12.906,2.278 -12.906,13.192 0,8.704 0.164,17.691 16.1,17.691 11.346,0 16.091,-5.745 16.091,-12.226 C 19.285,13.013 12.379,3.156 0,0 m 47.643,35.956 c 0,20.044 -14.768,44.287 -76.56,29.415 V -43.642 l 16.091,3.715 v 19.696 c 0,8.004 4.612,6.53 7.555,4.614 2.286,-1.489 7.133,-5.396 18.593,-18.273 l 27.336,6.311 -21.302,21.81 c 0,0 28.287,11.39 28.287,41.725"
       style="fill:#faa61a;fill-opacity:1;fill-rule:nonzero;stroke:none"
       transform="matrix(1.3333333,0,0,-1.3333333,86.767867,241.17507)"
       clip-path="url(#clipPath30)" />
  </g>
</svg>
