<?xml version="1.0" encoding="UTF-8" standalone="no"?>
<!-- Generator: Adobe Illustrator 25.0.0, SVG Export Plug-In . SVG Version: 6.00 Build 0)  -->

<svg
   version="1.1"
   id="Layer_1"
   x="0px"
   y="0px"
   viewBox="0 0 666.66699 571.08465"
   xml:space="preserve"
   sodipodi:docname="Rhythm Paradise Megamix Logo (Fever Style).svg"
   width="666.66699"
   height="571.08466"
   inkscape:version="1.2.2 (b0a8486541, 2022-12-01)"
   xmlns:inkscape="http://www.inkscape.org/namespaces/inkscape"
   xmlns:sodipodi="http://sodipodi.sourceforge.net/DTD/sodipodi-0.dtd"
   xmlns:xlink="http://www.w3.org/1999/xlink"
   xmlns="http://www.w3.org/2000/svg"
   xmlns:svg="http://www.w3.org/2000/svg"><defs
   id="defs241" /><sodipodi:namedview
   id="namedview239"
   pagecolor="#505050"
   bordercolor="#eeeeee"
   borderopacity="1"
   inkscape:showpageshadow="0"
   inkscape:pageopacity="0"
   inkscape:pagecheckerboard="0"
   inkscape:deskcolor="#505050"
   showgrid="false"
   inkscape:zoom="2.3977776"
   inkscape:cx="250.02319"
   inkscape:cy="213.94812"
   inkscape:window-width="2560"
   inkscape:window-height="1404"
   inkscape:window-x="2560"
   inkscape:window-y="0"
   inkscape:window-maximized="1"
   inkscape:current-layer="Layer_1" />
<style
   type="text/css"
   id="style2">
	.st0{fill:url(#Spectrum_1_);}
	.st1{fill:#FFFFFF;}
	.st2{fill:#220614;}
	.st3{fill:url(#SVGID_1_);}
	.st4{opacity:0.2;}
	.st5{clip-path:url(#SVGID_3_);}
	.st6{fill:url(#SVGID_4_);}
	.st7{clip-path:url(#SVGID_6_);}
	.st8{fill:url(#SVGID_7_);}
	.st9{clip-path:url(#SVGID_9_);}
	.st10{fill:url(#SVGID_10_);}
	.st11{clip-path:url(#SVGID_12_);}
	.st12{fill:url(#SVGID_13_);}
	.st13{clip-path:url(#SVGID_15_);}
	.st14{fill:url(#SVGID_16_);}
	.st15{clip-path:url(#SVGID_18_);}
	.st16{fill:url(#SVGID_19_);}
	.st17{clip-path:url(#SVGID_21_);}
	.st18{fill:url(#SVGID_22_);}
	.st19{fill:url(#SVGID_23_);}
	.st20{fill:url(#SVGID_24_);}
	.st21{fill:#F06917;}
	.st22{fill:#FEEF0E;}
</style>
<g
   id="Cloud_00000114768624113608430360000003944469187294408854_"
   transform="matrix(1.333334,0,0,1.333334,0,5.333336e-5)">
	<linearGradient
   id="Spectrum_1_"
   gradientUnits="userSpaceOnUse"
   x1="431.1138"
   y1="290.16318"
   x2="44.0182"
   y2="66.673431">
		<stop
   offset="0.05"
   style="stop-color:#FF0000"
   id="stop4" />
		<stop
   offset="0.2"
   style="stop-color:#F49F00"
   id="stop6" />
		<stop
   offset="0.22617"
   style="stop-color:#F2BD00"
   id="stop8" />
		<stop
   offset="0.25775"
   style="stop-color:#F0DA00"
   id="stop10" />
		<stop
   offset="0.2892"
   style="stop-color:#EFEE00"
   id="stop12" />
		<stop
   offset="0.32014"
   style="stop-color:#EEFB00"
   id="stop14" />
		<stop
   offset="0.35"
   style="stop-color:#EEFF00"
   id="stop16" />
		<stop
   offset="0.5"
   style="stop-color:#00FF00"
   id="stop18" />
		<stop
   offset="0.75"
   style="stop-color:#1D0FFF"
   id="stop20" />
		<stop
   offset="0.95"
   style="stop-color:#710EC0"
   id="stop22" />
	</linearGradient>
	<path
   id="Spectrum"
   class="st0"
   d="m 489.22205,163.84859 c 0,-40.20874 -24.84814,-74.69604 -59.93396,-88.80249 C 417.4419,31.81795 378.30555,-4e-5 331.97791,-4e-5 c -37.67944,0 -70.60034,21.04932 -87.95374,52.16406 -10.7323,-3.71118 -22.24548,-5.73291 -34.22302,-5.73291 -18.96008,0 -36.76208,5.05371 -52.13257,13.88379 -13.78467,-7.25415 -29.46826,-11.36816 -46.09692,-11.36816 -54.76416,0 -99.31836,44.5542 -99.31836,99.31836 0,11.56079 1.99231,22.66333 5.64014,32.99097 C 6.6897,196.34956 0.03845,215.1147 0.03845,235.42915 c 0,43.04063 29.84839,79.12962 69.62769,88.05663 18.04431,21.13696 46.1416,34.75 77.6488,34.75 21.31335,0 41.0658,-6.23071 57.203,-16.80396 12.12451,5.12109 25.57129,7.97388 39.71777,7.97388 23.75659,0 45.53662,-8.04785 62.39624,-21.37354 7.13452,1.50854 14.52759,2.30811 22.10474,2.30811 49.15503,0 90.64673,-33.40771 102.98193,-78.70799 33.79676,-14.69702 57.50343,-48.5105 57.50343,-87.78369 z"
   style="fill:url(#Spectrum_1_)" />
	<path
   id="White_00000052803058043877680690000001581581863743186322_"
   class="st1"
   d="m 477.75818,163.84859 c 0,-37.43542 -24.46362,-69.22559 -58.16821,-80.11719 -8.5199,-41.22119 -44.56458,-72.26758 -87.61206,-72.26758 -36.92065,0 -68.6897,22.8374 -82.36157,55.34375 -12.08789,-5.71155 -25.58398,-8.9126 -39.81519,-8.9126 -19.18457,0 -37.03625,5.81055 -51.89636,15.75977 C 144.4452,65.26607 128.56604,60.4106 111.57166,60.4106 c -48.44336,0 -87.85449,39.41113 -87.85449,87.85449 0,12.43188 2.60107,24.26611 7.27881,34.99487 -12.11572,13.90039 -19.49414,32.17004 -19.49414,52.16919 0,38.91966 27.90283,71.3131 64.41345,77.59569 15.7467,20.38477 41.87805,33.74707 71.39966,33.74707 21.32031,0 40.87097,-6.97192 56.02161,-18.52148 12.15112,6.1731 26.08862,9.69141 40.89917,9.69141 23.1001,0 44.07141,-8.55884 59.448,-22.41528 7.98657,2.17944 16.38501,3.34985 25.05298,3.34985 45.8313,0 84.20288,-32.53638 93.23877,-75.72325 32.46666,-11.59437 55.7827,-42.75843 55.7827,-79.30457 z" />
	<path
   id="Black_00000080929325797463199730000003803036481634641570_"
   class="st2"
   d="m 471.00269,163.84859 c 0,-35.9043 -24.32922,-66.08862 -57.31921,-74.83105 -6.32715,-40.1333 -40.49243,-70.79785 -81.70569,-70.79785 -36.74402,0 -67.87732,24.37939 -78.68555,58.10645 -12.78809,-7.42261 -27.6427,-11.67529 -43.49133,-11.67529 -19.4104,0 -37.33142,6.37622 -51.78821,17.14697 -13.1571,-9.21021 -29.1615,-14.63123 -46.44104,-14.63123 -44.78955,0 -81.09863,36.30908 -81.09863,81.09863 0,13.01648 3.08386,25.30664 8.53394,36.20764 -12.81641,13.02808 -20.74878,31.04736 -20.74878,50.95667 0,36.56273 26.75366,66.73473 61.38818,71.33263 14.26392,19.98999 39.22998,33.25415 67.66858,33.25415 21.43689,0 40.89563,-7.54468 55.29529,-19.81458 12.0708,6.95166 26.33252,10.98425 41.62549,10.98425 22.80103,0 43.32349,-8.94189 57.67358,-23.21021 8.46252,2.68909 17.47461,4.14453 26.82764,4.14453 43.98047,0 80.46155,-32.08362 87.33105,-74.12132 31.76952,-9.53723 54.93469,-39.11768 54.93469,-74.15039 z" />
</g>
<g
   id="Megamix_00000075130730769802197730000018333170690423745675_"
   transform="matrix(1.333334,0,0,1.333334,0,5.333336e-5)">
	<g
   id="X_00000094595919581924973820000004253708572781299135_">
		<path
   class="st2"
   d="m 500,215.15274 -72.09784,16.65974 v 87.79256 L 500,302.95996 v -16.83469 c 0,-8.34409 -9.8e-4,-17.65695 -8.13113,-26.19785 C 497.65073,251.44513 500,242.24022 500,229.18489 Z"
   id="path29" />
		
			<linearGradient
   id="SVGID_1_"
   gradientUnits="userSpaceOnUse"
   x1="444.59497"
   y1="4618.6279"
   x2="503.70792"
   y2="4618.4395"
   gradientTransform="matrix(1,0.00319,-0.0035,1,5.96474,-4352.666)">
			<stop
   offset="0"
   style="stop-color:#FF8C3C"
   id="stop31" />
			<stop
   offset="0.75"
   style="stop-color:#FF5A00"
   id="stop33" />
		</linearGradient>
		<path
   class="st3"
   d="m 434.40405,311.60205 -3e-5,-10.32944 c -0.0276,-8.97046 -0.0147,-17.76407 10.46057,-30.65775 -7.67319,-5.07626 -10.46054,-12.26434 -10.46054,-26.28583 v -7.51836 l 22.63309,-5.23726 3e-5,16.65894 c 0,3.87448 2.4108,6.70143 6.91284,5.66205 4.50204,-1.03938 6.9129,-4.97949 6.9129,-8.85397 l 0.003,-16.65955 22.63315,-5.22527 v 7.53035 c 0,14.0215 -2.78775,22.4967 -10.46097,31.11597 10.46155,8.0463 10.46094,16.8508 10.46094,25.82764 v 10.32941 l -22.63315,5.22528 3e-5,-17.57635 c 0,-6.26755 -2.41339,-9.03473 -6.91544,-7.99536 -4.50205,1.03937 -6.91287,4.92035 -6.91287,11.1879 l 3e-5,17.57632 z"
   id="path36"
   style="fill:url(#SVGID_1_)" />
		<g
   class="st4"
   id="g48">
			<defs
   id="defs39">
				<path
   id="SVGID_2_"
   class="st4"
   d="m 434.40405,311.60205 -3e-5,-10.32944 c -0.0276,-8.97046 -0.0147,-17.76407 10.46057,-30.65775 -7.67319,-5.07626 -10.46054,-12.26434 -10.46054,-26.28583 v -7.51836 l 22.63309,-5.23726 3e-5,16.65894 c 0,3.87448 2.4108,6.70143 6.91284,5.66205 4.50204,-1.03938 6.9129,-4.97949 6.9129,-8.85397 l 0.003,-16.65955 22.63315,-5.22527 v 7.53035 c 0,14.0215 -2.78775,22.4967 -10.46097,31.11597 10.46155,8.0463 10.46094,16.8508 10.46094,25.82764 v 10.32941 l -22.63315,5.22528 3e-5,-17.57635 c 0,-6.26755 -2.41339,-9.03473 -6.91544,-7.99536 -4.50205,1.03937 -6.91287,4.92035 -6.91287,11.1879 l 3e-5,17.57632 z" />
			</defs>
			<clipPath
   id="SVGID_3_">
				<use
   xlink:href="#SVGID_2_"
   style="overflow:visible"
   id="use41" />
			</clipPath>
			<g
   class="st5"
   clip-path="url(#SVGID_3_)"
   id="g46">
				<polygon
   class="st1"
   points="578.28992,261.35855 78.89845,563.47357 50.05502,508.58344 549.47412,206.44084 "
   id="polygon44" />
			</g>
		</g>
	</g>
	<g
   id="I_00000015344619319723039470000014752042093031125165_">
		<polygon
   class="st2"
   points="432.92892,223.00632 397.26486,231.24002 397.26486,319.05115 432.92892,310.81744 "
   id="polygon51" />
		
			<linearGradient
   id="SVGID_4_"
   gradientUnits="userSpaceOnUse"
   x1="1411.5004"
   y1="4222.5552"
   x2="1450.6733"
   y2="4213.8301"
   gradientTransform="matrix(0.9523,0.0031,-0.2099,1.04947,-65.63483,-4159.4956)">
			<stop
   offset="0"
   style="stop-color:#AA37BE"
   id="stop53" />
			<stop
   offset="1"
   style="stop-color:#5F14A5"
   id="stop55" />
		</linearGradient>
		<path
   class="st6"
   d="m 403.76651,236.24065 22.66074,-5.23166 v 74.8076 l -22.66074,5.23166 z"
   id="path58"
   style="fill:url(#SVGID_4_)" />
		<g
   class="st4"
   id="g70">
			<defs
   id="defs61">
				<path
   id="SVGID_5_"
   class="st4"
   d="m 403.76651,236.24065 22.66074,-5.23166 v 74.8076 l -22.66074,5.23166 z" />
			</defs>
			<clipPath
   id="SVGID_6_">
				<use
   xlink:href="#SVGID_5_"
   style="overflow:visible"
   id="use63" />
			</clipPath>
			<g
   class="st7"
   clip-path="url(#SVGID_6_)"
   id="g68">
				<polygon
   class="st1"
   points="578.28992,261.35855 78.89845,563.47357 50.05502,508.58344 549.47412,206.44084 "
   id="polygon66" />
			</g>
		</g>
	</g>
	<g
   id="M_00000059286847030812955930000007206450352868679103_">
		<path
   class="st2"
   d="m 393.86356,249.44313 c -6.80948,-6.2572 -16.05615,-8.26126 -26.73779,-5.79523 -5.83264,1.34659 -10.86917,3.67471 -15.88519,7.39204 -5.01505,-1.40147 -10.05157,-1.40405 -15.88422,-0.0575 -10.68262,2.46626 -19.92831,8.73964 -26.73877,18.14125 -6.94525,9.58902 -9.40686,18.33923 -9.40686,33.43811 v 46.41794 L 403.2714,324.95547 V 278.5375 c -1e-5,-15.09982 -2.46162,-22.71343 -9.40784,-29.09437 z"
   id="path73" />
		
			<linearGradient
   id="SVGID_7_"
   gradientUnits="userSpaceOnUse"
   x1="305.71747"
   y1="313.84421"
   x2="396.9147"
   y2="313.84415"
   gradientTransform="matrix(1,-0.23087,0,1,0,59.38258)">
			<stop
   offset="0"
   style="stop-color:#FFFF00"
   id="stop75" />
			<stop
   offset="0.75"
   style="stop-color:#FFBE00"
   id="stop77" />
		</linearGradient>
		<path
   class="st8"
   d="m 388.95816,254.84233 c -5.55569,-5.10461 -13.05301,-6.71948 -21.83261,-4.69255 -5.8956,1.3611 -10.64038,3.82567 -15.88461,8.38159 -5.24423,-2.13446 -9.96078,-2.4147 -15.88458,-1.04709 -8.75354,2.0209 -16.27692,7.10358 -21.8327,14.77347 -5.8432,8.06674 -7.81116,15.2565 -7.81116,28.80347 v 39.91553 l 22.74341,-5.25073 v -44.23819 c 0,-6.66653 2.14868,-9.45572 5.65836,-10.26599 3.50968,-0.81027 5.75497,0.96451 5.75497,7.63101 v 44.23819 l 22.74341,-5.25073 v -44.23819 c 0,-6.66653 2.24533,-9.47803 5.75494,-10.28827 3.50974,-0.8103 5.65839,0.98679 5.65839,7.65329 v 44.23819 l 22.74341,-5.25073 v -39.9155 c -10e-6,-13.547 -1.96794,-19.82807 -7.81123,-25.19677 z"
   id="path80"
   style="fill:url(#SVGID_7_)" />
		<g
   class="st4"
   id="g94">
			<defs
   id="defs83">
				<path
   id="SVGID_8_"
   class="st4"
   d="m 388.95816,254.84233 c -5.55569,-5.10461 -13.05301,-6.71948 -21.83261,-4.69255 -5.8956,1.3611 -10.64038,3.82567 -15.88461,8.38159 -5.24423,-2.13446 -9.96078,-2.4147 -15.88458,-1.04709 -8.75354,2.0209 -16.27692,7.10358 -21.8327,14.77347 -5.8432,8.06674 -7.81116,15.2565 -7.81116,28.80347 v 39.91553 l 22.74341,-5.25073 v -44.23819 c 0,-6.66653 2.14868,-9.45572 5.65836,-10.26599 3.50968,-0.81027 5.75497,0.96451 5.75497,7.63101 v 44.23819 l 22.74341,-5.25073 v -44.23819 c 0,-6.66653 2.24533,-9.47803 5.75494,-10.28827 3.50974,-0.8103 5.65839,0.98679 5.65839,7.65329 v 44.23819 l 22.74341,-5.25073 v -39.9155 c -10e-6,-13.547 -1.96794,-19.82807 -7.81123,-25.19677 z" />
			</defs>
			<clipPath
   id="SVGID_9_">
				<use
   xlink:href="#SVGID_8_"
   style="overflow:visible"
   id="use85" />
			</clipPath>
			<g
   class="st9"
   clip-path="url(#SVGID_9_)"
   id="g92">
				<polygon
   class="st1"
   points="494.06555,176.70609 -4.78429,480.55649 -34.86943,418.57898 463.98041,114.72857 "
   id="polygon88" />
				<polygon
   class="st1"
   points="578.28992,261.35855 78.89845,563.47357 50.05502,508.58344 549.47412,206.44084 "
   id="polygon90" />
			</g>
		</g>
	</g>
	<g
   id="A_00000101073405062590794400000004878909772744677024_">
		<path
   class="st2"
   d="m 296.68658,266.28586 c -6.49884,-7.20709 -17.38168,-10.10428 -28.40131,-7.56018 -11.00595,2.54089 -21.88098,10.46033 -28.3813,20.66849 -5.58942,8.77588 -7.66762,16.78604 -7.66762,29.55515 v 47.72791 l 72.09784,-16.64511 v -47.72787 c 1e-5,-12.78478 -2.07284,-19.8366 -7.64761,-26.01839 z"
   id="path97" />
		
			<linearGradient
   id="SVGID_10_"
   gradientUnits="userSpaceOnUse"
   x1="238.73795"
   y1="306.09607"
   x2="297.83249"
   y2="306.09607"
   gradientTransform="matrix(1,-0.23087,0,1,0,59.38258)">
			<stop
   offset="0"
   style="stop-color:#6EE6FF"
   id="stop99" />
			<stop
   offset="0.85"
   style="stop-color:#00A0FF"
   id="stop101" />
		</linearGradient>
		<path
   class="st10"
   d="m 291.47601,271.37738 c -5.3465,-5.92831 -14.22034,-8.2211 -23.1908,-6.15012 -8.97043,2.07098 -17.83093,8.46802 -23.17139,16.85361 -4.68053,7.34952 -6.37589,14.0213 -6.37589,25.36768 v 41.22595 l 22.60556,-5.2189 v -16.41718 l 13.88342,-3.18484 v 16.39676 l 22.60556,-5.2189 v -41.22592 c 2e-5,-11.34638 -1.6837,-17.24687 -6.35646,-22.42814 z m -15.68502,34.28183 -7.50577,-2.39987 -7.50577,5.86557 1.40717,-9.13086 -6.04602,-4.85602 8.37546,-3.24332 3.76917,-8.86673 3.76917,7.12637 8.37546,-0.62393 -6.04605,7.64767 z"
   id="path104"
   style="fill:url(#SVGID_10_)" />
		<g
   class="st4"
   id="g116">
			<defs
   id="defs107">
				<path
   id="SVGID_11_"
   class="st4"
   d="m 291.47601,271.37738 c -5.3465,-5.92831 -14.22034,-8.2211 -23.1908,-6.15012 -8.97043,2.07098 -17.83093,8.46802 -23.17139,16.85361 -4.68053,7.34952 -6.37589,14.0213 -6.37589,25.36768 v 41.22595 l 22.60556,-5.2189 v -16.41718 l 13.88342,-3.18484 v 16.39676 l 22.60556,-5.2189 v -41.22592 c 2e-5,-11.34638 -1.6837,-17.24687 -6.35646,-22.42814 z m -15.68502,34.28183 -7.50577,-2.39987 -7.50577,5.86557 1.40717,-9.13086 -6.04602,-4.85602 8.37546,-3.24332 3.76917,-8.86673 3.76917,7.12637 8.37546,-0.62393 -6.04605,7.64767 z" />
			</defs>
			<clipPath
   id="SVGID_12_">
				<use
   xlink:href="#SVGID_11_"
   style="overflow:visible"
   id="use109" />
			</clipPath>
			<g
   class="st11"
   clip-path="url(#SVGID_12_)"
   id="g114">
				<polygon
   class="st1"
   points="494.06555,176.70609 -4.78429,480.55649 -34.86943,418.57898 463.98041,114.72857 "
   id="polygon112" />
			</g>
		</g>
	</g>
	<g
   id="G_00000026163856180819754160000000282307281469869728_">
		<path
   class="st2"
   d="m 233.17166,276.19617 c -7.46394,0.22668 -12.62796,0.86209 -19.05403,2.34567 -14.5743,3.36475 -25.87378,10.39554 -34.54411,21.49545 -7.91183,10.12866 -12.4492,22.94211 -12.4492,35.15442 0,12.72418 4.81821,23.40704 13.5667,30.08203 8.80661,6.72021 18.69603,8.17148 33.06764,4.85355 6.2854,-1.45111 10.98541,-3.04318 19.34219,-6.55298 l 5.29393,-2.22345 v -85.31339 z"
   id="path119" />
		
			<linearGradient
   id="SVGID_13_"
   gradientUnits="userSpaceOnUse"
   x1="1194.1373"
   y1="4277.8276"
   x2="1252.5378"
   y2="4264.8198"
   gradientTransform="matrix(0.9523,0.0031,-0.2099,1.04947,-65.63483,-4159.4961)">
			<stop
   offset="0"
   style="stop-color:#FF8232"
   id="stop121" />
			<stop
   offset="0.75"
   style="stop-color:#C80000"
   id="stop123" />
		</linearGradient>
		<path
   class="st12"
   d="m 231.89276,357.46436 c -7.56277,3.17651 -12.0517,4.75653 -18.13406,6.16077 -12.70461,2.93311 -20.94807,1.72961 -28.4846,-4.02087 -7.50639,-5.72754 -11.64778,-14.89905 -11.64778,-25.91406 0,-10.5437 3.81454,-21.49863 10.65413,-30.25443 7.45844,-9.548 16.94347,-15.4151 29.83707,-18.39182 5.65742,-1.30612 10.4057,-1.95444 17.77525,-2.17755 v 23.43991 c -6.92793,0.14017 -11.25089,0.66891 -16.56081,1.89481 -12.36542,2.8548 -19.37616,10.22073 -19.37616,20.37589 0,8.53522 5.24429,13.49542 13.33148,12.74765 v -22.30829 l 22.60548,-5.2189 z"
   id="path126"
   style="fill:url(#SVGID_13_)" />
		<g
   class="st4"
   id="g138">
			<defs
   id="defs129">
				<path
   id="SVGID_14_"
   class="st4"
   d="m 231.89276,357.46436 c -7.56277,3.17651 -12.0517,4.75653 -18.13406,6.16077 -12.70461,2.93311 -20.94807,1.72961 -28.4846,-4.02087 -7.50639,-5.72754 -11.64778,-14.89905 -11.64778,-25.91406 0,-10.5437 3.81454,-21.49863 10.65413,-30.25443 7.45844,-9.548 16.94347,-15.4151 29.83707,-18.39182 5.65742,-1.30612 10.4057,-1.95444 17.77525,-2.17755 v 23.43991 c -6.92793,0.14017 -11.25089,0.66891 -16.56081,1.89481 -12.36542,2.8548 -19.37616,10.22073 -19.37616,20.37589 0,8.53522 5.24429,13.49542 13.33148,12.74765 v -22.30829 l 22.60548,-5.2189 z" />
			</defs>
			<clipPath
   id="SVGID_15_">
				<use
   xlink:href="#SVGID_14_"
   style="overflow:visible"
   id="use131" />
			</clipPath>
			<g
   class="st13"
   clip-path="url(#SVGID_15_)"
   id="g136">
				<polygon
   class="st1"
   points="494.06555,176.70609 -4.78429,480.55649 -34.86943,418.57898 463.98041,114.72857 "
   id="polygon134" />
			</g>
		</g>
	</g>
	<g
   id="E_00000099631791829120606860000007234698202397282727_">
		<path
   class="st2"
   d="m 144.96738,288.6611 c -9.51628,2.14621 -16.65739,5.80615 -21.85754,11.12402 -6.56625,6.71463 -10.33241,15.6918 -10.33241,24.63077 0,6.25171 1.65084,10.66486 5.31884,13.7283 -4.12711,5.33878 -6.03632,11.27032 -6.03632,18.37283 0,8.80417 3.07457,15.38638 8.89159,19.03696 6.29909,3.95251 12.97572,3.49731 21.70612,1.48175 l 30.26659,-6.98761 v -87.8414 z"
   id="path141" />
		
			<linearGradient
   id="SVGID_16_"
   gradientUnits="userSpaceOnUse"
   x1="1137.375"
   y1="4282.8022"
   x2="1185.3944"
   y2="4272.1064"
   gradientTransform="matrix(0.9523,0.0031,-0.2099,1.04947,-65.63483,-4159.4956)">
			<stop
   offset="0"
   style="stop-color:#C8F000"
   id="stop143" />
			<stop
   offset="0.8"
   style="stop-color:#14B400"
   id="stop145" />
		</linearGradient>
		<path
   class="st14"
   d="m 142.65759,370.53412 c -8.86003,2.04526 -13.25746,1.75262 -17.47166,-0.89185 -4.39948,-2.76071 -6.62433,-7.78149 -6.62433,-14.62665 0,-8.2804 2.87054,-13.6636 10.43331,-19.43466 -7.14875,-2.06787 -9.71568,-5.40677 -9.71568,-12.66595 0,-7.06595 2.88457,-13.86984 7.86639,-18.96457 3.93051,-4.01962 9.79848,-6.95859 17.80287,-8.78281 l 21.47386,-4.95761 v 21.08685 l -15.07033,3.47925 c -5.9619,1.37643 -7.78362,2.77203 -7.78362,6.02896 0,3.25696 1.82172,3.81137 7.78362,2.43497 l 15.07033,-3.47925 -2e-5,15.8085 -15.07031,3.47928 c -5.9619,1.3764 -6.56915,4.17307 -6.56915,5.74631 0,1.68369 0.60725,4.12491 6.56915,2.7485 l 15.07033,-3.47925 v 20.9834 z"
   id="path148"
   style="fill:url(#SVGID_16_)" />
		<g
   class="st4"
   id="g160">
			<defs
   id="defs151">
				<path
   id="SVGID_17_"
   class="st4"
   d="m 142.65759,370.53412 c -8.86003,2.04526 -13.25746,1.75262 -17.47166,-0.89185 -4.39948,-2.76071 -6.62433,-7.78149 -6.62433,-14.62665 0,-8.2804 2.87054,-13.6636 10.43331,-19.43466 -7.14875,-2.06787 -9.71568,-5.40677 -9.71568,-12.66595 0,-7.06595 2.88457,-13.86984 7.86639,-18.96457 3.93051,-4.01962 9.79848,-6.95859 17.80287,-8.78281 l 21.47386,-4.95761 v 21.08685 l -15.07033,3.47925 c -5.9619,1.37643 -7.78362,2.77203 -7.78362,6.02896 0,3.25696 1.82172,3.81137 7.78362,2.43497 l 15.07033,-3.47925 -2e-5,15.8085 -15.07031,3.47928 c -5.9619,1.3764 -6.56915,4.17307 -6.56915,5.74631 0,1.68369 0.60725,4.12491 6.56915,2.7485 l 15.07033,-3.47925 v 20.9834 z" />
			</defs>
			<clipPath
   id="SVGID_18_">
				<use
   xlink:href="#SVGID_17_"
   style="overflow:visible"
   id="use153" />
			</clipPath>
			<g
   class="st15"
   clip-path="url(#SVGID_18_)"
   id="g158">
				<polygon
   class="st1"
   points="494.06555,176.70609 -4.78429,480.55649 -34.86943,418.57898 463.98041,114.72857 "
   id="polygon156" />
			</g>
		</g>
	</g>
	<g
   id="M_00000047021299359639959340000005369444231042954939_">
		<path
   class="st2"
   d="m 109.05912,314.12286 c -6.80997,-6.25711 -16.05566,-8.26138 -26.73827,-5.7951 -5.83363,1.3468 -10.87016,3.67493 -15.88422,7.39182 -5.01455,-1.40161 -10.05157,-1.40408 -15.88471,-0.0574 -10.68261,2.46625 -19.9283,8.73962 -26.73827,18.14111 -6.94575,9.58817 -9.40736,18.33841 -9.40736,33.43823 v 46.41699 l 104.0602,-24.0242 v -46.41699 c -10e-6,-15.09983 -2.46162,-22.71344 -9.40737,-29.09449 z"
   id="path163" />
		
			<linearGradient
   id="SVGID_19_"
   gradientUnits="userSpaceOnUse"
   x1="12.60427"
   y1="312.77148"
   x2="114.19212"
   y2="312.77142"
   gradientTransform="matrix(1,-0.23087,0,1,0,59.38258)">
			<stop
   offset="0"
   style="stop-color:#FFFF00"
   id="stop165" />
			<stop
   offset="0.75"
   style="stop-color:#FFBE00"
   id="stop167" />
		</linearGradient>
		<path
   class="st16"
   d="m 104.15366,319.52173 c -5.55572,-5.10461 -13.05301,-6.71948 -21.83263,-4.69254 -5.89559,1.36108 -10.64036,3.82565 -15.88459,8.38159 -5.24423,-2.13449 -9.96079,-2.41473 -15.88459,-1.04712 -8.75356,2.02094 -16.27691,7.10361 -21.83269,14.7735 -5.84321,8.06671 -7.81116,15.25647 -7.81116,28.80347 v 39.9155 l 22.74339,-5.2507 v -44.23819 c 0,-6.66653 2.14867,-9.45572 5.65836,-10.26599 3.50968,-0.81027 5.75496,0.96448 5.75496,7.63098 v 44.23822 l 22.74343,-5.25073 V 348.2815 c 0,-6.6665 2.24531,-9.478 5.75493,-10.28824 3.50974,-0.8103 5.65838,0.98676 5.65838,7.65329 v 44.23819 l 22.74343,-5.25073 v -39.91553 c 0,-13.54697 -1.96795,-19.82807 -7.81122,-25.19675 z"
   id="path170"
   style="fill:url(#SVGID_19_)" />
		<g
   class="st4"
   id="g182">
			<defs
   id="defs173">
				<path
   id="SVGID_20_"
   class="st4"
   d="m 104.15366,319.52173 c -5.55572,-5.10461 -13.05301,-6.71948 -21.83263,-4.69254 -5.89559,1.36108 -10.64036,3.82565 -15.88459,8.38159 -5.24423,-2.13449 -9.96079,-2.41473 -15.88459,-1.04712 -8.75356,2.02094 -16.27691,7.10361 -21.83269,14.7735 -5.84321,8.06671 -7.81116,15.25647 -7.81116,28.80347 v 39.9155 l 22.74339,-5.2507 v -44.23819 c 0,-6.66653 2.14867,-9.45572 5.65836,-10.26599 3.50968,-0.81027 5.75496,0.96448 5.75496,7.63098 v 44.23822 l 22.74343,-5.25073 V 348.2815 c 0,-6.6665 2.24531,-9.478 5.75493,-10.28824 3.50974,-0.8103 5.65838,0.98676 5.65838,7.65329 v 44.23819 l 22.74343,-5.25073 v -39.91553 c 0,-13.54697 -1.96795,-19.82807 -7.81122,-25.19675 z" />
			</defs>
			<clipPath
   id="SVGID_21_">
				<use
   xlink:href="#SVGID_20_"
   style="overflow:visible"
   id="use175" />
			</clipPath>
			<g
   class="st17"
   clip-path="url(#SVGID_21_)"
   id="g180">
				<polygon
   class="st1"
   points="494.06555,176.70609 -4.78429,480.55649 -34.86943,418.57898 463.98041,114.72857 "
   id="polygon178" />
			</g>
		</g>
	</g>
	<g
   id="_x2605__00000054258617414068435600000016198309596798531233_">
		<polygon
   class="st2"
   points="424.09253,300.95029 409.39319,303.68445 420.50659,313.65982 418.59689,328.40799 431.48322,320.98508 444.96249,327.44095 441.86203,312.81195 452.11093,301.9447 437.27875,300.39935 430.13617,287.25613 "
   id="polygon185" />
		
			<radialGradient
   id="SVGID_22_"
   cx="439.452"
   cy="309.97061"
   r="11.5742"
   gradientTransform="matrix(0.96898,0,0,0.96898,5.07995,8.38258)"
   gradientUnits="userSpaceOnUse">
			<stop
   offset="0"
   style="stop-color:#FAFFC8"
   id="stop187" />
			<stop
   offset="0.45"
   style="stop-color:#C8FF00"
   id="stop189" />
			<stop
   offset="1"
   style="stop-color:#00A000"
   id="stop191" />
		</radialGradient>
		<polygon
   class="st18"
   points="427.3381,305.05209 419.47168,306.51489 425.40607,311.84192 424.38477,319.73605 431.2851,315.76132 438.48898,319.21149 436.83301,311.40027 442.32559,305.57642 434.3764,304.74844 430.56738,297.73761 "
   id="polygon194"
   style="fill:url(#SVGID_22_)" />
	</g>
	<g
   id="_x2605__00000160885025381714243320000014437629920202125446_">
		<polygon
   class="st2"
   points="194.4267,264.14825 193.48552,277.20944 182.20265,283.89581 194.35442,288.79852 197.17451,301.59207 205.63582,291.56393 218.67943,292.82111 211.7283,281.68723 216.94995,269.67905 204.24237,272.81662 "
   id="polygon197" />
		
			<radialGradient
   id="SVGID_23_"
   cx="202.31383"
   cy="283.07632"
   r="10.07853"
   gradientTransform="matrix(0.96898,0,0,0.96898,5.07995,8.38258)"
   gradientUnits="userSpaceOnUse">
			<stop
   offset="0"
   style="stop-color:#FFFFA0"
   id="stop199" />
			<stop
   offset="0.55"
   style="stop-color:#FFFF00"
   id="stop201" />
			<stop
   offset="1"
   style="stop-color:#FFC800"
   id="stop203" />
		</radialGradient>
		<polygon
   class="st19"
   points="197.9431,272.75836 197.44626,279.65869 191.48442,283.19177 197.9155,285.78635 199.40602,292.54868 203.87746,287.24915 210.75018,287.91168 207.07927,282.0325 209.83929,275.6842 203.13214,277.34018 "
   id="polygon206"
   style="fill:url(#SVGID_23_)" />
	</g>
	<g
   id="_x2605__00000063597221033573741370000005453273305692084410_">
		<polygon
   class="st2"
   points="8.47497,389.1199 10.47454,403.21558 0,412.91058 14.05316,415.34192 19.95272,428.31323 26.68015,415.68869 40.84613,414.0271 30.89712,403.78604 33.6762,389.79196 20.89487,396.08569 "
   id="polygon209" />
		
			<radialGradient
   id="SVGID_24_"
   cx="15.90756"
   cy="412.30322"
   r="11.69564"
   gradientTransform="matrix(0.96898,0,0,0.96898,5.07995,8.38258)"
   gradientUnits="userSpaceOnUse">
			<stop
   offset="0"
   style="stop-color:#D9FFFF"
   id="stop211" />
			<stop
   offset="0.42"
   style="stop-color:#96D2FF"
   id="stop213" />
			<stop
   offset="1"
   style="stop-color:#00AAFF"
   id="stop215" />
		</radialGradient>
		<polygon
   class="st20"
   points="13.7316,396.79898 14.86325,404.77579 8.92901,410.26843 16.9058,411.6485 20.24546,418.99048 24.05461,411.84167 32.05899,410.90326 26.4283,405.10699 28.00149,397.18539 20.77002,400.746 "
   id="polygon218"
   style="fill:url(#SVGID_24_)" />
	</g>
</g>
<g
   id="Rhythm_Paradise_x2122__00000036242323396926635060000016540050498591116723_"
   transform="matrix(1.333334,0,0,1.333334,0,5.333336e-5)">
	<path
   id="_x2122_"
   class="st21"
   d="m 403.88144,218.19341 v -6.68066 l -2.81012,0.66263 v -1.43559 l 7.43292,-1.7527 v 1.43559 l -2.70886,0.63875 v 6.68066 z m 12.61267,-2.97413 v -6.78387 l -1.70633,7.18623 -1.84811,0.43579 -1.66583,-6.39107 v 6.78387 l -1.74683,0.41191 v -8.12096 l 2.72913,-0.64352 1.64557,6.05338 0.0202,-0.005 1.60504,-6.81989 2.6937,-0.63518 v 8.12096 z" />
	<path
   id="E"
   class="st21"
   d="m 392.82584,170.05232 c 3.93079,-1.48091 12.15802,-3.69312 19.06894,-5.19234 v -21.39293 l -34.53635,7.97334 v 57.17815 L 411.84,200.65783 v -9.52538 c -4.53421,1.1884 -13.87674,2.94354 -17.99036,3.63834 -5.00946,0.84096 -5.72256,-5.53975 -0.18286,-7.36804 3.1813,-1.04211 9.01343,-2.43158 13.56595,-3.71141 l -0.0184,-7.33138 c -4.15012,0.84097 -9.74472,1.80995 -14.16916,2.43158 -5.48484,0.78616 -6.43555,-6.39899 -0.21933,-8.73922 z" />
	<path
   id="S"
   class="st21"
   d="m 360.76352,209.45171 c -0.20248,-1.90002 -3.48862,-2.33017 -8.60727,-3.55722 -8.94949,-2.22247 -14.48907,-7.49449 -13.92322,-16.75671 0.6022,-9.99741 5.66376,-16.96989 32.45114,-21.51898 v 20.79657 c -9.66629,1.20894 -15.00299,3.01726 -17.26645,4.8688 -2.41397,1.95897 -2.27319,5.16698 1.21115,6.33069 1.51376,0.50557 5.98926,2.00032 8.69397,2.90733 5.19049,1.72984 7.72992,4.38274 8.25943,9.07806 1.49512,13.24579 -22.47855,16.71959 -32.36288,18.17094 v -11.7688 c 11.84146,-2.386 22.00095,-4.47712 21.54413,-8.55068 z" />
	<polygon
   id="I_00000069395213474780371850000001907844931106407820_"
   class="st21"
   points="332.18149,209.94992 319.29205,212.92567 319.29205,161.95303 332.18149,158.97726 " />
	<path
   id="D"
   class="st21"
   d="m 274.66354,177.786 v 55.59819 c 26.87595,-3.93085 38.5769,-14.31548 38.28427,-34.9568 -0.25592,-17.89898 -18.02685,-27.73514 -38.28427,-20.64139 z m 13.82184,43.6412 c -3.54742,0.8208 -5.08252,-0.36568 -5.08252,-4.51585 v -13.09056 c 0,-3.01669 -0.1561,-5.42638 2.70581,-6.23444 6.21625,-1.75519 13.16364,1.57234 13.82187,8.33698 0.76776,7.86163 -3.60562,13.69398 -11.44516,15.50387 z" />
	<path
   id="A_00000047052281928485690930000005185903103093918849_"
   class="st21"
   d="m 262.54199,205.66721 c -3.40063,-11.15253 -6.15332,-13.90486 -12.92601,-12.34094 -5.97079,1.37814 -9.36505,4.4866 -12.21291,15.39418 -2.7973,10.71375 -5.86884,25.88855 -8.35527,43.22072 l 9.83614,-2.13908 c 0.18285,-1.37122 0.51196,-2.98012 0.98732,-5.43005 0.5119,-2.46814 1.84651,-4.23291 4.49757,-4.84496 2.18266,-0.50389 6.24487,-1.44173 7.6788,-1.77278 2.0527,-0.47391 3.93083,1.15123 4.58899,3.89363 0.43878,1.82829 1.00555,4.40616 1.35291,6.14307 l 13.05405,-2.99841 c -1.59067,-12.77974 -5.11923,-28.04599 -8.50159,-39.12538 z m -11.37195,24.37104 -6.4904,1.49844 c -1.63118,0.37659 -2.55962,-0.63911 -2.35847,-2.90622 0.1828,-2.12079 1.13353,-6.61835 1.49918,-8.15411 0.76788,-3.18124 2.37677,-4.73531 4.22334,-5.00954 2.9801,-0.47537 4.42444,1.7003 5.57626,7.1852 0.10971,0.51193 0.42052,1.62715 0.54849,3.12636 0.25597,3.05324 -0.6931,3.72768 -2.9984,4.25987 z" />
	<path
   id="R"
   class="st21"
   d="m 227.29265,209.0733 c 0,-17.7002 -17.31989,-22.83975 -38.50371,-15.27147 v 55.68628 l 9.02795,-2.08426 v -12.85361 c 0,-2.1834 1.60689,-1.80313 3.09109,-0.47839 1.04263,0.93224 7.3107,7.00406 11.68974,11.37086 l 13.78221,-3.18192 c 0,0 -12.01587,-12.27361 -13.40198,-13.48795 8.07121,-3.01748 14.3147,-10.88109 14.3147,-19.69954 z m -24.25032,16.64528 c -3.34868,0.78502 -5.21315,-1.07942 -5.21315,-5.06596 v -3.85158 c -1.8e-4,-2.77802 0.53969,-5.18863 3.01747,-5.97365 7.19417,-2.27927 12.20493,0.82181 12.20493,5.69148 -1e-5,4.5508 -3.4836,7.6664 -10.00925,9.19971 z" />
	<path
   id="A"
   class="st21"
   d="m 178.93445,231.48279 c -3.40063,-11.15253 -6.15332,-13.90486 -12.92601,-12.34094 -5.97079,1.37814 -9.36505,4.4866 -12.21292,15.39418 -2.7973,10.71375 -5.86882,25.88853 -8.35526,43.22072 l 9.83614,-2.1391 c 0.18285,-1.37122 0.51196,-2.9801 0.98732,-5.43002 0.5119,-2.46817 1.84651,-4.23294 4.49757,-4.84497 2.18266,-0.50391 6.24487,-1.44174 7.6788,-1.7728 2.0527,-0.47388 3.93083,1.15125 4.58899,3.89365 0.43878,1.82828 1.00557,4.40616 1.35292,6.14307 l 13.05402,-2.99841 c -1.59064,-12.77974 -5.11923,-28.04599 -8.50157,-39.12538 z m -11.37195,24.37105 -6.4904,1.49843 c -1.6312,0.37662 -2.55962,-0.6391 -2.35847,-2.9062 0.18279,-2.12079 1.13353,-6.61835 1.49916,-8.15411 0.76788,-3.18124 2.37679,-4.73532 4.22336,-5.00954 2.98009,-0.47537 4.42442,1.7003 5.57625,7.1852 0.10973,0.51193 0.42053,1.62714 0.54849,3.12636 0.25597,3.05322 -0.69309,3.72764 -2.99839,4.25986 z" />
	<path
   id="P"
   class="st21"
   d="m 96.05753,205.42787 v 77.06474 l 19.08788,-4.40677 v -18.10046 c 0,-3.3093 0.82272,-4.9548 2.7973,-5.30219 17.78883,-3.12935 30.46008,-12.07318 30.46008,-30.42351 6e-5,-20.15026 -21.64755,-30.99024 -52.34526,-18.83181 z m 25.4687,39.69313 c -4.05889,0.98726 -6.39912,-0.0731 -6.39912,-3.47385 v -12.3047 c 0,-3.4752 1.91975,-5.66783 5.74091,-6.16147 7.66077,-0.98727 11.11629,3.49217 11.11629,9.32451 0,4.86336 -2.87043,10.75063 -10.45808,12.61551 z" />
	<path
   id="M"
   class="st22"
   d="m 368.96664,56.82654 c -5.2655,17.38698 -8.24567,25.88852 -10.84183,33.05543 -4.42444,12.19468 -9.01352,7.40459 -11.1525,4.00396 -2.48651,-3.98568 -5.86884,-11.73763 -11.73767,-25.94339 l -14.49826,3.34574 v 68.24833 l 12.03018,-2.77739 c -0.0915,-10.8783 0.0914,-18.26455 0.67639,-21.13497 0.53027,-2.57788 2.0842,-2.94354 3.65656,-0.38396 1.29803,2.10256 3.34586,6.65498 7.42288,16.01582 l 8.06079,-1.86098 c 4.44272,-11.9387 6.83978,-17.95768 8.54007,-20.90123 1.37122,-2.39505 3.98569,-4.07707 4.77185,0.34737 0.60321,3.34579 0.54843,12.42241 0.53015,23.53838 l 12.46893,-2.87868 v -74.9664 z" />
	<path
   id="H_00000031896610271962245250000000626054935239758492_"
   class="st22"
   d="m 299.60141,92.46051 c -0.0548,9.32422 -0.0365,17.82574 -0.43878,20.93385 -0.93243,7.42283 -13.62076,10.76863 -14.24237,3.93082 -0.29251,-3.21777 -0.54849,-7.46883 -0.54849,-16.95763 l -10.25668,2.36788 v 62.52741 l 13.07227,-3.01797 c 0,-9.92757 0,-14.24104 0.16455,-17.64163 0.45709,-8.95862 13.91324,-10.98802 15.08334,-3.19948 0.53021,3.54688 0.62164,5.24716 0.62164,13.25502 l 10.42123,-2.40593 V 89.25682 Z" />
	<path
   id="T_00000170237883190621908460000010861630205109580214_"
   class="st22"
   d="m 230.23621,97.62509 v 25.16818 l 7.29486,-1.68415 c 4.42432,-1.02143 6.25275,-0.44537 6.25275,7.38627 v 32.30725 l 11.97528,-2.74385 3e-5,-29.63657 c -3e-5,-13.16397 1.2359,-16.48596 7.75189,-17.9903 l 5.96024,-1.37603 V 88.56697 Z" />
	<path
   id="Y"
   class="st22"
   d="m 225.33641,114.24773 -11.18921,2.58324 c 0,0 0.16455,11.51814 -0.27411,20.00139 -0.64003,12.41411 -13.14546,15.08339 -14.15097,3.27267 -0.51196,-6.19791 -0.74959,-18.55144 -0.74959,-18.55144 l -13.91322,3.21212 v 10.07383 c 0,24.04193 15.63173,27.00381 23.8042,20.14771 0.49367,-0.4205 0.98732,-0.67645 1.38951,-0.49364 0.45706,0.20111 0.43877,0.69476 0.25603,1.60889 -0.49367,2.39503 -4.04056,7.13034 -11.2074,9.05002 -5.46666,1.46263 -10.82352,2.38522 -13.49275,2.80573 v 16.68379 c 12.03006,-1.55402 25.96158,-4.9912 32.45203,-14.97366 3.38234,-5.2106 5.15584,-10.71378 6.03339,-18.8679 1.37121,-12.83458 1.04209,-36.55275 1.04209,-36.55275 z" />
	<path
   id="H"
   class="st22"
   d="m 164.36301,113.21092 c -0.0548,9.32422 -0.0365,17.82574 -0.43877,20.93385 -0.93245,7.42284 -13.62077,10.76863 -14.2424,3.93082 -0.29251,-3.21776 -0.54849,-7.46883 -0.54849,-16.95763 l -10.25667,2.36789 v 62.5274 l 13.07227,-3.01796 c 0,-9.92757 0,-14.24106 0.16455,-17.64165 0.45708,-8.95862 13.91324,-10.98802 15.08336,-3.19948 0.5302,3.54688 0.62161,5.24716 0.62161,13.25502 l 10.42123,-2.40593 v -62.99603 z" />
	<path
   id="R_00000068678057294261153770000015506118549526003101_"
   class="st22"
   d="m 132.42282,126.00893 c 0,-26.3822 -25.81537,-34.04275 -57.38993,-22.76217 v 85.16376 l 13.4562,-3.10661 v -21.32149 c 0,-3.25436 2.39507,-2.68759 4.60728,-0.71306 1.55406,1.38951 10.89664,10.43958 17.42362,16.94832 l 20.54242,-4.74265 c 0,0 -17.90968,-18.29387 -19.97569,-20.10384 12.03016,-4.49759 21.3361,-16.21833 21.3361,-29.36226 z m -36.14521,24.80984 c -4.99122,1.17007 -7.77023,-1.60886 -7.77023,-7.55081 v -5.74081 c -2.7e-4,-4.14062 0.80441,-7.73366 4.49756,-8.90373 10.72293,-3.39726 18.1915,1.22491 18.1915,8.48318 0,6.78296 -5.19231,11.42679 -14.91883,13.71217 z" />
</g>
</svg>
