<?xml version="1.0" encoding="UTF-8" standalone="no"?>
<!-- Created with Inkscape (http://www.inkscape.org/) -->

<svg
   version="1.1"
   id="svg2"
   width="666.66669"
   height="1489.3867"
   viewBox="0 0 666.66669 1489.3867"
   sodipodi:docname="Rhythm Paradise more like my Rhythm Nightmare.ai"
   xmlns:inkscape="http://www.inkscape.org/namespaces/inkscape"
   xmlns:sodipodi="http://sodipodi.sourceforge.net/DTD/sodipodi-0.dtd"
   xmlns="http://www.w3.org/2000/svg"
   xmlns:svg="http://www.w3.org/2000/svg">
  <defs
     id="defs6">
    <clipPath
       clipPathUnits="userSpaceOnUse"
       id="clipPath16">
      <path
         d="M 0,1117.042 H 500 V 0 H 0 Z"
         id="path14" />
    </clipPath>
  </defs>
  <sodipodi:namedview
     id="namedview4"
     pagecolor="#ffffff"
     bordercolor="#000000"
     borderopacity="0.25"
     inkscape:showpageshadow="2"
     inkscape:pageopacity="0.0"
     inkscape:pagecheckerboard="0"
     inkscape:deskcolor="#d1d1d1" />
  <g
     id="g8"
     inkscape:groupmode="layer"
     inkscape:label="Rhythm Paradise more like my Rhythm Nightmare"
     transform="matrix(1.3333333,0,0,-1.3333333,0,1489.3867)">
    <g
       id="g10">
      <g
         id="g12"
         clip-path="url(#clipPath16)">
        <g
           id="g18"
           transform="translate(465.3388,248.7078)">
          <path
             d="m 0,0 c 1.646,7.146 2.475,14.489 2.475,21.961 0,53.726 -43.708,97.434 -97.434,97.434 -21.545,0 -41.966,-6.891 -59.057,-19.93 -8.58,-6.544 -16.012,-14.513 -21.981,-23.446 -15.52,10.006 -33.72,15.465 -52.653,15.465 -30.966,0 -59.704,-14.924 -77.804,-38.926 -16.644,11.168 -36.368,17.292 -56.829,17.292 -56.274,0 -102.056,-45.782 -102.056,-102.055 0,-31.898 14.626,-61.279 39.147,-80.403 -3.873,-10.912 -5.879,-22.467 -5.879,-34.159 0,-56.21 45.73,-101.941 101.94,-101.941 22.338,0 43.553,7.098 61.351,20.526 9.82,7.409 18.232,16.604 24.794,26.951 14.231,-7.867 30.291,-12.048 46.994,-12.048 34.196,0 65.367,18.08 82.818,46.149 14.366,-7.45 30.402,-11.411 46.896,-11.411 56.21,0 101.939,45.731 101.939,101.956 C 34.639,-46.865 21.915,-19.209 0,0"
             style="fill:#00b3f0;fill-opacity:1;fill-rule:nonzero;stroke:none"
             id="path20" />
        </g>
        <g
           id="g22"
           transform="translate(453.9365,245.0393)">
          <path
             d="m 0,0 c 2.529,8.249 3.808,16.837 3.808,25.629 0,48.173 -39.192,87.365 -87.365,87.365 -33.203,0 -63.342,-19.109 -78.005,-48.003 -15.53,12.908 -35.127,20.092 -55.686,20.092 -31.218,0 -59.906,-16.914 -75.351,-43.297 -16.481,13.902 -37.415,21.663 -59.282,21.663 -50.721,0 -91.986,-41.265 -91.986,-91.986 0,-31.293 15.619,-59.901 41.357,-76.823 -5.313,-11.808 -8.089,-24.679 -8.089,-37.739 0,-50.657 41.213,-91.871 91.871,-91.871 20.131,0 39.248,6.396 55.285,18.495 11.545,8.71 20.929,20.153 27.27,33.066 14.681,-10.481 32.2,-16.132 50.583,-16.132 34.043,0 64.741,19.98 78.97,50.015 14.961,-9.925 32.543,-15.277 50.744,-15.277 50.657,0 91.87,41.214 91.87,91.879 C 35.972,-44.057 22.654,-17.349 0,0"
             style="fill:#ffffff;fill-opacity:1;fill-rule:nonzero;stroke:none"
             id="path24" />
        </g>
        <g
           id="g26"
           transform="translate(441.9262,241.2175)">
          <path
             d="m 0,0 c 3.747,9.081 5.794,19.013 5.794,29.451 0,42.717 -34.624,77.341 -77.341,77.341 -35.245,0 -64.971,-23.566 -74.306,-55.799 -14.162,17.036 -35.497,27.888 -59.385,27.888 -33.175,0 -61.453,-20.922 -72.374,-50.304 -15.036,17.542 -37.36,28.67 -62.259,28.67 -45.268,0 -81.961,-36.693 -81.961,-81.962 0,-31.819 18.116,-59.385 44.602,-72.972 -7.197,-12.185 -11.335,-26.416 -11.335,-41.59 0,-45.2 36.647,-81.847 81.847,-81.847 36.969,0 68.236,24.531 78.375,58.189 14.001,-14.047 33.359,-22.76 54.764,-22.76 35.405,0 65.247,23.795 74.397,56.258 14.576,-13.358 33.98,-21.52 55.316,-21.52 45.199,0 81.846,36.648 81.846,81.847 C 37.958,-40.05 22.807,-14.53 0,0"
             style="fill:#130c0e;fill-opacity:1;fill-rule:nonzero;stroke:none"
             id="path28" />
        </g>
        <g
           id="g30"
           transform="translate(457.8484,143.4445)">
          <path
             d="m 0,0 v 7.65 l -1.924,-8.104 -2.084,-0.491 -1.879,7.207 v -7.65 l -1.97,-0.465 v 9.158 l 3.078,0.726 1.856,-6.826 0.022,0.005 1.81,7.691 3.038,0.716 V 0.459 Z M -14.223,-3.354 V 4.18 L -17.392,3.433 V 5.051 L -9.01,7.028 V 5.409 l -3.055,-0.72 v -7.534 z"
             style="fill:#f15a22;fill-opacity:1;fill-rule:nonzero;stroke:none"
             id="path32" />
        </g>
        <g
           id="g34"
           transform="translate(435.1271,185.1485)">
          <path
             d="m 0,0 c 3.615,1.362 11.18,3.396 17.535,4.775 v 19.671 l -31.758,-7.331 v -52.578 l 31.707,7.32 v 8.759 c -4.169,-1.093 -12.76,-2.707 -16.543,-3.346 -4.606,-0.773 -5.262,5.094 -0.168,6.775 2.926,0.959 8.289,2.236 12.475,3.413 L 13.231,-5.8 C 9.415,-6.573 4.27,-7.465 0.202,-8.036 -4.842,-8.759 -5.716,-2.152 0,0"
             style="fill:#f15a22;fill-opacity:1;fill-rule:nonzero;stroke:none"
             id="path36" />
        </g>
        <g
           id="g38"
           transform="translate(394.6063,172.3954)">
          <path
             d="m 0,0 c -3.079,-0.722 -4.794,0.993 -4.794,4.658 0,1.613 0,1.737 0,3.542 0,2.543 0.497,4.771 2.775,5.493 C 4.596,15.789 9.204,12.937 9.204,8.46 9.204,4.275 6.001,1.41 0,0 m 22.299,15.306 c 0,16.276 -15.926,21.002 -35.406,14.043 v -51.206 l 8.302,1.916 v 11.82 c 0,2.008 1.478,1.658 2.842,0.44 0.959,-0.857 6.723,-6.441 10.75,-10.456 l 12.673,2.926 c 0,0 -11.049,11.286 -12.324,12.402 7.422,2.775 13.152,10.005 13.163,18.115"
             style="fill:#f15a22;fill-opacity:1;fill-rule:nonzero;stroke:none"
             id="path40" />
        </g>
        <g
           id="g42"
           transform="translate(360.4122,149.5522)">
          <path
             d="m 0,0 -5.968,-1.378 c -1.5,-0.346 -2.354,0.588 -2.169,2.673 0.168,1.95 1.042,6.085 1.379,7.498 0.706,2.925 2.185,4.354 3.883,4.606 2.741,0.437 4.069,-1.563 5.128,-6.607 C 2.354,6.321 2.639,5.296 2.757,3.917 2.993,1.11 2.12,0.489 0,0 M 10.457,22.41 C 7.33,32.666 4.799,35.196 -1.429,33.758 c -5.49,-1.267 -8.612,-4.125 -11.23,-14.155 -2.573,-9.852 -5.397,-23.806 -7.683,-39.744 l 9.044,1.967 c 0.169,1.261 0.471,2.741 0.908,4.993 0.471,2.27 1.698,3.893 4.136,4.456 2.007,0.463 5.742,1.325 7.061,1.63 1.888,0.436 3.615,-1.059 4.22,-3.581 0.403,-1.681 0.924,-4.051 1.244,-5.648 l 12.004,2.757 C 16.812,-1.816 13.567,12.222 10.457,22.41"
             style="fill:#f15a22;fill-opacity:1;fill-rule:nonzero;stroke:none"
             id="path44" />
        </g>
        <g
           id="g46"
           transform="translate(327.5274,191.7062)">
          <path
             d="m 0,0 c -4.279,-14.128 -6.7,-21.036 -8.81,-26.86 -3.595,-9.909 -7.324,-6.017 -9.062,-3.254 -2.021,3.239 -4.769,9.538 -9.538,21.081 l -11.781,-2.718 v -55.457 l 9.776,2.257 c -0.075,8.839 0.074,14.841 0.549,17.173 0.431,2.095 1.694,2.392 2.972,0.312 1.054,-1.708 2.718,-5.407 6.031,-13.014 l 6.55,1.513 c 3.61,9.701 5.558,14.591 6.94,16.983 1.114,1.946 3.238,3.313 3.877,-0.282 0.49,-2.719 0.446,-10.094 0.431,-19.127 l 10.132,2.339 V 1.862 Z"
             style="fill:#f15a22;fill-opacity:1;fill-rule:nonzero;stroke:none"
             id="path48" />
        </g>
        <g
           id="g50"
           transform="translate(248.3518,158.7989)">
          <path
             d="m 0,0 v -23.143 l 6.708,1.548 c 4.068,0.94 5.75,0.41 5.75,-6.792 v -29.708 l 11.011,2.523 v 27.253 c 0,12.105 1.137,15.159 7.129,16.543 l 5.48,1.265 v 18.84 z"
             style="fill:#f15a22;fill-opacity:1;fill-rule:nonzero;stroke:none"
             id="path52" />
        </g>
        <g
           id="g54"
           transform="translate(230.5928,163.8813)">
          <path
             d="m 0,0 c -0.05,-8.574 -0.034,-16.392 -0.403,-19.25 -0.858,-6.825 -12.525,-9.902 -13.097,-3.614 -0.269,2.959 -0.504,6.868 -0.504,15.593 l -9.432,-2.177 v -57.497 l 12.021,2.775 c 0,9.129 0,13.095 0.151,16.222 0.42,8.238 12.794,10.104 13.87,2.942 0.487,-3.261 0.571,-4.825 0.571,-12.188 l 9.583,2.212 V 2.946 Z"
             style="fill:#f15a22;fill-opacity:1;fill-rule:nonzero;stroke:none"
             id="path56" />
        </g>
        <g
           id="g58"
           transform="translate(191.7245,105.1206)">
          <path
             d="m 0,0 11.73,2.708 c 2.872,-15.474 -4.741,-28.22 -20.744,-31.915 -16.841,-3.888 -21.303,5.079 -21.309,25.39 -0.005,22.952 17.011,36.588 41.04,36.379 L 10.706,11.379 c -13.523,0.965 -26.644,-1.93 -28.749,-13.686 -1.765,-9.879 2.125,-15.597 10.107,-13.755 C -0.561,-14.359 1.194,-7.294 0,0"
             style="fill:#f15a22;fill-opacity:1;fill-rule:nonzero;stroke:none"
             id="path60" />
        </g>
        <g
           id="g62"
           transform="translate(143.368,81.7748)">
          <path
             d="m 0,0 v 60.077 l 14.192,3.276 V 3.276 Z"
             style="fill:#f15a22;fill-opacity:1;fill-rule:nonzero;stroke:none"
             id="path64" />
        </g>
        <g
           id="g66"
           transform="translate(122.9568,146.0469)">
          <path
             d="m 0,0 c 0,0 -0.11,-28.711 -0.467,-33.762 -0.358,-5.051 -1.238,-7.109 -2.613,-7.356 -0.66,-0.083 -1.318,0.078 -1.869,0.439 -3.599,2.361 -10.325,15.807 -16.346,27.501 l -8.785,-2.029 v -72.656 l 10.637,2.455 0.141,18.461 c 0,3.842 0.412,6.395 1.292,7.603 0.303,0.412 0.797,0.692 1.265,0.768 3.097,0.505 9.184,-7.356 16.635,-19.872 l 14.215,3.281 V 3.256 Z"
             style="fill:#f15a22;fill-opacity:1;fill-rule:nonzero;stroke:none"
             id="path68" />
        </g>
        <g
           id="g70"
           transform="translate(397.9479,315.1995)">
          <path
             d="m 0,0 c -5.938,-19.607 -9.298,-29.194 -12.226,-37.275 -4.989,-13.752 -10.164,-8.35 -12.576,-4.515 -2.804,4.494 -6.618,13.236 -13.236,29.255 l -16.349,-3.773 v -76.961 l 13.566,3.132 c -0.104,12.267 0.103,20.596 0.762,23.833 0.598,2.907 2.351,3.319 4.124,0.433 1.463,-2.371 3.773,-7.505 8.37,-18.06 l 9.09,2.098 c 5.01,13.463 7.713,20.25 9.63,23.57 1.547,2.7 4.495,4.597 5.381,-0.392 0.681,-3.773 0.619,-14.008 0.598,-26.543 l 14.061,3.246 V 2.585 Z"
             style="fill:#faa61a;fill-opacity:1;fill-rule:nonzero;stroke:none"
             id="path72" />
        </g>
        <g
           id="g74"
           transform="translate(319.7273,275.0164)">
          <path
             d="m 0,0 c -0.062,-10.515 -0.041,-20.101 -0.495,-23.606 -1.051,-8.371 -15.359,-12.144 -16.06,-4.433 -0.33,3.629 -0.619,8.422 -0.619,19.123 l -11.566,-2.671 v -70.509 l 14.741,3.403 c 0,11.195 0,16.059 0.186,19.894 0.515,10.102 15.689,12.39 17.009,3.608 0.597,-4 0.701,-5.918 0.701,-14.948 l 11.751,2.713 V 3.613 Z"
             style="fill:#faa61a;fill-opacity:1;fill-rule:nonzero;stroke:none"
             id="path76" />
        </g>
        <g
           id="g78"
           transform="translate(241.5068,269.1925)">
          <path
             d="m 0,0 v -28.381 l 8.226,1.899 c 4.989,1.152 7.051,0.502 7.051,-8.329 v -36.432 l 13.504,3.094 v 33.42 c 0,14.845 1.394,18.591 8.742,20.287 l 6.721,1.552 v 23.104 z"
             style="fill:#faa61a;fill-opacity:1;fill-rule:nonzero;stroke:none"
             id="path80" />
        </g>
        <g
           id="g82"
           transform="translate(235.9815,250.4477)">
          <path
             d="m 0,0 -12.618,-2.913 c 0,0 0.186,-12.989 -0.309,-22.555 -0.721,-13.999 -14.823,-17.009 -15.957,-3.69 -0.578,6.989 -0.846,20.919 -0.846,20.919 l -15.689,-3.622 v -11.36 c 0,-27.111 17.627,-30.451 26.843,-22.719 0.557,0.474 1.113,0.762 1.567,0.556 0.515,-0.227 0.495,-0.783 0.289,-1.814 -0.557,-2.701 -4.557,-8.041 -12.638,-10.205 -6.165,-1.65 -12.206,-2.69 -15.216,-3.164 v -18.814 c 13.566,1.752 29.276,5.628 36.595,16.885 3.814,5.876 5.814,12.082 6.804,21.277 C 0.371,-26.746 0,0 0,0"
             style="fill:#faa61a;fill-opacity:1;fill-rule:nonzero;stroke:none"
             id="path84" />
        </g>
        <g
           id="g86"
           transform="translate(167.224,251.6169)">
          <path
             d="m 0,0 c -0.062,-10.515 -0.041,-20.101 -0.495,-23.606 -1.051,-8.371 -15.359,-12.144 -16.06,-4.433 -0.33,3.629 -0.619,8.422 -0.619,19.123 l -11.566,-2.671 v -70.509 l 14.741,3.403 c 0,11.195 0,16.059 0.186,19.894 0.515,10.102 15.689,12.39 17.009,3.608 0.598,-4 0.701,-5.918 0.701,-14.948 l 11.751,2.713 V 3.613 Z"
             style="fill:#faa61a;fill-opacity:1;fill-rule:nonzero;stroke:none"
             id="path88" />
        </g>
        <g
           id="g90"
           transform="translate(90.4467,209.2079)">
          <path
             d="m 0,0 c -5.628,-1.319 -8.762,1.814 -8.762,8.515 v 6.473 c -10e-4,4.67 0.907,8.721 5.072,10.041 C 8.401,28.86 16.823,23.648 16.823,15.463 16.823,7.814 10.968,2.577 0,0 m 40.76,27.977 c 0,29.75 -29.111,38.389 -64.717,25.668 v -96.036 l 15.174,3.503 v 24.044 c 0,3.67 2.701,3.031 5.196,0.804 1.752,-1.567 12.287,-11.772 19.648,-19.112 l 23.164,5.348 c 0,0 -20.196,20.629 -22.525,22.67 13.566,5.072 24.039,18.288 24.06,33.111"
             style="fill:#faa61a;fill-opacity:1;fill-rule:nonzero;stroke:none"
             id="path92" />
        </g>
        <g
           id="g94"
           transform="translate(500,615.7758)">
          <path
             d="m 0,0 c 0,62.398 -50.765,113.163 -113.163,113.163 -34.383,0 -65.229,-15.418 -86,-39.698 -15.752,8.329 -33.691,13.054 -52.714,13.054 -40.609,0 -76.284,-21.505 -96.252,-53.72 -12.082,4.412 -25.119,6.821 -38.709,6.821 -62.397,0 -113.162,-50.764 -113.162,-113.163 0,-62.398 50.765,-113.162 113.162,-113.162 6.678,0 13.222,0.585 19.585,1.7 20.753,-25.986 52.69,-42.668 88.455,-42.668 25.75,0 49.515,8.652 68.553,23.193 0.053,0 0.106,-0.002 0.16,-0.002 55.242,0 101.359,39.793 111.211,92.218 C -43.196,-105.218 0,-57.559 0,0"
             style="fill:#00b3f0;fill-opacity:1;fill-rule:nonzero;stroke:none"
             id="path96" />
        </g>
        <g
           id="g98"
           transform="translate(489.0532,615.7758)">
          <path
             d="m 0,0 c 0,56.362 -45.854,102.216 -102.216,102.216 -34.316,0 -64.736,-16.999 -83.284,-43.018 -15.979,10.354 -35.014,16.375 -55.43,16.375 -39.989,0 -74.683,-23.087 -91.468,-56.629 -13.205,6.235 -27.947,9.729 -43.493,9.729 -56.362,0 -102.215,-45.854 -102.215,-102.216 0,-56.361 45.853,-102.216 102.215,-102.216 8.324,0 16.416,1.008 24.168,2.894 18.488,-26.492 49.187,-43.861 83.871,-43.861 24.602,0 47.2,8.738 64.858,23.271 1.28,-0.048 2.564,-0.08 3.855,-0.08 52.72,0 96.242,40.12 101.648,91.432 C -43.315,-99.625 0,-54.778 0,0"
             style="fill:#ffffff;fill-opacity:1;fill-rule:nonzero;stroke:none"
             id="path100" />
        </g>
        <g
           id="g102"
           transform="translate(386.8369,707.0935)">
          <path
             d="m 0,0 c -34.671,0 -64.829,-19.322 -80.293,-47.785 -15.834,13.196 -36.198,21.142 -58.421,21.142 -39.821,0 -73.669,-25.497 -86.159,-61.049 -14.12,8.949 -30.848,14.15 -48.802,14.15 -50.433,0 -91.318,-40.884 -91.318,-91.318 0,-50.433 40.885,-91.318 91.318,-91.318 10.125,0 19.854,1.673 28.955,4.714 15.788,-27.299 45.28,-45.682 79.085,-45.682 23.533,0 44.982,8.907 61.173,23.527 2.489,-0.204 4.999,-0.335 7.54,-0.335 50.434,0 91.318,40.884 91.318,91.318 0,0.063 -0.004,0.125 -0.005,0.188 1.857,-0.113 3.724,-0.188 5.609,-0.188 50.434,0 91.318,40.884 91.318,91.318 C 91.318,-40.885 50.434,0 0,0"
             style="fill:#130c0e;fill-opacity:1;fill-rule:nonzero;stroke:none"
             id="path104" />
        </g>
        <g
           id="g106"
           transform="translate(328.4963,558.5208)">
          <path
             d="M 0,0 C 0,0 0.399,-32.827 -1.461,-50.576 -2.652,-61.852 -5.057,-69.454 -9.645,-76.643 -18.45,-90.413 -37.35,-95.082 -53.67,-97.157 v 23.082 c 3.621,0.565 10.887,1.808 18.304,3.798 9.722,2.611 14.534,9.141 15.204,12.451 0.248,1.264 0.273,1.946 -0.347,2.228 -0.546,0.255 -1.216,-0.096 -1.885,-0.675 -11.087,-9.435 -32.294,-5.24 -32.294,28.023 v 15.624 l 18.837,4.349 c 0,0 0.361,-18.771 1.056,-27.349 1.364,-16.346 18.328,-12.731 19.197,4.44 0.595,11.734 0.372,27.671 0.372,27.671 z"
             style="fill:#f15a22;fill-opacity:1;fill-rule:nonzero;stroke:none"
             id="path108" />
        </g>
        <g
           id="g110"
           transform="translate(253.7432,441.4732)">
          <path
             d="m 0,0 c 0.022,13.07 0.087,20.987 -0.623,24.921 -0.925,5.203 -3.999,3.224 -5.611,0.409 -1.999,-3.461 -4.815,-10.534 -10.039,-24.571 l -9.479,-2.192 c -4.794,11.006 -7.201,16.358 -8.728,18.831 -1.849,3.009 -3.675,2.579 -4.3,-0.452 -0.687,-3.375 -0.911,-13.134 -0.804,-25.925 l -14.135,-3.263 v 85.356 l 15.52,3.583 c 6.9,-16.703 12.404,-29.506 15.328,-34.191 2.515,-3.999 7.909,-9.631 13.111,4.706 3.053,8.428 6.615,18.564 12.805,39.007 L 14.661,88.9 V 3.385 Z"
             style="fill:#f15a22;fill-opacity:1;fill-rule:nonzero;stroke:none"
             id="path112" />
        </g>
        <g
           id="g114"
           transform="translate(448.2476,620.8414)">
          <path
             d="m 0,0 v -14.014 l -38.19,-8.817 v 67.6 l 37.405,8.636 V 28.081 c 0,0 -18.167,-3.927 -22.214,-6.57 -1.503,-0.981 -2.124,-2.126 -1.96,-3.4 0.196,-1.242 1.073,-1.957 2.417,-2.158 4.426,-0.66 18.817,2.811 18.817,2.811 V 7.748 L -16.367,4.413 c -2.679,-0.785 -4.671,-1.602 -5.978,-2.387 -1.503,-0.98 -2.124,-2.124 -1.961,-3.399 0.353,-2.338 3.561,-2.289 3.561,-2.289 C -17.081,-3.633 -10.193,-2.321 0,0"
             style="fill:#faa61a;fill-opacity:1;fill-rule:nonzero;stroke:none"
             id="path116" />
        </g>
        <g
           id="g118"
           transform="translate(403.7054,585.6725)">
          <path
             d="m 0,0 -17.768,-4.102 c 0.345,3.175 0.141,9.11 0.141,9.11 -0.24,4.702 -1.835,9.732 -7.434,8.382 -6.095,-1.469 -7.561,-7.163 -7.571,-11.048 v -9.876 l -11.618,-2.682 v 67.6 l 13.505,3.118 0.016,-28.489 c 0.009,-5.305 3.565,-7.015 5.871,0.455 L -15.596,64 2.123,68.09 -16.447,29.128 C 0.701,33.988 1.043,8.111 0,0"
             style="fill:#faa61a;fill-opacity:1;fill-rule:nonzero;stroke:none"
             id="path120" />
        </g>
        <g
           id="g122"
           transform="translate(338.0564,651.1622)">
          <path
             d="m 0,0 17.113,3.951 v -67.6 L 0,-67.6 Z"
             style="fill:#faa61a;fill-opacity:1;fill-rule:nonzero;stroke:none"
             id="path124" />
        </g>
        <g
           id="g126"
           transform="translate(333.8362,591.1398)">
          <path
             d="m 0,0 v -13.95 l -41.668,-9.62 v 66.89 l 16.051,3.706 V 9.218 c 0,-8.342 1.742,-11.998 6.652,-12.841 C -13.959,-4.483 0,0 0,0"
             style="fill:#faa61a;fill-opacity:1;fill-rule:nonzero;stroke:none"
             id="path128" />
        </g>
        <g
           id="g130"
           transform="translate(270.7963,577.6992)">
          <path
             d="m 0,0 v -14.014 l -38.19,-8.817 v 67.6 l 37.405,8.636 V 28.081 c 0,0 -18.167,-3.927 -22.214,-6.57 -1.503,-0.981 -2.124,-2.126 -1.96,-3.4 0.196,-1.242 1.073,-1.957 2.417,-2.158 4.426,-0.66 18.817,2.811 18.817,2.811 V 7.748 L -16.367,4.413 c -2.679,-0.785 -4.671,-1.601 -5.978,-2.387 -1.503,-0.98 -2.124,-2.124 -1.961,-3.399 0.353,-2.338 3.561,-2.289 3.561,-2.289 C -17.081,-3.633 -10.193,-2.321 0,0"
             style="fill:#faa61a;fill-opacity:1;fill-rule:nonzero;stroke:none"
             id="path132" />
        </g>
        <g
           id="g134"
           transform="translate(193.7785,569.3871)">
          <path
             d="m 0,0 v -4.522 c 0,-4.681 2.19,-6.87 6.121,-5.948 7.663,1.8 11.753,5.459 11.753,10.802 0,5.717 -5.848,9.016 -14.33,6.682 C 0.634,6.092 -0.014,3.255 0,0 m 33.501,-29.871 -16.183,-3.736 c -5.142,5.128 -12.479,12.234 -13.702,13.328 -1.743,1.556 -3.63,2.003 -3.63,-0.561 l 0.012,-16.765 -10.612,-2.45 v 67.06 c 24.873,8.886 45.209,2.852 45.209,-17.931 -0.014,-10.355 -7.331,-19.587 -16.808,-23.13 1.628,-1.427 15.699,-15.829 15.714,-15.815"
             style="fill:#faa61a;fill-opacity:1;fill-rule:nonzero;stroke:none"
             id="path136" />
        </g>
        <g
           id="g138"
           transform="translate(166.0313,566.5483)">
          <path
             d="M 0,0 C 0,1.435 0,12.619 -14.219,9.336 -27.16,6.348 -27.16,-4.883 -27.16,-6.27 c 0,-6.984 2.16,-13.651 13.579,-11.015 C -2.615,-14.753 0,-6.83 0,0 m 12.856,6.515 c 0,-14.232 -1.506,-31.993 -26.437,-37.768 -23.742,-5.501 -26.377,13.204 -26.377,27.436 0,14.755 4.741,35.169 26.377,40.164 C 10.426,41.889 12.856,21.27 12.856,6.515"
             style="fill:#faa61a;fill-opacity:1;fill-rule:nonzero;stroke:none"
             id="path140" />
        </g>
        <g
           id="g142"
           transform="translate(107.8026,509.8226)">
          <path
             d="m 0,0 c 0.02,12.48 0.082,20.04 -0.596,23.797 -0.882,4.968 -3.818,3.079 -5.357,0.39 -1.909,-3.305 -4.598,-10.058 -9.586,-23.462 l -9.052,-2.094 c -4.578,10.51 -6.877,15.621 -8.334,17.982 -1.766,2.873 -3.51,2.463 -4.106,-0.431 -0.657,-3.223 -0.871,-12.542 -0.768,-24.756 l -13.498,-3.116 v 81.506 l 14.82,3.421 c 6.589,-15.949 11.844,-28.174 14.636,-32.649 2.402,-3.818 7.554,-9.196 12.522,4.495 2.914,8.047 6.314,17.726 12.226,37.247 l 11.092,2.56 V 3.232 Z"
             style="fill:#faa61a;fill-opacity:1;fill-rule:nonzero;stroke:none"
             id="path144" />
        </g>
        <g
           id="g146"
           transform="translate(465.3388,997.6465)">
          <path
             d="m 0,0 c 1.646,7.146 2.475,14.489 2.475,21.961 0,53.726 -43.708,97.434 -97.434,97.434 -21.545,0 -41.966,-6.891 -59.057,-19.93 -8.58,-6.544 -16.012,-14.513 -21.981,-23.446 -15.52,10.006 -33.72,15.465 -52.653,15.465 -30.966,0 -59.704,-14.924 -77.804,-38.926 -16.644,11.168 -36.368,17.292 -56.829,17.292 -56.274,0 -102.056,-45.782 -102.056,-102.055 0,-31.898 14.626,-61.279 39.147,-80.403 -3.873,-10.912 -5.879,-22.467 -5.879,-34.159 0,-56.21 45.73,-101.941 101.94,-101.941 22.338,0 43.553,7.098 61.351,20.526 9.82,7.409 18.232,16.604 24.794,26.951 14.231,-7.867 30.291,-12.048 46.994,-12.048 34.196,0 65.367,18.08 82.818,46.149 14.366,-7.45 30.402,-11.411 46.896,-11.411 56.21,0 101.939,45.731 101.939,101.956 C 34.639,-46.865 21.915,-19.209 0,0"
             style="fill:#00b3f0;fill-opacity:1;fill-rule:nonzero;stroke:none"
             id="path148" />
        </g>
        <g
           id="g150"
           transform="translate(453.9365,993.978)">
          <path
             d="m 0,0 c 2.529,8.249 3.808,16.837 3.808,25.629 0,48.173 -39.192,87.365 -87.365,87.365 -33.203,0 -63.342,-19.109 -78.005,-48.003 -15.53,12.909 -35.127,20.092 -55.686,20.092 -31.218,0 -59.906,-16.914 -75.351,-43.297 -16.481,13.902 -37.415,21.663 -59.282,21.663 -50.721,0 -91.986,-41.265 -91.986,-91.986 0,-31.293 15.619,-59.901 41.357,-76.823 -5.313,-11.808 -8.089,-24.679 -8.089,-37.739 0,-50.657 41.213,-91.871 91.871,-91.871 20.131,0 39.248,6.396 55.285,18.495 11.545,8.71 20.929,20.153 27.27,33.066 14.681,-10.481 32.2,-16.132 50.583,-16.132 34.043,0 64.741,19.98 78.97,50.015 14.961,-9.925 32.543,-15.277 50.744,-15.277 50.657,0 91.87,41.214 91.87,91.879 C 35.972,-44.057 22.654,-17.349 0,0"
             style="fill:#ffffff;fill-opacity:1;fill-rule:nonzero;stroke:none"
             id="path152" />
        </g>
        <g
           id="g154"
           transform="translate(441.9262,990.1562)">
          <path
             d="m 0,0 c 3.747,9.081 5.794,19.013 5.794,29.451 0,42.717 -34.624,77.341 -77.341,77.341 -35.245,0 -64.971,-23.566 -74.306,-55.799 -14.162,17.036 -35.497,27.888 -59.385,27.888 -33.175,0 -61.453,-20.922 -72.374,-50.304 -15.036,17.542 -37.36,28.67 -62.259,28.67 -45.268,0 -81.961,-36.693 -81.961,-81.962 0,-31.819 18.116,-59.385 44.602,-72.972 -7.197,-12.185 -11.335,-26.417 -11.335,-41.59 0,-45.2 36.647,-81.847 81.847,-81.847 36.969,0 68.236,24.531 78.375,58.189 14.001,-14.047 33.359,-22.76 54.764,-22.76 35.405,0 65.247,23.795 74.397,56.258 14.576,-13.358 33.98,-21.52 55.316,-21.52 45.199,0 81.846,36.647 81.846,81.847 C 37.958,-40.05 22.807,-14.53 0,0"
             style="fill:#130c0e;fill-opacity:1;fill-rule:nonzero;stroke:none"
             id="path156" />
        </g>
        <g
           id="g158"
           transform="translate(451.5428,885.5246)">
          <path
             d="m 0,0 v 7.65 l -1.924,-8.104 -2.084,-0.491 -1.879,7.207 v -7.65 l -1.97,-0.465 v 9.158 l 3.078,0.726 1.856,-6.826 0.022,0.005 1.81,7.691 3.038,0.716 V 0.459 Z M -14.223,-3.354 V 4.18 L -17.392,3.432 V 5.051 L -9.01,7.028 V 5.409 l -3.055,-0.72 v -7.534 z"
             style="fill:#f15a22;fill-opacity:1;fill-rule:nonzero;stroke:none"
             id="path160" />
        </g>
        <g
           id="g162"
           transform="translate(424.853,936.4577)">
          <path
             d="M 0,0 C 4.433,1.67 13.71,4.165 21.503,5.855 V 29.979 L -17.442,20.988 V -43.49 l 38.884,8.977 v 10.742 c -5.113,-1.34 -15.649,-3.32 -20.287,-4.103 -5.649,-0.948 -6.454,6.247 -0.207,8.309 3.588,1.175 10.164,2.742 15.298,4.185 l -0.021,8.267 C 11.545,-8.061 5.237,-9.154 0.247,-9.855 -5.938,-10.741 -7.01,-2.639 0,0"
             style="fill:#f15a22;fill-opacity:1;fill-rule:nonzero;stroke:none"
             id="path164" />
        </g>
        <g
           id="g166"
           transform="translate(388.6975,892.0285)">
          <path
             d="m 0,0 c -0.228,2.143 -3.934,2.628 -9.706,4.011 -10.092,2.507 -16.339,8.452 -15.701,18.896 0.679,11.274 6.387,19.137 36.594,24.266 V 23.722 c -10.9,-1.363 -16.918,-3.403 -19.471,-5.49 -2.722,-2.21 -2.563,-5.827 1.366,-7.139 1.707,-0.57 6.754,-2.256 9.804,-3.279 C 8.739,5.863 11.603,2.872 12.2,-2.423 13.886,-17.36 -13.148,-21.277 -24.294,-22.914 V -9.642 C -10.941,-6.952 0.515,-4.594 0,0"
             style="fill:#f15a22;fill-opacity:1;fill-rule:nonzero;stroke:none"
             id="path168" />
        </g>
        <g
           id="g170"
           transform="translate(341.9317,888.111)">
          <path
             d="m 0,0 v 57.48 l 14.535,3.356 V 3.356 Z"
             style="fill:#f15a22;fill-opacity:1;fill-rule:nonzero;stroke:none"
             id="path172" />
        </g>
        <g
           id="g174"
           transform="translate(307.1922,878.5242)">
          <path
             d="m 0,0 c -4,-0.926 -5.731,0.412 -5.731,5.092 v 14.762 c 0,3.402 -0.176,6.119 3.051,7.03 7.01,1.98 14.844,-1.773 15.586,-9.401 C 13.772,8.618 8.84,2.041 0,0 M -15.586,49.213 V -13.483 C 14.721,-9.051 27.915,2.66 27.585,25.936 27.297,46.12 7.257,57.212 -15.586,49.213"
             style="fill:#f15a22;fill-opacity:1;fill-rule:nonzero;stroke:none"
             id="path176" />
        </g>
        <g
           id="g178"
           transform="translate(265.1131,868.8138)">
          <path
             d="m 0,0 -7.319,-1.69 c -1.839,-0.424 -2.886,0.721 -2.66,3.278 0.207,2.391 1.279,7.463 1.691,9.195 0.866,3.587 2.68,5.339 4.763,5.649 3.36,0.536 4.989,-1.918 6.288,-8.103 C 2.886,7.752 3.237,6.494 3.381,4.804 3.67,1.361 2.6,0.6 0,0 m 12.824,27.482 c -3.835,12.577 -6.939,15.68 -14.576,13.917 -6.733,-1.554 -10.561,-5.06 -13.772,-17.36 -3.155,-12.081 -6.619,-29.193 -9.422,-48.738 l 11.091,2.412 c 0.207,1.546 0.578,3.361 1.114,6.123 0.577,2.784 2.082,4.774 5.072,5.464 2.461,0.568 7.042,1.626 8.659,1.999 2.314,0.534 4.432,-1.298 5.174,-4.391 0.495,-2.061 1.134,-4.968 1.526,-6.927 l 14.721,3.381 c -1.794,14.411 -5.773,31.627 -9.587,44.12"
             style="fill:#f15a22;fill-opacity:1;fill-rule:nonzero;stroke:none"
             id="path180" />
        </g>
        <g
           id="g182"
           transform="translate(210.8412,873.6849)">
          <path
             d="m 0,0 c -3.776,-0.885 -5.879,1.217 -5.879,5.713 v 4.343 c 0,3.133 0.609,5.851 3.403,6.736 8.113,2.57 13.763,-0.927 13.763,-6.418 C 11.287,5.242 7.359,1.729 0,0 m 27.346,18.77 c 0,19.96 -19.531,25.756 -43.419,17.221 v -62.795 l 10.18,2.35 v 14.495 c 0,2.462 1.813,2.033 3.486,0.539 1.176,-1.051 8.244,-7.898 13.182,-12.822 l 15.542,3.588 c 0,0 -13.55,13.84 -15.113,15.21 9.102,3.403 16.142,12.27 16.142,22.214"
             style="fill:#f15a22;fill-opacity:1;fill-rule:nonzero;stroke:none"
             id="path184" />
        </g>
        <g
           id="g186"
           transform="translate(170.832,839.7025)">
          <path
             d="m 0,0 -7.319,-1.69 c -1.839,-0.424 -2.886,0.721 -2.66,3.278 0.207,2.391 1.279,7.463 1.691,9.195 0.866,3.587 2.68,5.339 4.763,5.649 3.36,0.536 4.989,-1.918 6.288,-8.103 C 2.886,7.752 3.237,6.494 3.381,4.804 3.67,1.361 2.6,0.6 0,0 m 12.824,27.482 c -3.835,12.577 -6.939,15.68 -14.576,13.917 -6.733,-1.554 -10.561,-5.06 -13.772,-17.36 -3.155,-12.081 -6.619,-29.193 -9.422,-48.738 l 11.091,2.412 c 0.207,1.546 0.578,3.361 1.114,6.123 0.577,2.784 2.082,4.774 5.072,5.464 2.461,0.568 7.042,1.626 8.659,1.999 2.314,0.534 4.432,-1.298 5.174,-4.391 0.495,-2.061 1.134,-4.968 1.526,-6.927 l 14.721,3.381 c -1.794,14.411 -5.773,31.627 -9.587,44.12"
             style="fill:#f15a22;fill-opacity:1;fill-rule:nonzero;stroke:none"
             id="path188" />
        </g>
        <g
           id="g190"
           transform="translate(118.9186,851.8055)">
          <path
             d="m 0,0 c -4.577,-1.113 -7.216,0.082 -7.216,3.917 v 13.876 c 0,3.919 2.165,6.391 6.474,6.948 C 7.897,25.854 11.793,20.803 11.793,14.226 11.793,8.742 8.556,2.103 0,0 m -28.72,44.76 v -86.903 l 21.525,4.97 v 20.411 c 0,3.732 0.927,5.587 3.154,5.979 20.06,3.529 34.349,13.615 34.349,34.308 0,22.722 -24.411,34.946 -59.028,21.235"
             style="fill:#f15a22;fill-opacity:1;fill-rule:nonzero;stroke:none"
             id="path192" />
        </g>
        <g
           id="g194"
           transform="translate(397.9479,1064.1382)">
          <path
             d="m 0,0 c -5.938,-19.607 -9.298,-29.193 -12.226,-37.275 -4.989,-13.752 -10.164,-8.35 -12.576,-4.515 -2.804,4.494 -6.618,13.236 -13.236,29.255 l -16.349,-3.773 v -76.961 l 13.566,3.132 c -0.104,12.267 0.103,20.596 0.762,23.833 0.598,2.907 2.351,3.319 4.124,0.433 1.463,-2.371 3.773,-7.505 8.37,-18.06 l 9.09,2.098 c 5.01,13.463 7.713,20.25 9.63,23.57 1.547,2.7 4.495,4.597 5.381,-0.392 0.681,-3.773 0.619,-14.008 0.598,-26.543 l 14.061,3.246 V 2.585 Z"
             style="fill:#faa61a;fill-opacity:1;fill-rule:nonzero;stroke:none"
             id="path196" />
        </g>
        <g
           id="g198"
           transform="translate(319.7273,1023.9551)">
          <path
             d="m 0,0 c -0.062,-10.515 -0.041,-20.101 -0.495,-23.606 -1.051,-8.371 -15.359,-12.144 -16.06,-4.433 -0.33,3.629 -0.619,8.422 -0.619,19.122 l -11.566,-2.67 v -70.509 l 14.741,3.403 c 0,11.195 0,16.059 0.186,19.894 0.515,10.102 15.689,12.39 17.009,3.608 0.597,-4 0.701,-5.918 0.701,-14.948 l 11.751,2.713 V 3.613 Z"
             style="fill:#faa61a;fill-opacity:1;fill-rule:nonzero;stroke:none"
             id="path200" />
        </g>
        <g
           id="g202"
           transform="translate(241.5068,1018.1312)">
          <path
             d="m 0,0 v -28.381 l 8.226,1.899 c 4.989,1.152 7.051,0.502 7.051,-8.329 v -36.432 l 13.504,3.094 v 33.42 c 0,14.845 1.394,18.591 8.742,20.287 l 6.721,1.552 v 23.105 z"
             style="fill:#faa61a;fill-opacity:1;fill-rule:nonzero;stroke:none"
             id="path204" />
        </g>
        <g
           id="g206"
           transform="translate(235.9815,999.3865)">
          <path
             d="m 0,0 -12.618,-2.913 c 0,0 0.186,-12.989 -0.309,-22.555 -0.721,-13.999 -14.823,-17.009 -15.957,-3.69 -0.578,6.989 -0.846,20.919 -0.846,20.919 l -15.689,-3.622 v -11.36 c 0,-27.111 17.627,-30.451 26.843,-22.719 0.557,0.474 1.113,0.762 1.567,0.556 0.515,-0.227 0.495,-0.783 0.289,-1.814 -0.557,-2.701 -4.557,-8.041 -12.638,-10.205 -6.165,-1.65 -12.206,-2.69 -15.216,-3.164 v -18.814 c 13.566,1.752 29.276,5.628 36.595,16.885 3.814,5.876 5.814,12.082 6.804,21.277 C 0.371,-26.746 0,0 0,0"
             style="fill:#faa61a;fill-opacity:1;fill-rule:nonzero;stroke:none"
             id="path208" />
        </g>
        <g
           id="g210"
           transform="translate(167.224,1000.5556)">
          <path
             d="m 0,0 c -0.062,-10.515 -0.041,-20.101 -0.495,-23.606 -1.051,-8.371 -15.359,-12.144 -16.06,-4.433 -0.33,3.629 -0.619,8.422 -0.619,19.123 l -11.566,-2.671 v -70.509 l 14.741,3.403 c 0,11.195 0,16.059 0.186,19.894 0.515,10.102 15.689,12.39 17.009,3.608 0.598,-4 0.701,-5.918 0.701,-14.948 l 11.751,2.713 V 3.613 Z"
             style="fill:#faa61a;fill-opacity:1;fill-rule:nonzero;stroke:none"
             id="path212" />
        </g>
        <g
           id="g214"
           transform="translate(90.4467,958.1467)">
          <path
             d="m 0,0 c -5.628,-1.319 -8.762,1.814 -8.762,8.515 v 6.473 c 0,4.67 0.907,8.721 5.072,10.041 C 8.401,28.86 16.823,23.648 16.823,15.463 16.823,7.814 10.968,2.577 0,0 m 40.76,27.977 c 0,29.75 -29.111,38.389 -64.717,25.668 v -96.036 l 15.174,3.503 v 24.044 c 0,3.67 2.701,3.031 5.196,0.804 1.752,-1.567 12.287,-11.772 19.648,-19.112 l 23.165,5.348 c 0,0 -20.197,20.629 -22.526,22.67 13.566,5.072 24.06,18.289 24.06,33.111"
             style="fill:#faa61a;fill-opacity:1;fill-rule:nonzero;stroke:none"
             id="path216" />
        </g>
      </g>
    </g>
  </g>
</svg>
