<?xml version="1.0" encoding="UTF-8" standalone="no"?>
<!-- Created with Inkscape (http://www.inkscape.org/) -->

<svg
   version="1.1"
   id="svg1"
   width="666.66669"
   height="339.64401"
   viewBox="0 0 666.66669 339.64401"
   sodipodi:docname="Two Clouds Collide Together.ai"
   xmlns:inkscape="http://www.inkscape.org/namespaces/inkscape"
   xmlns:sodipodi="http://sodipodi.sourceforge.net/DTD/sodipodi-0.dtd"
   xmlns="http://www.w3.org/2000/svg"
   xmlns:svg="http://www.w3.org/2000/svg">
  <defs
     id="defs1">
    <clipPath
       clipPathUnits="userSpaceOnUse"
       id="clipPath2">
      <path
         d="M 0,254.733 H 500 V 0 H 0 Z"
         transform="translate(-480.57281,-187.1886)"
         id="path2" />
    </clipPath>
    <clipPath
       clipPathUnits="userSpaceOnUse"
       id="clipPath4">
      <path
         d="M 0,254.733 H 500 V 0 H 0 Z"
         transform="translate(-473.37941,-184.8737)"
         id="path4" />
    </clipPath>
    <clipPath
       clipPathUnits="userSpaceOnUse"
       id="clipPath6">
      <path
         d="M 0,254.733 H 500 V 0 H 0 Z"
         transform="translate(-466.71921,-182.7541)"
         id="path6" />
    </clipPath>
    <clipPath
       clipPathUnits="userSpaceOnUse"
       id="clipPath8">
      <path
         d="M 0,254.733 H 500 V 0 H 0 Z"
         transform="translate(-472.12741,-123.91131)"
         id="path8" />
    </clipPath>
    <clipPath
       clipPathUnits="userSpaceOnUse"
       id="clipPath10">
      <path
         d="M 0,254.733 H 500 V 0 H 0 Z"
         transform="translate(-457.11771,-152.5548)"
         id="path10" />
    </clipPath>
    <clipPath
       clipPathUnits="userSpaceOnUse"
       id="clipPath12">
      <path
         d="M 0,254.733 H 500 V 0 H 0 Z"
         transform="translate(-436.78471,-127.569)"
         id="path12" />
    </clipPath>
    <clipPath
       clipPathUnits="userSpaceOnUse"
       id="clipPath14">
      <path
         d="M 0,254.733 H 500 V 0 H 0 Z"
         transform="translate(-410.48491,-125.3659)"
         id="path14" />
    </clipPath>
    <clipPath
       clipPathUnits="userSpaceOnUse"
       id="clipPath16">
      <path
         d="M 0,254.733 H 500 V 0 H 0 Z"
         transform="translate(-390.94781,-119.9743)"
         id="path16" />
    </clipPath>
    <clipPath
       clipPathUnits="userSpaceOnUse"
       id="clipPath18">
      <path
         d="M 0,254.733 H 500 V 0 H 0 Z"
         transform="translate(-367.28961,-114.51531)"
         id="path18" />
    </clipPath>
    <clipPath
       clipPathUnits="userSpaceOnUse"
       id="clipPath20">
      <path
         d="M 0,254.733 H 500 V 0 H 0 Z"
         transform="translate(-336.76121,-117.25311)"
         id="path20" />
    </clipPath>
    <clipPath
       clipPathUnits="userSpaceOnUse"
       id="clipPath22">
      <path
         d="M 0,254.733 H 500 V 0 H 0 Z"
         transform="translate(-314.26121,-98.142205)"
         id="path22" />
    </clipPath>
    <clipPath
       clipPathUnits="userSpaceOnUse"
       id="clipPath24">
      <path
         d="M 0,254.733 H 500 V 0 H 0 Z"
         transform="translate(-285.06591,-104.94891)"
         id="path24" />
    </clipPath>
    <clipPath
       clipPathUnits="userSpaceOnUse"
       id="clipPath26">
      <path
         d="M 0,254.733 H 500 V 0 H 0 Z"
         transform="translate(-441.98681,-224.36001)"
         id="path26" />
    </clipPath>
    <clipPath
       clipPathUnits="userSpaceOnUse"
       id="clipPath28">
      <path
         d="M 0,254.733 H 500 V 0 H 0 Z"
         transform="translate(-397.99761,-201.76191)"
         id="path28" />
    </clipPath>
    <clipPath
       clipPathUnits="userSpaceOnUse"
       id="clipPath30">
      <path
         d="M 0,254.733 H 500 V 0 H 0 Z"
         transform="translate(-354.00731,-198.487)"
         id="path30" />
    </clipPath>
    <clipPath
       clipPathUnits="userSpaceOnUse"
       id="clipPath32">
      <path
         d="M 0,254.733 H 500 V 0 H 0 Z"
         transform="translate(-350.89991,-187.9455)"
         id="path32" />
    </clipPath>
    <clipPath
       clipPathUnits="userSpaceOnUse"
       id="clipPath34">
      <path
         d="M 0,254.733 H 500 V 0 H 0 Z"
         transform="translate(-312.23191,-188.6027)"
         id="path34" />
    </clipPath>
    <clipPath
       clipPathUnits="userSpaceOnUse"
       id="clipPath36">
      <path
         d="M 0,254.733 H 500 V 0 H 0 Z"
         transform="translate(-269.0542,-164.7531)"
         id="path36" />
    </clipPath>
    <clipPath
       clipPathUnits="userSpaceOnUse"
       id="clipPath38">
      <path
         d="M 0,254.733 H 500 V 0 H 0 Z"
         transform="translate(-257.02,-77.424504)"
         id="path38" />
    </clipPath>
    <clipPath
       clipPathUnits="userSpaceOnUse"
       id="clipPath40">
      <path
         d="M 0,254.733 H 500 V 0 H 0 Z"
         transform="translate(-236.1187,-125.57931)"
         id="path40" />
    </clipPath>
    <clipPath
       clipPathUnits="userSpaceOnUse"
       id="clipPath42">
      <path
         d="M 0,254.733 H 500 V 0 H 0 Z"
         transform="translate(-201.3901,-78.964502)"
         id="path42" />
    </clipPath>
    <clipPath
       clipPathUnits="userSpaceOnUse"
       id="clipPath44">
      <path
         d="M 0,254.733 H 500 V 0 H 0 Z"
         transform="translate(-179.0991,-106.1515)"
         id="path44" />
    </clipPath>
    <clipPath
       clipPathUnits="userSpaceOnUse"
       id="clipPath46">
      <path
         d="M 0,254.733 H 500 V 0 H 0 Z"
         transform="translate(-152.06691,-65.737502)"
         id="path46" />
    </clipPath>
    <clipPath
       clipPathUnits="userSpaceOnUse"
       id="clipPath48">
      <path
         d="M 0,254.733 H 500 V 0 H 0 Z"
         transform="translate(-123.34131,-58.416204)"
         id="path48" />
    </clipPath>
    <clipPath
       clipPathUnits="userSpaceOnUse"
       id="clipPath50">
      <path
         d="M 0,254.733 H 500 V 0 H 0 Z"
         transform="translate(-98.3257,-88.836602)"
         id="path50" />
    </clipPath>
    <clipPath
       clipPathUnits="userSpaceOnUse"
       id="clipPath52">
      <path
         d="M 0,254.733 H 500 V 0 H 0 Z"
         transform="translate(-235.32471,-131.8048)"
         id="path52" />
    </clipPath>
    <clipPath
       clipPathUnits="userSpaceOnUse"
       id="clipPath54">
      <path
         d="M 0,254.733 H 500 V 0 H 0 Z"
         transform="translate(-184.9575,-157.1007)"
         id="path54" />
    </clipPath>
    <clipPath
       clipPathUnits="userSpaceOnUse"
       id="clipPath56">
      <path
         d="M 0,254.733 H 500 V 0 H 0 Z"
         transform="translate(-140.75541,-151.3605)"
         id="path56" />
    </clipPath>
    <clipPath
       clipPathUnits="userSpaceOnUse"
       id="clipPath58">
      <path
         d="M 0,254.733 H 500 V 0 H 0 Z"
         transform="translate(-137.271,-144.36201)"
         id="path58" />
    </clipPath>
    <clipPath
       clipPathUnits="userSpaceOnUse"
       id="clipPath60">
      <path
         d="M 0,254.733 H 500 V 0 H 0 Z"
         transform="translate(-97.488805,-138.0294)"
         id="path60" />
    </clipPath>
    <clipPath
       clipPathUnits="userSpaceOnUse"
       id="clipPath62">
      <path
         d="M 0,254.733 H 500 V 0 H 0 Z"
         transform="translate(-55.992701,-109.8478)"
         id="path62" />
    </clipPath>
  </defs>
  <sodipodi:namedview
     id="namedview1"
     pagecolor="#ffffff"
     bordercolor="#000000"
     borderopacity="0.25"
     inkscape:showpageshadow="2"
     inkscape:pageopacity="0.0"
     inkscape:pagecheckerboard="0"
     inkscape:deskcolor="#d1d1d1">
    <inkscape:page
       x="0"
       y="0"
       inkscape:label="1"
       id="page1"
       width="666.66669"
       height="339.64401"
       margin="0"
       bleed="0" />
  </sodipodi:namedview>
  <g
     id="layer-MC0"
     inkscape:groupmode="layer"
     inkscape:label="Layer 1">
    <path
       id="path1"
       d="m 0,0 c 0.881,3.95 1.325,8.005 1.325,12.128 0,30.557 -24.858,55.416 -55.415,55.416 -12.253,0 -23.868,-3.919 -33.589,-11.335 -4.717,-3.599 -8.824,-7.955 -12.16,-12.832 -8.715,5.484 -18.874,8.471 -29.435,8.471 -17.412,0 -33.584,-8.296 -43.897,-21.675 -9.358,6.145 -20.386,9.508 -31.819,9.508 -16.911,0 -32.96,-7.509 -43.882,-20.093 -5.677,1.714 -11.577,2.579 -17.635,2.579 -19.641,0 -37.751,-9.384 -49.12,-24.731 -7.88,3.937 -16.627,6.031 -25.562,6.031 -11.806,0 -23.141,-3.571 -32.781,-10.325 -4.999,-3.503 -9.356,-7.725 -12.956,-12.517 -9.669,6.068 -20.959,9.394 -32.526,9.394 -33.702,0 -61.121,-27.419 -61.121,-61.121 0,-13.548 4.344,-26.385 12.561,-37.121 5.74,-7.499 13.212,-13.593 21.637,-17.747 -0.116,-1.475 -0.173,-2.957 -0.173,-4.442 0,-31.306 25.47,-56.777 56.777,-56.777 11.745,0 23.018,3.559 32.602,10.291 5.7,4.005 10.558,8.949 14.398,14.613 6.41,-2.423 13.237,-3.674 20.209,-3.674 17.551,0 34.042,8.2 44.766,21.627 7.062,-3.148 14.722,-4.779 22.647,-4.779 15.098,0 29.156,5.954 39.487,16.361 8.817,-5.187 18.893,-7.961 29.316,-7.961 12.699,0 24.758,4.035 34.876,11.669 5.428,4.094 10.098,9.147 13.781,14.83 7.966,-4.296 16.918,-6.575 26.217,-6.575 19.252,0 36.818,10.075 46.798,25.763 8.037,-4.067 16.969,-6.226 26.152,-6.226 31.953,0 57.95,25.996 57.95,57.959 C 19.413,-26.521 12.289,-10.909 0,0"
       style="fill:#00b3f0;fill-opacity:1;fill-rule:nonzero;stroke:none"
       transform="matrix(1.3333333,0,0,-1.3333333,640.76373,90.0592)"
       clip-path="url(#clipPath2)" />
    <path
       id="path3"
       d="m 0,0 c 1.432,4.647 2.154,9.488 2.154,14.443 0,27.047 -22.004,49.052 -49.05,49.052 -18.677,0 -35.627,-10.769 -43.842,-27.042 -8.733,7.288 -19.766,11.345 -31.343,11.345 -17.56,0 -33.695,-9.532 -42.356,-24.393 -9.265,7.846 -21.048,12.226 -33.36,12.226 -16.487,0 -32.053,-8.015 -41.714,-21.206 -6.294,2.452 -12.934,3.692 -19.802,3.692 -19.511,0 -37.334,-10.335 -47.11,-26.829 -8.171,5.278 -17.744,8.13 -27.573,8.13 -10.491,0 -20.564,-3.172 -29.128,-9.174 -6.163,-4.319 -11.23,-9.865 -14.924,-16.288 -9.65,7.705 -21.751,12.014 -34.211,12.014 -30.192,0 -54.756,-24.564 -54.756,-54.757 0,-22.56 14.036,-42.822 34.714,-50.969 -0.458,-2.748 -0.69,-5.538 -0.69,-8.341 0,-27.798 22.615,-50.412 50.413,-50.412 10.429,0 20.437,3.158 28.943,9.134 6.52,4.579 11.796,10.543 15.503,17.467 7.029,-3.529 14.788,-5.372 22.764,-5.372 17.347,0 33.529,9.013 42.792,23.408 7.456,-4.308 15.855,-6.559 24.62,-6.559 15.127,0 29.075,6.746 38.402,18.317 8.792,-6.432 19.38,-9.918 30.402,-9.918 11.303,0 22.038,3.591 31.043,10.385 6.507,4.91 11.793,11.367 15.353,18.652 8.26,-5.921 18.124,-9.112 28.478,-9.112 19.146,0 36.407,11.255 44.379,28.166 8.417,-5.607 18.318,-8.63 28.57,-8.63 28.444,0 51.585,23.141 51.585,51.59 C 20.243,-24.753 12.747,-9.741 0,0"
       style="fill:#ffffff;fill-opacity:1;fill-rule:nonzero;stroke:none"
       transform="matrix(1.3333333,0,0,-1.3333333,631.17253,93.145733)"
       clip-path="url(#clipPath4)" />
    <path
       id="path5"
       d="m 0,0 c 2.107,5.107 3.259,10.693 3.259,16.563 0,24.023 -19.473,43.495 -43.495,43.495 -19.822,0 -36.539,-13.253 -41.788,-31.38 -7.965,9.58 -19.963,15.683 -33.398,15.683 -18.657,0 -34.56,-11.766 -40.702,-28.29 -8.455,9.866 -21.01,16.124 -35.013,16.124 -16.884,0 -31.64,-9.083 -39.669,-22.624 -6.583,3.268 -14,5.109 -21.847,5.109 -20.227,0 -37.599,-12.206 -45.161,-29.653 -7.925,6.826 -18.242,10.954 -29.522,10.954 -19.301,0 -35.776,-12.082 -42.284,-29.094 -8.981,9.625 -21.776,15.646 -35.978,15.646 -27.173,0 -49.2,-22.028 -49.2,-49.2 0,-22.473 15.067,-41.426 35.65,-47.31 -1.058,-3.82 -1.626,-7.843 -1.626,-12 0,-24.773 20.083,-44.856 44.856,-44.856 19.165,0 35.52,12.021 41.944,28.932 7.216,-4.864 15.91,-7.704 25.266,-7.704 18.028,0 33.593,10.542 40.871,25.796 7.368,-5.611 16.565,-8.945 26.541,-8.945 15.782,0 29.612,8.341 37.334,20.854 8.233,-7.72 19.295,-12.456 31.47,-12.456 20.79,0 38.375,13.796 44.076,32.725 7.874,-7.9 18.761,-12.801 30.799,-12.801 19.911,0 36.693,13.383 41.84,31.639 8.197,-7.512 19.109,-12.102 31.108,-12.102 25.419,0 46.028,20.61 46.028,46.029 C 21.347,-22.523 12.826,-8.171 0,0"
       style="fill:#130c0e;fill-opacity:1;fill-rule:nonzero;stroke:none"
       transform="matrix(1.3333333,0,0,-1.3333333,622.29227,95.971867)"
       clip-path="url(#clipPath6)" />
    <path
       id="path7"
       d="m 0,0 v 4.302 l -1.082,-4.557 -1.172,-0.277 -1.057,4.053 v -4.302 l -1.107,-0.261 v 5.15 l 1.73,0.408 1.044,-3.839 0.013,0.003 1.018,4.325 1.708,0.403 V 0.258 Z M -7.998,-1.886 V 2.351 L -9.78,1.93 v 0.911 l 4.714,1.111 V 3.042 L -6.784,2.637 -6.785,-1.6 Z"
       style="fill:#f15a22;fill-opacity:1;fill-rule:nonzero;stroke:none"
       transform="matrix(1.3333333,0,0,-1.3333333,629.5032,174.42893)"
       clip-path="url(#clipPath8)" />
    <path
       id="path9"
       d="M 0,0 C 2.493,0.939 7.711,2.342 12.094,3.293 V 16.86 L -9.809,11.803 v -36.261 l 21.903,5.057 v 6.041 c -2.876,-0.754 -8.836,-1.875 -11.445,-2.316 -3.176,-0.533 -3.628,3.513 -0.116,4.673 2.018,0.661 5.717,1.542 8.604,2.354 v 4.651 C 6.505,-4.531 2.945,-5.148 0.14,-5.542 -3.339,-6.041 -3.942,-1.484 0,0"
       style="fill:#f15a22;fill-opacity:1;fill-rule:nonzero;stroke:none"
       transform="matrix(1.3333333,0,0,-1.3333333,609.49027,136.2376)"
       clip-path="url(#clipPath10)" />
    <path
       id="path11"
       d="m 0,0 c -0.128,1.205 -2.212,1.478 -5.459,2.256 -5.675,1.41 -9.188,4.753 -8.829,10.627 0.382,6.34 3.592,10.762 20.579,13.646 V 13.341 C 0.161,12.574 -3.223,11.427 -4.658,10.253 -6.189,9.011 -6.1,6.976 -3.891,6.238 -2.931,5.917 -0.092,4.97 1.623,4.395 4.915,3.297 6.525,1.615 6.861,-1.363 7.81,-9.763 -7.395,-11.966 -13.663,-12.886 v 7.463 C -6.153,-3.91 0.29,-2.583 0,0"
       style="fill:#f15a22;fill-opacity:1;fill-rule:nonzero;stroke:none"
       transform="matrix(1.3333333,0,0,-1.3333333,582.3796,169.552)"
       clip-path="url(#clipPath12)" />
    <path
       id="path13"
       d="m 0,0 v 32.326 l 8.174,1.887 V 1.887 Z"
       style="fill:#f15a22;fill-opacity:1;fill-rule:nonzero;stroke:none"
       transform="matrix(1.3333333,0,0,-1.3333333,547.3132,172.48947)"
       clip-path="url(#clipPath14)" />
    <path
       id="path15"
       d="m 0,0 c -2.25,-0.521 -3.224,0.232 -3.224,2.864 v 8.302 c 0,1.913 -0.098,3.441 1.716,3.954 C 2.435,16.232 6.841,14.123 7.258,9.833 7.745,4.847 4.972,1.148 0,0 M -8.766,27.676 V -7.583 C 8.278,-5.09 15.699,1.496 15.514,14.586 15.352,25.937 4.081,32.175 -8.766,27.676"
       style="fill:#f15a22;fill-opacity:1;fill-rule:nonzero;stroke:none"
       transform="matrix(1.3333333,0,0,-1.3333333,521.26373,179.67827)"
       clip-path="url(#clipPath16)" />
    <path
       id="path17"
       d="m 0,0 -4.116,-0.95 c -1.034,-0.239 -1.623,0.405 -1.495,1.843 0.116,1.345 0.718,4.197 0.95,5.171 0.487,2.017 1.508,3.003 2.679,3.177 C -0.093,9.542 0.823,8.163 1.554,4.684 1.623,4.359 1.82,3.652 1.901,2.701 2.064,0.765 1.462,0.337 0,0 m 7.212,15.456 c -2.156,7.072 -3.902,8.817 -8.197,7.826 -3.786,-0.874 -5.94,-2.845 -7.745,-9.763 -1.775,-6.794 -3.736,-16.504 -5.313,-27.496 l 6.252,1.443 c 0.115,0.87 0.324,1.89 0.626,3.444 0.324,1.565 1.171,2.684 2.853,3.072 l 4.869,1.124 c 1.301,0.301 2.493,-0.73 2.91,-2.469 0.278,-1.159 0.637,-2.804 0.858,-3.905 l 8.279,1.911 C 11.595,-1.252 9.357,8.429 7.212,15.456"
       style="fill:#f15a22;fill-opacity:1;fill-rule:nonzero;stroke:none"
       transform="matrix(1.3333333,0,0,-1.3333333,489.71947,186.95693)"
       clip-path="url(#clipPath18)" />
    <path
       id="path19"
       d="m 0,0 c -2.123,-0.498 -3.306,0.684 -3.306,3.212 v 2.443 c 0,1.762 0.343,3.291 1.914,3.788 C 3.17,10.889 6.348,8.922 6.348,5.834 6.348,2.948 4.139,0.972 0,0 m 15.38,10.556 c 0,11.225 -10.984,14.484 -24.419,9.685 v -35.315 l 5.726,1.322 v 8.151 c 0,1.385 1.019,1.143 1.959,0.303 0.662,-0.591 4.637,-4.441 7.415,-7.211 l 8.74,2.018 c 0,0 -7.62,7.783 -8.499,8.554 5.118,1.914 9.078,6.9 9.078,12.493"
       style="fill:#f15a22;fill-opacity:1;fill-rule:nonzero;stroke:none"
       transform="matrix(1.3333333,0,0,-1.3333333,449.01493,183.30653)"
       clip-path="url(#clipPath20)" />
    <path
       id="path21"
       d="m 0,0 -4.116,-0.95 c -1.034,-0.239 -1.623,0.405 -1.495,1.843 0.115,1.345 0.718,4.197 0.95,5.171 0.487,2.018 1.508,3.003 2.679,3.177 C -0.093,9.542 0.823,8.163 1.554,4.684 1.623,4.359 1.82,3.652 1.901,2.702 2.063,0.765 1.462,0.337 0,0 m 7.212,15.456 c -2.156,7.072 -3.902,8.817 -8.197,7.826 -3.787,-0.874 -5.94,-2.845 -7.745,-9.763 -1.775,-6.794 -3.736,-16.504 -5.313,-27.496 l 6.251,1.443 c 0.116,0.87 0.325,1.89 0.627,3.444 0.324,1.565 1.171,2.684 2.852,3.072 l 4.87,1.124 c 1.301,0.301 2.493,-0.73 2.91,-2.469 0.278,-1.159 0.637,-2.804 0.857,-3.905 l 8.28,1.911 C 11.595,-1.252 9.356,8.429 7.212,15.456"
       style="fill:#f15a22;fill-opacity:1;fill-rule:nonzero;stroke:none"
       transform="matrix(1.3333333,0,0,-1.3333333,419.01493,208.78773)"
       clip-path="url(#clipPath22)" />
    <path
       id="path23"
       d="m 0,0 c -2.574,-0.629 -4.058,0.046 -4.058,2.203 v 7.803 c 0,2.204 1.217,3.595 3.641,3.908 C 4.441,14.54 6.633,11.699 6.633,8 6.633,4.916 4.812,1.176 0,0 M -16.151,25.172 V -23.7 l 12.104,2.794 v 11.479 c 0,2.099 0.523,3.142 1.775,3.363 11.281,1.984 19.317,7.656 19.317,19.293 0,12.779 -13.729,19.654 -33.196,11.943"
       style="fill:#f15a22;fill-opacity:1;fill-rule:nonzero;stroke:none"
       transform="matrix(1.3333333,0,0,-1.3333333,380.08787,199.71213)"
       clip-path="url(#clipPath24)" />
    <path
       id="path25"
       d="m 0,0 c -3.339,-11.026 -5.229,-16.418 -6.875,-20.963 -2.807,-7.733 -5.717,-4.696 -7.073,-2.539 -1.576,2.527 -3.722,7.444 -7.444,16.453 l -9.194,-2.123 v -43.281 l 7.629,1.762 c -0.058,6.899 0.058,11.583 0.429,13.403 0.337,1.635 1.322,1.867 2.319,0.244 0.823,-1.334 2.122,-4.221 4.707,-10.157 l 5.112,1.18 c 2.818,7.571 4.338,11.388 5.416,13.255 0.87,1.519 2.528,2.585 3.027,-0.22 0.382,-2.122 0.347,-7.878 0.336,-14.928 l 7.907,1.826 V 1.454 Z"
       style="fill:#faa61a;fill-opacity:1;fill-rule:nonzero;stroke:none"
       transform="matrix(1.3333333,0,0,-1.3333333,589.31573,40.497333)"
       clip-path="url(#clipPath26)" />
    <path
       id="path27"
       d="m 0,0 c -0.035,-5.913 -0.023,-11.305 -0.278,-13.275 -0.592,-4.708 -8.638,-6.83 -9.033,-2.494 -0.185,2.041 -0.347,4.737 -0.347,10.755 l -6.505,-1.502 v -39.653 l 8.29,1.914 c 0,6.296 0,9.031 0.104,11.188 0.29,5.681 8.824,6.968 9.566,2.028 0.336,-2.249 0.394,-3.327 0.394,-8.405 l 6.609,1.526 v 39.95 z"
       style="fill:#faa61a;fill-opacity:1;fill-rule:nonzero;stroke:none"
       transform="matrix(1.3333333,0,0,-1.3333333,530.66347,70.628133)"
       clip-path="url(#clipPath28)" />
    <path
       id="path29"
       d="m 0,0 v -15.961 l 4.626,1.068 c 2.807,0.648 3.966,0.282 3.966,-4.684 v -20.502 l 7.595,1.753 v 18.795 c 0,8.348 0.783,10.455 4.916,11.409 l 3.779,0.873 V 5.745 Z"
       style="fill:#faa61a;fill-opacity:1;fill-rule:nonzero;stroke:none"
       transform="matrix(1.3333333,0,0,-1.3333333,472.00973,74.994667)"
       clip-path="url(#clipPath30)" />
    <path
       id="path31"
       d="m 0,0 -7.096,-1.638 c 0,0 0.105,-7.305 -0.174,-12.685 -0.406,-7.872 -8.336,-9.565 -8.974,-2.075 -0.324,3.93 -0.475,11.765 -0.475,11.765 l -8.823,-2.037 v -6.389 c -10e-4,-15.247 9.913,-17.125 15.096,-12.777 0.312,0.267 0.626,0.429 0.881,0.313 0.29,-0.128 0.278,-0.441 0.162,-1.02 -0.313,-1.519 -2.562,-4.522 -7.108,-5.74 -3.467,-0.927 -6.863,-1.512 -8.556,-1.779 v -10.581 c 7.63,0.986 16.464,3.166 20.58,9.497 2.145,3.304 3.27,6.794 3.827,11.965 C 0.209,-15.042 0,0 0,0"
       style="fill:#faa61a;fill-opacity:1;fill-rule:nonzero;stroke:none"
       transform="matrix(1.3333333,0,0,-1.3333333,467.86653,89.05)"
       clip-path="url(#clipPath32)" />
    <path
       id="path33"
       d="m 0,0 c -0.034,-5.913 -0.022,-11.305 -0.278,-13.275 -0.591,-4.708 -8.638,-6.83 -9.032,-2.494 -0.185,2.041 -0.348,4.737 -0.348,10.755 l -6.504,-1.502 v -39.653 l 8.29,1.914 c 0,6.296 0,9.031 0.104,11.188 0.289,5.681 8.824,6.968 9.566,2.028 0.336,-2.249 0.393,-3.327 0.393,-8.405 l 6.61,1.525 V 2.032 Z"
       style="fill:#faa61a;fill-opacity:1;fill-rule:nonzero;stroke:none"
       transform="matrix(1.3333333,0,0,-1.3333333,416.3092,88.173733)"
       clip-path="url(#clipPath34)" />
    <path
       id="path35"
       d="m 0,0 c -3.165,-0.742 -4.928,1.02 -4.928,4.789 v 3.64 c 0,2.626 0.51,4.904 2.853,5.647 C 4.725,16.23 9.461,13.299 9.461,8.696 9.461,4.394 6.168,1.449 0,0 m 22.923,15.734 c 0,16.731 -16.372,21.589 -36.396,14.435 V -23.84 l 8.534,1.97 v 13.522 c 0,2.064 1.518,1.704 2.921,0.452 0.986,-0.881 6.911,-6.621 11.05,-10.748 l 13.028,3.007 c 0,0 -11.358,11.602 -12.668,12.75 7.629,2.852 13.531,10.285 13.531,18.621"
       style="fill:#faa61a;fill-opacity:1;fill-rule:nonzero;stroke:none"
       transform="matrix(1.3333333,0,0,-1.3333333,358.73893,119.9732)"
       clip-path="url(#clipPath36)" />
    <path
       id="path37"
       d="m 0,0 v 3.784 l -0.951,-4.004 -1.031,-0.238 -0.929,3.57 v -3.784 l -0.974,-0.225 v 4.53 l 1.522,0.351 0.918,-3.381 0.01,0.002 0.896,3.801 1.501,0.346 V 0.222 Z M -7.032,-1.624 V 2.103 L -8.599,1.741 v 0.801 l 4.144,0.957 V 2.698 L -5.965,2.35 v -3.727 z"
       style="fill:#f15a22;fill-opacity:1;fill-rule:nonzero;stroke:none"
       transform="matrix(1.3333333,0,0,-1.3333333,342.69333,236.41133)"
       clip-path="url(#clipPath38)" />
    <path
       id="path39"
       d="m 0,0 c 0,0 -0.071,-18.389 -0.3,-21.624 -0.357,-5.053 -1.715,-5.188 -2.87,-4.43 -2.306,1.512 -6.613,10.124 -10.47,17.613 l -5.627,-1.299 v -46.535 l 6.881,1.588 0.023,11.808 c 0.011,6.062 1.667,6.456 4.072,4.254 1.824,-1.671 4.308,-5.355 8.22,-11.62 l 9.104,2.102 V 2.085 Z"
       style="fill:#f15a22;fill-opacity:1;fill-rule:nonzero;stroke:none"
       transform="matrix(1.3333333,0,0,-1.3333333,314.82493,172.20493)"
       clip-path="url(#clipPath40)" />
    <path
       id="path41"
       d="m 0,0 c -0.208,-0.001 -1.754,0.051 -1.919,1.23 -0.096,0.684 0.232,1.325 1.057,1.829 1.289,0.789 5.753,2.072 10.038,3.076 v 5.925 c 0,0 -7.758,-1.867 -10.144,-1.512 -0.725,0.108 -1.208,0.491 -1.303,1.16 -0.098,0.685 0.247,1.301 1.056,1.829 2.182,1.421 11.975,3.533 11.975,3.533 V 30.739 L -9.403,26.084 v -36.44 l 20.586,4.752 V 1.969 C 5.688,0.721 1.975,0.011 0,0"
       style="fill:#f15a22;fill-opacity:1;fill-rule:nonzero;stroke:none"
       transform="matrix(1.3333333,0,0,-1.3333333,268.52013,234.358)"
       clip-path="url(#clipPath42)" />
    <path
       id="path43"
       d="m 0,0 c 0,0 -2.185,-14.392 -4.124,-21.042 -0.555,-1.901 -1.894,-4.809 -3.716,-0.651 -0.652,1.489 -2.59,8.446 -4.012,17.415 l -6.29,-1.452 c 0.55,-6.167 3.571,-22.823 7.594,-32.527 l 12.2,2.816 c 4.491,11.884 7.185,24.437 8.101,37.692 z"
       style="fill:#f15a22;fill-opacity:1;fill-rule:nonzero;stroke:none"
       transform="matrix(1.3333333,0,0,-1.3333333,238.7988,198.10867)"
       clip-path="url(#clipPath44)" />
    <path
       id="path45"
       d="m 0,0 -4.312,-0.996 c -1.082,-0.249 -1.71,0.412 -1.579,1.954 0.123,1.444 0.755,4.504 0.995,5.538 0.533,2.285 1.578,3.238 2.807,3.409 1.575,0.22 2.951,-1.157 3.704,-4.89 C 1.688,4.654 1.872,3.905 1.992,2.887 2.138,1.651 1.531,0.354 0,0 m 5.377,20.63 c -3.053,5.625 -6.604,4.459 -8.423,3.857 -2.384,-0.788 -4.499,-2.012 -6.713,-10.794 -2.327,-9.231 -4.863,-28.643 -4.863,-28.643 l 6.387,1.475 0.66,3.698 c 0.316,1.776 1.446,2.904 3.17,3.411 1.656,0.488 4.949,1.284 6.638,1.477 0.714,0.081 1.553,-0.483 1.796,-1.6 l 0.864,-3.956 8.699,2.009 c 0,0 -4.327,21.904 -8.215,29.066"
       style="fill:#f15a22;fill-opacity:1;fill-rule:nonzero;stroke:none"
       transform="matrix(1.3333333,0,0,-1.3333333,202.75587,251.994)"
       clip-path="url(#clipPath46)" />
    <path
       id="path47"
       d="m 0,0 c -0.209,-0.001 -1.754,0.052 -1.92,1.231 -0.096,0.683 0.233,1.324 1.057,1.828 1.29,0.789 5.754,2.072 10.038,3.077 v 5.925 c 0,0 -7.758,-1.867 -10.144,-1.513 -0.724,0.108 -1.207,0.491 -1.302,1.16 -0.099,0.685 0.246,1.302 1.056,1.829 2.182,1.421 11.975,3.534 11.975,3.534 V 31.805 L -9.404,27.15 V -9.291 l 20.587,4.753 V 1.969 C 5.688,0.721 1.975,0.011 0,0"
       style="fill:#f15a22;fill-opacity:1;fill-rule:nonzero;stroke:none"
       transform="matrix(1.3333333,0,0,-1.3333333,164.45507,261.75573)"
       clip-path="url(#clipPath48)" />
    <path
       id="path49"
       d="m 0,0 c 0,-7.271 0.036,-12.714 -0.96,-16.28 -0.604,-2.166 -1.936,-3.815 -3.716,-5.063 -1.811,-1.271 -3.627,-1.828 -5.406,-1.864 -2.169,-0.043 -3.754,1.138 -3.985,3.548 -0.333,3.462 -0.312,7.837 -0.312,13.899 l -7.872,-1.818 v -53.619 l 10.813,2.496 c 0,6.824 0.14,11.853 0.981,14.991 0.573,2.138 2.133,3.942 3.706,5.005 1.84,1.242 3.532,1.863 5.314,1.892 2.166,0.036 3.811,-1.083 4.015,-3.243 0.3,-3.164 0.319,-7.467 0.319,-13.34 l 8.013,1.85 V 2.519 Z"
       style="fill:#f15a22;fill-opacity:1;fill-rule:nonzero;stroke:none"
       transform="matrix(1.3333333,0,0,-1.3333333,131.10093,221.1952)"
       clip-path="url(#clipPath50)" />
    <path
       id="path51"
       d="m 0,0 v 46.688 l -6.383,-1.473 c -3.385,-11.178 -5.3,-16.644 -6.97,-21.251 -2.842,-7.84 -5.798,-4.763 -7.169,-2.574 -1.604,2.559 -3.773,7.547 -7.546,16.679 l -9.321,-2.152 V -7.284 l 7.729,1.784 c -0.059,6.994 0.062,11.07 0.44,12.915 0.339,1.657 1.338,1.891 2.351,0.247 0.833,-1.353 2.15,-4.279 4.771,-10.296 l 5.184,1.196 c 2.856,7.675 4.399,11.542 5.489,13.437 0.885,1.538 2.559,2.62 3.068,-0.224 0.385,-2.151 0.352,-6.48 0.34,-13.626 z"
       style="fill:#faa61a;fill-opacity:1;fill-rule:nonzero;stroke:none"
       transform="matrix(1.3333333,0,0,-1.3333333,313.76627,163.90427)"
       clip-path="url(#clipPath52)" />
    <path
       id="path53"
       d="m 0,0 c 0,0 0.153,-10.141 -0.192,-13.498 -0.458,-4.455 -8.356,-5.993 -8.69,-1.44 -0.149,2.033 -0.264,4.654 -0.264,10.639 l -6.453,-1.49 v -39.994 l 8.849,2.043 v 9.236 c 0,7.104 8.824,7.698 9.3,2.733 0.149,-1.562 0.225,-3.996 0.225,-9.047 l 6.454,1.49 V 2.13 Z"
       style="fill:#faa61a;fill-opacity:1;fill-rule:nonzero;stroke:none"
       transform="matrix(1.3333333,0,0,-1.3333333,246.61,130.1764)"
       clip-path="url(#clipPath54)" />
    <path
       id="path55"
       d="m 0,0 v -16.482 l 5.954,1.375 c 2.373,0.547 3.206,0.044 3.189,-4.724 v -21.181 l 7.054,1.628 v 19.601 c 0.05,8.415 1.037,10.157 5.222,11.123 l 3.736,0.863 V 5.808 Z"
       style="fill:#faa61a;fill-opacity:1;fill-rule:nonzero;stroke:none"
       transform="matrix(1.3333333,0,0,-1.3333333,187.67387,137.83)"
       clip-path="url(#clipPath56)" />
    <path
       id="path57"
       d="m 0,0 -7.523,-1.737 c 0,0 -0.047,-5.693 -0.464,-13.233 -0.443,-8.015 -9.076,-10.473 -9.57,-2.319 -0.315,5.208 -0.264,12.27 -0.264,12.27 l -9.007,-2.08 v -3.856 c 0,-15.016 1.725,-20.111 10.796,-19.132 2.121,0.229 3.736,0.903 5.556,2.135 0.114,0.077 0.258,0.079 0.393,-0.026 0.129,-0.1 0.339,-0.437 0.023,-1.417 -1.701,-5.28 -16.269,-6.85 -16.269,-6.85 v -11.799 c 8.326,1.225 17.389,2.998 22.144,10.899 C -2.408,-34.194 0,-30.63 0,0"
       style="fill:#faa61a;fill-opacity:1;fill-rule:nonzero;stroke:none"
       transform="matrix(1.3333333,0,0,-1.3333333,183.028,147.16133)"
       clip-path="url(#clipPath58)" />
    <path
       id="path59"
       d="m 0,0 c 0,0 0.146,-9.637 -0.183,-12.828 -0.436,-4.234 -7.941,-5.695 -8.258,-1.368 -0.142,1.932 -0.251,4.423 -0.251,10.111 l -6.133,-1.416 v -38.01 l 8.41,1.941 v 8.778 c 0,6.751 8.386,7.316 8.838,2.597 0.141,-1.484 0.214,-3.797 0.214,-8.597 l 6.134,1.416 V 2.025 Z"
       style="fill:#faa61a;fill-opacity:1;fill-rule:nonzero;stroke:none"
       transform="matrix(1.3333333,0,0,-1.3333333,129.98507,155.6048)"
       clip-path="url(#clipPath60)" />
    <path
       id="path61"
       d="m 0,0 c -3.851,-0.982 -6.123,1.081 -6.123,6.257 0,4.13 0.078,8.392 7.639,8.392 5.381,0 7.631,-2.725 7.631,-5.799 C 9.147,6.173 5.872,1.497 0,0 m 22.6,17.056 c 0,9.508 -7.005,21.008 -36.317,13.954 v -51.712 l 7.633,1.762 v 9.343 c 0,3.797 2.188,3.097 3.584,2.188 1.084,-0.706 3.384,-2.559 8.819,-8.668 l 12.968,2.994 -10.105,10.347 c 0,0 13.418,5.403 13.418,19.792"
       style="fill:#faa61a;fill-opacity:1;fill-rule:nonzero;stroke:none"
       transform="matrix(1.3333333,0,0,-1.3333333,74.656933,193.18027)"
       clip-path="url(#clipPath62)" />
  </g>
</svg>
