<?xml version="1.0" encoding="UTF-8" standalone="no"?>
<!-- Created with Inkscape (http://www.inkscape.org/) -->

<svg
   version="1.1"
   id="svg2"
   xml:space="preserve"
   width="666.66669"
   height="244.61067"
   viewBox="0 0 666.66669 244.61067"
   sodipodi:docname="What.ai"
   xmlns:inkscape="http://www.inkscape.org/namespaces/inkscape"
   xmlns:sodipodi="http://sodipodi.sourceforge.net/DTD/sodipodi-0.dtd"
   xmlns="http://www.w3.org/2000/svg"
   xmlns:svg="http://www.w3.org/2000/svg"><defs
     id="defs6"><clipPath
       clipPathUnits="userSpaceOnUse"
       id="clipPath16"><path
         d="M 0,183.458 H 500 V 0 H 0 Z"
         id="path14" /></clipPath></defs><sodipodi:namedview
     id="namedview4"
     pagecolor="#ffffff"
     bordercolor="#666666"
     borderopacity="1.0"
     inkscape:pageshadow="2"
     inkscape:pageopacity="0.0"
     inkscape:pagecheckerboard="0" /><g
     id="g8"
     inkscape:groupmode="layer"
     inkscape:label="What"
     transform="matrix(1.3333333,0,0,-1.3333333,0,244.61067)"><g
       id="g10"><g
         id="g12"
         clip-path="url(#clipPath16)"><g
           id="g18"
           transform="translate(421.9434,183.4524)"><path
             d="m 0,0 h -0.001 -0.203 c -25.045,0 -47.916,-11.612 -62.524,-31.074 -7.648,2.446 -15.681,3.722 -23.764,3.743 h -0.21 c -7.673,0 -15.327,-1.138 -22.646,-3.339 -14.604,19.135 -37.312,30.607 -62.013,30.67 h -0.203 c -24.999,0 -47.857,-11.59 -62.477,-31.01 -0.29,0.092 -0.581,0.183 -0.872,0.272 -15.33,4.672 -31.366,4.549 -46.349,-0.195 -14.587,19.308 -37.361,30.876 -62.233,30.939 h -0.181 c -43.068,0 -78.162,-34.892 -78.267,-77.862 -0.112,-43.037 34.905,-78.145 78.06,-78.264 8.075,0.019 16.104,1.213 23.767,3.621 9.882,-12.982 23.718,-22.734 39.476,-27.541 17.817,-5.429 37.04,-4.32 54.13,3.125 12.4,5.403 23.126,13.88 31.174,24.484 7.597,-2.41 15.569,-3.668 23.582,-3.689 h 0.214 c 7.672,0 15.322,1.137 22.64,3.337 14.611,-19.133 37.323,-30.606 62.016,-30.669 h 0.203 c 25.046,0 47.921,11.612 62.533,31.071 7.64,-2.444 15.666,-3.72 23.751,-3.746 h 0.181 c 43.056,0 78.152,34.893 78.272,77.871 C 78.161,-35.218 43.145,-0.112 0,0"
             style="fill:#00b3f0;fill-opacity:1;fill-rule:nonzero;stroke:none"
             id="path20" /></g><g
           id="g22"
           transform="translate(421.9189,174.0744)"><path
             d="M 0,0 H -0.001 -0.18 c -24.398,0 -46.454,-12.519 -58.898,-33.066 -8.599,3.74 -17.966,5.71 -27.414,5.735 h -0.185 c -9.014,0 -17.995,-1.783 -26.286,-5.19 -12.483,20.135 -34.369,32.46 -58.398,32.521 h -0.179 c -24.35,0 -46.39,-12.488 -58.854,-32.985 -2.353,1.015 -4.769,1.902 -7.229,2.654 -15.712,4.79 -32.272,3.855 -47.229,-2.565 -12.441,20.374 -34.411,32.841 -58.64,32.902 h -0.159 c -37.908,0 -68.797,-30.7 -68.89,-68.508 -0.099,-37.866 30.723,-68.758 68.708,-68.862 h 0.183 c 9.33,0 18.605,1.907 27.147,5.554 8.773,-14.391 22.298,-24.903 38.621,-29.88 6.747,-2.057 13.58,-3.043 20.31,-3.043 23.673,0 46.04,12.213 58.669,33.016 8.543,-3.683 17.838,-5.623 27.199,-5.647 h 0.189 c 9.011,0 17.988,1.78 26.278,5.186 12.491,-20.134 34.38,-32.457 58.402,-32.518 h 0.179 c 24.402,0 46.461,12.516 58.908,33.061 8.589,-3.735 17.949,-5.706 27.396,-5.736 h 0.159 c 37.899,0 68.79,30.703 68.896,68.517 C 68.795,-30.987 37.975,-0.099 0,0"
             style="fill:#ffffff;fill-opacity:1;fill-rule:nonzero;stroke:none"
             id="path24" /></g><g
           id="g26"
           transform="translate(421.9034,168.1068)"><path
             d="m 0,0 c -24.797,0.062 -46.279,-14.188 -56.572,-34.948 -8.887,4.831 -19.078,7.588 -29.921,7.617 -10.429,0.028 -20.274,-2.481 -28.946,-6.939 -10.378,20.291 -31.509,34.208 -55.921,34.27 -24.757,0.062 -46.205,-14.143 -56.526,-34.841 -3.588,1.927 -7.414,3.532 -11.461,4.769 -16.613,5.063 -33.741,2.905 -47.979,-4.661 -10.293,20.539 -31.559,34.676 -56.164,34.739 -34.745,0.079 -62.982,-27.914 -63.067,-62.557 -0.091,-34.632 28.005,-62.782 62.755,-62.878 10.775,-0.028 20.926,2.655 29.808,7.391 7.442,-14.85 20.728,-26.75 37.868,-31.976 29.83,-9.092 61.327,5.096 74.743,32.094 8.842,-4.763 18.96,-7.481 29.712,-7.509 10.429,-0.028 20.274,2.48 28.94,6.933 10.384,-20.28 31.514,-34.202 55.926,-34.265 24.803,-0.062 46.285,14.183 56.583,34.943 8.888,-4.831 19.067,-7.583 29.899,-7.617 34.745,-0.079 62.977,27.93 63.073,62.562 C 62.835,-28.235 34.745,-0.09 0,0"
             style="fill:#130c0e;fill-opacity:1;fill-rule:nonzero;stroke:none"
             id="path28" /></g><g
           id="g30"
           transform="translate(76.8835,124.4795)"><path
             d="m 0,0 -7.065,-27.684 c 0,0 -5.402,20.779 -6.279,23.725 -0.873,2.954 -2.689,4.247 -5.249,4.247 -2.562,0 -4.376,-1.293 -5.251,-4.247 -0.875,-2.946 -6.277,-23.725 -6.277,-23.725 L -37.186,0 h -8.504 c 0,0 8.169,-29.537 9.277,-32.957 0.866,-2.672 2.91,-4.853 5.947,-4.853 3.469,0 5.088,2.526 5.839,4.853 0.744,2.309 6.034,21.817 6.034,21.817 0,0 5.288,-19.508 6.029,-21.817 0.754,-2.327 2.375,-4.853 5.842,-4.853 3.037,0 5.081,2.181 5.949,4.853 C 0.333,-29.537 8.507,0 8.507,0 Z m 29.169,-37.526 h 8.049 v 26.053 h -8.049 z m -0.783,35.161 c 0,-2.509 2.118,-4.548 4.721,-4.548 2.704,0 4.826,1.997 4.826,4.548 0,2.556 -2.122,4.555 -4.826,4.555 -2.603,0 -4.721,-2.043 -4.721,-4.555 M 12.798,-37.526 h 8.052 v 26.053 H 12.798 Z M 16.736,2.19 c 2.706,0 4.828,-1.999 4.828,-4.555 0,-2.551 -2.122,-4.548 -4.828,-4.548 -2.603,0 -4.721,2.039 -4.721,4.548 0,2.512 2.118,4.555 4.721,4.555"
             style="fill:#f15a22;fill-opacity:1;fill-rule:nonzero;stroke:none"
             id="path32" /></g><g
           id="g34"
           transform="translate(201.8371,69.9754)"><path
             d="m 0,0 c 0,4.259 -1.44,6.388 -4.32,6.388 -2.803,0 -4.205,-2.145 -4.205,-6.434 0,-1.716 0.368,-3.317 1.103,-4.802 0.827,-1.67 1.846,-2.505 3.056,-2.505 1.18,0 2.221,0.85 3.125,2.551 C -0.414,-3.255 0,-1.654 0,0 m 11.053,4.044 c 0,-5.407 -1.394,-9.98 -4.182,-13.718 -2.926,-3.906 -6.672,-5.859 -11.237,-5.859 -4.703,0 -8.51,1.968 -11.42,5.905 -2.742,3.707 -4.113,8.265 -4.113,13.672 0,5.775 1.493,10.31 4.48,13.603 2.819,3.095 6.503,4.642 11.053,4.642 4.473,0 8.119,-1.555 10.938,-4.665 2.987,-3.308 4.481,-7.835 4.481,-13.58 M -32.56,0 c 0,4.259 -1.44,6.388 -4.32,6.388 -2.804,0 -4.205,-2.145 -4.205,-6.434 0,-1.716 0.367,-3.317 1.103,-4.802 0.827,-1.67 1.845,-2.505 3.056,-2.505 1.179,0 2.221,0.85 3.125,2.551 0.827,1.547 1.241,3.148 1.241,4.802 m 11.052,4.044 c 0,-5.407 -1.394,-9.98 -4.182,-13.718 -2.926,-3.906 -6.671,-5.859 -11.236,-5.859 -4.703,0 -8.51,1.968 -11.421,5.905 -2.742,3.707 -4.113,8.265 -4.113,13.672 0,5.775 1.494,10.31 4.481,13.603 2.819,3.095 6.503,4.642 11.053,4.642 4.473,0 8.119,-1.555 10.937,-4.665 2.988,-3.308 4.481,-7.835 4.481,-13.58 M -53.724,20.933 -66.385,-7.353 c 1.379,-0.092 3.562,0.015 6.549,0.322 0.69,0.076 1.639,0.283 2.849,0.62 -0.229,-0.689 -0.62,-1.884 -1.171,-3.585 -0.307,-0.965 -0.713,-2.42 -1.218,-4.366 h -20.75 l 6.204,21.6 c -0.551,-0.03 -1.6,-0.092 -3.148,-0.184 -1.133,-0.076 -2.688,-0.268 -4.664,-0.574 l -0.506,14.453 z"
             style="fill:#faa61a;fill-opacity:1;fill-rule:nonzero;stroke:none"
             id="path36" /></g><g
           id="g38"
           transform="translate(286.0926,119.5054)"><path
             d="m 0,0 c -2.908,-1.918 -7.658,-2.976 -9.924,0.989 -1.57,2.749 0,7.092 4.962,8.225 C 0,10.346 4.962,8.081 4.962,8.081 4.962,8.081 3.444,2.266 0,0 m -19.911,-17.796 c -2.214,-0.344 -4.364,1.668 -4.805,4.496 -0.44,2.827 0.998,5.398 3.211,5.742 2.213,0.345 4.364,-1.668 4.804,-4.495 0.44,-2.827 -0.997,-5.398 -3.21,-5.743 m 1.552,-21.762 c -1.141,-0.869 -2.696,-0.71 -3.686,-1.277 -0.989,-0.566 -1.42,-2.054 -2.764,-3.262 -1.246,-1.11 -3.074,-0.718 -3.829,-0.136 -2.266,1.775 -0.997,6.457 2.764,9.07 3.973,2.764 8.104,1.752 8.859,0.068 0.989,-2.198 -0.144,-3.542 -1.344,-4.463 m -22.544,-4.101 c -1.857,-1.616 -3.655,-0.808 -4.773,0.158 -1.087,0.937 -1.472,1.692 -2.318,2.47 -0.838,0.77 -2.341,0.997 -3.897,1.911 -1.435,0.838 -1.714,2.318 -1.412,3.678 v 0 c 0.71,3.187 5.792,3.066 9.425,0.287 3.836,-2.938 4.607,-7.092 2.975,-8.504 m -9.592,31.899 c 0.408,2.828 2.535,4.862 4.752,4.543 2.217,-0.32 3.684,-2.871 3.276,-5.699 -0.407,-2.828 -2.535,-4.862 -4.752,-4.542 -2.216,0.319 -3.683,2.871 -3.276,5.698 M -59.05,2.621 c -0.491,-1.632 -2.742,-5.219 -8.769,-3.233 -2.567,0.846 -4.191,2.621 -5.279,4.101 -1.812,2.47 -1.993,5.022 -1.993,5.022 0,0 5.747,1.79 10.165,0.416 5.46,-1.7 6.382,-4.675 5.876,-6.306 m 68.362,7.718 c -0.657,1.359 -9.017,4.916 -15.233,2.802 -4.184,-1.428 -8.473,-4.713 -8.473,-4.713 0,0 -0.303,0.229 -0.911,0.587 0.584,3.85 1.079,10.872 -2.911,11.64 -3.615,0.695 -6.88,-4.887 -8.381,-7.956 -2.104,0.318 -4.485,0.517 -7.146,0.517 -3.141,0 -6,-0.284 -8.525,-0.713 l 0.134,0.079 c 0,0 -5.211,10.316 -9.568,8.821 -3.089,-1.06 -2.387,-8.203 -1.716,-12.272 -0.761,-0.359 -1.162,-0.589 -1.162,-0.589 0,0 -4.893,5.105 -12.544,5.845 -7.65,0.748 -13.397,-3.293 -13.503,-3.829 -0.106,-0.529 2.87,-10.973 8.315,-14.606 1.586,-1.057 3.625,-1.533 5.022,-1.722 3.655,-0.498 5.053,-0.045 5.053,-0.045 0,0 -0.529,-5.634 -0.635,-8.504 -0.106,-2.87 -0.166,-6.925 -0.498,-9.856 -0.188,-1.672 -2.226,-5.804 -2.724,-9.29 -0.716,-1.894 -1.052,-3.807 -1.022,-5.512 0.106,-6.064 2.009,-12.529 10.89,-17.332 8.844,-4.788 27.611,-4.569 36.024,-2.658 8.413,1.91 16.282,8.715 17.038,18.178 0.132,1.66 -0.005,3.232 -0.354,4.698 -0.067,0.83 -0.159,1.751 -0.281,2.68 -0.476,3.648 -1.019,5.694 -1.978,8.67 -0.476,1.473 -0.854,4.358 -0.748,7.122 0.189,4.81 1.171,11.268 1.171,11.268 0,0 4.463,-0.219 8.609,3.292 3.716,3.15 6.563,12.363 6.057,13.398"
             style="fill:#f15a22;fill-opacity:1;fill-rule:nonzero;stroke:none"
             id="path40" /></g><g
           id="g42"
           transform="translate(355.6042,76.5206)"><path
             d="M 0,0 C 0,1.582 0.522,13.932 -11.117,13.932 -21.706,13.932 -22.228,1.53 -22.228,0 c 0,-7.713 1.766,-15.621 11.111,-15.621 C -2.139,-15.621 0,-7.539 0,0 m 11.127,-1.326 c 0,-11.582 -1.715,-26.435 -21.502,-26.435 -19.464,0 -22.668,14.853 -22.668,26.435 0,12.003 3.747,28.565 22.668,28.565 19.055,0 21.502,-16.562 21.502,-28.565 M -49.099,-27.761 V 8.327 H -60.65 v 7.857 l 13.68,11.055 h 10.447 v -55 z"
             style="fill:#faa61a;fill-opacity:1;fill-rule:nonzero;stroke:none"
             id="path44" /></g><g
           id="g46"
           transform="translate(440.4691,83.8561)"><path
             d="m 0,0 c -0.81,-1.218 -1.808,-2.312 -2.725,-3.458 -0.076,-0.095 -0.172,-0.237 -0.267,-0.244 -1.839,-0.141 -1.738,-1.773 -2.311,-2.916 -0.304,-0.607 -0.763,-1.181 -1.275,-1.63 -2.512,-2.205 -4.885,-4.636 -7.655,-6.457 -2.552,-1.676 -5.602,-1.528 -8.283,0.043 -3.202,1.877 -5.846,4.478 -8.209,7.315 -0.696,0.834 -0.949,2.037 -1.464,3.203 -3.611,1.05 -6.863,6.765 -4.174,11.686 1.053,-1.168 2.08,-2.309 3.38,-3.753 -0.103,1.363 -0.179,2.371 -0.28,3.702 0.433,-0.382 0.84,-0.742 1.238,-1.093 l -0.876,-1.402 12.819,-6.034 -0.251,1.724 -4.34,2.426 c 3.648,5.565 7.678,10.777 13.588,14.645 1.037,-5.03 -0.012,-9.692 -0.677,-14.405 l -4.769,-2.666 -0.251,-1.724 12.819,6.034 -0.281,0.45 c 0.794,0.502 1.486,0.94 2.375,1.502 C -2.41,5.685 -2.829,4.708 -3.247,3.732 -3.194,3.676 -3.14,3.619 -3.087,3.563 -1.939,4.336 -0.791,5.108 0.617,6.057 0.642,3.833 1.208,1.817 0,0 M -25.189,15.309 V 3.4 l -4.716,2.636 c 0.02,5.958 1.031,7.812 4.716,9.273 m 21.807,-0.998 c 0.145,-0.507 0.487,-1.05 0.402,-1.515 C -3.347,10.791 -3.833,8.809 -4.289,6.821 -4.353,6.542 -4.436,6.265 -4.541,5.921 l -0.679,1.086 -5,-2.794 c 2.542,3.1 4.812,6.411 6.838,10.098 M 18.738,1.932 C 15.433,2.81 12.128,3.688 8.56,4.635 c 7.337,4.115 14.423,8.09 21.508,12.064 -0.03,0.075 -0.061,0.15 -0.091,0.225 -4.905,0.296 -9.81,0.592 -14.991,0.905 3.034,2.734 5.849,5.269 8.847,7.97 -6.788,-0.52 -13.261,-1.016 -19.769,-1.514 -2.052,6.246 -6.588,9.628 -12.595,11.241 0.133,5.338 -0.815,10.317 -2.769,15.116 -1.372,3.372 -3.393,6.158 -6.827,7.664 -1.682,0.737 -3.377,1.477 -5.128,2.018 -2.714,0.838 -5.481,1.507 -8.419,2.3 2.39,-7.378 4.472,-14.567 3.39,-22.408 -0.544,0.313 -0.782,0.867 -1.183,1.252 -3.505,3.374 -7.364,6.239 -11.949,7.996 -2.272,0.871 -4.573,1.414 -7.051,0.785 -6.994,-1.775 -13.173,-5.242 -19.298,-9.068 0.179,-0.207 0.219,-0.285 0.283,-0.322 0.425,-0.246 0.853,-0.485 1.283,-0.722 6.021,-3.309 11.64,-7.164 16.297,-12.271 2.347,-2.575 4.323,-5.411 5.456,-8.822 -7.752,-1.39 -14.498,-4.979 -21.518,-8.864 7.93,-1.747 15.501,-3.405 22.574,-7.312 -3.185,-1.837 -6.169,-3.559 -9.383,-5.413 1.248,-0.129 2.209,-0.23 3.171,-0.328 4.597,-0.468 9.206,-0.849 13.784,-1.46 1.24,-0.165 2.476,-0.871 2.94,-2.355 0.2,-0.64 0.571,-1.301 1.047,-1.765 2.22,-2.167 4.459,-4.318 6.776,-6.38 2.965,-2.637 6.567,-3.134 10.114,-1.902 2.151,0.747 4.108,2.355 5.844,3.918 1.98,1.784 3.605,3.961 5.42,5.933 0.233,0.253 0.68,0.415 1.036,0.432 2.534,0.122 5.07,0.204 7.606,0.277 1.025,0.03 2.051,0.005 3.077,0.005 0.004,0.114 0.008,0.228 0.012,0.342 -1.729,0.846 -3.458,1.693 -5.435,2.661 5.565,1.664 10.849,3.244 16.134,4.823 -0.005,0.092 -0.01,0.184 -0.015,0.276"
             style="fill:#f15a22;fill-opacity:1;fill-rule:nonzero;stroke:none"
             id="path48" /></g></g></g></g></svg>
