<?xml version="1.0" encoding="UTF-8" standalone="no"?>
<!-- Created with Inkscape (http://www.inkscape.org/) -->

<svg
   version="1.1"
   id="svg1"
   width="666.66669"
   height="497.67868"
   viewBox="0 0 666.66669 497.67868"
   sodipodi:docname="Heaven Studio Logo (Flat).ai"
   xmlns:inkscape="http://www.inkscape.org/namespaces/inkscape"
   xmlns:sodipodi="http://sodipodi.sourceforge.net/DTD/sodipodi-0.dtd"
   xmlns="http://www.w3.org/2000/svg"
   xmlns:svg="http://www.w3.org/2000/svg">
  <defs
     id="defs1">
    <clipPath
       clipPathUnits="userSpaceOnUse"
       id="clipPath2">
      <path
         d="M 0,373.259 H 500 V 0 H 0 Z"
         transform="translate(-381.19461,-296.56911)"
         id="path2" />
    </clipPath>
    <clipPath
       clipPathUnits="userSpaceOnUse"
       id="clipPath4">
      <path
         d="M 0,373.259 H 500 V 0 H 0 Z"
         transform="translate(-251.83761,-246.2097)"
         id="path4" />
    </clipPath>
    <clipPath
       clipPathUnits="userSpaceOnUse"
       id="clipPath6">
      <path
         d="M 0,373.259 H 500 V 0 H 0 Z"
         transform="translate(-108.69411,-217.3884)"
         id="path6" />
    </clipPath>
    <clipPath
       clipPathUnits="userSpaceOnUse"
       id="clipPath8">
      <path
         d="M 0,373.259 H 500 V 0 H 0 Z"
         transform="translate(-352.66431,-373.25911)"
         id="path8" />
    </clipPath>
    <clipPath
       clipPathUnits="userSpaceOnUse"
       id="clipPath10">
      <path
         d="M 0,373.259 H 500 V 0 H 0 Z"
         transform="translate(-240.0256,-336.54961)"
         id="path10" />
    </clipPath>
    <clipPath
       clipPathUnits="userSpaceOnUse"
       id="clipPath12">
      <path
         d="M 0,373.259 H 500 V 0 H 0 Z"
         transform="translate(-125.90991,-321.51981)"
         id="path12" />
    </clipPath>
    <clipPath
       clipPathUnits="userSpaceOnUse"
       id="clipPath14">
      <path
         d="M 0,373.259 H 500 V 0 H 0 Z"
         transform="translate(-381.19461,-283.93001)"
         id="path14" />
    </clipPath>
    <clipPath
       clipPathUnits="userSpaceOnUse"
       id="clipPath16">
      <path
         d="M 0,373.259 H 500 V 0 H 0 Z"
         transform="translate(-251.83761,-233.57061)"
         id="path16" />
    </clipPath>
    <clipPath
       clipPathUnits="userSpaceOnUse"
       id="clipPath18">
      <path
         d="M 0,373.259 H 500 V 0 H 0 Z"
         transform="translate(-108.69411,-204.74981)"
         id="path18" />
    </clipPath>
    <clipPath
       clipPathUnits="userSpaceOnUse"
       id="clipPath20">
      <path
         d="M 0,373.259 H 500 V 0 H 0 Z"
         transform="translate(-352.66431,-360.61991)"
         id="path20" />
    </clipPath>
    <clipPath
       clipPathUnits="userSpaceOnUse"
       id="clipPath22">
      <path
         d="M 0,373.259 H 500 V 0 H 0 Z"
         transform="translate(-240.0256,-323.91041)"
         id="path22" />
    </clipPath>
    <clipPath
       clipPathUnits="userSpaceOnUse"
       id="clipPath24">
      <path
         d="M 0,373.259 H 500 V 0 H 0 Z"
         transform="translate(-125.90991,-308.88061)"
         id="path24" />
    </clipPath>
    <clipPath
       clipPathUnits="userSpaceOnUse"
       id="clipPath26">
      <path
         d="M 0,373.259 H 500 V 0 H 0 Z"
         transform="translate(-381.19461,-273.81911)"
         id="path26" />
    </clipPath>
    <clipPath
       clipPathUnits="userSpaceOnUse"
       id="clipPath28">
      <path
         d="M 0,373.259 H 500 V 0 H 0 Z"
         transform="translate(-251.83761,-223.45971)"
         id="path28" />
    </clipPath>
    <clipPath
       clipPathUnits="userSpaceOnUse"
       id="clipPath30">
      <path
         d="M 0,373.259 H 500 V 0 H 0 Z"
         transform="translate(-108.69411,-194.6384)"
         id="path30" />
    </clipPath>
    <clipPath
       clipPathUnits="userSpaceOnUse"
       id="clipPath32">
      <path
         d="M 0,373.259 H 500 V 0 H 0 Z"
         transform="translate(-352.66431,-350.50911)"
         id="path32" />
    </clipPath>
    <clipPath
       clipPathUnits="userSpaceOnUse"
       id="clipPath34">
      <path
         d="M 0,373.259 H 500 V 0 H 0 Z"
         transform="translate(-240.0256,-313.79911)"
         id="path34" />
    </clipPath>
    <clipPath
       clipPathUnits="userSpaceOnUse"
       id="clipPath36">
      <path
         d="M 0,373.259 H 500 V 0 H 0 Z"
         transform="translate(-125.90991,-298.76981)"
         id="path36" />
    </clipPath>
    <clipPath
       clipPathUnits="userSpaceOnUse"
       id="clipPath38">
      <path
         d="M 0,373.259 H 500 V 0 H 0 Z"
         transform="translate(-420.08331,-155.5647)"
         id="path38" />
    </clipPath>
    <clipPath
       clipPathUnits="userSpaceOnUse"
       id="clipPath40">
      <path
         d="M 0,373.259 H 500 V 0 H 0 Z"
         transform="translate(-365.18681,-187.6526)"
         id="path40" />
    </clipPath>
    <clipPath
       clipPathUnits="userSpaceOnUse"
       id="clipPath42">
      <path
         d="M 0,373.259 H 500 V 0 H 0 Z"
         transform="translate(-274.56621,-159.1863)"
         id="path42" />
    </clipPath>
    <clipPath
       clipPathUnits="userSpaceOnUse"
       id="clipPath44">
      <path
         d="M 0,373.259 H 500 V 0 H 0 Z"
         transform="translate(-221.71311,-176.99441)"
         id="path44" />
    </clipPath>
    <clipPath
       clipPathUnits="userSpaceOnUse"
       id="clipPath46">
      <path
         d="M 0,373.259 H 500 V 0 H 0 Z"
         transform="translate(-178.9153,-167.11451)"
         id="path46" />
    </clipPath>
    <clipPath
       clipPathUnits="userSpaceOnUse"
       id="clipPath48">
      <path
         d="M 0,373.259 H 500 V 0 H 0 Z"
         transform="translate(-109.5613,-118.62041)"
         id="path48" />
    </clipPath>
    <clipPath
       clipPathUnits="userSpaceOnUse"
       id="clipPath50">
      <path
         d="M 0,373.259 H 500 V 0 H 0 Z"
         transform="translate(-372.53051,-319.44851)"
         id="path50" />
    </clipPath>
    <clipPath
       clipPathUnits="userSpaceOnUse"
       id="clipPath52">
      <path
         d="M 0,373.259 H 500 V 0 H 0 Z"
         transform="translate(-308.66431,-233.82941)"
         id="path52" />
    </clipPath>
    <clipPath
       clipPathUnits="userSpaceOnUse"
       id="clipPath54">
      <path
         d="M 0,373.259 H 500 V 0 H 0 Z"
         transform="translate(-267.66871,-286.82891)"
         id="path54" />
    </clipPath>
    <clipPath
       clipPathUnits="userSpaceOnUse"
       id="clipPath56">
      <path
         d="M 0,373.259 H 500 V 0 H 0 Z"
         transform="translate(-217.9558,-214.6941)"
         id="path56" />
    </clipPath>
    <clipPath
       clipPathUnits="userSpaceOnUse"
       id="clipPath58">
      <path
         d="M 0,373.259 H 500 V 0 H 0 Z"
         transform="translate(-165.12771,-206.26151)"
         id="path58" />
    </clipPath>
    <clipPath
       clipPathUnits="userSpaceOnUse"
       id="clipPath60">
      <path
         d="M 0,373.259 H 500 V 0 H 0 Z"
         transform="translate(-119.1223,-268.14431)"
         id="path60" />
    </clipPath>
  </defs>
  <sodipodi:namedview
     id="namedview1"
     pagecolor="#ffffff"
     bordercolor="#000000"
     borderopacity="0.25"
     inkscape:showpageshadow="2"
     inkscape:pageopacity="0.0"
     inkscape:pagecheckerboard="0"
     inkscape:deskcolor="#d1d1d1">
    <inkscape:page
       x="0"
       y="0"
       inkscape:label="1"
       id="page1"
       width="666.66669"
       height="497.67868"
       margin="0"
       bleed="0" />
  </sodipodi:namedview>
  <g
     id="layer-MC0"
     inkscape:groupmode="layer"
     inkscape:label="Layer 1">
    <path
       id="path1"
       d="m 0,0 c -65.509,0 -118.805,-53.296 -118.805,-118.805 0,-65.51 53.296,-118.806 118.805,-118.806 65.509,0 118.806,53.296 118.806,118.806 C 118.806,-53.296 65.509,0 0,0"
       style="fill:#0096e6;fill-opacity:1;fill-rule:nonzero;stroke:none"
       transform="matrix(1.3333333,0,0,-1.3333333,508.25947,102.2532)"
       clip-path="url(#clipPath2)" />
    <path
       id="path3"
       d="m 0,0 c -59.934,0 -108.694,-48.76 -108.694,-108.694 0,-59.935 48.76,-108.695 108.694,-108.695 59.935,0 108.694,48.76 108.694,108.695 C 108.694,-48.76 59.935,0 0,0"
       style="fill:#0096e6;fill-opacity:1;fill-rule:nonzero;stroke:none"
       transform="matrix(1.3333333,0,0,-1.3333333,335.78347,169.39907)"
       clip-path="url(#clipPath4)" />
    <path
       id="path5"
       d="m 0,0 c -59.934,0 -108.694,-48.76 -108.694,-108.694 0,-59.934 48.76,-108.695 108.694,-108.695 59.935,0 108.694,48.761 108.694,108.695 C 108.694,-48.76 59.935,0 0,0"
       style="fill:#0096e6;fill-opacity:1;fill-rule:nonzero;stroke:none"
       transform="matrix(1.3333333,0,0,-1.3333333,144.92547,207.82747)"
       clip-path="url(#clipPath6)" />
    <path
       id="path7"
       d="m 0,0 c -57.146,0 -103.639,-46.493 -103.639,-103.639 0,-57.146 46.493,-103.639 103.639,-103.639 57.146,0 103.639,46.493 103.639,103.639 C 103.639,-46.493 57.146,0 0,0"
       style="fill:#0096e6;fill-opacity:1;fill-rule:nonzero;stroke:none"
       transform="matrix(1.3333333,0,0,-1.3333333,470.21907,-1.3333333e-4)"
       clip-path="url(#clipPath8)" />
    <path
       id="path9"
       d="m 0,0 c -57.146,0 -103.639,-46.493 -103.639,-103.639 0,-57.146 46.493,-103.639 103.639,-103.639 57.146,0 103.639,46.493 103.639,103.639 C 103.639,-46.493 57.146,0 0,0"
       style="fill:#0096e6;fill-opacity:1;fill-rule:nonzero;stroke:none"
       transform="matrix(1.3333333,0,0,-1.3333333,320.03413,48.945867)"
       clip-path="url(#clipPath10)" />
    <path
       id="path11"
       d="m 0,0 c -62.722,0 -113.75,-51.028 -113.75,-113.75 0,-62.722 51.028,-113.75 113.75,-113.75 62.722,0 113.75,51.028 113.75,113.75 C 113.75,-51.028 62.722,0 0,0"
       style="fill:#0096e6;fill-opacity:1;fill-rule:nonzero;stroke:none"
       transform="matrix(1.3333333,0,0,-1.3333333,167.87987,68.9856)"
       clip-path="url(#clipPath12)" />
    <path
       id="path13"
       d="m 0,0 c -58.54,0 -106.167,-47.626 -106.167,-106.166 0,-58.541 47.627,-106.167 106.167,-106.167 58.54,0 106.167,47.626 106.167,106.167 C 106.167,-47.626 58.54,0 0,0"
       style="fill:#ffffff;fill-opacity:1;fill-rule:nonzero;stroke:none"
       transform="matrix(1.3333333,0,0,-1.3333333,508.25947,119.10533)"
       clip-path="url(#clipPath14)" />
    <path
       id="path15"
       d="m 0,0 c -52.965,0 -96.055,-43.09 -96.055,-96.055 0,-52.965 43.09,-96.056 96.055,-96.056 52.965,0 96.056,43.091 96.056,96.056 C 96.056,-43.09 52.965,0 0,0"
       style="fill:#ffffff;fill-opacity:1;fill-rule:nonzero;stroke:none"
       transform="matrix(1.3333333,0,0,-1.3333333,335.78347,186.2512)"
       clip-path="url(#clipPath16)" />
    <path
       id="path17"
       d="m 0,0 c -52.965,0 -96.055,-43.09 -96.055,-96.056 0,-52.965 43.09,-96.055 96.055,-96.055 52.965,0 96.056,43.09 96.056,96.055 C 96.056,-43.09 52.965,0 0,0"
       style="fill:#ffffff;fill-opacity:1;fill-rule:nonzero;stroke:none"
       transform="matrix(1.3333333,0,0,-1.3333333,144.92547,224.67893)"
       clip-path="url(#clipPath18)" />
    <path
       id="path19"
       d="m 0,0 c -50.177,0 -91,-40.822 -91,-91 0,-50.177 40.823,-91 91,-91 50.177,0 91,40.823 91,91 C 91,-40.822 50.177,0 0,0"
       style="fill:#ffffff;fill-opacity:1;fill-rule:nonzero;stroke:none"
       transform="matrix(1.3333333,0,0,-1.3333333,470.21907,16.852133)"
       clip-path="url(#clipPath20)" />
    <path
       id="path21"
       d="m 0,0 c -50.178,0 -91,-40.822 -91,-91 0,-50.177 40.822,-91 91,-91 50.177,0 91,40.823 91,91 C 91,-40.822 50.177,0 0,0"
       style="fill:#ffffff;fill-opacity:1;fill-rule:nonzero;stroke:none"
       transform="matrix(1.3333333,0,0,-1.3333333,320.03413,65.798133)"
       clip-path="url(#clipPath22)" />
    <path
       id="path23"
       d="m 0,0 c -55.752,0 -101.111,-45.358 -101.111,-101.111 0,-55.752 45.359,-101.111 101.111,-101.111 55.753,0 101.111,45.359 101.111,101.111 C 101.111,-45.358 55.753,0 0,0"
       style="fill:#ffffff;fill-opacity:1;fill-rule:nonzero;stroke:none"
       transform="matrix(1.3333333,0,0,-1.3333333,167.87987,85.837867)"
       clip-path="url(#clipPath24)" />
    <path
       id="path25"
       d="m 0,0 c -53.05,0 -96.055,-43.005 -96.055,-96.055 0,-53.05 43.005,-96.056 96.055,-96.056 53.05,0 96.055,43.006 96.055,96.056 C 96.055,-43.005 53.05,0 0,0"
       style="fill:#000000;fill-opacity:1;fill-rule:nonzero;stroke:none"
       transform="matrix(1.3333333,0,0,-1.3333333,508.25947,132.58653)"
       clip-path="url(#clipPath26)" />
    <path
       id="path27"
       d="m 0,0 c -47.466,0 -85.944,-38.479 -85.944,-85.944 0,-47.466 38.478,-85.945 85.944,-85.945 47.466,0 85.944,38.479 85.944,85.945 C 85.944,-38.479 47.466,0 0,0"
       style="fill:#000000;fill-opacity:1;fill-rule:nonzero;stroke:none"
       transform="matrix(1.3333333,0,0,-1.3333333,335.78347,199.7324)"
       clip-path="url(#clipPath28)" />
    <path
       id="path29"
       d="m 0,0 c -47.465,0 -85.944,-38.479 -85.944,-85.944 0,-47.466 38.479,-85.944 85.944,-85.944 47.466,0 85.944,38.478 85.944,85.944 C 85.944,-38.479 47.466,0 0,0"
       style="fill:#000000;fill-opacity:1;fill-rule:nonzero;stroke:none"
       transform="matrix(1.3333333,0,0,-1.3333333,144.92547,238.1608)"
       clip-path="url(#clipPath30)" />
    <path
       id="path31"
       d="m 0,0 c -44.674,0 -80.889,-36.215 -80.889,-80.889 0,-44.674 36.215,-80.889 80.889,-80.889 44.673,0 80.889,36.215 80.889,80.889 C 80.889,-36.215 44.673,0 0,0"
       style="fill:#000000;fill-opacity:1;fill-rule:nonzero;stroke:none"
       transform="matrix(1.3333333,0,0,-1.3333333,470.21907,30.3332)"
       clip-path="url(#clipPath32)" />
    <path
       id="path33"
       d="m 0,0 c -44.674,0 -80.889,-36.215 -80.889,-80.889 0,-44.674 36.215,-80.888 80.889,-80.888 44.674,0 80.889,36.214 80.889,80.888 C 80.889,-36.215 44.674,0 0,0"
       style="fill:#000000;fill-opacity:1;fill-rule:nonzero;stroke:none"
       transform="matrix(1.3333333,0,0,-1.3333333,320.03413,79.279867)"
       clip-path="url(#clipPath34)" />
    <path
       id="path35"
       d="m 0,0 c -50.258,0 -91,-40.742 -91,-91 0,-50.257 40.742,-91 91,-91 50.258,0 91,40.743 91,91 C 91,-40.742 50.258,0 0,0"
       style="fill:#000000;fill-opacity:1;fill-rule:nonzero;stroke:none"
       transform="matrix(1.3333333,0,0,-1.3333333,167.87987,99.318933)"
       clip-path="url(#clipPath36)" />
    <path
       id="path37"
       d="M 0,0 V -0.002 0 l -24.745,-5.713 h -10e-4 V 39.049 L 0,44.762 Z m 0,67.227 -24.746,-5.712 -22.7,-27.707 v -44.762 l 22.7,-17.224 L 0,-22.465 22.701,5.241 v 44.762 z"
       style="fill:#c25cbd;fill-opacity:1;fill-rule:nonzero;stroke:none"
       transform="matrix(1.3333333,0,0,-1.3333333,560.11107,290.25907)"
       clip-path="url(#clipPath38)" />
    <path
       id="path39"
       d="M 0,0 V 22.465 L -46.895,11.639 v -22.465 l 12.097,2.792 v -44.761 l -12.097,-2.793 V -78.054 L 0,-67.227 v 22.465 l -12.097,-2.793 v 44.763 z"
       style="fill:#c25cbd;fill-opacity:1;fill-rule:nonzero;stroke:none"
       transform="matrix(1.3333333,0,0,-1.3333333,486.91573,247.4752)"
       clip-path="url(#clipPath40)" />
    <path
       id="path41"
       d="M 0,0 19.701,-11.259 0,-30.077 Z M 0,30.01 -22.701,24.77 V -64.923 L 0,-59.682 39.359,-19.017 V 7.519 Z"
       style="fill:#c25cbd;fill-opacity:1;fill-rule:nonzero;stroke:none"
       transform="matrix(1.3333333,0,0,-1.3333333,366.08827,285.43027)"
       clip-path="url(#clipPath42)" />
    <path
       id="path43"
       d="m 0,0 v -67.227 l -10.292,-2.376 V -2.376 L -32.994,-7.617 V -74.844 L -14.99,-93.153 0,-89.692 22.701,-66.69 V 5.241 Z"
       style="fill:#c25cbd;fill-opacity:1;fill-rule:nonzero;stroke:none"
       transform="matrix(1.3333333,0,0,-1.3333333,295.61747,261.68613)"
       clip-path="url(#clipPath44)" />
    <path
       id="path45"
       d="m 0,0 -51.643,-11.923 c -2.286,-0.527 -3.428,-3.557 -1.809,-4.796 l 16.28,-12.455 v -66.838 l 22.701,5.242 v 66.836 L 1.809,-3.961 C 3.428,-1.974 2.286,0.528 0,0"
       style="fill:#c25cbd;fill-opacity:1;fill-rule:nonzero;stroke:none"
       transform="matrix(1.3333333,0,0,-1.3333333,238.55373,274.85933)"
       clip-path="url(#clipPath46)" />
    <path
       id="path47"
       d="M 0,0 V 0.001 L -24.312,-5.612 V 4.404 l 43.165,9.966 c 2.286,0.527 3.428,3.557 1.808,4.796 L 2.5,33.06 -24.312,26.87 -46.777,3.68 V -15.261 L -24.312,-28.077 0,-22.465 v -10.017 l -43.164,-9.965 c -2.286,-0.528 -3.428,-3.558 -1.809,-4.797 L -26.812,-61.138 0,-54.947 v 0 l 22.466,23.19 v 18.941 z"
       style="fill:#c25cbd;fill-opacity:1;fill-rule:nonzero;stroke:none"
       transform="matrix(1.3333333,0,0,-1.3333333,146.08173,339.51813)"
       clip-path="url(#clipPath48)" />
    <path
       id="path49"
       d="m 0,0 c 0,0 -0.129,-33.818 -0.55,-39.768 -0.658,-9.292 -3.155,-9.541 -5.28,-8.147 -4.239,2.781 -12.16,18.62 -19.253,32.393 l -10.348,-2.39 v -85.58 l 12.653,2.921 0.043,21.715 c 0.022,11.147 3.065,11.872 7.488,7.823 3.355,-3.073 7.922,-9.848 15.118,-21.37 l 16.743,3.866 V 3.835 Z"
       style="fill:#ff5500;fill-opacity:1;fill-rule:nonzero;stroke:none"
       transform="matrix(1.3333333,0,0,-1.3333333,496.70733,71.747333)"
       clip-path="url(#clipPath50)" />
    <path
       id="path51"
       d="m 0,0 c -0.384,-0.002 -3.226,0.095 -3.53,2.263 -0.176,1.256 0.427,2.435 1.943,3.363 2.372,1.451 10.581,3.81 18.461,5.658 V 22.18 c 0,0 -14.268,-3.433 -18.655,-2.781 -1.333,0.198 -2.22,0.903 -2.397,2.134 -0.18,1.258 0.454,2.392 1.944,3.362 4.012,2.614 22.022,6.499 22.022,6.499 v 25.138 l -37.082,-8.561 v -67.016 l 37.859,8.74 V 3.621 C 10.461,1.326 3.631,0.02 0,0"
       style="fill:#ff5500;fill-opacity:1;fill-rule:nonzero;stroke:none"
       transform="matrix(1.3333333,0,0,-1.3333333,411.5524,185.90613)"
       clip-path="url(#clipPath52)" />
    <path
       id="path53"
       d="m 0,0 c 0,0 -4.017,-26.467 -7.584,-38.698 -1.019,-3.495 -3.483,-8.843 -6.833,-1.197 -1.201,2.739 -4.763,15.534 -7.378,32.028 l -11.569,-2.671 c 1.013,-11.341 6.567,-41.973 13.966,-59.819 l 22.437,5.18 c 8.258,21.856 13.213,44.94 14.898,69.318 z"
       style="fill:#ff5500;fill-opacity:1;fill-rule:nonzero;stroke:none"
       transform="matrix(1.3333333,0,0,-1.3333333,356.8916,115.24013)"
       clip-path="url(#clipPath54)" />
    <path
       id="path55"
       d="m 0,0 -7.93,-1.831 c -1.989,-0.459 -3.146,0.756 -2.904,3.593 0.227,2.655 1.389,8.283 1.832,10.184 0.978,4.203 2.899,5.955 5.16,6.27 2.897,0.405 5.427,-2.128 6.813,-8.993 C 3.105,8.559 3.443,7.181 3.664,5.309 3.931,3.036 2.815,0.65 0,0 m 9.889,37.939 c -5.616,10.346 -12.145,8.202 -15.491,7.095 -4.384,-1.451 -8.274,-3.702 -12.346,-19.852 -4.28,-16.975 -8.944,-52.676 -8.944,-52.676 l 11.746,2.712 1.214,6.802 c 0.583,3.266 2.661,5.34 5.829,6.272 3.047,0.897 9.103,2.363 12.21,2.716 1.313,0.149 2.855,-0.887 3.304,-2.942 l 1.587,-7.274 15.999,3.693 c 0,0 -7.959,40.283 -15.108,53.454"
       style="fill:#ff5500;fill-opacity:1;fill-rule:nonzero;stroke:none"
       transform="matrix(1.3333333,0,0,-1.3333333,290.60773,211.41987)"
       clip-path="url(#clipPath56)" />
    <path
       id="path57"
       d="m 0,0 c -0.384,-0.002 -3.226,0.095 -3.53,2.263 -0.176,1.256 0.426,2.435 1.943,3.362 2.372,1.451 10.581,3.811 18.461,5.659 v 10.895 c 0,0 -14.268,-3.433 -18.655,-2.78 -1.333,0.198 -2.22,0.902 -2.397,2.134 -0.18,1.258 0.454,2.392 1.944,3.362 4.012,2.613 22.022,6.499 22.022,6.499 V 58.491 L -17.294,49.93 v -67.016 l 37.859,8.74 V 3.621 C 10.461,1.326 3.631,0.02 0,0"
       style="fill:#ff5500;fill-opacity:1;fill-rule:nonzero;stroke:none"
       transform="matrix(1.3333333,0,0,-1.3333333,220.17027,222.66333)"
       clip-path="url(#clipPath58)" />
    <path
       id="path59"
       d="m 0,0 c 0,-13.373 0.067,-23.381 -1.765,-29.94 -1.112,-3.984 -3.562,-7.016 -6.833,-9.311 -3.332,-2.338 -6.672,-3.363 -9.943,-3.427 -3.988,-0.079 -6.904,2.091 -7.33,6.523 -0.612,6.367 -0.572,14.412 -0.572,25.561 l -14.477,-3.342 v -98.61 l 19.885,4.591 c 0,12.549 0.258,21.8 1.805,27.569 1.054,3.932 3.921,7.25 6.815,9.205 3.384,2.285 6.496,3.428 9.773,3.481 3.984,0.064 7.009,-1.992 7.385,-5.965 0.55,-5.819 0.586,-13.733 0.586,-24.533 l 14.735,3.402 V 4.632 Z"
       style="fill:#ff5500;fill-opacity:1;fill-rule:nonzero;stroke:none"
       transform="matrix(1.3333333,0,0,-1.3333333,158.82973,140.15293)"
       clip-path="url(#clipPath60)" />
  </g>
</svg>
