<?xml version="1.0" encoding="UTF-8" standalone="no"?>
<!-- Created with Inkscape (http://www.inkscape.org/) -->

<svg
   version="1.1"
   id="svg2"
   width="666.66669"
   height="497.67868"
   viewBox="0 0 666.66669 497.67868"
   sodipodi:docname="Heaven Studio Logo (Flat).ai"
   xmlns:inkscape="http://www.inkscape.org/namespaces/inkscape"
   xmlns:sodipodi="http://sodipodi.sourceforge.net/DTD/sodipodi-0.dtd"
   xmlns="http://www.w3.org/2000/svg"
   xmlns:svg="http://www.w3.org/2000/svg">
  <defs
     id="defs6">
    <clipPath
       clipPathUnits="userSpaceOnUse"
       id="clipPath16">
      <path
         d="M 0,373.259 H 500 V 0 H 0 Z"
         id="path14" />
    </clipPath>
  </defs>
  <sodipodi:namedview
     id="namedview4"
     pagecolor="#ffffff"
     bordercolor="#000000"
     borderopacity="0.25"
     inkscape:showpageshadow="2"
     inkscape:pageopacity="0.0"
     inkscape:pagecheckerboard="0"
     inkscape:deskcolor="#d1d1d1" />
  <g
     id="g8"
     inkscape:groupmode="layer"
     inkscape:label="Heaven Studio Logo (Flat)"
     transform="matrix(1.3333333,0,0,-1.3333333,0,497.67867)">
    <g
       id="g10">
      <g
         id="g12"
         clip-path="url(#clipPath16)">
        <g
           id="g18"
           transform="translate(381.1946,296.569)">
          <path
             d="m 0,0 c -65.509,0 -118.805,-53.296 -118.805,-118.805 0,-65.51 53.296,-118.806 118.805,-118.806 65.509,0 118.805,53.296 118.805,118.806 C 118.805,-53.296 65.509,0 0,0"
             style="fill:#0096e6;fill-opacity:1;fill-rule:nonzero;stroke:none"
             id="path20" />
        </g>
        <g
           id="g22"
           transform="translate(251.8378,246.2096)">
          <path
             d="m 0,0 c -59.934,0 -108.694,-48.76 -108.694,-108.694 0,-59.935 48.76,-108.695 108.694,-108.695 59.934,0 108.694,48.76 108.694,108.695 C 108.694,-48.76 59.934,0 0,0"
             style="fill:#0096e6;fill-opacity:1;fill-rule:nonzero;stroke:none"
             id="path24" />
        </g>
        <g
           id="g26"
           transform="translate(108.6943,217.3885)">
          <path
             d="m 0,0 c -59.934,0 -108.694,-48.76 -108.694,-108.694 0,-59.935 48.76,-108.695 108.694,-108.695 59.934,0 108.694,48.76 108.694,108.695 C 108.694,-48.76 59.934,0 0,0"
             style="fill:#0096e6;fill-opacity:1;fill-rule:nonzero;stroke:none"
             id="path28" />
        </g>
        <g
           id="g30"
           transform="translate(352.6644,373.2588)">
          <path
             d="m 0,0 c -57.146,0 -103.639,-46.492 -103.639,-103.639 0,-57.146 46.493,-103.638 103.639,-103.638 57.146,0 103.639,46.492 103.639,103.638 C 103.639,-46.492 57.146,0 0,0"
             style="fill:#0096e6;fill-opacity:1;fill-rule:nonzero;stroke:none"
             id="path32" />
        </g>
        <g
           id="g34"
           transform="translate(240.0254,336.5493)">
          <path
             d="m 0,0 c -57.146,0 -103.639,-46.492 -103.639,-103.639 0,-57.146 46.493,-103.638 103.639,-103.638 57.146,0 103.639,46.492 103.639,103.638 C 103.639,-46.492 57.146,0 0,0"
             style="fill:#0096e6;fill-opacity:1;fill-rule:nonzero;stroke:none"
             id="path36" />
        </g>
        <g
           id="g38"
           transform="translate(125.91,321.5197)">
          <path
             d="m 0,0 c -62.722,0 -113.75,-51.028 -113.75,-113.75 0,-62.722 51.028,-113.75 113.75,-113.75 62.722,0 113.75,51.028 113.75,113.75 C 113.75,-51.028 62.722,0 0,0"
             style="fill:#0096e6;fill-opacity:1;fill-rule:nonzero;stroke:none"
             id="path40" />
        </g>
        <g
           id="g42"
           transform="translate(381.1946,283.9302)">
          <path
             d="m 0,0 c -58.54,0 -106.166,-47.626 -106.166,-106.166 0,-58.541 47.626,-106.167 106.166,-106.167 58.54,0 106.167,47.626 106.167,106.167 C 106.167,-47.626 58.54,0 0,0"
             style="fill:#ffffff;fill-opacity:1;fill-rule:nonzero;stroke:none"
             id="path44" />
        </g>
        <g
           id="g46"
           transform="translate(251.8378,233.5707)">
          <path
             d="m 0,0 c -52.965,0 -96.055,-43.09 -96.055,-96.055 0,-52.966 43.09,-96.056 96.055,-96.056 52.965,0 96.055,43.09 96.055,96.056 C 96.055,-43.09 52.965,0 0,0"
             style="fill:#ffffff;fill-opacity:1;fill-rule:nonzero;stroke:none"
             id="path48" />
        </g>
        <g
           id="g50"
           transform="translate(108.6943,204.7496)">
          <path
             d="m 0,0 c -52.965,0 -96.055,-43.09 -96.055,-96.055 0,-52.966 43.09,-96.056 96.055,-96.056 52.965,0 96.055,43.09 96.055,96.056 C 96.055,-43.09 52.965,0 0,0"
             style="fill:#ffffff;fill-opacity:1;fill-rule:nonzero;stroke:none"
             id="path52" />
        </g>
        <g
           id="g54"
           transform="translate(352.6644,360.62)">
          <path
             d="m 0,0 c -50.177,0 -91,-40.823 -91,-91 0,-50.177 40.823,-91 91,-91 50.177,0 91,40.823 91,91 C 91,-40.823 50.177,0 0,0"
             style="fill:#ffffff;fill-opacity:1;fill-rule:nonzero;stroke:none"
             id="path56" />
        </g>
        <g
           id="g58"
           transform="translate(240.0254,323.9105)">
          <path
             d="m 0,0 c -50.177,0 -91,-40.823 -91,-91 0,-50.177 40.823,-91 91,-91 50.177,0 91,40.823 91,91 C 91,-40.823 50.177,0 0,0"
             style="fill:#ffffff;fill-opacity:1;fill-rule:nonzero;stroke:none"
             id="path60" />
        </g>
        <g
           id="g62"
           transform="translate(125.91,308.8808)">
          <path
             d="m 0,0 c -55.753,0 -101.111,-45.358 -101.111,-101.111 0,-55.753 45.358,-101.111 101.111,-101.111 55.753,0 101.111,45.358 101.111,101.111 C 101.111,-45.358 55.753,0 0,0"
             style="fill:#ffffff;fill-opacity:1;fill-rule:nonzero;stroke:none"
             id="path64" />
        </g>
        <g
           id="g66"
           transform="translate(381.1946,273.8192)">
          <path
             d="m 0,0 c -53.05,0 -96.055,-43.005 -96.055,-96.055 0,-53.05 43.005,-96.056 96.055,-96.056 53.05,0 96.055,43.006 96.055,96.056 C 96.055,-43.005 53.05,0 0,0"
             style="fill:#000000;fill-opacity:1;fill-rule:nonzero;stroke:none"
             id="path68" />
        </g>
        <g
           id="g70"
           transform="translate(251.8376,223.4595)">
          <path
             d="m 0,0 c -47.466,0 -85.944,-38.479 -85.944,-85.944 0,-47.466 38.478,-85.945 85.944,-85.945 47.466,0 85.944,38.479 85.944,85.945 C 85.944,-38.479 47.466,0 0,0"
             style="fill:#000000;fill-opacity:1;fill-rule:nonzero;stroke:none"
             id="path72" />
        </g>
        <g
           id="g74"
           transform="translate(108.6943,194.6386)">
          <path
             d="m 0,0 c -47.466,0 -85.944,-38.479 -85.944,-85.944 0,-47.466 38.478,-85.945 85.944,-85.945 47.466,0 85.944,38.479 85.944,85.945 C 85.944,-38.479 47.466,0 0,0"
             style="fill:#000000;fill-opacity:1;fill-rule:nonzero;stroke:none"
             id="path76" />
        </g>
        <g
           id="g78"
           transform="translate(352.6642,350.5089)">
          <path
             d="m 0,0 c -44.674,0 -80.889,-36.215 -80.889,-80.889 0,-44.673 36.215,-80.888 80.889,-80.888 44.674,0 80.889,36.215 80.889,80.888 C 80.889,-36.215 44.674,0 0,0"
             style="fill:#000000;fill-opacity:1;fill-rule:nonzero;stroke:none"
             id="path80" />
        </g>
        <g
           id="g82"
           transform="translate(240.0256,313.7992)">
          <path
             d="m 0,0 c -44.674,0 -80.889,-36.215 -80.889,-80.889 0,-44.673 36.215,-80.889 80.889,-80.889 44.674,0 80.889,36.216 80.889,80.889 C 80.889,-36.215 44.674,0 0,0"
             style="fill:#000000;fill-opacity:1;fill-rule:nonzero;stroke:none"
             id="path84" />
        </g>
        <g
           id="g86"
           transform="translate(125.9098,298.7699)">
          <path
             d="m 0,0 c -50.258,0 -91,-40.742 -91,-91 0,-50.258 40.742,-91 91,-91 50.258,0 91,40.742 91,91 C 91,-40.742 50.258,0 0,0"
             style="fill:#000000;fill-opacity:1;fill-rule:nonzero;stroke:none"
             id="path88" />
        </g>
        <g
           id="g90"
           transform="translate(420.0833,155.5648)">
          <path
             d="M 0,0 -0.001,-0.002 V 0 l -24.744,-5.713 v 0 44.762 L -0.001,44.762 -0.001,0 Z M -0.001,67.227 -24.745,61.514 -47.446,33.808 v -44.762 l 22.701,-17.224 24.744,5.712 22.702,27.707 v 44.762 z"
             style="fill:#c25cbd;fill-opacity:1;fill-rule:nonzero;stroke:none"
             id="path92" />
        </g>
        <g
           id="g94"
           transform="translate(365.1865,187.6527)">
          <path
             d="M 0,0 V 22.465 L -46.895,11.639 v -22.466 l 12.097,2.793 v -44.762 l -12.097,-2.792 V -78.054 L 0,-67.227 v 22.465 l -12.097,-2.793 v 44.762 z"
             style="fill:#c25cbd;fill-opacity:1;fill-rule:nonzero;stroke:none"
             id="path96" />
        </g>
        <g
           id="g98"
           transform="translate(274.5661,159.1862)">
          <path
             d="M 0,0 19.701,-11.258 0,-30.077 Z M 0,30.011 -22.701,24.77 V -64.923 L 0,-59.682 39.359,-19.017 V 7.519 Z"
             style="fill:#c25cbd;fill-opacity:1;fill-rule:nonzero;stroke:none"
             id="path100" />
        </g>
        <g
           id="g102"
           transform="translate(221.713,176.9946)">
          <path
             d="m 0,0 v -67.227 l -10.292,-2.376 V -2.376 L -32.994,-7.617 V -74.844 L -14.989,-93.153 0,-89.693 22.701,-66.69 V 5.241 Z"
             style="fill:#c25cbd;fill-opacity:1;fill-rule:nonzero;stroke:none"
             id="path104" />
        </g>
        <g
           id="g106"
           transform="translate(178.9155,167.1147)">
          <path
             d="m 0,0 -51.643,-11.923 c -2.286,-0.528 -3.428,-3.557 -1.809,-4.796 l 16.28,-12.456 v -66.837 l 22.701,5.241 v 66.837 L 1.809,-3.961 C 3.428,-1.974 2.286,0.528 0,0"
             style="fill:#c25cbd;fill-opacity:1;fill-rule:nonzero;stroke:none"
             id="path108" />
        </g>
        <g
           id="g110"
           transform="translate(109.5613,118.6205)">
          <path
             d="M 0,0 V 0.001 L -24.311,-5.612 V 4.404 l 43.164,9.966 c 2.285,0.527 3.428,3.557 1.808,4.796 L 2.501,33.06 -24.311,26.87 -46.777,3.68 V -15.261 L -24.311,-28.077 0,-22.465 v -10.017 l -43.164,-9.965 c -2.286,-0.528 -3.428,-3.558 -1.809,-4.797 L -26.812,-61.138 0,-54.948 v 10e-4 l 22.466,23.19 v 18.941 z"
             style="fill:#c25cbd;fill-opacity:1;fill-rule:nonzero;stroke:none"
             id="path112" />
        </g>
        <g
           id="g114"
           transform="translate(372.5305,319.4484)">
          <path
             d="m 0,0 c 0,0 -0.13,-33.818 -0.551,-39.767 -0.421,-5.949 -1.457,-8.374 -3.076,-8.665 -0.778,-0.097 -1.554,0.091 -2.203,0.517 -4.239,2.781 -12.16,18.619 -19.253,32.392 l -10.348,-2.388 v -85.581 l 12.53,2.892 0.166,21.744 c 0,4.527 0.485,7.533 1.522,8.956 0.356,0.485 0.938,0.815 1.49,0.905 3.648,0.594 10.817,-8.665 19.593,-23.408 l 16.744,3.866 V 3.836 Z"
             style="fill:#ff5500;fill-opacity:1;fill-rule:nonzero;stroke:none"
             id="path116" />
        </g>
        <g
           id="g118"
           transform="translate(308.6644,233.8275)">
          <path
             d="m 0,0 c -0.384,-0.002 -3.226,0.095 -3.53,2.263 -0.176,1.256 0.453,2.393 1.943,3.363 1.295,0.776 3.271,1.584 5.927,2.36 l 12.533,3.298 v 10.895 c 0,0 -14.267,-3.433 -18.654,-2.78 -1.333,0.198 -2.203,0.905 -2.397,2.134 -0.162,1.26 0.454,2.392 1.943,3.362 4.013,2.614 22.023,6.499 22.023,6.499 v 25.14 l -37.082,-8.561 v -67.017 l 37.859,8.741 V 3.621 C 10.461,1.326 3.631,0.02 0,0"
             style="fill:#ff5500;fill-opacity:1;fill-rule:nonzero;stroke:none"
             id="path120" />
        </g>
        <g
           id="g122"
           transform="translate(267.6688,286.8287)">
          <path
             d="m 0,0 c 0,0 -4.017,-26.467 -7.584,-38.698 -1.019,-3.495 -3.483,-8.842 -6.834,-1.196 -1.2,2.738 -4.762,15.533 -7.377,32.028 l -11.569,-2.671 c 1.013,-11.342 6.566,-41.974 13.966,-59.82 l 22.437,5.18 c 8.258,21.856 13.213,44.94 14.897,69.318 z"
             style="fill:#ff5500;fill-opacity:1;fill-rule:nonzero;stroke:none"
             id="path124" />
        </g>
        <g
           id="g126"
           transform="translate(217.9557,214.6527)">
          <path
             d="m 0,0 c -1.787,-0.389 -5.853,-1.419 -7.93,-1.808 -1.988,-0.389 -3.15,0.732 -2.904,3.57 0.223,2.655 1.389,8.283 1.832,10.184 0.978,4.203 2.899,5.955 5.16,6.27 C -0.945,18.62 1.586,16.088 2.971,9.223 3.105,8.559 3.443,7.181 3.663,5.309 3.931,3.036 2.815,0.709 0,0 m 9.888,37.94 c -5.615,10.345 -12.144,8.201 -15.49,7.094 -4.384,-1.451 -8.274,-3.702 -12.346,-19.852 -4.28,-16.975 -8.938,-52.635 -8.938,-52.635 l 11.747,2.712 1.207,6.761 c 0.583,3.266 2.661,5.34 5.83,6.272 0,0 9.102,2.363 12.209,2.716 1.313,0.15 2.855,-0.887 3.304,-2.942 l 1.587,-7.274 15.999,3.693 c 0,0 -7.959,40.283 -15.109,53.455"
             style="fill:#ff5500;fill-opacity:1;fill-rule:nonzero;stroke:none"
             id="path128" />
        </g>
        <g
           id="g130"
           transform="translate(165.1277,206.2396)">
          <path
             d="m 0,0 c -0.384,-0.002 -3.226,0.095 -3.53,2.263 -0.176,1.256 0.453,2.393 1.943,3.363 1.295,0.776 3.271,1.584 5.927,2.36 l 12.533,3.298 v 10.895 c 0,0 -14.267,-3.433 -18.654,-2.78 -1.333,0.198 -2.203,0.905 -2.397,2.134 -0.162,1.26 0.454,2.392 1.943,3.362 4.013,2.614 22.023,6.499 22.023,6.499 V 58.52 L -17.294,49.958 V -17.071 L 20.565,-8.33 V 3.621 C 10.461,1.326 3.631,0.02 0,0"
             style="fill:#ff5500;fill-opacity:1;fill-rule:nonzero;stroke:none"
             id="path132" />
        </g>
        <g
           id="g134"
           transform="translate(118.977,268.1108)">
          <path
             d="m 0,0 c 0.356,-13.353 0.213,-23.348 -1.619,-29.906 -1.113,-3.984 -3.563,-7.016 -6.834,-9.312 -3.332,-2.338 -6.671,-3.362 -9.942,-3.427 -3.989,-0.079 -6.872,1.474 -7.255,5.658 -0.583,6.369 -0.842,15.273 -0.648,26.427 l -14.477,-3.342 v -98.61 l 19.886,4.59 c -0.356,12.577 0.072,21.906 1.619,27.676 1.054,3.932 3.939,7.259 6.834,9.214 3.383,2.285 6.665,3.471 9.942,3.524 3.984,0.065 6.879,-1.782 7.255,-5.755 0.55,-5.819 0.809,-14.215 0.648,-24.917 l 14.8,3.417 V 4.666 Z"
             style="fill:#ff5500;fill-opacity:1;fill-rule:nonzero;stroke:none"
             id="path136" />
        </g>
      </g>
    </g>
  </g>
</svg>
