<?xml version="1.0" encoding="UTF-8" standalone="no"?>
<!-- Created with Inkscape (http://www.inkscape.org/) -->

<svg
   version="1.1"
   id="svg2"
   width="666.66669"
   height="503.01199"
   viewBox="0 0 666.66669 503.01199"
   sodipodi:docname="Heaven Studio Logo (Print).ai"
   xmlns:inkscape="http://www.inkscape.org/namespaces/inkscape"
   xmlns:sodipodi="http://sodipodi.sourceforge.net/DTD/sodipodi-0.dtd"
   xmlns="http://www.w3.org/2000/svg"
   xmlns:svg="http://www.w3.org/2000/svg">
  <defs
     id="defs6">
    <clipPath
       clipPathUnits="userSpaceOnUse"
       id="clipPath16">
      <path
         d="M 0,377.259 H 500 V 0 H 0 Z"
         id="path14" />
    </clipPath>
  </defs>
  <sodipodi:namedview
     id="namedview4"
     pagecolor="#ffffff"
     bordercolor="#000000"
     borderopacity="0.25"
     inkscape:showpageshadow="2"
     inkscape:pageopacity="0.0"
     inkscape:pagecheckerboard="0"
     inkscape:deskcolor="#d1d1d1" />
  <g
     id="g8"
     inkscape:groupmode="layer"
     inkscape:label="Heaven Studio Logo (Print)"
     transform="matrix(1.3333333,0,0,-1.3333333,0,503.012)">
    <g
       id="g10">
      <g
         id="g12"
         clip-path="url(#clipPath16)">
        <g
           id="g18"
           transform="translate(381.1946,300.569)">
          <path
             d="m 0,0 c -65.509,0 -118.805,-53.296 -118.805,-118.805 0,-65.51 53.296,-118.806 118.805,-118.806 65.509,0 118.805,53.296 118.805,118.806 C 118.805,-53.296 65.509,0 0,0"
             style="fill:#000000;fill-opacity:1;fill-rule:nonzero;stroke:none"
             id="path20" />
        </g>
        <g
           id="g22"
           transform="translate(251.8378,250.2096)">
          <path
             d="m 0,0 c -59.934,0 -108.694,-48.76 -108.694,-108.694 0,-59.935 48.76,-108.695 108.694,-108.695 59.934,0 108.694,48.76 108.694,108.695 C 108.694,-48.76 59.934,0 0,0"
             style="fill:#000000;fill-opacity:1;fill-rule:nonzero;stroke:none"
             id="path24" />
        </g>
        <g
           id="g26"
           transform="translate(108.6943,217.3885)">
          <path
             d="m 0,0 c -59.934,0 -108.694,-48.76 -108.694,-108.694 0,-59.935 48.76,-108.695 108.694,-108.695 59.934,0 108.694,48.76 108.694,108.695 C 108.694,-48.76 59.934,0 0,0"
             style="fill:#000000;fill-opacity:1;fill-rule:nonzero;stroke:none"
             id="path28" />
        </g>
        <g
           id="g30"
           transform="translate(352.6644,377.2588)">
          <path
             d="m 0,0 c -57.146,0 -103.639,-46.492 -103.639,-103.639 0,-57.146 46.493,-103.638 103.639,-103.638 57.146,0 103.639,46.492 103.639,103.638 C 103.639,-46.492 57.146,0 0,0"
             style="fill:#000000;fill-opacity:1;fill-rule:nonzero;stroke:none"
             id="path32" />
        </g>
        <g
           id="g34"
           transform="translate(240.0254,340.5493)">
          <path
             d="m 0,0 c -57.146,0 -103.639,-46.492 -103.639,-103.639 0,-57.146 46.493,-103.638 103.639,-103.638 57.146,0 103.639,46.492 103.639,103.638 C 103.639,-46.492 57.146,0 0,0"
             style="fill:#000000;fill-opacity:1;fill-rule:nonzero;stroke:none"
             id="path36" />
        </g>
        <g
           id="g38"
           transform="translate(120.91,330.5197)">
          <path
             d="m 0,0 c -62.722,0 -113.75,-51.028 -113.75,-113.75 0,-62.722 51.028,-113.75 113.75,-113.75 62.722,0 113.75,51.028 113.75,113.75 C 113.75,-51.028 62.722,0 0,0"
             style="fill:#000000;fill-opacity:1;fill-rule:nonzero;stroke:none"
             id="path40" />
        </g>
        <g
           id="g42"
           transform="translate(381.1946,287.9302)">
          <path
             d="m 0,0 c -58.54,0 -106.166,-47.626 -106.166,-106.166 0,-58.541 47.626,-106.167 106.166,-106.167 58.54,0 106.167,47.626 106.167,106.167 C 106.167,-47.626 58.54,0 0,0"
             style="fill:#ffffff;fill-opacity:1;fill-rule:nonzero;stroke:none"
             id="path44" />
        </g>
        <g
           id="g46"
           transform="translate(251.8378,237.5707)">
          <path
             d="m 0,0 c -52.965,0 -96.055,-43.09 -96.055,-96.055 0,-52.966 43.09,-96.056 96.055,-96.056 52.965,0 96.055,43.09 96.055,96.056 C 96.055,-43.09 52.965,0 0,0"
             style="fill:#ffffff;fill-opacity:1;fill-rule:nonzero;stroke:none"
             id="path48" />
        </g>
        <g
           id="g50"
           transform="translate(108.6943,204.7496)">
          <path
             d="m 0,0 c -52.965,0 -96.055,-43.09 -96.055,-96.055 0,-52.966 43.09,-96.056 96.055,-96.056 52.965,0 96.055,43.09 96.055,96.056 C 96.055,-43.09 52.965,0 0,0"
             style="fill:#ffffff;fill-opacity:1;fill-rule:nonzero;stroke:none"
             id="path52" />
        </g>
        <g
           id="g54"
           transform="translate(352.6644,364.62)">
          <path
             d="m 0,0 c -50.177,0 -91,-40.823 -91,-91 0,-50.177 40.823,-91 91,-91 50.177,0 91,40.823 91,91 C 91,-40.823 50.177,0 0,0"
             style="fill:#ffffff;fill-opacity:1;fill-rule:nonzero;stroke:none"
             id="path56" />
        </g>
        <g
           id="g58"
           transform="translate(240.0254,327.9105)">
          <path
             d="m 0,0 c -50.177,0 -91,-40.823 -91,-91 0,-50.177 40.823,-91 91,-91 50.177,0 91,40.823 91,91 C 91,-40.823 50.177,0 0,0"
             style="fill:#ffffff;fill-opacity:1;fill-rule:nonzero;stroke:none"
             id="path60" />
        </g>
        <g
           id="g62"
           transform="translate(120.91,317.8808)">
          <path
             d="m 0,0 c -55.753,0 -101.111,-45.358 -101.111,-101.111 0,-55.753 45.358,-101.111 101.111,-101.111 55.753,0 101.111,45.358 101.111,101.111 C 101.111,-45.358 55.753,0 0,0"
             style="fill:#ffffff;fill-opacity:1;fill-rule:nonzero;stroke:none"
             id="path64" />
        </g>
        <g
           id="g66"
           transform="translate(381.1946,277.8192)">
          <path
             d="m 0,0 c -53.05,0 -96.055,-43.005 -96.055,-96.055 0,-53.05 43.005,-96.056 96.055,-96.056 53.05,0 96.055,43.006 96.055,96.056 C 96.055,-43.005 53.05,0 0,0"
             style="fill:#000000;fill-opacity:1;fill-rule:nonzero;stroke:none"
             id="path68" />
        </g>
        <g
           id="g70"
           transform="translate(251.8376,227.4595)">
          <path
             d="m 0,0 c -47.466,0 -85.944,-38.479 -85.944,-85.944 0,-47.466 38.478,-85.945 85.944,-85.945 47.466,0 85.944,38.479 85.944,85.945 C 85.944,-38.479 47.466,0 0,0"
             style="fill:#000000;fill-opacity:1;fill-rule:nonzero;stroke:none"
             id="path72" />
        </g>
        <g
           id="g74"
           transform="translate(108.6943,194.6386)">
          <path
             d="m 0,0 c -47.466,0 -85.944,-38.479 -85.944,-85.944 0,-47.466 38.478,-85.945 85.944,-85.945 47.466,0 85.944,38.479 85.944,85.945 C 85.944,-38.479 47.466,0 0,0"
             style="fill:#000000;fill-opacity:1;fill-rule:nonzero;stroke:none"
             id="path76" />
        </g>
        <g
           id="g78"
           transform="translate(352.6642,354.5089)">
          <path
             d="m 0,0 c -44.674,0 -80.889,-36.215 -80.889,-80.889 0,-44.673 36.215,-80.888 80.889,-80.888 44.674,0 80.889,36.215 80.889,80.888 C 80.889,-36.215 44.674,0 0,0"
             style="fill:#000000;fill-opacity:1;fill-rule:nonzero;stroke:none"
             id="path80" />
        </g>
        <g
           id="g82"
           transform="translate(240.0256,317.7992)">
          <path
             d="m 0,0 c -44.674,0 -80.889,-36.215 -80.889,-80.889 0,-44.673 36.215,-80.889 80.889,-80.889 44.674,0 80.889,36.216 80.889,80.889 C 80.889,-36.215 44.674,0 0,0"
             style="fill:#000000;fill-opacity:1;fill-rule:nonzero;stroke:none"
             id="path84" />
        </g>
        <g
           id="g86"
           transform="translate(120.9098,307.7699)">
          <path
             d="m 0,0 c -50.258,0 -91,-40.742 -91,-91 0,-50.258 40.742,-91 91,-91 50.258,0 91,40.742 91,91 C 91,-40.742 50.258,0 0,0"
             style="fill:#000000;fill-opacity:1;fill-rule:nonzero;stroke:none"
             id="path88" />
        </g>
        <g
           id="g90"
           transform="translate(420.0826,204.3265)">
          <path
             d="M 0,0 -3.844,10.345 0,22.465 22.701,5.241 11.351,-1.224 Z"
             style="fill:#ffffff;fill-opacity:1;fill-rule:nonzero;stroke:none"
             id="path92" />
        </g>
        <g
           id="g94"
           transform="translate(372.6372,193.3729)">
          <path
             d="M 0,0 22.701,27.706 26.545,17.361 22.701,5.241 11.35,-1.224 Z"
             style="fill:#ffffff;fill-opacity:1;fill-rule:nonzero;stroke:none"
             id="path96" />
        </g>
        <g
           id="g98"
           transform="translate(395.3384,153.852)">
          <path
             d="m 0,0 3.851,-10.344 -3.852,-12.122 -22.7,17.225 11.35,6.465 z"
             style="fill:#ffffff;fill-opacity:1;fill-rule:nonzero;stroke:none"
             id="path100" />
        </g>
        <g
           id="g102"
           transform="translate(442.7839,164.8057)">
          <path
             d="m 0,0 -22.701,-27.706 -3.838,10.346 3.838,12.119 11.35,6.465 z"
             style="fill:#ffffff;fill-opacity:1;fill-rule:nonzero;stroke:none"
             id="path104" />
        </g>
        <g
           id="g106"
           transform="translate(420.0826,137.0993)">
          <path
             d="M 0,0 -24.745,-5.713 V 16.753 L 0,22.465 Z"
             style="fill:#ffffff;fill-opacity:1;fill-rule:nonzero;stroke:none"
             id="path108" />
        </g>
        <g
           id="g110"
           transform="translate(420.0826,204.3265)">
          <path
             d="M 0,0 -24.745,-5.713 V 16.753 L 0,22.465 Z"
             style="fill:#ffffff;fill-opacity:1;fill-rule:nonzero;stroke:none"
             id="path112" />
        </g>
        <g
           id="g114"
           transform="translate(395.3378,153.8519)">
          <path
             d="M 0,0 -22.701,-5.241 V 39.521 L 0,44.762 Z"
             style="fill:#ffffff;fill-opacity:1;fill-rule:nonzero;stroke:none"
             id="path116" />
        </g>
        <g
           id="g118"
           transform="translate(442.7839,164.8057)">
          <path
             d="M 0,0 -22.701,-5.241 V 39.521 L 0,44.762 Z"
             style="fill:#ffffff;fill-opacity:1;fill-rule:nonzero;stroke:none"
             id="path120" />
        </g>
        <g
           id="g122"
           transform="translate(353.0897,123.0189)">
          <path
             d="m 0,0 -22.701,-5.241 v 86.92 L 0,86.92 Z"
             style="fill:#ffffff;fill-opacity:1;fill-rule:nonzero;stroke:none"
             id="path124" />
        </g>
        <g
           id="g126"
           transform="translate(365.1865,191.6527)">
          <path
             d="M 0,0 -46.895,-10.827 V 11.639 L 0,22.465 Z"
             style="fill:#ffffff;fill-opacity:1;fill-rule:nonzero;stroke:none"
             id="path128" />
        </g>
        <g
           id="g130"
           transform="translate(365.1865,124.4255)">
          <path
             d="M 0,0 -46.895,-10.827 V 11.639 L 0,22.465 Z"
             style="fill:#ffffff;fill-opacity:1;fill-rule:nonzero;stroke:none"
             id="path132" />
        </g>
        <g
           id="g134"
           transform="translate(295.9274,180.9902)">
          <path
             d="M 0,0 17.998,-10.285 -1.689,-32.934 Z"
             style="fill:#ffffff;fill-opacity:1;fill-rule:nonzero;stroke:none"
             id="path136" />
        </g>
        <g
           id="g138"
           transform="translate(300.2576,148.5042)">
          <path
             d="m 0,0 -32.099,18.343 6.407,26.35 L 0,30.012 Z"
             style="fill:#ffffff;fill-opacity:1;fill-rule:nonzero;stroke:none"
             id="path140" />
        </g>
        <g
           id="g142"
           transform="translate(269.3577,128.1347)">
          <path
             d="M 0,0 44.568,42.571 V 16.035 L 5.208,-24.63 Z"
             style="fill:#ffffff;fill-opacity:1;fill-rule:nonzero;stroke:none"
             id="path144" />
        </g>
        <g
           id="g146"
           transform="translate(274.5661,103.5042)">
          <path
             d="M 0,0 -22.701,-5.241 V 84.452 L 0,89.693 Z"
             style="fill:#ffffff;fill-opacity:1;fill-rule:nonzero;stroke:none"
             id="path148" />
        </g>
        <g
           id="g150"
           transform="translate(211.4207,103.7026)">
          <path
             d="M 0,0 -22.701,2.448 V 69.675 L 0,74.916 Z"
             style="fill:#ffffff;fill-opacity:1;fill-rule:nonzero;stroke:none"
             id="path152" />
        </g>
        <g
           id="g154"
           transform="translate(221.7129,91.302)">
          <path
             d="M 0,0 -14.989,-3.461 -32.994,14.848 6.407,23.945 Z"
             style="fill:#ffffff;fill-opacity:1;fill-rule:nonzero;stroke:none"
             id="path156" />
        </g>
        <g
           id="g158"
           transform="translate(221.7129,180.9946)">
          <path
             d="M 0,0 22.701,5.241 V -66.69 L 0,-89.693 Z"
             style="fill:#ffffff;fill-opacity:1;fill-rule:nonzero;stroke:none"
             id="path160" />
        </g>
        <g
           id="g162"
           transform="translate(162.5641,144.8743)">
          <path
             d="m 0,0 -18.941,-4.373 -18.16,13.894 c -1.619,1.239 -0.477,4.269 1.809,4.797 L 16.351,26.24 c 2.286,0.528 3.428,-1.974 1.809,-3.961 z"
             style="fill:#ffffff;fill-opacity:1;fill-rule:nonzero;stroke:none"
             id="path164" />
        </g>
        <g
           id="g166"
           transform="translate(164.4444,80.3438)">
          <path
             d="m 0,0 -22.701,-5.241 v 87.43 L 0,87.43 Z"
             style="fill:#ffffff;fill-opacity:1;fill-rule:nonzero;stroke:none"
             id="path168" />
        </g>
        <g
           id="g170"
           transform="translate(115.9683,101.635)">
          <path
             d="m 0,0 -30.718,-7.092 -6.408,20.986 30.719,7.092 z"
             style="fill:#ffffff;fill-opacity:1;fill-rule:nonzero;stroke:none"
             id="path172" />
        </g>
        <g
           id="g174"
           transform="translate(128.414,136.99)">
          <path
             d="M 0,0 -49.571,-11.444 -43.164,12.5 -16.352,18.69 1.809,4.796 C 3.428,3.557 2.286,0.528 0,0"
             style="fill:#ffffff;fill-opacity:1;fill-rule:nonzero;stroke:none"
             id="path176" />
        </g>
        <g
           id="g178"
           transform="translate(66.397,80.173)">
          <path
             d="M 0,0 43.164,9.965 V -12.5 L 16.352,-18.69 -1.809,-4.796 C -3.428,-3.557 -2.286,-0.528 0,0"
             style="fill:#ffffff;fill-opacity:1;fill-rule:nonzero;stroke:none"
             id="path180" />
        </g>
        <g
           id="g182"
           transform="translate(85.2499,94.5431)">
          <path
             d="M 0,0 -22.466,12.816 V 31.758 L 0,54.947 Z"
             style="fill:#ffffff;fill-opacity:1;fill-rule:nonzero;stroke:none"
             id="path184" />
        </g>
        <g
           id="g186"
           transform="translate(109.5611,122.6206)">
          <path
             d="M 0,0 22.466,-12.816 V -31.758 L 0,-54.947 Z"
             style="fill:#ffffff;fill-opacity:1;fill-rule:nonzero;stroke:none"
             id="path188" />
        </g>
        <g
           id="g190"
           transform="translate(372.5305,323.4484)">
          <path
             d="m 0,0 c 0,0 -0.13,-33.818 -0.551,-39.767 -0.421,-5.949 -1.457,-8.374 -3.076,-8.665 -0.778,-0.097 -1.554,0.091 -2.203,0.517 -4.239,2.781 -12.16,18.619 -19.253,32.392 l -10.348,-2.388 v -85.581 l 12.53,2.892 0.166,21.744 c 0,4.527 0.485,7.533 1.522,8.956 0.356,0.485 0.938,0.815 1.49,0.905 3.648,0.594 10.817,-8.665 19.593,-23.408 l 16.744,3.866 V 3.836 Z"
             style="fill:#ffffff;fill-opacity:1;fill-rule:nonzero;stroke:none"
             id="path192" />
        </g>
        <g
           id="g194"
           transform="translate(308.6644,237.8275)">
          <path
             d="m 0,0 c -0.384,-0.002 -3.226,0.095 -3.53,2.263 -0.176,1.256 0.453,2.393 1.943,3.363 1.295,0.776 3.271,1.584 5.927,2.36 l 12.533,3.298 v 10.895 c 0,0 -14.267,-3.433 -18.654,-2.78 -1.333,0.198 -2.203,0.905 -2.397,2.134 -0.162,1.26 0.454,2.392 1.943,3.362 4.013,2.614 22.023,6.499 22.023,6.499 v 25.14 l -37.082,-8.561 v -67.017 l 37.859,8.741 V 3.621 C 10.461,1.326 3.631,0.02 0,0"
             style="fill:#ffffff;fill-opacity:1;fill-rule:nonzero;stroke:none"
             id="path196" />
        </g>
        <g
           id="g198"
           transform="translate(267.6688,290.8287)">
          <path
             d="m 0,0 c 0,0 -4.017,-26.467 -7.584,-38.698 -1.019,-3.495 -3.483,-8.842 -6.834,-1.196 -1.2,2.738 -4.762,15.533 -7.377,32.028 l -11.569,-2.671 c 1.013,-11.342 6.566,-41.974 13.966,-59.82 l 22.437,5.18 c 8.258,21.856 13.213,44.94 14.897,69.318 z"
             style="fill:#ffffff;fill-opacity:1;fill-rule:nonzero;stroke:none"
             id="path200" />
        </g>
        <g
           id="g202"
           transform="translate(217.9557,218.6527)">
          <path
             d="m 0,0 c -1.787,-0.389 -5.853,-1.419 -7.93,-1.808 -1.988,-0.389 -3.15,0.732 -2.904,3.57 0.223,2.655 1.389,8.283 1.832,10.184 0.978,4.203 2.899,5.955 5.16,6.27 C -0.945,18.62 1.586,16.088 2.971,9.223 3.105,8.559 3.443,7.181 3.663,5.309 3.931,3.036 2.815,0.709 0,0 m 9.888,37.94 c -5.615,10.345 -12.144,8.201 -15.49,7.094 -4.384,-1.451 -8.274,-3.702 -12.346,-19.852 -4.28,-16.975 -8.938,-52.635 -8.938,-52.635 l 11.747,2.712 1.207,6.761 c 0.583,3.266 2.661,5.34 5.83,6.272 0,0 9.102,2.363 12.209,2.716 1.313,0.15 2.855,-0.887 3.304,-2.942 l 1.587,-7.274 15.999,3.693 c 0,0 -7.959,40.283 -15.109,53.455"
             style="fill:#ffffff;fill-opacity:1;fill-rule:nonzero;stroke:none"
             id="path204" />
        </g>
        <g
           id="g206"
           transform="translate(165.1277,210.2396)">
          <path
             d="m 0,0 c -0.384,-0.002 -3.226,0.095 -3.53,2.263 -0.176,1.256 0.453,2.393 1.943,3.363 1.295,0.776 3.271,1.584 5.927,2.36 l 12.533,3.298 v 10.895 c 0,0 -14.267,-3.433 -18.654,-2.78 -1.333,0.198 -2.203,0.905 -2.397,2.134 -0.162,1.26 0.454,2.392 1.943,3.362 4.013,2.614 22.023,6.499 22.023,6.499 V 58.52 L -17.294,49.958 V -17.071 L 20.565,-8.33 V 3.621 C 10.461,1.326 3.631,0.02 0,0"
             style="fill:#ffffff;fill-opacity:1;fill-rule:nonzero;stroke:none"
             id="path208" />
        </g>
        <g
           id="g210"
           transform="translate(118.977,272.1108)">
          <path
             d="m 0,0 c 0.356,-13.353 0.213,-23.348 -1.619,-29.906 -1.113,-3.984 -3.563,-7.016 -6.834,-9.312 -3.332,-2.338 -6.671,-3.362 -9.942,-3.427 -3.989,-0.079 -6.872,1.474 -7.255,5.658 -0.583,6.369 -0.842,15.273 -0.648,26.427 l -14.477,-3.342 v -98.61 l 19.886,4.59 c -0.356,12.577 0.072,21.906 1.619,27.676 1.054,3.932 3.939,7.259 6.834,9.214 3.383,2.285 6.665,3.471 9.942,3.524 3.984,0.065 6.879,-1.782 7.255,-5.755 0.55,-5.819 0.809,-14.215 0.648,-24.917 l 14.8,3.417 V 4.666 Z"
             style="fill:#ffffff;fill-opacity:1;fill-rule:nonzero;stroke:none"
             id="path212" />
        </g>
      </g>
    </g>
  </g>
</svg>
