<?xml version="1.0" encoding="UTF-8" standalone="no"?>
<!-- Created with Inkscape (http://www.inkscape.org/) -->

<svg
   version="1.1"
   id="svg2"
   width="666.66669"
   height="466.31732"
   viewBox="0 0 666.66669 466.31732"
   sodipodi:docname="Heaven Studio Logo (Wordmark).ai"
   xmlns:inkscape="http://www.inkscape.org/namespaces/inkscape"
   xmlns:sodipodi="http://sodipodi.sourceforge.net/DTD/sodipodi-0.dtd"
   xmlns="http://www.w3.org/2000/svg"
   xmlns:svg="http://www.w3.org/2000/svg">
  <defs
     id="defs6">
    <clipPath
       clipPathUnits="userSpaceOnUse"
       id="clipPath32">
      <path
         d="M 0,349.738 H 500 V 0 H 0 Z"
         id="path30" />
    </clipPath>
  </defs>
  <sodipodi:namedview
     id="namedview4"
     pagecolor="#ffffff"
     bordercolor="#000000"
     borderopacity="0.25"
     inkscape:showpageshadow="2"
     inkscape:pageopacity="0.0"
     inkscape:pagecheckerboard="0"
     inkscape:deskcolor="#d1d1d1" />
  <g
     id="g8"
     inkscape:groupmode="layer"
     inkscape:label="Heaven Studio Logo (Wordmark)"
     transform="matrix(1.3333333,0,0,-1.3333333,0,466.31733)">
    <g
       id="g10"
       transform="translate(437.571,209.9952)">
      <path
         d="M 0,0 -29.869,-36.455 V -95.353 L 0,-118.017 l 32.559,7.517 29.87,36.456 v 58.897 L 32.559,7.517 Z m 0,-29.56 32.559,7.517 V -80.94 H 32.56 32.559 L 10e-4,-88.456 H 0 Z"
         style="fill:#000000;fill-opacity:1;fill-rule:nonzero;stroke:none"
         id="path12" />
    </g>
    <g
       id="g14"
       transform="translate(397.8982,171.2762)">
      <path
         d="M 0,0 V 29.56 L -61.704,15.314 v -29.559 l 15.917,3.674 v -58.897 l -15.917,-3.675 v -29.559 L 0,-88.457 v 29.56 l -15.917,-3.675 v 58.897 z"
         style="fill:#000000;fill-opacity:1;fill-rule:nonzero;stroke:none"
         id="path16" />
    </g>
    <g
       id="g18"
       transform="translate(278.6608,133.8202)">
      <path
         d="M 0,0 25.922,-14.814 0,-39.574 Z M 0,39.488 -29.87,32.592 V -85.425 L 0,-78.529 51.789,-25.022 V 9.894 Z"
         style="fill:#000000;fill-opacity:1;fill-rule:nonzero;stroke:none"
         id="path20" />
    </g>
    <g
       id="g22"
       transform="translate(209.1172,157.2524)">
      <path
         d="m 0,0 v -88.457 l -13.542,-3.126 v 88.456 l -29.871,-6.896 V -98.479 L -19.723,-122.57 0,-118.017 29.87,-87.75 V 6.896 Z"
         style="fill:#000000;fill-opacity:1;fill-rule:nonzero;stroke:none"
         id="path24" />
    </g>
    <g
       id="g26">
      <g
         id="g28"
         clip-path="url(#clipPath32)">
        <g
           id="g34"
           transform="translate(152.8047,144.2525)">
          <path
             d="m 0,0 -67.952,-15.688 c -3.007,-0.694 -4.51,-4.68 -2.379,-6.311 l 21.42,-16.389 v -87.944 l 29.87,6.897 v 87.943 L 2.38,-5.212 C 4.511,-2.598 3.008,0.694 0,0"
             style="fill:#000000;fill-opacity:1;fill-rule:nonzero;stroke:none"
             id="path36" />
        </g>
        <g
           id="g38"
           transform="translate(61.5493,80.4442)">
          <path
             d="M 0,0 V 0.001 L -31.989,-7.384 V 5.795 l 56.795,13.112 c 3.008,0.695 4.511,4.681 2.38,6.311 L 3.29,43.5 -31.989,35.355 -61.549,4.842 V -20.08 L -31.989,-36.944 0,-29.559 V -42.74 l -56.795,-13.112 c -3.008,-0.694 -4.511,-4.68 -2.38,-6.311 L -35.279,-80.444 0,-72.299 v 0 l 29.56,30.513 v 24.923 z"
             style="fill:#000000;fill-opacity:1;fill-rule:nonzero;stroke:none"
             id="path40" />
        </g>
        <g
           id="g42"
           transform="translate(407.5613,344.6915)">
          <path
             d="m 0,0 c 0,0 -0.171,-44.498 -0.725,-52.325 -0.553,-7.828 -1.917,-11.019 -4.048,-11.401 -1.023,-0.128 -2.044,0.12 -2.897,0.68 -5.579,3.66 -16.002,24.499 -25.334,42.622 l -13.616,-3.144 v -112.606 l 16.487,3.806 0.218,28.61 c 0,5.956 0.639,9.912 2.003,11.784 0.469,0.638 1.234,1.073 1.96,1.191 4.8,0.782 14.233,-11.401 25.781,-30.799 l 22.032,5.086 V 5.047 Z"
             style="fill:#000000;fill-opacity:1;fill-rule:nonzero;stroke:none"
             id="path44" />
        </g>
        <g
           id="g46"
           transform="translate(323.5269,232.0325)">
          <path
             d="m 0,0 c -0.505,-0.003 -4.245,0.125 -4.645,2.978 -0.232,1.652 0.597,3.148 2.557,4.424 1.704,1.021 4.304,2.085 7.798,3.106 l 16.492,4.339 v 14.336 c 0,0 -18.773,-4.517 -24.546,-3.658 -1.753,0.26 -2.898,1.191 -3.153,2.807 -0.213,1.659 0.596,3.148 2.557,4.425 5.279,3.439 28.977,8.55 28.977,8.55 v 33.08 L -22.756,63.122 v -88.18 L 27.06,-13.557 V 4.765 C 13.764,1.744 4.777,0.026 0,0"
             style="fill:#000000;fill-opacity:1;fill-rule:nonzero;stroke:none"
             id="path48" />
        </g>
        <g
           id="g50"
           transform="translate(269.5854,301.7708)">
          <path
             d="m 0,0 c 0,0 -5.286,-34.825 -9.979,-50.918 -1.341,-4.599 -4.583,-11.635 -8.992,-1.574 -1.579,3.603 -6.266,20.438 -9.706,42.141 L -43.9,-13.865 c 1.333,-14.923 8.64,-55.229 18.376,-78.71 l 29.522,6.816 c 10.867,28.757 17.387,59.132 19.603,91.208 z"
             style="fill:#000000;fill-opacity:1;fill-rule:nonzero;stroke:none"
             id="path52" />
        </g>
        <g
           id="g54"
           transform="translate(204.1735,206.8025)">
          <path
             d="m 0,0 c -2.351,-0.512 -7.701,-1.867 -10.434,-2.379 -2.616,-0.512 -4.145,0.964 -3.821,4.698 0.293,3.493 1.828,10.899 2.41,13.399 1.287,5.531 3.815,7.836 6.789,8.251 3.813,0.532 7.143,-2.8 8.965,-11.834 C 4.086,11.262 4.53,9.449 4.82,6.986 5.172,3.995 3.703,0.933 0,0 m 13.011,49.921 c -7.388,13.611 -15.98,10.791 -20.382,9.334 -5.768,-1.909 -10.888,-4.871 -16.245,-26.12 -5.631,-22.337 -11.761,-69.257 -11.761,-69.257 l 15.458,3.569 1.588,8.895 c 0.766,4.297 3.501,7.027 7.67,8.253 0,0 11.977,3.109 16.065,3.574 1.728,0.196 3.757,-1.167 4.347,-3.871 l 2.088,-9.572 21.051,4.86 c 0,0 -10.472,53.003 -19.879,70.335"
             style="fill:#000000;fill-opacity:1;fill-rule:nonzero;stroke:none"
             id="path56" />
        </g>
        <g
           id="g58"
           transform="translate(134.6629,195.7327)">
          <path
             d="m 0,0 c -0.505,-0.003 -4.245,0.125 -4.645,2.978 -0.232,1.652 0.597,3.148 2.557,4.424 1.704,1.021 4.304,2.085 7.798,3.106 l 16.492,4.339 v 14.336 c 0,0 -18.773,-4.517 -24.546,-3.658 -1.753,0.26 -2.898,1.191 -3.153,2.807 -0.213,1.659 0.596,3.148 2.557,4.425 5.279,3.439 28.977,8.55 28.977,8.55 V 76.999 L -22.756,65.735 V -22.462 L 27.06,-10.961 V 4.765 C 13.764,1.744 4.777,0.026 0,0"
             style="fill:#000000;fill-opacity:1;fill-rule:nonzero;stroke:none"
             id="path60" />
        </g>
        <g
           id="g62"
           transform="translate(73.9383,277.1421)">
          <path
             d="m 0,0 c 0.469,-17.569 0.28,-30.721 -2.131,-39.35 -1.464,-5.242 -4.687,-9.232 -8.991,-12.252 -4.384,-3.077 -8.779,-4.425 -13.083,-4.51 -5.248,-0.103 -9.041,1.939 -9.545,7.445 -0.767,8.381 -1.108,20.095 -0.852,34.772 l -19.049,-4.398 v -129.75 l 26.165,6.041 c -0.469,16.548 0.096,28.824 2.131,36.415 1.387,5.173 5.182,9.552 8.991,12.124 4.452,3.006 8.77,4.567 13.083,4.637 5.241,0.085 9.051,-2.345 9.545,-7.572 0.725,-7.657 1.066,-18.705 0.852,-32.786 l 19.475,4.496 V 6.139 Z"
             style="fill:#000000;fill-opacity:1;fill-rule:nonzero;stroke:none"
             id="path64" />
        </g>
      </g>
    </g>
  </g>
</svg>
