<?xml version="1.0" encoding="UTF-8" standalone="no"?>
<!-- Generator: Adobe Illustrator 27.7.0, SVG Export Plug-In . SVG Version: 6.00 Build 0)  -->

<svg
   xmlns:dc="http://purl.org/dc/elements/1.1/"
   xmlns:cc="http://creativecommons.org/ns#"
   xmlns:rdf="http://www.w3.org/1999/02/22-rdf-syntax-ns#"
   xmlns:svg="http://www.w3.org/2000/svg"
   xmlns="http://www.w3.org/2000/svg"
   xmlns:xlink="http://www.w3.org/1999/xlink"
   xmlns:sodipodi="http://sodipodi.sourceforge.net/DTD/sodipodi-0.dtd"
   xmlns:inkscape="http://www.inkscape.org/namespaces/inkscape"
   version="1.1"
   id="Layer_1"
   x="0px"
   y="0px"
   viewBox="0 0 666.66669 717.39539"
   xml:space="preserve"
   sodipodi:docname="Heaven Studio (2024) (Favicon).svg"
   width="666.66669"
   height="717.39539"
   inkscape:version="0.92.4 (5da689c313, 2019-01-14)"><metadata
   id="metadata1107"><rdf:RDF><cc:Work
       rdf:about=""><dc:format>image/svg+xml</dc:format><dc:type
         rdf:resource="http://purl.org/dc/dcmitype/StillImage" /><dc:title></dc:title></cc:Work></rdf:RDF></metadata><defs
   id="defs1105" /><sodipodi:namedview
   pagecolor="#ffffff"
   bordercolor="#666666"
   borderopacity="1"
   objecttolerance="10"
   gridtolerance="10"
   guidetolerance="10"
   inkscape:pageopacity="0"
   inkscape:pageshadow="2"
   inkscape:window-width="1920"
   inkscape:window-height="1057"
   id="namedview1103"
   showgrid="false"
   fit-margin-top="0"
   fit-margin-left="0"
   fit-margin-right="0"
   fit-margin-bottom="0"
   inkscape:zoom="1.6504149"
   inkscape:cx="250"
   inkscape:cy="269.02323"
   inkscape:window-x="-8"
   inkscape:window-y="-8"
   inkscape:window-maximized="1"
   inkscape:current-layer="Layer_1" />
<style
   type="text/css"
   id="style962">
	.st0{fill:url(#SVGID_1_);}
	.st1{fill:url(#SVGID_00000144335532490285817670000017177459772321954456_);}
	.st2{fill:#FFFFFF;}
	.st3{opacity:0.5;}
	.st4{clip-path:url(#SVGID_00000001635015186061675520000015581957648057653911_);}
	.st5{fill:url(#SVGID_00000008124077495115785240000004775082314774504849_);}
	.st6{fill:url(#SVGID_00000060009522758130349580000014920485761718506887_);}
	.st7{fill:url(#SVGID_00000167383825060796205900000000406796271020868789_);}
	.st8{fill:#C25CBD;}
	.st9{fill:url(#H_00000042700846459345114850000012676351309542655361_);}
</style>
<g
   id="_x266A__00000141457073314822567620000010387162877015829889_"
   transform="matrix(1.3333334,0,0,1.3333334,0,9.6265109e-6)">
	<linearGradient
   id="SVGID_1_"
   gradientUnits="userSpaceOnUse"
   x1="-35.952702"
   y1="4.2959199"
   x2="530.54889"
   y2="570.79749">
		<stop
   offset="0"
   style="stop-color:#F46C18"
   id="stop964" />
		<stop
   offset="0.07144"
   style="stop-color:#C65813"
   id="stop966" />
		<stop
   offset="0.18856"
   style="stop-color:#80390D"
   id="stop968" />
		<stop
   offset="0.29423"
   style="stop-color:#492007"
   id="stop970" />
		<stop
   offset="0.38461"
   style="stop-color:#210F03"
   id="stop972" />
		<stop
   offset="0.45616"
   style="stop-color:#090401"
   id="stop974" />
		<stop
   offset="0.5"
   style="stop-color:#000000"
   id="stop976" />
		<stop
   offset="0.55188"
   style="stop-color:#090409"
   id="stop978" />
		<stop
   offset="0.63656"
   style="stop-color:#211020"
   id="stop980" />
		<stop
   offset="0.74349"
   style="stop-color:#492347"
   id="stop982" />
		<stop
   offset="0.86845"
   style="stop-color:#803D7D"
   id="stop984" />
		<stop
   offset="1"
   style="stop-color:#C25CBD"
   id="stop986" />
	</linearGradient>
	<path
   class="st0"
   d="m 374.09579,70.97393 c -0.13504,-25.55685 4.28448,-41.49935 4.59595,-42.58588 3.07639,-9.61749 -0.86603,-19.98136 -9.49527,-25.23651 -8.64606,-5.26569 -19.81244,-3.79671 -26.94464,3.38877 -0.83331,0.83961 -14.22321,14.41584 -33.25653,38.51005 -18.91663,-4.57642 -38.6723,-7.0038 -58.9953,-7.0038 -138.0712,0 -250,111.92879 -250,250 0,48.46741 13.79322,93.71286 37.66704,132.02682 -4.40226,12.19882 -6.10991,24.23785 -5.07968,35.98138 1.5288,17.42557 9.12736,33.30981 21.97451,45.93546 14.24348,13.99792 33.98483,23.06787 55.58757,25.53918 3.88972,0.44501 7.7702,0.66504 11.62246,0.66504 12.96285,-1.8e-4 25.59025,-2.4939 37.05054,-7.29858 28.24966,11.07031 59.00323,17.15063 91.17755,17.15063 138.0712,0 250,-111.9288 250,-249.99994 C 500,195.13895 449.31876,114.07016 374.09579,70.97393 Z"
   id="path989"
   style="fill:url(#SVGID_1_)"
   inkscape:connector-curvature="0" />
	
		<linearGradient
   id="SVGID_00000003824368684700662750000008182681083399166362_"
   gradientUnits="userSpaceOnUse"
   x1="-20.763201"
   y1="17.28343"
   x2="521.39227"
   y2="559.4389">
		<stop
   offset="0"
   style="stop-color:#F46C18"
   id="stop991" />
		<stop
   offset="0.05387"
   style="stop-color:#F68139"
   id="stop993" />
		<stop
   offset="0.1758"
   style="stop-color:#F9AD7F"
   id="stop995" />
		<stop
   offset="0.28579"
   style="stop-color:#FCD0B6"
   id="stop997" />
		<stop
   offset="0.37988"
   style="stop-color:#FDEADE"
   id="stop999" />
		<stop
   offset="0.45436"
   style="stop-color:#FFF9F6"
   id="stop1001" />
		<stop
   offset="0.5"
   style="stop-color:#FFFFFF"
   id="stop1003" />
		<stop
   offset="0.55896"
   style="stop-color:#FCF6FB"
   id="stop1005" />
		<stop
   offset="0.65515"
   style="stop-color:#F3DEF2"
   id="stop1007" />
		<stop
   offset="0.77661"
   style="stop-color:#E4B6E1"
   id="stop1009" />
		<stop
   offset="0.91721"
   style="stop-color:#CF80CB"
   id="stop1011" />
		<stop
   offset="1"
   style="stop-color:#C25CBD"
   id="stop1013" />
	</linearGradient>
	<path
   style="fill:url(#SVGID_00000003824368684700662750000008182681083399166362_)"
   d="M 463.55042,197.82919 C 451.87668,170.22934 435.16657,145.44394 413.88447,124.16197 392.60264,102.87986 367.81736,86.1699 340.21751,74.49602 311.63766,62.40792 281.28418,56.27877 250,56.27877 c -31.28418,0 -61.63782,6.12915 -90.21736,18.21725 -27.59987,11.67388 -52.38512,28.38384 -73.66723,49.66595 -21.28211,21.28197 -37.99207,46.06737 -49.66581,73.66722 -12.08824,28.57956 -18.21739,58.93304 -18.21739,90.21738 0,31.28418 6.12916,61.63782 18.21739,90.21738 11.67374,27.59985 28.3837,52.3851 49.66581,73.66721 21.28211,21.28211 46.06736,37.99207 73.66723,49.6658 28.57954,12.08823 58.93318,18.21738 90.21736,18.21738 31.28418,0 61.63766,-6.12915 90.2175,-18.21738 27.59985,-11.67374 52.38513,-28.3837 73.66696,-49.6658 21.2821,-21.2821 37.99222,-46.06735 49.66595,-73.66721 12.08823,-28.57956 18.21738,-58.9332 18.21738,-90.21738 0,-31.28433 -6.12915,-61.63782 -18.21737,-90.21738 z M 250,510.33359 c -122.76575,0 -222.28705,-99.52133 -222.28705,-222.28702 0,-122.76569 99.5213,-222.28706 222.28705,-222.28706 122.76575,0 222.28705,99.52128 222.28705,222.28705 0,122.76577 -99.52127,222.28703 -222.28705,222.28703 z M 426.45728,213.49892 c -9.64627,-22.8062 -23.45346,-43.28624 -41.03842,-60.8712 C 367.8339,135.04276 347.35401,121.23542 324.5478,111.58931 300.93109,101.60033 275.84958,96.53548 250,96.53548 c -25.84958,0 -50.93109,5.06485 -74.54764,15.05383 -22.80621,9.64612 -43.2861,23.45345 -60.87107,41.03841 -17.58511,17.58496 -31.39244,38.065 -41.03856,60.8712 -9.98897,23.61655 -15.05382,48.69795 -15.05382,74.54765 0,25.8497 5.06485,50.93109 15.05382,74.54764 9.64612,22.80621 23.45345,43.2861 41.03856,60.87106 17.58497,17.58511 38.06486,31.39246 60.87107,41.03857 23.61655,9.98895 48.69807,15.0538 74.54764,15.0538 25.84957,0 50.93109,-5.06485 74.54779,-15.0538 22.80621,-9.64612 43.2861,-23.45346 60.87106,-41.03857 17.58496,-17.58496 31.39215,-38.06485 41.03842,-60.87106 9.98895,-23.61655 15.0538,-48.69794 15.0538,-74.54764 0,-25.8497 -5.06484,-50.93111 -15.05379,-74.54765 z M 250,470.07687 c -100.53258,0 -182.03033,-81.49777 -182.03033,-182.0303 0,-100.53253 81.49775,-182.03034 182.03033,-182.03034 100.53258,0 182.03033,81.49775 182.03033,182.03033 0,100.53258 -81.49774,182.03031 -182.03033,182.03031 z M 392.58981,227.80608 C 384.79467,209.37674 373.63772,192.82759 359.42828,178.61829 345.21884,164.40886 328.66967,153.25188 310.24063,145.45691 291.15549,137.3846 270.88754,133.29161 250,133.29161 c -20.88754,0 -41.15536,4.09299 -60.24049,12.1653 -18.4292,7.79497 -34.97833,18.95195 -49.18777,33.16138 -14.2093,14.2093 -25.36642,30.75845 -33.16139,49.18779 -8.07231,19.08499 -12.1653,39.3528 -12.1653,60.24049 0,20.88754 4.09299,41.15536 12.1653,60.24048 7.79498,18.4292 18.95209,34.97836 33.16139,49.18777 14.20944,14.20932 30.75858,25.36642 49.18777,33.16141 19.08513,8.0723 39.35294,12.16528 60.24049,12.16528 20.88755,0 41.15549,-4.09299 60.24063,-12.16528 18.42905,-7.79498 34.97821,-18.95209 49.18765,-33.16141 14.20944,-14.20941 25.36639,-30.75858 33.16153,-49.18777 8.07202,-19.08511 12.16516,-39.35294 12.16516,-60.24048 0,-20.8877 -4.09314,-41.1555 -12.16516,-60.24049 z M 250,433.32074 c -80.23273,0 -145.27422,-65.0415 -145.27422,-145.27417 0,-80.23267 65.04149,-145.27422 145.27422,-145.27422 80.23273,0 145.2742,65.04147 145.2742,145.27422 0,80.23275 -65.04144,145.27417 -145.2742,145.27417 z M 357.10938,242.79451 c -5.85568,-13.84393 -14.23624,-26.27502 -24.90918,-36.94814 -10.67297,-10.67296 -23.10422,-19.05365 -36.94815,-24.90903 -14.33792,-6.06448 -29.56296,-9.13933 -45.25204,-9.13933 -15.68938,0 -30.91428,3.07484 -45.25204,9.13933 -13.84395,5.85538 -26.27504,14.23607 -36.94814,24.90903 -10.67296,10.67311 -19.05365,23.1042 -24.90904,36.94814 -6.06448,14.33778 -9.13931,29.56282 -9.13931,45.25206 0,15.68924 3.07483,30.91428 9.13931,45.25204 5.85539,13.84393 14.23608,26.27502 24.90904,36.94812 10.6731,10.67297 23.10419,19.05365 36.94814,24.90906 14.33777,6.06448 29.56267,9.13931 45.25204,9.13931 15.68909,0 30.91412,-3.07483 45.25204,-9.13931 13.84393,-5.85541 26.27518,-14.23608 36.94815,-24.90906 10.67294,-10.6731 19.0535,-23.10419 24.90918,-36.94812 6.06418,-14.33777 9.13916,-29.56281 9.13916,-45.25204 0,-15.68923 -3.07499,-30.91428 -9.13916,-45.25206 z M 250,394.81433 c -58.96623,0 -106.76779,-47.80157 -106.76779,-106.76776 0,-58.96619 47.80156,-106.76781 106.76779,-106.76781 58.96623,0 106.76779,47.80157 106.76779,106.76781 0,58.96624 -47.80157,106.76776 -106.76779,106.76776 z M 303.73428,234.31227 C 289.38128,219.95924 270.29815,212.05473 250,212.05473 c -20.29815,0 -39.38142,7.90451 -53.7343,22.25754 -14.35301,14.35287 -22.25754,33.43614 -22.25754,53.7343 0,20.29813 7.90453,39.38141 22.25754,53.73428 14.35287,14.35303 33.43616,22.25754 53.7343,22.25754 20.29814,0 39.38129,-7.90451 53.73428,-22.25754 14.35303,-14.35287 22.25754,-33.43616 22.25754,-53.73428 0,-20.29816 -7.90451,-39.38142 -22.25754,-53.7343 z M 250,354.55762 c -36.73305,0 -66.51108,-29.77805 -66.51108,-66.51105 0,-36.73306 29.77803,-66.51109 66.51108,-66.51109 36.73305,0 66.51108,29.77803 66.51108,66.51109 0,36.733 -29.77802,66.51105 -66.51108,66.51105 z"
   id="path1016"
   inkscape:connector-curvature="0" />
	<path
   id="_x266A_"
   class="st2"
   d="m 357.77991,21.9531 c 0,0 -117.71416,118.59409 -154.89355,288.07526 0,0 -82.0835,11.52118 -136.10559,99.97385 -45.47452,74.45734 42.9732,117.60956 93.32271,85.64395 60.84293,-38.62756 85.26689,-80.89316 89.33794,-117.90704 20.03238,-182.1328 49.94186,-214.57018 49.94186,-214.57018 0,0 8.08832,93.39696 33.15829,104.43993 46.82422,20.62524 114.25803,16.20801 114.25803,16.20801 C 318.7998,147.38974 357.77991,21.9531 357.77991,21.9531 Z"
   inkscape:connector-curvature="0"
   style="fill:#ffffff" />
</g>
<g
   id="Heaven_Studio"
   transform="matrix(1.3333334,0,0,1.3333334,0,9.6265109e-6)">
	<g
   id="Drop_Shadow"
   class="st3"
   style="opacity:0.5">
		<defs
   id="defs1021">
			<circle
   id="SVGID_00000098906547014329342000000008004520948481871501_"
   class="st3"
   cx="250"
   cy="288.04654"
   r="250"
   style="opacity:0.5" />
		</defs>
		<clipPath
   id="SVGID_00000096046669792915549920000011992120996848644281_">
			<use
   xlink:href="#SVGID_00000098906547014329342000000008004520948481871501_"
   style="overflow:visible"
   id="use1023"
   x="0"
   y="0"
   width="100%"
   height="100%" />
		</clipPath>
		<path
   d="m 467.8475,368.90961 v 57.14108 l -67.77396,69.95642 v 0.002 l -80.88461,18.67368 -54.78543,-41.91394 c -4.88593,-3.73801 -1.43979,-12.87729 5.4559,-14.46933 l 130.21414,-30.06229 v -30.22028 l -73.34003,16.93188 -67.7739,-38.66278 v -57.14102 l 67.7739,-69.95647 80.88461,-18.67369 54.78543,41.914 c 4.88593,3.73795 1.43985,12.87726 -5.45584,14.4693 l -130.2142,30.06229 v 30.21649 l 73.34012,-16.93192 7e-4,0.002 z M 230.90646,75.74984 c -6.15881,-5.81735 -13.6754,-7.70375 -22.54979,-5.65498 -8.51328,1.96545 -23.20015,9.08405 -29.35899,17.95958 -6.15698,8.87509 -1.88466,16.72662 -1.88466,26.94855 l -8e-5,45.99794 -61.94376,14.30074 5e-5,-45.99792 c 0,-10.43637 -3.03242,-18.62612 -9.10095,-24.5726 -6.06669,-5.94698 -13.53906,-7.89561 -22.41345,-5.84684 -8.69382,2.00711 -23.47282,9.04089 -29.62981,17.70155 -6.15883,8.66329 -1.88466,16.51433 -1.88468,26.94856 l -1.9e-4,161.31642 c 0,10.22198 3.03242,18.30557 9.10095,24.25211 6.0667,5.94693 13.44697,7.91684 22.14264,5.9093 8.87437,-2.0488 16.39098,-7.40591 22.54797,-16.06656 6.15882,-8.66327 9.23732,-18.10565 9.23734,-28.32767 l 5e-5,-51.11 62.21644,-14.36362 -6e-5,51.10991 c -2e-5,10.22202 3.07848,18.24298 9.23727,24.06253 6.15698,5.81778 13.49303,7.74588 22.0063,5.78046 8.69383,-2.00711 16.11832,-7.34293 22.27716,-16.00403 6.15881,-8.66327 9.23732,-18.21182 9.23734,-28.64606 l 2e-4,-161.31642 c 0,-10.43431 -3.07847,-18.56139 -9.23729,-24.38095 z"
   clip-path="url(#SVGID_00000096046669792915549920000011992120996848644281_)"
   id="path1026"
   inkscape:connector-curvature="0" />
	</g>
	<g
   id="S_00000165233124782031301950000010668114092898216334_">
		<g
   id="g1066">
			
				<linearGradient
   id="SVGID_00000069366690126428862850000007256794335193041087_"
   gradientUnits="userSpaceOnUse"
   x1="295.73605"
   y1="392.07532"
   x2="407.73389"
   y2="392.07532"
   gradientTransform="matrix(1,-0.23087,0,1,0,50.64076)">
				<stop
   offset="0"
   style="stop-color:#000000"
   id="stop1029" />
				<stop
   offset="0.03083"
   style="stop-color:#1C0D1B"
   id="stop1031" />
				<stop
   offset="0.08683"
   style="stop-color:#472246"
   id="stop1033" />
				<stop
   offset="0.14546"
   style="stop-color:#6D346A"
   id="stop1035" />
				<stop
   offset="0.20603"
   style="stop-color:#8C4288"
   id="stop1037" />
				<stop
   offset="0.26917"
   style="stop-color:#A44EA0"
   id="stop1039" />
				<stop
   offset="0.33603"
   style="stop-color:#B556B0"
   id="stop1041" />
				<stop
   offset="0.40908"
   style="stop-color:#BF5ABA"
   id="stop1043" />
				<stop
   offset="0.5"
   style="stop-color:#C25CBD"
   id="stop1045" />
				<stop
   offset="0.59092"
   style="stop-color:#BF5ABA"
   id="stop1047" />
				<stop
   offset="0.66397"
   style="stop-color:#B556B0"
   id="stop1049" />
				<stop
   offset="0.73083"
   style="stop-color:#A44EA0"
   id="stop1051" />
				<stop
   offset="0.79397"
   style="stop-color:#8C4288"
   id="stop1053" />
				<stop
   offset="0.85454"
   style="stop-color:#6D346A"
   id="stop1055" />
				<stop
   offset="0.91317"
   style="stop-color:#472246"
   id="stop1057" />
				<stop
   offset="0.96917"
   style="stop-color:#1C0D1B"
   id="stop1059" />
				<stop
   offset="1"
   style="stop-color:#000000"
   id="stop1061" />
			</linearGradient>
			<polygon
   style="fill:url(#SVGID_00000069366690126428862850000007256794335193041087_)"
   points="388.405,319.15976 407.73389,382.46924 315.06494,403.86356 295.73605,340.55408 "
   id="polygon1064" />
		</g>
		<g
   id="g1075">
			
				<linearGradient
   id="SVGID_00000098184482191397568150000010394356383667343295_"
   gradientUnits="userSpaceOnUse"
   x1="205.63235"
   y1="294.08694"
   x2="362.92245"
   y2="294.08694"
   gradientTransform="matrix(1,-0.23087,0,1,0,50.64076)">
				<stop
   offset="0"
   style="stop-color:#000000"
   id="stop1068" />
				<stop
   offset="1"
   style="stop-color:#C25CBD"
   id="stop1070" />
			</linearGradient>
			<path
   style="fill:url(#SVGID_00000098184482191397568150000010394356383667343295_)"
   d="m 445.27908,275.81287 -149.54303,34.52475 19.32889,-72.23433 80.88458,-18.67368 54.78543,41.91393 c 4.88593,3.73803 1.43982,12.87735 -5.45587,14.46933 z"
   id="path1073"
   inkscape:connector-curvature="0" />
		</g>
		<g
   id="g1084">
			
				<linearGradient
   id="SVGID_00000009591322959603888820000009283698365629830786_"
   gradientUnits="userSpaceOnUse"
   x1="-520.57532"
   y1="4513.7002"
   x2="-382.61411"
   y2="4513.7002"
   gradientTransform="matrix(-1,0.23087,0,-1,-53.13924,5066.6763)">
				<stop
   offset="0"
   style="stop-color:#321933"
   id="stop1077" />
				<stop
   offset="1"
   style="stop-color:#C25CBD"
   id="stop1079" />
			</linearGradient>
			<path
   style="fill:url(#SVGID_00000009591322959603888820000009283698365629830786_)"
   d="m 258.19077,447.21423 130.21417,-30.06229 v 67.77188 l -80.88461,18.67368 -54.7854,-41.91394 c -4.88595,-3.738 -1.43984,-12.87732 5.45584,-14.46933 z"
   id="path1082"
   inkscape:connector-curvature="0" />
		</g>
		<g
   id="g1088">
			<polygon
   class="st8"
   points="315.06494,238.10329 315.06494,403.86356 247.291,365.20081 247.291,308.05972 "
   id="polygon1086"
   style="fill:#c25cbd" />
		</g>
		<g
   id="g1092">
			<polygon
   class="st8"
   points="388.40494,484.92194 388.40494,319.16168 456.17886,357.82443 456.17886,414.96548 "
   id="polygon1090"
   style="fill:#c25cbd" />
		</g>
	</g>
	
		<linearGradient
   id="H_00000017476285406770683180000000476067760160279179_"
   gradientUnits="userSpaceOnUse"
   x1="133.75146"
   y1="167.6628"
   x2="133.75146"
   y2="223.60402">
		<stop
   offset="0"
   style="stop-color:#F48F18"
   id="stop1095" />
		<stop
   offset="1"
   style="stop-color:#F46C18"
   id="stop1097" />
	</linearGradient>
	
		<path
   id="H_00000031172495874216115770000000231552331651889582_"
   style="fill:url(#H_00000017476285406770683180000000476067760160279179_)"
   d="m 94.2631,307.86047 c -6.15699,8.66068 -13.67359,14.01779 -22.54797,16.06656 -8.69567,2.00757 -16.07594,0.0377 -22.14264,-5.90927 -6.06854,-5.94653 -9.10096,-14.03012 -9.10095,-24.25211 l 1.9e-4,-161.31639 c 10e-6,-10.43427 -4.27415,-18.28533 1.88467,-26.94859 6.15699,-8.66067 20.93599,-15.69443 29.62981,-17.70154 8.87437,-2.0488 16.34676,-0.10015 22.41345,5.84678 6.06854,5.9465 9.10096,14.13624 9.10094,24.57267 l -5e-5,45.99787 61.94378,-14.30074 5e-5,-45.99787 c 2e-5,-10.22199 -4.27231,-18.07347 1.88467,-26.94859 6.15883,-8.87553 20.84572,-15.99417 29.35899,-17.9596 8.87437,-2.04879 16.39098,-0.16235 22.54979,5.65501 6.15881,5.81952 9.23729,13.94663 9.23727,24.38091 l -1.8e-4,161.31641 c -2e-5,10.43428 -3.07852,19.98283 -9.23735,28.64607 -6.15883,8.6611 -13.58331,13.99692 -22.27715,16.00406 -8.51329,1.96542 -15.84933,0.0373 -22.0063,-5.78049 -6.15881,-5.81952 -9.23729,-13.84048 -9.23727,-24.0625 l 6e-5,-51.10994 -62.21644,14.36368 -6e-5,51.10997 c 2e-5,10.22199 -3.07848,19.66441 -9.23731,28.32764 z"
   inkscape:connector-curvature="0" />
</g>
</svg>