<?xml version="1.0" encoding="UTF-8" standalone="no"?>
<!-- Created with Inkscape (http://www.inkscape.org/) -->

<svg
   version="1.1"
   id="svg2"
   width="666.66669"
   height="486.59732"
   viewBox="0 0 666.66669 486.59732"
   sodipodi:docname="HS Levels Logo (Wordmark).ai"
   xmlns:inkscape="http://www.inkscape.org/namespaces/inkscape"
   xmlns:sodipodi="http://sodipodi.sourceforge.net/DTD/sodipodi-0.dtd"
   xmlns="http://www.w3.org/2000/svg"
   xmlns:svg="http://www.w3.org/2000/svg">
  <defs
     id="defs6">
    <clipPath
       clipPathUnits="userSpaceOnUse"
       id="clipPath16">
      <path
         d="M 0,364.948 H 500 V 0 H 0 Z"
         id="path14" />
    </clipPath>
  </defs>
  <sodipodi:namedview
     id="namedview4"
     pagecolor="#ffffff"
     bordercolor="#000000"
     borderopacity="0.25"
     inkscape:showpageshadow="2"
     inkscape:pageopacity="0.0"
     inkscape:pagecheckerboard="0"
     inkscape:deskcolor="#d1d1d1" />
  <g
     id="g8"
     inkscape:groupmode="layer"
     inkscape:label="HS Levels Logo (Wordmark)"
     transform="matrix(1.3333333,0,0,-1.3333333,0,486.59733)">
    <g
       id="g10">
      <g
         id="g12"
         clip-path="url(#clipPath16)">
        <g
           id="g18"
           transform="translate(470.7077,181.7915)">
          <path
             d="m 0,0 v 0.001 l -31.699,-7.318 v 13.06 l 56.28,12.993 c 2.981,0.688 4.47,4.638 2.358,6.254 L 3.26,43.106 -31.699,35.035 -60.992,4.799 V -19.898 L -31.699,-36.609 0,-29.291 v -13.061 l -56.281,-12.994 c -2.98,-0.688 -4.469,-4.638 -2.358,-6.254 L -34.96,-79.715 0,-71.644 v 0.001 l 29.292,30.236 v 24.697 z"
             style="fill:#000000;fill-opacity:1;fill-rule:nonzero;stroke:none"
             id="path20" />
        </g>
        <g
           id="g22"
           transform="translate(358.3449,112.0224)">
          <path
             d="M 0,0 V 87.655 L -29.599,80.822 V -36.125 L 43.019,-19.36 V 9.932 Z"
             style="fill:#000000;fill-opacity:1;fill-rule:nonzero;stroke:none"
             id="path24" />
        </g>
        <g
           id="g26"
           transform="translate(319.0308,161.3094)">
          <path
             d="M 0,0 V 29.292 L -43.326,19.289 -72.619,-10.947 v -70 L -43.326,-97.658 0,-87.655 v 29.292 l -43.326,-10.003 v 16.012 L 0,-42.352 v 29.292 l -43.326,-10.002 v 13.06 z"
             style="fill:#000000;fill-opacity:1;fill-rule:nonzero;stroke:none"
             id="path28" />
        </g>
        <g
           id="g30"
           transform="translate(207.0981,164.7596)">
          <path
             d="m 0,0 v -87.655 l -13.42,-3.098 V -3.098 L -43.019,-9.932 V -126.879 L 0,-116.947 29.599,-86.955 V 6.834 Z"
             style="fill:#000000;fill-opacity:1;fill-rule:nonzero;stroke:none"
             id="path32" />
        </g>
        <g
           id="g34"
           transform="translate(154.9519,123.4288)">
          <path
             d="M 0,0 V 29.292 L -43.326,19.289 -72.619,-10.947 v -70 L -43.326,-97.658 0,-87.655 v 29.292 l -43.326,-10.003 v 16.012 L 0,-42.352 v 29.292 l -43.326,-10.002 v 13.059 z"
             style="fill:#000000;fill-opacity:1;fill-rule:nonzero;stroke:none"
             id="path36" />
        </g>
        <g
           id="g38"
           transform="translate(29.5995,36.1254)">
          <path
             d="M 0,0 V 87.655 L -29.6,80.822 V -36.125 L 43.019,-19.36 V 9.932 Z"
             style="fill:#000000;fill-opacity:1;fill-rule:nonzero;stroke:none"
             id="path40" />
        </g>
        <g
           id="g42"
           transform="translate(291.8524,305.4033)">
          <path
             d="M 0,0 V 0.001 L -43.787,-10.108 V 7.933 l 77.743,17.948 c 4.117,0.951 6.174,6.407 3.257,8.639 L 4.504,59.544 -43.787,48.395 -84.251,6.629 V -27.487 L -43.787,-50.57 0,-40.461 v -18.043 l -77.744,-17.948 c -4.117,-0.951 -6.174,-6.407 -3.257,-8.639 L -48.292,-110.115 0,-98.966 v 10e-4 l 40.463,41.767 v 34.115 z"
             style="fill:#000000;fill-opacity:1;fill-rule:nonzero;stroke:none"
             id="path44" />
        </g>
        <g
           id="g46"
           transform="translate(148.9679,326.5052)">
          <path
             d="m 0,0 c 0.564,-21.155 0.337,-36.991 -2.566,-47.381 -1.763,-6.312 -5.644,-11.116 -10.826,-14.752 -5.279,-3.705 -10.57,-5.328 -15.752,-5.43 -6.32,-0.125 -10.887,2.335 -11.494,8.964 -0.923,10.091 -1.334,24.196 -1.026,41.868 L -64.6,-22.026 v -156.23 l 31.505,7.274 c -0.565,19.925 0.115,34.706 2.565,43.847 1.67,6.229 6.241,11.501 10.827,14.598 5.36,3.62 10.559,5.499 15.752,5.583 6.311,0.103 10.898,-2.823 11.494,-9.117 0.872,-9.22 1.282,-22.522 1.026,-39.477 l 23.449,5.413 V 7.392 Z"
             style="fill:#000000;fill-opacity:1;fill-rule:nonzero;stroke:none"
             id="path48" />
        </g>
      </g>
    </g>
  </g>
</svg>
