<?xml version="1.0" encoding="UTF-8" standalone="no"?>
<!-- Generator: Adobe Illustrator 25.0.0, SVG Export Plug-In . SVG Version: 6.00 Build 0)  -->

<svg
   version="1.1"
   id="Layer_1"
   x="0px"
   y="0px"
   viewBox="0 0 666.66669 477.08203"
   xml:space="preserve"
   sodipodi:docname="Paradise Studio Logo.svg"
   width="666.66669"
   height="477.08203"
   inkscape:version="1.2.2 (b0a8486541, 2022-12-01)"
   xmlns:inkscape="http://www.inkscape.org/namespaces/inkscape"
   xmlns:sodipodi="http://sodipodi.sourceforge.net/DTD/sodipodi-0.dtd"
   xmlns="http://www.w3.org/2000/svg"
   xmlns:svg="http://www.w3.org/2000/svg"><defs
   id="defs3533" /><sodipodi:namedview
   id="namedview3531"
   pagecolor="#505050"
   bordercolor="#eeeeee"
   borderopacity="1"
   inkscape:showpageshadow="0"
   inkscape:pageopacity="0"
   inkscape:pagecheckerboard="0"
   inkscape:deskcolor="#505050"
   showgrid="false"
   inkscape:zoom="3.3872585"
   inkscape:cx="249.90712"
   inkscape:cy="178.90574"
   inkscape:window-width="2560"
   inkscape:window-height="1414"
   inkscape:window-x="0"
   inkscape:window-y="0"
   inkscape:window-maximized="1"
   inkscape:current-layer="Layer_1" />
<style
   type="text/css"
   id="style3172">
	.st0{fill:#0096E6;}
	.st1{fill:#FFFFFF;}
	.st2{fill:url(#SVGID_1_);}
	.st3{fill:url(#SVGID_2_);}
	.st4{fill:url(#SVGID_3_);}
	.st5{fill:url(#SVGID_4_);}
	.st6{fill:#C25CBD;}
	.st7{fill:url(#SVGID_5_);}
	.st8{fill:url(#SVGID_6_);}
	.st9{fill:url(#SVGID_7_);}
	.st10{fill:url(#SVGID_8_);}
	.st11{fill:url(#SVGID_9_);}
	.st12{fill:url(#SVGID_10_);}
	.st13{fill:url(#SVGID_11_);}
	.st14{fill:url(#SVGID_12_);}
	.st15{fill:url(#SVGID_13_);}
	.st16{fill:#FF5500;}
</style>
<g
   id="Cloud"
   transform="matrix(1.3333334,0,0,1.3333334,0,6.1035159e-5)">
	<g
   id="Light_Blue">
		<circle
   class="st0"
   cx="390.30121"
   cy="193.83485"
   r="107.17925"
   id="circle3174" />
		<circle
   class="st0"
   cx="273.60303"
   cy="230.14459"
   r="98.057617"
   id="circle3176" />
		<circle
   class="st0"
   cx="144.46725"
   cy="259.75385"
   r="98.057617"
   id="circle3178" />
		<circle
   class="st0"
   cx="392.82074"
   cy="107.17921"
   r="107.17925"
   id="circle3180" />
		<circle
   class="st0"
   cx="249.57841"
   cy="142.21286"
   r="107.17925"
   id="circle3182" />
		<circle
   class="st0"
   cx="107.17928"
   cy="167.88641"
   r="107.17928"
   id="circle3184" />
	</g>
	<g
   id="White">
		<circle
   class="st1"
   cx="390.30121"
   cy="193.83485"
   r="95.777206"
   id="circle3187" />
		<circle
   class="st1"
   cx="273.60303"
   cy="230.14459"
   r="86.655571"
   id="circle3189" />
		<circle
   class="st1"
   cx="144.46725"
   cy="259.75385"
   r="86.655571"
   id="circle3191" />
		<circle
   class="st1"
   cx="392.82074"
   cy="107.17921"
   r="95.777206"
   id="circle3193" />
		<circle
   class="st1"
   cx="249.57841"
   cy="142.21286"
   r="95.777206"
   id="circle3195" />
		<circle
   class="st1"
   cx="107.17928"
   cy="167.88641"
   r="95.777222"
   id="circle3197" />
	</g>
	<g
   id="Black">
		<circle
   cx="390.30112"
   cy="193.83478"
   r="86.655571"
   id="circle3200" />
		<circle
   cx="273.60284"
   cy="230.14465"
   r="77.533928"
   id="circle3202" />
		<circle
   cx="144.4673"
   cy="259.75378"
   r="77.533928"
   id="circle3204" />
		<circle
   cx="392.82068"
   cy="107.17912"
   r="86.655571"
   id="circle3206" />
		<circle
   cx="249.57834"
   cy="142.21278"
   r="86.655571"
   id="circle3208" />
		<circle
   cx="107.1792"
   cy="167.88634"
   r="86.655586"
   id="circle3210" />
	</g>
	<rect
   x="178.28569"
   y="178.99153"
   width="28.57062"
   height="30.115351"
   id="rect3213" />
</g>
<g
   id="Paradise_Studio"
   transform="matrix(1.3333334,0,0,1.3333334,0,6.1035159e-5)">
	<g
   id="O">
		<g
   id="g3237">
			
				<linearGradient
   id="SVGID_1_"
   gradientUnits="userSpaceOnUse"
   x1="442.05838"
   y1="-33.985069"
   x2="419.32782"
   y2="-11.25448"
   gradientTransform="matrix(1,-0.23087,0,1,0,289.1044)">
				<stop
   offset="0"
   style="stop-color:#C25CBD"
   id="stop3216" />
				<stop
   offset="0.18185"
   style="stop-color:#BF5ABA"
   id="stop3218" />
				<stop
   offset="0.32793"
   style="stop-color:#B556B0"
   id="stop3220" />
				<stop
   offset="0.46165"
   style="stop-color:#A44EA0"
   id="stop3222" />
				<stop
   offset="0.58795"
   style="stop-color:#8C4288"
   id="stop3224" />
				<stop
   offset="0.70909"
   style="stop-color:#6D346A"
   id="stop3226" />
				<stop
   offset="0.82635"
   style="stop-color:#472246"
   id="stop3228" />
				<stop
   offset="0.93834"
   style="stop-color:#1C0D1B"
   id="stop3230" />
				<stop
   offset="1"
   style="stop-color:#000000"
   id="stop3232" />
			</linearGradient>
			<polygon
   class="st2"
   points="445.86349,168.75189 435.6236,174.58411 425.38373,173.48003 421.91559,164.14723 425.38373,153.21306 "
   id="polygon3235"
   style="fill:url(#SVGID_1_)" />
		</g>
		<g
   id="g3260">
			
				<linearGradient
   id="SVGID_2_"
   gradientUnits="userSpaceOnUse"
   x1="384.81168"
   y1="-35.559361"
   x2="410.18237"
   y2="-10.18868"
   gradientTransform="matrix(1,-0.23087,0,1,0,289.1044)">
				<stop
   offset="0"
   style="stop-color:#C25CBD"
   id="stop3239" />
				<stop
   offset="0.18185"
   style="stop-color:#BF5ABA"
   id="stop3241" />
				<stop
   offset="0.32793"
   style="stop-color:#B556B0"
   id="stop3243" />
				<stop
   offset="0.46165"
   style="stop-color:#A44EA0"
   id="stop3245" />
				<stop
   offset="0.58795"
   style="stop-color:#8C4288"
   id="stop3247" />
				<stop
   offset="0.70909"
   style="stop-color:#6D346A"
   id="stop3249" />
				<stop
   offset="0.82635"
   style="stop-color:#472246"
   id="stop3251" />
				<stop
   offset="0.93834"
   style="stop-color:#1C0D1B"
   id="stop3253" />
				<stop
   offset="1"
   style="stop-color:#000000"
   id="stop3255" />
			</linearGradient>
			<polygon
   class="st3"
   points="403.06036,178.63377 392.82077,184.46591 382.58118,183.36177 403.06036,158.36682 406.52853,167.69962 "
   id="polygon3258"
   style="fill:url(#SVGID_2_)" />
		</g>
		<g
   id="g3283">
			
				<linearGradient
   id="SVGID_3_"
   gradientUnits="userSpaceOnUse"
   x1="2087.3064"
   y1="2250.9082"
   x2="2064.5757"
   y2="2273.6387"
   gradientTransform="matrix(-1,0.23087,0,-1,2473.6924,2008.4485)">
				<stop
   offset="0"
   style="stop-color:#C25CBD"
   id="stop3262" />
				<stop
   offset="0.18185"
   style="stop-color:#BF5ABA"
   id="stop3264" />
				<stop
   offset="0.32793"
   style="stop-color:#B556B0"
   id="stop3266" />
				<stop
   offset="0.46165"
   style="stop-color:#A44EA0"
   id="stop3268" />
				<stop
   offset="0.58795"
   style="stop-color:#8C4288"
   id="stop3270" />
				<stop
   offset="0.70909"
   style="stop-color:#6D346A"
   id="stop3272" />
				<stop
   offset="0.82635"
   style="stop-color:#472246"
   id="stop3274" />
				<stop
   offset="0.93834"
   style="stop-color:#1C0D1B"
   id="stop3276" />
				<stop
   offset="1"
   style="stop-color:#000000"
   id="stop3278" />
			</linearGradient>
			<polygon
   class="st4"
   points="382.58118,223.74327 392.82077,217.91113 403.06091,219.01515 406.53485,228.34662 403.06036,239.28224 "
   id="polygon3281"
   style="fill:url(#SVGID_3_)" />
		</g>
		<g
   id="g3306">
			
				<linearGradient
   id="SVGID_4_"
   gradientUnits="userSpaceOnUse"
   x1="2030.0597"
   y1="2249.3337"
   x2="2055.4304"
   y2="2274.7043"
   gradientTransform="matrix(-1,0.23087,0,-1,2473.6924,2008.4485)">
				<stop
   offset="0"
   style="stop-color:#C25CBD"
   id="stop3285" />
				<stop
   offset="0.18185"
   style="stop-color:#BF5ABA"
   id="stop3287" />
				<stop
   offset="0.32793"
   style="stop-color:#B556B0"
   id="stop3289" />
				<stop
   offset="0.46165"
   style="stop-color:#A44EA0"
   id="stop3291" />
				<stop
   offset="0.58795"
   style="stop-color:#8C4288"
   id="stop3293" />
				<stop
   offset="0.70909"
   style="stop-color:#6D346A"
   id="stop3295" />
				<stop
   offset="0.82635"
   style="stop-color:#472246"
   id="stop3297" />
				<stop
   offset="0.93834"
   style="stop-color:#1C0D1B"
   id="stop3299" />
				<stop
   offset="1"
   style="stop-color:#000000"
   id="stop3301" />
			</linearGradient>
			<polygon
   class="st5"
   points="425.38425,213.8614 435.6236,208.02933 445.86349,209.13341 425.38373,234.12848 421.9212,224.79439 "
   id="polygon3304"
   style="fill:url(#SVGID_4_)" />
		</g>
		<g
   id="g3310">
			<polygon
   class="st6"
   points="425.38373,213.86153 425.38373,234.12848 403.06036,239.28224 403.06036,219.01527 "
   id="polygon3308" />
		</g>
		<g
   id="g3314">
			<polygon
   class="st6"
   points="425.38373,153.21306 425.38373,173.48003 403.06036,178.63377 403.06036,158.36682 "
   id="polygon3312" />
		</g>
		<g
   id="g3318">
			<polygon
   class="st6"
   points="403.06036,178.63377 403.06036,219.01527 382.58118,223.74327 382.58118,183.36177 "
   id="polygon3316" />
		</g>
		<g
   id="g3322">
			<polygon
   class="st6"
   points="445.86349,168.75189 445.86349,209.13341 425.38373,213.86153 425.38373,173.48003 "
   id="polygon3320" />
		</g>
	</g>
	<g
   id="I">
		<g
   id="g3354">
			
				<linearGradient
   id="SVGID_5_"
   gradientUnits="userSpaceOnUse"
   x1="354.7067"
   y1="41.98114"
   x2="354.7067"
   y2="-36.433029"
   gradientTransform="matrix(1,-0.23087,0,1,0,289.1044)">
				<stop
   offset="0"
   style="stop-color:#000000"
   id="stop3325" />
				<stop
   offset="0.09966"
   style="stop-color:#3A1C39"
   id="stop3327" />
				<stop
   offset="0.19597"
   style="stop-color:#6B3368"
   id="stop3329" />
				<stop
   offset="0.28653"
   style="stop-color:#91458D"
   id="stop3331" />
				<stop
   offset="0.36996"
   style="stop-color:#AC51A7"
   id="stop3333" />
				<stop
   offset="0.44369"
   style="stop-color:#BC59B7"
   id="stop3335" />
				<stop
   offset="0.5"
   style="stop-color:#C25CBD"
   id="stop3337" />
				<stop
   offset="0.55631"
   style="stop-color:#BC59B7"
   id="stop3339" />
				<stop
   offset="0.63004"
   style="stop-color:#AC51A7"
   id="stop3341" />
				<stop
   offset="0.71347"
   style="stop-color:#91458D"
   id="stop3343" />
				<stop
   offset="0.80403"
   style="stop-color:#6B3368"
   id="stop3345" />
				<stop
   offset="0.90034"
   style="stop-color:#3A1C39"
   id="stop3347" />
				<stop
   offset="1"
   style="stop-color:#000000"
   id="stop3349" />
			</linearGradient>
			<polygon
   class="st7"
   points="364.94656,168.41681 364.94656,246.83098 344.46683,251.5591 344.46683,173.14493 "
   id="polygon3352"
   style="fill:url(#SVGID_5_)" />
		</g>
		<g
   id="g3358">
			<polygon
   class="st6"
   points="375.85959,164.64661 375.85959,184.91356 333.5538,194.68063 333.5538,174.41367 "
   id="polygon3356" />
		</g>
		<g
   id="g3362">
			<polygon
   class="st6"
   points="375.85959,225.29507 375.85959,245.56203 333.5538,255.32909 333.5538,235.06213 "
   id="polygon3360" />
		</g>
	</g>
	<g
   id="D">
		<g
   id="g3367">
			<polygon
   class="st6"
   points="313.37811,194.5327 329.61499,203.811 311.85406,224.24422 "
   id="polygon3365" />
		</g>
		<g
   id="g3376">
			
				<linearGradient
   id="SVGID_6_"
   gradientUnits="userSpaceOnUse"
   x1="323.60626"
   y1="-14.8488"
   x2="229.89845"
   y2="-14.8488"
   gradientTransform="matrix(1,-0.23087,0,1,0,289.1044)">
				<stop
   offset="0.11503"
   style="stop-color:#C25CBD"
   id="stop3369" />
				<stop
   offset="0.68658"
   style="stop-color:#000000"
   id="stop3371" />
			</linearGradient>
			<polygon
   class="st8"
   points="317.28458,196.76498 317.28458,223.83961 288.32693,207.2912 294.10718,183.52065 "
   id="polygon3374"
   style="fill:url(#SVGID_6_)" />
		</g>
		<g
   id="g3385">
			
				<linearGradient
   id="SVGID_7_"
   gradientUnits="userSpaceOnUse"
   x1="323.20242"
   y1="17.01795"
   x2="226.85637"
   y2="17.01795"
   gradientTransform="matrix(1,-0.23087,0,1,0,289.1044)">
				<stop
   offset="0"
   style="stop-color:#C25CBD"
   id="stop3378" />
				<stop
   offset="1"
   style="stop-color:#000000"
   id="stop3380" />
			</linearGradient>
			<polygon
   class="st9"
   points="294.10718,264.43607 289.40848,242.21588 329.61499,203.811 329.61499,227.75044 "
   id="polygon3383"
   style="fill:url(#SVGID_7_)" />
		</g>
		<g
   id="g3389">
			<polygon
   class="st6"
   points="294.10718,183.52065 294.10718,264.43607 273.62744,269.16418 273.62744,188.24876 "
   id="polygon3387" />
		</g>
	</g>
	<g
   id="U">
		<g
   id="g3399">
			
				<linearGradient
   id="SVGID_8_"
   gradientUnits="userSpaceOnUse"
   x1="226.90118"
   y1="-22.7658"
   x2="226.90118"
   y2="140.27734"
   gradientTransform="matrix(1,-0.23087,0,1,0,289.1044)">
				<stop
   offset="0"
   style="stop-color:#C25CBD"
   id="stop3392" />
				<stop
   offset="1"
   style="stop-color:#000000"
   id="stop3394" />
			</linearGradient>
			<polygon
   class="st10"
   points="237.14107,196.6723 237.14107,264.25705 216.6613,262.04889 216.6613,201.40044 "
   id="polygon3397"
   style="fill:url(#SVGID_8_)" />
		</g>
		<g
   id="g3408">
			
				<linearGradient
   id="SVGID_9_"
   gradientUnits="userSpaceOnUse"
   x1="233.51901"
   y1="33.09819"
   x2="285.44223"
   y2="33.09819"
   gradientTransform="matrix(1,-0.23087,0,1,0,289.1044)">
				<stop
   offset="0"
   style="stop-color:#C25CBD"
   id="stop3401" />
				<stop
   offset="1"
   style="stop-color:#000000"
   id="stop3403" />
			</linearGradient>
			<polygon
   class="st11"
   points="252.20638,253.84267 246.42613,275.44409 232.90359,278.56601 216.6613,262.04889 "
   id="polygon3406"
   style="fill:url(#SVGID_9_)" />
		</g>
		<g
   id="g3412">
			<polygon
   class="st6"
   points="246.42613,275.44409 246.42613,194.52867 266.90591,189.80055 266.90591,254.6925 "
   id="polygon3410" />
		</g>
	</g>
	<g
   id="T">
		<g
   id="g3448">
			
				<linearGradient
   id="SVGID_10_"
   gradientUnits="userSpaceOnUse"
   x1="158.9104"
   y1="-27.55084"
   x2="210.13347"
   y2="-27.55084"
   gradientTransform="matrix(1,-0.23087,0,1,0,289.1044)">
				<stop
   offset="0.1"
   style="stop-color:#C25CBD"
   id="stop3415" />
				<stop
   offset="0.15545"
   style="stop-color:#BE5AB9"
   id="stop3417" />
				<stop
   offset="0.21294"
   style="stop-color:#B154AD"
   id="stop3419" />
				<stop
   offset="0.2714"
   style="stop-color:#9D4A99"
   id="stop3421" />
				<stop
   offset="0.33052"
   style="stop-color:#803C7C"
   id="stop3423" />
				<stop
   offset="0.39012"
   style="stop-color:#5A2B58"
   id="stop3425" />
				<stop
   offset="0.44928"
   style="stop-color:#2D152C"
   id="stop3427" />
				<stop
   offset="0.5"
   style="stop-color:#000000"
   id="stop3429" />
				<stop
   offset="0.55072"
   style="stop-color:#2D152C"
   id="stop3431" />
				<stop
   offset="0.60988"
   style="stop-color:#5A2B58"
   id="stop3433" />
				<stop
   offset="0.66948"
   style="stop-color:#803C7C"
   id="stop3435" />
				<stop
   offset="0.7286"
   style="stop-color:#9D4A99"
   id="stop3437" />
				<stop
   offset="0.78706"
   style="stop-color:#B154AD"
   id="stop3439" />
				<stop
   offset="0.84455"
   style="stop-color:#BE5AB9"
   id="stop3441" />
				<stop
   offset="0.9"
   style="stop-color:#C25CBD"
   id="stop3443" />
			</linearGradient>
			<path
   class="st12"
   d="m 193.06554,227.11433 -17.0872,3.9449 -16.3828,-12.53441 c -1.46107,-1.11786 -0.43051,-3.85089 1.63159,-4.32697 l 46.58961,-10.75607 c 2.0621,-0.47607 3.09267,1.78113 1.63158,3.57362 z"
   id="path3446"
   style="fill:url(#SVGID_10_)" />
		</g>
		<g
   id="g3452">
			<polygon
   class="st6"
   points="194.76183,206.45576 194.76183,285.33005 174.28206,290.05817 174.28206,211.18388 "
   id="polygon3450" />
		</g>
	</g>
	<g
   id="S_00000114042035609803708590000018275530301858250687_">
		<g
   id="g3492">
			
				<linearGradient
   id="SVGID_11_"
   gradientUnits="userSpaceOnUse"
   x1="117.53695"
   y1="1.7523299"
   x2="151.02953"
   y2="1.7523299"
   gradientTransform="matrix(1,-0.23087,0,1,0,289.1044)">
				<stop
   offset="0"
   style="stop-color:#000000"
   id="stop3455" />
				<stop
   offset="0.03083"
   style="stop-color:#1C0D1B"
   id="stop3457" />
				<stop
   offset="0.08683"
   style="stop-color:#472246"
   id="stop3459" />
				<stop
   offset="0.14546"
   style="stop-color:#6D346A"
   id="stop3461" />
				<stop
   offset="0.20603"
   style="stop-color:#8C4288"
   id="stop3463" />
				<stop
   offset="0.26917"
   style="stop-color:#A44EA0"
   id="stop3465" />
				<stop
   offset="0.33603"
   style="stop-color:#B556B0"
   id="stop3467" />
				<stop
   offset="0.40908"
   style="stop-color:#BF5ABA"
   id="stop3469" />
				<stop
   offset="0.5"
   style="stop-color:#C25CBD"
   id="stop3471" />
				<stop
   offset="0.59092"
   style="stop-color:#BF5ABA"
   id="stop3473" />
				<stop
   offset="0.66397"
   style="stop-color:#B556B0"
   id="stop3475" />
				<stop
   offset="0.73083"
   style="stop-color:#A44EA0"
   id="stop3477" />
				<stop
   offset="0.79397"
   style="stop-color:#8C4288"
   id="stop3479" />
				<stop
   offset="0.85454"
   style="stop-color:#6D346A"
   id="stop3481" />
				<stop
   offset="0.91317"
   style="stop-color:#472246"
   id="stop3483" />
				<stop
   offset="0.96917"
   style="stop-color:#1C0D1B"
   id="stop3485" />
				<stop
   offset="1"
   style="stop-color:#000000"
   id="stop3487" />
			</linearGradient>
			<polygon
   class="st13"
   points="145.24928,247.1898 151.02953,266.12228 123.31718,272.5202 117.53695,253.58771 "
   id="polygon3490"
   style="fill:url(#SVGID_11_)" />
		</g>
		<g
   id="g3501">
			
				<linearGradient
   id="SVGID_12_"
   gradientUnits="userSpaceOnUse"
   x1="90.591743"
   y1="-27.55076"
   x2="137.62881"
   y2="-27.55076"
   gradientTransform="matrix(1,-0.23087,0,1,0,289.1044)">
				<stop
   offset="0"
   style="stop-color:#000000"
   id="stop3494" />
				<stop
   offset="1"
   style="stop-color:#C25CBD"
   id="stop3496" />
			</linearGradient>
			<path
   class="st14"
   d="m 162.25729,234.22707 -44.72034,10.32449 5.78024,-21.60143 24.18828,-5.5843 16.38339,12.53423 c 1.46112,1.11784 0.43057,3.85092 -1.63157,4.32701 z"
   id="path3499"
   style="fill:url(#SVGID_12_)" />
		</g>
		<g
   id="g3510">
			
				<linearGradient
   id="SVGID_13_"
   gradientUnits="userSpaceOnUse"
   x1="1843.7764"
   y1="2316.0491"
   x2="1885.0332"
   y2="2316.0491"
   gradientTransform="matrix(-1,0.23087,0,-1,2012.6597,2171.5508)">
				<stop
   offset="0"
   style="stop-color:#321933"
   id="stop3503" />
				<stop
   offset="1"
   style="stop-color:#C25CBD"
   id="stop3505" />
			</linearGradient>
			<path
   class="st15"
   d="m 106.30916,285.48407 38.94011,-8.99005 v 20.26697 l -24.18827,5.58432 -16.38339,-12.53424 c -1.46113,-1.11783 -0.43059,-3.85093 1.63155,-4.327 z"
   id="path3508"
   style="fill:url(#SVGID_13_)" />
		</g>
		<g
   id="g3514">
			<polygon
   class="st6"
   points="123.31718,222.95013 123.31718,272.5202 103.04961,260.95822 103.04961,243.87038 "
   id="polygon3512" />
		</g>
		<g
   id="g3518">
			<polygon
   class="st6"
   points="145.24927,296.76044 145.24927,247.19037 165.51683,258.75235 165.51683,275.84018 "
   id="polygon3516" />
		</g>
	</g>
	<path
   id="E_1_"
   class="st16"
   d="m 419.22552,89.75443 c 4.67453,-1.76111 14.45856,-4.39188 22.67712,-6.17475 V 58.13893 l -41.07129,9.48206 v 67.99696 l 41.07129,-9.48205 v -11.3277 c -5.39215,1.41325 -16.56772,3.51553 -21.45969,4.34178 -5.95734,1.00006 -6.80533,-6.58796 -0.21741,-8.76218 3.78323,-1.23929 10.71887,-2.89164 16.13278,-4.41362 l 3e-5,-8.72261 c -4.93536,1.00008 -11.61044,2.15643 -16.87204,2.89567 -6.52263,0.93488 -7.65321,-7.6098 -0.26079,-10.39281 z" />
	<path
   id="S_2_"
   class="st16"
   d="m 381.89371,132.43713 c -0.24075,-2.25952 -4.14865,-2.77107 -10.23584,-4.23032 -10.64285,-2.64303 -17.23059,-8.91258 -16.55762,-19.92735 0.71616,-11.88905 6.73541,-20.18079 38.59134,-25.59054 v 24.73154 c -11.4953,1.43766 -17.8418,3.58812 -20.53351,5.78999 -2.87073,2.32964 -2.70331,6.14464 1.44031,7.52855 1.80017,0.60124 7.1225,2.37882 10.33896,3.45747 6.17261,2.05717 9.1925,5.21203 9.8222,10.79578 1.77795,15.75208 -26.73181,19.88306 -38.48642,21.60901 v -13.99561 c 14.08206,-2.8374 26.16385,-5.32417 25.62058,-10.16852 z" />
	<polygon
   id="I_1_"
   class="st16"
   points="349.10101,138.67395 333.77289,142.21272 333.77289,81.59547 349.10101,78.05669 " />
	<path
   id="D_2_"
   class="st16"
   d="m 281.46127,96.64942 v 66.11805 c 31.96124,-4.67453 45.87622,-17.02403 45.52829,-41.57095 -0.30429,-21.28569 -21.43786,-32.983 -45.52829,-24.5471 z m 16.4372,51.89871 c -4.21866,0.97609 -6.04419,-0.43491 -6.04419,-5.37033 v -15.56747 c 3e-5,-3.58749 -0.18561,-6.45312 3.21783,-7.41406 7.39243,-2.08729 15.65436,1.86989 16.4371,9.91448 0.91303,9.34917 -4.2879,16.28505 -13.61074,18.43738 z" />
	<path
   id="A_4_"
   class="st16"
   d="m 266.58551,128.75626 c -4.04404,-13.26274 -7.31757,-16.53587 -15.37175,-14.67605 -7.10054,1.63889 -11.13705,5.33549 -14.5238,18.30691 -3.32661,12.74092 -7.00436,30.94948 -9.96132,51.56113 l 11.72227,-2.7063 c 0.21744,-1.63066 0.60883,-3.54399 1.17415,-6.45747 0.60876,-2.93517 2.19591,-5.03381 5.34857,-5.76164 l 9.13176,-2.10823 c 2.44109,-0.56357 4.67458,1.36906 5.45726,4.63037 0.52179,2.17424 1.19583,5.25816 1.60889,7.32372 l 15.52405,-3.584 c -1.8916,-15.19785 -6.0878,-33.35268 -10.11008,-46.52844 z m -13.52376,28.98233 -7.71846,1.78195 c -1.93983,0.44785 -3.04395,-0.76006 -2.80473,-3.45613 0.21739,-2.52206 1.34802,-7.87062 1.78287,-9.69696 0.91318,-3.78317 2.82649,-5.6313 5.02248,-5.95741 3.54396,-0.56529 5.26158,2.02205 6.63133,8.54475 0.13048,0.6088 0.50011,1.93503 0.65227,3.71791 0.30441,3.63095 -0.82426,4.433 -3.56576,5.06589 z" />
	<path
   id="R_3_"
   class="st16"
   d="m 221.96297,135.90132 c 5e-5,-21.04932 -20.59717,-27.16137 -45.78929,-18.16112 v 66.22229 l 10.73618,-2.47864 5e-5,-15.28506 c 0,-2.59653 1.91093,-2.14432 3.67596,-0.56891 1.23991,1.10864 8.69397,8.32927 13.90158,13.52234 l 16.39,-3.78392 c 0,0 -14.28938,-14.59592 -15.93777,-16.04002 9.59839,-3.58843 17.02326,-12.93991 17.02329,-23.42696 z m -28.83889,19.79474 c -3.98232,0.93353 -6.19955,-1.28368 -6.19955,-6.02452 l 2e-5,-4.58037 c -2e-4,-3.30365 0.64183,-6.17038 3.58846,-7.10393 8.5554,-2.71053 14.51427,0.97734 14.51425,6.76843 -2e-5,5.41186 -4.14277,9.11698 -11.90318,10.94039 z" />
	<path
   id="A_3_"
   class="st16"
   d="m 161.69522,152.7876 c -4.04404,-13.26274 -7.31755,-16.53586 -15.37173,-14.67604 -7.10056,1.63889 -11.13707,5.33549 -14.5238,18.3069 -3.32663,12.74092 -7.00436,30.94948 -9.96133,51.56113 l 11.72227,-2.7063 c 0.21745,-1.63066 0.60884,-3.54399 1.17415,-6.45747 0.60878,-2.93517 2.19591,-5.0338 5.34859,-5.76163 l 9.13174,-2.10825 c 2.4411,-0.56355 4.67459,1.36908 5.45728,4.63037 0.52179,2.17424 1.19582,5.25816 1.60889,7.32372 l 15.52403,-3.584 c -1.8916,-15.19782 -6.0878,-33.35265 -10.11009,-46.52843 z m -13.52374,28.98234 -7.71848,1.78194 c -1.93983,0.44785 -3.04393,-0.76004 -2.80472,-3.45612 0.21738,-2.52208 1.34802,-7.87064 1.78285,-9.69698 0.91319,-3.78317 2.82651,-5.6313 5.02248,-5.9574 3.54398,-0.56531 5.2616,2.02203 6.63133,8.54475 0.13048,0.6088 0.50011,1.93501 0.65227,3.7179 0.3044,3.63098 -0.82425,4.43301 -3.56573,5.06591 z" />
	<path
   id="P_2_"
   class="st16"
   d="m 62.03537,125.10126 v 91.64636 l 22.69957,-5.24062 5e-5,-21.52522 c 1e-5,-3.93547 0.9784,-5.89233 3.32661,-6.30544 21.15472,-3.72139 36.22357,-14.35748 36.22363,-36.17993 1.2e-4,-23.96296 -25.7437,-36.85402 -62.24986,-22.39515 z m 30.28784,47.20363 c -4.82682,1.18016 -7.60993,-0.087 -7.60992,-4.13116 l 4e-5,-14.63292 c 1e-5,-4.13275 2.28301,-6.74025 6.82719,-7.32729 9.1103,-1.17406 13.21963,4.15297 13.2196,11.08887 -1e-5,5.78356 -3.41342,12.79623 -12.43691,15.0025 z" />
</g>
</svg>
