<?xml version="1.0" encoding="UTF-8" standalone="no"?>
<!-- Created with Inkscape (http://www.inkscape.org/) -->

<svg
   version="1.1"
   id="svg2"
   width="666.66669"
   height="477.08133"
   viewBox="0 0 666.66669 477.08133"
   sodipodi:docname="Paradise Studio Logo (Print).ai"
   xmlns:inkscape="http://www.inkscape.org/namespaces/inkscape"
   xmlns:sodipodi="http://sodipodi.sourceforge.net/DTD/sodipodi-0.dtd"
   xmlns="http://www.w3.org/2000/svg"
   xmlns:svg="http://www.w3.org/2000/svg">
  <defs
     id="defs6">
    <clipPath
       clipPathUnits="userSpaceOnUse"
       id="clipPath16">
      <path
         d="M 0,357.811 H 500 V 0 H 0 Z"
         id="path14" />
    </clipPath>
  </defs>
  <sodipodi:namedview
     id="namedview4"
     pagecolor="#ffffff"
     bordercolor="#000000"
     borderopacity="0.25"
     inkscape:showpageshadow="2"
     inkscape:pageopacity="0.0"
     inkscape:pagecheckerboard="0"
     inkscape:deskcolor="#d1d1d1" />
  <g
     id="g8"
     inkscape:groupmode="layer"
     inkscape:label="Paradise Studio Logo (Print)"
     transform="matrix(1.3333333,0,0,-1.3333333,0,477.08133)">
    <g
       id="g10">
      <g
         id="g12"
         clip-path="url(#clipPath16)">
        <g
           id="g18"
           transform="translate(390.3012,271.1559)">
          <path
             d="m 0,0 c -59.099,0 -107.179,-48.081 -107.179,-107.179 0,-59.099 48.08,-107.18 107.179,-107.18 59.099,0 107.179,48.081 107.179,107.18 C 107.179,-48.081 59.099,0 0,0"
             style="fill:#000000;fill-opacity:1;fill-rule:nonzero;stroke:none"
             id="path20" />
        </g>
        <g
           id="g22"
           transform="translate(273.603,225.7245)">
          <path
             d="m 0,0 c -54.069,0 -98.058,-43.988 -98.058,-98.058 0,-54.069 43.989,-98.057 98.058,-98.057 54.069,0 98.058,43.988 98.058,98.057 C 98.058,-43.988 54.069,0 0,0"
             style="fill:#000000;fill-opacity:1;fill-rule:nonzero;stroke:none"
             id="path24" />
        </g>
        <g
           id="g26"
           transform="translate(144.4673,196.1152)">
          <path
             d="m 0,0 c -54.069,0 -98.058,-43.988 -98.058,-98.058 0,-54.069 43.989,-98.057 98.058,-98.057 54.069,0 98.058,43.988 98.058,98.057 C 98.058,-43.988 54.069,0 0,0"
             style="fill:#000000;fill-opacity:1;fill-rule:nonzero;stroke:none"
             id="path28" />
        </g>
        <g
           id="g30"
           transform="translate(392.8207,357.8115)">
          <path
             d="m 0,0 c -59.099,0 -107.179,-48.081 -107.179,-107.179 0,-59.099 48.08,-107.18 107.179,-107.18 59.099,0 107.179,48.081 107.179,107.18 C 107.179,-48.081 59.099,0 0,0"
             style="fill:#000000;fill-opacity:1;fill-rule:nonzero;stroke:none"
             id="path32" />
        </g>
        <g
           id="g34"
           transform="translate(249.5784,322.7778)">
          <path
             d="m 0,0 c -59.099,0 -107.179,-48.081 -107.179,-107.179 0,-59.099 48.08,-107.179 107.179,-107.179 59.099,0 107.179,48.08 107.179,107.179 C 107.179,-48.081 59.099,0 0,0"
             style="fill:#000000;fill-opacity:1;fill-rule:nonzero;stroke:none"
             id="path36" />
        </g>
        <g
           id="g38"
           transform="translate(107.1793,297.1043)">
          <path
             d="m 0,0 c -59.099,0 -107.179,-48.081 -107.179,-107.179 0,-59.099 48.08,-107.18 107.179,-107.18 59.099,0 107.179,48.081 107.179,107.18 C 107.179,-48.081 59.099,0 0,0"
             style="fill:#000000;fill-opacity:1;fill-rule:nonzero;stroke:none"
             id="path40" />
        </g>
        <g
           id="g42"
           transform="translate(390.3012,259.7538)">
          <path
             d="m 0,0 c -52.812,0 -95.777,-42.966 -95.777,-95.777 0,-52.812 42.965,-95.777 95.777,-95.777 52.812,0 95.777,42.965 95.777,95.777 C 95.777,-42.966 52.812,0 0,0"
             style="fill:#ffffff;fill-opacity:1;fill-rule:nonzero;stroke:none"
             id="path44" />
        </g>
        <g
           id="g46"
           transform="translate(273.603,214.3224)">
          <path
             d="m 0,0 c -47.782,0 -86.656,-38.873 -86.656,-86.656 0,-47.782 38.874,-86.655 86.656,-86.655 47.782,0 86.656,38.873 86.656,86.655 C 86.656,-38.873 47.782,0 0,0"
             style="fill:#ffffff;fill-opacity:1;fill-rule:nonzero;stroke:none"
             id="path48" />
        </g>
        <g
           id="g50"
           transform="translate(144.4673,184.7132)">
          <path
             d="m 0,0 c -47.782,0 -86.656,-38.873 -86.656,-86.656 0,-47.782 38.874,-86.655 86.656,-86.655 47.782,0 86.656,38.873 86.656,86.655 C 86.656,-38.873 47.782,0 0,0"
             style="fill:#ffffff;fill-opacity:1;fill-rule:nonzero;stroke:none"
             id="path52" />
        </g>
        <g
           id="g54"
           transform="translate(392.8207,346.4095)">
          <path
             d="m 0,0 c -52.812,0 -95.777,-42.966 -95.777,-95.777 0,-52.812 42.965,-95.777 95.777,-95.777 52.812,0 95.777,42.965 95.777,95.777 C 95.777,-42.966 52.812,0 0,0"
             style="fill:#ffffff;fill-opacity:1;fill-rule:nonzero;stroke:none"
             id="path56" />
        </g>
        <g
           id="g58"
           transform="translate(249.5784,311.3758)">
          <path
             d="m 0,0 c -52.812,0 -95.777,-42.966 -95.777,-95.777 0,-52.812 42.965,-95.777 95.777,-95.777 52.812,0 95.777,42.965 95.777,95.777 C 95.777,-42.966 52.812,0 0,0"
             style="fill:#ffffff;fill-opacity:1;fill-rule:nonzero;stroke:none"
             id="path60" />
        </g>
        <g
           id="g62"
           transform="translate(107.1793,285.7022)">
          <path
             d="m 0,0 c -52.812,0 -95.777,-42.966 -95.777,-95.777 0,-52.812 42.965,-95.777 95.777,-95.777 52.812,0 95.777,42.965 95.777,95.777 C 95.777,-42.966 52.812,0 0,0"
             style="fill:#ffffff;fill-opacity:1;fill-rule:nonzero;stroke:none"
             id="path64" />
        </g>
        <g
           id="g66"
           transform="translate(390.3011,250.6322)">
          <path
             d="m 0,0 c -47.859,0 -86.656,-38.797 -86.656,-86.656 0,-47.858 38.797,-86.655 86.656,-86.655 47.859,0 86.656,38.797 86.656,86.655 C 86.656,-38.797 47.859,0 0,0"
             style="fill:#000000;fill-opacity:1;fill-rule:nonzero;stroke:none"
             id="path68" />
        </g>
        <g
           id="g70"
           transform="translate(273.6028,205.2007)">
          <path
             d="m 0,0 c -42.821,0 -77.534,-34.713 -77.534,-77.534 0,-42.821 34.713,-77.534 77.534,-77.534 42.821,0 77.534,34.713 77.534,77.534 C 77.534,-34.713 42.821,0 0,0"
             style="fill:#000000;fill-opacity:1;fill-rule:nonzero;stroke:none"
             id="path72" />
        </g>
        <g
           id="g74"
           transform="translate(144.4673,175.5916)">
          <path
             d="m 0,0 c -42.821,0 -77.534,-34.713 -77.534,-77.534 0,-42.821 34.713,-77.534 77.534,-77.534 42.821,0 77.534,34.713 77.534,77.534 C 77.534,-34.713 42.821,0 0,0"
             style="fill:#000000;fill-opacity:1;fill-rule:nonzero;stroke:none"
             id="path76" />
        </g>
        <g
           id="g78"
           transform="translate(392.8207,337.2879)">
          <path
             d="m 0,0 c -47.859,0 -86.656,-38.797 -86.656,-86.656 0,-47.858 38.797,-86.655 86.656,-86.655 47.859,0 86.656,38.797 86.656,86.655 C 86.656,-38.797 47.859,0 0,0"
             style="fill:#000000;fill-opacity:1;fill-rule:nonzero;stroke:none"
             id="path80" />
        </g>
        <g
           id="g82"
           transform="translate(249.5783,302.2542)">
          <path
             d="m 0,0 c -47.859,0 -86.656,-38.797 -86.656,-86.656 0,-47.858 38.797,-86.655 86.656,-86.655 47.859,0 86.656,38.797 86.656,86.655 C 86.656,-38.797 47.859,0 0,0"
             style="fill:#000000;fill-opacity:1;fill-rule:nonzero;stroke:none"
             id="path84" />
        </g>
        <g
           id="g86"
           transform="translate(107.1792,276.5807)">
          <path
             d="m 0,0 c -47.859,0 -86.656,-38.797 -86.656,-86.656 0,-47.858 38.797,-86.655 86.656,-86.655 47.859,0 86.656,38.797 86.656,86.655 C 86.656,-38.797 47.859,0 0,0"
             style="fill:#000000;fill-opacity:1;fill-rule:nonzero;stroke:none"
             id="path88" />
        </g>
        <path
           d="m 206.856,148.705 h -28.571 v 30.115 h 28.571 z"
           style="fill:#000000;fill-opacity:1;fill-rule:nonzero;stroke:none"
           id="path90" />
        <g
           id="g92"
           transform="translate(425.3838,143.9485)">
          <path
             d="m 0,0 v 0.001 l -22.323,-5.153 v 0 40.381 L 0,40.383 V 0.001 0.002 Z M 0,60.65 -22.323,55.496 -42.803,30.501 V -9.88 L -22.323,-25.419 0,-20.266 20.48,4.73 v 40.381 z"
             style="fill:#ffffff;fill-opacity:1;fill-rule:nonzero;stroke:none"
             id="path94" />
        </g>
        <g
           id="g96"
           transform="translate(375.8596,172.8979)">
          <path
             d="M 0,0 V 20.267 L -42.306,10.5 V -9.767 l 10.913,2.519 v -40.381 l -10.913,-2.52 V -70.416 L 0,-60.648 v 20.267 l -10.913,-2.52 v 40.382 z"
             style="fill:#ffffff;fill-opacity:1;fill-rule:nonzero;stroke:none"
             id="path98" />
        </g>
        <g
           id="g100"
           transform="translate(294.1072,147.217)">
          <path
             d="M 0,0 17.773,-10.157 0,-27.133 Z M 0,27.074 -20.48,22.346 V -58.57 L 0,-53.842 35.508,-17.156 V 6.783 Z"
             style="fill:#ffffff;fill-opacity:1;fill-rule:nonzero;stroke:none"
             id="path102" />
        </g>
        <g
           id="g104"
           transform="translate(246.4261,163.2827)">
          <path
             d="m 0,0 v -60.648 l -9.285,-2.144 v 60.648 l -20.48,-4.728 V -67.52 L -13.523,-84.037 0,-80.915 20.48,-60.164 V 4.728 Z"
             style="fill:#ffffff;fill-opacity:1;fill-rule:nonzero;stroke:none"
             id="path106" />
        </g>
        <g
           id="g108"
           transform="translate(207.8167,154.3697)">
          <path
             d="m 0,0 -46.59,-10.756 c -2.062,-0.476 -3.092,-3.209 -1.631,-4.327 l 14.686,-11.237 v -60.296 l 20.48,4.728 v 60.296 L 1.632,-3.574 C 3.093,-1.781 2.062,0.476 0,0"
             style="fill:#ffffff;fill-opacity:1;fill-rule:nonzero;stroke:none"
             id="path110" />
        </g>
        <g
           id="g112"
           transform="translate(145.2495,110.6209)">
          <path
             d="m 0,0 v 0.001 l -21.932,-5.064 v 9.036 l 38.94,8.99 c 2.062,0.477 3.092,3.21 1.631,4.327 L 2.256,29.825 -21.932,24.24 -42.2,3.32 V -13.768 L -21.932,-25.33 0,-20.266 v -9.038 l -38.94,-8.99 c -2.062,-0.476 -3.093,-3.209 -1.632,-4.327 L -24.189,-55.155 0,-49.57 v 0 l 20.267,20.92 v 17.088 z"
             style="fill:#ffffff;fill-opacity:1;fill-rule:nonzero;stroke:none"
             id="path114" />
        </g>
        <g
           id="g116"
           transform="translate(419.2255,268.057)">
          <path
             d="m 0,0 c 4.675,1.761 14.459,4.392 22.677,6.175 v 25.441 l -41.071,-9.482 v -67.998 l 41.006,9.467 v 11.328 c -5.392,-1.413 -16.502,-3.5 -21.394,-4.327 -5.958,-1 -6.806,6.588 -0.218,8.763 3.783,1.239 10.719,2.891 16.133,4.413 l -0.022,8.719 C 12.176,-8.501 5.522,-9.654 0.261,-10.393 -6.262,-11.328 -7.392,-2.783 0,0"
             style="fill:#ffffff;fill-opacity:1;fill-rule:nonzero;stroke:none"
             id="path118" />
        </g>
        <g
           id="g120"
           transform="translate(381.8938,225.3743)">
          <path
             d="m 0,0 c -0.241,2.26 -4.149,2.771 -10.236,4.23 -10.643,2.643 -17.231,8.913 -16.558,19.928 0.716,11.889 6.736,20.181 38.592,25.59 V 25.017 C 0.303,23.579 -6.044,21.429 -8.736,19.227 c -2.87,-2.33 -2.703,-6.145 1.441,-7.529 1.8,-0.601 7.122,-2.379 10.339,-3.457 6.172,-2.057 9.192,-5.212 9.822,-10.796 1.778,-15.752 -26.732,-19.883 -38.487,-21.609 v 13.995 C -11.539,-7.331 0.543,-4.844 0,0"
             style="fill:#ffffff;fill-opacity:1;fill-rule:nonzero;stroke:none"
             id="path122" />
        </g>
        <g
           id="g124"
           transform="translate(333.7728,215.5986)">
          <path
             d="m 0,0 v 60.618 l 15.328,3.538 V 3.539 Z"
             style="fill:#ffffff;fill-opacity:1;fill-rule:nonzero;stroke:none"
             id="path126" />
        </g>
        <g
           id="g128"
           transform="translate(297.8984,209.2633)">
          <path
             d="m 0,0 c -4.219,-0.976 -6.044,0.435 -6.044,5.37 v 15.568 c 0,3.587 -0.186,6.453 3.218,7.414 7.392,2.087 15.654,-1.87 16.437,-9.915 C 14.524,9.088 9.323,2.152 0,0 M -16.437,51.899 V -14.219 C 15.524,-9.545 29.439,2.805 29.091,27.352 28.787,48.638 7.653,60.335 -16.437,51.899"
             style="fill:#ffffff;fill-opacity:1;fill-rule:nonzero;stroke:none"
             id="path130" />
        </g>
        <g
           id="g132"
           transform="translate(253.0492,200.0727)">
          <path
             d="m 0,0 -7.719,-1.782 c -1.939,-0.448 -3.043,0.76 -2.804,3.456 0.217,2.522 1.348,7.871 1.783,9.697 0.913,3.783 2.826,5.632 5.022,5.958 3.544,0.565 5.262,-2.022 6.631,-8.545 C 3.044,8.175 3.414,6.849 3.566,5.066 3.87,1.435 2.742,0.633 0,0 M 13.524,28.983 C 9.48,42.245 6.206,45.518 -1.848,43.659 -8.949,42.02 -12.985,38.323 -16.372,25.352 -19.699,12.611 -23.351,-5.436 -26.308,-26.047 l 11.697,2.543 c 0.218,1.631 0.609,3.545 1.174,6.458 0.609,2.935 2.196,5.034 5.349,5.762 2.596,0.599 7.426,1.714 9.132,2.108 2.441,0.564 4.674,-1.369 5.457,-4.63 0.522,-2.175 1.196,-5.24 1.609,-7.306 l 15.524,3.566 c -1.892,15.198 -6.088,33.353 -10.11,46.529"
             style="fill:#ffffff;fill-opacity:1;fill-rule:nonzero;stroke:none"
             id="path134" />
        </g>
        <g
           id="g136"
           transform="translate(193.124,202.1162)">
          <path
             d="m 0,0 c -3.982,-0.934 -6.2,1.284 -6.2,6.025 v 4.58 c 0,3.304 0.642,6.17 3.589,7.104 8.555,2.71 14.514,-0.977 14.514,-6.769 C 11.903,5.529 7.76,1.823 0,0 m 28.839,19.795 c 0,21.049 -20.597,27.161 -45.789,18.161 v -66.223 l 10.736,2.478 v 15.286 c 0,2.597 1.911,2.145 3.676,0.569 1.24,-1.109 8.694,-8.329 13.901,-13.522 l 16.391,3.784 c 0,0 -14.29,14.596 -15.938,16.04 9.598,3.588 17.023,12.94 17.023,23.427"
             style="fill:#ffffff;fill-opacity:1;fill-rule:nonzero;stroke:none"
             id="path138" />
        </g>
        <g
           id="g140"
           transform="translate(148.1589,176.0414)">
          <path
             d="m 0,0 -7.719,-1.782 c -1.939,-0.448 -3.043,0.76 -2.804,3.456 0.217,2.522 1.348,7.871 1.783,9.697 0.913,3.783 2.826,5.632 5.022,5.958 3.544,0.565 5.262,-2.022 6.631,-8.545 C 3.044,8.175 3.414,6.849 3.566,5.066 3.87,1.435 2.742,0.633 0,0 M 13.524,28.982 C 9.48,42.245 6.206,45.518 -1.848,43.659 -8.949,42.02 -12.985,38.323 -16.372,25.352 -19.699,12.611 -23.351,-5.436 -26.308,-26.047 l 11.697,2.543 c 0.218,1.631 0.609,3.544 1.174,6.458 0.609,2.935 2.196,5.034 5.349,5.762 2.596,0.599 7.426,1.714 9.132,2.108 2.441,0.564 4.674,-1.369 5.457,-4.63 0.522,-2.175 1.196,-5.24 1.609,-7.306 l 15.524,3.566 c -1.892,15.198 -6.088,33.353 -10.11,46.528"
             style="fill:#ffffff;fill-opacity:1;fill-rule:nonzero;stroke:none"
             id="path142" />
        </g>
        <g
           id="g144"
           transform="translate(92.3232,185.5066)">
          <path
             d="m 0,0 c -4.827,-1.174 -7.61,0.087 -7.61,4.131 v 14.633 c 0,4.133 2.283,6.74 6.827,7.328 9.111,1.174 13.22,-4.153 13.22,-11.089 C 12.437,9.219 9.023,2.218 0,0 m -30.288,47.204 v -91.647 l 22.7,5.241 v 21.525 c 0,3.935 0.978,5.892 3.326,6.305 21.155,3.722 36.224,14.358 36.224,36.181 0,23.963 -25.744,36.854 -62.25,22.395"
             style="fill:#ffffff;fill-opacity:1;fill-rule:nonzero;stroke:none"
             id="path146" />
        </g>
      </g>
    </g>
  </g>
</svg>
