<?xml version="1.0" encoding="UTF-8" standalone="no"?>
<!-- Created with Inkscape (http://www.inkscape.org/) -->

<svg
   version="1.1"
   id="svg2"
   width="666.66669"
   height="486.97601"
   viewBox="0 0 666.66669 486.97601"
   sodipodi:docname="Rhythm Studio Logo (Print).ai"
   xmlns:inkscape="http://www.inkscape.org/namespaces/inkscape"
   xmlns:sodipodi="http://sodipodi.sourceforge.net/DTD/sodipodi-0.dtd"
   xmlns="http://www.w3.org/2000/svg"
   xmlns:svg="http://www.w3.org/2000/svg">
  <defs
     id="defs6">
    <clipPath
       clipPathUnits="userSpaceOnUse"
       id="clipPath16">
      <path
         d="M 0,365.232 H 500 V 0 H 0 Z"
         id="path14" />
    </clipPath>
  </defs>
  <sodipodi:namedview
     id="namedview4"
     pagecolor="#ffffff"
     bordercolor="#000000"
     borderopacity="0.25"
     inkscape:showpageshadow="2"
     inkscape:pageopacity="0.0"
     inkscape:pagecheckerboard="0"
     inkscape:deskcolor="#d1d1d1" />
  <g
     id="g8"
     inkscape:groupmode="layer"
     inkscape:label="Rhythm Studio Logo (Print)"
     transform="matrix(1.3333333,0,0,-1.3333333,0,486.976)">
    <g
       id="g10">
      <g
         id="g12"
         clip-path="url(#clipPath16)">
        <g
           id="g18"
           transform="translate(383.2581,291.4183)">
          <path
             d="m 0,0 c -64.372,0 -116.742,-52.37 -116.742,-116.742 0,-64.372 52.37,-116.742 116.742,-116.742 64.372,0 116.742,52.37 116.742,116.742 C 116.742,-52.37 64.372,0 0,0"
             style="fill:#000000;fill-opacity:1;fill-rule:nonzero;stroke:none"
             id="path20" />
        </g>
        <g
           id="g22"
           transform="translate(256.1479,241.9334)">
          <path
             d="m 0,0 c -58.893,0 -106.806,-47.913 -106.806,-106.806 0,-58.894 47.913,-106.807 106.806,-106.807 58.893,0 106.806,47.913 106.806,106.807 C 106.806,-47.913 58.893,0 0,0"
             style="fill:#000000;fill-opacity:1;fill-rule:nonzero;stroke:none"
             id="path24" />
        </g>
        <g
           id="g26"
           transform="translate(115.4904,213.6129)">
          <path
             d="m 0,0 c -58.893,0 -106.806,-47.913 -106.806,-106.806 0,-58.894 47.913,-106.807 106.806,-106.807 58.893,0 106.806,47.913 106.806,106.807 C 106.806,-47.913 58.893,0 0,0"
             style="fill:#000000;fill-opacity:1;fill-rule:nonzero;stroke:none"
             id="path28" />
        </g>
        <g
           id="g30"
           transform="translate(373.6686,365.232)">
          <path
             d="m 0,0 c -56.154,0 -101.839,-45.685 -101.839,-101.839 0,-56.154 45.685,-101.838 101.839,-101.838 56.154,0 101.839,45.684 101.839,101.838 C 101.839,-45.685 56.154,0 0,0"
             style="fill:#000000;fill-opacity:1;fill-rule:nonzero;stroke:none"
             id="path32" />
        </g>
        <g
           id="g34"
           transform="translate(241.4398,334.4651)">
          <path
             d="m 0,0 c -56.154,0 -101.839,-45.685 -101.839,-101.839 0,-56.154 45.685,-101.838 101.839,-101.838 56.154,0 101.839,45.684 101.839,101.838 C 101.839,-45.685 56.154,0 0,0"
             style="fill:#000000;fill-opacity:1;fill-rule:nonzero;stroke:none"
             id="path36" />
        </g>
        <g
           id="g38"
           transform="translate(111.7742,310.8693)">
          <path
             d="m 0,0 c -61.633,0 -111.774,-50.142 -111.774,-111.774 0,-61.633 50.141,-111.774 111.774,-111.774 61.633,0 111.774,50.141 111.774,111.774 C 111.774,-50.142 61.633,0 0,0"
             style="fill:#000000;fill-opacity:1;fill-rule:nonzero;stroke:none"
             id="path40" />
        </g>
        <g
           id="g42"
           transform="translate(383.2581,278.9989)">
          <path
             d="m 0,0 c -57.523,0 -104.323,-46.799 -104.323,-104.323 0,-57.523 46.8,-104.322 104.323,-104.322 57.523,0 104.323,46.799 104.323,104.322 C 104.323,-46.799 57.523,0 0,0"
             style="fill:#ffffff;fill-opacity:1;fill-rule:nonzero;stroke:none"
             id="path44" />
        </g>
        <g
           id="g46"
           transform="translate(256.1479,229.5141)">
          <path
             d="m 0,0 c -52.045,0 -94.387,-42.342 -94.387,-94.387 0,-52.045 42.342,-94.387 94.387,-94.387 52.045,0 94.387,42.342 94.387,94.387 C 94.387,-42.342 52.045,0 0,0"
             style="fill:#ffffff;fill-opacity:1;fill-rule:nonzero;stroke:none"
             id="path48" />
        </g>
        <g
           id="g50"
           transform="translate(115.4904,201.1936)">
          <path
             d="m 0,0 c -52.045,0 -94.387,-42.342 -94.387,-94.387 0,-52.045 42.342,-94.387 94.387,-94.387 52.045,0 94.387,42.342 94.387,94.387 C 94.387,-42.342 52.045,0 0,0"
             style="fill:#ffffff;fill-opacity:1;fill-rule:nonzero;stroke:none"
             id="path52" />
        </g>
        <g
           id="g54"
           transform="translate(373.6686,352.8127)">
          <path
             d="m 0,0 c -49.306,0 -89.419,-40.114 -89.419,-89.419 0,-49.306 40.113,-89.42 89.419,-89.42 49.306,0 89.419,40.114 89.419,89.42 C 89.419,-40.114 49.306,0 0,0"
             style="fill:#ffffff;fill-opacity:1;fill-rule:nonzero;stroke:none"
             id="path56" />
        </g>
        <g
           id="g58"
           transform="translate(241.4398,322.0457)">
          <path
             d="m 0,0 c -49.306,0 -89.419,-40.114 -89.419,-89.419 0,-49.306 40.113,-89.42 89.419,-89.42 49.306,0 89.419,40.114 89.419,89.42 C 89.419,-40.114 49.306,0 0,0"
             style="fill:#ffffff;fill-opacity:1;fill-rule:nonzero;stroke:none"
             id="path60" />
        </g>
        <g
           id="g62"
           transform="translate(111.7742,298.4499)">
          <path
             d="m 0,0 c -54.784,0 -99.355,-44.57 -99.355,-99.355 0,-54.784 44.571,-99.355 99.355,-99.355 54.784,0 99.355,44.571 99.355,99.355 C 99.355,-44.57 54.784,0 0,0"
             style="fill:#ffffff;fill-opacity:1;fill-rule:nonzero;stroke:none"
             id="path64" />
        </g>
        <g
           id="g66"
           transform="translate(383.258,269.0635)">
          <path
             d="m 0,0 c -52.129,0 -94.387,-42.259 -94.387,-94.387 0,-52.129 42.258,-94.387 94.387,-94.387 52.129,0 94.387,42.258 94.387,94.387 C 94.387,-42.259 52.129,0 0,0"
             style="fill:#000000;fill-opacity:1;fill-rule:nonzero;stroke:none"
             id="path68" />
        </g>
        <g
           id="g70"
           transform="translate(256.1477,219.5785)">
          <path
             d="m 0,0 c -46.641,0 -84.452,-37.81 -84.452,-84.452 0,-46.641 37.811,-84.451 84.452,-84.451 46.641,0 84.452,37.81 84.452,84.451 C 84.452,-37.81 46.641,0 0,0"
             style="fill:#000000;fill-opacity:1;fill-rule:nonzero;stroke:none"
             id="path72" />
        </g>
        <g
           id="g74"
           transform="translate(115.4905,191.2581)">
          <path
             d="m 0,0 c -46.641,0 -84.452,-37.81 -84.452,-84.452 0,-46.641 37.811,-84.451 84.452,-84.451 46.641,0 84.452,37.81 84.452,84.451 C 84.452,-37.81 46.641,0 0,0"
             style="fill:#000000;fill-opacity:1;fill-rule:nonzero;stroke:none"
             id="path76" />
        </g>
        <g
           id="g78"
           transform="translate(373.6684,342.8772)">
          <path
             d="m 0,0 c -43.898,0 -79.484,-35.586 -79.484,-79.484 0,-43.898 35.586,-79.484 79.484,-79.484 43.898,0 79.484,35.586 79.484,79.484 C 79.484,-35.586 43.898,0 0,0"
             style="fill:#000000;fill-opacity:1;fill-rule:nonzero;stroke:none"
             id="path80" />
        </g>
        <g
           id="g82"
           transform="translate(241.44,312.1101)">
          <path
             d="m 0,0 c -43.898,0 -79.484,-35.586 -79.484,-79.484 0,-43.898 35.586,-79.484 79.484,-79.484 43.898,0 79.484,35.586 79.484,79.484 C 79.484,-35.586 43.898,0 0,0"
             style="fill:#000000;fill-opacity:1;fill-rule:nonzero;stroke:none"
             id="path84" />
        </g>
        <g
           id="g86"
           transform="translate(111.774,288.5146)">
          <path
             d="m 0,0 c -49.385,0 -89.419,-40.034 -89.419,-89.419 0,-49.385 40.034,-89.42 89.419,-89.42 49.385,0 89.419,40.035 89.419,89.42 C 89.419,-40.034 49.385,0 0,0"
             style="fill:#000000;fill-opacity:1;fill-rule:nonzero;stroke:none"
             id="path88" />
        </g>
        <g
           id="g90"
           transform="translate(421.4706,152.8611)">
          <path
             d="m 0,0 v 0.002 l -24.315,-5.614 v 0 43.985 L 0,43.986 V 0.002 H 0.001 Z M 0,66.061 -24.315,60.448 -46.621,33.223 V -10.762 L -24.315,-27.687 0,-22.073 22.307,5.152 v 43.984 z"
             style="fill:#ffffff;fill-opacity:1;fill-rule:nonzero;stroke:none"
             id="path92" />
        </g>
        <g
           id="g94"
           transform="translate(367.5279,184.3936)">
          <path
             d="M 0,0 V 22.075 L -46.08,11.437 v -22.075 l 11.886,2.744 V -51.879 L -46.08,-54.623 V -76.698 L 0,-66.06 v 22.076 l -11.887,-2.745 v 43.985 z"
             style="fill:#ffffff;fill-opacity:1;fill-rule:nonzero;stroke:none"
             id="path96" />
        </g>
        <g
           id="g98"
           transform="translate(278.4814,124.3991)">
          <path
             d="m 0,0 v 34.336 c 0.375,-0.31 0.861,-0.392 1.426,-0.261 0.201,0.046 0.411,0.118 0.629,0.212 0.889,0.386 1.817,0.695 2.758,0.913 C 11.506,36.745 18.94,33.667 18.94,20.894 18.94,9.895 12.676,3.205 5.544,1.559 4.389,1.292 3.212,1.158 2.035,1.158 1.86,1.159 1.69,1.139 1.526,1.101 0.92,0.961 0.398,0.563 0,0 M 2.893,61.551 C 2.768,61.536 2.645,61.514 2.522,61.486 c 0,0 0,0 0,0 C 1.512,61.253 0.609,60.579 0,59.722 v 1.79 l -22.307,-5.15 V -31.773 L 0,-26.623 v 1.789 c 0.609,-0.575 1.512,-0.832 2.522,-0.599 0.122,0.028 0.246,0.063 0.371,0.106 14.969,5.101 35.783,21.586 35.783,51.7 0,30.115 -20.814,36.989 -35.783,35.178"
             style="fill:#ffffff;fill-opacity:1;fill-rule:nonzero;stroke:none"
             id="path100" />
        </g>
        <g
           id="g102"
           transform="translate(226.5462,173.9207)">
          <path
             d="m 0,0 v -66.06 l -10.114,-2.335 v 66.06 l -22.307,-5.15 v -66.059 l 17.692,-17.991 14.729,3.4 22.307,22.603 V 5.15 Z"
             style="fill:#ffffff;fill-opacity:1;fill-rule:nonzero;stroke:none"
             id="path104" />
        </g>
        <g
           id="g106"
           transform="translate(184.492,164.2123)">
          <path
             d="m 0,0 -50.746,-11.716 c -2.246,-0.518 -3.369,-3.495 -1.778,-4.713 l 15.997,-12.239 v -65.676 l 22.307,5.15 v 65.676 L 1.777,-3.892 C 3.369,-1.94 2.246,0.519 0,0"
             style="fill:#ffffff;fill-opacity:1;fill-rule:nonzero;stroke:none"
             id="path108" />
        </g>
        <g
           id="g110"
           transform="translate(116.3425,116.5602)">
          <path
             d="m 0,0 v 0.001 l -23.889,-5.515 v 9.842 l 42.414,9.792 c 2.246,0.519 3.369,3.496 1.777,4.713 L 2.457,32.486 -23.889,26.403 -45.965,3.616 V -14.996 L -23.889,-27.59 0,-22.074 v -9.844 l -42.415,-9.792 c -2.246,-0.519 -3.368,-3.496 -1.777,-4.713 L -26.347,-60.076 0,-53.993 v 0 l 22.076,22.787 v 18.613 z"
             style="fill:#ffffff;fill-opacity:1;fill-rule:nonzero;stroke:none"
             id="path112" />
        </g>
        <g
           id="g114"
           transform="translate(399.1053,313.0559)">
          <path
             d="m 0,0 c -6.066,-20.03 -9.499,-29.824 -12.49,-38.081 -5.097,-14.048 -10.384,-8.53 -12.848,-4.612 -2.865,4.591 -6.761,13.522 -13.522,29.887 l -16.703,-3.854 v -78.624 l 13.859,3.199 c -0.105,12.532 0.106,21.042 0.78,24.348 0.611,2.97 2.401,3.391 4.212,0.443 1.496,-2.423 3.855,-7.667 8.552,-18.451 l 9.286,2.144 c 5.118,13.754 7.879,20.688 9.838,24.079 1.58,2.759 4.592,4.697 5.498,-0.4 0.694,-3.855 0.631,-14.311 0.61,-27.117 l 14.365,3.316 V 2.64 Z"
             style="fill:#ffffff;fill-opacity:1;fill-rule:nonzero;stroke:none"
             id="path116" />
        </g>
        <g
           id="g118"
           transform="translate(321.3506,280.3812)">
          <path
             d="m 0,0 c -0.063,-10.742 -0.042,-20.536 -0.505,-24.116 -1.075,-8.552 -15.692,-12.406 -16.408,-4.529 -0.337,3.707 -0.632,8.605 -0.632,19.536 l -11.816,-2.728 V -83.87 l 15.06,3.476 c 0,11.437 0,16.406 0.189,20.324 0.527,10.321 16.029,12.659 17.377,3.686 0.61,-4.086 0.716,-6.045 0.716,-15.27 l 12.005,2.771 V 3.691 Z"
             style="fill:#ffffff;fill-opacity:1;fill-rule:nonzero;stroke:none"
             id="path120" />
        </g>
        <g
           id="g122"
           transform="translate(241.4398,270.0432)">
          <path
             d="m 0,0 v -28.994 l 8.404,1.94 c 5.097,1.176 7.203,0.513 7.203,-8.509 v -37.219 l 13.796,3.161 v 34.142 c 0,15.165 1.424,18.992 8.931,20.725 l 6.866,1.585 v 23.604 z"
             style="fill:#ffffff;fill-opacity:1;fill-rule:nonzero;stroke:none"
             id="path124" />
        </g>
        <g
           id="g126"
           transform="translate(235.7951,255.4188)">
          <path
             d="m 0,0 -12.89,-2.976 c 0,0 0.189,-13.269 -0.316,-23.042 -0.737,-14.302 -15.144,-17.377 -16.302,-3.77 -0.59,7.14 -0.864,21.371 -0.864,21.371 l -16.028,-3.7 v -11.605 c 0,-27.697 18.008,-31.11 27.423,-23.211 0.568,0.484 1.137,0.779 1.6,0.569 0.527,-0.232 0.506,-0.801 0.295,-1.854 -0.568,-2.759 -4.654,-8.214 -12.911,-10.426 -6.298,-1.685 -12.469,-2.748 -15.544,-3.232 v -19.22 c 13.859,1.79 29.909,5.75 37.386,17.25 3.896,6.003 5.94,12.342 6.95,21.736 C 0.379,-27.324 0,0 0,0"
             style="fill:#ffffff;fill-opacity:1;fill-rule:nonzero;stroke:none"
             id="path128" />
        </g>
        <g
           id="g130"
           transform="translate(166.8707,246.6105)">
          <path
             d="m 0,0 c -0.063,-10.742 -0.042,-20.536 -0.505,-24.116 -1.075,-8.552 -15.692,-12.406 -16.408,-4.529 -0.337,3.707 -0.632,8.605 -0.632,19.536 l -11.816,-2.728 V -83.87 l 15.06,3.476 c 0,11.437 0,16.406 0.189,20.324 0.527,10.321 16.029,12.659 17.377,3.686 0.61,-4.086 0.716,-6.045 0.716,-15.27 l 12.005,2.771 V 3.691 Z"
             style="fill:#ffffff;fill-opacity:1;fill-rule:nonzero;stroke:none"
             id="path132" />
        </g>
        <g
           id="g134"
           transform="translate(89.3317,193.7077)">
          <path
             d="m 0,0 c -5.75,-1.348 -8.952,1.853 -8.952,8.699 v 6.613 c 0,4.77 0.927,8.91 5.182,10.258 C 8.583,29.483 17.187,24.159 17.187,15.797 17.187,7.983 11.205,2.633 0,0 m 41.64,28.582 c 0,30.393 -29.74,39.218 -66.115,26.222 v -98.111 l 15.502,3.579 v 24.563 c 0,3.749 2.76,3.096 5.308,0.822 1.79,-1.601 12.553,-12.027 20.073,-19.525 l 23.665,5.463 c 0,0 -20.632,21.075 -23.012,23.16 13.859,5.182 24.579,18.684 24.579,33.827"
             style="fill:#ffffff;fill-opacity:1;fill-rule:nonzero;stroke:none"
             id="path136" />
        </g>
      </g>
    </g>
  </g>
</svg>
