<?xml version="1.0" encoding="UTF-8" standalone="no"?>
<!-- Created with Inkscape (http://www.inkscape.org/) -->

<svg
   version="1.1"
   id="svg2"
   width="666.66669"
   height="456.05334"
   viewBox="0 0 666.66669 456.05334"
   sodipodi:docname="Rhythm Studio Logo (Wordmark).ai"
   xmlns:inkscape="http://www.inkscape.org/namespaces/inkscape"
   xmlns:sodipodi="http://sodipodi.sourceforge.net/DTD/sodipodi-0.dtd"
   xmlns="http://www.w3.org/2000/svg"
   xmlns:svg="http://www.w3.org/2000/svg">
  <defs
     id="defs6">
    <clipPath
       clipPathUnits="userSpaceOnUse"
       id="clipPath24">
      <path
         d="M 0,342.04 H 500 V 0 H 0 Z"
         id="path22" />
    </clipPath>
  </defs>
  <sodipodi:namedview
     id="namedview4"
     pagecolor="#ffffff"
     bordercolor="#000000"
     borderopacity="0.25"
     inkscape:showpageshadow="2"
     inkscape:pageopacity="0.0"
     inkscape:pagecheckerboard="0"
     inkscape:deskcolor="#d1d1d1" />
  <g
     id="g8"
     inkscape:groupmode="layer"
     inkscape:label="Rhythm Studio Logo (Wordmark)"
     transform="matrix(1.3333333,0,0,-1.3333333,0,456.05333)">
    <g
       id="g10"
       transform="translate(438.48,206.9361)">
      <path
         d="m 0,0 -29.434,-35.924 v -58.04 L 0,-116.297 l 32.085,7.407 29.435,35.924 v 58.04 L 32.085,7.407 Z m 0,-87.168 v 58.039 l 32.085,7.408 v -58.04 h 10e-4 l -10e-4,-0.002 v 0.002 L 0.001,-87.169 Z"
         style="fill:#000000;fill-opacity:1;fill-rule:nonzero;stroke:none"
         id="path12" />
    </g>
    <g
       id="g14"
       transform="translate(399.3855,168.7811)">
      <path
         d="M 0,0 V 29.129 L -60.805,15.091 v -29.129 l 15.685,3.621 v -58.039 l -15.685,-3.621 v -29.129 L 0,-87.168 v 29.129 l -15.685,-3.621 v 58.039 z"
         style="fill:#000000;fill-opacity:1;fill-rule:nonzero;stroke:none"
         id="path16" />
    </g>
    <g
       id="g18">
      <g
         id="g20"
         clip-path="url(#clipPath24)">
        <g
           id="g26"
           transform="translate(281.8853,89.616)">
          <path
             d="m 0,0 v 45.308 c 0.495,-0.409 1.136,-0.517 1.881,-0.345 0.266,0.061 0.543,0.155 0.831,0.28 1.173,0.51 2.397,0.918 3.639,1.204 8.832,2.039 18.64,-2.022 18.64,-18.876 C 24.991,13.057 16.727,4.229 7.316,2.057 5.792,1.705 4.239,1.527 2.685,1.529 2.455,1.529 2.23,1.503 2.013,1.453 1.214,1.268 0.525,0.743 0,0 M 3.817,81.219 C 3.653,81.199 3.49,81.171 3.328,81.133 c 0,0 0,0 0,0 C 1.995,80.825 0.804,79.937 0,78.806 v 2.361 L -29.435,74.371 V -41.926 L 0,-35.13 v 2.361 c 0.804,-0.76 1.995,-1.099 3.328,-0.791 0.161,0.037 0.325,0.084 0.489,0.14 19.753,6.731 47.217,28.483 47.217,68.221 0,39.737 -27.464,48.807 -47.217,46.418"
             style="fill:#000000;fill-opacity:1;fill-rule:nonzero;stroke:none"
             id="path28" />
        </g>
        <g
           id="g30"
           transform="translate(213.3548,154.9616)">
          <path
             d="m 0,0 v -87.168 l -13.345,-3.081 V -3.081 L -42.78,-9.877 v -87.168 l 23.344,-23.739 19.436,4.487 29.435,29.825 V 6.796 Z"
             style="fill:#000000;fill-opacity:1;fill-rule:nonzero;stroke:none"
             id="path32" />
        </g>
        <g
           id="g34"
           transform="translate(157.8627,142.151)">
          <path
             d="m 0,0 -66.962,-15.459 c -2.964,-0.685 -4.445,-4.613 -2.345,-6.219 l 21.109,-16.15 v -86.663 l 29.435,6.795 v 86.663 L 2.345,-5.136 C 4.445,-2.56 2.964,0.684 0,0"
             style="fill:#000000;fill-opacity:1;fill-rule:nonzero;stroke:none"
             id="path36" />
        </g>
        <g
           id="g38"
           transform="translate(67.9368,79.2722)">
          <path
             d="M 0,0 V 0.001 L -31.523,-7.276 V 5.711 l 55.968,12.921 c 2.964,0.684 4.445,4.612 2.345,6.219 L 3.242,42.866 -31.523,34.84 -60.653,4.772 v -24.56 L -31.523,-36.406 0,-29.128 v -12.989 l -55.968,-12.921 c -2.964,-0.684 -4.445,-4.613 -2.345,-6.219 L -34.765,-79.272 0,-71.246 v 10e-4 l 29.13,30.068 v 24.56 z"
             style="fill:#000000;fill-opacity:1;fill-rule:nonzero;stroke:none"
             id="path40" />
        </g>
        <g
           id="g42"
           transform="translate(441.0532,338.5559)">
          <path
             d="m 0,0 c -8.004,-26.431 -12.535,-39.354 -16.481,-50.249 -6.726,-18.538 -13.702,-11.256 -16.954,-6.087 -3.779,6.059 -8.921,17.843 -17.843,39.438 l -22.039,-5.086 v -103.747 l 18.288,4.222 c -0.139,16.536 0.138,27.764 1.028,32.128 0.806,3.919 3.168,4.475 5.558,0.584 1.974,-3.197 5.087,-10.117 11.284,-24.347 l 12.254,2.829 c 6.753,18.149 10.397,27.298 12.982,31.773 2.084,3.641 6.059,6.198 7.254,-0.528 0.917,-5.086 0.834,-18.884 0.806,-35.782 l 18.954,4.376 V 3.484 Z"
             style="fill:#000000;fill-opacity:1;fill-rule:nonzero;stroke:none"
             id="path44" />
        </g>
        <g
           id="g46"
           transform="translate(338.4528,295.4403)">
          <path
             d="m 0,0 c -0.083,-14.174 -0.056,-27.098 -0.667,-31.823 -1.417,-11.283 -20.706,-16.369 -21.651,-5.975 -0.444,4.892 -0.833,11.354 -0.833,25.778 l -15.592,-3.599 v -95.051 l 19.872,4.588 c 0,15.091 0,21.648 0.25,26.817 0.695,13.619 21.15,16.704 22.929,4.864 0.806,-5.392 0.945,-7.976 0.945,-20.149 l 15.842,3.657 V 4.87 Z"
             style="fill:#000000;fill-opacity:1;fill-rule:nonzero;stroke:none"
             id="path48" />
        </g>
        <g
           id="g50"
           transform="translate(233.0075,281.799)">
          <path
             d="m 0,0 v -38.259 l 11.089,2.56 c 6.726,1.553 9.505,0.677 9.505,-11.228 v -49.112 l 18.205,4.171 v 45.052 c 0,20.011 1.878,25.061 11.784,27.348 l 9.06,2.091 V 13.77 Z"
             style="fill:#000000;fill-opacity:1;fill-rule:nonzero;stroke:none"
             id="path52" />
        </g>
        <g
           id="g54"
           transform="translate(225.5591,262.5016)">
          <path
             d="m 0,0 -17.009,-3.927 c 0,0 0.25,-17.509 -0.417,-30.405 -0.973,-18.871 -19.983,-22.929 -21.511,-4.975 -0.779,9.422 -1.14,28.201 -1.14,28.201 l -21.15,-4.883 v -15.314 c 0,-36.547 23.762,-41.049 36.186,-30.627 0.75,0.639 1.501,1.028 2.112,0.75 0.695,-0.305 0.667,-1.056 0.389,-2.445 -0.75,-3.641 -6.142,-10.84 -17.037,-13.758 -8.31,-2.223 -16.453,-3.626 -20.511,-4.265 v -25.362 c 18.288,2.363 39.466,7.588 49.332,22.763 5.142,7.92 7.838,16.286 9.172,28.681 C 0.5,-36.055 0,0 0,0"
             style="fill:#000000;fill-opacity:1;fill-rule:nonzero;stroke:none"
             id="path56" />
        </g>
        <g
           id="g58"
           transform="translate(134.6107,250.8786)">
          <path
             d="m 0,0 c -0.083,-14.174 -0.056,-27.098 -0.667,-31.823 -1.417,-11.283 -20.706,-16.369 -21.651,-5.975 -0.444,4.892 -0.833,11.354 -0.833,25.778 l -15.592,-3.599 v -95.051 l 19.872,4.588 c 0,15.091 0,21.648 0.25,26.817 0.695,13.619 21.15,16.704 22.929,4.864 0.806,-5.392 0.945,-7.976 0.945,-20.149 l 15.842,3.657 V 4.87 Z"
             style="fill:#000000;fill-opacity:1;fill-rule:nonzero;stroke:none"
             id="path60" />
        </g>
        <g
           id="g62"
           transform="translate(32.2951,181.0714)">
          <path
             d="m 0,0 c -7.587,-1.779 -11.812,2.446 -11.812,11.478 v 8.727 c 0,6.295 1.223,11.757 6.837,13.535 16.3,5.165 27.654,-1.862 27.654,-12.895 C 22.679,10.533 14.786,3.474 0,0 m 54.946,37.715 c 0,40.104 -39.243,51.75 -87.241,34.601 V -57.145 l 20.455,4.723 v 32.411 c 0,4.947 3.641,4.086 7.004,1.084 2.362,-2.112 16.565,-15.869 26.486,-25.764 l 31.228,7.21 c 0,0 -27.225,27.809 -30.366,30.561 18.288,6.837 32.434,24.654 32.434,44.635"
             style="fill:#000000;fill-opacity:1;fill-rule:nonzero;stroke:none"
             id="path64" />
        </g>
      </g>
    </g>
  </g>
</svg>
