<?xml version="1.0" encoding="UTF-8" standalone="no"?>
<!-- Created with Inkscape (http://www.inkscape.org/) -->

<svg
   version="1.1"
   id="svg2"
   width="666.66669"
   height="464.95599"
   viewBox="0 0 666.66669 464.95599"
   sodipodi:docname="Tengoku Studio (天国スタジオ) Logo (Print).ai"
   xmlns:inkscape="http://www.inkscape.org/namespaces/inkscape"
   xmlns:sodipodi="http://sodipodi.sourceforge.net/DTD/sodipodi-0.dtd"
   xmlns="http://www.w3.org/2000/svg"
   xmlns:svg="http://www.w3.org/2000/svg">
  <defs
     id="defs6">
    <clipPath
       clipPathUnits="userSpaceOnUse"
       id="clipPath16">
      <path
         d="M 0,348.717 H 500 V 0 H 0 Z"
         id="path14" />
    </clipPath>
  </defs>
  <sodipodi:namedview
     id="namedview4"
     pagecolor="#ffffff"
     bordercolor="#000000"
     borderopacity="0.25"
     inkscape:showpageshadow="2"
     inkscape:pageopacity="0.0"
     inkscape:pagecheckerboard="0"
     inkscape:deskcolor="#d1d1d1" />
  <g
     id="g8"
     inkscape:groupmode="layer"
     inkscape:label="Tengoku Studio (天国スタジオ) Logo (Print)"
     transform="matrix(1.3333333,0,0,-1.3333333,0,464.956)">
    <g
       id="g10">
      <g
         id="g12"
         clip-path="url(#clipPath16)">
        <g
           id="g18"
           transform="translate(401.8948,265.6274)">
          <path
             d="m 0,0 c -54.096,0 -98.105,-44.678 -98.105,-99.594 0,-54.917 44.009,-99.595 98.105,-99.595 54.096,0 98.105,44.678 98.105,99.595 C 98.105,-44.678 54.096,0 0,0"
             style="fill:#000000;fill-opacity:1;fill-rule:nonzero;stroke:none"
             id="path20" />
        </g>
        <g
           id="g22"
           transform="translate(290.5633,242.149)">
          <path
             d="m 0,0 c -54.096,0 -98.105,-44.678 -98.105,-99.594 0,-54.917 44.009,-99.595 98.105,-99.595 54.096,0 98.105,44.678 98.105,99.595 C 98.105,-44.678 54.096,0 0,0"
             style="fill:#000000;fill-opacity:1;fill-rule:nonzero;stroke:none"
             id="path24" />
        </g>
        <g
           id="g26"
           transform="translate(191.7831,222.535)">
          <path
             d="m 0,0 c -54.096,0 -98.105,-44.678 -98.105,-99.594 0,-54.917 44.009,-99.595 98.105,-99.595 54.096,0 98.105,44.678 98.105,99.595 C 98.105,-44.678 54.096,0 0,0"
             style="fill:#000000;fill-opacity:1;fill-rule:nonzero;stroke:none"
             id="path28" />
        </g>
        <g
           id="g30"
           transform="translate(98.1052,199.1891)">
          <path
             d="m 0,0 c -54.096,0 -98.105,-44.678 -98.105,-99.595 0,-54.916 44.009,-99.594 98.105,-99.594 54.095,0 98.104,44.678 98.104,99.594 C 98.104,-44.678 54.095,0 0,0"
             style="fill:#000000;fill-opacity:1;fill-rule:nonzero;stroke:none"
             id="path32" />
        </g>
        <g
           id="g34"
           transform="translate(298.6947,348.7173)">
          <path
             d="m 0,0 c -54.096,0 -98.105,-44.678 -98.105,-99.594 0,-54.917 44.009,-99.595 98.105,-99.595 54.096,0 98.105,44.678 98.105,99.595 C 98.105,-44.678 54.096,0 0,0"
             style="fill:#000000;fill-opacity:1;fill-rule:nonzero;stroke:none"
             id="path36" />
        </g>
        <g
           id="g38"
           transform="translate(173.107,322.5439)">
          <path
             d="m 0,0 c -54.096,0 -98.105,-44.678 -98.105,-99.594 0,-54.917 44.009,-99.595 98.105,-99.595 54.096,0 98.105,44.678 98.105,99.595 C 98.105,-44.678 54.096,0 0,0"
             style="fill:#000000;fill-opacity:1;fill-rule:nonzero;stroke:none"
             id="path40" />
        </g>
        <g
           id="g42"
           transform="translate(401.8948,254.9611)">
          <path
             d="m 0,0 c -48.214,0 -87.439,-39.893 -87.439,-88.928 0,-49.035 39.225,-88.928 87.439,-88.928 48.214,0 87.439,39.893 87.439,88.928 C 87.439,-39.893 48.214,0 0,0"
             style="fill:#ffffff;fill-opacity:1;fill-rule:nonzero;stroke:none"
             id="path44" />
        </g>
        <g
           id="g46"
           transform="translate(290.5633,231.4827)">
          <path
             d="m 0,0 c -48.214,0 -87.439,-39.893 -87.439,-88.928 0,-49.035 39.225,-88.928 87.439,-88.928 48.214,0 87.439,39.893 87.439,88.928 C 87.439,-39.893 48.214,0 0,0"
             style="fill:#ffffff;fill-opacity:1;fill-rule:nonzero;stroke:none"
             id="path48" />
        </g>
        <g
           id="g50"
           transform="translate(191.7831,211.8687)">
          <path
             d="m 0,0 c -48.214,0 -87.439,-39.893 -87.439,-88.928 0,-49.035 39.225,-88.928 87.439,-88.928 48.214,0 87.439,39.893 87.439,88.928 C 87.439,-39.893 48.214,0 0,0"
             style="fill:#ffffff;fill-opacity:1;fill-rule:nonzero;stroke:none"
             id="path52" />
        </g>
        <g
           id="g54"
           transform="translate(98.1052,188.5228)">
          <path
             d="m 0,0 c -48.214,0 -87.439,-39.893 -87.439,-88.928 0,-49.036 39.225,-88.928 87.439,-88.928 48.213,0 87.438,39.892 87.438,88.928 C 87.438,-39.893 48.213,0 0,0"
             style="fill:#ffffff;fill-opacity:1;fill-rule:nonzero;stroke:none"
             id="path56" />
        </g>
        <g
           id="g58"
           transform="translate(298.6947,338.051)">
          <path
             d="m 0,0 c -48.214,0 -87.439,-39.893 -87.439,-88.928 0,-49.035 39.225,-88.928 87.439,-88.928 48.214,0 87.439,39.893 87.439,88.928 C 87.439,-39.893 48.214,0 0,0"
             style="fill:#ffffff;fill-opacity:1;fill-rule:nonzero;stroke:none"
             id="path60" />
        </g>
        <g
           id="g62"
           transform="translate(173.107,311.8776)">
          <path
             d="m 0,0 c -48.214,0 -87.439,-39.893 -87.439,-88.928 0,-49.035 39.225,-88.928 87.439,-88.928 48.214,0 87.439,39.893 87.439,88.928 C 87.439,-39.893 48.214,0 0,0"
             style="fill:#ffffff;fill-opacity:1;fill-rule:nonzero;stroke:none"
             id="path64" />
        </g>
        <g
           id="g66"
           transform="translate(480.8006,166.033)">
          <path
             d="m 0,0 c 0,-44.401 -35.327,-80.395 -78.906,-80.395 -43.578,0 -78.905,35.994 -78.905,80.395 0,44.401 35.327,80.395 78.905,80.395 C -35.327,80.395 0,44.401 0,0"
             style="fill:#000000;fill-opacity:1;fill-rule:nonzero;stroke:none"
             id="path68" />
        </g>
        <g
           id="g70"
           transform="translate(369.4692,142.5546)">
          <path
             d="m 0,0 c 0,-44.401 -35.327,-80.395 -78.906,-80.395 -43.578,0 -78.906,35.994 -78.906,80.395 0,44.401 35.328,80.395 78.906,80.395 C -35.327,80.395 0,44.401 0,0"
             style="fill:#000000;fill-opacity:1;fill-rule:nonzero;stroke:none"
             id="path72" />
        </g>
        <g
           id="g74"
           transform="translate(270.6889,122.9407)">
          <path
             d="m 0,0 c 0,-44.401 -35.327,-80.395 -78.906,-80.395 -43.578,0 -78.905,35.994 -78.905,80.395 0,44.401 35.327,80.395 78.905,80.395 C -35.327,80.395 0,44.401 0,0"
             style="fill:#000000;fill-opacity:1;fill-rule:nonzero;stroke:none"
             id="path76" />
        </g>
        <g
           id="g78"
           transform="translate(177.0106,99.5945)">
          <path
             d="m 0,0 c 0,-44.401 -35.327,-80.395 -78.906,-80.395 -43.578,0 -78.905,35.994 -78.905,80.395 0,44.401 35.327,80.395 78.905,80.395 C -35.327,80.395 0,44.401 0,0"
             style="fill:#000000;fill-opacity:1;fill-rule:nonzero;stroke:none"
             id="path80" />
        </g>
        <g
           id="g82"
           transform="translate(377.6007,249.1227)">
          <path
             d="m 0,0 c 0,-44.401 -35.327,-80.395 -78.906,-80.395 -43.578,0 -78.905,35.994 -78.905,80.395 0,44.401 35.327,80.395 78.905,80.395 C -35.327,80.395 0,44.401 0,0"
             style="fill:#000000;fill-opacity:1;fill-rule:nonzero;stroke:none"
             id="path84" />
        </g>
        <g
           id="g86"
           transform="translate(252.0125,222.9496)">
          <path
             d="m 0,0 c 0,-44.401 -35.327,-80.395 -78.906,-80.395 -43.578,0 -78.905,35.994 -78.905,80.395 0,44.401 35.327,80.395 78.905,80.395 C -35.327,80.395 0,44.401 0,0"
             style="fill:#000000;fill-opacity:1;fill-rule:nonzero;stroke:none"
             id="path88" />
        </g>
        <g
           id="g90"
           transform="translate(415.1462,200.2827)">
          <path
             d="m 0,0 c 0,-44.214 -54.32,-89.719 -75.091,-99.092 v 17.92 c 36.698,24.325 56.234,60.442 59.732,78.4 L -15.36,-0.212 0,3.053 Z"
             style="fill:#ffffff;fill-opacity:1;fill-rule:nonzero;stroke:none"
             id="path92" />
        </g>
        <g
           id="g94"
           transform="translate(426.2672,119.5157)">
          <path
             d="M 0,0 -17.919,-3.809 V 100.294 L 0,104.103 Z"
             style="fill:#ffffff;fill-opacity:1;fill-rule:nonzero;stroke:none"
             id="path96" />
        </g>
        <g
           id="g98"
           transform="translate(444.1586,210.3559)">
          <path
             d="m 0,0 v -17.919 l -104.103,-22.128 v 17.919 z"
             style="fill:#ffffff;fill-opacity:1;fill-rule:nonzero;stroke:none"
             id="path100" />
        </g>
        <g
           id="g102"
           transform="translate(332.3755,120.0378)">
          <path
             d="M 0,0 -17.919,-8.075 V 62.749 L 0,66.558 Z"
             style="fill:#ffffff;fill-opacity:1;fill-rule:nonzero;stroke:none"
             id="path104" />
        </g>
        <g
           id="g106"
           transform="translate(248.7515,81.7836)">
          <path
             d="M 0,0 63.145,13.422 83.624,38.254 0,20.479 Z"
             style="fill:#ffffff;fill-opacity:1;fill-rule:nonzero;stroke:none"
             id="path108" />
        </g>
        <g
           id="g110"
           transform="translate(322.9891,186.3071)">
          <path
             d="m 0,0 -8.533,-1.814 v 15.36 L 0,15.36 Z"
             style="fill:#ffffff;fill-opacity:1;fill-rule:nonzero;stroke:none"
             id="path112" />
        </g>
        <g
           id="g114"
           transform="translate(332.3755,188.3022)">
          <path
             d="m 0,0 -8.533,-1.814 v 15.36 L 0,15.36 Z"
             style="fill:#ffffff;fill-opacity:1;fill-rule:nonzero;stroke:none"
             id="path116" />
        </g>
        <g
           id="g118"
           transform="translate(303.4191,166.3336)">
          <path
             d="m 0,0 -8.96,-17.423 -40.644,14.827 8.96,17.423 z"
             style="fill:#ffffff;fill-opacity:1;fill-rule:nonzero;stroke:none"
             id="path120" />
        </g>
        <g
           id="g122"
           transform="translate(291.4728,143.1028)">
          <path
             d="m 0,0 -8.96,-17.423 -40.644,14.827 8.96,17.423 z"
             style="fill:#ffffff;fill-opacity:1;fill-rule:nonzero;stroke:none"
             id="path124" />
        </g>
        <g
           id="g126"
           transform="translate(221.3896,145.9387)">
          <path
             d="m 0,0 -44.379,-9.433 8.231,22.229 30.175,6.414 z"
             style="fill:#ffffff;fill-opacity:1;fill-rule:nonzero;stroke:none"
             id="path128" />
        </g>
        <g
           id="g130"
           transform="translate(202.7178,141.9699)">
          <path
             d="M 0,0 -29.967,-6.37 -24.015,15.375 0,20.479 Z"
             style="fill:#ffffff;fill-opacity:1;fill-rule:nonzero;stroke:none"
             id="path132" />
        </g>
        <g
           id="g134"
           transform="translate(200.371,89.8856)">
          <path
             d="M 0,0 -31.053,24.453 -17.176,41.28 13.878,16.828 Z"
             style="fill:#ffffff;fill-opacity:1;fill-rule:nonzero;stroke:none"
             id="path136" />
        </g>
        <g
           id="g138"
           transform="translate(234.1892,144.3928)">
          <path
             d="m 0,0 c 0,-34.37 -19.756,-69.904 -60.31,-78.524 l -13.074,-2.779 v 20.479 l 18.772,3.991 c 7.14,1.517 35.839,9.886 35.839,57.109 v 20.48 L 0,5.973 Z"
             style="fill:#ffffff;fill-opacity:1;fill-rule:nonzero;stroke:none"
             id="path140" />
        </g>
        <g
           id="g142"
           transform="translate(169.1246,168.9617)">
          <path
             d="m 0,0 c -1.705,-18.444 -10.167,-30.737 -20.053,-36.688 v -20.479 c 25.87,10.786 38.469,36.928 40.532,61.52 z"
             style="fill:#ffffff;fill-opacity:1;fill-rule:nonzero;stroke:none"
             id="path144" />
        </g>
        <g
           id="g146"
           transform="translate(120.688,138.5126)">
          <path
             d="M 0,0 -56.318,-11.971 V 8.509 L -5.973,19.21 Z"
             style="fill:#ffffff;fill-opacity:1;fill-rule:nonzero;stroke:none"
             id="path148" />
        </g>
        <g
           id="g150"
           transform="translate(136.0475,57.5018)">
          <path
             d="M 0,0 -27.145,21.375 -13.267,38.203 13.878,16.828 Z"
             style="fill:#ffffff;fill-opacity:1;fill-rule:nonzero;stroke:none"
             id="path152" />
        </g>
        <g
           id="g154"
           transform="translate(132.6343,131.6655)">
          <path
             d="m 0,0 c 0,-34.013 -20.814,-78.662 -75.091,-90.199 v 20.48 c 60.628,12.886 57.172,66.591 57.172,75.296 v 20.48 L 0,11.946 Z"
             style="fill:#ffffff;fill-opacity:1;fill-rule:nonzero;stroke:none"
             id="path156" />
        </g>
        <g
           id="g158"
           transform="translate(319.1786,280.55)">
          <path
             d="m 0,0 -50.841,-10.806 c -2.733,-0.573 -4.524,-2.767 -4.79,-5.822 l -4.94,-56.46 50.841,10.806 c 2.527,0.523 4.504,2.552 4.79,5.822 z m 21.446,15.157 -7.255,-82.926 -96.196,-20.447 7.255,82.926 z m -35.344,-67.05 -5.616,-1.194 c -3.28,-0.697 -4.779,0.442 -4.598,2.508 l 1.148,13.12 10.525,2.237 0.611,6.983 -10.526,-2.238 0.935,10.687 c 0.297,3.392 1.953,5.218 4.647,5.791 l 6.307,1.341 0.569,6.505 -36.124,-7.678 -0.569,-6.506 5.687,1.209 c 3.975,0.845 4.651,-1.11 4.529,-2.508 l -1.054,-12.045 -10.525,-2.237 -0.611,-6.983 10.525,2.238 -1.029,-11.763 c -0.293,-3.346 -1.973,-5.236 -4.578,-5.79 l -6.377,-1.356 -0.565,-6.462 36.124,7.679 z m -4.696,11.075 5.773,1.227 -0.694,-7.934 -5.773,-1.227 z"
             style="fill:#ffffff;fill-opacity:1;fill-rule:nonzero;stroke:none"
             id="path160" />
        </g>
        <g
           id="g162"
           transform="translate(307.3963,299.9514)">
          <path
             d="m 0,0 c -0.493,0.18 -1.258,0.461 -1.258,0.906 0.001,0.373 0.341,0.73 1.174,1.565 3.319,3.353 3.693,3.736 6.094,6.45 L 4.191,9.868 C 2.999,8.369 2.54,7.864 -0.898,4.164 -2.668,2.259 -3.52,1.189 -3.521,0.318 c -10e-4,-1.137 1.224,-1.624 2.602,-2.166 2.566,-1.001 5.013,-2.206 7.307,-3.674 l 1.685,1.834 C 6.528,-2.63 2.499,-0.891 0,0"
             style="fill:#ffffff;fill-opacity:1;fill-rule:nonzero;stroke:none"
             id="path164" />
        </g>
        <g
           id="g166"
           transform="translate(268.5396,297.4079)">
          <path
             d="M 0,0 1.243,-1.017 C 3.247,0.69 4.785,1.775 6.962,2.635 L 6.963,4.404 C 5.858,4.169 0.4,2.991 -0.826,2.731 -1.689,2.547 -3.831,2.092 -4.35,1.999 L -4.351,-0.04 C -3.246,0.267 -1.76,0.619 1.798,1.429 0.674,0.613 0.553,0.514 0,0 m 2.774,-8.797 c -2.592,-0.551 -5.908,-1.219 -5.906,1.128 0.001,0.379 0.072,1.712 1.523,3.482 l -1.398,0.786 c -1.262,-1.748 -2.023,-3.047 -2.024,-4.708 -0.002,-1.426 0.913,-2.604 2.105,-2.946 1.467,-0.428 2.935,-0.278 6.337,0.445 2.677,0.569 3.885,0.988 4.49,1.207 L 7.834,-7.396 C 6.159,-8.005 4.466,-8.437 2.774,-8.797 m 4.979,7.502 1.208,1.016 C 8.599,0.42 8.03,1.237 7.341,1.921 L 6.131,0.924 C 6.804,0.183 7.149,-0.285 7.753,-1.295 M 5.198,0.491 c 0.898,-0.947 1.483,-2.013 1.639,-2.305 l -1.21,-1.015 c -0.776,1.405 -1.328,2.01 -1.604,2.331 z"
             style="fill:#ffffff;fill-opacity:1;fill-rule:nonzero;stroke:none"
             id="path168" />
        </g>
        <g
           id="g170"
           transform="translate(184.7887,212.6468)">
          <path
             d="m 0,0 c 0.519,3.72 0.858,9.269 0.858,9.269 l 35.871,7.625 1.272,14.539 -35.871,-7.625 1.139,13.018 35.871,7.625 1.269,14.502 -96.889,-20.594 -1.268,-14.503 35.286,7.501 -1.139,-13.018 -35.286,-7.501 -1.272,-14.538 35.286,7.5 -0.47,-5.376 c -1.506,-17.216 -11.388,-23.369 -25.846,-26.453 l -11.309,-2.403 -1.275,-14.571 24.629,5.235 c 18.915,4.012 25.981,9.973 34.808,26.762 3.867,-1.943 14.123,-10.07 18.094,-15.517 l 25.472,5.414 C 32.524,-14.269 6.954,-2.005 0,0"
             style="fill:#ffffff;fill-opacity:1;fill-rule:nonzero;stroke:none"
             id="path172" />
        </g>
        <g
           id="g174"
           transform="translate(199.9871,278.5587)">
          <path
             d="m 0,0 c -0.367,-4.017 -1.26,-5.712 -2.631,-6.004 -1.457,-0.309 -1.454,1.322 -1.453,1.841 l 0.002,0.77 c 0.002,1.291 -0.062,4.053 -2.82,3.467 -1.165,-0.248 -1.834,-0.892 -2.211,-1.259 0.293,1.029 1.877,6.04 2.222,7.188 L -9.049,5.957 c -0.759,-2.705 -3.172,-11.33 -4.516,-15.843 l 1.969,-0.172 c 0.121,0.509 0.983,4.114 1.018,4.21 0.362,1.08 1.343,3.473 3.279,3.885 1.285,0.273 1.283,-0.891 1.281,-2.038 L -6.019,-4.61 c -10e-4,-0.395 0.049,-1.458 0.286,-2.07 0.377,-0.977 1.472,-1.64 2.877,-1.341 3.151,0.669 4.184,3.522 4.655,7.848 z"
             style="fill:#ffffff;fill-opacity:1;fill-rule:nonzero;stroke:none"
             id="path176" />
        </g>
        <g
           id="g178"
           transform="translate(155.8769,274.0032)">
          <path
             d="m 0,0 c 0.785,0.568 1.805,1.204 3.308,1.523 0.718,0.153 1.102,0.2 1.453,0.24 L 4.731,3.728 C 3.01,3.293 -4.656,1.349 -6.093,0.974 -7.245,0.677 -8.499,0.341 -9.651,0.096 l 0.064,-1.977 c 2.589,0.777 5.178,1.537 7.784,2.248 -3.73,-3.167 -4.618,-6.079 -4.622,-7.877 -0.002,-1.625 0.979,-3.074 2.481,-3.558 1.519,-0.498 3.305,-0.555 6.896,0.191 l 0.271,2.135 C -1.588,-9.921 -4.509,-9.6 -4.504,-6.945 -4.5,-4.588 -2.374,-1.744 0,0"
             style="fill:#ffffff;fill-opacity:1;fill-rule:nonzero;stroke:none"
             id="path180" />
        </g>
      </g>
    </g>
  </g>
</svg>
