<?xml version="1.0" encoding="UTF-8" standalone="no"?>
<!-- Created with Inkscape (http://www.inkscape.org/) -->

<svg
   version="1.1"
   id="svg2"
   width="666.66669"
   height="464.95599"
   viewBox="0 0 666.66669 464.95599"
   sodipodi:docname="Tengoku Studio (天国スタジオ) Logo (Print).svg"
   inkscape:version="1.2.2 (b0a8486541, 2022-12-01)"
   xmlns:inkscape="http://www.inkscape.org/namespaces/inkscape"
   xmlns:sodipodi="http://sodipodi.sourceforge.net/DTD/sodipodi-0.dtd"
   xmlns="http://www.w3.org/2000/svg"
   xmlns:svg="http://www.w3.org/2000/svg">
  <defs
     id="defs6">
    <clipPath
       clipPathUnits="userSpaceOnUse"
       id="clipPath16">
      <path
         d="M 0,348.717 H 500 V 0 H 0 Z"
         id="path14" />
    </clipPath>
  </defs>
  <sodipodi:namedview
     id="namedview4"
     pagecolor="#ffffff"
     bordercolor="#000000"
     borderopacity="0.25"
     inkscape:showpageshadow="2"
     inkscape:pageopacity="0.0"
     inkscape:pagecheckerboard="0"
     inkscape:deskcolor="#d1d1d1"
     showgrid="false"
     inkscape:zoom="2.1329999"
     inkscape:cx="328.4107"
     inkscape:cy="232.53634"
     inkscape:window-width="2560"
     inkscape:window-height="1400"
     inkscape:window-x="2560"
     inkscape:window-y="0"
     inkscape:window-maximized="1"
     inkscape:current-layer="g8" />
  <g
     id="g8"
     inkscape:groupmode="layer"
     inkscape:label="Tengoku Studio (天国スタジオ) Logo (Flat)"
     transform="matrix(1.3333333,0,0,-1.3333333,0,464.956)">
    <g
       id="g10">
      <g
         id="g12"
         clip-path="url(#clipPath16)">
        <g
           id="g18"
           transform="translate(401.8948,265.6274)"
           style="fill:#000000">
          <path
             d="m 0,0 c -54.096,0 -98.105,-44.678 -98.105,-99.594 0,-54.917 44.009,-99.595 98.105,-99.595 54.096,0 98.105,44.678 98.105,99.595 C 98.105,-44.678 54.096,0 0,0"
             style="fill:#000000;fill-opacity:1;fill-rule:nonzero;stroke:none"
             id="path20" />
        </g>
        <g
           id="g22"
           transform="translate(290.5633,242.149)"
           style="fill:#000000">
          <path
             d="m 0,0 c -54.096,0 -98.105,-44.678 -98.105,-99.594 0,-54.917 44.009,-99.595 98.105,-99.595 54.096,0 98.105,44.678 98.105,99.595 C 98.105,-44.678 54.096,0 0,0"
             style="fill:#000000;fill-opacity:1;fill-rule:nonzero;stroke:none"
             id="path24" />
        </g>
        <g
           id="g26"
           transform="translate(191.7831,222.535)"
           style="fill:#000000">
          <path
             d="m 0,0 c -54.096,0 -98.105,-44.678 -98.105,-99.594 0,-54.917 44.009,-99.595 98.105,-99.595 54.096,0 98.105,44.678 98.105,99.595 C 98.105,-44.678 54.096,0 0,0"
             style="fill:#000000;fill-opacity:1;fill-rule:nonzero;stroke:none"
             id="path28" />
        </g>
        <g
           id="g30"
           transform="translate(98.1052,199.1891)"
           style="fill:#000000">
          <path
             d="m 0,0 c -54.096,0 -98.105,-44.678 -98.105,-99.595 0,-54.916 44.009,-99.594 98.105,-99.594 54.095,0 98.104,44.678 98.104,99.594 C 98.104,-44.678 54.095,0 0,0"
             style="fill:#000000;fill-opacity:1;fill-rule:nonzero;stroke:none"
             id="path32" />
        </g>
        <g
           id="g34"
           transform="translate(298.6947,348.7173)"
           style="fill:#000000">
          <path
             d="m 0,0 c -54.096,0 -98.105,-44.678 -98.105,-99.594 0,-54.917 44.009,-99.595 98.105,-99.595 54.096,0 98.105,44.678 98.105,99.595 C 98.105,-44.678 54.096,0 0,0"
             style="fill:#000000;fill-opacity:1;fill-rule:nonzero;stroke:none"
             id="path36" />
        </g>
        <g
           id="g38"
           transform="translate(173.107,322.5439)"
           style="fill:#000000">
          <path
             d="m 0,0 c -54.096,0 -98.105,-44.678 -98.105,-99.594 0,-54.917 44.009,-99.595 98.105,-99.595 54.096,0 98.105,44.678 98.105,99.595 C 98.105,-44.678 54.096,0 0,0"
             style="fill:#000000;fill-opacity:1;fill-rule:nonzero;stroke:none"
             id="path40" />
        </g>
        <g
           id="g42"
           transform="translate(401.8948,254.9611)">
          <path
             d="m 0,0 c -48.214,0 -87.439,-39.893 -87.439,-88.928 0,-49.035 39.225,-88.928 87.439,-88.928 48.214,0 87.439,39.893 87.439,88.928 C 87.439,-39.893 48.214,0 0,0"
             style="fill:#ffffff;fill-opacity:1;fill-rule:nonzero;stroke:none"
             id="path44" />
        </g>
        <g
           id="g46"
           transform="translate(290.5633,231.4827)">
          <path
             d="m 0,0 c -48.214,0 -87.439,-39.893 -87.439,-88.928 0,-49.035 39.225,-88.928 87.439,-88.928 48.214,0 87.439,39.893 87.439,88.928 C 87.439,-39.893 48.214,0 0,0"
             style="fill:#ffffff;fill-opacity:1;fill-rule:nonzero;stroke:none"
             id="path48" />
        </g>
        <g
           id="g50"
           transform="translate(191.7831,211.8687)">
          <path
             d="m 0,0 c -48.214,0 -87.439,-39.893 -87.439,-88.928 0,-49.035 39.225,-88.928 87.439,-88.928 48.214,0 87.439,39.893 87.439,88.928 C 87.439,-39.893 48.214,0 0,0"
             style="fill:#ffffff;fill-opacity:1;fill-rule:nonzero;stroke:none"
             id="path52" />
        </g>
        <g
           id="g54"
           transform="translate(98.1052,188.5228)">
          <path
             d="m 0,0 c -48.214,0 -87.439,-39.893 -87.439,-88.928 0,-49.036 39.225,-88.928 87.439,-88.928 48.213,0 87.438,39.892 87.438,88.928 C 87.438,-39.893 48.213,0 0,0"
             style="fill:#ffffff;fill-opacity:1;fill-rule:nonzero;stroke:none"
             id="path56" />
        </g>
        <g
           id="g58"
           transform="translate(298.6947,338.051)">
          <path
             d="m 0,0 c -48.214,0 -87.439,-39.893 -87.439,-88.928 0,-49.035 39.225,-88.928 87.439,-88.928 48.214,0 87.439,39.893 87.439,88.928 C 87.439,-39.893 48.214,0 0,0"
             style="fill:#ffffff;fill-opacity:1;fill-rule:nonzero;stroke:none"
             id="path60" />
        </g>
        <g
           id="g62"
           transform="translate(173.107,311.8776)">
          <path
             d="m 0,0 c -48.214,0 -87.439,-39.893 -87.439,-88.928 0,-49.035 39.225,-88.928 87.439,-88.928 48.214,0 87.439,39.893 87.439,88.928 C 87.439,-39.893 48.214,0 0,0"
             style="fill:#ffffff;fill-opacity:1;fill-rule:nonzero;stroke:none"
             id="path64" />
        </g>
        <g
           id="g66"
           transform="translate(480.8006,166.033)">
          <path
             d="m 0,0 c 0,-44.401 -35.327,-80.395 -78.906,-80.395 -43.578,0 -78.905,35.994 -78.905,80.395 0,44.401 35.327,80.395 78.905,80.395 C -35.327,80.395 0,44.401 0,0"
             style="fill:#000000;fill-opacity:1;fill-rule:nonzero;stroke:none"
             id="path68" />
        </g>
        <g
           id="g70"
           transform="translate(369.4692,142.5546)">
          <path
             d="m 0,0 c 0,-44.401 -35.327,-80.395 -78.906,-80.395 -43.578,0 -78.906,35.994 -78.906,80.395 0,44.401 35.328,80.395 78.906,80.395 C -35.327,80.395 0,44.401 0,0"
             style="fill:#000000;fill-opacity:1;fill-rule:nonzero;stroke:none"
             id="path72" />
        </g>
        <g
           id="g74"
           transform="translate(270.6889,122.9407)">
          <path
             d="m 0,0 c 0,-44.401 -35.327,-80.395 -78.906,-80.395 -43.578,0 -78.905,35.994 -78.905,80.395 0,44.401 35.327,80.395 78.905,80.395 C -35.327,80.395 0,44.401 0,0"
             style="fill:#000000;fill-opacity:1;fill-rule:nonzero;stroke:none"
             id="path76" />
        </g>
        <g
           id="g78"
           transform="translate(177.0106,99.5945)">
          <path
             d="m 0,0 c 0,-44.401 -35.327,-80.395 -78.906,-80.395 -43.578,0 -78.905,35.994 -78.905,80.395 0,44.401 35.327,80.395 78.905,80.395 C -35.327,80.395 0,44.401 0,0"
             style="fill:#000000;fill-opacity:1;fill-rule:nonzero;stroke:none"
             id="path80" />
        </g>
        <g
           id="g82"
           transform="translate(377.6007,249.1227)">
          <path
             d="m 0,0 c 0,-44.401 -35.327,-80.395 -78.906,-80.395 -43.578,0 -78.905,35.994 -78.905,80.395 0,44.401 35.327,80.395 78.905,80.395 C -35.327,80.395 0,44.401 0,0"
             style="fill:#000000;fill-opacity:1;fill-rule:nonzero;stroke:none"
             id="path84" />
        </g>
        <g
           id="g86"
           transform="translate(252.0125,222.9496)">
          <path
             d="m 0,0 c 0,-44.401 -35.327,-80.395 -78.906,-80.395 -43.578,0 -78.905,35.994 -78.905,80.395 0,44.401 35.327,80.395 78.905,80.395 C -35.327,80.395 0,44.401 0,0"
             style="fill:#000000;fill-opacity:1;fill-rule:nonzero;stroke:none"
             id="path88" />
        </g>
        <g
           id="g90"
           transform="translate(444.1586,210.356)"
           style="fill:#ffffff">
          <path
             d="M 0,0 -17.891,-3.803 V 13.263 L -35.811,9.454 V -7.612 l -68.292,-14.516 v -17.919 l 54.428,11.569 c -8.553,-18.965 -26.524,-44.271 -54.428,-62.768 v -17.919 c 16.256,7.335 53.06,36.804 68.292,70.464 v -55.948 l 17.92,3.809 v 69.118 L 0,-17.919 Z"
             style="fill:#ffffff;fill-opacity:1;fill-rule:nonzero;stroke:none"
             id="path92" />
        </g>
        <g
           id="g94"
           transform="translate(291.4729,143.1028)"
           style="fill:#ffffff">
          <path
             d="M 0,0 -40.644,14.827 -49.604,-2.596 -8.96,-17.423 Z M 11.946,23.231 -28.698,38.058 -37.658,20.634 2.987,5.808 Z M 32.37,58.745 V 43.386 l 8.533,1.813 v 15.36 z M 31.516,58.564 22.983,56.75 V 41.391 l 8.533,1.813 z m -8.533,-18.88 17.92,3.809 v -66.558 h -10e-4 10e-4 l -20.48,-24.832 -63.144,-13.422 v 20.479 l 65.704,13.966 z"
             style="fill:#ffffff;fill-opacity:1;fill-rule:nonzero;stroke:none"
             id="path96" />
        </g>
        <g
           id="g98"
           transform="translate(215.4165,165.1484)"
           style="fill:#ffffff">
          <path
             d="m 0,0 -28.173,-5.988 c 1.183,4.696 1.966,9.453 2.361,14.154 l -20.48,-4.353 c -1.705,-18.443 -10.166,-30.736 -20.053,-36.688 v -20.479 c 12.658,5.277 22.13,14.235 28.754,24.884 L 0,-20.479 c 0,-14.584 -2.739,-25.459 -6.733,-33.574 l -25.488,20.07 -13.878,-16.827 25.418,-20.015 c -6.343,-4.546 -12.381,-6.174 -15.158,-6.764 l -18.773,-3.99 v -20.48 l 13.074,2.779 c 40.555,8.621 60.311,44.155 60.311,78.524 v 5.974 z"
             style="fill:#ffffff;fill-opacity:1;fill-rule:nonzero;stroke:none"
             id="path100" />
        </g>
        <g
           id="g102"
           transform="translate(149.9253,74.3293)"
           style="fill:#ffffff">
          <path
             d="m 0,0 -25.331,19.947 c 5.532,12.526 8.04,25.596 8.04,37.389 V 69.282 L -35.21,83.393 -85.556,72.692 v -20.48 l 50.346,10.702 c 0,-8.706 3.456,-62.41 -57.172,-75.297 v -20.48 c 25.63,5.448 43.79,18.283 55.829,33.891 l 22.675,-17.856 z"
             style="fill:#ffffff;fill-opacity:1;fill-rule:nonzero;stroke:none"
             id="path104" />
        </g>
        <g
           id="g106"
           transform="translate(319.1786,280.55)"
           style="fill:#ffffff">
          <path
             d="m 0,0 -50.841,-10.806 c -2.733,-0.573 -4.524,-2.767 -4.79,-5.822 l -4.94,-56.46 50.841,10.806 c 2.527,0.523 4.504,2.552 4.79,5.822 z m 21.446,15.157 -7.255,-82.926 -96.196,-20.447 7.255,82.926 z m -35.344,-67.05 -5.616,-1.194 c -3.28,-0.697 -4.779,0.442 -4.598,2.508 l 1.148,13.12 10.525,2.237 0.611,6.983 -10.526,-2.238 0.935,10.687 c 0.297,3.392 1.953,5.218 4.647,5.791 l 6.307,1.341 0.569,6.505 -36.124,-7.678 -0.569,-6.506 5.687,1.209 c 3.975,0.845 4.651,-1.11 4.529,-2.508 l -1.054,-12.045 -10.525,-2.237 -0.611,-6.983 10.525,2.238 -1.029,-11.763 c -0.293,-3.346 -1.973,-5.236 -4.578,-5.79 l -6.377,-1.356 -0.565,-6.462 36.124,7.679 z m -4.696,11.075 5.773,1.227 -0.694,-7.934 -5.773,-1.227 z"
             style="fill:#ffffff;fill-opacity:1;fill-rule:nonzero;stroke:none"
             id="path108" />
        </g>
        <g
           id="g110"
           transform="translate(307.3963,299.9514)"
           style="fill:#ffffff">
          <path
             d="m 0,0 c -0.493,0.18 -1.258,0.461 -1.258,0.906 0.001,0.373 0.341,0.73 1.174,1.565 3.319,3.353 3.693,3.736 6.094,6.45 L 4.191,9.868 C 2.999,8.369 2.54,7.864 -0.898,4.164 -2.668,2.259 -3.52,1.189 -3.521,0.318 c -10e-4,-1.137 1.224,-1.624 2.602,-2.166 2.566,-1.001 5.013,-2.206 7.307,-3.674 l 1.685,1.834 C 6.528,-2.63 2.499,-0.891 0,0"
             style="fill:#ffffff;fill-opacity:1;fill-rule:nonzero;stroke:none"
             id="path112" />
        </g>
        <g
           id="g114"
           transform="translate(268.5396,297.4079)"
           style="fill:#ffffff">
          <path
             d="M 0,0 1.243,-1.017 C 3.247,0.69 4.785,1.775 6.962,2.635 L 6.963,4.404 C 5.858,4.169 0.4,2.991 -0.826,2.731 -1.689,2.547 -3.831,2.092 -4.35,1.999 L -4.351,-0.04 C -3.246,0.267 -1.76,0.619 1.798,1.429 0.674,0.613 0.553,0.514 0,0 m 2.774,-8.797 c -2.592,-0.551 -5.908,-1.219 -5.906,1.128 0.001,0.379 0.072,1.712 1.523,3.482 l -1.398,0.786 c -1.262,-1.748 -2.023,-3.047 -2.024,-4.708 -0.002,-1.426 0.913,-2.604 2.105,-2.946 1.467,-0.428 2.935,-0.278 6.337,0.445 2.677,0.569 3.885,0.988 4.49,1.207 L 7.834,-7.396 C 6.159,-8.005 4.466,-8.437 2.774,-8.797 m 4.979,7.502 1.208,1.016 C 8.599,0.42 8.03,1.237 7.341,1.921 L 6.131,0.924 C 6.804,0.183 7.149,-0.285 7.753,-1.295 M 5.198,0.491 c 0.898,-0.947 1.483,-2.013 1.639,-2.305 l -1.21,-1.015 c -0.776,1.405 -1.328,2.01 -1.604,2.331 z"
             style="fill:#ffffff;fill-opacity:1;fill-rule:nonzero;stroke:none"
             id="path116" />
        </g>
        <g
           id="g118"
           transform="translate(184.7887,212.6468)"
           style="fill:#ffffff">
          <path
             id="天_1_"
             class="st11"
             d="M 0.04572903,-0.01366305 0.85786003,9.2691996 36.728765,16.893815 38.000675,31.43229 2.12977,23.807675 3.2687,36.82563 l 35.870905,7.624614 1.2688,14.502713 -96.888621,-20.594418 -1.26871,-14.502635 35.286483,7.500396 -1.13893,-13.017956 -35.286473,-7.500396 -1.271921,-14.5384839 35.286484,7.5004058 -0.47034,-5.3758914 c -1.5062,-17.2161245 -11.387371,-23.3693795 -25.846273,-26.4526875 l -11.308601,-2.403733 -1.2747,-14.570604 24.628413,5.234952 c 18.915481,4.011891 25.981702,9.972877 34.808143,26.762366 3.86702003,-1.943026 14.123151,-10.070437 18.094422,-15.517587 l 25.471914,5.41434 C 32.523395,-14.269379 6.99928,-2.0185983 0.04572903,-0.01366305 Z"
             style="fill:#ffffff;stroke-width:0.999996"
             inkscape:label="path120" />
        </g>
        <g
           id="g122"
           transform="translate(199.9871,278.5587)"
           style="fill:#ffffff">
          <path
             d="m 0,0 c -0.367,-4.017 -1.26,-5.712 -2.631,-6.004 -1.457,-0.309 -1.454,1.322 -1.453,1.841 l 0.002,0.77 c 0.002,1.291 -0.062,4.053 -2.82,3.467 -1.165,-0.248 -1.834,-0.892 -2.211,-1.259 0.293,1.029 1.877,6.04 2.222,7.188 L -9.049,5.957 c -0.759,-2.705 -3.172,-11.33 -4.516,-15.843 l 1.969,-0.172 c 0.121,0.509 0.983,4.114 1.018,4.21 0.362,1.08 1.343,3.473 3.279,3.885 1.285,0.273 1.283,-0.891 1.281,-2.038 L -6.019,-4.61 c -10e-4,-0.395 0.049,-1.458 0.286,-2.07 0.377,-0.977 1.472,-1.64 2.877,-1.341 3.151,0.669 4.184,3.522 4.655,7.848 z"
             style="fill:#ffffff;fill-opacity:1;fill-rule:nonzero;stroke:none"
             id="path124" />
        </g>
        <g
           id="g126"
           transform="translate(155.8769,274.0032)"
           style="fill:#ffffff">
          <path
             d="m 0,0 c 0.785,0.568 1.805,1.204 3.308,1.523 0.718,0.153 1.102,0.2 1.453,0.24 L 4.731,3.728 C 3.01,3.293 -4.656,1.349 -6.093,0.974 -7.245,0.677 -8.499,0.341 -9.651,0.096 l 0.064,-1.977 c 2.589,0.777 5.178,1.537 7.784,2.248 -3.73,-3.167 -4.618,-6.079 -4.622,-7.877 -0.002,-1.625 0.979,-3.074 2.481,-3.558 1.519,-0.498 3.305,-0.555 6.896,0.191 l 0.271,2.135 C -1.588,-9.921 -4.509,-9.6 -4.504,-6.945 -4.5,-4.588 -2.374,-1.744 0,0"
             style="fill:#ffffff;fill-opacity:1;fill-rule:nonzero;stroke:none"
             id="path128" />
        </g>
      </g>
    </g>
  </g>
</svg>
