<?xml version="1.0" encoding="UTF-8" standalone="no"?>
<!-- Generator: Adobe Illustrator 27.7.0, SVG Export Plug-In . SVG Version: 6.00 Build 0)  -->

<svg
   xmlns:dc="http://purl.org/dc/elements/1.1/"
   xmlns:cc="http://creativecommons.org/ns#"
   xmlns:rdf="http://www.w3.org/1999/02/22-rdf-syntax-ns#"
   xmlns:svg="http://www.w3.org/2000/svg"
   xmlns="http://www.w3.org/2000/svg"
   xmlns:sodipodi="http://sodipodi.sourceforge.net/DTD/sodipodi-0.dtd"
   xmlns:inkscape="http://www.inkscape.org/namespaces/inkscape"
   version="1.1"
   id="Layer_1"
   x="0px"
   y="0px"
   viewBox="0 0 666.66669 464.95667"
   xml:space="preserve"
   sodipodi:docname="Tengoku Studio (天国スタジオ) Logo.svg"
   width="666.66669"
   height="464.95667"
   inkscape:version="0.92.4 (5da689c313, 2019-01-14)"><metadata
   id="metadata3705"><rdf:RDF><cc:Work
       rdf:about=""><dc:format>image/svg+xml</dc:format><dc:type
         rdf:resource="http://purl.org/dc/dcmitype/StillImage" /><dc:title></dc:title></cc:Work></rdf:RDF></metadata><defs
   id="defs3703" /><sodipodi:namedview
   pagecolor="#ffffff"
   bordercolor="#666666"
   borderopacity="1"
   objecttolerance="10"
   gridtolerance="10"
   guidetolerance="10"
   inkscape:pageopacity="0"
   inkscape:pageshadow="2"
   inkscape:window-width="1920"
   inkscape:window-height="1057"
   id="namedview3701"
   showgrid="false"
   fit-margin-top="0"
   fit-margin-left="0"
   fit-margin-right="0"
   fit-margin-bottom="0"
   inkscape:zoom="2.5464754"
   inkscape:cx="250"
   inkscape:cy="174.35865"
   inkscape:window-x="-8"
   inkscape:window-y="-8"
   inkscape:window-maximized="1"
   inkscape:current-layer="Layer_1" />
<style
   type="text/css"
   id="style3568">
	.st0{fill:#0096E6;}
	.st1{fill:#FFFFFF;}
	.st2{fill:url(#SVGID_1_);}
	.st3{fill:#C25CBD;}
	.st4{fill:url(#SVGID_00000041268394167179188820000003503237744526654898_);}
	.st5{fill:url(#SVGID_00000124875546196996648000000016882131411719350671_);}
	.st6{fill:url(#SVGID_00000130617729603567766940000009652427910846657417_);}
	.st7{fill:url(#SVGID_00000165198714139574212560000015133623391633485952_);}
	.st8{fill:url(#SVGID_00000158737392107539689710000002029397865849906313_);}
	.st9{fill:url(#SVGID_00000154419034677359731850000014421917783123033235_);}
	.st10{fill:#FF5500;}
	.st11{fill:#FFAA00;}
</style>
<g
   id="Cloud"
   transform="matrix(1.3333334,0,0,1.3333334,0,2.7465822e-4)">
	<g
   id="Light_Blue">
		<ellipse
   class="st0"
   cx="401.89478"
   cy="182.68433"
   rx="98.105217"
   ry="99.594658"
   id="ellipse3570"
   style="fill:#0096e6" />
		<ellipse
   class="st0"
   cx="290.56329"
   cy="206.16273"
   rx="98.105217"
   ry="99.594658"
   id="ellipse3572"
   style="fill:#0096e6" />
		<ellipse
   class="st0"
   cx="191.7831"
   cy="225.7766"
   rx="98.105217"
   ry="99.594353"
   id="ellipse3574"
   style="fill:#0096e6" />
		<ellipse
   class="st0"
   cx="98.105019"
   cy="249.12283"
   rx="98.105019"
   ry="99.594452"
   id="ellipse3576"
   style="fill:#0096e6" />
		<ellipse
   class="st0"
   cx="298.6947"
   cy="99.594452"
   rx="98.105217"
   ry="99.594658"
   id="ellipse3578"
   style="fill:#0096e6" />
		<ellipse
   class="st0"
   cx="173.10703"
   cy="125.76768"
   rx="98.105217"
   ry="99.594353"
   id="ellipse3580"
   style="fill:#0096e6" />
	</g>
	<g
   id="White">
		<ellipse
   class="st1"
   cx="401.89478"
   cy="182.68433"
   rx="87.438904"
   ry="88.928329"
   id="ellipse3583"
   style="fill:#ffffff" />
		<ellipse
   class="st1"
   cx="290.56329"
   cy="206.16273"
   rx="87.438904"
   ry="88.928329"
   id="ellipse3585"
   style="fill:#ffffff" />
		<ellipse
   class="st1"
   cx="191.7831"
   cy="225.7766"
   rx="87.438904"
   ry="88.928017"
   id="ellipse3587"
   style="fill:#ffffff" />
		<ellipse
   class="st1"
   cx="98.105019"
   cy="249.12283"
   rx="87.43869"
   ry="88.928123"
   id="ellipse3589"
   style="fill:#ffffff" />
		<ellipse
   class="st1"
   cx="298.6947"
   cy="99.594452"
   rx="87.438904"
   ry="88.928329"
   id="ellipse3591"
   style="fill:#ffffff" />
		<ellipse
   class="st1"
   cx="173.10703"
   cy="125.76768"
   rx="87.438904"
   ry="88.928017"
   id="ellipse3593"
   style="fill:#ffffff" />
	</g>
	<g
   id="Black">
		<ellipse
   cx="401.89487"
   cy="182.68431"
   rx="78.905746"
   ry="80.395088"
   id="ellipse3596" />
		<ellipse
   cx="290.56348"
   cy="206.16275"
   rx="78.905746"
   ry="80.395088"
   id="ellipse3598" />
		<ellipse
   cx="191.78313"
   cy="225.7766"
   rx="78.905746"
   ry="80.395088"
   id="ellipse3600" />
		<ellipse
   cx="98.104858"
   cy="249.12279"
   rx="78.905746"
   ry="80.395088"
   id="ellipse3602" />
		<ellipse
   cx="298.69498"
   cy="99.594551"
   rx="78.905746"
   ry="80.395088"
   id="ellipse3604" />
		<ellipse
   cx="173.10675"
   cy="125.76765"
   rx="78.905746"
   ry="80.395088"
   id="ellipse3606" />
	</g>
</g>
<g
   id="天国スタジオ"
   transform="matrix(1.3333334,0,0,1.3333334,0,2.7465822e-4)">
	<g
   id="オ">
		
			<linearGradient
   id="SVGID_1_"
   gradientUnits="userSpaceOnUse"
   x1="331.09421"
   y1="254.39709"
   x2="421.97418"
   y2="190.76224"
   gradientTransform="matrix(1,-0.21256,0,1,0,52.61271)">
			<stop
   offset="0.7"
   style="stop-color:#C25CBD"
   id="stop3610" />
			<stop
   offset="1"
   style="stop-color:#000000"
   id="stop3612" />
		</linearGradient>
		<path
   class="st2"
   d="m 415.14621,148.43465 c 0,44.21356 -54.31998,89.71906 -75.09097,99.09187 l 6e-5,-17.9194 c 36.69836,-24.32556 56.23352,-60.44226 59.73145,-78.40094 l -6e-5,-2.55989 15.35953,-3.26477 v 3.05313 z"
   id="path3615"
   style="fill:url(#SVGID_1_)"
   inkscape:connector-curvature="0" />
		<polygon
   class="st3"
   points="408.34775,233.01048 408.34775,128.90715 426.26718,125.09825 426.26718,229.2016 "
   id="polygon3617"
   style="fill:#c25cbd" />
		<polygon
   class="st3"
   points="444.1586,156.28085 340.05524,178.40871 340.05524,160.48927 444.1586,138.36142 "
   id="polygon3619"
   style="fill:#c25cbd" />
	</g>
	<g
   id="ジ">
		
			<linearGradient
   id="SVGID_00000111911892310612578980000012026468147388227206_"
   gradientUnits="userSpaceOnUse"
   x1="323.41577"
   y1="180.15753"
   x2="323.41577"
   y2="250.98196"
   gradientTransform="matrix(1,-0.21256,0,1,0,52.61271)">
			<stop
   offset="0.8"
   style="stop-color:#C25CBD"
   id="stop3622" />
			<stop
   offset="0.82252"
   style="stop-color:#BC59B7"
   id="stop3624" />
			<stop
   offset="0.85202"
   style="stop-color:#AC51A7"
   id="stop3626" />
			<stop
   offset="0.88539"
   style="stop-color:#91458D"
   id="stop3628" />
			<stop
   offset="0.92161"
   style="stop-color:#6B3368"
   id="stop3630" />
			<stop
   offset="0.96014"
   style="stop-color:#3A1C39"
   id="stop3632" />
			<stop
   offset="1"
   style="stop-color:#000000"
   id="stop3634" />
		</linearGradient>
		<polygon
   style="fill:url(#SVGID_00000111911892310612578980000012026468147388227206_)"
   points="314.45605,236.75497 314.45605,165.93057 332.37549,162.12166 332.37549,228.67952 "
   id="polygon3637" />
		<polygon
   class="st3"
   points="311.89615,253.51192 332.37549,228.67955 248.75146,246.45439 248.75146,266.93375 "
   id="polygon3639"
   style="fill:#c25cbd" />
		<polygon
   class="st3"
   points="314.45605,164.22397 314.45605,148.86446 322.98911,147.05069 322.98911,162.4102 "
   id="polygon3641"
   style="fill:#c25cbd" />
		<polygon
   class="st3"
   points="323.84244,162.22884 323.84244,146.86932 332.37549,145.05556 332.37549,160.41507 "
   id="polygon3643"
   style="fill:#c25cbd" />
		<polygon
   class="st3"
   points="294.45944,199.80681 253.81526,184.9801 262.77493,167.55696 303.41913,182.38365 "
   id="polygon3645"
   style="fill:#c25cbd" />
		<polygon
   class="st3"
   points="282.51315,223.03767 241.86897,208.21098 250.82864,190.78784 291.47284,205.61453 "
   id="polygon3647"
   style="fill:#c25cbd" />
	</g>
	<g
   id="タ">
		
			<linearGradient
   id="SVGID_00000148640670765481549700000006171380271583504799_"
   gradientUnits="userSpaceOnUse"
   x1="177.0106"
   y1="186.98401"
   x2="221.38962"
   y2="186.98401"
   gradientTransform="matrix(1,-0.21256,0,1,0,52.61271)">
			<stop
   offset="0.75"
   style="stop-color:#C25CBD"
   id="stop3650" />
			<stop
   offset="1"
   style="stop-color:#000000"
   id="stop3652" />
		</linearGradient>
		<polygon
   style="fill:url(#SVGID_00000148640670765481549700000006171380271583504799_)"
   points="177.0106,212.21162 185.24123,189.9828 215.41647,183.56885 221.38962,202.77858 "
   id="polygon3655" />
		
			<linearGradient
   id="SVGID_00000039837361794793332710000016627779640774489493_"
   gradientUnits="userSpaceOnUse"
   x1="176.39381"
   y1="181.69576"
   x2="203.96371"
   y2="194.55182"
   gradientTransform="matrix(1,-0.21256,0,1,0,52.61271)">
			<stop
   offset="0"
   style="stop-color:#000000"
   id="stop3657" />
			<stop
   offset="0.5"
   style="stop-color:#C25CBD"
   id="stop3659" />
		</linearGradient>
		<polygon
   style="fill:url(#SVGID_00000039837361794793332710000016627779640774489493_)"
   points="172.75116,213.11699 178.7027,191.3726 202.7178,186.26804 202.7178,206.74739 "
   id="polygon3662" />
		
			<linearGradient
   id="SVGID_00000051344688096342403640000007779884638600963003_"
   gradientUnits="userSpaceOnUse"
   x1="176.25644"
   y1="210.81691"
   x2="207.30983"
   y2="241.8703"
   gradientTransform="matrix(1,-0.21256,0,1,0,52.61271)">
			<stop
   offset="0.7"
   style="stop-color:#C25CBD"
   id="stop3664" />
			<stop
   offset="1"
   style="stop-color:#000000"
   id="stop3666" />
		</linearGradient>
		<polygon
   style="fill:url(#SVGID_00000051344688096342403640000007779884638600963003_)"
   points="169.31758,234.37895 183.19528,217.55142 214.24869,242.00417 200.37099,258.83167 "
   id="polygon3669" />
		<path
   class="st3"
   d="m 234.18921,204.32446 c 0,34.36989 -19.75566,69.90378 -60.31046,78.52399 l -13.07388,2.77893 v -20.47937 l 18.77274,-3.99026 c 7.13969,-1.51758 35.83887,-9.88606 35.83887,-57.10954 v -20.47935 l 18.77274,14.78247 v 5.97313 z"
   id="path3671"
   inkscape:connector-curvature="0"
   style="fill:#c25cbd" />
		<path
   class="st3"
   d="m 169.1246,179.75558 c -1.70541,18.44376 -10.16655,30.73653 -20.05269,36.68797 v 20.47935 c 25.8696,-10.78635 38.46857,-36.92796 40.53204,-61.52034 z"
   id="path3673"
   inkscape:connector-curvature="0"
   style="fill:#c25cbd" />
	</g>
	<g
   id="ス">
		
			<linearGradient
   id="SVGID_00000126292185463538967920000002688202167641425030_"
   gradientUnits="userSpaceOnUse"
   x1="64.369766"
   y1="173.00537"
   x2="120.688"
   y2="173.00537"
   gradientTransform="matrix(1,-0.21256,0,1,0,52.61271)">
			<stop
   offset="0.8"
   style="stop-color:#C25CBD"
   id="stop3676" />
			<stop
   offset="1"
   style="stop-color:#000000"
   id="stop3678" />
		</linearGradient>
		<polygon
   style="fill:url(#SVGID_00000126292185463538967920000002688202167641425030_)"
   points="64.36977,222.17554 64.36977,201.69618 114.71485,190.99501 120.688,210.20473 "
   id="polygon3681" />
		
			<linearGradient
   id="SVGID_00000149376808076865306080000013256920349053368482_"
   gradientUnits="userSpaceOnUse"
   x1="106.62359"
   y1="229.2653"
   x2="141.08144"
   y2="253.63034"
   gradientTransform="matrix(0.98654,-0.22316,-0.01346,0.9894,10.47868,60.86407)">
			<stop
   offset="0"
   style="stop-color:#000000"
   id="stop3683" />
			<stop
   offset="0.3"
   style="stop-color:#C25CBD"
   id="stop3685" />
		</linearGradient>
		<polygon
   style="fill:url(#SVGID_00000149376808076865306080000013256920349053368482_)"
   points="108.90237,269.84021 122.78008,253.01268 149.92522,274.38794 136.04752,291.21545 "
   id="polygon3688" />
		<path
   class="st3"
   d="m 132.63428,217.05183 c 0,34.01344 -20.81419,78.66185 -75.09095,90.19875 v -20.47937 c 60.62795,-12.88687 57.17152,-66.59096 57.17152,-75.29684 v -20.47935 l 17.91943,14.11053 z"
   id="path3690"
   inkscape:connector-curvature="0"
   style="fill:#c25cbd" />
	</g>
	<path
   id="国"
   class="st10"
   d="m 300.58459,108.98503 5.7728,-1.22699 -0.69409,7.93386 -5.7728,1.22699 z m 4.69648,11.07545 -5.61618,1.19387 c -3.28052,0.69722 -4.77936,-0.44235 -4.5986,-2.50763 l 1.14786,-13.11993 10.52554,-2.23756 0.61087,-6.98251 -10.52554,2.23723 0.935,-10.68674 c 0.29684,-3.39152 1.95215,-5.21828 4.64709,-5.79127 l 6.30667,-1.34037 0.56915,-6.50533 -36.12433,7.67848 -0.56912,6.50517 5.68677,-1.20874 c 3.97491,-0.84486 4.65167,1.11057 4.52936,2.5082 l -1.05374,12.04453 -10.5256,2.23731 -0.61096,6.98269 10.5257,-2.23724 -1.02914,11.76223 c -0.29282,3.34624 -1.97302,5.23693 -4.57776,5.79069 l -6.37732,1.35541 -0.56537,6.46227 36.12433,-7.67848 z m 35.34375,-67.04987 -7.2551,82.92566 -96.19638,20.44714 7.25511,-82.92566 z m -21.4462,15.15669 -50.84064,10.8065 c -2.73291,0.57233 -4.52396,2.76693 -4.79071,5.82109 l -4.93973,56.4605 50.84073,-10.80658 c 2.52734,-0.52286 4.50455,-2.551 4.79065,-5.82108 z"
   inkscape:connector-curvature="0"
   style="fill:#ff5500" />
	<path
   id="く"
   class="st10"
   d="m 307.39627,48.76583 c -0.4928,-0.17969 -1.25821,-0.46133 -1.25787,-0.90574 4e-4,-0.3735 0.34128,-0.73033 1.17407,-1.56525 3.31888,-3.35347 3.69296,-3.73552 6.09338,-6.45011 l -1.81854,-0.94658 c -1.19199,1.4982 -1.6507,2.0039 -5.08896,5.70335 -1.76974,1.90531 -2.6221,2.97512 -2.62283,3.84595 -9.2e-4,1.13784 1.22403,1.6244 2.60129,2.16674 2.56622,1.00113 5.01321,2.20561 7.30762,3.67334 l 1.68521,-1.83383 c -1.54578,-1.05806 -5.57486,-2.79683 -8.07337,-3.68787 z"
   inkscape:connector-curvature="0"
   style="fill:#ff5500" />
	<path
   id="ご"
   class="st10"
   d="m 273.73785,50.8181 c 0.89771,0.94682 1.48309,2.0136 1.63885,2.30527 l -1.20996,1.01485 c -0.77634,-1.40462 -1.3284,-2.00965 -1.6037,-2.33033 z m 2.55454,1.78585 1.20859,-1.01526 c -0.36215,-0.6991 -0.93097,-1.51661 -1.62061,-2.20035 l -1.20999,0.99718 c 0.67282,0.74102 1.01831,1.20917 1.62201,2.21843 z m -4.97904,7.50243 c -2.59158,0.55089 -5.90744,1.21893 -5.90555,-1.12799 4.3e-4,-0.37917 0.0718,-1.71198 1.52277,-3.48214 l -1.39828,-0.78595 c -1.26126,1.74813 -2.02289,3.04759 -2.0242,4.7079 -10e-4,1.42672 0.91315,2.60442 2.10513,2.94621 1.46738,0.42806 2.93542,0.27853 6.33698,-0.44457 2.67746,-0.56913 3.88556,-0.98831 4.49026,-1.2071 l -0.0673,-2.00743 c -1.67493,0.60888 -3.3681,1.04146 -5.05982,1.40107 z m -2.7738,-8.79696 1.2435,1.0174 c 2.00348,-1.70755 3.54114,-2.79281 5.71823,-3.65237 l 10e-4,-1.76908 c -1.10532,0.2349 -6.56284,1.41259 -7.789,1.6732 -0.86343,0.18346 -3.00504,0.63872 -3.52396,0.7314 l -0.002,2.03964 c 1.10532,-0.30695 2.59167,-0.65893 6.14948,-1.46952 -1.12402,0.8165 -1.24505,0.91501 -1.79806,1.42933 z"
   inkscape:connector-curvature="0"
   style="fill:#ff5500" />
	<path
   id="天"
   class="st11"
   d="m 184.78867,136.07047 c 0.51909,-3.71976 0.85825,-9.26947 0.85825,-9.26947 l 35.87094,-7.62459 1.27194,-14.53852 -35.87085,7.62459 1.13892,-13.01806 35.87085,-7.62458 1.26881,-14.50278 -96.88841,20.59438 -1.26881,14.50269 35.28644,-7.50035 -1.13893,13.01805 -35.28643,7.50036 -1.27186,14.53851 35.28627,-7.50035 -0.47029,5.37587 c -1.50618,17.21622 -11.38734,23.36949 -25.84618,26.4528 l -11.30861,2.40369 -1.27473,14.57065 24.62828,-5.23486 c 18.91556,-4.01189 25.98181,-9.9729 34.8082,-26.76247 3.86697,1.94312 14.12311,10.07054 18.09427,15.51765 l 25.47191,-5.41431 c -6.7063,-8.8396 -32.27639,-21.10393 -39.22998,-23.1089 z"
   inkscape:connector-curvature="0"
   style="fill:#ffaa00" />
	<path
   id="ん"
   class="st11"
   d="m 199.98706,70.15858 c -0.36693,4.01734 -1.25969,5.71199 -2.63121,6.00358 -1.45647,0.30949 -1.45358,-1.32131 -1.45268,-1.84065 l 0.001,-0.77026 c 0.002,-1.29025 -0.0612,-4.05242 -2.81935,-3.4662 -1.16496,0.24771 -1.83415,0.89153 -2.21136,1.25821 0.29332,-1.02907 1.87672,-6.03989 2.22189,-7.18793 L 190.9382,64.202 c -0.75934,2.70441 -3.17207,11.32998 -4.51614,15.84225 l 1.96881,0.17205 c 0.12094,-0.50907 0.98364,-4.11338 1.01863,-4.20975 0.36176,-1.08009 1.34235,-3.47286 3.27872,-3.88457 1.285,-0.27302 1.28294,0.89104 1.28088,2.03759 l -0.001,0.60898 c -7.3e-4,0.39462 0.049,1.45802 0.28641,2.07029 0.37614,0.97648 1.47118,1.63985 2.87613,1.34119 3.15161,-0.66994 4.18462,-3.52223 4.65532,-7.84882 z"
   inkscape:connector-curvature="0"
   style="fill:#ffaa00" />
	<path
   id="て"
   class="st11"
   d="m 155.87688,74.71405 c 0.78546,-0.56782 1.80482,-1.20374 3.30756,-1.52318 0.71808,-0.15266 1.10284,-0.19965 1.45367,-0.23942 l -0.0305,-1.9657 c -1.72054,0.43537 -9.38721,2.37904 -10.82346,2.75403 -1.15198,0.2975 -2.40601,0.63371 -3.55782,0.87846 l 0.0631,1.97663 c 2.58972,-0.77724 5.17812,-1.53706 7.78409,-2.248 -3.7292,3.16705 -4.61801,6.07941 -4.62122,7.87749 -0.003,1.62457 0.97878,3.07397 2.4801,3.55798 1.51898,0.49798 3.30516,0.55467 6.89682,-0.19167 l 0.27031,-2.13487 c -4.81052,1.1795 -7.73141,0.858 -7.72665,-1.79678 0.004,-2.35678 2.13004,-5.20094 4.50399,-6.94497 z"
   inkscape:connector-curvature="0"
   style="fill:#ffaa00" />
</g>
</svg>