<?xml version="1.0" encoding="UTF-8" standalone="no"?>
<!-- Created with Inkscape (http://www.inkscape.org/) -->

<svg
   version="1.1"
   id="svg2"
   width="666.66669"
   height="419.16132"
   viewBox="0 0 666.66669 419.16132"
   sodipodi:docname="World Studio (세상스튜디오) Logo (Wordmark).ai"
   xmlns:inkscape="http://www.inkscape.org/namespaces/inkscape"
   xmlns:sodipodi="http://sodipodi.sourceforge.net/DTD/sodipodi-0.dtd"
   xmlns="http://www.w3.org/2000/svg"
   xmlns:svg="http://www.w3.org/2000/svg">
  <defs
     id="defs6">
    <clipPath
       clipPathUnits="userSpaceOnUse"
       id="clipPath16">
      <path
         d="M 0,314.371 H 500 V 0 H 0 Z"
         id="path14" />
    </clipPath>
  </defs>
  <sodipodi:namedview
     id="namedview4"
     pagecolor="#ffffff"
     bordercolor="#000000"
     borderopacity="0.25"
     inkscape:showpageshadow="2"
     inkscape:pageopacity="0.0"
     inkscape:pagecheckerboard="0"
     inkscape:deskcolor="#d1d1d1" />
  <g
     id="g8"
     inkscape:groupmode="layer"
     inkscape:label="World Studio (세상스튜디오) Logo (Wordmark)"
     transform="matrix(1.3333333,0,0,-1.3333333,0,419.16133)">
    <g
       id="g10">
      <g
         id="g12"
         clip-path="url(#clipPath16)">
        <g
           id="g18"
           transform="translate(405.9263,153.447)">
          <path
             d="m 0,0 c 0,12.958 14.31,26.244 31.963,29.675 17.652,3.431 31.962,-4.291 31.962,-17.249 0,-12.958 -14.31,-26.244 -31.962,-29.675 C 14.31,-20.681 0,-12.958 0,0 M 42.627,-46.149 V -28.4 c 24.339,8.2 42.659,26.867 42.659,44.978 0,20.675 -23.874,32.795 -53.323,27.071 -29.45,-5.725 -53.324,-27.126 -53.324,-47.801 0,-18.111 18.32,-29.656 42.659,-28.394 v -17.749 l -51.446,-10.001 v -20.107 l 124.222,24.146 v 20.108 z"
             style="fill:#000000;fill-opacity:1;fill-rule:nonzero;stroke:none"
             id="path20" />
        </g>
        <g
           id="g22"
           transform="translate(283.0432,149.7628)">
          <path
             d="m 0,0 59.903,11.644 v 17.234 l -78.144,-15.19 v -85.825 l 78.149,15.191 v 17.234 L 0,-51.357 Z M 84.544,33.668 V -78.311 l -19.11,-3.715 V 29.953 Z"
             style="fill:#000000;fill-opacity:1;fill-rule:nonzero;stroke:none"
             id="path24" />
        </g>
        <g
           id="g26"
           transform="translate(235.1784,98.6491)">
          <path
             d="M 0,0 V 15.997 L -63.108,3.73 v 7.126 L -0.006,23.122 V 35.919 L -63.108,23.654 V 30.78 L -0.006,43.046 V 59.043 L -81.348,43.231 v -59.044 z m 21.434,-22.615 -21.991,-4.274 v -26.154 l -21.329,-4.146 v 26.154 l -37.582,-7.306 v -26.153 l -21.33,-4.146 v 26.153 l -21.99,-4.274 v 20.107 L 21.434,-2.507 Z"
             style="fill:#000000;fill-opacity:1;fill-rule:nonzero;stroke:none"
             id="path28" />
        </g>
        <g
           id="g30"
           transform="translate(62.1148,79.7716)">
          <path
             d="M 0,0 C 12.811,-12.227 32.615,-19.749 54.496,-19.297 V 1.877 C 40.049,3.851 14.962,16.276 14.961,38.735 c 0,10e-4 0,0.002 0,0.002 v 8.452 l -29.93,-5.818 V 32.92 c 0,-22.461 -25.087,-44.64 -39.535,-52.231 V -40.485 C -32.623,-32.43 -12.817,-17.208 0,0 M 62.107,-35.518 V -55.625 L -62.115,-79.772 v 20.108 z"
             style="fill:#000000;fill-opacity:1;fill-rule:nonzero;stroke:none"
             id="path32" />
        </g>
        <g
           id="g34"
           transform="translate(260.0709,251.58)">
          <path
             d="m 0,0 c 0,0 -2.477,-21.109 -29.506,-48.373 l -13.838,11.491 c 13.849,11.216 29.811,36.844 29.811,59.682 v 0.644 c 0,2.744 -2.123,2.741 -4.766,2.227 l -2.672,-0.519 v 8.129 L 8.687,39.046 V 27.119 C 8.687,3.795 21.554,0.046 38.65,-0.122 L 30.146,-13.351 C 4.167,-11.02 0,0 0,0 M 83.061,32.645 V 17.791 L 66.174,14.509 V -13.386 L 43.618,-17.77 v 64.272 c 0,2.895 -2.376,2.865 -5.083,2.339 l -2.72,-0.529 v 8.578 l 30.359,5.901 V 29.363 Z M 23.409,-60.949 c -3.078,0.06 -9.357,0.184 -9.357,9.838 0,10.005 7.988,17.182 16.673,17.183 8.914,10e-4 9.541,-6.039 9.541,-9.716 0,-9.014 -7.769,-17.484 -16.857,-17.305 m 22.557,39.787 c -10.469,2.359 -23.945,2.607 -39.23,-7.803 -10.05,-6.845 -15.119,-15.182 -15.118,-24.738 0,-3.442 0.755,-6.858 2.255,-10.144 4.605,-10.084 11.425,-10.625 20.696,-11.361 15.151,-1.203 24.264,2.806 33.347,8.961 10.15,6.886 15.332,15.103 15.332,24.707 0,8.574 -4.4,17.476 -17.282,20.378"
             style="fill:#000000;fill-opacity:1;fill-rule:nonzero;stroke:none"
             id="path36" />
        </g>
        <g
           id="g38"
           transform="translate(169.114,297.0925)">
          <path
             d="m 0,0 v -8.409 l 2.262,0.44 c 2.251,0.437 4.264,0.735 4.264,-2.159 v -107.09 l 22.739,4.42 V 5.689 Z m -26.637,-26.994 v -8.409 l 2.261,0.44 c 2.252,0.438 4.313,0.838 4.313,-2.056 v -24.506 l -19.072,-3.707 v -13.183 l 19.072,3.707 v -72.621 l 20.92,4.067 v 121.613 z m 2.956,-69.832 -9.754,-13.015 c -19.055,6.219 -24.202,15.698 -24.202,15.698 0,0 -7.216,-13.41 -22.342,-27.281 l -12.619,10.516 c 0,0 22.295,20.817 22.295,41.609 v 15.827 c 0,2.894 -2.364,2.819 -5.008,2.305 l -2.656,-0.516 v 9.144 l 29.201,5.676 v -29.116 c 0,-27.878 25.085,-30.847 25.085,-30.847"
             style="fill:#000000;fill-opacity:1;fill-rule:nonzero;stroke:none"
             id="path40" />
        </g>
      </g>
    </g>
  </g>
</svg>
