<?xml version="1.0" encoding="UTF-8" standalone="no"?>
<!-- Created with Inkscape (http://www.inkscape.org/) -->

<svg
   version="1.1"
   id="svg1"
   width="666.66669"
   height="652.28003"
   viewBox="0 0 666.66669 652.28003"
   sodipodi:docname="RHRE3 Logo.ai"
   xmlns:inkscape="http://www.inkscape.org/namespaces/inkscape"
   xmlns:sodipodi="http://sodipodi.sourceforge.net/DTD/sodipodi-0.dtd"
   xmlns="http://www.w3.org/2000/svg"
   xmlns:svg="http://www.w3.org/2000/svg">
  <defs
     id="defs1">
    <clipPath
       clipPathUnits="userSpaceOnUse"
       id="clipPath2">
      <path
         d="M 32.3335,319.385 H 459.499 V 15.4783 H 32.3335 Z"
         transform="translate(-38.507001,-313.21091)"
         id="path2" />
    </clipPath>
    <clipPath
       clipPathUnits="userSpaceOnUse"
       id="clipPath3">
      <path
         d="M 32.3335,319.385 H 459.499 V 15.4783 H 32.3335 Z"
         transform="matrix(1.3333333,0,0,-1.3333333,0,652.28)"
         id="path3" />
    </clipPath>
    <clipPath
       clipPathUnits="userSpaceOnUse"
       id="clipPath5">
      <path
         d="M 0,489.21 H 500 V 0 H 0 Z"
         transform="matrix(1.3333333,0,0,-1.3333333,0,652.28)"
         id="path5" />
    </clipPath>
    <clipPath
       clipPathUnits="userSpaceOnUse"
       id="clipPath7">
      <path
         d="M 73.5106,287.599 H 283.748 V 21.6496 H 73.5106 Z"
         id="path7" />
    </clipPath>
    <clipPath
       clipPathUnits="userSpaceOnUse"
       id="clipPath8">
      <path
         d="M 73.5106,287.599 H 283.748 V 21.6496 H 73.5106 Z"
         transform="matrix(1.3333333,0,0,-1.3333333,0,652.28)"
         id="path8" />
    </clipPath>
    <clipPath
       clipPathUnits="userSpaceOnUse"
       id="clipPath10">
      <path
         d="M 0,489.21 H 500 V 0 H 0 Z"
         transform="matrix(1.3333333,0,0,-1.3333333,0,652.28)"
         id="path10" />
    </clipPath>
    <clipPath
       clipPathUnits="userSpaceOnUse"
       id="clipPath11">
      <path
         d="M 38.507,242.503 H 453.326 V 153.581 H 38.507 Z"
         id="path11" />
    </clipPath>
    <clipPath
       clipPathUnits="userSpaceOnUse"
       id="clipPath12">
      <path
         d="M 38.507,242.503 H 453.326 V 153.581 H 38.507 Z"
         transform="matrix(1.3333333,0,0,-1.3333333,0,652.28)"
         id="path12" />
    </clipPath>
    <clipPath
       clipPathUnits="userSpaceOnUse"
       id="clipPath14">
      <path
         d="M 0,489.21 H 500 V 0 H 0 Z"
         transform="matrix(1.3333333,0,0,-1.3333333,0,652.28)"
         id="path14" />
    </clipPath>
    <clipPath
       clipPathUnits="userSpaceOnUse"
       id="clipPath15">
      <path
         d="M 38.3735,287.602 H 302.211 V 84.8735 H 38.3735 Z"
         transform="translate(-298.14711,-287.60151)"
         id="path15" />
    </clipPath>
    <clipPath
       clipPathUnits="userSpaceOnUse"
       id="clipPath16">
      <path
         d="M 38.3735,287.602 H 302.211 V 84.8735 H 38.3735 Z"
         transform="matrix(1.3333333,0,0,-1.3333333,0,652.28)"
         id="path16" />
    </clipPath>
    <clipPath
       clipPathUnits="userSpaceOnUse"
       id="clipPath18">
      <path
         d="M 0,489.21 H 500 V 0 H 0 Z"
         transform="matrix(1.3333333,0,0,-1.3333333,0,652.28)"
         id="path18" />
    </clipPath>
    <clipPath
       clipPathUnits="userSpaceOnUse"
       id="clipPath19">
      <path
         d="M 56.7668,287.506 H 327.406 V 81.2242 H 56.7668 Z"
         transform="translate(-56.766802,-287.50581)"
         id="path19" />
    </clipPath>
    <clipPath
       clipPathUnits="userSpaceOnUse"
       id="clipPath20">
      <path
         d="M 56.7668,287.506 H 327.406 V 81.2242 H 56.7668 Z"
         transform="matrix(1.3333333,0,0,-1.3333333,0,652.28)"
         id="path20" />
    </clipPath>
    <clipPath
       clipPathUnits="userSpaceOnUse"
       id="clipPath22">
      <path
         d="M 0,489.21 H 500 V 0 H 0 Z"
         transform="matrix(1.3333333,0,0,-1.3333333,0,652.28)"
         id="path22" />
    </clipPath>
    <clipPath
       clipPathUnits="userSpaceOnUse"
       id="clipPath24">
      <path
         d="M 0,489.21 H 500 V 0 H 0 Z"
         transform="translate(-173.2921,-122.0874)"
         id="path24" />
    </clipPath>
    <clipPath
       clipPathUnits="userSpaceOnUse"
       id="clipPath26">
      <path
         d="M 0,489.21 H 500 V 0 H 0 Z"
         transform="translate(-173.2921,-122.0874)"
         id="path26" />
    </clipPath>
    <clipPath
       clipPathUnits="userSpaceOnUse"
       id="clipPath27">
      <path
         d="M 271.843,283.332 H 468.402 V 106.575 H 271.843 Z"
         transform="translate(-449.04171,-283.29931)"
         id="path27" />
    </clipPath>
    <clipPath
       clipPathUnits="userSpaceOnUse"
       id="clipPath29">
      <path
         d="M 0,489.21 H 500 V 0 H 0 Z"
         transform="matrix(1.3333333,0,0,-1.3333333,0,652.28)"
         id="path29" />
    </clipPath>
    <clipPath
       clipPathUnits="userSpaceOnUse"
       id="clipPath31">
      <path
         d="M 0,489.21 H 500 V 0 H 0 Z"
         transform="translate(-298.11781,-141.84621)"
         id="path31" />
    </clipPath>
    <clipPath
       clipPathUnits="userSpaceOnUse"
       id="clipPath33">
      <path
         d="M 0,489.21 H 500 V 0 H 0 Z"
         transform="translate(-298.11781,-141.84621)"
         id="path33" />
    </clipPath>
    <clipPath
       clipPathUnits="userSpaceOnUse"
       id="clipPath35">
      <path
         d="M 0,489.21 H 500 V 0 H 0 Z"
         transform="translate(-298.11781,-141.84621)"
         id="path35" />
    </clipPath>
    <linearGradient
       x1="0"
       y1="0"
       x2="1"
       y2="0"
       gradientUnits="userSpaceOnUse"
       gradientTransform="matrix(0,-204.56418,204.56418,0,250,489.21048)"
       spreadMethod="pad"
       id="linearGradient36">
      <stop
         style="stop-opacity:1;stop-color:#9fc3ff"
         offset="0"
         id="stop35" />
      <stop
         style="stop-opacity:1;stop-color:#4e8aed"
         offset="1"
         id="stop36" />
    </linearGradient>
    <clipPath
       clipPathUnits="userSpaceOnUse"
       id="clipPath37">
      <path
         d="M 16.5961,470.542 H 483.623 V 305.709 H 16.5961 Z"
         id="path37" />
    </clipPath>
    <clipPath
       clipPathUnits="userSpaceOnUse"
       id="clipPath39">
      <path
         d="M 0,489.21 H 500 V 0 H 0 Z"
         transform="matrix(1.3333333,0,0,-1.3333333,0,652.28)"
         id="path39" />
    </clipPath>
    <clipPath
       clipPathUnits="userSpaceOnUse"
       id="clipPath41">
      <path
         d="M 0,489.21 H 500 V 0 H 0 Z"
         transform="translate(-415.14611,-396.85201)"
         id="path41" />
    </clipPath>
    <clipPath
       clipPathUnits="userSpaceOnUse"
       id="clipPath43">
      <path
         d="M 0,489.21 H 500 V 0 H 0 Z"
         transform="translate(-369.77801,-384.50781)"
         id="path43" />
    </clipPath>
    <clipPath
       clipPathUnits="userSpaceOnUse"
       id="clipPath45">
      <path
         d="M 0,489.21 H 500 V 0 H 0 Z"
         transform="translate(-239.56701,-389.46331)"
         id="path45" />
    </clipPath>
    <clipPath
       clipPathUnits="userSpaceOnUse"
       id="clipPath47">
      <path
         d="M 0,489.21 H 500 V 0 H 0 Z"
         transform="translate(-202.86541,-338.81881)"
         id="path47" />
    </clipPath>
    <clipPath
       clipPathUnits="userSpaceOnUse"
       id="clipPath49">
      <path
         d="M 0,489.21 H 500 V 0 H 0 Z"
         transform="translate(-52.272601,-389.46331)"
         id="path49" />
    </clipPath>
  </defs>
  <sodipodi:namedview
     id="namedview1"
     pagecolor="#ffffff"
     bordercolor="#000000"
     borderopacity="0.25"
     inkscape:showpageshadow="2"
     inkscape:pageopacity="0.0"
     inkscape:pagecheckerboard="0"
     inkscape:deskcolor="#d1d1d1">
    <inkscape:page
       x="0"
       y="0"
       inkscape:label="1"
       id="page1"
       width="666.66669"
       height="652.28003"
       margin="0"
       bleed="0" />
  </sodipodi:namedview>
  <g
     id="layer-MC0"
     inkscape:groupmode="layer"
     inkscape:label="Layer 1">
    <path
       id="path1"
       d="m 0,0 v -305.163 h 308.319 l 149.797,152.042 V 0 Z"
       style="fill:#1453bc;fill-opacity:1;fill-rule:nonzero;stroke:none"
       transform="matrix(1.3333333,0,0,-1.3333333,25.4472,245.3948)" />
    <g
       opacity="0.996399"
       id="g5"
       clip-path="url(#clipPath5)">
      <g
         opacity="0.271118"
         clip-path="url(#clipPath3)"
         id="g4">
        <path
           d="M 0,0 H 414.818 V -165.693 L 296.137,-291.559 H 0 Z M -6.173,6.174 V 3.091 -297.733 h 301.939 l 125.226,132.04 V 6.174 Z"
           style="fill:#ffffff;fill-opacity:1;fill-rule:nonzero;stroke:none"
           transform="matrix(1.3333333,0,0,-1.3333333,51.342667,234.66547)"
           clip-path="url(#clipPath2)"
           id="path4" />
      </g>
    </g>
    <path
       id="path6"
       d="M 0,0 149.797,152.041 0,152.104 Z"
       style="fill:#0e3c87;fill-opacity:1;fill-rule:nonzero;stroke:none"
       transform="matrix(1.3333333,0,0,-1.3333333,436.5396,652.2788)" />
    <g
       opacity="0.325821"
       id="g10"
       clip-path="url(#clipPath10)">
      <g
         opacity="0.275558"
         clip-path="url(#clipPath8)"
         id="g9">
        <path
           d="m 141.562,21.652 h 2.497 v 265.896 h -2.497 z m 139.689,0 h 2.497 v 265.947 h -2.497 z M 73.51,287.521 V 21.65 h 2.484 V 287.522 Z M 213.199,21.652 h 2.49 v 265.921 h -2.49 z"
           style="fill:#ffffff;fill-opacity:1;fill-rule:nonzero;stroke:none"
           transform="matrix(1.3333333,0,0,-1.3333333,0,652.28)"
           clip-path="url(#clipPath7)"
           id="path9" />
      </g>
    </g>
    <g
       opacity="0.325821"
       id="g14"
       clip-path="url(#clipPath14)">
      <g
         opacity="0.275558"
         clip-path="url(#clipPath12)"
         id="g13">
        <path
           d="m 38.507,153.582 h 414.819 v 2.496 H 38.507 Z m 0,86.438 h 414.818 v 2.483 H 38.507 Z"
           style="fill:#ffffff;fill-opacity:1;fill-rule:nonzero;stroke:none"
           transform="matrix(1.3333333,0,0,-1.3333333,0,652.28)"
           clip-path="url(#clipPath11)"
           id="path13" />
      </g>
    </g>
    <g
       opacity="0.325821"
       id="g18"
       clip-path="url(#clipPath18)">
      <g
         opacity="0.275558"
         clip-path="url(#clipPath16)"
         id="g17">
        <path
           d="m 0,0 -259.678,-199.697 -0.095,-3.031 L 4.063,0 Z"
           style="fill:#ffffff;fill-opacity:1;fill-rule:nonzero;stroke:none"
           transform="matrix(1.3333333,0,0,-1.3333333,397.52947,268.81133)"
           clip-path="url(#clipPath15)"
           id="path17" />
      </g>
    </g>
    <g
       opacity="0.325821"
       id="g22"
       clip-path="url(#clipPath22)">
      <g
         opacity="0.275558"
         clip-path="url(#clipPath20)"
         id="g21">
        <path
           d="m 0,0 270.639,-206.282 v 3.121 L 3.885,0 Z"
           style="fill:#ffffff;fill-opacity:1;fill-rule:nonzero;stroke:none"
           transform="matrix(1.3333333,0,0,-1.3333333,75.689067,268.93893)"
           clip-path="url(#clipPath19)"
           id="path21" />
      </g>
    </g>
    <path
       id="path23"
       d="m 0,0 c -5.814,-0.044 -11.626,-0.566 -20.419,-1.625 -12.946,-1.559 -35.374,-15.429 -50.779,-19.349 -13.294,-3.381 -26.253,13.408 -26.253,13.408 v -14.108 c 0,0 12.552,-16.521 26.61,-12.941 14.969,3.811 37.471,17.388 49.804,18.884 17.998,2.181 24.07,2.15 42.099,0.369 12.455,-1.231 39.793,-13.855 55.568,-17.508 18.486,-4.281 31.138,11.196 31.138,11.196 l 0.19,14.108 c 0,0 -12.261,-15.668 -30.322,-11.491 C 61.439,-15.309 33.331,-2.516 20.444,-1.255 11.636,-0.394 5.814,0.043 0,0 m 73.433,117.429 c -2.742,-0.103 -5.527,-0.713 -8.299,-1.936 C 41.221,105.059 35.567,71.144 49.479,50.709 56.436,39.404 70.784,30.279 83.827,36.366 c 22.609,10.435 30.001,41.303 17.827,62.173 -5.299,10.244 -16.338,19.337 -28.221,18.89 m -137.504,0.159 c -3.26,0.045 -6.501,-0.601 -9.49,-2.095 -22.174,-10.434 -30,-41.304 -17.826,-62.173 6.521,-12.609 21.738,-23.476 36.086,-16.954 26.956,12.174 31.301,52.605 10.432,72.605 -4.782,5.082 -12.03,8.519 -19.202,8.617"
       style="fill:#bfd0ec;fill-opacity:1;fill-rule:nonzero;stroke:none"
       transform="matrix(1.3333333,0,0,-1.3333333,231.05613,489.4968)"
       clip-path="url(#clipPath24)" />
    <path
       id="path25"
       d="m 0,0 c -5.814,-0.044 -11.626,-0.566 -20.419,-1.625 -12.946,-1.559 -35.374,-15.429 -50.779,-19.349 -13.294,-3.381 -26.253,13.408 -26.253,13.408 v -14.108 c 0,0 12.552,-16.521 26.61,-12.941 14.969,3.811 37.471,17.388 49.804,18.884 17.998,2.181 24.07,2.15 42.099,0.369 12.455,-1.231 39.793,-13.855 55.568,-17.508 18.486,-4.281 31.138,11.196 31.138,11.196 l 0.19,14.108 c 0,0 -12.261,-15.668 -30.322,-11.491 C 61.439,-15.309 33.331,-2.516 20.444,-1.255 11.636,-0.394 5.814,0.043 0,0 Z m 73.433,117.429 c -2.742,-0.103 -5.527,-0.713 -8.299,-1.936 C 41.221,105.059 35.567,71.144 49.479,50.709 56.436,39.404 70.784,30.279 83.827,36.366 c 22.609,10.435 30.001,41.303 17.827,62.173 -5.299,10.244 -16.338,19.337 -28.221,18.89 z m -137.504,0.159 c -3.26,0.045 -6.501,-0.601 -9.49,-2.095 -22.174,-10.434 -30,-41.304 -17.826,-62.173 6.521,-12.609 21.738,-23.476 36.086,-16.954 26.956,12.174 31.301,52.605 10.432,72.605 -4.782,5.082 -12.03,8.519 -19.202,8.617 z"
       style="fill:none;stroke:#bfd0ec;stroke-width:0.408;stroke-linecap:butt;stroke-linejoin:miter;stroke-miterlimit:5.333;stroke-dasharray:none;stroke-opacity:1"
       transform="matrix(1.3333333,0,0,-1.3333333,231.05613,489.4968)"
       clip-path="url(#clipPath26)" />
    <g
       opacity="0.552994"
       id="g28"
       clip-path="url(#clipPath29)">
      <path
         d="m 0,0 c -6.502,0.366 -11.611,-2.477 -11.611,-2.477 l -0.772,-0.386 -0.629,-0.592 c 0,0 -92.422,-86.897 -139.33,-131.248 l -0.195,-0.184 -0.176,-0.199 c -8.655,-9.804 -14.047,-17.899 -17.303,-23.641 -3.255,-5.741 -4.494,-9.509 -4.494,-9.509 l -2.689,-8.489 8.865,0.821 c 0,0 4.813,0.516 11.322,3.33 6.509,2.813 15.231,7.98 24.567,17.287 l -0.143,-0.139 c 0,0 32.868,30.627 65.729,61.094 l -4.282,-12.182 86.911,73.166 0.507,0.85 c 1.958,3.273 3.577,7.904 2.944,13.344 -0.326,2.798 -1.409,4.581 -2.631,6.472 -1.221,1.892 -2.709,3.717 -4.35,5.422 -1.639,1.706 -3.413,3.275 -5.324,4.571 C 5.005,-1.394 3.08,-0.173 0,0"
         style="fill:#000000;fill-opacity:1;fill-rule:nonzero;stroke:none"
         transform="matrix(1.3333333,0,0,-1.3333333,598.72227,274.5476)"
         clip-path="url(#clipPath27)"
         id="path28" />
    </g>
    <path
       id="path30"
       d="m 0,0 c 42.174,41.739 125.323,123.576 125.323,123.576 0,0 3.877,2.089 8.073,2.1 4.196,0.011 12.949,-7.864 13.632,-11.635 0.683,-3.771 -0.12,-6.093 -1.556,-8.644 L 86.006,51.78 c 5.585,18.732 52.082,52.09 48.776,56.915 -3.305,4.826 -123.151,-118.813 -123.151,-118.813 -15.803,-16.486 -29.584,-18.451 -29.584,-18.451 0,0 3.01,10.841 17.953,28.569"
       style="fill:#000000;fill-opacity:1;fill-rule:nonzero;stroke:none"
       transform="matrix(1.3333333,0,0,-1.3333333,397.4904,463.15173)"
       clip-path="url(#clipPath31)" />
    <path
       id="path32"
       d="m 0,0 c 42.174,41.739 125.323,123.576 125.323,123.576 0,0 3.877,2.089 8.073,2.1 4.196,0.011 12.949,-7.864 13.632,-11.635 0.683,-3.771 -0.12,-6.093 -1.556,-8.644 L 86.006,51.78 c 5.585,18.732 52.082,52.09 48.776,56.915 -3.305,4.826 -123.151,-118.813 -123.151,-118.813 -15.803,-16.486 -29.584,-18.451 -29.584,-18.451 0,0 3.01,10.841 17.953,28.569 z"
       style="fill:none;stroke:#000000;stroke-width:11.954;stroke-linecap:butt;stroke-linejoin:miter;stroke-miterlimit:5.333;stroke-dasharray:none;stroke-opacity:1"
       transform="matrix(1.3333333,0,0,-1.3333333,397.4904,463.15173)"
       clip-path="url(#clipPath33)" />
    <path
       id="path34"
       d="m 0,0 c 42.174,41.739 125.323,123.576 125.323,123.576 0,0 3.877,2.089 8.073,2.1 4.196,0.011 12.949,-7.864 13.632,-11.635 0.683,-3.771 -0.12,-6.093 -1.556,-8.644 L 86.006,51.78 c 5.585,18.732 52.082,52.09 48.776,56.915 -3.305,4.826 -123.151,-118.813 -123.151,-118.813 -15.803,-16.486 -29.584,-18.451 -29.584,-18.451 0,0 3.01,10.841 17.953,28.569"
       style="fill:#ffffff;fill-opacity:1;fill-rule:nonzero;stroke:none"
       transform="matrix(1.3333333,0,0,-1.3333333,397.4904,463.15173)"
       clip-path="url(#clipPath35)" />
    <path
       id="path36"
       d="M 0,489.21 V 287.493 l 500,0.187 v 201.53 z"
       transform="matrix(1.3333333,0,0,-1.3333333,0,652.28)"
       style="fill:url(#linearGradient36);stroke:none" />
    <g
       opacity="0.996399"
       id="g38"
       clip-path="url(#clipPath39)">
      <path
         d="M 16.596,470.542 H 483.622 V 305.709 H 16.596 Z"
         style="fill:#000000;fill-opacity:1;fill-rule:nonzero;stroke:none"
         transform="matrix(1.3333333,0,0,-1.3333333,0,652.28)"
         clip-path="url(#clipPath37)"
         id="path38" />
    </g>
    <path
       id="path40"
       d="m 0,0 h 10.527 c 5.013,0 8.727,1.253 11.143,3.76 2.415,2.507 3.623,5.833 3.623,9.98 0,4.011 -1.208,7.133 -3.623,9.365 -2.37,2.234 -5.651,3.35 -9.844,3.35 -3.783,0 -6.95,-1.048 -9.502,-3.144 -2.553,-2.051 -3.828,-4.74 -3.828,-8.067 H -21.26 c 0,5.195 1.39,9.844 4.17,13.945 2.825,4.148 6.744,7.383 11.758,9.707 5.059,2.325 10.618,3.487 16.68,3.487 10.527,0 18.775,-2.529 24.746,-7.588 5.969,-5.013 8.955,-11.94 8.955,-20.781 0,-4.557 -1.391,-8.75 -4.17,-12.578 -2.78,-3.829 -6.426,-6.768 -10.938,-8.819 5.606,-2.005 9.776,-5.013 12.51,-9.023 2.779,-4.011 4.17,-8.75 4.17,-14.219 0,-8.841 -3.236,-15.928 -9.707,-21.26 -6.426,-5.332 -14.948,-7.998 -25.566,-7.998 -9.936,0 -18.071,2.621 -24.405,7.862 -6.289,5.241 -9.433,12.167 -9.433,20.781 h 19.756 c 0,-3.737 1.389,-6.79 4.17,-9.16 2.825,-2.37 6.289,-3.555 10.39,-3.555 4.694,0 8.362,1.23 11.006,3.691 2.689,2.507 4.033,5.811 4.033,9.912 0,9.935 -5.469,14.903 -16.406,14.903 l -10.459,0 z"
       style="fill:#ffffff;fill-opacity:1;fill-rule:nonzero;stroke:none"
       transform="matrix(1.3333333,0,0,-1.3333333,553.52813,123.144)"
       clip-path="url(#clipPath41)" />
    <path
       id="path42"
       d="M 0,0 H -43.45 V -35.03 H 7.023 V -45.689 H -56.671 V 53.156 H 6.335 V 42.43 H -43.45 V 10.658 H 0 Z"
       style="fill:#ffffff;fill-opacity:1;fill-rule:nonzero;stroke:none"
       transform="matrix(1.3333333,0,0,-1.3333333,493.03733,139.60293)"
       clip-path="url(#clipPath43)" />
    <path
       id="path44"
       d="m 0,0 h 20.313 c 6.565,0 11.775,1.675 15.63,5.024 3.903,3.349 5.854,7.83 5.854,13.442 0,6.11 -1.859,10.794 -5.578,14.053 -3.672,3.258 -8.997,4.91 -15.975,4.955 L 0,37.474 Z M 23.55,-10.658 H 0 v -39.987 h -13.29 v 98.846 h 33.189 c 11.293,0 19.97,-2.535 26.03,-7.604 6.104,-5.069 9.157,-12.446 9.157,-22.131 0,-6.155 -1.698,-11.519 -5.095,-16.09 C 46.64,-2.195 41.957,-5.612 35.943,-7.875 l 23.55,-41.955 v -0.815 H 45.309 Z"
       style="fill:#ffffff;fill-opacity:1;fill-rule:nonzero;stroke:none"
       transform="matrix(1.3333333,0,0,-1.3333333,319.42267,132.9956)"
       clip-path="url(#clipPath45)" />
    <path
       id="path46"
       d="M 0,0 H -13.29 V 45.689 H -63.832 V 0 h -13.22 v 98.845 h 13.22 V 56.347 H -13.29 V 98.845 H 0 Z"
       style="fill:#ffffff;fill-opacity:1;fill-rule:nonzero;stroke:none"
       transform="matrix(1.3333333,0,0,-1.3333333,270.4872,200.5216)"
       clip-path="url(#clipPath47)" />
    <path
       id="path48"
       d="m 0,0 h 20.313 c 6.565,0 11.775,1.675 15.631,5.024 3.902,3.349 5.853,7.83 5.853,13.442 0,6.11 -1.859,10.794 -5.578,14.053 -3.672,3.258 -8.997,4.91 -15.975,4.955 L 0,37.474 Z M 23.55,-10.658 H 0 V -50.645 H -13.29 V 48.201 H 19.9 c 11.293,0 19.969,-2.535 26.029,-7.604 6.105,-5.069 9.157,-12.446 9.157,-22.131 0,-6.155 -1.698,-11.519 -5.095,-16.09 C 46.64,-2.195 41.958,-5.612 35.944,-7.875 l 23.55,-41.955 v -0.815 H 45.309 Z"
       style="fill:#ffffff;fill-opacity:1;fill-rule:nonzero;stroke:none"
       transform="matrix(1.3333333,0,0,-1.3333333,69.6968,132.9956)"
       clip-path="url(#clipPath49)" />
  </g>
</svg>
