<?xml version="1.0" encoding="UTF-8" standalone="no"?>
<!-- Created with Inkscape (http://www.inkscape.org/) -->

<svg
   version="1.1"
   id="svg1"
   width="666.66669"
   height="597.25732"
   viewBox="0 0 666.66669 597.25732"
   sodipodi:docname="Rhythm Heaven Advance (Favicon).ai"
   xmlns:inkscape="http://www.inkscape.org/namespaces/inkscape"
   xmlns:sodipodi="http://sodipodi.sourceforge.net/DTD/sodipodi-0.dtd"
   xmlns="http://www.w3.org/2000/svg"
   xmlns:svg="http://www.w3.org/2000/svg">
  <defs
     id="defs1">
    <clipPath
       clipPathUnits="userSpaceOnUse"
       id="clipPath2">
      <path
         d="M 0,447.943 H 500 V 0 H 0 Z"
         transform="translate(-327.82371,-353.53541)"
         id="path2" />
    </clipPath>
    <clipPath
       clipPathUnits="userSpaceOnUse"
       id="clipPath4">
      <path
         d="M 0,447.943 H 500 V 0 H 0 Z"
         transform="translate(-309.24761,-328.65801)"
         id="path4" />
    </clipPath>
    <clipPath
       clipPathUnits="userSpaceOnUse"
       id="clipPath6">
      <path
         d="M 0,447.943 H 500 V 0 H 0 Z"
         transform="translate(-295.582,-301.41191)"
         id="path6" />
    </clipPath>
    <clipPath
       clipPathUnits="userSpaceOnUse"
       id="clipPath8">
      <path
         d="M 0,447.943 H 500 V 0 H 0 Z"
         transform="translate(-433.49511,-201.2678)"
         id="path8" />
    </clipPath>
    <clipPath
       clipPathUnits="userSpaceOnUse"
       id="clipPath10">
      <path
         d="M 0,447.943 H 500 V 0 H 0 Z"
         transform="translate(-405.61041,-139.7053)"
         id="path10" />
    </clipPath>
    <clipPath
       clipPathUnits="userSpaceOnUse"
       id="clipPath12">
      <path
         d="m 394.201,163.667 -44.438,-125.172 22.82,5.266 9.157,26.903 47.591,10.984 9.307,-22.642 22.821,5.267 -44.439,104.661 z m 11.409,-23.962 0.15,0.035 15.764,-38.881 -31.827,-7.345 z"
         transform="translate(-1111.4064,-405.93041)"
         id="path12" />
    </clipPath>
    <clipPath
       clipPathUnits="userSpaceOnUse"
       id="clipPath14">
      <path
         d="m 394.201,163.667 -44.438,-125.172 22.82,5.266 9.157,26.903 47.591,10.984 9.307,-22.642 22.821,5.267 -44.439,104.661 z m 11.409,-23.962 0.15,0.035 15.764,-38.881 -31.827,-7.345 z"
         transform="translate(-1111.4064,-405.93041)"
         id="path14" />
    </clipPath>
    <clipPath
       clipPathUnits="userSpaceOnUse"
       id="clipPath16">
      <path
         d="m 394.201,163.667 -44.438,-125.172 22.82,5.266 9.157,26.903 47.591,10.984 9.307,-22.642 22.821,5.267 -44.439,104.661 z m 11.409,-23.962 0.15,0.035 15.764,-38.881 -31.827,-7.345 z"
         transform="translate(-1111.4064,-405.93041)"
         id="path16" />
    </clipPath>
    <clipPath
       clipPathUnits="userSpaceOnUse"
       id="clipPath18">
      <path
         d="m 394.201,163.667 -44.438,-125.172 22.82,5.266 9.157,26.903 47.591,10.984 9.307,-22.642 22.821,5.267 -44.439,104.661 z m 11.409,-23.962 0.15,0.035 15.764,-38.881 -31.827,-7.345 z"
         transform="translate(-1111.4064,-405.93041)"
         id="path18" />
    </clipPath>
    <clipPath
       clipPathUnits="userSpaceOnUse"
       id="clipPath20">
      <path
         d="M 0,447.943 H 500 V 0 H 0 Z"
         transform="translate(-317.24221,-270.5564)"
         id="path20" />
    </clipPath>
    <clipPath
       clipPathUnits="userSpaceOnUse"
       id="clipPath22">
      <path
         d="M 0,447.943 H 500 V 0 H 0 Z"
         transform="translate(-171.4897,-255.8762)"
         id="path22" />
    </clipPath>
  </defs>
  <sodipodi:namedview
     id="namedview1"
     pagecolor="#ffffff"
     bordercolor="#000000"
     borderopacity="0.25"
     inkscape:showpageshadow="2"
     inkscape:pageopacity="0.0"
     inkscape:pagecheckerboard="0"
     inkscape:deskcolor="#d1d1d1">
    <inkscape:page
       x="0"
       y="0"
       inkscape:label="1"
       id="page1"
       width="666.66669"
       height="597.25732"
       margin="0"
       bleed="0" />
  </sodipodi:namedview>
  <g
     id="layer-MC0"
     inkscape:groupmode="layer"
     inkscape:label="Layer 1">
    <path
       id="path1"
       d="m 0,0 c -28.794,56.006 -87.182,94.408 -154.371,94.408 -95.642,0 -173.453,-77.81 -173.453,-173.453 0,-84.627 60.924,-155.281 141.212,-170.436 28.795,-56.006 87.181,-94.407 154.37,-94.407 95.643,0 173.452,77.81 173.452,173.451 C 141.21,-85.809 80.288,-15.156 0,0"
       style="fill:#00b3f0;fill-opacity:1;fill-rule:nonzero;stroke:none"
       transform="matrix(1.3333333,0,0,-1.3333333,437.09827,125.8768)"
       clip-path="url(#clipPath2)" />
    <path
       id="path3"
       d="m 0,0 c -21.568,53.877 -74.307,92.035 -135.795,92.035 -80.616,0 -146.202,-65.586 -146.202,-146.202 0,-76.008 58.305,-138.647 132.538,-145.561 21.568,-53.876 74.306,-92.033 135.793,-92.033 80.617,0 146.204,65.586 146.204,146.202 C 132.538,-69.551 74.232,-6.914 0,0"
       style="fill:#ffffff;fill-opacity:1;fill-rule:nonzero;stroke:none"
       transform="matrix(1.3333333,0,0,-1.3333333,412.33013,159.04667)"
       clip-path="url(#clipPath4)" />
    <path
       id="path5"
       d="m 0,0 c -2.312,0 -4.603,-0.083 -6.881,-0.214 -12.114,52.472 -59.096,91.605 -115.248,91.605 -65.342,0 -118.312,-52.971 -118.312,-118.312 0,-65.342 52.97,-118.313 118.312,-118.313 2.311,0 4.603,0.084 6.881,0.215 12.114,-52.473 59.095,-91.606 115.248,-91.606 65.342,0 118.313,52.971 118.313,118.313 C 118.313,-52.97 65.342,0 0,0"
       style="fill:#130c0e;fill-opacity:1;fill-rule:nonzero;stroke:none"
       transform="matrix(1.3333333,0,0,-1.3333333,394.10933,195.3748)"
       clip-path="url(#clipPath6)" />
    <path
       id="path7"
       d="m 0,0 -60.395,-13.938 -66.504,-187.33 87.318,20.153 9.158,26.903 9.519,2.195 9.307,-22.64 78.102,18.026 z"
       style="fill:#130c0e;fill-opacity:1;fill-rule:nonzero;stroke:none"
       transform="matrix(1.3333333,0,0,-1.3333333,577.99347,328.90027)"
       clip-path="url(#clipPath8)" />
    <path
       id="path9"
       d="m 0,0 0.15,0.035 15.764,-38.882 -31.827,-7.344 z M 55.849,-75.433 11.41,29.229 l -22.819,-5.267 -44.438,-125.173 22.82,5.267 9.157,26.903 47.591,10.983 9.307,-22.641 z"
       style="fill:#7058f8;fill-opacity:1;fill-rule:nonzero;stroke:none"
       transform="matrix(1.3333333,0,0,-1.3333333,540.81387,410.9836)"
       clip-path="url(#clipPath10)" />
    <path
       id="path11"
       d="m 0,0 -803.212,-185.438 31.5,-136.442 803.213,185.437 z"
       style="fill:#9482fa;fill-opacity:1;fill-rule:nonzero;stroke:none"
       transform="matrix(1.3333333,0,0,-1.3333333,1481.8751,56.0168)"
       clip-path="url(#clipPath12)" />
    <path
       id="path13"
       d="m 0,0 -803.212,-185.438 28.741,-128.725 803.212,185.438 z"
       style="fill:#cac1fd;fill-opacity:1;fill-rule:nonzero;stroke:none"
       transform="matrix(1.3333333,0,0,-1.3333333,1481.8751,56.0168)"
       clip-path="url(#clipPath14)" />
    <path
       id="path15"
       d="m 0,0 -803.212,-185.438 26.183,-122.175 803.213,185.439 z"
       style="fill:#f2effe;fill-opacity:1;fill-rule:nonzero;stroke:none"
       transform="matrix(1.3333333,0,0,-1.3333333,1481.8751,56.0168)"
       clip-path="url(#clipPath16)" />
    <path
       id="path17"
       d="m 0,0 -803.212,-185.438 25.223,-116.497 803.213,185.438 z"
       style="fill:#ffffff;fill-opacity:1;fill-rule:nonzero;stroke:none"
       transform="matrix(1.3333333,0,0,-1.3333333,1481.8751,56.0168)"
       clip-path="url(#clipPath18)" />
    <path
       id="path19"
       d="m 0,0 c 0,-21.676 0.109,-37.899 -2.86,-48.529 -1.804,-6.457 -5.774,-11.371 -11.076,-15.092 -5.4,-3.79 -10.814,-5.45 -16.116,-5.554 -6.465,-0.128 -11.191,3.389 -11.881,10.573 -0.992,10.319 -0.927,23.36 -0.927,41.431 l -23.465,-5.417 v -159.833 l 32.231,7.441 c 0,20.341 0.417,35.335 2.925,44.686 1.708,6.373 6.355,11.752 11.047,14.919 5.483,3.704 10.528,5.556 15.841,5.642 6.456,0.105 11.359,-3.227 11.968,-9.667 0.893,-9.433 0.951,-22.26 0.951,-39.766 l 23.883,5.515 V 7.508 Z"
       style="fill:#f15a22;fill-opacity:1;fill-rule:nonzero;stroke:none"
       transform="matrix(1.3333333,0,0,-1.3333333,422.9896,236.51547)"
       clip-path="url(#clipPath20)" />
    <path
       id="path21"
       d="m 0,0 c -11.479,-2.927 -18.25,3.222 -18.25,18.653 0,12.308 0.232,25.016 22.767,25.016 16.043,0 22.752,-8.124 22.752,-17.288 C 27.269,18.4 17.504,4.463 0,0 m 67.368,50.841 c 0,28.343 -20.883,62.623 -108.257,41.594 V -61.71 l 22.753,5.253 v 27.851 c 0,11.318 6.522,9.233 10.683,6.523 3.232,-2.104 10.087,-7.629 26.29,-25.838 l 38.654,8.924 -30.121,30.841 c 0,0 39.998,16.105 39.998,58.997"
       style="fill:#faa61a;fill-opacity:1;fill-rule:nonzero;stroke:none"
       transform="matrix(1.3333333,0,0,-1.3333333,228.65293,256.08907)"
       clip-path="url(#clipPath22)" />
  </g>
</svg>
