<?xml version="1.0" encoding="UTF-8" standalone="no"?>
<!-- Created with Inkscape (http://www.inkscape.org/) -->

<svg
   version="1.1"
   id="svg1"
   width="666.66669"
   height="496.35468"
   viewBox="0 0 666.66669 496.35468"
   sodipodi:docname="Rhythm Heaven Advance Logo (No Gradient).ai"
   xmlns:inkscape="http://www.inkscape.org/namespaces/inkscape"
   xmlns:sodipodi="http://sodipodi.sourceforge.net/DTD/sodipodi-0.dtd"
   xmlns="http://www.w3.org/2000/svg"
   xmlns:svg="http://www.w3.org/2000/svg">
  <defs
     id="defs1">
    <clipPath
       clipPathUnits="userSpaceOnUse"
       id="clipPath2">
      <path
         d="M 0,372.266 H 500 V 0 H 0 Z"
         transform="translate(-481.88271,-224.03151)"
         id="path2" />
    </clipPath>
    <clipPath
       clipPathUnits="userSpaceOnUse"
       id="clipPath4">
      <path
         d="M 0,372.266 H 500 V 0 H 0 Z"
         transform="translate(-468.89151,-222.42021)"
         id="path4" />
    </clipPath>
    <clipPath
       clipPathUnits="userSpaceOnUse"
       id="clipPath6">
      <path
         d="M 0,372.266 H 500 V 0 H 0 Z"
         transform="translate(-457.02731,-220.91381)"
         id="path6" />
    </clipPath>
    <clipPath
       clipPathUnits="userSpaceOnUse"
       id="clipPath8">
      <path
         d="M 0,372.266 H 500 V 0 H 0 Z"
         transform="translate(-358.56051,-123.821)"
         id="path8" />
    </clipPath>
    <clipPath
       clipPathUnits="userSpaceOnUse"
       id="clipPath10">
      <path
         d="M 0,372.266 H 500 V 0 H 0 Z"
         transform="translate(-457.02141,-137.6726)"
         id="path10" />
    </clipPath>
    <clipPath
       clipPathUnits="userSpaceOnUse"
       id="clipPath12">
      <path
         d="M 0,372.266 H 500 V 0 H 0 Z"
         transform="translate(-419.85441,-223.29861)"
         id="path12" />
    </clipPath>
    <clipPath
       clipPathUnits="userSpaceOnUse"
       id="clipPath14">
      <path
         d="M 0,372.266 H 500 V 0 H 0 Z"
         transform="translate(-358.10341,-140.4089)"
         id="path14" />
    </clipPath>
    <clipPath
       clipPathUnits="userSpaceOnUse"
       id="clipPath16">
      <path
         d="M 0,372.266 H 500 V 0 H 0 Z"
         transform="translate(-318.46571,-188.75321)"
         id="path16" />
    </clipPath>
    <clipPath
       clipPathUnits="userSpaceOnUse"
       id="clipPath18">
      <path
         d="M 0,372.266 H 500 V 0 H 0 Z"
         transform="translate(-270.39831,-116.8913)"
         id="path18" />
    </clipPath>
    <clipPath
       clipPathUnits="userSpaceOnUse"
       id="clipPath20">
      <path
         d="M 0,372.266 H 500 V 0 H 0 Z"
         transform="translate(-219.3202,-103.8728)"
         id="path20" />
    </clipPath>
    <clipPath
       clipPathUnits="userSpaceOnUse"
       id="clipPath22">
      <path
         d="M 0,372.266 H 500 V 0 H 0 Z"
         transform="translate(-174.8383,-157.9656)"
         id="path22" />
    </clipPath>
    <clipPath
       clipPathUnits="userSpaceOnUse"
       id="clipPath24">
      <path
         d="M 0,372.266 H 500 V 0 H 0 Z"
         transform="translate(-418.44331,-234.36891)"
         id="path24" />
    </clipPath>
    <clipPath
       clipPathUnits="userSpaceOnUse"
       id="clipPath26">
      <path
         d="M 0,372.266 H 500 V 0 H 0 Z"
         transform="translate(-328.88371,-279.34881)"
         id="path26" />
    </clipPath>
    <clipPath
       clipPathUnits="userSpaceOnUse"
       id="clipPath28">
      <path
         d="M 0,372.266 H 500 V 0 H 0 Z"
         transform="translate(-250.28461,-269.14181)"
         id="path28" />
    </clipPath>
    <clipPath
       clipPathUnits="userSpaceOnUse"
       id="clipPath30">
      <path
         d="M 0,372.266 H 500 V 0 H 0 Z"
         transform="translate(-244.08981,-256.698)"
         id="path30" />
    </clipPath>
    <clipPath
       clipPathUnits="userSpaceOnUse"
       id="clipPath32">
      <path
         d="M 0,372.266 H 500 V 0 H 0 Z"
         transform="translate(-173.34951,-245.4372)"
         id="path32" />
    </clipPath>
    <clipPath
       clipPathUnits="userSpaceOnUse"
       id="clipPath34">
      <path
         d="M 0,372.266 H 500 V 0 H 0 Z"
         transform="translate(-99.563905,-195.32591)"
         id="path34" />
    </clipPath>
    <clipPath
       clipPathUnits="userSpaceOnUse"
       id="clipPath36">
      <path
         d="M 0,372.266 H 500 V 0 H 0 Z"
         transform="translate(-486.56441,-107.5896)"
         id="path36" />
    </clipPath>
    <clipPath
       clipPathUnits="userSpaceOnUse"
       id="clipPath38">
      <path
         d="M 0,372.266 H 500 V 0 H 0 Z"
         transform="translate(-479.85151,-78.259499)"
         id="path38" />
    </clipPath>
    <clipPath
       clipPathUnits="userSpaceOnUse"
       id="clipPath40">
      <path
         d="M 447.483,113.214 V 70.787 l 32.368,7.473 v 7.758 l -23.889,-5.516 v 9.941 l 19.622,4.53 v 7.758 l -19.622,-4.53 v 9.213 l 23.889,5.514 v 7.759 z m -11.53,-2.662 -17.57,-4.056 c -1.183,-0.273 -2.281,-0.779 -3.298,-1.519 v 0 c -1.017,-0.741 -1.903,-1.622 -2.66,-2.645 v 0 c -0.758,-1.023 -1.358,-2.142 -1.802,-3.355 v 0 c -0.443,-1.215 -0.665,-2.427 -0.665,-3.639 v 0 -24.001 c 0,-1.295 0.231,-2.443 0.693,-3.446 v 0 c 0.462,-1.006 1.081,-1.833 1.857,-2.481 v 0 c 0.776,-0.65 1.672,-1.1 2.688,-1.35 v 0 c 1.016,-0.25 2.078,-0.246 3.187,0.009 v 0 l 17.57,4.057 c 1.109,0.256 2.171,0.743 3.188,1.463 v 0 c 1.015,0.718 1.92,1.584 2.715,2.596 v 0 c 0.795,1.011 1.422,2.126 1.885,3.345 v 0 c 0.462,1.217 0.693,2.473 0.693,3.765 v 0 3.274 l -8.481,-1.958 V 78.49 c 0,-0.727 -0.231,-1.398 -0.692,-2.009 v 0 c -0.463,-0.612 -1.025,-0.994 -1.691,-1.148 v 0 l -12.804,-2.955 c -0.665,-0.155 -1.228,-0.022 -1.69,0.397 v 0 c -0.463,0.418 -0.693,0.992 -0.693,1.719 v 0 21.577 c 0,0.728 0.23,1.406 0.693,2.039 v 0 c 0.462,0.631 1.025,1.024 1.69,1.178 v 0 l 12.804,2.956 c 0.666,0.154 1.228,0.03 1.691,-0.368 v 0 c 0.461,-0.398 0.692,-0.961 0.692,-1.688 v 0 -2.122 l 8.481,1.958 v 3.274 c 0,1.251 -0.231,2.39 -0.693,3.416 v 0 c -0.463,1.023 -1.09,1.859 -1.885,2.504 v 0 c -0.795,0.644 -1.7,1.092 -2.715,1.343 v 0 c -0.503,0.124 -1.016,0.186 -1.541,0.185 v 0 c -0.537,0 -1.086,-0.064 -1.647,-0.194 m -39.13,-9.034 V 70.91 l -17.515,26.565 -10.2,-2.355 V 52.693 l 8.425,1.945 v 30.608 l 17.516,-26.564 10.198,2.354 v 42.426 z m -54.209,-12.514 -16.406,-46.215 8.425,1.945 3.382,9.933 17.57,4.056 3.437,-8.359 8.425,1.945 -16.408,38.639 z m 4.213,-8.847 0.056,0.012 5.819,-14.354 -11.75,-2.711 z m -27.769,3.408 -11.806,-34.121 -11.805,28.67 -8.813,-2.035 16.406,-38.639 8.425,1.946 16.406,46.213 z M 276.767,73.802 249.664,67.545 V 25.117 l 27.103,6.258 c 1.182,0.273 2.292,0.78 3.326,1.525 v 0 c 1.034,0.743 1.93,1.629 2.688,2.652 v 0 c 0.757,1.022 1.359,2.14 1.802,3.355 v 0 c 0.443,1.213 0.665,2.426 0.665,3.639 v 0 24.001 c 0,1.292 -0.232,2.441 -0.693,3.446 v 0 c -0.462,1.004 -1.081,1.831 -1.857,2.48 v 0 c -0.777,0.648 -1.681,1.097 -2.716,1.343 v 0 c -0.508,0.121 -1.024,0.181 -1.55,0.181 v 0 c -0.545,0 -1.1,-0.065 -1.665,-0.195 m -18.678,-12.071 16.295,3.762 c 0.665,0.154 1.228,0.021 1.69,-0.398 v 0 c 0.462,-0.418 0.693,-0.991 0.693,-1.718 v 0 V 41.8 c 0,-0.728 -0.231,-1.408 -0.693,-2.04 v 0 c -0.462,-0.632 -1.025,-1.024 -1.69,-1.177 v 0 L 258.089,34.82 Z m -34.92,-0.303 -16.406,-46.214 8.425,1.944 3.382,9.933 17.569,4.056 3.437,-8.358 8.425,1.944 -16.407,38.64 z m 4.212,-8.846 0.056,0.012 5.82,-14.354 -11.75,-2.713 z"
         transform="translate(-487.95991,-150.8904)"
         id="path40" />
    </clipPath>
  </defs>
  <sodipodi:namedview
     id="namedview1"
     pagecolor="#ffffff"
     bordercolor="#000000"
     borderopacity="0.25"
     inkscape:showpageshadow="2"
     inkscape:pageopacity="0.0"
     inkscape:pagecheckerboard="0"
     inkscape:deskcolor="#d1d1d1">
    <inkscape:page
       x="0"
       y="0"
       inkscape:label="1"
       id="page1"
       width="666.66669"
       height="496.35468"
       margin="0"
       bleed="0" />
  </sodipodi:namedview>
  <g
     id="layer-MC0"
     inkscape:groupmode="layer"
     inkscape:label="Layer 1">
    <path
       id="path1"
       d="m 0,0 c 4.894,12.547 7.441,25.99 7.441,39.551 0,59.928 -48.754,108.683 -108.682,108.683 -34.925,0 -67.126,-16.686 -87.342,-43.975 -14.012,7.001 -29.565,10.725 -45.455,10.725 -20.991,0 -41.147,-6.349 -58.288,-18.36 -8.888,-6.229 -16.636,-13.735 -23.038,-22.255 -17.194,10.789 -37.268,16.702 -57.836,16.702 -59.928,0 -108.683,-48.755 -108.683,-108.683 0,-24.092 7.724,-46.916 22.336,-66.007 10.206,-13.335 23.493,-24.171 38.472,-31.557 -0.205,-2.623 -0.307,-5.258 -0.307,-7.897 0,-55.669 45.29,-100.959 100.958,-100.959 20.885,0 40.931,6.327 57.972,18.298 10.137,7.121 18.774,15.914 25.603,25.984 11.397,-4.307 23.536,-6.534 35.935,-6.534 31.208,0 60.532,14.581 79.601,38.459 12.554,-5.597 26.177,-8.498 40.267,-8.498 54.679,0 99.163,44.484 99.163,99.162 C 18.117,-36.458 11.765,-16.626 0,0"
       style="fill:#00b3f0;fill-opacity:1;fill-rule:nonzero;stroke:none"
       transform="matrix(1.3333333,0,0,-1.3333333,642.51027,197.646)"
       clip-path="url(#clipPath2)" />
    <path
       id="path3"
       d="m 0,0 c 5.98,12.826 9.115,26.918 9.115,41.162 0,53.688 -43.678,97.366 -97.365,97.366 -34.693,0 -66.385,-18.377 -83.768,-47.706 -14.529,9.386 -31.55,14.456 -49.028,14.456 -18.656,0 -36.566,-5.64 -51.794,-16.312 -10.96,-7.68 -19.968,-17.542 -26.537,-28.964 -17.16,13.703 -38.677,21.363 -60.831,21.363 -53.688,0 -97.366,-43.678 -97.366,-97.365 0,-40.116 24.959,-76.144 61.727,-90.631 -0.815,-4.887 -1.227,-9.848 -1.227,-14.83 0,-49.429 40.213,-89.642 89.641,-89.642 18.544,0 36.341,5.616 51.467,16.241 11.591,8.143 20.975,18.746 27.566,31.059 12.499,-6.276 26.296,-9.552 40.477,-9.552 30.846,0 59.619,16.027 76.091,41.624 13.257,-7.66 28.192,-11.663 43.777,-11.663 48.438,0 87.845,39.407 87.845,87.845 C 19.79,-35.123 12.811,-15.654 0,0"
       style="fill:#ffffff;fill-opacity:1;fill-rule:nonzero;stroke:none"
       transform="matrix(1.3333333,0,0,-1.3333333,625.18867,199.7944)"
       clip-path="url(#clipPath4)" />
    <path
       id="path5"
       d="m 0,0 c 7.066,12.623 11.101,27.174 11.101,42.669 0,48.317 -39.169,87.485 -87.487,87.485 -35.965,0 -66.855,-21.705 -80.301,-52.728 -14.093,12.138 -32.437,19.478 -52.495,19.478 -34.319,0 -63.615,-21.483 -75.188,-51.733 -15.969,17.115 -38.72,27.82 -63.974,27.82 -48.317,0 -87.486,-39.168 -87.486,-87.485 0,-39.96 26.792,-73.661 63.392,-84.124 -1.882,-6.792 -2.892,-13.946 -2.892,-21.337 0,-44.051 35.711,-79.762 79.762,-79.762 34.078,0 63.159,21.375 74.582,51.446 12.832,-8.648 28.29,-13.698 44.927,-13.698 32.058,0 59.734,18.744 72.675,45.869 13.102,-9.979 29.454,-15.908 47.195,-15.908 43.058,0 77.963,34.906 77.963,77.965 C 21.774,-33.06 13.483,-14.015 0,0"
       style="fill:#130c0e;fill-opacity:1;fill-rule:nonzero;stroke:none"
       transform="matrix(1.3333333,0,0,-1.3333333,609.36973,201.80293)"
       clip-path="url(#clipPath6)" />
    <path
       id="path7"
       d="m 0,0 -133.203,-30.753 10.548,-45.687 133.203,30.752 z"
       style="fill:#130c0e;fill-opacity:1;fill-rule:nonzero;stroke:none"
       transform="matrix(1.3333333,0,0,-1.3333333,478.08067,331.26)"
       clip-path="url(#clipPath8)" />
    <path
       id="path9"
       d="m 0,0 v 6.729 l -1.691,-7.12 -1.833,-0.422 -1.652,6.347 v -6.729 l -1.731,-0.4 V 6.46 l 2.705,0.625 1.632,-6.013 0.02,0.005 1.591,6.756 2.671,0.617 V 0.395 Z M -12.504,-2.887 V 3.739 L -15.29,3.097 v 1.424 l 7.369,1.701 V 4.798 l -2.685,-0.62 v -6.627 z"
       style="fill:#f15a22;fill-opacity:1;fill-rule:nonzero;stroke:none"
       transform="matrix(1.3333333,0,0,-1.3333333,609.36187,312.7912)"
       clip-path="url(#clipPath10)" />
    <path
       id="path11"
       d="m 0,0 c 0,0 -0.125,-32.698 -0.532,-38.45 -0.636,-8.985 -3.05,-9.226 -5.104,-7.878 -4.099,2.689 -11.759,18.003 -18.616,31.32 l -10.005,-2.31 v -82.747 l 12.234,2.825 0.041,20.996 c 0.021,10.777 2.963,11.478 7.24,7.563 3.245,-2.97 7.66,-9.522 14.617,-20.662 l 16.189,3.739 V 3.709 Z"
       style="fill:#f15a22;fill-opacity:1;fill-rule:nonzero;stroke:none"
       transform="matrix(1.3333333,0,0,-1.3333333,559.80587,198.6232)"
       clip-path="url(#clipPath12)" />
    <path
       id="path13"
       d="m 0,0 c -0.371,-0.002 -3.119,0.092 -3.413,2.188 -0.17,1.214 0.412,2.354 1.879,3.251 2.293,1.403 10.23,3.684 17.848,5.471 v 10.534 c 0,0 -13.793,-3.319 -18.036,-2.688 -1.289,0.192 -2.147,0.873 -2.317,2.063 -0.175,1.217 0.438,2.314 1.879,3.251 3.879,2.528 21.293,6.284 21.293,6.284 v 24.308 l -35.855,-8.278 v -64.797 l 36.607,8.451 V 3.501 C 10.114,1.281 3.511,0.019 0,0"
       style="fill:#f15a22;fill-opacity:1;fill-rule:nonzero;stroke:none"
       transform="matrix(1.3333333,0,0,-1.3333333,477.4712,309.1428)"
       clip-path="url(#clipPath14)" />
    <path
       id="path15"
       d="m 0,0 c 0,0 -3.884,-25.59 -7.333,-37.417 -0.985,-3.378 -3.367,-8.548 -6.607,-1.156 -1.161,2.648 -4.605,15.019 -7.133,30.967 l -11.186,-2.582 c 0.979,-10.966 6.349,-40.584 13.503,-57.839 l 21.694,5.008 c 7.985,21.133 12.776,43.452 14.405,67.023 z"
       style="fill:#f15a22;fill-opacity:1;fill-rule:nonzero;stroke:none"
       transform="matrix(1.3333333,0,0,-1.3333333,424.62093,244.68373)"
       clip-path="url(#clipPath16)" />
    <path
       id="path17"
       d="m 0,0 c -1.728,-0.376 -5.658,-1.372 -7.667,-1.748 -1.923,-0.376 -3.046,0.708 -2.808,3.452 0.216,2.567 1.343,8.009 1.771,9.846 0.946,4.064 2.804,5.759 4.989,6.063 2.802,0.391 5.249,-2.057 6.588,-8.696 C 3.003,8.275 3.329,6.943 3.543,5.134 3.801,2.936 2.722,0.686 0,0 M 9.562,36.684 C 4.133,46.686 -2.181,44.612 -5.416,43.542 -9.654,42.14 -13.417,39.963 -17.354,24.349 -21.491,7.935 -25.996,-26.544 -25.996,-26.544 l 11.359,2.622 1.167,6.537 c 0.564,3.157 2.574,5.163 5.636,6.065 0,0 8.802,2.284 11.806,2.626 1.269,0.144 2.76,-0.858 3.194,-2.845 l 1.534,-7.033 15.469,3.571 c 0,0 -7.695,38.948 -14.607,51.685"
       style="fill:#f15a22;fill-opacity:1;fill-rule:nonzero;stroke:none"
       transform="matrix(1.3333333,0,0,-1.3333333,360.53107,340.4996)"
       clip-path="url(#clipPath18)" />
    <path
       id="path19"
       d="M 0,0 C -0.371,-0.002 -3.12,0.092 -3.413,2.188 -3.583,3.403 -3,4.543 -1.535,5.439 0.759,6.843 8.696,9.124 16.314,10.91 v 10.535 c 0,0 -13.794,-3.319 -18.036,-2.688 -1.289,0.191 -2.147,0.873 -2.318,2.063 -0.174,1.217 0.439,2.313 1.879,3.251 3.88,2.527 21.294,6.283 21.294,6.283 v 26.201 l -35.855,-8.278 v -64.798 l 36.606,8.452 V 3.502 C 10.114,1.282 3.51,0.02 0,0"
       style="fill:#f15a22;fill-opacity:1;fill-rule:nonzero;stroke:none"
       transform="matrix(1.3333333,0,0,-1.3333333,292.42693,357.8576)"
       clip-path="url(#clipPath20)" />
    <path
       id="path21"
       d="m 0,0 c 0,-12.931 0.065,-22.607 -1.706,-28.948 -1.076,-3.853 -3.445,-6.784 -6.607,-9.004 -3.222,-2.261 -6.451,-3.251 -9.614,-3.314 -3.856,-0.076 -6.676,2.023 -7.088,6.308 -0.591,6.156 -0.552,13.936 -0.552,24.715 l -13.998,-3.232 v -95.344 l 19.227,4.438 c 0,12.135 0.249,21.078 1.744,26.657 1.019,3.801 3.792,7.01 6.591,8.9 3.271,2.209 6.28,3.314 9.449,3.365 3.851,0.063 6.776,-1.926 7.139,-5.767 0.533,-5.627 0.567,-13.278 0.567,-23.72 l 14.247,3.289 V 4.479 Z"
       style="fill:#f15a22;fill-opacity:1;fill-rule:nonzero;stroke:none"
       transform="matrix(1.3333333,0,0,-1.3333333,233.11773,285.73387)"
       clip-path="url(#clipPath22)" />
    <path
       id="path23"
       d="m 0,0 v 83.019 l -11.349,-2.62 c -6.019,-19.876 -9.423,-29.595 -12.393,-37.787 -5.055,-13.942 -10.311,-8.469 -12.749,-4.577 -2.851,4.551 -6.709,13.42 -13.418,29.658 l -16.573,-3.826 v -76.818 l 13.743,3.173 c -0.105,12.435 0.11,19.682 0.782,22.963 0.603,2.947 2.379,3.363 4.18,0.439 1.481,-2.405 3.825,-7.607 8.485,-18.309 l 9.217,2.128 c 5.079,13.648 7.823,20.524 9.761,23.893 1.572,2.735 4.549,4.66 5.455,-0.397 0.684,-3.826 0.627,-11.522 0.605,-24.23 z"
       style="fill:#faa61a;fill-opacity:1;fill-rule:nonzero;stroke:none"
       transform="matrix(1.3333333,0,0,-1.3333333,557.9244,183.8628)"
       clip-path="url(#clipPath24)" />
    <path
       id="path25"
       d="m 0,0 c 0,0 0.272,-18.031 -0.342,-24 -0.815,-7.922 -14.857,-10.657 -15.451,-2.561 -0.266,3.614 -0.469,8.275 -0.469,18.917 l -11.475,-2.649 v -71.116 l 15.734,3.632 v 16.424 c 0,12.631 15.691,13.687 16.537,4.858 0.266,-2.776 0.401,-7.104 0.401,-16.085 l 11.475,2.649 V 3.788 Z"
       style="fill:#faa61a;fill-opacity:1;fill-rule:nonzero;stroke:none"
       transform="matrix(1.3333333,0,0,-1.3333333,438.5116,123.8896)"
       clip-path="url(#clipPath26)" />
    <path
       id="path27"
       d="m 0,0 v -29.308 l 10.587,2.445 c 4.22,0.974 5.702,0.078 5.671,-8.399 v -37.664 l 12.544,2.896 v 34.854 c 0.087,14.962 1.843,18.059 9.284,19.777 l 6.644,1.534 v 24.192 z"
       style="fill:#faa61a;fill-opacity:1;fill-rule:nonzero;stroke:none"
       transform="matrix(1.3333333,0,0,-1.3333333,333.7128,137.49893)"
       clip-path="url(#clipPath28)" />
    <path
       id="path29"
       d="m 0,0 -13.378,-3.089 c 0,0 -0.084,-10.123 -0.824,-23.531 -0.787,-14.252 -16.141,-18.621 -17.017,-4.123 -0.56,9.261 -0.471,21.818 -0.471,21.818 l -16.015,-3.698 v -6.856 c 0,-26.701 3.068,-35.763 19.197,-34.02 3.772,0.407 6.644,1.605 9.881,3.796 0.201,0.137 0.458,0.14 0.697,-0.046 0.23,-0.178 0.603,-0.777 0.042,-2.521 -3.024,-9.388 -28.922,-12.179 -28.922,-12.179 l -0.007,-20.981 c 14.805,2.179 30.919,5.331 39.375,19.38 C -4.283,-60.802 0,-54.466 0,0"
       style="fill:#faa61a;fill-opacity:1;fill-rule:nonzero;stroke:none"
       transform="matrix(1.3333333,0,0,-1.3333333,325.45307,154.09067)"
       clip-path="url(#clipPath30)" />
    <path
       id="path31"
       d="m 0,0 c 0,0 0.259,-17.136 -0.325,-22.81 -0.775,-7.528 -14.12,-10.128 -14.684,-2.433 -0.253,3.435 -0.446,7.865 -0.446,17.978 l -10.906,-2.517 v -67.587 l 14.954,3.452 v 15.608 c 0,12.005 14.913,13.009 15.716,4.618 0.253,-2.639 0.381,-6.752 0.381,-15.288 l 10.906,2.518 V 3.601 Z"
       style="fill:#faa61a;fill-opacity:1;fill-rule:nonzero;stroke:none"
       transform="matrix(1.3333333,0,0,-1.3333333,231.13267,169.10507)"
       clip-path="url(#clipPath32)" />
    <path
       id="path33"
       d="m 0,0 c -6.848,-1.746 -10.887,1.922 -10.887,11.127 0,7.342 0.139,14.922 13.581,14.922 9.57,0 13.572,-4.845 13.572,-10.312 C 16.266,10.976 10.441,2.662 0,0 m 40.187,30.328 c 0,16.907 -12.458,37.357 -64.578,24.812 v -91.952 l 13.573,3.134 v 16.614 c 0,6.751 3.89,5.507 6.372,3.891 1.928,-1.256 6.017,-4.552 15.683,-15.413 l 23.058,5.323 -17.968,18.397 c 0,0 23.86,9.607 23.86,35.194"
       style="fill:#faa61a;fill-opacity:1;fill-rule:nonzero;stroke:none"
       transform="matrix(1.3333333,0,0,-1.3333333,132.75187,235.92013)"
       clip-path="url(#clipPath34)" />
    <path
       id="path35"
       d="m 0,0 v 21.536 l -268.49,-61.985 -21.734,-61.223 23.998,5.54 3.381,9.933 8.378,1.934 3.436,-8.359 104.251,24.068 3.381,9.933 8.377,1.934 3.436,-8.359 L 0,-34.669 v 21.536 l -4.268,-0.985 v 13.133 z"
       style="fill:#130c0e;fill-opacity:1;fill-rule:nonzero;stroke:none"
       transform="matrix(1.3333333,0,0,-1.3333333,648.75253,352.90187)"
       clip-path="url(#clipPath36)" />
    <path
       id="path37"
       d="M 0,0 -32.369,-7.473 V 34.954 L 0,42.428 v -7.759 l -23.889,-5.515 v -9.213 l 19.621,4.531 V 16.713 L -23.889,12.184 V 2.243 L 0,7.759 Z m -61.469,-14.19 c -1.108,-0.256 -2.171,-0.259 -3.186,-0.009 -1.017,0.25 -1.912,0.7 -2.689,1.349 -0.775,0.649 -1.394,1.476 -1.856,2.481 -0.463,1.004 -0.694,2.152 -0.694,3.446 v 24.001 c 0,1.213 0.222,2.425 0.665,3.639 0.445,1.214 1.044,2.332 1.802,3.355 0.757,1.024 1.644,1.905 2.66,2.646 1.017,0.739 2.116,1.245 3.298,1.518 l 17.571,4.057 c 1.109,0.256 2.17,0.259 3.187,0.008 1.016,-0.25 1.921,-0.698 2.716,-1.343 0.794,-0.645 1.422,-1.48 1.885,-2.504 0.462,-1.025 0.692,-2.164 0.692,-3.416 v -3.273 l -8.48,-1.958 v 2.122 c 0,0.726 -0.231,1.289 -0.693,1.688 -0.463,0.398 -1.025,0.521 -1.69,0.367 l -12.804,-2.956 c -0.665,-0.153 -1.228,-0.547 -1.69,-1.177 -0.463,-0.633 -0.694,-1.312 -0.694,-2.039 V -3.766 c 0,-0.727 0.231,-1.3 0.694,-1.718 0.462,-0.419 1.025,-0.552 1.69,-0.398 l 12.804,2.955 c 0.665,0.155 1.227,0.536 1.69,1.149 0.462,0.611 0.693,1.281 0.693,2.008 v 2.122 l 8.48,1.958 V 1.036 c 0,-1.293 -0.23,-2.549 -0.692,-3.765 -0.463,-1.219 -1.091,-2.334 -1.885,-3.345 -0.795,-1.013 -1.7,-1.878 -2.716,-2.597 -1.017,-0.72 -2.078,-1.207 -3.187,-1.463 z m -13.135,39.393 v -42.427 l -10.199,-2.354 -17.515,26.564 v -30.607 l -8.425,-1.945 V 16.86 l 10.199,2.355 17.515,-26.565 v 30.609 z m -58.42,-23.306 0.055,0.013 5.82,-14.354 -11.75,-2.712 z m 20.619,-27.847 -16.407,38.638 -8.425,-1.944 -16.407,-46.215 8.425,1.946 3.382,9.932 17.57,4.057 3.437,-8.36 z m -39.575,33.29 -16.407,-46.214 -8.425,-1.945 -16.406,38.638 8.813,2.035 11.805,-28.669 11.807,34.121 z m -51.104,-43.8 c 0,-0.728 -0.231,-1.407 -0.693,-2.039 -0.462,-0.632 -1.026,-1.024 -1.691,-1.178 l -16.295,-3.762 v 26.911 l 16.295,3.761 c 0.665,0.155 1.229,0.021 1.691,-0.397 0.462,-0.419 0.693,-0.991 0.693,-1.719 z m 8.48,24.747 c 0,1.293 -0.231,2.442 -0.693,3.446 -0.462,1.004 -1.081,1.831 -1.856,2.481 -0.777,0.648 -1.682,1.097 -2.716,1.343 -1.035,0.246 -2.107,0.241 -3.215,-0.015 l -27.104,-6.257 v -42.428 l 27.104,6.258 c 1.182,0.273 2.291,0.781 3.325,1.526 1.034,0.743 1.931,1.628 2.689,2.651 0.757,1.022 1.358,2.141 1.801,3.355 0.444,1.213 0.665,2.426 0.665,3.639 z m -57.866,-13.965 0.056,0.013 5.82,-14.355 -11.751,-2.712 z m 20.619,-27.848 -16.406,38.639 -8.425,-1.945 -16.406,-46.214 8.424,1.944 3.382,9.933 17.57,4.057 3.437,-8.359 z"
       style="fill:#7058f8;fill-opacity:1;fill-rule:nonzero;stroke:none"
       transform="matrix(1.3333333,0,0,-1.3333333,639.802,392.00867)"
       clip-path="url(#clipPath38)" />
    <path
       id="path39"
       d="m 0,0 -296.544,-68.485 11.63,-50.373 296.544,68.484 z"
       style="fill:#ffffff;fill-opacity:1;fill-rule:nonzero;stroke:none"
       transform="matrix(1.3333333,0,0,-1.3333333,650.6132,295.16747)"
       clip-path="url(#clipPath40)" />
  </g>
</svg>
