<?xml version="1.0" encoding="UTF-8" standalone="no"?>
<!-- Created with Inkscape (http://www.inkscape.org/) -->

<svg
   version="1.1"
   id="svg2"
   width="666.66669"
   height="497.78534"
   viewBox="0 0 666.66669 497.78534"
   sodipodi:docname="Rhythm Heaven Advance Logo (Wordmark).ai"
   xmlns:inkscape="http://www.inkscape.org/namespaces/inkscape"
   xmlns:sodipodi="http://sodipodi.sourceforge.net/DTD/sodipodi-0.dtd"
   xmlns="http://www.w3.org/2000/svg"
   xmlns:svg="http://www.w3.org/2000/svg">
  <defs
     id="defs6">
    <clipPath
       clipPathUnits="userSpaceOnUse"
       id="clipPath20">
      <path
         d="M 0,373.339 H 500 V 0 H 0 Z"
         id="path18" />
    </clipPath>
  </defs>
  <sodipodi:namedview
     id="namedview4"
     pagecolor="#ffffff"
     bordercolor="#000000"
     borderopacity="0.25"
     inkscape:showpageshadow="2"
     inkscape:pageopacity="0.0"
     inkscape:pagecheckerboard="0"
     inkscape:deskcolor="#d1d1d1" />
  <g
     id="g8"
     inkscape:groupmode="layer"
     inkscape:label="Rhythm Heaven Advance Logo (Wordmark)"
     transform="matrix(1.3333333,0,0,-1.3333333,0,497.78533)">
    <g
       id="g10"
       transform="translate(471.7918,151.2916)">
      <path
         d="m 0,0 v 8.314 l -2.09,-8.797 -2.264,-0.522 -2.04,7.843 v -8.314 l -2.14,-0.494 v 9.952 l 3.343,0.772 2.016,-7.429 0.024,0.006 1.966,8.348 3.3,0.762 V 0.488 Z m -15.449,-3.567 v 8.188 l -3.442,-0.795 v 1.759 l 9.104,2.102 V 5.928 l -3.318,-0.766 v -8.188 z"
         style="fill:#000000;fill-opacity:1;fill-rule:nonzero;stroke:none"
         id="path12" />
    </g>
    <g
       id="g14">
      <g
         id="g16"
         clip-path="url(#clipPath20)">
        <g
           id="g22"
           transform="translate(425.871,257.0872)">
          <path
             d="m 0,0 c 0,0 -0.155,-40.401 -0.658,-47.507 -0.503,-7.107 -1.741,-10.004 -3.675,-10.352 -0.929,-0.115 -1.856,0.11 -2.631,0.618 -5.065,3.323 -14.528,22.244 -23.001,38.697 l -12.362,-2.854 v -102.237 l 14.968,3.456 0.199,25.975 c 0,5.408 0.58,9 1.818,10.699 0.426,0.58 1.12,0.974 1.78,1.082 4.358,0.709 12.922,-10.352 23.407,-27.964 l 20.003,4.618 V 4.582 Z"
             style="fill:#000000;fill-opacity:1;fill-rule:nonzero;stroke:none"
             id="path24" />
        </g>
        <g
           id="g26"
           transform="translate(349.5745,154.6727)">
          <path
             d="m 0,0 c -0.459,-0.003 -3.854,0.113 -4.217,2.704 -0.211,1.5 0.541,2.858 2.321,4.017 1.548,0.927 3.908,1.892 7.08,2.819 l 14.973,3.94 v 13.016 c 0,0 -17.043,-4.101 -22.285,-3.322 -1.592,0.237 -2.631,1.082 -2.863,2.549 -0.193,1.507 0.542,2.859 2.321,4.017 4.794,3.123 26.309,7.764 26.309,7.764 L 23.64,67.537 -20.66,57.31 v -80.06 l 45.228,10.442 V 4.326 C 12.497,1.584 4.337,0.024 0,0"
             style="fill:#000000;fill-opacity:1;fill-rule:nonzero;stroke:none"
             id="path28" />
        </g>
        <g
           id="g30"
           transform="translate(300.5999,214.4048)">
          <path
             d="m 0,0 c 0,0 -4.799,-31.618 -9.06,-46.23 -1.218,-4.175 -4.161,-10.563 -8.164,-1.429 -1.433,3.272 -5.689,18.556 -8.813,38.261 l -13.82,-3.19 c 1.209,-13.549 7.844,-50.143 16.683,-71.463 l 26.804,6.188 c 9.866,26.11 15.786,53.687 17.797,82.81 z"
             style="fill:#000000;fill-opacity:1;fill-rule:nonzero;stroke:none"
             id="path32" />
        </g>
        <g
           id="g34"
           transform="translate(241.2111,125.6158)">
          <path
             d="m 0,0 c -2.135,-0.465 -6.992,-1.695 -9.474,-2.16 -2.375,-0.465 -3.762,0.875 -3.469,4.265 0.267,3.171 1.66,9.896 2.188,12.166 1.169,5.021 3.465,7.114 6.165,7.491 3.461,0.483 6.485,-2.543 8.139,-10.744 C 3.709,10.225 4.113,8.579 4.376,6.343 4.696,3.627 3.362,0.848 0,0 m 11.813,45.324 c -6.708,12.358 -14.508,9.797 -18.505,8.475 -5.237,-1.733 -9.885,-4.423 -14.749,-23.715 -5.113,-20.28 -10.678,-62.88 -10.678,-62.88 l 14.034,3.24 1.441,8.077 c 0.697,3.901 3.18,6.379 6.965,7.493 0,0 10.874,2.822 14.586,3.244 1.568,0.178 3.411,-1.059 3.946,-3.515 l 1.896,-8.69 19.113,4.413 c 0,0 -9.508,48.123 -18.049,63.858"
             style="fill:#000000;fill-opacity:1;fill-rule:nonzero;stroke:none"
             id="path36" />
        </g>
        <g
           id="g38"
           transform="translate(178.1012,109.5053)">
          <path
             d="m 0,0 c -0.459,-0.003 -3.854,0.113 -4.217,2.704 -0.211,1.5 0.541,2.858 2.321,4.017 1.548,0.927 3.908,1.892 7.08,2.819 l 14.973,3.94 v 13.016 c 0,0 -17.043,-4.101 -22.285,-3.322 -1.592,0.237 -2.631,1.082 -2.863,2.549 -0.194,1.507 0.542,2.859 2.321,4.017 4.794,3.123 26.309,7.764 26.309,7.764 V 69.909 L -20.66,59.682 V -20.393 L 24.568,-9.952 V 4.326 C 12.497,1.584 4.337,0.024 0,0"
             style="fill:#000000;fill-opacity:1;fill-rule:nonzero;stroke:none"
             id="path40" />
        </g>
        <g
           id="g42"
           transform="translate(122.9681,176.3246)">
          <path
             d="m 0,0 c 0.426,-15.952 0.254,-27.892 -1.935,-35.727 -1.329,-4.759 -4.255,-8.381 -8.163,-11.124 -3.98,-2.793 -7.97,-4.017 -11.878,-4.094 -4.765,-0.094 -8.209,1.76 -8.666,6.759 -0.697,7.609 -1.006,18.245 -0.774,31.57 l -17.295,-3.992 v -117.803 l 23.756,5.484 c -0.426,15.025 0.087,26.17 1.935,33.063 1.259,4.697 4.705,8.672 8.163,11.007 4.042,2.73 7.962,4.147 11.878,4.21 4.759,0.078 8.217,-2.129 8.666,-6.875 0.658,-6.952 0.968,-16.982 0.774,-29.767 l 17.681,4.082 V 5.574 Z"
             style="fill:#000000;fill-opacity:1;fill-rule:nonzero;stroke:none"
             id="path44" />
        </g>
        <g
           id="g46"
           transform="translate(424.127,270.7651)">
          <path
             d="m 0,0 v 102.574 l -14.022,-3.237 c -7.437,-24.558 -11.646,-36.565 -15.313,-46.688 -6.249,-17.224 -12.73,-10.458 -15.752,-5.655 -3.511,5.629 -8.289,16.58 -16.578,36.644 l -20.477,-4.727 v -94.913 l 16.98,3.92 c -0.129,15.365 0.14,24.318 0.967,28.372 0.748,3.642 2.943,4.158 5.164,0.543 1.834,-2.97 4.726,-9.4 10.484,-22.621 l 11.388,2.629 c 6.275,16.862 9.658,25.363 12.059,29.52 1.937,3.383 5.63,5.759 6.74,-0.49 0.852,-4.726 0.775,-14.237 0.749,-29.937 z"
             style="fill:#000000;fill-opacity:1;fill-rule:nonzero;stroke:none"
             id="path48" />
        </g>
        <g
           id="g50"
           transform="translate(313.0498,326.2421)">
          <path
             d="m 0,0 v -29.556 c -0.979,-9.534 -17.855,-13.571 -19.051,-3.557 -0.406,4.459 -0.619,10.618 -0.619,23.766 l -14.179,-3.273 v -87.867 l 19.441,4.488 v 21.032 c 1.182,15.211 18.81,16.055 20.432,5.263 0.545,-3.403 0.495,-8.778 0.495,-19.875 l 14.178,3.274 V 4.778 Z"
             style="fill:#000000;fill-opacity:1;fill-rule:nonzero;stroke:none"
             id="path52" />
        </g>
        <g
           id="g54"
           transform="translate(216.3589,313.7285)">
          <path
             d="m 0,0 v -36.211 l 13.082,3.02 c 5.213,1.204 7.044,0.097 7.006,-10.377 v -46.535 l 15.499,3.578 v 43.063 c 0.108,18.487 2.277,22.314 11.471,24.436 l 8.208,1.895 v 29.89 z"
             style="fill:#000000;fill-opacity:1;fill-rule:nonzero;stroke:none"
             id="path56" />
        </g>
        <g
           id="g58"
           transform="translate(208.7053,298.3532)">
          <path
             d="m 0,0 -16.53,-3.816 c 0,0 -0.376,-16.659 -1.018,-29.073 -0.957,-17.61 -19.787,-23.089 -20.831,-5.174 -0.477,9.133 -0.628,27.07 -0.628,27.07 l -19.935,-4.603 v -8.471 c 0,-32.99 4.089,-44.626 23.719,-42.034 4.647,0.614 8.174,1.805 12.091,4.63 0.254,0.161 0.504,0.137 0.706,0 0.421,-0.303 0.871,-1.152 0.177,-3.305 -3.737,-11.6 -35.587,-14.627 -35.587,-14.627 l -0.009,-26.15 c 18.292,2.692 38.261,6.552 48.65,23.945 C -5.271,-75.137 0.002,-62.048 0,0"
             style="fill:#000000;fill-opacity:1;fill-rule:nonzero;stroke:none"
             id="path60" />
        </g>
        <g
           id="g62"
           transform="translate(120.9014,284.3477)">
          <path
             d="m 0,0 v -28.089 c -0.931,-9.061 -16.969,-12.898 -18.106,-3.381 -0.385,4.237 -0.588,10.091 -0.588,22.587 l -13.475,-3.111 v -83.507 l 18.476,4.266 v 19.988 c 1.124,14.457 17.877,15.259 19.418,5.002 0.518,-3.234 0.471,-8.342 0.471,-18.888 l 13.474,3.11 V 4.541 Z"
             style="fill:#000000;fill-opacity:1;fill-rule:nonzero;stroke:none"
             id="path64" />
        </g>
        <g
           id="g66"
           transform="translate(30.1365,222.5253)">
          <path
             d="m 0,0 c -8.461,-2.157 -13.451,2.375 -13.451,13.748 0,9.072 0.171,18.438 16.78,18.438 11.824,0 16.758,-5.988 16.769,-12.742 C 20.109,13.143 12.901,3.29 0,0 m 49.652,37.472 c 0,20.889 -15.391,46.155 -79.788,30.656 v -113.61 l 16.769,3.871 v 20.301 c 0,9.909 6.45,5.929 7.874,5.034 2.406,-1.513 7.434,-5.623 19.377,-19.043 l 28.489,6.577 -22.2,22.73 c 0,0 29.479,11.87 29.479,43.484"
             style="fill:#000000;fill-opacity:1;fill-rule:nonzero;stroke:none"
             id="path68" />
        </g>
        <g
           id="g70"
           transform="translate(500,77.8724)">
          <path
             d="M 0,0 -39.994,-9.23 V 43.19 L 0,52.42 V 42.835 L -29.516,36.023 V 24.64 l 24.243,5.595 V 20.65 L -29.516,15.055 V 2.773 L 0,9.585 Z m -75.947,-17.528 c -1.37,-0.316 -2.683,-0.32 -3.938,-0.01 -1.256,0.309 -2.363,0.865 -3.321,1.667 -0.959,0.801 -1.724,1.823 -2.295,3.065 -0.571,1.241 -0.856,2.66 -0.856,4.258 v 29.655 c 0,1.498 0.274,2.996 0.822,4.496 0.548,1.499 1.29,2.881 2.226,4.146 0.935,1.264 2.031,2.352 3.287,3.267 1.255,0.913 2.613,1.539 4.075,1.876 l 21.709,5.011 c 1.369,0.316 2.681,0.319 3.938,0.01 1.255,-0.31 2.373,-0.864 3.355,-1.66 0.981,-0.797 1.757,-1.829 2.329,-3.094 0.57,-1.267 0.856,-2.674 0.856,-4.221 v -4.044 l -10.478,-2.418 v 2.621 c 0,0.899 -0.286,1.593 -0.856,2.087 -0.572,0.491 -1.267,0.643 -2.089,0.454 l -15.819,-3.651 c -0.822,-0.19 -1.519,-0.676 -2.089,-1.456 -0.572,-0.781 -0.856,-1.62 -0.856,-2.519 v -26.66 c 0,-0.898 0.284,-1.607 0.856,-2.123 0.57,-0.518 1.267,-0.682 2.089,-0.492 l 15.819,3.651 c 0.822,0.19 1.517,0.662 2.089,1.418 0.57,0.756 0.856,1.583 0.856,2.482 V 2.909 L -43.76,5.327 V 1.283 c 0,-1.598 -0.286,-3.149 -0.856,-4.653 -0.572,-1.506 -1.348,-2.883 -2.329,-4.132 -0.982,-1.251 -2.1,-2.32 -3.355,-3.208 -1.257,-0.889 -2.569,-1.492 -3.938,-1.808 z m -16.231,48.675 v -52.421 l -12.6,-2.908 -21.641,32.823 v -37.817 l -10.409,-2.403 v 52.421 l 12.601,2.908 21.64,-32.823 v 37.817 z m -72.18,-28.791 0.068,0.016 7.191,-17.736 -14.518,-3.351 z m 25.475,-34.409 -20.27,47.742 -10.41,-2.402 -20.271,-57.099 10.41,2.402 4.177,12.272 21.709,5.011 4.246,-10.328 z m -48.896,41.135 -20.271,-57.098 -10.409,-2.403 -20.271,47.742 10.889,2.513 14.586,-35.424 14.587,42.157 z M -250.92,-45.03 c 0,-0.899 -0.286,-1.739 -0.856,-2.519 -0.572,-0.781 -1.267,-1.266 -2.089,-1.456 l -20.134,-4.646 v 33.249 l 20.134,4.647 c 0.822,0.19 1.517,0.025 2.089,-0.492 0.57,-0.517 0.856,-1.225 0.856,-2.123 z m 10.478,30.575 c 0,1.598 -0.286,3.017 -0.856,4.259 -0.572,1.24 -1.336,2.262 -2.295,3.065 -0.958,0.801 -2.078,1.355 -3.355,1.659 -1.279,0.304 -2.602,0.298 -3.972,-0.018 l -33.488,-7.729 v -52.42 l 33.488,7.729 c 1.46,0.337 2.83,0.964 4.109,1.884 1.277,0.919 2.385,2.011 3.321,3.275 0.935,1.265 1.678,2.646 2.226,4.146 0.548,1.499 0.822,2.998 0.822,4.496 z m -71.496,-17.249 0.068,0.016 7.191,-17.736 -14.518,-3.351 z m 25.475,-34.409 -20.27,47.742 -10.41,-2.403 -20.271,-57.098 10.41,2.402 4.177,12.272 21.709,5.01 4.246,-10.328 z"
             style="fill:#000000;fill-opacity:1;fill-rule:nonzero;stroke:none"
             id="path72" />
        </g>
      </g>
    </g>
  </g>
</svg>
