<?xml version="1.0" encoding="UTF-8" standalone="no"?>
<!-- Created with Inkscape (http://www.inkscape.org/) -->

<svg
   version="1.1"
   id="svg1"
   width="666.66669"
   height="597.26398"
   viewBox="0 0 666.66669 597.26398"
   sodipodi:docname="Rhythm Heaven Advance (Favicon).ai"
   xmlns:inkscape="http://www.inkscape.org/namespaces/inkscape"
   xmlns:sodipodi="http://sodipodi.sourceforge.net/DTD/sodipodi-0.dtd"
   xmlns="http://www.w3.org/2000/svg"
   xmlns:svg="http://www.w3.org/2000/svg">
  <defs
     id="defs1">
    <clipPath
       clipPathUnits="userSpaceOnUse"
       id="clipPath2">
      <path
         d="M 0,447.948 H 500 V 0 H 0 Z"
         transform="translate(-327.82391,-353.54001)"
         id="path2" />
    </clipPath>
    <clipPath
       clipPathUnits="userSpaceOnUse"
       id="clipPath4">
      <path
         d="M 0,447.948 H 500 V 0 H 0 Z"
         transform="translate(-309.24731,-328.66211)"
         id="path4" />
    </clipPath>
    <clipPath
       clipPathUnits="userSpaceOnUse"
       id="clipPath6">
      <path
         d="M 0,447.948 H 500 V 0 H 0 Z"
         transform="translate(-295.58221,-301.41701)"
         id="path6" />
    </clipPath>
    <clipPath
       clipPathUnits="userSpaceOnUse"
       id="clipPath8">
      <path
         d="M 0,447.948 H 500 V 0 H 0 Z"
         transform="translate(-433.49531,-201.2764)"
         id="path8" />
    </clipPath>
    <clipPath
       clipPathUnits="userSpaceOnUse"
       id="clipPath10">
      <path
         d="M 0,447.948 H 500 V 0 H 0 Z"
         transform="translate(-405.61061,-139.71291)"
         id="path10" />
    </clipPath>
    <clipPath
       clipPathUnits="userSpaceOnUse"
       id="clipPath12">
      <path
         d="m 394.202,163.674 -44.44,-125.176 22.82,5.267 9.158,26.904 47.591,10.987 9.308,-22.639 22.819,5.267 -44.438,104.658 z m 11.408,-23.961 0.15,0.034 15.765,-38.879 -31.828,-7.348 z"
         transform="translate(-1111.4065,-405.99021)"
         id="path12" />
    </clipPath>
    <clipPath
       clipPathUnits="userSpaceOnUse"
       id="clipPath14">
      <path
         d="m 394.202,163.674 -44.44,-125.176 22.82,5.267 9.158,26.904 47.591,10.987 9.308,-22.639 22.819,5.267 -44.438,104.658 z m 11.408,-23.961 0.15,0.034 15.765,-38.879 -31.828,-7.348 z"
         transform="translate(-1111.4065,-405.99021)"
         id="path14" />
    </clipPath>
    <clipPath
       clipPathUnits="userSpaceOnUse"
       id="clipPath16">
      <path
         d="m 394.202,163.674 -44.44,-125.176 22.82,5.267 9.158,26.904 47.591,10.987 9.308,-22.639 22.819,5.267 -44.438,104.658 z m 11.408,-23.961 0.15,0.034 15.765,-38.879 -31.828,-7.348 z"
         transform="translate(-1111.4065,-405.99021)"
         id="path16" />
    </clipPath>
    <clipPath
       clipPathUnits="userSpaceOnUse"
       id="clipPath18">
      <path
         d="m 394.202,163.674 -44.44,-125.176 22.82,5.267 9.158,26.904 47.591,10.987 9.308,-22.639 22.819,5.267 -44.438,104.658 z m 11.408,-23.961 0.15,0.034 15.765,-38.879 -31.828,-7.348 z"
         transform="translate(-1111.4065,-405.99021)"
         id="path18" />
    </clipPath>
    <clipPath
       clipPathUnits="userSpaceOnUse"
       id="clipPath20">
      <path
         d="M 0,447.948 H 500 V 0 H 0 Z"
         transform="translate(-317.24241,-270.5605)"
         id="path20" />
    </clipPath>
    <clipPath
       clipPathUnits="userSpaceOnUse"
       id="clipPath22">
      <path
         d="M 0,447.948 H 500 V 0 H 0 Z"
         transform="translate(-171.49,-255.88081)"
         id="path22" />
    </clipPath>
  </defs>
  <sodipodi:namedview
     id="namedview1"
     pagecolor="#ffffff"
     bordercolor="#000000"
     borderopacity="0.25"
     inkscape:showpageshadow="2"
     inkscape:pageopacity="0.0"
     inkscape:pagecheckerboard="0"
     inkscape:deskcolor="#d1d1d1">
    <inkscape:page
       x="0"
       y="0"
       inkscape:label="1"
       id="page1"
       width="666.66669"
       height="597.26398"
       margin="0"
       bleed="0" />
  </sodipodi:namedview>
  <g
     id="layer-MC0"
     inkscape:groupmode="layer"
     inkscape:label="Layer 1">
    <path
       id="path1"
       d="m 0,0 c -28.795,56.007 -87.182,94.408 -154.371,94.408 -95.643,0 -173.453,-77.81 -173.453,-173.453 0,-84.627 60.924,-155.281 141.212,-170.436 28.794,-56.006 87.181,-94.407 154.37,-94.407 95.642,0 173.452,77.81 173.452,173.451 C 141.21,-85.81 80.288,-15.155 0,0"
       style="fill:#00b3f0;fill-opacity:1;fill-rule:nonzero;stroke:none"
       transform="matrix(1.3333333,0,0,-1.3333333,437.09853,125.87733)"
       clip-path="url(#clipPath2)" />
    <path
       id="path3"
       d="m 0,0 c -21.568,53.877 -74.306,92.035 -135.794,92.035 -80.617,0 -146.203,-65.586 -146.203,-146.202 0,-76.008 58.306,-138.646 132.538,-145.561 21.568,-53.876 74.306,-92.033 135.794,-92.033 80.616,0 146.203,65.586 146.203,146.202 C 132.538,-69.551 74.232,-6.914 0,0"
       style="fill:#ffffff;fill-opacity:1;fill-rule:nonzero;stroke:none"
       transform="matrix(1.3333333,0,0,-1.3333333,412.32973,159.04787)"
       clip-path="url(#clipPath4)" />
    <path
       id="path5"
       d="m 0,0 c -2.312,0 -4.603,-0.084 -6.882,-0.215 -12.113,52.473 -59.095,91.605 -115.247,91.605 -65.342,0 -118.312,-52.97 -118.312,-118.312 0,-65.342 52.97,-118.312 118.312,-118.312 2.311,0 4.603,0.084 6.881,0.214 12.114,-52.472 59.095,-91.605 115.248,-91.605 65.342,0 118.313,52.971 118.313,118.312 C 118.313,-52.971 65.342,0 0,0"
       style="fill:#130c0e;fill-opacity:1;fill-rule:nonzero;stroke:none"
       transform="matrix(1.3333333,0,0,-1.3333333,394.1096,195.37467)"
       clip-path="url(#clipPath6)" />
    <path
       id="path7"
       d="m 0,0 -60.396,-13.942 -66.504,-187.334 87.319,20.159 9.157,26.904 9.52,2.196 9.307,-22.64 78.102,18.031 z"
       style="fill:#130c0e;fill-opacity:1;fill-rule:nonzero;stroke:none"
       transform="matrix(1.3333333,0,0,-1.3333333,577.99373,328.89547)"
       clip-path="url(#clipPath8)" />
    <path
       id="path9"
       d="m 0,0 0.15,0.034 15.764,-38.88 -31.827,-7.347 z M 55.848,-75.429 11.41,29.229 l -22.819,-5.268 -44.439,-125.176 22.82,5.268 9.158,26.903 47.591,10.987 9.307,-22.639 z"
       style="fill:#7058f8;fill-opacity:1;fill-rule:nonzero;stroke:none"
       transform="matrix(1.3333333,0,0,-1.3333333,540.81413,410.98013)"
       clip-path="url(#clipPath10)" />
    <path
       id="path11"
       d="M 0,0 -803.213,-185.497 -771.712,-321.938 31.5,-136.441 Z"
       style="fill:#9482fa;fill-opacity:1;fill-rule:nonzero;stroke:none"
       transform="matrix(1.3333333,0,0,-1.3333333,1481.8753,55.943733)"
       clip-path="url(#clipPath12)" />
    <path
       id="path13"
       d="m 0,0 -803.213,-185.497 28.742,-128.724 803.212,185.497 z"
       style="fill:#cac1fd;fill-opacity:1;fill-rule:nonzero;stroke:none"
       transform="matrix(1.3333333,0,0,-1.3333333,1481.8753,55.943733)"
       clip-path="url(#clipPath14)" />
    <path
       id="path15"
       d="m 0,0 -803.213,-185.497 26.184,-122.173 803.212,185.497 z"
       style="fill:#f2effe;fill-opacity:1;fill-rule:nonzero;stroke:none"
       transform="matrix(1.3333333,0,0,-1.3333333,1481.8753,55.943733)"
       clip-path="url(#clipPath16)" />
    <path
       id="path17"
       d="m 0,0 -803.213,-185.497 25.224,-116.495 803.212,185.496 z"
       style="fill:#ffffff;fill-opacity:1;fill-rule:nonzero;stroke:none"
       transform="matrix(1.3333333,0,0,-1.3333333,1481.8753,55.943733)"
       clip-path="url(#clipPath18)" />
    <path
       id="path19"
       d="m 0,0 c 0,-21.676 0.109,-37.898 -2.86,-48.528 -1.804,-6.457 -5.774,-11.371 -11.077,-15.092 -5.399,-3.79 -10.813,-5.45 -16.115,-5.555 -6.465,-0.128 -11.191,3.39 -11.882,10.573 -0.992,10.32 -0.926,23.361 -0.926,41.431 l -23.465,-5.417 v -159.833 l 32.231,7.442 c 0,20.34 0.417,35.334 2.924,44.685 1.709,6.373 6.356,11.752 11.048,14.92 5.483,3.703 10.528,5.556 15.84,5.642 6.457,0.104 11.36,-3.228 11.969,-9.667 0.892,-9.433 0.95,-22.26 0.95,-39.766 l 23.884,5.515 V 7.509 Z"
       style="fill:#f15a22;fill-opacity:1;fill-rule:nonzero;stroke:none"
       transform="matrix(1.3333333,0,0,-1.3333333,422.98987,236.51667)"
       clip-path="url(#clipPath20)" />
    <path
       id="path21"
       d="m 0,0 c -11.479,-2.927 -18.25,3.222 -18.25,18.653 0,12.309 0.232,25.016 22.767,25.016 16.043,0 22.752,-8.124 22.752,-17.287 C 27.269,18.4 17.504,4.463 0,0 m 67.367,50.841 c 0,28.343 -20.882,62.623 -108.256,41.595 V -61.71 l 22.753,5.253 v 27.851 c 0,11.318 6.522,9.233 10.683,6.523 3.232,-2.104 10.086,-7.629 26.29,-25.838 l 38.654,8.924 -30.121,30.841 c 0,0 39.997,16.104 39.997,58.997"
       style="fill:#faa61a;fill-opacity:1;fill-rule:nonzero;stroke:none"
       transform="matrix(1.3333333,0,0,-1.3333333,228.65333,256.0896)"
       clip-path="url(#clipPath22)" />
  </g>
</svg>
