<?xml version="1.0" encoding="UTF-8" standalone="no"?>
<!-- Created with Inkscape (http://www.inkscape.org/) -->

<svg
   version="1.1"
   id="svg2"
   width="666.66669"
   height="347.64932"
   viewBox="0 0 666.66669 347.64932"
   sodipodi:docname="Rhythm World Advance (리듬 세상 ＡＤＶＡＮＣＥ) Logo (Print).ai"
   xmlns:inkscape="http://www.inkscape.org/namespaces/inkscape"
   xmlns:sodipodi="http://sodipodi.sourceforge.net/DTD/sodipodi-0.dtd"
   xmlns="http://www.w3.org/2000/svg"
   xmlns:svg="http://www.w3.org/2000/svg">
  <defs
     id="defs6">
    <clipPath
       clipPathUnits="userSpaceOnUse"
       id="clipPath16">
      <path
         d="M 0,260.737 H 500 V 0 H 0 Z"
         id="path14" />
    </clipPath>
  </defs>
  <sodipodi:namedview
     id="namedview4"
     pagecolor="#ffffff"
     bordercolor="#000000"
     borderopacity="0.25"
     inkscape:showpageshadow="2"
     inkscape:pageopacity="0.0"
     inkscape:pagecheckerboard="0"
     inkscape:deskcolor="#d1d1d1" />
  <g
     id="g8"
     inkscape:groupmode="layer"
     inkscape:label="Rhythm World Advance (리듬 세상 ＡＤＶＡＮＣＥ) Logo (Print)"
     transform="matrix(1.3333333,0,0,-1.3333333,0,347.64933)">
    <g
       id="g10">
      <g
         id="g12"
         clip-path="url(#clipPath16)">
        <g
           id="g18"
           transform="translate(399.4307,252.2119)">
          <path
             d="M 0,0 C -14.063,0 -27.961,-2.948 -40.705,-8.585 -57.21,2.503 -76.803,8.525 -96.82,8.525 c -40.297,0 -76.507,-24.31 -92.263,-60.527 -12.904,1.742 -25.998,0.953 -38.427,-2.227 -18.808,18.989 -44.311,29.706 -71.376,29.706 -55.441,0 -100.545,-45.104 -100.545,-100.545 0,-55.441 45.104,-100.545 100.545,-100.545 8.491,0 16.863,1.051 24.996,3.132 18.823,-19.006 44.334,-29.731 71.4,-29.731 40.297,0 76.507,24.311 92.261,60.527 18.449,-2.491 37.332,0.247 54.138,7.68 16.506,-11.089 36.1,-17.11 56.115,-17.11 55.441,0 100.545,45.104 100.545,100.545 C 100.569,-45.115 55.454,0 0,0"
             style="fill:#000000;fill-opacity:1;fill-rule:nonzero;stroke:none"
             id="path20" />
        </g>
        <g
           id="g22"
           transform="translate(399.4307,244.4126)">
          <path
             d="M 0,0 C -14.443,0 -28.694,-3.369 -41.494,-9.776 -57.42,2.056 -76.892,8.525 -96.82,8.525 c -39.225,0 -74.249,-24.966 -87.339,-61.46 -6.064,1.221 -12.215,1.838 -18.356,1.838 -9.363,0 -18.567,-1.384 -27.424,-4.12 -17.59,19.565 -42.457,30.694 -68.947,30.694 -51.14,0 -92.745,-41.606 -92.745,-92.746 0,-51.14 41.605,-92.745 92.745,-92.745 9.364,0 18.568,1.384 27.425,4.119 17.606,-19.581 42.482,-30.718 68.971,-30.718 39.224,0 74.249,24.965 87.338,61.459 6.064,-1.221 12.214,-1.837 18.356,-1.837 14.444,0 28.693,3.368 41.494,9.776 15.928,-11.832 35.399,-18.301 55.326,-18.301 51.14,0 92.746,41.605 92.746,92.745 C 92.77,-41.617 51.153,0 0,0"
             style="fill:#ffffff;fill-opacity:1;fill-rule:nonzero;stroke:none"
             id="path24" />
        </g>
        <g
           id="g26"
           transform="translate(399.4302,237.6378)">
          <path
             d="M 0,0 C -15.324,0 -29.724,-4 -42.198,-11.049 -57.047,1.175 -76.071,8.525 -96.82,8.525 c -39.423,0 -72.647,-26.549 -82.796,-62.722 -7.3,2 -14.974,3.1 -22.899,3.1 -10.399,0 -20.374,-1.85 -29.598,-5.225 -15.75,19.399 -39.823,31.798 -66.772,31.798 -47.473,0 -85.971,-38.498 -85.971,-85.97 0,-47.473 38.498,-85.971 85.971,-85.971 10.399,0 20.374,1.85 29.598,5.225 15.775,-19.424 39.823,-31.824 66.797,-31.824 39.423,0 72.646,26.549 82.796,62.722 7.3,-2 14.974,-3.1 22.899,-3.1 15.324,0 29.723,4 42.198,11.05 14.849,-12.225 33.873,-19.574 54.622,-19.574 47.473,0 85.971,38.498 85.971,85.97 C 85.996,-38.523 47.498,0 0,0"
             style="fill:#000000;fill-opacity:1;fill-rule:nonzero;stroke:none"
             id="path28" />
        </g>
        <g
           id="g30"
           transform="translate(360.3228,102.6786)">
          <path
             d="m 0,0 -105.379,-24.329 8.344,-36.144 105.38,24.329 z"
             style="fill:#000000;fill-opacity:1;fill-rule:nonzero;stroke:none"
             id="path32" />
        </g>
        <g
           id="g34"
           transform="translate(488.9755,96.3661)">
          <path
             d="m 0,0 v 18.896 l -235.57,-54.368 -19.07,-53.715 21.056,4.86 2.967,8.714 7.35,1.697 3.015,-7.335 91.468,21.111 2.967,8.714 7.35,1.697 3.015,-7.334 L 0,-30.418 v 18.896 l -3.745,-0.864 v 11.522 z"
             style="fill:#000000;fill-opacity:1;fill-rule:nonzero;stroke:none"
             id="path36" />
        </g>
        <g
           id="g38"
           transform="translate(483.0857,70.6334)">
          <path
             d="M 0,0 -28.401,-6.555 V 30.67 L 0,37.225 v -6.807 l -20.96,-4.837 v -8.083 l 17.215,3.973 V 14.664 L -20.96,10.691 V 1.969 L 0,6.807 Z m -53.932,-12.447 c -0.972,-0.225 -1.905,-0.227 -2.796,-0.007 -0.892,0.219 -1.678,0.614 -2.359,1.184 -0.681,0.569 -1.224,1.294 -1.629,2.176 -0.406,0.881 -0.608,1.889 -0.608,3.024 v 21.059 c 0,1.063 0.195,2.127 0.584,3.192 0.389,1.065 0.915,2.046 1.58,2.944 0.664,0.898 1.443,1.671 2.335,2.32 0.891,0.649 1.855,1.093 2.893,1.333 l 15.416,3.558 c 0.973,0.224 1.904,0.227 2.796,0.007 0.892,-0.22 1.686,-0.613 2.383,-1.178 0.697,-0.567 1.248,-1.299 1.654,-2.198 0.405,-0.899 0.608,-1.899 0.608,-2.997 v -2.872 l -7.441,-1.717 v 1.861 c 0,0.638 -0.203,1.132 -0.608,1.482 -0.405,0.349 -0.899,0.457 -1.483,0.322 l -11.234,-2.592 c -0.583,-0.135 -1.078,-0.48 -1.483,-1.034 -0.406,-0.555 -0.608,-1.151 -0.608,-1.789 V -3.3 c 0,-0.638 0.202,-1.142 0.608,-1.509 0.405,-0.367 0.9,-0.483 1.483,-0.349 l 11.234,2.593 c 0.584,0.135 1.078,0.47 1.483,1.007 0.405,0.537 0.608,1.124 0.608,1.762 v 1.862 l 7.441,1.717 V 0.911 c 0,-1.135 -0.203,-2.236 -0.608,-3.304 -0.406,-1.069 -0.957,-2.047 -1.654,-2.934 -0.697,-0.888 -1.491,-1.647 -2.383,-2.279 -0.892,-0.631 -1.823,-1.059 -2.796,-1.283 z m -11.525,34.565 v -37.225 l -8.948,-2.065 -15.368,23.308 v -26.855 l -7.392,-1.706 V 14.8 l 8.948,2.065 15.368,-23.308 v 26.855 z m -51.257,-20.445 0.048,0.011 5.106,-12.594 -10.309,-2.38 z m 18.09,-24.435 -14.394,33.903 -7.392,-1.706 -14.395,-40.547 7.392,1.706 2.966,8.715 15.416,3.558 3.015,-7.335 z m -34.722,29.212 -14.395,-40.547 -7.392,-1.706 -14.395,33.902 7.733,1.785 10.358,-25.156 10.358,29.937 z m -44.838,-38.427 c 0,-0.638 -0.203,-1.235 -0.608,-1.789 -0.406,-0.554 -0.9,-0.899 -1.483,-1.033 l -14.298,-3.3 v 23.611 l 14.298,3.3 c 0.583,0.135 1.077,0.018 1.483,-0.349 0.405,-0.368 0.608,-0.87 0.608,-1.508 z m 7.441,21.713 c 0,1.134 -0.203,2.141 -0.608,3.023 -0.406,0.881 -0.949,1.607 -1.63,2.177 -0.68,0.569 -1.475,0.962 -2.382,1.178 -0.908,0.216 -1.848,0.212 -2.821,-0.013 l -23.781,-5.488 v -37.225 l 23.781,5.489 c 1.037,0.239 2.01,0.684 2.918,1.338 0.907,0.652 1.694,1.428 2.358,2.325 0.665,0.898 1.192,1.879 1.581,2.944 0.389,1.065 0.584,2.129 0.584,3.193 z m -50.771,-12.25 0.048,0.011 5.107,-12.594 -10.31,-2.38 z m 18.09,-24.435 -14.394,33.903 -7.392,-1.706 -14.395,-40.547 7.392,1.706 2.966,8.715 15.416,3.558 3.016,-7.335 z"
             style="fill:#ffffff;fill-opacity:1;fill-rule:nonzero;stroke:none"
             id="path40" />
        </g>
        <g
           id="g42"
           transform="translate(386.4058,157.8918)">
          <path
             d="m 0,0 c 0,0 -2.031,-17.313 -24.199,-39.673 l -11.349,9.425 c 11.358,9.198 24.449,30.217 24.449,48.947 v 0.529 c 0,2.25 -1.741,2.247 -3.909,1.826 l -2.191,-0.426 v 6.667 L 7.125,32.023 V 22.241 C 7.125,3.113 17.677,0.037 31.698,-0.1 L 24.724,-10.949 C 3.418,-9.038 0,0 0,0 M 68.122,26.774 V 14.591 l -13.85,-2.692 v -22.877 l -18.499,-3.596 v 52.713 c 0,2.373 -1.949,2.349 -4.169,1.918 l -2.23,-0.434 v 7.035 l 24.898,4.839 V 24.082 Z M 19.199,-49.987 c -2.525,0.05 -7.675,0.151 -7.675,8.069 0,8.206 6.552,14.092 13.675,14.092 7.311,0.001 7.824,-4.953 7.824,-7.969 0,-7.392 -6.371,-14.339 -13.824,-14.192 m 18.499,32.631 c -8.585,1.935 -19.637,2.139 -32.173,-6.399 -8.243,-5.614 -12.4,-12.452 -12.4,-20.289 0.001,-2.823 0.62,-5.625 1.85,-8.319 3.777,-8.271 9.37,-8.715 16.974,-9.318 12.426,-0.987 19.899,2.301 27.349,7.349 8.325,5.647 12.574,12.386 12.574,20.263 0,7.032 -3.609,14.333 -14.174,16.713"
             style="fill:#ffffff;fill-opacity:1;fill-rule:nonzero;stroke:none"
             id="path44" />
        </g>
        <g
           id="g46"
           transform="translate(320.5816,215.4287)">
          <path
             d="m 0,0 v -6.897 l 1.855,0.361 c 1.846,0.359 3.497,0.603 3.497,-1.77 v -87.829 l 18.649,3.625 V 4.665 Z m -21.846,-22.139 v -6.896 l 1.855,0.36 c 1.846,0.359 3.537,0.688 3.537,-1.686 v -20.098 l -15.642,-3.04 v -10.813 l 15.642,3.041 v -59.559 l 17.157,3.335 v 99.739 z m 2.425,-57.272 -8,-10.674 c -15.628,5.101 -19.849,12.874 -19.849,12.874 0,0 -5.918,-10.998 -18.324,-22.374 l -10.35,8.625 c 0,0 18.285,17.072 18.285,34.125 v 12.98 c 0,2.374 -1.939,2.312 -4.107,1.891 l -2.178,-0.424 v 7.5 l 23.949,4.655 v -23.879 c 0,-22.864 20.574,-25.299 20.574,-25.299"
             style="fill:#ffffff;fill-opacity:1;fill-rule:nonzero;stroke:none"
             id="path48" />
        </g>
        <g
           id="g50"
           transform="translate(179.4161,126.0451)">
          <path
             d="M 0,0 V -11.027 L 59.047,0.451 V -10.294 L -9.384,-23.596 c -5.523,-1.073 -10,2.534 -10,8.057 v 12.801 c 0,2.215 -0.204,2.884 -5.383,1.877 l -0.982,-0.191 V 5.74 L 59.047,22.222 V 11.478 Z m 59.047,-15.557 v -10.745 l -99.295,-19.301 v 10.745 z M 37.348,-60.663 3.9,-67.164 v 14.009 l 33.448,6.502 z m 19.699,28.709 -79.271,-15.409 v -7.377 l 0.983,0.191 c 5.188,1.009 5.392,0.195 5.392,-2.235 v -15.438 c 0,-4.971 4.029,-8.217 9,-7.251 l 56.896,11.06 c 4.971,0.966 9,5.779 9,10.749 v 24.098 c 0,1.105 -0.895,1.826 -2,1.612"
             style="fill:#ffffff;fill-opacity:1;fill-rule:nonzero;stroke:none"
             id="path52" />
        </g>
        <g
           id="g54"
           transform="translate(104.02,174.8409)">
          <path
             d="m 0,0 v -7.45 l 2.176,0.423 C 4.342,-6.606 6.325,-6.22 6.325,-9 v -43.997 c -3.2,-1.8 -7.298,-3.293 -12.35,-4.275 l -29.923,-5.817 v 13.466 l 27.748,5.394 c 1.381,0.269 2.5,1.605 2.5,2.986 v 26.662 c 0,1.381 -1.119,2.282 -2.5,2.014 l -52.047,-10.117 v -11.514 l 35.498,6.9 v -9.054 l -37.148,-7.221 v -7.575 l 0.877,0.171 c 1.771,0.344 4.398,0.855 4.398,-1.72 v -17.925 c 0,-4.418 3.581,-7.303 8,-6.444 l 39.072,7.594 c 7.33,1.425 12.65,3.2 15.875,4.825 v -42.185 l 20.124,3.912 V 5.141 Z"
             style="fill:#ffffff;fill-opacity:1;fill-rule:nonzero;stroke:none"
             id="path56" />
        </g>
        <g
           id="g58"
           transform="translate(493.8089,51.9607)">
          <path
             d="M 0,0 V 9.889 L -2.487,-0.587 -5.182,-1.222 -7.61,8.095 v -9.889 l -2.546,-0.601 V 9.444 l 3.978,0.938 2.399,-8.825 0.029,0.007 2.34,9.942 3.927,0.926 V 0.594 Z M -18.386,-4.336 V 5.403 L -22.483,4.437 V 6.53 l 10.836,2.555 V 6.992 l -3.949,-0.931 v -9.739 z"
             style="fill:#000000;fill-opacity:1;fill-rule:nonzero;stroke:none"
             id="path60" />
        </g>
      </g>
    </g>
  </g>
</svg>
