<?xml version="1.0" encoding="UTF-8" standalone="no"?>
<!-- Created with Inkscape (http://www.inkscape.org/) -->

<svg
   version="1.1"
   id="svg1"
   width="666.66669"
   height="347.64932"
   viewBox="0 0 666.66669 347.64932"
   sodipodi:docname="Rhythm World Advance (리듬 세상 ＡＤＶＡＮＣＥ) Logo (Sharp Gradient).ai"
   xmlns:inkscape="http://www.inkscape.org/namespaces/inkscape"
   xmlns:sodipodi="http://sodipodi.sourceforge.net/DTD/sodipodi-0.dtd"
   xmlns="http://www.w3.org/2000/svg"
   xmlns:svg="http://www.w3.org/2000/svg">
  <defs
     id="defs1">
    <clipPath
       clipPathUnits="userSpaceOnUse"
       id="clipPath2">
      <path
         d="M 0,260.737 H 500 V 0 H 0 Z"
         transform="translate(-399.43071,-252.21191)"
         id="path2" />
    </clipPath>
    <clipPath
       clipPathUnits="userSpaceOnUse"
       id="clipPath4">
      <path
         d="M 0,260.737 H 500 V 0 H 0 Z"
         transform="translate(-399.43071,-244.41261)"
         id="path4" />
    </clipPath>
    <clipPath
       clipPathUnits="userSpaceOnUse"
       id="clipPath6">
      <path
         d="M 0,260.737 H 500 V 0 H 0 Z"
         transform="translate(-399.43071,-237.63771)"
         id="path6" />
    </clipPath>
    <clipPath
       clipPathUnits="userSpaceOnUse"
       id="clipPath8">
      <path
         d="M 0,260.737 H 500 V 0 H 0 Z"
         transform="translate(-360.32321,-102.6787)"
         id="path8" />
    </clipPath>
    <clipPath
       clipPathUnits="userSpaceOnUse"
       id="clipPath10">
      <path
         d="M 0,260.737 H 500 V 0 H 0 Z"
         transform="translate(-488.97561,-96.3662)"
         id="path10" />
    </clipPath>
    <clipPath
       clipPathUnits="userSpaceOnUse"
       id="clipPath12">
      <path
         d="M 0,260.737 H 500 V 0 H 0 Z"
         transform="translate(-483.08591,-70.633804)"
         id="path12" />
    </clipPath>
    <clipPath
       clipPathUnits="userSpaceOnUse"
       id="clipPath14">
      <path
         d="M 454.685,101.304 V 64.079 l 28.401,6.555 v 6.807 l -20.96,-4.839 v 8.722 l 17.215,3.973 v 6.807 l -17.215,-3.973 v 8.083 l 20.96,4.838 v 6.807 z M 444.57,98.969 429.154,95.411 c -1.038,-0.239 -2.002,-0.683 -2.893,-1.332 v 0 c -0.893,-0.65 -1.672,-1.423 -2.335,-2.32 v 0 c -0.665,-0.899 -1.192,-1.88 -1.58,-2.944 v 0 c -0.39,-1.066 -0.584,-2.13 -0.584,-3.193 v 0 -21.059 c 0,-1.135 0.202,-2.142 0.608,-3.023 v 0 c 0.404,-0.883 0.949,-1.607 1.629,-2.177 v 0 c 0.68,-0.57 1.467,-0.965 2.358,-1.184 v 0 c 0.892,-0.22 1.824,-0.217 2.797,0.008 v 0 l 15.416,3.558 c 0.973,0.224 1.905,0.651 2.797,1.282 v 0 c 0.891,0.632 1.684,1.391 2.382,2.279 v 0 c 0.697,0.887 1.248,1.865 1.653,2.934 v 0 c 0.405,1.069 0.609,2.169 0.609,3.305 v 0 2.871 l -7.441,-1.717 v -1.861 c 0,-0.639 -0.203,-1.226 -0.608,-1.763 v 0 c -0.405,-0.537 -0.899,-0.872 -1.483,-1.006 v 0 l -11.234,-2.593 c -0.584,-0.135 -1.078,-0.019 -1.483,0.349 v 0 c -0.405,0.366 -0.608,0.87 -0.608,1.508 v 0 18.932 c 0,0.637 0.203,1.234 0.608,1.788 v 0 c 0.405,0.555 0.899,0.899 1.483,1.034 v 0 l 11.234,2.592 c 0.584,0.135 1.078,0.027 1.483,-0.322 v 0 c 0.405,-0.35 0.608,-0.843 0.608,-1.481 v 0 -1.861 l 7.441,1.717 v 2.872 c 0,1.098 -0.204,2.098 -0.609,2.997 v 0 c -0.405,0.898 -0.956,1.631 -1.653,2.197 v 0 c -0.698,0.566 -1.491,0.959 -2.382,1.179 v 0 c -0.441,0.108 -0.891,0.162 -1.351,0.162 v 0 c -0.472,0 -0.953,-0.057 -1.446,-0.17 M 410.236,91.045 V 64.191 l -15.367,23.308 -8.948,-2.066 V 48.209 l 7.392,1.705 v 26.855 l 15.368,-23.308 8.947,2.065 v 37.225 z m -47.56,-10.977 -14.396,-40.546 7.393,1.705 2.965,8.716 15.416,3.557 3.016,-7.334 7.392,1.706 -14.395,33.902 z m 3.695,-7.761 0.049,0.011 5.106,-12.595 -10.309,-2.379 z m -24.364,2.992 -10.359,-29.938 -10.358,25.157 -7.733,-1.786 14.396,-33.902 7.391,1.706 14.395,40.547 z m -37.106,-8.565 -23.78,-5.488 V 24.022 l 23.78,5.488 c 1.038,0.239 2.01,0.684 2.918,1.338 v 0 c 0.908,0.652 1.695,1.429 2.359,2.326 v 0 c 0.664,0.897 1.191,1.878 1.581,2.944 v 0 c 0.389,1.065 0.582,2.129 0.582,3.192 v 0 21.059 c 0,1.134 -0.201,2.141 -0.606,3.023 v 0 c -0.407,0.881 -0.949,1.607 -1.629,2.178 v 0 c -0.682,0.568 -1.476,0.962 -2.383,1.178 v 0 c -0.445,0.105 -0.898,0.158 -1.358,0.158 v 0 c -0.48,0 -0.967,-0.057 -1.464,-0.172 m -16.388,-10.588 14.297,3.299 c 0.585,0.135 1.078,0.018 1.484,-0.348 v 0 c 0.405,-0.368 0.607,-0.871 0.607,-1.509 v 0 -18.932 c 0,-0.637 -0.202,-1.234 -0.607,-1.788 v 0 c -0.406,-0.556 -0.899,-0.899 -1.484,-1.034 v 0 l -14.297,-3.3 z m -30.638,-0.264 -14.394,-40.548 7.392,1.706 2.966,8.715 15.416,3.557 3.016,-7.333 7.391,1.705 -14.394,33.904 z m 3.697,-7.763 0.048,0.012 5.107,-12.595 -10.31,-2.38 z"
         transform="translate(-490.19921,-134.3579)"
         id="path14" />
    </clipPath>
    <clipPath
       clipPathUnits="userSpaceOnUse"
       id="clipPath16">
      <path
         d="M 454.685,101.304 V 64.079 l 28.401,6.555 v 6.807 l -20.96,-4.839 v 8.722 l 17.215,3.973 v 6.807 l -17.215,-3.973 v 8.083 l 20.96,4.838 v 6.807 z M 444.57,98.969 429.154,95.411 c -1.038,-0.239 -2.002,-0.683 -2.893,-1.332 v 0 c -0.893,-0.65 -1.672,-1.423 -2.335,-2.32 v 0 c -0.665,-0.899 -1.192,-1.88 -1.58,-2.944 v 0 c -0.39,-1.066 -0.584,-2.13 -0.584,-3.193 v 0 -21.059 c 0,-1.135 0.202,-2.142 0.608,-3.023 v 0 c 0.404,-0.883 0.949,-1.607 1.629,-2.177 v 0 c 0.68,-0.57 1.467,-0.965 2.358,-1.184 v 0 c 0.892,-0.22 1.824,-0.217 2.797,0.008 v 0 l 15.416,3.558 c 0.973,0.224 1.905,0.651 2.797,1.282 v 0 c 0.891,0.632 1.684,1.391 2.382,2.279 v 0 c 0.697,0.887 1.248,1.865 1.653,2.934 v 0 c 0.405,1.069 0.609,2.169 0.609,3.305 v 0 2.871 l -7.441,-1.717 v -1.861 c 0,-0.639 -0.203,-1.226 -0.608,-1.763 v 0 c -0.405,-0.537 -0.899,-0.872 -1.483,-1.006 v 0 l -11.234,-2.593 c -0.584,-0.135 -1.078,-0.019 -1.483,0.349 v 0 c -0.405,0.366 -0.608,0.87 -0.608,1.508 v 0 18.932 c 0,0.637 0.203,1.234 0.608,1.788 v 0 c 0.405,0.555 0.899,0.899 1.483,1.034 v 0 l 11.234,2.592 c 0.584,0.135 1.078,0.027 1.483,-0.322 v 0 c 0.405,-0.35 0.608,-0.843 0.608,-1.481 v 0 -1.861 l 7.441,1.717 v 2.872 c 0,1.098 -0.204,2.098 -0.609,2.997 v 0 c -0.405,0.898 -0.956,1.631 -1.653,2.197 v 0 c -0.698,0.566 -1.491,0.959 -2.382,1.179 v 0 c -0.441,0.108 -0.891,0.162 -1.351,0.162 v 0 c -0.472,0 -0.953,-0.057 -1.446,-0.17 M 410.236,91.045 V 64.191 l -15.367,23.308 -8.948,-2.066 V 48.209 l 7.392,1.705 v 26.855 l 15.368,-23.308 8.947,2.065 v 37.225 z m -47.56,-10.977 -14.396,-40.546 7.393,1.705 2.965,8.716 15.416,3.557 3.016,-7.334 7.392,1.706 -14.395,33.902 z m 3.695,-7.761 0.049,0.011 5.106,-12.595 -10.309,-2.379 z m -24.364,2.992 -10.359,-29.938 -10.358,25.157 -7.733,-1.786 14.396,-33.902 7.391,1.706 14.395,40.547 z m -37.106,-8.565 -23.78,-5.488 V 24.022 l 23.78,5.488 c 1.038,0.239 2.01,0.684 2.918,1.338 v 0 c 0.908,0.652 1.695,1.429 2.359,2.326 v 0 c 0.664,0.897 1.191,1.878 1.581,2.944 v 0 c 0.389,1.065 0.582,2.129 0.582,3.192 v 0 21.059 c 0,1.134 -0.201,2.141 -0.606,3.023 v 0 c -0.407,0.881 -0.949,1.607 -1.629,2.178 v 0 c -0.682,0.568 -1.476,0.962 -2.383,1.178 v 0 c -0.445,0.105 -0.898,0.158 -1.358,0.158 v 0 c -0.48,0 -0.967,-0.057 -1.464,-0.172 m -16.388,-10.588 14.297,3.299 c 0.585,0.135 1.078,0.018 1.484,-0.348 v 0 c 0.405,-0.368 0.607,-0.871 0.607,-1.509 v 0 -18.932 c 0,-0.637 -0.202,-1.234 -0.607,-1.788 v 0 c -0.406,-0.556 -0.899,-0.899 -1.484,-1.034 v 0 l -14.297,-3.3 z m -30.638,-0.264 -14.394,-40.548 7.392,1.706 2.966,8.715 15.416,3.557 3.016,-7.333 7.391,1.705 -14.394,33.904 z m 3.697,-7.763 0.048,0.012 5.107,-12.595 -10.31,-2.38 z"
         transform="translate(-490.19921,-134.3579)"
         id="path16" />
    </clipPath>
    <clipPath
       clipPathUnits="userSpaceOnUse"
       id="clipPath18">
      <path
         d="M 454.685,101.304 V 64.079 l 28.401,6.555 v 6.807 l -20.96,-4.839 v 8.722 l 17.215,3.973 v 6.807 l -17.215,-3.973 v 8.083 l 20.96,4.838 v 6.807 z M 444.57,98.969 429.154,95.411 c -1.038,-0.239 -2.002,-0.683 -2.893,-1.332 v 0 c -0.893,-0.65 -1.672,-1.423 -2.335,-2.32 v 0 c -0.665,-0.899 -1.192,-1.88 -1.58,-2.944 v 0 c -0.39,-1.066 -0.584,-2.13 -0.584,-3.193 v 0 -21.059 c 0,-1.135 0.202,-2.142 0.608,-3.023 v 0 c 0.404,-0.883 0.949,-1.607 1.629,-2.177 v 0 c 0.68,-0.57 1.467,-0.965 2.358,-1.184 v 0 c 0.892,-0.22 1.824,-0.217 2.797,0.008 v 0 l 15.416,3.558 c 0.973,0.224 1.905,0.651 2.797,1.282 v 0 c 0.891,0.632 1.684,1.391 2.382,2.279 v 0 c 0.697,0.887 1.248,1.865 1.653,2.934 v 0 c 0.405,1.069 0.609,2.169 0.609,3.305 v 0 2.871 l -7.441,-1.717 v -1.861 c 0,-0.639 -0.203,-1.226 -0.608,-1.763 v 0 c -0.405,-0.537 -0.899,-0.872 -1.483,-1.006 v 0 l -11.234,-2.593 c -0.584,-0.135 -1.078,-0.019 -1.483,0.349 v 0 c -0.405,0.366 -0.608,0.87 -0.608,1.508 v 0 18.932 c 0,0.637 0.203,1.234 0.608,1.788 v 0 c 0.405,0.555 0.899,0.899 1.483,1.034 v 0 l 11.234,2.592 c 0.584,0.135 1.078,0.027 1.483,-0.322 v 0 c 0.405,-0.35 0.608,-0.843 0.608,-1.481 v 0 -1.861 l 7.441,1.717 v 2.872 c 0,1.098 -0.204,2.098 -0.609,2.997 v 0 c -0.405,0.898 -0.956,1.631 -1.653,2.197 v 0 c -0.698,0.566 -1.491,0.959 -2.382,1.179 v 0 c -0.441,0.108 -0.891,0.162 -1.351,0.162 v 0 c -0.472,0 -0.953,-0.057 -1.446,-0.17 M 410.236,91.045 V 64.191 l -15.367,23.308 -8.948,-2.066 V 48.209 l 7.392,1.705 v 26.855 l 15.368,-23.308 8.947,2.065 v 37.225 z m -47.56,-10.977 -14.396,-40.546 7.393,1.705 2.965,8.716 15.416,3.557 3.016,-7.334 7.392,1.706 -14.395,33.902 z m 3.695,-7.761 0.049,0.011 5.106,-12.595 -10.309,-2.379 z m -24.364,2.992 -10.359,-29.938 -10.358,25.157 -7.733,-1.786 14.396,-33.902 7.391,1.706 14.395,40.547 z m -37.106,-8.565 -23.78,-5.488 V 24.022 l 23.78,5.488 c 1.038,0.239 2.01,0.684 2.918,1.338 v 0 c 0.908,0.652 1.695,1.429 2.359,2.326 v 0 c 0.664,0.897 1.191,1.878 1.581,2.944 v 0 c 0.389,1.065 0.582,2.129 0.582,3.192 v 0 21.059 c 0,1.134 -0.201,2.141 -0.606,3.023 v 0 c -0.407,0.881 -0.949,1.607 -1.629,2.178 v 0 c -0.682,0.568 -1.476,0.962 -2.383,1.178 v 0 c -0.445,0.105 -0.898,0.158 -1.358,0.158 v 0 c -0.48,0 -0.967,-0.057 -1.464,-0.172 m -16.388,-10.588 14.297,3.299 c 0.585,0.135 1.078,0.018 1.484,-0.348 v 0 c 0.405,-0.368 0.607,-0.871 0.607,-1.509 v 0 -18.932 c 0,-0.637 -0.202,-1.234 -0.607,-1.788 v 0 c -0.406,-0.556 -0.899,-0.899 -1.484,-1.034 v 0 l -14.297,-3.3 z m -30.638,-0.264 -14.394,-40.548 7.392,1.706 2.966,8.715 15.416,3.557 3.016,-7.333 7.391,1.705 -14.394,33.904 z m 3.697,-7.763 0.048,0.012 5.107,-12.595 -10.31,-2.38 z"
         transform="translate(-490.19921,-134.3579)"
         id="path18" />
    </clipPath>
    <clipPath
       clipPathUnits="userSpaceOnUse"
       id="clipPath20">
      <path
         d="M 454.685,101.304 V 64.079 l 28.401,6.555 v 6.807 l -20.96,-4.839 v 8.722 l 17.215,3.973 v 6.807 l -17.215,-3.973 v 8.083 l 20.96,4.838 v 6.807 z M 444.57,98.969 429.154,95.411 c -1.038,-0.239 -2.002,-0.683 -2.893,-1.332 v 0 c -0.893,-0.65 -1.672,-1.423 -2.335,-2.32 v 0 c -0.665,-0.899 -1.192,-1.88 -1.58,-2.944 v 0 c -0.39,-1.066 -0.584,-2.13 -0.584,-3.193 v 0 -21.059 c 0,-1.135 0.202,-2.142 0.608,-3.023 v 0 c 0.404,-0.883 0.949,-1.607 1.629,-2.177 v 0 c 0.68,-0.57 1.467,-0.965 2.358,-1.184 v 0 c 0.892,-0.22 1.824,-0.217 2.797,0.008 v 0 l 15.416,3.558 c 0.973,0.224 1.905,0.651 2.797,1.282 v 0 c 0.891,0.632 1.684,1.391 2.382,2.279 v 0 c 0.697,0.887 1.248,1.865 1.653,2.934 v 0 c 0.405,1.069 0.609,2.169 0.609,3.305 v 0 2.871 l -7.441,-1.717 v -1.861 c 0,-0.639 -0.203,-1.226 -0.608,-1.763 v 0 c -0.405,-0.537 -0.899,-0.872 -1.483,-1.006 v 0 l -11.234,-2.593 c -0.584,-0.135 -1.078,-0.019 -1.483,0.349 v 0 c -0.405,0.366 -0.608,0.87 -0.608,1.508 v 0 18.932 c 0,0.637 0.203,1.234 0.608,1.788 v 0 c 0.405,0.555 0.899,0.899 1.483,1.034 v 0 l 11.234,2.592 c 0.584,0.135 1.078,0.027 1.483,-0.322 v 0 c 0.405,-0.35 0.608,-0.843 0.608,-1.481 v 0 -1.861 l 7.441,1.717 v 2.872 c 0,1.098 -0.204,2.098 -0.609,2.997 v 0 c -0.405,0.898 -0.956,1.631 -1.653,2.197 v 0 c -0.698,0.566 -1.491,0.959 -2.382,1.179 v 0 c -0.441,0.108 -0.891,0.162 -1.351,0.162 v 0 c -0.472,0 -0.953,-0.057 -1.446,-0.17 M 410.236,91.045 V 64.191 l -15.367,23.308 -8.948,-2.066 V 48.209 l 7.392,1.705 v 26.855 l 15.368,-23.308 8.947,2.065 v 37.225 z m -47.56,-10.977 -14.396,-40.546 7.393,1.705 2.965,8.716 15.416,3.557 3.016,-7.334 7.392,1.706 -14.395,33.902 z m 3.695,-7.761 0.049,0.011 5.106,-12.595 -10.309,-2.379 z m -24.364,2.992 -10.359,-29.938 -10.358,25.157 -7.733,-1.786 14.396,-33.902 7.391,1.706 14.395,40.547 z m -37.106,-8.565 -23.78,-5.488 V 24.022 l 23.78,5.488 c 1.038,0.239 2.01,0.684 2.918,1.338 v 0 c 0.908,0.652 1.695,1.429 2.359,2.326 v 0 c 0.664,0.897 1.191,1.878 1.581,2.944 v 0 c 0.389,1.065 0.582,2.129 0.582,3.192 v 0 21.059 c 0,1.134 -0.201,2.141 -0.606,3.023 v 0 c -0.407,0.881 -0.949,1.607 -1.629,2.178 v 0 c -0.682,0.568 -1.476,0.962 -2.383,1.178 v 0 c -0.445,0.105 -0.898,0.158 -1.358,0.158 v 0 c -0.48,0 -0.967,-0.057 -1.464,-0.172 m -16.388,-10.588 14.297,3.299 c 0.585,0.135 1.078,0.018 1.484,-0.348 v 0 c 0.405,-0.368 0.607,-0.871 0.607,-1.509 v 0 -18.932 c 0,-0.637 -0.202,-1.234 -0.607,-1.788 v 0 c -0.406,-0.556 -0.899,-0.899 -1.484,-1.034 v 0 l -14.297,-3.3 z m -30.638,-0.264 -14.394,-40.548 7.392,1.706 2.966,8.715 15.416,3.557 3.016,-7.333 7.391,1.705 -14.394,33.904 z m 3.697,-7.763 0.048,0.012 5.107,-12.595 -10.31,-2.38 z"
         transform="translate(-490.19921,-134.3579)"
         id="path20" />
    </clipPath>
    <clipPath
       clipPathUnits="userSpaceOnUse"
       id="clipPath22">
      <path
         d="M 0,260.737 H 500 V 0 H 0 Z"
         transform="translate(-386.40621,-157.8916)"
         id="path22" />
    </clipPath>
    <clipPath
       clipPathUnits="userSpaceOnUse"
       id="clipPath24">
      <path
         d="M 0,260.737 H 500 V 0 H 0 Z"
         transform="translate(-320.58201,-215.42871)"
         id="path24" />
    </clipPath>
    <clipPath
       clipPathUnits="userSpaceOnUse"
       id="clipPath26">
      <path
         d="M 0,260.737 H 500 V 0 H 0 Z"
         transform="translate(-179.416,-126.0449)"
         id="path26" />
    </clipPath>
    <clipPath
       clipPathUnits="userSpaceOnUse"
       id="clipPath28">
      <path
         d="M 0,260.737 H 500 V 0 H 0 Z"
         transform="translate(-104.02,-174.8408)"
         id="path28" />
    </clipPath>
    <clipPath
       clipPathUnits="userSpaceOnUse"
       id="clipPath30">
      <path
         d="M 0,260.737 H 500 V 0 H 0 Z"
         transform="translate(-468.46191,-118.9414)"
         id="path30" />
    </clipPath>
  </defs>
  <sodipodi:namedview
     id="namedview1"
     pagecolor="#ffffff"
     bordercolor="#000000"
     borderopacity="0.25"
     inkscape:showpageshadow="2"
     inkscape:pageopacity="0.0"
     inkscape:pagecheckerboard="0"
     inkscape:deskcolor="#d1d1d1">
    <inkscape:page
       x="0"
       y="0"
       inkscape:label="1"
       id="page1"
       width="666.66669"
       height="347.64932"
       margin="0"
       bleed="0" />
  </sodipodi:namedview>
  <g
     id="layer-MC0"
     inkscape:groupmode="layer"
     inkscape:label="Layer 1">
    <path
       id="path1"
       d="M 0,0 C -14.063,0 -27.961,-2.948 -40.705,-8.585 -57.21,2.503 -76.803,8.525 -96.82,8.525 c -40.297,0 -76.507,-24.31 -92.263,-60.527 -12.904,1.742 -25.998,0.953 -38.427,-2.227 -18.808,18.989 -44.311,29.706 -71.376,29.706 -55.441,0 -100.545,-45.104 -100.545,-100.545 0,-55.441 45.104,-100.545 100.545,-100.545 8.491,0 16.863,1.051 24.996,3.132 18.823,-19.006 44.334,-29.731 71.4,-29.731 40.297,0 76.507,24.311 92.261,60.527 18.449,-2.491 37.332,0.247 54.138,7.68 16.506,-11.089 36.1,-17.11 56.115,-17.11 55.441,0 100.545,45.104 100.545,100.545 C 100.569,-45.115 55.454,0 0,0"
       style="fill:#00b3f0;fill-opacity:1;fill-rule:nonzero;stroke:none"
       transform="matrix(1.3333333,0,0,-1.3333333,532.57427,11.3668)"
       clip-path="url(#clipPath2)" />
    <path
       id="path3"
       d="M 0,0 C -14.443,0 -28.694,-3.369 -41.494,-9.776 -57.42,2.056 -76.892,8.525 -96.82,8.525 c -39.225,0 -74.249,-24.966 -87.339,-61.46 -6.064,1.221 -12.215,1.838 -18.356,1.838 -9.363,0 -18.567,-1.384 -27.424,-4.12 -17.59,19.565 -42.457,30.694 -68.947,30.694 -51.14,0 -92.745,-41.606 -92.745,-92.746 0,-51.14 41.605,-92.745 92.745,-92.745 9.364,0 18.568,1.384 27.425,4.119 17.606,-19.581 42.482,-30.718 68.971,-30.718 39.224,0 74.249,24.965 87.338,61.459 6.064,-1.221 12.214,-1.837 18.356,-1.837 14.444,0 28.693,3.368 41.494,9.776 15.928,-11.832 35.399,-18.301 55.326,-18.301 51.14,0 92.746,41.605 92.746,92.745 C 92.77,-41.617 51.153,0 0,0"
       style="fill:#ffffff;fill-opacity:1;fill-rule:nonzero;stroke:none"
       transform="matrix(1.3333333,0,0,-1.3333333,532.57427,21.765867)"
       clip-path="url(#clipPath4)" />
    <path
       id="path5"
       d="M 0,0 C -15.325,0 -29.724,-4 -42.198,-11.049 -57.048,1.175 -76.071,8.525 -96.82,8.525 c -39.424,0 -72.647,-26.549 -82.797,-62.722 -7.299,2 -14.974,3.1 -22.898,3.1 -10.4,0 -20.374,-1.85 -29.599,-5.225 -15.749,19.399 -39.823,31.799 -66.772,31.799 -47.472,0 -85.97,-38.499 -85.97,-85.971 0,-47.473 38.498,-85.971 85.97,-85.971 10.4,0 20.374,1.85 29.599,5.225 15.774,-19.424 39.823,-31.823 66.797,-31.823 39.423,0 72.646,26.548 82.796,62.721 7.299,-2 14.973,-3.099 22.898,-3.099 15.324,0 29.724,3.999 42.198,11.048 14.85,-12.223 33.873,-19.574 54.622,-19.574 47.473,0 85.971,38.499 85.971,85.971 C 85.995,-38.523 47.497,0 0,0"
       style="fill:#130c0e;fill-opacity:1;fill-rule:nonzero;stroke:none"
       transform="matrix(1.3333333,0,0,-1.3333333,532.57427,30.799067)"
       clip-path="url(#clipPath6)" />
    <path
       id="path7"
       d="m 0,0 -105.38,-24.329 8.345,-36.145 105.379,24.329 z"
       style="fill:#130c0e;fill-opacity:1;fill-rule:nonzero;stroke:none"
       transform="matrix(1.3333333,0,0,-1.3333333,480.43093,210.7444)"
       clip-path="url(#clipPath8)" />
    <path
       id="path9"
       d="m 0,0 v 18.896 l -235.57,-54.368 -19.07,-53.715 21.056,4.86 2.967,8.715 7.349,1.696 3.016,-7.335 91.468,21.11 2.967,8.715 7.35,1.697 3.015,-7.334 L 0,-30.418 v 18.896 l -3.745,-0.864 v 11.522 z"
       style="fill:#130c0e;fill-opacity:1;fill-rule:nonzero;stroke:none"
       transform="matrix(1.3333333,0,0,-1.3333333,651.96747,219.16107)"
       clip-path="url(#clipPath10)" />
    <path
       id="path11"
       d="M 0,0 -28.4,-6.555 V 30.67 L 0,37.225 V 30.418 L -20.96,25.58 v -8.083 l 17.215,3.974 V 14.663 L -20.96,10.69 V 1.969 L 0,6.807 Z m -53.932,-12.447 c -0.972,-0.225 -1.905,-0.228 -2.797,-0.008 -0.891,0.22 -1.677,0.614 -2.358,1.184 -0.681,0.57 -1.225,1.294 -1.629,2.177 -0.406,0.881 -0.608,1.889 -0.608,3.024 v 21.058 c 0,1.064 0.194,2.127 0.584,3.193 0.388,1.064 0.915,2.046 1.58,2.944 0.664,0.897 1.442,1.67 2.335,2.32 0.89,0.649 1.855,1.093 2.893,1.332 l 15.416,3.558 c 0.973,0.225 1.905,0.227 2.796,0.008 0.892,-0.22 1.686,-0.614 2.383,-1.179 0.697,-0.566 1.248,-1.299 1.653,-2.197 0.406,-0.9 0.609,-1.899 0.609,-2.997 v -2.872 l -7.441,-1.717 v 1.861 c 0,0.638 -0.203,1.131 -0.608,1.482 -0.405,0.348 -0.899,0.457 -1.483,0.322 l -11.234,-2.593 c -0.584,-0.135 -1.078,-0.479 -1.483,-1.033 -0.405,-0.555 -0.608,-1.151 -0.608,-1.789 V -3.301 c 0,-0.637 0.203,-1.141 0.608,-1.508 0.405,-0.368 0.899,-0.484 1.483,-0.349 l 11.234,2.593 c 0.584,0.134 1.078,0.469 1.483,1.006 0.405,0.538 0.608,1.124 0.608,1.763 v 1.861 l 7.441,1.717 V 0.911 c 0,-1.136 -0.203,-2.236 -0.609,-3.305 -0.405,-1.069 -0.956,-2.046 -1.653,-2.934 -0.697,-0.888 -1.491,-1.647 -2.383,-2.278 -0.891,-0.631 -1.823,-1.059 -2.796,-1.284 z m -11.526,34.564 v -37.224 l -8.947,-2.066 -15.368,23.309 V -20.72 l -7.392,-1.705 V 14.8 l 8.948,2.065 15.367,-23.308 v 26.854 z m -51.257,-20.444 0.049,0.011 5.106,-12.595 -10.309,-2.379 z m 18.091,-24.435 -14.395,33.903 -7.391,-1.706 -14.396,-40.547 7.393,1.706 2.966,8.715 15.416,3.557 3.015,-7.334 z m -34.723,29.211 -14.394,-40.547 -7.392,-1.706 -14.395,33.903 7.732,1.785 10.359,-25.156 10.358,29.937 z m -44.838,-38.427 c 0,-0.637 -0.202,-1.234 -0.607,-1.788 -0.406,-0.555 -0.899,-0.899 -1.483,-1.034 l -14.298,-3.3 v 23.612 l 14.298,3.3 c 0.584,0.134 1.077,0.017 1.483,-0.349 0.405,-0.368 0.607,-0.87 0.607,-1.509 z m 7.441,21.713 c 0,1.134 -0.202,2.142 -0.608,3.024 -0.406,0.881 -0.948,1.606 -1.628,2.177 -0.681,0.569 -1.476,0.961 -2.383,1.178 -0.908,0.216 -1.849,0.211 -2.822,-0.013 l -23.78,-5.489 v -37.224 l 23.78,5.488 c 1.038,0.239 2.01,0.685 2.918,1.338 0.908,0.652 1.695,1.429 2.359,2.326 0.664,0.897 1.191,1.879 1.581,2.944 0.389,1.065 0.583,2.129 0.583,3.193 z m -50.771,-12.25 0.049,0.012 5.107,-12.595 -10.31,-2.38 z m 18.091,-24.434 -14.394,33.903 -7.393,-1.706 -14.394,-40.548 7.392,1.706 2.966,8.715 15.416,3.558 3.016,-7.334 z"
       style="fill:#7058f8;fill-opacity:1;fill-rule:nonzero;stroke:none"
       transform="matrix(1.3333333,0,0,-1.3333333,644.11453,253.47093)"
       clip-path="url(#clipPath12)" />
    <path
       id="path13"
       d="m 0,0 -260.184,-60.069 10.204,-44.198 260.184,60.069 z"
       style="fill:#9482fa;fill-opacity:1;fill-rule:nonzero;stroke:none"
       transform="matrix(1.3333333,0,0,-1.3333333,653.59893,168.50547)"
       clip-path="url(#clipPath14)" />
    <path
       id="path15"
       d="m 0,0 -260.184,-60.069 9.31,-41.698 260.185,60.069 z"
       style="fill:#cac1fd;fill-opacity:1;fill-rule:nonzero;stroke:none"
       transform="matrix(1.3333333,0,0,-1.3333333,653.59893,168.50547)"
       clip-path="url(#clipPath16)" />
    <path
       id="path17"
       d="m 0,0 -260.184,-60.069 8.481,-39.576 260.184,60.069 z"
       style="fill:#f2effe;fill-opacity:1;fill-rule:nonzero;stroke:none"
       transform="matrix(1.3333333,0,0,-1.3333333,653.59893,168.50547)"
       clip-path="url(#clipPath18)" />
    <path
       id="path19"
       d="m 0,0 -260.184,-60.069 8.17,-37.737 260.185,60.069 z"
       style="fill:#ffffff;fill-opacity:1;fill-rule:nonzero;stroke:none"
       transform="matrix(1.3333333,0,0,-1.3333333,653.59893,168.50547)"
       clip-path="url(#clipPath20)" />
    <path
       id="path21"
       d="m 0,0 c 0,0 -2.032,-17.312 -24.199,-39.673 l -11.35,9.425 C -24.19,-21.05 -11.1,-0.031 -11.1,18.699 v 0.529 c 0,2.25 -1.741,2.248 -3.909,1.826 l -2.19,-0.426 v 6.667 L 7.124,32.023 V 22.242 C 7.124,3.113 17.677,0.038 31.698,-0.1 L 24.724,-10.949 C 3.417,-9.038 0,0 0,0 M 68.121,26.774 V 14.592 l -13.85,-2.693 v -22.877 l -18.499,-3.596 v 52.713 c 0,2.374 -1.948,2.349 -4.168,1.918 l -2.231,-0.434 v 7.035 l 24.898,4.84 V 24.082 Z M 19.198,-49.987 c -2.524,0.049 -7.675,0.151 -7.675,8.069 0,8.206 6.553,14.092 13.675,14.093 7.311,10e-4 7.825,-4.953 7.825,-7.969 0,-7.393 -6.371,-14.34 -13.825,-14.193 m 18.5,32.632 c -8.586,1.934 -19.637,2.138 -32.174,-6.4 -8.243,-5.614 -12.399,-12.452 -12.399,-20.289 0,-2.823 0.619,-5.625 1.85,-8.319 3.776,-8.271 9.369,-8.714 16.973,-9.319 12.426,-0.986 19.9,2.302 27.35,7.35 8.324,5.647 12.574,12.387 12.574,20.264 0,7.032 -3.609,14.332 -14.174,16.713"
       style="fill:#faa61a;fill-opacity:1;fill-rule:nonzero;stroke:none"
       transform="matrix(1.3333333,0,0,-1.3333333,515.20827,137.1272)"
       clip-path="url(#clipPath22)" />
    <path
       id="path23"
       d="m 0,0 v -6.896 l 1.854,0.36 c 1.847,0.359 3.498,0.603 3.498,-1.771 v -87.828 l 18.649,3.625 V 4.666 Z m -21.847,-22.139 v -6.896 l 1.855,0.36 c 1.846,0.359 3.537,0.688 3.537,-1.686 V -50.459 L -32.097,-53.5 v -10.812 l 15.642,3.041 v -59.559 l 17.157,3.335 v 99.74 z m 2.425,-57.272 -8,-10.674 c -15.628,5.101 -19.849,12.874 -19.849,12.874 0,0 -5.917,-10.998 -18.324,-22.374 l -10.349,8.625 c 0,0 18.285,17.072 18.285,34.125 v 12.981 c 0,2.373 -1.939,2.311 -4.108,1.89 l -2.177,-0.424 v 7.5 l 23.948,4.655 v -23.879 c 0,-22.865 20.574,-25.299 20.574,-25.299"
       style="fill:#f15a22;fill-opacity:1;fill-rule:nonzero;stroke:none"
       transform="matrix(1.3333333,0,0,-1.3333333,427.44267,60.411067)"
       clip-path="url(#clipPath24)" />
    <path
       id="path25"
       d="M 0,0 V -11.026 L 59.047,0.451 V -10.294 L -9.384,-23.596 c -5.523,-1.073 -10,2.534 -10,8.057 v 12.801 c 0,2.215 -0.203,2.884 -5.383,1.878 l -0.982,-0.192 V 5.74 L 59.047,22.222 V 11.478 Z m 59.047,-15.558 v -10.744 l -99.295,-19.301 v 10.745 z M 37.348,-60.662 3.9,-67.164 v 14.01 l 33.448,6.502 z m 19.699,28.708 -79.271,-15.409 v -7.377 l 0.983,0.191 c 5.188,1.009 5.392,0.195 5.392,-2.234 v -15.439 c 0,-4.97 4.03,-8.216 9,-7.251 l 56.896,11.06 c 4.971,0.967 9,5.779 9,10.75 v 24.098 c 0,1.104 -0.895,1.826 -2,1.611"
       style="fill:#faa61a;fill-opacity:1;fill-rule:nonzero;stroke:none"
       transform="matrix(1.3333333,0,0,-1.3333333,239.22133,179.58947)"
       clip-path="url(#clipPath26)" />
    <path
       id="path27"
       d="m 0,0 v -7.45 l 2.176,0.424 C 4.341,-6.605 6.325,-6.22 6.325,-9 v -43.997 c -3.2,-1.8 -7.298,-3.293 -12.35,-4.275 l -29.923,-5.817 v 13.467 l 27.748,5.393 c 1.381,0.269 2.5,1.605 2.5,2.986 v 26.662 c 0,1.381 -1.119,2.282 -2.5,2.014 l -52.047,-10.117 v -11.514 l 35.498,6.9 v -9.054 l -37.148,-7.221 v -7.574 l 0.877,0.17 c 1.771,0.344 4.398,0.855 4.398,-1.72 v -17.924 c 0,-4.419 3.581,-7.304 8,-6.445 l 39.072,7.594 c 7.33,1.425 12.65,3.201 15.875,4.826 v -42.185 l 20.124,3.911 V 5.141 Z"
       style="fill:#f15a22;fill-opacity:1;fill-rule:nonzero;stroke:none"
       transform="matrix(1.3333333,0,0,-1.3333333,138.69333,114.52827)"
       clip-path="url(#clipPath28)" />
    <path
       id="path29"
       d="M 0,0 V 9.89 L -2.487,-0.586 -5.182,-1.222 -7.61,8.095 v -9.889 l -2.546,-0.601 V 9.443 l 3.978,0.939 2.399,-8.824 0.029,0.006 2.34,9.942 3.927,0.926 V 0.594 Z M -18.387,-4.335 V 5.403 L -22.483,4.437 V 6.53 l 10.836,2.555 V 6.992 l -3.95,-0.93 v -9.74 z"
       style="fill:#faa61a;fill-opacity:1;fill-rule:nonzero;stroke:none"
       transform="matrix(1.3333333,0,0,-1.3333333,624.61587,189.0608)"
       clip-path="url(#clipPath30)" />
  </g>
</svg>
