<?xml version="1.0" encoding="UTF-8" standalone="no"?>
<!-- Created with Inkscape (http://www.inkscape.org/) -->

<svg
   version="1.1"
   id="svg2"
   width="666.66669"
   height="597.25732"
   viewBox="0 0 666.66669 597.25732"
   sodipodi:docname="Rhythm Heaven Advance Logo (Favicon).ai"
   xmlns:inkscape="http://www.inkscape.org/namespaces/inkscape"
   xmlns:sodipodi="http://sodipodi.sourceforge.net/DTD/sodipodi-0.dtd"
   xmlns="http://www.w3.org/2000/svg"
   xmlns:svg="http://www.w3.org/2000/svg">
  <defs
     id="defs6">
    <clipPath
       clipPathUnits="userSpaceOnUse"
       id="clipPath16">
      <path
         d="M 0,447.943 H 500 V 0 H 0 Z"
         id="path14" />
    </clipPath>
    <clipPath
       clipPathUnits="userSpaceOnUse"
       id="clipPath44">
      <path
         d="m 394.201,163.667 -44.438,-125.172 22.82,5.267 9.157,26.901 47.591,10.984 9.308,-22.64 22.82,5.266 -44.439,104.661 z m 11.41,-23.962 0.149,0.035 15.764,-38.881 -31.827,-7.345 z"
         id="path42" />
    </clipPath>
    <clipPath
       clipPathUnits="userSpaceOnUse"
       id="clipPath68">
      <path
         d="M 0,447.943 H 500 V 0 H 0 Z"
         id="path66" />
    </clipPath>
  </defs>
  <sodipodi:namedview
     id="namedview4"
     pagecolor="#ffffff"
     bordercolor="#000000"
     borderopacity="0.25"
     inkscape:showpageshadow="2"
     inkscape:pageopacity="0.0"
     inkscape:pagecheckerboard="0"
     inkscape:deskcolor="#d1d1d1" />
  <g
     id="g8"
     inkscape:groupmode="layer"
     inkscape:label="Rhythm Heaven Advance Logo (Favicon)"
     transform="matrix(1.3333333,0,0,-1.3333333,0,597.25733)">
    <g
       id="g10">
      <g
         id="g12"
         clip-path="url(#clipPath16)">
        <g
           id="g18"
           transform="translate(327.8239,353.5354)">
          <path
             d="m 0,0 c -28.795,56.007 -87.182,94.408 -154.371,94.408 -95.643,0 -173.453,-77.81 -173.453,-173.453 0,-84.627 60.923,-155.281 141.212,-170.436 28.794,-56.006 87.181,-94.407 154.37,-94.407 95.642,0 173.453,77.81 173.453,173.452 C 141.211,-85.809 80.288,-15.156 0,0"
             style="fill:#00b3f0;fill-opacity:1;fill-rule:nonzero;stroke:none"
             id="path20" />
        </g>
        <g
           id="g22"
           transform="translate(309.2475,328.6579)">
          <path
             d="m 0,0 c -21.568,53.877 -74.307,92.035 -135.795,92.035 -80.616,0 -146.202,-65.586 -146.202,-146.202 0,-76.009 58.305,-138.647 132.538,-145.561 21.568,-53.876 74.306,-92.033 135.793,-92.033 80.617,0 146.204,65.586 146.204,146.202 C 132.538,-69.551 74.232,-6.914 0,0"
             style="fill:#ffffff;fill-opacity:1;fill-rule:nonzero;stroke:none"
             id="path24" />
        </g>
        <g
           id="g26"
           transform="translate(295.5822,301.4119)">
          <path
             d="m 0,0 c -2.312,0 -4.603,-0.084 -6.882,-0.214 -12.113,52.472 -59.095,91.604 -115.247,91.604 -65.342,0 -118.312,-52.97 -118.312,-118.312 0,-65.342 52.97,-118.312 118.312,-118.312 2.311,0 4.603,0.084 6.881,0.215 12.114,-52.473 59.095,-91.605 115.248,-91.605 65.342,0 118.312,52.97 118.312,118.312 C 118.312,-52.97 65.342,0 0,0"
             style="fill:#130c0e;fill-opacity:1;fill-rule:nonzero;stroke:none"
             id="path28" />
        </g>
        <g
           id="g30"
           transform="translate(433.4953,201.2674)">
          <path
             d="m 0,0 -60.395,-13.938 -66.505,-187.329 87.319,20.152 9.158,26.904 9.518,2.195 9.308,-22.641 78.102,18.026 z"
             style="fill:#130c0e;fill-opacity:1;fill-rule:nonzero;stroke:none"
             id="path32" />
        </g>
        <g
           id="g34"
           transform="translate(405.6108,139.7055)">
          <path
             d="m 0,0 0.15,0.035 15.764,-38.881 -31.828,-7.346 z m 55.848,-75.432 -44.438,104.66 -22.82,-5.266 -44.438,-125.173 22.82,5.267 9.158,26.902 47.59,10.984 9.308,-22.641 z"
             style="fill:#7058f8;fill-opacity:1;fill-rule:nonzero;stroke:none"
             id="path36" />
        </g>
      </g>
    </g>
    <g
       id="g38">
      <g
         id="g40"
         clip-path="url(#clipPath44)">
        <g
           id="g46"
           transform="translate(1111.4061,405.9306)">
          <path
             d="m 0,0 -803.212,-185.438 31.5,-136.443 803.213,185.438 z"
             style="fill:#9482fa;fill-opacity:1;fill-rule:nonzero;stroke:none"
             id="path48" />
        </g>
        <g
           id="g50"
           transform="translate(1111.4061,405.9306)">
          <path
             d="m 0,0 -803.212,-185.438 28.741,-128.725 803.213,185.438 z"
             style="fill:#cac1fd;fill-opacity:1;fill-rule:nonzero;stroke:none"
             id="path52" />
        </g>
        <g
           id="g54"
           transform="translate(1111.4061,405.9306)">
          <path
             d="m 0,0 -803.212,-185.438 26.183,-122.175 803.212,185.438 z"
             style="fill:#f2effe;fill-opacity:1;fill-rule:nonzero;stroke:none"
             id="path56" />
        </g>
        <g
           id="g58"
           transform="translate(1111.4061,405.9306)">
          <path
             d="m 0,0 -803.212,-185.438 25.223,-116.497 803.212,185.438 z"
             style="fill:#ffffff;fill-opacity:1;fill-rule:nonzero;stroke:none"
             id="path60" />
        </g>
      </g>
    </g>
    <g
       id="g62">
      <g
         id="g64"
         clip-path="url(#clipPath68)">
        <g
           id="g70"
           transform="translate(317.0069,270.5019)">
          <path
             d="m 0,0 c 0.577,-21.643 0.345,-37.844 -2.625,-48.474 -1.803,-6.457 -5.774,-11.372 -11.076,-15.092 -5.4,-3.79 -10.814,-5.45 -16.115,-5.555 -6.466,-0.128 -11.138,2.388 -11.759,9.171 -0.945,10.323 -1.365,24.754 -1.05,42.833 l -23.465,-5.417 v -159.833 l 32.232,7.442 c -0.578,20.385 0.117,35.506 2.624,44.858 1.709,6.373 6.384,11.766 11.076,14.935 5.484,3.703 10.803,5.626 16.116,5.712 6.457,0.105 11.149,-2.889 11.759,-9.328 0.892,-9.433 1.312,-23.041 1.049,-40.387 l 23.99,5.538 V 7.562 Z"
             style="fill:#f15a22;fill-opacity:1;fill-rule:nonzero;stroke:none"
             id="path72" />
        </g>
        <g
           id="g74"
           transform="translate(171.4899,255.8762)">
          <path
             d="m 0,0 c -11.479,-2.927 -18.25,3.222 -18.25,18.653 0,12.309 0.232,25.016 22.767,25.016 16.043,0 22.736,-8.124 22.751,-17.287 C 27.283,17.832 17.504,4.463 0,0 m 67.367,50.841 c 0,28.343 -20.882,62.623 -108.256,41.594 V -61.71 l 22.753,5.253 v 27.543 c 0,13.446 8.751,8.046 10.683,6.831 3.265,-2.053 10.087,-7.629 26.29,-25.838 l 38.654,8.924 -30.121,30.84 c 0,0 39.997,16.106 39.997,58.998"
             style="fill:#faa61a;fill-opacity:1;fill-rule:nonzero;stroke:none"
             id="path76" />
        </g>
      </g>
    </g>
  </g>
</svg>
