<?xml version="1.0" encoding="UTF-8" standalone="no"?>
<!-- Created with Inkscape (http://www.inkscape.org/) -->

<svg
   version="1.1"
   id="svg2"
   width="666.66669"
   height="490.80399"
   viewBox="0 0 666.66669 490.80399"
   sodipodi:docname="Rhythm Paradise Advance Logo (Sharp Gradient).ai"
   xmlns:inkscape="http://www.inkscape.org/namespaces/inkscape"
   xmlns:sodipodi="http://sodipodi.sourceforge.net/DTD/sodipodi-0.dtd"
   xmlns="http://www.w3.org/2000/svg"
   xmlns:svg="http://www.w3.org/2000/svg">
  <defs
     id="defs6">
    <clipPath
       clipPathUnits="userSpaceOnUse"
       id="clipPath16">
      <path
         d="M 0,368.103 H 500 V 0 H 0 Z"
         id="path14" />
    </clipPath>
    <clipPath
       clipPathUnits="userSpaceOnUse"
       id="clipPath108">
      <path
         d="M 447.379,124.368 V 78.175 l 35.242,8.134 v 8.447 l -26.009,-6.003 v 10.822 l 21.363,4.931 v 8.447 l -21.363,-4.93 v 10.03 l 26.009,6.003 v 8.447 z m -12.552,-2.896 -19.13,-4.415 c -1.288,-0.297 -2.485,-0.849 -3.592,-1.654 v 0 c -1.106,-0.806 -2.072,-1.765 -2.896,-2.88 v 0 c -0.825,-1.114 -1.478,-2.332 -1.962,-3.653 v 0 c -0.482,-1.321 -0.723,-2.641 -0.723,-3.961 v 0 -26.132 c 0,-1.409 0.25,-2.659 0.754,-3.753 v 0 c 0.502,-1.094 1.176,-1.994 2.021,-2.701 v 0 c 0.845,-0.706 1.82,-1.196 2.927,-1.469 v 0 c 1.106,-0.272 2.264,-0.27 3.471,0.009 v 0 l 19.13,4.416 c 1.207,0.278 2.362,0.809 3.469,1.592 v 0 c 1.106,0.783 2.092,1.725 2.958,2.828 v 0 c 0.864,1.1 1.548,2.313 2.052,3.64 v 0 c 0.502,1.326 0.754,2.692 0.754,4.1 v 0 3.565 l -9.233,-2.132 v -2.309 c 0,-0.792 -0.252,-1.522 -0.755,-2.187 v 0 c -0.503,-0.667 -1.116,-1.083 -1.841,-1.25 v 0 l -13.94,-3.217 c -0.724,-0.167 -1.338,-0.023 -1.84,0.433 v 0 c -0.503,0.455 -0.754,1.08 -0.754,1.871 v 0 23.493 c 0,0.792 0.251,1.532 0.754,2.22 v 0 c 0.502,0.687 1.116,1.115 1.84,1.283 v 0 l 13.94,3.217 c 0.725,0.167 1.338,0.034 1.841,-0.4 v 0 c 0.503,-0.435 0.755,-1.047 0.755,-1.839 v 0 -2.309 l 9.233,2.131 v 3.563 c 0,1.363 -0.252,2.604 -0.754,3.72 v 0 c -0.504,1.115 -1.188,2.024 -2.052,2.727 v 0 c -0.866,0.701 -1.852,1.189 -2.958,1.461 v 0 c -0.548,0.135 -1.108,0.203 -1.68,0.203 v 0 c -0.583,0 -1.18,-0.07 -1.789,-0.211 m -42.606,-9.833 V 78.314 l -19.069,28.924 -11.105,-2.564 V 58.481 l 9.173,2.118 V 93.924 L 390.29,65 l 11.104,2.562 v 46.194 z m -59.019,-13.622 -17.864,-50.315 9.173,2.117 3.681,10.813 19.131,4.416 3.741,-9.101 9.173,2.117 -17.863,42.07 z m 4.586,-9.632 0.06,0.014 6.336,-15.629 -12.793,-2.952 z M 307.553,92.098 294.7,54.949 281.846,86.165 272.25,83.95 l 17.863,-42.07 9.173,2.117 17.863,50.316 z M 261.508,81.472 231.998,74.66 V 28.467 l 29.51,6.811 c 1.288,0.297 2.494,0.85 3.621,1.661 v 0 c 1.126,0.809 2.102,1.771 2.927,2.885 v 0 c 0.824,1.114 1.479,2.332 1.961,3.654 v 0 c 0.483,1.32 0.725,2.642 0.725,3.961 v 0 26.132 c 0,1.408 -0.252,2.658 -0.755,3.753 v 0 c -0.504,1.093 -1.177,1.994 -2.022,2.701 v 0 c -0.844,0.706 -1.831,1.194 -2.956,1.462 v 0 c -0.553,0.131 -1.115,0.197 -1.687,0.197 v 0 c -0.594,0 -1.199,-0.071 -1.814,-0.212 m -20.337,-13.141 17.743,4.095 c 0.723,0.167 1.336,0.021 1.84,-0.433 v 0 c 0.503,-0.457 0.754,-1.08 0.754,-1.872 v 0 -23.493 c 0,-0.792 -0.251,-1.533 -0.754,-2.219 v 0 c -0.504,-0.689 -1.117,-1.116 -1.84,-1.284 v 0 l -17.743,-4.094 z m -38.019,-0.328 -17.863,-50.316 9.173,2.118 3.681,10.813 19.13,4.415 3.742,-9.1 9.173,2.116 -17.863,42.071 z m 4.587,-9.632 0.06,0.014 6.336,-15.629 -12.793,-2.953 z"
         id="path106" />
    </clipPath>
  </defs>
  <sodipodi:namedview
     id="namedview4"
     pagecolor="#ffffff"
     bordercolor="#000000"
     borderopacity="0.25"
     inkscape:showpageshadow="2"
     inkscape:pageopacity="0.0"
     inkscape:pagecheckerboard="0"
     inkscape:deskcolor="#d1d1d1" />
  <g
     id="g8"
     inkscape:groupmode="layer"
     inkscape:label="Rhythm Paradise Advance Logo (Sharp Gradient)"
     transform="matrix(1.3333333,0,0,-1.3333333,0,490.804)">
    <g
       id="g10">
      <g
         id="g12"
         clip-path="url(#clipPath16)">
        <g
           id="g18"
           transform="translate(465.3388,248.7078)">
          <path
             d="m 0,0 c 1.646,7.146 2.475,14.489 2.475,21.961 0,53.726 -43.708,97.434 -97.434,97.434 -21.545,0 -41.966,-6.891 -59.057,-19.93 -8.58,-6.544 -16.012,-14.513 -21.981,-23.446 -15.52,10.005 -33.72,15.465 -52.653,15.465 -30.966,0 -59.704,-14.924 -77.804,-38.926 -16.644,11.168 -36.368,17.292 -56.829,17.292 -56.274,0 -102.056,-45.782 -102.056,-102.055 0,-31.898 14.626,-61.279 39.147,-80.403 -3.873,-10.912 -5.879,-22.467 -5.879,-34.159 0,-56.21 45.73,-101.941 101.94,-101.941 22.338,0 43.553,7.098 61.351,20.526 9.82,7.409 18.232,16.604 24.794,26.951 14.231,-7.867 30.291,-12.048 46.994,-12.048 34.196,0 65.367,18.08 82.818,46.149 14.366,-7.45 30.402,-11.411 46.896,-11.411 56.21,0 101.939,45.731 101.939,101.956 C 34.639,-46.865 21.915,-19.209 0,0"
             style="fill:#00b3f0;fill-opacity:1;fill-rule:nonzero;stroke:none"
             id="path20" />
        </g>
        <g
           id="g22"
           transform="translate(453.9365,245.0394)">
          <path
             d="m 0,0 c 2.529,8.249 3.808,16.837 3.808,25.629 0,48.173 -39.192,87.365 -87.365,87.365 -33.203,0 -63.342,-19.109 -78.005,-48.003 -15.53,12.908 -35.127,20.092 -55.686,20.092 -31.218,0 -59.906,-16.913 -75.351,-43.297 -16.481,13.902 -37.415,21.663 -59.282,21.663 -50.721,0 -91.986,-41.265 -91.986,-91.986 0,-31.293 15.619,-59.901 41.357,-76.823 -5.313,-11.808 -8.089,-24.679 -8.089,-37.739 0,-50.657 41.213,-91.871 91.871,-91.871 20.131,0 39.248,6.396 55.285,18.495 11.545,8.71 20.929,20.153 27.27,33.066 14.681,-10.481 32.2,-16.132 50.583,-16.132 34.043,0 64.741,19.98 78.97,50.015 14.961,-9.925 32.543,-15.277 50.744,-15.277 50.657,0 91.87,41.214 91.87,91.879 C 35.972,-44.057 22.654,-17.349 0,0"
             style="fill:#ffffff;fill-opacity:1;fill-rule:nonzero;stroke:none"
             id="path24" />
        </g>
        <g
           id="g26"
           transform="translate(441.9262,241.2176)">
          <path
             d="m 0,0 c 3.747,9.081 5.794,19.013 5.794,29.451 0,42.717 -34.624,77.341 -77.341,77.341 -35.245,0 -64.971,-23.566 -74.306,-55.799 -14.162,17.036 -35.497,27.888 -59.385,27.888 -33.175,0 -61.453,-20.922 -72.374,-50.304 -15.036,17.542 -37.36,28.67 -62.259,28.67 -45.268,0 -81.961,-36.693 -81.961,-81.962 0,-31.819 18.116,-59.385 44.602,-72.972 -7.197,-12.185 -11.335,-26.416 -11.335,-41.59 0,-45.2 36.647,-81.847 81.847,-81.847 36.969,0 68.236,24.531 78.375,58.189 14.001,-14.047 33.359,-22.76 54.764,-22.76 35.405,0 65.247,23.795 74.397,56.258 14.576,-13.358 33.98,-21.52 55.316,-21.52 45.199,0 81.846,36.648 81.846,81.847 C 37.958,-40.05 22.807,-14.53 0,0"
             style="fill:#130c0e;fill-opacity:1;fill-rule:nonzero;stroke:none"
             id="path28" />
        </g>
        <g
           id="g30"
           transform="translate(346.5031,113.4895)">
          <path
             d="m 0,0 -142.774,-32.962 2.057,-8.908 142.774,32.962 z"
             style="fill:#130c0e;fill-opacity:1;fill-rule:nonzero;stroke:none"
             id="path32" />
        </g>
        <g
           id="g34"
           transform="translate(451.5428,136.5858)">
          <path
             d="m 0,0 v 7.65 l -1.924,-8.104 -2.084,-0.491 -1.879,7.207 v -7.65 l -1.97,-0.465 v 9.158 l 3.078,0.726 1.856,-6.826 0.022,0.005 1.81,7.691 3.038,0.716 V 0.459 Z M -14.223,-3.354 V 4.18 L -17.392,3.433 V 5.051 L -9.01,7.028 V 5.409 l -3.055,-0.72 v -7.534 z"
             style="fill:#f15a22;fill-opacity:1;fill-rule:nonzero;stroke:none"
             id="path36" />
        </g>
        <g
           id="g38"
           transform="translate(424.853,187.5189)">
          <path
             d="M 0,0 C 4.433,1.67 13.71,4.165 21.503,5.855 V 29.979 L -17.442,20.988 V -43.49 l 38.884,8.977 v 10.742 c -5.113,-1.34 -15.649,-3.32 -20.287,-4.103 -5.649,-0.948 -6.454,6.247 -0.207,8.309 3.588,1.175 10.164,2.742 15.298,4.185 l -0.021,8.267 C 11.545,-8.061 5.237,-9.154 0.247,-9.855 -5.938,-10.741 -7.01,-2.639 0,0"
             style="fill:#f15a22;fill-opacity:1;fill-rule:nonzero;stroke:none"
             id="path40" />
        </g>
        <g
           id="g42"
           transform="translate(388.6975,143.0897)">
          <path
             d="m 0,0 c -0.228,2.143 -3.934,2.628 -9.706,4.011 -10.092,2.507 -16.339,8.452 -15.701,18.896 0.679,11.274 6.387,19.137 36.594,24.266 V 23.722 c -10.9,-1.363 -16.918,-3.403 -19.471,-5.49 -2.722,-2.21 -2.563,-5.827 1.366,-7.139 1.707,-0.57 6.754,-2.256 9.804,-3.279 C 8.739,5.863 11.603,2.872 12.2,-2.423 13.886,-17.36 -13.148,-21.277 -24.294,-22.914 V -9.642 C -10.941,-6.952 0.515,-4.594 0,0"
             style="fill:#f15a22;fill-opacity:1;fill-rule:nonzero;stroke:none"
             id="path44" />
        </g>
        <g
           id="g46"
           transform="translate(341.9317,139.1723)">
          <path
             d="m 0,0 v 57.48 l 14.535,3.356 V 3.356 Z"
             style="fill:#f15a22;fill-opacity:1;fill-rule:nonzero;stroke:none"
             id="path48" />
        </g>
        <g
           id="g50"
           transform="translate(307.1922,129.5854)">
          <path
             d="m 0,0 c -4,-0.926 -5.731,0.412 -5.731,5.092 v 14.762 c 0,3.402 -0.176,6.119 3.051,7.03 7.01,1.98 14.844,-1.773 15.586,-9.401 C 13.772,8.618 8.84,2.041 0,0 M -15.586,49.213 V -13.483 C 14.721,-9.051 27.915,2.66 27.585,25.936 27.297,46.12 7.257,57.212 -15.586,49.213"
             style="fill:#f15a22;fill-opacity:1;fill-rule:nonzero;stroke:none"
             id="path52" />
        </g>
        <g
           id="g54"
           transform="translate(265.1131,119.875)">
          <path
             d="m 0,0 -7.319,-1.69 c -1.839,-0.424 -2.886,0.721 -2.66,3.278 0.207,2.391 1.279,7.463 1.691,9.195 0.866,3.587 2.68,5.339 4.763,5.649 3.36,0.536 4.989,-1.918 6.288,-8.103 C 2.886,7.752 3.237,6.494 3.381,4.804 3.67,1.361 2.6,0.6 0,0 m 12.824,27.482 c -3.835,12.577 -6.939,15.68 -14.576,13.917 -6.734,-1.554 -10.561,-5.06 -13.772,-17.36 -3.155,-12.081 -6.619,-29.193 -9.422,-48.738 l 11.091,2.412 c 0.207,1.546 0.578,3.361 1.114,6.123 0.577,2.784 2.082,4.774 5.072,5.464 2.461,0.568 7.042,1.626 8.659,1.999 2.314,0.534 4.432,-1.298 5.174,-4.391 0.495,-2.061 1.134,-4.968 1.526,-6.927 l 14.721,3.381 c -1.794,14.411 -5.773,31.626 -9.587,44.12"
             style="fill:#f15a22;fill-opacity:1;fill-rule:nonzero;stroke:none"
             id="path56" />
        </g>
        <g
           id="g58"
           transform="translate(210.8412,124.7462)">
          <path
             d="m 0,0 c -3.776,-0.885 -5.879,1.217 -5.879,5.713 v 4.343 c 0,3.133 0.609,5.851 3.403,6.736 8.113,2.57 13.763,-0.927 13.763,-6.418 C 11.287,5.242 7.359,1.729 0,0 m 27.346,18.77 c 0,19.96 -19.531,25.756 -43.419,17.221 v -62.795 l 10.18,2.35 v 14.495 c 0,2.462 1.812,2.033 3.486,0.539 1.176,-1.051 8.244,-7.898 13.182,-12.822 l 15.542,3.588 c 0,0 -13.55,13.84 -15.113,15.21 9.102,3.403 16.142,12.27 16.142,22.214"
             style="fill:#f15a22;fill-opacity:1;fill-rule:nonzero;stroke:none"
             id="path60" />
        </g>
        <g
           id="g62"
           transform="translate(170.832,90.7638)">
          <path
             d="m 0,0 -7.319,-1.69 c -1.839,-0.424 -2.886,0.721 -2.66,3.277 0.207,2.392 1.279,7.464 1.691,9.196 0.866,3.587 2.68,5.339 4.763,5.649 3.36,0.536 4.989,-1.918 6.288,-8.103 C 2.886,7.752 3.237,6.494 3.381,4.804 3.67,1.361 2.6,0.6 0,0 m 12.824,27.482 c -3.835,12.577 -6.939,15.68 -14.576,13.917 -6.733,-1.554 -10.561,-5.06 -13.773,-17.36 -3.154,-12.081 -6.618,-29.193 -9.421,-48.738 l 11.091,2.412 c 0.207,1.546 0.578,3.361 1.114,6.123 0.577,2.784 2.082,4.774 5.072,5.464 2.461,0.568 7.042,1.626 8.659,1.999 2.314,0.534 4.432,-1.298 5.174,-4.391 0.495,-2.061 1.134,-4.968 1.526,-6.927 l 14.721,3.381 c -1.794,14.411 -5.773,31.626 -9.587,44.12"
             style="fill:#f15a22;fill-opacity:1;fill-rule:nonzero;stroke:none"
             id="path64" />
        </g>
        <g
           id="g66"
           transform="translate(118.9186,102.8668)">
          <path
             d="m 0,0 c -4.577,-1.113 -7.216,0.082 -7.216,3.917 v 13.876 c 0,3.919 2.165,6.391 6.474,6.948 C 7.897,25.854 11.793,20.803 11.793,14.226 11.793,8.742 8.556,2.103 0,0 m -28.72,44.76 v -86.903 l 21.525,4.97 v 20.411 c 0,3.732 0.927,5.587 3.154,5.979 20.06,3.529 34.349,13.615 34.349,34.308 0,22.722 -24.411,34.946 -59.028,21.235"
             style="fill:#f15a22;fill-opacity:1;fill-rule:nonzero;stroke:none"
             id="path68" />
        </g>
        <g
           id="g70"
           transform="translate(397.9479,315.1994)">
          <path
             d="m 0,0 c -5.938,-19.607 -9.298,-29.194 -12.226,-37.275 -4.989,-13.752 -10.164,-8.35 -12.576,-4.515 -2.804,4.494 -6.618,13.236 -13.236,29.255 l -16.349,-3.773 v -76.961 l 13.566,3.132 c -0.104,12.267 0.103,20.596 0.762,23.833 0.598,2.907 2.351,3.319 4.124,0.433 1.463,-2.371 3.773,-7.505 8.37,-18.06 l 9.09,2.098 c 5.01,13.463 7.713,20.25 9.63,23.57 1.547,2.7 4.495,4.597 5.381,-0.392 0.681,-3.773 0.619,-14.008 0.598,-26.543 l 14.061,3.246 V 2.585 Z"
             style="fill:#faa61a;fill-opacity:1;fill-rule:nonzero;stroke:none"
             id="path72" />
        </g>
        <g
           id="g74"
           transform="translate(319.7273,275.0163)">
          <path
             d="m 0,0 c -0.062,-10.515 -0.041,-20.101 -0.495,-23.606 -1.051,-8.371 -15.359,-12.144 -16.06,-4.433 -0.33,3.629 -0.619,8.422 -0.619,19.123 l -11.566,-2.671 v -70.509 l 14.741,3.403 c 0,11.195 0,16.059 0.186,19.894 0.515,10.102 15.689,12.39 17.009,3.608 0.597,-4 0.701,-5.918 0.701,-14.948 l 11.751,2.713 V 3.613 Z"
             style="fill:#faa61a;fill-opacity:1;fill-rule:nonzero;stroke:none"
             id="path76" />
        </g>
        <g
           id="g78"
           transform="translate(241.5068,269.1924)">
          <path
             d="m 0,0 v -28.381 l 8.226,1.899 c 4.989,1.152 7.051,0.502 7.051,-8.329 v -36.432 l 13.504,3.094 v 33.42 c 0,14.845 1.394,18.591 8.742,20.287 l 6.721,1.552 v 23.105 z"
             style="fill:#faa61a;fill-opacity:1;fill-rule:nonzero;stroke:none"
             id="path80" />
        </g>
        <g
           id="g82"
           transform="translate(235.9815,250.4477)">
          <path
             d="m 0,0 -12.618,-2.913 c 0,0 0.186,-12.989 -0.309,-22.555 -0.721,-13.999 -14.823,-17.009 -15.957,-3.69 -0.578,6.989 -0.846,20.919 -0.846,20.919 l -15.689,-3.622 v -11.36 c 0,-27.111 17.627,-30.451 26.843,-22.719 0.557,0.474 1.113,0.762 1.567,0.556 0.515,-0.227 0.495,-0.783 0.289,-1.814 -0.557,-2.701 -4.557,-8.041 -12.638,-10.205 -6.165,-1.65 -12.206,-2.69 -15.216,-3.164 v -18.814 c 13.566,1.752 29.276,5.628 36.595,16.885 3.814,5.876 5.814,12.082 6.804,21.277 C 0.371,-26.746 0,0 0,0"
             style="fill:#faa61a;fill-opacity:1;fill-rule:nonzero;stroke:none"
             id="path84" />
        </g>
        <g
           id="g86"
           transform="translate(167.224,251.6169)">
          <path
             d="m 0,0 c -0.062,-10.515 -0.041,-20.101 -0.495,-23.606 -1.051,-8.371 -15.359,-12.144 -16.06,-4.433 -0.33,3.629 -0.619,8.422 -0.619,19.123 l -11.566,-2.671 v -70.509 l 14.741,3.403 c 0,11.195 0,16.059 0.186,19.894 0.515,10.102 15.689,12.39 17.009,3.608 0.598,-4 0.701,-5.917 0.701,-14.948 l 11.751,2.713 V 3.613 Z"
             style="fill:#faa61a;fill-opacity:1;fill-rule:nonzero;stroke:none"
             id="path88" />
        </g>
        <g
           id="g90"
           transform="translate(90.4467,209.2079)">
          <path
             d="m 0,0 c -5.628,-1.319 -8.762,1.814 -8.762,8.515 v 6.473 c 0,4.67 0.907,8.721 5.072,10.041 C 8.401,28.86 16.823,23.648 16.823,15.463 16.823,7.814 10.968,2.577 0,0 m 40.76,27.977 c 0,29.75 -29.111,38.389 -64.717,25.668 v -96.036 l 15.174,3.503 v 24.044 c 0,3.67 2.701,3.031 5.196,0.804 1.752,-1.567 12.287,-11.772 19.648,-19.112 l 23.165,5.348 c 0,0 -20.197,20.629 -22.526,22.67 13.566,5.072 24.06,18.289 24.06,33.111"
             style="fill:#faa61a;fill-opacity:1;fill-rule:nonzero;stroke:none"
             id="path92" />
        </g>
        <g
           id="g94"
           transform="translate(489.9307,118.2415)">
          <path
             d="m 0,0 v 23.449 l -292.326,-67.467 -23.664,-66.656 26.129,6.03 3.682,10.814 9.121,2.105 3.741,-9.101 113.505,26.196 3.682,10.814 9.121,2.105 3.741,-9.1 L 0,-37.747 v 23.449 l -4.647,-1.072 v 14.298 z"
             style="fill:#130c0e;fill-opacity:1;fill-rule:nonzero;stroke:none"
             id="path96" />
        </g>
        <g
           id="g98"
           transform="translate(482.6218,86.3091)">
          <path
             d="M 0,0 -35.243,-8.134 V 38.06 L 0,46.193 V 37.747 L -26.01,31.744 V 21.713 l 21.363,4.931 V 18.197 L -26.01,13.266 V 2.444 L 0,8.447 Z m -66.925,-15.446 c -1.207,-0.278 -2.364,-0.281 -3.47,-0.009 -1.107,0.273 -2.082,0.762 -2.927,1.469 -0.845,0.707 -1.519,1.607 -2.022,2.701 -0.503,1.094 -0.754,2.344 -0.754,3.753 V 18.6 c 0,1.32 0.241,2.64 0.724,3.962 0.483,1.32 1.136,2.538 1.961,3.653 0.824,1.114 1.79,2.073 2.897,2.879 1.106,0.805 2.303,1.356 3.591,1.654 l 19.13,4.415 c 1.207,0.278 2.363,0.281 3.47,0.009 1.106,-0.273 2.091,-0.761 2.957,-1.463 0.864,-0.702 1.548,-1.612 2.052,-2.727 0.502,-1.116 0.754,-2.356 0.754,-3.719 V 23.7 l -9.233,-2.131 v 2.309 c 0,0.792 -0.252,1.404 -0.755,1.839 -0.503,0.433 -1.116,0.567 -1.84,0.4 L -64.33,22.9 c -0.725,-0.167 -1.339,-0.596 -1.841,-1.283 -0.504,-0.688 -0.754,-1.428 -0.754,-2.22 V -4.095 c 0,-0.792 0.25,-1.417 0.754,-1.872 0.502,-0.456 1.116,-0.6 1.841,-0.433 l 13.94,3.217 c 0.724,0.167 1.337,0.583 1.84,1.25 0.503,0.665 0.755,1.395 0.755,2.187 v 2.309 l 9.233,2.131 V 1.131 c 0,-1.409 -0.252,-2.775 -0.754,-4.101 -0.504,-1.327 -1.188,-2.54 -2.052,-3.641 -0.866,-1.102 -1.851,-2.044 -2.957,-2.827 -1.107,-0.783 -2.263,-1.314 -3.47,-1.593 z m -14.303,42.893 v -46.194 l -11.104,-2.562 -19.07,28.924 v -33.326 l -9.172,-2.117 v 46.194 l 11.104,2.562 19.069,-28.924 V 25.33 Z m -63.606,-25.371 0.06,0.014 6.337,-15.629 -12.794,-2.953 z m 22.449,-30.321 -17.863,42.07 -9.173,-2.117 -17.862,-50.316 9.172,2.117 3.682,10.814 19.13,4.416 3.741,-9.101 z m -43.088,36.249 -17.863,-50.316 -9.173,-2.117 -17.863,42.07 9.596,2.215 12.854,-31.217 12.854,37.15 z m -55.64,-47.685 c 0,-0.792 -0.252,-1.532 -0.755,-2.22 -0.503,-0.688 -1.116,-1.115 -1.84,-1.282 l -17.743,-4.095 v 29.3 l 17.743,4.094 c 0.724,0.168 1.337,0.022 1.84,-0.433 0.503,-0.456 0.755,-1.079 0.755,-1.871 z m 9.233,26.944 c 0,1.407 -0.252,2.657 -0.755,3.752 -0.503,1.093 -1.176,1.994 -2.021,2.701 -0.845,0.706 -1.831,1.194 -2.957,1.462 -1.127,0.268 -2.294,0.263 -3.5,-0.016 l -29.51,-6.81 v -46.194 l 29.51,6.811 c 1.287,0.297 2.494,0.85 3.62,1.66 1.126,0.81 2.102,1.772 2.927,2.886 0.824,1.115 1.479,2.332 1.962,3.654 0.482,1.321 0.724,2.641 0.724,3.961 z m -63.003,-15.201 0.06,0.014 6.337,-15.629 -12.794,-2.953 z m 22.449,-30.322 -17.863,42.071 -9.173,-2.117 -17.862,-50.316 9.172,2.117 3.682,10.814 19.13,4.415 3.741,-9.101 z"
             style="fill:#7058f8;fill-opacity:1;fill-rule:nonzero;stroke:none"
             id="path100" />
        </g>
      </g>
    </g>
    <g
       id="g102">
      <g
         id="g104"
         clip-path="url(#clipPath108)">
        <g
           id="g110"
           transform="translate(491.4494,165.3864)">
          <path
             d="m 0,0 -322.87,-74.541 12.663,-54.846 322.869,74.541 z"
             style="fill:#9482fa;fill-opacity:1;fill-rule:nonzero;stroke:none"
             id="path112" />
        </g>
        <g
           id="g114"
           transform="translate(491.4494,165.3864)">
          <path
             d="m 0,0 -322.87,-74.541 11.554,-51.744 322.869,74.541 z"
             style="fill:#cac1fd;fill-opacity:1;fill-rule:nonzero;stroke:none"
             id="path116" />
        </g>
        <g
           id="g118"
           transform="translate(491.4494,165.3864)">
          <path
             d="m 0,0 -322.87,-74.541 10.525,-49.111 322.87,74.541 z"
             style="fill:#f2effe;fill-opacity:1;fill-rule:nonzero;stroke:none"
             id="path120" />
        </g>
        <g
           id="g122"
           transform="translate(491.4494,165.3864)">
          <path
             d="m 0,0 -322.87,-74.541 10.139,-46.829 322.87,74.541 z"
             style="fill:#ffffff;fill-opacity:1;fill-rule:nonzero;stroke:none"
             id="path124" />
        </g>
      </g>
    </g>
  </g>
</svg>
