<?xml version="1.0" encoding="UTF-8" standalone="no"?>
<!-- Created with Inkscape (http://www.inkscape.org/) -->

<svg
   version="1.1"
   id="svg1"
   width="666.66669"
   height="497.80133"
   viewBox="0 0 666.66669 497.80133"
   sodipodi:docname="Rhythm Heaven Advance Logo (Wordmark).ai"
   xmlns:inkscape="http://www.inkscape.org/namespaces/inkscape"
   xmlns:sodipodi="http://sodipodi.sourceforge.net/DTD/sodipodi-0.dtd"
   xmlns="http://www.w3.org/2000/svg"
   xmlns:svg="http://www.w3.org/2000/svg">
  <defs
     id="defs1">
    <clipPath
       clipPathUnits="userSpaceOnUse"
       id="clipPath2">
      <path
         d="M 0,373.351 H 500 V 0 H 0 Z"
         transform="translate(-499.99951,-77.897202)"
         id="path2" />
    </clipPath>
    <clipPath
       clipPathUnits="userSpaceOnUse"
       id="clipPath4">
      <path
         d="M 0,373.351 H 500 V 0 H 0 Z"
         transform="translate(-471.79151,-151.30351)"
         id="path4" />
    </clipPath>
    <clipPath
       clipPathUnits="userSpaceOnUse"
       id="clipPath6">
      <path
         d="M 0,373.351 H 500 V 0 H 0 Z"
         transform="translate(-425.87061,-257.09941)"
         id="path6" />
    </clipPath>
    <clipPath
       clipPathUnits="userSpaceOnUse"
       id="clipPath8">
      <path
         d="M 0,373.351 H 500 V 0 H 0 Z"
         transform="translate(-349.57471,-154.6853)"
         id="path8" />
    </clipPath>
    <clipPath
       clipPathUnits="userSpaceOnUse"
       id="clipPath10">
      <path
         d="M 0,373.351 H 500 V 0 H 0 Z"
         transform="translate(-300.60011,-214.41731)"
         id="path10" />
    </clipPath>
    <clipPath
       clipPathUnits="userSpaceOnUse"
       id="clipPath12">
      <path
         d="M 0,373.351 H 500 V 0 H 0 Z"
         transform="translate(-241.21141,-125.62771)"
         id="path12" />
    </clipPath>
    <clipPath
       clipPathUnits="userSpaceOnUse"
       id="clipPath14">
      <path
         d="M 0,373.351 H 500 V 0 H 0 Z"
         transform="translate(-178.1011,-109.5437)"
         id="path14" />
    </clipPath>
    <clipPath
       clipPathUnits="userSpaceOnUse"
       id="clipPath16">
      <path
         d="M 0,373.351 H 500 V 0 H 0 Z"
         transform="translate(-123.1416,-176.3767)"
         id="path16" />
    </clipPath>
    <clipPath
       clipPathUnits="userSpaceOnUse"
       id="clipPath18">
      <path
         d="M 0,373.351 H 500 V 0 H 0 Z"
         transform="translate(-424.12751,-270.77761)"
         id="path18" />
    </clipPath>
    <clipPath
       clipPathUnits="userSpaceOnUse"
       id="clipPath20">
      <path
         d="M 0,373.351 H 500 V 0 H 0 Z"
         transform="translate(-313.47221,-326.35181)"
         id="path20" />
    </clipPath>
    <clipPath
       clipPathUnits="userSpaceOnUse"
       id="clipPath22">
      <path
         d="M 0,373.351 H 500 V 0 H 0 Z"
         transform="translate(-216.3589,-313.74101)"
         id="path22" />
    </clipPath>
    <clipPath
       clipPathUnits="userSpaceOnUse"
       id="clipPath24">
      <path
         d="M 0,373.351 H 500 V 0 H 0 Z"
         transform="translate(-208.70511,-298.36551)"
         id="path24" />
    </clipPath>
    <clipPath
       clipPathUnits="userSpaceOnUse"
       id="clipPath26">
      <path
         d="M 0,373.351 H 500 V 0 H 0 Z"
         transform="translate(-121.3023,-284.4524)"
         id="path26" />
    </clipPath>
    <clipPath
       clipPathUnits="userSpaceOnUse"
       id="clipPath28">
      <path
         d="M 0,373.351 H 500 V 0 H 0 Z"
         transform="translate(-30.136201,-222.53741)"
         id="path28" />
    </clipPath>
  </defs>
  <sodipodi:namedview
     id="namedview1"
     pagecolor="#ffffff"
     bordercolor="#000000"
     borderopacity="0.25"
     inkscape:showpageshadow="2"
     inkscape:pageopacity="0.0"
     inkscape:pagecheckerboard="0"
     inkscape:deskcolor="#d1d1d1">
    <inkscape:page
       x="0"
       y="0"
       inkscape:label="1"
       id="page1"
       width="666.66669"
       height="497.80133"
       margin="0"
       bleed="0" />
  </sodipodi:namedview>
  <g
     id="layer-MC0"
     inkscape:groupmode="layer"
     inkscape:label="Layer 1">
    <path
       id="path1"
       d="M 0,0 -39.993,-9.233 V 43.188 L 0,52.42 V 42.835 L -29.516,36.021 V 24.638 l 24.244,5.596 V 20.649 L -29.516,15.053 V 2.771 L 0,9.585 Z m -75.946,-17.533 c -1.37,-0.317 -2.683,-0.321 -3.939,-0.011 -1.256,0.309 -2.362,0.864 -3.321,1.667 -0.959,0.801 -1.724,1.823 -2.294,3.064 -0.571,1.242 -0.856,2.661 -0.856,4.259 v 29.655 c 0,1.498 0.274,2.996 0.822,4.496 0.548,1.499 1.289,2.881 2.225,4.145 0.936,1.265 2.032,2.353 3.288,3.268 1.254,0.914 2.613,1.54 4.075,1.877 l 21.709,5.011 c 1.369,0.317 2.68,0.32 3.937,0.011 1.255,-0.309 2.373,-0.863 3.356,-1.659 0.981,-0.797 1.756,-1.829 2.328,-3.095 0.57,-1.266 0.856,-2.674 0.856,-4.22 v -4.044 l -10.477,-2.419 v 2.621 c 0,0.899 -0.286,1.594 -0.857,2.087 -0.571,0.491 -1.266,0.643 -2.089,0.454 l -15.819,-3.653 c -0.822,-0.19 -1.519,-0.675 -2.089,-1.456 -0.571,-0.781 -0.855,-1.62 -0.855,-2.518 v -26.66 c 0,-0.899 0.284,-1.608 0.855,-2.124 0.57,-0.518 1.267,-0.681 2.089,-0.492 l 15.819,3.653 c 0.823,0.189 1.518,0.661 2.089,1.418 0.571,0.756 0.857,1.583 0.857,2.482 V 2.905 L -43.76,5.324 V 1.28 c 0,-1.598 -0.286,-3.149 -0.856,-4.653 -0.572,-1.506 -1.347,-2.883 -2.328,-4.133 -0.983,-1.25 -2.101,-2.319 -3.356,-3.208 -1.257,-0.89 -2.568,-1.491 -3.937,-1.807 z M -92.177,31.14 v -52.42 l -12.601,-2.909 -21.64,32.821 v -37.818 l -10.41,-2.403 v 52.42 l 12.601,2.909 21.641,-32.821 v 37.817 z m -72.18,-28.796 0.068,0.016 7.19,-17.736 -14.518,-3.352 z m 25.475,-34.407 -20.271,47.741 -10.409,-2.404 -20.271,-57.1 10.409,2.403 4.178,12.273 21.709,5.011 4.245,-10.328 z m -48.896,41.131 -20.272,-57.099 -10.409,-2.404 -20.27,47.741 10.888,2.513 14.587,-35.423 14.586,42.159 z m -63.142,-54.117 c 0,-0.898 -0.285,-1.739 -0.855,-2.518 -0.572,-0.782 -1.268,-1.267 -2.089,-1.456 l -20.134,-4.649 v 33.25 l 20.134,4.649 c 0.821,0.189 1.517,0.024 2.089,-0.492 0.57,-0.518 0.855,-1.225 0.855,-2.124 z m 10.479,30.576 c 0,1.598 -0.287,3.017 -0.857,4.259 -0.571,1.24 -1.335,2.262 -2.294,3.065 -0.959,0.801 -2.078,1.355 -3.355,1.659 -1.28,0.303 -2.603,0.298 -3.973,-0.019 l -33.488,-7.73 V -65.66 l 33.488,7.731 c 1.461,0.337 2.83,0.965 4.109,1.885 1.278,0.918 2.385,2.011 3.322,3.275 0.935,1.265 1.677,2.646 2.225,4.146 0.548,1.499 0.823,2.998 0.823,4.496 z m -71.496,-17.254 0.068,0.016 7.19,-17.735 -14.518,-3.353 z m 25.475,-34.408 -20.271,47.741 -10.41,-2.403 -20.27,-57.1 10.409,2.403 4.178,12.272 21.709,5.012 4.245,-10.327 z"
       style="fill:#000000;fill-opacity:1;fill-rule:nonzero;stroke:none"
       transform="matrix(1.3333333,0,0,-1.3333333,666.666,393.9384)"
       clip-path="url(#clipPath2)" />
    <path
       id="path3"
       d="m 0,0 v 8.314 l -2.09,-8.796 -2.264,-0.523 -2.04,7.843 V -1.476 L -8.533,-1.97 v 9.952 l 3.343,0.773 2.015,-7.43 0.025,0.006 1.965,8.349 3.3,0.761 V 0.488 Z m -15.449,-3.566 v 8.187 l -3.442,-0.795 v 1.76 l 9.105,2.101 V 5.929 l -3.318,-0.767 v -8.187 z"
       style="fill:#000000;fill-opacity:1;fill-rule:nonzero;stroke:none"
       transform="matrix(1.3333333,0,0,-1.3333333,629.05533,296.06333)"
       clip-path="url(#clipPath4)" />
    <path
       id="path5"
       d="m 0,0 c 0,0 -0.154,-40.4 -0.657,-47.507 -0.786,-11.1 -3.769,-11.398 -6.307,-9.733 -5.064,3.322 -14.527,22.242 -23.001,38.697 l -12.361,-2.854 v -102.238 l 15.115,3.489 0.051,25.942 c 0.026,13.316 3.662,14.183 8.945,9.346 4.009,-3.671 9.464,-11.765 18.061,-25.529 l 20.003,4.618 V 4.583 Z"
       style="fill:#000000;fill-opacity:1;fill-rule:nonzero;stroke:none"
       transform="matrix(1.3333333,0,0,-1.3333333,567.82747,155.00213)"
       clip-path="url(#clipPath6)" />
    <path
       id="path7"
       d="m 0,0 c -0.459,-0.003 -3.854,0.112 -4.218,2.703 -0.21,1.5 0.51,2.909 2.322,4.018 2.833,1.732 12.64,4.55 22.053,6.758 v 13.017 c 0,0 -17.044,-4.101 -22.285,-3.322 -1.592,0.237 -2.652,1.078 -2.863,2.55 -0.216,1.503 0.542,2.857 2.321,4.016 4.794,3.122 26.31,7.764 26.31,7.764 v 30.033 l -44.3,-10.227 -0.001,-80.061 45.228,10.442 V 4.325 C 12.496,1.583 4.337,0.023 0,0"
       style="fill:#000000;fill-opacity:1;fill-rule:nonzero;stroke:none"
       transform="matrix(1.3333333,0,0,-1.3333333,466.0996,291.55427)"
       clip-path="url(#clipPath8)" />
    <path
       id="path9"
       d="m 0,0 c 0,0 -4.799,-31.619 -9.061,-46.23 -1.217,-4.175 -4.16,-10.563 -8.163,-1.429 -1.433,3.272 -5.689,18.556 -8.813,38.261 l -13.82,-3.19 c 1.21,-13.549 7.843,-50.144 16.683,-71.463 l 26.804,6.188 c 9.866,26.11 15.785,53.688 17.797,82.81 z"
       style="fill:#000000;fill-opacity:1;fill-rule:nonzero;stroke:none"
       transform="matrix(1.3333333,0,0,-1.3333333,400.80013,211.9116)"
       clip-path="url(#clipPath10)" />
    <path
       id="path11"
       d="m 0,0 c -2.135,-0.465 -6.992,-1.694 -9.474,-2.159 -2.375,-0.465 -3.762,0.875 -3.469,4.264 0.267,3.171 1.66,9.896 2.188,12.166 1.168,5.022 3.465,7.115 6.164,7.492 3.462,0.482 6.486,-2.543 8.14,-10.745 C 3.709,10.226 4.113,8.579 4.376,6.343 4.696,3.627 3.362,0.848 0,0 M 11.813,45.324 C 5.104,57.683 -2.695,55.122 -6.692,53.799 -11.93,52.066 -16.577,49.377 -21.441,30.084 -26.554,9.805 -32.12,-32.796 -32.12,-32.796 l 14.034,3.24 1.442,8.077 c 0.697,3.901 3.179,6.379 6.964,7.494 0,0 10.874,2.822 14.586,3.244 1.569,0.178 3.411,-1.06 3.947,-3.515 l 1.896,-8.69 19.112,4.412 c 0,0 -9.507,48.123 -18.048,63.858"
       style="fill:#000000;fill-opacity:1;fill-rule:nonzero;stroke:none"
       transform="matrix(1.3333333,0,0,-1.3333333,321.6152,330.29773)"
       clip-path="url(#clipPath12)" />
    <path
       id="path13"
       d="m 0,0 c -0.458,-0.003 -3.854,0.113 -4.217,2.703 -0.21,1.501 0.509,2.909 2.321,4.018 2.833,1.732 12.641,4.551 22.054,6.758 v 13.017 c 0,0 -17.044,-4.101 -22.286,-3.322 -1.592,0.237 -2.652,1.079 -2.863,2.55 -0.216,1.503 0.542,2.857 2.322,4.016 4.793,3.122 26.309,7.764 26.309,7.764 v 32.371 l -44.3,-10.227 v -80.06 L 24.568,-9.97 V 4.326 C 12.497,1.583 4.337,0.023 0,0"
       style="fill:#000000;fill-opacity:1;fill-rule:nonzero;stroke:none"
       transform="matrix(1.3333333,0,0,-1.3333333,237.46813,351.74307)"
       clip-path="url(#clipPath14)" />
    <path
       id="path15"
       d="m 0,0 c 0,-15.976 0.081,-27.933 -2.108,-35.767 -1.33,-4.759 -4.256,-8.381 -8.163,-11.124 -3.981,-2.793 -7.971,-4.016 -11.878,-4.093 -4.766,-0.095 -8.248,2.498 -8.757,7.793 -0.732,7.605 -0.684,17.216 -0.684,30.536 l -17.294,-3.993 v -117.803 l 23.756,5.484 c 0,14.992 0.307,26.043 2.155,32.936 1.259,4.697 4.684,8.661 8.142,10.997 4.042,2.728 7.76,4.094 11.675,4.157 4.759,0.077 8.373,-2.379 8.822,-7.125 0.657,-6.952 0.7,-16.406 0.7,-29.309 l 17.603,4.065 V 5.534 Z"
       style="fill:#000000;fill-opacity:1;fill-rule:nonzero;stroke:none"
       transform="matrix(1.3333333,0,0,-1.3333333,164.1888,262.6324)"
       clip-path="url(#clipPath16)" />
    <path
       id="path17"
       d="M 0,0 V 102.574 L -14.022,99.336 C -21.459,74.779 -25.666,62.771 -29.335,52.649 -35.58,35.423 -42.074,42.185 -45.087,46.994 c -3.522,5.622 -8.289,16.58 -16.578,36.644 l -20.478,-4.727 v -94.913 l 16.981,3.92 c -0.13,15.364 0.137,24.319 0.966,28.373 0.746,3.641 2.94,4.154 5.165,0.542 1.83,-2.972 4.725,-9.4 10.484,-22.621 l 11.388,2.629 c 6.274,16.862 9.665,25.358 12.058,29.52 1.944,3.379 5.622,5.757 6.741,-0.49 0.845,-4.727 0.774,-14.237 0.749,-29.937 z"
       style="fill:#000000;fill-opacity:1;fill-rule:nonzero;stroke:none"
       transform="matrix(1.3333333,0,0,-1.3333333,565.50333,136.76453)"
       clip-path="url(#clipPath18)" />
    <path
       id="path19"
       d="m 0,0 c 0,0 0.337,-22.278 -0.422,-29.653 -1.008,-9.788 -18.357,-13.167 -19.092,-3.163 -0.328,4.464 -0.579,10.223 -0.579,23.372 l -14.178,-3.273 v -87.868 l 19.441,4.488 v 20.292 c 0,15.607 19.388,16.912 20.432,6.003 0.328,-3.43 0.495,-8.777 0.495,-19.874 l 14.178,3.273 V 4.681 Z"
       style="fill:#000000;fill-opacity:1;fill-rule:nonzero;stroke:none"
       transform="matrix(1.3333333,0,0,-1.3333333,417.96293,62.6656)"
       clip-path="url(#clipPath20)" />
    <path
       id="path21"
       d="m 0,0 v -36.211 l 13.082,3.02 c 5.213,1.203 7.044,0.097 7.006,-10.377 v -46.536 l 15.499,3.579 v 43.063 c 0.107,18.486 2.277,22.314 11.471,24.436 l 8.209,1.895 v 29.89 z"
       style="fill:#000000;fill-opacity:1;fill-rule:nonzero;stroke:none"
       transform="matrix(1.3333333,0,0,-1.3333333,288.47853,79.48)"
       clip-path="url(#clipPath22)" />
    <path
       id="path23"
       d="m 0,0 -16.53,-3.816 c 0,0 -0.103,-12.508 -1.017,-29.073 -0.973,-17.609 -19.943,-23.008 -21.026,-5.095 -0.692,11.442 -0.582,26.957 -0.582,26.957 l -19.786,-4.569 v -8.471 c 0,-32.99 3.79,-44.186 23.718,-42.034 4.661,0.503 8.209,1.984 12.208,4.691 0.249,0.169 0.566,0.173 0.862,-0.057 0.284,-0.221 0.745,-0.961 0.051,-3.114 -3.736,-11.6 -35.734,-15.048 -35.734,-15.048 l -0.009,-25.923 c 18.292,2.691 38.202,6.587 48.65,23.945 C -5.292,-75.124 0,-67.295 0,0"
       style="fill:#000000;fill-opacity:1;fill-rule:nonzero;stroke:none"
       transform="matrix(1.3333333,0,0,-1.3333333,278.27347,99.980667)"
       clip-path="url(#clipPath24)" />
    <path
       id="path25"
       d="m 0,0 c 0,0 0.321,-21.172 -0.401,-28.182 -0.957,-9.301 -17.446,-12.513 -18.144,-3.006 -0.311,4.244 -0.55,9.716 -0.55,22.212 l -13.475,-3.11 v -83.507 l 18.476,4.265 v 19.285 c 0,14.833 18.426,16.073 19.418,5.705 0.312,-3.26 0.471,-8.342 0.471,-18.888 l 13.475,3.111 V 4.449 Z"
       style="fill:#000000;fill-opacity:1;fill-rule:nonzero;stroke:none"
       transform="matrix(1.3333333,0,0,-1.3333333,161.7364,118.53147)"
       clip-path="url(#clipPath26)" />
    <path
       id="path27"
       d="m 0,0 c -8.46,-2.157 -13.451,2.375 -13.451,13.749 0,9.071 0.171,18.437 16.78,18.437 11.825,0 16.769,-5.988 16.769,-12.742 C 20.098,13.562 12.901,3.29 0,0 m 49.652,37.472 c 0,20.889 -15.39,46.156 -79.788,30.656 v -113.61 l 16.77,3.871 v 20.528 c 0,8.341 4.806,6.805 7.873,4.807 2.382,-1.551 7.434,-5.623 19.377,-19.043 l 28.49,6.577 -22.201,22.731 c 0,0 29.479,11.87 29.479,43.483"
       style="fill:#000000;fill-opacity:1;fill-rule:nonzero;stroke:none"
       transform="matrix(1.3333333,0,0,-1.3333333,40.1816,201.0848)"
       clip-path="url(#clipPath28)" />
  </g>
</svg>
