<?xml version="1.0" encoding="UTF-8" standalone="no"?>
<!-- Created with Inkscape (http://www.inkscape.org/) -->

<svg
   version="1.1"
   id="svg1"
   width="666.66669"
   height="480.78799"
   viewBox="0 0 666.66669 480.78799"
   sodipodi:docname="Rhythm Paradise Advance Logo (Wordmark).ai"
   xmlns:inkscape="http://www.inkscape.org/namespaces/inkscape"
   xmlns:sodipodi="http://sodipodi.sourceforge.net/DTD/sodipodi-0.dtd"
   xmlns="http://www.w3.org/2000/svg"
   xmlns:svg="http://www.w3.org/2000/svg">
  <defs
     id="defs1">
    <clipPath
       clipPathUnits="userSpaceOnUse"
       id="clipPath2">
      <path
         d="M 0,360.591 H 500 V 0 H 0 Z"
         transform="translate(-500.00041,-82.478905)"
         id="path2" />
    </clipPath>
    <clipPath
       clipPathUnits="userSpaceOnUse"
       id="clipPath4">
      <path
         d="M 0,360.591 H 500 V 0 H 0 Z"
         transform="translate(-462.65771,-142.83441)"
         id="path4" />
    </clipPath>
    <clipPath
       clipPathUnits="userSpaceOnUse"
       id="clipPath6">
      <path
         d="M 0,360.591 H 500 V 0 H 0 Z"
         transform="translate(-430.58831,-204.07261)"
         id="path6" />
    </clipPath>
    <clipPath
       clipPathUnits="userSpaceOnUse"
       id="clipPath8">
      <path
         d="M 0,360.591 H 500 V 0 H 0 Z"
         transform="translate(-387.14591,-150.6889)"
         id="path8" />
    </clipPath>
    <clipPath
       clipPathUnits="userSpaceOnUse"
       id="clipPath10">
      <path
         d="M 0,360.591 H 500 V 0 H 0 Z"
         transform="translate(-330.95451,-145.9818)"
         id="path10" />
    </clipPath>
    <clipPath
       clipPathUnits="userSpaceOnUse"
       id="clipPath12">
      <path
         d="M 0,360.591 H 500 V 0 H 0 Z"
         transform="translate(-289.21431,-134.4633)"
         id="path12" />
    </clipPath>
    <clipPath
       clipPathUnits="userSpaceOnUse"
       id="clipPath14">
      <path
         d="M 0,360.591 H 500 V 0 H 0 Z"
         transform="translate(-238.6537,-122.7963)"
         id="path14" />
    </clipPath>
    <clipPath
       clipPathUnits="userSpaceOnUse"
       id="clipPath16">
      <path
         d="M 0,360.591 H 500 V 0 H 0 Z"
         transform="translate(-173.44431,-128.6566)"
         id="path16" />
    </clipPath>
    <clipPath
       clipPathUnits="userSpaceOnUse"
       id="clipPath18">
      <path
         d="M 0,360.591 H 500 V 0 H 0 Z"
         transform="translate(-125.371,-87.817802)"
         id="path18" />
    </clipPath>
    <clipPath
       clipPathUnits="userSpaceOnUse"
       id="clipPath20">
      <path
         d="M 0,360.591 H 500 V 0 H 0 Z"
         transform="translate(-62.995102,-102.3607)"
         id="path20" />
    </clipPath>
    <clipPath
       clipPathUnits="userSpaceOnUse"
       id="clipPath22">
      <path
         d="M 0,360.591 H 500 V 0 H 0 Z"
         transform="translate(-398.26121,-357.48621)"
         id="path22" />
    </clipPath>
    <clipPath
       clipPathUnits="userSpaceOnUse"
       id="clipPath24">
      <path
         d="M 0,360.591 H 500 V 0 H 0 Z"
         transform="translate(-304.27581,-309.20451)"
         id="path24" />
    </clipPath>
    <clipPath
       clipPathUnits="userSpaceOnUse"
       id="clipPath26">
      <path
         d="M 0,360.591 H 500 V 0 H 0 Z"
         transform="translate(-210.2905,-302.20691)"
         id="path26" />
    </clipPath>
    <clipPath
       clipPathUnits="userSpaceOnUse"
       id="clipPath28">
      <path
         d="M 0,360.591 H 500 V 0 H 0 Z"
         transform="translate(-203.6518,-279.68451)"
         id="path28" />
    </clipPath>
    <clipPath
       clipPathUnits="userSpaceOnUse"
       id="clipPath30">
      <path
         d="M 0,360.591 H 500 V 0 H 0 Z"
         transform="translate(-121.0366,-281.08981)"
         id="path30" />
    </clipPath>
    <clipPath
       clipPathUnits="userSpaceOnUse"
       id="clipPath32">
      <path
         d="M 0,360.591 H 500 V 0 H 0 Z"
         transform="translate(-28.7851,-230.1337)"
         id="path32" />
    </clipPath>
  </defs>
  <sodipodi:namedview
     id="namedview1"
     pagecolor="#ffffff"
     bordercolor="#000000"
     borderopacity="0.25"
     inkscape:showpageshadow="2"
     inkscape:pageopacity="0.0"
     inkscape:pagecheckerboard="0"
     inkscape:deskcolor="#d1d1d1">
    <inkscape:page
       x="0"
       y="0"
       inkscape:label="1"
       id="page1"
       width="666.66669"
       height="480.78799"
       margin="0"
       bleed="0" />
  </sodipodi:namedview>
  <g
     id="layer-MC0"
     inkscape:groupmode="layer"
     inkscape:label="Layer 1">
    <path
       id="path1"
       d="M 0,0 -42.347,-9.776 V 45.727 L 0,55.503 V 45.354 L -31.252,38.139 V 26.087 l 25.668,5.926 V 21.863 L -31.252,15.938 V 2.934 L 0,10.148 Z m -80.414,-18.565 c -1.45,-0.335 -2.841,-0.338 -4.17,-0.011 -1.33,0.327 -2.501,0.915 -3.517,1.764 -1.014,0.849 -1.825,1.931 -2.428,3.246 -0.606,1.313 -0.907,2.816 -0.907,4.508 v 31.4 c 0,1.586 0.29,3.171 0.871,4.76 0.58,1.586 1.365,3.05 2.356,4.389 0.99,1.339 2.15,2.491 3.48,3.46 1.33,0.967 2.767,1.63 4.315,1.987 l 22.985,5.307 c 1.45,0.334 2.84,0.338 4.17,0.011 1.329,-0.327 2.513,-0.914 3.553,-1.757 1.039,-0.844 1.86,-1.936 2.465,-3.276 0.604,-1.341 0.907,-2.831 0.907,-4.469 v -4.282 l -11.095,-2.561 v 2.776 c 0,0.951 -0.301,1.686 -0.906,2.209 -0.604,0.52 -1.341,0.68 -2.211,0.48 l -16.75,-3.867 c -0.87,-0.201 -1.608,-0.716 -2.212,-1.541 -0.604,-0.827 -0.906,-1.716 -0.906,-2.668 V -4.928 c 0,-0.951 0.302,-1.701 0.906,-2.248 0.604,-0.549 1.342,-0.721 2.212,-0.52 l 16.75,3.867 c 0.87,0.201 1.607,0.7 2.211,1.502 0.605,0.8 0.906,1.676 0.906,2.627 v 2.775 l 11.095,2.562 V 1.354 c 0,-1.692 -0.303,-3.333 -0.907,-4.926 -0.605,-1.594 -1.426,-3.053 -2.465,-4.375 -1.04,-1.324 -2.224,-2.456 -3.553,-3.398 -1.33,-0.941 -2.72,-1.579 -4.17,-1.914 z m -17.185,51.536 v -55.503 l -13.341,-3.08 -22.914,34.751 v -40.041 l -11.022,-2.545 v 55.503 l 13.342,3.081 22.914,-34.752 v 40.041 z m -76.425,-30.49 0.072,0.017 7.613,-18.778 -15.372,-3.549 z m 26.973,-36.43 -21.463,50.548 -11.021,-2.544 -21.463,-60.459 11.021,2.545 4.423,12.994 22.986,5.306 4.496,-10.935 z m -51.772,43.551 -21.463,-60.458 -11.022,-2.545 -21.463,50.547 11.53,2.663 15.444,-37.507 15.444,44.637 z m -66.855,-57.3 c 0,-0.951 -0.302,-1.842 -0.906,-2.667 -0.604,-0.827 -1.342,-1.341 -2.212,-1.542 l -21.317,-4.921 v 35.205 l 21.317,4.921 c 0.87,0.201 1.608,0.026 2.212,-0.52 0.604,-0.549 0.906,-1.298 0.906,-2.249 z m 11.095,32.374 c 0,1.691 -0.303,3.194 -0.907,4.509 -0.605,1.313 -1.413,2.395 -2.429,3.245 -1.016,0.848 -2.2,1.434 -3.553,1.757 -1.354,0.322 -2.756,0.315 -4.206,-0.02 l -35.457,-8.186 v -55.503 l 35.457,8.186 c 1.547,0.357 2.997,1.022 4.351,1.995 1.352,0.973 2.525,2.129 3.516,3.469 0.991,1.338 1.778,2.801 2.358,4.39 0.58,1.586 0.87,3.173 0.87,4.759 z m -75.701,-18.27 0.073,0.018 7.613,-18.779 -15.372,-3.549 z m 26.974,-36.43 -21.463,50.548 -11.022,-2.545 -21.463,-60.458 11.022,2.544 4.423,12.995 22.985,5.306 4.496,-10.934 z"
       style="fill:#000000;fill-opacity:1;fill-rule:nonzero;stroke:none"
       transform="matrix(1.3333333,0,0,-1.3333333,666.6672,370.81613)"
       clip-path="url(#clipPath2)" />
    <path
       id="path3"
       d="m 0,0 v 9.197 l -2.313,-9.73 -2.503,-0.578 -2.257,8.675 V -1.633 L -9.44,-2.179 V 8.83 l 3.698,0.854 2.229,-8.217 0.028,0.006 2.174,9.234 3.65,0.843 V 0.54 Z m -17.09,-3.945 v 9.056 l -3.807,-0.879 v 1.947 l 10.071,2.325 V 6.558 l -3.67,-0.848 v -9.057 z"
       style="fill:#000000;fill-opacity:1;fill-rule:nonzero;stroke:none"
       transform="matrix(1.3333333,0,0,-1.3333333,616.87693,290.34213)"
       clip-path="url(#clipPath4)" />
    <path
       id="path5"
       d="m 0,0 c 5.326,2.006 16.474,5.004 25.837,7.035 l 0.001,28.986 -46.795,-10.803 v -77.473 l 46.72,10.786 v 12.907 c -6.144,-1.611 -18.802,-3.989 -24.375,-4.93 -6.788,-1.14 -7.754,7.506 -0.248,9.983 4.31,1.412 12.213,3.295 18.381,5.029 v 9.938 C 13.897,-9.682 6.292,-10.999 0.297,-11.841 -7.135,-12.906 -8.423,-3.171 0,0"
       style="fill:#000000;fill-opacity:1;fill-rule:nonzero;stroke:none"
       transform="matrix(1.3333333,0,0,-1.3333333,574.11773,208.6912)"
       clip-path="url(#clipPath6)" />
    <path
       id="path7"
       d="m 0,0 c -0.274,2.574 -4.727,3.157 -11.662,4.82 -12.126,3.011 -19.632,10.155 -18.865,22.704 0.816,13.546 7.673,22.994 43.969,29.157 V 28.503 C 0.345,26.865 -6.886,24.415 -9.953,21.906 c -3.271,-2.654 -3.08,-7.001 1.641,-8.578 2.051,-0.684 8.115,-2.71 11.78,-3.938 7.033,-2.345 10.473,-5.939 11.191,-12.301 2.026,-17.947 -30.457,-22.653 -43.849,-24.62 v 15.946 C -13.146,-8.353 0.619,-5.52 0,0"
       style="fill:#000000;fill-opacity:1;fill-rule:nonzero;stroke:none"
       transform="matrix(1.3333333,0,0,-1.3333333,516.19453,279.86947)"
       clip-path="url(#clipPath8)" />
    <path
       id="path9"
       d="m 0,0 0.001,69.065 17.464,4.032 V 4.032 Z"
       style="fill:#000000;fill-opacity:1;fill-rule:nonzero;stroke:none"
       transform="matrix(1.3333333,0,0,-1.3333333,441.27267,286.1456)"
       clip-path="url(#clipPath10)" />
    <path
       id="path11"
       d="m 0,0 c -4.807,-1.112 -6.887,0.495 -6.887,6.119 v 17.736 c 0,4.088 -0.212,7.353 3.666,8.448 C 5.202,34.681 14.615,30.172 15.507,21.007 16.547,10.354 10.622,2.452 0,0 m -18.728,59.131 -10e-4,-75.332 C 17.687,-10.875 33.541,3.195 33.145,31.163 32.798,55.415 8.72,68.742 -18.728,59.131"
       style="fill:#000000;fill-opacity:1;fill-rule:nonzero;stroke:none"
       transform="matrix(1.3333333,0,0,-1.3333333,385.61907,301.5036)"
       clip-path="url(#clipPath12)" />
    <path
       id="path13"
       d="m 0,0 -8.794,-2.03 c -2.21,-0.511 -3.468,0.865 -3.195,3.937 0.248,2.873 1.536,8.968 2.031,11.048 1.04,4.311 3.221,6.416 5.723,6.788 4.037,0.644 5.994,-2.304 7.554,-9.735 C 3.469,9.313 3.89,7.803 4.062,5.771 4.41,1.635 3.124,0.721 0,0 m 15.408,33.02 c -4.607,15.112 -8.337,18.841 -17.513,16.722 -8.09,-1.867 -12.689,-6.079 -16.548,-20.858 -3.79,-14.517 -7.951,-35.256 -11.321,-58.739 l 13.328,3.076 c 0.248,1.858 0.693,4.038 1.337,7.357 0.694,3.345 2.502,5.735 6.094,6.565 2.957,0.683 8.461,1.954 10.404,2.402 2.782,0.642 5.327,-1.56 6.218,-5.275 0.595,-2.478 1.363,-5.992 1.833,-8.345 l 17.688,4.084 c -2.156,17.315 -6.937,38 -11.52,53.011"
       style="fill:#000000;fill-opacity:1;fill-rule:nonzero;stroke:none"
       transform="matrix(1.3333333,0,0,-1.3333333,318.20493,317.0596)"
       clip-path="url(#clipPath14)" />
    <path
       id="path15"
       d="m 0,0 c -4.537,-1.063 -7.063,1.464 -7.063,6.867 v 5.22 c -0.001,3.766 0.731,7.032 4.088,8.096 9.747,3.088 16.537,-1.115 16.537,-7.715 C 13.562,6.301 8.842,2.078 0,0 m 32.858,22.558 c 0,23.99 -23.662,30.828 -52.17,20.702 v -75.474 l 12.232,2.824 v 17.421 c 0,2.959 2.177,2.444 4.188,0.649 1.413,-1.264 9.906,-9.494 15.839,-15.413 l 18.674,4.311 c 0,0 -16.281,16.636 -18.159,18.282 10.936,4.089 19.396,14.746 19.396,26.698"
       style="fill:#000000;fill-opacity:1;fill-rule:nonzero;stroke:none"
       transform="matrix(1.3333333,0,0,-1.3333333,231.25907,309.24587)"
       clip-path="url(#clipPath16)" />
    <path
       id="path17"
       d="m 0,0 -8.794,-2.03 c -2.21,-0.51 -3.468,0.866 -3.195,3.937 0.247,2.874 1.535,8.968 2.031,11.049 1.041,4.311 3.22,6.416 5.722,6.787 4.038,0.645 5.995,-2.304 7.556,-9.735 C 3.468,9.314 3.89,7.804 4.063,5.771 4.41,1.635 3.124,0.722 0,0 m 15.409,33.021 c -4.608,15.111 -8.338,18.84 -17.514,16.721 -8.09,-1.867 -12.689,-6.079 -16.548,-20.857 -3.79,-14.517 -7.952,-35.256 -11.321,-58.74 l 13.328,3.077 c 0.247,1.857 0.693,4.038 1.337,7.357 0.694,3.344 2.502,5.735 6.094,6.565 2.957,0.682 8.462,1.953 10.404,2.401 2.782,0.642 5.326,-1.56 6.218,-5.275 0.594,-2.477 1.363,-5.991 1.833,-8.344 l 17.688,4.083 C 24.772,-2.676 19.991,18.01 15.409,33.021"
       style="fill:#000000;fill-opacity:1;fill-rule:nonzero;stroke:none"
       transform="matrix(1.3333333,0,0,-1.3333333,167.16133,363.6976)"
       clip-path="url(#clipPath18)" />
    <path
       id="path19"
       d="m 0,0 c -5.5,-1.338 -8.67,0.099 -8.67,4.706 v 16.673 c 0,4.708 2.601,7.679 7.778,8.348 C 9.488,31.064 14.17,24.995 14.17,17.093 14.17,10.503 10.281,2.526 0,0 M -34.508,53.781 V -50.637 l 25.862,5.971 v 24.525 c 0,4.484 1.115,6.714 3.791,7.185 24.103,4.239 41.271,16.357 41.271,41.222 0.001,27.301 -29.331,41.989 -70.924,25.515"
       style="fill:#000000;fill-opacity:1;fill-rule:nonzero;stroke:none"
       transform="matrix(1.3333333,0,0,-1.3333333,83.993467,344.30707)"
       clip-path="url(#clipPath20)" />
    <path
       id="path21"
       d="m 0,0 c -7.135,-23.559 -11.172,-35.078 -14.69,-44.788 -5.995,-16.523 -12.212,-10.033 -15.111,-5.425 -3.369,5.4 -7.952,15.903 -15.903,35.151 l -19.645,-4.535 v -92.47 l 16.3,3.763 c -0.124,14.74 0.124,24.748 0.916,28.637 0.719,3.493 2.824,3.988 4.955,0.52 1.759,-2.849 4.533,-9.017 10.058,-21.7 l 10.922,2.521 c 6.019,16.176 9.267,24.332 11.571,28.32 1.857,3.245 5.4,5.524 6.465,-0.471 0.817,-4.533 0.743,-16.831 0.719,-31.893 l 16.894,3.901 V 3.105 Z"
       style="fill:#000000;fill-opacity:1;fill-rule:nonzero;stroke:none"
       transform="matrix(1.3333333,0,0,-1.3333333,531.01493,4.1397333)"
       clip-path="url(#clipPath22)" />
    <path
       id="path23"
       d="m 0,0 c -0.074,-12.634 -0.05,-24.153 -0.595,-28.364 -1.263,-10.057 -18.455,-14.591 -19.297,-5.326 -0.396,4.36 -0.743,10.12 -0.743,22.977 l -13.897,-3.209 v -84.721 l 17.712,4.09 c 0,13.451 0,19.296 0.222,23.903 0.619,12.138 18.852,14.888 20.438,4.335 0.718,-4.806 0.842,-7.109 0.842,-17.959 l 14.12,3.259 V 4.341 Z"
       style="fill:#000000;fill-opacity:1;fill-rule:nonzero;stroke:none"
       transform="matrix(1.3333333,0,0,-1.3333333,405.70107,68.515333)"
       clip-path="url(#clipPath24)" />
    <path
       id="path25"
       d="m 0,0 v -34.101 l 9.884,2.282 c 5.995,1.384 8.472,0.603 8.472,-10.008 v -43.802 l 16.226,3.746 v 40.155 c 0,17.836 1.675,22.337 10.503,24.375 l 8.076,1.865 v 27.761 z"
       style="fill:#000000;fill-opacity:1;fill-rule:nonzero;stroke:none"
       transform="matrix(1.3333333,0,0,-1.3333333,280.38733,77.845467)"
       clip-path="url(#clipPath26)" />
    <path
       id="path27"
       d="m 0,0 -15.161,-3.5 c 0,0 0.223,-15.606 -0.371,-27.101 -0.867,-16.82 -17.812,-20.437 -19.174,-4.434 -0.693,8.398 -1.016,25.136 -1.016,25.136 l -18.851,-4.352 V -27.9 c 0,-32.576 21.18,-36.589 32.253,-27.299 0.669,0.57 1.338,0.916 1.883,0.669 0.619,-0.273 0.594,-0.942 0.347,-2.18 -0.669,-3.246 -5.475,-9.662 -15.186,-12.262 -7.407,-1.983 -14.665,-3.233 -18.282,-3.802 v -22.605 c 16.3,2.105 35.177,6.762 43.971,20.288 4.583,7.06 6.985,14.516 8.175,25.565 C 0.445,-32.136 0,0 0,0"
       style="fill:#000000;fill-opacity:1;fill-rule:nonzero;stroke:none"
       transform="matrix(1.3333333,0,0,-1.3333333,271.53573,107.87533)"
       clip-path="url(#clipPath28)" />
    <path
       id="path29"
       d="m 0,0 c -0.074,-12.634 -0.049,-24.153 -0.594,-28.364 -1.264,-10.057 -18.456,-14.591 -19.298,-5.326 -0.396,4.36 -0.743,10.12 -0.743,22.977 l -13.897,-3.209 v -84.72 l 17.712,4.089 c 0,13.451 0,19.296 0.223,23.903 0.619,12.138 18.851,14.888 20.437,4.335 0.718,-4.806 0.842,-7.109 0.842,-17.96 l 14.12,3.26 V 4.341 Z"
       style="fill:#000000;fill-opacity:1;fill-rule:nonzero;stroke:none"
       transform="matrix(1.3333333,0,0,-1.3333333,161.38213,106.0016)"
       clip-path="url(#clipPath30)" />
    <path
       id="path31"
       d="m 0,0 c -6.763,-1.585 -10.528,2.18 -10.528,10.231 v 7.778 c 0,5.611 1.09,10.479 6.094,12.064 C 10.095,34.676 20.214,28.414 20.214,18.579 20.214,9.389 13.179,3.097 0,0 m 48.975,33.616 c 0,35.746 -34.978,46.125 -77.76,30.841 V -50.934 l 18.232,4.209 v 28.889 c 0,4.41 3.245,3.642 6.243,0.966 2.105,-1.882 14.764,-14.145 23.607,-22.963 l 27.834,6.425 c 0,0 -24.266,24.787 -27.066,27.24 16.301,6.094 28.91,21.975 28.91,39.784"
       style="fill:#000000;fill-opacity:1;fill-rule:nonzero;stroke:none"
       transform="matrix(1.3333333,0,0,-1.3333333,38.380133,173.94307)"
       clip-path="url(#clipPath32)" />
  </g>
</svg>
