<?xml version="1.0" encoding="UTF-8" standalone="no"?>
<!-- Created with Inkscape (http://www.inkscape.org/) -->

<svg
   version="1.1"
   id="svg2"
   width="666.66669"
   height="300.54132"
   viewBox="0 0 666.66669 300.54132"
   sodipodi:docname="Rhythm World Advance (리듬 세상 ＡＤＶＡＮＣＥ) Logo (Wordmark).ai"
   xmlns:inkscape="http://www.inkscape.org/namespaces/inkscape"
   xmlns:sodipodi="http://sodipodi.sourceforge.net/DTD/sodipodi-0.dtd"
   xmlns="http://www.w3.org/2000/svg"
   xmlns:svg="http://www.w3.org/2000/svg">
  <defs
     id="defs6">
    <clipPath
       clipPathUnits="userSpaceOnUse"
       id="clipPath16">
      <path
         d="M 0,225.406 H 500 V 0 H 0 Z"
         id="path14" />
    </clipPath>
  </defs>
  <sodipodi:namedview
     id="namedview4"
     pagecolor="#ffffff"
     bordercolor="#000000"
     borderopacity="0.25"
     inkscape:showpageshadow="2"
     inkscape:pageopacity="0.0"
     inkscape:pagecheckerboard="0"
     inkscape:deskcolor="#d1d1d1" />
  <g
     id="g8"
     inkscape:groupmode="layer"
     inkscape:label="Rhythm World Advance (리듬 세상 ＡＤＶＡＮＣＥ) Logo (Wordmark)"
     transform="matrix(1.3333333,0,0,-1.3333333,0,300.54133)">
    <g
       id="g10">
      <g
         id="g12"
         clip-path="url(#clipPath16)">
        <g
           id="g18"
           transform="translate(485.4248,60.8747)">
          <path
             d="M 0,0 -31.264,-7.216 V 33.763 L 0,40.978 V 33.485 L -23.073,28.16 v -8.898 l 18.951,4.374 V 16.142 L -23.073,11.769 V 2.168 L 0,7.493 Z m -59.37,-13.702 c -1.07,-0.247 -2.097,-0.25 -3.078,-0.008 -0.982,0.242 -1.847,0.676 -2.596,1.303 -0.75,0.627 -1.348,1.425 -1.794,2.396 -0.446,0.97 -0.669,2.08 -0.669,3.329 V 16.5 c 0,1.171 0.214,2.342 0.642,3.514 0.429,1.172 1.008,2.253 1.74,3.241 0.731,0.988 1.588,1.839 2.57,2.554 0.981,0.714 2.043,1.204 3.185,1.467 l 16.971,3.917 c 1.07,0.247 2.096,0.25 3.078,0.008 0.981,-0.242 1.855,-0.675 2.623,-1.297 0.767,-0.624 1.374,-1.43 1.82,-2.419 0.446,-0.991 0.67,-2.091 0.67,-3.3 v -3.161 l -8.191,-1.89 v 2.048 c 0,0.703 -0.224,1.246 -0.669,1.631 -0.447,0.385 -0.991,0.504 -1.633,0.355 l -12.367,-2.854 c -0.642,-0.148 -1.187,-0.528 -1.633,-1.138 -0.446,-0.61 -0.669,-1.266 -0.669,-1.969 v -20.84 c 0,-0.703 0.223,-1.257 0.669,-1.66 0.446,-0.405 0.991,-0.533 1.633,-0.385 l 12.367,2.854 c 0.642,0.149 1.186,0.518 1.633,1.109 0.445,0.591 0.669,1.238 0.669,1.94 v 2.049 l 8.191,1.89 V 1.003 c 0,-1.249 -0.224,-2.462 -0.67,-3.638 -0.446,-1.176 -1.053,-2.253 -1.82,-3.23 -0.768,-0.977 -1.642,-1.813 -2.623,-2.508 -0.982,-0.694 -2.008,-1.165 -3.078,-1.412 z m -12.687,38.05 V -16.63 l -9.851,-2.274 -16.917,25.659 v -29.563 l -8.137,-1.878 v 40.978 l 9.85,2.274 16.917,-25.659 V 22.47 Z m -56.426,-22.506 0.054,0.012 5.621,-13.864 -11.349,-2.62 z m 19.915,-26.899 -15.846,37.321 -8.137,-1.878 -15.847,-44.635 8.138,1.878 3.265,9.593 16.971,3.917 3.319,-8.074 z m -38.223,32.157 -15.847,-44.635 -8.137,-1.878 -15.846,37.321 8.512,1.964 11.403,-27.692 11.403,32.955 z m -49.359,-42.301 c 0,-0.702 -0.224,-1.36 -0.669,-1.969 -0.447,-0.611 -0.991,-0.99 -1.633,-1.138 l -15.739,-3.633 v 25.992 l 15.739,3.633 c 0.642,0.148 1.186,0.019 1.633,-0.384 0.445,-0.405 0.669,-0.958 0.669,-1.661 z m 8.19,23.902 c 0,1.248 -0.223,2.357 -0.669,3.328 -0.446,0.97 -1.044,1.769 -1.793,2.396 -0.75,0.627 -1.625,1.06 -2.623,1.297 -1,0.238 -2.035,0.233 -3.105,-0.014 l -26.179,-6.041 v -40.979 l 26.179,6.042 c 1.142,0.264 2.212,0.754 3.212,1.473 0.999,0.718 1.864,1.572 2.596,2.56 0.731,0.989 1.312,2.069 1.74,3.241 0.428,1.172 0.642,2.344 0.642,3.515 z m -55.889,-13.485 0.053,0.013 5.621,-13.865 -11.349,-2.619 z m 19.914,-26.898 -15.846,37.321 -8.137,-1.878 -15.846,-44.636 8.137,1.878 3.266,9.594 16.97,3.916 3.319,-8.073 z"
             style="fill:#000000;fill-opacity:1;fill-rule:nonzero;stroke:none"
             id="path20" />
        </g>
        <g
           id="g22"
           transform="translate(378.9967,156.9314)">
          <path
             d="m 0,0 c 0,0 -2.236,-19.058 -26.639,-43.673 l -12.494,10.375 c 12.504,10.126 26.914,33.264 26.914,53.883 v 0.581 c 0,2.477 -1.916,2.475 -4.302,2.011 l -2.412,-0.469 v 7.34 L 7.843,35.252 V 24.484 C 7.843,3.427 19.46,0.041 34.895,-0.11 L 27.217,-12.053 C 3.762,-9.949 0,0 0,0 M 74.99,29.473 V 16.063 L 59.745,13.099 V -12.085 L 39.38,-16.044 v 58.028 c 0,2.613 -2.145,2.587 -4.589,2.111 l -2.456,-0.477 v 7.744 l 27.41,5.328 V 26.51 Z m -53.855,-84.5 c -2.78,0.054 -8.449,0.166 -8.449,8.882 0,9.033 7.213,15.513 15.054,15.514 8.047,0.001 8.613,-5.453 8.613,-8.773 0,-8.137 -7.013,-15.785 -15.218,-15.623 m 20.364,35.921 c -9.451,2.13 -21.617,2.354 -35.417,-7.044 -9.074,-6.18 -13.65,-13.708 -13.65,-22.335 0,-3.108 0.682,-6.192 2.037,-9.158 4.157,-9.104 10.314,-9.593 18.685,-10.258 13.678,-1.086 21.906,2.534 30.106,8.091 9.164,6.216 13.843,13.635 13.843,22.306 0,7.741 -3.973,15.778 -15.604,18.398"
             style="fill:#000000;fill-opacity:1;fill-rule:nonzero;stroke:none"
             id="path24" />
        </g>
        <g
           id="g26"
           transform="translate(306.5355,220.2698)">
          <path
             d="m 0,0 v -7.592 l 2.042,0.397 c 2.033,0.395 3.85,0.664 3.85,-1.949 v -96.684 l 20.529,3.99 V 5.136 Z m -24.049,-24.371 v -7.592 l 2.042,0.397 c 2.032,0.395 3.894,0.757 3.894,-1.856 v -22.125 l -17.219,-3.347 v -11.902 l 17.219,3.347 v -65.565 l 18.886,3.672 v 109.796 z m 2.669,-63.047 -8.806,-11.751 c -17.204,5.616 -21.85,14.173 -21.85,14.173 0,0 -6.515,-12.107 -20.172,-24.63 l -11.393,9.494 c 0,0 20.129,18.794 20.129,37.567 v 14.289 c 0,2.613 -2.135,2.545 -4.522,2.081 l -2.398,-0.467 v 8.256 l 26.364,5.125 v -26.287 c 0,-25.17 22.648,-27.85 22.648,-27.85"
             style="fill:#000000;fill-opacity:1;fill-rule:nonzero;stroke:none"
             id="path28" />
        </g>
        <g
           id="g30"
           transform="translate(151.1364,121.8736)">
          <path
             d="M 0,0 V -12.139 L 65.001,0.496 V -11.332 L -10.33,-25.975 c -6.08,-1.181 -11.008,2.789 -11.008,8.869 l -10e-4,14.092 c 0,2.438 -0.224,3.175 -5.926,2.066 l -1.08,-0.21 V 6.318 L 65.001,24.463 V 12.635 Z M 65.001,-17.126 V -28.954 L -44.306,-50.201 v 11.828 z M 41.114,-66.779 4.293,-73.936 v 15.422 l 36.821,7.157 z m 21.685,31.603 -87.264,-16.963 v -8.12 l 1.082,0.21 c 5.711,1.11 5.936,0.215 5.936,-2.46 v -16.995 c 0,-5.472 4.436,-9.045 9.907,-7.982 l 62.633,12.175 c 5.472,1.063 9.908,6.361 9.908,11.833 v 26.528 c 0,1.216 -0.986,2.01 -2.202,1.774"
             style="fill:#000000;fill-opacity:1;fill-rule:nonzero;stroke:none"
             id="path32" />
        </g>
        <g
           id="g34"
           transform="translate(68.138,175.5896)">
          <path
             d="m 0,0 v -8.201 l 2.395,0.466 c 2.384,0.463 4.567,0.888 4.567,-2.172 v -48.434 c -3.522,-1.981 -8.033,-3.625 -13.594,-4.706 l -32.941,-6.403 v 14.824 l 30.546,5.938 c 1.52,0.295 2.753,1.767 2.753,3.287 v 29.35 c 0,1.52 -1.233,2.512 -2.753,2.217 l -57.295,-11.137 v -12.676 l 39.078,7.596 v -9.966 l -40.894,-7.949 v -8.339 l 0.966,0.188 c 1.949,0.379 4.841,0.941 4.841,-1.894 v -19.731 c 0,-4.864 3.942,-8.041 8.806,-7.095 l 43.013,8.361 c 8.068,1.568 13.924,3.522 17.474,5.311 v -46.438 l 22.153,4.306 V 5.659 Z"
             style="fill:#000000;fill-opacity:1;fill-rule:nonzero;stroke:none"
             id="path36" />
        </g>
        <g
           id="g38"
           transform="translate(497.2292,40.3193)">
          <path
             d="M 0,0 V 10.887 L -2.738,-0.646 -5.704,-1.345 -8.377,8.911 V -1.975 l -2.804,-0.661 v 13.032 l 4.38,1.033 2.641,-9.715 0.032,0.008 2.576,10.944 4.323,1.02 V 0.653 Z M -20.24,-4.773 V 5.948 l -4.51,-1.063 v 2.304 l 11.928,2.812 V 7.697 L -17.169,6.672 V -4.049 Z"
             style="fill:#000000;fill-opacity:1;fill-rule:nonzero;stroke:none"
             id="path40" />
        </g>
      </g>
    </g>
  </g>
</svg>
