<?xml version="1.0" encoding="UTF-8" standalone="no"?>
<!-- Created with Inkscape (http://www.inkscape.org/) -->

<svg
   version="1.1"
   id="svg1"
   width="666.66669"
   height="666.66669"
   viewBox="0 0 666.66669 666.66669"
   sodipodi:docname="Rhythm Paradise Arcade.ai"
   xmlns:inkscape="http://www.inkscape.org/namespaces/inkscape"
   xmlns:sodipodi="http://sodipodi.sourceforge.net/DTD/sodipodi-0.dtd"
   xmlns="http://www.w3.org/2000/svg"
   xmlns:svg="http://www.w3.org/2000/svg">
  <defs
     id="defs1">
    <clipPath
       clipPathUnits="userSpaceOnUse"
       id="clipPath2">
      <path
         d="m 279.243,156.807 h 515 v -515 h -515 z"
         transform="translate(-536.74321,313.19321)"
         id="path2" />
    </clipPath>
    <clipPath
       clipPathUnits="userSpaceOnUse"
       id="clipPath4">
      <path
         d="M 0,500 H 500 V 0 H 0 Z"
         transform="matrix(1.3333333,0,0,-1.3333333,0,666.66667)"
         id="path4" />
    </clipPath>
    <clipPath
       clipPathUnits="userSpaceOnUse"
       id="clipPath5">
      <path
         d="m 361.743,74.3072 h 350 V -275.693 h -350 z"
         transform="translate(-536.74321,253.24398)"
         id="path5" />
    </clipPath>
    <clipPath
       clipPathUnits="userSpaceOnUse"
       id="clipPath7">
      <path
         d="M 0,500 H 500 V 0 H 0 Z"
         transform="matrix(1.3333333,0,0,-1.3333333,0,666.66667)"
         id="path7" />
    </clipPath>
    <clipPath
       clipPathUnits="userSpaceOnUse"
       id="clipPath9">
      <path
         d="M 0,500 H 500 V 0 H 0 Z"
         transform="translate(-536.74321,213.19321)"
         id="path9" />
    </clipPath>
    <clipPath
       clipPathUnits="userSpaceOnUse"
       id="clipPath10">
      <path
         d="m 314.377,872.497 h 515 v -515 h -515 z"
         transform="translate(-571.87702,-402.49671)"
         id="path10" />
    </clipPath>
    <clipPath
       clipPathUnits="userSpaceOnUse"
       id="clipPath12">
      <path
         d="M 0,500 H 500 V 0 H 0 Z"
         transform="matrix(1.3333333,0,0,-1.3333333,0,666.66667)"
         id="path12" />
    </clipPath>
    <clipPath
       clipPathUnits="userSpaceOnUse"
       id="clipPath13">
      <path
         d="m 396.877,789.997 h 350 v -350 h -350 z"
         transform="translate(-571.87702,-462.44591)"
         id="path13" />
    </clipPath>
    <clipPath
       clipPathUnits="userSpaceOnUse"
       id="clipPath15">
      <path
         d="M 0,500 H 500 V 0 H 0 Z"
         transform="matrix(1.3333333,0,0,-1.3333333,0,666.66667)"
         id="path15" />
    </clipPath>
    <clipPath
       clipPathUnits="userSpaceOnUse"
       id="clipPath17">
      <path
         d="M 0,500 H 500 V 0 H 0 Z"
         transform="translate(-571.87702,-502.49671)"
         id="path17" />
    </clipPath>
    <clipPath
       clipPathUnits="userSpaceOnUse"
       id="clipPath18">
      <path
         d="m -140.682,536.709 h 515 V 21.7089 h -515 z"
         transform="translate(-116.8174,-66.709102)"
         id="path18" />
    </clipPath>
    <clipPath
       clipPathUnits="userSpaceOnUse"
       id="clipPath20">
      <path
         d="M 0,500 H 500 V 0 H 0 Z"
         transform="matrix(1.3333333,0,0,-1.3333333,0,666.66667)"
         id="path20" />
    </clipPath>
    <clipPath
       clipPathUnits="userSpaceOnUse"
       id="clipPath21">
      <path
         d="M -58.1825,454.209 H 291.818 v -350 H -58.1825 Z"
         transform="translate(-116.8174,-126.65831)"
         id="path21" />
    </clipPath>
    <clipPath
       clipPathUnits="userSpaceOnUse"
       id="clipPath23">
      <path
         d="M 0,500 H 500 V 0 H 0 Z"
         transform="matrix(1.3333333,0,0,-1.3333333,0,666.66667)"
         id="path23" />
    </clipPath>
    <clipPath
       clipPathUnits="userSpaceOnUse"
       id="clipPath25">
      <path
         d="M 0,500 H 500 V 0 H 0 Z"
         transform="translate(-116.8174,-166.7091)"
         id="path25" />
    </clipPath>
    <clipPath
       clipPathUnits="userSpaceOnUse"
       id="clipPath27">
      <path
         d="M 0,500 H 500 V 0 H 0 Z"
         transform="translate(-443.80471,-308.19061)"
         id="path27" />
    </clipPath>
    <clipPath
       clipPathUnits="userSpaceOnUse"
       id="clipPath29">
      <path
         d="M 0,500 H 500 V 0 H 0 Z"
         transform="translate(-433.54301,-304.88931)"
         id="path29" />
    </clipPath>
    <clipPath
       clipPathUnits="userSpaceOnUse"
       id="clipPath31">
      <path
         d="M 0,500 H 500 V 0 H 0 Z"
         transform="translate(-422.73341,-301.44931)"
         id="path31" />
    </clipPath>
    <clipPath
       clipPathUnits="userSpaceOnUse"
       id="clipPath33">
      <path
         d="M 0,500 H 500 V 0 H 0 Z"
         transform="translate(-336.85251,-186.4943)"
         id="path33" />
    </clipPath>
    <clipPath
       clipPathUnits="userSpaceOnUse"
       id="clipPath35">
      <path
         d="M 0,500 H 500 V 0 H 0 Z"
         transform="translate(-431.38871,-207.2511)"
         id="path35" />
    </clipPath>
    <clipPath
       clipPathUnits="userSpaceOnUse"
       id="clipPath37">
      <path
         d="M 0,500 H 500 V 0 H 0 Z"
         transform="translate(-407.36821,-253.1202)"
         id="path37" />
    </clipPath>
    <clipPath
       clipPathUnits="userSpaceOnUse"
       id="clipPath39">
      <path
         d="M 0,500 H 500 V 0 H 0 Z"
         transform="translate(-374.82811,-213.13391)"
         id="path39" />
    </clipPath>
    <clipPath
       clipPathUnits="userSpaceOnUse"
       id="clipPath41">
      <path
         d="M 0,500 H 500 V 0 H 0 Z"
         transform="translate(-332.73831,-209.6085)"
         id="path41" />
    </clipPath>
    <clipPath
       clipPathUnits="userSpaceOnUse"
       id="clipPath43">
      <path
         d="M 0,500 H 500 V 0 H 0 Z"
         transform="translate(-301.47271,-200.98061)"
         id="path43" />
    </clipPath>
    <clipPath
       clipPathUnits="userSpaceOnUse"
       id="clipPath45">
      <path
         d="M 0,500 H 500 V 0 H 0 Z"
         transform="translate(-263.60161,-192.24131)"
         id="path45" />
    </clipPath>
    <clipPath
       clipPathUnits="userSpaceOnUse"
       id="clipPath47">
      <path
         d="M 0,500 H 500 V 0 H 0 Z"
         transform="translate(-214.75681,-196.63151)"
         id="path47" />
    </clipPath>
    <clipPath
       clipPathUnits="userSpaceOnUse"
       id="clipPath49">
      <path
         d="M 0,500 H 500 V 0 H 0 Z"
         transform="translate(-178.7485,-166.04111)"
         id="path49" />
    </clipPath>
    <clipPath
       clipPathUnits="userSpaceOnUse"
       id="clipPath51">
      <path
         d="M 0,500 H 500 V 0 H 0 Z"
         transform="translate(-132.0264,-176.9342)"
         id="path51" />
    </clipPath>
    <clipPath
       clipPathUnits="userSpaceOnUse"
       id="clipPath53">
      <path
         d="M 0,500 H 500 V 0 H 0 Z"
         transform="translate(-383.15331,-368.03281)"
         id="path53" />
    </clipPath>
    <clipPath
       clipPathUnits="userSpaceOnUse"
       id="clipPath55">
      <path
         d="M 0,500 H 500 V 0 H 0 Z"
         transform="translate(-312.75491,-331.86831)"
         id="path55" />
    </clipPath>
    <clipPath
       clipPathUnits="userSpaceOnUse"
       id="clipPath57">
      <path
         d="M 0,500 H 500 V 0 H 0 Z"
         transform="translate(-242.35641,-326.62661)"
         id="path57" />
    </clipPath>
    <clipPath
       clipPathUnits="userSpaceOnUse"
       id="clipPath59">
      <path
         d="M 0,500 H 500 V 0 H 0 Z"
         transform="translate(-237.3838,-309.75651)"
         id="path59" />
    </clipPath>
    <clipPath
       clipPathUnits="userSpaceOnUse"
       id="clipPath61">
      <path
         d="M 0,500 H 500 V 0 H 0 Z"
         transform="translate(-175.50201,-310.80921)"
         id="path61" />
    </clipPath>
    <clipPath
       clipPathUnits="userSpaceOnUse"
       id="clipPath63">
      <path
         d="M 0,500 H 500 V 0 H 0 Z"
         transform="translate(-106.4023,-272.6412)"
         id="path63" />
    </clipPath>
    <clipPath
       clipPathUnits="userSpaceOnUse"
       id="clipPath65">
      <path
         d="M 0,500 H 500 V 0 H 0 Z"
         transform="translate(-465.94921,-191.693)"
         id="path65" />
    </clipPath>
    <clipPath
       clipPathUnits="userSpaceOnUse"
       id="clipPath67">
      <path
         d="M 0,500 H 500 V 0 H 0 Z"
         transform="translate(-459.35941,-162.0524)"
         id="path67" />
    </clipPath>
    <clipPath
       clipPathUnits="userSpaceOnUse"
       id="clipPath69">
      <path
         d="M 423.745,196.519 V 153.83 l 35.614,8.222 v 7.806 l -26.283,-6.068 v 10.001 l 21.588,4.984 v 7.807 l -21.588,-4.984 v 9.269 l 26.283,6.068 v 7.806 z m -16.955,-3.915 -29.821,-6.885 v -42.687 l 29.821,6.884 c 1.301,0.3 2.52,0.834 3.659,1.606 v 0 c 1.138,0.772 2.124,1.68 2.958,2.726 v 0 c 0.833,1.046 1.495,2.185 1.983,3.416 v 0 c 0.486,1.23 0.731,2.455 0.731,3.675 v 0 24.15 c 0,1.301 -0.254,2.452 -0.763,3.453 v 0 c -0.508,1 -1.189,1.819 -2.043,2.456 v 0 c -0.853,0.635 -1.849,1.066 -2.988,1.292 v 0 c -0.505,0.099 -1.019,0.149 -1.54,0.149 v 0 c -0.653,0 -1.318,-0.078 -1.997,-0.235 m -20.551,-12.55 17.929,4.139 c 0.731,0.169 1.35,0.048 1.861,-0.364 v 0 c 0.506,-0.411 0.761,-0.981 0.761,-1.714 v 0 -21.71 c 0,-0.732 -0.255,-1.422 -0.761,-2.067 v 0 c -0.511,-0.646 -1.13,-1.054 -1.861,-1.221 v 0 l -17.929,-4.14 z m -40.86,-1.627 -18.051,-46.857 9.269,2.14 3.722,10.068 19.33,4.463 3.783,-8.336 9.269,2.141 -18.051,38.521 z m 4.635,-8.809 0.061,0.014 6.404,-14.316 -12.929,-2.986 z m -34.15,1.994 -19.333,-4.462 c -1.3,-0.301 -2.509,-0.835 -3.628,-1.6 v 0 c -1.118,-0.768 -2.093,-1.673 -2.928,-2.719 v 0 c -0.834,-1.046 -1.493,-2.186 -1.981,-3.416 v 0 c -0.488,-1.231 -0.732,-2.456 -0.732,-3.675 v 0 -24.15 c 0,-1.301 0.254,-2.453 0.762,-3.453 v 0 c 0.508,-1.001 1.189,-1.819 2.043,-2.456 v 0 c 0.855,-0.636 1.839,-1.069 2.958,-1.299 v 0 c 1.118,-0.229 2.287,-0.204 3.506,0.078 v 0 l 19.333,4.464 c 1.22,0.281 2.388,0.795 3.507,1.541 v 0 c 1.117,0.746 2.113,1.636 2.987,2.672 v 0 c 0.874,1.034 1.565,2.17 2.074,3.405 v 0 c 0.508,1.235 0.762,2.504 0.762,3.806 v 0 3.293 l -9.33,-2.155 v -2.134 c 0,-0.732 -0.255,-1.412 -0.762,-2.036 v 0 c -0.509,-0.627 -1.13,-1.023 -1.861,-1.192 v 0 l -14.086,-3.253 c -0.733,-0.169 -1.353,-0.047 -1.861,0.364 v 0 c -0.509,0.41 -0.763,0.983 -0.763,1.716 v 0 21.708 c 0,0.734 0.254,1.421 0.763,2.068 v 0 c 0.508,0.645 1.128,1.054 1.861,1.222 v 0 l 14.086,3.252 c 0.731,0.169 1.352,0.057 1.861,-0.333 v 0 c 0.507,-0.391 0.762,-0.952 0.762,-1.683 v 0 -2.135 l 9.33,2.153 v 3.294 c 0,1.26 -0.254,2.401 -0.762,3.422 v 0 c -0.509,1.02 -1.2,1.847 -2.074,2.479 v 0 c -0.874,0.631 -1.87,1.063 -2.987,1.292 v 0 c -0.503,0.103 -1.016,0.155 -1.539,0.155 v 0 c -0.64,0 -1.296,-0.077 -1.968,-0.233 m -44.58,-10.292 -29.882,-6.898 v -42.69 l 9.331,2.155 v 15.795 l 9.575,2.21 10.732,-13.317 10.062,2.324 -10.732,13.317 c 1.585,0.365 2.997,0.944 4.238,1.74 v 0 c 1.239,0.795 2.307,1.721 3.201,2.783 v 0 c 0.895,1.059 1.576,2.202 2.044,3.43 v 0 c 0.466,1.224 0.7,2.448 0.7,3.667 v 0 8.355 c 0,1.301 -0.253,2.451 -0.761,3.453 v 0 c -0.509,1 -1.19,1.819 -2.043,2.456 v 0 c -0.853,0.635 -1.841,1.068 -2.958,1.299 v 0 c -0.503,0.103 -1.015,0.154 -1.538,0.154 v 0 c -0.641,0 -1.297,-0.077 -1.969,-0.233 m -20.551,-12.549 17.929,4.138 c 0.732,0.169 1.351,0.047 1.859,-0.363 v 0 c 0.509,-0.412 0.763,-0.982 0.763,-1.715 v 0 -5.915 c 0,-0.732 -0.254,-1.422 -0.763,-2.066 v 0 c -0.508,-0.646 -1.127,-1.054 -1.859,-1.223 v 0 l -17.929,-4.139 z m -40.921,-1.643 -18.052,-46.856 9.27,2.14 3.721,10.067 19.331,4.463 3.782,-8.335 9.27,2.14 -18.053,38.522 z m 4.635,-8.809 0.06,0.014 6.404,-14.317 -12.928,-2.984 z"
         transform="translate(-501.15532,-242.89611)"
         id="path69" />
    </clipPath>
    <clipPath
       clipPathUnits="userSpaceOnUse"
       id="clipPath71">
      <path
         d="M 423.745,196.519 V 153.83 l 35.614,8.222 v 7.806 l -26.283,-6.068 v 10.001 l 21.588,4.984 v 7.807 l -21.588,-4.984 v 9.269 l 26.283,6.068 v 7.806 z m -16.955,-3.915 -29.821,-6.885 v -42.687 l 29.821,6.884 c 1.301,0.3 2.52,0.834 3.659,1.606 v 0 c 1.138,0.772 2.124,1.68 2.958,2.726 v 0 c 0.833,1.046 1.495,2.185 1.983,3.416 v 0 c 0.486,1.23 0.731,2.455 0.731,3.675 v 0 24.15 c 0,1.301 -0.254,2.452 -0.763,3.453 v 0 c -0.508,1 -1.189,1.819 -2.043,2.456 v 0 c -0.853,0.635 -1.849,1.066 -2.988,1.292 v 0 c -0.505,0.099 -1.019,0.149 -1.54,0.149 v 0 c -0.653,0 -1.318,-0.078 -1.997,-0.235 m -20.551,-12.55 17.929,4.139 c 0.731,0.169 1.35,0.048 1.861,-0.364 v 0 c 0.506,-0.411 0.761,-0.981 0.761,-1.714 v 0 -21.71 c 0,-0.732 -0.255,-1.422 -0.761,-2.067 v 0 c -0.511,-0.646 -1.13,-1.054 -1.861,-1.221 v 0 l -17.929,-4.14 z m -40.86,-1.627 -18.051,-46.857 9.269,2.14 3.722,10.068 19.33,4.463 3.783,-8.336 9.269,2.141 -18.051,38.521 z m 4.635,-8.809 0.061,0.014 6.404,-14.316 -12.929,-2.986 z m -34.15,1.994 -19.333,-4.462 c -1.3,-0.301 -2.509,-0.835 -3.628,-1.6 v 0 c -1.118,-0.768 -2.093,-1.673 -2.928,-2.719 v 0 c -0.834,-1.046 -1.493,-2.186 -1.981,-3.416 v 0 c -0.488,-1.231 -0.732,-2.456 -0.732,-3.675 v 0 -24.15 c 0,-1.301 0.254,-2.453 0.762,-3.453 v 0 c 0.508,-1.001 1.189,-1.819 2.043,-2.456 v 0 c 0.855,-0.636 1.839,-1.069 2.958,-1.299 v 0 c 1.118,-0.229 2.287,-0.204 3.506,0.078 v 0 l 19.333,4.464 c 1.22,0.281 2.388,0.795 3.507,1.541 v 0 c 1.117,0.746 2.113,1.636 2.987,2.672 v 0 c 0.874,1.034 1.565,2.17 2.074,3.405 v 0 c 0.508,1.235 0.762,2.504 0.762,3.806 v 0 3.293 l -9.33,-2.155 v -2.134 c 0,-0.732 -0.255,-1.412 -0.762,-2.036 v 0 c -0.509,-0.627 -1.13,-1.023 -1.861,-1.192 v 0 l -14.086,-3.253 c -0.733,-0.169 -1.353,-0.047 -1.861,0.364 v 0 c -0.509,0.41 -0.763,0.983 -0.763,1.716 v 0 21.708 c 0,0.734 0.254,1.421 0.763,2.068 v 0 c 0.508,0.645 1.128,1.054 1.861,1.222 v 0 l 14.086,3.252 c 0.731,0.169 1.352,0.057 1.861,-0.333 v 0 c 0.507,-0.391 0.762,-0.952 0.762,-1.683 v 0 -2.135 l 9.33,2.153 v 3.294 c 0,1.26 -0.254,2.401 -0.762,3.422 v 0 c -0.509,1.02 -1.2,1.847 -2.074,2.479 v 0 c -0.874,0.631 -1.87,1.063 -2.987,1.292 v 0 c -0.503,0.103 -1.016,0.155 -1.539,0.155 v 0 c -0.64,0 -1.296,-0.077 -1.968,-0.233 m -44.58,-10.292 -29.882,-6.898 v -42.69 l 9.331,2.155 v 15.795 l 9.575,2.21 10.732,-13.317 10.062,2.324 -10.732,13.317 c 1.585,0.365 2.997,0.944 4.238,1.74 v 0 c 1.239,0.795 2.307,1.721 3.201,2.783 v 0 c 0.895,1.059 1.576,2.202 2.044,3.43 v 0 c 0.466,1.224 0.7,2.448 0.7,3.667 v 0 8.355 c 0,1.301 -0.253,2.451 -0.761,3.453 v 0 c -0.509,1 -1.19,1.819 -2.043,2.456 v 0 c -0.853,0.635 -1.841,1.068 -2.958,1.299 v 0 c -0.503,0.103 -1.015,0.154 -1.538,0.154 v 0 c -0.641,0 -1.297,-0.077 -1.969,-0.233 m -20.551,-12.549 17.929,4.138 c 0.732,0.169 1.351,0.047 1.859,-0.363 v 0 c 0.509,-0.412 0.763,-0.982 0.763,-1.715 v 0 -5.915 c 0,-0.732 -0.254,-1.422 -0.763,-2.066 v 0 c -0.508,-0.646 -1.127,-1.054 -1.859,-1.223 v 0 l -17.929,-4.139 z m -40.921,-1.643 -18.052,-46.856 9.27,2.14 3.721,10.067 19.331,4.463 3.782,-8.335 9.27,2.14 -18.053,38.522 z m 4.635,-8.809 0.06,0.014 6.404,-14.317 -12.928,-2.984 z"
         transform="translate(-501.15532,-242.89611)"
         id="path71" />
    </clipPath>
    <clipPath
       clipPathUnits="userSpaceOnUse"
       id="clipPath73">
      <path
         d="M 423.745,196.519 V 153.83 l 35.614,8.222 v 7.806 l -26.283,-6.068 v 10.001 l 21.588,4.984 v 7.807 l -21.588,-4.984 v 9.269 l 26.283,6.068 v 7.806 z m -16.955,-3.915 -29.821,-6.885 v -42.687 l 29.821,6.884 c 1.301,0.3 2.52,0.834 3.659,1.606 v 0 c 1.138,0.772 2.124,1.68 2.958,2.726 v 0 c 0.833,1.046 1.495,2.185 1.983,3.416 v 0 c 0.486,1.23 0.731,2.455 0.731,3.675 v 0 24.15 c 0,1.301 -0.254,2.452 -0.763,3.453 v 0 c -0.508,1 -1.189,1.819 -2.043,2.456 v 0 c -0.853,0.635 -1.849,1.066 -2.988,1.292 v 0 c -0.505,0.099 -1.019,0.149 -1.54,0.149 v 0 c -0.653,0 -1.318,-0.078 -1.997,-0.235 m -20.551,-12.55 17.929,4.139 c 0.731,0.169 1.35,0.048 1.861,-0.364 v 0 c 0.506,-0.411 0.761,-0.981 0.761,-1.714 v 0 -21.71 c 0,-0.732 -0.255,-1.422 -0.761,-2.067 v 0 c -0.511,-0.646 -1.13,-1.054 -1.861,-1.221 v 0 l -17.929,-4.14 z m -40.86,-1.627 -18.051,-46.857 9.269,2.14 3.722,10.068 19.33,4.463 3.783,-8.336 9.269,2.141 -18.051,38.521 z m 4.635,-8.809 0.061,0.014 6.404,-14.316 -12.929,-2.986 z m -34.15,1.994 -19.333,-4.462 c -1.3,-0.301 -2.509,-0.835 -3.628,-1.6 v 0 c -1.118,-0.768 -2.093,-1.673 -2.928,-2.719 v 0 c -0.834,-1.046 -1.493,-2.186 -1.981,-3.416 v 0 c -0.488,-1.231 -0.732,-2.456 -0.732,-3.675 v 0 -24.15 c 0,-1.301 0.254,-2.453 0.762,-3.453 v 0 c 0.508,-1.001 1.189,-1.819 2.043,-2.456 v 0 c 0.855,-0.636 1.839,-1.069 2.958,-1.299 v 0 c 1.118,-0.229 2.287,-0.204 3.506,0.078 v 0 l 19.333,4.464 c 1.22,0.281 2.388,0.795 3.507,1.541 v 0 c 1.117,0.746 2.113,1.636 2.987,2.672 v 0 c 0.874,1.034 1.565,2.17 2.074,3.405 v 0 c 0.508,1.235 0.762,2.504 0.762,3.806 v 0 3.293 l -9.33,-2.155 v -2.134 c 0,-0.732 -0.255,-1.412 -0.762,-2.036 v 0 c -0.509,-0.627 -1.13,-1.023 -1.861,-1.192 v 0 l -14.086,-3.253 c -0.733,-0.169 -1.353,-0.047 -1.861,0.364 v 0 c -0.509,0.41 -0.763,0.983 -0.763,1.716 v 0 21.708 c 0,0.734 0.254,1.421 0.763,2.068 v 0 c 0.508,0.645 1.128,1.054 1.861,1.222 v 0 l 14.086,3.252 c 0.731,0.169 1.352,0.057 1.861,-0.333 v 0 c 0.507,-0.391 0.762,-0.952 0.762,-1.683 v 0 -2.135 l 9.33,2.153 v 3.294 c 0,1.26 -0.254,2.401 -0.762,3.422 v 0 c -0.509,1.02 -1.2,1.847 -2.074,2.479 v 0 c -0.874,0.631 -1.87,1.063 -2.987,1.292 v 0 c -0.503,0.103 -1.016,0.155 -1.539,0.155 v 0 c -0.64,0 -1.296,-0.077 -1.968,-0.233 m -44.58,-10.292 -29.882,-6.898 v -42.69 l 9.331,2.155 v 15.795 l 9.575,2.21 10.732,-13.317 10.062,2.324 -10.732,13.317 c 1.585,0.365 2.997,0.944 4.238,1.74 v 0 c 1.239,0.795 2.307,1.721 3.201,2.783 v 0 c 0.895,1.059 1.576,2.202 2.044,3.43 v 0 c 0.466,1.224 0.7,2.448 0.7,3.667 v 0 8.355 c 0,1.301 -0.253,2.451 -0.761,3.453 v 0 c -0.509,1 -1.19,1.819 -2.043,2.456 v 0 c -0.853,0.635 -1.841,1.068 -2.958,1.299 v 0 c -0.503,0.103 -1.015,0.154 -1.538,0.154 v 0 c -0.641,0 -1.297,-0.077 -1.969,-0.233 m -20.551,-12.549 17.929,4.138 c 0.732,0.169 1.351,0.047 1.859,-0.363 v 0 c 0.509,-0.412 0.763,-0.982 0.763,-1.715 v 0 -5.915 c 0,-0.732 -0.254,-1.422 -0.763,-2.066 v 0 c -0.508,-0.646 -1.127,-1.054 -1.859,-1.223 v 0 l -17.929,-4.139 z m -40.921,-1.643 -18.052,-46.856 9.27,2.14 3.721,10.067 19.331,4.463 3.782,-8.335 9.27,2.14 -18.053,38.522 z m 4.635,-8.809 0.06,0.014 6.404,-14.317 -12.928,-2.984 z"
         transform="translate(-501.15532,-242.89611)"
         id="path73" />
    </clipPath>
    <clipPath
       clipPathUnits="userSpaceOnUse"
       id="clipPath75">
      <path
         d="M 423.745,196.519 V 153.83 l 35.614,8.222 v 7.806 l -26.283,-6.068 v 10.001 l 21.588,4.984 v 7.807 l -21.588,-4.984 v 9.269 l 26.283,6.068 v 7.806 z m -16.955,-3.915 -29.821,-6.885 v -42.687 l 29.821,6.884 c 1.301,0.3 2.52,0.834 3.659,1.606 v 0 c 1.138,0.772 2.124,1.68 2.958,2.726 v 0 c 0.833,1.046 1.495,2.185 1.983,3.416 v 0 c 0.486,1.23 0.731,2.455 0.731,3.675 v 0 24.15 c 0,1.301 -0.254,2.452 -0.763,3.453 v 0 c -0.508,1 -1.189,1.819 -2.043,2.456 v 0 c -0.853,0.635 -1.849,1.066 -2.988,1.292 v 0 c -0.505,0.099 -1.019,0.149 -1.54,0.149 v 0 c -0.653,0 -1.318,-0.078 -1.997,-0.235 m -20.551,-12.55 17.929,4.139 c 0.731,0.169 1.35,0.048 1.861,-0.364 v 0 c 0.506,-0.411 0.761,-0.981 0.761,-1.714 v 0 -21.71 c 0,-0.732 -0.255,-1.422 -0.761,-2.067 v 0 c -0.511,-0.646 -1.13,-1.054 -1.861,-1.221 v 0 l -17.929,-4.14 z m -40.86,-1.627 -18.051,-46.857 9.269,2.14 3.722,10.068 19.33,4.463 3.783,-8.336 9.269,2.141 -18.051,38.521 z m 4.635,-8.809 0.061,0.014 6.404,-14.316 -12.929,-2.986 z m -34.15,1.994 -19.333,-4.462 c -1.3,-0.301 -2.509,-0.835 -3.628,-1.6 v 0 c -1.118,-0.768 -2.093,-1.673 -2.928,-2.719 v 0 c -0.834,-1.046 -1.493,-2.186 -1.981,-3.416 v 0 c -0.488,-1.231 -0.732,-2.456 -0.732,-3.675 v 0 -24.15 c 0,-1.301 0.254,-2.453 0.762,-3.453 v 0 c 0.508,-1.001 1.189,-1.819 2.043,-2.456 v 0 c 0.855,-0.636 1.839,-1.069 2.958,-1.299 v 0 c 1.118,-0.229 2.287,-0.204 3.506,0.078 v 0 l 19.333,4.464 c 1.22,0.281 2.388,0.795 3.507,1.541 v 0 c 1.117,0.746 2.113,1.636 2.987,2.672 v 0 c 0.874,1.034 1.565,2.17 2.074,3.405 v 0 c 0.508,1.235 0.762,2.504 0.762,3.806 v 0 3.293 l -9.33,-2.155 v -2.134 c 0,-0.732 -0.255,-1.412 -0.762,-2.036 v 0 c -0.509,-0.627 -1.13,-1.023 -1.861,-1.192 v 0 l -14.086,-3.253 c -0.733,-0.169 -1.353,-0.047 -1.861,0.364 v 0 c -0.509,0.41 -0.763,0.983 -0.763,1.716 v 0 21.708 c 0,0.734 0.254,1.421 0.763,2.068 v 0 c 0.508,0.645 1.128,1.054 1.861,1.222 v 0 l 14.086,3.252 c 0.731,0.169 1.352,0.057 1.861,-0.333 v 0 c 0.507,-0.391 0.762,-0.952 0.762,-1.683 v 0 -2.135 l 9.33,2.153 v 3.294 c 0,1.26 -0.254,2.401 -0.762,3.422 v 0 c -0.509,1.02 -1.2,1.847 -2.074,2.479 v 0 c -0.874,0.631 -1.87,1.063 -2.987,1.292 v 0 c -0.503,0.103 -1.016,0.155 -1.539,0.155 v 0 c -0.64,0 -1.296,-0.077 -1.968,-0.233 m -44.58,-10.292 -29.882,-6.898 v -42.69 l 9.331,2.155 v 15.795 l 9.575,2.21 10.732,-13.317 10.062,2.324 -10.732,13.317 c 1.585,0.365 2.997,0.944 4.238,1.74 v 0 c 1.239,0.795 2.307,1.721 3.201,2.783 v 0 c 0.895,1.059 1.576,2.202 2.044,3.43 v 0 c 0.466,1.224 0.7,2.448 0.7,3.667 v 0 8.355 c 0,1.301 -0.253,2.451 -0.761,3.453 v 0 c -0.509,1 -1.19,1.819 -2.043,2.456 v 0 c -0.853,0.635 -1.841,1.068 -2.958,1.299 v 0 c -0.503,0.103 -1.015,0.154 -1.538,0.154 v 0 c -0.641,0 -1.297,-0.077 -1.969,-0.233 m -20.551,-12.549 17.929,4.138 c 0.732,0.169 1.351,0.047 1.859,-0.363 v 0 c 0.509,-0.412 0.763,-0.982 0.763,-1.715 v 0 -5.915 c 0,-0.732 -0.254,-1.422 -0.763,-2.066 v 0 c -0.508,-0.646 -1.127,-1.054 -1.859,-1.223 v 0 l -17.929,-4.139 z m -40.921,-1.643 -18.052,-46.856 9.27,2.14 3.721,10.067 19.331,4.463 3.782,-8.335 9.27,2.14 -18.053,38.522 z m 4.635,-8.809 0.06,0.014 6.404,-14.317 -12.928,-2.984 z"
         transform="translate(-501.15532,-242.89611)"
         id="path75" />
    </clipPath>
  </defs>
  <sodipodi:namedview
     id="namedview1"
     pagecolor="#ffffff"
     bordercolor="#000000"
     borderopacity="0.25"
     inkscape:showpageshadow="2"
     inkscape:pageopacity="0.0"
     inkscape:pagecheckerboard="0"
     inkscape:deskcolor="#d1d1d1">
    <inkscape:page
       x="0"
       y="0"
       inkscape:label="1"
       id="page1"
       width="666.66669"
       height="666.66669"
       margin="0"
       bleed="0" />
  </sodipodi:namedview>
  <g
     id="layer-MC0"
     inkscape:groupmode="layer"
     inkscape:label="Layer 1">
    <path
       id="path1"
       d="M 0,0 H 500 V 500 H 0 Z"
       style="fill:#ffff01;fill-opacity:1;fill-rule:nonzero;stroke:none"
       transform="matrix(1.3333333,0,0,-1.3333333,0,666.66667)" />
    <g
       opacity="0.5"
       id="g3"
       clip-path="url(#clipPath4)">
      <path
         d="M 0,0 C -117.361,0 -212.5,95.14 -212.5,212.5 -212.5,329.861 -117.361,425 0,425 117.36,425 212.5,329.861 212.5,212.5 212.5,95.14 117.36,0 0,0 M 0,470 C -142.214,470 -257.5,354.714 -257.5,212.5 -257.5,70.287 -142.214,-45 0,-45 142.213,-45 257.5,70.287 257.5,212.5 257.5,354.714 142.213,470 0,470"
         style="fill:#ffcc3e;fill-opacity:1;fill-rule:nonzero;stroke:none"
         transform="matrix(1.3333333,0,0,-1.3333333,715.6576,1084.2576)"
         clip-path="url(#clipPath2)"
         id="path3" />
    </g>
    <g
       opacity="0.75"
       id="g6"
       clip-path="url(#clipPath7)">
      <path
         d="m 0,0 c -84.252,0 -152.552,68.3 -152.552,152.551 0,84.252 68.3,152.552 152.552,152.552 84.251,0 152.551,-68.3 152.551,-152.552 C 152.551,68.3 84.251,0 0,0 m 0,327.551 c -96.65,0 -175,-78.35 -175,-175 0,-96.65 78.35,-175 175,-175 96.649,0 175,78.35 175,175 0,96.65 -78.351,175 -175,175"
         style="fill:#ffcc3e;fill-opacity:1;fill-rule:nonzero;stroke:none"
         transform="matrix(1.3333333,0,0,-1.3333333,715.6576,1004.3253)"
         clip-path="url(#clipPath5)"
         id="path6" />
    </g>
    <path
       id="path8"
       d="M 0,0 C -62.133,0 -112.5,50.368 -112.5,112.5 -112.5,174.633 -62.133,225 0,225 62.132,225 112.5,174.633 112.5,112.5 112.5,50.368 62.132,0 0,0 m 0,237.5 c -69.036,0 -125,-55.964 -125,-125 0,-69.035 55.964,-125 125,-125 69.035,0 125,55.965 125,125 0,69.036 -55.965,125 -125,125"
       style="fill:#ffcc3e;fill-opacity:1;fill-rule:nonzero;stroke:none"
       transform="matrix(1.3333333,0,0,-1.3333333,715.6576,950.92427)"
       clip-path="url(#clipPath9)" />
    <g
       opacity="0.5"
       id="g11"
       clip-path="url(#clipPath12)">
      <path
         d="M 0,0 C -117.36,0 -212.5,95.14 -212.5,212.5 -212.5,329.861 -117.36,425 0,425 117.36,425 212.5,329.861 212.5,212.5 212.5,95.14 117.36,0 0,0 M 0,470 C -142.214,470 -257.5,354.713 -257.5,212.5 -257.5,70.287 -142.214,-45 0,-45 142.213,-45 257.5,70.287 257.5,212.5 257.5,354.713 142.213,470 0,470"
         style="fill:#ffcc3e;fill-opacity:1;fill-rule:nonzero;stroke:none"
         transform="matrix(1.3333333,0,0,-1.3333333,762.50267,130.0044)"
         clip-path="url(#clipPath10)"
         id="path11" />
    </g>
    <g
       opacity="0.75"
       id="g14"
       clip-path="url(#clipPath15)">
      <path
         d="m 0,0 c -84.252,0 -152.551,68.299 -152.551,152.551 0,84.252 68.299,152.551 152.551,152.551 84.251,0 152.551,-68.299 152.551,-152.551 C 152.551,68.299 84.251,0 0,0 m 0,327.551 c -96.65,0 -175,-78.35 -175,-175 0,-96.65 78.35,-175 175,-175 96.649,0 175,78.35 175,175 0,96.65 -78.351,175 -175,175"
         style="fill:#ffcc3e;fill-opacity:1;fill-rule:nonzero;stroke:none"
         transform="matrix(1.3333333,0,0,-1.3333333,762.50267,50.072133)"
         clip-path="url(#clipPath13)"
         id="path14" />
    </g>
    <path
       id="path16"
       d="M 0,0 C -62.132,0 -112.5,50.368 -112.5,112.5 -112.5,174.632 -62.132,225 0,225 62.132,225 112.5,174.632 112.5,112.5 112.5,50.368 62.132,0 0,0 m 0,237.5 c -69.036,0 -125,-55.964 -125,-125 0,-69.036 55.964,-125 125,-125 69.035,0 125,55.964 125,125 0,69.036 -55.965,125 -125,125"
       style="fill:#ffcc3e;fill-opacity:1;fill-rule:nonzero;stroke:none"
       transform="matrix(1.3333333,0,0,-1.3333333,762.50267,-3.3289333)"
       clip-path="url(#clipPath17)" />
    <g
       opacity="0.5"
       id="g19"
       clip-path="url(#clipPath20)">
      <path
         d="M 0,0 C -117.36,0 -212.5,95.139 -212.5,212.5 -212.5,329.86 -117.36,425 0,425 117.361,425 212.5,329.86 212.5,212.5 212.5,95.139 117.361,0 0,0 M 0,470 C -142.213,470 -257.5,354.713 -257.5,212.5 -257.5,70.286 -142.213,-45 0,-45 142.214,-45 257.5,70.286 257.5,212.5 257.5,354.713 142.214,470 0,470"
         style="fill:#ffcc3e;fill-opacity:1;fill-rule:nonzero;stroke:none"
         transform="matrix(1.3333333,0,0,-1.3333333,155.75653,577.7212)"
         clip-path="url(#clipPath18)"
         id="path19" />
    </g>
    <g
       opacity="0.75"
       id="g22"
       clip-path="url(#clipPath23)">
      <path
         d="m 0,0 c -84.251,0 -152.551,68.299 -152.551,152.551 0,84.251 68.3,152.551 152.551,152.551 84.252,0 152.551,-68.3 152.551,-152.551 C 152.551,68.299 84.252,0 0,0 m 0,327.551 c -96.65,0 -175,-78.351 -175,-175 0,-96.65 78.35,-175 175,-175 96.65,0 175,78.35 175,175 0,96.649 -78.35,175 -175,175"
         style="fill:#ffcc3e;fill-opacity:1;fill-rule:nonzero;stroke:none"
         transform="matrix(1.3333333,0,0,-1.3333333,155.75653,497.78893)"
         clip-path="url(#clipPath21)"
         id="path22" />
    </g>
    <path
       id="path24"
       d="M 0,0 C -62.132,0 -112.5,50.368 -112.5,112.5 -112.5,174.632 -62.132,225 0,225 62.132,225 112.5,174.632 112.5,112.5 112.5,50.368 62.132,0 0,0 m 0,237.5 c -69.036,0 -125,-55.965 -125,-125 0,-69.036 55.964,-125 125,-125 69.036,0 125,55.964 125,125 0,69.035 -55.964,125 -125,125"
       style="fill:#ffcc3e;fill-opacity:1;fill-rule:nonzero;stroke:none"
       transform="matrix(1.3333333,0,0,-1.3333333,155.75653,444.38787)"
       clip-path="url(#clipPath25)" />
    <path
       id="path26"
       d="m 0,0 c 1.481,6.432 2.228,13.041 2.228,19.765 0,48.353 -39.337,87.691 -87.691,87.691 -19.391,0 -37.769,-6.203 -53.151,-17.937 -7.722,-5.891 -14.41,-13.062 -19.783,-21.102 -13.968,9.005 -30.348,13.919 -47.388,13.919 -27.87,0 -53.734,-13.432 -70.023,-35.034 -14.98,10.052 -32.731,15.563 -51.147,15.563 -50.646,0 -91.85,-41.203 -91.85,-91.849 0,-28.708 13.163,-55.151 35.233,-72.363 -3.487,-9.821 -5.292,-20.22 -5.292,-30.743 0,-50.59 41.157,-91.747 91.747,-91.747 20.103,0 39.197,6.388 55.215,18.473 8.839,6.669 16.409,14.944 22.315,24.257 12.808,-7.081 27.262,-10.844 42.294,-10.844 30.776,0 58.831,16.272 74.537,41.535 12.929,-6.706 27.361,-10.271 42.206,-10.271 50.589,0 91.745,41.158 91.745,91.761 C 31.175,-42.179 19.724,-17.288 0,0"
       style="fill:#00b3f0;fill-opacity:1;fill-rule:nonzero;stroke:none"
       transform="matrix(1.3333333,0,0,-1.3333333,591.7396,255.74587)"
       clip-path="url(#clipPath27)" />
    <path
       id="path28"
       d="m 0,0 c 2.276,7.424 3.427,15.153 3.427,23.066 0,43.356 -35.273,78.628 -78.628,78.628 -29.883,0 -57.008,-17.198 -70.204,-43.202 -13.978,11.617 -31.615,18.083 -50.118,18.083 -28.096,0 -53.915,-15.222 -67.816,-38.968 -14.833,12.512 -33.673,19.497 -53.354,19.497 -45.649,0 -82.787,-37.139 -82.787,-82.787 0,-28.164 14.057,-53.911 37.221,-69.142 -4.782,-10.627 -7.28,-22.211 -7.28,-33.964 0,-45.591 37.091,-82.684 82.684,-82.684 18.118,0 35.323,5.756 49.756,16.645 10.391,7.839 18.836,18.138 24.543,29.759 13.213,-9.432 28.98,-14.518 45.525,-14.518 30.638,0 58.267,17.982 71.073,45.014 13.465,-8.933 29.288,-13.75 45.67,-13.75 45.591,0 82.683,37.093 82.683,82.691 C 32.374,-39.651 20.389,-15.614 0,0"
       style="fill:#ffffff;fill-opacity:1;fill-rule:nonzero;stroke:none"
       transform="matrix(1.3333333,0,0,-1.3333333,578.05733,260.1476)"
       clip-path="url(#clipPath29)" />
    <path
       id="path30"
       d="m 0,0 c 3.373,8.173 5.215,17.112 5.215,26.506 0,38.445 -31.162,69.606 -69.607,69.606 -31.72,0 -58.474,-21.208 -66.876,-50.218 -12.746,15.333 -31.947,25.099 -53.446,25.099 -29.857,0 -55.308,-18.829 -65.137,-45.273 -13.532,15.787 -33.624,25.802 -56.032,25.802 -40.742,0 -73.766,-33.023 -73.766,-73.765 0,-28.637 16.305,-53.446 40.142,-65.675 -6.477,-10.967 -10.201,-23.775 -10.201,-37.432 0,-40.679 32.982,-73.662 73.662,-73.662 33.272,0 61.412,22.078 70.537,52.371 12.602,-12.642 30.024,-20.485 49.287,-20.485 31.866,0 58.723,21.416 66.958,50.632 13.119,-12.021 30.582,-19.367 49.785,-19.367 40.679,0 73.662,32.983 73.662,73.662 C 34.162,-36.044 20.526,-13.077 0,0"
       style="fill:#130c0e;fill-opacity:1;fill-rule:nonzero;stroke:none"
       transform="matrix(1.3333333,0,0,-1.3333333,563.64453,264.73427)"
       clip-path="url(#clipPath31)" />
    <path
       id="path32"
       d="m 0,0 -128.496,-29.666 1.851,-8.017 128.497,29.666 z"
       style="fill:#130c0e;fill-opacity:1;fill-rule:nonzero;stroke:none"
       transform="matrix(1.3333333,0,0,-1.3333333,449.13667,418.0076)"
       clip-path="url(#clipPath33)" />
    <path
       id="path34"
       d="M 0,0 V 6.889 L -1.731,-0.4 -3.607,-0.833 -5.298,5.666 v -6.889 l -1.773,-0.41 v 8.247 l 2.77,0.639 1.67,-6.155 0.021,0.005 1.629,6.917 2.733,0.631 V 0.404 Z M -12.801,-2.956 V 3.829 L -15.652,3.17 v 1.458 l 7.543,1.741 V 4.912 l -2.749,-0.635 v -6.784 z"
       style="fill:#f15a22;fill-opacity:1;fill-rule:nonzero;stroke:none"
       transform="matrix(1.3333333,0,0,-1.3333333,575.18493,390.33187)"
       clip-path="url(#clipPath35)" />
    <path
       id="path36"
       d="m 0,0 c 3.989,1.503 12.339,3.748 19.353,5.27 v 21.711 l -35.051,-8.092 v -58.03 l 34.995,8.079 v 9.668 C 14.695,-22.6 5.214,-24.381 1.039,-25.087 c -5.085,-0.853 -5.809,5.623 -0.185,7.478 3.228,1.058 9.147,2.468 13.767,3.767 v 7.444 C 10.409,-7.251 4.713,-8.238 0.223,-8.869 -5.345,-9.667 -6.31,-2.375 0,0"
       style="fill:#f15a22;fill-opacity:1;fill-rule:nonzero;stroke:none"
       transform="matrix(1.3333333,0,0,-1.3333333,543.1576,329.17307)"
       clip-path="url(#clipPath37)" />
    <path
       id="path38"
       d="m 0,0 c -0.206,1.929 -3.541,2.365 -8.736,3.61 -9.082,2.256 -14.704,7.607 -14.13,17.007 0.611,10.146 5.748,17.222 32.934,21.839 V 21.35 C 0.258,20.123 -5.158,18.288 -7.455,16.409 -9.905,14.42 -9.763,11.165 -6.227,9.983 -4.69,9.47 -0.147,7.954 2.597,7.033 7.865,5.277 10.442,2.585 10.979,-2.181 12.497,-15.624 -11.834,-19.149 -21.865,-20.622 V -8.678 C -9.848,-6.256 0.463,-4.134 0,0"
       style="fill:#f15a22;fill-opacity:1;fill-rule:nonzero;stroke:none"
       transform="matrix(1.3333333,0,0,-1.3333333,499.7708,382.48813)"
       clip-path="url(#clipPath39)" />
    <path
       id="path40"
       d="m 0,0 v 51.732 l 13.082,3.02 V 3.02 Z"
       style="fill:#f15a22;fill-opacity:1;fill-rule:nonzero;stroke:none"
       transform="matrix(1.3333333,0,0,-1.3333333,443.65107,387.18867)"
       clip-path="url(#clipPath41)" />
    <path
       id="path42"
       d="m 0,0 c -3.6,-0.833 -5.158,0.371 -5.158,4.583 v 13.286 c 0,3.061 -0.158,5.506 2.746,6.327 C 3.897,25.977 10.948,22.6 11.616,15.734 12.396,7.756 7.957,1.836 0,0 M -14.027,44.291 V -12.135 C 13.249,-8.146 25.124,2.394 24.827,23.342 24.567,41.508 6.532,51.491 -14.027,44.291"
       style="fill:#f15a22;fill-opacity:1;fill-rule:nonzero;stroke:none"
       transform="matrix(1.3333333,0,0,-1.3333333,401.9636,398.69253)"
       clip-path="url(#clipPath43)" />
    <path
       id="path44"
       d="m 0,0 -6.587,-1.521 c -1.655,-0.382 -2.598,0.649 -2.393,2.95 0.185,2.152 1.15,6.717 1.521,8.275 0.779,3.229 2.412,4.806 4.286,5.084 3.025,0.483 4.49,-1.725 5.659,-7.292 C 2.598,6.977 2.913,5.845 3.043,4.323 3.303,1.225 2.34,0.54 0,0 M 11.542,24.734 C 8.09,36.053 5.297,38.846 -1.577,37.259 c -6.06,-1.399 -9.505,-4.554 -12.395,-15.624 -2.839,-10.873 -5.956,-26.407 -8.48,-43.998 l 9.983,2.304 c 0.186,1.392 0.52,3.025 1.002,5.512 0.52,2.505 1.874,4.296 4.565,4.917 2.215,0.511 6.338,1.463 7.793,1.799 2.083,0.481 3.989,-1.169 4.657,-3.952 0.445,-1.855 1.02,-4.487 1.373,-6.25 l 13.249,3.059 c -1.614,12.97 -5.195,28.463 -8.628,39.708"
       style="fill:#f15a22;fill-opacity:1;fill-rule:nonzero;stroke:none"
       transform="matrix(1.3333333,0,0,-1.3333333,351.4688,410.34493)"
       clip-path="url(#clipPath45)" />
    <path
       id="path46"
       d="m 0,0 c -3.398,-0.797 -5.291,1.096 -5.291,5.143 v 3.91 c 0,2.821 0.548,5.268 3.063,6.064 C 5.073,17.431 10.159,14.282 10.159,9.338 10.159,4.719 6.623,1.556 0,0 M 24.611,16.896 C 24.612,34.865 6.889,39.987 -14.465,32.402 V -24.13 l 9.162,2.115 v 13.049 c 0,2.217 1.631,1.831 3.137,0.486 1.058,-0.947 7.419,-7.111 11.864,-11.544 l 13.988,3.229 c 0,0 -12.195,12.461 -13.602,13.693 8.191,3.063 14.527,11.046 14.527,19.998"
       style="fill:#f15a22;fill-opacity:1;fill-rule:nonzero;stroke:none"
       transform="matrix(1.3333333,0,0,-1.3333333,286.3424,404.49133)"
       clip-path="url(#clipPath47)" />
    <path
       id="path48"
       d="m 0,0 -6.587,-1.521 c -1.656,-0.382 -2.598,0.649 -2.393,2.95 0.185,2.152 1.15,6.717 1.521,8.276 0.779,3.228 2.412,4.805 4.286,5.084 3.025,0.482 4.49,-1.726 5.659,-7.292 C 2.598,6.977 2.913,5.845 3.043,4.323 3.303,1.225 2.34,0.54 0,0 M 11.542,24.734 C 8.09,36.053 5.296,38.846 -1.577,37.259 c -6.06,-1.399 -9.505,-4.553 -12.395,-15.623 -2.839,-10.874 -5.956,-26.408 -8.48,-43.998 l 9.983,2.304 c 0.185,1.392 0.519,3.025 1.002,5.511 0.519,2.505 1.874,4.296 4.565,4.917 2.215,0.512 6.338,1.463 7.793,1.799 2.083,0.481 3.989,-1.168 4.657,-3.951 0.445,-1.856 1.02,-4.488 1.373,-6.25 l 13.248,3.058 c -1.614,12.97 -5.195,28.464 -8.627,39.708"
       style="fill:#f15a22;fill-opacity:1;fill-rule:nonzero;stroke:none"
       transform="matrix(1.3333333,0,0,-1.3333333,238.33133,445.27853)"
       clip-path="url(#clipPath49)" />
    <path
       id="path50"
       d="m 0,0 c -4.119,-1.002 -6.494,0.074 -6.494,3.525 v 12.489 c 0,3.527 1.948,5.752 5.826,6.253 7.775,1.002 11.282,-3.544 11.282,-9.464 C 10.614,7.868 7.701,1.893 0,0 m -25.848,40.284 v -78.212 l 19.372,4.472 v 18.37 c 0,3.358 0.835,5.029 2.839,5.381 18.054,3.176 30.914,12.253 30.914,30.877 0,20.45 -21.97,31.452 -53.125,19.112"
       style="fill:#f15a22;fill-opacity:1;fill-rule:nonzero;stroke:none"
       transform="matrix(1.3333333,0,0,-1.3333333,176.0352,430.7544)"
       clip-path="url(#clipPath51)" />
    <path
       id="path52"
       d="m 0,0 c -5.344,-17.646 -8.368,-26.274 -11.003,-33.548 -4.49,-12.376 -9.148,-7.515 -11.319,-4.063 -2.524,4.045 -5.956,11.912 -11.912,26.329 l -14.714,-3.397 -10e-4,-69.263 12.21,2.818 c -0.093,11.041 0.093,18.537 0.686,21.451 0.538,2.616 2.115,2.987 3.711,0.389 1.318,-2.134 3.396,-6.754 7.533,-16.254 l 8.181,1.889 c 4.51,12.116 6.942,18.225 8.668,21.212 1.392,2.431 4.045,4.138 4.843,-0.353 0.612,-3.395 0.556,-12.607 0.538,-23.889 l 12.654,2.922 V 2.326 Z"
       style="fill:#faa61a;fill-opacity:1;fill-rule:nonzero;stroke:none"
       transform="matrix(1.3333333,0,0,-1.3333333,510.87107,175.95627)"
       clip-path="url(#clipPath53)" />
    <path
       id="path54"
       d="m 0,0 c -0.056,-9.463 -0.037,-18.091 -0.445,-21.246 -0.947,-7.533 -13.825,-10.929 -14.455,-3.989 -0.297,3.266 -0.557,7.58 -0.557,17.21 l -10.409,-2.403 v -63.459 l 13.266,3.063 c 0,10.075 0,14.453 0.167,17.905 0.465,9.091 14.121,11.151 15.309,3.247 0.538,-3.6 0.631,-5.326 0.631,-13.453 l 10.576,2.442 V 3.251 Z"
       style="fill:#faa61a;fill-opacity:1;fill-rule:nonzero;stroke:none"
       transform="matrix(1.3333333,0,0,-1.3333333,417.00653,224.1756)"
       clip-path="url(#clipPath55)" />
    <path
       id="path56"
       d="m 0,0 v -25.543 l 7.403,1.71 c 4.491,1.036 6.346,0.451 6.346,-7.497 v -32.81 l 12.153,2.806 10e-4,30.078 c 0,13.36 1.254,16.732 7.868,18.258 l 6.048,1.397 V 9.193 Z"
       style="fill:#faa61a;fill-opacity:1;fill-rule:nonzero;stroke:none"
       transform="matrix(1.3333333,0,0,-1.3333333,323.14187,231.16453)"
       clip-path="url(#clipPath57)" />
    <path
       id="path58"
       d="m 0,0 -11.356,-2.622 c 0,0 0.167,-11.689 -0.278,-20.299 -0.65,-12.599 -13.342,-15.308 -14.362,-3.321 -0.52,6.29 -0.761,18.827 -0.761,18.827 l -14.12,-3.259 v -10.224 c 0,-24.4 15.864,-27.406 24.158,-20.448 0.501,0.427 1.002,0.686 1.41,0.501 0.464,-0.204 0.446,-0.705 0.26,-1.633 -0.501,-2.431 -4.1,-7.237 -11.374,-9.185 -5.548,-1.484 -10.985,-2.42 -13.694,-2.847 v -16.933 c 12.209,1.577 26.348,5.066 32.936,15.197 3.432,5.288 5.233,10.873 6.123,19.149 C 0.334,-24.071 0,0 0,0"
       style="fill:#faa61a;fill-opacity:1;fill-rule:nonzero;stroke:none"
       transform="matrix(1.3333333,0,0,-1.3333333,316.51173,253.658)"
       clip-path="url(#clipPath59)" />
    <path
       id="path60"
       d="m 0,0 c -0.056,-9.463 -0.037,-18.091 -0.445,-21.246 -0.947,-7.533 -13.824,-10.929 -14.455,-3.989 -0.297,3.266 -0.557,7.58 -0.557,17.21 l -10.409,-2.403 v -63.459 l 13.267,3.063 c 0,10.075 0,14.453 0.167,17.905 0.464,9.091 14.12,11.151 15.308,3.247 0.538,-3.6 0.631,-5.326 0.631,-13.453 l 10.576,2.442 V 3.251 Z"
       style="fill:#faa61a;fill-opacity:1;fill-rule:nonzero;stroke:none"
       transform="matrix(1.3333333,0,0,-1.3333333,234.00267,252.2544)"
       clip-path="url(#clipPath61)" />
    <path
       id="path62"
       d="m 0,0 c -5.066,-1.187 -7.886,1.633 -7.886,7.663 v 5.827 c 0,4.202 0.816,7.848 4.564,9.036 C 7.561,25.974 15.141,21.283 15.141,13.917 15.141,7.032 9.871,2.319 0,0 m 36.684,25.179 c 0,26.776 -26.2,34.55 -58.246,23.102 v -86.433 l 13.657,3.153 v 21.639 c 0,3.303 2.431,2.728 4.676,0.724 1.577,-1.41 11.059,-10.595 17.683,-17.201 l 20.849,4.813 c 0,0 -18.177,18.566 -20.274,20.403 12.21,4.565 21.655,16.46 21.655,29.8"
       style="fill:#faa61a;fill-opacity:1;fill-rule:nonzero;stroke:none"
       transform="matrix(1.3333333,0,0,-1.3333333,141.86973,303.14507)"
       clip-path="url(#clipPath63)" />
    <path
       id="path64"
       d="m 0,0 v 21.332 l -261.029,-60.262 -23.771,-61.703 24.829,5.731 3.721,10.068 10.61,2.449 3.782,-8.334 117.456,27.116 3.719,10.066 10.612,2.451 3.781,-8.334 L 0,-34.883 v 21.332 l -4.696,-1.084 v 13.551 z"
       style="fill:#130c0e;fill-opacity:1;fill-rule:nonzero;stroke:none"
       transform="matrix(1.3333333,0,0,-1.3333333,621.2656,411.076)"
       clip-path="url(#clipPath65)" />
    <path
       id="path66"
       d="M 0,0 -35.614,-8.222 V 34.466 L 0,42.689 v -7.806 l -26.284,-6.068 v -9.27 l 21.589,4.984 V 16.723 L -26.284,11.738 V 1.737 L 0,7.806 Z m -52.569,20.062 c 0,0.733 -0.255,1.304 -0.762,1.715 -0.51,0.411 -1.129,0.533 -1.86,0.364 l -17.93,-4.14 V -9.076 l 17.93,4.14 c 0.731,0.168 1.35,0.575 1.86,1.222 0.507,0.645 0.762,1.335 0.762,2.067 z m 9.331,-20.775 c 0,-1.22 -0.244,-2.446 -0.732,-3.675 -0.488,-1.232 -1.149,-2.37 -1.982,-3.416 -0.834,-1.046 -1.82,-1.955 -2.958,-2.726 -1.139,-0.772 -2.359,-1.306 -3.659,-1.606 l -29.821,-6.885 v 42.688 l 29.821,6.885 c 1.22,0.282 2.398,0.31 3.537,0.085 1.138,-0.225 2.135,-0.656 2.988,-1.292 0.854,-0.637 1.534,-1.455 2.043,-2.455 0.508,-1.002 0.763,-2.152 0.763,-3.453 z m -72.572,-9.009 12.93,2.985 -6.404,14.317 -0.061,-0.015 z m 19.882,-12.425 -3.782,8.335 -19.331,-4.463 -3.721,-10.067 -9.269,-2.14 18.052,46.857 9.269,2.14 18.052,-38.521 z m -66.9,-15.445 c -1.22,-0.282 -2.388,-0.307 -3.507,-0.078 -1.118,0.23 -2.102,0.663 -2.957,1.299 -0.854,0.636 -1.535,1.454 -2.043,2.455 -0.509,1.001 -0.763,2.153 -0.763,3.454 v 24.149 c 0,1.22 0.244,2.444 0.733,3.676 0.487,1.23 1.147,2.369 1.981,3.415 0.834,1.047 1.81,1.951 2.928,2.719 1.118,0.766 2.327,1.299 3.628,1.6 l 19.333,4.463 c 1.22,0.282 2.388,0.307 3.507,0.078 1.117,-0.23 2.113,-0.661 2.987,-1.292 0.874,-0.632 1.564,-1.459 2.073,-2.479 0.509,-1.021 0.763,-2.163 0.763,-3.423 v -3.293 l -9.33,-2.153 v 2.134 c 0,0.732 -0.255,1.292 -0.763,1.684 -0.509,0.39 -1.129,0.502 -1.86,0.333 l -14.087,-3.252 c -0.732,-0.169 -1.353,-0.577 -1.86,-1.223 -0.509,-0.646 -0.763,-1.334 -0.763,-2.067 v -21.709 c 0,-0.732 0.254,-1.305 0.763,-1.715 0.507,-0.412 1.128,-0.533 1.86,-0.364 l 14.087,3.253 c 0.731,0.169 1.351,0.565 1.86,1.191 0.508,0.625 0.763,1.305 0.763,2.036 v 2.135 l 9.33,2.154 v -3.293 c 0,-1.301 -0.254,-2.57 -0.763,-3.805 -0.509,-1.236 -1.199,-2.371 -2.073,-3.406 -0.874,-1.036 -1.87,-1.925 -2.987,-2.671 -1.119,-0.746 -2.287,-1.26 -3.507,-1.541 z m -25.247,26.371 c 0,0.732 -0.254,1.303 -0.763,1.715 -0.508,0.41 -1.127,0.532 -1.859,0.363 l -17.93,-4.139 v -11.283 l 17.93,4.14 c 0.732,0.169 1.351,0.576 1.859,1.222 0.509,0.645 0.763,1.334 0.763,2.067 z m 0,10.489 c 1.22,0.282 2.388,0.307 3.507,0.078 1.117,-0.23 2.104,-0.663 2.958,-1.299 0.853,-0.636 1.533,-1.456 2.043,-2.456 0.507,-1.001 0.761,-2.151 0.761,-3.453 v -8.354 c 0,-1.22 -0.234,-2.444 -0.7,-3.668 -0.469,-1.228 -1.149,-2.37 -2.044,-3.43 -0.894,-1.061 -1.962,-1.987 -3.201,-2.782 -1.241,-0.796 -2.653,-1.375 -4.238,-1.74 l 10.732,-13.318 -10.062,-2.323 -10.733,13.317 -9.575,-2.211 v -15.795 l -9.33,-2.154 v 42.69 z m -63.302,-40.288 12.929,2.984 -6.404,14.317 -0.061,-0.014 z m 19.881,-12.425 -3.781,8.335 -19.332,-4.463 -3.72,-10.067 -9.27,-2.141 18.051,46.857 9.27,2.14 18.052,-38.521 z"
       style="fill:#ffcc3e;fill-opacity:1;fill-rule:nonzero;stroke:none"
       transform="matrix(1.3333333,0,0,-1.3333333,612.4792,450.5968)"
       clip-path="url(#clipPath67)" />
    <path
       id="path68"
       d="m 0,0 -326.281,-75.351 12.796,-50.432 326.281,75.351 z"
       style="fill:#ffd880;fill-opacity:1;fill-rule:nonzero;stroke:none"
       transform="matrix(1.3333333,0,0,-1.3333333,668.20707,342.8052)"
       clip-path="url(#clipPath69)" />
    <path
       id="path70"
       d="m 0,0 -326.281,-75.351 11.676,-47.586 326.28,75.35 z"
       style="fill:#ffeac0;fill-opacity:1;fill-rule:nonzero;stroke:none"
       transform="matrix(1.3333333,0,0,-1.3333333,668.20707,342.8052)"
       clip-path="url(#clipPath71)" />
    <path
       id="path72"
       d="m 0,0 -326.281,-75.351 10.636,-45.174 326.281,75.351 z"
       style="fill:#fff7e6;fill-opacity:1;fill-rule:nonzero;stroke:none"
       transform="matrix(1.3333333,0,0,-1.3333333,668.20707,342.8052)"
       clip-path="url(#clipPath73)" />
    <path
       id="path74"
       d="m 0,0 -326.281,-75.351 10.246,-43.072 326.281,75.35 z"
       style="fill:#ffffff;fill-opacity:1;fill-rule:nonzero;stroke:none"
       transform="matrix(1.3333333,0,0,-1.3333333,668.20707,342.8052)"
       clip-path="url(#clipPath75)" />
  </g>
</svg>
