<?xml version="1.0" encoding="UTF-8" standalone="no"?>
<!-- Created with Inkscape (http://www.inkscape.org/) -->

<svg
   version="1.1"
   id="svg1"
   width="666.66669"
   height="479.10266"
   viewBox="0 0 666.66669 479.10266"
   sodipodi:docname="Rhythm Paradise Arcade (DEU) Logo (Wordmark).ai"
   xmlns:inkscape="http://www.inkscape.org/namespaces/inkscape"
   xmlns:sodipodi="http://sodipodi.sourceforge.net/DTD/sodipodi-0.dtd"
   xmlns="http://www.w3.org/2000/svg"
   xmlns:svg="http://www.w3.org/2000/svg">
  <defs
     id="defs1">
    <clipPath
       clipPathUnits="userSpaceOnUse"
       id="clipPath2">
      <path
         d="M 0,359.327 H 500 V 0 H 0 Z"
         transform="translate(-468.66331,-23.526403)"
         id="path2" />
    </clipPath>
    <clipPath
       clipPathUnits="userSpaceOnUse"
       id="clipPath4">
      <path
         d="M 0,359.327 H 500 V 0 H 0 Z"
         transform="translate(-492.41131,-85.448205)"
         id="path4" />
    </clipPath>
    <clipPath
       clipPathUnits="userSpaceOnUse"
       id="clipPath6">
      <path
         d="M 0,359.327 H 500 V 0 H 0 Z"
         transform="translate(-455.63601,-144.875)"
         id="path6" />
    </clipPath>
    <clipPath
       clipPathUnits="userSpaceOnUse"
       id="clipPath8">
      <path
         d="M 0,359.327 H 500 V 0 H 0 Z"
         transform="translate(-424.05391,-205.18361)"
         id="path8" />
    </clipPath>
    <clipPath
       clipPathUnits="userSpaceOnUse"
       id="clipPath10">
      <path
         d="M 0,359.327 H 500 V 0 H 0 Z"
         transform="translate(-381.27071,-152.61041)"
         id="path10" />
    </clipPath>
    <clipPath
       clipPathUnits="userSpaceOnUse"
       id="clipPath12">
      <path
         d="M 0,359.327 H 500 V 0 H 0 Z"
         transform="translate(-325.93191,-147.9746)"
         id="path12" />
    </clipPath>
    <clipPath
       clipPathUnits="userSpaceOnUse"
       id="clipPath14">
      <path
         d="M 0,359.327 H 500 V 0 H 0 Z"
         transform="translate(-284.82441,-136.63091)"
         id="path14" />
    </clipPath>
    <clipPath
       clipPathUnits="userSpaceOnUse"
       id="clipPath16">
      <path
         d="M 0,359.327 H 500 V 0 H 0 Z"
         transform="translate(-235.04611,-125.14361)"
         id="path16" />
    </clipPath>
    <clipPath
       clipPathUnits="userSpaceOnUse"
       id="clipPath18">
      <path
         d="M 0,359.327 H 500 V 0 H 0 Z"
         transform="translate(-170.81181,-130.9043)"
         id="path18" />
    </clipPath>
    <clipPath
       clipPathUnits="userSpaceOnUse"
       id="clipPath20">
      <path
         d="M 0,359.327 H 500 V 0 H 0 Z"
         transform="translate(-123.46851,-90.693405)"
         id="path20" />
    </clipPath>
    <clipPath
       clipPathUnits="userSpaceOnUse"
       id="clipPath22">
      <path
         d="M 0,359.327 H 500 V 0 H 0 Z"
         transform="translate(-62.039302,-105.0146)"
         id="path22" />
    </clipPath>
    <clipPath
       clipPathUnits="userSpaceOnUse"
       id="clipPath24">
      <path
         d="M 0,359.327 H 500 V 0 H 0 Z"
         transform="translate(-392.21701,-356.26861)"
         id="path24" />
    </clipPath>
    <clipPath
       clipPathUnits="userSpaceOnUse"
       id="clipPath26">
      <path
         d="M 0,359.327 H 500 V 0 H 0 Z"
         transform="translate(-299.6584,-308.72021)"
         id="path26" />
    </clipPath>
    <clipPath
       clipPathUnits="userSpaceOnUse"
       id="clipPath28">
      <path
         d="M 0,359.327 H 500 V 0 H 0 Z"
         transform="translate(-207.09891,-301.82861)"
         id="path28" />
    </clipPath>
    <clipPath
       clipPathUnits="userSpaceOnUse"
       id="clipPath30">
      <path
         d="M 0,359.327 H 500 V 0 H 0 Z"
         transform="translate(-200.56081,-279.64791)"
         id="path30" />
    </clipPath>
    <clipPath
       clipPathUnits="userSpaceOnUse"
       id="clipPath32">
      <path
         d="M 0,359.327 H 500 V 0 H 0 Z"
         transform="translate(-119.1999,-281.03171)"
         id="path32" />
    </clipPath>
    <clipPath
       clipPathUnits="userSpaceOnUse"
       id="clipPath34">
      <path
         d="M 0,359.327 H 500 V 0 H 0 Z"
         transform="translate(-28.348401,-230.8491)"
         id="path34" />
    </clipPath>
  </defs>
  <sodipodi:namedview
     id="namedview1"
     pagecolor="#ffffff"
     bordercolor="#000000"
     borderopacity="0.25"
     inkscape:showpageshadow="2"
     inkscape:pageopacity="0.0"
     inkscape:pagecheckerboard="0"
     inkscape:deskcolor="#d1d1d1">
    <inkscape:page
       x="0"
       y="0"
       inkscape:label="1"
       id="page1"
       width="666.66669"
       height="479.10266"
       margin="0"
       bleed="0" />
  </sodipodi:namedview>
  <g
     id="layer-MC0"
     inkscape:groupmode="layer"
     inkscape:label="Layer 1">
    <path
       id="path1"
       d="M 0,0 C -1.338,-0.309 -2.58,-0.311 -3.729,-0.004 -4.879,0.302 -5.881,0.835 -6.737,1.597 -7.594,2.359 -8.273,3.31 -8.773,4.451 -9.275,5.592 -9.526,6.848 -9.526,8.219 V 45.774 L 0,47.974 V 11.719 C 0,10.897 0.261,10.26 0.783,9.811 1.306,9.359 1.942,9.221 2.695,9.395 l 16.294,3.761 c 0.753,0.174 1.4,0.62 1.944,1.34 0.543,0.719 0.814,1.49 0.814,2.313 v 36.185 l 9.59,2.214 V 17.652 c 0,-1.371 -0.251,-2.742 -0.753,-4.115 C 30.083,12.165 29.402,10.9 28.548,9.743 27.69,8.586 26.677,7.587 25.508,6.746 24.337,5.903 23.084,5.33 21.747,5.021 Z m -17.235,-3.979 -36.601,-8.45 v 47.973 l 36.601,8.45 V 35.222 L -44.246,28.985 V 18.569 l 22.185,5.122 V 14.919 L -44.246,9.797 V -1.442 l 27.011,6.235 z m -54.024,23.712 c 0,0.824 -0.261,1.471 -0.783,1.945 -0.522,0.472 -1.159,0.623 -1.911,0.449 l -18.426,-4.254 v -30.428 l 18.426,4.254 c 0.752,0.173 1.389,0.617 1.911,1.332 0.522,0.714 0.783,1.483 0.783,2.305 z m 9.59,-23.553 c 0,-1.37 -0.251,-2.742 -0.753,-4.115 -0.501,-1.373 -1.181,-2.636 -2.036,-3.794 -0.857,-1.157 -1.871,-2.156 -3.04,-2.997 -1.171,-0.842 -2.424,-1.417 -3.761,-1.725 l -30.646,-7.075 v 47.972 l 30.646,7.075 c 1.254,0.291 2.465,0.295 3.636,0.018 1.169,-0.279 2.193,-0.785 3.07,-1.518 0.877,-0.735 1.577,-1.67 2.1,-2.805 0.522,-1.138 0.784,-2.436 0.784,-3.898 z"
       style="fill:#000000;fill-opacity:1;fill-rule:nonzero;stroke:none"
       transform="matrix(1.3333333,0,0,-1.3333333,624.8844,447.73413)"
       clip-path="url(#clipPath2)" />
    <path
       id="path3"
       d="M 0,0 -46.825,-10.811 V 45.316 L 0,56.127 V 45.864 L -34.559,37.886 V 25.698 l 28.385,6.553 V 21.987 L -34.559,15.435 V 2.284 L 0,10.263 Z m -69.117,26.379 c 0,0.963 -0.335,1.713 -1.002,2.254 -0.669,0.54 -1.484,0.7 -2.445,0.478 l -23.575,-5.442 v -35.602 l 23.575,5.443 c 0.961,0.222 1.776,0.758 2.445,1.607 0.667,0.849 1.002,1.755 1.002,2.718 z M -56.85,-0.937 c 0,-1.604 -0.321,-3.215 -0.962,-4.833 -0.641,-1.619 -1.51,-3.115 -2.605,-4.49 -1.097,-1.376 -2.394,-2.57 -3.89,-3.584 -1.497,-1.015 -3.1,-1.718 -4.81,-2.113 l -39.208,-9.052 v 56.127 l 39.208,9.052 c 1.604,0.37 3.153,0.407 4.65,0.112 1.497,-0.297 2.807,-0.863 3.93,-1.699 1.122,-0.837 2.016,-1.914 2.685,-3.229 0.668,-1.316 1.002,-2.829 1.002,-4.54 z m -95.415,-11.845 17,3.925 -8.42,18.823 -0.08,-0.019 z m 26.14,-16.336 -4.972,10.959 -25.417,-5.868 -4.89,-13.236 -12.189,-2.814 23.734,61.606 12.187,2.814 23.735,-50.647 z m -87.959,-20.307 c -1.603,-0.37 -3.14,-0.404 -4.61,-0.102 -1.471,0.302 -2.766,0.871 -3.888,1.708 -1.124,0.836 -2.019,1.912 -2.688,3.228 -0.667,1.316 -1.001,2.829 -1.001,4.54 V -8.3 c 0,1.605 0.321,3.214 0.962,4.833 0.641,1.618 1.509,3.115 2.606,4.49 1.096,1.376 2.379,2.567 3.849,3.576 1.47,1.006 3.059,1.708 4.77,2.103 l 25.418,5.868 c 1.604,0.37 3.141,0.404 4.611,0.103 1.47,-0.303 2.779,-0.87 3.928,-1.699 1.148,-0.831 2.057,-1.919 2.727,-3.26 0.668,-1.343 1.002,-2.843 1.002,-4.499 v -4.33 l -12.268,-2.832 v 2.806 c 0,0.962 -0.335,1.7 -1.002,2.215 -0.669,0.512 -1.483,0.659 -2.445,0.438 l -18.523,-4.277 c -0.962,-0.222 -1.777,-0.758 -2.445,-1.607 -0.669,-0.85 -1.003,-1.755 -1.003,-2.718 v -28.544 c 0,-0.963 0.334,-1.714 1.003,-2.254 0.668,-0.542 1.483,-0.7 2.445,-0.478 l 18.523,4.276 c 0.962,0.222 1.776,0.744 2.445,1.567 0.667,0.822 1.002,1.715 1.002,2.677 v 2.807 l 12.268,2.832 v -4.33 c 0,-1.711 -0.334,-3.379 -1.002,-5.002 -0.67,-1.626 -1.579,-3.118 -2.727,-4.479 -1.149,-1.361 -2.458,-2.531 -3.928,-3.512 -1.47,-0.981 -3.007,-1.657 -4.611,-2.027 z m -33.194,34.672 c 0,0.963 -0.334,1.713 -1.002,2.254 -0.669,0.54 -1.484,0.701 -2.447,0.478 l -23.572,-5.442 v -14.834 l 23.572,5.443 c 0.963,0.221 1.778,0.756 2.447,1.607 0.668,0.849 1.002,1.754 1.002,2.717 z m 0,13.791 c 1.603,0.37 3.139,0.404 4.61,0.103 1.47,-0.303 2.767,-0.872 3.889,-1.708 1.123,-0.837 2.016,-1.913 2.686,-3.229 0.668,-1.316 1.002,-2.829 1.002,-4.54 V -21.32 c 0,-1.604 -0.307,-3.212 -0.921,-4.824 -0.616,-1.613 -1.511,-3.115 -2.687,-4.509 -1.176,-1.394 -2.579,-2.613 -4.209,-3.658 -1.631,-1.045 -3.488,-1.807 -5.572,-2.288 l 14.111,-17.509 -13.231,-3.055 -14.111,17.51 -12.588,-2.907 v -20.767 l -12.267,-2.832 v 56.127 z m -83.229,-52.971 16.999,3.925 -8.42,18.823 -0.079,-0.018 z m 26.14,-16.336 -4.972,10.959 -25.417,-5.868 -4.891,-13.235 -12.188,-2.815 23.733,61.607 12.188,2.813 23.735,-50.647 z"
       style="fill:#000000;fill-opacity:1;fill-rule:nonzero;stroke:none"
       transform="matrix(1.3333333,0,0,-1.3333333,656.5484,365.17173)"
       clip-path="url(#clipPath4)" />
    <path
       id="path5"
       d="m 0,0 v 9.058 l -2.277,-9.583 -2.466,-0.57 -2.223,8.544 V -1.607 L -9.297,-2.146 V 8.696 l 3.642,0.841 2.195,-8.093 0.027,0.006 2.142,9.095 3.595,0.829 V 0.532 Z m -16.83,-3.885 v 8.919 l -3.75,-0.866 v 1.923 l 9.918,2.29 V 6.458 l -3.614,-0.834 v -8.92 z"
       style="fill:#000000;fill-opacity:1;fill-rule:nonzero;stroke:none"
       transform="matrix(1.3333333,0,0,-1.3333333,607.51467,285.936)"
       clip-path="url(#clipPath6)" />
    <path
       id="path7"
       d="M 0,0 C 5.245,1.976 16.223,4.928 25.444,6.928 V 35.475 L -20.64,24.835 v -76.297 l 46.084,10.64 v 12.71 c -6.049,-1.585 -18.59,-3.945 -24.079,-4.871 -6.683,-1.122 -7.636,7.391 -0.243,9.831 4.245,1.39 12.027,3.245 18.102,4.953 v 9.787 C 13.686,-9.534 6.196,-10.832 0.292,-11.661 -7.026,-12.711 -8.295,-3.123 0,0"
       style="fill:#000000;fill-opacity:1;fill-rule:nonzero;stroke:none"
       transform="matrix(1.3333333,0,0,-1.3333333,565.4052,205.52453)"
       clip-path="url(#clipPath8)" />
    <path
       id="path9"
       d="m 0,0 c -0.271,2.535 -4.655,3.109 -11.485,4.747 -11.943,2.965 -19.334,10 -18.579,22.359 0.803,13.34 7.557,22.644 43.301,28.714 V 28.07 C 0.339,26.457 -6.782,24.044 -9.803,21.573 c -3.22,-2.614 -3.033,-6.894 1.616,-8.447 2.021,-0.675 7.993,-2.669 11.602,-3.88 6.926,-2.308 10.314,-5.848 11.021,-12.113 1.995,-17.675 -29.995,-22.31 -43.184,-24.246 V -11.41 C -12.947,-8.226 0.609,-5.436 0,0"
       style="fill:#000000;fill-opacity:1;fill-rule:nonzero;stroke:none"
       transform="matrix(1.3333333,0,0,-1.3333333,508.36093,275.62213)"
       clip-path="url(#clipPath10)" />
    <path
       id="path11"
       d="m 0,0 v 68.017 l 17.199,3.97 V 3.971 Z"
       style="fill:#000000;fill-opacity:1;fill-rule:nonzero;stroke:none"
       transform="matrix(1.3333333,0,0,-1.3333333,434.57587,281.8032)"
       clip-path="url(#clipPath12)" />
    <path
       id="path13"
       d="m 0,0 c -4.733,-1.096 -6.782,0.488 -6.782,6.025 v 17.468 c 0,4.026 -0.208,7.241 3.611,8.319 C 5.124,34.154 14.394,29.714 15.272,20.687 16.297,10.197 10.461,2.415 0,0 M -18.443,58.233 V -15.955 C 17.419,-10.71 33.032,3.146 32.643,30.69 32.301,54.574 8.588,67.699 -18.443,58.233"
       style="fill:#000000;fill-opacity:1;fill-rule:nonzero;stroke:none"
       transform="matrix(1.3333333,0,0,-1.3333333,379.76587,296.92813)"
       clip-path="url(#clipPath14)" />
    <path
       id="path15"
       d="m 0,0 -8.66,-1.999 c -2.177,-0.503 -3.416,0.853 -3.148,3.878 0.245,2.83 1.513,8.831 2,10.881 1.026,4.244 3.172,6.318 5.636,6.684 C -0.195,20.078 1.732,17.175 3.27,9.856 3.415,9.173 3.83,7.685 4.001,5.685 4.343,1.61 3.076,0.71 0,0 M 15.175,32.521 C 10.637,47.401 6.964,51.074 -2.073,48.987 -10.041,47.148 -14.57,43.001 -18.37,28.446 -22.103,14.15 -26.229,-6.281 -29.547,-29.408 l 13.152,3.036 c 0.245,1.83 0.684,3.976 1.318,7.246 0.683,3.293 2.464,5.647 6.002,6.465 l 10.246,2.365 c 2.739,0.633 5.245,-1.536 6.123,-5.195 0.586,-2.44 1.342,-5.901 1.806,-8.218 l 17.419,4.022 C 24.396,-2.635 19.687,17.736 15.175,32.521"
       style="fill:#000000;fill-opacity:1;fill-rule:nonzero;stroke:none"
       transform="matrix(1.3333333,0,0,-1.3333333,313.3948,312.24453)"
       clip-path="url(#clipPath16)" />
    <path
       id="path17"
       d="m 0,0 c -4.468,-1.048 -6.956,1.44 -6.956,6.76 v 5.139 c -10e-4,3.707 0.72,6.923 4.026,7.971 9.6,3.041 16.286,-1.097 16.286,-7.595 C 13.356,6.203 8.708,2.046 0,0 m 32.359,22.211 c 0,23.618 -23.111,30.477 -51.378,20.378 v -74.306 l 12.046,2.781 v 17.151 c 0,2.914 2.144,2.406 4.125,0.639 1.391,-1.245 9.755,-9.346 15.598,-15.173 l 18.391,4.246 c 0,0 -16.034,16.377 -17.883,17.997 10.77,4.027 19.101,14.519 19.101,26.287"
       style="fill:#000000;fill-opacity:1;fill-rule:nonzero;stroke:none"
       transform="matrix(1.3333333,0,0,-1.3333333,227.74907,304.5636)"
       clip-path="url(#clipPath18)" />
    <path
       id="path19"
       d="m 0,0 -8.661,-1.999 c -2.176,-0.503 -3.415,0.853 -3.147,3.878 0.245,2.829 1.513,8.831 2.001,10.88 1.024,4.245 3.171,6.319 5.636,6.684 3.976,0.635 5.903,-2.268 7.44,-9.588 C 3.416,9.173 3.83,7.685 4.001,5.685 4.343,1.61 3.076,0.71 0,0 M 15.174,32.52 C 10.637,47.401 6.964,51.074 -2.074,48.987 -10.041,47.148 -14.57,43.001 -18.37,28.446 -22.103,14.149 -26.229,-6.281 -29.547,-29.409 l 13.153,3.037 c 0.244,1.829 0.683,3.976 1.317,7.245 0.683,3.294 2.464,5.648 6.002,6.465 l 10.246,2.366 c 2.739,0.632 5.245,-1.536 6.123,-5.195 0.586,-2.441 1.342,-5.901 1.806,-8.218 l 17.419,4.022 C 24.396,-2.635 19.688,17.736 15.174,32.52"
       style="fill:#000000;fill-opacity:1;fill-rule:nonzero;stroke:none"
       transform="matrix(1.3333333,0,0,-1.3333333,164.62467,358.17813)"
       clip-path="url(#clipPath20)" />
    <path
       id="path21"
       d="m 0,0 c -5.416,-1.324 -8.539,0.098 -8.539,4.636 v 16.419 c 0,4.637 2.562,7.563 7.661,8.221 C 9.344,30.594 13.955,24.616 13.955,16.834 13.955,10.345 10.125,2.476 0,0 M -33.985,52.966 V -49.867 l 25.47,5.881 v 24.152 c 0,4.416 1.098,6.611 3.733,7.075 23.737,4.176 40.645,16.11 40.645,40.596 0,26.888 -28.886,41.352 -69.848,25.129"
       style="fill:#000000;fill-opacity:1;fill-rule:nonzero;stroke:none"
       transform="matrix(1.3333333,0,0,-1.3333333,82.719067,339.0832)"
       clip-path="url(#clipPath22)" />
    <path
       id="path23"
       d="m 0,0 c -7.026,-23.201 -11.003,-34.544 -14.467,-44.108 -5.904,-16.272 -12.027,-9.88 -14.882,-5.343 -3.318,5.319 -7.831,15.663 -15.662,34.618 l -19.346,-4.466 v -91.067 l 16.052,3.706 c -0.122,14.516 0.122,24.372 0.903,28.202 0.708,3.44 2.781,3.928 4.88,0.513 1.731,-2.806 4.463,-8.881 9.904,-21.371 l 10.756,2.483 c 5.928,15.931 9.127,23.962 11.396,27.89 1.829,3.196 5.319,5.44 6.367,-0.464 0.805,-4.464 0.732,-16.576 0.707,-31.409 l 16.639,3.841 V 3.059 Z"
       style="fill:#000000;fill-opacity:1;fill-rule:nonzero;stroke:none"
       transform="matrix(1.3333333,0,0,-1.3333333,522.956,4.0778667)"
       clip-path="url(#clipPath24)" />
    <path
       id="path25"
       d="m 0,0 c -0.073,-12.442 -0.049,-23.786 -0.586,-27.934 -1.244,-9.904 -18.175,-14.369 -19.005,-5.245 -0.389,4.294 -0.731,9.967 -0.731,22.628 l -13.687,-3.16 v -83.435 l 17.444,4.028 c 0,13.247 0,19.003 0.219,23.54 0.61,11.954 18.566,14.662 20.127,4.269 0.707,-4.733 0.829,-7.001 0.829,-17.687 l 13.906,3.211 v 84.06 z"
       style="fill:#000000;fill-opacity:1;fill-rule:nonzero;stroke:none"
       transform="matrix(1.3333333,0,0,-1.3333333,399.54453,67.475733)"
       clip-path="url(#clipPath26)" />
    <path
       id="path27"
       d="m 0,0 v -33.583 l 9.734,2.247 c 5.904,1.363 8.343,0.594 8.343,-9.856 V -84.33 l 15.98,3.689 v 39.546 c 0,17.566 1.649,21.999 10.344,24.006 l 7.953,1.836 v 27.34 z"
       style="fill:#000000;fill-opacity:1;fill-rule:nonzero;stroke:none"
       transform="matrix(1.3333333,0,0,-1.3333333,276.13187,76.664533)"
       clip-path="url(#clipPath28)" />
    <path
       id="path29"
       d="m 0,0 -14.931,-3.447 c 0,0 0.22,-15.369 -0.365,-26.689 -0.854,-16.565 -17.541,-20.127 -18.883,-4.367 -0.683,8.271 -1,24.754 -1,24.754 l -18.566,-4.286 v -13.442 c 0,-32.081 20.859,-36.033 31.764,-26.884 0.659,0.561 1.317,0.902 1.854,0.658 0.61,-0.268 0.585,-0.927 0.342,-2.147 -0.659,-3.195 -5.392,-9.514 -14.955,-12.076 -7.295,-1.951 -14.443,-3.182 -18.005,-3.743 v -22.263 c 16.053,2.074 34.643,6.66 43.304,19.98 4.513,6.953 6.879,14.297 8.05,25.177 C 0.439,-31.648 0,0 0,0"
       style="fill:#000000;fill-opacity:1;fill-rule:nonzero;stroke:none"
       transform="matrix(1.3333333,0,0,-1.3333333,267.4144,106.2388)"
       clip-path="url(#clipPath30)" />
    <path
       id="path31"
       d="m 0,0 c -0.073,-12.442 -0.049,-23.786 -0.586,-27.934 -1.244,-9.904 -18.175,-14.369 -19.004,-5.245 -0.39,4.294 -0.732,9.967 -0.732,22.628 l -13.687,-3.159 v -83.435 l 17.444,4.027 c 0,13.247 0,19.003 0.219,23.54 0.61,11.954 18.566,14.662 20.127,4.269 0.707,-4.732 0.829,-7.001 0.829,-17.687 l 13.906,3.211 v 84.06 z"
       style="fill:#000000;fill-opacity:1;fill-rule:nonzero;stroke:none"
       transform="matrix(1.3333333,0,0,-1.3333333,158.9332,104.39373)"
       clip-path="url(#clipPath32)" />
    <path
       id="path33"
       d="m 0,0 c -6.66,-1.561 -10.368,2.147 -10.368,10.076 v 7.66 c -10e-4,5.525 1.073,10.32 6.001,11.881 C 9.941,34.15 19.907,27.982 19.907,18.297 19.907,9.246 12.979,3.05 0,0 m 48.231,33.105 c 0,35.204 -34.447,45.426 -76.579,30.374 v -113.64 l 17.955,4.145 v 28.451 c 0,4.342 3.196,3.586 6.148,0.951 2.074,-1.854 14.54,-13.93 23.249,-22.615 l 27.412,6.329 c 0,0 -23.898,24.41 -26.655,26.825 16.052,6.002 28.47,21.641 28.47,39.18"
       style="fill:#000000;fill-opacity:1;fill-rule:nonzero;stroke:none"
       transform="matrix(1.3333333,0,0,-1.3333333,37.797867,171.30387)"
       clip-path="url(#clipPath34)" />
  </g>
</svg>
