<?xml version="1.0" encoding="UTF-8" standalone="no"?>
<!-- Created with Inkscape (http://www.inkscape.org/) -->

<svg
   version="1.1"
   id="svg1"
   width="666.66669"
   height="480.77066"
   viewBox="0 0 666.66669 480.77066"
   sodipodi:docname="Rhythm Paradise Arcade Logo (Wordmark).ai"
   xmlns:inkscape="http://www.inkscape.org/namespaces/inkscape"
   xmlns:sodipodi="http://sodipodi.sourceforge.net/DTD/sodipodi-0.dtd"
   xmlns="http://www.w3.org/2000/svg"
   xmlns:svg="http://www.w3.org/2000/svg">
  <defs
     id="defs1">
    <clipPath
       clipPathUnits="userSpaceOnUse"
       id="clipPath2">
      <path
         d="M 0,360.578 H 500 V 0 H 0 Z"
         transform="translate(-499.99961,-82.478902)"
         id="path2" />
    </clipPath>
    <clipPath
       clipPathUnits="userSpaceOnUse"
       id="clipPath4">
      <path
         d="M 0,360.578 H 500 V 0 H 0 Z"
         transform="translate(-462.65681,-142.82171)"
         id="path4" />
    </clipPath>
    <clipPath
       clipPathUnits="userSpaceOnUse"
       id="clipPath6">
      <path
         d="M 0,360.578 H 500 V 0 H 0 Z"
         transform="translate(-430.58851,-204.05951)"
         id="path6" />
    </clipPath>
    <clipPath
       clipPathUnits="userSpaceOnUse"
       id="clipPath8">
      <path
         d="M 0,360.578 H 500 V 0 H 0 Z"
         transform="translate(-387.14611,-150.6762)"
         id="path8" />
    </clipPath>
    <clipPath
       clipPathUnits="userSpaceOnUse"
       id="clipPath10">
      <path
         d="M 0,360.578 H 500 V 0 H 0 Z"
         transform="translate(-330.95471,-145.9691)"
         id="path10" />
    </clipPath>
    <clipPath
       clipPathUnits="userSpaceOnUse"
       id="clipPath12">
      <path
         d="M 0,360.578 H 500 V 0 H 0 Z"
         transform="translate(-289.21351,-134.4506)"
         id="path12" />
    </clipPath>
    <clipPath
       clipPathUnits="userSpaceOnUse"
       id="clipPath14">
      <path
         d="M 0,360.578 H 500 V 0 H 0 Z"
         transform="translate(-238.65391,-122.78261)"
         id="path14" />
    </clipPath>
    <clipPath
       clipPathUnits="userSpaceOnUse"
       id="clipPath16">
      <path
         d="M 0,360.578 H 500 V 0 H 0 Z"
         transform="translate(-173.4439,-128.6439)"
         id="path16" />
    </clipPath>
    <clipPath
       clipPathUnits="userSpaceOnUse"
       id="clipPath18">
      <path
         d="M 0,360.578 H 500 V 0 H 0 Z"
         transform="translate(-125.3712,-87.805102)"
         id="path18" />
    </clipPath>
    <clipPath
       clipPathUnits="userSpaceOnUse"
       id="clipPath20">
      <path
         d="M 0,360.578 H 500 V 0 H 0 Z"
         transform="translate(-62.995202,-102.3471)"
         id="path20" />
    </clipPath>
    <clipPath
       clipPathUnits="userSpaceOnUse"
       id="clipPath22">
      <path
         d="M 0,360.578 H 500 V 0 H 0 Z"
         transform="translate(-398.26131,-357.47301)"
         id="path22" />
    </clipPath>
    <clipPath
       clipPathUnits="userSpaceOnUse"
       id="clipPath24">
      <path
         d="M 0,360.578 H 500 V 0 H 0 Z"
         transform="translate(-304.27601,-309.19131)"
         id="path24" />
    </clipPath>
    <clipPath
       clipPathUnits="userSpaceOnUse"
       id="clipPath26">
      <path
         d="M 0,360.578 H 500 V 0 H 0 Z"
         transform="translate(-210.29061,-302.19421)"
         id="path26" />
    </clipPath>
    <clipPath
       clipPathUnits="userSpaceOnUse"
       id="clipPath28">
      <path
         d="M 0,360.578 H 500 V 0 H 0 Z"
         transform="translate(-203.6515,-279.67181)"
         id="path28" />
    </clipPath>
    <clipPath
       clipPathUnits="userSpaceOnUse"
       id="clipPath30">
      <path
         d="M 0,360.578 H 500 V 0 H 0 Z"
         transform="translate(-121.03671,-281.07651)"
         id="path30" />
    </clipPath>
    <clipPath
       clipPathUnits="userSpaceOnUse"
       id="clipPath32">
      <path
         d="M 0,360.578 H 500 V 0 H 0 Z"
         transform="translate(-28.785201,-230.121)"
         id="path32" />
    </clipPath>
  </defs>
  <sodipodi:namedview
     id="namedview1"
     pagecolor="#ffffff"
     bordercolor="#000000"
     borderopacity="0.25"
     inkscape:showpageshadow="2"
     inkscape:pageopacity="0.0"
     inkscape:pagecheckerboard="0"
     inkscape:deskcolor="#d1d1d1">
    <inkscape:page
       x="0"
       y="0"
       inkscape:label="1"
       id="page1"
       width="666.66669"
       height="480.77066"
       margin="0"
       bleed="0" />
  </sodipodi:namedview>
  <g
     id="layer-MC0"
     inkscape:groupmode="layer"
     inkscape:label="Layer 1">
    <path
       id="path1"
       d="M 0,0 -47.547,-10.977 V 46.015 L 0,56.992 V 46.571 L -35.091,38.47 V 26.095 l 28.822,6.653 V 22.326 L -35.091,15.672 V 2.32 L 0,10.422 Z m -70.182,26.785 c 0,0.979 -0.34,1.739 -1.017,2.29 -0.68,0.548 -1.507,0.711 -2.484,0.486 L -97.62,24.034 v -36.15 l 23.937,5.526 c 0.977,0.226 1.804,0.769 2.484,1.632 0.677,0.861 1.017,1.782 1.017,2.76 z m 12.456,-27.736 c 0,-1.629 -0.326,-3.265 -0.976,-4.907 -0.652,-1.644 -1.534,-3.163 -2.647,-4.56 -1.113,-1.396 -2.429,-2.61 -3.949,-3.639 -1.519,-1.031 -3.148,-1.745 -4.884,-2.145 l -39.812,-9.192 v 56.992 l 39.812,9.191 c 1.628,0.376 3.202,0.413 4.722,0.113 1.52,-0.3 2.85,-0.876 3.989,-1.724 1.14,-0.851 2.048,-1.944 2.728,-3.279 0.679,-1.336 1.017,-2.872 1.017,-4.609 z m -96.884,-12.028 17.26,3.986 -8.549,19.112 -0.081,-0.018 z m 26.542,-16.587 -5.049,11.128 -25.809,-5.959 -4.966,-13.44 -12.376,-2.857 24.099,62.555 12.376,2.858 24.101,-51.428 z m -89.315,-20.621 c -1.629,-0.376 -3.188,-0.41 -4.681,-0.104 -1.494,0.308 -2.808,0.886 -3.948,1.735 -1.141,0.849 -2.05,1.942 -2.728,3.279 -0.679,1.335 -1.018,2.872 -1.018,4.609 v 32.24 c 0,1.629 0.325,3.264 0.978,4.908 0.65,1.643 1.532,3.164 2.644,4.56 1.114,1.397 2.416,2.605 3.909,3.63 1.493,1.022 3.107,1.734 4.844,2.136 l 25.81,5.958 c 1.629,0.376 3.188,0.41 4.681,0.104 1.493,-0.307 2.822,-0.883 3.99,-1.725 1.166,-0.844 2.088,-1.949 2.767,-3.31 0.679,-1.363 1.019,-2.887 1.019,-4.568 v -4.398 l -12.457,-2.875 v 2.85 c 0,0.976 -0.34,1.725 -1.018,2.249 -0.68,0.519 -1.507,0.67 -2.483,0.444 l -18.808,-4.343 c -0.976,-0.225 -1.805,-0.77 -2.483,-1.631 -0.679,-0.864 -1.018,-1.782 -1.018,-2.76 v -28.984 c 0,-0.977 0.339,-1.741 1.018,-2.289 0.678,-0.549 1.507,-0.711 2.483,-0.485 l 18.808,4.342 c 0.976,0.225 1.803,0.756 2.483,1.591 0.678,0.835 1.018,1.742 1.018,2.718 v 2.851 l 12.457,2.875 v -4.397 c 0,-1.737 -0.34,-3.43 -1.019,-5.079 -0.679,-1.65 -1.601,-3.166 -2.767,-4.548 -1.168,-1.381 -2.497,-2.57 -3.99,-3.566 -1.493,-0.996 -3.052,-1.682 -4.681,-2.058 z m -33.706,35.207 c 0,0.977 -0.34,1.74 -1.017,2.289 -0.679,0.548 -1.506,0.712 -2.484,0.486 l -23.936,-5.526 v -15.064 l 23.936,5.526 c 0.978,0.226 1.805,0.77 2.484,1.632 0.677,0.863 1.017,1.783 1.017,2.76 z m 0,14.003 c 1.628,0.376 3.189,0.411 4.682,0.105 1.492,-0.308 2.809,-0.886 3.949,-1.734 1.14,-0.851 2.047,-1.944 2.727,-3.279 0.678,-1.337 1.017,-2.873 1.017,-4.61 v -11.153 c 0,-1.629 -0.312,-3.262 -0.935,-4.898 -0.625,-1.638 -1.535,-3.164 -2.729,-4.579 -1.193,-1.415 -2.618,-2.653 -4.273,-3.714 -1.657,-1.062 -3.542,-1.835 -5.659,-2.324 l 14.33,-17.778 -13.435,-3.102 -14.329,17.778 -12.782,-2.951 v -21.087 l -12.456,-2.876 v 56.992 z m -84.511,-53.787 17.261,3.986 -8.55,19.113 -0.08,-0.019 z m 26.542,-16.588 -5.048,11.128 -25.809,-5.958 -4.966,-13.44 -12.376,-2.857 24.099,62.555 12.376,2.858 24.1,-51.428 z"
       style="fill:#000000;fill-opacity:1;fill-rule:nonzero;stroke:none"
       transform="matrix(1.3333333,0,0,-1.3333333,666.66613,370.7988)"
       clip-path="url(#clipPath2)" />
    <path
       id="path3"
       d="M 0,0 V 9.196 L -2.312,-0.533 -4.815,-1.111 -7.072,7.563 V -1.633 L -9.439,-2.179 V 8.83 l 3.697,0.854 2.23,-8.218 0.028,0.007 2.174,9.234 3.65,0.843 V 0.54 Z m -17.089,-3.945 v 9.056 l -3.807,-0.879 v 1.947 l 10.071,2.325 V 6.558 L -14.496,5.71 v -9.057 z"
       style="fill:#000000;fill-opacity:1;fill-rule:nonzero;stroke:none"
       transform="matrix(1.3333333,0,0,-1.3333333,616.87573,290.34173)"
       clip-path="url(#clipPath4)" />
    <path
       id="path5"
       d="M 0,0 C 5.326,2.006 16.474,5.004 25.837,7.035 V 36.021 L -20.957,25.218 v -77.472 l 46.72,10.786 v 12.906 c -6.144,-1.61 -18.802,-3.988 -24.376,-4.93 -6.787,-1.139 -7.753,7.506 -0.247,9.984 4.31,1.412 12.212,3.294 18.381,5.028 v 9.938 C 13.897,-9.681 6.292,-10.999 0.297,-11.841 -7.135,-12.906 -8.423,-3.171 0,0"
       style="fill:#000000;fill-opacity:1;fill-rule:nonzero;stroke:none"
       transform="matrix(1.3333333,0,0,-1.3333333,574.118,208.69133)"
       clip-path="url(#clipPath6)" />
    <path
       id="path7"
       d="m 0,0 c -0.274,2.574 -4.727,3.157 -11.662,4.819 -12.126,3.012 -19.632,10.156 -18.865,22.705 0.816,13.546 7.673,22.993 43.969,29.157 L 13.441,28.503 C 0.345,26.864 -6.887,24.415 -9.953,21.906 c -3.271,-2.654 -3.08,-7.001 1.64,-8.578 2.052,-0.684 8.116,-2.71 11.781,-3.939 7.032,-2.344 10.473,-5.939 11.19,-12.3 2.027,-17.947 -30.457,-22.654 -43.849,-24.62 v 15.945 C -13.146,-8.353 0.619,-5.52 0,0"
       style="fill:#000000;fill-opacity:1;fill-rule:nonzero;stroke:none"
       transform="matrix(1.3333333,0,0,-1.3333333,516.1948,279.86907)"
       clip-path="url(#clipPath8)" />
    <path
       id="path9"
       d="m 0,0 v 69.064 l 17.465,4.033 V 4.032 Z"
       style="fill:#000000;fill-opacity:1;fill-rule:nonzero;stroke:none"
       transform="matrix(1.3333333,0,0,-1.3333333,441.27293,286.1452)"
       clip-path="url(#clipPath10)" />
    <path
       id="path11"
       d="m 0,0 c -4.806,-1.112 -6.886,0.495 -6.886,6.118 v 17.737 c 0,4.087 -0.212,7.353 3.666,8.448 C 5.203,34.681 14.616,30.172 15.508,21.007 16.548,10.354 10.622,2.452 0,0 m -18.728,59.131 v -75.332 c 36.415,5.326 52.27,19.396 51.874,47.364 -0.347,24.252 -24.425,37.579 -51.874,27.968"
       style="fill:#000000;fill-opacity:1;fill-rule:nonzero;stroke:none"
       transform="matrix(1.3333333,0,0,-1.3333333,385.618,301.5032)"
       clip-path="url(#clipPath12)" />
    <path
       id="path13"
       d="m 0,0 -8.794,-2.03 c -2.21,-0.51 -3.468,0.866 -3.195,3.938 0.247,2.873 1.535,8.967 2.031,11.048 1.04,4.311 3.22,6.416 5.723,6.788 4.037,0.644 5.994,-2.304 7.554,-9.736 C 3.469,9.314 3.89,7.804 4.062,5.772 4.409,1.636 3.124,0.722 0,0 m 15.408,33.021 c -4.607,15.112 -8.337,18.84 -17.513,16.722 -8.09,-1.867 -12.689,-6.079 -16.548,-20.858 -3.79,-14.517 -7.952,-35.256 -11.321,-58.74 l 13.327,3.077 c 0.248,1.858 0.694,4.038 1.338,7.357 0.694,3.345 2.502,5.735 6.094,6.565 2.957,0.682 8.461,1.954 10.404,2.402 2.782,0.641 5.327,-1.56 6.218,-5.275 0.594,-2.478 1.363,-5.992 1.833,-8.345 l 17.688,4.083 C 24.772,-2.675 19.991,18.01 15.408,33.021"
       style="fill:#000000;fill-opacity:1;fill-rule:nonzero;stroke:none"
       transform="matrix(1.3333333,0,0,-1.3333333,318.2052,317.06053)"
       clip-path="url(#clipPath14)" />
    <path
       id="path15"
       d="m 0,0 c -4.537,-1.063 -7.063,1.464 -7.063,6.867 v 5.22 c 0,3.765 0.731,7.032 4.088,8.096 9.748,3.088 16.537,-1.115 16.537,-7.715 C 13.562,6.3 8.842,2.078 0,0 m 32.858,22.558 c 0,23.989 -23.661,30.828 -52.17,20.701 v -75.473 l 12.232,2.824 v 17.421 c 0,2.959 2.177,2.444 4.188,0.648 1.413,-1.264 9.906,-9.493 15.839,-15.412 l 18.674,4.311 c 0,0 -16.281,16.636 -18.159,18.281 10.936,4.089 19.396,14.746 19.396,26.699"
       style="fill:#000000;fill-opacity:1;fill-rule:nonzero;stroke:none"
       transform="matrix(1.3333333,0,0,-1.3333333,231.25853,309.24547)"
       clip-path="url(#clipPath16)" />
    <path
       id="path17"
       d="m 0,0 -8.794,-2.03 c -2.21,-0.511 -3.468,0.866 -3.196,3.937 0.248,2.874 1.536,8.968 2.032,11.049 1.04,4.31 3.22,6.416 5.722,6.787 4.038,0.645 5.995,-2.304 7.555,-9.735 C 3.468,9.314 3.889,7.803 4.062,5.771 4.41,1.635 3.124,0.721 0,0 m 15.408,33.021 c -4.607,15.111 -8.337,18.84 -17.513,16.721 -8.09,-1.867 -12.689,-6.079 -16.548,-20.858 -3.79,-14.516 -7.952,-35.256 -11.321,-58.739 l 13.327,3.077 c 0.248,1.857 0.694,4.037 1.338,7.357 0.694,3.344 2.502,5.734 6.094,6.565 2.957,0.682 8.461,1.953 10.404,2.401 2.781,0.642 5.326,-1.56 6.218,-5.275 0.594,-2.478 1.363,-5.992 1.833,-8.345 l 17.687,4.084 c -2.155,17.315 -6.936,38 -11.519,53.012"
       style="fill:#000000;fill-opacity:1;fill-rule:nonzero;stroke:none"
       transform="matrix(1.3333333,0,0,-1.3333333,167.1616,363.6972)"
       clip-path="url(#clipPath18)" />
    <path
       id="path19"
       d="m 0,0 c -5.5,-1.337 -8.67,0.1 -8.67,4.707 v 16.672 c 0,4.709 2.601,7.68 7.778,8.349 C 9.488,31.065 14.17,24.996 14.17,17.094 14.17,10.504 10.281,2.527 0,0 m -34.508,53.782 -10e-4,-104.418 25.863,5.971 v 24.525 c 0,4.484 1.115,6.713 3.791,7.184 24.102,4.24 41.271,16.358 41.271,41.222 0,27.302 -29.331,41.99 -70.924,25.516"
       style="fill:#000000;fill-opacity:1;fill-rule:nonzero;stroke:none"
       transform="matrix(1.3333333,0,0,-1.3333333,83.9936,344.30787)"
       clip-path="url(#clipPath20)" />
    <path
       id="path21"
       d="m 0,0 c -7.135,-23.558 -11.173,-35.077 -14.69,-44.788 -5.995,-16.523 -12.213,-10.033 -15.111,-5.425 -3.369,5.4 -7.952,15.904 -15.904,35.151 l -19.644,-4.535 -10e-4,-92.469 16.301,3.763 c -0.124,14.739 0.124,24.747 0.916,28.636 0.719,3.493 2.824,3.988 4.955,0.521 1.759,-2.85 4.533,-9.018 10.057,-21.701 l 10.922,2.521 c 6.019,16.177 9.267,24.332 11.571,28.32 1.858,3.245 5.4,5.525 6.466,-0.471 0.817,-4.533 0.743,-16.831 0.719,-31.893 l 16.894,3.901 V 3.105 Z"
       style="fill:#000000;fill-opacity:1;fill-rule:nonzero;stroke:none"
       transform="matrix(1.3333333,0,0,-1.3333333,531.01507,4.14)"
       clip-path="url(#clipPath22)" />
    <path
       id="path23"
       d="m 0,0 c -0.074,-12.633 -0.05,-24.152 -0.595,-28.364 -1.263,-10.057 -18.455,-14.591 -19.298,-5.325 -0.395,4.359 -0.743,10.119 -0.743,22.976 l -13.896,-3.208 v -84.721 l 17.712,4.089 c 0,13.451 0,19.296 0.222,23.904 0.619,12.138 18.852,14.887 20.437,4.335 0.719,-4.806 0.843,-7.11 0.843,-17.96 l 14.12,3.259 V 4.341 Z"
       style="fill:#000000;fill-opacity:1;fill-rule:nonzero;stroke:none"
       transform="matrix(1.3333333,0,0,-1.3333333,405.70133,68.5156)"
       clip-path="url(#clipPath24)" />
    <path
       id="path25"
       d="m 0,0 v -34.101 l 9.884,2.282 c 5.995,1.383 8.471,0.603 8.471,-10.008 V -85.63 l 16.226,3.746 10e-4,40.156 c 0,17.836 1.674,22.337 10.503,24.375 l 8.076,1.865 v 27.761 z"
       style="fill:#000000;fill-opacity:1;fill-rule:nonzero;stroke:none"
       transform="matrix(1.3333333,0,0,-1.3333333,280.38747,77.845067)"
       clip-path="url(#clipPath26)" />
    <path
       id="path27"
       d="m 0,0 -15.161,-3.5 c 0,0 0.223,-15.606 -0.371,-27.101 -0.867,-16.82 -17.811,-20.437 -19.174,-4.434 -0.693,8.398 -1.015,25.136 -1.015,25.136 l -18.852,-4.352 V -27.9 c 0,-32.576 21.18,-36.589 32.253,-27.299 0.669,0.569 1.338,0.916 1.883,0.668 0.619,-0.272 0.595,-0.941 0.347,-2.179 -0.669,-3.246 -5.475,-9.662 -15.185,-12.263 -7.408,-1.982 -14.665,-3.232 -18.282,-3.801 v -22.605 c 16.3,2.105 35.176,6.762 43.97,20.288 4.583,7.06 6.986,14.516 8.175,25.564 C 0.446,-32.137 0,0 0,0"
       style="fill:#000000;fill-opacity:1;fill-rule:nonzero;stroke:none"
       transform="matrix(1.3333333,0,0,-1.3333333,271.53533,107.87493)"
       clip-path="url(#clipPath28)" />
    <path
       id="path29"
       d="m 0,0 c -0.074,-12.634 -0.05,-24.152 -0.595,-28.364 -1.263,-10.057 -18.455,-14.591 -19.297,-5.326 -0.397,4.36 -0.743,10.12 -0.743,22.977 l -13.897,-3.209 -0.001,-84.721 17.713,4.09 c 0,13.451 0,19.296 0.222,23.903 0.62,12.139 18.852,14.888 20.437,4.335 0.719,-4.806 0.843,-7.109 0.843,-17.959 l 14.12,3.259 V 4.341 Z"
       style="fill:#000000;fill-opacity:1;fill-rule:nonzero;stroke:none"
       transform="matrix(1.3333333,0,0,-1.3333333,161.38227,106.002)"
       clip-path="url(#clipPath30)" />
    <path
       id="path31"
       d="m 0,0 c -6.763,-1.585 -10.528,2.18 -10.528,10.23 v 7.779 c 0,5.61 1.09,10.479 6.094,12.064 14.529,4.603 24.648,-1.66 24.648,-11.494 C 20.214,9.388 13.179,3.096 0,0 m 48.975,33.615 c 0,35.746 -34.978,46.126 -77.76,30.842 V -50.935 l 18.232,4.21 v 28.889 c 0,4.409 3.245,3.642 6.242,0.966 2.106,-1.882 14.765,-14.145 23.608,-22.963 l 27.834,6.425 c 0,0 -24.266,24.787 -27.066,27.24 16.301,6.093 28.91,21.974 28.91,39.783"
       style="fill:#000000;fill-opacity:1;fill-rule:nonzero;stroke:none"
       transform="matrix(1.3333333,0,0,-1.3333333,38.380267,173.94267)"
       clip-path="url(#clipPath32)" />
  </g>
</svg>
