<?xml version="1.0" encoding="UTF-8" standalone="no"?>
<!-- Created with Inkscape (http://www.inkscape.org/) -->

<svg
   version="1.1"
   id="svg1"
   width="666.66669"
   height="483.67599"
   viewBox="0 0 666.66669 483.67599"
   sodipodi:docname="Rhythm Paradise Arcade (POR) Logo (Wordmark).ai"
   xmlns:inkscape="http://www.inkscape.org/namespaces/inkscape"
   xmlns:sodipodi="http://sodipodi.sourceforge.net/DTD/sodipodi-0.dtd"
   xmlns="http://www.w3.org/2000/svg"
   xmlns:svg="http://www.w3.org/2000/svg">
  <defs
     id="defs1">
    <clipPath
       clipPathUnits="userSpaceOnUse"
       id="clipPath2">
      <path
         d="M 0,362.757 H 500 V 0 H 0 Z"
         transform="translate(-489.85981,-66.012002)"
         id="path2" />
    </clipPath>
    <clipPath
       clipPathUnits="userSpaceOnUse"
       id="clipPath4">
      <path
         d="M 0,362.757 H 500 V 0 H 0 Z"
         transform="translate(-494.85491,-87.519805)"
         id="path4" />
    </clipPath>
    <clipPath
       clipPathUnits="userSpaceOnUse"
       id="clipPath6">
      <path
         d="M 0,362.757 H 500 V 0 H 0 Z"
         transform="translate(-457.89591,-147.2415)"
         id="path6" />
    </clipPath>
    <clipPath
       clipPathUnits="userSpaceOnUse"
       id="clipPath8">
      <path
         d="M 0,362.757 H 500 V 0 H 0 Z"
         transform="translate(-426.15771,-207.84891)"
         id="path8" />
    </clipPath>
    <clipPath
       clipPathUnits="userSpaceOnUse"
       id="clipPath10">
      <path
         d="M 0,362.757 H 500 V 0 H 0 Z"
         transform="translate(-383.16161,-155.0149)"
         id="path10" />
    </clipPath>
    <clipPath
       clipPathUnits="userSpaceOnUse"
       id="clipPath12">
      <path
         d="M 0,362.757 H 500 V 0 H 0 Z"
         transform="translate(-327.54931,-150.3567)"
         id="path12" />
    </clipPath>
    <clipPath
       clipPathUnits="userSpaceOnUse"
       id="clipPath14">
      <path
         d="M 0,362.757 H 500 V 0 H 0 Z"
         transform="translate(-286.23771,-138.95631)"
         id="path14" />
    </clipPath>
    <clipPath
       clipPathUnits="userSpaceOnUse"
       id="clipPath16">
      <path
         d="M 0,362.757 H 500 V 0 H 0 Z"
         transform="translate(-236.2123,-127.4124)"
         id="path16" />
    </clipPath>
    <clipPath
       clipPathUnits="userSpaceOnUse"
       id="clipPath18">
      <path
         d="M 0,362.757 H 500 V 0 H 0 Z"
         transform="translate(-171.6591,-133.20141)"
         id="path18" />
    </clipPath>
    <clipPath
       clipPathUnits="userSpaceOnUse"
       id="clipPath20">
      <path
         d="M 0,362.757 H 500 V 0 H 0 Z"
         transform="translate(-124.081,-92.790302)"
         id="path20" />
    </clipPath>
    <clipPath
       clipPathUnits="userSpaceOnUse"
       id="clipPath22">
      <path
         d="M 0,362.757 H 500 V 0 H 0 Z"
         transform="translate(-62.347102,-107.18391)"
         id="path22" />
    </clipPath>
    <clipPath
       clipPathUnits="userSpaceOnUse"
       id="clipPath24">
      <path
         d="M 0,362.757 H 500 V 0 H 0 Z"
         transform="translate(-394.16251,-359.68381)"
         id="path24" />
    </clipPath>
    <clipPath
       clipPathUnits="userSpaceOnUse"
       id="clipPath26">
      <path
         d="M 0,362.757 H 500 V 0 H 0 Z"
         transform="translate(-301.14501,-311.89921)"
         id="path26" />
    </clipPath>
    <clipPath
       clipPathUnits="userSpaceOnUse"
       id="clipPath28">
      <path
         d="M 0,362.757 H 500 V 0 H 0 Z"
         transform="translate(-208.12641,-304.97341)"
         id="path28" />
    </clipPath>
    <clipPath
       clipPathUnits="userSpaceOnUse"
       id="clipPath30">
      <path
         d="M 0,362.757 H 500 V 0 H 0 Z"
         transform="translate(-201.55561,-282.6829)"
         id="path30" />
    </clipPath>
    <clipPath
       clipPathUnits="userSpaceOnUse"
       id="clipPath32">
      <path
         d="M 0,362.757 H 500 V 0 H 0 Z"
         transform="translate(-119.791,-284.07351)"
         id="path32" />
    </clipPath>
    <clipPath
       clipPathUnits="userSpaceOnUse"
       id="clipPath34">
      <path
         d="M 0,362.757 H 500 V 0 H 0 Z"
         transform="translate(-28.489201,-233.6419)"
         id="path34" />
    </clipPath>
  </defs>
  <sodipodi:namedview
     id="namedview1"
     pagecolor="#ffffff"
     bordercolor="#000000"
     borderopacity="0.25"
     inkscape:showpageshadow="2"
     inkscape:pageopacity="0.0"
     inkscape:pagecheckerboard="0"
     inkscape:deskcolor="#d1d1d1">
    <inkscape:page
       x="0"
       y="0"
       inkscape:label="1"
       id="page1"
       width="666.66669"
       height="483.67599"
       margin="0"
       bleed="0" />
  </sodipodi:namedview>
  <g
     id="layer-MC0"
     inkscape:groupmode="layer"
     inkscape:label="Layer 1">
    <path
       id="path1"
       d="M 0,0 C 0,0.826 -0.263,1.478 -0.787,1.953 -1.312,2.428 -1.952,2.579 -2.708,2.405 L -21.224,-1.87 v -12.74 l 18.516,4.274 c 0.756,0.175 1.396,0.62 1.921,1.339 C -0.263,-8.28 0,-7.507 0,-6.681 Z m 0,11.847 c 1.261,0.291 2.467,0.294 3.621,0.008 C 4.776,11.571 5.795,11.06 6.676,10.323 7.558,9.585 8.261,8.645 8.786,7.504 9.311,6.361 9.574,5.057 9.574,3.588 v -9.436 c 0,-1.377 -0.243,-2.754 -0.724,-4.127 -0.484,-1.376 -1.187,-2.65 -2.111,-3.828 -0.924,-1.176 -2.026,-2.201 -3.306,-3.07 -1.282,-0.87 -2.74,-1.493 -4.377,-1.871 l 11.085,-15.279 -10.393,-2.4 -11.084,15.279 -9.888,-2.282 v -17.839 l -9.636,-2.224 V 4.722 Z m -48.306,-22.999 c 0,0.826 -0.273,1.475 -0.818,1.946 -0.546,0.47 -1.197,0.618 -1.952,0.444 l -16.439,-3.795 c -0.714,-0.165 -1.344,-0.609 -1.889,-1.331 -0.547,-0.723 -0.82,-1.498 -0.82,-2.325 V -40.73 c 0,-0.828 0.273,-1.477 0.82,-1.947 0.545,-0.471 1.175,-0.624 1.889,-0.459 l 16.439,3.795 c 0.755,0.174 1.406,0.622 1.952,1.347 0.545,0.722 0.818,1.497 0.818,2.323 z M -48.368,0.68 c 1.26,0.291 2.476,0.297 3.652,0.016 1.176,-0.279 2.205,-0.788 3.087,-1.525 0.881,-0.738 1.584,-1.679 2.109,-2.819 0.525,-1.143 0.788,-2.448 0.788,-3.916 v -27.274 c 0,-1.378 -0.252,-2.756 -0.755,-4.135 -0.505,-1.38 -1.188,-2.649 -2.048,-3.813 -0.861,-1.163 -1.88,-2.167 -3.054,-3.012 -1.177,-0.847 -2.436,-1.423 -3.779,-1.733 l -21.856,-5.046 c -1.258,-0.29 -2.466,-0.294 -3.621,-0.009 -1.154,0.284 -2.173,0.795 -3.054,1.533 -0.882,0.737 -1.585,1.676 -2.11,2.819 -0.525,1.14 -0.787,2.446 -0.787,3.916 v 27.273 c 0,1.378 0.252,2.755 0.755,4.135 0.504,1.379 1.187,2.65 2.048,3.812 0.859,1.163 1.867,2.164 3.023,3.006 1.154,0.84 2.403,1.416 3.746,1.726 z m -48.559,-23.058 c 0,0.827 -0.273,1.476 -0.818,1.947 -0.547,0.47 -1.177,0.623 -1.89,0.458 l -19.209,-4.434 v -16.116 l 19.209,4.435 c 0.713,0.164 1.343,0.596 1.89,1.297 0.545,0.7 0.818,1.464 0.818,2.289 z m 0,11.847 c 1.26,0.291 2.466,0.294 3.622,0.01 1.155,-0.285 2.172,-0.796 3.054,-1.534 0.883,-0.737 1.585,-1.677 2.11,-2.818 0.525,-1.143 0.787,-2.448 0.787,-3.916 v -12.88 c 0,-1.377 -0.251,-2.756 -0.755,-4.135 -0.504,-1.38 -1.187,-2.649 -2.047,-3.812 -0.862,-1.163 -1.879,-2.167 -3.055,-3.013 -1.176,-0.846 -2.415,-1.418 -3.716,-1.719 l -21.917,-5.059 v -14.395 l -9.574,-2.21 v 48.211 z"
       style="fill:#000000;fill-opacity:1;fill-rule:nonzero;stroke:none"
       transform="matrix(1.3333333,0,0,-1.3333333,653.1464,395.66)"
       clip-path="url(#clipPath2)" />
    <path
       id="path3"
       d="M 0,0 -47.059,-10.864 V 45.541 L 0,56.405 V 46.092 L -34.73,38.073 V 25.825 l 28.525,6.586 V 22.096 L -34.73,15.511 V 2.296 L 0,10.313 Z m -69.46,26.509 c 0,0.969 -0.338,1.721 -1.008,2.266 -0.673,0.542 -1.491,0.704 -2.458,0.481 l -23.69,-5.47 v -35.778 l 23.69,5.47 c 0.967,0.223 1.785,0.76 2.458,1.615 0.67,0.852 1.008,1.763 1.008,2.731 z m 12.328,-27.45 c 0,-1.613 -0.323,-3.232 -0.967,-4.858 -0.645,-1.627 -1.518,-3.131 -2.619,-4.513 -1.101,-1.381 -2.405,-2.583 -3.908,-3.601 -1.505,-1.02 -3.116,-1.727 -4.834,-2.123 l -39.403,-9.097 v 56.405 l 39.403,9.097 c 1.611,0.372 3.168,0.409 4.673,0.112 1.504,-0.297 2.82,-0.867 3.948,-1.707 1.128,-0.841 2.026,-1.923 2.699,-3.245 0.672,-1.323 1.008,-2.842 1.008,-4.562 z m -95.889,-11.905 17.084,3.945 -8.461,18.916 -0.081,-0.019 z m 26.27,-16.417 -4.997,11.014 -25.543,-5.897 -4.915,-13.302 -12.248,-2.827 23.85,61.911 12.249,2.828 23.852,-50.899 z m -88.395,-20.407 c -1.612,-0.372 -3.156,-0.406 -4.634,-0.103 -1.478,0.303 -2.779,0.876 -3.907,1.716 -1.129,0.84 -2.029,1.921 -2.701,3.244 -0.671,1.323 -1.007,2.843 -1.007,4.563 v 31.909 c 0,1.612 0.323,3.23 0.968,4.857 0.644,1.626 1.517,3.13 2.618,4.512 1.102,1.383 2.391,2.579 3.869,3.593 1.477,1.013 3.074,1.717 4.794,2.114 l 25.543,5.897 c 1.613,0.373 3.157,0.406 4.634,0.103 1.477,-0.304 2.792,-0.874 3.948,-1.708 1.154,-0.835 2.067,-1.927 2.74,-3.275 0.672,-1.35 1.007,-2.857 1.007,-4.522 v -4.351 l -12.329,-2.847 v 2.822 c 0,0.966 -0.336,1.707 -1.006,2.225 -0.673,0.515 -1.492,0.663 -2.458,0.44 l -18.615,-4.297 c -0.966,-0.224 -1.786,-0.763 -2.458,-1.617 -0.671,-0.853 -1.006,-1.762 -1.006,-2.73 v -28.686 c 0,-0.967 0.335,-1.722 1.006,-2.265 0.672,-0.544 1.492,-0.704 2.458,-0.481 l 18.615,4.298 c 0.966,0.223 1.785,0.747 2.458,1.574 0.67,0.827 1.006,1.724 1.006,2.691 v 2.821 l 12.329,2.846 v -4.352 c 0,-1.719 -0.335,-3.395 -1.007,-5.027 -0.673,-1.634 -1.586,-3.134 -2.74,-4.5 -1.156,-1.368 -2.471,-2.544 -3.948,-3.53 -1.477,-0.986 -3.021,-1.664 -4.634,-2.037 z m -33.36,34.843 c 0,0.969 -0.336,1.723 -1.007,2.266 -0.672,0.542 -1.49,0.705 -2.458,0.481 l -23.69,-5.47 v -14.907 l 23.69,5.469 c 0.968,0.223 1.786,0.761 2.458,1.615 0.671,0.852 1.007,1.764 1.007,2.731 z m 0,13.86 c 1.611,0.372 3.155,0.406 4.634,0.104 1.476,-0.305 2.78,-0.877 3.908,-1.717 1.128,-0.842 2.027,-1.923 2.699,-3.245 0.671,-1.322 1.007,-2.843 1.007,-4.562 v -11.039 c 0,-1.612 -0.309,-3.228 -0.926,-4.847 -0.619,-1.622 -1.518,-3.131 -2.7,-4.532 -1.181,-1.401 -2.592,-2.626 -4.229,-3.675 -1.64,-1.052 -3.506,-1.817 -5.601,-2.301 l 14.182,-17.596 -13.296,-3.069 -14.182,17.595 -12.651,-2.92 v -20.871 l -12.328,-2.845 v 56.405 z m -83.641,-53.233 17.084,3.944 -8.462,18.916 -0.08,-0.018 z m 26.269,-16.417 -4.997,11.013 -25.542,-5.897 -4.916,-13.302 -12.248,-2.828 23.851,61.912 12.248,2.828 23.853,-50.899 z"
       style="fill:#000000;fill-opacity:1;fill-rule:nonzero;stroke:none"
       transform="matrix(1.3333333,0,0,-1.3333333,659.80653,366.98293)"
       clip-path="url(#clipPath4)" />
    <path
       id="path5"
       d="M 0,0 V 9.102 L -2.288,-0.528 -4.767,-1.101 -7,7.485 V -1.616 L -9.343,-2.157 V 8.739 l 3.66,0.845 2.206,-8.133 0.028,0.006 2.152,9.14 3.612,0.834 V 0.534 Z m -16.913,-3.905 v 8.964 l -3.769,-0.871 v 1.933 l 9.968,2.301 V 6.49 l -3.633,-0.839 v -8.964 z"
       style="fill:#000000;fill-opacity:1;fill-rule:nonzero;stroke:none"
       transform="matrix(1.3333333,0,0,-1.3333333,610.52787,287.354)"
       clip-path="url(#clipPath6)" />
    <path
       id="path7"
       d="M 0,0 C 5.271,1.986 16.304,4.952 25.571,6.963 V 35.65 L -20.742,24.958 v -76.675 l 46.313,10.693 v 12.773 c -6.081,-1.594 -18.682,-3.965 -24.199,-4.896 -6.717,-1.128 -7.674,7.428 -0.245,9.88 4.267,1.398 12.087,3.261 18.192,4.977 v 9.836 C 13.754,-9.582 6.227,-10.886 0.294,-11.719 -7.062,-12.773 -8.336,-3.138 0,0"
       style="fill:#000000;fill-opacity:1;fill-rule:nonzero;stroke:none"
       transform="matrix(1.3333333,0,0,-1.3333333,568.21027,206.54413)"
       clip-path="url(#clipPath8)" />
    <path
       id="path9"
       d="m 0,0 c -0.271,2.548 -4.678,3.125 -11.542,4.771 -12.001,2.979 -19.43,10.049 -18.671,22.47 0.808,13.406 7.595,22.756 43.517,28.856 V 28.209 C 0.342,26.588 -6.814,24.163 -9.851,21.68 c -3.236,-2.627 -3.047,-6.928 1.625,-8.489 2.03,-0.678 8.032,-2.682 11.659,-3.899 6.96,-2.319 10.365,-5.877 11.075,-12.174 2.005,-17.762 -30.144,-22.42 -43.398,-24.366 v 15.781 C -13.011,-8.267 0.613,-5.463 0,0"
       style="fill:#000000;fill-opacity:1;fill-rule:nonzero;stroke:none"
       transform="matrix(1.3333333,0,0,-1.3333333,510.88213,276.98947)"
       clip-path="url(#clipPath10)" />
    <path
       id="path11"
       d="m 0,0 v 68.354 l 17.284,3.99 V 3.99 Z"
       style="fill:#000000;fill-opacity:1;fill-rule:nonzero;stroke:none"
       transform="matrix(1.3333333,0,0,-1.3333333,436.7324,283.2004)"
       clip-path="url(#clipPath12)" />
    <path
       id="path13"
       d="m 0,0 c -4.757,-1.101 -6.815,0.49 -6.815,6.056 v 17.553 c 0,4.046 -0.21,7.278 3.627,8.361 C 5.148,34.323 14.465,29.861 15.348,20.79 16.377,10.248 10.513,2.427 0,0 m -18.535,58.522 v -74.556 c 36.04,5.27 51.731,19.196 51.339,46.876 -0.343,24.002 -24.174,37.193 -51.339,27.68"
       style="fill:#000000;fill-opacity:1;fill-rule:nonzero;stroke:none"
       transform="matrix(1.3333333,0,0,-1.3333333,381.65027,298.40093)"
       clip-path="url(#clipPath14)" />
    <path
       id="path15"
       d="m 0,0 -8.704,-2.01 c -2.187,-0.505 -3.432,0.858 -3.162,3.898 0.245,2.843 1.52,8.875 2.01,10.934 1.03,4.266 3.187,6.35 5.664,6.718 3.996,0.638 5.933,-2.28 7.477,-9.636 C 3.432,9.218 3.849,7.723 4.021,5.712 4.364,1.618 3.091,0.713 0,0 M 15.25,32.681 C 10.689,47.636 6.998,51.327 -2.084,49.23 -10.091,47.382 -14.643,43.214 -18.461,28.587 -22.213,14.22 -26.36,-6.312 -29.694,-29.555 l 13.218,3.052 c 0.246,1.838 0.687,3.996 1.324,7.281 0.687,3.31 2.476,5.676 6.031,6.497 l 10.298,2.377 c 2.752,0.636 5.271,-1.544 6.154,-5.22 0.588,-2.453 1.348,-5.93 1.814,-8.259 l 17.505,4.041 c -2.133,17.138 -6.865,37.609 -11.4,52.467"
       style="fill:#000000;fill-opacity:1;fill-rule:nonzero;stroke:none"
       transform="matrix(1.3333333,0,0,-1.3333333,314.94973,313.7928)"
       clip-path="url(#clipPath16)" />
    <path
       id="path17"
       d="m 0,0 c -4.49,-1.053 -6.991,1.447 -6.991,6.793 v 5.165 c 0,3.726 0.724,6.958 4.047,8.011 9.647,3.056 16.366,-1.103 16.366,-7.633 C 13.422,6.233 8.751,2.056 0,0 m 32.52,22.32 c 0,23.737 -23.226,30.629 -51.634,20.48 v -74.674 l 12.107,2.795 v 17.235 c 0,2.928 2.154,2.418 4.145,0.642 1.398,-1.25 9.803,-9.393 15.676,-15.248 l 18.481,4.266 c 0,0 -16.112,16.459 -17.971,18.087 C 24.147,-0.05 32.52,10.495 32.52,22.32"
       style="fill:#000000;fill-opacity:1;fill-rule:nonzero;stroke:none"
       transform="matrix(1.3333333,0,0,-1.3333333,228.8788,306.07413)"
       clip-path="url(#clipPath18)" />
    <path
       id="path19"
       d="m 0,0 -8.704,-2.009 c -2.187,-0.505 -3.432,0.857 -3.162,3.898 0.245,2.843 1.52,8.875 2.01,10.934 1.03,4.266 3.188,6.35 5.664,6.717 3.996,0.638 5.933,-2.279 7.477,-9.635 C 3.433,9.219 3.849,7.724 4.021,5.713 4.364,1.618 3.091,0.714 0,0 M 15.25,32.682 C 10.689,47.637 6.999,51.328 -2.084,49.23 -10.09,47.383 -14.642,43.214 -18.461,28.587 -22.212,14.221 -26.359,-6.312 -29.694,-29.555 l 13.218,3.052 c 0.246,1.839 0.687,3.996 1.325,7.282 0.686,3.31 2.476,5.676 6.031,6.497 l 10.297,2.377 c 2.753,0.636 5.271,-1.544 6.154,-5.221 0.588,-2.452 1.348,-5.929 1.814,-8.258 l 17.505,4.041 c -2.133,17.138 -6.864,37.609 -11.4,52.467"
       style="fill:#000000;fill-opacity:1;fill-rule:nonzero;stroke:none"
       transform="matrix(1.3333333,0,0,-1.3333333,165.44133,359.9556)"
       clip-path="url(#clipPath20)" />
    <path
       id="path21"
       d="m 0,0 c -5.443,-1.331 -8.582,0.098 -8.582,4.658 l 0.001,16.5 c 0,4.66 2.574,7.601 7.698,8.263 C 9.39,30.745 14.024,24.738 14.024,16.917 14.024,10.396 10.175,2.487 0,0 M -34.154,53.228 V -50.115 l 25.597,5.909 v 24.272 c 0,4.438 1.103,6.645 3.751,7.111 23.855,4.196 40.847,16.19 40.847,40.798 0,27.021 -29.029,41.557 -70.195,25.253"
       style="fill:#000000;fill-opacity:1;fill-rule:nonzero;stroke:none"
       transform="matrix(1.3333333,0,0,-1.3333333,83.129467,340.76413)"
       clip-path="url(#clipPath22)" />
    <path
       id="path23"
       d="m 0,0 c -7.061,-23.316 -11.058,-34.716 -14.539,-44.327 -5.933,-16.353 -12.087,-9.93 -14.955,-5.369 -3.334,5.344 -7.87,15.739 -15.74,34.789 l -19.443,-4.488 v -91.519 l 16.133,3.725 c -0.123,14.588 0.123,24.493 0.907,28.342 0.711,3.457 2.795,3.947 4.904,0.514 1.74,-2.819 4.486,-8.924 9.954,-21.477 l 10.809,2.496 c 5.957,16.01 9.172,24.081 11.452,28.028 1.839,3.212 5.345,5.468 6.399,-0.465 0.809,-4.487 0.735,-16.659 0.711,-31.565 l 16.721,3.86 V 3.073 Z"
       style="fill:#000000;fill-opacity:1;fill-rule:nonzero;stroke:none"
       transform="matrix(1.3333333,0,0,-1.3333333,525.55,4.0976)"
       clip-path="url(#clipPath24)" />
    <path
       id="path25"
       d="m 0,0 c -0.074,-12.504 -0.05,-23.904 -0.589,-28.072 -1.25,-9.954 -18.265,-14.441 -19.098,-5.271 -0.393,4.315 -0.736,10.015 -0.736,22.739 l -13.755,-3.175 v -83.848 l 17.531,4.047 c 0,13.312 0,19.097 0.22,23.657 0.613,12.013 18.657,14.735 20.227,4.291 0.711,-4.757 0.833,-7.037 0.833,-17.775 l 13.975,3.226 V 4.296 Z"
       style="fill:#000000;fill-opacity:1;fill-rule:nonzero;stroke:none"
       transform="matrix(1.3333333,0,0,-1.3333333,401.52667,67.8104)"
       clip-path="url(#clipPath26)" />
    <path
       id="path27"
       d="m 0,0 v -33.75 l 9.782,2.258 c 5.933,1.37 8.385,0.597 8.385,-9.904 v -43.352 l 16.059,3.707 v 39.743 c 0,17.652 1.657,22.107 10.395,24.124 l 7.993,1.845 v 27.476 z"
       style="fill:#000000;fill-opacity:1;fill-rule:nonzero;stroke:none"
       transform="matrix(1.3333333,0,0,-1.3333333,277.50187,77.0448)"
       clip-path="url(#clipPath28)" />
    <path
       id="path29"
       d="m 0,0 -15.004,-3.464 c 0,0 0.22,-15.446 -0.368,-26.822 -0.858,-16.647 -17.628,-20.226 -18.976,-4.388 -0.687,8.311 -1.006,24.877 -1.006,24.877 l -18.657,-4.307 v -13.509 c 0,-32.241 20.962,-36.212 31.921,-27.018 0.662,0.564 1.324,0.907 1.863,0.662 0.613,-0.27 0.589,-0.932 0.344,-2.158 -0.662,-3.211 -5.419,-9.561 -15.029,-12.136 -7.331,-1.961 -14.515,-3.198 -18.094,-3.762 v -22.373 c 16.132,2.084 34.814,6.693 43.518,20.08 4.535,6.987 6.914,14.366 8.091,25.301 C 0.441,-31.806 0,0 0,0"
       style="fill:#000000;fill-opacity:1;fill-rule:nonzero;stroke:none"
       transform="matrix(1.3333333,0,0,-1.3333333,268.7408,106.76547)"
       clip-path="url(#clipPath30)" />
    <path
       id="path31"
       d="m 0,0 c -0.073,-12.504 -0.049,-23.904 -0.588,-28.072 -1.251,-9.954 -18.266,-14.441 -19.099,-5.271 -0.393,4.315 -0.736,10.015 -0.736,22.739 l -13.754,-3.175 v -83.848 l 17.53,4.047 c 0,13.312 0,19.097 0.221,23.657 0.613,12.013 18.657,14.735 20.226,4.291 0.711,-4.757 0.834,-7.037 0.834,-17.775 l 13.974,3.226 V 4.296 Z"
       style="fill:#000000;fill-opacity:1;fill-rule:nonzero;stroke:none"
       transform="matrix(1.3333333,0,0,-1.3333333,159.72133,104.91133)"
       clip-path="url(#clipPath32)" />
    <path
       id="path33"
       d="m 0,0 c -6.693,-1.569 -10.42,2.158 -10.42,10.125 v 7.699 c 0,5.552 1.079,10.371 6.031,11.94 C 9.991,34.319 20.006,28.121 20.006,18.388 20.006,9.292 13.043,3.065 0,0 m 48.47,33.27 c 0,35.378 -34.618,45.651 -76.959,30.523 V -50.41 l 18.045,4.166 v 28.592 c 0,4.364 3.211,3.604 6.178,0.956 2.084,-1.864 14.612,-13.999 23.365,-22.727 l 27.547,6.359 c 0,0 -24.017,24.532 -26.787,26.959 16.132,6.031 28.611,21.749 28.611,39.375"
       style="fill:#000000;fill-opacity:1;fill-rule:nonzero;stroke:none"
       transform="matrix(1.3333333,0,0,-1.3333333,37.9856,172.15347)"
       clip-path="url(#clipPath34)" />
  </g>
</svg>
