<?xml version="1.0" encoding="UTF-8" standalone="no"?>
<!-- Created with Inkscape (http://www.inkscape.org/) -->

<svg
   version="1.1"
   id="svg1"
   width="666.66669"
   height="477.96399"
   viewBox="0 0 666.66669 477.96399"
   sodipodi:docname="Rhythm Paradise Arcade (DUT) Logo (Wordmark).ai"
   xmlns:inkscape="http://www.inkscape.org/namespaces/inkscape"
   xmlns:sodipodi="http://sodipodi.sourceforge.net/DTD/sodipodi-0.dtd"
   xmlns="http://www.w3.org/2000/svg"
   xmlns:svg="http://www.w3.org/2000/svg">
  <defs
     id="defs1">
    <clipPath
       clipPathUnits="userSpaceOnUse"
       id="clipPath2">
      <path
         d="M 0,358.473 H 500 V 0 H 0 Z"
         transform="translate(-499.99991,-69.966504)"
         id="path2" />
    </clipPath>
    <clipPath
       clipPathUnits="userSpaceOnUse"
       id="clipPath4">
      <path
         d="M 0,358.473 H 500 V 0 H 0 Z"
         transform="translate(-491.24111,-85.245805)"
         id="path4" />
    </clipPath>
    <clipPath
       clipPathUnits="userSpaceOnUse"
       id="clipPath6">
      <path
         d="M 0,358.473 H 500 V 0 H 0 Z"
         transform="translate(-454.55271,-144.53091)"
         id="path6" />
    </clipPath>
    <clipPath
       clipPathUnits="userSpaceOnUse"
       id="clipPath8">
      <path
         d="M 0,358.473 H 500 V 0 H 0 Z"
         transform="translate(-423.04581,-204.69601)"
         id="path8" />
    </clipPath>
    <clipPath
       clipPathUnits="userSpaceOnUse"
       id="clipPath10">
      <path
         d="M 0,358.473 H 500 V 0 H 0 Z"
         transform="translate(-380.36421,-152.2477)"
         id="path10" />
    </clipPath>
    <clipPath
       clipPathUnits="userSpaceOnUse"
       id="clipPath12">
      <path
         d="M 0,358.473 H 500 V 0 H 0 Z"
         transform="translate(-325.15811,-147.62271)"
         id="path12" />
    </clipPath>
    <clipPath
       clipPathUnits="userSpaceOnUse"
       id="clipPath14">
      <path
         d="M 0,358.473 H 500 V 0 H 0 Z"
         transform="translate(-284.14741,-136.3063)"
         id="path14" />
    </clipPath>
    <clipPath
       clipPathUnits="userSpaceOnUse"
       id="clipPath16">
      <path
         d="M 0,358.473 H 500 V 0 H 0 Z"
         transform="translate(-234.48721,-124.84641)"
         id="path16" />
    </clipPath>
    <clipPath
       clipPathUnits="userSpaceOnUse"
       id="clipPath18">
      <path
         d="M 0,358.473 H 500 V 0 H 0 Z"
         transform="translate(-170.40621,-130.5925)"
         id="path18" />
    </clipPath>
    <clipPath
       clipPathUnits="userSpaceOnUse"
       id="clipPath20">
      <path
         d="M 0,358.473 H 500 V 0 H 0 Z"
         transform="translate(-123.1752,-90.477205)"
         id="path20" />
    </clipPath>
    <clipPath
       clipPathUnits="userSpaceOnUse"
       id="clipPath22">
      <path
         d="M 0,358.473 H 500 V 0 H 0 Z"
         transform="translate(-61.891502,-104.76531)"
         id="path22" />
    </clipPath>
    <clipPath
       clipPathUnits="userSpaceOnUse"
       id="clipPath24">
      <path
         d="M 0,358.473 H 500 V 0 H 0 Z"
         transform="translate(-391.28511,-355.42211)"
         id="path24" />
    </clipPath>
    <clipPath
       clipPathUnits="userSpaceOnUse"
       id="clipPath26">
      <path
         d="M 0,358.473 H 500 V 0 H 0 Z"
         transform="translate(-298.9462,-307.98651)"
         id="path26" />
    </clipPath>
    <clipPath
       clipPathUnits="userSpaceOnUse"
       id="clipPath28">
      <path
         d="M 0,358.473 H 500 V 0 H 0 Z"
         transform="translate(-206.60691,-301.11151)"
         id="path28" />
    </clipPath>
    <clipPath
       clipPathUnits="userSpaceOnUse"
       id="clipPath30">
      <path
         d="M 0,358.473 H 500 V 0 H 0 Z"
         transform="translate(-200.08441,-278.9836)"
         id="path30" />
    </clipPath>
    <clipPath
       clipPathUnits="userSpaceOnUse"
       id="clipPath32">
      <path
         d="M 0,358.473 H 500 V 0 H 0 Z"
         transform="translate(-118.9165,-280.36401)"
         id="path32" />
    </clipPath>
    <clipPath
       clipPathUnits="userSpaceOnUse"
       id="clipPath34">
      <path
         d="M 0,358.473 H 500 V 0 H 0 Z"
         transform="translate(-28.281201,-230.3005)"
         id="path34" />
    </clipPath>
  </defs>
  <sodipodi:namedview
     id="namedview1"
     pagecolor="#ffffff"
     bordercolor="#000000"
     borderopacity="0.25"
     inkscape:showpageshadow="2"
     inkscape:pageopacity="0.0"
     inkscape:pagecheckerboard="0"
     inkscape:deskcolor="#d1d1d1">
    <inkscape:page
       x="0"
       y="0"
       inkscape:label="1"
       id="page1"
       width="666.66669"
       height="477.96399"
       margin="0"
       bleed="0" />
  </sodipodi:namedview>
  <g
     id="layer-MC0"
     inkscape:groupmode="layer"
     inkscape:label="Layer 1">
    <path
       id="path1"
       d="m 0,0 -15.381,-3.551 v -39.004 l -9.504,-2.194 v 39.004 l -15.442,-3.566 v 8.73 L 0,8.729 Z m -76.779,-56.729 c -1.335,-0.309 -2.575,-0.312 -3.72,-0.007 -1.147,0.303 -2.147,0.834 -3.002,1.59 -0.854,0.758 -1.532,1.704 -2.031,2.839 -0.501,1.135 -0.751,2.384 -0.751,3.748 v 37.368 l 9.504,2.194 V -45.07 c 0,-0.818 0.259,-1.451 0.781,-1.899 0.52,-0.448 1.156,-0.586 1.907,-0.412 l 16.256,3.753 c 0.751,0.173 1.396,0.617 1.939,1.334 0.541,0.716 0.812,1.482 0.812,2.302 v 36.004 l 9.566,2.209 v -37.368 c 0,-1.365 -0.25,-2.729 -0.75,-4.095 -0.501,-1.366 -1.178,-2.624 -2.032,-3.777 -0.854,-1.151 -1.866,-2.146 -3.032,-2.983 -1.168,-0.84 -2.418,-1.411 -3.752,-1.719 z m -26.761,29.825 c 0,0.818 -0.26,1.463 -0.78,1.933 -0.522,0.47 -1.158,0.619 -1.908,0.447 l -18.381,-4.245 v -30.275 l 18.381,4.243 c 0.75,0.174 1.386,0.615 1.908,1.327 0.52,0.711 0.78,1.476 0.78,2.294 z m 9.567,-23.43 c 0,-1.364 -0.25,-2.729 -0.751,-4.095 -0.5,-1.366 -1.177,-2.624 -2.031,-3.776 -0.855,-1.152 -1.867,-2.147 -3.033,-2.984 -1.168,-0.839 -2.418,-1.411 -3.752,-1.719 l -30.573,-7.059 v 47.734 l 30.573,7.058 c 1.251,0.288 2.46,0.295 3.628,0.019 1.166,-0.277 2.187,-0.78 3.062,-1.509 0.875,-0.731 1.574,-1.66 2.095,-2.789 0.521,-1.132 0.782,-2.424 0.782,-3.877 z"
       style="fill:#000000;fill-opacity:1;fill-rule:nonzero;stroke:none"
       transform="matrix(1.3333333,0,0,-1.3333333,666.66653,384.67533)"
       clip-path="url(#clipPath2)" />
    <path
       id="path3"
       d="M 0,0 -46.714,-10.785 V 45.208 L 0,55.993 V 45.755 l -34.476,-7.96 V 25.637 l 28.317,6.537 V 21.935 L -34.476,15.396 V 2.278 L 0,10.238 Z m -68.952,26.315 c 0,0.961 -0.335,1.709 -1,2.249 -0.668,0.539 -1.481,0.699 -2.441,0.477 L -95.91,23.612 v -35.517 l 23.517,5.429 c 0.96,0.222 1.773,0.756 2.441,1.604 0.665,0.847 1,1.751 1,2.711 z m 12.238,-27.251 c 0,-1.599 -0.32,-3.207 -0.96,-4.821 -0.64,-1.615 -1.508,-3.108 -2.599,-4.479 -1.094,-1.372 -2.388,-2.565 -3.88,-3.576 -1.493,-1.012 -3.094,-1.713 -4.799,-2.108 l -39.115,-9.03 v 55.994 l 39.115,9.03 c 1.599,0.369 3.145,0.405 4.639,0.112 1.493,-0.296 2.8,-0.862 3.919,-1.696 1.121,-0.835 2.012,-1.909 2.68,-3.22 0.666,-1.314 1,-2.823 1,-4.53 z m -95.188,-11.816 16.959,3.915 -8.401,18.778 -0.079,-0.018 z m 26.078,-16.298 -4.961,10.934 -25.357,-5.855 -4.879,-13.204 -12.159,-2.807 23.677,61.46 12.159,2.806 23.678,-50.526 z m -87.751,-20.259 c -1.6,-0.369 -3.132,-0.402 -4.6,-0.101 -1.467,0.302 -2.759,0.869 -3.878,1.704 -1.121,0.834 -2.014,1.907 -2.68,3.221 -0.667,1.311 -1,2.822 -1,4.529 V -8.28 c 0,1.599 0.32,3.206 0.961,4.821 0.638,1.613 1.504,3.107 2.598,4.48 1.094,1.372 2.373,2.559 3.841,3.566 1.466,1.005 3.052,1.704 4.758,2.099 l 25.358,5.853 c 1.6,0.37 3.132,0.403 4.6,0.103 1.466,-0.302 2.771,-0.868 3.919,-1.696 1.145,-0.829 2.052,-1.914 2.719,-3.251 0.667,-1.34 1,-2.837 1,-4.489 v -4.319 l -12.238,-2.826 v 2.8 c 0,0.96 -0.335,1.695 -1,2.209 -0.668,0.511 -1.48,0.659 -2.44,0.437 l -18.478,-4.266 c -0.96,-0.221 -1.773,-0.757 -2.44,-1.603 -0.666,-0.848 -1,-1.75 -1,-2.711 V -35.55 c 0,-0.96 0.334,-1.71 1,-2.249 0.667,-0.54 1.48,-0.698 2.44,-0.476 l 18.478,4.265 c 0.96,0.222 1.772,0.742 2.44,1.564 0.665,0.82 1,1.711 1,2.671 v 2.799 l 12.238,2.826 v -4.32 c 0,-1.707 -0.333,-3.371 -1,-4.991 -0.667,-1.621 -1.574,-3.11 -2.719,-4.467 -1.148,-1.358 -2.453,-2.525 -3.919,-3.505 -1.468,-0.977 -3,-1.652 -4.6,-2.021 z m -33.115,34.59 c 0,0.961 -0.334,1.709 -1,2.249 -0.667,0.539 -1.48,0.699 -2.441,0.478 l -23.516,-5.43 v -14.799 l 23.516,5.429 c 0.961,0.222 1.774,0.756 2.441,1.604 0.666,0.846 1,1.75 1,2.71 z m 0,13.759 c 1.599,0.369 3.131,0.402 4.599,0.103 1.466,-0.303 2.76,-0.872 3.88,-1.705 1.119,-0.835 2.011,-1.909 2.679,-3.221 0.667,-1.314 1,-2.822 1,-4.529 v -10.959 c 0,-1.599 -0.307,-3.204 -0.919,-4.811 -0.614,-1.609 -1.508,-3.108 -2.681,-4.499 -1.173,-1.391 -2.572,-2.607 -4.199,-3.648 -1.627,-1.044 -3.48,-1.804 -5.559,-2.284 l 14.078,-17.467 -13.199,-3.047 -14.078,17.467 -12.558,-2.899 v -20.718 l -12.238,-2.825 v 55.993 z m -83.031,-52.845 16.958,3.915 -8.4,18.779 -0.079,-0.019 z m 26.077,-16.298 -4.96,10.934 -25.356,-5.854 -4.88,-13.205 -12.159,-2.807 23.677,61.46 12.159,2.806 23.678,-50.526 z"
       style="fill:#000000;fill-opacity:1;fill-rule:nonzero;stroke:none"
       transform="matrix(1.3333333,0,0,-1.3333333,654.98813,364.30293)"
       clip-path="url(#clipPath4)" />
    <path
       id="path5"
       d="m 0,0 v 9.035 l -2.271,-9.559 -2.46,-0.569 -2.218,8.524 V -1.604 L -9.274,-2.142 V 8.675 l 3.632,0.839 2.192,-8.074 0.026,0.006 2.137,9.073 3.586,0.828 V 0.53 Z m -16.79,-3.876 v 8.897 l -3.74,-0.863 v 1.918 l 9.894,2.284 V 6.442 L -14.242,5.61 v -8.898 z"
       style="fill:#000000;fill-opacity:1;fill-rule:nonzero;stroke:none"
       transform="matrix(1.3333333,0,0,-1.3333333,606.07027,285.25613)"
       clip-path="url(#clipPath6)" />
    <path
       id="path7"
       d="M 0,0 C 5.232,1.971 16.185,4.916 25.385,6.912 V 35.39 L -20.59,24.776 V -51.34 l 45.975,10.614 v 12.681 c -6.036,-1.582 -18.546,-3.935 -24.022,-4.86 -6.669,-1.119 -7.618,7.374 -0.244,9.808 4.235,1.387 11.999,3.237 18.06,4.941 v 9.763 C 13.654,-9.512 6.182,-10.807 0.292,-11.634 -7.01,-12.681 -8.275,-3.115 0,0"
       style="fill:#000000;fill-opacity:1;fill-rule:nonzero;stroke:none"
       transform="matrix(1.3333333,0,0,-1.3333333,564.06107,205.036)"
       clip-path="url(#clipPath8)" />
    <path
       id="path9"
       d="m 0,0 c -0.27,2.529 -4.644,3.102 -11.458,4.735 -11.913,2.958 -19.287,9.977 -18.534,22.307 0.802,13.309 7.539,22.59 43.199,28.646 V 28.003 C 0.339,26.394 -6.766,23.986 -9.778,21.522 -12.992,18.914 -12.805,14.644 -8.166,13.095 -6.151,12.422 -0.193,10.432 3.407,9.225 10.316,6.922 13.697,3.39 14.402,-2.86 16.393,-20.493 -15.521,-25.117 -28.68,-27.05 v 15.667 C -12.916,-8.207 0.608,-5.423 0,0"
       style="fill:#000000;fill-opacity:1;fill-rule:nonzero;stroke:none"
       transform="matrix(1.3333333,0,0,-1.3333333,507.15227,274.96707)"
       clip-path="url(#clipPath10)" />
    <path
       id="path11"
       d="m 0,0 v 67.855 l 17.158,3.961 V 3.962 Z"
       style="fill:#000000;fill-opacity:1;fill-rule:nonzero;stroke:none"
       transform="matrix(1.3333333,0,0,-1.3333333,433.54413,281.13373)"
       clip-path="url(#clipPath12)" />
    <path
       id="path13"
       d="m 0,0 c -4.722,-1.093 -6.766,0.486 -6.766,6.011 v 17.426 c 0,4.016 -0.208,7.224 3.603,8.299 C 5.111,34.073 14.36,29.644 15.236,20.639 16.258,10.173 10.437,2.409 0,0 M -18.399,58.095 V -15.917 C 17.378,-10.685 32.954,3.139 32.564,30.617 32.225,54.444 8.567,67.538 -18.399,58.095"
       style="fill:#000000;fill-opacity:1;fill-rule:nonzero;stroke:none"
       transform="matrix(1.3333333,0,0,-1.3333333,378.8632,296.22227)"
       clip-path="url(#clipPath14)" />
    <path
       id="path15"
       d="m 0,0 -8.64,-1.995 c -2.172,-0.501 -3.407,0.851 -3.139,3.869 0.243,2.823 1.508,8.811 1.996,10.855 1.021,4.235 3.164,6.303 5.622,6.668 3.967,0.633 5.89,-2.263 7.423,-9.565 C 3.408,9.151 3.821,7.666 3.992,5.671 4.333,1.606 3.069,0.708 0,0 M 15.139,32.442 C 10.612,47.289 6.947,50.953 -2.068,48.871 -10.017,47.036 -14.535,42.898 -18.326,28.378 -22.05,14.116 -26.167,-6.267 -29.477,-29.339 l 13.122,3.029 c 0.243,1.826 0.682,3.967 1.314,7.229 0.682,3.285 2.458,5.635 5.987,6.449 l 10.223,2.361 c 2.732,0.63 5.232,-1.534 6.108,-5.184 0.584,-2.434 1.339,-5.886 1.801,-8.198 l 17.378,4.012 C 24.339,-2.629 19.642,17.693 15.139,32.442"
       style="fill:#000000;fill-opacity:1;fill-rule:nonzero;stroke:none"
       transform="matrix(1.3333333,0,0,-1.3333333,312.6496,311.50213)"
       clip-path="url(#clipPath16)" />
    <path
       id="path17"
       d="m 0,0 c -4.458,-1.045 -6.94,1.437 -6.94,6.744 v 5.127 c 0,3.698 0.718,6.907 4.017,7.952 9.577,3.034 16.247,-1.094 16.247,-7.576 C 13.324,6.189 8.687,2.042 0,0 m 32.282,22.158 c 0,23.563 -23.056,30.405 -51.257,20.33 v -74.129 l 12.018,2.775 v 17.11 c 0,2.906 2.14,2.401 4.116,0.637 1.387,-1.241 9.732,-9.324 15.561,-15.137 l 18.347,4.235 c 0,0 -15.996,16.339 -17.841,17.956 10.745,4.016 19.056,14.485 19.056,26.223"
       style="fill:#000000;fill-opacity:1;fill-rule:nonzero;stroke:none"
       transform="matrix(1.3333333,0,0,-1.3333333,227.20827,303.84067)"
       clip-path="url(#clipPath18)" />
    <path
       id="path19"
       d="m 0,0 -8.64,-1.994 c -2.172,-0.501 -3.407,0.85 -3.14,3.868 0.244,2.823 1.509,8.811 1.996,10.855 1.022,4.235 3.164,6.304 5.622,6.668 3.967,0.633 5.89,-2.262 7.423,-9.564 C 3.407,9.151 3.821,7.667 3.991,5.671 4.332,1.606 3.069,0.709 0,0 m 15.138,32.443 c -4.527,14.846 -8.191,18.51 -17.207,16.428 -7.948,-1.834 -12.467,-5.973 -16.258,-20.492 -3.723,-14.263 -7.84,-34.645 -11.15,-57.718 l 13.122,3.029 c 0.243,1.827 0.681,3.968 1.314,7.229 0.682,3.286 2.458,5.635 5.987,6.45 l 10.222,2.36 c 2.733,0.63 5.233,-1.533 6.109,-5.183 0.584,-2.435 1.339,-5.887 1.801,-8.198 l 17.378,4.011 C 24.338,-2.628 19.641,17.694 15.138,32.443"
       style="fill:#000000;fill-opacity:1;fill-rule:nonzero;stroke:none"
       transform="matrix(1.3333333,0,0,-1.3333333,164.2336,357.32773)"
       clip-path="url(#clipPath20)" />
    <path
       id="path21"
       d="m 0,0 c -5.403,-1.321 -8.519,0.098 -8.519,4.624 l 10e-4,16.381 c 0,4.626 2.555,7.545 7.642,8.202 C 9.322,30.521 13.922,24.558 13.922,16.794 13.922,10.319 10.101,2.47 0,0 M -33.904,52.84 V -49.749 l 25.41,5.866 v 24.096 c 0,4.405 1.095,6.596 3.724,7.058 23.68,4.166 40.548,16.072 40.548,40.5 0,26.824 -28.817,41.253 -69.682,25.069"
       style="fill:#000000;fill-opacity:1;fill-rule:nonzero;stroke:none"
       transform="matrix(1.3333333,0,0,-1.3333333,82.522,338.27693)"
       clip-path="url(#clipPath22)" />
    <path
       id="path23"
       d="m 0,0 c -7.01,-23.146 -10.977,-34.463 -14.433,-44.003 -5.889,-16.234 -11.999,-9.857 -14.846,-5.33 -3.31,5.305 -7.813,15.625 -15.625,34.536 l -19.3,-4.456 v -90.851 l 16.015,3.698 c -0.123,14.481 0.121,24.314 0.9,28.135 0.705,3.431 2.774,3.918 4.867,0.511 1.728,-2.799 4.454,-8.86 9.882,-21.321 l 10.73,2.478 c 5.914,15.893 9.105,23.905 11.369,27.823 1.825,3.189 5.305,5.428 6.352,-0.462 0.803,-4.454 0.73,-16.537 0.705,-31.334 l 16.6,3.832 V 3.051 Z"
       style="fill:#000000;fill-opacity:1;fill-rule:nonzero;stroke:none"
       transform="matrix(1.3333333,0,0,-1.3333333,521.71347,4.0678667)"
       clip-path="url(#clipPath24)" />
    <path
       id="path25"
       d="m 0,0 c -0.073,-12.413 -0.049,-23.73 -0.584,-27.867 -1.241,-9.882 -18.133,-14.336 -18.96,-5.233 -0.39,4.284 -0.73,9.943 -0.73,22.574 l -13.654,-3.152 v -83.237 l 17.402,4.018 c 0,13.215 0,18.958 0.219,23.484 0.609,11.926 18.522,14.628 20.079,4.26 0.706,-4.722 0.828,-6.986 0.828,-17.645 l 13.873,3.202 V 4.265 Z"
       style="fill:#000000;fill-opacity:1;fill-rule:nonzero;stroke:none"
       transform="matrix(1.3333333,0,0,-1.3333333,398.59493,67.315333)"
       clip-path="url(#clipPath26)" />
    <path
       id="path27"
       d="m 0,0 v -33.504 l 9.711,2.242 c 5.889,1.36 8.324,0.593 8.324,-9.833 V -84.13 l 15.941,3.681 v 39.452 c 0,17.524 1.646,21.946 10.319,23.948 l 7.935,1.832 v 27.275 z"
       style="fill:#000000;fill-opacity:1;fill-rule:nonzero;stroke:none"
       transform="matrix(1.3333333,0,0,-1.3333333,275.47587,76.482)"
       clip-path="url(#clipPath28)" />
    <path
       id="path29"
       d="m 0,0 -14.895,-3.439 c 0,0 0.219,-15.333 -0.365,-26.626 -0.852,-16.525 -17.499,-20.079 -18.838,-4.356 -0.681,8.251 -0.998,24.695 -0.998,24.695 l -18.521,-4.275 v -13.411 c 0,-32.005 20.809,-35.947 31.688,-26.82 0.657,0.559 1.314,0.9 1.85,0.657 0.608,-0.268 0.584,-0.925 0.341,-2.142 -0.658,-3.188 -5.379,-9.492 -14.92,-12.048 -7.277,-1.946 -14.408,-3.174 -17.961,-3.735 v -22.208 c 16.014,2.068 34.559,6.643 43.2,19.932 4.502,6.936 6.863,14.262 8.031,25.117 C 0.438,-31.574 0,0 0,0"
       style="fill:#000000;fill-opacity:1;fill-rule:nonzero;stroke:none"
       transform="matrix(1.3333333,0,0,-1.3333333,266.7792,105.98587)"
       clip-path="url(#clipPath30)" />
    <path
       id="path31"
       d="m 0,0 c -0.073,-12.413 -0.049,-23.729 -0.584,-27.867 -1.241,-9.882 -18.132,-14.335 -18.959,-5.233 -0.39,4.284 -0.731,9.943 -0.731,22.574 l -13.654,-3.152 v -83.236 l 17.402,4.017 c 0,13.215 0,18.958 0.219,23.484 0.609,11.926 18.522,14.628 20.079,4.26 0.706,-4.722 0.828,-6.985 0.828,-17.645 l 13.873,3.202 V 4.265 Z"
       style="fill:#000000;fill-opacity:1;fill-rule:nonzero;stroke:none"
       transform="matrix(1.3333333,0,0,-1.3333333,158.55533,104.14533)"
       clip-path="url(#clipPath32)" />
    <path
       id="path33"
       d="m 0,0 c -6.645,-1.558 -10.344,2.142 -10.344,10.052 v 7.642 c 0,5.512 1.071,10.295 5.988,11.852 C 9.918,34.069 19.86,27.916 19.86,18.253 19.86,9.224 12.948,3.042 0,0 m 48.117,33.027 c 0,35.12 -34.366,45.318 -76.398,30.301 v -113.37 l 17.913,4.136 v 28.383 c 0,4.332 3.188,3.577 6.133,0.949 2.069,-1.85 14.506,-13.897 23.194,-22.562 l 27.346,6.314 c 0,0 -23.841,24.352 -26.591,26.762 16.015,5.987 28.402,21.59 28.403,39.087"
       style="fill:#000000;fill-opacity:1;fill-rule:nonzero;stroke:none"
       transform="matrix(1.3333333,0,0,-1.3333333,37.708267,170.89667)"
       clip-path="url(#clipPath34)" />
  </g>
</svg>
