<?xml version="1.0" encoding="UTF-8" standalone="no"?>
<!-- Created with Inkscape (http://www.inkscape.org/) -->

<svg
   version="1.1"
   id="svg1"
   width="666.66669"
   height="666.66669"
   viewBox="0 0 666.66669 666.66669"
   sodipodi:docname="Rhythm Heaven Arcade (Alt).ai"
   xmlns:inkscape="http://www.inkscape.org/namespaces/inkscape"
   xmlns:sodipodi="http://sodipodi.sourceforge.net/DTD/sodipodi-0.dtd"
   xmlns="http://www.w3.org/2000/svg"
   xmlns:svg="http://www.w3.org/2000/svg">
  <defs
     id="defs1">
    <clipPath
       clipPathUnits="userSpaceOnUse"
       id="clipPath23">
      <path
         d="M 0,500 H 500 V 0 H 0 Z"
         transform="translate(-458.69431,-284.109)"
         id="path23" />
    </clipPath>
    <clipPath
       clipPathUnits="userSpaceOnUse"
       id="clipPath25">
      <path
         d="M 0,500 H 500 V 0 H 0 Z"
         transform="translate(-447.00291,-282.6588)"
         id="path25" />
    </clipPath>
    <clipPath
       clipPathUnits="userSpaceOnUse"
       id="clipPath27">
      <path
         d="M 0,500 H 500 V 0 H 0 Z"
         transform="translate(-436.32521,-281.30291)"
         id="path27" />
    </clipPath>
    <clipPath
       clipPathUnits="userSpaceOnUse"
       id="clipPath29">
      <path
         d="M 0,500 H 500 V 0 H 0 Z"
         transform="translate(-347.70511,-193.9191)"
         id="path29" />
    </clipPath>
    <clipPath
       clipPathUnits="userSpaceOnUse"
       id="clipPath31">
      <path
         d="M 0,500 H 500 V 0 H 0 Z"
         transform="translate(-436.31931,-206.38541)"
         id="path31" />
    </clipPath>
    <clipPath
       clipPathUnits="userSpaceOnUse"
       id="clipPath33">
      <path
         d="M 0,500 H 500 V 0 H 0 Z"
         transform="translate(-402.86911,-283.4493)"
         id="path33" />
    </clipPath>
    <clipPath
       clipPathUnits="userSpaceOnUse"
       id="clipPath35">
      <path
         d="M 0,500 H 500 V 0 H 0 Z"
         transform="translate(-347.29301,-208.8483)"
         id="path35" />
    </clipPath>
    <clipPath
       clipPathUnits="userSpaceOnUse"
       id="clipPath37">
      <path
         d="M 0,500 H 500 V 0 H 0 Z"
         transform="translate(-311.61911,-252.3585)"
         id="path37" />
    </clipPath>
    <clipPath
       clipPathUnits="userSpaceOnUse"
       id="clipPath39">
      <path
         d="M 0,500 H 500 V 0 H 0 Z"
         transform="translate(-268.3594,-187.6827)"
         id="path39" />
    </clipPath>
    <clipPath
       clipPathUnits="userSpaceOnUse"
       id="clipPath41">
      <path
         d="M 0,500 H 500 V 0 H 0 Z"
         transform="translate(-222.38821,-175.9664)"
         id="path41" />
    </clipPath>
    <clipPath
       clipPathUnits="userSpaceOnUse"
       id="clipPath43">
      <path
         d="M 0,500 H 500 V 0 H 0 Z"
         transform="translate(-182.3545,-224.649)"
         id="path43" />
    </clipPath>
    <clipPath
       clipPathUnits="userSpaceOnUse"
       id="clipPath45">
      <path
         d="M 0,500 H 500 V 0 H 0 Z"
         transform="translate(-401.59861,-293.41271)"
         id="path45" />
    </clipPath>
    <clipPath
       clipPathUnits="userSpaceOnUse"
       id="clipPath47">
      <path
         d="M 0,500 H 500 V 0 H 0 Z"
         transform="translate(-320.99511,-333.89421)"
         id="path47" />
    </clipPath>
    <clipPath
       clipPathUnits="userSpaceOnUse"
       id="clipPath49">
      <path
         d="M 0,500 H 500 V 0 H 0 Z"
         transform="translate(-250.2559,-324.70811)"
         id="path49" />
    </clipPath>
    <clipPath
       clipPathUnits="userSpaceOnUse"
       id="clipPath51">
      <path
         d="M 0,500 H 500 V 0 H 0 Z"
         transform="translate(-244.6807,-313.50841)"
         id="path51" />
    </clipPath>
    <clipPath
       clipPathUnits="userSpaceOnUse"
       id="clipPath53">
      <path
         d="M 0,500 H 500 V 0 H 0 Z"
         transform="translate(-181.0146,-303.37371)"
         id="path53" />
    </clipPath>
    <clipPath
       clipPathUnits="userSpaceOnUse"
       id="clipPath55">
      <path
         d="M 0,500 H 500 V 0 H 0 Z"
         transform="translate(-114.60741,-258.2736)"
         id="path55" />
    </clipPath>
    <clipPath
       clipPathUnits="userSpaceOnUse"
       id="clipPath57">
      <path
         d="M 0,500 H 500 V 0 H 0 Z"
         transform="translate(-462.91891,-180.1476)"
         id="path57" />
    </clipPath>
    <clipPath
       clipPathUnits="userSpaceOnUse"
       id="clipPath59">
      <path
         d="M 0,500 H 500 V 0 H 0 Z"
         transform="translate(-456.86621,-152.924)"
         id="path59" />
    </clipPath>
    <clipPath
       clipPathUnits="userSpaceOnUse"
       id="clipPath61">
      <path
         d="m 424.156,184.58 v -39.208 l 32.71,7.551 v 7.17 l -24.141,-5.574 v 9.186 l 19.828,4.578 v 7.17 l -19.828,-4.577 v 8.513 l 24.141,5.574 v 7.169 z m -15.572,-3.595 -27.39,-6.323 v -39.208 l 27.39,6.322 c 1.194,0.277 2.315,0.768 3.36,1.477 v 0 c 1.045,0.708 1.952,1.542 2.717,2.503 v 0 c 0.765,0.961 1.372,2.006 1.82,3.137 v 0 c 0.448,1.131 0.673,2.256 0.673,3.376 v 0 22.181 c 0,1.195 -0.234,2.251 -0.701,3.171 v 0 c -0.468,0.918 -1.091,1.671 -1.876,2.255 v 0 c -0.784,0.584 -1.699,0.98 -2.745,1.187 v 0 c -0.465,0.091 -0.937,0.137 -1.416,0.137 v 0 c -0.599,0 -1.21,-0.071 -1.832,-0.215 m -18.877,-11.527 16.467,3.802 c 0.673,0.156 1.242,0.043 1.71,-0.334 v 0 c 0.466,-0.379 0.7,-0.903 0.7,-1.575 v 0 -19.94 c 0,-0.673 -0.234,-1.305 -0.7,-1.899 v 0 c -0.468,-0.593 -1.037,-0.967 -1.71,-1.122 v 0 l -16.467,-3.802 z m -37.527,-1.495 -16.579,-43.035 8.513,1.965 3.417,9.245 17.757,4.1 3.472,-7.655 8.515,1.966 -16.581,35.38 z m 4.258,-8.091 0.056,0.014 5.881,-13.15 -11.875,-2.741 z m -31.367,1.833 -17.755,-4.1 c -1.196,-0.276 -2.306,-0.765 -3.333,-1.469 v 0 c -1.028,-0.705 -1.923,-1.537 -2.689,-2.497 v 0 c -0.767,-0.961 -1.372,-2.007 -1.821,-3.136 v 0 c -0.448,-1.132 -0.672,-2.257 -0.672,-3.377 v 0 -22.181 c 0,-1.195 0.233,-2.252 0.7,-3.17 v 0 c 0.467,-0.92 1.093,-1.673 1.877,-2.256 v 0 c 0.784,-0.584 1.688,-0.982 2.716,-1.193 v 0 c 1.028,-0.211 2.1,-0.187 3.222,0.072 v 0 l 17.755,4.098 c 1.12,0.259 2.193,0.732 3.221,1.416 v 0 c 1.026,0.686 1.941,1.503 2.744,2.454 v 0 c 0.803,0.951 1.437,1.993 1.905,3.129 v 0 c 0.466,1.133 0.7,2.299 0.7,3.493 v 0 3.025 l -8.57,-1.978 v -1.961 c 0,-0.671 -0.234,-1.296 -0.7,-1.87 v 0 c -0.467,-0.575 -1.036,-0.939 -1.708,-1.095 v 0 l -12.94,-2.987 c -0.671,-0.155 -1.241,-0.044 -1.707,0.334 v 0 c -0.467,0.378 -0.7,0.902 -0.7,1.575 v 0 19.94 c 0,0.673 0.233,1.305 0.7,1.898 v 0 c 0.466,0.593 1.036,0.968 1.707,1.123 v 0 l 12.94,2.987 c 0.672,0.156 1.241,0.052 1.708,-0.305 v 0 c 0.466,-0.361 0.7,-0.875 0.7,-1.547 v 0 -1.961 l 8.57,1.979 v 3.024 c 0,1.157 -0.234,2.205 -0.7,3.144 v 0 c -0.468,0.936 -1.102,1.696 -1.905,2.276 v 0 c -0.803,0.58 -1.718,0.976 -2.744,1.188 v 0 c -0.461,0.094 -0.932,0.141 -1.412,0.141 v 0 c -0.589,0 -1.192,-0.071 -1.809,-0.213 m -40.945,-9.453 -27.445,-6.337 v -39.207 l 8.57,1.978 v 14.507 l 8.793,2.029 9.858,-12.23 9.242,2.134 -9.857,12.23 c 1.455,0.338 2.753,0.869 3.893,1.6 v 0 c 1.139,0.73 2.118,1.581 2.94,2.555 v 0 c 0.82,0.973 1.447,2.023 1.877,3.15 v 0 c 0.427,1.126 0.643,2.248 0.643,3.369 v 0 7.673 c 0,1.196 -0.233,2.252 -0.7,3.172 v 0 c -0.468,0.918 -1.092,1.67 -1.876,2.255 v 0 c -0.783,0.584 -1.69,0.983 -2.716,1.193 v 0 c -0.463,0.095 -0.934,0.143 -1.415,0.143 v 0 c -0.588,0 -1.19,-0.071 -1.807,-0.214 m -18.875,-11.527 16.467,3.801 c 0.672,0.156 1.241,0.044 1.708,-0.333 v 0 c 0.466,-0.378 0.7,-0.903 0.7,-1.575 v 0 -5.434 c 0,-0.672 -0.234,-1.305 -0.7,-1.898 v 0 c -0.467,-0.593 -1.036,-0.966 -1.708,-1.122 v 0 l -16.467,-3.802 z m -37.585,-1.509 -16.579,-43.035 8.514,1.966 3.416,9.246 17.755,4.099 3.475,-7.655 8.513,1.965 -16.58,35.381 z m 4.258,-8.09 0.055,0.013 5.882,-13.149 -11.875,-2.741 z"
         transform="translate(-495.25391,-227.1759)"
         id="path61" />
    </clipPath>
    <clipPath
       clipPathUnits="userSpaceOnUse"
       id="clipPath63">
      <path
         d="m 424.156,184.58 v -39.208 l 32.71,7.551 v 7.17 l -24.141,-5.574 v 9.186 l 19.828,4.578 v 7.17 l -19.828,-4.577 v 8.513 l 24.141,5.574 v 7.169 z m -15.572,-3.595 -27.39,-6.323 v -39.208 l 27.39,6.322 c 1.194,0.277 2.315,0.768 3.36,1.477 v 0 c 1.045,0.708 1.952,1.542 2.717,2.503 v 0 c 0.765,0.961 1.372,2.006 1.82,3.137 v 0 c 0.448,1.131 0.673,2.256 0.673,3.376 v 0 22.181 c 0,1.195 -0.234,2.251 -0.701,3.171 v 0 c -0.468,0.918 -1.091,1.671 -1.876,2.255 v 0 c -0.784,0.584 -1.699,0.98 -2.745,1.187 v 0 c -0.465,0.091 -0.937,0.137 -1.416,0.137 v 0 c -0.599,0 -1.21,-0.071 -1.832,-0.215 m -18.877,-11.527 16.467,3.802 c 0.673,0.156 1.242,0.043 1.71,-0.334 v 0 c 0.466,-0.379 0.7,-0.903 0.7,-1.575 v 0 -19.94 c 0,-0.673 -0.234,-1.305 -0.7,-1.899 v 0 c -0.468,-0.593 -1.037,-0.967 -1.71,-1.122 v 0 l -16.467,-3.802 z m -37.527,-1.495 -16.579,-43.035 8.513,1.965 3.417,9.245 17.757,4.1 3.472,-7.655 8.515,1.966 -16.581,35.38 z m 4.258,-8.091 0.056,0.014 5.881,-13.15 -11.875,-2.741 z m -31.367,1.833 -17.755,-4.1 c -1.196,-0.276 -2.306,-0.765 -3.333,-1.469 v 0 c -1.028,-0.705 -1.923,-1.537 -2.689,-2.497 v 0 c -0.767,-0.961 -1.372,-2.007 -1.821,-3.136 v 0 c -0.448,-1.132 -0.672,-2.257 -0.672,-3.377 v 0 -22.181 c 0,-1.195 0.233,-2.252 0.7,-3.17 v 0 c 0.467,-0.92 1.093,-1.673 1.877,-2.256 v 0 c 0.784,-0.584 1.688,-0.982 2.716,-1.193 v 0 c 1.028,-0.211 2.1,-0.187 3.222,0.072 v 0 l 17.755,4.098 c 1.12,0.259 2.193,0.732 3.221,1.416 v 0 c 1.026,0.686 1.941,1.503 2.744,2.454 v 0 c 0.803,0.951 1.437,1.993 1.905,3.129 v 0 c 0.466,1.133 0.7,2.299 0.7,3.493 v 0 3.025 l -8.57,-1.978 v -1.961 c 0,-0.671 -0.234,-1.296 -0.7,-1.87 v 0 c -0.467,-0.575 -1.036,-0.939 -1.708,-1.095 v 0 l -12.94,-2.987 c -0.671,-0.155 -1.241,-0.044 -1.707,0.334 v 0 c -0.467,0.378 -0.7,0.902 -0.7,1.575 v 0 19.94 c 0,0.673 0.233,1.305 0.7,1.898 v 0 c 0.466,0.593 1.036,0.968 1.707,1.123 v 0 l 12.94,2.987 c 0.672,0.156 1.241,0.052 1.708,-0.305 v 0 c 0.466,-0.361 0.7,-0.875 0.7,-1.547 v 0 -1.961 l 8.57,1.979 v 3.024 c 0,1.157 -0.234,2.205 -0.7,3.144 v 0 c -0.468,0.936 -1.102,1.696 -1.905,2.276 v 0 c -0.803,0.58 -1.718,0.976 -2.744,1.188 v 0 c -0.461,0.094 -0.932,0.141 -1.412,0.141 v 0 c -0.589,0 -1.192,-0.071 -1.809,-0.213 m -40.945,-9.453 -27.445,-6.337 v -39.207 l 8.57,1.978 v 14.507 l 8.793,2.029 9.858,-12.23 9.242,2.134 -9.857,12.23 c 1.455,0.338 2.753,0.869 3.893,1.6 v 0 c 1.139,0.73 2.118,1.581 2.94,2.555 v 0 c 0.82,0.973 1.447,2.023 1.877,3.15 v 0 c 0.427,1.126 0.643,2.248 0.643,3.369 v 0 7.673 c 0,1.196 -0.233,2.252 -0.7,3.172 v 0 c -0.468,0.918 -1.092,1.67 -1.876,2.255 v 0 c -0.783,0.584 -1.69,0.983 -2.716,1.193 v 0 c -0.463,0.095 -0.934,0.143 -1.415,0.143 v 0 c -0.588,0 -1.19,-0.071 -1.807,-0.214 m -18.875,-11.527 16.467,3.801 c 0.672,0.156 1.241,0.044 1.708,-0.333 v 0 c 0.466,-0.378 0.7,-0.903 0.7,-1.575 v 0 -5.434 c 0,-0.672 -0.234,-1.305 -0.7,-1.898 v 0 c -0.467,-0.593 -1.036,-0.966 -1.708,-1.122 v 0 l -16.467,-3.802 z m -37.585,-1.509 -16.579,-43.035 8.514,1.966 3.416,9.246 17.755,4.099 3.475,-7.655 8.513,1.965 -16.58,35.381 z m 4.258,-8.09 0.055,0.013 5.882,-13.149 -11.875,-2.741 z"
         transform="translate(-495.25391,-227.1759)"
         id="path63" />
    </clipPath>
    <clipPath
       clipPathUnits="userSpaceOnUse"
       id="clipPath65">
      <path
         d="m 424.156,184.58 v -39.208 l 32.71,7.551 v 7.17 l -24.141,-5.574 v 9.186 l 19.828,4.578 v 7.17 l -19.828,-4.577 v 8.513 l 24.141,5.574 v 7.169 z m -15.572,-3.595 -27.39,-6.323 v -39.208 l 27.39,6.322 c 1.194,0.277 2.315,0.768 3.36,1.477 v 0 c 1.045,0.708 1.952,1.542 2.717,2.503 v 0 c 0.765,0.961 1.372,2.006 1.82,3.137 v 0 c 0.448,1.131 0.673,2.256 0.673,3.376 v 0 22.181 c 0,1.195 -0.234,2.251 -0.701,3.171 v 0 c -0.468,0.918 -1.091,1.671 -1.876,2.255 v 0 c -0.784,0.584 -1.699,0.98 -2.745,1.187 v 0 c -0.465,0.091 -0.937,0.137 -1.416,0.137 v 0 c -0.599,0 -1.21,-0.071 -1.832,-0.215 m -18.877,-11.527 16.467,3.802 c 0.673,0.156 1.242,0.043 1.71,-0.334 v 0 c 0.466,-0.379 0.7,-0.903 0.7,-1.575 v 0 -19.94 c 0,-0.673 -0.234,-1.305 -0.7,-1.899 v 0 c -0.468,-0.593 -1.037,-0.967 -1.71,-1.122 v 0 l -16.467,-3.802 z m -37.527,-1.495 -16.579,-43.035 8.513,1.965 3.417,9.245 17.757,4.1 3.472,-7.655 8.515,1.966 -16.581,35.38 z m 4.258,-8.091 0.056,0.014 5.881,-13.15 -11.875,-2.741 z m -31.367,1.833 -17.755,-4.1 c -1.196,-0.276 -2.306,-0.765 -3.333,-1.469 v 0 c -1.028,-0.705 -1.923,-1.537 -2.689,-2.497 v 0 c -0.767,-0.961 -1.372,-2.007 -1.821,-3.136 v 0 c -0.448,-1.132 -0.672,-2.257 -0.672,-3.377 v 0 -22.181 c 0,-1.195 0.233,-2.252 0.7,-3.17 v 0 c 0.467,-0.92 1.093,-1.673 1.877,-2.256 v 0 c 0.784,-0.584 1.688,-0.982 2.716,-1.193 v 0 c 1.028,-0.211 2.1,-0.187 3.222,0.072 v 0 l 17.755,4.098 c 1.12,0.259 2.193,0.732 3.221,1.416 v 0 c 1.026,0.686 1.941,1.503 2.744,2.454 v 0 c 0.803,0.951 1.437,1.993 1.905,3.129 v 0 c 0.466,1.133 0.7,2.299 0.7,3.493 v 0 3.025 l -8.57,-1.978 v -1.961 c 0,-0.671 -0.234,-1.296 -0.7,-1.87 v 0 c -0.467,-0.575 -1.036,-0.939 -1.708,-1.095 v 0 l -12.94,-2.987 c -0.671,-0.155 -1.241,-0.044 -1.707,0.334 v 0 c -0.467,0.378 -0.7,0.902 -0.7,1.575 v 0 19.94 c 0,0.673 0.233,1.305 0.7,1.898 v 0 c 0.466,0.593 1.036,0.968 1.707,1.123 v 0 l 12.94,2.987 c 0.672,0.156 1.241,0.052 1.708,-0.305 v 0 c 0.466,-0.361 0.7,-0.875 0.7,-1.547 v 0 -1.961 l 8.57,1.979 v 3.024 c 0,1.157 -0.234,2.205 -0.7,3.144 v 0 c -0.468,0.936 -1.102,1.696 -1.905,2.276 v 0 c -0.803,0.58 -1.718,0.976 -2.744,1.188 v 0 c -0.461,0.094 -0.932,0.141 -1.412,0.141 v 0 c -0.589,0 -1.192,-0.071 -1.809,-0.213 m -40.945,-9.453 -27.445,-6.337 v -39.207 l 8.57,1.978 v 14.507 l 8.793,2.029 9.858,-12.23 9.242,2.134 -9.857,12.23 c 1.455,0.338 2.753,0.869 3.893,1.6 v 0 c 1.139,0.73 2.118,1.581 2.94,2.555 v 0 c 0.82,0.973 1.447,2.023 1.877,3.15 v 0 c 0.427,1.126 0.643,2.248 0.643,3.369 v 0 7.673 c 0,1.196 -0.233,2.252 -0.7,3.172 v 0 c -0.468,0.918 -1.092,1.67 -1.876,2.255 v 0 c -0.783,0.584 -1.69,0.983 -2.716,1.193 v 0 c -0.463,0.095 -0.934,0.143 -1.415,0.143 v 0 c -0.588,0 -1.19,-0.071 -1.807,-0.214 m -18.875,-11.527 16.467,3.801 c 0.672,0.156 1.241,0.044 1.708,-0.333 v 0 c 0.466,-0.378 0.7,-0.903 0.7,-1.575 v 0 -5.434 c 0,-0.672 -0.234,-1.305 -0.7,-1.898 v 0 c -0.467,-0.593 -1.036,-0.966 -1.708,-1.122 v 0 l -16.467,-3.802 z m -37.585,-1.509 -16.579,-43.035 8.514,1.966 3.416,9.246 17.755,4.099 3.475,-7.655 8.513,1.965 -16.58,35.381 z m 4.258,-8.09 0.055,0.013 5.882,-13.149 -11.875,-2.741 z"
         transform="translate(-495.25391,-227.1759)"
         id="path65" />
    </clipPath>
    <clipPath
       clipPathUnits="userSpaceOnUse"
       id="clipPath67">
      <path
         d="m 424.156,184.58 v -39.208 l 32.71,7.551 v 7.17 l -24.141,-5.574 v 9.186 l 19.828,4.578 v 7.17 l -19.828,-4.577 v 8.513 l 24.141,5.574 v 7.169 z m -15.572,-3.595 -27.39,-6.323 v -39.208 l 27.39,6.322 c 1.194,0.277 2.315,0.768 3.36,1.477 v 0 c 1.045,0.708 1.952,1.542 2.717,2.503 v 0 c 0.765,0.961 1.372,2.006 1.82,3.137 v 0 c 0.448,1.131 0.673,2.256 0.673,3.376 v 0 22.181 c 0,1.195 -0.234,2.251 -0.701,3.171 v 0 c -0.468,0.918 -1.091,1.671 -1.876,2.255 v 0 c -0.784,0.584 -1.699,0.98 -2.745,1.187 v 0 c -0.465,0.091 -0.937,0.137 -1.416,0.137 v 0 c -0.599,0 -1.21,-0.071 -1.832,-0.215 m -18.877,-11.527 16.467,3.802 c 0.673,0.156 1.242,0.043 1.71,-0.334 v 0 c 0.466,-0.379 0.7,-0.903 0.7,-1.575 v 0 -19.94 c 0,-0.673 -0.234,-1.305 -0.7,-1.899 v 0 c -0.468,-0.593 -1.037,-0.967 -1.71,-1.122 v 0 l -16.467,-3.802 z m -37.527,-1.495 -16.579,-43.035 8.513,1.965 3.417,9.245 17.757,4.1 3.472,-7.655 8.515,1.966 -16.581,35.38 z m 4.258,-8.091 0.056,0.014 5.881,-13.15 -11.875,-2.741 z m -31.367,1.833 -17.755,-4.1 c -1.196,-0.276 -2.306,-0.765 -3.333,-1.469 v 0 c -1.028,-0.705 -1.923,-1.537 -2.689,-2.497 v 0 c -0.767,-0.961 -1.372,-2.007 -1.821,-3.136 v 0 c -0.448,-1.132 -0.672,-2.257 -0.672,-3.377 v 0 -22.181 c 0,-1.195 0.233,-2.252 0.7,-3.17 v 0 c 0.467,-0.92 1.093,-1.673 1.877,-2.256 v 0 c 0.784,-0.584 1.688,-0.982 2.716,-1.193 v 0 c 1.028,-0.211 2.1,-0.187 3.222,0.072 v 0 l 17.755,4.098 c 1.12,0.259 2.193,0.732 3.221,1.416 v 0 c 1.026,0.686 1.941,1.503 2.744,2.454 v 0 c 0.803,0.951 1.437,1.993 1.905,3.129 v 0 c 0.466,1.133 0.7,2.299 0.7,3.493 v 0 3.025 l -8.57,-1.978 v -1.961 c 0,-0.671 -0.234,-1.296 -0.7,-1.87 v 0 c -0.467,-0.575 -1.036,-0.939 -1.708,-1.095 v 0 l -12.94,-2.987 c -0.671,-0.155 -1.241,-0.044 -1.707,0.334 v 0 c -0.467,0.378 -0.7,0.902 -0.7,1.575 v 0 19.94 c 0,0.673 0.233,1.305 0.7,1.898 v 0 c 0.466,0.593 1.036,0.968 1.707,1.123 v 0 l 12.94,2.987 c 0.672,0.156 1.241,0.052 1.708,-0.305 v 0 c 0.466,-0.361 0.7,-0.875 0.7,-1.547 v 0 -1.961 l 8.57,1.979 v 3.024 c 0,1.157 -0.234,2.205 -0.7,3.144 v 0 c -0.468,0.936 -1.102,1.696 -1.905,2.276 v 0 c -0.803,0.58 -1.718,0.976 -2.744,1.188 v 0 c -0.461,0.094 -0.932,0.141 -1.412,0.141 v 0 c -0.589,0 -1.192,-0.071 -1.809,-0.213 m -40.945,-9.453 -27.445,-6.337 v -39.207 l 8.57,1.978 v 14.507 l 8.793,2.029 9.858,-12.23 9.242,2.134 -9.857,12.23 c 1.455,0.338 2.753,0.869 3.893,1.6 v 0 c 1.139,0.73 2.118,1.581 2.94,2.555 v 0 c 0.82,0.973 1.447,2.023 1.877,3.15 v 0 c 0.427,1.126 0.643,2.248 0.643,3.369 v 0 7.673 c 0,1.196 -0.233,2.252 -0.7,3.172 v 0 c -0.468,0.918 -1.092,1.67 -1.876,2.255 v 0 c -0.783,0.584 -1.69,0.983 -2.716,1.193 v 0 c -0.463,0.095 -0.934,0.143 -1.415,0.143 v 0 c -0.588,0 -1.19,-0.071 -1.807,-0.214 m -18.875,-11.527 16.467,3.801 c 0.672,0.156 1.241,0.044 1.708,-0.333 v 0 c 0.466,-0.378 0.7,-0.903 0.7,-1.575 v 0 -5.434 c 0,-0.672 -0.234,-1.305 -0.7,-1.898 v 0 c -0.467,-0.593 -1.036,-0.966 -1.708,-1.122 v 0 l -16.467,-3.802 z m -37.585,-1.509 -16.579,-43.035 8.514,1.966 3.416,9.246 17.755,4.099 3.475,-7.655 8.513,1.965 -16.58,35.381 z m 4.258,-8.09 0.055,0.013 5.882,-13.149 -11.875,-2.741 z"
         transform="translate(-495.25391,-227.1759)"
         id="path67" />
    </clipPath>
  </defs>
  <sodipodi:namedview
     id="namedview1"
     pagecolor="#ffffff"
     bordercolor="#000000"
     borderopacity="0.25"
     inkscape:showpageshadow="2"
     inkscape:pageopacity="0.0"
     inkscape:pagecheckerboard="0"
     inkscape:deskcolor="#d1d1d1">
    <inkscape:page
       x="0"
       y="0"
       inkscape:label="1"
       id="page1"
       width="666.66669"
       height="666.66669"
       margin="0"
       bleed="0" />
  </sodipodi:namedview>
  <g
     id="layer-MC0"
     inkscape:groupmode="layer"
     inkscape:label="Layer 1">
    <path
       id="path1"
       d="M 0,0 H 500 V 500 H 0 Z"
       style="fill:#4a31ff;fill-opacity:1;fill-rule:nonzero;stroke:none"
       transform="matrix(1.3333333,0,0,-1.3333333,0,666.66667)" />
    <path
       id="path2"
       d="m 0,0 -25.055,-2.824 -16.477,19.025 -5.003,-24.722 -23.249,-9.827 21.888,-12.4 2.191,-25.015 18.573,16.914 24.531,-5.758 -10.385,22.948 z"
       style="fill:#ffffff;fill-opacity:1;fill-rule:nonzero;stroke:none"
       transform="matrix(1.3333333,0,0,-1.3333333,655.6784,533.28627)" />
    <path
       id="path3"
       d="M 0,0 -15.344,-1.729 -25.436,9.923 -28.5,-5.218 l -14.238,-6.018 13.405,-7.595 1.342,-15.319 11.375,10.358 15.023,-3.527 -6.36,14.054 z"
       style="fill:#ffffff;fill-opacity:1;fill-rule:nonzero;stroke:none"
       transform="matrix(1.3333333,0,0,-1.3333333,77.495467,515.104)" />
    <path
       id="path4"
       d="m 0,0 -15.344,-1.729 -10.092,11.651 -3.064,-15.14 -14.238,-6.018 13.405,-7.595 1.342,-15.319 11.375,10.358 15.023,-3.527 -6.36,14.054 z"
       style="fill:#ffffff;fill-opacity:1;fill-rule:nonzero;stroke:none"
       transform="matrix(1.3333333,0,0,-1.3333333,77.495467,83.174267)" />
    <path
       id="path5"
       d="m 0,0 -6.997,-0.789 -4.603,5.314 -1.397,-6.904 -6.493,-2.745 6.113,-3.463 0.612,-6.987 5.188,4.724 6.85,-1.608 -2.9,6.409 z"
       style="fill:#ffffff;fill-opacity:1;fill-rule:nonzero;stroke:none"
       transform="matrix(1.3333333,0,0,-1.3333333,639.97133,37.192533)" />
    <path
       id="path6"
       d="m 0,0 -6.997,-0.789 -4.603,5.314 -1.397,-6.905 -6.493,-2.744 6.113,-3.464 0.612,-6.986 5.188,4.723 6.85,-1.608 -2.9,6.409 z"
       style="fill:#ffffff;fill-opacity:1;fill-rule:nonzero;stroke:none"
       transform="matrix(1.3333333,0,0,-1.3333333,463.32027,539.52973)" />
    <path
       id="path7"
       d="m 0,0 -13.064,6.786 -1.794,14.587 -10.472,-10.355 -14.469,2.804 6.573,-13.136 -7.08,-12.839 14.509,2.153 10.017,-10.776 2.435,14.504 z"
       style="fill:#ffffff;fill-opacity:1;fill-rule:nonzero;stroke:none"
       transform="matrix(1.3333333,0,0,-1.3333333,338.65493,86.4608)" />
    <path
       id="path8"
       d="m 0,0 -12.125,-21.988 17.34,2.572 v 38.721 l -16.472,3.192 z"
       style="fill:#ff6b18;fill-opacity:1;fill-rule:nonzero;stroke:none"
       transform="matrix(1.3333333,0,0,-1.3333333,659.7144,202.46947)" />
    <path
       id="path9"
       d="m 0,0 -6.154,3.423 -0.659,6.999 -5.148,-4.808 -6.88,1.538 2.964,-6.37 -3.561,-6.043 6.967,0.832 4.642,-5.29 1.363,6.902 z"
       style="fill:#f15a22;fill-opacity:1;fill-rule:nonzero;stroke:none"
       transform="matrix(1.3333333,0,0,-1.3333333,213.99213,138.30253)" />
    <path
       id="path10"
       d="m 0,0 v -18.444 l 0.361,-0.411 1.363,6.903 6.466,2.816 -6.153,3.424 -0.66,6.998 z"
       style="fill:#f15a22;fill-opacity:1;fill-rule:nonzero;stroke:none"
       transform="matrix(1.3333333,0,0,-1.3333333,0,437.15733)" />
    <path
       id="path11"
       d="m 0,0 -6.88,1.538 2.964,-6.37 -3.56,-6.043 6.967,0.832 4.641,-5.289 1.363,6.901 4.989,2.173 v 1.466 L 5.808,-2.191 5.149,4.808 Z"
       style="fill:#f15a22;fill-opacity:1;fill-rule:nonzero;stroke:none"
       transform="matrix(1.3333333,0,0,-1.3333333,652.6884,436.14907)" />
    <path
       id="path12"
       d="m 0,0 -6.154,3.423 -0.659,6.999 -5.149,-4.808 -6.88,1.538 2.964,-6.37 -3.56,-6.042 6.966,0.831 4.643,-5.29 1.362,6.902 z"
       style="fill:#f15a22;fill-opacity:1;fill-rule:nonzero;stroke:none"
       transform="matrix(1.3333333,0,0,-1.3333333,572.25387,99.795467)" />
    <path
       id="path13"
       d="m 0,0 -13.064,6.786 -1.795,14.587 -10.472,-10.355 -14.468,2.803 6.573,-13.135 -7.08,-12.839 14.509,2.153 10.016,-10.776 2.436,14.504 z"
       style="fill:#f15a22;fill-opacity:1;fill-rule:nonzero;stroke:none"
       transform="matrix(1.3333333,0,0,-1.3333333,188.7272,616.78627)" />
    <path
       id="path14"
       d="m 0,0 -6.574,1.274 v -23.198 l 6.108,0.906 10.016,-10.776 2.436,14.504 13.345,6.272 -13.065,6.786 -1.794,14.587 z"
       style="fill:#f15a22;fill-opacity:1;fill-rule:nonzero;stroke:none"
       transform="matrix(1.3333333,0,0,-1.3333333,8.766,212.05747)" />
    <path
       id="path15"
       d="m 0,0 -6.154,3.423 -0.658,6.999 -5.149,-4.808 -6.88,1.538 2.964,-6.37 -3.56,-6.043 6.966,0.832 4.642,-5.29 1.363,6.902 z"
       style="fill:#faa61a;fill-opacity:1;fill-rule:nonzero;stroke:none"
       transform="matrix(1.3333333,0,0,-1.3333333,168.99613,53.933467)" />
    <path
       id="path16"
       d="m 0,0 -6.154,3.423 -0.659,6.999 -5.148,-4.808 -6.88,1.538 2.964,-6.37 -3.561,-6.042 6.967,0.831 4.642,-5.29 1.363,6.903 z"
       style="fill:#faa61a;fill-opacity:1;fill-rule:nonzero;stroke:none"
       transform="matrix(1.3333333,0,0,-1.3333333,33.333333,362.22907)" />
    <path
       id="path17"
       d="m 0,0 -3.422,0.765 v -11.156 l 2.913,0.348 4.642,-5.29 1.362,6.903 6.467,2.816 -6.155,3.423 -0.658,6.999 z"
       style="fill:#faa61a;fill-opacity:1;fill-rule:nonzero;stroke:none"
       transform="matrix(1.3333333,0,0,-1.3333333,4.5624,622.06627)" />
    <path
       id="path18"
       d="m 0,0 -6.154,3.424 -0.659,6.998 -5.149,-4.808 -6.88,1.538 2.964,-6.37 -3.56,-6.043 6.966,0.832 4.642,-5.29 1.363,6.903 z"
       style="fill:#faa61a;fill-opacity:1;fill-rule:nonzero;stroke:none"
       transform="matrix(1.3333333,0,0,-1.3333333,523.86453,629.55187)" />
    <path
       id="path19"
       d="m 0,0 -3.56,-6.043 5.074,0.606 V 5.368 L -2.965,6.37 Z"
       style="fill:#faa61a;fill-opacity:1;fill-rule:nonzero;stroke:none"
       transform="matrix(1.3333333,0,0,-1.3333333,664.6488,340.03507)" />
    <path
       id="path20"
       d="m 0,0 -22.374,11.623 -3.074,24.981 -17.935,-17.735 -24.78,4.803 11.258,-22.497 -12.125,-21.988 24.848,3.687 17.155,-18.457 4.172,24.842 z"
       style="fill:#faa61a;fill-opacity:1;fill-rule:nonzero;stroke:none"
       transform="matrix(1.3333333,0,0,-1.3333333,378.9492,598.384)" />
    <path
       id="path21"
       d="m 0,0 -13.064,6.786 -1.795,14.587 -10.472,-10.355 -14.469,2.804 6.573,-13.136 -7.079,-12.839 14.508,2.153 10.017,-10.776 2.435,14.504 z"
       style="fill:#faa61a;fill-opacity:1;fill-rule:nonzero;stroke:none"
       transform="matrix(1.3333333,0,0,-1.3333333,469.3464,59.628133)" />
    <path
       id="path22"
       d="m 0,0 c 4.404,11.292 6.697,23.391 6.697,35.595 0,53.936 -43.879,97.816 -97.814,97.816 -31.432,0 -60.413,-15.018 -78.608,-39.578 -12.61,6.3 -26.608,9.653 -40.909,9.653 -18.892,0 -37.032,-5.715 -52.46,-16.525 -7.999,-5.606 -14.972,-12.361 -20.734,-20.029 -15.474,9.71 -33.541,15.032 -52.051,15.032 -53.936,0 -97.815,-43.88 -97.815,-97.815 0,-21.682 6.951,-42.225 20.102,-59.406 9.185,-12.001 21.143,-21.754 34.624,-28.402 -0.184,-2.361 -0.276,-4.732 -0.276,-7.107 0,-50.102 40.761,-90.862 90.863,-90.862 18.796,0 36.837,5.694 52.174,16.467 9.124,6.41 16.896,14.323 23.043,23.385 10.258,-3.876 21.183,-5.88 32.342,-5.88 28.087,0 54.478,13.123 71.641,34.614 11.298,-5.039 23.559,-7.649 36.24,-7.649 49.211,0 89.247,40.035 89.247,89.246 C 16.306,-32.812 10.589,-14.963 0,0"
       style="fill:#00b3f0;fill-opacity:1;fill-rule:nonzero;stroke:none"
       transform="matrix(1.3333333,0,0,-1.3333333,611.5924,287.85467)"
       clip-path="url(#clipPath23)" />
    <path
       id="path24"
       d="m 0,0 c 5.382,11.543 8.203,24.227 8.203,37.046 0,48.319 -39.309,87.629 -87.628,87.629 -31.224,0 -59.747,-16.539 -75.391,-42.936 -13.077,8.448 -28.396,13.011 -44.126,13.011 -16.79,0 -32.91,-5.076 -46.615,-14.681 -9.863,-6.912 -17.971,-15.788 -23.883,-26.067 -15.444,12.332 -34.81,19.227 -54.748,19.227 -48.319,0 -87.629,-39.311 -87.629,-87.63 0,-36.103 22.463,-68.529 55.554,-81.567 -0.734,-4.398 -1.104,-8.863 -1.104,-13.347 0,-44.486 36.192,-80.678 80.677,-80.678 16.69,0 32.707,5.055 46.32,14.618 10.432,7.328 18.877,16.871 24.808,27.952 11.25,-5.648 23.667,-8.597 36.431,-8.597 27.761,0 53.657,14.425 68.482,37.462 11.931,-6.895 25.373,-10.497 39.4,-10.497 43.594,0 79.06,35.467 79.06,79.06 C 17.811,-31.61 11.529,-14.089 0,0"
       style="fill:#ffffff;fill-opacity:1;fill-rule:nonzero;stroke:none"
       transform="matrix(1.3333333,0,0,-1.3333333,596.00387,289.78827)"
       clip-path="url(#clipPath25)" />
    <path
       id="path26"
       d="m 0,0 c 6.359,11.361 9.989,24.457 9.989,38.402 0,43.485 -35.251,78.737 -78.736,78.737 -32.369,0 -60.171,-19.535 -72.273,-47.455 -12.683,10.924 -29.192,17.53 -47.245,17.53 -30.886,0 -57.253,-19.335 -67.669,-46.56 -14.372,15.404 -34.847,25.038 -57.577,25.038 -43.485,0 -78.737,-35.252 -78.737,-78.737 0,-35.964 24.113,-66.295 57.053,-75.711 -1.693,-6.113 -2.602,-12.552 -2.602,-19.204 0,-39.645 32.139,-71.785 71.785,-71.785 30.67,0 56.844,19.237 67.124,46.302 11.548,-7.785 25.46,-12.329 40.435,-12.329 28.851,0 53.76,16.87 65.407,41.282 11.791,-8.981 26.509,-14.317 42.475,-14.317 38.753,0 70.168,31.415 70.168,70.168 C 19.597,-29.754 12.134,-12.613 0,0"
       style="fill:#130c0e;fill-opacity:1;fill-rule:nonzero;stroke:none"
       transform="matrix(1.3333333,0,0,-1.3333333,581.76693,291.59613)"
       clip-path="url(#clipPath27)" />
    <path
       id="path28"
       d="m 0,0 -119.883,-27.678 9.493,-41.118 119.883,27.678 z"
       style="fill:#130c0e;fill-opacity:1;fill-rule:nonzero;stroke:none"
       transform="matrix(1.3333333,0,0,-1.3333333,463.6068,408.10787)"
       clip-path="url(#clipPath29)" />
    <path
       id="path30"
       d="m 0,0 v 6.056 l -1.522,-6.408 -1.65,-0.38 -1.486,5.713 v -6.056 l -1.559,-0.36 v 7.249 l 2.436,0.563 1.468,-5.412 0.018,0.005 1.432,6.08 2.403,0.555 V 0.355 Z M -11.254,-2.598 V 3.366 L -13.761,2.787 V 4.068 L -7.129,5.6 V 4.318 L -9.546,3.76 v -5.964 z"
       style="fill:#f15a22;fill-opacity:1;fill-rule:nonzero;stroke:none"
       transform="matrix(1.3333333,0,0,-1.3333333,581.75907,391.48613)"
       clip-path="url(#clipPath31)" />
    <path
       id="path32"
       d="m 0,0 c 0,0 -0.112,-29.429 -0.479,-34.605 -0.572,-8.086 -2.745,-8.303 -4.593,-7.09 -3.69,2.42 -10.583,16.202 -16.755,28.187 l -9.005,-2.078 v -74.473 l 11.011,2.542 0.037,18.897 c 0.019,9.7 2.668,10.331 6.515,6.807 2.921,-2.674 6.895,-8.57 13.157,-18.596 l 14.57,3.365 V 3.338 Z"
       style="fill:#f15a22;fill-opacity:1;fill-rule:nonzero;stroke:none"
       transform="matrix(1.3333333,0,0,-1.3333333,537.1588,288.73427)"
       clip-path="url(#clipPath33)" />
    <path
       id="path34"
       d="m 0,0 c -0.334,-0.002 -2.808,0.083 -3.071,1.969 -0.154,1.093 0.371,2.119 1.69,2.927 2.064,1.262 9.208,3.315 16.065,4.923 V 19.3 c 0,0 -12.415,-2.987 -16.234,-2.419 -1.159,0.172 -1.931,0.785 -2.086,1.856 -0.156,1.096 0.396,2.082 1.692,2.927 3.492,2.273 19.164,5.655 19.164,5.655 v 21.876 l -32.269,-7.449 v -58.318 l 32.945,7.606 V 3.151 C 9.104,1.153 3.159,0.017 0,0"
       style="fill:#f15a22;fill-opacity:1;fill-rule:nonzero;stroke:none"
       transform="matrix(1.3333333,0,0,-1.3333333,463.05733,388.20227)"
       clip-path="url(#clipPath35)" />
    <path
       id="path36"
       d="m 0,0 c 0,0 -3.496,-23.032 -6.6,-33.675 -0.886,-3.041 -3.031,-7.695 -5.946,-1.041 -1.045,2.383 -4.144,13.517 -6.42,27.87 L -29.033,-9.17 c 0.881,-9.869 5.714,-36.525 12.153,-52.055 l 19.525,4.508 c 7.186,19.019 11.498,39.107 12.963,60.321 z"
       style="fill:#f15a22;fill-opacity:1;fill-rule:nonzero;stroke:none"
       transform="matrix(1.3333333,0,0,-1.3333333,415.49213,330.18867)"
       clip-path="url(#clipPath37)" />
    <path
       id="path38"
       d="m 0,0 c -1.556,-0.339 -5.094,-1.235 -6.901,-1.573 -1.73,-0.339 -2.742,0.637 -2.528,3.106 0.195,2.31 1.21,7.208 1.595,8.862 0.851,3.658 2.523,5.182 4.49,5.457 C -0.823,16.203 1.38,14 2.585,8.025 2.701,7.448 2.996,6.249 3.188,4.62 3.42,2.642 2.449,0.617 0,0 M 8.604,33.015 C 3.719,42.017 -1.964,40.151 -4.875,39.188 -8.689,37.926 -12.076,35.967 -15.619,21.914 -19.343,7.141 -23.397,-23.89 -23.397,-23.89 l 10.223,2.361 1.05,5.883 c 0.507,2.841 2.315,4.646 5.073,5.458 0,0 7.921,2.056 10.624,2.363 1.143,0.13 2.486,-0.772 2.875,-2.56 l 1.381,-6.33 13.922,3.214 c 0,0 -6.925,35.054 -13.147,46.516"
       style="fill:#f15a22;fill-opacity:1;fill-rule:nonzero;stroke:none"
       transform="matrix(1.3333333,0,0,-1.3333333,357.81253,416.42307)"
       clip-path="url(#clipPath39)" />
    <path
       id="path40"
       d="m 0,0 c -0.334,-0.002 -2.808,0.082 -3.072,1.969 -0.153,1.093 0.371,2.119 1.691,2.926 2.064,1.263 9.208,3.316 16.064,4.924 V 19.3 c 0,0 -12.415,-2.987 -16.233,-2.42 -1.159,0.173 -1.932,0.786 -2.086,1.857 -0.156,1.096 0.395,2.082 1.691,2.927 3.492,2.273 19.164,5.654 19.164,5.654 v 23.581 l -32.268,-7.45 v -58.318 l 32.945,7.606 V 3.151 C 9.103,1.153 3.16,0.017 0,0"
       style="fill:#f15a22;fill-opacity:1;fill-rule:nonzero;stroke:none"
       transform="matrix(1.3333333,0,0,-1.3333333,296.5176,432.0448)"
       clip-path="url(#clipPath41)" />
    <path
       id="path42"
       d="m 0,0 c 0,-11.637 0.059,-20.347 -1.536,-26.054 -0.968,-3.466 -3.1,-6.105 -5.946,-8.102 -2.899,-2.035 -5.806,-2.926 -8.652,-2.983 -3.471,-0.068 -6.008,1.821 -6.379,5.677 -0.533,5.54 -0.498,12.542 -0.498,22.243 l -12.597,-2.908 v -85.81 l 17.304,3.995 c 0,10.92 0.223,18.97 1.57,23.99 0.917,3.422 3.412,6.309 5.931,8.011 2.944,1.988 5.652,2.982 8.504,3.028 3.467,0.057 6.099,-1.733 6.426,-5.189 0.479,-5.065 0.51,-11.951 0.51,-21.35 l 12.822,2.96 V 4.031 Z"
       style="fill:#f15a22;fill-opacity:1;fill-rule:nonzero;stroke:none"
       transform="matrix(1.3333333,0,0,-1.3333333,243.13933,367.13467)"
       clip-path="url(#clipPath43)" />
    <path
       id="path44"
       d="m 0,0 v 74.717 l -10.214,-2.358 c -5.417,-17.888 -8.481,-26.636 -11.154,-34.008 -4.549,-12.548 -9.279,-7.622 -11.474,-4.12 -2.565,4.096 -6.038,12.078 -12.076,26.693 L -59.834,57.48 v -69.136 l 12.369,2.855 c -0.095,11.192 0.1,17.715 0.704,20.667 0.543,2.653 2.141,3.027 3.762,0.395 1.333,-2.164 3.442,-6.846 7.637,-16.477 l 8.295,1.915 c 4.571,12.283 7.041,18.471 8.784,21.503 1.416,2.462 4.095,4.194 4.909,-0.357 0.617,-3.443 0.564,-10.37 0.546,-21.807 z"
       style="fill:#faa61a;fill-opacity:1;fill-rule:nonzero;stroke:none"
       transform="matrix(1.3333333,0,0,-1.3333333,535.4648,275.44973)"
       clip-path="url(#clipPath45)" />
    <path
       id="path46"
       d="m 0,0 c 0,0 0.246,-16.228 -0.308,-21.6 -0.733,-7.129 -13.371,-9.591 -13.906,-2.304 -0.238,3.252 -0.422,7.447 -0.422,17.025 l -10.327,-2.385 v -64.004 l 14.161,3.269 v 14.781 c 0,11.368 14.122,12.319 14.882,4.373 0.239,-2.499 0.361,-6.394 0.361,-14.477 l 10.329,2.384 V 3.41 Z"
       style="fill:#faa61a;fill-opacity:1;fill-rule:nonzero;stroke:none"
       transform="matrix(1.3333333,0,0,-1.3333333,427.99347,221.4744)"
       clip-path="url(#clipPath47)" />
    <path
       id="path48"
       d="m 0,0 v -26.377 l 9.529,2.2 c 3.798,0.877 5.131,0.071 5.104,-7.559 v -33.897 l 11.29,2.606 v 31.368 c 0.078,13.467 1.658,16.254 8.355,17.8 l 5.98,1.38 V 9.294 Z"
       style="fill:#faa61a;fill-opacity:1;fill-rule:nonzero;stroke:none"
       transform="matrix(1.3333333,0,0,-1.3333333,333.67453,233.72253)"
       clip-path="url(#clipPath49)" />
    <path
       id="path50"
       d="m 0,0 -12.041,-2.78 c 0,0 -0.075,-9.111 -0.741,-21.178 -0.708,-12.826 -14.526,-16.759 -15.315,-3.711 -0.504,8.335 -0.424,19.636 -0.424,19.636 l -14.413,-3.327 v -6.171 c 0,-24.031 2.761,-32.186 17.277,-30.618 3.395,0.366 5.979,1.444 8.892,3.417 0.182,0.123 0.412,0.125 0.628,-0.042 0.207,-0.161 0.543,-0.7 0.038,-2.268 -2.722,-8.45 -26.03,-10.961 -26.03,-10.961 l -0.006,-18.884 c 13.324,1.961 27.827,4.798 35.438,17.442 C -3.854,-54.722 0,-49.02 0,0"
       style="fill:#faa61a;fill-opacity:1;fill-rule:nonzero;stroke:none"
       transform="matrix(1.3333333,0,0,-1.3333333,326.24093,248.65547)"
       clip-path="url(#clipPath51)" />
    <path
       id="path52"
       d="m 0,0 c 0,0 0.233,-15.422 -0.292,-20.528 -0.698,-6.776 -12.708,-9.116 -13.217,-2.19 -0.226,3.091 -0.4,7.078 -0.4,16.18 l -9.816,-2.266 v -60.828 l 13.459,3.107 v 14.047 c 0,10.805 13.421,11.708 14.144,4.156 0.227,-2.375 0.343,-6.076 0.343,-13.759 l 9.815,2.267 V 3.241 Z"
       style="fill:#faa61a;fill-opacity:1;fill-rule:nonzero;stroke:none"
       transform="matrix(1.3333333,0,0,-1.3333333,241.3528,262.1684)"
       clip-path="url(#clipPath53)" />
    <path
       id="path54"
       d="m 0,0 c -6.163,-1.571 -9.798,1.73 -9.798,10.015 0,6.608 0.125,13.43 12.223,13.43 8.613,0 12.215,-4.362 12.215,-9.281 C 14.64,9.879 9.397,2.396 0,0 m 36.168,27.295 c 0,15.217 -11.211,33.621 -58.12,22.331 V -33.13 l 12.215,2.82 v 14.952 c 0,6.077 3.502,4.957 5.736,3.502 1.735,-1.13 5.415,-4.096 14.114,-13.872 l 20.753,4.791 -16.172,16.558 c 0,0 21.474,8.647 21.474,31.674"
       style="fill:#faa61a;fill-opacity:1;fill-rule:nonzero;stroke:none"
       transform="matrix(1.3333333,0,0,-1.3333333,152.80987,322.30187)"
       clip-path="url(#clipPath55)" />
    <path
       id="path56"
       d="m 0,0 v 19.593 l -239.746,-55.349 -21.832,-56.672 22.805,5.265 3.417,9.246 9.745,2.25 3.473,-7.655 107.879,24.905 3.416,9.246 9.746,2.25 3.474,-7.654 L 0,-32.038 v 19.592 l -4.313,-0.996 v 12.446 z"
       style="fill:#130c0e;fill-opacity:1;fill-rule:nonzero;stroke:none"
       transform="matrix(1.3333333,0,0,-1.3333333,617.2252,426.46987)"
       clip-path="url(#clipPath57)" />
    <path
       id="path58"
       d="M 0,0 -32.711,-7.552 V 31.656 L 0,39.208 v -7.169 l -24.141,-5.574 v -8.513 l 19.829,4.577 v -7.17 L -24.141,10.781 V 1.596 L 0,7.169 Z m -48.282,18.427 c 0,0.673 -0.235,1.197 -0.7,1.575 -0.468,0.377 -1.038,0.489 -1.709,0.334 l -16.468,-3.802 v -24.87 l 16.468,3.802 c 0.671,0.155 1.241,0.529 1.709,1.123 0.465,0.593 0.7,1.225 0.7,1.898 z m 8.569,-19.081 c 0,-1.121 -0.225,-2.246 -0.672,-3.376 -0.448,-1.132 -1.055,-2.177 -1.82,-3.138 -0.766,-0.961 -1.672,-1.795 -2.717,-2.503 -1.046,-0.709 -2.166,-1.2 -3.36,-1.476 l -27.39,-6.324 v 39.209 l 27.39,6.323 c 1.12,0.259 2.202,0.284 3.248,0.078 1.046,-0.207 1.961,-0.603 2.745,-1.187 0.784,-0.584 1.408,-1.336 1.876,-2.255 0.467,-0.92 0.7,-1.976 0.7,-3.171 z m -66.653,-8.276 11.875,2.743 -5.882,13.149 -0.056,-0.014 z m 18.26,-11.411 -3.473,7.655 -17.756,-4.099 -3.417,-9.246 -8.514,-1.965 16.579,43.036 8.515,1.965 16.58,-35.38 z m -61.445,-14.185 c -1.121,-0.259 -2.193,-0.283 -3.221,-0.073 -1.028,0.212 -1.932,0.61 -2.716,1.194 -0.784,0.584 -1.41,1.336 -1.877,2.256 -0.467,0.918 -0.7,1.975 -0.7,3.17 v 22.181 c 0,1.12 0.224,2.245 0.672,3.376 0.449,1.13 1.054,2.176 1.821,3.137 0.765,0.961 1.661,1.792 2.689,2.497 1.027,0.704 2.137,1.193 3.332,1.47 l 17.756,4.099 c 1.12,0.259 2.193,0.282 3.221,0.072 1.026,-0.212 1.941,-0.608 2.744,-1.188 0.803,-0.58 1.436,-1.34 1.904,-2.276 0.467,-0.939 0.7,-1.987 0.7,-3.144 v -3.024 l -8.569,-1.979 v 1.961 c 0,0.672 -0.234,1.187 -0.7,1.547 -0.468,0.357 -1.036,0.461 -1.708,0.306 l -12.94,-2.988 c -0.671,-0.155 -1.241,-0.53 -1.708,-1.123 -0.466,-0.593 -0.7,-1.225 -0.7,-1.898 v -19.94 c 0,-0.672 0.234,-1.197 0.7,-1.575 0.467,-0.378 1.037,-0.489 1.708,-0.334 l 12.94,2.988 c 0.672,0.155 1.24,0.519 1.708,1.094 0.466,0.574 0.7,1.199 0.7,1.87 v 1.961 l 8.569,1.979 v -3.026 c 0,-1.194 -0.233,-2.36 -0.7,-3.494 -0.468,-1.135 -1.101,-2.177 -1.904,-3.128 -0.803,-0.951 -1.718,-1.768 -2.744,-2.454 -1.028,-0.684 -2.101,-1.157 -3.221,-1.416 z m -23.189,24.219 c 0,0.673 -0.234,1.198 -0.7,1.576 -0.467,0.377 -1.036,0.489 -1.708,0.334 l -16.467,-3.802 v -10.363 l 16.467,3.802 c 0.672,0.156 1.241,0.53 1.708,1.122 0.466,0.593 0.7,1.226 0.7,1.899 z m 0,9.635 c 1.121,0.259 2.193,0.282 3.221,0.071 1.027,-0.211 1.933,-0.609 2.716,-1.193 0.784,-0.585 1.409,-1.337 1.877,-2.255 0.467,-0.92 0.7,-1.976 0.7,-3.172 v -7.673 c 0,-1.121 -0.215,-2.244 -0.643,-3.37 -0.431,-1.126 -1.057,-2.175 -1.878,-3.149 -0.821,-0.974 -1.801,-1.825 -2.94,-2.555 -1.139,-0.731 -2.437,-1.262 -3.892,-1.599 l 9.857,-12.231 -9.242,-2.134 -9.858,12.231 -8.793,-2.03 v -14.507 l -8.571,-1.979 v 39.208 z m -58.14,-37.004 11.875,2.742 -5.882,13.149 -0.056,-0.013 z m 18.26,-11.411 -3.474,7.655 -17.755,-4.099 -3.417,-9.246 -8.513,-1.966 16.579,43.036 8.513,1.966 16.581,-35.381 z"
       style="fill:#ffcc3e;fill-opacity:1;fill-rule:nonzero;stroke:none"
       transform="matrix(1.3333333,0,0,-1.3333333,609.15493,462.768)"
       clip-path="url(#clipPath59)" />
    <path
       id="path60"
       d="m 0,0 -299.676,-69.206 11.752,-46.32 299.677,69.206 z"
       style="fill:#ffd880;fill-opacity:1;fill-rule:nonzero;stroke:none"
       transform="matrix(1.3333333,0,0,-1.3333333,660.33853,363.76547)"
       clip-path="url(#clipPath61)" />
    <path
       id="path62"
       d="m 0,0 -299.676,-69.206 10.723,-43.707 299.677,69.206 z"
       style="fill:#ffeac0;fill-opacity:1;fill-rule:nonzero;stroke:none"
       transform="matrix(1.3333333,0,0,-1.3333333,660.33853,363.76547)"
       clip-path="url(#clipPath63)" />
    <path
       id="path64"
       d="m 0,0 -299.676,-69.206 9.768,-41.491 299.677,69.206 z"
       style="fill:#fff7e6;fill-opacity:1;fill-rule:nonzero;stroke:none"
       transform="matrix(1.3333333,0,0,-1.3333333,660.33853,363.76547)"
       clip-path="url(#clipPath65)" />
    <path
       id="path66"
       d="m 0,0 -299.676,-69.206 9.41,-39.562 299.677,69.207 z"
       style="fill:#ffffff;fill-opacity:1;fill-rule:nonzero;stroke:none"
       transform="matrix(1.3333333,0,0,-1.3333333,660.33853,363.76547)"
       clip-path="url(#clipPath67)" />
  </g>
</svg>
