<?xml version="1.0" encoding="UTF-8" standalone="no"?>
<!-- Created with Inkscape (http://www.inkscape.org/) -->

<svg
   version="1.1"
   id="svg1"
   width="666.66669"
   height="347.64932"
   viewBox="0 0 666.66669 347.64932"
   sodipodi:docname="Rhythm World Arcade (리듬 세상 ＡＲＣＡＤＥ) Logo (Sharp Gradient).ai"
   xmlns:inkscape="http://www.inkscape.org/namespaces/inkscape"
   xmlns:sodipodi="http://sodipodi.sourceforge.net/DTD/sodipodi-0.dtd"
   xmlns="http://www.w3.org/2000/svg"
   xmlns:svg="http://www.w3.org/2000/svg">
  <defs
     id="defs1">
    <clipPath
       clipPathUnits="userSpaceOnUse"
       id="clipPath2">
      <path
         d="M 0,260.737 H 500 V 0 H 0 Z"
         transform="translate(-399.43071,-252.21191)"
         id="path2" />
    </clipPath>
    <clipPath
       clipPathUnits="userSpaceOnUse"
       id="clipPath4">
      <path
         d="M 0,260.737 H 500 V 0 H 0 Z"
         transform="translate(-399.43071,-244.41261)"
         id="path4" />
    </clipPath>
    <clipPath
       clipPathUnits="userSpaceOnUse"
       id="clipPath6">
      <path
         d="M 0,260.737 H 500 V 0 H 0 Z"
         transform="translate(-399.43071,-237.63771)"
         id="path6" />
    </clipPath>
    <clipPath
       clipPathUnits="userSpaceOnUse"
       id="clipPath8">
      <path
         d="M 0,260.737 H 500 V 0 H 0 Z"
         transform="translate(-360.32321,-102.6787)"
         id="path8" />
    </clipPath>
    <clipPath
       clipPathUnits="userSpaceOnUse"
       id="clipPath10">
      <path
         d="M 0,260.737 H 500 V 0 H 0 Z"
         transform="translate(-488.98541,-97.191402)"
         id="path10" />
    </clipPath>
    <clipPath
       clipPathUnits="userSpaceOnUse"
       id="clipPath12">
      <path
         d="M 0,260.737 H 500 V 0 H 0 Z"
         transform="translate(-483.08591,-70.651399)"
         id="path12" />
    </clipPath>
    <clipPath
       clipPathUnits="userSpaceOnUse"
       id="clipPath14">
      <path
         d="M 451.196,101.513 V 63.289 l 31.89,7.363 v 6.988 l -23.535,-5.433 v 8.955 l 19.33,4.463 v 6.99 l -19.33,-4.463 v 8.3 l 23.535,5.433 v 6.99 z m -15.18,-3.505 -26.701,-6.164 V 53.62 l 26.701,6.165 c 1.164,0.268 2.256,0.747 3.276,1.438 v 0 c 1.019,0.691 1.901,1.504 2.648,2.441 v 0 c 0.747,0.936 1.338,1.956 1.774,3.058 v 0 c 0.438,1.102 0.656,2.199 0.656,3.292 v 0 21.623 c 0,1.165 -0.227,2.195 -0.683,3.092 v 0 c -0.456,0.895 -1.064,1.628 -1.828,2.197 v 0 c -0.765,0.57 -1.657,0.956 -2.676,1.158 v 0 c -0.453,0.089 -0.913,0.134 -1.381,0.134 v 0 c -0.584,0 -1.179,-0.07 -1.786,-0.21 m -18.403,-11.237 16.055,3.706 c 0.655,0.151 1.21,0.041 1.665,-0.326 v 0 c 0.454,-0.369 0.683,-0.879 0.683,-1.536 v 0 -19.438 c 0,-0.656 -0.229,-1.273 -0.683,-1.851 v 0 c -0.455,-0.579 -1.01,-0.943 -1.665,-1.095 v 0 l -16.055,-3.705 z m -36.584,-1.457 -16.163,-41.956 8.301,1.917 3.331,9.014 17.309,3.996 3.386,-7.464 8.3,1.917 -16.164,34.492 z m 4.15,-7.888 0.055,0.013 5.734,-12.82 -11.577,-2.672 z m -30.577,1.786 -17.311,-3.996 c -1.165,-0.269 -2.247,-0.747 -3.248,-1.433 v 0 c -1.002,-0.688 -1.875,-1.498 -2.622,-2.435 v 0 c -0.747,-0.936 -1.337,-1.955 -1.774,-3.057 v 0 c -0.437,-1.102 -0.656,-2.199 -0.656,-3.292 v 0 -21.623 c 0,-1.165 0.228,-2.196 0.683,-3.092 v 0 c 0.455,-0.896 1.064,-1.629 1.83,-2.198 v 0 c 0.764,-0.57 1.645,-0.957 2.647,-1.163 v 0 c 1.003,-0.205 2.048,-0.183 3.14,0.069 v 0 l 17.311,3.997 c 1.091,0.253 2.138,0.713 3.139,1.379 v 0 c 1.001,0.669 1.893,1.466 2.676,2.393 v 0 c 0.781,0.927 1.4,1.943 1.856,3.05 v 0 c 0.456,1.105 0.683,2.242 0.683,3.407 v 0 2.948 l -8.354,-1.929 v -1.911 c 0,-0.655 -0.229,-1.263 -0.683,-1.823 v 0 c -0.456,-0.561 -1.011,-0.916 -1.665,-1.068 v 0 l -12.615,-2.912 c -0.655,-0.151 -1.21,-0.042 -1.666,0.327 v 0 c -0.454,0.367 -0.682,0.878 -0.682,1.535 v 0 19.438 c 0,0.656 0.228,1.272 0.682,1.851 v 0 c 0.456,0.578 1.011,0.943 1.666,1.095 v 0 l 12.615,2.911 c 0.654,0.152 1.209,0.052 1.665,-0.297 v 0 c 0.454,-0.351 0.683,-0.854 0.683,-1.508 v 0 -1.912 l 8.354,1.928 v 2.95 c 0,1.127 -0.227,2.149 -0.683,3.063 v 0 c -0.456,0.915 -1.075,1.654 -1.856,2.221 v 0 c -0.783,0.565 -1.675,0.95 -2.676,1.157 v 0 c -0.449,0.092 -0.908,0.138 -1.375,0.138 v 0 c -0.574,0 -1.163,-0.069 -1.764,-0.208 M 314.686,69.996 287.93,63.819 V 25.597 l 8.354,1.929 v 14.142 l 8.572,1.978 9.611,-11.924 9.009,2.081 -9.609,11.923 c 1.419,0.329 2.684,0.847 3.795,1.56 v 0 c 1.11,0.711 2.066,1.541 2.867,2.49 v 0 c 0.8,0.95 1.409,1.973 1.828,3.072 v 0 c 0.418,1.096 0.629,2.192 0.629,3.284 v 0 7.48 c 0,1.166 -0.228,2.196 -0.683,3.092 v 0 c -0.457,0.896 -1.065,1.629 -1.829,2.199 v 0 c -0.765,0.57 -1.648,0.958 -2.649,1.164 v 0 c -0.45,0.092 -0.908,0.138 -1.375,0.137 v 0 c -0.575,0 -1.162,-0.069 -1.764,-0.208 m -18.402,-11.237 16.053,3.706 c 0.656,0.153 1.21,0.043 1.666,-0.325 v 0 c 0.455,-0.369 0.683,-0.881 0.683,-1.536 v 0 -5.295 c 0,-0.657 -0.228,-1.274 -0.683,-1.851 v 0 c -0.456,-0.579 -1.01,-0.943 -1.666,-1.095 v 0 l -16.053,-3.707 z m -36.64,-1.469 -16.163,-41.956 8.3,1.917 3.33,9.014 17.31,3.996 3.386,-7.463 8.3,1.916 -16.164,34.491 z m 4.15,-7.889 0.054,0.014 5.734,-12.819 -11.576,-2.673 z"
         transform="translate(-520.50881,-143.0381)"
         id="path14" />
    </clipPath>
    <clipPath
       clipPathUnits="userSpaceOnUse"
       id="clipPath16">
      <path
         d="M 451.196,101.513 V 63.289 l 31.89,7.363 v 6.988 l -23.535,-5.433 v 8.955 l 19.33,4.463 v 6.99 l -19.33,-4.463 v 8.3 l 23.535,5.433 v 6.99 z m -15.18,-3.505 -26.701,-6.164 V 53.62 l 26.701,6.165 c 1.164,0.268 2.256,0.747 3.276,1.438 v 0 c 1.019,0.691 1.901,1.504 2.648,2.441 v 0 c 0.747,0.936 1.338,1.956 1.774,3.058 v 0 c 0.438,1.102 0.656,2.199 0.656,3.292 v 0 21.623 c 0,1.165 -0.227,2.195 -0.683,3.092 v 0 c -0.456,0.895 -1.064,1.628 -1.828,2.197 v 0 c -0.765,0.57 -1.657,0.956 -2.676,1.158 v 0 c -0.453,0.089 -0.913,0.134 -1.381,0.134 v 0 c -0.584,0 -1.179,-0.07 -1.786,-0.21 m -18.403,-11.237 16.055,3.706 c 0.655,0.151 1.21,0.041 1.665,-0.326 v 0 c 0.454,-0.369 0.683,-0.879 0.683,-1.536 v 0 -19.438 c 0,-0.656 -0.229,-1.273 -0.683,-1.851 v 0 c -0.455,-0.579 -1.01,-0.943 -1.665,-1.095 v 0 l -16.055,-3.705 z m -36.584,-1.457 -16.163,-41.956 8.301,1.917 3.331,9.014 17.309,3.996 3.386,-7.464 8.3,1.917 -16.164,34.492 z m 4.15,-7.888 0.055,0.013 5.734,-12.82 -11.577,-2.672 z m -30.577,1.786 -17.311,-3.996 c -1.165,-0.269 -2.247,-0.747 -3.248,-1.433 v 0 c -1.002,-0.688 -1.875,-1.498 -2.622,-2.435 v 0 c -0.747,-0.936 -1.337,-1.955 -1.774,-3.057 v 0 c -0.437,-1.102 -0.656,-2.199 -0.656,-3.292 v 0 -21.623 c 0,-1.165 0.228,-2.196 0.683,-3.092 v 0 c 0.455,-0.896 1.064,-1.629 1.83,-2.198 v 0 c 0.764,-0.57 1.645,-0.957 2.647,-1.163 v 0 c 1.003,-0.205 2.048,-0.183 3.14,0.069 v 0 l 17.311,3.997 c 1.091,0.253 2.138,0.713 3.139,1.379 v 0 c 1.001,0.669 1.893,1.466 2.676,2.393 v 0 c 0.781,0.927 1.4,1.943 1.856,3.05 v 0 c 0.456,1.105 0.683,2.242 0.683,3.407 v 0 2.948 l -8.354,-1.929 v -1.911 c 0,-0.655 -0.229,-1.263 -0.683,-1.823 v 0 c -0.456,-0.561 -1.011,-0.916 -1.665,-1.068 v 0 l -12.615,-2.912 c -0.655,-0.151 -1.21,-0.042 -1.666,0.327 v 0 c -0.454,0.367 -0.682,0.878 -0.682,1.535 v 0 19.438 c 0,0.656 0.228,1.272 0.682,1.851 v 0 c 0.456,0.578 1.011,0.943 1.666,1.095 v 0 l 12.615,2.911 c 0.654,0.152 1.209,0.052 1.665,-0.297 v 0 c 0.454,-0.351 0.683,-0.854 0.683,-1.508 v 0 -1.912 l 8.354,1.928 v 2.95 c 0,1.127 -0.227,2.149 -0.683,3.063 v 0 c -0.456,0.915 -1.075,1.654 -1.856,2.221 v 0 c -0.783,0.565 -1.675,0.95 -2.676,1.157 v 0 c -0.449,0.092 -0.908,0.138 -1.375,0.138 v 0 c -0.574,0 -1.163,-0.069 -1.764,-0.208 M 314.686,69.996 287.93,63.819 V 25.597 l 8.354,1.929 v 14.142 l 8.572,1.978 9.611,-11.924 9.009,2.081 -9.609,11.923 c 1.419,0.329 2.684,0.847 3.795,1.56 v 0 c 1.11,0.711 2.066,1.541 2.867,2.49 v 0 c 0.8,0.95 1.409,1.973 1.828,3.072 v 0 c 0.418,1.096 0.629,2.192 0.629,3.284 v 0 7.48 c 0,1.166 -0.228,2.196 -0.683,3.092 v 0 c -0.457,0.896 -1.065,1.629 -1.829,2.199 v 0 c -0.765,0.57 -1.648,0.958 -2.649,1.164 v 0 c -0.45,0.092 -0.908,0.138 -1.375,0.137 v 0 c -0.575,0 -1.162,-0.069 -1.764,-0.208 m -18.402,-11.237 16.053,3.706 c 0.656,0.153 1.21,0.043 1.666,-0.325 v 0 c 0.455,-0.369 0.683,-0.881 0.683,-1.536 v 0 -5.295 c 0,-0.657 -0.228,-1.274 -0.683,-1.851 v 0 c -0.456,-0.579 -1.01,-0.943 -1.666,-1.095 v 0 l -16.053,-3.707 z m -36.64,-1.469 -16.163,-41.956 8.3,1.917 3.33,9.014 17.31,3.996 3.386,-7.463 8.3,1.916 -16.164,34.491 z m 4.15,-7.889 0.054,0.014 5.734,-12.819 -11.576,-2.673 z"
         transform="translate(-520.50881,-143.0381)"
         id="path16" />
    </clipPath>
    <clipPath
       clipPathUnits="userSpaceOnUse"
       id="clipPath18">
      <path
         d="M 451.196,101.513 V 63.289 l 31.89,7.363 v 6.988 l -23.535,-5.433 v 8.955 l 19.33,4.463 v 6.99 l -19.33,-4.463 v 8.3 l 23.535,5.433 v 6.99 z m -15.18,-3.505 -26.701,-6.164 V 53.62 l 26.701,6.165 c 1.164,0.268 2.256,0.747 3.276,1.438 v 0 c 1.019,0.691 1.901,1.504 2.648,2.441 v 0 c 0.747,0.936 1.338,1.956 1.774,3.058 v 0 c 0.438,1.102 0.656,2.199 0.656,3.292 v 0 21.623 c 0,1.165 -0.227,2.195 -0.683,3.092 v 0 c -0.456,0.895 -1.064,1.628 -1.828,2.197 v 0 c -0.765,0.57 -1.657,0.956 -2.676,1.158 v 0 c -0.453,0.089 -0.913,0.134 -1.381,0.134 v 0 c -0.584,0 -1.179,-0.07 -1.786,-0.21 m -18.403,-11.237 16.055,3.706 c 0.655,0.151 1.21,0.041 1.665,-0.326 v 0 c 0.454,-0.369 0.683,-0.879 0.683,-1.536 v 0 -19.438 c 0,-0.656 -0.229,-1.273 -0.683,-1.851 v 0 c -0.455,-0.579 -1.01,-0.943 -1.665,-1.095 v 0 l -16.055,-3.705 z m -36.584,-1.457 -16.163,-41.956 8.301,1.917 3.331,9.014 17.309,3.996 3.386,-7.464 8.3,1.917 -16.164,34.492 z m 4.15,-7.888 0.055,0.013 5.734,-12.82 -11.577,-2.672 z m -30.577,1.786 -17.311,-3.996 c -1.165,-0.269 -2.247,-0.747 -3.248,-1.433 v 0 c -1.002,-0.688 -1.875,-1.498 -2.622,-2.435 v 0 c -0.747,-0.936 -1.337,-1.955 -1.774,-3.057 v 0 c -0.437,-1.102 -0.656,-2.199 -0.656,-3.292 v 0 -21.623 c 0,-1.165 0.228,-2.196 0.683,-3.092 v 0 c 0.455,-0.896 1.064,-1.629 1.83,-2.198 v 0 c 0.764,-0.57 1.645,-0.957 2.647,-1.163 v 0 c 1.003,-0.205 2.048,-0.183 3.14,0.069 v 0 l 17.311,3.997 c 1.091,0.253 2.138,0.713 3.139,1.379 v 0 c 1.001,0.669 1.893,1.466 2.676,2.393 v 0 c 0.781,0.927 1.4,1.943 1.856,3.05 v 0 c 0.456,1.105 0.683,2.242 0.683,3.407 v 0 2.948 l -8.354,-1.929 v -1.911 c 0,-0.655 -0.229,-1.263 -0.683,-1.823 v 0 c -0.456,-0.561 -1.011,-0.916 -1.665,-1.068 v 0 l -12.615,-2.912 c -0.655,-0.151 -1.21,-0.042 -1.666,0.327 v 0 c -0.454,0.367 -0.682,0.878 -0.682,1.535 v 0 19.438 c 0,0.656 0.228,1.272 0.682,1.851 v 0 c 0.456,0.578 1.011,0.943 1.666,1.095 v 0 l 12.615,2.911 c 0.654,0.152 1.209,0.052 1.665,-0.297 v 0 c 0.454,-0.351 0.683,-0.854 0.683,-1.508 v 0 -1.912 l 8.354,1.928 v 2.95 c 0,1.127 -0.227,2.149 -0.683,3.063 v 0 c -0.456,0.915 -1.075,1.654 -1.856,2.221 v 0 c -0.783,0.565 -1.675,0.95 -2.676,1.157 v 0 c -0.449,0.092 -0.908,0.138 -1.375,0.138 v 0 c -0.574,0 -1.163,-0.069 -1.764,-0.208 M 314.686,69.996 287.93,63.819 V 25.597 l 8.354,1.929 v 14.142 l 8.572,1.978 9.611,-11.924 9.009,2.081 -9.609,11.923 c 1.419,0.329 2.684,0.847 3.795,1.56 v 0 c 1.11,0.711 2.066,1.541 2.867,2.49 v 0 c 0.8,0.95 1.409,1.973 1.828,3.072 v 0 c 0.418,1.096 0.629,2.192 0.629,3.284 v 0 7.48 c 0,1.166 -0.228,2.196 -0.683,3.092 v 0 c -0.457,0.896 -1.065,1.629 -1.829,2.199 v 0 c -0.765,0.57 -1.648,0.958 -2.649,1.164 v 0 c -0.45,0.092 -0.908,0.138 -1.375,0.137 v 0 c -0.575,0 -1.162,-0.069 -1.764,-0.208 m -18.402,-11.237 16.053,3.706 c 0.656,0.153 1.21,0.043 1.666,-0.325 v 0 c 0.455,-0.369 0.683,-0.881 0.683,-1.536 v 0 -5.295 c 0,-0.657 -0.228,-1.274 -0.683,-1.851 v 0 c -0.456,-0.579 -1.01,-0.943 -1.666,-1.095 v 0 l -16.053,-3.707 z m -36.64,-1.469 -16.163,-41.956 8.3,1.917 3.33,9.014 17.31,3.996 3.386,-7.463 8.3,1.916 -16.164,34.491 z m 4.15,-7.889 0.054,0.014 5.734,-12.819 -11.576,-2.673 z"
         transform="translate(-520.50881,-143.0381)"
         id="path18" />
    </clipPath>
    <clipPath
       clipPathUnits="userSpaceOnUse"
       id="clipPath20">
      <path
         d="M 451.196,101.513 V 63.289 l 31.89,7.363 v 6.988 l -23.535,-5.433 v 8.955 l 19.33,4.463 v 6.99 l -19.33,-4.463 v 8.3 l 23.535,5.433 v 6.99 z m -15.18,-3.505 -26.701,-6.164 V 53.62 l 26.701,6.165 c 1.164,0.268 2.256,0.747 3.276,1.438 v 0 c 1.019,0.691 1.901,1.504 2.648,2.441 v 0 c 0.747,0.936 1.338,1.956 1.774,3.058 v 0 c 0.438,1.102 0.656,2.199 0.656,3.292 v 0 21.623 c 0,1.165 -0.227,2.195 -0.683,3.092 v 0 c -0.456,0.895 -1.064,1.628 -1.828,2.197 v 0 c -0.765,0.57 -1.657,0.956 -2.676,1.158 v 0 c -0.453,0.089 -0.913,0.134 -1.381,0.134 v 0 c -0.584,0 -1.179,-0.07 -1.786,-0.21 m -18.403,-11.237 16.055,3.706 c 0.655,0.151 1.21,0.041 1.665,-0.326 v 0 c 0.454,-0.369 0.683,-0.879 0.683,-1.536 v 0 -19.438 c 0,-0.656 -0.229,-1.273 -0.683,-1.851 v 0 c -0.455,-0.579 -1.01,-0.943 -1.665,-1.095 v 0 l -16.055,-3.705 z m -36.584,-1.457 -16.163,-41.956 8.301,1.917 3.331,9.014 17.309,3.996 3.386,-7.464 8.3,1.917 -16.164,34.492 z m 4.15,-7.888 0.055,0.013 5.734,-12.82 -11.577,-2.672 z m -30.577,1.786 -17.311,-3.996 c -1.165,-0.269 -2.247,-0.747 -3.248,-1.433 v 0 c -1.002,-0.688 -1.875,-1.498 -2.622,-2.435 v 0 c -0.747,-0.936 -1.337,-1.955 -1.774,-3.057 v 0 c -0.437,-1.102 -0.656,-2.199 -0.656,-3.292 v 0 -21.623 c 0,-1.165 0.228,-2.196 0.683,-3.092 v 0 c 0.455,-0.896 1.064,-1.629 1.83,-2.198 v 0 c 0.764,-0.57 1.645,-0.957 2.647,-1.163 v 0 c 1.003,-0.205 2.048,-0.183 3.14,0.069 v 0 l 17.311,3.997 c 1.091,0.253 2.138,0.713 3.139,1.379 v 0 c 1.001,0.669 1.893,1.466 2.676,2.393 v 0 c 0.781,0.927 1.4,1.943 1.856,3.05 v 0 c 0.456,1.105 0.683,2.242 0.683,3.407 v 0 2.948 l -8.354,-1.929 v -1.911 c 0,-0.655 -0.229,-1.263 -0.683,-1.823 v 0 c -0.456,-0.561 -1.011,-0.916 -1.665,-1.068 v 0 l -12.615,-2.912 c -0.655,-0.151 -1.21,-0.042 -1.666,0.327 v 0 c -0.454,0.367 -0.682,0.878 -0.682,1.535 v 0 19.438 c 0,0.656 0.228,1.272 0.682,1.851 v 0 c 0.456,0.578 1.011,0.943 1.666,1.095 v 0 l 12.615,2.911 c 0.654,0.152 1.209,0.052 1.665,-0.297 v 0 c 0.454,-0.351 0.683,-0.854 0.683,-1.508 v 0 -1.912 l 8.354,1.928 v 2.95 c 0,1.127 -0.227,2.149 -0.683,3.063 v 0 c -0.456,0.915 -1.075,1.654 -1.856,2.221 v 0 c -0.783,0.565 -1.675,0.95 -2.676,1.157 v 0 c -0.449,0.092 -0.908,0.138 -1.375,0.138 v 0 c -0.574,0 -1.163,-0.069 -1.764,-0.208 M 314.686,69.996 287.93,63.819 V 25.597 l 8.354,1.929 v 14.142 l 8.572,1.978 9.611,-11.924 9.009,2.081 -9.609,11.923 c 1.419,0.329 2.684,0.847 3.795,1.56 v 0 c 1.11,0.711 2.066,1.541 2.867,2.49 v 0 c 0.8,0.95 1.409,1.973 1.828,3.072 v 0 c 0.418,1.096 0.629,2.192 0.629,3.284 v 0 7.48 c 0,1.166 -0.228,2.196 -0.683,3.092 v 0 c -0.457,0.896 -1.065,1.629 -1.829,2.199 v 0 c -0.765,0.57 -1.648,0.958 -2.649,1.164 v 0 c -0.45,0.092 -0.908,0.138 -1.375,0.137 v 0 c -0.575,0 -1.162,-0.069 -1.764,-0.208 m -18.402,-11.237 16.053,3.706 c 0.656,0.153 1.21,0.043 1.666,-0.325 v 0 c 0.455,-0.369 0.683,-0.881 0.683,-1.536 v 0 -5.295 c 0,-0.657 -0.228,-1.274 -0.683,-1.851 v 0 c -0.456,-0.579 -1.01,-0.943 -1.666,-1.095 v 0 l -16.053,-3.707 z m -36.64,-1.469 -16.163,-41.956 8.3,1.917 3.33,9.014 17.31,3.996 3.386,-7.463 8.3,1.916 -16.164,34.491 z m 4.15,-7.889 0.054,0.014 5.734,-12.819 -11.576,-2.673 z"
         transform="translate(-520.50881,-143.0381)"
         id="path20" />
    </clipPath>
    <clipPath
       clipPathUnits="userSpaceOnUse"
       id="clipPath22">
      <path
         d="M 0,260.737 H 500 V 0 H 0 Z"
         transform="translate(-386.40621,-157.8916)"
         id="path22" />
    </clipPath>
    <clipPath
       clipPathUnits="userSpaceOnUse"
       id="clipPath24">
      <path
         d="M 0,260.737 H 500 V 0 H 0 Z"
         transform="translate(-320.58201,-215.42871)"
         id="path24" />
    </clipPath>
    <clipPath
       clipPathUnits="userSpaceOnUse"
       id="clipPath26">
      <path
         d="M 0,260.737 H 500 V 0 H 0 Z"
         transform="translate(-179.416,-126.0449)"
         id="path26" />
    </clipPath>
    <clipPath
       clipPathUnits="userSpaceOnUse"
       id="clipPath28">
      <path
         d="M 0,260.737 H 500 V 0 H 0 Z"
         transform="translate(-104.02,-174.8408)"
         id="path28" />
    </clipPath>
    <clipPath
       clipPathUnits="userSpaceOnUse"
       id="clipPath30">
      <path
         d="M 0,260.737 H 500 V 0 H 0 Z"
         transform="translate(-468.46191,-118.9414)"
         id="path30" />
    </clipPath>
  </defs>
  <sodipodi:namedview
     id="namedview1"
     pagecolor="#ffffff"
     bordercolor="#000000"
     borderopacity="0.25"
     inkscape:showpageshadow="2"
     inkscape:pageopacity="0.0"
     inkscape:pagecheckerboard="0"
     inkscape:deskcolor="#d1d1d1">
    <inkscape:page
       x="0"
       y="0"
       inkscape:label="1"
       id="page1"
       width="666.66669"
       height="347.64932"
       margin="0"
       bleed="0" />
  </sodipodi:namedview>
  <g
     id="layer-MC0"
     inkscape:groupmode="layer"
     inkscape:label="Layer 1">
    <path
       id="path1"
       d="M 0,0 C -14.063,0 -27.961,-2.948 -40.705,-8.585 -57.21,2.503 -76.803,8.525 -96.82,8.525 c -40.297,0 -76.507,-24.31 -92.263,-60.527 -12.904,1.742 -25.998,0.953 -38.427,-2.227 -18.808,18.989 -44.311,29.706 -71.376,29.706 -55.441,0 -100.545,-45.104 -100.545,-100.545 0,-55.441 45.104,-100.545 100.545,-100.545 8.491,0 16.863,1.051 24.996,3.132 18.823,-19.006 44.334,-29.731 71.4,-29.731 40.297,0 76.507,24.311 92.261,60.527 18.449,-2.491 37.332,0.247 54.138,7.68 16.506,-11.089 36.1,-17.11 56.115,-17.11 55.441,0 100.545,45.104 100.545,100.545 C 100.569,-45.115 55.454,0 0,0"
       style="fill:#00b3f0;fill-opacity:1;fill-rule:nonzero;stroke:none"
       transform="matrix(1.3333333,0,0,-1.3333333,532.57427,11.3668)"
       clip-path="url(#clipPath2)" />
    <path
       id="path3"
       d="M 0,0 C -14.443,0 -28.694,-3.369 -41.494,-9.776 -57.42,2.056 -76.892,8.525 -96.82,8.525 c -39.225,0 -74.249,-24.966 -87.339,-61.46 -6.064,1.221 -12.215,1.838 -18.356,1.838 -9.363,0 -18.567,-1.384 -27.424,-4.12 -17.59,19.565 -42.457,30.694 -68.947,30.694 -51.14,0 -92.745,-41.606 -92.745,-92.746 0,-51.14 41.605,-92.745 92.745,-92.745 9.364,0 18.568,1.384 27.425,4.119 17.606,-19.581 42.482,-30.718 68.971,-30.718 39.224,0 74.249,24.965 87.338,61.459 6.064,-1.221 12.214,-1.837 18.356,-1.837 14.444,0 28.693,3.368 41.494,9.776 15.928,-11.832 35.399,-18.301 55.326,-18.301 51.14,0 92.746,41.605 92.746,92.745 C 92.77,-41.617 51.153,0 0,0"
       style="fill:#ffffff;fill-opacity:1;fill-rule:nonzero;stroke:none"
       transform="matrix(1.3333333,0,0,-1.3333333,532.57427,21.765867)"
       clip-path="url(#clipPath4)" />
    <path
       id="path5"
       d="M 0,0 C -15.325,0 -29.724,-4 -42.198,-11.049 -57.048,1.175 -76.071,8.525 -96.82,8.525 c -39.424,0 -72.647,-26.549 -82.797,-62.722 -7.299,2 -14.974,3.1 -22.898,3.1 -10.4,0 -20.374,-1.85 -29.599,-5.225 -15.749,19.399 -39.823,31.799 -66.772,31.799 -47.472,0 -85.97,-38.499 -85.97,-85.971 0,-47.473 38.498,-85.971 85.97,-85.971 10.4,0 20.374,1.85 29.599,5.225 15.774,-19.424 39.823,-31.823 66.797,-31.823 39.423,0 72.646,26.548 82.796,62.721 7.299,-2 14.973,-3.099 22.898,-3.099 15.324,0 29.724,3.999 42.198,11.048 14.85,-12.223 33.873,-19.574 54.622,-19.574 47.473,0 85.971,38.499 85.971,85.971 C 85.995,-38.523 47.497,0 0,0"
       style="fill:#130c0e;fill-opacity:1;fill-rule:nonzero;stroke:none"
       transform="matrix(1.3333333,0,0,-1.3333333,532.57427,30.799067)"
       clip-path="url(#clipPath6)" />
    <path
       id="path7"
       d="m 0,0 -105.38,-24.329 8.345,-36.145 105.379,24.329 z"
       style="fill:#130c0e;fill-opacity:1;fill-rule:nonzero;stroke:none"
       transform="matrix(1.3333333,0,0,-1.3333333,480.43093,210.7444)"
       clip-path="url(#clipPath8)" />
    <path
       id="path9"
       d="m 0,0 v 19.101 l -233.722,-53.958 -21.283,-55.248 22.232,5.131 3.33,9.014 9.501,2.193 3.385,-7.462 105.169,24.28 3.33,9.013 9.502,2.194 3.386,-7.462 L 0,-31.233 v 19.1 l -4.204,-0.971 v 12.133 z"
       style="fill:#130c0e;fill-opacity:1;fill-rule:nonzero;stroke:none"
       transform="matrix(1.3333333,0,0,-1.3333333,651.98053,218.0608)"
       clip-path="url(#clipPath10)" />
    <path
       id="path11"
       d="M 0,0 -31.89,-7.362 V 30.861 L 0,38.224 v -6.99 l -23.535,-5.433 v -8.3 l 19.33,4.463 v -6.99 l -19.33,-4.463 V 1.556 L 0,6.989 Z m -47.07,17.964 c 0,0.656 -0.229,1.167 -0.683,1.536 -0.455,0.367 -1.01,0.477 -1.665,0.325 L -65.473,16.119 V -8.126 l 16.055,3.706 c 0.655,0.151 1.21,0.516 1.665,1.095 0.454,0.578 0.683,1.195 0.683,1.85 z m 8.354,-18.602 c 0,-1.092 -0.219,-2.189 -0.655,-3.291 -0.437,-1.102 -1.028,-2.122 -1.775,-3.058 -0.747,-0.937 -1.629,-1.75 -2.648,-2.441 -1.019,-0.691 -2.111,-1.17 -3.276,-1.438 l -26.701,-6.165 v 38.223 l 26.701,6.164 c 1.092,0.252 2.147,0.278 3.167,0.077 1.019,-0.203 1.912,-0.588 2.675,-1.158 0.765,-0.57 1.374,-1.302 1.83,-2.198 0.455,-0.896 0.682,-1.927 0.682,-3.092 z m -64.978,-8.066 11.576,2.672 -5.734,12.819 -0.054,-0.013 z m 17.801,-11.126 -3.386,7.464 -17.309,-3.996 -3.331,-9.015 -8.301,-1.916 16.163,41.955 8.3,1.916 16.164,-34.491 z m -59.902,-13.829 c -1.092,-0.252 -2.138,-0.275 -3.14,-0.07 -1.002,0.207 -1.882,0.593 -2.647,1.164 -0.766,0.569 -1.375,1.301 -1.83,2.198 -0.455,0.895 -0.683,1.927 -0.683,3.092 v 21.623 c 0,1.092 0.219,2.189 0.657,3.292 0.436,1.101 1.027,2.121 1.773,3.057 0.747,0.937 1.62,1.747 2.622,2.435 1.001,0.685 2.083,1.163 3.248,1.432 l 17.311,3.997 c 1.091,0.252 2.138,0.275 3.139,0.07 1.001,-0.207 1.893,-0.593 2.676,-1.157 0.781,-0.567 1.4,-1.307 1.856,-2.221 0.456,-0.914 0.683,-1.936 0.683,-3.064 V -0.76 l -8.354,-1.928 v 1.912 c 0,0.654 -0.229,1.156 -0.683,1.507 -0.456,0.349 -1.011,0.45 -1.665,0.298 l -12.614,-2.912 c -0.656,-0.151 -1.211,-0.516 -1.666,-1.095 -0.455,-0.579 -0.683,-1.194 -0.683,-1.85 v -19.439 c 0,-0.656 0.228,-1.168 0.683,-1.535 0.455,-0.369 1.01,-0.477 1.666,-0.326 l 12.614,2.912 c 0.654,0.152 1.209,0.507 1.665,1.068 0.454,0.559 0.683,1.168 0.683,1.823 v 1.911 l 8.354,1.929 v -2.949 c 0,-1.165 -0.227,-2.301 -0.683,-3.407 -0.456,-1.106 -1.075,-2.123 -1.856,-3.05 -0.783,-0.926 -1.675,-1.723 -2.676,-2.392 -1.001,-0.667 -2.048,-1.127 -3.139,-1.38 z m -22.605,23.612 c 0,0.655 -0.228,1.167 -0.683,1.535 -0.455,0.368 -1.01,0.478 -1.666,0.325 l -16.053,-3.706 v -10.102 l 16.053,3.707 c 0.656,0.151 1.211,0.516 1.666,1.095 0.455,0.577 0.683,1.194 0.683,1.85 z m 0,9.392 c 1.091,0.253 2.137,0.275 3.139,0.07 1.001,-0.206 1.884,-0.594 2.649,-1.163 0.764,-0.57 1.373,-1.304 1.829,-2.199 0.455,-0.897 0.682,-1.926 0.682,-3.092 v -7.481 c 0,-1.091 -0.21,-2.187 -0.628,-3.284 -0.418,-1.098 -1.028,-2.122 -1.829,-3.071 -0.8,-0.949 -1.756,-1.779 -2.866,-2.49 -1.111,-0.713 -2.376,-1.232 -3.795,-1.56 l 9.61,-11.924 -9.01,-2.08 -9.61,11.924 -8.573,-1.978 v -14.143 l -8.354,-1.929 v 38.223 z m -56.68,-36.074 11.576,2.673 -5.733,12.819 -0.055,-0.013 z m 17.801,-11.125 -3.386,7.463 -17.31,-3.996 -3.33,-9.013 -8.3,-1.917 16.163,41.955 8.299,1.916 16.164,-34.492 z"
       style="fill:#ffcc3e;fill-opacity:1;fill-rule:nonzero;stroke:none"
       transform="matrix(1.3333333,0,0,-1.3333333,644.11453,253.44747)"
       clip-path="url(#clipPath12)" />
    <path
       id="path13"
       d="m 0,0 -292.148,-67.468 11.458,-45.156 292.147,67.468 z"
       style="fill:#ffd880;fill-opacity:1;fill-rule:nonzero;stroke:none"
       transform="matrix(1.3333333,0,0,-1.3333333,694.01173,156.93187)"
       clip-path="url(#clipPath14)" />
    <path
       id="path15"
       d="m 0,0 -292.148,-67.468 10.454,-42.608 292.148,67.468 z"
       style="fill:#ffeac0;fill-opacity:1;fill-rule:nonzero;stroke:none"
       transform="matrix(1.3333333,0,0,-1.3333333,694.01173,156.93187)"
       clip-path="url(#clipPath16)" />
    <path
       id="path17"
       d="m 0,0 -292.148,-67.468 9.524,-40.448 292.147,67.468 z"
       style="fill:#fff7e6;fill-opacity:1;fill-rule:nonzero;stroke:none"
       transform="matrix(1.3333333,0,0,-1.3333333,694.01173,156.93187)"
       clip-path="url(#clipPath18)" />
    <path
       id="path19"
       d="m 0,0 -292.148,-67.468 9.174,-38.566 292.148,67.468 z"
       style="fill:#ffffff;fill-opacity:1;fill-rule:nonzero;stroke:none"
       transform="matrix(1.3333333,0,0,-1.3333333,694.01173,156.93187)"
       clip-path="url(#clipPath20)" />
    <path
       id="path21"
       d="m 0,0 c 0,0 -2.032,-17.312 -24.199,-39.673 l -11.35,9.425 C -24.19,-21.05 -11.1,-0.031 -11.1,18.699 v 0.529 c 0,2.25 -1.741,2.248 -3.909,1.826 l -2.19,-0.426 v 6.667 L 7.124,32.023 V 22.242 C 7.124,3.113 17.677,0.038 31.698,-0.1 L 24.724,-10.949 C 3.417,-9.038 0,0 0,0 M 68.121,26.774 V 14.592 l -13.85,-2.693 v -22.877 l -18.499,-3.596 v 52.713 c 0,2.374 -1.948,2.349 -4.168,1.918 l -2.231,-0.434 v 7.035 l 24.898,4.84 V 24.082 Z M 19.198,-49.987 c -2.524,0.049 -7.675,0.151 -7.675,8.069 0,8.206 6.553,14.092 13.675,14.093 7.311,10e-4 7.825,-4.953 7.825,-7.969 0,-7.393 -6.371,-14.34 -13.825,-14.193 m 18.5,32.632 c -8.586,1.934 -19.637,2.138 -32.174,-6.4 -8.243,-5.614 -12.399,-12.452 -12.399,-20.289 0,-2.823 0.619,-5.625 1.85,-8.319 3.776,-8.271 9.369,-8.714 16.973,-9.319 12.426,-0.986 19.9,2.302 27.35,7.35 8.324,5.647 12.574,12.387 12.574,20.264 0,7.032 -3.609,14.332 -14.174,16.713"
       style="fill:#faa61a;fill-opacity:1;fill-rule:nonzero;stroke:none"
       transform="matrix(1.3333333,0,0,-1.3333333,515.20827,137.1272)"
       clip-path="url(#clipPath22)" />
    <path
       id="path23"
       d="m 0,0 v -6.896 l 1.854,0.36 c 1.847,0.359 3.498,0.603 3.498,-1.771 v -87.828 l 18.649,3.625 V 4.666 Z m -21.847,-22.139 v -6.896 l 1.855,0.36 c 1.846,0.359 3.537,0.688 3.537,-1.686 V -50.459 L -32.097,-53.5 v -10.812 l 15.642,3.041 v -59.559 l 17.157,3.335 v 99.74 z m 2.425,-57.272 -8,-10.674 c -15.628,5.101 -19.849,12.874 -19.849,12.874 0,0 -5.917,-10.998 -18.324,-22.374 l -10.349,8.625 c 0,0 18.285,17.072 18.285,34.125 v 12.981 c 0,2.373 -1.939,2.311 -4.108,1.89 l -2.177,-0.424 v 7.5 l 23.948,4.655 v -23.879 c 0,-22.865 20.574,-25.299 20.574,-25.299"
       style="fill:#f15a22;fill-opacity:1;fill-rule:nonzero;stroke:none"
       transform="matrix(1.3333333,0,0,-1.3333333,427.44267,60.411067)"
       clip-path="url(#clipPath24)" />
    <path
       id="path25"
       d="M 0,0 V -11.026 L 59.047,0.451 V -10.294 L -9.384,-23.596 c -5.523,-1.073 -10,2.534 -10,8.057 v 12.801 c 0,2.215 -0.203,2.884 -5.383,1.878 l -0.982,-0.192 V 5.74 L 59.047,22.222 V 11.478 Z m 59.047,-15.558 v -10.744 l -99.295,-19.301 v 10.745 z M 37.348,-60.662 3.9,-67.164 v 14.01 l 33.448,6.502 z m 19.699,28.708 -79.271,-15.409 v -7.377 l 0.983,0.191 c 5.188,1.009 5.392,0.195 5.392,-2.234 v -15.439 c 0,-4.97 4.03,-8.216 9,-7.251 l 56.896,11.06 c 4.971,0.967 9,5.779 9,10.75 v 24.098 c 0,1.104 -0.895,1.826 -2,1.611"
       style="fill:#faa61a;fill-opacity:1;fill-rule:nonzero;stroke:none"
       transform="matrix(1.3333333,0,0,-1.3333333,239.22133,179.58947)"
       clip-path="url(#clipPath26)" />
    <path
       id="path27"
       d="m 0,0 v -7.45 l 2.176,0.424 C 4.341,-6.605 6.325,-6.22 6.325,-9 v -43.997 c -3.2,-1.8 -7.298,-3.293 -12.35,-4.275 l -29.923,-5.817 v 13.467 l 27.748,5.393 c 1.381,0.269 2.5,1.605 2.5,2.986 v 26.662 c 0,1.381 -1.119,2.282 -2.5,2.014 l -52.047,-10.117 v -11.514 l 35.498,6.9 v -9.054 l -37.148,-7.221 v -7.574 l 0.877,0.17 c 1.771,0.344 4.398,0.855 4.398,-1.72 v -17.924 c 0,-4.419 3.581,-7.304 8,-6.445 l 39.072,7.594 c 7.33,1.425 12.65,3.201 15.875,4.826 v -42.185 l 20.124,3.911 V 5.141 Z"
       style="fill:#f15a22;fill-opacity:1;fill-rule:nonzero;stroke:none"
       transform="matrix(1.3333333,0,0,-1.3333333,138.69333,114.52827)"
       clip-path="url(#clipPath28)" />
    <path
       id="path29"
       d="M 0,0 V 9.89 L -2.487,-0.586 -5.182,-1.222 -7.61,8.095 v -9.889 l -2.546,-0.601 V 9.443 l 3.978,0.939 2.399,-8.824 0.029,0.006 2.34,9.942 3.927,0.926 V 0.594 Z M -18.387,-4.335 V 5.403 L -22.483,4.437 V 6.53 l 10.836,2.555 V 6.992 l -3.95,-0.93 v -9.74 z"
       style="fill:#faa61a;fill-opacity:1;fill-rule:nonzero;stroke:none"
       transform="matrix(1.3333333,0,0,-1.3333333,624.61587,189.0608)"
       clip-path="url(#clipPath30)" />
  </g>
</svg>
