<?xml version="1.0" encoding="UTF-8" standalone="no"?>
<!-- Created with Inkscape (http://www.inkscape.org/) -->

<svg
   version="1.1"
   id="svg1"
   width="666.66669"
   height="666.66669"
   viewBox="0 0 666.66669 666.66669"
   sodipodi:docname="Rhythm World Arcade (리듬 세상 ＡＲＣＡＤＥ) (Alt).svg"
   inkscape:version="1.2.2 (b0a8486541, 2022-12-01)"
   xmlns:inkscape="http://www.inkscape.org/namespaces/inkscape"
   xmlns:sodipodi="http://sodipodi.sourceforge.net/DTD/sodipodi-0.dtd"
   xmlns="http://www.w3.org/2000/svg"
   xmlns:svg="http://www.w3.org/2000/svg">
  <defs
     id="defs1">
    <clipPath
       clipPathUnits="userSpaceOnUse"
       id="clipPath23">
      <path
         d="M 0,500 H 500 V 0 H 0 Z"
         transform="translate(-384.48731,-359.65931)"
         id="path23" />
    </clipPath>
    <clipPath
       clipPathUnits="userSpaceOnUse"
       id="clipPath25">
      <path
         d="M 0,500 H 500 V 0 H 0 Z"
         transform="translate(-384.48731,-352.63981)"
         id="path25" />
    </clipPath>
    <clipPath
       clipPathUnits="userSpaceOnUse"
       id="clipPath27">
      <path
         d="M 0,500 H 500 V 0 H 0 Z"
         transform="translate(-384.48731,-346.54261)"
         id="path27" />
    </clipPath>
    <clipPath
       clipPathUnits="userSpaceOnUse"
       id="clipPath29">
      <path
         d="M 0,500 H 500 V 0 H 0 Z"
         transform="translate(-349.29101,-225.0792)"
         id="path29" />
    </clipPath>
    <clipPath
       clipPathUnits="userSpaceOnUse"
       id="clipPath31">
      <path
         d="M 0,500 H 500 V 0 H 0 Z"
         transform="translate(-465.08691,-220.14071)"
         id="path31" />
    </clipPath>
    <clipPath
       clipPathUnits="userSpaceOnUse"
       id="clipPath33">
      <path
         d="M 0,500 H 500 V 0 H 0 Z"
         transform="translate(-459.77731,-196.25501)"
         id="path33" />
    </clipPath>
    <clipPath
       clipPathUnits="userSpaceOnUse"
       id="clipPath35">
      <path
         d="m 431.077,224.03 v -34.401 l 28.701,6.626 v 6.29 l -21.182,-4.89 v 8.06 l 17.397,4.016 v 6.291 l -17.397,-4.016 v 7.47 l 21.182,4.889 v 6.291 z m -13.663,-3.155 -24.031,-5.547 v -34.402 l 24.031,5.549 c 1.048,0.242 2.031,0.673 2.948,1.295 v 0 c 0.917,0.621 1.712,1.353 2.384,2.196 v 0 c 0.671,0.843 1.204,1.76 1.598,2.753 v 0 c 0.392,0.991 0.589,1.978 0.589,2.962 v 0 19.46 c 0,1.049 -0.204,1.976 -0.614,2.783 v 0 c -0.411,0.806 -0.959,1.465 -1.647,1.978 v 0 c -0.686,0.513 -1.49,0.86 -2.407,1.042 v 0 c -0.408,0.081 -0.822,0.121 -1.243,0.121 v 0 c -0.526,0 -1.062,-0.063 -1.608,-0.19 m -16.561,-10.113 14.448,3.335 c 0.59,0.136 1.088,0.038 1.499,-0.293 v 0 c 0.409,-0.332 0.614,-0.791 0.614,-1.381 v 0 -17.495 c 0,-0.59 -0.205,-1.146 -0.614,-1.666 v 0 c -0.411,-0.521 -0.909,-0.849 -1.499,-0.985 v 0 l -14.448,-3.336 z m -32.927,-1.311 -14.546,-37.76 7.47,1.725 2.998,8.112 15.578,3.597 3.048,-6.717 7.469,1.724 -14.547,31.043 z m 3.736,-7.099 0.049,0.011 5.16,-11.537 -10.419,-2.406 z m -27.52,1.607 -15.58,-3.596 c -1.048,-0.243 -2.023,-0.673 -2.923,-1.289 v 0 c -0.902,-0.62 -1.688,-1.349 -2.36,-2.192 v 0 c -0.671,-0.843 -1.204,-1.761 -1.597,-2.752 v 0 c -0.393,-0.992 -0.589,-1.979 -0.589,-2.962 v 0 -19.461 c 0,-1.049 0.204,-1.976 0.614,-2.782 v 0 c 0.409,-0.807 0.958,-1.467 1.647,-1.98 v 0 c 0.687,-0.513 1.481,-0.861 2.382,-1.046 v 0 c 0.902,-0.185 1.843,-0.165 2.826,0.063 v 0 l 15.58,3.596 c 0.982,0.227 1.923,0.641 2.826,1.242 v 0 c 0.9,0.601 1.702,1.319 2.407,2.153 v 0 c 0.704,0.834 1.26,1.749 1.671,2.745 v 0 c 0.409,0.995 0.614,2.018 0.614,3.066 v 0 2.654 l -7.518,-1.736 v -1.72 c 0,-0.59 -0.206,-1.137 -0.615,-1.641 v 0 c -0.41,-0.504 -0.91,-0.825 -1.499,-0.96 v 0 l -11.352,-2.621 c -0.59,-0.136 -1.09,-0.039 -1.499,0.293 v 0 c -0.411,0.331 -0.615,0.791 -0.615,1.382 v 0 17.495 c 0,0.589 0.204,1.145 0.615,1.665 v 0 c 0.409,0.52 0.909,0.849 1.499,0.985 v 0 l 11.352,2.621 c 0.589,0.136 1.089,0.046 1.499,-0.268 v 0 c 0.409,-0.316 0.615,-0.768 0.615,-1.357 v 0 -1.721 l 7.518,1.736 v 2.654 c 0,1.015 -0.205,1.935 -0.614,2.758 v 0 c -0.411,0.822 -0.967,1.488 -1.671,1.998 v 0 c -0.705,0.508 -1.507,0.856 -2.407,1.041 v 0 c -0.406,0.083 -0.82,0.125 -1.242,0.125 v 0 c -0.516,0 -1.044,-0.063 -1.584,-0.188 m -35.925,-8.294 -24.081,-5.559 v -34.401 l 7.519,1.736 v 12.728 l 7.716,1.781 8.649,-10.731 8.109,1.872 -8.649,10.732 c 1.278,0.295 2.415,0.762 3.415,1.402 v 0 c 0.999,0.64 1.859,1.388 2.58,2.242 v 0 c 0.721,0.855 1.269,1.775 1.647,2.764 v 0 c 0.376,0.988 0.565,1.973 0.565,2.956 v 0 6.733 c 0,1.048 -0.205,1.975 -0.615,2.783 v 0 c -0.409,0.805 -0.958,1.465 -1.645,1.979 v 0 c -0.689,0.512 -1.483,0.861 -2.384,1.046 v 0 c -0.405,0.083 -0.818,0.125 -1.239,0.125 v 0 c -0.516,0 -1.045,-0.063 -1.587,-0.188 m -16.562,-10.114 14.448,3.336 c 0.59,0.136 1.09,0.038 1.5,-0.293 v 0 c 0.409,-0.332 0.614,-0.792 0.614,-1.382 v 0 -4.766 c 0,-0.59 -0.205,-1.146 -0.614,-1.666 v 0 c -0.41,-0.521 -0.91,-0.848 -1.5,-0.985 v 0 l -14.448,-3.336 z m -32.976,-1.323 -14.546,-37.758 7.469,1.725 2.999,8.112 15.578,3.596 3.048,-6.717 7.47,1.726 -14.547,31.041 z m 3.735,-7.098 0.048,0.012 5.162,-11.538 -10.419,-2.405 z"
         transform="translate(-493.45801,-261.40301)"
         id="path35" />
    </clipPath>
    <clipPath
       clipPathUnits="userSpaceOnUse"
       id="clipPath37">
      <path
         d="m 431.077,224.03 v -34.401 l 28.701,6.626 v 6.29 l -21.182,-4.89 v 8.06 l 17.397,4.016 v 6.291 l -17.397,-4.016 v 7.47 l 21.182,4.889 v 6.291 z m -13.663,-3.155 -24.031,-5.547 v -34.402 l 24.031,5.549 c 1.048,0.242 2.031,0.673 2.948,1.295 v 0 c 0.917,0.621 1.712,1.353 2.384,2.196 v 0 c 0.671,0.843 1.204,1.76 1.598,2.753 v 0 c 0.392,0.991 0.589,1.978 0.589,2.962 v 0 19.46 c 0,1.049 -0.204,1.976 -0.614,2.783 v 0 c -0.411,0.806 -0.959,1.465 -1.647,1.978 v 0 c -0.686,0.513 -1.49,0.86 -2.407,1.042 v 0 c -0.408,0.081 -0.822,0.121 -1.243,0.121 v 0 c -0.526,0 -1.062,-0.063 -1.608,-0.19 m -16.561,-10.113 14.448,3.335 c 0.59,0.136 1.088,0.038 1.499,-0.293 v 0 c 0.409,-0.332 0.614,-0.791 0.614,-1.381 v 0 -17.495 c 0,-0.59 -0.205,-1.146 -0.614,-1.666 v 0 c -0.411,-0.521 -0.909,-0.849 -1.499,-0.985 v 0 l -14.448,-3.336 z m -32.927,-1.311 -14.546,-37.76 7.47,1.725 2.998,8.112 15.578,3.597 3.048,-6.717 7.469,1.724 -14.547,31.043 z m 3.736,-7.099 0.049,0.011 5.16,-11.537 -10.419,-2.406 z m -27.52,1.607 -15.58,-3.596 c -1.048,-0.243 -2.023,-0.673 -2.923,-1.289 v 0 c -0.902,-0.62 -1.688,-1.349 -2.36,-2.192 v 0 c -0.671,-0.843 -1.204,-1.761 -1.597,-2.752 v 0 c -0.393,-0.992 -0.589,-1.979 -0.589,-2.962 v 0 -19.461 c 0,-1.049 0.204,-1.976 0.614,-2.782 v 0 c 0.409,-0.807 0.958,-1.467 1.647,-1.98 v 0 c 0.687,-0.513 1.481,-0.861 2.382,-1.046 v 0 c 0.902,-0.185 1.843,-0.165 2.826,0.063 v 0 l 15.58,3.596 c 0.982,0.227 1.923,0.641 2.826,1.242 v 0 c 0.9,0.601 1.702,1.319 2.407,2.153 v 0 c 0.704,0.834 1.26,1.749 1.671,2.745 v 0 c 0.409,0.995 0.614,2.018 0.614,3.066 v 0 2.654 l -7.518,-1.736 v -1.72 c 0,-0.59 -0.206,-1.137 -0.615,-1.641 v 0 c -0.41,-0.504 -0.91,-0.825 -1.499,-0.96 v 0 l -11.352,-2.621 c -0.59,-0.136 -1.09,-0.039 -1.499,0.293 v 0 c -0.411,0.331 -0.615,0.791 -0.615,1.382 v 0 17.495 c 0,0.589 0.204,1.145 0.615,1.665 v 0 c 0.409,0.52 0.909,0.849 1.499,0.985 v 0 l 11.352,2.621 c 0.589,0.136 1.089,0.046 1.499,-0.268 v 0 c 0.409,-0.316 0.615,-0.768 0.615,-1.357 v 0 -1.721 l 7.518,1.736 v 2.654 c 0,1.015 -0.205,1.935 -0.614,2.758 v 0 c -0.411,0.822 -0.967,1.488 -1.671,1.998 v 0 c -0.705,0.508 -1.507,0.856 -2.407,1.041 v 0 c -0.406,0.083 -0.82,0.125 -1.242,0.125 v 0 c -0.516,0 -1.044,-0.063 -1.584,-0.188 m -35.925,-8.294 -24.081,-5.559 v -34.401 l 7.519,1.736 v 12.728 l 7.716,1.781 8.649,-10.731 8.109,1.872 -8.649,10.732 c 1.278,0.295 2.415,0.762 3.415,1.402 v 0 c 0.999,0.64 1.859,1.388 2.58,2.242 v 0 c 0.721,0.855 1.269,1.775 1.647,2.764 v 0 c 0.376,0.988 0.565,1.973 0.565,2.956 v 0 6.733 c 0,1.048 -0.205,1.975 -0.615,2.783 v 0 c -0.409,0.805 -0.958,1.465 -1.645,1.979 v 0 c -0.689,0.512 -1.483,0.861 -2.384,1.046 v 0 c -0.405,0.083 -0.818,0.125 -1.239,0.125 v 0 c -0.516,0 -1.045,-0.063 -1.587,-0.188 m -16.562,-10.114 14.448,3.336 c 0.59,0.136 1.09,0.038 1.5,-0.293 v 0 c 0.409,-0.332 0.614,-0.792 0.614,-1.382 v 0 -4.766 c 0,-0.59 -0.205,-1.146 -0.614,-1.666 v 0 c -0.41,-0.521 -0.91,-0.848 -1.5,-0.985 v 0 l -14.448,-3.336 z m -32.976,-1.323 -14.546,-37.758 7.469,1.725 2.999,8.112 15.578,3.596 3.048,-6.717 7.47,1.726 -14.547,31.041 z m 3.735,-7.098 0.048,0.012 5.162,-11.538 -10.419,-2.405 z"
         transform="translate(-493.45801,-261.40301)"
         id="path37" />
    </clipPath>
    <clipPath
       clipPathUnits="userSpaceOnUse"
       id="clipPath39">
      <path
         d="m 431.077,224.03 v -34.401 l 28.701,6.626 v 6.29 l -21.182,-4.89 v 8.06 l 17.397,4.016 v 6.291 l -17.397,-4.016 v 7.47 l 21.182,4.889 v 6.291 z m -13.663,-3.155 -24.031,-5.547 v -34.402 l 24.031,5.549 c 1.048,0.242 2.031,0.673 2.948,1.295 v 0 c 0.917,0.621 1.712,1.353 2.384,2.196 v 0 c 0.671,0.843 1.204,1.76 1.598,2.753 v 0 c 0.392,0.991 0.589,1.978 0.589,2.962 v 0 19.46 c 0,1.049 -0.204,1.976 -0.614,2.783 v 0 c -0.411,0.806 -0.959,1.465 -1.647,1.978 v 0 c -0.686,0.513 -1.49,0.86 -2.407,1.042 v 0 c -0.408,0.081 -0.822,0.121 -1.243,0.121 v 0 c -0.526,0 -1.062,-0.063 -1.608,-0.19 m -16.561,-10.113 14.448,3.335 c 0.59,0.136 1.088,0.038 1.499,-0.293 v 0 c 0.409,-0.332 0.614,-0.791 0.614,-1.381 v 0 -17.495 c 0,-0.59 -0.205,-1.146 -0.614,-1.666 v 0 c -0.411,-0.521 -0.909,-0.849 -1.499,-0.985 v 0 l -14.448,-3.336 z m -32.927,-1.311 -14.546,-37.76 7.47,1.725 2.998,8.112 15.578,3.597 3.048,-6.717 7.469,1.724 -14.547,31.043 z m 3.736,-7.099 0.049,0.011 5.16,-11.537 -10.419,-2.406 z m -27.52,1.607 -15.58,-3.596 c -1.048,-0.243 -2.023,-0.673 -2.923,-1.289 v 0 c -0.902,-0.62 -1.688,-1.349 -2.36,-2.192 v 0 c -0.671,-0.843 -1.204,-1.761 -1.597,-2.752 v 0 c -0.393,-0.992 -0.589,-1.979 -0.589,-2.962 v 0 -19.461 c 0,-1.049 0.204,-1.976 0.614,-2.782 v 0 c 0.409,-0.807 0.958,-1.467 1.647,-1.98 v 0 c 0.687,-0.513 1.481,-0.861 2.382,-1.046 v 0 c 0.902,-0.185 1.843,-0.165 2.826,0.063 v 0 l 15.58,3.596 c 0.982,0.227 1.923,0.641 2.826,1.242 v 0 c 0.9,0.601 1.702,1.319 2.407,2.153 v 0 c 0.704,0.834 1.26,1.749 1.671,2.745 v 0 c 0.409,0.995 0.614,2.018 0.614,3.066 v 0 2.654 l -7.518,-1.736 v -1.72 c 0,-0.59 -0.206,-1.137 -0.615,-1.641 v 0 c -0.41,-0.504 -0.91,-0.825 -1.499,-0.96 v 0 l -11.352,-2.621 c -0.59,-0.136 -1.09,-0.039 -1.499,0.293 v 0 c -0.411,0.331 -0.615,0.791 -0.615,1.382 v 0 17.495 c 0,0.589 0.204,1.145 0.615,1.665 v 0 c 0.409,0.52 0.909,0.849 1.499,0.985 v 0 l 11.352,2.621 c 0.589,0.136 1.089,0.046 1.499,-0.268 v 0 c 0.409,-0.316 0.615,-0.768 0.615,-1.357 v 0 -1.721 l 7.518,1.736 v 2.654 c 0,1.015 -0.205,1.935 -0.614,2.758 v 0 c -0.411,0.822 -0.967,1.488 -1.671,1.998 v 0 c -0.705,0.508 -1.507,0.856 -2.407,1.041 v 0 c -0.406,0.083 -0.82,0.125 -1.242,0.125 v 0 c -0.516,0 -1.044,-0.063 -1.584,-0.188 m -35.925,-8.294 -24.081,-5.559 v -34.401 l 7.519,1.736 v 12.728 l 7.716,1.781 8.649,-10.731 8.109,1.872 -8.649,10.732 c 1.278,0.295 2.415,0.762 3.415,1.402 v 0 c 0.999,0.64 1.859,1.388 2.58,2.242 v 0 c 0.721,0.855 1.269,1.775 1.647,2.764 v 0 c 0.376,0.988 0.565,1.973 0.565,2.956 v 0 6.733 c 0,1.048 -0.205,1.975 -0.615,2.783 v 0 c -0.409,0.805 -0.958,1.465 -1.645,1.979 v 0 c -0.689,0.512 -1.483,0.861 -2.384,1.046 v 0 c -0.405,0.083 -0.818,0.125 -1.239,0.125 v 0 c -0.516,0 -1.045,-0.063 -1.587,-0.188 m -16.562,-10.114 14.448,3.336 c 0.59,0.136 1.09,0.038 1.5,-0.293 v 0 c 0.409,-0.332 0.614,-0.792 0.614,-1.382 v 0 -4.766 c 0,-0.59 -0.205,-1.146 -0.614,-1.666 v 0 c -0.41,-0.521 -0.91,-0.848 -1.5,-0.985 v 0 l -14.448,-3.336 z m -32.976,-1.323 -14.546,-37.758 7.469,1.725 2.999,8.112 15.578,3.596 3.048,-6.717 7.47,1.726 -14.547,31.041 z m 3.735,-7.098 0.048,0.012 5.162,-11.538 -10.419,-2.405 z"
         transform="translate(-493.45801,-261.40301)"
         id="path39" />
    </clipPath>
    <clipPath
       clipPathUnits="userSpaceOnUse"
       id="clipPath41">
      <path
         d="m 431.077,224.03 v -34.401 l 28.701,6.626 v 6.29 l -21.182,-4.89 v 8.06 l 17.397,4.016 v 6.291 l -17.397,-4.016 v 7.47 l 21.182,4.889 v 6.291 z m -13.663,-3.155 -24.031,-5.547 v -34.402 l 24.031,5.549 c 1.048,0.242 2.031,0.673 2.948,1.295 v 0 c 0.917,0.621 1.712,1.353 2.384,2.196 v 0 c 0.671,0.843 1.204,1.76 1.598,2.753 v 0 c 0.392,0.991 0.589,1.978 0.589,2.962 v 0 19.46 c 0,1.049 -0.204,1.976 -0.614,2.783 v 0 c -0.411,0.806 -0.959,1.465 -1.647,1.978 v 0 c -0.686,0.513 -1.49,0.86 -2.407,1.042 v 0 c -0.408,0.081 -0.822,0.121 -1.243,0.121 v 0 c -0.526,0 -1.062,-0.063 -1.608,-0.19 m -16.561,-10.113 14.448,3.335 c 0.59,0.136 1.088,0.038 1.499,-0.293 v 0 c 0.409,-0.332 0.614,-0.791 0.614,-1.381 v 0 -17.495 c 0,-0.59 -0.205,-1.146 -0.614,-1.666 v 0 c -0.411,-0.521 -0.909,-0.849 -1.499,-0.985 v 0 l -14.448,-3.336 z m -32.927,-1.311 -14.546,-37.76 7.47,1.725 2.998,8.112 15.578,3.597 3.048,-6.717 7.469,1.724 -14.547,31.043 z m 3.736,-7.099 0.049,0.011 5.16,-11.537 -10.419,-2.406 z m -27.52,1.607 -15.58,-3.596 c -1.048,-0.243 -2.023,-0.673 -2.923,-1.289 v 0 c -0.902,-0.62 -1.688,-1.349 -2.36,-2.192 v 0 c -0.671,-0.843 -1.204,-1.761 -1.597,-2.752 v 0 c -0.393,-0.992 -0.589,-1.979 -0.589,-2.962 v 0 -19.461 c 0,-1.049 0.204,-1.976 0.614,-2.782 v 0 c 0.409,-0.807 0.958,-1.467 1.647,-1.98 v 0 c 0.687,-0.513 1.481,-0.861 2.382,-1.046 v 0 c 0.902,-0.185 1.843,-0.165 2.826,0.063 v 0 l 15.58,3.596 c 0.982,0.227 1.923,0.641 2.826,1.242 v 0 c 0.9,0.601 1.702,1.319 2.407,2.153 v 0 c 0.704,0.834 1.26,1.749 1.671,2.745 v 0 c 0.409,0.995 0.614,2.018 0.614,3.066 v 0 2.654 l -7.518,-1.736 v -1.72 c 0,-0.59 -0.206,-1.137 -0.615,-1.641 v 0 c -0.41,-0.504 -0.91,-0.825 -1.499,-0.96 v 0 l -11.352,-2.621 c -0.59,-0.136 -1.09,-0.039 -1.499,0.293 v 0 c -0.411,0.331 -0.615,0.791 -0.615,1.382 v 0 17.495 c 0,0.589 0.204,1.145 0.615,1.665 v 0 c 0.409,0.52 0.909,0.849 1.499,0.985 v 0 l 11.352,2.621 c 0.589,0.136 1.089,0.046 1.499,-0.268 v 0 c 0.409,-0.316 0.615,-0.768 0.615,-1.357 v 0 -1.721 l 7.518,1.736 v 2.654 c 0,1.015 -0.205,1.935 -0.614,2.758 v 0 c -0.411,0.822 -0.967,1.488 -1.671,1.998 v 0 c -0.705,0.508 -1.507,0.856 -2.407,1.041 v 0 c -0.406,0.083 -0.82,0.125 -1.242,0.125 v 0 c -0.516,0 -1.044,-0.063 -1.584,-0.188 m -35.925,-8.294 -24.081,-5.559 v -34.401 l 7.519,1.736 v 12.728 l 7.716,1.781 8.649,-10.731 8.109,1.872 -8.649,10.732 c 1.278,0.295 2.415,0.762 3.415,1.402 v 0 c 0.999,0.64 1.859,1.388 2.58,2.242 v 0 c 0.721,0.855 1.269,1.775 1.647,2.764 v 0 c 0.376,0.988 0.565,1.973 0.565,2.956 v 0 6.733 c 0,1.048 -0.205,1.975 -0.615,2.783 v 0 c -0.409,0.805 -0.958,1.465 -1.645,1.979 v 0 c -0.689,0.512 -1.483,0.861 -2.384,1.046 v 0 c -0.405,0.083 -0.818,0.125 -1.239,0.125 v 0 c -0.516,0 -1.045,-0.063 -1.587,-0.188 m -16.562,-10.114 14.448,3.336 c 0.59,0.136 1.09,0.038 1.5,-0.293 v 0 c 0.409,-0.332 0.614,-0.792 0.614,-1.382 v 0 -4.766 c 0,-0.59 -0.205,-1.146 -0.614,-1.666 v 0 c -0.41,-0.521 -0.91,-0.848 -1.5,-0.985 v 0 l -14.448,-3.336 z m -32.976,-1.323 -14.546,-37.758 7.469,1.725 2.999,8.112 15.578,3.596 3.048,-6.717 7.47,1.726 -14.547,31.041 z m 3.735,-7.098 0.048,0.012 5.162,-11.538 -10.419,-2.405 z"
         transform="translate(-493.45801,-261.40301)"
         id="path41" />
    </clipPath>
    <clipPath
       clipPathUnits="userSpaceOnUse"
       id="clipPath43">
      <path
         d="M 0,500 H 500 V 0 H 0 Z"
         transform="translate(-372.76561,-274.77111)"
         id="path43" />
    </clipPath>
    <clipPath
       clipPathUnits="userSpaceOnUse"
       id="clipPath45">
      <path
         d="M 0,500 H 500 V 0 H 0 Z"
         transform="translate(-313.52341,-326.55431)"
         id="path45" />
    </clipPath>
    <clipPath
       clipPathUnits="userSpaceOnUse"
       id="clipPath47">
      <path
         d="M 0,500 H 500 V 0 H 0 Z"
         transform="translate(-186.4746,-246.10901)"
         id="path47" />
    </clipPath>
    <clipPath
       clipPathUnits="userSpaceOnUse"
       id="clipPath49">
      <path
         d="M 0,500 H 500 V 0 H 0 Z"
         transform="translate(-118.6182,-290.02551)"
         id="path49" />
    </clipPath>
    <clipPath
       clipPathUnits="userSpaceOnUse"
       id="clipPath51">
      <path
         d="M 0,500 H 500 V 0 H 0 Z"
         transform="translate(-446.61621,-239.7159)"
         id="path51" />
    </clipPath>
    <clipPath
       clipPathUnits="userSpaceOnUse"
       id="clipPath667">
      <path
         d="M 0,500 H 500 V 0 H 0 Z"
         transform="translate(-372.76561,-274.77111)"
         id="path667" />
    </clipPath>
  </defs>
  <sodipodi:namedview
     id="namedview1"
     pagecolor="#ffffff"
     bordercolor="#000000"
     borderopacity="0.25"
     inkscape:showpageshadow="2"
     inkscape:pageopacity="0.0"
     inkscape:pagecheckerboard="0"
     inkscape:deskcolor="#d1d1d1"
     showgrid="false"
     inkscape:zoom="1.5405"
     inkscape:cx="333.33334"
     inkscape:cy="333.00877"
     inkscape:window-width="2560"
     inkscape:window-height="1412"
     inkscape:window-x="0"
     inkscape:window-y="0"
     inkscape:window-maximized="1"
     inkscape:current-layer="layer-MC0">
    <inkscape:page
       x="0"
       y="0"
       inkscape:label="1"
       id="page1"
       width="666.66669"
       height="666.66669"
       margin="0"
       bleed="0" />
  </sodipodi:namedview>
  <g
     id="layer-MC0"
     inkscape:groupmode="layer"
     inkscape:label="Layer 1">
    <path
       id="path1"
       d="M 0,0 H 500 V 500 H 0 Z"
       style="fill:#4a31ff;fill-opacity:1;fill-rule:nonzero;stroke:none"
       transform="matrix(1.3333333,0,0,-1.3333333,0,666.66667)" />
    <path
       id="path2"
       d="m 0,0 -25.055,-2.825 -16.478,19.026 -5.002,-24.722 -23.25,-9.827 21.888,-12.4 2.192,-25.015 18.573,16.914 24.53,-5.759 -10.384,22.949 z"
       style="fill:#ffffff;fill-opacity:1;fill-rule:nonzero;stroke:none"
       transform="matrix(1.3333333,0,0,-1.3333333,642.51947,545.5936)" />
    <path
       id="path3"
       d="M 0,0 -15.344,-1.729 -25.436,9.923 -28.5,-5.218 l -14.238,-6.018 13.405,-7.595 1.342,-15.319 11.375,10.358 15.023,-3.527 -6.36,14.054 z"
       style="fill:#ffffff;fill-opacity:1;fill-rule:nonzero;stroke:none"
       transform="matrix(1.3333333,0,0,-1.3333333,124.164,500.03107)" />
    <path
       id="path4"
       d="m 0,0 -15.345,-1.73 -10.092,11.652 -3.063,-15.14 -14.239,-6.019 13.405,-7.594 1.342,-15.32 11.375,10.359 15.024,-3.527 -6.361,14.054 z"
       style="fill:#ffffff;fill-opacity:1;fill-rule:nonzero;stroke:none"
       transform="matrix(1.3333333,0,0,-1.3333333,112.37373,156.7388)" />
    <path
       id="path5"
       d="m 0,0 -6.998,-0.789 -4.602,5.314 -1.397,-6.904 -6.494,-2.745 6.113,-3.464 0.612,-6.986 5.188,4.724 6.851,-1.608 -2.9,6.409 z"
       style="fill:#ffffff;fill-opacity:1;fill-rule:nonzero;stroke:none"
       transform="matrix(1.3333333,0,0,-1.3333333,548.89453,144.2564)" />
    <path
       id="path6"
       d="m 0,0 -6.997,-0.789 -4.603,5.313 -1.397,-6.904 -6.493,-2.745 6.113,-3.463 0.612,-6.986 5.188,4.723 6.85,-1.608 -2.9,6.409 z"
       style="fill:#ffffff;fill-opacity:1;fill-rule:nonzero;stroke:none"
       transform="matrix(1.3333333,0,0,-1.3333333,484.46093,501.58053)" />
    <path
       id="path7"
       d="m 0,0 -13.065,6.787 -1.794,14.586 -10.472,-10.355 -14.469,2.804 6.573,-13.136 -7.079,-12.839 14.509,2.153 10.016,-10.776 2.436,14.504 z"
       style="fill:#ffffff;fill-opacity:1;fill-rule:nonzero;stroke:none"
       transform="matrix(1.3333333,0,0,-1.3333333,320.3216,106.97373)" />
    <path
       id="path8"
       d="m 0,0 -24.781,4.803 11.258,-22.497 -12.124,-21.989 24.848,3.688 17.155,-18.457 4.171,24.841 3.106,1.46 V -8.61 l -2.625,1.363 -3.074,24.982 z"
       style="fill:#ff6b18;fill-opacity:1;fill-rule:nonzero;stroke:none"
       transform="matrix(1.3333333,0,0,-1.3333333,635.1564,84.443467)" />
    <path
       id="path9"
       d="m 0,0 -6.154,3.423 -0.659,6.999 -5.148,-4.809 -6.88,1.539 2.963,-6.371 -3.56,-6.042 6.966,0.831 4.642,-5.289 1.363,6.902 z"
       style="fill:#f15a22;fill-opacity:1;fill-rule:nonzero;stroke:none"
       transform="matrix(1.3333333,0,0,-1.3333333,226.25267,190.78693)" />
    <path
       id="path10"
       d="m 0,0 -5.465,1.222 v -2.725 l 1.549,-3.329 -1.549,-2.629 v -3.174 l 4.956,0.591 4.642,-5.288 1.362,6.902 6.467,2.816 -6.154,3.423 -0.659,6.999 z"
       style="fill:#f15a22;fill-opacity:1;fill-rule:nonzero;stroke:none"
       transform="matrix(1.3333333,0,0,-1.3333333,7.2864,445.72027)" />
    <path
       id="path11"
       d="m 0,0 -6.153,3.423 -0.659,6.999 -5.149,-4.808 -6.88,1.538 2.964,-6.37 -3.56,-6.043 6.966,0.832 4.642,-5.289 1.363,6.901 z"
       style="fill:#f15a22;fill-opacity:1;fill-rule:nonzero;stroke:none"
       transform="matrix(1.3333333,0,0,-1.3333333,645.55987,443.3416)" />
    <path
       id="path12"
       d="m 0,0 -6.154,3.423 -0.658,6.999 -5.149,-4.808 -6.88,1.538 2.964,-6.37 -3.56,-6.043 6.966,0.832 4.642,-5.29 1.362,6.902 z"
       style="fill:#f15a22;fill-opacity:1;fill-rule:nonzero;stroke:none"
       transform="matrix(1.3333333,0,0,-1.3333333,420.45827,144.41067)" />
    <path
       id="path13"
       d="m 0,0 -13.064,6.786 -1.795,14.586 -10.472,-10.355 -14.469,2.804 6.574,-13.135 -7.08,-12.839 14.509,2.153 10.016,-10.776 2.436,14.504 z"
       style="fill:#f15a22;fill-opacity:1;fill-rule:nonzero;stroke:none"
       transform="matrix(1.3333333,0,0,-1.3333333,217.7344,605.50373)" />
    <path
       id="path14"
       d="m 0,0 -13.064,6.786 -1.795,14.587 -10.472,-10.355 -14.468,2.804 6.573,-13.136 -7.08,-12.839 14.509,2.153 10.016,-10.776 2.436,14.504 z"
       style="fill:#f15a22;fill-opacity:1;fill-rule:nonzero;stroke:none"
       transform="matrix(1.3333333,0,0,-1.3333333,60.203733,73.414533)" />
    <path
       id="path15"
       d="m 0,0 -6.154,3.423 -0.658,6.999 -5.149,-4.808 -6.88,1.538 2.964,-6.37 -3.56,-6.043 6.966,0.832 4.642,-5.29 1.363,6.902 z"
       style="fill:#faa61a;fill-opacity:1;fill-rule:nonzero;stroke:none"
       transform="matrix(1.3333333,0,0,-1.3333333,168.99613,53.933467)" />
    <path
       id="path16"
       d="M 0,0 -0.346,0.077 V -10.23 l 4.478,-5.102 1.363,6.901 6.466,2.817 -6.153,3.423 -0.66,6.999 z"
       style="fill:#faa61a;fill-opacity:1;fill-rule:nonzero;stroke:none"
       transform="matrix(1.3333333,0,0,-1.3333333,0.462,297.41107)" />
    <path
       id="path17"
       d="m 0,0 -6.154,3.423 -0.658,6.999 -5.149,-4.809 -6.88,1.539 2.964,-6.371 -3.56,-6.042 6.966,0.831 4.642,-5.289 1.363,6.903 z"
       style="fill:#faa61a;fill-opacity:1;fill-rule:nonzero;stroke:none"
       transform="matrix(1.3333333,0,0,-1.3333333,54.3568,619.60667)" />
    <path
       id="path18"
       d="m 0,0 -6.154,3.423 -0.658,6.999 -5.149,-4.808 -6.88,1.538 2.963,-6.37 -3.559,-6.043 6.965,0.832 4.643,-5.29 1.362,6.903 z"
       style="fill:#faa61a;fill-opacity:1;fill-rule:nonzero;stroke:none"
       transform="matrix(1.3333333,0,0,-1.3333333,504.42973,629.03893)" />
    <path
       id="path19"
       d="M 0,0 -3.56,-6.042 3.407,-5.211 4.793,-6.79 V 5.651 L 3.916,4.832 -2.964,6.371 Z"
       style="fill:#faa61a;fill-opacity:1;fill-rule:nonzero;stroke:none"
       transform="matrix(1.3333333,0,0,-1.3333333,660.2772,304.95067)" />
    <path
       id="path20"
       d="m 0,0 -22.375,11.623 -3.073,24.981 -17.935,-17.735 -24.78,4.803 11.258,-22.497 -12.125,-21.988 24.848,3.687 17.155,-18.456 4.172,24.841 z"
       style="fill:#faa61a;fill-opacity:1;fill-rule:nonzero;stroke:none"
       transform="matrix(1.3333333,0,0,-1.3333333,394.7252,588.6404)" />
    <path
       id="path21"
       d="m 0,0 -13.064,6.786 -1.795,14.587 -10.472,-10.355 -14.469,2.804 6.573,-13.136 -7.08,-12.839 14.509,2.153 10.017,-10.776 2.435,14.504 z"
       style="fill:#faa61a;fill-opacity:1;fill-rule:nonzero;stroke:none"
       transform="matrix(1.3333333,0,0,-1.3333333,501.50787,54.0688)" />
    <path
       id="path22"
       d="m 0,0 c -12.657,0 -25.164,-2.653 -36.635,-7.727 -14.853,9.98 -32.487,15.399 -50.503,15.399 -36.267,0 -68.856,-21.879 -83.036,-54.474 -11.614,1.568 -23.398,0.858 -34.584,-2.004 -16.928,17.09 -39.881,26.735 -64.239,26.735 -49.897,0 -90.49,-40.594 -90.49,-90.491 0,-49.896 40.593,-90.49 90.49,-90.49 7.642,0 15.177,0.946 22.496,2.819 16.94,-17.106 39.901,-26.758 64.26,-26.758 36.267,0 68.856,21.88 83.036,54.475 16.603,-2.242 33.598,0.221 48.724,6.912 14.855,-9.98 32.489,-15.4 50.503,-15.4 49.897,0 90.491,40.594 90.491,90.491 C 90.513,-40.604 49.909,0 0,0"
       style="fill:#00b3f0;fill-opacity:1;fill-rule:nonzero;stroke:none"
       transform="matrix(1.3333333,0,0,-1.3333333,512.64973,187.12093)"
       clip-path="url(#clipPath23)" />
    <path
       id="path24"
       d="M 0,0 C -12.999,0 -25.824,-3.032 -37.345,-8.799 -51.678,1.85 -69.202,7.672 -87.138,7.672 c -35.302,0 -66.824,-22.469 -78.605,-55.314 -5.458,1.099 -10.993,1.655 -16.52,1.655 -8.427,0 -16.71,-1.246 -24.682,-3.708 -15.831,17.608 -38.211,27.624 -62.052,27.624 -46.026,0 -83.471,-37.445 -83.471,-83.471 0,-46.026 37.445,-83.471 83.471,-83.471 8.428,0 16.711,1.245 24.682,3.707 15.846,-17.623 38.234,-27.645 62.074,-27.645 35.303,0 66.824,22.468 78.604,55.312 5.458,-1.098 10.993,-1.653 16.521,-1.653 13,0 25.824,3.032 37.345,8.798 14.334,-10.649 31.858,-16.47 49.793,-16.47 46.026,0 83.471,37.444 83.471,83.47 C 83.493,-37.455 46.038,0 0,0"
       style="fill:#ffffff;fill-opacity:1;fill-rule:nonzero;stroke:none"
       transform="matrix(1.3333333,0,0,-1.3333333,512.64973,196.48027)"
       clip-path="url(#clipPath25)" />
    <path
       id="path26"
       d="m 0,0 c -13.792,0 -26.751,-3.6 -37.979,-9.945 -13.364,11.002 -30.485,17.617 -49.16,17.617 -35.48,0 -65.381,-23.894 -74.516,-56.45 -6.569,1.8 -13.476,2.79 -20.609,2.79 -9.359,0 -18.336,-1.665 -26.638,-4.702 -14.175,17.459 -35.841,28.618 -60.095,28.618 -42.725,0 -77.373,-34.648 -77.373,-77.373 0,-42.725 34.648,-77.374 77.373,-77.374 9.36,0 18.337,1.665 26.639,4.702 14.197,-17.481 35.84,-28.64 60.117,-28.64 35.48,0 65.382,23.893 74.516,56.449 6.57,-1.8 13.477,-2.79 20.609,-2.79 13.792,0 26.752,3.6 37.978,9.945 13.365,-11.002 30.487,-17.617 49.16,-17.617 42.726,0 77.374,34.648 77.374,77.374 C 77.396,-34.671 42.748,0 0,0"
       style="fill:#130c0e;fill-opacity:1;fill-rule:nonzero;stroke:none"
       transform="matrix(1.3333333,0,0,-1.3333333,512.64973,204.60987)"
       clip-path="url(#clipPath27)" />
    <path
       id="path28"
       d="m 0,0 -94.842,-21.896 7.51,-32.53 94.842,21.896 z"
       style="fill:#130c0e;fill-opacity:1;fill-rule:nonzero;stroke:none"
       transform="matrix(1.3333333,0,0,-1.3333333,465.72133,366.56107)"
       clip-path="url(#clipPath29)" />
    <path
       id="path30"
       d="m 0,0 v 17.19 l -210.35,-48.562 -19.155,-49.723 20.008,4.618 2.998,8.113 8.551,1.974 3.048,-6.715 94.651,21.851 2.997,8.112 8.552,1.974 3.047,-6.716 L 0,-28.11 v 17.19 l -3.784,-0.873 v 10.919 z"
       style="fill:#130c0e;fill-opacity:1;fill-rule:nonzero;stroke:none"
       transform="matrix(1.3333333,0,0,-1.3333333,620.11587,373.14573)"
       clip-path="url(#clipPath31)" />
    <path
       id="path32"
       d="M 0,0 -28.7,-6.626 V 27.775 L 0,34.401 V 28.11 L -21.182,23.221 V 15.75 l 17.398,4.017 V 13.476 L -21.182,9.459 V 1.4 L 0,6.29 Z m -42.363,16.167 c 0,0.591 -0.205,1.05 -0.615,1.382 -0.41,0.331 -0.909,0.43 -1.499,0.293 L -58.925,14.507 V -7.314 l 14.448,3.336 c 0.59,0.136 1.089,0.464 1.499,0.985 0.41,0.52 0.615,1.076 0.615,1.666 z m 7.519,-16.742 c 0,-0.983 -0.197,-1.97 -0.59,-2.962 -0.393,-0.992 -0.926,-1.909 -1.597,-2.752 -0.672,-0.843 -1.467,-1.575 -2.384,-2.196 -0.917,-0.622 -1.9,-1.054 -2.948,-1.295 l -24.032,-5.549 v 34.401 l 24.032,5.549 c 0.983,0.227 1.932,0.249 2.85,0.068 0.917,-0.182 1.721,-0.529 2.409,-1.042 0.687,-0.512 1.235,-1.172 1.646,-1.978 0.409,-0.807 0.614,-1.734 0.614,-2.783 z m -58.481,-7.259 10.419,2.405 -5.16,11.537 -0.049,-0.011 z m 16.021,-10.013 -3.048,6.717 -15.578,-3.597 -2.998,-8.112 -7.469,-1.725 14.546,37.759 7.47,1.725 14.547,-31.043 z m -53.911,-12.446 c -0.983,-0.228 -1.925,-0.248 -2.826,-0.063 -0.901,0.185 -1.695,0.534 -2.383,1.047 -0.688,0.512 -1.237,1.172 -1.646,1.978 -0.41,0.807 -0.615,1.734 -0.615,2.783 v 19.461 c 0,0.983 0.197,1.97 0.59,2.962 0.393,0.991 0.925,1.909 1.597,2.752 0.672,0.843 1.458,1.573 2.359,2.191 0.901,0.618 1.875,1.047 2.924,1.289 l 15.579,3.597 c 0.983,0.227 1.924,0.248 2.826,0.063 0.901,-0.185 1.703,-0.533 2.408,-1.041 0.704,-0.51 1.26,-1.176 1.671,-1.998 0.409,-0.823 0.614,-1.743 0.614,-2.758 v -2.654 l -7.519,-1.736 v 1.721 c 0,0.589 -0.206,1.041 -0.614,1.357 -0.41,0.314 -0.91,0.404 -1.499,0.268 l -11.353,-2.621 c -0.589,-0.136 -1.089,-0.465 -1.499,-0.985 -0.41,-0.521 -0.614,-1.075 -0.614,-1.666 V -21.84 c 0,-0.591 0.204,-1.051 0.614,-1.382 0.41,-0.332 0.91,-0.429 1.499,-0.293 l 11.353,2.62 c 0.589,0.137 1.089,0.457 1.499,0.961 0.408,0.504 0.614,1.051 0.614,1.641 v 1.72 l 7.519,1.736 v -2.654 c 0,-1.049 -0.205,-2.071 -0.614,-3.066 -0.411,-0.996 -0.967,-1.911 -1.671,-2.745 -0.705,-0.834 -1.507,-1.552 -2.408,-2.153 -0.902,-0.601 -1.843,-1.015 -2.826,-1.242 z m -20.346,21.25 c 0,0.59 -0.205,1.05 -0.614,1.382 -0.409,0.331 -0.909,0.43 -1.499,0.293 l -14.448,-3.336 v -9.091 l 14.448,3.335 c 0.59,0.136 1.09,0.464 1.499,0.985 0.409,0.52 0.614,1.076 0.614,1.666 z m 0,8.453 c 0.984,0.227 1.925,0.248 2.827,0.063 0.9,-0.185 1.695,-0.535 2.383,-1.047 0.688,-0.513 1.236,-1.173 1.646,-1.979 0.41,-0.806 0.614,-1.734 0.614,-2.782 v -6.733 c 0,-0.983 -0.188,-1.969 -0.564,-2.956 -0.378,-0.989 -0.926,-1.91 -1.647,-2.764 -0.72,-0.854 -1.581,-1.601 -2.58,-2.241 -1,-0.641 -2.138,-1.108 -3.415,-1.403 l 8.649,-10.732 -8.11,-1.872 -8.648,10.732 -7.716,-1.782 v -12.728 l -7.519,-1.736 v 34.401 z m -51.011,-32.466 10.419,2.405 -5.161,11.537 -0.049,-0.011 z m 16.021,-10.012 -3.048,6.716 -15.578,-3.596 -2.998,-8.113 -7.47,-1.724 14.546,37.759 7.471,1.724 14.547,-31.042 z"
       style="fill:#ffcc3e;fill-opacity:1;fill-rule:nonzero;stroke:none"
       transform="matrix(1.3333333,0,0,-1.3333333,613.0364,404.99333)"
       clip-path="url(#clipPath33)" />
    <path
       id="path34"
       d="m 0,0 -262.933,-60.721 10.312,-40.641 262.933,60.721 z"
       style="fill:#ffd880;fill-opacity:1;fill-rule:nonzero;stroke:none"
       transform="matrix(1.3333333,0,0,-1.3333333,657.944,318.12933)"
       clip-path="url(#clipPath35)" />
    <path
       id="path36"
       d="m 0,0 -262.933,-60.721 9.409,-38.348 262.932,60.721 z"
       style="fill:#ffeac0;fill-opacity:1;fill-rule:nonzero;stroke:none"
       transform="matrix(1.3333333,0,0,-1.3333333,657.944,318.12933)"
       clip-path="url(#clipPath37)" />
    <path
       id="path38"
       d="m 0,0 -262.933,-60.721 8.571,-36.404 262.933,60.721 z"
       style="fill:#fff7e6;fill-opacity:1;fill-rule:nonzero;stroke:none"
       transform="matrix(1.3333333,0,0,-1.3333333,657.944,318.12933)"
       clip-path="url(#clipPath39)" />
    <path
       id="path40"
       d="m 0,0 -262.933,-60.721 8.257,-34.71 262.933,60.721 z"
       style="fill:#ffffff;fill-opacity:1;fill-rule:nonzero;stroke:none"
       transform="matrix(1.3333333,0,0,-1.3333333,657.944,318.12933)"
       clip-path="url(#clipPath41)" />
    <path
       id="path666"
       d="m 0,0 c 0,0 -1.829,-15.582 -21.779,-35.706 l -10.215,8.482 c 10.223,8.279 22.004,27.196 22.004,44.053 v 0.476 c 0,2.025 -1.567,2.023 -3.518,1.643 l -1.971,-0.383 v 6.001 L 6.412,28.821 V 20.017 C 6.412,2.801 15.909,0.034 28.528,-0.09 L 22.251,-9.854 C 3.075,-8.134 0,0 0,0 M 61.309,24.096 V 13.132 L 48.845,10.709 v -20.59 l -16.65,-3.236 v 47.442 c 0,2.136 -1.754,2.114 -3.752,1.726 l -2.007,-0.39 v 6.331 l 22.409,4.356 V 21.673 Z M 17.278,-44.989 c -2.272,0.045 -6.907,0.136 -6.907,7.262 0,7.386 5.898,12.683 12.308,12.684 6.579,10e-4 7.042,-4.458 7.042,-7.172 0,-6.653 -5.735,-12.906 -12.443,-12.774 m 16.65,29.369 c -6.34,1.589 -17.61,1.829 -28.956,-5.76 -9.786,-6.545 -13.235,-18.056 -9.759,-25.966 5.326,-12.123 26.679,-10.548 40.155,-1.553 7.53,5.026 11.317,11.148 11.317,18.237 0,6.329 -3.302,12.672 -12.757,15.042"
       style="fill:#faa61a;fill-opacity:1;fill-rule:nonzero;stroke:none"
       transform="matrix(1.3333333,0,0,-1.3333333,497.02067,300.30533)"
       clip-path="url(#clipPath667)"
       inkscape:label="path42" />
    <path
       id="path44"
       d="m 0,0 v -6.207 l 1.669,0.325 c 1.662,0.322 3.148,0.543 3.148,-1.594 v -79.045 l 16.785,3.262 V 4.199 Z m -19.662,-19.925 v -6.207 l 1.67,0.325 c 1.662,0.323 3.183,0.619 3.183,-1.518 v -18.088 l -14.078,-2.736 v -9.731 l 14.078,2.736 v -53.604 l 15.441,3.002 v 89.766 z m 2.183,-51.545 -7.2,-9.607 c -14.065,4.591 -17.864,11.587 -17.864,11.587 0,0 -5.326,-9.898 -16.492,-20.136 l -9.315,7.762 c 0,0 16.457,15.365 16.457,30.713 v 11.682 c 0,2.136 -1.745,2.08 -3.697,1.701 l -1.96,-0.381 v 6.75 l 21.554,4.19 v -21.492 c 0,-20.578 18.517,-22.769 18.517,-22.769"
       style="fill:#f15a22;fill-opacity:1;fill-rule:nonzero;stroke:none"
       transform="matrix(1.3333333,0,0,-1.3333333,418.0312,231.26093)"
       clip-path="url(#clipPath45)" />
    <path
       id="path46"
       d="M 0,0 V -9.924 L 53.143,0.406 V -9.265 L -8.446,-21.236 c -4.97,-0.966 -9,2.28 -9,7.251 v 11.521 c 0,1.993 -0.183,2.595 -4.845,1.689 l -0.883,-0.171 V 5.166 L 53.143,20 v -9.67 z m 53.143,-14.001 v -9.671 l -89.366,-17.371 v 9.67 z M 33.613,-54.596 3.51,-60.448 v 12.609 l 30.103,5.851 z m 17.73,25.837 -71.344,-13.867 v -6.64 l 0.884,0.172 c 4.669,0.907 4.853,0.176 4.853,-2.011 V -65 c 0,-4.473 3.626,-7.395 8.1,-6.525 l 51.206,9.953 c 4.474,0.87 8.101,5.201 8.101,9.675 v 21.688 c 0,0.994 -0.807,1.644 -1.8,1.45"
       style="fill:#faa61a;fill-opacity:1;fill-rule:nonzero;stroke:none"
       transform="matrix(1.3333333,0,0,-1.3333333,248.6328,338.52133)"
       clip-path="url(#clipPath47)" />
    <path
       id="path48"
       d="m 0,0 v -6.705 l 1.958,0.381 c 1.949,0.379 3.734,0.725 3.734,-1.776 v -39.598 c -2.88,-1.62 -6.568,-2.964 -11.114,-3.847 l -26.932,-5.235 v 12.119 l 24.974,4.855 c 1.243,0.242 2.25,1.445 2.25,2.687 v 23.996 c 0,1.242 -1.007,2.054 -2.25,1.812 l -46.843,-9.105 v -10.363 l 31.949,6.211 v -8.149 l -33.434,-6.499 v -6.817 l 0.79,0.154 c 1.594,0.309 3.958,0.769 3.958,-1.549 V -63.56 c 0,-3.976 3.223,-6.573 7.2,-5.8 l 35.165,6.836 c 6.597,1.282 11.385,2.879 14.287,4.342 v -37.966 l 18.112,3.52 V 4.627 Z"
       style="fill:#f15a22;fill-opacity:1;fill-rule:nonzero;stroke:none"
       transform="matrix(1.3333333,0,0,-1.3333333,158.1576,279.966)"
       clip-path="url(#clipPath49)" />
    <path
       id="path50"
       d="M 0,0 V 8.9 L -2.239,-0.528 -4.664,-1.1 -6.85,7.285 v -8.9 L -9.142,-2.156 V 8.499 l 3.581,0.844 2.16,-7.942 0.026,0.007 2.105,8.947 3.535,0.834 V 0.534 Z m -16.548,-3.902 v 8.765 l -3.687,-0.869 v 1.883 l 9.752,2.3 V 6.293 L -14.037,5.455 V -3.31 Z"
       style="fill:#faa61a;fill-opacity:1;fill-rule:nonzero;stroke:none"
       transform="matrix(1.3333333,0,0,-1.3333333,595.48827,347.04547)"
       clip-path="url(#clipPath51)" />
  </g>
</svg>
