<?xml version="1.0" encoding="UTF-8" standalone="no"?>
<!-- Created with Inkscape (http://www.inkscape.org/) -->

<svg
   version="1.1"
   id="svg1"
   width="666.66669"
   height="496.73068"
   viewBox="0 0 666.66669 496.73068"
   sodipodi:docname="Rhythm Heaven Arcade (ESP) Logo (Wordmark).ai"
   xmlns:inkscape="http://www.inkscape.org/namespaces/inkscape"
   xmlns:sodipodi="http://sodipodi.sourceforge.net/DTD/sodipodi-0.dtd"
   xmlns="http://www.w3.org/2000/svg"
   xmlns:svg="http://www.w3.org/2000/svg">
  <defs
     id="defs1">
    <clipPath
       clipPathUnits="userSpaceOnUse"
       id="clipPath2">
      <path
         d="M 0,372.548 H 500 V 0 H 0 Z"
         transform="translate(-490.98271,-61.118204)"
         id="path2" />
    </clipPath>
    <clipPath
       clipPathUnits="userSpaceOnUse"
       id="clipPath4">
      <path
         d="M 0,372.548 H 500 V 0 H 0 Z"
         transform="translate(-493.58911,-80.895502)"
         id="path4" />
    </clipPath>
    <clipPath
       clipPathUnits="userSpaceOnUse"
       id="clipPath6">
      <path
         d="M 0,372.548 H 500 V 0 H 0 Z"
         transform="translate(-465.74241,-153.3477)"
         id="path6" />
    </clipPath>
    <clipPath
       clipPathUnits="userSpaceOnUse"
       id="clipPath8">
      <path
         d="M 0,372.548 H 500 V 0 H 0 Z"
         transform="translate(-420.41041,-257.78711)"
         id="path8" />
    </clipPath>
    <clipPath
       clipPathUnits="userSpaceOnUse"
       id="clipPath10">
      <path
         d="M 0,372.548 H 500 V 0 H 0 Z"
         transform="translate(-345.09201,-156.68561)"
         id="path10" />
    </clipPath>
    <clipPath
       clipPathUnits="userSpaceOnUse"
       id="clipPath12">
      <path
         d="M 0,372.548 H 500 V 0 H 0 Z"
         transform="translate(-296.7454,-215.65191)"
         id="path12" />
    </clipPath>
    <clipPath
       clipPathUnits="userSpaceOnUse"
       id="clipPath14">
      <path
         d="M 0,372.548 H 500 V 0 H 0 Z"
         transform="translate(-238.11841,-128.001)"
         id="path14" />
    </clipPath>
    <clipPath
       clipPathUnits="userSpaceOnUse"
       id="clipPath16">
      <path
         d="M 0,372.548 H 500 V 0 H 0 Z"
         transform="translate(-175.81761,-112.1231)"
         id="path16" />
    </clipPath>
    <clipPath
       clipPathUnits="userSpaceOnUse"
       id="clipPath18">
      <path
         d="M 0,372.548 H 500 V 0 H 0 Z"
         transform="translate(-121.5627,-178.09961)"
         id="path18" />
    </clipPath>
    <clipPath
       clipPathUnits="userSpaceOnUse"
       id="clipPath20">
      <path
         d="M 0,372.548 H 500 V 0 H 0 Z"
         transform="translate(-418.68871,-271.28961)"
         id="path20" />
    </clipPath>
    <clipPath
       clipPathUnits="userSpaceOnUse"
       id="clipPath22">
      <path
         d="M 0,372.548 H 500 V 0 H 0 Z"
         transform="translate(-309.45241,-326.15141)"
         id="path22" />
    </clipPath>
    <clipPath
       clipPathUnits="userSpaceOnUse"
       id="clipPath24">
      <path
         d="M 0,372.548 H 500 V 0 H 0 Z"
         transform="translate(-213.58471,-313.70221)"
         id="path24" />
    </clipPath>
    <clipPath
       clipPathUnits="userSpaceOnUse"
       id="clipPath26">
      <path
         d="M 0,372.548 H 500 V 0 H 0 Z"
         transform="translate(-206.02911,-298.52401)"
         id="path26" />
    </clipPath>
    <clipPath
       clipPathUnits="userSpaceOnUse"
       id="clipPath28">
      <path
         d="M 0,372.548 H 500 V 0 H 0 Z"
         transform="translate(-119.74731,-284.78961)"
         id="path28" />
    </clipPath>
    <clipPath
       clipPathUnits="userSpaceOnUse"
       id="clipPath30">
      <path
         d="M 0,372.548 H 500 V 0 H 0 Z"
         transform="translate(-29.7502,-223.66851)"
         id="path30" />
    </clipPath>
  </defs>
  <sodipodi:namedview
     id="namedview1"
     pagecolor="#ffffff"
     bordercolor="#000000"
     borderopacity="0.25"
     inkscape:showpageshadow="2"
     inkscape:pageopacity="0.0"
     inkscape:pagecheckerboard="0"
     inkscape:deskcolor="#d1d1d1">
    <inkscape:page
       x="0"
       y="0"
       inkscape:label="1"
       id="page1"
       width="666.66669"
       height="496.73068"
       margin="0"
       bleed="0" />
  </sodipodi:namedview>
  <g
     id="layer-MC0"
     inkscape:groupmode="layer"
     inkscape:label="Layer 1">
    <path
       id="path1"
       d="m 0,0 c 0,0.78 -0.258,1.39 -0.772,1.834 -0.515,0.443 -1.108,0.588 -1.78,0.433 l -18.097,-4.178 v -15.183 l 18.097,4.179 c 0.672,0.155 1.265,0.561 1.78,1.222 0.514,0.658 0.772,1.378 0.772,2.157 z m 0,11.16 c 1.186,0.275 2.322,0.277 3.41,0.01 C 4.498,10.901 5.458,10.419 6.288,9.725 7.119,9.029 7.781,8.145 8.275,7.069 8.771,5.994 9.018,4.765 9.018,3.38 V -8.752 c 0,-1.298 -0.238,-2.597 -0.712,-3.895 -0.475,-1.3 -1.119,-2.498 -1.929,-3.592 C 5.565,-17.335 4.607,-18.281 3.5,-19.077 2.392,-19.875 1.225,-20.413 0,-20.696 l -20.649,-4.767 v -13.56 l -9.018,-2.082 V 4.312 Z m -62.952,-22.838 c -0.713,-0.165 -1.326,-0.588 -1.84,-1.268 -0.515,-0.682 -0.771,-1.41 -0.771,-2.19 v -4.152 c 0,-0.778 0.256,-1.391 0.771,-1.833 0.514,-0.444 1.127,-0.583 1.84,-0.419 l 17.443,4.027 c 1.187,0.275 2.323,0.277 3.411,0.01 1.088,-0.268 2.047,-0.751 2.878,-1.444 0.831,-0.696 1.492,-1.581 1.988,-2.656 0.495,-1.076 0.742,-2.306 0.742,-3.69 v -7.525 c 0,-1.298 -0.238,-2.597 -0.712,-3.896 -0.476,-1.3 -1.118,-2.497 -1.929,-3.592 -0.81,-1.095 -1.761,-2.039 -2.848,-2.831 -1.087,-0.793 -2.265,-1.334 -3.53,-1.626 l -20.589,-4.753 c -1.186,-0.274 -2.323,-0.277 -3.411,-0.009 -1.089,0.268 -2.057,0.736 -2.907,1.405 -0.852,0.668 -1.523,1.54 -2.018,2.616 -0.496,1.075 -0.742,2.305 -0.742,3.689 v 3.503 l 9.078,2.096 v -2.206 c 0,-0.778 0.247,-1.381 0.742,-1.807 0.495,-0.427 1.098,-0.558 1.809,-0.394 l 15.486,3.575 c 0.712,0.165 1.315,0.585 1.81,1.262 0.495,0.676 0.742,1.404 0.742,2.183 v 4.93 c 0,0.778 -0.247,1.393 -0.742,1.841 -0.495,0.447 -1.098,0.589 -1.81,0.425 l -17.443,-4.028 c -1.186,-0.273 -2.335,-0.279 -3.441,-0.014 -1.109,0.262 -2.077,0.742 -2.908,1.437 -0.831,0.695 -1.494,1.579 -1.988,2.656 -0.494,1.074 -0.742,2.303 -0.742,3.688 v 6.748 c 0,1.298 0.238,2.595 0.713,3.895 0.474,1.298 1.116,2.497 1.928,3.592 0.811,1.095 1.77,2.04 2.878,2.837 1.107,0.797 2.293,1.341 3.56,1.634 l 19.342,4.465 c 1.187,0.274 2.323,0.276 3.412,0.01 1.087,-0.269 2.056,-0.748 2.907,-1.438 0.851,-0.691 1.523,-1.586 2.017,-2.681 0.495,-1.097 0.742,-2.317 0.742,-3.658 v -3.503 l -9.078,-2.095 v 2.271 c 0,0.778 -0.247,1.38 -0.741,1.808 -0.495,0.425 -1.098,0.557 -1.81,0.392 z m -18.75,-41.44 -34.65,-8 v 45.417 l 34.65,7.999 v -8.304 l -25.572,-5.904 v -9.862 l 21.003,4.849 v -8.306 l -21.003,-4.849 v -10.64 l 25.572,5.904 z"
       style="fill:#000000;fill-opacity:1;fill-rule:nonzero;stroke:none"
       transform="matrix(1.3333333,0,0,-1.3333333,654.6436,415.23973)"
       clip-path="url(#clipPath2)" />
    <path
       id="path3"
       d="M 0,0 -44.331,-10.234 V 42.901 L 0,53.136 V 43.42 L -32.718,35.867 V 24.328 l 26.872,6.204 V 20.815 L -32.718,14.611 V 2.162 L 0,9.716 Z m -65.435,24.973 c 0,0.912 -0.317,1.622 -0.948,2.134 -0.634,0.511 -1.405,0.664 -2.315,0.453 l -22.319,-5.153 v -33.704 l 22.319,5.152 c 0.91,0.21 1.681,0.717 2.315,1.522 0.631,0.804 0.948,1.661 0.948,2.573 z M -53.82,-0.888 c 0,-1.517 -0.305,-3.044 -0.911,-4.575 -0.608,-1.532 -1.431,-2.949 -2.467,-4.251 -1.038,-1.302 -2.267,-2.433 -3.682,-3.392 -1.418,-0.961 -2.935,-1.627 -4.555,-2 l -37.119,-8.571 V 29.46 l 37.119,8.569 c 1.519,0.351 2.986,0.385 4.403,0.106 1.417,-0.281 2.657,-0.817 3.719,-1.609 1.063,-0.792 1.91,-1.811 2.543,-3.056 0.633,-1.246 0.95,-2.678 0.95,-4.298 z m -90.331,-11.214 16.093,3.716 -7.971,17.821 -0.075,-0.018 z m 24.747,-15.464 -4.707,10.375 -24.063,-5.556 -4.631,-12.53 -11.538,-2.664 22.469,58.323 11.538,2.664 22.47,-47.948 z m -83.273,-19.226 c -1.518,-0.35 -2.972,-0.382 -4.364,-0.097 -1.393,0.286 -2.618,0.826 -3.681,1.618 -1.064,0.791 -1.911,1.81 -2.544,3.056 -0.632,1.245 -0.949,2.678 -0.949,4.298 v 30.06 c 0,1.518 0.304,3.043 0.912,4.575 0.607,1.531 1.428,2.949 2.466,4.251 1.038,1.302 2.252,2.428 3.645,3.385 1.391,0.953 2.896,1.617 4.515,1.991 l 24.064,5.555 c 1.518,0.351 2.972,0.382 4.365,0.097 1.392,-0.286 2.631,-0.823 3.719,-1.608 1.088,-0.787 1.947,-1.817 2.581,-3.086 0.633,-1.272 0.949,-2.693 0.949,-4.26 v -4.1 l -11.614,-2.68 v 2.657 c 0,0.91 -0.318,1.608 -0.949,2.097 -0.633,0.484 -1.405,0.624 -2.315,0.414 l -17.535,-4.049 c -0.911,-0.21 -1.683,-0.718 -2.316,-1.522 -0.632,-0.804 -0.949,-1.661 -0.949,-2.572 v -27.022 c 0,-0.912 0.317,-1.624 0.949,-2.135 0.633,-0.513 1.405,-0.663 2.316,-0.453 l 17.535,4.049 c 0.91,0.21 1.682,0.704 2.315,1.483 0.631,0.778 0.949,1.624 0.949,2.534 v 2.657 l 11.614,2.682 v -4.1 c 0,-1.62 -0.316,-3.198 -0.949,-4.736 -0.634,-1.538 -1.493,-2.951 -2.581,-4.239 -1.088,-1.289 -2.327,-2.397 -3.719,-3.325 -1.393,-0.929 -2.847,-1.569 -4.365,-1.919 z m -31.426,32.824 c 0,0.912 -0.316,1.622 -0.949,2.135 -0.632,0.512 -1.403,0.663 -2.314,0.453 l -22.318,-5.152 v -14.044 l 22.318,5.152 c 0.911,0.21 1.682,0.717 2.314,1.522 0.633,0.803 0.949,1.661 0.949,2.572 z m 0,13.057 c 1.519,0.35 2.973,0.383 4.366,0.098 1.39,-0.288 2.619,-0.827 3.681,-1.618 1.063,-0.793 1.91,-1.811 2.543,-3.056 0.632,-1.246 0.949,-2.678 0.949,-4.298 v -10.4 c 0,-1.518 -0.291,-3.041 -0.873,-4.566 -0.583,-1.526 -1.43,-2.949 -2.543,-4.269 -1.114,-1.319 -2.442,-2.473 -3.985,-3.462 -1.544,-0.991 -3.303,-1.711 -5.275,-2.167 l 13.359,-16.577 -12.525,-2.891 -13.36,16.576 -11.918,-2.751 v -19.66 l -11.613,-2.682 v 53.136 z m -78.793,-50.148 16.094,3.715 -7.972,17.821 -0.075,-0.018 z m 24.747,-15.465 -4.707,10.375 -24.062,-5.556 -4.631,-12.53 -11.538,-2.664 22.468,58.323 11.538,2.664 22.47,-47.948 z"
       style="fill:#000000;fill-opacity:1;fill-rule:nonzero;stroke:none"
       transform="matrix(1.3333333,0,0,-1.3333333,658.1188,388.87)"
       clip-path="url(#clipPath4)" />
    <path
       id="path5"
       d="M 0,0 V 8.208 L -2.063,-0.476 -4.298,-0.992 -6.312,6.75 V -1.457 L -8.425,-1.944 V 7.88 l 3.3,0.763 1.99,-7.334 0.025,0.005 1.94,8.242 3.258,0.752 V 0.482 Z m -15.251,-3.521 v 8.083 l -3.398,-0.785 v 1.737 l 8.988,2.075 V 5.853 l -3.276,-0.757 v -8.082 z"
       style="fill:#000000;fill-opacity:1;fill-rule:nonzero;stroke:none"
       transform="matrix(1.3333333,0,0,-1.3333333,620.98987,292.26707)"
       clip-path="url(#clipPath6)" />
    <path
       id="path7"
       d="m 0,0 c 0,0 -0.153,-39.883 -0.649,-46.898 -0.776,-10.958 -3.72,-11.252 -6.226,-9.609 -5,3.28 -14.342,21.958 -22.706,38.201 l -12.203,-2.818 V -122.05 l 14.922,3.445 0.05,25.609 c 0.026,13.145 3.615,14.001 8.831,9.225 3.957,-3.623 9.342,-11.614 17.828,-25.201 l 19.746,4.559 V 4.523 Z"
       style="fill:#000000;fill-opacity:1;fill-rule:nonzero;stroke:none"
       transform="matrix(1.3333333,0,0,-1.3333333,560.5472,153.01453)"
       clip-path="url(#clipPath8)" />
    <path
       id="path9"
       d="m 0,0 c -0.453,-0.002 -3.805,0.111 -4.163,2.669 -0.208,1.481 0.503,2.872 2.292,3.966 2.797,1.711 12.477,4.493 21.77,6.672 v 12.849 c 0,0 -16.826,-4.049 -22,-3.279 -1.571,0.234 -2.618,1.064 -2.826,2.517 -0.213,1.484 0.535,2.821 2.291,3.965 4.733,3.082 25.973,7.664 25.973,7.664 V 66.671 L -20.396,56.575 V -22.458 L 24.253,-12.15 V 4.271 C 12.337,1.563 4.282,0.023 0,0"
       style="fill:#000000;fill-opacity:1;fill-rule:nonzero;stroke:none"
       transform="matrix(1.3333333,0,0,-1.3333333,460.12267,287.81653)"
       clip-path="url(#clipPath10)" />
    <path
       id="path11"
       d="m 0,0 c 0,0 -4.737,-31.212 -8.944,-45.637 -1.202,-4.121 -4.107,-10.428 -8.059,-1.41 -1.415,3.229 -5.616,18.318 -8.7,37.77 l -13.643,-3.15 c 1.194,-13.375 7.743,-49.5 16.47,-70.546 l 26.46,6.108 c 9.739,25.776 15.583,52.999 17.568,81.748 z"
       style="fill:#000000;fill-opacity:1;fill-rule:nonzero;stroke:none"
       transform="matrix(1.3333333,0,0,-1.3333333,395.66053,209.1948)"
       clip-path="url(#clipPath12)" />
    <path
       id="path13"
       d="m 0,0 c -2.107,-0.458 -6.902,-1.673 -9.353,-2.132 -2.344,-0.459 -3.713,0.863 -3.424,4.21 0.263,3.131 1.638,9.769 2.16,12.011 1.153,4.956 3.42,7.022 6.086,7.394 C -1.114,21.96 1.87,18.974 3.504,10.877 3.661,10.094 4.061,8.47 4.32,6.262 4.636,3.581 3.319,0.837 0,0 m 11.661,44.743 c -6.621,12.2 -14.322,9.672 -18.267,8.366 -5.17,-1.711 -9.759,-4.366 -14.561,-23.411 -5.046,-20.019 -10.541,-62.073 -10.541,-62.073 l 13.854,3.198 1.423,7.974 c 0.688,3.85 3.139,6.297 6.875,7.396 0,0 10.736,2.787 14.4,3.203 1.548,0.176 3.367,-1.045 3.895,-3.469 l 1.872,-8.579 18.868,4.356 c 0,0 -9.386,47.506 -17.818,63.039"
       style="fill:#000000;fill-opacity:1;fill-rule:nonzero;stroke:none"
       transform="matrix(1.3333333,0,0,-1.3333333,317.4912,326.06267)"
       clip-path="url(#clipPath14)" />
    <path
       id="path15"
       d="m 0,0 c -0.453,-0.002 -3.805,0.111 -4.163,2.669 -0.208,1.481 0.503,2.872 2.291,3.966 2.797,1.711 12.478,4.493 21.771,6.672 v 12.849 c 0,0 -16.825,-4.049 -22,-3.279 -1.571,0.234 -2.618,1.064 -2.826,2.517 -0.213,1.484 0.535,2.821 2.291,3.965 4.733,3.082 25.972,7.664 25.972,7.664 V 68.979 L -20.396,58.884 V -20.15 L 24.253,-9.842 V 4.271 C 12.336,1.563 4.282,0.023 0,0"
       style="fill:#000000;fill-opacity:1;fill-rule:nonzero;stroke:none"
       transform="matrix(1.3333333,0,0,-1.3333333,234.42347,347.2332)"
       clip-path="url(#clipPath16)" />
    <path
       id="path17"
       d="m 0,0 c 0,-15.771 0.08,-27.574 -2.081,-35.309 -1.313,-4.698 -4.201,-8.273 -8.059,-10.981 -3.929,-2.757 -7.868,-3.965 -11.725,-4.041 -4.704,-0.093 -8.143,2.467 -8.645,7.693 -0.722,7.508 -0.675,16.996 -0.675,30.145 l -17.072,-3.942 v -116.293 l 23.451,5.415 c 0,14.799 0.303,25.709 2.127,32.513 1.243,4.637 4.625,8.55 8.038,10.856 3.99,2.694 7.661,4.041 11.526,4.104 4.698,0.076 8.264,-2.348 8.708,-7.034 0.649,-6.862 0.691,-16.196 0.691,-28.933 l 17.378,4.012 V 5.463 Z"
       style="fill:#000000;fill-opacity:1;fill-rule:nonzero;stroke:none"
       transform="matrix(1.3333333,0,0,-1.3333333,162.0836,259.26453)"
       clip-path="url(#clipPath18)" />
    <path
       id="path19"
       d="M 0,0 V 101.258 L -13.842,98.063 C -21.184,73.82 -25.336,61.966 -28.959,51.974 c -6.164,-17.005 -12.576,-10.33 -15.55,-5.583 -3.476,5.551 -8.182,16.368 -16.365,36.175 l -20.215,-4.667 v -93.696 l 16.763,3.87 c -0.128,15.167 0.135,24.007 0.954,28.009 0.735,3.595 2.901,4.101 5.098,0.535 1.806,-2.933 4.665,-9.279 10.349,-22.331 l 11.242,2.596 c 6.195,16.646 9.542,25.033 11.905,29.141 1.919,3.336 5.549,5.684 6.653,-0.484 0.836,-4.666 0.766,-14.054 0.739,-29.553 z"
       style="fill:#000000;fill-opacity:1;fill-rule:nonzero;stroke:none"
       transform="matrix(1.3333333,0,0,-1.3333333,558.2516,135.0112)"
       clip-path="url(#clipPath20)" />
    <path
       id="path21"
       d="m 0,0 c 0,0 0.333,-21.993 -0.417,-29.273 -0.994,-9.662 -18.121,-12.998 -18.846,-3.123 -0.324,4.408 -0.572,10.093 -0.572,23.073 l -13.996,-3.231 v -86.741 l 19.191,4.431 v 20.031 c 0,15.407 19.139,16.695 20.17,5.926 0.324,-3.386 0.489,-8.665 0.489,-19.619 l 13.997,3.231 V 4.621 Z"
       style="fill:#000000;fill-opacity:1;fill-rule:nonzero;stroke:none"
       transform="matrix(1.3333333,0,0,-1.3333333,412.6032,61.862133)"
       clip-path="url(#clipPath22)" />
    <path
       id="path23"
       d="m 0,0 v -35.747 l 12.914,2.981 c 5.147,1.188 6.954,0.096 6.917,-10.243 v -45.939 l 15.299,3.532 v 42.511 c 0.107,18.25 2.248,22.028 11.325,24.123 l 8.103,1.871 v 29.507 z"
       style="fill:#000000;fill-opacity:1;fill-rule:nonzero;stroke:none"
       transform="matrix(1.3333333,0,0,-1.3333333,284.7796,78.461067)"
       clip-path="url(#clipPath24)" />
    <path
       id="path25"
       d="m 0,0 -16.318,-3.768 c 0,0 -0.102,-12.347 -1.005,-28.7 -0.959,-17.383 -19.686,-22.713 -20.755,-5.03 -0.683,11.296 -0.574,26.612 -0.574,26.612 l -19.534,-4.51 v -8.363 c 0,-32.567 3.742,-43.619 23.415,-41.494 4.6,0.496 8.103,1.958 12.051,4.63 0.246,0.167 0.558,0.171 0.851,-0.056 0.281,-0.217 0.736,-0.948 0.051,-3.074 -3.689,-11.452 -35.277,-14.855 -35.277,-14.855 l -0.008,-25.591 c 18.058,2.657 37.712,6.502 48.026,23.637 C -5.225,-74.161 0,-66.433 0,0"
       style="fill:#000000;fill-opacity:1;fill-rule:nonzero;stroke:none"
       transform="matrix(1.3333333,0,0,-1.3333333,274.70547,98.698667)"
       clip-path="url(#clipPath26)" />
    <path
       id="path27"
       d="m 0,0 c 0,0 0.316,-20.901 -0.396,-27.821 -0.945,-9.182 -17.223,-12.353 -17.912,-2.968 -0.307,4.19 -0.543,9.592 -0.543,21.928 l -13.302,-3.071 v -82.436 l 18.239,4.211 v 19.037 c 0,14.642 18.19,15.867 19.169,5.632 0.308,-3.218 0.465,-8.235 0.465,-18.645 l 13.302,3.071 V 4.391 Z"
       style="fill:#000000;fill-opacity:1;fill-rule:nonzero;stroke:none"
       transform="matrix(1.3333333,0,0,-1.3333333,159.66307,117.0112)"
       clip-path="url(#clipPath28)" />
    <path
       id="path29"
       d="m 0,0 c -8.353,-2.13 -13.278,2.344 -13.278,13.572 0,8.955 0.168,18.2 16.564,18.2 11.673,0 16.554,-5.91 16.554,-12.577 C 19.84,13.388 12.736,3.247 0,0 m 49.015,36.991 c 0,20.622 -15.193,45.564 -78.765,30.263 V -44.899 l 16.555,3.821 v 20.264 c 0,8.235 4.744,6.718 7.772,4.747 2.352,-1.532 7.339,-5.552 19.129,-18.8 l 28.124,6.493 -21.916,22.439 c 0,0 29.101,11.718 29.101,42.926"
       style="fill:#000000;fill-opacity:1;fill-rule:nonzero;stroke:none"
       transform="matrix(1.3333333,0,0,-1.3333333,39.666933,198.506)"
       clip-path="url(#clipPath30)" />
  </g>
</svg>
