<?xml version="1.0" encoding="UTF-8" standalone="no"?>
<!-- Created with Inkscape (http://www.inkscape.org/) -->

<svg
   version="1.1"
   id="svg1"
   width="666.66669"
   height="309.564"
   viewBox="0 0 666.66669 309.564"
   sodipodi:docname="Rhythm World Arcade (리듬 세상 ＡＲＣＡＤＥ) Logo (Wordmark).ai"
   xmlns:inkscape="http://www.inkscape.org/namespaces/inkscape"
   xmlns:sodipodi="http://sodipodi.sourceforge.net/DTD/sodipodi-0.dtd"
   xmlns="http://www.w3.org/2000/svg"
   xmlns:svg="http://www.w3.org/2000/svg">
  <defs
     id="defs1">
    <clipPath
       clipPathUnits="userSpaceOnUse"
       id="clipPath2">
      <path
         d="M 0,232.173 H 500 V 0 H 0 Z"
         transform="translate(-500.00011,-62.723102)"
         id="path2" />
    </clipPath>
    <clipPath
       clipPathUnits="userSpaceOnUse"
       id="clipPath4">
      <path
         d="M 0,232.173 H 500 V 0 H 0 Z"
         transform="translate(-390.37611,-161.6434)"
         id="path4" />
    </clipPath>
    <clipPath
       clipPathUnits="userSpaceOnUse"
       id="clipPath6">
      <path
         d="M 0,232.173 H 500 V 0 H 0 Z"
         transform="translate(-315.73931,-226.88321)"
         id="path6" />
    </clipPath>
    <clipPath
       clipPathUnits="userSpaceOnUse"
       id="clipPath8">
      <path
         d="M 0,232.173 H 500 V 0 H 0 Z"
         transform="translate(-155.67441,-125.5326)"
         id="path8" />
    </clipPath>
    <clipPath
       clipPathUnits="userSpaceOnUse"
       id="clipPath10">
      <path
         d="M 0,232.173 H 500 V 0 H 0 Z"
         transform="translate(-70.183702,-180.8617)"
         id="path10" />
    </clipPath>
    <clipPath
       clipPathUnits="userSpaceOnUse"
       id="clipPath12">
      <path
         d="M 0,232.173 H 500 V 0 H 0 Z"
         transform="translate(-483.41811,-117.4779)"
         id="path12" />
    </clipPath>
  </defs>
  <sodipodi:namedview
     id="namedview1"
     pagecolor="#ffffff"
     bordercolor="#000000"
     borderopacity="0.25"
     inkscape:showpageshadow="2"
     inkscape:pageopacity="0.0"
     inkscape:pagecheckerboard="0"
     inkscape:deskcolor="#d1d1d1">
    <inkscape:page
       x="0"
       y="0"
       inkscape:label="1"
       id="page1"
       width="666.66669"
       height="309.564"
       margin="0"
       bleed="0" />
  </sodipodi:namedview>
  <g
     id="layer-MC0"
     inkscape:groupmode="layer"
     inkscape:label="Layer 1">
    <path
       id="path1"
       d="M 0,0 -36.158,-8.348 V 34.993 L 0,43.341 v -7.925 l -26.686,-6.161 v -9.411 l 21.918,5.06 V 16.979 L -26.686,11.918 V 1.764 L 0,7.925 Z m -53.372,20.369 c 0,0.744 -0.259,1.323 -0.774,1.741 -0.516,0.417 -1.145,0.541 -1.888,0.369 l -18.204,-4.203 v -27.49 l 18.204,4.202 c 0.743,0.172 1.372,0.585 1.888,1.241 0.515,0.656 0.774,1.355 0.774,2.099 z m 9.473,-21.093 c 0,-1.238 -0.247,-2.482 -0.743,-3.731 -0.496,-1.25 -1.167,-2.406 -2.012,-3.468 -0.847,-1.062 -1.848,-1.984 -3.003,-2.767 -1.156,-0.784 -2.395,-1.327 -3.715,-1.631 l -30.276,-6.991 v 43.341 l 30.276,6.99 c 1.239,0.286 2.435,0.314 3.591,0.086 1.156,-0.229 2.168,-0.667 3.034,-1.312 0.867,-0.647 1.558,-1.478 2.074,-2.493 0.516,-1.017 0.774,-2.184 0.774,-3.505 z m -73.678,-9.146 13.127,3.03 -6.502,14.535 -0.062,-0.013 z m 20.184,-12.614 -3.839,8.462 -19.626,-4.532 -3.778,-10.22 -9.411,-2.173 18.327,47.572 9.411,2.173 18.328,-39.11 z m -67.92,-15.681 c -1.239,-0.286 -2.425,-0.313 -3.561,-0.08 -1.136,0.234 -2.136,0.673 -3.002,1.319 -0.868,0.646 -1.56,1.477 -2.075,2.493 -0.516,1.016 -0.774,2.185 -0.774,3.506 v 24.518 c 0,1.239 0.247,2.482 0.744,3.732 0.495,1.249 1.165,2.406 2.011,3.468 0.847,1.062 1.837,1.98 2.973,2.76 1.135,0.778 2.362,1.319 3.684,1.624 l 19.626,4.531 c 1.24,0.286 2.425,0.313 3.561,0.08 1.135,-0.234 2.146,-0.672 3.033,-1.312 0.887,-0.642 1.589,-1.482 2.106,-2.517 0.515,-1.037 0.773,-2.196 0.773,-3.475 v -3.343 l -9.473,-2.188 v 2.168 c 0,0.743 -0.258,1.312 -0.773,1.71 -0.517,0.396 -1.145,0.51 -1.889,0.338 l -14.302,-3.302 c -0.743,-0.172 -1.372,-0.586 -1.889,-1.241 -0.516,-0.656 -0.773,-1.354 -0.773,-2.099 v -22.041 c 0,-0.744 0.257,-1.324 0.773,-1.741 0.517,-0.418 1.146,-0.541 1.889,-0.369 l 14.302,3.302 c 0.744,0.172 1.372,0.575 1.889,1.21 0.515,0.635 0.773,1.324 0.773,2.067 v 2.168 l 9.473,2.187 v -3.344 c 0,-1.321 -0.258,-2.61 -0.773,-3.862 -0.517,-1.256 -1.219,-2.409 -2.106,-3.458 -0.887,-1.052 -1.898,-1.956 -3.033,-2.713 -1.136,-0.757 -2.321,-1.28 -3.561,-1.565 z m -25.633,26.772 c 0,0.745 -0.258,1.324 -0.775,1.742 -0.515,0.417 -1.144,0.541 -1.887,0.369 l -18.204,-4.202 v -11.455 l 18.204,4.202 c 0.743,0.172 1.372,0.585 1.887,1.241 0.517,0.655 0.775,1.354 0.775,2.099 z m 0,10.65 c 1.238,0.286 2.425,0.312 3.56,0.08 1.135,-0.234 2.136,-0.674 3.003,-1.319 0.866,-0.647 1.557,-1.478 2.073,-2.494 0.517,-1.016 0.775,-2.184 0.775,-3.505 v -8.482 c 0,-1.239 -0.238,-2.48 -0.712,-3.724 -0.476,-1.247 -1.167,-2.407 -2.074,-3.483 -0.908,-1.076 -1.991,-2.017 -3.25,-2.824 -1.26,-0.808 -2.695,-1.396 -4.304,-1.768 l 10.897,-13.52 -10.216,-2.359 -10.897,13.521 -9.721,-2.244 V -48.9 l -9.472,-2.187 v 43.34 z m -64.269,-40.903 13.127,3.031 -6.502,14.534 -0.061,-0.014 z m 20.186,-12.615 -3.84,8.462 -19.627,-4.53 -3.776,-10.221 -9.412,-2.173 18.327,47.572 9.411,2.172 18.328,-39.109 z"
       style="fill:#000000;fill-opacity:1;fill-rule:nonzero;stroke:none"
       transform="matrix(1.3333333,0,0,-1.3333333,666.6668,225.9332)"
       clip-path="url(#clipPath2)" />
    <path
       id="path3"
       d="m 0,0 c 0,0 -2.304,-19.63 -27.438,-44.985 l -12.87,10.687 c 12.88,10.429 27.723,34.263 27.723,55.501 v 0.599 c 0,2.551 -1.974,2.549 -4.433,2.071 l -2.484,-0.483 v 7.56 L 8.079,36.311 V 25.219 C 8.079,3.529 20.044,0.042 35.942,-0.113 L 28.034,-12.416 C 3.876,-10.248 0,0 0,0 M 77.242,30.358 V 16.545 L 61.539,13.492 v -25.94 l -20.976,-4.078 v 59.771 c 0,2.691 -2.209,2.664 -4.728,2.174 l -2.528,-0.491 v 7.976 l 28.232,5.488 V 27.306 Z M 21.77,-56.68 c -2.864,0.056 -8.703,0.172 -8.703,9.149 0,9.305 7.429,15.979 15.505,15.98 8.29,10e-4 8.873,-5.616 8.873,-9.036 0,-8.382 -7.224,-16.259 -15.675,-16.093 m 20.975,37.001 c -9.734,2.193 -22.266,2.424 -36.48,-7.257 -9.347,-6.365 -14.06,-14.119 -14.06,-23.005 0,-3.201 0.702,-6.378 2.098,-9.433 4.282,-9.377 10.624,-9.881 19.246,-10.566 14.089,-1.118 22.563,2.61 31.011,8.334 9.439,6.403 14.257,14.044 14.257,22.977 0,7.973 -4.091,16.25 -16.072,18.95"
       style="fill:#000000;fill-opacity:1;fill-rule:nonzero;stroke:none"
       transform="matrix(1.3333333,0,0,-1.3333333,520.50147,94.039467)"
       clip-path="url(#clipPath4)" />
    <path
       id="path5"
       d="m 0,0 v -7.82 l 2.104,0.409 c 2.093,0.407 3.965,0.684 3.965,-2.007 v -99.588 l 21.146,4.111 V 5.29 Z m -24.771,-25.103 v -7.819 l 2.103,0.408 c 2.094,0.408 4.011,0.78 4.011,-1.911 v -22.789 l -17.736,-3.448 v -12.259 l 17.736,3.447 v -67.533 l 19.454,3.781 v 113.094 z m 2.75,-64.939 -9.072,-12.103 c -17.72,5.783 -22.506,14.597 -22.506,14.597 0,0 -6.711,-12.47 -20.777,-25.369 l -11.735,9.779 c 0,0 20.733,19.358 20.733,38.694 v 14.718 c 0,2.692 -2.198,2.622 -4.657,2.143 l -2.47,-0.48 v 8.504 l 27.155,5.279 -10e-4,-27.076 c 0,-25.926 23.33,-28.686 23.33,-28.686"
       style="fill:#000000;fill-opacity:1;fill-rule:nonzero;stroke:none"
       transform="matrix(1.3333333,0,0,-1.3333333,420.98573,7.0530667)"
       clip-path="url(#clipPath6)" />
    <path
       id="path7"
       d="M 0,0 V -12.503 L 66.952,0.512 v -12.184 l -77.593,-15.082 c -6.262,-1.218 -11.338,2.872 -11.338,9.135 v 14.515 c 0,2.511 -0.231,3.27 -6.104,2.128 l -1.113,-0.216 v 7.7 l 96.148,18.69 V 13.015 Z M 66.952,-17.64 V -29.823 L -45.637,-51.708 v 12.183 z M 42.348,-68.784 4.422,-76.156 v 15.885 l 37.926,7.373 z m 22.337,32.552 -89.884,-17.472 v -8.364 l 1.114,0.216 c 5.882,1.144 6.114,0.222 6.114,-2.534 v -17.505 c 0,-5.636 4.569,-9.317 10.205,-8.221 l 64.514,12.54 c 5.635,1.095 10.204,6.552 10.204,12.188 v 27.325 c 0,1.252 -1.015,2.071 -2.267,1.827"
       style="fill:#000000;fill-opacity:1;fill-rule:nonzero;stroke:none"
       transform="matrix(1.3333333,0,0,-1.3333333,207.56587,142.1872)"
       clip-path="url(#clipPath8)" />
    <path
       id="path9"
       d="m 0,0 v -8.447 l 2.467,0.48 c 2.456,0.477 4.704,0.914 4.704,-2.238 v -49.888 c -3.628,-2.041 -8.274,-3.733 -14.002,-4.847 l -33.93,-6.595 v 15.268 l 31.464,6.117 c 1.565,0.304 2.834,1.82 2.834,3.385 v 30.232 c 0,1.565 -1.269,2.588 -2.834,2.283 l -59.016,-11.471 v -13.056 l 40.251,7.824 v -10.266 l -42.122,-8.188 v -8.588 l 0.995,0.193 c 2.008,0.39 4.986,0.969 4.986,-1.951 v -20.323 c 0,-5.01 4.061,-8.282 9.071,-7.309 l 44.304,8.613 c 8.311,1.615 14.343,3.627 17.999,5.47 v -47.833 l 22.819,4.436 V 5.83 Z"
       style="fill:#000000;fill-opacity:1;fill-rule:nonzero;stroke:none"
       transform="matrix(1.3333333,0,0,-1.3333333,93.578267,68.415067)"
       clip-path="url(#clipPath10)" />
    <path
       id="path11"
       d="M 0,0 V 11.214 L -2.82,-0.665 -5.875,-1.385 -8.629,9.179 V -2.034 l -2.887,-0.681 v 13.423 l 4.511,1.064 2.72,-10.005 0.034,0.007 2.652,11.273 4.453,1.05 V 0.674 Z M -20.848,-4.916 V 6.127 l -4.645,-1.095 v 2.373 l 12.287,2.897 V 7.929 L -17.685,6.873 V -4.17 Z"
       style="fill:#000000;fill-opacity:1;fill-rule:nonzero;stroke:none"
       transform="matrix(1.3333333,0,0,-1.3333333,644.55747,152.9268)"
       clip-path="url(#clipPath12)" />
  </g>
</svg>
