<?xml version="1.0" encoding="UTF-8" standalone="no"?>
<!-- Created with Inkscape (http://www.inkscape.org/) -->

<svg
   version="1.1"
   id="svg1"
   width="666.66669"
   height="490.80399"
   viewBox="0 0 666.66669 490.80399"
   sodipodi:docname="Rhythm Paradise Arcade (POR) Logo (Print).ai"
   xmlns:inkscape="http://www.inkscape.org/namespaces/inkscape"
   xmlns:sodipodi="http://sodipodi.sourceforge.net/DTD/sodipodi-0.dtd"
   xmlns="http://www.w3.org/2000/svg"
   xmlns:svg="http://www.w3.org/2000/svg">
  <defs
     id="defs1">
    <clipPath
       clipPathUnits="userSpaceOnUse"
       id="clipPath2">
      <path
         d="M 0,368.103 H 500 V 0 H 0 Z"
         transform="translate(-465.33881,-248.70801)"
         id="path2" />
    </clipPath>
    <clipPath
       clipPathUnits="userSpaceOnUse"
       id="clipPath4">
      <path
         d="M 0,368.103 H 500 V 0 H 0 Z"
         transform="translate(-453.93651,-245.0395)"
         id="path4" />
    </clipPath>
    <clipPath
       clipPathUnits="userSpaceOnUse"
       id="clipPath6">
      <path
         d="M 0,368.103 H 500 V 0 H 0 Z"
         transform="translate(-441.92671,-241.21771)"
         id="path6" />
    </clipPath>
    <clipPath
       clipPathUnits="userSpaceOnUse"
       id="clipPath8">
      <path
         d="M 0,368.103 H 500 V 0 H 0 Z"
         transform="translate(-346.50291,-113.4892)"
         id="path8" />
    </clipPath>
    <clipPath
       clipPathUnits="userSpaceOnUse"
       id="clipPath10">
      <path
         d="M 0,368.103 H 500 V 0 H 0 Z"
         transform="translate(-451.54291,-136.55271)"
         id="path10" />
    </clipPath>
    <clipPath
       clipPathUnits="userSpaceOnUse"
       id="clipPath12">
      <path
         d="M 0,368.103 H 500 V 0 H 0 Z"
         transform="translate(-424.85351,-187.51851)"
         id="path12" />
    </clipPath>
    <clipPath
       clipPathUnits="userSpaceOnUse"
       id="clipPath14">
      <path
         d="M 0,368.103 H 500 V 0 H 0 Z"
         transform="translate(-388.69721,-143.0898)"
         id="path14" />
    </clipPath>
    <clipPath
       clipPathUnits="userSpaceOnUse"
       id="clipPath16">
      <path
         d="M 0,368.103 H 500 V 0 H 0 Z"
         transform="translate(-341.93161,-139.1718)"
         id="path16" />
    </clipPath>
    <clipPath
       clipPathUnits="userSpaceOnUse"
       id="clipPath18">
      <path
         d="M 0,368.103 H 500 V 0 H 0 Z"
         transform="translate(-307.19241,-129.58491)"
         id="path18" />
    </clipPath>
    <clipPath
       clipPathUnits="userSpaceOnUse"
       id="clipPath20">
      <path
         d="M 0,368.103 H 500 V 0 H 0 Z"
         transform="translate(-265.12501,-119.8779)"
         id="path20" />
    </clipPath>
    <clipPath
       clipPathUnits="userSpaceOnUse"
       id="clipPath22">
      <path
         d="M 0,368.103 H 500 V 0 H 0 Z"
         transform="translate(-210.8413,-124.7461)"
         id="path22" />
    </clipPath>
    <clipPath
       clipPathUnits="userSpaceOnUse"
       id="clipPath24">
      <path
         d="M 0,368.103 H 500 V 0 H 0 Z"
         transform="translate(-170.832,-90.763705)"
         id="path24" />
    </clipPath>
    <clipPath
       clipPathUnits="userSpaceOnUse"
       id="clipPath26">
      <path
         d="M 0,368.103 H 500 V 0 H 0 Z"
         transform="translate(-118.91841,-102.86721)"
         id="path26" />
    </clipPath>
    <clipPath
       clipPathUnits="userSpaceOnUse"
       id="clipPath28">
      <path
         d="M 0,368.103 H 500 V 0 H 0 Z"
         transform="translate(-397.94821,-315.19921)"
         id="path28" />
    </clipPath>
    <clipPath
       clipPathUnits="userSpaceOnUse"
       id="clipPath30">
      <path
         d="M 0,368.103 H 500 V 0 H 0 Z"
         transform="translate(-319.72751,-275.0161)"
         id="path30" />
    </clipPath>
    <clipPath
       clipPathUnits="userSpaceOnUse"
       id="clipPath32">
      <path
         d="M 0,368.103 H 500 V 0 H 0 Z"
         transform="translate(-241.5073,-269.19241)"
         id="path32" />
    </clipPath>
    <clipPath
       clipPathUnits="userSpaceOnUse"
       id="clipPath34">
      <path
         d="M 0,368.103 H 500 V 0 H 0 Z"
         transform="translate(-235.9819,-250.44771)"
         id="path34" />
    </clipPath>
    <clipPath
       clipPathUnits="userSpaceOnUse"
       id="clipPath36">
      <path
         d="M 0,368.103 H 500 V 0 H 0 Z"
         transform="translate(-167.22411,-251.61721)"
         id="path36" />
    </clipPath>
    <clipPath
       clipPathUnits="userSpaceOnUse"
       id="clipPath38">
      <path
         d="M 0,368.103 H 500 V 0 H 0 Z"
         transform="translate(-90.446702,-209.20851)"
         id="path38" />
    </clipPath>
    <clipPath
       clipPathUnits="userSpaceOnUse"
       id="clipPath40">
      <path
         d="M 0,368.103 H 500 V 0 H 0 Z"
         transform="translate(-488.22751,-50.319301)"
         id="path40" />
    </clipPath>
    <clipPath
       clipPathUnits="userSpaceOnUse"
       id="clipPath42">
      <path
         d="M 0,368.103 H 500 V 0 H 0 Z"
         transform="translate(-489.94331,-119.2656)"
         id="path42" />
    </clipPath>
    <clipPath
       clipPathUnits="userSpaceOnUse"
       id="clipPath44">
      <path
         d="M 0,368.103 H 500 V 0 H 0 Z"
         transform="translate(-478.42181,-68.245104)"
         id="path44" />
    </clipPath>
    <clipPath
       clipPathUnits="userSpaceOnUse"
       id="clipPath46">
      <path
         d="M 0,368.103 H 500 V 0 H 0 Z"
         transform="translate(-482.62201,-86.332)"
         id="path46" />
    </clipPath>
  </defs>
  <sodipodi:namedview
     id="namedview1"
     pagecolor="#ffffff"
     bordercolor="#000000"
     borderopacity="0.25"
     inkscape:showpageshadow="2"
     inkscape:pageopacity="0.0"
     inkscape:pagecheckerboard="0"
     inkscape:deskcolor="#d1d1d1">
    <inkscape:page
       x="0"
       y="0"
       inkscape:label="1"
       id="page1"
       width="666.66669"
       height="490.80399"
       margin="0"
       bleed="0" />
  </sodipodi:namedview>
  <g
     id="layer-MC0"
     inkscape:groupmode="layer"
     inkscape:label="Layer 1">
    <path
       id="path1"
       d="m 0,0 c 1.646,7.146 2.475,14.489 2.475,21.961 0,53.726 -43.708,97.434 -97.434,97.434 -21.545,0 -41.966,-6.892 -59.057,-19.93 -8.58,-6.545 -16.011,-14.513 -21.981,-23.446 -15.52,10.005 -33.72,15.465 -52.653,15.465 -30.966,0 -59.704,-14.924 -77.804,-38.926 -16.644,11.168 -36.368,17.292 -56.829,17.292 -56.274,0 -102.056,-45.782 -102.056,-102.056 0,-31.897 14.626,-61.278 39.147,-80.402 -3.873,-10.912 -5.879,-22.467 -5.879,-34.16 0,-56.21 45.73,-101.94 101.94,-101.94 22.338,0 43.552,7.098 61.351,20.525 9.821,7.41 18.233,16.605 24.794,26.952 14.231,-7.868 30.292,-12.048 46.994,-12.048 34.196,0 65.367,18.08 82.818,46.149 14.366,-7.45 30.403,-11.411 46.896,-11.411 56.21,0 101.939,45.73 101.939,101.956 C 34.639,-46.866 21.915,-19.209 0,0"
       style="fill:#000000;fill-opacity:1;fill-rule:nonzero;stroke:none"
       transform="matrix(1.3333333,0,0,-1.3333333,620.45173,159.19333)"
       clip-path="url(#clipPath2)" />
    <path
       id="path3"
       d="m 0,0 c 2.529,8.249 3.808,16.837 3.808,25.629 0,48.173 -39.192,87.365 -87.365,87.365 -33.203,0 -63.341,-19.109 -78.005,-48.003 -15.53,12.908 -35.126,20.092 -55.686,20.092 -31.218,0 -59.906,-16.914 -75.351,-43.297 -16.482,13.902 -37.415,21.663 -59.282,21.663 -50.721,0 -91.986,-41.265 -91.986,-91.986 0,-31.293 15.619,-59.901 41.357,-76.824 -5.313,-11.807 -8.089,-24.679 -8.089,-37.738 0,-50.657 41.213,-91.871 91.87,-91.871 20.132,0 39.249,6.395 55.286,18.495 11.545,8.71 20.929,20.152 27.27,33.065 14.681,-10.48 32.2,-16.131 50.583,-16.131 34.043,0 64.741,19.98 78.97,50.015 14.961,-9.926 32.543,-15.277 50.744,-15.277 50.657,0 91.87,41.214 91.87,91.879 C 35.972,-44.057 22.654,-17.349 0,0"
       style="fill:#ffffff;fill-opacity:1;fill-rule:nonzero;stroke:none"
       transform="matrix(1.3333333,0,0,-1.3333333,605.24867,164.08467)"
       clip-path="url(#clipPath4)" />
    <path
       id="path5"
       d="m 0,0 c 3.747,9.081 5.793,19.013 5.793,29.451 0,42.716 -34.624,77.341 -77.341,77.341 -35.244,0 -64.971,-23.566 -74.306,-55.799 -14.162,17.036 -35.497,27.888 -59.384,27.888 -33.176,0 -61.454,-20.922 -72.374,-50.304 -15.036,17.542 -37.36,28.67 -62.259,28.67 -45.269,0 -81.962,-36.694 -81.962,-81.962 0,-31.819 18.117,-59.385 44.602,-72.973 -7.196,-12.184 -11.334,-26.416 -11.334,-41.589 0,-45.201 36.647,-81.847 81.846,-81.847 36.969,0 68.237,24.531 78.375,58.189 14.002,-14.047 33.36,-22.76 54.764,-22.76 35.406,0 65.248,23.795 74.397,56.258 14.577,-13.358 33.981,-21.52 55.316,-21.52 45.2,0 81.847,36.647 81.847,81.847 C 37.957,-40.05 22.807,-14.53 0,0"
       style="fill:#000000;fill-opacity:1;fill-rule:nonzero;stroke:none"
       transform="matrix(1.3333333,0,0,-1.3333333,589.2356,169.1804)"
       clip-path="url(#clipPath6)" />
    <path
       id="path7"
       d="m 0,0 -142.773,-32.962 2.056,-8.907 142.774,32.962 z"
       style="fill:#000000;fill-opacity:1;fill-rule:nonzero;stroke:none"
       transform="matrix(1.3333333,0,0,-1.3333333,462.00387,339.48507)"
       clip-path="url(#clipPath8)" />
    <path
       id="path9"
       d="M 0,0 V 7.654 L -1.924,-0.444 -4.009,-0.926 -5.887,6.295 V -1.359 L -7.856,-1.813 V 7.349 L -4.779,8.06 -2.924,1.22 -2.9,1.226 -1.091,8.911 1.947,9.612 V 0.449 Z M -14.223,-3.284 V 4.254 L -17.392,3.522 V 5.147 L -9.01,7.082 V 5.457 l -3.054,-0.705 v -7.537 z"
       style="fill:#ffffff;fill-opacity:1;fill-rule:nonzero;stroke:none"
       transform="matrix(1.3333333,0,0,-1.3333333,602.0572,308.73373)"
       clip-path="url(#clipPath10)" />
    <path
       id="path11"
       d="M 0,0 C 4.433,1.67 13.71,4.165 21.503,5.855 V 29.979 L -17.442,20.988 V -43.49 l 38.945,8.992 v 10.741 c -5.113,-1.34 -15.71,-3.334 -20.349,-4.117 -5.649,-0.948 -6.453,6.247 -0.206,8.309 3.587,1.175 10.164,2.741 15.298,4.185 v 8.271 C 11.565,-8.058 5.236,-9.154 0.247,-9.855 -5.938,-10.742 -7.01,-2.639 0,0"
       style="fill:#ffffff;fill-opacity:1;fill-rule:nonzero;stroke:none"
       transform="matrix(1.3333333,0,0,-1.3333333,566.47133,240.77933)"
       clip-path="url(#clipPath12)" />
    <path
       id="path13"
       d="m 0,0 c -0.229,2.143 -3.934,2.627 -9.706,4.011 -10.092,2.507 -16.339,8.451 -15.7,18.896 0.678,11.274 6.386,19.136 36.594,24.266 V 23.721 C 0.287,22.358 -5.73,20.319 -8.283,18.231 -11.006,16.022 -10.847,12.404 -6.918,11.092 -5.211,10.522 -0.164,8.837 2.887,7.813 8.739,5.863 11.604,2.871 12.2,-2.423 13.886,-17.36 -13.148,-21.277 -24.294,-22.914 V -9.643 C -10.941,-6.952 0.516,-4.594 0,0"
       style="fill:#ffffff;fill-opacity:1;fill-rule:nonzero;stroke:none"
       transform="matrix(1.3333333,0,0,-1.3333333,518.26293,300.0176)"
       clip-path="url(#clipPath14)" />
    <path
       id="path15"
       d="m 0,0 v 57.48 l 14.535,3.355 V 3.355 Z"
       style="fill:#ffffff;fill-opacity:1;fill-rule:nonzero;stroke:none"
       transform="matrix(1.3333333,0,0,-1.3333333,455.9088,305.2416)"
       clip-path="url(#clipPath16)" />
    <path
       id="path17"
       d="m 0,0 c -4.001,-0.925 -5.731,0.413 -5.731,5.093 v 14.761 c 0,3.402 -0.176,6.12 3.05,7.031 7.01,1.979 14.845,-1.774 15.587,-9.402 C 13.771,8.618 8.84,2.041 0,0 M -15.587,49.213 V -13.483 C 14.721,-9.051 27.915,2.66 27.585,25.937 27.297,46.12 7.257,57.212 -15.587,49.213"
       style="fill:#ffffff;fill-opacity:1;fill-rule:nonzero;stroke:none"
       transform="matrix(1.3333333,0,0,-1.3333333,409.58987,318.02413)"
       clip-path="url(#clipPath18)" />
    <path
       id="path19"
       d="m 0,0 -7.319,-1.689 c -1.84,-0.425 -2.887,0.72 -2.66,3.276 0.207,2.392 1.279,7.464 1.691,9.195 0.866,3.588 2.68,5.34 4.763,5.65 3.36,0.536 4.989,-1.918 6.288,-8.103 C 2.886,7.752 3.237,6.494 3.381,4.804 3.67,1.36 2.6,0.6 0,0 M 12.823,27.482 C 8.989,40.059 5.885,43.162 -1.752,41.398 -8.485,39.845 -12.313,36.339 -15.524,24.039 -18.679,11.958 -22.167,-5.309 -24.97,-24.854 l 11.115,2.567 c 0.207,1.546 0.578,3.36 1.114,6.123 0.577,2.783 2.082,4.773 5.072,5.464 l 8.658,1.999 c 2.315,0.534 4.433,-1.298 5.175,-4.391 0.495,-2.061 1.134,-4.986 1.525,-6.945 l 14.721,3.399 c -1.793,14.411 -5.772,31.626 -9.587,44.12"
       style="fill:#ffffff;fill-opacity:1;fill-rule:nonzero;stroke:none"
       transform="matrix(1.3333333,0,0,-1.3333333,353.5,330.9668)"
       clip-path="url(#clipPath20)" />
    <path
       id="path21"
       d="m 0,0 c -3.776,-0.886 -5.879,1.217 -5.879,5.712 v 4.344 c 0,3.132 0.609,5.85 3.403,6.736 8.113,2.57 13.763,-0.927 13.763,-6.418 C 11.287,5.242 7.358,1.729 0,0 m 27.346,18.77 c 0,19.96 -19.531,25.755 -43.419,17.221 v -62.795 l 10.18,2.351 v 14.494 c 0,2.462 1.812,2.033 3.486,0.539 1.176,-1.052 8.244,-7.898 13.182,-12.822 l 15.542,3.588 c 0,0 -13.55,13.841 -15.113,15.21 9.102,3.402 16.142,12.269 16.142,22.214"
       style="fill:#ffffff;fill-opacity:1;fill-rule:nonzero;stroke:none"
       transform="matrix(1.3333333,0,0,-1.3333333,281.12173,324.47587)"
       clip-path="url(#clipPath22)" />
    <path
       id="path23"
       d="m 0,0 -7.319,-1.689 c -1.84,-0.425 -2.887,0.72 -2.66,3.277 0.207,2.391 1.278,7.463 1.691,9.195 0.866,3.587 2.68,5.34 4.762,5.649 3.361,0.536 4.99,-1.917 6.289,-8.103 C 2.886,7.752 3.237,6.495 3.381,4.804 3.669,1.361 2.6,0.601 0,0 M 12.824,27.482 C 8.989,40.059 5.885,43.163 -1.752,41.399 -8.485,39.845 -12.313,36.34 -15.524,24.04 -18.679,11.958 -22.167,-5.308 -24.97,-24.853 l 11.115,2.567 c 0.207,1.546 0.578,3.36 1.113,6.123 0.578,2.783 2.083,4.773 5.072,5.463 l 8.659,1.999 c 2.315,0.535 4.433,-1.298 5.175,-4.391 0.495,-2.061 1.134,-4.985 1.526,-6.944 l 14.72,3.398 c -1.793,14.411 -5.772,31.627 -9.586,44.12"
       style="fill:#ffffff;fill-opacity:1;fill-rule:nonzero;stroke:none"
       transform="matrix(1.3333333,0,0,-1.3333333,227.776,369.78573)"
       clip-path="url(#clipPath24)" />
    <path
       id="path25"
       d="m 0,0 c -4.577,-1.119 -7.216,0.082 -7.216,3.917 v 13.876 c 0,3.919 2.165,6.392 6.474,6.948 C 7.896,25.854 11.793,20.803 11.793,14.226 11.793,8.742 8.557,2.092 0,0 m -28.72,44.761 v -86.904 l 21.525,4.97 v 20.411 c 0,3.732 0.927,5.587 3.154,5.979 20.06,3.529 34.349,13.614 34.349,34.307 0,22.723 -24.412,34.947 -59.028,21.237"
       style="fill:#ffffff;fill-opacity:1;fill-rule:nonzero;stroke:none"
       transform="matrix(1.3333333,0,0,-1.3333333,158.55787,353.64773)"
       clip-path="url(#clipPath26)" />
    <path
       id="path27"
       d="m 0,0 c -5.937,-19.607 -9.298,-29.194 -12.226,-37.275 -4.989,-13.752 -10.164,-8.35 -12.576,-4.516 -2.804,4.495 -6.618,13.236 -13.236,29.256 l -16.35,-3.775 v -76.959 l 13.567,3.132 c -0.104,12.267 0.102,20.596 0.762,23.833 0.598,2.907 2.351,3.319 4.123,0.433 1.464,-2.371 3.774,-7.504 8.371,-18.061 l 9.089,2.099 c 5.011,13.463 7.714,20.25 9.631,23.569 1.546,2.701 4.494,4.598 5.381,-0.391 0.681,-3.773 0.618,-14.009 0.598,-26.544 l 14.061,3.247 V 2.584 Z"
       style="fill:#ffffff;fill-opacity:1;fill-rule:nonzero;stroke:none"
       transform="matrix(1.3333333,0,0,-1.3333333,530.5976,70.5384)"
       clip-path="url(#clipPath28)" />
    <path
       id="path29"
       d="m 0,0 c -0.062,-10.515 -0.041,-20.102 -0.494,-23.606 -1.052,-8.371 -15.36,-12.144 -16.062,-4.433 -0.329,3.629 -0.618,8.422 -0.618,19.122 l -11.566,-2.669 v -70.51 l 14.741,3.403 c 0,11.195 0,16.059 0.186,19.894 0.515,10.102 15.689,12.39 17.008,3.608 0.599,-4 0.701,-5.917 0.701,-14.948 l 11.752,2.713 V 3.613 Z"
       style="fill:#ffffff;fill-opacity:1;fill-rule:nonzero;stroke:none"
       transform="matrix(1.3333333,0,0,-1.3333333,426.30333,124.11587)"
       clip-path="url(#clipPath30)" />
    <path
       id="path31"
       d="m 0,0 v -28.381 l 8.226,1.899 c 4.989,1.152 7.051,0.502 7.051,-8.329 v -36.456 l 13.504,3.118 v 33.42 c 0,14.845 1.394,18.591 8.742,20.287 l 6.721,1.552 v 23.105 z"
       style="fill:#ffffff;fill-opacity:1;fill-rule:nonzero;stroke:none"
       transform="matrix(1.3333333,0,0,-1.3333333,322.00973,131.8808)"
       clip-path="url(#clipPath32)" />
    <path
       id="path33"
       d="m 0,0 -12.618,-2.913 c 0,0 0.186,-12.988 -0.309,-22.555 -0.722,-13.999 -14.823,-17.009 -15.958,-3.69 -0.577,6.989 -0.845,20.92 -0.845,20.92 l -15.689,-3.623 v -11.36 c 0,-27.111 17.627,-30.451 26.843,-22.719 0.556,0.474 1.113,0.762 1.567,0.556 0.515,-0.226 0.494,-0.783 0.288,-1.814 -0.556,-2.701 -4.556,-8.041 -12.638,-10.205 -6.164,-1.65 -12.205,-2.69 -15.215,-3.164 v -18.814 c 13.566,1.753 29.276,5.629 36.595,16.885 3.814,5.876 5.814,12.082 6.804,21.277 C 0.371,-26.746 0,0 0,0"
       style="fill:#ffffff;fill-opacity:1;fill-rule:nonzero;stroke:none"
       transform="matrix(1.3333333,0,0,-1.3333333,314.64253,156.87373)"
       clip-path="url(#clipPath34)" />
    <path
       id="path35"
       d="m 0,0 c -0.062,-10.515 -0.041,-20.102 -0.495,-23.606 -1.051,-8.371 -15.359,-12.144 -16.06,-4.433 -0.33,3.628 -0.619,8.422 -0.619,19.122 l -11.566,-2.67 v -70.51 l 14.741,3.404 c 0,11.194 0,16.059 0.186,19.894 0.515,10.102 15.689,12.39 17.009,3.608 0.597,-4 0.7,-5.917 0.7,-14.948 l 11.752,2.713 V 3.613 Z"
       style="fill:#ffffff;fill-opacity:1;fill-rule:nonzero;stroke:none"
       transform="matrix(1.3333333,0,0,-1.3333333,222.96547,155.3144)"
       clip-path="url(#clipPath36)" />
    <path
       id="path37"
       d="m 0,0 c -5.628,-1.32 -8.762,1.814 -8.762,8.515 v 6.473 c 0,4.67 0.907,8.721 5.072,10.041 C 8.401,28.86 16.824,23.647 16.824,15.462 16.824,7.813 10.968,2.577 0,0 m 40.76,27.977 c 0,29.75 -29.112,38.389 -64.717,25.668 v -96.036 l 15.174,3.503 v 24.044 c 0,3.67 2.701,3.031 5.196,0.804 1.752,-1.567 12.287,-11.772 19.648,-19.112 l 23.165,5.348 c 0,0 -20.197,20.629 -22.526,22.67 13.566,5.072 24.06,18.289 24.06,33.111"
       style="fill:#ffffff;fill-opacity:1;fill-rule:nonzero;stroke:none"
       transform="matrix(1.3333333,0,0,-1.3333333,120.5956,211.85933)"
       clip-path="url(#clipPath38)" />
    <path
       id="path39"
       d="m 0,0 c 0.575,0.569 1.114,1.174 1.612,1.81 1.267,1.613 2.248,3.397 2.92,5.308 0.679,1.932 1.022,3.914 1.022,5.891 v 7.934 c 0,2.287 -0.447,4.421 -1.334,6.355 -0.897,1.942 -2.147,3.595 -3.723,4.915 -1.6,1.339 -3.454,2.274 -5.509,2.779 -2.089,0.516 -4.256,0.521 -6.436,0.018 L -125.104,12.037 v -58.81 l 136.222,31.448 z"
       style="fill:#000000;fill-opacity:1;fill-rule:nonzero;stroke:none"
       transform="matrix(1.3333333,0,0,-1.3333333,650.97,423.7116)"
       clip-path="url(#clipPath40)" />
    <path
       id="path41"
       d="m 0,0 v 23.702 l -290.032,-66.957 -26.412,-68.559 27.588,6.368 4.133,11.185 11.79,2.722 4.202,-9.26 130.506,30.129 4.133,11.186 11.79,2.721 4.202,-9.259 L 0,-38.759 v 23.702 l -5.218,-1.204 v 15.057 z"
       style="fill:#000000;fill-opacity:1;fill-rule:nonzero;stroke:none"
       transform="matrix(1.3333333,0,0,-1.3333333,653.25773,331.7832)"
       clip-path="url(#clipPath42)" />
    <path
       id="path43"
       d="m 0,0 c 0,0.695 -0.221,1.243 -0.662,1.643 -0.442,0.399 -0.98,0.526 -1.615,0.379 l -15.571,-3.594 v -10.714 l 15.571,3.595 c 0.635,0.146 1.173,0.521 1.615,1.125 C -0.221,-6.963 0,-6.312 0,-5.617 Z M 0,9.962 C 1.06,10.207 2.074,10.209 3.045,9.97 4.017,9.73 4.873,9.301 5.614,8.681 6.355,8.061 6.946,7.27 7.389,6.311 7.829,5.35 8.051,4.252 8.051,3.018 v -7.935 c 0,-1.158 -0.204,-2.316 -0.61,-3.471 -0.406,-1.157 -0.998,-2.228 -1.774,-3.218 -0.777,-0.991 -1.704,-1.852 -2.78,-2.582 -1.078,-0.733 -2.304,-1.256 -3.681,-1.574 l 9.321,-12.848 -8.739,-2.018 -9.321,12.849 -8.315,-1.92 V -34.7 l -8.103,-1.87 V 3.971 Z m -40.621,-19.34 c 0,0.695 -0.231,1.24 -0.689,1.637 -0.459,0.395 -1.006,0.52 -1.641,0.373 l -13.823,-3.191 c -0.602,-0.139 -1.131,-0.512 -1.589,-1.12 -0.46,-0.607 -0.689,-1.259 -0.689,-1.954 v -20.618 c 0,-0.695 0.229,-1.241 0.689,-1.636 0.458,-0.397 0.987,-0.525 1.589,-0.386 l 13.823,3.191 c 0.635,0.146 1.182,0.523 1.641,1.132 0.458,0.607 0.689,1.259 0.689,1.954 z m -0.053,9.95 c 1.06,0.244 2.083,0.249 3.071,0.014 0.989,-0.235 1.855,-0.663 2.596,-1.283 0.741,-0.62 1.332,-1.411 1.775,-2.37 0.44,-0.961 0.661,-2.059 0.661,-3.294 v -22.934 c 0,-1.159 -0.212,-2.318 -0.635,-3.477 -0.424,-1.161 -0.999,-2.229 -1.722,-3.207 -0.724,-0.978 -1.581,-1.823 -2.568,-2.533 -0.989,-0.712 -2.049,-1.197 -3.178,-1.458 l -18.378,-4.243 c -1.059,-0.244 -2.075,-0.247 -3.046,-0.008 -0.97,0.24 -1.827,0.669 -2.568,1.289 -0.741,0.62 -1.333,1.411 -1.774,2.371 -0.442,0.959 -0.662,2.057 -0.662,3.293 v 22.935 c 0,1.158 0.212,2.316 0.635,3.477 0.424,1.16 0.998,2.228 1.722,3.206 0.723,0.977 1.57,1.82 2.542,2.527 0.971,0.707 2.02,1.191 3.151,1.452 z m -40.834,-19.389 c 0,0.695 -0.229,1.24 -0.688,1.636 -0.459,0.396 -0.99,0.525 -1.589,0.386 l -16.153,-3.729 v -13.552 l 16.153,3.729 c 0.599,0.138 1.13,0.501 1.589,1.091 0.459,0.588 0.688,1.231 0.688,1.925 z m 0,9.962 c 1.06,0.245 2.074,0.247 3.046,0.007 0.971,-0.239 1.827,-0.669 2.568,-1.289 0.743,-0.62 1.332,-1.411 1.775,-2.37 0.44,-0.961 0.662,-2.058 0.662,-3.293 v -10.831 c 0,-1.158 -0.212,-2.317 -0.636,-3.476 -0.424,-1.161 -0.998,-2.229 -1.721,-3.206 -0.724,-0.979 -1.581,-1.824 -2.569,-2.534 -0.988,-0.711 -2.031,-1.193 -3.125,-1.445 l -18.43,-4.256 v -12.103 l -8.051,-1.86 v 40.542 z"
       style="fill:#ffffff;fill-opacity:1;fill-rule:nonzero;stroke:none"
       transform="matrix(1.3333333,0,0,-1.3333333,637.89573,399.81053)"
       clip-path="url(#clipPath44)" />
    <path
       id="path45"
       d="M 0,0 -39.572,-9.137 V 38.296 L 0,47.432 v -8.673 l -29.205,-6.742 v -10.3 l 23.987,5.538 V 18.58 L -29.205,13.043 V 1.93 L 0,8.673 Z m -58.41,22.292 c 0,0.813 -0.283,1.447 -0.848,1.905 -0.565,0.456 -1.254,0.592 -2.066,0.405 l -19.922,-4.6 v -30.087 l 19.922,4.6 c 0.812,0.187 1.501,0.639 2.066,1.358 0.565,0.717 0.848,1.482 0.848,2.297 z m 10.367,-23.084 c 0,-1.355 -0.271,-2.718 -0.813,-4.084 -0.542,-1.368 -1.278,-2.634 -2.203,-3.796 -0.926,-1.162 -2.022,-2.172 -3.286,-3.028 -1.265,-0.858 -2.621,-1.451 -4.065,-1.785 l -33.135,-7.65 v 47.432 l 33.135,7.65 c 1.355,0.313 2.664,0.344 3.93,0.094 1.264,-0.25 2.372,-0.729 3.32,-1.436 0.948,-0.707 1.704,-1.617 2.269,-2.728 0.565,-1.112 0.848,-2.391 0.848,-3.836 z m -80.635,-10.011 14.366,3.318 -7.115,15.906 -0.067,-0.015 z m 22.091,-13.804 -4.202,9.26 -21.48,-4.959 -4.133,-11.185 -10.299,-2.378 20.056,52.062 10.3,2.378 20.058,-42.8 z M -180.92,-41.77 c -1.355,-0.312 -2.654,-0.34 -3.896,-0.085 -1.244,0.254 -2.337,0.736 -3.287,1.443 -0.949,0.706 -1.706,1.616 -2.27,2.728 -0.564,1.112 -0.847,2.391 -0.847,3.836 v 26.833 c 0,1.356 0.271,2.717 0.814,4.085 0.542,1.367 1.275,2.632 2.201,3.794 0.927,1.163 2.011,2.169 3.254,3.022 1.241,0.851 2.585,1.443 4.031,1.777 l 21.481,4.959 c 1.355,0.314 2.653,0.342 3.896,0.087 1.241,-0.256 2.348,-0.735 3.319,-1.436 0.971,-0.703 1.739,-1.622 2.304,-2.754 0.565,-1.135 0.847,-2.404 0.847,-3.803 v -3.659 l -10.366,-2.394 v 2.372 c 0,0.814 -0.285,1.436 -0.848,1.872 -0.566,0.433 -1.254,0.557 -2.067,0.369 l -15.653,-3.613 c -0.812,-0.187 -1.502,-0.642 -2.066,-1.358 -0.565,-0.719 -0.847,-1.483 -0.847,-2.297 v -24.122 c 0,-0.814 0.282,-1.448 0.847,-1.906 0.564,-0.457 1.254,-0.591 2.066,-0.404 l 15.653,3.614 c 0.813,0.188 1.501,0.629 2.067,1.325 0.563,0.694 0.848,1.449 0.848,2.262 v 2.372 l 10.366,2.394 v -3.66 c 0,-1.445 -0.282,-2.856 -0.847,-4.228 -0.565,-1.373 -1.333,-2.634 -2.304,-3.784 -0.971,-1.15 -2.078,-2.14 -3.319,-2.969 -1.243,-0.828 -2.541,-1.399 -3.896,-1.712 z m -28.053,29.301 c 0,0.815 -0.282,1.448 -0.847,1.906 -0.565,0.457 -1.253,0.592 -2.067,0.404 l -19.921,-4.599 v -12.536 l 19.921,4.599 c 0.814,0.187 1.502,0.64 2.067,1.358 0.565,0.717 0.847,1.483 0.847,2.297 z m 0,11.656 c 1.356,0.313 2.654,0.341 3.897,0.086 1.241,-0.255 2.338,-0.737 3.286,-1.443 0.948,-0.708 1.704,-1.617 2.269,-2.728 0.565,-1.113 0.848,-2.391 0.848,-3.837 v -9.283 c 0,-1.355 -0.261,-2.714 -0.779,-4.076 -0.521,-1.363 -1.277,-2.634 -2.271,-3.811 -0.994,-1.178 -2.179,-2.208 -3.556,-3.091 -1.379,-0.884 -2.949,-1.527 -4.709,-1.934 l 11.925,-14.797 -11.181,-2.582 -11.925,14.797 -10.639,-2.456 v -17.55 l -10.367,-2.393 v 47.432 z m -70.336,-44.765 14.367,3.316 -7.116,15.908 -0.067,-0.016 z m 22.091,-13.806 -4.202,9.262 -21.479,-4.959 -4.134,-11.186 -10.3,-2.378 20.057,52.063 10.3,2.378 20.058,-42.802 z"
       style="fill:#ffffff;fill-opacity:1;fill-rule:nonzero;stroke:none"
       transform="matrix(1.3333333,0,0,-1.3333333,643.496,375.69467)"
       clip-path="url(#clipPath46)" />
  </g>
</svg>
