<?xml version="1.0" encoding="UTF-8" standalone="no"?>
<!-- Created with Inkscape (http://www.inkscape.org/) -->

<svg
   version="1.1"
   id="svg1"
   width="666.66669"
   height="479.88666"
   viewBox="0 0 666.66669 479.88666"
   sodipodi:docname="Rhythm Paradise Arcade (ESP) Logo (Wordmark).ai"
   xmlns:inkscape="http://www.inkscape.org/namespaces/inkscape"
   xmlns:sodipodi="http://sodipodi.sourceforge.net/DTD/sodipodi-0.dtd"
   xmlns="http://www.w3.org/2000/svg"
   xmlns:svg="http://www.w3.org/2000/svg">
  <defs
     id="defs1">
    <clipPath
       clipPathUnits="userSpaceOnUse"
       id="clipPath2">
      <path
         d="M 0,359.915 H 500 V 0 H 0 Z"
         transform="translate(-490.45941,-64.664099)"
         id="path2" />
    </clipPath>
    <clipPath
       clipPathUnits="userSpaceOnUse"
       id="clipPath4">
      <path
         d="M 0,359.915 H 500 V 0 H 0 Z"
         transform="translate(-493.21721,-85.588905)"
         id="path4" />
    </clipPath>
    <clipPath
       clipPathUnits="userSpaceOnUse"
       id="clipPath6">
      <path
         d="M 0,359.915 H 500 V 0 H 0 Z"
         transform="translate(-456.38031,-145.1124)"
         id="path6" />
    </clipPath>
    <clipPath
       clipPathUnits="userSpaceOnUse"
       id="clipPath8">
      <path
         d="M 0,359.915 H 500 V 0 H 0 Z"
         transform="translate(-424.74651,-205.51911)"
         id="path8" />
    </clipPath>
    <clipPath
       clipPathUnits="userSpaceOnUse"
       id="clipPath10">
      <path
         d="M 0,359.915 H 500 V 0 H 0 Z"
         transform="translate(-381.89401,-152.8604)"
         id="path10" />
    </clipPath>
    <clipPath
       clipPathUnits="userSpaceOnUse"
       id="clipPath12">
      <path
         d="M 0,359.915 H 500 V 0 H 0 Z"
         transform="translate(-326.46521,-148.2168)"
         id="path12" />
    </clipPath>
    <clipPath
       clipPathUnits="userSpaceOnUse"
       id="clipPath14">
      <path
         d="M 0,359.915 H 500 V 0 H 0 Z"
         transform="translate(-285.29041,-136.8545)"
         id="path14" />
    </clipPath>
    <clipPath
       clipPathUnits="userSpaceOnUse"
       id="clipPath16">
      <path
         d="M 0,359.915 H 500 V 0 H 0 Z"
         transform="translate(-235.43011,-125.3487)"
         id="path16" />
    </clipPath>
    <clipPath
       clipPathUnits="userSpaceOnUse"
       id="clipPath18">
      <path
         d="M 0,359.915 H 500 V 0 H 0 Z"
         transform="translate(-171.0912,-131.1182)"
         id="path18" />
    </clipPath>
    <clipPath
       clipPathUnits="userSpaceOnUse"
       id="clipPath20">
      <path
         d="M 0,359.915 H 500 V 0 H 0 Z"
         transform="translate(-123.6703,-90.8418)"
         id="path20" />
    </clipPath>
    <clipPath
       clipPathUnits="userSpaceOnUse"
       id="clipPath22">
      <path
         d="M 0,359.915 H 500 V 0 H 0 Z"
         transform="translate(-62.140502,-105.1866)"
         id="path22" />
    </clipPath>
    <clipPath
       clipPathUnits="userSpaceOnUse"
       id="clipPath24">
      <path
         d="M 0,359.915 H 500 V 0 H 0 Z"
         transform="translate(-392.85781,-356.85161)"
         id="path24" />
    </clipPath>
    <clipPath
       clipPathUnits="userSpaceOnUse"
       id="clipPath26">
      <path
         d="M 0,359.915 H 500 V 0 H 0 Z"
         transform="translate(-300.14791,-309.22511)"
         id="path26" />
    </clipPath>
    <clipPath
       clipPathUnits="userSpaceOnUse"
       id="clipPath28">
      <path
         d="M 0,359.915 H 500 V 0 H 0 Z"
         transform="translate(-207.43791,-302.32281)"
         id="path28" />
    </clipPath>
    <clipPath
       clipPathUnits="userSpaceOnUse"
       id="clipPath30">
      <path
         d="M 0,359.915 H 500 V 0 H 0 Z"
         transform="translate(-200.88861,-280.1055)"
         id="path30" />
    </clipPath>
    <clipPath
       clipPathUnits="userSpaceOnUse"
       id="clipPath32">
      <path
         d="M 0,359.915 H 500 V 0 H 0 Z"
         transform="translate(-119.39451,-281.49171)"
         id="path32" />
    </clipPath>
    <clipPath
       clipPathUnits="userSpaceOnUse"
       id="clipPath34">
      <path
         d="M 0,359.915 H 500 V 0 H 0 Z"
         transform="translate(-28.394901,-231.2271)"
         id="path34" />
    </clipPath>
  </defs>
  <sodipodi:namedview
     id="namedview1"
     pagecolor="#ffffff"
     bordercolor="#000000"
     borderopacity="0.25"
     inkscape:showpageshadow="2"
     inkscape:pageopacity="0.0"
     inkscape:pagecheckerboard="0"
     inkscape:deskcolor="#d1d1d1">
    <inkscape:page
       x="0"
       y="0"
       inkscape:label="1"
       id="page1"
       width="666.66669"
       height="479.88666"
       margin="0"
       bleed="0" />
  </sodipodi:namedview>
  <g
     id="layer-MC0"
     inkscape:groupmode="layer"
     inkscape:label="Layer 1">
    <path
       id="path1"
       d="m 0,0 c 0,0.825 -0.273,1.47 -0.816,1.94 -0.545,0.469 -1.172,0.623 -1.883,0.458 l -19.148,-4.42 v -16.063 l 19.148,4.42 c 0.711,0.164 1.338,0.594 1.883,1.293 C -0.273,-11.676 0,-10.914 0,-10.09 Z M 0,11.808 C 1.255,12.097 2.457,12.1 3.608,11.817 4.759,11.533 5.774,11.023 6.653,10.289 7.532,9.554 8.232,8.617 8.756,7.479 9.279,6.341 9.541,5.041 9.541,3.576 V -9.26 c 0,-1.374 -0.251,-2.747 -0.754,-4.122 -0.501,-1.374 -1.183,-2.641 -2.04,-3.8 -0.858,-1.159 -1.873,-2.16 -3.044,-3.002 C 2.53,-21.028 1.296,-21.598 0,-21.897 l -21.847,-5.043 v -14.347 l -9.541,-2.203 V 4.562 Z m -66.604,-24.163 c -0.754,-0.174 -1.404,-0.623 -1.947,-1.342 -0.545,-0.722 -0.816,-1.492 -0.816,-2.318 v -4.392 c 0,-0.823 0.271,-1.472 0.816,-1.94 0.543,-0.469 1.193,-0.617 1.947,-0.443 l 18.455,4.261 c 1.255,0.29 2.459,0.293 3.61,0.01 1.15,-0.284 2.165,-0.793 3.045,-1.528 0.878,-0.736 1.578,-1.673 2.102,-2.809 0.523,-1.139 0.785,-2.441 0.785,-3.904 v -7.963 c 0,-1.373 -0.251,-2.747 -0.753,-4.121 -0.503,-1.375 -1.183,-2.641 -2.04,-3.801 -0.859,-1.159 -1.864,-2.157 -3.014,-2.995 -1.151,-0.839 -2.397,-1.411 -3.735,-1.72 l -21.784,-5.029 c -1.254,-0.29 -2.458,-0.293 -3.608,-0.009 -1.152,0.283 -2.178,0.778 -3.076,1.486 -0.901,0.707 -1.612,1.63 -2.135,2.768 -0.524,1.137 -0.784,2.438 -0.784,3.903 v 3.707 l 9.603,2.217 v -2.334 c 0,-0.824 0.262,-1.461 0.786,-1.912 0.523,-0.452 1.161,-0.59 1.915,-0.416 l 16.383,3.782 c 0.753,0.174 1.391,0.618 1.915,1.335 0.523,0.715 0.785,1.485 0.785,2.309 v 5.217 c 0,0.823 -0.262,1.473 -0.785,1.947 -0.524,0.474 -1.162,0.623 -1.915,0.45 L -69.304,-32.2 c -1.256,-0.29 -2.47,-0.296 -3.641,-0.016 -1.172,0.278 -2.197,0.785 -3.076,1.521 -0.879,0.734 -1.581,1.671 -2.103,2.809 -0.523,1.137 -0.785,2.438 -0.785,3.903 v 7.139 c 0,1.373 0.251,2.746 0.754,4.121 0.502,1.374 1.181,2.642 2.039,3.8 0.858,1.159 1.873,2.159 3.045,3.003 1.172,0.842 2.426,1.418 3.767,1.728 l 20.464,4.724 c 1.256,0.29 2.458,0.292 3.61,0.01 1.151,-0.284 2.175,-0.792 3.077,-1.521 0.898,-0.731 1.61,-1.677 2.132,-2.836 0.524,-1.162 0.786,-2.452 0.786,-3.87 v -3.707 l -9.605,-2.217 v 2.403 c 0,0.823 -0.262,1.46 -0.784,1.913 -0.523,0.45 -1.161,0.59 -1.915,0.416 z m -19.837,-43.845 -36.661,-8.464 v 48.052 l 36.661,8.463 v -8.787 l -27.057,-6.246 v -10.434 l 22.223,5.131 v -8.787 l -22.223,-5.131 V -53.66 l 27.057,6.246 z"
       style="fill:#000000;fill-opacity:1;fill-rule:nonzero;stroke:none"
       transform="matrix(1.3333333,0,0,-1.3333333,653.94587,393.66787)"
       clip-path="url(#clipPath2)" />
    <path
       id="path3"
       d="M 0,0 -46.902,-10.829 V 45.39 L 0,56.218 V 45.938 L -34.615,37.947 V 25.739 l 28.43,6.565 V 22.022 l -28.43,-6.563 V 2.288 L 0,10.279 Z m -69.23,26.421 c 0,0.965 -0.336,1.716 -1.004,2.259 -0.671,0.54 -1.487,0.701 -2.45,0.478 l -23.613,-5.451 v -35.659 l 23.613,5.451 c 0.963,0.223 1.779,0.758 2.45,1.609 0.668,0.85 1.004,1.758 1.004,2.723 z m 12.287,-27.36 c 0,-1.607 -0.322,-3.22 -0.963,-4.84 -0.644,-1.622 -1.514,-3.121 -2.611,-4.498 -1.098,-1.378 -2.397,-2.576 -3.895,-3.59 -1.499,-1.017 -3.107,-1.721 -4.818,-2.116 l -39.273,-9.067 v 56.218 l 39.273,9.067 c 1.606,0.371 3.158,0.408 4.657,0.112 1.5,-0.297 2.811,-0.865 3.936,-1.701 1.124,-0.839 2.02,-1.917 2.69,-3.235 0.67,-1.318 1.004,-2.833 1.004,-4.547 z m -95.571,-11.865 17.028,3.932 -8.435,18.853 L -144,9.963 Z m 26.183,-16.362 -4.981,10.977 -25.459,-5.878 -4.898,-13.257 -12.208,-2.819 23.773,61.706 12.207,2.819 23.773,-50.73 z m -88.104,-20.341 c -1.606,-0.37 -3.144,-0.404 -4.618,-0.102 -1.472,0.302 -2.769,0.873 -3.893,1.712 -1.126,0.836 -2.023,1.914 -2.692,3.233 -0.67,1.317 -1.004,2.833 -1.004,4.547 v 31.804 c 0,1.606 0.322,3.218 0.964,4.84 0.643,1.62 1.512,3.12 2.61,4.497 1.097,1.378 2.382,2.571 3.856,3.581 1.472,1.009 3.064,1.711 4.777,2.107 l 25.46,5.878 c 1.607,0.371 3.145,0.404 4.619,0.102 1.471,-0.302 2.783,-0.871 3.934,-1.701 1.151,-0.833 2.06,-1.922 2.731,-3.265 0.669,-1.345 1.004,-2.848 1.004,-4.507 v -4.337 l -12.288,-2.837 v 2.811 c 0,0.964 -0.336,1.703 -1.004,2.219 -0.67,0.513 -1.486,0.66 -2.45,0.438 l -18.551,-4.284 c -0.964,-0.221 -1.782,-0.759 -2.451,-1.609 -0.669,-0.851 -1.004,-1.758 -1.004,-2.722 v -28.59 c 0,-0.965 0.335,-1.718 1.004,-2.259 0.669,-0.542 1.487,-0.701 2.451,-0.479 l 18.551,4.284 c 0.964,0.222 1.78,0.745 2.45,1.569 0.668,0.823 1.004,1.718 1.004,2.681 v 2.812 l 12.288,2.837 v -4.337 c 0,-1.714 -0.335,-3.385 -1.004,-5.011 -0.671,-1.628 -1.58,-3.123 -2.731,-4.485 -1.151,-1.364 -2.463,-2.536 -3.934,-3.519 -1.474,-0.982 -3.012,-1.659 -4.619,-2.03 z m -33.249,34.729 c 0,0.965 -0.335,1.716 -1.003,2.258 -0.669,0.541 -1.485,0.702 -2.45,0.479 l -23.612,-5.451 v -14.859 l 23.612,5.452 c 0.965,0.222 1.781,0.758 2.45,1.61 0.668,0.85 1.003,1.757 1.003,2.722 z m 0,13.814 c 1.607,0.371 3.146,0.404 4.619,0.103 1.471,-0.303 2.771,-0.874 3.895,-1.711 1.124,-0.839 2.02,-1.917 2.691,-3.234 0.668,-1.319 1.003,-2.834 1.003,-4.548 v -11.001 c 0,-1.607 -0.308,-3.218 -0.922,-4.832 -0.618,-1.616 -1.514,-3.121 -2.692,-4.517 -1.178,-1.396 -2.583,-2.617 -4.216,-3.663 -1.633,-1.048 -3.494,-1.811 -5.582,-2.292 l 14.135,-17.538 -13.252,-3.06 -14.135,17.538 -12.609,-2.911 v -20.801 l -12.287,-2.837 v 56.219 z m -83.364,-53.057 17.027,3.93 -8.434,18.855 -0.08,-0.019 z m 26.182,-16.363 -4.98,10.977 -25.458,-5.878 -4.9,-13.258 -12.207,-2.818 23.772,61.707 12.208,2.818 23.773,-50.729 z"
       style="fill:#000000;fill-opacity:1;fill-rule:nonzero;stroke:none"
       transform="matrix(1.3333333,0,0,-1.3333333,657.62293,365.76813)"
       clip-path="url(#clipPath4)" />
    <path
       id="path5"
       d="M 0,0 V 9.072 L -2.28,-0.526 -4.75,-1.097 -6.977,7.461 V -1.61 L -9.312,-2.149 V 8.71 l 3.648,0.842 2.199,-8.106 0.027,0.006 2.146,9.11 3.6,0.831 V 0.533 Z m -16.857,-3.892 v 8.934 l -3.756,-0.867 v 1.926 l 9.934,2.294 V 6.469 l -3.62,-0.836 v -8.934 z"
       style="fill:#000000;fill-opacity:1;fill-rule:nonzero;stroke:none"
       transform="matrix(1.3333333,0,0,-1.3333333,608.50707,286.40347)"
       clip-path="url(#clipPath6)" />
    <path
       id="path7"
       d="m 0,0 c 5.254,1.979 16.25,4.936 25.487,6.94 v 28.593 l -46.16,-10.657 v -76.421 l 46.16,10.656 v 12.731 c -6.06,-1.588 -18.62,-3.951 -24.118,-4.88 -6.696,-1.124 -7.648,7.405 -0.245,9.848 4.252,1.394 12.047,3.25 18.132,4.961 v 9.803 C 13.709,-9.55 6.207,-10.849 0.294,-11.68 -7.037,-12.731 -8.308,-3.127 0,0"
       style="fill:#000000;fill-opacity:1;fill-rule:nonzero;stroke:none"
       transform="matrix(1.3333333,0,0,-1.3333333,566.32867,205.8612)"
       clip-path="url(#clipPath8)" />
    <path
       id="path9"
       d="m 0,0 c -0.271,2.539 -4.663,3.114 -11.504,4.754 -11.962,2.971 -19.365,10.017 -18.609,22.396 0.804,13.363 7.57,22.682 43.373,28.762 V 28.116 C 0.34,26.5 -6.793,24.083 -9.818,21.608 -13.045,18.99 -12.856,14.702 -8.199,13.147 -6.176,12.472 -0.194,10.474 3.421,9.262 10.358,6.949 13.752,3.403 14.46,-2.872 16.458,-20.576 -15.584,-25.219 -28.795,-27.158 v 15.729 C -12.968,-8.24 0.61,-5.445 0,0"
       style="fill:#000000;fill-opacity:1;fill-rule:nonzero;stroke:none"
       transform="matrix(1.3333333,0,0,-1.3333333,509.192,276.0728)"
       clip-path="url(#clipPath10)" />
    <path
       id="path11"
       d="m 0,0 v 68.128 l 17.228,3.977 V 3.978 Z"
       style="fill:#000000;fill-opacity:1;fill-rule:nonzero;stroke:none"
       transform="matrix(1.3333333,0,0,-1.3333333,435.28693,282.26427)"
       clip-path="url(#clipPath12)" />
    <path
       id="path13"
       d="m 0,0 c -4.741,-1.097 -6.793,0.488 -6.793,6.035 v 17.497 c 0,4.031 -0.209,7.252 3.616,8.332 C 5.132,34.21 14.417,29.763 15.297,20.722 16.323,10.214 10.478,2.419 0,0 m -18.474,58.329 v -74.31 C 17.447,-10.728 33.086,3.152 32.695,30.74 32.354,54.663 8.602,67.81 -18.474,58.329"
       style="fill:#000000;fill-opacity:1;fill-rule:nonzero;stroke:none"
       transform="matrix(1.3333333,0,0,-1.3333333,380.3872,297.414)"
       clip-path="url(#clipPath14)" />
    <path
       id="path15"
       d="m 0,0 -8.675,-2.003 c -2.179,-0.503 -3.421,0.855 -3.151,3.885 0.244,2.834 1.514,8.846 2.003,10.898 1.026,4.252 3.177,6.329 5.645,6.696 C -0.195,20.11 1.735,17.203 3.274,9.872 3.422,9.188 3.837,7.697 4.008,5.693 4.35,1.612 3.081,0.711 0,0 M 15.199,32.573 C 10.654,47.479 6.976,51.158 -2.076,49.067 -10.057,47.226 -14.594,43.071 -18.4,28.492 -22.139,14.173 -26.272,-6.292 -29.595,-29.457 l 13.174,3.042 c 0.245,1.832 0.685,3.982 1.32,7.257 0.684,3.299 2.468,5.658 6.011,6.475 l 10.263,2.37 c 2.744,0.633 5.254,-1.539 6.134,-5.204 0.587,-2.444 1.343,-5.91 1.808,-8.231 l 17.447,4.028 C 24.437,-2.64 19.721,17.765 15.199,32.573"
       style="fill:#000000;fill-opacity:1;fill-rule:nonzero;stroke:none"
       transform="matrix(1.3333333,0,0,-1.3333333,313.9068,312.75507)"
       clip-path="url(#clipPath16)" />
    <path
       id="path17"
       d="m 0,0 c -4.476,-1.049 -6.968,1.443 -6.968,6.771 v 5.148 c 0,3.713 0.722,6.935 4.033,7.984 9.616,3.046 16.313,-1.098 16.313,-7.607 C 13.378,6.214 8.722,2.05 0,0 m 32.412,22.247 c 0,23.657 -23.149,30.527 -51.463,20.411 v -74.427 l 12.067,2.787 v 17.178 c 0,2.918 2.148,2.41 4.131,0.64 1.394,-1.246 9.771,-9.361 15.624,-15.198 l 18.421,4.253 c 0,0 -16.06,16.404 -17.913,18.027 10.788,4.033 19.133,14.543 19.133,26.329"
       style="fill:#000000;fill-opacity:1;fill-rule:nonzero;stroke:none"
       transform="matrix(1.3333333,0,0,-1.3333333,228.1216,305.0624)"
       clip-path="url(#clipPath18)" />
    <path
       id="path19"
       d="m 0,0 -8.675,-2.003 c -2.18,-0.503 -3.421,0.855 -3.152,3.885 0.244,2.834 1.515,8.846 2.004,10.898 1.026,4.252 3.177,6.329 5.645,6.696 C -0.195,20.11 1.735,17.203 3.274,9.872 3.421,9.188 3.836,7.697 4.008,5.693 4.35,1.612 3.081,0.711 0,0 M 15.199,32.573 C 10.654,47.479 6.975,51.158 -2.077,49.067 -10.057,47.226 -14.594,43.071 -18.4,28.492 -22.139,14.173 -26.272,-6.292 -29.596,-29.457 l 13.175,3.042 c 0.244,1.832 0.684,3.982 1.319,7.257 0.685,3.299 2.469,5.658 6.012,6.475 l 10.263,2.37 c 2.744,0.633 5.254,-1.539 6.134,-5.204 0.586,-2.444 1.343,-5.91 1.808,-8.231 l 17.447,4.028 C 24.436,-2.64 19.72,17.765 15.199,32.573"
       style="fill:#000000;fill-opacity:1;fill-rule:nonzero;stroke:none"
       transform="matrix(1.3333333,0,0,-1.3333333,164.89373,358.76427)"
       clip-path="url(#clipPath20)" />
    <path
       id="path21"
       d="m 0,0 c -5.425,-1.326 -8.553,0.099 -8.553,4.644 v 16.445 c 0,4.645 2.566,7.576 7.674,8.235 C 9.359,30.644 13.978,24.657 13.978,16.861 13.978,10.361 10.142,2.48 0,0 M -34.041,53.053 V -49.948 l 25.513,5.889 v 24.193 c 0,4.423 1.099,6.622 3.738,7.086 23.776,4.182 40.712,16.136 40.712,40.663 0,26.931 -28.933,41.42 -69.963,25.17"
       style="fill:#000000;fill-opacity:1;fill-rule:nonzero;stroke:none"
       transform="matrix(1.3333333,0,0,-1.3333333,82.854,339.63787)"
       clip-path="url(#clipPath22)" />
    <path
       id="path23"
       d="m 0,0 c -7.037,-23.239 -11.021,-34.602 -14.49,-44.18 -5.914,-16.299 -12.047,-9.897 -14.906,-5.352 -3.324,5.327 -7.844,15.688 -15.688,34.675 l -19.378,-4.474 v -91.215 l 16.079,3.712 c -0.122,14.539 0.122,24.411 0.904,28.248 0.708,3.445 2.786,3.934 4.887,0.513 1.736,-2.81 4.472,-8.895 9.921,-21.406 l 10.774,2.487 c 5.938,15.957 9.142,24.002 11.415,27.936 1.832,3.201 5.327,5.449 6.378,-0.465 0.805,-4.471 0.732,-16.603 0.708,-31.46 l 16.666,3.848 V 3.063 Z"
       style="fill:#000000;fill-opacity:1;fill-rule:nonzero;stroke:none"
       transform="matrix(1.3333333,0,0,-1.3333333,523.8104,4.0845333)"
       clip-path="url(#clipPath24)" />
    <path
       id="path25"
       d="m 0,0 c -0.073,-12.462 -0.049,-23.825 -0.586,-27.979 -1.247,-9.921 -18.205,-14.393 -19.036,-5.254 -0.391,4.301 -0.733,9.983 -0.733,22.665 l -13.708,-3.165 v -83.571 l 17.471,4.034 c 0,13.268 0,19.034 0.22,23.579 0.611,11.973 18.596,14.686 20.159,4.276 0.709,-4.741 0.831,-7.013 0.831,-17.716 l 13.929,3.215 V 4.282 Z"
       style="fill:#000000;fill-opacity:1;fill-rule:nonzero;stroke:none"
       transform="matrix(1.3333333,0,0,-1.3333333,400.1972,67.586533)"
       clip-path="url(#clipPath26)" />
    <path
       id="path27"
       d="m 0,0 v -33.639 l 9.75,2.251 c 5.913,1.366 8.356,0.596 8.356,-9.872 v -43.208 l 16.006,3.695 v 39.611 c 0,17.594 1.653,22.034 10.362,24.045 l 7.965,1.839 v 27.384 z"
       style="fill:#000000;fill-opacity:1;fill-rule:nonzero;stroke:none"
       transform="matrix(1.3333333,0,0,-1.3333333,276.58387,76.7896)"
       clip-path="url(#clipPath28)" />
    <path
       id="path29"
       d="m 0,0 -14.955,-3.453 c 0,0 0.22,-15.394 -0.366,-26.733 -0.856,-16.591 -17.57,-20.159 -18.914,-4.374 -0.684,8.285 -1.001,24.795 -1.001,24.795 l -18.597,-4.293 v -13.464 c 0,-32.133 20.893,-36.092 31.816,-26.928 0.66,0.562 1.32,0.904 1.857,0.659 0.611,-0.269 0.587,-0.928 0.343,-2.15 -0.661,-3.201 -5.401,-9.53 -14.98,-12.096 -7.307,-1.955 -14.466,-3.188 -18.034,-3.75 v -22.298 c 16.079,2.076 34.699,6.671 43.374,20.013 4.521,6.964 6.892,14.319 8.064,25.218 C 0.44,-31.701 0,0 0,0"
       style="fill:#000000;fill-opacity:1;fill-rule:nonzero;stroke:none"
       transform="matrix(1.3333333,0,0,-1.3333333,267.85147,106.41267)"
       clip-path="url(#clipPath30)" />
    <path
       id="path31"
       d="m 0,0 c -0.073,-12.462 -0.049,-23.825 -0.586,-27.979 -1.247,-9.921 -18.205,-14.393 -19.036,-5.254 -0.391,4.301 -0.733,9.983 -0.733,22.665 l -13.709,-3.165 v -83.571 l 17.472,4.033 c 0,13.269 0,19.034 0.22,23.58 0.611,11.973 18.596,14.686 20.16,4.275 0.708,-4.74 0.831,-7.013 0.83,-17.715 l 13.929,3.215 V 4.282 Z"
       style="fill:#000000;fill-opacity:1;fill-rule:nonzero;stroke:none"
       transform="matrix(1.3333333,0,0,-1.3333333,159.19267,104.5644)"
       clip-path="url(#clipPath32)" />
    <path
       id="path33"
       d="m 0,0 c -6.671,-1.564 -10.385,2.15 -10.385,10.092 v 7.673 c -10e-4,5.534 1.075,10.336 6.011,11.9 C 9.958,34.206 19.94,28.028 19.94,18.327 19.94,9.261 13,3.054 0,0 m 48.31,33.159 c 0,35.261 -34.504,45.5 -76.705,30.424 V -50.244 l 17.985,4.153 v 28.497 c 0,4.349 3.201,3.592 6.158,0.953 2.077,-1.857 14.564,-13.953 23.288,-22.652 l 27.456,6.338 c 0,0 -23.938,24.451 -26.699,26.87 16.079,6.011 28.517,21.677 28.517,39.244"
       style="fill:#000000;fill-opacity:1;fill-rule:nonzero;stroke:none"
       transform="matrix(1.3333333,0,0,-1.3333333,37.859867,171.58387)"
       clip-path="url(#clipPath34)" />
  </g>
</svg>
