<?xml version="1.0" encoding="UTF-8" standalone="no"?>
<!-- Created with Inkscape (http://www.inkscape.org/) -->

<svg
   version="1.1"
   id="svg1"
   width="666.66669"
   height="472.70401"
   viewBox="0 0 666.66669 472.70401"
   sodipodi:docname="Rhythm Paradise Arcade (ITA) Logo (Wordmark).ai"
   xmlns:inkscape="http://www.inkscape.org/namespaces/inkscape"
   xmlns:sodipodi="http://sodipodi.sourceforge.net/DTD/sodipodi-0.dtd"
   xmlns="http://www.w3.org/2000/svg"
   xmlns:svg="http://www.w3.org/2000/svg">
  <defs
     id="defs1">
    <clipPath
       clipPathUnits="userSpaceOnUse"
       id="clipPath3">
      <path
         d="M 0,354.528 H 500 V 0 H 0 Z"
         transform="translate(-491.61001,-81.095402)"
         id="path3" />
    </clipPath>
    <clipPath
       clipPathUnits="userSpaceOnUse"
       id="clipPath5">
      <path
         d="M 0,354.528 H 500 V 0 H 0 Z"
         transform="translate(-454.89421,-140.4255)"
         id="path5" />
    </clipPath>
    <clipPath
       clipPathUnits="userSpaceOnUse"
       id="clipPath7">
      <path
         d="M 0,354.528 H 500 V 0 H 0 Z"
         transform="translate(-423.36391,-200.63551)"
         id="path7" />
    </clipPath>
    <clipPath
       clipPathUnits="userSpaceOnUse"
       id="clipPath9">
      <path
         d="M 0,354.528 H 500 V 0 H 0 Z"
         transform="translate(-380.65001,-148.1481)"
         id="path9" />
    </clipPath>
    <clipPath
       clipPathUnits="userSpaceOnUse"
       id="clipPath11">
      <path
         d="M 0,354.528 H 500 V 0 H 0 Z"
         transform="translate(-325.40201,-143.52021)"
         id="path11" />
    </clipPath>
    <clipPath
       clipPathUnits="userSpaceOnUse"
       id="clipPath13">
      <path
         d="M 0,354.528 H 500 V 0 H 0 Z"
         transform="translate(-284.36101,-132.19401)"
         id="path13" />
    </clipPath>
    <clipPath
       clipPathUnits="userSpaceOnUse"
       id="clipPath15">
      <path
         d="M 0,354.528 H 500 V 0 H 0 Z"
         transform="translate(-234.6637,-120.7263)"
         id="path15" />
    </clipPath>
    <clipPath
       clipPathUnits="userSpaceOnUse"
       id="clipPath17">
      <path
         d="M 0,354.528 H 500 V 0 H 0 Z"
         transform="translate(-170.5338,-126.47721)"
         id="path17" />
    </clipPath>
    <clipPath
       clipPathUnits="userSpaceOnUse"
       id="clipPath19">
      <path
         d="M 0,354.528 H 500 V 0 H 0 Z"
         transform="translate(-123.2677,-86.3317)"
         id="path19" />
    </clipPath>
    <clipPath
       clipPathUnits="userSpaceOnUse"
       id="clipPath21">
      <path
         d="M 0,354.528 H 500 V 0 H 0 Z"
         transform="translate(-61.938101,-100.6306)"
         id="path21" />
    </clipPath>
    <clipPath
       clipPathUnits="userSpaceOnUse"
       id="clipPath23">
      <path
         d="M 0,354.528 H 500 V 0 H 0 Z"
         transform="translate(-391.57871,-351.47481)"
         id="path23" />
    </clipPath>
    <clipPath
       clipPathUnits="userSpaceOnUse"
       id="clipPath25">
      <path
         d="M 0,354.528 H 500 V 0 H 0 Z"
         transform="translate(-299.17051,-304.00361)"
         id="path25" />
    </clipPath>
    <clipPath
       clipPathUnits="userSpaceOnUse"
       id="clipPath27">
      <path
         d="M 0,354.528 H 500 V 0 H 0 Z"
         transform="translate(-206.7619,-297.12371)"
         id="path27" />
    </clipPath>
    <clipPath
       clipPathUnits="userSpaceOnUse"
       id="clipPath29">
      <path
         d="M 0,354.528 H 500 V 0 H 0 Z"
         transform="translate(-200.2345,-274.9792)"
         id="path29" />
    </clipPath>
    <clipPath
       clipPathUnits="userSpaceOnUse"
       id="clipPath31">
      <path
         d="M 0,354.528 H 500 V 0 H 0 Z"
         transform="translate(-119.00601,-276.36061)"
         id="path31" />
    </clipPath>
    <clipPath
       clipPathUnits="userSpaceOnUse"
       id="clipPath33">
      <path
         d="M 0,354.528 H 500 V 0 H 0 Z"
         transform="translate(-28.3024,-226.2595)"
         id="path33" />
    </clipPath>
  </defs>
  <sodipodi:namedview
     id="namedview1"
     pagecolor="#ffffff"
     bordercolor="#000000"
     borderopacity="0.25"
     inkscape:showpageshadow="2"
     inkscape:pageopacity="0.0"
     inkscape:pagecheckerboard="0"
     inkscape:deskcolor="#d1d1d1">
    <inkscape:page
       x="0"
       y="0"
       inkscape:label="1"
       id="page1"
       width="666.66669"
       height="472.70401"
       margin="0"
       bleed="0" />
  </sodipodi:namedview>
  <g
     id="layer-MC0"
     inkscape:groupmode="layer"
     inkscape:label="Layer 1">
    <path
       id="path1"
       d="m 0,0 -18.52,-52.17 9.51,2.195 3.817,11.213 19.835,4.579 3.88,-9.435 9.509,2.195 -18.52,43.619 z m 4.756,-9.986 0.063,0.014 6.57,-16.204 -13.266,-3.062 z m -58.942,-2.524 v -8.759 l 15.454,3.569 v -39.137 l 9.511,2.196 v 39.136 l 15.392,3.554 v 8.759 z m -14.831,-3.424 v -47.894 l 9.513,2.196 v 47.894 z"
       style="fill:#000000;fill-opacity:1;fill-rule:nonzero;stroke:none"
       transform="matrix(1.3333333,0,0,-1.3333333,629.2908,381.8928)" />
    <path
       id="path2"
       d="M 0,0 -46.749,-10.793 V 45.242 L 0,56.035 V 45.789 L -34.502,37.824 V 25.656 l 28.338,6.542 V 21.951 L -34.502,15.409 V 2.28 L 0,10.246 Z m -69.004,26.335 c 0,0.962 -0.335,1.711 -1.001,2.252 -0.668,0.538 -1.481,0.698 -2.441,0.476 L -95.982,23.63 v -35.543 l 23.536,5.434 c 0.96,0.221 1.773,0.755 2.441,1.604 0.666,0.847 1.001,1.752 1.001,2.713 z m 12.247,-27.271 c 0,-1.601 -0.32,-3.21 -0.96,-4.825 -0.641,-1.616 -1.509,-3.11 -2.602,-4.483 -1.094,-1.373 -2.39,-2.566 -3.883,-3.577 -1.494,-1.014 -3.096,-1.716 -4.802,-2.11 l -39.144,-9.037 v 56.035 l 39.144,9.037 c 1.601,0.371 3.148,0.407 4.642,0.112 1.495,-0.296 2.802,-0.862 3.924,-1.696 1.12,-0.835 2.012,-1.911 2.68,-3.223 0.667,-1.315 1.001,-2.824 1.001,-4.532 z m -95.26,-11.826 16.972,3.919 -8.406,18.792 -0.079,-0.018 z m 26.098,-16.309 -4.964,10.941 -25.376,-5.858 -4.883,-13.215 -12.168,-2.809 23.695,61.506 12.168,2.809 23.696,-50.565 z m -87.816,-20.274 c -1.602,-0.37 -3.135,-0.403 -4.604,-0.102 -1.468,0.301 -2.761,0.87 -3.881,1.706 -1.122,0.834 -2.015,1.908 -2.682,3.222 -0.667,1.314 -1.001,2.825 -1.001,4.533 v 31.7 c 0,1.601 0.32,3.209 0.962,4.825 0.639,1.614 1.505,3.109 2.6,4.482 1.095,1.375 2.375,2.562 3.844,3.57 1.467,1.006 3.054,1.706 4.762,2.099 l 25.377,5.86 c 1.601,0.369 3.134,0.403 4.603,0.102 1.467,-0.302 2.774,-0.869 3.921,-1.697 1.147,-0.829 2.054,-1.915 2.723,-3.254 0.667,-1.341 1,-2.839 1,-4.492 v -4.323 l -12.247,-2.827 v 2.802 c 0,0.96 -0.335,1.696 -1.001,2.21 -0.668,0.512 -1.482,0.659 -2.442,0.438 l -18.492,-4.27 c -0.96,-0.221 -1.774,-0.758 -2.441,-1.604 -0.667,-0.849 -1.001,-1.752 -1.001,-2.713 v -28.497 c 0,-0.962 0.334,-1.712 1.001,-2.251 0.667,-0.541 1.481,-0.699 2.441,-0.478 l 18.492,4.269 c 0.96,0.222 1.774,0.743 2.442,1.564 0.666,0.822 1.001,1.713 1.001,2.673 v 2.803 l 12.247,2.827 v -4.322 c 0,-1.709 -0.333,-3.374 -1,-4.995 -0.669,-1.622 -1.576,-3.113 -2.723,-4.471 -1.147,-1.359 -2.454,-2.527 -3.921,-3.507 -1.469,-0.978 -3.002,-1.653 -4.603,-2.023 z m -33.141,34.616 c 0,0.961 -0.334,1.71 -1.001,2.25 -0.667,0.54 -1.479,0.7 -2.441,0.478 l -23.535,-5.434 v -14.81 l 23.535,5.433 c 0.962,0.222 1.774,0.757 2.441,1.605 0.667,0.848 1.001,1.752 1.001,2.714 z m 0,13.769 c 1.602,0.369 3.135,0.402 4.604,0.102 1.466,-0.302 2.761,-0.871 3.881,-1.705 1.121,-0.836 2.014,-1.911 2.682,-3.224 0.667,-1.314 1.001,-2.824 1.001,-4.532 v -10.967 c 0,-1.601 -0.308,-3.207 -0.92,-4.816 -0.615,-1.61 -1.509,-3.11 -2.683,-4.502 -1.173,-1.391 -2.574,-2.608 -4.202,-3.651 -1.629,-1.044 -3.482,-1.805 -5.563,-2.285 l 14.089,-17.481 -13.209,-3.049 -14.089,17.481 -12.568,-2.902 v -20.733 l -12.247,-2.828 v 56.036 z m -83.093,-52.885 16.972,3.918 -8.407,18.792 -0.079,-0.017 z m 26.097,-16.309 -4.964,10.941 -25.375,-5.858 -4.884,-13.215 -12.167,-2.81 23.694,61.506 12.168,2.81 23.696,-50.566 z"
       style="fill:#000000;fill-opacity:1;fill-rule:nonzero;stroke:none"
       transform="matrix(1.3333333,0,0,-1.3333333,655.48,364.5768)"
       clip-path="url(#clipPath3)" />
    <path
       id="path4"
       d="m 0,0 v 9.042 l -2.273,-9.566 -2.462,-0.569 -2.219,8.53 V -1.605 L -9.281,-2.143 V 8.682 l 3.635,0.839 2.193,-8.08 0.026,0.006 2.139,9.08 3.588,0.828 V 0.531 Z m -16.803,-3.879 v 8.904 l -3.743,-0.864 v 1.92 l 9.902,2.286 v -1.92 l -3.609,-0.833 v -8.905 z"
       style="fill:#000000;fill-opacity:1;fill-rule:nonzero;stroke:none"
       transform="matrix(1.3333333,0,0,-1.3333333,606.5256,285.47)"
       clip-path="url(#clipPath5)" />
    <path
       id="path6"
       d="m 0,0 c 5.236,1.973 16.196,4.92 25.403,6.917 v 28.5 L -20.606,24.795 v -76.173 l 46.009,10.622 v 12.69 c -6.04,-1.583 -18.559,-3.938 -24.04,-4.864 -6.674,-1.12 -7.623,7.38 -0.243,9.816 4.238,1.388 12.008,3.239 18.072,4.944 v 9.772 C 13.664,-9.519 6.187,-10.814 0.292,-11.643 -7.015,-12.689 -8.281,-3.118 0,0"
       style="fill:#000000;fill-opacity:1;fill-rule:nonzero;stroke:none"
       transform="matrix(1.3333333,0,0,-1.3333333,564.4852,205.19)"
       clip-path="url(#clipPath7)" />
    <path
       id="path8"
       d="m 0,0 c -0.27,2.531 -4.647,3.104 -11.467,4.738 -11.922,2.961 -19.302,9.985 -18.548,22.324 0.802,13.319 7.545,22.607 43.232,28.667 V 28.024 C 0.339,26.414 -6.771,24.005 -9.786,21.538 c -3.216,-2.609 -3.028,-6.884 1.613,-8.434 2.017,-0.673 7.98,-2.665 11.582,-3.873 6.915,-2.304 10.298,-5.838 11.004,-12.093 1.991,-17.647 -29.946,-22.275 -43.114,-24.207 v 15.677 C -12.926,-8.213 0.608,-5.427 0,0"
       style="fill:#000000;fill-opacity:1;fill-rule:nonzero;stroke:none"
       transform="matrix(1.3333333,0,0,-1.3333333,507.53333,275.1732)"
       clip-path="url(#clipPath9)" />
    <path
       id="path10"
       d="M 0,0 V 67.905 L 17.171,71.87 V 3.964 Z"
       style="fill:#000000;fill-opacity:1;fill-rule:nonzero;stroke:none"
       transform="matrix(1.3333333,0,0,-1.3333333,433.86933,281.34373)"
       clip-path="url(#clipPath11)" />
    <path
       id="path12"
       d="m 0,0 c -4.726,-1.093 -6.771,0.487 -6.771,6.017 v 17.439 c 0,4.019 -0.208,7.229 3.605,8.305 C 5.115,34.1 14.37,29.666 15.247,20.654 16.271,10.182 10.444,2.411 0,0 m -18.413,58.139 v -74.068 c 35.804,5.237 51.392,19.072 51.002,46.57 -0.341,23.844 -24.016,36.948 -51.002,27.498"
       style="fill:#000000;fill-opacity:1;fill-rule:nonzero;stroke:none"
       transform="matrix(1.3333333,0,0,-1.3333333,379.148,296.44533)"
       clip-path="url(#clipPath13)" />
    <path
       id="path14"
       d="m 0,0 -8.646,-1.996 c -2.173,-0.502 -3.411,0.851 -3.142,3.871 0.243,2.825 1.51,8.817 1.997,10.863 1.022,4.239 3.166,6.309 5.626,6.674 3.97,0.633 5.894,-2.266 7.429,-9.572 C 3.41,9.158 3.824,7.672 3.994,5.675 4.335,1.607 3.071,0.709 0,0 m 15.149,32.467 c -4.53,14.857 -8.197,18.524 -17.219,16.44 -7.954,-1.836 -12.476,-5.976 -16.27,-20.508 -3.727,-14.272 -7.847,-34.67 -11.16,-57.76 l 13.132,3.032 c 0.244,1.826 0.682,3.97 1.316,7.233 0.681,3.288 2.459,5.64 5.991,6.454 l 10.23,2.363 c 2.734,0.631 5.236,-1.534 6.113,-5.188 0.585,-2.435 1.34,-5.89 1.803,-8.204 l 17.391,4.015 c -2.12,17.025 -6.821,37.363 -11.327,52.123"
       style="fill:#000000;fill-opacity:1;fill-rule:nonzero;stroke:none"
       transform="matrix(1.3333333,0,0,-1.3333333,312.88493,311.7356)"
       clip-path="url(#clipPath15)" />
    <path
       id="path16"
       d="m 0,0 c -4.461,-1.046 -6.945,1.437 -6.945,6.749 v 5.131 c 0,3.701 0.719,6.912 4.02,7.958 9.584,3.036 16.259,-1.095 16.259,-7.582 C 13.334,6.193 8.693,2.043 0,0 m 32.307,22.175 c 0,23.58 -23.074,30.427 -51.295,20.345 v -74.185 l 12.027,2.776 v 17.123 c 0,2.909 2.141,2.403 4.118,0.638 1.389,-1.242 9.739,-9.331 15.573,-15.148 l 18.36,4.238 c 0,0 -16.007,16.351 -17.854,17.969 10.753,4.02 19.071,14.496 19.071,26.244"
       style="fill:#000000;fill-opacity:1;fill-rule:nonzero;stroke:none"
       transform="matrix(1.3333333,0,0,-1.3333333,227.3784,304.06773)"
       clip-path="url(#clipPath17)" />
    <path
       id="path18"
       d="m 0,0 -8.646,-1.996 c -2.174,-0.502 -3.411,0.851 -3.143,3.871 0.244,2.826 1.511,8.817 1.997,10.863 1.023,4.239 3.167,6.309 5.627,6.674 3.97,0.633 5.894,-2.266 7.429,-9.572 C 3.41,9.158 3.824,7.672 3.995,5.675 4.335,1.607 3.071,0.709 0,0 m 15.15,32.467 c -4.53,14.857 -8.198,18.524 -17.22,16.44 -7.954,-1.836 -12.476,-5.976 -16.27,-20.508 -3.727,-14.272 -7.847,-34.67 -11.16,-57.76 l 13.132,3.032 c 0.244,1.826 0.682,3.97 1.316,7.233 0.681,3.288 2.46,5.64 5.991,6.455 l 10.23,2.362 c 2.735,0.631 5.237,-1.534 6.113,-5.188 0.585,-2.435 1.34,-5.889 1.803,-8.204 l 17.391,4.015 c -2.12,17.025 -6.82,37.363 -11.326,52.123"
       style="fill:#000000;fill-opacity:1;fill-rule:nonzero;stroke:none"
       transform="matrix(1.3333333,0,0,-1.3333333,164.35693,357.59507)"
       clip-path="url(#clipPath19)" />
    <path
       id="path20"
       d="M 0,0 C -5.407,-1.322 -8.525,0.097 -8.525,4.627 V 21.02 c 0,4.629 2.558,7.55 7.648,8.208 C 9.329,30.543 13.933,24.576 13.932,16.806 13.932,10.327 10.108,2.471 0,0 M -33.93,52.879 V -49.787 l 25.43,5.871 v 24.113 c 0,4.408 1.096,6.601 3.726,7.064 23.698,4.169 40.579,16.084 40.579,40.53 0,26.844 -28.839,41.285 -69.735,25.088"
       style="fill:#000000;fill-opacity:1;fill-rule:nonzero;stroke:none"
       transform="matrix(1.3333333,0,0,-1.3333333,82.584133,338.52987)"
       clip-path="url(#clipPath21)" />
    <path
       id="path22"
       d="m 0,0 c -7.015,-23.163 -10.985,-34.488 -14.443,-44.036 -5.895,-16.246 -12.008,-9.864 -14.858,-5.334 -3.312,5.309 -7.818,15.637 -15.637,34.561 l -19.315,-4.459 v -90.918 l 16.027,3.7 c -0.122,14.492 0.122,24.332 0.901,28.156 0.707,3.434 2.777,3.921 4.872,0.512 1.728,-2.802 4.457,-8.866 9.889,-21.337 l 10.738,2.479 c 5.919,15.905 9.112,23.924 11.377,27.845 1.827,3.191 5.309,5.432 6.357,-0.463 0.804,-4.457 0.731,-16.549 0.706,-31.358 l 16.612,3.836 v 99.87 z"
       style="fill:#000000;fill-opacity:1;fill-rule:nonzero;stroke:none"
       transform="matrix(1.3333333,0,0,-1.3333333,522.10493,4.0709333)"
       clip-path="url(#clipPath23)" />
    <path
       id="path24"
       d="m 0,0 c -0.073,-12.422 -0.049,-23.748 -0.585,-27.888 -1.242,-9.889 -18.145,-14.346 -18.974,-5.237 -0.389,4.287 -0.73,9.95 -0.73,22.591 l -13.664,-3.154 v -83.299 l 17.415,4.02 c 0,13.226 0,18.972 0.219,23.503 0.609,11.934 18.535,14.638 20.094,4.262 0.706,-4.725 0.829,-6.99 0.829,-17.658 l 13.882,3.205 V 4.268 Z"
       style="fill:#000000;fill-opacity:1;fill-rule:nonzero;stroke:none"
       transform="matrix(1.3333333,0,0,-1.3333333,398.894,67.365867)"
       clip-path="url(#clipPath25)" />
    <path
       id="path26"
       d="m 0,0 v -33.529 l 9.718,2.243 c 5.895,1.361 8.33,0.594 8.33,-9.84 v -43.067 l 15.953,3.683 v 39.482 c 0,17.537 1.647,21.963 10.328,23.966 l 7.94,1.833 v 27.296 z"
       style="fill:#000000;fill-opacity:1;fill-rule:nonzero;stroke:none"
       transform="matrix(1.3333333,0,0,-1.3333333,275.68253,76.539067)"
       clip-path="url(#clipPath27)" />
    <path
       id="path28"
       d="m 0,0 -14.906,-3.441 c 0,0 0.219,-15.345 -0.365,-26.646 -0.853,-16.539 -17.513,-20.094 -18.853,-4.36 -0.682,8.257 -0.998,24.714 -0.998,24.714 l -18.535,-4.279 v -13.421 c 0,-32.028 20.824,-35.974 31.712,-26.84 0.657,0.56 1.315,0.901 1.851,0.657 0.609,-0.268 0.584,-0.925 0.341,-2.143 -0.658,-3.191 -5.383,-9.499 -14.931,-12.056 -7.282,-1.949 -14.419,-3.178 -17.975,-3.738 v -22.226 c 16.027,2.07 34.586,6.649 43.233,19.947 4.506,6.942 6.868,14.273 8.038,25.136 C 0.438,-31.598 0,0 0,0"
       style="fill:#000000;fill-opacity:1;fill-rule:nonzero;stroke:none"
       transform="matrix(1.3333333,0,0,-1.3333333,266.97933,106.06507)"
       clip-path="url(#clipPath29)" />
    <path
       id="path30"
       d="m 0,0 c -0.073,-12.422 -0.049,-23.748 -0.585,-27.888 -1.242,-9.889 -18.145,-14.346 -18.974,-5.237 -0.389,4.287 -0.73,9.95 -0.73,22.591 l -13.664,-3.154 v -83.299 l 17.414,4.021 c 0,13.225 0,18.971 0.22,23.502 0.609,11.934 18.535,14.638 20.094,4.262 0.706,-4.725 0.828,-6.99 0.828,-17.659 l 13.883,3.206 V 4.268 Z"
       style="fill:#000000;fill-opacity:1;fill-rule:nonzero;stroke:none"
       transform="matrix(1.3333333,0,0,-1.3333333,158.67467,104.2232)"
       clip-path="url(#clipPath31)" />
    <path
       id="path32"
       d="m 0,0 c -6.649,-1.559 -10.352,2.144 -10.352,10.059 v 7.648 c 0,5.516 1.072,10.303 5.992,11.862 C 9.925,34.095 19.875,27.937 19.875,18.268 19.875,9.231 12.958,3.044 0,0 m 48.153,33.052 c 0,35.146 -34.392,45.351 -76.455,30.324 V -50.079 l 17.926,4.138 v 28.404 c 0,4.336 3.191,3.581 6.138,0.951 2.07,-1.851 14.516,-13.908 23.212,-22.579 l 27.366,6.318 c 0,0 -23.859,24.371 -26.611,26.782 16.026,5.992 28.424,21.606 28.424,39.117"
       style="fill:#000000;fill-opacity:1;fill-rule:nonzero;stroke:none"
       transform="matrix(1.3333333,0,0,-1.3333333,37.736533,171.02467)"
       clip-path="url(#clipPath33)" />
  </g>
</svg>
