<?xml version="1.0" encoding="UTF-8" standalone="no"?>
<!-- Created with Inkscape (http://www.inkscape.org/) -->

<svg
   version="1.1"
   id="svg1"
   width="666.66669"
   height="495.20132"
   viewBox="0 0 666.66669 495.20132"
   sodipodi:docname="Rhythm Heaven Arcade (FRA) Logo (Wordmark).ai"
   xmlns:inkscape="http://www.inkscape.org/namespaces/inkscape"
   xmlns:sodipodi="http://sodipodi.sourceforge.net/DTD/sodipodi-0.dtd"
   xmlns="http://www.w3.org/2000/svg"
   xmlns:svg="http://www.w3.org/2000/svg">
  <defs
     id="defs1">
    <clipPath
       clipPathUnits="userSpaceOnUse"
       id="clipPath2">
      <path
         d="M 0,371.401 H 500 V 0 H 0 Z"
         transform="translate(-471.72661,-40.728904)"
         id="path2" />
    </clipPath>
    <clipPath
       clipPathUnits="userSpaceOnUse"
       id="clipPath4">
      <path
         d="M 0,371.401 H 500 V 0 H 0 Z"
         transform="translate(-492.06931,-80.645802)"
         id="path4" />
    </clipPath>
    <clipPath
       clipPathUnits="userSpaceOnUse"
       id="clipPath6">
      <path
         d="M 0,371.401 H 500 V 0 H 0 Z"
         transform="translate(-464.30861,-152.8753)"
         id="path6" />
    </clipPath>
    <clipPath
       clipPathUnits="userSpaceOnUse"
       id="clipPath8">
      <path
         d="M 0,371.401 H 500 V 0 H 0 Z"
         transform="translate(-419.11621,-256.99301)"
         id="path8" />
    </clipPath>
    <clipPath
       clipPathUnits="userSpaceOnUse"
       id="clipPath10">
      <path
         d="M 0,371.401 H 500 V 0 H 0 Z"
         transform="translate(-344.02931,-156.20251)"
         id="path10" />
    </clipPath>
    <clipPath
       clipPathUnits="userSpaceOnUse"
       id="clipPath12">
      <path
         d="M 0,371.401 H 500 V 0 H 0 Z"
         transform="translate(-295.83201,-214.98761)"
         id="path12" />
    </clipPath>
    <clipPath
       clipPathUnits="userSpaceOnUse"
       id="clipPath14">
      <path
         d="M 0,371.401 H 500 V 0 H 0 Z"
         transform="translate(-237.38481,-127.60681)"
         id="path14" />
    </clipPath>
    <clipPath
       clipPathUnits="userSpaceOnUse"
       id="clipPath16">
      <path
         d="M 0,371.401 H 500 V 0 H 0 Z"
         transform="translate(-175.27641,-111.7777)"
         id="path16" />
    </clipPath>
    <clipPath
       clipPathUnits="userSpaceOnUse"
       id="clipPath18">
      <path
         d="M 0,371.401 H 500 V 0 H 0 Z"
         transform="translate(-121.18851,-177.55111)"
         id="path18" />
    </clipPath>
    <clipPath
       clipPathUnits="userSpaceOnUse"
       id="clipPath20">
      <path
         d="M 0,371.401 H 500 V 0 H 0 Z"
         transform="translate(-417.39941,-270.45391)"
         id="path20" />
    </clipPath>
    <clipPath
       clipPathUnits="userSpaceOnUse"
       id="clipPath22">
      <path
         d="M 0,371.401 H 500 V 0 H 0 Z"
         transform="translate(-308.50001,-325.14681)"
         id="path22" />
    </clipPath>
    <clipPath
       clipPathUnits="userSpaceOnUse"
       id="clipPath24">
      <path
         d="M 0,371.401 H 500 V 0 H 0 Z"
         transform="translate(-212.92731,-312.73571)"
         id="path24" />
    </clipPath>
    <clipPath
       clipPathUnits="userSpaceOnUse"
       id="clipPath26">
      <path
         d="M 0,371.401 H 500 V 0 H 0 Z"
         transform="translate(-205.39501,-297.60431)"
         id="path26" />
    </clipPath>
    <clipPath
       clipPathUnits="userSpaceOnUse"
       id="clipPath28">
      <path
         d="M 0,371.401 H 500 V 0 H 0 Z"
         transform="translate(-119.3784,-283.91201)"
         id="path28" />
    </clipPath>
    <clipPath
       clipPathUnits="userSpaceOnUse"
       id="clipPath30">
      <path
         d="M 0,371.401 H 500 V 0 H 0 Z"
         transform="translate(-29.658201,-222.97931)"
         id="path30" />
    </clipPath>
  </defs>
  <sodipodi:namedview
     id="namedview1"
     pagecolor="#ffffff"
     bordercolor="#000000"
     borderopacity="0.25"
     inkscape:showpageshadow="2"
     inkscape:pageopacity="0.0"
     inkscape:pagecheckerboard="0"
     inkscape:deskcolor="#d1d1d1">
    <inkscape:page
       x="0"
       y="0"
       inkscape:label="1"
       id="page1"
       width="666.66669"
       height="495.20132"
       margin="0"
       bleed="0" />
  </sodipodi:namedview>
  <g
     id="layer-MC0"
     inkscape:groupmode="layer"
     inkscape:label="Layer 1">
    <path
       id="path1"
       d="M 0,0 12.539,2.896 6.329,18.214 6.27,18.2 Z m 19.283,-13.595 -3.668,8.921 -18.751,-4.329 -3.607,-10.6 -8.991,-2.076 17.508,49.32 8.992,2.075 17.507,-41.235 z M -27.979,9.646 c 0,0.776 -0.247,1.388 -0.739,1.834 -0.494,0.447 -1.094,0.588 -1.804,0.425 L -47.912,7.89 V -4.076 l 17.39,4.014 c 0.71,0.165 1.31,0.583 1.804,1.258 0.492,0.673 0.739,1.4 0.739,2.176 z m 0,11.125 c 1.183,0.273 2.317,0.276 3.402,0.009 1.084,-0.267 2.041,-0.748 2.868,-1.44 0.828,-0.693 1.488,-1.575 1.982,-2.647 0.493,-1.072 0.74,-2.298 0.74,-3.677 V 4.153 c 0,-1.293 -0.228,-2.585 -0.681,-3.875 -0.453,-1.292 -1.114,-2.489 -1.981,-3.595 -0.869,-1.106 -1.904,-2.067 -3.106,-2.883 -1.203,-0.818 -2.573,-1.403 -4.111,-1.758 l 10.411,-14.349 -9.76,-2.254 -10.41,14.35 -9.287,-2.144 v -16.752 l -9.05,-2.09 V 14.08 Z m -40.281,-35.689 -20.998,-4.848 v -18.887 l -8.991,-2.076 V 4.548 l 34.484,7.962 V 4.23 l -25.493,-5.885 v -9.831 l 20.998,4.847 z"
       style="fill:#000000;fill-opacity:1;fill-rule:nonzero;stroke:none"
       transform="matrix(1.3333333,0,0,-1.3333333,628.9688,440.89613)"
       clip-path="url(#clipPath2)" />
    <path
       id="path3"
       d="M 0,0 -44.194,-10.203 V 42.77 L 0,52.973 V 43.286 L -32.616,35.757 V 24.254 l 26.789,6.184 V 20.751 L -32.616,14.566 V 2.156 L 0,9.687 Z m -65.232,24.896 c 0,0.909 -0.318,1.617 -0.947,2.128 -0.632,0.509 -1.4,0.661 -2.308,0.452 l -22.249,-5.137 v -33.601 l 22.249,5.137 c 0.908,0.209 1.676,0.715 2.308,1.517 0.629,0.8 0.947,1.656 0.947,2.564 z m 11.577,-25.78 c 0,-1.514 -0.303,-3.035 -0.908,-4.561 -0.606,-1.529 -1.426,-2.941 -2.459,-4.239 -1.035,-1.297 -2.259,-2.425 -3.671,-3.381 -1.412,-0.958 -2.926,-1.623 -4.539,-1.995 l -37.005,-8.544 v 52.973 l 37.005,8.543 c 1.513,0.35 2.975,0.385 4.387,0.106 1.413,-0.28 2.65,-0.815 3.709,-1.604 1.06,-0.79 1.904,-1.806 2.535,-3.047 0.63,-1.242 0.946,-2.67 0.946,-4.284 z m -90.052,-11.179 16.044,3.704 -7.947,17.764 -0.076,-0.016 z m 24.67,-15.418 -4.692,10.342 -23.989,-5.538 -4.616,-12.492 -11.503,-2.655 22.4,58.143 11.502,2.656 22.401,-47.801 z m -83.016,-19.166 c -1.513,-0.35 -2.963,-0.381 -4.351,-0.097 -1.388,0.285 -2.61,0.822 -3.669,1.612 -1.061,0.789 -1.906,1.805 -2.536,3.047 -0.631,1.241 -0.946,2.67 -0.946,4.285 v 29.967 c 0,1.514 0.303,3.033 0.909,4.562 0.605,1.526 1.423,2.939 2.459,4.237 1.034,1.299 2.245,2.422 3.632,3.374 1.388,0.951 2.888,1.612 4.502,1.985 l 23.991,5.538 c 1.513,0.35 2.962,0.382 4.351,0.098 1.387,-0.286 2.622,-0.821 3.707,-1.605 1.084,-0.784 1.942,-1.81 2.573,-3.076 0.63,-1.267 0.946,-2.683 0.946,-4.246 v -4.087 l -11.577,-2.673 v 2.65 c 0,0.907 -0.317,1.602 -0.947,2.09 -0.632,0.483 -1.4,0.622 -2.308,0.413 l -17.481,-4.036 c -0.908,-0.21 -1.678,-0.717 -2.308,-1.518 -0.631,-0.802 -0.947,-1.655 -0.947,-2.564 v -26.94 c 0,-0.909 0.316,-1.618 0.947,-2.128 0.63,-0.511 1.4,-0.661 2.308,-0.451 l 17.481,4.036 c 0.908,0.209 1.676,0.702 2.308,1.479 0.63,0.776 0.947,1.619 0.947,2.526 v 2.649 l 11.577,2.673 v -4.087 c 0,-1.614 -0.316,-3.188 -0.946,-4.72 -0.631,-1.534 -1.489,-2.944 -2.573,-4.227 -1.085,-1.285 -2.32,-2.39 -3.707,-3.315 -1.389,-0.926 -2.838,-1.564 -4.351,-1.912 z m -31.329,32.723 c 0,0.908 -0.315,1.616 -0.945,2.128 -0.631,0.51 -1.4,0.661 -2.309,0.451 l -22.248,-5.136 v -14.001 l 22.248,5.136 c 0.909,0.21 1.678,0.715 2.309,1.518 0.63,0.801 0.945,1.655 0.945,2.564 z m 0,13.016 c 1.514,0.349 2.964,0.382 4.352,0.097 1.386,-0.286 2.611,-0.824 3.671,-1.612 1.058,-0.79 1.902,-1.806 2.534,-3.047 0.631,-1.243 0.946,-2.67 0.946,-4.285 v -10.367 c 0,-1.514 -0.291,-3.031 -0.869,-4.552 -0.582,-1.522 -1.427,-2.94 -2.536,-4.257 -1.111,-1.315 -2.435,-2.465 -3.973,-3.451 -1.539,-0.987 -3.292,-1.706 -5.259,-2.16 l 13.318,-16.525 -12.487,-2.883 -13.318,16.525 -11.881,-2.743 v -19.6 l -11.578,-2.672 v 52.971 z m -78.551,-49.993 16.044,3.704 -7.946,17.764 -0.076,-0.016 z m 24.671,-15.418 -4.693,10.342 -23.988,-5.538 -4.616,-12.492 -11.503,-2.655 22.399,58.143 11.503,2.656 22.401,-47.801 z"
       style="fill:#000000;fill-opacity:1;fill-rule:nonzero;stroke:none"
       transform="matrix(1.3333333,0,0,-1.3333333,656.0924,387.6736)"
       clip-path="url(#clipPath4)" />
    <path
       id="path5"
       d="m 0,0 v 8.183 l -2.058,-8.658 -2.227,-0.514 -2.008,7.718 v -8.182 l -2.106,-0.485 v 9.793 l 3.29,0.76 1.984,-7.31 0.024,0.005 1.935,8.215 3.247,0.75 V 0.48 Z m -15.204,-3.51 v 8.058 l -3.388,-0.782 v 1.731 l 8.96,2.068 V 5.834 L -12.897,5.08 v -8.058 z"
       style="fill:#000000;fill-opacity:1;fill-rule:nonzero;stroke:none"
       transform="matrix(1.3333333,0,0,-1.3333333,619.07813,291.3676)"
       clip-path="url(#clipPath6)" />
    <path
       id="path7"
       d="m 0,0 c 0,0 -0.152,-39.76 -0.647,-46.754 -0.774,-10.924 -3.709,-11.217 -6.207,-9.579 -4.984,3.27 -14.297,21.891 -22.636,38.083 l -12.166,-2.809 v -100.615 l 14.876,3.434 0.051,25.531 c 0.025,13.105 3.603,13.957 8.802,9.197 3.946,-3.613 9.315,-11.579 17.775,-25.124 l 19.684,4.545 v 108.6 z"
       style="fill:#000000;fill-opacity:1;fill-rule:nonzero;stroke:none"
       transform="matrix(1.3333333,0,0,-1.3333333,558.8216,152.544)"
       clip-path="url(#clipPath8)" />
    <path
       id="path9"
       d="m 0,0 c -0.451,-0.002 -3.793,0.111 -4.15,2.661 -0.207,1.477 0.502,2.862 2.285,3.953 2.788,1.706 12.439,4.48 21.703,6.653 v 12.809 c 0,0 -16.774,-4.036 -21.932,-3.268 -1.567,0.232 -2.61,1.06 -2.818,2.507 -0.212,1.48 0.534,2.814 2.285,3.954 4.718,3.073 25.892,7.64 25.892,7.64 V 66.466 L -20.332,56.401 v -78.79 l 44.511,10.276 V 4.258 C 12.299,1.559 4.269,0.023 0,0"
       style="fill:#000000;fill-opacity:1;fill-rule:nonzero;stroke:none"
       transform="matrix(1.3333333,0,0,-1.3333333,458.70573,286.93133)"
       clip-path="url(#clipPath10)" />
    <path
       id="path11"
       d="m 0,0 c 0,0 -4.723,-31.117 -8.917,-45.497 -1.198,-4.108 -4.094,-10.396 -8.034,-1.406 -1.41,3.219 -5.599,18.261 -8.673,37.654 l -13.602,-3.14 c 1.191,-13.334 7.72,-49.347 16.42,-70.329 l 26.378,6.09 c 9.709,25.695 15.535,52.836 17.515,81.496 z"
       style="fill:#000000;fill-opacity:1;fill-rule:nonzero;stroke:none"
       transform="matrix(1.3333333,0,0,-1.3333333,394.44267,208.5512)"
       clip-path="url(#clipPath12)" />
    <path
       id="path13"
       d="m 0,0 c -2.101,-0.457 -6.881,-1.668 -9.323,-2.126 -2.337,-0.457 -3.703,0.861 -3.414,4.197 0.262,3.121 1.633,9.74 2.153,11.974 1.15,4.941 3.41,7.001 6.067,7.372 3.407,0.475 6.382,-2.502 8.01,-10.574 C 3.65,10.063 4.048,8.443 4.308,6.242 4.622,3.569 3.31,0.834 0,0 M 11.626,44.605 C 5.024,56.768 -2.652,54.247 -6.586,52.945 -11.739,51.24 -16.314,48.593 -21.101,29.606 -26.132,9.648 -31.61,-32.275 -31.61,-32.275 l 13.812,3.188 1.419,7.948 c 0.685,3.84 3.129,6.279 6.854,7.374 0,0 10.701,2.779 14.354,3.194 1.543,0.175 3.357,-1.043 3.884,-3.459 l 1.866,-8.553 18.81,4.343 c 0,0 -9.358,47.359 -17.763,62.845"
       style="fill:#000000;fill-opacity:1;fill-rule:nonzero;stroke:none"
       transform="matrix(1.3333333,0,0,-1.3333333,316.51307,325.05893)"
       clip-path="url(#clipPath14)" />
    <path
       id="path15"
       d="m 0,0 c -0.452,-0.003 -3.793,0.111 -4.15,2.66 -0.207,1.477 0.501,2.863 2.284,3.954 2.788,1.705 12.44,4.48 21.703,6.652 v 12.809 c 0,0 -16.773,-4.036 -21.931,-3.268 -1.567,0.233 -2.611,1.061 -2.818,2.508 -0.212,1.48 0.533,2.813 2.285,3.954 4.717,3.072 25.891,7.64 25.891,7.64 V 68.767 L -20.333,58.702 v -78.79 L 24.178,-9.813 V 4.257 C 12.298,1.559 4.269,0.023 0,0"
       style="fill:#000000;fill-opacity:1;fill-rule:nonzero;stroke:none"
       transform="matrix(1.3333333,0,0,-1.3333333,233.70187,346.1644)"
       clip-path="url(#clipPath16)" />
    <path
       id="path17"
       d="m 0,0 c 0,-15.723 0.079,-27.49 -2.075,-35.2 -1.308,-4.684 -4.188,-8.248 -8.034,-10.947 -3.917,-2.749 -7.844,-3.954 -11.689,-4.03 -4.69,-0.093 -8.118,2.459 -8.619,7.67 -0.719,7.485 -0.672,16.945 -0.672,30.052 l -17.02,-3.93 v -115.933 l 23.379,5.397 c 0,14.754 0.302,25.629 2.121,32.412 1.239,4.623 4.61,8.525 8.013,10.822 3.978,2.686 7.637,4.03 11.491,4.092 4.683,0.076 8.239,-2.341 8.681,-7.011 0.647,-6.842 0.689,-16.147 0.689,-28.844 l 17.323,3.999 V 5.445 Z"
       style="fill:#000000;fill-opacity:1;fill-rule:nonzero;stroke:none"
       transform="matrix(1.3333333,0,0,-1.3333333,161.58467,258.46653)"
       clip-path="url(#clipPath18)" />
    <path
       id="path19"
       d="m 0,0 v 100.947 l -13.799,-3.186 c -7.319,-24.168 -11.459,-35.986 -15.07,-45.947 -6.146,-16.952 -12.537,-10.298 -15.502,-5.566 -3.467,5.534 -8.158,16.317 -16.316,36.064 l -20.152,-4.653 v -93.408 l 16.71,3.858 c -0.127,15.121 0.135,23.934 0.952,27.923 0.734,3.584 2.893,4.089 5.082,0.533 1.802,-2.924 4.652,-9.25 10.319,-22.261 l 11.207,2.587 c 6.175,16.595 9.512,24.956 11.868,29.052 1.912,3.326 5.532,5.666 6.633,-0.483 0.832,-4.651 0.761,-14.01 0.736,-29.461 z"
       style="fill:#000000;fill-opacity:1;fill-rule:nonzero;stroke:none"
       transform="matrix(1.3333333,0,0,-1.3333333,556.53253,134.59613)"
       clip-path="url(#clipPath20)" />
    <path
       id="path21"
       d="m 0,0 c 0,0 0.331,-21.925 -0.416,-29.183 -0.991,-9.632 -18.065,-12.958 -18.788,-3.113 -0.322,4.394 -0.57,10.061 -0.57,23.002 l -13.954,-3.222 v -86.473 l 19.133,4.417 v 19.97 c 0,15.359 19.08,16.644 20.108,5.907 C 5.836,-72.07 6,-77.333 6,-88.253 l 13.953,3.221 V 4.606 Z"
       style="fill:#000000;fill-opacity:1;fill-rule:nonzero;stroke:none"
       transform="matrix(1.3333333,0,0,-1.3333333,411.33333,61.672267)"
       clip-path="url(#clipPath22)" />
    <path
       id="path23"
       d="m 0,0 v -35.637 l 12.875,2.972 c 5.129,1.185 6.931,0.096 6.894,-10.211 v -45.798 l 15.253,3.521 v 42.381 c 0.106,18.193 2.241,21.959 11.289,24.048 l 8.078,1.865 v 29.416 z"
       style="fill:#000000;fill-opacity:1;fill-rule:nonzero;stroke:none"
       transform="matrix(1.3333333,0,0,-1.3333333,283.90307,78.2204)"
       clip-path="url(#clipPath24)" />
    <path
       id="path25"
       d="m 0,0 -16.268,-3.756 c 0,0 -0.102,-12.309 -1.002,-28.612 -0.956,-17.329 -19.626,-22.643 -20.691,-5.014 -0.682,11.26 -0.573,26.529 -0.573,26.529 l -19.473,-4.495 v -8.338 c 0,-32.466 3.731,-43.484 23.342,-41.367 4.587,0.496 8.079,1.952 12.015,4.617 0.245,0.166 0.556,0.17 0.848,-0.056 0.28,-0.217 0.734,-0.946 0.051,-3.065 -3.678,-11.416 -35.168,-14.809 -35.168,-14.809 l -0.009,-25.512 c 18.002,2.649 37.596,6.482 47.879,23.565 C -5.209,-73.932 0,-66.228 0,0"
       style="fill:#000000;fill-opacity:1;fill-rule:nonzero;stroke:none"
       transform="matrix(1.3333333,0,0,-1.3333333,273.86,98.3956)"
       clip-path="url(#clipPath26)" />
    <path
       id="path27"
       d="m 0,0 c 0,0 0.315,-20.837 -0.395,-27.735 -0.942,-9.154 -17.169,-12.315 -17.856,-2.958 -0.307,4.176 -0.541,9.562 -0.541,21.86 l -13.261,-3.062 v -82.182 l 18.182,4.198 V -70.9 c 0,14.597 18.134,15.817 19.11,5.614 0.307,-3.208 0.464,-8.209 0.464,-18.589 l 13.26,3.062 V 4.378 Z"
       style="fill:#000000;fill-opacity:1;fill-rule:nonzero;stroke:none"
       transform="matrix(1.3333333,0,0,-1.3333333,159.1712,116.652)"
       clip-path="url(#clipPath28)" />
    <path
       id="path29"
       d="m 0,0 c -8.326,-2.124 -13.237,2.337 -13.237,13.53 0,8.928 0.168,18.145 16.513,18.145 11.637,0 16.503,-5.893 16.503,-12.539 C 19.779,13.347 12.697,3.237 0,0 m 48.865,36.877 c 0,20.559 -15.147,45.424 -78.523,30.17 V -44.761 l 16.504,3.81 v 20.201 c 0,8.21 4.73,6.698 7.748,4.732 2.344,-1.527 7.317,-5.534 19.07,-18.741 l 28.037,6.472 -21.848,22.37 c 0,0 29.012,11.682 29.012,42.794"
       style="fill:#000000;fill-opacity:1;fill-rule:nonzero;stroke:none"
       transform="matrix(1.3333333,0,0,-1.3333333,39.544267,197.8956)"
       clip-path="url(#clipPath30)" />
  </g>
</svg>
