<?xml version="1.0" encoding="UTF-8" standalone="no"?>
<!-- Created with Inkscape (http://www.inkscape.org/) -->

<svg
   version="1.1"
   id="svg1"
   width="666.66669"
   height="571.08398"
   viewBox="0 0 666.66669 571.08398"
   sodipodi:docname="Rhythm Paradise Megamix Logo (Print).ai"
   xmlns:inkscape="http://www.inkscape.org/namespaces/inkscape"
   xmlns:sodipodi="http://sodipodi.sourceforge.net/DTD/sodipodi-0.dtd"
   xmlns="http://www.w3.org/2000/svg"
   xmlns:svg="http://www.w3.org/2000/svg">
  <defs
     id="defs1">
    <clipPath
       clipPathUnits="userSpaceOnUse"
       id="clipPath2">
      <path
         d="M 0,428.313 H 500 V 0 H 0 Z"
         transform="translate(-489.22201,-264.46471)"
         id="path2" />
    </clipPath>
    <clipPath
       clipPathUnits="userSpaceOnUse"
       id="clipPath4">
      <path
         d="M 0,428.313 H 500 V 0 H 0 Z"
         transform="translate(-477.75821,-264.46471)"
         id="path4" />
    </clipPath>
    <clipPath
       clipPathUnits="userSpaceOnUse"
       id="clipPath6">
      <path
         d="M 0,428.313 H 500 V 0 H 0 Z"
         transform="translate(-471.00231,-264.46471)"
         id="path6" />
    </clipPath>
    <clipPath
       clipPathUnits="userSpaceOnUse"
       id="clipPath8">
      <path
         d="M 0,428.313 H 500 V 0 H 0 Z"
         transform="translate(-500.00041,-213.16051)"
         id="path8" />
    </clipPath>
    <clipPath
       clipPathUnits="userSpaceOnUse"
       id="clipPath10">
      <path
         d="M 0,428.313 H 500 V 0 H 0 Z"
         transform="translate(-434.40371,-116.71131)"
         id="path10" />
    </clipPath>
    <clipPath
       clipPathUnits="userSpaceOnUse"
       id="clipPath12">
      <path
         d="M 0,428.313 H 500 V 0 H 0 Z"
         transform="translate(-397.26501,-197.0736)"
         id="path12" />
    </clipPath>
    <clipPath
       clipPathUnits="userSpaceOnUse"
       id="clipPath14">
      <path
         d="M 0,428.313 H 500 V 0 H 0 Z"
         transform="translate(-403.76701,-192.0726)"
         id="path14" />
    </clipPath>
    <clipPath
       clipPathUnits="userSpaceOnUse"
       id="clipPath16">
      <path
         d="M 0,428.313 H 500 V 0 H 0 Z"
         transform="translate(-393.86361,-178.8705)"
         id="path16" />
    </clipPath>
    <clipPath
       clipPathUnits="userSpaceOnUse"
       id="clipPath18">
      <path
         d="M 0,428.313 H 500 V 0 H 0 Z"
         transform="translate(-388.95841,-173.4711)"
         id="path18" />
    </clipPath>
    <clipPath
       clipPathUnits="userSpaceOnUse"
       id="clipPath20">
      <path
         d="M 0,428.313 H 500 V 0 H 0 Z"
         transform="translate(-296.6869,-162.0277)"
         id="path20" />
    </clipPath>
    <clipPath
       clipPathUnits="userSpaceOnUse"
       id="clipPath22">
      <path
         d="M 0,428.313 H 500 V 0 H 0 Z"
         transform="translate(-275.79141,-122.65371)"
         id="path22" />
    </clipPath>
    <clipPath
       clipPathUnits="userSpaceOnUse"
       id="clipPath24">
      <path
         d="M 0,428.313 H 500 V 0 H 0 Z"
         transform="translate(-233.1718,-152.11761)"
         id="path24" />
    </clipPath>
    <clipPath
       clipPathUnits="userSpaceOnUse"
       id="clipPath26">
      <path
         d="M 0,428.313 H 500 V 0 H 0 Z"
         transform="translate(-231.8929,-70.848999)"
         id="path26" />
    </clipPath>
    <clipPath
       clipPathUnits="userSpaceOnUse"
       id="clipPath28">
      <path
         d="M 0,428.313 H 500 V 0 H 0 Z"
         transform="translate(-144.9672,-139.65171)"
         id="path28" />
    </clipPath>
    <clipPath
       clipPathUnits="userSpaceOnUse"
       id="clipPath30">
      <path
         d="M 0,428.313 H 500 V 0 H 0 Z"
         transform="translate(-142.6576,-57.779701)"
         id="path30" />
    </clipPath>
    <clipPath
       clipPathUnits="userSpaceOnUse"
       id="clipPath32">
      <path
         d="M 0,428.313 H 500 V 0 H 0 Z"
         transform="translate(-109.059,-114.1908)"
         id="path32" />
    </clipPath>
    <clipPath
       clipPathUnits="userSpaceOnUse"
       id="clipPath34">
      <path
         d="M 0,428.313 H 500 V 0 H 0 Z"
         transform="translate(-104.1537,-108.7914)"
         id="path34" />
    </clipPath>
    <clipPath
       clipPathUnits="userSpaceOnUse"
       id="clipPath36">
      <path
         d="M 0,428.313 H 500 V 0 H 0 Z"
         transform="translate(-452.11071,-126.3685)"
         id="path36" />
    </clipPath>
    <clipPath
       clipPathUnits="userSpaceOnUse"
       id="clipPath38">
      <path
         d="M 0,428.313 H 500 V 0 H 0 Z"
         transform="translate(-442.32561,-122.7367)"
         id="path38" />
    </clipPath>
    <clipPath
       clipPathUnits="userSpaceOnUse"
       id="clipPath40">
      <path
         d="M 0,428.313 H 500 V 0 H 0 Z"
         transform="translate(-211.7284,-146.6263)"
         id="path40" />
    </clipPath>
    <clipPath
       clipPathUnits="userSpaceOnUse"
       id="clipPath42">
      <path
         d="M 0,428.313 H 500 V 0 H 0 Z"
         transform="translate(-207.07951,-146.2806)"
         id="path42" />
    </clipPath>
    <clipPath
       clipPathUnits="userSpaceOnUse"
       id="clipPath44">
      <path
         d="M 0,428.313 H 500 V 0 H 0 Z"
         transform="translate(-30.897301,-24.527701)"
         id="path44" />
    </clipPath>
    <clipPath
       clipPathUnits="userSpaceOnUse"
       id="clipPath46">
      <path
         d="M 0,428.313 H 500 V 0 H 0 Z"
         transform="translate(-26.428101,-23.206403)"
         id="path46" />
    </clipPath>
    <clipPath
       clipPathUnits="userSpaceOnUse"
       id="clipPath48">
      <path
         d="M 0,428.313 H 500 V 0 H 0 Z"
         transform="translate(-416.49451,-213.06481)"
         id="path48" />
    </clipPath>
    <clipPath
       clipPathUnits="userSpaceOnUse"
       id="clipPath50">
      <path
         d="M 0,428.313 H 500 V 0 H 0 Z"
         transform="translate(-392.82561,-258.26061)"
         id="path50" />
    </clipPath>
    <clipPath
       clipPathUnits="userSpaceOnUse"
       id="clipPath52">
      <path
         d="M 0,428.313 H 500 V 0 H 0 Z"
         transform="translate(-360.76311,-218.8612)"
         id="path52" />
    </clipPath>
    <clipPath
       clipPathUnits="userSpaceOnUse"
       id="clipPath54">
      <path
         d="M 0,428.313 H 500 V 0 H 0 Z"
         transform="translate(-319.29241,-215.38761)"
         id="path54" />
    </clipPath>
    <clipPath
       clipPathUnits="userSpaceOnUse"
       id="clipPath56">
      <path
         d="M 0,428.313 H 500 V 0 H 0 Z"
         transform="translate(-288.48571,-206.8861)"
         id="path56" />
    </clipPath>
    <clipPath
       clipPathUnits="userSpaceOnUse"
       id="clipPath58">
      <path
         d="M 0,428.313 H 500 V 0 H 0 Z"
         transform="translate(-251.18011,-198.27771)"
         id="path58" />
    </clipPath>
    <clipPath
       clipPathUnits="userSpaceOnUse"
       id="clipPath60">
      <path
         d="M 0,428.313 H 500 V 0 H 0 Z"
         transform="translate(-203.04241,-202.59411)"
         id="path60" />
    </clipPath>
    <clipPath
       clipPathUnits="userSpaceOnUse"
       id="clipPath62">
      <path
         d="M 0,428.313 H 500 V 0 H 0 Z"
         transform="translate(-167.5624,-172.45941)"
         id="path62" />
    </clipPath>
    <clipPath
       clipPathUnits="userSpaceOnUse"
       id="clipPath64">
      <path
         d="M 0,428.313 H 500 V 0 H 0 Z"
         transform="translate(-121.5262,-183.1927)"
         id="path64" />
    </clipPath>
    <clipPath
       clipPathUnits="userSpaceOnUse"
       id="clipPath66">
      <path
         d="M 0,428.313 H 500 V 0 H 0 Z"
         transform="translate(-368.96721,-371.48621)"
         id="path66" />
    </clipPath>
    <clipPath
       clipPathUnits="userSpaceOnUse"
       id="clipPath68">
      <path
         d="M 0,428.313 H 500 V 0 H 0 Z"
         transform="translate(-299.60191,-335.85241)"
         id="path68" />
    </clipPath>
    <clipPath
       clipPathUnits="userSpaceOnUse"
       id="clipPath70">
      <path
         d="M 0,428.313 H 500 V 0 H 0 Z"
         transform="translate(-230.23671,-330.68841)"
         id="path70" />
    </clipPath>
    <clipPath
       clipPathUnits="userSpaceOnUse"
       id="clipPath72">
      <path
         d="M 0,428.313 H 500 V 0 H 0 Z"
         transform="translate(-225.33681,-314.06581)"
         id="path72" />
    </clipPath>
    <clipPath
       clipPathUnits="userSpaceOnUse"
       id="clipPath74">
      <path
         d="M 0,428.313 H 500 V 0 H 0 Z"
         transform="translate(-164.3632,-315.10241)"
         id="path74" />
    </clipPath>
    <clipPath
       clipPathUnits="userSpaceOnUse"
       id="clipPath76">
      <path
         d="M 0,428.313 H 500 V 0 H 0 Z"
         transform="translate(-96.277705,-277.495)"
         id="path76" />
    </clipPath>
  </defs>
  <sodipodi:namedview
     id="namedview1"
     pagecolor="#ffffff"
     bordercolor="#000000"
     borderopacity="0.25"
     inkscape:showpageshadow="2"
     inkscape:pageopacity="0.0"
     inkscape:pagecheckerboard="0"
     inkscape:deskcolor="#d1d1d1">
    <inkscape:page
       x="0"
       y="0"
       inkscape:label="1"
       id="page1"
       width="666.66669"
       height="571.08398"
       margin="4.069e-05 0 0"
       bleed="0" />
  </sodipodi:namedview>
  <g
     id="layer-MC0"
     inkscape:groupmode="layer"
     inkscape:label="Layer 1">
    <path
       id="path1"
       d="m 0,0 c 0,40.208 -24.849,74.696 -59.934,88.802 -11.846,43.229 -50.983,75.047 -97.31,75.047 -37.68,0 -70.601,-21.05 -87.954,-52.164 -10.732,3.711 -22.245,5.732 -34.223,5.732 -18.96,0 -36.762,-5.053 -52.132,-13.883 -13.785,7.254 -29.468,11.368 -46.097,11.368 -54.765,0 -99.319,-44.554 -99.319,-99.319 0,-11.561 1.992,-22.663 5.64,-32.991 -11.203,-15.093 -17.855,-33.858 -17.855,-54.173 0,-43.041 29.849,-79.129 69.628,-88.056 18.044,-21.137 46.142,-34.75 77.649,-34.75 21.313,0 41.066,6.23 57.203,16.804 12.124,-5.122 25.571,-7.974 39.718,-7.974 23.757,0 45.536,8.048 62.396,21.373 7.134,-1.508 14.528,-2.308 22.105,-2.308 49.155,0 90.646,33.408 102.982,78.708 C -23.707,-73.086 0,-39.273 0,0"
       style="fill:#000000;fill-opacity:1;fill-rule:nonzero;stroke:none"
       transform="matrix(1.3333333,0,0,-1.3333333,652.296,218.4644)"
       clip-path="url(#clipPath2)" />
    <path
       id="path3"
       d="m 0,0 c 0,37.436 -24.464,69.226 -58.168,80.117 -8.52,41.221 -44.564,72.268 -87.612,72.268 -36.921,0 -68.69,-22.838 -82.362,-55.344 -12.087,5.711 -25.584,8.913 -39.815,8.913 -19.185,0 -37.036,-5.811 -51.897,-15.76 -13.459,8.389 -29.338,13.244 -46.333,13.244 -48.443,0 -87.854,-39.411 -87.854,-87.855 0,-12.432 2.601,-24.266 7.279,-34.995 -12.116,-13.9 -19.494,-32.17 -19.494,-52.169 0,-38.919 27.902,-71.313 64.413,-77.595 15.747,-20.385 41.878,-33.747 71.4,-33.747 21.32,0 40.871,6.971 56.022,18.521 12.15,-6.173 26.088,-9.691 40.899,-9.691 23.1,0 44.071,8.558 59.448,22.415 7.986,-2.18 16.385,-3.35 25.053,-3.35 45.831,0 84.203,32.536 93.238,75.724 C -23.316,-67.71 0,-36.546 0,0"
       style="fill:#ffffff;fill-opacity:1;fill-rule:nonzero;stroke:none"
       transform="matrix(1.3333333,0,0,-1.3333333,637.01093,218.4644)"
       clip-path="url(#clipPath4)" />
    <path
       id="path5"
       d="m 0,0 c 0,35.904 -24.329,66.088 -57.318,74.831 -6.328,40.133 -40.494,70.798 -81.706,70.798 -36.745,0 -67.878,-24.379 -78.686,-58.107 -12.788,7.423 -27.643,11.676 -43.491,11.676 -19.411,0 -37.332,-6.377 -51.789,-17.147 -13.156,9.21 -29.161,14.631 -46.441,14.631 -44.789,0 -81.098,-36.309 -81.098,-81.099 0,-13.016 3.084,-25.306 8.534,-36.208 -12.817,-13.027 -20.749,-31.046 -20.749,-50.956 0,-36.563 26.754,-66.735 61.388,-71.333 14.264,-19.99 39.23,-33.253 67.669,-33.253 21.437,0 40.895,7.543 55.295,19.814 12.071,-6.952 26.332,-10.984 41.625,-10.984 22.801,0 43.324,8.941 57.674,23.21 8.462,-2.689 17.475,-4.145 26.827,-4.145 43.981,0 80.462,32.084 87.331,74.121 C -23.165,-64.613 0,-35.033 0,0"
       style="fill:#000000;fill-opacity:1;fill-rule:nonzero;stroke:none"
       transform="matrix(1.3333333,0,0,-1.3333333,628.00307,218.4644)"
       clip-path="url(#clipPath6)" />
    <path
       id="path7"
       d="m 0,0 -72.099,-16.66 v -87.792 L 0,-87.808 v 16.835 c 0,8.344 -0.001,17.658 -8.132,26.199 C -2.35,-36.292 0,-27.088 0,-14.032 Z"
       style="fill:#000000;fill-opacity:1;fill-rule:nonzero;stroke:none"
       transform="matrix(1.3333333,0,0,-1.3333333,666.6672,286.87)"
       clip-path="url(#clipPath8)" />
    <path
       id="path9"
       d="M 0,0 V 10.329 C -0.027,19.3 -0.015,28.094 10.461,40.987 2.788,46.063 0,53.251 0,67.272 v 7.519 l 22.634,5.237 V 63.369 c 0,-3.874 2.41,-6.701 6.912,-5.661 4.503,1.039 6.913,4.98 6.913,8.854 l 0.003,16.659 22.633,5.225 v -7.53 C 59.095,66.895 56.308,58.419 48.634,49.8 59.096,41.754 59.095,32.949 59.095,23.973 V 13.643 L 36.462,8.418 v 17.576 c 0,6.268 -2.413,9.035 -6.916,7.995 -4.502,-1.039 -6.912,-4.92 -6.912,-11.187 V 5.226 Z"
       style="fill:#ffffff;fill-opacity:1;fill-rule:nonzero;stroke:none"
       transform="matrix(1.3333333,0,0,-1.3333333,579.20493,415.46893)"
       clip-path="url(#clipPath10)" />
    <path
       id="path11"
       d="m 0,0 v -87.812 l 35.664,8.234 V 8.233 Z"
       style="fill:#000000;fill-opacity:1;fill-rule:nonzero;stroke:none"
       transform="matrix(1.3333333,0,0,-1.3333333,529.68667,308.3192)"
       clip-path="url(#clipPath12)" />
    <path
       id="path13"
       d="M 0,0 22.66,5.231 V -69.576 L 0,-74.808 Z"
       style="fill:#ffffff;fill-opacity:1;fill-rule:nonzero;stroke:none"
       transform="matrix(1.3333333,0,0,-1.3333333,538.356,314.9872)"
       clip-path="url(#clipPath14)" />
    <path
       id="path15"
       d="M 0,0 C -6.81,6.257 -16.057,8.261 -26.738,5.795 -32.57,4.448 -37.607,2.12 -42.623,-1.597 c -5.015,1.402 -10.052,1.404 -15.884,0.057 -10.682,-2.466 -19.929,-8.739 -26.739,-18.141 -6.945,-9.589 -9.407,-18.34 -9.407,-33.438 V -99.537 L 9.408,-75.513 v 46.418 C 9.408,-13.995 6.946,-6.381 0,0"
       style="fill:#000000;fill-opacity:1;fill-rule:nonzero;stroke:none"
       transform="matrix(1.3333333,0,0,-1.3333333,525.15147,332.59)"
       clip-path="url(#clipPath16)" />
    <path
       id="path17"
       d="m 0,0 c -5.556,5.104 -13.053,6.72 -21.833,4.692 -5.896,-1.361 -10.641,-3.825 -15.885,-8.381 -5.244,2.134 -9.96,2.415 -15.884,1.047 -8.753,-2.021 -16.277,-7.104 -21.833,-14.774 -5.843,-8.066 -7.811,-15.256 -7.811,-28.803 v -39.916 l 22.743,5.251 v 44.238 c 0,6.667 2.149,9.457 5.659,10.266 3.51,0.811 5.755,-0.964 5.755,-7.631 v -44.238 l 22.743,5.251 v 44.238 c 0,6.666 2.245,9.478 5.755,10.288 3.51,0.811 5.658,-0.986 5.658,-7.653 v -44.238 l 22.744,5.251 v 39.915 C 7.811,-11.649 5.843,-5.369 0,0"
       style="fill:#ffffff;fill-opacity:1;fill-rule:nonzero;stroke:none"
       transform="matrix(1.3333333,0,0,-1.3333333,518.6112,339.7892)"
       clip-path="url(#clipPath18)" />
    <path
       id="path19"
       d="M 0,0 C -6.499,7.207 -17.382,10.104 -28.401,7.56 -39.407,5.019 -50.283,-2.9 -56.783,-13.108 c -5.59,-8.777 -7.668,-16.787 -7.668,-29.556 v -47.728 l 72.098,16.646 v 47.727 C 7.647,-13.234 5.574,-6.182 0,0"
       style="fill:#000000;fill-opacity:1;fill-rule:nonzero;stroke:none"
       transform="matrix(1.3333333,0,0,-1.3333333,395.58253,355.04707)"
       clip-path="url(#clipPath20)" />
    <path
       id="path21"
       d="m 0,0 -7.506,2.4 -7.506,-5.865 1.408,9.131 -6.046,4.855 8.375,3.244 3.769,8.867 3.769,-7.127 8.376,0.624 -6.046,-7.648 z m 15.685,34.282 c -5.347,5.929 -14.221,8.221 -23.191,6.151 -8.971,-2.072 -17.831,-8.469 -23.172,-16.854 -4.68,-7.35 -6.375,-14.021 -6.375,-25.368 v -41.226 l 22.605,5.219 v 16.417 l 13.884,3.185 v -16.397 l 22.605,5.219 v 41.226 c 0,11.346 -1.684,17.247 -6.356,22.428"
       style="fill:#ffffff;fill-opacity:1;fill-rule:nonzero;stroke:none"
       transform="matrix(1.3333333,0,0,-1.3333333,367.72187,407.54573)"
       clip-path="url(#clipPath22)" />
    <path
       id="path23"
       d="m 0,0 c -7.464,-0.228 -12.628,-0.862 -19.054,-2.346 -14.574,-3.365 -25.874,-10.395 -34.544,-21.496 -7.912,-10.128 -12.449,-22.941 -12.449,-35.154 0,-12.724 4.818,-23.407 13.566,-30.082 8.807,-6.72 18.696,-8.171 33.068,-4.854 6.285,1.452 10.985,3.043 19.342,6.553 l 5.294,2.224 V 0.158 Z"
       style="fill:#000000;fill-opacity:1;fill-rule:nonzero;stroke:none"
       transform="matrix(1.3333333,0,0,-1.3333333,310.89573,368.26053)"
       clip-path="url(#clipPath24)" />
    <path
       id="path25"
       d="m 0,0 c -7.563,-3.177 -12.052,-4.757 -18.134,-6.161 -12.705,-2.933 -20.949,-1.73 -28.485,4.021 -7.506,5.728 -11.648,14.899 -11.648,25.914 0,10.543 3.815,21.498 10.655,30.254 7.458,9.548 16.943,15.415 29.837,18.392 5.657,1.307 10.405,1.955 17.775,2.178 v -23.44 c -6.928,-0.14 -11.251,-0.669 -16.561,-1.895 -12.365,-2.855 -19.376,-10.221 -19.376,-20.375 0,-8.535 5.244,-13.496 13.332,-12.748 V 38.448 L 0,43.667 Z"
       style="fill:#ffffff;fill-opacity:1;fill-rule:nonzero;stroke:none"
       transform="matrix(1.3333333,0,0,-1.3333333,309.19053,476.61867)"
       clip-path="url(#clipPath26)" />
    <path
       id="path27"
       d="m 0,0 c -9.516,-2.146 -16.657,-5.806 -21.857,-11.124 -6.566,-6.714 -10.333,-15.691 -10.333,-24.63 0,-6.252 1.651,-10.665 5.319,-13.728 -4.127,-5.339 -6.036,-11.271 -6.036,-18.373 0,-8.804 3.074,-15.387 8.891,-19.038 6.3,-3.952 12.976,-3.497 21.706,-1.481 l 30.267,6.987 V 6.455 Z"
       style="fill:#000000;fill-opacity:1;fill-rule:nonzero;stroke:none"
       transform="matrix(1.3333333,0,0,-1.3333333,193.2896,384.88173)"
       clip-path="url(#clipPath28)" />
    <path
       id="path29"
       d="m 0,0 c -8.86,-2.046 -13.257,-1.753 -17.472,0.892 -4.399,2.76 -6.624,7.781 -6.624,14.626 0,8.281 2.87,13.664 10.433,19.435 -7.149,2.068 -9.715,5.406 -9.715,12.665 0,7.067 2.884,13.87 7.866,18.965 3.93,4.02 9.799,6.959 17.803,8.783 l 21.474,4.957 V 59.236 L 8.694,55.758 C 2.732,54.381 0.911,52.985 0.911,49.729 c 0,-3.257 1.821,-3.812 7.783,-2.435 l 15.071,3.478 V 34.964 L 8.694,31.485 C 2.732,30.108 2.125,27.312 2.125,25.738 c 0,-1.683 0.607,-4.124 6.569,-2.748 l 15.071,3.48 V 5.486 Z"
       style="fill:#ffffff;fill-opacity:1;fill-rule:nonzero;stroke:none"
       transform="matrix(1.3333333,0,0,-1.3333333,190.21013,494.0444)"
       clip-path="url(#clipPath30)" />
    <path
       id="path31"
       d="m 0,0 c -6.81,6.257 -16.056,8.261 -26.738,5.795 -5.834,-1.347 -10.87,-3.675 -15.885,-7.392 -5.014,1.402 -10.051,1.404 -15.884,0.057 -10.682,-2.466 -19.929,-8.739 -26.738,-18.141 -6.946,-9.588 -9.408,-18.339 -9.408,-33.438 V -99.536 L 9.408,-75.512 v 46.417 C 9.408,-13.995 6.946,-6.382 0,0"
       style="fill:#000000;fill-opacity:1;fill-rule:nonzero;stroke:none"
       transform="matrix(1.3333333,0,0,-1.3333333,145.412,418.8296)"
       clip-path="url(#clipPath32)" />
    <path
       id="path33"
       d="m 0,0 c -5.556,5.104 -13.053,6.72 -21.833,4.692 -5.895,-1.36 -10.64,-3.825 -15.884,-8.38 -5.244,2.133 -9.961,2.414 -15.885,1.046 -8.753,-2.021 -16.277,-7.103 -21.833,-14.773 -5.843,-8.067 -7.811,-15.257 -7.811,-28.804 v -39.915 l 22.744,5.25 v 44.238 c 0,6.667 2.148,9.457 5.658,10.267 3.51,0.81 5.755,-0.965 5.755,-7.632 v -44.238 l 22.743,5.251 v 44.238 c 0,6.667 2.246,9.479 5.755,10.288 3.51,0.811 5.659,-0.986 5.659,-7.653 v -44.238 l 22.743,5.251 v 39.916 C 7.811,-11.649 5.843,-5.368 0,0"
       style="fill:#ffffff;fill-opacity:1;fill-rule:nonzero;stroke:none"
       transform="matrix(1.3333333,0,0,-1.3333333,138.8716,426.0288)"
       clip-path="url(#clipPath34)" />
    <path
       id="path35"
       d="m 0,0 -14.832,1.545 -7.143,13.143 -6.044,-13.694 -14.699,-2.733 11.114,-9.976 -1.91,-14.748 12.886,7.423 13.48,-6.456 -3.101,14.629 z"
       style="fill:#000000;fill-opacity:1;fill-rule:nonzero;stroke:none"
       transform="matrix(1.3333333,0,0,-1.3333333,602.81427,402.59267)"
       clip-path="url(#clipPath36)" />
    <path
       id="path37"
       d="m 0,0 -7.949,0.828 -3.809,7.011 -3.229,-7.315 -7.867,-1.462 5.934,-5.328 -1.02,-7.893 6.9,3.974 7.203,-3.45 -1.655,7.812 z"
       style="fill:#ffffff;fill-opacity:1;fill-rule:nonzero;stroke:none"
       transform="matrix(1.3333333,0,0,-1.3333333,589.76747,407.43507)"
       clip-path="url(#clipPath38)" />
    <path
       id="path39"
       d="M 0,0 5.222,12.008 -7.486,8.87 l -9.816,8.669 -0.941,-13.061 -11.283,-6.687 12.152,-4.902 2.82,-12.794 8.461,10.028 13.044,-1.257 z"
       style="fill:#000000;fill-opacity:1;fill-rule:nonzero;stroke:none"
       transform="matrix(1.3333333,0,0,-1.3333333,282.30453,375.58227)"
       clip-path="url(#clipPath40)" />
    <path
       id="path41"
       d="m 0,0 2.76,6.349 -6.707,-1.657 -5.189,4.582 -0.497,-6.9 -5.962,-3.533 6.431,-2.595 1.491,-6.762 4.471,5.299 6.873,-0.662 z"
       style="fill:#ffffff;fill-opacity:1;fill-rule:nonzero;stroke:none"
       transform="matrix(1.3333333,0,0,-1.3333333,276.106,376.0432)"
       clip-path="url(#clipPath42)" />
    <path
       id="path43"
       d="M 0,0 2.779,13.993 -10.002,7.7 l -12.42,6.966 1.999,-14.096 -10.474,-9.695 14.053,-2.432 5.899,-12.97 6.728,12.624 14.166,1.662 z"
       style="fill:#000000;fill-opacity:1;fill-rule:nonzero;stroke:none"
       transform="matrix(1.3333333,0,0,-1.3333333,41.1964,538.3804)"
       clip-path="url(#clipPath44)" />
    <path
       id="path45"
       d="m 0,0 1.573,7.922 -7.231,-3.561 -7.038,3.947 1.131,-7.977 -5.934,-5.492 7.977,-1.381 3.339,-7.342 3.809,7.15 8.005,0.937 z"
       style="fill:#ffffff;fill-opacity:1;fill-rule:nonzero;stroke:none"
       transform="matrix(1.3333333,0,0,-1.3333333,35.237467,540.14213)"
       clip-path="url(#clipPath46)" />
    <path
       id="path47"
       d="m 0,0 v 6.787 l -1.707,-7.182 -1.848,-0.426 -1.666,6.403 v -6.787 l -1.747,-0.403 v 8.125 l 2.73,0.629 1.645,-6.064 0.021,0.004 1.604,6.816 2.695,0.621 V 0.398 Z m -12.613,-2.912 v 6.684 l -2.81,-0.649 V 4.564 L -7.99,6.28 V 4.839 l -2.709,-0.625 v -6.685 z"
       style="fill:#ffffff;fill-opacity:1;fill-rule:nonzero;stroke:none"
       transform="matrix(1.3333333,0,0,-1.3333333,555.326,286.9976)"
       clip-path="url(#clipPath48)" />
    <path
       id="path49"
       d="m 0,0 c 3.932,1.481 12.158,3.693 19.069,5.192 v 21.393 l -34.536,-7.973 v -57.178 l 34.536,7.973 v 9.526 c -4.534,-1.189 -13.931,-2.957 -18.045,-3.652 -5.009,-0.841 -5.722,5.54 -0.183,7.368 3.181,1.042 9.013,2.432 13.566,3.712 v 7.335 C 10.257,-7.146 4.645,-8.118 0.22,-8.739 -5.266,-9.525 -6.216,-2.34 0,0"
       style="fill:#ffffff;fill-opacity:1;fill-rule:nonzero;stroke:none"
       transform="matrix(1.3333333,0,0,-1.3333333,523.76747,226.73653)"
       clip-path="url(#clipPath50)" />
    <path
       id="path51"
       d="m 0,0 c -0.202,1.9 -3.488,2.33 -8.606,3.557 -8.951,2.223 -14.49,7.495 -13.924,16.757 0.602,9.998 5.664,16.97 32.451,21.519 V 21.036 C 0.255,19.828 -5.082,18.019 -7.346,16.167 -9.759,14.208 -9.618,11 -6.134,9.837 -4.62,9.332 -0.145,7.836 2.56,6.93 7.75,5.2 10.29,2.547 10.819,-2.148 12.314,-15.394 -11.659,-18.868 -21.544,-20.32 V -8.55 C -9.702,-6.165 0.457,-4.074 0,0"
       style="fill:#ffffff;fill-opacity:1;fill-rule:nonzero;stroke:none"
       transform="matrix(1.3333333,0,0,-1.3333333,481.01747,279.26907)"
       clip-path="url(#clipPath52)" />
    <path
       id="path53"
       d="m 0,0 v 50.973 l 12.889,2.975 V 2.976 Z"
       style="fill:#ffffff;fill-opacity:1;fill-rule:nonzero;stroke:none"
       transform="matrix(1.3333333,0,0,-1.3333333,425.7232,283.90053)"
       clip-path="url(#clipPath54)" />
    <path
       id="path55"
       d="m 0,0 c -3.548,-0.821 -5.083,0.365 -5.083,4.516 v 13.09 c 0,3.017 -0.156,5.427 2.706,6.235 6.216,1.755 13.164,-1.572 13.822,-8.337 C 12.213,7.642 7.839,1.81 0,0 M -13.822,43.641 V -11.957 C 13.054,-8.026 24.755,2.358 24.462,23 24.206,40.898 6.436,50.735 -13.822,43.641"
       style="fill:#ffffff;fill-opacity:1;fill-rule:nonzero;stroke:none"
       transform="matrix(1.3333333,0,0,-1.3333333,384.6476,295.23587)"
       clip-path="url(#clipPath56)" />
    <path
       id="path57"
       d="m 0,0 -6.49,-1.499 c -1.631,-0.376 -2.56,0.64 -2.359,2.906 0.183,2.121 1.134,6.618 1.5,8.155 0.767,3.181 2.376,4.735 4.223,5.009 2.98,0.476 4.425,-1.7 5.576,-7.185 C 2.561,6.874 2.871,5.759 2.999,4.26 3.255,1.206 2.306,0.532 0,0 m 11.372,24.371 c -3.4,11.152 -6.153,13.904 -12.926,12.341 -5.97,-1.379 -9.364,-4.487 -12.213,-15.395 -2.797,-10.713 -5.889,-26.025 -8.376,-43.357 l 9.857,2.276 c 0.183,1.371 0.512,2.98 0.988,5.43 0.511,2.468 1.846,4.232 4.497,4.845 l 7.679,1.772 c 2.053,0.475 3.931,-1.15 4.589,-3.893 0.439,-1.828 1.006,-4.421 1.353,-6.159 l 13.054,3.014 c -1.591,12.78 -5.119,28.046 -8.502,39.126"
       style="fill:#ffffff;fill-opacity:1;fill-rule:nonzero;stroke:none"
       transform="matrix(1.3333333,0,0,-1.3333333,334.9068,306.71373)"
       clip-path="url(#clipPath58)" />
    <path
       id="path59"
       d="m 0,0 c -3.349,-0.785 -5.213,1.08 -5.213,5.066 v 3.852 c 0,2.777 0.54,5.188 3.017,5.974 C 4.999,17.171 10.009,14.069 10.009,9.2 10.009,4.649 6.525,1.533 0,0 m 24.25,16.646 c 0,17.7 -17.32,22.839 -38.503,15.271 v -55.686 l 9.027,2.084 v 12.854 c 0,2.183 1.607,1.803 3.092,0.477 1.042,-0.931 7.31,-7.003 11.689,-11.37 l 13.782,3.182 c 0,0 -12.015,12.273 -13.401,13.488 8.071,3.017 14.314,10.881 14.314,19.7"
       style="fill:#ffffff;fill-opacity:1;fill-rule:nonzero;stroke:none"
       transform="matrix(1.3333333,0,0,-1.3333333,270.7232,300.95853)"
       clip-path="url(#clipPath60)" />
    <path
       id="path61"
       d="m 0,0 -6.49,-1.498 c -1.632,-0.377 -2.56,0.639 -2.359,2.906 0.183,2.121 1.134,6.618 1.499,8.155 0.768,3.18 2.377,4.735 4.224,5.008 2.98,0.476 4.424,-1.7 5.576,-7.184 C 2.56,6.875 2.871,5.76 2.999,4.26 3.254,1.207 2.305,0.532 0,0 M 11.372,24.371 C 7.971,35.523 5.219,38.276 -1.554,36.712 c -5.971,-1.378 -9.365,-4.486 -12.213,-15.394 -2.797,-10.714 -5.89,-26.025 -8.377,-43.357 l 9.858,2.275 c 0.182,1.371 0.512,2.981 0.987,5.431 0.512,2.468 1.847,4.232 4.498,4.845 l 7.678,1.772 c 2.053,0.474 3.932,-1.151 4.589,-3.893 0.439,-1.829 1.006,-4.422 1.353,-6.159 l 13.055,3.014 c -1.591,12.779 -5.12,28.046 -8.502,39.125"
       style="fill:#ffffff;fill-opacity:1;fill-rule:nonzero;stroke:none"
       transform="matrix(1.3333333,0,0,-1.3333333,223.41653,341.13813)"
       clip-path="url(#clipPath62)" />
    <path
       id="path63"
       d="m 0,0 c -4.059,-0.992 -6.399,0.073 -6.399,3.474 v 12.304 c 0,3.476 1.92,5.668 5.741,6.161 7.66,0.988 11.116,-3.492 11.116,-9.324 C 10.458,7.752 7.588,1.855 0,0 m -25.469,39.693 v -77.065 l 19.088,4.407 v 18.101 c 0,3.308 0.823,4.954 2.798,5.301 17.788,3.13 30.459,12.074 30.459,30.424 0,20.15 -21.647,30.991 -52.345,18.832"
       style="fill:#ffffff;fill-opacity:1;fill-rule:nonzero;stroke:none"
       transform="matrix(1.3333333,0,0,-1.3333333,162.03493,326.82707)"
       clip-path="url(#clipPath64)" />
    <path
       id="path65"
       d="m 0,0 c -5.266,-17.387 -8.246,-25.888 -10.842,-33.055 -4.425,-12.195 -9.013,-7.405 -11.152,-4.004 -2.487,3.986 -5.869,11.738 -11.738,25.943 L -48.23,-14.463 V -82.71 l 12.03,2.778 c -0.092,10.878 0.091,18.264 0.676,21.135 0.53,2.577 2.085,2.943 3.657,0.383 1.298,-2.102 3.346,-6.654 7.423,-16.015 l 8.06,1.861 c 4.443,11.938 6.84,17.957 8.54,20.901 1.371,2.395 3.986,4.077 4.773,-0.348 0.602,-3.345 0.548,-12.422 0.529,-23.538 l 12.47,2.879 V 2.292 Z"
       style="fill:#ffffff;fill-opacity:1;fill-rule:nonzero;stroke:none"
       transform="matrix(1.3333333,0,0,-1.3333333,491.95627,75.769067)"
       clip-path="url(#clipPath66)" />
    <path
       id="path67"
       d="m 0,0 c -0.055,-9.324 -0.037,-17.826 -0.438,-20.934 -0.933,-7.422 -13.622,-10.768 -14.244,-3.93 -0.292,3.218 -0.547,7.468 -0.547,16.957 l -10.257,-2.368 v -62.527 l 13.072,3.018 c 0,9.928 0,14.241 0.164,17.641 0.457,8.959 13.913,10.989 15.084,3.2 0.53,-3.547 0.621,-5.247 0.621,-13.255 l 10.421,2.406 V 3.204 Z"
       style="fill:#ffffff;fill-opacity:1;fill-rule:nonzero;stroke:none"
       transform="matrix(1.3333333,0,0,-1.3333333,399.4692,123.2808)"
       clip-path="url(#clipPath68)" />
    <path
       id="path69"
       d="m 0,0 v -25.168 l 7.294,1.684 c 4.425,1.021 6.253,0.445 6.253,-7.387 v -32.328 l 11.975,2.765 v 29.637 c 0,13.164 1.237,16.485 7.752,17.99 l 5.96,1.376 V 9.058 Z"
       style="fill:#ffffff;fill-opacity:1;fill-rule:nonzero;stroke:none"
       transform="matrix(1.3333333,0,0,-1.3333333,306.98227,130.16613)"
       clip-path="url(#clipPath70)" />
    <path
       id="path71"
       d="m 0,0 -11.189,-2.583 c 0,0 0.164,-11.519 -0.274,-20.002 -0.641,-12.414 -13.146,-15.083 -14.152,-3.272 -0.511,6.197 -0.749,18.551 -0.749,18.551 l -13.913,-3.212 v -10.074 c 0,-24.042 15.631,-27.004 23.804,-20.148 0.494,0.421 0.987,0.677 1.39,0.494 0.457,-0.201 0.438,-0.695 0.255,-1.609 -0.493,-2.395 -4.04,-7.13 -11.207,-9.05 -5.466,-1.463 -10.823,-2.385 -13.493,-2.805 v -16.685 c 12.03,1.555 25.962,4.992 32.452,14.974 3.383,5.211 5.156,10.714 6.034,18.868 C 0.329,-23.718 0,0 0,0"
       style="fill:#ffffff;fill-opacity:1;fill-rule:nonzero;stroke:none"
       transform="matrix(1.3333333,0,0,-1.3333333,300.44907,152.3296)"
       clip-path="url(#clipPath72)" />
    <path
       id="path73"
       d="m 0,0 c -0.055,-9.324 -0.037,-17.826 -0.439,-20.934 -0.932,-7.422 -13.621,-10.768 -14.242,-3.93 -0.293,3.218 -0.548,7.468 -0.548,16.957 l -10.257,-2.368 v -62.527 l 13.072,3.018 c 0,9.928 0,14.241 0.164,17.641 0.458,8.959 13.914,10.988 15.084,3.2 0.53,-3.547 0.622,-5.247 0.622,-13.255 l 10.42,2.406 V 3.204 Z"
       style="fill:#ffffff;fill-opacity:1;fill-rule:nonzero;stroke:none"
       transform="matrix(1.3333333,0,0,-1.3333333,219.15093,150.94747)"
       clip-path="url(#clipPath74)" />
    <path
       id="path75"
       d="m 0,0 c -4.991,-1.17 -7.77,1.609 -7.77,7.551 v 5.741 c -0.001,4.14 0.804,7.733 4.498,8.903 C 7.45,25.592 14.919,20.97 14.919,13.712 14.919,6.929 9.727,2.285 0,0 m 36.146,24.81 c 0,26.382 -25.816,34.043 -57.391,22.762 v -85.164 l 13.456,3.107 v 21.321 c 0,3.255 2.395,2.688 4.608,0.713 1.554,-1.389 10.896,-10.439 17.423,-16.948 l 20.543,4.743 c 0,0 -17.91,18.293 -19.976,20.103 12.03,4.498 21.336,16.219 21.337,29.363"
       style="fill:#ffffff;fill-opacity:1;fill-rule:nonzero;stroke:none"
       transform="matrix(1.3333333,0,0,-1.3333333,128.37027,201.09067)"
       clip-path="url(#clipPath76)" />
  </g>
</svg>
