<?xml version="1.0" encoding="UTF-8" standalone="no"?>
<!-- Created with Inkscape (http://www.inkscape.org/) -->

<svg
   version="1.1"
   id="svg2"
   width="666.66669"
   height="566.8573"
   viewBox="0 0 666.66669 566.8573"
   sodipodi:docname="Rhythm Heaven Megamix Logo.ai"
   xmlns:inkscape="http://www.inkscape.org/namespaces/inkscape"
   xmlns:sodipodi="http://sodipodi.sourceforge.net/DTD/sodipodi-0.dtd"
   xmlns="http://www.w3.org/2000/svg"
   xmlns:svg="http://www.w3.org/2000/svg">
  <defs
     id="defs6">
    <clipPath
       clipPathUnits="userSpaceOnUse"
       id="clipPath16">
      <path
         d="M 0,425.143 H 500 V 0 H 0 Z"
         id="path14" />
    </clipPath>
    <linearGradient
       x1="0"
       y1="0"
       x2="1"
       y2="0"
       gradientUnits="userSpaceOnUse"
       gradientTransform="matrix(59.113621,-2e-7,-0.018473,-59.113563,434.3945,160.93434)"
       spreadMethod="pad"
       id="linearGradient54">
      <stop
         style="stop-opacity:1;stop-color:#ff8c3c"
         offset="0"
         id="stop48" />
      <stop
         style="stop-opacity:1;stop-color:#ff5a00"
         offset="0.75"
         id="stop50" />
      <stop
         style="stop-opacity:1;stop-color:#ff5a00"
         offset="1"
         id="stop52" />
    </linearGradient>
    <clipPath
       clipPathUnits="userSpaceOnUse"
       id="clipPath64">
      <path
         d="M 0,425.143 H 500 V 0 H 0 Z"
         id="path62" />
    </clipPath>
    <clipPath
       clipPathUnits="userSpaceOnUse"
       id="clipPath72">
      <path
         d="M 50.055,221.872 H 578.29 V -135.16 H 50.055 Z"
         id="path70" />
    </clipPath>
    <clipPath
       clipPathUnits="userSpaceOnUse"
       id="clipPath76">
      <path
         d="m 434.404,116.711 v 10.33 c -0.028,8.97 -0.015,17.764 10.461,30.657 -7.673,5.076 -10.461,12.265 -10.461,26.286 v 7.519 l 22.634,5.237 v -16.659 c 0,-3.875 2.41,-6.701 6.912,-5.662 4.502,1.039 6.913,4.979 6.913,8.853 l 0.003,16.661 22.632,5.224 v -7.53 c 0,-14.022 -2.788,-22.496 -10.46,-31.115 10.461,-8.047 10.46,-16.852 10.46,-25.828 v -10.33 l -22.632,-5.225 v 17.576 c 0,6.268 -2.414,9.035 -6.916,7.996 -4.502,-1.04 -6.912,-4.921 -6.912,-11.188 v -17.577 z"
         id="path74" />
    </clipPath>
    <linearGradient
       x1="0"
       y1="0"
       x2="1"
       y2="0"
       gradientUnits="userSpaceOnUse"
       gradientTransform="matrix(39.135792,9.0352097,0.0865576,-41.137714,392.22263,152.00366)"
       spreadMethod="pad"
       id="linearGradient110">
      <stop
         style="stop-opacity:1;stop-color:#aa37be"
         offset="0"
         id="stop106" />
      <stop
         style="stop-opacity:1;stop-color:#5f14a5"
         offset="1"
         id="stop108" />
    </linearGradient>
    <clipPath
       clipPathUnits="userSpaceOnUse"
       id="clipPath120">
      <path
         d="M 0,425.143 H 500 V 0 H 0 Z"
         id="path118" />
    </clipPath>
    <clipPath
       clipPathUnits="userSpaceOnUse"
       id="clipPath128">
      <path
         d="M 50.055,221.872 H 578.29 V -135.16 H 50.055 Z"
         id="path126" />
    </clipPath>
    <clipPath
       clipPathUnits="userSpaceOnUse"
       id="clipPath132">
      <path
         d="m 403.766,192.072 22.661,5.233 v -74.808 l -22.661,-5.232 z"
         id="path130" />
    </clipPath>
    <linearGradient
       x1="0"
       y1="0"
       x2="1"
       y2="0"
       gradientUnits="userSpaceOnUse"
       gradientTransform="matrix(91.19725,21.054598,5.45e-5,-91.197243,305.71747,125.66687)"
       spreadMethod="pad"
       id="linearGradient168">
      <stop
         style="stop-opacity:1;stop-color:#ffff00"
         offset="0"
         id="stop162" />
      <stop
         style="stop-opacity:1;stop-color:#ffbe00"
         offset="0.75"
         id="stop164" />
      <stop
         style="stop-opacity:1;stop-color:#ffbe00"
         offset="1"
         id="stop166" />
    </linearGradient>
    <clipPath
       clipPathUnits="userSpaceOnUse"
       id="clipPath178">
      <path
         d="M 0,425.143 H 500 V 0 H 0 Z"
         id="path176" />
    </clipPath>
    <clipPath
       clipPathUnits="userSpaceOnUse"
       id="clipPath186">
      <path
         d="M -34.8694,313.585 H 578.29 V -135.16 H -34.8694 Z"
         id="path184" />
    </clipPath>
    <clipPath
       clipPathUnits="userSpaceOnUse"
       id="clipPath190">
      <path
         d="m 388.958,173.471 c -5.555,5.104 -13.053,6.719 -21.833,4.692 -5.895,-1.36 -10.64,-3.825 -15.884,-8.381 -5.244,2.134 -9.961,2.414 -15.885,1.047 -8.753,-2.02 -16.276,-7.103 -21.832,-14.773 -5.844,-8.067 -7.812,-15.257 -7.812,-28.804 V 87.337 l 22.744,5.25 v 44.238 c 0,6.667 2.149,9.456 5.659,10.267 3.508,0.809 5.755,-0.965 5.755,-7.631 V 95.223 l 22.743,5.25 v 44.238 c 0,6.667 2.245,9.478 5.755,10.288 3.509,0.81 5.658,-0.986 5.658,-7.653 v -44.238 l 22.743,5.25 v 39.916 c 0,13.547 -1.968,19.828 -7.811,25.197"
         id="path188" />
    </clipPath>
    <linearGradient
       x1="0"
       y1="0"
       x2="1"
       y2="0"
       gradientUnits="userSpaceOnUse"
       gradientTransform="matrix(59.094528,13.643046,0,-59.094528,238.73795,117.95157)"
       spreadMethod="pad"
       id="linearGradient230">
      <stop
         style="stop-opacity:1;stop-color:#6ee6ff"
         offset="0"
         id="stop224" />
      <stop
         style="stop-opacity:1;stop-color:#00a0ff"
         offset="0.85"
         id="stop226" />
      <stop
         style="stop-opacity:1;stop-color:#00a0ff"
         offset="1"
         id="stop228" />
    </linearGradient>
    <clipPath
       clipPathUnits="userSpaceOnUse"
       id="clipPath240">
      <path
         d="M 0,425.143 H 500 V 0 H 0 Z"
         id="path238" />
    </clipPath>
    <clipPath
       clipPathUnits="userSpaceOnUse"
       id="clipPath248">
      <path
         d="M -34.8694,313.585 H 494.066 V -52.2433 H -34.8694 Z"
         id="path246" />
    </clipPath>
    <clipPath
       clipPathUnits="userSpaceOnUse"
       id="clipPath252">
      <path
         d="m 275.791,122.654 -7.505,2.4 -7.506,-5.866 1.407,9.131 -6.046,4.856 8.375,3.244 3.77,8.866 3.768,-7.126 8.376,0.624 -6.046,-7.648 z m 15.685,34.281 c -5.347,5.929 -14.221,8.222 -23.19,6.151 -8.971,-2.071 -17.831,-8.468 -23.172,-16.854 -4.68,-7.349 -6.376,-14.021 -6.376,-25.368 V 79.639 l 22.605,5.218 v 16.417 l 13.884,3.186 V 88.062 l 22.605,5.22 v 41.226 c 0,11.346 -1.683,17.247 -6.356,22.427"
         id="path250" />
    </clipPath>
    <linearGradient
       x1="0"
       y1="0"
       x2="1"
       y2="0"
       gradientUnits="userSpaceOnUse"
       gradientTransform="matrix(58.345142,13.470038,0.1290433,-61.329681,173.62611,94.671921)"
       spreadMethod="pad"
       id="linearGradient288">
      <stop
         style="stop-opacity:1;stop-color:#ff8232"
         offset="0"
         id="stop282" />
      <stop
         style="stop-opacity:1;stop-color:#c80000"
         offset="0.75"
         id="stop284" />
      <stop
         style="stop-opacity:1;stop-color:#c80000"
         offset="1"
         id="stop286" />
    </linearGradient>
    <clipPath
       clipPathUnits="userSpaceOnUse"
       id="clipPath298">
      <path
         d="M 0,425.143 H 500 V 0 H 0 Z"
         id="path296" />
    </clipPath>
    <clipPath
       clipPathUnits="userSpaceOnUse"
       id="clipPath306">
      <path
         d="M -34.8694,313.585 H 494.066 V -52.2433 H -34.8694 Z"
         id="path304" />
    </clipPath>
    <clipPath
       clipPathUnits="userSpaceOnUse"
       id="clipPath310">
      <path
         d="m 231.893,70.849 c -7.563,-3.176 -12.052,-4.756 -18.134,-6.161 -12.705,-2.933 -20.949,-1.729 -28.485,4.021 -7.506,5.727 -11.648,14.899 -11.648,25.914 0,10.544 3.815,21.499 10.654,30.255 7.459,9.548 16.944,15.415 29.838,18.391 5.657,1.306 10.405,1.955 17.775,2.178 v -23.44 c -6.928,-0.14 -11.251,-0.669 -16.561,-1.895 -12.365,-2.854 -19.376,-10.22 -19.376,-20.376 0,-8.535 5.244,-13.495 13.331,-12.748 v 22.309 l 22.606,5.219 z"
         id="path308" />
    </clipPath>
    <linearGradient
       x1="0"
       y1="0"
       x2="1"
       y2="0"
       gradientUnits="userSpaceOnUse"
       gradientTransform="matrix(47.973873,11.075642,0.1061049,-50.427891,118.52718,89.627075)"
       spreadMethod="pad"
       id="linearGradient346">
      <stop
         style="stop-opacity:1;stop-color:#c8f000"
         offset="0"
         id="stop340" />
      <stop
         style="stop-opacity:1;stop-color:#14b400"
         offset="0.8"
         id="stop342" />
      <stop
         style="stop-opacity:1;stop-color:#14b400"
         offset="1"
         id="stop344" />
    </linearGradient>
    <clipPath
       clipPathUnits="userSpaceOnUse"
       id="clipPath356">
      <path
         d="M 0,425.143 H 500 V 0 H 0 Z"
         id="path354" />
    </clipPath>
    <clipPath
       clipPathUnits="userSpaceOnUse"
       id="clipPath364">
      <path
         d="M -34.8694,313.585 H 494.066 V -52.2433 H -34.8694 Z"
         id="path362" />
    </clipPath>
    <clipPath
       clipPathUnits="userSpaceOnUse"
       id="clipPath368">
      <path
         d="m 142.658,57.779 c -8.86,-2.045 -13.258,-1.753 -17.472,0.892 -4.399,2.761 -6.625,7.781 -6.625,14.627 0,8.28 2.871,13.663 10.434,19.434 -7.149,2.068 -9.716,5.407 -9.716,12.666 0,7.066 2.885,13.87 7.866,18.965 3.931,4.02 9.799,6.958 17.804,8.782 l 21.473,4.958 v -21.086 l -15.07,-3.48 c -5.962,-1.376 -7.784,-2.771 -7.784,-6.029 0,-3.257 1.822,-3.811 7.784,-2.435 l 15.07,3.48 V 92.744 l -15.07,-3.479 c -5.962,-1.376 -6.569,-4.173 -6.569,-5.747 0,-1.683 0.607,-4.125 6.569,-2.749 l 15.07,3.48 V 63.266 Z"
         id="path366" />
    </clipPath>
    <linearGradient
       x1="0"
       y1="0"
       x2="1"
       y2="0"
       gradientUnits="userSpaceOnUse"
       gradientTransform="matrix(101.58785,23.453464,6.07e-5,-101.58784,12.604265,59.069077)"
       spreadMethod="pad"
       id="linearGradient404">
      <stop
         style="stop-opacity:1;stop-color:#ffff00"
         offset="0"
         id="stop398" />
      <stop
         style="stop-opacity:1;stop-color:#ffbe00"
         offset="0.75"
         id="stop400" />
      <stop
         style="stop-opacity:1;stop-color:#ffbe00"
         offset="1"
         id="stop402" />
    </linearGradient>
    <clipPath
       clipPathUnits="userSpaceOnUse"
       id="clipPath414">
      <path
         d="M 0,425.143 H 500 V 0 H 0 Z"
         id="path412" />
    </clipPath>
    <clipPath
       clipPathUnits="userSpaceOnUse"
       id="clipPath422">
      <path
         d="M -34.8694,313.585 H 494.066 V -52.2433 H -34.8694 Z"
         id="path420" />
    </clipPath>
    <clipPath
       clipPathUnits="userSpaceOnUse"
       id="clipPath426">
      <path
         d="m 104.154,108.792 c -5.556,5.104 -13.053,6.719 -21.833,4.692 -5.896,-1.361 -10.64,-3.826 -15.885,-8.382 -5.244,2.135 -9.96,2.416 -15.884,1.047 C 41.798,104.129 34.275,99.046 28.719,91.376 22.876,83.309 20.908,76.12 20.908,62.572 V 22.657 l 22.743,5.251 v 44.238 c 0,6.666 2.149,9.455 5.659,10.266 3.509,0.811 5.755,-0.965 5.755,-7.631 V 30.543 l 22.743,5.251 v 44.238 c 0,6.666 2.246,9.478 5.755,10.288 3.51,0.81 5.659,-0.987 5.659,-7.653 V 38.429 l 22.743,5.251 v 39.915 c 0,13.547 -1.968,19.828 -7.811,25.197"
         id="path424" />
    </clipPath>
    <radialGradient
       fx="0"
       fy="0"
       cx="0"
       cy="0"
       r="1"
       gradientUnits="userSpaceOnUse"
       gradientTransform="matrix(11.215127,0,0,-11.215127,430.89865,119.57639)"
       spreadMethod="pad"
       id="radialGradient462">
      <stop
         style="stop-opacity:1;stop-color:#faffc8"
         offset="0"
         id="stop456" />
      <stop
         style="stop-opacity:1;stop-color:#c8ff00"
         offset="0.45"
         id="stop458" />
      <stop
         style="stop-opacity:1;stop-color:#00a000"
         offset="1"
         id="stop460" />
    </radialGradient>
    <clipPath
       clipPathUnits="userSpaceOnUse"
       id="clipPath472">
      <path
         d="M 0,425.143 H 500 V 0 H 0 Z"
         id="path470" />
    </clipPath>
    <radialGradient
       fx="0"
       fy="0"
       cx="0"
       cy="0"
       r="1"
       gradientUnits="userSpaceOnUse"
       gradientTransform="matrix(9.7658634,0,0,-9.7658634,201.11731,145.63631)"
       spreadMethod="pad"
       id="radialGradient496">
      <stop
         style="stop-opacity:1;stop-color:#ffffa0"
         offset="0"
         id="stop490" />
      <stop
         style="stop-opacity:1;stop-color:#ffff00"
         offset="0.55"
         id="stop492" />
      <stop
         style="stop-opacity:1;stop-color:#ffc800"
         offset="1"
         id="stop494" />
    </radialGradient>
    <clipPath
       clipPathUnits="userSpaceOnUse"
       id="clipPath506">
      <path
         d="M 0,425.143 H 500 V 0 H 0 Z"
         id="path504" />
    </clipPath>
    <radialGradient
       fx="0"
       fy="0"
       cx="0"
       cy="0"
       r="1"
       gradientUnits="userSpaceOnUse"
       gradientTransform="matrix(11.332797,0,0,-11.332797,20.494005,20.418472)"
       spreadMethod="pad"
       id="radialGradient530">
      <stop
         style="stop-opacity:1;stop-color:#d9ffff"
         offset="0"
         id="stop524" />
      <stop
         style="stop-opacity:1;stop-color:#96d2ff"
         offset="0.42"
         id="stop526" />
      <stop
         style="stop-opacity:1;stop-color:#00aaff"
         offset="1"
         id="stop528" />
    </radialGradient>
    <clipPath
       clipPathUnits="userSpaceOnUse"
       id="clipPath540">
      <path
         d="M 0,425.143 H 500 V 0 H 0 Z"
         id="path538" />
    </clipPath>
  </defs>
  <sodipodi:namedview
     id="namedview4"
     pagecolor="#ffffff"
     bordercolor="#000000"
     borderopacity="0.25"
     inkscape:showpageshadow="2"
     inkscape:pageopacity="0.0"
     inkscape:pagecheckerboard="0"
     inkscape:deskcolor="#d1d1d1" />
  <g
     id="g8"
     inkscape:groupmode="layer"
     inkscape:label="Rhythm Heaven Megamix Logo"
     transform="matrix(1.3333333,0,0,-1.3333333,0,566.85733)">
    <g
       id="g10">
      <g
         id="g12"
         clip-path="url(#clipPath16)">
        <g
           id="g18"
           transform="translate(423.9594,334.515)">
          <path
             d="m 0,0 c -4.802,50.771 -47.721,90.627 -99.782,90.627 -37.375,0 -71.168,-20.915 -88.344,-52.848 -10.797,3.797 -22.225,5.76 -33.828,5.76 -18.123,0 -35.978,-4.894 -51.479,-13.963 -14.405,7.818 -30.462,11.9 -47.113,11.9 -54.725,0 -99.246,-44.59 -99.246,-99.398 0,-37.661 21.11,-71.354 53.358,-88.173 -2.426,-7.654 -3.674,-15.665 -3.674,-23.813 0,-44.375 36.963,-80.476 82.398,-80.476 27.525,0 52.151,13.091 67.167,33.728 18.301,-16.946 42.547,-26.721 68.468,-26.721 41.888,0 78.828,25.89 93.765,63.653 2.463,-0.186 4.933,-0.278 7.404,-0.278 54.041,0 98.007,43.544 98.007,97.067 C 47.101,-48.845 28.954,-17.458 0,0"
             style="fill:#0096e6;fill-opacity:1;fill-rule:nonzero;stroke:none"
             id="path20" />
        </g>
        <g
           id="g22"
           transform="translate(413.2973,327.8061)">
          <path
             d="m 0,0 c -1.479,47.82 -40.889,86.271 -89.12,86.271 -36.657,0 -69.442,-22.615 -82.811,-56.043 -12.212,5.879 -25.647,8.954 -39.361,8.954 -18.592,0 -36.202,-5.463 -51.281,-15.855 -14.139,9.04 -30.379,13.792 -47.311,13.792 -48.622,0 -88.179,-39.626 -88.179,-88.332 0,-36.879 22.767,-69.475 56.458,-82.446 -4.453,-9.192 -6.774,-19.242 -6.774,-29.54 0,-38.272 31.999,-69.41 71.331,-69.41 28.83,0 53.98,16.519 65.171,41.095 16.822,-21.359 42.554,-34.088 70.464,-34.088 40.187,0 75.255,26.755 86.207,64.659 4.939,-0.853 9.947,-1.284 14.962,-1.284 47.938,0 86.94,38.58 86.94,86.001 C 46.696,-44.143 28.53,-14.757 0,0"
             style="fill:#ffffff;fill-opacity:1;fill-rule:nonzero;stroke:none"
             id="path24" />
        </g>
        <g
           id="g26"
           transform="translate(405.5268,322.934)">
          <path
             d="m 0,0 c 0.018,0.697 0.053,1.389 0.053,2.09 0,44.896 -36.446,81.291 -81.403,81.291 -37.407,0 -68.899,-25.206 -78.429,-59.531 -12.662,7.87 -27.655,12.443 -43.742,12.443 -19.34,0 -37.102,-6.599 -51.123,-17.61 -13.305,9.768 -29.71,15.547 -47.47,15.547 -44.413,0 -80.418,-36.073 -80.418,-80.571 0,-37.508 25.582,-69.028 60.218,-78.005 -6.651,-9.744 -10.534,-21.42 -10.534,-33.981 0,-34.047 28.461,-61.649 63.57,-61.649 31.536,0 57.695,22.274 62.695,51.481 13.594,-26.4 41.143,-44.474 72.94,-44.474 39.896,0 73.119,28.438 80.452,66.099 6.605,-1.765 13.546,-2.724 20.718,-2.724 43.729,0 79.179,35.029 79.179,78.24 C 46.706,-39.582 27.529,-12.253 0,0"
             style="fill:#000000;fill-opacity:1;fill-rule:nonzero;stroke:none"
             id="path28" />
        </g>
        <path
           d="m 394.237,173.181 h 4.795 v 4.794 h -4.795 z"
           style="fill:#000000;fill-opacity:1;fill-rule:nonzero;stroke:none"
           id="path30" />
        <g
           id="g32"
           transform="translate(500.0004,213.1606)">
          <path
             d="m 0,0 -72.099,-16.66 v -87.793 L 0,-87.807 v 16.835 c 0,8.344 -0.001,17.656 -8.132,26.197 C -2.35,-36.292 0,-27.087 0,-14.033 Z"
             style="fill:#000000;fill-opacity:1;fill-rule:nonzero;stroke:none"
             id="path34" />
        </g>
      </g>
    </g>
    <g
       id="g36">
      <g
         id="g38">
        <g
           id="g44">
          <g
             id="g46">
            <path
               d="m 470.866,199.932 -0.003,-16.66 c 0,-3.873 -2.411,-7.814 -6.913,-8.853 v 0 c -4.503,-1.039 -6.913,1.787 -6.913,5.662 v 0 16.659 l -22.633,-5.237 v -7.519 c 0,-14.021 2.788,-21.21 10.461,-26.286 v 0 c -10.476,-12.893 -10.489,-21.687 -10.461,-30.657 v 0 -10.33 l 22.633,5.226 v 17.576 c 0,6.267 2.41,10.148 6.913,11.188 v 0 c 4.502,1.039 6.916,-1.729 6.916,-7.996 v 0 -17.576 l 22.633,5.225 v 10.33 c 0,8.976 10e-4,17.781 -10.462,25.828 v 0 c 7.674,8.619 10.462,17.093 10.462,31.114 v 0 7.531 z"
               style="fill:url(#linearGradient54);stroke:none"
               id="path56" />
          </g>
        </g>
      </g>
    </g>
    <g
       id="g58">
      <g
         id="g60"
         clip-path="url(#clipPath64)">
        <g
           id="g66">
          <g
             id="g68" />
          <g
             id="g88">
            <g
               clip-path="url(#clipPath72)"
               opacity="0.199997"
               id="g86">
              <g
                 id="g84">
                <g
                   clip-path="url(#clipPath76)"
                   id="g82">
                  <g
                     transform="translate(78.8984,-135.1602)"
                     id="g80">
                    <path
                       d="m 0,0 -28.843,54.89 499.419,302.143 28.815,-54.918 z"
                       style="fill:#ffffff;fill-opacity:1;fill-rule:nonzero;stroke:none"
                       id="path78" />
                  </g>
                </g>
              </g>
            </g>
          </g>
        </g>
        <g
           id="g90"
           transform="translate(397.2651,197.0732)">
          <path
             d="m 0,0 v -87.812 l 35.664,8.235 v 87.81 z"
             style="fill:#000000;fill-opacity:1;fill-rule:nonzero;stroke:none"
             id="path92" />
        </g>
      </g>
    </g>
    <g
       id="g94">
      <g
         id="g96">
        <g
           id="g102">
          <g
             id="g104">
            <path
               d="m 403.766,192.073 v -74.808 l 22.661,5.232 v 74.807 z"
               style="fill:url(#linearGradient110);stroke:none"
               id="path112" />
          </g>
        </g>
      </g>
    </g>
    <g
       id="g114">
      <g
         id="g116"
         clip-path="url(#clipPath120)">
        <g
           id="g122">
          <g
             id="g124" />
          <g
             id="g144">
            <g
               clip-path="url(#clipPath128)"
               opacity="0.199997"
               id="g142">
              <g
                 id="g140">
                <g
                   clip-path="url(#clipPath132)"
                   id="g138">
                  <g
                     transform="translate(78.8984,-135.1602)"
                     id="g136">
                    <path
                       d="m 0,0 -28.843,54.89 499.419,302.143 28.815,-54.918 z"
                       style="fill:#ffffff;fill-opacity:1;fill-rule:nonzero;stroke:none"
                       id="path134" />
                  </g>
                </g>
              </g>
            </g>
          </g>
        </g>
        <g
           id="g146"
           transform="translate(393.8637,178.87)">
          <path
             d="M 0,0 C -6.81,6.257 -16.057,8.262 -26.738,5.795 -32.57,4.448 -37.607,2.12 -42.623,-1.597 c -5.015,1.402 -10.052,1.405 -15.885,0.058 -10.682,-2.467 -19.928,-8.74 -26.738,-18.142 -6.945,-9.589 -9.407,-18.339 -9.407,-33.437 v -46.418 l 104.06,24.023 v 46.418 C 9.407,-13.994 6.946,-6.381 0,0"
             style="fill:#000000;fill-opacity:1;fill-rule:nonzero;stroke:none"
             id="path148" />
        </g>
      </g>
    </g>
    <g
       id="g150">
      <g
         id="g152">
        <g
           id="g158">
          <g
             id="g160">
            <path
               d="m 367.125,178.163 c -5.895,-1.361 -10.64,-3.825 -15.885,-8.381 v 0 c -5.243,2.134 -9.96,2.414 -15.884,1.047 v 0 c -8.753,-2.02 -16.276,-7.104 -21.832,-14.774 v 0 c -5.844,-8.066 -7.812,-15.256 -7.812,-28.803 v 0 -39.915 l 22.744,5.25 v 44.238 c 0,6.667 2.149,9.456 5.659,10.266 v 0 c 3.508,0.81 5.755,-0.964 5.755,-7.63 v 0 -44.238 l 22.743,5.249 v 44.239 c 0,6.667 2.245,9.479 5.754,10.288 v 0 c 3.51,0.811 5.659,-0.987 5.659,-7.654 v 0 -44.236 l 22.743,5.249 v 39.916 c 0,13.547 -1.968,19.829 -7.811,25.196 v 0 c -4,3.676 -9.008,5.543 -14.775,5.543 v 0 c -2.243,0 -4.6,-0.282 -7.058,-0.85"
               style="fill:url(#linearGradient168);stroke:none"
               id="path170" />
          </g>
        </g>
      </g>
    </g>
    <g
       id="g172">
      <g
         id="g174"
         clip-path="url(#clipPath178)">
        <g
           id="g180">
          <g
             id="g182" />
          <g
             id="g206">
            <g
               clip-path="url(#clipPath186)"
               opacity="0.199997"
               id="g204">
              <g
                 id="g202">
                <g
                   clip-path="url(#clipPath190)"
                   id="g200">
                  <g
                     transform="translate(-4.7842,-52.2432)"
                     id="g194">
                    <path
                       d="m 0,0 -30.085,61.978 498.85,303.85 30.085,-61.977 z"
                       style="fill:#ffffff;fill-opacity:1;fill-rule:nonzero;stroke:none"
                       id="path192" />
                  </g>
                  <g
                     transform="translate(78.8984,-135.1602)"
                     id="g198">
                    <path
                       d="m 0,0 -28.843,54.89 499.419,302.143 28.815,-54.918 z"
                       style="fill:#ffffff;fill-opacity:1;fill-rule:nonzero;stroke:none"
                       id="path196" />
                  </g>
                </g>
              </g>
            </g>
          </g>
        </g>
        <g
           id="g208"
           transform="translate(296.687,162.0273)">
          <path
             d="M 0,0 C -6.499,7.207 -17.382,10.104 -28.401,7.561 -39.407,5.02 -50.283,-2.9 -56.783,-13.108 c -5.59,-8.776 -7.668,-16.787 -7.668,-29.555 v -47.729 l 72.098,16.646 v 47.727 C 7.647,-13.233 5.574,-6.182 0,0"
             style="fill:#000000;fill-opacity:1;fill-rule:nonzero;stroke:none"
             id="path210" />
        </g>
      </g>
    </g>
    <g
       id="g212">
      <g
         id="g214">
        <g
           id="g220">
          <g
             id="g222">
            <path
               d="m 268.285,163.086 c -8.97,-2.072 -17.83,-8.468 -23.171,-16.854 v 0 c -4.681,-7.349 -6.376,-14.021 -6.376,-25.367 v 0 -41.227 l 22.605,5.219 v 16.417 l 13.884,3.186 V 88.062 l 22.605,5.22 v 41.226 c 0,11.346 -1.683,17.246 -6.356,22.428 v 0 c -4.052,4.492 -10.13,6.897 -16.74,6.897 v 0 c -2.112,0 -4.278,-0.245 -6.451,-0.747 m -6.098,-34.767 -6.046,4.856 8.375,3.244 3.769,8.866 3.769,-7.126 8.376,0.624 -6.046,-7.649 1.408,-8.48 -7.507,2.399 -7.506,-5.864 z"
               style="fill:url(#linearGradient230);stroke:none"
               id="path232" />
          </g>
        </g>
      </g>
    </g>
    <g
       id="g234">
      <g
         id="g236"
         clip-path="url(#clipPath240)">
        <g
           id="g242">
          <g
             id="g244" />
          <g
             id="g264">
            <g
               clip-path="url(#clipPath248)"
               opacity="0.199997"
               id="g262">
              <g
                 id="g260">
                <g
                   clip-path="url(#clipPath252)"
                   id="g258">
                  <g
                     transform="translate(-4.7842,-52.2432)"
                     id="g256">
                    <path
                       d="m 0,0 -30.085,61.978 498.85,303.85 30.085,-61.977 z"
                       style="fill:#ffffff;fill-opacity:1;fill-rule:nonzero;stroke:none"
                       id="path254" />
                  </g>
                </g>
              </g>
            </g>
          </g>
        </g>
        <g
           id="g266"
           transform="translate(233.1718,152.1171)">
          <path
             d="m 0,0 c -7.464,-0.227 -12.628,-0.862 -19.054,-2.346 -14.574,-3.365 -25.874,-10.395 -34.544,-21.495 -7.912,-10.129 -12.449,-22.942 -12.449,-35.155 0,-12.724 4.818,-23.406 13.566,-30.082 8.807,-6.72 18.696,-8.171 33.068,-4.854 6.285,1.452 10.985,3.044 19.342,6.554 l 5.294,2.224 V 0.158 Z"
             style="fill:#000000;fill-opacity:1;fill-rule:nonzero;stroke:none"
             id="path268" />
        </g>
      </g>
    </g>
    <g
       id="g270">
      <g
         id="g272">
        <g
           id="g278">
          <g
             id="g280">
            <path
               d="m 214.117,143.269 c -12.893,-2.976 -22.378,-8.843 -29.837,-18.391 v 0 c -6.839,-8.756 -10.654,-19.711 -10.654,-30.255 v 0 c 0,-11.015 4.141,-20.187 11.648,-25.914 v 0 c 7.537,-5.75 15.78,-6.955 28.485,-4.021 v 0 c 6.082,1.404 10.571,2.985 18.133,6.161 v 0 43.666 l -22.605,-5.218 V 86.989 c -8.087,-0.748 -13.331,4.213 -13.331,12.747 v 0 c 0,10.156 7.011,17.521 19.376,20.376 v 0 c 5.31,1.226 9.633,1.755 16.56,1.895 v 0 23.44 c -7.369,-0.223 -12.117,-0.872 -17.775,-2.178"
               style="fill:url(#linearGradient288);stroke:none"
               id="path290" />
          </g>
        </g>
      </g>
    </g>
    <g
       id="g292">
      <g
         id="g294"
         clip-path="url(#clipPath298)">
        <g
           id="g300">
          <g
             id="g302" />
          <g
             id="g322">
            <g
               clip-path="url(#clipPath306)"
               opacity="0.199997"
               id="g320">
              <g
                 id="g318">
                <g
                   clip-path="url(#clipPath310)"
                   id="g316">
                  <g
                     transform="translate(-4.7842,-52.2432)"
                     id="g314">
                    <path
                       d="m 0,0 -30.085,61.978 498.85,303.85 30.085,-61.977 z"
                       style="fill:#ffffff;fill-opacity:1;fill-rule:nonzero;stroke:none"
                       id="path312" />
                  </g>
                </g>
              </g>
            </g>
          </g>
        </g>
        <g
           id="g324"
           transform="translate(144.9672,139.6523)">
          <path
             d="m 0,0 c -9.516,-2.146 -16.657,-5.807 -21.857,-11.124 -6.567,-6.715 -10.333,-15.692 -10.333,-24.631 0,-6.252 1.651,-10.665 5.319,-13.728 -4.127,-5.339 -6.036,-11.271 -6.036,-18.373 0,-8.804 3.074,-15.386 8.891,-19.037 6.299,-3.953 12.976,-3.498 21.706,-1.482 l 30.267,6.988 V 6.454 Z"
             style="fill:#000000;fill-opacity:1;fill-rule:nonzero;stroke:none"
             id="path326" />
        </g>
      </g>
    </g>
    <g
       id="g328">
      <g
         id="g330">
        <g
           id="g336">
          <g
             id="g338">
            <path
               d="m 144.949,133.145 c -8.005,-1.824 -13.873,-4.763 -17.803,-8.782 v 0 c -4.982,-5.094 -7.867,-11.899 -7.867,-18.965 v 0 c 0,-7.259 2.567,-10.598 9.716,-12.666 v 0 C 121.433,86.961 118.562,81.578 118.562,73.298 v 0 c 0,-6.846 2.224,-11.867 6.624,-14.627 v 0 c 4.214,-2.645 8.612,-2.937 17.472,-0.892 v 0 l 23.765,5.487 V 84.249 L 151.352,80.77 c -5.961,-1.376 -6.569,1.065 -6.569,2.748 v 0 c 0,1.573 0.608,4.371 6.569,5.747 v 0 l 15.071,3.479 v 15.809 l -15.071,-3.48 c -5.961,-1.376 -7.784,-0.822 -7.784,2.435 v 0 c 0,3.258 1.823,4.653 7.784,6.029 v 0 l 15.071,3.479 v 21.087 z"
               style="fill:url(#linearGradient346);stroke:none"
               id="path348" />
          </g>
        </g>
      </g>
    </g>
    <g
       id="g350">
      <g
         id="g352"
         clip-path="url(#clipPath356)">
        <g
           id="g358">
          <g
             id="g360" />
          <g
             id="g380">
            <g
               clip-path="url(#clipPath364)"
               opacity="0.199997"
               id="g378">
              <g
                 id="g376">
                <g
                   clip-path="url(#clipPath368)"
                   id="g374">
                  <g
                     transform="translate(-4.7842,-52.2432)"
                     id="g372">
                    <path
                       d="m 0,0 -30.085,61.978 498.85,303.85 30.085,-61.977 z"
                       style="fill:#ffffff;fill-opacity:1;fill-rule:nonzero;stroke:none"
                       id="path370" />
                  </g>
                </g>
              </g>
            </g>
          </g>
        </g>
        <g
           id="g382"
           transform="translate(109.059,114.1904)">
          <path
             d="m 0,0 c -6.81,6.257 -16.056,8.262 -26.738,5.795 -5.834,-1.347 -10.87,-3.675 -15.885,-7.392 -5.014,1.402 -10.051,1.405 -15.884,0.058 -10.683,-2.467 -19.929,-8.74 -26.739,-18.142 -6.945,-9.588 -9.407,-18.338 -9.407,-33.438 v -46.417 l 104.06,24.024 v 46.417 C 9.407,-13.995 6.946,-6.381 0,0"
             style="fill:#000000;fill-opacity:1;fill-rule:nonzero;stroke:none"
             id="path384" />
        </g>
      </g>
    </g>
    <g
       id="g386">
      <g
         id="g388">
        <g
           id="g394">
          <g
             id="g396">
            <path
               d="m 82.321,113.485 c -5.896,-1.362 -10.641,-3.827 -15.885,-8.382 v 0 c -5.244,2.134 -9.96,2.415 -15.884,1.047 v 0 C 41.799,104.129 34.275,99.046 28.719,91.376 v 0 C 22.876,83.309 20.908,76.12 20.908,62.572 v 0 -39.914 l 22.743,5.25 v 44.239 c 0,6.665 2.149,9.454 5.658,10.265 v 0 c 3.51,0.811 5.756,-0.965 5.756,-7.631 v 0 -44.238 l 22.743,5.251 v 44.239 c 0,6.665 2.245,9.477 5.755,10.287 v 0 c 3.509,0.81 5.658,-0.987 5.658,-7.653 v 0 -44.239 l 22.744,5.252 v 39.915 c 0,13.546 -1.968,19.828 -7.812,25.197 v 0 c -4,3.676 -9.008,5.541 -14.775,5.542 v 0 c -2.243,0 -4.599,-0.282 -7.057,-0.849"
               style="fill:url(#linearGradient404);stroke:none"
               id="path406" />
          </g>
        </g>
      </g>
    </g>
    <g
       id="g408">
      <g
         id="g410"
         clip-path="url(#clipPath414)">
        <g
           id="g416">
          <g
             id="g418" />
          <g
             id="g438">
            <g
               clip-path="url(#clipPath422)"
               opacity="0.199997"
               id="g436">
              <g
                 id="g434">
                <g
                   clip-path="url(#clipPath426)"
                   id="g432">
                  <g
                     transform="translate(-4.7842,-52.2432)"
                     id="g430">
                    <path
                       d="m 0,0 -30.085,61.978 498.85,303.85 30.085,-61.977 z"
                       style="fill:#ffffff;fill-opacity:1;fill-rule:nonzero;stroke:none"
                       id="path428" />
                  </g>
                </g>
              </g>
            </g>
          </g>
        </g>
        <g
           id="g440"
           transform="translate(452.1108,126.3681)">
          <path
             d="m 0,0 -14.832,1.546 -7.143,13.143 -6.044,-13.694 -14.699,-2.734 11.114,-9.976 -1.91,-14.748 12.886,7.423 13.48,-6.456 -3.101,14.629 z"
             style="fill:#000000;fill-opacity:1;fill-rule:nonzero;stroke:none"
             id="path442" />
        </g>
      </g>
    </g>
    <g
       id="g444">
      <g
         id="g446">
        <g
           id="g452">
          <g
             id="g454">
            <path
               d="m 427.338,123.26 -7.866,-1.461 5.934,-5.327 -1.021,-7.895 6.9,3.974 7.204,-3.449 -1.656,7.811 5.493,5.825 -7.95,0.827 -3.808,7.011 z"
               style="fill:url(#radialGradient462);stroke:none"
               id="path464" />
          </g>
        </g>
      </g>
    </g>
    <g
       id="g466">
      <g
         id="g468"
         clip-path="url(#clipPath472)">
        <g
           id="g474"
           transform="translate(211.7285,146.6259)">
          <path
             d="m 0,0 5.222,12.008 -12.708,-3.137 -9.816,8.668 -0.941,-13.061 -11.283,-6.687 12.152,-4.902 2.82,-12.793 8.461,10.027 13.044,-1.257 z"
             style="fill:#000000;fill-opacity:1;fill-rule:nonzero;stroke:none"
             id="path476" />
        </g>
      </g>
    </g>
    <g
       id="g478">
      <g
         id="g480">
        <g
           id="g486">
          <g
             id="g488">
            <path
               d="m 197.447,148.654 -5.963,-3.533 6.431,-2.593 1.491,-6.763 4.471,5.299 6.873,-0.663 -3.671,5.88 2.76,6.348 -6.706,-1.657 -5.19,4.582 z"
               style="fill:url(#radialGradient496);stroke:none"
               id="path498" />
          </g>
        </g>
      </g>
    </g>
    <g
       id="g500">
      <g
         id="g502"
         clip-path="url(#clipPath506)">
        <g
           id="g508"
           transform="translate(30.8969,24.5273)">
          <path
             d="M 0,0 2.779,13.994 -10.002,7.7 l -12.42,6.966 2,-14.096 -10.475,-9.695 14.053,-2.431 5.9,-12.971 6.727,12.625 14.166,1.661 z"
             style="fill:#000000;fill-opacity:1;fill-rule:nonzero;stroke:none"
             id="path510" />
        </g>
      </g>
    </g>
    <g
       id="g512">
      <g
         id="g514">
        <g
           id="g520">
          <g
             id="g522">
            <path
               d="m 14.863,23.537 -5.934,-5.492 7.977,-1.38 3.339,-7.342 3.809,7.149 8.005,0.939 -5.631,5.795 1.574,7.922 -7.232,-3.561 -7.039,3.947 z"
               style="fill:url(#radialGradient530);stroke:none"
               id="path532" />
          </g>
        </g>
      </g>
    </g>
    <g
       id="g534">
      <g
         id="g536"
         clip-path="url(#clipPath540)">
        <g
           id="g542"
           transform="translate(402.9311,219.0282)">
          <path
             d="m 0,0 v 6.833 l -1.718,-7.229 -1.86,-0.43 -1.677,6.445 V -1.213 L -7.013,-1.619 V 6.56 l 2.747,0.634 1.657,-6.105 0.02,0.005 1.615,6.861 2.712,0.626 V 0.401 Z M -12.696,-2.931 V 3.797 L -15.524,3.145 V 4.59 l 7.481,1.727 V 4.872 l -2.727,-0.63 v -6.728 z"
             style="fill:#ff5500;fill-opacity:1;fill-rule:nonzero;stroke:none"
             id="path544" />
        </g>
        <g
           id="g546"
           transform="translate(369.3149,290.0722)">
          <path
             d="m 0,0 c 0,0 -0.11,-28.842 -0.47,-33.916 -0.56,-7.924 -2.69,-8.137 -4.502,-6.948 -3.615,2.372 -10.371,15.879 -16.421,27.626 l -8.824,-2.038 v -72.988 l 10.791,2.492 0.036,18.52 c 0.019,9.506 2.615,10.125 6.386,6.671 2.862,-2.62 6.757,-8.398 12.894,-18.225 l 14.279,3.297 v 78.78 z"
             style="fill:#ff5500;fill-opacity:1;fill-rule:nonzero;stroke:none"
             id="path548" />
        </g>
        <g
           id="g550"
           transform="translate(314.8471,216.9584)">
          <path
             d="m 0,0 c -0.328,-0.002 -2.752,0.081 -3.011,1.93 -0.15,1.071 0.364,2.077 1.657,2.868 2.023,1.237 9.024,3.249 15.744,4.825 v 9.293 c 0,0 -12.167,-2.928 -15.91,-2.372 -1.136,0.169 -1.893,0.77 -2.043,1.82 -0.155,1.073 0.386,2.04 1.657,2.867 3.422,2.229 18.782,5.543 18.782,5.543 V 48.215 L -14.75,40.914 v -57.156 l 32.289,7.454 V 3.088 C 8.921,1.13 3.096,0.017 0,0"
             style="fill:#ff5500;fill-opacity:1;fill-rule:nonzero;stroke:none"
             id="path552" />
        </g>
        <g
           id="g554"
           transform="translate(279.8832,259.601)">
          <path
             d="m 0,0 c 0,0 -3.426,-22.572 -6.468,-33.003 -0.869,-2.981 -2.97,-7.541 -5.828,-1.02 -1.023,2.335 -4.061,13.247 -6.291,27.314 l -9.867,-2.278 c 0.864,-9.672 5.6,-35.797 11.911,-51.016 l 19.135,4.417 c 7.043,18.64 11.269,38.327 12.706,59.118 z"
             style="fill:#ff5500;fill-opacity:1;fill-rule:nonzero;stroke:none"
             id="path556" />
        </g>
        <g
           id="g558"
           transform="translate(237.4858,196.2148)">
          <path
             d="m 0,0 c -1.524,-0.332 -4.991,-1.21 -6.763,-1.542 -1.695,-0.332 -2.686,0.624 -2.477,3.045 0.191,2.264 1.185,7.064 1.562,8.685 0.835,3.584 2.473,5.079 4.401,5.347 2.471,0.345 4.63,-1.814 5.811,-7.67 C 2.648,7.299 2.937,6.124 3.125,4.527 3.353,2.589 2.4,0.604 0,0 m 8.434,32.356 c -4.789,8.823 -10.358,6.995 -13.211,6.051 -3.739,-1.237 -7.057,-3.157 -10.53,-16.93 -3.65,-14.478 -7.623,-44.89 -7.623,-44.89 l 10.019,2.312 1.029,5.767 c 0.497,2.785 2.27,4.554 4.972,5.349 0,0 7.763,2.015 10.413,2.316 1.12,0.127 2.435,-0.756 2.817,-2.509 l 1.354,-6.204 13.644,3.15 c 0,0 -6.787,34.355 -12.884,45.588"
             style="fill:#ff5500;fill-opacity:1;fill-rule:nonzero;stroke:none"
             id="path560" />
        </g>
        <g
           id="g562"
           transform="translate(192.4316,184.7314)">
          <path
             d="m 0,0 c -0.327,-0.001 -2.751,0.081 -3.011,1.931 -0.15,1.071 0.365,2.076 1.657,2.867 2.023,1.237 9.024,3.25 15.745,4.826 v 9.292 c 0,0 -12.168,-2.928 -15.91,-2.371 -1.137,0.169 -1.894,0.769 -2.044,1.819 -0.154,1.073 0.387,2.041 1.657,2.868 3.423,2.229 18.782,5.542 18.782,5.542 V 49.885 L -14.75,42.583 v -57.154 l 32.289,7.454 V 3.089 C 8.921,1.131 3.097,0.018 0,0"
             style="fill:#ff5500;fill-opacity:1;fill-rule:nonzero;stroke:none"
             id="path564" />
        </g>
        <g
           id="g566"
           transform="translate(153.0722,232.4155)">
          <path
             d="m 0,0 c 0.304,-11.388 0.181,-19.913 -1.381,-25.505 -0.949,-3.398 -3.038,-5.984 -5.828,-7.942 -2.842,-1.994 -5.69,-2.867 -8.48,-2.923 -3.401,-0.067 -5.86,1.257 -6.187,4.826 -0.497,5.432 -0.718,13.025 -0.552,22.538 l -12.347,-2.85 v -84.1 l 16.96,3.915 c -0.304,10.726 0.061,18.683 1.38,23.603 0.899,3.354 3.36,6.191 5.829,7.858 2.885,1.95 5.684,2.961 8.479,3.006 3.398,0.056 5.867,-1.519 6.187,-4.908 0.47,-4.963 0.69,-12.123 0.552,-21.25 l 12.623,2.914 V 3.979 Z"
             style="fill:#ff5500;fill-opacity:1;fill-rule:nonzero;stroke:none"
             id="path568" />
        </g>
        <g
           id="g570"
           transform="translate(357.7143,368.2807)">
          <path
             d="m 0,0 c -5.265,-17.385 -8.245,-25.885 -10.841,-33.051 -4.424,-12.193 -9.012,-7.404 -11.15,-4.004 -2.487,3.986 -5.868,11.737 -11.737,25.94 L -48.225,-14.46 V -82.7 l 12.03,2.778 c -0.092,10.877 0.091,18.262 0.675,21.132 0.531,2.578 2.084,2.943 3.657,0.384 1.298,-2.102 3.345,-6.655 7.422,-16.014 l 8.059,1.861 c 4.443,11.937 6.839,17.955 8.539,20.898 1.371,2.395 3.986,4.077 4.772,-0.347 0.603,-3.346 0.549,-12.421 0.53,-23.535 l 12.467,2.878 V 2.292 Z"
             style="fill:#ffaa00;fill-opacity:1;fill-rule:nonzero;stroke:none"
             id="path572" />
        </g>
        <g
           id="g574"
           transform="translate(288.3578,332.6513)">
          <path
             d="m 0,0 c -0.055,-9.323 -0.036,-17.823 -0.438,-20.931 -0.933,-7.422 -13.62,-10.767 -14.242,-3.93 -0.292,3.217 -0.548,7.467 -0.548,16.955 l -10.255,-2.367 v -62.52 l 13.071,3.018 c 0,9.926 0,14.239 0.164,17.639 0.457,8.957 13.911,10.987 15.081,3.199 0.53,-3.546 0.622,-5.247 0.622,-13.253 l 10.42,2.405 V 3.203 Z"
             style="fill:#ffaa00;fill-opacity:1;fill-rule:nonzero;stroke:none"
             id="path576" />
        </g>
        <g
           id="g578"
           transform="translate(219.0014,327.4872)">
          <path
             d="m 0,0 v -25.165 l 7.294,1.684 c 4.424,1.022 6.252,0.445 6.252,-7.385 v -32.303 l 11.974,2.743 v 29.633 c 0,13.162 1.235,16.484 7.751,17.988 l 5.959,1.376 V 9.057 Z"
             style="fill:#ffaa00;fill-opacity:1;fill-rule:nonzero;stroke:none"
             id="path580" />
        </g>
        <g
           id="g582"
           transform="translate(214.1025,310.8671)">
          <path
             d="m 0,0 -11.188,-2.583 c 0,0 0.165,-11.517 -0.274,-19.999 -0.64,-12.413 -13.144,-15.082 -14.149,-3.272 -0.512,6.197 -0.75,18.549 -0.75,18.549 l -13.911,-3.212 v -10.072 c 0,-24.039 15.629,-27.001 23.801,-20.145 0.493,0.42 0.987,0.676 1.389,0.493 0.457,-0.201 0.439,-0.695 0.256,-1.609 -0.493,-2.395 -4.04,-7.129 -11.206,-9.048 -5.466,-1.463 -10.822,-2.386 -13.49,-2.806 v -16.682 c 12.028,1.554 25.958,4.991 32.447,14.972 3.382,5.21 5.156,10.713 6.033,18.866 C 0.329,-23.715 0,0 0,0"
             style="fill:#ffaa00;fill-opacity:1;fill-rule:nonzero;stroke:none"
             id="path584" />
        </g>
        <g
           id="g586"
           transform="translate(153.1367,311.9037)">
          <path
             d="m 0,0 c -0.055,-9.323 -0.037,-17.824 -0.439,-20.931 -0.932,-7.422 -13.619,-10.768 -14.24,-3.931 -0.293,3.217 -0.549,7.468 -0.549,16.956 l -10.255,-2.368 v -62.519 l 13.07,3.017 c 0,9.927 0,14.239 0.165,17.64 0.457,8.957 13.912,10.987 15.081,3.199 0.531,-3.546 0.622,-5.247 0.622,-13.253 l 10.42,2.405 V 3.203 Z"
             style="fill:#ffaa00;fill-opacity:1;fill-rule:nonzero;stroke:none"
             id="path588" />
        </g>
        <g
           id="g590"
           transform="translate(85.06,274.3007)">
          <path
             d="m 0,0 c -4.991,-1.17 -7.77,1.608 -7.77,7.55 v 5.74 c 0,4.14 0.805,7.732 4.498,8.902 C 7.449,25.589 14.917,20.968 14.917,13.71 14.917,6.928 9.725,2.285 0,0 m 36.141,24.807 c 0,26.379 -25.812,34.038 -57.383,22.759 v -85.153 l 13.454,3.106 v 21.319 c 0,3.254 2.395,2.687 4.607,0.713 1.554,-1.389 10.895,-10.439 17.422,-16.946 l 20.539,4.742 c 0,0 -17.907,18.291 -19.973,20.101 12.029,4.497 21.334,16.216 21.334,29.359"
             style="fill:#ffaa00;fill-opacity:1;fill-rule:nonzero;stroke:none"
             id="path592" />
        </g>
      </g>
    </g>
  </g>
</svg>
