<?xml version="1.0" encoding="UTF-8" standalone="no"?>
<!-- Generator: Adobe Illustrator 25.0.0, SVG Export Plug-In . SVG Version: 6.00 Build 0)  -->

<svg
   version="1.1"
   id="Layer_1"
   x="0px"
   y="0px"
   viewBox="0 0 666.66669 421.66266"
   xml:space="preserve"
   sodipodi:docname="Rhythm World The Best Plus (리듬 세상 더・베스트 플러스) Logo.svg"
   width="666.66669"
   height="421.66266"
   inkscape:version="1.2.2 (b0a8486541, 2022-12-01)"
   xmlns:inkscape="http://www.inkscape.org/namespaces/inkscape"
   xmlns:sodipodi="http://sodipodi.sourceforge.net/DTD/sodipodi-0.dtd"
   xmlns:xlink="http://www.w3.org/1999/xlink"
   xmlns="http://www.w3.org/2000/svg"
   xmlns:svg="http://www.w3.org/2000/svg"><defs
   id="defs42567" /><sodipodi:namedview
   id="namedview42565"
   pagecolor="#505050"
   bordercolor="#eeeeee"
   borderopacity="1"
   inkscape:showpageshadow="0"
   inkscape:pageopacity="0"
   inkscape:pagecheckerboard="0"
   inkscape:deskcolor="#505050"
   showgrid="false"
   inkscape:zoom="2.844"
   inkscape:cx="250.17581"
   inkscape:cy="158.22785"
   inkscape:window-width="2560"
   inkscape:window-height="1412"
   inkscape:window-x="0"
   inkscape:window-y="0"
   inkscape:window-maximized="1"
   inkscape:current-layer="Layer_1" />
<style
   type="text/css"
   id="style42516">
	.st0{fill:#0096E6;}
	.st1{fill:#FFFFFF;}
	.st2{fill:#FEEE04;}
	.st3{fill:url(#SVGID_1_);}
	.st4{clip-path:url(#SVGID_3_);fill:url(#SVGID_4_);}
	.st5{fill:#FF0000;}
	.st6{fill:#FFAA00;}
	.st7{fill:#FF5500;}
</style>
<g
   id="Cloud_00000089551920205542769720000006095197863447250065_"
   transform="scale(1.3333333)">
	<path
   id="Light_Blue_00000041277648651636048230000008607778450942240145_"
   class="st0"
   d="M 411.81668,0 C 390.79629,0 371.47369,7.39706 356.30524,19.71925 341.99396,9.69039 324.58389,3.7956 305.82056,3.7956 c -38.76291,0 -71.76428,25.14007 -83.5563,59.97156 -7.56203,-2.11824 -15.53004,-3.2548 -23.75916,-3.2548 -16.85197,0 -32.61292,4.75463 -46.01768,12.98829 C 136.38788,56.336 113.51853,45.59331 88.18406,45.59331 39.55929,45.59331 0,85.15223 0,133.77699 c 0,28.89828 13.9732,54.59364 35.51733,70.68663 -14.36624,11.51602 -23.59034,29.19455 -23.59034,48.99661 0,34.62103 28.16575,62.78677 62.78642,62.78677 14.17933,0 27.27166,-4.72986 37.79401,-12.68747 1.6745,0.13458 3.36199,0.22256 5.07058,0.22256 9.63,0 18.75737,-2.18506 26.9213,-6.07626 7.53731,3.20978 15.82457,4.98911 24.52034,4.98911 15.42952,0 29.56781,-5.60498 40.51134,-14.87204 6.95459,2.60187 14.38753,3.97443 22.03499,3.97443 18.04073,0 34.31723,-7.65891 45.78036,-19.88303 6.52747,2.30484 13.54053,3.57224 20.84705,3.57224 28.82977,0 53.16724,-19.53853 60.50745,-46.06494 26.63641,-4.65939 47.54517,-26.15034 51.31915,-53.07703 0.59763,0.012 1.19553,0.0228 1.79599,0.0228 48.62476,0 88.18405,-39.55853 88.18405,-88.1833 C 500,39.55967 460.44147,3.8e-4 411.81668,0 Z" />
	<path
   id="White_00000093136117711823620240000017682408938875315841_"
   class="st1"
   d="m 411.81668,8.83514 c -21.38751,0 -40.82254,8.50872 -55.10678,22.3147 -13.78598,-11.55232 -31.5386,-18.51911 -50.89008,-18.51911 -37.97824,0 -69.80479,26.82216 -77.54547,62.51721 -9.19762,-3.73637 -19.24622,-5.80045 -29.76926,-5.80045 -17.84055,0 -34.32356,5.91988 -47.59132,15.89631 -14.52731,-18.73377 -37.2427,-30.81536 -62.72971,-30.81536 -43.75328,0 -79.34892,35.59564 -79.34892,79.34854 0,30.79158 17.63056,57.54237 43.32671,70.68967 -18.51488,8.55688 -31.39972,27.29338 -31.39972,48.99358 0,29.74881 24.20247,53.95166 53.95128,53.95166 13.39651,0 25.65831,-4.91913 35.10168,-13.03134 2.53637,0.36722 5.12643,0.56641 7.76291,0.56641 9.70235,0 18.80632,-2.58731 26.68149,-7.08871 7.56259,3.91592 15.99915,6.00159 24.76015,6.00159 15.17761,0 28.90195,-6.3093 38.71474,-16.43146 7.32249,3.61224 15.42731,5.53381 23.83159,5.53381 17.65265,0 33.35187,-8.52249 43.20078,-21.66852 7.08902,3.43143 15.03693,5.35773 23.42664,5.35773 26.78241,0 49.05902,-19.62015 53.2374,-45.23978 28.08725,-1.84782 50.37738,-25.27353 50.37738,-53.82013 0,-0.2314 -0.0146,-0.4593 -0.0175,-0.69 3.28421,0.41592 6.63007,0.63106 10.0253,0.6311 43.75327,0 79.34891,-35.59563 79.34891,-79.34853 0,-43.7529 -35.59568,-79.34855 -79.34821,-79.34892 z" />
	<path
   id="Black_00000062190560780801297450000002757869863246288012_"
   d="m 411.81628,14.98151 c -21.81265,0 -41.3931,9.54395 -54.80405,24.67959 -13.19986,-12.91743 -31.26416,-20.88404 -51.19196,-20.88404 -37.7793,-5e-5 -68.87061,28.62013 -72.78375,65.36115 -10.28714,-5.51408 -22.04301,-8.64457 -34.53134,-8.64457 -18.74072,-5e-5 -35.83347,7.04585 -48.78246,18.62865 C 136.68923,73.93773 113.99794,60.5745 88.18386,60.5745 c -40.42857,0 -73.20236,32.77379 -73.20236,73.20236 0,35.69209 25.54619,65.41248 59.35043,71.8878 -26.22546,0.20613 -47.42363,21.52148 -47.42368,47.79558 0,26.40216 21.40313,47.80527 47.80528,47.80533 12.90796,0 24.6124,-5.12488 33.21368,-13.43958 3.11712,0.63904 6.34472,0.97501 9.65086,0.97501 9.83285,0 18.96992,-2.97208 26.56866,-8.06198 7.24655,4.42392 15.76137,6.97485 24.87283,6.97485 15.14873,6e-5 28.64198,-7.0542 37.40068,-18.04788 7.30595,4.52847 15.91812,7.14972 25.14565,7.14972 17.57527,3e-5 32.92555,-9.49069 41.23158,-23.62036 7.35953,4.62515 16.06171,7.30994 25.39554,7.30994 25.51318,0 46.35403,-19.98747 47.72876,-45.15736 0.64261,0.0256 1.28592,0.049 1.93481,0.049 26.4021,0 47.80527,-21.40312 47.80527,-47.80524 0,-2.78372 -0.25137,-5.50719 -0.70801,-8.16051 5.41391,1.27649 11.05869,1.95515 16.86243,1.95515 40.42856,0 73.20236,-32.77379 73.20239,-73.20236 2e-5,-40.42858 -32.77382,-73.20241 -73.20238,-73.20241 z" />
</g>
<g
   id="_xFF0B__00000054255216110128827750000012672302154573233562_"
   transform="scale(1.3333333)">
	<g
   id="_xFF0B__00000126321729885662335950000005435185427455240578_">
		<polygon
   points="379.59732,194.33124 337.54565,203.26961 333.96735,244.17001 376.01895,235.2317 372.28873,277.86862 432.54532,265.0607 436.27554,222.42377 478.32654,213.48557 481.90485,172.58511 439.85391,181.5233 443.58414,138.88638 383.32755,151.69431 "
   id="polygon42522" />
		<polygon
   class="st2"
   points="388.99359,203.16405 346.94244,212.10229 345.29501,230.93214 387.34613,221.99388 383.61591,264.63098 423.14877,256.228 426.87906,213.5909 468.93024,204.65271 470.57767,185.8228 428.52643,194.76106 432.25671,152.12396 392.72382,160.52699 "
   id="polygon42524" />
		
			<linearGradient
   id="SVGID_1_"
   gradientUnits="userSpaceOnUse"
   x1="347.24576"
   y1="230.48439"
   x2="468.56912"
   y2="186.32629"
   gradientTransform="translate(0.0289,-0.02789)">
			<stop
   offset="0.5"
   style="stop-color:#FEEE04"
   id="stop42526" />
			<stop
   offset="1"
   style="stop-color:#FFC602"
   id="stop42528" />
		</linearGradient>
		<polygon
   class="st3"
   points="390.2464,204.3418 348.19528,213.27998 346.80533,229.1671 388.85645,220.22885 385.12622,262.866 421.89594,255.05031 425.62622,212.41321 467.6774,203.47495 469.06732,187.58784 427.01611,196.52609 430.7464,153.88899 393.97668,161.70464 "
   id="polygon42531"
   style="fill:url(#SVGID_1_)" />
		<g
   id="g42546">
			<defs
   id="defs42534">
				<polygon
   id="SVGID_2_"
   points="390.2464,204.3418 348.19525,213.27997 346.80533,229.16708 388.85648,220.22887 " />
			</defs>
			<clipPath
   id="SVGID_3_">
				<use
   xlink:href="#SVGID_2_"
   style="overflow:visible"
   id="use42536" />
			</clipPath>
			
				<radialGradient
   id="SVGID_4_"
   cx="362.35849"
   cy="251.46176"
   r="33.78614"
   gradientTransform="matrix(0.86024,0,0,0.86024,40.71867,-5.84374)"
   gradientUnits="userSpaceOnUse">
				<stop
   offset="0.1"
   style="stop-color:#FFFFFF"
   id="stop42539" />
				<stop
   offset="1"
   style="stop-color:#FEEE04"
   id="stop42541" />
			</radialGradient>
			<circle
   class="st4"
   cx="353.90695"
   cy="212.35101"
   r="29.064301"
   clip-path="url(#SVGID_3_)"
   id="circle42544"
   style="fill:url(#SVGID_4_)" />
		</g>
	</g>
	<path
   id="스_00000078015374610409626770000007009331408264224169_"
   class="st5"
   d="m 415.89996,234.27832 -2.12354,4.64542 c -4.61331,0.48062 -8.81589,-2.54256 -8.81589,-2.54256 0,0 -4.7316,4.72131 -9.23526,6.78267 l -2.26389,-3.58876 c 0,0 8.75211,-4.31125 9.12512,-8.65404 l 0.16119,-1.34831 c 0.0666,-0.77563 -0.41348,-0.77461 -1.03714,-0.64206 l -0.62643,0.13316 0.21048,-2.4505 6.8876,-1.46399 -0.43439,4.52882 c -0.40275,4.68937 8.15215,4.60015 8.15215,4.60015 z m -24.70669,12.85989 -0.30133,3.50819 25.89978,-5.50513 0.30133,-3.50819 z" />
	<path
   id="러_00000066493390397933580190000012156774318227192732_"
   class="st5"
   d="m 407.61151,216.53784 c 1.41824,-0.30147 2.89859,-0.8718 3.82751,-1.41838 l -0.30325,3.53081 c -0.93124,0.49379 -2.75467,1.13652 -4.81247,1.57391 l -9.50089,2.01945 c -1.24042,0.26367 -2.15311,-0.60385 -2.03854,-1.93768 l 0.46478,-5.41113 c 0.0668,-0.77739 -0.67062,-0.62065 -1.16788,-0.51495 l -0.24625,0.0523 0.19641,-2.28673 11.16385,-2.37292 0.23477,-2.73326 -10.70065,2.27448 0.29559,-3.44139 15.34595,-3.23979 c 0.38721,-0.0817 0.67178,0.18935 0.63602,0.60576 l -0.68643,7.99174 c -0.0358,0.41679 -0.37906,0.82153 -0.76672,0.90393 l -7.79044,1.65588 -0.34918,4.06531 z m 6.66708,-18.58551 -0.22919,2.66847 0.47476,-0.10091 c 0.47263,-0.10046 0.90536,-0.19244 0.84979,0.45424 l -0.42621,4.96223 -3.26904,0.69485 -0.37222,4.3335 3.26904,-0.69485 -1.25055,14.56003 5.12576,-1.08951 2.3338,-27.17091 z" />
	<path
   id="플_2_"
   class="st5"
   d="m 420.21005,189.93231 -0.25119,2.92474 -19.23727,4.08896 c -2.12994,0.45274 -2.862,0.023 -2.7532,-1.24358 l 0.15131,-1.76151 c 0.0472,-0.54924 -0.0125,-0.67783 -0.65747,-0.54074 l -0.5611,0.11928 0.22693,-2.64191 17.81369,-3.78642 0.13867,-1.61455 -17.24796,3.66617 0.27039,-3.14764 21.5015,-4.55467 c 0.50226,-0.10635 0.88361,0.10318 0.82913,0.73744 l -0.45087,5.24896 c -0.0253,0.29448 -0.48956,1.04109 -0.99237,1.14796 l -15.24576,3.24057 -0.14148,1.64688 z m 3.99875,-13.73273 -29.17188,6.20062 -0.24832,2.89122 29.17188,-6.20062 z m -5.99298,-2.51042 0.34909,-4.06406 2.79648,-0.59441 0.20789,-2.4203 -22.11673,4.70102 -0.20789,2.4203 2.79651,-0.59442 -0.34909,4.06407 -3.45239,0.73383 -0.20789,2.42027 23.42859,-4.97986 0.20789,-2.42027 z m -12.11749,-0.3813 8.22864,-1.74902 -0.16833,1.95975 -8.22864,1.74904 z" />
</g>
<g
   id="리듬_세상_더_x30FB_베스트"
   transform="scale(1.3333333)">
	<path
   id="트"
   class="st2"
   d="m 292.82211,196.27953 3e-5,5.28064 26.7583,-5.68761 v 7.51083 l -26.75833,5.68762 v 5.4948 l 26.75833,-5.68761 v 6.86353 l -32.78232,6.96803 c -2.7045,0.57486 -5.07602,-1.61525 -5.07602,-4.98929 l 3e-5,-19.96988 c 0,-1.35306 -0.20966,-1.74164 -2.45706,-1.26395 l -0.48059,0.10216 6e-5,-4.73901 40.7959,-8.67137 v 7.41348 z m -20.71197,36.73793 v 7.10707 l 54.87253,-11.66342 3e-5,-7.10707 z" />
	<path
   id="스_1_"
   class="st2"
   d="m 257.44739,219.89453 -3.80116,8.78596 c -10.34314,0.79723 -18.59196,-6.45688 -18.59196,-6.45688 0,0 -8.3315,10.26788 -19.17851,14.92067 l -4.86131,-7.14273 c 0,0 18.08067,-8.5652 18.08069,-17.50706 v -4.67152 c 0,-1.59705 -1.03152,-1.58968 -2.34727,-1.31 l -1.17696,0.25015 v -4.46246 l 13.69035,-2.90996 v 10.02298 c -3e-5,9.65546 18.18613,10.48085 18.18613,10.48085 z m -50.37198,26.49431 -2e-5,7.22339 54.64177,-11.61438 v -7.22339 z" />
	<path
   id="베"
   class="st2"
   d="m 194.21684,208.61031 v 53.70149 l -10.18011,2.16388 8e-5,-46.26404 c 0,-1.31181 -0.79787,-1.82379 -1.85551,-1.59898 l -1.01749,0.21629 v -5.44412 z m -26.33435,13.48133 0.75215,-0.15985 c 0.99629,-0.21178 1.84781,0.0893 1.84781,1.33279 l -2e-5,4.87025 -6.99477,1.48679 2e-5,-10.60895 -12.35367,2.62587 v 5.56459 l 0.36133,-0.0768 c 0.99631,-0.21178 2.33051,-0.14413 2.33051,1.09943 l -2e-5,3.44954 -6.5106,1.38388 v -10.60895 l -12.15565,2.58379 v 5.48273 l 0.4567,-0.097 c 0.99629,-0.21176 2.45828,-0.25691 2.45828,0.98665 l -5e-5,22.02602 c 0,2.21577 1.48308,3.41798 3.62065,2.96364 l 21.79247,-4.6321 3e-5,-14.24913 6.99477,-1.4868 -5e-5,31.32866 9.33749,-1.98465 v -51.4241 l -11.93738,2.53738 v 5.60635 z m -14.05667,23.82676 -6.51059,1.38385 v -6.34987 l 6.5106,-1.38388 z" />
	<polygon
   id="_x2605_"
   class="st2"
   points="115.4901,243.03477 109.65649,245.10573 113.91052,248.23537 112.95335,254.13463 118.15736,250.33928 123.39941,251.91426 122.36154,246.43906 126.55849,241.51317 120.71311,241.92461 118.0649,237.30525 " />
	<path
   id="더_2_"
   class="st2"
   d="m 59.87902,264.19659 17.15796,-3.64703 v 7.23346 l -19.82843,4.21466 c -6.00092,1.27551 -8.23218,-0.37689 -8.23212,-5.83606 v -18.89661 c -0.0013,-1.21057 -1.35297,-1.02399 -2.34039,-0.81415 l -0.66007,0.14032 v -4.27055 l 31.06102,-6.60223 v 7.61761 l -17.15796,3.64709 v 17.21349 z m 25.52857,-35.22001 v 5.42114 l 0.38843,-0.0826 c 0.98785,-0.20996 2.34058,-0.39697 2.34058,0.81573 v 10.34479 l -11.09961,2.35931 v 8.43327 l 11.09961,-2.3593 -7e-5,25.44006 9.61487,-2.0437 v -50.95244 z" />
	<path
   id="상_1_"
   class="st6"
   d="m 422.68854,98.95052 c -6.33667,-1.49807 -17.60074,-1.55427 -28.94156,6.28396 -9.78122,6.76031 -13.22763,18.42305 -9.75403,26.34176 5.32358,12.13594 26.66559,10.1954 40.13474,0.90479 7.52643,-5.19151 11.31119,-11.42636 11.31119,-18.57444 -10e-6,-6.38117 -3.30057,-12.72202 -12.75034,-14.95607 z m -16.64087,29.88546 c -2.27127,-0.008 -6.90372,-0.0234 -6.90372,-7.20853 0,-7.44633 5.89371,-12.88467 12.30069,-12.99092 6.57639,-0.10911 7.0387,4.37899 7.0387,7.11558 0,6.70807 -5.73111,13.10656 -12.43567,13.08387 z m 44.00806,-70.3812 v 11.0547 l -12.45804,2.64804 V 92.91798 L 420.95685,96.4551 V 48.62092 c 0,-2.15408 -1.75296,-2.10327 -3.75037,-1.67871 l -2.00644,0.42648 v -6.38353 l 22.39764,-4.76077 v 24.87843 z m -61.27854,25.30488 c 0,0 -1.82742,15.74033 -21.76785,36.35965 l -10.20941,-8.38409 c 10.21753,-8.5154 21.99289,-27.78313 21.99289,-44.77954 v -0.4797 c 0,-2.04165 -1.56586,-2.01382 -3.51605,-1.5993 l -1.97107,0.41896 v -6.05027 l 21.88043,-4.65083 v 8.87663 c 0,17.35825 9.49268,19.99263 22.10535,19.90962 l -6.27399,9.94862 c -19.16577,-1.41879 -22.2403,-9.56975 -22.2403,-9.56975 z" />
	<path
   id="세_1_"
   class="st7"
   d="m 300.52643,120.56499 -6.9794,9.69386 c -13.63486,-4.42905 -17.31754,-11.38355 -17.31754,-11.38355 0,0 -5.16345,9.96304 -15.98709,20.33477 l -9.02953,-7.65668 c 0,0 15.95299,-15.56157 15.95299,-30.91435 V 88.95293 c 0,-2.13713 -1.69156,-2.06112 -3.5835,-1.65897 l -1.90042,0.40395 V 80.946 l 20.8945,-4.44126 -3e-5,21.49859 c 10e-6,20.5848 17.95002,22.56166 17.95002,22.56166 z m -2.11569,-51.53712 v 6.20899 l 1.61829,-0.34398 c 1.61105,-0.34243 3.08612,-0.65597 3.08612,1.48116 v 18.09441 l -13.6467,2.9007 v 9.73428 l 13.6467,-2.9007 v 53.62146 l 14.96863,-3.18167 V 64.84624 Z m 19.06012,-20.15974 v 6.209 l 1.61829,-0.34398 c 1.61105,-0.34243 3.05145,-0.57972 3.05145,1.55741 v 79.07246 l 16.27054,-3.4584 3e-5,-87.48749 z" />
	<path
   id="듬_1_"
   class="st6"
   d="m 231.29385,148.31613 -69.17404,14.7034 v 6.73268 l 0.85767,-0.1823 c 4.52713,-0.96228 4.70508,-0.22185 4.70508,1.99614 v 14.08994 c 0,4.53648 3.51617,7.4666 7.85365,6.54465 l 49.64925,-10.55328 c 4.33748,-0.92195 7.85365,-5.34685 7.85365,-9.88333 V 149.7705 c 0,-1.00809 -0.78139,-1.65925 -1.74526,-1.45437 z m -17.18982,26.36025 -29.18793,6.20409 V 168.0943 l 29.18793,-6.20409 z m 18.93503,-41.3413 5e-5,9.8063 -86.64769,18.41754 v -9.80632 z m -51.52612,-13.72162 v 10.06383 l 51.52617,-10.95222 v 9.80624 l -59.7149,12.69279 c -4.81938,1.0244 -8.72627,-2.23129 -8.72629,-7.27179 l -3e-5,-11.68313 c 0,-2.02141 -0.17763,-2.63071 -4.69762,-1.66995 l -0.85634,0.18202 v -6.1981 L 233.03911,98.855 v 9.80624 z" />
	<path
   id="리_2_"
   class="st7"
   d="m 98.31691,89.71853 v 6.65862 l 1.90768,-0.40549 c 1.89912,-0.40367 3.63795,-0.77327 3.63795,1.71094 v 39.32605 c -2.8057,1.64922 -6.39886,3.03543 -10.82829,3.97693 l -26.23782,5.57703 v -12.03633 l 24.3307,-5.17165 c 1.21066,-0.25734 2.19208,-1.46638 2.19208,-2.70049 v -23.83069 c 0,-1.23411 -0.98143,-2.02594 -2.19208,-1.76861 l -45.63657,9.70036 v 10.29166 l 31.12589,-6.616 v 8.09248 l -32.57257,6.92352 v 6.77039 l 0.76904,-0.16347 c 1.55306,-0.33011 3.85598,-0.81961 3.85595,1.48212 v 16.02092 c 0,3.94914 3.14056,6.483 7.01463,5.65955 l 34.26007,-7.28217 c 6.4267,-1.36604 11.09138,-3.01993 13.91897,-4.51308 v 37.70557 l 17.64534,-3.75063 v -96.5869 z" />
</g>
<path
   id="_x2122_"
   d="m 641.41935,226.42811 0.9397,-10.94051 -4.18616,0.88979 0.2019,-2.35097 11.07267,-2.35354 -0.20195,2.35098 -4.03532,0.85773 -0.93969,10.94049 z m 18.78879,-3.99365 0.95423,-11.10952 -3.4961,11.6498 -2.75309,0.58518 -1.52731,-10.58206 -0.95422,11.10953 -2.60226,0.55312 1.14234,-13.29917 4.0655,-0.86414 1.5453,10.02763 0.0301,-0.006 3.29708,-11.05691 4.01274,-0.85292 -1.14234,13.29917 z"
   style="stroke-width:1.33333" />
</svg>
