<?xml version="1.0" encoding="UTF-8" standalone="no"?>
<!-- Created with Inkscape (http://www.inkscape.org/) -->

<svg
   version="1.1"
   id="svg2"
   width="666.66669"
   height="495.31467"
   viewBox="0 0 666.66669 495.31467"
   sodipodi:docname="Rhythm Paradise Megamix Logo (Wordmark).ai"
   xmlns:inkscape="http://www.inkscape.org/namespaces/inkscape"
   xmlns:sodipodi="http://sodipodi.sourceforge.net/DTD/sodipodi-0.dtd"
   xmlns="http://www.w3.org/2000/svg"
   xmlns:svg="http://www.w3.org/2000/svg">
  <defs
     id="defs6">
    <clipPath
       clipPathUnits="userSpaceOnUse"
       id="clipPath16">
      <path
         d="M 0,371.486 H 500 V 0 H 0 Z"
         id="path14" />
    </clipPath>
  </defs>
  <sodipodi:namedview
     id="namedview4"
     pagecolor="#ffffff"
     bordercolor="#000000"
     borderopacity="0.25"
     inkscape:showpageshadow="2"
     inkscape:pageopacity="0.0"
     inkscape:pagecheckerboard="0"
     inkscape:deskcolor="#d1d1d1" />
  <g
     id="g8"
     inkscape:groupmode="layer"
     inkscape:label="Rhythm Paradise Megamix Logo (Wordmark)"
     transform="matrix(1.3333333,0,0,-1.3333333,0,495.31467)">
    <g
       id="g10">
      <g
         id="g12"
         clip-path="url(#clipPath16)">
        <g
           id="g18"
           transform="translate(437.4781,99.5091)">
          <path
             d="M 0,0 V 10.929 C -0.029,20.419 -0.016,29.723 11.067,43.364 2.949,48.735 0,56.34 0,71.175 v 7.954 L 23.946,84.67 V 67.045 c 0,-4.099 2.55,-7.09 7.314,-5.99 4.763,1.099 7.313,5.268 7.313,9.367 l 0.003,17.626 23.946,5.528 V 85.609 C 62.522,70.774 59.572,61.808 51.454,52.688 62.523,44.175 62.522,34.86 62.522,25.363 V 14.434 L 38.576,8.906 v 18.596 c 0,6.631 -2.553,9.558 -7.316,8.459 -4.764,-1.1 -7.314,-5.206 -7.314,-11.837 V 5.528 Z"
             style="fill:#000000;fill-opacity:1;fill-rule:nonzero;stroke:none"
             id="path20" />
        </g>
        <g
           id="g22"
           transform="translate(405.0636,179.2413)">
          <path
             d="M 0,0 23.975,5.535 V -73.611 L 0,-79.146 Z"
             style="fill:#000000;fill-opacity:1;fill-rule:nonzero;stroke:none"
             id="path24" />
        </g>
        <g
           id="g26"
           transform="translate(389.3964,159.5607)">
          <path
             d="m 0,0 c -5.878,5.401 -13.81,7.109 -23.099,4.965 -6.237,-1.44 -11.257,-4.048 -16.806,-8.868 -5.548,2.258 -10.538,2.555 -16.806,1.108 -9.261,-2.138 -17.221,-7.516 -23.099,-15.63 -6.182,-8.535 -8.264,-16.142 -8.264,-30.475 v -42.23 l 24.063,5.555 v 46.804 c 0,7.053 2.273,10.004 5.986,10.862 3.713,0.857 6.089,-1.021 6.089,-8.074 v -46.804 l 24.062,5.555 v 46.804 c 0,7.053 2.376,10.028 6.089,10.885 3.713,0.857 5.987,-1.044 5.987,-8.097 v -46.804 l 24.062,5.555 v 42.231 C 8.264,-12.325 6.182,-5.68 0,0"
             style="fill:#000000;fill-opacity:1;fill-rule:nonzero;stroke:none"
             id="path28" />
        </g>
        <g
           id="g30"
           transform="translate(269.6657,105.7966)">
          <path
             d="m 0,0 -7.941,2.539 -7.941,-6.206 1.489,9.661 -6.397,5.137 8.861,3.432 3.988,9.381 3.988,-7.54 8.861,0.66 -6.397,-8.091 z M 16.595,36.27 C 10.938,42.542 1.55,44.968 -7.941,42.777 -17.432,40.586 -26.806,33.818 -32.456,24.946 -37.408,17.17 -39.202,10.111 -39.202,-1.893 V -45.51 l 23.917,5.522 v 17.369 l 14.688,3.369 v -17.347 l 23.917,5.521 v 43.617 c 0,12.005 -1.781,18.247 -6.725,23.729"
             style="fill:#000000;fill-opacity:1;fill-rule:nonzero;stroke:none"
             id="path32" />
        </g>
        <g
           id="g34"
           transform="translate(223.2215,50.9868)">
          <path
             d="m 0,0 c -8.001,-3.361 -12.751,-5.032 -19.186,-6.518 -13.441,-3.103 -22.163,-1.83 -30.136,4.254 -7.942,6.06 -12.324,15.763 -12.324,27.417 0,11.155 4.036,22.746 11.272,32.009 7.891,10.102 17.926,16.309 31.568,19.459 5.985,1.382 11.009,2.067 18.806,2.303 V 54.125 c -7.33,-0.148 -11.903,-0.708 -17.521,-2.005 -13.083,-3.02 -20.5,-10.813 -20.5,-21.557 0,-9.03 5.548,-14.278 14.104,-13.487 V 40.678 L 0,46.199 Z"
             style="fill:#000000;fill-opacity:1;fill-rule:nonzero;stroke:none"
             id="path36" />
        </g>
        <g
           id="g38"
           transform="translate(128.8109,37.1591)">
          <path
             d="m 0,0 c -9.374,-2.164 -14.026,-1.854 -18.485,0.944 -4.655,2.92 -7.008,8.232 -7.008,15.475 0,8.76 3.037,14.456 11.038,20.561 -7.563,2.188 -10.279,5.721 -10.279,13.401 0,7.476 3.052,14.674 8.322,20.064 4.159,4.253 10.367,7.363 18.836,9.293 l 22.719,5.245 V 62.673 L 9.199,58.992 C 2.891,57.536 0.964,56.059 0.964,52.613 c 0,-3.446 1.927,-4.032 8.235,-2.576 l 15.944,3.681 V 36.993 L 9.199,33.312 c -6.308,-1.457 -6.95,-4.415 -6.95,-6.08 0,-1.781 0.642,-4.364 6.95,-2.908 l 15.944,3.681 v -22.2 z"
             style="fill:#000000;fill-opacity:1;fill-rule:nonzero;stroke:none"
             id="path40" />
        </g>
        <g
           id="g42"
           transform="translate(88.0738,91.1301)">
          <path
             d="m 0,0 c -5.878,5.401 -13.81,7.109 -23.099,4.965 -6.237,-1.44 -11.257,-4.048 -16.806,-8.868 -5.548,2.258 -10.538,2.555 -16.806,1.108 -9.261,-2.138 -17.221,-7.516 -23.099,-15.63 -6.182,-8.535 -8.264,-16.142 -8.264,-30.475 v -42.23 l 24.063,5.555 v 46.804 c 0,7.053 2.273,10.004 5.986,10.862 3.713,0.857 6.089,-1.021 6.089,-8.074 v -46.804 l 24.062,5.555 v 46.804 c 0,7.053 2.376,10.028 6.089,10.885 3.713,0.857 5.987,-1.044 5.987,-8.097 v -46.804 l 24.062,5.555 v 42.231 C 8.264,-12.325 6.182,-5.68 0,0"
             style="fill:#000000;fill-opacity:1;fill-rule:nonzero;stroke:none"
             id="path44" />
        </g>
        <g
           id="g46"
           transform="translate(418.5294,201.4818)">
          <path
             d="m 0,0 v 7.177 l -1.805,-7.603 -1.956,-0.461 -1.762,6.762 v -7.177 l -1.848,-0.436 v 8.592 l 2.887,0.681 1.741,-6.405 0.022,0.005 1.698,7.216 2.85,0.672 V 0.431 Z M -13.344,-3.147 V 3.922 L -16.317,3.22 v 1.519 l 7.864,1.855 V 5.075 l -2.866,-0.676 v -7.068 z"
             style="fill:#000000;fill-opacity:1;fill-rule:nonzero;stroke:none"
             id="path48" />
        </g>
        <g
           id="g50"
           transform="translate(393.4885,249.2684)">
          <path
             d="m 0,0 c 4.159,1.567 12.863,3.907 20.175,5.493 v 22.634 l -36.539,-8.436 v -60.494 l 36.481,8.422 v 10.078 C 15.32,-23.56 5.435,-25.417 1.083,-26.152 c -5.3,-0.89 -6.054,5.861 -0.193,7.795 3.366,1.103 9.536,2.573 14.352,3.927 l -0.019,7.757 C 10.832,-7.563 4.913,-8.588 0.232,-9.246 -5.571,-10.078 -6.577,-2.476 0,0"
             style="fill:#000000;fill-opacity:1;fill-rule:nonzero;stroke:none"
             id="path52" />
        </g>
        <g
           id="g54"
           transform="translate(359.5666,207.5839)">
          <path
             d="m 0,0 c -0.214,2.01 -3.691,2.465 -9.106,3.764 -9.469,2.351 -15.33,7.929 -14.731,17.728 0.637,10.577 5.992,17.954 34.333,22.767 V 22.256 C 0.269,20.977 -5.377,19.064 -7.772,17.105 c -2.554,-2.072 -2.405,-5.466 1.282,-6.698 1.601,-0.535 6.336,-2.116 9.198,-3.076 5.491,-1.83 8.178,-4.637 8.738,-9.604 1.582,-14.014 -23.782,-17.689 -34.24,-19.225 V -9.047 C -10.265,-6.522 0.483,-4.31 0,0"
             style="fill:#000000;fill-opacity:1;fill-rule:nonzero;stroke:none"
             id="path56" />
        </g>
        <g
           id="g58"
           transform="translate(315.6898,203.9085)">
          <path
             d="m 0,0 v 53.929 l 13.637,3.148 V 3.148 Z"
             style="fill:#000000;fill-opacity:1;fill-rule:nonzero;stroke:none"
             id="path60" />
        </g>
        <g
           id="g62"
           transform="translate(283.0964,194.9139)">
          <path
             d="m 0,0 c -3.753,-0.868 -5.377,0.387 -5.377,4.778 v 13.85 c 0,3.191 -0.165,5.741 2.862,6.596 C 4.062,27.081 11.413,23.56 12.109,16.403 12.921,8.085 8.294,1.915 0,0 M -14.624,46.172 V -12.65 C 13.811,-8.492 26.191,2.495 25.881,24.334 25.61,43.271 6.809,53.677 -14.624,46.172"
             style="fill:#000000;fill-opacity:1;fill-rule:nonzero;stroke:none"
             id="path64" />
        </g>
        <g
           id="g66"
           transform="translate(243.6169,185.8034)">
          <path
             d="m 0,0 -6.867,-1.585 c -1.726,-0.399 -2.708,0.676 -2.495,3.074 0.193,2.244 1.199,7.003 1.586,8.627 0.812,3.366 2.515,5.01 4.468,5.301 3.153,0.502 4.681,-1.799 5.9,-7.602 C 2.708,7.273 3.037,6.093 3.172,4.507 3.443,1.277 2.439,0.563 0,0 M 12.032,25.785 C 8.434,37.584 5.521,40.496 -1.644,38.841 c -6.317,-1.458 -9.908,-4.747 -12.921,-16.287 -2.96,-11.335 -6.21,-27.39 -8.84,-45.727 l 10.406,2.263 c 0.194,1.451 0.542,3.153 1.045,5.745 0.542,2.611 1.954,4.478 4.758,5.126 2.31,0.533 6.607,1.525 8.124,1.875 2.172,0.502 4.159,-1.218 4.856,-4.119 0.464,-1.934 1.064,-4.662 1.431,-6.499 l 13.811,3.172 C 19.343,-2.089 15.61,14.063 12.032,25.785"
             style="fill:#000000;fill-opacity:1;fill-rule:nonzero;stroke:none"
             id="path68" />
        </g>
        <g
           id="g70"
           transform="translate(192.6978,190.3736)">
          <path
             d="m 0,0 c -3.543,-0.831 -5.516,1.142 -5.516,5.36 v 4.075 c 0,2.939 0.571,5.489 3.193,6.32 C 5.288,18.166 10.59,14.885 10.59,9.733 10.59,4.919 6.904,1.622 0,0 m 25.657,17.611 c 0,18.726 -18.325,24.164 -40.737,16.157 v -58.916 l 9.552,2.205 v 13.599 c 0,2.31 1.7,1.908 3.27,0.506 1.103,-0.986 7.735,-7.41 12.368,-12.03 l 14.581,3.366 c 0,0 -12.713,12.986 -14.179,14.271 8.539,3.192 15.145,11.512 15.145,20.842"
             style="fill:#000000;fill-opacity:1;fill-rule:nonzero;stroke:none"
             id="path72" />
        </g>
        <g
           id="g74"
           transform="translate(155.1602,158.4906)">
          <path
             d="m 0,0 -6.867,-1.585 c -1.726,-0.399 -2.708,0.676 -2.495,3.074 0.193,2.244 1.199,7.003 1.586,8.627 0.812,3.366 2.515,5.01 4.468,5.301 3.153,0.502 4.681,-1.799 5.9,-7.602 C 2.708,7.273 3.037,6.093 3.172,4.507 3.443,1.277 2.439,0.563 0,0 M 12.032,25.785 C 8.434,37.584 5.521,40.496 -1.644,38.841 c -6.317,-1.458 -9.908,-4.747 -12.921,-16.287 -2.96,-11.335 -6.21,-27.39 -8.84,-45.727 l 10.406,2.263 c 0.194,1.451 0.542,3.153 1.045,5.745 0.542,2.611 1.954,4.478 4.758,5.126 2.31,0.533 6.607,1.525 8.124,1.875 2.172,0.502 4.159,-1.218 4.856,-4.119 0.464,-1.934 1.064,-4.662 1.431,-6.499 l 13.811,3.172 C 19.343,-2.089 15.61,14.063 12.032,25.785"
             style="fill:#000000;fill-opacity:1;fill-rule:nonzero;stroke:none"
             id="path76" />
        </g>
        <g
           id="g78"
           transform="translate(106.4539,169.8459)">
          <path
             d="m 0,0 c -4.294,-1.045 -6.77,0.077 -6.77,3.675 v 13.019 c 0,3.676 2.031,5.996 6.074,6.519 8.105,1.044 11.761,-3.695 11.761,-9.866 C 11.065,8.202 8.028,1.973 0,0 m -26.946,41.995 v -81.534 l 20.195,4.662 v 19.151 c 0,3.501 0.871,5.242 2.96,5.609 18.82,3.311 32.226,12.774 32.226,32.188 0,21.319 -22.903,32.788 -55.381,19.924"
             style="fill:#000000;fill-opacity:1;fill-rule:nonzero;stroke:none"
             id="path80" />
        </g>
        <g
           id="g82"
           transform="translate(368.2455,369.0611)">
          <path
             d="m 0,0 c -5.571,-18.395 -8.724,-27.39 -11.471,-34.973 -4.681,-12.902 -9.536,-7.834 -11.799,-4.236 -2.631,4.217 -6.209,12.419 -12.418,27.448 l -15.34,-3.539 v -72.207 l 12.728,2.938 c -0.096,11.51 0.097,19.324 0.716,22.361 0.561,2.728 2.205,3.114 3.869,0.406 1.373,-2.224 3.54,-7.041 7.853,-16.944 l 8.528,1.969 c 4.701,12.631 7.237,18.999 9.036,22.113 1.45,2.534 4.217,4.314 5.048,-0.367 0.639,-3.54 0.581,-13.143 0.561,-24.904 l 13.192,3.046 V 2.425 Z"
             style="fill:#000000;fill-opacity:1;fill-rule:nonzero;stroke:none"
             id="path84" />
        </g>
        <g
           id="g86"
           transform="translate(294.8572,331.3604)">
          <path
             d="m 0,0 c -0.058,-9.865 -0.039,-18.86 -0.464,-22.148 -0.987,-7.853 -14.411,-11.393 -15.069,-4.159 -0.309,3.405 -0.58,7.902 -0.58,17.941 l -10.852,-2.505 v -66.154 l 13.831,3.193 c 0,10.504 0,15.067 0.174,18.665 0.484,9.478 14.72,11.625 15.958,3.385 0.561,-3.752 0.658,-5.551 0.658,-14.024 l 11.026,2.546 V 3.389 Z"
             style="fill:#000000;fill-opacity:1;fill-rule:nonzero;stroke:none"
             id="path88" />
        </g>
        <g
           id="g90"
           transform="translate(221.4689,325.8963)">
          <path
             d="m 0,0 v -26.628 l 7.718,1.782 c 4.681,1.081 6.615,0.471 6.615,-7.815 v -34.181 l 12.67,2.903 v 31.356 c 0,13.927 1.308,17.442 8.202,19.033 l 6.306,1.456 V 9.583 Z"
             style="fill:#000000;fill-opacity:1;fill-rule:nonzero;stroke:none"
             id="path92" />
        </g>
        <g
           id="g94"
           transform="translate(216.2849,308.3096)">
          <path
             d="m 0,0 -11.838,-2.733 c 0,0 0.174,-12.186 -0.29,-21.162 -0.677,-13.134 -13.908,-15.958 -14.972,-3.462 -0.542,6.557 -0.793,19.627 -0.793,19.627 l -14.72,-3.398 v -10.658 c 0,-25.436 16.538,-28.57 25.185,-21.316 0.522,0.445 1.044,0.715 1.47,0.522 0.483,-0.213 0.464,-0.735 0.271,-1.702 -0.523,-2.534 -4.275,-7.544 -11.858,-9.575 -5.783,-1.548 -11.451,-2.524 -14.275,-2.969 v -17.651 c 12.728,1.644 27.467,5.281 34.334,15.842 3.579,5.513 5.455,11.335 6.383,19.962 C 0.348,-25.094 0,0 0,0"
             style="fill:#000000;fill-opacity:1;fill-rule:nonzero;stroke:none"
             id="path96" />
        </g>
        <g
           id="g98"
           transform="translate(151.7752,309.4065)">
          <path
             d="m 0,0 c -0.058,-9.865 -0.039,-18.86 -0.464,-22.148 -0.987,-7.853 -14.411,-11.393 -15.069,-4.159 -0.309,3.405 -0.58,7.902 -0.58,17.941 l -10.851,-2.505 v -66.154 l 13.83,3.193 c 0,10.504 0,15.067 0.174,18.665 0.484,9.478 14.72,11.625 15.958,3.385 0.561,-3.752 0.658,-5.551 0.658,-14.024 l 11.026,2.546 V 3.389 Z"
             style="fill:#000000;fill-opacity:1;fill-rule:nonzero;stroke:none"
             id="path100" />
        </g>
        <g
           id="g102"
           transform="translate(79.7409,269.6175)">
          <path
             d="m 0,0 c -5.281,-1.238 -8.221,1.702 -8.221,7.989 v 6.074 c 0,4.38 0.851,8.182 4.759,9.42 C 7.882,27.077 15.784,22.187 15.784,14.507 15.784,7.331 10.291,2.418 0,0 m 38.242,26.249 c 0,27.912 -27.313,36.017 -60.719,24.082 v -90.103 l 14.237,3.287 v 22.558 c 0,3.443 2.534,2.843 4.874,0.754 1.644,-1.47 11.529,-11.045 18.434,-17.931 l 21.734,5.018 c 0,0 -18.948,19.355 -21.134,21.27 12.728,4.758 22.574,17.159 22.574,31.065"
             style="fill:#000000;fill-opacity:1;fill-rule:nonzero;stroke:none"
             id="path104" />
        </g>
      </g>
    </g>
  </g>
</svg>
