<?xml version="1.0" encoding="UTF-8" standalone="no"?>
<!-- Generator: Adobe Illustrator 25.0.0, SVG Export Plug-In . SVG Version: 6.00 Build 0)  -->

<svg
   version="1.1"
   id="Layer_1"
   x="0px"
   y="0px"
   viewBox="0 0 666.66669 421.90424"
   xml:space="preserve"
   sodipodi:docname="Rhythm Tengoku The Best+ (リズム天国 ザ・ベスト＋) Logo.svg"
   width="666.66669"
   height="421.90424"
   inkscape:version="1.2.2 (b0a8486541, 2022-12-01)"
   xmlns:inkscape="http://www.inkscape.org/namespaces/inkscape"
   xmlns:sodipodi="http://sodipodi.sourceforge.net/DTD/sodipodi-0.dtd"
   xmlns:xlink="http://www.w3.org/1999/xlink"
   xmlns="http://www.w3.org/2000/svg"
   xmlns:svg="http://www.w3.org/2000/svg"><defs
   id="defs4118" /><sodipodi:namedview
   id="namedview4116"
   pagecolor="#505050"
   bordercolor="#eeeeee"
   borderopacity="1"
   inkscape:showpageshadow="0"
   inkscape:pageopacity="0"
   inkscape:pagecheckerboard="0"
   inkscape:deskcolor="#505050"
   showgrid="false"
   inkscape:zoom="2.844"
   inkscape:cx="250.17581"
   inkscape:cy="158.22785"
   inkscape:window-width="2560"
   inkscape:window-height="1412"
   inkscape:window-x="0"
   inkscape:window-y="0"
   inkscape:window-maximized="1"
   inkscape:current-layer="Layer_1" />
<style
   type="text/css"
   id="style4050">
	.st0{fill:#0096E6;}
	.st1{fill:#FFFFFF;}
	.st2{fill:#FFF000;}
	.st3{clip-path:url(#SVGID_1_);fill:url(#SVGID_4_);}
	.st4{clip-path:url(#SVGID_5_);fill:url(#SVGID_6_);}
	.st5{fill:#FF0000;}
	.st6{fill:#FF5500;}
	.st7{fill:#FFAA00;}
</style>
<g
   id="Cloud_1_"
   transform="matrix(1.3333334,0,0,1.3333334,0,1.8666668e-4)">
	<path
   id="Light_Blue_1_"
   class="st0"
   d="m 421.06436,-2e-5 c -27.78802,3.1e-4 -52.25003,14.44655 -66.31982,36.20994 -5.14856,-1.0597 -10.47809,-1.61762 -15.93561,-1.61762 -17.00485,0 -32.75729,5.4231 -45.6571,14.6053 -12.39978,-8.11268 -27.19855,-12.84944 -43.09055,-12.84944 -27.74063,0 -52.1671,14.39662 -66.24847,36.09799 -5.0746,-1.02802 -10.32265,-1.57208 -15.69594,-1.57208 -17.12495,0 -32.98044,5.49909 -45.93059,14.7997 C 109.75432,77.49743 94.89584,72.72173 78.93611,72.72173 35.41068,72.72173 0,108.13241 0,151.65784 c 0,19.96695 7.46668,38.21312 19.73549,52.12952 -12.09138,11.9425 -19.60073,28.51393 -19.60073,46.81102 0,36.29836 29.53128,65.82964 65.83014,65.82964 21.51937,0 40.65855,-10.38031 52.67791,-26.39532 2.3562,0.27887 4.73969,0.43738 7.14881,0.43732 9.34962,0 18.20296,-2.15955 26.09366,-5.99997 9.01428,4.64474 19.22292,7.28513 30.04263,7.28513 18.10078,0 34.51657,-7.34555 46.429,-19.20944 7.41791,2.83673 15.36293,4.33661 23.54274,4.33636 16.43716,0 31.95255,-5.98633 44.06271,-16.92249 6.41129,2.08893 13.24533,3.23254 20.34457,3.23254 34.14127,0 62.28845,-26.12772 65.51416,-59.43726 19.36996,-8.05013 34.08157,-25.09372 38.92258,-45.89079 0.10742,4.3e-4 0.21313,0.008 0.32068,0.008 43.52545,0 78.93564,-35.41068 78.93564,-78.93612 0,-43.52544 -35.41018,-78.93612 -78.93563,-78.93612 z" />
	<path
   id="White_1_"
   class="st1"
   d="m 421.06436,9.01366 c -26.89893,6.7e-4 -50.28317,15.27785 -61.97327,37.60246 -6.42303,-1.95081 -13.23029,-3.01014 -20.28217,-3.01014 -17.33701,0 -33.20804,6.35688 -45.43976,16.84359 -11.91956,-9.43409 -26.96143,-15.08772 -43.30789,-15.08772 -26.84512,0 -50.19121,15.21541 -61.90497,37.46732 -6.35223,-1.90405 -13.07576,-2.94093 -20.03944,-2.94093 -17.46126,0 -33.43491,6.44843 -45.70152,17.0696 -11.94637,-9.51558 -27.05466,-15.22243 -43.47923,-15.22243 -38.55521,0 -69.92243,31.36722 -69.92243,69.92242 0,21.00064 9.31928,39.85399 24.02438,52.68207 -14.44484,10.31183 -23.88961,27.19759 -23.88961,46.25847 0,31.32814 25.48782,56.81596 56.81646,56.81596 20.49923,0 38.49461,-10.91467 48.48833,-27.23563 3.67883,0.83459 7.47352,1.27759 11.33839,1.27759 9.57124,0 18.53078,-2.66296 26.18265,-7.28217 8.70319,5.42279 18.9659,8.56732 29.95364,8.56732 17.79616,0 33.70029,-8.23047 44.12582,-21.078 7.90572,4.04791 16.70792,6.20496 25.84592,6.20496 15.1763,0 29.44388,-5.91016 40.17484,-16.64113 0.56818,-0.56812 1.11542,-1.15137 1.65637,-1.73895 6.92459,3.01074 14.55649,4.69012 22.57608,4.69012 31.32816,0 56.81598,-25.48782 56.81598,-56.81647 0,-0.017 -10e-4,-0.0339 -10e-4,-0.0509 21.63681,-6.57153 37.84482,-25.72536 40.06717,-48.90813 2.58698,0.29144 5.21191,0.45557 7.87549,0.45557 38.55573,0 69.92197,-31.36722 69.92197,-69.92243 0,-38.55521 -31.36625,-69.92242 -69.92198,-69.92242 z" />
	<path
   id="Black_1_"
   d="m 421.06454,14.84155 c -26.48016,6e-5 -49.2059,16.06038 -58.97806,38.96989 -7.21786,-2.8158 -15.06296,-4.37793 -23.2775,-4.37793 -17.68576,0 -33.69778,7.16383 -45.29456,18.74709 -11.4231,-10.5431 -26.6825,-16.99123 -43.45316,-16.99123 -26.41782,6e-5 -49.09563,15.98641 -58.9057,38.80973 -7.15192,-2.7569 -14.91493,-4.28382 -23.03871,-4.28382 -17.81721,0 -33.93149,7.27491 -45.54814,19.01034 -11.4427,-10.64308 -26.7728,-17.16244 -43.63261,-17.16244 -35.39853,0 -64.09467,28.6962 -64.09467,64.09473 0,22.20517 11.29475,41.76897 28.44949,53.27063 -16.77919,8.34698 -28.31466,25.65688 -28.31466,45.6696 6e-5,28.16029 22.82851,50.98863 50.98882,50.98863 19.98855,-6e-5 37.28013,-11.50812 45.6386,-28.25443 4.46192,1.48224 9.22858,2.29657 14.18813,2.29657 9.78151,0 18.82637,-3.13153 26.20792,-8.43286 8.40643,6.10669 18.74312,9.71783 29.92831,9.71783 17.774,-6e-5 33.41623,-9.09979 42.54257,-22.88905 7.92152,5.06691 17.32796,8.01613 27.42899,8.01613 16.38644,0 30.95676,-7.7386 40.28494,-19.75089 7.18228,3.86432 15.39499,6.06073 24.12216,6.06073 28.16031,0 50.98865,-22.82845 50.98865,-50.98875 0,-1.5202 -0.0793,-3.02124 -0.20959,-4.50763 23.14972,-4.81995 40.54379,-25.33389 40.54379,-49.91386 0,-0.44916 -0.0223,-0.89282 -0.0339,-1.33917 4.34418,0.92938 8.84741,1.4295 13.46906,1.4295 35.3985,-6e-5 64.09464,-28.69626 64.09457,-64.0948 -7e-5,-35.39847 -28.69627,-64.09461 -64.09477,-64.09454 z" />
</g>
<g
   id="_xFF0B__1_"
   transform="matrix(1.3333334,0,0,1.3333334,0,1.8666668e-4)">
	<g
   id="_xFF0B__2_">
		<polygon
   points="391.38403,162.74341 347.5845,172.05301 343.97614,213.29546 387.77567,203.98549 383.92535,247.99527 446.14175,234.77055 449.99203,190.76077 493.79193,181.45116 497.39957,140.20909 453.60043,149.51906 457.45071,105.50928 395.23434,118.73361 "
   id="polygon4056" />
		<polygon
   class="st2"
   points="401.13553,171.37083 357.33597,180.68073 355.6355,200.11674 399.43503,190.80685 395.58472,234.81654 436.39026,226.14305 440.24063,182.13336 484.04019,172.82353 485.74066,153.38745 441.94101,162.69734 445.79138,118.68766 404.98584,127.36121 "
   id="polygon4058" />
		<polyline
   class="st2"
   points="443.64218,121.11688 439.79184,165.12657 483.59143,155.81667 482.24265,171.23323     438.44308,180.54303 434.59271,224.55273 397.73392,232.38731 401.5842,188.37764 357.78473,197.68753 359.13351,182.27104     402.93307,172.96117 406.78339,128.95152 443.64218,121.11688   "
   id="polyline4060" />
		<g
   id="g4077">
			<defs
   id="defs4063">
				<polygon
   id="SVGID_3_"
   points="397.73392,232.38731 434.59256,224.55272 438.44302,180.54301 482.24258,171.23332 483.59143,155.81677 439.79181,165.12657 443.64224,121.11688 406.78339,128.95152 " />
			</defs>
			<clipPath
   id="SVGID_1_">
				<use
   xlink:href="#SVGID_3_"
   style="overflow:visible"
   id="use4065" />
			</clipPath>
			
				<linearGradient
   id="SVGID_4_"
   gradientUnits="userSpaceOnUse"
   x1="391.42465"
   y1="204.0168"
   x2="467.43137"
   y2="179.71745"
   gradientTransform="matrix(1,0,0,0.9563,15.04796,-7.89716)">
				<stop
   offset="0.2"
   style="stop-color:#FFF000"
   id="stop4068" />
				<stop
   offset="0.6"
   style="stop-color:#FFE500"
   id="stop4070" />
				<stop
   offset="0.95"
   style="stop-color:#FFCD00"
   id="stop4072" />
			</linearGradient>
			<rect
   x="397.73392"
   y="121.11688"
   class="st3"
   width="85.857513"
   height="111.27043"
   clip-path="url(#SVGID_1_)"
   id="rect4075"
   style="fill:url(#SVGID_4_)" />
		</g>
		<g
   id="g4092">
			<defs
   id="defs4080">
				<polygon
   id="SVGID_2_"
   points="402.93307,172.96117 359.13351,182.27104 357.78473,197.68753 401.5842,188.37764 " />
			</defs>
			<clipPath
   id="SVGID_5_">
				<use
   xlink:href="#SVGID_2_"
   style="overflow:visible"
   id="use4082" />
			</clipPath>
			
				<radialGradient
   id="SVGID_6_"
   cx="302.81787"
   cy="148.7106"
   r="27.40387"
   gradientTransform="matrix(0.80963,0,0,0.80963,118.62667,59.02123)"
   gradientUnits="userSpaceOnUse">
				<stop
   offset="0.1"
   style="stop-color:#FFFFFF"
   id="stop4085" />
				<stop
   offset="1"
   style="stop-color:#FFF000"
   id="stop4087" />
			</radialGradient>
			<circle
   class="st4"
   cx="364.91937"
   cy="180.85356"
   r="22.18688"
   clip-path="url(#SVGID_5_)"
   id="circle4090"
   style="fill:url(#SVGID_6_)" />
		</g>
	</g>
	<path
   id="ス_1_"
   class="st5"
   d="m 405.58099,201.36507 15.13144,-3.21629 c -0.80313,5.27029 -3.30286,12.19406 -11.77362,13.99457 l -4.38229,0.93149 -0.34711,3.96767 4.47943,-0.95244 c 5.798,-1.2321 8.67029,-2.66237 12.36273,-6.50951 0.82233,0.50111 1.86771,1.64017 2.36453,3.37943 l 6.81906,-1.44945 c -0.83279,-1.24727 -4.58945,-4.03938 -6.86389,-4.55696 2.8811,-3.82564 3.46225,-6.34531 4.06528,-9.1239 0.2139,-1.00577 0.73779,-1.48787 1.29318,-1.60593 l 1.03232,-0.21942 0.33188,-3.79329 -24.16138,5.13565 z" />
	<path
   id="ラ_2_"
   class="st5"
   d="m 430.70804,170.6275 -21.78119,4.62975 0.2955,-3.37715 21.78113,-4.62968 z m 0.76727,1.76135 -23.80188,5.05925 -0.34042,3.89127 17.42316,-3.70329 c -0.48196,5.50876 -5.11691,8.47031 -11.66522,9.86215 l -6.41605,1.36375 -0.34396,3.93227 8.93143,-1.89842 c 6.01877,-1.27933 14.9845,-4.46553 15.8725,-14.6156 z" />
	<path
   id="プ_2_"
   class="st5"
   d="m 439.8269,139.76263 c -0.44757,-2.10582 -2.51758,-3.4501 -4.62338,-3.00247 -2.10583,0.44759 -3.45004,2.51758 -3.00247,4.6234 0.13318,0.62653 0.42249,1.17371 0.80112,1.63828 l -22.64053,4.81242 -0.35159,4.01836 15.22931,-3.23714 c -0.8074,5.27116 -3.24329,12.18124 -11.81778,14.00385 l -4.43591,0.94289 -0.34717,3.96762 4.5343,-0.96414 c 13.10327,-2.7852 16.8284,-10.30219 18.55902,-18.22011 0.21967,-1.00519 0.74533,-1.48947 1.30753,-1.60898 l 1.04495,-0.22209 0.21518,-2.45929 c 0.75787,0.37393 1.63422,0.52011 2.52496,0.3308 2.10583,-0.44764 3.4501,-2.51759 3.00246,-4.6234 z m -3.53225,2.13085 c -0.72928,0.15501 -1.44604,-0.31047 -1.60107,-1.03975 -0.155,-0.72923 0.31049,-1.44606 1.03976,-1.60103 0.72925,-0.15501 1.44608,0.31049 1.60107,1.03972 0.15497,0.72928 -0.31051,1.44606 -1.03976,1.60106 z" />
</g>
<g
   id="リズム天国_ザ_x30FB_ベスト_1_"
   transform="matrix(1.3333334,0,0,1.3333334,0,1.8666668e-4)">
	<path
   id="ト_1_"
   class="st2"
   d="m 345.99579,212.7037 1.27838,-14.61194 c -10.89978,-8.69696 -26.01459,-5.34625 -26.01459,-5.34625 l 0.88318,-10.09393 c 0.14539,-1.66211 1.65417,-3.30902 3.37659,-3.67511 l 1.32971,-0.28265 0.5932,-6.78076 -24.41876,5.19025 -0.5932,6.78094 2.36206,-0.50208 c 1.15485,-0.24548 2.00146,0.46185 1.90491,1.56494 l -2.73663,31.27893 c -0.14539,1.66217 -1.65424,3.3089 -3.37659,3.67505 l -1.32959,0.28259 -0.59338,6.78094 24.41876,-5.19043 0.59326,-6.78088 -2.36206,0.50208 c -1.15491,0.24548 -2.0014,-0.46179 -1.90491,-1.56482 l 1.11993,-12.80072 c 0,0 11.23004,-3.11004 25.46973,11.57385 z" />
	<path
   id="ス_2_"
   class="st2"
   d="m 272.74768,219.26471 c 6.39114,-8.40865 7.67612,-13.93912 9.00909,-20.03767 0.47275,-2.20749 1.63538,-3.26805 2.8689,-3.53027 l 2.29276,-0.48734 0.72821,-8.3228 -53.66202,11.4063 -0.77136,8.81667 33.60672,-7.1434 c -1.77155,11.56552 -7.30807,26.7679 -26.12143,30.76683 l -9.73299,2.06883 -0.76161,8.70538 9.94878,-2.11539 c 12.87726,-2.73645 19.25453,-5.89064 27.4481,-14.35115 1.82797,1.09448 4.15298,3.58694 5.26086,7.39925 l 15.14505,-3.21918 c -1.85308,-2.73116 -10.20513,-8.83397 -15.25906,-9.95606 z" />
	<path
   id="ベ_1_"
   class="st2"
   d="m 220.46121,236.07578 -0.77608,8.87042 -12.93175,2.74875 c -1.7536,0.37273 -3.57773,-0.15033 -4.86731,-1.39568 l -28.76289,-27.77602 -3.63443,30.43062 -19.69894,4.18716 0.57765,-6.60284 2.01927,-0.42921 c 1.20914,-0.25372 2.19995,-1.19626 2.3942,-2.80112 l 3.52867,-29.16032 19.73956,-4.19576 c 3.75768,-0.79874 7.66655,0.32214 10.42996,2.99071 l 23.64394,22.83273 c 1.29918,1.25456 2.61252,1.51759 3.72409,1.28127 z M 209.7038,212.81822 c 2.47762,-0.51605 4.07544,-2.90349 3.55943,-5.38101 -0.51601,-2.47763 -2.90349,-4.07549 -5.38101,-3.55943 -2.47758,0.51596 -4.03957,2.90372 -3.55943,5.38101 0.516,2.47757 2.90376,4.03955 5.38101,3.55943 z m -10.84816,2.18204 c 2.47719,-0.48012 4.07529,-2.90329 3.55933,-5.38086 -0.51596,-2.47748 -2.9034,-4.0753 -5.38087,-3.5593 -2.47747,0.516 -4.03951,2.90367 -3.55933,5.38087 0.51595,2.47753 2.90371,4.03951 5.38087,3.55929 z" />
	<polygon
   id="_x2605_"
   class="st2"
   points="124.1919,234.01004 116.4474,236.80449 122.05908,241.03328 120.77756,248.98795 127.66721,243.8844 134.58757,246.0453 133.2484,238.63269 138.82808,231.94905 131.08459,232.50024 127.61133,226.24678 " />
	<path
   id="ザ_1_"
   class="st2"
   d="m 89.83845,236.86342 8.83811,-1.8786 -0.55628,6.3582 -8.83811,1.8786 -1.39575,15.95358 c -0.70284,8.0336 -5.52287,13.81268 -12.41346,15.25403 l -34.04768,7.23715 0.70601,-8.07013 24.34779,-5.17529 c 4.67772,-1.00055 7.15849,-4.79822 7.63298,-10.22192 l 1.04778,-11.97566 -16.01324,3.40373 -1.02651,11.73334 -15.33416,3.25937 0.5238,-5.98657 1.58309,-0.33652 c 1.70327,-0.36194 2.41129,-1.56372 2.55774,-3.23639 l 0.26272,-3.00298 -10.57124,2.24699 0.55628,-6.3582 10.57124,-2.24699 0.25986,-2.97002 c 0.09848,-1.12663 -0.71698,-1.80107 -2.55859,-1.40958 l -1.16808,0.24797 0.52477,-5.99821 19.23494,-4.08855 -0.52477,5.99852 -1.57956,0.33574 c -1.70784,0.36302 -2.4152,1.56822 -2.5603,3.22517 l -0.19495,2.22876 16.01318,-3.40373 0.26009,-2.97232 c 0.09861,-1.12712 -0.72179,-1.79779 -2.56071,-1.40691 l -1.22128,0.25955 0.52471,-5.99846 21.89091,-4.65305 -0.52483,5.99852 -1.49753,0.3183 c -1.72667,0.367 -2.40477,1.51813 -2.55323,3.21506 z m 26.42828,-11.84908 c -0.47303,-2.27142 -2.66183,-3.73628 -4.9332,-3.2632 -2.27137,0.47304 -3.70338,2.66208 -3.2632,4.9332 0.47309,2.27136 2.66213,3.70338 4.9332,3.2632 2.27143,-0.47308 3.73629,-2.66182 3.2632,-4.9332 z m -14.8785,-1.26246 c -2.27131,0.47302 -3.70332,2.662 -3.26314,4.93307 0.47303,2.2713 2.66207,3.70332 4.93307,3.26308 2.27106,-0.44019 3.73617,-2.66171 3.26314,-4.93307 -0.47303,-2.27131 -2.66176,-3.73618 -4.93307,-3.26308 z" />
	<path
   id="国_1_"
   class="st6"
   d="m 429.68289,80.36958 4.28192,-0.9101 -0.51486,5.88486 -4.28189,0.9101 z m 3.48358,8.2151 -4.16577,0.88555 c -2.43329,0.51715 -3.54504,-0.32811 -3.41098,-1.86001 l 0.85144,-9.73158 7.80719,-1.6597 0.45312,-5.17921 -7.80722,1.65945 0.69351,-7.92678 c 0.22018,-2.51562 1.448,-3.87061 3.44693,-4.29562 l 4.67792,-0.99421 0.42215,-4.82526 -26.79486,5.69545 -0.42215,4.82515 4.21811,-0.89658 c 2.94836,-0.62666 3.45035,0.82375 3.35962,1.86044 l -0.78159,8.93391 -7.80728,1.65952 -0.45316,5.17934 7.80734,-1.65945 -0.76337,8.72452 c -0.21719,2.48205 -1.46347,3.88445 -3.39551,4.29519 l -4.73032,1.00536 -0.41934,4.79333 26.79486,-5.69545 z m 26.21582,-49.7336 -5.38135,61.5093 -71.35272,15.1665 5.38138,-61.50929 z m -15.9075,11.24234 -37.71054,8.01564 c -2.0271,0.42452 -3.35556,2.05235 -3.55347,4.31774 l -3.66394,41.87903 37.7106,-8.0157 c 1.87463,-0.38783 3.34119,-1.89219 3.55341,-4.31774 z" />
	<path
   id="く_1_"
   class="st6"
   d="m 434.73535,35.70258 c -0.36554,-0.13328 -0.93326,-0.34219 -0.93301,-0.67183 3.1e-4,-0.27704 0.25314,-0.54171 0.87085,-1.161 2.46176,-2.48741 2.73923,-2.77079 4.51971,-4.78431 l -1.34891,-0.70211 c -0.88412,1.11128 -1.22437,1.48638 -3.77469,4.23041 -1.31268,1.41325 -1.94489,2.20677 -1.94543,2.8527 -6.7e-4,0.84399 0.9079,1.20488 1.92947,1.60716 1.90347,0.74258 3.71851,1.63599 5.42038,2.72466 l 1.24997,-1.36023 c -1.14654,-0.78482 -4.1351,-2.07454 -5.98834,-2.73545 z" />
	<path
   id="ご_1_"
   class="st6"
   d="m 409.76956,37.22485 c 0.66583,0.7023 1.10007,1.49356 1.21561,1.70991 l -0.89749,0.75275 c -0.57584,-1.04186 -0.98532,-1.49064 -1.18954,-1.7285 z m 1.89481,1.32463 0.89645,-0.75306 c -0.26865,-0.51855 -0.69052,-1.12493 -1.20209,-1.63209 l -0.89749,0.73965 c 0.49906,0.54964 0.75531,0.89689 1.20313,1.6455 z m -3.69315,5.56486 c -1.9223,0.40862 -4.38181,0.90414 -4.3804,-0.83667 3.1e-4,-0.28125 0.0532,-1.26985 1.12952,-2.58284 l -1.03717,-0.58297 c -0.93552,1.29666 -1.50046,2.26052 -1.50143,3.49204 -9.2e-4,1.05825 0.67731,1.9318 1.56146,2.18532 1.08841,0.3175 2.17734,0.20659 4.70038,-0.32976 1.98599,-0.42215 2.88208,-0.73307 3.3306,-0.89536 l -0.0499,-1.489 c -1.24238,0.45163 -2.49827,0.7725 -3.75306,1.03924 z m -2.05746,-6.52506 0.92236,0.75465 c 1.48605,-1.26656 2.62659,-2.07154 4.24142,-2.70912 l 10e-4,-1.3122 c -0.81985,0.17423 -4.86792,1.04778 -5.7774,1.24109 -0.64044,0.13608 -2.22897,0.47376 -2.61386,0.5425 l -10e-4,1.51289 c 0.81985,-0.22768 1.92233,-0.48875 4.56131,-1.09001 -0.83374,0.60563 -0.92353,0.6787 -1.33371,1.0602 z" />
	<path
   id="天_2_"
   class="st7"
   d="m 344.68878,118.7453 0.60239,-6.88549 26.60681,-5.6555 0.94342,-10.78381 -26.60678,5.6555 0.84476,-9.65597 26.60681,-5.65551 0.9411,-10.75729 -71.86591,15.27577 -0.94104,10.75723 26.17328,-5.56337 -0.84476,9.65598 -26.17331,5.56337 -0.94341,10.78379 26.17328,-5.56336 -0.34885,3.98752 c -1.11722,12.76994 -8.44644,17.33408 -19.17114,19.62109 l -8.38803,1.78296 -0.9455,10.80763 18.26782,-3.883 c 14.03033,-2.97578 19.27161,-7.39729 25.81848,-19.85078 2.86832,1.44124 10.47568,7.46968 13.42133,11.51006 l 18.89346,-4.01604 c -4.9743,-6.55671 -23.90649,-15.64364 -29.06421,-17.13078 z" />
	<path
   id="ん_1_"
   class="st7"
   d="m 355.9278,69.84587 c -0.27216,2.97982 -0.93436,4.23681 -1.95166,4.45309 -1.08032,0.22957 -1.07819,-0.98007 -1.07751,-1.36528 l 10e-4,-0.57133 c 0.002,-0.95703 -0.0454,-3.00584 -2.09122,-2.57102 -0.86411,0.18374 -1.36047,0.66129 -1.64026,0.93327 0.21756,-0.7633 1.39203,-4.48003 1.64804,-5.33157 l -1.60034,0.03461 c -0.5632,2.00597 -2.35284,8.4039 -3.34979,11.75083 l 1.46036,0.12761 c 0.0897,-0.37759 0.72958,-3.05106 0.75555,-3.12254 0.26834,-0.80114 0.99567,-2.57596 2.43195,-2.88134 0.95316,-0.20251 0.95163,0.66092 0.9501,1.51137 l -7.9e-4,0.4517 c -5.5e-4,0.2927 0.0363,1.08147 0.21243,1.53561 0.27899,0.7243 1.09122,1.21635 2.13333,0.99482 2.33768,-0.49692 3.10391,-2.61258 3.45303,-5.82178 z" />
	<path
   id="て_1_"
   class="st7"
   d="m 323.2095,73.22486 c 0.58261,-0.42117 1.33871,-0.89286 2.45334,-1.1298 0.53265,-0.11324 0.81802,-0.14809 1.07825,-0.17759 l -0.0226,-1.45804 c -1.27618,0.32294 -6.96286,1.76464 -8.02817,2.04278 -0.85449,0.22067 -1.78464,0.47005 -2.63898,0.65159 l 0.0468,1.46615 c 1.9209,-0.57652 3.84082,-1.14011 5.77377,-1.66743 -2.76608,2.34913 -3.42535,4.50934 -3.42773,5.84306 -0.002,1.205 0.72598,2.28008 1.8396,2.63909 1.12668,0.36937 2.45157,0.41142 5.11563,-0.14217 l 0.2005,-1.58352 c -3.56815,0.87489 -5.73468,0.63641 -5.73117,-1.33274 0.003,-1.74813 1.57993,-3.85776 3.34079,-5.15138 z" />
	<path
   id="ム_1_"
   class="st6"
   d="m 286.75067,125.61591 -2.84076,0.60386 c -1.8595,0.40031 -3.80542,-0.3127 -5.00299,-2.46522 l -5.49628,-9.87892 -18.83467,4.00343 7.22789,13.03953 -23.23083,4.93791 17.61234,-43.59222 c 0.76971,-1.90504 1.94165,-3.03876 3.44022,-3.3682 l 4.72668,-1.00467 0.65179,-7.44973 -23.19998,4.93131 -20.91234,51.76016 c -0.80995,2.00473 -2.1183,2.93199 -3.44916,3.21475 l -2.8763,0.61139 -0.94214,10.76909 78.36743,-16.65764 z" />
	<path
   id="ズ_2_"
   class="st7"
   d="m 181.37682,116.52694 c -0.53886,-2.63562 1.10754,-5.28954 3.7935,-5.82415 2.63562,-0.53887 5.23483,1.15369 5.82416,3.79356 0.53893,2.63562 -1.10324,5.23908 -3.79356,5.82409 -2.63551,0.53887 -5.23478,-1.15368 -5.8241,-3.7935 z m -2.56354,44.72819 c 7.94284,-10.45013 9.53978,-17.32332 11.19637,-24.9025 0.58754,-2.74344 2.03244,-4.06149 3.56544,-4.38739 l 2.84938,-0.60564 0.905,-10.34344 -66.69031,14.17557 -0.95865,10.95721 41.76593,-8.8777 c -2.20168,14.37344 -9.08237,33.26672 -32.46333,38.23653 l -12.09599,2.57112 -0.94652,10.81891 12.36418,-2.62897 c 16.00365,-3.40082 23.92924,-7.3208 34.11208,-17.83539 2.27177,1.3602 5.16129,4.45781 6.53812,9.19566 l 18.82207,-4.00075 c -2.30304,-3.39422 -12.68281,-10.97871 -18.96377,-12.37322 z m 23.97224,-49.26516 c -0.53461,-2.68601 -3.18428,-4.38282 -5.8241,-3.7935 -2.69032,0.58508 -4.33243,3.18848 -3.79356,5.8241 0.58507,2.69027 3.1886,4.33244 5.8241,3.7935 2.69026,-0.58501 4.38289,-3.18422 3.79356,-5.8241 z" />
	<path
   id="リ_1_"
   class="st6"
   d="m 69.07587,160.10663 -25.84964,5.49452 0.69846,-7.98315 2.12749,-0.45219 c 2.28904,-0.48656 3.23961,-2.09055 3.43481,-4.32097 l 1.43872,-16.44391 c 0.13139,-1.50247 -0.96526,-2.39984 -3.44024,-1.87372 l -1.56974,0.33316 0.6998,-7.9987 25.84964,-5.49453 -0.69986,7.99919 -2.12267,0.4512 c -2.29508,0.48779 -3.24486,2.09628 -3.43822,4.30586 l -1.4386,16.44403 c -0.13231,1.51186 0.97586,2.41325 3.44353,1.88866 l 1.56499,-0.33255 z m 19.61065,-42.18746 -0.69979,7.99918 1.64129,-0.34883 c 2.47126,-0.52532 3.57455,0.36694 3.4431,1.87 L 90.5853,155.8519 c -0.6327,7.23265 -3.96355,12.30168 -10.24989,13.64638 l -32.72085,6.95494 -0.94149,10.76163 45.75646,-9.72598 c 9.2602,-1.93716 15.7334,-9.65346 16.67062,-20.36638 l 2.86415,-32.73713 c 0.19794,-2.26295 1.10835,-3.79918 3.42884,-4.29239 l 2.01255,-0.42781 0.69979,-7.99912 z" />
</g>
<path
   id="_x2122__1_"
   d="m 662.76107,171.73653 -0.92818,9.66036 -2.10022,0.45578 0.77535,-8.07003 -2.8512,8.52124 -2.24752,0.48817 -1.25012,-7.63049 -0.77535,8.07009 -2.12488,0.46163 0.92831,-9.66159 3.31963,-0.72001 1.26489,7.22724 0.0245,-0.005 2.68811,-8.08708 z m -21.02287,6.24176 3.4179,-0.74194 -0.76359,7.94781 2.32727,-0.50549 0.76355,-7.94774 3.29529,-0.71545 0.16403,-1.70784 -9.04037,1.96289 z"
   style="stroke-width:1.33333" />
</svg>
