<?xml version="1.0" encoding="UTF-8" standalone="no"?>
<!-- Generator: Adobe Illustrator 25.0.0, SVG Export Plug-In . SVG Version: 6.00 Build 0)  -->

<svg
   version="1.1"
   id="Layer_1"
   x="0px"
   y="0px"
   viewBox="0 0 500 316.42804"
   style="enable-background:new 0 0 500 316.42804;"
   xml:space="preserve"
   sodipodi:docname="Rhythm Tengoku The Best+ (リズム天国 ザ・ベスト＋) Logo (Flat).ai"
   xmlns:inkscape="http://www.inkscape.org/namespaces/inkscape"
   xmlns:sodipodi="http://sodipodi.sourceforge.net/DTD/sodipodi-0.dtd"
   xmlns="http://www.w3.org/2000/svg"
   xmlns:svg="http://www.w3.org/2000/svg"><defs
   id="defs2" /><sodipodi:namedview
   id="namedview2"
   pagecolor="#ffffff"
   bordercolor="#000000"
   borderopacity="0.25"
   inkscape:showpageshadow="2"
   inkscape:pageopacity="0.0"
   inkscape:pagecheckerboard="0"
   inkscape:deskcolor="#d1d1d1" />
<style
   type="text/css"
   id="style1">
	.st0{fill:#0096E6;}
	.st1{fill:#FFFFFF;}
	.st2{fill:#FFF000;}
	.st3{fill:#FF0000;}
	.st4{fill:#FF5500;}
	.st5{fill:#FFAA00;}
</style>
<g
   id="Cloud_1_">
	<path
   id="Light_Blue_1_"
   class="st0"
   d="M421.06436-0.00002c-27.78802,0.00031-52.25003,14.44655-66.31982,36.20994   c-5.14856-1.0597-10.47809-1.61762-15.93561-1.61762c-17.00485,0-32.75729,5.4231-45.6571,14.6053   c-12.39978-8.11268-27.19855-12.84944-43.09055-12.84944c-27.74063,0-52.1671,14.39662-66.24847,36.09799   c-5.0746-1.02802-10.32265-1.57208-15.69594-1.57208c-17.12495,0-32.98044,5.49909-45.93059,14.7997   c-12.43196-8.17634-27.29044-12.95204-43.25017-12.95204C35.41068,72.72173,0,108.13241,0,151.65784   c0,19.96695,7.46668,38.21312,19.73549,52.12952c-12.09138,11.9425-19.60073,28.51393-19.60073,46.81102   c0,36.29836,29.53128,65.82964,65.83014,65.82964c21.51937,0,40.65855-10.38031,52.67791-26.39532   c2.3562,0.27887,4.73969,0.43738,7.14881,0.43732c9.34962,0,18.20296-2.15955,26.09366-5.99997   c9.01428,4.64474,19.22292,7.28513,30.04263,7.28513c18.10078,0,34.51657-7.34555,46.429-19.20944   c7.41791,2.83673,15.36293,4.33661,23.54274,4.33636c16.43716,0,31.95255-5.98633,44.06271-16.92249   c6.41129,2.08893,13.24533,3.23254,20.34457,3.23254c34.14127,0,62.28845-26.12772,65.51416-59.43726   c19.36996-8.05013,34.08157-25.09372,38.92258-45.89079c0.10742,0.00043,0.21313,0.00812,0.32068,0.00812   c43.52545,0,78.93564-35.41068,78.93564-78.93612S464.58981-0.00002,421.06436-0.00002z" />
	<path
   id="White_1_"
   class="st1"
   d="M421.06436,9.01366c-26.89893,0.00067-50.28317,15.27785-61.97327,37.60246   c-6.42303-1.95081-13.23029-3.01014-20.28217-3.01014c-17.33701,0-33.20804,6.35688-45.43976,16.84359   c-11.91956-9.43409-26.96143-15.08772-43.30789-15.08772c-26.84512,0-50.19121,15.21541-61.90497,37.46732   c-6.35223-1.90405-13.07576-2.94093-20.03944-2.94093c-17.46126,0-33.43491,6.44843-45.70152,17.0696   c-11.94637-9.51558-27.05466-15.22243-43.47923-15.22243c-38.55521,0-69.92243,31.36722-69.92243,69.92242   c0,21.00064,9.31928,39.85399,24.02438,52.68207c-14.44484,10.31183-23.88961,27.19759-23.88961,46.25847   c0,31.32814,25.48782,56.81596,56.81646,56.81596c20.49923,0,38.49461-10.91467,48.48833-27.23563   c3.67883,0.83459,7.47352,1.27759,11.33839,1.27759c9.57124,0,18.53078-2.66296,26.18265-7.28217   c8.70319,5.42279,18.9659,8.56732,29.95364,8.56732c17.79616,0,33.70029-8.23047,44.12582-21.078   c7.90572,4.04791,16.70792,6.20496,25.84592,6.20496c15.1763,0,29.44388-5.91016,40.17484-16.64113   c0.56818-0.56812,1.11542-1.15137,1.65637-1.73895c6.92459,3.01074,14.55649,4.69012,22.57608,4.69012   c31.32816,0,56.81598-25.48782,56.81598-56.81647c0-0.01703-0.00122-0.03387-0.00122-0.0509   c21.63681-6.57153,37.84482-25.72536,40.06717-48.90813c2.58698,0.29144,5.21191,0.45557,7.87549,0.45557   c38.55573,0,69.92197-31.36722,69.92197-69.92243S459.62009,9.01366,421.06436,9.01366z" />
	<path
   id="Black_1_"
   d="M421.06454,14.84155c-26.48016,0.00006-49.2059,16.06038-58.97806,38.96989   c-7.21786-2.8158-15.06296-4.37793-23.2775-4.37793c-17.68576,0-33.69778,7.16383-45.29456,18.74709   c-11.4231-10.5431-26.6825-16.99123-43.45316-16.99123c-26.41782,0.00006-49.09563,15.98641-58.9057,38.80973   c-7.15192-2.7569-14.91493-4.28382-23.03871-4.28382c-17.81721,0-33.93149,7.27491-45.54814,19.01034   c-11.4427-10.64308-26.7728-17.16244-43.63261-17.16244c-35.39853,0-64.09467,28.6962-64.09467,64.09473   c0,22.20517,11.29475,41.76897,28.44949,53.27063c-16.77919,8.34698-28.31466,25.65688-28.31466,45.6696   c0.00006,28.16029,22.82851,50.98863,50.98882,50.98863c19.98855-0.00006,37.28013-11.50812,45.6386-28.25443   c4.46192,1.48224,9.22858,2.29657,14.18813,2.29657c9.78151,0,18.82637-3.13153,26.20792-8.43286   c8.40643,6.10669,18.74312,9.71783,29.92831,9.71783c17.774-0.00006,33.41623-9.09979,42.54257-22.88905   c7.92152,5.06691,17.32796,8.01613,27.42899,8.01613c16.38644,0,30.95676-7.7386,40.28494-19.75089   c7.18228,3.86432,15.39499,6.06073,24.12216,6.06073c28.16031,0,50.98865-22.82845,50.98865-50.98875   c0-1.5202-0.07928-3.02124-0.20959-4.50763c23.14972-4.81995,40.54379-25.33389,40.54379-49.91386   c0-0.44916-0.02234-0.89282-0.03387-1.33917c4.34418,0.92938,8.84741,1.4295,13.46906,1.4295   c35.3985-0.00006,64.09464-28.69626,64.09457-64.0948C485.15924,43.53762,456.46304,14.84148,421.06454,14.84155z" />
</g>
<g
   id="_xFF0B__1_">
	<g
   id="_xFF0B__2_">
		<polygon
   points="453.60043,149.51906 457.45071,105.50928 395.23434,118.73361 391.38403,162.74341 347.5845,172.05301     343.97614,213.29546 387.77567,203.98549 383.92535,247.99527 446.14175,234.77055 449.99203,190.76077 493.79193,181.45116     497.39957,140.20909   "
   id="polygon1" />
		<polygon
   class="st2"
   points="441.94101,162.69734 445.79138,118.68766 404.98584,127.36121 401.13553,171.37083     357.33597,180.68073 355.6355,200.11674 399.43503,190.80685 395.58472,234.81654 436.39026,226.14305 440.24063,182.13336     484.04019,172.82353 485.74066,153.38745   "
   id="polygon2" />
	</g>
	<path
   id="ス_1_"
   class="st3"
   d="M405.58099,201.36507l15.13144-3.21629c-0.80313,5.27029-3.30286,12.19406-11.77362,13.99457   l-4.38229,0.93149l-0.34711,3.96767l4.47943-0.95244c5.798-1.2321,8.67029-2.66237,12.36273-6.50951   c0.82233,0.50111,1.86771,1.64017,2.36453,3.37943l6.81906-1.44945c-0.83279-1.24727-4.58945-4.03938-6.86389-4.55696   c2.8811-3.82564,3.46225-6.34531,4.06528-9.1239c0.2139-1.00577,0.73779-1.48787,1.29318-1.60593l1.03232-0.21942l0.33188-3.79329   l-24.16138,5.13565L405.58099,201.36507z" />
	<path
   id="ラ_2_"
   class="st3"
   d="M430.70804,170.6275l-21.78119,4.62975l0.2955-3.37715l21.78113-4.62968L430.70804,170.6275z    M431.47531,172.38885l-23.80188,5.05925l-0.34042,3.89127l17.42316-3.70329c-0.48196,5.50876-5.11691,8.47031-11.66522,9.86215   l-6.41605,1.36375l-0.34396,3.93227l8.93143-1.89842c6.01877-1.27933,14.9845-4.46553,15.8725-14.6156L431.47531,172.38885z" />
	<path
   id="プ_2_"
   class="st3"
   d="M439.8269,139.76263c-0.44757-2.10582-2.51758-3.4501-4.62338-3.00247   c-2.10583,0.44759-3.45004,2.51758-3.00247,4.6234c0.13318,0.62653,0.42249,1.17371,0.80112,1.63828l-22.64053,4.81242   l-0.35159,4.01836l15.22931-3.23714c-0.8074,5.27116-3.24329,12.18124-11.81778,14.00385l-4.43591,0.94289l-0.34717,3.96762   l4.5343-0.96414c13.10327-2.7852,16.8284-10.30219,18.55902-18.22011c0.21967-1.00519,0.74533-1.48947,1.30753-1.60898   l1.04495-0.22209l0.21518-2.45929c0.75787,0.37393,1.63422,0.52011,2.52496,0.3308   C438.93027,143.93839,440.27454,141.86844,439.8269,139.76263z M436.29465,141.89348   c-0.72928,0.15501-1.44604-0.31047-1.60107-1.03975c-0.155-0.72923,0.31049-1.44606,1.03976-1.60103   c0.72925-0.15501,1.44608,0.31049,1.60107,1.03972C437.48938,141.0217,437.0239,141.73848,436.29465,141.89348z" />
</g>
<g
   id="リズム天国_ザ_x30FB_ベスト_1_">
	<path
   id="ト_1_"
   class="st2"
   d="M345.99579,212.7037l1.27838-14.61194c-10.89978-8.69696-26.01459-5.34625-26.01459-5.34625   l0.88318-10.09393c0.14539-1.66211,1.65417-3.30902,3.37659-3.67511l1.32971-0.28265l0.5932-6.78076l-24.41876,5.19025   l-0.5932,6.78094l2.36206-0.50208c1.15485-0.24548,2.00146,0.46185,1.90491,1.56494l-2.73663,31.27893   c-0.14539,1.66217-1.65424,3.3089-3.37659,3.67505l-1.32959,0.28259l-0.59338,6.78094l24.41876-5.19043l0.59326-6.78088   l-2.36206,0.50208c-1.15491,0.24548-2.0014-0.46179-1.90491-1.56482l1.11993-12.80072   C320.52606,201.12985,331.7561,198.01981,345.99579,212.7037z" />
	<path
   id="ス_2_"
   class="st2"
   d="M272.74768,219.26471c6.39114-8.40865,7.67612-13.93912,9.00909-20.03767   c0.47275-2.20749,1.63538-3.26805,2.8689-3.53027l2.29276-0.48734l0.72821-8.3228l-53.66202,11.4063l-0.77136,8.81667   l33.60672-7.1434c-1.77155,11.56552-7.30807,26.7679-26.12143,30.76683l-9.73299,2.06883l-0.76161,8.70538l9.94878-2.11539   c12.87726-2.73645,19.25453-5.89064,27.4481-14.35115c1.82797,1.09448,4.15298,3.58694,5.26086,7.39925l15.14505-3.21918   C286.15366,226.48961,277.80161,220.3868,272.74768,219.26471z" />
	<path
   id="ベ_1_"
   class="st2"
   d="M220.46121,236.07578l-0.77608,8.87042l-12.93175,2.74875   c-1.7536,0.37273-3.57773-0.15033-4.86731-1.39568l-28.76289-27.77602l-3.63443,30.43062l-19.69894,4.18716l0.57765-6.60284   l2.01927-0.42921c1.20914-0.25372,2.19995-1.19626,2.3942-2.80112l3.52867-29.16032l19.73956-4.19576   c3.75768-0.79874,7.66655,0.32214,10.42996,2.99071l23.64394,22.83273c1.29918,1.25456,2.61252,1.51759,3.72409,1.28127   L220.46121,236.07578z M209.7038,212.81822c2.47762-0.51605,4.07544-2.90349,3.55943-5.38101   c-0.51601-2.47763-2.90349-4.07549-5.38101-3.55943c-2.47758,0.51596-4.03957,2.90372-3.55943,5.38101   C204.83879,211.73636,207.22655,213.29834,209.7038,212.81822z M198.85564,215.00026   c2.47719-0.48012,4.07529-2.90329,3.55933-5.38086c-0.51596-2.47748-2.9034-4.0753-5.38087-3.5593   s-4.03951,2.90367-3.55933,5.38087C193.99072,213.9185,196.37848,215.48048,198.85564,215.00026z" />
	<polygon
   id="_x2605_"
   class="st2"
   points="138.82808,231.94905 131.08459,232.50024 127.61133,226.24678 124.1919,234.01004    116.4474,236.80449 122.05908,241.03328 120.77756,248.98795 127.66721,243.8844 134.58757,246.0453 133.2484,238.63269  " />
	<path
   id="ザ_1_"
   class="st2"
   d="M89.83845,236.86342l8.83811-1.8786l-0.55628,6.3582l-8.83811,1.8786l-1.39575,15.95358   c-0.70284,8.0336-5.52287,13.81268-12.41346,15.25403l-34.04768,7.23715l0.70601-8.07013l24.34779-5.17529   c4.67772-1.00055,7.15849-4.79822,7.63298-10.22192l1.04778-11.97566l-16.01324,3.40373l-1.02651,11.73334l-15.33416,3.25937   l0.5238-5.98657l1.58309-0.33652c1.70327-0.36194,2.41129-1.56372,2.55774-3.23639l0.26272-3.00298l-10.57124,2.24699   l0.55628-6.3582l10.57124-2.24699l0.25986-2.97002c0.09848-1.12663-0.71698-1.80107-2.55859-1.40958l-1.16808,0.24797   l0.52477-5.99821l19.23494-4.08855l-0.52477,5.99852l-1.57956,0.33574c-1.70784,0.36302-2.4152,1.56822-2.5603,3.22517   l-0.19495,2.22876l16.01318-3.40373l0.26009-2.97232c0.09861-1.12712-0.72179-1.79779-2.56071-1.40691l-1.22128,0.25955   l0.52471-5.99846l21.89091-4.65305l-0.52483,5.99852l-1.49753,0.3183c-1.72667,0.367-2.40477,1.51813-2.55323,3.21506   L89.83845,236.86342z M116.26673,225.01434c-0.47303-2.27142-2.66183-3.73628-4.9332-3.2632   c-2.27137,0.47304-3.70338,2.66208-3.2632,4.9332c0.47309,2.27136,2.66213,3.70338,4.9332,3.2632   C115.27496,229.47446,116.73982,227.28572,116.26673,225.01434z M101.38823,223.75188   c-2.27131,0.47302-3.70332,2.662-3.26314,4.93307c0.47303,2.2713,2.66207,3.70332,4.93307,3.26308   c2.27106-0.44019,3.73617-2.66171,3.26314-4.93307C105.84827,224.74365,103.65954,223.27878,101.38823,223.75188z" />
	<path
   id="国_1_"
   class="st4"
   d="M429.68289,80.36958l4.28192-0.9101l-0.51486,5.88486l-4.28189,0.9101L429.68289,80.36958z    M433.16647,88.58468l-4.16577,0.88555c-2.43329,0.51715-3.54504-0.32811-3.41098-1.86001l0.85144-9.73158l7.80719-1.6597   l0.45312-5.17921l-7.80722,1.65945l0.69351-7.92678c0.22018-2.51562,1.448-3.87061,3.44693-4.29562l4.67792-0.99421   l0.42215-4.82526l-26.79486,5.69545l-0.42215,4.82515l4.21811-0.89658c2.94836-0.62666,3.45035,0.82375,3.35962,1.86044   l-0.78159,8.93391l-7.80728,1.65952l-0.45316,5.17934l7.80734-1.65945l-0.76337,8.72452   c-0.21719,2.48205-1.46347,3.88445-3.39551,4.29519l-4.73032,1.00536l-0.41934,4.79333l26.79486-5.69545L433.16647,88.58468z    M459.38229,38.85108l-5.38135,61.5093l-71.35272,15.1665l5.38138-61.50929L459.38229,38.85108z M443.47479,50.09342   l-37.71054,8.01564c-2.0271,0.42452-3.35556,2.05235-3.55347,4.31774l-3.66394,41.87903l37.7106-8.0157   c1.87463-0.38783,3.34119-1.89219,3.55341-4.31774L443.47479,50.09342z" />
	<path
   id="く_1_"
   class="st4"
   d="M434.73535,35.70258c-0.36554-0.13328-0.93326-0.34219-0.93301-0.67183   c0.00031-0.27704,0.25314-0.54171,0.87085-1.161c2.46176-2.48741,2.73923-2.77079,4.51971-4.78431l-1.34891-0.70211   c-0.88412,1.11128-1.22437,1.48638-3.77469,4.23041c-1.31268,1.41325-1.94489,2.20677-1.94543,2.8527   c-0.00067,0.84399,0.9079,1.20488,1.92947,1.60716c1.90347,0.74258,3.71851,1.63599,5.42038,2.72466l1.24997-1.36023   C439.57715,37.65321,436.58859,36.36349,434.73535,35.70258z" />
	<path
   id="ご_1_"
   class="st4"
   d="M409.76956,37.22485c0.66583,0.7023,1.10007,1.49356,1.21561,1.70991l-0.89749,0.75275   c-0.57584-1.04186-0.98532-1.49064-1.18954-1.7285L409.76956,37.22485z M411.66437,38.54948l0.89645-0.75306   c-0.26865-0.51855-0.69052-1.12493-1.20209-1.63209l-0.89749,0.73965C410.9603,37.45362,411.21655,37.80087,411.66437,38.54948z    M407.97122,44.11434c-1.9223,0.40862-4.38181,0.90414-4.3804-0.83667c0.00031-0.28125,0.05322-1.26985,1.12952-2.58284   l-1.03717-0.58297c-0.93552,1.29666-1.50046,2.26052-1.50143,3.49204c-0.00092,1.05825,0.67731,1.9318,1.56146,2.18532   c1.08841,0.3175,2.17734,0.20659,4.70038-0.32976c1.98599-0.42215,2.88208-0.73307,3.3306-0.89536l-0.0499-1.489   C410.4819,43.52673,409.22601,43.8476,407.97122,44.11434z M405.91376,37.58928l0.92236,0.75465   c1.48605-1.26656,2.62659-2.07154,4.24142-2.70912l0.0011-1.3122c-0.81985,0.17423-4.86792,1.04778-5.7774,1.24109   c-0.64044,0.13608-2.22897,0.47376-2.61386,0.5425l-0.00122,1.51289c0.81985-0.22768,1.92233-0.48875,4.56131-1.09001   C406.41373,37.13471,406.32394,37.20778,405.91376,37.58928z" />
	<path
   id="天_2_"
   class="st5"
   d="M344.68878,118.7453l0.60239-6.88549l26.60681-5.6555l0.94342-10.78381l-26.60678,5.6555   l0.84476-9.65597l26.60681-5.65551l0.9411-10.75729L302.76138,90.283l-0.94104,10.75723l26.17328-5.56337l-0.84476,9.65598   l-26.17331,5.56337L300.03214,121.48l26.17328-5.56336l-0.34885,3.98752c-1.11722,12.76994-8.44644,17.33408-19.17114,19.62109   l-8.38803,1.78296l-0.9455,10.80763l18.26782-3.883c14.03033-2.97578,19.27161-7.39729,25.81848-19.85078   c2.86832,1.44124,10.47568,7.46968,13.42133,11.51006l18.89346-4.01604C368.77869,129.31937,349.8465,120.23244,344.68878,118.7453   z" />
	<path
   id="ん_1_"
   class="st5"
   d="M355.9278,69.84587c-0.27216,2.97982-0.93436,4.23681-1.95166,4.45309   c-1.08032,0.22957-1.07819-0.98007-1.07751-1.36528l0.00104-0.57133c0.00171-0.95703-0.04541-3.00584-2.09122-2.57102   c-0.86411,0.18374-1.36047,0.66129-1.64026,0.93327c0.21756-0.7633,1.39203-4.48003,1.64804-5.33157l-1.60034,0.03461   c-0.5632,2.00597-2.35284,8.4039-3.34979,11.75083l1.46036,0.12761c0.08969-0.37759,0.72958-3.05106,0.75555-3.12254   c0.26834-0.80114,0.99567-2.57596,2.43195-2.88134c0.95316-0.20251,0.95163,0.66092,0.9501,1.51137l-0.00079,0.4517   c-0.00055,0.2927,0.03632,1.08147,0.21243,1.53561c0.27899,0.7243,1.09122,1.21635,2.13333,0.99482   c2.33768-0.49692,3.10391-2.61258,3.45303-5.82178L355.9278,69.84587z" />
	<path
   id="て_1_"
   class="st5"
   d="M323.2095,73.22486c0.58261-0.42117,1.33871-0.89286,2.45334-1.1298   c0.53265-0.11324,0.81802-0.14809,1.07825-0.17759l-0.02261-1.45804c-1.27618,0.32294-6.96286,1.76464-8.02817,2.04278   c-0.85449,0.22067-1.78464,0.47005-2.63898,0.65159l0.04678,1.46615c1.9209-0.57652,3.84082-1.14011,5.77377-1.66743   c-2.76608,2.34913-3.42535,4.50934-3.42773,5.84306c-0.00214,1.205,0.72598,2.28008,1.8396,2.63909   c1.12668,0.36937,2.45157,0.41142,5.11563-0.14217l0.2005-1.58352c-3.56815,0.87489-5.73468,0.63641-5.73117-1.33274   C319.87177,76.62811,321.44864,74.51848,323.2095,73.22486z" />
	<path
   id="ム_1_"
   class="st4"
   d="M286.75067,125.61591l-2.84076,0.60386c-1.8595,0.40031-3.80542-0.3127-5.00299-2.46522   l-5.49628-9.87892l-18.83467,4.00343l7.22789,13.03953l-23.23083,4.93791l17.61234-43.59222   c0.76971-1.90504,1.94165-3.03876,3.44022-3.3682l4.72668-1.00467l0.65179-7.44973l-23.19998,4.93131l-20.91234,51.76016   c-0.80995,2.00473-2.1183,2.93199-3.44916,3.21475l-2.8763,0.61139l-0.94214,10.76909l78.36743-16.65764L286.75067,125.61591z" />
	<path
   id="ズ_2_"
   class="st5"
   d="M181.37682,116.52694c-0.53886-2.63562,1.10754-5.28954,3.7935-5.82415   c2.63562-0.53887,5.23483,1.15369,5.82416,3.79356c0.53893,2.63562-1.10324,5.23908-3.79356,5.82409   C184.56541,120.85931,181.96614,119.16676,181.37682,116.52694z M178.81328,161.25513   c7.94284-10.45013,9.53978-17.32332,11.19637-24.9025c0.58754-2.74344,2.03244-4.06149,3.56544-4.38739l2.84938-0.60564   l0.905-10.34344l-66.69031,14.17557l-0.95865,10.95721l41.76593-8.8777c-2.20168,14.37344-9.08237,33.26672-32.46333,38.23653   l-12.09599,2.57112l-0.94652,10.81891l12.36418-2.62897c16.00365-3.40082,23.92924-7.3208,34.11208-17.83539   c2.27177,1.3602,5.16129,4.45781,6.53812,9.19566l18.82207-4.00075C195.47401,170.23413,185.09424,162.64964,178.81328,161.25513z    M202.78552,111.98997c-0.53461-2.68601-3.18428-4.38282-5.8241-3.7935c-2.69032,0.58508-4.33243,3.18848-3.79356,5.8241   c0.58507,2.69027,3.1886,4.33244,5.8241,3.7935C201.68222,117.22906,203.37485,114.62985,202.78552,111.98997z" />
	<path
   id="リ_1_"
   class="st4"
   d="M69.07587,160.10663l-25.84964,5.49452l0.69846-7.98315l2.12749-0.45219   c2.28904-0.48656,3.23961-2.09055,3.43481-4.32097l1.43872-16.44391c0.13139-1.50247-0.96526-2.39984-3.44024-1.87372   l-1.56974,0.33316l0.6998-7.9987l25.84964-5.49453l-0.69986,7.99919l-2.12267,0.4512   c-2.29508,0.48779-3.24486,2.09628-3.43822,4.30586l-1.4386,16.44403c-0.13231,1.51186,0.97586,2.41325,3.44353,1.88866   l1.56499-0.33255L69.07587,160.10663z M88.68652,117.91917l-0.69979,7.99918l1.64129-0.34883   c2.47126-0.52532,3.57455,0.36694,3.4431,1.87l-2.48582,28.41238c-0.6327,7.23265-3.96355,12.30168-10.24989,13.64638   l-32.72085,6.95494l-0.94149,10.76163l45.75646-9.72598c9.2602-1.93716,15.7334-9.65346,16.67062-20.36638l2.86415-32.73713   c0.19794-2.26295,1.10835-3.79918,3.42884-4.29239l2.01255-0.42781l0.69979-7.99912L88.68652,117.91917z" />
</g>
<path
   id="_x2122__1_"
   d="M497.07077,128.80225l-0.69614,7.24527l-1.57516,0.34183l0.58151-6.05252l-2.1384,6.39093l-1.68564,0.36613  l-0.93759-5.72287l-0.58151,6.05257l-1.59366,0.34622l0.69623-7.24619l2.48972-0.54001l0.94867,5.42043l0.01834-0.00342  l2.01608-6.06531L497.07077,128.80225z M481.30362,133.48357l2.56342-0.55646l-0.57269,5.96086l1.74545-0.37912l0.57266-5.9608  l2.47147-0.53659l0.12302-1.28088l-6.78027,1.47217L481.30362,133.48357z" />
</svg>
