<?xml version="1.0" encoding="UTF-8" standalone="no"?>
<!-- Created with Inkscape (http://www.inkscape.org/) -->

<svg
   version="1.1"
   id="svg2"
   width="666.66669"
   height="571.08398"
   viewBox="0 0 666.66669 571.08398"
   sodipodi:docname="Rhythm Paradise Megamix Logo (Flat).svg"
   inkscape:version="1.2.2 (b0a8486541, 2022-12-01)"
   xmlns:inkscape="http://www.inkscape.org/namespaces/inkscape"
   xmlns:sodipodi="http://sodipodi.sourceforge.net/DTD/sodipodi-0.dtd"
   xmlns="http://www.w3.org/2000/svg"
   xmlns:svg="http://www.w3.org/2000/svg">
  <defs
     id="defs6">
    <clipPath
       clipPathUnits="userSpaceOnUse"
       id="clipPath16">
      <path
         d="M 0,428.313 H 500 V 0 H 0 Z"
         id="path14" />
    </clipPath>
  </defs>
  <sodipodi:namedview
     id="namedview4"
     pagecolor="#ffffff"
     bordercolor="#000000"
     borderopacity="0.25"
     inkscape:showpageshadow="2"
     inkscape:pageopacity="0.0"
     inkscape:pagecheckerboard="0"
     inkscape:deskcolor="#d1d1d1"
     showgrid="false"
     inkscape:zoom="10.172916"
     inkscape:cx="503.24804"
     inkscape:cy="251.5503"
     inkscape:window-width="2560"
     inkscape:window-height="1400"
     inkscape:window-x="0"
     inkscape:window-y="0"
     inkscape:window-maximized="1"
     inkscape:current-layer="g12" />
  <g
     id="g8"
     inkscape:groupmode="layer"
     inkscape:label="Rhythm Paradise Megamix Logo (Flat)"
     transform="matrix(1.3333333,0,0,-1.3333333,0,571.084)">
    <g
       id="g10">
      <g
         id="g12"
         clip-path="url(#clipPath16)">
        <g
           id="g18"
           transform="translate(489.222,264.4647)">
          <path
             d="m 0,0 c 0,40.209 -24.848,74.696 -59.934,88.802 -11.846,43.229 -50.983,75.047 -97.31,75.047 -37.68,0 -70.6,-21.05 -87.954,-52.164 -10.732,3.711 -22.245,5.732 -34.223,5.732 -18.96,0 -36.762,-5.053 -52.132,-13.883 -13.785,7.254 -29.469,11.368 -46.097,11.368 -54.765,0 -99.319,-44.554 -99.319,-99.319 0,-11.56 1.993,-22.663 5.64,-32.99 -11.203,-15.094 -17.855,-33.859 -17.855,-54.174 0,-43.04 29.849,-79.129 69.628,-88.056 18.044,-21.137 46.142,-34.75 77.649,-34.75 21.313,0 41.066,6.231 57.203,16.804 12.124,-5.121 25.571,-7.974 39.718,-7.974 23.756,0 45.536,8.048 62.396,21.373 7.134,-1.508 14.528,-2.308 22.105,-2.308 49.155,0 90.646,33.408 102.982,78.708 C -23.707,-73.087 0,-39.273 0,0"
             style="fill:#0096e6;fill-opacity:1;fill-rule:nonzero;stroke:none"
             id="path20" />
        </g>
        <g
           id="g22"
           transform="translate(477.7582,264.4647)">
          <path
             d="m 0,0 c 0,37.435 -24.464,69.226 -58.168,80.117 -8.52,41.221 -44.565,72.268 -87.612,72.268 -36.921,0 -68.69,-22.838 -82.362,-55.344 -12.088,5.712 -25.584,8.913 -39.815,8.913 -19.185,0 -37.036,-5.811 -51.896,-15.76 -13.46,8.389 -29.339,13.244 -46.334,13.244 -48.443,0 -87.854,-39.411 -87.854,-87.855 0,-12.431 2.601,-24.266 7.279,-34.994 -12.116,-13.901 -19.494,-32.17 -19.494,-52.17 0,-38.919 27.902,-71.313 64.413,-77.595 15.747,-20.385 41.878,-33.747 71.4,-33.747 21.32,0 40.871,6.972 56.021,18.521 12.151,-6.173 26.089,-9.691 40.9,-9.691 23.1,0 44.071,8.559 59.448,22.415 7.986,-2.179 16.385,-3.35 25.053,-3.35 45.831,0 84.202,32.537 93.238,75.723 C -23.316,-67.71 0,-36.546 0,0"
             style="fill:#ffffff;fill-opacity:1;fill-rule:nonzero;stroke:none"
             id="path24" />
        </g>
        <g
           id="g26"
           transform="translate(471.0027,264.4647)">
          <path
             d="m 0,0 c 0,35.904 -24.329,66.089 -57.319,74.831 -6.327,40.133 -40.493,70.798 -81.706,70.798 -36.744,0 -67.877,-24.379 -78.685,-58.107 -12.789,7.423 -27.643,11.676 -43.492,11.676 -19.41,0 -37.331,-6.376 -51.788,-17.147 -13.157,9.21 -29.161,14.631 -46.441,14.631 -44.79,0 -81.099,-36.309 -81.099,-81.099 0,-13.016 3.084,-25.306 8.534,-36.207 -12.816,-13.028 -20.749,-31.048 -20.749,-50.957 0,-36.563 26.754,-66.735 61.389,-71.333 14.264,-19.99 39.23,-33.254 67.668,-33.254 21.437,0 40.896,7.545 55.296,19.815 12.07,-6.952 26.332,-10.984 41.625,-10.984 22.801,0 43.324,8.941 57.674,23.21 8.462,-2.689 17.474,-4.145 26.827,-4.145 43.981,0 80.462,32.084 87.331,74.122 C -23.165,-64.613 0,-35.033 0,0"
             style="fill:#000000;fill-opacity:1;fill-rule:nonzero;stroke:none"
             id="path28" />
        </g>
        <g
           id="g30"
           transform="translate(500,213.1605)">
          <path
             d="m 0,0 -72.098,-16.66 v -87.792 L 0,-87.807 v 16.834 c 0,8.345 -0.001,17.657 -8.131,26.198 C -2.349,-36.292 0,-27.087 0,-14.032 Z"
             style="fill:#000000;fill-opacity:1;fill-rule:nonzero;stroke:none"
             id="path32" />
        </g>
        <g
           id="g34"
           transform="translate(434.4041,116.7112)">
          <path
             d="M 0,0 V 10.329 C -0.028,19.3 -0.015,28.093 10.461,40.987 2.787,46.063 0,53.252 0,67.273 v 7.518 l 22.633,5.238 V 63.37 c 0,-3.875 2.411,-6.702 6.913,-5.662 4.502,1.039 6.913,4.979 6.913,8.854 l 0.002,16.659 22.634,5.225 v -7.53 C 59.095,66.895 56.307,58.419 48.634,49.8 59.095,41.754 59.095,32.949 59.095,23.972 V 13.643 L 36.461,8.418 v 17.576 c 0,6.268 -2.413,9.035 -6.915,7.995 -4.502,-1.039 -6.913,-4.92 -6.913,-11.187 V 5.225 Z"
             style="fill:#ff5a00;fill-opacity:1;fill-rule:nonzero;stroke:none"
             id="path36" />
        </g>
        <g
           id="g38"
           transform="translate(397.2649,197.0732)">
          <path
             d="m 0,0 v -87.811 l 35.664,8.234 V 8.234 Z"
             style="fill:#000000;fill-opacity:1;fill-rule:nonzero;stroke:none"
             id="path40" />
        </g>
        <g
           id="g42"
           transform="translate(403.7665,192.0726)">
          <path
             d="M 0,0 22.661,5.232 V -69.576 L 0,-74.808 Z"
             style="fill:#5f14a5;fill-opacity:1;fill-rule:nonzero;stroke:none"
             id="path44" />
        </g>
        <g
           id="g46"
           transform="translate(393.8636,178.8701)">
          <path
             d="m 0,0 c -6.809,6.257 -16.056,8.261 -26.738,5.795 -5.832,-1.346 -10.869,-3.674 -15.885,-7.392 -5.015,1.402 -10.052,1.404 -15.884,0.058 -10.683,-2.467 -19.929,-8.74 -26.739,-18.142 -6.945,-9.589 -9.407,-18.339 -9.407,-33.438 V -99.537 L 9.408,-75.512 v 46.418 C 9.408,-13.995 6.946,-6.381 0,0"
             style="fill:#000000;fill-opacity:1;fill-rule:nonzero;stroke:none"
             id="path48" />
        </g>
        <g
           id="g50"
           transform="translate(388.9582,173.4709)">
          <path
             d="m 0,0 c -5.556,5.105 -13.053,6.719 -21.833,4.693 -5.895,-1.362 -10.64,-3.826 -15.884,-8.382 -5.244,2.134 -9.961,2.415 -15.885,1.047 -8.753,-2.021 -16.277,-7.104 -21.833,-14.773 -5.843,-8.067 -7.811,-15.257 -7.811,-28.804 v -39.915 l 22.744,5.25 v 44.239 c 0,6.666 2.148,9.455 5.658,10.265 3.51,0.811 5.755,-0.964 5.755,-7.63 v -44.239 l 22.743,5.251 v 44.238 c 0,6.667 2.246,9.478 5.755,10.288 3.51,0.811 5.659,-0.986 5.659,-7.653 v -44.238 l 22.743,5.251 v 39.915 C 7.811,-11.65 5.843,-5.369 0,0"
             style="fill:#ffff00;fill-opacity:1;fill-rule:nonzero;stroke:none"
             id="path52" />
        </g>
        <g
           id="g54"
           transform="translate(296.6866,162.0274)">
          <path
             d="M 0,0 C -6.499,7.207 -17.382,10.104 -28.401,7.56 -39.407,5.019 -50.282,-2.9 -56.783,-13.108 c -5.589,-8.776 -7.667,-16.786 -7.667,-29.555 v -47.728 l 72.098,16.645 v 47.728 C 7.648,-13.234 5.575,-6.182 0,0"
             style="fill:#000000;fill-opacity:1;fill-rule:nonzero;stroke:none"
             id="path56" />
        </g>
        <g
           id="g58"
           transform="translate(275.791,122.654)">
          <path
             d="m 0,0 -7.506,2.4 -7.506,-5.866 1.408,9.131 -6.046,4.856 8.375,3.243 3.769,8.867 3.769,-7.126 8.376,0.624 -6.046,-7.648 z m 15.685,34.282 c -5.346,5.928 -14.22,8.221 -23.191,6.15 -8.97,-2.071 -17.831,-8.468 -23.171,-16.854 -4.681,-7.349 -6.376,-14.021 -6.376,-25.367 v -41.226 l 22.606,5.219 v 16.417 l 13.883,3.185 v -16.397 l 22.606,5.219 v 41.226 c 0,11.346 -1.684,17.247 -6.357,22.428"
             style="fill:#00a0ff;fill-opacity:1;fill-rule:nonzero;stroke:none"
             id="path60" />
        </g>
        <g
           id="g62"
           transform="translate(233.1717,152.1171)">
          <path
             d="m 0,0 c -7.464,-0.227 -12.628,-0.862 -19.054,-2.346 -14.574,-3.364 -25.874,-10.395 -34.544,-21.495 -7.912,-10.129 -12.449,-22.942 -12.449,-35.155 0,-12.724 4.818,-23.407 13.566,-30.082 8.807,-6.72 18.696,-8.171 33.068,-4.853 6.285,1.451 10.985,3.043 19.342,6.553 l 5.294,2.223 V 0.159 Z"
             style="fill:#000000;fill-opacity:1;fill-rule:nonzero;stroke:none"
             id="path64" />
        </g>
        <g
           id="g66"
           transform="translate(231.8928,70.8489)">
          <path
             d="m 0,0 c -7.563,-3.177 -12.052,-4.757 -18.134,-6.161 -12.705,-2.933 -20.948,-1.729 -28.485,4.021 -7.506,5.728 -11.647,14.899 -11.647,25.914 0,10.544 3.814,21.499 10.654,30.255 7.458,9.548 16.943,15.415 29.837,18.391 5.657,1.307 10.405,1.955 17.775,2.178 v -23.44 c -6.928,-0.14 -11.251,-0.669 -16.561,-1.895 -12.365,-2.855 -19.376,-10.221 -19.376,-20.376 0,-8.535 5.244,-13.495 13.332,-12.747 V 38.448 L 0,43.667 Z"
             style="fill:#c80000;fill-opacity:1;fill-rule:nonzero;stroke:none"
             id="path68" />
        </g>
        <g
           id="g70"
           transform="translate(144.9674,139.6522)">
          <path
             d="m 0,0 c -9.516,-2.146 -16.657,-5.806 -21.858,-11.124 -6.566,-6.715 -10.332,-15.692 -10.332,-24.631 0,-6.252 1.651,-10.665 5.319,-13.728 -4.127,-5.339 -6.036,-11.27 -6.036,-18.373 0,-8.804 3.074,-15.386 8.891,-19.037 6.299,-3.952 12.976,-3.497 21.706,-1.482 l 30.267,6.988 V 6.454 Z"
             style="fill:#000000;fill-opacity:1;fill-rule:nonzero;stroke:none"
             id="path72" />
        </g>
        <g
           id="g74"
           transform="translate(142.6576,57.7791)">
          <path
             d="m 0,0 c -8.86,-2.045 -13.257,-1.753 -17.472,0.892 -4.399,2.761 -6.624,7.781 -6.624,14.626 0,8.281 2.871,13.664 10.433,19.435 -7.148,2.068 -9.715,5.407 -9.715,12.666 0,7.066 2.884,13.87 7.866,18.965 3.931,4.019 9.799,6.958 17.803,8.782 l 21.474,4.958 V 59.237 L 8.694,55.758 C 2.733,54.382 0.911,52.986 0.911,49.729 c 0,-3.257 1.822,-3.811 7.783,-2.435 l 15.071,3.479 V 34.965 L 8.694,31.486 C 2.733,30.109 2.125,27.312 2.125,25.739 c 0,-1.683 0.608,-4.125 6.569,-2.748 L 23.765,26.47 V 5.487 Z"
             style="fill:#14b400;fill-opacity:1;fill-rule:nonzero;stroke:none"
             id="path76" />
        </g>
        <g
           id="g78"
           transform="translate(109.0591,114.1904)">
          <path
             d="m 0,0 c -6.81,6.257 -16.056,8.261 -26.738,5.795 -5.834,-1.347 -10.87,-3.675 -15.884,-7.392 -5.015,1.402 -10.052,1.404 -15.885,0.058 -10.683,-2.467 -19.929,-8.74 -26.738,-18.141 -6.946,-9.589 -9.408,-18.339 -9.408,-33.439 v -46.417 l 104.06,24.025 v 46.417 C 9.407,-13.995 6.946,-6.381 0,0"
             style="fill:#000000;fill-opacity:1;fill-rule:nonzero;stroke:none"
             id="path80" />
        </g>
        <g
           id="g82"
           transform="translate(104.1537,108.7915)">
          <path
             d="m 0,0 c -5.556,5.105 -13.053,6.719 -21.833,4.693 -5.895,-1.362 -10.64,-3.826 -15.884,-8.382 -5.244,2.134 -9.961,2.415 -15.885,1.047 -8.753,-2.021 -16.277,-7.104 -21.833,-14.773 -5.843,-8.067 -7.811,-15.257 -7.811,-28.804 v -39.915 l 22.744,5.25 v 44.239 c 0,6.666 2.148,9.455 5.658,10.265 3.51,0.811 5.755,-0.964 5.755,-7.631 v -44.238 l 22.743,5.251 v 44.238 c 0,6.667 2.246,9.478 5.755,10.288 3.51,0.811 5.659,-0.986 5.659,-7.653 v -44.238 l 22.743,5.251 v 39.915 C 7.811,-11.65 5.843,-5.369 0,0"
             style="fill:#ffff00;fill-opacity:1;fill-rule:nonzero;stroke:none"
             id="path84" />
        </g>
        <g
           id="g86"
           transform="translate(452.1109,126.3685)">
          <path
             d="m 0,0 -14.832,1.545 -7.143,13.144 -6.043,-13.695 -14.7,-2.734 11.114,-9.975 -1.91,-14.748 12.886,7.423 13.48,-6.456 -3.101,14.629 z"
             style="fill:#000000;fill-opacity:1;fill-rule:nonzero;stroke:none"
             id="path88" />
        </g>
        <g
           id="g90"
           transform="translate(442.3256,122.7368)">
          <path
             d="m 0,0 -7.949,0.828 -3.809,7.011 -3.229,-7.315 -7.867,-1.462 5.934,-5.328 -1.021,-7.894 6.901,3.975 7.203,-3.45 -1.656,7.811 z"
             style="fill:#00a000;fill-opacity:1;fill-rule:nonzero;stroke:none"
             id="path92" />
        </g>
        <g
           id="g94"
           transform="translate(211.7283,146.626)">
          <path
             d="m 0,0 5.222,12.008 -12.708,-3.137 -9.816,8.668 -0.941,-13.061 -11.283,-6.687 12.152,-4.902 2.82,-12.794 8.462,10.028 13.043,-1.257 z"
             style="fill:#000000;fill-opacity:1;fill-rule:nonzero;stroke:none"
             id="path96" />
        </g>
        <g
           id="g98"
           transform="translate(207.0793,146.2807)">
          <path
             d="m 0,0 2.76,6.348 -6.707,-1.656 -5.189,4.582 -0.497,-6.9 -5.962,-3.533 6.431,-2.595 1.491,-6.762 4.471,5.299 6.873,-0.662 z"
             style="fill:#ffc800;fill-opacity:1;fill-rule:nonzero;stroke:none"
             id="path100" />
        </g>
        <g
           id="g102"
           transform="translate(30.8971,24.5272)">
          <path
             d="M 0,0 2.779,13.994 -10.002,7.7 l -12.42,6.966 1.999,-14.096 -10.474,-9.695 14.053,-2.431 5.9,-12.971 6.727,12.624 14.166,1.662 z"
             style="fill:#000000;fill-opacity:1;fill-rule:nonzero;stroke:none"
             id="path104" />
        </g>
        <g
           id="g106"
           transform="translate(26.4283,23.2063)">
          <path
             d="m 0,0 1.573,7.922 -7.231,-3.561 -7.039,3.947 1.132,-7.977 -5.934,-5.492 7.977,-1.381 3.339,-7.341 3.809,7.148 8.005,0.939 z"
             style="fill:#00aaff;fill-opacity:1;fill-rule:nonzero;stroke:none"
             id="path108" />
        </g>
        <g
           id="g110"
           transform="translate(416.4941,213.094)">
          <path
             d="M 0,0 V 6.784 L -1.706,-0.402 -3.554,-0.838 -5.22,5.553 v -6.784 l -1.747,-0.412 v 8.121 l 2.729,0.644 1.646,-6.054 0.02,0.005 1.605,6.82 2.694,0.635 V 0.407 Z m -12.613,-2.974 v 6.681 l -2.81,-0.663 V 4.48 L -7.99,6.232 V 4.797 l -2.709,-0.639 v -6.681 z"
             style="fill:#ff5500;fill-opacity:1;fill-rule:nonzero;stroke:none"
             id="path112" />
        </g>
        <g
           id="g114"
           transform="translate(392.8258,258.261)">
          <path
             d="M -4.0566031e-5,-4.9287886e-4 C 3.9319594,1.4805071 12.157959,3.6925071 19.068959,5.1915071 V 26.584507 l -34.536,-7.973 v -57.178 l 34.482,7.961 v 9.525 c -4.535,-1.189 -13.8769996,-2.944 -17.9909996,-3.639 -5.009,-0.841 -5.722,5.54 -0.18299997,7.368 3.18099997,1.042 9.01299997,2.432 13.56599957,3.712 v 7.3350001 c -4.15,-0.842 -9.7619996,-1.814 -14.18699957,-2.435 -5.48600003,-0.786 -6.43600003,6.399 -0.219999996031,8.73900002114"
             style="fill:#ff5500;fill-opacity:1;fill-rule:nonzero;stroke:none"
             id="path546" />
        </g>
        <g
           id="g118"
           transform="translate(360.7635,218.8616)">
          <path
             d="m 0,0 c -0.202,1.9 -3.489,2.33 -8.607,3.557 -8.95,2.223 -14.489,7.495 -13.923,16.757 0.602,9.997 5.663,16.97 32.451,21.519 V 21.036 C 0.254,19.827 -5.082,18.019 -7.346,16.168 -9.76,14.209 -9.619,11.001 -6.135,9.837 c 1.514,-0.506 5.99,-2 8.694,-2.907 5.191,-1.73 7.73,-4.383 8.26,-9.079 1.495,-13.245 -22.479,-16.719 -32.363,-18.17 V -8.551 C -9.703,-6.165 0.457,-4.074 0,0"
             style="fill:#ff5500;fill-opacity:1;fill-rule:nonzero;stroke:none"
             id="path120" />
        </g>
        <g
           id="g122"
           transform="translate(319.2921,215.3876)">
          <path
             d="m 0,0 v 50.973 l 12.889,2.975 V 2.976 Z"
             style="fill:#ff5500;fill-opacity:1;fill-rule:nonzero;stroke:none"
             id="path124" />
        </g>
        <g
           id="g126"
           transform="translate(288.4854,206.8861)">
          <path
             d="m 0,0 c -3.547,-0.821 -5.083,0.366 -5.083,4.516 v 13.09 c 0,3.017 -0.156,5.427 2.706,6.235 C 3.84,25.596 10.787,22.269 11.445,15.504 12.213,7.642 7.84,1.81 0,0 M -13.822,43.641 V -11.957 C 13.054,-8.026 24.755,2.359 24.462,23 24.206,40.899 6.436,50.735 -13.822,43.641"
             style="fill:#ff5500;fill-opacity:1;fill-rule:nonzero;stroke:none"
             id="path128" />
        </g>
        <g
           id="g130"
           transform="translate(251.1701,198.2751)">
          <path
             d="m 0,0 -6.49,-1.498 c -1.632,-0.377 -2.56,0.639 -2.359,2.906 0.183,2.121 1.134,6.618 1.499,8.154 0.768,3.181 2.377,4.735 4.224,5.009 2.98,0.476 4.424,-1.7 5.576,-7.185 C 2.56,6.874 2.87,5.759 2.998,4.26 3.254,1.207 2.305,0.532 0,0 M 11.372,24.371 C 7.971,35.524 5.219,38.276 -1.554,36.712 -7.525,35.334 -10.919,32.225 -13.767,21.318 -16.564,10.604 -19.636,-4.571 -22.122,-21.903 l 9.836,2.139 c 0.183,1.371 0.512,2.98 0.987,5.43 0.512,2.468 1.847,4.233 4.498,4.845 2.182,0.504 6.245,1.442 7.679,1.773 2.052,0.474 3.93,-1.151 4.589,-3.894 0.438,-1.828 1.005,-4.406 1.353,-6.143 l 13.054,2.999 c -1.591,12.779 -5.12,28.046 -8.502,39.125"
             style="fill:#ff5500;fill-opacity:1;fill-rule:nonzero;stroke:none"
             id="path132" />
        </g>
        <g
           id="g134"
           transform="translate(203.0423,202.5947)">
          <path
             d="M -4.5280269e-5,0.0063872 C -3.3490453,-0.7786128 -5.2130453,1.0863872 -5.2130453,5.0733872 v 3.853 c 0,2.7789998 0.54,5.1899998 3.017,5.9759998 7.195,2.279 12.2050003,-0.823 12.2050003,-5.6949998 0,-4.552 -3.4840003,-7.668 -10.009000280269,-9.201 M 24.249955,16.654387 c 0,17.706 -17.4630003,22.752 -38.503,15.279 v -55.702 l 9.0269997,2.084 v 12.8570002 c 0,2.184 1.607,1.804 3.092,0.479 1.042,-0.933 7.31,-7.0070002 11.689,-11.3750002 l 13.7820003,3.181 c 0,0 -12.015,12.2780002 -13.4010003,13.4930002 8.0710003,3.018 14.3140003,10.883 14.3140003,19.7039998"
             style="fill:#ff5500;fill-opacity:1;fill-rule:nonzero;stroke:none"
             id="path566" />
        </g>
        <g
           id="g138"
           transform="translate(167.5625,172.4595)">
          <path
             d="m 0,0 -6.49,-1.498 c -1.632,-0.377 -2.56,0.639 -2.359,2.906 0.183,2.121 1.134,6.618 1.499,8.154 0.768,3.181 2.377,4.735 4.224,5.009 2.98,0.476 4.424,-1.7 5.576,-7.185 C 2.56,6.874 2.87,5.759 2.998,4.26 3.254,1.207 2.305,0.532 0,0 M 11.372,24.371 C 7.971,35.524 5.219,38.276 -1.554,36.712 -7.525,35.334 -10.919,32.225 -13.767,21.318 -16.564,10.604 -19.636,-4.571 -22.122,-21.903 l 9.836,2.139 c 0.183,1.371 0.512,2.98 0.987,5.43 0.512,2.468 1.847,4.233 4.498,4.845 2.182,0.504 6.245,1.442 7.679,1.773 2.052,0.474 3.93,-1.151 4.589,-3.894 0.438,-1.828 1.005,-4.406 1.353,-6.143 l 13.054,2.999 c -1.591,12.779 -5.12,28.046 -8.502,39.125"
             style="fill:#ff5500;fill-opacity:1;fill-rule:nonzero;stroke:none"
             id="path140" />
        </g>
        <g
           id="g142"
           transform="translate(121.5262,183.1923)">
          <path
             d="m 0,0 c -4.059,-0.987 -6.399,0.073 -6.399,3.474 v 12.305 c 0,3.475 1.92,5.667 5.741,6.161 7.661,0.987 11.116,-3.492 11.116,-9.324 C 10.458,7.752 7.588,1.865 0,0 m -25.469,39.693 v -77.065 l 19.088,4.407 v 18.101 c 0,3.309 0.823,4.954 2.797,5.302 17.789,3.129 30.461,12.073 30.461,30.423 0,20.151 -21.648,30.991 -52.346,18.832"
             style="fill:#ff5500;fill-opacity:1;fill-rule:nonzero;stroke:none"
             id="path144" />
        </g>
        <g
           id="g146"
           transform="translate(368.9666,371.4868)">
          <path
             d="m 0,0 c -5.266,-17.387 -8.246,-25.889 -10.842,-33.055 -4.424,-12.195 -9.013,-7.405 -11.152,-4.004 -2.487,3.985 -5.869,11.737 -11.738,25.943 L -48.23,-14.462 V -82.71 l 12.03,2.777 c -0.092,10.879 0.091,18.265 0.676,21.135 0.531,2.578 2.085,2.944 3.657,0.384 1.298,-2.102 3.346,-6.655 7.423,-16.016 l 8.061,1.861 c 4.442,11.939 6.839,17.958 8.54,20.902 1.371,2.395 3.985,4.077 4.771,-0.348 0.604,-3.346 0.549,-12.422 0.531,-23.538 l 12.469,2.879 V 2.292 Z"
             style="fill:#ffaa00;fill-opacity:1;fill-rule:nonzero;stroke:none"
             id="path148" />
        </g>
        <g
           id="g150"
           transform="translate(299.6014,335.8528)">
          <path
             d="m 0,0 c -0.055,-9.324 -0.037,-17.826 -0.439,-20.934 -0.932,-7.423 -13.621,-10.768 -14.242,-3.931 -0.293,3.218 -0.549,7.469 -0.549,16.958 l -10.256,-2.368 v -62.527 l 13.072,3.018 c 0,9.927 0,14.241 0.165,17.641 0.457,8.959 13.913,10.988 15.083,3.2 0.53,-3.547 0.621,-5.247 0.621,-13.255 l 10.422,2.406 V 3.204 Z"
             style="fill:#ffaa00;fill-opacity:1;fill-rule:nonzero;stroke:none"
             id="path152" />
        </g>
        <g
           id="g154"
           transform="translate(230.2362,330.6882)">
          <path
             d="m 0,0 v -25.168 l 7.295,1.684 c 4.424,1.021 6.253,0.445 6.253,-7.386 v -32.308 l 11.975,2.744 v 29.637 c 0,13.164 1.236,16.486 7.752,17.99 l 5.96,1.376 V 9.058 Z"
             style="fill:#ffaa00;fill-opacity:1;fill-rule:nonzero;stroke:none"
             id="path156" />
        </g>
        <g
           id="g158"
           transform="translate(225.3364,314.0656)">
          <path
             d="m 0,0 -11.189,-2.583 c 0,0 0.164,-11.518 -0.274,-20.002 -0.64,-12.414 -13.146,-15.083 -14.151,-3.272 -0.512,6.198 -0.75,18.551 -0.75,18.551 l -13.913,-3.212 v -10.074 c 0,-24.042 15.632,-27.004 23.804,-20.148 0.494,0.421 0.987,0.677 1.39,0.494 0.457,-0.201 0.438,-0.695 0.256,-1.609 -0.494,-2.395 -4.041,-7.13 -11.208,-9.05 -5.466,-1.462 -10.823,-2.385 -13.493,-2.806 v -16.683 c 12.031,1.554 25.962,4.991 32.453,14.973 3.382,5.211 5.155,10.714 6.033,18.868 C 0.329,-23.718 0,0 0,0"
             style="fill:#ffaa00;fill-opacity:1;fill-rule:nonzero;stroke:none"
             id="path160" />
        </g>
        <g
           id="g162"
           transform="translate(164.363,315.1024)">
          <path
             d="m 0,0 c -0.055,-9.324 -0.037,-17.826 -0.439,-20.934 -0.932,-7.423 -13.621,-10.768 -14.242,-3.931 -0.293,3.218 -0.549,7.469 -0.549,16.958 l -10.256,-2.368 v -62.527 l 13.072,3.018 c 0,9.927 0,14.241 0.164,17.641 0.458,8.959 13.914,10.988 15.084,3.2 0.53,-3.547 0.621,-5.247 0.621,-13.255 l 10.422,2.406 V 3.204 Z"
             style="fill:#ffaa00;fill-opacity:1;fill-rule:nonzero;stroke:none"
             id="path164" />
        </g>
        <g
           id="g166"
           transform="translate(96.2776,277.4945)">
          <path
             d="m 0,0 c -4.991,-1.17 -7.77,1.609 -7.77,7.551 v 5.741 c 0,4.14 0.804,7.733 4.497,8.903 C 7.45,25.593 14.919,20.97 14.919,13.712 14.919,6.929 9.727,2.285 0,0 m 36.145,24.81 c 0,26.382 -25.815,34.043 -57.39,22.762 v -85.164 l 13.456,3.107 v 21.321 c 0,3.255 2.396,2.688 4.608,0.713 1.554,-1.389 10.896,-10.439 17.423,-16.948 l 20.543,4.743 c 0,0 -17.91,18.294 -19.976,20.104 12.03,4.497 21.336,16.218 21.336,29.362"
             style="fill:#ffaa00;fill-opacity:1;fill-rule:nonzero;stroke:none"
             id="path168" />
        </g>
      </g>
    </g>
  </g>
</svg>
