<?xml version="1.0" encoding="UTF-8" standalone="no"?>
<!-- Created with Inkscape (http://www.inkscape.org/) -->

<svg
   version="1.1"
   id="svg2"
   width="666.66669"
   height="495.31467"
   viewBox="0 0 666.66669 495.31467"
   sodipodi:docname="Rhythm Paradise Megamix Logo (Wordmark).ai"
   xmlns:inkscape="http://www.inkscape.org/namespaces/inkscape"
   xmlns:sodipodi="http://sodipodi.sourceforge.net/DTD/sodipodi-0.dtd"
   xmlns="http://www.w3.org/2000/svg"
   xmlns:svg="http://www.w3.org/2000/svg">
  <defs
     id="defs6">
    <clipPath
       clipPathUnits="userSpaceOnUse"
       id="clipPath16">
      <path
         d="M 0,371.486 H 500 V 0 H 0 Z"
         id="path14" />
    </clipPath>
  </defs>
  <sodipodi:namedview
     id="namedview4"
     pagecolor="#ffffff"
     bordercolor="#000000"
     borderopacity="0.25"
     inkscape:showpageshadow="2"
     inkscape:pageopacity="0.0"
     inkscape:pagecheckerboard="0"
     inkscape:deskcolor="#d1d1d1" />
  <g
     id="g8"
     inkscape:groupmode="layer"
     inkscape:label="Rhythm Paradise Megamix Logo (Wordmark)"
     transform="matrix(1.3333333,0,0,-1.3333333,0,495.31467)">
    <g
       id="g10">
      <g
         id="g12"
         clip-path="url(#clipPath16)">
        <g
           id="g18"
           transform="translate(437.4777,99.5088)">
          <path
             d="M 0,0 V 10.929 C -0.029,20.42 -0.016,29.723 11.067,43.364 2.949,48.735 0,56.34 0,71.175 v 7.954 L 23.946,84.67 V 67.045 c 0,-4.099 2.551,-7.09 7.314,-5.99 4.763,1.099 7.314,5.268 7.314,9.367 l 0.002,17.626 23.946,5.528 V 85.609 C 62.522,70.774 59.573,61.808 51.455,52.688 62.522,44.176 62.522,34.86 62.522,25.363 V 14.435 L 38.576,8.906 v 18.596 c 0,6.631 -2.553,9.559 -7.316,8.459 -4.763,-1.1 -7.314,-5.206 -7.314,-11.837 V 5.528 Z"
             style="fill:#000000;fill-opacity:1;fill-rule:nonzero;stroke:none"
             id="path20" />
        </g>
        <g
           id="g22"
           transform="translate(405.0637,179.2412)">
          <path
             d="M 0,0 23.975,5.535 V -73.611 L 0,-79.146 Z"
             style="fill:#000000;fill-opacity:1;fill-rule:nonzero;stroke:none"
             id="path24" />
        </g>
        <g
           id="g26"
           transform="translate(389.3967,159.5606)">
          <path
             d="m 0,0 c -5.878,5.4 -13.811,7.109 -23.1,4.965 -6.237,-1.441 -11.256,-4.048 -16.805,-8.868 -5.548,2.258 -10.538,2.555 -16.806,1.108 -9.261,-2.139 -17.221,-7.516 -23.099,-15.631 -6.182,-8.534 -8.264,-16.14 -8.264,-30.473 V -91.13 l 24.062,5.556 v 46.804 c 0,7.052 2.274,10.003 5.987,10.861 3.713,0.857 6.088,-1.021 6.088,-8.073 v -46.805 l 24.063,5.556 v 46.803 c 0,7.054 2.376,10.028 6.089,10.885 3.714,0.857 5.986,-1.044 5.986,-8.097 v -46.803 l 24.063,5.554 v 42.231 C 8.264,-12.325 6.182,-5.68 0,0"
             style="fill:#000000;fill-opacity:1;fill-rule:nonzero;stroke:none"
             id="path28" />
        </g>
        <g
           id="g30"
           transform="translate(269.6662,105.7969)">
          <path
             d="m 0,0 -7.941,2.539 -7.942,-6.206 1.489,9.66 -6.397,5.138 8.861,3.432 3.989,9.38 3.987,-7.54 8.861,0.66 -6.396,-8.09 z m 16.595,36.27 c -5.657,6.272 -15.046,8.698 -24.536,6.506 -9.492,-2.19 -18.866,-8.959 -24.516,-17.831 -4.952,-7.775 -6.746,-14.834 -6.746,-26.839 v -43.617 l 23.917,5.522 v 17.37 l 14.688,3.369 v -17.348 l 23.917,5.522 v 43.617 c 0,12.004 -1.781,18.247 -6.724,23.729"
             style="fill:#000000;fill-opacity:1;fill-rule:nonzero;stroke:none"
             id="path32" />
        </g>
        <g
           id="g34"
           transform="translate(223.2214,50.9864)">
          <path
             d="m 0,0 c -8.001,-3.36 -12.75,-5.032 -19.186,-6.518 -13.441,-3.103 -22.163,-1.83 -30.136,4.254 -7.942,6.06 -12.324,15.764 -12.324,27.417 0,11.156 4.036,22.746 11.272,32.01 7.892,10.102 17.927,16.309 31.568,19.458 5.986,1.382 11.009,2.067 18.806,2.304 V 54.126 c -7.33,-0.148 -11.903,-0.708 -17.521,-2.005 -13.083,-3.02 -20.5,-10.813 -20.5,-21.558 0,-9.03 5.548,-14.278 14.104,-13.487 V 40.679 L 0,46.2 Z"
             style="fill:#000000;fill-opacity:1;fill-rule:nonzero;stroke:none"
             id="path36" />
        </g>
        <g
           id="g38"
           transform="translate(128.8107,37.1592)">
          <path
             d="m 0,0 c -9.374,-2.164 -14.026,-1.854 -18.485,0.943 -4.655,2.921 -7.008,8.233 -7.008,15.475 0,8.761 3.036,14.456 11.038,20.562 -7.564,2.188 -10.279,5.72 -10.279,13.401 0,7.475 3.052,14.674 8.322,20.064 4.159,4.253 10.367,7.363 18.836,9.292 l 22.719,5.245 V 62.673 L 9.199,58.991 C 2.891,57.535 0.964,56.059 0.964,52.613 c 0,-3.446 1.927,-4.032 8.235,-2.576 l 15.944,3.681 V 36.992 L 9.199,33.312 c -6.308,-1.457 -6.95,-4.416 -6.95,-6.081 0,-1.781 0.642,-4.363 6.95,-2.907 l 15.944,3.681 v -22.2 z"
             style="fill:#000000;fill-opacity:1;fill-rule:nonzero;stroke:none"
             id="path40" />
        </g>
        <g
           id="g42"
           transform="translate(88.0739,91.1299)">
          <path
             d="m 0,0 c -5.878,5.4 -13.81,7.109 -23.099,4.965 -6.237,-1.441 -11.257,-4.048 -16.806,-8.868 -5.548,2.258 -10.538,2.555 -16.806,1.108 -9.261,-2.139 -17.221,-7.516 -23.099,-15.631 -6.182,-8.534 -8.264,-16.14 -8.264,-30.473 V -91.13 l 24.063,5.556 v 46.803 c 0,7.053 2.273,10.004 5.986,10.862 3.713,0.857 6.089,-1.021 6.089,-8.074 v -46.804 l 24.062,5.556 v 46.803 c 0,7.054 2.376,10.028 6.089,10.885 3.713,0.857 5.987,-1.044 5.987,-8.097 v -46.803 l 24.062,5.554 v 42.231 C 8.264,-12.325 6.182,-5.68 0,0"
             style="fill:#000000;fill-opacity:1;fill-rule:nonzero;stroke:none"
             id="path44" />
        </g>
        <g
           id="g46"
           transform="translate(418.5295,201.4815)">
          <path
             d="m 0,0 v 7.177 l -1.806,-7.603 -1.955,-0.461 -1.762,6.762 v -7.178 l -1.848,-0.435 v 8.592 l 2.888,0.681 1.74,-6.405 0.021,0.005 1.699,7.216 2.849,0.671 V 0.431 Z m -13.345,-3.146 0.001,7.067 -2.973,-0.701 v 1.519 l 7.864,1.855 V 5.075 l -2.866,-0.676 v -7.068 z"
             style="fill:#000000;fill-opacity:1;fill-rule:nonzero;stroke:none"
             id="path48" />
        </g>
        <g
           id="g50"
           transform="translate(393.4885,249.2681)">
          <path
             d="m 0,0 c 4.159,1.567 12.863,3.907 20.175,5.493 v 22.634 l -36.539,-8.436 v -60.494 l 36.481,8.422 v 10.078 c -4.798,-1.257 -14.681,-3.114 -19.034,-3.849 -5.3,-0.89 -6.055,5.861 -0.193,7.795 3.366,1.103 9.536,2.573 14.352,3.927 v 7.76 C 10.852,-7.56 4.913,-8.588 0.232,-9.246 -5.571,-10.078 -6.577,-2.476 0,0"
             style="fill:#000000;fill-opacity:1;fill-rule:nonzero;stroke:none"
             id="path52" />
        </g>
        <g
           id="g54"
           transform="translate(359.5666,207.5835)">
          <path
             d="m 0,0 c -0.214,2.01 -3.691,2.465 -9.106,3.764 -9.469,2.351 -15.33,7.929 -14.731,17.728 0.637,10.577 5.992,17.954 34.333,22.767 V 22.256 C 0.27,20.978 -5.377,19.064 -7.771,17.105 c -2.555,-2.072 -2.406,-5.466 1.281,-6.698 1.601,-0.534 6.336,-2.116 9.198,-3.075 5.491,-1.831 8.178,-4.638 8.738,-9.605 1.582,-14.015 -23.782,-17.689 -34.24,-19.225 V -9.046 C -10.266,-6.522 0.483,-4.31 0,0"
             style="fill:#000000;fill-opacity:1;fill-rule:nonzero;stroke:none"
             id="path56" />
        </g>
        <g
           id="g58"
           transform="translate(315.6896,203.9082)">
          <path
             d="M 0,0 V 53.929 L 13.638,57.077 13.637,3.148 Z"
             style="fill:#000000;fill-opacity:1;fill-rule:nonzero;stroke:none"
             id="path60" />
        </g>
        <g
           id="g62"
           transform="translate(283.0969,194.9141)">
          <path
             d="m 0,0 c -3.754,-0.869 -5.378,0.387 -5.378,4.777 v 13.85 c 0,3.192 -0.165,5.741 2.863,6.596 C 4.062,27.08 11.412,23.56 12.108,16.403 12.921,8.085 8.294,1.914 0,0 M -14.624,46.172 V -12.65 C 13.811,-8.492 26.19,2.495 25.881,24.333 25.61,43.271 6.809,53.677 -14.624,46.172"
             style="fill:#000000;fill-opacity:1;fill-rule:nonzero;stroke:none"
             id="path64" />
        </g>
        <g
           id="g66"
           transform="translate(243.6164,185.8037)">
          <path
             d="m 0,0 -6.867,-1.586 c -1.725,-0.398 -2.708,0.677 -2.495,3.075 0.194,2.243 1.199,7.002 1.587,8.627 0.812,3.365 2.514,5.01 4.468,5.3 3.153,0.503 4.681,-1.799 5.9,-7.602 C 2.708,7.272 3.037,6.093 3.173,4.507 3.443,1.276 2.439,0.562 0,0 M 12.032,25.784 C 8.435,37.583 5.521,40.496 -1.644,38.841 c -6.317,-1.458 -9.908,-4.747 -12.921,-16.287 -2.959,-11.335 -6.209,-27.39 -8.84,-45.728 l 10.406,2.264 c 0.194,1.45 0.542,3.152 1.045,5.745 0.542,2.611 1.954,4.477 4.759,5.126 2.309,0.532 6.607,1.524 8.124,1.875 2.172,0.502 4.159,-1.218 4.855,-4.119 0.464,-1.935 1.064,-4.662 1.432,-6.5 l 13.81,3.173 C 19.344,-2.09 15.61,14.063 12.032,25.784"
             style="fill:#000000;fill-opacity:1;fill-rule:nonzero;stroke:none"
             id="path68" />
        </g>
        <g
           id="g70"
           transform="translate(192.698,190.3799)">
          <path
             d="m 0,0 c -3.543,-0.83 -5.516,1.143 -5.516,5.361 v 4.077 c 0,2.94 0.571,5.491 3.193,6.322 C 5.288,18.171 10.59,14.889 10.589,9.735 10.589,4.919 6.904,1.622 0,0 m 25.657,17.614 c 0,18.732 -18.476,24.072 -40.737,16.165 l -10e-4,-58.933 9.552,2.205 v 13.603 c 0,2.311 1.7,1.908 3.271,0.506 1.103,-0.987 7.735,-7.413 12.367,-12.035 l 14.582,3.366 c 0,0 -12.713,12.99 -14.179,14.276 8.539,3.193 15.145,11.514 15.145,20.847"
             style="fill:#000000;fill-opacity:1;fill-rule:nonzero;stroke:none"
             id="path72" />
        </g>
        <g
           id="g74"
           transform="translate(155.1599,158.4903)">
          <path
             d="m 0,0 -6.867,-1.585 c -1.725,-0.398 -2.708,0.677 -2.495,3.075 0.194,2.243 1.199,7.002 1.586,8.627 0.813,3.365 2.515,5.01 4.468,5.3 3.154,0.503 4.682,-1.799 5.9,-7.602 C 2.708,7.273 3.037,6.094 3.172,4.508 3.443,1.277 2.439,0.563 0,0 M 12.032,25.785 C 8.434,37.584 5.521,40.496 -1.644,38.842 c -6.317,-1.458 -9.908,-4.747 -12.921,-16.287 -2.96,-11.335 -6.209,-27.39 -8.84,-45.728 l 10.406,2.264 c 0.194,1.45 0.542,3.152 1.045,5.744 0.542,2.611 1.954,4.478 4.759,5.126 2.309,0.533 6.607,1.525 8.124,1.876 2.172,0.501 4.158,-1.218 4.855,-4.119 0.464,-1.935 1.064,-4.662 1.431,-6.5 l 13.811,3.173 c -1.683,13.52 -5.416,29.672 -8.994,41.394"
             style="fill:#000000;fill-opacity:1;fill-rule:nonzero;stroke:none"
             id="path76" />
        </g>
        <g
           id="g78"
           transform="translate(106.4538,169.8457)">
          <path
             d="m 0,0 c -4.294,-1.044 -6.771,0.078 -6.771,3.676 l 0.001,13.018 c 0,3.677 2.031,5.996 6.074,6.519 8.105,1.045 11.76,-3.694 11.76,-9.865 C 11.064,8.202 8.028,1.974 0,0 m -26.946,41.996 v -81.535 l 20.195,4.663 v 19.15 c 0,3.501 0.871,5.243 2.959,5.61 18.821,3.31 32.228,12.773 32.228,32.187 0,21.32 -22.904,32.788 -55.382,19.925"
             style="fill:#000000;fill-opacity:1;fill-rule:nonzero;stroke:none"
             id="path80" />
        </g>
        <g
           id="g82"
           transform="translate(368.2463,369.0606)">
          <path
             d="m 0,0 c -5.571,-18.395 -8.725,-27.39 -11.471,-34.972 -4.681,-12.903 -9.537,-7.835 -11.8,-4.236 -2.63,4.216 -6.208,12.418 -12.417,27.448 l -15.34,-3.54 v -72.207 l 12.728,2.939 c -0.097,11.509 0.097,19.323 0.715,22.36 0.562,2.728 2.205,3.115 3.869,0.407 1.373,-2.225 3.54,-7.041 7.854,-16.945 l 8.528,1.969 c 4.7,12.631 7.236,18.999 9.035,22.113 1.451,2.534 4.217,4.314 5.049,-0.367 0.638,-3.54 0.58,-13.143 0.561,-24.904 l 13.192,3.046 V 2.425 Z"
             style="fill:#000000;fill-opacity:1;fill-rule:nonzero;stroke:none"
             id="path84" />
        </g>
        <g
           id="g86"
           transform="translate(294.8576,331.3604)">
          <path
             d="m 0,0 c -0.059,-9.865 -0.039,-18.86 -0.465,-22.148 -0.986,-7.853 -14.41,-11.394 -15.068,-4.159 -0.31,3.405 -0.58,7.902 -0.58,17.941 l -10.852,-2.505 v -66.154 l 13.83,3.193 c 0,10.503 0,15.067 0.175,18.665 0.483,9.478 14.72,11.625 15.958,3.385 0.561,-3.753 0.657,-5.551 0.657,-14.024 l 11.027,2.546 V 3.389 Z"
             style="fill:#000000;fill-opacity:1;fill-rule:nonzero;stroke:none"
             id="path88" />
        </g>
        <g
           id="g90"
           transform="translate(221.4689,325.8965)">
          <path
             d="m 0,0 v -26.628 l 7.718,1.782 c 4.681,1.08 6.615,0.471 6.615,-7.815 v -34.181 l 12.67,2.903 v 31.356 c 0,13.927 1.308,17.441 8.202,19.033 l 6.306,1.456 V 9.583 Z"
             style="fill:#000000;fill-opacity:1;fill-rule:nonzero;stroke:none"
             id="path92" />
        </g>
        <g
           id="g94"
           transform="translate(216.2854,308.3096)">
          <path
             d="m 0,0 -11.838,-2.733 c 0,0 0.174,-12.186 -0.29,-21.162 -0.678,-13.133 -13.908,-15.958 -14.972,-3.462 -0.542,6.558 -0.793,19.628 -0.793,19.628 l -14.72,-3.399 v -10.658 c 0,-25.436 16.538,-28.57 25.184,-21.316 0.523,0.445 1.045,0.715 1.471,0.522 0.483,-0.213 0.464,-0.735 0.27,-1.702 -0.522,-2.534 -4.274,-7.544 -11.857,-9.575 -5.784,-1.547 -11.452,-2.524 -14.275,-2.969 v -17.651 c 12.727,1.644 27.467,5.281 34.334,15.842 3.578,5.513 5.455,11.335 6.383,19.962 C 0.348,-25.094 0,0 0,0"
             style="fill:#000000;fill-opacity:1;fill-rule:nonzero;stroke:none"
             id="path96" />
        </g>
        <g
           id="g98"
           transform="translate(151.7756,309.4068)">
          <path
             d="m 0,0 c -0.058,-9.865 -0.039,-18.86 -0.464,-22.148 -0.987,-7.853 -14.411,-11.393 -15.069,-4.159 -0.309,3.405 -0.58,7.902 -0.58,17.941 l -10.852,-2.505 v -66.154 l 13.831,3.193 c 0,10.503 0,15.067 0.174,18.665 0.483,9.478 14.72,11.625 15.958,3.385 0.561,-3.753 0.658,-5.551 0.657,-14.024 l 11.026,2.546 V 3.39 Z"
             style="fill:#000000;fill-opacity:1;fill-rule:nonzero;stroke:none"
             id="path100" />
        </g>
        <g
           id="g102"
           transform="translate(79.7409,269.6177)">
          <path
             d="m 0,0 c -5.281,-1.238 -8.221,1.702 -8.221,7.989 v 6.074 c 0,4.38 0.851,8.182 4.759,9.42 C 7.882,27.077 15.784,22.187 15.784,14.508 15.784,7.331 10.291,2.418 0,0 m 38.242,26.249 c 0,27.912 -27.313,36.017 -60.719,24.083 v -90.104 l 14.237,3.287 v 22.558 c 0,3.443 2.534,2.844 4.874,0.755 1.644,-1.471 11.529,-11.046 18.434,-17.932 l 21.734,5.018 c 0,0 -18.948,19.355 -21.134,21.27 12.728,4.758 22.574,17.159 22.574,31.065"
             style="fill:#000000;fill-opacity:1;fill-rule:nonzero;stroke:none"
             id="path104" />
        </g>
      </g>
    </g>
  </g>
</svg>
