<?xml version="1.0" encoding="UTF-8" standalone="no"?>
<!-- Created with Inkscape (http://www.inkscape.org/) -->

<svg
   width="666.66663"
   height="535.23596"
   viewBox="0 0 176.38887 141.61451"
   version="1.1"
   id="svg6091"
   xml:space="preserve"
   inkscape:version="1.2.2 (b0a8486541, 2022-12-01)"
   sodipodi:docname="Rhythm Paradise Megamix Logo (Spain Trailer Version).svg"
   xmlns:inkscape="http://www.inkscape.org/namespaces/inkscape"
   xmlns:sodipodi="http://sodipodi.sourceforge.net/DTD/sodipodi-0.dtd"
   xmlns="http://www.w3.org/2000/svg"
   xmlns:svg="http://www.w3.org/2000/svg"><sodipodi:namedview
     id="namedview6093"
     pagecolor="#505050"
     bordercolor="#eeeeee"
     borderopacity="1"
     inkscape:showpageshadow="0"
     inkscape:pageopacity="0"
     inkscape:pagecheckerboard="0"
     inkscape:deskcolor="#505050"
     inkscape:document-units="px"
     showgrid="false"
     inkscape:zoom="1.0797138"
     inkscape:cx="-434.83745"
     inkscape:cy="561.25984"
     inkscape:window-width="2560"
     inkscape:window-height="1414"
     inkscape:window-x="0"
     inkscape:window-y="0"
     inkscape:window-maximized="1"
     inkscape:current-layer="layer1"><inkscape:page
       x="0"
       y="0"
       width="176.38887"
       height="141.61452"
       id="page6784" /><inkscape:page
       x="1.0131322e-05"
       y="-8.1222097e-06"
       width="176.38889"
       height="141.61453"
       id="page6786" /></sodipodi:namedview><defs
     id="defs6088"><clipPath
       clipPathUnits="userSpaceOnUse"
       id="clipPath6111"><path
         d="M 0,401.427 H 500 V 0 H 0 Z"
         id="path6109" /></clipPath><linearGradient
       x1="0"
       y1="0"
       x2="1"
       y2="0"
       gradientUnits="userSpaceOnUse"
       gradientTransform="matrix(55.105415,-2e-7,-0.0172204,-55.105362,420.49774,150.0222)"
       spreadMethod="pad"
       id="linearGradient6147"><stop
         style="stop-opacity:1;stop-color:#ff8c3c"
         offset="0"
         id="stop6141" /><stop
         style="stop-opacity:1;stop-color:#ff5a00"
         offset="0.75"
         id="stop6143" /><stop
         style="stop-opacity:1;stop-color:#ff5a00"
         offset="1"
         id="stop6145" /></linearGradient><clipPath
       clipPathUnits="userSpaceOnUse"
       id="clipPath6157"><path
         d="M 0,401.427 H 500 V 0 H 0 Z"
         id="path6155" /></clipPath><clipPath
       clipPathUnits="userSpaceOnUse"
       id="clipPath6165"><path
         d="M 62.2185,206.828 H 554.636 V -125.996 H 62.2185 Z"
         id="path6163" /></clipPath><clipPath
       clipPathUnits="userSpaceOnUse"
       id="clipPath6169"><path
         d="m 420.507,108.798 v 9.629 c -0.026,8.362 -0.014,16.559 9.751,28.579 -7.153,4.732 -9.751,11.432 -9.751,24.504 v 7.007 l 21.098,4.883 v -15.529 c 0,-3.612 2.248,-6.247 6.444,-5.278 4.197,0.968 6.445,4.641 6.445,8.252 l 0.002,15.531 21.098,4.871 v -7.02 c 0,-13.071 -2.598,-20.971 -9.751,-29.006 9.752,-7.501 9.751,-15.709 9.751,-24.077 v -9.629 l -21.098,-4.871 v 16.385 c 0,5.843 -2.25,8.422 -6.447,7.453 -4.196,-0.969 -6.444,-4.587 -6.444,-10.429 v -16.384 z"
         id="path6167" /></clipPath><linearGradient
       x1="0"
       y1="0"
       x2="1"
       y2="0"
       gradientUnits="userSpaceOnUse"
       gradientTransform="matrix(36.482185,8.422576,0.0806885,-38.348366,381.18536,141.69707)"
       spreadMethod="pad"
       id="linearGradient6203"><stop
         style="stop-opacity:1;stop-color:#aa37be"
         offset="0"
         id="stop6199" /><stop
         style="stop-opacity:1;stop-color:#5f14a5"
         offset="1"
         id="stop6201" /></linearGradient><clipPath
       clipPathUnits="userSpaceOnUse"
       id="clipPath6213"><path
         d="M 0,401.427 H 500 V 0 H 0 Z"
         id="path6211" /></clipPath><clipPath
       clipPathUnits="userSpaceOnUse"
       id="clipPath6221"><path
         d="M 62.2185,206.828 H 554.636 V -125.996 H 62.2185 Z"
         id="path6219" /></clipPath><clipPath
       clipPathUnits="userSpaceOnUse"
       id="clipPath6225"><path
         d="m 391.946,179.049 21.125,4.877 v -69.735 l -21.125,-4.877 z"
         id="path6223" /></clipPath><linearGradient
       x1="0"
       y1="0"
       x2="1"
       y2="0"
       gradientUnits="userSpaceOnUse"
       gradientTransform="matrix(85.013611,19.626989,5.08e-5,-85.013603,300.54617,117.14615)"
       spreadMethod="pad"
       id="linearGradient6261"><stop
         style="stop-opacity:1;stop-color:#ffff00"
         offset="0"
         id="stop6255" /><stop
         style="stop-opacity:1;stop-color:#ffbe00"
         offset="0.75"
         id="stop6257" /><stop
         style="stop-opacity:1;stop-color:#ffbe00"
         offset="1"
         id="stop6259" /></linearGradient><clipPath
       clipPathUnits="userSpaceOnUse"
       id="clipPath6271"><path
         d="M 0,401.427 H 500 V 0 H 0 Z"
         id="path6269" /></clipPath><clipPath
       clipPathUnits="userSpaceOnUse"
       id="clipPath6279"><path
         d="M -16.9477,292.322 H 554.636 V -125.996 H -16.9477 Z"
         id="path6277" /></clipPath><clipPath
       clipPathUnits="userSpaceOnUse"
       id="clipPath6283"><path
         d="m 378.142,161.709 c -5.179,4.759 -12.168,6.263 -20.352,4.374 -5.496,-1.269 -9.919,-3.567 -14.808,-7.814 -4.888,1.991 -9.285,2.252 -14.807,0.977 -8.16,-1.884 -15.174,-6.622 -20.352,-13.772 -5.448,-7.52 -7.282,-14.222 -7.282,-26.85 V 81.415 l 21.201,4.894 v 41.239 c 0,6.214 2.003,8.814 5.275,9.57 3.272,0.755 5.365,-0.899 5.365,-7.113 v -41.24 l 21.201,4.895 v 41.239 c 0,6.214 2.093,8.835 5.365,9.591 3.272,0.755 5.275,-0.92 5.275,-7.135 V 96.117 l 21.201,4.895 v 37.208 c 0,12.628 -1.835,18.484 -7.282,23.489"
         id="path6281" /></clipPath><linearGradient
       x1="0"
       y1="0"
       x2="1"
       y2="0"
       gradientUnits="userSpaceOnUse"
       gradientTransform="matrix(55.087612,12.717977,0,-55.087612,238.10773,109.95388)"
       spreadMethod="pad"
       id="linearGradient6323"><stop
         style="stop-opacity:1;stop-color:#6ee6ff"
         offset="0"
         id="stop6317" /><stop
         style="stop-opacity:1;stop-color:#00a0ff"
         offset="0.85"
         id="stop6319" /><stop
         style="stop-opacity:1;stop-color:#00a0ff"
         offset="1"
         id="stop6321" /></linearGradient><clipPath
       clipPathUnits="userSpaceOnUse"
       id="clipPath6333"><path
         d="M 0,401.427 H 500 V 0 H 0 Z"
         id="path6331" /></clipPath><clipPath
       clipPathUnits="userSpaceOnUse"
       id="clipPath6341"><path
         d="M -16.9477,292.322 H 476.123 V -48.7009 H -16.9477 Z"
         id="path6339" /></clipPath><clipPath
       clipPathUnits="userSpaceOnUse"
       id="clipPath6345"><path
         d="m 272.648,114.338 -6.997,2.237 -6.996,-5.468 1.311,8.512 -5.635,4.526 7.807,3.024 3.513,8.265 3.514,-6.643 7.808,0.582 -5.637,-7.129 z m 14.622,31.957 c -4.984,5.526 -13.256,7.664 -21.619,5.733 -8.361,-1.931 -16.621,-7.893 -21.6,-15.711 -4.363,-6.851 -5.943,-13.07 -5.943,-23.647 V 74.239 l 21.073,4.865 v 15.304 l 12.942,2.969 V 82.092 l 21.072,4.865 v 38.43 c 0,10.578 -1.569,16.078 -5.925,20.908"
         id="path6343" /></clipPath><linearGradient
       x1="0"
       y1="0"
       x2="1"
       y2="0"
       gradientUnits="userSpaceOnUse"
       gradientTransform="matrix(54.389038,12.556699,0.1202935,-57.171211,177.41081,88.252708)"
       spreadMethod="pad"
       id="linearGradient6381"><stop
         style="stop-opacity:1;stop-color:#ff8232"
         offset="0"
         id="stop6375" /><stop
         style="stop-opacity:1;stop-color:#c80000"
         offset="0.75"
         id="stop6377" /><stop
         style="stop-opacity:1;stop-color:#c80000"
         offset="1"
         id="stop6379" /></linearGradient><clipPath
       clipPathUnits="userSpaceOnUse"
       id="clipPath6391"><path
         d="M 0,401.427 H 500 V 0 H 0 Z"
         id="path6389" /></clipPath><clipPath
       clipPathUnits="userSpaceOnUse"
       id="clipPath6399"><path
         d="M -16.9477,292.322 H 476.123 V -48.7009 H -16.9477 Z"
         id="path6397" /></clipPath><clipPath
       clipPathUnits="userSpaceOnUse"
       id="clipPath6403"><path
         d="m 231.727,66.045 c -7.05,-2.961 -11.235,-4.434 -16.905,-5.743 -11.843,-2.734 -19.528,-1.613 -26.553,3.749 -6.998,5.338 -10.858,13.888 -10.858,24.156 0,9.829 3.556,20.041 9.932,28.203 6.952,8.9 15.794,14.37 27.814,17.144 5.274,1.218 9.7,1.823 16.57,2.031 v -21.851 c -6.458,-0.131 -10.488,-0.623 -15.438,-1.766 -11.527,-2.662 -18.062,-9.528 -18.062,-18.995 0,-7.956 4.888,-12.58 12.427,-11.882 v 20.795 l 21.073,4.865 z"
         id="path6401" /></clipPath><linearGradient
       x1="0"
       y1="0"
       x2="1"
       y2="0"
       gradientUnits="userSpaceOnUse"
       gradientTransform="matrix(44.720997,10.324657,0.0989105,-47.008617,126.04787,83.549927)"
       spreadMethod="pad"
       id="linearGradient6439"><stop
         style="stop-opacity:1;stop-color:#c8f000"
         offset="0"
         id="stop6433" /><stop
         style="stop-opacity:1;stop-color:#14b400"
         offset="0.8"
         id="stop6435" /><stop
         style="stop-opacity:1;stop-color:#14b400"
         offset="1"
         id="stop6437" /></linearGradient><clipPath
       clipPathUnits="userSpaceOnUse"
       id="clipPath6449"><path
         d="M 0,401.427 H 500 V 0 H 0 Z"
         id="path6447" /></clipPath><clipPath
       clipPathUnits="userSpaceOnUse"
       id="clipPath6457"><path
         d="M -16.9477,292.322 H 476.123 V -48.7009 H -16.9477 Z"
         id="path6455" /></clipPath><clipPath
       clipPathUnits="userSpaceOnUse"
       id="clipPath6461"><path
         d="m 148.542,53.861 c -8.259,-1.906 -12.358,-1.634 -16.287,0.832 -4.101,2.573 -6.175,7.254 -6.175,13.635 0,7.719 2.676,12.737 9.726,18.116 -6.664,1.928 -9.057,5.041 -9.057,11.808 0,6.587 2.689,12.929 7.333,17.678 3.664,3.748 9.134,6.487 16.596,8.188 l 20.017,4.621 v -19.657 l -14.048,-3.243 c -5.558,-1.284 -7.256,-2.584 -7.256,-5.62 0,-3.037 1.698,-3.553 7.256,-2.27 l 14.048,3.243 V 86.456 l -14.048,-3.244 c -5.558,-1.283 -6.124,-3.89 -6.124,-5.357 0,-1.569 0.566,-3.844 6.124,-2.561 l 14.048,3.243 V 58.976 Z"
         id="path6459" /></clipPath><linearGradient
       x1="0"
       y1="0"
       x2="1"
       y2="0"
       gradientUnits="userSpaceOnUse"
       gradientTransform="matrix(94.699676,21.863199,5.66e-5,-94.699669,27.307573,55.06403)"
       spreadMethod="pad"
       id="linearGradient6497"><stop
         style="stop-opacity:1;stop-color:#ffff00"
         offset="0"
         id="stop6491" /><stop
         style="stop-opacity:1;stop-color:#ffbe00"
         offset="0.75"
         id="stop6493" /><stop
         style="stop-opacity:1;stop-color:#ffbe00"
         offset="1"
         id="stop6495" /></linearGradient><clipPath
       clipPathUnits="userSpaceOnUse"
       id="clipPath6507"><path
         d="M 0,401.427 H 500 V 0 H 0 Z"
         id="path6505" /></clipPath><clipPath
       clipPathUnits="userSpaceOnUse"
       id="clipPath6515"><path
         d="M -16.9477,292.322 H 476.123 V -48.7009 H -16.9477 Z"
         id="path6513" /></clipPath><clipPath
       clipPathUnits="userSpaceOnUse"
       id="clipPath6519"><path
         d="m 112.649,101.415 c -5.179,4.759 -12.168,6.263 -20.352,4.374 -5.496,-1.269 -9.919,-3.566 -14.808,-7.813 -4.888,1.99 -9.285,2.251 -14.807,0.976 C 54.521,97.068 47.508,92.33 42.329,85.18 36.882,77.661 35.048,70.959 35.048,58.33 V 21.121 l 21.201,4.894 v 41.239 c 0,6.215 2.003,8.815 5.275,9.57 3.271,0.756 5.365,-0.899 5.365,-7.113 v -41.24 l 21.201,4.896 v 41.238 c 0,6.215 2.093,8.835 5.365,9.591 3.271,0.755 5.274,-0.92 5.274,-7.135 V 35.823 l 21.202,4.895 v 37.209 c 0,12.628 -1.835,18.483 -7.282,23.488"
         id="path6517" /></clipPath><radialGradient
       fx="0"
       fy="0"
       cx="0"
       cy="0"
       r="1"
       gradientUnits="userSpaceOnUse"
       gradientTransform="matrix(10.454684,0,0,-10.454684,417.23892,111.46852)"
       spreadMethod="pad"
       id="radialGradient6555"><stop
         style="stop-opacity:1;stop-color:#faffc8"
         offset="0"
         id="stop6549" /><stop
         style="stop-opacity:1;stop-color:#c8ff00"
         offset="0.45"
         id="stop6551" /><stop
         style="stop-opacity:1;stop-color:#00a000"
         offset="1"
         id="stop6553" /></radialGradient><clipPath
       clipPathUnits="userSpaceOnUse"
       id="clipPath6565"><path
         d="M 0,401.427 H 500 V 0 H 0 Z"
         id="path6563" /></clipPath><radialGradient
       fx="0"
       fy="0"
       cx="0"
       cy="0"
       r="1"
       gradientUnits="userSpaceOnUse"
       gradientTransform="matrix(9.1036873,0,0,-9.1036873,203.03796,135.76144)"
       spreadMethod="pad"
       id="radialGradient6589"><stop
         style="stop-opacity:1;stop-color:#ffffa0"
         offset="0"
         id="stop6583" /><stop
         style="stop-opacity:1;stop-color:#ffff00"
         offset="0.55"
         id="stop6585" /><stop
         style="stop-opacity:1;stop-color:#ffc800"
         offset="1"
         id="stop6587" /></radialGradient><clipPath
       clipPathUnits="userSpaceOnUse"
       id="clipPath6599"><path
         d="M 0,401.427 H 500 V 0 H 0 Z"
         id="path6597" /></clipPath><radialGradient
       fx="0"
       fy="0"
       cx="0"
       cy="0"
       r="1"
       gradientUnits="userSpaceOnUse"
       gradientTransform="matrix(10.564376,0,0,-10.564376,34.66185,19.034025)"
       spreadMethod="pad"
       id="radialGradient6623"><stop
         style="stop-opacity:1;stop-color:#d9ffff"
         offset="0"
         id="stop6617" /><stop
         style="stop-opacity:1;stop-color:#96d2ff"
         offset="0.42"
         id="stop6619" /><stop
         style="stop-opacity:1;stop-color:#00aaff"
         offset="1"
         id="stop6621" /></radialGradient><clipPath
       clipPathUnits="userSpaceOnUse"
       id="clipPath6633"><path
         d="M 0,401.427 H 500 V 0 H 0 Z"
         id="path6631" /></clipPath></defs><g
     inkscape:label="Layer 1"
     inkscape:groupmode="layer"
     id="layer1"
     transform="translate(-220)"><g
       id="g6105"
       transform="matrix(0.35277777,0,0,-0.35277777,220,141.61453)"><g
         id="g6107"
         clip-path="url(#clipPath6111)"><g
           id="g6113"
           transform="translate(500,233.9558)"><path
             d="m 0,0 c 0,41.098 -25.397,76.348 -61.259,90.766 -12.108,44.184 -52.11,76.706 -99.462,76.706 -38.512,0 -72.161,-21.515 -89.899,-53.318 -10.969,3.793 -22.737,5.86 -34.979,5.86 -19.38,0 -37.575,-5.166 -53.285,-14.192 -14.09,7.415 -30.12,11.62 -47.116,11.62 -55.976,0 -101.515,-45.539 -101.515,-101.514 0,-11.817 2.036,-23.164 5.765,-33.721 -11.452,-15.427 -18.25,-34.606 -18.25,-55.37 0,-43.993 30.508,-80.88 71.167,-90.004 18.443,-21.604 47.162,-35.519 79.366,-35.519 21.784,0 41.974,6.369 58.468,17.176 12.393,-5.234 26.137,-8.15 40.596,-8.15 24.281,0 46.543,8.225 63.776,21.846 7.292,-1.542 14.849,-2.359 22.593,-2.359 50.242,0 92.651,34.147 105.259,80.448 C -24.231,-74.703 0,-40.142 0,0"
             style="fill:#0096e6;fill-opacity:1;fill-rule:nonzero;stroke:none"
             id="path6115" /></g><g
           id="g6117"
           transform="translate(488.2827,233.9558)"><path
             d="m 0,0 c 0,38.263 -25.004,70.756 -59.455,81.889 -8.708,42.132 -45.549,73.865 -89.549,73.865 -37.737,0 -70.208,-23.343 -84.183,-56.567 -12.355,5.837 -26.149,9.109 -40.695,9.109 -19.609,0 -37.855,-5.939 -53.044,-16.108 -13.757,8.574 -29.987,13.537 -47.357,13.537 -49.515,0 -89.798,-40.283 -89.798,-89.797 0,-12.707 2.659,-24.803 7.44,-35.769 -12.383,-14.208 -19.925,-32.881 -19.925,-53.322 0,-39.78 28.52,-72.891 65.838,-79.312 16.095,-20.836 42.804,-34.493 72.978,-34.493 21.792,0 41.775,7.126 57.261,18.931 12.419,-6.31 26.665,-9.905 41.803,-9.905 23.611,0 45.046,8.748 60.763,22.91 8.163,-2.228 16.747,-3.424 25.607,-3.424 46.844,0 86.064,33.256 95.3,77.397 C -23.832,-69.208 0,-37.354 0,0"
             style="fill:#ffffff;fill-opacity:1;fill-rule:nonzero;stroke:none"
             id="path6119" /></g><g
           id="g6121"
           transform="translate(481.3779,233.9558)"><path
             d="m 0,0 c 0,36.698 -24.867,67.55 -58.587,76.485 -6.467,41.021 -41.388,72.364 -83.512,72.364 -37.556,0 -69.378,-24.918 -80.425,-59.392 -13.071,7.587 -28.254,11.934 -44.454,11.934 -19.839,0 -38.156,-6.517 -52.933,-17.526 -13.448,9.413 -29.806,14.954 -47.467,14.954 -45.781,0 -82.893,-37.111 -82.893,-82.891 0,-13.305 3.153,-25.866 8.723,-37.008 -13.099,-13.316 -21.207,-31.734 -21.207,-52.084 0,-37.371 27.345,-68.21 62.745,-72.91 14.579,-20.432 40.097,-33.989 69.165,-33.989 21.911,0 41.8,7.711 56.518,20.252 12.338,-7.105 26.915,-11.227 42.546,-11.227 23.305,0 44.281,9.14 58.948,23.724 8.65,-2.748 17.862,-4.237 27.421,-4.237 44.954,0 82.241,32.793 89.263,75.761 C -23.677,-66.042 0,-35.808 0,0"
             style="fill:#000000;fill-opacity:1;fill-rule:nonzero;stroke:none"
             id="path6123" /></g><g
           id="g6125"
           transform="translate(481.6548,198.7068)"><path
             d="M 0,0 -67.209,-15.53 V -97.369 L 0,-81.854 v 15.694 c 0,7.778 -0.001,16.46 -7.58,24.422 5.39,7.907 7.58,16.487 7.58,28.658 z"
             style="fill:#000000;fill-opacity:1;fill-rule:nonzero;stroke:none"
             id="path6127" /></g></g></g><g
       id="g6129"
       transform="matrix(0.35277777,0,0,-0.35277777,220,141.61453)"><g
         id="g6131"><g
           id="g6137"><g
             id="g6139"><path
               d="m 454.495,186.376 -10e-4,-15.531 c 0,-3.611 -2.248,-7.284 -6.444,-8.253 v 0 c -4.198,-0.968 -6.445,1.667 -6.445,5.279 v 0 15.529 l -21.098,-4.882 v -7.009 c 0,-13.07 2.598,-19.771 9.751,-24.503 v 0 c -9.765,-12.02 -9.777,-20.218 -9.751,-28.58 v 0 -9.629 l 21.098,4.872 v 16.385 c 0,5.841 2.247,9.459 6.445,10.428 v 0 c 4.196,0.969 6.445,-1.61 6.445,-7.453 v 0 -16.384 l 21.099,4.87 v 9.629 c 0,8.369 0.001,16.577 -9.751,24.077 v 0 c 7.153,8.034 9.751,15.935 9.751,29.006 v 0 7.02 z"
               style="fill:url(#linearGradient6147);stroke:none"
               id="path6149" /></g></g></g></g><g
       id="g6151"
       transform="matrix(0.35277777,0,0,-0.35277777,220,141.61453)"><g
         id="g6153"
         clip-path="url(#clipPath6157)"><g
           id="g6159"><g
             id="g6161" /><g
             id="g6181"><g
               clip-path="url(#clipPath6165)"
               opacity="0.199997"
               id="g6179"><g
                 id="g6177"><g
                   clip-path="url(#clipPath6169)"
                   id="g6175"><g
                     transform="translate(89.1059,-125.9953)"
                     id="g6173"><path
                       d="M 0,0 -26.888,51.168 438.668,332.823 465.53,281.63 Z"
                       style="fill:#ffffff;fill-opacity:1;fill-rule:nonzero;stroke:none"
                       id="path6171" /></g></g></g></g></g></g><g
           id="g6183"
           transform="translate(385.8857,183.7107)"><path
             d="m 0,0 v -81.857 l 33.246,7.675 V 7.676 Z"
             style="fill:#000000;fill-opacity:1;fill-rule:nonzero;stroke:none"
             id="path6185" /></g></g></g><g
       id="g6187"
       transform="matrix(0.35277777,0,0,-0.35277777,220,141.61453)"><g
         id="g6189"><g
           id="g6195"><g
             id="g6197"><path
               d="m 391.946,179.049 v -69.735 l 21.125,4.877 v 69.735 z"
               style="fill:url(#linearGradient6203);stroke:none"
               id="path6205" /></g></g></g></g><g
       id="g6207"
       transform="matrix(0.35277777,0,0,-0.35277777,220,141.61453)"><g
         id="g6209"
         clip-path="url(#clipPath6213)"><g
           id="g6215"><g
             id="g6217" /><g
             id="g6237"><g
               clip-path="url(#clipPath6221)"
               opacity="0.199997"
               id="g6235"><g
                 id="g6233"><g
                   clip-path="url(#clipPath6225)"
                   id="g6231"><g
                     transform="translate(89.1059,-125.9953)"
                     id="g6229"><path
                       d="M 0,0 -26.888,51.168 438.668,332.823 465.53,281.63 Z"
                       style="fill:#ffffff;fill-opacity:1;fill-rule:nonzero;stroke:none"
                       id="path6227" /></g></g></g></g></g></g><g
           id="g6239"
           transform="translate(382.7148,166.742)"><path
             d="m 0,0 c -6.348,5.833 -14.967,7.701 -24.925,5.402 -5.437,-1.256 -10.132,-3.425 -14.808,-6.89 -4.675,1.305 -9.37,1.308 -14.807,0.052 -9.958,-2.298 -18.577,-8.146 -24.926,-16.911 -6.474,-8.938 -8.769,-17.095 -8.769,-31.171 v -43.27 L 8.77,-70.393 v 43.271 C 8.77,-13.046 6.476,-5.948 0,0"
             style="fill:#000000;fill-opacity:1;fill-rule:nonzero;stroke:none"
             id="path6241" /></g></g></g><g
       id="g6243"
       transform="matrix(0.35277777,0,0,-0.35277777,220,141.61453)"><g
         id="g6245"><g
           id="g6251"><g
             id="g6253"><path
               d="m 357.79,166.082 c -5.496,-1.268 -9.919,-3.565 -14.807,-7.812 v 0 c -4.889,1.989 -9.286,2.251 -14.808,0.976 v 0 c -8.16,-1.884 -15.174,-6.622 -20.353,-13.772 v 0 c -5.446,-7.52 -7.281,-14.223 -7.281,-26.85 v 0 -37.209 l 21.201,4.894 v 41.239 c 0,6.214 2.003,8.814 5.275,9.57 v 0 c 3.271,0.755 5.365,-0.899 5.365,-7.113 v 0 -41.24 l 21.201,4.895 v 41.239 c 0,6.214 2.093,8.835 5.365,9.591 v 0 c 3.271,0.755 5.275,-0.92 5.275,-7.135 v 0 -41.238 l 21.201,4.895 v 37.208 c 0,12.628 -1.835,18.483 -7.282,23.488 v 0 c -3.728,3.427 -8.396,5.166 -13.772,5.167 v 0 c -2.091,0 -4.288,-0.263 -6.58,-0.793"
               style="fill:url(#linearGradient6261);stroke:none"
               id="path6263" /></g></g></g></g><g
       id="g6265"
       transform="matrix(0.35277777,0,0,-0.35277777,220,141.61453)"><g
         id="g6267"
         clip-path="url(#clipPath6271)"><g
           id="g6273"><g
             id="g6275" /><g
             id="g6299"><g
               clip-path="url(#clipPath6279)"
               opacity="0.199997"
               id="g6297"><g
                 id="g6295"><g
                   clip-path="url(#clipPath6283)"
                   id="g6293"><g
                     transform="translate(11.0976,-48.7004)"
                     id="g6287"><path
                       d="M 0,0 -28.045,57.774 436.98,341.022 465.025,283.247 Z"
                       style="fill:#ffffff;fill-opacity:1;fill-rule:nonzero;stroke:none"
                       id="path6285" /></g><g
                     transform="translate(89.1059,-125.9953)"
                     id="g6291"><path
                       d="M 0,0 -26.888,51.168 438.668,332.823 465.53,281.63 Z"
                       style="fill:#ffffff;fill-opacity:1;fill-rule:nonzero;stroke:none"
                       id="path6289" /></g></g></g></g></g></g><g
           id="g6301"
           transform="translate(292.1269,151.0408)"><path
             d="M 0,0 C -6.058,6.719 -16.203,9.42 -26.475,7.048 -36.735,4.68 -46.873,-2.703 -52.932,-12.219 -58.143,-20.4 -60.08,-27.867 -60.08,-39.77 v -44.492 l 67.209,15.517 v 44.491 C 7.129,-12.336 5.197,-5.763 0,0"
             style="fill:#000000;fill-opacity:1;fill-rule:nonzero;stroke:none"
             id="path6303" /></g></g></g><g
       id="g6305"
       transform="matrix(0.35277777,0,0,-0.35277777,220,141.61453)"><g
         id="g6307"><g
           id="g6313"><g
             id="g6315"><path
               d="m 265.651,152.028 c -8.362,-1.93 -16.621,-7.894 -21.6,-15.71 v 0 c -4.363,-6.852 -5.943,-13.071 -5.943,-23.648 v 0 -38.431 l 21.072,4.866 v 15.303 l 12.942,2.968 V 82.092 l 21.074,4.865 v 38.43 c 0,10.578 -1.57,16.078 -5.926,20.908 v 0 c -3.777,4.188 -9.442,6.429 -15.604,6.429 v 0 c -1.97,0 -3.989,-0.228 -6.015,-0.696 m -5.685,-32.409 -5.636,4.526 7.808,3.024 3.513,8.266 3.514,-6.644 7.807,0.582 -5.636,-7.129 1.313,-7.906 -6.998,2.237 -6.996,-5.468 z"
               style="fill:url(#linearGradient6323);stroke:none"
               id="path6325" /></g></g></g></g><g
       id="g6327"
       transform="matrix(0.35277777,0,0,-0.35277777,220,141.61453)"><g
         id="g6329"
         clip-path="url(#clipPath6333)"><g
           id="g6335"><g
             id="g6337" /><g
             id="g6357"><g
               clip-path="url(#clipPath6341)"
               opacity="0.199997"
               id="g6355"><g
                 id="g6353"><g
                   clip-path="url(#clipPath6345)"
                   id="g6351"><g
                     transform="translate(11.0976,-48.7004)"
                     id="g6349"><path
                       d="M 0,0 -28.045,57.774 436.98,341.022 465.025,283.247 Z"
                       style="fill:#ffffff;fill-opacity:1;fill-rule:nonzero;stroke:none"
                       id="path6347" /></g></g></g></g></g></g><g
           id="g6359"
           transform="translate(232.9189,141.8025)"><path
             d="m 0,0 c -6.958,-0.211 -11.772,-0.804 -17.762,-2.187 -13.586,-3.136 -24.119,-9.69 -32.202,-20.038 -7.375,-9.441 -11.605,-21.385 -11.605,-32.77 0,-11.861 4.491,-21.82 12.647,-28.042 8.209,-6.265 17.428,-7.618 30.825,-4.525 5.86,1.353 10.241,2.837 18.031,6.109 l 4.935,2.072 V 0.148 Z"
             style="fill:#000000;fill-opacity:1;fill-rule:nonzero;stroke:none"
             id="path6361" /></g></g></g><g
       id="g6363"
       transform="matrix(0.35277777,0,0,-0.35277777,220,141.61453)"><g
         id="g6365"><g
           id="g6371"><g
             id="g6373"><path
               d="m 215.157,133.555 c -12.02,-2.775 -20.861,-8.244 -27.814,-17.145 v 0 c -6.376,-8.163 -9.932,-18.374 -9.932,-28.203 v 0 c 0,-10.268 3.861,-18.818 10.858,-24.157 v 0 c 7.026,-5.361 14.71,-6.482 26.553,-3.748 v 0 c 5.67,1.309 9.855,2.782 16.905,5.743 v 0 40.706 l -21.073,-4.866 V 81.091 c -7.538,-0.698 -12.427,3.927 -12.427,11.883 v 0 c 0,9.466 6.535,16.333 18.062,18.993 v 0 c 4.95,1.144 8.979,1.636 15.438,1.767 v 0 21.851 c -6.87,-0.208 -11.296,-0.813 -16.57,-2.03"
               style="fill:url(#linearGradient6381);stroke:none"
               id="path6383" /></g></g></g></g><g
       id="g6385"
       transform="matrix(0.35277777,0,0,-0.35277777,220,141.61453)"><g
         id="g6387"
         clip-path="url(#clipPath6391)"><g
           id="g6393"><g
             id="g6395" /><g
             id="g6415"><g
               clip-path="url(#clipPath6399)"
               opacity="0.199997"
               id="g6413"><g
                 id="g6411"><g
                   clip-path="url(#clipPath6403)"
                   id="g6409"><g
                     transform="translate(11.0976,-48.7004)"
                     id="g6407"><path
                       d="M 0,0 -28.045,57.774 436.98,341.022 465.025,283.247 Z"
                       style="fill:#ffffff;fill-opacity:1;fill-rule:nonzero;stroke:none"
                       id="path6405" /></g></g></g></g></g></g><g
           id="g6417"
           transform="translate(150.6953,130.1834)"><path
             d="m 0,0 c -8.871,-2.001 -15.528,-5.413 -20.375,-10.37 -6.122,-6.26 -9.632,-14.628 -9.632,-22.961 0,-5.827 1.539,-9.941 4.958,-12.797 -3.847,-4.977 -5.627,-10.507 -5.627,-17.127 0,-8.208 2.866,-14.344 8.289,-17.747 5.871,-3.684 12.095,-3.26 20.234,-1.381 l 28.214,6.514 V 6.017 Z"
             style="fill:#000000;fill-opacity:1;fill-rule:nonzero;stroke:none"
             id="path6419" /></g></g></g><g
       id="g6421"
       transform="matrix(0.35277777,0,0,-0.35277777,220,141.61453)"><g
         id="g6423"><g
           id="g6429"><g
             id="g6431"><path
               d="m 150.678,124.118 c -7.462,-1.701 -12.932,-4.44 -16.596,-8.187 v 0 c -4.644,-4.749 -7.333,-11.093 -7.333,-17.679 v 0 c 0,-6.767 2.393,-9.88 9.056,-11.808 v 0 C 128.756,81.065 126.08,76.046 126.08,68.328 v 0 c 0,-6.381 2.074,-11.062 6.175,-13.635 v 0 c 3.929,-2.466 8.028,-2.738 16.287,-0.832 v 0 l 22.153,5.115 v 19.561 l -14.048,-3.243 c -5.558,-1.283 -6.124,0.992 -6.124,2.561 v 0 c 0,1.467 0.566,4.075 6.124,5.356 v 0 l 14.048,3.245 v 14.736 l -14.048,-3.243 c -5.558,-1.284 -7.256,-0.767 -7.256,2.27 v 0 c 0,3.035 1.698,4.337 7.256,5.62 v 0 l 14.048,3.243 v 19.657 z"
               style="fill:url(#linearGradient6439);stroke:none"
               id="path6441" /></g></g></g></g><g
       id="g6443"
       transform="matrix(0.35277777,0,0,-0.35277777,220,141.61453)"><g
         id="g6445"
         clip-path="url(#clipPath6449)"><g
           id="g6451"><g
             id="g6453" /><g
             id="g6473"><g
               clip-path="url(#clipPath6457)"
               opacity="0.199997"
               id="g6471"><g
                 id="g6469"><g
                   clip-path="url(#clipPath6461)"
                   id="g6467"><g
                     transform="translate(11.0976,-48.7004)"
                     id="g6465"><path
                       d="M 0,0 -28.045,57.774 436.98,341.022 465.025,283.247 Z"
                       style="fill:#ffffff;fill-opacity:1;fill-rule:nonzero;stroke:none"
                       id="path6463" /></g></g></g></g></g></g><g
           id="g6475"
           transform="translate(117.2216,106.448)"><path
             d="m 0,0 c -6.348,5.832 -14.967,7.701 -24.925,5.401 -5.438,-1.255 -10.133,-3.424 -14.807,-6.89 -4.675,1.306 -9.371,1.309 -14.808,0.053 -9.958,-2.298 -18.577,-8.146 -24.925,-16.911 -6.475,-8.937 -8.77,-17.094 -8.77,-31.171 V -92.787 L 8.77,-70.392 v 43.27 C 8.77,-13.046 6.475,-5.948 0,0"
             style="fill:#000000;fill-opacity:1;fill-rule:nonzero;stroke:none"
             id="path6477" /></g></g></g><g
       id="g6479"
       transform="matrix(0.35277777,0,0,-0.35277777,220,141.61453)"><g
         id="g6481"><g
           id="g6487"><g
             id="g6489"><path
               d="m 92.297,105.789 c -5.496,-1.268 -9.919,-3.565 -14.808,-7.812 v 0 c -4.889,1.989 -9.285,2.251 -14.808,0.975 v 0 C 54.521,97.068 47.508,92.33 42.329,85.18 v 0 C 36.882,77.661 35.048,70.959 35.048,58.33 v 0 -37.209 l 21.201,4.894 v 41.238 c 0,6.216 2.003,8.816 5.275,9.571 v 0 c 3.272,0.756 5.365,-0.899 5.365,-7.114 v 0 -41.239 l 21.201,4.896 v 41.238 c 0,6.215 2.093,8.835 5.364,9.591 v 0 c 3.272,0.755 5.275,-0.92 5.275,-7.134 v 0 -41.239 l 21.201,4.895 v 37.208 c 0,12.629 -1.834,18.484 -7.282,23.489 v 0 c -3.728,3.426 -8.396,5.166 -13.772,5.166 v 0 c -2.09,0 -4.288,-0.263 -6.579,-0.792"
               style="fill:url(#linearGradient6497);stroke:none"
               id="path6499" /></g></g></g></g><g
       id="g6501"
       transform="matrix(0.35277777,0,0,-0.35277777,220,141.61453)"><g
         id="g6503"
         clip-path="url(#clipPath6507)"><g
           id="g6509"><g
             id="g6511" /><g
             id="g6531"><g
               clip-path="url(#clipPath6515)"
               opacity="0.199997"
               id="g6529"><g
                 id="g6527"><g
                   clip-path="url(#clipPath6519)"
                   id="g6525"><g
                     transform="translate(11.0976,-48.7004)"
                     id="g6523"><path
                       d="M 0,0 -28.045,57.774 436.98,341.022 465.025,283.247 Z"
                       style="fill:#ffffff;fill-opacity:1;fill-rule:nonzero;stroke:none"
                       id="path6521" /></g></g></g></g></g></g><g
           id="g6533"
           transform="translate(437.0132,117.8006)"><path
             d="m 0,0 -13.827,1.44 -6.658,12.252 -5.634,-12.765 -13.702,-2.549 10.36,-9.299 -1.781,-13.748 12.013,6.919 12.565,-6.018 -2.89,13.637 z"
             style="fill:#000000;fill-opacity:1;fill-rule:nonzero;stroke:none"
             id="path6535" /></g></g></g><g
       id="g6537"
       transform="matrix(0.35277777,0,0,-0.35277777,220,141.61453)"><g
         id="g6539"><g
           id="g6545"><g
             id="g6547"><path
               d="m 413.92,114.903 -7.333,-1.363 5.532,-4.966 -0.952,-7.359 6.432,3.706 6.715,-3.217 -1.543,7.282 5.121,5.429 -7.411,0.772 -3.551,6.534 z"
               style="fill:url(#radialGradient6555);stroke:none"
               id="path6557" /></g></g></g></g><g
       id="g6559"
       transform="matrix(0.35277777,0,0,-0.35277777,220,141.61453)"><g
         id="g6561"
         clip-path="url(#clipPath6565)"><g
           id="g6567"
           transform="translate(212.9297,136.6843)"><path
             d="M 0,0 4.867,11.193 -6.979,8.269 -16.128,16.35 -17.006,4.174 -27.524,-2.06 l 11.328,-4.57 2.629,-11.926 7.887,9.349 12.159,-1.172 z"
             style="fill:#000000;fill-opacity:1;fill-rule:nonzero;stroke:none"
             id="path6569" /></g></g></g><g
       id="g6571"
       transform="matrix(0.35277777,0,0,-0.35277777,220,141.61453)"><g
         id="g6573"><g
           id="g6579"><g
             id="g6581"><path
               d="m 199.615,138.575 -5.557,-3.294 5.995,-2.418 1.39,-6.303 4.167,4.939 6.408,-0.617 -3.422,5.48 2.573,5.918 -6.253,-1.544 -4.837,4.272 z"
               style="fill:url(#radialGradient6589);stroke:none"
               id="path6591" /></g></g></g></g><g
       id="g6593"
       transform="matrix(0.35277777,0,0,-0.35277777,220,141.61453)"><g
         id="g6595"
         clip-path="url(#clipPath6599)"><g
           id="g6601"
           transform="translate(44.3593,22.864)"><path
             d="m 0,0 2.591,13.045 -11.915,-5.866 -11.577,6.493 1.863,-13.14 -9.764,-9.038 13.1,-2.266 5.5,-12.092 6.271,11.768 13.205,1.549 z"
             style="fill:#000000;fill-opacity:1;fill-rule:nonzero;stroke:none"
             id="path6603" /></g></g></g><g
       id="g6605"
       transform="matrix(0.35277777,0,0,-0.35277777,220,141.61453)"><g
         id="g6607"><g
           id="g6613"><g
             id="g6615"><path
               d="m 29.413,21.941 -5.532,-5.12 7.436,-1.286 3.113,-6.845 3.551,6.664 7.462,0.876 -5.249,5.402 1.466,7.386 -6.741,-3.32 -6.561,3.68 z"
               style="fill:url(#radialGradient6623);stroke:none"
               id="path6625" /></g></g></g></g><g
       id="g6627"
       transform="matrix(0.35277777,0,0,-0.35277777,220,141.61453)"><g
         id="g6629"
         clip-path="url(#clipPath6633)"><g
           id="g6635"
           transform="translate(409.3261,195.7576)"><path
             d="M 0,0 V 6.326 L -1.59,-0.367 -3.313,-0.766 -4.866,5.203 V -1.124 L -6.494,-1.5 v 7.574 l 2.544,0.587 1.534,-5.653 0.019,0.005 1.496,6.352 2.51,0.579 V 0.371 Z m -11.756,-2.715 v 6.231 l -2.619,-0.605 v 1.343 l 6.928,1.6 V 4.511 L -9.972,3.928 v -6.231 z"
             style="fill:#ff5500;fill-opacity:1;fill-rule:nonzero;stroke:none"
             id="path6637" /></g><g
           id="g6639"
           transform="translate(387.2656,237.8836)"><path
             d="m 0,0 c 3.664,1.381 11.332,3.442 17.774,4.84 v 19.94 l -32.191,-7.432 v -53.295 l 32.191,7.432 v 8.878 c -4.227,-1.107 -12.985,-2.755 -16.82,-3.402 -4.669,-0.784 -5.334,5.163 -0.17,6.867 2.965,0.972 8.401,2.267 12.644,3.459 v 6.837 C 9.56,-6.66 4.328,-7.566 0.204,-8.146 -4.908,-8.878 -5.794,-2.181 0,0"
             style="fill:#ff5500;fill-opacity:1;fill-rule:nonzero;stroke:none"
             id="path6641" /></g><g
           id="g6643"
           transform="translate(357.3803,201.1599)"><path
             d="m 0,0 c -0.188,1.771 -3.251,2.172 -8.022,3.316 -8.342,2.072 -13.505,6.986 -12.978,15.619 0.561,9.318 5.279,15.817 30.247,20.057 V 19.608 C 0.237,18.481 -4.737,16.796 -6.847,15.07 -9.097,13.244 -8.965,10.254 -5.718,9.169 -4.307,8.698 -0.135,7.305 2.386,6.459 7.224,4.847 9.591,2.374 10.084,-2.002 11.478,-14.349 -10.868,-17.586 -20.081,-18.939 V -7.97 C -9.043,-5.746 0.426,-3.797 0,0"
             style="fill:#ff5500;fill-opacity:1;fill-rule:nonzero;stroke:none"
             id="path6645" /></g><g
           id="g6647"
           transform="translate(318.7256,197.9226)"><path
             d="m 0,0 v 47.511 l 12.014,2.773 V 2.773 Z"
             style="fill:#ff5500;fill-opacity:1;fill-rule:nonzero;stroke:none"
             id="path6649" /></g><g
           id="g6651"
           transform="translate(290.0112,189.9978)"><path
             d="m 0,0 c -3.307,-0.765 -4.737,0.342 -4.737,4.21 v 12.201 c 0,2.812 -0.146,5.058 2.522,5.812 5.794,1.635 12.269,-1.466 12.883,-7.772 C 11.383,7.124 7.307,1.687 0,0 M -12.883,40.678 V -11.145 C 12.167,-7.48 23.074,2.199 22.801,21.438 22.562,38.122 5.999,47.29 -12.883,40.678"
             style="fill:#ff5500;fill-opacity:1;fill-rule:nonzero;stroke:none"
             id="path6653" /></g><g
           id="g6655"
           transform="translate(255.2397,181.9744)"><path
             d="m 0,0 -6.05,-1.396 c -1.52,-0.352 -2.386,0.595 -2.198,2.708 0.17,1.977 1.057,6.169 1.397,7.6 0.716,2.966 2.216,4.414 3.937,4.67 C -0.136,14.025 1.21,11.997 2.284,6.885 2.386,6.407 2.676,5.368 2.795,3.971 3.033,1.125 2.149,0.496 0,0 M 10.6,22.716 C 7.43,33.111 4.864,35.677 -1.448,34.219 -7.014,32.935 -10.177,30.037 -12.832,19.87 -15.439,9.884 -18.322,-4.388 -20.64,-20.543 l 9.188,2.121 c 0.171,1.278 0.477,2.778 0.921,5.062 0.477,2.3 1.72,3.945 4.192,4.515 l 7.157,1.653 c 1.913,0.442 3.664,-1.073 4.277,-3.629 0.409,-1.704 0.938,-4.121 1.261,-5.741 l 12.168,2.81 C 17.041,-1.841 13.752,12.389 10.6,22.716"
             style="fill:#ff5500;fill-opacity:1;fill-rule:nonzero;stroke:none"
             id="path6657" /></g><g
           id="g6659"
           transform="translate(210.3706,185.9978)"><path
             d="m 0,0 c -3.121,-0.731 -4.859,1.007 -4.859,4.723 v 3.59 c 0,2.588 0.503,4.835 2.813,5.567 C 4.659,16.005 9.33,13.114 9.33,8.575 9.33,4.333 6.083,1.43 0,0 m 22.604,15.515 c 0,16.499 -16.144,21.289 -35.889,14.234 v -51.903 l 8.414,1.942 0.001,11.981 c 0,2.035 1.497,1.68 2.881,0.445 0.971,-0.868 6.814,-6.528 10.896,-10.598 l 12.846,2.965 c 0,0 -11.2,11.44 -12.492,12.572 7.523,2.813 13.343,10.143 13.343,18.362"
             style="fill:#ff5500;fill-opacity:1;fill-rule:nonzero;stroke:none"
             id="path6661" /></g><g
           id="g6663"
           transform="translate(177.3003,157.9099)"><path
             d="m 0,0 -6.049,-1.396 c -1.521,-0.352 -2.386,0.595 -2.199,2.708 0.171,1.977 1.057,6.169 1.398,7.601 0.715,2.965 2.215,4.413 3.936,4.669 C -0.136,14.025 1.21,11.997 2.284,6.885 2.386,6.407 2.676,5.368 2.795,3.971 3.034,1.125 2.149,0.496 0,0 M 10.6,22.716 C 7.43,33.111 4.865,35.677 -1.448,34.219 -7.014,32.935 -10.177,30.037 -12.832,19.87 c -2.607,-9.986 -5.49,-24.258 -7.807,-40.413 l 9.187,2.121 c 0.171,1.278 0.478,2.778 0.921,5.062 0.477,2.3 1.721,3.945 4.192,4.515 l 7.157,1.653 c 1.913,0.442 3.664,-1.073 4.278,-3.629 0.408,-1.704 0.937,-4.121 1.26,-5.741 l 12.168,2.81 C 17.042,-1.841 13.752,12.389 10.6,22.716"
             style="fill:#ff5500;fill-opacity:1;fill-rule:nonzero;stroke:none"
             id="path6665" /></g><g
           id="g6667"
           transform="translate(134.3906,167.9138)"><path
             d="m 0,0 c -3.783,-0.925 -5.964,0.068 -5.964,3.238 v 11.469 c 0,3.239 1.789,5.283 5.351,5.743 C 6.527,21.37 9.748,17.195 9.748,11.759 9.748,7.226 7.073,1.729 0,0 m -23.739,36.998 v -71.831 l 17.792,4.107 v 16.872 c 0,3.083 0.766,4.618 2.607,4.942 16.581,2.916 28.391,11.253 28.391,28.356 0.001,18.783 -20.177,28.886 -48.79,17.554"
             style="fill:#ff5500;fill-opacity:1;fill-rule:nonzero;stroke:none"
             id="path6669" /></g><g
           id="g6671"
           transform="translate(355.2251,337.6316)"><path
             d="m 0,0 c -4.914,-16.227 -7.695,-24.16 -10.118,-30.849 -4.13,-11.38 -8.412,-6.911 -10.408,-3.737 -2.321,3.72 -5.478,10.954 -10.955,24.212 l -13.531,-3.124 v -63.691 l 11.228,2.591 c -0.086,10.153 0.085,17.046 0.631,19.725 0.495,2.405 1.945,2.747 3.412,0.358 1.212,-1.963 3.123,-6.211 6.928,-14.947 l 7.523,1.736 c 4.146,11.143 6.383,16.76 7.97,19.507 1.279,2.236 3.719,3.805 4.453,-0.324 0.563,-3.123 0.512,-11.594 0.495,-21.968 l 11.637,2.687 V 2.14 Z"
             style="fill:#ffaa00;fill-opacity:1;fill-rule:nonzero;stroke:none"
             id="path6673" /></g><g
           id="g6675"
           transform="translate(290.4892,304.3767)"><path
             d="m 0,0 c -0.051,-8.702 -0.034,-16.637 -0.41,-19.537 -0.87,-6.928 -12.712,-10.05 -13.292,-3.669 -0.273,3.003 -0.511,6.971 -0.511,15.826 l -9.573,-2.21 v -58.354 l 12.2,2.816 c 0,9.266 0,13.291 0.154,16.465 0.426,8.36 12.984,10.255 14.077,2.985 0.494,-3.309 0.58,-4.896 0.58,-12.37 l 9.725,2.245 V 2.989 Z"
             style="fill:#ffaa00;fill-opacity:1;fill-rule:nonzero;stroke:none"
             id="path6677" /></g><g
           id="g6679"
           transform="translate(225.7529,299.5564)"><path
             d="m 0,0 v -23.488 l 6.808,1.571 c 4.129,0.953 5.836,0.416 5.836,-6.894 V -58.98 l 11.175,2.58 v 27.658 c 0,12.286 1.154,15.386 7.235,16.79 l 5.563,1.284 V 8.454 Z"
             style="fill:#ffaa00;fill-opacity:1;fill-rule:nonzero;stroke:none"
             id="path6681" /></g><g
           id="g6683"
           transform="translate(221.1801,284.0437)"><path
             d="m 0,0 -10.442,-2.411 c 0,0 0.153,-10.75 -0.256,-18.667 -0.598,-11.585 -12.269,-14.076 -13.207,-3.054 -0.478,5.784 -0.699,17.314 -0.699,17.314 l -12.985,-2.998 v -9.402 c 0,-22.437 14.588,-25.202 22.215,-18.803 0.461,0.392 0.922,0.631 1.297,0.46 0.427,-0.187 0.41,-0.648 0.239,-1.501 -0.461,-2.235 -3.771,-6.655 -10.459,-8.446 -5.102,-1.365 -10.101,-2.226 -12.593,-2.619 v -15.57 c 11.227,1.451 24.229,4.658 30.286,13.974 3.157,4.864 4.812,9.999 5.631,17.609 C 0.307,-22.136 0,0 0,0"
             style="fill:#ffaa00;fill-opacity:1;fill-rule:nonzero;stroke:none"
             id="path6685" /></g><g
           id="g6687"
           transform="translate(164.2758,285.0105)"><path
             d="m 0,0 c -0.051,-8.701 -0.034,-16.636 -0.41,-19.536 -0.87,-6.928 -12.711,-10.05 -13.292,-3.669 -0.273,3.003 -0.511,6.971 -0.511,15.826 l -9.573,-2.21 v -58.354 l 12.2,2.816 c 0,9.266 0,13.291 0.154,16.465 0.427,8.36 12.985,10.254 14.077,2.985 0.495,-3.309 0.58,-4.896 0.58,-12.37 l 9.726,2.245 V 2.99 Z"
             style="fill:#ffaa00;fill-opacity:1;fill-rule:nonzero;stroke:none"
             id="path6689" /></g><g
           id="g6691"
           transform="translate(100.7343,249.9129)"><path
             d="m 0,0 c -4.658,-1.092 -7.252,1.502 -7.252,7.047 v 5.358 c 0,3.865 0.751,7.217 4.198,8.31 10.007,3.17 16.977,-1.144 16.977,-7.918 C 13.923,6.467 9.077,2.133 0,0 m 33.733,23.154 c 0,24.621 -24.093,31.771 -53.56,21.243 v -79.48 l 12.558,2.899 v 19.899 c 0,3.037 2.235,2.509 4.3,0.666 1.45,-1.297 10.169,-9.743 16.261,-15.818 l 19.171,4.426 c 0,0 -16.714,17.074 -18.642,18.763 11.227,4.197 19.912,15.136 19.912,27.402"
             style="fill:#ffaa00;fill-opacity:1;fill-rule:nonzero;stroke:none"
             id="path6693" /></g></g></g></g></svg>
