<?xml version="1.0" encoding="UTF-8" standalone="no"?>
<!-- Created with Inkscape (http://www.inkscape.org/) -->

<svg
   version="1.1"
   id="svg1"
   width="666.66669"
   height="490.79199"
   viewBox="0 0 666.66669 490.79199"
   sodipodi:docname="Rhythm Heaven Megamix Logo (Wordmark).ai"
   xmlns:inkscape="http://www.inkscape.org/namespaces/inkscape"
   xmlns:sodipodi="http://sodipodi.sourceforge.net/DTD/sodipodi-0.dtd"
   xmlns="http://www.w3.org/2000/svg"
   xmlns:svg="http://www.w3.org/2000/svg">
  <defs
     id="defs1">
    <clipPath
       clipPathUnits="userSpaceOnUse"
       id="clipPath2">
      <path
         d="M 0,368.094 H 500 V 0 H 0 Z"
         transform="translate(-437.47781,-99.5092)"
         id="path2" />
    </clipPath>
    <clipPath
       clipPathUnits="userSpaceOnUse"
       id="clipPath4">
      <path
         d="M 0,368.094 H 500 V 0 H 0 Z"
         transform="translate(-405.06371,-179.2416)"
         id="path4" />
    </clipPath>
    <clipPath
       clipPathUnits="userSpaceOnUse"
       id="clipPath6">
      <path
         d="M 0,368.094 H 500 V 0 H 0 Z"
         transform="translate(-389.39671,-159.56091)"
         id="path6" />
    </clipPath>
    <clipPath
       clipPathUnits="userSpaceOnUse"
       id="clipPath8">
      <path
         d="M 0,368.094 H 500 V 0 H 0 Z"
         transform="translate(-269.6653,-105.7963)"
         id="path8" />
    </clipPath>
    <clipPath
       clipPathUnits="userSpaceOnUse"
       id="clipPath10">
      <path
         d="M 0,368.094 H 500 V 0 H 0 Z"
         transform="translate(-223.22151,-50.986704)"
         id="path10" />
    </clipPath>
    <clipPath
       clipPathUnits="userSpaceOnUse"
       id="clipPath12">
      <path
         d="M 0,368.094 H 500 V 0 H 0 Z"
         transform="translate(-128.8108,-37.158601)"
         id="path12" />
    </clipPath>
    <clipPath
       clipPathUnits="userSpaceOnUse"
       id="clipPath14">
      <path
         d="M 0,368.094 H 500 V 0 H 0 Z"
         transform="translate(-88.074002,-91.130305)"
         id="path14" />
    </clipPath>
    <clipPath
       clipPathUnits="userSpaceOnUse"
       id="clipPath16">
      <path
         d="M 0,368.094 H 500 V 0 H 0 Z"
         transform="translate(-404.17991,-207.76021)"
         id="path16" />
    </clipPath>
    <clipPath
       clipPathUnits="userSpaceOnUse"
       id="clipPath18">
      <path
         d="M 0,368.094 H 500 V 0 H 0 Z"
         transform="translate(-368.61351,-282.9247)"
         id="path18" />
    </clipPath>
    <clipPath
       clipPathUnits="userSpaceOnUse"
       id="clipPath20">
      <path
         d="M 0,368.094 H 500 V 0 H 0 Z"
         transform="translate(-310.98661,-205.57021)"
         id="path20" />
    </clipPath>
    <clipPath
       clipPathUnits="userSpaceOnUse"
       id="clipPath22">
      <path
         d="M 0,368.094 H 500 V 0 H 0 Z"
         transform="translate(-273.99541,-250.6864)"
         id="path22" />
    </clipPath>
    <clipPath
       clipPathUnits="userSpaceOnUse"
       id="clipPath24">
      <path
         d="M 0,368.094 H 500 V 0 H 0 Z"
         transform="translate(-229.1389,-183.6234)"
         id="path24" />
    </clipPath>
    <clipPath
       clipPathUnits="userSpaceOnUse"
       id="clipPath26">
      <path
         d="M 0,368.094 H 500 V 0 H 0 Z"
         transform="translate(-181.4719,-171.475)"
         id="path26" />
    </clipPath>
    <clipPath
       clipPathUnits="userSpaceOnUse"
       id="clipPath28">
      <path
         d="M 0,368.094 H 500 V 0 H 0 Z"
         transform="translate(-139.9602,-221.9545)"
         id="path28" />
    </clipPath>
    <clipPath
       clipPathUnits="userSpaceOnUse"
       id="clipPath30">
      <path
         d="M 0,368.094 H 500 V 0 H 0 Z"
         transform="translate(-356.34011,-365.66931)"
         id="path30" />
    </clipPath>
    <clipPath
       clipPathUnits="userSpaceOnUse"
       id="clipPath32">
      <path
         d="M 0,368.094 H 500 V 0 H 0 Z"
         transform="translate(-282.96121,-327.97311)"
         id="path32" />
    </clipPath>
    <clipPath
       clipPathUnits="userSpaceOnUse"
       id="clipPath34">
      <path
         d="M 0,368.094 H 500 V 0 H 0 Z"
         transform="translate(-209.58231,-322.50971)"
         id="path34" />
    </clipPath>
    <clipPath
       clipPathUnits="userSpaceOnUse"
       id="clipPath36">
      <path
         d="M 0,368.094 H 500 V 0 H 0 Z"
         transform="translate(-204.39921,-304.92521)"
         id="path36" />
    </clipPath>
    <clipPath
       clipPathUnits="userSpaceOnUse"
       id="clipPath38">
      <path
         d="M 0,368.094 H 500 V 0 H 0 Z"
         transform="translate(-139.89771,-306.02241)"
         id="path38" />
    </clipPath>
    <clipPath
       clipPathUnits="userSpaceOnUse"
       id="clipPath40">
      <path
         d="M 0,368.094 H 500 V 0 H 0 Z"
         transform="translate(-67.872802,-266.23821)"
         id="path40" />
    </clipPath>
  </defs>
  <sodipodi:namedview
     id="namedview1"
     pagecolor="#ffffff"
     bordercolor="#000000"
     borderopacity="0.25"
     inkscape:showpageshadow="2"
     inkscape:pageopacity="0.0"
     inkscape:pagecheckerboard="0"
     inkscape:deskcolor="#d1d1d1">
    <inkscape:page
       x="0"
       y="0"
       inkscape:label="1"
       id="page1"
       width="666.66669"
       height="490.79199"
       margin="0"
       bleed="0" />
  </sodipodi:namedview>
  <g
     id="layer-MC0"
     inkscape:groupmode="layer"
     inkscape:label="Layer 1">
    <path
       id="path1"
       d="M 0,0 V 10.929 C -0.029,20.419 -0.016,29.723 11.067,43.364 2.949,48.735 0,56.34 0,71.175 v 7.954 L 23.946,84.67 V 67.045 c 0,-4.1 2.551,-7.09 7.314,-5.99 4.763,1.099 7.313,5.267 7.313,9.367 l 0.003,17.626 23.946,5.528 V 85.609 C 62.522,70.774 59.573,61.808 51.454,52.688 62.522,44.176 62.522,34.86 62.522,25.362 V 14.435 L 38.576,8.906 v 18.596 c 0,6.631 -2.553,9.559 -7.316,8.459 -4.763,-1.1 -7.314,-5.206 -7.314,-11.837 V 5.528 Z"
       style="fill:#000000;fill-opacity:1;fill-rule:nonzero;stroke:none"
       transform="matrix(1.3333333,0,0,-1.3333333,583.30373,358.11307)"
       clip-path="url(#clipPath2)" />
    <path
       id="path3"
       d="M 0,0 23.975,5.535 V -73.611 L 0,-79.146 Z"
       style="fill:#000000;fill-opacity:1;fill-rule:nonzero;stroke:none"
       transform="matrix(1.3333333,0,0,-1.3333333,540.08493,251.8032)"
       clip-path="url(#clipPath4)" />
    <path
       id="path5"
       d="m 0,0 c -5.878,5.4 -13.811,7.109 -23.1,4.965 -6.237,-1.441 -11.256,-4.048 -16.805,-8.868 -5.548,2.258 -10.538,2.554 -16.806,1.108 -9.262,-2.139 -17.221,-7.516 -23.099,-15.631 -6.182,-8.534 -8.264,-16.141 -8.264,-30.473 V -91.13 l 24.062,5.555 v 46.804 c 0,7.053 2.274,10.004 5.987,10.861 3.713,0.857 6.088,-1.02 6.088,-8.073 v -46.804 l 24.063,5.555 v 46.804 c 0,7.053 2.376,10.028 6.089,10.885 3.713,0.857 5.986,-1.044 5.986,-8.098 v -46.803 l 24.063,5.555 v 42.231 C 8.264,-12.325 6.182,-5.681 0,0"
       style="fill:#000000;fill-opacity:1;fill-rule:nonzero;stroke:none"
       transform="matrix(1.3333333,0,0,-1.3333333,519.1956,278.04413)"
       clip-path="url(#clipPath6)" />
    <path
       id="path7"
       d="m 0,0 -7.94,2.539 -7.942,-6.205 1.489,9.66 -6.397,5.138 8.861,3.431 3.989,9.381 3.987,-7.54 8.861,0.66 -6.396,-8.09 z M 16.595,36.27 C 10.938,42.543 1.55,44.969 -7.94,42.777 -17.432,40.586 -26.806,33.818 -32.456,24.946 -37.408,17.17 -39.202,10.111 -39.202,-1.893 V -45.51 l 23.917,5.522 v 17.369 l 14.688,3.37 v -17.348 l 23.917,5.522 v 43.616 c 0,12.005 -1.781,18.248 -6.725,23.729"
       style="fill:#000000;fill-opacity:1;fill-rule:nonzero;stroke:none"
       transform="matrix(1.3333333,0,0,-1.3333333,359.55373,349.73027)"
       clip-path="url(#clipPath8)" />
    <path
       id="path9"
       d="m 0,0 c -8.001,-3.36 -12.75,-5.032 -19.186,-6.518 -13.441,-3.103 -22.163,-1.83 -30.136,4.254 -7.942,6.06 -12.324,15.763 -12.324,27.417 0,11.156 4.036,22.745 11.272,32.009 7.891,10.102 17.926,16.31 31.568,19.459 5.985,1.382 11.009,2.067 18.806,2.304 v -24.8 c -7.33,-0.148 -11.903,-0.707 -17.521,-2.005 -13.083,-3.019 -20.5,-10.813 -20.5,-21.558 0,-9.03 5.548,-14.277 14.104,-13.486 V 40.678 L 0,46.199 Z"
       style="fill:#000000;fill-opacity:1;fill-rule:nonzero;stroke:none"
       transform="matrix(1.3333333,0,0,-1.3333333,297.62867,422.80973)"
       clip-path="url(#clipPath10)" />
    <path
       id="path11"
       d="m 0,0 c -9.374,-2.163 -14.026,-1.854 -18.485,0.944 -4.655,2.921 -7.009,8.233 -7.009,15.475 0,8.761 3.037,14.456 11.039,20.561 -7.564,2.189 -10.279,5.721 -10.279,13.402 0,7.475 3.052,14.674 8.322,20.064 4.159,4.252 10.367,7.362 18.836,9.292 l 22.719,5.245 V 62.673 L 9.199,58.992 C 2.891,57.536 0.964,56.06 0.964,52.613 c 0,-3.445 1.927,-4.032 8.235,-2.576 l 15.944,3.682 V 36.993 L 9.199,33.313 c -6.308,-1.458 -6.95,-4.416 -6.95,-6.081 0,-1.781 0.642,-4.364 6.95,-2.908 l 15.944,3.682 v -22.2 z"
       style="fill:#000000;fill-opacity:1;fill-rule:nonzero;stroke:none"
       transform="matrix(1.3333333,0,0,-1.3333333,171.74773,441.2472)"
       clip-path="url(#clipPath12)" />
    <path
       id="path13"
       d="m 0,0 c -5.878,5.4 -13.81,7.109 -23.099,4.965 -6.237,-1.441 -11.257,-4.048 -16.806,-8.868 -5.548,2.258 -10.538,2.554 -16.806,1.108 -9.261,-2.139 -17.221,-7.516 -23.099,-15.631 -6.182,-8.534 -8.264,-16.141 -8.264,-30.473 V -91.13 l 24.062,5.555 v 46.804 c 0,7.053 2.274,10.004 5.987,10.861 3.713,0.857 6.089,-1.02 6.089,-8.073 v -46.804 l 24.062,5.555 v 46.804 c 0,7.053 2.376,10.028 6.089,10.885 3.713,0.857 5.987,-1.044 5.987,-8.098 v -46.803 l 24.062,5.555 v 42.231 C 8.264,-12.325 6.182,-5.681 0,0"
       style="fill:#000000;fill-opacity:1;fill-rule:nonzero;stroke:none"
       transform="matrix(1.3333333,0,0,-1.3333333,117.432,369.28493)"
       clip-path="url(#clipPath14)" />
    <path
       id="path15"
       d="M 0,0 V 7.229 L -1.817,-0.419 -3.785,-0.874 -5.56,5.945 v -7.228 l -1.86,-0.43 V 6.94 l 2.906,0.672 1.753,-6.46 0.022,0.005 1.709,7.259 2.869,0.662 V 0.425 Z m -13.433,-3.101 v 7.119 l -2.993,-0.691 v 1.529 l 7.917,1.828 V 5.154 L -11.395,4.488 V -2.63 Z"
       style="fill:#000000;fill-opacity:1;fill-rule:nonzero;stroke:none"
       transform="matrix(1.3333333,0,0,-1.3333333,538.90653,213.7784)"
       clip-path="url(#clipPath16)" />
    <path
       id="path17"
       d="m 0,0 c 0,0 -0.116,-30.515 -0.496,-35.883 -0.594,-8.384 -2.847,-8.609 -4.764,-7.351 -3.825,2.509 -10.972,16.8 -17.373,29.228 l -9.337,-2.156 v -77.22 l 11.417,2.635 0.039,19.594 c 0.02,10.058 2.766,10.713 6.756,7.059 3.029,-2.773 7.149,-8.886 13.642,-19.282 l 15.107,3.488 V 3.461 Z"
       style="fill:#000000;fill-opacity:1;fill-rule:nonzero;stroke:none"
       transform="matrix(1.3333333,0,0,-1.3333333,491.48467,113.55907)"
       clip-path="url(#clipPath18)" />
    <path
       id="path19"
       d="m 0,0 c -0.347,-0.002 -2.911,0.085 -3.186,2.042 -0.158,1.133 0.386,2.197 1.754,3.034 2.14,1.309 9.547,3.438 16.657,5.106 v 9.831 c 0,0 -12.873,-3.098 -16.832,-2.509 -1.203,0.179 -2.003,0.814 -2.163,1.925 -0.163,1.135 0.41,2.159 1.753,3.034 3.621,2.358 19.872,5.864 19.872,5.864 v 22.684 l -33.459,-7.724 v -60.47 l 34.161,7.887 V 3.268 C 9.438,1.196 3.276,0.018 0,0"
       style="fill:#000000;fill-opacity:1;fill-rule:nonzero;stroke:none"
       transform="matrix(1.3333333,0,0,-1.3333333,414.6488,216.6984)"
       clip-path="url(#clipPath20)" />
    <path
       id="path21"
       d="m 0,0 c 0,0 -3.624,-23.881 -6.843,-34.918 -0.92,-3.153 -3.142,-7.978 -6.166,-1.079 -1.083,2.471 -4.298,14.016 -6.656,28.899 l -10.439,-2.41 c 0.914,-10.234 5.924,-37.874 12.601,-53.976 l 20.245,4.674 c 7.452,19.721 11.923,40.55 13.443,62.546 z"
       style="fill:#000000;fill-opacity:1;fill-rule:nonzero;stroke:none"
       transform="matrix(1.3333333,0,0,-1.3333333,365.3272,156.54347)"
       clip-path="url(#clipPath22)" />
    <path
       id="path23"
       d="m 0,0 c -1.612,-0.352 -5.281,-1.28 -7.155,-1.631 -1.794,-0.351 -2.843,0.66 -2.621,3.221 0.202,2.395 1.254,7.474 1.653,9.189 0.883,3.792 2.617,5.373 4.656,5.658 2.614,0.364 4.898,-1.92 6.148,-8.116 C 2.802,7.723 3.107,6.479 3.306,4.791 3.547,2.739 2.54,0.64 0,0 m 8.923,34.233 c -5.067,9.335 -10.959,7.4 -13.978,6.402 -3.955,-1.309 -7.466,-3.341 -11.139,-17.913 -3.862,-15.317 -8.066,-47.493 -8.066,-47.493 l 10.6,2.447 1.089,6.1 c 0.526,2.947 2.402,4.819 5.26,5.661 0,0 8.213,2.13 11.017,2.45 1.185,0.134 2.576,-0.801 2.981,-2.656 l 1.432,-6.563 14.436,3.333 c 0,0 -7.181,36.348 -13.632,48.232"
       style="fill:#000000;fill-opacity:1;fill-rule:nonzero;stroke:none"
       transform="matrix(1.3333333,0,0,-1.3333333,305.51853,245.9608)"
       clip-path="url(#clipPath24)" />
    <path
       id="path25"
       d="m 0,0 c -0.347,-0.002 -2.911,0.085 -3.186,2.042 -0.158,1.133 0.386,2.197 1.754,3.034 2.14,1.309 9.547,3.438 16.657,5.105 v 9.832 c 0,0 -12.873,-3.098 -16.832,-2.509 -1.203,0.179 -2.004,0.813 -2.163,1.925 -0.163,1.135 0.409,2.159 1.753,3.034 3.621,2.358 19.872,5.863 19.872,5.863 v 24.451 l -33.46,-7.725 V -15.417 L 18.556,-7.53 V 3.268 C 9.438,1.195 3.276,0.018 0,0"
       style="fill:#000000;fill-opacity:1;fill-rule:nonzero;stroke:none"
       transform="matrix(1.3333333,0,0,-1.3333333,241.96253,262.15867)"
       clip-path="url(#clipPath26)" />
    <path
       id="path27"
       d="m 0,0 c 0,-12.067 0.061,-21.098 -1.592,-27.016 -1.004,-3.594 -3.215,-6.33 -6.166,-8.401 -3.006,-2.109 -6.02,-3.034 -8.971,-3.093 -3.6,-0.07 -6.23,1.888 -6.615,5.887 -0.552,5.744 -0.516,13.004 -0.516,23.064 l -13.062,-3.016 v -88.977 l 17.943,4.143 c 0,11.323 0.231,19.67 1.627,24.876 0.952,3.548 3.539,6.542 6.15,8.305 3.053,2.062 5.861,3.093 8.819,3.141 3.594,0.059 6.323,-1.797 6.662,-5.382 0.497,-5.251 0.53,-12.391 0.53,-22.136 l 13.295,3.069 V 4.18 Z"
       style="fill:#000000;fill-opacity:1;fill-rule:nonzero;stroke:none"
       transform="matrix(1.3333333,0,0,-1.3333333,186.6136,194.85267)"
       clip-path="url(#clipPath28)" />
    <path
       id="path29"
       d="m 0,0 c -5.57,-18.393 -8.723,-27.387 -11.469,-34.968 -4.68,-12.901 -9.535,-7.833 -11.798,-4.236 -2.63,4.216 -6.209,12.417 -12.417,27.445 l -15.337,-3.54 v -72.197 l 12.726,2.938 c -0.097,11.508 0.097,19.321 0.716,22.358 0.561,2.727 2.205,3.114 3.868,0.406 1.373,-2.224 3.54,-7.04 7.853,-16.942 l 8.527,1.968 c 4.699,12.63 7.235,18.997 9.034,22.111 1.45,2.533 4.216,4.313 5.048,-0.368 0.638,-3.539 0.58,-13.141 0.561,-24.9 l 13.19,3.045 V 2.424 Z"
       style="fill:#000000;fill-opacity:1;fill-rule:nonzero;stroke:none"
       transform="matrix(1.3333333,0,0,-1.3333333,475.12013,3.2329333)"
       clip-path="url(#clipPath30)" />
    <path
       id="path31"
       d="m 0,0 c -0.058,-9.864 -0.038,-18.857 -0.464,-22.145 -0.986,-7.852 -14.409,-11.392 -15.066,-4.158 -0.31,3.404 -0.58,7.901 -0.58,17.939 l -10.851,-2.505 v -66.146 l 13.829,3.193 c 0,10.502 0,15.065 0.174,18.662 0.483,9.477 14.718,11.624 15.956,3.385 0.561,-3.752 0.657,-5.551 0.657,-14.022 l 11.025,2.545 V 3.389 Z"
       style="fill:#000000;fill-opacity:1;fill-rule:nonzero;stroke:none"
       transform="matrix(1.3333333,0,0,-1.3333333,377.2816,53.494533)"
       clip-path="url(#clipPath32)" />
    <path
       id="path33"
       d="m 0,0 v -26.625 l 7.717,1.782 c 4.68,1.081 6.615,0.471 6.615,-7.813 V -66.833 L 27,-63.93 v 31.351 c 0,13.926 1.308,17.44 8.2,19.031 l 6.306,1.456 V 9.583 Z"
       style="fill:#000000;fill-opacity:1;fill-rule:nonzero;stroke:none"
       transform="matrix(1.3333333,0,0,-1.3333333,279.44307,60.779067)"
       clip-path="url(#clipPath34)" />
    <path
       id="path35"
       d="m 0,0 -11.836,-2.732 c 0,0 0.173,-12.185 -0.29,-21.159 -0.678,-13.133 -13.907,-15.957 -14.97,-3.463 -0.542,6.557 -0.793,19.625 -0.793,19.625 l -14.718,-3.397 v -10.657 c 0,-25.433 16.536,-28.567 25.181,-21.314 0.522,0.445 1.044,0.716 1.47,0.523 0.483,-0.213 0.464,-0.736 0.271,-1.702 -0.523,-2.534 -4.274,-7.543 -11.856,-9.574 -5.783,-1.547 -11.45,-2.524 -14.273,-2.968 v -17.649 c 12.726,1.644 27.463,5.279 34.329,15.84 3.578,5.512 5.454,11.334 6.382,19.96 C 0.348,-25.09 0,0 0,0"
       style="fill:#000000;fill-opacity:1;fill-rule:nonzero;stroke:none"
       transform="matrix(1.3333333,0,0,-1.3333333,272.53227,84.225067)"
       clip-path="url(#clipPath36)" />
    <path
       id="path37"
       d="m 0,0 c -0.058,-9.864 -0.039,-18.857 -0.464,-22.146 -0.987,-7.852 -14.409,-11.391 -15.067,-4.158 -0.309,3.404 -0.58,7.901 -0.58,17.939 l -10.85,-2.505 v -66.145 l 13.829,3.193 c 0,10.502 0,15.065 0.174,18.662 0.483,9.477 14.718,11.624 15.956,3.385 0.561,-3.752 0.657,-5.551 0.657,-14.022 l 11.025,2.545 V 3.389 Z"
       style="fill:#000000;fill-opacity:1;fill-rule:nonzero;stroke:none"
       transform="matrix(1.3333333,0,0,-1.3333333,186.53027,82.762133)"
       clip-path="url(#clipPath38)" />
    <path
       id="path39"
       d="m 0,0 c -5.28,-1.238 -8.22,1.702 -8.22,7.988 v 6.073 c 0,4.38 0.851,8.181 4.758,9.418 C 7.881,27.074 15.782,22.184 15.782,14.506 15.782,7.33 10.289,2.417 0,0 m 38.236,26.246 c 0,27.908 -27.309,36.012 -60.71,24.079 v -90.092 l 14.235,3.287 v 22.555 c 0,3.443 2.533,2.843 4.874,0.754 1.643,-1.47 11.527,-11.044 18.431,-17.929 l 21.731,5.017 c 0,0 -18.945,19.353 -21.131,21.267 12.726,4.758 22.57,17.157 22.57,31.062"
       style="fill:#000000;fill-opacity:1;fill-rule:nonzero;stroke:none"
       transform="matrix(1.3333333,0,0,-1.3333333,90.497067,135.80773)"
       clip-path="url(#clipPath40)" />
  </g>
</svg>
