<?xml version="1.0" encoding="UTF-8" standalone="no"?>
<!-- Created with Inkscape (http://www.inkscape.org/) -->

<svg
   version="1.1"
   id="svg2"
   width="666.66669"
   height="566.8573"
   viewBox="0 0 666.66669 566.8573"
   sodipodi:docname="Rhythm Heaven Megamix Logo (Print).ai"
   xmlns:inkscape="http://www.inkscape.org/namespaces/inkscape"
   xmlns:sodipodi="http://sodipodi.sourceforge.net/DTD/sodipodi-0.dtd"
   xmlns="http://www.w3.org/2000/svg"
   xmlns:svg="http://www.w3.org/2000/svg">
  <defs
     id="defs6">
    <clipPath
       clipPathUnits="userSpaceOnUse"
       id="clipPath16">
      <path
         d="M 0,425.143 H 500 V 0 H 0 Z"
         id="path14" />
    </clipPath>
  </defs>
  <sodipodi:namedview
     id="namedview4"
     pagecolor="#ffffff"
     bordercolor="#000000"
     borderopacity="0.25"
     inkscape:showpageshadow="2"
     inkscape:pageopacity="0.0"
     inkscape:pagecheckerboard="0"
     inkscape:deskcolor="#d1d1d1" />
  <g
     id="g8"
     inkscape:groupmode="layer"
     inkscape:label="Rhythm Heaven Megamix Logo (Print)"
     transform="matrix(1.3333333,0,0,-1.3333333,0,566.85733)">
    <g
       id="g10">
      <g
         id="g12"
         clip-path="url(#clipPath16)">
        <g
           id="g18"
           transform="translate(423.9597,334.5152)">
          <path
             d="m 0,0 c -4.802,50.771 -47.721,90.628 -99.783,90.628 -37.374,0 -71.167,-20.916 -88.343,-52.849 -10.797,3.796 -22.225,5.76 -33.828,5.76 -18.123,0 -35.978,-4.894 -51.479,-13.963 -14.405,7.818 -30.462,11.9 -47.114,11.9 -54.724,0 -99.245,-44.59 -99.245,-99.398 0,-37.66 21.11,-71.354 53.358,-88.173 -2.427,-7.654 -3.674,-15.666 -3.674,-23.813 0,-44.375 36.963,-80.476 82.397,-80.476 27.526,0 52.152,13.091 67.167,33.728 18.302,-16.947 42.548,-26.722 68.468,-26.722 41.889,0 78.828,25.891 93.766,63.654 2.463,-0.185 4.932,-0.279 7.404,-0.279 54.041,0 98.006,43.545 98.006,97.068 C 47.1,-48.845 28.954,-17.458 0,0"
             style="fill:#000000;fill-opacity:1;fill-rule:nonzero;stroke:none"
             id="path20" />
        </g>
        <g
           id="g22"
           transform="translate(413.2976,327.8059)">
          <path
             d="m 0,0 c -1.479,47.82 -40.889,86.271 -89.121,86.271 -36.657,0 -69.441,-22.615 -82.81,-56.043 -12.212,5.879 -25.647,8.954 -39.361,8.954 -18.592,0 -36.202,-5.463 -51.282,-15.855 -14.139,9.04 -30.378,13.792 -47.311,13.792 -48.622,0 -88.179,-39.626 -88.179,-88.332 0,-36.879 22.768,-69.475 56.459,-82.446 -4.453,-9.192 -6.775,-19.242 -6.775,-29.539 0,-38.273 31.999,-69.41 71.331,-69.41 28.831,0 53.98,16.518 65.171,41.094 16.823,-21.358 42.554,-34.088 70.464,-34.088 40.188,0 75.256,26.755 86.207,64.659 4.941,-0.853 9.948,-1.284 14.963,-1.284 47.939,0 86.94,38.58 86.94,86.002 C 46.696,-44.143 28.53,-14.757 0,0"
             style="fill:#ffffff;fill-opacity:1;fill-rule:nonzero;stroke:none"
             id="path24" />
        </g>
        <g
           id="g26"
           transform="translate(405.5267,322.9342)">
          <path
             d="m 0,0 c 0.018,0.697 0.053,1.389 0.053,2.09 0,44.896 -36.445,81.291 -81.403,81.291 -37.407,0 -68.899,-25.206 -78.429,-59.531 -12.662,7.87 -27.655,12.443 -43.742,12.443 -19.34,0 -37.102,-6.599 -51.123,-17.61 -13.305,9.767 -29.711,15.547 -47.47,15.547 -44.413,0 -80.418,-36.073 -80.418,-80.571 0,-37.508 25.582,-69.027 60.218,-78.006 -6.651,-9.743 -10.534,-21.419 -10.534,-33.98 0,-34.048 28.461,-61.649 63.57,-61.649 31.536,0 57.695,22.274 62.695,51.482 13.594,-26.401 41.143,-44.475 72.94,-44.475 39.896,0 73.119,28.438 80.451,66.099 6.606,-1.766 13.548,-2.724 20.719,-2.724 43.729,0 79.179,35.029 79.179,78.24 C 46.706,-39.582 27.53,-12.253 0,0"
             style="fill:#000000;fill-opacity:1;fill-rule:nonzero;stroke:none"
             id="path28" />
        </g>
        <path
           d="m 394.237,173.18 h 4.794 v 4.794 h -4.794 z"
           style="fill:#000000;fill-opacity:1;fill-rule:nonzero;stroke:none"
           id="path30" />
        <g
           id="g32"
           transform="translate(500,213.1605)">
          <path
             d="m 0,0 -72.098,-16.66 v -87.792 L 0,-87.807 v 16.834 c 0,8.345 -0.001,17.657 -8.131,26.198 C -2.349,-36.292 0,-27.087 0,-14.032 Z"
             style="fill:#000000;fill-opacity:1;fill-rule:nonzero;stroke:none"
             id="path34" />
        </g>
        <g
           id="g36"
           transform="translate(434.4041,116.7112)">
          <path
             d="M 0,0 V 10.329 C -0.028,19.3 -0.015,28.093 10.461,40.987 2.787,46.063 0,53.252 0,67.273 v 7.518 l 22.633,5.238 V 63.37 c 0,-3.875 2.411,-6.702 6.913,-5.662 4.502,1.039 6.913,4.979 6.913,8.854 l 0.002,16.659 22.634,5.225 v -7.53 C 59.095,66.895 56.307,58.419 48.634,49.8 59.095,41.754 59.095,32.949 59.095,23.972 V 13.643 L 36.461,8.418 v 17.576 c 0,6.268 -2.413,9.035 -6.915,7.995 -4.502,-1.039 -6.913,-4.92 -6.913,-11.187 V 5.225 Z"
             style="fill:#ffffff;fill-opacity:1;fill-rule:nonzero;stroke:none"
             id="path38" />
        </g>
        <g
           id="g40"
           transform="translate(397.2649,197.0732)">
          <path
             d="m 0,0 v -87.811 l 35.664,8.234 V 8.234 Z"
             style="fill:#000000;fill-opacity:1;fill-rule:nonzero;stroke:none"
             id="path42" />
        </g>
        <g
           id="g44"
           transform="translate(403.7665,192.0726)">
          <path
             d="M 0,0 22.661,5.232 V -69.576 L 0,-74.808 Z"
             style="fill:#ffffff;fill-opacity:1;fill-rule:nonzero;stroke:none"
             id="path46" />
        </g>
        <g
           id="g48"
           transform="translate(393.8636,178.8701)">
          <path
             d="m 0,0 c -6.809,6.257 -16.056,8.261 -26.738,5.795 -5.832,-1.346 -10.869,-3.674 -15.885,-7.392 -5.015,1.402 -10.052,1.404 -15.884,0.058 -10.683,-2.467 -19.929,-8.74 -26.739,-18.142 -6.945,-9.589 -9.407,-18.339 -9.407,-33.438 V -99.537 L 9.408,-75.512 v 46.418 C 9.408,-13.995 6.946,-6.381 0,0"
             style="fill:#000000;fill-opacity:1;fill-rule:nonzero;stroke:none"
             id="path50" />
        </g>
        <g
           id="g52"
           transform="translate(388.9582,173.4709)">
          <path
             d="m 0,0 c -5.556,5.105 -13.053,6.719 -21.833,4.693 -5.895,-1.362 -10.64,-3.826 -15.884,-8.382 -5.244,2.134 -9.961,2.415 -15.885,1.047 -8.753,-2.021 -16.277,-7.104 -21.833,-14.773 -5.843,-8.067 -7.811,-15.257 -7.811,-28.804 v -39.915 l 22.744,5.25 v 44.239 c 0,6.666 2.148,9.455 5.658,10.265 3.51,0.811 5.755,-0.964 5.755,-7.63 v -44.239 l 22.743,5.251 v 44.238 c 0,6.667 2.246,9.478 5.755,10.288 3.51,0.811 5.659,-0.986 5.659,-7.653 v -44.238 l 22.743,5.251 v 39.915 C 7.811,-11.65 5.843,-5.369 0,0"
             style="fill:#ffffff;fill-opacity:1;fill-rule:nonzero;stroke:none"
             id="path54" />
        </g>
        <g
           id="g56"
           transform="translate(296.6866,162.0274)">
          <path
             d="M 0,0 C -6.499,7.207 -17.382,10.104 -28.401,7.56 -39.407,5.019 -50.282,-2.9 -56.783,-13.108 c -5.589,-8.776 -7.667,-16.786 -7.667,-29.555 v -47.728 l 72.098,16.645 v 47.728 C 7.648,-13.234 5.575,-6.182 0,0"
             style="fill:#000000;fill-opacity:1;fill-rule:nonzero;stroke:none"
             id="path58" />
        </g>
        <g
           id="g60"
           transform="translate(275.791,122.654)">
          <path
             d="m 0,0 -7.506,2.4 -7.506,-5.866 1.408,9.131 -6.046,4.856 8.375,3.243 3.769,8.867 3.769,-7.126 8.376,0.624 -6.046,-7.648 z m 15.685,34.282 c -5.346,5.928 -14.22,8.221 -23.191,6.15 -8.97,-2.071 -17.831,-8.468 -23.171,-16.854 -4.681,-7.349 -6.376,-14.021 -6.376,-25.367 v -41.226 l 22.606,5.219 v 16.417 l 13.883,3.185 v -16.397 l 22.606,5.219 v 41.226 c 0,11.346 -1.684,17.247 -6.357,22.428"
             style="fill:#ffffff;fill-opacity:1;fill-rule:nonzero;stroke:none"
             id="path62" />
        </g>
        <g
           id="g64"
           transform="translate(233.1717,152.1171)">
          <path
             d="m 0,0 c -7.464,-0.227 -12.628,-0.862 -19.054,-2.346 -14.574,-3.364 -25.874,-10.395 -34.544,-21.495 -7.912,-10.129 -12.449,-22.942 -12.449,-35.155 0,-12.724 4.818,-23.407 13.566,-30.082 8.807,-6.72 18.696,-8.171 33.068,-4.853 6.285,1.451 10.985,3.043 19.342,6.553 l 5.294,2.223 V 0.159 Z"
             style="fill:#000000;fill-opacity:1;fill-rule:nonzero;stroke:none"
             id="path66" />
        </g>
        <g
           id="g68"
           transform="translate(231.8928,70.8489)">
          <path
             d="m 0,0 c -7.563,-3.177 -12.052,-4.757 -18.134,-6.161 -12.705,-2.933 -20.948,-1.729 -28.485,4.021 -7.506,5.728 -11.647,14.899 -11.647,25.914 0,10.544 3.814,21.499 10.654,30.255 7.458,9.548 16.943,15.415 29.837,18.391 5.657,1.307 10.405,1.955 17.775,2.178 v -23.44 c -6.928,-0.14 -11.251,-0.669 -16.561,-1.895 -12.365,-2.855 -19.376,-10.221 -19.376,-20.376 0,-8.535 5.244,-13.495 13.332,-12.747 V 38.448 L 0,43.667 Z"
             style="fill:#ffffff;fill-opacity:1;fill-rule:nonzero;stroke:none"
             id="path70" />
        </g>
        <g
           id="g72"
           transform="translate(144.9674,139.6522)">
          <path
             d="m 0,0 c -9.516,-2.146 -16.657,-5.806 -21.858,-11.124 -6.566,-6.715 -10.332,-15.692 -10.332,-24.631 0,-6.252 1.651,-10.665 5.319,-13.728 -4.127,-5.339 -6.036,-11.27 -6.036,-18.373 0,-8.804 3.074,-15.386 8.891,-19.037 6.299,-3.952 12.976,-3.497 21.706,-1.482 l 30.267,6.988 V 6.454 Z"
             style="fill:#000000;fill-opacity:1;fill-rule:nonzero;stroke:none"
             id="path74" />
        </g>
        <g
           id="g76"
           transform="translate(142.6576,57.7791)">
          <path
             d="m 0,0 c -8.86,-2.045 -13.257,-1.753 -17.472,0.892 -4.399,2.761 -6.624,7.781 -6.624,14.626 0,8.281 2.871,13.664 10.433,19.435 -7.148,2.068 -9.715,5.407 -9.715,12.666 0,7.066 2.884,13.87 7.866,18.965 3.931,4.019 9.799,6.958 17.803,8.782 l 21.474,4.958 V 59.237 L 8.694,55.758 C 2.733,54.382 0.911,52.986 0.911,49.729 c 0,-3.257 1.822,-3.811 7.783,-2.435 l 15.071,3.479 V 34.965 L 8.694,31.486 C 2.733,30.109 2.125,27.312 2.125,25.739 c 0,-1.683 0.608,-4.125 6.569,-2.748 L 23.765,26.47 V 5.487 Z"
             style="fill:#ffffff;fill-opacity:1;fill-rule:nonzero;stroke:none"
             id="path78" />
        </g>
        <g
           id="g80"
           transform="translate(109.0591,114.1904)">
          <path
             d="m 0,0 c -6.81,6.257 -16.056,8.261 -26.738,5.795 -5.834,-1.347 -10.87,-3.675 -15.884,-7.392 -5.015,1.402 -10.052,1.404 -15.885,0.058 -10.683,-2.467 -19.929,-8.74 -26.738,-18.141 -6.946,-9.589 -9.408,-18.339 -9.408,-33.439 v -46.417 l 104.06,24.025 v 46.417 C 9.407,-13.995 6.946,-6.381 0,0"
             style="fill:#000000;fill-opacity:1;fill-rule:nonzero;stroke:none"
             id="path82" />
        </g>
        <g
           id="g84"
           transform="translate(104.1537,108.7915)">
          <path
             d="m 0,0 c -5.556,5.105 -13.053,6.719 -21.833,4.693 -5.895,-1.362 -10.64,-3.826 -15.884,-8.382 -5.244,2.134 -9.961,2.415 -15.885,1.047 -8.753,-2.021 -16.277,-7.104 -21.833,-14.773 -5.843,-8.067 -7.811,-15.257 -7.811,-28.804 v -39.915 l 22.744,5.25 v 44.239 c 0,6.666 2.148,9.455 5.658,10.265 3.51,0.811 5.755,-0.964 5.755,-7.631 v -44.238 l 22.743,5.251 v 44.238 c 0,6.667 2.246,9.478 5.755,10.288 3.51,0.811 5.659,-0.986 5.659,-7.653 v -44.238 l 22.743,5.251 v 39.915 C 7.811,-11.65 5.843,-5.369 0,0"
             style="fill:#ffffff;fill-opacity:1;fill-rule:nonzero;stroke:none"
             id="path86" />
        </g>
        <g
           id="g88"
           transform="translate(452.1109,126.3685)">
          <path
             d="m 0,0 -14.832,1.545 -7.143,13.144 -6.043,-13.695 -14.7,-2.734 11.114,-9.975 -1.91,-14.748 12.886,7.423 13.48,-6.456 -3.101,14.629 z"
             style="fill:#000000;fill-opacity:1;fill-rule:nonzero;stroke:none"
             id="path90" />
        </g>
        <g
           id="g92"
           transform="translate(442.3256,122.7368)">
          <path
             d="m 0,0 -7.949,0.828 -3.809,7.011 -3.229,-7.315 -7.867,-1.462 5.934,-5.328 -1.021,-7.894 6.901,3.975 7.203,-3.45 -1.656,7.811 z"
             style="fill:#ffffff;fill-opacity:1;fill-rule:nonzero;stroke:none"
             id="path94" />
        </g>
        <g
           id="g96"
           transform="translate(211.7283,146.626)">
          <path
             d="m 0,0 5.222,12.008 -12.708,-3.137 -9.816,8.668 -0.941,-13.061 -11.283,-6.687 12.152,-4.902 2.82,-12.794 8.462,10.028 13.043,-1.257 z"
             style="fill:#000000;fill-opacity:1;fill-rule:nonzero;stroke:none"
             id="path98" />
        </g>
        <g
           id="g100"
           transform="translate(207.0793,146.2807)">
          <path
             d="m 0,0 2.76,6.348 -6.707,-1.656 -5.189,4.582 -0.497,-6.9 -5.962,-3.533 6.431,-2.595 1.491,-6.762 4.471,5.299 6.873,-0.662 z"
             style="fill:#ffffff;fill-opacity:1;fill-rule:nonzero;stroke:none"
             id="path102" />
        </g>
        <g
           id="g104"
           transform="translate(30.8971,24.5272)">
          <path
             d="M 0,0 2.779,13.994 -10.002,7.7 l -12.42,6.966 1.999,-14.096 -10.474,-9.695 14.053,-2.431 5.9,-12.971 6.727,12.624 14.166,1.662 z"
             style="fill:#000000;fill-opacity:1;fill-rule:nonzero;stroke:none"
             id="path106" />
        </g>
        <g
           id="g108"
           transform="translate(26.4283,23.2063)">
          <path
             d="m 0,0 1.573,7.922 -7.231,-3.561 -7.039,3.947 1.132,-7.977 -5.934,-5.492 7.977,-1.381 3.339,-7.341 3.809,7.148 8.005,0.939 z"
             style="fill:#ffffff;fill-opacity:1;fill-rule:nonzero;stroke:none"
             id="path110" />
        </g>
        <g
           id="g112"
           transform="translate(402.9313,219.0283)">
          <path
             d="m 0,0 v 6.832 l -1.718,-7.229 -1.86,-0.429 -1.677,6.445 V -1.213 L -7.013,-1.619 V 6.56 l 2.747,0.634 1.656,-6.105 0.021,0.005 1.615,6.86 2.712,0.626 V 0.401 Z M -12.696,-2.931 V 3.797 L -15.525,3.144 V 4.59 l 7.482,1.728 V 4.872 l -2.727,-0.63 v -6.728 z"
             style="fill:#ffffff;fill-opacity:1;fill-rule:nonzero;stroke:none"
             id="path114" />
        </g>
        <g
           id="g116"
           transform="translate(369.3149,290.0721)">
          <path
             d="m 0,0 c 0,0 -0.111,-28.842 -0.47,-33.916 -0.359,-5.073 -1.243,-7.141 -2.624,-7.389 -0.663,-0.083 -1.324,0.078 -1.878,0.441 -3.615,2.372 -10.371,15.879 -16.42,27.626 l -8.825,-2.038 v -72.987 l 10.686,2.467 0.141,18.544 c 0,3.86 0.414,6.425 1.298,7.638 0.304,0.413 0.8,0.695 1.271,0.772 3.111,0.507 9.225,-7.39 16.71,-19.963 l 14.28,3.296 v 78.78 z"
             style="fill:#ffffff;fill-opacity:1;fill-rule:nonzero;stroke:none"
             id="path118" />
        </g>
        <g
           id="g120"
           transform="translate(314.8467,216.9583)">
          <path
             d="m 0,0 c -0.327,-0.002 -2.751,0.081 -3.011,1.93 -0.15,1.071 0.387,2.041 1.658,2.868 1.104,0.662 2.789,1.351 5.054,2.013 L 14.39,9.623 v 9.293 c 0,0 -12.167,-2.928 -15.909,-2.372 -1.137,0.169 -1.878,0.772 -2.044,1.82 -0.138,1.075 0.387,2.041 1.657,2.868 3.422,2.229 18.782,5.542 18.782,5.542 v 21.441 l -31.625,-7.302 -10e-4,-57.154 32.289,7.454 V 3.088 C 8.921,1.13 3.096,0.017 0,0"
             style="fill:#ffffff;fill-opacity:1;fill-rule:nonzero;stroke:none"
             id="path122" />
        </g>
        <g
           id="g124"
           transform="translate(279.8837,259.6011)">
          <path
             d="m 0,0 c 0,0 -3.426,-22.572 -6.468,-33.003 -0.869,-2.981 -2.97,-7.542 -5.828,-1.021 -1.024,2.336 -4.062,13.248 -6.292,27.315 l -9.866,-2.278 c 0.863,-9.672 5.6,-35.797 11.91,-51.017 l 19.136,4.418 c 7.043,18.639 11.269,38.327 12.705,59.118 z"
             style="fill:#ffffff;fill-opacity:1;fill-rule:nonzero;stroke:none"
             id="path126" />
        </g>
        <g
           id="g128"
           transform="translate(237.4859,196.2145)">
          <path
             d="m 0,0 c -1.524,-0.332 -4.991,-1.21 -6.763,-1.542 -1.696,-0.332 -2.686,0.625 -2.477,3.045 0.191,2.264 1.185,7.064 1.562,8.685 0.834,3.585 2.473,5.079 4.401,5.348 2.471,0.344 4.63,-1.815 5.811,-7.67 C 2.648,7.299 2.936,6.125 3.124,4.528 3.353,2.589 2.4,0.605 0,0 m 8.433,32.357 c -4.788,8.822 -10.357,6.994 -13.211,6.05 -3.738,-1.237 -7.057,-3.157 -10.529,-16.93 -3.65,-14.478 -7.623,-44.89 -7.623,-44.89 l 10.019,2.313 1.029,5.766 c 0.497,2.785 2.27,4.554 4.972,5.349 0,0 7.763,2.015 10.413,2.316 1.119,0.128 2.435,-0.756 2.817,-2.509 l 1.354,-6.204 13.644,3.15 c 0,0 -6.787,34.355 -12.885,45.589"
             style="fill:#ffffff;fill-opacity:1;fill-rule:nonzero;stroke:none"
             id="path130" />
        </g>
        <g
           id="g132"
           transform="translate(192.4316,184.7132)">
          <path
             d="m 0,0 c -0.327,-0.002 -2.751,0.081 -3.011,1.93 -0.15,1.071 0.387,2.041 1.658,2.868 1.104,0.662 2.789,1.351 5.054,2.013 L 14.39,9.623 v 9.293 c 0,0 -12.167,-2.928 -15.909,-2.372 -1.137,0.169 -1.878,0.772 -2.044,1.82 -0.138,1.075 0.387,2.041 1.657,2.868 3.422,2.229 18.782,5.542 18.782,5.542 v 23.134 l -31.625,-7.301 v -57.166 l 32.288,7.455 V 3.088 C 8.921,1.13 3.096,0.017 0,0"
             style="fill:#ffffff;fill-opacity:1;fill-rule:nonzero;stroke:none"
             id="path134" />
        </g>
        <g
           id="g136"
           transform="translate(153.072,232.4156)">
          <path
             d="m 0,0 c 0.304,-11.388 0.181,-19.912 -1.381,-25.506 -0.949,-3.397 -3.038,-5.983 -5.828,-7.941 -2.841,-1.994 -5.69,-2.867 -8.48,-2.923 -3.401,-0.067 -5.86,1.257 -6.187,4.826 -0.497,5.432 -0.718,13.025 -0.552,22.538 l -12.347,-2.851 v -84.099 l 16.96,3.915 c -0.304,10.726 0.061,18.683 1.381,23.603 0.899,3.353 3.359,6.191 5.828,7.859 2.885,1.948 5.684,2.96 8.479,3.005 3.398,0.055 5.867,-1.52 6.187,-4.908 0.47,-4.963 0.691,-12.124 0.553,-21.251 l 12.622,2.915 V 3.979 Z"
             style="fill:#ffffff;fill-opacity:1;fill-rule:nonzero;stroke:none"
             id="path138" />
        </g>
        <g
           id="g140"
           transform="translate(357.7142,368.2808)">
          <path
             d="m 0,0 c -5.265,-17.385 -8.245,-25.885 -10.84,-33.051 -4.424,-12.193 -9.013,-7.404 -11.152,-4.004 -2.486,3.986 -5.868,11.736 -11.736,25.94 L -48.224,-14.46 V -82.7 l 12.029,2.778 c -0.092,10.876 0.091,18.262 0.676,21.132 0.53,2.577 2.084,2.943 3.656,0.384 1.298,-2.103 3.345,-6.654 7.422,-16.014 l 8.06,1.861 c 4.442,11.937 6.839,17.955 8.539,20.898 1.371,2.395 3.985,4.077 4.771,-0.347 0.603,-3.345 0.548,-12.421 0.53,-23.535 l 12.467,2.878 V 2.292 Z"
             style="fill:#ffffff;fill-opacity:1;fill-rule:nonzero;stroke:none"
             id="path142" />
        </g>
        <g
           id="g144"
           transform="translate(288.3578,332.6513)">
          <path
             d="m 0,0 c -0.055,-9.323 -0.037,-17.823 -0.439,-20.931 -0.932,-7.422 -13.619,-10.767 -14.24,-3.931 -0.293,3.218 -0.549,7.468 -0.549,16.956 l -10.255,-2.368 v -62.519 l 13.071,3.018 c 0,9.926 0,14.239 0.164,17.639 0.457,8.957 13.912,10.987 15.081,3.199 0.531,-3.546 0.622,-5.247 0.622,-13.253 l 10.42,2.405 V 3.203 Z"
             style="fill:#ffffff;fill-opacity:1;fill-rule:nonzero;stroke:none"
             id="path146" />
        </g>
        <g
           id="g148"
           transform="translate(219.0014,327.4874)">
          <path
             d="m 0,0 v -25.165 l 7.294,1.684 c 4.424,1.021 6.252,0.445 6.252,-7.385 v -32.303 l 11.974,2.743 v 29.633 c 0,13.162 1.235,16.484 7.751,17.988 l 5.959,1.376 V 9.057 Z"
             style="fill:#ffffff;fill-opacity:1;fill-rule:nonzero;stroke:none"
             id="path150" />
        </g>
        <g
           id="g152"
           transform="translate(214.1023,310.8669)">
          <path
             d="m 0,0 -11.188,-2.583 c 0,0 0.165,-11.517 -0.274,-19.999 -0.64,-12.412 -13.144,-15.081 -14.149,-3.272 -0.512,6.197 -0.75,18.549 -0.75,18.549 l -13.911,-3.212 v -10.072 c 0,-24.039 15.63,-27.001 23.801,-20.145 0.494,0.42 0.987,0.676 1.39,0.493 0.457,-0.201 0.438,-0.694 0.256,-1.608 -0.494,-2.395 -4.041,-7.13 -11.206,-9.049 -5.466,-1.463 -10.823,-2.385 -13.491,-2.806 v -16.681 c 12.028,1.554 25.958,4.99 32.447,14.971 3.382,5.21 5.156,10.713 6.033,18.866 C 0.329,-23.715 0,0 0,0"
             style="fill:#ffffff;fill-opacity:1;fill-rule:nonzero;stroke:none"
             id="path154" />
        </g>
        <g
           id="g156"
           transform="translate(153.1366,311.9036)">
          <path
             d="m 0,0 c -0.055,-9.323 -0.037,-17.823 -0.439,-20.931 -0.932,-7.422 -13.619,-10.767 -14.24,-3.931 -0.293,3.218 -0.549,7.468 -0.549,16.956 l -10.255,-2.368 v -62.519 l 13.071,3.018 c 0,9.926 0,14.239 0.164,17.639 0.457,8.957 13.912,10.987 15.081,3.199 0.531,-3.546 0.622,-5.247 0.622,-13.253 l 10.42,2.405 V 3.203 Z"
             style="fill:#ffffff;fill-opacity:1;fill-rule:nonzero;stroke:none"
             id="path158" />
        </g>
        <g
           id="g160"
           transform="translate(85.0599,274.3005)">
          <path
             d="m 0,0 c -4.991,-1.17 -7.769,1.609 -7.769,7.55 v 5.74 c -10e-4,4.14 0.804,7.733 4.497,8.903 C 7.449,25.589 14.917,20.968 14.917,13.71 14.917,6.928 9.725,2.285 0,0 m 36.141,24.807 c 0,26.379 -25.812,34.038 -57.383,22.759 v -85.153 l 13.454,3.106 v 21.319 c 0,3.254 2.395,2.687 4.607,0.713 1.554,-1.389 10.895,-10.438 17.422,-16.946 l 20.539,4.742 c 0,0 -17.907,18.291 -19.973,20.101 12.029,4.497 21.334,16.216 21.334,29.359"
             style="fill:#ffffff;fill-opacity:1;fill-rule:nonzero;stroke:none"
             id="path162" />
        </g>
      </g>
    </g>
  </g>
</svg>
