<?xml version="1.0" encoding="UTF-8" standalone="no"?>
<!-- Created with Inkscape (http://www.inkscape.org/) -->

<svg
   version="1.1"
   id="svg2"
   width="666.66669"
   height="566.8573"
   viewBox="0 0 666.66669 566.8573"
   sodipodi:docname="Rhythm Heaven Megamix Logo (Flat).ai"
   xmlns:inkscape="http://www.inkscape.org/namespaces/inkscape"
   xmlns:sodipodi="http://sodipodi.sourceforge.net/DTD/sodipodi-0.dtd"
   xmlns="http://www.w3.org/2000/svg"
   xmlns:svg="http://www.w3.org/2000/svg">
  <defs
     id="defs6">
    <clipPath
       clipPathUnits="userSpaceOnUse"
       id="clipPath16">
      <path
         d="M 0,425.143 H 500 V 0 H 0 Z"
         id="path14" />
    </clipPath>
  </defs>
  <sodipodi:namedview
     id="namedview4"
     pagecolor="#ffffff"
     bordercolor="#000000"
     borderopacity="0.25"
     inkscape:showpageshadow="2"
     inkscape:pageopacity="0.0"
     inkscape:pagecheckerboard="0"
     inkscape:deskcolor="#d1d1d1" />
  <g
     id="g8"
     inkscape:groupmode="layer"
     inkscape:label="Rhythm Heaven Megamix Logo (Flat)"
     transform="matrix(1.3333333,0,0,-1.3333333,0,566.85733)">
    <g
       id="g10">
      <g
         id="g12"
         clip-path="url(#clipPath16)">
        <g
           id="g18"
           transform="translate(423.9594,334.515)">
          <path
             d="m 0,0 c -4.802,50.771 -47.721,90.627 -99.782,90.627 -37.375,0 -71.168,-20.915 -88.344,-52.848 -10.797,3.797 -22.225,5.76 -33.828,5.76 -18.123,0 -35.978,-4.894 -51.479,-13.963 -14.405,7.818 -30.462,11.9 -47.113,11.9 -54.725,0 -99.246,-44.59 -99.246,-99.398 0,-37.661 21.11,-71.354 53.358,-88.173 -2.426,-7.654 -3.674,-15.665 -3.674,-23.813 0,-44.375 36.963,-80.476 82.398,-80.476 27.525,0 52.151,13.091 67.167,33.728 18.301,-16.946 42.547,-26.721 68.468,-26.721 41.888,0 78.828,25.89 93.765,63.653 2.463,-0.186 4.933,-0.278 7.404,-0.278 54.041,0 98.007,43.544 98.007,97.067 C 47.101,-48.845 28.954,-17.458 0,0"
             style="fill:#0096e6;fill-opacity:1;fill-rule:nonzero;stroke:none"
             id="path20" />
        </g>
        <g
           id="g22"
           transform="translate(413.2973,327.8061)">
          <path
             d="m 0,0 c -1.479,47.82 -40.889,86.271 -89.12,86.271 -36.657,0 -69.442,-22.615 -82.811,-56.043 -12.212,5.879 -25.647,8.954 -39.361,8.954 -18.592,0 -36.202,-5.463 -51.281,-15.855 -14.139,9.04 -30.379,13.792 -47.311,13.792 -48.622,0 -88.179,-39.626 -88.179,-88.332 0,-36.879 22.767,-69.475 56.458,-82.446 -4.453,-9.192 -6.774,-19.242 -6.774,-29.54 0,-38.272 31.999,-69.41 71.331,-69.41 28.83,0 53.98,16.519 65.171,41.095 16.822,-21.358 42.554,-34.088 70.464,-34.088 40.187,0 75.255,26.755 86.207,64.659 4.939,-0.853 9.947,-1.284 14.962,-1.284 47.938,0 86.94,38.58 86.94,86.001 C 46.696,-44.143 28.53,-14.757 0,0"
             style="fill:#ffffff;fill-opacity:1;fill-rule:nonzero;stroke:none"
             id="path24" />
        </g>
        <g
           id="g26"
           transform="translate(405.5268,322.9345)">
          <path
             d="m 0,0 c 0.018,0.696 0.053,1.389 0.053,2.089 0,44.896 -36.446,81.292 -81.403,81.292 -37.407,0 -68.899,-25.206 -78.429,-59.531 -12.662,7.87 -27.655,12.442 -43.742,12.442 -19.34,0 -37.102,-6.598 -51.123,-17.609 -13.305,9.767 -29.71,15.546 -47.47,15.546 -44.413,0 -80.418,-36.072 -80.418,-80.571 0,-37.508 25.582,-69.027 60.218,-78.005 -6.651,-9.744 -10.534,-21.42 -10.534,-33.98 0,-34.048 28.461,-61.65 63.57,-61.65 31.536,0 57.695,22.275 62.695,51.482 13.594,-26.4 41.143,-44.475 72.94,-44.475 39.896,0 73.119,28.439 80.452,66.1 6.605,-1.766 13.546,-2.725 20.718,-2.725 43.729,0 79.179,35.03 79.179,78.241 C 46.706,-39.582 27.529,-12.253 0,0"
             style="fill:#000000;fill-opacity:1;fill-rule:nonzero;stroke:none"
             id="path28" />
        </g>
        <path
           d="m 394.237,173.181 h 4.795 v 4.794 h -4.795 z"
           style="fill:#000000;fill-opacity:1;fill-rule:nonzero;stroke:none"
           id="path30" />
        <g
           id="g32"
           transform="translate(500.0004,213.1606)">
          <path
             d="m 0,0 -72.099,-16.66 v -87.793 L 0,-87.807 v 16.835 c 0,8.344 -0.001,17.656 -8.132,26.197 C -2.35,-36.292 0,-27.087 0,-14.032 Z"
             style="fill:#000000;fill-opacity:1;fill-rule:nonzero;stroke:none"
             id="path34" />
        </g>
        <g
           id="g36"
           transform="translate(434.4037,116.7109)">
          <path
             d="M 0,0 V 10.33 C -0.027,19.3 -0.015,28.094 10.461,40.987 2.788,46.063 0,53.252 0,67.273 v 7.519 l 22.634,5.237 V 63.37 c 0,-3.875 2.41,-6.701 6.912,-5.662 4.502,1.039 6.913,4.98 6.913,8.854 l 0.003,16.66 22.633,5.224 v -7.53 C 59.095,66.895 56.307,58.42 48.634,49.801 59.096,41.754 59.095,32.949 59.095,23.973 V 13.644 L 36.462,8.418 v 17.576 c 0,6.268 -2.414,9.035 -6.916,7.996 -4.502,-1.04 -6.912,-4.921 -6.912,-11.188 V 5.226 Z"
             style="fill:#ff5a00;fill-opacity:1;fill-rule:nonzero;stroke:none"
             id="path38" />
        </g>
        <g
           id="g40"
           transform="translate(397.2651,197.0732)">
          <path
             d="m 0,0 v -87.812 l 35.664,8.235 v 87.81 z"
             style="fill:#000000;fill-opacity:1;fill-rule:nonzero;stroke:none"
             id="path42" />
        </g>
        <g
           id="g44"
           transform="translate(403.7661,192.0722)">
          <path
             d="M 0,0 22.661,5.232 V -69.575 L 0,-74.808 Z"
             style="fill:#5f14a5;fill-opacity:1;fill-rule:nonzero;stroke:none"
             id="path46" />
        </g>
        <g
           id="g48"
           transform="translate(393.8637,178.87)">
          <path
             d="M 0,0 C -6.81,6.257 -16.057,8.262 -26.738,5.795 -32.57,4.448 -37.607,2.12 -42.623,-1.597 c -5.015,1.402 -10.052,1.405 -15.885,0.058 -10.682,-2.467 -19.928,-8.74 -26.738,-18.142 -6.945,-9.589 -9.407,-18.339 -9.407,-33.437 v -46.418 l 104.06,24.023 v 46.418 C 9.407,-13.994 6.946,-6.381 0,0"
             style="fill:#000000;fill-opacity:1;fill-rule:nonzero;stroke:none"
             id="path50" />
        </g>
        <g
           id="g52"
           transform="translate(388.9584,173.4706)">
          <path
             d="m 0,0 c -5.556,5.104 -13.054,6.72 -21.833,4.692 -5.896,-1.36 -10.641,-3.825 -15.885,-8.38 -5.244,2.133 -9.961,2.414 -15.885,1.046 -8.752,-2.02 -16.276,-7.103 -21.832,-14.773 -5.843,-8.066 -7.811,-15.257 -7.811,-28.804 v -39.915 l 22.743,5.25 v 44.238 c 0,6.667 2.149,9.457 5.659,10.267 3.509,0.81 5.755,-0.965 5.755,-7.631 v -44.238 l 22.743,5.25 v 44.238 c 0,6.667 2.245,9.479 5.755,10.288 3.51,0.811 5.658,-0.986 5.658,-7.652 v -44.238 l 22.744,5.25 v 39.916 C 7.811,-11.649 5.843,-5.368 0,0"
             style="fill:#ffff00;fill-opacity:1;fill-rule:nonzero;stroke:none"
             id="path54" />
        </g>
        <g
           id="g56"
           transform="translate(296.687,162.0273)">
          <path
             d="M 0,0 C -6.499,7.207 -17.382,10.104 -28.401,7.561 -39.407,5.02 -50.283,-2.9 -56.783,-13.108 c -5.59,-8.776 -7.668,-16.787 -7.668,-29.555 v -47.729 l 72.098,16.646 v 47.727 C 7.647,-13.233 5.574,-6.182 0,0"
             style="fill:#000000;fill-opacity:1;fill-rule:nonzero;stroke:none"
             id="path58" />
        </g>
        <g
           id="g60"
           transform="translate(275.7914,122.6542)">
          <path
             d="m 0,0 -7.506,2.399 -7.506,-5.865 1.408,9.131 -6.046,4.856 8.375,3.244 3.769,8.866 3.769,-7.126 8.376,0.624 L -1.407,8.48 Z M 15.685,34.281 C 10.338,40.21 1.464,42.503 -7.506,40.432 -16.477,38.36 -25.337,31.964 -30.678,23.578 -35.358,16.229 -37.054,9.557 -37.054,-1.789 v -41.227 l 22.606,5.219 v 16.417 l 13.884,3.186 v -16.398 l 22.605,5.22 v 41.226 c 0,11.346 -1.684,17.247 -6.356,22.427"
             style="fill:#00a0ff;fill-opacity:1;fill-rule:nonzero;stroke:none"
             id="path62" />
        </g>
        <g
           id="g64"
           transform="translate(233.1718,152.1171)">
          <path
             d="m 0,0 c -7.464,-0.227 -12.628,-0.862 -19.054,-2.346 -14.574,-3.364 -25.874,-10.395 -34.544,-21.495 -7.912,-10.129 -12.449,-22.942 -12.449,-35.154 0,-12.725 4.818,-23.407 13.566,-30.082 8.807,-6.721 18.696,-8.172 33.068,-4.854 6.285,1.451 10.985,3.043 19.342,6.553 l 5.294,2.224 V 0.158 Z"
             style="fill:#000000;fill-opacity:1;fill-rule:nonzero;stroke:none"
             id="path66" />
        </g>
        <g
           id="g68"
           transform="translate(231.8925,70.8486)">
          <path
             d="m 0,0 c -7.562,-3.176 -12.051,-4.756 -18.134,-6.16 -12.704,-2.934 -20.948,-1.73 -28.485,4.02 -7.506,5.728 -11.647,14.9 -11.647,25.914 0,10.544 3.814,21.499 10.654,30.255 7.458,9.548 16.944,15.415 29.837,18.392 5.657,1.306 10.406,1.954 17.775,2.178 L 0,51.158 c -6.928,-0.139 -11.25,-0.669 -16.561,-1.894 -12.365,-2.855 -19.376,-10.221 -19.376,-20.376 0,-8.535 5.245,-13.495 13.332,-12.748 V 38.448 L 0,43.667 Z"
             style="fill:#c80000;fill-opacity:1;fill-rule:nonzero;stroke:none"
             id="path70" />
        </g>
        <g
           id="g72"
           transform="translate(144.9672,139.6523)">
          <path
             d="m 0,0 c -9.516,-2.146 -16.657,-5.807 -21.857,-11.124 -6.567,-6.715 -10.333,-15.692 -10.333,-24.631 0,-6.252 1.651,-10.665 5.319,-13.728 -4.127,-5.339 -6.036,-11.271 -6.036,-18.373 0,-8.804 3.074,-15.386 8.891,-19.037 6.299,-3.953 12.976,-3.498 21.706,-1.482 l 30.267,6.988 V 6.454 Z"
             style="fill:#000000;fill-opacity:1;fill-rule:nonzero;stroke:none"
             id="path74" />
        </g>
        <g
           id="g76"
           transform="translate(142.6577,57.7792)">
          <path
             d="m 0,0 c -8.86,-2.045 -13.257,-1.753 -17.472,0.892 -4.399,2.76 -6.624,7.781 -6.624,14.627 0,8.28 2.87,13.663 10.433,19.434 -7.149,2.068 -9.715,5.406 -9.715,12.666 0,7.066 2.884,13.87 7.866,18.965 3.93,4.02 9.799,6.958 17.803,8.782 l 21.474,4.958 V 59.237 L 8.694,55.758 C 2.732,54.382 0.911,52.986 0.911,49.729 c 0,-3.257 1.821,-3.811 7.783,-2.435 l 15.071,3.479 V 34.965 L 8.694,31.485 C 2.732,30.109 2.125,27.312 2.125,25.739 c 0,-1.683 0.607,-4.125 6.569,-2.749 l 15.071,3.48 V 5.486 Z"
             style="fill:#14b400;fill-opacity:1;fill-rule:nonzero;stroke:none"
             id="path78" />
        </g>
        <g
           id="g80"
           transform="translate(109.059,114.1904)">
          <path
             d="m 0,0 c -6.81,6.257 -16.056,8.262 -26.738,5.795 -5.834,-1.347 -10.87,-3.675 -15.885,-7.392 -5.014,1.402 -10.051,1.405 -15.884,0.058 -10.683,-2.467 -19.929,-8.74 -26.739,-18.142 -6.945,-9.588 -9.407,-18.338 -9.407,-33.437 v -46.417 l 104.06,24.023 v 46.417 C 9.407,-13.994 6.946,-6.381 0,0"
             style="fill:#000000;fill-opacity:1;fill-rule:nonzero;stroke:none"
             id="path82" />
        </g>
        <g
           id="g84"
           transform="translate(104.1537,108.7919)">
          <path
             d="m 0,0 c -5.556,5.104 -13.053,6.719 -21.833,4.692 -5.896,-1.361 -10.64,-3.826 -15.884,-8.381 -5.244,2.134 -9.961,2.415 -15.885,1.046 -8.753,-2.02 -16.277,-7.103 -21.833,-14.773 -5.843,-8.066 -7.811,-15.256 -7.811,-28.804 v -39.915 l 22.744,5.251 v 44.238 c 0,6.667 2.148,9.456 5.658,10.266 3.51,0.811 5.755,-0.965 5.755,-7.631 v -44.238 l 22.743,5.251 v 44.238 c 0,6.666 2.246,9.478 5.755,10.288 3.51,0.811 5.659,-0.987 5.659,-7.653 v -44.238 l 22.743,5.251 v 39.915 C 7.811,-11.65 5.843,-5.369 0,0"
             style="fill:#ffff00;fill-opacity:1;fill-rule:nonzero;stroke:none"
             id="path86" />
        </g>
        <g
           id="g88"
           transform="translate(452.1108,126.3681)">
          <path
             d="m 0,0 -14.832,1.546 -7.143,13.143 -6.044,-13.694 -14.699,-2.734 11.114,-9.976 -1.91,-14.748 12.886,7.423 13.48,-6.456 -3.101,14.629 z"
             style="fill:#000000;fill-opacity:1;fill-rule:nonzero;stroke:none"
             id="path90" />
        </g>
        <g
           id="g92"
           transform="translate(442.3256,122.7372)">
          <path
             d="m 0,0 -7.949,0.827 -3.809,7.012 -3.229,-7.316 -7.867,-1.461 5.934,-5.328 -1.02,-7.894 6.9,3.974 7.203,-3.45 -1.655,7.812 z"
             style="fill:#00a000;fill-opacity:1;fill-rule:nonzero;stroke:none"
             id="path94" />
        </g>
        <g
           id="g96"
           transform="translate(211.7285,146.6259)">
          <path
             d="m 0,0 5.222,12.009 -12.708,-3.138 -9.816,8.668 -0.941,-13.061 -11.283,-6.686 12.152,-4.903 2.82,-12.793 8.461,10.027 13.044,-1.257 z"
             style="fill:#000000;fill-opacity:1;fill-rule:nonzero;stroke:none"
             id="path98" />
        </g>
        <g
           id="g100"
           transform="translate(207.079,146.2812)">
          <path
             d="m 0,0 2.76,6.348 -6.707,-1.656 -5.189,4.581 -0.497,-6.9 -5.962,-3.533 6.431,-2.594 1.491,-6.763 4.471,5.3 6.873,-0.663 z"
             style="fill:#ffc800;fill-opacity:1;fill-rule:nonzero;stroke:none"
             id="path102" />
        </g>
        <g
           id="g104"
           transform="translate(30.8969,24.5273)">
          <path
             d="M 0,0 2.779,13.994 -10.002,7.7 l -12.42,6.966 2,-14.096 -10.475,-9.695 14.053,-2.431 5.9,-12.971 6.727,12.625 14.166,1.661 z"
             style="fill:#000000;fill-opacity:1;fill-rule:nonzero;stroke:none"
             id="path106" />
        </g>
        <g
           id="g108"
           transform="translate(26.4282,23.206)">
          <path
             d="m 0,0 1.573,7.922 -7.231,-3.561 -7.039,3.948 1.132,-7.978 -5.934,-5.492 7.977,-1.38 3.339,-7.342 3.809,7.149 8.005,0.938 z"
             style="fill:#00aaff;fill-opacity:1;fill-rule:nonzero;stroke:none"
             id="path110" />
        </g>
        <g
           id="g112"
           transform="translate(402.9311,219.0282)">
          <path
             d="m 0,0 v 6.833 l -1.718,-7.229 -1.86,-0.43 -1.677,6.445 V -1.213 L -7.013,-1.619 V 6.56 l 2.747,0.634 1.657,-6.105 0.02,0.005 1.615,6.861 2.712,0.626 V 0.401 Z M -12.696,-2.931 V 3.797 L -15.524,3.145 V 4.59 l 7.481,1.727 V 4.872 l -2.727,-0.63 v -6.728 z"
             style="fill:#ff5500;fill-opacity:1;fill-rule:nonzero;stroke:none"
             id="path114" />
        </g>
        <g
           id="g116"
           transform="translate(369.3149,290.0722)">
          <path
             d="m 0,0 c 0,0 -0.11,-28.842 -0.47,-33.916 -0.56,-7.924 -2.69,-8.137 -4.502,-6.948 -3.615,2.372 -10.371,15.879 -16.421,27.626 l -8.824,-2.038 v -72.988 l 10.791,2.492 0.036,18.52 c 0.019,9.506 2.615,10.125 6.386,6.671 2.862,-2.62 6.757,-8.398 12.894,-18.225 l 14.279,3.297 v 78.78 z"
             style="fill:#ff5500;fill-opacity:1;fill-rule:nonzero;stroke:none"
             id="path118" />
        </g>
        <g
           id="g120"
           transform="translate(314.8471,216.9584)">
          <path
             d="m 0,0 c -0.328,-0.002 -2.752,0.081 -3.011,1.93 -0.15,1.071 0.364,2.077 1.657,2.868 2.023,1.237 9.024,3.249 15.744,4.825 v 9.293 c 0,0 -12.167,-2.928 -15.91,-2.372 -1.136,0.169 -1.893,0.77 -2.043,1.82 -0.155,1.073 0.386,2.04 1.657,2.867 3.422,2.229 18.782,5.543 18.782,5.543 V 48.215 L -14.75,40.914 v -57.156 l 32.289,7.454 V 3.088 C 8.921,1.13 3.096,0.017 0,0"
             style="fill:#ff5500;fill-opacity:1;fill-rule:nonzero;stroke:none"
             id="path122" />
        </g>
        <g
           id="g124"
           transform="translate(279.8832,259.601)">
          <path
             d="m 0,0 c 0,0 -3.426,-22.572 -6.468,-33.003 -0.869,-2.981 -2.97,-7.541 -5.828,-1.02 -1.023,2.335 -4.061,13.247 -6.291,27.314 l -9.867,-2.278 c 0.864,-9.672 5.6,-35.797 11.911,-51.016 l 19.135,4.417 c 7.043,18.64 11.269,38.327 12.706,59.118 z"
             style="fill:#ff5500;fill-opacity:1;fill-rule:nonzero;stroke:none"
             id="path126" />
        </g>
        <g
           id="g128"
           transform="translate(237.4858,196.2148)">
          <path
             d="m 0,0 c -1.524,-0.332 -4.991,-1.21 -6.763,-1.542 -1.695,-0.332 -2.686,0.624 -2.477,3.045 0.191,2.264 1.185,7.064 1.562,8.685 0.834,3.584 2.473,5.079 4.401,5.347 2.471,0.345 4.63,-1.814 5.811,-7.67 C 2.648,7.299 2.937,6.124 3.125,4.527 3.353,2.589 2.4,0.604 0,0 m 8.434,32.356 c -4.789,8.823 -10.358,6.995 -13.211,6.051 -3.739,-1.237 -7.057,-3.157 -10.53,-16.93 -3.65,-14.478 -7.623,-44.89 -7.623,-44.89 l 10.019,2.312 1.029,5.767 c 0.497,2.785 2.27,4.554 4.972,5.349 0,0 7.763,2.015 10.413,2.316 1.12,0.127 2.435,-0.756 2.817,-2.509 l 1.354,-6.204 13.644,3.15 c 0,0 -6.787,34.355 -12.884,45.588"
             style="fill:#ff5500;fill-opacity:1;fill-rule:nonzero;stroke:none"
             id="path130" />
        </g>
        <g
           id="g132"
           transform="translate(192.4316,184.7314)">
          <path
             d="m 0,0 c -0.327,-0.001 -2.751,0.081 -3.011,1.931 -0.15,1.071 0.365,2.076 1.657,2.867 2.023,1.237 9.024,3.25 15.745,4.826 v 9.292 c 0,0 -12.168,-2.928 -15.91,-2.371 -1.137,0.169 -1.894,0.769 -2.044,1.819 -0.154,1.073 0.387,2.041 1.657,2.868 3.422,2.229 18.782,5.542 18.782,5.542 V 49.885 L -14.75,42.583 v -57.154 l 32.289,7.454 V 3.089 C 8.921,1.131 3.097,0.018 0,0"
             style="fill:#ff5500;fill-opacity:1;fill-rule:nonzero;stroke:none"
             id="path134" />
        </g>
        <g
           id="g136"
           transform="translate(153.0722,232.4155)">
          <path
             d="m 0,0 c 0.304,-11.388 0.181,-19.913 -1.381,-25.505 -0.949,-3.398 -3.038,-5.984 -5.828,-7.942 -2.842,-1.994 -5.69,-2.867 -8.48,-2.923 -3.401,-0.067 -5.86,1.257 -6.187,4.826 -0.497,5.432 -0.718,13.025 -0.552,22.538 l -12.347,-2.85 v -84.1 l 16.96,3.915 c -0.304,10.726 0.061,18.683 1.38,23.603 0.899,3.354 3.36,6.191 5.829,7.859 2.885,1.949 5.684,2.96 8.479,3.005 3.398,0.056 5.867,-1.519 6.187,-4.908 0.47,-4.963 0.69,-12.123 0.552,-21.25 l 12.623,2.914 V 3.979 Z"
             style="fill:#ff5500;fill-opacity:1;fill-rule:nonzero;stroke:none"
             id="path138" />
        </g>
        <g
           id="g140"
           transform="translate(357.7143,368.2807)">
          <path
             d="m 0,0 c -5.265,-17.385 -8.245,-25.885 -10.841,-33.051 -4.424,-12.193 -9.012,-7.404 -11.15,-4.004 -2.487,3.986 -5.868,11.737 -11.737,25.94 l -14.497,-3.345 v -68.239 l 12.03,2.777 c -0.092,10.877 0.091,18.262 0.675,21.132 0.531,2.578 2.084,2.943 3.657,0.384 1.298,-2.102 3.345,-6.655 7.422,-16.014 l 8.059,1.861 c 4.443,11.937 6.839,17.955 8.539,20.898 1.371,2.395 3.986,4.077 4.772,-0.347 0.603,-3.346 0.549,-12.421 0.53,-23.535 l 12.467,2.878 V 2.292 Z"
             style="fill:#ffaa00;fill-opacity:1;fill-rule:nonzero;stroke:none"
             id="path142" />
        </g>
        <g
           id="g144"
           transform="translate(288.3578,332.6513)">
          <path
             d="m 0,0 c -0.055,-9.323 -0.036,-17.823 -0.438,-20.931 -0.933,-7.422 -13.62,-10.767 -14.242,-3.93 -0.292,3.217 -0.548,7.467 -0.548,16.955 l -10.255,-2.367 v -62.52 l 13.071,3.018 c 0,9.926 0,14.239 0.164,17.639 0.457,8.957 13.911,10.987 15.081,3.199 0.53,-3.546 0.622,-5.247 0.622,-13.253 l 10.42,2.405 V 3.203 Z"
             style="fill:#ffaa00;fill-opacity:1;fill-rule:nonzero;stroke:none"
             id="path146" />
        </g>
        <g
           id="g148"
           transform="translate(219.0014,327.4872)">
          <path
             d="m 0,0 v -25.165 l 7.294,1.684 c 4.424,1.022 6.252,0.445 6.252,-7.385 v -32.303 l 11.974,2.743 v 29.633 c 0,13.162 1.235,16.484 7.751,17.988 l 5.959,1.376 V 9.057 Z"
             style="fill:#ffaa00;fill-opacity:1;fill-rule:nonzero;stroke:none"
             id="path150" />
        </g>
        <g
           id="g152"
           transform="translate(214.1025,310.8671)">
          <path
             d="m 0,0 -11.188,-2.583 c 0,0 0.165,-11.517 -0.274,-19.999 -0.64,-12.413 -13.144,-15.082 -14.149,-3.272 -0.512,6.197 -0.75,18.549 -0.75,18.549 l -13.911,-3.212 v -10.072 c 0,-24.039 15.629,-27.001 23.801,-20.145 0.493,0.42 0.987,0.676 1.389,0.493 0.457,-0.201 0.439,-0.695 0.256,-1.609 -0.493,-2.395 -4.04,-7.129 -11.206,-9.048 -5.466,-1.463 -10.822,-2.386 -13.49,-2.806 v -16.682 c 12.028,1.554 25.958,4.991 32.447,14.972 3.382,5.21 5.156,10.713 6.033,18.866 C 0.329,-23.715 0,0 0,0"
             style="fill:#ffaa00;fill-opacity:1;fill-rule:nonzero;stroke:none"
             id="path154" />
        </g>
        <g
           id="g156"
           transform="translate(153.1367,311.9037)">
          <path
             d="m 0,0 c -0.055,-9.323 -0.037,-17.824 -0.439,-20.931 -0.932,-7.422 -13.619,-10.768 -14.24,-3.931 -0.293,3.217 -0.549,7.468 -0.549,16.956 l -10.255,-2.368 v -62.519 l 13.07,3.017 c 0,9.927 0,14.239 0.165,17.64 0.457,8.957 13.912,10.987 15.081,3.199 0.531,-3.546 0.622,-5.247 0.622,-13.253 l 10.42,2.405 V 3.203 Z"
             style="fill:#ffaa00;fill-opacity:1;fill-rule:nonzero;stroke:none"
             id="path158" />
        </g>
        <g
           id="g160"
           transform="translate(85.06,274.3007)">
          <path
             d="m 0,0 c -4.991,-1.17 -7.77,1.608 -7.77,7.55 v 5.74 c 0,4.14 0.805,7.732 4.498,8.902 C 7.449,25.589 14.917,20.968 14.917,13.71 14.917,6.928 9.725,2.285 0,0 m 36.141,24.807 c 0,26.379 -25.812,34.038 -57.383,22.759 v -85.153 l 13.454,3.106 v 21.319 c 0,3.254 2.395,2.687 4.607,0.713 1.554,-1.389 10.895,-10.439 17.422,-16.946 l 20.539,4.742 c 0,0 -17.907,18.291 -19.973,20.101 12.029,4.497 21.334,16.216 21.334,29.359"
             style="fill:#ffaa00;fill-opacity:1;fill-rule:nonzero;stroke:none"
             id="path162" />
        </g>
      </g>
    </g>
  </g>
</svg>
