<?xml version="1.0" encoding="UTF-8" standalone="no"?>
<!-- Generator: Adobe Illustrator 25.0.0, SVG Export Plug-In . SVG Version: 6.00 Build 0)  -->

<svg
   version="1.1"
   id="Layer_1"
   x="0px"
   y="0px"
   viewBox="0 0 666.66669 421.90408"
   xml:space="preserve"
   sodipodi:docname="Rhythm Tengoku The Song Festival+ (リズム天国 ザ・歌祭り＋) Logo.svg"
   width="666.66669"
   height="421.90408"
   inkscape:version="1.2.2 (b0a8486541, 2022-12-01)"
   xmlns:inkscape="http://www.inkscape.org/namespaces/inkscape"
   xmlns:sodipodi="http://sodipodi.sourceforge.net/DTD/sodipodi-0.dtd"
   xmlns:xlink="http://www.w3.org/1999/xlink"
   xmlns="http://www.w3.org/2000/svg"
   xmlns:svg="http://www.w3.org/2000/svg"><defs
   id="defs4305" /><sodipodi:namedview
   id="namedview4303"
   pagecolor="#505050"
   bordercolor="#eeeeee"
   borderopacity="1"
   inkscape:showpageshadow="0"
   inkscape:pageopacity="0"
   inkscape:pagecheckerboard="0"
   inkscape:deskcolor="#505050"
   showgrid="false"
   inkscape:zoom="2.844"
   inkscape:cx="250.17581"
   inkscape:cy="158.22785"
   inkscape:window-width="2560"
   inkscape:window-height="1412"
   inkscape:window-x="0"
   inkscape:window-y="0"
   inkscape:window-maximized="1"
   inkscape:current-layer="Layer_1" />
<style
   type="text/css"
   id="style4237">
	.st0{fill:#0096E6;}
	.st1{fill:#FFFFFF;}
	.st2{fill:#FFF000;}
	.st3{clip-path:url(#SVGID_1_);fill:url(#SVGID_4_);}
	.st4{clip-path:url(#SVGID_5_);fill:url(#SVGID_6_);}
	.st5{fill:#FF0000;}
	.st6{fill:#FF5500;}
	.st7{fill:#FFAA00;}
	.st8{fill:#FAA61A;}
</style>
<g
   id="Cloud_00000017518880614512439360000012841072752615782043_"
   transform="scale(1.3333334)">
	<path
   id="Light_Blue"
   class="st0"
   d="m 421.06436,0 c -27.78802,3.1e-4 -52.25003,14.44655 -66.31982,36.20993 -5.14856,-1.05969 -10.47809,-1.61761 -15.93561,-1.61761 -17.00485,0 -32.75729,5.4231 -45.6571,14.6053 -12.39978,-8.11268 -27.19855,-12.84944 -43.09055,-12.84944 -27.74063,0 -52.1671,14.39662 -66.24847,36.098 -5.0746,-1.02802 -10.32265,-1.57208 -15.69594,-1.57208 -17.12495,0 -32.98044,5.49909 -45.93059,14.7997 C 109.75432,77.49746 94.89584,72.72176 78.93611,72.72176 35.41068,72.72175 0,108.13243 0,151.65787 c 0,19.96693 7.46668,38.2131 19.73549,52.1295 -12.09138,11.94252 -19.60072,28.51395 -19.60072,46.81102 0,36.29837 29.53128,65.82965 65.83014,65.82965 21.51937,0 40.65855,-10.38031 52.67791,-26.39536 2.3562,0.27887 4.73969,0.43738 7.14881,0.43732 9.34962,0 18.20296,-2.15955 26.09366,-5.99994 9.01428,4.64471 19.22292,7.2851 30.04263,7.2851 18.10078,0 34.51657,-7.34552 46.429,-19.20941 7.41791,2.83673 15.36293,4.33661 23.54274,4.33636 16.43716,0 31.95255,-5.98633 44.06271,-16.92252 6.41129,2.08893 13.24533,3.23254 20.34457,3.23254 34.14127,0 62.28845,-26.1277 65.51416,-59.43724 19.36996,-8.05011 34.08157,-25.09372 38.92258,-45.89079 0.10742,4.3e-4 0.21313,0.008 0.32068,0.008 C 464.58981,157.87222 500,122.46154 500,78.93611 500,35.41068 464.58981,0 421.06436,0 Z" />
	<path
   id="White"
   class="st1"
   d="M 421.06436,9.01368 C 394.16543,9.01435 370.78119,24.29153 359.09109,46.61614 352.66806,44.66533 345.8608,43.606 338.80892,43.606 c -17.33701,0 -33.20804,6.35688 -45.43976,16.84358 -11.91956,-9.43409 -26.96143,-15.08772 -43.30789,-15.08772 -26.84512,0 -50.19121,15.21541 -61.90497,37.46732 -6.35223,-1.90406 -13.07576,-2.94093 -20.03944,-2.94093 -17.46126,0 -33.43491,6.44843 -45.70152,17.0696 -11.94637,-9.51557 -27.05466,-15.22243 -43.47923,-15.22243 -38.55521,0 -69.92243,31.36722 -69.92243,69.92244 0,21.00063 9.31928,39.85397 24.02438,52.68205 -14.44484,10.31184 -23.88961,27.1976 -23.88961,46.25847 0,31.32816 25.48782,56.81598 56.81646,56.81598 20.49923,0 38.49461,-10.9147 48.48833,-27.23563 3.67883,0.83459 7.47352,1.27759 11.33839,1.27759 9.57124,0 18.53078,-2.66296 26.18265,-7.28217 8.70319,5.42279 18.9659,8.56732 29.95364,8.56732 17.79616,0 33.70029,-8.23047 44.12582,-21.07803 7.90572,4.04794 16.70792,6.20499 25.84592,6.20499 15.1763,0 29.44388,-5.91019 40.17484,-16.64114 0.56818,-0.56812 1.11542,-1.15137 1.65637,-1.73895 6.92459,3.01074 14.55649,4.69012 22.57608,4.69012 31.32816,0 56.81598,-25.48781 56.81598,-56.81645 0,-0.017 -10e-4,-0.0339 -10e-4,-0.0509 21.63681,-6.57155 37.84482,-25.72537 40.06717,-48.90814 2.58698,0.29146 5.21191,0.45558 7.87549,0.45558 38.55573,0 69.92197,-31.36723 69.92197,-69.92244 0,-38.55521 -31.36625,-69.92243 -69.92198,-69.92243 z" />
	<path
   id="Black"
   d="m 421.06454,14.84157 c -26.48016,6e-5 -49.2059,16.06038 -58.97806,38.96989 -7.21786,-2.8158 -15.06296,-4.37793 -23.2775,-4.37793 -17.68576,0 -33.69778,7.16382 -45.29456,18.74709 -11.4231,-10.5431 -26.6825,-16.99123 -43.45316,-16.99123 -26.41782,6e-5 -49.09563,15.98641 -58.9057,38.80973 -7.15192,-2.7569 -14.91493,-4.28382 -23.03871,-4.28382 -17.81721,0 -33.93149,7.27491 -45.54814,19.01033 C 111.12601,94.08256 95.79591,87.5632 78.9361,87.5632 c -35.39853,0 -64.09467,28.6962 -64.09467,64.09473 0,22.20515 11.29475,41.76895 28.44949,53.27061 -16.77919,8.347 -28.31466,25.65689 -28.31466,45.6696 6e-5,28.16031 22.82851,50.98865 50.98882,50.98865 19.98855,-6e-5 37.28013,-11.50815 45.6386,-28.25443 4.46192,1.48224 9.22858,2.29657 14.18813,2.29657 9.78151,0 18.82637,-3.13153 26.20792,-8.43286 8.40643,6.10669 18.74312,9.71783 29.92831,9.71783 17.774,-6e-5 33.41623,-9.09979 42.54257,-22.88907 7.92152,5.06689 17.32796,8.01611 27.42899,8.01611 16.38644,0 30.95676,-7.73859 40.28494,-19.75085 7.18228,3.86432 15.39499,6.06073 24.12216,6.06073 28.16031,0 50.98865,-22.82846 50.98865,-50.98875 0,-1.5202 -0.0793,-3.02126 -0.20959,-4.50764 23.14972,-4.81995 40.54379,-25.33388 40.54379,-49.91386 0,-0.44916 -0.0223,-0.89282 -0.0339,-1.33917 4.34418,0.92938 8.84741,1.4295 13.46906,1.4295 35.3985,-6e-5 64.09464,-28.69625 64.09457,-64.09479 -7e-5,-35.39847 -28.69627,-64.0946 -64.09477,-64.09454 z" />
</g>
<g
   id="_xFF0B__1_"
   transform="scale(1.3333334)">
	<g
   id="_xFF0B__2_">
		<polygon
   points="391.38403,162.74342 347.5845,172.05302 343.97614,213.29549 387.77567,203.9855 383.92535,247.9953 446.14175,234.77057 449.99203,190.76079 493.79193,181.45119 497.39957,140.20911 453.60043,149.51909 457.45071,105.5093 395.23434,118.73363 "
   id="polygon4243" />
		<polygon
   class="st2"
   points="401.13553,171.37086 357.33597,180.68074 355.6355,200.11676 399.43503,190.80688 395.58472,234.81656 436.39026,226.14307 440.24063,182.13338 484.04019,172.82356 485.74066,153.38748 441.94101,162.69737 445.79138,118.68768 404.98584,127.36124 "
   id="polygon4245" />
		<polyline
   class="st2"
   points="443.64218,121.11691 439.79184,165.12659 483.59143,155.8167 482.24265,171.23325     438.44308,180.54306 434.59271,224.55275 397.73392,232.38733 401.5842,188.37767 357.78473,197.68755 359.13351,182.27106     402.93307,172.96118 406.78339,128.95155 443.64218,121.11691   "
   id="polyline4247" />
		<g
   id="g4264">
			<defs
   id="defs4250">
				<polygon
   id="SVGID_3_"
   points="397.73392,232.38733 434.59256,224.55275 438.44302,180.54305 482.24258,171.23335 483.59143,155.81679 439.79181,165.12659 443.64224,121.11691 406.78339,128.95155 " />
			</defs>
			<clipPath
   id="SVGID_1_">
				<use
   xlink:href="#SVGID_3_"
   style="overflow:visible"
   id="use4252" />
			</clipPath>
			
				<linearGradient
   id="SVGID_4_"
   gradientUnits="userSpaceOnUse"
   x1="391.42465"
   y1="204.01683"
   x2="467.43137"
   y2="179.71747"
   gradientTransform="matrix(1,0,0,0.9563,15.04796,-7.89716)">
				<stop
   offset="0.2"
   style="stop-color:#FFF000"
   id="stop4255" />
				<stop
   offset="0.6"
   style="stop-color:#FFE500"
   id="stop4257" />
				<stop
   offset="0.95"
   style="stop-color:#FFCD00"
   id="stop4259" />
			</linearGradient>
			<rect
   x="397.73392"
   y="121.1169"
   class="st3"
   width="85.857513"
   height="111.27043"
   clip-path="url(#SVGID_1_)"
   id="rect4262"
   style="fill:url(#SVGID_4_)" />
		</g>
		<g
   id="g4279">
			<defs
   id="defs4267">
				<polygon
   id="SVGID_2_"
   points="402.93307,172.96118 359.13351,182.27106 357.78473,197.68755 401.5842,188.37767 " />
			</defs>
			<clipPath
   id="SVGID_5_">
				<use
   xlink:href="#SVGID_2_"
   style="overflow:visible"
   id="use4269" />
			</clipPath>
			
				<radialGradient
   id="SVGID_6_"
   cx="302.81787"
   cy="148.71063"
   r="27.40387"
   gradientTransform="matrix(0.80963,0,0,0.80963,118.62667,59.02123)"
   gradientUnits="userSpaceOnUse">
				<stop
   offset="0.1"
   style="stop-color:#FFFFFF"
   id="stop4272" />
				<stop
   offset="1"
   style="stop-color:#FFF000"
   id="stop4274" />
			</radialGradient>
			<circle
   class="st4"
   cx="364.91937"
   cy="180.85358"
   r="22.18688"
   clip-path="url(#SVGID_5_)"
   id="circle4277"
   style="fill:url(#SVGID_6_)" />
		</g>
	</g>
	<path
   id="ス_1_"
   class="st5"
   d="m 405.58099,201.3651 15.13144,-3.21631 c -0.80313,5.27029 -3.30286,12.19406 -11.77362,13.99458 l -4.38229,0.93149 -0.34711,3.96767 4.47943,-0.95245 c 5.798,-1.23209 8.67029,-2.66237 12.36273,-6.50949 0.82233,0.50111 1.86771,1.64017 2.36453,3.37941 l 6.81906,-1.44943 c -0.83279,-1.24728 -4.58945,-4.0394 -6.86389,-4.55696 2.8811,-3.82565 3.46225,-6.34532 4.06528,-9.12392 0.2139,-1.00577 0.73779,-1.48787 1.29318,-1.60591 l 1.03232,-0.21944 0.33188,-3.79329 -24.16138,5.13567 z" />
	<path
   id="ラ_2_"
   class="st5"
   d="m 430.70804,170.62753 -21.78119,4.62973 0.2955,-3.37715 21.78113,-4.62968 z m 0.76727,1.76134 -23.80188,5.05927 -0.34042,3.89127 17.42316,-3.70331 c -0.48196,5.50876 -5.11691,8.47031 -11.66522,9.86215 l -6.41605,1.36375 -0.34396,3.93228 8.93143,-1.89844 c 6.01877,-1.27933 14.9845,-4.46553 15.8725,-14.61559 z" />
	<path
   id="プ_2_"
   class="st5"
   d="m 439.8269,139.76265 c -0.44757,-2.10582 -2.51758,-3.45009 -4.62338,-3.00247 -2.10583,0.44759 -3.45004,2.51758 -3.00247,4.6234 0.13318,0.62653 0.42249,1.17372 0.80112,1.63829 l -22.64053,4.81242 -0.35159,4.01834 15.22931,-3.23714 c -0.8074,5.27116 -3.24329,12.18126 -11.81778,14.00385 l -4.43591,0.94289 -0.34717,3.96762 4.5343,-0.96413 c 13.10327,-2.7852 16.8284,-10.3022 18.55902,-18.22012 0.21967,-1.00519 0.74533,-1.48947 1.30753,-1.60898 l 1.04495,-0.22208 0.21518,-2.4593 c 0.75787,0.37395 1.63422,0.52011 2.52496,0.33081 2.10583,-0.44763 3.4501,-2.51758 3.00246,-4.6234 z m -3.53225,2.13086 c -0.72928,0.15501 -1.44604,-0.31049 -1.60107,-1.03976 -0.155,-0.72923 0.31049,-1.44606 1.03976,-1.60103 0.72925,-0.15501 1.44608,0.31049 1.60107,1.03972 0.15497,0.72927 -0.31051,1.44605 -1.03976,1.60107 z" />
</g>
<g
   id="リズム天国_ザ_x30FB_歌祭り"
   transform="scale(1.3333334)">
	<path
   id="り"
   class="st2"
   d="m 344.75626,175.13245 c -2.19525,-4.009 -6.48386,-5.39578 -12.8027,-4.05276 -7.3237,1.55673 -9.68292,3.93315 -23.24673,22.9046 l 1.41241,-20.19896 -12.63773,2.68623 -2.60599,37.26688 3.94897,-0.83934 c 8.48572,-1.98505 9.38181,-2.65952 17.3208,-14.02425 7.07227,-10.09169 8.32376,-11.80914 9.70688,-13.37349 1.46265,-1.70177 2.72626,-2.57524 3.80319,-2.80412 2.08246,-0.44266 3.70724,0.60289 4.20767,2.55307 0.4498,1.65857 0.61334,6.40184 0.38577,9.65576 -0.33481,4.78874 -2.13934,9.34558 -4.97205,12.42766 -4.29166,4.72253 -8.30923,6.54433 -19.36661,8.89464 l -15.79721,3.35783 -0.73843,10.55974 16.58673,-3.52565 c 6.17508,-1.31258 9.49551,-2.26018 13.06546,-3.74483 5.53375,-2.26483 9.89465,-4.94582 13.36954,-8.10362 6.65384,-6.13219 9.98941,-13.37306 10.67639,-23.19632 0.4207,-6.01693 -0.56804,-13.1251 -2.31636,-16.44307 z" />
	<path
   id="祭"
   class="st2"
   d="m 229.65843,229.61182 10.84238,-2.30455 c -1.01735,3.42172 -3.44333,8.77602 -6.43053,14.06824 l -12.56563,2.67091 c 3.22292,-4.61647 5.71926,-8.95743 8.15378,-14.4346 z m 40.13808,-8.53156 c 2.23911,6.4191 3.01813,8.43086 4.62738,11.71785 l 12.27847,-2.60983 c -2.6926,-4.99217 -3.7963,-7.41895 -5.34537,-11.56531 z m 19.28915,-21.94234 -0.73407,10.4984 c -3.09943,-0.18788 -4.01547,-0.23506 -5.83081,-0.57507 l -0.48938,6.99919 -19.88959,4.22763 -0.68698,9.82326 c -0.38199,5.46413 -2.96948,8.07066 -9.51216,9.58211 l -9.83699,2.09085 0.65256,-9.33192 6.67754,-1.4193 0.57104,-8.1656 -20.24863,4.30397 0.33488,-4.78903 c -3.093,1.74625 -4.19145,2.28215 -7.2543,3.5985 l 0.65683,-9.39348 c 3.5957,-1.85298 5.14644,-2.78748 7.67769,-4.5956 l -3.20181,-2.76721 -4.5386,3.2029 0.71689,-10.25304 c 5.54845,-3.4778 10.75304,-9.12029 13.38985,-14.45888 l 12.13477,-2.57933 -0.98196,1.9024 13.85806,-2.94569 -0.3176,4.54318 c 2.12592,1.96729 5.1554,4.16602 7.47641,5.36624 l 5.27954,-4.69067 -8.90335,1.89253 0.55807,-7.98126 22.18729,-4.716 -0.5925,8.47255 -10.05783,10.30278 c 3.47008,0.95595 7.80154,1.72896 10.90514,1.85559 z m -37.9644,5.77124 11.77571,-2.50305 c -3.30371,-2.32199 -3.90265,-2.86002 -5.96109,-4.7814 -1.96275,2.77605 -3.12126,4.17137 -5.81462,7.28445 z m -9.59267,-8.48524 4.02609,2.10793 c 1.46286,-1.70213 1.69524,-1.99339 2.86703,-3.57312 z m -7.09864,7.43634 3.63701,2.61374 1.6828,-1.80911 -3.65422,-2.3683 z m 45.64192,4.8143 c -3.6264,-0.7411 -5.42447,-1.32661 -8.78412,-2.85063 l -0.17172,2.45589 -28.64954,6.08965 0.0644,-0.92087 c -2.7769,2.28384 -3.75343,3.09624 -5.75659,4.42918 z" />
	<path
   id="歌"
   class="st2"
   d="m 154.13531,217.08469 -0.77283,11.05144 16.08408,-3.41873 0.77278,-11.05145 z m 9.28005,4.86213 -3.23103,0.68674 0.17599,-2.51707 3.23091,-0.6868 z m 52.26826,-6.99691 1.1162,-15.96301 -14.14523,3.00671 c 0.89403,-2.66982 1.07214,-3.19168 2.01762,-6.59821 l -10.77057,2.28941 c -2.16034,9.65269 -3.83258,13.33475 -8.0856,17.50484 l -0.5237,7.49022 -2.58487,0.54944 1.04323,-14.91924 3.51851,-0.74788 0.5495,-7.85861 -35.54272,7.55479 -0.54944,7.85866 21.32553,-4.53293 -1.04327,14.91924 -21.82823,4.63979 -0.57104,8.16554 21.82829,-4.63971 -0.98318,14.05949 -2.65669,0.5647 0.85869,-12.27919 -16.08408,3.41873 -1.14195,16.33116 11.7757,-2.50299 -0.36923,5.28003 8.25732,-1.75519 c 6.89307,-1.46512 9.79768,-4.56227 10.00742,-10.59486 l 1.03462,-14.79591 3.37474,-0.71738 0.23183,-3.31543 c 2.61209,-1.9464 3.74489,-2.97327 6.19717,-5.67201 l -0.38646,5.5255 c -0.87242,9.43944 -2.74261,12.92146 -9.35663,17.47246 l -0.75557,10.80551 c 8.23409,-3.4435 14.72372,-10.26633 16.5647,-17.37144 2.8381,6.9572 8.39096,10.49443 16.12312,10.18158 l 0.75563,-10.80559 c -5.04086,-0.74287 -8.0704,-2.9416 -10.0289,-7.30368 7.20853,-3.95139 10.26626,-8.23035 10.82754,-15.24454 z m -53.98986,31.61651 -3.23097,0.6868 0.18027,-2.57864 3.23097,-0.68674 z m 43.71455,-30.33989 c -0.2951,3.20804 -0.71426,4.1438 -2.88217,5.81415 l 0.59673,-8.53394 -6.17514,1.31258 c 0.94754,-1.41101 1.10815,-1.68707 2.00108,-3.32855 l 6.89319,-1.46519 z" />
	<polygon
   id="_x2605_"
   class="st2"
   points="124.1919,234.01006 116.4474,236.80452 122.05908,241.03329 120.77756,248.98798 127.66721,243.88443 134.58757,246.04532 133.2484,238.63272 138.82808,231.94908 131.08459,232.50027 127.61133,226.2468 " />
	<path
   id="ザ_00000111872182137243569520000009392471799259587509_"
   class="st2"
   d="m 89.83845,236.86348 8.83811,-1.8786 -0.55627,6.3582 -8.83811,1.8786 -1.39576,15.95358 c -0.70284,8.0336 -5.52287,13.81268 -12.41345,15.254 l -34.04768,7.23718 0.70601,-8.07013 24.34779,-5.17532 c 4.67772,-1.00052 7.15849,-4.79819 7.63298,-10.22192 l 1.04778,-11.97563 -16.01324,3.40373 -1.02651,11.73334 -15.33416,3.25937 0.5238,-5.98657 1.58309,-0.33652 c 1.70327,-0.36194 2.41129,-1.56372 2.55774,-3.2364 l 0.26272,-3.00298 -10.57124,2.24699 0.55628,-6.3582 10.57124,-2.24699 0.25986,-2.97 c 0.09848,-1.12663 -0.71698,-1.80109 -2.55859,-1.40959 l -1.16808,0.24797 0.52477,-5.99821 19.23494,-4.08853 -0.52477,5.99852 -1.57956,0.33572 c -1.70784,0.36304 -2.41519,1.56822 -2.5603,3.22517 l -0.19495,2.22878 16.01318,-3.40373 0.2601,-2.97232 c 0.0986,-1.12712 -0.7218,-1.79779 -2.56072,-1.40691 l -1.22128,0.25955 0.5247,-5.99846 21.89091,-4.65305 -0.52483,5.99852 -1.49753,0.3183 c -1.72667,0.36699 -2.40477,1.51813 -2.55322,3.21506 z m 26.42828,-11.84908 c -0.47303,-2.27144 -2.66182,-3.7363 -4.93319,-3.2632 -2.27137,0.47302 -3.70338,2.66206 -3.2632,4.93318 0.47309,2.27138 2.66212,3.70338 4.93319,3.2632 2.27143,-0.47308 3.7363,-2.66181 3.2632,-4.93318 z m -14.87849,-1.26248 c -2.27131,0.47304 -3.70332,2.662 -3.26314,4.93307 0.47303,2.2713 2.66206,3.70332 4.93307,3.26308 2.27106,-0.44019 3.73617,-2.6617 3.26314,-4.93307 -0.47304,-2.2713 -2.66176,-3.73616 -4.93307,-3.26308 z" />
	<path
   id="国_00000172432642964843070740000010852197176626430628_"
   class="st6"
   d="m 429.68292,80.36962 4.28189,-0.91011 -0.51483,5.88486 -4.28189,0.91011 z m 3.48355,8.2151 -4.16574,0.88554 c -2.43329,0.51716 -3.54504,-0.32811 -3.41098,-1.86001 l 0.85141,-9.73158 7.80722,-1.65969 0.45312,-5.17922 -7.80722,1.65945 0.69351,-7.92679 c 0.22018,-2.51562 1.44797,-3.87061 3.44693,-4.29562 l 4.67792,-0.99421 0.42215,-4.82526 -26.79486,5.69546 -0.42215,4.82514 4.21811,-0.89658 c 2.94836,-0.62667 3.45035,0.82375 3.35962,1.86044 l -0.78159,8.93391 -7.80728,1.65951 -0.45316,5.17934 7.80731,-1.65945 -0.76334,8.72452 c -0.21719,2.48204 -1.46347,3.88444 -3.39551,4.29519 l -4.73032,1.00536 -0.41934,4.79333 26.79483,-5.69546 z m 26.21585,-49.7336 -5.38135,61.5093 -71.35272,15.16651 5.38138,-61.5093 z m -15.9075,11.24234 -37.71054,8.01564 c -2.0271,0.42452 -3.35559,2.05234 -3.55347,4.31774 l -3.66394,41.87904 37.7106,-8.0157 c 1.87463,-0.38783 3.34119,-1.89219 3.55341,-4.31774 z" />
	<path
   id="く_00000149349199747451915270000007955816045860425894_"
   class="st6"
   d="m 434.73538,35.70261 c -0.36554,-0.13328 -0.93326,-0.34219 -0.93301,-0.67182 3.1e-4,-0.27704 0.25314,-0.54171 0.87085,-1.16101 2.46176,-2.48741 2.73923,-2.77079 4.51971,-4.78431 l -1.34891,-0.70211 c -0.88416,1.11128 -1.2244,1.48638 -3.77469,4.23041 -1.31268,1.41325 -1.94489,2.20677 -1.94543,2.8527 -6.7e-4,0.84399 0.9079,1.20488 1.92947,1.60716 1.90347,0.74258 3.71851,1.63599 5.42038,2.72466 l 1.24997,-1.36023 c -1.14657,-0.78481 -4.1351,-2.07453 -5.98834,-2.73545 z" />
	<path
   id="ご_00000155145481758613084010000002489617508561538475_"
   class="st6"
   d="m 409.76959,37.22488 c 0.66583,0.7023 1.10004,1.49357 1.21561,1.70991 l -0.89749,0.75275 c -0.57587,-1.04186 -0.98532,-1.49064 -1.18954,-1.7285 z m 1.89481,1.32464 0.89645,-0.75306 c -0.26865,-0.51855 -0.69055,-1.12493 -1.20209,-1.63209 l -0.89749,0.73965 c 0.49906,0.54964 0.75531,0.89689 1.20313,1.6455 z m -3.69315,5.56486 c -1.9223,0.40862 -4.38181,0.90414 -4.3804,-0.83667 3.1e-4,-0.28125 0.0532,-1.26985 1.12949,-2.58284 l -1.03717,-0.58297 c -0.93552,1.29667 -1.50043,2.26052 -1.5014,3.49204 -9.2e-4,1.05826 0.67731,1.9318 1.56143,2.18532 1.08844,0.31751 2.17734,0.20659 4.70041,-0.32976 1.98596,-0.42215 2.88208,-0.73307 3.3306,-0.89536 l -0.0499,-1.48899 c -1.24238,0.45163 -2.49827,0.77248 -3.75306,1.03923 z m -2.05746,-6.52506 0.92233,0.75465 c 1.48608,-1.26656 2.62662,-2.07154 4.24146,-2.70911 l 10e-4,-1.31221 c -0.81985,0.17424 -4.86792,1.04778 -5.77744,1.24109 -0.64044,0.13608 -2.22894,0.47376 -2.61386,0.54251 l -10e-4,1.51288 c 0.81985,-0.22768 1.92236,-0.48875 4.56134,-1.09001 -0.83374,0.60563 -0.92353,0.6787 -1.33371,1.0602 z" />
	<path
   id="天_00000112599325029477073150000006159828962838376596_"
   class="st7"
   d="m 344.65457,118.7354 c 0.38504,-2.75909 0.63663,-6.87553 0.63663,-6.87553 l 26.6069,-5.65548 0.94342,-10.78381 -26.60684,5.65548 0.84479,-9.65601 26.60684,-5.65548 0.94113,-10.7573 -71.86603,15.27573 -0.94113,10.75723 26.17337,-5.56333 -0.84479,9.65601 -26.17337,5.56333 -0.94336,10.78381 26.17325,-5.56333 -0.34885,3.9875 c -1.11719,12.76997 -8.44644,17.3341 -19.17114,19.62113 l -8.38803,1.78291 -0.94553,10.80763 18.26779,-3.88292 c 14.03043,-2.9758 19.27176,-7.39732 25.81863,-19.85081 2.86829,1.44128 10.47568,7.46973 13.42123,11.51006 l 18.89355,-4.01602 c -4.97431,-6.5567 -23.94068,-15.65363 -29.09846,-17.1408 z" />
	<path
   id="ん_00000062170124076147298030000001865758870392266401_"
   class="st7"
   d="m 355.92783,69.84592 c -0.27219,2.97982 -0.93436,4.23681 -1.95169,4.45309 -1.08029,0.22957 -1.07819,-0.98006 -1.07751,-1.36528 l 10e-4,-0.57133 c 0.002,-0.95703 -0.0454,-3.00584 -2.09122,-2.57101 -0.86411,0.18374 -1.36047,0.66128 -1.64026,0.93327 0.21756,-0.7633 1.39206,-4.48003 1.64807,-5.33157 l -1.60034,0.03461 c -0.56323,2.00597 -2.35284,8.4039 -3.34979,11.75083 l 1.46036,0.12762 c 0.0897,-0.3776 0.72958,-3.05106 0.75555,-3.12255 0.26831,-0.80114 0.99567,-2.57595 2.43195,-2.88133 0.95312,-0.20251 0.9516,0.66091 0.95007,1.51136 l -7.9e-4,0.4517 c -5.5e-4,0.29271 0.0363,1.08148 0.21246,1.53562 0.27899,0.7243 1.09122,1.21634 2.13333,0.99481 2.33768,-0.49692 3.10388,-2.61258 3.45303,-5.82178 z" />
	<path
   id="て_00000038376403324704717220000006516293672074977956_"
   class="st7"
   d="m 323.20953,73.22491 c 0.58261,-0.42117 1.33871,-0.89287 2.45334,-1.12981 0.53262,-0.11323 0.81802,-0.14809 1.07825,-0.17758 l -0.0226,-1.45804 c -1.27618,0.32293 -6.96286,1.76463 -8.0282,2.04277 -0.85446,0.22067 -1.78464,0.47005 -2.63898,0.6516 l 0.0468,1.46614 c 1.9209,-0.57651 3.84082,-1.14011 5.77377,-1.66743 -2.76611,2.34913 -3.42538,4.50935 -3.42776,5.84306 -0.002,1.20501 0.72601,2.28008 1.8396,2.6391 1.12671,0.36936 2.45157,0.41142 5.11566,-0.14218 l 0.2005,-1.58352 c -3.56815,0.87489 -5.73471,0.63642 -5.73117,-1.33274 0.003,-1.74813 1.57993,-3.85776 3.34079,-5.15137 z" />
	<path
   id="ム_00000161625467416271802300000000863895327961210793_"
   class="st6"
   d="m 286.7507,125.61594 -2.84076,0.60386 c -1.8595,0.40031 -3.80542,-0.31269 -5.00299,-2.46522 l -5.49628,-9.87891 -18.83469,4.00343 7.22787,13.03953 -23.23082,4.93791 17.61235,-43.59222 c 0.76968,-1.90504 1.94162,-3.03877 3.44019,-3.3682 l 4.72672,-1.00467 0.65176,-7.44973 -23.19997,4.9313 -20.91234,51.76017 c -0.80995,2.00473 -2.1183,2.93199 -3.44916,3.21475 l -2.8763,0.61139 -0.94214,10.76909 78.36742,-16.65764 z" />
	<path
   id="ズ_1_"
   class="st8"
   d="m 181.37677,116.52699 c -0.53886,-2.63562 1.10756,-5.28954 3.7935,-5.82415 2.63562,-0.53887 5.23483,1.15369 5.82416,3.79356 0.53893,2.63562 -1.10324,5.23908 -3.79356,5.82409 -2.6355,0.53887 -5.23478,-1.15369 -5.8241,-3.7935 z m -2.56354,44.72818 c 7.94284,-10.45013 9.53979,-17.32332 11.19637,-24.9025 0.58754,-2.74344 2.03244,-4.06149 3.56544,-4.38739 l 2.8494,-0.60564 0.90498,-10.34344 -66.69031,14.17557 -0.95865,10.95721 41.76593,-8.8777 c -2.20166,14.37344 -9.08237,33.26672 -32.46332,38.23653 l -12.09601,2.57112 -0.94651,10.81892 12.36417,-2.62898 c 16.00366,-3.40082 23.92926,-7.3208 34.11209,-17.83539 2.27177,1.3602 5.16127,4.45781 6.5381,9.19566 l 18.82207,-4.00075 c -2.303,-3.39421 -12.68279,-10.9787 -18.96375,-12.37322 z m 23.97226,-49.26515 c -0.53462,-2.68601 -3.1843,-4.38282 -5.8241,-3.7935 -2.69034,0.58508 -4.33243,3.18848 -3.79356,5.8241 0.58507,2.69027 3.18858,4.33244 5.8241,3.7935 2.69026,-0.58501 4.38287,-3.18422 3.79356,-5.8241 z" />
	<path
   id="リ_00000000181343728012727080000015496779608615539127_"
   class="st6"
   d="m 69.07587,160.10667 -25.84964,5.49452 0.69846,-7.98315 2.12749,-0.45219 c 2.28904,-0.48656 3.23961,-2.09055 3.43481,-4.32097 l 1.43872,-16.44391 c 0.13139,-1.50247 -0.96526,-2.39984 -3.44024,-1.87373 l -1.56974,0.33318 0.6998,-7.9987 25.84964,-5.49453 -0.69985,7.99919 -2.12267,0.4512 c -2.29507,0.48778 -3.24486,2.09628 -3.43822,4.30586 l -1.4386,16.44403 c -0.1323,1.51186 0.97587,2.41325 3.44353,1.88866 l 1.56499,-0.33255 z m 19.61065,-42.18746 -0.6998,7.99918 1.64129,-0.34883 c 2.47126,-0.52532 3.57455,0.36693 3.4431,1.87 l -2.48582,28.41238 c -0.6327,7.23265 -3.96354,12.30168 -10.24989,13.64638 l -32.72085,6.95494 -0.94149,10.76163 45.75647,-9.72598 c 9.26019,-1.93716 15.73339,-9.65346 16.67062,-20.36638 l 2.86416,-32.73713 c 0.19794,-2.26295 1.10835,-3.79919 3.42883,-4.29239 l 2.01255,-0.42781 0.6998,-7.99912 z" />
</g>
<path
   id="_x2122_"
   d="m 662.76106,171.73634 -0.92819,9.66036 -2.10021,0.45578 0.77535,-8.07003 -2.8512,8.52124 -2.24752,0.48817 -1.25012,-7.63049 -0.77535,8.07009 -2.12488,0.46163 0.92831,-9.66159 3.31962,-0.72001 1.2649,7.22724 0.0245,-0.005 2.68811,-8.08708 z m -21.02287,6.24176 3.4179,-0.74194 -0.76359,7.94781 2.32727,-0.50549 0.76354,-7.94774 3.2953,-0.71545 0.16402,-1.70784 -9.04036,1.96289 z"
   style="stroke-width:1.33333" />
</svg>
