<?xml version="1.0" encoding="UTF-8" standalone="no"?>
<!-- Created with Inkscape (http://www.inkscape.org/) -->

<svg
   version="1.1"
   id="svg2"
   width="666.66669"
   height="399.90399"
   viewBox="0 0 666.66669 399.90399"
   sodipodi:docname="Rhythm Tengoku The Best+ (リズム天国 ザ・ベスト＋) Logo (Wordmark).svg"
   inkscape:version="1.2.2 (b0a8486541, 2022-12-01)"
   xmlns:inkscape="http://www.inkscape.org/namespaces/inkscape"
   xmlns:sodipodi="http://sodipodi.sourceforge.net/DTD/sodipodi-0.dtd"
   xmlns="http://www.w3.org/2000/svg"
   xmlns:svg="http://www.w3.org/2000/svg">
  <defs
     id="defs6">
    <clipPath
       clipPathUnits="userSpaceOnUse"
       id="clipPath16">
      <path
         d="M 0,299.928 H 500 V 0 H 0 Z"
         id="path14" />
    </clipPath>
  </defs>
  <sodipodi:namedview
     id="namedview4"
     pagecolor="#ffffff"
     bordercolor="#000000"
     borderopacity="0.25"
     inkscape:showpageshadow="2"
     inkscape:pageopacity="0.0"
     inkscape:pagecheckerboard="0"
     inkscape:deskcolor="#d1d1d1"
     showgrid="false"
     inkscape:zoom="4.2659999"
     inkscape:cx="291.25646"
     inkscape:cy="291.13925"
     inkscape:window-width="2560"
     inkscape:window-height="1400"
     inkscape:window-x="2560"
     inkscape:window-y="0"
     inkscape:window-maximized="1"
     inkscape:current-layer="g12" />
  <g
     id="g8"
     inkscape:groupmode="layer"
     inkscape:label="Rhythm Tengoku The Best+ (リズム天国 ザ・ベスト＋) Logo (Wordmark)"
     transform="matrix(1.3333333,0,0,-1.3333333,0,399.904)">
    <g
       id="g10">
      <g
         id="g12"
         clip-path="url(#clipPath16)">
        <g
           id="g18"
           transform="translate(457.7493,88.3754)">
          <path
             d="m -21.456039,6.7401029 18.2489998,3.8790001 c -0.969,-6.3560001 -3.983,-14.7070001 -14.1989998,-16.8790001 l -5.286,-1.123 -0.418,-4.7849999 5.402,1.149 c 6.993,1.4859997 10.4569998,3.2109999 14.9099998,7.8509999 0.992,-0.605 2.25299994,-1.979 2.85199994,-4.076 l 8.22400006,1.748 c -1.005,1.504 -5.535,4.87199995 -8.278000068037,5.49599995391 C 3.4749608,4.6141029 4.1759608,7.6531029 4.9029608,11.004103 c 0.258,1.213 0.89,1.795 1.56,1.937 l 1.245,0.265 0.4,4.575 -29.1399998,-6.194 z"
             style="fill:#000000;fill-opacity:1;fill-rule:nonzero;stroke:none"
             id="path20-5" />
        </g>
        <g
           id="g22"
           transform="translate(466.6529,129.338)">
          <path
             d="m 0,0 -27.885,-5.927 -0.403,-4.608 20.809,4.423 c -0.88,-7.831 -6.236,-10.068 -13.99,-11.716 l -7.598,-1.615 -0.383,-4.377 7.309,1.553 C -12.105,-20.133 0.957,-16.508 0,0 m -0.608,2.15 -25.792,-5.483 0.35,3.999 25.792,5.483 z"
             style="fill:#000000;fill-opacity:1;fill-rule:nonzero;stroke:none"
             id="path24" />
        </g>
        <g
           id="g26"
           transform="translate(472.373,165.4244)">
          <path
             d="M 0,0 C -0.889,0.008 -1.603,0.735 -1.596,1.624 -1.588,2.513 -0.861,3.227 0.028,3.219 0.917,3.212 1.631,2.485 1.624,1.596 1.616,0.707 0.889,-0.008 0,0 m 0.052,5.926 c -2.384,0.02 -4.333,-1.895 -4.354,-4.279 -0.01,-1.13 0.426,-2.154 1.13,-2.93 l -27.261,-5.795 -0.416,-4.751 17.671,3.756 c -1.112,-9.895 -5.13,-14.623 -18.899,-17.799 l -0.385,-4.396 3.216,0.683 c 18.918,4.021 22.674,14.357 24.358,21.624 0.278,1.198 1.086,2.391 1.756,2.533 l 0.795,0.169 0.272,3.108 C -1.457,-2.488 -0.768,-2.7 -0.024,-2.706 2.36,-2.727 4.309,-0.812 4.33,1.572 4.351,3.956 2.435,5.905 0.052,5.926"
             style="fill:#000000;fill-opacity:1;fill-rule:nonzero;stroke:none"
             id="path28" />
        </g>
        <g
           id="g30"
           transform="translate(336.4406,105.2965)">
          <path
             d="m 0,0 1.046,11.953 c 0.172,1.968 1.959,3.918 3.998,4.352 l 1.575,0.334 0.702,8.03 -28.915,-6.146 -0.703,-8.03 2.797,0.595 c 1.368,0.29 2.37,-0.547 2.256,-1.853 l -3.241,-37.04 c -0.172,-1.968 -1.959,-3.918 -3.998,-4.352 l -1.575,-0.334 -0.702,-8.03 28.915,6.146 0.703,8.03 -2.797,-0.595 c -1.368,-0.29 -2.37,0.547 -2.256,1.854 l 1.326,15.158 c 0,0 13.299,3.682 30.161,-13.706 l 1.513,17.303 C 17.898,3.968 0,0 0,0"
             style="fill:#000000;fill-opacity:1;fill-rule:nonzero;stroke:none"
             id="path32" />
        </g>
        <g
           id="g34"
           transform="translate(278.9948,73.8936)">
          <path
             d="M -1.689249e-4,-4.7094215e-4 C 7.5683297,9.9570214 9.089915,16.506034 10.66863,23.72773 c 0.559229,2.61349 1.935978,3.869542 3.397215,4.180135 l 2.714875,0.576931 0.86258,9.856107 -63.545295,-13.507589 -0.913273,-10.44028 39.7961735,8.459242 C -9.1168061,9.1563988 -15.67306,-8.8451374 -37.951289,-13.580474 l -11.524942,-2.450147 -0.902813,-10.308317 11.781624,2.504862 c 15.248843,3.240309 22.800444,6.975475 32.5028636,16.994116 2.1644973,-1.2962845 4.9171906,-4.247725 6.22956797,-8.761784 L 18.068958,-11.790141 C 15.874689,-8.5554649 5.9847867,-1.3289408 -1.689249e-4,-4.7094215e-4"
             style="fill:#000000;fill-opacity:1;fill-rule:nonzero;stroke:none;stroke-width:0.804646"
             id="path80-9"
             sodipodi:nodetypes="cccccccccccccccc" />
        </g>
        <g
           id="g38"
           transform="translate(216.7743,54.7257)">
          <path
             d="m 0,0 -3.464,-0.736 c -2.21,-0.47 -4.585,-0.975 -7.003,1.371 l -26.562,25.778 c -3.066,2.972 -7.316,5.233 -11.822,4.276 L -73.034,25.548 -77.39,-7.218 c -0.569,-4.276 -2.204,-4.698 -5.584,-5.417 l -0.731,-8.44 23.013,4.911 4.846,36.447 32.156,-31.206 c 4.173,-4.05 4.173,-4.05 12.027,-2.381 l 10.72,2.279 z m -13.671,37.78 c 2.951,-0.026 5.344,-2.461 5.318,-5.412 -0.025,-2.951 -2.461,-5.344 -5.412,-5.319 -2.95,0.026 -5.344,2.462 -5.318,5.412 0.026,2.99 2.423,5.345 5.412,5.319 m -12.801,-2.72 c 2.951,-0.026 5.344,-2.462 5.318,-5.412 -0.026,-2.951 -2.461,-5.344 -5.412,-5.319 -2.951,0.026 -5.344,2.461 -5.318,5.412 0.026,2.951 2.423,5.345 5.412,5.319"
             style="fill:#000000;fill-opacity:1;fill-rule:nonzero;stroke:none"
             id="path40" />
        </g>
        <g
           id="g42"
           transform="translate(120.4095,58.8204)">
          <path
             d="m 0,0 -9.152,-0.616 -4.079,7.421 -4.109,-9.161 -9.156,-3.276 6.612,-5.046 -1.58,-9.446 8.196,6.043 8.18,-2.562 -1.548,8.781 z"
             style="fill:#000000;fill-opacity:1;fill-rule:nonzero;stroke:none"
             id="path44" />
        </g>
        <g
           id="g46"
           transform="translate(76.0778,68.58)">
          <path
             d="m 0,0 c -2.69,-0.56 -4.385,-3.152 -3.864,-5.842 0.56,-2.689 3.152,-4.385 5.841,-3.864 2.69,0.522 4.425,3.152 3.865,5.842 C 5.281,-1.174 2.69,0.56 0,0 m 17.619,-1.495 c -0.561,2.69 -3.152,4.424 -5.842,3.864 -2.69,-0.56 -4.386,-3.152 -3.864,-5.842 0.56,-2.689 3.152,-4.385 5.841,-3.864 2.69,0.561 4.425,3.152 3.865,5.842 m -31.296,-14.031 10.466,2.224 -0.659,-7.529 -10.466,-2.224 -1.652,-18.892 c -0.833,-9.513 -6.54,-16.356 -14.7,-18.063 l -40.318,-8.57 0.836,9.556 28.832,6.129 c 5.539,1.184 8.477,5.682 9.039,12.104 l 1.24,14.181 -18.962,-4.03 -1.215,-13.895 -18.159,-3.859 0.621,7.089 1.874,0.398 c 2.017,0.429 2.856,1.852 3.029,3.833 l 0.311,3.556 -12.518,-2.661 0.659,7.529 12.518,2.661 0.308,3.517 c 0.116,1.334 -0.849,2.133 -3.03,1.669 l -1.383,-0.294 0.621,7.103 22.777,4.842 -0.621,-7.103 -1.87,-0.398 c -2.023,-0.43 -2.86,-1.857 -3.032,-3.819 l -0.231,-2.639 18.962,4.03 0.308,3.52 c 0.117,1.335 -0.855,2.129 -3.032,1.666 l -1.446,-0.307 0.621,7.103 25.922,5.51 -0.621,-7.104 -1.774,-0.376 c -2.044,-0.435 -2.847,-1.798 -3.023,-3.808 z"
             style="fill:#000000;fill-opacity:1;fill-rule:nonzero;stroke:none"
             id="path48" />
        </g>
        <g
           id="g50"
           transform="translate(481.163,274.2194)">
          <path
             d="m 0,0 -44.655,-9.492 c -2.401,-0.503 -3.974,-2.43 -4.208,-5.113 l -4.339,-49.591 44.655,9.492 c 2.22,0.459 3.957,2.24 4.208,5.113 z m 18.837,13.313 -6.372,-72.837 -84.493,-17.96 6.372,72.837 z m -31.044,-58.893 -4.933,-1.048 c -2.881,-0.613 -4.198,0.388 -4.039,2.202 l 1.008,11.524 9.245,1.965 0.537,6.133 -9.245,-1.965 0.821,9.387 c 0.261,2.979 1.715,4.583 4.082,5.086 l 5.539,1.178 0.5,5.714 -31.729,-6.745 -0.5,-5.713 4.995,1.061 c 3.491,0.742 4.086,-0.975 3.978,-2.203 l -0.925,-10.579 -9.245,-1.965 -0.537,-6.133 9.245,1.965 -0.904,-10.331 c -0.257,-2.94 -1.733,-4.6 -4.021,-5.087 l -5.601,-1.19 -0.497,-5.676 31.73,6.744 z m -4.125,9.728 5.071,1.078 -0.61,-6.969 -5.07,-1.077 z"
             style="fill:#000000;fill-opacity:1;fill-rule:nonzero;stroke:none"
             id="path52" />
        </g>
        <g
           id="g54"
           transform="translate(470.8141,291.2605)">
          <path
             d="m 0,0 c -0.433,0.158 -1.105,0.405 -1.105,0.796 10e-4,0.328 0.3,0.641 1.031,1.374 2.916,2.946 3.244,3.281 5.352,5.666 L 3.681,8.667 C 2.634,7.351 2.231,6.907 -0.789,3.658 -2.343,1.984 -3.092,1.045 -3.092,0.28 c -10e-4,-1 1.075,-1.427 2.284,-1.903 2.254,-0.88 4.404,-1.938 6.419,-3.227 l 1.48,1.611 C 5.733,-2.31 2.195,-0.783 0,0"
             style="fill:#000000;fill-opacity:1;fill-rule:nonzero;stroke:none"
             id="path56" />
        </g>
        <g
           id="g58"
           transform="translate(436.6847,289.0263)">
          <path
             d="m 0,0 1.092,-0.894 c 1.76,1.5 3.111,2.453 5.023,3.208 L 6.116,3.868 C 5.145,3.662 0.352,2.628 -0.725,2.399 -1.484,2.237 -3.365,1.838 -3.821,1.756 l -10e-4,-1.791 c 0.971,0.269 2.276,0.578 5.401,1.29 C 0.592,0.538 0.486,0.452 0,0 m 2.436,-7.727 c -2.276,-0.484 -5.188,-1.07 -5.187,0.991 10e-4,0.333 0.063,1.504 1.338,3.059 l -1.228,0.69 c -1.108,-1.536 -1.777,-2.677 -1.778,-4.135 -0.001,-1.253 0.802,-2.288 1.849,-2.588 1.289,-0.376 2.578,-0.245 5.566,0.39 2.351,0.5 3.413,0.869 3.944,1.061 L 6.881,-6.496 C 5.409,-7.031 3.922,-7.411 2.436,-7.727 m 4.374,6.59 1.061,0.892 C 7.553,0.369 7.053,1.087 6.448,1.687 L 5.385,0.811 C 5.976,0.161 6.279,-0.251 6.81,-1.137 M 4.566,0.432 C 5.354,-0.4 5.869,-1.337 6.005,-1.593 L 4.943,-2.485 C 4.261,-1.251 3.776,-0.72 3.534,-0.438 Z"
             style="fill:#000000;fill-opacity:1;fill-rule:nonzero;stroke:none"
             id="path60" />
        </g>
        <g
           id="g62"
           transform="translate(364.144,192.9364)">
          <path
             d="m 0,0 c 0.456,3.267 0.754,8.142 0.754,8.142 l 31.507,6.697 1.117,12.769 -31.507,-6.697 1,11.435 31.507,6.697 1.115,12.738 -85.101,-18.089 -1.115,-12.738 30.994,6.588 L -20.73,16.108 -51.723,9.52 -52.84,-3.25 -21.847,3.338 -22.26,-1.384 c -1.323,-15.122 -10.002,-20.526 -22.702,-23.235 l -9.932,-2.111 -1.12,-12.798 21.632,4.598 c 16.614,3.524 22.821,8.76 30.573,23.507 3.397,-1.707 12.405,-8.846 15.893,-13.63 l 22.373,4.756 C 28.567,-12.533 6.108,-1.761 0,0"
             style="fill:#000000;fill-opacity:1;fill-rule:nonzero;stroke:none"
             id="path64" />
        </g>
        <g
           id="g66"
           transform="translate(377.4933,250.8294)">
          <path
             d="m 0,0 c -0.322,-3.529 -1.106,-5.017 -2.311,-5.273 -1.279,-0.272 -1.277,1.16 -1.276,1.617 l 0.001,0.676 c 0.002,1.133 -0.054,3.559 -2.476,3.045 -1.023,-0.218 -1.611,-0.783 -1.942,-1.106 0.257,0.904 1.648,5.306 1.951,6.314 L -7.948,5.232 C -8.615,2.857 -10.734,-4.72 -11.915,-8.683 l 1.73,-0.151 c 0.106,0.447 0.864,3.613 0.894,3.698 0.318,0.948 1.179,3.05 2.88,3.411 1.129,0.24 1.127,-0.782 1.125,-1.789 l -0.001,-0.535 c 0,-0.347 0.043,-1.281 0.252,-1.819 0.33,-0.857 1.292,-1.44 2.526,-1.178 2.768,0.589 3.676,3.094 4.089,6.894 z"
             style="fill:#000000;fill-opacity:1;fill-rule:nonzero;stroke:none"
             id="path68" />
        </g>
        <g
           id="g70"
           transform="translate(338.7496,246.8281)">
          <path
             d="m 0,0 c 0.69,0.499 1.585,1.057 2.905,1.338 0.631,0.134 0.969,0.175 1.277,0.21 L 4.155,3.275 C 2.644,2.892 -4.09,1.185 -5.351,0.856 -6.363,0.594 -7.465,0.299 -8.476,0.084 l 0.055,-1.736 c 2.275,0.683 4.548,1.35 6.837,1.975 -3.275,-2.782 -4.056,-5.34 -4.059,-6.92 -0.002,-1.427 0.86,-2.7 2.178,-3.125 1.335,-0.437 2.903,-0.487 6.058,0.169 l 0.238,1.875 C -1.395,-8.714 -3.96,-8.432 -3.956,-6.1 -3.952,-4.03 -2.085,-1.532 0,0"
             style="fill:#000000;fill-opacity:1;fill-rule:nonzero;stroke:none"
             id="path72" />
        </g>
        <g
           id="g74"
           transform="translate(295.5765,184.7887)">
          <path
             d="m 0,0 -3.364,-0.715 c -2.202,-0.474 -4.506,0.37 -5.924,2.919 l -6.509,11.698 -22.303,-4.74 8.559,-15.441 -27.509,-5.847 20.856,51.62 c 0.911,2.256 2.299,3.598 4.074,3.988 l 5.597,1.19 0.772,8.821 -27.473,-5.839 -24.763,-61.292 c -0.96,-2.374 -2.509,-3.472 -4.085,-3.807 l -3.406,-0.724 -1.115,-12.752 92.799,19.725 z"
             style="fill:#000000;fill-opacity:1;fill-rule:nonzero;stroke:none"
             id="path76" />
        </g>
        <g
           id="g78"
           transform="translate(196.1484,200.9238)">
          <path
             d="m 0,0 c -0.633,3.181 -3.771,5.19 -6.897,4.492 -3.185,-0.693 -5.13,-3.776 -4.492,-6.897 0.693,-3.185 3.776,-5.13 6.897,-4.492 C -1.306,-6.204 0.698,-3.126 0,0 m -28.387,-58.338 c 9.406,12.375 11.297,20.514 13.258,29.489 0.696,3.249 2.407,4.809 4.222,5.195 l 3.374,0.717 1.072,12.249 -78.972,-16.786 -1.135,-12.975 49.457,10.512 c -4.565,-29.803 -20.217,-41.404 -47.904,-47.289 l -4.861,-1.033 -1.121,-12.812 14.641,3.113 c 18.951,4.028 28.336,8.669 40.394,21.12 2.691,-1.611 6.112,-5.279 7.743,-10.889 l 22.288,4.738 c -2.727,4.019 -15.018,13 -22.456,14.651 m 3.036,52.966 c -0.638,3.121 1.311,6.263 4.492,6.896 3.121,0.638 6.199,-1.366 6.897,-4.492 0.638,-3.121 -1.307,-6.204 -4.493,-6.897 -3.121,-0.638 -6.199,1.367 -6.896,4.493"
             style="fill:#000000;fill-opacity:1;fill-rule:nonzero;stroke:none"
             id="path80" />
        </g>
        <g
           id="g82"
           transform="translate(61.0369,193.9029)">
          <path
             d="m 0,0 -0.829,-9.472 1.944,0.413 c 2.926,0.622 4.233,-0.435 4.077,-2.215 L 2.248,-44.918 c -0.749,-8.565 -4.693,-14.568 -12.137,-16.16 l -38.747,-8.236 -1.115,-12.743 54.183,11.517 c 10.966,2.294 18.631,11.431 19.741,24.117 l 3.392,38.766 c 0.234,2.68 1.312,4.499 4.06,5.083 l 2.383,0.506 0.829,9.473 z m -23.222,-49.957 -30.61,-6.506 0.827,9.453 2.519,0.536 c 2.711,0.576 3.836,2.475 4.067,5.116 l 1.704,19.473 c 0.156,1.779 -1.143,2.841 -4.074,2.218 l -1.858,-0.394 0.828,9.472 30.61,6.506 -0.828,-9.472 -2.514,-0.535 c -2.718,-0.577 -3.842,-2.482 -4.071,-5.098 l -1.704,-19.473 c -0.157,-1.79 1.156,-2.857 4.078,-2.236 l 1.853,0.394 z"
             style="fill:#000000;fill-opacity:1;fill-rule:nonzero;stroke:none"
             id="path84" />
        </g>
        <g
           id="g86"
           transform="translate(481.3622,175.4722)">
          <path
             d="M 0,0 3.035,0.659 2.357,-6.4 4.424,-5.951 5.102,1.108 8.029,1.743 8.175,3.26 0.146,1.517 Z m 18.671,5.543 -0.825,-8.579 -1.865,-0.405 0.689,7.167 -2.532,-7.568 -1.996,-0.433 -1.111,6.777 -0.688,-7.168 -1.887,-0.41 0.824,8.581 2.948,0.64 1.124,-6.419 0.021,0.004 2.388,7.182 z"
             style="fill:#000000;fill-opacity:1;fill-rule:nonzero;stroke:none"
             id="path88" />
        </g>
      </g>
    </g>
  </g>
</svg>
