<?xml version="1.0" encoding="UTF-8" standalone="no"?>
<!-- Created with Inkscape (http://www.inkscape.org/) -->

<svg
   version="1.1"
   id="svg2"
   width="666.66669"
   height="421.90399"
   viewBox="0 0 666.66669 421.90399"
   sodipodi:docname="Rhythm Tengoku The Best+ (リズム天国 ザ・ベスト＋) Logo.ai"
   xmlns:inkscape="http://www.inkscape.org/namespaces/inkscape"
   xmlns:sodipodi="http://sodipodi.sourceforge.net/DTD/sodipodi-0.dtd"
   xmlns="http://www.w3.org/2000/svg"
   xmlns:svg="http://www.w3.org/2000/svg">
  <defs
     id="defs6">
    <clipPath
       clipPathUnits="userSpaceOnUse"
       id="clipPath16">
      <path
         d="M 0,316.428 H 500 V 0 H 0 Z"
         id="path14" />
    </clipPath>
    <linearGradient
       x1="0"
       y1="0"
       x2="1"
       y2="0"
       gradientUnits="userSpaceOnUse"
       gradientTransform="matrix(125.22918,45.579697,45.579697,-125.22918,358.07346,116.88607)"
       spreadMethod="pad"
       id="linearGradient56">
      <stop
         style="stop-opacity:1;stop-color:#feee04"
         offset="0"
         id="stop50" />
      <stop
         style="stop-opacity:1;stop-color:#feee04"
         offset="0.5"
         id="stop52" />
      <stop
         style="stop-opacity:1;stop-color:#ffc602"
         offset="1"
         id="stop54" />
    </linearGradient>
    <radialGradient
       fx="0"
       fy="0"
       cx="0"
       cy="0"
       r="1"
       gradientUnits="userSpaceOnUse"
       gradientTransform="matrix(29.999998,0,0,-29.999998,363.4003,137.51115)"
       spreadMethod="pad"
       id="radialGradient78">
      <stop
         style="stop-opacity:1;stop-color:#ffffff"
         offset="0"
         id="stop72" />
      <stop
         style="stop-opacity:1;stop-color:#ffffff"
         offset="0.1"
         id="stop74" />
      <stop
         style="stop-opacity:1;stop-color:#feee04"
         offset="1"
         id="stop76" />
    </radialGradient>
    <clipPath
       clipPathUnits="userSpaceOnUse"
       id="clipPath88">
      <path
         d="M 0,316.428 H 500 V 0 H 0 Z"
         id="path86" />
    </clipPath>
  </defs>
  <sodipodi:namedview
     id="namedview4"
     pagecolor="#ffffff"
     bordercolor="#000000"
     borderopacity="0.25"
     inkscape:showpageshadow="2"
     inkscape:pageopacity="0.0"
     inkscape:pagecheckerboard="0"
     inkscape:deskcolor="#d1d1d1" />
  <g
     id="g8"
     inkscape:groupmode="layer"
     inkscape:label="Rhythm Tengoku The Best+ (リズム天国 ザ・ベスト＋) Logo"
     transform="matrix(1.3333333,0,0,-1.3333333,0,421.904)">
    <g
       id="g10">
      <g
         id="g12"
         clip-path="url(#clipPath16)">
        <g
           id="g18"
           transform="translate(421.0644,316.4281)">
          <path
             d="m 0,0 c -27.788,0 -52.25,-14.447 -66.32,-36.21 -5.148,1.06 -10.478,1.618 -15.935,1.618 -17.005,0 -32.758,-5.423 -45.658,-14.606 -12.399,8.113 -27.198,12.85 -43.09,12.85 -27.741,0 -52.167,-14.397 -66.249,-36.098 -5.074,1.028 -10.322,1.572 -15.695,1.572 -17.125,0 -32.981,-5.499 -45.931,-14.8 -12.432,8.177 -27.291,12.952 -43.25,12.952 -43.526,0 -78.936,-35.41 -78.936,-78.936 0,-19.967 7.466,-38.213 19.735,-52.129 -12.091,-11.943 -19.601,-28.514 -19.601,-46.811 0,-36.299 29.532,-65.83 65.831,-65.83 21.519,0 40.658,10.38 52.677,26.395 2.357,-0.279 4.74,-0.437 7.149,-0.437 9.35,0 18.203,2.16 26.094,6 9.014,-4.645 19.223,-7.285 30.043,-7.285 18.1,0 34.516,7.345 46.429,19.209 7.417,-2.836 15.362,-4.336 23.542,-4.336 16.437,0 31.953,5.986 44.063,16.922 6.411,-2.089 13.245,-3.232 20.345,-3.232 34.141,0 62.288,26.128 65.514,59.437 19.37,8.05 34.081,25.094 38.922,45.891 0.108,-0.001 0.213,-0.008 0.321,-0.008 43.525,0 78.936,35.41 78.936,78.936 C 78.936,-35.411 43.525,0 0,0"
             style="fill:#0096e6;fill-opacity:1;fill-rule:nonzero;stroke:none"
             id="path20" />
        </g>
        <g
           id="g22"
           transform="translate(421.0644,307.4144)">
          <path
             d="m 0,0 c -26.899,-0.001 -50.283,-15.278 -61.973,-37.602 -6.423,1.95 -13.231,3.01 -20.282,3.01 -17.337,0 -33.208,-6.357 -45.44,-16.844 -11.92,9.434 -26.962,15.088 -43.308,15.088 -26.845,0 -50.191,-15.216 -61.905,-37.468 -6.352,1.905 -13.076,2.941 -20.039,2.941 -17.462,0 -33.435,-6.448 -45.702,-17.069 -11.946,9.515 -27.055,15.222 -43.479,15.222 -38.555,0 -69.923,-31.367 -69.923,-69.922 0,-21.001 9.32,-39.854 24.025,-52.682 -14.445,-10.312 -23.89,-27.198 -23.89,-46.259 0,-31.328 25.488,-56.816 56.817,-56.816 20.499,0 38.494,10.915 48.488,27.236 3.679,-0.835 7.473,-1.278 11.338,-1.278 9.572,0 18.531,2.663 26.183,7.283 8.703,-5.423 18.966,-8.568 29.954,-8.568 17.796,0 33.7,8.231 44.125,21.078 7.906,-4.048 16.708,-6.205 25.846,-6.205 15.177,0 29.444,5.91 40.175,16.641 0.568,0.568 1.116,1.152 1.657,1.739 6.924,-3.01 14.556,-4.69 22.576,-4.69 31.328,0 56.816,25.488 56.816,56.817 0,0.017 -0.002,0.034 -0.002,0.051 21.637,6.571 37.845,25.725 40.068,48.908 2.586,-0.292 5.211,-0.456 7.875,-0.456 38.556,0 69.922,31.367 69.922,69.923 C 69.922,-31.367 38.556,0 0,0"
             style="fill:#ffffff;fill-opacity:1;fill-rule:nonzero;stroke:none"
             id="path24" />
        </g>
        <g
           id="g26"
           transform="translate(421.0645,301.5865)">
          <path
             d="m 0,0 c -26.48,0 -49.206,-16.06 -58.978,-38.97 -7.218,2.816 -15.063,4.378 -23.278,4.378 -17.685,0 -33.697,-7.164 -45.294,-18.747 -11.423,10.543 -26.683,16.991 -43.453,16.991 -26.418,0 -49.096,-15.986 -58.906,-38.81 -7.152,2.757 -14.915,4.284 -23.039,4.284 -17.817,0 -33.931,-7.275 -45.548,-19.01 -11.443,10.643 -26.773,17.162 -43.632,17.162 -35.399,0 -64.095,-28.696 -64.095,-64.094 0,-22.205 11.295,-41.769 28.449,-53.271 -16.779,-8.347 -28.314,-25.657 -28.314,-45.67 0,-28.16 22.828,-50.988 50.989,-50.988 19.988,0 37.28,11.508 45.638,28.254 4.462,-1.482 9.229,-2.296 14.188,-2.296 9.782,0 18.827,3.131 26.208,8.433 8.407,-6.107 18.743,-9.718 29.928,-9.718 17.774,0 33.417,9.099 42.543,22.889 7.922,-5.067 17.328,-8.016 27.429,-8.016 16.386,0 30.957,7.738 40.285,19.75 7.182,-3.864 15.395,-6.06 24.122,-6.06 28.16,0 50.989,22.828 50.989,50.989 0,1.52 -0.079,3.021 -0.21,4.507 23.15,4.82 40.544,25.334 40.544,49.914 0,0.449 -0.022,0.893 -0.034,1.339 4.344,-0.929 8.848,-1.429 13.469,-1.429 35.399,0 64.095,28.696 64.095,64.094 C 64.095,-28.696 35.398,0 0,0"
             style="fill:#000000;fill-opacity:1;fill-rule:nonzero;stroke:none"
             id="path28" />
        </g>
        <g
           id="g30"
           transform="translate(453.6331,167.3946)">
          <path
             d="m 0,0 3.85,44.01 -62.196,-13.221 -3.85,-44.009 -43.406,-9.226 -3.693,-42.218 43.405,9.227 -3.85,-44.01 62.196,13.22 3.85,44.01 43.405,9.226 3.694,42.217 z"
             style="fill:#000000;fill-opacity:1;fill-rule:nonzero;stroke:none"
             id="path32" />
        </g>
        <g
           id="g34"
           transform="translate(441.941,153.7307)">
          <path
             d="m 0,0 3.85,44.01 -40.805,-8.674 -3.851,-44.01 -43.404,-9.226 -1.701,-19.436 43.405,9.226 -3.85,-44.009 40.805,8.673 3.851,44.01 43.405,9.226 1.7,19.436 z"
             style="fill:#feee04;fill-opacity:1;fill-rule:nonzero;stroke:none"
             id="path36" />
        </g>
      </g>
    </g>
    <g
       id="g38">
      <g
         id="g40">
        <g
           id="g46">
          <g
             id="g48">
            <path
               d="m 406.279,187.852 -3.85,-44.01 -43.406,-9.226 -1.434,-16.399 43.405,9.226 -3.85,-44.009 37.953,8.066 3.85,44.01 43.405,9.226 1.435,16.399 -43.405,-9.226 3.851,44.009 z"
               style="fill:url(#linearGradient56);stroke:none"
               id="path58" />
          </g>
        </g>
      </g>
    </g>
    <g
       id="g60">
      <g
         id="g62">
        <g
           id="g68">
          <g
             id="g70">
            <path
               d="m 359.023,134.616 -1.434,-16.399 35.704,7.589 c 1.027,2.982 1.596,6.178 1.625,9.506 v 0 c 0.021,2.33 -0.225,4.601 -0.709,6.782 v 0 z"
               style="fill:url(#radialGradient78);stroke:none"
               id="path80" />
          </g>
        </g>
      </g>
    </g>
    <g
       id="g82">
      <g
         id="g84"
         clip-path="url(#clipPath88)">
        <g
           id="g90"
           transform="translate(423.7024,109.3929)">
          <path
             d="m 0,0 c 2.934,3.896 3.526,6.463 4.141,9.293 0.217,1.024 0.751,1.515 1.317,1.635 l 1.051,0.224 0.338,3.863 -24.608,-5.23 -0.359,-4.093 15.412,3.276 C -4.14,-0.431 -9.021,-4.079 -17.648,-5.913 l -1.515,-0.322 -0.354,-4.041 4.563,0.97 c 5.905,1.255 8.831,2.712 12.591,6.63 0.838,-0.51 1.903,-1.67 2.409,-3.442 l 6.945,1.477 C 6.143,-3.371 2.317,-0.527 0,0"
             style="fill:#ff0000;fill-opacity:1;fill-rule:nonzero;stroke:none"
             id="path92" />
        </g>
        <g
           id="g94"
           transform="translate(431.2213,143.9851)">
          <path
             d="m 0,0 -23.548,-5.005 -0.34,-3.891 17.572,3.735 c -0.743,-6.613 -5.266,-8.502 -11.814,-9.894 l -6.416,-1.364 -0.324,-3.697 6.173,1.312 C -10.222,-17.002 0.808,-13.941 0,0 m -0.513,1.815 -21.782,-4.629 0.296,3.377 21.781,4.629 z"
             style="fill:#ff0000;fill-opacity:1;fill-rule:nonzero;stroke:none"
             id="path96" />
        </g>
        <g
           id="g98"
           transform="translate(436.0518,174.4593)">
          <path
             d="m 0,0 c -0.751,0.007 -1.354,0.62 -1.347,1.371 0.006,0.751 0.62,1.354 1.371,1.348 C 0.775,2.712 1.378,2.098 1.371,1.347 1.365,0.597 0.751,-0.007 0,0 m 0.044,5.004 c -2.013,0.018 -3.659,-1.6 -3.677,-3.613 -0.008,-0.955 0.36,-1.82 0.955,-2.475 l -23.022,-4.893 -0.351,-4.013 14.922,3.172 c -0.938,-8.355 -4.332,-12.348 -15.96,-15.03 l -0.324,-3.713 2.715,0.577 c 15.976,3.396 19.148,12.125 20.57,18.261 0.235,1.012 0.917,2.019 1.483,2.14 l 0.671,0.142 0.23,2.625 c 0.514,-0.285 1.095,-0.464 1.724,-0.469 2.013,-0.018 3.659,1.6 3.677,3.612 0.017,2.013 -1.6,3.659 -3.613,3.677"
             style="fill:#ff0000;fill-opacity:1;fill-rule:nonzero;stroke:none"
             id="path100" />
        </g>
        <g
           id="g102"
           transform="translate(321.2596,123.6825)">
          <path
             d="m 0,0 0.883,10.094 c 0.146,1.662 1.654,3.309 3.377,3.675 l 1.329,0.283 0.594,6.78 -24.419,-5.19 -0.593,-6.781 2.362,0.502 c 1.155,0.246 2.001,-0.462 1.905,-1.565 l -2.737,-31.279 c -0.145,-1.662 -1.654,-3.308 -3.377,-3.675 l -1.329,-0.282 -0.594,-6.781 24.419,5.19 0.593,6.781 -2.362,-0.502 c -1.154,-0.245 -2.001,0.462 -1.904,1.565 l 1.119,12.801 c 0,0 11.23,3.11 25.47,-11.574 l 1.279,14.612 C 15.115,3.351 0,0 0,0"
             style="fill:#feee04;fill-opacity:1;fill-rule:nonzero;stroke:none"
             id="path104" />
        </g>
        <g
           id="g106"
           transform="translate(272.7477,97.1633)">
          <path
             d="m 0,0 c 6.391,8.409 7.676,13.939 9.009,20.038 0.473,2.207 1.636,3.268 2.869,3.53 l 2.293,0.487 0.728,8.323 -53.662,-11.406 -0.771,-8.817 33.606,7.143 C -9.03,-0.953 -19.665,-8.836 -38.479,-12.835 l -3.303,-0.702 -0.762,-8.705 9.949,2.115 c 12.877,2.736 19.255,5.891 27.448,14.351 1.828,-1.094 4.153,-3.587 5.261,-7.399 l 15.145,3.219 C 13.406,-7.225 5.054,-1.122 0,0"
             style="fill:#feee04;fill-opacity:1;fill-rule:nonzero;stroke:none"
             id="path108" />
        </g>
        <g
           id="g110"
           transform="translate(220.2037,80.9765)">
          <path
             d="M 0,0 -2.925,-0.622 C -4.792,-1.019 -6.797,-1.445 -8.839,0.536 L -31.27,22.305 c -2.589,2.51 -6.179,4.42 -9.984,3.611 l -20.422,-4.341 -3.679,-27.671 c -0.48,-3.611 -1.86,-3.967 -4.715,-4.574 l -0.617,-7.128 19.434,4.148 4.092,30.779 27.155,-26.353 c 3.525,-3.421 3.525,-3.421 10.156,-2.011 l 9.054,1.924 z m -11.545,31.904 c 2.492,-0.022 4.513,-2.078 4.491,-4.57 -0.021,-2.492 -2.078,-4.513 -4.57,-4.491 -2.492,0.021 -4.513,2.078 -4.491,4.57 0.022,2.524 2.046,4.513 4.57,4.491 m -10.81,-2.297 c 2.492,-0.022 4.513,-2.078 4.491,-4.57 -0.022,-2.492 -2.078,-4.513 -4.57,-4.491 -2.492,0.021 -4.513,2.078 -4.491,4.57 0.021,2.492 2.046,4.513 4.57,4.491"
             style="fill:#feee04;fill-opacity:1;fill-rule:nonzero;stroke:none"
             id="path112" />
        </g>
        <g
           id="g114"
           transform="translate(138.8255,84.4343)">
          <path
             d="m 0,0 -7.729,-0.52 -3.444,6.267 -3.47,-7.737 -7.733,-2.766 5.585,-4.261 -1.335,-7.977 6.921,5.103 6.908,-2.164 -1.307,7.416 z"
             style="fill:#feee04;fill-opacity:1;fill-rule:nonzero;stroke:none"
             id="path116" />
        </g>
        <g
           id="g118"
           transform="translate(101.3882,92.6762)">
          <path
             d="m 0,0 c -2.271,-0.473 -3.703,-2.662 -3.263,-4.933 0.473,-2.271 2.662,-3.703 4.933,-3.263 2.271,0.44 3.736,2.662 3.263,4.933 C 4.46,-0.992 2.271,0.473 0,0 M 14.879,-1.262 C 14.405,1.009 12.217,2.474 9.945,2.001 7.674,1.528 6.242,-0.661 6.682,-2.932 c 0.473,-2.272 2.662,-3.704 4.933,-3.264 2.272,0.473 3.737,2.662 3.264,4.934 m -26.429,-11.85 8.838,1.879 -0.556,-6.358 -8.838,-1.879 -1.396,-15.953 c -0.703,-8.034 -5.523,-13.813 -12.413,-15.254 l -34.048,-7.238 0.706,8.071 24.348,5.175 c 4.678,1 7.158,4.798 7.633,10.222 l 1.048,11.975 -16.014,-3.403 -1.026,-11.734 -15.334,-3.259 0.523,5.987 1.584,0.336 c 1.703,0.362 2.411,1.564 2.557,3.237 l 0.263,3.003 -10.571,-2.247 0.556,6.358 10.571,2.247 0.26,2.97 c 0.099,1.126 -0.717,1.801 -2.558,1.409 l -1.168,-0.248 0.524,5.999 19.235,4.088 -0.525,-5.998 -1.579,-0.336 c -1.708,-0.363 -2.415,-1.568 -2.56,-3.225 l -0.195,-2.229 16.013,3.404 0.26,2.972 c 0.099,1.127 -0.722,1.798 -2.561,1.407 l -1.221,-0.26 0.525,5.999 21.891,4.653 -0.525,-5.999 -1.498,-0.318 c -1.726,-0.367 -2.405,-1.518 -2.553,-3.215 z"
             style="fill:#feee04;fill-opacity:1;fill-rule:nonzero;stroke:none"
             id="path120" />
        </g>
        <g
           id="g122"
           transform="translate(443.4748,266.3346)">
          <path
             d="m 0,0 -37.711,-8.016 c -2.027,-0.424 -3.355,-2.052 -3.553,-4.317 l -3.664,-41.879 37.711,8.015 c 1.874,0.388 3.341,1.892 3.553,4.318 z m 15.908,11.242 -5.382,-61.509 -71.353,-15.166 5.382,61.509 z m -26.216,-49.733 -4.166,-0.886 c -2.433,-0.517 -3.545,0.328 -3.411,1.86 l 0.851,9.732 7.808,1.659 0.453,5.18 -7.808,-1.66 0.694,7.927 c 0.22,2.516 1.448,3.871 3.447,4.296 l 4.678,0.994 0.422,4.825 -26.795,-5.695 -0.422,-4.825 4.218,0.896 c 2.948,0.627 3.45,-0.824 3.36,-1.86 l -0.782,-8.934 -7.807,-1.66 -0.453,-5.179 7.807,1.659 -0.763,-8.724 c -0.218,-2.482 -1.464,-3.885 -3.396,-4.295 l -4.73,-1.006 -0.42,-4.793 26.795,5.695 z m -3.484,8.215 4.282,0.91 -0.515,-5.885 -4.282,-0.91 z"
             style="fill:#ff5500;fill-opacity:1;fill-rule:nonzero;stroke:none"
             id="path124" />
        </g>
        <g
           id="g126"
           transform="translate(434.7354,280.7255)">
          <path
             d="m 0,0 c -0.366,0.133 -0.933,0.342 -0.933,0.672 0,0.277 0.253,0.542 0.871,1.161 C 2.4,4.32 2.677,4.604 4.458,6.617 L 3.109,7.319 C 2.225,6.208 1.884,5.833 -0.666,3.089 -1.979,1.676 -2.611,0.882 -2.611,0.236 c -10e-4,-0.844 0.907,-1.205 1.929,-1.607 1.903,-0.743 3.718,-1.636 5.42,-2.725 l 1.25,1.361 C 4.842,-1.951 1.853,-0.661 0,0"
             style="fill:#ff5500;fill-opacity:1;fill-rule:nonzero;stroke:none"
             id="path128" />
        </g>
        <g
           id="g130"
           transform="translate(405.9138,278.8388)">
          <path
             d="M 0,0 0.922,-0.755 C 2.408,0.512 3.549,1.317 5.164,1.954 L 5.165,3.267 C 4.345,3.092 0.297,2.219 -0.613,2.026 -1.253,1.889 -2.841,1.552 -3.226,1.483 L -3.228,-0.03 c 0.82,0.228 1.923,0.489 4.562,1.09 C 0.5,0.455 0.41,0.382 0,0 m 2.057,-6.525 c -1.922,-0.409 -4.381,-0.904 -4.38,0.837 0,0.281 0.053,1.269 1.13,2.582 l -1.038,0.583 c -0.935,-1.296 -1.5,-2.26 -1.501,-3.492 -10e-4,-1.058 0.677,-1.931 1.561,-2.185 1.089,-0.317 2.178,-0.207 4.701,0.33 1.986,0.422 2.882,0.733 3.33,0.895 L 5.811,-5.486 C 4.568,-5.937 3.312,-6.258 2.057,-6.525 m 3.694,5.565 0.896,0.753 C 6.378,0.311 5.957,0.918 5.445,1.425 L 4.547,0.685 C 5.047,0.136 5.303,-0.212 5.751,-0.96 M 3.856,0.364 c 0.666,-0.702 1.1,-1.493 1.215,-1.709 L 4.174,-2.098 c -0.576,1.042 -0.985,1.49 -1.19,1.728 z"
             style="fill:#ff5500;fill-opacity:1;fill-rule:nonzero;stroke:none"
             id="path132" />
        </g>
        <g
           id="g134"
           transform="translate(344.6546,197.6927)">
          <path
             d="m 0,0 c 0.385,2.759 0.637,6.876 0.637,6.876 l 26.606,5.655 0.944,10.784 -26.607,-5.656 0.845,9.656 26.607,5.656 0.941,10.757 -71.866,-15.276 -0.941,-10.757 26.173,5.564 -0.845,-9.656 -26.173,-5.564 -0.943,-10.784 26.173,5.564 -0.349,-3.988 c -1.117,-12.77 -8.446,-17.334 -19.171,-19.621 l -8.388,-1.783 -0.946,-10.807 18.268,3.882 c 14.03,2.976 19.272,7.398 25.819,19.851 2.868,-1.441 10.475,-7.469 13.421,-11.51 l 18.893,4.016 C 24.124,-10.584 5.158,-1.487 0,0"
             style="fill:#ffaa00;fill-opacity:1;fill-rule:nonzero;stroke:none"
             id="path136" />
        </g>
        <g
           id="g138"
           transform="translate(355.9278,246.5822)">
          <path
             d="m 0,0 c -0.272,-2.98 -0.934,-4.237 -1.952,-4.453 -1.08,-0.23 -1.078,0.98 -1.077,1.365 l 10e-4,0.572 c 0.002,0.957 -0.046,3.005 -2.091,2.571 -0.864,-0.184 -1.361,-0.662 -1.641,-0.934 0.218,0.764 1.392,4.48 1.648,5.332 l -1.6,-0.035 c -0.563,-2.006 -2.353,-8.404 -3.35,-11.751 l 1.461,-0.127 c 0.089,0.377 0.729,3.051 0.755,3.122 0.269,0.801 0.996,2.576 2.432,2.882 0.953,0.202 0.952,-0.661 0.95,-1.512 l -10e-4,-0.451 c 0,-0.293 0.037,-1.082 0.213,-1.536 0.279,-0.724 1.091,-1.216 2.133,-0.995 2.338,0.497 3.104,2.613 3.453,5.822 z"
             style="fill:#ffaa00;fill-opacity:1;fill-rule:nonzero;stroke:none"
             id="path140" />
        </g>
        <g
           id="g142"
           transform="translate(323.2095,243.2032)">
          <path
             d="M 0,0 C 0.583,0.421 1.339,0.893 2.453,1.13 2.986,1.243 3.271,1.278 3.532,1.307 L 3.509,2.765 C 2.233,2.442 -3.454,1.001 -4.519,0.723 -5.374,0.502 -6.304,0.253 -7.158,0.071 l 0.047,-1.466 c 1.921,0.576 3.84,1.14 5.773,1.667 -2.766,-2.349 -3.425,-4.509 -3.427,-5.843 -0.002,-1.205 0.726,-2.28 1.839,-2.639 1.127,-0.369 2.452,-0.411 5.116,0.142 l 0.2,1.584 C -1.178,-7.359 -3.344,-7.121 -3.341,-5.151 -3.338,-3.403 -1.761,-1.294 0,0"
             style="fill:#ffaa00;fill-opacity:1;fill-rule:nonzero;stroke:none"
             id="path144" />
        </g>
        <g
           id="g146"
           transform="translate(286.7507,190.8121)">
          <path
             d="m 0,0 -2.841,-0.604 c -1.859,-0.4 -3.805,0.313 -5.003,2.465 l -5.496,9.879 -18.835,-4.003 7.228,-13.04 -23.231,-4.938 17.613,43.593 c 0.769,1.905 1.941,3.038 3.44,3.368 l 4.727,1.005 0.651,7.449 -23.2,-4.931 -20.912,-51.76 c -0.81,-2.005 -2.118,-2.932 -3.449,-3.215 l -2.876,-0.611 -0.943,-10.769 78.368,16.657 z"
             style="fill:#ff5500;fill-opacity:1;fill-rule:nonzero;stroke:none"
             id="path148" />
        </g>
        <g
           id="g150"
           transform="translate(202.7855,204.4379)">
          <path
             d="m 0,0 c -0.535,2.686 -3.184,4.383 -5.824,3.794 -2.69,-0.586 -4.333,-3.189 -3.794,-5.825 0.585,-2.69 3.189,-4.332 5.824,-3.793 C -1.103,-5.239 0.589,-2.64 0,0 m -23.972,-49.265 c 7.943,10.45 9.539,17.323 11.196,24.902 0.588,2.744 2.033,4.062 3.566,4.388 l 2.849,0.605 0.905,10.344 -66.69,-14.176 -0.959,-10.957 41.766,8.878 c -3.855,-25.168 -17.073,-34.965 -40.454,-39.935 l -4.105,-0.873 -0.947,-10.818 12.364,2.628 c 16.004,3.401 23.929,7.321 34.112,17.836 2.272,-1.36 5.161,-4.458 6.538,-9.196 l 18.822,4.001 c -2.303,3.394 -12.682,10.978 -18.963,12.373 m 2.563,44.728 c -0.539,2.636 1.108,5.29 3.794,5.824 2.635,0.539 5.235,-1.153 5.824,-3.793 0.539,-2.636 -1.103,-5.239 -3.794,-5.824 -2.635,-0.539 -5.234,1.153 -5.824,3.793"
             style="fill:#ffaa00;fill-opacity:1;fill-rule:nonzero;stroke:none"
             id="path152" />
        </g>
        <g
           id="g154"
           transform="translate(88.6865,198.5089)">
          <path
             d="m 0,0 -0.7,-7.999 1.641,0.349 c 2.472,0.525 3.575,-0.367 3.444,-1.87 L 1.899,-37.933 c -0.633,-7.232 -3.964,-12.301 -10.25,-13.646 l -32.721,-6.955 -0.941,-10.762 45.756,9.726 c 9.26,1.937 15.733,9.654 16.671,20.367 l 2.864,32.737 c 0.198,2.263 1.108,3.799 3.429,4.292 l 2.012,0.428 0.7,7.999 z m -19.611,-42.187 -25.849,-5.495 0.698,7.983 2.128,0.452 c 2.289,0.487 3.239,2.091 3.434,4.321 l 1.439,16.444 c 0.132,1.503 -0.965,2.4 -3.44,1.874 l -1.57,-0.333 0.7,7.998 25.85,5.495 -0.7,-7.999 -2.123,-0.451 c -2.295,-0.488 -3.245,-2.097 -3.438,-4.306 l -1.439,-16.444 c -0.132,-1.512 0.976,-2.414 3.444,-1.889 l 1.565,0.333 z"
             style="fill:#ff5500;fill-opacity:1;fill-rule:nonzero;stroke:none"
             id="path156" />
        </g>
        <g
           id="g158"
           transform="translate(481.3036,182.9445)">
          <path
             d="M 0,0 2.563,0.556 1.991,-5.404 3.736,-5.025 4.309,0.936 6.78,1.472 6.903,2.753 0.123,1.281 Z M 15.767,4.681 15.071,-2.564 13.496,-2.906 14.077,3.147 11.939,-3.244 10.253,-3.61 9.316,2.113 8.734,-3.94 7.141,-4.286 7.837,2.96 l 2.49,0.54 0.948,-5.42 0.019,0.003 2.016,6.065 z"
             style="fill:#000000;fill-opacity:1;fill-rule:nonzero;stroke:none"
             id="path160" />
        </g>
      </g>
    </g>
  </g>
</svg>
