<?xml version="1.0" encoding="UTF-8" standalone="no"?>
<!-- Created with Inkscape (http://www.inkscape.org/) -->

<svg
   version="1.1"
   id="svg1"
   width="666.66669"
   height="421.66266"
   viewBox="0 0 666.66669 421.66266"
   sodipodi:docname="Rhythm World The Best Plus (리듬 세상 더・베스트 플러스) Logo (Print).ai"
   xmlns:inkscape="http://www.inkscape.org/namespaces/inkscape"
   xmlns:sodipodi="http://sodipodi.sourceforge.net/DTD/sodipodi-0.dtd"
   xmlns="http://www.w3.org/2000/svg"
   xmlns:svg="http://www.w3.org/2000/svg">
  <defs
     id="defs1">
    <clipPath
       clipPathUnits="userSpaceOnUse"
       id="clipPath2">
      <path
         d="M 0,316.247 H 500 V 0 H 0 Z"
         transform="translate(-411.81641,-316.24701)"
         id="path2" />
    </clipPath>
    <clipPath
       clipPathUnits="userSpaceOnUse"
       id="clipPath4">
      <path
         d="M 0,316.247 H 500 V 0 H 0 Z"
         transform="translate(-411.81641,-307.41211)"
         id="path4" />
    </clipPath>
    <clipPath
       clipPathUnits="userSpaceOnUse"
       id="clipPath6">
      <path
         d="M 0,316.247 H 500 V 0 H 0 Z"
         transform="translate(-411.81641,-301.26561)"
         id="path6" />
    </clipPath>
    <clipPath
       clipPathUnits="userSpaceOnUse"
       id="clipPath8">
      <path
         d="M 0,316.247 H 500 V 0 H 0 Z"
         transform="translate(-439.82231,-134.2529)"
         id="path8" />
    </clipPath>
    <clipPath
       clipPathUnits="userSpaceOnUse"
       id="clipPath10">
      <path
         d="M 0,316.247 H 500 V 0 H 0 Z"
         transform="translate(-428.52641,-121.48631)"
         id="path10" />
    </clipPath>
    <clipPath
       clipPathUnits="userSpaceOnUse"
       id="clipPath12">
      <path
         d="M 0,316.247 H 500 V 0 H 0 Z"
         transform="translate(-391.19341,-69.108404)"
         id="path12" />
    </clipPath>
    <clipPath
       clipPathUnits="userSpaceOnUse"
       id="clipPath14">
      <path
         d="M 0,316.247 H 500 V 0 H 0 Z"
         transform="translate(-414.27831,-118.29491)"
         id="path14" />
    </clipPath>
    <clipPath
       clipPathUnits="userSpaceOnUse"
       id="clipPath16">
      <path
         d="M 0,316.247 H 500 V 0 H 0 Z"
         transform="translate(-406.09861,-142.9394)"
         id="path16" />
    </clipPath>
    <clipPath
       clipPathUnits="userSpaceOnUse"
       id="clipPath18">
      <path
         d="M 0,316.247 H 500 V 0 H 0 Z"
         transform="translate(-272.11041,-83.229502)"
         id="path18" />
    </clipPath>
    <clipPath
       clipPathUnits="userSpaceOnUse"
       id="clipPath20">
      <path
         d="M 0,316.247 H 500 V 0 H 0 Z"
         transform="translate(-207.07521,-69.858404)"
         id="path20" />
    </clipPath>
    <clipPath
       clipPathUnits="userSpaceOnUse"
       id="clipPath22">
      <path
         d="M 0,316.247 H 500 V 0 H 0 Z"
         transform="translate(-146.9814,-75.223604)"
         id="path22" />
    </clipPath>
    <clipPath
       clipPathUnits="userSpaceOnUse"
       id="clipPath24">
      <path
         d="M 0,316.247 H 500 V 0 H 0 Z"
         transform="translate(-126.66021,-74.849602)"
         id="path24" />
    </clipPath>
    <clipPath
       clipPathUnits="userSpaceOnUse"
       id="clipPath26">
      <path
         d="M 0,316.247 H 500 V 0 H 0 Z"
         transform="translate(-84.8218,-87.1455)"
         id="path26" />
    </clipPath>
    <clipPath
       clipPathUnits="userSpaceOnUse"
       id="clipPath28">
      <path
         d="M 0,316.247 H 500 V 0 H 0 Z"
         transform="translate(-388.77731,-232.48731)"
         id="path28" />
    </clipPath>
    <clipPath
       clipPathUnits="userSpaceOnUse"
       id="clipPath30">
      <path
         d="M 0,316.247 H 500 V 0 H 0 Z"
         transform="translate(-317.47071,-267.37891)"
         id="path30" />
    </clipPath>
    <clipPath
       clipPathUnits="userSpaceOnUse"
       id="clipPath32">
      <path
         d="M 0,316.247 H 500 V 0 H 0 Z"
         transform="translate(-181.5127,-196.6338)"
         id="path32" />
    </clipPath>
    <clipPath
       clipPathUnits="userSpaceOnUse"
       id="clipPath34">
      <path
         d="M 0,316.247 H 500 V 0 H 0 Z"
         transform="translate(-98.316902,-226.52831)"
         id="path34" />
    </clipPath>
    <clipPath
       clipPathUnits="userSpaceOnUse"
       id="clipPath36">
      <path
         d="M 0,316.247 H 500 V 0 H 0 Z"
         transform="translate(-495.15621,-149.42141)"
         id="path36" />
    </clipPath>
  </defs>
  <sodipodi:namedview
     id="namedview1"
     pagecolor="#ffffff"
     bordercolor="#000000"
     borderopacity="0.25"
     inkscape:showpageshadow="2"
     inkscape:pageopacity="0.0"
     inkscape:pagecheckerboard="0"
     inkscape:deskcolor="#d1d1d1">
    <inkscape:page
       x="0"
       y="0"
       inkscape:label="1"
       id="page1"
       width="666.66669"
       height="421.66266"
       margin="0"
       bleed="0" />
  </sodipodi:namedview>
  <g
     id="layer-MC0"
     inkscape:groupmode="layer"
     inkscape:label="Layer 1">
    <path
       id="path1"
       d="m 0,0 c -21.021,0 -40.343,-7.397 -55.511,-19.719 -14.311,10.029 -31.721,15.924 -50.485,15.924 -38.763,0 -71.764,-25.141 -83.556,-59.972 -7.562,2.118 -15.53,3.255 -23.76,3.255 -16.851,0 -32.612,-4.755 -46.017,-12.988 -16.1,17.164 -38.969,27.907 -64.303,27.907 -48.625,0 -88.184,-39.559 -88.184,-88.184 0,-28.898 13.973,-54.594 35.517,-70.687 -14.367,-11.515 -23.591,-29.194 -23.591,-48.996 0,-34.621 28.166,-62.787 62.787,-62.787 14.179,0 27.271,4.729 37.794,12.687 1.675,-0.134 3.362,-0.222 5.071,-0.222 9.63,0 18.757,2.185 26.921,6.076 7.537,-3.21 15.824,-4.989 24.52,-4.989 15.43,0 29.568,5.605 40.511,14.872 6.955,-2.602 14.388,-3.975 22.036,-3.975 18.04,0 34.316,7.659 45.78,19.884 6.528,-2.305 13.54,-3.572 20.847,-3.572 28.83,0 53.167,19.538 60.508,46.064 26.636,4.659 47.545,26.151 51.318,53.077 0.598,-0.011 1.196,-0.022 1.797,-0.022 48.624,0 88.184,39.558 88.184,88.183 C 88.184,-39.56 48.625,0 0,0"
       style="fill:#000000;fill-opacity:1;fill-rule:nonzero;stroke:none"
       transform="matrix(1.3333333,0,0,-1.3333333,549.08853,0)"
       clip-path="url(#clipPath2)" />
    <path
       id="path3"
       d="m 0,0 c -21.388,0 -40.822,-8.509 -55.106,-22.315 -13.787,11.552 -31.54,18.519 -50.891,18.519 -37.978,0 -69.804,-26.822 -77.545,-62.517 -9.198,3.736 -19.246,5.8 -29.77,5.8 -17.84,0 -34.323,-5.92 -47.591,-15.896 -14.527,18.734 -37.243,30.815 -62.729,30.815 -43.754,0 -79.349,-35.595 -79.349,-79.348 0,-30.792 17.63,-57.542 43.326,-70.69 -18.514,-8.556 -31.399,-27.293 -31.399,-48.993 0,-29.749 24.202,-53.952 53.951,-53.952 13.396,0 25.658,4.919 35.102,13.031 2.536,-0.367 5.126,-0.566 7.763,-0.566 9.702,0 18.806,2.588 26.681,7.089 7.563,-3.916 15.999,-6.001 24.76,-6.001 15.178,0 28.902,6.308 38.715,16.43 7.322,-3.612 15.427,-5.533 23.832,-5.533 17.652,0 33.352,8.523 43.2,21.668 7.089,-3.432 15.037,-5.357 23.427,-5.357 26.782,0 49.059,19.62 53.237,45.239 28.087,1.848 50.378,25.274 50.378,53.821 0,0.231 -0.014,0.459 -0.017,0.69 3.284,-0.416 6.629,-0.632 10.025,-0.632 43.753,0 79.349,35.596 79.349,79.349 C 79.349,-35.596 43.753,0 0,0"
       style="fill:#ffffff;fill-opacity:1;fill-rule:nonzero;stroke:none"
       transform="matrix(1.3333333,0,0,-1.3333333,549.08853,11.779867)"
       clip-path="url(#clipPath4)" />
    <path
       id="path5"
       d="m 0,0 c -21.812,0 -41.394,-9.544 -54.804,-24.68 -13.2,12.918 -31.264,20.885 -51.192,20.885 -37.779,0 -68.871,-28.621 -72.784,-65.362 -10.287,5.514 -22.043,8.645 -34.531,8.645 -18.741,0 -35.834,-7.046 -48.783,-18.629 -13.033,20.185 -35.724,33.548 -61.538,33.548 -40.429,0 -73.203,-32.774 -73.203,-73.202 0,-35.692 25.546,-65.413 59.351,-71.889 -26.226,-0.206 -47.424,-21.521 -47.424,-47.795 0,-26.402 21.403,-47.805 47.805,-47.805 12.908,0 24.613,5.125 33.214,13.439 3.117,-0.638 6.345,-0.974 9.651,-0.974 9.833,0 18.969,2.971 26.569,8.061 7.246,-4.424 15.761,-6.974 24.872,-6.974 15.149,0 28.642,7.053 37.401,18.047 7.306,-4.528 15.918,-7.149 25.146,-7.149 17.575,0 32.925,9.49 41.231,23.62 7.36,-4.625 16.062,-7.309 25.396,-7.309 25.513,0 46.353,19.987 47.728,45.157 0.643,-0.027 1.287,-0.049 1.935,-0.049 26.402,0 47.806,21.402 47.806,47.805 0,2.783 -0.252,5.507 -0.708,8.16 5.414,-1.276 11.058,-1.955 16.862,-1.955 40.429,0 73.202,32.774 73.202,73.202 C 73.202,-32.774 40.429,0 0,0"
       style="fill:#000000;fill-opacity:1;fill-rule:nonzero;stroke:none"
       transform="matrix(1.3333333,0,0,-1.3333333,549.08853,19.9752)"
       clip-path="url(#clipPath6)" />
    <path
       id="path7"
       d="m 0,0 3.73,42.638 -60.276,-12.812 -3.73,-42.638 -42.433,-9.019 -3.496,-39.956 42.434,9.019 -3.731,-42.636 60.275,12.812 3.731,42.637 42.434,9.019 3.495,39.956 z"
       style="fill:#000000;fill-opacity:1;fill-rule:nonzero;stroke:none"
       transform="matrix(1.3333333,0,0,-1.3333333,586.42973,242.6588)"
       clip-path="url(#clipPath8)" />
    <path
       id="path9"
       d="m 0,0 3.73,42.637 -39.533,-8.403 -3.729,-42.637 -42.434,-9.02 -1.647,-18.83 42.432,9.02 -3.729,-42.637 39.532,8.403 3.731,42.637 42.433,9.019 1.648,18.831 z"
       style="fill:#ffffff;fill-opacity:1;fill-rule:nonzero;stroke:none"
       transform="matrix(1.3333333,0,0,-1.3333333,571.36853,259.68093)"
       clip-path="url(#clipPath10)" />
    <path
       id="path11"
       d="m 0,0 -0.302,-3.508 25.901,5.505 0.3,3.509 z M 24.707,12.86 22.583,8.215 c -4.613,-0.481 -8.815,2.543 -8.815,2.543 0,0 -4.733,-4.722 -9.236,-6.783 L 2.268,7.563 c 0,0 8.753,4.312 9.126,8.655 l 0.161,1.347 c 0.066,0.777 -0.414,0.776 -1.037,0.643 l -0.627,-0.133 0.211,2.45 6.887,1.464 -0.434,-4.528 c -0.404,-4.69 8.152,-4.601 8.152,-4.601"
       style="fill:#000000;fill-opacity:1;fill-rule:nonzero;stroke:none"
       transform="matrix(1.3333333,0,0,-1.3333333,521.5912,329.51813)"
       clip-path="url(#clipPath12)" />
    <path
       id="path13"
       d="m 0,0 -0.229,-2.669 0.475,0.102 c 0.473,0.099 0.905,0.192 0.85,-0.455 L 0.67,-7.984 -2.6,-8.679 l -0.372,-4.334 3.269,0.696 -1.25,-14.561 5.126,1.09 2.333,27.171 z m -6.667,-18.586 c 1.418,0.302 2.898,0.872 3.828,1.419 l -0.304,-3.531 c -0.931,-0.494 -2.754,-1.137 -4.812,-1.574 l -9.501,-2.02 c -1.24,-0.264 -2.153,0.605 -2.038,1.938 l 0.465,5.412 c 0.066,0.777 -0.671,0.62 -1.168,0.514 l -0.246,-0.052 0.196,2.287 11.163,2.373 0.235,2.733 -10.701,-2.274 0.296,3.441 15.346,3.239 c 0.387,0.082 0.672,-0.189 0.637,-0.605 l -0.687,-7.992 c -0.036,-0.416 -0.379,-0.822 -0.767,-0.904 l -7.791,-1.656 -0.348,-4.065 z"
       style="fill:#000000;fill-opacity:1;fill-rule:nonzero;stroke:none"
       transform="matrix(1.3333333,0,0,-1.3333333,552.37107,263.93613)"
       clip-path="url(#clipPath14)" />
    <path
       id="path15"
       d="M 0,0 8.229,1.749 8.06,-0.211 -0.169,-1.96 Z m 12.117,-0.382 0.349,4.065 2.797,0.594 0.208,2.42 -22.117,-4.701 -0.208,-2.42 2.796,0.594 -0.348,-4.064 -3.453,-0.734 -0.207,-2.42 23.427,4.98 0.208,2.421 z m 5.993,-2.51 -29.172,-6.201 -0.248,-2.89 29.172,6.2 z M 14.111,-16.625 13.86,-19.55 -5.377,-23.639 c -2.13,-0.452 -2.862,-0.022 -2.753,1.244 l 0.151,1.761 c 0.047,0.55 -0.012,0.679 -0.658,0.541 l -0.56,-0.119 0.226,2.642 17.814,3.787 0.138,1.614 -17.248,-3.666 0.271,3.147 21.502,4.555 c 0.502,0.107 0.884,-0.103 0.829,-0.737 l -0.451,-5.249 c -0.026,-0.295 -0.489,-1.041 -0.992,-1.149 l -15.246,-3.24 -0.142,-1.646 z"
       style="fill:#000000;fill-opacity:1;fill-rule:nonzero;stroke:none"
       transform="matrix(1.3333333,0,0,-1.3333333,541.4648,231.0768)"
       clip-path="url(#clipPath16)" />
    <path
       id="path17"
       d="M 0,0 V -7.107 L 54.872,4.557 v 7.106 z M 20.712,36.738 V 31.457 L 47.47,37.145 V 29.634 L 20.712,23.946 V 18.452 L 47.47,24.14 V 17.275 L 14.688,10.308 C 11.983,9.733 9.611,11.923 9.611,15.297 v 19.97 c 0,1.353 -0.209,1.742 -2.457,1.264 l -0.48,-0.102 v 4.739 l 40.796,8.671 v -7.413 z"
       style="fill:#ffffff;fill-opacity:1;fill-rule:nonzero;stroke:none"
       transform="matrix(1.3333333,0,0,-1.3333333,362.81387,310.69)"
       clip-path="url(#clipPath18)" />
    <path
       id="path19"
       d="M 0,0 V -7.224 L 54.642,4.391 v 7.223 z m 50.372,26.494 -3.801,-8.786 c -10.343,-0.797 -18.592,6.457 -18.592,6.457 0,0 -8.332,-10.268 -19.178,-14.921 l -4.862,7.143 c 0,0 18.081,8.565 18.081,17.508 v 4.67 c 0,1.598 -1.032,1.59 -2.347,1.311 l -1.177,-0.25 v 4.462 l 13.69,2.91 V 36.975 c 0,-9.656 18.186,-10.481 18.186,-10.481"
       style="fill:#ffffff;fill-opacity:1;fill-rule:nonzero;stroke:none"
       transform="matrix(1.3333333,0,0,-1.3333333,276.10027,328.51813)"
       clip-path="url(#clipPath20)" />
    <path
       id="path21"
       d="M 0,0 6.537,1.39 V -4.96 L 0,-6.35 Z m 20.123,24.373 v -5.444 l 1.018,0.216 c 1.057,0.225 1.855,-0.288 1.855,-1.599 V 12.781 L 15.875,11.268 V 21.876 L 3.664,19.281 v -5.444 l 1.018,0.216 c 1.057,0.225 1.855,-0.287 1.855,-1.599 V 9.283 L 0,7.894 v 10.608 l -12.21,-2.595 v -5.444 l 1.017,0.216 c 1.058,0.224 1.856,-0.287 1.856,-1.599 v -21.378 c 0,-2.216 1.483,-3.418 3.62,-2.963 l 21.592,4.589 V 3.374 l 7.121,1.514 v -31.147 l 9.907,2.106 v 51.242 z m 27.112,8.04 v -53.519 l -10.499,-2.232 v 46.082 c 0,1.312 -0.798,1.823 -1.856,1.599 l -1.017,-0.216 v 5.443 z"
       style="fill:#ffffff;fill-opacity:1;fill-rule:nonzero;stroke:none"
       transform="matrix(1.3333333,0,0,-1.3333333,195.9752,321.36453)"
       clip-path="url(#clipPath22)" />
    <path
       id="path23"
       d="m 0,0 -5.914,-0.421 -2.653,4.776 -2.611,-5.928 -5.915,-2.135 4.286,-3.229 -0.979,-6.076 5.262,3.898 5.285,-1.651 -1.022,5.662 z"
       style="fill:#ffffff;fill-opacity:1;fill-rule:nonzero;stroke:none"
       transform="matrix(1.3333333,0,0,-1.3333333,168.88027,321.8632)"
       clip-path="url(#clipPath24)" />
    <path
       id="path25"
       d="m 0,0 v -5.421 l 0.687,0.147 c 0.987,0.21 2.34,0.396 2.34,-0.817 v -10.345 l -11.26,-2.393 v -8.433 l 11.26,2.394 v -25.306 l 9.903,2.105 V 2.749 Z m -24.943,-34.961 17.158,3.648 v -7.234 l -19.828,-4.215 c -6.001,-1.275 -8.232,0.377 -8.232,5.836 v 18.763 c -0.002,1.21 -1.353,1.023 -2.341,0.813 l -0.66,-0.139 v 4.27 l 31.061,6.602 v -7.617 l -17.158,-3.648 z"
       style="fill:#ffffff;fill-opacity:1;fill-rule:nonzero;stroke:none"
       transform="matrix(1.3333333,0,0,-1.3333333,113.09573,305.46867)"
       clip-path="url(#clipPath26)" />
    <path
       id="path27"
       d="m 0,0 c 0,0 -1.827,-15.74 -21.768,-36.359 l -10.21,8.383 c 10.218,8.516 21.994,27.784 21.994,44.78 v 0.48 c 0,2.041 -1.567,2.013 -3.517,1.599 l -1.971,-0.419 v 6.05 L 6.409,29.165 V 20.289 C 6.409,2.93 15.901,0.296 28.514,0.379 L 22.24,-9.57 C 3.074,-8.151 0,0 0,0 M 61.278,25.305 V 14.25 L 48.82,11.602 v -20.76 l -16.64,-3.537 v 47.834 c 0,2.154 -1.753,2.103 -3.751,1.678 l -2.006,-0.426 v 6.383 L 48.82,47.535 V 22.657 Z M 17.271,-45.076 c -2.272,0.008 -6.905,0.023 -6.905,7.208 0,7.447 5.895,12.885 12.301,12.991 6.577,0.109 7.039,-4.379 7.039,-7.115 0,-6.709 -5.731,-13.107 -12.435,-13.084 m 16.64,29.885 c -6.337,1.498 -17.6,1.554 -28.941,-6.284 -9.782,-6.76 -13.228,-18.423 -9.754,-26.341 5.323,-12.137 26.665,-10.196 40.135,-0.905 7.526,5.191 11.31,11.426 11.31,18.574 0,6.381 -3.3,12.722 -12.75,14.956"
       style="fill:#ffffff;fill-opacity:1;fill-rule:nonzero;stroke:none"
       transform="matrix(1.3333333,0,0,-1.3333333,518.36973,111.6796)"
       clip-path="url(#clipPath28)" />
    <path
       id="path29"
       d="m 0,0 v -6.209 l 1.618,0.344 c 1.611,0.343 3.052,0.58 3.052,-1.557 v -79.073 l 16.27,3.458 V 4.451 Z m -19.06,-20.16 v -6.209 l 1.619,0.344 c 1.61,0.343 3.086,0.656 3.086,-1.481 V -45.6 l -13.647,-2.901 v -9.734 l 13.647,2.901 v -53.622 l 14.968,3.182 v 89.796 z m 2.116,-51.537 -6.98,-9.694 c -13.635,4.43 -17.317,11.384 -17.317,11.384 0,0 -5.163,-9.963 -15.988,-20.335 l -9.029,7.657 c 0,0 15.953,15.561 15.953,30.914 v 11.686 c 0,2.137 -1.691,2.062 -3.584,1.659 l -1.9,-0.404 v 6.752 l 20.894,4.441 v -21.498 c 0,-20.585 17.951,-22.562 17.951,-22.562"
       style="fill:#ffffff;fill-opacity:1;fill-rule:nonzero;stroke:none"
       transform="matrix(1.3333333,0,0,-1.3333333,423.29427,65.157467)"
       clip-path="url(#clipPath30)" />
    <path
       id="path31"
       d="M 0,0 V -10.064 L 51.526,0.888 V -8.918 L -8.188,-21.611 c -4.82,-1.024 -8.727,2.232 -8.727,7.272 v 11.683 c 0,2.021 -0.177,2.631 -4.697,1.67 l -0.857,-0.182 V 5.03 l 73.995,15.728 v -9.806 z m 51.526,-13.722 v -9.806 l -86.647,-18.418 v 9.807 z M 32.591,-55.063 3.403,-61.268 v 12.787 l 29.188,6.204 z m 17.19,26.36 -69.174,-14.703 v -6.733 l 0.858,0.182 c 4.527,0.962 4.705,0.222 4.705,-1.996 v -14.09 c 0,-4.536 3.516,-7.467 7.853,-6.544 l 49.65,10.553 c 4.337,0.922 7.853,5.346 7.853,9.883 v 21.994 c 0,1.008 -0.781,1.659 -1.745,1.454"
       style="fill:#ffffff;fill-opacity:1;fill-rule:nonzero;stroke:none"
       transform="matrix(1.3333333,0,0,-1.3333333,242.01693,159.48427)"
       clip-path="url(#clipPath32)" />
    <path
       id="path33"
       d="m 0,0 v -6.658 l 1.908,0.405 c 1.899,0.404 3.637,0.774 3.637,-1.711 V -47.29 c -2.805,-1.649 -6.398,-3.035 -10.828,-3.977 l -26.238,-5.577 v 12.036 l 24.331,5.172 c 1.211,0.258 2.192,1.467 2.192,2.7 v 23.832 c 0,1.233 -0.981,2.025 -2.192,1.768 l -45.636,-9.701 v -10.291 l 31.125,6.616 v -8.093 l -32.572,-6.923 v -6.771 l 0.769,0.164 c 1.553,0.33 3.856,0.819 3.856,-1.482 v -16.021 c 0,-3.949 3.141,-6.483 7.015,-5.66 l 34.259,7.283 c 6.427,1.365 11.092,3.02 13.919,4.513 v -37.706 l 17.646,3.751 V 4.93 Z"
       style="fill:#ffffff;fill-opacity:1;fill-rule:nonzero;stroke:none"
       transform="matrix(1.3333333,0,0,-1.3333333,131.0892,119.62493)"
       clip-path="url(#clipPath34)" />
    <path
       id="path35"
       d="m 0,0 0.716,8.332 -2.622,-8.737 -2.066,-0.439 -1.145,7.936 -0.716,-8.332 -1.951,-0.415 0.856,9.975 3.05,0.648 1.158,-7.521 0.024,0.005 2.472,8.293 3.009,0.639 L 1.929,0.41 Z m -14.092,-2.996 0.705,8.206 -3.139,-0.668 0.151,1.764 8.305,1.765 -0.152,-1.763 -3.027,-0.643 -0.704,-8.206 z"
       style="fill:#000000;fill-opacity:1;fill-rule:nonzero;stroke:none"
       transform="matrix(1.3333333,0,0,-1.3333333,660.20827,222.43413)"
       clip-path="url(#clipPath36)" />
  </g>
</svg>
