<?xml version="1.0" encoding="UTF-8" standalone="no"?>
<!-- Created with Inkscape (http://www.inkscape.org/) -->

<svg
   version="1.1"
   id="svg2"
   width="666.66669"
   height="399.20801"
   viewBox="0 0 666.66669 399.20801"
   sodipodi:docname="Rhythm World The Best+ (리듬 세상 더・베스트＋) Logo (Wordmark).ai"
   xmlns:inkscape="http://www.inkscape.org/namespaces/inkscape"
   xmlns:sodipodi="http://sodipodi.sourceforge.net/DTD/sodipodi-0.dtd"
   xmlns="http://www.w3.org/2000/svg"
   xmlns:svg="http://www.w3.org/2000/svg">
  <defs
     id="defs6">
    <clipPath
       clipPathUnits="userSpaceOnUse"
       id="clipPath16">
      <path
         d="M 0,299.406 H 500 V 0 H 0 Z"
         id="path14" />
    </clipPath>
  </defs>
  <sodipodi:namedview
     id="namedview4"
     pagecolor="#ffffff"
     bordercolor="#000000"
     borderopacity="0.25"
     inkscape:showpageshadow="2"
     inkscape:pageopacity="0.0"
     inkscape:pagecheckerboard="0"
     inkscape:deskcolor="#d1d1d1" />
  <g
     id="g8"
     inkscape:groupmode="layer"
     inkscape:label="Rhythm World The Best+ (리듬 세상 더・베스트＋) Logo (Wordmark)"
     transform="matrix(1.3333333,0,0,-1.3333333,0,399.208)">
    <g
       id="g10">
      <g
         id="g12"
         clip-path="url(#clipPath16)">
        <g
           id="g18"
           transform="translate(427.5114,39.6673)">
          <path
             d="m 0,0 -0.371,-4.32 31.895,6.779 0.371,4.321 z m 30.426,15.837 -2.615,-5.721 c -5.681,-0.592 -10.857,3.131 -10.857,3.131 0,0 -5.827,-5.814 -11.373,-8.353 l -2.788,4.42 c 0,0 10.778,5.309 11.238,10.657 l 0.198,1.661 c 0.082,0.955 -0.509,0.954 -1.277,0.79 l -0.771,-0.164 0.259,3.018 8.482,1.803 -0.535,-5.577 c -0.496,-5.775 10.039,-5.665 10.039,-5.665"
             style="fill:#000000;fill-opacity:1;fill-rule:nonzero;stroke:none"
             id="path20" />
        </g>
        <g
           id="g22"
           transform="translate(455.9408,100.2392)">
          <path
             d="m 0,0 -0.282,-3.286 0.584,0.124 c 0.582,0.124 1.115,0.237 1.047,-0.559 l -0.525,-6.111 -4.026,-0.856 -0.458,-5.337 4.026,0.856 -1.54,-17.93 6.312,1.341 2.874,33.461 z m -8.21,-22.888 c 1.746,0.371 3.569,1.074 4.713,1.747 l -0.373,-4.348 c -1.147,-0.608 -3.393,-1.4 -5.927,-1.939 l -11.7,-2.487 c -1.528,-0.324 -2.652,0.744 -2.511,2.387 l 0.573,6.663 c 0.082,0.958 -0.826,0.765 -1.438,0.635 l -0.304,-0.065 0.242,2.816 13.748,2.923 0.29,3.365 -13.178,-2.801 0.364,4.239 18.898,3.989 c 0.477,0.101 0.827,-0.233 0.783,-0.746 l -0.845,-9.841 c -0.044,-0.514 -0.467,-1.012 -0.944,-1.114 l -9.594,-2.039 -0.43,-5.006 z"
             style="fill:#000000;fill-opacity:1;fill-rule:nonzero;stroke:none"
             id="path24" />
        </g>
        <g
           id="g26"
           transform="translate(445.8668,130.5886)">
          <path
             d="M 0,0 10.133,2.154 9.926,-0.259 -0.207,-2.413 Z m 14.972,0.11 0.322,3.749 3.502,1.408 0.256,2.981 -27.236,-5.789 -0.256,-2.981 3.386,0.055 -0.322,-3.748 -4.302,-1.484 -0.256,-2.98 28.852,6.133 0.256,2.98 z m 7.331,-3.671 -35.925,-7.636 -0.306,-3.561 35.925,7.636 z m -4.925,-16.912 -0.309,-3.602 -23.69,-5.035 c -2.623,-0.558 -3.525,-0.029 -3.391,1.531 l 0.186,2.17 c 0.058,0.676 -0.015,0.834 -0.809,0.665 l -0.691,-0.146 0.279,3.253 21.938,4.663 0.17,1.988 -21.24,-4.515 0.333,3.877 26.479,5.609 c 0.618,0.131 1.088,-0.127 1.021,-0.908 l -0.556,-6.464 c -0.031,-0.363 -0.603,-1.282 -1.222,-1.414 l -18.775,-3.991 -0.174,-2.028 z"
             style="fill:#000000;fill-opacity:1;fill-rule:nonzero;stroke:none"
             id="path28" />
        </g>
        <g
           id="g30"
           transform="translate(280.8616,57.0569)">
          <path
             d="M 0,0 V -8.752 L 67.575,5.611 v 8.752 z m 25.507,45.242 v -6.503 l 32.952,7.005 v -9.25 L 25.507,29.49 v -6.767 l 32.952,7.004 V 21.275 L 18.088,12.694 c -3.33,-0.708 -6.251,1.989 -6.251,6.144 v 24.593 c 0,1.666 -0.258,2.145 -3.026,1.556 L 8.219,44.862 v 5.836 l 50.24,10.678 v -9.129 z"
             style="fill:#000000;fill-opacity:1;fill-rule:nonzero;stroke:none"
             id="path32" />
        </g>
        <g
           id="g34"
           transform="translate(200.7719,40.5901)">
          <path
             d="M 0,0 V -8.896 L 67.291,5.407 v 8.896 z M 62.033,32.627 57.352,21.808 c -12.738,-0.982 -22.896,7.951 -22.896,7.951 0,0 -10.26,-12.645 -23.618,-18.374 l -5.987,8.796 c 0,0 22.266,10.548 22.266,21.56 v 5.753 c 0,1.966 -1.27,1.957 -2.891,1.613 l -1.449,-0.308 v 5.495 l 16.86,3.584 V 45.535 c 0,-11.891 22.396,-12.908 22.396,-12.908"
             style="fill:#000000;fill-opacity:1;fill-rule:nonzero;stroke:none"
             id="path36" />
        </g>
        <g
           id="g38"
           transform="translate(135.1955,41.1695)">
          <path
             d="m 0,0 -8.018,-1.704 v 7.82 L 0,7.82 Z m 17.311,29.342 0.926,0.197 c 1.227,0.261 2.275,-0.11 2.275,-1.641 V 21.9 L 11.898,20.069 V 33.134 L -3.315,29.9 v -6.852 l 0.445,0.094 C -1.643,23.403 0,23.32 0,21.788 V 17.54 l -8.018,-1.704 v 13.065 l -14.969,-3.182 v -6.752 l 0.562,0.119 c 1.227,0.261 3.027,0.317 3.027,-1.215 V -9.253 c 0,-2.729 1.827,-4.21 4.459,-3.65 l 26.837,5.704 v 17.548 l 8.614,1.831 v -38.581 l 11.499,2.444 v 63.328 l -14.7,-3.124 z m 32.43,16.603 v -66.133 l -12.537,-2.665 10e-4,56.974 c 0,1.615 -0.983,2.246 -2.285,1.969 l -1.254,-0.267 v 6.705 z"
             style="fill:#000000;fill-opacity:1;fill-rule:nonzero;stroke:none"
             id="path40" />
        </g>
        <g
           id="g42"
           transform="translate(101.616,46.5945)">
          <path
             d="m 0,0 -7.199,-0.507 -3.261,5.689 -3.171,-7.056 -7.184,-2.55 5.239,-3.854 -1.179,-7.265 6.409,4.674 6.456,-1.94 -1.279,6.743 z"
             style="fill:#000000;fill-opacity:1;fill-rule:nonzero;stroke:none"
             id="path44" />
        </g>
        <g
           id="g46"
           transform="translate(2.3793,45.6001)">
          <path
             d="M 0,0 38.251,8.131 V -1.25 l -21.129,-4.492 -0.001,-21.198 21.13,4.491 v -8.908 l -24.418,-5.19 c -7.39,-1.571 -10.138,0.464 -10.138,7.187 v 20.966 c 0,2.622 -0.383,3.274 -2.728,3.254 L 0,-5.148 Z M 63.761,19.664 V -43.083 L 51.92,-45.6 v 31.329 L 38.251,-17.176 V -6.791 L 51.92,-3.885 V 8.854 c 0,1.494 -1.665,1.263 -2.882,1.005 L 48.56,9.757 v 6.676 z"
             style="fill:#000000;fill-opacity:1;fill-rule:nonzero;stroke:none"
             id="path48" />
        </g>
        <g
           id="g50"
           transform="translate(424.5361,240.7722)">
          <path
             d="m 0,0 c 0,0 -2.25,-19.38 -26.807,-44.81 l -12.573,10.295 c 12.583,10.507 27.084,34.253 27.084,55.175 v 0.59 c 0,2.513 -1.928,2.475 -4.33,1.96 l -2.427,-0.521 v 7.448 L 7.893,35.916 V 24.99 C 7.893,3.623 19.583,0.404 35.115,0.537 L 27.389,-11.724 C 3.786,-10.026 0,0 0,0 M 75.464,31.301 V 17.693 l -15.342,-3.29 v -25.555 l -20.493,-4.395 v 58.88 c 0,2.652 -2.159,2.585 -4.619,2.057 l -2.47,-0.53 v 7.858 l 27.582,5.916 V 28.01 Z M 21.268,-55.443 c -2.797,0.004 -8.502,0.012 -8.502,8.856 0,9.166 7.259,15.875 15.149,16.022 8.098,0.151 8.668,-5.373 8.668,-8.741 0,-8.257 -7.058,-16.148 -15.315,-16.137 m 20.493,36.829 c -9.511,1.985 -21.754,1.986 -35.641,-7.807 -9.131,-6.44 -13.736,-14.163 -13.736,-22.917 10e-4,-3.153 0.687,-6.27 2.05,-9.255 4.183,-9.16 10.379,-9.542 18.802,-10.06 13.766,-0.848 22.045,2.978 30.298,8.769 9.221,6.478 13.929,14.093 13.929,22.892 0,7.854 -3.998,15.935 -15.702,18.378"
             style="fill:#000000;fill-opacity:1;fill-rule:nonzero;stroke:none"
             id="path52" />
        </g>
        <g
           id="g54"
           transform="translate(336.7229,283.8351)">
          <path
             d="m 0,0 v -7.646 l 1.993,0.423 c 1.984,0.422 3.758,0.714 3.758,-1.918 v -97.377 l 20.037,4.259 V 5.481 Z m -23.472,-24.827 v -7.646 l 1.993,0.424 c 1.984,0.421 3.8,0.808 3.8,-1.824 v -22.283 l -16.806,-3.573 v -11.987 l 16.806,3.572 v -66.034 l 18.434,3.918 v 110.583 z m 2.605,-63.467 -8.595,-11.938 c -16.791,5.454 -21.326,14.019 -21.326,14.019 0,0 -6.359,-12.27 -19.688,-25.042 l -11.12,9.429 c 0,0 19.646,19.164 19.646,38.071 v 14.391 c 0,2.632 -2.083,2.538 -4.413,2.043 l -2.341,-0.497 v 8.315 l 25.732,5.469 v -26.475 c 0,-25.351 22.105,-27.785 22.105,-27.785"
             style="fill:#000000;fill-opacity:1;fill-rule:nonzero;stroke:none"
             id="path56" />
        </g>
        <g
           id="g58"
           transform="translate(169.292,196.713)">
          <path
             d="M 0,0 V -12.394 L 63.454,1.094 v -12.076 l -73.538,-15.631 c -5.935,-1.262 -10.747,2.748 -10.747,8.955 V -3.27 c 0,2.489 -0.218,3.239 -5.785,2.056 L -27.67,-1.438 V 6.195 L 63.454,25.564 V 13.487 Z m 63.454,-16.898 v -12.077 l -106.706,-22.68 v 12.076 z M 40.135,-67.81 4.191,-75.45 v 15.746 l 35.945,7.64 z m 21.17,32.463 -85.188,-18.107 v -8.291 l 1.057,0.224 c 5.575,1.185 5.794,0.273 5.794,-2.458 v -17.352 c 0,-5.587 4.33,-9.195 9.672,-8.06 l 61.142,12.997 c 5.342,1.135 9.672,6.584 9.672,12.171 v 27.085 c 0,1.241 -0.962,2.043 -2.149,1.791"
             style="fill:#000000;fill-opacity:1;fill-rule:nonzero;stroke:none"
             id="path60" />
        </g>
        <g
           id="g62"
           transform="translate(66.8368,233.5493)">
          <path
             d="m 0,0 v -8.201 l 2.349,0.497 c 2.339,0.496 4.48,0.949 4.48,-2.111 v -48.438 c -3.455,-2.029 -7.88,-3.733 -13.335,-4.888 l -32.311,-6.844 v 14.825 l 29.963,6.347 c 1.491,0.316 2.699,1.804 2.699,3.324 v 29.352 c 0,1.52 -1.208,2.497 -2.699,2.181 l -56.201,-11.905 v -12.676 l 38.331,8.119 v -9.967 l -40.113,-8.497 v -8.339 l 0.947,0.2 c 1.913,0.406 4.749,1.006 4.749,-1.829 v -19.733 c 0,-4.864 3.867,-7.988 8.638,-6.977 l 42.191,8.936 c 7.915,1.677 13.659,3.71 17.141,5.546 v -46.442 l 21.73,4.603 V 6.049 Z"
             style="fill:#000000;fill-opacity:1;fill-rule:nonzero;stroke:none"
             id="path64" />
        </g>
        <g
           id="g66"
           transform="translate(496.5694,138.5712)">
          <path
             d="m 0,0 0.881,10.261 -3.229,-10.76 -2.543,-0.541 -1.41,9.774 -0.882,-10.261 -2.403,-0.511 1.055,12.284 3.755,0.798 1.427,-9.262 0.028,0.006 3.045,10.213 3.707,0.787 L 2.376,0.505 Z m -17.354,-3.689 0.868,10.105 -3.866,-0.822 0.186,2.172 10.227,2.174 -0.186,-2.172 -3.727,-0.792 -0.868,-10.105 z"
             style="fill:#000000;fill-opacity:1;fill-rule:nonzero;stroke:none"
             id="path68" />
        </g>
      </g>
    </g>
  </g>
</svg>
