<?xml version="1.0" encoding="UTF-8" standalone="no"?>
<!-- Created with Inkscape (http://www.inkscape.org/) -->

<svg
   version="1.1"
   id="svg1"
   width="666.66669"
   height="490.79199"
   viewBox="0 0 666.66669 490.79199"
   sodipodi:docname="Rhythm Heaven Megamix Logo (Wordmark).ai"
   xmlns:inkscape="http://www.inkscape.org/namespaces/inkscape"
   xmlns:sodipodi="http://sodipodi.sourceforge.net/DTD/sodipodi-0.dtd"
   xmlns="http://www.w3.org/2000/svg"
   xmlns:svg="http://www.w3.org/2000/svg">
  <defs
     id="defs1">
    <clipPath
       clipPathUnits="userSpaceOnUse"
       id="clipPath2">
      <path
         d="M 0,368.094 H 500 V 0 H 0 Z"
         transform="translate(-437.47811,-99.5092)"
         id="path2" />
    </clipPath>
    <clipPath
       clipPathUnits="userSpaceOnUse"
       id="clipPath4">
      <path
         d="M 0,368.094 H 500 V 0 H 0 Z"
         transform="translate(-405.06401,-179.2416)"
         id="path4" />
    </clipPath>
    <clipPath
       clipPathUnits="userSpaceOnUse"
       id="clipPath6">
      <path
         d="M 0,368.094 H 500 V 0 H 0 Z"
         transform="translate(-389.39611,-159.56091)"
         id="path6" />
    </clipPath>
    <clipPath
       clipPathUnits="userSpaceOnUse"
       id="clipPath8">
      <path
         d="M 0,368.094 H 500 V 0 H 0 Z"
         transform="translate(-269.6656,-105.7963)"
         id="path8" />
    </clipPath>
    <clipPath
       clipPathUnits="userSpaceOnUse"
       id="clipPath10">
      <path
         d="M 0,368.094 H 500 V 0 H 0 Z"
         transform="translate(-223.22131,-50.986704)"
         id="path10" />
    </clipPath>
    <clipPath
       clipPathUnits="userSpaceOnUse"
       id="clipPath12">
      <path
         d="M 0,368.094 H 500 V 0 H 0 Z"
         transform="translate(-128.81061,-37.158601)"
         id="path12" />
    </clipPath>
    <clipPath
       clipPathUnits="userSpaceOnUse"
       id="clipPath14">
      <path
         d="M 0,368.094 H 500 V 0 H 0 Z"
         transform="translate(-88.0738,-91.130305)"
         id="path14" />
    </clipPath>
    <clipPath
       clipPathUnits="userSpaceOnUse"
       id="clipPath16">
      <path
         d="M 0,368.094 H 500 V 0 H 0 Z"
         transform="translate(-404.18021,-207.76021)"
         id="path16" />
    </clipPath>
    <clipPath
       clipPathUnits="userSpaceOnUse"
       id="clipPath18">
      <path
         d="M 0,368.094 H 500 V 0 H 0 Z"
         transform="translate(-368.61381,-282.9247)"
         id="path18" />
    </clipPath>
    <clipPath
       clipPathUnits="userSpaceOnUse"
       id="clipPath20">
      <path
         d="M 0,368.094 H 500 V 0 H 0 Z"
         transform="translate(-310.98691,-205.57221)"
         id="path20" />
    </clipPath>
    <clipPath
       clipPathUnits="userSpaceOnUse"
       id="clipPath22">
      <path
         d="M 0,368.094 H 500 V 0 H 0 Z"
         transform="translate(-273.99571,-250.6864)"
         id="path22" />
    </clipPath>
    <clipPath
       clipPathUnits="userSpaceOnUse"
       id="clipPath24">
      <path
         d="M 0,368.094 H 500 V 0 H 0 Z"
         transform="translate(-229.1392,-183.6234)"
         id="path24" />
    </clipPath>
    <clipPath
       clipPathUnits="userSpaceOnUse"
       id="clipPath26">
      <path
         d="M 0,368.094 H 500 V 0 H 0 Z"
         transform="translate(-181.4718,-171.475)"
         id="path26" />
    </clipPath>
    <clipPath
       clipPathUnits="userSpaceOnUse"
       id="clipPath28">
      <path
         d="M 0,368.094 H 500 V 0 H 0 Z"
         transform="translate(-139.9605,-221.9545)"
         id="path28" />
    </clipPath>
    <clipPath
       clipPathUnits="userSpaceOnUse"
       id="clipPath30">
      <path
         d="M 0,368.094 H 500 V 0 H 0 Z"
         transform="translate(-356.34041,-365.66931)"
         id="path30" />
    </clipPath>
    <clipPath
       clipPathUnits="userSpaceOnUse"
       id="clipPath32">
      <path
         d="M 0,368.094 H 500 V 0 H 0 Z"
         transform="translate(-282.96051,-327.97311)"
         id="path32" />
    </clipPath>
    <clipPath
       clipPathUnits="userSpaceOnUse"
       id="clipPath34">
      <path
         d="M 0,368.094 H 500 V 0 H 0 Z"
         transform="translate(-209.5816,-322.51021)"
         id="path34" />
    </clipPath>
    <clipPath
       clipPathUnits="userSpaceOnUse"
       id="clipPath36">
      <path
         d="M 0,368.094 H 500 V 0 H 0 Z"
         transform="translate(-204.39801,-304.92571)"
         id="path36" />
    </clipPath>
    <clipPath
       clipPathUnits="userSpaceOnUse"
       id="clipPath38">
      <path
         d="M 0,368.094 H 500 V 0 H 0 Z"
         transform="translate(-139.8961,-306.02241)"
         id="path38" />
    </clipPath>
    <clipPath
       clipPathUnits="userSpaceOnUse"
       id="clipPath40">
      <path
         d="M 0,368.094 H 500 V 0 H 0 Z"
         transform="translate(-67.870702,-266.23821)"
         id="path40" />
    </clipPath>
  </defs>
  <sodipodi:namedview
     id="namedview1"
     pagecolor="#ffffff"
     bordercolor="#000000"
     borderopacity="0.25"
     inkscape:showpageshadow="2"
     inkscape:pageopacity="0.0"
     inkscape:pagecheckerboard="0"
     inkscape:deskcolor="#d1d1d1">
    <inkscape:page
       x="0"
       y="0"
       inkscape:label="1"
       id="page1"
       width="666.66669"
       height="490.79199"
       margin="0"
       bleed="0" />
  </sodipodi:namedview>
  <g
     id="layer-MC0"
     inkscape:groupmode="layer"
     inkscape:label="Layer 1">
    <path
       id="path1"
       d="M 0,0 V 10.929 C -0.029,20.419 -0.016,29.723 11.067,43.364 2.949,48.735 0,56.34 0,71.175 v 7.954 L 23.945,84.67 V 67.045 c 0,-4.1 2.551,-7.09 7.315,-5.99 4.762,1.099 7.313,5.267 7.313,9.367 l 0.003,17.626 23.945,5.528 V 85.609 C 62.521,70.774 59.572,61.808 51.454,52.688 62.522,44.176 62.521,34.86 62.521,25.362 V 14.435 L 38.576,8.906 v 18.596 c 0,6.631 -2.554,9.559 -7.316,8.459 -4.764,-1.1 -7.315,-5.206 -7.315,-11.837 V 5.528 Z"
       style="fill:#000000;fill-opacity:1;fill-rule:nonzero;stroke:none"
       transform="matrix(1.3333333,0,0,-1.3333333,583.30413,358.11307)"
       clip-path="url(#clipPath2)" />
    <path
       id="path3"
       d="M 0,0 23.975,5.535 V -73.611 L 0,-79.146 Z"
       style="fill:#000000;fill-opacity:1;fill-rule:nonzero;stroke:none"
       transform="matrix(1.3333333,0,0,-1.3333333,540.08533,251.8032)"
       clip-path="url(#clipPath4)" />
    <path
       id="path5"
       d="m 0,0 c -5.878,5.4 -13.81,7.109 -23.099,4.965 -6.237,-1.441 -11.257,-4.048 -16.805,-8.868 -5.549,2.258 -10.539,2.554 -16.806,1.108 -9.262,-2.139 -17.222,-7.516 -23.1,-15.631 -6.181,-8.534 -8.263,-16.141 -8.263,-30.473 V -91.13 l 24.062,5.555 v 46.804 c 0,7.053 2.274,10.004 5.987,10.861 3.712,0.857 6.088,-1.02 6.088,-8.073 v -46.804 l 24.063,5.556 v 46.803 c 0,7.053 2.375,10.028 6.089,10.885 3.713,0.857 5.986,-1.044 5.986,-8.098 v -46.803 l 24.063,5.555 v 42.231 C 8.265,-12.325 6.183,-5.681 0,0"
       style="fill:#000000;fill-opacity:1;fill-rule:nonzero;stroke:none"
       transform="matrix(1.3333333,0,0,-1.3333333,519.1948,278.04413)"
       clip-path="url(#clipPath6)" />
    <path
       id="path7"
       d="m 0,0 -7.941,2.539 -7.941,-6.205 1.488,9.66 -6.396,5.138 8.861,3.431 3.988,9.381 3.988,-7.54 8.861,0.66 -6.396,-8.09 z M 16.595,36.271 C 10.938,42.543 1.55,44.969 -7.941,42.777 -17.432,40.586 -26.806,33.818 -32.456,24.946 -37.408,17.17 -39.202,10.111 -39.202,-1.893 V -45.51 l 23.917,5.522 v 17.369 l 14.688,3.37 v -17.348 l 23.917,5.522 v 43.616 c 0,12.005 -1.781,18.248 -6.725,23.73"
       style="fill:#000000;fill-opacity:1;fill-rule:nonzero;stroke:none"
       transform="matrix(1.3333333,0,0,-1.3333333,359.55413,349.73027)"
       clip-path="url(#clipPath8)" />
    <path
       id="path9"
       d="m 0,0 c -8.001,-3.36 -12.75,-5.032 -19.186,-6.518 -13.441,-3.103 -22.163,-1.83 -30.136,4.254 -7.942,6.06 -12.324,15.763 -12.324,27.417 0,11.156 4.036,22.745 11.272,32.009 7.892,10.102 17.927,16.31 31.568,19.459 5.986,1.382 11.009,2.067 18.806,2.304 v -24.8 c -7.33,-0.148 -11.903,-0.707 -17.521,-2.005 -13.083,-3.019 -20.5,-10.813 -20.5,-21.558 0,-9.03 5.548,-14.277 14.104,-13.486 V 40.678 L 0,46.199 Z"
       style="fill:#000000;fill-opacity:1;fill-rule:nonzero;stroke:none"
       transform="matrix(1.3333333,0,0,-1.3333333,297.6284,422.80973)"
       clip-path="url(#clipPath10)" />
    <path
       id="path11"
       d="m 0,0 c -9.374,-2.163 -14.026,-1.854 -18.485,0.944 -4.654,2.921 -7.008,8.233 -7.008,15.475 0,8.761 3.037,14.456 11.038,20.561 -7.563,2.189 -10.279,5.721 -10.279,13.402 0,7.475 3.052,14.674 8.322,20.064 4.159,4.252 10.368,7.362 18.836,9.292 l 22.72,5.245 V 62.673 L 9.199,58.992 C 2.891,57.536 0.964,56.06 0.964,52.613 c 0,-3.445 1.927,-4.032 8.235,-2.576 L 25.144,53.719 25.143,36.993 9.199,33.313 c -6.308,-1.458 -6.95,-4.416 -6.95,-6.081 0,-1.781 0.642,-4.364 6.95,-2.908 l 15.945,3.682 v -22.2 z"
       style="fill:#000000;fill-opacity:1;fill-rule:nonzero;stroke:none"
       transform="matrix(1.3333333,0,0,-1.3333333,171.74747,441.2472)"
       clip-path="url(#clipPath12)" />
    <path
       id="path13"
       d="m 0,0 c -5.878,5.4 -13.81,7.109 -23.099,4.965 -6.237,-1.441 -11.257,-4.048 -16.806,-8.868 -5.548,2.258 -10.538,2.554 -16.805,1.108 -9.262,-2.139 -17.222,-7.516 -23.1,-15.631 -6.182,-8.534 -8.264,-16.141 -8.264,-30.473 V -91.13 l 24.063,5.555 v 46.804 c 0,7.053 2.273,10.004 5.986,10.861 3.713,0.857 6.089,-1.02 6.089,-8.073 v -46.804 l 24.062,5.555 v 46.804 c 0,7.053 2.376,10.028 6.089,10.885 3.713,0.857 5.987,-1.044 5.987,-8.098 v -46.803 l 24.062,5.555 v 42.231 C 8.264,-12.325 6.182,-5.681 0,0"
       style="fill:#000000;fill-opacity:1;fill-rule:nonzero;stroke:none"
       transform="matrix(1.3333333,0,0,-1.3333333,117.43173,369.28493)"
       clip-path="url(#clipPath14)" />
    <path
       id="path15"
       d="M 0,0 V 7.229 L -1.817,-0.419 -3.786,-0.874 -5.56,5.945 v -7.228 l -1.86,-0.43 V 6.94 l 2.906,0.672 1.753,-6.46 0.022,0.005 1.709,7.259 2.869,0.662 V 0.425 Z M -13.433,-3.101 V 4.018 L -16.426,3.327 V 4.861 L -8.51,6.689 V 5.154 L -11.395,4.488 V -2.63 Z"
       style="fill:#000000;fill-opacity:1;fill-rule:nonzero;stroke:none"
       transform="matrix(1.3333333,0,0,-1.3333333,538.90693,213.7784)"
       clip-path="url(#clipPath16)" />
    <path
       id="path17"
       d="m 0,0 c 0,0 -0.117,-30.515 -0.497,-35.883 -0.593,-8.384 -2.846,-8.609 -4.763,-7.351 -3.825,2.509 -10.973,16.8 -17.373,29.228 l -9.337,-2.156 v -77.22 l 11.417,2.635 0.038,19.594 c 0.021,10.058 2.767,10.713 6.757,7.059 3.029,-2.773 7.149,-8.886 13.641,-19.282 l 15.108,3.488 V 3.461 Z"
       style="fill:#000000;fill-opacity:1;fill-rule:nonzero;stroke:none"
       transform="matrix(1.3333333,0,0,-1.3333333,491.48507,113.55907)"
       clip-path="url(#clipPath18)" />
    <path
       id="path19"
       d="m 0,0 c -0.347,-0.002 -2.911,0.085 -3.186,2.042 -0.159,1.133 0.385,2.197 1.753,3.034 2.141,1.309 9.548,3.438 16.658,5.105 v 9.832 c 0,0 -12.873,-3.098 -16.832,-2.509 -1.203,0.179 -2.004,0.814 -2.164,1.925 -0.162,1.135 0.411,2.159 1.754,3.034 3.621,2.358 19.871,5.864 19.871,5.864 v 22.682 l -33.459,-7.724 v -60.47 l 34.161,7.887 V 3.267 C 9.438,1.196 3.275,0.018 0,0"
       style="fill:#000000;fill-opacity:1;fill-rule:nonzero;stroke:none"
       transform="matrix(1.3333333,0,0,-1.3333333,414.6492,216.69573)"
       clip-path="url(#clipPath20)" />
    <path
       id="path21"
       d="m 0,0 c 0,0 -3.625,-23.881 -6.843,-34.918 -0.92,-3.153 -3.142,-7.978 -6.166,-1.079 -1.083,2.471 -4.298,14.016 -6.657,28.899 l -10.438,-2.41 c 0.914,-10.234 5.924,-37.874 12.601,-53.976 l 20.245,4.674 c 7.451,19.721 11.923,40.55 13.443,62.546 z"
       style="fill:#000000;fill-opacity:1;fill-rule:nonzero;stroke:none"
       transform="matrix(1.3333333,0,0,-1.3333333,365.3276,156.54347)"
       clip-path="url(#clipPath22)" />
    <path
       id="path23"
       d="m 0,0 -7.156,-1.652 c -1.795,-0.414 -2.839,0.682 -2.62,3.242 0.205,2.395 1.254,7.474 1.653,9.189 0.882,3.792 2.617,5.373 4.656,5.658 2.614,0.364 4.898,-1.92 6.148,-8.116 C 2.801,7.723 3.106,6.479 3.305,4.791 3.547,2.739 2.54,0.587 0,0 m 8.922,34.233 c -5.066,9.335 -10.958,7.4 -13.977,6.402 -3.955,-1.309 -7.466,-3.341 -11.14,-17.913 -3.862,-15.317 -8.07,-47.531 -8.07,-47.531 l 10.598,2.448 1.096,6.137 c 0.526,2.947 2.401,4.819 5.26,5.661 2.749,0.808 8.213,2.13 11.017,2.45 1.184,0.134 2.576,-0.801 2.981,-2.656 l 1.432,-6.563 14.436,3.333 c 0,0 -7.182,36.348 -13.633,48.232"
       style="fill:#000000;fill-opacity:1;fill-rule:nonzero;stroke:none"
       transform="matrix(1.3333333,0,0,-1.3333333,305.51893,245.9608)"
       clip-path="url(#clipPath24)" />
    <path
       id="path25"
       d="m 0,0 c -0.347,-0.002 -2.911,0.085 -3.186,2.042 -0.158,1.133 0.386,2.197 1.754,3.034 2.14,1.309 9.547,3.438 16.657,5.105 v 9.832 c 0,0 -12.873,-3.098 -16.832,-2.509 -1.203,0.179 -2.004,0.813 -2.163,1.925 -0.163,1.135 0.41,2.159 1.753,3.034 3.621,2.358 19.872,5.863 19.872,5.863 v 24.451 l -33.46,-7.725 V -15.417 L 18.556,-7.53 V 3.268 C 9.439,1.195 3.276,0.018 0,0"
       style="fill:#000000;fill-opacity:1;fill-rule:nonzero;stroke:none"
       transform="matrix(1.3333333,0,0,-1.3333333,241.9624,262.15867)"
       clip-path="url(#clipPath26)" />
    <path
       id="path27"
       d="m 0,0 c 0,-12.067 0.061,-21.098 -1.592,-27.016 -1.005,-3.594 -3.215,-6.33 -6.166,-8.401 -3.007,-2.109 -6.02,-3.034 -8.971,-3.093 -3.6,-0.07 -6.23,1.888 -6.615,5.887 -0.552,5.744 -0.516,13.004 -0.516,23.064 l -13.063,-3.016 v -88.977 l 17.943,4.143 c 0,11.323 0.232,19.67 1.628,24.876 0.951,3.548 3.538,6.542 6.15,8.305 3.053,2.062 5.861,3.093 8.818,3.141 3.595,0.059 6.324,-1.797 6.663,-5.382 0.497,-5.251 0.529,-12.391 0.529,-22.136 l 13.296,3.069 V 4.18 Z"
       style="fill:#000000;fill-opacity:1;fill-rule:nonzero;stroke:none"
       transform="matrix(1.3333333,0,0,-1.3333333,186.614,194.85267)"
       clip-path="url(#clipPath28)" />
    <path
       id="path29"
       d="m 0,0 c -5.57,-18.394 -8.723,-27.387 -11.47,-34.968 -4.68,-12.901 -9.535,-7.834 -11.798,-4.236 -2.629,4.216 -6.208,12.417 -12.417,27.445 L -51.021,-15.3 v -72.197 l 12.726,2.938 c -0.097,11.508 0.097,19.322 0.715,22.359 0.561,2.727 2.205,3.114 3.868,0.406 1.373,-2.225 3.54,-7.04 7.853,-16.943 l 8.527,1.969 c 4.7,12.629 7.235,18.997 9.034,22.111 1.451,2.533 4.217,4.313 5.048,-0.368 0.639,-3.539 0.581,-13.142 0.562,-24.901 l 13.19,3.046 V 2.424 Z"
       style="fill:#000000;fill-opacity:1;fill-rule:nonzero;stroke:none"
       transform="matrix(1.3333333,0,0,-1.3333333,475.12053,3.2329333)"
       clip-path="url(#clipPath30)" />
    <path
       id="path31"
       d="m 0,0 c -0.058,-9.864 -0.038,-18.857 -0.464,-22.145 -0.986,-7.853 -14.409,-11.392 -15.066,-4.158 -0.31,3.404 -0.58,7.901 -0.58,17.939 l -10.851,-2.505 v -66.146 l 13.829,3.193 c 0,10.502 0,15.065 0.174,18.662 0.483,9.477 14.718,11.624 15.956,3.385 0.561,-3.752 0.657,-5.551 0.657,-14.022 l 11.025,2.545 V 3.389 Z"
       style="fill:#000000;fill-opacity:1;fill-rule:nonzero;stroke:none"
       transform="matrix(1.3333333,0,0,-1.3333333,377.28067,53.494533)"
       clip-path="url(#clipPath32)" />
    <path
       id="path33"
       d="m 0,0 v -26.625 l 7.717,1.782 c 4.68,1.08 6.615,0.471 6.615,-7.814 V -66.856 L 27,-63.931 v 31.351 c 0,13.926 1.307,17.44 8.2,19.032 l 6.305,1.455 10e-4,21.675 z"
       style="fill:#000000;fill-opacity:1;fill-rule:nonzero;stroke:none"
       transform="matrix(1.3333333,0,0,-1.3333333,279.44213,60.7784)"
       clip-path="url(#clipPath34)" />
    <path
       id="path35"
       d="m 0,0 -11.837,-2.733 c 0,0 0.174,-12.184 -0.29,-21.159 -0.677,-13.132 -13.906,-15.956 -14.97,-3.462 -0.541,6.557 -0.793,19.625 -0.793,19.625 l -14.718,-3.398 v -10.657 c 0,-25.433 16.536,-28.566 25.182,-21.313 0.522,0.445 1.044,0.715 1.469,0.522 0.484,-0.213 0.465,-0.735 0.271,-1.702 -0.522,-2.534 -4.274,-7.543 -11.856,-9.574 -5.783,-1.547 -11.449,-2.523 -14.273,-2.968 v -17.649 c 12.726,1.644 27.464,5.28 34.33,15.84 3.578,5.512 5.454,11.334 6.382,19.96 C 0.348,-25.091 0,0 0,0"
       style="fill:#000000;fill-opacity:1;fill-rule:nonzero;stroke:none"
       transform="matrix(1.3333333,0,0,-1.3333333,272.53067,84.2244)"
       clip-path="url(#clipPath36)" />
    <path
       id="path37"
       d="m 0,0 c -0.058,-9.864 -0.039,-18.857 -0.464,-22.145 -0.987,-7.853 -14.409,-11.392 -15.067,-4.159 -0.309,3.405 -0.58,7.902 -0.58,17.939 l -10.85,-2.505 v -66.145 l 13.829,3.192 c 0,10.502 0,15.066 0.174,18.663 0.483,9.477 14.718,11.624 15.956,3.385 0.561,-3.753 0.657,-5.551 0.657,-14.023 l 11.025,2.546 V 3.389 Z"
       style="fill:#000000;fill-opacity:1;fill-rule:nonzero;stroke:none"
       transform="matrix(1.3333333,0,0,-1.3333333,186.52813,82.762133)"
       clip-path="url(#clipPath38)" />
    <path
       id="path39"
       d="m 0,0 c -5.28,-1.237 -8.22,1.702 -8.22,7.988 v 6.073 c 0,4.38 0.851,8.181 4.758,9.419 C 7.881,27.074 15.782,22.184 15.782,14.506 15.782,7.331 10.29,2.418 0,0 m 38.237,26.246 c 0,27.909 -27.31,36.012 -60.711,24.079 v -90.092 l 14.235,3.287 v 22.555 c 0,3.443 2.533,2.843 4.874,0.754 1.643,-1.47 11.527,-11.043 18.431,-17.929 l 21.732,5.017 c 0,0 -18.946,19.353 -21.132,21.267 12.727,4.758 22.571,17.157 22.571,31.062"
       style="fill:#000000;fill-opacity:1;fill-rule:nonzero;stroke:none"
       transform="matrix(1.3333333,0,0,-1.3333333,90.494267,135.80773)"
       clip-path="url(#clipPath40)" />
  </g>
</svg>
