<?xml version="1.0" encoding="UTF-8" standalone="no"?>
<!-- Created with Inkscape (http://www.inkscape.org/) -->

<svg
   version="1.1"
   id="svg2"
   width="666.66669"
   height="421.90399"
   viewBox="0 0 666.66669 421.90399"
   sodipodi:docname="Rhythm Tengoku The Best+ (リズム天国 ザ・ベスト＋) Logo (Flat).svg"
   inkscape:version="1.2.2 (b0a8486541, 2022-12-01)"
   xmlns:inkscape="http://www.inkscape.org/namespaces/inkscape"
   xmlns:sodipodi="http://sodipodi.sourceforge.net/DTD/sodipodi-0.dtd"
   xmlns="http://www.w3.org/2000/svg"
   xmlns:svg="http://www.w3.org/2000/svg">
  <defs
     id="defs6">
    <clipPath
       clipPathUnits="userSpaceOnUse"
       id="clipPath16">
      <path
         d="M 0,316.428 H 500 V 0 H 0 Z"
         id="path14" />
    </clipPath>
    <linearGradient
       x1="0"
       y1="0"
       x2="1"
       y2="0"
       gradientUnits="userSpaceOnUse"
       gradientTransform="matrix(125.22918,45.579697,45.579697,-125.22918,358.07346,116.88607)"
       spreadMethod="pad"
       id="linearGradient56">
      <stop
         style="stop-opacity:1;stop-color:#feee04"
         offset="0"
         id="stop50" />
      <stop
         style="stop-opacity:1;stop-color:#feee04"
         offset="0.5"
         id="stop52" />
      <stop
         style="stop-opacity:1;stop-color:#ffc602"
         offset="1"
         id="stop54" />
    </linearGradient>
    <radialGradient
       fx="0"
       fy="0"
       cx="0"
       cy="0"
       r="1"
       gradientUnits="userSpaceOnUse"
       gradientTransform="matrix(29.999998,0,0,-29.999998,363.4003,137.51115)"
       spreadMethod="pad"
       id="radialGradient78">
      <stop
         style="stop-opacity:1;stop-color:#ffffff"
         offset="0"
         id="stop72" />
      <stop
         style="stop-opacity:1;stop-color:#ffffff"
         offset="0.1"
         id="stop74" />
      <stop
         style="stop-opacity:1;stop-color:#feee04"
         offset="1"
         id="stop76" />
    </radialGradient>
    <clipPath
       clipPathUnits="userSpaceOnUse"
       id="clipPath88">
      <path
         d="M 0,316.428 H 500 V 0 H 0 Z"
         id="path86" />
    </clipPath>
  </defs>
  <sodipodi:namedview
     id="namedview4"
     pagecolor="#ffffff"
     bordercolor="#000000"
     borderopacity="0.25"
     inkscape:showpageshadow="2"
     inkscape:pageopacity="0.0"
     inkscape:pagecheckerboard="0"
     inkscape:deskcolor="#d1d1d1"
     showgrid="false"
     inkscape:zoom="2.1329999"
     inkscape:cx="333.56776"
     inkscape:cy="210.97047"
     inkscape:window-width="2560"
     inkscape:window-height="1400"
     inkscape:window-x="2560"
     inkscape:window-y="0"
     inkscape:window-maximized="1"
     inkscape:current-layer="g8" />
  <g
     id="g8"
     inkscape:groupmode="layer"
     inkscape:label="Rhythm Tengoku The Best+ (リズム天国 ザ・ベスト＋) Logo"
     transform="matrix(1.3333333,0,0,-1.3333333,0,421.904)">
    <g
       id="g10">
      <g
         id="g12"
         clip-path="url(#clipPath16)">
        <g
           id="g18"
           transform="translate(421.0642,316.4279)">
          <path
             d="m 0,0 c -27.788,0 -52.25,-14.446 -66.32,-36.21 -5.148,1.06 -10.478,1.618 -15.935,1.618 -17.005,0 -32.758,-5.423 -45.658,-14.605 -12.399,8.112 -27.198,12.849 -43.09,12.849 -27.741,0 -52.167,-14.397 -66.248,-36.098 -5.075,1.028 -10.323,1.572 -15.696,1.572 -17.125,0 -32.981,-5.499 -45.931,-14.8 -12.432,8.177 -27.29,12.952 -43.25,12.952 -43.525,0 -78.936,-35.41 -78.936,-78.936 0,-19.967 7.466,-38.213 19.735,-52.129 -12.091,-11.942 -19.6,-28.514 -19.6,-46.811 0,-36.298 29.531,-65.83 65.83,-65.83 21.519,0 40.658,10.381 52.678,26.395 2.356,-0.279 4.739,-0.437 7.149,-0.437 9.349,0 18.202,2.16 26.093,6 9.014,-4.645 19.223,-7.285 30.043,-7.285 18.1,0 34.516,7.345 46.428,19.21 7.418,-2.837 15.364,-4.337 23.543,-4.337 16.437,0 31.953,5.986 44.063,16.923 6.412,-2.089 13.246,-3.233 20.345,-3.233 34.141,0 62.288,26.128 65.514,59.437 19.37,8.05 34.082,25.094 38.923,45.891 0.107,0 0.213,-0.008 0.32,-0.008 43.525,0 78.936,35.411 78.936,78.936 C 78.936,-35.411 43.525,0 0,0"
             style="fill:#0096e6;fill-opacity:1;fill-rule:nonzero;stroke:none"
             id="path20" />
        </g>
        <g
           id="g22"
           transform="translate(421.0642,307.4142)">
          <path
             d="m 0,0 c -26.899,0 -50.283,-15.278 -61.973,-37.602 -6.423,1.951 -13.231,3.01 -20.282,3.01 -17.337,0 -33.208,-6.357 -45.44,-16.844 -11.92,9.435 -26.961,15.088 -43.308,15.088 -26.845,0 -50.191,-15.215 -61.905,-37.467 -6.352,1.904 -13.076,2.94 -20.039,2.94 -17.462,0 -33.435,-6.448 -45.702,-17.069 -11.946,9.516 -27.055,15.222 -43.479,15.222 -38.555,0 -69.922,-31.367 -69.922,-69.922 0,-21.001 9.319,-39.854 24.024,-52.682 -14.445,-10.312 -23.89,-27.197 -23.89,-46.258 0,-31.329 25.488,-56.816 56.817,-56.816 20.499,0 38.495,10.914 48.488,27.235 3.679,-0.835 7.473,-1.277 11.339,-1.277 9.571,0 18.53,2.663 26.182,7.282 8.703,-5.423 18.966,-8.568 29.954,-8.568 17.796,0 33.7,8.231 44.126,21.079 7.905,-4.049 16.707,-6.205 25.845,-6.205 15.177,0 29.444,5.91 40.175,16.641 0.569,0.567 1.115,1.151 1.657,1.738 6.924,-3.01 14.556,-4.69 22.576,-4.69 31.328,0 56.816,25.488 56.816,56.817 0,0.017 -10e-4,0.034 -10e-4,0.051 21.636,6.571 37.844,25.725 40.067,48.908 2.587,-0.292 5.212,-0.456 7.875,-0.456 38.556,0 69.922,31.367 69.922,69.923 C 69.922,-31.367 38.556,0 0,0"
             style="fill:#ffffff;fill-opacity:1;fill-rule:nonzero;stroke:none"
             id="path24" />
        </g>
        <g
           id="g26"
           transform="translate(421.0642,301.5866)">
          <path
             d="m 0,0 c -26.48,0 -49.206,-16.061 -58.978,-38.97 -7.218,2.816 -15.063,4.378 -23.277,4.378 -17.686,0 -33.698,-7.164 -45.295,-18.747 -11.423,10.543 -26.682,16.991 -43.453,16.991 -26.418,0 -49.096,-15.986 -58.906,-38.81 -7.152,2.757 -14.915,4.284 -23.038,4.284 -17.818,0 -33.932,-7.275 -45.549,-19.01 -11.442,10.643 -26.772,17.162 -43.632,17.162 -35.399,0 -64.095,-28.696 -64.095,-64.094 0,-22.205 11.295,-41.769 28.45,-53.271 -16.779,-8.347 -28.315,-25.657 -28.315,-45.67 0,-28.16 22.829,-50.988 50.989,-50.988 19.989,0 37.28,11.508 45.639,28.254 4.461,-1.482 9.228,-2.297 14.188,-2.297 9.781,0 18.826,3.132 26.208,8.434 8.406,-6.107 18.743,-9.718 29.928,-9.718 17.774,0 33.416,9.099 42.542,22.888 7.922,-5.066 17.328,-8.016 27.429,-8.016 16.387,0 30.957,7.739 40.285,19.751 7.183,-3.864 15.395,-6.06 24.123,-6.06 28.16,0 50.988,22.828 50.988,50.988 0,1.521 -0.079,3.021 -0.21,4.508 23.15,4.82 40.544,25.334 40.544,49.914 0,0.449 -0.022,0.893 -0.034,1.339 4.345,-0.929 8.848,-1.429 13.47,-1.429 35.398,0 64.094,28.696 64.094,64.094 C 64.095,-28.696 35.398,0 0,0"
             style="fill:#000000;fill-opacity:1;fill-rule:nonzero;stroke:none"
             id="path28" />
        </g>
        <g
           id="g30"
           transform="translate(453.6335,167.3947)">
          <path
             d="m 0,0 3.85,44.009 -62.197,-13.22 -3.85,-44.009 -43.405,-9.226 -3.694,-42.218 43.405,9.226 -3.85,-44.009 62.197,13.22 3.85,44.01 43.405,9.226 3.693,42.217 z"
             style="fill:#000000;fill-opacity:1;fill-rule:nonzero;stroke:none"
             id="path32" />
        </g>
        <g
           id="g34"
           transform="translate(441.9412,153.7306)">
          <path
             d="m 0,0 3.851,44.01 -40.806,-8.674 -3.851,-44.009 -43.404,-9.226 -1.701,-19.436 43.405,9.226 -3.85,-44.01 40.805,8.673 3.851,44.01 43.404,9.226 1.701,19.436 z"
             style="fill:#feee04;fill-opacity:1;fill-rule:nonzero;stroke:none"
             id="path36" />
        </g>
      </g>
    </g>
    <g
       id="g38">
      <g
         id="g40">
        <g
           id="g46">
          <g
             id="g48" />
        </g>
      </g>
    </g>
    <g
       id="g60">
      <g
         id="g62">
        <g
           id="g68">
          <g
             id="g70" />
        </g>
      </g>
    </g>
    <g
       id="g82">
      <g
         id="g84"
         clip-path="url(#clipPath88)">
        <g
           id="g90"
           transform="translate(405.5828,115.0846)">
          <path
             d="M 0,0 15.411,3.276 C 14.594,-2.092 12.048,-9.144 3.42,-10.978 l -4.463,-0.948 -0.353,-4.041 4.561,0.97 c 5.905,1.255 8.831,2.711 12.592,6.63 0.838,-0.511 1.902,-1.671 2.408,-3.442 l 6.945,1.476 c -0.847,1.27 -4.673,4.114 -6.991,4.641 2.935,3.897 3.527,6.463 4.141,9.293 0.218,1.024 0.752,1.515 1.317,1.636 L 24.629,5.46 24.967,9.324 0.358,4.093 Z"
             style="fill:#ff0000;fill-opacity:1;fill-rule:nonzero;stroke:none"
             id="path92" />
        </g>
        <g
           id="g94"
           transform="translate(431.4753,144.0392)">
          <path
             d="m 0,0 -23.802,-5.059 -0.341,-3.892 17.573,3.735 c -0.573,-6.542 -5.266,-8.502 -11.815,-9.893 l -6.416,-1.364 -0.323,-3.697 6.173,1.312 c 8.354,1.776 17.722,4.816 18.61,14.966 z m -0.768,1.761 -21.781,-4.63 0.296,3.378 21.781,4.629 z"
             style="fill:#ff0000;fill-opacity:1;fill-rule:nonzero;stroke:none"
             id="path96" />
        </g>
        <g
           id="g98"
           transform="translate(436.0515,174.4591)">
          <path
             d="m 0,0 c -0.751,0.007 -1.354,0.621 -1.347,1.372 0.006,0.75 0.62,1.354 1.371,1.347 C 0.774,2.712 1.378,2.099 1.371,1.348 1.365,0.597 0.751,-0.006 0,0 m 0.044,5.004 c -2.013,0.018 -3.659,-1.6 -3.677,-3.613 -0.008,-0.954 0.36,-1.819 0.955,-2.474 l -23.022,-4.894 -0.351,-4.012 14.922,3.172 c -0.938,-8.356 -4.331,-12.35 -15.959,-15.031 l -0.325,-3.713 2.716,0.577 c 15.975,3.396 19.147,12.125 20.57,18.261 0.234,1.012 0.917,2.019 1.482,2.14 l 0.671,0.143 0.231,2.624 c 0.514,-0.285 1.095,-0.464 1.723,-0.469 2.013,-0.018 3.66,1.6 3.677,3.613 0.018,2.013 -1.6,3.659 -3.613,3.676"
             style="fill:#ff0000;fill-opacity:1;fill-rule:nonzero;stroke:none"
             id="path100" />
        </g>
        <g
           id="g102"
           transform="translate(345.9958,103.7243)">
          <path
             d="m 0,0 1.278,14.612 c -10.9,8.697 -26.014,5.346 -26.014,5.346 l 0.883,10.094 c 0.145,1.662 1.654,3.309 3.376,3.675 l 1.33,0.283 0.593,6.781 -24.418,-5.19 -0.593,-6.782 2.361,0.503 c 1.155,0.245 2.002,-0.462 1.905,-1.565 l -2.736,-31.279 c -0.146,-1.663 -1.654,-3.309 -3.377,-3.675 l -1.329,-0.283 -0.594,-6.781 24.419,5.191 0.593,6.78 -2.362,-0.502 c -1.155,-0.245 -2.001,0.462 -1.905,1.565 l 1.12,12.801 c 0,0 11.23,3.11 25.47,-11.574"
             style="fill:#feee04;fill-opacity:1;fill-rule:nonzero;stroke:none"
             id="path104" />
        </g>
        <g
           id="g106"
           transform="translate(272.7478,97.1632)">
          <path
             d="m 0,0 c 6.391,8.409 7.676,13.939 9.009,20.038 0.473,2.207 1.636,3.268 2.869,3.53 l 2.292,0.487 0.729,8.323 -53.662,-11.406 -0.772,-8.817 33.607,7.144 C -7.699,7.733 -13.236,-7.469 -32.049,-11.468 l -9.733,-2.069 -0.762,-8.705 9.949,2.115 c 12.877,2.736 19.255,5.891 27.448,14.351 1.828,-1.095 4.153,-3.587 5.261,-7.399 l 15.145,3.219 C 13.406,-7.225 5.054,-1.122 0,0"
             style="fill:#feee04;fill-opacity:1;fill-rule:nonzero;stroke:none"
             id="path108" />
        </g>
        <g
           id="g110"
           transform="translate(220.2039,80.9762)">
          <path
             d="M 0,0 -2.925,-0.622 C -4.792,-1.018 -6.797,-1.444 -8.839,0.537 L -31.27,22.305 c -2.59,2.51 -6.179,4.42 -9.984,3.611 l -20.422,-4.341 -3.678,-27.671 c -0.481,-3.611 -1.862,-3.967 -4.716,-4.574 l -0.618,-7.127 19.435,4.147 4.092,30.779 27.155,-26.353 c 3.525,-3.421 3.525,-3.421 10.156,-2.011 l 9.054,1.924 z m -11.545,31.904 c 2.492,-0.021 4.513,-2.078 4.491,-4.57 -0.022,-2.492 -2.078,-4.513 -4.57,-4.491 -2.492,0.022 -4.513,2.078 -4.491,4.57 0.022,2.524 2.046,4.513 4.57,4.491 m -10.81,-2.297 c 2.492,-0.022 4.513,-2.078 4.491,-4.57 -0.022,-2.492 -2.078,-4.513 -4.571,-4.491 -2.491,0.022 -4.512,2.078 -4.491,4.57 0.022,2.492 2.047,4.513 4.571,4.491"
             style="fill:#feee04;fill-opacity:1;fill-rule:nonzero;stroke:none"
             id="path112" />
        </g>
        <g
           id="g114"
           transform="translate(138.8254,84.4342)">
          <path
             d="m 0,0 -7.729,-0.52 -3.444,6.267 -3.47,-7.737 -7.732,-2.766 5.583,-4.261 -1.334,-7.977 6.921,5.103 6.908,-2.164 -1.307,7.416 z"
             style="fill:#feee04;fill-opacity:1;fill-rule:nonzero;stroke:none"
             id="path116" />
        </g>
        <g
           id="g118"
           transform="translate(101.3884,92.6759)">
          <path
             d="m 0,0 c -2.271,-0.473 -3.704,-2.662 -3.263,-4.933 0.472,-2.271 2.662,-3.703 4.933,-3.263 2.271,0.44 3.736,2.662 3.263,4.933 C 4.46,-0.992 2.271,0.473 0,0 M 14.878,-1.262 C 14.405,1.009 12.216,2.474 9.945,2.001 7.674,1.528 6.242,-0.661 6.682,-2.932 c 0.473,-2.272 2.662,-3.704 4.933,-3.263 2.272,0.473 3.737,2.661 3.263,4.933 m -26.428,-11.849 8.838,1.878 -0.556,-6.358 -8.838,-1.879 -1.396,-15.953 c -0.703,-8.034 -5.523,-13.813 -12.414,-15.254 l -34.047,-7.237 0.706,8.07 24.348,5.175 c 4.678,1.001 7.158,4.798 7.633,10.222 l 1.047,11.976 -16.013,-3.404 -1.027,-11.733 -15.334,-3.26 0.524,5.987 1.583,0.337 c 1.704,0.361 2.412,1.563 2.558,3.236 l 0.263,3.003 -10.572,-2.247 0.557,6.358 10.571,2.247 0.26,2.97 c 0.098,1.126 -0.717,1.801 -2.558,1.41 l -1.168,-0.248 0.524,5.998 19.235,4.088 -0.525,-5.998 -1.579,-0.336 c -1.708,-0.363 -2.416,-1.568 -2.561,-3.225 l -0.195,-2.229 16.014,3.404 0.26,2.972 c 0.099,1.127 -0.722,1.798 -2.561,1.407 l -1.221,-0.26 0.525,5.999 21.89,4.653 -0.525,-5.998 -1.497,-0.319 c -1.727,-0.367 -2.405,-1.518 -2.553,-3.215 z"
             style="fill:#feee04;fill-opacity:1;fill-rule:nonzero;stroke:none"
             id="path120" />
        </g>
        <g
           id="g122"
           transform="translate(443.4744,266.3346)">
          <path
             d="m 0,0 -37.71,-8.016 c -2.027,-0.424 -3.355,-2.052 -3.554,-4.317 l -3.664,-41.879 37.711,8.015 c 1.874,0.388 3.341,1.892 3.554,4.318 z m 15.908,11.242 -5.382,-61.509 -71.352,-15.167 5.381,61.51 z m -26.216,-49.733 -4.166,-0.886 c -2.433,-0.517 -3.545,0.328 -3.411,1.86 l 0.852,9.732 7.807,1.66 0.454,5.179 -7.808,-1.66 0.693,7.927 c 0.221,2.515 1.449,3.87 3.448,4.296 l 4.677,0.994 0.422,4.825 -26.795,-5.695 -0.422,-4.825 4.218,0.896 c 2.949,0.627 3.451,-0.824 3.36,-1.86 l -0.782,-8.934 -7.806,-1.66 -0.454,-5.179 7.807,1.659 -0.763,-8.724 c -0.217,-2.482 -1.463,-3.885 -3.395,-4.295 l -4.731,-1.006 -0.419,-4.793 26.794,5.695 z m -3.483,8.215 4.281,0.91 -0.514,-5.885 -4.283,-0.91 z"
             style="fill:#ff5500;fill-opacity:1;fill-rule:nonzero;stroke:none"
             id="path124" />
        </g>
        <g
           id="g126"
           transform="translate(434.7351,280.7253)">
          <path
             d="m 0,0 c -0.365,0.133 -0.933,0.342 -0.933,0.672 0,0.277 0.253,0.542 0.871,1.161 2.461,2.487 2.74,2.771 4.52,4.784 L 3.109,7.319 C 2.225,6.208 1.885,5.833 -0.666,3.089 -1.979,1.676 -2.61,0.882 -2.611,0.236 c -10e-4,-0.843 0.908,-1.205 1.929,-1.607 1.904,-0.742 3.719,-1.636 5.42,-2.724 l 1.25,1.36 C 4.842,-1.95 1.854,-0.661 0,0"
             style="fill:#ff5500;fill-opacity:1;fill-rule:nonzero;stroke:none"
             id="path128" />
        </g>
        <g
           id="g130"
           transform="translate(405.9138,278.8385)">
          <path
             d="M 0,0 0.922,-0.754 C 2.408,0.512 3.549,1.317 5.164,1.955 L 5.165,3.267 C 4.345,3.093 0.297,2.219 -0.612,2.026 -1.253,1.89 -2.842,1.552 -3.227,1.483 L -3.228,-0.03 c 0.82,0.228 1.922,0.489 4.562,1.091 C 0.5,0.455 0.41,0.382 0,0 m 2.058,-6.525 c -1.923,-0.409 -4.382,-0.904 -4.381,0.837 10e-4,0.281 0.053,1.27 1.13,2.583 l -1.037,0.583 c -0.936,-1.297 -1.501,-2.261 -1.502,-3.492 -10e-4,-1.059 0.677,-1.932 1.561,-2.186 1.089,-0.317 2.178,-0.206 4.7,0.33 1.987,0.422 2.883,0.733 3.331,0.895 l -0.049,1.49 C 4.568,-5.937 3.313,-6.258 2.058,-6.525 m 3.693,5.565 0.896,0.753 C 6.378,0.312 5.956,0.918 5.445,1.425 L 4.548,0.686 C 5.047,0.136 5.303,-0.211 5.751,-0.96 M 3.855,0.365 c 0.666,-0.702 1.101,-1.494 1.216,-1.71 L 4.174,-2.098 c -0.576,1.042 -0.986,1.491 -1.19,1.728 z"
             style="fill:#ff5500;fill-opacity:1;fill-rule:nonzero;stroke:none"
             id="path132" />
        </g>
        <g
           id="g134"
           transform="translate(344.6887,197.6828)">
          <path
             d="m 0,0 0.603,6.885 26.606,5.656 0.944,10.784 -26.607,-5.656 0.845,9.656 26.607,5.656 0.94,10.757 -71.865,-15.276 -0.941,-10.757 26.173,5.564 -0.845,-9.657 -26.173,-5.563 -0.944,-10.784 26.174,5.564 -0.349,-3.988 c -1.117,-12.77 -8.447,-17.334 -19.171,-19.621 l -8.388,-1.783 -0.946,-10.808 18.268,3.883 c 14.03,2.976 19.272,7.398 25.819,19.851 2.868,-1.441 10.475,-7.469 13.421,-11.51 l 18.893,4.016 C 24.09,-10.574 5.158,-1.487 0,0"
             style="fill:#faa61a;fill-opacity:1;fill-rule:nonzero;stroke:none"
             id="path136" />
        </g>
        <g
           id="g138"
           transform="translate(355.928,246.5822)">
          <path
             d="m 0,0 c -0.272,-2.98 -0.935,-4.237 -1.952,-4.453 -1.08,-0.23 -1.078,0.98 -1.077,1.365 l 10e-4,0.571 c 10e-4,0.957 -0.046,3.006 -2.092,2.572 -0.864,-0.184 -1.36,-0.662 -1.64,-0.934 0.218,0.764 1.392,4.48 1.648,5.332 l -1.6,-0.035 c -0.563,-2.006 -2.353,-8.404 -3.35,-11.751 l 1.46,-0.127 c 0.09,0.377 0.73,3.051 0.756,3.122 0.268,0.801 0.996,2.576 2.432,2.881 0.953,0.203 0.952,-0.66 0.95,-1.511 l -10e-4,-0.451 c 0,-0.293 0.037,-1.082 0.213,-1.536 0.279,-0.724 1.091,-1.216 2.133,-0.995 2.338,0.497 3.104,2.613 3.453,5.822 z"
             style="fill:#ffaa00;fill-opacity:1;fill-rule:nonzero;stroke:none"
             id="path140" />
        </g>
        <g
           id="g142"
           transform="translate(323.2097,243.2033)">
          <path
             d="M 0,0 C 0.583,0.421 1.338,0.893 2.453,1.13 2.986,1.243 3.271,1.278 3.531,1.307 L 3.509,2.765 C 2.232,2.442 -3.454,1 -4.52,0.723 -5.374,0.502 -6.304,0.252 -7.158,0.071 l 0.046,-1.466 c 1.921,0.576 3.841,1.14 5.774,1.667 -2.766,-2.349 -3.425,-4.509 -3.428,-5.843 -0.002,-1.205 0.726,-2.28 1.84,-2.639 1.127,-0.369 2.451,-0.411 5.115,0.142 L 2.39,-6.484 C -1.178,-7.359 -3.345,-7.121 -3.341,-5.151 -3.338,-3.403 -1.761,-1.294 0,0"
             style="fill:#ffaa00;fill-opacity:1;fill-rule:nonzero;stroke:none"
             id="path144" />
        </g>
        <g
           id="g146"
           transform="translate(286.7507,190.8122)">
          <path
             d="m 0,0 -2.841,-0.604 c -1.859,-0.4 -3.805,0.313 -5.003,2.465 l -5.496,9.879 -18.835,-4.003 7.228,-13.04 -23.231,-4.938 17.613,43.593 c 0.769,1.905 1.941,3.038 3.44,3.368 l 4.727,1.005 0.651,7.449 -23.2,-4.931 -20.912,-51.76 c -0.81,-2.005 -2.118,-2.932 -3.449,-3.215 l -2.877,-0.611 -0.941,-10.769 78.367,16.657 z"
             style="fill:#ff5500;fill-opacity:1;fill-rule:nonzero;stroke:none"
             id="path148" />
        </g>
        <g
           id="g150"
           transform="translate(202.7854,204.4381)">
          <path
             d="m 0,0 c -0.535,2.686 -3.184,4.383 -5.824,3.793 -2.69,-0.585 -4.332,-3.188 -3.794,-5.824 0.586,-2.69 3.189,-4.332 5.825,-3.793 C -1.103,-5.239 0.589,-2.64 0,0 m -23.972,-49.265 c 7.943,10.45 9.54,17.323 11.196,24.902 0.588,2.744 2.033,4.062 3.566,4.387 l 2.849,0.606 0.905,10.344 -66.69,-14.176 -0.959,-10.957 41.766,8.878 c -2.202,-14.374 -9.082,-33.267 -32.463,-38.237 l -12.096,-2.571 -0.947,-10.819 12.365,2.629 c 16.003,3.401 23.929,7.321 34.111,17.836 2.272,-1.361 5.162,-4.458 6.538,-9.196 l 18.823,4 c -2.304,3.395 -12.683,10.979 -18.964,12.374 m 2.563,44.728 c -0.538,2.636 1.108,5.289 3.794,5.824 2.636,0.539 5.235,-1.154 5.824,-3.793 0.539,-2.636 -1.103,-5.24 -3.793,-5.825 -2.636,-0.539 -5.235,1.154 -5.825,3.794"
             style="fill:#faa61a;fill-opacity:1;fill-rule:nonzero;stroke:none"
             id="path152" />
        </g>
        <g
           id="g154"
           transform="translate(88.6863,198.5089)">
          <path
             d="m 0,0 -0.7,-7.999 1.642,0.349 c 2.471,0.525 3.574,-0.368 3.443,-1.871 L 1.899,-37.933 c -0.633,-7.233 -3.963,-12.301 -10.25,-13.646 l -32.721,-6.955 -0.941,-10.762 45.756,9.726 c 9.26,1.937 15.734,9.653 16.671,20.366 l 2.864,32.738 c 0.198,2.263 1.108,3.799 3.429,4.292 l 2.012,0.428 0.7,7.999 z m -19.61,-42.188 -25.85,-5.494 0.698,7.983 2.128,0.452 c 2.289,0.487 3.239,2.091 3.435,4.321 l 1.438,16.444 c 0.132,1.503 -0.965,2.4 -3.44,1.874 l -1.57,-0.333 0.7,7.999 25.85,5.494 -0.7,-7.999 -2.122,-0.451 c -2.296,-0.488 -3.246,-2.097 -3.439,-4.306 l -1.438,-16.444 c -0.133,-1.512 0.975,-2.414 3.443,-1.889 l 1.565,0.332 z"
             style="fill:#ff5500;fill-opacity:1;fill-rule:nonzero;stroke:none"
             id="path156" />
        </g>
        <g
           id="g158"
           transform="translate(481.3035,182.9445)">
          <path
             d="M 0,0 2.563,0.557 1.991,-5.404 3.736,-5.025 4.309,0.936 6.78,1.472 6.903,2.753 0.123,1.281 Z M 15.768,4.681 15.071,-2.564 13.496,-2.906 14.077,3.146 11.939,-3.244 10.254,-3.61 9.315,2.112 8.734,-3.94 7.141,-4.286 7.837,2.96 l 2.489,0.54 0.949,-5.42 0.019,0.003 2.016,6.065 z"
             style="fill:#000000;fill-opacity:1;fill-rule:nonzero;stroke:none"
             id="path160" />
        </g>
      </g>
    </g>
  </g>
</svg>
