<?xml version="1.0" encoding="UTF-8" standalone="no"?>
<!-- Created with Inkscape (http://www.inkscape.org/) -->

<svg
   version="1.1"
   id="svg2"
   width="666.66669"
   height="571.08398"
   viewBox="0 0 666.66669 571.08398"
   sodipodi:docname="Rhythm Paradise Megamix Logo (Print).ai"
   xmlns:inkscape="http://www.inkscape.org/namespaces/inkscape"
   xmlns:sodipodi="http://sodipodi.sourceforge.net/DTD/sodipodi-0.dtd"
   xmlns="http://www.w3.org/2000/svg"
   xmlns:svg="http://www.w3.org/2000/svg">
  <defs
     id="defs6">
    <clipPath
       clipPathUnits="userSpaceOnUse"
       id="clipPath16">
      <path
         d="M 0,428.313 H 500 V 0 H 0 Z"
         id="path14" />
    </clipPath>
  </defs>
  <sodipodi:namedview
     id="namedview4"
     pagecolor="#ffffff"
     bordercolor="#000000"
     borderopacity="0.25"
     inkscape:showpageshadow="2"
     inkscape:pageopacity="0.0"
     inkscape:pagecheckerboard="0"
     inkscape:deskcolor="#d1d1d1" />
  <g
     id="g8"
     inkscape:groupmode="layer"
     inkscape:label="Rhythm Paradise Megamix Logo (Print)"
     transform="matrix(1.3333333,0,0,-1.3333333,0,571.084)">
    <g
       id="g10">
      <g
         id="g12"
         clip-path="url(#clipPath16)">
        <g
           id="g18"
           transform="translate(489.222,264.4647)">
          <path
             d="m 0,0 c 0,40.208 -24.849,74.696 -59.934,88.802 -11.846,43.229 -50.983,75.047 -97.31,75.047 -37.68,0 -70.601,-21.05 -87.954,-52.164 -10.732,3.711 -22.245,5.732 -34.223,5.732 -18.96,0 -36.762,-5.053 -52.132,-13.883 -13.785,7.254 -29.468,11.368 -46.097,11.368 -54.765,0 -99.319,-44.554 -99.319,-99.319 0,-11.561 1.992,-22.663 5.64,-32.991 -11.203,-15.093 -17.855,-33.858 -17.855,-54.173 0,-43.041 29.849,-79.129 69.628,-88.056 18.044,-21.137 46.142,-34.75 77.649,-34.75 21.313,0 41.066,6.23 57.203,16.804 12.124,-5.122 25.571,-7.974 39.718,-7.974 23.757,0 45.536,8.048 62.396,21.373 7.134,-1.508 14.528,-2.308 22.105,-2.308 49.155,0 90.646,33.408 102.982,78.708 C -23.707,-73.086 0,-39.273 0,0"
             style="fill:#000000;fill-opacity:1;fill-rule:nonzero;stroke:none"
             id="path20" />
        </g>
        <g
           id="g22"
           transform="translate(477.7582,264.4647)">
          <path
             d="m 0,0 c 0,37.436 -24.464,69.226 -58.168,80.117 -8.52,41.221 -44.564,72.268 -87.612,72.268 -36.921,0 -68.69,-22.838 -82.362,-55.344 -12.087,5.711 -25.584,8.913 -39.815,8.913 -19.185,0 -37.036,-5.811 -51.897,-15.76 -13.459,8.389 -29.338,13.244 -46.333,13.244 -48.443,0 -87.854,-39.411 -87.854,-87.855 0,-12.432 2.601,-24.266 7.279,-34.995 -12.116,-13.9 -19.494,-32.17 -19.494,-52.169 0,-38.919 27.902,-71.313 64.413,-77.595 15.747,-20.385 41.878,-33.747 71.4,-33.747 21.32,0 40.871,6.971 56.022,18.521 12.15,-6.173 26.088,-9.691 40.899,-9.691 23.1,0 44.071,8.558 59.448,22.415 7.986,-2.18 16.385,-3.35 25.053,-3.35 45.831,0 84.203,32.536 93.238,75.724 C -23.316,-67.71 0,-36.546 0,0"
             style="fill:#ffffff;fill-opacity:1;fill-rule:nonzero;stroke:none"
             id="path24" />
        </g>
        <g
           id="g26"
           transform="translate(471.0023,264.4647)">
          <path
             d="m 0,0 c 0,35.904 -24.329,66.088 -57.318,74.831 -6.328,40.133 -40.494,70.798 -81.706,70.798 -36.745,0 -67.878,-24.379 -78.686,-58.107 -12.788,7.423 -27.643,11.676 -43.491,11.676 -19.411,0 -37.332,-6.377 -51.789,-17.147 -13.156,9.21 -29.161,14.631 -46.441,14.631 -44.789,0 -81.098,-36.309 -81.098,-81.099 0,-13.016 3.084,-25.306 8.534,-36.208 -12.817,-13.027 -20.749,-31.046 -20.749,-50.956 0,-36.563 26.754,-66.735 61.388,-71.333 14.264,-19.99 39.23,-33.253 67.669,-33.253 21.437,0 40.895,7.543 55.295,19.814 12.071,-6.952 26.332,-10.984 41.625,-10.984 22.801,0 43.324,8.941 57.674,23.21 8.462,-2.689 17.475,-4.145 26.827,-4.145 43.981,0 80.462,32.084 87.331,74.121 C -23.165,-64.613 0,-35.033 0,0"
             style="fill:#000000;fill-opacity:1;fill-rule:nonzero;stroke:none"
             id="path28" />
        </g>
        <g
           id="g30"
           transform="translate(500.0004,213.1605)">
          <path
             d="m 0,0 -72.099,-16.66 v -87.792 L 0,-87.808 v 16.835 c 0,8.344 -0.001,17.658 -8.132,26.199 C -2.35,-36.292 0,-27.088 0,-14.032 Z"
             style="fill:#000000;fill-opacity:1;fill-rule:nonzero;stroke:none"
             id="path32" />
        </g>
        <g
           id="g34"
           transform="translate(434.4037,116.7113)">
          <path
             d="M 0,0 V 10.329 C -0.027,19.3 -0.015,28.094 10.461,40.987 2.788,46.063 0,53.251 0,67.272 v 7.519 l 22.634,5.237 V 63.369 c 0,-3.874 2.41,-6.701 6.912,-5.661 4.503,1.039 6.913,4.98 6.913,8.854 l 0.003,16.659 22.633,5.225 v -7.53 C 59.095,66.895 56.308,58.419 48.634,49.8 59.096,41.754 59.095,32.949 59.095,23.973 V 13.643 L 36.462,8.418 v 17.576 c 0,6.268 -2.413,9.035 -6.916,7.995 -4.502,-1.039 -6.912,-4.92 -6.912,-11.187 V 5.226 Z"
             style="fill:#ffffff;fill-opacity:1;fill-rule:nonzero;stroke:none"
             id="path36" />
        </g>
        <g
           id="g38"
           transform="translate(397.265,197.0736)">
          <path
             d="m 0,0 v -87.812 l 35.664,8.234 V 8.233 Z"
             style="fill:#000000;fill-opacity:1;fill-rule:nonzero;stroke:none"
             id="path40" />
        </g>
        <g
           id="g42"
           transform="translate(403.767,192.0726)">
          <path
             d="M 0,0 22.66,5.231 V -69.576 L 0,-74.808 Z"
             style="fill:#ffffff;fill-opacity:1;fill-rule:nonzero;stroke:none"
             id="path44" />
        </g>
        <g
           id="g46"
           transform="translate(393.8636,178.8705)">
          <path
             d="M 0,0 C -6.81,6.257 -16.057,8.261 -26.738,5.795 -32.57,4.448 -37.607,2.12 -42.623,-1.597 c -5.015,1.402 -10.052,1.404 -15.884,0.057 -10.682,-2.466 -19.929,-8.739 -26.739,-18.141 -6.945,-9.589 -9.407,-18.34 -9.407,-33.438 V -99.537 L 9.408,-75.513 v 46.418 C 9.408,-13.995 6.946,-6.381 0,0"
             style="fill:#000000;fill-opacity:1;fill-rule:nonzero;stroke:none"
             id="path48" />
        </g>
        <g
           id="g50"
           transform="translate(388.9584,173.4711)">
          <path
             d="m 0,0 c -5.556,5.104 -13.053,6.72 -21.833,4.692 -5.896,-1.361 -10.641,-3.825 -15.885,-8.381 -5.244,2.134 -9.96,2.415 -15.884,1.047 -8.753,-2.021 -16.277,-7.104 -21.833,-14.774 -5.843,-8.066 -7.811,-15.256 -7.811,-28.803 v -39.916 l 22.743,5.251 v 44.238 c 0,6.667 2.149,9.457 5.659,10.266 3.51,0.811 5.755,-0.964 5.755,-7.631 v -44.238 l 22.743,5.251 v 44.238 c 0,6.666 2.245,9.478 5.755,10.288 3.51,0.811 5.658,-0.986 5.658,-7.653 v -44.238 l 22.744,5.251 v 39.915 C 7.811,-11.649 5.843,-5.369 0,0"
             style="fill:#ffffff;fill-opacity:1;fill-rule:nonzero;stroke:none"
             id="path52" />
        </g>
        <g
           id="g54"
           transform="translate(296.6869,162.0277)">
          <path
             d="M 0,0 C -6.499,7.207 -17.382,10.104 -28.401,7.56 -39.407,5.019 -50.283,-2.9 -56.783,-13.108 c -5.59,-8.777 -7.668,-16.787 -7.668,-29.556 v -47.728 l 72.098,16.646 v 47.727 C 7.647,-13.234 5.574,-6.182 0,0"
             style="fill:#000000;fill-opacity:1;fill-rule:nonzero;stroke:none"
             id="path56" />
        </g>
        <g
           id="g58"
           transform="translate(275.7914,122.6537)">
          <path
             d="m 0,0 -7.506,2.4 -7.506,-5.865 1.408,9.131 -6.046,4.855 8.375,3.244 3.769,8.867 3.769,-7.127 8.376,0.624 -6.046,-7.648 z m 15.685,34.282 c -5.347,5.929 -14.221,8.221 -23.191,6.151 -8.971,-2.072 -17.831,-8.469 -23.172,-16.854 -4.68,-7.35 -6.375,-14.021 -6.375,-25.368 v -41.226 l 22.605,5.219 v 16.417 l 13.884,3.185 v -16.397 l 22.605,5.219 v 41.226 c 0,11.346 -1.684,17.247 -6.356,22.428"
             style="fill:#ffffff;fill-opacity:1;fill-rule:nonzero;stroke:none"
             id="path60" />
        </g>
        <g
           id="g62"
           transform="translate(233.1718,152.1176)">
          <path
             d="m 0,0 c -7.464,-0.228 -12.628,-0.862 -19.054,-2.346 -14.574,-3.365 -25.874,-10.395 -34.544,-21.496 -7.912,-10.128 -12.449,-22.941 -12.449,-35.154 0,-12.724 4.818,-23.407 13.566,-30.082 8.807,-6.72 18.696,-8.171 33.068,-4.854 6.285,1.452 10.985,3.043 19.342,6.553 l 5.294,2.224 V 0.158 Z"
             style="fill:#000000;fill-opacity:1;fill-rule:nonzero;stroke:none"
             id="path64" />
        </g>
        <g
           id="g66"
           transform="translate(231.8929,70.849)">
          <path
             d="m 0,0 c -7.563,-3.177 -12.052,-4.757 -18.134,-6.161 -12.705,-2.933 -20.949,-1.73 -28.485,4.021 -7.506,5.728 -11.648,14.899 -11.648,25.914 0,10.543 3.815,21.498 10.655,30.254 7.458,9.548 16.943,15.415 29.837,18.392 5.657,1.307 10.405,1.955 17.775,2.178 v -23.44 c -6.928,-0.14 -11.251,-0.669 -16.561,-1.895 -12.365,-2.855 -19.376,-10.221 -19.376,-20.375 0,-8.535 5.244,-13.496 13.332,-12.748 V 38.448 L 0,43.667 Z"
             style="fill:#ffffff;fill-opacity:1;fill-rule:nonzero;stroke:none"
             id="path68" />
        </g>
        <g
           id="g70"
           transform="translate(144.9672,139.6517)">
          <path
             d="m 0,0 c -9.516,-2.146 -16.657,-5.806 -21.857,-11.124 -6.566,-6.714 -10.333,-15.691 -10.333,-24.63 0,-6.252 1.651,-10.665 5.319,-13.728 -4.127,-5.339 -6.036,-11.271 -6.036,-18.373 0,-8.804 3.074,-15.387 8.891,-19.038 6.3,-3.952 12.976,-3.497 21.706,-1.481 l 30.267,6.987 V 6.455 Z"
             style="fill:#000000;fill-opacity:1;fill-rule:nonzero;stroke:none"
             id="path72" />
        </g>
        <g
           id="g74"
           transform="translate(142.6576,57.7797)">
          <path
             d="m 0,0 c -8.86,-2.046 -13.257,-1.753 -17.472,0.892 -4.399,2.76 -6.624,7.781 -6.624,14.626 0,8.281 2.87,13.664 10.433,19.435 -7.149,2.068 -9.715,5.406 -9.715,12.665 0,7.067 2.884,13.87 7.866,18.965 3.93,4.02 9.799,6.959 17.803,8.783 l 21.474,4.957 V 59.236 L 8.694,55.758 C 2.732,54.381 0.911,52.985 0.911,49.729 c 0,-3.257 1.821,-3.812 7.783,-2.435 l 15.071,3.478 V 34.964 L 8.694,31.485 C 2.732,30.108 2.125,27.312 2.125,25.738 c 0,-1.683 0.607,-4.124 6.569,-2.748 l 15.071,3.48 V 5.486 Z"
             style="fill:#ffffff;fill-opacity:1;fill-rule:nonzero;stroke:none"
             id="path76" />
        </g>
        <g
           id="g78"
           transform="translate(109.059,114.1908)">
          <path
             d="m 0,0 c -6.81,6.257 -16.056,8.261 -26.738,5.795 -5.834,-1.347 -10.87,-3.675 -15.885,-7.392 -5.014,1.402 -10.051,1.404 -15.884,0.057 -10.682,-2.466 -19.929,-8.739 -26.738,-18.141 -6.946,-9.588 -9.408,-18.339 -9.408,-33.438 V -99.536 L 9.408,-75.512 v 46.417 C 9.408,-13.995 6.946,-6.382 0,0"
             style="fill:#000000;fill-opacity:1;fill-rule:nonzero;stroke:none"
             id="path80" />
        </g>
        <g
           id="g82"
           transform="translate(104.1537,108.7914)">
          <path
             d="m 0,0 c -5.556,5.104 -13.053,6.72 -21.833,4.692 -5.895,-1.36 -10.64,-3.825 -15.884,-8.38 -5.244,2.133 -9.961,2.414 -15.885,1.046 -8.753,-2.021 -16.277,-7.103 -21.833,-14.773 -5.843,-8.067 -7.811,-15.257 -7.811,-28.804 v -39.915 l 22.744,5.25 v 44.238 c 0,6.667 2.148,9.457 5.658,10.267 3.51,0.81 5.755,-0.965 5.755,-7.632 v -44.238 l 22.743,5.251 v 44.238 c 0,6.667 2.246,9.479 5.755,10.288 3.51,0.811 5.659,-0.986 5.659,-7.653 v -44.238 l 22.743,5.251 v 39.916 C 7.811,-11.649 5.843,-5.368 0,0"
             style="fill:#ffffff;fill-opacity:1;fill-rule:nonzero;stroke:none"
             id="path84" />
        </g>
        <g
           id="g86"
           transform="translate(452.1107,126.3685)">
          <path
             d="m 0,0 -14.832,1.545 -7.143,13.143 -6.044,-13.694 -14.699,-2.733 11.114,-9.976 -1.91,-14.748 12.886,7.423 13.48,-6.456 -3.101,14.629 z"
             style="fill:#000000;fill-opacity:1;fill-rule:nonzero;stroke:none"
             id="path88" />
        </g>
        <g
           id="g90"
           transform="translate(442.3256,122.7367)">
          <path
             d="m 0,0 -7.949,0.828 -3.809,7.011 -3.229,-7.315 -7.867,-1.462 5.934,-5.328 -1.02,-7.893 6.9,3.974 7.203,-3.45 -1.655,7.812 z"
             style="fill:#ffffff;fill-opacity:1;fill-rule:nonzero;stroke:none"
             id="path92" />
        </g>
        <g
           id="g94"
           transform="translate(211.7284,146.6263)">
          <path
             d="M 0,0 5.222,12.008 -7.486,8.87 l -9.816,8.669 -0.941,-13.061 -11.283,-6.687 12.152,-4.902 2.82,-12.794 8.461,10.028 13.044,-1.257 z"
             style="fill:#000000;fill-opacity:1;fill-rule:nonzero;stroke:none"
             id="path96" />
        </g>
        <g
           id="g98"
           transform="translate(207.0795,146.2806)">
          <path
             d="m 0,0 2.76,6.349 -6.707,-1.657 -5.189,4.582 -0.497,-6.9 -5.962,-3.533 6.431,-2.595 1.491,-6.762 4.471,5.299 6.873,-0.662 z"
             style="fill:#ffffff;fill-opacity:1;fill-rule:nonzero;stroke:none"
             id="path100" />
        </g>
        <g
           id="g102"
           transform="translate(30.8973,24.5277)">
          <path
             d="M 0,0 2.779,13.993 -10.002,7.7 l -12.42,6.966 1.999,-14.096 -10.474,-9.695 14.053,-2.432 5.899,-12.97 6.728,12.624 14.166,1.662 z"
             style="fill:#000000;fill-opacity:1;fill-rule:nonzero;stroke:none"
             id="path104" />
        </g>
        <g
           id="g106"
           transform="translate(26.4281,23.2064)">
          <path
             d="m 0,0 1.573,7.922 -7.231,-3.561 -7.038,3.947 1.131,-7.977 -5.934,-5.492 7.977,-1.381 3.339,-7.342 3.809,7.15 8.005,0.937 z"
             style="fill:#ffffff;fill-opacity:1;fill-rule:nonzero;stroke:none"
             id="path108" />
        </g>
        <g
           id="g110"
           transform="translate(416.4945,213.0931)">
          <path
             d="M 0,0 V 6.784 L -1.707,-0.402 -3.555,-0.838 -5.221,5.553 V -1.23 l -1.747,-0.413 v 8.122 l 2.73,0.643 1.645,-6.054 0.021,0.005 1.604,6.82 2.695,0.635 V 0.407 Z m -12.613,-2.974 v 6.681 l -2.81,-0.663 V 4.48 L -7.99,6.232 V 4.797 l -2.709,-0.639 v -6.68 z"
             style="fill:#ffffff;fill-opacity:1;fill-rule:nonzero;stroke:none"
             id="path112" />
        </g>
        <g
           id="g114"
           transform="translate(392.8256,258.2606)">
          <path
             d="m 0,0 c 3.932,1.481 12.158,3.693 19.069,5.192 v 21.393 l -34.536,-7.973 v -57.178 l 34.482,7.961 v 9.525 c -4.535,-1.189 -13.877,-2.944 -17.991,-3.639 -5.009,-0.841 -5.722,5.54 -0.183,7.368 3.181,1.042 9.013,2.432 13.566,3.712 v 7.335 C 10.257,-7.146 4.645,-8.118 0.22,-8.739 -5.266,-9.525 -6.216,-2.34 0,0"
             style="fill:#ffffff;fill-opacity:1;fill-rule:nonzero;stroke:none"
             id="path116" />
        </g>
        <g
           id="g118"
           transform="translate(360.7631,218.8612)">
          <path
             d="m 0,0 c -0.202,1.9 -3.488,2.33 -8.606,3.557 -8.951,2.223 -14.49,7.495 -13.924,16.757 0.602,9.998 5.664,16.97 32.451,21.519 V 21.036 C 0.255,19.828 -5.082,18.019 -7.346,16.167 -9.759,14.208 -9.618,11 -6.134,9.837 -4.62,9.332 -0.145,7.836 2.56,6.93 7.75,5.2 10.29,2.547 10.819,-2.148 12.314,-15.394 -11.659,-18.868 -21.544,-20.32 V -8.55 C -9.702,-6.165 0.457,-4.074 0,0"
             style="fill:#ffffff;fill-opacity:1;fill-rule:nonzero;stroke:none"
             id="path120" />
        </g>
        <g
           id="g122"
           transform="translate(319.2924,215.3876)">
          <path
             d="M 0,0 V 50.973 L 12.89,53.948 12.889,2.976 Z"
             style="fill:#ffffff;fill-opacity:1;fill-rule:nonzero;stroke:none"
             id="path124" />
        </g>
        <g
           id="g126"
           transform="translate(288.4857,206.8861)">
          <path
             d="m 0,0 c -3.548,-0.821 -5.083,0.365 -5.083,4.516 v 13.09 c 0,3.017 -0.156,5.427 2.706,6.235 6.216,1.755 13.164,-1.572 13.822,-8.337 C 12.213,7.642 7.839,1.81 0,0 M -13.822,43.641 V -11.957 C 13.054,-8.026 24.755,2.358 24.462,23 24.206,40.898 6.436,50.735 -13.822,43.641"
             style="fill:#ffffff;fill-opacity:1;fill-rule:nonzero;stroke:none"
             id="path128" />
        </g>
        <g
           id="g130"
           transform="translate(251.1703,198.2748)">
          <path
             d="m 0,0 -6.491,-1.498 c -1.631,-0.377 -2.559,0.639 -2.358,2.906 0.182,2.12 1.133,6.618 1.499,8.155 0.768,3.18 2.377,4.735 4.224,5.008 2.98,0.476 4.424,-1.7 5.575,-7.184 C 2.56,6.874 2.87,5.76 2.998,4.26 3.254,1.207 2.305,0.532 0,0 M 11.372,24.371 C 7.971,35.524 5.219,38.276 -1.555,36.712 c -5.97,-1.378 -9.364,-4.486 -12.212,-15.394 -2.797,-10.714 -5.869,-25.888 -8.356,-43.22 l 9.836,2.138 c 0.183,1.371 0.513,2.981 0.988,5.43 0.512,2.469 1.846,4.233 4.497,4.846 2.183,0.504 6.245,1.441 7.679,1.772 2.053,0.474 3.931,-1.151 4.589,-3.893 0.439,-1.829 1.006,-4.407 1.353,-6.144 l 13.054,2.999 c -1.591,12.779 -5.119,28.046 -8.501,39.125"
             style="fill:#ffffff;fill-opacity:1;fill-rule:nonzero;stroke:none"
             id="path132" />
        </g>
        <g
           id="g134"
           transform="translate(203.0424,202.601)">
          <path
             d="M 0,0 C -3.349,-0.785 -5.213,1.08 -5.213,5.067 V 8.92 c 0,2.779 0.54,5.19 3.017,5.976 C 4.999,17.175 10.009,14.073 10.009,9.201 10.009,4.649 6.525,1.533 0,0 m 24.25,16.648 c 0,17.706 -17.463,22.752 -38.503,15.279 v -55.702 l 9.027,2.084 v 12.857 c 0,2.184 1.607,1.804 3.092,0.479 1.042,-0.933 7.31,-7.007 11.689,-11.375 l 13.782,3.181 c 0,0 -12.015,12.278 -13.401,13.493 8.071,3.018 14.314,10.883 14.314,19.704"
             style="fill:#ffffff;fill-opacity:1;fill-rule:nonzero;stroke:none"
             id="path136" />
        </g>
        <g
           id="g138"
           transform="translate(167.5624,172.4594)">
          <path
             d="m 0,0 -6.49,-1.498 c -1.632,-0.377 -2.56,0.639 -2.359,2.906 0.183,2.121 1.134,6.618 1.499,8.155 0.768,3.18 2.377,4.735 4.224,5.008 2.98,0.476 4.424,-1.7 5.576,-7.184 C 2.56,6.875 2.871,5.76 2.999,4.26 3.254,1.207 2.305,0.532 0,0 M 11.372,24.371 C 7.971,35.523 5.219,38.276 -1.554,36.712 -7.525,35.334 -10.919,32.226 -13.767,21.318 -16.564,10.604 -19.636,-4.57 -22.123,-21.902 l 9.837,2.138 c 0.182,1.371 0.512,2.981 0.987,5.431 0.512,2.468 1.847,4.232 4.498,4.845 2.182,0.504 6.245,1.441 7.678,1.772 2.053,0.474 3.932,-1.151 4.589,-3.893 0.439,-1.829 1.006,-4.407 1.353,-6.144 l 13.055,2.999 c -1.591,12.779 -5.12,28.046 -8.502,39.125"
             style="fill:#ffffff;fill-opacity:1;fill-rule:nonzero;stroke:none"
             id="path140" />
        </g>
        <g
           id="g142"
           transform="translate(121.5262,183.1927)">
          <path
             d="m 0,0 c -4.059,-0.987 -6.399,0.073 -6.399,3.474 v 12.304 c 0,3.476 1.92,5.668 5.741,6.161 7.66,0.988 11.116,-3.492 11.116,-9.324 C 10.458,7.752 7.587,1.864 0,0 m -25.469,39.693 v -77.065 l 19.088,4.407 v 18.101 c 0,3.308 0.823,4.954 2.798,5.301 17.788,3.13 30.459,12.074 30.459,30.424 0,20.15 -21.647,30.991 -52.345,18.832"
             style="fill:#ffffff;fill-opacity:1;fill-rule:nonzero;stroke:none"
             id="path144" />
        </g>
        <g
           id="g146"
           transform="translate(368.9672,371.4862)">
          <path
             d="m 0,0 c -5.266,-17.387 -8.246,-25.888 -10.842,-33.055 -4.425,-12.195 -9.013,-7.405 -11.152,-4.004 -2.487,3.986 -5.869,11.738 -11.738,25.943 L -48.23,-14.461 V -82.71 l 12.03,2.777 c -0.092,10.879 0.091,18.265 0.676,21.136 0.53,2.577 2.085,2.943 3.657,0.383 1.298,-2.102 3.346,-6.654 7.423,-16.015 l 8.06,1.861 c 4.443,11.938 6.84,17.957 8.54,20.901 1.371,2.395 3.986,4.077 4.773,-0.348 0.602,-3.345 0.548,-12.422 0.529,-23.538 l 12.47,2.879 V 2.292 Z"
             style="fill:#ffffff;fill-opacity:1;fill-rule:nonzero;stroke:none"
             id="path148" />
        </g>
        <g
           id="g150"
           transform="translate(299.6019,335.8524)">
          <path
             d="m 0,0 c -0.055,-9.324 -0.037,-17.826 -0.439,-20.934 -0.932,-7.422 -13.621,-10.768 -14.243,-3.93 -0.292,3.218 -0.547,7.468 -0.547,16.957 l -10.257,-2.367 v -62.528 l 13.072,3.018 c 0,9.928 0,14.241 0.164,17.641 0.457,8.959 13.913,10.989 15.084,3.2 0.529,-3.547 0.621,-5.247 0.621,-13.255 l 10.421,2.406 0.001,62.996 z"
             style="fill:#ffffff;fill-opacity:1;fill-rule:nonzero;stroke:none"
             id="path152" />
        </g>
        <g
           id="g154"
           transform="translate(230.2367,330.6884)">
          <path
             d="m 0,0 v -25.168 l 7.294,1.684 c 4.425,1.021 6.253,0.445 6.253,-7.387 v -32.307 l 11.975,2.744 v 29.637 c 0,13.164 1.237,16.485 7.752,17.99 l 5.96,1.376 V 9.058 Z"
             style="fill:#ffffff;fill-opacity:1;fill-rule:nonzero;stroke:none"
             id="path156" />
        </g>
        <g
           id="g158"
           transform="translate(225.3368,314.0658)">
          <path
             d="m 0,0 -11.189,-2.583 c 0,0 0.164,-11.519 -0.274,-20.002 -0.641,-12.414 -13.146,-15.083 -14.152,-3.272 -0.511,6.197 -0.749,18.551 -0.749,18.551 l -13.913,-3.212 v -10.074 c 0,-24.042 15.631,-27.004 23.804,-20.148 0.494,0.421 0.987,0.677 1.39,0.494 0.457,-0.201 0.438,-0.695 0.255,-1.609 -0.493,-2.395 -4.04,-7.13 -11.207,-9.05 -5.466,-1.463 -10.823,-2.385 -13.493,-2.805 v -16.685 c 12.03,1.555 25.962,4.992 32.452,14.974 3.383,5.211 5.156,10.714 6.034,18.868 C 0.329,-23.718 0,0 0,0"
             style="fill:#ffffff;fill-opacity:1;fill-rule:nonzero;stroke:none"
             id="path160" />
        </g>
        <g
           id="g162"
           transform="translate(164.3632,315.1024)">
          <path
             d="m 0,0 c -0.055,-9.324 -0.037,-17.826 -0.439,-20.934 -0.932,-7.422 -13.621,-10.768 -14.242,-3.93 -0.293,3.218 -0.548,7.468 -0.548,16.957 l -10.257,-2.368 v -62.527 l 13.072,3.018 c 0,9.928 0,14.241 0.164,17.641 0.458,8.959 13.914,10.988 15.084,3.2 0.53,-3.547 0.622,-5.247 0.622,-13.255 l 10.42,2.406 0.001,62.996 z"
             style="fill:#ffffff;fill-opacity:1;fill-rule:nonzero;stroke:none"
             id="path164" />
        </g>
        <g
           id="g166"
           transform="translate(96.2777,277.495)">
          <path
             d="m 0,0 c -4.991,-1.17 -7.77,1.609 -7.77,7.551 v 5.741 c -0.001,4.14 0.804,7.733 4.498,8.903 C 7.45,25.592 14.919,20.97 14.919,13.712 14.919,6.929 9.727,2.285 0,0 m 36.146,24.81 c 0,26.382 -25.816,34.043 -57.391,22.762 v -85.164 l 13.456,3.107 v 21.321 c 0,3.255 2.395,2.688 4.608,0.713 1.554,-1.389 10.896,-10.439 17.423,-16.948 l 20.543,4.743 c 0,0 -17.91,18.294 -19.976,20.103 12.03,4.498 21.336,16.219 21.337,29.363"
             style="fill:#ffffff;fill-opacity:1;fill-rule:nonzero;stroke:none"
             id="path168" />
        </g>
      </g>
    </g>
  </g>
</svg>
