<?xml version="1.0" encoding="UTF-8" standalone="no"?>
<!-- Created with Inkscape (http://www.inkscape.org/) -->

<svg
   version="1.1"
   id="svg2"
   width="666.66669"
   height="421.66266"
   viewBox="0 0 666.66669 421.66266"
   sodipodi:docname="Rhythm World The Best+ (리듬 세상 더・베스트＋) Logo (Print).ai"
   xmlns:inkscape="http://www.inkscape.org/namespaces/inkscape"
   xmlns:sodipodi="http://sodipodi.sourceforge.net/DTD/sodipodi-0.dtd"
   xmlns="http://www.w3.org/2000/svg"
   xmlns:svg="http://www.w3.org/2000/svg">
  <defs
     id="defs6">
    <clipPath
       clipPathUnits="userSpaceOnUse"
       id="clipPath16">
      <path
         d="M 0,316.247 H 500 V 0 H 0 Z"
         id="path14" />
    </clipPath>
  </defs>
  <sodipodi:namedview
     id="namedview4"
     pagecolor="#ffffff"
     bordercolor="#000000"
     borderopacity="0.25"
     inkscape:showpageshadow="2"
     inkscape:pageopacity="0.0"
     inkscape:pagecheckerboard="0"
     inkscape:deskcolor="#d1d1d1" />
  <g
     id="g8"
     inkscape:groupmode="layer"
     inkscape:label="Rhythm World The Best+ (리듬 세상 더・베스트＋) Logo (Print)"
     transform="matrix(1.3333333,0,0,-1.3333333,0,421.66267)">
    <g
       id="g10">
      <g
         id="g12"
         clip-path="url(#clipPath16)">
        <g
           id="g18"
           transform="translate(411.8164,316.247)">
          <path
             d="m 0,0 c -21.021,0 -40.343,-7.397 -55.511,-19.719 -14.311,10.029 -31.721,15.924 -50.485,15.924 -38.763,0 -71.764,-25.141 -83.556,-59.972 -7.562,2.118 -15.53,3.255 -23.76,3.255 -16.851,0 -32.612,-4.755 -46.017,-12.988 -16.1,17.164 -38.969,27.907 -64.303,27.907 -48.625,0 -88.184,-39.559 -88.184,-88.184 0,-28.898 13.973,-54.594 35.517,-70.687 -14.367,-11.515 -23.591,-29.194 -23.591,-48.996 0,-34.621 28.166,-62.787 62.787,-62.787 14.179,0 27.271,4.729 37.794,12.687 1.675,-0.134 3.362,-0.222 5.071,-0.222 9.63,0 18.757,2.185 26.921,6.076 7.537,-3.21 15.824,-4.989 24.52,-4.989 15.43,0 29.568,5.605 40.511,14.872 6.955,-2.602 14.388,-3.975 22.036,-3.975 18.04,0 34.316,7.659 45.78,19.884 6.528,-2.305 13.54,-3.572 20.847,-3.572 28.83,0 53.167,19.538 60.508,46.064 26.636,4.659 47.545,26.151 51.318,53.077 0.598,-0.011 1.196,-0.022 1.797,-0.022 48.624,0 88.184,39.558 88.184,88.183 C 88.184,-39.56 48.625,0 0,0"
             style="fill:#000000;fill-opacity:1;fill-rule:nonzero;stroke:none"
             id="path20" />
        </g>
        <g
           id="g22"
           transform="translate(411.8164,307.4121)">
          <path
             d="m 0,0 c -21.388,0 -40.822,-8.509 -55.106,-22.315 -13.787,11.552 -31.54,18.519 -50.891,18.519 -37.978,0 -69.804,-26.822 -77.545,-62.517 -9.198,3.736 -19.246,5.8 -29.77,5.8 -17.84,0 -34.323,-5.92 -47.591,-15.896 -14.527,18.734 -37.243,30.815 -62.729,30.815 -43.754,0 -79.349,-35.595 -79.349,-79.348 0,-30.792 17.63,-57.542 43.326,-70.69 -18.514,-8.556 -31.399,-27.293 -31.399,-48.993 0,-29.749 24.202,-53.952 53.951,-53.952 13.396,0 25.658,4.919 35.102,13.031 2.536,-0.367 5.126,-0.566 7.763,-0.566 9.702,0 18.806,2.588 26.681,7.089 7.563,-3.916 15.999,-6.001 24.76,-6.001 15.178,0 28.902,6.308 38.715,16.43 7.322,-3.612 15.427,-5.533 23.832,-5.533 17.652,0 33.352,8.523 43.2,21.668 7.089,-3.432 15.037,-5.357 23.427,-5.357 26.782,0 49.059,19.62 53.237,45.239 28.087,1.848 50.378,25.274 50.378,53.821 0,0.231 -0.014,0.459 -0.017,0.69 3.284,-0.416 6.629,-0.632 10.025,-0.632 43.753,0 79.349,35.596 79.349,79.349 C 79.349,-35.596 43.753,0 0,0"
             style="fill:#ffffff;fill-opacity:1;fill-rule:nonzero;stroke:none"
             id="path24" />
        </g>
        <g
           id="g26"
           transform="translate(411.8164,301.2656)">
          <path
             d="m 0,0 c -21.812,0 -41.394,-9.544 -54.804,-24.68 -13.2,12.918 -31.264,20.885 -51.192,20.885 -37.779,0 -68.871,-28.621 -72.784,-65.362 -10.287,5.514 -22.043,8.645 -34.531,8.645 -18.741,0 -35.834,-7.046 -48.783,-18.629 -13.033,20.185 -35.724,33.548 -61.538,33.548 -40.429,0 -73.203,-32.774 -73.203,-73.202 0,-35.692 25.546,-65.413 59.351,-71.889 -26.226,-0.206 -47.424,-21.521 -47.424,-47.795 0,-26.402 21.403,-47.805 47.805,-47.805 12.908,0 24.613,5.125 33.214,13.439 3.117,-0.638 6.345,-0.974 9.651,-0.974 9.833,0 18.969,2.971 26.569,8.061 7.246,-4.424 15.761,-6.974 24.872,-6.974 15.149,0 28.642,7.053 37.401,18.047 7.306,-4.528 15.918,-7.149 25.146,-7.149 17.575,0 32.925,9.49 41.231,23.62 7.36,-4.625 16.062,-7.309 25.396,-7.309 25.513,0 46.353,19.987 47.728,45.157 0.643,-0.027 1.287,-0.049 1.935,-0.049 26.402,0 47.806,21.402 47.806,47.805 0,2.783 -0.252,5.507 -0.708,8.16 5.414,-1.276 11.058,-1.955 16.862,-1.955 40.429,0 73.202,32.774 73.202,73.202 C 73.202,-32.774 40.429,0 0,0"
             style="fill:#000000;fill-opacity:1;fill-rule:nonzero;stroke:none"
             id="path28" />
        </g>
        <g
           id="g30"
           transform="translate(439.8535,134.7236)">
          <path
             d="m 0,0 3.73,42.637 -60.256,-12.808 -3.73,-42.637 -42.052,-8.938 -3.578,-40.9 42.051,8.938 -3.729,-42.638 60.255,12.809 3.731,42.637 42.051,8.938 3.579,40.9 z"
             style="fill:#000000;fill-opacity:1;fill-rule:nonzero;stroke:none"
             id="path32" />
        </g>
        <g
           id="g34"
           transform="translate(428.5264,121.4863)">
          <path
             d="m 0,0 3.73,42.637 -39.533,-8.403 -3.73,-42.637 -42.051,-8.939 -1.647,-18.83 42.05,8.939 -3.729,-42.637 39.532,8.402 3.731,42.638 42.051,8.938 1.648,18.829 z"
             style="fill:#ffffff;fill-opacity:1;fill-rule:nonzero;stroke:none"
             id="path36" />
        </g>
        <g
           id="g38"
           transform="translate(391.1934,69.1084)">
          <path
             d="m 0,0 -0.302,-3.508 25.901,5.505 0.3,3.509 z M 24.707,12.86 22.583,8.215 c -4.613,-0.481 -8.815,2.543 -8.815,2.543 0,0 -4.733,-4.722 -9.236,-6.783 L 2.268,7.563 c 0,0 8.753,4.312 9.126,8.655 l 0.161,1.347 c 0.066,0.777 -0.414,0.776 -1.037,0.643 l -0.627,-0.133 0.211,2.45 6.887,1.464 -0.434,-4.528 c -0.404,-4.69 8.152,-4.601 8.152,-4.601"
             style="fill:#000000;fill-opacity:1;fill-rule:nonzero;stroke:none"
             id="path40" />
        </g>
        <g
           id="g42"
           transform="translate(414.2783,118.2949)">
          <path
             d="m 0,0 -0.229,-2.669 0.475,0.102 c 0.473,0.099 0.905,0.192 0.85,-0.455 L 0.67,-7.984 -2.6,-8.679 l -0.372,-4.334 3.269,0.696 -1.25,-14.561 5.126,1.09 2.333,27.171 z m -6.667,-18.586 c 1.418,0.302 2.898,0.872 3.828,1.419 l -0.304,-3.531 c -0.931,-0.494 -2.754,-1.137 -4.812,-1.574 l -9.501,-2.02 c -1.24,-0.264 -2.153,0.605 -2.038,1.938 l 0.465,5.412 c 0.066,0.777 -0.671,0.62 -1.168,0.514 l -0.246,-0.052 0.196,2.287 11.163,2.373 0.235,2.733 -10.701,-2.274 0.296,3.441 15.346,3.239 c 0.387,0.082 0.672,-0.189 0.637,-0.605 l -0.687,-7.992 c -0.036,-0.416 -0.379,-0.822 -0.767,-0.904 l -7.791,-1.656 -0.348,-4.065 z"
             style="fill:#000000;fill-opacity:1;fill-rule:nonzero;stroke:none"
             id="path44" />
        </g>
        <g
           id="g46"
           transform="translate(406.0986,142.9394)">
          <path
             d="M 0,0 8.229,1.749 8.06,-0.211 -0.169,-1.96 Z m 12.117,-0.382 0.349,4.065 2.797,0.594 0.208,2.42 -22.117,-4.701 -0.208,-2.42 2.796,0.594 -0.348,-4.064 -3.453,-0.734 -0.207,-2.42 23.427,4.98 0.208,2.421 z m 5.993,-2.51 -29.172,-6.201 -0.248,-2.89 29.172,6.2 z M 14.111,-16.625 13.86,-19.55 -5.377,-23.639 c -2.13,-0.452 -2.862,-0.022 -2.753,1.244 l 0.151,1.761 c 0.047,0.55 -0.012,0.679 -0.658,0.541 l -0.56,-0.119 0.226,2.642 17.814,3.787 0.138,1.614 -17.248,-3.666 0.271,3.147 21.502,4.555 c 0.502,0.107 0.884,-0.103 0.829,-0.737 l -0.451,-5.249 c -0.026,-0.295 -0.489,-1.041 -0.992,-1.149 l -15.246,-3.24 -0.142,-1.646 z"
             style="fill:#000000;fill-opacity:1;fill-rule:nonzero;stroke:none"
             id="path48" />
        </g>
        <g
           id="g50"
           transform="translate(272.1104,83.2295)">
          <path
             d="M 0,0 V -7.107 L 54.872,4.557 v 7.106 z M 20.712,36.738 V 31.457 L 47.47,37.146 V 29.634 L 20.712,23.946 V 18.452 L 47.47,24.14 V 17.275 L 14.688,10.308 C 11.983,9.733 9.611,11.923 9.611,15.297 l 10e-4,19.97 c 0,1.353 -0.21,1.742 -2.458,1.264 l -0.48,-0.102 v 4.739 l 40.796,8.671 v -7.413 z"
             style="fill:#ffffff;fill-opacity:1;fill-rule:nonzero;stroke:none"
             id="path52" />
        </g>
        <g
           id="g54"
           transform="translate(207.0752,69.8584)">
          <path
             d="M 0,0 V -7.224 L 54.642,4.391 v 7.223 z m 50.372,26.494 -3.801,-8.786 c -10.343,-0.797 -18.592,6.457 -18.592,6.457 0,0 -8.332,-10.268 -19.178,-14.921 l -4.862,7.143 c 0,0 18.081,8.565 18.081,17.508 v 4.67 c 0,1.598 -1.032,1.59 -2.347,1.311 l -1.177,-0.25 v 4.462 l 13.69,2.91 V 36.975 c 0,-9.656 18.186,-10.481 18.186,-10.481"
             style="fill:#ffffff;fill-opacity:1;fill-rule:nonzero;stroke:none"
             id="path56" />
        </g>
        <g
           id="g58"
           transform="translate(153.8257,70.3291)">
          <path
             d="m 0,0 -6.51,-1.384 v 6.35 L 0,6.35 Z m 14.057,23.826 0.752,0.16 c 0.996,0.212 1.848,-0.09 1.848,-1.333 v -4.87 L 9.662,16.296 V 26.905 L -2.691,24.279 v -5.564 l 0.361,0.077 C -1.334,19.003 0,18.936 0,17.692 v -3.45 l -6.51,-1.384 v 10.61 l -12.156,-2.584 v -5.483 l 0.457,0.097 c 0.996,0.212 2.458,0.257 2.458,-0.986 V -7.515 c 0,-2.215 1.483,-3.418 3.621,-2.964 L 9.662,-5.846 V 8.403 l 6.995,1.487 v -31.328 l 9.337,1.984 V 31.97 L 14.057,29.433 Z m 26.334,13.482 v -53.702 l -10.18,-2.164 v 46.264 c 0,1.313 -0.798,1.824 -1.856,1.6 l -1.017,-0.217 v 5.444 z"
             style="fill:#ffffff;fill-opacity:1;fill-rule:nonzero;stroke:none"
             id="path60" />
        </g>
        <g
           id="g62"
           transform="translate(126.5586,74.7344)">
          <path
             d="m 0,0 -5.845,-0.412 -2.649,4.619 -2.574,-5.729 -5.834,-2.071 4.254,-3.13 -0.957,-5.899 5.204,3.796 5.242,-1.575 -1.038,5.474 z"
             style="fill:#ffffff;fill-opacity:1;fill-rule:nonzero;stroke:none"
             id="path64" />
        </g>
        <g
           id="g66"
           transform="translate(45.9761,73.9267)">
          <path
             d="M 0,0 31.061,6.602 V -1.016 L 13.903,-4.663 v -17.213 l 17.158,3.646 v -7.233 L 11.232,-29.678 C 5.231,-30.953 3,-29.301 3,-23.842 v 17.026 c 0,2.129 -0.311,2.658 -2.215,2.642 L 0,-4.181 Z m 51.775,15.968 v -50.953 l -9.614,-2.043 v 25.439 l -11.1,-2.359 v 8.433 l 11.1,2.36 V 7.189 c 0,1.213 -1.353,1.026 -2.341,0.816 L 39.432,7.923 v 5.421 z"
             style="fill:#ffffff;fill-opacity:1;fill-rule:nonzero;stroke:none"
             id="path68" />
        </g>
        <g
           id="g70"
           transform="translate(388.7773,232.4106)">
          <path
             d="m 0,0 c 0,0 -1.827,-15.737 -21.768,-36.387 l -10.21,8.36 c 10.218,8.532 21.994,27.815 21.994,44.803 v 0.48 c 0,2.04 -1.567,2.01 -3.517,1.591 l -1.971,-0.423 v 6.048 L 6.409,29.165 V 20.292 C 6.409,2.942 15.901,0.328 28.514,0.437 L 22.24,-9.52 C 3.074,-8.141 0,0 0,0 M 61.278,25.417 V 14.368 L 48.82,11.695 v -20.75 l -16.64,-3.57 v 47.813 c 0,2.153 -1.753,2.099 -3.751,1.67 l -2.006,-0.43 v 6.38 L 48.82,47.612 V 22.745 Z M 17.271,-45.021 c -2.272,0.004 -6.905,0.01 -6.905,7.192 0,7.443 5.895,12.891 12.301,13.01 6.577,0.122 7.039,-4.363 7.039,-7.098 0,-6.706 -5.731,-13.113 -12.435,-13.104 m 16.64,29.906 c -7.724,1.612 -17.665,1.613 -28.941,-6.34 -7.415,-5.229 -11.155,-11.5 -11.155,-18.608 10e-4,-2.561 0.558,-5.092 1.664,-7.516 3.398,-7.438 8.429,-7.748 15.269,-8.169 11.178,-0.688 17.9,2.418 24.603,7.121 7.488,5.26 11.31,11.443 11.31,18.588 0,6.378 -3.246,12.94 -12.75,14.924"
             style="fill:#ffffff;fill-opacity:1;fill-rule:nonzero;stroke:none"
             id="path72" />
        </g>
        <g
           id="g74"
           transform="translate(317.4707,267.3789)">
          <path
             d="m 0,0 v -6.209 l 1.618,0.344 c 1.611,0.343 3.052,0.58 3.052,-1.557 v -79.073 l 16.27,3.458 V 4.451 Z m -19.06,-20.16 v -6.209 l 1.619,0.344 c 1.61,0.343 3.086,0.656 3.086,-1.481 V -45.6 l -13.647,-2.901 v -9.734 l 13.647,2.901 v -53.622 l 14.968,3.182 v 89.796 z m 2.116,-51.537 -6.98,-9.694 c -13.635,4.43 -17.317,11.384 -17.317,11.384 0,0 -5.163,-9.963 -15.988,-20.335 l -9.029,7.657 c 0,0 15.953,15.561 15.953,30.914 v 11.687 c 0,2.136 -1.691,2.061 -3.584,1.658 l -1.9,-0.404 v 6.752 l 20.894,4.441 v -21.498 c 0,-20.585 17.951,-22.562 17.951,-22.562"
             style="fill:#ffffff;fill-opacity:1;fill-rule:nonzero;stroke:none"
             id="path76" />
        </g>
        <g
           id="g78"
           transform="translate(181.5132,196.6338)">
          <path
             d="M 0,0 V -10.064 L 51.526,0.888 V -8.918 L -8.189,-21.611 c -4.819,-1.024 -8.726,2.232 -8.726,7.272 v 11.683 c 0,2.022 -0.178,2.631 -4.698,1.67 l -0.856,-0.182 V 5.03 l 73.995,15.728 v -9.806 z m 51.526,-13.722 v -9.806 l -86.648,-18.417 v 9.806 z M 32.591,-55.063 3.403,-61.268 v 12.787 l 29.188,6.204 z m 17.19,26.36 -69.175,-14.703 v -6.733 l 0.858,0.182 c 4.527,0.963 4.705,0.222 4.705,-1.996 v -14.09 c 0,-4.536 3.517,-7.467 7.854,-6.544 l 49.649,10.553 c 4.338,0.922 7.854,5.346 7.854,9.883 v 21.994 c 0,1.008 -0.781,1.659 -1.745,1.454"
             style="fill:#ffffff;fill-opacity:1;fill-rule:nonzero;stroke:none"
             id="path80" />
        </g>
        <g
           id="g82"
           transform="translate(98.3169,226.5454)">
          <path
             d="m 0,0 v -6.66 l 1.908,0.405 c 1.899,0.402 3.638,0.77 3.638,-1.715 v -39.333 c -2.806,-1.647 -6.399,-3.03 -10.829,-3.969 l -26.238,-5.558 v 12.039 l 24.331,5.154 c 1.211,0.256 2.192,1.465 2.192,2.699 v 23.835 c 0,1.234 -0.981,2.027 -2.192,1.77 L -52.826,-21 V -31.293 L -21.7,-24.7 v -8.093 l -32.573,-6.9 v -6.772 l 0.769,0.163 c 1.553,0.329 3.856,0.817 3.856,-1.485 v -16.024 c 0,-3.95 3.141,-6.486 7.015,-5.666 l 34.259,7.257 c 6.427,1.362 11.092,3.012 13.92,4.503 v -37.712 l 17.645,3.738 V 4.913 Z"
             style="fill:#ffffff;fill-opacity:1;fill-rule:nonzero;stroke:none"
             id="path84" />
        </g>
        <g
           id="g86"
           transform="translate(495.1562,149.4214)">
          <path
             d="m 0,0 0.716,8.332 -2.622,-8.737 -2.066,-0.439 -1.145,7.936 -0.716,-8.332 -1.951,-0.415 0.856,9.975 3.05,0.648 1.158,-7.521 0.024,0.005 2.472,8.293 3.009,0.639 L 1.929,0.41 Z m -14.092,-2.996 0.705,8.206 -3.139,-0.668 0.151,1.764 8.305,1.765 -0.152,-1.763 -3.027,-0.643 -0.704,-8.206 z"
             style="fill:#000000;fill-opacity:1;fill-rule:nonzero;stroke:none"
             id="path88" />
        </g>
      </g>
    </g>
  </g>
</svg>
