<?xml version="1.0" encoding="UTF-8" standalone="no"?>
<!-- Created with Inkscape (http://www.inkscape.org/) -->

<svg
   version="1.1"
   id="svg2"
   width="666.66669"
   height="421.66266"
   viewBox="0 0 666.66669 421.66266"
   sodipodi:docname="Rhythm World The Best+ (리듬 세상 더・베스트＋) Logo (Print).ai"
   xmlns:inkscape="http://www.inkscape.org/namespaces/inkscape"
   xmlns:sodipodi="http://sodipodi.sourceforge.net/DTD/sodipodi-0.dtd"
   xmlns="http://www.w3.org/2000/svg"
   xmlns:svg="http://www.w3.org/2000/svg">
  <defs
     id="defs6">
    <clipPath
       clipPathUnits="userSpaceOnUse"
       id="clipPath16">
      <path
         d="M 0,316.247 H 500 V 0 H 0 Z"
         id="path14" />
    </clipPath>
  </defs>
  <sodipodi:namedview
     id="namedview4"
     pagecolor="#ffffff"
     bordercolor="#000000"
     borderopacity="0.25"
     inkscape:showpageshadow="2"
     inkscape:pageopacity="0.0"
     inkscape:pagecheckerboard="0"
     inkscape:deskcolor="#d1d1d1" />
  <g
     id="g8"
     inkscape:groupmode="layer"
     inkscape:label="Rhythm World The Best+ (리듬 세상 더・베스트＋) Logo (Print)"
     transform="matrix(1.3333333,0,0,-1.3333333,0,421.66267)">
    <g
       id="g10">
      <g
         id="g12"
         clip-path="url(#clipPath16)">
        <g
           id="g18"
           transform="translate(411.8167,316.247)">
          <path
             d="m 0,0 c -21.02,0 -40.343,-7.397 -55.511,-19.719 -14.312,10.029 -31.722,15.923 -50.485,15.923 -38.763,0 -71.764,-25.14 -83.556,-59.971 -7.562,2.118 -15.53,3.255 -23.76,3.255 -16.852,0 -32.612,-4.755 -46.017,-12.989 -16.1,17.165 -38.969,27.908 -64.304,27.908 -48.624,0 -88.184,-39.559 -88.184,-88.184 0,-28.898 13.973,-54.594 35.518,-70.687 -14.367,-11.516 -23.591,-29.194 -23.591,-48.996 0,-34.621 28.166,-62.787 62.787,-62.787 14.179,0 27.271,4.73 37.794,12.687 1.674,-0.134 3.362,-0.222 5.07,-0.222 9.63,0 18.758,2.185 26.922,6.076 7.537,-3.21 15.824,-4.989 24.52,-4.989 15.429,0 29.568,5.605 40.511,14.872 6.955,-2.602 14.388,-3.974 22.035,-3.974 18.041,0 34.317,7.659 45.781,19.883 6.527,-2.305 13.54,-3.573 20.847,-3.573 28.829,0 53.167,19.539 60.507,46.065 26.637,4.66 47.545,26.151 51.319,53.077 0.598,-0.012 1.196,-0.022 1.796,-0.022 48.625,0 88.184,39.558 88.184,88.183 C 88.183,-39.56 48.625,0 0,0"
             style="fill:#000000;fill-opacity:1;fill-rule:nonzero;stroke:none"
             id="path20" />
        </g>
        <g
           id="g22"
           transform="translate(411.8167,307.4119)">
          <path
             d="m 0,0 c -21.388,0 -40.823,-8.509 -55.107,-22.315 -13.786,11.553 -31.538,18.519 -50.89,18.519 -37.978,0 -69.805,-26.822 -77.545,-62.517 -9.198,3.737 -19.247,5.801 -29.77,5.801 -17.84,0 -34.323,-5.92 -47.591,-15.897 -14.527,18.734 -37.243,30.816 -62.73,30.816 -43.753,0 -79.349,-35.596 -79.349,-79.349 0,-30.791 17.631,-57.542 43.327,-70.69 -18.515,-8.556 -31.4,-27.293 -31.4,-48.993 0,-29.749 24.203,-53.952 53.952,-53.952 13.396,0 25.658,4.919 35.101,13.032 2.537,-0.368 5.127,-0.567 7.763,-0.567 9.703,0 18.807,2.587 26.682,7.089 7.562,-3.916 15.999,-6.002 24.76,-6.002 15.178,0 28.902,6.31 38.715,16.432 7.322,-3.613 15.427,-5.534 23.831,-5.534 17.653,0 33.352,8.522 43.201,21.668 7.089,-3.431 15.037,-5.357 23.427,-5.357 26.782,0 49.059,19.62 53.237,45.24 28.087,1.847 50.377,25.273 50.377,53.82 0,0.231 -0.014,0.459 -0.017,0.69 3.284,-0.416 6.63,-0.631 10.025,-0.631 43.754,0 79.349,35.595 79.349,79.348 C 79.348,-35.596 43.753,0 0,0"
             style="fill:#ffffff;fill-opacity:1;fill-rule:nonzero;stroke:none"
             id="path24" />
        </g>
        <g
           id="g26"
           transform="translate(411.8163,301.2655)">
          <path
             d="m 0,0 c -21.813,0 -41.393,-9.544 -54.804,-24.68 -13.2,12.918 -31.264,20.884 -51.192,20.884 -37.779,0 -68.871,-28.62 -72.784,-65.361 -10.287,5.514 -22.043,8.645 -34.531,8.645 -18.741,0 -35.834,-7.046 -48.783,-18.629 -13.033,20.185 -35.724,33.548 -61.538,33.548 -40.429,0 -73.203,-32.774 -73.203,-73.202 0,-35.692 25.546,-65.413 59.351,-71.888 -26.226,-0.206 -47.424,-21.522 -47.424,-47.796 0,-26.402 21.403,-47.805 47.805,-47.805 12.908,0 24.613,5.125 33.214,13.44 3.117,-0.64 6.345,-0.975 9.651,-0.975 9.833,0 18.97,2.972 26.568,8.061 7.247,-4.423 15.762,-6.974 24.873,-6.974 15.149,0 28.642,7.054 37.401,18.048 7.306,-4.529 15.918,-7.15 25.146,-7.15 17.575,0 32.925,9.491 41.231,23.62 7.36,-4.625 16.062,-7.31 25.396,-7.31 25.513,0 46.354,19.988 47.728,45.158 0.643,-0.026 1.286,-0.049 1.935,-0.049 26.402,0 47.806,21.403 47.806,47.805 0,2.784 -0.252,5.507 -0.708,8.16 5.413,-1.276 11.058,-1.955 16.862,-1.955 40.429,0 73.202,32.774 73.202,73.203 C 73.202,-32.774 40.429,0 0,0"
             style="fill:#000000;fill-opacity:1;fill-rule:nonzero;stroke:none"
             id="path28" />
        </g>
        <g
           id="g30"
           transform="translate(439.8539,134.7237)">
          <path
             d="m 0,0 3.73,42.637 -60.256,-12.808 -3.731,-42.637 -42.051,-8.938 -3.579,-40.901 42.052,8.939 -3.73,-42.637 60.256,12.808 3.731,42.637 42.051,8.938 3.578,40.9 z"
             style="fill:#000000;fill-opacity:1;fill-rule:nonzero;stroke:none"
             id="path32" />
        </g>
        <g
           id="g34"
           transform="translate(428.5265,121.4859)">
          <path
             d="m 0,0 3.73,42.637 -39.533,-8.403 -3.73,-42.637 -42.051,-8.938 -1.647,-18.83 42.051,8.938 -3.731,-42.637 39.533,8.403 3.731,42.637 42.051,8.938 1.647,18.83 z"
             style="fill:#ffffff;fill-opacity:1;fill-rule:nonzero;stroke:none"
             id="path36" />
        </g>
        <g
           id="g38"
           transform="translate(391.1933,69.1088)">
          <path
             d="M 0,0 -0.301,-3.508 25.598,1.997 25.9,5.505 Z M 24.707,12.86 22.583,8.214 c -4.613,-0.48 -8.816,2.543 -8.816,2.543 0,0 -4.731,-4.721 -9.235,-6.783 L 2.268,7.563 c 0,0 8.752,4.311 9.125,8.654 l 0.161,1.348 c 0.067,0.776 -0.413,0.775 -1.037,0.643 l -0.626,-0.134 0.21,2.451 6.888,1.464 -0.434,-4.529 c -0.403,-4.689 8.152,-4.6 8.152,-4.6"
             style="fill:#000000;fill-opacity:1;fill-rule:nonzero;stroke:none"
             id="path40" />
        </g>
        <g
           id="g42"
           transform="translate(414.2786,118.2947)">
          <path
             d="m 0,0 -0.229,-2.668 0.475,0.1 c 0.472,0.101 0.905,0.193 0.849,-0.454 L 0.669,-7.984 -2.6,-8.679 l -0.372,-4.333 3.269,0.694 -1.251,-14.56 5.126,1.09 2.334,27.171 z m -6.667,-18.586 c 1.418,0.302 2.899,0.872 3.827,1.419 l -0.303,-3.531 c -0.931,-0.494 -2.754,-1.136 -4.812,-1.574 l -9.501,-2.019 c -1.241,-0.264 -2.153,0.604 -2.039,1.937 l 0.465,5.412 c 0.067,0.777 -0.671,0.62 -1.168,0.514 l -0.246,-0.052 0.196,2.287 11.164,2.373 0.235,2.733 -10.701,-2.274 0.296,3.441 15.346,3.24 c 0.387,0.081 0.672,-0.19 0.636,-0.606 l -0.687,-7.992 c -0.035,-0.417 -0.379,-0.821 -0.766,-0.904 l -7.791,-1.656 -0.349,-4.065 z"
             style="fill:#000000;fill-opacity:1;fill-rule:nonzero;stroke:none"
             id="path44" />
        </g>
        <g
           id="g46"
           transform="translate(406.0983,142.9391)">
          <path
             d="M 0,0 8.229,1.749 8.06,-0.211 -0.168,-1.96 Z m 12.158,0.09 0.261,3.043 2.844,1.144 0.208,2.42 -22.117,-4.701 -0.208,-2.42 2.75,0.045 -0.262,-3.044 -3.493,-1.204 -0.208,-2.421 23.429,4.98 0.208,2.421 z m 5.952,-2.982 -29.171,-6.2 -0.249,-2.892 29.172,6.201 z m -3.998,-13.732 -0.251,-2.925 -19.238,-4.089 c -2.13,-0.453 -2.862,-0.023 -2.753,1.243 l 0.151,1.762 c 0.048,0.549 -0.012,0.678 -0.657,0.541 l -0.561,-0.12 0.227,2.642 17.813,3.787 0.139,1.614 -17.248,-3.666 0.27,3.148 21.502,4.554 c 0.502,0.107 0.884,-0.103 0.829,-0.737 l -0.451,-5.249 c -0.025,-0.294 -0.489,-1.041 -0.992,-1.148 l -15.246,-3.241 -0.141,-1.646 z"
             style="fill:#000000;fill-opacity:1;fill-rule:nonzero;stroke:none"
             id="path48" />
        </g>
        <g
           id="g50"
           transform="translate(272.1102,83.2296)">
          <path
             d="M 0,0 V -7.107 L 54.873,4.556 v 7.107 z M 20.712,36.738 V 31.457 L 47.47,37.145 V 29.634 L 20.712,23.946 V 18.452 L 47.47,24.139 V 17.276 L 14.688,10.308 C 11.983,9.733 9.612,11.923 9.612,15.297 v 19.97 c 0,1.353 -0.21,1.741 -2.457,1.264 L 6.674,36.429 v 4.739 l 40.796,8.671 v -7.413 z"
             style="fill:#ffffff;fill-opacity:1;fill-rule:nonzero;stroke:none"
             id="path52" />
        </g>
        <g
           id="g54"
           transform="translate(207.0754,69.8582)">
          <path
             d="M 0,0 V -7.223 L 54.642,4.391 v 7.223 z m 50.372,26.494 -3.801,-8.786 c -10.343,-0.797 -18.592,6.457 -18.592,6.457 0,0 -8.332,-10.268 -19.179,-14.92 l -4.861,7.142 c 0,0 18.081,8.565 18.081,17.507 v 4.672 c 0,1.597 -1.032,1.59 -2.348,1.31 l -1.177,-0.25 v 4.462 l 13.691,2.91 V 36.975 c 0,-9.655 18.186,-10.481 18.186,-10.481"
             style="fill:#ffffff;fill-opacity:1;fill-rule:nonzero;stroke:none"
             id="path56" />
        </g>
        <g
           id="g58"
           transform="translate(153.8258,70.3287)">
          <path
             d="m 0,0 -6.511,-1.384 v 6.35 L 0,6.35 Z m 14.057,23.827 0.752,0.16 c 0.996,0.211 1.848,-0.09 1.848,-1.333 v -4.87 L 9.662,16.297 V 26.906 L -2.692,24.28 v -5.565 l 0.362,0.077 C -1.334,19.004 0,18.936 0,17.693 v -3.45 l -6.511,-1.384 v 10.609 l -12.155,-2.584 v -5.482 l 0.456,0.097 c 0.997,0.211 2.459,0.257 2.459,-0.987 V -7.514 c 0,-2.216 1.483,-3.418 3.62,-2.964 l 21.793,4.632 v 14.25 l 6.995,1.486 v -31.328 l 9.337,1.984 V 31.971 L 14.057,29.433 Z m 26.334,13.481 v -53.701 l -10.18,-2.164 v 46.264 c 0,1.312 -0.798,1.824 -1.856,1.599 l -1.017,-0.217 v 5.445 z"
             style="fill:#ffffff;fill-opacity:1;fill-rule:nonzero;stroke:none"
             id="path60" />
        </g>
        <g
           id="g62"
           transform="translate(126.5585,74.7339)">
          <path
             d="m 0,0 -5.845,-0.411 -2.649,4.619 -2.574,-5.73 -5.834,-2.071 4.254,-3.129 -0.957,-5.899 5.204,3.795 5.242,-1.575 -1.038,5.475 z"
             style="fill:#ffffff;fill-opacity:1;fill-rule:nonzero;stroke:none"
             id="path64" />
        </g>
        <g
           id="g66"
           transform="translate(45.976,73.9264)">
          <path
             d="M 0,0 31.061,6.602 V -1.015 L 13.903,-4.662 v -17.214 l 17.158,3.647 v -7.233 L 11.233,-29.677 C 5.232,-30.953 3,-29.3 3,-23.841 v 17.025 c 0,2.129 -0.31,2.658 -2.214,2.642 L 0,-4.18 Z m 51.775,15.968 v -50.953 l -9.614,-2.043 v 25.44 l -11.1,-2.36 v 8.434 l 11.1,2.359 V 7.19 c 0,1.212 -1.353,1.025 -2.341,0.815 L 39.432,7.923 v 5.421 z"
             style="fill:#ffffff;fill-opacity:1;fill-rule:nonzero;stroke:none"
             id="path68" />
        </g>
        <g
           id="g70"
           transform="translate(388.7773,232.4108)">
          <path
             d="m 0,0 c 0,0 -1.827,-15.737 -21.768,-36.387 l -10.209,8.36 c 10.217,8.532 21.993,27.815 21.993,44.803 v 0.48 c 0,2.04 -1.566,2.009 -3.516,1.591 l -1.971,-0.423 v 6.048 l 21.88,4.693 V 20.292 C 6.409,2.942 15.902,0.328 28.514,0.436 L 22.24,-9.52 C 3.074,-8.141 0,0 0,0 M 61.279,25.417 61.278,14.367 48.82,11.695 V -9.056 l -16.64,-3.569 v 47.812 c 0,2.154 -1.753,2.099 -3.751,1.671 l -2.006,-0.43 v 6.38 L 48.82,47.612 V 22.745 Z M 17.27,-45.021 c -2.271,0.004 -6.903,0.01 -6.903,7.192 0,7.443 5.893,12.89 12.3,13.009 6.577,0.123 7.039,-4.362 7.039,-7.098 0,-6.705 -5.731,-13.112 -12.436,-13.103 m 16.641,29.906 c -7.723,1.612 -17.665,1.613 -28.941,-6.34 -7.415,-5.229 -11.154,-11.5 -11.154,-18.608 0,-2.561 0.557,-5.092 1.664,-7.516 3.397,-7.438 8.428,-7.748 15.268,-8.169 11.178,-0.688 17.901,2.418 24.602,7.121 7.489,5.26 11.312,11.443 11.312,18.588 0,6.378 -3.247,12.94 -12.751,14.924"
             style="fill:#ffffff;fill-opacity:1;fill-rule:nonzero;stroke:none"
             id="path72" />
        </g>
        <g
           id="g74"
           transform="translate(317.4709,267.3789)">
          <path
             d="m 0,0 v -6.209 l 1.618,0.344 c 1.611,0.342 3.052,0.58 3.052,-1.557 v -79.073 l 16.27,3.458 V 4.451 Z m -19.06,-20.16 v -6.209 l 1.618,0.344 c 1.611,0.343 3.086,0.656 3.086,-1.481 V -45.6 l -13.646,-2.901 v -9.734 l 13.646,2.9 v -53.621 l 14.969,3.182 v 89.796 z m 2.115,-51.537 -6.979,-9.694 c -13.635,4.429 -17.317,11.384 -17.317,11.384 0,0 -5.164,-9.963 -15.987,-20.335 l -9.03,7.657 c 0,0 15.953,15.561 15.953,30.914 v 11.686 c 0,2.137 -1.692,2.061 -3.583,1.659 l -1.901,-0.404 v 6.752 l 20.895,4.441 v -21.498 c -0.001,-20.585 17.949,-22.562 17.949,-22.562"
             style="fill:#ffffff;fill-opacity:1;fill-rule:nonzero;stroke:none"
             id="path76" />
        </g>
        <g
           id="g78"
           transform="translate(181.513,196.6337)">
          <path
             d="M 0,0 V -10.064 L 51.526,0.888 V -8.918 L -8.189,-21.611 c -4.819,-1.024 -8.726,2.232 -8.726,7.272 v 11.683 c 0,2.022 -0.178,2.631 -4.698,1.67 l -0.856,-0.182 V 5.03 l 73.995,15.728 v -9.806 z m 51.526,-13.722 v -9.806 l -86.648,-18.417 v 9.806 z M 32.591,-55.063 3.403,-61.267 v 12.786 l 29.188,6.204 z m 17.19,26.36 -69.174,-14.703 v -6.733 l 0.857,0.183 c 4.528,0.962 4.706,0.221 4.706,-1.997 v -14.09 c 0,-4.536 3.516,-7.466 7.853,-6.544 l 49.649,10.553 c 4.338,0.922 7.854,5.347 7.854,9.883 v 21.994 c 0,1.008 -0.781,1.659 -1.745,1.454"
             style="fill:#ffffff;fill-opacity:1;fill-rule:nonzero;stroke:none"
             id="path80" />
        </g>
        <g
           id="g82"
           transform="translate(98.3169,226.5456)">
          <path
             d="m 0,0 v -6.66 l 1.908,0.404 c 1.899,0.403 3.638,0.771 3.638,-1.714 V -47.303 C 2.74,-48.95 -0.853,-50.334 -5.283,-51.272 L -31.52,-56.83 v 12.039 l 24.33,5.153 c 1.211,0.257 2.192,1.465 2.192,2.7 v 23.835 c 0,1.234 -0.981,2.027 -2.192,1.77 L -52.826,-21 V -31.293 L -21.7,-24.7 v -8.094 l -32.573,-6.899 v -6.772 l 0.769,0.163 c 1.553,0.329 3.856,0.817 3.856,-1.485 v -16.024 c 0,-3.95 3.141,-6.487 7.015,-5.666 l 34.26,7.257 c 6.426,1.361 11.091,3.012 13.919,4.503 v -37.712 l 17.645,3.737 V 4.912 Z"
             style="fill:#ffffff;fill-opacity:1;fill-rule:nonzero;stroke:none"
             id="path84" />
        </g>
        <g
           id="g86"
           transform="translate(495.1561,149.4212)">
          <path
             d="m 0,0 0.716,8.332 -2.622,-8.737 -2.065,-0.439 -1.146,7.936 -0.715,-8.332 -1.952,-0.415 0.857,9.975 3.049,0.648 1.159,-7.521 0.022,0.005 2.473,8.293 3.01,0.639 L 1.929,0.41 Z m -14.092,-2.995 0.705,8.205 -3.139,-0.667 0.151,1.763 8.305,1.765 -0.152,-1.763 -3.026,-0.643 -0.705,-8.206 z"
             style="fill:#000000;fill-opacity:1;fill-rule:nonzero;stroke:none"
             id="path88" />
        </g>
      </g>
    </g>
  </g>
</svg>
