<?xml version="1.0" encoding="UTF-8" standalone="no"?>
<!-- Created with Inkscape (http://www.inkscape.org/) -->

<svg
   version="1.1"
   id="svg2"
   width="666.66669"
   height="746.216"
   viewBox="0 0 666.66669 746.216"
   sodipodi:docname="Rhythm Tengoku Gold (リズム天国ゴールド) Logo (Wordmark).ai"
   xmlns:inkscape="http://www.inkscape.org/namespaces/inkscape"
   xmlns:sodipodi="http://sodipodi.sourceforge.net/DTD/sodipodi-0.dtd"
   xmlns="http://www.w3.org/2000/svg"
   xmlns:svg="http://www.w3.org/2000/svg">
  <defs
     id="defs6">
    <clipPath
       clipPathUnits="userSpaceOnUse"
       id="clipPath16">
      <path
         d="M 0,559.662 H 500 V 0 H 0 Z"
         id="path14" />
    </clipPath>
  </defs>
  <sodipodi:namedview
     id="namedview4"
     pagecolor="#ffffff"
     bordercolor="#000000"
     borderopacity="0.25"
     inkscape:showpageshadow="2"
     inkscape:pageopacity="0.0"
     inkscape:pagecheckerboard="0"
     inkscape:deskcolor="#d1d1d1" />
  <g
     id="g8"
     inkscape:groupmode="layer"
     inkscape:label="Rhythm Tengoku Gold (リズム天国ゴールド) Logo (Wordmark)"
     transform="matrix(1.3333333,0,0,-1.3333333,0,746.216)">
    <g
       id="g10">
      <g
         id="g12"
         clip-path="url(#clipPath16)">
        <g
           id="g18"
           transform="translate(436.9494,186.3412)">
          <path
             d="m 0,0 v 23.893 c 0,3.935 3.206,8.114 7.177,9.328 l 3.065,0.937 V 50.209 L -46.054,32.997 V 16.946 l 5.446,1.665 c 2.662,0.814 4.796,-0.673 4.796,-3.284 v -74.041 c 0,-3.934 -3.206,-8.113 -7.176,-9.327 l -3.066,-0.937 v -16.051 l 56.296,17.211 v 16.051 L 4.796,-53.432 C 2.134,-54.246 0,-52.758 0,-50.147 v 30.3 c 0,0 25.742,9.614 62.21,-21.953 V -7.212 C 34.818,10.978 0,0 0,0 m 56.252,21.512 c 5.072,1.551 7.927,6.92 6.376,11.993 -1.551,5.073 -6.92,7.928 -11.993,6.377 -5.072,-1.551 -7.927,-6.921 -6.376,-11.993 1.55,-5.073 6.92,-7.928 11.993,-6.377 M 22.275,21.168 c -1.55,5.073 1.304,10.442 6.377,11.993 5.073,1.551 10.442,-1.304 11.993,-6.377 1.551,-5.073 -1.304,-10.442 -6.377,-11.993 -5.072,-1.551 -10.442,1.304 -11.993,6.377"
             style="fill:#000000;fill-opacity:1;fill-rule:nonzero;stroke:none"
             id="path20" />
        </g>
        <g
           id="g22"
           transform="translate(338.144,136.0805)">
          <path
             d="m 0,0 c 0,0 -2.487,-36.157 -24.237,-47.738 v 73.164 c 10e-4,3.498 2.82,7.175 6.318,8.244 l 3.533,1.081 v 15.73 l -45.291,-13.847 10e-4,-116.172 29.516,9.024 c 47.427,14.5 57.833,49.48 64.062,80.879 z m -75.023,18.455 v -71.131 c 10e-4,-17.417 -14.131,-35.874 -31.546,-41.199 l -12.566,-3.842 v 21.057 c 8.421,2.575 15.204,11.457 15.204,19.88 l -0.001,44.469 c 0,3.498 -2.811,5.453 -6.317,4.381 l -3.354,-1.026 V 6.659 Z"
             style="fill:#000000;fill-opacity:1;fill-rule:nonzero;stroke:none"
             id="path24" />
        </g>
        <g
           id="g26"
           transform="translate(142.3172,89.6736)">
          <path
             d="M 0,0 V -21.494 L 65.812,-1.373 V 20.121 Z"
             style="fill:#000000;fill-opacity:1;fill-rule:nonzero;stroke:none"
             id="path28" />
        </g>
        <g
           id="g30"
           transform="translate(140.2332,157.9404)">
          <path
             d="m 0,0 c -1.567,5.127 -6.994,8.013 -12.121,6.445 -5.127,-1.567 -8.013,-6.994 -6.445,-12.121 1.567,-5.127 6.994,-8.013 12.121,-6.445 C -1.318,-10.554 1.567,-5.127 0,0 m -134.05,-76.64 64.347,19.673 c 7.877,2.408 14.204,-2.007 14.204,-9.859 v -46.006 l -78.551,-24.016 v -21.092 l 114.026,34.861 0.001,76.846 c 0,3.033 2.45,6.284 5.531,7.226 l 5.782,1.767 v 20.201 L -134.05,-55.36 Z m 93.558,64.26 c -1.568,5.127 1.318,10.554 6.445,12.122 5.127,1.567 10.554,-1.318 12.121,-6.445 1.568,-5.127 -1.318,-10.554 -6.445,-12.122 -5.127,-1.567 -10.554,1.318 -12.121,6.445"
             style="fill:#000000;fill-opacity:1;fill-rule:nonzero;stroke:none"
             id="path32" />
        </g>
        <g
           id="g34"
           transform="translate(346.4237,344.692)">
          <path
             d="m 0,0 -71.866,-21.972 c -3.864,-1.168 -6.167,-4.555 -6.166,-8.988 v -81.944 l 71.865,21.972 C -2.592,-89.86 0,-86.69 0,-81.944 Z M 28.98,24.533 V -95.822 l -135.978,-41.572 V -17.04 Z m -42.458,-94.687 v 11.515 l -8.16,-2.495 v -11.515 z m 0,-15.72 -51.063,-15.611 v 9.379 l 9.015,2.756 c 3.681,1.125 5.863,4.06 5.863,8.917 v 17.071 l -14.878,-4.549 v 10.135 l 14.878,4.549 v 17.48 c 0,2.029 -1.221,4.76 -6.84,3.042 l -8.038,-2.457 v 9.441 l 51.063,15.612 v -9.442 l -8.915,-2.725 c -3.809,-1.165 -5.963,-4.005 -5.963,-8.927 v -15.51 l 14.878,4.548 v -10.134 l -14.878,-4.549 v -19.041 c 0,-2.998 2.302,-4.451 6.94,-3.033 l 7.938,2.427 z"
             style="fill:#000000;fill-opacity:1;fill-rule:nonzero;stroke:none"
             id="path36" />
        </g>
        <g
           id="g38"
           transform="translate(340.442,365.8599)">
          <path
             d="m 0,0 c -4.091,2.417 -6.099,3.087 -11.491,4.946 -1.116,0.409 -2.492,1.153 -2.492,2.492 0,1.301 1.339,3.087 2.938,5.02 6.322,7.624 6.434,7.847 7.921,9.93 l 2.566,-1.19 C -4.054,16.772 -4.686,16.103 -9.967,10.078 -10.487,9.52 -10.822,9 -10.822,8.553 c 0,-0.669 1.116,-1.004 1.785,-1.19 C -5.69,6.397 0.037,4.277 2.306,2.864 Z"
             style="fill:#000000;fill-opacity:1;fill-rule:nonzero;stroke:none"
             id="path40" />
        </g>
        <g
           id="g42"
           transform="translate(276.3701,357.9741)">
          <path
             d="m 0,0 c -2.019,-2.717 -2.093,-4.662 -2.093,-5.14 0,-3.34 4.553,-2.019 8.077,-0.954 2.313,0.697 4.662,1.505 6.939,2.57 l 0.073,-2.864 c -0.808,-0.404 -2.46,-1.101 -6.131,-2.239 -4.662,-1.395 -6.681,-1.799 -8.701,-1.359 -1.652,0.368 -2.9,1.946 -2.9,3.965 0,2.387 1.065,4.296 2.79,6.976 z M 11.748,13.216 V 10.683 C 8.774,9.215 6.645,7.489 3.928,4.809 L 2.239,6.131 C 3.01,6.939 3.157,7.085 4.699,8.334 L 4.662,8.37 C 1.468,7.342 -1.799,6.314 -3.708,5.617 v 2.9 c 0.698,0.184 3.635,1.065 4.846,1.432 z M 16.153,8.04 c -1.028,1.835 -1.725,2.606 -2.092,3.01 l 1.541,1.469 c 1.028,-1.065 1.763,-2.276 2.166,-2.937 z M 12.812,5.176 c -0.807,1.359 -1.285,2.019 -2.239,3.011 l 1.652,1.542 C 13.18,8.848 13.95,7.709 14.464,6.755 Z"
             style="fill:#000000;fill-opacity:1;fill-rule:nonzero;stroke:none"
             id="path44" />
        </g>
        <g
           id="g46"
           transform="translate(163.1911,238.4849)">
          <path
             d="M 0,0 C 0.278,5.401 0.068,13.405 0.068,13.405 L 50.567,28.844 V 49.858 L 0.068,34.419 v 18.817 l 50.499,15.44 V 89.639 L -85.833,47.937 V 26.974 l 49.676,15.188 V 23.345 L -85.833,8.157 V -12.858 L -36.157,2.33 v -7.771 c 0,-24.885 -13.402,-34.952 -33.756,-41.19 l -15.92,-4.867 v -21.061 l 34.672,10.6 c 26.63,8.129 36.019,17.567 46.573,42.759 5.791,-2.302 21.523,-12.674 27.903,-19.989 l 35.86,10.963 C 48.445,-16.387 10.226,-2.003 0,0"
             style="fill:#000000;fill-opacity:1;fill-rule:nonzero;stroke:none"
             id="path48" />
        </g>
        <g
           id="g50"
           transform="translate(169.4261,344.4898)">
          <path
             d="m 0,0 c -0.511,-1.717 -2.703,-8.984 -3.104,-10.482 l 0.036,-0.036 c 0.475,0.548 1.388,1.534 2.995,2.045 3.725,1.096 3.871,-2.63 3.871,-4.675 v -1.095 c 0,-0.767 0,-3.068 2.009,-2.484 2.264,0.657 3.214,4.2 3.652,8.875 l 2.484,-0.073 c -0.621,-5.807 -1.936,-10.409 -6.355,-11.724 -4.383,-1.315 -4.419,3.105 -4.419,4.529 v 0.877 c 0,1.643 0.036,3.323 -1.753,2.775 -2.338,-0.694 -3.762,-3.469 -4.602,-6.209 -0.219,-0.949 -1.132,-5.003 -1.351,-5.843 l -2.703,0.036 c 1.388,4.858 4.711,17.275 6.282,23.155 z"
             style="fill:#000000;fill-opacity:1;fill-rule:nonzero;stroke:none"
             id="path52" />
        </g>
        <g
           id="g54"
           transform="translate(129.5124,331.4568)">
          <path
             d="m 0,0 v -2.91 c -0.626,-0.111 -1.216,-0.221 -2.394,-0.59 -4.016,-1.178 -10.536,-7.846 -10.573,-13.003 -0.037,-2.911 2.431,-3.095 4.089,-3.058 1.474,0.037 3.61,0.368 6.557,1.253 l -0.368,-3.205 c -2.395,-0.627 -5.157,-1.216 -7.478,-1.105 -2.579,0.073 -5.563,1.178 -5.563,5.12 0.037,2.137 0.921,6.668 6.631,11.936 l -0.037,0.036 c -5.231,-1.731 -5.857,-1.915 -11.272,-3.794 v 2.947 c 0.958,0.258 7.736,2.395 10.535,3.279 z"
             style="fill:#000000;fill-opacity:1;fill-rule:nonzero;stroke:none"
             id="path56" />
        </g>
        <g
           id="g58"
           transform="translate(429.1226,477.4937)">
          <path
             d="m 0,0 -5.294,-1.619 c -3.465,-1.069 -7.278,-0.038 -9.91,3.85 L -27.281,20.077 -62.382,9.346 -46.49,-14.214 -89.783,-27.449 -63.58,58.253 c 1.144,3.746 3.181,6.093 5.972,6.968 l 8.809,2.692 V 82.168 L -92.034,68.95 -123.145,-32.811 c -1.205,-3.941 -3.536,-5.919 -6.016,-6.677 l -5.36,-1.639 v -20.606 l 146.044,44.65 z"
             style="fill:#000000;fill-opacity:1;fill-rule:nonzero;stroke:none"
             id="path60" />
        </g>
        <g
           id="g62"
           transform="translate(247.9897,418.0515)">
          <path
             d="m 0,0 c 13.294,21.081 15.178,34.345 17.057,48.955 0.657,5.287 3.172,8.019 6.018,8.889 l 5.289,1.617 V 79.175 L -95.433,41.327 V 20.443 l 77.53,23.703 c -3.127,-48.242 -26.508,-68.961 -69.91,-82.231 l -7.62,-2.329 v -20.621 l 22.951,7.019 c 29.708,9.081 44.051,17.807 61.571,39.38 4.522,-2.197 10.5,-7.578 13.889,-16.312 l 34.939,10.682 C 32.999,-14.227 12.111,-1.598 0,0 m 30.979,85.507 c 4.992,1.552 7.763,6.748 6.212,11.644 -1.456,4.992 -6.749,7.763 -11.644,6.211 -4.992,-1.551 -7.667,-6.748 -6.212,-11.643 1.552,-4.992 6.748,-7.668 11.644,-6.212 m -33.532,-0.48 c -1.455,4.896 1.22,10.188 6.212,11.644 4.896,1.455 10.092,-1.316 11.644,-6.212 C 16.758,85.563 14.083,80.367 9.091,78.815 4.195,77.36 -1.001,80.131 -2.553,85.027"
             style="fill:#000000;fill-opacity:1;fill-rule:nonzero;stroke:none"
             id="path64" />
        </g>
        <g
           id="g66"
           transform="translate(48.1222,408.0515)">
          <path
             d="m 0,0 -2.913,-0.891 c -4.594,-1.404 -6.846,0.122 -6.846,3.011 v 31.432 c 0,4.223 1.535,7.432 5.807,8.738 L 0,43.498 v 15.29 L -48.122,44.076 V 28.787 l 2.922,0.892 c 4.608,1.409 6.837,-0.111 6.837,-2.983 V -4.735 c 0,-4.263 -1.537,-7.464 -5.799,-8.766 l -3.96,-1.211 v -15.26 L 0,-15.259 Z M 84.965,84.764 V 69.475 l -3.747,-1.146 c -4.319,-1.32 -5.791,-4.386 -5.791,-8.711 V -2.956 c 0,-20.477 -10.999,-36.188 -28.243,-41.4 l -85.181,-26.042 v 20.569 l 60.914,18.624 c 11.701,3.594 17.178,13.762 17.178,27.586 v 54.308 c 0,2.873 -2.241,4.383 -6.842,2.976 l -3.055,-0.934 v 15.29 z"
             style="fill:#000000;fill-opacity:1;fill-rule:nonzero;stroke:none"
             id="path68" />
        </g>
        <g
           id="g70"
           transform="translate(496.9379,94.8258)">
          <path
             d="M 0,0 V 12.985 L -3.026,-0.755 -6.304,-1.572 -9.258,10.676 V -2.308 l -3.098,-0.773 v 15.544 l 4.84,1.207 2.918,-11.602 0.036,0.009 2.847,13.039 4.777,1.191 V 0.763 Z M -22.369,-5.577 V 7.21 l -4.983,-1.243 v 2.748 l 13.182,3.287 V 9.254 L -18.974,8.056 V -4.731 Z"
             style="fill:#000000;fill-opacity:1;fill-rule:nonzero;stroke:none"
             id="path72" />
        </g>
      </g>
    </g>
  </g>
</svg>
