<?xml version="1.0" encoding="UTF-8" standalone="no"?>
<!-- Created with Inkscape (http://www.inkscape.org/) -->

<svg
   version="1.1"
   id="svg1"
   width="666.66669"
   height="280.77866"
   viewBox="0 0 666.66669 280.77866"
   sodipodi:docname="Rhythm World (리듬 세상) Logo (Wordmark).ai"
   xmlns:inkscape="http://www.inkscape.org/namespaces/inkscape"
   xmlns:sodipodi="http://sodipodi.sourceforge.net/DTD/sodipodi-0.dtd"
   xmlns="http://www.w3.org/2000/svg"
   xmlns:svg="http://www.w3.org/2000/svg">
  <defs
     id="defs1">
    <clipPath
       clipPathUnits="userSpaceOnUse"
       id="clipPath2">
      <path
         d="M 0,210.584 H 500 V 0 H 0 Z"
         transform="translate(-417.40901,-135.16991)"
         id="path2" />
    </clipPath>
    <clipPath
       clipPathUnits="userSpaceOnUse"
       id="clipPath4">
      <path
         d="M 0,210.584 H 500 V 0 H 0 Z"
         transform="translate(-337.60341,-204.92771)"
         id="path4" />
    </clipPath>
    <clipPath
       clipPathUnits="userSpaceOnUse"
       id="clipPath6">
      <path
         d="M 0,210.584 H 500 V 0 H 0 Z"
         transform="translate(-166.4544,-96.5586)"
         id="path6" />
    </clipPath>
    <clipPath
       clipPathUnits="userSpaceOnUse"
       id="clipPath8">
      <path
         d="M 0,210.584 H 500 V 0 H 0 Z"
         transform="translate(-75.043802,-155.7192)"
         id="path8" />
    </clipPath>
    <clipPath
       clipPathUnits="userSpaceOnUse"
       id="clipPath10">
      <path
         d="M 0,210.584 H 500 V 0 H 0 Z"
         transform="translate(-496.94811,-41.438504)"
         id="path10" />
    </clipPath>
  </defs>
  <sodipodi:namedview
     id="namedview1"
     pagecolor="#ffffff"
     bordercolor="#000000"
     borderopacity="0.25"
     inkscape:showpageshadow="2"
     inkscape:pageopacity="0.0"
     inkscape:pagecheckerboard="0"
     inkscape:deskcolor="#d1d1d1">
    <inkscape:page
       x="0"
       y="0"
       inkscape:label="1"
       id="page1"
       width="666.66669"
       height="280.77866"
       margin="0"
       bleed="0" />
  </sodipodi:namedview>
  <g
     id="layer-MC0"
     inkscape:groupmode="layer"
     inkscape:label="Layer 1">
    <path
       id="path1"
       d="m 0,0 c 0,0 -2.463,-20.99 -29.339,-48.1 l -13.76,11.427 c 13.772,11.152 29.642,36.636 29.642,59.344 v 0.641 c 0,2.728 -2.11,2.725 -4.738,2.214 l -2.658,-0.516 v 8.083 L 8.638,38.825 V 26.966 C 8.638,3.774 21.433,0.045 38.432,-0.121 L 29.976,-13.275 C 4.144,-10.958 0,0 0,0 M 82.591,32.46 V 17.691 L 65.8,14.427 V -13.31 l -22.428,-4.36 v 63.909 c 0,2.878 -2.363,2.849 -5.055,2.326 l -2.705,-0.526 v 8.529 L 65.8,62.436 V 29.197 Z M 23.277,-60.604 c -3.061,0.06 -9.304,0.183 -9.304,9.783 0,9.948 7.943,17.085 16.578,17.086 8.864,10e-4 9.487,-6.006 9.487,-9.662 0,-8.962 -7.725,-17.385 -16.761,-17.207 m 22.429,39.562 c -8.541,2.141 -23.723,2.464 -39.008,-7.759 -13.182,-8.817 -17.828,-24.323 -13.146,-34.979 7.176,-16.332 35.939,-14.208 54.094,-2.092 10.143,6.77 15.245,15.018 15.245,24.567 0,8.526 -4.449,17.07 -17.185,20.263"
       style="fill:#000000;fill-opacity:1;fill-rule:nonzero;stroke:none"
       transform="matrix(1.3333333,0,0,-1.3333333,556.54533,100.55213)"
       clip-path="url(#clipPath2)" />
    <path
       id="path3"
       d="m 0,0 v -8.361 l 2.249,0.437 c 2.239,0.435 4.24,0.732 4.24,-2.146 v -106.484 l 22.611,4.395 V 5.657 Z m -26.486,-26.841 v -8.361 l 2.249,0.437 c 2.239,0.435 4.289,0.834 4.289,-2.045 v -24.366 l -18.965,-3.686 v -13.109 l 18.965,3.686 v -72.21 l 20.801,4.044 v 120.924 z m 2.94,-69.437 -9.699,-12.942 c -18.947,6.185 -24.065,15.61 -24.065,15.61 0,0 -7.175,-13.334 -22.216,-27.126 l -12.548,10.456 c 0,0 22.169,20.699 22.169,41.374 v 15.737 c 0,2.878 -2.351,2.803 -4.98,2.292 l -2.64,-0.514 v 9.093 l 29.035,5.644 v -28.951 c 0,-27.721 24.944,-30.673 24.944,-30.673"
       style="fill:#000000;fill-opacity:1;fill-rule:nonzero;stroke:none"
       transform="matrix(1.3333333,0,0,-1.3333333,450.13787,7.5417333)"
       clip-path="url(#clipPath4)" />
    <path
       id="path5"
       d="M 0,0 V -13.368 L 71.589,0.547 v -13.026 l -82.966,-16.127 c -6.696,-1.302 -12.124,3.071 -12.124,9.766 v 15.521 c 0,2.685 -0.247,3.497 -6.527,2.276 l -1.19,-0.231 V 6.959 L 71.589,26.943 V 13.916 Z m 71.589,-18.861 v -13.028 l -120.386,-23.4 v 13.027 z M 45.281,-73.547 4.729,-81.43 v 16.986 l 40.552,7.882 z m 23.883,34.806 -96.108,-18.682 v -8.943 l 1.192,0.231 c 6.289,1.223 6.537,0.238 6.537,-2.71 v -18.717 c 0,-6.026 4.885,-9.961 10.911,-8.791 l 68.981,13.41 c 6.027,1.171 10.912,7.005 10.912,13.032 v 29.217 c 0,1.339 -1.086,2.214 -2.425,1.953"
       style="fill:#000000;fill-opacity:1;fill-rule:nonzero;stroke:none"
       transform="matrix(1.3333333,0,0,-1.3333333,221.9392,152.03387)"
       clip-path="url(#clipPath6)" />
    <path
       id="path7"
       d="m 0,0 v -9.032 l 2.638,0.513 c 2.626,0.51 5.03,0.977 5.03,-2.392 v -53.343 c -3.879,-2.182 -8.848,-3.993 -14.972,-5.183 l -36.279,-7.052 v 16.326 l 33.642,6.54 c 1.674,0.325 3.031,1.946 3.031,3.62 v 32.325 c 0,1.674 -1.357,2.767 -3.031,2.442 l -63.102,-12.266 v -13.96 l 43.038,8.366 v -10.977 l -45.039,-8.755 v -9.183 l 1.064,0.206 c 2.147,0.418 5.331,1.037 5.331,-2.085 v -21.732 c 0,-5.356 4.343,-8.855 9.699,-7.814 l 47.372,9.209 c 8.887,1.727 15.336,3.879 19.246,5.85 v -51.146 l 24.398,4.742 V 6.233 Z"
       style="fill:#000000;fill-opacity:1;fill-rule:nonzero;stroke:none"
       transform="matrix(1.3333333,0,0,-1.3333333,100.0584,73.153067)"
       clip-path="url(#clipPath8)" />
    <path
       id="path9"
       d="m 0,0 v 11.989 l -3.016,-12.7 -3.266,-0.77 -2.944,11.295 v -11.99 l -3.087,-0.728 v 14.353 l 4.823,1.138 2.909,-10.699 0.035,0.008 2.837,12.054 4.761,1.122 V 0.72 Z M -22.291,-5.257 V 6.551 L -27.258,5.38 v 2.537 l 13.137,3.098 V 8.478 L -18.909,7.349 V -4.459 Z"
       style="fill:#000000;fill-opacity:1;fill-rule:nonzero;stroke:none"
       transform="matrix(1.3333333,0,0,-1.3333333,662.59747,225.52733)"
       clip-path="url(#clipPath10)" />
  </g>
</svg>
