<?xml version="1.0" encoding="UTF-8" standalone="no"?>
<!-- Created with Inkscape (http://www.inkscape.org/) -->

<svg
   version="1.1"
   id="svg2"
   width="666.66669"
   height="575.90131"
   viewBox="0 0 666.66669 575.90131"
   sodipodi:docname="Rhythm Heaven Logo with Tagline (American).ai"
   xmlns:inkscape="http://www.inkscape.org/namespaces/inkscape"
   xmlns:sodipodi="http://sodipodi.sourceforge.net/DTD/sodipodi-0.dtd"
   xmlns="http://www.w3.org/2000/svg"
   xmlns:svg="http://www.w3.org/2000/svg">
  <defs
     id="defs6">
    <clipPath
       clipPathUnits="userSpaceOnUse"
       id="clipPath16">
      <path
         d="M 0,431.926 H 500 V 0 H 0 Z"
         id="path14" />
    </clipPath>
  </defs>
  <sodipodi:namedview
     id="namedview4"
     pagecolor="#ffffff"
     bordercolor="#000000"
     borderopacity="0.25"
     inkscape:showpageshadow="2"
     inkscape:pageopacity="0.0"
     inkscape:pagecheckerboard="0"
     inkscape:deskcolor="#d1d1d1" />
  <g
     id="g8"
     inkscape:groupmode="layer"
     inkscape:label="Rhythm Heaven Logo with Tagline (American)"
     transform="matrix(1.3333333,0,0,-1.3333333,0,575.90133)">
    <g
       id="g10">
      <g
         id="g12"
         clip-path="url(#clipPath16)">
        <g
           id="g18"
           transform="translate(154.7782,45.4036)">
          <path
             d="M 0,0 C 0,-1.576 -0.769,-2.537 -2.268,-2.883 L -2.999,-3.037 C -4.113,-3.306 -4.959,-3.767 -5.536,-4.498 -6.112,-5.19 -6.42,-6.151 -6.42,-7.266 v -22.143 c 0,-2.345 -1.192,-3.806 -3.537,-4.383 l -3.498,-0.807 c -2.384,-0.538 -3.614,0.346 -3.614,2.729 v 22.144 c 0,1.153 -0.307,1.922 -0.884,2.383 -0.577,0.423 -1.422,0.538 -2.537,0.269 l -0.808,-0.192 c -1.537,-0.346 -2.268,0.269 -2.268,1.807 v 0.961 c 0,0.692 0.192,1.307 0.538,1.807 0.346,0.538 0.962,0.884 1.73,1.076 l 19.03,4.383 C -1.422,2.96 -0.846,2.883 -0.5,2.537 -0.154,2.191 0,1.653 0,0.961 Z"
             style="fill:#130c0e;fill-opacity:1;fill-rule:nonzero;stroke:none"
             id="path20" />
        </g>
        <g
           id="g22"
           transform="translate(170.2324,26.4511)">
          <path
             d="M 0,0 C 0,1.076 -0.269,1.922 -0.846,2.537 -1.384,3.152 -2.537,3.268 -4.306,2.845 -5.19,2.653 -5.92,2.384 -6.497,2.038 -7.074,1.692 -7.535,1.307 -7.842,0.884 -8.15,0.461 -8.381,0 -8.496,-0.461 c -0.115,-0.5 -0.154,-1 -0.154,-1.538 0,-0.538 0.039,-1 0.154,-1.461 0.115,-0.423 0.346,-0.769 0.654,-1.038 0.307,-0.269 0.768,-0.423 1.345,-0.5 0.577,-0.076 1.307,0 2.191,0.231 0.885,0.192 1.577,0.461 2.153,0.769 0.538,0.307 1,0.692 1.307,1.115 0.308,0.423 0.538,0.884 0.654,1.345 C -0.038,-1.038 0,-0.538 0,0 M 5.151,-4.152 C 5.151,-5.267 4.844,-6.189 4.267,-6.92 3.691,-7.65 2.845,-8.15 1.73,-8.381 l -11.225,-2.575 c -3.23,-0.731 -5.613,-0.615 -7.113,0.384 -1.499,1 -2.268,3.076 -2.268,6.189 v 0.231 c 0,1.653 0.193,3.037 0.539,4.229 0.346,1.192 0.884,2.191 1.614,3.037 0.692,0.846 1.576,1.499 2.614,1.999 1.038,0.5 2.268,0.923 3.691,1.269 l 2.345,0.538 c 0.923,0.192 1.615,0.576 2.153,1.076 0.499,0.5 0.769,1.115 0.769,1.884 0,0.923 -0.27,1.499 -0.769,1.807 -0.5,0.269 -1.23,0.307 -2.153,0.115 l -7.535,-1.73 c -1.538,-0.346 -2.307,0.269 -2.307,1.807 v 0.923 c 0,0.692 0.154,1.268 0.5,1.768 0.346,0.5 0.923,0.846 1.769,1.038 l 11.494,2.653 c 6.189,1.422 9.265,-1 9.265,-7.305 V -4.152 Z"
             style="fill:#130c0e;fill-opacity:1;fill-rule:nonzero;stroke:none"
             id="path24" />
        </g>
        <g
           id="g26"
           transform="translate(192.4911,42.2897)">
          <path
             d="M 0,0 C 0,1.23 -0.308,2.037 -0.961,2.422 -1.576,2.806 -2.422,2.883 -3.46,2.653 L -4.844,2.345 C -5.959,2.076 -6.804,1.615 -7.381,0.884 -7.958,0.154 -8.265,-0.769 -8.265,-1.884 v -6.112 c 0,-1.154 0.307,-1.922 0.884,-2.384 0.577,-0.423 1.422,-0.538 2.537,-0.269 l 1.384,0.308 c 1.038,0.23 1.845,0.692 2.499,1.422 C -0.346,-8.227 0,-7.266 0,-6.112 Z m 10.149,-7.496 c 0,-3.114 -0.769,-5.652 -2.268,-7.574 -1.538,-1.922 -3.921,-3.229 -7.151,-3.998 l -1.307,-0.307 c -0.999,-0.231 -1.691,-0.654 -2.114,-1.231 -0.423,-0.576 -0.615,-1.345 -0.615,-2.191 l 0.038,-2.23 c 0.039,-1.191 -0.269,-2.191 -0.884,-2.883 -0.615,-0.692 -1.499,-1.192 -2.652,-1.461 l -3.614,-0.845 c -2.384,-0.539 -3.537,0.346 -3.537,2.729 v 23.374 c 0,6.343 3.114,10.226 9.38,11.648 l 5.382,1.23 c 3.23,0.731 5.613,0.5 7.112,-0.73 1.5,-1.231 2.269,-3.422 2.269,-6.613 v -8.918 z"
             style="fill:#130c0e;fill-opacity:1;fill-rule:nonzero;stroke:none"
             id="path28" />
        </g>
        <g
           id="g30"
           transform="translate(225.5908,63.8564)">
          <path
             d="m 0,0 c 0,-0.846 -0.192,-1.538 -0.615,-2.153 -0.423,-0.576 -1.115,-0.999 -2.114,-1.23 l -0.923,-0.192 c -1,-0.231 -1.692,-0.154 -2.076,0.269 -0.385,0.384 -0.615,1.038 -0.615,1.845 V -0.5 c 0,0.884 0.23,1.615 0.692,2.192 0.461,0.576 1.115,0.961 1.999,1.191 l 0.923,0.192 c 0.884,0.193 1.537,0.116 2.037,-0.23 0.461,-0.385 0.73,-1 0.73,-1.884 L 0.038,0 Z m 0,-29.217 c 0,-2.345 -1.192,-3.806 -3.537,-4.382 l -3.613,-0.846 c -2.384,-0.538 -3.537,0.346 -3.537,2.729 v 20.644 c 0,2.499 1.268,4.075 3.767,4.652 l 3.153,0.73 C -1.269,-5.113 0,-6.074 0,-8.611 Z"
             style="fill:#130c0e;fill-opacity:1;fill-rule:nonzero;stroke:none"
             id="path32" />
        </g>
        <g
           id="g34"
           transform="translate(252.6165,40.1753)">
          <path
             d="m 0,0 c 0,-0.884 -0.231,-1.615 -0.73,-2.191 -0.5,-0.577 -1.192,-1 -2.076,-1.192 l -0.462,-0.115 c -0.845,-0.193 -1.499,-0.154 -1.999,0.153 -0.5,0.308 -0.73,0.962 -0.73,1.961 v 16.646 c 0,1.23 -0.308,2.037 -0.961,2.422 -0.615,0.384 -1.461,0.461 -2.499,0.231 l -0.615,-0.154 c -1.115,-0.269 -1.961,-0.731 -2.499,-1.461 -0.577,-0.73 -0.846,-1.653 -0.846,-2.73 V -2.268 c 0,-2.345 -1.191,-3.806 -3.537,-4.383 l -3.613,-0.845 c -2.384,-0.539 -3.537,0.346 -3.537,2.729 v 20.875 c 0,2.345 1.192,3.806 3.537,4.382 l 11.225,2.576 c 3.229,0.73 5.613,0.538 7.112,-0.654 1.5,-1.191 2.268,-3.344 2.268,-6.496 L 0.038,0 Z"
             style="fill:#130c0e;fill-opacity:1;fill-rule:nonzero;stroke:none"
             id="path36" />
        </g>
        <g
           id="g38"
           transform="translate(279.3346,53.2845)">
          <path
             d="m 0,0 c 0,-3.114 -0.769,-5.651 -2.268,-7.535 -1.499,-1.884 -3.883,-3.229 -7.112,-3.96 l -5.382,-1.23 c -6.267,-1.461 -9.38,0.961 -9.38,7.151 v 21.836 c 0,2.383 1.191,3.882 3.536,4.421 l 3.614,0.845 c 1.153,0.269 2.038,0.154 2.653,-0.346 0.615,-0.499 0.922,-1.499 0.845,-2.96 -0.076,-1.807 0.846,-2.499 2.73,-2.037 l 7.419,1.73 c 1,0.23 1.692,0.115 2.115,-0.308 0.423,-0.423 0.615,-1.076 0.615,-1.922 0,-1.922 -0.923,-3.076 -2.73,-3.498 l -10.11,-2.345 c -1.692,-0.385 -2.883,-1.077 -3.614,-2.115 -0.73,-1.038 -1.076,-2.268 -1.076,-3.729 v -8.803 c 0,-1.115 0.269,-1.884 0.846,-2.345 0.576,-0.462 1.422,-0.577 2.498,-0.308 l 0.615,0.154 c 1.038,0.23 1.846,0.692 2.461,1.384 0.615,0.692 0.922,1.614 0.922,2.845 v 6.65 c 0,1 0.231,1.73 0.731,2.268 0.5,0.5 1.153,0.885 1.999,1.077 l 5.19,1.192 c 0.884,0.192 1.576,0.115 2.076,-0.193 0.499,-0.346 0.73,-0.961 0.73,-1.845 l 0,-6.074 z"
             style="fill:#130c0e;fill-opacity:1;fill-rule:nonzero;stroke:none"
             id="path40" />
        </g>
        <g
           id="g42"
           transform="translate(294.981,67.4317)">
          <path
             d="M 0,0 C 0,1.23 -0.308,2.037 -0.961,2.422 -1.576,2.806 -2.422,2.883 -3.46,2.653 L -4.959,2.307 C -6.036,2.076 -6.843,1.576 -7.458,0.846 -8.035,0.115 -8.342,-0.807 -8.342,-1.922 v -6.113 c 0,-2.268 1.115,-3.19 3.383,-2.652 l 1.499,0.346 c 1.038,0.23 1.845,0.692 2.499,1.384 C -0.346,-8.265 0,-7.343 0,-6.113 Z m 9.841,-7.689 c 0,-3.152 -0.73,-5.689 -2.191,-7.573 -1.461,-1.884 -3.844,-3.191 -7.112,-3.96 l -5.42,-1.268 c -6.228,-1.423 -9.304,0.961 -9.304,7.227 v 9.15 c 0,6.304 3.114,10.149 9.304,11.571 l 5.42,1.269 C 3.767,9.457 6.151,9.226 7.612,8.035 9.111,6.804 9.841,4.613 9.841,1.461 Z"
             style="fill:#130c0e;fill-opacity:1;fill-rule:nonzero;stroke:none"
             id="path44" />
        </g>
        <g
           id="g46"
           transform="translate(342.0357,68.8925)">
          <path
             d="m 0,0 c 0,-3.114 -0.769,-5.651 -2.268,-7.535 -1.499,-1.884 -3.883,-3.229 -7.112,-3.96 l -5.382,-1.23 c -6.267,-1.461 -9.38,0.961 -9.38,7.151 v 21.836 c 0,2.383 1.191,3.882 3.536,4.421 l 3.614,0.845 c 1.153,0.269 2.038,0.154 2.653,-0.346 0.615,-0.499 0.922,-1.499 0.845,-2.96 -0.076,-1.807 0.846,-2.499 2.73,-2.037 l 7.419,1.73 c 1,0.23 1.692,0.115 2.115,-0.308 0.423,-0.423 0.615,-1.076 0.615,-1.922 0,-1.922 -0.923,-3.076 -2.73,-3.498 l -10.11,-2.345 c -1.692,-0.385 -2.883,-1.077 -3.614,-2.115 -0.73,-1.038 -1.076,-2.268 -1.076,-3.729 v -8.803 c 0,-1.115 0.269,-1.884 0.846,-2.345 0.576,-0.462 1.422,-0.577 2.498,-0.308 l 0.615,0.154 c 1.038,0.23 1.846,0.692 2.461,1.384 0.615,0.692 0.922,1.614 0.922,2.845 v 6.65 c 0,1 0.231,1.73 0.731,2.268 0.5,0.5 1.153,0.885 1.999,1.077 l 5.19,1.192 c 0.884,0.192 1.576,0.115 2.076,-0.193 0.499,-0.346 0.73,-0.961 0.73,-1.845 l 0,-6.074 z"
             style="fill:#130c0e;fill-opacity:1;fill-rule:nonzero;stroke:none"
             id="path48" />
        </g>
        <g
           id="g50"
           transform="translate(367.908,69.5076)">
          <path
             d="M 0,0 C 0,-2.345 -1.192,-3.806 -3.537,-4.383 L -7.074,-5.19 c -2.383,-0.538 -3.613,0.346 -3.613,2.73 l 0.038,16.03 c 0,1.115 -0.307,1.884 -0.884,2.346 -0.577,0.461 -1.422,0.538 -2.537,0.307 l -0.615,-0.154 c -1.038,-0.23 -1.846,-0.692 -2.499,-1.384 -0.615,-0.692 -0.961,-1.614 -0.961,-2.844 v -16.8 c 0,-1 -0.231,-1.769 -0.731,-2.268 -0.499,-0.539 -1.153,-0.885 -1.999,-1.077 l -0.461,-0.115 c -0.884,-0.192 -1.576,-0.115 -2.076,0.231 -0.5,0.346 -0.73,0.999 -0.73,1.845 v 28.409 c 0,2.384 1.191,3.883 3.536,4.421 l 3.614,0.846 c 2.345,0.538 3.537,-0.346 3.498,-2.691 v -0.5 c -0.038,-0.884 0.154,-1.537 0.615,-1.922 0.423,-0.384 1.154,-0.461 2.153,-0.23 l 1.384,0.307 c 3.229,0.731 5.613,0.538 7.112,-0.653 1.5,-1.192 2.268,-3.345 2.268,-6.497 L 0.038,0 Z"
             style="fill:#130c0e;fill-opacity:1;fill-rule:nonzero;stroke:none"
             id="path52" />
        </g>
        <g
           id="g54"
           transform="translate(384.7847,89.229)">
          <path
             d="M 0,0 C 0,1.076 -0.269,1.922 -0.846,2.537 -1.384,3.152 -2.537,3.268 -4.306,2.845 -5.19,2.653 -5.92,2.383 -6.497,2.037 -7.074,1.691 -7.496,1.307 -7.804,0.923 -8.112,0.5 -8.304,0.077 -8.419,-0.423 c -0.115,-0.5 -0.154,-0.999 -0.154,-1.538 0,-0.538 0.039,-0.999 0.154,-1.46 0.115,-0.423 0.307,-0.769 0.615,-1.038 0.308,-0.27 0.73,-0.423 1.307,-0.5 0.577,-0.077 1.307,0 2.191,0.23 0.885,0.193 1.577,0.462 2.153,0.769 0.538,0.308 1,0.692 1.307,1.115 0.308,0.423 0.538,0.884 0.654,1.346 C -0.038,-1.038 0,-0.538 0,0 M 9.995,1.961 C 9.995,0.269 9.803,-1.153 9.457,-2.307 9.111,-3.46 8.573,-4.459 7.842,-5.267 7.15,-6.074 6.266,-6.728 5.228,-7.227 4.19,-7.727 2.96,-8.15 1.538,-8.496 l -2.345,-0.538 c -1.999,-0.461 -2.96,-1.461 -2.96,-2.96 0,-0.923 0.269,-1.5 0.768,-1.769 0.5,-0.269 1.231,-0.269 2.192,-0.077 l 7.535,1.73 c 0.73,0.154 1.268,0.077 1.691,-0.23 0.385,-0.346 0.615,-0.846 0.615,-1.576 v -0.923 c 0,-0.692 -0.192,-1.269 -0.538,-1.768 -0.346,-0.5 -0.961,-0.846 -1.73,-1.038 l -11.495,-2.653 c -6.189,-1.422 -9.264,0.999 -9.264,7.227 v 9.726 c 0,3.153 0.73,5.613 2.229,7.305 1.5,1.73 3.845,2.96 7.074,3.69 L 0.615,8.88 C 3.844,9.611 6.228,9.495 7.727,8.458 9.226,7.42 9.995,5.344 9.995,2.191 Z"
             style="fill:#130c0e;fill-opacity:1;fill-rule:nonzero;stroke:none"
             id="path56" />
        </g>
        <g
           id="g58"
           transform="translate(319.431,8.5749)">
          <path
             d="M 0,0 C 0,-2.345 -1.192,-3.806 -3.537,-4.383 L -7.074,-5.19 c -2.383,-0.538 -3.613,0.346 -3.613,2.73 v 4.959 c 0,1.23 -0.269,1.999 -0.808,2.306 -0.538,0.308 -1.345,0.346 -2.383,0.116 -1,-0.231 -1.692,-0.116 -2.076,0.307 -0.384,0.423 -0.577,1.038 -0.577,1.846 v 0.499 c 0,0.885 0.231,1.615 0.731,2.23 0.461,0.615 1.153,1 2.037,1.23 l 4.844,1.115 c 1.115,0.269 1.884,0.654 2.307,1.153 0.423,0.539 0.653,1.423 0.653,2.73 v 0.384 c 0,1.231 -0.307,1.923 -0.961,2.153 -0.653,0.231 -1.461,0.192 -2.499,-0.038 l -5.382,-1.23 c -1.115,-0.269 -1.96,-0.731 -2.499,-1.461 -0.576,-0.731 -0.845,-1.653 -0.845,-2.73 V -4.959 c 0,-0.884 -0.231,-1.615 -0.731,-2.191 -0.499,-0.577 -1.191,-1 -2.076,-1.192 l -0.461,-0.115 c -0.846,-0.193 -1.499,-0.154 -1.999,0.153 -0.5,0.308 -0.73,0.961 -0.73,1.961 V 16.3 c 0,6.266 3.113,10.111 9.38,11.533 l 5.382,1.23 c 3.229,0.731 5.612,0.538 7.112,-0.653 C -0.769,27.218 0,25.027 0,21.874 V 16.569 C 0,15.147 -0.308,13.878 -0.961,12.725 -1.576,11.572 -2.46,10.803 -3.575,10.38 -2.46,10.534 -1.615,10.111 -0.961,9.188 -0.346,8.265 0,7.112 0,5.767 Z"
             style="fill:#130c0e;fill-opacity:1;fill-rule:nonzero;stroke:none"
             id="path60" />
        </g>
        <g
           id="g62"
           transform="translate(345.9953,15.1487)">
          <path
             d="M 0,0 C 0,-2.345 -1.192,-3.806 -3.537,-4.383 L -7.074,-5.19 c -2.383,-0.538 -3.613,0.346 -3.613,2.73 l 0.038,16.03 c 0,1.115 -0.307,1.884 -0.884,2.346 -0.577,0.461 -1.422,0.538 -2.537,0.307 l -0.615,-0.154 c -1.038,-0.23 -1.846,-0.692 -2.499,-1.384 -0.615,-0.692 -0.961,-1.614 -0.961,-2.844 v -16.8 c 0,-1 -0.231,-1.769 -0.731,-2.307 -0.499,-0.538 -1.153,-0.884 -1.999,-1.076 l -0.461,-0.116 c -0.884,-0.192 -1.576,-0.115 -2.076,0.231 -0.5,0.346 -0.73,1 -0.73,1.845 v 28.41 c 0,2.383 1.191,3.883 3.536,4.421 l 3.614,0.846 c 2.345,0.538 3.537,-0.346 3.498,-2.691 v -0.5 c -0.038,-0.884 0.154,-1.538 0.615,-1.922 0.423,-0.385 1.154,-0.462 2.153,-0.231 l 1.384,0.308 c 3.229,0.73 5.613,0.538 7.112,-0.654 1.5,-1.192 2.268,-3.344 2.268,-6.497 L 0.038,0 Z"
             style="fill:#130c0e;fill-opacity:1;fill-rule:nonzero;stroke:none"
             id="path64" />
        </g>
        <g
           id="g66"
           transform="translate(372.9057,27.2968)">
          <path
             d="m 0,0 c 0,-1.961 -0.269,-3.614 -0.846,-5.074 -0.538,-1.231 -1.192,-2.23 -2.037,-3.038 -0.808,-0.807 -1.769,-1.499 -2.884,-2.152 -0.422,-0.231 -0.73,-0.654 -0.884,-1.231 -0.153,-0.576 -0.269,-1.191 -0.269,-1.845 v -2.499 c 0,-2.383 -1.192,-3.882 -3.537,-4.421 l -3.613,-0.845 c -2.345,-0.539 -3.537,0.384 -3.537,2.768 v 2.498 c 0,1.577 -0.5,2.461 -1.499,2.691 -0.961,0.154 -1.769,0.462 -2.461,0.885 -0.692,0.422 -1.23,1.076 -1.653,1.883 -0.615,1.192 -0.922,2.768 -0.922,4.767 v 15.916 c 0,0.884 0.23,1.615 0.73,2.191 0.5,0.577 1.192,0.961 2.076,1.153 l 0.461,0.116 c 0.846,0.192 1.5,0.154 1.999,-0.154 0.5,-0.269 0.731,-0.923 0.731,-1.922 V -5.19 c 0,-1.23 0.307,-1.999 0.961,-2.383 0.615,-0.385 1.461,-0.423 2.499,-0.192 l 0.615,0.153 c 1.115,0.269 1.96,0.731 2.537,1.461 0.577,0.731 0.884,1.615 0.884,2.73 v 15.954 c 0,2.383 1.192,3.882 3.537,4.421 l 3.537,0.807 c 2.345,0.538 3.537,-0.385 3.537,-2.768 L -0.038,0 Z"
             style="fill:#130c0e;fill-opacity:1;fill-rule:nonzero;stroke:none"
             id="path68" />
        </g>
        <g
           id="g70"
           transform="translate(399.2778,33.8322)">
          <path
             d="m 0,0 c 0,-3.114 -0.769,-5.651 -2.268,-7.535 -1.499,-1.884 -3.883,-3.229 -7.112,-3.96 l -5.382,-1.23 c -6.267,-1.461 -9.38,0.923 -9.38,7.151 v 21.836 c 0,2.383 1.191,3.882 3.536,4.421 l 3.614,0.845 c 1.153,0.269 2.038,0.154 2.653,-0.346 0.615,-0.499 0.922,-1.499 0.845,-2.96 -0.076,-1.807 0.846,-2.499 2.73,-2.037 l 7.419,1.73 c 1,0.23 1.692,0.115 2.115,-0.308 0.423,-0.423 0.615,-1.076 0.615,-1.922 0,-1.922 -0.923,-3.076 -2.73,-3.498 l -10.11,-2.345 c -1.692,-0.385 -2.883,-1.077 -3.614,-2.115 -0.73,-1.038 -1.076,-2.268 -1.076,-3.729 v -8.803 c 0,-1.115 0.269,-1.884 0.846,-2.345 0.576,-0.462 1.422,-0.577 2.498,-0.308 l 0.615,0.154 c 1.038,0.23 1.846,0.692 2.461,1.384 0.615,0.692 0.922,1.614 0.922,2.845 v 6.65 c 0,1 0.231,1.73 0.731,2.268 0.5,0.5 1.153,0.885 1.999,1.077 l 5.19,1.192 c 0.884,0.192 1.576,0.115 2.076,-0.193 0.5,-0.346 0.73,-0.961 0.73,-1.845 l 0,-6.074 z"
             style="fill:#130c0e;fill-opacity:1;fill-rule:nonzero;stroke:none"
             id="path72" />
        </g>
        <g
           id="g74"
           transform="translate(425.304,34.332)">
          <path
             d="M 0,0 C 0,-2.345 -1.192,-3.806 -3.537,-4.383 L -7.074,-5.19 c -2.383,-0.538 -3.613,0.346 -3.613,2.73 l 0.038,16.03 c 0,1.115 -0.307,1.884 -0.884,2.346 -0.577,0.461 -1.422,0.538 -2.537,0.307 l -0.615,-0.154 c -1.038,-0.23 -1.846,-0.692 -2.499,-1.384 -0.615,-0.692 -0.961,-1.614 -0.961,-2.844 v -16.8 c 0,-1 -0.231,-1.769 -0.731,-2.307 -0.499,-0.538 -1.153,-0.884 -1.999,-1.076 l -0.461,-0.116 c -0.884,-0.192 -1.576,-0.115 -2.076,0.231 -0.5,0.346 -0.73,1 -0.73,1.845 v 28.41 c 0,2.383 1.191,3.883 3.536,4.421 l 3.614,0.846 c 2.345,0.538 3.537,-0.346 3.498,-2.691 v -0.5 c -0.038,-0.884 0.154,-1.538 0.615,-1.922 0.423,-0.385 1.154,-0.462 2.153,-0.231 l 1.384,0.308 c 3.229,0.73 5.613,0.538 7.112,-0.654 1.5,-1.192 2.268,-3.344 2.268,-6.497 L 0.038,0 Z"
             style="fill:#130c0e;fill-opacity:1;fill-rule:nonzero;stroke:none"
             id="path76" />
        </g>
        <g
           id="g78"
           transform="translate(465.3235,43.4046)">
          <path
             d="m 0,0 c 0,-0.884 -0.231,-1.615 -0.73,-2.191 -0.462,-0.577 -1.154,-1 -2.038,-1.192 l -0.5,-0.115 c -0.845,-0.193 -1.499,-0.154 -1.999,0.153 -0.5,0.308 -0.73,0.962 -0.73,1.961 v 11.495 c 0,1.23 -0.308,2.037 -0.923,2.422 -0.615,0.384 -1.461,0.461 -2.499,0.23 l -0.576,-0.115 c -1.115,-0.269 -1.961,-0.731 -2.538,-1.461 -0.576,-0.73 -0.884,-1.653 -0.884,-2.768 V -3.075 c 0,-0.885 -0.23,-1.615 -0.73,-2.192 -0.5,-0.576 -1.192,-0.999 -2.076,-1.191 l -0.461,-0.116 c -0.846,-0.192 -1.5,-0.154 -2,0.154 -0.499,0.308 -0.73,0.961 -0.73,1.961 v 16.53 c 0,1.23 -0.307,2.038 -0.961,2.422 -0.615,0.385 -1.461,0.461 -2.499,0.231 l -0.615,-0.154 c -1.115,-0.269 -1.961,-0.73 -2.499,-1.461 -0.576,-0.73 -0.845,-1.653 -0.845,-2.729 V -5.344 c 0,-2.345 -1.192,-3.806 -3.537,-4.382 l -3.614,-0.846 c -2.345,-0.538 -3.537,0.346 -3.537,2.73 v 20.797 c 0,2.384 1.192,3.883 3.537,4.421 l 24.719,5.69 c 3.229,0.73 5.613,0.5 7.074,-0.692 1.499,-1.23 2.229,-3.383 2.229,-6.535 L 0.038,0 Z"
             style="fill:#130c0e;fill-opacity:1;fill-rule:nonzero;stroke:none"
             id="path80" />
        </g>
        <g
           id="g82"
           transform="translate(475.6647,59.5123)">
          <path
             d="m 0,0 c 0,-0.884 -0.231,-1.615 -0.73,-2.191 -0.5,-0.577 -1.192,-1 -2.076,-1.192 l -0.462,-0.115 c -0.845,-0.193 -1.499,-0.154 -1.999,0.153 -0.499,0.308 -0.73,0.962 -0.73,1.961 v 15.685 c 0,0.884 0.23,1.615 0.73,2.191 0.5,0.577 1.192,1 2.076,1.192 l 0.462,0.115 c 0.845,0.192 1.499,0.154 1.999,-0.154 C -0.231,17.338 0,16.684 0,15.685 Z m 2.23,-12.302 c 0,-2.345 -1.192,-3.806 -3.537,-4.382 l -3.537,-0.808 c -2.345,-0.538 -3.537,0.346 -3.537,2.73 v 2.921 c 0,2.499 1.231,4.075 3.729,4.614 l 3.191,0.73 C 1,-5.92 2.268,-6.881 2.268,-9.419 v -2.883 z"
             style="fill:#130c0e;fill-opacity:1;fill-rule:nonzero;stroke:none"
             id="path84" />
        </g>
        <g
           id="g86"
           transform="translate(481.8828,283.692)">
          <path
             d="m 0,0 c 4.894,12.547 7.441,25.99 7.441,39.551 0,59.928 -48.754,108.683 -108.682,108.683 -34.925,0 -67.126,-16.686 -87.342,-43.975 -14.012,7.001 -29.565,10.725 -45.455,10.725 -20.991,0 -41.147,-6.349 -58.288,-18.361 -8.889,-6.228 -16.637,-13.734 -23.038,-22.254 -17.194,10.789 -37.268,16.702 -57.836,16.702 -59.928,0 -108.683,-48.755 -108.683,-108.683 0,-24.092 7.724,-46.916 22.336,-66.007 10.206,-13.335 23.493,-24.17 38.472,-31.557 -0.205,-2.623 -0.307,-5.258 -0.307,-7.897 0,-55.669 45.29,-100.959 100.958,-100.959 20.885,0 40.931,6.328 57.972,18.298 10.137,7.121 18.774,15.914 25.603,25.984 11.397,-4.307 23.536,-6.534 35.935,-6.534 31.208,0 60.532,14.582 79.602,38.459 12.553,-5.597 26.176,-8.498 40.266,-8.498 54.679,0 99.163,44.484 99.163,99.162 C 18.117,-36.457 11.765,-16.626 0,0"
             style="fill:#00b3f0;fill-opacity:1;fill-rule:nonzero;stroke:none"
             id="path88" />
        </g>
        <g
           id="g90"
           transform="translate(468.8918,282.0807)">
          <path
             d="m 0,0 c 5.98,12.826 9.115,26.918 9.115,41.162 0,53.688 -43.678,97.366 -97.365,97.366 -34.693,0 -66.385,-18.377 -83.768,-47.706 -14.529,9.386 -31.55,14.456 -49.029,14.456 -18.655,0 -36.565,-5.64 -51.793,-16.312 -10.96,-7.68 -19.969,-17.542 -26.538,-28.964 -17.159,13.703 -38.677,21.363 -60.831,21.363 -53.687,0 -97.366,-43.678 -97.366,-97.365 0,-40.116 24.959,-76.144 61.728,-90.631 -0.816,-4.887 -1.227,-9.848 -1.227,-14.83 0,-49.429 40.213,-89.642 89.641,-89.642 18.544,0 36.341,5.616 51.467,16.241 11.591,8.143 20.974,18.746 27.565,31.059 12.5,-6.276 26.297,-9.552 40.478,-9.552 30.846,0 59.619,16.027 76.091,41.624 13.257,-7.66 28.192,-11.663 43.777,-11.663 48.438,0 87.845,39.407 87.845,87.845 C 19.79,-35.123 12.811,-15.654 0,0"
             style="fill:#ffffff;fill-opacity:1;fill-rule:nonzero;stroke:none"
             id="path92" />
        </g>
        <g
           id="g94"
           transform="translate(457.0275,280.5743)">
          <path
             d="m 0,0 c 7.066,12.623 11.1,27.174 11.1,42.669 0,48.317 -39.169,87.485 -87.486,87.485 -35.965,0 -66.856,-21.705 -80.302,-52.728 -14.093,12.138 -32.436,19.478 -52.495,19.478 -34.318,0 -63.615,-21.483 -75.187,-51.733 -15.969,17.115 -38.72,27.82 -63.975,27.82 -48.316,0 -87.485,-39.168 -87.485,-87.485 0,-39.96 26.791,-73.661 63.391,-84.124 -1.881,-6.792 -2.891,-13.947 -2.891,-21.337 0,-44.051 35.711,-79.762 79.761,-79.762 34.079,0 63.16,21.375 74.583,51.447 12.831,-8.649 28.289,-13.699 44.928,-13.699 32.056,0 59.733,18.744 72.674,45.869 13.101,-9.979 29.454,-15.908 47.194,-15.908 43.059,0 77.965,34.906 77.965,77.965 C 21.775,-33.06 13.483,-14.015 0,0"
             style="fill:#130c0e;fill-opacity:1;fill-rule:nonzero;stroke:none"
             id="path96" />
        </g>
        <g
           id="g98"
           transform="translate(457.0211,197.3326)">
          <path
             d="m 0,0 v 6.729 l -1.692,-7.12 -1.832,-0.423 -1.651,6.348 v -6.729 l -1.732,-0.4 v 8.056 l 2.706,0.624 1.631,-6.012 0.02,0.004 1.591,6.757 2.671,0.616 V 0.395 Z M -12.504,-2.887 V 3.74 L -15.29,3.097 v 1.424 l 7.369,1.701 V 4.798 l -2.686,-0.62 v -6.627 z"
             style="fill:#f15a22;fill-opacity:1;fill-rule:nonzero;stroke:none"
             id="path100" />
        </g>
        <g
           id="g102"
           transform="translate(419.8547,282.9591)">
          <path
             d="m 0,0 c 0,0 -0.125,-32.699 -0.532,-38.45 -0.407,-5.752 -1.41,-8.097 -2.975,-8.378 -0.752,-0.094 -1.502,0.088 -2.13,0.5 -4.099,2.689 -11.758,18.003 -18.616,31.32 l -10.005,-2.31 v -82.747 l 12.115,2.797 0.161,21.023 c 0,4.377 0.469,7.284 1.471,8.66 0.345,0.469 0.907,0.788 1.441,0.875 3.527,0.574 10.459,-8.378 18.945,-22.633 l 16.189,3.738 V 3.709 Z"
             style="fill:#f15a22;fill-opacity:1;fill-rule:nonzero;stroke:none"
             id="path104" />
        </g>
        <g
           id="g106"
           transform="translate(358.1035,200.0691)">
          <path
             d="m 0,0 c -0.371,-0.002 -3.119,0.092 -3.413,2.188 -0.17,1.214 0.438,2.314 1.879,3.251 1.252,0.751 3.162,1.532 5.73,2.282 l 12.119,3.189 v 10.535 c 0,0 -13.795,-3.32 -18.037,-2.689 -1.289,0.192 -2.13,0.876 -2.318,2.064 -0.156,1.219 0.439,2.313 1.879,3.251 3.88,2.527 21.294,6.283 21.294,6.283 v 24.308 l -35.855,-8.278 v -64.797 l 36.606,8.451 V 3.501 C 10.114,1.282 3.51,0.019 0,0"
             style="fill:#f15a22;fill-opacity:1;fill-rule:nonzero;stroke:none"
             id="path108" />
        </g>
        <g
           id="g110"
           transform="translate(318.4655,248.4138)">
          <path
             d="m 0,0 c 0,0 -3.884,-25.59 -7.333,-37.416 -0.985,-3.38 -3.367,-8.55 -6.607,-1.157 -1.161,2.648 -4.605,15.019 -7.133,30.967 l -11.186,-2.582 c 0.979,-10.966 6.349,-40.584 13.503,-57.839 l 21.694,5.008 c 7.985,21.132 12.776,43.452 14.404,67.023 z"
             style="fill:#f15a22;fill-opacity:1;fill-rule:nonzero;stroke:none"
             id="path112" />
        </g>
        <g
           id="g114"
           transform="translate(270.3987,176.5517)">
          <path
             d="m 0,0 c -1.728,-0.376 -5.659,-1.372 -7.668,-1.748 -1.922,-0.376 -3.045,0.708 -2.807,3.452 0.216,2.567 1.343,8.009 1.771,9.846 0.945,4.064 2.804,5.758 4.989,6.063 2.801,0.391 5.248,-2.058 6.588,-8.696 C 3.002,8.276 3.329,6.944 3.542,5.133 3.801,2.936 2.721,0.686 0,0 m 9.561,36.683 c -5.429,10.003 -11.742,7.93 -14.977,6.859 -4.239,-1.402 -8.001,-3.579 -11.938,-19.194 -4.138,-16.413 -8.642,-50.892 -8.642,-50.892 l 11.359,2.623 1.166,6.537 c 0.564,3.157 2.574,5.163 5.637,6.064 0,0 8.801,2.284 11.805,2.626 1.269,0.144 2.761,-0.857 3.194,-2.845 l 1.535,-7.033 15.469,3.571 c 0,0 -7.695,38.949 -14.608,51.684"
             style="fill:#f15a22;fill-opacity:1;fill-rule:nonzero;stroke:none"
             id="path116" />
        </g>
        <g
           id="g118"
           transform="translate(219.3201,163.5125)">
          <path
             d="m 0,0 c -0.371,-0.002 -3.119,0.092 -3.413,2.188 -0.17,1.214 0.438,2.314 1.879,3.251 1.252,0.751 3.162,1.532 5.73,2.282 l 12.119,3.189 v 10.535 c 0,0 -13.795,-3.32 -18.037,-2.689 -1.289,0.192 -2.13,0.876 -2.318,2.064 -0.156,1.219 0.439,2.313 1.879,3.251 3.88,2.527 21.294,6.283 21.294,6.283 v 26.228 l -35.855,-8.278 v -64.81 l 36.606,8.452 V 3.501 C 10.114,1.282 3.51,0.019 0,0"
             style="fill:#f15a22;fill-opacity:1;fill-rule:nonzero;stroke:none"
             id="path120" />
        </g>
        <g
           id="g122"
           transform="translate(174.6977,217.5933)">
          <path
             d="m 0,0 c 0.344,-12.911 0.206,-22.575 -1.566,-28.916 -1.076,-3.852 -3.444,-6.784 -6.607,-9.003 -3.221,-2.261 -6.451,-3.251 -9.613,-3.314 -3.857,-0.076 -6.644,1.425 -7.015,5.471 -0.563,6.158 -0.814,14.767 -0.626,25.551 l -13.997,-3.231 v -95.345 l 19.226,4.439 c -0.344,12.161 0.071,21.181 1.566,26.759 1.019,3.802 3.809,7.019 6.607,8.91 3.271,2.208 6.445,3.355 9.614,3.407 3.851,0.062 6.651,-1.723 7.014,-5.564 0.532,-5.627 0.783,-13.745 0.626,-24.093 l 14.311,3.304 V 4.511 Z"
             style="fill:#f15a22;fill-opacity:1;fill-rule:nonzero;stroke:none"
             id="path124" />
        </g>
        <g
           id="g126"
           transform="translate(418.4432,294.0295)">
          <path
             d="m 0,0 v 83.019 l -11.349,-2.62 C -17.368,60.523 -20.774,50.805 -23.742,42.612 -28.8,28.672 -34.046,34.147 -36.491,38.035 -39.334,42.591 -43.2,51.454 -49.909,67.693 l -16.574,-3.826 v -76.818 l 13.743,3.172 c -0.104,12.436 0.114,19.683 0.783,22.964 0.606,2.947 2.382,3.365 4.18,0.439 1.484,-2.404 3.825,-7.608 8.485,-18.309 l 9.217,2.128 c 5.079,13.648 7.817,20.528 9.76,23.893 1.568,2.738 4.556,4.66 5.455,-0.397 0.69,-3.825 0.627,-11.523 0.606,-24.23 z"
             style="fill:#faa61a;fill-opacity:1;fill-rule:nonzero;stroke:none"
             id="path128" />
        </g>
        <g
           id="g130"
           transform="translate(328.542,338.9302)">
          <path
             d="m 0,0 v -23.921 c -0.793,-7.717 -14.451,-10.984 -15.419,-2.88 -0.328,3.609 -0.501,8.594 -0.501,19.236 l -11.476,-2.649 V -81.33 l 15.735,3.632 v 17.023 c 0.957,12.311 15.224,12.994 16.536,4.259 0.442,-2.754 0.401,-7.104 0.401,-16.085 l 11.476,2.649 V 3.867 Z"
             style="fill:#faa61a;fill-opacity:1;fill-rule:nonzero;stroke:none"
             id="path132" />
        </g>
        <g
           id="g134"
           transform="translate(250.2844,328.8023)">
          <path
             d="m 0,0 v -29.308 l 10.588,2.445 c 4.219,0.974 5.701,0.078 5.67,-8.399 v -37.664 l 12.545,2.896 v 34.854 c 0.087,14.962 1.842,18.059 9.283,19.777 l 6.644,1.534 v 24.192 z"
             style="fill:#faa61a;fill-opacity:1;fill-rule:nonzero;stroke:none"
             id="path136" />
        </g>
        <g
           id="g138"
           transform="translate(244.0899,316.3582)">
          <path
             d="m 0,0 -13.379,-3.089 c 0,0 -0.304,-13.482 -0.823,-23.53 -0.775,-14.253 -16.016,-18.687 -16.861,-4.187 -0.385,7.391 -0.508,21.908 -0.508,21.908 l -16.134,-3.724 v -6.857 c 0,-26.701 3.309,-36.119 19.197,-34.02 3.761,0.496 6.615,1.461 9.786,3.747 0.206,0.13 0.408,0.11 0.572,0 0.34,-0.245 0.704,-0.932 0.143,-2.675 -3.025,-9.389 -28.803,-11.838 -28.803,-11.838 l -0.007,-21.165 c 14.805,2.179 30.966,5.303 39.375,19.38 C -4.266,-60.813 0.001,-50.219 0,0"
             style="fill:#faa61a;fill-opacity:1;fill-rule:nonzero;stroke:none"
             id="path140" />
        </g>
        <g
           id="g142"
           transform="translate(173.025,305.0226)">
          <path
             d="m 0,0 v -22.734 c -0.753,-7.334 -13.734,-10.439 -14.654,-2.737 -0.312,3.43 -0.476,8.168 -0.476,18.282 l -10.906,-2.518 v -67.587 l 14.954,3.452 v 16.178 c 0.909,11.7 14.468,12.349 15.715,4.048 0.42,-2.617 0.381,-6.752 0.381,-15.287 l 10.906,2.517 V 3.675 Z"
             style="fill:#faa61a;fill-opacity:1;fill-rule:nonzero;stroke:none"
             id="path144" />
        </g>
        <g
           id="g146"
           transform="translate(99.5637,254.9862)">
          <path
             d="m 0,0 c -6.848,-1.746 -10.887,1.922 -10.887,11.127 0,7.342 0.139,14.923 13.581,14.923 9.571,0 13.563,-4.846 13.572,-10.313 C 16.275,10.637 10.442,2.662 0,0 m 40.186,30.328 c 0,16.907 -12.456,37.357 -64.577,24.812 v -91.951 l 13.573,3.133 v 16.43 c 0,8.021 5.219,4.799 6.372,4.075 1.948,-1.225 6.017,-4.551 15.683,-15.413 l 23.058,5.323 -17.968,18.397 c 0,0 23.859,9.608 23.859,35.194"
             style="fill:#faa61a;fill-opacity:1;fill-rule:nonzero;stroke:none"
             id="path148" />
        </g>
      </g>
    </g>
  </g>
</svg>
