<?xml version="1.0" encoding="UTF-8" standalone="no"?>
<!-- Created with Inkscape (http://www.inkscape.org/) -->

<svg
   version="1.1"
   id="svg2"
   width="666.66669"
   height="695.008"
   viewBox="0 0 666.66669 695.008"
   sodipodi:docname="Rhythm Tengoku Gold (リズム天国ゴールド) Logo (Print).ai"
   xmlns:inkscape="http://www.inkscape.org/namespaces/inkscape"
   xmlns:sodipodi="http://sodipodi.sourceforge.net/DTD/sodipodi-0.dtd"
   xmlns="http://www.w3.org/2000/svg"
   xmlns:svg="http://www.w3.org/2000/svg">
  <defs
     id="defs6">
    <clipPath
       clipPathUnits="userSpaceOnUse"
       id="clipPath16">
      <path
         d="M 0,521.256 H 500 V 0 H 0 Z"
         id="path14" />
    </clipPath>
  </defs>
  <sodipodi:namedview
     id="namedview4"
     pagecolor="#ffffff"
     bordercolor="#000000"
     borderopacity="0.25"
     inkscape:showpageshadow="2"
     inkscape:pageopacity="0.0"
     inkscape:pagecheckerboard="0"
     inkscape:deskcolor="#d1d1d1" />
  <g
     id="g8"
     inkscape:groupmode="layer"
     inkscape:label="Rhythm Tengoku Gold (リズム天国ゴールド) Logo (Print)"
     transform="matrix(1.3333333,0,0,-1.3333333,0,695.008)">
    <g
       id="g10">
      <g
         id="g12"
         clip-path="url(#clipPath16)">
        <g
           id="g18"
           transform="translate(453.3918,256.8997)">
          <path
             d="m 0,0 c -14.854,15.034 -33.424,25.12 -53.662,29.388 0.007,0.528 0.012,1.054 0.012,1.581 0,15.414 -3.275,30.409 -9.576,44.198 24.491,20.06 39.111,50.25 39.111,82.534 0,58.81 -47.846,106.656 -106.656,106.656 -31.173,0 -60.487,-13.572 -80.631,-36.837 -4.075,0.474 -8.167,0.711 -12.25,0.711 -27.581,0 -53.38,-10.351 -73.007,-28.878 -15.317,8.194 -32.347,12.463 -50.077,12.463 -58.81,0 -106.656,-47.845 -106.656,-106.655 0,-24.083 8.261,-47.692 23.262,-66.479 10.197,-12.771 23.248,-23.025 37.893,-29.959 -2.668,-9.432 -4.045,-19.235 -4.045,-29.058 0,-11.511 1.862,-22.895 5.464,-33.713 -14.354,-6.887 -27.154,-16.97 -37.211,-29.496 -15.116,-18.827 -23.441,-42.514 -23.441,-66.699 0,-58.811 47.846,-106.656 106.656,-106.656 29.401,0 56.948,11.875 77.022,32.902 0.266,-0.002 0.532,-0.004 0.797,-0.004 20.679,0 40.367,5.791 57.513,16.838 8.462,-2.124 17.158,-3.197 25.956,-3.197 29.321,0 57.262,12.183 77.258,33.172 9.817,-2.929 19.99,-4.407 30.391,-4.407 58.81,0 106.655,47.846 106.655,106.657 C 30.778,-46.698 19.848,-20.084 0,0"
             style="fill:#000000;fill-opacity:1;fill-rule:nonzero;stroke:none"
             id="path20" />
        </g>
        <g
           id="g22"
           transform="translate(446.4124,250.0032)">
          <path
             d="m 0,0 c -15.485,15.672 -35.419,25.423 -56.983,28.056 0.332,3.266 0.499,6.542 0.499,9.81 0,16.633 -4.2,32.73 -12.218,47.087 25.973,17.984 41.754,47.685 41.754,79.645 0,53.399 -43.445,96.843 -96.844,96.843 -30.077,0 -58.246,-13.915 -76.55,-37.52 -5.41,0.927 -10.881,1.395 -16.331,1.395 -27.496,0 -53.044,-11.335 -71.365,-31.383 -15.457,9.819 -33.166,14.968 -51.719,14.968 -53.399,0 -96.843,-43.444 -96.843,-96.843 0,-41.18 25.611,-77.139 63.493,-90.936 -4.196,-10.997 -6.383,-22.762 -6.383,-34.56 0,-13.492 2.816,-26.791 8.211,-39.037 -16.405,-6.058 -31.079,-16.565 -42.119,-30.316 -13.723,-17.091 -21.28,-38.597 -21.28,-60.556 0,-53.399 43.444,-96.843 96.844,-96.843 28.129,0 54.39,11.975 72.815,33.028 22.029,-1.127 43.046,5.015 60.762,17.55 8.98,-2.681 18.278,-4.038 27.71,-4.038 28.687,0 55.923,12.848 74.246,34.703 10.685,-3.945 21.889,-5.939 33.404,-5.939 53.399,0 96.841,43.445 96.841,96.844 C 27.944,-42.4 18.021,-18.236 0,0"
             style="fill:#ffffff;fill-opacity:1;fill-rule:nonzero;stroke:none"
             id="path24" />
        </g>
        <g
           id="g26"
           transform="translate(378.6819,269.4783)">
          <path
             d="m 0,0 c 1.269,5.932 1.951,12.081 1.951,18.391 0,18.621 -5.832,35.871 -15.743,50.061 26.991,14.912 45.278,43.652 45.278,76.671 0,48.351 -39.196,87.546 -87.547,87.546 -30.187,0 -56.804,-15.279 -72.543,-38.525 -6.53,1.554 -13.333,2.401 -20.338,2.401 -28.447,0 -53.713,-13.577 -69.704,-34.593 -14.778,11.388 -33.281,18.177 -53.38,18.177 -48.351,0 -87.547,-39.195 -87.547,-87.546 0,-41.27 28.563,-75.848 66.994,-85.098 -6.302,-12.089 -9.885,-25.822 -9.885,-40.399 0,-16.335 4.487,-31.616 12.276,-44.703 -38.666,-9.081 -67.463,-43.768 -67.463,-85.206 0,-48.35 39.196,-87.547 87.547,-87.547 27.886,0 52.708,13.055 68.74,33.368 2.985,-0.308 6.013,-0.468 9.079,-0.468 20.412,0 39.177,7.005 54.066,18.716 9.192,-3.278 19.085,-5.076 29.403,-5.076 29.381,0 55.364,14.49 71.243,36.698 11.09,-5.079 23.411,-7.933 36.405,-7.933 48.352,0 87.548,39.196 87.548,87.548 C 86.38,-39.558 47.811,-0.627 0,0"
             style="fill:#000000;fill-opacity:1;fill-rule:nonzero;stroke:none"
             id="path28" />
        </g>
        <g
           id="g30"
           transform="translate(381.6594,192.6331)">
          <path
             d="m 0,0 v 17.467 c 0,2.876 2.344,5.93 5.246,6.818 l 2.241,0.686 V 36.704 L -33.666,24.122 V 12.389 l 3.98,1.216 c 1.947,0.595 3.507,-0.492 3.507,-2.401 v -54.125 c 0,-2.876 -2.343,-5.931 -5.247,-6.818 l -2.24,-0.685 v -11.734 l 41.153,12.582 v 11.733 L 3.507,-39.06 C 1.561,-39.654 0,-38.567 0,-36.658 v 22.15 c 0,0 18.817,7.029 45.478,-16.049 V -5.272 C 25.453,8.025 0,0 0,0 m 41.121,15.726 c 3.709,1.133 5.796,5.059 4.662,8.767 -1.134,3.708 -5.058,5.795 -8.767,4.662 -3.708,-1.134 -5.795,-5.059 -4.662,-8.767 1.134,-3.708 5.059,-5.796 8.767,-4.662 M 16.284,15.475 c -1.134,3.708 0.953,7.633 4.661,8.766 3.708,1.134 7.634,-0.953 8.768,-4.661 1.134,-3.708 -0.953,-7.634 -4.662,-8.767 -3.708,-1.134 -7.633,0.954 -8.767,4.662"
             style="fill:#ffffff;fill-opacity:1;fill-rule:nonzero;stroke:none"
             id="path32" />
        </g>
        <g
           id="g34"
           transform="translate(309.4309,155.8919)">
          <path
             d="m 0,0 c 0,0 -1.818,-26.432 -17.718,-34.897 v 53.484 c 0,2.557 2.061,5.245 4.618,6.026 l 2.583,0.79 V 36.902 L -43.625,26.78 v -84.925 l 21.577,6.597 c 34.67,10.6 42.277,36.171 46.831,59.125 z m -54.844,13.49 v -51.998 c 0,-12.731 -10.33,-26.224 -23.06,-30.117 l -9.187,-2.809 v 15.394 c 6.156,1.882 11.114,8.375 11.114,14.532 v 32.509 c 0,2.557 -2.055,3.985 -4.618,3.202 l -2.452,-0.75 V 4.868 Z"
             style="fill:#ffffff;fill-opacity:1;fill-rule:nonzero;stroke:none"
             id="path36" />
        </g>
        <g
           id="g38"
           transform="translate(166.2766,121.9671)">
          <path
             d="M 0,0 V -15.712 L 48.11,-1.004 V 14.709 Z"
             style="fill:#ffffff;fill-opacity:1;fill-rule:nonzero;stroke:none"
             id="path40" />
        </g>
        <g
           id="g42"
           transform="translate(164.7532,171.8714)">
          <path
             d="m 0,0 c -1.146,3.748 -5.113,5.857 -8.861,4.712 -3.748,-1.146 -5.857,-5.113 -4.711,-8.861 1.145,-3.748 5.113,-5.858 8.861,-4.711 C -0.963,-7.715 1.146,-3.747 0,0 m -97.994,-56.025 47.04,14.381 c 5.758,1.76 10.383,-1.467 10.383,-7.207 v -33.631 l -57.423,-17.556 v -15.42 l 83.356,25.485 v 56.176 c 10e-4,2.218 1.792,4.594 4.044,5.282 l 4.227,1.292 v 14.767 l -91.627,-28.013 z m 68.393,46.975 c -1.146,3.748 0.964,7.716 4.712,8.862 3.748,1.145 7.715,-0.964 8.861,-4.711 1.146,-3.748 -0.964,-7.716 -4.712,-8.862 -3.748,-1.146 -7.715,0.964 -8.861,4.711"
             style="fill:#ffffff;fill-opacity:1;fill-rule:nonzero;stroke:none"
             id="path44" />
        </g>
        <g
           id="g46"
           transform="translate(315.4836,308.3914)">
          <path
             d="m 0,0 -52.536,-16.062 c -2.824,-0.854 -4.508,-3.33 -4.508,-6.57 v -59.903 l 52.535,16.062 c 2.613,0.783 4.509,3.1 4.509,6.57 z m 21.185,17.934 v -87.982 l -99.404,-30.39 v 87.982 z M -9.853,-51.284 v 8.417 l -5.965,-1.823 v -8.418 z m 0,-11.491 -37.329,-11.413 v 6.856 l 6.59,2.015 c 2.692,0.823 4.287,2.968 4.287,6.519 v 12.479 l -10.877,-3.325 v 7.408 l 10.877,3.326 v 12.779 c 0,1.483 -0.892,3.479 -5,2.223 l -5.877,-1.797 v 6.903 L -9.853,-7.39 v -6.902 l -6.517,-1.992 c -2.784,-0.852 -4.359,-2.927 -4.359,-6.526 v -11.338 l 10.876,3.325 v -7.408 l -10.876,-3.326 v -13.92 c 0,-2.191 1.683,-3.253 5.073,-2.217 l 5.803,1.775 z"
             style="fill:#ffffff;fill-opacity:1;fill-rule:nonzero;stroke:none"
             id="path48" />
        </g>
        <g
           id="g50"
           transform="translate(311.1106,323.8655)">
          <path
             d="m 0,0 c -2.99,1.767 -4.459,2.257 -8.4,3.616 -0.816,0.299 -1.822,0.842 -1.822,1.821 0,0.952 0.979,2.257 2.148,3.67 4.621,5.574 4.703,5.737 5.79,7.259 l 1.876,-0.87 C -2.963,12.261 -3.426,11.772 -7.286,7.368 -7.667,6.96 -7.911,6.579 -7.911,6.253 c 0,-0.489 0.815,-0.734 1.305,-0.87 2.447,-0.707 6.633,-2.257 8.292,-3.289 z"
             style="fill:#ffffff;fill-opacity:1;fill-rule:nonzero;stroke:none"
             id="path52" />
        </g>
        <g
           id="g54"
           transform="translate(264.2727,318.1009)">
          <path
             d="m 0,0 c -1.477,-1.986 -1.53,-3.408 -1.53,-3.757 0,-2.442 3.328,-1.476 5.904,-0.698 1.69,0.51 3.408,1.101 5.072,1.879 L 9.5,-4.669 C 8.909,-4.965 7.702,-5.475 5.019,-6.307 1.61,-7.326 0.134,-7.622 -1.342,-7.3 c -1.208,0.269 -2.12,1.423 -2.12,2.899 0,1.744 0.778,3.14 2.039,5.099 z M 8.588,9.662 V 7.81 C 6.414,6.736 4.857,5.475 2.871,3.516 L 1.637,4.482 C 2.2,5.072 2.308,5.18 3.435,6.092 L 3.408,6.119 C 1.073,5.368 -1.315,4.616 -2.711,4.106 v 2.121 c 0.51,0.133 2.657,0.777 3.543,1.046 z m 3.22,-3.785 c -0.751,1.342 -1.261,1.906 -1.53,2.201 l 1.127,1.073 C 12.157,8.374 12.693,7.488 12.989,7.004 Z M 9.366,3.784 C 8.775,4.777 8.427,5.26 7.729,5.985 L 8.937,7.112 C 9.634,6.468 10.198,5.636 10.573,4.938 Z"
             style="fill:#ffffff;fill-opacity:1;fill-rule:nonzero;stroke:none"
             id="path56" />
        </g>
        <g
           id="g58"
           transform="translate(181.5857,230.742)">
          <path
             d="M 0,0 V 9.809 L 36.916,21.095 V 36.458 L 0,25.171 V 38.927 L 36.916,50.213 V 65.538 L -62.795,35.053 V 19.729 l 36.314,11.102 V 17.075 L -62.795,5.973 V -9.39 l 36.314,11.103 v -5.68 c 0,-18.193 -9.797,-25.552 -24.677,-30.112 l -11.637,-3.557 v -15.397 l 25.345,7.749 c 19.468,5.943 26.331,12.842 34.046,31.258 4.234,-1.683 15.734,-9.265 20.398,-14.612 l 26.214,8.013 C 35.365,-11.97 7.476,-1.465 0,0"
             style="fill:#ffffff;fill-opacity:1;fill-rule:nonzero;stroke:none"
             id="path60" />
        </g>
        <g
           id="g62"
           transform="translate(186.094,308.2439)">
          <path
             d="m 0,0 c -0.374,-1.255 -1.976,-6.568 -2.27,-7.663 l 0.027,-0.026 c 0.347,0.4 1.015,1.121 2.19,1.495 2.723,0.801 2.829,-1.923 2.829,-3.418 v -0.801 c 0,-0.56 0,-2.242 1.469,-1.815 1.655,0.48 2.349,3.07 2.67,6.488 L 8.73,-5.794 c -0.454,-4.245 -1.415,-7.609 -4.645,-8.57 -3.204,-0.961 -3.231,2.269 -3.231,3.311 v 0.64 c 0,1.202 0.027,2.43 -1.281,2.03 -1.709,-0.508 -2.75,-2.537 -3.364,-4.539 -0.16,-0.694 -0.828,-3.658 -0.988,-4.272 l -1.976,0.027 c 1.015,3.551 3.444,12.628 4.592,16.926 z"
             style="fill:#ffffff;fill-opacity:1;fill-rule:nonzero;stroke:none"
             id="path64" />
        </g>
        <g
           id="g66"
           transform="translate(156.9163,298.7161)">
          <path
             d="m 0,0 v -2.127 c -0.458,-0.081 -0.889,-0.162 -1.75,-0.431 -2.936,-0.862 -7.702,-5.736 -7.729,-9.506 -0.027,-2.127 1.777,-2.262 2.989,-2.235 1.077,0.027 2.639,0.269 4.793,0.915 l -0.269,-2.343 c -1.75,-0.458 -3.77,-0.888 -5.467,-0.808 -1.885,0.055 -4.066,0.862 -4.066,3.744 0.027,1.562 0.673,4.874 4.847,8.725 l -0.027,0.027 c -3.823,-1.266 -4.281,-1.4 -8.24,-2.774 v 2.154 c 0.7,0.189 5.655,1.751 7.702,2.397 z"
             style="fill:#ffffff;fill-opacity:1;fill-rule:nonzero;stroke:none"
             id="path68" />
        </g>
        <g
           id="g70"
           transform="translate(375.9377,405.4724)">
          <path
             d="m 0,0 -3.87,-1.183 c -2.532,-0.782 -5.32,-0.028 -7.244,2.814 l -8.829,13.046 -25.66,-7.844 11.618,-17.223 -31.648,-9.676 19.154,62.65 c 0.837,2.738 2.327,4.455 4.367,5.094 l 6.439,1.968 v 10.421 l -31.605,-9.663 -22.743,-74.389 c -0.881,-2.882 -2.585,-4.327 -4.398,-4.882 l -3.919,-1.198 v -15.063 l 106.762,32.64 z"
             style="fill:#ffffff;fill-opacity:1;fill-rule:nonzero;stroke:none"
             id="path72" />
        </g>
        <g
           id="g74"
           transform="translate(243.5256,362.0188)">
          <path
             d="m 0,0 c 9.719,15.411 11.096,25.107 12.469,35.788 0.48,3.864 2.319,5.861 4.399,6.497 l 3.867,1.183 V 57.879 L -69.764,30.211 V 14.944 l 56.677,17.328 c -1.306,-20.141 -8.535,-47.097 -40.263,-56.797 l -16.414,-5.019 v -15.074 l 16.778,5.131 c 21.717,6.638 32.202,13.017 45.01,28.788 3.306,-1.606 7.676,-5.54 10.153,-11.924 l 25.541,7.809 C 24.123,-10.4 8.854,-1.168 0,0 m 6.646,57.616 c 3.649,1.134 5.605,4.932 4.541,8.511 -1.134,3.58 -4.933,5.605 -8.512,4.541 -3.65,-1.064 -5.605,-4.932 -4.541,-8.511 1.134,-3.579 4.933,-5.605 8.512,-4.541 m 7.489,9.432 c -1.065,3.579 0.891,7.378 4.541,8.513 3.578,1.134 7.447,-0.892 8.511,-4.541 1.134,-3.579 -0.891,-7.378 -4.541,-8.512 -3.579,-1.064 -7.377,0.891 -8.511,4.54"
             style="fill:#ffffff;fill-opacity:1;fill-rule:nonzero;stroke:none"
             id="path76" />
        </g>
        <g
           id="g78"
           transform="translate(97.4182,354.7088)">
          <path
             d="m 0,0 -2.13,-0.651 c -3.358,-1.027 -5.004,0.089 -5.004,2.201 v 22.977 c 0,3.088 1.122,5.433 4.245,6.388 L 0,31.798 V 42.976 L -35.179,32.22 V 21.044 l 2.137,0.652 c 3.368,1.03 4.998,-0.081 4.998,-2.18 V -3.461 c 0,-3.117 -1.124,-5.456 -4.239,-6.409 l -2.896,-0.885 V -21.91 L 0,-11.155 Z M 62.111,61.965 V 50.788 L 59.373,49.95 C 56.214,48.985 55.138,46.744 55.138,43.582 V -2.161 c 0,-14.969 -8.04,-26.454 -20.645,-30.264 l -62.27,-19.038 v 15.037 l 44.529,13.614 c 8.555,2.627 12.558,10.061 12.558,20.166 v 39.701 c 0,2.1 -1.638,3.203 -5.001,2.175 l -2.234,-0.683 v 11.178 z"
             style="fill:#ffffff;fill-opacity:1;fill-rule:nonzero;stroke:none"
             id="path80" />
        </g>
        <g
           id="g82"
           transform="translate(497.762,125.7337)">
          <path
             d="M 0,0 V 9.492 L -2.213,-0.552 -4.608,-1.149 -6.769,7.805 V -1.687 L -9.033,-2.252 V 9.111 l 3.538,0.882 2.134,-8.481 0.026,0.007 2.081,9.532 3.492,0.87 V 0.558 Z m -16.353,-4.077 v 9.348 l -3.643,-0.909 v 2.009 l 9.637,2.402 V 6.765 L -13.871,5.89 v -9.348 z"
             style="fill:#000000;fill-opacity:1;fill-rule:nonzero;stroke:none"
             id="path84" />
        </g>
      </g>
    </g>
  </g>
</svg>
