<?xml version="1.0" encoding="UTF-8" standalone="no"?>
<!-- Created with Inkscape (http://www.inkscape.org/) -->

<svg
   version="1.1"
   id="svg1"
   width="666.66669"
   height="778.29333"
   viewBox="0 0 666.66669 778.29333"
   sodipodi:docname="Rhythm Tengoku Gold (リズム天国ゴールド) Logo with Tagline.ai"
   xmlns:inkscape="http://www.inkscape.org/namespaces/inkscape"
   xmlns:sodipodi="http://sodipodi.sourceforge.net/DTD/sodipodi-0.dtd"
   xmlns="http://www.w3.org/2000/svg"
   xmlns:svg="http://www.w3.org/2000/svg">
  <defs
     id="defs1">
    <clipPath
       clipPathUnits="userSpaceOnUse"
       id="clipPath2">
      <path
         d="M 0,583.72 H 500 V 0 H 0 Z"
         transform="translate(-491.29461,-98.557805)"
         id="path2" />
    </clipPath>
    <clipPath
       clipPathUnits="userSpaceOnUse"
       id="clipPath4">
      <path
         d="M 0,583.72 H 500 V 0 H 0 Z"
         transform="translate(-453.39221,-319.36301)"
         id="path4" />
    </clipPath>
    <clipPath
       clipPathUnits="userSpaceOnUse"
       id="clipPath6">
      <path
         d="M 0,583.72 H 500 V 0 H 0 Z"
         transform="translate(-446.41271,-312.46601)"
         id="path6" />
    </clipPath>
    <clipPath
       clipPathUnits="userSpaceOnUse"
       id="clipPath8">
      <path
         d="M 0,583.72 H 500 V 0 H 0 Z"
         transform="translate(-378.68131,-331.94161)"
         id="path8" />
    </clipPath>
    <clipPath
       clipPathUnits="userSpaceOnUse"
       id="clipPath10">
      <path
         d="M 0,583.72 H 500 V 0 H 0 Z"
         transform="translate(-406.84051,-265.87621)"
         id="path10" />
    </clipPath>
    <clipPath
       clipPathUnits="userSpaceOnUse"
       id="clipPath12">
      <path
         d="M 0,583.72 H 500 V 0 H 0 Z"
         transform="translate(-309.43031,-218.35471)"
         id="path12" />
    </clipPath>
    <clipPath
       clipPathUnits="userSpaceOnUse"
       id="clipPath14">
      <path
         d="M 0,583.72 H 500 V 0 H 0 Z"
         transform="translate(-166.2765,-184.4299)"
         id="path14" />
    </clipPath>
    <clipPath
       clipPathUnits="userSpaceOnUse"
       id="clipPath16">
      <path
         d="M 0,583.72 H 500 V 0 H 0 Z"
         transform="translate(-66.759401,-178.3088)"
         id="path16" />
    </clipPath>
    <clipPath
       clipPathUnits="userSpaceOnUse"
       id="clipPath18">
      <path
         d="M 0,583.72 H 500 V 0 H 0 Z"
         transform="translate(-315.48301,-370.85471)"
         id="path18" />
    </clipPath>
    <clipPath
       clipPathUnits="userSpaceOnUse"
       id="clipPath20">
      <path
         d="M 0,583.72 H 500 V 0 H 0 Z"
         transform="translate(-311.11001,-386.32881)"
         id="path20" />
    </clipPath>
    <clipPath
       clipPathUnits="userSpaceOnUse"
       id="clipPath22">
      <path
         d="M 0,583.72 H 500 V 0 H 0 Z"
         transform="translate(-264.27211,-380.56411)"
         id="path22" />
    </clipPath>
    <clipPath
       clipPathUnits="userSpaceOnUse"
       id="clipPath24">
      <path
         d="M 0,583.72 H 500 V 0 H 0 Z"
         transform="translate(-181.5856,-293.20481)"
         id="path24" />
    </clipPath>
    <clipPath
       clipPathUnits="userSpaceOnUse"
       id="clipPath26">
      <path
         d="M 0,583.72 H 500 V 0 H 0 Z"
         transform="translate(-186.0939,-370.70671)"
         id="path26" />
    </clipPath>
    <clipPath
       clipPathUnits="userSpaceOnUse"
       id="clipPath28">
      <path
         d="M 0,583.72 H 500 V 0 H 0 Z"
         transform="translate(-156.9162,-361.17941)"
         id="path28" />
    </clipPath>
    <clipPath
       clipPathUnits="userSpaceOnUse"
       id="clipPath30">
      <path
         d="M 0,583.72 H 500 V 0 H 0 Z"
         transform="translate(-375.93811,-467.93571)"
         id="path30" />
    </clipPath>
    <clipPath
       clipPathUnits="userSpaceOnUse"
       id="clipPath32">
      <path
         d="M 0,583.72 H 500 V 0 H 0 Z"
         transform="translate(-243.526,-424.48211)"
         id="path32" />
    </clipPath>
    <clipPath
       clipPathUnits="userSpaceOnUse"
       id="clipPath34">
      <path
         d="M 0,583.72 H 500 V 0 H 0 Z"
         transform="translate(-97.418102,-417.17211)"
         id="path34" />
    </clipPath>
    <clipPath
       clipPathUnits="userSpaceOnUse"
       id="clipPath36">
      <path
         d="M 0,583.72 H 500 V 0 H 0 Z"
         transform="translate(-497.76141,-188.1965)"
         id="path36" />
    </clipPath>
  </defs>
  <sodipodi:namedview
     id="namedview1"
     pagecolor="#ffffff"
     bordercolor="#000000"
     borderopacity="0.25"
     inkscape:showpageshadow="2"
     inkscape:pageopacity="0.0"
     inkscape:pagecheckerboard="0"
     inkscape:deskcolor="#d1d1d1">
    <inkscape:page
       x="0"
       y="0"
       inkscape:label="1"
       id="page1"
       width="666.66669"
       height="778.29333"
       margin="0"
       bleed="0" />
  </sodipodi:namedview>
  <g
     id="layer-MC0"
     inkscape:groupmode="layer"
     inkscape:label="Layer 1">
    <path
       id="path1"
       d="M 0,0 V 7.451 L 7.136,9.099 V 1.647 Z M 6.465,11.897 0.671,10.56 0,33.401 7.136,35.049 Z m -23.938,11.09 -4.271,-0.986 V 12.66 l 4.311,0.995 c 2.699,0.623 4.853,2.621 4.853,5.793 0,3.209 -2.154,4.172 -4.893,3.539 M -15.896,7.63 -21.62,6.309 V -4.115 l -7.547,-1.742 v 32.525 l 13.396,3.093 c 6.551,1.512 10.739,-2.15 10.739,-8.53 0,-6.838 -4.104,-12.04 -10.864,-13.601 m -30.706,-18.389 c -7.837,-1.809 -13.146,1.926 -13.146,9.101 v 21.265 l 7.672,1.772 V 0.778 c 0,-4.377 2.155,-5.841 5.474,-5.076 3.276,0.757 5.68,3.275 5.68,7.652 v 20.6 l 7.426,1.714 V 4.402 c 0,-7.256 -5.518,-13.41 -13.106,-15.161 m -22.795,6.098 c -1.365,-0.315 -2.58,0.525 -3.757,1.774 -0.921,-1.372 -2.357,-2.704 -2.357,-2.704 l -1.694,4.088 v -3 l -1.583,-0.365 c 1.4,-0.797 3.46,-2.521 3.46,-2.521 l -0.405,-0.373 4.456,-0.652 c -0.184,0.518 -0.552,1.191 -0.846,1.724 l 2.983,2.088 c -0.075,-0.017 -0.186,-0.043 -0.257,-0.059 m -6.777,-3.526 -3.681,-3.41 c 0,0 -1.731,2.364 -2.837,3.586 v -4.52 c 0,-0.32 0.036,-0.552 0.551,-0.433 l 4.825,1.113 c 0.627,0.145 1.142,0.346 1.142,1.945 z m -5.634,7.82 -2.284,-0.528 v -1.957 l 2.284,0.528 z m 3.94,10.352 -11.378,-2.627 V 6.156 l 11.489,2.653 c 0,0.28 -0.111,0.935 -0.111,1.176 m -14.068,-31.05 -4.821,2.446 c 2.171,3.983 2.762,8.921 2.762,8.921 l 5.043,-0.956 c 0,0 -0.885,-6.165 -2.984,-10.411 m 24.82,17.293 c 2.135,-3.507 3.424,-7.412 3.424,-7.412 l -5.154,-4.15 c 0,0 -0.848,2.804 -1.841,5.376 -0.405,-5.855 -2.173,-6.863 -5.93,-7.73 l -7.952,-1.836 c -2.615,-0.604 -4.015,-0.686 -4.015,2.753 v 8.163 l 5.634,1.3 2.285,2.006 -8.029,-1.853 v 8.439 l 11.489,2.653 v -4.121 c 0,0 1.142,0.906 1.619,1.615 0,0 -1.031,2.52 -1.286,3.784 L -89.357,2.333 c -0.183,-3.964 -1.178,-9.154 -2.615,-12.206 l -4.896,3.59 c 1.913,4.083 1.952,9.85 1.952,13.371 v 0.361 3.798 l 16.386,3.783 c 0,0 -0.112,1.375 -0.112,2.017 l 5.452,1.259 c 0,-0.642 0.107,-2.018 0.107,-2.018 l 2.543,0.587 -0.443,0.979 4.419,2.02 c 1.658,-3.096 2.65,-7.068 2.65,-7.068 l -4.674,-2.558 c 0,0 -0.147,0.924 -0.405,1.786 l -3.535,-0.816 c 0.111,-0.695 0.551,-3.313 0.735,-3.95 0.297,0.749 0.662,2.712 0.848,3.595 l 4.198,-1.63 c -0.774,-2.501 -1.694,-4.631 -2.69,-6.463 0.369,-0.593 0.663,-0.926 0.996,-0.849 0.551,0.127 1.178,1.513 2.392,4.793 l 2.393,-5.248 c -1.214,-2.561 -2.465,-4.448 -3.46,-5.238 m -57.264,-24.823 v 6.44 c 11.598,3.357 17.195,7.412 17.195,18.932 V 8.656 l 6.812,1.573 v -11.96 c 0,-15.84 -8.874,-23.168 -24.007,-26.864 m -3.903,12.02 v 20.36 l 6.701,1.547 v -20.36 z m -31.811,-20.226 V -30 c 11.894,6.306 18.779,16.536 20.178,31.021 l 7.106,1.641 c -1.765,-19.328 -11.708,-32.587 -27.284,-39.463 m -8.382,16.266 v 5.442 l 3.793,0.876 v -5.443 z m -4.935,-1.14 v 5.443 l 3.793,0.876 v -5.443 z m 6.075,8.803 c -7.4,-1.907 -14.949,-8.771 -14.949,-14.649 0,-6.401 6.113,-6.351 13.588,-4.625 v -6.84 c -0.552,-0.166 -1.107,-0.294 -1.658,-0.422 -12.74,-2.942 -18.521,1.522 -18.521,9.482 0,5.482 2.65,9.895 6.039,13.436 l -13.366,-3.607 v 6.68 l 30.56,7.616 v -6.637 z m -57.023,-38.565 v 6.04 c 2.467,5.93 6.998,20.975 8.799,29.153 l 6.998,1.616 c -2.467,-10.452 -5.339,-19.555 -8.617,-28.591 l 16.533,3.818 c -1.583,4.755 -4.27,10.094 -6.443,14.631 l 7.181,1.658 c 2.872,-5.858 5.816,-12.496 8.248,-20.814 z m -4.72,28.193 v 5.559 l 3.46,0.799 v -5.559 z m -11.415,-21.716 c -5.304,-7.185 -12.188,-12.256 -18.337,-14.874 v 6.68 c 8.026,4.133 16.568,13.023 19.072,24.044 l -17.195,-3.97 v 6.599 l 23.383,5.398 v 2.361 l 3.46,0.799 v -5.559 l -1.988,-0.459 c -0.59,-5.058 -2.023,-9.669 -4.05,-13.857 1.768,-4.513 5.412,-6.87 8.469,-7.845 v -7.4 c -5.672,0.491 -10.089,3.71 -12.814,8.083 m -45.078,-20.85 v 6.44 c 11.598,3.358 17.195,7.413 17.195,18.933 v 11.879 l 6.813,1.573 v -11.96 c 0,-15.84 -8.875,-23.168 -24.008,-26.865 m -3.903,12.021 v 20.36 l 6.701,1.547 v -20.36 z m -26.46,-10.669 c -1.289,-0.298 -1.877,-0.834 -1.877,-1.355 0,-1.479 3.793,-1.323 6.075,-0.796 0.92,0.213 1.805,0.498 2.725,0.87 -1.916,0.877 -4.641,1.807 -6.923,1.281 m 4.749,-7.945 c -7.252,-1.675 -12.37,-0.055 -12.37,5.065 0,3.081 2.467,6.889 7.696,8.096 4.821,1.113 8.173,-0.751 8.836,-1.198 v -4.322 c 2.65,1.533 4.566,3.816 4.566,6.777 0,3.198 -3.205,4.338 -7.585,3.327 -4.456,-1.03 -8.581,-2.262 -17.084,-10.583 v 7.198 l 15.132,13.174 -11.894,-2.746 v 6.241 l 23.455,5.415 v -5.479 l -8.764,-7.824 c 0.516,0.24 1.107,0.493 1.952,0.689 6.371,1.47 11.267,-0.877 11.267,-7.838 0,-7.642 -5.999,-13.866 -15.207,-15.992 m -21.905,16.263 v -3.078 c 0,-14.122 -8.323,-19.203 -15.98,-21.531 v 6.201 c 5.3,1.943 9.756,5.532 9.756,14.174 v 2.798 l -11.378,-2.627 v 6.361 l 11.378,2.627 v 6.56 l 6.224,1.436 v -6.559 l 4.785,1.104 v -6.36 z m -20.07,-10.033 c 0,-4.681 0.147,-9.526 0.444,-14.539 l -6.261,-1.445 c -0.186,3.677 -0.369,8.716 -0.369,13.957 0,6.438 0.259,13.019 0.849,19.116 l 6.146,1.419 c -0.587,-6.614 -0.809,-12.388 -0.809,-18.508 m -17.037,8.027 v 5.559 l 4.014,0.928 v -5.561 z m -5.082,-1.173 v 5.559 l 3.979,0.919 v -5.56 z m -4.567,-28.777 c -7.474,-1.725 -12.445,0.208 -12.445,9.531 v 21.64 l 6.335,1.462 v -21.161 c 0,-4.241 2.135,-5.627 6.186,-4.692 6.113,1.411 9.021,6.603 9.609,16.139 l 6.371,1.471 c -0.48,-13.67 -6.002,-22.068 -16.056,-24.39 m -27.793,4.066 c -0.995,0.05 -1.99,0.022 -2.836,-0.173 -2.357,-0.544 -3.61,-1.837 -3.61,-3.277 0,-1.677 1.437,-2.069 3.427,-1.609 2.318,0.535 3.019,2.339 3.019,4.378 z m 6.111,-1.749 c -0.516,-5.079 -3.46,-8.078 -8.872,-9.328 -5.046,-1.165 -9.354,0.4 -9.354,6.4 0,4.4 3.313,8.765 9.057,10.091 1.031,0.238 2.099,0.406 3.058,0.507 v 6.12 l -11.267,-2.601 v 6.24 l 11.267,2.602 v 5.599 l 6.186,1.428 v -5.599 l 4.896,1.131 v -6.242 l -4.896,-1.13 v -8.042 c 2.983,-0.669 4.971,-1.77 5.376,-2.039 v -8.038 c -0.48,0.328 -2.726,1.729 -5.451,2.901 m -19.662,1.141 c 0,-4.043 0.11,-8.176 0.368,-12.474 l -6.26,-1.446 c -0.183,4.036 -0.258,8.139 -0.258,12.379 0,7.483 0.222,14.654 0.848,21.677 l 6.258,1.445 c -0.588,-7.174 -0.956,-14.22 -0.956,-21.581"
       style="fill:#130c0e;fill-opacity:1;fill-rule:nonzero;stroke:none"
       transform="matrix(1.3333333,0,0,-1.3333333,655.05947,646.88293)"
       clip-path="url(#clipPath2)" />
    <path
       id="path3"
       d="m 0,0 c -14.855,15.034 -33.424,25.12 -53.663,29.388 0.008,0.528 0.013,1.054 0.013,1.581 0,15.414 -3.275,30.409 -9.577,44.198 24.492,20.06 39.112,50.25 39.112,82.534 0,58.81 -47.846,106.655 -106.656,106.655 -31.174,0 -60.487,-13.571 -80.631,-36.836 -4.075,0.473 -8.167,0.711 -12.251,0.711 -27.581,0 -53.38,-10.352 -73.006,-28.878 -15.317,8.194 -32.348,12.463 -50.078,12.463 -58.81,0 -106.655,-47.845 -106.655,-106.655 0,-24.083 8.261,-47.693 23.262,-66.479 10.197,-12.771 23.248,-23.025 37.893,-29.96 -2.669,-9.431 -4.046,-19.234 -4.046,-29.057 0,-11.51 1.863,-22.896 5.465,-33.713 -14.354,-6.887 -27.155,-16.969 -37.212,-29.496 -15.116,-18.828 -23.44,-42.514 -23.44,-66.7 0,-58.81 47.845,-106.656 106.656,-106.656 29.401,0 56.948,11.876 77.022,32.902 0.266,-0.002 0.532,-0.003 0.797,-0.003 20.679,0 40.366,5.792 57.512,16.837 8.463,-2.123 17.158,-3.197 25.956,-3.197 29.321,0 57.262,12.185 77.259,33.173 9.816,-2.929 19.989,-4.407 30.39,-4.407 58.81,0 106.655,47.845 106.655,106.656 C 30.777,-46.699 19.847,-20.084 0,0"
       style="fill:#00b3f0;fill-opacity:1;fill-rule:nonzero;stroke:none"
       transform="matrix(1.3333333,0,0,-1.3333333,604.52293,352.476)"
       clip-path="url(#clipPath4)" />
    <path
       id="path5"
       d="m 0,0 c -15.485,15.672 -35.419,25.423 -56.984,28.057 0.333,3.265 0.5,6.542 0.5,9.809 0,16.633 -4.2,32.73 -12.219,47.087 25.974,17.985 41.754,47.686 41.754,79.645 0,53.4 -43.444,96.843 -96.843,96.843 -30.077,0 -58.246,-13.914 -76.55,-37.519 -5.411,0.926 -10.882,1.394 -16.332,1.394 -27.495,0 -53.043,-11.334 -71.364,-31.383 -15.458,9.819 -33.166,14.968 -51.719,14.968 -53.4,0 -96.844,-43.443 -96.844,-96.843 0,-41.18 25.612,-77.139 63.493,-90.936 -4.195,-10.997 -6.383,-22.761 -6.383,-34.56 0,-13.492 2.817,-26.79 8.212,-39.036 -16.405,-6.059 -31.079,-16.565 -42.12,-30.317 -13.722,-17.09 -21.279,-38.596 -21.279,-60.556 0,-53.399 43.443,-96.842 96.843,-96.842 28.129,0 54.391,11.974 72.815,33.027 22.03,-1.126 43.047,5.015 60.763,17.551 8.979,-2.682 18.278,-4.039 27.709,-4.039 28.688,0 55.924,12.848 74.246,34.703 10.686,-3.944 21.89,-5.938 33.404,-5.938 53.399,0 96.842,43.444 96.842,96.843 C 27.944,-42.4 18.021,-18.236 0,0"
       style="fill:#ffffff;fill-opacity:1;fill-rule:nonzero;stroke:none"
       transform="matrix(1.3333333,0,0,-1.3333333,595.21693,361.672)"
       clip-path="url(#clipPath6)" />
    <path
       id="path7"
       d="m 0,0 c 1.269,5.932 1.951,12.081 1.951,18.391 0,18.621 -5.831,35.871 -15.742,50.061 26.991,14.912 45.277,43.651 45.277,76.671 0,48.35 -39.195,87.546 -87.547,87.546 -30.186,0 -56.803,-15.279 -72.543,-38.525 -6.529,1.554 -13.333,2.4 -20.338,2.4 -28.446,0 -53.713,-13.576 -69.704,-34.592 -14.777,11.388 -33.281,18.177 -53.38,18.177 -48.35,0 -87.547,-39.196 -87.547,-87.546 0,-41.27 28.564,-75.848 66.994,-85.098 -6.301,-12.089 -9.884,-25.822 -9.884,-40.399 0,-16.335 4.486,-31.616 12.276,-44.703 -38.667,-9.08 -67.464,-43.769 -67.464,-85.205 0,-48.352 39.196,-87.547 87.547,-87.547 27.887,0 52.709,13.054 68.741,33.366 2.985,-0.307 6.013,-0.468 9.079,-0.468 20.412,0 39.177,7.005 54.065,18.716 9.192,-3.277 19.086,-5.075 29.403,-5.075 29.382,0 55.365,14.49 71.244,36.698 11.089,-5.08 23.41,-7.932 36.405,-7.932 48.351,0 87.547,39.196 87.547,87.546 C 86.38,-39.558 47.811,-0.627 0,0"
       style="fill:#130c0e;fill-opacity:1;fill-rule:nonzero;stroke:none"
       transform="matrix(1.3333333,0,0,-1.3333333,504.9084,335.70453)"
       clip-path="url(#clipPath8)" />
    <path
       id="path9"
       d="M 0,0 C 3.683,1.145 5.656,4.979 4.583,8.591 3.438,12.202 -0.396,14.247 -4.008,13.173 -7.691,12.1 -9.665,8.194 -8.591,4.582 -7.446,0.971 -3.612,-1.074 0,0 m 7.558,9.52 c -1.074,3.612 0.9,7.446 4.583,8.59 3.612,1.145 7.516,-0.899 8.59,-4.583 1.145,-3.611 -0.9,-7.445 -4.583,-8.59 -3.612,-1.074 -7.446,0.9 -8.59,4.583 M -25.181,-10.779 V 6.687 c 0,2.876 2.344,5.931 5.246,6.819 l 2.242,0.684 V 25.924 L -58.848,13.342 V 1.608 l 3.982,1.217 c 1.946,0.596 3.506,-0.492 3.506,-2.4 v -54.126 c 0,-2.876 -2.344,-5.931 -5.246,-6.819 l -2.242,-0.684 v -11.734 l 41.155,12.582 v 11.734 l -3.982,-1.218 c -1.946,-0.595 -3.506,0.493 -3.506,2.402 v 22.15 c 0,0 18.818,7.028 45.477,-16.049 v 25.285 c -20.025,13.297 -45.477,5.273 -45.477,5.273"
       style="fill:#faa61a;fill-opacity:1;fill-rule:nonzero;stroke:none"
       transform="matrix(1.3333333,0,0,-1.3333333,542.454,423.79173)"
       clip-path="url(#clipPath10)" />
    <path
       id="path11"
       d="m 0,0 c 0,0 -1.818,-26.432 -17.717,-34.897 v 53.484 c 0,2.558 2.061,5.245 4.617,6.027 l 2.583,0.789 V 36.902 L -43.625,26.78 v -84.925 l 21.578,6.598 c 34.67,10.6 42.277,36.171 46.831,59.124 z m -54.843,13.491 v -50.879 c 0,-20.757 -11.837,-27.804 -32.248,-34.046 v 15.394 c 9.093,2.78 11.115,10.614 11.115,16.771 v 30.27 c 0,2.557 -2.055,3.985 -4.618,3.202 l -2.453,-0.75 V 4.868 Z"
       style="fill:#f15a22;fill-opacity:1;fill-rule:nonzero;stroke:none"
       transform="matrix(1.3333333,0,0,-1.3333333,412.57373,487.15373)"
       clip-path="url(#clipPath12)" />
    <path
       id="path13"
       d="M 0,0 V -15.712 L 48.11,-1.003 V 14.709 Z"
       style="fill:#faa61a;fill-opacity:1;fill-rule:nonzero;stroke:none"
       transform="matrix(1.3333333,0,0,-1.3333333,221.702,532.3868)"
       clip-path="url(#clipPath14)" />
    <path
       id="path15"
       d="m 0,0 47.04,14.382 c 5.757,1.761 10.383,-1.467 10.383,-7.207 V -26.457 L 0,-44.013 v -15.419 l 83.001,25.376 v 56.177 c 0,2.218 2.146,4.701 4.399,5.39 l 3.849,1.176 V 43.454 L 0,15.557 Z m 77.221,42.635 c 3.649,1.135 5.604,4.932 4.54,8.511 -1.134,3.58 -4.932,5.606 -8.511,4.542 -3.65,-1.065 -5.605,-4.933 -4.542,-8.512 1.135,-3.579 4.934,-5.605 8.513,-4.541 m 16,4.891 c -3.579,-1.063 -7.378,0.892 -8.512,4.541 -1.064,3.579 0.892,7.378 4.541,8.512 3.579,1.135 7.448,-0.891 8.512,-4.54 1.134,-3.579 -0.892,-7.378 -4.541,-8.513"
       style="fill:#f15a22;fill-opacity:1;fill-rule:nonzero;stroke:none"
       transform="matrix(1.3333333,0,0,-1.3333333,89.012533,540.54827)"
       clip-path="url(#clipPath16)" />
    <path
       id="path17"
       d="m 0,0 -52.535,-16.062 c -2.825,-0.854 -4.509,-3.33 -4.508,-6.57 v -59.903 l 52.535,16.061 C -1.895,-65.69 0,-63.373 0,-59.903 Z m 21.185,17.934 v -87.982 l -99.403,-30.39 v 87.981 z M -9.853,-51.285 v 8.418 l -5.964,-1.823 v -8.418 z m 0,-11.491 -37.328,-11.412 v 6.856 l 6.59,2.015 c 2.692,0.823 4.286,2.968 4.286,6.519 v 12.479 l -10.876,-3.326 v 7.409 l 10.876,3.325 v 12.779 c 0,1.483 -0.892,3.48 -5,2.224 l -5.876,-1.797 v 6.902 L -9.853,-7.39 v -6.902 l -6.516,-1.993 c -2.785,-0.851 -4.36,-2.927 -4.36,-6.525 v -11.338 l 10.876,3.325 v -7.408 l -10.876,-3.326 v -13.92 c 0,-2.191 1.683,-3.253 5.074,-2.217 l 5.802,1.775 z"
       style="fill:#f15a22;fill-opacity:1;fill-rule:nonzero;stroke:none"
       transform="matrix(1.3333333,0,0,-1.3333333,420.644,283.8204)"
       clip-path="url(#clipPath18)" />
    <path
       id="path19"
       d="m 0,0 c -2.99,1.767 -4.458,2.256 -8.4,3.616 -0.816,0.299 -1.822,0.842 -1.822,1.821 0,0.952 0.979,2.257 2.148,3.67 4.622,5.574 4.704,5.737 5.791,7.259 l 1.876,-0.87 C -2.963,12.261 -3.425,11.771 -7.285,7.367 -7.666,6.959 -7.911,6.579 -7.911,6.253 c 0,-0.489 0.816,-0.734 1.306,-0.87 2.446,-0.707 6.632,-2.257 8.291,-3.29 z"
       style="fill:#f15a22;fill-opacity:1;fill-rule:nonzero;stroke:none"
       transform="matrix(1.3333333,0,0,-1.3333333,414.81333,263.18827)"
       clip-path="url(#clipPath20)" />
    <path
       id="path21"
       d="m 0,0 c -1.476,-1.986 -1.529,-3.408 -1.529,-3.757 0,-2.442 3.328,-1.476 5.904,-0.698 1.69,0.51 3.408,1.101 5.072,1.879 L 9.501,-4.67 C 8.91,-4.965 7.702,-5.475 5.019,-6.307 1.61,-7.327 0.135,-7.622 -1.342,-7.3 c -1.207,0.269 -2.12,1.423 -2.12,2.899 0,1.744 0.778,3.14 2.04,5.099 z M 8.588,9.661 V 7.81 C 6.414,6.736 4.857,5.475 2.872,3.516 L 1.638,4.482 c 0.563,0.59 0.671,0.698 1.798,1.61 L 3.408,6.119 C 1.074,5.367 -1.314,4.616 -2.71,4.106 v 2.12 c 0.51,0.134 2.656,0.778 3.542,1.047 z m 3.221,-3.784 c -0.751,1.342 -1.262,1.906 -1.53,2.201 l 1.127,1.073 C 12.157,8.373 12.694,7.487 12.989,7.004 Z M 9.366,3.784 C 8.776,4.777 8.427,5.26 7.729,5.985 l 1.209,1.127 c 0.697,-0.644 1.26,-1.476 1.636,-2.174 z"
       style="fill:#f15a22;fill-opacity:1;fill-rule:nonzero;stroke:none"
       transform="matrix(1.3333333,0,0,-1.3333333,352.3628,270.87453)"
       clip-path="url(#clipPath22)" />
    <path
       id="path23"
       d="M 0,0 V 9.809 L 36.916,21.096 V 36.458 L 0,25.171 V 38.927 L 36.916,50.213 V 65.538 L -62.795,35.053 V 19.729 l 36.314,11.102 V 17.075 L -62.795,5.973 V -9.389 l 36.314,11.102 v -5.68 c 0,-18.193 -9.797,-25.551 -24.676,-30.111 l -11.638,-3.558 v -15.397 l 25.345,7.749 c 19.468,5.943 26.331,12.842 34.046,31.258 4.234,-1.682 15.735,-9.265 20.399,-14.612 l 26.213,8.014 C 35.365,-11.969 7.476,-1.464 0,0"
       style="fill:#faa61a;fill-opacity:1;fill-rule:nonzero;stroke:none"
       transform="matrix(1.3333333,0,0,-1.3333333,242.11413,387.3536)"
       clip-path="url(#clipPath24)" />
    <path
       id="path25"
       d="m 0,0 c -0.374,-1.255 -1.976,-6.568 -2.27,-7.662 l 0.027,-0.027 c 0.347,0.4 1.015,1.121 2.19,1.495 2.723,0.801 2.83,-1.922 2.83,-3.417 v -0.801 c 0,-0.561 0,-2.243 1.468,-1.816 1.655,0.481 2.35,3.071 2.67,6.488 L 8.73,-5.793 c -0.454,-4.246 -1.415,-7.609 -4.645,-8.571 -3.204,-0.961 -3.231,2.27 -3.231,3.311 v 0.641 c 0,1.201 0.027,2.429 -1.281,2.029 -1.709,-0.508 -2.75,-2.536 -3.364,-4.539 -0.16,-0.694 -0.828,-3.658 -0.988,-4.271 l -1.975,0.026 c 1.014,3.551 3.443,12.628 4.591,16.927 z"
       style="fill:#faa61a;fill-opacity:1;fill-rule:nonzero;stroke:none"
       transform="matrix(1.3333333,0,0,-1.3333333,248.1252,284.01773)"
       clip-path="url(#clipPath26)" />
    <path
       id="path27"
       d="m 0,0 v -2.127 c -0.458,-0.081 -0.889,-0.162 -1.75,-0.431 -2.936,-0.862 -7.702,-5.736 -7.729,-9.506 -0.027,-2.128 1.777,-2.263 2.989,-2.235 1.077,0.027 2.639,0.269 4.793,0.915 l -0.269,-2.343 c -1.75,-0.458 -3.77,-0.888 -5.467,-0.808 -1.884,0.054 -4.066,0.862 -4.066,3.743 0.027,1.563 0.673,4.875 4.848,8.726 l -0.028,0.026 c -3.823,-1.265 -4.281,-1.4 -8.24,-2.773 v 2.154 c 0.7,0.189 5.655,1.751 7.702,2.397 z"
       style="fill:#faa61a;fill-opacity:1;fill-rule:nonzero;stroke:none"
       transform="matrix(1.3333333,0,0,-1.3333333,209.2216,296.7208)"
       clip-path="url(#clipPath28)" />
    <path
       id="path29"
       d="m 0,0 -3.87,-1.184 c -2.533,-0.781 -5.32,-0.027 -7.244,2.815 l -8.829,13.046 -25.66,-7.845 11.618,-17.223 -31.648,-9.675 19.154,62.65 c 0.837,2.738 2.326,4.454 4.367,5.094 l 6.438,1.968 v 10.42 l -31.605,-9.662 -22.743,-74.39 c -0.881,-2.881 -2.584,-4.327 -4.398,-4.881 l -3.918,-1.198 v -15.063 l 106.761,32.64 z"
       style="fill:#f15a22;fill-opacity:1;fill-rule:nonzero;stroke:none"
       transform="matrix(1.3333333,0,0,-1.3333333,501.2508,154.37907)"
       clip-path="url(#clipPath30)" />
    <path
       id="path31"
       d="m 0,0 c 9.719,15.41 11.095,25.107 12.469,35.788 0.48,3.864 2.319,5.861 4.399,6.497 l 3.866,1.182 V 57.879 L -69.764,30.21 V 14.944 l 56.676,17.327 c -1.306,-20.14 -8.534,-47.096 -40.262,-56.796 l -16.414,-5.019 v -15.074 l 16.778,5.131 c 21.717,6.638 32.202,13.017 45.009,28.788 3.306,-1.606 7.676,-5.54 10.154,-11.925 l 25.541,7.81 C 24.123,-10.4 8.854,-1.168 0,0 m 6.646,57.616 c 3.649,1.134 5.604,4.932 4.541,8.511 -1.134,3.58 -4.933,5.605 -8.512,4.541 -3.65,-1.064 -5.606,-4.933 -4.541,-8.512 1.134,-3.578 4.932,-5.604 8.512,-4.54 m 7.488,9.432 c -1.064,3.579 0.891,7.378 4.541,8.512 3.579,1.134 7.448,-0.891 8.512,-4.54 1.134,-3.58 -0.892,-7.378 -4.541,-8.513 -3.579,-1.064 -7.377,0.892 -8.512,4.541"
       style="fill:#faa61a;fill-opacity:1;fill-rule:nonzero;stroke:none"
       transform="matrix(1.3333333,0,0,-1.3333333,324.70133,212.3172)"
       clip-path="url(#clipPath32)" />
    <path
       id="path33"
       d="m 0,0 -2.13,-0.651 c -3.358,-1.027 -5.004,0.089 -5.004,2.201 v 22.977 c 0,3.087 1.122,5.433 4.245,6.388 L 0,31.798 V 42.975 L -35.179,32.22 V 21.043 l 2.137,0.653 c 3.368,1.03 4.998,-0.081 4.998,-2.181 V -3.461 c 0,-3.117 -1.124,-5.457 -4.239,-6.409 l -2.896,-0.885 V -21.91 L 0,-11.155 Z M 62.111,61.964 V 50.788 L 59.373,49.95 C 56.214,48.985 55.138,46.744 55.139,43.582 V -2.161 c 0,-14.969 -8.041,-26.455 -20.646,-30.264 l -62.27,-19.038 v 15.037 l 44.529,13.614 c 8.555,2.627 12.558,10.061 12.558,20.166 v 39.701 c 0,2.1 -1.638,3.203 -5.001,2.175 l -2.234,-0.683 v 11.177 z"
       style="fill:#f15a22;fill-opacity:1;fill-rule:nonzero;stroke:none"
       transform="matrix(1.3333333,0,0,-1.3333333,129.8908,222.06387)"
       clip-path="url(#clipPath34)" />
    <path
       id="path35"
       d="M 0,0 V 9.492 L -2.212,-0.552 -4.608,-1.148 -6.768,7.805 V -1.687 L -9.032,-2.252 V 9.111 l 3.538,0.882 2.134,-8.48 0.025,0.006 2.081,9.532 3.492,0.871 V 0.559 Z m -16.352,-4.077 v 9.348 l -3.643,-0.909 v 2.009 l 9.637,2.403 V 6.766 L -13.87,5.89 v -9.348 z"
       style="fill:#130c0e;fill-opacity:1;fill-rule:nonzero;stroke:none"
       transform="matrix(1.3333333,0,0,-1.3333333,663.68187,527.36467)"
       clip-path="url(#clipPath36)" />
  </g>
</svg>
