<?xml version="1.0" encoding="UTF-8" standalone="no"?>
<!-- Created with Inkscape (http://www.inkscape.org/) -->

<svg
   version="1.1"
   id="svg1"
   width="666.66669"
   height="313.84668"
   viewBox="0 0 666.66669 313.84668"
   sodipodi:docname="Rhythm Tengoku Gold (リズム天国ゴールド) Logo (Horizontal).ai"
   xmlns:inkscape="http://www.inkscape.org/namespaces/inkscape"
   xmlns:sodipodi="http://sodipodi.sourceforge.net/DTD/sodipodi-0.dtd"
   xmlns="http://www.w3.org/2000/svg"
   xmlns:svg="http://www.w3.org/2000/svg">
  <defs
     id="defs1">
    <clipPath
       clipPathUnits="userSpaceOnUse"
       id="clipPath2">
      <path
         d="M 0,235.385 H 500 V 0 H 0 Z"
         transform="translate(-500.00002,-160.8465)"
         id="path2" />
    </clipPath>
    <clipPath
       clipPathUnits="userSpaceOnUse"
       id="clipPath4">
      <path
         d="M 0,235.385 H 500 V 0 H 0 Z"
         transform="translate(-492.15431,-160.8465)"
         id="path4" />
    </clipPath>
    <clipPath
       clipPathUnits="userSpaceOnUse"
       id="clipPath6">
      <path
         d="M 0,235.385 H 500 V 0 H 0 Z"
         transform="translate(-425.46091,-219.69321)"
         id="path6" />
    </clipPath>
    <clipPath
       clipPathUnits="userSpaceOnUse"
       id="clipPath8">
      <path
         d="M 0,235.385 H 500 V 0 H 0 Z"
         transform="translate(-387.86911,-94.215705)"
         id="path8" />
    </clipPath>
    <clipPath
       clipPathUnits="userSpaceOnUse"
       id="clipPath10">
      <path
         d="M 0,235.385 H 500 V 0 H 0 Z"
         transform="translate(-297.67681,-77.424202)"
         id="path10" />
    </clipPath>
    <clipPath
       clipPathUnits="userSpaceOnUse"
       id="clipPath12">
      <path
         d="M 0,235.385 H 500 V 0 H 0 Z"
         transform="translate(-228.61771,-75.567704)"
         id="path12" />
    </clipPath>
    <clipPath
       clipPathUnits="userSpaceOnUse"
       id="clipPath14">
      <path
         d="M 0,235.385 H 500 V 0 H 0 Z"
         transform="translate(-195.4966,-110.21471)"
         id="path14" />
    </clipPath>
    <clipPath
       clipPathUnits="userSpaceOnUse"
       id="clipPath16">
      <path
         d="M 0,235.385 H 500 V 0 H 0 Z"
         transform="translate(-426.67681,-152.996)"
         id="path16" />
    </clipPath>
    <clipPath
       clipPathUnits="userSpaceOnUse"
       id="clipPath18">
      <path
         d="M 0,235.385 H 500 V 0 H 0 Z"
         transform="translate(-443.65231,-198.3378)"
         id="path18" />
    </clipPath>
    <clipPath
       clipPathUnits="userSpaceOnUse"
       id="clipPath20">
      <path
         d="M 0,235.385 H 500 V 0 H 0 Z"
         transform="translate(-413.28711,-202.45401)"
         id="path20" />
    </clipPath>
    <clipPath
       clipPathUnits="userSpaceOnUse"
       id="clipPath22">
      <path
         d="M 0,235.385 H 500 V 0 H 0 Z"
         transform="translate(-372.15041,-177.6932)"
         id="path22" />
    </clipPath>
    <clipPath
       clipPathUnits="userSpaceOnUse"
       id="clipPath24">
      <path
         d="M 0,235.385 H 500 V 0 H 0 Z"
         transform="translate(-354.15231,-203.43441)"
         id="path24" />
    </clipPath>
    <clipPath
       clipPathUnits="userSpaceOnUse"
       id="clipPath26">
      <path
         d="M 0,235.385 H 500 V 0 H 0 Z"
         transform="translate(-331.99021,-201.34701)"
         id="path26" />
    </clipPath>
    <clipPath
       clipPathUnits="userSpaceOnUse"
       id="clipPath28">
      <path
         d="M 0,235.385 H 500 V 0 H 0 Z"
         transform="translate(-201.3433,-138.2108)"
         id="path28" />
    </clipPath>
    <clipPath
       clipPathUnits="userSpaceOnUse"
       id="clipPath30">
      <path
         d="M 0,235.385 H 500 V 0 H 0 Z"
         transform="translate(-126.94731,-168.6815)"
         id="path30" />
    </clipPath>
    <clipPath
       clipPathUnits="userSpaceOnUse"
       id="clipPath32">
      <path
         d="M 0,235.385 H 500 V 0 H 0 Z"
         transform="translate(-67.130902,-157.328)"
         id="path32" />
    </clipPath>
  </defs>
  <sodipodi:namedview
     id="namedview1"
     pagecolor="#ffffff"
     bordercolor="#000000"
     borderopacity="0.25"
     inkscape:showpageshadow="2"
     inkscape:pageopacity="0.0"
     inkscape:pagecheckerboard="0"
     inkscape:deskcolor="#d1d1d1">
    <inkscape:page
       x="0"
       y="0"
       inkscape:label="1"
       id="page1"
       width="666.66669"
       height="313.84668"
       margin="0"
       bleed="0" />
  </sodipodi:namedview>
  <g
     id="layer-MC0"
     inkscape:groupmode="layer"
     inkscape:label="Layer 1">
    <path
       id="path1"
       d="m 0,0 c 0,41.101 -33.438,74.539 -74.539,74.539 -16.203,0 -31.793,-5.282 -44.559,-14.834 -12.77,9.552 -28.36,14.834 -44.563,14.834 -15.519,0 -30.624,-4.93 -43.154,-13.843 -25.061,17.827 -61.247,17.827 -86.309,0 -12.53,8.913 -27.635,13.843 -43.153,13.843 -16.219,0 -31.814,-5.292 -44.595,-14.855 -12.771,9.568 -28.371,14.855 -44.589,14.855 C -466.562,74.539 -500,41.101 -500,0 c 0,-41.06 33.372,-74.472 74.416,-74.539 -0.613,-3.866 -0.924,-7.8 -0.924,-11.769 0,-41.101 33.438,-74.538 74.538,-74.538 12.47,0 24.489,3.064 35.308,8.933 21.639,-11.738 48.977,-11.738 70.616,0 22.149,-12.019 50.469,-11.621 72.444,0.996 11.248,-6.456 24.085,-9.929 37.142,-9.929 41.101,0 74.538,33.437 74.538,74.538 0,4.25 -0.367,8.49 -1.088,12.658 C -27.364,-68.087 0,-37.177 0,0"
       style="fill:#00b3f0;fill-opacity:1;fill-rule:nonzero;stroke:none"
       transform="matrix(1.3333333,0,0,-1.3333333,666.66667,99.384667)"
       clip-path="url(#clipPath2)" />
    <path
       id="path3"
       d="m 0,0 c 0,36.774 -29.919,66.693 -66.693,66.693 -16.545,0 -32.375,-6.161 -44.559,-17.133 -12.187,10.972 -28.019,17.133 -44.563,17.133 -15.816,0 -31.156,-5.732 -43.155,-15.933 -11.999,10.201 -27.339,15.933 -43.154,15.933 -15.814,0 -31.154,-5.732 -43.154,-15.933 -11.999,10.201 -27.339,15.933 -43.154,15.933 -16.56,0 -32.401,-6.171 -44.594,-17.159 -12.188,10.988 -28.029,17.159 -44.59,17.159 -36.774,0 -66.692,-29.919 -66.692,-66.693 0,-36.773 29.918,-66.692 66.692,-66.692 3.357,0 6.682,0.25 9.967,0.751 -2.09,-6.529 -3.167,-13.384 -3.167,-20.367 0,-36.774 29.918,-66.692 66.692,-66.692 12.602,0 24.698,3.503 35.308,10.175 21.219,-13.342 49.396,-13.342 70.615,0 21.746,-13.675 51.083,-13.179 72.445,1.139 10.942,-7.33 23.916,-11.314 37.142,-11.314 36.773,0 66.692,29.918 66.692,66.692 0,6.666 -1.012,13.297 -2.963,19.641 C -28.943,-65.707 0,-36.171 0,0"
       style="fill:#ffffff;fill-opacity:1;fill-rule:nonzero;stroke:none"
       transform="matrix(1.3333333,0,0,-1.3333333,656.20573,99.384667)"
       clip-path="url(#clipPath4)" />
    <path
       id="path5"
       d="M 0,0 C -17.828,0 -33.77,-7.959 -44.561,-20.482 -55.352,-7.959 -71.294,0 -89.122,0 -106.197,0 -121.526,-7.317 -132.276,-18.934 -143.026,-7.317 -158.355,0 -175.43,0 -192.506,0 -207.835,-7.317 -218.584,-18.934 -229.334,-7.317 -244.663,0 -261.738,0 -279.583,0 -295.539,-7.974 -306.331,-20.517 -317.123,-7.974 -333.079,0 -350.923,0 c -32.5,0 -58.847,-26.346 -58.847,-58.847 0,-32.5 26.347,-58.846 58.847,-58.846 8.853,0 17.218,2.011 24.75,5.513 -6.376,-9.406 -10.104,-20.755 -10.104,-32.974 0,-32.501 26.346,-58.846 58.846,-58.846 13.267,0 25.466,4.442 35.308,11.848 9.842,-7.406 22.041,-11.848 35.308,-11.848 13.267,0 25.465,4.442 35.308,11.848 9.842,-7.406 22.041,-11.848 35.308,-11.848 14.087,0 27.008,4.962 37.138,13.218 10.13,-8.256 23.051,-13.218 37.138,-13.218 32.501,0 58.847,26.345 58.847,58.846 0,10.318 -2.672,20.004 -7.337,28.436 3.385,-0.606 6.852,-0.975 10.413,-0.975 32.5,0 58.846,26.346 58.846,58.846 C 58.846,-26.346 32.5,0 0,0"
       style="fill:#130c0e;fill-opacity:1;fill-rule:nonzero;stroke:none"
       transform="matrix(1.3333333,0,0,-1.3333333,567.2812,20.9224)"
       clip-path="url(#clipPath6)" />
    <path
       id="path7"
       d="m 0,0 c -2.76,-0.013 -4.912,-2.223 -4.934,-4.919 0.013,-2.76 2.224,-4.913 4.92,-4.934 2.76,0.013 4.961,2.209 4.934,4.92 C 4.955,-2.188 2.711,0.028 0,0 m -31.583,-11.961 3.654,11.952 c 0.602,1.968 2.844,3.569 5.017,3.569 h 1.677 l 2.454,8.029 H -49.574 L -52.029,3.56 h 2.978 c 1.456,0 2.297,-1.071 1.898,-2.377 l -11.325,-37.038 c -0.601,-1.968 -2.844,-3.568 -5.016,-3.568 h -1.677 l -2.455,-8.03 h 30.794 l 2.455,8.03 h -2.978 c -1.458,0 -2.297,1.07 -1.898,2.376 l 4.635,15.158 c 0,0 14.347,0.872 27.762,-20.497 l 5.29,17.303 c -10.921,13.288 -30.017,13.122 -30.017,13.122 m 14.566,7.041 c 0.021,2.697 2.189,4.956 4.934,4.92 2.696,-0.021 4.892,-2.222 4.919,-4.933 -0.021,-2.697 -2.173,-4.907 -4.933,-4.92 -2.696,0.021 -4.892,2.222 -4.92,4.933"
       style="fill:#faa61a;fill-opacity:1;fill-rule:nonzero;stroke:none"
       transform="matrix(1.3333333,0,0,-1.3333333,517.1588,188.22573)"
       clip-path="url(#clipPath8)" />
    <path
       id="path9"
       d="m 0,0 c 0,0 -6.774,-17.707 -19.425,-20.174 l 11.189,36.6 c 0.535,1.749 2.508,3.157 4.422,3.157 l 1.932,0.001 2.405,7.868 H -24.25 l -17.767,-58.113 h 16.145 C 0.07,-30.661 10.626,-14.754 18.544,0 Z M -34.707,20.706 -45.352,-14.11 c -4.342,-14.204 -13.917,-16.551 -29.189,-16.552 l 3.221,10.534 c 6.803,0.001 9.826,4.939 11.114,9.152 l 6.332,20.713 c 0.535,1.749 -0.572,3.158 -2.49,3.158 h -1.835 l 2.388,7.811 z"
       style="fill:#f15a22;fill-opacity:1;fill-rule:nonzero;stroke:none"
       transform="matrix(1.3333333,0,0,-1.3333333,396.9024,210.6144)"
       clip-path="url(#clipPath10)" />
    <path
       id="path11"
       d="m 0,0 h -35.999 l -3.287,-10.751 35.999,-0.001 z"
       style="fill:#faa61a;fill-opacity:1;fill-rule:nonzero;stroke:none"
       transform="matrix(1.3333333,0,0,-1.3333333,304.8236,213.08973)"
       clip-path="url(#clipPath12)" />
    <path
       id="path13"
       d="m 0,0 c -2.734,-0.013 -4.867,-2.203 -4.888,-4.875 0.013,-2.734 2.203,-4.867 4.875,-4.888 2.734,0.013 4.915,2.189 4.888,4.875 C 4.91,-2.168 2.687,0.027 0,0 m -73.748,-22.782 h 35.198 c 4.309,0 6.799,-3.176 5.598,-7.104 l -7.036,-23.014 -42.968,-0.001 -3.226,-10.551 h 62.107 l 11.753,38.442 c 0.464,1.518 2.452,2.768 4.138,2.768 h 2.88 l 3.089,10.105 h -68.278 z m 56.888,17.907 c 0.02,2.672 2.168,4.91 4.887,4.875 2.672,-0.021 4.848,-2.202 4.875,-4.888 -0.02,-2.672 -2.153,-4.862 -4.888,-4.875 -2.672,0.021 -4.847,2.202 -4.874,4.888"
       style="fill:#f15a22;fill-opacity:1;fill-rule:nonzero;stroke:none"
       transform="matrix(1.3333333,0,0,-1.3333333,260.66213,166.89373)"
       clip-path="url(#clipPath14)" />
    <path
       id="path15"
       d="M 0,0 H 4.464 L 2.703,-5.76 H -1.761 Z M 11.886,24.276 10.442,19.554 H 5.565 C 3.481,19.554 1.971,18.462 1.218,16 L -1.155,8.241 H 6.983 L 5.434,3.172 -2.705,3.171 -5.617,-6.354 c -0.458,-1.499 0.471,-2.578 3.008,-2.578 h 4.342 l -1.434,-4.692 h -27.932 l 1.435,4.692 h 4.93 c 2.014,0 3.555,1.135 4.297,3.564 l 2.612,8.54 h -8.139 l 1.55,5.069 h 8.138 l 2.674,8.745 c 0.31,1.014 0.117,2.568 -2.957,2.568 h -4.396 l 1.444,4.722 z M 3.183,-17.272 h -39.311 l 12.532,40.991 c 0.678,2.218 2.348,3.56 4.46,3.553 h 39.31 L 7.642,-13.719 c -0.726,-2.375 -2.508,-3.564 -4.459,-3.553 m 35.24,52.384 -74.379,10e-4 -18.407,-60.206 74.379,-0.001 z"
       style="fill:#f15a22;fill-opacity:1;fill-rule:nonzero;stroke:none"
       transform="matrix(1.3333333,0,0,-1.3333333,568.9024,109.852)"
       clip-path="url(#clipPath16)" />
    <path
       id="path17"
       d="M 0,0 C 3.563,2.206 3.981,2.444 6.407,4.124 L 5.305,5.111 C 4.242,4.297 4.152,4.203 -0.176,1.355 c -1.095,-0.722 -2.039,-1.41 -2.237,-2.062 -0.205,-0.669 0.369,-1.251 0.865,-1.627 2.413,-1.755 3.316,-2.397 4.991,-4.232 l 1.592,1.08 C 4.116,-4.432 1.576,-2.496 0.05,-1.5 -0.257,-1.305 -0.764,-0.967 -0.661,-0.632 -0.594,-0.409 -0.346,-0.199 0,0"
       style="fill:#f15a22;fill-opacity:1;fill-rule:nonzero;stroke:none"
       transform="matrix(1.3333333,0,0,-1.3333333,591.5364,49.396267)"
       clip-path="url(#clipPath18)" />
    <path
       id="path19"
       d="m 0,0 -0.444,-1.451 c 1.062,0.057 2.853,0.072 4.608,0.097 L 4.177,-1.377 C 3.215,-1.766 3.119,-1.817 2.609,-2.103 l 0.643,-0.919 c 1.769,0.924 3.099,1.462 4.811,1.742 L 8.45,-0.013 2.643,-0.025 C 1.98,-0.023 0.377,-0.015 0,0 m 7.753,-4.198 1.067,0.537 c -0.111,0.557 -0.322,1.244 -0.665,1.83 L 7.093,-2.349 c 0.326,-0.642 0.464,-1.046 0.66,-1.849 m 2.518,3.246 -0.996,-0.498 c 0.122,-0.258 0.353,-0.751 0.587,-1.826 l 1.043,0.524 c -0.1,0.393 -0.282,1.111 -0.634,1.8 m -10.546,-3.1 0.827,-0.776 c -1.426,-1.05 -1.76,-2.012 -1.833,-2.251 -0.511,-1.671 1.968,-1.706 3.894,-1.712 1.264,-0.005 2.563,0.04 3.865,0.224 l -0.402,-1.444 c -0.466,-0.078 -1.399,-0.175 -3.409,-0.182 -2.546,0.015 -3.618,0.122 -4.561,0.651 -0.77,0.437 -1.153,1.417 -0.844,2.427 0.365,1.194 1.189,1.986 2.463,3.063"
       style="fill:#f15a22;fill-opacity:1;fill-rule:nonzero;stroke:none"
       transform="matrix(1.3333333,0,0,-1.3333333,551.04947,43.908)"
       clip-path="url(#clipPath20)" />
    <path
       id="path21"
       d="M 0,0 3.206,10.486 H -71.405 L -74.611,0 h 27.173 l -2.878,-9.413 h -27.173 l -3.214,-10.513 h 27.173 l -1.189,-3.887 c -3.805,-12.449 -12.05,-15.435 -23.185,-15.442 h -8.708 l -3.221,-10.536 h 18.965 c 14.565,-0.006 20.705,3.279 29.837,14.267 2.545,-2.037 8.829,-9.631 10.901,-14.267 h 19.615 c -3.556,7.563 -20.443,20.587 -25.253,23.153 l 2.053,6.712 h 27.623 l 3.214,10.513 H -30.501 L -27.623,0 Z"
       style="fill:#faa61a;fill-opacity:1;fill-rule:nonzero;stroke:none"
       transform="matrix(1.3333333,0,0,-1.3333333,496.20053,76.9224)"
       clip-path="url(#clipPath22)" />
    <path
       id="path23"
       d="m 0,0 c -1.685,-2.701 -5.246,-8.404 -6.684,-10.622 l 1.347,-0.432 c 0.237,0.387 1.315,2.275 1.569,2.717 0.839,1.241 1.977,2.412 3.252,2.402 0.979,0 0.703,-0.835 0.453,-1.657 L -0.197,-8.03 c -0.218,-0.713 -0.876,-2.929 1.517,-2.942 2.412,-0.018 3.774,2.083 4.972,4.893 l -1.23,0.416 C 4.127,-7.934 3.11,-9.561 1.877,-9.543 0.782,-9.529 1.135,-8.377 1.252,-7.994 l 0.167,0.548 c 0.313,1.023 0.81,2.909 -1.221,2.931 -0.883,-0.01 -1.49,-0.364 -1.811,-0.566 l -0.013,0.024 c 0.43,0.688 2.638,3.989 3.156,4.769 z"
       style="fill:#faa61a;fill-opacity:1;fill-rule:nonzero;stroke:none"
       transform="matrix(1.3333333,0,0,-1.3333333,472.20307,42.6008)"
       clip-path="url(#clipPath24)" />
    <path
       id="path25"
       d="M 0,0 C 0.646,0.004 0.957,-0.031 1.288,-0.071 L 1.732,1.384 -3.68,1.346 C -5.215,1.332 -8.933,1.3 -9.451,1.317 l -0.45,-1.474 c 2.996,0.112 3.337,0.108 6.218,0.175 l 0.013,-0.025 c -3.662,-1.762 -4.797,-3.893 -5.143,-4.956 -0.602,-1.972 0.721,-2.981 2.001,-3.412 1.143,-0.411 2.616,-0.538 3.91,-0.591 l 0.673,1.547 c -1.609,0.008 -2.728,0.169 -3.471,0.376 -0.835,0.235 -2.041,0.705 -1.578,2.155 C -6.471,-2.314 -2.189,0.024 0,0"
       style="fill:#faa61a;fill-opacity:1;fill-rule:nonzero;stroke:none"
       transform="matrix(1.3333333,0,0,-1.3333333,442.6536,45.384)"
       clip-path="url(#clipPath26)" />
    <path
       id="path27"
       d="M 0,0 H -2.932 L -6.083,-10.308 73.802,-10.309 70.651,0 H 67.755 C 65.858,-0.005 64.108,1.093 63.387,3.441 L 60.074,14.215 H 40.875 L 45.221,0 H 21.54 l 26.215,38.864 c 1.145,1.699 2.523,2.561 4.053,2.572 h 4.818 l 2.18,7.13 H 35.157 L 4.031,2.42 C 2.825,0.633 1.357,0 0,0"
       style="fill:#f15a22;fill-opacity:1;fill-rule:nonzero;stroke:none"
       transform="matrix(1.3333333,0,0,-1.3333333,268.45773,129.5656)"
       clip-path="url(#clipPath28)" />
    <path
       id="path29"
       d="M 0,0 H 42.409 C 37.302,-13.509 26.716,-30.443 2.975,-30.443 H -9.307 l -3.154,-10.315 H 0.094 c 16.25,0 24.759,2.171 36.823,10.283 1.926,-1.79 4.093,-5.396 4.453,-10.283 h 19.111 c -1.536,3.773 -10.054,13.284 -15.868,15.936 9.875,8.512 12.845,14.86 16.02,21.881 1.137,2.544 2.813,3.526 4.37,3.526 h 2.893 l 3.015,9.862 H 3.194 Z m 61.215,13.214 c 2.734,0.013 4.868,2.203 4.888,4.875 -0.027,2.686 -2.203,4.868 -4.875,4.888 -2.72,0.035 -4.867,-2.203 -4.888,-4.874 0.028,-2.687 2.203,-4.868 4.875,-4.889 m 16.861,4.875 c 0.027,-2.686 -2.154,-4.862 -4.888,-4.875 -2.672,0.021 -4.862,2.154 -4.875,4.889 0.02,2.671 2.153,4.861 4.888,4.874 2.686,0.027 4.91,-2.168 4.875,-4.888"
       style="fill:#faa61a;fill-opacity:1;fill-rule:nonzero;stroke:none"
       transform="matrix(1.3333333,0,0,-1.3333333,169.26307,88.938)"
       clip-path="url(#clipPath30)" />
    <path
       id="path31"
       d="M 0,0 H -1.594 C -4.106,0 -5,1.108 -4.558,2.553 L 0.25,18.276 c 0.646,2.113 1.904,3.484 4.241,3.484 h 2.162 l 2.338,7.648 H -17.332 L -19.67,21.76 h 1.599 c 2.52,0 3.403,-1.102 2.963,-2.538 L -19.915,3.499 C -20.567,1.366 -21.825,0 -24.156,0 h -2.167 l -2.333,-7.633 h 26.323 z m 16.819,-29.405 h -46.593 l 3.146,10.29 H 6.691 c 6.403,0.008 10.698,4.257 12.813,11.173 l 8.306,27.167 c 0.439,1.437 -0.451,2.535 -2.968,2.535 h -1.671 l 2.338,7.648 h 29.958 l -2.339,-7.649 h -2.049 c -2.363,0 -3.568,-1.308 -4.229,-3.471 l -9.571,-31.303 c -3.132,-10.243 -11.036,-16.42 -20.46,-16.39"
       style="fill:#f15a22;fill-opacity:1;fill-rule:nonzero;stroke:none"
       transform="matrix(1.3333333,0,0,-1.3333333,89.507867,104.076)"
       clip-path="url(#clipPath32)" />
  </g>
</svg>
