<?xml version="1.0" encoding="UTF-8" standalone="no"?>
<!-- Created with Inkscape (http://www.inkscape.org/) -->

<svg
   version="1.1"
   id="svg1"
   width="666.66669"
   height="521.00665"
   viewBox="0 0 666.66669 521.00665"
   sodipodi:docname="Rhythm World (리듬 세상) Logo with Tagline.ai"
   xmlns:inkscape="http://www.inkscape.org/namespaces/inkscape"
   xmlns:sodipodi="http://sodipodi.sourceforge.net/DTD/sodipodi-0.dtd"
   xmlns="http://www.w3.org/2000/svg"
   xmlns:svg="http://www.w3.org/2000/svg">
  <defs
     id="defs1">
    <clipPath
       clipPathUnits="userSpaceOnUse"
       id="clipPath2">
      <path
         d="M 0,390.755 H 500 V 0 H 0 Z"
         transform="translate(-470.94051,-80.1003)"
         id="path2" />
    </clipPath>
    <clipPath
       clipPathUnits="userSpaceOnUse"
       id="clipPath4">
      <path
         d="M 0,390.755 H 500 V 0 H 0 Z"
         transform="translate(-399.43071,-382.23021)"
         id="path4" />
    </clipPath>
    <clipPath
       clipPathUnits="userSpaceOnUse"
       id="clipPath6">
      <path
         d="M 0,390.755 H 500 V 0 H 0 Z"
         transform="translate(-399.43071,-374.43091)"
         id="path6" />
    </clipPath>
    <clipPath
       clipPathUnits="userSpaceOnUse"
       id="clipPath8">
      <path
         d="M 0,390.755 H 500 V 0 H 0 Z"
         transform="translate(-399.42971,-367.65601)"
         id="path8" />
    </clipPath>
    <clipPath
       clipPathUnits="userSpaceOnUse"
       id="clipPath10">
      <path
         d="M 0,390.755 H 500 V 0 H 0 Z"
         transform="translate(-386.40531,-287.90991)"
         id="path10" />
    </clipPath>
    <clipPath
       clipPathUnits="userSpaceOnUse"
       id="clipPath12">
      <path
         d="M 0,390.755 H 500 V 0 H 0 Z"
         transform="translate(-320.58111,-345.44701)"
         id="path12" />
    </clipPath>
    <clipPath
       clipPathUnits="userSpaceOnUse"
       id="clipPath14">
      <path
         d="M 0,390.755 H 500 V 0 H 0 Z"
         transform="translate(-179.41611,-256.0632)"
         id="path14" />
    </clipPath>
    <clipPath
       clipPathUnits="userSpaceOnUse"
       id="clipPath16">
      <path
         d="M 0,390.755 H 500 V 0 H 0 Z"
         transform="translate(-104.0196,-304.85911)"
         id="path16" />
    </clipPath>
    <clipPath
       clipPathUnits="userSpaceOnUse"
       id="clipPath18">
      <path
         d="M 0,390.755 H 500 V 0 H 0 Z"
         transform="translate(-493.80871,-189.9792)"
         id="path18" />
    </clipPath>
  </defs>
  <sodipodi:namedview
     id="namedview1"
     pagecolor="#ffffff"
     bordercolor="#000000"
     borderopacity="0.25"
     inkscape:showpageshadow="2"
     inkscape:pageopacity="0.0"
     inkscape:pagecheckerboard="0"
     inkscape:deskcolor="#d1d1d1">
    <inkscape:page
       x="0"
       y="0"
       inkscape:label="1"
       id="page1"
       width="666.66669"
       height="521.00665"
       margin="0"
       bleed="0" />
  </sodipodi:namedview>
  <g
     id="layer-MC0"
     inkscape:groupmode="layer"
     inkscape:label="Layer 1">
    <path
       id="path1"
       d="M 0,0 6.792,1.356 7.33,7.634 0.539,6.278 Z M 9.08,28.034 8.346,19.466 5.998,9.415 2.225,8.661 1.554,18.109 2.289,26.678 Z M -9.642,15.012 c 0.044,0.507 -0.013,0.935 -0.168,1.284 -0.158,0.348 -0.401,0.617 -0.729,0.815 -0.286,0.155 -0.61,0.258 -0.98,0.303 -0.368,0.046 -0.778,0.022 -1.234,-0.069 l -4.687,-0.936 -0.512,-5.973 4.686,0.935 c 0.432,0.086 0.839,0.22 1.228,0.404 0.388,0.185 0.754,0.429 1.104,0.737 0.374,0.335 0.673,0.717 0.897,1.14 0.222,0.424 0.354,0.876 0.395,1.36 m 6.284,1.254 C -3.46,15.084 -3.775,13.952 -4.301,12.874 -4.829,11.795 -5.566,10.782 -6.514,9.834 -7.466,8.862 -8.463,8.075 -9.507,7.476 c -1.045,-0.6 -2.134,-1.014 -3.266,-1.241 l -5.636,-1.125 -0.767,-8.937 -5.908,-1.18 2.192,25.559 11.544,2.303 c 1.109,0.222 2.152,0.243 3.129,0.058 0.974,-0.185 1.861,-0.579 2.651,-1.18 0.838,-0.641 1.44,-1.416 1.81,-2.327 0.366,-0.911 0.501,-1.959 0.4,-3.14 M -25.999,3.521 c -0.103,-1.202 -0.43,-2.386 -0.978,-3.551 -0.55,-1.166 -1.335,-2.315 -2.355,-3.449 -1.108,-1.266 -2.332,-2.286 -3.669,-3.066 -1.341,-0.777 -2.798,-1.322 -4.373,-1.637 -1.55,-0.309 -2.947,-0.334 -4.198,-0.073 -1.251,0.263 -2.34,0.821 -3.262,1.682 -0.861,0.759 -1.472,1.629 -1.836,2.612 -0.366,0.982 -0.495,2.076 -0.392,3.276 l 1.432,16.698 6.246,1.247 -1.456,-16.977 c -0.037,-0.436 0.007,-0.848 0.139,-1.23 0.128,-0.384 0.342,-0.738 0.637,-1.064 0.366,-0.382 0.813,-0.633 1.339,-0.756 0.526,-0.122 1.133,-0.114 1.818,0.023 0.66,0.132 1.271,0.367 1.84,0.708 0.565,0.34 1.069,0.781 1.515,1.325 0.39,0.463 0.685,0.918 0.885,1.368 0.203,0.447 0.32,0.893 0.357,1.329 l 1.457,16.977 6.287,1.254 z m -36.671,-14.945 0.245,3.369 -8.063,-1.609 -0.29,-3.379 z m -14.191,-7.62 1.123,13.097 19.338,3.86 -1.123,-13.098 z m -3.233,13.148 0.89,10.375 10.604,2.116 0.083,0.97 -10.603,-2.116 0.417,4.865 16.349,3.264 -0.891,-10.378 -10.881,-2.172 -0.083,-0.97 12.831,2.561 0.974,11.348 5.474,1.094 -0.333,-3.893 3.549,0.709 -0.417,-4.863 -3.549,-0.708 -0.686,-7.999 -5.475,-1.093 0.046,0.542 z m -2.91,15.144 -0.358,-4.183 3.123,0.623 -0.451,-5.263 -3.124,-0.623 -1.313,-15.308 -6.309,-1.259 2.124,24.754 z m -15.07,-15.723 0.3,3.5 -3.943,-0.787 -0.3,-3.5 z m -2.833,12.15 -0.335,-3.91 3.942,0.787 0.335,3.91 6.089,1.215 -1.565,-18.241 -16.122,-3.219 1.565,18.242 z m -23.26,-22.466 -0.524,-6.114 13.091,2.613 -0.414,-4.826 -18.947,-3.782 0.939,10.94 z m 3.285,1.369 -5.43,7.603 -6.675,-9.839 -4.876,1.918 12.21,17.911 8.882,-11.7 1.095,12.775 5.857,1.169 -1.898,-22.119 -5.856,-1.169 0.559,6.519 z m -30.962,-6.161 -0.166,-1.932 8.996,1.796 -0.414,-4.832 -23.969,-4.785 0.415,4.832 9.066,1.811 0.166,1.93 -6.531,-1.303 0.936,10.918 14.312,2.856 0.086,0.996 -14.312,-2.857 0.414,4.833 19.073,3.806 -0.915,-10.66 -14.486,-2.891 -0.108,-1.256 14.487,2.892 -0.414,-4.83 z m -32.485,2.47 c -0.08,-0.93 0.209,-1.646 0.868,-2.149 0.658,-0.506 1.49,-0.658 2.495,-0.457 1.005,0.2 1.893,0.696 2.662,1.487 0.769,0.788 1.194,1.646 1.274,2.576 0.079,0.927 -0.21,1.649 -0.867,2.165 -0.658,0.516 -1.489,0.674 -2.495,0.473 -1.004,-0.201 -1.892,-0.702 -2.663,-1.503 -0.77,-0.8 -1.195,-1.665 -1.274,-2.592 m 4.377,9.208 c 2.526,0.505 4.611,0.11 6.261,-1.184 1.648,-1.294 2.371,-3.104 2.171,-5.435 -0.2,-2.332 -1.265,-4.507 -3.198,-6.524 -1.932,-2.019 -4.16,-3.282 -6.687,-3.787 -2.527,-0.504 -4.612,-0.102 -6.259,1.202 -1.648,1.303 -2.37,3.121 -2.171,5.452 0.2,2.331 1.265,4.498 3.196,6.508 1.933,2.009 4.16,3.264 6.687,3.768 m 10.671,-16.323 -0.414,-4.822 -24.563,-4.903 0.413,4.823 z m -42.936,-14.397 7.238,1.445 0.185,2.166 -7.236,-1.444 z m 13.977,9.537 -1.054,-12.283 -19.538,-3.9 1.054,12.284 z m 1.953,13.683 -14.887,-2.972 -0.17,-1.981 14.887,2.971 -0.397,-4.624 -21.375,-4.267 0.992,11.563 21.376,4.267 z m 1.018,-12.198 -25.326,-5.054 0.427,4.977 25.327,5.056 z m -34.211,-14.989 0.584,6.805 -17.841,-3.562 0.979,11.41 9.446,1.884 0.132,1.554 -9.445,-1.886 0.417,4.864 15.393,3.072 -0.968,-11.279 -9.446,-1.886 -0.144,-1.685 11.894,2.374 1.112,12.965 5.946,1.187 -2.112,-24.629 z m -39.383,-6.221 13.256,2.646 -0.41,-4.767 -19.033,-3.799 0.872,10.17 5.779,1.153 z m 0.793,17.035 13.935,2.782 -0.445,-5.191 -19.713,-3.934 1.068,12.458 5.778,1.153 z m 15.355,-7.921 -24.471,-4.885 0.41,4.767 24.47,4.884 z m -32.854,-13.043 2.131,24.837 6.479,1.294 -2.131,-24.838 z m 0.79,24.569 -1.596,-18.61 -6.24,-1.245 1.129,13.165 -10.646,-2.125 0.467,5.445 z m -33.664,-22.766 c -0.117,-1.356 -0.191,-2.103 -0.226,-2.315 1.403,1.329 3.152,2.337 5.027,2.711 0.759,0.151 1.466,0.157 2.139,0.098 l 0.078,0.906 z m 7.034,-5.946 c 0.029,0.717 -0.182,1.26 -0.645,1.63 -0.459,0.368 -1.087,0.458 -1.883,0.274 -0.796,-0.185 -1.475,-0.565 -2.029,-1.135 -0.555,-0.571 -0.864,-1.221 -0.927,-1.944 -0.061,-0.722 0.161,-1.262 0.663,-1.626 0.506,-0.358 1.156,-0.444 1.952,-0.259 0.799,0.185 1.468,0.563 2.007,1.131 0.541,0.567 0.829,1.212 0.862,1.929 m 5.216,4.656 -1.451,-0.289 c 0.654,-0.939 0.989,-2.138 0.87,-3.528 -0.331,-3.862 -3.944,-7.661 -8.068,-8.484 -4.124,-0.824 -7.198,1.64 -6.867,5.503 0.137,1.593 0.853,3.163 1.911,4.53 l -4.898,-0.978 0.286,3.344 -6.318,-1.261 0.35,4.079 19.303,3.854 1.051,12.247 5.557,1.109 z m -6.223,7.211 -16.846,-3.362 0.989,11.526 16.846,3.362 -0.302,-3.522 -10.882,-2.173 -0.07,-0.799 10.883,2.173 -0.269,-3.137 -10.882,-2.173 -0.07,-0.802 10.883,2.172 z m -34.626,-21.166 c -0.581,-0.604 -1.301,-1.007 -2.164,-1.208 -0.858,-0.198 -1.56,-0.109 -2.106,0.271 -0.542,0.384 -0.782,0.958 -0.716,1.725 0.066,0.769 0.399,1.461 0.997,2.069 0.595,0.607 1.328,1.014 2.186,1.212 0.859,0.199 1.536,0.105 2.033,-0.284 0.499,-0.393 0.727,-0.969 0.697,-1.731 -0.035,-0.762 -0.345,-1.449 -0.927,-2.054 m -7.221,12.313 -1.631,-0.326 0.517,6.017 1.63,0.326 z m 14.46,4.442 3.462,0.691 0.473,5.507 -3.462,-0.691 0.315,3.681 -5.74,-1.147 -0.924,-10.77 -3.052,-0.61 0.516,6.018 2.174,0.434 0.407,4.753 -17.19,-3.431 -0.408,-4.754 2.323,0.464 -0.517,-6.017 -2.323,-0.464 -0.407,-4.751 15.624,3.119 2.03,0.405 -0.022,-0.268 c -0.64,0.028 -1.302,0.004 -2.008,-0.137 -4.447,-0.888 -8.338,-4.936 -8.69,-9.041 -0.352,-4.107 2.967,-6.715 7.414,-5.828 4.448,0.888 8.338,4.936 8.69,9.041 0.149,1.74 -0.388,3.183 -1.362,4.234 l 1.889,0.377 z m -35.598,-22.416 c -0.581,-0.604 -1.302,-1.008 -2.164,-1.208 -0.859,-0.198 -1.56,-0.109 -2.106,0.271 -0.542,0.384 -0.783,0.958 -0.717,1.725 0.066,0.769 0.4,1.461 0.996,2.069 0.597,0.607 1.33,1.013 2.188,1.212 0.858,0.199 1.536,0.105 2.032,-0.285 0.499,-0.392 0.728,-0.968 0.697,-1.73 -0.035,-0.762 -0.345,-1.449 -0.926,-2.054 m -7.222,12.313 -1.63,-0.326 0.516,6.017 1.631,0.325 z m 14.461,4.442 3.462,0.691 0.472,5.506 -3.461,-0.69 0.315,3.681 -5.74,-1.146 -0.924,-10.771 -3.053,-0.61 0.516,6.018 2.175,0.433 0.407,4.754 -17.192,-3.431 -0.407,-4.754 2.322,0.464 -0.515,-6.017 -2.323,-0.464 -0.408,-4.751 15.624,3.118 2.031,0.406 -0.024,-0.268 c -0.638,0.027 -1.302,0.004 -2.007,-0.138 -4.447,-0.887 -8.337,-4.935 -8.69,-9.041 -0.352,-4.106 2.968,-6.714 7.415,-5.827 4.447,0.888 8.337,4.936 8.689,9.042 0.15,1.739 -0.388,3.182 -1.363,4.233 l 1.891,0.377 z"
       style="fill:#130c0e;fill-opacity:1;fill-rule:nonzero;stroke:none"
       transform="matrix(1.3333333,0,0,-1.3333333,627.92067,414.20627)"
       clip-path="url(#clipPath2)" />
    <path
       id="path3"
       d="M 0,0 C -14.063,0 -27.961,-2.948 -40.705,-8.585 -57.21,2.503 -76.803,8.525 -96.82,8.525 c -40.297,0 -76.507,-24.31 -92.263,-60.527 -12.904,1.742 -25.998,0.953 -38.427,-2.227 -18.808,18.989 -44.311,29.706 -71.376,29.706 -55.441,0 -100.545,-45.104 -100.545,-100.545 0,-55.441 45.104,-100.545 100.545,-100.545 8.491,0 16.863,1.051 24.995,3.132 18.824,-19.006 44.334,-29.731 71.401,-29.731 40.297,0 76.507,24.311 92.261,60.527 18.449,-2.491 37.332,0.247 54.138,7.68 16.506,-11.089 36.1,-17.11 56.115,-17.11 55.441,0 100.545,45.104 100.545,100.545 C 100.569,-45.115 55.454,0 0,0"
       style="fill:#00b3f0;fill-opacity:1;fill-rule:nonzero;stroke:none"
       transform="matrix(1.3333333,0,0,-1.3333333,532.57427,11.3664)"
       clip-path="url(#clipPath4)" />
    <path
       id="path5"
       d="M 0,0 C -14.443,0 -28.694,-3.369 -41.494,-9.776 -57.42,2.056 -76.892,8.525 -96.82,8.525 c -39.225,0 -74.249,-24.966 -87.339,-61.46 -6.065,1.221 -12.215,1.838 -18.357,1.838 -9.362,0 -18.566,-1.384 -27.423,-4.12 -17.59,19.565 -42.457,30.694 -68.947,30.694 -51.14,0 -92.746,-41.606 -92.746,-92.746 0,-51.14 41.606,-92.745 92.746,-92.745 9.364,0 18.568,1.384 27.424,4.119 17.607,-19.581 42.483,-30.718 68.972,-30.718 39.224,0 74.249,24.965 87.338,61.459 6.064,-1.22 12.214,-1.837 18.356,-1.837 14.444,0 28.693,3.368 41.494,9.776 15.928,-11.832 35.399,-18.301 55.326,-18.301 51.14,0 92.746,41.605 92.746,92.745 C 92.77,-41.617 51.153,0 0,0"
       style="fill:#ffffff;fill-opacity:1;fill-rule:nonzero;stroke:none"
       transform="matrix(1.3333333,0,0,-1.3333333,532.57427,21.765467)"
       clip-path="url(#clipPath6)" />
    <path
       id="path7"
       d="M 0,0 C -15.324,0 -29.723,-4 -42.197,-11.049 -57.047,1.175 -76.07,8.525 -96.819,8.525 c -39.424,0 -72.647,-26.549 -82.796,-62.722 -7.3,2 -14.975,3.1 -22.9,3.1 -10.399,0 -20.374,-1.85 -29.598,-5.225 -15.749,19.399 -39.823,31.799 -66.772,31.799 -47.472,0 -85.97,-38.499 -85.97,-85.971 0,-47.473 38.498,-85.971 85.97,-85.971 10.4,0 20.374,1.85 29.599,5.225 15.774,-19.424 39.823,-31.823 66.797,-31.823 39.423,0 72.646,26.548 82.796,62.721 7.299,-2 14.973,-3.1 22.898,-3.1 15.324,0 29.724,4 42.198,11.05 14.849,-12.225 33.873,-19.574 54.622,-19.574 47.473,0 85.971,38.498 85.971,85.97 C 85.996,-38.523 47.498,0 0,0"
       style="fill:#130c0e;fill-opacity:1;fill-rule:nonzero;stroke:none"
       transform="matrix(1.3333333,0,0,-1.3333333,532.57293,30.798667)"
       clip-path="url(#clipPath8)" />
    <path
       id="path9"
       d="m 0,0 c 0,0 -2.031,-17.312 -24.198,-39.673 l -11.35,9.424 c 11.359,9.199 24.449,30.218 24.449,48.948 v 0.529 c 0,2.25 -1.741,2.248 -3.909,1.826 l -2.191,-0.426 v 6.667 L 7.125,32.023 V 22.242 C 7.125,3.113 17.678,0.038 31.699,-0.1 L 24.725,-10.949 C 3.418,-9.038 0,0 0,0 M 68.122,26.774 V 14.592 l -13.85,-2.693 v -22.877 l -18.499,-3.596 v 52.713 c 0,2.374 -1.948,2.349 -4.169,1.918 l -2.23,-0.434 v 7.035 l 24.898,4.84 V 24.082 Z M 19.199,-49.987 c -2.524,0.05 -7.675,0.151 -7.675,8.069 0,8.206 6.553,14.092 13.675,14.093 7.311,10e-4 7.824,-4.954 7.824,-7.969 0,-7.393 -6.371,-14.34 -13.824,-14.193 m 18.499,32.632 c -7.044,1.765 -19.565,2.032 -32.173,-6.4 -10.874,-7.272 -14.705,-20.062 -10.843,-28.851 5.918,-13.471 29.643,-11.72 44.617,-1.726 8.366,5.584 12.574,12.387 12.574,20.264 0,7.032 -3.669,14.079 -14.175,16.713"
       style="fill:#faa61a;fill-opacity:1;fill-rule:nonzero;stroke:none"
       transform="matrix(1.3333333,0,0,-1.3333333,515.20707,137.1268)"
       clip-path="url(#clipPath10)" />
    <path
       id="path11"
       d="m 0,0 v -6.896 l 1.855,0.36 c 1.847,0.359 3.498,0.603 3.498,-1.771 v -87.828 l 18.649,3.625 V 4.666 Z m -21.846,-22.139 v -6.896 l 1.855,0.36 c 1.846,0.359 3.537,0.688 3.537,-1.686 V -50.459 L -32.096,-53.5 v -10.812 l 15.642,3.041 v -59.559 l 17.157,3.334 v 99.741 z m 2.425,-57.272 -8,-10.674 c -15.628,5.101 -19.849,12.874 -19.849,12.874 0,0 -5.918,-10.997 -18.324,-22.374 l -10.349,8.625 c 0,0 18.285,17.072 18.285,34.125 v 12.981 c 0,2.373 -1.939,2.312 -4.108,1.89 l -2.177,-0.424 v 7.5 l 23.948,4.655 v -23.879 c 0,-22.865 20.574,-25.299 20.574,-25.299"
       style="fill:#f15a22;fill-opacity:1;fill-rule:nonzero;stroke:none"
       transform="matrix(1.3333333,0,0,-1.3333333,427.44147,60.410667)"
       clip-path="url(#clipPath12)" />
    <path
       id="path13"
       d="M 0,0 V -11.027 L 59.047,0.451 V -10.294 L -9.384,-23.595 c -5.523,-1.074 -10,2.533 -10,8.056 v 12.801 c 0,2.215 -0.204,2.884 -5.384,1.877 l -0.981,-0.19 V 5.74 L 59.047,22.222 V 11.478 Z m 59.047,-15.557 v -10.745 l -99.295,-19.301 v 10.745 z M 37.349,-60.663 3.9,-67.164 v 14.01 l 33.449,6.501 z m 19.698,28.709 -79.271,-15.409 v -7.377 l 0.983,0.191 c 5.188,1.009 5.392,0.195 5.392,-2.235 v -15.438 c 0,-4.97 4.03,-8.216 9,-7.25 l 56.896,11.059 c 4.971,0.966 9,5.779 9,10.749 v 24.099 c 0,1.104 -0.896,1.826 -2,1.611"
       style="fill:#faa61a;fill-opacity:1;fill-rule:nonzero;stroke:none"
       transform="matrix(1.3333333,0,0,-1.3333333,239.22147,179.58907)"
       clip-path="url(#clipPath14)" />
    <path
       id="path15"
       d="m 0,0 v -7.45 l 2.176,0.424 C 4.342,-6.605 6.325,-6.22 6.325,-9 v -43.997 c -3.2,-1.8 -7.298,-3.293 -12.349,-4.275 l -29.924,-5.816 v 13.465 l 27.749,5.394 c 1.381,0.269 2.5,1.605 2.5,2.986 v 26.662 c 0,1.381 -1.119,2.283 -2.5,2.014 l -52.048,-10.117 v -11.514 l 35.499,6.9 v -9.054 l -37.148,-7.221 v -7.574 l 0.876,0.17 c 1.772,0.344 4.398,0.855 4.398,-1.72 v -17.925 c 0,-4.418 3.582,-7.303 8,-6.444 l 39.073,7.594 c 7.329,1.425 12.65,3.201 15.874,4.826 v -42.186 l 20.124,3.912 V 5.141 Z"
       style="fill:#f15a22;fill-opacity:1;fill-rule:nonzero;stroke:none"
       transform="matrix(1.3333333,0,0,-1.3333333,138.6928,114.52787)"
       clip-path="url(#clipPath16)" />
    <path
       id="path17"
       d="M 0,0 V 9.889 L -2.487,-0.587 -5.182,-1.222 -7.609,8.095 v -9.89 l -2.547,-0.6 V 9.443 l 3.978,0.938 2.399,-8.824 0.03,0.007 2.34,9.942 3.927,0.926 V 0.593 Z M -18.386,-4.336 V 5.403 L -22.482,4.437 V 6.53 l 10.835,2.555 V 6.992 l -3.949,-0.931 v -9.739 z"
       style="fill:#130c0e;fill-opacity:1;fill-rule:nonzero;stroke:none"
       transform="matrix(1.3333333,0,0,-1.3333333,658.4116,267.70107)"
       clip-path="url(#clipPath18)" />
  </g>
</svg>
