<?xml version="1.0" encoding="UTF-8" standalone="no"?>
<!-- Created with Inkscape (http://www.inkscape.org/) -->

<svg
   version="1.1"
   id="svg1"
   width="666.66669"
   height="466.23068"
   viewBox="0 0 666.66669 466.23068"
   sodipodi:docname="Rhythm Heaven Logo (Wordmark).ai"
   xmlns:inkscape="http://www.inkscape.org/namespaces/inkscape"
   xmlns:sodipodi="http://sodipodi.sourceforge.net/DTD/sodipodi-0.dtd"
   xmlns="http://www.w3.org/2000/svg"
   xmlns:svg="http://www.w3.org/2000/svg">
  <defs
     id="defs1">
    <clipPath
       clipPathUnits="userSpaceOnUse"
       id="clipPath3">
      <path
         d="M 0,349.673 H 500 V 0 H 0 Z"
         transform="translate(-449.31911,-227.02101)"
         id="path3" />
    </clipPath>
    <clipPath
       clipPathUnits="userSpaceOnUse"
       id="clipPath5">
      <path
         d="M 0,349.673 H 500 V 0 H 0 Z"
         transform="translate(-368.82211,-118.9673)"
         id="path5" />
    </clipPath>
    <clipPath
       clipPathUnits="userSpaceOnUse"
       id="clipPath7">
      <path
         d="M 0,349.673 H 500 V 0 H 0 Z"
         transform="translate(-317.15121,-181.9887)"
         id="path7" />
    </clipPath>
    <clipPath
       clipPathUnits="userSpaceOnUse"
       id="clipPath9">
      <path
         d="M 0,349.673 H 500 V 0 H 0 Z"
         transform="translate(-254.49201,-88.311)"
         id="path9" />
    </clipPath>
    <clipPath
       clipPathUnits="userSpaceOnUse"
       id="clipPath11">
      <path
         d="M 0,349.673 H 500 V 0 H 0 Z"
         transform="translate(-187.90701,-71.340299)"
         id="path11" />
    </clipPath>
    <clipPath
       clipPathUnits="userSpaceOnUse"
       id="clipPath13">
      <path
         d="M 0,349.673 H 500 V 0 H 0 Z"
         transform="translate(-129.739,-141.812)"
         id="path13" />
    </clipPath>
    <clipPath
       clipPathUnits="userSpaceOnUse"
       id="clipPath15">
      <path
         d="M 0,349.673 H 500 V 0 H 0 Z"
         transform="translate(-447.47931,-241.45161)"
         id="path15" />
    </clipPath>
    <clipPath
       clipPathUnits="userSpaceOnUse"
       id="clipPath17">
      <path
         d="M 0,349.673 H 500 V 0 H 0 Z"
         transform="translate(-330.73121,-300.08641)"
         id="path17" />
    </clipPath>
    <clipPath
       clipPathUnits="userSpaceOnUse"
       id="clipPath19">
      <path
         d="M 0,349.673 H 500 V 0 H 0 Z"
         transform="translate(-228.2713,-286.78121)"
         id="path19" />
    </clipPath>
    <clipPath
       clipPathUnits="userSpaceOnUse"
       id="clipPath21">
      <path
         d="M 0,349.673 H 500 V 0 H 0 Z"
         transform="translate(-220.1971,-270.55911)"
         id="path21" />
    </clipPath>
    <clipPath
       clipPathUnits="userSpaceOnUse"
       id="clipPath23">
      <path
         d="M 0,349.673 H 500 V 0 H 0 Z"
         transform="translate(-127.9812,-255.88031)"
         id="path23" />
    </clipPath>
    <clipPath
       clipPathUnits="userSpaceOnUse"
       id="clipPath25">
      <path
         d="M 0,349.673 H 500 V 0 H 0 Z"
         transform="translate(-31.795701,-190.5561)"
         id="path25" />
    </clipPath>
  </defs>
  <sodipodi:namedview
     id="namedview1"
     pagecolor="#ffffff"
     bordercolor="#000000"
     borderopacity="0.25"
     inkscape:showpageshadow="2"
     inkscape:pageopacity="0.0"
     inkscape:pagecheckerboard="0"
     inkscape:deskcolor="#d1d1d1">
    <inkscape:page
       x="0"
       y="0"
       inkscape:label="1"
       id="page1"
       width="666.66669"
       height="466.23068"
       margin="8.138e-05 0 0"
       bleed="0" />
  </sodipodi:namedview>
  <g
     id="layer-MC0"
     inkscape:groupmode="layer"
     inkscape:label="Layer 1">
    <path
       id="path1"
       d="m 0,0 -2.075,-8.809 -0.026,-0.006 -2.126,7.838 -3.527,-0.813 v -10.501 l 2.257,0.521 v 8.772 l 2.153,-8.275 2.388,0.551 2.205,9.281 v -8.772 L 3.48,-9.698 V 0.804 Z m -18.682,-4.32 v -1.856 l 3.631,0.839 v -8.639 l 2.474,0.571 v 8.639 l 3.5,0.808 v 1.856 z"
       style="fill:#000000;fill-opacity:1;fill-rule:nonzero;stroke:none"
       transform="matrix(1.3333333,0,0,-1.3333333,662.0256,298.74667)" />
    <path
       id="path2"
       d="m 0,0 c 0,0 -0.163,-42.625 -0.693,-50.123 -0.829,-11.712 -3.976,-12.026 -6.655,-10.27 -5.342,3.506 -15.327,23.468 -24.267,40.829 l -13.042,-3.012 v -107.866 l 15.948,3.681 0.054,27.37 c 0.027,14.05 3.863,14.964 9.437,9.861 4.23,-3.873 9.986,-12.413 19.055,-26.935 l 21.104,4.872 V 4.835 Z"
       style="fill:#000000;fill-opacity:1;fill-rule:nonzero;stroke:none"
       transform="matrix(1.3333333,0,0,-1.3333333,599.09213,163.536)"
       clip-path="url(#clipPath3)" />
    <path
       id="path4"
       d="M 0,0 C -0.484,-0.002 -4.066,0.12 -4.449,2.853 -4.671,4.436 -3.911,5.922 -2,7.091 0.989,8.92 11.336,11.894 21.268,14.223 v 13.732 c 0,0 -17.983,-4.327 -23.513,-3.505 -1.68,0.25 -2.799,1.138 -3.021,2.691 -0.227,1.586 0.572,3.014 2.45,4.237 5.057,3.294 27.757,8.191 27.757,8.191 v 31.687 l -46.739,-10.79 v -84.469 l 47.719,11.018 V 4.564 C 13.185,1.671 4.576,0.025 0,0"
       style="fill:#000000;fill-opacity:1;fill-rule:nonzero;stroke:none"
       transform="matrix(1.3333333,0,0,-1.3333333,491.7628,307.6076)"
       clip-path="url(#clipPath5)" />
    <path
       id="path6"
       d="m 0,0 c 0,0 -5.063,-33.359 -9.56,-48.775 -1.284,-4.406 -4.389,-11.145 -8.612,-1.508 -1.513,3.451 -6.003,19.578 -9.299,40.368 l -14.581,-3.366 c 1.276,-14.295 8.276,-52.905 17.603,-75.398 L 3.83,-82.15 c 10.409,27.547 16.654,56.643 18.777,87.369 z"
       style="fill:#000000;fill-opacity:1;fill-rule:nonzero;stroke:none"
       transform="matrix(1.3333333,0,0,-1.3333333,422.86827,223.57907)"
       clip-path="url(#clipPath7)" />
    <path
       id="path8"
       d="m 0,0 c -2.252,-0.49 -7.377,-1.788 -9.995,-2.279 -2.506,-0.491 -3.97,0.924 -3.66,4.5 0.281,3.345 1.751,10.44 2.308,12.836 1.233,5.297 3.656,7.505 6.504,7.903 C -1.19,23.469 1.999,20.277 3.745,11.624 3.914,10.787 4.34,9.052 4.618,6.691 4.955,3.826 3.548,0.894 0,0 M 12.464,47.819 C 5.387,60.858 -2.844,58.156 -7.061,56.761 -12.586,54.933 -17.49,52.095 -22.621,31.74 -28.016,10.344 -33.888,-34.602 -33.888,-34.602 l 14.807,3.418 1.521,8.522 c 0.735,4.116 3.355,6.73 7.348,7.905 0,0 11.473,2.979 15.389,3.424 1.655,0.187 3.598,-1.118 4.164,-3.709 l 2,-9.169 20.165,4.656 c 0,0 -10.031,50.773 -19.042,67.374"
       style="fill:#000000;fill-opacity:1;fill-rule:nonzero;stroke:none"
       transform="matrix(1.3333333,0,0,-1.3333333,339.32267,348.48267)"
       clip-path="url(#clipPath9)" />
    <path
       id="path10"
       d="M 0,0 C -0.483,-0.002 -4.066,0.12 -4.449,2.853 -4.671,4.436 -3.911,5.922 -2,7.091 0.989,8.92 11.337,11.894 21.268,14.223 v 13.732 c 0,0 -17.983,-4.327 -23.513,-3.504 -1.679,0.249 -2.798,1.137 -3.021,2.69 -0.227,1.586 0.573,3.014 2.45,4.237 5.057,3.294 27.757,8.191 27.757,8.191 V 73.724 L -21.798,62.933 v -84.468 l 47.719,11.016 V 4.564 C 13.186,1.671 4.576,0.025 0,0"
       style="fill:#000000;fill-opacity:1;fill-rule:nonzero;stroke:none"
       transform="matrix(1.3333333,0,0,-1.3333333,250.54267,371.11027)"
       clip-path="url(#clipPath11)" />
    <path
       id="path12"
       d="m 0,0 c 0.448,-16.83 0.268,-29.429 -2.041,-37.694 -1.403,-5.022 -4.49,-8.843 -8.613,-11.737 -4.2,-2.947 -8.409,-4.238 -12.532,-4.319 -5.027,-0.1 -8.661,1.857 -9.144,7.131 -0.734,8.028 -1.061,19.25 -0.816,33.308 l -18.247,-4.212 v -124.289 l 25.064,5.787 c -0.449,15.851 0.091,27.61 2.041,34.881 1.329,4.957 4.964,9.151 8.613,11.615 4.264,2.88 8.401,4.375 12.531,4.441 5.021,0.082 8.67,-2.246 9.144,-7.253 0.694,-7.335 1.021,-17.918 0.816,-31.406 l 18.656,4.307 V 5.88 Z"
       style="fill:#000000;fill-opacity:1;fill-rule:nonzero;stroke:none"
       transform="matrix(1.3333333,0,0,-1.3333333,172.98533,277.148)"
       clip-path="url(#clipPath13)" />
    <path
       id="path14"
       d="m 0,0 v 108.222 l -14.794,-3.415 c -7.846,-25.91 -12.284,-38.58 -16.155,-49.259 -6.589,-18.173 -13.442,-11.04 -16.62,-5.966 -3.716,5.932 -8.745,17.493 -17.491,38.662 L -86.665,83.256 V -16.883 l 17.915,4.136 c -0.136,16.211 0.145,25.658 1.021,29.935 0.786,3.842 3.101,4.384 5.448,0.572 1.93,-3.135 4.986,-9.917 11.061,-23.866 l 12.015,2.774 c 6.621,17.79 10.198,26.754 12.724,31.145 2.049,3.565 5.93,6.074 7.11,-0.518 0.892,-4.986 0.817,-15.02 0.79,-31.584 z"
       style="fill:#000000;fill-opacity:1;fill-rule:nonzero;stroke:none"
       transform="matrix(1.3333333,0,0,-1.3333333,596.63907,144.2952)"
       clip-path="url(#clipPath15)" />
    <path
       id="path16"
       d="m 0,0 c 0,0 0.356,-23.505 -0.445,-31.286 -1.063,-10.326 -19.367,-13.892 -20.143,-3.338 -0.346,4.711 -0.61,10.787 -0.61,24.66 l -14.959,-3.453 v -92.706 l 20.511,4.735 v 21.409 c 0,16.466 20.455,17.843 21.556,6.334 0.347,-3.62 0.524,-9.261 0.524,-20.968 l 14.958,3.453 V 4.938 Z"
       style="fill:#000000;fill-opacity:1;fill-rule:nonzero;stroke:none"
       transform="matrix(1.3333333,0,0,-1.3333333,440.97493,66.115467)"
       clip-path="url(#clipPath17)" />
    <path
       id="path18"
       d="m 0,0 v -38.205 l 13.803,3.186 c 5.5,1.27 7.431,0.102 7.391,-10.948 v -49.098 l 16.353,3.775 v 45.435 c 0.113,19.504 2.402,23.542 12.101,25.781 l 8.662,2 v 31.535 z"
       style="fill:#000000;fill-opacity:1;fill-rule:nonzero;stroke:none"
       transform="matrix(1.3333333,0,0,-1.3333333,304.36173,83.855733)"
       clip-path="url(#clipPath19)" />
    <path
       id="path20"
       d="m 0,0 -17.44,-4.026 c 0,0 -0.11,-13.197 -1.075,-30.674 -1.025,-18.578 -21.04,-24.276 -22.182,-5.376 -0.731,12.072 -0.615,28.442 -0.615,28.442 l -20.876,-4.82 v -8.938 c 0,-34.807 4.315,-47.084 25.025,-44.348 4.903,0.647 8.661,2.093 12.88,4.949 0.263,0.178 0.597,0.182 0.91,-0.061 0.3,-0.232 0.786,-1.012 0.054,-3.285 -3.943,-12.239 -37.702,-15.877 -37.702,-15.877 l -0.009,-27.35 c 19.299,2.84 40.305,6.95 51.328,25.263 C -5.584,-79.26 0,-71 0,0"
       style="fill:#000000;fill-opacity:1;fill-rule:nonzero;stroke:none"
       transform="matrix(1.3333333,0,0,-1.3333333,293.59613,105.4852)"
       clip-path="url(#clipPath21)" />
    <path
       id="path22"
       d="m 0,0 c 0,0 0.338,-22.339 -0.423,-29.733 -1.011,-9.815 -18.407,-13.204 -19.143,-3.172 -0.329,4.476 -0.58,10.251 -0.58,23.435 l -14.217,-3.282 v -88.105 l 19.493,4.501 v 20.346 c 0,15.649 19.44,16.958 20.487,6.02 0.329,-3.441 0.496,-8.802 0.496,-19.929 l 14.217,3.282 v 91.33 z"
       style="fill:#000000;fill-opacity:1;fill-rule:nonzero;stroke:none"
       transform="matrix(1.3333333,0,0,-1.3333333,170.6416,125.05693)"
       clip-path="url(#clipPath23)" />
    <path
       id="path24"
       d="m 0,0 c -8.926,-2.276 -14.191,2.506 -14.191,14.505 0,9.571 0.18,19.453 17.704,19.453 12.475,0 17.692,-6.317 17.692,-13.443 C 21.205,14.309 13.612,3.471 0,0 m 52.386,39.535 c 0,22.04 -16.238,48.697 -84.182,32.344 V -47.986 l 17.693,4.085 v 21.656 c 0,8.802 5.072,7.181 8.307,5.073 2.514,-1.637 7.844,-5.932 20.444,-20.092 l 30.059,6.94 -23.423,23.981 c 0,0 31.102,12.524 31.102,45.878"
       style="fill:#000000;fill-opacity:1;fill-rule:nonzero;stroke:none"
       transform="matrix(1.3333333,0,0,-1.3333333,42.394267,212.15587)"
       clip-path="url(#clipPath25)" />
  </g>
</svg>
