<?xml version="1.0" encoding="UTF-8" standalone="no"?>
<!-- Created with Inkscape (http://www.inkscape.org/) -->

<svg
   version="1.1"
   id="svg1"
   width="666.66669"
   height="603.2547"
   viewBox="0 0 666.66669 603.2547"
   sodipodi:docname="Rhythm Heaven Logo with Tagline (Canadian).ai"
   xmlns:inkscape="http://www.inkscape.org/namespaces/inkscape"
   xmlns:sodipodi="http://sodipodi.sourceforge.net/DTD/sodipodi-0.dtd"
   xmlns="http://www.w3.org/2000/svg"
   xmlns:svg="http://www.w3.org/2000/svg">
  <defs
     id="defs1">
    <clipPath
       clipPathUnits="userSpaceOnUse"
       id="clipPath2">
      <path
         d="M 0,452.441 H 500 V 0 H 0 Z"
         transform="translate(-483.90301,-83.615205)"
         id="path2" />
    </clipPath>
    <clipPath
       clipPathUnits="userSpaceOnUse"
       id="clipPath4">
      <path
         d="M 0,452.441 H 500 V 0 H 0 Z"
         transform="translate(-479.91161,-129.0801)"
         id="path4" />
    </clipPath>
    <clipPath
       clipPathUnits="userSpaceOnUse"
       id="clipPath6">
      <path
         d="M 0,452.441 H 500 V 0 H 0 Z"
         transform="translate(-481.88281,-304.20661)"
         id="path6" />
    </clipPath>
    <clipPath
       clipPathUnits="userSpaceOnUse"
       id="clipPath8">
      <path
         d="M 0,452.441 H 500 V 0 H 0 Z"
         transform="translate(-468.89181,-302.59541)"
         id="path8" />
    </clipPath>
    <clipPath
       clipPathUnits="userSpaceOnUse"
       id="clipPath10">
      <path
         d="M 0,452.441 H 500 V 0 H 0 Z"
         transform="translate(-457.02751,-301.08901)"
         id="path10" />
    </clipPath>
    <clipPath
       clipPathUnits="userSpaceOnUse"
       id="clipPath12">
      <path
         d="M 0,452.441 H 500 V 0 H 0 Z"
         transform="translate(-457.02121,-217.84721)"
         id="path12" />
    </clipPath>
    <clipPath
       clipPathUnits="userSpaceOnUse"
       id="clipPath14">
      <path
         d="M 0,452.441 H 500 V 0 H 0 Z"
         transform="translate(-419.85481,-303.47371)"
         id="path14" />
    </clipPath>
    <clipPath
       clipPathUnits="userSpaceOnUse"
       id="clipPath16">
      <path
         d="M 0,452.441 H 500 V 0 H 0 Z"
         transform="translate(-358.10351,-220.58571)"
         id="path16" />
    </clipPath>
    <clipPath
       clipPathUnits="userSpaceOnUse"
       id="clipPath18">
      <path
         d="M 0,452.441 H 500 V 0 H 0 Z"
         transform="translate(-318.46561,-268.9284)"
         id="path18" />
    </clipPath>
    <clipPath
       clipPathUnits="userSpaceOnUse"
       id="clipPath20">
      <path
         d="M 0,452.441 H 500 V 0 H 0 Z"
         transform="translate(-270.3988,-197.0663)"
         id="path20" />
    </clipPath>
    <clipPath
       clipPathUnits="userSpaceOnUse"
       id="clipPath22">
      <path
         d="M 0,452.441 H 500 V 0 H 0 Z"
         transform="translate(-219.3202,-184.0482)"
         id="path22" />
    </clipPath>
    <clipPath
       clipPathUnits="userSpaceOnUse"
       id="clipPath24">
      <path
         d="M 0,452.441 H 500 V 0 H 0 Z"
         transform="translate(-174.8382,-238.14041)"
         id="path24" />
    </clipPath>
    <clipPath
       clipPathUnits="userSpaceOnUse"
       id="clipPath26">
      <path
         d="M 0,452.441 H 500 V 0 H 0 Z"
         transform="translate(-418.44331,-314.54411)"
         id="path26" />
    </clipPath>
    <clipPath
       clipPathUnits="userSpaceOnUse"
       id="clipPath28">
      <path
         d="M 0,452.441 H 500 V 0 H 0 Z"
         transform="translate(-328.88361,-359.52371)"
         id="path28" />
    </clipPath>
    <clipPath
       clipPathUnits="userSpaceOnUse"
       id="clipPath30">
      <path
         d="M 0,452.441 H 500 V 0 H 0 Z"
         transform="translate(-250.2844,-349.31691)"
         id="path30" />
    </clipPath>
    <clipPath
       clipPathUnits="userSpaceOnUse"
       id="clipPath32">
      <path
         d="M 0,452.441 H 500 V 0 H 0 Z"
         transform="translate(-244.08991,-336.87281)"
         id="path32" />
    </clipPath>
    <clipPath
       clipPathUnits="userSpaceOnUse"
       id="clipPath34">
      <path
         d="M 0,452.441 H 500 V 0 H 0 Z"
         transform="translate(-173.3497,-325.61221)"
         id="path34" />
    </clipPath>
    <clipPath
       clipPathUnits="userSpaceOnUse"
       id="clipPath36">
      <path
         d="M 0,452.441 H 500 V 0 H 0 Z"
         transform="translate(-99.5638,-275.5008)"
         id="path36" />
    </clipPath>
  </defs>
  <sodipodi:namedview
     id="namedview1"
     pagecolor="#ffffff"
     bordercolor="#000000"
     borderopacity="0.25"
     inkscape:showpageshadow="2"
     inkscape:pageopacity="0.0"
     inkscape:pagecheckerboard="0"
     inkscape:deskcolor="#d1d1d1">
    <inkscape:page
       x="0"
       y="0"
       inkscape:label="1"
       id="page1"
       width="666.66669"
       height="603.2547"
       margin="0"
       bleed="0" />
  </sodipodi:namedview>
  <g
     id="layer-MC0"
     inkscape:groupmode="layer"
     inkscape:label="Layer 1">
    <path
       id="path1"
       d="m 0,0 c 0.018,-0.686 -0.153,-1.26 -0.511,-1.722 -0.36,-0.463 -0.865,-0.774 -1.517,-0.934 l -0.34,-0.083 c -0.625,-0.153 -1.125,-0.111 -1.503,0.127 -0.377,0.238 -0.576,0.743 -0.596,1.519 l -0.323,12.25 c -0.018,0.685 0.152,1.259 0.511,1.722 0.359,0.462 0.864,0.774 1.517,0.934 l 0.34,0.083 c 0.624,0.153 1.125,0.11 1.503,-0.127 0.377,-0.239 0.576,-0.745 0.596,-1.519 z m 1.924,-9.608 c 0.048,-1.848 -0.807,-2.987 -2.565,-3.417 l -2.639,-0.646 c -1.759,-0.43 -2.662,0.278 -2.711,2.126 l -0.06,2.28 c -0.052,1.967 0.844,3.176 2.689,3.628 l 2.382,0.583 c 1.844,0.451 2.792,-0.307 2.844,-2.274 z m -17.478,8.052 c -0.022,0.834 -0.247,1.492 -0.673,1.972 -0.427,0.481 -1.293,0.561 -2.597,0.242 -0.653,-0.16 -1.19,-0.374 -1.611,-0.641 -0.421,-0.269 -0.742,-0.564 -0.961,-0.888 -0.221,-0.324 -0.368,-0.675 -0.444,-1.053 -0.075,-0.379 -0.108,-0.777 -0.097,-1.194 0.011,-0.418 0.064,-0.794 0.159,-1.131 0.094,-0.337 0.258,-0.612 0.492,-0.825 0.234,-0.212 0.566,-0.341 0.996,-0.386 0.429,-0.045 0.969,0.013 1.623,0.173 0.652,0.159 1.181,0.363 1.589,0.613 0.407,0.25 0.728,0.538 0.962,0.865 0.234,0.328 0.389,0.681 0.465,1.059 0.075,0.379 0.108,0.776 0.097,1.194 m 7.453,1.553 c 0.035,-1.311 -0.072,-2.424 -0.319,-3.34 -0.248,-0.915 -0.626,-1.69 -1.138,-2.325 -0.511,-0.636 -1.154,-1.153 -1.929,-1.552 -0.775,-0.4 -1.687,-0.728 -2.736,-0.984 l -1.744,-0.427 c -1.475,-0.361 -2.197,-1.138 -2.166,-2.33 0.019,-0.715 0.224,-1.175 0.614,-1.38 0.392,-0.204 0.941,-0.219 1.651,-0.046 l 5.616,1.375 c 0.538,0.131 0.962,0.07 1.268,-0.185 0.307,-0.256 0.467,-0.666 0.482,-1.232 l 0.019,-0.715 c 0.014,-0.537 -0.109,-1.002 -0.37,-1.396 -0.261,-0.394 -0.689,-0.663 -1.285,-0.809 l -8.552,-2.093 c -4.595,-1.124 -6.957,0.757 -7.086,5.645 l -0.2,7.6 c -0.065,2.474 0.441,4.383 1.519,5.727 1.078,1.343 2.822,2.31 5.233,2.9 l 3.957,0.968 c 2.411,0.59 4.191,0.486 5.34,-0.313 1.148,-0.799 1.756,-2.435 1.821,-4.909 z m -19.963,-17.573 c 0.018,-0.686 -0.146,-1.258 -0.49,-1.717 -0.346,-0.46 -0.844,-0.769 -1.496,-0.928 l -0.383,-0.094 c -0.625,-0.153 -1.125,-0.111 -1.502,0.127 -0.378,0.237 -0.577,0.743 -0.597,1.519 l -0.237,8.986 c -0.025,0.953 -0.27,1.583 -0.735,1.89 -0.465,0.306 -1.095,0.362 -1.889,0.167 l -0.425,-0.104 c -0.823,-0.201 -1.448,-0.586 -1.875,-1.156 -0.428,-0.57 -0.63,-1.287 -0.607,-2.151 l 0.237,-8.986 c 0.018,-0.685 -0.153,-1.259 -0.512,-1.722 -0.359,-0.464 -0.864,-0.774 -1.517,-0.934 l -0.34,-0.083 c -0.624,-0.153 -1.125,-0.11 -1.502,0.127 -0.378,0.238 -0.576,0.744 -0.597,1.519 l -0.34,12.92 c -0.026,0.954 -0.277,1.582 -0.756,1.885 -0.479,0.303 -1.102,0.36 -1.868,0.173 l -0.468,-0.115 c -0.823,-0.201 -1.44,-0.585 -1.854,-1.151 -0.413,-0.566 -0.609,-1.281 -0.586,-2.145 l 0.324,-12.295 c 0.049,-1.848 -0.806,-2.986 -2.565,-3.417 l -2.68,-0.656 c -1.759,-0.43 -2.663,0.278 -2.711,2.126 l -0.429,16.274 c -0.05,1.877 0.804,3.031 2.563,3.462 l 18.382,4.497 c 2.41,0.59 4.185,0.41 5.324,-0.542 1.138,-0.951 1.74,-2.649 1.804,-5.092 z m -30.481,-6.829 c 0.049,-1.848 -0.807,-2.987 -2.565,-3.417 l -2.638,-0.645 c -1.787,-0.438 -2.705,0.267 -2.754,2.115 l -0.287,12.529 c -0.023,0.864 -0.26,1.473 -0.712,1.828 -0.452,0.354 -1.089,0.431 -1.912,0.23 l -0.468,-0.115 c -0.765,-0.187 -1.377,-0.548 -1.834,-1.079 -0.457,-0.532 -0.673,-1.275 -0.647,-2.228 l 0.346,-13.144 c 0.02,-0.775 -0.15,-1.372 -0.51,-1.789 -0.36,-0.419 -0.853,-0.704 -1.476,-0.856 l -0.34,-0.084 c -0.653,-0.159 -1.169,-0.099 -1.547,0.185 -0.379,0.281 -0.577,0.765 -0.595,1.451 l -0.586,22.219 c -0.049,1.877 0.805,3.032 2.564,3.462 l 2.681,0.656 c 1.758,0.43 2.647,-0.268 2.667,-2.092 l 0.011,-0.402 c -0.011,-0.694 0.152,-1.193 0.489,-1.501 0.336,-0.308 0.873,-0.371 1.611,-0.19 l 1.021,0.25 c 2.411,0.589 4.192,0.418 5.345,-0.515 1.152,-0.933 1.761,-2.622 1.825,-5.065 z m -20.031,-0.356 c 0.065,-2.445 -0.448,-4.407 -1.537,-5.888 -1.089,-1.482 -2.839,-2.517 -5.249,-3.107 l -3.999,-0.979 c -4.653,-1.138 -7.043,0.722 -7.171,5.58 l -0.45,17.078 c -0.049,1.877 0.805,3.031 2.564,3.462 l 2.681,0.656 c 0.851,0.208 1.517,0.115 1.998,-0.277 0.482,-0.392 0.709,-1.161 0.682,-2.307 -0.02,-1.416 0.679,-1.949 2.098,-1.602 l 5.531,1.354 c 0.737,0.18 1.267,0.1 1.591,-0.241 0.323,-0.341 0.493,-0.84 0.51,-1.495 0.039,-1.491 -0.621,-2.402 -1.983,-2.735 l -7.532,-1.843 c -1.248,-0.305 -2.132,-0.859 -2.653,-1.662 -0.522,-0.802 -0.767,-1.77 -0.737,-2.902 l 0.181,-6.885 c 0.023,-0.865 0.253,-1.476 0.691,-1.833 0.437,-0.359 1.067,-0.436 1.89,-0.235 l 0.468,0.115 c 0.766,0.187 1.37,0.544 1.813,1.073 0.443,0.528 0.652,1.269 0.627,2.223 l -0.137,5.186 c -0.02,0.775 0.15,1.364 0.51,1.767 0.36,0.403 0.853,0.681 1.477,0.834 l 3.872,0.947 c 0.652,0.16 1.168,0.106 1.546,-0.161 0.377,-0.268 0.576,-0.744 0.594,-1.43 z m -20.466,-4.964 c 0.04,-1.519 -0.14,-2.839 -0.538,-3.956 -0.375,-0.962 -0.861,-1.756 -1.458,-2.381 -0.597,-0.627 -1.303,-1.189 -2.118,-1.688 -0.309,-0.196 -0.522,-0.517 -0.638,-0.966 -0.117,-0.449 -0.169,-0.926 -0.155,-1.433 l 0.051,-1.968 c 0.05,-1.877 -0.805,-3.031 -2.563,-3.462 l -2.681,-0.656 c -1.759,-0.43 -2.663,0.294 -2.712,2.172 l -0.052,1.967 c -0.032,1.222 -0.422,1.921 -1.169,2.099 -0.717,0.123 -1.336,0.354 -1.859,0.692 -0.523,0.336 -0.95,0.824 -1.281,1.464 -0.481,0.932 -0.742,2.172 -0.783,3.722 l -0.328,12.429 c -0.018,0.685 0.153,1.252 0.513,1.7 0.358,0.448 0.864,0.752 1.517,0.911 l 0.341,0.084 c 0.623,0.152 1.124,0.117 1.501,-0.105 0.376,-0.223 0.576,-0.722 0.596,-1.497 l 0.348,-13.188 c 0.025,-0.955 0.277,-1.575 0.755,-1.863 0.479,-0.287 1.101,-0.338 1.867,-0.15 l 0.468,0.114 c 0.822,0.201 1.448,0.58 1.876,1.134 0.428,0.555 0.63,1.264 0.608,2.129 l -0.329,12.473 c -0.05,1.878 0.805,3.031 2.564,3.462 l 2.637,0.645 c 1.759,0.431 2.664,-0.293 2.713,-2.171 z m -19.635,-0.8 c 0.018,-0.686 -0.152,-1.26 -0.511,-1.722 -0.359,-0.463 -0.864,-0.774 -1.517,-0.934 l -0.34,-0.083 c -0.624,-0.153 -1.126,-0.111 -1.502,0.127 -0.378,0.238 -0.576,0.744 -0.597,1.519 l -0.094,3.576 c -0.025,0.954 -0.278,1.582 -0.757,1.885 -0.479,0.303 -1.101,0.361 -1.867,0.173 -0.823,-0.201 -1.448,-0.586 -1.875,-1.156 -0.428,-0.57 -0.63,-1.287 -0.607,-2.151 l 0.319,-12.115 c 0.049,-1.848 -0.807,-2.987 -2.565,-3.417 l -2.681,-0.656 c -1.759,-0.431 -2.662,0.278 -2.711,2.126 l -0.428,16.273 c -0.05,1.878 0.804,3.032 2.563,3.462 l 7.915,1.937 c 2.41,0.589 4.192,0.41 5.345,-0.537 1.153,-0.949 1.761,-2.645 1.826,-5.088 z m -34.883,-4.801 c -0.022,0.834 -0.246,1.492 -0.673,1.973 -0.426,0.48 -1.292,0.56 -2.597,0.241 -0.653,-0.16 -1.189,-0.374 -1.61,-0.641 -0.421,-0.268 -0.742,-0.564 -0.962,-0.888 -0.22,-0.324 -0.367,-0.675 -0.443,-1.053 -0.075,-0.378 -0.108,-0.777 -0.097,-1.193 0.011,-0.418 0.064,-0.795 0.158,-1.132 0.095,-0.337 0.259,-0.611 0.493,-0.824 0.234,-0.213 0.566,-0.342 0.995,-0.387 0.43,-0.045 0.97,0.013 1.623,0.173 0.652,0.159 1.182,0.363 1.589,0.613 0.407,0.25 0.729,0.539 0.963,0.866 0.233,0.327 0.388,0.68 0.464,1.059 0.076,0.378 0.108,0.775 0.097,1.193 m 7.454,1.554 c 0.034,-1.312 -0.072,-2.425 -0.32,-3.34 -0.247,-0.916 -0.626,-1.691 -1.137,-2.326 -0.512,-0.636 -1.155,-1.153 -1.929,-1.552 -0.775,-0.4 -1.687,-0.727 -2.736,-0.984 l -1.745,-0.427 c -1.475,-0.361 -2.197,-1.138 -2.165,-2.33 0.019,-0.715 0.224,-1.175 0.614,-1.379 0.391,-0.205 0.941,-0.22 1.65,-0.046 l 5.617,1.374 c 0.538,0.132 0.961,0.07 1.268,-0.185 0.306,-0.255 0.467,-0.666 0.482,-1.232 l 0.019,-0.715 c 0.014,-0.537 -0.11,-1.002 -0.37,-1.395 -0.262,-0.394 -0.69,-0.664 -1.285,-0.81 l -8.552,-2.092 c -4.596,-1.125 -6.957,0.757 -7.086,5.645 l -0.201,7.6 c -0.065,2.473 0.441,4.382 1.519,5.726 1.078,1.343 2.823,2.31 5.234,2.9 l 3.957,0.969 c 2.41,0.589 4.191,0.485 5.34,-0.313 1.148,-0.8 1.756,-2.436 1.821,-4.909 z m -20.108,-16.979 c 0.049,-1.848 -0.807,-2.987 -2.565,-3.417 l -2.681,-0.656 c -1.759,-0.431 -2.662,0.278 -2.711,2.126 l -0.566,21.504 c -0.051,1.937 0.859,3.135 2.731,3.593 l 2.34,0.573 c 1.872,0.458 2.834,-0.282 2.885,-2.219 z m -17.97,7.751 c 0.053,-2.027 -0.449,-3.567 -1.506,-4.62 -1.057,-1.054 -2.661,-1.949 -4.811,-2.684 l -0.424,-0.149 c -0.623,-0.213 -1.115,-0.506 -1.476,-0.879 -0.361,-0.374 -0.532,-0.948 -0.511,-1.722 l 0.01,-0.403 c 0.025,-0.954 0.276,-1.523 0.752,-1.706 0.476,-0.183 1.097,-0.181 1.863,0.006 l 4.468,1.093 c 0.623,0.153 1.067,0.104 1.331,-0.146 0.263,-0.251 0.402,-0.644 0.416,-1.181 l 0.019,-0.715 c 0.032,-1.192 -0.52,-1.927 -1.654,-2.205 l -7.915,-1.936 c -1.191,-0.292 -2.222,-0.432 -3.093,-0.42 -0.872,0.012 -1.605,0.2 -2.199,0.564 -0.595,0.364 -1.039,0.939 -1.33,1.722 -0.293,0.784 -0.454,1.786 -0.487,3.008 l -0.009,0.358 c -0.028,1.043 0.057,1.919 0.252,2.626 0.196,0.708 0.543,1.333 1.042,1.876 0.5,0.541 1.158,1.025 1.975,1.45 0.817,0.425 1.833,0.86 3.049,1.308 l 0.339,0.128 c 0.622,0.212 1.114,0.521 1.474,0.924 0.361,0.403 0.531,1.007 0.51,1.811 -0.026,0.954 -0.278,1.582 -0.757,1.885 -0.479,0.303 -1.101,0.36 -1.867,0.173 l -4.255,-1.041 c -1.164,-0.285 -1.76,0.169 -1.791,1.361 l -0.018,0.671 c -0.014,0.537 0.108,1.008 0.369,1.418 0.261,0.408 0.703,0.689 1.327,0.842 l 7.787,1.905 c 2.382,0.583 4.146,0.52 5.293,-0.189 1.146,-0.71 1.752,-2.287 1.816,-4.731 z m -25.832,-6.14 c -0.021,0.833 -0.246,1.491 -0.672,1.972 -0.427,0.48 -1.293,0.561 -2.597,0.242 -0.653,-0.16 -1.19,-0.374 -1.611,-0.642 -0.421,-0.268 -0.742,-0.564 -0.961,-0.887 -0.221,-0.325 -0.368,-0.675 -0.444,-1.053 -0.075,-0.379 -0.108,-0.778 -0.097,-1.194 0.011,-0.418 0.064,-0.794 0.159,-1.131 0.094,-0.337 0.258,-0.612 0.492,-0.825 0.234,-0.213 0.566,-0.341 0.996,-0.386 0.429,-0.045 0.969,0.012 1.622,0.172 0.652,0.16 1.182,0.364 1.59,0.614 0.407,0.249 0.728,0.538 0.962,0.865 0.234,0.328 0.389,0.68 0.465,1.059 0.075,0.379 0.108,0.776 0.096,1.194 m 7.454,1.553 c 0.034,-1.311 -0.072,-2.424 -0.319,-3.34 -0.248,-0.916 -0.627,-1.69 -1.138,-2.326 -0.512,-0.635 -1.154,-1.153 -1.929,-1.551 -0.775,-0.401 -1.687,-0.728 -2.736,-0.985 l -1.744,-0.427 c -1.476,-0.361 -2.197,-1.138 -2.166,-2.329 0.019,-0.716 0.224,-1.176 0.615,-1.38 0.39,-0.204 0.94,-0.22 1.65,-0.046 l 5.616,1.374 c 0.538,0.132 0.962,0.07 1.268,-0.184 0.306,-0.256 0.467,-0.666 0.482,-1.232 l 0.019,-0.716 c 0.014,-0.536 -0.11,-1.002 -0.37,-1.395 -0.261,-0.394 -0.689,-0.664 -1.285,-0.809 l -8.552,-2.093 c -4.595,-1.124 -6.957,0.757 -7.086,5.645 l -0.201,7.6 c -0.065,2.473 0.442,4.382 1.52,5.726 1.078,1.344 2.822,2.311 5.233,2.901 l 3.957,0.968 c 2.411,0.59 4.191,0.485 5.34,-0.313 1.148,-0.799 1.756,-2.436 1.821,-4.909 z m -20.311,-12.484 c 0.065,-2.474 -0.44,-4.443 -1.515,-5.905 -1.075,-1.463 -2.818,-2.489 -5.229,-3.079 l -8.339,-2.041 c -1.759,-0.43 -2.662,0.278 -2.711,2.126 l -0.428,16.229 c -0.05,1.907 0.804,3.076 2.563,3.507 l 2.638,0.645 c 1.758,0.43 2.663,-0.309 2.713,-2.216 l 0.324,-12.294 c 0.023,-0.865 0.26,-1.474 0.712,-1.828 0.452,-0.355 1.089,-0.431 1.912,-0.229 l 0.468,0.114 c 0.766,0.188 1.37,0.545 1.813,1.074 0.442,0.527 0.652,1.269 0.627,2.223 l -0.342,12.964 c -0.021,0.775 0.156,1.381 0.53,1.817 0.374,0.437 0.859,0.728 1.455,0.874 l 0.382,0.094 c 0.653,0.159 1.161,0.088 1.526,-0.212 0.365,-0.301 0.556,-0.794 0.574,-1.479 z m -20.864,13.342 c 0.018,-0.656 -0.125,-1.215 -0.427,-1.678 -0.302,-0.465 -0.821,-0.787 -1.559,-0.967 l -0.68,-0.167 c -0.738,-0.18 -1.261,-0.114 -1.569,0.202 -0.308,0.314 -0.47,0.799 -0.488,1.455 l -0.02,0.76 c -0.018,0.685 0.138,1.256 0.469,1.712 0.331,0.456 0.822,0.763 1.475,0.923 l 0.68,0.166 c 0.652,0.16 1.161,0.097 1.526,-0.188 0.364,-0.287 0.555,-0.772 0.573,-1.457 z m 0.602,-22.844 c 0.049,-1.849 -0.806,-2.987 -2.565,-3.418 l -2.68,-0.656 c -1.759,-0.43 -2.662,0.278 -2.711,2.127 l -0.426,16.139 c -0.051,1.967 0.859,3.179 2.731,3.637 l 2.34,0.573 c 1.872,0.458 2.834,-0.296 2.886,-2.263 z m -10.585,1.954 c 0.128,-4.858 -2.134,-7.856 -6.786,-8.995 l -3.999,-0.978 c -2.412,-0.59 -4.193,-0.426 -5.345,0.492 -1.152,0.917 -1.76,2.613 -1.825,5.087 l -0.327,12.384 c -0.018,0.685 0.152,1.267 0.511,1.745 0.358,0.477 0.863,0.796 1.516,0.956 l 0.341,0.083 c 0.623,0.153 1.125,0.102 1.503,-0.15 0.377,-0.253 0.576,-0.766 0.597,-1.541 l 0.241,-9.165 c 0.025,-0.954 0.277,-1.582 0.756,-1.884 0.48,-0.303 1.102,-0.361 1.868,-0.174 l 0.468,0.115 c 0.822,0.201 1.447,0.587 1.875,1.156 0.428,0.57 0.63,1.286 0.607,2.151 l -0.267,8.529 c -0.05,1.878 0.819,3.035 2.606,3.472 l 2.638,0.646 c 1.758,0.43 2.663,-0.294 2.712,-2.171 z m -19.805,-5.701 c 0.033,-1.252 -0.082,-2.331 -0.343,-3.234 -0.262,-0.904 -0.67,-1.671 -1.224,-2.302 -0.555,-0.63 -1.269,-1.15 -2.143,-1.559 -0.874,-0.409 -1.907,-0.759 -3.098,-1.05 l -8.51,-2.083 c -0.539,-0.132 -0.961,-0.07 -1.268,0.185 -0.307,0.254 -0.467,0.666 -0.482,1.232 l -0.018,0.671 c -0.014,0.536 0.102,0.998 0.349,1.39 0.247,0.39 0.682,0.661 1.306,0.814 l 4.978,1.218 c 0.766,0.188 1.38,0.458 1.842,0.811 0.461,0.353 0.68,1.006 0.655,1.96 l -0.008,0.268 c -0.02,0.775 -0.219,1.258 -0.594,1.452 -0.377,0.192 -0.877,0.213 -1.501,0.06 l -0.851,-0.208 c -4.312,-1.055 -6.522,0.489 -6.631,4.631 l -0.144,5.455 c -0.064,2.443 0.443,4.322 1.522,5.636 1.079,1.314 2.823,2.266 5.235,2.856 l 3.318,0.812 c 2.44,0.597 4.221,0.425 5.345,-0.514 1.124,-0.94 1.719,-2.647 1.784,-5.121 l 0.095,-3.621 c 0.021,-0.775 -0.15,-1.364 -0.51,-1.767 -0.36,-0.403 -0.838,-0.678 -1.434,-0.823 l -0.383,-0.094 c -0.653,-0.16 -1.161,-0.104 -1.524,0.167 -0.365,0.271 -0.555,0.748 -0.573,1.434 l -0.009,0.313 c -0.022,0.864 -0.266,1.413 -0.728,1.644 -0.463,0.232 -1.078,0.269 -1.845,0.112 l -3.233,-0.792 c -0.795,-0.194 -1.414,-0.556 -1.856,-1.084 -0.443,-0.529 -0.652,-1.269 -0.626,-2.223 l 0.031,-1.207 c 0.021,-0.775 0.219,-1.281 0.597,-1.518 0.377,-0.239 0.864,-0.284 1.46,-0.138 l 4.341,1.017 c 2.468,0.573 4.184,0.476 5.146,-0.293 0.962,-0.77 1.471,-2.198 1.526,-4.284 z"
       style="fill:#130c0e;fill-opacity:1;fill-rule:nonzero;stroke:none"
       transform="matrix(1.3333333,0,0,-1.3333333,645.204,491.76773)"
       clip-path="url(#clipPath2)" />
    <path
       id="path3"
       d="m 0,0 c 0.018,-0.686 -0.153,-1.26 -0.511,-1.722 -0.36,-0.463 -0.865,-0.774 -1.517,-0.934 l -0.34,-0.083 c -0.625,-0.153 -1.125,-0.111 -1.503,0.127 -0.377,0.238 -0.576,0.743 -0.596,1.519 l -0.323,12.25 c -0.018,0.685 0.152,1.259 0.511,1.722 0.359,0.462 0.864,0.774 1.517,0.934 l 0.34,0.083 c 0.624,0.153 1.125,0.11 1.503,-0.127 0.377,-0.239 0.576,-0.745 0.596,-1.519 z m 1.924,-9.608 c 0.048,-1.848 -0.807,-2.987 -2.565,-3.417 l -2.639,-0.646 c -1.759,-0.43 -2.662,0.278 -2.711,2.126 l -0.06,2.28 c -0.052,1.967 0.844,3.176 2.689,3.628 l 2.382,0.583 c 1.844,0.451 2.792,-0.307 2.844,-2.274 z m -9.666,-2.995 c 0.018,-0.686 -0.145,-1.258 -0.49,-1.717 -0.345,-0.46 -0.843,-0.769 -1.496,-0.929 l -0.383,-0.093 c -0.624,-0.153 -1.125,-0.111 -1.502,0.127 -0.378,0.237 -0.576,0.743 -0.597,1.519 l -0.236,8.986 c -0.026,0.953 -0.271,1.583 -0.736,1.89 -0.464,0.306 -1.094,0.362 -1.888,0.167 l -0.426,-0.104 c -0.823,-0.201 -1.447,-0.586 -1.875,-1.156 -0.427,-0.57 -0.629,-1.287 -0.606,-2.151 l 0.236,-8.986 c 0.018,-0.685 -0.153,-1.26 -0.511,-1.722 -0.359,-0.464 -0.865,-0.774 -1.517,-0.934 l -0.341,-0.083 c -0.624,-0.153 -1.125,-0.111 -1.501,0.127 -0.378,0.237 -0.577,0.744 -0.597,1.519 l -0.341,12.92 c -0.025,0.954 -0.277,1.582 -0.756,1.885 -0.479,0.303 -1.102,0.36 -1.868,0.173 l -0.468,-0.115 c -0.823,-0.201 -1.44,-0.585 -1.854,-1.151 -0.413,-0.566 -0.608,-1.282 -0.586,-2.146 l 0.324,-12.294 c 0.049,-1.848 -0.806,-2.987 -2.564,-3.417 l -2.681,-0.656 c -1.759,-0.43 -2.662,0.278 -2.711,2.126 l -0.429,16.273 c -0.049,1.878 0.805,3.032 2.564,3.463 l 18.381,4.497 c 2.411,0.59 4.186,0.409 5.324,-0.542 1.139,-0.951 1.74,-2.649 1.805,-5.092 z m -30.48,-6.829 c 0.048,-1.848 -0.807,-2.987 -2.566,-3.417 l -2.638,-0.646 c -1.786,-0.437 -2.705,0.268 -2.753,2.116 l -0.287,12.529 c -0.023,0.864 -0.261,1.473 -0.713,1.828 -0.451,0.353 -1.089,0.431 -1.911,0.229 l -0.468,-0.114 c -0.766,-0.188 -1.378,-0.548 -1.835,-1.079 -0.457,-0.532 -0.672,-1.275 -0.647,-2.228 l 0.346,-13.144 c 0.021,-0.775 -0.15,-1.372 -0.51,-1.79 -0.36,-0.418 -0.852,-0.703 -1.476,-0.856 l -0.34,-0.083 c -0.653,-0.16 -1.168,-0.099 -1.546,0.184 -0.38,0.282 -0.578,0.766 -0.596,1.452 l -0.585,22.219 c -0.05,1.877 0.804,3.032 2.563,3.462 l 2.681,0.656 c 1.759,0.43 2.648,-0.268 2.668,-2.092 l 0.01,-0.402 c -0.01,-0.694 0.153,-1.193 0.489,-1.501 0.336,-0.308 0.873,-0.371 1.611,-0.19 l 1.021,0.249 c 2.411,0.59 4.193,0.419 5.345,-0.514 1.152,-0.933 1.761,-2.622 1.826,-5.065 z m -20.032,-0.357 c 0.065,-2.444 -0.448,-4.406 -1.536,-5.888 -1.089,-1.481 -2.839,-2.517 -5.25,-3.106 l -3.999,-0.979 c -4.653,-1.139 -7.042,0.721 -7.17,5.58 l -0.451,17.077 c -0.049,1.878 0.805,3.032 2.564,3.462 l 2.681,0.656 c 0.851,0.209 1.517,0.116 1.999,-0.276 0.481,-0.392 0.708,-1.161 0.681,-2.308 -0.02,-1.415 0.679,-1.948 2.098,-1.601 l 5.531,1.354 c 0.738,0.18 1.268,0.1 1.591,-0.241 0.323,-0.341 0.493,-0.84 0.51,-1.495 0.04,-1.491 -0.621,-2.402 -1.983,-2.735 l -7.531,-1.843 c -1.248,-0.306 -2.133,-0.859 -2.654,-1.662 -0.522,-0.803 -0.767,-1.77 -0.737,-2.902 l 0.181,-6.885 c 0.023,-0.865 0.253,-1.476 0.691,-1.833 0.438,-0.359 1.068,-0.436 1.891,-0.235 l 0.468,0.114 c 0.765,0.188 1.369,0.545 1.812,1.074 0.443,0.528 0.652,1.269 0.627,2.223 l -0.136,5.186 c -0.021,0.775 0.149,1.364 0.509,1.767 0.36,0.403 0.853,0.681 1.478,0.834 l 3.871,0.947 c 0.652,0.16 1.168,0.106 1.546,-0.161 0.378,-0.268 0.577,-0.744 0.595,-1.43 z m -20.466,-4.963 c 0.04,-1.52 -0.139,-2.839 -0.538,-3.956 -0.375,-0.962 -0.86,-1.756 -1.458,-2.381 -0.597,-0.627 -1.303,-1.19 -2.118,-1.689 -0.309,-0.195 -0.522,-0.517 -0.638,-0.966 -0.117,-0.448 -0.169,-0.925 -0.155,-1.433 l 0.052,-1.967 c 0.049,-1.877 -0.806,-3.031 -2.564,-3.462 l -2.681,-0.656 c -1.759,-0.43 -2.662,0.294 -2.712,2.171 l -0.052,1.967 c -0.032,1.223 -0.421,1.922 -1.168,2.099 -0.718,0.124 -1.337,0.355 -1.86,0.693 -0.523,0.336 -0.95,0.824 -1.28,1.464 -0.482,0.931 -0.743,2.172 -0.784,3.722 l -0.327,12.429 c -0.018,0.685 0.152,1.252 0.512,1.7 0.359,0.448 0.865,0.751 1.517,0.911 l 0.341,0.083 c 0.623,0.153 1.124,0.118 1.501,-0.105 0.377,-0.222 0.576,-0.722 0.597,-1.496 l 0.347,-13.188 c 0.025,-0.955 0.277,-1.575 0.756,-1.863 0.478,-0.287 1.1,-0.338 1.866,-0.15 l 0.468,0.114 c 0.823,0.201 1.448,0.58 1.876,1.134 0.428,0.555 0.631,1.264 0.608,2.129 l -0.329,12.473 c -0.049,1.877 0.805,3.031 2.564,3.462 l 2.638,0.645 c 1.758,0.43 2.663,-0.293 2.712,-2.171 z m -20.345,-9.568 c 0.049,-1.848 -0.807,-2.987 -2.565,-3.417 l -2.638,-0.646 c -1.787,-0.437 -2.705,0.268 -2.754,2.116 l -0.287,12.528 c -0.023,0.865 -0.26,1.474 -0.712,1.829 -0.452,0.353 -1.089,0.431 -1.912,0.229 l -0.468,-0.114 c -0.766,-0.188 -1.377,-0.548 -1.834,-1.079 -0.457,-0.532 -0.673,-1.275 -0.648,-2.228 l 0.347,-13.144 c 0.02,-0.776 -0.151,-1.372 -0.51,-1.79 -0.36,-0.418 -0.853,-0.703 -1.476,-0.856 l -0.341,-0.083 c -0.652,-0.16 -1.168,-0.099 -1.546,0.184 -0.379,0.282 -0.577,0.766 -0.595,1.452 l -0.586,22.219 c -0.049,1.877 0.805,3.031 2.564,3.462 l 2.681,0.656 c 1.758,0.43 2.647,-0.268 2.667,-2.092 l 0.011,-0.402 c -0.011,-0.694 0.152,-1.193 0.489,-1.501 0.336,-0.308 0.873,-0.371 1.611,-0.19 l 1.021,0.249 c 2.41,0.59 4.192,0.419 5.345,-0.514 1.152,-0.933 1.761,-2.622 1.825,-5.065 z m -20.295,-4.966 c 0.048,-1.848 -0.807,-2.987 -2.566,-3.417 l -2.638,-0.646 c -1.786,-0.437 -2.705,0.268 -2.753,2.116 l -0.103,3.889 c -0.025,0.954 -0.241,1.554 -0.647,1.8 -0.406,0.244 -1.006,0.271 -1.8,0.077 -0.738,-0.181 -1.254,-0.105 -1.548,0.228 -0.295,0.333 -0.449,0.812 -0.466,1.438 l -0.011,0.403 c -0.018,0.685 0.145,1.265 0.49,1.739 0.344,0.474 0.842,0.791 1.495,0.951 l 3.617,0.885 c 0.822,0.201 1.392,0.505 1.71,0.914 0.317,0.407 0.463,1.117 0.436,2.131 l -0.008,0.313 c -0.025,0.953 -0.276,1.515 -0.751,1.683 -0.476,0.169 -1.096,0.16 -1.862,-0.028 l -3.999,-0.978 c -0.823,-0.202 -1.441,-0.586 -1.854,-1.151 -0.414,-0.567 -0.609,-1.282 -0.586,-2.146 l 0.372,-14.127 c 0.018,-0.686 -0.153,-1.26 -0.511,-1.723 -0.359,-0.463 -0.865,-0.774 -1.517,-0.933 l -0.341,-0.084 c -0.624,-0.152 -1.125,-0.11 -1.502,0.128 -0.378,0.237 -0.576,0.743 -0.597,1.518 l -0.466,17.704 c -0.129,4.888 2.132,7.901 6.785,9.04 l 3.999,0.978 c 2.411,0.59 4.193,0.418 5.345,-0.514 1.152,-0.933 1.761,-2.637 1.827,-5.11 l 0.109,-4.158 c 0.029,-1.103 -0.18,-2.106 -0.627,-3.01 -0.447,-0.905 -1.081,-1.518 -1.901,-1.838 0.825,0.112 1.483,-0.2 1.974,-0.934 0.49,-0.735 0.749,-1.624 0.777,-2.667 z m -35.784,3.573 c -0.022,0.833 -0.247,1.491 -0.673,1.972 -0.427,0.48 -1.293,0.561 -2.597,0.242 -0.653,-0.16 -1.189,-0.374 -1.61,-0.642 -0.421,-0.268 -0.742,-0.564 -0.962,-0.887 -0.22,-0.325 -0.367,-0.675 -0.443,-1.054 -0.076,-0.378 -0.108,-0.777 -0.097,-1.193 0.011,-0.418 0.064,-0.794 0.158,-1.131 0.095,-0.337 0.258,-0.612 0.493,-0.825 0.234,-0.213 0.566,-0.341 0.995,-0.386 0.429,-0.045 0.97,0.012 1.623,0.172 0.652,0.16 1.182,0.364 1.589,0.614 0.407,0.249 0.728,0.538 0.962,0.865 0.234,0.327 0.389,0.68 0.465,1.059 0.075,0.378 0.108,0.776 0.097,1.194 m 7.453,1.553 c 0.035,-1.312 -0.072,-2.425 -0.319,-3.34 -0.248,-0.916 -0.626,-1.691 -1.137,-2.326 -0.512,-0.635 -1.155,-1.153 -1.93,-1.551 -0.774,-0.401 -1.686,-0.728 -2.735,-0.985 l -1.745,-0.427 c -1.475,-0.361 -2.197,-1.138 -2.166,-2.329 0.019,-0.716 0.224,-1.176 0.615,-1.38 0.391,-0.205 0.941,-0.22 1.65,-0.046 l 5.616,1.374 c 0.539,0.132 0.962,0.07 1.268,-0.184 0.307,-0.256 0.468,-0.667 0.482,-1.232 l 0.019,-0.716 c 0.014,-0.536 -0.109,-1.002 -0.37,-1.395 -0.261,-0.394 -0.689,-0.664 -1.284,-0.809 l -8.552,-2.093 c -4.596,-1.125 -6.958,0.757 -7.087,5.645 l -0.2,7.6 c -0.065,2.473 0.441,4.382 1.519,5.726 1.078,1.344 2.822,2.311 5.233,2.901 l 3.958,0.968 c 2.41,0.59 4.19,0.485 5.339,-0.313 1.149,-0.799 1.756,-2.436 1.822,-4.909 z m -20.149,-16.989 c 0.049,-1.848 -0.807,-2.987 -2.566,-3.417 l -2.637,-0.646 c -1.787,-0.437 -2.705,0.268 -2.754,2.116 l -0.287,12.528 c -0.023,0.864 -0.26,1.473 -0.712,1.828 -0.452,0.354 -1.09,0.431 -1.912,0.23 l -0.468,-0.114 c -0.766,-0.188 -1.377,-0.548 -1.834,-1.08 -0.457,-0.531 -0.673,-1.274 -0.648,-2.228 l 0.346,-13.143 c 0.021,-0.776 -0.15,-1.372 -0.509,-1.79 -0.361,-0.418 -0.853,-0.703 -1.476,-0.856 l -0.341,-0.083 c -0.653,-0.16 -1.168,-0.099 -1.546,0.184 -0.379,0.282 -0.577,0.766 -0.595,1.451 l -0.586,22.22 c -0.05,1.877 0.805,3.031 2.564,3.462 l 2.68,0.656 c 1.759,0.43 2.648,-0.268 2.668,-2.093 l 0.011,-0.402 c -0.011,-0.693 0.152,-1.193 0.489,-1.5 0.335,-0.308 0.873,-0.371 1.611,-0.191 l 1.021,0.25 c 2.41,0.59 4.192,0.419 5.344,-0.514 1.152,-0.933 1.761,-2.622 1.826,-5.066 z m -20.031,-0.357 c 0.064,-2.444 -0.449,-4.407 -1.537,-5.888 -1.089,-1.481 -2.839,-2.517 -5.25,-3.107 l -3.999,-0.978 c -4.652,-1.139 -7.042,0.721 -7.17,5.579 l -0.45,17.078 c -0.05,1.877 0.804,3.032 2.563,3.462 l 2.681,0.656 c 0.851,0.208 1.518,0.116 1.999,-0.276 0.481,-0.392 0.708,-1.161 0.682,-2.308 -0.021,-1.415 0.678,-1.948 2.097,-1.601 l 5.531,1.353 c 0.738,0.181 1.268,0.1 1.591,-0.24 0.323,-0.342 0.493,-0.84 0.511,-1.495 0.039,-1.491 -0.622,-2.402 -1.984,-2.736 l -7.531,-1.842 c -1.248,-0.306 -2.133,-0.86 -2.654,-1.662 -0.521,-0.803 -0.767,-1.77 -0.737,-2.902 l 0.182,-6.885 c 0.022,-0.865 0.252,-1.476 0.69,-1.833 0.438,-0.359 1.068,-0.437 1.891,-0.235 l 0.468,0.114 c 0.766,0.188 1.369,0.545 1.813,1.074 0.442,0.528 0.652,1.269 0.626,2.223 l -0.136,5.186 c -0.021,0.775 0.149,1.364 0.51,1.767 0.36,0.403 0.852,0.681 1.477,0.833 l 3.872,0.948 c 0.652,0.159 1.167,0.106 1.545,-0.161 0.378,-0.268 0.577,-0.745 0.595,-1.43 z m -35.798,-0.886 c -0.025,0.954 -0.278,1.582 -0.757,1.885 -0.479,0.302 -1.101,0.361 -1.867,0.173 l -1.106,-0.271 c -0.795,-0.194 -1.406,-0.577 -1.833,-1.146 -0.428,-0.57 -0.63,-1.286 -0.607,-2.15 l 0.126,-4.784 c 0.047,-1.788 0.907,-2.478 2.581,-2.068 l 1.106,0.27 c 0.766,0.188 1.378,0.547 1.835,1.08 0.457,0.531 0.673,1.274 0.648,2.228 z m 7.523,-5.988 c 0.065,-2.474 -0.433,-4.447 -1.493,-5.922 -1.06,-1.474 -2.81,-2.51 -5.249,-3.107 l -4.042,-0.989 c -4.624,-1.131 -7,0.747 -7.129,5.635 l -0.189,7.153 c -0.129,4.918 2.118,7.942 6.741,9.074 l 4.042,0.989 c 2.411,0.589 4.187,0.409 5.325,-0.542 1.138,-0.952 1.74,-2.664 1.805,-5.138 z m -19.698,-4.865 c 0.064,-2.444 -0.449,-4.406 -1.537,-5.888 -1.089,-1.481 -2.839,-2.517 -5.249,-3.107 l -4,-0.978 c -4.652,-1.139 -7.042,0.721 -7.17,5.58 l -0.45,17.077 c -0.05,1.878 0.805,3.032 2.564,3.462 l 2.68,0.656 c 0.851,0.209 1.518,0.116 1.999,-0.276 0.481,-0.392 0.708,-1.161 0.682,-2.308 -0.02,-1.415 0.678,-1.948 2.098,-1.601 l 5.53,1.353 c 0.738,0.181 1.268,0.101 1.591,-0.24 0.323,-0.342 0.493,-0.84 0.511,-1.495 0.039,-1.491 -0.622,-2.402 -1.984,-2.735 l -7.531,-1.843 c -1.248,-0.306 -2.133,-0.86 -2.653,-1.662 -0.522,-0.803 -0.768,-1.77 -0.738,-2.902 l 0.182,-6.885 c 0.023,-0.865 0.252,-1.476 0.69,-1.833 0.438,-0.359 1.068,-0.437 1.891,-0.235 l 0.468,0.114 c 0.766,0.188 1.37,0.545 1.813,1.074 0.442,0.528 0.652,1.269 0.627,2.223 l -0.137,5.186 c -0.021,0.775 0.149,1.364 0.51,1.767 0.36,0.403 0.852,0.681 1.477,0.834 l 3.872,0.947 c 0.652,0.16 1.167,0.106 1.545,-0.161 0.378,-0.268 0.577,-0.745 0.595,-1.43 z m -20.16,-10.107 c 0.018,-0.686 -0.153,-1.26 -0.511,-1.723 -0.36,-0.463 -0.865,-0.774 -1.517,-0.933 l -0.341,-0.084 c -0.624,-0.152 -1.125,-0.11 -1.501,0.128 -0.378,0.237 -0.578,0.743 -0.598,1.518 l -0.343,13.01 c -0.025,0.953 -0.276,1.581 -0.756,1.884 -0.478,0.303 -1.101,0.361 -1.868,0.173 l -0.467,-0.114 c -0.823,-0.202 -1.441,-0.585 -1.854,-1.151 -0.413,-0.567 -0.609,-1.281 -0.586,-2.145 l 0.326,-12.384 c 0.049,-1.849 -0.806,-2.987 -2.564,-3.417 l -2.681,-0.656 c -1.759,-0.431 -2.662,0.278 -2.711,2.126 l -0.43,16.318 c -0.049,1.847 0.806,2.986 2.565,3.417 l 8.339,2.04 c 2.411,0.59 4.193,0.419 5.345,-0.514 1.152,-0.933 1.761,-2.622 1.825,-5.065 z m -21.042,18.473 c 0.018,-0.656 -0.125,-1.216 -0.427,-1.679 -0.302,-0.465 -0.821,-0.786 -1.559,-0.967 l -0.68,-0.166 c -0.738,-0.181 -1.261,-0.114 -1.569,0.201 -0.308,0.314 -0.47,0.799 -0.488,1.455 l -0.02,0.761 c -0.018,0.685 0.138,1.255 0.469,1.711 0.331,0.456 0.822,0.763 1.475,0.923 l 0.68,0.167 c 0.652,0.159 1.161,0.096 1.526,-0.189 0.364,-0.286 0.555,-0.772 0.573,-1.457 z m 0.602,-22.845 c 0.049,-1.848 -0.806,-2.987 -2.565,-3.417 l -2.68,-0.656 c -1.759,-0.431 -2.662,0.278 -2.711,2.126 l -0.426,16.139 c -0.051,1.967 0.859,3.18 2.731,3.638 l 2.34,0.572 c 1.872,0.459 2.834,-0.296 2.886,-2.263 z m -25.663,6.139 c -0.026,0.953 -0.278,1.581 -0.757,1.885 -0.479,0.302 -1.101,0.36 -1.867,0.172 l -1.021,-0.249 c -0.823,-0.202 -1.448,-0.588 -1.875,-1.157 -0.428,-0.57 -0.63,-1.287 -0.607,-2.151 l 0.126,-4.783 c 0.023,-0.894 0.26,-1.511 0.712,-1.851 0.451,-0.339 1.088,-0.409 1.911,-0.207 l 1.021,0.25 c 0.766,0.187 1.378,0.554 1.834,1.101 0.457,0.546 0.673,1.282 0.649,2.206 z m 7.733,-5.847 c 0.065,-2.444 -0.455,-4.416 -1.557,-5.916 -1.102,-1.5 -2.859,-2.544 -5.27,-3.134 l -0.979,-0.239 c -0.737,-0.181 -1.257,-0.503 -1.559,-0.967 -0.302,-0.463 -0.443,-1.038 -0.425,-1.723 l 0.088,-1.734 c 0.053,-0.946 -0.148,-1.701 -0.604,-2.262 -0.456,-0.562 -1.11,-0.947 -1.961,-1.155 l -2.68,-0.656 c -1.759,-0.431 -2.662,0.279 -2.711,2.126 l -0.482,18.285 c -0.13,4.948 2.13,7.991 6.782,9.129 l 4,0.979 c 2.411,0.59 4.193,0.402 5.346,-0.56 1.153,-0.962 1.762,-2.681 1.827,-5.154 z m -24.279,-6.526 c -0.022,0.834 -0.247,1.492 -0.673,1.972 -0.427,0.481 -1.293,0.561 -2.597,0.242 -0.653,-0.16 -1.189,-0.374 -1.61,-0.641 -0.422,-0.268 -0.75,-0.566 -0.983,-0.893 -0.235,-0.327 -0.389,-0.68 -0.465,-1.059 -0.076,-0.378 -0.108,-0.776 -0.097,-1.193 0.011,-0.418 0.064,-0.795 0.158,-1.132 0.095,-0.336 0.266,-0.609 0.514,-0.819 0.248,-0.209 0.587,-0.336 1.017,-0.381 0.429,-0.045 0.97,0.012 1.623,0.172 0.652,0.16 1.182,0.364 1.589,0.614 0.407,0.249 0.728,0.539 0.962,0.866 0.234,0.327 0.389,0.68 0.465,1.058 0.076,0.379 0.108,0.776 0.097,1.194 m 3.939,-3.221 c 0.023,-0.864 -0.18,-1.581 -0.607,-2.15 -0.428,-0.571 -1.053,-0.956 -1.875,-1.157 l -8.34,-2.04 c -2.411,-0.59 -4.191,-0.494 -5.339,0.29 -1.149,0.783 -1.755,2.398 -1.819,4.842 l -0.005,0.179 c -0.033,1.281 0.072,2.387 0.319,3.318 0.247,0.93 0.626,1.72 1.137,2.37 0.511,0.649 1.153,1.174 1.928,1.574 0.775,0.399 1.687,0.728 2.737,0.984 l 1.744,0.427 c 0.681,0.167 1.209,0.446 1.584,0.838 0.375,0.392 0.555,0.885 0.539,1.482 -0.019,0.715 -0.224,1.182 -0.615,1.402 -0.391,0.219 -0.927,0.245 -1.608,0.078 l -5.616,-1.374 c -1.135,-0.278 -1.719,0.194 -1.751,1.417 l -0.019,0.715 c -0.014,0.537 0.103,1 0.349,1.39 0.247,0.39 0.682,0.662 1.306,0.815 l 8.552,2.093 c 4.596,1.124 6.958,-0.773 7.088,-5.69 z m -17.626,17.734 c 0.033,-1.222 -0.519,-1.971 -1.653,-2.248 l -0.553,-0.136 c -0.823,-0.201 -1.448,-0.579 -1.876,-1.134 -0.428,-0.555 -0.63,-1.279 -0.606,-2.173 l 0.456,-17.301 c 0.048,-1.849 -0.807,-2.987 -2.565,-3.418 l -2.596,-0.635 c -1.787,-0.437 -2.705,0.268 -2.753,2.116 l -0.456,17.301 c -0.024,0.894 -0.262,1.511 -0.713,1.851 -0.452,0.339 -1.089,0.409 -1.911,0.207 l -0.596,-0.145 c -1.135,-0.278 -1.718,0.193 -1.75,1.416 l -0.02,0.76 c -0.014,0.537 0.108,1.008 0.37,1.418 0.26,0.408 0.688,0.686 1.284,0.831 l 14.168,3.467 c 0.624,0.153 1.068,0.089 1.333,-0.191 0.264,-0.281 0.403,-0.688 0.417,-1.225 z"
       style="fill:#130c0e;fill-opacity:1;fill-rule:nonzero;stroke:none"
       transform="matrix(1.3333333,0,0,-1.3333333,639.88213,431.14787)"
       clip-path="url(#clipPath4)" />
    <path
       id="path5"
       d="m 0,0 c 4.894,12.547 7.441,25.99 7.441,39.551 0,59.928 -48.754,108.683 -108.682,108.683 -34.925,0 -67.126,-16.686 -87.342,-43.975 -14.012,7.001 -29.565,10.725 -45.455,10.725 -20.991,0 -41.147,-6.349 -58.288,-18.361 -8.889,-6.228 -16.637,-13.734 -23.038,-22.254 -17.194,10.789 -37.268,16.702 -57.836,16.702 -59.928,0 -108.683,-48.755 -108.683,-108.683 0,-24.092 7.724,-46.916 22.336,-66.007 10.206,-13.335 23.493,-24.17 38.472,-31.557 -0.205,-2.623 -0.307,-5.258 -0.307,-7.897 0,-55.669 45.29,-100.959 100.958,-100.959 20.885,0 40.931,6.328 57.972,18.298 10.137,7.121 18.774,15.914 25.603,25.984 11.397,-4.307 23.536,-6.533 35.935,-6.533 31.208,0 60.532,14.581 79.602,38.458 12.553,-5.597 26.176,-8.498 40.266,-8.498 54.679,0 99.163,44.484 99.163,99.162 C 18.117,-36.457 11.765,-16.626 0,0"
       style="fill:#00b3f0;fill-opacity:1;fill-rule:nonzero;stroke:none"
       transform="matrix(1.3333333,0,0,-1.3333333,642.5104,197.64587)"
       clip-path="url(#clipPath6)" />
    <path
       id="path7"
       d="m 0,0 c 5.98,12.826 9.115,26.918 9.115,41.162 0,53.688 -43.678,97.366 -97.365,97.366 -34.693,0 -66.385,-18.377 -83.768,-47.706 -14.529,9.386 -31.55,14.456 -49.029,14.456 -18.655,0 -36.565,-5.64 -51.793,-16.312 -10.96,-7.68 -19.969,-17.542 -26.538,-28.964 -17.159,13.703 -38.677,21.363 -60.831,21.363 -53.687,0 -97.366,-43.678 -97.366,-97.365 0,-40.116 24.959,-76.144 61.728,-90.631 -0.816,-4.887 -1.227,-9.848 -1.227,-14.83 0,-49.429 40.213,-89.642 89.641,-89.642 18.544,0 36.341,5.616 51.467,16.241 11.591,8.143 20.974,18.746 27.565,31.059 12.5,-6.276 26.297,-9.552 40.478,-9.552 30.846,0 59.619,16.027 76.091,41.624 13.257,-7.66 28.192,-11.663 43.777,-11.663 48.438,0 87.845,39.407 87.845,87.845 C 19.79,-35.123 12.811,-15.654 0,0"
       style="fill:#ffffff;fill-opacity:1;fill-rule:nonzero;stroke:none"
       transform="matrix(1.3333333,0,0,-1.3333333,625.18907,199.79413)"
       clip-path="url(#clipPath8)" />
    <path
       id="path9"
       d="m 0,0 c 7.066,12.623 11.1,27.174 11.1,42.669 0,48.317 -39.169,87.485 -87.486,87.485 -35.965,0 -66.856,-21.705 -80.302,-52.728 -14.093,12.138 -32.436,19.478 -52.495,19.478 -34.318,0 -63.615,-21.483 -75.187,-51.733 -15.969,17.115 -38.72,27.82 -63.975,27.82 -48.316,0 -87.485,-39.168 -87.485,-87.485 0,-39.96 26.791,-73.661 63.391,-84.124 -1.881,-6.792 -2.891,-13.947 -2.891,-21.337 0,-44.051 35.711,-79.761 79.761,-79.761 34.079,0 63.16,21.374 74.583,51.446 12.831,-8.649 28.289,-13.699 44.928,-13.699 32.056,0 59.733,18.744 72.674,45.869 13.101,-9.979 29.454,-15.908 47.194,-15.908 43.059,0 77.965,34.906 77.965,77.965 C 21.775,-33.06 13.483,-14.015 0,0"
       style="fill:#130c0e;fill-opacity:1;fill-rule:nonzero;stroke:none"
       transform="matrix(1.3333333,0,0,-1.3333333,609.37,201.80267)"
       clip-path="url(#clipPath10)" />
    <path
       id="path11"
       d="m 0,0 v 6.729 l -1.692,-7.12 -1.832,-0.423 -1.651,6.348 v -6.729 l -1.732,-0.4 v 8.056 l 2.706,0.624 1.631,-6.012 0.02,0.004 1.591,6.757 2.671,0.616 V 0.395 Z M -12.504,-2.887 V 3.74 L -15.29,3.097 v 1.428 l 7.369,1.702 V 4.798 l -2.686,-0.62 v -6.627 z"
       style="fill:#f15a22;fill-opacity:1;fill-rule:nonzero;stroke:none"
       transform="matrix(1.3333333,0,0,-1.3333333,609.3616,312.79173)"
       clip-path="url(#clipPath12)" />
    <path
       id="path13"
       d="m 0,0 c 0,0 -0.125,-32.699 -0.532,-38.45 -0.636,-8.985 -3.05,-9.226 -5.105,-7.878 -4.099,2.689 -11.758,18.003 -18.616,31.32 l -10.005,-2.31 v -82.747 l 12.234,2.824 0.042,20.996 c 0.021,10.778 2.964,11.479 7.239,7.564 3.245,-2.971 7.66,-9.522 14.618,-20.662 l 16.189,3.738 V 3.709 Z"
       style="fill:#f15a22;fill-opacity:1;fill-rule:nonzero;stroke:none"
       transform="matrix(1.3333333,0,0,-1.3333333,559.8064,198.62307)"
       clip-path="url(#clipPath14)" />
    <path
       id="path15"
       d="m 0,0 c -0.371,-0.002 -3.119,0.092 -3.413,2.188 -0.17,1.214 0.412,2.354 1.879,3.251 2.293,1.403 10.23,3.684 17.849,5.471 v 10.535 c 0,0 -13.795,-3.32 -18.037,-2.689 -1.289,0.192 -2.147,0.873 -2.318,2.064 -0.174,1.216 0.439,2.313 1.879,3.251 3.88,2.526 21.294,6.283 21.294,6.283 V 54.66 l -35.855,-8.278 v -64.797 l 36.606,8.451 V 3.501 C 10.114,1.282 3.51,0.019 0,0"
       style="fill:#f15a22;fill-opacity:1;fill-rule:nonzero;stroke:none"
       transform="matrix(1.3333333,0,0,-1.3333333,477.47133,309.1404)"
       clip-path="url(#clipPath16)" />
    <path
       id="path17"
       d="m 0,0 c 0,0 -3.884,-25.59 -7.333,-37.416 -0.985,-3.38 -3.367,-8.55 -6.607,-1.157 -1.161,2.648 -4.605,15.019 -7.133,30.967 l -11.186,-2.582 c 0.979,-10.966 6.349,-40.584 13.503,-57.839 l 21.694,5.008 c 7.985,21.132 12.776,43.452 14.404,67.023 z"
       style="fill:#f15a22;fill-opacity:1;fill-rule:nonzero;stroke:none"
       transform="matrix(1.3333333,0,0,-1.3333333,424.6208,244.68347)"
       clip-path="url(#clipPath18)" />
    <path
       id="path19"
       d="m 0,0 -7.668,-1.77 c -1.923,-0.444 -3.042,0.73 -2.807,3.474 0.219,2.567 1.343,8.009 1.771,9.846 0.945,4.064 2.804,5.758 4.989,6.063 2.801,0.391 5.248,-2.058 6.588,-8.696 C 3.002,8.275 3.329,6.944 3.542,5.133 3.801,2.936 2.722,0.628 0,0 m 9.561,36.683 c -5.429,10.003 -11.742,7.93 -14.977,6.859 -4.239,-1.402 -8.001,-3.579 -11.938,-19.194 -4.138,-16.413 -8.647,-50.932 -8.647,-50.932 l 11.357,2.622 1.173,6.578 c 0.564,3.157 2.574,5.163 5.637,6.064 2.945,0.867 8.801,2.284 11.805,2.626 1.27,0.144 2.761,-0.857 3.194,-2.845 l 1.535,-7.033 15.469,3.571 c 0,0 -7.695,38.949 -14.608,51.684"
       style="fill:#f15a22;fill-opacity:1;fill-rule:nonzero;stroke:none"
       transform="matrix(1.3333333,0,0,-1.3333333,360.53173,340.4996)"
       clip-path="url(#clipPath20)" />
    <path
       id="path21"
       d="m 0,0 c -0.371,-0.002 -3.119,0.092 -3.413,2.188 -0.17,1.214 0.412,2.354 1.879,3.251 2.293,1.403 10.23,3.684 17.849,5.471 v 10.535 c 0,0 -13.795,-3.32 -18.037,-2.689 -1.289,0.192 -2.147,0.873 -2.318,2.064 -0.174,1.216 0.439,2.313 1.879,3.251 3.88,2.526 21.294,6.283 21.294,6.283 v 26.2 L -16.722,48.277 V -16.52 l 36.606,8.451 V 3.501 C 10.114,1.282 3.51,0.019 0,0"
       style="fill:#f15a22;fill-opacity:1;fill-rule:nonzero;stroke:none"
       transform="matrix(1.3333333,0,0,-1.3333333,292.42693,357.85707)"
       clip-path="url(#clipPath22)" />
    <path
       id="path23"
       d="m 0,0 c 0,-12.93 0.065,-22.607 -1.706,-28.948 -1.076,-3.852 -3.445,-6.784 -6.607,-9.003 -3.222,-2.261 -6.451,-3.252 -9.614,-3.314 -3.856,-0.076 -6.675,2.022 -7.087,6.307 -0.592,6.156 -0.553,13.935 -0.553,24.715 l -13.998,-3.231 v -95.345 l 19.227,4.439 c 0,12.134 0.249,21.078 1.744,26.656 1.02,3.802 3.792,7.01 6.591,8.9 3.271,2.209 6.28,3.314 9.449,3.365 3.852,0.063 6.776,-1.925 7.139,-5.766 0.533,-5.627 0.568,-13.279 0.568,-23.721 l 14.246,3.289 V 4.479 Z"
       style="fill:#f15a22;fill-opacity:1;fill-rule:nonzero;stroke:none"
       transform="matrix(1.3333333,0,0,-1.3333333,233.1176,285.73413)"
       clip-path="url(#clipPath24)" />
    <path
       id="path25"
       d="m 0,0 v 83.019 l -11.349,-2.62 C -17.368,60.523 -20.772,50.804 -23.742,42.612 -28.797,28.67 -34.053,34.143 -36.491,38.035 -39.342,42.586 -43.2,51.454 -49.909,67.693 l -16.574,-3.826 v -76.818 l 13.743,3.172 c -0.104,12.436 0.111,19.683 0.783,22.964 0.603,2.947 2.379,3.363 4.18,0.439 1.481,-2.405 3.825,-7.608 8.485,-18.309 l 9.217,2.128 c 5.079,13.648 7.823,20.524 9.76,23.893 1.573,2.735 4.55,4.659 5.455,-0.397 0.685,-3.826 0.627,-11.523 0.606,-24.23 z"
       style="fill:#faa61a;fill-opacity:1;fill-rule:nonzero;stroke:none"
       transform="matrix(1.3333333,0,0,-1.3333333,557.9244,183.86253)"
       clip-path="url(#clipPath26)" />
    <path
       id="path27"
       d="m 0,0 c 0,0 0.273,-18.031 -0.342,-24 -0.815,-7.922 -14.857,-10.657 -15.451,-2.56 -0.266,3.614 -0.469,8.274 -0.469,18.916 l -11.475,-2.649 v -71.116 l 15.734,3.633 v 16.423 c 0,12.631 15.692,13.688 16.537,4.858 0.265,-2.776 0.401,-7.104 0.401,-16.085 l 11.475,2.649 v 73.72 z"
       style="fill:#faa61a;fill-opacity:1;fill-rule:nonzero;stroke:none"
       transform="matrix(1.3333333,0,0,-1.3333333,438.51147,123.88973)"
       clip-path="url(#clipPath28)" />
    <path
       id="path29"
       d="m 0,0 v -29.308 l 10.588,2.445 c 4.219,0.974 5.701,0.078 5.67,-8.399 v -37.664 l 12.545,2.896 v 34.854 c 0.087,14.962 1.842,18.059 9.283,19.777 l 6.644,1.534 v 24.192 z"
       style="fill:#faa61a;fill-opacity:1;fill-rule:nonzero;stroke:none"
       transform="matrix(1.3333333,0,0,-1.3333333,333.71253,137.4988)"
       clip-path="url(#clipPath30)" />
    <path
       id="path31"
       d="m 0,0 -13.379,-3.089 c 0,0 -0.083,-10.123 -0.823,-23.53 -0.787,-14.252 -16.141,-18.622 -17.017,-4.124 -0.56,9.261 -0.471,21.818 -0.471,21.818 l -16.015,-3.697 v -6.857 c 0,-26.701 3.068,-35.762 19.197,-34.02 3.772,0.407 6.644,1.605 9.88,3.796 0.202,0.137 0.458,0.14 0.698,-0.046 0.23,-0.178 0.603,-0.777 0.042,-2.52 -3.024,-9.389 -28.929,-12.181 -28.929,-12.181 v -20.98 c 14.805,2.179 30.919,5.331 39.375,19.38 C -4.284,-60.802 0,-54.466 0,0"
       style="fill:#faa61a;fill-opacity:1;fill-rule:nonzero;stroke:none"
       transform="matrix(1.3333333,0,0,-1.3333333,325.4532,154.09093)"
       clip-path="url(#clipPath32)" />
    <path
       id="path33"
       d="m 0,0 c 0,0 0.259,-17.136 -0.325,-22.809 -0.775,-7.529 -14.12,-10.128 -14.685,-2.433 -0.252,3.434 -0.445,7.864 -0.445,17.978 l -10.906,-2.518 v -67.587 l 14.954,3.452 v 15.608 c 0,12.005 14.913,13.009 15.716,4.618 0.252,-2.639 0.381,-6.752 0.381,-15.287 l 10.906,2.517 V 3.601 Z"
       style="fill:#faa61a;fill-opacity:1;fill-rule:nonzero;stroke:none"
       transform="matrix(1.3333333,0,0,-1.3333333,231.13293,169.10507)"
       clip-path="url(#clipPath34)" />
    <path
       id="path35"
       d="m 0,0 c -6.848,-1.746 -10.887,1.922 -10.887,11.127 0,7.342 0.139,14.923 13.581,14.923 9.571,0 13.572,-4.846 13.572,-10.313 C 16.266,10.976 10.442,2.662 0,0 m 40.186,30.328 c 0,16.907 -12.456,37.357 -64.577,24.812 v -91.951 l 13.573,3.133 v 16.613 c 0,6.752 3.89,5.508 6.372,3.892 1.928,-1.256 6.017,-4.551 15.683,-15.413 l 23.058,5.323 -17.968,18.397 c 0,0 23.859,9.608 23.859,35.194"
       style="fill:#faa61a;fill-opacity:1;fill-rule:nonzero;stroke:none"
       transform="matrix(1.3333333,0,0,-1.3333333,132.75173,235.92027)"
       clip-path="url(#clipPath36)" />
  </g>
</svg>
