<?xml version="1.0" encoding="UTF-8" standalone="no"?>
<!-- Created with Inkscape (http://www.inkscape.org/) -->

<svg
   version="1.1"
   id="svg2"
   width="666.66669"
   height="313.84668"
   viewBox="0 0 666.66669 313.84668"
   sodipodi:docname="Rhythm Tengoku Gold (リズム天国ゴールド) Logo (Horizontial).ai"
   xmlns:inkscape="http://www.inkscape.org/namespaces/inkscape"
   xmlns:sodipodi="http://sodipodi.sourceforge.net/DTD/sodipodi-0.dtd"
   xmlns="http://www.w3.org/2000/svg"
   xmlns:svg="http://www.w3.org/2000/svg">
  <defs
     id="defs6">
    <clipPath
       clipPathUnits="userSpaceOnUse"
       id="clipPath16">
      <path
         d="M 0,235.385 H 500 V 0 H 0 Z"
         id="path14" />
    </clipPath>
  </defs>
  <sodipodi:namedview
     id="namedview4"
     pagecolor="#ffffff"
     bordercolor="#000000"
     borderopacity="0.25"
     inkscape:showpageshadow="2"
     inkscape:pageopacity="0.0"
     inkscape:pagecheckerboard="0"
     inkscape:deskcolor="#d1d1d1" />
  <g
     id="g8"
     inkscape:groupmode="layer"
     inkscape:label="Rhythm Tengoku Gold (リズム天国ゴールド) Logo (Horizontial)"
     transform="matrix(1.3333333,0,0,-1.3333333,0,313.84667)">
    <g
       id="g10">
      <g
         id="g12"
         clip-path="url(#clipPath16)">
        <g
           id="g18"
           transform="translate(500,160.8467)">
          <path
             d="m 0,0 c 0,41.1 -33.438,74.539 -74.539,74.539 -16.203,0 -31.793,-5.282 -44.558,-14.834 -12.771,9.552 -28.361,14.834 -44.564,14.834 -15.519,0 -30.624,-4.93 -43.154,-13.843 -25.061,17.827 -61.248,17.827 -86.308,0 -12.531,8.913 -27.636,13.843 -43.154,13.843 -16.219,0 -31.814,-5.292 -44.595,-14.855 -12.77,9.568 -28.371,14.855 -44.589,14.855 C -466.562,74.539 -500,41.1 -500,0 c 0,-41.06 33.372,-74.472 74.416,-74.539 -0.613,-3.867 -0.924,-7.8 -0.924,-11.769 0,-41.101 33.438,-74.539 74.538,-74.539 12.469,0 24.489,3.065 35.308,8.934 21.638,-11.738 48.977,-11.738 70.616,0 22.149,-12.019 50.469,-11.621 72.444,0.997 11.248,-6.457 24.085,-9.931 37.142,-9.931 41.1,0 74.538,33.438 74.538,74.539 0,4.25 -0.367,8.49 -1.088,12.658 C -27.365,-68.087 0,-37.177 0,0"
             style="fill:#00b3f0;fill-opacity:1;fill-rule:nonzero;stroke:none"
             id="path20" />
        </g>
        <g
           id="g22"
           transform="translate(492.1538,160.8467)">
          <path
             d="m 0,0 c 0,36.774 -29.919,66.693 -66.693,66.693 -16.545,0 -32.375,-6.161 -44.558,-17.133 -12.188,10.972 -28.019,17.133 -44.564,17.133 -15.815,0 -31.155,-5.732 -43.154,-15.933 -11.999,10.201 -27.339,15.933 -43.154,15.933 -15.815,0 -31.155,-5.732 -43.154,-15.933 -11.999,10.201 -27.339,15.933 -43.154,15.933 -16.561,0 -32.401,-6.171 -44.595,-17.159 -12.188,10.988 -28.028,17.159 -44.589,17.159 -36.774,0 -66.693,-29.919 -66.693,-66.693 0,-36.774 29.919,-66.693 66.693,-66.693 3.356,0 6.681,0.251 9.966,0.751 -2.089,-6.528 -3.167,-13.383 -3.167,-20.366 0,-36.774 29.919,-66.693 66.692,-66.693 12.602,0 24.699,3.505 35.308,10.176 21.22,-13.343 49.397,-13.343 70.616,0 21.746,-13.675 51.082,-13.179 72.444,1.139 10.942,-7.33 23.917,-11.315 37.142,-11.315 36.774,0 66.693,29.919 66.693,66.693 0,6.666 -1.012,13.297 -2.963,19.641 C -28.943,-65.707 0,-36.171 0,0"
             style="fill:#ffffff;fill-opacity:1;fill-rule:nonzero;stroke:none"
             id="path24" />
        </g>
        <g
           id="g26"
           transform="translate(425.4606,219.6931)">
          <path
             d="M 0,0 C -17.828,0 -33.77,-7.959 -44.561,-20.482 -55.352,-7.959 -71.294,0 -89.122,0 -106.197,0 -121.526,-7.317 -132.276,-18.934 -143.026,-7.317 -158.355,0 -175.43,0 -192.505,0 -207.834,-7.317 -218.584,-18.934 -229.334,-7.317 -244.663,0 -261.738,0 c -17.845,0 -33.8,-7.974 -44.593,-20.517 C -317.123,-7.974 -333.078,0 -350.923,0 c -32.5,0 -58.847,-26.346 -58.847,-58.846 0,-32.501 26.347,-58.847 58.847,-58.847 8.854,0 17.218,2.011 24.75,5.513 -6.376,-9.406 -10.104,-20.754 -10.104,-32.974 0,-32.501 26.346,-58.847 58.847,-58.847 13.266,0 25.465,4.443 35.307,11.849 9.843,-7.406 22.042,-11.849 35.308,-11.849 13.267,0 25.466,4.443 35.308,11.849 9.842,-7.406 22.041,-11.849 35.308,-11.849 14.087,0 27.008,4.964 37.138,13.219 10.131,-8.255 23.052,-13.219 37.139,-13.219 32.5,0 58.846,26.346 58.846,58.847 0,10.318 -2.672,20.004 -7.337,28.436 3.385,-0.606 6.853,-0.975 10.413,-0.975 32.5,0 58.846,26.346 58.846,58.847 C 58.846,-26.346 32.5,0 0,0"
             style="fill:#130c0e;fill-opacity:1;fill-rule:nonzero;stroke:none"
             id="path28" />
        </g>
        <g
           id="g30"
           transform="translate(370.6664,89.4366)">
          <path
             d="m 0,0 c 0,-2.775 2.249,-5.024 5.024,-5.024 2.775,0 5.024,2.249 5.024,5.024 0,2.775 -2.249,5.024 -5.024,5.024 C 2.249,5.024 0,2.775 0,0 m 17.049,5.024 c -2.775,0 -5.024,-2.249 -5.024,-5.024 0,-2.775 2.249,-5.024 5.024,-5.024 2.775,0 5.024,2.249 5.024,5.024 0,2.775 -2.249,5.024 -5.024,5.024 m -1.413,-25.329 -5.289,-17.302 c -13.416,21.369 -27.763,20.497 -27.763,20.497 l -4.634,-15.158 c -0.399,-1.306 0.441,-2.376 1.897,-2.376 h 2.979 l -2.455,-8.03 -30.794,10e-4 2.455,8.029 h 1.677 c 2.172,0 4.415,1.6 5.016,3.568 l 11.324,37.038 c 0.4,1.306 -0.44,2.377 -1.897,2.377 h -2.979 l 2.455,8.029 H -1.578 L -4.033,8.338 H -5.71 c -2.172,0 -4.415,-1.6 -5.016,-3.568 L -14.38,-7.182 c 0,0 19.096,0.166 30.016,-13.123"
             style="fill:#faa61a;fill-opacity:1;fill-rule:nonzero;stroke:none"
             id="path32" />
        </g>
        <g
           id="g34"
           transform="translate(278.2514,57.2502)">
          <path
             d="m 0,0 11.19,36.6 c 0.535,1.749 2.507,3.158 4.421,3.158 h 1.932 l 2.406,7.868 H -4.825 L -22.592,-10.487 H -6.446 C 19.496,-10.488 30.052,5.419 37.97,20.174 H 19.425 C 19.425,20.174 12.651,2.467 0,0 M -15.282,40.879 -26.16,5.297 c -2.664,-8.712 -12.556,-15.784 -22.082,-15.784 h -6.874 l 3.221,10.533 c 4.606,0 9.358,3.406 10.646,7.619 l 6.801,22.246 c 0.535,1.75 -0.573,3.157 -2.49,3.157 h -1.835 l 2.388,7.812 z"
             style="fill:#f15a22;fill-opacity:1;fill-rule:nonzero;stroke:none"
             id="path36" />
        </g>
        <g
           id="g38"
           transform="translate(228.6179,75.5678)">
          <path
             d="m 0,0 h -35.999 l -3.287,-10.752 h 35.999 z"
             style="fill:#faa61a;fill-opacity:1;fill-rule:nonzero;stroke:none"
             id="path40" />
        </g>
        <g
           id="g42"
           transform="translate(193.5645,98.0774)">
          <path
             d="m 0,0 h -68.561 l -3.254,-10.645 h 35.197 c 4.309,0 6.799,-3.176 5.598,-7.104 l -7.036,-23.014 h -42.968 l -3.226,-10.551 62.373,-10e-4 11.753,38.442 c 0.464,1.517 2.186,2.768 3.872,2.768 h 3.163 z m -3.193,7.192 c 0,-2.805 2.274,-5.078 5.078,-5.078 2.805,0 5.078,2.273 5.078,5.078 0,2.804 -2.273,5.078 -5.078,5.078 -2.804,0 -5.078,-2.274 -5.078,-5.078 m -6.915,5.078 c 2.804,0 5.078,-2.274 5.078,-5.078 0,-2.805 -2.274,-5.078 -5.078,-5.078 -2.805,0 -5.078,2.273 -5.078,5.078 0,2.804 2.273,5.078 5.078,5.078"
             style="fill:#f15a22;fill-opacity:1;fill-rule:nonzero;stroke:none"
             id="path44" />
        </g>
        <g
           id="g46"
           transform="translate(426.677,152.9959)">
          <path
             d="M 0,0 H 4.464 L 2.702,-5.76 H -1.761 Z M 11.886,24.277 10.442,19.554 H 5.565 C 3.482,19.554 1.97,18.463 1.217,16 L -1.155,8.241 H 6.983 L 5.433,3.172 h -8.138 l -2.912,-9.526 c -0.459,-1.499 0.471,-2.578 3.007,-2.578 h 4.343 l -1.435,-4.692 h -27.931 l 1.434,4.692 h 4.931 c 2.014,0 3.555,1.135 4.297,3.564 l 2.611,8.54 h -8.138 l 1.55,5.069 h 8.138 l 2.674,8.745 c 0.31,1.015 0.117,2.568 -2.957,2.568 h -4.397 l 1.444,4.723 z M 3.182,-17.272 h -39.31 l 12.532,40.991 c 0.678,2.218 2.348,3.56 4.46,3.553 h 39.31 L 7.641,-13.719 c -0.726,-2.374 -2.507,-3.564 -4.459,-3.553 m 35.241,52.384 -74.38,10e-4 -18.407,-60.206 h 74.38 z"
             style="fill:#f15a22;fill-opacity:1;fill-rule:nonzero;stroke:none"
             id="path48" />
        </g>
        <g
           id="g50"
           transform="translate(443.6519,198.3378)">
          <path
             d="M 0,0 C 3.563,2.206 3.982,2.444 6.407,4.123 L 5.306,5.111 C 4.243,4.297 4.153,4.202 -0.176,1.356 -1.271,0.633 -2.214,-0.055 -2.413,-0.707 c -0.205,-0.669 0.37,-1.252 0.865,-1.627 2.413,-1.755 3.316,-2.397 4.992,-4.232 l 1.592,1.08 C 4.117,-4.432 1.576,-2.496 0.05,-1.5 -0.257,-1.305 -0.763,-0.967 -0.661,-0.632 -0.593,-0.409 -0.346,-0.199 0,0"
             style="fill:#f15a22;fill-opacity:1;fill-rule:nonzero;stroke:none"
             id="path52" />
        </g>
        <g
           id="g54"
           transform="translate(413.2867,202.4541)">
          <path
             d="m 0,0 -0.444,-1.451 c 1.062,0.057 2.854,0.072 4.609,0.097 L 4.177,-1.378 C 3.215,-1.766 3.119,-1.817 2.61,-2.103 l 0.643,-0.92 c 1.769,0.925 3.098,1.463 4.81,1.743 L 8.45,-0.013 2.643,-0.025 C 1.981,-0.023 0.377,-0.015 0,0 m 7.753,-4.198 1.068,0.537 C 8.71,-3.105 8.498,-2.417 8.156,-1.831 L 7.093,-2.349 c 0.326,-0.642 0.464,-1.046 0.66,-1.849 m 2.519,3.246 -0.996,-0.498 c 0.122,-0.259 0.353,-0.751 0.586,-1.826 l 1.044,0.524 c -0.101,0.392 -0.283,1.111 -0.634,1.8 M -0.275,-4.053 0.552,-4.828 c -1.425,-1.05 -1.76,-2.012 -1.833,-2.251 -0.511,-1.671 1.969,-1.706 3.895,-1.712 1.263,-0.005 2.562,0.04 3.864,0.224 l -0.402,-1.444 c -0.465,-0.078 -1.399,-0.174 -3.409,-0.182 -2.546,0.015 -3.618,0.122 -4.56,0.651 -0.771,0.436 -1.153,1.417 -0.845,2.427 0.365,1.194 1.19,1.986 2.463,3.062"
             style="fill:#f15a22;fill-opacity:1;fill-rule:nonzero;stroke:none"
             id="path56" />
        </g>
        <g
           id="g58"
           transform="translate(372.1499,177.6928)">
          <path
             d="m 0,0 3.206,10.487 h -74.61 L -74.61,0 h 27.173 l -2.878,-9.413 h -27.173 l -3.214,-10.512 h 27.173 l -1.189,-3.887 c -3.806,-12.449 -12.05,-15.435 -23.186,-15.442 h -8.708 l -3.221,-10.536 h 18.965 c 14.565,-0.007 20.705,3.279 29.837,14.267 2.545,-2.038 8.829,-9.632 10.902,-14.267 h 19.615 c -3.557,7.563 -20.476,20.603 -25.285,23.17 0.965,2.659 2.084,6.695 2.084,6.695 h 27.623 l 3.214,10.512 H -30.501 L -27.623,0 Z"
             style="fill:#faa61a;fill-opacity:1;fill-rule:nonzero;stroke:none"
             id="path60" />
        </g>
        <g
           id="g62"
           transform="translate(354.1525,203.4345)">
          <path
             d="m 0,0 c -1.685,-2.701 -5.247,-8.405 -6.684,-10.622 l 1.347,-0.432 c 0.238,0.387 1.315,2.275 1.569,2.717 0.839,1.241 1.976,2.412 3.252,2.402 0.979,0 0.704,-0.835 0.452,-1.657 L -0.198,-8.03 c -0.218,-0.713 -0.875,-2.929 1.518,-2.942 2.412,-0.018 3.773,2.083 4.972,4.893 L 5.061,-5.663 C 4.127,-7.934 3.11,-9.561 1.877,-9.544 0.783,-9.529 1.134,-8.378 1.252,-7.994 l 0.167,0.548 c 0.313,1.023 0.81,2.909 -1.221,2.931 -0.882,-0.01 -1.49,-0.364 -1.811,-0.565 l -0.013,0.023 c 0.43,0.688 2.638,3.989 3.156,4.769 z"
             style="fill:#faa61a;fill-opacity:1;fill-rule:nonzero;stroke:none"
             id="path64" />
        </g>
        <g
           id="g66"
           transform="translate(331.9899,201.3469)">
          <path
             d="M 0,0 C 0.646,0.004 0.958,-0.031 1.288,-0.071 L 1.733,1.384 -3.679,1.346 C -5.215,1.332 -8.932,1.3 -9.451,1.318 l -0.45,-1.475 c 2.996,0.112 3.337,0.108 6.219,0.175 l 0.013,-0.025 c -3.662,-1.761 -4.798,-3.893 -5.143,-4.956 -0.603,-1.972 0.721,-2.981 2,-3.412 1.144,-0.41 2.616,-0.538 3.91,-0.591 l 0.674,1.547 c -1.609,0.008 -2.729,0.169 -3.472,0.376 -0.835,0.235 -2.041,0.705 -1.578,2.155 C -6.47,-2.314 -2.189,0.024 0,0"
             style="fill:#faa61a;fill-opacity:1;fill-rule:nonzero;stroke:none"
             id="path68" />
        </g>
        <g
           id="g70"
           transform="translate(201.3435,138.2106)">
          <path
             d="M 0,0 H -2.932 L -6.083,-10.308 H 73.802 L 70.65,0 h -2.895 c -1.897,-0.005 -3.647,1.094 -4.369,3.441 l -3.312,10.775 h -19.2 L 45.221,0 H 21.54 l 26.214,38.864 c 1.146,1.699 2.524,2.561 4.054,2.572 h 4.818 l 2.18,7.131 H 35.157 L 4.03,2.42 C 2.825,0.633 1.357,0 0,0"
             style="fill:#f15a22;fill-opacity:1;fill-rule:nonzero;stroke:none"
             id="path72" />
        </g>
        <g
           id="g74"
           transform="translate(188.1622,181.8958)">
          <path
             d="M 0,0 C 2.734,0.013 4.867,2.203 4.888,4.875 4.861,7.561 2.685,9.742 0.013,9.763 -2.706,9.798 -4.854,7.56 -4.875,4.888 -4.847,2.202 -2.672,0.021 0,0 m 11.973,0 c 2.734,0.013 4.915,2.188 4.888,4.875 0.035,2.72 -2.189,4.915 -4.875,4.888 C 9.251,9.75 7.119,7.56 7.098,4.888 7.111,2.154 9.301,0.021 11.973,0 m -30.779,-13.214 h -42.409 l 3.194,10.447 H 9.696 L 6.681,-12.629 H 3.788 c -1.557,0 -3.233,-0.982 -4.37,-3.526 -3.175,-7.021 -6.145,-13.369 -16.02,-21.881 5.814,-2.652 14.332,-12.163 15.868,-15.937 l -19.111,10e-4 c -0.36,4.887 -2.527,8.493 -4.453,10.283 -12.064,-8.112 -20.573,-10.283 -36.823,-10.282 l -12.555,-0.001 3.154,10.315 h 4.168 c 23.741,0 38.606,6.788 47.548,30.443"
             style="fill:#faa61a;fill-opacity:1;fill-rule:nonzero;stroke:none"
             id="path76" />
        </g>
        <g
           id="g78"
           transform="translate(67.1309,157.328)">
          <path
             d="M 0,0 H -1.594 C -4.106,0 -4.999,1.108 -4.557,2.553 L 0.25,18.276 c 0.646,2.113 1.904,3.484 4.241,3.484 h 2.162 l 2.338,7.648 H -17.332 L -19.67,21.76 h 1.599 c 2.52,0 3.402,-1.102 2.963,-2.538 L -19.915,3.499 C -20.567,1.366 -21.825,0 -24.156,0 h -2.167 l -2.333,-7.633 h 26.322 z m 16.819,-29.405 h -46.593 l 3.146,10.29 H 6.691 c 6.403,0.008 10.698,4.257 12.813,11.173 l 8.306,27.167 c 0.439,1.437 -0.451,2.534 -2.968,2.535 h -1.671 l 2.338,7.648 h 29.958 l -2.339,-7.649 h -2.049 c -2.363,0 -3.568,-1.308 -4.23,-3.472 l -9.57,-31.302 c -3.132,-10.243 -11.036,-16.42 -20.46,-16.39"
             style="fill:#f15a22;fill-opacity:1;fill-rule:nonzero;stroke:none"
             id="path80" />
        </g>
      </g>
    </g>
  </g>
</svg>
