<?xml version="1.0" encoding="UTF-8" standalone="no"?>
<!-- Created with Inkscape (http://www.inkscape.org/) -->

<svg
   version="1.1"
   id="svg2"
   width="666.66669"
   height="778.29333"
   viewBox="0 0 666.66669 778.29333"
   sodipodi:docname="Rhythm Tengoku Gold (リズム天国ゴールド) Logo with Tagline.ai"
   xmlns:inkscape="http://www.inkscape.org/namespaces/inkscape"
   xmlns:sodipodi="http://sodipodi.sourceforge.net/DTD/sodipodi-0.dtd"
   xmlns="http://www.w3.org/2000/svg"
   xmlns:svg="http://www.w3.org/2000/svg">
  <defs
     id="defs6">
    <clipPath
       clipPathUnits="userSpaceOnUse"
       id="clipPath16">
      <path
         d="M 0,583.72 H 500 V 0 H 0 Z"
         id="path14" />
    </clipPath>
  </defs>
  <sodipodi:namedview
     id="namedview4"
     pagecolor="#ffffff"
     bordercolor="#000000"
     borderopacity="0.25"
     inkscape:showpageshadow="2"
     inkscape:pageopacity="0.0"
     inkscape:pagecheckerboard="0"
     inkscape:deskcolor="#d1d1d1" />
  <g
     id="g8"
     inkscape:groupmode="layer"
     inkscape:label="Rhythm Tengoku Gold (リズム天国ゴールド) Logo with Tagline"
     transform="matrix(1.3333333,0,0,-1.3333333,0,778.29333)">
    <g
       id="g10">
      <g
         id="g12"
         clip-path="url(#clipPath16)">
        <g
           id="g18"
           transform="translate(491.2946,98.5576)">
          <path
             d="M 0,0 V 7.452 L 7.135,9.099 V 1.647 Z M 6.465,11.898 0.671,10.56 0,33.402 7.135,35.049 Z m -23.938,11.09 -4.272,-0.987 V 12.66 l 4.313,0.996 c 2.698,0.623 4.852,2.621 4.852,5.792 0,3.209 -2.154,4.172 -4.893,3.54 M -15.896,7.63 -21.62,6.309 V -4.115 l -7.547,-1.743 v 32.526 l 13.396,3.093 c 6.551,1.512 10.738,-2.149 10.738,-8.529 0,-6.839 -4.102,-12.041 -10.863,-13.602 m -30.706,-18.389 c -7.838,-1.809 -13.146,1.926 -13.146,9.101 v 21.266 l 7.672,1.771 v -20.6 c 0,-4.377 2.155,-5.843 5.474,-5.076 3.276,0.756 5.68,3.274 5.68,7.651 v 20.6 l 7.426,1.715 V 4.402 c 0,-7.256 -5.518,-13.409 -13.106,-15.161 m -22.796,6.098 c -1.364,-0.315 -2.578,0.525 -3.757,1.774 -0.92,-1.372 -2.356,-2.703 -2.356,-2.703 l -1.694,4.087 v -3 l -1.583,-0.365 c 1.4,-0.797 3.46,-2.52 3.46,-2.52 l -0.405,-0.374 4.455,-0.652 c -0.183,0.518 -0.551,1.192 -0.845,1.723 l 2.983,2.09 c -0.075,-0.018 -0.186,-0.043 -0.258,-0.06 m -6.776,-3.525 -3.682,-3.41 c 0,0 -1.73,2.362 -2.836,3.586 v -4.521 c 0,-0.319 0.036,-0.552 0.552,-0.433 l 4.824,1.114 c 0.626,0.144 1.142,0.345 1.142,1.944 z m -5.634,7.819 -2.284,-0.527 v -1.958 l 2.284,0.528 z m 3.94,10.352 -11.378,-2.627 V 6.156 l 11.489,2.653 c 0,0.28 -0.111,0.935 -0.111,1.176 m -14.068,-31.05 -4.821,2.447 c 2.171,3.983 2.762,8.92 2.762,8.92 l 5.043,-0.956 c 0,0 -0.885,-6.165 -2.984,-10.411 m 24.82,17.292 c 2.135,-3.506 3.424,-7.411 3.424,-7.411 l -5.154,-4.15 c 0,0 -0.849,2.804 -1.841,5.376 -0.405,-5.856 -2.174,-6.863 -5.931,-7.731 l -7.951,-1.835 c -2.614,-0.604 -4.015,-0.686 -4.015,2.753 v 8.163 l 5.634,1.3 2.285,2.007 -8.03,-1.854 v 8.439 l 11.49,2.653 v -4.121 c 0,0 1.142,0.906 1.619,1.615 0,0 -1.032,2.521 -1.286,3.784 L -89.357,2.333 c -0.183,-3.964 -1.178,-9.154 -2.615,-12.205 l -4.896,3.589 c 1.913,4.083 1.952,9.85 1.952,13.371 v 0.362 3.798 l 16.386,3.783 c 0,0 -0.111,1.375 -0.111,2.016 l 5.45,1.259 c 0,-0.642 0.108,-2.018 0.108,-2.018 l 2.543,0.587 -0.444,0.979 4.42,2.02 c 1.658,-3.095 2.65,-7.068 2.65,-7.068 l -4.674,-2.558 c 0,0 -0.147,0.924 -0.405,1.786 l -3.535,-0.816 c 0.111,-0.694 0.552,-3.312 0.735,-3.951 0.296,0.75 0.662,2.713 0.848,3.597 l 4.198,-1.63 c -0.774,-2.501 -1.694,-4.632 -2.69,-6.465 0.369,-0.592 0.663,-0.925 0.996,-0.848 0.551,0.127 1.178,1.513 2.392,4.793 l 2.393,-5.248 c -1.214,-2.561 -2.465,-4.449 -3.46,-5.239 m -57.264,-24.822 v 6.44 c 11.598,3.358 17.195,7.412 17.195,18.933 V 8.656 l 6.812,1.573 v -11.96 c 0,-15.84 -8.874,-23.168 -24.007,-26.864 m -3.903,12.02 v 20.36 l 6.701,1.547 v -20.36 z m -31.811,-20.226 V -30 c 11.894,6.306 18.778,16.536 20.178,31.022 l 7.106,1.64 c -1.766,-19.328 -11.708,-32.587 -27.284,-39.463 m -8.382,16.266 v 5.442 l 3.793,0.876 v -5.443 z m -4.935,-1.14 v 5.443 l 3.793,0.876 v -5.443 z m 6.075,8.803 c -7.4,-1.907 -14.95,-8.77 -14.95,-14.649 0,-6.401 6.114,-6.351 13.588,-4.625 v -6.84 c -0.551,-0.166 -1.106,-0.294 -1.658,-0.422 -12.739,-2.941 -18.52,1.522 -18.52,9.483 0,5.481 2.651,9.894 6.039,13.435 l -13.366,-3.607 v 6.681 l 30.561,7.615 v -6.638 z m -57.023,-38.564 v 6.039 c 2.467,5.931 6.998,20.976 8.8,29.154 l 6.997,1.615 c -2.467,-10.452 -5.339,-19.554 -8.616,-28.59 l 16.532,3.817 c -1.583,4.754 -4.27,10.095 -6.443,14.632 l 7.18,1.657 c 2.873,-5.857 5.817,-12.496 8.249,-20.814 z m -4.721,28.192 v 5.56 l 3.46,0.799 v -5.56 z m -11.414,-21.716 c -5.304,-7.185 -12.188,-12.256 -18.337,-14.874 v 6.68 c 8.026,4.133 16.568,13.024 19.072,24.044 l -17.195,-3.97 v 6.599 l 23.383,5.399 v 2.361 l 3.46,0.799 v -5.56 l -1.988,-0.459 c -0.59,-5.058 -2.024,-9.669 -4.05,-13.856 1.769,-4.513 5.411,-6.871 8.47,-7.846 v -7.4 c -5.673,0.492 -10.089,3.71 -12.815,8.083 m -45.078,-20.849 v 6.439 c 11.598,3.359 17.195,7.413 17.195,18.933 v 11.879 l 6.812,1.573 v -11.96 c 0,-15.84 -8.874,-23.168 -24.007,-26.864 m -3.903,12.02 v 20.36 l 6.701,1.547 v -20.36 z m -26.46,-10.669 c -1.289,-0.297 -1.877,-0.834 -1.877,-1.355 0,-1.479 3.793,-1.323 6.075,-0.796 0.92,0.213 1.805,0.498 2.725,0.87 -1.916,0.877 -4.641,1.808 -6.923,1.281 m 4.749,-7.945 c -7.252,-1.675 -12.37,-0.055 -12.37,5.065 0,3.081 2.467,6.889 7.696,8.096 4.821,1.113 8.173,-0.751 8.836,-1.198 v -4.322 c 2.65,1.534 4.566,3.816 4.566,6.777 0,3.199 -3.205,4.338 -7.585,3.327 -4.456,-1.029 -8.581,-2.262 -17.084,-10.583 v 7.199 l 15.132,13.173 -11.894,-2.746 v 6.241 l 23.455,5.415 v -5.478 l -8.764,-7.825 c 0.516,0.24 1.107,0.494 1.952,0.689 6.371,1.471 11.268,-0.877 11.268,-7.838 0,-7.641 -6,-13.866 -15.208,-15.992 m -21.905,16.264 v -3.078 c 0,-14.123 -8.323,-19.204 -15.98,-21.532 v 6.201 c 5.3,1.944 9.756,5.533 9.756,14.174 v 2.798 l -11.379,-2.627 v 6.361 l 11.379,2.627 v 6.56 l 6.224,1.437 v -6.56 l 4.785,1.105 v -6.361 z m -20.07,-10.034 c 0,-4.681 0.147,-9.526 0.444,-14.538 l -6.261,-1.446 c -0.186,3.677 -0.368,8.716 -0.368,13.957 0,6.439 0.257,13.019 0.848,19.116 l 6.146,1.419 c -0.587,-6.614 -0.809,-12.388 -0.809,-18.508 m -17.037,8.027 v 5.56 l 4.015,0.927 v -5.56 z m -5.082,-1.173 v 5.559 l 3.979,0.919 v -5.56 z m -4.566,-28.776 c -7.475,-1.726 -12.446,0.208 -12.446,9.53 v 21.64 l 6.335,1.463 v -21.162 c 0,-4.241 2.135,-5.627 6.185,-4.692 6.114,1.411 9.022,6.604 9.61,16.139 l 6.371,1.471 c -0.48,-13.67 -6.002,-22.068 -16.055,-24.389 m -27.793,4.065 c -0.996,0.05 -1.991,0.022 -2.837,-0.173 -2.356,-0.544 -3.61,-1.837 -3.61,-3.276 0,-1.678 1.436,-2.069 3.427,-1.61 2.318,0.536 3.02,2.339 3.02,4.378 z m 6.11,-1.749 c -0.516,-5.08 -3.46,-8.078 -8.872,-9.328 -5.046,-1.165 -9.354,0.401 -9.354,6.4 0,4.401 3.313,8.765 9.057,10.091 1.032,0.238 2.099,0.406 3.059,0.507 v 6.12 l -11.268,-2.601 v 6.241 l 11.268,2.601 v 5.599 l 6.185,1.428 v -5.599 l 4.896,1.13 v -6.24 l -4.896,-1.131 v -8.041 c 2.983,-0.67 4.971,-1.771 5.376,-2.039 v -8.039 c -0.48,0.329 -2.726,1.729 -5.451,2.901 m -19.663,1.141 c 0,-4.042 0.111,-8.176 0.369,-12.474 l -6.26,-1.446 c -0.183,4.036 -0.258,8.139 -0.258,12.38 0,7.481 0.222,14.653 0.849,21.676 l 6.257,1.445 c -0.588,-7.174 -0.957,-14.22 -0.957,-21.581"
             style="fill:#130c0e;fill-opacity:1;fill-rule:nonzero;stroke:none"
             id="path20" />
        </g>
        <g
           id="g22"
           transform="translate(453.392,319.363)">
          <path
             d="m 0,0 c -14.855,15.034 -33.424,25.12 -53.663,29.388 0.008,0.527 0.013,1.054 0.013,1.581 0,15.414 -3.275,30.409 -9.576,44.199 24.491,20.058 39.111,50.249 39.111,82.533 0,58.81 -47.846,106.656 -106.657,106.656 -31.173,0 -60.486,-13.572 -80.63,-36.837 -4.075,0.473 -8.167,0.711 -12.251,0.711 -27.58,0 -53.38,-10.351 -73.006,-28.878 -15.317,8.194 -32.347,12.463 -50.077,12.463 -58.811,0 -106.656,-47.845 -106.656,-106.655 0,-24.083 8.261,-47.693 23.262,-66.479 10.197,-12.771 23.248,-23.025 37.893,-29.96 -2.668,-9.432 -4.045,-19.234 -4.045,-29.057 0,-11.51 1.862,-22.896 5.464,-33.713 -14.354,-6.887 -27.154,-16.969 -37.212,-29.496 -15.115,-18.827 -23.44,-42.514 -23.44,-66.699 0,-58.811 47.846,-106.657 106.656,-106.657 29.401,0 56.948,11.876 77.022,32.903 0.266,-0.002 0.532,-0.004 0.797,-0.004 20.679,0 40.366,5.791 57.512,16.838 8.464,-2.124 17.158,-3.197 25.956,-3.197 29.321,0 57.263,12.183 77.259,33.172 9.816,-2.929 19.989,-4.407 30.39,-4.407 58.81,0 106.656,47.846 106.656,106.656 C 30.778,-46.699 19.847,-20.085 0,0"
             style="fill:#00b3f0;fill-opacity:1;fill-rule:nonzero;stroke:none"
             id="path24" />
        </g>
        <g
           id="g26"
           transform="translate(446.4125,312.4662)">
          <path
             d="m 0,0 c -15.485,15.672 -35.419,25.423 -56.984,28.057 0.333,3.265 0.5,6.541 0.5,9.809 0,16.633 -4.199,32.73 -12.219,47.087 25.974,17.984 41.754,47.685 41.754,79.645 0,53.399 -43.443,96.843 -96.843,96.843 -30.077,0 -58.246,-13.914 -76.55,-37.519 -5.411,0.926 -10.881,1.394 -16.331,1.394 -27.496,0 -53.044,-11.334 -71.365,-31.383 -15.457,9.819 -33.166,14.968 -51.719,14.968 -53.4,0 -96.843,-43.444 -96.843,-96.843 0,-41.18 25.611,-77.139 63.492,-90.936 -4.195,-10.997 -6.383,-22.761 -6.383,-34.56 0,-13.491 2.817,-26.79 8.212,-39.036 -16.405,-6.059 -31.079,-16.565 -42.12,-30.317 -13.722,-17.09 -21.279,-38.596 -21.279,-60.556 0,-53.399 43.444,-96.843 96.843,-96.843 28.13,0 54.391,11.975 72.816,33.028 22.029,-1.127 43.046,5.014 60.762,17.55 8.979,-2.681 18.278,-4.038 27.71,-4.038 28.687,0 55.923,12.848 74.246,34.703 10.685,-3.944 21.889,-5.938 33.403,-5.938 53.4,0 96.842,43.443 96.842,96.843 C 27.944,-42.401 18.02,-18.236 0,0"
             style="fill:#ffffff;fill-opacity:1;fill-rule:nonzero;stroke:none"
             id="path28" />
        </g>
        <g
           id="g30"
           transform="translate(378.6817,331.9417)">
          <path
             d="m 0,0 c 1.268,5.932 1.951,12.08 1.951,18.391 0,18.621 -5.831,35.871 -15.743,50.06 26.992,14.913 45.278,43.652 45.278,76.671 0,48.351 -39.196,87.547 -87.547,87.547 -30.187,0 -56.804,-15.279 -72.543,-38.525 -6.529,1.554 -13.333,2.4 -20.338,2.4 -28.447,0 -53.713,-13.576 -69.704,-34.592 -14.778,11.388 -33.281,18.177 -53.38,18.177 -48.351,0 -87.547,-39.196 -87.547,-87.547 0,-41.269 28.564,-75.847 66.994,-85.097 -6.302,-12.089 -9.885,-25.822 -9.885,-40.399 0,-16.335 4.487,-31.616 12.276,-44.703 -38.666,-9.081 -67.463,-43.769 -67.463,-85.206 0,-48.35 39.196,-87.547 87.547,-87.547 27.886,0 52.708,13.054 68.741,33.367 2.984,-0.307 6.013,-0.468 9.079,-0.468 20.412,0 39.176,7.005 54.065,18.716 9.192,-3.277 19.085,-5.075 29.402,-5.075 29.383,0 55.365,14.49 71.244,36.698 11.089,-5.08 23.411,-7.933 36.406,-7.933 48.351,0 87.547,39.196 87.547,87.547 C 86.38,-39.558 47.81,-0.628 0,0"
             style="fill:#130c0e;fill-opacity:1;fill-rule:nonzero;stroke:none"
             id="path32" />
        </g>
        <g
           id="g34"
           transform="translate(381.6596,255.0965)">
          <path
             d="m 0,0 v 17.467 c 0,2.876 2.344,5.931 5.246,6.818 L 7.487,24.97 V 36.704 L -33.666,24.122 V 12.388 l 3.981,1.217 c 1.946,0.595 3.506,-0.492 3.506,-2.401 v -54.125 c 0,-2.876 -2.344,-5.931 -5.246,-6.819 l -2.241,-0.685 -0.001,-11.733 41.154,12.582 v 11.733 L 3.506,-39.06 C 1.56,-39.655 0,-38.568 0,-36.659 v 22.151 c 0,0 18.818,7.028 45.477,-16.049 V -5.272 C 25.453,8.025 0,0 0,0 m 41.121,15.726 c 3.709,1.133 5.796,5.059 4.662,8.767 -1.134,3.708 -5.059,5.795 -8.767,4.662 -3.709,-1.134 -5.796,-5.059 -4.662,-8.768 1.134,-3.708 5.059,-5.795 8.767,-4.661 M 16.284,15.474 c -1.134,3.708 0.953,7.634 4.661,8.767 3.709,1.134 7.634,-0.953 8.768,-4.661 1.133,-3.709 -0.954,-7.634 -4.662,-8.767 -3.708,-1.134 -7.633,0.953 -8.767,4.661"
             style="fill:#faa61a;fill-opacity:1;fill-rule:nonzero;stroke:none"
             id="path36" />
        </g>
        <g
           id="g38"
           transform="translate(309.4306,218.3549)">
          <path
             d="m 0,0 c 0,0 -1.818,-26.432 -17.718,-34.898 v 53.485 c 0.001,2.557 2.062,5.245 4.619,6.027 l 2.582,0.79 V 36.902 L -43.625,26.78 v -84.924 l 21.578,6.597 c 34.669,10.599 42.277,36.17 46.83,59.124 z m -54.843,13.491 v -51.998 c 0,-12.732 -10.33,-26.225 -23.061,-30.117 l -9.187,-2.809 v 15.393 c 6.156,1.882 11.115,8.375 11.115,14.532 v 32.509 c 0,2.557 -2.056,3.985 -4.618,3.202 l -2.453,-0.75 V 4.868 Z"
             style="fill:#f15a22;fill-opacity:1;fill-rule:nonzero;stroke:none"
             id="path40" />
        </g>
        <g
           id="g42"
           transform="translate(166.2767,184.4303)">
          <path
             d="M 0,0 V -15.712 L 48.11,-1.004 V 14.709 Z"
             style="fill:#faa61a;fill-opacity:1;fill-rule:nonzero;stroke:none"
             id="path44" />
        </g>
        <g
           id="g46"
           transform="translate(164.7533,234.3349)">
          <path
             d="m 0,0 c -1.146,3.748 -5.113,5.857 -8.861,4.712 -3.748,-1.146 -5.857,-5.114 -4.711,-8.862 1.145,-3.747 5.113,-5.857 8.861,-4.711 C -0.964,-7.715 1.146,-3.748 0,0 m -97.994,-56.026 47.04,14.382 c 5.758,1.76 10.383,-1.467 10.383,-7.207 v -33.632 l -57.423,-17.556 v -15.419 l 83.356,25.485 v 56.176 c 0,2.217 1.792,4.593 4.044,5.282 l 4.227,1.292 v 14.767 l -91.627,-28.013 z m 68.393,46.976 c -1.146,3.748 0.964,7.715 4.712,8.861 3.748,1.146 7.715,-0.963 8.861,-4.711 1.146,-3.748 -0.964,-7.716 -4.712,-8.861 -3.748,-1.146 -7.715,0.963 -8.861,4.711"
             style="fill:#f15a22;fill-opacity:1;fill-rule:nonzero;stroke:none"
             id="path48" />
        </g>
        <g
           id="g50"
           transform="translate(315.4832,370.8546)">
          <path
             d="m 0,0 -52.535,-16.062 c -2.825,-0.854 -4.509,-3.33 -4.508,-6.57 v -59.903 l 52.535,16.062 c 2.613,0.783 4.508,3.1 4.508,6.57 z m 21.185,17.934 v -87.982 l -99.403,-30.39 v 87.982 z M -9.853,-51.284 v 8.417 l -5.965,-1.823 v -8.418 z m 10e-4,-11.492 -37.329,-11.412 v 6.856 l 6.59,2.015 c 2.691,0.823 4.286,2.968 4.286,6.519 v 12.479 l -10.876,-3.325 v 7.408 l 10.876,3.326 v 12.778 c 0,1.483 -0.892,3.48 -5,2.224 l -5.876,-1.796 v 6.901 L -9.852,-7.39 v -6.902 l -6.517,-1.992 c -2.785,-0.852 -4.36,-2.928 -4.36,-6.526 v -11.339 l 10.877,3.326 v -7.409 l -10.877,-3.325 v -13.92 c 0,-2.191 1.683,-3.253 5.073,-2.217 l 5.804,1.775 z"
             style="fill:#f15a22;fill-opacity:1;fill-rule:nonzero;stroke:none"
             id="path52" />
        </g>
        <g
           id="g54"
           transform="translate(311.1105,386.3288)">
          <path
             d="m 0,0 c -2.99,1.767 -4.459,2.256 -8.4,3.616 -0.816,0.299 -1.822,0.842 -1.822,1.821 0,0.952 0.979,2.257 2.148,3.67 4.621,5.573 4.703,5.737 5.79,7.259 l 1.876,-0.87 C -2.963,12.261 -3.425,11.772 -7.286,7.367 -7.666,6.96 -7.911,6.579 -7.911,6.253 c 0,-0.49 0.815,-0.734 1.305,-0.87 2.447,-0.707 6.633,-2.257 8.292,-3.29 z"
             style="fill:#f15a22;fill-opacity:1;fill-rule:nonzero;stroke:none"
             id="path56" />
        </g>
        <g
           id="g58"
           transform="translate(264.2725,380.5641)">
          <path
             d="m 0,0 c -1.476,-1.986 -1.53,-3.408 -1.53,-3.757 0,-2.442 3.328,-1.476 5.904,-0.698 1.691,0.51 3.409,1.1 5.073,1.879 L 9.5,-4.67 C 8.91,-4.965 7.702,-5.475 5.019,-6.307 1.61,-7.327 0.134,-7.622 -1.342,-7.3 c -1.208,0.269 -2.12,1.423 -2.12,2.899 0,1.744 0.778,3.14 2.04,5.099 z M 8.588,9.661 V 7.81 C 6.414,6.736 4.857,5.475 2.872,3.516 L 1.637,4.482 c 0.564,0.59 0.671,0.698 1.798,1.61 L 3.408,6.119 C 1.073,5.367 -1.315,4.616 -2.711,4.106 v 2.12 c 0.51,0.134 2.657,0.778 3.543,1.047 z m 3.22,-3.784 c -0.751,1.342 -1.261,1.906 -1.529,2.201 l 1.127,1.073 C 12.157,8.373 12.694,7.488 12.989,7.004 Z M 9.366,3.784 C 8.776,4.777 8.427,5.26 7.729,5.985 L 8.937,7.112 C 9.635,6.468 10.198,5.636 10.574,4.938 Z"
             style="fill:#f15a22;fill-opacity:1;fill-rule:nonzero;stroke:none"
             id="path60" />
        </g>
        <g
           id="g62"
           transform="translate(181.536,293.2148)">
          <path
             d="M 0,0 C 0.203,3.948 0.05,9.799 0.05,9.799 L 36.966,21.085 V 36.448 L 0.05,25.161 V 38.917 L 36.966,50.203 V 65.528 L -62.746,35.043 V 19.719 l 36.315,11.102 V 17.065 L -62.746,5.963 V -9.399 l 36.315,11.102 v -5.68 c 0,-18.192 -9.798,-25.551 -24.677,-30.111 l -11.638,-3.558 v -15.397 l 25.346,7.75 c 19.468,5.942 26.331,12.841 34.046,31.257 4.233,-1.683 15.734,-9.265 20.398,-14.612 l 26.214,8.014 C 35.415,-11.98 7.476,-1.465 0,0"
             style="fill:#faa61a;fill-opacity:1;fill-rule:nonzero;stroke:none"
             id="path64" />
        </g>
        <g
           id="g66"
           transform="translate(186.094,370.7068)">
          <path
             d="m 0,0 c -0.374,-1.255 -1.976,-6.568 -2.269,-7.662 l 0.026,-0.027 c 0.347,0.4 1.015,1.121 2.19,1.495 2.723,0.801 2.83,-1.922 2.83,-3.417 v -0.801 c 0,-0.561 0,-2.243 1.468,-1.816 1.655,0.481 2.349,3.07 2.67,6.488 L 8.73,-5.794 c -0.454,-4.245 -1.415,-7.609 -4.645,-8.57 -3.204,-0.961 -3.231,2.27 -3.231,3.311 v 0.641 c 0,1.201 0.027,2.429 -1.281,2.029 -1.709,-0.508 -2.75,-2.537 -3.364,-4.539 -0.16,-0.694 -0.828,-3.658 -0.988,-4.272 l -1.976,0.027 c 1.015,3.551 3.444,12.628 4.592,16.927 z"
             style="fill:#faa61a;fill-opacity:1;fill-rule:nonzero;stroke:none"
             id="path68" />
        </g>
        <g
           id="g70"
           transform="translate(156.9162,361.1794)">
          <path
             d="m 0,0 v -2.127 c -0.458,-0.081 -0.889,-0.162 -1.75,-0.431 -2.936,-0.862 -7.702,-5.736 -7.729,-9.506 -0.027,-2.128 1.777,-2.262 2.989,-2.235 1.077,0.026 2.639,0.269 4.793,0.915 l -0.269,-2.343 c -1.75,-0.458 -3.77,-0.888 -5.467,-0.808 -1.885,0.054 -4.066,0.862 -4.066,3.744 0.027,1.561 0.673,4.874 4.847,8.725 l -0.026,0.027 c -3.824,-1.266 -4.282,-1.401 -8.241,-2.774 v 2.154 c 0.7,0.189 5.655,1.751 7.702,2.397 z"
             style="fill:#faa61a;fill-opacity:1;fill-rule:nonzero;stroke:none"
             id="path72" />
        </g>
        <g
           id="g74"
           transform="translate(375.938,467.9356)">
          <path
             d="m 0,0 -3.87,-1.183 c -2.533,-0.782 -5.32,-0.028 -7.244,2.814 l -8.829,13.046 -25.659,-7.845 11.617,-17.222 -31.648,-9.676 19.154,62.65 c 0.837,2.738 2.326,4.454 4.367,5.094 l 6.439,1.968 v 10.421 l -31.606,-9.663 -22.743,-74.39 c -0.881,-2.881 -2.584,-4.327 -4.397,-4.881 l -3.919,-1.198 v -15.063 l 106.761,32.64 z"
             style="fill:#f15a22;fill-opacity:1;fill-rule:nonzero;stroke:none"
             id="path76" />
        </g>
        <g
           id="g78"
           transform="translate(243.5257,424.4821)">
          <path
             d="m 0,0 c 9.719,15.41 11.095,25.107 12.469,35.788 0.48,3.864 2.319,5.861 4.399,6.497 l 3.867,1.182 V 57.879 L -69.764,30.211 V 14.944 l 56.676,17.328 c -2.285,-35.267 -19.377,-50.413 -51.105,-60.113 l -5.571,-1.703 v -15.074 l 16.778,5.131 c 21.717,6.638 32.202,13.017 45.01,28.788 3.306,-1.606 7.676,-5.54 10.153,-11.924 l 25.541,7.808 C 24.123,-10.4 8.854,-1.168 0,0 m 22.646,62.508 c 3.65,1.134 5.675,4.933 4.541,8.511 -1.064,3.65 -4.933,5.676 -8.512,4.541 -3.649,-1.134 -5.605,-4.933 -4.541,-8.512 1.135,-3.649 4.933,-5.604 8.512,-4.54 M -1.866,62.156 c -1.064,3.579 0.891,7.448 4.541,8.512 3.579,1.064 7.378,-0.962 8.512,-4.54 1.064,-3.58 -0.892,-7.378 -4.541,-8.512 -3.579,-1.064 -7.378,0.962 -8.512,4.54"
             style="fill:#faa61a;fill-opacity:1;fill-rule:nonzero;stroke:none"
             id="path80" />
        </g>
        <g
           id="g82"
           transform="translate(97.418,417.1718)">
          <path
             d="m 0,0 -2.13,-0.651 c -3.358,-1.027 -5.004,0.089 -5.004,2.201 v 22.977 c 0,3.088 1.122,5.433 4.245,6.388 L 0,31.798 V 42.975 L -35.178,32.22 V 21.044 l 2.136,0.652 c 3.368,1.03 4.998,-0.081 4.998,-2.181 V -3.461 c 0,-3.117 -1.124,-5.457 -4.239,-6.409 l -2.895,-0.885 V -21.91 L 0,-11.155 Z M 62.111,61.965 V 50.788 L 59.373,49.95 C 56.215,48.985 55.139,46.744 55.139,43.582 V -2.161 c 0,-14.969 -8.041,-26.454 -20.646,-30.264 l -62.27,-19.038 v 15.037 l 44.53,13.614 c 8.554,2.627 12.557,10.061 12.557,20.167 v 39.7 c 0,2.1 -1.638,3.204 -5.001,2.175 l -2.234,-0.683 v 11.178 z"
             style="fill:#f15a22;fill-opacity:1;fill-rule:nonzero;stroke:none"
             id="path84" />
        </g>
        <g
           id="g86"
           transform="translate(497.7615,188.1967)">
          <path
             d="M 0,0 V 9.492 L -2.212,-0.552 -4.608,-1.149 -6.768,7.805 V -1.687 L -9.033,-2.252 V 9.111 l 3.539,0.882 2.133,-8.481 0.026,0.007 2.081,9.531 3.492,0.871 V 0.558 Z m -16.352,-4.077 v 9.348 l -3.643,-0.909 v 2.009 l 9.636,2.403 V 6.765 l -3.512,-0.876 v -9.347 z"
             style="fill:#130c0e;fill-opacity:1;fill-rule:nonzero;stroke:none"
             id="path88" />
        </g>
      </g>
    </g>
  </g>
</svg>
