<?xml version="1.0" encoding="UTF-8" standalone="no"?>
<!-- Created with Inkscape (http://www.inkscape.org/) -->

<svg
   version="1.1"
   id="svg2"
   width="666.66669"
   height="600.34003"
   viewBox="0 0 666.66669 600.34003"
   sodipodi:docname="Rhythm Heaven Logo with Tagline (Canadian).ai"
   xmlns:inkscape="http://www.inkscape.org/namespaces/inkscape"
   xmlns:sodipodi="http://sodipodi.sourceforge.net/DTD/sodipodi-0.dtd"
   xmlns="http://www.w3.org/2000/svg"
   xmlns:svg="http://www.w3.org/2000/svg">
  <defs
     id="defs6">
    <clipPath
       clipPathUnits="userSpaceOnUse"
       id="clipPath16">
      <path
         d="M 0,450.255 H 500 V 0 H 0 Z"
         id="path14" />
    </clipPath>
  </defs>
  <sodipodi:namedview
     id="namedview4"
     pagecolor="#ffffff"
     bordercolor="#000000"
     borderopacity="0.25"
     inkscape:showpageshadow="2"
     inkscape:pageopacity="0.0"
     inkscape:pagecheckerboard="0"
     inkscape:deskcolor="#d1d1d1" />
  <g
     id="g8"
     inkscape:groupmode="layer"
     inkscape:label="Rhythm Heaven Logo with Tagline (Canadian)"
     transform="matrix(1.3333333,0,0,-1.3333333,0,600.34)">
    <g
       id="g10">
      <g
         id="g12"
         clip-path="url(#clipPath16)">
        <g
           id="g18"
           transform="translate(484.2548,83.3206)">
          <path
             d="m 0,0 c 0,-0.648 -0.183,-1.195 -0.552,-1.639 -0.365,-0.443 -0.872,-0.742 -1.52,-0.904 l -0.342,-0.083 c -0.62,-0.153 -1.113,-0.124 -1.482,0.098 -0.366,0.222 -0.548,0.695 -0.548,1.429 V 10.51 c 0,0.651 0.182,1.199 0.548,1.642 0.369,0.444 0.875,0.745 1.524,0.904 l 0.338,0.087 c 0.624,0.15 1.117,0.117 1.482,-0.102 C -0.183,12.822 0,12.343 0,11.608 Z m 1.651,-9.081 c 0,-1.751 -0.876,-2.842 -2.624,-3.274 L -3.6,-13.004 c -1.754,-0.434 -2.627,0.228 -2.627,1.98 v 2.161 c 0,1.862 0.917,3.023 2.754,3.475 l 2.372,0.586 c 1.835,0.451 2.752,-0.256 2.752,-2.117 z m -17.238,7.353 c 0,0.791 -0.207,1.414 -0.617,1.861 -0.407,0.448 -1.262,0.513 -2.562,0.193 -0.648,-0.161 -1.186,-0.372 -1.61,-0.632 -0.424,-0.26 -0.748,-0.543 -0.976,-0.854 -0.224,-0.305 -0.379,-0.641 -0.461,-1.004 -0.087,-0.359 -0.128,-0.737 -0.128,-1.131 0,-0.396 0.041,-0.752 0.128,-1.072 0.082,-0.317 0.237,-0.573 0.461,-0.776 0.228,-0.195 0.552,-0.315 0.976,-0.352 0.424,-0.036 0.962,0.026 1.61,0.188 0.652,0.161 1.179,0.362 1.589,0.604 0.407,0.242 0.735,0.521 0.973,0.83 0.241,0.316 0.403,0.652 0.489,1.012 0.083,0.363 0.128,0.737 0.128,1.133 m 7.412,1.576 c 0,-1.245 -0.131,-2.297 -0.4,-3.169 -0.272,-0.873 -0.665,-1.615 -1.19,-2.221 -0.52,-0.61 -1.168,-1.109 -1.947,-1.498 -0.776,-0.39 -1.689,-0.713 -2.73,-0.971 l -1.739,-0.428 c -1.468,-0.364 -2.203,-1.109 -2.203,-2.237 0,-0.678 0.191,-1.114 0.573,-1.301 0.379,-0.19 0.924,-0.196 1.63,-0.021 l 5.593,1.379 c 0.534,0.132 0.955,0.081 1.248,-0.155 0.3,-0.24 0.448,-0.624 0.448,-1.163 v -0.675 c 0,-0.51 -0.138,-0.955 -0.403,-1.331 -0.272,-0.376 -0.7,-0.637 -1.293,-0.786 l -8.516,-2.1 c -4.575,-1.13 -6.864,0.622 -6.864,5.253 v 7.202 c 0,2.344 0.551,4.162 1.652,5.447 1.102,1.289 2.854,2.233 5.254,2.823 l 3.944,0.976 c 2.395,0.591 4.154,0.515 5.271,-0.227 1.118,-0.738 1.672,-2.285 1.672,-4.628 z m -20.207,-16.933 c 0,-0.651 -0.179,-1.195 -0.53,-1.634 -0.356,-0.443 -0.856,-0.742 -1.504,-0.903 l -0.379,-0.092 c -0.624,-0.153 -1.117,-0.121 -1.482,0.098 -0.369,0.219 -0.552,0.698 -0.552,1.432 v 8.516 c 0,0.903 -0.228,1.495 -0.679,1.782 -0.452,0.283 -1.076,0.326 -1.865,0.133 l -0.421,-0.104 c -0.824,-0.203 -1.448,-0.58 -1.89,-1.121 -0.437,-0.549 -0.655,-1.233 -0.655,-2.047 v -8.516 c 0,-0.655 -0.182,-1.199 -0.548,-1.642 -0.369,-0.443 -0.879,-0.746 -1.527,-0.908 l -0.338,-0.083 c -0.624,-0.153 -1.117,-0.12 -1.482,0.102 -0.37,0.218 -0.552,0.698 -0.552,1.432 v 12.244 c 0,0.903 -0.235,1.491 -0.699,1.773 -0.466,0.282 -1.083,0.326 -1.842,0.138 L -45.796,-6.6 c -0.82,-0.201 -1.437,-0.571 -1.861,-1.114 -0.428,-0.543 -0.635,-1.223 -0.635,-2.043 v -11.65 c 0,-1.751 -0.879,-2.842 -2.627,-3.275 l -2.672,-0.657 c -1.752,-0.433 -2.624,0.228 -2.624,1.98 v 15.421 c 0,1.779 0.872,2.882 2.624,3.316 l 18.304,4.514 c 2.399,0.594 4.15,0.448 5.251,-0.439 1.102,-0.887 1.654,-2.488 1.654,-4.802 z m -30.336,-6.893 c 0,-1.751 -0.872,-2.844 -2.627,-3.278 l -2.624,-0.647 c -1.782,-0.439 -2.668,0.218 -2.668,1.969 l 0.041,11.87 c 0,0.82 -0.22,1.395 -0.655,1.724 -0.437,0.332 -1.068,0.396 -1.886,0.194 l -0.468,-0.115 c -0.762,-0.187 -1.373,-0.54 -1.841,-1.048 -0.466,-0.509 -0.7,-1.218 -0.7,-2.122 v -12.453 c 0,-0.738 -0.183,-1.305 -0.548,-1.704 -0.369,-0.402 -0.863,-0.68 -1.487,-0.833 l -0.338,-0.083 c -0.651,-0.162 -1.158,-0.109 -1.523,0.154 -0.369,0.26 -0.552,0.716 -0.552,1.368 v 21.054 c 0,1.78 0.872,2.884 2.627,3.317 l 2.669,0.657 c 1.751,0.433 2.61,-0.215 2.582,-1.943 V -6.28 c -0.024,-0.66 0.124,-1.128 0.448,-1.414 0.325,-0.29 0.852,-0.342 1.586,-0.159 l 1.021,0.25 c 2.399,0.591 4.154,0.453 5.271,-0.417 1.118,-0.869 1.672,-2.457 1.672,-4.773 z m -19.824,-0.614 c 0,-2.317 -0.555,-4.187 -1.672,-5.6 -1.117,-1.421 -2.875,-2.426 -5.271,-3.021 l -3.986,-0.981 c -4.633,-1.143 -6.947,0.588 -6.947,5.19 v 16.184 c 0,1.778 0.872,2.882 2.627,3.316 l 2.669,0.66 c 0.848,0.206 1.503,0.127 1.969,-0.234 0.465,-0.365 0.672,-1.093 0.613,-2.182 -0.059,-1.341 0.624,-1.836 2.034,-1.486 l 5.506,1.357 c 0.734,0.184 1.259,0.111 1.572,-0.204 0.307,-0.321 0.462,-0.789 0.462,-1.413 0,-1.41 -0.676,-2.283 -2.034,-2.62 l -7.495,-1.848 c -1.244,-0.306 -2.134,-0.842 -2.672,-1.612 -0.538,-0.769 -0.804,-1.69 -0.804,-2.762 v -6.523 c 0,-0.82 0.214,-1.396 0.635,-1.729 0.424,-0.336 1.048,-0.403 1.865,-0.199 l 0.469,0.114 c 0.759,0.189 1.365,0.538 1.82,1.048 0.449,0.502 0.676,1.211 0.676,2.115 v 4.912 c 0,0.734 0.183,1.296 0.552,1.684 0.365,0.388 0.858,0.655 1.482,0.812 l 3.855,0.95 c 0.651,0.162 1.158,0.116 1.527,-0.134 0.365,-0.246 0.548,-0.695 0.548,-1.347 z m -20.379,-4.988 c 0,-1.441 -0.207,-2.693 -0.631,-3.757 -0.396,-0.917 -0.896,-1.674 -1.507,-2.278 -0.606,-0.601 -1.32,-1.145 -2.137,-1.629 -0.314,-0.193 -0.528,-0.496 -0.658,-0.924 -0.125,-0.428 -0.19,-0.879 -0.19,-1.361 v -1.863 c 0,-1.782 -0.876,-2.886 -2.624,-3.319 l -2.672,-0.657 c -1.748,-0.433 -2.627,0.238 -2.627,2.02 v 1.862 c 0,1.159 -0.369,1.818 -1.103,1.973 -0.703,0.112 -1.314,0.321 -1.821,0.632 -0.506,0.315 -0.917,0.773 -1.227,1.37 -0.451,0.879 -0.679,2.05 -0.679,3.519 v 11.777 c 0,0.652 0.183,1.189 0.552,1.618 0.369,0.433 0.875,0.729 1.523,0.887 l 0.338,0.083 c 0.624,0.153 1.117,0.128 1.487,-0.077 0.365,-0.208 0.547,-0.678 0.547,-1.412 v -12.498 c 0,-0.904 0.235,-1.488 0.704,-1.756 0.465,-0.262 1.079,-0.306 1.841,-0.117 l 0.465,0.117 c 0.82,0.202 1.448,0.569 1.886,1.102 0.434,0.53 0.655,1.206 0.655,2.024 v 11.822 c 0,1.778 0.876,2.883 2.627,3.317 l 2.627,0.647 c 1.752,0.434 2.624,-0.241 2.624,-2.021 z m -19.441,-1.025 c 0,-0.653 -0.183,-1.2 -0.548,-1.639 -0.369,-0.447 -0.876,-0.75 -1.528,-0.908 l -0.337,-0.083 c -0.624,-0.154 -1.118,-0.12 -1.483,0.098 -0.369,0.218 -0.552,0.699 -0.552,1.433 v 3.389 c 0,0.903 -0.234,1.494 -0.7,1.773 -0.465,0.282 -1.079,0.33 -1.841,0.142 -0.82,-0.203 -1.448,-0.577 -1.885,-1.123 -0.439,-0.543 -0.656,-1.227 -0.656,-2.048 v -11.481 c 0,-1.751 -0.879,-2.842 -2.627,-3.275 l -2.671,-0.657 c -1.752,-0.433 -2.624,0.228 -2.624,1.979 v 15.422 c 0,1.778 0.872,2.883 2.624,3.316 l 7.88,1.944 c 2.404,0.592 4.159,0.449 5.276,-0.438 1.113,-0.883 1.672,-2.48 1.672,-4.794 z m -34.653,-5.037 c 0,0.789 -0.207,1.413 -0.617,1.857 -0.407,0.451 -1.262,0.516 -2.561,0.197 -0.649,-0.162 -1.187,-0.373 -1.611,-0.633 -0.424,-0.26 -0.748,-0.543 -0.975,-0.854 -0.224,-0.309 -0.379,-0.641 -0.462,-1.004 -0.086,-0.359 -0.128,-0.737 -0.128,-1.13 0,-0.396 0.042,-0.753 0.128,-1.072 0.083,-0.317 0.238,-0.577 0.462,-0.777 0.227,-0.194 0.551,-0.315 0.975,-0.351 0.424,-0.037 0.962,0.025 1.611,0.187 0.651,0.161 1.178,0.359 1.589,0.601 0.411,0.245 0.734,0.524 0.972,0.833 0.241,0.316 0.403,0.652 0.489,1.012 0.083,0.363 0.128,0.738 0.128,1.134 m 7.412,1.575 c 0,-1.246 -0.13,-2.3 -0.399,-3.172 -0.269,-0.869 -0.666,-1.612 -1.189,-2.218 -0.521,-0.609 -1.169,-1.109 -1.949,-1.502 -0.775,-0.385 -1.689,-0.712 -2.73,-0.967 l -1.737,-0.428 c -1.469,-0.364 -2.204,-1.113 -2.204,-2.237 0,-0.682 0.19,-1.113 0.573,-1.301 0.379,-0.19 0.924,-0.196 1.631,-0.021 l 5.591,1.38 c 0.535,0.131 0.955,0.081 1.248,-0.159 0.3,-0.236 0.449,-0.621 0.449,-1.16 v -0.675 c 0,-0.51 -0.135,-0.955 -0.404,-1.331 -0.272,-0.38 -0.7,-0.64 -1.293,-0.786 l -8.515,-2.1 c -4.575,-1.13 -6.865,0.623 -6.865,5.253 v 7.202 c 0,2.345 0.552,4.163 1.652,5.447 1.106,1.289 2.854,2.233 5.254,2.823 l 3.944,0.973 c 2.4,0.595 4.154,0.518 5.272,-0.224 1.117,-0.738 1.671,-2.284 1.671,-4.628 z m -20.334,-16.371 c 0,-1.75 -0.875,-2.845 -2.624,-3.274 l -2.671,-0.661 c -1.751,-0.433 -2.627,0.227 -2.627,1.979 v 20.376 c 0,1.837 0.93,2.983 2.796,3.446 l 2.331,0.574 c 1.861,0.459 2.795,-0.226 2.795,-2.064 z m -17.71,7.068 c 0,-1.924 -0.539,-3.39 -1.61,-4.404 -1.072,-1.012 -2.682,-1.882 -4.831,-2.609 l -0.42,-0.149 c -0.624,-0.209 -1.117,-0.493 -1.482,-0.85 -0.369,-0.361 -0.552,-0.908 -0.552,-1.642 v -0.383 c 0,-0.904 0.23,-1.436 0.699,-1.605 0.463,-0.169 1.079,-0.157 1.842,0.032 l 4.45,1.098 c 0.617,0.153 1.056,0.111 1.315,-0.121 0.251,-0.235 0.379,-0.604 0.379,-1.114 v -0.676 c 0,-1.131 -0.566,-1.836 -1.694,-2.112 l -7.881,-1.948 c -1.186,-0.293 -2.21,-0.436 -3.072,-0.44 -0.861,0.003 -1.582,0.169 -2.161,0.504 -0.579,0.339 -1.004,0.878 -1.269,1.616 -0.272,0.737 -0.403,1.685 -0.403,2.844 v 0.341 c 0,0.986 0.103,1.819 0.316,2.492 0.211,0.673 0.573,1.271 1.08,1.791 0.51,0.519 1.172,0.988 1.993,1.404 0.817,0.411 1.838,0.841 3.048,1.28 l 0.34,0.128 c 0.622,0.208 1.115,0.507 1.483,0.895 0.366,0.385 0.549,0.963 0.549,1.726 0,0.903 -0.232,1.494 -0.697,1.773 -0.465,0.282 -1.079,0.329 -1.844,0.138 l -4.235,-1.043 c -1.161,-0.288 -1.74,0.136 -1.74,1.267 v 0.634 c 0,0.507 0.138,0.956 0.403,1.349 0.269,0.39 0.713,0.665 1.337,0.818 l 7.751,1.913 c 2.372,0.583 4.12,0.55 5.23,-0.108 1.117,-0.656 1.676,-2.144 1.676,-4.46 z m -25.713,-6.178 c 0,0.789 -0.206,1.413 -0.618,1.86 -0.406,0.452 -1.261,0.513 -2.561,0.194 -0.648,-0.158 -1.186,-0.373 -1.609,-0.633 -0.425,-0.26 -0.748,-0.543 -0.976,-0.854 -0.225,-0.305 -0.38,-0.641 -0.463,-1.003 -0.086,-0.357 -0.127,-0.739 -0.127,-1.131 0,-0.397 0.041,-0.75 0.127,-1.073 0.083,-0.316 0.238,-0.574 0.463,-0.776 0.228,-0.194 0.551,-0.312 0.976,-0.351 0.423,-0.038 0.961,0.029 1.609,0.187 0.652,0.162 1.18,0.358 1.59,0.604 0.406,0.242 0.734,0.521 0.971,0.834 0.243,0.312 0.405,0.648 0.491,1.007 0.083,0.364 0.127,0.739 0.127,1.135 m 7.413,1.574 c 0,-1.245 -0.135,-2.296 -0.401,-3.169 -0.272,-0.872 -0.665,-1.613 -1.189,-2.22 -0.521,-0.61 -1.169,-1.11 -1.947,-1.498 -0.777,-0.389 -1.69,-0.716 -2.731,-0.971 l -1.738,-0.429 c -1.469,-0.363 -2.203,-1.108 -2.203,-2.236 0,-0.679 0.189,-1.113 0.572,-1.301 0.38,-0.19 0.924,-0.196 1.631,-0.02 l 5.593,1.379 c 0.534,0.13 0.954,0.081 1.248,-0.16 0.296,-0.236 0.447,-0.621 0.447,-1.159 v -0.676 c 0,-0.509 -0.138,-0.955 -0.403,-1.331 -0.272,-0.376 -0.7,-0.639 -1.292,-0.785 l -8.517,-2.1 c -4.574,-1.13 -6.864,0.623 -6.864,5.253 v 7.202 c 0,2.344 0.552,4.163 1.651,5.447 1.104,1.289 2.856,2.232 5.255,2.823 l 3.94,0.976 c 2.4,0.592 4.159,0.514 5.276,-0.227 1.116,-0.738 1.672,-2.284 1.672,-4.629 z m -20.417,-12.113 c 0,-2.344 -0.552,-4.218 -1.652,-5.616 -1.103,-1.402 -2.855,-2.401 -5.255,-2.992 l -8.305,-2.052 c -1.751,-0.43 -2.627,0.227 -2.627,1.978 v 15.377 c 0,1.814 0.876,2.932 2.627,3.365 l 2.627,0.648 c 1.749,0.43 2.628,-0.256 2.628,-2.065 v -11.65 c 0,-0.817 0.217,-1.395 0.655,-1.724 0.441,-0.328 1.065,-0.393 1.886,-0.191 l 0.465,0.114 c 0.762,0.188 1.373,0.538 1.82,1.043 0.455,0.51 0.683,1.212 0.683,2.116 v 12.287 c 0,0.734 0.19,1.309 0.573,1.733 0.379,0.416 0.865,0.696 1.458,0.845 l 0.383,0.093 c 0.647,0.161 1.147,0.097 1.499,-0.18 0.359,-0.278 0.535,-0.744 0.535,-1.393 z m -20.294,12.362 c 0,-0.621 -0.154,-1.156 -0.468,-1.596 -0.311,-0.448 -0.832,-0.758 -1.565,-0.941 l -0.68,-0.167 c -0.737,-0.183 -1.252,-0.128 -1.545,0.171 -0.299,0.291 -0.448,0.752 -0.448,1.373 v 0.72 c 0,0.648 0.169,1.191 0.51,1.627 0.342,0.438 0.835,0.736 1.483,0.898 l 0.68,0.166 c 0.648,0.162 1.151,0.106 1.503,-0.159 0.355,-0.263 0.53,-0.723 0.53,-1.371 z m 0,-21.648 c 0,-1.751 -0.875,-2.845 -2.627,-3.274 l -2.668,-0.662 c -1.755,-0.432 -2.627,0.229 -2.627,1.98 v 15.294 c 0,1.861 0.931,3.027 2.796,3.487 l 2.33,0.573 c 1.862,0.46 2.796,-0.242 2.796,-2.104 z m -10.425,1.705 c 0,-4.603 -2.313,-7.475 -6.944,-8.617 l -3.982,-0.985 c -2.403,-0.591 -4.161,-0.459 -5.278,0.396 -1.114,0.852 -1.672,2.449 -1.672,4.794 v 11.736 c 0,0.648 0.182,1.206 0.551,1.659 0.366,0.457 0.876,0.771 1.524,0.928 l 0.338,0.084 c 0.624,0.153 1.117,0.113 1.486,-0.119 0.365,-0.236 0.548,-0.72 0.548,-1.454 v -8.685 c 0,-0.906 0.235,-1.497 0.7,-1.776 0.469,-0.279 1.083,-0.326 1.841,-0.142 l 0.469,0.119 c 0.817,0.201 1.448,0.575 1.886,1.122 0.434,0.546 0.655,1.227 0.655,2.047 l -0.041,8.083 c 0,1.78 0.889,2.888 2.668,3.326 l 2.627,0.648 c 1.751,0.433 2.624,-0.242 2.624,-2.021 z m -19.735,-5.678 c 0,-1.186 -0.144,-2.208 -0.427,-3.07 -0.283,-0.856 -0.704,-1.589 -1.269,-2.197 -0.566,-0.606 -1.286,-1.109 -2.165,-1.507 -0.872,-0.401 -1.903,-0.747 -3.089,-1.037 l -8.475,-2.092 c -0.537,-0.132 -0.955,-0.081 -1.248,0.155 -0.296,0.24 -0.448,0.624 -0.448,1.162 v 0.635 c 0,0.51 0.131,0.951 0.383,1.323 0.255,0.375 0.693,0.64 1.313,0.792 l 4.958,1.226 c 0.762,0.185 1.379,0.448 1.841,0.789 0.469,0.342 0.704,0.965 0.704,1.868 v 0.255 c 0,0.734 -0.187,1.187 -0.552,1.367 -0.369,0.178 -0.865,0.19 -1.482,0.036 l -0.849,-0.21 c -4.295,-1.059 -6.44,0.373 -6.44,4.3 v 5.168 c 0,2.318 0.552,4.105 1.651,5.365 1.1,1.261 2.855,2.188 5.255,2.782 l 3.306,0.815 c 2.427,0.599 4.185,0.46 5.271,-0.417 1.086,-0.871 1.631,-2.483 1.631,-4.828 v -3.43 c 0,-0.738 -0.182,-1.296 -0.551,-1.683 -0.366,-0.389 -0.845,-0.656 -1.438,-0.8 l -0.383,-0.096 c -0.648,-0.158 -1.151,-0.112 -1.503,0.139 -0.355,0.253 -0.531,0.702 -0.531,1.354 v 0.296 c 0,0.818 -0.228,1.333 -0.676,1.548 -0.455,0.21 -1.058,0.24 -1.82,0.08 l -3.224,-0.797 c -0.789,-0.192 -1.409,-0.546 -1.864,-1.052 -0.449,-0.506 -0.676,-1.211 -0.676,-2.115 v -1.144 c 0,-0.735 0.182,-1.214 0.551,-1.433 0.366,-0.219 0.845,-0.256 1.441,-0.11 l 4.32,1.025 c 2.455,0.574 4.151,0.508 5.086,-0.205 0.93,-0.721 1.399,-2.064 1.399,-4.044 z"
             style="fill:#130c0e;fill-opacity:1;fill-rule:nonzero;stroke:none"
             id="path20" />
        </g>
        <g
           id="g22"
           transform="translate(480.7079,128.469)">
          <path
             d="m 0,0 c 0,-0.649 -0.183,-1.198 -0.553,-1.643 -0.366,-0.44 -0.874,-0.743 -1.527,-0.905 l -0.342,-0.084 c -0.618,-0.153 -1.116,-0.124 -1.485,0.103 -0.366,0.218 -0.55,0.696 -0.55,1.432 v 11.633 c 0,0.652 0.184,1.197 0.55,1.646 0.369,0.44 0.881,0.744 1.53,0.905 l 0.339,0.084 c 0.625,0.153 1.119,0.121 1.485,-0.102 C -0.183,12.85 0,12.369 0,11.633 Z m 1.655,-9.097 c 0,-1.755 -0.878,-2.85 -2.633,-3.281 l -2.628,-0.653 c -1.759,-0.434 -2.633,0.228 -2.633,1.983 v 2.167 c 0,1.865 0.919,3.029 2.76,3.485 l 2.376,0.584 c 1.839,0.457 2.758,-0.255 2.758,-2.122 z m -10.23,-3.12 c 0,-0.653 -0.176,-1.197 -0.532,-1.637 -0.356,-0.444 -0.857,-0.744 -1.506,-0.905 l -0.38,-0.093 c -0.626,-0.154 -1.12,-0.121 -1.486,0.099 -0.37,0.219 -0.553,0.699 -0.553,1.436 v 8.533 c 0,0.905 -0.228,1.498 -0.681,1.785 -0.452,0.284 -1.078,0.327 -1.865,0.134 l -0.425,-0.105 c -0.826,-0.203 -1.451,-0.581 -1.893,-1.126 -0.439,-0.548 -0.657,-1.229 -0.657,-2.051 v -8.535 c 0,-0.649 -0.183,-1.197 -0.55,-1.638 -0.369,-0.448 -0.88,-0.751 -1.53,-0.909 l -0.339,-0.087 c -0.625,-0.154 -1.119,-0.121 -1.485,0.101 -0.37,0.22 -0.553,0.7 -0.553,1.437 V -3.51 c 0,0.906 -0.235,1.497 -0.698,1.778 -0.47,0.282 -1.088,0.326 -1.848,0.137 l -0.47,-0.114 c -0.819,-0.202 -1.441,-0.573 -1.866,-1.117 -0.424,-0.544 -0.635,-1.226 -0.635,-2.048 v -11.674 c 0,-1.755 -0.881,-2.848 -2.633,-3.282 l -2.678,-0.658 c -1.755,-0.435 -2.629,0.228 -2.629,1.983 v 15.454 c 0,1.782 0.874,2.889 2.629,3.323 l 18.343,4.527 c 2.404,0.593 4.163,0.446 5.265,-0.443 1.102,-0.888 1.655,-2.494 1.655,-4.812 z m -30.401,-6.907 c 0,-1.755 -0.874,-2.851 -2.628,-3.281 l -2.633,-0.65 c -1.786,-0.442 -2.674,0.216 -2.674,1.971 l 0.041,11.895 c 0,0.822 -0.221,1.397 -0.656,1.727 -0.439,0.333 -1.071,0.397 -1.89,0.194 l -0.47,-0.114 c -0.76,-0.188 -1.375,-0.542 -1.844,-1.051 -0.467,-0.51 -0.702,-1.217 -0.702,-2.13 v -12.479 c 0,-0.732 -0.183,-1.305 -0.549,-1.704 -0.371,-0.403 -0.864,-0.682 -1.49,-0.835 l -0.339,-0.083 c -0.649,-0.162 -1.16,-0.113 -1.526,0.154 -0.37,0.261 -0.553,0.718 -0.553,1.37 v 21.1 c 0,1.783 0.877,2.89 2.633,3.323 l 2.677,0.659 c 1.752,0.434 2.612,-0.219 2.588,-1.948 v -0.383 c -0.028,-0.662 0.121,-1.131 0.446,-1.418 0.324,-0.287 0.853,-0.341 1.593,-0.158 l 1.018,0.25 c 2.406,0.593 4.163,0.453 5.284,-0.417 1.119,-0.871 1.674,-2.462 1.674,-4.784 z m -19.865,-0.616 c 0,-2.322 -0.556,-4.192 -1.676,-5.612 -1.119,-1.423 -2.878,-2.431 -5.282,-3.027 l -3.994,-0.983 c -4.644,-1.149 -6.962,0.589 -6.962,5.201 v 16.218 c 0,1.782 0.874,2.888 2.633,3.323 l 2.674,0.662 c 0.849,0.206 1.507,0.127 1.972,-0.235 0.467,-0.367 0.674,-1.091 0.616,-2.187 -0.059,-1.343 0.625,-1.84 2.038,-1.489 l 5.517,1.36 c 0.737,0.184 1.262,0.112 1.576,-0.204 0.307,-0.322 0.463,-0.791 0.463,-1.416 0,-1.413 -0.677,-2.288 -2.039,-2.626 l -7.51,-1.851 c -1.248,-0.311 -2.135,-0.848 -2.678,-1.616 -0.539,-0.771 -0.805,-1.694 -0.805,-2.768 v -6.536 c 0,-0.823 0.214,-1.399 0.636,-1.733 0.425,-0.337 1.05,-0.401 1.869,-0.199 l 0.47,0.114 c 0.763,0.189 1.368,0.538 1.824,1.049 0.449,0.504 0.677,1.214 0.677,2.119 v 4.924 c 0,0.735 0.183,1.298 0.552,1.687 0.367,0.389 0.861,0.66 1.487,0.814 l 3.862,0.952 c 0.653,0.158 1.161,0.116 1.53,-0.135 0.367,-0.246 0.55,-0.696 0.55,-1.349 z m -20.419,-4.998 c 0,-1.445 -0.211,-2.699 -0.636,-3.765 -0.397,-0.919 -0.898,-1.678 -1.509,-2.283 -0.609,-0.602 -1.324,-1.148 -2.142,-1.633 -0.314,-0.192 -0.529,-0.497 -0.66,-0.926 -0.125,-0.427 -0.19,-0.881 -0.19,-1.364 v -1.865 c 0,-1.786 -0.877,-2.894 -2.629,-3.327 l -2.678,-0.662 c -1.752,-0.43 -2.633,0.242 -2.633,2.032 v 1.865 c 0,1.161 -0.369,1.818 -1.105,1.974 -0.705,0.108 -1.317,0.321 -1.825,0.636 -0.507,0.313 -0.919,0.771 -1.229,1.369 -0.453,0.882 -0.678,2.056 -0.678,3.528 v 11.802 c 0,0.653 0.184,1.191 0.553,1.622 0.366,0.433 0.874,0.725 1.524,0.887 l 0.338,0.084 c 0.626,0.154 1.12,0.127 1.489,-0.078 0.367,-0.205 0.55,-0.679 0.55,-1.415 v -12.524 c 0,-0.906 0.235,-1.49 0.704,-1.76 0.467,-0.262 1.082,-0.306 1.846,-0.117 l 0.466,0.114 c 0.822,0.205 1.451,0.573 1.89,1.108 0.435,0.531 0.657,1.209 0.657,2.028 v 11.846 c 0,1.784 0.881,2.89 2.632,3.325 l 2.632,0.648 c 1.755,0.435 2.633,-0.241 2.633,-2.024 z m -20.422,-9.369 c 0,-1.755 -0.874,-2.848 -2.632,-3.282 l -2.629,-0.649 c -1.786,-0.44 -2.675,0.219 -2.675,1.974 l 0.042,11.894 c 0,0.822 -0.222,1.399 -0.66,1.728 -0.436,0.329 -1.068,0.396 -1.887,0.194 l -0.47,-0.117 c -0.763,-0.189 -1.375,-0.539 -1.845,-1.051 -0.466,-0.512 -0.701,-1.218 -0.701,-2.127 v -12.479 c 0,-0.736 -0.183,-1.305 -0.549,-1.707 -0.37,-0.404 -0.864,-0.678 -1.489,-0.835 l -0.339,-0.084 c -0.653,-0.159 -1.161,-0.109 -1.527,0.155 -0.369,0.264 -0.553,0.718 -0.553,1.37 v 21.1 c 0,1.782 0.874,2.888 2.633,3.323 l 2.674,0.662 c 1.755,0.431 2.615,-0.219 2.588,-1.951 v -0.38 c -0.025,-0.661 0.124,-1.134 0.449,-1.418 0.324,-0.29 0.854,-0.342 1.589,-0.161 l 1.023,0.254 c 2.405,0.591 4.163,0.453 5.283,-0.418 1.119,-0.871 1.675,-2.465 1.675,-4.787 z m -20.25,-4.997 c 0,-1.754 -0.874,-2.847 -2.631,-3.282 l -2.633,-0.649 c -1.783,-0.443 -2.671,0.216 -2.671,1.972 v 3.693 c 0,0.905 -0.2,1.472 -0.598,1.699 -0.397,0.228 -0.991,0.245 -1.779,0.052 -0.739,-0.184 -1.251,-0.121 -1.53,0.196 -0.284,0.31 -0.426,0.766 -0.426,1.36 v 0.379 c 0,0.654 0.177,1.205 0.529,1.66 0.356,0.454 0.86,0.763 1.51,0.921 l 3.61,0.891 c 0.819,0.205 1.393,0.501 1.717,0.892 0.325,0.389 0.491,1.072 0.491,2.033 v 0.297 c 0,0.908 -0.235,1.431 -0.702,1.587 -0.47,0.155 -1.085,0.136 -1.845,-0.052 l -3.994,-0.983 c -0.818,-0.206 -1.443,-0.577 -1.869,-1.118 -0.421,-0.544 -0.636,-1.228 -0.636,-2.047 v -13.416 c 0,-0.653 -0.182,-1.201 -0.548,-1.642 -0.371,-0.447 -0.881,-0.751 -1.531,-0.909 l -0.339,-0.083 c -0.625,-0.158 -1.119,-0.121 -1.485,0.098 -0.37,0.219 -0.553,0.7 -0.553,1.436 v 16.811 c 0,4.64 2.319,7.533 6.961,8.681 l 3.994,0.983 c 2.406,0.596 4.163,0.457 5.284,-0.414 1.119,-0.867 1.674,-2.479 1.674,-4.828 v -3.949 c 0,-1.047 -0.231,-2.002 -0.697,-2.87 -0.47,-0.864 -1.112,-1.454 -1.934,-1.77 0.822,0.116 1.464,-0.171 1.934,-0.862 0.466,-0.691 0.697,-1.532 0.697,-2.52 z m -35.15,2.958 c 0,0.791 -0.207,1.416 -0.614,1.86 -0.411,0.456 -1.269,0.517 -2.568,0.197 -0.653,-0.158 -1.192,-0.373 -1.617,-0.634 -0.421,-0.26 -0.75,-0.544 -0.974,-0.856 -0.228,-0.309 -0.38,-0.642 -0.466,-1.005 -0.083,-0.36 -0.128,-0.739 -0.128,-1.134 0,-0.396 0.045,-0.754 0.128,-1.074 0.086,-0.316 0.238,-0.578 0.466,-0.777 0.224,-0.196 0.553,-0.317 0.974,-0.353 0.425,-0.037 0.964,0.029 1.617,0.188 0.65,0.162 1.178,0.359 1.589,0.605 0.411,0.242 0.737,0.523 0.979,0.835 0.238,0.314 0.4,0.65 0.486,1.011 0.087,0.363 0.128,0.739 0.128,1.137 m 7.429,1.577 c 0,-1.247 -0.132,-2.301 -0.402,-3.175 -0.269,-0.875 -0.667,-1.617 -1.188,-2.226 -0.526,-0.611 -1.175,-1.111 -1.955,-1.502 -0.778,-0.389 -1.694,-0.716 -2.737,-0.971 l -1.741,-0.431 c -1.471,-0.363 -2.208,-1.11 -2.208,-2.24 0,-0.681 0.191,-1.116 0.573,-1.304 0.38,-0.19 0.926,-0.196 1.635,-0.021 l 5.604,1.381 c 0.536,0.132 0.957,0.082 1.251,-0.158 0.3,-0.236 0.449,-0.623 0.449,-1.162 v -0.677 c 0,-0.511 -0.135,-0.957 -0.404,-1.334 -0.27,-0.377 -0.702,-0.641 -1.296,-0.787 l -8.533,-2.105 c -4.585,-1.132 -6.876,0.625 -6.876,5.264 v 7.217 c 0,2.35 0.552,4.172 1.655,5.46 1.105,1.291 2.857,2.236 5.262,2.829 l 3.952,0.978 c 2.405,0.592 4.164,0.514 5.283,-0.228 1.119,-0.74 1.676,-2.29 1.676,-4.638 z m -20.419,-16.417 c 0,-1.755 -0.878,-2.848 -2.633,-3.282 l -2.633,-0.649 c -1.782,-0.439 -2.671,0.219 -2.671,1.975 l 0.038,11.893 c 0,0.822 -0.217,1.399 -0.656,1.728 -0.438,0.329 -1.067,0.396 -1.89,0.194 l -0.466,-0.117 c -0.764,-0.186 -1.378,-0.539 -1.845,-1.047 -0.47,-0.516 -0.701,-1.222 -0.701,-2.131 V -54.9 c 0,-0.737 -0.184,-1.306 -0.55,-1.708 -0.369,-0.404 -0.867,-0.678 -1.488,-0.835 l -0.343,-0.084 c -0.65,-0.159 -1.157,-0.109 -1.524,0.159 -0.369,0.26 -0.552,0.717 -0.552,1.366 v 21.104 c 0,1.782 0.874,2.888 2.629,3.323 l 2.677,0.658 c 1.752,0.434 2.616,-0.219 2.588,-1.948 v -0.383 c -0.027,-0.661 0.121,-1.134 0.449,-1.417 0.326,-0.291 0.854,-0.343 1.589,-0.162 l 1.02,0.254 c 2.404,0.592 4.167,0.453 5.286,-0.418 1.119,-0.87 1.676,-2.465 1.676,-4.787 z m -19.869,-0.613 c 0,-2.322 -0.557,-4.196 -1.676,-5.616 -1.119,-1.423 -2.878,-2.431 -5.283,-3.023 l -3.991,-0.987 c -4.643,-1.145 -6.964,0.592 -6.964,5.204 v 16.218 c 0,1.782 0.877,2.89 2.632,3.324 l 2.678,0.659 c 0.846,0.21 1.503,0.13 1.973,-0.236 0.463,-0.363 0.67,-1.091 0.614,-2.182 -0.059,-1.344 0.622,-1.84 2.039,-1.493 l 5.518,1.364 c 0.735,0.179 1.26,0.11 1.571,-0.205 0.308,-0.323 0.467,-0.791 0.467,-1.416 0,-1.413 -0.681,-2.292 -2.038,-2.625 l -7.515,-1.856 c -1.247,-0.307 -2.135,-0.844 -2.674,-1.612 -0.539,-0.771 -0.808,-1.697 -0.808,-2.772 v -6.537 c 0,-0.822 0.213,-1.398 0.638,-1.731 0.422,-0.334 1.047,-0.401 1.869,-0.199 l 0.467,0.117 c 0.764,0.188 1.371,0.539 1.824,1.046 0.453,0.508 0.681,1.218 0.681,2.123 v 4.919 c 0,0.74 0.183,1.302 0.553,1.691 0.366,0.385 0.86,0.656 1.482,0.81 l 3.865,0.956 c 0.651,0.158 1.159,0.116 1.528,-0.134 0.366,-0.251 0.55,-0.7 0.55,-1.35 z m -35.404,-1.309 c 0,0.905 -0.234,1.501 -0.701,1.78 -0.467,0.279 -1.081,0.327 -1.845,0.139 l -1.105,-0.273 c -0.791,-0.193 -1.41,-0.568 -1.845,-1.116 -0.442,-0.545 -0.66,-1.229 -0.66,-2.052 v -4.54 c 0,-1.7 0.836,-2.343 2.505,-1.931 l 1.105,0.272 c 0.764,0.189 1.378,0.539 1.845,1.051 0.467,0.515 0.701,1.222 0.701,2.13 z m 7.304,-5.588 c 0,-2.349 -0.549,-4.23 -1.638,-5.641 -1.088,-1.419 -2.849,-2.426 -5.286,-3.027 l -4.031,-0.996 c -4.613,-1.136 -6.921,0.615 -6.921,5.256 v 6.792 c 0,4.671 2.308,7.576 6.921,8.713 l 4.031,0.996 c 2.408,0.592 4.16,0.446 5.266,-0.444 1.105,-0.888 1.658,-2.507 1.658,-4.856 z m -19.658,-4.893 c 0,-2.321 -0.556,-4.192 -1.676,-5.612 -1.119,-1.423 -2.878,-2.431 -5.283,-3.023 l -3.993,-0.984 c -4.644,-1.148 -6.962,0.589 -6.962,5.201 v 16.218 c 0,1.782 0.874,2.889 2.633,3.323 l 2.673,0.659 c 0.85,0.211 1.507,0.13 1.977,-0.235 0.463,-0.366 0.67,-1.092 0.611,-2.182 -0.055,-1.344 0.626,-1.84 2.039,-1.491 l 5.517,1.361 c 0.736,0.183 1.265,0.111 1.576,-0.204 0.307,-0.323 0.462,-0.791 0.462,-1.416 0,-1.414 -0.676,-2.289 -2.038,-2.626 l -7.511,-1.855 c -1.247,-0.308 -2.135,-0.845 -2.674,-1.612 -0.542,-0.775 -0.808,-1.697 -0.808,-2.772 v -6.537 c 0,-0.822 0.214,-1.398 0.635,-1.732 0.425,-0.333 1.051,-0.401 1.87,-0.196 l 0.469,0.115 c 0.764,0.188 1.369,0.538 1.825,1.046 0.449,0.506 0.677,1.216 0.677,2.122 v 4.924 c 0,0.735 0.183,1.297 0.553,1.686 0.366,0.386 0.863,0.657 1.485,0.811 l 3.863,0.956 c 0.653,0.158 1.161,0.116 1.53,-0.134 0.367,-0.251 0.55,-0.697 0.55,-1.354 z m -20.25,-9.878 c 0,-0.653 -0.183,-1.198 -0.549,-1.642 -0.37,-0.445 -0.881,-0.747 -1.531,-0.909 l -0.338,-0.084 c -0.626,-0.154 -1.12,-0.12 -1.486,0.102 -0.37,0.219 -0.553,0.696 -0.553,1.436 v 12.354 c 0,0.906 -0.235,1.494 -0.698,1.778 -0.469,0.283 -1.084,0.327 -1.848,0.138 l -0.47,-0.114 c -0.819,-0.202 -1.44,-0.577 -1.866,-1.121 -0.424,-0.544 -0.635,-1.225 -0.635,-2.044 v -11.761 c 0,-1.755 -0.878,-2.847 -2.633,-3.281 l -2.677,-0.662 c -1.755,-0.431 -2.63,0.228 -2.63,1.983 v 15.495 c 0,1.755 0.875,2.852 2.63,3.286 l 8.322,2.053 c 2.405,0.592 4.167,0.453 5.286,-0.418 1.12,-0.871 1.676,-2.465 1.676,-4.787 z m -20.377,17.261 c 0,-0.622 -0.155,-1.159 -0.466,-1.603 -0.315,-0.446 -0.836,-0.756 -1.572,-0.94 l -0.678,-0.167 c -0.739,-0.183 -1.254,-0.128 -1.551,0.171 -0.297,0.292 -0.446,0.754 -0.446,1.376 v 0.723 c 0,0.649 0.17,1.193 0.508,1.629 0.343,0.436 0.837,0.738 1.489,0.9 l 0.678,0.167 c 0.653,0.162 1.154,0.105 1.506,-0.159 0.356,-0.265 0.532,-0.726 0.532,-1.375 z m 0,-21.694 c 0,-1.755 -0.878,-2.852 -2.632,-3.281 l -2.675,-0.663 c -1.758,-0.434 -2.633,0.229 -2.633,1.984 v 15.326 c 0,1.865 0.933,3.034 2.803,3.494 l 2.335,0.575 c 1.866,0.461 2.802,-0.243 2.802,-2.109 z m -25.601,5.395 c 0,0.906 -0.235,1.501 -0.701,1.784 -0.467,0.28 -1.085,0.328 -1.845,0.139 l -1.023,-0.251 c -0.819,-0.202 -1.448,-0.58 -1.89,-1.129 -0.435,-0.544 -0.656,-1.229 -0.656,-2.051 v -4.541 c 0,-0.849 0.221,-1.432 0.656,-1.748 0.442,-0.315 1.071,-0.372 1.89,-0.17 l 1.023,0.251 c 0.76,0.188 1.378,0.548 1.845,1.071 0.466,0.525 0.701,1.228 0.701,2.106 z m 7.511,-5.445 c 0,-2.321 -0.566,-4.203 -1.696,-5.641 -1.134,-1.441 -2.903,-2.457 -5.307,-3.048 l -0.978,-0.242 c -0.736,-0.18 -1.257,-0.498 -1.568,-0.939 -0.311,-0.448 -0.471,-0.995 -0.471,-1.649 l 0.045,-1.641 c 0.028,-0.898 -0.193,-1.617 -0.656,-2.156 -0.47,-0.539 -1.126,-0.916 -1.976,-1.126 l -2.674,-0.662 c -1.759,-0.434 -2.633,0.228 -2.633,1.983 v 17.364 c 0,4.699 2.322,7.623 6.962,8.768 l 3.994,0.986 c 2.404,0.593 4.163,0.44 5.282,-0.459 1.12,-0.898 1.676,-2.523 1.676,-4.873 z m -24.24,-6.535 c 0,0.791 -0.204,1.416 -0.612,1.868 -0.411,0.448 -1.267,0.514 -2.57,0.189 -0.653,-0.158 -1.188,-0.369 -1.613,-0.626 -0.425,-0.261 -0.757,-0.551 -0.999,-0.865 -0.241,-0.312 -0.404,-0.649 -0.49,-1.01 -0.083,-0.364 -0.125,-0.739 -0.125,-1.136 0,-0.398 0.042,-0.754 0.125,-1.072 0.086,-0.32 0.249,-0.578 0.49,-0.772 0.242,-0.194 0.574,-0.312 0.999,-0.349 0.425,-0.039 0.96,0.027 1.613,0.186 0.65,0.161 1.182,0.362 1.593,0.604 0.411,0.244 0.736,0.523 0.977,0.839 0.236,0.31 0.405,0.647 0.488,1.011 0.086,0.36 0.124,0.735 0.124,1.133 m 3.825,-3.006 c 0,-0.819 -0.221,-1.504 -0.66,-2.053 -0.439,-0.544 -1.068,-0.919 -1.89,-1.121 l -8.32,-2.053 c -2.404,-0.592 -4.17,-0.53 -5.285,0.204 -1.12,0.728 -1.68,2.251 -1.68,4.572 v 0.169 c 0,1.217 0.139,2.27 0.405,3.159 0.269,0.885 0.666,1.641 1.192,2.267 0.521,0.625 1.171,1.131 1.948,1.521 0.781,0.391 1.693,0.715 2.74,0.973 l 1.741,0.43 c 0.677,0.166 1.209,0.44 1.593,0.816 0.38,0.379 0.57,0.848 0.57,1.415 0,0.68 -0.19,1.124 -0.57,1.325 -0.384,0.204 -0.916,0.221 -1.593,0.055 l -5.604,-1.386 c -1.133,-0.277 -1.699,0.163 -1.699,1.324 v 0.677 c 0,0.512 0.131,0.95 0.383,1.326 0.256,0.376 0.694,0.638 1.316,0.791 l 8.534,2.109 c 4.585,1.128 6.879,-0.641 6.879,-5.312 z m -15.755,16.915 c 0,-1.16 -0.566,-1.878 -1.7,-2.158 l -0.552,-0.136 c -0.819,-0.202 -1.448,-0.57 -1.89,-1.104 -0.436,-0.535 -0.657,-1.224 -0.657,-2.074 v -16.427 c 0,-1.756 -0.874,-2.849 -2.633,-3.283 l -2.587,-0.636 c -1.783,-0.443 -2.674,0.215 -2.674,1.97 v 16.429 c 0,0.85 -0.221,1.433 -0.66,1.748 -0.436,0.316 -1.068,0.376 -1.887,0.174 l -0.594,-0.148 c -1.133,-0.278 -1.7,0.159 -1.7,1.32 v 0.722 c 0,0.511 0.135,0.96 0.405,1.351 0.266,0.391 0.697,0.662 1.295,0.808 l 14.134,3.487 c 0.626,0.157 1.061,0.101 1.317,-0.159 0.256,-0.263 0.383,-0.651 0.383,-1.161 z"
             style="fill:#130c0e;fill-opacity:1;fill-rule:nonzero;stroke:none"
             id="path24" />
        </g>
        <g
           id="g26"
           transform="translate(481.8827,302.0208)">
          <path
             d="m 0,0 c 4.894,12.547 7.441,25.99 7.441,39.551 0,59.928 -48.754,108.683 -108.682,108.683 -34.925,0 -67.126,-16.686 -87.342,-43.975 -14.012,7.001 -29.565,10.725 -45.455,10.725 -20.991,0 -41.147,-6.349 -58.288,-18.36 -8.888,-6.229 -16.636,-13.735 -23.038,-22.255 -17.194,10.789 -37.268,16.702 -57.836,16.702 -59.928,0 -108.683,-48.755 -108.683,-108.683 0,-24.092 7.724,-46.916 22.336,-66.006 10.206,-13.335 23.493,-24.171 38.472,-31.558 -0.205,-2.623 -0.307,-5.258 -0.307,-7.896 0,-55.669 45.29,-100.959 100.958,-100.959 20.885,0 40.931,6.327 57.972,18.298 10.137,7.121 18.774,15.914 25.603,25.983 11.397,-4.307 23.536,-6.533 35.935,-6.533 31.208,0 60.532,14.581 79.601,38.459 12.554,-5.598 26.177,-8.498 40.267,-8.498 54.679,0 99.163,44.483 99.163,99.161 C 18.117,-36.458 11.765,-16.626 0,0"
             style="fill:#00b3f0;fill-opacity:1;fill-rule:nonzero;stroke:none"
             id="path28" />
        </g>
        <g
           id="g30"
           transform="translate(468.8915,300.4095)">
          <path
             d="m 0,0 c 5.98,12.826 9.115,26.918 9.115,41.162 0,53.688 -43.678,97.366 -97.365,97.366 -34.693,0 -66.385,-18.377 -83.768,-47.706 -14.529,9.386 -31.55,14.456 -49.028,14.456 -18.656,0 -36.566,-5.64 -51.794,-16.312 -10.96,-7.68 -19.968,-17.542 -26.537,-28.964 -17.16,13.703 -38.677,21.363 -60.831,21.363 -53.688,0 -97.366,-43.678 -97.366,-97.365 0,-40.116 24.959,-76.144 61.727,-90.631 -0.815,-4.887 -1.227,-9.848 -1.227,-14.83 0,-49.429 40.213,-89.642 89.641,-89.642 18.544,0 36.341,5.617 51.467,16.242 11.591,8.142 20.975,18.746 27.566,31.058 12.499,-6.275 26.296,-9.551 40.477,-9.551 30.846,0 59.619,16.027 76.091,41.624 13.257,-7.661 28.192,-11.664 43.777,-11.664 48.438,0 87.845,39.408 87.845,87.845 C 19.79,-35.123 12.811,-15.654 0,0"
             style="fill:#ffffff;fill-opacity:1;fill-rule:nonzero;stroke:none"
             id="path32" />
        </g>
        <g
           id="g34"
           transform="translate(457.0273,298.9031)">
          <path
             d="m 0,0 c 7.066,12.623 11.101,27.174 11.101,42.668 0,48.318 -39.169,87.486 -87.487,87.486 -35.965,0 -66.855,-21.705 -80.301,-52.728 -14.093,12.138 -32.437,19.478 -52.495,19.478 -34.319,0 -63.615,-21.483 -75.188,-51.733 -15.969,17.115 -38.72,27.82 -63.974,27.82 -48.317,0 -87.486,-39.168 -87.486,-87.485 0,-39.96 26.792,-73.661 63.392,-84.125 -1.882,-6.792 -2.892,-13.946 -2.892,-21.337 0,-44.05 35.711,-79.76 79.762,-79.76 34.078,0 63.159,21.374 74.582,51.446 12.832,-8.649 28.29,-13.699 44.927,-13.699 32.058,0 59.734,18.744 72.675,45.869 13.102,-9.979 29.454,-15.907 47.195,-15.907 43.058,0 77.963,34.905 77.963,77.964 C 21.774,-33.06 13.483,-14.015 0,0"
             style="fill:#130c0e;fill-opacity:1;fill-rule:nonzero;stroke:none"
             id="path36" />
        </g>
        <g
           id="g38"
           transform="translate(457.0214,215.6614)">
          <path
             d="m 0,0 v 6.729 l -1.691,-7.12 -1.833,-0.422 -1.652,6.347 v -6.728 l -1.731,-0.401 v 8.056 l 2.705,0.624 1.632,-6.013 0.02,0.005 1.591,6.757 2.671,0.616 V 0.396 Z M -12.504,-2.887 V 3.74 L -15.29,3.097 v 1.424 l 7.369,1.701 V 4.798 l -2.685,-0.62 v -6.626 z"
             style="fill:#f15a22;fill-opacity:1;fill-rule:nonzero;stroke:none"
             id="path40" />
        </g>
        <g
           id="g42"
           transform="translate(419.8544,301.2879)">
          <path
             d="m 0,0 c 0,0 -0.125,-32.699 -0.532,-38.451 -0.636,-8.984 -3.05,-9.225 -5.104,-7.877 -4.099,2.689 -11.759,18.002 -18.616,31.32 l -10.005,-2.31 v -82.747 l 12.234,2.824 0.041,20.996 c 0.021,10.778 2.963,11.479 7.24,7.564 3.245,-2.971 7.66,-9.522 14.617,-20.661 l 16.189,3.737 V 3.708 Z"
             style="fill:#f15a22;fill-opacity:1;fill-rule:nonzero;stroke:none"
             id="path44" />
        </g>
        <g
           id="g46"
           transform="translate(358.1034,218.3977)">
          <path
             d="M 0,0 C -0.371,-0.002 -3.119,0.092 -3.413,2.188 -3.583,3.402 -3,4.543 -1.534,5.439 0.759,6.842 8.696,9.124 16.314,10.91 v 10.535 c 0,0 -13.793,-3.32 -18.036,-2.689 -1.289,0.192 -2.147,0.873 -2.317,2.064 -0.175,1.217 0.438,2.313 1.879,3.251 3.879,2.527 21.293,6.283 21.293,6.283 v 24.308 l -35.855,-8.278 v -64.797 l 36.607,8.451 V 3.501 C 10.114,1.282 3.511,0.02 0,0"
             style="fill:#f15a22;fill-opacity:1;fill-rule:nonzero;stroke:none"
             id="path48" />
        </g>
        <g
           id="g50"
           transform="translate(318.4657,266.7425)">
          <path
             d="m 0,0 c 0,0 -3.884,-25.59 -7.333,-37.417 -0.985,-3.378 -3.367,-8.549 -6.607,-1.156 -1.161,2.648 -4.605,15.019 -7.133,30.967 l -11.186,-2.582 c 0.979,-10.966 6.349,-40.584 13.503,-57.839 l 21.694,5.008 c 7.985,21.132 12.776,43.453 14.405,67.023 z"
             style="fill:#f15a22;fill-opacity:1;fill-rule:nonzero;stroke:none"
             id="path52" />
        </g>
        <g
           id="g54"
           transform="translate(270.3983,194.8802)">
          <path
             d="m 0,0 c -1.728,-0.376 -5.658,-1.372 -7.667,-1.748 -1.922,-0.376 -3.046,0.708 -2.808,3.452 0.216,2.567 1.343,8.009 1.771,9.847 0.946,4.063 2.804,5.758 4.989,6.062 2.802,0.391 5.249,-2.057 6.588,-8.695 C 3.003,8.275 3.329,6.944 3.543,5.134 3.802,2.936 2.722,0.687 0,0 m 9.562,36.684 c -5.429,10.002 -11.743,7.929 -14.978,6.859 -4.238,-1.403 -8,-3.58 -11.938,-19.194 -4.137,-16.413 -8.642,-50.892 -8.642,-50.892 l 11.359,2.622 1.167,6.537 c 0.564,3.157 2.574,5.163 5.636,6.065 0,0 8.802,2.284 11.806,2.626 1.269,0.143 2.76,-0.858 3.194,-2.845 l 1.534,-7.034 15.469,3.571 c 0,0 -7.694,38.949 -14.607,51.685"
             style="fill:#f15a22;fill-opacity:1;fill-rule:nonzero;stroke:none"
             id="path56" />
        </g>
        <g
           id="g58"
           transform="translate(219.3202,181.8626)">
          <path
             d="M 0,0 C -0.371,-0.002 -3.119,0.092 -3.413,2.188 -3.583,3.402 -3,4.542 -1.534,5.439 0.759,6.842 8.696,9.123 16.314,10.91 v 10.534 c 0,0 -13.794,-3.319 -18.036,-2.688 -1.289,0.192 -2.147,0.873 -2.318,2.063 -0.174,1.217 0.439,2.314 1.879,3.251 3.88,2.528 21.294,6.284 21.294,6.284 v 26.2 l -35.855,-8.278 v -64.797 l 36.606,8.452 V 3.501 C 10.114,1.281 3.511,0.019 0,0"
             style="fill:#f15a22;fill-opacity:1;fill-rule:nonzero;stroke:none"
             id="path60" />
        </g>
        <g
           id="g62"
           transform="translate(174.6977,235.9221)">
          <path
             d="m 0,0 c 0.345,-12.911 0.206,-22.575 -1.565,-28.916 -1.077,-3.852 -3.445,-6.783 -6.608,-9.003 -3.221,-2.261 -6.451,-3.251 -9.613,-3.313 -3.857,-0.077 -6.644,1.424 -7.014,5.47 -0.564,6.158 -0.815,14.767 -0.627,25.552 l -13.997,-3.232 v -95.345 l 19.227,4.439 c -0.345,12.16 0.07,21.181 1.565,26.759 1.02,3.802 3.809,7.02 6.608,8.909 3.271,2.209 6.444,3.357 9.613,3.408 3.851,0.062 6.651,-1.723 7.015,-5.565 0.532,-5.627 0.782,-13.744 0.625,-24.092 l 14.311,3.304 V 4.511 Z"
             style="fill:#f15a22;fill-opacity:1;fill-rule:nonzero;stroke:none"
             id="path64" />
        </g>
        <g
           id="g66"
           transform="translate(418.4433,312.3582)">
          <path
             d="m 0,0 v 83.019 l -11.349,-2.62 C -17.368,60.523 -20.774,50.805 -23.742,42.612 -28.8,28.672 -34.046,34.147 -36.491,38.035 -39.334,42.591 -43.2,51.454 -49.909,67.693 l -16.573,-3.826 v -76.818 l 13.743,3.173 c -0.105,12.435 0.113,19.682 0.782,22.963 0.606,2.947 2.383,3.365 4.18,0.439 1.484,-2.404 3.825,-7.608 8.485,-18.309 l 9.217,2.128 c 5.079,13.648 7.816,20.528 9.761,23.893 1.567,2.738 4.555,4.661 5.455,-0.397 0.689,-3.825 0.627,-11.522 0.605,-24.23 z"
             style="fill:#faa61a;fill-opacity:1;fill-rule:nonzero;stroke:none"
             id="path68" />
        </g>
        <g
           id="g70"
           transform="translate(328.5419,357.2591)">
          <path
             d="m 0,0 v -23.921 c -0.793,-7.717 -14.451,-10.984 -15.419,-2.88 -0.328,3.609 -0.501,8.594 -0.501,19.236 l -11.476,-2.649 V -81.33 l 15.735,3.632 v 17.023 c 0.957,12.311 15.224,12.994 16.537,4.259 0.441,-2.753 0.4,-7.104 0.4,-16.085 l 11.476,2.649 V 3.867 Z"
             style="fill:#faa61a;fill-opacity:1;fill-rule:nonzero;stroke:none"
             id="path72" />
        </g>
        <g
           id="g74"
           transform="translate(250.2846,347.1311)">
          <path
             d="m 0,0 v -29.308 l 10.587,2.444 c 4.22,0.974 5.702,0.079 5.671,-8.398 v -37.664 l 12.544,2.896 v 34.854 c 0.087,14.962 1.843,18.059 9.284,19.777 l 6.644,1.534 v 24.192 z"
             style="fill:#faa61a;fill-opacity:1;fill-rule:nonzero;stroke:none"
             id="path76" />
        </g>
        <g
           id="g78"
           transform="translate(244.0898,334.6868)">
          <path
             d="m 0,0 -13.378,-3.088 c 0,0 -0.305,-13.483 -0.824,-23.531 -0.775,-14.253 -16.015,-18.687 -16.86,-4.187 -0.386,7.391 -0.509,21.909 -0.509,21.909 l -16.134,-3.726 v -6.856 c 0,-26.701 3.309,-36.119 19.197,-34.021 3.761,0.497 6.616,1.462 9.786,3.748 0.206,0.13 0.408,0.11 0.572,0 0.34,-0.245 0.704,-0.932 0.143,-2.675 -3.024,-9.389 -28.803,-11.838 -28.803,-11.838 l -0.007,-21.165 c 14.805,2.179 30.966,5.303 39.375,19.38 C -4.266,-60.813 0.001,-50.219 0,0"
             style="fill:#faa61a;fill-opacity:1;fill-rule:nonzero;stroke:none"
             id="path80" />
        </g>
        <g
           id="g82"
           transform="translate(173.0253,323.3513)">
          <path
             d="m 0,0 v -22.734 c -0.753,-7.334 -13.734,-10.439 -14.654,-2.737 -0.312,3.43 -0.476,8.168 -0.476,18.282 l -10.906,-2.518 v -67.587 l 14.953,3.452 v 16.178 c 0.91,11.7 14.469,12.35 15.716,4.048 0.42,-2.617 0.381,-6.752 0.381,-15.287 l 10.906,2.517 V 3.675 Z"
             style="fill:#faa61a;fill-opacity:1;fill-rule:nonzero;stroke:none"
             id="path84" />
        </g>
        <g
           id="g86"
           transform="translate(99.5639,273.3147)">
          <path
             d="m 0,0 c -6.848,-1.746 -10.887,1.922 -10.887,11.127 0,7.343 0.139,14.923 13.581,14.923 9.571,0 13.563,-4.846 13.572,-10.313 C 16.275,10.637 10.441,2.663 0,0 m 40.187,30.329 c 0,16.906 -12.458,37.356 -64.578,24.811 v -91.951 l 13.573,3.133 v 16.43 c 0,8.021 5.219,4.8 6.372,4.075 1.948,-1.224 6.017,-4.551 15.683,-15.413 l 23.058,5.324 -17.968,18.397 c 0,0 23.86,9.607 23.86,35.194"
             style="fill:#faa61a;fill-opacity:1;fill-rule:nonzero;stroke:none"
             id="path88" />
        </g>
      </g>
    </g>
  </g>
</svg>
