<?xml version="1.0" encoding="UTF-8" standalone="no"?>
<!-- Created with Inkscape (http://www.inkscape.org/) -->

<svg
   version="1.1"
   id="svg2"
   width="666.66669"
   height="575.90131"
   viewBox="0 0 666.66669 575.90131"
   sodipodi:docname="Rhythm Heaven Logo with Tagline (American).ai"
   xmlns:inkscape="http://www.inkscape.org/namespaces/inkscape"
   xmlns:sodipodi="http://sodipodi.sourceforge.net/DTD/sodipodi-0.dtd"
   xmlns="http://www.w3.org/2000/svg"
   xmlns:svg="http://www.w3.org/2000/svg">
  <defs
     id="defs6">
    <clipPath
       clipPathUnits="userSpaceOnUse"
       id="clipPath16">
      <path
         d="M 0,431.926 H 500 V 0 H 0 Z"
         id="path14" />
    </clipPath>
  </defs>
  <sodipodi:namedview
     id="namedview4"
     pagecolor="#ffffff"
     bordercolor="#000000"
     borderopacity="0.25"
     inkscape:showpageshadow="2"
     inkscape:pageopacity="0.0"
     inkscape:pagecheckerboard="0"
     inkscape:deskcolor="#d1d1d1" />
  <g
     id="g8"
     inkscape:groupmode="layer"
     inkscape:label="Rhythm Heaven Logo with Tagline (American)"
     transform="matrix(1.3333333,0,0,-1.3333333,0,575.90133)">
    <g
       id="g10">
      <g
         id="g12"
         clip-path="url(#clipPath16)">
        <g
           id="g18"
           transform="translate(154.7782,45.404)">
          <path
             d="M 0,0 C 0,-1.576 -0.769,-2.538 -2.268,-2.884 L -2.999,-3.037 C -4.113,-3.307 -4.959,-3.768 -5.536,-4.498 -6.112,-5.19 -6.42,-6.151 -6.42,-7.267 v -22.142 c 0,-2.346 -1.192,-3.807 -3.537,-4.383 l -3.498,-0.808 c -2.384,-0.538 -3.614,0.347 -3.614,2.73 v 22.143 c 0,1.154 -0.307,1.922 -0.884,2.384 -0.577,0.423 -1.422,0.538 -2.537,0.269 l -0.808,-0.193 c -1.537,-0.345 -2.268,0.27 -2.268,1.808 v 0.961 c 0,0.691 0.192,1.307 0.538,1.807 0.346,0.538 0.962,0.883 1.73,1.076 l 19.03,4.383 C -1.422,2.96 -0.846,2.883 -0.5,2.537 -0.154,2.191 0,1.652 0,0.961 Z"
             style="fill:#130c0e;fill-opacity:1;fill-rule:nonzero;stroke:none"
             id="path20" />
        </g>
        <g
           id="g22"
           transform="translate(170.2323,26.4509)">
          <path
             d="M 0,0 C 0,1.077 -0.269,1.923 -0.846,2.537 -1.384,3.152 -2.537,3.268 -4.306,2.845 -5.19,2.653 -5.92,2.384 -6.497,2.038 -7.074,1.691 -7.535,1.308 -7.842,0.885 -8.15,0.462 -8.38,0 -8.496,-0.461 c -0.115,-0.5 -0.154,-1 -0.154,-1.538 0,-0.538 0.039,-0.999 0.154,-1.461 0.116,-0.423 0.346,-0.769 0.654,-1.038 0.307,-0.269 0.768,-0.423 1.345,-0.499 0.577,-0.077 1.307,0 2.191,0.23 0.885,0.193 1.577,0.461 2.153,0.769 0.538,0.308 1,0.692 1.307,1.115 0.308,0.423 0.538,0.884 0.654,1.346 C -0.039,-1.038 0,-0.538 0,0 M 5.151,-4.151 C 5.151,-5.267 4.844,-6.189 4.267,-6.92 3.69,-7.65 2.845,-8.149 1.73,-8.381 l -11.226,-2.575 c -3.229,-0.731 -5.612,-0.615 -7.111,0.385 -1.5,0.999 -2.268,3.075 -2.268,6.189 v 0.231 c 0,1.652 0.191,3.037 0.538,4.228 0.346,1.192 0.884,2.192 1.614,3.037 0.692,0.846 1.577,1.499 2.614,1.999 1.038,0.5 2.269,0.923 3.691,1.269 l 2.345,0.538 c 0.923,0.192 1.615,0.577 2.153,1.076 0.5,0.5 0.769,1.115 0.769,1.884 0,0.923 -0.269,1.5 -0.769,1.808 -0.5,0.268 -1.23,0.306 -2.153,0.115 l -7.535,-1.731 c -1.538,-0.345 -2.307,0.27 -2.307,1.807 v 0.923 c 0,0.692 0.154,1.268 0.5,1.768 0.346,0.5 0.923,0.846 1.769,1.038 l 11.494,2.653 c 6.19,1.423 9.265,-0.999 9.265,-7.304 V -4.151 Z"
             style="fill:#130c0e;fill-opacity:1;fill-rule:nonzero;stroke:none"
             id="path24" />
        </g>
        <g
           id="g26"
           transform="translate(192.4911,42.2897)">
          <path
             d="M 0,0 C 0,1.23 -0.308,2.037 -0.961,2.422 -1.576,2.807 -2.422,2.883 -3.46,2.652 L -4.844,2.345 C -5.959,2.076 -6.805,1.614 -7.381,0.884 -7.958,0.153 -8.265,-0.769 -8.265,-1.884 v -6.112 c 0,-1.153 0.307,-1.922 0.884,-2.384 0.576,-0.423 1.422,-0.538 2.537,-0.268 l 1.384,0.307 c 1.038,0.231 1.845,0.692 2.499,1.422 C -0.346,-8.227 0,-7.266 0,-6.112 Z m 10.149,-7.496 c 0,-3.114 -0.769,-5.651 -2.268,-7.573 -1.538,-1.923 -3.922,-3.23 -7.151,-3.999 l -1.307,-0.307 c -0.999,-0.231 -1.691,-0.654 -2.114,-1.23 -0.423,-0.578 -0.615,-1.346 -0.615,-2.192 l 0.038,-2.229 c 0.039,-1.193 -0.269,-2.192 -0.884,-2.884 -0.615,-0.692 -1.499,-1.192 -2.653,-1.461 l -3.613,-0.846 c -2.384,-0.538 -3.537,0.347 -3.537,2.73 v 23.374 c 0,6.342 3.114,10.225 9.38,11.648 l 5.382,1.23 c 3.23,0.73 5.613,0.5 7.112,-0.73 1.499,-1.23 2.269,-3.422 2.269,-6.612 v -8.919 z"
             style="fill:#130c0e;fill-opacity:1;fill-rule:nonzero;stroke:none"
             id="path28" />
        </g>
        <g
           id="g30"
           transform="translate(225.5907,63.8561)">
          <path
             d="m 0,0 c 0,-0.846 -0.192,-1.537 -0.615,-2.152 -0.423,-0.577 -1.115,-1 -2.114,-1.231 l -0.923,-0.192 c -0.999,-0.231 -1.692,-0.154 -2.076,0.269 -0.384,0.385 -0.615,1.038 -0.615,1.845 v 0.962 c 0,0.884 0.231,1.614 0.692,2.19 0.461,0.578 1.115,0.962 1.999,1.193 l 0.923,0.192 C -1.845,3.268 -1.191,3.191 -0.692,2.845 -0.23,2.461 0.039,1.846 0.039,0.961 V 0 Z m 0,-29.217 c 0,-2.345 -1.191,-3.805 -3.537,-4.383 l -3.613,-0.845 c -2.384,-0.538 -3.537,0.346 -3.537,2.729 v 20.645 c 0,2.499 1.269,4.075 3.767,4.651 l 3.152,0.731 C -1.269,-5.112 0,-6.074 0,-8.611 Z"
             style="fill:#130c0e;fill-opacity:1;fill-rule:nonzero;stroke:none"
             id="path32" />
        </g>
        <g
           id="g34"
           transform="translate(252.6161,40.1755)">
          <path
             d="M 0,0 C 0,-0.885 -0.23,-1.615 -0.73,-2.191 -1.229,-2.768 -1.922,-3.19 -2.806,-3.383 l -0.462,-0.115 c -0.845,-0.192 -1.499,-0.154 -1.999,0.153 -0.499,0.308 -0.73,0.961 -0.73,1.961 v 16.646 c 0,1.23 -0.307,2.038 -0.961,2.422 -0.615,0.384 -1.461,0.462 -2.499,0.23 l -0.615,-0.153 c -1.115,-0.27 -1.96,-0.731 -2.499,-1.461 -0.576,-0.731 -0.846,-1.654 -0.846,-2.73 V -2.269 c 0,-2.344 -1.191,-3.805 -3.536,-4.381 l -3.614,-0.846 c -2.383,-0.539 -3.537,0.346 -3.537,2.728 v 20.875 c 0,2.346 1.192,3.806 3.537,4.383 l 11.226,2.575 c 3.229,0.731 5.612,0.539 7.112,-0.653 1.499,-1.191 2.268,-3.345 2.268,-6.497 L 0.039,0 Z"
             style="fill:#130c0e;fill-opacity:1;fill-rule:nonzero;stroke:none"
             id="path36" />
        </g>
        <g
           id="g38"
           transform="translate(279.3349,53.2848)">
          <path
             d="m 0,0 c 0,-3.114 -0.77,-5.651 -2.269,-7.535 -1.499,-1.884 -3.882,-3.23 -7.112,-3.96 l -5.382,-1.23 c -6.265,-1.461 -9.38,0.961 -9.38,7.151 v 21.835 c 0,2.384 1.192,3.883 3.538,4.422 l 3.613,0.845 c 1.153,0.269 2.037,0.154 2.652,-0.346 0.615,-0.499 0.923,-1.499 0.846,-2.96 -0.076,-1.807 0.846,-2.499 2.729,-2.037 l 7.42,1.729 c 0.999,0.231 1.692,0.115 2.115,-0.308 0.422,-0.422 0.615,-1.076 0.615,-1.921 0,-1.922 -0.923,-3.076 -2.73,-3.498 L -13.455,9.841 C -15.146,9.457 -16.339,8.765 -17.069,7.727 -17.8,6.688 -18.146,5.459 -18.146,3.998 v -8.804 c 0,-1.115 0.27,-1.883 0.846,-2.344 0.577,-0.462 1.423,-0.578 2.499,-0.308 l 0.615,0.153 c 1.039,0.231 1.845,0.693 2.46,1.384 0.616,0.692 0.923,1.615 0.923,2.845 v 6.651 c 0,0.999 0.231,1.73 0.731,2.268 0.5,0.5 1.153,0.885 1.999,1.077 l 5.189,1.191 c 0.885,0.193 1.576,0.116 2.076,-0.192 0.5,-0.346 0.731,-0.961 0.731,-1.845 l 0,-6.074 z"
             style="fill:#130c0e;fill-opacity:1;fill-rule:nonzero;stroke:none"
             id="path40" />
        </g>
        <g
           id="g42"
           transform="translate(294.9814,67.4313)">
          <path
             d="M 0,0 C 0,1.23 -0.308,2.038 -0.961,2.422 -1.576,2.807 -2.422,2.884 -3.46,2.653 L -4.96,2.307 C -6.036,2.076 -6.843,1.576 -7.458,0.846 -8.035,0.115 -8.343,-0.807 -8.343,-1.922 v -6.112 c 0,-2.269 1.115,-3.192 3.383,-2.653 l 1.5,0.346 c 1.038,0.231 1.845,0.692 2.499,1.384 C -0.347,-8.265 0,-7.343 0,-6.112 Z m 9.841,-7.688 c 0,-3.153 -0.731,-5.69 -2.192,-7.574 -1.46,-1.884 -3.843,-3.19 -7.111,-3.96 l -5.421,-1.268 c -6.227,-1.422 -9.303,0.961 -9.303,7.227 v 9.15 c 0,6.304 3.114,10.149 9.303,11.571 l 5.421,1.269 c 3.23,0.73 5.612,0.5 7.073,-0.692 1.499,-1.23 2.23,-3.422 2.23,-6.574 z"
             style="fill:#130c0e;fill-opacity:1;fill-rule:nonzero;stroke:none"
             id="path44" />
        </g>
        <g
           id="g46"
           transform="translate(342.036,68.8923)">
          <path
             d="m 0,0 c 0,-3.113 -0.77,-5.651 -2.269,-7.534 -1.499,-1.884 -3.882,-3.23 -7.112,-3.96 l -5.382,-1.231 c -6.266,-1.461 -9.38,0.961 -9.38,7.151 v 21.836 c 0,2.384 1.192,3.883 3.537,4.421 l 3.614,0.845 c 1.153,0.27 2.037,0.155 2.652,-0.345 0.615,-0.5 0.923,-1.499 0.846,-2.96 -0.077,-1.807 0.846,-2.499 2.729,-2.038 l 7.42,1.73 c 0.999,0.231 1.692,0.115 2.115,-0.308 0.422,-0.422 0.615,-1.076 0.615,-1.921 0,-1.923 -0.923,-3.077 -2.73,-3.499 L -13.455,9.842 C -15.147,9.457 -16.339,8.766 -17.069,7.728 -17.8,6.689 -18.146,5.459 -18.146,3.998 v -8.803 c 0,-1.115 0.269,-1.883 0.846,-2.345 0.576,-0.461 1.422,-0.577 2.499,-0.308 l 0.615,0.154 c 1.038,0.231 1.845,0.692 2.46,1.384 0.616,0.692 0.923,1.614 0.923,2.845 v 6.65 c 0,1 0.231,1.731 0.731,2.269 0.5,0.5 1.153,0.884 1.999,1.076 l 5.189,1.191 c 0.885,0.193 1.576,0.117 2.076,-0.191 0.5,-0.347 0.731,-0.961 0.731,-1.846 l 0,-6.074 z"
             style="fill:#130c0e;fill-opacity:1;fill-rule:nonzero;stroke:none"
             id="path48" />
        </g>
        <g
           id="g50"
           transform="translate(367.9081,69.5075)">
          <path
             d="m 0,0 c 0,-2.345 -1.191,-3.806 -3.537,-4.383 l -3.536,-0.806 c -2.384,-0.539 -3.615,0.345 -3.615,2.729 l 0.04,16.03 c 0,1.116 -0.308,1.884 -0.885,2.346 -0.576,0.461 -1.422,0.538 -2.537,0.308 l -0.616,-0.155 c -1.038,-0.23 -1.844,-0.692 -2.499,-1.383 -0.615,-0.693 -0.961,-1.615 -0.961,-2.845 v -16.8 c 0,-1 -0.23,-1.769 -0.73,-2.269 -0.5,-0.538 -1.153,-0.883 -1.999,-1.076 l -0.461,-0.115 c -0.885,-0.192 -1.576,-0.115 -2.076,0.231 -0.5,0.345 -0.731,1 -0.731,1.845 v 28.409 c 0,2.384 1.192,3.883 3.538,4.421 l 3.613,0.846 c 2.345,0.538 3.537,-0.346 3.498,-2.69 v -0.5 c -0.038,-0.884 0.154,-1.539 0.615,-1.922 0.423,-0.385 1.153,-0.462 2.153,-0.232 l 1.384,0.308 c 3.23,0.73 5.613,0.538 7.113,-0.653 1.499,-1.192 2.267,-3.345 2.267,-6.498 L 0.038,0 Z"
             style="fill:#130c0e;fill-opacity:1;fill-rule:nonzero;stroke:none"
             id="path52" />
        </g>
        <g
           id="g54"
           transform="translate(384.7851,89.2292)">
          <path
             d="M 0,0 C 0,1.076 -0.27,1.922 -0.846,2.537 -1.385,3.152 -2.538,3.268 -4.306,2.845 -5.19,2.652 -5.921,2.384 -6.497,2.037 -7.074,1.691 -7.497,1.307 -7.805,0.923 -8.112,0.5 -8.304,0.077 -8.42,-0.423 c -0.115,-0.5 -0.153,-1 -0.153,-1.538 0,-0.538 0.038,-0.999 0.153,-1.461 0.116,-0.423 0.308,-0.768 0.615,-1.038 0.308,-0.269 0.731,-0.423 1.308,-0.499 0.576,-0.077 1.307,0 2.191,0.23 0.884,0.193 1.577,0.461 2.153,0.769 0.538,0.308 1,0.692 1.307,1.115 0.307,0.423 0.538,0.884 0.654,1.346 C -0.039,-1.038 0,-0.538 0,0 M 9.995,1.961 C 9.995,0.269 9.803,-1.153 9.457,-2.307 9.11,-3.46 8.572,-4.46 7.842,-5.267 7.15,-6.074 6.266,-6.728 5.228,-7.228 4.189,-7.728 2.96,-8.15 1.537,-8.496 l -2.345,-0.538 c -1.999,-0.462 -2.96,-1.461 -2.96,-2.96 0,-0.923 0.269,-1.5 0.769,-1.769 0.5,-0.269 1.23,-0.269 2.191,-0.077 l 7.536,1.731 c 0.73,0.153 1.268,0.076 1.691,-0.232 0.384,-0.346 0.615,-0.846 0.615,-1.576 v -0.922 c 0,-0.692 -0.192,-1.268 -0.539,-1.768 -0.346,-0.5 -0.961,-0.846 -1.729,-1.039 l -11.495,-2.652 c -6.189,-1.423 -9.265,0.999 -9.265,7.227 v 9.726 c 0,3.153 0.73,5.613 2.23,7.305 1.499,1.729 3.844,2.96 7.074,3.69 L 0.614,8.88 C 3.844,9.61 6.228,9.495 7.727,8.457 9.226,7.42 9.995,5.344 9.995,2.191 Z"
             style="fill:#130c0e;fill-opacity:1;fill-rule:nonzero;stroke:none"
             id="path56" />
        </g>
        <g
           id="g58"
           transform="translate(319.4306,8.5749)">
          <path
             d="m 0,0 c 0,-2.345 -1.191,-3.806 -3.536,-4.383 l -3.537,-0.806 c -2.384,-0.539 -3.614,0.345 -3.614,2.729 v 4.959 c 0,1.23 -0.269,1.999 -0.807,2.307 -0.538,0.307 -1.346,0.345 -2.384,0.115 -0.999,-0.231 -1.691,-0.115 -2.075,0.308 -0.385,0.422 -0.577,1.038 -0.577,1.844 v 0.5 c 0,0.885 0.23,1.615 0.73,2.23 0.461,0.615 1.154,1 2.037,1.23 l 4.844,1.115 c 1.115,0.269 1.884,0.654 2.307,1.154 0.423,0.538 0.654,1.422 0.654,2.729 v 0.384 c 0,1.231 -0.308,1.923 -0.961,2.153 -0.654,0.231 -1.461,0.193 -2.499,-0.038 L -14.8,17.3 c -1.115,-0.27 -1.961,-0.731 -2.499,-1.461 -0.577,-0.731 -0.846,-1.653 -0.846,-2.73 V -4.959 c 0,-0.885 -0.231,-1.614 -0.73,-2.191 -0.5,-0.577 -1.192,-0.999 -2.076,-1.192 l -0.461,-0.115 c -0.847,-0.192 -1.5,-0.154 -2,0.153 -0.499,0.308 -0.73,0.961 -0.73,1.961 V 16.3 c 0,6.266 3.114,10.111 9.38,11.533 l 5.382,1.23 c 3.23,0.731 5.612,0.539 7.112,-0.653 C -0.769,27.218 0,25.026 0,21.874 V 16.569 C 0,15.146 -0.308,13.878 -0.961,12.725 -1.576,11.571 -2.46,10.803 -3.575,10.38 -2.46,10.533 -1.614,10.11 -0.961,9.188 -0.346,8.266 0,7.112 0,5.767 Z"
             style="fill:#130c0e;fill-opacity:1;fill-rule:nonzero;stroke:none"
             id="path60" />
        </g>
        <g
           id="g62"
           transform="translate(345.995,15.1491)">
          <path
             d="M 0,0 C 0,-2.346 -1.191,-3.807 -3.536,-4.383 L -7.073,-5.19 c -2.384,-0.539 -3.614,0.346 -3.614,2.729 l 0.039,16.031 c 0,1.115 -0.308,1.884 -0.885,2.345 -0.576,0.461 -1.422,0.538 -2.537,0.308 l -0.615,-0.154 c -1.038,-0.231 -1.845,-0.692 -2.499,-1.384 -0.615,-0.692 -0.961,-1.615 -0.961,-2.845 v -16.8 c 0,-0.999 -0.231,-1.768 -0.73,-2.307 -0.5,-0.538 -1.153,-0.883 -1.999,-1.076 l -0.462,-0.115 c -0.884,-0.192 -1.576,-0.115 -2.076,0.23 -0.499,0.347 -0.731,1 -0.731,1.846 v 28.409 c 0,2.384 1.193,3.883 3.538,4.421 l 3.614,0.846 c 2.345,0.539 3.536,-0.346 3.498,-2.69 v -0.5 c -0.039,-0.884 0.153,-1.539 0.615,-1.922 0.423,-0.385 1.153,-0.462 2.152,-0.231 l 1.384,0.308 c 3.23,0.73 5.613,0.538 7.113,-0.655 1.499,-1.191 2.268,-3.343 2.268,-6.497 L 0.039,0 Z"
             style="fill:#130c0e;fill-opacity:1;fill-rule:nonzero;stroke:none"
             id="path64" />
        </g>
        <g
           id="g66"
           transform="translate(372.9052,27.2966)">
          <path
             d="m 0,0 c 0,-1.96 -0.269,-3.613 -0.846,-5.074 -0.538,-1.231 -1.191,-2.23 -2.037,-3.037 -0.807,-0.808 -1.768,-1.499 -2.883,-2.153 -0.422,-0.231 -0.73,-0.654 -0.884,-1.23 -0.154,-0.577 -0.269,-1.192 -0.269,-1.846 v -2.498 c 0,-2.384 -1.192,-3.883 -3.537,-4.422 l -3.613,-0.845 c -2.346,-0.539 -3.537,0.384 -3.537,2.768 v 2.499 c 0,1.576 -0.5,2.46 -1.499,2.691 -0.962,0.154 -1.769,0.46 -2.461,0.884 -0.692,0.423 -1.231,1.076 -1.654,1.884 -0.614,1.191 -0.922,2.768 -0.922,4.767 v 15.915 c 0,0.885 0.231,1.615 0.731,2.191 0.499,0.577 1.191,0.961 2.075,1.153 l 0.462,0.116 c 0.846,0.192 1.499,0.154 1.999,-0.154 0.5,-0.269 0.73,-0.922 0.73,-1.921 V -5.189 c 0,-1.231 0.308,-1.999 0.961,-2.384 0.616,-0.384 1.461,-0.423 2.499,-0.193 l 0.616,0.155 c 1.114,0.268 1.96,0.73 2.537,1.461 0.576,0.73 0.884,1.614 0.884,2.729 v 15.954 c 0,2.383 1.191,3.883 3.537,4.421 l 3.536,0.807 c 2.346,0.539 3.537,-0.384 3.537,-2.768 L -0.038,0 Z"
             style="fill:#130c0e;fill-opacity:1;fill-rule:nonzero;stroke:none"
             id="path68" />
        </g>
        <g
           id="g70"
           transform="translate(399.2782,33.8317)">
          <path
             d="m 0,0 c 0,-3.113 -0.77,-5.65 -2.269,-7.534 -1.499,-1.884 -3.882,-3.23 -7.112,-3.96 l -5.382,-1.231 c -6.266,-1.461 -9.38,0.923 -9.38,7.151 v 21.836 c 0,2.384 1.192,3.883 3.537,4.421 l 3.614,0.845 c 1.153,0.27 2.037,0.155 2.652,-0.345 0.615,-0.5 0.923,-1.499 0.846,-2.96 -0.077,-1.807 0.846,-2.499 2.729,-2.037 l 7.42,1.729 c 0.999,0.231 1.692,0.115 2.115,-0.308 0.422,-0.422 0.615,-1.076 0.615,-1.921 0,-1.922 -0.923,-3.076 -2.73,-3.498 L -13.456,9.842 C -15.147,9.458 -16.339,8.766 -17.069,7.728 -17.8,6.689 -18.146,5.459 -18.146,3.999 v -8.804 c 0,-1.115 0.269,-1.883 0.846,-2.345 0.576,-0.461 1.422,-0.577 2.499,-0.308 l 0.615,0.154 c 1.038,0.231 1.845,0.693 2.46,1.384 0.616,0.692 0.923,1.614 0.923,2.845 v 6.651 c 0,0.999 0.231,1.73 0.731,2.268 0.499,0.5 1.153,0.885 1.999,1.076 l 5.189,1.192 c 0.885,0.193 1.576,0.116 2.076,-0.192 0.5,-0.346 0.731,-0.961 0.731,-1.846 l 0,-6.074 z"
             style="fill:#130c0e;fill-opacity:1;fill-rule:nonzero;stroke:none"
             id="path72" />
        </g>
        <g
           id="g74"
           transform="translate(425.3036,34.3317)">
          <path
             d="m 0,0 c 0,-2.345 -1.191,-3.806 -3.536,-4.382 l -3.537,-0.807 c -2.384,-0.539 -3.614,0.345 -3.614,2.729 l 0.039,16.03 c 0,1.116 -0.308,1.884 -0.884,2.346 -0.577,0.461 -1.423,0.538 -2.538,0.308 l -0.615,-0.155 c -1.038,-0.23 -1.845,-0.691 -2.499,-1.383 -0.615,-0.693 -0.961,-1.615 -0.961,-2.845 v -16.8 c 0,-0.999 -0.231,-1.769 -0.73,-2.307 -0.5,-0.538 -1.153,-0.883 -1.999,-1.076 l -0.462,-0.115 c -0.884,-0.192 -1.576,-0.115 -2.076,0.23 -0.499,0.346 -0.73,0.999 -0.73,1.845 v 28.41 c 0,2.384 1.192,3.883 3.537,4.421 l 3.614,0.846 c 2.345,0.538 3.536,-0.346 3.498,-2.691 v -0.5 c -0.038,-0.884 0.153,-1.538 0.615,-1.922 0.423,-0.384 1.153,-0.461 2.152,-0.231 l 1.384,0.308 c 3.23,0.73 5.613,0.538 7.113,-0.654 1.499,-1.191 2.268,-3.344 2.268,-6.497 L 0.039,0 Z"
             style="fill:#130c0e;fill-opacity:1;fill-rule:nonzero;stroke:none"
             id="path76" />
        </g>
        <g
           id="g78"
           transform="translate(465.3232,43.405)">
          <path
             d="m 0,0 c 0,-0.885 -0.23,-1.615 -0.73,-2.191 -0.461,-0.578 -1.154,-1 -2.038,-1.193 l -0.5,-0.115 c -0.845,-0.191 -1.499,-0.153 -1.999,0.154 -0.5,0.308 -0.73,0.961 -0.73,1.96 V 10.11 c 0,1.231 -0.308,2.037 -0.923,2.422 -0.614,0.385 -1.461,0.461 -2.498,0.231 l -0.577,-0.116 c -1.115,-0.269 -1.961,-0.73 -2.537,-1.46 -0.577,-0.731 -0.884,-1.654 -0.884,-2.768 V -3.076 c 0,-0.884 -0.231,-1.614 -0.73,-2.191 -0.5,-0.577 -1.193,-1 -2.077,-1.192 l -0.462,-0.115 c -0.845,-0.193 -1.499,-0.154 -1.999,0.154 -0.499,0.307 -0.73,0.961 -0.73,1.96 v 16.531 c 0,1.23 -0.308,2.037 -0.961,2.422 -0.615,0.384 -1.461,0.461 -2.498,0.231 l -0.615,-0.155 c -1.116,-0.268 -1.961,-0.73 -2.499,-1.461 -0.577,-0.73 -0.846,-1.652 -0.846,-2.729 V -5.344 c 0,-2.345 -1.191,-3.805 -3.537,-4.383 l -3.613,-0.845 c -2.346,-0.538 -3.538,0.345 -3.538,2.729 v 20.798 c 0,2.384 1.192,3.883 3.538,4.421 l 24.718,5.689 c 3.23,0.731 5.614,0.5 7.074,-0.691 1.5,-1.23 2.23,-3.384 2.23,-6.536 L 0.039,0 Z"
             style="fill:#130c0e;fill-opacity:1;fill-rule:nonzero;stroke:none"
             id="path80" />
        </g>
        <g
           id="g82"
           transform="translate(475.6649,59.5124)">
          <path
             d="m 0,0 c 0,-0.884 -0.23,-1.614 -0.73,-2.191 -0.5,-0.577 -1.193,-0.999 -2.077,-1.192 l -0.461,-0.115 c -0.845,-0.192 -1.5,-0.154 -1.999,0.153 -0.5,0.308 -0.73,0.961 -0.73,1.961 v 15.685 c 0,0.885 0.23,1.614 0.73,2.191 0.499,0.576 1.192,0.999 2.076,1.192 l 0.462,0.115 c 0.845,0.192 1.499,0.154 1.999,-0.153 C -0.23,17.338 0,16.685 0,15.685 Z m 2.229,-12.302 c 0,-2.344 -1.191,-3.805 -3.537,-4.383 l -3.536,-0.807 c -2.345,-0.538 -3.537,0.346 -3.537,2.729 v 2.922 c 0,2.499 1.231,4.075 3.729,4.613 l 3.191,0.731 c 2.46,0.577 3.729,-0.385 3.729,-2.922 v -2.883 z"
             style="fill:#130c0e;fill-opacity:1;fill-rule:nonzero;stroke:none"
             id="path84" />
        </g>
        <g
           id="g86"
           transform="translate(481.8827,283.692)">
          <path
             d="m 0,0 c 4.894,12.547 7.441,25.99 7.441,39.551 0,59.928 -48.754,108.683 -108.682,108.683 -34.925,0 -67.126,-16.686 -87.342,-43.975 -14.012,7.001 -29.565,10.725 -45.455,10.725 -20.991,0 -41.147,-6.349 -58.288,-18.36 -8.888,-6.229 -16.636,-13.735 -23.038,-22.255 -17.194,10.789 -37.268,16.702 -57.836,16.702 -59.928,0 -108.683,-48.755 -108.683,-108.683 0,-24.092 7.724,-46.916 22.336,-66.007 10.206,-13.334 23.493,-24.17 38.472,-31.557 -0.205,-2.623 -0.307,-5.258 -0.307,-7.896 0,-55.669 45.29,-100.959 100.958,-100.959 20.885,0 40.931,6.327 57.972,18.298 10.137,7.121 18.774,15.914 25.603,25.983 11.397,-4.307 23.536,-6.533 35.935,-6.533 31.208,0 60.532,14.581 79.601,38.459 12.554,-5.598 26.177,-8.498 40.267,-8.498 54.679,0 99.163,44.483 99.163,99.161 C 18.117,-36.458 11.765,-16.626 0,0"
             style="fill:#00b3f0;fill-opacity:1;fill-rule:nonzero;stroke:none"
             id="path88" />
        </g>
        <g
           id="g90"
           transform="translate(468.8915,282.0807)">
          <path
             d="m 0,0 c 5.98,12.826 9.115,26.918 9.115,41.162 0,53.688 -43.678,97.366 -97.365,97.366 -34.693,0 -66.385,-18.377 -83.768,-47.706 -14.529,9.386 -31.55,14.456 -49.028,14.456 -18.656,0 -36.566,-5.64 -51.794,-16.312 -10.96,-7.68 -19.968,-17.542 -26.537,-28.964 -17.16,13.703 -38.677,21.363 -60.831,21.363 -53.688,0 -97.366,-43.678 -97.366,-97.365 0,-40.116 24.959,-76.145 61.727,-90.632 -0.815,-4.887 -1.227,-9.847 -1.227,-14.83 0,-49.429 40.213,-89.642 89.641,-89.642 18.544,0 36.341,5.617 51.467,16.242 11.591,8.142 20.975,18.746 27.566,31.058 12.499,-6.275 26.296,-9.551 40.477,-9.551 30.846,0 59.619,16.027 76.091,41.624 13.257,-7.661 28.192,-11.664 43.777,-11.664 48.438,0 87.845,39.408 87.845,87.846 C 19.79,-35.123 12.811,-15.654 0,0"
             style="fill:#ffffff;fill-opacity:1;fill-rule:nonzero;stroke:none"
             id="path92" />
        </g>
        <g
           id="g94"
           transform="translate(457.0273,280.5744)">
          <path
             d="m 0,0 c 7.066,12.623 11.101,27.174 11.101,42.668 0,48.317 -39.169,87.486 -87.487,87.486 -35.965,0 -66.855,-21.705 -80.301,-52.728 -14.093,12.138 -32.437,19.478 -52.495,19.478 -34.319,0 -63.615,-21.483 -75.188,-51.733 -15.969,17.115 -38.72,27.82 -63.974,27.82 -48.317,0 -87.486,-39.168 -87.486,-87.486 0,-39.959 26.792,-73.66 63.392,-84.124 -1.882,-6.792 -2.892,-13.946 -2.892,-21.337 0,-44.05 35.711,-79.76 79.762,-79.76 34.078,0 63.159,21.374 74.582,51.446 12.832,-8.649 28.29,-13.699 44.927,-13.699 32.058,0 59.734,18.744 72.675,45.869 13.102,-9.979 29.454,-15.907 47.195,-15.907 43.058,0 77.963,34.905 77.963,77.964 C 21.774,-33.06 13.483,-14.015 0,0"
             style="fill:#130c0e;fill-opacity:1;fill-rule:nonzero;stroke:none"
             id="path96" />
        </g>
        <g
           id="g98"
           transform="translate(457.0214,197.3327)">
          <path
             d="m 0,0 v 6.729 l -1.691,-7.12 -1.833,-0.422 -1.652,6.347 v -6.729 l -1.731,-0.4 v 8.056 l 2.705,0.624 1.632,-6.013 0.02,0.005 1.591,6.757 2.671,0.616 V 0.396 Z M -12.504,-2.887 V 3.74 L -15.29,3.097 v 1.424 l 7.369,1.701 V 4.798 l -2.685,-0.62 v -6.627 z"
             style="fill:#f15a22;fill-opacity:1;fill-rule:nonzero;stroke:none"
             id="path100" />
        </g>
        <g
           id="g102"
           transform="translate(419.8544,282.9591)">
          <path
             d="m 0,0 c 0,0 -0.125,-32.699 -0.532,-38.451 -0.636,-8.984 -3.05,-9.225 -5.104,-7.877 -4.099,2.689 -11.759,18.002 -18.616,31.319 l -10.005,-2.309 v -82.747 l 12.234,2.824 0.041,20.996 c 0.021,10.778 2.963,11.479 7.24,7.564 3.245,-2.971 7.66,-9.522 14.617,-20.661 l 16.189,3.737 V 3.708 Z"
             style="fill:#f15a22;fill-opacity:1;fill-rule:nonzero;stroke:none"
             id="path104" />
        </g>
        <g
           id="g106"
           transform="translate(358.1034,200.069)">
          <path
             d="M 0,0 C -0.371,-0.002 -3.119,0.092 -3.413,2.188 -3.583,3.402 -3,4.543 -1.534,5.439 0.759,6.842 8.696,9.123 16.314,10.91 v 10.535 c 0,0 -13.793,-3.32 -18.036,-2.689 -1.289,0.192 -2.147,0.873 -2.317,2.064 -0.175,1.216 0.438,2.313 1.879,3.251 3.879,2.527 21.293,6.283 21.293,6.283 v 24.308 l -35.855,-8.278 v -64.797 l 36.607,8.451 V 3.501 C 10.114,1.281 3.511,0.02 0,0"
             style="fill:#f15a22;fill-opacity:1;fill-rule:nonzero;stroke:none"
             id="path108" />
        </g>
        <g
           id="g110"
           transform="translate(318.4657,248.4137)">
          <path
             d="m 0,0 c 0,0 -3.884,-25.59 -7.333,-37.416 -0.985,-3.38 -3.367,-8.55 -6.607,-1.157 -1.161,2.647 -4.605,15.019 -7.133,30.967 l -11.186,-2.582 c 0.979,-10.966 6.349,-40.584 13.503,-57.839 l 21.694,5.008 c 7.985,21.132 12.776,43.452 14.405,67.023 z"
             style="fill:#f15a22;fill-opacity:1;fill-rule:nonzero;stroke:none"
             id="path112" />
        </g>
        <g
           id="g114"
           transform="translate(270.3983,176.5514)">
          <path
             d="m 0,0 c -1.728,-0.376 -5.658,-1.372 -7.667,-1.748 -1.922,-0.376 -3.046,0.708 -2.808,3.452 0.216,2.567 1.343,8.009 1.771,9.847 0.946,4.063 2.804,5.758 4.989,6.062 2.802,0.391 5.249,-2.057 6.588,-8.696 C 3.003,8.275 3.329,6.943 3.543,5.134 3.802,2.936 2.722,0.687 0,0 m 9.562,36.684 c -5.429,10.002 -11.743,7.929 -14.978,6.858 -4.238,-1.402 -8,-3.579 -11.938,-19.193 -4.137,-16.414 -8.642,-50.893 -8.642,-50.893 l 11.359,2.623 1.167,6.537 c 0.564,3.157 2.574,5.163 5.636,6.065 0,0 8.802,2.284 11.806,2.626 1.269,0.143 2.76,-0.859 3.194,-2.845 l 1.534,-7.034 15.469,3.571 c 0,0 -7.694,38.949 -14.607,51.685"
             style="fill:#f15a22;fill-opacity:1;fill-rule:nonzero;stroke:none"
             id="path116" />
        </g>
        <g
           id="g118"
           transform="translate(219.3202,163.5339)">
          <path
             d="M 0,0 C -0.371,-0.002 -3.119,0.091 -3.413,2.188 -3.583,3.402 -3,4.542 -1.534,5.439 0.759,6.842 8.696,9.123 16.314,10.91 v 10.534 c 0,0 -13.794,-3.319 -18.036,-2.688 -1.289,0.191 -2.147,0.873 -2.318,2.063 -0.174,1.217 0.439,2.314 1.879,3.251 3.88,2.527 21.294,6.284 21.294,6.284 v 26.2 l -35.855,-8.278 v -64.797 l 36.606,8.452 V 3.501 C 10.114,1.281 3.511,0.019 0,0"
             style="fill:#f15a22;fill-opacity:1;fill-rule:nonzero;stroke:none"
             id="path120" />
        </g>
        <g
           id="g122"
           transform="translate(174.6977,217.5934)">
          <path
             d="m 0,0 c 0.345,-12.911 0.206,-22.575 -1.565,-28.916 -1.077,-3.852 -3.445,-6.784 -6.608,-9.003 -3.221,-2.261 -6.451,-3.251 -9.613,-3.313 -3.857,-0.077 -6.644,1.424 -7.014,5.469 -0.564,6.159 -0.815,14.768 -0.627,25.552 l -13.997,-3.231 v -95.345 l 19.227,4.439 c -0.345,12.16 0.07,21.181 1.565,26.759 1.02,3.802 3.809,7.02 6.608,8.909 3.271,2.209 6.444,3.357 9.613,3.408 3.851,0.062 6.651,-1.724 7.015,-5.565 0.532,-5.627 0.782,-13.744 0.625,-24.092 l 14.311,3.304 V 4.511 Z"
             style="fill:#f15a22;fill-opacity:1;fill-rule:nonzero;stroke:none"
             id="path124" />
        </g>
        <g
           id="g126"
           transform="translate(418.4433,294.0294)">
          <path
             d="m 0,0 v 83.019 l -11.349,-2.62 C -17.368,60.523 -20.774,50.805 -23.742,42.612 -28.8,28.672 -34.046,34.147 -36.491,38.035 -39.334,42.591 -43.2,51.454 -49.909,67.693 l -16.573,-3.826 v -76.819 l 13.743,3.173 c -0.105,12.436 0.113,19.683 0.782,22.964 0.606,2.947 2.383,3.365 4.18,0.439 1.484,-2.404 3.825,-7.608 8.485,-18.309 l 9.217,2.128 c 5.079,13.648 7.816,20.528 9.761,23.893 1.567,2.738 4.555,4.661 5.455,-0.398 0.689,-3.824 0.627,-11.521 0.605,-24.229 z"
             style="fill:#faa61a;fill-opacity:1;fill-rule:nonzero;stroke:none"
             id="path128" />
        </g>
        <g
           id="g130"
           transform="translate(328.5419,338.9303)">
          <path
             d="m 0,0 v -23.921 c -0.793,-7.717 -14.451,-10.984 -15.419,-2.88 -0.328,3.609 -0.501,8.594 -0.501,19.236 l -11.476,-2.649 v -71.117 l 15.735,3.633 v 17.023 c 0.957,12.311 15.224,12.994 16.537,4.259 0.441,-2.754 0.4,-7.104 0.4,-16.085 l 11.476,2.649 V 3.867 Z"
             style="fill:#faa61a;fill-opacity:1;fill-rule:nonzero;stroke:none"
             id="path132" />
        </g>
        <g
           id="g134"
           transform="translate(250.2846,328.8024)">
          <path
             d="m 0,0 v -29.308 l 10.587,2.444 c 4.22,0.974 5.702,0.079 5.671,-8.398 v -37.664 l 12.544,2.896 v 34.854 c 0.087,14.962 1.843,18.059 9.284,19.777 l 6.644,1.534 v 24.192 z"
             style="fill:#faa61a;fill-opacity:1;fill-rule:nonzero;stroke:none"
             id="path136" />
        </g>
        <g
           id="g138"
           transform="translate(244.0898,316.3581)">
          <path
             d="m 0,0 -13.378,-3.089 c 0,0 -0.305,-13.482 -0.824,-23.53 -0.775,-14.253 -16.015,-18.687 -16.86,-4.187 -0.386,7.391 -0.509,21.909 -0.509,21.909 l -16.134,-3.726 v -6.856 c 0,-26.701 3.309,-36.119 19.197,-34.021 3.761,0.497 6.616,1.462 9.786,3.748 0.206,0.13 0.408,0.11 0.572,0 0.34,-0.245 0.704,-0.932 0.143,-2.675 -3.024,-9.389 -28.803,-11.838 -28.803,-11.838 l -0.007,-21.165 c 14.805,2.179 30.966,5.303 39.375,19.38 C -4.266,-60.812 0.001,-50.219 0,0"
             style="fill:#faa61a;fill-opacity:1;fill-rule:nonzero;stroke:none"
             id="path140" />
        </g>
        <g
           id="g142"
           transform="translate(173.0253,305.0226)">
          <path
             d="m 0,0 v -22.734 c -0.753,-7.334 -13.734,-10.439 -14.654,-2.737 -0.312,3.43 -0.476,8.168 -0.476,18.282 l -10.906,-2.519 v -67.586 l 14.953,3.452 v 16.178 c 0.91,11.7 14.469,12.35 15.716,4.048 0.42,-2.617 0.381,-6.752 0.381,-15.287 l 10.906,2.517 V 3.675 Z"
             style="fill:#faa61a;fill-opacity:1;fill-rule:nonzero;stroke:none"
             id="path144" />
        </g>
        <g
           id="g146"
           transform="translate(99.5639,254.986)">
          <path
             d="m 0,0 c -6.848,-1.746 -10.887,1.922 -10.887,11.127 0,7.343 0.139,14.923 13.581,14.923 9.571,0 13.563,-4.846 13.572,-10.313 C 16.275,10.637 10.441,2.663 0,0 m 40.187,30.328 c 0,16.907 -12.458,37.357 -64.578,24.812 v -91.951 l 13.573,3.133 v 16.43 c 0,8.021 5.219,4.8 6.372,4.075 1.948,-1.224 6.017,-4.551 15.683,-15.413 l 23.058,5.323 -17.968,18.398 c 0,0 23.86,9.607 23.86,35.193"
             style="fill:#faa61a;fill-opacity:1;fill-rule:nonzero;stroke:none"
             id="path148" />
        </g>
      </g>
    </g>
  </g>
</svg>
