<?xml version="1.0" encoding="UTF-8" standalone="no"?>
<!-- Created with Inkscape (http://www.inkscape.org/) -->

<svg
   version="1.1"
   id="svg2"
   xml:space="preserve"
   width="666.66669"
   height="312.17068"
   viewBox="0 0 666.66669 312.17068"
   sodipodi:docname="Rhythm Heaven 2008 (Beta) Logo (Wordmark).ai"
   xmlns:inkscape="http://www.inkscape.org/namespaces/inkscape"
   xmlns:sodipodi="http://sodipodi.sourceforge.net/DTD/sodipodi-0.dtd"
   xmlns="http://www.w3.org/2000/svg"
   xmlns:svg="http://www.w3.org/2000/svg"><defs
     id="defs6"><clipPath
       clipPathUnits="userSpaceOnUse"
       id="clipPath16"><path
         d="M 0,234.128 H 500 V 0 H 0 Z"
         id="path14" /></clipPath></defs><sodipodi:namedview
     id="namedview4"
     pagecolor="#ffffff"
     bordercolor="#666666"
     borderopacity="1.0"
     inkscape:pageshadow="2"
     inkscape:pageopacity="0.0"
     inkscape:pagecheckerboard="0" /><g
     id="g8"
     inkscape:groupmode="layer"
     inkscape:label="Rhythm Heaven 2008 (Beta) Logo (Wordmark)"
     transform="matrix(1.3333333,0,0,-1.3333333,0,312.17067)"><g
       id="g10"><g
         id="g12"
         clip-path="url(#clipPath16)"><g
           id="g18"
           transform="translate(497.2885,121.0267)"><path
             d="m 0,0 c -4.725,12.552 -15.027,16.106 -27.193,12.671 -4.16,-1.174 -9.224,-5.509 -11.82,-7.134 -0.654,-0.41 -2.23,-1.141 -2.123,0.613 0.313,5.137 0.017,6.921 -0.752,8.997 -1.331,3.594 -11.676,8.243 -16.105,-2.582 -5.697,-13.923 -5.4,-37.443 0.373,-54.533 5.057,-14.974 30.094,-7.72 19.992,11.008 -10.944,20.287 5.537,29.942 13.39,29.942 9.424,0 11.66,-6.409 5.231,-24.698 -8.989,-25.569 11.308,-24.688 17.37,-16.744 C 5.391,-33.249 2.333,-6.198 0,0"
             style="fill:#000000;fill-opacity:1;fill-rule:nonzero;stroke:none"
             id="path20" /></g><g
           id="g22"
           transform="translate(397.9402,114.3756)"><path
             d="m 0,0 c 6.198,0.953 11.732,-1.249 12.36,-4.92 0.629,-3.67 -3.886,-7.419 -10.084,-8.372 -6.198,-0.953 -11.732,1.25 -12.36,4.92 C -10.713,-4.702 -6.198,-0.953 0,0 m 22.534,-26.465 c -10.115,0 -9.836,-9.87 -21.656,-9.87 -4.671,0 -10.501,2.842 -10.501,6.888 0,17.011 37.535,0.244 37.535,19.487 0,16.904 -18.78,25.957 -32.611,22.042 -24.093,-6.82 -30.718,-37.936 -13.173,-55.307 17.806,-17.63 44.454,-4.275 47.674,2.571 3.703,7.873 -0.013,14.189 -7.268,14.189"
             style="fill:#000000;fill-opacity:1;fill-rule:nonzero;stroke:none"
             id="path24" /></g><g
           id="g26"
           transform="translate(364.7548,99.8095)"><path
             d="m 0,0 c 0,19.753 -17.886,17.504 -19.084,0.493 -0.482,-6.844 -1.412,-20.158 -2.423,-29.03 -0.825,-7.241 -4.525,-9.716 -6.336,-0.399 -1.748,8.999 -1.873,17.473 -6.069,29.07 -4.845,13.39 -19.791,12.937 -19.791,-1.756 0,-11.34 9.066,-33.938 19.924,-43.207 10.728,-9.157 20.525,-3.141 26.874,11.78 C -2.741,-23.263 0,-10.561 0,0"
             style="fill:#000000;fill-opacity:1;fill-rule:nonzero;stroke:none"
             id="path28" /></g><g
           id="g30"
           transform="translate(278.7074,56.3154)"><path
             d="m 0,0 c -6.127,-1.181 -11.703,0.848 -12.455,4.532 -0.752,3.685 3.605,7.63 9.732,8.811 C 3.403,14.524 8.98,12.495 9.732,8.81 10.484,5.126 6.127,1.181 0,0 m 27.671,5.573 c -1.734,0.917 -4.552,3.182 -4.552,6.642 0,3.694 1.557,5.085 1.557,12.366 0,14.614 -12.698,23.399 -26.354,23.399 -10.635,0 -19.034,-5.697 -23.32,-11.58 -3.754,-5.151 -1.278,-13.962 6.029,-13.962 9.344,0 6.031,11.526 18.874,11.526 5.545,0 11.674,-3.953 11.674,-8.106 0,-1.836 -1.837,-4.208 -4.229,-4.208 -2.16,0 -2.305,0.555 -5.874,0.555 -19.736,0 -27.432,-8.259 -27.432,-18.428 0,-11.82 8.38,-19.993 20.963,-19.993 12.219,0 16.851,4.938 20.145,9.87 0.537,0.803 1.313,1.461 2.356,0.418 1.887,-1.886 5.211,-4.963 10.722,-4.963 9.066,0 9.956,7.058 9.956,9.876 0,6.509 -7.041,4.752 -10.515,6.588"
             style="fill:#000000;fill-opacity:1;fill-rule:nonzero;stroke:none"
             id="path32" /></g><g
           id="g34"
           transform="translate(213.3362,83.1809)"><path
             d="m 0,0 c 6.31,1.197 12.052,-0.86 12.827,-4.594 0.774,-3.734 -3.713,-7.732 -10.022,-8.929 -6.31,-1.198 -12.053,0.859 -12.827,4.593 C -10.797,-5.195 -6.31,-1.197 0,0 m 23.935,-25.858 c -10.152,0 -11.048,-10.834 -21.936,-10.834 -4.691,0 -10.701,2.752 -10.701,6.815 0,16.957 36.976,1.68 36.976,21.003 0,11.341 -14.062,26.203 -32.863,20.685 -24.127,-7.082 -29.732,-38.836 -11.516,-55.654 18.488,-17.069 44.602,-2.783 47.534,4.223 3.408,8.143 -0.32,13.762 -7.494,13.762"
             style="fill:#000000;fill-opacity:1;fill-rule:nonzero;stroke:none"
             id="path36" /></g><g
           id="g38"
           transform="translate(156.1311,101.2741)"><path
             d="m 0,0 c -6.74,4.23 -16.077,2.844 -19.939,-5.883 -7.946,-17.956 16.452,-33.116 -14.854,-35.898 -29.366,-2.61 -12.459,24.557 -19.407,32.504 -7.498,8.575 -20.288,3.889 -25.476,-7.188 -9.45,-20.178 -7.223,-48.682 3.522,-69.576 13.491,-27.432 50.678,-14.718 29.807,13.606 -6.077,8.248 -3.021,16.119 10.116,17.836 19.527,2.552 30.909,-5.205 24.079,-20.085 -12.206,-26.59 22.527,-26.273 29.802,-4.726 C 26.78,-52.363 18.195,-11.42 0,0"
             style="fill:#000000;fill-opacity:1;fill-rule:nonzero;stroke:none"
             id="path40" /></g><g
           id="g42"
           transform="translate(460.2325,205.5607)"><path
             d="m 0,0 c -3.434,16.412 -23.28,18.435 -35.321,8.237 -5.315,5.992 -16.683,8.893 -29.886,-1.169 -0.629,-0.479 -3.095,-1.597 -3.095,0.539 0,1.617 1.045,6.755 -1.324,9.949 -1.491,2.011 -6.629,3.993 -10.356,1.85 -7.243,-4.164 -7.467,-16.744 -7.467,-29.309 0,-7.946 2.729,-40.45 15.24,-40.45 16.026,0 7.641,22.974 5.484,28.883 -3.124,8.564 2.875,19.593 13.364,19.593 9.264,0 4.801,-10.814 3.461,-14.535 -3.994,-11.083 -6.762,-22.641 -1.065,-27.1 5.277,-4.13 14.738,-0.652 16.398,5.91 1.677,6.629 -0.384,17.482 0.745,26.035 0.984,7.448 9.711,12.6 16.718,10.169 7.561,-2.622 -5.158,-24.728 -7.347,-30.56 -4.632,-12.339 8.26,-16.622 14.615,-10.728 C 1.157,-32.491 2.683,-12.824 0,0"
             style="fill:#000000;fill-opacity:1;fill-rule:nonzero;stroke:none"
             id="path44" /></g><g
           id="g46"
           transform="translate(344.5027,206.6765)"><path
             d="m 0,0 c -13.369,0.467 -17.571,-11.173 -20.378,-11.075 -1.064,0.037 -1.567,0.501 -1.487,2.809 0.333,9.511 5.369,13.011 5.798,25.275 0.469,13.436 -14.09,13.012 -20.052,3.817 -9.566,-16.713 -6.761,-55.239 -1.772,-71.565 3.468,-11.353 6.524,-14.923 14.594,-14.174 5.946,0.551 9.953,4.858 9.481,11.389 -0.528,7.312 -7.516,14.861 -7.081,21.952 0.69,11.261 14.393,17.585 21.355,14.935 11.054,-4.209 -1.554,-17.047 -3.522,-28.019 -2.089,-11.646 6.738,-16.045 14.347,-12.115 9.552,4.933 10.108,17.227 10.384,25.127 C 22.109,-18.978 21.736,-0.759 0,0"
             style="fill:#000000;fill-opacity:1;fill-rule:nonzero;stroke:none"
             id="path48" /></g><g
           id="g50"
           transform="translate(289.8268,155.3873)"><path
             d="m 0,0 c -5.091,2.296 -9.445,-2.532 -14.275,0.579 -4.27,2.749 -3.787,11.301 -3.355,22.401 0.07,1.775 0.466,3.22 8.506,1.598 16.751,-3.381 15.174,17.33 3.607,17.17 -6.329,-0.088 -7.667,-5.59 -10.489,-3.967 -1.858,1.07 1.943,8.625 -1.065,15.307 -2.156,4.792 -14.036,4.462 -16.105,-1.73 -2.037,-6.097 2.958,-14.781 0.825,-16.425 -2.176,-1.677 -16.159,5.271 -19.779,-4.685 -3.058,-8.41 5.431,-16.771 13.763,-11.58 8.321,5.184 8.704,4.038 7.808,-5.397 -0.891,-9.379 -2.803,-24.711 3.745,-29.077 6.936,-4.624 23.56,-2.882 29.11,4.206 C 5.61,-7.367 4.204,-1.896 0,0"
             style="fill:#000000;fill-opacity:1;fill-rule:nonzero;stroke:none"
             id="path52" /></g><g
           id="g54"
           transform="translate(233.3045,150.8418)"><path
             d="m 0,0 c 0,41.688 -12.556,38.282 -17.929,36.51 -7.507,-2.475 -7.445,-11.208 -3.394,-18.648 6.109,-11.22 2.076,-22.163 -5,-22.163 -6.713,0 -10.201,11.142 -10.201,19.235 0,18.302 -20.151,13.71 -20.151,2.476 0,-6.969 4.632,-35.858 21.083,-35.858 9.344,0 7.081,3.78 11.447,3.78 8.093,0 4.313,-16.159 -7.613,-16.159 -6.942,0 -6.696,3.368 -13.404,3.448 -10.195,0.121 -12.164,-14.979 -2.968,-18.169 C -26.607,-53.015 0,-38.454 0,0"
             style="fill:#000000;fill-opacity:1;fill-rule:nonzero;stroke:none"
             id="path56" /></g><g
           id="g58"
           transform="translate(171.0495,151.7717)"><path
             d="m 0,0 c 0,12.673 -1.009,30.869 -22.758,30.869 -13.377,0 -17.171,-11.78 -19.979,-11.78 -1.065,0 -1.584,0.446 -1.584,2.755 0,9.517 4.912,13.191 4.912,25.463 0,13.443 -14.535,12.512 -20.173,3.114 -8.977,-17.037 -4.829,-55.441 0.726,-71.583 3.863,-11.225 7.042,-14.686 15.081,-13.656 5.923,0.759 9.777,5.202 9.077,11.713 -0.783,7.289 -8.03,14.589 -7.843,21.692 0.296,11.278 13.771,18.076 20.821,15.67 11.194,-3.82 -0.958,-17.09 -2.542,-28.124 -1.681,-11.712 7.294,-15.8 14.761,-11.607 C -0.127,-20.211 0,-7.904 0,0"
             style="fill:#000000;fill-opacity:1;fill-rule:nonzero;stroke:none"
             id="path60" /></g><g
           id="g62"
           transform="translate(48.2108,163.8327)"><path
             d="m 0,0 c -9.968,0 -18.049,8.081 -18.049,18.049 0,9.968 8.081,18.049 18.049,18.049 9.968,0 18.049,-8.081 18.049,-18.049 C 18.049,8.081 9.968,0 0,0 m 41.741,-11.873 c -9.527,4.557 -13.976,3.7 -13.976,8.625 0,5.351 10.504,7.085 14.495,12.472 11.421,15.413 -1.397,43.924 -40.05,43.924 -53.508,0 -63.464,-79.529 -34.444,-102.094 14.268,-11.094 29.412,-9.353 29.412,3.105 0,13.071 -10.402,14.455 -10.402,23.759 0,5.64 3.72,12.632 13.307,12.632 10.436,0 18.276,-6.983 21.573,-10.436 8.186,-8.572 0.759,-18.9 3.953,-27.765 1.505,-4.175 7.395,-5.75 11.633,-5.75 21.616,0 25.423,31.519 4.499,41.528"
             style="fill:#000000;fill-opacity:1;fill-rule:nonzero;stroke:none"
             id="path64" /></g><g
           id="g66"
           transform="translate(498.1495,55.4162)"><path
             d="m 0,0 0.126,7.24 -1.806,-7.659 -1.819,-0.453 -1.515,6.83 -0.125,-7.239 -1.72,-0.429 0.15,8.666 2.687,0.67 1.501,-6.47 0.02,0.005 1.699,7.268 L 1.85,9.09 1.7,0.424 Z m -12.417,-3.096 0.124,7.129 -2.767,-0.689 0.027,1.532 7.317,1.824 -0.026,-1.532 -2.667,-0.665 -0.124,-7.129 z"
             style="fill:#000000;fill-opacity:1;fill-rule:nonzero;stroke:none"
             id="path68" /></g></g></g></g></svg>
