<?xml version="1.0" encoding="UTF-8" standalone="no"?>
<!-- Created with Inkscape (http://www.inkscape.org/) -->

<svg
   version="1.1"
   id="svg1"
   width="666.66669"
   height="603.86932"
   viewBox="0 0 666.66669 603.86932"
   sodipodi:docname="Rhythm Heaven Logo with Tagline (Canadian).ai"
   xmlns:inkscape="http://www.inkscape.org/namespaces/inkscape"
   xmlns:sodipodi="http://sodipodi.sourceforge.net/DTD/sodipodi-0.dtd"
   xmlns="http://www.w3.org/2000/svg"
   xmlns:svg="http://www.w3.org/2000/svg">
  <defs
     id="defs1">
    <clipPath
       clipPathUnits="userSpaceOnUse"
       id="clipPath2">
      <path
         d="M 0,452.902 H 500 V 0 H 0 Z"
         transform="translate(-484.22161,-83.881302)"
         id="path2" />
    </clipPath>
    <clipPath
       clipPathUnits="userSpaceOnUse"
       id="clipPath4">
      <path
         d="M 0,452.902 H 500 V 0 H 0 Z"
         transform="translate(-480.56721,-129.39421)"
         id="path4" />
    </clipPath>
    <clipPath
       clipPathUnits="userSpaceOnUse"
       id="clipPath6">
      <path
         d="M 0,452.902 H 500 V 0 H 0 Z"
         transform="translate(-481.88281,-304.66771)"
         id="path6" />
    </clipPath>
    <clipPath
       clipPathUnits="userSpaceOnUse"
       id="clipPath8">
      <path
         d="M 0,452.902 H 500 V 0 H 0 Z"
         transform="translate(-468.89181,-303.05641)"
         id="path8" />
    </clipPath>
    <clipPath
       clipPathUnits="userSpaceOnUse"
       id="clipPath10">
      <path
         d="M 0,452.902 H 500 V 0 H 0 Z"
         transform="translate(-457.02751,-301.55001)"
         id="path10" />
    </clipPath>
    <clipPath
       clipPathUnits="userSpaceOnUse"
       id="clipPath12">
      <path
         d="M 0,452.902 H 500 V 0 H 0 Z"
         transform="translate(-457.02121,-218.30831)"
         id="path12" />
    </clipPath>
    <clipPath
       clipPathUnits="userSpaceOnUse"
       id="clipPath14">
      <path
         d="M 0,452.902 H 500 V 0 H 0 Z"
         transform="translate(-419.85481,-303.93481)"
         id="path14" />
    </clipPath>
    <clipPath
       clipPathUnits="userSpaceOnUse"
       id="clipPath16">
      <path
         d="M 0,452.902 H 500 V 0 H 0 Z"
         transform="translate(-358.10351,-221.04671)"
         id="path16" />
    </clipPath>
    <clipPath
       clipPathUnits="userSpaceOnUse"
       id="clipPath18">
      <path
         d="M 0,452.902 H 500 V 0 H 0 Z"
         transform="translate(-318.46561,-269.3894)"
         id="path18" />
    </clipPath>
    <clipPath
       clipPathUnits="userSpaceOnUse"
       id="clipPath20">
      <path
         d="M 0,452.902 H 500 V 0 H 0 Z"
         transform="translate(-270.3988,-197.5273)"
         id="path20" />
    </clipPath>
    <clipPath
       clipPathUnits="userSpaceOnUse"
       id="clipPath22">
      <path
         d="M 0,452.902 H 500 V 0 H 0 Z"
         transform="translate(-219.3202,-184.50931)"
         id="path22" />
    </clipPath>
    <clipPath
       clipPathUnits="userSpaceOnUse"
       id="clipPath24">
      <path
         d="M 0,452.902 H 500 V 0 H 0 Z"
         transform="translate(-174.8382,-238.60141)"
         id="path24" />
    </clipPath>
    <clipPath
       clipPathUnits="userSpaceOnUse"
       id="clipPath26">
      <path
         d="M 0,452.902 H 500 V 0 H 0 Z"
         transform="translate(-418.44331,-315.00521)"
         id="path26" />
    </clipPath>
    <clipPath
       clipPathUnits="userSpaceOnUse"
       id="clipPath28">
      <path
         d="M 0,452.902 H 500 V 0 H 0 Z"
         transform="translate(-328.88361,-359.98471)"
         id="path28" />
    </clipPath>
    <clipPath
       clipPathUnits="userSpaceOnUse"
       id="clipPath30">
      <path
         d="M 0,452.902 H 500 V 0 H 0 Z"
         transform="translate(-250.2844,-349.77801)"
         id="path30" />
    </clipPath>
    <clipPath
       clipPathUnits="userSpaceOnUse"
       id="clipPath32">
      <path
         d="M 0,452.902 H 500 V 0 H 0 Z"
         transform="translate(-244.08991,-337.33381)"
         id="path32" />
    </clipPath>
    <clipPath
       clipPathUnits="userSpaceOnUse"
       id="clipPath34">
      <path
         d="M 0,452.902 H 500 V 0 H 0 Z"
         transform="translate(-173.3497,-326.07321)"
         id="path34" />
    </clipPath>
    <clipPath
       clipPathUnits="userSpaceOnUse"
       id="clipPath36">
      <path
         d="M 0,452.902 H 500 V 0 H 0 Z"
         transform="translate(-99.5638,-275.9618)"
         id="path36" />
    </clipPath>
  </defs>
  <sodipodi:namedview
     id="namedview1"
     pagecolor="#ffffff"
     bordercolor="#000000"
     borderopacity="0.25"
     inkscape:showpageshadow="2"
     inkscape:pageopacity="0.0"
     inkscape:pagecheckerboard="0"
     inkscape:deskcolor="#d1d1d1">
    <inkscape:page
       x="0"
       y="0"
       inkscape:label="1"
       id="page1"
       width="666.66669"
       height="603.86932"
       margin="0"
       bleed="0" />
  </sodipodi:namedview>
  <g
     id="layer-MC0"
     inkscape:groupmode="layer"
     inkscape:label="Layer 1">
    <path
       id="path1"
       d="M 0,0 C 0,-0.69 -0.185,-1.267 -0.555,-1.732 -0.926,-2.198 -1.438,-2.51 -2.093,-2.67 l -0.342,-0.084 c -0.627,-0.153 -1.126,-0.111 -1.496,0.129 -0.37,0.239 -0.555,0.747 -0.555,1.527 v 12.32 c 0,0.689 0.185,1.266 0.555,1.732 0.37,0.465 0.883,0.778 1.539,0.938 l 0.341,0.084 c 0.627,0.153 1.125,0.11 1.496,-0.129 C -0.185,13.607 0,13.098 0,12.32 Z m 1.667,-9.663 c 0,-1.859 -0.883,-3.004 -2.649,-3.436 l -2.65,-0.648 c -1.766,-0.433 -2.649,0.28 -2.649,2.139 v 2.293 c 0,1.978 0.926,3.194 2.778,3.647 l 2.392,0.585 C 0.741,-4.63 1.667,-5.392 1.667,-7.37 Z m -17.227,8.104 c 0,0.838 -0.207,1.5 -0.62,1.984 -0.413,0.483 -1.275,0.564 -2.585,0.244 -0.656,-0.161 -1.196,-0.376 -1.623,-0.645 -0.427,-0.269 -0.755,-0.567 -0.983,-0.892 -0.229,-0.326 -0.384,-0.679 -0.47,-1.059 -0.085,-0.381 -0.128,-0.781 -0.128,-1.2 0,-0.421 0.043,-0.799 0.128,-1.138 0.086,-0.339 0.241,-0.615 0.47,-0.83 0.228,-0.214 0.556,-0.343 0.983,-0.389 0.427,-0.045 0.967,0.013 1.623,0.173 0.655,0.161 1.189,0.366 1.602,0.617 0.413,0.251 0.741,0.541 0.983,0.87 0.242,0.329 0.406,0.684 0.492,1.064 0.085,0.381 0.128,0.781 0.128,1.201 M -8.083,0 c 0,-1.319 -0.135,-2.438 -0.406,-3.359 -0.271,-0.92 -0.669,-1.699 -1.196,-2.338 -0.528,-0.639 -1.182,-1.159 -1.966,-1.56 -0.783,-0.402 -1.702,-0.731 -2.756,-0.989 l -1.751,-0.429 c -1.482,-0.362 -2.222,-1.143 -2.222,-2.342 0,-0.719 0.192,-1.182 0.576,-1.387 0.385,-0.206 0.933,-0.222 1.646,-0.047 l 5.639,1.38 c 0.541,0.132 0.962,0.07 1.261,-0.186 0.299,-0.258 0.448,-0.671 0.448,-1.239 v -0.72 c 0,-0.54 -0.135,-1.008 -0.405,-1.403 -0.271,-0.396 -0.706,-0.667 -1.304,-0.814 l -8.587,-2.101 c -4.615,-1.129 -6.922,0.764 -6.922,5.68 v 7.643 c 0,2.488 0.555,4.407 1.666,5.758 1.111,1.351 2.877,2.323 5.298,2.915 l 3.974,0.973 c 2.42,0.592 4.194,0.486 5.319,-0.317 1.125,-0.804 1.688,-2.45 1.688,-4.938 z m -20.38,-17.666 c 0,-0.689 -0.179,-1.265 -0.535,-1.726 -0.356,-0.463 -0.861,-0.773 -1.516,-0.934 l -0.385,-0.094 c -0.627,-0.153 -1.125,-0.11 -1.495,0.129 -0.371,0.239 -0.556,0.748 -0.556,1.528 v 9.037 c 0,0.959 -0.228,1.592 -0.684,1.901 -0.455,0.308 -1.082,0.364 -1.88,0.169 l -0.427,-0.104 c -0.826,-0.203 -1.46,-0.59 -1.901,-1.163 -0.442,-0.572 -0.662,-1.293 -0.662,-2.162 v -9.037 c 0,-0.69 -0.186,-1.267 -0.556,-1.732 -0.37,-0.467 -0.883,-0.779 -1.538,-0.939 l -0.342,-0.084 c -0.627,-0.153 -1.125,-0.11 -1.495,0.129 -0.371,0.239 -0.556,0.748 -0.556,1.528 v 12.993 c 0,0.959 -0.234,1.591 -0.704,1.896 -0.47,0.305 -1.09,0.363 -1.859,0.175 l -0.47,-0.115 c -0.827,-0.203 -1.453,-0.588 -1.88,-1.157 -0.427,-0.57 -0.641,-1.289 -0.641,-2.158 V -21.95 c 0,-1.859 -0.883,-3.004 -2.649,-3.436 l -2.692,-0.659 c -1.766,-0.432 -2.649,0.281 -2.649,2.14 v 16.366 c 0,1.888 0.883,3.048 2.649,3.48 l 18.458,4.517 c 2.421,0.592 4.187,0.41 5.298,-0.547 1.111,-0.958 1.667,-2.665 1.667,-5.122 z m -30.592,-6.856 c 0,-1.859 -0.884,-3.004 -2.649,-3.436 l -2.649,-0.648 c -1.795,-0.439 -2.692,0.27 -2.692,2.129 l 0.043,12.6 c 0,0.869 -0.221,1.481 -0.663,1.838 -0.441,0.356 -1.075,0.434 -1.901,0.232 l -0.47,-0.115 c -0.769,-0.188 -1.389,-0.55 -1.859,-1.085 -0.47,-0.534 -0.704,-1.281 -0.704,-2.24 v -13.219 c 0,-0.779 -0.186,-1.379 -0.556,-1.799 -0.37,-0.421 -0.869,-0.707 -1.495,-0.861 l -0.342,-0.083 c -0.656,-0.161 -1.168,-0.1 -1.538,0.186 -0.371,0.283 -0.556,0.77 -0.556,1.46 v 22.345 c 0,1.888 0.883,3.049 2.649,3.481 l 2.692,0.659 c 1.766,0.432 2.634,-0.27 2.607,-2.105 v -0.405 c -0.029,-0.697 0.12,-1.199 0.448,-1.509 0.327,-0.31 0.861,-0.373 1.603,-0.192 l 1.025,0.251 c 2.42,0.592 4.194,0.419 5.319,-0.519 1.125,-0.939 1.688,-2.638 1.688,-5.095 z m -19.995,-0.351 c 0,-2.459 -0.564,-4.432 -1.689,-5.921 -1.125,-1.49 -2.898,-2.531 -5.319,-3.123 l -4.016,-0.983 c -4.672,-1.143 -7.008,0.728 -7.008,5.614 v 17.176 c 0,1.888 0.883,3.048 2.649,3.48 l 2.692,0.659 c 0.855,0.209 1.517,0.116 1.987,-0.278 0.47,-0.395 0.677,-1.169 0.62,-2.322 -0.057,-1.423 0.626,-1.96 2.051,-1.611 l 5.554,1.359 c 0.741,0.181 1.267,0.101 1.581,-0.242 0.313,-0.344 0.47,-0.845 0.47,-1.504 0,-1.499 -0.683,-2.415 -2.051,-2.75 l -7.563,-1.851 c -1.253,-0.306 -2.15,-0.863 -2.691,-1.67 -0.542,-0.807 -0.812,-1.78 -0.812,-2.918 v -6.924 c 0,-0.871 0.213,-1.485 0.641,-1.844 0.427,-0.361 1.054,-0.44 1.88,-0.237 l 0.47,0.115 c 0.769,0.188 1.381,0.547 1.837,1.079 0.456,0.531 0.684,1.276 0.684,2.235 v 5.216 c 0,0.779 0.185,1.371 0.555,1.777 0.37,0.405 0.869,0.684 1.496,0.838 l 3.888,0.951 c 0.655,0.16 1.167,0.106 1.538,-0.163 0.37,-0.269 0.556,-0.749 0.556,-1.438 z m -20.551,-4.985 c 0,-1.528 -0.214,-2.855 -0.641,-3.978 -0.399,-0.968 -0.905,-1.766 -1.517,-2.394 -0.613,-0.63 -1.332,-1.196 -2.158,-1.697 -0.313,-0.197 -0.534,-0.52 -0.662,-0.972 -0.128,-0.451 -0.193,-0.93 -0.193,-1.441 v -1.978 c 0,-1.888 -0.883,-3.049 -2.649,-3.481 l -2.692,-0.659 c -1.766,-0.432 -2.648,0.297 -2.648,2.185 v 1.978 c 0,1.23 -0.371,1.933 -1.111,2.112 -0.713,0.124 -1.325,0.357 -1.837,0.696 -0.513,0.339 -0.927,0.83 -1.239,1.473 -0.457,0.937 -0.684,2.185 -0.684,3.744 v 12.5 c 0,0.689 0.185,1.259 0.555,1.709 0.37,0.45 0.883,0.756 1.538,0.916 l 0.342,0.084 c 0.626,0.153 1.125,0.118 1.496,-0.106 0.369,-0.225 0.555,-0.727 0.555,-1.505 v -13.264 c 0,-0.96 0.235,-1.584 0.705,-1.874 0.47,-0.289 1.089,-0.34 1.859,-0.152 l 0.469,0.115 c 0.826,0.202 1.46,0.583 1.902,1.14 0.441,0.558 0.662,1.271 0.662,2.141 v 12.544 c 0,1.888 0.883,3.048 2.649,3.48 l 2.649,0.649 c 1.766,0.432 2.65,-0.296 2.65,-2.185 z m -19.612,-0.797 c 0,-0.69 -0.185,-1.267 -0.555,-1.732 -0.371,-0.465 -0.883,-0.778 -1.538,-0.938 l -0.342,-0.084 c -0.627,-0.153 -1.126,-0.111 -1.496,0.129 -0.37,0.239 -0.555,0.747 -0.555,1.527 v 3.597 c 0,0.959 -0.235,1.591 -0.705,1.896 -0.47,0.305 -1.089,0.363 -1.858,0.175 -0.827,-0.203 -1.46,-0.59 -1.902,-1.163 -0.441,-0.572 -0.662,-1.294 -0.662,-2.163 v -12.184 c 0,-1.859 -0.883,-3.003 -2.649,-3.436 l -2.692,-0.658 c -1.766,-0.432 -2.649,0.28 -2.649,2.139 v 16.366 c 0,1.889 0.883,3.049 2.649,3.481 l 7.947,1.945 c 2.421,0.592 4.194,0.411 5.32,-0.542 1.125,-0.955 1.687,-2.66 1.687,-5.117 z m -34.95,-4.82 c 0,0.839 -0.207,1.5 -0.619,1.984 -0.413,0.483 -1.275,0.564 -2.585,0.244 -0.656,-0.161 -1.197,-0.376 -1.624,-0.644 -0.427,-0.27 -0.755,-0.568 -0.983,-0.893 -0.228,-0.326 -0.384,-0.679 -0.47,-1.059 -0.085,-0.38 -0.128,-0.781 -0.128,-1.2 0,-0.42 0.043,-0.799 0.128,-1.138 0.086,-0.339 0.242,-0.615 0.47,-0.829 0.228,-0.214 0.556,-0.344 0.983,-0.389 0.427,-0.046 0.968,0.012 1.624,0.173 0.655,0.16 1.189,0.365 1.602,0.616 0.413,0.251 0.741,0.541 0.983,0.87 0.241,0.329 0.405,0.684 0.491,1.065 0.085,0.38 0.128,0.78 0.128,1.2 m 7.478,1.56 c 0,-1.319 -0.136,-2.439 -0.406,-3.359 -0.272,-0.921 -0.67,-1.7 -1.197,-2.339 -0.527,-0.639 -1.182,-1.159 -1.965,-1.56 -0.784,-0.402 -1.702,-0.731 -2.756,-0.989 l -1.752,-0.428 c -1.481,-0.363 -2.222,-1.144 -2.222,-2.342 0,-0.72 0.193,-1.183 0.577,-1.388 0.385,-0.206 0.933,-0.221 1.645,-0.047 l 5.64,1.38 c 0.541,0.132 0.962,0.07 1.261,-0.186 0.299,-0.257 0.448,-0.67 0.448,-1.239 v -0.72 c 0,-0.54 -0.136,-1.008 -0.406,-1.403 -0.271,-0.396 -0.705,-0.667 -1.303,-0.813 l -8.588,-2.102 c -4.614,-1.129 -6.921,0.764 -6.921,5.68 v 7.643 c 0,2.488 0.555,4.407 1.666,5.759 1.111,1.35 2.876,2.322 5.298,2.915 l 3.973,0.972 c 2.421,0.592 4.194,0.486 5.32,-0.317 1.124,-0.804 1.688,-2.45 1.688,-4.937 z m -20.509,-17.068 c 0,-1.859 -0.883,-3.004 -2.649,-3.436 l -2.692,-0.659 c -1.766,-0.432 -2.649,0.281 -2.649,2.139 v 21.627 c 0,1.948 0.94,3.153 2.82,3.613 l 2.35,0.575 c 1.88,0.46 2.82,-0.285 2.82,-2.233 z m -17.285,7.91 c 0,-2.039 -0.541,-3.588 -1.623,-4.647 -1.083,-1.059 -2.707,-1.958 -4.871,-2.697 l -0.428,-0.15 c -0.626,-0.214 -1.125,-0.508 -1.495,-0.883 -0.37,-0.376 -0.556,-0.953 -0.556,-1.732 v -0.405 c 0,-0.96 0.236,-1.531 0.706,-1.716 0.47,-0.184 1.089,-0.183 1.858,0.006 l 4.487,1.097 c 0.626,0.154 1.068,0.104 1.324,-0.148 0.256,-0.252 0.385,-0.647 0.385,-1.187 v -0.719 c 0,-1.199 -0.57,-1.938 -1.709,-2.217 l -7.948,-1.945 c -1.196,-0.292 -2.228,-0.433 -3.097,-0.42 -0.869,0.012 -1.596,0.201 -2.179,0.568 -0.584,0.366 -1.012,0.944 -1.282,1.732 -0.271,0.788 -0.406,1.796 -0.406,3.025 v 0.36 c 0,1.049 0.107,1.93 0.32,2.641 0.214,0.712 0.577,1.34 1.09,1.886 0.513,0.544 1.182,1.031 2.008,1.458 0.826,0.426 1.851,0.865 3.076,1.314 l 0.342,0.129 c 0.627,0.213 1.125,0.523 1.495,0.928 0.371,0.405 0.556,1.013 0.556,1.822 0,0.959 -0.235,1.591 -0.705,1.896 -0.47,0.304 -1.09,0.362 -1.859,0.174 l -4.272,-1.045 c -1.169,-0.286 -1.752,0.171 -1.752,1.37 v 0.674 c 0,0.54 0.135,1.014 0.406,1.426 0.271,0.41 0.719,0.693 1.346,0.846 l 7.819,1.913 c 2.392,0.586 4.151,0.522 5.277,-0.192 1.124,-0.714 1.687,-2.3 1.687,-4.758 z m -25.934,-6.166 c 0,0.838 -0.207,1.5 -0.62,1.984 -0.413,0.483 -1.275,0.564 -2.585,0.243 -0.655,-0.16 -1.196,-0.375 -1.623,-0.644 -0.428,-0.27 -0.755,-0.567 -0.983,-0.892 -0.228,-0.326 -0.385,-0.679 -0.47,-1.059 -0.086,-0.381 -0.128,-0.782 -0.128,-1.201 0,-0.42 0.042,-0.798 0.128,-1.137 0.085,-0.339 0.242,-0.616 0.47,-0.83 0.228,-0.214 0.555,-0.343 0.983,-0.389 0.427,-0.045 0.968,0.013 1.623,0.173 0.655,0.16 1.189,0.365 1.603,0.617 0.412,0.25 0.74,0.541 0.982,0.869 0.242,0.33 0.406,0.685 0.492,1.065 0.085,0.381 0.128,0.78 0.128,1.201 m 7.477,1.559 c 0,-1.319 -0.135,-2.438 -0.406,-3.359 -0.271,-0.92 -0.669,-1.7 -1.196,-2.338 -0.528,-0.639 -1.182,-1.159 -1.966,-1.56 -0.783,-0.402 -1.702,-0.731 -2.756,-0.989 l -1.751,-0.429 c -1.482,-0.362 -2.222,-1.144 -2.222,-2.342 0,-0.719 0.192,-1.182 0.577,-1.388 0.384,-0.205 0.932,-0.221 1.645,-0.046 l 5.639,1.38 c 0.541,0.132 0.962,0.07 1.261,-0.187 0.299,-0.257 0.448,-0.67 0.448,-1.239 v -0.719 c 0,-0.54 -0.135,-1.008 -0.405,-1.403 -0.271,-0.397 -0.705,-0.668 -1.304,-0.814 l -8.588,-2.101 c -4.614,-1.13 -6.921,0.763 -6.921,5.679 v 7.644 c 0,2.487 0.555,4.407 1.666,5.758 1.111,1.351 2.877,2.323 5.298,2.915 l 3.974,0.972 c 2.421,0.593 4.194,0.487 5.319,-0.316 1.125,-0.805 1.688,-2.45 1.688,-4.938 z m -20.594,-12.547 c 0,-2.489 -0.555,-4.468 -1.666,-5.938 -1.111,-1.471 -2.877,-2.503 -5.298,-3.095 l -8.374,-2.05 c -1.767,-0.432 -2.649,0.281 -2.649,2.14 v 16.321 c 0,1.917 0.882,3.093 2.649,3.525 l 2.649,0.649 c 1.765,0.432 2.648,-0.312 2.648,-2.23 v -12.364 c 0,-0.87 0.221,-1.482 0.663,-1.839 0.441,-0.357 1.075,-0.433 1.901,-0.231 l 0.47,0.115 c 0.769,0.188 1.382,0.547 1.837,1.079 0.456,0.53 0.684,1.276 0.684,2.235 v 13.039 c 0,0.779 0.192,1.388 0.577,1.827 0.384,0.439 0.876,0.732 1.474,0.878 l 0.385,0.094 c 0.654,0.16 1.16,0.089 1.516,-0.213 0.356,-0.303 0.534,-0.799 0.534,-1.488 z m -20.465,13.426 c 0,-0.66 -0.157,-1.223 -0.47,-1.689 -0.314,-0.467 -0.841,-0.79 -1.581,-0.971 l -0.684,-0.168 c -0.741,-0.181 -1.26,-0.114 -1.559,0.204 -0.3,0.315 -0.449,0.803 -0.449,1.463 v 0.765 c 0,0.689 0.171,1.262 0.513,1.721 0.341,0.458 0.839,0.767 1.495,0.928 l 0.684,0.167 c 0.654,0.16 1.16,0.097 1.517,-0.19 0.355,-0.288 0.534,-0.777 0.534,-1.466 z m 0,-22.976 c 0,-1.858 -0.884,-3.003 -2.649,-3.435 l -2.692,-0.659 c -1.767,-0.432 -2.649,0.281 -2.649,2.139 v 16.231 c 0,1.979 0.94,3.198 2.82,3.658 l 2.35,0.575 c 1.88,0.46 2.82,-0.299 2.82,-2.277 z m -10.511,1.97 c 0,-4.886 -2.336,-7.901 -7.007,-9.044 l -4.016,-0.982 c -2.421,-0.593 -4.195,-0.427 -5.32,0.496 -1.125,0.923 -1.687,2.629 -1.687,5.118 v 12.454 c 0,0.689 0.185,1.274 0.555,1.755 0.37,0.479 0.883,0.8 1.538,0.96 l 0.342,0.084 c 0.627,0.153 1.125,0.103 1.496,-0.151 0.37,-0.255 0.555,-0.771 0.555,-1.55 v -9.217 c 0,-0.96 0.235,-1.592 0.705,-1.896 0.47,-0.305 1.09,-0.363 1.859,-0.175 l 0.47,0.115 c 0.826,0.202 1.459,0.59 1.901,1.162 0.441,0.573 0.662,1.294 0.662,2.163 l -0.042,8.577 c 0,1.889 0.897,3.053 2.691,3.492 l 2.649,0.648 c 1.766,0.432 2.649,-0.296 2.649,-2.185 z m -19.91,-5.726 c 0,-1.26 -0.143,-2.344 -0.427,-3.252 -0.285,-0.91 -0.713,-1.681 -1.282,-2.315 -0.57,-0.634 -1.296,-1.157 -2.179,-1.567 -0.883,-0.411 -1.923,-0.763 -3.119,-1.056 l -8.545,-2.091 c -0.542,-0.132 -0.962,-0.07 -1.261,0.187 -0.299,0.256 -0.448,0.669 -0.448,1.239 v 0.674 c 0,0.54 0.128,1.005 0.384,1.398 0.256,0.392 0.698,0.665 1.325,0.819 l 4.999,1.223 c 0.769,0.188 1.388,0.459 1.858,0.815 0.47,0.354 0.705,1.011 0.705,1.97 v 0.27 c 0,0.779 -0.185,1.266 -0.555,1.461 -0.371,0.193 -0.87,0.214 -1.496,0.061 l -0.854,-0.21 c -4.33,-1.059 -6.495,0.494 -6.495,4.661 v 5.485 c 0,2.458 0.556,4.347 1.667,5.668 1.11,1.321 2.876,2.278 5.298,2.871 l 3.333,0.815 c 2.449,0.6 4.222,0.426 5.319,-0.519 1.096,-0.946 1.645,-2.663 1.645,-5.151 v -3.642 c 0,-0.779 -0.186,-1.371 -0.556,-1.776 -0.37,-0.406 -0.854,-0.682 -1.452,-0.828 l -0.385,-0.094 c -0.655,-0.16 -1.161,-0.104 -1.516,0.168 -0.357,0.273 -0.535,0.753 -0.535,1.443 v 0.315 c 0,0.869 -0.228,1.42 -0.683,1.653 -0.456,0.233 -1.068,0.271 -1.837,0.113 l -3.248,-0.794 c -0.797,-0.196 -1.424,-0.559 -1.88,-1.09 -0.456,-0.532 -0.683,-1.276 -0.683,-2.236 v -1.213 c 0,-0.78 0.185,-1.289 0.555,-1.528 0.37,-0.24 0.855,-0.285 1.453,-0.139 l 4.358,1.021 c 2.478,0.576 4.187,0.478 5.127,-0.296 0.94,-0.775 1.41,-2.211 1.41,-4.309 z"
       style="fill:#130c0e;fill-opacity:1;fill-rule:nonzero;stroke:none"
       transform="matrix(1.3333333,0,0,-1.3333333,645.6288,492.0276)"
       clip-path="url(#clipPath2)" />
    <path
       id="path3"
       d="M 0,0 C 0,-0.69 -0.185,-1.267 -0.555,-1.732 -0.926,-2.198 -1.438,-2.51 -2.093,-2.67 l -0.342,-0.084 c -0.627,-0.153 -1.126,-0.111 -1.496,0.129 -0.37,0.239 -0.555,0.747 -0.555,1.527 v 12.32 c 0,0.689 0.185,1.266 0.555,1.732 0.37,0.465 0.883,0.778 1.539,0.938 l 0.341,0.084 c 0.627,0.153 1.125,0.11 1.496,-0.129 C -0.185,13.607 0,13.098 0,12.32 Z m 1.667,-9.663 c 0,-1.859 -0.883,-3.004 -2.649,-3.436 l -2.65,-0.648 c -1.766,-0.433 -2.649,0.28 -2.649,2.139 v 2.293 c 0,1.978 0.926,3.194 2.778,3.647 l 2.392,0.585 C 0.741,-4.63 1.667,-5.392 1.667,-7.37 Z m -9.723,-3.009 c 0,-0.69 -0.178,-1.265 -0.534,-1.726 -0.357,-0.463 -0.862,-0.774 -1.517,-0.934 l -0.384,-0.094 c -0.628,-0.153 -1.126,-0.111 -1.496,0.129 -0.371,0.238 -0.555,0.747 -0.555,1.527 v 9.037 c 0,0.96 -0.229,1.593 -0.684,1.902 -0.456,0.308 -1.083,0.364 -1.88,0.169 l -0.427,-0.105 c -0.827,-0.202 -1.46,-0.589 -1.902,-1.162 -0.441,-0.573 -0.661,-1.294 -0.661,-2.163 v -9.037 c 0,-0.689 -0.187,-1.267 -0.556,-1.732 -0.371,-0.466 -0.883,-0.778 -1.538,-0.938 l -0.342,-0.084 c -0.627,-0.153 -1.126,-0.111 -1.495,0.129 -0.371,0.238 -0.556,0.747 -0.556,1.527 v 12.994 c 0,0.959 -0.235,1.591 -0.705,1.896 -0.47,0.305 -1.09,0.363 -1.859,0.174 l -0.47,-0.115 c -0.826,-0.202 -1.452,-0.587 -1.88,-1.157 -0.427,-0.569 -0.641,-1.288 -0.641,-2.157 v -12.365 c 0,-1.858 -0.883,-3.003 -2.649,-3.435 l -2.692,-0.659 c -1.766,-0.432 -2.649,0.281 -2.649,2.139 v 16.366 c 0,1.889 0.883,3.049 2.649,3.481 l 18.459,4.517 c 2.42,0.592 4.187,0.41 5.298,-0.547 1.11,-0.958 1.666,-2.665 1.666,-5.122 z m -30.591,-6.856 c 0,-1.859 -0.884,-3.004 -2.65,-3.436 l -2.649,-0.648 c -1.794,-0.439 -2.692,0.27 -2.692,2.129 l 0.043,12.599 c 0,0.869 -0.221,1.482 -0.662,1.839 -0.442,0.356 -1.076,0.434 -1.902,0.232 l -0.47,-0.115 c -0.769,-0.188 -1.388,-0.55 -1.858,-1.085 -0.47,-0.534 -0.705,-1.282 -0.705,-2.24 v -13.219 c 0,-0.78 -0.186,-1.38 -0.556,-1.799 -0.37,-0.421 -0.869,-0.708 -1.495,-0.861 l -0.342,-0.084 c -0.655,-0.16 -1.168,-0.099 -1.538,0.186 -0.371,0.284 -0.555,0.771 -0.555,1.46 v 22.346 c 0,1.888 0.882,3.049 2.649,3.481 l 2.691,0.659 c 1.766,0.432 2.635,-0.27 2.607,-2.106 v -0.404 c -0.029,-0.697 0.121,-1.2 0.449,-1.509 0.326,-0.31 0.861,-0.374 1.602,-0.192 l 1.025,0.251 c 2.421,0.592 4.194,0.419 5.32,-0.52 1.124,-0.939 1.688,-2.637 1.688,-5.095 z m -19.996,-0.352 c 0,-2.458 -0.563,-4.431 -1.688,-5.921 -1.126,-1.489 -2.899,-2.53 -5.32,-3.122 l -4.016,-0.983 c -4.672,-1.143 -7.007,0.728 -7.007,5.614 v 17.175 c 0,1.888 0.882,3.049 2.649,3.481 l 2.692,0.659 c 0.855,0.209 1.517,0.115 1.987,-0.279 0.47,-0.395 0.676,-1.168 0.619,-2.321 -0.057,-1.423 0.626,-1.96 2.051,-1.611 l 5.554,1.359 c 0.741,0.181 1.268,0.1 1.581,-0.243 0.314,-0.343 0.47,-0.844 0.47,-1.503 0,-1.5 -0.683,-2.416 -2.051,-2.75 l -7.562,-1.851 c -1.254,-0.307 -2.151,-0.863 -2.692,-1.67 -0.541,-0.807 -0.812,-1.78 -0.812,-2.919 v -6.924 c 0,-0.87 0.214,-1.484 0.641,-1.844 0.428,-0.36 1.054,-0.439 1.88,-0.237 l 0.47,0.115 c 0.769,0.189 1.381,0.547 1.837,1.079 0.456,0.531 0.684,1.276 0.684,2.236 v 5.215 c 0,0.78 0.185,1.372 0.555,1.777 0.37,0.405 0.869,0.685 1.496,0.838 l 3.888,0.952 c 0.655,0.16 1.168,0.105 1.538,-0.163 0.37,-0.269 0.556,-0.749 0.556,-1.438 z m -20.551,-4.984 c 0,-1.528 -0.214,-2.855 -0.641,-3.978 -0.399,-0.968 -0.904,-1.766 -1.517,-2.395 -0.613,-0.629 -1.332,-1.195 -2.158,-1.697 -0.313,-0.196 -0.534,-0.519 -0.662,-0.971 -0.128,-0.451 -0.192,-0.931 -0.192,-1.441 v -1.978 c 0,-1.888 -0.883,-3.049 -2.649,-3.481 l -2.692,-0.659 c -1.767,-0.432 -2.649,0.297 -2.649,2.185 v 1.978 c 0,1.229 -0.37,1.933 -1.111,2.111 -0.712,0.125 -1.324,0.357 -1.837,0.697 -0.513,0.339 -0.926,0.83 -1.239,1.473 -0.456,0.937 -0.684,2.185 -0.684,3.744 v 12.499 c 0,0.69 0.185,1.259 0.556,1.71 0.37,0.45 0.882,0.755 1.538,0.916 l 0.342,0.083 c 0.626,0.154 1.125,0.118 1.495,-0.106 0.37,-0.224 0.556,-0.726 0.556,-1.505 v -13.263 c 0,-0.96 0.234,-1.584 0.704,-1.874 0.47,-0.289 1.09,-0.34 1.859,-0.152 l 0.47,0.115 c 0.826,0.202 1.46,0.582 1.901,1.14 0.442,0.557 0.663,1.271 0.663,2.14 v 12.544 c 0,1.889 0.882,3.049 2.649,3.481 l 2.649,0.648 c 1.765,0.432 2.649,-0.295 2.649,-2.184 z m -20.551,-9.615 c 0,-1.858 -0.883,-3.003 -2.649,-3.435 l -2.649,-0.649 c -1.794,-0.439 -2.692,0.27 -2.692,2.129 l 0.043,12.6 c 0,0.869 -0.221,1.481 -0.663,1.839 -0.441,0.356 -1.075,0.433 -1.901,0.231 l -0.47,-0.115 c -0.769,-0.188 -1.389,-0.55 -1.859,-1.084 -0.469,-0.535 -0.704,-1.282 -0.704,-2.241 v -13.218 c 0,-0.78 -0.186,-1.38 -0.556,-1.8 -0.37,-0.42 -0.869,-0.707 -1.495,-0.86 l -0.342,-0.084 c -0.655,-0.16 -1.168,-0.099 -1.538,0.186 -0.371,0.284 -0.556,0.77 -0.556,1.46 v 22.346 c 0,1.888 0.883,3.048 2.649,3.481 l 2.692,0.658 c 1.766,0.432 2.634,-0.27 2.607,-2.105 v -0.404 c -0.029,-0.698 0.12,-1.2 0.448,-1.51 0.327,-0.309 0.861,-0.373 1.603,-0.192 l 1.025,0.251 c 2.42,0.592 4.194,0.42 5.319,-0.519 1.125,-0.939 1.688,-2.637 1.688,-5.095 z m -20.38,-4.987 c 0,-1.858 -0.884,-3.003 -2.65,-3.436 l -2.649,-0.648 c -1.794,-0.439 -2.692,0.27 -2.692,2.129 v 3.911 c 0,0.96 -0.199,1.563 -0.598,1.81 -0.399,0.247 -0.997,0.274 -1.794,0.079 -0.741,-0.182 -1.254,-0.105 -1.538,0.23 -0.286,0.334 -0.428,0.817 -0.428,1.446 v 0.405 c 0,0.689 0.178,1.272 0.535,1.749 0.356,0.476 0.861,0.796 1.516,0.956 l 3.632,0.889 c 0.826,0.202 1.403,0.507 1.731,0.918 0.327,0.409 0.491,1.124 0.491,2.143 v 0.315 c 0,0.959 -0.235,1.523 -0.705,1.693 -0.47,0.17 -1.09,0.161 -1.859,-0.027 l -4.016,-0.983 c -0.826,-0.202 -1.453,-0.588 -1.88,-1.157 -0.427,-0.57 -0.641,-1.289 -0.641,-2.158 v -14.207 c 0,-0.69 -0.186,-1.267 -0.555,-1.732 -0.371,-0.467 -0.884,-0.779 -1.538,-0.939 l -0.342,-0.084 c -0.627,-0.153 -1.126,-0.11 -1.496,0.129 -0.37,0.239 -0.555,0.748 -0.555,1.528 v 17.804 c 0,4.916 2.335,7.946 7.007,9.089 l 4.016,0.983 c 2.421,0.592 4.194,0.419 5.32,-0.52 1.125,-0.939 1.688,-2.652 1.688,-5.14 v -4.181 c 0,-1.109 -0.235,-2.118 -0.705,-3.027 -0.47,-0.91 -1.119,-1.526 -1.945,-1.848 0.826,0.113 1.475,-0.201 1.945,-0.94 0.47,-0.739 0.705,-1.634 0.705,-2.682 z m -35.353,3.669 c 0,0.839 -0.207,1.5 -0.62,1.984 -0.413,0.483 -1.275,0.564 -2.584,0.244 -0.656,-0.161 -1.197,-0.376 -1.624,-0.644 -0.427,-0.27 -0.755,-0.567 -0.983,-0.893 -0.228,-0.326 -0.384,-0.679 -0.47,-1.059 -0.085,-0.38 -0.128,-0.781 -0.128,-1.2 0,-0.42 0.043,-0.799 0.128,-1.138 0.086,-0.339 0.242,-0.615 0.47,-0.829 0.228,-0.214 0.556,-0.344 0.983,-0.389 0.427,-0.046 0.968,0.012 1.624,0.173 0.654,0.16 1.188,0.365 1.601,0.616 0.413,0.251 0.741,0.541 0.983,0.87 0.242,0.329 0.406,0.684 0.492,1.065 0.085,0.38 0.128,0.78 0.128,1.2 m 7.477,1.56 c 0,-1.319 -0.135,-2.439 -0.406,-3.359 -0.271,-0.921 -0.669,-1.7 -1.196,-2.339 -0.528,-0.639 -1.182,-1.159 -1.966,-1.56 -0.783,-0.402 -1.702,-0.731 -2.755,-0.989 l -1.752,-0.428 c -1.482,-0.363 -2.222,-1.144 -2.222,-2.342 0,-0.72 0.192,-1.183 0.576,-1.388 0.385,-0.206 0.933,-0.221 1.646,-0.047 l 5.64,1.38 c 0.54,0.132 0.961,0.07 1.26,-0.186 0.299,-0.257 0.448,-0.67 0.448,-1.239 v -0.72 c 0,-0.539 -0.135,-1.007 -0.405,-1.403 -0.271,-0.396 -0.705,-0.667 -1.303,-0.813 l -8.588,-2.102 c -4.615,-1.129 -6.922,0.764 -6.922,5.68 v 7.643 c 0,2.488 0.555,4.407 1.666,5.759 1.111,1.35 2.877,2.322 5.298,2.915 l 3.974,0.972 c 2.42,0.592 4.194,0.487 5.319,-0.317 1.125,-0.804 1.688,-2.45 1.688,-4.937 z m -20.551,-17.079 c 0,-1.858 -0.883,-3.003 -2.649,-3.435 l -2.649,-0.649 c -1.794,-0.439 -2.692,0.27 -2.692,2.129 l 0.043,12.6 c 0,0.869 -0.221,1.481 -0.663,1.839 -0.441,0.356 -1.075,0.434 -1.901,0.231 l -0.47,-0.115 c -0.769,-0.188 -1.388,-0.55 -1.858,-1.084 -0.47,-0.535 -0.705,-1.282 -0.705,-2.241 v -13.218 c 0,-0.78 -0.186,-1.38 -0.556,-1.8 -0.37,-0.42 -0.869,-0.707 -1.495,-0.86 l -0.342,-0.084 c -0.655,-0.16 -1.168,-0.099 -1.538,0.186 -0.371,0.284 -0.556,0.77 -0.556,1.46 v 22.346 c 0,1.888 0.883,3.048 2.649,3.481 l 2.692,0.658 c 1.766,0.432 2.635,-0.27 2.607,-2.105 v -0.404 c -0.029,-0.698 0.12,-1.2 0.448,-1.51 0.327,-0.309 0.861,-0.373 1.603,-0.192 l 1.025,0.251 c 2.42,0.593 4.194,0.42 5.319,-0.519 1.125,-0.939 1.688,-2.637 1.688,-5.095 z m -19.995,-0.351 c 0,-2.458 -0.564,-4.432 -1.688,-5.921 -1.126,-1.49 -2.899,-2.53 -5.32,-3.123 l -4.016,-0.982 c -4.672,-1.144 -7.007,0.728 -7.007,5.614 v 17.175 c 0,1.888 0.882,3.048 2.649,3.481 l 2.691,0.658 c 0.855,0.21 1.518,0.116 1.988,-0.278 0.47,-0.395 0.676,-1.168 0.619,-2.321 -0.057,-1.424 0.626,-1.96 2.051,-1.612 l 5.554,1.36 c 0.741,0.181 1.267,0.1 1.581,-0.243 0.314,-0.343 0.47,-0.845 0.47,-1.503 0,-1.5 -0.683,-2.416 -2.051,-2.751 l -7.563,-1.85 c -1.253,-0.307 -2.15,-0.864 -2.691,-1.671 -0.542,-0.807 -0.812,-1.779 -0.812,-2.918 v -6.924 c 0,-0.87 0.213,-1.485 0.641,-1.844 0.427,-0.361 1.054,-0.439 1.88,-0.237 l 0.47,0.115 c 0.769,0.188 1.381,0.547 1.837,1.079 0.456,0.531 0.684,1.276 0.684,2.236 v 5.215 c 0,0.779 0.185,1.372 0.555,1.777 0.37,0.405 0.869,0.684 1.496,0.838 l 3.888,0.951 c 0.655,0.16 1.168,0.106 1.538,-0.162 0.37,-0.27 0.556,-0.749 0.556,-1.438 z m -35.284,-0.766 c 0,0.959 -0.235,1.591 -0.705,1.896 -0.47,0.304 -1.089,0.363 -1.859,0.175 l -1.11,-0.272 c -0.798,-0.196 -1.418,-0.58 -1.859,-1.152 -0.442,-0.574 -0.662,-1.294 -0.662,-2.163 v -4.811 c 0,-1.798 0.839,-2.492 2.521,-2.081 l 1.11,0.272 c 0.77,0.188 1.389,0.549 1.859,1.085 0.47,0.534 0.705,1.281 0.705,2.24 z m 7.349,-6.025 c 0,-2.488 -0.549,-4.473 -1.645,-5.955 -1.097,-1.483 -2.87,-2.523 -5.32,-3.123 l -4.058,-0.993 c -4.644,-1.136 -6.965,0.753 -6.965,5.669 v 7.194 c 0,4.946 2.321,7.987 6.965,9.123 l 4.058,0.993 c 2.421,0.593 4.188,0.41 5.298,-0.547 1.111,-0.957 1.667,-2.68 1.667,-5.167 z m -19.782,-4.885 c 0,-2.458 -0.563,-4.432 -1.688,-5.921 -1.125,-1.49 -2.899,-2.531 -5.319,-3.123 l -4.016,-0.983 c -4.672,-1.143 -7.008,0.729 -7.008,5.615 v 17.175 c 0,1.888 0.883,3.048 2.649,3.481 l 2.692,0.658 c 0.855,0.209 1.517,0.116 1.987,-0.278 0.47,-0.395 0.677,-1.168 0.62,-2.321 -0.058,-1.424 0.626,-1.96 2.051,-1.612 l 5.554,1.359 c 0.74,0.182 1.267,0.101 1.581,-0.242 0.313,-0.344 0.47,-0.845 0.47,-1.504 0,-1.499 -0.684,-2.415 -2.051,-2.75 l -7.563,-1.85 c -1.253,-0.307 -2.151,-0.864 -2.691,-1.671 -0.542,-0.807 -0.812,-1.78 -0.812,-2.918 v -6.924 c 0,-0.87 0.213,-1.485 0.641,-1.844 0.427,-0.361 1.053,-0.439 1.88,-0.237 l 0.47,0.115 c 0.769,0.188 1.381,0.547 1.837,1.079 0.455,0.531 0.684,1.276 0.684,2.236 v 5.215 c 0,0.779 0.184,1.371 0.555,1.777 0.37,0.405 0.868,0.684 1.496,0.838 l 3.888,0.951 c 0.654,0.16 1.167,0.106 1.538,-0.163 0.369,-0.269 0.555,-0.748 0.555,-1.438 z m -20.38,-10.158 c 0,-0.69 -0.186,-1.267 -0.555,-1.732 -0.371,-0.466 -0.884,-0.778 -1.538,-0.938 l -0.342,-0.084 c -0.627,-0.154 -1.126,-0.111 -1.495,0.129 -0.371,0.238 -0.557,0.747 -0.557,1.527 v 13.084 c 0,0.959 -0.234,1.59 -0.704,1.895 -0.47,0.305 -1.09,0.363 -1.86,0.175 l -0.469,-0.115 c -0.827,-0.202 -1.453,-0.588 -1.88,-1.156 -0.427,-0.57 -0.641,-1.289 -0.641,-2.158 v -12.455 c 0,-1.858 -0.883,-3.003 -2.649,-3.435 l -2.692,-0.659 c -1.766,-0.432 -2.649,0.281 -2.649,2.139 v 16.411 c 0,1.858 0.883,3.004 2.649,3.436 l 8.374,2.049 c 2.422,0.593 4.195,0.42 5.32,-0.519 1.125,-0.939 1.688,-2.637 1.688,-5.095 z m -20.509,18.586 c 0,-0.66 -0.157,-1.223 -0.47,-1.688 -0.314,-0.467 -0.84,-0.791 -1.581,-0.972 l -0.683,-0.167 c -0.741,-0.182 -1.261,-0.114 -1.56,0.203 -0.299,0.316 -0.448,0.804 -0.448,1.464 v 0.764 c 0,0.689 0.17,1.263 0.512,1.722 0.342,0.458 0.84,0.767 1.496,0.927 l 0.683,0.168 c 0.655,0.16 1.161,0.096 1.517,-0.191 0.356,-0.288 0.534,-0.776 0.534,-1.465 z m 0,-22.975 c 0,-1.859 -0.883,-3.004 -2.649,-3.436 l -2.692,-0.658 c -1.766,-0.433 -2.649,0.28 -2.649,2.139 v 16.231 c 0,1.978 0.94,3.197 2.82,3.657 l 2.35,0.575 c 1.88,0.46 2.82,-0.299 2.82,-2.277 z m -25.444,6.183 c 0,0.959 -0.235,1.591 -0.705,1.896 -0.47,0.304 -1.09,0.363 -1.859,0.175 l -1.025,-0.251 c -0.827,-0.203 -1.461,-0.591 -1.902,-1.163 -0.442,-0.573 -0.662,-1.294 -0.662,-2.163 v -4.81 c 0,-0.899 0.22,-1.52 0.662,-1.862 0.441,-0.341 1.075,-0.411 1.902,-0.209 l 1.025,0.251 c 0.769,0.188 1.389,0.557 1.859,1.107 0.47,0.549 0.705,1.289 0.705,2.218 z m 7.562,-5.883 c 0,-2.458 -0.57,-4.441 -1.709,-5.948 -1.139,-1.509 -2.92,-2.558 -5.341,-3.151 l -0.982,-0.24 c -0.741,-0.182 -1.268,-0.505 -1.581,-0.971 -0.314,-0.466 -0.47,-1.044 -0.47,-1.734 l 0.042,-1.743 c 0.029,-0.952 -0.192,-1.711 -0.662,-2.275 -0.47,-0.565 -1.132,-0.952 -1.986,-1.161 l -2.692,-0.659 c -1.767,-0.432 -2.649,0.282 -2.649,2.14 v 18.389 c 0,4.976 2.335,8.035 7.007,9.178 l 4.016,0.983 c 2.421,0.592 4.194,0.404 5.319,-0.564 1.126,-0.969 1.688,-2.697 1.688,-5.185 z m -24.396,-6.554 c 0,0.839 -0.207,1.5 -0.62,1.984 -0.413,0.483 -1.275,0.565 -2.585,0.244 -0.655,-0.16 -1.196,-0.376 -1.623,-0.644 -0.428,-0.27 -0.763,-0.569 -1.005,-0.898 -0.242,-0.329 -0.405,-0.684 -0.491,-1.065 -0.085,-0.38 -0.128,-0.78 -0.128,-1.2 0,-0.42 0.043,-0.799 0.128,-1.138 0.086,-0.338 0.249,-0.613 0.491,-0.823 0.242,-0.211 0.577,-0.339 1.005,-0.384 0.427,-0.046 0.968,0.012 1.623,0.172 0.655,0.16 1.189,0.365 1.602,0.617 0.413,0.251 0.741,0.541 0.983,0.87 0.242,0.329 0.406,0.684 0.492,1.064 0.085,0.381 0.128,0.781 0.128,1.201 m 3.845,-3.24 c 0,-0.87 -0.221,-1.591 -0.662,-2.163 -0.442,-0.574 -1.076,-0.96 -1.901,-1.162 l -8.375,-2.05 c -2.421,-0.592 -4.195,-0.494 -5.319,0.295 -1.126,0.788 -1.688,2.412 -1.688,4.87 v 0.179 c 0,1.289 0.135,2.401 0.406,3.337 0.27,0.936 0.669,1.73 1.196,2.384 0.527,0.652 1.182,1.18 1.966,1.582 0.783,0.401 1.701,0.731 2.755,0.989 l 1.752,0.429 c 0.684,0.167 1.218,0.447 1.602,0.842 0.385,0.393 0.577,0.89 0.577,1.49 0,0.719 -0.192,1.189 -0.577,1.409 -0.384,0.221 -0.918,0.248 -1.602,0.08 l -5.64,-1.38 c -1.139,-0.279 -1.709,0.196 -1.709,1.425 v 0.72 c 0,0.54 0.129,1.005 0.385,1.398 0.256,0.392 0.697,0.665 1.324,0.819 l 8.588,2.101 c 4.615,1.129 6.922,-0.779 6.922,-5.725 z m -17.119,17.841 c 0,-1.229 -0.57,-1.982 -1.709,-2.261 l -0.556,-0.136 c -0.826,-0.202 -1.46,-0.582 -1.901,-1.14 -0.442,-0.558 -0.662,-1.286 -0.662,-2.185 v -17.4 c 0,-1.859 -0.883,-3.004 -2.649,-3.436 l -2.607,-0.638 c -1.794,-0.439 -2.691,0.27 -2.691,2.129 v 17.4 c 0,0.899 -0.222,1.52 -0.663,1.862 -0.442,0.341 -1.075,0.411 -1.901,0.209 l -0.598,-0.146 c -1.14,-0.279 -1.709,0.195 -1.709,1.424 v 0.765 c 0,0.54 0.134,1.014 0.406,1.426 0.27,0.41 0.705,0.689 1.303,0.836 l 14.228,3.481 c 0.626,0.153 1.068,0.088 1.324,-0.193 0.257,-0.282 0.385,-0.692 0.385,-1.232 z"
       style="fill:#130c0e;fill-opacity:1;fill-rule:nonzero;stroke:none"
       transform="matrix(1.3333333,0,0,-1.3333333,640.75627,431.34373)"
       clip-path="url(#clipPath4)" />
    <path
       id="path5"
       d="m 0,0 c 4.894,12.547 7.441,25.99 7.441,39.551 0,59.928 -48.754,108.683 -108.682,108.683 -34.925,0 -67.126,-16.686 -87.342,-43.975 -14.012,7.001 -29.565,10.725 -45.455,10.725 -20.991,0 -41.147,-6.349 -58.288,-18.361 -8.889,-6.228 -16.637,-13.734 -23.038,-22.254 -17.194,10.789 -37.268,16.702 -57.836,16.702 -59.928,0 -108.683,-48.755 -108.683,-108.683 0,-24.092 7.724,-46.916 22.336,-66.007 10.206,-13.335 23.493,-24.17 38.472,-31.557 -0.205,-2.623 -0.307,-5.258 -0.307,-7.897 0,-55.669 45.29,-100.959 100.958,-100.959 20.885,0 40.931,6.328 57.972,18.298 10.137,7.121 18.774,15.914 25.603,25.984 11.397,-4.307 23.536,-6.533 35.935,-6.533 31.208,0 60.532,14.581 79.602,38.458 12.553,-5.597 26.176,-8.498 40.266,-8.498 54.679,0 99.163,44.484 99.163,99.162 C 18.117,-36.457 11.765,-16.626 0,0"
       style="fill:#00b3f0;fill-opacity:1;fill-rule:nonzero;stroke:none"
       transform="matrix(1.3333333,0,0,-1.3333333,642.5104,197.64573)"
       clip-path="url(#clipPath6)" />
    <path
       id="path7"
       d="m 0,0 c 5.98,12.826 9.115,26.918 9.115,41.162 0,53.688 -43.678,97.366 -97.365,97.366 -34.693,0 -66.385,-18.377 -83.768,-47.706 -14.529,9.386 -31.55,14.456 -49.029,14.456 -18.655,0 -36.565,-5.64 -51.793,-16.312 -10.96,-7.68 -19.969,-17.542 -26.538,-28.964 -17.159,13.703 -38.677,21.363 -60.831,21.363 -53.687,0 -97.366,-43.678 -97.366,-97.365 0,-40.116 24.959,-76.144 61.728,-90.631 -0.816,-4.887 -1.227,-9.848 -1.227,-14.83 0,-49.429 40.213,-89.642 89.641,-89.642 18.544,0 36.341,5.616 51.467,16.241 11.591,8.143 20.974,18.746 27.565,31.059 12.5,-6.276 26.297,-9.552 40.478,-9.552 30.846,0 59.619,16.027 76.091,41.624 13.257,-7.66 28.192,-11.663 43.777,-11.663 48.438,0 87.845,39.407 87.845,87.845 C 19.79,-35.123 12.811,-15.654 0,0"
       style="fill:#ffffff;fill-opacity:1;fill-rule:nonzero;stroke:none"
       transform="matrix(1.3333333,0,0,-1.3333333,625.18907,199.79413)"
       clip-path="url(#clipPath8)" />
    <path
       id="path9"
       d="m 0,0 c 7.066,12.623 11.1,27.174 11.1,42.669 0,48.317 -39.169,87.485 -87.486,87.485 -35.965,0 -66.856,-21.705 -80.302,-52.728 -14.093,12.138 -32.436,19.478 -52.495,19.478 -34.318,0 -63.615,-21.483 -75.187,-51.733 -15.969,17.115 -38.72,27.82 -63.975,27.82 -48.316,0 -87.485,-39.168 -87.485,-87.485 0,-39.96 26.791,-73.661 63.391,-84.124 -1.881,-6.792 -2.891,-13.947 -2.891,-21.337 0,-44.051 35.711,-79.761 79.761,-79.761 34.079,0 63.16,21.374 74.583,51.446 12.831,-8.649 28.289,-13.699 44.928,-13.699 32.056,0 59.733,18.744 72.674,45.869 13.101,-9.979 29.454,-15.908 47.194,-15.908 43.059,0 77.965,34.906 77.965,77.965 C 21.775,-33.06 13.483,-14.015 0,0"
       style="fill:#130c0e;fill-opacity:1;fill-rule:nonzero;stroke:none"
       transform="matrix(1.3333333,0,0,-1.3333333,609.37,201.80267)"
       clip-path="url(#clipPath10)" />
    <path
       id="path11"
       d="m 0,0 v 6.729 l -1.692,-7.12 -1.832,-0.423 -1.651,6.348 v -6.729 l -1.732,-0.4 v 8.056 l 2.706,0.624 1.631,-6.012 0.02,0.004 1.591,6.757 2.671,0.616 V 0.395 Z M -12.504,-2.887 V 3.74 L -15.29,3.097 v 1.428 l 7.369,1.702 V 4.798 l -2.686,-0.62 v -6.627 z"
       style="fill:#f15a22;fill-opacity:1;fill-rule:nonzero;stroke:none"
       transform="matrix(1.3333333,0,0,-1.3333333,609.3616,312.7916)"
       clip-path="url(#clipPath12)" />
    <path
       id="path13"
       d="m 0,0 c 0,0 -0.125,-32.699 -0.532,-38.45 -0.636,-8.985 -3.05,-9.226 -5.105,-7.878 -4.099,2.689 -11.758,18.003 -18.616,31.32 l -10.005,-2.31 v -82.747 l 12.234,2.824 0.042,20.996 c 0.021,10.778 2.964,11.479 7.239,7.564 3.245,-2.971 7.66,-9.522 14.618,-20.662 l 16.189,3.738 V 3.709 Z"
       style="fill:#f15a22;fill-opacity:1;fill-rule:nonzero;stroke:none"
       transform="matrix(1.3333333,0,0,-1.3333333,559.8064,198.62293)"
       clip-path="url(#clipPath14)" />
    <path
       id="path15"
       d="m 0,0 c -0.371,-0.002 -3.119,0.092 -3.413,2.188 -0.17,1.214 0.412,2.354 1.879,3.251 2.293,1.403 10.23,3.684 17.849,5.471 v 10.535 c 0,0 -13.795,-3.32 -18.037,-2.689 -1.289,0.192 -2.147,0.873 -2.318,2.064 -0.174,1.216 0.439,2.313 1.879,3.251 3.88,2.526 21.294,6.283 21.294,6.283 V 54.66 l -35.855,-8.278 v -64.797 l 36.606,8.451 V 3.501 C 10.114,1.282 3.51,0.019 0,0"
       style="fill:#f15a22;fill-opacity:1;fill-rule:nonzero;stroke:none"
       transform="matrix(1.3333333,0,0,-1.3333333,477.47133,309.1404)"
       clip-path="url(#clipPath16)" />
    <path
       id="path17"
       d="m 0,0 c 0,0 -3.884,-25.59 -7.333,-37.416 -0.985,-3.38 -3.367,-8.55 -6.607,-1.157 -1.161,2.648 -4.605,15.019 -7.133,30.967 l -11.186,-2.582 c 0.979,-10.966 6.349,-40.584 13.503,-57.839 l 21.694,5.008 c 7.985,21.132 12.776,43.452 14.404,67.023 z"
       style="fill:#f15a22;fill-opacity:1;fill-rule:nonzero;stroke:none"
       transform="matrix(1.3333333,0,0,-1.3333333,424.6208,244.68347)"
       clip-path="url(#clipPath18)" />
    <path
       id="path19"
       d="m 0,0 -7.668,-1.77 c -1.923,-0.444 -3.042,0.73 -2.807,3.474 0.219,2.567 1.343,8.009 1.771,9.846 0.945,4.064 2.804,5.758 4.989,6.063 2.801,0.391 5.248,-2.058 6.588,-8.696 C 3.002,8.275 3.329,6.944 3.542,5.133 3.801,2.936 2.722,0.628 0,0 m 9.561,36.683 c -5.429,10.003 -11.742,7.93 -14.977,6.859 -4.239,-1.402 -8.001,-3.579 -11.938,-19.194 -4.138,-16.413 -8.647,-50.932 -8.647,-50.932 l 11.357,2.622 1.173,6.578 c 0.564,3.157 2.574,5.163 5.637,6.064 2.945,0.867 8.801,2.284 11.805,2.626 1.27,0.144 2.761,-0.857 3.194,-2.845 l 1.535,-7.033 15.469,3.571 c 0,0 -7.695,38.949 -14.608,51.684"
       style="fill:#f15a22;fill-opacity:1;fill-rule:nonzero;stroke:none"
       transform="matrix(1.3333333,0,0,-1.3333333,360.53173,340.4996)"
       clip-path="url(#clipPath20)" />
    <path
       id="path21"
       d="m 0,0 c -0.371,-0.002 -3.119,0.092 -3.413,2.188 -0.17,1.214 0.412,2.354 1.879,3.251 2.293,1.403 10.23,3.684 17.849,5.471 v 10.535 c 0,0 -13.795,-3.32 -18.037,-2.689 -1.289,0.192 -2.147,0.873 -2.318,2.064 -0.174,1.216 0.439,2.313 1.879,3.251 3.88,2.526 21.294,6.283 21.294,6.283 v 26.2 L -16.722,48.277 V -16.52 l 36.606,8.451 V 3.501 C 10.114,1.282 3.51,0.019 0,0"
       style="fill:#f15a22;fill-opacity:1;fill-rule:nonzero;stroke:none"
       transform="matrix(1.3333333,0,0,-1.3333333,292.42693,357.85693)"
       clip-path="url(#clipPath22)" />
    <path
       id="path23"
       d="m 0,0 c 0,-12.93 0.065,-22.607 -1.706,-28.948 -1.076,-3.852 -3.445,-6.784 -6.607,-9.003 -3.222,-2.261 -6.451,-3.252 -9.614,-3.314 -3.856,-0.076 -6.675,2.022 -7.087,6.307 -0.592,6.156 -0.553,13.935 -0.553,24.715 l -13.998,-3.231 v -95.345 l 19.227,4.439 c 0,12.134 0.249,21.078 1.744,26.656 1.02,3.802 3.792,7.01 6.591,8.9 3.271,2.209 6.28,3.314 9.449,3.365 3.852,0.063 6.776,-1.925 7.139,-5.766 0.533,-5.627 0.568,-13.279 0.568,-23.721 l 14.246,3.289 V 4.479 Z"
       style="fill:#f15a22;fill-opacity:1;fill-rule:nonzero;stroke:none"
       transform="matrix(1.3333333,0,0,-1.3333333,233.1176,285.73413)"
       clip-path="url(#clipPath24)" />
    <path
       id="path25"
       d="m 0,0 v 83.019 l -11.349,-2.62 C -17.368,60.523 -20.772,50.804 -23.742,42.612 -28.797,28.67 -34.053,34.143 -36.491,38.035 -39.342,42.586 -43.2,51.454 -49.909,67.693 l -16.574,-3.826 v -76.818 l 13.743,3.172 c -0.104,12.436 0.111,19.683 0.783,22.964 0.603,2.947 2.379,3.363 4.18,0.439 1.481,-2.405 3.825,-7.608 8.485,-18.309 l 9.217,2.128 c 5.079,13.648 7.823,20.524 9.76,23.893 1.573,2.735 4.55,4.659 5.455,-0.397 0.685,-3.826 0.627,-11.523 0.606,-24.23 z"
       style="fill:#faa61a;fill-opacity:1;fill-rule:nonzero;stroke:none"
       transform="matrix(1.3333333,0,0,-1.3333333,557.9244,183.8624)"
       clip-path="url(#clipPath26)" />
    <path
       id="path27"
       d="m 0,0 c 0,0 0.273,-18.031 -0.342,-24 -0.815,-7.922 -14.857,-10.657 -15.451,-2.56 -0.266,3.614 -0.469,8.274 -0.469,18.916 l -11.475,-2.649 v -71.116 l 15.734,3.633 v 16.423 c 0,12.631 15.692,13.688 16.537,4.858 0.265,-2.776 0.401,-7.104 0.401,-16.085 l 11.475,2.649 v 73.72 z"
       style="fill:#faa61a;fill-opacity:1;fill-rule:nonzero;stroke:none"
       transform="matrix(1.3333333,0,0,-1.3333333,438.51147,123.88973)"
       clip-path="url(#clipPath28)" />
    <path
       id="path29"
       d="m 0,0 v -29.308 l 10.588,2.444 c 4.219,0.975 5.701,0.079 5.67,-8.398 v -37.664 l 12.545,2.896 v 34.854 c 0.087,14.962 1.842,18.059 9.283,19.777 l 6.644,1.534 v 24.192 z"
       style="fill:#faa61a;fill-opacity:1;fill-rule:nonzero;stroke:none"
       transform="matrix(1.3333333,0,0,-1.3333333,333.71253,137.49867)"
       clip-path="url(#clipPath30)" />
    <path
       id="path31"
       d="m 0,0 -13.379,-3.089 c 0,0 -0.083,-10.123 -0.823,-23.53 -0.787,-14.252 -16.141,-18.622 -17.017,-4.124 -0.56,9.261 -0.471,21.818 -0.471,21.818 l -16.015,-3.697 v -6.857 c 0,-26.701 3.068,-35.762 19.197,-34.02 3.772,0.407 6.644,1.605 9.88,3.796 0.202,0.137 0.458,0.14 0.698,-0.046 0.23,-0.178 0.603,-0.777 0.042,-2.52 -3.024,-9.389 -28.929,-12.181 -28.929,-12.181 v -20.98 c 14.805,2.179 30.919,5.331 39.375,19.38 C -4.284,-60.802 0,-54.466 0,0"
       style="fill:#faa61a;fill-opacity:1;fill-rule:nonzero;stroke:none"
       transform="matrix(1.3333333,0,0,-1.3333333,325.4532,154.09093)"
       clip-path="url(#clipPath32)" />
    <path
       id="path33"
       d="m 0,0 c 0,0 0.259,-17.136 -0.325,-22.809 -0.775,-7.529 -14.12,-10.128 -14.685,-2.433 -0.252,3.434 -0.445,7.864 -0.445,17.978 l -10.906,-2.518 v -67.587 l 14.954,3.452 v 15.608 c 0,12.005 14.913,13.009 15.716,4.618 0.252,-2.639 0.381,-6.752 0.381,-15.287 l 10.906,2.517 V 3.601 Z"
       style="fill:#faa61a;fill-opacity:1;fill-rule:nonzero;stroke:none"
       transform="matrix(1.3333333,0,0,-1.3333333,231.13293,169.10507)"
       clip-path="url(#clipPath34)" />
    <path
       id="path35"
       d="m 0,0 c -6.848,-1.746 -10.887,1.922 -10.887,11.127 0,7.342 0.139,14.923 13.581,14.923 9.571,0 13.572,-4.846 13.572,-10.313 C 16.266,10.976 10.442,2.662 0,0 m 40.186,30.328 c 0,16.907 -12.456,37.357 -64.577,24.812 v -91.951 l 13.573,3.133 v 16.613 c 0,6.752 3.89,5.509 6.372,3.892 1.928,-1.256 6.017,-4.551 15.683,-15.413 l 23.058,5.323 -17.968,18.397 c 0,0 23.859,9.608 23.859,35.194"
       style="fill:#faa61a;fill-opacity:1;fill-rule:nonzero;stroke:none"
       transform="matrix(1.3333333,0,0,-1.3333333,132.75173,235.92027)"
       clip-path="url(#clipPath36)" />
  </g>
</svg>
