<?xml version="1.0" encoding="UTF-8" standalone="no"?>
<!-- Created with Inkscape (http://www.inkscape.org/) -->

<svg
   version="1.1"
   id="svg1"
   width="666.66669"
   height="577.50934"
   viewBox="0 0 666.66669 577.50934"
   sodipodi:docname="Rhythm Heaven Logo with Tagline (American).ai"
   xmlns:inkscape="http://www.inkscape.org/namespaces/inkscape"
   xmlns:sodipodi="http://sodipodi.sourceforge.net/DTD/sodipodi-0.dtd"
   xmlns="http://www.w3.org/2000/svg"
   xmlns:svg="http://www.w3.org/2000/svg">
  <defs
     id="defs1">
    <clipPath
       clipPathUnits="userSpaceOnUse"
       id="clipPath2">
      <path
         d="M 0,433.132 H 500 V 0 H 0 Z"
         transform="translate(-475.28401,-60.275502)"
         id="path2" />
    </clipPath>
    <clipPath
       clipPathUnits="userSpaceOnUse"
       id="clipPath4">
      <path
         d="M 0,433.132 H 500 V 0 H 0 Z"
         transform="translate(-481.88281,-284.89811)"
         id="path4" />
    </clipPath>
    <clipPath
       clipPathUnits="userSpaceOnUse"
       id="clipPath6">
      <path
         d="M 0,433.132 H 500 V 0 H 0 Z"
         transform="translate(-468.89181,-283.28681)"
         id="path6" />
    </clipPath>
    <clipPath
       clipPathUnits="userSpaceOnUse"
       id="clipPath8">
      <path
         d="M 0,433.132 H 500 V 0 H 0 Z"
         transform="translate(-457.02751,-281.78051)"
         id="path8" />
    </clipPath>
    <clipPath
       clipPathUnits="userSpaceOnUse"
       id="clipPath10">
      <path
         d="M 0,433.132 H 500 V 0 H 0 Z"
         transform="translate(-457.02121,-198.5387)"
         id="path10" />
    </clipPath>
    <clipPath
       clipPathUnits="userSpaceOnUse"
       id="clipPath12">
      <path
         d="M 0,433.132 H 500 V 0 H 0 Z"
         transform="translate(-419.85481,-284.16521)"
         id="path12" />
    </clipPath>
    <clipPath
       clipPathUnits="userSpaceOnUse"
       id="clipPath14">
      <path
         d="M 0,433.132 H 500 V 0 H 0 Z"
         transform="translate(-358.10351,-201.27721)"
         id="path14" />
    </clipPath>
    <clipPath
       clipPathUnits="userSpaceOnUse"
       id="clipPath16">
      <path
         d="M 0,433.132 H 500 V 0 H 0 Z"
         transform="translate(-318.46561,-249.61991)"
         id="path16" />
    </clipPath>
    <clipPath
       clipPathUnits="userSpaceOnUse"
       id="clipPath18">
      <path
         d="M 0,433.132 H 500 V 0 H 0 Z"
         transform="translate(-270.3988,-177.75781)"
         id="path18" />
    </clipPath>
    <clipPath
       clipPathUnits="userSpaceOnUse"
       id="clipPath20">
      <path
         d="M 0,433.132 H 500 V 0 H 0 Z"
         transform="translate(-219.3202,-164.7397)"
         id="path20" />
    </clipPath>
    <clipPath
       clipPathUnits="userSpaceOnUse"
       id="clipPath22">
      <path
         d="M 0,433.132 H 500 V 0 H 0 Z"
         transform="translate(-174.8382,-218.83181)"
         id="path22" />
    </clipPath>
    <clipPath
       clipPathUnits="userSpaceOnUse"
       id="clipPath24">
      <path
         d="M 0,433.132 H 500 V 0 H 0 Z"
         transform="translate(-418.44331,-295.2356)"
         id="path24" />
    </clipPath>
    <clipPath
       clipPathUnits="userSpaceOnUse"
       id="clipPath26">
      <path
         d="M 0,433.132 H 500 V 0 H 0 Z"
         transform="translate(-328.88361,-340.21521)"
         id="path26" />
    </clipPath>
    <clipPath
       clipPathUnits="userSpaceOnUse"
       id="clipPath28">
      <path
         d="M 0,433.132 H 500 V 0 H 0 Z"
         transform="translate(-250.2844,-330.00841)"
         id="path28" />
    </clipPath>
    <clipPath
       clipPathUnits="userSpaceOnUse"
       id="clipPath30">
      <path
         d="M 0,433.132 H 500 V 0 H 0 Z"
         transform="translate(-244.08991,-317.56431)"
         id="path30" />
    </clipPath>
    <clipPath
       clipPathUnits="userSpaceOnUse"
       id="clipPath32">
      <path
         d="M 0,433.132 H 500 V 0 H 0 Z"
         transform="translate(-173.3497,-306.30371)"
         id="path32" />
    </clipPath>
    <clipPath
       clipPathUnits="userSpaceOnUse"
       id="clipPath34">
      <path
         d="M 0,433.132 H 500 V 0 H 0 Z"
         transform="translate(-99.5638,-256.19231)"
         id="path34" />
    </clipPath>
  </defs>
  <sodipodi:namedview
     id="namedview1"
     pagecolor="#ffffff"
     bordercolor="#000000"
     borderopacity="0.25"
     inkscape:showpageshadow="2"
     inkscape:pageopacity="0.0"
     inkscape:pagecheckerboard="0"
     inkscape:deskcolor="#d1d1d1">
    <inkscape:page
       x="0"
       y="0"
       inkscape:label="1"
       id="page1"
       width="666.66669"
       height="577.50934"
       margin="0"
       bleed="0" />
  </sodipodi:namedview>
  <g
     id="layer-MC0"
     inkscape:groupmode="layer"
     inkscape:label="Layer 1">
    <path
       id="path1"
       d="m 0,0 c 0.024,-0.898 -0.199,-1.65 -0.666,-2.255 -0.468,-0.607 -1.127,-1.013 -1.977,-1.221 l -0.443,-0.109 c -0.814,-0.199 -1.467,-0.143 -1.959,0.17 -0.492,0.312 -0.751,0.974 -0.777,1.99 l -0.423,16.048 c -0.024,0.898 0.198,1.649 0.665,2.256 0.468,0.605 1.127,1.012 1.978,1.221 l 0.443,0.108 c 0.813,0.199 1.466,0.142 1.958,-0.169 0.492,-0.313 0.751,-0.976 0.778,-1.991 z m 2.509,-12.59 c 0.064,-2.421 -1.051,-3.911 -3.342,-4.472 l -3.439,-0.842 c -2.293,-0.561 -3.47,0.369 -3.534,2.79 l -0.079,2.987 c -0.068,2.577 1.099,4.159 3.503,4.748 l 3.105,0.759 c 2.403,0.588 3.639,-0.406 3.707,-2.983 z m -13.343,-4.09 c 0.024,-0.898 -0.19,-1.648 -0.639,-2.248 -0.449,-0.603 -1.099,-1.007 -1.949,-1.215 l -0.499,-0.122 c -0.814,-0.199 -1.466,-0.143 -1.958,0.17 -0.492,0.311 -0.751,0.974 -0.778,1.99 l -0.31,11.772 c -0.033,1.25 -0.353,2.075 -0.959,2.477 -0.605,0.402 -1.426,0.476 -2.461,0.223 l -0.555,-0.135 c -1.072,-0.263 -1.886,-0.767 -2.444,-1.512 -0.557,-0.746 -0.82,-1.685 -0.79,-2.817 l 0.31,-11.772 c 0.024,-0.898 -0.199,-1.65 -0.666,-2.255 -0.468,-0.607 -1.127,-1.013 -1.977,-1.221 l -0.444,-0.109 c -0.814,-0.199 -1.466,-0.143 -1.957,0.17 -0.493,0.311 -0.752,0.974 -0.779,1.99 l -0.446,16.926 c -0.033,1.25 -0.361,2.073 -0.986,2.471 -0.624,0.397 -1.436,0.473 -2.434,0.229 l -0.61,-0.149 c -1.073,-0.262 -1.877,-0.764 -2.416,-1.505 -0.539,-0.741 -0.793,-1.678 -0.763,-2.81 l 0.424,-16.106 c 0.064,-2.421 -1.051,-3.912 -3.342,-4.472 l -3.494,-0.855 c -2.293,-0.561 -3.47,0.368 -3.534,2.789 l -0.562,21.319 c -0.065,2.46 1.048,3.97 3.341,4.531 l 23.957,5.863 c 3.142,0.768 5.456,0.529 6.94,-0.719 1.484,-1.249 2.268,-3.474 2.353,-6.674 z m -39.726,-8.896 c 0.063,-2.421 -1.052,-3.912 -3.344,-4.472 l -3.438,-0.842 c -2.328,-0.57 -3.525,0.355 -3.589,2.776 l -0.377,16.413 c -0.029,1.132 -0.339,1.93 -0.928,2.396 -0.589,0.465 -1.42,0.567 -2.492,0.304 l -0.61,-0.149 c -0.998,-0.244 -1.795,-0.715 -2.39,-1.411 -0.596,-0.696 -0.877,-1.669 -0.844,-2.917 l 0.454,-17.219 c 0.027,-1.016 -0.196,-1.797 -0.664,-2.344 -0.47,-0.547 -1.112,-0.92 -1.924,-1.119 l -0.444,-0.109 c -0.85,-0.208 -1.523,-0.128 -2.015,0.244 -0.495,0.37 -0.753,1.004 -0.776,1.903 l -0.768,29.108 c -0.064,2.46 1.049,3.97 3.341,4.531 l 3.494,0.855 c 2.292,0.561 3.451,-0.354 3.477,-2.745 l 0.014,-0.527 c -0.014,-0.908 0.199,-1.563 0.638,-1.966 0.438,-0.404 1.138,-0.488 2.1,-0.252 l 1.33,0.325 c 3.142,0.769 5.465,0.542 6.967,-0.682 1.502,-1.225 2.296,-3.438 2.38,-6.639 z m -26.109,-0.435 c 0.085,-3.202 -0.583,-5.772 -2.002,-7.711 -1.419,-1.939 -3.699,-3.292 -6.841,-4.061 l -5.213,-1.276 c -6.064,-1.483 -9.179,0.957 -9.346,7.322 l -0.59,22.373 c -0.065,2.459 1.048,3.97 3.341,4.531 l 3.494,0.855 c 1.109,0.271 1.978,0.149 2.605,-0.365 0.628,-0.515 0.924,-1.523 0.889,-3.025 -0.026,-1.854 0.885,-2.553 2.734,-2.101 l 7.209,1.764 c 0.961,0.235 1.652,0.129 2.074,-0.318 0.421,-0.447 0.643,-1.101 0.665,-1.959 0.052,-1.953 -0.809,-3.145 -2.585,-3.58 l -9.815,-2.402 c -1.627,-0.398 -2.78,-1.122 -3.459,-2.172 -0.68,-1.051 -0.999,-2.318 -0.96,-3.801 l 0.238,-9.02 c 0.03,-1.133 0.329,-1.934 0.9,-2.402 0.571,-0.471 1.392,-0.574 2.464,-0.311 l 0.61,0.149 c 0.998,0.244 1.786,0.711 2.363,1.403 0.577,0.691 0.85,1.662 0.817,2.912 l -0.179,6.794 c -0.027,1.015 0.194,1.786 0.664,2.314 0.469,0.527 1.111,0.89 1.925,1.089 l 5.046,1.235 c 0.85,0.208 1.522,0.137 2.015,-0.214 0.492,-0.351 0.752,-0.976 0.775,-1.873 z m -26.674,-6.468 c 0.052,-1.991 -0.182,-3.719 -0.701,-5.182 -0.488,-1.26 -1.121,-2.299 -1.9,-3.117 -0.778,-0.82 -1.698,-1.556 -2.76,-2.208 -0.403,-0.256 -0.68,-0.677 -0.832,-1.265 -0.152,-0.587 -0.219,-1.212 -0.202,-1.877 l 0.068,-2.577 c 0.065,-2.459 -1.049,-3.97 -3.341,-4.531 l -3.493,-0.855 c -2.293,-0.561 -3.471,0.389 -3.536,2.849 l -0.068,2.577 c -0.042,1.601 -0.55,2.518 -1.523,2.751 -0.935,0.163 -1.742,0.467 -2.424,0.91 -0.682,0.442 -1.238,1.082 -1.669,1.92 -0.628,1.221 -0.968,2.847 -1.022,4.878 l -0.429,16.282 c -0.024,0.898 0.198,1.64 0.667,2.226 0.468,0.586 1.127,0.984 1.978,1.192 l 0.444,0.108 c 0.812,0.199 1.465,0.153 1.956,-0.14 0.491,-0.292 0.751,-0.946 0.778,-1.961 l 0.455,-17.278 c 0.033,-1.25 0.361,-2.063 0.985,-2.441 0.624,-0.377 1.435,-0.444 2.433,-0.2 l 0.61,0.149 c 1.072,0.263 1.887,0.757 2.445,1.483 0.558,0.725 0.822,1.654 0.792,2.787 l -0.431,16.34 c -0.065,2.461 1.048,3.971 3.341,4.532 l 3.438,0.841 c 2.292,0.561 3.471,-0.388 3.536,-2.848 z m -26.516,-12.501 c 0.064,-2.421 -1.051,-3.912 -3.343,-4.473 l -3.438,-0.841 c -2.329,-0.57 -3.526,0.355 -3.59,2.776 l -0.376,16.413 c -0.03,1.132 -0.339,1.93 -0.929,2.396 -0.589,0.464 -1.42,0.566 -2.491,0.304 l -0.61,-0.149 c -0.998,-0.244 -1.795,-0.715 -2.391,-1.411 -0.596,-0.696 -0.876,-1.669 -0.844,-2.918 l 0.454,-17.219 c 0.027,-1.016 -0.195,-1.797 -0.664,-2.343 -0.469,-0.547 -1.111,-0.92 -1.924,-1.119 l -0.443,-0.109 c -0.851,-0.208 -1.523,-0.128 -2.016,0.244 -0.494,0.37 -0.752,1.004 -0.776,1.903 l -0.767,29.108 c -0.065,2.459 1.048,3.97 3.341,4.531 l 3.494,0.855 c 2.291,0.561 3.45,-0.355 3.477,-2.745 l 0.014,-0.527 c -0.014,-0.908 0.198,-1.563 0.638,-1.966 0.437,-0.404 1.137,-0.488 2.099,-0.253 l 1.331,0.326 c 3.142,0.769 5.464,0.542 6.966,-0.683 1.502,-1.224 2.296,-3.437 2.381,-6.638 z m -26.452,-6.473 c 0.064,-2.421 -1.051,-3.912 -3.343,-4.472 l -3.438,-0.842 c -2.329,-0.57 -3.526,0.355 -3.59,2.776 l -0.134,5.096 c -0.033,1.249 -0.314,2.035 -0.843,2.358 -0.53,0.321 -1.312,0.357 -2.347,0.104 -0.962,-0.236 -1.634,-0.135 -2.017,0.302 -0.384,0.436 -0.586,1.064 -0.608,1.884 l -0.014,0.528 c -0.024,0.897 0.189,1.657 0.638,2.278 0.448,0.619 1.098,1.035 1.948,1.243 l 4.714,1.153 c 1.072,0.263 1.815,0.66 2.229,1.194 0.413,0.533 0.603,1.464 0.568,2.791 l -0.01,0.411 c -0.033,1.249 -0.36,1.984 -0.98,2.206 -0.62,0.222 -1.429,0.211 -2.427,-0.033 l -5.212,-1.276 c -1.073,-0.262 -1.878,-0.765 -2.416,-1.505 -0.539,-0.742 -0.793,-1.678 -0.763,-2.81 l 0.487,-18.507 c 0.024,-0.899 -0.199,-1.651 -0.666,-2.256 -0.468,-0.607 -1.127,-1.013 -1.977,-1.221 l -0.444,-0.108 c -0.813,-0.199 -1.466,-0.143 -1.957,0.169 -0.493,0.311 -0.752,0.975 -0.779,1.991 l -0.611,23.193 c -0.169,6.403 2.778,10.347 8.842,11.831 l 5.212,1.275 c 3.142,0.769 5.465,0.541 6.967,-0.682 1.501,-1.225 2.296,-3.458 2.382,-6.698 l 0.143,-5.446 c 0.038,-1.445 -0.235,-2.76 -0.817,-3.943 -0.583,-1.185 -1.409,-1.987 -2.477,-2.404 1.075,0.145 1.933,-0.265 2.572,-1.228 0.64,-0.963 0.978,-2.129 1.014,-3.495 z m 65.615,81.458 c -0.029,1.097 -0.324,1.963 -0.883,2.597 -0.56,0.633 -1.696,0.74 -3.407,0.321 -0.857,-0.21 -1.561,-0.491 -2.113,-0.842 -0.552,-0.353 -0.973,-0.742 -1.262,-1.168 -0.288,-0.427 -0.481,-0.888 -0.581,-1.386 -0.099,-0.498 -0.141,-1.023 -0.127,-1.571 0.015,-0.55 0.084,-1.046 0.208,-1.49 0.124,-0.443 0.339,-0.805 0.646,-1.086 0.307,-0.28 0.743,-0.45 1.306,-0.509 0.563,-0.06 1.272,0.015 2.129,0.225 0.856,0.209 1.55,0.477 2.085,0.806 0.534,0.328 0.955,0.707 1.262,1.138 0.307,0.431 0.51,0.895 0.61,1.393 0.099,0.499 0.141,1.022 0.127,1.572 m 9.778,2.036 c 0.046,-1.726 -0.094,-3.191 -0.418,-4.396 -0.325,-1.205 -0.822,-2.225 -1.492,-3.061 -0.672,-0.836 -1.515,-1.516 -2.531,-2.04 -1.017,-0.526 -2.213,-0.956 -3.589,-1.293 l -2.289,-0.56 c -1.935,-0.474 -2.882,-1.496 -2.841,-3.065 0.025,-0.942 0.294,-1.547 0.806,-1.817 0.513,-0.269 1.235,-0.29 2.165,-0.062 l 7.368,1.803 c 0.707,0.173 1.262,0.091 1.664,-0.244 0.402,-0.338 0.613,-0.878 0.633,-1.623 l 0.024,-0.942 c 0.019,-0.706 -0.143,-1.319 -0.485,-1.836 -0.343,-0.519 -0.904,-0.873 -1.685,-1.064 l -11.22,-2.746 c -6.028,-1.475 -9.127,1.005 -9.297,7.44 l -0.264,10.005 c -0.085,3.256 0.578,5.769 1.993,7.537 1.414,1.767 3.702,3.038 6.865,3.812 l 5.192,1.27 c 3.162,0.774 5.497,0.635 7.005,-0.418 1.507,-1.053 2.304,-3.208 2.39,-6.464 z M -107.351,9.699 c 0.065,-2.434 -1.058,-3.932 -3.365,-4.496 l -3.461,-0.847 c -2.344,-0.574 -3.548,0.355 -3.612,2.788 l -0.379,16.493 c -0.03,1.138 -0.341,1.94 -0.934,2.408 -0.593,0.466 -1.429,0.568 -2.508,0.304 l -0.614,-0.15 c -1.005,-0.246 -1.807,-0.719 -2.406,-1.419 -0.6,-0.699 -0.883,-1.677 -0.85,-2.932 l 0.456,-17.303 c 0.027,-1.021 -0.197,-1.806 -0.668,-2.356 -0.473,-0.55 -1.119,-0.925 -1.937,-1.125 l -0.446,-0.109 c -0.857,-0.21 -1.533,-0.129 -2.029,0.244 -0.498,0.372 -0.757,1.009 -0.781,1.912 l -0.771,29.251 c -0.065,2.471 1.055,3.99 3.363,4.554 l 3.517,0.861 c 2.306,0.565 3.473,-0.355 3.5,-2.757 l 0.014,-0.53 c -0.014,-0.912 0.199,-1.57 0.641,-1.976 0.441,-0.405 1.146,-0.489 2.114,-0.252 l 1.339,0.328 c 3.163,0.773 5.5,0.546 7.013,-0.684 1.511,-1.229 2.31,-3.453 2.395,-6.67 z M -133.63,9.251 c 0.085,-3.218 -0.588,-5.801 -2.016,-7.75 -1.428,-1.949 -3.724,-3.31 -6.886,-4.084 l -5.247,-1.284 c -6.104,-1.493 -9.239,0.958 -9.408,7.354 l -0.592,22.482 c -0.065,2.472 1.055,3.991 3.363,4.555 l 3.517,0.861 c 1.116,0.273 1.991,0.15 2.622,-0.366 0.632,-0.517 0.93,-1.53 0.895,-3.039 -0.027,-1.863 0.89,-2.566 2.752,-2.11 l 7.256,1.775 c 0.968,0.237 1.663,0.131 2.087,-0.318 0.424,-0.45 0.647,-1.106 0.67,-1.969 0.052,-1.963 -0.815,-3.161 -2.602,-3.598 l -9.88,-2.418 c -1.638,-0.401 -2.798,-1.129 -3.481,-2.185 -0.685,-1.056 -1.006,-2.329 -0.967,-3.82 l 0.239,-9.063 c 0.03,-1.139 0.332,-1.944 0.906,-2.414 0.574,-0.473 1.401,-0.576 2.48,-0.312 l 0.614,0.15 c 1.005,0.246 1.797,0.716 2.379,1.411 0.58,0.695 0.855,1.67 0.822,2.927 l -0.18,6.827 c -0.027,1.02 0.196,1.795 0.669,2.325 0.472,0.53 1.118,0.896 1.937,1.096 l 5.08,1.243 c 0.855,0.21 1.531,0.138 2.028,-0.214 0.495,-0.353 0.756,-0.98 0.78,-1.883 z m -46.824,-1.092 c -0.033,1.256 -0.364,2.083 -0.993,2.482 -0.628,0.399 -1.445,0.476 -2.45,0.23 l -1.451,-0.355 c -1.042,-0.255 -1.844,-0.758 -2.404,-1.507 -0.562,-0.75 -0.826,-1.693 -0.796,-2.831 l 0.166,-6.297 c 0.062,-2.354 1.19,-3.263 3.386,-2.726 l 1.452,0.355 c 1.004,0.246 1.806,0.719 2.406,1.419 0.599,0.699 0.883,1.677 0.85,2.932 z m 9.871,-7.892 c 0.085,-3.257 -0.568,-5.854 -1.958,-7.794 -1.391,-1.94 -3.687,-3.301 -6.887,-4.084 l -5.303,-1.298 c -6.065,-1.484 -9.183,0.991 -9.353,7.426 l -0.248,9.417 c -0.171,6.474 2.777,10.453 8.843,11.937 l 5.303,1.298 c 3.162,0.774 5.492,0.534 6.985,-0.719 1.493,-1.255 2.284,-3.509 2.369,-6.765 z m -25.842,-6.382 c 0.084,-3.218 -0.588,-5.801 -2.016,-7.75 -1.428,-1.949 -3.724,-3.31 -6.886,-4.084 l -5.247,-1.284 c -6.104,-1.493 -9.239,0.958 -9.408,7.354 l -0.592,22.483 c -0.066,2.471 1.055,3.99 3.363,4.554 l 3.516,0.861 c 1.117,0.273 1.991,0.15 2.623,-0.366 0.631,-0.517 0.929,-1.53 0.894,-3.039 -0.026,-1.863 0.891,-2.566 2.753,-2.11 l 7.256,1.775 c 0.967,0.237 1.663,0.131 2.087,-0.318 0.424,-0.45 0.647,-1.106 0.67,-1.969 0.051,-1.962 -0.815,-3.161 -2.602,-3.598 l -9.88,-2.418 c -1.638,-0.401 -2.798,-1.129 -3.481,-2.185 -0.685,-1.056 -1.007,-2.329 -0.967,-3.82 l 0.239,-9.063 c 0.03,-1.139 0.331,-1.944 0.906,-2.414 0.574,-0.473 1.4,-0.576 2.48,-0.312 l 0.614,0.15 c 1.005,0.246 1.797,0.716 2.378,1.411 0.581,0.695 0.856,1.67 0.822,2.927 l -0.179,6.827 c -0.027,1.02 0.195,1.795 0.668,2.325 0.472,0.53 1.119,0.896 1.938,1.096 l 5.079,1.243 c 0.856,0.21 1.532,0.138 2.028,-0.214 0.496,-0.353 0.757,-0.98 0.781,-1.882 z m -26.447,-13.283 c 0.024,-0.903 -0.201,-1.659 -0.671,-2.267 -0.471,-0.61 -1.134,-1.019 -1.99,-1.228 l -0.447,-0.109 c -0.819,-0.201 -1.476,-0.144 -1.97,0.169 -0.496,0.313 -0.757,0.979 -0.783,2 l -0.452,17.127 c -0.033,1.255 -0.363,2.082 -0.992,2.482 -0.628,0.399 -1.446,0.475 -2.45,0.229 l -0.614,-0.15 c -1.08,-0.264 -1.89,-0.768 -2.432,-1.513 -0.542,-0.745 -0.799,-1.686 -0.769,-2.824 l 0.43,-16.303 c 0.064,-2.433 -1.058,-3.931 -3.364,-4.495 l -3.517,-0.861 c -2.308,-0.565 -3.493,0.369 -3.557,2.802 l -0.566,21.482 c -0.064,2.433 1.057,3.932 3.364,4.496 l 10.941,2.677 c 3.163,0.774 5.5,0.547 7.012,-0.683 1.512,-1.23 2.311,-3.453 2.396,-6.67 z M -250.48,4.944 c 0.023,-0.864 -0.164,-1.6 -0.56,-2.21 -0.396,-0.611 -1.077,-1.034 -2.045,-1.271 l -0.893,-0.218 c -0.968,-0.237 -1.653,-0.149 -2.057,0.267 -0.404,0.413 -0.618,1.052 -0.64,1.916 l -0.027,1.001 c -0.024,0.902 0.181,1.653 0.614,2.253 0.434,0.599 1.079,1.004 1.935,1.213 l 0.893,0.219 c 0.856,0.209 1.523,0.126 2.001,-0.251 0.478,-0.377 0.729,-1.016 0.753,-1.918 z m 0.793,-30.075 c 0.064,-2.433 -1.058,-3.931 -3.365,-4.496 l -3.517,-0.86 c -2.307,-0.565 -3.492,0.369 -3.557,2.802 l -0.56,21.247 c -0.068,2.589 1.126,4.184 3.582,4.785 l 3.07,0.752 c 2.456,0.601 3.718,-0.394 3.787,-2.983 z m -34.087,8.008 c -0.033,1.256 -0.364,2.082 -0.993,2.482 -0.628,0.398 -1.445,0.476 -2.449,0.23 l -1.34,-0.328 c -1.08,-0.264 -1.9,-0.772 -2.46,-1.52 -0.561,-0.751 -0.826,-1.694 -0.796,-2.831 l 0.166,-6.298 c 0.031,-1.176 0.342,-1.989 0.935,-2.437 0.592,-0.447 1.427,-0.539 2.507,-0.275 l 1.34,0.328 c 1.004,0.246 1.806,0.728 2.405,1.448 0.599,0.718 0.883,1.687 0.851,2.903 z m 10.147,-7.705 c 0.085,-3.218 -0.597,-5.814 -2.043,-7.786 -1.446,-1.974 -3.75,-3.347 -6.913,-4.121 l -1.284,-0.314 c -0.968,-0.237 -1.65,-0.66 -2.045,-1.27 -0.397,-0.61 -0.582,-1.366 -0.558,-2.269 l 0.116,-2.282 c 0.07,-1.246 -0.194,-2.239 -0.792,-2.978 -0.599,-0.738 -1.456,-1.245 -2.573,-1.518 l -3.517,-0.861 c -2.307,-0.564 -3.492,0.37 -3.556,2.802 l -0.635,24.072 c -0.172,6.514 2.794,10.517 8.897,12.011 l 5.247,1.284 c 3.163,0.773 5.501,0.525 7.014,-0.743 1.512,-1.269 2.313,-3.531 2.399,-6.787 z m -31.852,-8.565 c -0.029,1.098 -0.325,1.964 -0.884,2.597 -0.56,0.634 -1.696,0.741 -3.407,0.322 -0.856,-0.21 -1.56,-0.491 -2.113,-0.842 -0.552,-0.353 -0.982,-0.745 -1.289,-1.175 -0.307,-0.431 -0.51,-0.895 -0.609,-1.393 -0.1,-0.499 -0.141,-1.022 -0.127,-1.572 0.015,-0.55 0.083,-1.045 0.208,-1.489 0.123,-0.443 0.348,-0.803 0.674,-1.079 0.325,-0.275 0.77,-0.443 1.333,-0.502 0.564,-0.061 1.273,0.015 2.129,0.224 0.856,0.209 1.551,0.478 2.086,0.807 0.534,0.327 0.954,0.707 1.262,1.138 0.306,0.431 0.51,0.895 0.609,1.393 0.1,0.498 0.142,1.021 0.128,1.571 m 5.167,-4.244 c 0.03,-1.138 -0.235,-2.082 -0.796,-2.831 -0.561,-0.75 -1.381,-1.256 -2.46,-1.52 l -10.94,-2.677 c -3.164,-0.774 -5.498,-0.645 -7.004,0.389 -1.508,1.032 -2.303,3.158 -2.388,6.375 l -0.006,0.236 c -0.045,1.687 0.094,3.143 0.419,4.368 0.323,1.224 0.819,2.264 1.49,3.119 0.67,0.854 1.513,1.544 2.53,2.07 1.016,0.525 2.212,0.956 3.589,1.293 l 2.289,0.56 c 0.894,0.218 1.586,0.585 2.078,1.101 0.492,0.515 0.727,1.165 0.707,1.95 -0.025,0.941 -0.294,1.557 -0.807,1.846 -0.514,0.289 -1.216,0.324 -2.11,0.105 l -7.368,-1.803 c -1.489,-0.364 -2.254,0.258 -2.296,1.867 l -0.025,0.942 c -0.018,0.707 0.134,1.316 0.457,1.83 0.324,0.513 0.895,0.87 1.714,1.071 l 11.219,2.745 c 6.029,1.475 9.128,-1.024 9.299,-7.498 z m -21.469,23.771 c 0.043,-1.609 -0.681,-2.594 -2.169,-2.959 l -0.726,-0.177 c -1.079,-0.264 -1.899,-0.761 -2.46,-1.491 -0.562,-0.73 -0.827,-1.684 -0.796,-2.86 l 0.6,-22.777 c 0.064,-2.434 -1.057,-3.932 -3.364,-4.496 l -3.405,-0.833 c -2.345,-0.574 -3.549,0.355 -3.613,2.788 l -0.6,22.777 c -0.031,1.177 -0.343,1.989 -0.935,2.437 -0.593,0.447 -1.429,0.539 -2.508,0.275 l -0.781,-0.191 c -1.488,-0.364 -2.254,0.257 -2.296,1.866 l -0.027,1.001 c -0.018,0.707 0.143,1.328 0.485,1.866 0.341,0.537 0.903,0.902 1.685,1.094 l 18.588,4.548 c 0.817,0.2 1.401,0.115 1.748,-0.254 0.346,-0.369 0.529,-0.906 0.548,-1.613 z"
       style="fill:#130c0e;fill-opacity:1;fill-rule:nonzero;stroke:none"
       transform="matrix(1.3333333,0,0,-1.3333333,633.712,497.142)"
       clip-path="url(#clipPath2)" />
    <path
       id="path3"
       d="m 0,0 c 4.894,12.547 7.441,25.99 7.441,39.551 0,59.928 -48.754,108.683 -108.682,108.683 -34.925,0 -67.126,-16.686 -87.342,-43.975 -14.012,7.001 -29.565,10.725 -45.455,10.725 -20.991,0 -41.147,-6.349 -58.288,-18.361 -8.889,-6.228 -16.637,-13.734 -23.038,-22.254 -17.194,10.789 -37.268,16.702 -57.836,16.702 -59.928,0 -108.683,-48.755 -108.683,-108.683 0,-24.092 7.724,-46.916 22.336,-66.007 10.206,-13.335 23.493,-24.17 38.472,-31.557 -0.205,-2.623 -0.307,-5.258 -0.307,-7.897 0,-55.669 45.29,-100.959 100.958,-100.959 20.885,0 40.931,6.328 57.972,18.298 10.137,7.121 18.774,15.914 25.603,25.984 11.397,-4.307 23.536,-6.534 35.935,-6.534 31.208,0 60.532,14.582 79.602,38.459 12.553,-5.597 26.176,-8.498 40.266,-8.498 54.679,0 99.163,44.484 99.163,99.162 C 18.117,-36.457 11.765,-16.626 0,0"
       style="fill:#00b3f0;fill-opacity:1;fill-rule:nonzero;stroke:none"
       transform="matrix(1.3333333,0,0,-1.3333333,642.5104,197.6452)"
       clip-path="url(#clipPath4)" />
    <path
       id="path5"
       d="m 0,0 c 5.98,12.826 9.115,26.918 9.115,41.162 0,53.688 -43.678,97.366 -97.365,97.366 -34.693,0 -66.385,-18.377 -83.768,-47.706 -14.529,9.386 -31.55,14.456 -49.029,14.456 -18.655,0 -36.565,-5.64 -51.793,-16.312 -10.96,-7.68 -19.969,-17.542 -26.538,-28.964 -17.159,13.703 -38.677,21.363 -60.831,21.363 -53.687,0 -97.366,-43.678 -97.366,-97.365 0,-40.116 24.959,-76.144 61.728,-90.631 -0.816,-4.887 -1.227,-9.848 -1.227,-14.83 0,-49.429 40.213,-89.642 89.641,-89.642 18.544,0 36.341,5.616 51.467,16.241 11.591,8.143 20.974,18.746 27.565,31.059 12.5,-6.276 26.297,-9.552 40.478,-9.552 30.846,0 59.619,16.027 76.091,41.624 13.257,-7.66 28.192,-11.663 43.777,-11.663 48.438,0 87.845,39.407 87.845,87.845 C 19.79,-35.123 12.811,-15.654 0,0"
       style="fill:#ffffff;fill-opacity:1;fill-rule:nonzero;stroke:none"
       transform="matrix(1.3333333,0,0,-1.3333333,625.18907,199.7936)"
       clip-path="url(#clipPath6)" />
    <path
       id="path7"
       d="m 0,0 c 7.066,12.623 11.1,27.174 11.1,42.669 0,48.317 -39.169,87.485 -87.486,87.485 -35.965,0 -66.856,-21.705 -80.302,-52.728 -14.093,12.138 -32.436,19.478 -52.495,19.478 -34.318,0 -63.615,-21.483 -75.187,-51.733 -15.969,17.115 -38.72,27.82 -63.975,27.82 -48.316,0 -87.485,-39.168 -87.485,-87.485 0,-39.96 26.791,-73.661 63.391,-84.124 -1.881,-6.792 -2.891,-13.947 -2.891,-21.337 0,-44.051 35.711,-79.762 79.761,-79.762 34.079,0 63.16,21.375 74.583,51.447 12.831,-8.649 28.289,-13.699 44.928,-13.699 32.056,0 59.733,18.744 72.674,45.869 13.101,-9.979 29.454,-15.908 47.194,-15.908 43.059,0 77.965,34.906 77.965,77.965 C 21.775,-33.06 13.483,-14.015 0,0"
       style="fill:#130c0e;fill-opacity:1;fill-rule:nonzero;stroke:none"
       transform="matrix(1.3333333,0,0,-1.3333333,609.37,201.802)"
       clip-path="url(#clipPath8)" />
    <path
       id="path9"
       d="m 0,0 v 6.729 l -1.692,-7.12 -1.832,-0.423 -1.651,6.348 v -6.729 l -1.732,-0.4 v 8.056 l 2.706,0.624 1.631,-6.012 0.02,0.004 1.591,6.757 2.671,0.616 V 0.395 Z M -12.504,-2.887 V 3.74 L -15.29,3.097 v 1.428 l 7.369,1.702 V 4.798 l -2.686,-0.62 v -6.627 z"
       style="fill:#f15a22;fill-opacity:1;fill-rule:nonzero;stroke:none"
       transform="matrix(1.3333333,0,0,-1.3333333,609.3616,312.79107)"
       clip-path="url(#clipPath10)" />
    <path
       id="path11"
       d="m 0,0 c 0,0 -0.125,-32.699 -0.532,-38.45 -0.636,-8.985 -3.05,-9.226 -5.105,-7.878 -4.099,2.689 -11.758,18.003 -18.616,31.32 l -10.005,-2.31 v -82.747 l 12.234,2.824 0.042,20.996 c 0.021,10.778 2.964,11.479 7.239,7.564 3.245,-2.971 7.66,-9.522 14.618,-20.662 l 16.189,3.738 V 3.709 Z"
       style="fill:#f15a22;fill-opacity:1;fill-rule:nonzero;stroke:none"
       transform="matrix(1.3333333,0,0,-1.3333333,559.8064,198.6224)"
       clip-path="url(#clipPath12)" />
    <path
       id="path13"
       d="m 0,0 c -0.371,-0.002 -3.119,0.092 -3.413,2.188 -0.17,1.214 0.412,2.354 1.879,3.251 2.293,1.403 10.23,3.684 17.849,5.471 v 10.535 c 0,0 -13.795,-3.32 -18.037,-2.689 -1.289,0.192 -2.147,0.873 -2.318,2.064 -0.174,1.216 0.439,2.313 1.879,3.251 3.88,2.526 21.294,6.283 21.294,6.283 V 54.66 l -35.855,-8.278 v -64.797 l 36.606,8.451 V 3.501 C 10.114,1.282 3.51,0.019 0,0"
       style="fill:#f15a22;fill-opacity:1;fill-rule:nonzero;stroke:none"
       transform="matrix(1.3333333,0,0,-1.3333333,477.47133,309.13973)"
       clip-path="url(#clipPath14)" />
    <path
       id="path15"
       d="m 0,0 c 0,0 -3.884,-25.59 -7.333,-37.416 -0.985,-3.38 -3.367,-8.55 -6.607,-1.157 -1.161,2.648 -4.605,15.019 -7.133,30.967 l -11.186,-2.582 c 0.979,-10.966 6.349,-40.584 13.503,-57.839 l 21.694,5.008 c 7.985,21.132 12.776,43.452 14.404,67.023 z"
       style="fill:#f15a22;fill-opacity:1;fill-rule:nonzero;stroke:none"
       transform="matrix(1.3333333,0,0,-1.3333333,424.6208,244.6828)"
       clip-path="url(#clipPath16)" />
    <path
       id="path17"
       d="m 0,0 -7.668,-1.77 c -1.923,-0.444 -3.042,0.73 -2.807,3.474 0.219,2.567 1.343,8.009 1.771,9.846 0.945,4.064 2.804,5.758 4.989,6.063 2.801,0.391 5.248,-2.058 6.588,-8.696 C 3.002,8.275 3.329,6.944 3.542,5.133 3.801,2.936 2.722,0.628 0,0 m 9.561,36.683 c -5.429,10.003 -11.742,7.93 -14.977,6.859 -4.239,-1.402 -8.001,-3.579 -11.938,-19.194 -4.138,-16.413 -8.647,-50.932 -8.647,-50.932 l 11.357,2.622 1.173,6.578 c 0.564,3.157 2.574,5.163 5.637,6.064 2.945,0.867 8.801,2.284 11.805,2.626 1.27,0.144 2.761,-0.857 3.194,-2.845 l 1.535,-7.033 15.469,3.571 c 0,0 -7.695,38.949 -14.608,51.684"
       style="fill:#f15a22;fill-opacity:1;fill-rule:nonzero;stroke:none"
       transform="matrix(1.3333333,0,0,-1.3333333,360.53173,340.49893)"
       clip-path="url(#clipPath18)" />
    <path
       id="path19"
       d="m 0,0 c -0.371,-0.002 -3.119,0.092 -3.413,2.188 -0.17,1.214 0.412,2.354 1.879,3.251 2.293,1.403 10.23,3.684 17.849,5.471 v 10.535 c 0,0 -13.795,-3.32 -18.037,-2.689 -1.289,0.192 -2.147,0.873 -2.318,2.064 -0.174,1.216 0.439,2.313 1.879,3.251 3.88,2.526 21.294,6.283 21.294,6.283 v 26.2 L -16.722,48.277 V -16.52 l 36.606,8.451 V 3.501 C 10.114,1.282 3.51,0.019 0,0"
       style="fill:#f15a22;fill-opacity:1;fill-rule:nonzero;stroke:none"
       transform="matrix(1.3333333,0,0,-1.3333333,292.42693,357.8564)"
       clip-path="url(#clipPath20)" />
    <path
       id="path21"
       d="m 0,0 c 0,-12.93 0.065,-22.607 -1.706,-28.948 -1.076,-3.852 -3.445,-6.784 -6.607,-9.003 -3.222,-2.261 -6.451,-3.252 -9.614,-3.314 -3.856,-0.076 -6.675,2.022 -7.087,6.307 -0.592,6.156 -0.553,13.935 -0.553,24.715 l -13.998,-3.231 v -95.345 l 19.227,4.439 c 0,12.134 0.249,21.078 1.744,26.656 1.02,3.802 3.792,7.01 6.591,8.9 3.271,2.209 6.28,3.314 9.449,3.365 3.852,0.063 6.776,-1.925 7.139,-5.766 0.533,-5.627 0.568,-13.279 0.568,-23.721 l 14.246,3.289 V 4.479 Z"
       style="fill:#f15a22;fill-opacity:1;fill-rule:nonzero;stroke:none"
       transform="matrix(1.3333333,0,0,-1.3333333,233.1176,285.7336)"
       clip-path="url(#clipPath22)" />
    <path
       id="path23"
       d="m 0,0 v 83.019 l -11.349,-2.62 C -17.368,60.523 -20.772,50.804 -23.742,42.612 -28.797,28.67 -34.053,34.143 -36.491,38.035 -39.342,42.586 -43.2,51.454 -49.909,67.693 l -16.574,-3.826 v -76.818 l 13.743,3.172 c -0.104,12.436 0.111,19.683 0.783,22.964 0.603,2.947 2.379,3.363 4.18,0.439 1.481,-2.405 3.825,-7.608 8.485,-18.309 l 9.217,2.128 c 5.079,13.648 7.823,20.524 9.76,23.893 1.573,2.735 4.55,4.659 5.455,-0.397 0.685,-3.826 0.627,-11.523 0.606,-24.23 z"
       style="fill:#faa61a;fill-opacity:1;fill-rule:nonzero;stroke:none"
       transform="matrix(1.3333333,0,0,-1.3333333,557.9244,183.86187)"
       clip-path="url(#clipPath24)" />
    <path
       id="path25"
       d="m 0,0 c 0,0 0.273,-18.031 -0.342,-24 -0.815,-7.922 -14.857,-10.657 -15.451,-2.56 -0.266,3.614 -0.469,8.274 -0.469,18.916 l -11.475,-2.649 v -71.116 l 15.734,3.633 v 16.423 c 0,12.631 15.692,13.688 16.537,4.858 0.265,-2.776 0.401,-7.104 0.401,-16.085 l 11.475,2.649 v 73.72 z"
       style="fill:#faa61a;fill-opacity:1;fill-rule:nonzero;stroke:none"
       transform="matrix(1.3333333,0,0,-1.3333333,438.51147,123.88907)"
       clip-path="url(#clipPath26)" />
    <path
       id="path27"
       d="m 0,0 v -29.308 l 10.588,2.445 c 4.219,0.974 5.701,0.078 5.67,-8.399 v -37.664 l 12.545,2.896 v 34.854 c 0.087,14.962 1.842,18.059 9.283,19.777 l 6.644,1.534 v 24.192 z"
       style="fill:#faa61a;fill-opacity:1;fill-rule:nonzero;stroke:none"
       transform="matrix(1.3333333,0,0,-1.3333333,333.71253,137.49813)"
       clip-path="url(#clipPath28)" />
    <path
       id="path29"
       d="m 0,0 -13.379,-3.089 c 0,0 -0.083,-10.123 -0.823,-23.53 -0.787,-14.252 -16.141,-18.622 -17.017,-4.124 -0.56,9.261 -0.471,21.818 -0.471,21.818 l -16.015,-3.697 v -6.857 c 0,-26.701 3.068,-35.762 19.197,-34.02 3.772,0.407 6.644,1.605 9.88,3.796 0.202,0.137 0.458,0.14 0.698,-0.046 0.23,-0.178 0.603,-0.777 0.042,-2.52 -3.024,-9.389 -28.929,-12.181 -28.929,-12.181 v -20.98 c 14.805,2.179 30.919,5.331 39.375,19.38 C -4.284,-60.802 0,-54.466 0,0"
       style="fill:#faa61a;fill-opacity:1;fill-rule:nonzero;stroke:none"
       transform="matrix(1.3333333,0,0,-1.3333333,325.4532,154.09027)"
       clip-path="url(#clipPath30)" />
    <path
       id="path31"
       d="m 0,0 c 0,0 0.259,-17.136 -0.325,-22.809 -0.775,-7.529 -14.12,-10.128 -14.685,-2.433 -0.252,3.434 -0.445,7.864 -0.445,17.978 l -10.906,-2.518 v -67.587 l 14.954,3.452 v 15.608 c 0,12.005 14.913,13.009 15.716,4.618 0.252,-2.639 0.381,-6.752 0.381,-15.287 l 10.906,2.517 V 3.601 Z"
       style="fill:#faa61a;fill-opacity:1;fill-rule:nonzero;stroke:none"
       transform="matrix(1.3333333,0,0,-1.3333333,231.13293,169.1044)"
       clip-path="url(#clipPath32)" />
    <path
       id="path33"
       d="m 0,0 c -6.848,-1.746 -10.887,1.922 -10.887,11.127 0,7.342 0.139,14.923 13.581,14.923 9.571,0 13.572,-4.846 13.572,-10.313 C 16.266,10.976 10.442,2.662 0,0 m 40.186,30.328 c 0,16.907 -12.456,37.357 -64.577,24.812 v -91.951 l 13.573,3.133 v 16.613 c 0,6.752 3.89,5.508 6.372,3.892 1.928,-1.256 6.017,-4.551 15.683,-15.413 l 23.058,5.323 -17.968,18.397 c 0,0 23.859,9.608 23.859,35.194"
       style="fill:#faa61a;fill-opacity:1;fill-rule:nonzero;stroke:none"
       transform="matrix(1.3333333,0,0,-1.3333333,132.75173,235.9196)"
       clip-path="url(#clipPath34)" />
  </g>
</svg>
