<?xml version="1.0" encoding="UTF-8" standalone="no"?>
<!-- Created with Inkscape (http://www.inkscape.org/) -->

<svg
   version="1.1"
   id="svg2"
   width="666.66669"
   height="521.00665"
   viewBox="0 0 666.66669 521.00665"
   sodipodi:docname="Rhythm World (리듬 세상) Logo with Tagline.ai"
   xmlns:inkscape="http://www.inkscape.org/namespaces/inkscape"
   xmlns:sodipodi="http://sodipodi.sourceforge.net/DTD/sodipodi-0.dtd"
   xmlns="http://www.w3.org/2000/svg"
   xmlns:svg="http://www.w3.org/2000/svg">
  <defs
     id="defs6">
    <clipPath
       clipPathUnits="userSpaceOnUse"
       id="clipPath16">
      <path
         d="M 0,390.755 H 500 V 0 H 0 Z"
         id="path14" />
    </clipPath>
  </defs>
  <sodipodi:namedview
     id="namedview4"
     pagecolor="#ffffff"
     bordercolor="#000000"
     borderopacity="0.25"
     inkscape:showpageshadow="2"
     inkscape:pageopacity="0.0"
     inkscape:pagecheckerboard="0"
     inkscape:deskcolor="#d1d1d1" />
  <g
     id="g8"
     inkscape:groupmode="layer"
     inkscape:label="Rhythm World (리듬 세상) Logo with Tagline"
     transform="matrix(1.3333333,0,0,-1.3333333,0,521.00667)">
    <g
       id="g10">
      <g
         id="g12"
         clip-path="url(#clipPath16)">
        <g
           id="g18"
           transform="translate(470.9406,80.1006)">
          <path
             d="M 0,0 6.792,1.356 7.33,7.634 0.539,6.278 Z M 9.08,28.034 8.345,19.465 5.998,9.415 2.225,8.661 1.553,18.109 2.288,26.678 Z M -9.642,15.011 c 0.044,0.507 -0.013,0.936 -0.168,1.284 -0.158,0.348 -0.401,0.618 -0.729,0.816 -0.287,0.155 -0.611,0.258 -0.979,0.303 -0.369,0.045 -0.779,0.021 -1.235,-0.07 l -4.687,-0.935 -0.513,-5.974 4.687,0.936 c 0.431,0.086 0.839,0.22 1.228,0.404 0.388,0.185 0.754,0.429 1.104,0.736 0.374,0.336 0.673,0.717 0.897,1.141 0.221,0.423 0.354,0.876 0.395,1.359 m 6.283,1.254 C -3.46,15.083 -3.775,13.952 -4.301,12.874 -4.829,11.795 -5.567,10.782 -6.514,9.834 -7.466,8.862 -8.463,8.075 -9.507,7.475 -10.552,6.876 -11.641,6.461 -12.774,6.235 l -5.636,-1.125 -0.766,-8.938 -5.908,-1.179 2.192,25.558 11.544,2.305 c 1.109,0.221 2.152,0.241 3.129,0.056 0.974,-0.185 1.86,-0.578 2.65,-1.179 0.838,-0.641 1.441,-1.416 1.811,-2.327 0.366,-0.911 0.501,-1.959 0.399,-3.141 M -25.999,3.52 c -0.103,-1.201 -0.43,-2.386 -0.978,-3.551 -0.551,-1.165 -1.335,-2.314 -2.355,-3.448 -1.108,-1.266 -2.332,-2.286 -3.67,-3.066 -1.34,-0.777 -2.797,-1.323 -4.372,-1.637 -1.55,-0.31 -2.947,-0.334 -4.198,-0.074 -1.251,0.263 -2.34,0.822 -3.262,1.682 -0.861,0.759 -1.472,1.629 -1.836,2.612 -0.366,0.983 -0.495,2.077 -0.392,3.277 l 1.432,16.697 6.246,1.247 -1.456,-16.976 c -0.037,-0.437 0.007,-0.849 0.138,-1.23 0.129,-0.385 0.342,-0.738 0.637,-1.064 0.367,-0.382 0.814,-0.633 1.34,-0.755 0.526,-0.123 1.133,-0.115 1.818,0.022 0.66,0.131 1.271,0.367 1.84,0.708 0.565,0.34 1.069,0.781 1.515,1.325 0.39,0.463 0.685,0.918 0.885,1.368 0.203,0.447 0.32,0.892 0.358,1.329 l 1.456,16.976 6.286,1.255 z m -36.671,-14.944 0.245,3.369 -8.063,-1.609 -0.29,-3.379 z m -14.192,-7.621 1.124,13.098 19.338,3.86 -1.124,-13.098 z m -3.232,13.148 0.89,10.375 10.604,2.117 0.084,0.971 -10.605,-2.117 0.418,4.865 16.348,3.263 -0.89,-10.377 -10.881,-2.172 -0.084,-0.971 12.832,2.562 0.974,11.348 5.475,1.093 -0.334,-3.892 3.549,0.708 -0.417,-4.862 -3.549,-0.709 -0.686,-7.998 -5.475,-1.093 0.046,0.542 z m -2.91,15.145 -0.359,-4.183 3.124,0.623 -0.452,-5.263 -3.123,-0.624 -1.313,-15.307 -6.309,-1.259 2.124,24.754 z m -15.07,-15.723 0.3,3.5 -3.943,-0.787 -0.3,-3.5 z m -2.833,12.149 -0.335,-3.909 3.942,0.786 0.335,3.91 6.089,1.215 -1.565,-18.241 -16.122,-3.218 1.565,18.241 z m -23.26,-22.466 -0.525,-6.114 13.092,2.613 -0.414,-4.826 -18.948,-3.782 0.939,10.94 z m 3.285,1.37 -5.429,7.603 -6.677,-9.839 -4.875,1.917 12.209,17.911 8.882,-11.7 1.096,12.776 5.856,1.169 -1.897,-22.12 -5.856,-1.169 0.559,6.519 z m -30.962,-6.162 -0.166,-1.931 8.997,1.796 -0.415,-4.833 -23.969,-4.784 0.414,4.832 9.067,1.81 0.166,1.931 -6.531,-1.303 0.936,10.917 14.312,2.857 0.085,0.996 -14.311,-2.857 0.414,4.832 19.073,3.807 -0.915,-10.66 -14.486,-2.892 -0.108,-1.255 14.487,2.892 -0.415,-4.83 z m -32.485,2.471 c -0.08,-0.93 0.209,-1.646 0.868,-2.149 0.658,-0.506 1.49,-0.658 2.495,-0.458 1.005,0.201 1.892,0.697 2.662,1.487 0.769,0.788 1.193,1.647 1.273,2.577 0.08,0.927 -0.209,1.649 -0.867,2.165 -0.657,0.516 -1.488,0.673 -2.493,0.473 -1.005,-0.201 -1.893,-0.702 -2.664,-1.503 -0.77,-0.801 -1.195,-1.665 -1.274,-2.592 m 4.376,9.208 c 2.527,0.504 4.612,0.11 6.261,-1.184 1.649,-1.295 2.372,-3.105 2.172,-5.436 -0.2,-2.331 -1.265,-4.506 -3.198,-6.523 -1.933,-2.02 -4.16,-3.283 -6.687,-3.787 -2.527,-0.504 -4.612,-0.102 -6.259,1.202 -1.648,1.302 -2.371,3.121 -2.171,5.452 0.2,2.331 1.264,4.498 3.197,6.507 1.932,2.009 4.158,3.264 6.685,3.769 m 10.671,-16.322 -0.414,-4.824 -24.562,-4.903 0.414,4.824 z m -42.935,-14.398 7.237,1.445 0.186,2.166 -7.237,-1.444 z m 13.977,9.537 -1.054,-12.283 -19.538,-3.9 1.054,12.283 z m 1.953,13.682 -14.887,-2.972 -0.17,-1.981 14.887,2.972 -0.397,-4.625 -21.375,-4.266 0.992,11.563 21.375,4.267 z m 1.019,-12.196 -25.327,-5.056 0.427,4.978 25.327,5.055 z m -34.212,-14.99 0.583,6.804 -17.84,-3.561 0.979,11.409 9.445,1.885 0.133,1.554 -9.445,-1.886 0.417,4.863 15.392,3.073 -0.967,-11.28 -9.446,-1.885 -0.144,-1.685 11.893,2.374 1.112,12.964 5.947,1.188 -2.112,-24.63 z m -39.383,-6.222 13.255,2.646 -0.409,-4.766 -19.033,-3.8 0.873,10.17 5.777,1.153 z m 0.792,17.035 13.936,2.782 -0.445,-5.19 -19.714,-3.935 1.069,12.458 5.778,1.154 z m 15.356,-7.921 -24.471,-4.884 0.409,4.766 24.471,4.885 z m -32.855,-13.043 2.131,24.838 6.48,1.293 -2.131,-24.837 z m 0.791,24.57 -1.597,-18.61 -6.24,-1.246 1.13,13.165 -10.646,-2.125 0.467,5.445 z m -33.664,-22.767 c -0.117,-1.355 -0.191,-2.103 -0.226,-2.315 1.403,1.33 3.153,2.337 5.027,2.712 0.759,0.151 1.466,0.157 2.139,0.097 l 0.078,0.907 z m 7.034,-5.945 c 0.029,0.717 -0.182,1.26 -0.645,1.63 -0.459,0.368 -1.087,0.458 -1.883,0.273 -0.797,-0.184 -1.476,-0.564 -2.029,-1.134 -0.554,-0.571 -0.865,-1.221 -0.927,-1.944 -0.062,-0.722 0.16,-1.263 0.663,-1.626 0.506,-0.358 1.156,-0.444 1.952,-0.259 0.8,0.185 1.468,0.563 2.007,1.13 0.54,0.567 0.829,1.213 0.862,1.93 m 5.215,4.656 -1.449,-0.289 c 0.652,-0.94 0.988,-2.138 0.868,-3.528 -0.331,-3.863 -3.943,-7.661 -8.067,-8.484 -4.124,-0.824 -7.198,1.64 -6.867,5.502 0.137,1.594 0.852,3.163 1.911,4.53 l -4.899,-0.977 0.287,3.344 -6.318,-1.261 0.35,4.079 19.302,3.853 1.051,12.248 5.558,1.109 z m -6.222,7.211 -16.846,-3.362 0.988,11.525 16.847,3.363 -0.302,-3.522 -10.883,-2.173 -0.068,-0.8 10.882,2.173 -0.269,-3.137 -10.882,-2.172 -0.069,-0.803 10.882,2.173 z m -34.626,-21.166 c -0.581,-0.605 -1.301,-1.008 -2.164,-1.208 -0.858,-0.198 -1.56,-0.109 -2.106,0.27 -0.542,0.384 -0.782,0.958 -0.716,1.726 0.066,0.769 0.399,1.461 0.996,2.069 0.597,0.607 1.329,1.013 2.187,1.212 0.859,0.199 1.536,0.105 2.032,-0.285 0.5,-0.392 0.728,-0.968 0.697,-1.73 -0.034,-0.762 -0.345,-1.449 -0.926,-2.054 m -7.221,12.312 -1.631,-0.325 0.516,6.017 1.631,0.325 z m 14.46,4.443 3.462,0.691 0.473,5.506 -3.462,-0.691 0.315,3.681 -5.74,-1.146 -0.924,-10.77 -3.052,-0.609 0.516,6.016 2.174,0.434 0.407,4.754 -17.191,-3.432 -0.408,-4.753 2.323,0.463 -0.516,-6.016 -2.323,-0.464 -0.407,-4.751 15.624,3.118 2.03,0.406 -0.023,-0.268 c -0.639,0.027 -1.302,0.003 -2.007,-0.138 -4.447,-0.887 -8.338,-4.935 -8.69,-9.041 -0.352,-4.106 2.967,-6.715 7.414,-5.827 4.447,0.887 8.338,4.936 8.69,9.042 0.149,1.738 -0.388,3.182 -1.363,4.232 l 1.89,0.377 z m -35.599,-22.416 c -0.581,-0.605 -1.301,-1.008 -2.164,-1.208 -0.858,-0.198 -1.559,-0.109 -2.105,0.27 -0.542,0.384 -0.783,0.958 -0.717,1.726 0.066,0.769 0.399,1.461 0.996,2.069 0.597,0.607 1.329,1.013 2.187,1.212 0.859,0.199 1.537,0.105 2.033,-0.285 0.499,-0.392 0.728,-0.968 0.697,-1.73 -0.035,-0.762 -0.345,-1.449 -0.927,-2.054 m -7.221,12.312 -1.63,-0.325 0.516,6.017 1.63,0.325 z m 14.461,4.442 3.462,0.692 0.472,5.506 -3.462,-0.691 0.316,3.681 -5.741,-1.146 -0.924,-10.77 -3.052,-0.61 0.516,6.017 2.174,0.434 0.408,4.754 -17.191,-3.432 -0.408,-4.753 2.323,0.463 -0.516,-6.017 -2.323,-0.463 -0.408,-4.751 15.624,3.118 2.03,0.406 -0.023,-0.268 c -0.639,0.027 -1.301,0.003 -2.007,-0.138 -4.447,-0.887 -8.337,-4.935 -8.69,-9.041 -0.352,-4.106 2.968,-6.715 7.415,-5.827 4.447,0.887 8.337,4.936 8.689,9.041 0.15,1.739 -0.388,3.183 -1.363,4.233 l 1.891,0.377 z"
             style="fill:#130c0e;fill-opacity:1;fill-rule:nonzero;stroke:none"
             id="path20" />
        </g>
        <g
           id="g22"
           transform="translate(399.4307,382.2302)">
          <path
             d="M 0,0 C -14.063,0 -27.961,-2.948 -40.705,-8.585 -57.21,2.503 -76.803,8.525 -96.82,8.525 c -40.297,0 -76.507,-24.31 -92.263,-60.527 -12.904,1.742 -25.998,0.953 -38.427,-2.227 -18.808,18.989 -44.311,29.706 -71.376,29.706 -55.441,0 -100.545,-45.104 -100.545,-100.545 0,-55.441 45.104,-100.545 100.545,-100.545 8.491,0 16.863,1.05 24.996,3.132 18.823,-19.006 44.334,-29.731 71.4,-29.731 40.297,0 76.507,24.311 92.261,60.527 18.449,-2.491 37.332,0.247 54.138,7.68 16.506,-11.089 36.1,-17.11 56.115,-17.11 55.441,0 100.545,45.104 100.545,100.545 C 100.569,-45.115 55.454,0 0,0"
             style="fill:#00b3f0;fill-opacity:1;fill-rule:nonzero;stroke:none"
             id="path24" />
        </g>
        <g
           id="g26"
           transform="translate(399.4307,374.4309)">
          <path
             d="M 0,0 C -14.443,0 -28.694,-3.369 -41.494,-9.776 -57.42,2.056 -76.892,8.525 -96.82,8.525 c -39.225,0 -74.249,-24.966 -87.339,-61.46 -6.064,1.221 -12.215,1.838 -18.356,1.838 -9.363,0 -18.567,-1.384 -27.424,-4.12 -17.59,19.565 -42.457,30.694 -68.947,30.694 -51.14,0 -92.745,-41.606 -92.745,-92.746 0,-51.14 41.605,-92.745 92.745,-92.745 9.364,0 18.568,1.384 27.425,4.119 17.606,-19.581 42.482,-30.718 68.971,-30.718 39.224,0 74.249,24.965 87.338,61.459 6.064,-1.221 12.214,-1.837 18.356,-1.837 14.444,0 28.693,3.368 41.494,9.776 15.928,-11.832 35.399,-18.301 55.326,-18.301 51.14,0 92.746,41.605 92.746,92.745 C 92.77,-41.617 51.153,0 0,0"
             style="fill:#ffffff;fill-opacity:1;fill-rule:nonzero;stroke:none"
             id="path28" />
        </g>
        <g
           id="g30"
           transform="translate(399.4302,367.6561)">
          <path
             d="M 0,0 C -15.324,0 -29.724,-4 -42.198,-11.049 -57.047,1.175 -76.071,8.525 -96.82,8.525 c -39.423,0 -72.647,-26.549 -82.796,-62.722 -7.3,2 -14.974,3.1 -22.899,3.1 -10.399,0 -20.374,-1.85 -29.598,-5.225 -15.75,19.399 -39.823,31.798 -66.772,31.798 -47.473,0 -85.971,-38.498 -85.971,-85.97 0,-47.473 38.498,-85.971 85.971,-85.971 10.399,0 20.374,1.85 29.598,5.225 15.775,-19.424 39.823,-31.824 66.797,-31.824 39.423,0 72.646,26.549 82.796,62.722 7.3,-2 14.974,-3.1 22.899,-3.1 15.324,0 29.723,4 42.198,11.05 14.849,-12.225 33.873,-19.574 54.622,-19.574 47.473,0 85.971,38.498 85.971,85.97 C 85.996,-38.523 47.498,0 0,0"
             style="fill:#130c0e;fill-opacity:1;fill-rule:nonzero;stroke:none"
             id="path32" />
        </g>
        <g
           id="g34"
           transform="translate(386.4058,287.9101)">
          <path
             d="m 0,0 c 0,0 -2.031,-17.313 -24.199,-39.673 l -11.349,9.425 c 11.358,9.198 24.449,30.217 24.449,48.947 v 0.529 c 0,2.25 -1.741,2.247 -3.909,1.826 l -2.191,-0.426 v 6.667 L 7.125,32.023 V 22.241 C 7.125,3.113 17.677,0.037 31.698,-0.1 L 24.724,-10.949 C 3.418,-9.038 0,0 0,0 M 68.122,26.774 V 14.591 l -13.85,-2.692 v -22.877 l -18.499,-3.596 v 52.713 c 0,2.373 -1.949,2.349 -4.169,1.918 l -2.23,-0.434 v 7.035 l 24.898,4.839 V 24.082 Z M 19.199,-49.987 c -2.525,0.05 -7.675,0.151 -7.675,8.069 0,8.206 6.552,14.092 13.675,14.092 7.311,0.001 7.824,-4.953 7.824,-7.969 0,-7.392 -6.371,-14.339 -13.824,-14.192 m 18.499,32.631 c -8.585,1.935 -19.637,2.139 -32.173,-6.399 -8.243,-5.614 -12.4,-12.452 -12.4,-20.289 0.001,-2.823 0.62,-5.625 1.85,-8.319 3.777,-8.271 9.37,-8.715 16.974,-9.318 12.426,-0.987 19.899,2.301 27.349,7.349 8.325,5.647 12.574,12.386 12.574,20.264 0,7.031 -3.609,14.332 -14.174,16.712"
             style="fill:#faa61a;fill-opacity:1;fill-rule:nonzero;stroke:none"
             id="path36" />
        </g>
        <g
           id="g38"
           transform="translate(320.5816,345.447)">
          <path
             d="m 0,0 v -6.897 l 1.855,0.361 c 1.846,0.359 3.497,0.603 3.497,-1.77 v -87.829 l 18.649,3.625 V 4.665 Z m -21.846,-22.139 v -6.896 l 1.854,0.36 c 1.847,0.359 3.538,0.688 3.538,-1.686 v -20.098 l -15.642,-3.04 v -10.813 l 15.642,3.041 v -59.559 l 17.156,3.335 v 99.739 z m 2.425,-57.272 -8,-10.674 c -15.628,5.101 -19.849,12.874 -19.849,12.874 0,0 -5.918,-10.997 -18.324,-22.374 l -10.35,8.625 c 0,0 18.285,17.072 18.285,34.125 v 12.98 c 0,2.374 -1.939,2.312 -4.107,1.891 l -2.178,-0.424 v 7.5 l 23.949,4.655 v -23.879 c 0,-22.864 20.574,-25.299 20.574,-25.299"
             style="fill:#f15a22;fill-opacity:1;fill-rule:nonzero;stroke:none"
             id="path40" />
        </g>
        <g
           id="g42"
           transform="translate(179.4161,256.0634)">
          <path
             d="M 0,0 V -11.027 L 59.047,0.451 V -10.294 L -9.384,-23.596 c -5.523,-1.073 -10,2.534 -10,8.057 v 12.801 c 0,2.215 -0.204,2.884 -5.383,1.877 l -0.982,-0.191 V 5.74 L 59.047,22.222 V 11.478 Z m 59.047,-15.557 v -10.745 l -99.295,-19.301 v 10.745 z M 37.348,-60.663 3.9,-67.164 v 14.009 l 33.448,6.502 z m 19.699,28.709 -79.271,-15.409 v -7.377 l 0.983,0.191 c 5.188,1.009 5.392,0.195 5.392,-2.235 v -15.438 c 0,-4.971 4.029,-8.217 9,-7.251 l 56.896,11.06 c 4.971,0.966 9,5.779 9,10.749 v 24.099 c 0,1.104 -0.895,1.825 -2,1.611"
             style="fill:#faa61a;fill-opacity:1;fill-rule:nonzero;stroke:none"
             id="path44" />
        </g>
        <g
           id="g46"
           transform="translate(104.02,304.8593)">
          <path
             d="m 0,0 v -7.45 l 2.176,0.423 C 4.342,-6.606 6.325,-6.22 6.325,-9 v -43.997 c -3.2,-1.8 -7.298,-3.293 -12.35,-4.275 l -29.923,-5.817 v 13.466 l 27.748,5.394 c 1.381,0.269 2.5,1.605 2.5,2.986 v 26.662 c 0,1.381 -1.119,2.282 -2.5,2.014 l -52.047,-10.117 v -11.514 l 35.498,6.9 v -9.054 l -37.148,-7.221 v -7.575 l 0.877,0.171 c 1.771,0.344 4.398,0.855 4.398,-1.72 v -17.925 c 0,-4.418 3.581,-7.303 8,-6.444 l 39.072,7.594 c 7.33,1.425 12.65,3.2 15.875,4.825 v -42.185 l 20.124,3.912 V 5.141 Z"
             style="fill:#f15a22;fill-opacity:1;fill-rule:nonzero;stroke:none"
             id="path48" />
        </g>
        <g
           id="g50"
           transform="translate(493.809,189.979)">
          <path
             d="M 0,0 V 9.889 L -2.487,-0.587 -5.182,-1.222 -7.61,8.095 v -9.889 l -2.546,-0.601 V 9.444 l 3.978,0.938 2.399,-8.825 0.029,0.007 2.34,9.942 3.927,0.926 V 0.594 Z M -18.387,-4.336 V 5.403 L -22.483,4.437 V 6.53 l 10.836,2.555 V 6.992 l -3.949,-0.931 v -9.739 z"
             style="fill:#130c0e;fill-opacity:1;fill-rule:nonzero;stroke:none"
             id="path52" />
        </g>
      </g>
    </g>
  </g>
</svg>
