<?xml version="1.0" encoding="UTF-8" standalone="no"?>
<!-- Created with Inkscape (http://www.inkscape.org/) -->

<svg
   version="1.1"
   id="svg2"
   width="666.66669"
   height="480.18399"
   viewBox="0 0 666.66669 480.18399"
   sodipodi:docname="Rhythm Tengoku Gold (リズム天国ゴールド) (Beta) Logo.ai"
   xmlns:inkscape="http://www.inkscape.org/namespaces/inkscape"
   xmlns:sodipodi="http://sodipodi.sourceforge.net/DTD/sodipodi-0.dtd"
   xmlns="http://www.w3.org/2000/svg"
   xmlns:svg="http://www.w3.org/2000/svg">
  <defs
     id="defs6">
    <clipPath
       clipPathUnits="userSpaceOnUse"
       id="clipPath16">
      <path
         d="M 0,360.138 H 500 V 0 H 0 Z"
         id="path14" />
    </clipPath>
  </defs>
  <sodipodi:namedview
     id="namedview4"
     pagecolor="#ffffff"
     bordercolor="#000000"
     borderopacity="0.25"
     inkscape:showpageshadow="2"
     inkscape:pageopacity="0.0"
     inkscape:pagecheckerboard="0"
     inkscape:deskcolor="#d1d1d1" />
  <g
     id="g8"
     inkscape:groupmode="layer"
     inkscape:label="Rhythm Tengoku Gold (リズム天国ゴールド) (Beta) Logo"
     transform="matrix(1.3333333,0,0,-1.3333333,0,480.184)">
    <g
       id="g10">
      <g
         id="g12"
         clip-path="url(#clipPath16)">
        <g
           id="g18"
           transform="translate(500,279.1983)">
          <path
             d="m 0,0 c 0,44.63 -36.31,80.94 -80.94,80.94 -33.988,0 -63.847,-21.198 -75.615,-52.045 -16.752,-0.066 -32.682,-5.177 -46.095,-14.62 -13.738,9.962 -30.442,15.491 -47.568,15.491 -34.597,0 -64.584,-21.617 -76.023,-53.091 -16.716,0.063 -32.583,-4.788 -46.059,-13.984 -13.571,9.655 -29.749,14.856 -46.76,14.856 -44.63,0 -80.94,-36.31 -80.94,-80.94 0,-42.999 33.707,-78.274 76.083,-80.797 -0.818,-4.63 -1.235,-9.34 -1.235,-14.068 0,-44.631 36.309,-80.94 80.94,-80.94 28.75,0 55.307,15.564 69.7,39.827 3.43,-0.441 6.892,-0.663 10.369,-0.663 24.143,0 46.964,10.93 62.208,29.194 7.174,-2.05 14.605,-3.084 22.214,-3.084 20.465,0 39.697,7.551 54.485,21.078 10.897,-5.277 22.839,-8.023 35.158,-8.023 44.63,0 80.94,36.309 80.94,80.94 0,21.221 -8.185,41.056 -22.324,55.852 C -11.99,-49.056 0,-25.609 0,0"
             style="fill:#00b3f0;fill-opacity:1;fill-rule:nonzero;stroke:none"
             id="path20" />
        </g>
        <g
           id="g22"
           transform="translate(454.405,216.19)">
          <path
             d="m 0,0 c 22.505,12.597 36.892,36.504 36.892,63.008 0,39.832 -32.405,72.237 -72.237,72.237 -32.437,0 -60.659,-21.628 -69.43,-52.288 -19.417,1.608 -37.886,-4.497 -52.346,-16.711 -13.15,11.542 -29.776,17.825 -47.502,17.825 -33.046,0 -61.377,-22.09 -69.748,-53.419 -19.167,1.833 -37.843,-3.968 -52.441,-15.891 -13.026,11.066 -29.356,17.091 -46.653,17.091 -39.832,0 -72.237,-32.405 -72.237,-72.237 0,-39.832 32.405,-72.237 72.237,-72.237 2.119,0 4.235,0.094 6.344,0.281 -2.46,-7.358 -3.733,-15.103 -3.733,-22.909 0,-39.832 32.405,-72.237 72.237,-72.237 27.656,0 53.04,16.141 65.007,40.746 4.938,-1.051 9.983,-1.581 15.062,-1.581 23.513,0 45.622,11.619 59.074,30.685 8.081,-3.039 16.582,-4.576 25.348,-4.576 20.317,0 39.272,8.341 52.924,23.088 11.102,-6.582 23.672,-10.033 36.719,-10.033 39.831,0 72.236,32.405 72.236,72.237 C 27.753,-34.351 17.382,-13.54 0,0"
             style="fill:#ffffff;fill-opacity:1;fill-rule:nonzero;stroke:none"
             id="path24" />
        </g>
        <g
           id="g26"
           transform="translate(439.7871,217.3041)">
          <path
             d="m 0,0 c 25.885,8.666 44.547,33.093 44.547,61.894 0,36.05 -29.224,65.274 -65.274,65.274 -31.858,0 -58.37,-22.828 -64.108,-53.016 -3.633,0.627 -7.363,0.972 -11.175,0.972 -18.247,0 -34.737,-7.496 -46.582,-19.566 -11.899,12.577 -28.733,20.436 -47.413,20.436 -32.292,0 -59.09,-23.455 -64.329,-54.255 -3.973,0.755 -8.067,1.166 -12.259,1.166 -17.794,0 -33.917,-7.129 -45.691,-18.675 -11.844,12.058 -28.326,19.545 -46.563,19.545 -36.05,0 -65.274,-29.224 -65.274,-65.274 0,-36.05 29.224,-65.274 65.274,-65.274 6.261,0 12.308,0.9 18.04,2.545 -5.38,-9.489 -8.467,-20.449 -8.467,-32.136 0,-36.05 29.225,-65.274 65.274,-65.274 27.851,0 51.613,17.449 60.988,42.005 6.037,-1.842 12.442,-2.841 19.082,-2.841 24.068,0 45.079,13.036 56.397,32.423 8.492,-4.044 17.992,-6.313 28.024,-6.313 20.989,0 39.651,9.917 51.592,25.309 10.714,-7.703 23.848,-12.254 38.052,-12.254 36.049,0 65.274,29.224 65.274,65.274 C 35.409,-32.751 21.023,-10.841 0,0"
             style="fill:#130c0e;fill-opacity:1;fill-rule:nonzero;stroke:none"
             id="path28" />
        </g>
        <g
           id="g30"
           transform="translate(432.9113,197.0546)">
          <path
             d="m 0,0 c -3.365,0 -6.092,-2.728 -6.092,-6.092 0,-3.365 2.727,-6.093 6.092,-6.093 3.365,0 6.092,2.728 6.092,6.093 C 6.092,-2.728 3.365,0 0,0 m -14.057,-3.505 c -3.364,0 -6.092,-2.727 -6.092,-6.092 0,-3.365 2.728,-6.092 6.092,-6.092 3.365,0 6.093,2.727 6.093,6.092 0,3.365 -2.728,6.092 -6.093,6.092 m 28.491,-46.551 -20.888,-5.207 c 0,0 -5.475,12.042 -17.841,13.828 v -31.332 l -19.582,-4.882 v 44.386 c 0,2.884 -3.209,4.422 -6.093,3.703 v 18.277 l 25.675,6.401 v -23.456 c 35.766,0.866 38.729,-21.718 38.729,-21.718"
             style="fill:#faa61a;fill-opacity:1;fill-rule:nonzero;stroke:none"
             id="path32" />
        </g>
        <g
           id="g34"
           transform="translate(297.6501,116.6384)">
          <path
             d="m 0,0 c 0,-5.222 -4.352,-6.307 -4.352,-6.307 v -10.444 c 0,0 4.705,-0.568 10.444,0.864 4.787,1.193 9.574,4.986 9.574,14.571 V 30.886 L 0,26.98 Z M 49.608,63.718 V 41.96 C 43.599,40.461 41.775,37.925 41.775,33.044 V 10.416 c 3.79,0.945 6.093,7.633 6.093,18.925 l 19.147,4.774 C 67.015,4.91 53.993,-3.944 21.758,-11.982 v 68.756 z"
             style="fill:#f15a22;fill-opacity:1;fill-rule:nonzero;stroke:none"
             id="path36" />
        </g>
        <g
           id="g38"
           transform="translate(212.3586,107.1221)">
          <path
             d="M 0,0 57.441,14.322 V -5.696 L 0,-20.017 Z"
             style="fill:#faa61a;fill-opacity:1;fill-rule:nonzero;stroke:none"
             id="path40" />
        </g>
        <g
           id="g42"
           transform="translate(182.9086,130.0639)">
          <path
             d="m 0,0 c -3.365,0 -6.092,-2.728 -6.092,-6.092 0,-3.365 2.727,-6.093 6.092,-6.093 3.365,0 6.092,2.728 6.092,6.093 C 6.092,-2.728 3.365,0 0,0 m -14.057,-3.505 c -3.364,0 -6.092,-2.727 -6.092,-6.092 0,-3.365 2.728,-6.092 6.092,-6.092 3.365,0 6.093,2.727 6.093,6.092 0,3.365 -2.728,6.092 -6.093,6.092 m -44.396,-25.252 67.015,16.708 v -20.017 c -2.368,-0.591 -4.621,-2.55 -4.917,-6.351 L 0.729,-75.795 -43.416,-86.801 c -7.131,-1.778 -15.037,-2.009 -15.037,-2.009 v 13.055 c 0,0 8.171,0.297 13.97,1.747 l 26.065,6.494 v 28.721 l -40.035,-9.982 z"
             style="fill:#f15a22;fill-opacity:1;fill-rule:nonzero;stroke:none"
             id="path44" />
        </g>
        <g
           id="g46"
           transform="translate(432.1149,267.6577)">
          <path
             d="M 0,0 C -2.236,-0.557 -6.585,-0.339 -6.585,2.45 V 9.672 L 0,11.314 v 6.963 l -6.585,-1.642 v 7.222 c 0,2.827 4.272,5.157 6.585,5.734 v 6.963 l -26.11,-6.51 v -6.963 c 2.314,0.577 6.585,0.377 6.586,-2.45 V 13.409 L -26.11,11.767 V 4.804 l 6.586,1.642 v -7.222 c 0,-2.789 -4.35,-5.176 -6.586,-5.734 v -6.962 L 0,-6.963 Z M 3.481,40.903 -29.591,32.657 V -17.822 L 3.481,-9.576 Z M 20.453,53.837 V -14.048 L -46.562,-30.756 V 37.129 Z M -1.305,8.813 C 0.617,9.292 2.176,8.122 2.176,6.2 2.176,4.277 0.617,2.33 -1.305,1.85 -3.228,1.371 -4.787,2.541 -4.787,4.464 c 0,1.922 1.559,3.87 3.482,4.349"
             style="fill:#f15a22;fill-opacity:1;fill-rule:nonzero;stroke:none"
             id="path48" />
        </g>
        <g
           id="g50"
           transform="translate(435.4481,324.7401)">
          <path
             d="m 0,0 c -2.223,0.906 -4.511,1.605 -6.852,2.143 -1.257,0.293 -2.376,0.556 -2.634,1.4 -0.198,0.645 0.261,1.506 1.285,3.059 1.99,3.016 2.252,3.427 2.893,4.632 l 1.713,-0.557 C -4.954,8.474 -5.176,8.161 -7.146,5.411 -7.642,4.726 -7.841,4.435 -7.757,4.158 -7.656,3.828 -6.962,3.68 -6.515,3.586 -4.255,3.124 -0.543,2.155 0.971,1.493 Z"
             style="fill:#f15a22;fill-opacity:1;fill-rule:nonzero;stroke:none"
             id="path52" />
        </g>
        <g
           id="g54"
           transform="translate(405.5549,322.6442)">
          <path
             d="m 0,0 c -0.705,0.679 -1.084,0.989 -1.785,1.47 l 0.747,0.811 C -0.337,1.842 0.298,1.298 0.741,0.823 Z m -1.359,-1.267 c -0.93,0.95 -1.504,1.343 -1.795,1.552 l 0.72,0.803 c 0.926,-0.612 1.628,-1.334 1.817,-1.532 z M -1.498,2.765 C -3.048,1.979 -4.036,1.08 -5.26,-0.302 l -1.217,0.636 c 0.328,0.412 0.403,0.493 1.12,1.166 -2.662,-0.857 -3.772,-1.224 -4.587,-1.53 l -0.448,1.467 c 0.394,0.106 2.004,0.599 2.653,0.797 0.922,0.282 5.021,1.549 5.852,1.803 z m -5.341,-5.566 c -0.769,-1.384 -0.532,-2.348 -0.448,-2.621 0.516,-1.688 3.016,-0.952 4.965,-0.356 1.272,0.388 2.529,0.83 3.732,1.397 L 1.906,-5.82 c -0.434,-0.204 -1.307,-0.598 -3.32,-1.213 -2.557,-0.782 -3.696,-1.003 -4.963,-0.808 -1.027,0.154 -2.017,0.93 -2.331,1.956 -0.365,1.195 -0.043,2.188 0.579,3.542 z"
             style="fill:#f15a22;fill-opacity:1;fill-rule:nonzero;stroke:none"
             id="path56" />
        </g>
        <g
           id="g58"
           transform="translate(353.3507,219.2989)">
          <path
             d="M 0,0 C 0,0 0.462,1.255 0.87,2.828 L 16.536,6.734 V 20.659 L 2.611,17.187 v 6.963 l 20.017,4.991 V 48.288 L -43.516,31.796 V 12.649 l 25.239,6.293 V 11.979 L -35.683,7.639 V -6.286 l 16.723,4.17 c -4.087,-19.56 -15.253,-21.799 -24.556,-20.918 v -10.444 c 0,0 3.801,-0.793 9.573,0.646 10.141,2.529 19.908,6.759 29.591,23.044 6.28,-2.786 9.574,-13.279 9.574,-13.279 l 18.277,4.557 C 21.014,-9.997 7.899,-1.093 0,0"
             style="fill:#faa61a;fill-opacity:1;fill-rule:nonzero;stroke:none"
             id="path60" />
        </g>
        <g
           id="g62"
           transform="translate(349.9091,279.331)">
          <path
             d="m 0,0 c -0.021,-0.819 -0.171,-4.399 -0.177,-5.132 0.211,0.281 0.588,0.776 1.43,1.033 1.994,0.61 2.63,-1.295 2.903,-2.187 l 0.162,-0.532 c 0.11,-0.359 0.455,-1.486 1.508,-1.165 0.991,0.303 1.316,1.541 0.743,4.344 l 1.418,0.014 C 8.546,-6.65 8.36,-8.697 6.082,-9.394 5.066,-9.704 4.084,-9.327 3.588,-8.68 3.275,-8.274 3.011,-7.543 2.927,-7.27 l -0.128,0.421 c -0.243,0.792 -0.489,1.597 -1.417,1.313 -1.4,-0.428 -1.644,-2.154 -1.692,-2.928 -0.006,-0.069 0.098,-2.624 0.113,-2.984 l -1.549,-0.027 c 0.073,3.218 0.091,9.358 0.099,11.283 z"
             style="fill:#faa61a;fill-opacity:1;fill-rule:nonzero;stroke:none"
             id="path64" />
        </g>
        <g
           id="g66"
           transform="translate(326.8492,269.8959)">
          <path
             d="m 0,0 c -0.262,-0.054 -0.548,-0.115 -1.068,-0.274 -1.09,-0.333 -1.739,-0.849 -2.223,-1.301 -1.456,-1.385 -2.487,-3.514 -1.987,-5.148 0.563,-1.841 2.881,-1.846 6.334,-0.672 l 0.247,-1.499 c -2.607,-0.784 -3.995,-0.878 -5.271,-0.645 -1.259,0.224 -2.324,1.155 -2.669,2.281 -0.381,1.247 -0.317,3.331 1.879,5.803 -1.855,-0.686 -3.687,-1.405 -5.515,-2.136 l -0.471,1.365 c 0.835,0.256 1.729,0.582 2.553,0.873 1.026,0.367 6.516,2.284 7.748,2.713 z"
             style="fill:#faa61a;fill-opacity:1;fill-rule:nonzero;stroke:none"
             id="path68" />
        </g>
        <g
           id="g70"
           transform="translate(278.5031,235.4502)">
          <path
             d="m 0,0 -16.536,-6.734 c 10.422,-8.154 10.444,-14.802 10.444,-14.802 l -32.202,-8.029 c 6.004,4.317 15.577,17.611 18.277,31.537 1.205,6.217 3.624,8.736 6.962,9.569 v 19.147 l -27.85,-6.944 c 0,-49.289 -11.149,-54.999 -15.666,-56.125 v -14.796 l 66.145,16.492 c 0,0 2.093,20.825 -9.574,30.685"
             style="fill:#f15a22;fill-opacity:1;fill-rule:nonzero;stroke:none"
             id="path72" />
        </g>
        <g
           id="g74"
           transform="translate(193.9705,225.796)">
          <path
             d="m 0,0 c -3.365,0 -6.092,-2.728 -6.092,-6.092 0,-3.365 2.727,-6.093 6.092,-6.093 3.365,0 6.092,2.728 6.092,6.093 C 6.092,-2.728 3.365,0 0,0 m -14.057,-3.505 c -3.364,0 -6.092,-2.727 -6.092,-6.092 0,-3.365 2.728,-6.092 6.092,-6.092 3.365,0 6.093,2.727 6.093,6.092 0,3.365 -2.728,6.092 -6.093,6.092 M -58.2,-29.414 8.814,-12.706 v -18.276 l -2.61,-0.651 c -3.394,-0.846 -6.495,-14.734 -13.351,-24.968 0,0 14.639,-8.422 15.961,-17.027 l -17.406,-4.34 c -2.225,8.049 -6.092,9.795 -6.092,9.795 0,0 -10.27,-13.875 -29.597,-18.694 -8.378,-2.088 -13.919,-1.324 -13.919,-1.324 v 12.65 c 8.007,0.495 17.232,1.674 23.411,7.337 8.599,7.807 13.212,18.693 14.883,30.061 L -58.2,-47.691 Z"
             style="fill:#faa61a;fill-opacity:1;fill-rule:nonzero;stroke:none"
             id="path76" />
        </g>
        <g
           id="g78"
           transform="translate(47.8677,166.6322)">
          <path
             d="M 0,0 20.888,5.208 V 40.021 L 0,34.813 Z M 66.144,51.305 V 32.157 C 63.26,31.438 60.923,28.518 60.923,25.634 60.923,-6.365 51.47,-19.369 16.701,-28.038 4.902,-30.98 0,-30.461 0,-30.461 v 12.184 c 0,0 40.035,0.728 40.035,29.999 v 33.073 z"
             style="fill:#f15a22;fill-opacity:1;fill-rule:nonzero;stroke:none"
             id="path80" />
        </g>
        <g
           id="g82"
           transform="translate(491.8884,97.229)">
          <path
             d="M 0,0 V 7.746 L -1.805,-0.45 -3.76,-0.938 -5.523,6.369 v -7.746 l -1.848,-0.461 v 9.273 l 2.887,0.72 1.741,-6.921 0.022,0.005 1.698,7.778 2.85,0.711 V 0.455 Z M -13.344,-3.327 V 4.301 L -16.317,3.56 V 5.199 L -8.453,7.16 V 5.52 l -2.866,-0.714 v -7.628 z"
             style="fill:#130c0e;fill-opacity:1;fill-rule:nonzero;stroke:none"
             id="path84" />
        </g>
      </g>
    </g>
  </g>
</svg>
