<?xml version="1.0" encoding="UTF-8" standalone="no"?>
<!-- Created with Inkscape (http://www.inkscape.org/) -->

<svg
   version="1.1"
   id="svg2"
   xml:space="preserve"
   width="666.66669"
   height="439.53867"
   viewBox="0 0 666.66669 439.53867"
   sodipodi:docname="Rhythm Heaven 2008 (Beta) Logo (Print).ai"
   xmlns:inkscape="http://www.inkscape.org/namespaces/inkscape"
   xmlns:sodipodi="http://sodipodi.sourceforge.net/DTD/sodipodi-0.dtd"
   xmlns="http://www.w3.org/2000/svg"
   xmlns:svg="http://www.w3.org/2000/svg"><defs
     id="defs6"><clipPath
       clipPathUnits="userSpaceOnUse"
       id="clipPath16"><path
         d="M 0,329.654 H 500 V 0 H 0 Z"
         id="path14" /></clipPath></defs><sodipodi:namedview
     id="namedview4"
     pagecolor="#ffffff"
     bordercolor="#666666"
     borderopacity="1.0"
     inkscape:pageshadow="2"
     inkscape:pageopacity="0.0"
     inkscape:pagecheckerboard="0" /><g
     id="g8"
     inkscape:groupmode="layer"
     inkscape:label="Rhythm Heaven 2008 (Beta) Logo (Print)"
     transform="matrix(1.3333333,0,0,-1.3333333,0,439.53867)"><g
       id="g10"><g
         id="g12"
         clip-path="url(#clipPath16)"><g
           id="g18"
           transform="translate(447.7794,230.8281)"><path
             d="m 0,0 c 0.02,0.78 0.029,1.559 0.029,2.337 0,53.204 -43.285,96.488 -96.488,96.488 -30.692,0 -58.842,-14.502 -76.747,-37.996 -11.649,5.587 -24.511,8.593 -37.601,8.593 -20.076,0 -39.075,-6.821 -54.255,-18.966 -19.541,14.525 -43.354,22.538 -68.231,22.538 -63.128,0 -114.486,-51.358 -114.486,-114.486 0,-42.42 23.54,-80.983 60.066,-100.742 3.787,-49.487 45.266,-88.594 95.707,-88.594 20.889,0 40.754,6.599 57.446,19.082 7.886,5.897 14.722,12.843 20.363,20.63 10.02,-4.307 20.91,-6.567 32.171,-6.567 22.158,0 42.848,8.955 57.872,24.106 16.25,-9.758 34.854,-14.955 54.327,-14.955 58.755,0 106.556,48.183 106.556,107.408 C 36.729,-49.629 23.228,-20.263 0,0"
             style="fill:#000000;fill-opacity:1;fill-rule:nonzero;stroke:none"
             id="path20" /></g><g
           id="g22"
           transform="translate(434.1375,224.862)"><path
             d="m 0,0 c 0.281,2.778 0.423,5.553 0.423,8.303 0,45.899 -37.342,83.24 -83.241,83.24 -30.439,0 -57.982,-16.537 -72.528,-42.384 -12.185,8.446 -26.606,12.98 -41.819,12.98 -20.659,0 -39.976,-8.524 -53.789,-23.301 -18.606,17.212 -43.01,26.874 -68.697,26.874 -55.823,0 -101.238,-45.415 -101.238,-101.238 0,-40.035 23.716,-76.188 59.79,-92.384 -0.003,-0.323 -0.005,-0.643 -0.005,-0.963 0,-45.624 37.117,-82.741 82.74,-82.741 18.007,0 35.128,5.686 49.511,16.444 9.77,7.306 17.85,16.794 23.571,27.515 10.896,-7.043 23.588,-10.813 36.898,-10.813 22.316,0 42.856,10.847 55.501,28.522 16.186,-12.575 35.877,-19.372 56.698,-19.372 51.45,0 93.308,42.241 93.308,94.16 C 37.123,-45.375 23.367,-17.768 0,0"
             style="fill:#ffffff;fill-opacity:1;fill-rule:nonzero;stroke:none"
             id="path24" /></g><g
           id="g26"
           transform="translate(422.5732,219.8668)"><path
             d="m 0,0 c 0.8,4.313 1.239,8.753 1.239,13.298 0,40.036 -32.456,72.491 -72.492,72.491 -31.849,0 -58.881,-20.548 -68.613,-49.104 -11.481,12.125 -27.718,19.701 -45.734,19.701 -22.249,0 -41.789,-11.545 -52.996,-28.96 -16.599,19.88 -41.566,32.532 -69.49,32.532 -49.976,0 -90.49,-40.513 -90.49,-90.489 0,-39.367 25.142,-72.857 60.243,-85.304 -0.294,-2.642 -0.459,-5.323 -0.459,-8.043 0,-39.76 32.232,-71.992 71.992,-71.992 32.305,0 59.641,21.279 68.755,50.585 10.447,-10.751 25.052,-17.439 41.226,-17.439 23.646,0 43.95,14.28 52.78,34.683 15.016,-15.732 36.078,-25.533 59.418,-25.533 45.596,0 82.559,37.345 82.559,83.412 C 37.938,-40.71 22.815,-14.842 0,0"
             style="fill:#000000;fill-opacity:1;fill-rule:nonzero;stroke:none"
             id="path28" /></g><g
           id="g30"
           transform="translate(418.4501,163.573)"><path
             d="m 0,0 c -3.37,8.951 -10.717,11.486 -19.393,9.037 -2.967,-0.837 -6.579,-3.93 -8.43,-5.088 -0.467,-0.292 -1.59,-0.814 -1.514,0.437 0.223,3.664 0.012,4.936 -0.536,6.417 -0.949,2.563 -8.327,5.878 -11.486,-1.842 -4.063,-9.929 -3.851,-26.703 0.266,-38.891 3.607,-10.679 21.462,-5.506 14.258,7.85 -7.805,14.469 3.948,21.354 9.549,21.354 6.721,0 8.316,-4.571 3.731,-17.614 -6.411,-18.235 8.065,-17.607 12.387,-11.941 C 3.844,-23.712 1.664,-4.42 0,0"
             style="fill:#ffffff;fill-opacity:1;fill-rule:nonzero;stroke:none"
             id="path32" /></g><g
           id="g34"
           transform="translate(347.5976,158.8296)"><path
             d="M 0,0 C 4.42,0.68 8.367,-0.891 8.815,-3.509 9.263,-6.126 6.043,-8.8 1.623,-9.479 c -4.42,-0.68 -8.366,0.891 -8.815,3.508 C -7.64,-3.353 -4.42,-0.68 0,0 m 16.071,-18.874 c -7.214,0 -7.015,-7.039 -15.445,-7.039 -3.331,0 -7.489,2.027 -7.489,4.913 0,12.131 26.769,0.173 26.769,13.897 0,12.055 -13.394,18.511 -23.257,15.719 -17.183,-4.863 -21.907,-27.054 -9.395,-39.443 12.699,-12.573 31.703,-3.049 34,1.834 2.641,5.615 -0.01,10.119 -5.183,10.119"
             style="fill:#ffffff;fill-opacity:1;fill-rule:nonzero;stroke:none"
             id="path36" /></g><g
           id="g38"
           transform="translate(323.9307,148.4415)"><path
             d="m 0,0 c 0,14.087 -12.756,12.483 -13.61,0.352 -0.344,-4.881 -1.007,-14.376 -1.728,-20.704 -0.589,-5.164 -3.228,-6.929 -4.519,-0.285 -1.247,6.419 -1.336,12.462 -4.328,20.732 -3.455,9.55 -14.114,9.227 -14.114,-1.252 0,-8.087 6.465,-24.204 14.209,-30.814 7.651,-6.531 14.637,-2.24 19.165,8.401 C -1.955,-16.59 0,-7.532 0,0"
             style="fill:#ffffff;fill-opacity:1;fill-rule:nonzero;stroke:none"
             id="path40" /></g><g
           id="g42"
           transform="translate(262.5641,117.4227)"><path
             d="M 0,0 C -4.369,-0.843 -8.346,0.605 -8.883,3.232 -9.419,5.86 -6.312,8.673 -1.942,9.516 2.427,10.358 6.404,8.911 6.94,6.283 7.477,3.656 4.369,0.842 0,0 m 19.734,3.975 c -1.236,0.654 -3.246,2.268 -3.246,4.737 0,2.634 1.11,3.626 1.11,8.818 0,10.423 -9.056,16.688 -18.795,16.688 -7.585,0 -13.574,-4.063 -16.631,-8.258 -2.677,-3.674 -0.911,-9.958 4.3,-9.958 6.664,0 4.301,8.22 13.461,8.22 3.954,0 8.325,-2.819 8.325,-5.781 0,-1.309 -1.31,-3.001 -3.016,-3.001 -1.541,0 -1.644,0.396 -4.189,0.396 -14.075,0 -19.564,-5.89 -19.564,-13.143 0,-8.429 5.976,-14.258 14.95,-14.258 8.715,0 12.018,3.522 14.367,7.039 0.383,0.573 0.937,1.042 1.681,0.298 1.345,-1.345 3.716,-3.54 7.646,-3.54 6.465,0 7.1,5.034 7.1,7.044 0,4.642 -5.021,3.389 -7.499,4.699"
             style="fill:#ffffff;fill-opacity:1;fill-rule:nonzero;stroke:none"
             id="path44" /></g><g
           id="g46"
           transform="translate(215.9432,136.5824)"><path
             d="M 0,0 C 4.5,0.854 8.595,-0.613 9.148,-3.276 9.7,-5.939 6.5,-8.791 2,-9.645 -2.5,-10.498 -6.595,-9.032 -7.148,-6.368 -7.7,-3.705 -4.5,-0.854 0,0 m 17.07,-18.441 c -7.24,0 -7.879,-7.727 -15.644,-7.727 -3.346,0 -7.632,1.963 -7.632,4.86 0,12.094 26.37,1.199 26.37,14.98 0,8.087 -10.028,18.687 -23.437,14.751 -17.206,-5.05 -21.204,-27.696 -8.212,-39.691 13.184,-12.172 31.808,-1.985 33.899,3.012 2.431,5.808 -0.228,9.815 -5.344,9.815"
             style="fill:#ffffff;fill-opacity:1;fill-rule:nonzero;stroke:none"
             id="path48" /></g><g
           id="g50"
           transform="translate(175.1461,149.486)"><path
             d="m 0,0 c -4.807,3.017 -11.465,2.028 -14.22,-4.196 -5.667,-12.805 11.733,-23.617 -10.594,-25.601 -20.942,-1.861 -8.885,17.514 -13.84,23.181 -5.347,6.115 -14.469,2.773 -18.169,-5.126 -6.739,-14.391 -5.151,-34.719 2.512,-49.62 9.622,-19.564 36.142,-10.497 21.258,9.703 -4.334,5.883 -2.155,11.496 7.214,12.72 13.926,1.821 22.044,-3.712 17.172,-14.324 C -17.371,-72.226 7.399,-72 12.587,-56.633 19.099,-37.344 12.976,-8.145 0,0"
             style="fill:#ffffff;fill-opacity:1;fill-rule:nonzero;stroke:none"
             id="path52" /></g><g
           id="g54"
           transform="translate(392.0228,223.8603)"><path
             d="m 0,0 c -2.449,11.704 -16.603,13.147 -25.19,5.874 -3.791,4.274 -11.897,6.343 -21.314,-0.833 -0.448,-0.342 -2.207,-1.14 -2.207,0.384 0,1.153 0.745,4.817 -0.945,7.096 -1.063,1.433 -4.727,2.847 -7.385,1.319 -5.165,-2.97 -5.325,-11.941 -5.325,-20.902 0,-5.668 1.946,-28.848 10.869,-28.848 11.429,0 5.449,16.384 3.911,20.598 -2.229,6.108 2.05,13.974 9.53,13.974 6.607,0 3.424,-7.713 2.468,-10.366 -2.847,-7.905 -4.822,-16.147 -0.759,-19.327 3.763,-2.946 10.511,-0.465 11.695,4.215 1.196,4.727 -0.274,12.467 0.531,18.567 0.702,5.311 6.926,8.985 11.923,7.252 5.392,-1.87 -3.678,-17.635 -5.24,-21.795 -3.303,-8.799 5.891,-11.854 10.423,-7.651 C 0.825,-23.171 1.914,-9.146 0,0"
             style="fill:#ffffff;fill-opacity:1;fill-rule:nonzero;stroke:none"
             id="path56" /></g><g
           id="g58"
           transform="translate(309.4875,224.656)"><path
             d="m 0,0 c -9.534,0.333 -12.531,-7.968 -14.533,-7.898 -0.759,0.026 -1.118,0.357 -1.06,2.003 0.237,6.783 3.829,9.279 4.134,18.026 0.335,9.581 -10.048,9.279 -14.3,2.721 -6.822,-11.919 -4.822,-39.394 -1.264,-51.037 2.474,-8.097 4.653,-10.643 10.408,-10.109 4.241,0.393 7.098,3.464 6.762,8.122 -0.377,5.215 -5.36,10.598 -5.05,15.656 0.492,8.031 10.265,12.541 15.23,10.651 7.883,-3.002 -1.109,-12.158 -2.512,-19.983 -1.49,-8.305 4.805,-11.442 10.232,-8.639 6.812,3.518 7.209,12.286 7.405,17.919 C 15.768,-13.535 15.501,-0.541 0,0"
             style="fill:#ffffff;fill-opacity:1;fill-rule:nonzero;stroke:none"
             id="path60" /></g><g
           id="g62"
           transform="translate(270.4942,188.078)"><path
             d="m 0,0 c -3.631,1.637 -6.736,-1.806 -10.181,0.413 -3.045,1.961 -2.7,8.059 -2.392,15.976 0.049,1.266 0.332,2.296 6.066,1.139 11.946,-2.411 10.821,12.359 2.572,12.245 -4.513,-0.062 -5.467,-3.986 -7.48,-2.828 -1.325,0.762 1.385,6.15 -0.759,10.916 -1.538,3.417 -10.011,3.182 -11.486,-1.234 -1.453,-4.348 2.109,-10.542 0.588,-11.714 -1.552,-1.196 -11.524,3.759 -14.106,-3.341 -2.181,-5.998 3.873,-11.961 9.816,-8.259 5.934,3.697 6.207,2.881 5.568,-3.848 -0.635,-6.689 -1.999,-17.624 2.671,-20.737 4.947,-3.298 16.803,-2.055 20.76,2.999 C 4.001,-5.254 2.998,-1.352 0,0"
             style="fill:#ffffff;fill-opacity:1;fill-rule:nonzero;stroke:none"
             id="path64" /></g><g
           id="g66"
           transform="translate(230.184,184.8363)"><path
             d="m 0,0 c 0,29.731 -8.955,27.302 -12.786,26.038 -5.354,-1.766 -5.31,-7.993 -2.421,-13.299 4.357,-8.002 1.481,-15.806 -3.566,-15.806 -4.788,0 -7.275,7.946 -7.275,13.718 0,13.052 -14.371,9.777 -14.371,1.765 0,-4.97 3.303,-25.573 15.036,-25.573 6.664,0 5.05,2.696 8.163,2.696 5.772,0 3.076,-11.524 -5.429,-11.524 -4.951,0 -4.775,2.402 -9.559,2.459 -7.271,0.086 -8.675,-10.682 -2.117,-12.958 C -18.976,-37.809 0,-27.424 0,0"
             style="fill:#ffffff;fill-opacity:1;fill-rule:nonzero;stroke:none"
             id="path68" /></g><g
           id="g70"
           transform="translate(185.7855,185.4995)"><path
             d="m 0,0 c 0,9.038 -0.72,22.015 -16.231,22.015 -9.54,0 -12.245,-8.401 -14.248,-8.401 -0.759,0 -1.129,0.318 -1.129,1.965 0,6.787 3.502,9.407 3.502,18.159 0,9.587 -10.366,8.923 -14.386,2.221 -6.402,-12.15 -3.444,-39.539 0.518,-51.051 2.755,-8.006 5.021,-10.474 10.755,-9.739 4.224,0.541 6.972,3.71 6.474,8.353 -0.559,5.199 -5.727,10.405 -5.594,15.47 0.211,8.043 9.821,12.892 14.849,11.176 7.983,-2.724 -0.684,-12.189 -1.813,-20.058 -1.199,-8.353 5.202,-11.268 10.527,-8.277 C -0.091,-14.414 0,-5.637 0,0"
             style="fill:#ffffff;fill-opacity:1;fill-rule:nonzero;stroke:none"
             id="path72" /></g><g
           id="g74"
           transform="translate(98.1804,194.1011)"><path
             d="m 0,0 c -7.109,0 -12.872,5.763 -12.872,12.872 0,7.109 5.763,12.872 12.872,12.872 7.109,0 12.872,-5.763 12.872,-12.872 C 12.872,5.763 7.109,0 0,0 m 29.769,-8.467 c -6.795,3.25 -9.968,2.639 -9.968,6.151 0,3.816 7.491,5.052 10.338,8.894 8.145,10.993 -0.997,31.326 -28.563,31.326 -38.16,0 -45.261,-56.718 -24.564,-72.811 10.175,-7.912 20.976,-6.67 20.976,2.215 0,9.321 -7.419,10.309 -7.419,16.944 0,4.022 2.653,9.008 9.491,9.008 7.442,0 13.033,-4.98 15.384,-7.442 5.838,-6.113 0.541,-13.479 2.82,-19.801 1.073,-2.978 5.274,-4.101 8.296,-4.101 15.416,0 18.131,22.478 3.209,29.617"
             style="fill:#ffffff;fill-opacity:1;fill-rule:nonzero;stroke:none"
             id="path76" /></g><g
           id="g78"
           transform="translate(498.1495,115.1243)"><path
             d="m 0,0 0.126,7.24 -1.806,-7.659 -1.819,-0.453 -1.515,6.83 -0.125,-7.239 -1.72,-0.429 0.15,8.666 2.687,0.67 1.501,-6.47 0.02,0.005 1.699,7.268 L 1.85,9.09 1.7,0.424 Z m -12.417,-3.096 0.124,7.129 -2.767,-0.689 0.027,1.532 7.317,1.824 -0.026,-1.532 -2.667,-0.665 -0.124,-7.129 z"
             style="fill:#000000;fill-opacity:1;fill-rule:nonzero;stroke:none"
             id="path80" /></g></g></g></g></svg>
