<?xml version="1.0" encoding="UTF-8" standalone="no"?>
<!-- Created with Inkscape (http://www.inkscape.org/) -->

<svg
   version="1.1"
   id="svg1"
   width="666.66669"
   height="468.76401"
   viewBox="0 0 666.66669 468.76401"
   sodipodi:docname="This way to Rhythm Heaven.ai"
   xmlns:inkscape="http://www.inkscape.org/namespaces/inkscape"
   xmlns:sodipodi="http://sodipodi.sourceforge.net/DTD/sodipodi-0.dtd"
   xmlns="http://www.w3.org/2000/svg"
   xmlns:svg="http://www.w3.org/2000/svg">
  <defs
     id="defs1">
    <clipPath
       clipPathUnits="userSpaceOnUse"
       id="clipPath2">
      <path
         d="M 0,351.573 H 500 V 0 H 0 Z"
         transform="translate(-384.30511,-54.019299)"
         id="path2" />
    </clipPath>
    <clipPath
       clipPathUnits="userSpaceOnUse"
       id="clipPath4">
      <path
         d="M 0,351.573 H 500 V 0 H 0 Z"
         transform="translate(-499.69081,-187.7761)"
         id="path4" />
    </clipPath>
    <clipPath
       clipPathUnits="userSpaceOnUse"
       id="clipPath6">
      <path
         d="M 0,351.573 H 500 V 0 H 0 Z"
         transform="translate(-393.25921,-317.60031)"
         id="path6" />
    </clipPath>
    <clipPath
       clipPathUnits="userSpaceOnUse"
       id="clipPath8">
      <path
         d="M 0,351.573 H 500 V 0 H 0 Z"
         transform="translate(-233.06481,-165.8152)"
         id="path8" />
    </clipPath>
    <clipPath
       clipPathUnits="userSpaceOnUse"
       id="clipPath10">
      <path
         d="M 0,351.573 H 500 V 0 H 0 Z"
         transform="translate(-221.57551,-272.2351)"
         id="path10" />
    </clipPath>
    <clipPath
       clipPathUnits="userSpaceOnUse"
       id="clipPath12">
      <path
         d="M 0,351.573 H 500 V 0 H 0 Z"
         transform="translate(-166.6429,-167.2321)"
         id="path12" />
    </clipPath>
    <clipPath
       clipPathUnits="userSpaceOnUse"
       id="clipPath14">
      <path
         d="M 0,351.573 H 500 V 0 H 0 Z"
         transform="translate(-118.35051,-241.73611)"
         id="path14" />
    </clipPath>
    <clipPath
       clipPathUnits="userSpaceOnUse"
       id="clipPath16">
      <path
         d="M 0,351.573 H 500 V 0 H 0 Z"
         transform="translate(-29.079501,-158.63061)"
         id="path16" />
    </clipPath>
    <clipPath
       clipPathUnits="userSpaceOnUse"
       id="clipPath18">
      <path
         d="M 0,351.573 H 500 V 0 H 0 Z"
         transform="translate(-166.52181,-158.46261)"
         id="path18" />
    </clipPath>
    <clipPath
       clipPathUnits="userSpaceOnUse"
       id="clipPath20">
      <path
         d="M 0,351.573 H 500 V 0 H 0 Z"
         transform="translate(-205.80021,-279.98411)"
         id="path20" />
    </clipPath>
    <clipPath
       clipPathUnits="userSpaceOnUse"
       id="clipPath22">
      <path
         d="M 0,351.573 H 500 V 0 H 0 Z"
         transform="translate(-290.8627,-184.48311)"
         id="path22" />
    </clipPath>
    <clipPath
       clipPathUnits="userSpaceOnUse"
       id="clipPath24">
      <path
         d="M 0,351.573 H 500 V 0 H 0 Z"
         transform="translate(-283.63611,-183.5866)"
         id="path24" />
    </clipPath>
    <clipPath
       clipPathUnits="userSpaceOnUse"
       id="clipPath26">
      <path
         d="M 0,351.573 H 500 V 0 H 0 Z"
         transform="translate(-277.03551,-182.7487)"
         id="path26" />
    </clipPath>
    <clipPath
       clipPathUnits="userSpaceOnUse"
       id="clipPath28">
      <path
         d="M 0,351.573 H 500 V 0 H 0 Z"
         transform="translate(-277.03161,-136.44021)"
         id="path28" />
    </clipPath>
    <clipPath
       clipPathUnits="userSpaceOnUse"
       id="clipPath30">
      <path
         d="M 0,351.573 H 500 V 0 H 0 Z"
         transform="translate(-256.3558,-184.0759)"
         id="path30" />
    </clipPath>
    <clipPath
       clipPathUnits="userSpaceOnUse"
       id="clipPath32">
      <path
         d="M 0,351.573 H 500 V 0 H 0 Z"
         transform="translate(-222.00231,-137.96361)"
         id="path32" />
    </clipPath>
    <clipPath
       clipPathUnits="userSpaceOnUse"
       id="clipPath34">
      <path
         d="M 0,351.573 H 500 V 0 H 0 Z"
         transform="translate(-199.9515,-164.85711)"
         id="path34" />
    </clipPath>
    <clipPath
       clipPathUnits="userSpaceOnUse"
       id="clipPath36">
      <path
         d="M 0,351.573 H 500 V 0 H 0 Z"
         transform="translate(-173.21031,-124.8796)"
         id="path36" />
    </clipPath>
    <clipPath
       clipPathUnits="userSpaceOnUse"
       id="clipPath38">
      <path
         d="M 0,351.573 H 500 V 0 H 0 Z"
         transform="translate(-144.7953,-117.63741)"
         id="path38" />
    </clipPath>
    <clipPath
       clipPathUnits="userSpaceOnUse"
       id="clipPath40">
      <path
         d="M 0,351.573 H 500 V 0 H 0 Z"
         transform="translate(-120.0487,-147.72921)"
         id="path40" />
    </clipPath>
    <clipPath
       clipPathUnits="userSpaceOnUse"
       id="clipPath42">
      <path
         d="M 0,351.573 H 500 V 0 H 0 Z"
         transform="translate(-255.5707,-190.23411)"
         id="path42" />
    </clipPath>
    <clipPath
       clipPathUnits="userSpaceOnUse"
       id="clipPath44">
      <path
         d="M 0,351.573 H 500 V 0 H 0 Z"
         transform="translate(-205.7464,-215.25751)"
         id="path44" />
    </clipPath>
    <clipPath
       clipPathUnits="userSpaceOnUse"
       id="clipPath46">
      <path
         d="M 0,351.573 H 500 V 0 H 0 Z"
         transform="translate(-162.02091,-209.57881)"
         id="path46" />
    </clipPath>
    <clipPath
       clipPathUnits="userSpaceOnUse"
       id="clipPath48">
      <path
         d="M 0,351.573 H 500 V 0 H 0 Z"
         transform="translate(-158.5746,-202.65601)"
         id="path48" />
    </clipPath>
    <clipPath
       clipPathUnits="userSpaceOnUse"
       id="clipPath50">
      <path
         d="M 0,351.573 H 500 V 0 H 0 Z"
         transform="translate(-119.2206,-196.39131)"
         id="path50" />
    </clipPath>
    <clipPath
       clipPathUnits="userSpaceOnUse"
       id="clipPath52">
      <path
         d="M 0,351.573 H 500 V 0 H 0 Z"
         transform="translate(-78.172202,-168.5134)"
         id="path52" />
    </clipPath>
  </defs>
  <sodipodi:namedview
     id="namedview1"
     pagecolor="#ffffff"
     bordercolor="#000000"
     borderopacity="0.25"
     inkscape:showpageshadow="2"
     inkscape:pageopacity="0.0"
     inkscape:pagecheckerboard="0"
     inkscape:deskcolor="#d1d1d1">
    <inkscape:page
       x="0"
       y="0"
       inkscape:label="1"
       id="page1"
       width="666.66669"
       height="468.76401"
       margin="0"
       bleed="0" />
  </sodipodi:namedview>
  <g
     id="layer-MC0"
     inkscape:groupmode="layer"
     inkscape:label="Layer 1">
    <path
       id="path1"
       d="m 0,0 -31.708,45.895 c -0.739,1.069 -2.387,0.811 -2.764,-0.432 l -8.993,-29.636 c -0.19,-0.625 -0.752,-1.065 -1.404,-1.099 L -266.649,3.005 c -1.913,-0.102 -1.983,-2.899 -0.078,-3.096 l 209.913,-21.703 c 0.971,-0.101 1.61,-1.061 1.326,-1.995 l -8.564,-28.219 c -0.448,-1.479 1.304,-2.635 2.487,-1.639 L -0.277,-2.071 C 0.335,-1.556 0.455,-0.659 0,0"
       style="fill:#8c4525;fill-opacity:1;fill-rule:nonzero;stroke:none"
       transform="matrix(1.3333333,0,0,-1.3333333,512.4068,396.73827)"
       clip-path="url(#clipPath2)" />
    <path
       id="path3"
       d="m 0,0 -40.139,53.706 c -0.771,1.032 -2.391,0.73 -2.739,-0.512 l -9.888,-35.339 c -0.174,-0.623 -0.717,-1.073 -1.363,-1.128 L -331.912,-6.948 c -1.91,-0.163 -1.888,-2.964 0.024,-3.097 l 264.245,-18.341 c 0.982,-0.068 1.654,-1.02 1.388,-1.968 l -9.656,-34.512 c -0.417,-1.489 1.36,-2.606 2.52,-1.585 L -0.218,-2.096 C 0.39,-1.562 0.485,-0.649 0,0"
       style="fill:#cc6633;fill-opacity:1;fill-rule:nonzero;stroke:none"
       transform="matrix(1.3333333,0,0,-1.3333333,666.2544,218.39587)"
       clip-path="url(#clipPath4)" />
    <path
       id="path5"
       d="m 0,0 -40.932,33.617 c -0.997,0.819 -2.501,0.134 -2.537,-1.156 L -44.325,2.422 c -0.018,-0.631 -0.417,-1.19 -1.009,-1.41 L -257.28,-78.147 c -1.792,-0.669 -1.024,-3.356 0.851,-2.977 l 209.025,42.308 c 0.979,0.198 1.888,-0.567 1.86,-1.566 l -0.792,-27.785 c -0.045,-1.566 1.995,-2.206 2.853,-0.895 L 0.314,-2.049 C 0.748,-1.386 0.612,-0.503 0,0"
       style="fill:#e9923d;fill-opacity:1;fill-rule:nonzero;stroke:none"
       transform="matrix(1.3333333,0,0,-1.3333333,524.3456,45.296933)"
       clip-path="url(#clipPath6)" />
    <path
       id="path7"
       d="m 0,0 c 0,-67.699 -52.174,-122.58 -116.533,-122.58 -64.359,0 -116.532,54.881 -116.532,122.58 0,67.698 52.173,122.58 116.532,122.58 C -52.174,122.58 0,67.698 0,0"
       style="fill:#e9923d;fill-opacity:1;fill-rule:nonzero;stroke:none"
       transform="matrix(1.3333333,0,0,-1.3333333,310.75307,247.67707)"
       clip-path="url(#clipPath8)" />
    <path
       id="path9"
       d="m 0,0 c 0,33.206 -24.594,60.125 -54.933,60.125 -30.338,0 -54.933,-26.919 -54.933,-60.125 0,-33.206 24.595,-60.125 54.933,-60.125 C -24.594,-60.125 0,-33.206 0,0"
       style="fill:#e9923d;fill-opacity:1;fill-rule:nonzero;stroke:none"
       transform="matrix(1.3333333,0,0,-1.3333333,295.434,105.78387)"
       clip-path="url(#clipPath10)" />
    <path
       id="path11"
       d="m 0,0 c 0,-51.222 38.684,-92.746 86.402,-92.746 47.72,0 86.404,41.524 86.404,92.746 0,51.222 -38.684,92.745 -86.404,92.745 C 38.684,92.745 0,51.222 0,0"
       style="fill:#e9923d;fill-opacity:1;fill-rule:nonzero;stroke:none"
       transform="matrix(1.3333333,0,0,-1.3333333,222.19053,245.78787)"
       clip-path="url(#clipPath12)" />
    <path
       id="path13"
       d="m 0,0 c 0,-27.538 19.892,-49.862 44.429,-49.862 24.538,0 44.43,22.324 44.43,49.862 0,27.538 -19.892,49.861 -44.43,49.861 C 19.892,49.861 0,27.538 0,0"
       style="fill:#cc6633;fill-opacity:1;fill-rule:nonzero;stroke:none"
       transform="matrix(1.3333333,0,0,-1.3333333,157.80067,146.4492)"
       clip-path="url(#clipPath14)" />
    <path
       id="path15"
       d="m 0,0 c 0,-54.088 42.24,-97.935 94.346,-97.935 52.106,0 94.346,43.847 94.346,97.935 0,54.088 -42.24,97.935 -94.346,97.935 C 42.24,97.935 0,54.088 0,0"
       style="fill:#cc6633;fill-opacity:1;fill-rule:nonzero;stroke:none"
       transform="matrix(1.3333333,0,0,-1.3333333,38.772667,257.25653)"
       clip-path="url(#clipPath16)" />
    <path
       id="path17"
       d="m 0,0 c 0,-40.321 29.813,-73.009 66.591,-73.009 36.778,0 66.592,32.688 66.592,73.009 0,40.322 -29.814,73.01 -66.592,73.01 C 29.813,73.01 0,40.322 0,0"
       style="fill:#cc6633;fill-opacity:1;fill-rule:nonzero;stroke:none"
       transform="matrix(1.3333333,0,0,-1.3333333,222.02907,257.48053)"
       clip-path="url(#clipPath18)" />
    <path
       id="path19"
       d="m 0,0 c -3.006,-0.694 -5.374,-3.257 -5.374,-5.815 0,-2.561 2.368,-3.997 5.374,-3.302 3.009,0.694 5.377,3.223 5.377,5.784 C 5.377,-0.775 3.009,0.694 0,0 m 0,-12.188 c -4.732,-1.093 -8.444,1.376 -8.444,5.664 0,4.288 3.712,8.503 8.444,9.595 4.736,1.093 8.448,-1.408 8.448,-5.695 0,-4.288 -3.712,-8.472 -8.448,-9.564 m -13.348,-3.147 c -3.26,-0.753 -5.949,1.187 -5.949,4.355 V 4.695 c 1.665,0.351 3.006,-0.68 3.006,-2.377 v -3.04 l 4.416,1.02 c -0.031,-1.575 -1.248,-3.135 -2.782,-3.651 l -1.634,-0.377 v -6.556 c 0,-1.504 1.313,-2.448 2.943,-2.071 0.225,0.051 0.449,0.134 0.673,0.249 1.375,0.637 2.784,0.324 3.423,-0.713 -1.087,-1.242 -2.559,-2.159 -4.096,-2.514 m -18.759,1.59 c -0.542,-1.759 -2.272,-3.021 -3.903,-2.855 -0.32,0.054 -0.575,0.125 -0.831,0.256 1.248,1.185 1.983,2.698 1.983,4.105 v 4.384 c 0,1.599 1.44,3.21 3.071,3.587 v -7.262 c 0,-0.735 -0.097,-1.494 -0.32,-2.215 m -0.542,-6.653 c -0.066,-1.998 -1.792,-3.964 -3.936,-4.459 l -6.016,-1.389 c 0,1.695 1.473,3.411 3.296,3.832 l 2.72,0.628 0.031,0.007 c 0.289,0.098 0.61,0.365 0.61,0.812 0,0.415 -0.352,0.591 -0.672,0.518 l -3.744,-0.864 c -4.478,-1.035 -7.582,1.448 -7.582,6.053 v 7.262 c 1.695,0.392 3.071,-0.666 3.071,-2.361 v -4.192 c 0,-2.303 1.184,-4.46 4.511,-3.691 l 3.678,0.848 c 2.175,0.502 4.064,-0.853 4.064,-2.998 z m -20.933,-1.09 v 4.511 c 0,2.59 -2.272,4.178 -5.057,3.536 -2.782,-0.643 -5.053,-3.28 -5.053,-5.87 0,-2.623 2.016,-4.014 4.798,-3.372 1.696,0.392 3.167,1.404 4.033,2.82 0.19,-0.212 0.317,-0.471 0.414,-0.736 0.448,-1.464 -0.352,-3.282 -1.824,-4.164 -0.799,-0.473 -1.696,-0.777 -2.623,-0.991 -4.477,-1.034 -7.869,1.416 -7.869,5.734 0,4.286 3.647,8.616 8.124,9.65 4.481,1.034 8.128,-1.612 8.128,-5.898 v -4.511 -3.071 c -1.696,-0.391 -3.071,0.666 -3.071,2.362 m -18.73,-5.379 c -0.448,-1.32 -1.343,-2.358 -2.463,-2.616 -1.121,-0.259 -2.017,0.365 -2.465,1.478 0,0 0,-0.033 -2.558,6.448 -2.56,-7.664 -2.56,-7.63 -2.56,-7.63 -0.446,-1.319 -1.342,-2.357 -2.462,-2.615 -1.12,-0.259 -2.016,0.365 -2.464,1.479 0,0 0,-0.034 -4.767,11.983 1.599,0.88 3.326,0.447 3.87,-1.026 l 3.361,-8.406 c 0.321,1.001 1.438,4.458 2.527,7.525 0.416,1.154 1.406,2.086 2.495,2.337 1.089,0.252 2.079,-0.224 2.495,-1.185 1.087,-2.565 2.207,-5.536 2.528,-6.358 l 3.36,9.927 c 0.575,1.732 2.271,2.985 3.87,2.81 -4.767,-14.184 -4.767,-14.151 -4.767,-14.151 m -33.285,-8.58 c -1.344,-1.079 -3.102,-1.902 -4.925,-2.323 -1.855,-0.428 -3.616,-0.418 -4.96,0.041 -1.152,0.406 -1.92,1.09 -2.272,2.001 0.962,0.991 2.306,1.27 3.426,0.888 0.766,-0.337 2.079,-0.513 3.806,-0.114 2.654,0.613 4.446,2.34 4.446,3.105 0,0.578 -0.159,1.021 -0.959,1.092 -0.961,0.099 -2.433,-0.21 -3.839,-0.47 -1.503,-0.316 -3.04,-0.639 -4.288,-0.542 -2.462,0.166 -2.816,1.715 -2.816,2.707 0,1.442 0.896,3.024 2.496,4.289 1.344,1.079 3.105,1.9 4.96,2.328 1.823,0.421 3.581,0.413 4.925,-0.045 1.089,-0.39 1.858,-1.043 2.241,-1.883 -0.959,-1.021 -2.303,-1.331 -3.455,-0.99 -0.737,0.343 -2.081,0.478 -3.711,0.102 -2.527,-0.584 -4.254,-2.165 -4.447,-2.978 -0.031,-0.166 -0.096,-0.47 0.062,-0.623 0,-0.034 0.034,-0.027 0.034,-0.027 0,-0.031 0.032,-0.024 0.032,-0.024 0.096,-0.073 0.255,-0.134 0.544,-0.129 0.862,-0.057 2.206,0.22 3.485,0.453 1.633,0.343 3.329,0.703 4.705,0.541 1.951,-0.19 3.006,-1.16 3.006,-3.114 0,-1.438 -0.897,-2.988 -2.496,-4.285 m -18.111,-2.231 v 12.157 c 1.664,0.384 3.071,-0.666 3.071,-2.393 V -40.04 c -1.696,-0.392 -3.071,0.666 -3.071,2.362 m 1.536,14.304 c -0.927,-0.214 -1.664,0.351 -1.664,1.278 0,0.896 0.737,1.834 1.664,2.049 0.897,0.206 1.631,-0.392 1.631,-1.288 0,-0.928 -0.734,-1.832 -1.631,-2.039 m -4.553,-18.071 c -1.696,-0.392 -3.071,0.666 -3.071,2.331 v 4.254 c 0,2.687 -2.272,4.37 -5.054,3.727 -2.784,-0.642 -5.056,-3.374 -5.056,-6.061 v -4.223 c 0,-1.696 -1.375,-3.389 -3.071,-3.78 v 7.455 13.915 c 1.696,0.391 3.071,-0.666 3.071,-2.362 v -4.767 c 1.376,1.406 3.136,2.451 5.056,2.894 4.478,1.034 8.125,-1.706 8.125,-6.089 z m -21.381,13.235 -5.087,-1.175 v -18.171 l -0.128,-0.03 c -1.631,-0.376 -2.944,0.728 -2.944,2.392 v 15.1 l -5.084,-1.174 c -1.665,-0.383 -3.009,0.681 -3.009,2.343 l 19.292,4.454 c 0,-1.662 -1.344,-3.347 -3.04,-3.739"
       style="fill:#ffffff;fill-opacity:1;fill-rule:nonzero;stroke:none"
       transform="matrix(1.3333333,0,0,-1.3333333,274.40027,95.451867)"
       clip-path="url(#clipPath20)" />
    <path
       id="path21"
       d="m 0,0 c 2.723,6.98 4.14,14.459 4.14,22.003 0,33.339 -27.123,60.463 -60.462,60.463 -19.429,0 -37.343,-9.283 -48.589,-24.465 -7.795,3.895 -16.448,5.967 -25.288,5.967 -11.678,0 -22.891,-3.532 -32.427,-10.214 -4.944,-3.466 -9.255,-7.642 -12.816,-12.381 -9.565,6.002 -20.733,9.292 -32.175,9.292 -33.339,0 -60.463,-27.124 -60.463,-60.463 0,-13.402 4.297,-26.1 12.426,-36.721 5.678,-7.418 13.07,-13.446 21.403,-17.555 -0.114,-1.459 -0.171,-2.925 -0.171,-4.393 0,-30.97 25.195,-56.166 56.165,-56.166 11.618,0 22.771,3.521 32.251,10.18 5.639,3.962 10.443,8.853 14.243,14.455 6.34,-2.396 13.093,-3.635 19.992,-3.635 17.361,0 33.674,8.112 44.283,21.396 6.984,-3.115 14.562,-4.728 22.401,-4.728 30.419,0 55.166,24.747 55.166,55.166 C 10.079,-20.282 6.545,-9.249 0,0"
       style="fill:#00b3f0;fill-opacity:1;fill-rule:nonzero;stroke:none"
       transform="matrix(1.3333333,0,0,-1.3333333,387.81693,222.78653)"
       clip-path="url(#clipPath22)" />
    <path
       id="path23"
       d="m 0,0 c 3.327,7.136 5.07,14.976 5.07,22.899 0,29.868 -24.298,54.167 -54.166,54.167 -19.3,0 -36.93,-10.223 -46.6,-26.54 -8.083,5.221 -17.553,8.042 -27.277,8.042 -10.378,0 -20.341,-3.137 -28.813,-9.074 -6.097,-4.273 -11.109,-9.76 -14.763,-16.113 -9.546,7.622 -21.517,11.884 -33.842,11.884 -29.867,0 -54.166,-24.299 -54.166,-54.166 0,-22.317 13.885,-42.36 34.34,-50.419 -0.453,-2.719 -0.682,-5.479 -0.682,-8.25 0,-27.498 22.371,-49.87 49.868,-49.87 10.317,0 20.218,3.125 28.633,9.036 6.448,4.529 11.668,10.428 15.335,17.278 6.953,-3.491 14.628,-5.314 22.518,-5.314 17.16,0 33.167,8.917 42.331,23.156 7.375,-4.261 15.684,-6.488 24.354,-6.488 26.946,0 48.869,21.922 48.869,48.87 C 11.009,-19.539 7.126,-8.708 0,0"
       style="fill:#ffffff;fill-opacity:1;fill-rule:nonzero;stroke:none"
       transform="matrix(1.3333333,0,0,-1.3333333,378.18147,223.98187)"
       clip-path="url(#clipPath24)" />
    <path
       id="path25"
       d="m 0,0 c 3.931,7.022 6.175,15.117 6.175,23.737 0,26.88 -21.79,48.67 -48.67,48.67 -20.008,0 -37.193,-12.075 -44.673,-29.334 -7.84,6.753 -18.045,10.837 -29.204,10.837 -19.092,0 -35.39,-11.952 -41.828,-28.78 -8.884,9.521 -21.54,15.476 -35.59,15.476 -26.879,0 -48.67,-21.79 -48.67,-48.669 0,-22.231 14.905,-40.979 35.266,-46.8 -1.047,-3.779 -1.608,-7.758 -1.608,-11.87 0,-24.506 19.866,-44.372 44.372,-44.372 18.958,0 35.137,11.89 41.492,28.62 7.138,-4.812 15.738,-7.621 24.994,-7.621 17.834,0 33.23,10.427 40.429,25.518 7.289,-5.552 16.386,-8.85 26.255,-8.85 23.954,0 43.373,19.418 43.373,43.374 C 12.113,-18.392 7.501,-7.797 0,0"
       style="fill:#130c0e;fill-opacity:1;fill-rule:nonzero;stroke:none"
       transform="matrix(1.3333333,0,0,-1.3333333,369.38067,225.09907)"
       clip-path="url(#clipPath26)" />
    <path
       id="path27"
       d="M 0,0 V 3.743 L -0.94,-0.218 -1.96,-0.452 -2.879,3.079 V -0.665 L -3.842,-0.887 V 3.594 L -2.337,3.941 -1.43,0.597 -1.418,0.6 -0.533,4.358 0.952,4.701 V 0.22 Z M -6.956,-1.606 V 2.08 l -1.55,-0.357 v 0.795 l 4.1,0.946 V 2.669 L -5.9,2.324 v -3.686 z"
       style="fill:#f15a22;fill-opacity:1;fill-rule:nonzero;stroke:none"
       transform="matrix(1.3333333,0,0,-1.3333333,369.37547,286.84373)"
       clip-path="url(#clipPath28)" />
    <path
       id="path29"
       d="m 0,0 c 0,0 -0.07,-18.191 -0.296,-21.391 -0.354,-4.998 -1.697,-5.132 -2.84,-4.382 -2.28,1.496 -6.541,10.015 -10.356,17.423 l -5.567,-1.285 v -46.033 l 6.807,1.571 0.022,11.681 c 0.012,5.995 1.65,6.386 4.028,4.207 1.806,-1.652 4.262,-5.297 8.132,-11.494 l 9.007,2.079 V 2.063 Z"
       style="fill:#f15a22;fill-opacity:1;fill-rule:nonzero;stroke:none"
       transform="matrix(1.3333333,0,0,-1.3333333,341.80773,223.32947)"
       clip-path="url(#clipPath30)" />
    <path
       id="path31"
       d="m 0,0 c -0.206,-0.001 -1.735,0.051 -1.898,1.218 -0.095,0.675 0.229,1.309 1.044,1.808 1.276,0.781 5.692,2.049 9.93,3.043 v 5.861 c 0,0 -7.674,-1.847 -10.034,-1.495 -0.717,0.106 -1.194,0.485 -1.289,1.147 -0.097,0.677 0.244,1.287 1.045,1.809 2.158,1.406 11.846,3.496 11.846,3.496 V 30.408 L -9.303,25.803 v -36.048 l 20.366,4.702 v 7.49 C 5.627,0.713 1.953,0.011 0,0"
       style="fill:#f15a22;fill-opacity:1;fill-rule:nonzero;stroke:none"
       transform="matrix(1.3333333,0,0,-1.3333333,296.00307,284.81253)"
       clip-path="url(#clipPath32)" />
    <path
       id="path33"
       d="m 0,0 c 0,0 -2.161,-14.236 -4.08,-20.815 -0.548,-1.88 -1.873,-4.756 -3.676,-0.644 -0.645,1.474 -2.561,8.355 -3.968,17.228 l -6.222,-1.437 c 0.544,-6.101 3.531,-22.577 7.511,-32.177 l 12.069,2.786 c 4.442,11.757 7.107,24.174 8.013,37.287 z"
       style="fill:#f15a22;fill-opacity:1;fill-rule:nonzero;stroke:none"
       transform="matrix(1.3333333,0,0,-1.3333333,266.602,248.95453)"
       clip-path="url(#clipPath34)" />
    <path
       id="path35"
       d="m 0,0 -4.266,-0.985 c -1.069,-0.247 -1.691,0.407 -1.561,1.932 0.122,1.429 0.747,4.456 0.985,5.479 0.527,2.261 1.56,3.203 2.776,3.372 1.558,0.218 2.92,-1.145 3.665,-4.837 C 1.671,4.604 1.853,3.862 1.971,2.855 2.115,1.633 1.515,0.35 0,0 m 5.319,20.407 c -3.02,5.565 -6.532,4.411 -8.332,3.816 -2.358,-0.78 -4.451,-1.992 -6.64,-10.678 -2.303,-9.131 -4.812,-28.334 -4.812,-28.334 l 6.319,1.458 0.653,3.659 c 0.313,1.757 1.431,2.873 3.136,3.374 1.638,0.483 4.895,1.271 6.567,1.461 0.706,0.08 1.535,-0.476 1.776,-1.582 l 0.854,-3.913 8.606,1.986 c 0,0 -4.281,21.668 -8.127,28.753"
       style="fill:#f15a22;fill-opacity:1;fill-rule:nonzero;stroke:none"
       transform="matrix(1.3333333,0,0,-1.3333333,230.94707,302.25787)"
       clip-path="url(#clipPath36)" />
    <path
       id="path37"
       d="m 0,0 c -0.207,-0.001 -1.735,0.051 -1.899,1.217 -0.095,0.676 0.229,1.309 1.045,1.808 1.276,0.781 5.692,2.05 9.929,3.044 v 5.861 c 0,0 -7.674,-1.847 -10.034,-1.495 -0.717,0.106 -1.193,0.485 -1.289,1.147 -0.097,0.677 0.244,1.287 1.046,1.809 2.158,1.405 11.846,3.495 11.846,3.495 V 31.462 L -9.303,26.856 V -9.19 l 20.365,4.701 V 1.947 C 5.626,0.713 1.952,0.011 0,0"
       style="fill:#f15a22;fill-opacity:1;fill-rule:nonzero;stroke:none"
       transform="matrix(1.3333333,0,0,-1.3333333,193.0604,311.91413)"
       clip-path="url(#clipPath38)" />
    <path
       id="path39"
       d="m 0,0 c 0,-7.193 0.036,-12.576 -0.949,-16.104 -0.599,-2.143 -1.916,-3.774 -3.676,-5.008 -1.792,-1.258 -3.588,-1.81 -5.348,-1.844 -2.145,-0.043 -3.714,1.125 -3.943,3.509 -0.329,3.425 -0.308,7.752 -0.308,13.749 l -7.786,-1.798 v -53.041 l 10.696,2.469 c 0,6.751 0.138,11.726 0.97,14.829 0.567,2.115 2.109,3.9 3.666,4.952 1.82,1.228 3.494,1.843 5.257,1.872 2.143,0.034 3.77,-1.071 3.972,-3.208 0.296,-3.131 0.316,-7.388 0.316,-13.197 l 7.925,1.83 V 2.492 Z"
       style="fill:#f15a22;fill-opacity:1;fill-rule:nonzero;stroke:none"
       transform="matrix(1.3333333,0,0,-1.3333333,160.06493,271.79173)"
       clip-path="url(#clipPath40)" />
    <path
       id="path41"
       d="m 0,0 v 46.185 l -6.313,-1.457 c -3.349,-11.058 -5.244,-16.464 -6.895,-21.022 -2.813,-7.756 -5.736,-4.712 -7.093,-2.547 -1.586,2.532 -3.732,7.466 -7.465,16.5 L -36.985,35.53 V -7.205 l 7.645,1.766 c -0.058,6.918 0.062,10.949 0.435,12.774 0.336,1.64 1.324,1.871 2.326,0.244 0.823,-1.338 2.127,-4.232 4.72,-10.184 l 5.128,1.183 c 2.825,7.592 4.352,11.418 5.429,13.291 0.875,1.522 2.531,2.593 3.035,-0.221 0.381,-2.127 0.349,-6.41 0.337,-13.478 z"
       style="fill:#faa61a;fill-opacity:1;fill-rule:nonzero;stroke:none"
       transform="matrix(1.3333333,0,0,-1.3333333,340.76093,215.11853)"
       clip-path="url(#clipPath42)" />
    <path
       id="path43"
       d="m 0,0 c 0,0 0.152,-10.031 -0.189,-13.353 -0.455,-4.406 -8.266,-5.927 -8.597,-1.423 -0.148,2.01 -0.261,4.603 -0.261,10.523 l -6.384,-1.474 V -45.29 l 8.754,2.021 v 9.137 c 0,7.027 8.73,7.614 9.199,2.702 0.149,-1.544 0.224,-3.952 0.224,-8.948 l 6.384,1.474 V 2.107 Z"
       style="fill:#faa61a;fill-opacity:1;fill-rule:nonzero;stroke:none"
       transform="matrix(1.3333333,0,0,-1.3333333,274.32853,181.754)"
       clip-path="url(#clipPath44)" />
    <path
       id="path45"
       d="m 0,0 v -16.305 l 5.89,1.361 c 2.347,0.542 3.172,0.044 3.155,-4.673 V -40.57 l 6.978,1.611 v 19.39 c 0.048,8.324 1.026,10.047 5.165,11.003 l 3.696,0.853 V 5.745 Z"
       style="fill:#faa61a;fill-opacity:1;fill-rule:nonzero;stroke:none"
       transform="matrix(1.3333333,0,0,-1.3333333,216.02787,189.3256)"
       clip-path="url(#clipPath46)" />
    <path
       id="path47"
       d="m 0,0 -7.442,-1.718 c 0,0 -0.047,-5.632 -0.459,-13.091 -0.438,-7.928 -8.979,-10.359 -9.467,-2.294 -0.312,5.152 -0.262,12.138 -0.262,12.138 l -8.909,-2.057 v -3.815 c 0,-14.853 1.707,-19.894 10.68,-18.926 2.098,0.227 3.696,0.894 5.497,2.113 0.112,0.076 0.254,0.078 0.387,-0.026 0.128,-0.099 0.336,-0.432 0.024,-1.402 -1.683,-5.224 -16.094,-6.776 -16.094,-6.776 v -11.672 c 8.236,1.213 17.2,2.965 21.905,10.782 C -2.383,-33.825 0,-30.3 0,0"
       style="fill:#faa61a;fill-opacity:1;fill-rule:nonzero;stroke:none"
       transform="matrix(1.3333333,0,0,-1.3333333,211.4328,198.556)"
       clip-path="url(#clipPath48)" />
    <path
       id="path49"
       d="m 0,0 c 0,0 0.145,-9.533 -0.181,-12.688 -0.431,-4.189 -7.855,-5.635 -8.169,-1.355 -0.14,1.911 -0.248,4.375 -0.248,10.002 l -6.067,-1.4 v -37.601 l 8.319,1.921 v 8.683 c 0,6.678 8.296,7.237 8.743,2.569 0.141,-1.468 0.212,-3.756 0.212,-8.505 l 6.067,1.401 V 2.003 Z"
       style="fill:#faa61a;fill-opacity:1;fill-rule:nonzero;stroke:none"
       transform="matrix(1.3333333,0,0,-1.3333333,158.9608,206.90893)"
       clip-path="url(#clipPath50)" />
    <path
       id="path51"
       d="m 0,0 c -3.81,-0.971 -6.056,1.069 -6.056,6.19 0,4.085 0.077,8.302 7.555,8.302 5.324,0 7.55,-2.696 7.55,-5.737 C 9.049,6.106 5.809,1.481 0,0 m 22.356,16.872 c 0,9.406 -6.929,20.782 -35.925,13.804 v -51.155 l 7.55,1.744 v 9.242 c 0,3.757 2.165,3.064 3.546,2.165 1.072,-0.698 3.347,-2.532 8.724,-8.574 l 12.828,2.961 -9.996,10.235 c 0,0 13.273,5.345 13.273,19.578"
       style="fill:#faa61a;fill-opacity:1;fill-rule:nonzero;stroke:none"
       transform="matrix(1.3333333,0,0,-1.3333333,104.2296,244.07947)"
       clip-path="url(#clipPath52)" />
  </g>
</svg>
