<?xml version="1.0" encoding="UTF-8" standalone="no"?>
<!-- Created with Inkscape (http://www.inkscape.org/) -->

<svg
   version="1.1"
   id="svg2"
   width="666.66669"
   height="484.42532"
   viewBox="0 0 666.66669 484.42532"
   sodipodi:docname="This way to Rhythm Heaven.ai"
   xmlns:inkscape="http://www.inkscape.org/namespaces/inkscape"
   xmlns:sodipodi="http://sodipodi.sourceforge.net/DTD/sodipodi-0.dtd"
   xmlns="http://www.w3.org/2000/svg"
   xmlns:svg="http://www.w3.org/2000/svg">
  <defs
     id="defs6">
    <clipPath
       clipPathUnits="userSpaceOnUse"
       id="clipPath16">
      <path
         d="M 0,363.319 H 500 V 0 H 0 Z"
         id="path14" />
    </clipPath>
  </defs>
  <sodipodi:namedview
     id="namedview4"
     pagecolor="#ffffff"
     bordercolor="#000000"
     borderopacity="0.25"
     inkscape:showpageshadow="2"
     inkscape:pageopacity="0.0"
     inkscape:pagecheckerboard="0"
     inkscape:deskcolor="#d1d1d1" />
  <g
     id="g8"
     inkscape:groupmode="layer"
     inkscape:label="This way to Rhythm Heaven"
     transform="matrix(1.3333333,0,0,-1.3333333,0,484.42533)">
    <g
       id="g10">
      <g
         id="g12"
         clip-path="url(#clipPath16)">
        <g
           id="g18"
           transform="translate(333.5532,202.4354)">
          <path
             d="m 0,0 111.006,9.253 10.136,35.537 c 0.834,2.922 4.688,3.566 6.426,1.072 l 38.231,-54.853 c 1.039,-1.491 0.806,-3.522 -0.542,-4.739 L 94.484,-77.625 c -2.618,-2.364 -6.842,0.133 -5.929,3.488 l 9.414,34.586 -92.983,7.53 z"
             style="fill:#9b656a;fill-opacity:1;fill-rule:nonzero;stroke:none"
             id="path20" />
        </g>
        <g
           id="g22"
           transform="translate(167.9844,63.9486)">
          <path
             d="m 0,0 172.536,10.828 8.74,29.174 c 0.882,2.944 4.808,3.506 6.48,0.926 l 29.907,-46.154 c 0.967,-1.495 0.7,-3.472 -0.631,-4.656 L 157.264,-63.02 c -2.726,-2.423 -6.916,0.271 -5.842,3.757 l 8.629,28.015 -185.536,20.727 z"
             style="fill:#6c5970;fill-opacity:1;fill-rule:nonzero;stroke:none"
             id="path24" />
        </g>
        <g
           id="g26"
           transform="translate(114.3369,301.0726)">
          <path
             d="m 0,0 c 11.355,33.923 31.597,42.751 52.563,44.035 29.819,1.824 57.16,-27.873 59.456,-63.682 l 124.499,47.259 -0.583,31.159 c -0.025,3.029 3.643,4.553 5.936,2.609 l 40.286,-35.358 c 1.345,-1.18 1.621,-3.169 0.648,-4.671 l -42.918,-66.238 c -1.972,-2.961 -6.586,-1.58 -6.607,1.977 l -0.164,26.905 -80.35,-15.09 c 5.7,-2.126 56.553,-17.1 70.63,-71.662 8.662,-33.576 -3.487,-84.943 -36.483,-106.469 -27.717,-18.082 -76.921,-18.969 -93.555,6.225 -5.67,-18.38 -19.761,-32.658 -41.836,-43.011 -39.565,-18.552 -85.601,-3.016 -94.044,0.791 -55.62,25.083 -67.062,77.284 -68.427,83.357 -0.885,3.94 -17.16,75.894 30.44,124.843 C -49.661,-5.297 -18.718,-1.95 0,0"
             style="fill:#db9b61;fill-opacity:1;fill-rule:nonzero;stroke:none"
             id="path28" />
        </g>
        <g
           id="g30"
           transform="translate(143.1802,65.7298)">
          <path
             d="m 0,0 c -46.122,-7.893 -73.015,16.814 -79.882,22.931 -26.701,23.779 -30.77,54.717 -31.829,63.529 -0.63,5.235 -4.559,52.945 32.403,90.535 18.555,18.869 48.862,23.853 59.222,24.733 4.644,19.605 19.441,32.705 38.317,34.436 21.856,2.003 39.626,-11.394 44.966,-34.47 5.577,-1.294 71.832,-18.459 90.301,-74.217 3.091,-9.331 11.043,-38.295 -4.676,-67.276 C 145.915,54.843 136.084,32.65 107.353,25.682 74.899,17.811 59.626,36.929 56.941,39.225 54.218,34.532 32.063,5.487 0,0"
             style="fill:#9b656a;fill-opacity:1;fill-rule:nonzero;stroke:none"
             id="path32" />
        </g>
        <g
           id="g34"
           transform="translate(205.1694,287.5121)">
          <path
             d="m 0,0 c -0.74,-1.089 -1.065,-2.275 -0.976,-3.559 0.09,-1.284 0.569,-2.296 1.437,-3.037 0.868,-0.741 2.089,-0.944 3.661,-0.61 1.572,0.334 2.732,1.043 3.477,2.127 0.746,1.084 1.074,2.268 0.984,3.552 C 8.493,-0.243 8.012,0.771 7.138,1.517 6.264,2.262 5.041,2.467 3.469,2.133 1.896,1.799 0.74,1.087 0,0 m -2.047,-9.594 c -1.6,1.271 -2.478,3.023 -2.635,5.256 -0.155,2.233 0.455,4.301 1.834,6.206 1.378,1.904 3.406,3.141 6.084,3.71 2.678,0.569 4.816,0.218 6.417,-1.053 1.6,-1.272 2.479,-3.024 2.635,-5.256 0.156,-2.233 -0.455,-4.302 -1.833,-6.206 -1.379,-1.904 -3.407,-3.141 -6.084,-3.71 -2.678,-0.57 -4.818,-0.219 -6.418,1.053 m -12.683,1.875 -0.998,14.261 3.628,0.77 0.367,-5.25 4.343,0.922 0.235,-3.348 -4.344,-0.924 0.402,-5.754 c 0.086,-1.227 0.317,-2.034 0.691,-2.422 0.375,-0.389 1.043,-0.534 2.006,-0.435 l 2.02,0.253 0.002,-3.19 -2.282,-0.358 c -1.836,-0.263 -3.22,-0.046 -4.153,0.649 -1.11,0.807 -1.749,2.415 -1.917,4.826 m -28.726,-6.314 -0.616,8.82 3.627,0.771 0.612,-8.747 c 0.097,-1.398 0.439,-2.336 1.026,-2.814 0.586,-0.478 1.528,-0.579 2.826,-0.303 1.255,0.267 2.223,0.878 2.905,1.833 0.545,0.788 0.786,1.703 0.724,2.746 l -0.62,8.873 3.627,0.771 0.818,-11.696 c 0.114,-1.638 0.069,-3.055 -0.137,-4.253 -0.207,-1.198 -0.624,-2.305 -1.253,-3.322 -0.63,-1.017 -1.541,-1.881 -2.734,-2.591 -1.193,-0.712 -2.701,-1.292 -4.523,-1.743 l -1.272,-0.335 -0.566,3.119 1.364,0.385 c 2.054,0.586 3.512,1.313 4.374,2.183 0.86,0.869 1.318,2.038 1.374,3.507 l -0.125,-0.026 c -0.406,-0.667 -1.013,-1.262 -1.818,-1.786 -0.807,-0.524 -1.718,-0.895 -2.735,-1.11 -1.91,-0.407 -3.47,-0.164 -4.68,0.728 -1.299,0.947 -2.031,2.61 -2.198,4.99 m -14.582,1.697 c -0.74,-1.089 -1.065,-2.275 -0.976,-3.559 0.09,-1.284 0.564,-2.297 1.422,-3.041 0.858,-0.743 2.072,-0.947 3.645,-0.613 1.572,0.334 2.737,1.039 3.494,2.115 0.756,1.076 1.089,2.268 0.998,3.579 -0.09,1.289 -0.572,2.304 -1.445,3.043 -0.874,0.74 -2.097,0.943 -3.669,0.609 -1.572,-0.334 -2.729,-1.046 -3.469,-2.133 m -4.679,-4.37 c -0.171,2.442 0.467,4.575 1.915,6.399 1.447,1.823 3.426,3.002 5.938,3.536 2.652,0.563 4.784,0.253 6.396,-0.931 1.613,-1.183 2.504,-2.986 2.674,-5.407 l 0.543,-7.767 -3.628,-0.771 -0.15,2.154 -0.094,-0.02 c -0.352,-0.841 -0.979,-1.583 -1.882,-2.227 -0.903,-0.644 -1.931,-1.088 -3.083,-1.333 -2.491,-0.53 -4.512,-0.17 -6.063,1.08 -1.552,1.25 -2.407,3.013 -2.566,5.287 m -27.417,2.102 3.705,0.788 c 1.235,-4.099 2.66,-7.53 4.275,-10.292 1.346,3.945 2.352,7.786 3.017,11.523 l 3.379,0.718 c 1.126,-3.154 2.616,-6.465 4.47,-9.932 1.243,3.466 2.169,7.397 2.778,11.792 l 3.705,0.788 c -0.365,-2.781 -1.002,-5.721 -1.909,-8.823 -0.908,-3.103 -1.88,-5.775 -2.917,-8.016 l -2.865,-0.609 c -1.725,2.835 -3.23,5.674 -4.513,8.519 -1.053,-3.777 -2.143,-7.168 -3.271,-10.173 l -2.833,-0.603 c -1.311,1.721 -2.619,3.898 -3.925,6.53 -1.305,2.632 -2.338,5.228 -3.096,7.79 m -23.581,-18.82 1.319,3.059 c 2.314,-0.697 4.417,-0.844 6.308,-0.442 0.973,0.206 1.721,0.516 2.244,0.928 0.523,0.413 0.767,0.857 0.734,1.334 -0.024,0.35 -0.188,0.578 -0.491,0.686 -0.302,0.108 -0.864,0.166 -1.686,0.174 l -2.841,-0.045 c -1.789,-0.028 -3.105,0.24 -3.951,0.803 -0.845,0.563 -1.314,1.503 -1.405,2.819 -0.106,1.513 0.427,2.823 1.599,3.93 1.173,1.107 2.694,1.859 4.565,2.257 2.457,0.522 4.765,0.375 6.924,-0.441 l -1.155,-3.08 c -1.871,0.501 -3.68,0.566 -5.426,0.195 -1.926,-0.409 -2.861,-1.083 -2.806,-2.021 0.025,-0.351 0.209,-0.601 0.554,-0.749 0.344,-0.148 0.919,-0.212 1.722,-0.192 l 2.653,0.042 c 1.945,0.061 3.302,-0.166 4.07,-0.68 0.767,-0.515 1.198,-1.451 1.293,-2.807 0.111,-1.587 -0.439,-2.951 -1.648,-4.094 -1.21,-1.141 -2.794,-1.92 -4.752,-2.336 -2.679,-0.57 -5.288,-0.35 -7.824,0.66 m -7.886,14.191 c -0.497,0.351 -0.768,0.839 -0.811,1.462 -0.044,0.624 0.155,1.207 0.595,1.747 0.44,0.54 0.978,0.878 1.613,1.013 0.633,0.135 1.188,0.029 1.666,-0.316 0.476,-0.346 0.737,-0.831 0.781,-1.454 0.044,-0.624 -0.142,-1.209 -0.557,-1.754 -0.415,-0.546 -0.939,-0.885 -1.572,-1.02 -0.646,-0.137 -1.218,-0.03 -1.715,0.322 m -1.223,-5.526 -0.223,3.192 1.559,0.299 c 1.383,0.251 2.392,0.163 3.029,-0.266 0.635,-0.429 1,-1.309 1.092,-2.639 l 0.829,-11.855 -3.627,-0.771 -0.799,11.428 c -0.043,0.619 -0.357,0.878 -0.939,0.776 z m -16.957,-16.21 -1.461,20.896 3.627,0.771 0.484,-6.91 0.155,0.033 c 0.491,0.687 1.16,1.301 2.009,1.841 0.848,0.541 1.73,0.908 2.645,1.103 2.089,0.443 3.791,0.14 5.109,-0.909 1.238,-0.981 1.935,-2.578 2.09,-4.79 l 0.615,-8.789 -3.628,-0.771 -0.591,8.454 c -0.087,1.249 -0.445,2.132 -1.072,2.648 -0.676,0.613 -1.69,0.775 -3.042,0.488 -0.02,-0.005 -0.041,-0.009 -0.062,-0.013 -1.259,-0.268 -2.257,-0.858 -2.994,-1.771 -0.658,-0.864 -0.94,-1.883 -0.848,-3.056 l 0.592,-8.454 z m -23.271,12.637 -0.25,3.57 19.258,4.093 0.25,-3.569 -7.972,-1.694 1.212,-17.327 -3.892,-0.827 -1.212,17.326 z"
             style="fill:#ffffff;fill-opacity:1;fill-rule:nonzero;stroke:none"
             id="path36" />
        </g>
        <g
           id="g38"
           transform="translate(293.6089,191.371)">
          <path
             d="m 0,0 c 2.744,7.037 4.174,14.576 4.174,22.181 0,33.609 -27.343,60.952 -60.952,60.952 -19.587,0 -37.646,-9.358 -48.983,-24.662 -7.858,3.926 -16.581,6.015 -25.492,6.015 -11.773,0 -23.077,-3.561 -32.69,-10.298 -4.985,-3.492 -9.33,-7.702 -12.92,-12.48 -9.642,6.05 -20.901,9.367 -32.435,9.367 -33.61,0 -60.952,-27.343 -60.952,-60.952 0,-13.511 4.331,-26.312 12.526,-37.018 5.724,-7.479 13.175,-13.556 21.576,-17.698 -0.115,-1.471 -0.172,-2.949 -0.172,-4.429 0,-31.22 25.399,-56.619 56.619,-56.619 11.713,0 22.955,3.548 32.513,10.262 5.684,3.993 10.528,8.924 14.358,14.571 6.392,-2.415 13.199,-3.664 20.153,-3.664 17.502,0 33.948,8.178 44.643,21.569 7.04,-3.139 14.679,-4.766 22.582,-4.766 30.665,0 55.612,24.947 55.612,55.612 C 10.16,-20.446 6.598,-9.324 0,0"
             style="fill:#00b3f0;fill-opacity:1;fill-rule:nonzero;stroke:none"
             id="path40" />
        </g>
        <g
           id="g42"
           transform="translate(286.3237,190.4676)">
          <path
             d="m 0,0 c 3.354,7.193 5.111,15.096 5.111,23.084 0,30.11 -24.495,54.605 -54.604,54.605 -19.457,0 -37.23,-10.306 -46.979,-26.754 -8.148,5.263 -17.694,8.107 -27.496,8.107 -10.463,0 -20.507,-3.163 -29.047,-9.148 -6.147,-4.307 -11.199,-9.838 -14.883,-16.244 -9.623,7.685 -21.691,11.981 -34.116,11.981 -30.109,0 -54.604,-24.495 -54.604,-54.605 0,-22.497 13.997,-42.702 34.618,-50.827 -0.458,-2.741 -0.688,-5.523 -0.688,-8.318 0,-27.72 22.552,-50.272 50.272,-50.272 10.4,0 20.381,3.149 28.864,9.108 6.501,4.567 11.763,10.513 15.459,17.418 7.01,-3.519 14.748,-5.356 22.701,-5.356 17.299,0 33.436,8.988 42.674,23.344 7.435,-4.296 15.811,-6.541 24.551,-6.541 27.165,0 49.266,22.1 49.266,49.264 C 11.099,-19.698 7.184,-8.779 0,0"
             style="fill:#ffffff;fill-opacity:1;fill-rule:nonzero;stroke:none"
             id="path44" />
        </g>
        <g
           id="g46"
           transform="translate(279.6694,189.6224)">
          <path
             d="m 0,0 c 3.963,7.08 6.226,15.24 6.226,23.93 0,27.097 -21.967,49.064 -49.065,49.064 -20.17,0 -37.494,-12.173 -45.035,-29.572 -7.903,6.808 -18.19,10.924 -29.44,10.924 -19.247,0 -35.677,-12.048 -42.167,-29.013 -8.956,9.599 -21.715,15.603 -35.878,15.603 -27.098,0 -49.064,-21.967 -49.064,-49.064 0,-22.411 15.026,-41.311 35.551,-47.179 -1.055,-3.809 -1.621,-7.822 -1.621,-11.966 0,-24.706 20.027,-44.732 44.732,-44.732 19.112,0 35.421,11.987 41.827,28.852 7.196,-4.851 15.866,-7.683 25.197,-7.683 17.978,0 33.5,10.513 40.757,25.725 7.347,-5.596 16.519,-8.921 26.467,-8.921 24.149,0 43.725,19.576 43.725,43.723 C 12.212,-18.541 7.562,-7.86 0,0"
             style="fill:#130c0e;fill-opacity:1;fill-rule:nonzero;stroke:none"
             id="path48" />
        </g>
        <g
           id="g50"
           transform="translate(279.6655,142.9388)">
          <path
             d="m 0,0 v 3.773 l -0.948,-3.992 -1.028,-0.237 -0.926,3.56 V -0.67 l -0.971,-0.225 v 4.518 l 1.518,0.351 0.915,-3.372 0.01,0.002 0.893,3.79 1.497,0.345 V 0.222 Z M -7.012,-1.619 V 2.098 L -8.574,1.736 v 0.799 l 4.133,0.954 V 2.69 L -5.948,2.343 v -3.716 z"
             style="fill:#f15a22;fill-opacity:1;fill-rule:nonzero;stroke:none"
             id="path52" />
        </g>
        <g
           id="g54"
           transform="translate(258.8228,190.9603)">
          <path
             d="m 0,0 c 0,0 -0.07,-18.338 -0.299,-21.564 -0.356,-5.039 -1.711,-5.174 -2.862,-4.418 -2.299,1.508 -6.595,10.096 -10.441,17.565 l -5.611,-1.296 v -46.406 l 6.861,1.584 0.023,11.775 c 0.013,6.044 1.663,6.438 4.06,4.242 1.821,-1.666 4.296,-5.34 8.199,-11.587 l 9.079,2.095 V 2.08 Z"
             style="fill:#f15a22;fill-opacity:1;fill-rule:nonzero;stroke:none"
             id="path56" />
        </g>
        <g
           id="g58"
           transform="translate(224.1909,144.474)">
          <path
             d="M 0,0 C -0.208,-0.002 -1.749,0.051 -1.914,1.227 -2.01,1.908 -1.683,2.547 -0.86,3.05 0.426,3.837 4.877,5.116 9.149,6.118 v 5.908 c 0,0 -7.736,-1.861 -10.115,-1.507 -0.722,0.107 -1.204,0.489 -1.3,1.157 -0.097,0.682 0.246,1.297 1.054,1.823 2.176,1.417 11.942,3.524 11.942,3.524 V 30.655 L -9.378,26.013 v -36.34 l 20.529,4.74 v 7.55 C 5.672,0.719 1.969,0.011 0,0"
             style="fill:#f15a22;fill-opacity:1;fill-rule:nonzero;stroke:none"
             id="path60" />
        </g>
        <g
           id="g62"
           transform="translate(201.9609,171.5863)">
          <path
             d="m 0,0 c 0,0 -2.178,-14.352 -4.112,-20.984 -0.553,-1.895 -1.889,-4.794 -3.706,-0.649 -0.651,1.486 -2.582,8.423 -4,17.367 l -6.273,-1.448 c 0.549,-6.15 3.56,-22.761 7.572,-32.437 l 12.167,2.808 c 4.478,11.852 7.165,24.369 8.078,37.589 z"
             style="fill:#f15a22;fill-opacity:1;fill-rule:nonzero;stroke:none"
             id="path64" />
        </g>
        <g
           id="g66"
           transform="translate(175.0039,131.2845)">
          <path
             d="m 0,0 c -0.969,-0.211 -3.173,-0.77 -4.3,-0.98 -1.078,-0.211 -1.708,0.397 -1.575,1.935 0.122,1.44 0.754,4.492 0.994,5.523 0.53,2.279 1.572,3.229 2.798,3.4 C -0.512,10.097 0.86,8.724 1.611,5.001 1.684,4.641 1.867,3.895 1.987,2.879 2.132,1.646 1.526,0.385 0,0 m 5.362,20.573 c -3.045,5.61 -6.585,4.447 -8.4,3.847 -2.377,-0.787 -4.486,-2.008 -6.694,-10.765 -2.321,-9.205 -4.847,-28.542 -4.847,-28.542 l 6.37,1.471 0.655,3.666 c 0.316,1.771 1.443,2.896 3.16,3.401 0,0 4.936,1.282 6.622,1.473 0.711,0.081 1.547,-0.48 1.791,-1.595 l 0.86,-3.945 8.676,2.003 c 0,0 -4.316,21.844 -8.193,28.986"
             style="fill:#f15a22;fill-opacity:1;fill-rule:nonzero;stroke:none"
             id="path68" />
        </g>
        <g
           id="g70"
           transform="translate(146.3579,123.9837)">
          <path
             d="m 0,0 c -0.208,-0.001 -1.749,0.051 -1.914,1.228 -0.095,0.68 0.231,1.32 1.054,1.823 1.286,0.786 5.737,2.065 10.01,3.067 v 5.908 c 0,0 -7.736,-1.861 -10.116,-1.507 -0.722,0.107 -1.203,0.489 -1.299,1.157 -0.098,0.682 0.246,1.298 1.054,1.823 2.175,1.417 11.941,3.524 11.941,3.524 V 31.717 L -9.377,27.074 V -9.265 l 20.529,4.74 V 1.964 C 5.672,0.719 1.969,0.011 0,0"
             style="fill:#f15a22;fill-opacity:1;fill-rule:nonzero;stroke:none"
             id="path72" />
        </g>
        <g
           id="g74"
           transform="translate(121.333,154.3011)">
          <path
             d="m 0,0 c 0.193,-7.24 0.115,-12.66 -0.878,-16.217 -0.603,-2.16 -1.932,-3.804 -3.705,-5.049 -1.807,-1.267 -3.618,-1.823 -5.392,-1.858 -2.163,-0.043 -3.726,0.799 -3.934,3.068 -0.316,3.454 -0.456,8.282 -0.351,14.33 l -7.85,-1.812 V -61.01 l 10.783,2.489 c -0.194,6.821 0.039,11.879 0.878,15.008 0.572,2.132 2.136,3.937 3.705,4.996 1.835,1.24 3.615,1.882 5.391,1.912 2.161,0.035 3.73,-0.967 3.935,-3.122 0.298,-3.155 0.439,-7.708 0.351,-13.51 l 8.025,1.852 V 2.53 Z"
             style="fill:#f15a22;fill-opacity:1;fill-rule:nonzero;stroke:none"
             id="path76" />
        </g>
        <g
           id="g78"
           transform="translate(258.0308,197.1688)">
          <path
             d="m 0,0 v 46.559 l -6.364,-1.47 C -9.74,33.942 -11.65,28.492 -13.315,23.897 c -2.836,-7.817 -5.779,-4.747 -7.15,-2.566 -1.595,2.555 -3.763,7.525 -7.525,16.633 l -9.295,-2.146 V -7.264 l 7.708,1.78 c -0.059,6.974 0.063,11.038 0.438,12.878 0.34,1.653 1.336,1.887 2.344,0.246 0.833,-1.348 2.146,-4.266 4.759,-10.267 l 5.169,1.193 c 2.848,7.654 4.384,11.512 5.474,13.399 0.879,1.536 2.555,2.614 3.059,-0.222 0.387,-2.145 0.352,-6.462 0.34,-13.589 z"
             style="fill:#faa61a;fill-opacity:1;fill-rule:nonzero;stroke:none"
             id="path80" />
        </g>
        <g
           id="g82"
           transform="translate(207.6123,222.35)">
          <path
             d="m 0,0 v -13.416 c -0.445,-4.327 -8.104,-6.16 -8.647,-1.614 -0.185,2.024 -0.282,4.819 -0.282,10.787 l -6.435,-1.486 v -39.883 l 8.824,2.037 v 9.547 c 0.537,6.904 8.538,7.288 9.274,2.389 0.248,-1.545 0.225,-3.985 0.225,-9.021 l 6.436,1.486 V 2.169 Z"
             style="fill:#faa61a;fill-opacity:1;fill-rule:nonzero;stroke:none"
             id="path84" />
        </g>
        <g
           id="g86"
           transform="translate(163.7236,216.6698)">
          <path
             d="m 0,0 v -16.437 l 5.938,1.372 c 2.366,0.546 3.197,0.044 3.18,-4.71 v -21.123 l 7.035,1.624 v 19.546 c 0.049,8.392 1.034,10.129 5.206,11.092 l 3.726,0.861 V 5.792 Z"
             style="fill:#faa61a;fill-opacity:1;fill-rule:nonzero;stroke:none"
             id="path88" />
        </g>
        <g
           id="g90"
           transform="translate(160.2495,209.6908)">
          <path
             d="m 0,0 -7.503,-1.732 c 0,0 -0.17,-7.561 -0.462,-13.196 -0.434,-7.993 -8.982,-10.481 -9.456,-2.349 -0.216,4.146 -0.285,12.287 -0.285,12.287 l -9.048,-2.089 v -3.845 c 0,-14.974 1.856,-20.256 10.766,-19.079 2.11,0.278 3.71,0.819 5.488,2.101 0.116,0.073 0.229,0.062 0.321,0 0.191,-0.137 0.395,-0.522 0.08,-1.5 -1.696,-5.265 -16.153,-6.639 -16.153,-6.639 l -0.004,-11.87 c 8.303,1.222 17.366,2.974 22.082,10.869 C -2.393,-34.105 0.001,-28.164 0,0"
             style="fill:#faa61a;fill-opacity:1;fill-rule:nonzero;stroke:none"
             id="path92" />
        </g>
        <g
           id="g94"
           transform="translate(120.395,203.3338)">
          <path
             d="m 0,0 v -12.75 c -0.423,-4.113 -7.703,-5.854 -8.219,-1.535 -0.175,1.924 -0.267,4.581 -0.267,10.253 l -6.116,-1.412 v -37.905 l 8.387,1.937 v 9.073 c 0.509,6.562 8.114,6.925 8.813,2.27 0.235,-1.468 0.214,-3.786 0.214,-8.574 l 6.116,1.413 V 2.061 Z"
             style="fill:#faa61a;fill-opacity:1;fill-rule:nonzero;stroke:none"
             id="path96" />
        </g>
        <g
           id="g98"
           transform="translate(79.1963,175.2723)">
          <path
             d="m 0,0 c -3.84,-0.979 -6.105,1.078 -6.105,6.24 0,4.118 0.077,8.369 7.616,8.369 5.367,0 7.606,-2.717 7.612,-5.783 C 9.127,5.965 5.856,1.493 0,0 m 22.537,17.009 c 0,9.482 -6.986,20.95 -36.216,13.915 v -51.569 l 7.612,1.758 v 9.214 c 0,4.498 2.927,2.692 3.573,2.285 1.093,-0.687 3.375,-2.552 8.796,-8.644 l 12.931,2.986 -10.077,10.317 c 0,0 13.381,5.388 13.381,19.738"
             style="fill:#faa61a;fill-opacity:1;fill-rule:nonzero;stroke:none"
             id="path100" />
        </g>
      </g>
    </g>
  </g>
</svg>
