<?xml version="1.0" encoding="utf-8"?>
<!-- Generator: Adobe Illustrator 25.2.3, SVG Export Plug-In . SVG Version: 6.00 Build 0)  -->
<svg version="1.1"
	 id="Layer_1" xmlns:cc="http://creativecommons.org/ns#" xmlns:dc="http://purl.org/dc/elements/1.1/" xmlns:rdf="http://www.w3.org/1999/02/22-rdf-syntax-ns#" xmlns:svg="http://www.w3.org/2000/svg"
	 xmlns="http://www.w3.org/2000/svg" xmlns:xlink="http://www.w3.org/1999/xlink" x="0px" y="0px" viewBox="0 0 2017.5 699.9"
	 style="enable-background:new 0 0 2017.5 699.9;" xml:space="preserve">
<style type="text/css">
	.st0{fill:#00B3F0;}
	.st1{fill:#FFFFFF;}
	.st2{fill:#FFD300;}
	.st3{fill:#F15A22;}
	.st4{fill:#FAA61A;}
</style>
<g id="Cloud">
	<path id="Light_Blue" class="st0" d="M1992,242.7c-16.3-38.6-39.7-73.3-69.4-103c-29.7-29.7-64.4-53.1-103-69.4
		c-40-16.9-82.4-25.5-126.2-25.5c-58.4,0-114.4,15.3-163.9,44.4c-46.5-31.7-101.5-48.8-158.7-48.8c-45.5,0-89.5,10.7-129.1,31.2
		C1182.3,25.2,1109.5,0,1033.1,0c-45.9,0-90.5,9-132.4,26.8c-27.2,11.5-52.4,26.3-75.5,44.3c-48.5-30.5-105.1-47-163.1-47
		c-58.7,0-116.1,17-165.1,48.3c-49.4-27.5-104.9-41.9-162.3-41.9c-45.2,0-89,8.9-130.3,26.3c-39.9,16.9-75.6,41-106.4,71.7
		c-30.7,30.7-54.9,66.5-71.7,106.4C8.9,276.2,0,320,0,365.2s8.9,89,26.3,130.3c16.9,39.9,41,75.6,71.7,106.4
		c30.7,30.7,66.5,54.9,106.4,71.7c41.3,17.5,85.1,26.3,130.3,26.3c47.6,0,93.6-9.8,136.8-29.1c30.5-13.7,58.4-31.6,83.4-53.4
		c34.2,12.7,70.7,19.4,107.2,19.4c34.4,0,68.2-5.7,100.4-16.9c17.3-6,34-13.5,49.9-22.5c24.3,20.8,51.2,38,80.6,51.3
		c44.1,20,91.3,30.2,140.1,30.2c88.4,0,172-34,234.9-94.4c32.6,12.8,67.6,19.4,102.8,19.4c29.6,0,58.4-4.5,86-13.4
		c25.2,26.8,54.9,49.4,87.5,66.3c45.7,23.7,97.3,36.2,149.1,36.2c43.7,0,86.2-8.6,126.2-25.5c38.6-16.3,73.3-39.7,103-69.4
		c29.7-29.7,53.1-64.4,69.4-103c16.9-40,25.5-82.4,25.5-126.2S2008.9,282.7,1992,242.7z"/>
	<path id="White" class="st1" d="M1904.9,157.4c-56.5-56.5-131.6-87.6-211.5-87.6c-59.4,0-116,17.1-165,49.6
		c-44.9-35-100.1-54-157.6-54c-47,0-92.2,12.5-131.9,36.4C1181.8,52.1,1109.4,25,1033.1,25c-76.7,0-149.2,27.3-206.4,77.2
		C779,67.8,721.4,49.1,662.1,49.1c-59,0-116.6,18.7-164.2,52.9C449,71.5,393,55.5,334.7,55.5c-82.7,0-160.5,32.2-219,90.7
		C57.2,204.7,25,282.5,25,365.2c0,82.7,32.2,160.5,90.7,219c58.5,58.5,136.3,90.7,219,90.7c44.1,0,86.6-9.1,126.5-26.9
		c32.8-14.7,62.5-34.8,88.4-59.7c35.3,15.4,73.9,23.5,112.5,23.5c55.1,0,107.7-15.6,153.3-45.4c25.8,24.8,55.3,44.8,87.9,59.6
		c40.9,18.5,84.5,27.9,129.8,27.9c87.4,0,169.7-35.9,229.1-99.1c33.9,15.8,71,24.1,108.6,24.1c32.4,0,63.8-5.9,93.5-17.6
		c25.3,30.1,56.6,55.3,91.5,73.3c42.2,21.9,89.8,33.4,137.6,33.4c79.9,0,155-31.1,211.5-87.6c56.5-56.5,87.6-131.6,87.6-211.5
		C1992.5,289,1961.4,213.9,1904.9,157.4z"/>
	<path id="Black" d="M1693.4,94.8c-62.6,0-120.2,21-166.3,56.2c-41.2-37.7-96.1-60.6-156.3-60.6c-50.1,0-96.6,15.9-134.5,43
		C1184,81.8,1112.3,50,1033.1,50c-80.1,0-152.6,32.5-205,85.1c-44.7-38.1-102.7-61-166-61c-62,0-118.8,22-163.1,58.6
		c-46.4-32.9-103.1-52.2-164.3-52.2C177.5,80.5,50,208,50,365.2s127.5,284.7,284.7,284.7c82.9,0,157.4-35.4,209.5-91.9
		c35.3,18.3,75.4,28.7,117.9,28.7c58.9,0,113.1-19.9,156.3-53.2c53,58.5,129.5,95.3,214.7,95.3c89.9,0,170.2-41,223.2-105.2
		c33.8,19.2,72.8,30.2,114.5,30.2c36.3,0,70.7-8.4,101.2-23.2c49.9,68.2,130.4,112.4,221.4,112.4c151.4,0,274.1-122.7,274.1-274.1
		S1844.8,94.8,1693.4,94.8z"/>
</g>
<g id="Rhythm_Heaven_Wiki_1_">
	<path id="I_3_" class="st2" d="M1160.3,557.4V434.9h31v122.5H1160.3z"/>
	<path id="K" class="st2" d="M1138,485.7l-1.5-2.3c-0.9-1.4-2.3-2.9-4.2-4.4c-0.3-0.2-0.6-0.4-0.8-0.6c-1.2-1-2.7-1.9-4.3-2.7
		c-3.1-2-6.5-3.6-10.2-4.8l-0.2-0.1c1.5-2.7,2.9-5.4,4.4-8.2c1.4-2.7,2.9-5.5,4.4-8.2c1.5-2.7,2.9-5.4,4.4-8.2
		c1.4-2.7,2.9-5.5,4.4-8.2c1.5-2.7,2.9-5.4,4.4-8.2c1.4-2.7,2.9-5.5,4.4-8.2c1.5-2.7,3-5.4,4.4-8.2c1.5-2.7,2.9-5.5,4.4-8.2h-34.8
		l-1.2,3.8c-2.4,8-5.5,17-9.1,27l-1.5,4.5l-3,8.1l-1.4,3.6l-2.6,6.2c-1.4,3-2.2,4.4-2.3,4.7c-0.2,0.5-0.5,0.9-0.8,1.3
		c-0.6,0.7-0.9,0.9-1.6,1.3l-0.6,0.4c-0.5,0.3-1,0.4-1.7,0.4c-0.3,0-0.5-0.1-0.7-0.3l-0.1-0.1c-0.1-0.1-0.1-0.1-0.1-0.1
		c0,0,0,0-0.1-0.1c-0.4-0.9-0.7-1.9-0.9-3.1c-0.6-3.3-1.1-7.3-1.4-12c-0.5-9-0.7-24.3-0.7-45.7h-26.5v132.7h22.7
		c0-5.1,0-8.4,0.1-9.8c0.1-6.7,0.7-12.2,1.9-16.3c1-3.1,2.4-5.2,4.2-6c1.4-0.7,3.2-1.1,5.3-1.2c0.4,0,0.8,0,1.3,0l2.8,0.1
		c2.5,0,4.6,0.5,6.2,1.4c1.8,1,3.3,2.7,4.4,5c1.8,3.7,2.4,7.6,2.8,11.8l0.4,15.1h34.9c-0.3-10.1-1.6-19.9-3.1-30.2
		C1143.2,497.2,1140.5,489.9,1138,485.7z"/>
	<path id="I" class="st2" d="M1017.7,557.4V434.9h31v122.5H1017.7z"/>
	<path id="W" class="st2" d="M1003.2,405.3h-18.5c-0.8,3.4-1.6,7.2-2.2,10.5c-2.5,12.5-5.4,24-8.6,34.7c-0.6,2.1-1.2,4-1.7,5.7
		c-1.4,4-6,12.6-9.9,12.9c-1.4,0.1-2.2-0.2-3.8-2.7c-2.1-3.3-4.3-10.9-6.4-18.9l-8.4-37.1H926c-1.6,10.8-3.2,21.7-4.9,32.5l-0.5,3.3
		c-1.9,12.1-3.8,20.4-5.8,25c0,0,0,0,0,0c-1.4,3.4-3.7,7-5.9,7.1c-1.4,0.1-3.7,0.6-5.7-3.3c-1.8-3.5-4.3-10.9-6.4-18.9l-11.5-50.8
		h-21.2L885.6,557h35.7l6-31.5c1-4.7,2.3-8,4-10.1c1-1.2,2.2-1.8,3.7-1.8c2,0,3.6,1.1,4.4,3.6c1,3.2,2.4,8.6,4,16.4
		c0.7,3.4,3.3,15.7,4.9,23.4h29.8c3.9-23.4,8.7-52.6,12.5-76.1l12.4-75.1l0,0L1003.2,405.3z"/>
	<path id="N" class="st3" d="M1752.9,497.7V312h24.8c17,33.5,28.7,55.6,35.3,66.3c4.5,7,8,11.5,10.6,13.6c1.9,1.4,3.9,2.2,5.9,2.2
		c3.5,0,5.7-5.7,6.6-17.2c0.9-11.4,1.4-34.8,1.4-69.9v-16h39.7v200.5h-39.9c-23.2-40.4-38.8-60.6-46.9-60.6h-0.5
		c-4.5,0-6.7,6.6-6.7,19.9l-0.3,47H1752.9z"/>
	<path id="E_1_" class="st3" d="M1633.3,425.6V246.2h96.8v67.4l-40.4,0.9c-6.1,0.4-11,1-14.7,1.8c-2.8,0.6-5.1,2-6.9,4.1
		c-1.1,1.3-1.6,2.7-1.6,4c0,1.8,1,3.5,2.9,5.1c1.6,1.4,3.5,2.5,5.6,3.1l2.2,0.8c7.9,1.8,23,2.8,45.3,2.8v29.5l-33,0.9
		c-5.2,0.4-9.4,1-12.8,1.6c-2.8,0.6-5,2-6.8,4.1c-1.1,1.3-1.6,2.7-1.6,4c0,1.8,0.9,3.4,2.7,5c1.8,1.6,3.7,2.7,5.8,3.4
		c8.9,2.4,27.3,3.6,55.1,3.6v37.3H1633.3z"/>
	<path id="V" class="st3" d="M1515.1,446.7c-7.7-20.6-14.9-46.3-21.6-76.9c-6.8-30.3-11.6-57.9-14.3-82.8h30.1l9.4,49.5
		c3.6,16.2,6.9,28.2,9.6,36c3.2,8,6.3,12,9.5,12c3.2,0,5.9-3.7,8.2-11.1c3.7-12,7-25.2,9.7-39.7l9.7-54h46.3
		c-4.4,60.7-17.2,116.4-38.5,167H1515.1z"/>
	<path id="A" class="st3" d="M1457.7,394.8c-5.4-43-17.3-95.6-28.7-134.4c-11.5-39-20.9-50.1-43.7-50.1
		c-25.9-0.1-35.2,7.1-43.6,40.7c-8,33.8-18,89.3-26,143.8h31.8c0.6-4.3,3.1-17.3,4.8-24.9c1.7-7.7,6.2-12.5,15.2-12.5
		c7.4,0,21.1-0.3,26,0c6.9,0.5,13.3,6.7,15.5,16.2c1.5,6.3,3.4,15.2,4.6,21.1L1457.7,394.8z M1390.5,331.5
		c-4.9-0.1-16.2,0.1-21.9-0.2c-5.5-0.2-8.7-3.8-8-11.1c0.6-6.8,3.8-20.8,5.1-25.5c2.6-9.8,8-13.7,14.3-13.2
		c10.1,0.7,15,8.9,18.9,27.7c0.4,1.8,1.4,5.6,1.9,10.6C1401.5,330,1398.3,331.4,1390.5,331.5"/>
	<path id="E" class="st3" d="M1195,409.9V230.5h96.8v67.4l-40.4,0.9c-6.1,0.4-11,1-14.7,1.8c-2.8,0.6-5.1,2-6.9,4.1
		c-1.1,1.3-1.6,2.7-1.6,4c0,1.8,1,3.5,2.9,5.1c1.6,1.4,3.5,2.5,5.6,3.1l2.2,0.8c7.9,1.8,23,2.8,45.3,2.8V350l-33,0.9
		c-5.2,0.4-9.4,1-12.8,1.6c-2.8,0.6-5,2-6.8,4.1c-1.1,1.3-1.6,2.7-1.6,4c0,1.8,0.9,3.4,2.7,5c1.8,1.6,3.7,2.7,5.8,3.4
		c8.9,2.4,27.3,3.6,55.1,3.6v37.3H1195z"/>
	<path id="H_2_" class="st3" d="M1125.6,156.6c-0.2,30.8-0.1,58.8-1.4,68.8c-3,23.8-44.5,25.2-46.6,2.1c-1-10.8-1.8-25.1-1.8-56.4
		h-33.5v206.5l42.7,0c0-32.8,0-47,0.5-58.1c1.5-29.2,45.5-25.7,49.3,0.9c1.7,12.1,2,17.8,2,44.2l34.1,0v-208H1125.6z"/>
	<path id="M" class="st4" d="M951,381.4l0.1-19.5c0-17.7-0.5-29.8-1.5-36.3c-1.1-5.6-3-8.3-5.6-8.3c-2.6,0-4.9,1.5-6.9,4.5
		c-3.8,5.6-11.2,22.1-22.1,49.6h-21.2c-10.1-25.9-16.6-41.3-19.5-46.5c-2.2-3.9-4.2-5.8-6-5.8c-1.6,0-2.8,1.6-3.6,4.8
		c-1.2,5.6-1.9,19-1.9,40v17.5h-31.6V200.1h38.2c14.6,39.4,24.7,64.6,30.5,75.3c3,6.4,7.3,10.7,12.9,13.1c0.7,0.3,1.4,0.4,2.1,0.4
		c4.6,0,9.4-5.7,14.3-17.2l11.5-30.4l16.8-49.5h25.9v189.7H951z"/>
	<path id="H_1_" class="st4" d="M773.6,241.5c-0.2,25.2-0.1,48.3-1.2,56.4c-2.6,19.5-37.8,20.6-39.5,1.7c-0.8-8.9-1.5-20.6-1.5-46.3
		h-28.5v169.3l36.3,0c0-26.9,0-38.6,0.5-47.7c1.3-24,38.6-21.1,41.9,0.8c1.5,9.9,1.7,14.6,1.7,36.3l28.9,0V241.5H773.6z"/>
	<path id="T" class="st4" d="M617.9,418.5l-0.4-90.2l0.1-4.5c0-12.1-2.6-18.2-7.7-18.5l-7.1-0.4H580v-70.5h104.3v58.1h-10H666
		c-7.3,0-12.1,3-14.4,8.5c-2.6,6-4,17.9-4.4,35.8v81.6H617.9z"/>
	<path id="Y" class="st4" d="M531,313.4c0,0,0.4,31.2-0.7,53.9c-1.7,33.2-34.5,32.6-37.2,0c-1.3-17.1-2-50.6-2-50.6h-36.6v27.2
		c0,65,41.1,82.8,62.6,69.3c1.3-0.8,2.6-1.2,3.7-0.5c1.2,0.8,1.2,2.2,0.7,4.5c-1.3,6.2-10.6,16.8-29.5,17.5
		c-14.4,0.5-28.4-0.3-35.5-0.8V479c31.6,3.3,68.2,2.7,85.3-20.2c8.9-12,13.5-25.7,15.9-47.2c3.6-33.8,2.8-98.2,2.8-98.2H531z"/>
	<path id="H" class="st4" d="M396.5,271c-0.2,25.2-0.1,48.3-1.2,56.4c-2.6,19.5-37.8,20.6-39.5,1.7c-0.8-8.9-1.5-20.6-1.5-46.3
		h-28.5v169.3l36.3,0c0-26.9,0-38.6,0.5-47.7c1.3-24,38.6-21.1,41.9,0.8c1.5,9.9,1.7,14.6,1.7,36.3l28.9,0V271H396.5z"/>
	<path id="R" class="st4" d="M242.7,419.4c34.2-4.7,60.5-30.9,60.6-66.9c0-72.2-73.3-109.5-163-98.5v233h38.2v-58.3
		c0-8.9,6.8-5.8,13.1,1c4.4,4.8,30.9,35.4,49.5,57.4h58.3C299.4,487,248.6,425.6,242.7,419.4 M191.4,334.8
		c30.6-1.3,51.7,14.8,51.7,34.7c0,18.6-14.7,28-42.4,28.1c-14.2,0-22.1-9.3-22.1-25.6c0-7.2,0-7.7,0-15.7
		C178.5,345,180.9,335.6,191.4,334.8z"/>
</g>
</svg>
