<?xml version="1.0" encoding="UTF-8" standalone="no"?>
<!-- Generator: Adobe Illustrator 25.0.0, SVG Export Plug-In . SVG Version: 6.00 Build 0)  -->

<svg
   version="1.1"
   id="Layer_1"
   x="0px"
   y="0px"
   viewBox="0 0 666.66675 499.49347"
   xml:space="preserve"
   sodipodi:docname="Rhythm World The Best Plus More Of The Best (리듬 세상 더・베스트 플러스 최고・중・더・베스트) Logo.svg"
   width="666.66675"
   height="499.49347"
   inkscape:version="1.2.2 (b0a8486541, 2022-12-01)"
   xmlns:inkscape="http://www.inkscape.org/namespaces/inkscape"
   xmlns:sodipodi="http://sodipodi.sourceforge.net/DTD/sodipodi-0.dtd"
   xmlns:xlink="http://www.w3.org/1999/xlink"
   xmlns="http://www.w3.org/2000/svg"
   xmlns:svg="http://www.w3.org/2000/svg"><defs
   id="defs47893" /><sodipodi:namedview
   id="namedview47891"
   pagecolor="#505050"
   bordercolor="#eeeeee"
   borderopacity="1"
   inkscape:showpageshadow="0"
   inkscape:pageopacity="0"
   inkscape:pagecheckerboard="0"
   inkscape:deskcolor="#505050"
   showgrid="false"
   inkscape:zoom="2.2839117"
   inkscape:cx="329.91643"
   inkscape:cy="437.8453"
   inkscape:window-width="2560"
   inkscape:window-height="1412"
   inkscape:window-x="0"
   inkscape:window-y="0"
   inkscape:window-maximized="1"
   inkscape:current-layer="리듬_세상_더_x30FB_베스트_최고_x30FB_중_x30FB_더_x30FB_베스트_1_" />
<style
   type="text/css"
   id="style47793">
	.st0{fill:#4087DA;}
	.st1{fill:#404040;}
	.st2{fill:url(#SVGID_1_);}
	.st3{clip-path:url(#SVGID_2_);fill:url(#SVGID_3_);}
	.st4{fill:#D8D8D8;}
	.st5{fill-rule:evenodd;clip-rule:evenodd;fill:#8898B0;}
	.st6{fill-rule:evenodd;clip-rule:evenodd;fill:#404040;}
	.st7{fill:#8898B0;}
	.st8{fill:#2C5E87;}
	.st9{fill-rule:evenodd;clip-rule:evenodd;fill:#2C5E87;}
</style>
<g
   id="Cloud_00000000183532777433781470000003896592949874560179_"
   transform="scale(1.3333334)">
	<path
   id="Black_00000155855611272096255510000006401015884962258084_"
   d="m 400.98834,194.92769 c 45.3877,0 82.31348,-36.92529 82.31348,-82.31249 0,-45.3872 -36.92578,-82.3125 -82.31348,-82.3125 -18.97461,0 -37.24805,6.57178 -51.80566,18.35791 -13.72949,-9.62451 -30.05664,-14.81494 -47.13281,-14.81494 -36.06836,0 -67.01369,23.09131 -78.02785,55.97314 -7.18359,-2.00098 -14.64746,-3.03271 -22.14209,-3.03271 -15.2666,0 -30.08545,4.21973 -42.92285,12.07275 -15.41943,-16.48486 -36.9912,-25.99854 -60.05322,-25.99854 -45.38721,0 -82.3125,36.92529 -82.3125,82.31249 0,26.67676 12.85303,50.86816 33.14404,66.02051 -13.40283,10.76562 -22.01123,27.27832 -22.01123,45.69435 0,12.71094 3.99365,24.69238 11.1831,34.5293 -8.69824,7.71387 -14.1167,18.96484 -14.1167,31.33887 -4.9e-4,11.18164 4.354,21.69531 12.26123,29.60254 7.90723,7.90625 18.42041,12.26172 29.60254,12.26172 11.72754,0 22.72314,-4.93945 30.5127,-13.21973 3.20605,0.77637 6.51074,1.17383 9.85107,1.17383 0.002,0 0.002,0 0.004,0 9.25342,0 18.20898,-3.08887 25.46386,-8.64258 2.40967,0.0391 4.80176,-0.13574 7.16406,-0.51074 5.4541,2.5127 11.39746,3.82129 17.48633,3.82129 11.13086,0 21.62549,-4.38965 29.37842,-12.03809 5.21045,-0.14648 10.2998,-1.25488 15.04883,-3.25781 3.79541,1.10352 7.74902,1.6748 11.70459,1.6748 8.52637,0 16.7002,-2.55371 23.61133,-7.29199 5.93994,0.2002 11.80469,-0.86328 17.21875,-3.07715 4.52052,1.62402 9.31154,2.46582 14.16994,2.46582 9.02246,0 17.60938,-2.85352 24.69238,-8.0459 3.80664,1.11621 7.77246,1.69043 11.78516,1.69043 10.50391,0 20.5332,-4.00488 28.14648,-10.9043 3.47461,0.91992 7.07227,1.39062 10.71094,1.39062 23.08398,0 41.86426,-18.7793 41.86426,-41.86328 0,-1.77246 -0.11035,-3.5293 -0.32812,-5.2666 12.83105,-11.6123 20.25293,-28.08498 20.25293,-45.74513 0,-9.84082 -2.32422,-19.44141 -6.7666,-28.11328 0.27734,-1.30859 0.50977,-2.62598 0.69531,-3.94922 0.55566,0.0108 1.11133,0.0166 1.66699,0.0166 z" />
	<path
   id="Blue_1_"
   class="st0"
   d="m 400.98834,38.54977 c -19.23926,0 -37.67969,7.51025 -51.43652,20.78223 -13.30762,-11.15723 -29.96484,-17.23926 -47.50195,-17.23926 -35.2998,0 -65.14748,24.57861 -72.39406,58.33594 -8.78223,-3.54492 -18.24902,-5.39551 -27.77588,-5.39551 -16.09668,0 -31.63965,5.21289 -44.40918,14.79102 -13.9917,-18.09131 -35.44677,-28.7168 -58.56689,-28.7168 -40.83985,0 -74.06543,33.22559 -74.06543,74.06542 0,28.37451 16.15283,53.62109 40.42285,66.00488 -17.26416,8.01074 -29.29004,25.5293 -29.29004,45.70998 0,13.85059 5.51807,26.69238 15.15771,36.04883 -10.82617,5.64355 -18.09131,16.97852 -18.09131,29.81934 -4.9e-4,8.97949 3.49609,17.4209 9.8457,23.77051 6.34961,6.34961 14.7915,9.84668 23.771,9.84668 11.14258,0 21.46289,-5.55273 27.66992,-14.53516 4.00928,1.63867 8.3125,2.48926 12.69482,2.48926 10e-4,0 0.002,0 0.003,0 8.41113,0 16.51611,-3.17871 22.68163,-8.81055 3.74756,0.38379 7.51074,0.12891 11.14014,-0.73047 4.9707,2.76074 10.55078,4.20898 16.29248,4.20898 10.06055,0 19.47461,-4.4668 25.83105,-12.10547 6.36621,0.45996 12.56299,-0.89355 18.07129,-3.81543 3.8877,1.52734 7.98828,2.2998 12.22949,2.2998 7.76855,0 15.17188,-2.64062 21.14453,-7.48926 1.27783,0.14648 2.56641,0.2207 3.85449,0.2207 5.4917,0 10.83301,-1.32422 15.63574,-3.85352 4.46974,2.11328 9.37306,3.21875 14.36525,3.21875 8.67578,0 16.85059,-3.28809 23.05176,-9.15137 4.21582,1.83789 8.78125,2.7959 13.42578,2.7959 10.02344,0 19.51074,-4.54395 25.84277,-12.13281 4.09961,1.72363 8.51758,2.62012 13.01465,2.62012 18.53613,0 33.61719,-15.08105 33.61719,-33.61719 0,-2.89355 -0.36426,-5.7373 -1.08496,-8.49609 13.2334,-10.10938 21.00977,-25.6924 21.00977,-42.51564 0,-9.52148 -2.50977,-18.78223 -7.2832,-26.95312 1.18555,-4.33008 1.78516,-8.78662 1.78516,-13.28467 0,-0.21387 -0.002,-0.42822 -0.005,-0.64258 3.09473,0.39062 6.21875,0.5874 9.3457,0.5874 40.83984,0 74.06641,-33.22559 74.06641,-74.06542 0,-40.83983 -33.22655,-74.06542 -74.0664,-74.06542 z" />
	<path
   id="Black_1_"
   d="m 400.98877,44.28671 c -20.36035,0 -38.63715,8.90851 -51.15521,23.03638 C 337.51258,55.26572 320.651,47.82956 302.05005,47.82956 c -35.26398,-6e-5 -64.28523,26.71454 -67.93782,61.00934 -9.60223,-5.14697 -20.57538,-8.06903 -32.23224,-8.06903 -17.49292,0 -33.44763,6.57678 -45.53448,17.38837 C 144.1798,99.3176 122.99933,86.84409 98.90393,86.84409 c -37.73682,0 -68.32849,30.59167 -68.32849,68.32848 0,33.31573 23.84534,61.05731 55.39886,67.1015 -24.47937,0.19238 -44.26618,20.08856 -44.26624,44.6133 0,16.20068 8.63452,30.38336 21.55164,38.20111 -13.79547,1.67596 -24.48541,13.41937 -24.48547,27.66718 -6e-5,15.39789 12.48236,27.88037 27.88025,27.88043 11.30511,6e-5 21.03137,-6.73248 25.4071,-16.40344 4.32306,2.75488 9.45184,4.3576 14.95801,4.3576 8.1958,6e-5 15.56488,-3.53699 20.66608,-9.16705 1.75085,0.34442 3.55895,0.5293 5.41076,0.5293 3.00311,0 5.89276,-0.48047 8.60315,-1.35913 4.42029,2.94525 9.72717,4.66486 15.43719,4.66486 9.69885,0 18.23749,-4.95483 23.23212,-12.46881 1.60803,0.28845 3.26105,0.44739 4.95209,0.44739 5.67352,0 10.94812,-1.69904 15.35144,-4.60974 3.78436,1.92053 8.06177,3.00989 12.59607,3.00989 7.52802,0 14.35419,-2.98877 19.37048,-7.83795 1.81799,0.37268 3.70032,0.56866 5.62848,0.56866 5.73456,0 11.06329,-1.73334 15.49493,-4.70178 4.22621,2.58008 9.19215,4.06781 14.50606,4.06781 8.83484,6e-5 16.70422,-4.11401 21.81238,-10.52563 4.26086,2.64105 9.28351,4.1698 14.66504,4.1698 10.25,6e-5 19.20239,-5.53503 24.04657,-13.77551 4.29205,2.69739 9.36725,4.26324 14.81079,4.26324 15.39789,6e-5 27.88037,-12.48236 27.88043,-27.88025 0,-3.80463 -0.76459,-7.42999 -2.14441,-10.73431 13.26752,-8.49542 22.06934,-23.35365 22.06934,-40.27718 0,-9.64966 -2.86865,-18.62482 -7.78589,-26.138 1.47601,-4.43341 2.28723,-9.17053 2.28723,-14.09985 0,-2.59839 -0.23468,-5.14056 -0.66089,-7.61719 5.05347,1.19147 10.32239,1.82495 15.73975,1.82495 37.73682,0 68.32849,-30.59167 68.32855,-68.32848 -1e-5,-37.73685 -30.59174,-68.32858 -68.32856,-68.32858 z" />
</g>
<g
   id="_xFF0B__1_"
   transform="scale(1.3333334)">
	<g
   id="_xFF0B__00000041273916913447319150000010207247990595346349_">
		<polygon
   points="370.91492,211.69525 331.66312,220.0385 328.32306,258.21573 367.5748,249.87253 364.09296,289.67065 420.33762,277.71548 423.81949,237.91736 463.07068,229.57426 466.41074,191.39699 427.15961,199.74008 430.64145,159.94196 374.39679,171.89713 "
   id="polygon47799" />
		<polygon
   class="st1"
   points="379.68561,219.93996 340.43423,228.2831 338.89648,245.85924 378.14783,237.5161 374.66595,277.31439 411.56671,269.47089 415.04861,229.67259 454.30002,221.32951 455.83774,203.75331 416.5863,212.09645 420.06824,172.29816 383.16748,180.14172 "
   id="polygon47801" />
		
			<linearGradient
   id="SVGID_1_"
   gradientUnits="userSpaceOnUse"
   x1="340.71542"
   y1="245.44316"
   x2="453.961"
   y2="204.22514"
   gradientTransform="translate(0.0289,-0.02789)">
			<stop
   offset="0"
   style="stop-color:#828282"
   id="stop47803" />
			<stop
   offset="0.26997"
   style="stop-color:#707070"
   id="stop47805" />
			<stop
   offset="1"
   style="stop-color:#414141"
   id="stop47807" />
		</linearGradient>
		<polygon
   class="st2"
   points="380.85498,221.03929 341.60367,229.38237 340.30627,244.21172 379.55759,235.86858 376.07571,275.66693 410.39728,268.37158 413.87918,228.5733 453.13055,220.23016 454.42798,205.40083 415.17654,213.74397 418.65845,173.94568 384.33691,181.24095 "
   id="polygon47810"
   style="fill:url(#SVGID_1_)" />
		<g
   id="g47835">
			<defs
   id="defs47813">
				<polygon
   id="SVGID_6_"
   points="380.85501,221.03932 341.60367,229.38237 340.30627,244.21172 379.55762,235.86861 " />
			</defs>
			<clipPath
   id="SVGID_2_">
				<use
   xlink:href="#SVGID_6_"
   style="overflow:visible"
   id="use47815" />
			</clipPath>
			
				<radialGradient
   id="SVGID_3_"
   cx="351.55817"
   cy="267.2746"
   r="34.401119"
   gradientTransform="matrix(0.79125,0,0,0.79125,67.58496,15.30352)"
   gradientUnits="userSpaceOnUse">
				<stop
   offset="0.1"
   style="stop-color:#FFFFFF"
   id="stop47818" />
				<stop
   offset="0.13922"
   style="stop-color:#F5F5F5"
   id="stop47820" />
				<stop
   offset="0.34461"
   style="stop-color:#C5C5C5"
   id="stop47822" />
				<stop
   offset="0.53977"
   style="stop-color:#9F9F9F"
   id="stop47824" />
				<stop
   offset="0.71959"
   style="stop-color:#848484"
   id="stop47826" />
				<stop
   offset="0.87853"
   style="stop-color:#747474"
   id="stop47828" />
				<stop
   offset="1"
   style="stop-color:#6E6E6E"
   id="stop47830" />
			</radialGradient>
			<path
   class="st3"
   d="m 345.44046,201.42584 c -13.53604,0 -24.60794,11.61974 -25.56458,25.12193 -1.11649,15.75816 11.26685,28.95985 26.82242,29.09564 l 27.36389,-2e-5 c 0,0 0.41068,-19.72594 0.41068,-20.10934 0,-3.36703 -1.93994,-34.10821 -29.03241,-34.10821 z"
   clip-path="url(#SVGID_2_)"
   id="path47833"
   style="fill:url(#SVGID_3_)" />
		</g>
	</g>
	<path
   id="스_00000098216975898600519910000015412062904805126294_"
   class="st4"
   d="m 404.80054,248.9826 -1.98218,4.33612 c -4.30612,0.44861 -8.22888,-2.37328 -8.22888,-2.37328 0,0 -4.4166,4.40697 -8.62039,6.33107 l -2.11316,-3.34981 c 0,0 8.1694,-4.0242 8.51758,-8.07785 l 0.15045,-1.25853 c 0.0622,-0.724 -0.38593,-0.72305 -0.96808,-0.59932 l -0.58472,0.1243 0.19644,-2.28734 6.42902,-1.36652 -0.40546,4.22728 c -0.37594,4.37715 7.60938,4.29388 7.60938,4.29388 z m -23.06171,12.00367 -0.28128,3.27463 24.17535,-5.13861 0.28128,-3.2746 z" />
	<path
   id="러_00000149343708537089004440000006094829385774979723_"
   class="st4"
   d="m 397.0639,232.42329 c 1.32385,-0.28139 2.70563,-0.81375 3.57269,-1.32393 l -0.28308,3.29572 c -0.86923,0.46091 -2.57123,1.06085 -4.49203,1.46912 l -8.86829,1.88501 c -1.15787,0.24611 -2.00977,-0.56366 -1.90283,-1.80867 l 0.43384,-5.05086 c 0.0623,-0.72563 -0.62598,-0.57933 -1.09012,-0.48068 l -0.22983,0.0489 0.18332,-2.13448 10.42056,-2.21494 0.21912,-2.55127 -9.98819,2.12303 0.27591,-3.21225 14.32419,-3.02409 c 0.36142,-0.0763 0.62708,0.17674 0.59369,0.56543 l -0.64072,7.45964 c -0.0334,0.38905 -0.35382,0.76683 -0.7157,0.84375 l -7.27173,1.54564 -0.32593,3.79463 z m 6.22321,-17.34806 -0.21393,2.49081 0.44315,-0.0942 c 0.44119,-0.0938 0.84506,-0.17963 0.79324,0.42398 l -0.39786,4.63185 -3.05139,0.64859 -0.34744,4.04497 3.05139,-0.64859 -1.1673,13.59061 4.78452,-1.01697 2.17841,-25.36185 z" />
	<path
   id="플_2_"
   class="st4"
   d="m 408.82367,207.58923 -0.2345,2.73001 -17.95645,3.81673 c -1.98813,0.42259 -2.67145,0.0215 -2.56989,-1.16078 l 0.1412,-1.64423 c 0.044,-0.51268 -0.0116,-0.63271 -0.61368,-0.50473 l -0.52374,0.11133 0.21182,-2.46602 16.62766,-3.53432 0.12946,-1.50705 -16.09961,3.42207 0.25238,-2.93806 20.06992,-4.25142 c 0.46884,-0.0993 0.82477,0.0963 0.77393,0.68834 l -0.42084,4.89948 c -0.0236,0.27487 -0.45697,0.97179 -0.9263,1.07155 l -14.23068,3.0248 -0.13208,1.53723 z m 3.73248,-12.8184 -27.22961,5.7878 -0.23178,2.69872 27.22958,-5.78778 z m -5.59396,-2.34328 0.32584,-3.79347 2.61032,-0.55482 0.19403,-2.25916 -20.6442,4.38803 -0.19403,2.25914 2.61029,-0.55482 -0.32584,3.79347 -3.22253,0.68497 -0.19403,2.25912 21.86868,-4.6483 0.19406,-2.25912 z m -11.3107,-0.35589 7.68076,-1.63258 -0.15714,1.82927 -7.68076,1.63258 z" />
</g>
<g
   id="리듬_세상_더_x30FB_베스트_최고_x30FB_중_x30FB_더_x30FB_베스트_1_"
   transform="scale(1.3333334)">
	<path
   id="트_2_"
   class="st0"
   d="m 340.47095,268.40878 v 3.07971 l 15.60562,-3.31705 -3e-5,4.38037 -15.60562,3.31702 v 3.20462 l 15.60562,-3.31702 v 4.00284 l -19.11887,4.06378 c -1.57727,0.33524 -2.96036,-0.94205 -2.96033,-2.90979 l 3e-5,-11.64658 c 0,-0.78909 -0.12228,-1.01572 -1.43298,-0.73712 l -0.28027,0.0596 3e-5,-2.76382 23.79242,-5.05716 v 4.32361 z m -12.07941,21.42575 v 4.1449 l 32.00201,-6.80212 v -4.14487 z" />
	<path
   id="스_2_"
   class="st0"
   d="m 319.84015,282.18115 -2.21686,5.12402 c -6.0322,0.46494 -10.84296,-3.76572 -10.84296,-3.76572 0,0 -4.85898,5.98828 -11.18503,8.70181 l -2.83514,-4.16571 c 0,0 10.54477,-4.99524 10.5448,-10.21021 v -2.72446 c 0,-0.9314 -0.60159,-0.92709 -1.36896,-0.76401 l -0.6864,0.1459 v -2.60251 l 7.98431,-1.69711 -3e-5,5.84546 c 10e-6,5.63116 10.60627,6.11254 10.60627,6.11254 z m -29.37726,15.45157 -3e-5,4.21274 31.86743,-6.7735 v -4.21274 z" />
	<path
   id="path41-6"
   d="m 255.41549,294.50389 3.81275,-0.81041 v 3.70402 l -3.81275,0.81041 z m 11.88188,-14.24563 v 3.1748 l 0.59359,-0.1256 c 0.61671,-0.13122 1.08221,0.16745 1.08221,0.93226 v 2.77926 l -4.29949,0.91351 v -6.18774 l -7.12125,1.51397 v 3.17542 l 0.59359,-0.12621 c 0.61672,-0.13122 1.08222,0.16745 1.08222,0.93224 v 1.85015 l -3.81275,0.8104 v -6.18775 l -7.12125,1.51336 v 3.17541 l 0.59297,-0.12621 c 0.61734,-0.13121 1.08221,0.16808 1.08221,0.93225 v 4.7e-4 12.46796 c 0,1.29217 0.86478,1.99386 2.11195,1.72831 l 12.59231,-2.67617 v -8.19207 l 4.29949,-0.91351 v 18.16522 l 5.44606,-1.15782 v -29.88588 z m 15.66712,-4.65877 v 31.21428 l -5.93719,1.2628 v -26.8773 c 0,-0.7648 -0.46488,-1.06348 -1.08221,-0.93226 l -0.59298,0.12622 v -3.17542 z"
   style="fill:#4087da;fill-opacity:1;fill-rule:nonzero;stroke:none;stroke-width:0.624831"
   clip-path="none"
   inkscape:label="베_2_" />
	<polygon
   id="_x2605__4_"
   class="st0"
   points="237.04977,295.67651 233.64757,296.88431 236.12854,298.70953 235.57031,302.15002 238.60533,299.93655 241.66252,300.8551 241.05724,297.66193 243.50493,294.78912 240.09587,295.02908 238.55142,292.33502 " />
	<path
   id="더_1_"
   class="st0"
   d="m 204.61703,308.01822 10.00664,-2.12698 v 4.2186 l -11.56407,2.45804 c -3.49979,0.74387 -4.80107,-0.21982 -4.80103,-3.40363 v -11.02066 c -7.9e-4,-0.70602 -0.78906,-0.5972 -1.36494,-0.47482 l -0.38495,0.0819 v -2.49063 l 18.11499,-3.85046 v 4.44266 l -10.00664,2.12701 v 10.03902 z m 14.88845,-20.54059 v 3.16165 l 0.22653,-0.0482 c 0.57613,-0.12244 1.36504,-0.23151 1.36504,0.47574 v 6.03317 l -6.47337,1.37595 v 4.91837 l 6.47337,-1.37598 -3e-5,14.83682 5.60747,-1.19189 v -29.71582 z" />
	<polygon
   id="_x2605__3_"
   class="st0"
   points="184.08228,304.55014 180.68007,305.75793 183.16104,307.58316 182.60281,311.02365 185.63783,308.81018 188.69502,309.72873 188.08974,306.53555 190.53743,303.66275 187.12837,303.90268 185.58392,301.20865 " />
	<path
   id="중_1_"
   class="st0"
   d="m 155.73489,304.59903 c 0,-0.74524 -0.0627,-0.94547 -1.19049,-0.70575 l -6.89258,1.46506 v -4.06909 l 23.54889,-5.00546 v 4.06903 l -6.94611,1.47644 c -1.0921,0.23221 -1.19049,0.4939 -1.19049,1.21198 0,2.62457 8.1366,2.01294 8.1366,2.01294 l -1.9278,4.6387 c -5.24561,0.37231 -10.11316,-2.67966 -10.11316,-2.67966 0,0 -3.54132,4.56863 -9.04254,6.98224 l -2.46539,-3.80991 c 0,0 8.08307,-2.83255 8.08307,-5.58652 z m 6.61737,12.65979 v 1.73883 c 0.48016,0.0469 0.91565,0.12524 1.29199,0.22177 2.85736,0.73294 3.85535,2.74557 3.85535,4.76151 0,2.25818 -1.14441,4.21695 -3.42017,5.83533 -4.07269,2.89627 -10.52594,3.44794 -12.13568,-0.40131 -1.05029,-2.51163 -0.008,-6.18613 2.9494,-8.29367 0.59503,-0.42401 1.18884,-0.76849 1.77484,-1.0531 v -1.60114 l -11.01404,2.34113 6e-5,-4.2269 27.71216,-5.89029 v 4.22675 z m 0.0205,7.25635 c 0,-0.86456 -0.13977,-2.28372 -2.1283,-2.26822 -1.93732,0.0151 -3.71936,1.71625 -3.71936,4.0686 0,2.2699 1.4007,2.28821 2.08746,2.29721 2.02729,0.0264 3.7602,-1.97845 3.7602,-4.09759 z" />
	<polygon
   id="_x2605__2_"
   class="st0"
   points="132.11824,314.70114 128.71603,315.90891 131.19701,317.73413 130.63876,321.17462 133.67378,318.96115 136.73099,319.8797 136.1257,316.68652 138.57338,313.81372 135.16432,314.05368 133.61987,311.35965 " />
	<path
   id="고_1_"
   class="st0"
   d="m 115.92395,312.38226 -19.26141,4.09418 v -4.49481 l 24.66522,-5.24274 c 0,4.94604 0.0457,11.07147 -0.68927,16.40717 l -5.47192,1.16309 c 0.48059,-4.02747 0.75738,-8.62897 0.75738,-11.92689 z m -5.41693,16.20954 6e-5,-10.50513 -7.28479,1.54846 v 3.03827 l 0.56787,-0.12067 c 0.59027,-0.12549 1.03552,0.16022 1.03552,0.89233 l -6e-5,6.35431 -12.24591,2.60291 v 4.30896 l 31.83081,-6.76575 v -4.30896 z" />
	<path
   id="최_1_"
   class="st0"
   d="m 61.74902,327.92401 c 0,-0.88672 -0.06372,-1.15839 -1.28802,-0.89813 l -7.45782,1.58521 v -4.40936 l 9.81464,-2.08618 v -1.23315 c 0,-0.73212 -0.44525,-1.01782 -1.03552,-0.89233 l -0.56787,0.12067 v -3.03827 l 7.28479,-1.54846 -6e-5,5.38397 9.98389,-2.12213 v 4.40936 l -7.51581,1.59753 c -1.18152,0.2511 -1.28802,0.56805 -1.28802,1.44574 0,3.20776 8.80383,2.70288 8.80383,2.70288 l -1.82996,5.17108 c -5.67578,0.29858 -11.19836,-3.13562 -11.19836,-3.13562 0,0 -4.159,4.87921 -10.11127,7.6651 l -2.34027,-4.28467 c -2e-5,-1e-5 8.74583,-3.06727 8.74583,-6.43324 z m 16.3241,-15.03369 v 3.00348 l 0.56134,-0.11926 c 0.5835,-0.12408 1.02368,0.15839 1.02368,0.88214 l -6e-5,21.78174 -10.51935,2.23596 6e-5,-5.91522 -7.28479,1.54846 v 3.03827 l 0.56787,-0.12067 c 0.59027,-0.12549 1.03552,0.16022 1.03552,0.89233 l -6e-5,1.7644 -10.45416,2.22211 v 4.07617 l 26.65485,-5.66565 v 3.78259 l 5.61639,-1.19385 v -33.74371 z" />
	<path
   id="트_1_"
   class="st0"
   d="m 289.91721,213.51382 3e-5,4.92905 24.97672,-5.30891 v 7.01076 l -24.97675,5.30893 v 5.12895 l 24.97675,-5.30893 v 6.40654 l -30.59964,6.5041 c -2.52444,0.53658 -4.73804,-1.50771 -4.73804,-4.6571 l 3e-5,-18.64024 c 0,-1.26299 -0.19571,-1.62569 -2.29349,-1.17979 l -0.44858,0.0953 3e-5,-4.42349 38.07968,-8.09402 v 6.91989 z m -19.33295,34.29189 v 6.63387 l 51.21906,-10.88686 3e-5,-6.63388 z" />
	<path
   id="스_1_"
   class="st0"
   d="m 256.8978,235.55652 -3.5481,8.20099 c -9.65448,0.74414 -17.35408,-6.02698 -17.35408,-6.02698 0,0 -7.77678,9.58424 -17.9016,13.92723 l -4.53764,-6.66716 c 0,0 16.87685,-7.99492 16.87686,-16.34142 v -4.36049 c 0,-1.49071 -0.96284,-1.48384 -2.19099,-1.22279 l -1.09859,0.23352 v -4.16536 l 12.77882,-2.71622 v 9.35565 c -1e-5,9.0126 16.97532,9.78303 16.97532,9.78303 z m -47.01818,24.73028 v 6.74246 l 51.00365,-10.84109 v -6.74245 z" />
	<path
   id="path41"
   d="m 153.78679,255.27837 6.10203,-1.297 v 5.92803 l -6.10203,1.297 z m 19.01609,-22.7991 v 5.08103 l 0.95,-0.20101 c 0.98701,-0.21 1.73201,0.268 1.73201,1.49201 v 4.44802 l -6.88103,1.462 v -9.90304 l -11.39705,2.42301 v 5.08203 l 0.95,-0.202 c 0.98701,-0.21 1.73201,0.268 1.73201,1.492 v 2.96102 l -6.10203,1.297 v -9.90305 l -11.39705,2.42202 v 5.08202 l 0.94901,-0.202 c 0.988,-0.21 1.732,0.269 1.732,1.49201 v 7.5e-4 19.95408 c 0,2.06802 1.38401,3.19102 3.38002,2.76602 l 20.15309,-4.28302 v -13.11081 l 6.88103,-1.46201 v 29.07213 l 8.71603,-1.85301 v -47.83021 z m 25.07411,-7.45603 v 49.95622 l -9.50205,2.02101 v -43.01519 c 0,-1.22401 -0.744,-1.70201 -1.732,-1.49201 l -0.94901,0.202 v -5.08202 z"
   style="fill:#4087da;fill-opacity:1;fill-rule:nonzero;stroke:none;stroke-width:1"
   clip-path="none"
   inkscape:label="베_1_" />
	<polygon
   id="_x2605__1_"
   class="st0"
   points="124.39218,257.15607 118.94697,259.08911 122.91776,262.01038 122.02432,267.51688 126.88184,263.97421 131.77487,265.44434 130.80611,260.33368 134.72362,255.73576 129.26744,256.11981 126.79555,251.80801 " />
	<path
   id="더"
   class="st0"
   d="m 72.48376,276.90887 16.01556,-3.40421 v 6.75183 l -18.50822,3.93405 c -5.60137,1.19058 -7.68407,-0.35181 -7.68402,-5.44748 V 261.1046 c -0.0012,-1.12997 -1.26288,-0.95581 -2.18457,-0.75995 l -0.61612,0.13098 v -3.98621 l 28.99293,-6.16266 v 7.11041 l -16.01556,3.40427 z m 23.82885,-32.87504 v 5.0602 l 0.36256,-0.0771 c 0.92208,-0.19598 2.18474,-0.37054 2.18474,0.76141 v 9.65602 l -10.36059,2.20224 v 7.8718 l 10.36059,-2.20224 -6e-5,23.74625 8.9747,-1.90765 v -47.55997 z" />
	<path
   id="상_1_"
   class="st0"
   d="m 411.13696,122.6651 c -5.91476,-1.39833 -16.42883,-1.45079 -27.01456,5.86555 -9.13,6.31021 -12.34695,17.19643 -9.10461,24.58791 4.96912,11.32791 24.89017,9.51657 37.46249,0.84454 7.02533,-4.84586 10.55811,-10.66559 10.55811,-17.33774 0,-5.95629 -3.08084,-11.87496 -11.90143,-13.96026 z m -15.53286,27.89565 c -2.12006,-0.007 -6.44409,-0.0219 -6.44409,-6.72858 0,-6.95055 5.50131,-12.02679 11.48169,-12.12596 6.13855,-0.10185 6.57007,4.08742 6.57007,6.64182 -10e-6,6.26144 -5.34953,12.23389 -11.60767,12.21272 z m 41.07794,-65.69513 v 10.31866 l -11.62857,2.47173 v 19.3782 l -15.53287,3.30161 V 75.6865 c 0,-2.01066 -1.63626,-1.96323 -3.50067,-1.56693 l -1.87283,0.39808 v -5.95851 l 20.90637,-4.44379 v 23.22199 z m -57.19855,23.62004 c 0,0 -1.70575,14.69231 -20.31854,33.93879 l -9.52963,-7.82588 c 9.53723,-7.94844 20.52856,-25.93329 20.52856,-41.79807 v -0.44776 c 0,-1.90571 -1.46161,-1.87975 -3.28195,-1.49281 l -1.83981,0.39106 v -5.64744 l 20.42361,-4.34117 V 89.548 c 0,16.20252 8.86063,18.6615 20.63351,18.58401 l -5.85626,9.28623 c -17.88968,-1.32431 -20.75949,-8.93258 -20.75949,-8.93258 z" />
	<path
   id="세_1_"
   class="st0"
   d="m 297.10855,142.84045 -6.51468,9.04843 c -12.72705,-4.13416 -16.16452,-10.62563 -16.16452,-10.62563 0,0 -4.81964,9.29968 -14.92264,18.98087 l -8.42834,-7.1469 c 0,0 14.89084,-14.52547 14.89084,-28.85604 v -10.90804 c 0,-1.99483 -1.57895,-1.92388 -3.34494,-1.54852 l -1.7739,0.37705 v -6.30235 l 19.50333,-4.14556 -3e-5,20.06719 c 0,19.21427 16.75488,21.0595 16.75488,21.0595 z m -1.97482,-48.10572 v 5.79559 l 1.51056,-0.32108 c 1.50378,-0.31964 2.88062,-0.6123 2.88062,1.38254 v 16.88966 l -12.73807,2.70757 v 9.08617 l 12.73807,-2.70757 3e-5,50.05128 13.97198,-2.96983 V 90.83152 Z M 312.9248,75.91725 v 5.7956 l 1.51056,-0.32108 c 1.50375,-0.31963 2.84827,-0.54111 2.84827,1.45371 v 73.80773 l 15.18723,-3.22813 3e-5,-81.66248 z" />
	<path
   id="듬_1_"
   class="st0"
   d="m 232.48558,168.74388 -64.56836,13.72444 v 6.28441 l 0.80057,-0.17017 c 4.22571,-0.89819 4.3918,-0.20708 4.3918,1.86325 v 13.15181 c 0,4.23442 3.28207,6.96945 7.33075,6.10889 l 46.34355,-9.85063 c 4.04868,-0.86057 7.33075,-4.99084 7.33075,-9.22528 v -20.52917 c 0,-0.94098 -0.72937,-1.54877 -1.62906,-1.35755 z m -16.0453,24.60516 -27.24457,5.79102 V 187.2052 l 27.24457,-5.791 z m 17.67431,-38.58874 5e-5,9.15338 -80.8786,17.19128 v -9.1534 z m -48.09546,-12.80801 v 9.39377 l 48.0955,-10.22302 v 9.15334 l -55.73903,11.8477 c -4.4985,0.95618 -8.14526,-2.08275 -8.14528,-6.78764 l -3e-5,-10.90524 c 0,-1.88683 -0.16579,-2.45555 -4.38484,-1.55876 l -0.79932,0.16991 v -5.78543 l 69.0685,-14.68096 v 9.15333 z" />
	<path
   id="리_1_"
   class="st0"
   d="m 108.3624,114.04778 v 6.21528 l 1.78066,-0.37849 c 1.77267,-0.37679 3.39574,-0.72179 3.39574,1.59702 v 36.70767 c -2.6189,1.53941 -5.97282,2.83333 -10.10733,3.71214 l -24.49088,5.2057 v -11.23494 l 22.71074,-4.82732 c 1.13004,-0.24019 2.04612,-1.36874 2.04612,-2.52068 v -22.24401 c 0,-1.15194 -0.91608,-1.89105 -2.04612,-1.65086 l -42.59804,9.05449 v 9.60643 l 29.05349,-6.17551 v 7.55368 l -30.40385,6.46254 v 6.31961 l 0.71784,-0.15259 c 1.44965,-0.30814 3.59925,-0.76505 3.59921,1.38344 v 14.95424 c 0,3.68619 2.93145,6.05135 6.54759,5.28271 l 31.979,-6.79732 c 5.99881,-1.27509 10.35291,-2.81885 12.99223,-4.21259 v 35.19508 l 16.47048,-3.5009 v -90.15604 z" />
</g>
<path
   id="_x2122__00000057868710934149650670000013053363600395592096_"
   d="m 620.83519,251.75596 0.87716,-10.21208 -3.90747,0.83055 0.18852,-2.19444 10.33542,-2.19684 -0.18848,2.19444 -3.76664,0.80061 -0.87716,10.21208 z m 17.53784,-3.72775 0.89071,-10.36985 -3.26335,10.87416 -2.56978,0.54623 -1.42562,-9.87751 -0.89071,10.36983 -2.42896,0.51629 1.06624,-12.41369 3.79485,-0.80663 1.44242,9.36 0.0281,-0.006 3.07756,-10.32073 3.74556,-0.79615 -1.06624,12.41372 z"
   style="stroke-width:1.33333" />
<g
   id="Cogs_1_"
   transform="scale(1.3333334)">
	<g
   id="g47871">
		<path
   class="st5"
   d="m 456.08206,3.36581 c -2.09119,4e-5 -4.17969,0.14943 -6.2496,0.44706 -0.12457,0.0266 -0.24905,0.05373 -0.37341,0.08141 l -1.2912,5.06091 h 0.45364 c -5.08807,0.97721 -9.93115,2.95584 -14.24789,5.82093 l 0.15646,-0.15648 -4.52313,-2.53635 c -0.9198,0.6353 -1.815,1.30549 -2.68362,2.0091 -1.58066,1.36964 -3.06149,2.85044 -4.43112,4.43112 -0.76511,0.93821 -1.49109,1.90765 -2.17609,2.90586 l 2.60474,4.39165 0.30899,-0.30899 c -2.88284,4.33305 -4.87164,9.19804 -5.84985,14.30972 l -5.18454,1.45948 c -0.28033,1.98818 -0.42398,3.99324 -0.42996,6.00108 -3e-5,2.09161 0.14938,4.18055 0.44705,6.25087 0.0554,0.26701 0.11322,0.53351 0.17355,0.79945 l 5.10168,1.30302 V 55.1702 c 1.0148,4.95889 2.98276,9.67359 5.79462,13.88236 l -0.44971,-0.44968 -2.53113,4.51394 c 0.68927,1.00517 1.4201,1.9812 2.19058,2.92558 1.36963,1.58067 2.85043,3.06148 4.43109,4.43111 0.85834,0.69447 1.74255,1.35632 2.65079,1.98415 l 4.46002,-2.64684 -0.1893,-0.18931 c 4.43512,2.97681 9.43317,5.01333 14.68576,5.98395 h -1.13867 l 1.41083,5.01096 c 0.20963,0.04709 0.41956,0.09263 0.62982,0.13663 2.06992,0.29762 4.15842,0.44702 6.2496,0.44706 2.08896,-3.5e-4 4.17526,-0.14975 6.24298,-0.44706 l 1.31223,-5.14243 h -0.43256 c 5.33441,-0.98698 10.40506,-3.0732 14.88956,-6.12598 l 4.61255,2.58636 c 0.72778,-0.51078 1.43991,-1.04355 2.13535,-1.59757 1.58069,-1.36964 3.06149,-2.85045 4.43112,-4.43111 0.89005,-1.0779 1.72815,-2.19769 2.51138,-3.35554 l -2.67706,-4.51261 -0.042,0.04198 c 2.5928,-4.12923 4.39044,-8.70696 5.30023,-13.4971 l 5.22656,-1.47004 c 0.2713,-1.97738 0.4075,-3.97095 0.40762,-5.96685 -3.7e-4,-0.71825 -0.0183,-1.43639 -0.0539,-2.15375 -0.035,-0.71779 -0.0876,-1.4346 -0.15778,-2.14981 -0.0706,-0.71516 -0.15869,-1.42847 -0.26428,-2.13931 -0.0349,-0.20932 -0.0713,-0.41839 -0.10916,-0.62718 l -5.13718,-1.31226 v 0.04605 c -1.03116,-4.75599 -2.94107,-9.27768 -5.63159,-13.33276 l 0.0101,0.01015 2.59818,-4.63361 c -0.39615,-0.53162 -0.80432,-1.0542 -1.22412,-1.56734 -0.45596,-0.55581 -0.92551,-1.10032 -1.4082,-1.63307 -0.48242,-0.53233 -0.97784,-1.05273 -1.48581,-1.56075 -0.508,-0.5084 -1.02841,-1.00426 -1.56076,-1.48712 -0.53275,-0.48225 -1.07727,-0.95136 -1.63309,-1.40689 -0.5553,-0.45607 -1.12173,-0.89844 -1.69876,-1.32672 -0.11099,-0.07897 -0.22232,-0.15743 -0.33398,-0.23536 l -4.45477,2.64158 0.27481,0.27479 c -4.17139,-2.7721 -8.83649,-4.71697 -13.7417,-5.72888 h 0.0254 l -1.43845,-5.11089 c -0.0162,-0.0024 -0.0324,-0.00479 -0.0486,-0.00718 -0.71082,-0.10559 -1.42413,-0.19371 -2.13928,-0.26429 -0.71521,-0.07059 -1.43201,-0.12361 -2.14981,-0.15902 -0.7178,-0.0352 -1.4364,-0.05276 -2.15503,-0.05269 z"
   id="path47863" />
		<circle
   class="st6"
   cx="456.0827"
   cy="47.283051"
   r="31.05414"
   id="circle47865" />
		<path
   class="st7"
   d="m 456.08286,74.53582 c -15.02719,0 -27.25281,-12.22564 -27.25281,-27.25283 0,-15.02719 12.22562,-27.25282 27.25281,-27.25282 15.02719,0 27.25284,12.22564 27.25284,27.25282 0,15.02718 -12.22565,27.25283 -27.25284,27.25283 z m 0,-51.57087 c -13.40903,0 -24.31802,10.90902 -24.31802,24.31804 0,13.40902 10.909,24.31804 24.31802,24.31804 13.40902,0 24.31805,-10.90902 24.31805,-24.31804 0,-13.40902 -10.90903,-24.31804 -24.31805,-24.31804 z"
   id="path47867" />
		<circle
   class="st5"
   cx="456.0827"
   cy="47.283051"
   r="9.1579704"
   id="circle47869" />
	</g>
	<g
   id="g47881">
		<path
   class="st5"
   d="m 384.08255,0 c -1.53308,3e-5 -3.06424,0.10955 -4.58173,0.32775 -0.0913,0.0195 -0.18262,0.03939 -0.27377,0.05969 l -0.94662,3.7103 h 0.33258 c -3.73019,0.71642 -7.28082,2.16701 -10.44553,4.26749 l 0.11472,-0.11472 -3.31607,-1.85947 c -0.67429,0.46576 -1.3306,0.95709 -1.96741,1.47293 -1.15884,1.00412 -2.24448,2.08974 -3.2486,3.24858 -0.56091,0.68783 -1.09317,1.39855 -1.59534,2.13037 l 1.90961,3.21964 0.22653,-0.22653 c -2.11349,3.17668 -3.57156,6.74334 -4.2887,10.49086 l -3.80093,1.06999 c -0.20554,1.45759 -0.31085,2.92756 -0.31522,4.39956 -3e-5,1.53342 0.1095,3.06488 0.32776,4.58269 0.0406,0.19576 0.083,0.39114 0.1272,0.5861 l 3.7402,0.95529 v -0.34124 c 0.74399,3.63551 2.18674,7.09198 4.2482,10.17755 l -0.32968,-0.32967 -1.85565,3.30929 c 0.50531,0.73692 1.04114,1.45248 1.60596,2.14482 1.00412,1.15883 2.08975,2.24445 3.2486,3.24857 0.62924,0.50914 1.2775,0.99436 1.94333,1.45463 L 368.21177,56.044 368.073,55.9052 c 3.2515,2.18238 6.91571,3.67542 10.76654,4.387 h -0.83478 l 1.0343,3.67368 c 0.15369,0.03452 0.30759,0.06791 0.46176,0.10017 1.51749,0.21819 3.04865,0.32773 4.58173,0.32775 1.53149,-2.6e-4 3.061,-0.10978 4.5769,-0.32775 l 0.96204,-3.77006 h -0.31711 c 3.9108,-0.72359 7.62823,-2.25305 10.91595,-4.49113 l 3.38159,1.89613 c 0.53354,-0.37447 1.05563,-0.76506 1.56549,-1.17123 1.15881,-1.00412 2.24445,-2.08974 3.24857,-3.24858 0.65253,-0.79024 1.26694,-1.61119 1.84116,-2.46004 l -1.96262,-3.30833 -0.0308,0.03078 c 1.90088,-3.02725 3.21878,-6.38332 3.88574,-9.89511 l 3.83176,-1.07773 c 0.19891,-1.44967 0.29877,-2.91122 0.29883,-4.37447 -2.4e-4,-0.52657 -0.0135,-1.05305 -0.0396,-1.57897 -0.0256,-0.52623 -0.0642,-1.05175 -0.11563,-1.57609 -0.0518,-0.5243 -0.11636,-1.04725 -0.19376,-1.56838 -0.0256,-0.15346 -0.0522,-0.30673 -0.08,-0.4598 l -3.7662,-0.96206 v 0.03376 c -0.75598,-3.48675 -2.15619,-6.80173 -4.12866,-9.77462 l 0.007,0.0074 1.90479,-3.39703 c -0.29041,-0.38974 -0.58966,-0.77286 -0.89743,-1.14906 -0.33429,-0.40748 -0.67853,-0.80668 -1.03241,-1.19725 -0.35367,-0.39027 -0.71689,-0.77179 -1.08926,-1.14423 C 406.47645,9.05723 406.09492,8.6937 405.70466,8.3397 405.31407,7.98614 404.91487,7.64223 404.50739,7.30827 404.10025,6.97391 403.685,6.6496 403.26197,6.33562 403.18057,6.27772 403.09898,6.2202 403.0171,6.16307 l -3.2659,1.93662 0.20148,0.20146 c -3.05817,-2.0323 -6.4783,-3.45814 -10.07443,-4.2 h 0.0186 L 388.8427,0.35425 C 388.8308,0.35249 388.819,0.35074 388.8071,0.34899 388.28597,0.27158 387.76302,0.20698 387.2387,0.15523 386.71438,0.10348 386.18886,0.06461 385.66262,0.03865 385.13637,0.01284 384.60958,-3e-5 384.08269,2e-5 Z"
   id="path47873" />
		<circle
   class="st6"
   cx="384.08304"
   cy="32.19696"
   r="22.766661"
   id="circle47875" />
		<path
   class="st7"
   d="m 384.08334,52.17649 c -11.01685,0 -19.97986,-8.96258 -19.97986,-19.97942 0,-11.01684 8.96301,-19.97985 19.97986,-19.97985 11.01682,0 19.97897,8.96301 19.97897,19.97985 0,11.01684 -8.96215,19.97942 -19.97897,19.97942 z m 0,-37.80814 c -9.83084,0 -17.82874,7.9979 -17.82874,17.82873 0,9.83039 7.99789,17.82829 17.82874,17.82829 9.82993,0 17.82785,-7.99791 17.82785,-17.82829 0,-9.83083 -7.99792,-17.82873 -17.82785,-17.82873 z"
   id="path47877" />
		<circle
   class="st5"
   cx="384.08304"
   cy="32.19696"
   r="6.7139602"
   id="circle47879" />
	</g>
</g>
<g
   id="Pilers_1_"
   transform="matrix(6.2156614,0,0,-6.2156614,-757.50936,1106.005)">
	<path
   class="st4"
   d="m 169.78708,161.81813 c -2.04869,-1.37535 -4.50641,-4.84512 -4.40616,-6.02411 0.72977,-0.063 2.46326,0.67393 4.01189,1.73065 0.96246,0.65674 1.85352,1.43704 2.38792,2.22559 z m 0.13545,-1.18376 0.74541,-0.70088 -0.97966,-0.29456 z m -1.72046,-1.82993 c 0.2476,1.2e-4 0.44843,-0.20494 0.44855,-0.45802 0,-9e-5 0,-1.7e-4 0,-2.6e-4 3e-5,-0.25308 -0.20068,-0.45825 -0.44829,-0.45828 -9e-5,0 -1.7e-4,0 -2.6e-4,0 -0.24754,1.4e-4 -0.44812,0.20528 -0.44809,0.45828 -3e-5,0.25301 0.20055,0.45815 0.44809,0.45828 z"
   id="path47884" />
	<path
   class="st8"
   d="m 177.69768,171.43758 c -5.62657,-1.30733 -8.69127,-10.00723 -8.69127,-10.00723 l 0.93607,-1.5034 c 0.0221,-0.0102 1.50993,-0.91141 1.50993,-0.91141 0,0 8.66611,3.15935 9.91214,8.79982 0,0 0.0292,0.89165 -0.54364,0.96065 -0.69553,0.0838 -0.98291,-0.27554 -0.98291,-0.27554 -2.98706,-6.21135 -6.49881,-6.23239 -8.52968,-7.34068 1.08484,2.04381 0.91583,5.70576 7.09125,8.7587 0,0 0.35622,0.29111 0.26488,0.98569 -0.0752,0.57214 -0.96667,0.53343 -0.96667,0.53343 z"
   id="path47886" />
</g>
<path
   id="Wrench_1_"
   class="st9"
   d="m 129.03053,60.96263 c -13.71856,9.46e-4 -24.83942,11.121774 -24.84038,24.840334 0.007,3.663854 0.82343,7.280867 2.39211,10.591894 L 20.874348,193.19748 c -0.655574,-0.0821 -1.314987,-0.12976 -1.975547,-0.1428 C 8.4612938,193.05464 2.6666688e-5,201.51588 0,211.95338 v 4e-5 c -1.3333314e-5,10.4375 8.4612271,18.89879 18.898721,18.89879 2.7e-5,0 5.3e-5,0 6.7e-5,0 10.437493,0 18.898761,-8.46127 18.898774,-18.89875 v -4e-5 c -0.01523,-1.42149 -0.190787,-2.83673 -0.52336,-4.21886 l 86.517218,-97.71303 c 1.71933,0.39369 3.47569,0.60312 5.23939,0.62481 13.71989,6.7e-4 24.84262,-11.120975 24.84329,-24.840856 0,-8.4e-4 0,-0.0017 0,-0.0025 -0.003,-5.13244 -1.595,-10.13804 -4.55807,-14.328774 l -1.2615,12.549574 -13.02267,5.867187 -11.59453,-8.342587 1.42813,-14.212734 11.60645,-5.22752 c -2.40777,-0.757654 -4.91694,-1.143907 -7.4411,-1.145467 z M 18.898788,205.73814 c 3.432333,6.6e-4 6.214627,2.78296 6.215267,6.21527 0.001,3.43327 -2.781374,6.21728 -6.214627,6.21827 -2.14e-4,0 -4.27e-4,0 -6.4e-4,0 -3.433254,-6.2e-4 -6.215934,-2.78435 -6.215294,-6.21762 0,-2.2e-4 0,-4.2e-4 0,-6.5e-4 6.53e-4,-3.43235 2.78296,-6.21465 6.215294,-6.21527 z"
   style="stroke-width:1.33333" />
</svg>
