<?xml version="1.0" encoding="UTF-8" standalone="no"?>
<!-- Created with Inkscape (http://www.inkscape.org/) -->

<svg
   version="1.1"
   id="svg1"
   width="666.66669"
   height="499.49332"
   viewBox="0 0 666.66669 499.49332"
   sodipodi:docname="Rhythm World The Best Plus More Of The Best (리듬 세상 더・베스트 플러스 최고・중・더・베스트) Logo (Flat).ai"
   xmlns:inkscape="http://www.inkscape.org/namespaces/inkscape"
   xmlns:sodipodi="http://sodipodi.sourceforge.net/DTD/sodipodi-0.dtd"
   xmlns="http://www.w3.org/2000/svg"
   xmlns:svg="http://www.w3.org/2000/svg">
  <defs
     id="defs1">
    <clipPath
       clipPathUnits="userSpaceOnUse"
       id="clipPath2">
      <path
         d="M 0,374.62 H 500 V 0 H 0 Z"
         transform="translate(-400.98831,-179.6924)"
         id="path2" />
    </clipPath>
    <clipPath
       clipPathUnits="userSpaceOnUse"
       id="clipPath4">
      <path
         d="M 0,374.62 H 500 V 0 H 0 Z"
         transform="translate(-400.98831,-336.07031)"
         id="path4" />
    </clipPath>
    <clipPath
       clipPathUnits="userSpaceOnUse"
       id="clipPath6">
      <path
         d="M 0,374.62 H 500 V 0 H 0 Z"
         transform="translate(-400.98831,-330.33351)"
         id="path6" />
    </clipPath>
    <clipPath
       clipPathUnits="userSpaceOnUse"
       id="clipPath8">
      <path
         d="M 0,374.62 H 500 V 0 H 0 Z"
         transform="translate(-427.12991,-174.44041)"
         id="path8" />
    </clipPath>
    <clipPath
       clipPathUnits="userSpaceOnUse"
       id="clipPath10">
      <path
         d="M 0,374.62 H 500 V 0 H 0 Z"
         transform="translate(-416.58601,-162.5234)"
         id="path10" />
    </clipPath>
    <clipPath
       clipPathUnits="userSpaceOnUse"
       id="clipPath12">
      <path
         d="M 0,374.62 H 500 V 0 H 0 Z"
         transform="translate(-381.73931,-113.6338)"
         id="path12" />
    </clipPath>
    <clipPath
       clipPathUnits="userSpaceOnUse"
       id="clipPath14">
      <path
         d="M 0,374.62 H 500 V 0 H 0 Z"
         transform="translate(-403.28721,-159.5449)"
         id="path14" />
    </clipPath>
    <clipPath
       clipPathUnits="userSpaceOnUse"
       id="clipPath16">
      <path
         d="M 0,374.62 H 500 V 0 H 0 Z"
         transform="translate(-395.65141,-182.5483)"
         id="path16" />
    </clipPath>
    <clipPath
       clipPathUnits="userSpaceOnUse"
       id="clipPath18">
      <path
         d="M 0,374.62 H 500 V 0 H 0 Z"
         transform="translate(-328.39171,-84.785105)"
         id="path18" />
    </clipPath>
    <clipPath
       clipPathUnits="userSpaceOnUse"
       id="clipPath20">
      <path
         d="M 0,374.62 H 500 V 0 H 0 Z"
         transform="translate(-290.46301,-76.987302)"
         id="path20" />
    </clipPath>
    <clipPath
       clipPathUnits="userSpaceOnUse"
       id="clipPath22">
      <path
         d="M 0,374.62 H 500 V 0 H 0 Z"
         transform="translate(-255.41611,-80.116205)"
         id="path22" />
    </clipPath>
    <clipPath
       clipPathUnits="userSpaceOnUse"
       id="clipPath24">
      <path
         d="M 0,374.62 H 500 V 0 H 0 Z"
         transform="translate(-243.56451,-79.898404)"
         id="path24" />
    </clipPath>
    <clipPath
       clipPathUnits="userSpaceOnUse"
       id="clipPath26">
      <path
         d="M 0,374.62 H 500 V 0 H 0 Z"
         transform="translate(-219.1636,-87.069305)"
         id="path26" />
    </clipPath>
    <clipPath
       clipPathUnits="userSpaceOnUse"
       id="clipPath28">
      <path
         d="M 0,374.62 H 500 V 0 H 0 Z"
         transform="translate(-190.5933,-71.028304)"
         id="path28" />
    </clipPath>
    <clipPath
       clipPathUnits="userSpaceOnUse"
       id="clipPath30">
      <path
         d="M 0,374.62 H 500 V 0 H 0 Z"
         transform="translate(-162.3726,-50.104504)"
         id="path30" />
    </clipPath>
    <clipPath
       clipPathUnits="userSpaceOnUse"
       id="clipPath32">
      <path
         d="M 0,374.62 H 500 V 0 H 0 Z"
         transform="translate(-138.62901,-60.877902)"
         id="path32" />
    </clipPath>
    <clipPath
       clipPathUnits="userSpaceOnUse"
       id="clipPath34">
      <path
         d="M 0,374.62 H 500 V 0 H 0 Z"
         transform="translate(-110.5069,-46.028299)"
         id="path34" />
    </clipPath>
    <clipPath
       clipPathUnits="userSpaceOnUse"
       id="clipPath36">
      <path
         d="M 0,374.62 H 500 V 0 H 0 Z"
         transform="translate(-78.073299,-61.729504)"
         id="path36" />
    </clipPath>
    <clipPath
       clipPathUnits="userSpaceOnUse"
       id="clipPath38">
      <path
         d="M 0,374.62 H 500 V 0 H 0 Z"
         transform="translate(-270.58401,-126.8144)"
         id="path38" />
    </clipPath>
    <clipPath
       clipPathUnits="userSpaceOnUse"
       id="clipPath40">
      <path
         d="M 0,374.62 H 500 V 0 H 0 Z"
         transform="translate(-209.87991,-114.33301)"
         id="path40" />
    </clipPath>
    <clipPath
       clipPathUnits="userSpaceOnUse"
       id="clipPath42">
      <path
         d="M 0,374.62 H 500 V 0 H 0 Z"
         transform="translate(-153.7867,-119.34181)"
         id="path42" />
    </clipPath>
    <clipPath
       clipPathUnits="userSpaceOnUse"
       id="clipPath44">
      <path
         d="M 0,374.62 H 500 V 0 H 0 Z"
         transform="translate(-134.81841,-118.9922)"
         id="path44" />
    </clipPath>
    <clipPath
       clipPathUnits="userSpaceOnUse"
       id="clipPath46">
      <path
         d="M 0,374.62 H 500 V 0 H 0 Z"
         transform="translate(-95.765702,-130.46971)"
         id="path46" />
    </clipPath>
    <clipPath
       clipPathUnits="userSpaceOnUse"
       id="clipPath48">
      <path
         d="M 0,374.62 H 500 V 0 H 0 Z"
         transform="translate(-379.48351,-266.13421)"
         id="path48" />
    </clipPath>
    <clipPath
       clipPathUnits="userSpaceOnUse"
       id="clipPath50">
      <path
         d="M 0,374.62 H 500 V 0 H 0 Z"
         transform="translate(-312.92491,-298.70261)"
         id="path50" />
    </clipPath>
    <clipPath
       clipPathUnits="userSpaceOnUse"
       id="clipPath52">
      <path
         d="M 0,374.62 H 500 V 0 H 0 Z"
         transform="translate(-186.01911,-232.66801)"
         id="path52" />
    </clipPath>
    <clipPath
       clipPathUnits="userSpaceOnUse"
       id="clipPath54">
      <path
         d="M 0,374.62 H 500 V 0 H 0 Z"
         transform="translate(-108.3624,-260.57221)"
         id="path54" />
    </clipPath>
    <clipPath
       clipPathUnits="userSpaceOnUse"
       id="clipPath56">
      <path
         d="M 0,374.62 H 500 V 0 H 0 Z"
         transform="translate(-478.77941,-188.5991)"
         id="path56" />
    </clipPath>
    <clipPath
       clipPathUnits="userSpaceOnUse"
       id="clipPath58">
      <path
         d="M 0,374.62 H 500 V 0 H 0 Z"
         transform="translate(-456.08211,-371.25441)"
         id="path58" />
    </clipPath>
    <clipPath
       clipPathUnits="userSpaceOnUse"
       id="clipPath60">
      <path
         d="M 0,374.62 H 500 V 0 H 0 Z"
         transform="translate(-456.08311,-358.39111)"
         id="path60" />
    </clipPath>
    <clipPath
       clipPathUnits="userSpaceOnUse"
       id="clipPath62">
      <path
         d="M 0,374.62 H 500 V 0 H 0 Z"
         transform="translate(-456.08311,-351.65521)"
         id="path62" />
    </clipPath>
    <clipPath
       clipPathUnits="userSpaceOnUse"
       id="clipPath64">
      <path
         d="M 0,374.62 H 500 V 0 H 0 Z"
         transform="translate(-456.08311,-336.49511)"
         id="path64" />
    </clipPath>
    <clipPath
       clipPathUnits="userSpaceOnUse"
       id="clipPath66">
      <path
         d="M 0,374.62 H 500 V 0 H 0 Z"
         transform="translate(-384.08211,-374.62011)"
         id="path66" />
    </clipPath>
    <clipPath
       clipPathUnits="userSpaceOnUse"
       id="clipPath68">
      <path
         d="M 0,374.62 H 500 V 0 H 0 Z"
         transform="translate(-384.08311,-365.18991)"
         id="path68" />
    </clipPath>
    <clipPath
       clipPathUnits="userSpaceOnUse"
       id="clipPath70">
      <path
         d="M 0,374.62 H 500 V 0 H 0 Z"
         transform="translate(-384.08311,-360.25191)"
         id="path70" />
    </clipPath>
    <clipPath
       clipPathUnits="userSpaceOnUse"
       id="clipPath72">
      <path
         d="M 0,374.62 H 500 V 0 H 0 Z"
         transform="translate(-384.08311,-349.13721)"
         id="path72" />
    </clipPath>
    <clipPath
       clipPathUnits="userSpaceOnUse"
       id="clipPath74">
      <path
         d="M 0,374.62 H 500 V 0 H 0 Z"
         transform="translate(-215.98341,-285.4223)"
         id="path74" />
    </clipPath>
    <clipPath
       clipPathUnits="userSpaceOnUse"
       id="clipPath76">
      <path
         d="M 0,374.62 H 500 V 0 H 0 Z"
         transform="translate(-260.24911,-344.31491)"
         id="path76" />
    </clipPath>
    <clipPath
       clipPathUnits="userSpaceOnUse"
       id="clipPath78">
      <path
         d="M 0,374.62 H 500 V 0 H 0 Z"
         transform="translate(-14.1739,-220.31641)"
         id="path78" />
    </clipPath>
  </defs>
  <sodipodi:namedview
     id="namedview1"
     pagecolor="#ffffff"
     bordercolor="#000000"
     borderopacity="0.25"
     inkscape:showpageshadow="2"
     inkscape:pageopacity="0.0"
     inkscape:pagecheckerboard="0"
     inkscape:deskcolor="#d1d1d1">
    <inkscape:page
       x="0"
       y="0"
       inkscape:label="1"
       id="page1"
       width="666.66669"
       height="499.49332"
       margin="0"
       bleed="0" />
  </sodipodi:namedview>
  <g
     id="layer-MC0"
     inkscape:groupmode="layer"
     inkscape:label="Layer 1">
    <path
       id="path1"
       d="m 0,0 c 45.388,0 82.313,36.925 82.313,82.312 0,45.388 -36.925,82.313 -82.313,82.313 -18.975,0 -37.248,-6.572 -51.806,-18.358 -13.729,9.625 -30.056,14.815 -47.132,14.815 -36.069,0 -67.014,-23.091 -78.028,-55.973 -7.184,2.001 -14.648,3.033 -22.142,3.033 -15.267,0 -30.086,-4.22 -42.923,-12.073 -15.42,16.485 -36.991,25.998 -60.053,25.998 -45.388,0 -82.313,-36.925 -82.313,-82.312 0,-26.677 12.853,-50.868 33.144,-66.021 -13.403,-10.765 -22.011,-27.278 -22.011,-45.694 0,-12.711 3.993,-24.692 11.183,-34.529 -8.698,-7.714 -14.117,-18.965 -14.117,-31.339 0,-11.182 4.354,-21.695 12.261,-29.603 7.908,-7.906 18.421,-12.261 29.603,-12.261 11.728,0 22.723,4.939 30.513,13.219 3.206,-0.776 6.51,-1.173 9.851,-1.173 h 0.004 c 9.254,0 18.209,3.088 25.464,8.642 2.41,-0.039 4.802,0.136 7.164,0.511 5.454,-2.513 11.398,-3.821 17.486,-3.821 11.131,0 21.626,4.389 29.379,12.038 5.21,0.146 10.3,1.255 15.049,3.257 3.795,-1.103 7.749,-1.674 11.704,-1.674 8.527,0 16.7,2.553 23.612,7.292 5.94,-0.201 11.804,0.863 17.218,3.077 4.521,-1.624 9.312,-2.466 14.17,-2.466 9.023,0 17.61,2.853 24.693,8.046 3.806,-1.116 7.772,-1.691 11.785,-1.691 10.504,0 20.533,4.005 28.146,10.905 3.475,-0.92 7.073,-1.391 10.711,-1.391 23.084,0 41.864,18.779 41.864,41.863 0,1.773 -0.11,3.53 -0.328,5.267 12.831,11.612 20.253,28.085 20.253,45.745 0,9.841 -2.324,19.442 -6.766,28.113 0.277,1.309 0.509,2.626 0.695,3.95 C -1.111,0.006 -0.556,0 0,0"
       style="fill:#000000;fill-opacity:1;fill-rule:nonzero;stroke:none"
       transform="matrix(1.3333333,0,0,-1.3333333,534.65107,259.90347)"
       clip-path="url(#clipPath2)" />
    <path
       id="path3"
       d="m 0,0 c -19.239,0 -37.68,-7.51 -51.437,-20.782 -13.307,11.157 -29.964,17.239 -47.501,17.239 -35.3,0 -65.148,-24.579 -72.395,-58.336 -8.782,3.545 -18.249,5.396 -27.775,5.396 -16.097,0 -31.64,-5.213 -44.41,-14.791 -13.991,18.091 -35.446,28.716 -58.566,28.716 -40.84,0 -74.066,-33.225 -74.066,-74.065 0,-28.375 16.153,-53.621 40.423,-66.005 -17.264,-8.011 -29.29,-25.529 -29.29,-45.71 0,-13.85 5.518,-26.692 15.158,-36.049 -10.827,-5.643 -18.092,-16.978 -18.092,-29.819 0,-8.98 3.496,-17.421 9.846,-23.771 6.35,-6.349 14.792,-9.846 23.771,-9.846 11.143,0 21.463,5.552 27.67,14.535 4.009,-1.639 8.312,-2.489 12.695,-2.489 h 0.003 c 8.411,0 16.516,3.178 22.682,8.81 3.747,-0.384 7.511,-0.129 11.14,0.731 4.971,-2.761 10.551,-4.209 16.292,-4.209 10.061,0 19.475,4.466 25.831,12.105 6.367,-0.46 12.563,0.894 18.072,3.816 3.887,-1.528 7.988,-2.3 12.229,-2.3 7.769,0 15.172,2.64 21.145,7.489 1.278,-0.146 2.566,-0.221 3.854,-0.221 5.492,0 10.833,1.325 15.636,3.854 4.47,-2.113 9.373,-3.219 14.365,-3.219 8.676,0 16.851,3.288 23.052,9.151 4.216,-1.837 8.781,-2.795 13.426,-2.795 10.023,0 19.511,4.544 25.843,12.132 4.099,-1.723 8.517,-2.62 13.014,-2.62 18.536,0 33.617,15.081 33.617,33.617 0,2.894 -0.364,5.738 -1.085,8.497 13.234,10.109 21.01,25.692 21.01,42.515 0,9.522 -2.51,18.782 -7.283,26.953 1.186,4.33 1.785,8.787 1.785,13.285 0,0.214 -0.002,0.428 -0.005,0.643 3.095,-0.391 6.219,-0.588 9.346,-0.588 40.84,0 74.066,33.226 74.066,74.066 C 74.066,-33.226 40.84,0 0,0"
       style="fill:#4087da;fill-opacity:1;fill-rule:nonzero;stroke:none"
       transform="matrix(1.3333333,0,0,-1.3333333,534.65107,51.3996)"
       clip-path="url(#clipPath4)" />
    <path
       id="path5"
       d="m 0,0 c -20.36,0 -38.637,-8.909 -51.154,-23.037 -12.322,12.058 -29.183,19.494 -47.784,19.494 -35.264,0 -64.286,-26.714 -67.938,-61.009 -9.603,5.147 -20.576,8.069 -32.232,8.069 -17.493,0 -33.448,-6.577 -45.535,-17.389 -12.166,18.841 -33.346,31.314 -57.441,31.314 -37.737,0 -68.329,-30.591 -68.329,-68.328 0,-33.316 23.846,-61.057 55.399,-67.102 -24.479,-0.192 -44.266,-20.088 -44.266,-44.613 0,-16.2 8.634,-30.383 21.551,-38.201 -13.795,-1.676 -24.485,-13.419 -24.485,-27.667 0,-15.398 12.482,-27.88 27.88,-27.88 11.305,0 21.031,6.732 25.407,16.403 4.323,-2.755 9.452,-4.357 14.958,-4.357 8.196,0 15.565,3.536 20.666,9.167 1.751,-0.345 3.559,-0.53 5.411,-0.53 3.003,0 5.893,0.481 8.603,1.359 4.42,-2.945 9.727,-4.664 15.437,-4.664 9.699,0 18.238,4.954 23.232,12.469 1.609,-0.29 3.262,-0.448 4.953,-0.448 5.673,0 10.948,1.699 15.351,4.61 3.784,-1.921 8.062,-3.01 12.596,-3.01 7.528,0 14.354,2.988 19.37,7.838 1.819,-0.373 3.701,-0.569 5.629,-0.569 5.735,0 11.064,1.733 15.495,4.702 4.226,-2.58 9.192,-4.068 14.506,-4.068 8.835,0 16.704,4.114 21.813,10.526 4.261,-2.641 9.283,-4.17 14.665,-4.17 10.25,0 19.202,5.535 24.046,13.775 4.292,-2.697 9.367,-4.263 14.811,-4.263 15.398,0 27.88,12.483 27.88,27.88 0,3.805 -0.765,7.43 -2.144,10.735 13.267,8.495 22.069,23.353 22.069,40.277 0,9.649 -2.868,18.625 -7.785,26.138 1.475,4.433 2.287,9.17 2.287,14.1 0,2.598 -0.235,5.14 -0.661,7.617 5.053,-1.191 10.322,-1.825 15.739,-1.825 37.737,0 68.329,30.592 68.329,68.328 C 68.329,-30.592 37.737,0 0,0"
       style="fill:#000000;fill-opacity:1;fill-rule:nonzero;stroke:none"
       transform="matrix(1.3333333,0,0,-1.3333333,534.65107,59.048667)"
       clip-path="url(#clipPath6)" />
    <path
       id="path7"
       d="M 0,0 3.482,39.799 -52.78,27.84 l -3.483,-39.798 -39.608,-8.419 -3.263,-37.296 39.609,8.419 -3.483,-39.799 56.263,11.96 3.482,39.798 39.609,8.419 3.262,37.295 z"
       style="fill:#000000;fill-opacity:1;fill-rule:nonzero;stroke:none"
       transform="matrix(1.3333333,0,0,-1.3333333,569.50653,266.90613)"
       clip-path="url(#clipPath8)" />
    <path
       id="path9"
       d="m 0,0 3.482,39.798 -36.9,-7.843 -3.482,-39.799 -39.609,-8.419 -1.537,-17.576 39.608,8.419 -3.482,-39.798 36.9,7.844 3.483,39.798 39.608,8.419 1.537,17.576 z"
       style="fill:#828282;fill-opacity:1;fill-rule:nonzero;stroke:none"
       transform="matrix(1.3333333,0,0,-1.3333333,555.448,282.79547)"
       clip-path="url(#clipPath10)" />
    <path
       id="path11"
       d="m 0,0 -0.281,-3.274 24.175,5.138 0.281,3.275 z M 23.062,12.004 21.079,7.668 c -4.306,-0.449 -8.228,2.373 -8.228,2.373 0,0 -4.417,-4.407 -8.622,-6.331 L 2.116,7.06 c 0,0 8.17,4.024 8.518,8.078 l 0.151,1.258 c 0.062,0.724 -0.387,0.723 -0.969,0.599 l -0.585,-0.124 0.198,2.287 6.428,1.366 -0.405,-4.226 c -0.376,-4.378 7.61,-4.294 7.61,-4.294"
       style="fill:#d8d8d8;fill-opacity:1;fill-rule:nonzero;stroke:none"
       transform="matrix(1.3333333,0,0,-1.3333333,508.98573,347.9816)"
       clip-path="url(#clipPath12)" />
    <path
       id="path13"
       d="m 0,0 -0.214,-2.491 0.443,0.095 c 0.441,0.093 0.845,0.179 0.793,-0.424 l -0.397,-4.632 -3.052,-0.65 -0.347,-4.044 3.051,0.648 -1.167,-13.59 4.785,1.017 2.178,25.362 z m -6.224,-17.349 c 1.325,0.283 2.706,0.815 3.574,1.325 l -0.284,-3.296 c -0.869,-0.461 -2.571,-1.061 -4.492,-1.469 l -8.868,-1.885 c -1.158,-0.246 -2.01,0.564 -1.902,1.809 l 0.433,5.051 c 0.063,0.725 -0.626,0.579 -1.091,0.48 l -0.229,-0.049 0.184,2.135 10.42,2.215 0.219,2.551 -9.988,-2.123 0.276,3.212 14.325,3.024 c 0.361,0.076 0.626,-0.177 0.592,-0.566 l -0.64,-7.459 c -0.034,-0.389 -0.354,-0.767 -0.716,-0.843 l -7.272,-1.546 -0.326,-3.795 z"
       style="fill:#d8d8d8;fill-opacity:1;fill-rule:nonzero;stroke:none"
       transform="matrix(1.3333333,0,0,-1.3333333,537.71627,286.7668)"
       clip-path="url(#clipPath14)" />
    <path
       id="path15"
       d="m 0,0 7.681,1.633 -0.158,-1.83 -7.68,-1.633 z m 11.311,-0.356 0.326,3.794 2.61,0.555 0.194,2.258 -20.644,-4.387 -0.194,-2.26 2.61,0.555 -0.325,-3.793 -3.223,-0.685 -0.194,-2.26 21.869,4.649 0.193,2.259 z m 5.594,-2.343 -27.23,-5.788 -0.232,-2.699 27.23,5.788 z m -3.733,-12.818 -0.234,-2.731 -17.957,-3.816 c -1.988,-0.423 -2.671,-0.021 -2.57,1.16 l 0.142,1.645 c 0.044,0.512 -0.012,0.633 -0.614,0.505 l -0.524,-0.112 0.212,2.466 16.628,3.534 0.129,1.507 -16.1,-3.422 0.253,2.939 20.069,4.251 c 0.47,0.099 0.826,-0.096 0.775,-0.689 l -0.421,-4.899 c -0.023,-0.275 -0.457,-0.972 -0.927,-1.071 l -14.23,-3.025 -0.132,-1.537 z"
       style="fill:#d8d8d8;fill-opacity:1;fill-rule:nonzero;stroke:none"
       transform="matrix(1.3333333,0,0,-1.3333333,527.5352,256.0956)"
       clip-path="url(#clipPath16)" />
    <path
       id="path17"
       d="m 0,0 v -4.145 l 32.002,6.802 v 4.146 z m 12.079,21.426 v -3.079 l 15.606,3.316 v -4.38 L 12.079,13.966 v -3.204 l 15.606,3.316 V 10.076 L 8.566,6.012 C 6.989,5.677 5.605,6.954 5.605,8.922 v 11.646 c 0,0.789 -0.122,1.016 -1.432,0.738 l -0.28,-0.06 v 2.764 l 23.792,5.056 v -4.323 z"
       style="fill:#4087da;fill-opacity:1;fill-rule:nonzero;stroke:none"
       transform="matrix(1.3333333,0,0,-1.3333333,437.8556,386.44653)"
       clip-path="url(#clipPath18)" />
    <path
       id="path19"
       d="M 0,0 V -4.213 L 31.867,2.561 V 6.773 Z M 29.377,15.451 27.16,10.327 c -6.032,-0.465 -10.843,3.766 -10.843,3.766 0,0 -4.859,-5.989 -11.184,-8.701 L 2.297,9.557 c 0,0 10.545,4.996 10.545,10.211 v 2.724 c 0,0.931 -0.602,0.927 -1.369,0.764 L 10.787,23.11 v 2.603 l 7.984,1.696 v -5.845 c 0,-5.631 10.606,-6.113 10.606,-6.113"
       style="fill:#4087da;fill-opacity:1;fill-rule:nonzero;stroke:none"
       transform="matrix(1.3333333,0,0,-1.3333333,387.284,396.8436)"
       clip-path="url(#clipPath20)" />
    <path
       id="path21"
       d="M 0,0 3.813,0.811 V -2.893 L 0,-3.703 Z m 11.735,14.215 v -3.176 l 0.594,0.127 c 0.617,0.131 1.082,-0.168 1.082,-0.933 V 7.454 L 9.258,6.571 v 6.188 L 2.137,11.245 V 8.07 L 2.73,8.196 C 3.347,8.327 3.813,8.028 3.813,7.264 V 5.414 L 0,4.604 v 6.187 L -7.121,9.277 V 6.103 l 0.593,0.126 c 0.617,0.13 1.082,-0.168 1.082,-0.933 V -7.172 c 0,-1.292 0.865,-1.993 2.112,-1.728 l 12.592,2.676 v 8.192 l 4.153,0.883 v -18.165 l 5.777,1.228 v 29.885 z m 15.813,4.688 V -12.31 l -6.124,-1.301 v 26.876 c 0,0.764 -0.465,1.063 -1.082,0.932 l -0.593,-0.126 v 3.175 z"
       style="fill:#4087da;fill-opacity:1;fill-rule:nonzero;stroke:none"
       transform="matrix(1.3333333,0,0,-1.3333333,340.5548,392.67173)"
       clip-path="url(#clipPath22)" />
    <path
       id="path23"
       d="m 0,0 -3.449,-0.245 -1.548,2.785 -1.523,-3.458 -3.449,-1.245 2.5,-1.883 -0.571,-3.544 3.068,2.274 3.083,-0.962 -0.596,3.301 z"
       style="fill:#4087da;fill-opacity:1;fill-rule:nonzero;stroke:none"
       transform="matrix(1.3333333,0,0,-1.3333333,324.75267,392.96213)"
       clip-path="url(#clipPath24)" />
    <path
       id="path25"
       d="m 0,0 v -3.161 l 0.4,0.085 c 0.577,0.122 1.366,0.231 1.366,-0.476 v -6.033 l -6.567,-1.396 v -4.918 l 6.567,1.395 v -14.758 l 5.775,1.228 V 1.604 Z m -14.546,-20.39 10.006,2.127 v -4.217 l -11.564,-2.458 c -3.5,-0.745 -4.801,0.219 -4.801,3.403 v 10.942 c -10e-4,0.706 -0.789,0.597 -1.365,0.475 l -0.385,-0.082 v 2.49 l 18.115,3.851 v -4.443 l -10.006,-2.127 z"
       style="fill:#4087da;fill-opacity:1;fill-rule:nonzero;stroke:none"
       transform="matrix(1.3333333,0,0,-1.3333333,292.21813,383.40093)"
       clip-path="url(#clipPath26)" />
    <path
       id="path27"
       d="m 0,0 -3.449,-0.245 -1.547,2.785 -1.524,-3.458 -3.449,-1.244 2.5,-1.884 -0.571,-3.543 3.069,2.274 3.082,-0.963 -0.596,3.301 z"
       style="fill:#4087da;fill-opacity:1;fill-rule:nonzero;stroke:none"
       transform="matrix(1.3333333,0,0,-1.3333333,254.1244,404.78893)"
       clip-path="url(#clipPath28)" />
    <path
       id="path29"
       d="m 0,0 c 0,0.865 -0.14,2.284 -2.128,2.269 -1.937,-0.015 -3.72,-1.716 -3.72,-4.069 0,-2.27 1.401,-2.288 2.088,-2.297 C -1.733,-4.124 0,-2.119 0,0 M -0.021,7.257 V 5.518 C 0.46,5.471 0.896,5.393 1.271,5.296 4.129,4.563 5.127,2.551 5.127,0.534 c 0,-2.258 -1.145,-4.217 -3.42,-5.835 -4.073,-2.896 -10.526,-3.448 -12.136,0.402 -1.05,2.511 -0.008,6.186 2.95,8.294 0.595,0.423 1.188,0.768 1.774,1.052 V 6.049 L -16.719,3.707 v 4.228 l 27.713,5.889 V 9.598 Z m -6.617,12.66 c 0,0.745 -0.062,0.945 -1.19,0.705 l -6.893,-1.465 v 4.07 L 8.828,28.231 V 24.163 L 1.882,22.687 C 0.79,22.454 0.691,22.192 0.691,21.475 c 0,-2.625 8.137,-2.014 8.137,-2.014 L 6.9,14.822 c -5.245,-0.372 -10.113,2.68 -10.113,2.68 0,0 -3.541,-4.568 -9.042,-6.981 l -2.466,3.809 c 0,0 8.083,2.832 8.083,5.587"
       style="fill:#4087da;fill-opacity:1;fill-rule:nonzero;stroke:none"
       transform="matrix(1.3333333,0,0,-1.3333333,216.4968,432.68733)"
       clip-path="url(#clipPath30)" />
    <path
       id="path31"
       d="m 0,0 -3.449,-0.246 -1.547,2.786 -1.523,-3.458 -3.45,-1.245 2.5,-1.884 -0.571,-3.543 3.069,2.274 3.082,-0.963 -0.596,3.301 z"
       style="fill:#4087da;fill-opacity:1;fill-rule:nonzero;stroke:none"
       transform="matrix(1.3333333,0,0,-1.3333333,184.83867,418.3228)"
       clip-path="url(#clipPath32)" />
    <path
       id="path33"
       d="M 0,0 V 10.505 L -7.285,8.957 V 5.918 l 0.568,0.121 c 0.591,0.125 1.036,-0.16 1.036,-0.893 v -6.354 l -12.246,-2.603 v -4.308 l 31.831,6.765 v 4.309 z m 5.417,16.21 -19.261,-4.095 v 4.495 l 24.665,5.243 c 0,-4.946 0.046,-11.072 -0.689,-16.408 L 4.66,4.282 c 0.48,4.029 0.757,8.629 0.757,11.928"
       style="fill:#4087da;fill-opacity:1;fill-rule:nonzero;stroke:none"
       transform="matrix(1.3333333,0,0,-1.3333333,147.34253,438.12227)"
       clip-path="url(#clipPath34)" />
    <path
       id="path35"
       d="m 0,0 v -3.003 l 0.561,0.119 c 0.584,0.124 1.024,-0.158 1.024,-0.882 v -21.782 l -10.52,-2.236 v 5.916 l -7.284,-1.549 v -3.038 l 0.568,0.12 c 0.59,0.126 1.035,-0.16 1.035,-0.892 v -1.764 l -10.454,-2.223 v -4.076 l 26.655,5.666 v -3.782 l 5.616,1.193 V 1.531 Z m -16.324,-15.033 c 0,0.887 -0.064,1.158 -1.288,0.897 l -7.458,-1.585 v 4.409 l 9.815,2.087 v 1.233 c 0,0.732 -0.446,1.018 -1.036,0.892 l -0.568,-0.12 v 3.038 l 7.285,1.548 v -5.384 l 9.984,2.122 v -4.409 l -7.516,-1.597 c -1.182,-0.251 -1.288,-0.568 -1.288,-1.446 0,-3.208 8.804,-2.703 8.804,-2.703 l -1.83,-5.171 c -5.676,-0.299 -11.199,3.136 -11.199,3.136 0,0 -4.158,-4.88 -10.111,-7.665 l -2.34,4.284 c 0,0 8.746,3.068 8.746,6.434"
       style="fill:#4087da;fill-opacity:1;fill-rule:nonzero;stroke:none"
       transform="matrix(1.3333333,0,0,-1.3333333,104.09773,417.18733)"
       clip-path="url(#clipPath36)" />
    <path
       id="path37"
       d="M 0,0 V -6.634 L 51.22,4.253 v 6.634 z m 19.333,34.292 v -4.93 l 24.977,5.31 V 27.661 L 19.333,22.352 V 17.223 L 44.31,22.532 V 16.125 L 13.71,9.621 C 11.186,9.085 8.973,11.129 8.973,14.278 v 18.641 c 0,1.263 -0.197,1.625 -2.294,1.18 L 6.23,34.003 v 4.424 l 38.08,8.094 v -6.92 z"
       style="fill:#4087da;fill-opacity:1;fill-rule:nonzero;stroke:none"
       transform="matrix(1.3333333,0,0,-1.3333333,360.77867,330.40747)"
       clip-path="url(#clipPath38)" />
    <path
       id="path39"
       d="M 0,0 V -6.742 L 51.004,4.099 v 6.742 z M 47.018,24.73 43.47,16.529 c -9.655,-0.744 -17.354,6.028 -17.354,6.028 0,0 -7.777,-9.584 -17.902,-13.928 l -4.537,6.668 c 0,0 16.876,7.994 16.876,16.341 v 4.36 c 0,1.491 -0.963,1.484 -2.191,1.223 l -1.098,-0.234 v 4.166 l 12.778,2.716 v -9.355 c 0,-9.013 16.976,-9.784 16.976,-9.784"
       style="fill:#4087da;fill-opacity:1;fill-rule:nonzero;stroke:none"
       transform="matrix(1.3333333,0,0,-1.3333333,279.83987,347.04933)"
       clip-path="url(#clipPath40)" />
    <path
       id="path41"
       d="M 0,0 6.102,1.297 V -4.631 L 0,-5.928 Z m 18.783,22.75 v -5.082 l 0.95,0.202 c 0.987,0.21 1.732,-0.268 1.732,-1.493 V 11.93 L 14.818,10.517 V 20.42 L 3.42,17.997 v -5.082 l 0.95,0.202 c 0.987,0.21 1.732,-0.268 1.732,-1.492 V 8.664 L 0,7.367 V 17.27 L -11.397,14.848 V 9.766 l 0.949,0.202 c 0.988,0.21 1.732,-0.269 1.732,-1.492 V 8.475 -11.479 c 0,-2.069 1.384,-3.191 3.38,-2.766 l 20.154,4.283 V 3.149 l 6.647,1.413 v -29.073 l 9.247,1.966 v 47.83 z m 25.308,7.505 v -49.956 l -9.801,-2.084 v 43.014 c 0,1.225 -0.745,1.703 -1.732,1.493 l -0.95,-0.202 v 5.082 z"
       style="fill:#4087da;fill-opacity:1;fill-rule:nonzero;stroke:none"
       transform="matrix(1.3333333,0,0,-1.3333333,205.04893,340.37093)"
       clip-path="url(#clipPath42)" />
    <path
       id="path43"
       d="m 0,0 -5.52,-0.393 -2.476,4.458 -2.438,-5.534 -5.521,-1.992 4,-3.015 -0.913,-5.67 4.911,3.638 4.934,-1.541 -0.955,5.284 z"
       style="fill:#4087da;fill-opacity:1;fill-rule:nonzero;stroke:none"
       transform="matrix(1.3333333,0,0,-1.3333333,179.75787,340.83707)"
       clip-path="url(#clipPath44)" />
    <path
       id="path45"
       d="m 0,0 v -5.06 l 0.641,0.136 c 0.922,0.196 2.185,0.37 2.185,-0.762 v -9.655 l -10.511,-2.234 v -7.872 l 10.511,2.234 v -23.621 l 9.243,1.965 V 2.565 Z m -23.282,-32.633 16.015,3.404 v -6.751 l -18.507,-3.935 c -5.602,-1.19 -7.685,0.352 -7.685,5.447 v 17.514 c -10e-4,1.13 -1.263,0.955 -2.184,0.76 l -0.616,-0.131 v 3.986 l 28.992,6.162 v -7.11 l -16.015,-3.404 z"
       style="fill:#4087da;fill-opacity:1;fill-rule:nonzero;stroke:none"
       transform="matrix(1.3333333,0,0,-1.3333333,127.6876,325.53373)"
       clip-path="url(#clipPath46)" />
    <path
       id="path47"
       d="m 0,0 c 0,0 -1.705,-14.692 -20.318,-33.938 l -9.53,7.825 c 9.537,7.948 20.529,25.933 20.529,41.799 v 0.447 c 0,1.906 -1.462,1.88 -3.283,1.493 l -1.839,-0.391 v 5.647 L 5.982,27.224 V 18.938 C 5.982,2.735 14.843,0.276 26.616,0.354 L 20.76,-8.933 C 2.87,-7.608 0,0 0,0 M 57.199,23.62 V 13.302 L 45.57,10.83 V -8.548 L 30.037,-11.85 v 44.649 c 0,2.011 -1.636,1.964 -3.5,1.567 l -1.873,-0.398 v 5.959 L 45.57,44.371 V 21.148 Z M 16.121,-42.075 c -2.12,0.007 -6.444,0.022 -6.444,6.729 0,6.95 5.501,12.027 11.481,12.126 6.139,0.101 6.571,-4.088 6.571,-6.642 0,-6.262 -5.35,-12.234 -11.608,-12.213 m 15.532,27.896 c -5.914,1.398 -16.428,1.45 -27.014,-5.866 -9.13,-6.31 -12.347,-17.196 -9.105,-24.588 4.97,-11.328 24.891,-9.516 37.463,-0.845 7.025,4.847 10.558,10.666 10.558,17.338 0,5.957 -3.08,11.875 -11.902,13.961"
       style="fill:#4087da;fill-opacity:1;fill-rule:nonzero;stroke:none"
       transform="matrix(1.3333333,0,0,-1.3333333,505.978,144.64773)"
       clip-path="url(#clipPath48)" />
    <path
       id="path49"
       d="m 0,0 v -5.795 l 1.511,0.321 c 1.504,0.319 2.848,0.541 2.848,-1.454 v -73.808 l 15.187,3.228 V 4.155 Z m -17.791,-18.817 v -5.796 l 1.511,0.321 c 1.504,0.32 2.881,0.612 2.881,-1.382 v -16.89 l -12.739,-2.707 v -9.087 l 12.739,2.708 v -50.052 l 13.971,2.971 v 83.817 z m 1.975,-48.106 -6.515,-9.049 c -12.727,4.135 -16.164,10.626 -16.164,10.626 0,0 -4.82,-9.299 -14.923,-18.981 l -8.429,7.147 c 0,0 14.892,14.526 14.892,28.856 v 10.908 c 0,1.995 -1.579,1.924 -3.346,1.549 l -1.773,-0.377 v 6.302 l 19.503,4.146 v -20.067 c 0,-19.215 16.755,-21.06 16.755,-21.06"
       style="fill:#4087da;fill-opacity:1;fill-rule:nonzero;stroke:none"
       transform="matrix(1.3333333,0,0,-1.3333333,417.2332,101.2232)"
       clip-path="url(#clipPath50)" />
    <path
       id="path51"
       d="M 0,0 V -9.394 L 48.096,0.829 v -9.153 l -55.74,-11.848 c -4.498,-0.956 -8.145,2.083 -8.145,6.788 v 10.905 c 0,1.887 -0.166,2.456 -4.385,1.559 l -0.799,-0.17 v 5.785 l 69.069,14.681 v -9.153 z m 48.096,-12.808 v -9.153 L -32.783,-39.153 V -30 Z M 30.421,-51.396 3.177,-57.188 v 11.935 l 27.244,5.791 z m 16.046,24.604 -64.569,-13.724 v -6.285 l 0.801,0.171 c 4.225,0.898 4.391,0.207 4.391,-1.864 v -13.152 c 0,-4.234 3.283,-6.969 7.331,-6.109 l 46.344,9.851 c 4.048,0.861 7.331,4.991 7.331,9.225 v 20.53 c 0,0.941 -0.73,1.548 -1.629,1.357"
       style="fill:#4087da;fill-opacity:1;fill-rule:nonzero;stroke:none"
       transform="matrix(1.3333333,0,0,-1.3333333,248.02547,189.26933)"
       clip-path="url(#clipPath52)" />
    <path
       id="path53"
       d="m 0,0 v -6.215 l 1.781,0.378 c 1.772,0.377 3.395,0.722 3.395,-1.597 v -36.708 c -2.618,-1.539 -5.972,-2.833 -10.107,-3.712 l -24.491,-5.205 v 11.235 l 22.711,4.827 c 1.13,0.24 2.046,1.369 2.046,2.52 v 22.245 c 0,1.151 -0.916,1.891 -2.046,1.65 l -42.598,-9.054 v -9.606 l 29.054,6.175 v -7.554 l -30.405,-6.462 v -6.32 l 0.719,0.153 c 1.449,0.308 3.599,0.765 3.599,-1.384 v -14.954 c 0,-3.686 2.931,-6.051 6.547,-5.283 l 31.979,6.798 c 5.999,1.275 10.353,2.819 12.992,4.212 v -35.195 l 16.471,3.501 V 4.601 Z"
       style="fill:#4087da;fill-opacity:1;fill-rule:nonzero;stroke:none"
       transform="matrix(1.3333333,0,0,-1.3333333,144.4832,152.06373)"
       clip-path="url(#clipPath54)" />
    <path
       id="path55"
       d="m 0,0 0.668,7.777 -2.447,-8.155 -1.927,-0.41 -1.069,7.408 -0.668,-7.777 -1.823,-0.387 0.8,9.31 2.847,0.605 1.081,-7.02 0.021,0.004 2.309,7.741 2.809,0.597 -0.8,-9.311 z m -13.153,-2.796 0.658,7.659 -2.931,-0.623 0.142,1.646 7.751,1.648 -0.141,-1.646 -2.825,-0.601 -0.658,-7.659 z"
       style="fill:#000000;fill-opacity:1;fill-rule:nonzero;stroke:none"
       transform="matrix(1.3333333,0,0,-1.3333333,638.37253,248.02787)"
       clip-path="url(#clipPath56)" />
    <path
       id="path57"
       d="m 0,0 c -2.091,0 -4.18,-0.149 -6.25,-0.447 -0.124,-0.027 -0.249,-0.054 -0.373,-0.082 l -1.291,-5.06 h 0.453 c -5.088,-0.978 -9.931,-2.956 -14.247,-5.822 l 0.156,0.157 -4.523,2.536 c -0.92,-0.635 -1.816,-1.305 -2.684,-2.009 -1.581,-1.369 -3.061,-2.85 -4.43,-4.431 -0.766,-0.938 -1.492,-1.907 -2.177,-2.905 l 2.604,-4.392 0.31,0.309 c -2.883,-4.333 -4.872,-9.198 -5.85,-14.31 l -5.184,-1.46 c -0.281,-1.988 -0.424,-3.993 -0.431,-6.001 0,-2.091 0.149,-4.18 0.447,-6.25 0.056,-0.268 0.114,-0.534 0.174,-0.8 l 5.102,-1.303 v 0.465 c 1.014,-4.958 2.982,-9.673 5.795,-13.882 l -0.451,0.45 -2.531,-4.514 c 0.69,-1.005 1.421,-1.981 2.191,-2.926 1.37,-1.58 2.85,-3.061 4.431,-4.431 0.859,-0.694 1.742,-1.356 2.651,-1.984 l 4.46,2.647 -0.189,0.189 c 4.435,-2.976 9.433,-5.013 14.686,-5.984 H -8.29 l 1.41,-5.01 c 0.21,-0.048 0.42,-0.093 0.63,-0.137 2.07,-0.298 4.159,-0.447 6.25,-0.447 2.089,0 4.175,0.149 6.243,0.447 l 1.313,5.142 H 7.123 c 5.334,0.987 10.404,3.073 14.889,6.126 l 4.613,-2.586 c 0.728,0.511 1.439,1.043 2.135,1.597 1.581,1.37 3.061,2.851 4.431,4.431 0.89,1.078 1.728,2.198 2.511,3.356 l -2.677,4.512 -0.042,-0.042 c 2.593,4.13 4.391,8.707 5.301,13.497 l 5.227,1.471 c 0.27,1.977 0.407,3.971 0.407,5.966 0,0.719 -0.019,1.437 -0.054,2.154 -0.035,0.718 -0.088,1.435 -0.158,2.15 -0.07,0.715 -0.158,1.428 -0.264,2.139 -0.035,0.21 -0.071,0.419 -0.109,0.628 l -5.138,1.312 v -0.046 c -1.031,4.756 -2.94,9.277 -5.631,13.332 l 0.01,-0.01 2.598,4.634 c -0.396,0.532 -0.804,1.054 -1.224,1.567 -0.456,0.556 -0.926,1.1 -1.408,1.634 -0.482,0.532 -0.978,1.052 -1.486,1.56 -0.508,0.509 -1.029,1.005 -1.561,1.488 -0.532,0.481 -1.077,0.951 -1.633,1.406 -0.555,0.456 -1.122,0.899 -1.699,1.327 -0.11,0.079 -0.222,0.157 -0.334,0.235 l -4.454,-2.641 0.274,-0.275 c -4.17,2.772 -8.835,4.717 -13.741,5.729 H 7.932 L 6.493,-0.483 C 6.477,-0.481 6.461,-0.479 6.444,-0.476 5.733,-0.371 5.021,-0.282 4.305,-0.212 3.59,-0.141 2.873,-0.088 2.155,-0.053 1.437,-0.018 0.719,0 0,0"
       style="fill:#8898b0;fill-opacity:1;fill-rule:evenodd;stroke:none"
       transform="matrix(1.3333333,0,0,-1.3333333,608.10947,4.4874667)"
       clip-path="url(#clipPath58)" />
    <path
       id="path59"
       d="M 0,0 C 17.15,0 31.054,-13.903 31.054,-31.054 31.054,-48.205 17.15,-62.108 0,-62.108 c -17.151,0 -31.055,13.903 -31.055,31.054 C -31.055,-13.903 -17.151,0 0,0"
       style="fill:#404040;fill-opacity:1;fill-rule:evenodd;stroke:none"
       transform="matrix(1.3333333,0,0,-1.3333333,608.1108,21.638533)"
       clip-path="url(#clipPath60)" />
    <path
       id="path61"
       d="m 0,0 c -13.409,0 -24.318,-10.909 -24.318,-24.318 0,-13.409 10.909,-24.318 24.318,-24.318 13.409,0 24.317,10.909 24.317,24.318 C 24.317,-10.909 13.409,0 0,0 m 0,-51.571 c -15.027,0 -27.253,12.226 -27.253,27.253 0,15.027 12.226,27.253 27.253,27.253 15.027,0 27.253,-12.226 27.253,-27.253 0,-15.027 -12.226,-27.253 -27.253,-27.253"
       style="fill:#8898b0;fill-opacity:1;fill-rule:nonzero;stroke:none"
       transform="matrix(1.3333333,0,0,-1.3333333,608.1108,30.619733)"
       clip-path="url(#clipPath62)" />
    <path
       id="path63"
       d="m 0,0 c 5.058,0 9.157,-4.1 9.157,-9.158 0,-5.058 -4.099,-9.158 -9.157,-9.158 -5.059,0 -9.158,4.1 -9.158,9.158 C -9.158,-4.1 -5.059,0 0,0"
       style="fill:#8898b0;fill-opacity:1;fill-rule:evenodd;stroke:none"
       transform="matrix(1.3333333,0,0,-1.3333333,608.1108,50.8332)"
       clip-path="url(#clipPath64)" />
    <path
       id="path65"
       d="m 0,0 c -1.532,0 -3.063,-0.109 -4.581,-0.328 -0.092,-0.019 -0.183,-0.039 -0.274,-0.06 l -0.947,-3.71 h 0.333 c -3.73,-0.716 -7.281,-2.167 -10.446,-4.267 l 0.115,0.115 -3.316,1.859 c -0.674,-0.466 -1.33,-0.957 -1.967,-1.473 -1.159,-1.004 -2.245,-2.09 -3.249,-3.249 -0.561,-0.687 -1.093,-1.398 -1.596,-2.13 l 1.91,-3.219 0.227,0.226 c -2.113,-3.177 -3.571,-6.743 -4.289,-10.491 l -3.801,-1.07 c -0.205,-1.457 -0.31,-2.928 -0.315,-4.399 0,-1.534 0.109,-3.065 0.328,-4.583 0.04,-0.196 0.083,-0.391 0.127,-0.586 l 3.74,-0.955 v 0.341 c 0.744,-3.636 2.187,-7.092 4.248,-10.178 l -0.329,0.33 -1.855,-3.309 c 0.504,-0.738 1.041,-1.453 1.605,-2.145 1.004,-1.159 2.09,-2.245 3.249,-3.249 0.629,-0.509 1.277,-0.994 1.943,-1.454 l 3.27,1.94 -0.139,0.139 c 3.251,-2.182 6.915,-3.676 10.767,-4.387 h -0.835 l 1.034,-3.674 c 0.153,-0.034 0.308,-0.068 0.462,-0.1 1.518,-0.218 3.049,-0.328 4.581,-0.328 1.532,0 3.062,0.11 4.577,0.328 l 0.962,3.77 H 5.223 c 3.91,0.724 7.628,2.253 10.916,4.491 l 3.381,-1.896 c 0.534,0.374 1.055,0.765 1.565,1.171 1.159,1.004 2.245,2.09 3.249,3.249 0.652,0.79 1.267,1.611 1.841,2.46 l -1.962,3.308 -0.031,-0.03 c 1.9,3.026 3.218,6.383 3.885,9.895 l 3.832,1.077 c 0.199,1.45 0.299,2.911 0.299,4.375 -10e-4,0.526 -0.013,1.053 -0.04,1.579 -0.025,0.526 -0.064,1.052 -0.115,1.575 -0.052,0.525 -0.116,1.048 -0.194,1.569 -0.026,0.154 -0.052,0.307 -0.08,0.46 l -3.766,0.962 v -0.034 c -0.756,3.487 -2.156,6.802 -4.129,9.775 l 0.008,-0.007 1.904,3.397 c -0.29,0.389 -0.59,0.772 -0.897,1.149 -0.334,0.407 -0.679,0.806 -1.033,1.197 -0.353,0.39 -0.716,0.772 -1.088,1.144 -0.373,0.373 -0.754,0.736 -1.145,1.09 -0.391,0.354 -0.79,0.698 -1.197,1.031 -0.407,0.335 -0.822,0.659 -1.245,0.973 -0.082,0.058 -0.163,0.116 -0.245,0.173 L 15.67,-8.1 15.871,-8.301 c -3.058,2.032 -6.478,3.458 -10.074,4.2 H 5.815 L 4.761,-0.354 C 4.749,-0.353 4.737,-0.351 4.725,-0.349 4.204,-0.271 3.681,-0.207 3.156,-0.155 2.632,-0.104 2.106,-0.064 1.58,-0.039 1.055,-0.013 0.527,0 0.001,0 Z"
       style="fill:#8898b0;fill-opacity:1;fill-rule:evenodd;stroke:none"
       transform="matrix(1.3333333,0,0,-1.3333333,512.10947,-1.3333333e-4)"
       clip-path="url(#clipPath66)" />
    <path
       id="path67"
       d="M 0,0 C 12.573,0 22.767,-10.193 22.767,-22.767 22.767,-35.34 12.573,-45.534 0,-45.534 c -12.573,0 -22.767,10.194 -22.767,22.767 C -22.767,-10.193 -12.573,0 0,0"
       style="fill:#404040;fill-opacity:1;fill-rule:evenodd;stroke:none"
       transform="matrix(1.3333333,0,0,-1.3333333,512.1108,12.573467)"
       clip-path="url(#clipPath68)" />
    <path
       id="path69"
       d="m 0,0 c -9.83,0 -17.828,-7.998 -17.828,-17.829 0,-9.83 7.998,-17.828 17.828,-17.828 9.83,0 17.828,7.998 17.828,17.828 C 17.828,-7.998 9.83,0 0,0 m 0,-37.808 c -11.017,0 -19.979,8.962 -19.979,19.979 0,11.017 8.962,19.98 19.979,19.98 11.018,0 19.979,-8.963 19.979,-19.98 0,-11.017 -8.961,-19.979 -19.979,-19.979"
       style="fill:#8898b0;fill-opacity:1;fill-rule:nonzero;stroke:none"
       transform="matrix(1.3333333,0,0,-1.3333333,512.1108,19.157467)"
       clip-path="url(#clipPath70)" />
    <path
       id="path71"
       d="m 0,0 c 3.708,0 6.714,-3.006 6.714,-6.714 0,-3.708 -3.006,-6.714 -6.714,-6.714 -3.708,0 -6.714,3.006 -6.714,6.714 C -6.714,-3.006 -3.708,0 0,0"
       style="fill:#8898b0;fill-opacity:1;fill-rule:evenodd;stroke:none"
       transform="matrix(1.3333333,0,0,-1.3333333,512.1108,33.977067)"
       clip-path="url(#clipPath72)" />
    <path
       id="path73"
       d="m 0,0 c 1.154,0 2.09,-0.956 2.091,-2.135 v -0.001 c 0,-1.18 -0.936,-2.136 -2.09,-2.137 H 0 c -1.154,10e-4 -2.089,0.957 -2.089,2.137 C -2.089,-0.957 -1.154,0 0,0 M 8.02,8.531 11.495,5.263 6.928,3.89 Z m -0.631,5.518 c -9.551,-6.411 -21.008,-22.587 -20.541,-28.083 3.402,-0.294 11.484,3.142 18.703,8.068 4.487,3.062 8.64,6.699 11.132,10.375 z"
       style="fill:#d8d8d8;fill-opacity:1;fill-rule:nonzero;stroke:none"
       transform="matrix(1.3333333,0,0,-1.3333333,287.97787,118.93027)"
       clip-path="url(#clipPath74)" />
    <path
       id="path75"
       d="m 0,0 c -26.23,-6.095 -40.516,-46.651 -40.516,-46.651 l 4.364,-7.009 c 0.103,-0.048 7.038,-4.249 7.038,-4.249 0,0 40.4,14.728 46.209,41.023 0,0 0.135,4.157 -2.535,4.478 -3.243,0.391 -4.582,-1.284 -4.582,-1.284 -13.925,-28.956 -30.296,-29.054 -39.763,-34.221 5.057,9.528 4.269,26.599 33.057,40.831 0,0 1.661,1.357 1.235,4.595 C 4.156,0.181 0.001,0 0.001,0 Z"
       style="fill:#2c5e87;fill-opacity:1;fill-rule:nonzero;stroke:none"
       transform="matrix(1.3333333,0,0,-1.3333333,346.9988,40.4068)"
       clip-path="url(#clipPath76)" />
    <path
       id="path77"
       d="M 0,0 C 2.574,0 4.661,-2.087 4.662,-4.661 4.663,-7.236 2.576,-9.324 0,-9.325 v 0 c -2.575,0 -4.662,2.088 -4.661,4.663 v 0.001 C -4.661,-2.087 -2.574,0 0,0 m 82.599,108.582 c -10.289,-10e-4 -18.63,-8.342 -18.63,-18.63 0.005,-2.748 0.617,-5.461 1.794,-7.945 L 1.482,9.406 C 0.99,9.467 0.496,9.503 0,9.513 c -7.828,0 -14.174,-6.346 -14.174,-14.174 0,-7.828 6.346,-14.174 14.174,-14.174 7.828,0 14.174,6.345 14.174,14.173 v 0.001 c -0.011,1.066 -0.143,2.127 -0.392,3.164 L 78.67,71.788 c 1.289,-0.296 2.606,-0.453 3.929,-0.469 10.29,-0.001 18.632,8.341 18.633,18.631 v 0.002 c -0.002,3.849 -1.196,7.603 -3.419,10.746 l -0.946,-9.412 -9.767,-4.401 -8.696,6.258 1.071,10.659 8.705,3.921 c -1.806,0.568 -3.688,0.858 -5.581,0.859"
       style="fill:#2c5e87;fill-opacity:1;fill-rule:evenodd;stroke:none"
       transform="matrix(1.3333333,0,0,-1.3333333,18.898533,205.73813)"
       clip-path="url(#clipPath78)" />
  </g>
</svg>
