<?xml version="1.0" encoding="UTF-8" standalone="no"?>
<!-- Created with Inkscape (http://www.inkscape.org/) -->

<svg
   version="1.1"
   id="svg2"
   width="666.66669"
   height="466.828"
   viewBox="0 0 666.66669 466.828"
   sodipodi:docname="Rhythm Tengoku The Best+ More Of The Best (リズム天国 ザ・ベスト＋ モア・オブ・ザ・ベスト) Logo (Wordmark).ai"
   xmlns:inkscape="http://www.inkscape.org/namespaces/inkscape"
   xmlns:sodipodi="http://sodipodi.sourceforge.net/DTD/sodipodi-0.dtd"
   xmlns="http://www.w3.org/2000/svg"
   xmlns:svg="http://www.w3.org/2000/svg">
  <defs
     id="defs6">
    <clipPath
       clipPathUnits="userSpaceOnUse"
       id="clipPath20">
      <path
         d="M 0,350.121 H 500 V 0 H 0 Z"
         id="path18" />
    </clipPath>
  </defs>
  <sodipodi:namedview
     id="namedview4"
     pagecolor="#ffffff"
     bordercolor="#000000"
     borderopacity="0.25"
     inkscape:showpageshadow="2"
     inkscape:pageopacity="0.0"
     inkscape:pagecheckerboard="0"
     inkscape:deskcolor="#d1d1d1" />
  <g
     id="g8"
     inkscape:groupmode="layer"
     inkscape:label="Rhythm Tengoku The Best+ More Of The Best (リズム天国 ザ・ベスト＋ モア・オブ・ザ・ベスト) Logo (Wordmark)"
     transform="matrix(1.3333333,0,0,-1.3333333,0,466.828)">
    <g
       id="g10"
       transform="translate(497.1555,233.2557)">
      <path
         d="m 0,0 -2.335,-7.022 -0.021,-0.003 -1.097,6.274 -2.883,-0.625 -0.805,-8.388 1.844,0.4 0.673,7.007 1.085,-6.625 1.951,0.424 2.476,7.398 -0.673,-7.007 1.824,0.396 0.805,8.388 z m -15.266,-3.32 -0.143,-1.482 2.968,0.643 -0.663,-6.9 2.021,0.439 0.663,6.9 2.861,0.621 0.143,1.484 z"
         style="fill:#000000;fill-opacity:1;fill-rule:nonzero;stroke:none"
         id="path12" />
    </g>
    <g
       id="g14">
      <g
         id="g16"
         clip-path="url(#clipPath20)">
        <g
           id="g22"
           transform="translate(437.7636,150.375)">
          <path
             d="M 0,0 17.842,3.792 C 16.895,-2.422 13.947,-10.586 3.959,-12.709 l -5.167,-1.098 -0.409,-4.679 5.281,1.123 c 6.837,1.453 10.224,3.14 14.578,7.676 0.97,-0.591 2.202,-1.934 2.788,-3.985 l 8.04,1.709 c -0.981,1.471 -5.411,4.763 -8.092,5.374 3.396,4.51 4.082,7.482 4.793,10.758 0.251,1.186 0.87,1.754 1.525,1.893 l 1.217,0.259 0.391,4.473 -28.49,-6.056 z"
             style="fill:#000000;fill-opacity:1;fill-rule:nonzero;stroke:none"
             id="path24" />
        </g>
        <g
           id="g26"
           transform="translate(467.7392,183.896)">
          <path
             d="m 0,0 -27.556,-5.857 -0.393,-4.505 20.343,4.324 c -0.663,-7.575 -6.096,-9.843 -13.677,-11.454 l -7.429,-1.579 -0.374,-4.28 7.146,1.519 c 9.672,2.056 20.518,5.576 21.546,17.327 z m -0.888,2.039 -25.216,-5.36 0.341,3.91 25.217,5.36 z"
             style="fill:#000000;fill-opacity:1;fill-rule:nonzero;stroke:none"
             id="path28" />
        </g>
        <g
           id="g30"
           transform="translate(473.038,219.1137)">
          <path
             d="m 0,0 c -0.869,0.008 -1.567,0.718 -1.561,1.587 0.008,0.87 0.719,1.568 1.588,1.56 C 0.896,3.14 1.595,2.429 1.587,1.56 1.579,0.691 0.869,-0.008 0,0 M 0.05,5.793 C -2.28,5.813 -4.186,3.941 -4.206,1.61 -4.216,0.505 -3.79,-0.496 -3.101,-1.254 l -26.653,-5.665 -0.406,-4.646 17.275,3.672 c -1.086,-9.673 -5.014,-14.296 -18.476,-17.401 l -0.376,-4.298 3.144,0.668 c 18.495,3.931 22.167,14.036 23.814,21.14 0.272,1.172 1.062,2.338 1.716,2.477 l 0.778,0.166 0.265,3.038 c 0.596,-0.33 1.268,-0.537 1.997,-0.543 2.33,-0.02 4.236,1.853 4.256,4.183 0.02,2.33 -1.852,4.236 -4.183,4.256"
             style="fill:#000000;fill-opacity:1;fill-rule:nonzero;stroke:none"
             id="path32" />
        </g>
        <g
           id="g34"
           transform="translate(411.8095,85.2607)">
          <path
             d="m 0,0 0.832,9.511 c -7.095,5.661 -16.933,3.48 -16.933,3.48 l 0.575,6.57 c 0.094,1.082 1.076,2.154 2.197,2.393 l 0.866,0.183 0.386,4.414 -15.894,-3.378 -0.386,-4.414 1.537,0.326 c 0.752,0.161 1.303,-0.3 1.24,-1.018 l -1.781,-20.36 c -0.095,-1.082 -1.077,-2.154 -2.198,-2.392 l -0.865,-0.184 -0.387,-4.414 15.894,3.379 0.387,4.414 -1.537,-0.327 c -0.752,-0.16 -1.304,0.3 -1.241,1.018 l 0.729,8.333 c 0,0 7.31,2.024 16.579,-7.534"
             style="fill:#000000;fill-opacity:1;fill-rule:nonzero;stroke:none"
             id="path36" />
        </g>
        <g
           id="g38"
           transform="translate(364.1313,80.9902)">
          <path
             d="m 0,0 c 4.16,5.473 4.997,9.073 5.864,13.042 0.308,1.437 1.065,2.128 1.867,2.298 l 1.493,0.318 0.474,5.417 -34.929,-7.425 -0.502,-5.738 21.875,4.65 C -5.011,5.033 -8.615,-4.862 -20.861,-7.465 l -6.335,-1.347 -0.496,-5.666 6.476,1.377 c 8.382,1.781 12.533,3.834 17.866,9.341 1.19,-0.712 2.703,-2.335 3.424,-4.816 l 9.859,2.095 C 8.726,-4.703 3.29,-0.73 0,0"
             style="fill:#000000;fill-opacity:1;fill-rule:nonzero;stroke:none"
             id="path40" />
        </g>
        <g
           id="g42"
           transform="translate(329.9296,70.4536)">
          <path
             d="m 0,0 -1.904,-0.405 c -1.215,-0.258 -2.52,-0.535 -3.849,0.754 l -14.601,14.17 c -1.686,1.634 -4.021,2.877 -6.499,2.35 L -40.146,14.043 -42.54,-3.968 c -0.313,-2.35 -1.211,-2.582 -3.069,-2.977 l -0.402,-4.639 12.65,2.699 2.663,20.034 17.676,-17.153 c 2.294,-2.226 2.294,-2.226 6.611,-1.309 l 5.893,1.253 z m -7.515,20.767 c 1.622,-0.014 2.938,-1.353 2.924,-2.975 -0.014,-1.622 -1.353,-2.938 -2.975,-2.923 -1.622,0.014 -2.937,1.353 -2.923,2.975 0.014,1.643 1.331,2.937 2.974,2.923 m -7.036,-1.495 c 1.622,-0.014 2.937,-1.353 2.923,-2.975 -0.014,-1.622 -1.352,-2.938 -2.975,-2.923 -1.622,0.014 -2.937,1.353 -2.923,2.975 0.014,1.621 1.332,2.937 2.975,2.923"
             style="fill:#000000;fill-opacity:1;fill-rule:nonzero;stroke:none"
             id="path44" />
        </g>
        <g
           id="g46"
           transform="translate(276.9599,72.7046)">
          <path
             d="m 0,0 -5.031,-0.339 -2.242,4.08 -2.259,-5.036 -5.033,-1.801 3.635,-2.774 -0.868,-5.192 4.505,3.322 4.496,-1.408 -0.851,4.826 z"
             style="fill:#000000;fill-opacity:1;fill-rule:nonzero;stroke:none"
             id="path48" />
        </g>
        <g
           id="g50"
           transform="translate(252.5912,78.0693)">
          <path
             d="m 0,0 c -1.479,-0.308 -2.411,-1.733 -2.124,-3.211 0.308,-1.478 1.733,-2.411 3.211,-2.124 1.478,0.287 2.432,1.732 2.124,3.211 C 2.903,-0.646 1.479,0.308 0,0 M 9.685,-0.822 C 9.377,0.657 7.952,1.61 6.474,1.302 4.995,0.994 4.063,-0.431 4.35,-1.909 c 0.307,-1.478 1.733,-2.41 3.211,-2.124 1.478,0.308 2.432,1.733 2.124,3.211 m -17.203,-7.713 5.753,1.223 -0.362,-4.138 -5.753,-1.223 -0.909,-10.385 c -0.457,-5.229 -3.594,-8.99 -8.08,-9.929 l -22.162,-4.71 0.46,5.253 15.848,3.368 c 3.045,0.652 4.66,3.123 4.969,6.654 l 0.682,7.795 -10.424,-2.216 -0.668,-7.637 -9.981,-2.122 0.341,3.897 1.031,0.219 c 1.108,0.236 1.569,1.018 1.664,2.107 l 0.171,1.955 -6.881,-1.463 0.362,4.138 6.881,1.463 0.17,1.933 c 0.064,0.734 -0.467,1.173 -1.666,0.918 l -0.76,-0.162 0.341,3.905 12.521,2.661 -0.342,-3.905 -1.028,-0.218 c -1.112,-0.236 -1.572,-1.021 -1.667,-2.099 l -0.126,-1.451 10.423,2.216 0.169,1.934 c 0.064,0.734 -0.47,1.17 -1.667,0.916 l -0.795,-0.169 0.342,3.905 14.249,3.028 -0.342,-3.904 -0.975,-0.207 c -1.124,-0.239 -1.565,-0.989 -1.662,-2.093 z"
             style="fill:#000000;fill-opacity:1;fill-rule:nonzero;stroke:none"
             id="path52" />
        </g>
        <g
           id="g54"
           transform="translate(202.1044,56.7934)">
          <path
             d="m 0,0 -5.031,-0.338 -2.242,4.079 -2.258,-5.036 -5.033,-1.801 3.634,-2.774 -0.868,-5.192 4.505,3.322 4.496,-1.408 -0.85,4.826 z"
             style="fill:#000000;fill-opacity:1;fill-rule:nonzero;stroke:none"
             id="path56" />
        </g>
        <g
           id="g58"
           transform="translate(184.1777,65.8745)">
          <path
             d="m 0,0 c -0.28,1.407 -1.668,2.296 -3.051,1.987 -1.409,-0.306 -2.27,-1.67 -1.988,-3.051 0.307,-1.409 1.671,-2.27 3.052,-1.987 C -0.578,-2.745 0.309,-1.383 0,0 m -38.098,-17.876 21.437,4.556 c -1.348,-12.003 -6.223,-17.74 -22.927,-21.592 l -0.467,-5.334 3.901,0.829 c 22.95,4.878 27.507,17.418 29.551,26.233 0.337,1.454 1.317,2.901 2.13,3.074 l 0.964,0.205 0.449,5.134 -34.534,-7.341 z m 26.883,15.499 c -0.283,1.381 0.58,2.771 1.987,3.051 1.381,0.283 2.742,-0.604 3.051,-1.987 0.282,-1.381 -0.578,-2.745 -1.988,-3.051 -1.38,-0.282 -2.742,0.604 -3.05,1.987"
             style="fill:#000000;fill-opacity:1;fill-rule:nonzero;stroke:none"
             id="path60" />
        </g>
        <g
           id="g62"
           transform="translate(132.7001,50.8193)">
          <path
             d="M 0,0 0.505,5.767 -9.542,3.632 -9.831,0.324 -9.152,0.469 c 1.022,0.217 1.478,-0.152 1.424,-0.774 l -0.12,-1.363 -19.833,-4.216 -0.504,-5.763 12.46,2.648 c -0.612,-6.07 -2.106,-12.803 -13.562,-15.238 l -0.466,-5.333 2.495,0.53 c 13.523,2.874 16.688,11.604 18.713,19.396 l -0.952,-10.879 c -0.262,-2.99 -1.639,-5.086 -4.238,-5.643 l -1.013,-0.214 -0.389,-4.451 6.403,1.361 c 3.828,0.802 6.505,3.992 6.893,8.422 l 1.163,13.297 c 0.127,1.446 1.33,2.852 2.688,3.141 l 4.781,1.016 0.449,5.133 z"
             style="fill:#000000;fill-opacity:1;fill-rule:nonzero;stroke:none"
             id="path64" />
        </g>
        <g
           id="g66"
           transform="translate(96.6518,34.3789)">
          <path
             d="m 0,0 -5.031,-0.339 -2.241,4.08 -2.259,-5.036 -5.033,-1.801 3.634,-2.774 -0.868,-5.192 4.505,3.322 4.496,-1.408 -0.85,4.826 z"
             style="fill:#000000;fill-opacity:1;fill-rule:nonzero;stroke:none"
             id="path68" />
        </g>
        <g
           id="g70"
           transform="translate(41.0854,31.3383)">
          <path
             d="m 0,0 -0.504,-5.763 23.949,5.091 c -0.517,-5.91 -3.478,-7.925 -6.005,-8.462 l -0.319,-3.645 1.787,0.38 c 3.983,0.847 9.735,4.454 11.423,11.189 0.364,1.454 0.902,2.812 2.129,3.073 l 2.02,0.429 0.45,5.132 z m 1.693,-7.849 13.62,2.895 -0.862,-9.855 C 13.972,-20.282 9.417,-25.604 4.278,-26.696 l -6.739,-1.433 0.382,4.365 2.928,0.622 c 2.693,0.573 4.068,2.368 4.205,3.928 l 0.523,5.983 c 0.096,1.095 -0.66,1.805 -1.688,1.586 l -2.576,-0.547 z"
             style="fill:#000000;fill-opacity:1;fill-rule:nonzero;stroke:none"
             id="path72" />
        </g>
        <g
           id="g74"
           transform="translate(33.6196,24.9487)">
          <path
             d="m 0,0 0.428,4.894 -32.693,-6.949 -0.428,-4.894 12.104,2.573 -0.497,-5.687 -12.104,-2.573 -0.43,-4.906 12.104,2.573 -0.045,-0.52 c -0.555,-6.338 5.057,-10.822 13.243,-9.082 l 6.285,1.336 0.43,4.917 -3.815,-0.811 c -4.878,-1.034 -7.969,-0.323 -7.461,5.486 l 0.046,0.519 11.906,2.531 0.429,4.906 -11.906,-2.531 0.497,5.687 z"
             style="fill:#000000;fill-opacity:1;fill-rule:nonzero;stroke:none"
             id="path76" />
        </g>
        <g
           id="g78"
           transform="translate(368.7397,136.7451)">
          <path
             d="m 0,0 1.479,16.915 c -12.617,10.068 -30.115,6.189 -30.115,6.189 l 1.023,11.685 c 0.168,1.924 1.915,3.831 3.908,4.254 l 1.54,0.328 0.686,7.85 -28.268,-6.009 -0.686,-7.85 2.734,0.581 c 1.337,0.285 2.317,-0.534 2.205,-1.811 l -3.168,-36.21 c -0.168,-1.924 -1.915,-3.83 -3.908,-4.254 l -1.54,-0.327 -0.687,-7.85 28.269,6.009 0.686,7.849 -2.734,-0.581 c -1.337,-0.284 -2.317,0.535 -2.205,1.812 l 1.296,14.818 c 0,0 13.001,3.601 29.485,-13.398"
             style="fill:#000000;fill-opacity:1;fill-rule:nonzero;stroke:none"
             id="path80" />
        </g>
        <g
           id="g82"
           transform="translate(283.9448,129.1494)">
          <path
             d="m 0,0 c 7.398,9.734 8.886,16.137 10.429,23.197 0.548,2.555 1.893,3.783 3.321,4.086 l 2.655,0.565 0.843,9.634 -62.122,-13.204 -0.893,-10.207 38.905,8.27 C -8.913,8.952 -15.322,-8.646 -37.101,-13.276 l -11.268,-2.395 -0.881,-10.078 11.517,2.449 c 14.907,3.168 22.29,6.82 31.775,16.613 2.116,-1.266 4.808,-4.152 6.09,-8.565 l 17.533,3.727 C 15.519,-8.364 5.851,-1.299 0,0"
             style="fill:#000000;fill-opacity:1;fill-rule:nonzero;stroke:none"
             id="path84" />
        </g>
        <g
           id="g86"
           transform="translate(223.1181,110.4111)">
          <path
             d="m 0,0 -3.387,-0.72 c -2.16,-0.459 -4.482,-0.952 -6.845,1.341 l -25.968,25.2 c -2.997,2.906 -7.153,5.116 -11.557,4.18 l -23.641,-5.025 -4.259,-32.033 c -0.556,-4.18 -2.155,-4.592 -5.459,-5.295 l -0.715,-8.252 22.498,4.802 4.737,35.631 31.436,-30.508 c 4.08,-3.959 4.08,-3.959 11.758,-2.327 l 10.48,2.228 z m -13.365,36.934 c 2.885,-0.026 5.224,-2.407 5.199,-5.291 -0.025,-2.885 -2.406,-5.225 -5.291,-5.2 -2.884,0.026 -5.224,2.407 -5.199,5.291 0.026,2.922 2.369,5.225 5.291,5.2 m -12.514,-2.66 c 2.884,-0.025 5.224,-2.406 5.199,-5.291 -0.026,-2.884 -2.406,-5.224 -5.291,-5.199 -2.885,0.026 -5.224,2.406 -5.199,5.291 0.025,2.885 2.368,5.225 5.291,5.199"
             style="fill:#000000;fill-opacity:1;fill-rule:nonzero;stroke:none"
             id="path88" />
        </g>
        <g
           id="g90"
           transform="translate(128.9116,114.414)">
          <path
             d="m 0,0 -8.947,-0.603 -3.988,7.256 -4.016,-8.957 -8.952,-3.202 6.465,-4.933 -1.545,-9.234 8.012,5.908 7.996,-2.506 -1.512,8.585 z"
             style="fill:#000000;fill-opacity:1;fill-rule:nonzero;stroke:none"
             id="path92" />
        </g>
        <g
           id="g94"
           transform="translate(85.5727,123.9551)">
          <path
             d="m 0,0 c -2.629,-0.547 -4.287,-3.082 -3.778,-5.71 0.548,-2.63 3.082,-4.288 5.711,-3.778 2.629,0.509 4.325,3.081 3.777,5.711 C 5.163,-1.148 2.629,0.548 0,0 M 17.224,-1.461 C 16.676,1.168 14.143,2.864 11.513,2.316 8.883,1.769 7.226,-0.766 7.735,-3.395 c 0.548,-2.629 3.082,-4.287 5.711,-3.777 2.63,0.547 4.325,3.081 3.778,5.711 m -30.595,-13.717 10.232,2.175 -0.644,-7.361 -10.232,-2.175 -1.615,-18.468 c -0.814,-9.3 -6.394,-15.991 -14.37,-17.659 l -39.416,-8.378 0.818,9.342 28.186,5.992 c 5.415,1.158 8.287,5.554 8.836,11.833 l 1.213,13.863 -18.537,-3.94 -1.189,-13.583 -17.751,-3.773 0.606,6.93 1.833,0.39 c 1.971,0.419 2.791,1.81 2.961,3.746 l 0.304,3.476 -12.238,-2.601 0.644,7.361 12.238,2.601 0.301,3.438 c 0.113,1.304 -0.83,2.085 -2.962,1.632 l -1.352,-0.287 0.607,6.944 22.267,4.733 -0.607,-6.944 -1.829,-0.389 c -1.977,-0.42 -2.796,-1.815 -2.964,-3.734 l -0.226,-2.58 18.538,3.941 0.301,3.441 c 0.114,1.304 -0.835,2.081 -2.964,1.628 l -1.414,-0.3 0.607,6.944 25.342,5.386 -0.608,-6.944 -1.733,-0.368 c -1.999,-0.425 -2.784,-1.758 -2.956,-3.722 z"
             style="fill:#000000;fill-opacity:1;fill-rule:nonzero;stroke:none"
             id="path96" />
        </g>
        <g
           id="g98"
           transform="translate(481.5849,324.9887)">
          <path
             d="m 0,0 -43.655,-9.279 c -2.347,-0.492 -3.885,-2.376 -4.114,-4.999 l -4.242,-48.48 43.656,9.279 c 2.17,0.449 3.868,2.19 4.114,4.998 z m 18.415,13.015 -6.229,-71.206 -82.601,-17.558 6.229,71.206 z m -30.349,-57.574 -4.822,-1.025 c -2.816,-0.599 -4.103,0.38 -3.948,2.153 l 0.985,11.265 9.038,1.922 0.525,5.995 -9.038,-1.92 0.802,9.176 c 0.255,2.912 1.677,4.481 3.991,4.973 l 5.416,1.151 0.488,5.586 -31.019,-6.593 -0.489,-5.586 4.884,1.038 c 3.413,0.725 3.994,-0.954 3.889,-2.154 l -0.905,-10.342 -9.038,-1.922 -0.524,-5.995 9.037,1.92 -0.883,-10.099 c -0.252,-2.874 -1.694,-4.497 -3.932,-4.972 l -5.475,-1.164 -0.486,-5.549 31.019,6.593 z m -4.032,9.51 4.957,1.054 -0.596,-6.813 -4.957,-1.053 z"
             style="fill:#000000;fill-opacity:1;fill-rule:nonzero;stroke:none"
             id="path100" />
        </g>
        <g
           id="g102"
           transform="translate(471.4677,341.6479)">
          <path
             d="m 0,0 c -0.423,0.154 -1.08,0.396 -1.08,0.778 0,0.321 0.293,0.627 1.008,1.344 C 2.778,5.001 3.099,5.33 5.16,7.66 L 3.599,8.473 C 2.575,7.187 2.182,6.752 -0.771,3.576 -2.291,1.94 -3.022,1.021 -3.023,0.273 c 0,-0.977 1.051,-1.395 2.234,-1.86 2.203,-0.86 4.305,-1.894 6.274,-3.154 l 1.448,1.574 C 5.605,-2.258 2.146,-0.765 0,0"
             style="fill:#000000;fill-opacity:1;fill-rule:nonzero;stroke:none"
             id="path104" />
        </g>
        <g
           id="g106"
           transform="translate(438.1025,339.4638)">
          <path
             d="m 0,0 1.068,-0.874 c 1.72,1.467 3.04,2.398 4.911,3.137 V 3.782 C 5.03,3.58 0.344,2.569 -0.709,2.345 -1.45,2.188 -3.289,1.796 -3.734,1.717 l -0.002,-1.752 c 0.949,0.264 2.225,0.566 5.28,1.263 C 0.579,0.526 0.476,0.442 0,0 m 2.382,-7.554 c -2.225,-0.473 -5.072,-1.046 -5.07,0.969 0,0.326 0.061,1.47 1.307,2.99 l -1.201,0.675 c -1.083,-1.501 -1.737,-2.617 -1.738,-4.043 -10e-4,-1.225 0.784,-2.236 1.807,-2.53 1.261,-0.367 2.521,-0.238 5.442,0.382 2.299,0.489 3.337,0.849 3.855,1.037 L 6.727,-6.351 C 5.288,-6.874 3.835,-7.245 2.382,-7.554 m 4.275,6.443 1.038,0.871 C 7.384,0.36 6.896,1.062 6.304,1.649 L 5.265,0.793 C 5.843,0.157 6.139,-0.245 6.657,-1.111 M 4.464,0.422 c 0.77,-0.813 1.273,-1.729 1.407,-1.98 L 4.832,-2.429 c -0.666,1.206 -1.141,1.726 -1.377,2.001 z"
             style="fill:#000000;fill-opacity:1;fill-rule:nonzero;stroke:none"
             id="path108" />
        </g>
        <g
           id="g110"
           transform="translate(367.2265,245.5146)">
          <path
             d="m 0,0 0.697,7.971 30.802,6.547 1.091,12.483 -30.8,-6.546 0.978,11.178 30.8,6.547 1.09,12.453 -83.195,-17.684 -1.089,-12.453 30.299,6.441 -0.978,-11.179 -30.299,-6.44 -1.092,-12.484 30.299,6.44 -0.404,-4.615 c -1.293,-14.784 -9.778,-20.067 -22.193,-22.715 l -9.711,-2.064 -1.094,-12.511 21.148,4.495 c 16.241,3.445 22.309,8.564 29.888,22.98 3.321,-1.668 12.127,-8.647 15.537,-13.324 l 21.872,4.649 C 27.887,-12.241 5.971,-1.722 0,0"
             style="fill:#000000;fill-opacity:1;fill-rule:nonzero;stroke:none"
             id="path112" />
        </g>
        <g
           id="g114"
           transform="translate(380.2372,302.1225)">
          <path
             d="m 0,0 c -0.315,-3.45 -1.082,-4.905 -2.259,-5.155 -1.251,-0.266 -1.248,1.134 -1.248,1.58 l 0.002,0.662 c 0.002,1.108 -0.053,3.479 -2.421,2.976 -1.001,-0.212 -1.575,-0.766 -1.899,-1.08 0.252,0.883 1.611,5.186 1.908,6.172 L -7.77,5.115 c -0.652,-2.323 -2.724,-9.729 -3.878,-13.604 l 1.69,-0.147 c 0.104,0.437 0.845,3.532 0.875,3.615 0.311,0.927 1.153,2.981 2.815,3.335 1.104,0.234 1.102,-0.765 1.101,-1.75 l -0.001,-0.522 c -10e-4,-0.339 0.042,-1.252 0.246,-1.778 0.322,-0.839 1.263,-1.408 2.469,-1.152 2.706,0.576 3.593,3.025 3.997,6.74 z"
             style="fill:#000000;fill-opacity:1;fill-rule:nonzero;stroke:none"
             id="path116" />
        </g>
        <g
           id="g118"
           transform="translate(342.3613,298.2109)">
          <path
             d="M 0,0 C 0.674,0.487 1.55,1.034 2.84,1.308 3.457,1.439 3.787,1.479 4.088,1.513 L 4.062,3.201 C 2.585,2.828 -3.999,1.159 -5.231,0.836 -6.221,0.581 -7.297,0.292 -8.287,0.082 l 0.055,-1.697 c 2.223,0.667 4.446,1.32 6.684,1.93 -3.202,-2.719 -3.966,-5.22 -3.969,-6.764 -0.002,-1.395 0.841,-2.639 2.13,-3.055 1.304,-0.428 2.838,-0.476 5.922,0.165 l 0.232,1.833 C -1.363,-8.519 -3.872,-8.243 -3.868,-5.963 -3.864,-3.94 -2.039,-1.498 0,0"
             style="fill:#000000;fill-opacity:1;fill-rule:nonzero;stroke:none"
             id="path120" />
        </g>
        <g
           id="g122"
           transform="translate(300.1552,237.561)">
          <path
             d="m 0,0 -3.289,-0.699 c -2.152,-0.464 -4.405,0.362 -5.791,2.854 l -6.363,11.436 -21.804,-4.634 8.368,-15.096 -26.893,-5.716 20.388,50.464 c 0.891,2.205 2.248,3.518 3.983,3.899 l 5.472,1.163 0.754,8.624 -26.857,-5.708 -24.209,-59.92 c -0.938,-2.321 -2.452,-3.394 -3.993,-3.721 l -3.329,-0.708 -1.091,-12.467 90.721,19.284 z"
             style="fill:#000000;fill-opacity:1;fill-rule:nonzero;stroke:none"
             id="path124" />
        </g>
        <g
           id="g126"
           transform="translate(202.954,253.3349)">
          <path
             d="M 0,0 C -0.619,3.109 -3.687,5.074 -6.742,4.392 -9.857,3.714 -11.758,0.7 -11.134,-2.351 -10.457,-5.465 -7.443,-7.366 -4.392,-6.742 -1.277,-6.065 0.682,-3.056 0,0 m -27.751,-57.031 c 9.195,12.097 11.043,20.054 12.961,28.828 0.68,3.176 2.353,4.702 4.127,5.079 l 3.299,0.701 1.048,11.974 -77.204,-16.41 -1.109,-12.685 48.35,10.277 c -2.549,-16.639 -10.514,-38.51 -37.581,-44.264 l -14.003,-2.976 -1.095,-12.524 14.312,3.043 c 18.527,3.937 27.702,8.475 39.49,20.647 2.63,-1.575 5.975,-5.16 7.569,-10.645 l 21.789,4.631 c -2.666,3.929 -14.682,12.709 -21.953,14.324 m 2.967,51.779 c -0.623,3.051 1.283,6.123 4.392,6.742 3.051,0.624 6.06,-1.336 6.742,-4.391 0.624,-3.052 -1.277,-6.065 -4.392,-6.743 -3.05,-0.624 -6.06,1.336 -6.742,4.392"
             style="fill:#000000;fill-opacity:1;fill-rule:nonzero;stroke:none"
             id="path128" />
        </g>
        <g
           id="g130"
           transform="translate(70.8686,246.4712)">
          <path
             d="m 0,0 -0.81,-9.26 1.9,0.404 c 2.861,0.607 4.138,-0.425 3.986,-2.165 L 2.198,-43.913 C 1.466,-52.285 -2.39,-58.153 -9.667,-59.71 l -37.879,-8.051 -1.09,-12.458 52.969,11.259 c 10.72,2.242 18.213,11.175 19.299,23.577 l 3.315,37.897 c 0.229,2.62 1.283,4.399 3.97,4.969 l 2.33,0.496 0.81,9.26 z m -22.702,-48.838 -29.924,-6.361 0.808,9.242 2.463,0.523 c 2.65,0.564 3.75,2.42 3.976,5.002 l 1.666,19.036 c 0.152,1.74 -1.118,2.779 -3.983,2.17 l -1.817,-0.386 0.81,9.259 29.925,6.361 -0.81,-9.26 -2.458,-0.522 c -2.657,-0.565 -3.756,-2.427 -3.98,-4.985 l -1.665,-19.036 c -0.154,-1.75 1.129,-2.794 3.986,-2.186 l 1.811,0.385 z"
             style="fill:#000000;fill-opacity:1;fill-rule:nonzero;stroke:none"
             id="path132" />
        </g>
      </g>
    </g>
  </g>
</svg>
