<?xml version="1.0" encoding="UTF-8" standalone="no"?>
<!-- Generator: Adobe Illustrator 25.0.0, SVG Export Plug-In . SVG Version: 6.00 Build 0)  -->

<svg
   version="1.1"
   id="Layer_1"
   x="0px"
   y="0px"
   viewBox="0 0 666.66669 482.44766"
   xml:space="preserve"
   sodipodi:docname="Rhythm Tengoku The Best+ More Of The Best (リズム天国 ザ・ベスト＋ モア・オブ・ザ・ベスト) Logo.svg"
   width="666.66669"
   height="482.44766"
   inkscape:version="1.2.2 (b0a8486541, 2022-12-01)"
   xmlns:inkscape="http://www.inkscape.org/namespaces/inkscape"
   xmlns:sodipodi="http://sodipodi.sourceforge.net/DTD/sodipodi-0.dtd"
   xmlns:xlink="http://www.w3.org/1999/xlink"
   xmlns="http://www.w3.org/2000/svg"
   xmlns:svg="http://www.w3.org/2000/svg"><defs
   id="defs5224" /><sodipodi:namedview
   id="namedview5222"
   pagecolor="#505050"
   bordercolor="#eeeeee"
   borderopacity="1"
   inkscape:showpageshadow="0"
   inkscape:pageopacity="0"
   inkscape:pagecheckerboard="0"
   inkscape:deskcolor="#505050"
   showgrid="false"
   inkscape:zoom="3.344059"
   inkscape:cx="250.14511"
   inkscape:cy="180.91786"
   inkscape:window-width="2560"
   inkscape:window-height="1412"
   inkscape:window-x="0"
   inkscape:window-y="0"
   inkscape:window-maximized="1"
   inkscape:current-layer="Layer_1" />
<style
   type="text/css"
   id="style5120">
	.st0{fill:#4087DA;}
	.st1{fill:#404040;}
	.st2{fill:#828282;}
	.st3{clip-path:url(#SVGID_2_);fill:url(#SVGID_3_);}
	.st4{clip-path:url(#SVGID_5_);fill:url(#SVGID_6_);}
	.st5{fill:#D8D8D8;}
	.st6{fill-rule:evenodd;clip-rule:evenodd;fill:#8898B0;}
	.st7{fill-rule:evenodd;clip-rule:evenodd;fill:#404040;}
	.st8{fill:#8898B0;}
	.st9{fill:#2C5E87;}
	.st10{fill-rule:evenodd;clip-rule:evenodd;fill:#2C5E87;}
</style>
<g
   id="Cloud_1_"
   transform="scale(1.3333334)">
	<path
   id="Black_2_"
   d="m 400.67978,32.99392 c -24.79053,0 -47.4502,12.64258 -60.55371,33.01953 -4.74414,-0.97461 -9.58301,-1.46582 -14.47754,-1.46582 -15.14355,0 -29.57617,4.64551 -41.66846,13.26172 -11.61475,-7.57861 -25.20703,-11.66016 -39.28516,-11.66016 -24.72852,4.9e-4 -47.36426,12.60303 -60.48096,32.91602 -4.67627,-0.9458 -9.44482,-1.42236 -14.26611,-1.42236 -15.25928,0 -29.77832,4.70898 -41.91797,13.44336 -11.64551,-7.64209 -25.2876,-11.75732 -39.43066,-11.75732 -39.70264,0 -72.00342,32.30079 -72.00342,72.00343 0,17.73242 6.48975,34.54785 17.91602,47.53564 -11.25293,11.07861 -17.79297,26.29883 -17.79297,42.71533 0,12.43896 3.79199,24.31738 10.71289,34.25293 -6.27881,7.08398 -9.91895,16.34424 -9.91895,26.30957 0,21.88525 17.80518,39.68994 39.68994,39.68994 8.03906,0 15.85938,-2.46826 22.41064,-6.94434 2.35791,0.43311 4.76123,0.65137 7.19531,0.65137 10.96875,0 21.22656,-4.45801 28.63574,-12.20361 2.28076,-0.27148 4.52979,-0.75684 6.71484,-1.44775 4.73682,1.93945 9.82227,2.94531 15.01855,2.94531 8.82031,0 17.36377,-2.99414 24.24854,-8.29102 3.07227,0.75049 6.23584,1.13525 9.41553,1.13525 10.89648,0 21.13379,-4.42725 28.54199,-12.10986 2.64893,-0.37451 5.23633,-1.03662 7.72705,-1.97559 4.83789,2.04395 10.04883,3.10254 15.40234,3.10254 11.58057,0 22.26807,-4.92969 29.68213,-13.31543 4.92676,0.13135 9.78418,-0.71338 14.28906,-2.47168 4.86475,2.07129 10.11035,3.14453 15.50781,3.14453 9.36328,0 18.24756,-3.27344 25.26465,-9.07422 3.43799,0.95557 7.00781,1.4458 10.62354,1.4458 8.82568,0 17.18359,-2.86328 24.00244,-8.06445 2.95264,0.68945 5.98682,1.04297 9.03174,1.04297 21.88477,0 39.68945,-17.80469 39.68945,-39.68994 0,-6.91504 -1.77686,-13.5957 -5.10938,-19.49023 2.63672,-6.854 4.00781,-14.17334 4.00781,-21.56104 0,-5.47412 -0.72607,-10.83252 -2.16504,-16.01758 6.39844,-7.38574 10.86963,-16.18115 13.06885,-25.646 0.0918,0 0.18262,4.9e-4 0.27441,4.9e-4 39.70215,0 72.00293,-32.30078 72.00293,-72.00391 4e-5,-39.70264 -32.30075,-72.00342 -72.00387,-72.00342 z" />
	<path
   id="Blue_1_"
   class="st0"
   d="m 400.67978,41.21609 c -23.93555,0 -45.62891,13.30469 -56.5625,34.28466 -5.98145,-1.81396 -12.17285,-2.73096 -18.46875,-2.73096 -15.37061,0 -29.91309,5.40186 -41.4585,15.30811 -11.22705,-8.87158 -25.07324,-13.70654 -39.49463,-13.70654 -23.86865,4.9e-4 -45.53662,13.25635 -56.49365,34.15918 -5.91406,-1.77051 -12.03369,-2.66553 -18.25391,-2.66553 -15.48779,0 -30.11475,5.47705 -41.69727,15.51953 -11.25586,-8.95312 -25.15674,-13.8335 -39.65137,-13.8335 -35.16895,0 -63.78125,28.61231 -63.78125,63.78126 0,18.57422 8.03955,36.01367 21.84326,48.05469 -13.56738,9.63379 -21.72021,25.17041 -21.72021,42.19629 0,13.16699 4.9248,25.60791 13.71826,35.12012 -8.03271,5.81836 -12.92432,15.15576 -12.92432,25.44238 0,17.35156 14.11621,31.46777 31.46777,31.46777 7.5459,0 14.84912,-2.74414 20.52783,-7.62549 2.93213,0.88525 5.97217,1.33252 9.07812,1.33252 9.71777,0 18.73193,-4.41455 24.67871,-11.94971 3.8042,-0.0488 7.55664,-0.86377 11.02246,-2.38184 4.50537,2.37988 9.51807,3.62549 14.66797,3.62549 8.51758,0 16.44238,-3.33398 22.31641,-9.27344 3.60547,1.39307 7.46094,2.11768 11.34766,2.11768 9.61719,0 18.58643,-4.3501 24.53711,-11.771 4.17432,-0.16797 8.21289,-1.24219 11.88867,-3.15137 4.65039,2.58643 9.85645,3.93945 15.24561,3.93945 10.54346,0 20.15332,-5.15381 25.97217,-13.6958 1.55469,0.26221 3.12988,0.39404 4.71484,0.39404 4.72803,0 9.29736,-1.15332 13.40088,-3.36035 4.68457,2.63916 9.93994,4.01953 15.39111,4.01953 8.9458,0 17.34033,-3.77002 23.2583,-10.27393 3.96289,1.74023 8.25391,2.64551 12.62988,2.64551 8.35498,0 16.18164,-3.23779 22.03467,-9.00439 3.50391,1.3042 7.24121,1.98291 10.99951,1.98291 17.35107,0 31.46729,-14.11621 31.46729,-31.46777 0,-6.79932 -2.16797,-13.31494 -6.16895,-18.70801 3.32422,-6.95166 5.06738,-14.60352 5.06738,-22.34326 0,-6.25244 -1.09668,-12.32812 -3.26465,-18.11475 8.84473,-8.58154 14.31152,-19.95557 15.48633,-32.17725 2.38867,0.27051 4.78711,0.40674 7.17871,0.40674 35.16895,0 63.78027,-28.6123 63.78027,-63.78175 3e-5,-35.16892 -28.61228,-63.78122 -63.78122,-63.78122 z" />
	<path
   id="Black_1_"
   d="m 400.68024,46.53197 c -24.15457,5e-5 -44.8844,14.64985 -53.79831,35.5473 -6.58392,-2.5685 -13.74002,-3.99344 -21.23315,-3.99344 -16.13248,0 -30.73825,6.53465 -41.3165,17.10065 -10.41986,-9.6172 -24.33914,-15.499 -39.63687,-15.499 -24.09764,5e-5 -44.7838,14.58243 -53.73228,35.40127 -6.5238,-2.51477 -13.60501,-3.90759 -21.01532,-3.90759 -16.25244,0 -30.95146,6.63598 -41.54787,17.34073 -10.43772,-9.70834 -24.42143,-15.65512 -39.80051,-15.65512 -32.28966,0 -58.46558,26.1759 -58.46558,58.46558 0,20.25496 10.30283,38.1006 25.95093,48.5921 -15.30553,7.61391 -25.82794,23.40353 -25.82794,41.65862 6e-5,14.64786 6.77773,27.70645 17.36082,36.23181 -9.69959,3.82446 -16.56679,13.27271 -16.56679,24.33109 6e-5,14.44324 11.70862,26.15179 26.15186,26.15173 7.60733,0 14.45332,-3.25076 19.23211,-8.43588 3.18098,1.37634 6.68726,2.14297 10.37376,2.14297 9.25303,0 17.37742,-4.80991 22.02608,-12.06137 0.75345,0.0742 1.51703,0.11386 2.28996,0.11386 4.22565,0 8.18246,-1.1412 11.58886,-3.12424 4.14314,2.75623 9.11512,4.36545 14.46439,4.36545 8.55872,-6e-5 16.15625,-4.11218 20.92712,-10.46774 3.76968,2.10675 8.11142,3.31226 12.73665,3.31226 9.14296,0 17.18529,-4.69522 21.86018,-11.80258 0.50151,0.0326 1.00571,0.055 1.51546,0.055 4.87505,0 9.39406,-1.51572 13.11964,-4.09601 4.28011,3.05634 9.51587,4.86053 15.17615,4.86053 10.24826,0 19.11418,-5.89819 23.40297,-14.48212 2.29057,0.76178 4.73792,1.18036 7.28438,1.18036 5.01691,0 9.65594,-1.60617 13.44186,-4.3252 4.31161,3.13208 9.61325,4.98428 15.3501,4.98428 9.11618,-6e-5 17.13895,-4.66727 21.81979,-11.73969 4.06287,2.59879 8.88742,4.11139 14.06818,4.11139 8.40448,0 15.87753,-3.96909 20.66193,-10.13013 3.68372,1.98203 7.89597,3.10855 12.3721,3.10855 14.44324,0 26.15179,-11.70862 26.15179,-26.15186 0,-6.9874 -2.74576,-13.32953 -7.21036,-18.0208 3.87991,-6.7917 6.1084,-14.64845 6.1084,-23.03035 0,-6.98221 -1.54877,-13.59943 -4.30533,-19.54243 10.24127,-8.53064 16.76627,-21.37024 16.76627,-35.74132 0,-0.40971 -0.0204,-0.81442 -0.0309,-1.22157 3.96265,0.84776 8.07037,1.30397 12.28613,1.30397 32.28955,-6e-5 58.46545,-26.17603 58.46539,-58.46564 -6e-5,-32.28961 -26.17602,-58.46544 -58.46557,-58.46538 z" />
</g>
<g
   id="_xFF0B__1_"
   transform="scale(1.3333334)">
	<g
   id="_xFF0B__6_">
		<polygon
   points="373.58133,181.39998 333.62854,189.89195 330.33707,227.51225 370.28986,219.01993 366.77771,259.16452 423.52988,247.10129 427.04202,206.9567 466.99518,198.46471 470.28595,160.84476 430.3335,169.33708 433.84564,129.19249 377.09348,141.25539 "
   id="polygon5126" />
		<polygon
   class="st1"
   points="382.47638,189.2697 342.52356,197.76193 340.97244,215.49097 380.9252,206.99873 377.41306,247.14323 414.63483,239.23149 418.14703,199.08699 458.09985,190.59482 459.65097,172.86572 419.69809,181.35796 423.2103,141.21347 385.98856,149.12526 "
   id="polygon5128" />
		<polyline
   class="st2"
   points="421.24985,143.42934 417.73767,183.57384 457.69052,175.08159 456.46021,189.14417     416.50739,197.63634 412.99518,237.78085 379.37354,244.92735 382.88565,204.78287 342.93289,213.2751 344.16324,199.21257     384.11606,190.72035 387.6282,150.5759 421.24985,143.42934   "
   id="polyline5130" />
		<g
   id="g5145">
			<defs
   id="defs5133">
				<polygon
   id="SVGID_4_"
   points="379.37354,244.92735 412.995,237.78084 416.50732,197.63632 456.46014,189.14426 457.69052,175.08168 417.73764,183.57384 421.24991,143.42934 387.6282,150.5759 " />
			</defs>
			<clipPath
   id="SVGID_2_">
				<use
   xlink:href="#SVGID_4_"
   style="overflow:visible"
   id="use5135" />
			</clipPath>
			
				<linearGradient
   id="SVGID_3_"
   gradientUnits="userSpaceOnUse"
   x1="372.29675"
   y1="220.39174"
   x2="441.62811"
   y2="198.2265"
   gradientTransform="matrix(1,0,0,0.9563,15.04796,-7.04838)">
				<stop
   offset="0.2"
   style="stop-color:#828282"
   id="stop5138" />
				<stop
   offset="0.95"
   style="stop-color:#414141"
   id="stop5140" />
			</linearGradient>
			<rect
   x="379.37354"
   y="143.42934"
   class="st3"
   width="78.316994"
   height="101.49802"
   clip-path="url(#SVGID_2_)"
   id="rect5143"
   style="fill:url(#SVGID_3_)" />
		</g>
		<g
   id="g5160">
			<defs
   id="defs5148">
				<polygon
   id="SVGID_1_"
   points="384.11606,190.72035 344.16324,199.21257 342.93289,213.2751 382.88565,204.78287 " />
			</defs>
			<clipPath
   id="SVGID_5_">
				<use
   xlink:href="#SVGID_1_"
   style="overflow:visible"
   id="use5150" />
			</clipPath>
			
				<radialGradient
   id="SVGID_6_"
   cx="290.7204"
   cy="103.94952"
   r="27.774561"
   gradientTransform="matrix(0.72866,0,0,0.72866,136.57883,120.86883)"
   gradientUnits="userSpaceOnUse">
				<stop
   offset="0.1"
   style="stop-color:#FFFFFF"
   id="stop5153" />
				<stop
   offset="1"
   style="stop-color:#828282"
   id="stop5155" />
			</radialGradient>
			<circle
   class="st4"
   cx="349.44095"
   cy="197.91959"
   r="20.2383"
   clip-path="url(#SVGID_5_)"
   id="circle5158"
   style="fill:url(#SVGID_6_)" />
		</g>
	</g>
	<path
   id="ス_6_"
   class="st5"
   d="m 386.53137,216.62961 13.80252,-2.93382 c -0.7326,4.80743 -3.01279,11.12311 -10.73959,12.76549 l -3.99741,0.84969 -0.31665,3.6192 4.08606,-0.8688 c 5.28876,-1.12389 7.90878,-2.42854 11.27695,-5.93779 0.75009,0.45711 1.70367,1.49611 2.15686,3.08263 l 6.22018,-1.32214 c -0.75967,-1.13774 -4.18637,-3.68463 -6.26108,-4.15675 2.62805,-3.48965 3.15817,-5.78802 3.70825,-8.32259 0.1951,-0.91743 0.67297,-1.35719 1.1796,-1.46489 l 0.94165,-0.20015 0.30273,-3.46014 -22.03937,4.68462 z" />
	<path
   id="ラ_1_"
   class="st5"
   d="m 409.4516,188.5916 -19.86823,4.22313 0.26956,-3.08055 19.86816,-4.22307 z m 0.69992,1.60666 -21.71146,4.61493 -0.31055,3.5495 15.89294,-3.37805 c -0.43961,5.02495 -4.66748,7.72639 -10.64072,8.996 l -5.85254,1.24399 -0.31375,3.58691 8.14703,-1.7317 c 5.49014,-1.16696 13.66846,-4.07333 14.47849,-13.33195 z" />
	<path
   id="プ_1_"
   class="st5"
   d="m 417.76962,160.43745 c -0.40826,-1.92087 -2.29648,-3.14708 -4.21735,-2.73877 -1.92087,0.40828 -3.14703,2.29648 -2.73877,4.21735 0.12146,0.5715 0.38541,1.07063 0.73074,1.4944 l -20.6521,4.38977 -0.32071,3.66542 13.89178,-2.95282 c -0.73651,4.80821 -2.95844,11.11142 -10.77988,12.77394 l -4.04633,0.86008 -0.31665,3.61916 4.13605,-0.87946 c 11.95245,-2.54059 15.35043,-9.39738 16.92905,-16.61992 0.20038,-0.9169 0.6799,-1.35866 1.19269,-1.46767 l 0.95319,-0.20258 0.19629,-2.24332 c 0.69131,0.34111 1.49069,0.47444 2.30322,0.30176 1.92088,-0.40831 3.14711,-2.29645 2.73878,-4.21734 z m -3.22204,1.94373 c -0.66522,0.14139 -1.31903,-0.28322 -1.46045,-0.94846 -0.14139,-0.66518 0.28323,-1.31906 0.94846,-1.4604 0.66519,-0.1414 1.31906,0.28322 1.46045,0.94839 0.14135,0.66524 -0.28327,1.31907 -0.94846,1.46047 z" />
</g>
<g
   id="リズム天国_ザ_x30FB_ベスト_モア_x30FB_オブ_x30FB_ザ_x30FB_ベスト_1_"
   transform="scale(1.3333334)">
	<path
   id="ト_2_"
   class="st0"
   d="m 366.11703,267.54019 0.65567,-7.49442 c -5.59042,-4.46062 -13.34274,-2.74207 -13.34274,-2.74207 l 0.45297,-5.17711 c 0.0746,-0.85249 0.84842,-1.69719 1.73184,-1.88495 l 0.68201,-0.14497 0.30423,-3.47781 -12.52426,2.66205 -0.30423,3.47791 1.21149,-0.25751 c 0.59232,-0.1259 1.02655,0.23688 0.97702,0.80264 l -1.40363,16.04282 c -0.0745,0.85251 -0.84845,1.69711 -1.73181,1.88492 l -0.68195,0.14493 -0.30435,3.47791 12.52426,-2.66214 0.30429,-3.47787 -1.21149,0.25751 c -0.59235,0.12592 -1.02652,-0.23685 -0.97702,-0.80258 l 0.5744,-6.56543 c 1e-5,-2e-5 5.75984,-1.59514 13.0633,5.93617 z" />
	<path
   id="ス_4_"
   class="st0"
   d="m 328.54843,270.90527 c 3.27802,-4.31274 3.93707,-7.14929 4.62073,-10.27722 0.24249,-1.1322 0.83881,-1.67615 1.47147,-1.81064 l 1.17593,-0.24997 0.37347,-4.26871 -27.52295,5.85022 -0.39563,4.52203 17.23672,-3.66382 c -0.90863,5.93188 -3.74829,13.72913 -13.39755,15.78015 l -4.992,1.0611 -0.39062,4.46494 5.10266,-1.08496 c 6.60468,-1.4035 9.87555,-3.0213 14.078,-7.36063 0.93756,0.56134 2.13004,1.83972 2.69827,3.79501 l 7.76782,-1.65109 c -0.95043,-1.40078 -5.23416,-4.53088 -7.82632,-5.10641 z" />
	<path
   id="ベ_3_"
   class="st0"
   d="m 301.73099,279.52759 -0.39804,4.54959 -6.63263,1.40982 c -0.89941,0.19119 -1.83499,-0.0771 -2.49643,-0.71582 l -14.75235,-14.24619 -1.86407,15.60773 -10.10349,2.14755 0.2963,-3.38657 1.03564,-0.22012 c 0.62018,-0.13016 1.12836,-0.61356 1.228,-1.43671 l 1.80981,-14.95618 10.12433,-2.15198 c 1.92731,-0.40967 3.93213,0.16522 5.34949,1.53394 l 12.12686,11.71078 c 0.66632,0.64346 1.33994,0.77835 1.91006,0.65717 z m -5.51743,-11.92868 c 1.27075,-0.26468 2.09027,-1.48917 1.82562,-2.75989 -0.26468,-1.27075 -1.4892,-2.0903 -2.75992,-1.82562 -1.27072,0.26465 -2.07184,1.48932 -1.82559,2.75989 0.26465,1.27075 1.48932,2.07186 2.75989,1.82562 z m -5.56396,1.11917 c 1.27054,-0.24628 2.09018,-1.48911 1.82556,-2.75983 -0.26465,-1.27069 -1.48914,-2.09021 -2.75983,-1.82553 -1.27069,0.26465 -2.07184,1.48926 -1.82556,2.7598 0.26465,1.27072 1.48932,2.07187 2.75983,1.82556 z" />
	<polygon
   id="_x2605__3_"
   class="st0"
   points="252.35495,278.46808 248.38283,279.90134 251.26103,282.07028 250.60374,286.15018 254.13741,283.53259 257.68683,284.6409 256.99997,280.83902 259.86176,277.41101 255.89017,277.69373 254.10875,274.48636 " />
	<path
   id="ザ_2_"
   class="st0"
   d="m 234.73523,279.93158 4.53302,-0.96353 -0.28531,3.26108 -4.53302,0.96353 -0.71588,8.18253 c -0.36049,4.12039 -2.83264,7.08444 -6.36679,7.8237 l -17.46289,3.71191 0.36212,-4.13913 12.48785,-2.65439 c 2.39917,-0.51318 3.67155,-2.461 3.91492,-5.24277 l 0.5374,-6.14227 -8.21312,1.74576 -0.52649,6.01797 -7.86481,1.67172 0.26865,-3.0705 0.81197,-0.17261 c 0.8736,-0.18561 1.23674,-0.802 1.31184,-1.65991 l 0.13475,-1.54022 -5.42194,1.15247 0.28531,-3.26108 5.42194,-1.15247 0.13329,-1.52332 c 0.0505,-0.57782 -0.36774,-0.92377 -1.31229,-0.72296 l -0.59911,0.1272 0.26915,-3.07648 9.86551,-2.09698 -0.26915,3.07663 -0.81015,0.17218 c -0.87595,0.18619 -1.23874,0.80432 -1.31316,1.65417 l -0.1,1.14313 8.21307,-1.74576 0.13341,-1.52448 c 0.0506,-0.57812 -0.37021,-0.92209 -1.31339,-0.72162 l -0.62639,0.13312 0.26912,-3.07657 11.22774,-2.38651 -0.26918,3.0766 -0.76808,0.16324 c -0.88559,0.18823 -1.23338,0.77866 -1.30952,1.64899 z m 13.55493,-6.07733 c -0.24261,-1.16501 -1.36523,-1.91632 -2.53021,-1.67368 -1.16496,0.24261 -1.89944,1.36536 -1.67368,2.53021 0.24265,1.16498 1.3654,1.89944 2.53021,1.67368 1.16501,-0.24264 1.91633,-1.36523 1.67368,-2.53021 z m -7.6311,-0.64752 c -1.16495,0.24261 -1.89941,1.36533 -1.67365,2.53015 0.24261,1.16495 1.36536,1.89941 2.53015,1.67361 1.16481,-0.22577 1.91626,-1.36517 1.67365,-2.53015 -0.24262,-1.16495 -1.3652,-1.91626 -2.53015,-1.67361 z" />
	<polygon
   id="_x2605__2_"
   class="st0"
   points="193.37181,291.00531 189.3997,292.43857 192.27789,294.60748 191.62061,298.68741 195.15428,296.06982 198.7037,297.17813 198.01685,293.37625 200.87863,289.94824 196.90704,290.23096 195.12563,287.02359 " />
	<path
   id="ブ_1_"
   class="st0"
   d="m 177.62276,284.74677 c -0.22247,-1.08807 0.45724,-2.18375 1.56613,-2.40445 1.08809,-0.22247 2.16115,0.47629 2.40443,1.56613 0.22249,1.0881 -0.45547,2.1629 -1.56613,2.40445 -1.08807,0.22244 -2.16116,-0.47629 -2.40443,-1.56613 z m 8.83842,-1.87305 c -0.22072,-1.10892 -1.31462,-1.80942 -2.40445,-1.56613 -1.11067,0.24155 -1.78859,1.31638 -1.56613,2.40445 0.24153,1.11069 1.31638,1.78864 2.40443,1.56613 1.11066,-0.24155 1.80942,-1.31461 1.56615,-2.40445 z m -29.72748,14.00586 17.14423,-3.64417 c -0.90892,5.93396 -3.65112,13.71298 -13.30376,15.76471 l -4.99373,1.06146 -0.39073,4.46652 5.10445,-1.08539 c 14.75085,-3.13538 18.94432,-11.5976 20.89258,-20.51108 0.24731,-1.13159 0.83908,-1.67679 1.47197,-1.81131 l 1.17632,-0.25003 0.37363,-4.27023 -27.07918,5.75592 z" />
	<path
   id="オ_1_"
   class="st0"
   d="m 146.18944,294.67856 0.39758,-4.54425 -7.91583,1.68256 -0.22803,2.6062 0.53479,-0.11365 c 0.80518,-0.17114 1.16467,0.11957 1.12183,0.60925 l -0.094,1.07428 -15.62805,3.32184 -0.39728,4.54126 9.81866,-2.08691 c -0.4826,4.78369 -1.65991,10.08868 -10.68671,12.00739 l -0.36768,4.20221 1.96643,-0.41791 c 10.65521,-2.26483 13.14941,-9.14349 14.74481,-15.28351 l -0.75,8.57245 c -0.20618,2.35651 -1.29144,4.00806 -3.3396,4.44611 l -0.79755,0.16956 -0.30682,3.50635 5.04486,-1.07233 c 3.01703,-0.63116 5.12616,-3.14532 5.43152,-6.63568 l 0.91669,-10.47766 c 0.0997,-1.1394 1.04785,-2.2475 2.11774,-2.47491 l 3.76746,-0.80078 0.35376,-4.04437 z" />
	<polygon
   id="_x2605__1_"
   class="st0"
   points="110.27916,308.66721 106.30704,310.10046 109.18524,312.26938 108.52795,316.3493 112.06162,313.73172 115.61105,314.84003 114.92419,311.03815 117.78598,307.61014 113.81438,307.89285 112.03297,304.68546 " />
	<path
   id="ア_1_"
   class="st0"
   d="m 75.33424,316.21375 10.73186,-2.2811 -0.67929,7.76474 c -0.3773,4.31256 -3.96587,8.50644 -8.01532,9.36716 l -5.31009,1.12869 0.30087,-3.4393 2.307,-0.49033 c 2.12182,-0.45102 3.20558,-1.86539 3.31314,-3.09506 l 0.41233,-4.71371 c 0.07549,-0.86292 -0.52017,-1.42276 -1.33041,-1.25055 l -2.02945,0.4314 z m -1.33368,-6.18488 -0.39724,4.54086 18.87061,-4.01102 c -0.40737,4.65613 -2.74014,6.24414 -4.73157,6.66742 l -0.25126,2.87204 1.40829,-0.29929 c 3.13828,-0.66711 7.67059,-3.5094 9.00015,-8.81644 0.28712,-1.1459 0.71169,-2.21597 1.67804,-2.42142 l 1.59212,-0.33844 0.35381,-4.04391 z" />
	<path
   id="モ_1_"
   class="st0"
   d="m 68.11768,315.06357 0.33739,-3.85596 -25.7608,5.47559 -0.33733,3.85599 9.53736,-2.02722 -0.39206,4.48129 -9.53736,2.02725 -0.33823,3.86548 9.53741,-2.02722 -0.0358,0.40933 c -0.43699,4.99429 3.98464,8.52768 10.43533,7.15652 l 4.95232,-1.05264 0.33895,-3.87405 -3.00671,0.63907 c -3.84389,0.81442 -6.279,0.25439 -5.87847,-4.32309 l 0.0358,-0.4093 9.38197,-1.99423 0.33817,-3.86554 -9.38197,1.9942 0.39206,-4.48123 z" />
	<path
   id="ト_1_"
   class="st0"
   d="m 332.17929,226.97243 1.16611,-13.32864 c -9.94247,-7.93314 -23.72983,-4.87671 -23.72983,-4.87671 l 0.8056,-9.20743 c 0.13263,-1.51613 1.50891,-3.0184 3.08005,-3.35233 l 1.21292,-0.25784 0.54111,-6.18523 -22.27417,4.73441 -0.54108,6.18541 2.1546,-0.45799 c 1.05341,-0.22392 1.82568,0.4213 1.73761,1.42751 l -2.49631,28.53183 c -0.1326,1.51619 -1.50894,3.0183 -3.08002,3.35228 l -1.21283,0.25778 -0.54126,6.18539 22.27417,-4.73457 0.54114,-6.18535 -2.1546,0.45798 c -1.05347,0.22392 -1.82562,-0.42123 -1.73761,-1.42738 l 1.02158,-11.67648 c 0,-2e-5 10.24375,-2.83691 23.23282,10.55736 z" />
	<path
   id="ス_1_"
   class="st0"
   d="m 265.36426,232.9572 c 5.82986,-7.67015 7.00198,-12.7149 8.21786,-18.27785 0.43124,-2.01361 1.49176,-2.98103 2.61694,-3.22023 l 2.0914,-0.44453 0.66425,-7.59183 -48.9491,10.40453 -0.70363,8.04233 30.6552,-6.51602 c -1.61597,10.54976 -6.66623,24.41698 -23.8273,28.0647 l -8.87817,1.88715 -0.69472,7.94083 9.075,-1.92961 c 11.74631,-2.49612 17.56351,-5.37329 25.03745,-13.09074 1.66745,0.99835 3.78827,3.27193 4.79883,6.74939 l 13.81494,-2.93645 c -1.69035,-2.49131 -9.30888,-8.05814 -13.91895,-9.08167 z" />
	<path
   id="ベ_1_"
   class="st0"
   d="m 217.66991,248.29182 -0.70792,8.09135 -11.79601,2.50735 c -1.59958,0.34 -3.2635,-0.13715 -4.43983,-1.2731 l -26.23677,-25.33658 -3.31523,27.75803 -17.96886,3.81943 0.52692,-6.02295 1.84192,-0.39151 c 1.10295,-0.23145 2.00674,-1.09119 2.18393,-2.55511 l 3.21877,-26.59927 18.00592,-3.82727 c 3.42764,-0.72859 6.99323,0.29385 9.51395,2.72804 l 21.56738,20.82742 c 1.18507,1.14438 2.38307,1.38432 3.39702,1.16875 z m -9.81264,-21.21495 c 2.26003,-0.47073 3.71751,-2.64848 3.24683,-4.90842 -0.47069,-2.26003 -2.64848,-3.71754 -4.90842,-3.24681 -2.25998,0.47064 -3.68478,2.6487 -3.24683,4.90842 0.47069,2.25998 2.64875,3.68477 4.90842,3.24681 z m -9.89542,1.99041 c 2.25964,-0.43796 3.71738,-2.6483 3.24673,-4.90828 -0.47064,-2.2599 -2.64839,-3.71738 -4.90829,-3.24669 -2.25989,0.47069 -3.68472,2.64865 -3.24672,4.90829 0.47065,2.25994 2.6487,3.68473 4.90828,3.24668 z" />
	<polygon
   id="_x2605_"
   class="st0"
   points="129.85555,246.4075 122.79121,248.95654 127.91003,252.81392 126.74107,260.06998 133.02562,255.41464 139.33821,257.38577 138.11665,250.62418 143.20628,244.52753 136.14288,245.03032 132.97466,239.32607 " />
	<path
   id="ザ_1_"
   class="st0"
   d="m 98.5192,249.01028 8.0619,-1.71361 -0.50742,5.79979 -8.06189,1.71361 -1.27317,14.55244 c -0.64112,7.32806 -5.03782,12.59958 -11.32323,13.91431 l -31.05741,6.60156 0.644,-7.36136 22.20942,-4.72079 c 4.2669,-0.91266 6.52979,-4.37677 6.96261,-9.32416 l 0.95576,-10.92389 -14.60686,3.1048 -0.93635,10.70285 -13.98743,2.97311 0.47779,-5.46078 1.44405,-0.30698 c 1.55368,-0.33014 2.19952,-1.42639 2.3331,-2.95215 l 0.23965,-2.73923 -9.64281,2.04965 0.50742,-5.7998 9.64281,-2.04965 0.23703,-2.70915 c 0.08983,-1.02769 -0.65401,-1.6429 -2.33388,-1.2858 l -1.06549,0.2262 0.47868,-5.47142 17.54561,-3.72945 -0.47868,5.47169 -1.44083,0.30624 c -1.55785,0.33115 -2.20307,1.43048 -2.33543,2.94191 l -0.17783,2.03304 14.60681,-3.1048 0.23725,-2.71127 c 0.08994,-1.02814 -0.6584,-1.63991 -2.33582,-1.28336 l -1.11401,0.23676 0.47862,-5.47163 19.96832,-4.24438 -0.47874,5.47169 -1.366,0.29034 c -1.57503,0.33476 -2.19357,1.3848 -2.32899,2.93269 z m 24.1072,-10.80841 c -0.43149,-2.07195 -2.42805,-3.40816 -4.49993,-2.97661 -2.07188,0.43149 -3.37813,2.42827 -2.97661,4.49992 0.43155,2.07188 2.42833,3.37814 4.49993,2.97661 2.07195,-0.43153 3.40816,-2.42803 2.97661,-4.49992 z m -13.57177,-1.15159 c -2.07183,0.43149 -3.37808,2.42821 -2.97655,4.49982 0.43149,2.07182 2.42827,3.37808 4.49982,2.9765 2.07161,-0.40154 3.40804,-2.42795 2.97655,-4.49983 -0.43149,-2.07183 -2.428,-3.40804 -4.49982,-2.97649 z" />
	<path
   id="国_1_"
   class="st0"
   d="m 408.51651,106.26066 3.90585,-0.83018 -0.46964,5.36802 -3.90582,0.83018 z m 3.17761,7.4936 -3.79987,0.80777 c -2.2196,0.47173 -3.23373,-0.29929 -3.11142,-1.69666 l 0.77664,-8.87689 7.12155,-1.51393 0.4133,-4.72435 -7.12155,1.51371 0.63263,-7.23061 c 0.20084,-2.29469 1.3208,-3.53067 3.1442,-3.91835 l 4.26706,-0.90689 0.38507,-4.40148 -24.44156,5.19524 -0.38507,4.40137 3.84763,-0.81784 c 2.68945,-0.57162 3.14734,0.75141 3.06458,1.69704 l -0.71295,8.14928 -7.12158,1.51376 -0.41339,4.72446 7.12167,-1.51371 -0.69632,7.95828 c -0.19812,2.26405 -1.33493,3.54328 -3.09729,3.91796 l -4.31488,0.91706 -0.38251,4.37235 24.44156,-5.19524 z m 23.91342,-45.36569 -4.90875,56.10719 -65.08609,13.8345 4.90875,-56.10719 z m -14.5104,10.25496 -34.39859,7.31165 c -1.84906,0.38724 -3.06088,1.87209 -3.24136,3.93853 l -3.34216,38.20097 34.39862,-7.31171 c 1.70999,-0.35377 3.04776,-1.72601 3.24133,-3.93853 z" />
	<path
   id="く_1_"
   class="st0"
   d="m 413.12524,65.51658 c -0.33344,-0.12157 -0.85132,-0.31214 -0.85107,-0.61282 2.7e-4,-0.25271 0.2309,-0.49413 0.79437,-1.05904 2.24554,-2.26895 2.49863,-2.52744 4.12274,-4.36412 l -1.23041,-0.64045 c -0.80652,1.01368 -1.11685,1.35583 -3.44318,3.85887 -1.19742,1.28912 -1.77411,2.01295 -1.7746,2.60215 -6.1e-4,0.76987 0.82819,1.09907 1.76004,1.46602 1.73627,0.67736 3.39191,1.4923 4.94431,2.48536 l 1.1402,-1.24077 c -1.04586,-0.71589 -3.77194,-1.89233 -5.4624,-2.4952 z" />
	<path
   id="ご_1_"
   class="st0"
   d="m 390.35208,66.90515 c 0.60736,0.64062 1.00345,1.3624 1.10886,1.55974 l -0.8187,0.68665 c -0.52524,-0.95036 -0.89877,-1.35973 -1.08505,-1.57669 z m 1.72839,1.2083 0.81772,-0.68692 c -0.24503,-0.47301 -0.62988,-1.02613 -1.0965,-1.48875 l -0.81866,0.67469 c 0.4552,0.50137 0.68897,0.81812 1.09744,1.50098 z m -3.3688,5.07612 c -1.75345,0.37273 -3.99695,0.82473 -3.99567,-0.76319 2.7e-4,-0.25655 0.0485,-1.15833 1.0303,-2.356 l -0.94608,-0.53177 c -0.85336,1.18278 -1.36868,2.06199 -1.36957,3.18534 -8.2e-4,0.96532 0.61783,1.76214 1.42432,1.99339 0.99283,0.28962 1.98611,0.18845 4.28757,-0.3008 1.81155,-0.38507 2.62897,-0.66869 3.03809,-0.81672 l -0.0455,-1.35822 c -1.13327,0.41197 -2.27887,0.70465 -3.42346,0.94797 z m -1.87674,-5.95199 0.84134,0.68837 c 1.35556,-1.15533 2.3959,-1.88961 3.86893,-2.47119 l 10e-4,-1.19695 c -0.74786,0.15893 -4.4404,0.95575 -5.27002,1.13208 -0.5842,0.12414 -2.0332,0.43216 -2.38431,0.49487 l -10e-4,1.38001 c 0.74783,-0.20769 1.75351,-0.44583 4.16074,-0.99428 -0.76053,0.55245 -0.84241,0.6191 -1.21659,0.96709 z" />
	<path
   id="天_1_"
   class="st0"
   d="m 330.98709,141.26599 0.54947,-6.28076 24.27005,-5.1588 0.86057,-9.83672 -24.27002,5.15881 0.77057,-8.80793 24.27002,-5.15881 0.85846,-9.81252 -65.5542,13.93416 -0.8584,9.81246 23.8746,-5.07476 -0.7706,8.80794 -23.8746,5.07475 -0.86057,9.83672 23.8746,-5.07475 -0.31824,3.6373 c -1.01907,11.64842 -7.70462,15.81171 -17.4874,17.89786 l -7.65134,1.62636 -0.86246,9.85846 16.66342,-3.54196 c 12.7981,-2.71445 17.57904,-6.74763 23.55096,-18.10738 2.61639,1.31465 9.55563,6.81364 12.24255,10.49918 l 17.23413,-3.66333 c -4.53739,-5.98088 -21.80686,-14.26974 -26.51157,-15.62628 z" />
	<path
   id="ん_1_"
   class="st0"
   d="m 341.23901,96.66121 c -0.24826,2.71811 -0.85229,3.86471 -1.78024,4.062 -0.98544,0.2094 -0.98349,-0.894 -0.98288,-1.24538 l 9.5e-4,-0.52116 c 0.002,-0.87298 -0.0414,-2.74185 -1.90756,-2.34521 -0.78821,0.1676 -1.241,0.6032 -1.49622,0.8513 0.19846,-0.69626 1.26978,-4.08656 1.50333,-4.86332 l -1.45978,0.03158 c -0.51376,1.82979 -2.14621,7.66582 -3.0556,10.7188 l 1.33209,0.1164 c 0.0818,-0.34443 0.66553,-2.7831 0.68921,-2.8483 0.24475,-0.73078 0.9082,-2.34972 2.21835,-2.62828 0.86942,-0.18472 0.86804,0.60287 0.86664,1.37862 l -7.3e-4,0.41203 c -4.9e-4,0.267 0.0331,0.9865 0.19379,1.40075 0.25449,0.66068 0.99539,1.10952 1.94598,0.90745 2.13235,-0.45328 2.8313,-2.38313 3.14978,-5.31049 z" />
	<path
   id="て_1_"
   class="st0"
   d="m 311.39426,99.74343 c 0.53143,-0.38418 1.22113,-0.81445 2.23785,-1.03057 0.48587,-0.10329 0.74619,-0.13509 0.98355,-0.16199 l -0.0206,-1.32998 c -1.16409,0.29457 -6.35132,1.60966 -7.32309,1.86337 -0.77942,0.20129 -1.6279,0.42876 -2.4072,0.59437 l 0.0427,1.33737 c 1.75217,-0.52588 3.50348,-1.03997 5.26666,-1.52099 -2.52316,2.14281 -3.12451,4.1133 -3.12671,5.32989 -0.002,1.09917 0.66226,2.07983 1.67804,2.40731 1.02774,0.33693 2.23627,0.37528 4.66638,-0.12969 l 0.18289,-1.44444 c -3.25479,0.79805 -5.23105,0.58053 -5.22784,-1.21569 0.003,-1.5946 1.44117,-3.51895 3.04741,-4.69896 z" />
	<path
   id="ム_1_"
   class="st0"
   d="m 278.13745,147.53319 -2.59128,0.55083 c -1.69617,0.36514 -3.47119,-0.28523 -4.5636,-2.24872 l -5.01355,-9.01129 -17.18051,3.65182 6.59309,11.89432 -21.19057,4.50423 16.06552,-39.76368 c 0.7021,-1.73773 1.7711,-2.77189 3.13806,-3.07239 l 4.31158,-0.91644 0.59451,-6.79545 -21.1624,4.49821 -19.0757,47.21429 c -0.73882,1.82866 -1.93225,2.67448 -3.14622,2.9324 l -2.62369,0.55769 -0.85939,9.82329 71.48474,-15.19467 z" />
	<path
   id="ズ_1_"
   class="st0"
   d="m 182.01814,139.24246 c -0.49155,-2.40414 1.01027,-4.82498 3.46033,-5.31264 2.40414,-0.49155 4.77509,1.05237 5.31265,3.46039 0.49159,2.40414 -1.00635,4.77896 -3.4604,5.31259 -2.40402,0.49155 -4.77503,-1.05236 -5.31258,-3.46034 z m -2.33841,40.79991 c 7.24525,-9.53235 8.70195,-15.8019 10.21304,-22.71542 0.53593,-2.50249 1.85394,-3.70479 3.2523,-4.00206 l 2.59914,-0.55246 0.82552,-9.43501 -60.83318,12.93059 -0.87445,9.99489 38.09781,-8.09802 c -2.00832,13.11108 -8.2847,30.34505 -29.61221,34.87839 l -11.03366,2.34531 -0.86339,9.86873 11.27827,-2.39807 c 14.59813,-3.10216 21.82765,-6.67786 31.11617,-16.26898 2.07227,1.24074 4.70799,4.06628 5.9639,8.38805 l 17.16901,-3.64938 c -2.10076,-3.09616 -11.56893,-10.01452 -17.29827,-11.28656 z m 21.86689,-44.9384 c -0.48767,-2.45012 -2.90463,-3.99791 -5.31259,-3.46034 -2.45406,0.53369 -3.95193,2.90845 -3.46039,5.31259 0.53368,2.45399 2.90855,3.95193 5.31258,3.46033 2.45399,-0.53363 3.99795,-2.90456 3.4604,-5.31258 z" />
	<path
   id="リ_3_"
   class="st0"
   d="m 79.58013,178.99472 -23.57938,5.01198 0.63712,-7.28203 1.94064,-0.41248 c 2.08801,-0.44383 2.95509,-1.90695 3.13315,-3.94148 L 63.02402,157.371 c 0.11985,-1.37051 -0.88049,-2.18907 -3.13809,-1.70917 l -1.43188,0.30391 0.63834,-7.2962 23.57938,-5.01196 -0.6384,7.29665 -1.93624,0.41159 c -2.09351,0.44493 -2.95988,1.91217 -3.13626,3.92769 l -1.31225,14.99982 c -0.12069,1.37907 0.89015,2.20131 3.14109,1.72279 l 1.42754,-0.30336 z m 17.88832,-38.4823 -0.63834,7.29665 1.49714,-0.31819 c 2.25422,-0.47919 3.26061,0.3347 3.14071,1.70576 l -2.2675,25.91704 c -0.57713,6.59744 -3.61545,11.22128 -9.34969,12.44786 l -29.84711,6.34413 -0.8588,9.81647 41.73786,-8.87178 c 8.44691,-1.76703 14.35159,-8.80563 15.2065,-18.5777 l 2.61261,-29.86195 c 0.18056,-2.06421 1.01101,-3.46552 3.1277,-3.91541 l 1.83579,-0.39023 0.63834,-7.2966 z" />
</g>
<path
   id="_x2122__1_"
   d="m 626.68159,200.64532 -0.84668,8.81193 -1.91577,0.41575 0.70728,-7.36127 -2.60079,7.77285 -2.05017,0.44531 -1.1403,-6.96037 -0.70728,7.36134 -1.93822,0.42108 0.84676,-8.81305 3.02808,-0.65677 1.15381,6.59249 0.0223,-0.004 2.45203,-7.37682 z m -19.17652,5.69358 3.11768,-0.6768 -0.69649,7.2498 2.12284,-0.4611 0.69649,-7.24972 3.00585,-0.65263 0.14966,-1.55784 -8.24642,1.79051 z"
   style="stroke-width:1.33333" />
<g
   id="Cogs_1_"
   transform="scale(1.3333334)">
	<g
   id="g5202">
		<path
   class="st6"
   d="m 457.08167,3.28921 c -2.04361,4e-5 -4.08456,0.14603 -6.10736,0.43688 -0.12173,0.02599 -0.24338,0.05251 -0.36493,0.07956 l -1.26181,4.94572 h 0.44333 c -4.97226,0.95497 -9.70511,2.88856 -13.92361,5.68845 l 0.15292,-0.15292 -4.4202,-2.47862 c -0.89886,0.62084 -1.77368,1.27577 -2.62256,1.96338 -1.54468,1.33847 -2.99179,2.78556 -4.33026,4.33027 -0.74768,0.91686 -1.45715,1.86423 -2.12656,2.83972 l 2.54547,4.29169 0.30194,-0.30196 c -2.81723,4.23443 -4.76077,8.98868 -5.71671,13.98403 l -5.06653,1.42627 c -0.27396,1.94292 -0.41434,3.90236 -0.42017,5.86449 -3e-5,2.04401 0.14597,4.0854 0.43686,6.1086 0.0541,0.26094 0.11066,0.52137 0.16959,0.78126 l 4.98557,1.27337 v -0.45486 c 0.99173,4.84603 2.91489,9.45341 5.66275,13.56639 l -0.43948,-0.43945 -2.47351,4.4112 c 0.67358,0.98228 1.38779,1.93611 2.14072,2.85899 1.33844,1.54469 2.78555,2.99179 4.33026,4.33025 0.83878,0.67867 1.70288,1.32545 2.59042,1.93899 l 4.35852,-2.58659 -0.185,-0.185 c 4.3342,2.90905 9.21848,4.89922 14.3515,5.84775 h -1.11273 l 1.37872,4.89691 c 0.20483,0.04602 0.41,0.09052 0.61548,0.13353 2.0228,0.29084 4.06375,0.43684 6.10736,0.43688 2.04141,-3.4e-4 4.08023,-0.14634 6.10086,-0.43688 l 1.28238,-5.02539 h -0.42273 c 5.21301,-0.96452 10.16827,-3.00325 14.55069,-5.98656 l 4.50757,2.5275 c 0.71121,-0.49916 1.4071,-1.01981 2.08673,-1.56121 1.54471,-1.33847 2.99182,-2.78558 4.33026,-4.33027 0.86981,-1.05337 1.68881,-2.14767 2.45425,-3.27916 l -2.61615,-4.4099 -0.0411,0.04102 c 2.53381,-4.03524 4.29053,-8.50879 5.1796,-13.18991 l 5.10764,-1.43658 c 0.26511,-1.93237 0.39822,-3.88057 0.39832,-5.83104 -3.4e-4,-0.7019 -0.0179,-1.40369 -0.0527,-2.10472 -0.0342,-0.70145 -0.0856,-1.40195 -0.15417,-2.10088 -0.069,-0.69888 -0.15506,-1.39596 -0.25827,-2.09061 -0.0341,-0.20456 -0.0696,-0.40886 -0.10666,-0.6129 l -5.02026,-1.2824 v 0.045 c -1.00769,-4.64774 -2.87415,-9.06652 -5.50342,-13.0293 l 0.01,0.0099 2.53903,-4.52814 c -0.38715,-0.51952 -0.78601,-1.0302 -1.19629,-1.53166 -0.44556,-0.54316 -0.90442,-1.07528 -1.37613,-1.5959 -0.47144,-0.52021 -0.9556,-1.02877 -1.452,-1.52522 -0.49643,-0.49683 -1.005,-0.9814 -1.52521,-1.45327 -0.52066,-0.47128 -1.05276,-0.92971 -1.59595,-1.37487 -0.54266,-0.44569 -1.09619,-0.87799 -1.6601,-1.29652 -0.10846,-0.07718 -0.21725,-0.15384 -0.32639,-0.23 l -4.35339,2.58146 0.26855,0.26854 c -4.07645,-2.709 -8.63535,-4.60961 -13.42889,-5.59849 h 0.0248 L 463.42675,3.76148 C 463.41091,3.75914 463.3951,3.7568 463.3793,3.75447 462.68466,3.65129 461.98758,3.56517 461.28869,3.4962 460.58975,3.42721 459.88928,3.3754 459.1878,3.3408 458.48632,3.3064 457.78411,3.28924 457.08181,3.28931 Z"
   id="path5194" />
		<circle
   class="st7"
   cx="457.08228"
   cy="46.206871"
   r="30.34734"
   id="circle5196" />
		<path
   class="st8"
   d="m 457.08243,72.83936 c -14.68515,0 -26.63254,-11.94738 -26.63254,-26.63254 0,-14.68516 11.94739,-26.63254 26.63254,-26.63254 14.68518,0 26.63254,11.94738 26.63254,26.63254 0,14.68516 -11.94736,26.63254 -26.63254,26.63254 z m 0,-50.39709 c -13.10382,0 -23.76456,10.66073 -23.76456,23.76455 0,13.10382 10.66074,23.76455 23.76456,23.76455 13.10382,0 23.76456,-10.66073 23.76456,-23.76455 0,-13.10382 -10.66074,-23.76455 -23.76456,-23.76455 z"
   id="path5198" />
		<circle
   class="st6"
   cx="457.08228"
   cy="46.206871"
   r="8.9495296"
   id="circle5200" />
	</g>
	<g
   id="g5212">
		<path
   class="st6"
   d="m 386.72089,0 c -1.4982,3e-5 -2.99451,0.10706 -4.47745,0.32029 -0.0893,0.01906 -0.17844,0.0385 -0.26755,0.05833 l -0.92508,3.62585 h 0.32501 c -3.64529,0.70011 -7.11508,2.11769 -10.20779,4.17036 l 0.11212,-0.11211 -3.24057,-1.81715 c -0.65897,0.45516 -1.30035,0.9353 -1.92267,1.43941 -1.13245,0.98127 -2.19336,2.04218 -3.17465,3.17464 -0.54813,0.67218 -1.06827,1.36672 -1.55902,2.08188 l 1.86615,3.14636 0.22137,-0.22138 c -2.0654,3.10438 -3.49026,6.58986 -4.1911,10.25208 l -3.71442,1.04564 c -0.20084,1.42441 -0.30377,2.86092 -0.30804,4.29942 0,1.49852 0.10703,2.99512 0.32031,4.47838 0.0396,0.1913 0.0811,0.38223 0.1243,0.57276 l 3.65509,0.93354 v -0.33347 c 0.72702,3.55276 2.13696,6.93056 4.15149,9.94591 l -0.32217,-0.32217 -1.81342,3.23397 c 0.49384,0.72014 1.01743,1.41942 1.56943,2.09601 0.98126,1.13246 2.04218,2.19337 3.17462,3.17463 0.61496,0.49755 1.24844,0.97173 1.89914,1.42152 l 3.19534,-1.89631 -0.13562,-0.13563 c 3.17749,2.13271 6.7583,3.59176 10.52148,4.28715 h -0.81577 l 1.01077,3.59007 c 0.15018,0.03374 0.30057,0.06636 0.45123,0.09789 1.48294,0.21323 2.97925,0.32026 4.47745,0.32029 1.49664,-2.5e-4 2.99133,-0.10728 4.47272,-0.32029 l 0.94016,-3.68426 h -0.30991 c 3.82181,-0.70712 7.45462,-2.20177 10.66751,-4.38891 l 3.30463,1.85297 c 0.52142,-0.36595 1.03159,-0.74765 1.52985,-1.14457 1.13245,-0.98127 2.19339,-2.04218 3.17462,-3.17464 0.6377,-0.77225 1.23813,-1.57452 1.79929,-2.40405 l -1.91797,-3.23302 -0.0301,0.03008 c 1.8576,-2.95835 3.14551,-6.23803 3.79733,-9.66989 l 3.74454,-1.0532 c 0.19437,-1.41668 0.29193,-2.84496 0.29202,-4.2749 -2.7e-4,-0.51458 -0.0131,-1.02909 -0.0386,-1.54304 -0.0251,-0.51425 -0.0627,-1.02781 -0.11304,-1.54021 -0.0506,-0.51237 -0.11368,-1.02342 -0.18936,-1.53269 -0.025,-0.14997 -0.051,-0.29975 -0.0782,-0.44934 l -3.68051,-0.94016 v 0.03299 c -0.73877,-3.40739 -2.10709,-6.64692 -4.0347,-9.55215 l 0.007,0.0073 1.86145,-3.31971 c -0.28381,-0.38087 -0.57623,-0.75527 -0.87701,-1.1229 -0.32669,-0.3982 -0.66309,-0.78832 -1.00891,-1.17 -0.34561,-0.38138 -0.70056,-0.75422 -1.06448,-1.11819 -0.36395,-0.36424 -0.73682,-0.71949 -1.11819,-1.06543 -0.38168,-0.34551 -0.77182,-0.6816 -1.17001,-1.00796 -0.39786,-0.32675 -0.80365,-0.64368 -1.21707,-0.95051 -0.0795,-0.05658 -0.15927,-0.11279 -0.23929,-0.16862 l -3.19156,1.89254 0.19687,0.19687 C 399.2416,6.12619 395.89932,4.73281 392.38504,4.00783 h 0.0182 l -1.03058,-3.66166 c -0.0116,-0.00172 -0.0232,-0.00343 -0.0348,-0.00514 C 390.82861,0.26538 390.31757,0.20225 389.80518,0.15168 389.29279,0.1011 388.77924,0.06312 388.26499,0.03775 387.7507,0.01258 387.2359,0 386.72101,4e-5 Z"
   id="path5204" />
		<circle
   class="st7"
   cx="386.72134"
   cy="31.464149"
   r="22.248489"
   id="circle5206" />
		<path
   class="st8"
   d="m 386.72165,50.98894 c -10.76608,0 -19.52512,-8.75858 -19.52512,-19.52468 0,-10.7661 8.75903,-19.5251 19.52512,-19.5251 10.76609,0 19.52423,8.75901 19.52423,19.5251 0,10.76609 -8.75815,19.52468 -19.52423,19.52468 z m 0,-36.94762 c -9.60709,0 -17.42294,7.81587 -17.42294,17.42294 0,9.60665 7.81586,17.42251 17.42294,17.42251 9.6062,0 17.42209,-7.81587 17.42209,-17.42251 0,-9.60707 -7.81589,-17.42294 -17.42209,-17.42294 z"
   id="path5208" />
		<circle
   class="st6"
   cx="386.72134"
   cy="31.464149"
   r="6.5611501"
   id="circle5210" />
	</g>
</g>
<g
   id="Pilers_1_"
   transform="matrix(6.2156614,0,0,-6.2156614,-757.50936,1106.005)">
	<path
   class="st5"
   d="m 169.69962,161.25687 c -2.00206,-1.34404 -4.40384,-4.73483 -4.30588,-5.88699 0.71317,-0.0616 2.4072,0.6586 3.92059,1.69127 0.94054,0.64178 1.81133,1.40433 2.33357,2.17493 z m 0.13237,-1.15682 0.72845,-0.68494 -0.95738,-0.28784 z m -1.68129,-1.78827 c 0.24196,1.2e-4 0.43822,-0.20029 0.43834,-0.4476 0,-9e-5 0,-1.7e-4 0,-2.6e-4 2e-5,-0.24731 -0.19612,-0.44781 -0.4381,-0.44785 -9e-5,0 -1.7e-4,0 -2.4e-4,0 -0.24191,1.4e-4 -0.43793,0.20061 -0.4379,0.44785 -3e-5,0.24726 0.19598,0.44773 0.4379,0.44786 z"
   id="path5215" />
	<path
   class="st9"
   d="m 177.43018,170.65738 c -5.49852,-1.27757 -8.49347,-9.77946 -8.49347,-9.77946 l 0.91478,-1.46919 c 0.0216,-0.01 1.47556,-0.89066 1.47556,-0.89066 0,0 8.46887,3.08743 9.68654,8.59953 0,0 0.0286,0.87135 -0.53127,0.93878 -0.6797,0.0819 -0.96054,-0.26927 -0.96054,-0.26927 -2.91908,-6.06998 -6.35089,-6.09055 -8.33554,-7.1736 1.06015,1.99728 0.89499,5.57588 6.92986,8.55933 0,0 0.3481,0.2845 0.25883,0.96326 -0.0735,0.55914 -0.94467,0.5213 -0.94467,0.5213 z"
   id="path5217" />
</g>
<path
   id="Wrench_1_"
   class="st10"
   d="m 126.09374,91.111898 c -13.40632,9.2e-4 -24.27405,10.868642 -24.275,24.274962 0.006,3.58045 0.80469,7.11515 2.33767,10.35081 l -83.757182,94.59937 c -0.64064,-0.0802 -1.285067,-0.12682 -1.930587,-0.13955 C 8.2687071,220.19745 1.3333354e-5,228.46613 0,238.66607 v 2e-5 c -1.3333314e-5,10.19995 8.2686537,18.46866 18.468574,18.46866 2.7e-5,0 4e-5,0 6.7e-5,0 10.199934,0 18.468614,-8.26868 18.468628,-18.46862 v -4e-5 c -0.01488,-1.38912 -0.18644,-2.77213 -0.511441,-4.12282 l 84.548042,-95.48906 c 1.68019,0.38473 3.39658,0.5894 5.12014,0.6106 13.40764,6.5e-4 24.2772,-10.86786 24.27785,-24.27547 0,-8.3e-4 0,-0.002 0,-0.002 -0.003,-5.01562 -1.55869,-9.90729 -4.45432,-14.00265 l -1.2328,12.26395 -12.72627,5.73365 -11.33062,-8.15269 1.39561,-13.889258 11.34228,-5.108534 c -2.35296,-0.740413 -4.80504,-1.117853 -7.27175,-1.1194 z M 18.468654,232.59228 c 3.354214,6.2e-4 6.073174,2.7196 6.073814,6.07379 9.87e-4,3.35512 -2.71808,6.07578 -6.073187,6.07674 -2.13e-4,0 -4.13e-4,0 -6.27e-4,0 -3.355107,-6.1e-4 -6.074453,-2.72097 -6.073827,-6.07609 0,-2.3e-4 0,-4.3e-4 0,-6.5e-4 6.27e-4,-3.35423 2.719614,-6.07321 6.073827,-6.07379 z"
   style="stroke-width:1.33333" />
</svg>
