<?xml version="1.0" encoding="UTF-8" standalone="no"?>
<!-- Created with Inkscape (http://www.inkscape.org/) -->

<svg
   version="1.1"
   id="svg2"
   width="666.66669"
   height="493.58133"
   viewBox="0 0 666.66669 493.58133"
   sodipodi:docname="Rhythm World The Best+ More Of The Best (리듬 세상 더・베스트＋ 최고・중・더・베스트) Logo (Wordmark).ai"
   xmlns:inkscape="http://www.inkscape.org/namespaces/inkscape"
   xmlns:sodipodi="http://sodipodi.sourceforge.net/DTD/sodipodi-0.dtd"
   xmlns="http://www.w3.org/2000/svg"
   xmlns:svg="http://www.w3.org/2000/svg">
  <defs
     id="defs6">
    <clipPath
       clipPathUnits="userSpaceOnUse"
       id="clipPath16">
      <path
         d="M 0,370.186 H 500 V 0 H 0 Z"
         id="path14" />
    </clipPath>
  </defs>
  <sodipodi:namedview
     id="namedview4"
     pagecolor="#ffffff"
     bordercolor="#000000"
     borderopacity="0.25"
     inkscape:showpageshadow="2"
     inkscape:pageopacity="0.0"
     inkscape:pagecheckerboard="0"
     inkscape:deskcolor="#d1d1d1" />
  <g
     id="g8"
     inkscape:groupmode="layer"
     inkscape:label="Rhythm World The Best+ More Of The Best (리듬 세상 더・베스트＋ 최고・중・더・베스트) Logo (Wordmark)"
     transform="matrix(1.3333333,0,0,-1.3333333,0,493.58133)">
    <g
       id="g10">
      <g
         id="g12"
         clip-path="url(#clipPath16)">
        <g
           id="g18"
           transform="translate(358.8784,76.0346)">
          <path
             d="M 0,0 V -5.401 L 41.704,3.463 V 8.864 Z M 15.742,27.922 V 23.908 L 36.079,28.23 V 22.522 L 15.742,18.199 v -4.176 l 20.336,4.323 V 13.13 L 11.163,7.834 C 9.108,7.397 7.306,9.062 7.306,11.626 v 15.178 c 0,1.028 -0.16,1.323 -1.868,0.96 L 5.073,27.687 v 3.601 l 31.006,6.591 v -5.635 z"
             style="fill:#000000;fill-opacity:1;fill-rule:nonzero;stroke:none"
             id="path20" />
        </g>
        <g
           id="g22"
           transform="translate(309.4507,65.8725)">
          <path
             d="m 0,0 v -5.49 l 41.529,8.827 v 5.49 z m 38.284,20.136 -2.888,-6.678 c -7.862,-0.605 -14.131,4.907 -14.131,4.907 0,0 -6.332,-7.803 -14.577,-11.34 l -3.694,5.429 c 0,0 13.741,6.51 13.741,13.306 l 0.001,3.551 c 0,1.213 -0.784,1.208 -1.784,0.995 l -0.894,-0.19 v 3.392 l 10.404,2.211 v -7.617 c 0,-7.339 13.822,-7.966 13.822,-7.966"
             style="fill:#000000;fill-opacity:1;fill-rule:nonzero;stroke:none"
             id="path24" />
        </g>
        <g
           id="g26"
           transform="translate(268.9799,66.2299)">
          <path
             d="M 0,0 -4.947,-1.052 V 3.774 L 0,4.826 Z m 10.684,18.108 0.572,0.122 c 0.757,0.161 1.404,-0.068 1.404,-1.013 v -3.701 l -5.316,-1.13 v 8.062 l -9.389,-1.995 v -4.229 l 0.274,0.058 c 0.757,0.161 1.772,0.11 1.772,-0.836 L 0,10.825 -4.947,9.773 v 8.063 l -9.239,-1.964 v -4.167 l 0.347,0.074 c 0.757,0.161 1.868,0.196 1.868,-0.75 v -16.74 c 0,-1.684 1.127,-2.598 2.752,-2.252 L 7.344,-4.442 V 6.387 l 5.316,1.13 v -23.811 l 7.097,1.509 V 24.298 L 10.684,22.369 Z M 30.698,28.354 V -12.46 l -7.737,-1.644 v 35.162 c 0,0.997 -0.606,1.385 -1.41,1.214 l -0.773,-0.164 v 4.138 z"
             style="fill:#000000;fill-opacity:1;fill-rule:nonzero;stroke:none"
             id="path28" />
        </g>
        <g
           id="g30"
           transform="translate(248.2568,69.5775)">
          <path
             d="m 0,0 -4.443,-0.312 -2.013,3.51 -1.956,-4.354 -4.434,-1.574 3.233,-2.378 -0.727,-4.484 3.955,2.884 3.984,-1.196 -0.789,4.161 z"
             style="fill:#000000;fill-opacity:1;fill-rule:nonzero;stroke:none"
             id="path32" />
        </g>
        <g
           id="g34"
           transform="translate(187.0126,68.9642)">
          <path
             d="M 0,0 23.607,5.018 V -0.771 L 10.566,-3.544 v -13.082 l 13.041,2.772 v -5.498 l -15.07,-3.203 c -4.561,-0.969 -6.257,0.286 -6.257,4.436 v 12.938 c 0,1.618 -0.236,2.021 -1.683,2.009 L 0,-3.177 Z m 39.35,12.136 v -38.725 l -7.308,-1.554 v 19.335 l -8.435,-1.793 v 6.41 l 8.435,1.794 v 7.861 c 0,0.922 -1.027,0.78 -1.778,0.62 L 29.969,6.021 v 4.121 z"
             style="fill:#000000;fill-opacity:1;fill-rule:nonzero;stroke:none"
             id="path36" />
        </g>
        <g
           id="g38"
           transform="translate(179.2309,58.0141)">
          <path
             d="m 0,0 -4.442,-0.312 -2.013,3.51 -1.957,-4.354 -4.434,-1.574 3.233,-2.379 -0.727,-4.484 3.955,2.885 3.984,-1.197 -0.789,4.161 z"
             style="fill:#000000;fill-opacity:1;fill-rule:nonzero;stroke:none"
             id="path40" />
        </g>
        <g
           id="g42"
           transform="translate(142.5273,30.8471)">
          <path
             d="m 0,0 c 0,1.127 -0.182,2.976 -2.773,2.95 -2.525,-0.024 -4.848,-2.246 -4.848,-5.311 0,-2.958 1.826,-2.978 2.721,-2.988 C -2.258,-5.378 0,-2.761 0,0 M -0.026,9.449 V 7.177 C 0.557,7.111 1.126,7.025 1.657,6.904 5.402,6.052 6.681,3.337 6.681,0.71 c 0,-2.942 -1.506,-5.475 -4.457,-7.613 -2.641,-1.911 -5.289,-3.165 -9.694,-2.839 -2.696,0.199 -4.678,0.346 -6.016,3.422 -0.436,1.003 -0.656,2.047 -0.656,3.101 0,2.928 1.473,5.496 4.395,7.622 0.79,0.576 1.558,1.015 2.313,1.396 V 7.874 L -21.787,4.823 v 5.509 l 36.114,7.676 V 12.5 Z M -8.65,25.946 c 0,0.972 -0.082,1.233 -1.552,0.92 l -8.982,-1.909 v 5.303 l 30.688,6.523 V 31.48 L 2.453,29.557 c -1.424,-0.303 -1.552,-0.644 -1.552,-1.58 0,-3.42 10.603,-2.623 10.603,-2.623 L 8.992,19.309 c -6.836,-0.486 -13.179,3.492 -13.179,3.492 0,0 -4.615,-5.954 -11.784,-9.1 l -3.213,4.966 c 0,0 10.534,3.69 10.534,7.279"
             style="fill:#000000;fill-opacity:1;fill-rule:nonzero;stroke:none"
             id="path44" />
        </g>
        <g
           id="g46"
           transform="translate(111.5127,44.7855)">
          <path
             d="m 0,0 -4.442,-0.312 -2.013,3.51 -1.957,-4.354 -4.434,-1.574 3.233,-2.379 -0.727,-4.484 3.955,2.885 3.984,-1.197 -0.788,4.161 z"
             style="fill:#000000;fill-opacity:1;fill-rule:nonzero;stroke:none"
             id="path48" />
        </g>
        <g
           id="g50"
           transform="translate(74.9375,25.5267)">
          <path
             d="m 0,0 v 13.69 l -9.493,-2.017 v -3.96 l 0.74,0.157 c 0.769,0.164 1.349,-0.209 1.349,-1.163 v -8.28 l -15.958,-3.393 v -5.615 l 41.481,8.817 v 5.616 z m 7.059,21.124 -25.101,-5.335 v 5.857 l 32.143,6.833 c 0,-6.446 0.06,-14.428 -0.898,-21.382 L 6.072,5.581 c 0.626,5.249 0.987,11.245 0.987,15.543"
             style="fill:#000000;fill-opacity:1;fill-rule:nonzero;stroke:none"
             id="path52" />
        </g>
        <g
           id="g54"
           transform="translate(32.6704,45.9887)">
          <path
             d="m 0,0 v -3.914 l 0.731,0.155 c 0.761,0.162 1.334,-0.206 1.334,-1.149 v -28.385 l -13.708,-2.914 v 7.708 l -9.493,-2.018 v -3.959 l 0.74,0.158 c 0.769,0.163 1.349,-0.209 1.349,-1.163 v -2.3 l -13.623,-2.896 v -5.311 l 34.735,7.383 v -4.93 l 7.32,1.556 V 1.995 Z m -21.273,-19.592 c 0,1.156 -0.083,1.51 -1.679,1.171 l -9.718,-2.065 v 5.746 l 12.79,2.719 v 1.606 c 0,0.954 -0.58,1.326 -1.349,1.163 l -0.741,-0.157 v 3.959 l 9.493,2.018 v -7.016 l 13.011,2.765 v -5.746 l -9.794,-2.082 c -1.54,-0.327 -1.678,-0.74 -1.678,-1.884 0,-4.18 11.472,-3.522 11.472,-3.522 l -2.385,-6.739 c -7.396,-0.389 -14.593,4.087 -14.593,4.087 0,0 -5.42,-6.359 -13.177,-9.99 l -3.049,5.584 c 0,0 11.397,3.997 11.397,8.383"
             style="fill:#000000;fill-opacity:1;fill-rule:nonzero;stroke:none"
             id="path56" />
        </g>
        <g
           id="g58"
           transform="translate(428.3989,113.6283)">
          <path
             d="M 0,0 -0.366,-4.267 31.139,2.43 31.505,6.697 Z M 30.054,15.644 27.471,9.992 c -5.612,-0.584 -10.724,3.093 -10.724,3.093 0,0 -5.756,-5.742 -11.234,-8.25 L 2.76,9.2 c 0,0 10.645,5.244 11.099,10.528 l 0.197,1.639 c 0.081,0.944 -0.503,0.943 -1.262,0.781 l -0.763,-0.162 0.257,2.981 8.378,1.781 -0.528,-5.509 c -0.491,-5.704 9.916,-5.595 9.916,-5.595"
             style="fill:#000000;fill-opacity:1;fill-rule:nonzero;stroke:none"
             id="path60" />
        </g>
        <g
           id="g62"
           transform="translate(456.4799,173.4584)">
          <path
             d="m 0,0 -0.278,-3.245 0.577,0.122 c 0.575,0.122 1.101,0.234 1.034,-0.553 l -0.519,-6.036 -3.976,-0.845 -0.453,-5.271 3.976,0.846 -1.52,-17.711 6.234,1.325 2.839,33.051 z m -8.109,-22.607 c 1.725,0.367 3.525,1.06 4.656,1.725 l -0.369,-4.295 c -1.133,-0.6 -3.351,-1.383 -5.855,-1.914 l -11.556,-2.457 c -1.509,-0.32 -2.62,0.735 -2.48,2.358 l 0.566,6.582 c 0.081,0.945 -0.817,0.754 -1.421,0.626 l -0.3,-0.064 0.239,2.781 13.58,2.887 0.285,3.325 -13.016,-2.766 0.36,4.185 18.666,3.942 c 0.472,0.098 0.817,-0.231 0.775,-0.738 l -0.835,-9.72 c -0.044,-0.508 -0.461,-1 -0.933,-1.1 l -9.477,-2.015 -0.424,-4.945 z"
             style="fill:#000000;fill-opacity:1;fill-rule:nonzero;stroke:none"
             id="path64" />
        </g>
        <g
           id="g66"
           transform="translate(446.5298,203.4364)">
          <path
             d="M 0,0 10.01,2.127 9.805,-0.256 -0.205,-2.384 Z m 14.789,0.109 0.318,3.703 3.459,1.391 0.253,2.944 -26.903,-5.718 -0.253,-2.945 3.345,0.055 -0.319,-3.702 -4.249,-1.465 -0.253,-2.945 28.5,6.058 0.252,2.944 z m 7.241,-3.627 -35.485,-7.542 -0.302,-3.517 35.485,7.542 z m -4.864,-16.704 -0.306,-3.558 -23.4,-4.973 c -2.591,-0.551 -3.481,-0.029 -3.35,1.512 l 0.185,2.143 c 0.058,0.668 -0.016,0.824 -0.8,0.657 l -0.683,-0.144 0.277,3.213 21.668,4.606 0.169,1.964 -20.981,-4.459 0.329,3.828 26.155,5.541 c 0.611,0.129 1.075,-0.126 1.008,-0.898 l -0.548,-6.384 c -0.031,-0.359 -0.595,-1.267 -1.207,-1.397 l -18.545,-3.941 -0.172,-2.004 z"
             style="fill:#000000;fill-opacity:1;fill-rule:nonzero;stroke:none"
             id="path68" />
        </g>
        <g
           id="g70"
           transform="translate(283.5454,130.8051)">
          <path
             d="M 0,0 V -8.645 L 66.748,5.543 v 8.645 z m 25.194,44.688 v -6.422 l 32.549,6.918 V 36.047 L 25.194,29.129 v -6.684 l 32.549,6.918 V 21.015 L 17.867,12.539 c -3.29,-0.699 -6.175,1.965 -6.175,6.068 v 24.292 c 0,1.646 -0.254,2.119 -2.988,1.538 L 8.119,44.313 v 5.764 l 49.624,10.548 v -9.018 z"
             style="fill:#000000;fill-opacity:1;fill-rule:nonzero;stroke:none"
             id="path72" />
        </g>
        <g
           id="g74"
           transform="translate(204.437,114.5404)">
          <path
             d="M 0,0 V -8.787 L 66.467,5.341 v 8.787 z M 61.273,32.228 56.649,21.54 c -12.581,-0.97 -22.615,7.855 -22.615,7.855 0,0 -10.135,-12.491 -23.329,-18.15 l -5.913,8.689 c 0,0 21.993,10.419 21.993,21.295 v 5.682 c 0,1.943 -1.255,1.935 -2.855,1.594 l -1.432,-0.304 v 5.428 l 16.653,3.54 V 44.977 c 0,-11.746 22.122,-12.749 22.122,-12.749"
             style="fill:#000000;fill-opacity:1;fill-rule:nonzero;stroke:none"
             id="path76" />
        </g>
        <g
           id="g78"
           transform="translate(139.664,115.1127)">
          <path
             d="M 0,0 -7.919,-1.684 V 6.041 L 0,7.724 Z m 17.099,28.982 0.915,0.196 c 1.212,0.257 2.247,-0.11 2.247,-1.622 V 21.632 L 11.752,19.823 V 32.729 L -3.274,29.534 v -6.768 l 0.439,0.092 C -1.623,23.116 0,23.034 0,21.521 v -4.196 l -7.919,-1.683 v 12.905 l -14.787,-3.144 v -6.669 l 0.556,0.119 c 1.212,0.257 2.99,0.312 2.99,-1.201 V -9.141 c 0,-2.695 1.804,-4.157 4.404,-3.604 l 26.508,5.635 v 17.332 l 8.509,1.808 v -38.108 l 11.358,2.414 v 62.553 l -14.52,-3.086 z m 32.033,16.4 v -65.323 l -12.383,-2.632 v 56.275 c 0,1.596 -0.971,2.219 -2.257,1.945 l -1.238,-0.262 v 6.622 z"
             style="fill:#000000;fill-opacity:1;fill-rule:nonzero;stroke:none"
             id="path80" />
        </g>
        <g
           id="g82"
           transform="translate(106.4956,120.4711)">
          <path
             d="m 0,0 -7.11,-0.5 -3.222,5.618 -3.131,-6.969 -7.097,-2.519 5.175,-3.807 -1.164,-7.176 6.33,4.617 6.377,-1.916 -1.263,6.66 z"
             style="fill:#000000;fill-opacity:1;fill-rule:nonzero;stroke:none"
             id="path84" />
        </g>
        <g
           id="g86"
           transform="translate(8.4746,119.4887)">
          <path
             d="M 0,0 37.783,8.031 V -1.235 L 16.912,-5.671 V -26.61 l 20.871,4.436 v -8.799 L 13.664,-36.1 C 6.364,-37.65 3.65,-35.641 3.65,-29 v 20.709 c 0,2.59 -0.379,3.233 -2.694,3.215 L 0,-5.085 Z m 62.98,19.424 v -61.98 l -11.696,-2.485 10e-4,30.945 -13.502,-2.87 v 10.259 l 13.502,2.869 V 8.746 c 0,1.475 -1.646,1.247 -2.847,0.992 l -0.473,-0.1 v 6.594 z"
             style="fill:#000000;fill-opacity:1;fill-rule:nonzero;stroke:none"
             id="path88" />
        </g>
        <g
           id="g90"
           transform="translate(425.4604,312.2704)">
          <path
             d="m 0,0 c 0,0 -2.223,-19.142 -26.479,-44.261 l -12.418,10.169 c 12.428,10.378 26.751,33.834 26.751,54.498 v 0.584 c 0,2.482 -1.904,2.445 -4.276,1.936 l -2.397,-0.515 v 7.357 L 7.796,35.476 V 24.684 C 7.796,3.579 19.343,0.399 34.685,0.531 L 27.053,-11.581 C 3.74,-9.903 0,0 0,0 M 74.54,30.917 V 17.477 L 59.386,14.226 v -25.241 l -20.242,-4.342 v 58.159 c 0,2.619 -2.132,2.553 -4.562,2.032 l -2.441,-0.523 v 7.761 l 27.245,5.844 V 27.667 Z M 21.008,-54.764 c -2.763,0.004 -8.398,0.012 -8.398,8.748 0,9.054 7.169,15.68 14.962,15.825 8,0.149 8.563,-5.307 8.563,-8.634 0,-8.156 -6.972,-15.949 -15.127,-15.939 m 20.242,36.377 c -9.395,1.961 -21.488,1.963 -35.205,-7.711 -9.02,-6.36 -13.567,-13.989 -13.567,-22.635 0,-3.115 0.677,-6.194 2.024,-9.142 4.132,-9.048 10.252,-9.425 18.572,-9.937 13.597,-0.837 21.775,2.941 29.926,8.661 9.109,6.4 13.76,13.921 13.76,22.611 0,7.759 -3.949,15.741 -15.51,18.153"
             style="fill:#000000;fill-opacity:1;fill-rule:nonzero;stroke:none"
             id="path92" />
        </g>
        <g
           id="g94"
           transform="translate(338.7231,354.806)">
          <path
             d="m 0,0 v -7.553 l 1.969,0.419 c 1.959,0.416 3.711,0.705 3.711,-1.895 v -96.184 l 19.792,4.207 V 5.414 Z m -23.186,-24.522 v -7.553 l 1.969,0.418 c 1.96,0.417 3.754,0.798 3.754,-1.801 v -22.011 l -16.6,-3.528 v -11.841 l 16.6,3.528 v -65.225 l 18.208,3.87 v 109.229 z m 2.575,-62.691 -8.491,-11.791 c -16.585,5.387 -21.065,13.847 -21.065,13.847 0,0 -6.28,-12.119 -19.446,-24.736 l -10.984,9.314 c 0,0 19.406,18.929 19.406,37.604 v 14.216 c 0,2.599 -2.058,2.507 -4.36,2.017 l -2.311,-0.491 v 8.213 l 25.416,5.402 v -26.151 c 0,-25.039 21.835,-27.444 21.835,-27.444"
             style="fill:#000000;fill-opacity:1;fill-rule:nonzero;stroke:none"
             id="path96" />
        </g>
        <g
           id="g98"
           transform="translate(173.3427,268.7509)">
          <path
             d="M 0,0 V -12.242 L 62.677,1.081 v -11.929 l -72.638,-15.44 c -5.862,-1.246 -10.615,2.715 -10.615,8.846 V -3.23 c 0,2.459 -0.216,3.2 -5.714,2.031 L -27.332,-1.42 V 6.119 L 62.677,25.25 V 13.322 Z M 62.677,-16.691 V -28.62 L -42.722,-51.023 v 11.929 z M 39.644,-66.979 4.14,-74.526 v 15.553 l 35.504,7.547 z m 20.91,32.064 -84.144,-17.884 v -8.19 l 1.043,0.221 c 5.507,1.171 5.724,0.27 5.724,-2.428 v -17.138 c 0,-5.519 4.277,-9.083 9.553,-7.961 l 60.394,12.837 c 5.275,1.121 9.553,6.503 9.553,12.021 v 26.753 c 0,1.227 -0.951,2.019 -2.123,1.769"
             style="fill:#000000;fill-opacity:1;fill-rule:nonzero;stroke:none"
             id="path100" />
        </g>
        <g
           id="g102"
           transform="translate(72.1425,305.1356)">
          <path
             d="m 0,0 v -8.101 l 2.32,0.492 c 2.31,0.489 4.426,0.937 4.426,-2.085 v -47.845 c -3.413,-2.004 -7.784,-3.687 -13.172,-4.828 l -31.916,-6.761 v 14.644 l 29.596,6.269 c 1.473,0.312 2.667,1.782 2.667,3.283 v 28.993 c 0,1.501 -1.194,2.466 -2.667,2.154 l -55.512,-11.759 v -12.521 l 37.862,8.02 v -9.845 l -39.622,-8.393 v -8.237 l 0.935,0.198 c 1.89,0.4 4.691,0.993 4.691,-1.807 V -77.62 c 0,-4.805 3.82,-7.89 8.532,-6.892 l 41.674,8.827 c 7.818,1.656 13.492,3.664 16.932,5.478 v -45.874 l 21.463,4.547 V 5.976 Z"
             style="fill:#000000;fill-opacity:1;fill-rule:nonzero;stroke:none"
             id="path104" />
        </g>
        <g
           id="g106"
           transform="translate(496.6118,211.3212)">
          <path
             d="m 0,0 0.87,10.135 -3.189,-10.628 -2.512,-0.534 -1.394,9.654 -0.87,-10.135 -2.374,-0.505 1.042,12.134 3.709,0.788 1.41,-9.149 0.028,0.006 3.008,10.088 3.661,0.778 L 2.346,0.499 Z m -17.142,-3.644 0.858,9.982 -3.82,-0.812 0.185,2.145 10.102,2.147 -0.185,-2.145 -3.681,-0.782 -0.857,-9.981 z"
             style="fill:#000000;fill-opacity:1;fill-rule:nonzero;stroke:none"
             id="path108" />
        </g>
      </g>
    </g>
  </g>
</svg>
