<?xml version="1.0" encoding="UTF-8" standalone="no"?>
<!-- Created with Inkscape (http://www.inkscape.org/) -->

<svg
   version="1.1"
   id="svg2"
   width="666.66669"
   height="499.49332"
   viewBox="0 0 666.66669 499.49332"
   sodipodi:docname="Rhythm World The Best+ More Of The Best (리듬 세상 더・베스트＋ 최고・중・더・베스트) Logo (Flat).ai"
   xmlns:inkscape="http://www.inkscape.org/namespaces/inkscape"
   xmlns:sodipodi="http://sodipodi.sourceforge.net/DTD/sodipodi-0.dtd"
   xmlns="http://www.w3.org/2000/svg"
   xmlns:svg="http://www.w3.org/2000/svg">
  <defs
     id="defs6">
    <clipPath
       clipPathUnits="userSpaceOnUse"
       id="clipPath16">
      <path
         d="M 0,374.62 H 500 V 0 H 0 Z"
         id="path14" />
    </clipPath>
  </defs>
  <sodipodi:namedview
     id="namedview4"
     pagecolor="#ffffff"
     bordercolor="#000000"
     borderopacity="0.25"
     inkscape:showpageshadow="2"
     inkscape:pageopacity="0.0"
     inkscape:pagecheckerboard="0"
     inkscape:deskcolor="#d1d1d1" />
  <g
     id="g8"
     inkscape:groupmode="layer"
     inkscape:label="Rhythm World The Best+ More Of The Best (리듬 세상 더・베스트＋ 최고・중・더・베스트) Logo (Flat)"
     transform="matrix(1.3333333,0,0,-1.3333333,0,499.49333)">
    <g
       id="g10">
      <g
         id="g12"
         clip-path="url(#clipPath16)">
        <g
           id="g18"
           transform="translate(400.9883,179.6924)">
          <path
             d="m 0,0 c 45.388,0 82.313,36.925 82.313,82.313 0,45.387 -36.925,82.312 -82.313,82.312 -18.975,0 -37.248,-6.572 -51.806,-18.358 -13.729,9.625 -30.056,14.815 -47.132,14.815 -36.069,0 -67.014,-23.091 -78.028,-55.973 -7.184,2.001 -14.648,3.033 -22.142,3.033 -15.267,0 -30.086,-4.22 -42.923,-12.073 -15.42,16.485 -36.991,25.998 -60.053,25.998 -45.388,0 -82.313,-36.925 -82.313,-82.312 0,-26.677 12.853,-50.868 33.144,-66.021 -13.403,-10.765 -22.011,-27.278 -22.011,-45.694 0,-12.711 3.993,-24.692 11.183,-34.529 -8.698,-7.714 -14.117,-18.965 -14.117,-31.339 0,-11.182 4.354,-21.695 12.261,-29.603 7.908,-7.906 18.421,-12.261 29.603,-12.261 11.728,0 22.723,4.939 30.513,13.219 3.206,-0.776 6.51,-1.173 9.851,-1.173 h 0.004 c 9.254,0 18.209,3.088 25.464,8.642 2.41,-0.039 4.802,0.136 7.164,0.511 5.454,-2.513 11.398,-3.821 17.486,-3.821 11.131,0 21.626,4.389 29.379,12.038 5.21,0.146 10.3,1.255 15.049,3.257 3.795,-1.103 7.749,-1.674 11.704,-1.674 8.527,0 16.7,2.553 23.612,7.292 5.94,-0.201 11.804,0.863 17.218,3.077 4.521,-1.624 9.312,-2.466 14.17,-2.466 9.023,0 17.61,2.853 24.693,8.046 3.806,-1.116 7.772,-1.691 11.785,-1.691 10.504,0 20.533,4.005 28.146,10.905 3.475,-0.92 7.073,-1.391 10.711,-1.391 23.084,0 41.864,18.779 41.864,41.863 0,1.773 -0.11,3.53 -0.328,5.267 12.831,11.612 20.253,28.085 20.253,45.745 0,9.841 -2.324,19.442 -6.766,28.113 0.277,1.309 0.509,2.626 0.695,3.95 C -1.111,0.006 -0.556,0 0,0"
             style="fill:#000000;fill-opacity:1;fill-rule:nonzero;stroke:none"
             id="path20" />
        </g>
        <g
           id="g22"
           transform="translate(400.9883,336.0703)">
          <path
             d="m 0,0 c -19.239,0 -37.68,-7.51 -51.437,-20.782 -13.307,11.157 -29.964,17.239 -47.501,17.239 -35.3,0 -65.148,-24.579 -72.395,-58.336 -8.782,3.545 -18.249,5.396 -27.775,5.396 -16.097,0 -31.64,-5.213 -44.41,-14.791 -13.991,18.091 -35.446,28.716 -58.566,28.716 -40.84,0 -74.066,-33.225 -74.066,-74.065 0,-28.375 16.153,-53.621 40.423,-66.005 -17.264,-8.011 -29.29,-25.529 -29.29,-45.71 0,-13.85 5.518,-26.692 15.158,-36.049 -10.827,-5.643 -18.092,-16.978 -18.092,-29.819 0,-8.98 3.496,-17.421 9.846,-23.771 6.35,-6.349 14.792,-9.846 23.771,-9.846 11.143,0 21.463,5.552 27.67,14.535 4.009,-1.639 8.312,-2.489 12.695,-2.489 h 0.003 c 8.411,0 16.516,3.178 22.682,8.81 3.747,-0.384 7.511,-0.129 11.14,0.731 4.971,-2.761 10.551,-4.209 16.292,-4.209 10.061,0 19.475,4.466 25.831,12.105 6.367,-0.46 12.563,0.894 18.072,3.816 3.887,-1.528 7.988,-2.3 12.229,-2.3 7.769,0 15.172,2.64 21.145,7.489 1.278,-0.146 2.566,-0.221 3.854,-0.221 5.492,0 10.833,1.325 15.636,3.854 4.47,-2.113 9.373,-3.219 14.365,-3.219 8.676,0 16.851,3.288 23.052,9.151 4.216,-1.837 8.781,-2.795 13.426,-2.795 10.023,0 19.511,4.544 25.843,12.132 4.099,-1.723 8.517,-2.62 13.014,-2.62 18.536,0 33.617,15.081 33.617,33.617 0,2.894 -0.364,5.738 -1.085,8.497 13.234,10.109 21.01,25.692 21.01,42.515 0,9.522 -2.51,18.782 -7.283,26.953 1.186,4.33 1.785,8.787 1.785,13.285 0,0.214 -0.002,0.428 -0.005,0.643 3.095,-0.391 6.219,-0.588 9.346,-0.588 40.84,0 74.066,33.226 74.066,74.066 C 74.066,-33.226 40.84,0 0,0"
             style="fill:#4087da;fill-opacity:1;fill-rule:nonzero;stroke:none"
             id="path24" />
        </g>
        <g
           id="g26"
           transform="translate(400.9888,330.3334)">
          <path
             d="m 0,0 c -20.36,0 -38.637,-8.909 -51.155,-23.036 -12.321,12.057 -29.183,19.493 -47.784,19.493 -35.264,0 -64.285,-26.714 -67.938,-61.009 -9.602,5.147 -20.575,8.069 -32.232,8.069 -17.493,0 -33.447,-6.577 -45.534,-17.389 -12.166,18.841 -33.346,31.315 -57.442,31.315 -37.737,0 -68.328,-30.592 -68.328,-68.329 0,-33.316 23.845,-61.057 55.399,-67.101 -24.48,-0.193 -44.267,-20.089 -44.267,-44.614 0,-16.2 8.635,-30.383 21.552,-38.201 -13.796,-1.676 -24.485,-13.419 -24.486,-27.667 0,-15.398 12.483,-27.88 27.881,-27.88 11.305,0 21.031,6.732 25.407,16.403 4.323,-2.755 9.452,-4.358 14.958,-4.358 8.196,0 15.565,3.537 20.666,9.168 1.751,-0.345 3.559,-0.53 5.411,-0.53 3.003,0 5.892,0.481 8.603,1.359 4.42,-2.945 9.727,-4.664 15.437,-4.664 9.699,0 18.237,4.954 23.232,12.468 1.608,-0.288 3.261,-0.447 4.952,-0.447 5.674,0 10.948,1.699 15.352,4.61 3.784,-1.921 8.061,-3.01 12.596,-3.01 7.528,0 14.354,2.989 19.37,7.838 1.818,-0.373 3.701,-0.569 5.629,-0.569 5.734,0 11.063,1.733 15.495,4.702 4.226,-2.58 9.192,-4.068 14.506,-4.068 8.835,0 16.704,4.114 21.812,10.526 4.261,-2.641 9.284,-4.17 14.665,-4.17 10.25,0 19.202,5.535 24.047,13.775 4.292,-2.697 9.367,-4.263 14.81,-4.263 15.398,0 27.881,12.483 27.881,27.88 0,3.805 -0.765,7.43 -2.145,10.735 13.268,8.495 22.07,23.353 22.07,40.277 0,9.65 -2.869,18.625 -7.786,26.138 1.476,4.433 2.287,9.17 2.287,14.1 0,2.598 -0.235,5.14 -0.661,7.617 5.054,-1.192 10.323,-1.825 15.74,-1.825 37.737,0 68.328,30.592 68.329,68.328 C 68.329,-30.592 37.737,0 0,0"
             style="fill:#000000;fill-opacity:1;fill-rule:nonzero;stroke:none"
             id="path28" />
        </g>
        <g
           id="g30"
           transform="translate(427.1596,174.88)">
          <path
             d="m 0,0 3.482,39.798 -56.245,-11.955 -3.482,-39.798 -39.252,-8.343 -3.34,-38.178 39.252,8.344 -3.482,-39.799 56.245,11.956 3.482,39.798 39.251,8.343 3.34,38.177 z"
             style="fill:#000000;fill-opacity:1;fill-rule:nonzero;stroke:none"
             id="path32" />
        </g>
        <g
           id="g34"
           transform="translate(416.5863,162.5237)">
          <path
             d="m 0,0 3.482,39.798 -36.901,-7.843 -3.482,-39.799 -39.251,-8.343 -1.538,-17.576 39.251,8.343 -3.481,-39.798 36.9,7.844 3.482,39.798 39.252,8.343 1.537,17.576 z"
             style="fill:#828282;fill-opacity:1;fill-rule:nonzero;stroke:none"
             id="path36" />
        </g>
        <g
           id="g38"
           transform="translate(381.7388,113.6338)">
          <path
             d="m 0,0 -0.281,-3.275 24.175,5.139 0.281,3.275 z M 23.062,12.004 21.08,7.668 c -4.307,-0.449 -8.229,2.373 -8.229,2.373 0,0 -4.417,-4.407 -8.621,-6.331 L 2.117,7.06 c 0,0 8.169,4.024 8.518,8.077 l 0.15,1.259 c 0.062,0.724 -0.386,0.723 -0.968,0.599 l -0.585,-0.124 0.197,2.287 6.429,1.367 -0.406,-4.227 c -0.376,-4.378 7.61,-4.294 7.61,-4.294"
             style="fill:#d8d8d8;fill-opacity:1;fill-rule:nonzero;stroke:none"
             id="path40" />
        </g>
        <g
           id="g42"
           transform="translate(403.2871,159.5448)">
          <path
             d="m 0,0 -0.214,-2.491 0.443,0.094 c 0.441,0.094 0.845,0.18 0.793,-0.424 l -0.397,-4.631 -3.052,-0.649 -0.347,-4.045 3.051,0.649 -1.167,-13.591 4.784,1.017 2.179,25.362 z m -6.223,-17.348 c 1.324,0.281 2.705,0.814 3.572,1.324 l -0.283,-3.296 c -0.869,-0.461 -2.571,-1.061 -4.492,-1.469 l -8.868,-1.885 c -1.158,-0.246 -2.01,0.564 -1.903,1.809 l 0.434,5.051 c 0.062,0.725 -0.626,0.579 -1.09,0.48 l -0.23,-0.049 0.183,2.135 10.421,2.215 0.219,2.551 -9.988,-2.123 0.276,3.212 14.324,3.024 c 0.361,0.077 0.627,-0.176 0.594,-0.565 l -0.641,-7.46 c -0.033,-0.389 -0.354,-0.767 -0.716,-0.843 l -7.271,-1.546 -0.326,-3.795 z"
             style="fill:#d8d8d8;fill-opacity:1;fill-rule:nonzero;stroke:none"
             id="path44" />
        </g>
        <g
           id="g46"
           transform="translate(395.6515,182.5485)">
          <path
             d="m 0,0 7.681,1.633 -0.157,-1.83 -7.681,-1.632 z m 11.348,0.084 0.244,2.841 2.655,1.067 0.194,2.26 -20.644,-4.388 -0.194,-2.26 2.566,0.042 -0.244,-2.841 -3.26,-1.124 -0.194,-2.259 21.868,4.648 0.194,2.259 z m 5.557,-2.783 -27.23,-5.788 -0.232,-2.699 27.23,5.788 z m -3.733,-12.819 -0.234,-2.73 -17.957,-3.816 c -1.988,-0.423 -2.671,-0.022 -2.57,1.16 l 0.142,1.645 c 0.044,0.512 -0.012,0.632 -0.614,0.504 l -0.524,-0.111 0.212,2.466 16.628,3.534 0.129,1.507 -16.1,-3.422 0.253,2.938 20.07,4.252 c 0.469,0.099 0.825,-0.096 0.774,-0.688 l -0.421,-4.9 c -0.024,-0.275 -0.457,-0.972 -0.926,-1.071 l -14.231,-3.025 -0.132,-1.538 z"
             style="fill:#d8d8d8;fill-opacity:1;fill-rule:nonzero;stroke:none"
             id="path48" />
        </g>
        <g
           id="g50"
           transform="translate(328.3916,84.7856)">
          <path
             d="m 0,0 v -4.145 l 32.002,6.802 v 4.145 z m 12.079,21.426 v -3.08 l 15.606,3.317 v -4.38 L 12.079,13.966 v -3.205 l 15.606,3.317 V 10.075 L 8.566,6.011 C 6.989,5.676 5.606,6.954 5.606,8.921 v 11.647 c 0,0.789 -0.122,1.016 -1.433,0.737 l -0.28,-0.06 v 2.764 l 23.792,5.057 v -4.323 z"
             style="fill:#4087da;fill-opacity:1;fill-rule:nonzero;stroke:none"
             id="path52" />
        </g>
        <g
           id="g54"
           transform="translate(290.4629,76.9874)">
          <path
             d="M 0,0 V -4.213 L 31.867,2.561 V 6.773 Z M 29.377,15.452 27.16,10.328 c -6.032,-0.465 -10.843,3.765 -10.843,3.765 0,0 -4.859,-5.988 -11.185,-8.702 L 2.297,9.557 c 0,0 10.545,4.995 10.545,10.21 v 2.725 c 0,0.931 -0.601,0.927 -1.369,0.764 L 10.787,23.11 v 2.602 l 7.984,1.698 v -5.846 c 0,-5.631 10.606,-6.112 10.606,-6.112"
             style="fill:#4087da;fill-opacity:1;fill-rule:nonzero;stroke:none"
             id="path56" />
        </g>
        <g
           id="g58"
           transform="translate(259.4074,77.2618)">
          <path
             d="M 0,0 -3.797,-0.807 V 2.896 L 0,3.703 Z m 8.198,13.896 0.439,0.093 c 0.581,0.124 1.077,-0.052 1.077,-0.777 V 10.371 L 5.635,9.504 v 6.188 L -1.57,14.16 v -3.245 l 0.211,0.045 C -0.778,11.083 0,11.044 0,10.318 V 8.307 L -3.797,7.5 v 6.187 L -10.886,12.18 V 8.982 l 0.266,0.057 c 0.581,0.123 1.434,0.15 1.434,-0.575 V -4.382 c 0,-1.292 0.865,-1.994 2.111,-1.729 l 12.71,2.702 v 8.31 l 4.079,0.867 v -18.271 l 5.446,1.158 v 29.99 L 8.198,17.166 Z m 15.358,7.862 V -9.561 l -5.937,-1.262 v 26.982 c 0,0.765 -0.465,1.063 -1.082,0.932 l -0.593,-0.126 v 3.175 z"
             style="fill:#4087da;fill-opacity:1;fill-rule:nonzero;stroke:none"
             id="path60" />
        </g>
        <g
           id="g62"
           transform="translate(243.505,79.831)">
          <path
             d="m 0,0 -3.409,-0.24 -1.545,2.694 -1.501,-3.341 -3.402,-1.208 2.481,-1.825 -0.559,-3.441 3.035,2.214 3.058,-0.919 -0.606,3.193 z"
             style="fill:#4087da;fill-opacity:1;fill-rule:nonzero;stroke:none"
             id="path64" />
        </g>
        <g
           id="g66"
           transform="translate(196.5087,79.3602)">
          <path
             d="M 0,0 18.115,3.85 V -0.592 L 8.108,-2.719 v -10.039 l 10.007,2.127 V -14.85 L 6.551,-17.308 c -3.5,-0.744 -4.801,0.22 -4.801,3.404 v 9.929 c 0,1.241 -0.181,1.55 -1.292,1.541 L 0,-2.438 Z m 30.196,9.312 v -29.715 l -5.608,-1.192 v 14.837 l -6.473,-1.376 v 4.918 l 6.473,1.376 v 6.033 c 0,0.707 -0.789,0.598 -1.365,0.476 L 22.997,4.621 v 3.161 z"
             style="fill:#4087da;fill-opacity:1;fill-rule:nonzero;stroke:none"
             id="path68" />
        </g>
        <g
           id="g70"
           transform="translate(190.5375,70.9574)">
          <path
             d="m 0,0 -3.409,-0.24 -1.545,2.694 -1.501,-3.341 -3.402,-1.208 2.481,-1.825 -0.559,-3.441 3.035,2.214 3.058,-0.919 -0.606,3.193 z"
             style="fill:#4087da;fill-opacity:1;fill-rule:nonzero;stroke:none"
             id="path72" />
        </g>
        <g
           id="g74"
           transform="translate(155.735,73.6729)">
          <path
             d="M 0,0 C 0,0.745 -0.063,0.946 -1.19,0.706 L -8.083,-0.759 V 3.31 L 15.466,8.315 V 4.246 L 8.52,2.77 C 7.428,2.538 7.329,2.276 7.329,1.558 c 0,-2.625 8.137,-2.013 8.137,-2.013 l -1.928,-4.639 c -5.246,-0.372 -10.113,2.68 -10.113,2.68 0,0 -3.542,-4.569 -9.043,-6.982 l -2.465,3.81 C -8.083,-5.586 0,-2.754 0,0 m 7.377,-21.622 c 0,-2.666 -2.181,-5.193 -4.731,-5.165 -0.864,0.01 -2.626,0.029 -2.626,2.885 0,2.959 2.242,5.104 4.679,5.128 2.502,0.024 2.678,-1.761 2.678,-2.848 m 10.254,11.303 v 4.227 l -27.712,-5.89 v -4.227 l 12.024,2.556 v -1.604 c -1.265,-0.435 -2.594,-1.109 -3.976,-2.115 -2.821,-2.052 -4.244,-4.532 -4.244,-7.358 0,-1.018 0.212,-2.026 0.633,-2.994 1.293,-2.97 3.207,-3.112 5.809,-3.304 4.252,-0.314 6.81,0.896 9.359,2.741 2.849,2.065 4.303,4.509 4.303,7.35 0,2.536 -1.235,5.157 -4.851,5.98 -1.024,0.234 -2.153,0.386 -3.369,0.358 v 1.724 z"
             style="fill:#4087da;fill-opacity:1;fill-rule:nonzero;stroke:none"
             id="path76" />
        </g>
        <g
           id="g78"
           transform="translate(138.5734,63.0654)">
          <path
             d="m 0,0 -3.409,-0.24 -1.545,2.694 -1.501,-3.341 -3.402,-1.208 2.481,-1.825 -0.559,-3.441 3.035,2.214 3.058,-0.919 -0.606,3.193 z"
             style="fill:#4087da;fill-opacity:1;fill-rule:nonzero;stroke:none"
             id="path80" />
        </g>
        <g
           id="g82"
           transform="translate(114.9803,51.0223)">
          <path
             d="m 0,0 5.348,0.137 c 1,5.701 1,11.776 1,16.722 L -18.318,11.616 V 7.121 L 0.944,11.216 C 0.944,7.918 0.665,4.061 0,0 m 9.43,-2.039 v -4.309 l -31.831,-6.765 v 4.309 l 12.246,2.602 v 8.31 l 5.685,1.208 v -8.309 z"
             style="fill:#4087da;fill-opacity:1;fill-rule:nonzero;stroke:none"
             id="path84" />
        </g>
        <g
           id="g86"
           transform="translate(78.0732,61.7298)">
          <path
             d="m 0,0 v -3.003 l 0.561,0.119 C 1.145,-2.76 1.585,-3.043 1.585,-3.766 V -25.548 L -9.574,-27.92 v 6.359 l -5.684,-1.208 v -6.359 l -9.812,-2.086 v -4.076 l 26.655,5.666 v -3.783 l 5.616,1.194 V 1.531 Z m -16.324,-15.034 c 0,0.887 -0.064,1.159 -1.288,0.898 l -7.458,-1.585 v 4.41 l 9.812,2.085 v 4.631 l 5.684,1.209 v -4.632 l 9.984,2.123 v -4.41 l -7.516,-1.597 c -1.181,-0.251 -1.288,-0.568 -1.288,-1.446 0,-3.208 8.804,-2.703 8.804,-2.703 l -2.086,-5.894 c -5.676,-0.299 -10.942,3.859 -10.942,3.859 0,0 -3.832,-5.479 -9.784,-8.265 l -2.668,4.884 c 0,0 8.746,3.067 8.746,6.433"
             style="fill:#4087da;fill-opacity:1;fill-rule:nonzero;stroke:none"
             id="path88" />
        </g>
        <g
           id="g90"
           transform="translate(270.5843,126.8144)">
          <path
             d="M 0,0 V -6.634 L 51.219,4.253 v 6.634 z M 19.333,34.292 V 29.363 L 44.31,34.672 V 27.661 L 19.333,22.352 V 17.223 L 44.31,22.532 V 16.126 L 13.71,9.621 C 11.186,9.085 8.972,11.129 8.972,14.279 v 18.64 c 0,1.263 -0.196,1.625 -2.293,1.18 L 6.23,34.003 v 4.424 l 38.08,8.094 v -6.92 z"
             style="fill:#4087da;fill-opacity:1;fill-rule:nonzero;stroke:none"
             id="path92" />
        </g>
        <g
           id="g94"
           transform="translate(209.8797,114.3333)">
          <path
             d="M 0,0 V -6.742 L 51.004,4.099 v 6.742 z M 47.018,24.73 43.47,16.529 c -9.654,-0.744 -17.354,6.027 -17.354,6.027 0,0 -7.777,-9.584 -17.902,-13.927 l -4.537,6.667 c 0,0 16.877,7.995 16.877,16.342 v 4.36 c 0,1.491 -0.963,1.484 -2.191,1.223 l -1.099,-0.234 v 4.166 l 12.779,2.716 v -9.356 c 0,-9.012 16.975,-9.783 16.975,-9.783"
             style="fill:#4087da;fill-opacity:1;fill-rule:nonzero;stroke:none"
             id="path96" />
        </g>
        <g
           id="g98"
           transform="translate(160.1754,114.7724)">
          <path
             d="M 0,0 -6.077,-1.292 V 4.635 L 0,5.927 Z m 13.121,22.24 0.702,0.15 c 0.93,0.197 1.725,-0.084 1.725,-1.244 V 16.6 L 9.019,15.212 v 9.902 L -2.513,22.663 v -5.194 l 0.338,0.072 C -1.245,17.739 0,17.675 0,16.515 v -3.22 l -6.077,-1.292 v 9.903 l -11.346,-2.412 v -5.118 l 0.426,0.091 c 0.93,0.197 2.294,0.24 2.294,-0.921 v -20.56 c 0,-2.068 1.385,-3.19 3.38,-2.766 l 20.342,4.324 v 13.3 l 6.529,1.388 v -29.243 l 8.715,1.853 v 48 L 13.121,27.473 Z m 24.581,12.584 v -50.126 l -9.503,-2.02 10e-4,43.184 c 0,1.225 -0.745,1.702 -1.732,1.493 l -0.95,-0.202 v 5.081 z"
             style="fill:#4087da;fill-opacity:1;fill-rule:nonzero;stroke:none"
             id="path100" />
        </g>
        <g
           id="g102"
           transform="translate(134.7236,118.8844)">
          <path
             d="m 0,0 -5.456,-0.384 -2.472,4.312 -2.403,-5.348 -5.446,-1.933 3.971,-2.922 -0.893,-5.506 4.857,3.543 4.893,-1.471 -0.969,5.111 z"
             style="fill:#4087da;fill-opacity:1;fill-rule:nonzero;stroke:none"
             id="path104" />
        </g>
        <g
           id="g106"
           transform="translate(59.5063,118.1306)">
          <path
             d="M 0,0 28.993,6.163 V -0.948 L 12.977,-4.352 v -16.067 l 16.016,3.404 v -6.752 l -18.508,-3.934 c -5.602,-1.191 -7.684,0.352 -7.684,5.447 v 15.892 c 0,1.987 -0.291,2.481 -2.068,2.466 L 0,-3.902 Z m 48.328,14.905 v -47.56 l -8.975,-1.908 10e-4,23.746 -10.361,-2.202 v 7.872 l 10.361,2.202 v 9.656 c 0,1.132 -1.263,0.957 -2.185,0.761 L 36.806,7.395 v 5.061 z"
             style="fill:#4087da;fill-opacity:1;fill-rule:nonzero;stroke:none"
             id="path108" />
        </g>
        <g
           id="g110"
           transform="translate(379.4836,266.063)">
          <path
             d="m 0,0 c 0,0 -1.706,-14.689 -20.319,-33.964 l -9.529,7.803 c 9.537,7.964 20.528,25.963 20.528,41.82 v 0.448 c 0,1.905 -1.461,1.876 -3.282,1.485 l -1.839,-0.394 v 5.644 L 5.982,27.223 V 18.941 C 5.982,2.746 14.843,0.306 26.616,0.407 L 20.759,-8.887 C 2.87,-7.599 0,0 0,0 M 57.199,23.725 V 13.411 L 45.57,10.917 v -19.37 l -15.533,-3.331 v 44.629 c 0,2.009 -1.636,1.959 -3.501,1.559 l -1.872,-0.402 v 5.956 L 45.57,44.442 V 21.231 Z M 16.121,-42.023 c -2.121,0.003 -6.445,0.009 -6.445,6.712 0,6.948 5.502,12.033 11.482,12.144 6.139,0.114 6.57,-4.072 6.57,-6.626 0,-6.258 -5.349,-12.239 -11.607,-12.23 m 15.532,27.914 c -7.209,1.505 -16.488,1.506 -27.014,-5.917 -6.921,-4.881 -10.412,-10.735 -10.411,-17.37 0,-2.39 0.52,-4.752 1.553,-7.015 3.171,-6.943 7.867,-7.232 14.252,-7.625 10.433,-0.643 16.709,2.257 22.964,6.646 6.99,4.911 10.558,10.682 10.558,17.351 0,5.954 -3.03,12.078 -11.902,13.93"
             style="fill:#4087da;fill-opacity:1;fill-rule:nonzero;stroke:none"
             id="path112" />
        </g>
        <g
           id="g114"
           transform="translate(312.9249,298.703)">
          <path
             d="m 0,0 v -5.796 l 1.511,0.321 c 1.503,0.32 2.848,0.542 2.848,-1.453 v -73.808 l 15.187,3.228 V 4.155 Z m -17.791,-18.817 v -5.796 l 1.51,0.321 c 1.504,0.32 2.881,0.612 2.881,-1.383 v -16.889 l -12.738,-2.708 v -9.086 l 12.738,2.708 v -50.052 l 13.972,2.97 v 83.818 z m 1.975,-48.106 -6.515,-9.049 c -12.727,4.135 -16.165,10.626 -16.165,10.626 0,0 -4.819,-9.3 -14.922,-18.981 l -8.429,7.147 c 0,0 14.891,14.526 14.891,28.856 v 10.908 c 0,1.995 -1.579,1.924 -3.345,1.549 l -1.773,-0.377 v 6.302 l 19.503,4.146 v -20.068 c 0,-19.214 16.755,-21.059 16.755,-21.059"
             style="fill:#4087da;fill-opacity:1;fill-rule:nonzero;stroke:none"
             id="path116" />
        </g>
        <g
           id="g118"
           transform="translate(186.0192,232.668)">
          <path
             d="M 0,0 V -9.394 L 48.095,0.829 V -8.324 L -7.644,-20.172 c -4.498,-0.956 -8.145,2.083 -8.145,6.788 v 10.905 c 0,1.887 -0.166,2.456 -4.385,1.559 l -0.799,-0.17 v 5.785 l 69.069,14.681 -10e-4,-9.153 z m 48.095,-12.808 v -9.154 l -80.878,-17.191 v 9.154 z M 30.421,-51.397 3.176,-57.188 v 11.935 l 27.245,5.791 z m 16.045,24.605 -64.568,-13.724 v -6.285 l 0.801,0.171 c 4.225,0.898 4.391,0.207 4.391,-1.864 v -13.151 c 0,-4.235 3.282,-6.97 7.331,-6.109 l 46.344,9.85 c 4.048,0.861 7.33,4.991 7.33,9.225 v 20.53 c 0,0.941 -0.729,1.548 -1.629,1.357"
             style="fill:#4087da;fill-opacity:1;fill-rule:nonzero;stroke:none"
             id="path120" />
        </g>
        <g
           id="g122"
           transform="translate(108.3623,260.5883)">
          <path
             d="m 0,0 v -6.216 l 1.781,0.377 c 1.772,0.375 3.395,0.719 3.395,-1.6 v -36.714 c -2.619,-1.538 -5.972,-2.829 -10.107,-3.705 l -24.491,-5.188 v 11.237 l 22.711,4.811 c 1.13,0.239 2.046,1.367 2.046,2.519 v 22.248 c 0,1.152 -0.916,1.892 -2.046,1.653 l -42.598,-9.023 v -9.609 l 29.053,6.155 v -7.555 l -30.404,-6.441 v -6.32 l 0.718,0.152 c 1.45,0.307 3.6,0.762 3.6,-1.387 v -14.957 c 0,-3.686 2.931,-6.054 6.547,-5.288 l 31.979,6.774 c 5.999,1.27 10.353,2.811 12.992,4.203 v -35.202 l 16.471,3.489 V 4.585 Z"
             style="fill:#4087da;fill-opacity:1;fill-rule:nonzero;stroke:none"
             id="path124" />
        </g>
        <g
           id="g126"
           transform="translate(478.7798,188.5989)">
          <path
             d="m 0,0 0.668,7.777 -2.447,-8.155 -1.928,-0.41 -1.069,7.408 -0.668,-7.777 -1.822,-0.387 0.8,9.31 2.846,0.605 1.082,-7.02 0.021,0.004 2.308,7.741 L 2.6,9.693 1.801,0.383 Z m -13.153,-2.796 0.657,7.659 -2.93,-0.623 0.141,1.646 7.752,1.648 -0.142,-1.646 -2.825,-0.601 -0.657,-7.659 z"
             style="fill:#000000;fill-opacity:1;fill-rule:nonzero;stroke:none"
             id="path128" />
        </g>
        <g
           id="g130"
           transform="translate(456.0821,371.2543)">
          <path
             d="m 0,0 c -2.091,0 -4.18,-0.149 -6.25,-0.447 -0.124,-0.027 -0.249,-0.054 -0.373,-0.081 l -1.291,-5.061 h 0.453 c -5.088,-0.978 -9.931,-2.956 -14.247,-5.821 l 0.156,0.156 -4.523,2.537 c -0.92,-0.636 -1.815,-1.306 -2.684,-2.01 -1.58,-1.369 -3.061,-2.85 -4.431,-4.431 -0.765,-0.938 -1.491,-1.907 -2.176,-2.906 l 2.605,-4.391 0.309,0.309 c -2.883,-4.333 -4.872,-9.198 -5.85,-14.31 l -5.185,-1.459 c -0.28,-1.989 -0.424,-3.994 -0.43,-6.002 0,-2.091 0.15,-4.18 0.447,-6.25 0.056,-0.267 0.114,-0.534 0.174,-0.8 l 5.102,-1.303 v 0.466 c 1.014,-4.959 2.982,-9.674 5.794,-13.883 l -0.449,0.45 -2.532,-4.514 c 0.69,-1.005 1.421,-1.981 2.191,-2.926 1.37,-1.58 2.85,-3.061 4.431,-4.431 0.858,-0.694 1.743,-1.356 2.651,-1.984 l 4.46,2.647 -0.189,0.189 c 4.435,-2.977 9.433,-5.013 14.685,-5.984 H -8.29 l 1.411,-5.011 c 0.209,-0.047 0.419,-0.092 0.629,-0.136 2.07,-0.298 4.159,-0.447 6.25,-0.447 2.089,0 4.175,0.149 6.243,0.447 l 1.312,5.142 H 7.123 c 5.334,0.987 10.405,3.073 14.889,6.126 l 4.613,-2.586 c 0.728,0.511 1.44,1.043 2.135,1.597 1.581,1.37 3.062,2.851 4.431,4.431 0.89,1.078 1.728,2.198 2.512,3.356 l -2.677,4.513 -0.042,-0.042 c 2.592,4.129 4.39,8.707 5.3,13.497 l 5.226,1.47 c 0.272,1.977 0.408,3.971 0.408,5.967 0,0.718 -0.018,1.436 -0.054,2.153 -0.035,0.718 -0.088,1.435 -0.158,2.15 -0.07,0.715 -0.158,1.429 -0.264,2.14 -0.035,0.209 -0.071,0.418 -0.109,0.627 l -5.137,1.312 v -0.046 c -1.032,4.756 -2.941,9.278 -5.632,13.333 l 0.01,-0.01 2.598,4.633 c -0.396,0.532 -0.804,1.054 -1.224,1.567 -0.456,0.556 -0.925,1.101 -1.408,1.634 -0.482,0.532 -0.978,1.052 -1.486,1.56 -0.508,0.509 -1.028,1.005 -1.561,1.487 -0.532,0.483 -1.077,0.952 -1.633,1.407 -0.555,0.456 -1.121,0.899 -1.698,1.327 -0.111,0.079 -0.223,0.157 -0.334,0.235 l -4.455,-2.641 0.275,-0.275 c -4.172,2.772 -8.837,4.717 -13.742,5.729 H 7.931 L 6.493,-0.483 C 6.477,-0.481 6.461,-0.478 6.444,-0.476 5.733,-0.37 5.02,-0.282 4.305,-0.212 3.59,-0.141 2.873,-0.088 2.155,-0.053 1.437,-0.018 0.719,0 0,0 Z"
             style="fill:#8898b0;fill-opacity:1;fill-rule:evenodd;stroke:none"
             id="path132" />
        </g>
        <g
           id="g134"
           transform="translate(456.0827,358.3912)">
          <path
             d="m 0,0 c 17.151,0 31.054,-13.903 31.054,-31.054 0,-17.151 -13.903,-31.054 -31.054,-31.054 -17.151,0 -31.054,13.903 -31.054,31.054 C -31.054,-13.903 -17.151,0 0,0"
             style="fill:#404040;fill-opacity:1;fill-rule:evenodd;stroke:none"
             id="path136" />
        </g>
        <g
           id="g138"
           transform="translate(456.0829,351.6551)">
          <path
             d="m 0,0 c -13.409,0 -24.318,-10.909 -24.318,-24.318 0,-13.409 10.909,-24.318 24.318,-24.318 13.409,0 24.318,10.909 24.318,24.318 C 24.318,-10.909 13.409,0 0,0 m 0,-51.571 c -15.027,0 -27.253,12.226 -27.253,27.253 0,15.027 12.226,27.253 27.253,27.253 15.027,0 27.253,-12.226 27.253,-27.253 0,-15.027 -12.226,-27.253 -27.253,-27.253"
             style="fill:#8898b0;fill-opacity:1;fill-rule:nonzero;stroke:none"
             id="path140" />
        </g>
        <g
           id="g142"
           transform="translate(456.0827,336.495)">
          <path
             d="m 0,0 c 5.058,0 9.158,-4.1 9.158,-9.158 0,-5.058 -4.1,-9.158 -9.158,-9.158 -5.058,0 -9.158,4.1 -9.158,9.158 C -9.158,-4.1 -5.058,0 0,0"
             style="fill:#8898b0;fill-opacity:1;fill-rule:evenodd;stroke:none"
             id="path144" />
        </g>
        <g
           id="g146"
           transform="translate(384.0826,374.6201)">
          <path
             d="m 0,0 c -1.533,0 -3.064,-0.11 -4.582,-0.328 -0.091,-0.019 -0.182,-0.039 -0.273,-0.059 l -0.947,-3.711 h 0.332 c -3.73,-0.716 -7.28,-2.167 -10.445,-4.267 l 0.115,0.114 -3.316,1.86 c -0.675,-0.466 -1.331,-0.957 -1.968,-1.473 -1.159,-1.004 -2.244,-2.09 -3.248,-3.249 -0.561,-0.687 -1.094,-1.398 -1.596,-2.13 l 1.91,-3.22 0.226,0.227 c -2.113,-3.177 -3.571,-6.743 -4.288,-10.491 l -3.801,-1.07 c -0.206,-1.457 -0.311,-2.927 -0.315,-4.399 -0.001,-1.534 0.109,-3.065 0.327,-4.583 0.041,-0.196 0.083,-0.391 0.127,-0.586 l 3.741,-0.955 v 0.341 c 0.744,-3.636 2.186,-7.092 4.248,-10.178 l -0.33,0.33 -1.855,-3.309 c 0.505,-0.737 1.041,-1.453 1.606,-2.145 1.004,-1.159 2.089,-2.245 3.248,-3.249 0.629,-0.509 1.278,-0.994 1.943,-1.454 l 3.27,1.94 -0.139,0.139 c 3.252,-2.183 6.916,-3.676 10.767,-4.387 h -0.835 l 1.035,-3.674 c 0.153,-0.034 0.307,-0.068 0.461,-0.1 1.518,-0.218 3.049,-0.328 4.582,-0.328 1.531,0 3.061,0.11 4.577,0.328 l 0.962,3.77 H 5.222 c 3.911,0.724 7.628,2.253 10.916,4.491 l 3.381,-1.896 c 0.534,0.374 1.056,0.765 1.566,1.171 1.159,1.004 2.244,2.09 3.248,3.249 0.653,0.79 1.267,1.611 1.842,2.46 l -1.963,3.308 -0.031,-0.031 c 1.901,3.028 3.219,6.384 3.886,9.896 l 3.832,1.077 c 0.199,1.45 0.298,2.911 0.298,4.375 0,0.526 -0.013,1.053 -0.039,1.579 -0.026,0.526 -0.064,1.051 -0.116,1.576 -0.051,0.524 -0.116,1.047 -0.193,1.568 -0.026,0.154 -0.053,0.307 -0.081,0.46 l -3.766,0.962 v -0.034 c -0.756,3.487 -2.156,6.802 -4.128,9.775 l 0.007,-0.008 1.905,3.397 c -0.291,0.39 -0.59,0.773 -0.898,1.15 -0.334,0.407 -0.678,0.806 -1.032,1.197 -0.354,0.39 -0.717,0.772 -1.089,1.144 -0.373,0.373 -0.754,0.736 -1.145,1.09 -0.39,0.354 -0.789,0.698 -1.197,1.032 -0.407,0.334 -0.822,0.658 -1.245,0.972 -0.082,0.058 -0.163,0.116 -0.245,0.173 L 15.669,-8.1 15.871,-8.301 c -3.059,2.032 -6.479,3.458 -10.075,4.2 H 5.815 L 4.76,-0.354 C 4.748,-0.353 4.736,-0.351 4.725,-0.349 4.203,-0.272 3.68,-0.207 3.156,-0.155 2.632,-0.104 2.106,-0.065 1.58,-0.039 1.054,-0.013 0.527,0 0,0 Z"
             style="fill:#8898b0;fill-opacity:1;fill-rule:evenodd;stroke:none"
             id="path148" />
        </g>
        <g
           id="g150"
           transform="translate(384.083,365.1898)">
          <path
             d="M 0,0 C 12.574,0 22.767,-10.193 22.767,-22.767 22.767,-35.34 12.574,-45.533 0,-45.533 c -12.574,0 -22.767,10.193 -22.767,22.766 C -22.767,-10.193 -12.574,0 0,0"
             style="fill:#404040;fill-opacity:1;fill-rule:evenodd;stroke:none"
             id="path152" />
        </g>
        <g
           id="g154"
           transform="translate(384.0833,360.2517)">
          <path
             d="m 0,0 c -9.831,0 -17.829,-7.998 -17.829,-17.829 0,-9.83 7.998,-17.828 17.829,-17.828 9.83,0 17.828,7.998 17.828,17.828 C 17.828,-7.998 9.83,0 0,0 m 0,-37.808 c -11.017,0 -19.98,8.962 -19.98,19.979 0,11.017 8.963,19.98 19.98,19.98 11.017,0 19.979,-8.963 19.979,-19.98 0,-11.017 -8.962,-19.979 -19.979,-19.979"
             style="fill:#8898b0;fill-opacity:1;fill-rule:nonzero;stroke:none"
             id="path156" />
        </g>
        <g
           id="g158"
           transform="translate(384.083,349.1371)">
          <path
             d="m 0,0 c 3.708,0 6.714,-3.006 6.714,-6.714 0,-3.708 -3.006,-6.714 -6.714,-6.714 -3.708,0 -6.714,3.006 -6.714,6.714 C -6.714,-3.006 -3.708,0 0,0"
             style="fill:#8898b0;fill-opacity:1;fill-rule:evenodd;stroke:none"
             id="path160" />
        </g>
        <g
           id="g162"
           transform="translate(215.9833,285.4224)">
          <path
             d="m 0,0 c 1.154,0.001 2.09,-0.955 2.091,-2.135 v -0.001 c 0,-1.18 -0.936,-2.137 -2.09,-2.137 H 0 c -1.154,10e-4 -2.089,0.957 -2.089,2.137 0,1.179 0.935,2.135 2.089,2.136 M 8.02,8.531 11.495,5.263 6.928,3.89 Z m -0.631,5.518 c -9.551,-6.412 -21.008,-22.587 -20.541,-28.083 3.402,-0.294 11.484,3.142 18.703,8.068 4.487,3.062 8.641,6.699 11.132,10.375 z"
             style="fill:#d8d8d8;fill-opacity:1;fill-rule:nonzero;stroke:none"
             id="path164" />
        </g>
        <g
           id="g166"
           transform="translate(260.2494,344.3148)">
          <path
             d="m 0,0 c -26.23,-6.094 -40.517,-46.651 -40.517,-46.651 l 4.364,-7.009 c 0.103,-0.047 7.039,-4.248 7.039,-4.248 0,0 40.399,14.728 46.208,41.022 0,0 0.136,4.157 -2.534,4.478 -3.243,0.391 -4.582,-1.284 -4.582,-1.284 -13.925,-28.956 -30.296,-29.054 -39.764,-34.22 5.058,9.527 4.27,26.598 33.058,40.83 0,0 1.661,1.357 1.235,4.595 C 4.156,0.181 0,0 0,0 Z"
             style="fill:#2c5e87;fill-opacity:1;fill-rule:nonzero;stroke:none"
             id="path168" />
        </g>
        <g
           id="g170"
           transform="translate(14.1741,220.3165)">
          <path
             d="M 0,0 C 2.574,-0.001 4.661,-2.087 4.661,-4.661 4.662,-7.236 2.575,-9.324 0,-9.325 v 0 c -2.575,0 -4.662,2.088 -4.661,4.663 v 0.001 C -4.661,-2.087 -2.574,0 0,0 m 82.599,108.582 c -10.289,-10e-4 -18.63,-8.342 -18.63,-18.631 0.004,-2.747 0.617,-5.46 1.794,-7.944 L 1.482,9.405 C 0.99,9.467 0.495,9.503 0,9.513 c -7.828,0 -14.174,-6.346 -14.174,-14.174 v 0 c 0,-7.829 6.346,-14.175 14.174,-14.175 v 0 c 7.828,0 14.174,6.346 14.174,14.175 v 0 c -0.011,1.066 -0.143,2.127 -0.392,3.164 l 64.887,73.284 c 1.29,-0.295 2.607,-0.452 3.93,-0.468 10.29,-0.001 18.632,8.341 18.632,18.63 v 0.002 c -0.002,3.85 -1.196,7.604 -3.418,10.747 l -0.946,-9.412 -9.767,-4.401 -8.696,6.257 1.071,10.66 8.705,3.92 c -1.806,0.569 -3.688,0.858 -5.581,0.86 z"
             style="fill:#2c5e87;fill-opacity:1;fill-rule:evenodd;stroke:none"
             id="path172" />
        </g>
      </g>
    </g>
  </g>
</svg>
