<?xml version="1.0" encoding="UTF-8" standalone="no"?>
<!-- Created with Inkscape (http://www.inkscape.org/) -->

<svg
   version="1.1"
   id="svg2"
   width="666.66669"
   height="560.39331"
   viewBox="0 0 666.66669 560.39331"
   sodipodi:docname="Rhythm Paradise Re-Megamix Logo (Flat).ai"
   xmlns:inkscape="http://www.inkscape.org/namespaces/inkscape"
   xmlns:sodipodi="http://sodipodi.sourceforge.net/DTD/sodipodi-0.dtd"
   xmlns="http://www.w3.org/2000/svg"
   xmlns:svg="http://www.w3.org/2000/svg">
  <defs
     id="defs6">
    <clipPath
       clipPathUnits="userSpaceOnUse"
       id="clipPath16">
      <path
         d="M 0,420.295 H 500 V 0 H 0 Z"
         id="path14" />
    </clipPath>
  </defs>
  <sodipodi:namedview
     id="namedview4"
     pagecolor="#ffffff"
     bordercolor="#000000"
     borderopacity="0.25"
     inkscape:showpageshadow="2"
     inkscape:pageopacity="0.0"
     inkscape:pagecheckerboard="0"
     inkscape:deskcolor="#d1d1d1" />
  <g
     id="g8"
     inkscape:groupmode="layer"
     inkscape:label="Rhythm Paradise Re-Megamix Logo (Flat)"
     transform="matrix(1.3333333,0,0,-1.3333333,0,560.39333)">
    <g
       id="g10">
      <g
         id="g12"
         clip-path="url(#clipPath16)">
        <g
           id="g18"
           transform="translate(489.6352,254.3205)">
          <path
             d="m 0,0 c 0,38.667 -23.895,71.831 -57.635,85.396 -11.391,41.57 -49.027,72.168 -93.578,72.168 -36.233,0 -67.891,-20.242 -84.579,-50.163 -10.321,3.569 -21.393,5.513 -32.911,5.513 -18.233,0 -35.352,-4.86 -50.133,-13.351 -13.256,6.976 -28.338,10.932 -44.329,10.932 -52.663,0 -95.508,-42.846 -95.508,-95.509 0,-11.117 1.915,-21.794 5.423,-31.726 -10.773,-14.514 -17.17,-32.56 -17.17,-52.094 0,-41.39 28.704,-76.095 66.957,-84.68 17.352,-20.326 44.372,-33.417 74.671,-33.417 20.496,0 39.49,5.992 55.008,16.159 11.66,-4.924 24.591,-7.668 38.195,-7.668 22.845,0 43.79,7.739 60.003,20.554 6.86,-1.45 13.97,-2.219 21.257,-2.219 47.269,0 87.17,32.126 99.031,75.688 C -22.797,-70.283 0,-37.767 0,0"
             style="fill:#000000;fill-opacity:1;fill-rule:nonzero;stroke:none"
             id="path20" />
        </g>
        <g
           id="g22"
           transform="translate(478.6108,254.3205)">
          <path
             d="m 0,0 c 0,36 -23.524,66.57 -55.937,77.044 -8.193,39.641 -42.855,69.496 -84.251,69.496 -35.504,0 -66.055,-21.961 -79.203,-53.221 -11.624,5.493 -24.602,8.571 -38.288,8.571 -18.448,0 -35.615,-5.588 -49.905,-15.156 -12.944,8.067 -28.214,12.737 -44.556,12.737 -46.586,0 -84.485,-37.9 -84.485,-84.485 0,-11.955 2.501,-23.336 7,-33.653 -11.651,-13.367 -18.747,-30.936 -18.747,-50.167 0,-37.427 26.833,-68.579 61.943,-74.621 15.143,-19.602 40.272,-32.452 68.661,-32.452 20.502,0 39.303,6.704 53.873,17.811 11.685,-5.936 25.088,-9.32 39.33,-9.32 22.214,0 42.381,8.231 57.168,21.556 7.68,-2.096 15.756,-3.222 24.092,-3.222 44.074,0 80.973,31.29 89.662,72.82 C -22.421,-65.113 0,-35.144 0,0"
             style="fill:#4087da;fill-opacity:1;fill-rule:nonzero;stroke:none"
             id="path24" />
        </g>
        <g
           id="g26"
           transform="translate(472.1147,254.3205)">
          <path
             d="m 0,0 c 0,34.527 -23.396,63.554 -55.12,71.961 -6.085,38.594 -38.94,68.082 -78.572,68.082 -35.334,0 -65.274,-23.444 -75.667,-55.877 -12.298,7.137 -26.583,11.227 -41.824,11.227 -18.666,0 -35.899,-6.132 -49.801,-16.489 -12.653,8.857 -28.043,14.07 -44.66,14.07 -43.072,0 -77.988,-34.917 -77.988,-77.988 0,-12.517 2.965,-24.336 8.207,-34.819 -12.325,-12.528 -19.953,-29.856 -19.953,-49.002 0,-35.161 25.727,-64.175 59.033,-68.597 13.717,-19.223 37.725,-31.979 65.073,-31.979 20.615,0 39.327,7.256 53.174,19.055 11.608,-6.685 25.323,-10.562 40.029,-10.562 21.926,0 41.662,8.598 55.462,22.319 8.137,-2.586 16.804,-3.985 25.798,-3.985 42.293,0 77.375,30.853 83.982,71.278 C -22.276,-62.134 0,-33.689 0,0"
             style="fill:#000000;fill-opacity:1;fill-rule:nonzero;stroke:none"
             id="path28" />
        </g>
        <g
           id="g30"
           transform="translate(500.0005,204.9845)">
          <path
             d="m 0,0 -69.333,-16.021 v -84.425 L 0,-84.439 v 16.189 c 0,8.024 -0.001,16.979 -7.819,25.193 C -2.26,-34.901 0,-26.048 0,-13.494 Z"
             style="fill:#000000;fill-opacity:1;fill-rule:nonzero;stroke:none"
             id="path32" />
        </g>
        <g
           id="g34"
           transform="translate(471.9839,192.2633)">
          <path
             d="m 0,0 -0.003,-16.021 c 0,-3.725 -2.319,-7.513 -6.648,-8.513 -4.329,-0.999 -6.648,1.718 -6.648,5.444 v 16.021 l -21.764,-5.036 v -7.231 c 0,-13.484 2.679,-20.395 10.059,-25.278 -10.074,-12.399 -10.087,-20.856 -10.059,-29.482 v -9.933 l 21.764,5.025 v 16.902 c 0,6.027 2.319,9.759 6.648,10.759 C -2.322,-46.344 0,-49.006 0,-55.032 v -16.902 l 21.765,5.025 v 9.933 c 0,8.632 0,17.099 -10.061,24.837 7.379,8.288 10.061,16.438 10.061,29.922 v 7.242 z"
             style="fill:#828282;fill-opacity:1;fill-rule:nonzero;stroke:none"
             id="path36" />
        </g>
        <g
           id="g38"
           transform="translate(401.2055,189.5143)">
          <path
             d="m 0,0 v -84.443 l 34.296,7.918 V 7.918 Z"
             style="fill:#000000;fill-opacity:1;fill-rule:nonzero;stroke:none"
             id="path40" />
        </g>
        <g
           id="g42"
           transform="translate(407.4575,184.7057)">
          <path
             d="m 0,0 v -71.938 l 21.792,5.03 V 5.03 Z"
             style="fill:#828282;fill-opacity:1;fill-rule:nonzero;stroke:none"
             id="path44" />
        </g>
        <g
           id="g46"
           transform="translate(397.935,172.0094)">
          <path
             d="m 0,0 c -6.549,6.017 -15.44,7.944 -25.713,5.572 -5.608,-1.295 -10.452,-3.533 -15.275,-7.108 -4.824,1.348 -9.666,1.35 -15.276,0.056 -10.272,-2.373 -19.164,-8.405 -25.713,-17.446 -6.678,-9.221 -9.045,-17.636 -9.045,-32.155 V -95.719 L 9.047,-72.616 v 44.637 C 9.047,-13.458 6.68,-6.137 0,0"
             style="fill:#000000;fill-opacity:1;fill-rule:nonzero;stroke:none"
             id="path48" />
        </g>
        <g
           id="g50"
           transform="translate(372.2212,171.3288)">
          <path
             d="m 0,0 c -5.668,-1.309 -10.23,-3.678 -15.274,-8.06 -5.043,2.053 -9.58,2.324 -15.276,1.008 -8.417,-1.944 -15.652,-6.832 -20.995,-14.208 -5.619,-7.757 -7.511,-14.671 -7.511,-27.698 v -38.384 l 21.87,5.05 v 42.54 c 0,6.411 2.066,9.094 5.442,9.872 3.375,0.779 5.534,-0.927 5.534,-7.338 v -42.541 l 21.871,5.049 v 42.542 c 0,6.41 2.159,9.114 5.533,9.894 3.376,0.779 5.443,-0.951 5.443,-7.361 v -42.541 l 21.872,5.049 v 38.385 c 0,13.027 -1.894,19.067 -7.513,24.229 -3.847,3.535 -8.662,5.33 -14.208,5.33 C 4.631,0.817 2.364,0.547 0,0"
             style="fill:#828282;fill-opacity:1;fill-rule:nonzero;stroke:none"
             id="path52" />
        </g>
        <g
           id="g54"
           transform="translate(304.4848,155.8122)">
          <path
             d="m 0,0 c -6.249,6.931 -16.715,9.717 -27.312,7.271 -10.584,-2.444 -21.042,-10.059 -27.292,-19.876 -5.375,-8.439 -7.374,-16.142 -7.374,-28.421 v -45.898 l 69.332,16.007 v 45.896 C 7.354,-12.726 5.361,-5.944 0,0"
             style="fill:#000000;fill-opacity:1;fill-rule:nonzero;stroke:none"
             id="path56" />
        </g>
        <g
           id="g58"
           transform="translate(271.3081,123.3971)">
          <path
             d="m 0,0 -5.813,4.67 8.053,3.118 3.625,8.527 3.625,-6.852 8.054,0.6 -5.815,-7.355 1.354,-8.155 -7.218,2.307 -7.219,-5.641 z M 5.865,33.434 C -2.761,31.44 -11.281,25.29 -16.417,17.226 -20.919,10.159 -22.549,3.743 -22.549,-7.168 v -39.645 l 21.739,5.018 v 15.788 l 13.35,3.062 v -15.767 l 21.738,5.018 V 5.951 c 0,10.911 -1.618,16.585 -6.112,21.569 -3.895,4.319 -9.74,6.631 -16.097,6.631 -2.032,0 -4.115,-0.235 -6.204,-0.717"
             style="fill:#828282;fill-opacity:1;fill-rule:nonzero;stroke:none"
             id="path60" />
        </g>
        <g
           id="g62"
           transform="translate(243.4062,146.2819)">
          <path
             d="m 0,0 c -7.178,-0.218 -12.144,-0.828 -18.323,-2.255 -14.015,-3.236 -24.882,-9.997 -33.219,-20.671 -7.608,-9.74 -11.972,-22.062 -11.972,-33.806 0,-12.237 4.634,-22.509 13.047,-28.928 8.468,-6.463 17.978,-7.859 31.799,-4.668 6.044,1.395 10.564,2.927 18.6,6.302 l 5.091,2.138 V 0.153 Z"
             style="fill:#000000;fill-opacity:1;fill-rule:nonzero;stroke:none"
             id="path64" />
        </g>
        <g
           id="g66"
           transform="translate(225.0825,137.7741)">
          <path
             d="m 0,0 c -12.398,-2.862 -21.52,-8.504 -28.692,-17.686 -6.577,-8.42 -10.246,-18.955 -10.246,-29.094 0,-10.593 3.983,-19.413 11.201,-24.92 7.248,-5.53 15.175,-6.688 27.393,-3.867 5.848,1.35 10.165,2.87 17.438,5.924 v 41.993 l -21.739,-5.019 v -21.453 c -7.776,-0.719 -12.819,4.051 -12.819,12.259 0,9.765 6.741,16.848 18.632,19.593 5.107,1.18 9.264,1.688 15.926,1.823 V 2.094 C 10.007,1.88 5.441,1.256 0,0"
             style="fill:#828282;fill-opacity:1;fill-rule:nonzero;stroke:none"
             id="path68" />
        </g>
        <g
           id="g70"
           transform="translate(158.5854,134.2956)">
          <path
             d="m 0,0 c -9.151,-2.063 -16.019,-5.583 -21.019,-10.697 -6.314,-6.457 -9.937,-15.09 -9.937,-23.687 0,-6.012 1.588,-10.256 5.116,-13.201 -3.969,-5.134 -5.806,-10.838 -5.806,-17.668 0,-8.467 2.958,-14.797 8.551,-18.307 6.058,-3.801 12.478,-3.363 20.874,-1.425 l 29.105,6.719 V 6.207 Z"
             style="fill:#000000;fill-opacity:1;fill-rule:nonzero;stroke:none"
             id="path72" />
        </g>
        <g
           id="g74"
           transform="translate(158.5674,128.0387)">
          <path
             d="m 0,0 c -7.698,-1.754 -13.341,-4.581 -17.12,-8.446 -4.791,-4.9 -7.565,-11.443 -7.565,-18.238 0,-6.98 2.468,-10.191 9.343,-12.179 -7.272,-5.549 -10.033,-10.727 -10.033,-18.689 0,-6.584 2.139,-11.412 6.37,-14.066 4.053,-2.543 8.282,-2.825 16.801,-0.858 l 22.854,5.277 v 20.178 L 6.158,-50.367 c -5.733,-1.323 -6.317,1.023 -6.317,2.642 0,1.513 0.584,4.204 6.317,5.528 l 14.492,3.344 v 15.204 L 6.158,-26.996 c -5.733,-1.323 -7.486,-0.79 -7.486,2.342 0,3.132 1.753,4.474 7.486,5.798 l 14.492,3.345 V 4.767 Z"
             style="fill:#828282;fill-opacity:1;fill-rule:nonzero;stroke:none"
             id="path76" />
        </g>
        <g
           id="g78"
           transform="translate(124.0542,109.8102)">
          <path
             d="m 0,0 c -6.548,6.018 -15.439,7.944 -25.712,5.573 -5.61,-1.295 -10.454,-3.534 -15.275,-7.108 -4.823,1.348 -9.666,1.349 -15.276,0.055 -10.273,-2.372 -19.164,-8.405 -25.713,-17.446 -6.679,-9.22 -9.046,-17.635 -9.046,-32.155 V -95.718 L 9.047,-72.615 v 44.636 C 9.047,-13.458 6.68,-6.136 0,0"
             style="fill:#000000;fill-opacity:1;fill-rule:nonzero;stroke:none"
             id="path80" />
        </g>
        <g
           id="g82"
           transform="translate(98.3418,109.1315)">
          <path
             d="m 0,0 c -5.67,-1.31 -10.233,-3.679 -15.276,-8.061 -5.042,2.053 -9.578,2.324 -15.274,1.008 -8.418,-1.944 -15.653,-6.832 -20.996,-14.208 -5.619,-7.757 -7.511,-14.672 -7.511,-27.699 v -38.383 l 21.871,5.049 v 42.541 c 0,6.41 2.066,9.094 5.441,9.872 3.374,0.779 5.535,-0.928 5.535,-7.338 v -42.542 l 21.87,5.051 v 42.541 c 0,6.41 2.159,9.114 5.534,9.893 3.376,0.779 5.441,-0.949 5.441,-7.36 v -42.542 l 21.872,5.05 v 38.385 c 0,13.026 -1.893,19.067 -7.512,24.229 -3.847,3.535 -8.662,5.33 -14.209,5.33 C 4.63,0.817 2.364,0.545 0,0"
             style="fill:#828282;fill-opacity:1;fill-rule:nonzero;stroke:none"
             id="path84" />
        </g>
        <g
           id="g86"
           transform="translate(85.3052,190.0827)">
          <path
             d="m 0,0 c -9.151,-2.063 -16.018,-5.583 -21.02,-10.697 -6.314,-6.457 -9.936,-15.09 -9.936,-23.686 0,-6.013 1.588,-10.257 5.116,-13.202 -3.969,-5.134 -5.805,-10.838 -5.805,-17.668 0,-8.467 2.956,-14.796 8.55,-18.307 6.057,-3.8 12.478,-3.363 20.873,-1.425 l 29.107,6.72 V 6.207 Z"
             style="fill:#000000;fill-opacity:1;fill-rule:nonzero;stroke:none"
             id="path88" />
        </g>
        <g
           id="g90"
           transform="translate(85.2876,183.8268)">
          <path
             d="m 0,0 c -7.698,-1.755 -13.341,-4.582 -17.12,-8.446 -4.791,-4.9 -7.566,-11.443 -7.566,-18.239 0,-6.98 2.469,-10.191 9.344,-12.179 -7.272,-5.549 -10.033,-10.727 -10.033,-18.689 0,-6.584 2.139,-11.412 6.37,-14.066 4.052,-2.542 8.281,-2.825 16.801,-0.858 L 20.65,-67.2 v 20.179 L 6.157,-50.367 c -5.732,-1.323 -6.317,1.022 -6.317,2.642 0,1.513 0.585,4.204 6.317,5.527 l 14.493,3.345 V -23.65 L 6.157,-26.997 c -5.732,-1.323 -7.485,-0.79 -7.485,2.342 0,3.133 1.753,4.474 7.485,5.798 l 14.493,3.345 V 4.767 Z"
             style="fill:#828282;fill-opacity:1;fill-rule:nonzero;stroke:none"
             id="path92" />
        </g>
        <g
           id="g94"
           transform="translate(0,82.3004)">
          <path
             d="m 0,0 v 80.811 c 10.327,2.628 20.604,5.455 30.965,7.941 5.68,1.199 11.835,1.456 17.258,-0.916 5.411,-2.276 9.67,-7.129 11.137,-12.824 1.646,-5.812 1.346,-12.053 -0.187,-17.854 -0.778,-2.679 -1.885,-5.269 -3.341,-7.652 2.584,-2.846 4.154,-6.542 4.532,-10.359 0.788,-5.703 0.323,-11.472 0.456,-17.208 V 13.942 C 40.544,8.674 20.275,3.405 0,-1.864 Z"
             style="fill:#000000;fill-opacity:1;fill-rule:nonzero;stroke:none"
             id="path96" />
        </g>
        <g
           id="g98"
           transform="translate(24.1377,151.6403)">
          <path
             d="m 0,0 c 3.542,0.919 6.413,-1.646 6.412,-5.729 0,-0.839 -0.124,-1.706 -0.368,-2.56 l 4.274,-3.935 c 2.059,0.536 3.728,-0.954 3.727,-3.328 0,-2.372 -1.669,-4.727 -3.727,-5.261 -2.056,-0.534 -3.723,0.955 -3.724,3.325 l -4.195,3.859 C 1.637,-14.183 0.822,-14.576 0,-14.79 c -3.543,-0.922 -6.416,1.643 -6.415,5.727 0.005,0.463 0.047,0.933 0.127,1.407 l 3.587,-0.625 3.281,3.958 -0.642,4.302 C -0.041,-0.015 -0.021,-0.007 0,0 m -18.368,7.006 v -70.751 l 19.559,5.084 v 22.471 l 2.788,0.725 v -0.028 c 3.148,0.576 5.156,0.339 6.025,-0.714 0.87,-1.052 1.305,-3.808 1.305,-8.266 v -11.558 l 19.604,5.096 v 13.632 c 0,4.735 -0.48,8.22 -1.44,10.458 -0.959,2.24 -2.832,4.275 -5.62,6.107 4.466,4.962 6.699,11.003 6.699,18.121 0,7.809 -2.772,13.014 -8.318,15.616 -2.188,1.056 -4.661,1.57 -7.419,1.545 -2.728,0.017 -6.07,-0.49 -10.027,-1.519 z"
             style="fill:#828282;fill-opacity:1;fill-rule:nonzero;stroke:none"
             id="path100" />
        </g>
        <g
           id="g102"
           transform="translate(453.9477,121.5211)">
          <path
             d="m 0,0 -14.264,1.486 -6.868,12.639 -5.811,-13.168 -14.136,-2.63 10.687,-9.593 -1.837,-14.182 12.393,7.138 12.962,-6.208 -2.981,14.068 z"
             style="fill:#000000;fill-opacity:1;fill-rule:nonzero;stroke:none"
             id="path104" />
        </g>
        <g
           id="g106"
           transform="translate(444.5376,118.029)">
          <path
             d="m 0,0 -7.645,0.796 -3.662,6.742 -3.105,-7.034 -7.566,-1.406 5.707,-5.123 -0.981,-7.591 6.635,3.822 6.928,-3.318 -1.592,7.511 z"
             style="fill:#4087da;fill-opacity:1;fill-rule:nonzero;stroke:none"
             id="path108" />
        </g>
        <g
           id="g110"
           transform="translate(222.7856,141.0016)">
          <path
             d="m 0,0 5.021,11.548 -12.22,-3.018 -9.439,8.336 -0.905,-12.559 -10.85,-6.431 11.685,-4.714 2.712,-12.303 8.137,9.643 12.544,-1.209 z"
             style="fill:#000000;fill-opacity:1;fill-rule:nonzero;stroke:none"
             id="path112" />
        </g>
        <g
           id="g114"
           transform="translate(218.3149,140.6696)">
          <path
             d="m 0,0 2.654,6.105 -6.45,-1.592 -4.99,4.406 -0.478,-6.636 -5.733,-3.397 6.184,-2.495 1.434,-6.503 4.3,5.095 6.609,-0.636 z"
             style="fill:#4087da;fill-opacity:1;fill-rule:nonzero;stroke:none"
             id="path116" />
        </g>
        <g
           id="g118"
           transform="translate(48.8906,23.5866)">
          <path
             d="m 0,0 2.672,13.457 -12.291,-6.052 -11.943,6.699 1.923,-13.555 -10.073,-9.323 13.514,-2.339 5.673,-12.474 6.47,12.141 13.622,1.597 z"
             style="fill:#000000;fill-opacity:1;fill-rule:nonzero;stroke:none"
             id="path120" />
        </g>
        <g
           id="g122"
           transform="translate(44.5932,22.3161)">
          <path
             d="m 0,0 1.513,7.618 -6.954,-3.425 -6.769,3.796 1.088,-7.671 -5.706,-5.282 7.671,-1.327 3.211,-7.06 3.663,6.874 7.698,0.903 z"
             style="fill:#4087da;fill-opacity:1;fill-rule:nonzero;stroke:none"
             id="path124" />
        </g>
        <g
           id="g126"
           transform="translate(419.6967,204.9201)">
          <path
             d="M 0,0 V 6.523 L -1.641,-0.387 -3.418,-0.806 -5.02,5.34 V -1.184 L -6.699,-1.58 v 7.809 l 2.624,0.619 1.583,-5.821 0.018,0.005 1.544,6.558 2.591,0.611 v -7.81 z m -12.129,-2.86 v 6.424 l -2.702,-0.637 v 1.381 l 7.148,1.685 V 4.612 l -2.605,-0.614 v -6.424 z"
             style="fill:#4087da;fill-opacity:1;fill-rule:nonzero;stroke:none"
             id="path128" />
        </g>
        <g
           id="g130"
           transform="translate(396.937,248.3542)">
          <path
             d="m 0,0 c 3.779,1.424 11.691,3.552 18.337,4.993 v 20.573 l -33.211,-7.668 v -54.985 l 33.158,7.655 v 9.161 c -4.36,-1.143 -13.344,-2.831 -17.3,-3.499 -4.817,-0.809 -5.503,5.327 -0.175,7.085 3.059,1.002 8.668,2.339 13.045,3.569 v 7.054 C 9.863,-6.871 4.466,-7.806 0.211,-8.404 -5.063,-9.16 -5.979,-2.25 0,0"
             style="fill:#4087da;fill-opacity:1;fill-rule:nonzero;stroke:none"
             id="path132" />
        </g>
        <g
           id="g134"
           transform="translate(366.104,210.4665)">
          <path
             d="m 0,0 c -0.194,1.827 -3.354,2.241 -8.277,3.421 -8.606,2.137 -13.933,7.207 -13.389,16.114 0.579,9.613 5.446,16.319 31.206,20.693 V 20.229 C 0.245,19.067 -4.887,17.328 -7.063,15.547 -9.385,13.664 -9.25,10.579 -5.899,9.459 -4.443,8.973 -0.14,7.536 2.461,6.664 7.453,5 9.895,2.449 10.404,-2.066 11.842,-14.804 -11.213,-18.145 -20.718,-19.54 V -8.223 C -9.33,-5.928 0.439,-3.917 0,0"
             style="fill:#4087da;fill-opacity:1;fill-rule:nonzero;stroke:none"
             id="path136" />
        </g>
        <g
           id="g138"
           transform="translate(326.2231,207.1256)">
          <path
             d="m 0,0 v 49.018 l 12.396,2.861 V 2.862 Z"
             style="fill:#4087da;fill-opacity:1;fill-rule:nonzero;stroke:none"
             id="path140" />
        </g>
        <g
           id="g142"
           transform="translate(296.5981,198.9508)">
          <path
             d="m 0,0 c -3.411,-0.79 -4.888,0.352 -4.888,4.342 v 12.589 c 0,2.901 -0.149,5.218 2.603,5.995 5.977,1.688 12.658,-1.512 13.292,-8.017 C 11.745,7.349 7.539,1.74 0,0 M -13.291,41.967 V -11.499 C 12.554,-7.719 23.806,2.268 23.524,22.117 23.278,39.33 6.189,48.789 -13.291,41.967"
             style="fill:#4087da;fill-opacity:1;fill-rule:nonzero;stroke:none"
             id="path144" />
        </g>
        <g
           id="g146"
           transform="translate(260.7143,190.6696)">
          <path
             d="m 0,0 -6.242,-1.44 c -1.568,-0.363 -2.461,0.614 -2.267,2.794 0.176,2.04 1.09,6.365 1.441,7.841 0.738,3.06 2.286,4.554 4.062,4.818 2.865,0.457 4.254,-1.635 5.361,-6.91 C 2.462,6.61 2.761,5.538 2.884,4.097 3.13,1.16 2.217,0.512 0,0 M 10.936,23.437 C 7.666,34.161 5.019,36.808 -1.494,35.304 -7.236,33.979 -10.5,30.989 -13.239,20.5 c -2.69,-10.303 -5.644,-24.896 -8.035,-41.562 l 9.459,2.056 c 0.176,1.319 0.492,2.866 0.95,5.222 0.492,2.374 1.775,4.071 4.324,4.659 2.1,0.484 6.006,1.387 7.385,1.705 1.973,0.456 3.78,-1.107 4.413,-3.744 0.422,-1.759 0.967,-4.237 1.301,-5.907 l 12.553,2.883 c -1.529,12.29 -4.923,26.97 -8.175,37.625"
             style="fill:#4087da;fill-opacity:1;fill-rule:nonzero;stroke:none"
             id="path148" />
        </g>
        <g
           id="g150"
           transform="translate(214.4326,194.8297)">
          <path
             d="m 0,0 c -3.22,-0.755 -5.013,1.038 -5.013,4.873 v 3.705 c 0,2.672 0.519,4.991 2.902,5.746 C 4.807,16.516 9.625,13.533 9.625,8.849 9.625,4.471 6.275,1.475 0,0 m 23.32,16.01 c 0,17.026 -16.793,21.879 -37.027,14.692 v -53.565 l 8.682,2.004 v 12.364 c 0,2.1 1.546,1.734 2.973,0.46 1.002,-0.897 7.03,-6.738 11.241,-10.939 l 13.253,3.06 c 0,0 -11.554,11.807 -12.887,12.976 7.761,2.901 13.765,10.465 13.765,18.948"
             style="fill:#4087da;fill-opacity:1;fill-rule:nonzero;stroke:none"
             id="path152" />
        </g>
        <g
           id="g154"
           transform="translate(180.3135,165.8444)">
          <path
             d="m 0,0 -6.241,-1.44 c -1.569,-0.363 -2.462,0.614 -2.268,2.794 0.176,2.04 1.09,6.365 1.442,7.841 0.738,3.06 2.285,4.554 4.061,4.818 C -0.141,14.47 1.249,12.378 2.356,7.104 2.461,6.61 2.761,5.538 2.884,4.097 3.13,1.16 2.217,0.512 0,0 M 10.936,23.437 C 7.666,34.161 5.019,36.808 -1.494,35.304 -7.236,33.979 -10.5,30.989 -13.239,20.5 c -2.69,-10.303 -5.643,-24.896 -8.034,-41.562 l 9.458,2.056 c 0.176,1.319 0.493,2.866 0.95,5.222 0.492,2.374 1.776,4.071 4.325,4.659 2.099,0.485 6.005,1.387 7.384,1.705 1.974,0.456 3.78,-1.107 4.413,-3.744 0.422,-1.759 0.967,-4.237 1.301,-5.907 l 12.553,2.883 c -1.529,12.29 -4.923,26.97 -8.175,37.625"
             style="fill:#4087da;fill-opacity:1;fill-rule:nonzero;stroke:none"
             id="path156" />
        </g>
        <g
           id="g158"
           transform="translate(136.0434,176.1657)">
          <path
             d="m 0,0 c -3.903,-0.949 -6.154,0.07 -6.154,3.341 v 11.833 c 0,3.342 1.846,5.45 5.521,5.925 7.367,0.949 10.69,-3.359 10.69,-8.967 C 10.057,7.455 7.296,1.794 0,0 m -24.492,38.171 v -74.109 l 18.356,4.238 v 17.406 c 0,3.183 0.791,4.765 2.69,5.099 17.106,3.009 29.291,11.61 29.292,29.257 0,19.376 -20.818,29.801 -50.338,18.109"
             style="fill:#4087da;fill-opacity:1;fill-rule:nonzero;stroke:none"
             id="path160" />
        </g>
        <g
           id="g162"
           transform="translate(373.9926,357.2375)">
          <path
             d="m 0,0 c -5.063,-16.72 -7.929,-24.896 -10.426,-31.788 -4.255,-11.727 -8.668,-7.12 -10.724,-3.85 -2.392,3.833 -5.644,11.287 -11.288,24.948 l -13.942,-3.217 v -65.631 l 11.568,2.671 c -0.087,10.461 0.088,17.564 0.651,20.325 0.51,2.479 2.005,2.83 3.516,0.369 1.249,-2.022 3.218,-6.4 7.138,-15.402 l 7.752,1.79 c 4.273,11.48 6.577,17.268 8.213,20.099 1.318,2.303 3.832,3.921 4.589,-0.334 0.58,-3.217 0.527,-11.946 0.51,-22.635 l 11.99,2.768 V 2.204 Z"
             style="fill:#4087da;fill-opacity:1;fill-rule:nonzero;stroke:none"
             id="path164" />
        </g>
        <g
           id="g166"
           transform="translate(307.2885,322.9704)">
          <path
             d="m 0,0 c -0.053,-8.967 -0.035,-17.142 -0.422,-20.131 -0.897,-7.138 -13.099,-10.355 -13.696,-3.78 -0.281,3.094 -0.528,7.182 -0.528,16.307 l -9.863,-2.277 V -70.01 l 12.571,2.902 c 0,9.547 0,13.695 0.158,16.965 0.439,8.615 13.38,10.567 14.505,3.077 0.509,-3.411 0.597,-5.046 0.597,-12.747 l 10.022,2.314 v 60.58 z"
             style="fill:#4087da;fill-opacity:1;fill-rule:nonzero;stroke:none"
             id="path168" />
        </g>
        <g
           id="g170"
           transform="translate(240.584,318.0041)">
          <path
             d="m 0,0 v -24.203 l 7.015,1.62 c 4.255,0.982 6.013,0.428 6.013,-7.104 v -31.067 l 11.515,2.638 v 28.5 c 0,12.659 1.189,15.854 7.456,17.3 l 5.731,1.323 V 8.71 Z"
             style="fill:#4087da;fill-opacity:1;fill-rule:nonzero;stroke:none"
             id="path172" />
        </g>
        <g
           id="g174"
           transform="translate(235.8721,302.0187)">
          <path
             d="m 0,0 -10.76,-2.484 c 0,0 0.158,-11.076 -0.264,-19.234 -0.615,-11.938 -12.641,-14.505 -13.608,-3.147 -0.493,5.96 -0.721,17.84 -0.721,17.84 l -13.379,-3.089 v -9.688 c 0,-23.119 15.032,-25.968 22.891,-19.375 0.474,0.405 0.949,0.651 1.336,0.475 0.44,-0.194 0.422,-0.668 0.246,-1.547 -0.475,-2.303 -3.886,-6.857 -10.778,-8.703 -5.256,-1.406 -10.408,-2.294 -12.975,-2.698 v -16.044 c 11.569,1.494 24.966,4.8 31.208,14.4 3.252,5.01 4.958,10.302 5.802,18.144 C 0.316,-22.808 0,0 0,0"
             style="fill:#4087da;fill-opacity:1;fill-rule:nonzero;stroke:none"
             id="path176" />
        </g>
        <g
           id="g178"
           transform="translate(177.2373,303.0163)">
          <path
             d="m 0,0 c -0.053,-8.967 -0.035,-17.142 -0.422,-20.131 -0.897,-7.138 -13.099,-10.356 -13.696,-3.78 -0.281,3.094 -0.528,7.182 -0.528,16.307 l -9.863,-2.277 V -70.01 l 12.571,2.902 c 0,9.547 0,13.695 0.158,16.965 0.44,8.615 13.38,10.567 14.505,3.077 0.51,-3.411 0.598,-5.046 0.598,-12.747 l 10.021,2.314 v 60.58 z"
             style="fill:#4087da;fill-opacity:1;fill-rule:nonzero;stroke:none"
             id="path180" />
        </g>
        <g
           id="g182"
           transform="translate(111.7632,266.8507)">
          <path
             d="m 0,0 c -4.8,-1.125 -7.472,1.547 -7.472,7.261 v 5.521 c 0,3.982 0.774,7.437 4.325,8.562 C 7.165,24.611 14.347,20.167 14.347,13.187 14.347,6.664 9.354,2.198 0,0 m 34.759,23.858 c 0,25.371 -24.825,32.737 -55.189,21.89 v -81.897 l 12.94,2.987 v 20.503 c 0,3.13 2.303,2.585 4.431,0.686 1.495,-1.336 10.478,-10.039 16.755,-16.298 l 19.755,4.561 c 0,0 -17.223,17.592 -19.21,19.333 11.569,4.324 20.518,15.596 20.518,28.235"
             style="fill:#4087da;fill-opacity:1;fill-rule:nonzero;stroke:none"
             id="path184" />
        </g>
        <g
           id="g186"
           transform="translate(408.3247,416.6886)">
          <path
             d="m 0,0 c -2.24,0 -4.478,-0.16 -6.695,-0.479 -0.133,-0.028 -0.267,-0.057 -0.4,-0.087 l -1.384,-5.422 h 0.487 c -5.451,-1.047 -10.64,-3.167 -15.265,-6.236 l 0.168,0.167 -4.846,2.718 c -0.985,-0.681 -1.944,-1.399 -2.875,-2.153 -1.693,-1.467 -3.28,-3.053 -4.747,-4.747 -0.82,-1.005 -1.597,-2.043 -2.332,-3.113 l 2.791,-4.705 0.331,0.331 c -3.088,-4.642 -5.218,-9.854 -6.267,-15.33 l -5.554,-1.564 c -0.301,-2.13 -0.454,-4.278 -0.461,-6.429 0,-2.241 0.16,-4.479 0.48,-6.697 0.058,-0.286 0.121,-0.571 0.185,-0.856 l 5.466,-1.396 v 0.498 c 1.087,-5.312 3.195,-10.363 6.208,-14.872 l -0.482,0.482 -2.711,-4.836 c 0.738,-1.077 1.52,-2.123 2.346,-3.134 1.467,-1.694 3.054,-3.28 4.747,-4.747 0.919,-0.745 1.867,-1.454 2.84,-2.126 l 4.779,2.836 -0.204,0.202 c 4.751,-3.189 10.107,-5.371 15.734,-6.41 h -1.22 l 1.511,-5.369 c 0.224,-0.05 0.45,-0.099 0.675,-0.147 2.217,-0.318 4.455,-0.478 6.695,-0.478 2.238,0 4.474,0.16 6.688,0.478 l 1.407,5.51 H 7.631 c 5.715,1.057 11.147,3.292 15.952,6.563 l 4.941,-2.771 c 0.78,0.547 1.543,1.118 2.288,1.712 1.694,1.467 3.28,3.053 4.748,4.747 0.953,1.154 1.85,2.354 2.69,3.594 l -2.868,4.835 -0.045,-0.045 c 2.777,4.424 4.703,9.328 5.678,14.46 l 5.599,1.575 c 0.291,2.118 0.437,4.254 0.437,6.392 0,0.77 -0.02,1.539 -0.058,2.308 -0.037,0.769 -0.094,1.536 -0.169,2.303 -0.075,0.766 -0.17,1.53 -0.283,2.292 -0.037,0.224 -0.076,0.448 -0.117,0.671 l -5.503,1.407 v -0.05 c -1.106,5.096 -3.151,9.94 -6.033,14.284 l 0.01,-0.011 2.784,4.964 c -0.425,0.57 -0.862,1.13 -1.312,1.679 -0.488,0.596 -0.991,1.179 -1.509,1.75 -0.516,0.57 -1.048,1.128 -1.591,1.672 -0.544,0.545 -1.102,1.076 -1.672,1.593 -0.571,0.517 -1.155,1.02 -1.75,1.507 -0.595,0.489 -1.202,0.963 -1.82,1.422 -0.119,0.084 -0.238,0.169 -0.358,0.252 l -4.773,-2.83 0.295,-0.294 c -4.468,2.969 -9.466,5.053 -14.721,6.137 H 8.497 L 6.956,-0.518 C 6.939,-0.515 6.922,-0.512 6.904,-0.51 6.143,-0.396 5.379,-0.302 4.612,-0.227 3.847,-0.151 3.078,-0.094 2.31,-0.056 1.54,-0.019 0.771,0 0.001,0 Z"
             style="fill:#8898b0;fill-opacity:1;fill-rule:evenodd;stroke:none"
             id="path188" />
        </g>
        <g
           id="g190"
           transform="translate(408.3257,402.9084)">
          <path
             d="m 0,0 c 18.374,0 33.27,-14.896 33.27,-33.27 0,-18.374 -14.896,-33.269 -33.27,-33.269 -18.374,0 -33.27,14.895 -33.27,33.269 C -33.27,-14.896 -18.374,0 0,0"
             style="fill:#404040;fill-opacity:1;fill-rule:evenodd;stroke:none"
             id="path192" />
        </g>
        <g
           id="g194"
           transform="translate(408.3257,395.6916)">
          <path
             d="m 0,0 c -14.365,0 -26.053,-11.687 -26.053,-26.053 0,-14.365 11.688,-26.052 26.053,-26.052 14.366,0 26.053,11.687 26.053,26.052 C 26.053,-11.687 14.366,0 0,0 m 0,-55.25 c -16.099,0 -29.196,13.098 -29.196,29.197 0,16.099 13.097,29.197 29.196,29.197 16.1,0 29.197,-13.098 29.197,-29.197 C 29.197,-42.152 16.1,-55.25 0,-55.25"
             style="fill:#8898b0;fill-opacity:1;fill-rule:nonzero;stroke:none"
             id="path196" />
        </g>
        <g
           id="g198"
           transform="translate(408.3257,379.4503)">
          <path
             d="m 0,0 c 5.419,0 9.812,-4.393 9.812,-9.812 0,-5.418 -4.393,-9.811 -9.812,-9.811 -5.418,0 -9.812,4.393 -9.812,9.811 C -9.812,-4.393 -5.418,0 0,0"
             style="fill:#8898b0;fill-opacity:1;fill-rule:evenodd;stroke:none"
             id="path200" />
        </g>
        <g
           id="g202"
           transform="translate(331.1899,420.2946)">
          <path
             d="M 0,0 C -1.643,0 -3.283,-0.117 -4.908,-0.351 -5.007,-0.372 -5.104,-0.393 -5.202,-0.415 L -6.216,-4.39 h 0.357 c -3.997,-0.767 -7.801,-2.321 -11.192,-4.572 l 0.123,0.123 -3.552,1.992 c -0.722,-0.499 -1.425,-1.025 -2.108,-1.578 -1.241,-1.075 -2.404,-2.239 -3.48,-3.48 -0.601,-0.737 -1.171,-1.498 -1.709,-2.283 l 2.046,-3.449 0.243,0.243 c -2.265,-3.403 -3.827,-7.224 -4.595,-11.239 l -4.072,-1.146 c -0.221,-1.562 -0.333,-3.137 -0.338,-4.714 0,-1.643 0.117,-3.283 0.351,-4.909 0.043,-0.21 0.089,-0.419 0.136,-0.628 l 4.007,-1.024 v 0.366 c 0.798,-3.895 2.343,-7.598 4.552,-10.904 l -0.354,0.353 -1.988,-3.545 c 0.542,-0.789 1.116,-1.556 1.721,-2.298 1.076,-1.241 2.239,-2.404 3.48,-3.48 0.674,-0.545 1.369,-1.065 2.082,-1.559 l 3.503,2.079 -0.148,0.149 c 3.483,-2.338 7.409,-3.938 11.534,-4.7 h -0.895 l 1.109,-3.935 c 0.165,-0.037 0.33,-0.073 0.495,-0.108 1.625,-0.234 3.265,-0.351 4.908,-0.351 1.641,0 3.279,0.118 4.903,0.351 l 1.031,4.039 H 5.595 c 4.189,0.775 8.172,2.414 11.694,4.812 l 3.623,-2.032 c 0.571,0.401 1.131,0.82 1.677,1.255 1.241,1.076 2.404,2.239 3.48,3.48 0.7,0.847 1.358,1.727 1.973,2.636 l -2.103,3.544 -0.033,-0.033 c 2.036,3.244 3.448,6.839 4.163,10.601 l 4.105,1.155 c 0.213,1.553 0.32,3.118 0.32,4.686 0,0.564 -0.015,1.128 -0.042,1.692 -0.028,0.564 -0.069,1.127 -0.124,1.688 -0.056,0.562 -0.125,1.122 -0.208,1.68 -0.027,0.165 -0.056,0.329 -0.086,0.493 L 30,-27.909 v -0.036 c -0.811,3.735 -2.311,7.287 -4.424,10.471 l 0.008,-0.007 2.041,3.639 c -0.312,0.418 -0.632,0.828 -0.961,1.231 -0.358,0.437 -0.727,0.864 -1.106,1.282 -0.379,0.419 -0.768,0.828 -1.167,1.226 -0.4,0.4 -0.808,0.789 -1.226,1.168 -0.419,0.379 -0.847,0.747 -1.283,1.105 -0.436,0.359 -0.881,0.706 -1.334,1.042 -0.087,0.062 -0.175,0.124 -0.263,0.185 l -3.498,-2.074 0.216,-0.216 c -3.276,2.177 -6.94,3.705 -10.793,4.499 H 6.229 L 5.1,-0.379 C 5.087,-0.377 5.074,-0.375 5.062,-0.374 4.503,-0.291 3.943,-0.222 3.381,-0.166 2.819,-0.111 2.257,-0.069 1.692,-0.042 1.129,-0.014 0.564,0 0,0"
             style="fill:#8898b0;fill-opacity:1;fill-rule:evenodd;stroke:none"
             id="path204" />
        </g>
        <g
           id="g206"
           transform="translate(331.1899,410.1916)">
          <path
             d="m 0,0 c 13.471,0 24.391,-10.92 24.391,-24.391 0,-13.47 -10.92,-24.39 -24.391,-24.39 -13.47,0 -24.39,10.92 -24.39,24.39 C -24.39,-10.92 -13.47,0 0,0"
             style="fill:#404040;fill-opacity:1;fill-rule:evenodd;stroke:none"
             id="path208" />
        </g>
        <g
           id="g210"
           transform="translate(331.1909,404.9015)">
          <path
             d="m 0,0 c -10.532,0 -19.101,-8.568 -19.101,-19.101 0,-10.531 8.569,-19.1 19.101,-19.1 10.531,0 19.1,8.569 19.1,19.1 C 19.1,-8.568 10.531,0 0,0 m 0,-40.505 c -11.803,0 -21.405,9.602 -21.405,21.404 0,11.803 9.602,21.406 21.405,21.406 11.803,0 21.404,-9.603 21.404,-21.406 0,-11.802 -9.601,-21.404 -21.404,-21.404"
             style="fill:#8898b0;fill-opacity:1;fill-rule:nonzero;stroke:none"
             id="path212" />
        </g>
        <g
           id="g214"
           transform="translate(331.1899,392.9938)">
          <path
             d="m 0,0 c 3.973,0 7.193,-3.22 7.193,-7.193 0,-3.972 -3.22,-7.193 -7.193,-7.193 -3.972,0 -7.192,3.221 -7.192,7.193 C -7.192,-3.22 -3.972,0 0,0"
             style="fill:#8898b0;fill-opacity:1;fill-rule:evenodd;stroke:none"
             id="path216" />
        </g>
        <g
           id="g218"
           transform="translate(183.7837,337.5636)">
          <path
             d="m 0,0 c 1.237,0.001 2.24,-1.023 2.24,-2.287 v -0.002 c 0,-1.264 -1.002,-2.288 -2.239,-2.288 H 0 c -1.236,0 -2.238,1.025 -2.238,2.288 C -2.238,-1.025 -1.236,0 0,0 M 8.592,9.139 12.315,5.639 7.422,4.168 Z M 7.916,15.051 C -2.316,8.183 -14.59,-9.146 -14.089,-15.035 c 3.644,-0.314 12.301,3.366 20.036,8.644 4.807,3.28 9.257,7.177 11.926,11.115 z"
             style="fill:#d8d8d8;fill-opacity:1;fill-rule:nonzero;stroke:none"
             id="path220" />
        </g>
        <g
           id="g222"
           transform="translate(231.2075,400.6569)">
          <path
             d="m 0,0 c -28.101,-6.529 -43.407,-49.979 -43.407,-49.979 l 4.675,-7.508 c 0.11,-0.051 7.541,-4.552 7.541,-4.552 0,0 43.281,15.779 49.504,43.949 0,0 0.146,4.453 -2.715,4.798 -3.473,0.418 -4.909,-1.376 -4.909,-1.376 -14.918,-31.022 -32.457,-31.127 -42.599,-36.662 5.418,10.207 4.574,28.496 35.415,43.744 0,0 1.779,1.453 1.323,4.922 C 4.453,0.194 0,0 0,0 Z"
             style="fill:#2c5e87;fill-opacity:1;fill-rule:nonzero;stroke:none"
             id="path224" />
        </g>
        <g
           id="g226"
           transform="translate(30.1338,274.5216)">
          <path
             d="M 0,0 C 2.758,0 4.993,-2.236 4.994,-4.994 4.995,-7.752 2.759,-9.99 0,-9.99 v 0 c -2.759,0 -4.995,2.237 -4.994,4.995 v 0.001 C -4.994,-2.236 -2.758,0 0,0 M 88.49,116.327 C 77.468,116.326 68.532,107.39 68.531,96.368 c 0.006,-2.944 0.662,-5.851 1.922,-8.511 L 1.587,10.076 C 1.061,10.142 0.531,10.181 0,10.191 c -8.387,0 -15.185,-6.798 -15.185,-15.185 0,-8.386 6.798,-15.185 15.185,-15.185 8.386,0 15.185,6.799 15.185,15.185 -0.012,1.142 -0.153,2.279 -0.42,3.39 l 69.516,78.512 c 1.381,-0.316 2.793,-0.485 4.21,-0.502 11.024,-0.001 19.961,8.936 19.961,19.959 v 0.003 c -0.002,4.123 -1.282,8.145 -3.662,11.512 l -1.014,-10.083 -10.463,-4.714 -9.317,6.703 1.148,11.42 9.326,4.2 c -1.935,0.609 -3.951,0.919 -5.979,0.921 z"
             style="fill:#2c5e87;fill-opacity:1;fill-rule:evenodd;stroke:none"
             id="path228" />
        </g>
      </g>
    </g>
  </g>
</svg>
