<?xml version="1.0" encoding="UTF-8" standalone="no"?>
<!-- Created with Inkscape (http://www.inkscape.org/) -->

<svg
   version="1.1"
   id="svg1"
   width="666.66669"
   height="560.39331"
   viewBox="0 0 666.66669 560.39331"
   sodipodi:docname="Rhythm Heaven Re-Megamix Logo (Print).ai"
   xmlns:inkscape="http://www.inkscape.org/namespaces/inkscape"
   xmlns:sodipodi="http://sodipodi.sourceforge.net/DTD/sodipodi-0.dtd"
   xmlns="http://www.w3.org/2000/svg"
   xmlns:svg="http://www.w3.org/2000/svg">
  <defs
     id="defs1">
    <clipPath
       clipPathUnits="userSpaceOnUse"
       id="clipPath2">
      <path
         d="M 0,420.295 H 500 V 0 H 0 Z"
         transform="translate(-426.87641,-321.68421)"
         id="path2" />
    </clipPath>
    <clipPath
       clipPathUnits="userSpaceOnUse"
       id="clipPath4">
      <path
         d="M 0,420.295 H 500 V 0 H 0 Z"
         transform="translate(-416.62351,-315.23211)"
         id="path4" />
    </clipPath>
    <clipPath
       clipPathUnits="userSpaceOnUse"
       id="clipPath6">
      <path
         d="M 0,420.295 H 500 V 0 H 0 Z"
         transform="translate(-409.15081,-310.54751)"
         id="path6" />
    </clipPath>
    <clipPath
       clipPathUnits="userSpaceOnUse"
       id="clipPath8">
      <path
         d="M 0,420.295 H 500 V 0 H 0 Z"
         id="path8" />
    </clipPath>
    <clipPath
       clipPathUnits="userSpaceOnUse"
       id="clipPath10">
      <path
         d="M 0,420.295 H 500 V 0 H 0 Z"
         transform="translate(-406.65481,-210.6281)"
         id="path10" />
    </clipPath>
    <clipPath
       clipPathUnits="userSpaceOnUse"
       id="clipPath12">
      <path
         d="M 0,420.295 H 500 V 0 H 0 Z"
         transform="translate(-374.32761,-278.94641)"
         id="path12" />
    </clipPath>
    <clipPath
       clipPathUnits="userSpaceOnUse"
       id="clipPath14">
      <path
         d="M 0,420.295 H 500 V 0 H 0 Z"
         transform="translate(-321.94871,-208.6388)"
         id="path14" />
    </clipPath>
    <clipPath
       clipPathUnits="userSpaceOnUse"
       id="clipPath16">
      <path
         d="M 0,420.295 H 500 V 0 H 0 Z"
         transform="translate(-288.32761,-249.64421)"
         id="path16" />
    </clipPath>
    <clipPath
       clipPathUnits="userSpaceOnUse"
       id="clipPath18">
      <path
         d="M 0,420.295 H 500 V 0 H 0 Z"
         transform="translate(-247.55611,-188.6891)"
         id="path18" />
    </clipPath>
    <clipPath
       clipPathUnits="userSpaceOnUse"
       id="clipPath20">
      <path
         d="M 0,420.295 H 500 V 0 H 0 Z"
         transform="translate(-204.2305,-177.64711)"
         id="path20" />
    </clipPath>
    <clipPath
       clipPathUnits="userSpaceOnUse"
       id="clipPath22">
      <path
         d="M 0,420.295 H 500 V 0 H 0 Z"
         transform="translate(-166.4995,-223.529)"
         id="path22" />
    </clipPath>
    <clipPath
       clipPathUnits="userSpaceOnUse"
       id="clipPath24">
      <path
         d="M 0,420.295 H 500 V 0 H 0 Z"
         transform="translate(-363.17231,-354.15441)"
         id="path24" />
    </clipPath>
    <clipPath
       clipPathUnits="userSpaceOnUse"
       id="clipPath26">
      <path
         d="M 0,420.295 H 500 V 0 H 0 Z"
         transform="translate(-296.476,-319.89221)"
         id="path26" />
    </clipPath>
    <clipPath
       clipPathUnits="userSpaceOnUse"
       id="clipPath28">
      <path
         d="M 0,420.295 H 500 V 0 H 0 Z"
         transform="translate(-229.77981,-314.92641)"
         id="path28" />
    </clipPath>
    <clipPath
       clipPathUnits="userSpaceOnUse"
       id="clipPath30">
      <path
         d="M 0,420.295 H 500 V 0 H 0 Z"
         transform="translate(-225.06831,-298.94351)"
         id="path30" />
    </clipPath>
    <clipPath
       clipPathUnits="userSpaceOnUse"
       id="clipPath32">
      <path
         d="M 0,420.295 H 500 V 0 H 0 Z"
         transform="translate(-166.44141,-299.94061)"
         id="path32" />
    </clipPath>
    <clipPath
       clipPathUnits="userSpaceOnUse"
       id="clipPath34">
      <path
         d="M 0,420.295 H 500 V 0 H 0 Z"
         transform="translate(-100.9761,-263.77991)"
         id="path34" />
    </clipPath>
    <clipPath
       clipPathUnits="userSpaceOnUse"
       id="clipPath36">
      <path
         d="M 0,420.295 H 500 V 0 H 0 Z"
         transform="translate(-500.00051,-204.9845)"
         id="path36" />
    </clipPath>
    <clipPath
       clipPathUnits="userSpaceOnUse"
       id="clipPath38">
      <path
         d="M 0,420.295 H 500 V 0 H 0 Z"
         transform="translate(-471.98391,-192.2633)"
         id="path38" />
    </clipPath>
    <clipPath
       clipPathUnits="userSpaceOnUse"
       id="clipPath40">
      <path
         d="M 0,420.295 H 500 V 0 H 0 Z"
         transform="translate(-401.20551,-189.5143)"
         id="path40" />
    </clipPath>
    <clipPath
       clipPathUnits="userSpaceOnUse"
       id="clipPath42">
      <path
         d="M 0,420.295 H 500 V 0 H 0 Z"
         transform="translate(-407.45751,-184.7057)"
         id="path42" />
    </clipPath>
    <clipPath
       clipPathUnits="userSpaceOnUse"
       id="clipPath44">
      <path
         d="M 0,420.295 H 500 V 0 H 0 Z"
         transform="translate(-397.93501,-172.0094)"
         id="path44" />
    </clipPath>
    <clipPath
       clipPathUnits="userSpaceOnUse"
       id="clipPath46">
      <path
         d="M 0,420.295 H 500 V 0 H 0 Z"
         transform="translate(-372.22121,-171.32881)"
         id="path46" />
    </clipPath>
    <clipPath
       clipPathUnits="userSpaceOnUse"
       id="clipPath48">
      <path
         d="M 0,420.295 H 500 V 0 H 0 Z"
         transform="translate(-304.48481,-155.81221)"
         id="path48" />
    </clipPath>
    <clipPath
       clipPathUnits="userSpaceOnUse"
       id="clipPath50">
      <path
         d="M 0,420.295 H 500 V 0 H 0 Z"
         transform="translate(-271.3081,-123.3971)"
         id="path50" />
    </clipPath>
    <clipPath
       clipPathUnits="userSpaceOnUse"
       id="clipPath52">
      <path
         d="M 0,420.295 H 500 V 0 H 0 Z"
         transform="translate(-243.40621,-146.2819)"
         id="path52" />
    </clipPath>
    <clipPath
       clipPathUnits="userSpaceOnUse"
       id="clipPath54">
      <path
         d="M 0,420.295 H 500 V 0 H 0 Z"
         transform="translate(-225.08251,-137.77411)"
         id="path54" />
    </clipPath>
    <clipPath
       clipPathUnits="userSpaceOnUse"
       id="clipPath56">
      <path
         d="M 0,420.295 H 500 V 0 H 0 Z"
         transform="translate(-158.5854,-134.29561)"
         id="path56" />
    </clipPath>
    <clipPath
       clipPathUnits="userSpaceOnUse"
       id="clipPath58">
      <path
         d="M 0,420.295 H 500 V 0 H 0 Z"
         transform="translate(-158.5674,-128.0387)"
         id="path58" />
    </clipPath>
    <clipPath
       clipPathUnits="userSpaceOnUse"
       id="clipPath60">
      <path
         d="M 0,420.295 H 500 V 0 H 0 Z"
         transform="translate(-124.0542,-109.81021)"
         id="path60" />
    </clipPath>
    <clipPath
       clipPathUnits="userSpaceOnUse"
       id="clipPath62">
      <path
         d="M 0,420.295 H 500 V 0 H 0 Z"
         transform="translate(-98.341802,-109.1315)"
         id="path62" />
    </clipPath>
    <clipPath
       clipPathUnits="userSpaceOnUse"
       id="clipPath64">
      <path
         d="M 0,420.295 H 500 V 0 H 0 Z"
         transform="translate(-85.305205,-190.08271)"
         id="path64" />
    </clipPath>
    <clipPath
       clipPathUnits="userSpaceOnUse"
       id="clipPath66">
      <path
         d="M 0,420.295 H 500 V 0 H 0 Z"
         transform="translate(-85.287602,-183.82681)"
         id="path66" />
    </clipPath>
    <clipPath
       clipPathUnits="userSpaceOnUse"
       id="clipPath68">
      <path
         d="M 0,420.295 H 500 V 0 H 0 Z"
         transform="translate(0,-82.3004)"
         id="path68" />
    </clipPath>
    <clipPath
       clipPathUnits="userSpaceOnUse"
       id="clipPath70">
      <path
         d="M 0,420.295 H 500 V 0 H 0 Z"
         transform="translate(-24.137701,-151.6403)"
         id="path70" />
    </clipPath>
    <clipPath
       clipPathUnits="userSpaceOnUse"
       id="clipPath72">
      <path
         d="M 0,420.295 H 500 V 0 H 0 Z"
         transform="translate(-453.94771,-121.5211)"
         id="path72" />
    </clipPath>
    <clipPath
       clipPathUnits="userSpaceOnUse"
       id="clipPath74">
      <path
         d="M 0,420.295 H 500 V 0 H 0 Z"
         transform="translate(-444.53761,-118.02901)"
         id="path74" />
    </clipPath>
    <clipPath
       clipPathUnits="userSpaceOnUse"
       id="clipPath76">
      <path
         d="M 0,420.295 H 500 V 0 H 0 Z"
         transform="translate(-222.78561,-141.0016)"
         id="path76" />
    </clipPath>
    <clipPath
       clipPathUnits="userSpaceOnUse"
       id="clipPath78">
      <path
         d="M 0,420.295 H 500 V 0 H 0 Z"
         transform="translate(-218.3149,-140.6696)"
         id="path78" />
    </clipPath>
    <clipPath
       clipPathUnits="userSpaceOnUse"
       id="clipPath80">
      <path
         d="M 0,420.295 H 500 V 0 H 0 Z"
         transform="translate(-48.890601,-23.586603)"
         id="path80" />
    </clipPath>
    <clipPath
       clipPathUnits="userSpaceOnUse"
       id="clipPath82">
      <path
         d="M 0,420.295 H 500 V 0 H 0 Z"
         transform="translate(-44.593201,-22.316103)"
         id="path82" />
    </clipPath>
    <clipPath
       clipPathUnits="userSpaceOnUse"
       id="clipPath84">
      <path
         d="M 0,420.295 H 500 V 0 H 0 Z"
         transform="translate(-408.32471,-416.68861)"
         id="path84" />
    </clipPath>
    <clipPath
       clipPathUnits="userSpaceOnUse"
       id="clipPath86">
      <path
         d="M 0,420.295 H 500 V 0 H 0 Z"
         transform="translate(-408.32571,-402.90841)"
         id="path86" />
    </clipPath>
    <clipPath
       clipPathUnits="userSpaceOnUse"
       id="clipPath88">
      <path
         d="M 0,420.295 H 500 V 0 H 0 Z"
         transform="translate(-408.32571,-395.69161)"
         id="path88" />
    </clipPath>
    <clipPath
       clipPathUnits="userSpaceOnUse"
       id="clipPath90">
      <path
         d="M 0,420.295 H 500 V 0 H 0 Z"
         transform="translate(-408.32571,-379.45031)"
         id="path90" />
    </clipPath>
    <clipPath
       clipPathUnits="userSpaceOnUse"
       id="clipPath92">
      <path
         d="M 0,420.295 H 500 V 0 H 0 Z"
         transform="translate(-331.18991,-420.29461)"
         id="path92" />
    </clipPath>
    <clipPath
       clipPathUnits="userSpaceOnUse"
       id="clipPath94">
      <path
         d="M 0,420.295 H 500 V 0 H 0 Z"
         transform="translate(-331.18991,-410.19161)"
         id="path94" />
    </clipPath>
    <clipPath
       clipPathUnits="userSpaceOnUse"
       id="clipPath96">
      <path
         d="M 0,420.295 H 500 V 0 H 0 Z"
         transform="translate(-331.19091,-404.90151)"
         id="path96" />
    </clipPath>
    <clipPath
       clipPathUnits="userSpaceOnUse"
       id="clipPath98">
      <path
         d="M 0,420.295 H 500 V 0 H 0 Z"
         transform="translate(-331.18991,-392.99381)"
         id="path98" />
    </clipPath>
    <clipPath
       clipPathUnits="userSpaceOnUse"
       id="clipPath100">
      <path
         d="M 0,420.295 H 500 V 0 H 0 Z"
         transform="translate(-183.7837,-337.56361)"
         id="path100" />
    </clipPath>
    <clipPath
       clipPathUnits="userSpaceOnUse"
       id="clipPath102">
      <path
         d="M 0,420.295 H 500 V 0 H 0 Z"
         transform="translate(-231.20751,-400.65691)"
         id="path102" />
    </clipPath>
    <clipPath
       clipPathUnits="userSpaceOnUse"
       id="clipPath104">
      <path
         d="M 0,420.295 H 500 V 0 H 0 Z"
         transform="translate(-30.133801,-274.52161)"
         id="path104" />
    </clipPath>
  </defs>
  <sodipodi:namedview
     id="namedview1"
     pagecolor="#ffffff"
     bordercolor="#000000"
     borderopacity="0.25"
     inkscape:showpageshadow="2"
     inkscape:pageopacity="0.0"
     inkscape:pagecheckerboard="0"
     inkscape:deskcolor="#d1d1d1">
    <inkscape:page
       x="0"
       y="0"
       inkscape:label="1"
       id="page1"
       width="666.66669"
       height="560.39331"
       margin="0"
       bleed="0" />
  </sodipodi:namedview>
  <g
     id="layer-MC0"
     inkscape:groupmode="layer"
     inkscape:label="Layer 1">
    <path
       id="path1"
       d="m 0,0 c -4.618,48.823 -45.891,87.151 -95.955,87.151 -35.941,0 -68.438,-20.113 -84.955,-50.821 -10.383,3.65 -21.372,5.539 -32.531,5.539 -17.428,0 -34.598,-4.706 -49.504,-13.428 -13.853,7.519 -29.294,11.444 -45.307,11.444 -52.624,0 -95.438,-42.88 -95.438,-95.586 0,-36.215 20.3,-68.616 51.312,-84.79 -2.334,-7.362 -3.534,-15.065 -3.534,-22.9 0,-42.672 35.546,-77.389 79.237,-77.389 26.469,0 50.151,12.589 64.591,32.434 17.599,-16.297 40.916,-25.697 65.841,-25.697 40.283,0 75.805,24.897 90.17,61.213 2.368,-0.179 4.743,-0.269 7.119,-0.269 51.969,0 94.247,41.874 94.247,93.346 C 45.293,-46.972 27.843,-16.788 0,0"
       style="fill:#000000;fill-opacity:1;fill-rule:nonzero;stroke:none"
       transform="matrix(1.3333333,0,0,-1.3333333,569.16853,131.48107)"
       clip-path="url(#clipPath2)" />
    <path
       id="path3"
       d="m 0,0 c -1.422,45.986 -39.32,82.961 -85.702,82.961 -35.251,0 -66.778,-21.746 -79.635,-53.892 -11.744,5.654 -24.662,8.61 -37.851,8.61 -17.878,0 -34.813,-5.253 -49.314,-15.247 -13.597,8.694 -29.214,13.263 -45.497,13.263 -46.757,0 -84.796,-38.105 -84.796,-84.944 0,-35.464 21.894,-66.81 54.292,-79.283 -4.282,-8.839 -6.514,-18.504 -6.514,-28.406 0,-36.805 30.771,-66.749 68.595,-66.749 27.725,0 51.909,15.886 62.671,39.519 16.178,-20.539 40.922,-32.78 67.761,-32.78 38.647,0 72.369,25.728 82.9,62.178 4.751,-0.82 9.567,-1.234 14.389,-1.234 46.1,0 83.605,37.1 83.605,82.703 C 44.904,-42.449 27.436,-14.19 0,0"
       style="fill:#ffffff;fill-opacity:1;fill-rule:nonzero;stroke:none"
       transform="matrix(1.3333333,0,0,-1.3333333,555.498,140.08387)"
       clip-path="url(#clipPath4)" />
    <path
       id="path5"
       d="m 0,0 c 0.017,0.67 0.051,1.335 0.051,2.01 0,43.174 -35.048,78.173 -78.28,78.173 -35.973,0 -66.257,-24.239 -75.422,-57.248 -12.176,7.568 -26.594,11.965 -42.064,11.965 -18.598,0 -35.679,-6.345 -49.161,-16.934 -12.796,9.393 -28.572,14.951 -45.65,14.951 -42.71,0 -77.333,-34.689 -77.333,-77.481 0,-36.069 24.6,-66.379 57.907,-75.013 -6.396,-9.37 -10.13,-20.599 -10.13,-32.677 0,-32.742 27.37,-59.284 61.133,-59.284 30.326,0 55.481,21.419 60.289,49.507 13.073,-25.389 39.565,-42.77 70.143,-42.77 38.365,0 70.314,27.348 77.366,63.565 6.352,-1.699 13.027,-2.62 19.923,-2.62 42.052,0 76.142,33.685 76.142,75.239 C 44.914,-38.063 26.474,-11.783 0,0"
       style="fill:#000000;fill-opacity:1;fill-rule:nonzero;stroke:none"
       transform="matrix(1.3333333,0,0,-1.3333333,545.5344,146.33)"
       clip-path="url(#clipPath6)" />
    <path
       id="path7"
       d="m 398.294,166.538 h 4.609 v 4.61 h -4.609 z"
       style="fill:#000000;fill-opacity:1;fill-rule:nonzero;stroke:none"
       transform="matrix(1.3333333,0,0,-1.3333333,0,560.39333)"
       clip-path="url(#clipPath8)" />
    <path
       id="path9"
       d="M 0,0 V 6.57 L -1.652,-0.381 -3.44,-0.794 -5.054,5.403 v -6.57 l -1.69,-0.39 v 7.865 l 2.641,0.61 1.593,-5.871 0.02,0.005 1.553,6.597 2.608,0.602 V 0.386 Z m -12.209,-2.819 v 6.47 L -14.93,3.023 V 4.418 L -7.734,6.08 V 4.685 l -2.622,-0.606 v -6.47 z"
       style="fill:#ffffff;fill-opacity:1;fill-rule:nonzero;stroke:none"
       transform="matrix(1.3333333,0,0,-1.3333333,542.2064,279.55587)"
       clip-path="url(#clipPath10)" />
    <path
       id="path11"
       d="m 0,0 c 0,0 -0.106,-27.736 -0.451,-32.615 -0.539,-7.62 -2.587,-7.824 -4.33,-6.681 -3.477,2.28 -9.973,15.27 -15.79,26.566 l -8.487,-1.96 v -70.187 l 10.377,2.395 0.035,17.81 c 0.018,9.142 2.514,9.736 6.141,6.416 2.753,-2.52 6.497,-8.077 12.399,-17.527 l 13.732,3.171 V 3.146 Z"
       style="fill:#ffffff;fill-opacity:1;fill-rule:nonzero;stroke:none"
       transform="matrix(1.3333333,0,0,-1.3333333,499.10347,188.4648)"
       clip-path="url(#clipPath12)" />
    <path
       id="path13"
       d="m 0,0 c -0.314,-0.001 -2.646,0.078 -2.895,1.856 -0.144,1.03 0.35,1.997 1.594,2.758 1.945,1.19 8.678,3.125 15.14,4.64 v 8.936 c 0,0 -11.701,-2.815 -15.299,-2.28 -1.094,0.162 -1.821,0.74 -1.966,1.75 -0.148,1.032 0.372,1.962 1.594,2.757 3.291,2.144 18.061,5.33 18.061,5.33 V 46.364 L -14.184,39.342 V -15.62 l 31.051,7.168 V 2.97 C 8.58,1.087 2.979,0.017 0,0"
       style="fill:#ffffff;fill-opacity:1;fill-rule:nonzero;stroke:none"
       transform="matrix(1.3333333,0,0,-1.3333333,429.26493,282.20827)"
       clip-path="url(#clipPath14)" />
    <path
       id="path15"
       d="m 0,0 c 0,0 -3.295,-21.707 -6.22,-31.737 -0.836,-2.867 -2.856,-7.252 -5.604,-0.981 -0.985,2.245 -3.906,12.739 -6.051,26.266 l -9.487,-2.19 c 0.83,-9.301 5.384,-34.424 11.453,-49.06 l 18.401,4.248 c 6.773,17.925 10.837,36.857 12.218,56.85 z"
       style="fill:#ffffff;fill-opacity:1;fill-rule:nonzero;stroke:none"
       transform="matrix(1.3333333,0,0,-1.3333333,384.4368,227.5344)"
       clip-path="url(#clipPath16)" />
    <path
       id="path17"
       d="m 0,0 -6.504,-1.501 c -1.631,-0.377 -2.58,0.619 -2.381,2.946 0.185,2.178 1.139,6.794 1.502,8.353 0.802,3.447 2.378,4.884 4.232,5.142 C -0.775,15.271 1.3,13.194 2.437,7.564 2.546,7.02 2.824,5.89 3.004,4.354 3.224,2.49 2.309,0.533 0,0 M 8.11,31.116 C 3.505,39.6 -1.85,37.842 -4.594,36.934 -8.189,35.744 -11.38,33.898 -14.72,20.653 -18.229,6.73 -22.055,-22.549 -22.055,-22.549 l 9.634,2.225 0.995,5.579 c 0.478,2.678 2.183,4.379 4.781,5.143 2.499,0.736 7.465,1.938 10.014,2.228 1.076,0.122 2.341,-0.728 2.709,-2.413 l 1.301,-5.966 13.121,3.029 c 0,0 -6.526,33.037 -12.39,43.84"
       style="fill:#ffffff;fill-opacity:1;fill-rule:nonzero;stroke:none"
       transform="matrix(1.3333333,0,0,-1.3333333,330.0748,308.80787)"
       clip-path="url(#clipPath18)" />
    <path
       id="path19"
       d="m 0,0 c -0.315,-0.002 -2.646,0.078 -2.896,1.856 -0.144,1.03 0.351,1.997 1.594,2.758 1.946,1.19 8.678,3.124 15.14,4.64 v 8.935 c 0,0 -11.701,-2.815 -15.299,-2.28 -1.093,0.163 -1.821,0.74 -1.966,1.75 -0.148,1.032 0.372,1.962 1.594,2.758 3.291,2.144 18.062,5.33 18.062,5.33 v 22.224 l -30.413,-7.022 v -54.962 l 31.05,7.168 V 2.97 C 8.579,1.087 2.978,0.017 0,0"
       style="fill:#ffffff;fill-opacity:1;fill-rule:nonzero;stroke:none"
       transform="matrix(1.3333333,0,0,-1.3333333,272.30733,323.53053)"
       clip-path="url(#clipPath20)" />
    <path
       id="path21"
       d="m 0,0 c 0,-10.967 0.056,-19.176 -1.447,-24.555 -0.912,-3.266 -2.922,-5.754 -5.604,-7.636 -2.733,-1.917 -5.472,-2.757 -8.155,-2.811 -3.271,-0.064 -5.662,1.716 -6.011,5.351 -0.503,5.22 -0.47,11.819 -0.47,20.963 l -11.873,-2.741 v -80.874 l 16.309,3.766 c 0,10.292 0.211,17.879 1.48,22.61 0.864,3.225 3.216,5.947 5.59,7.549 2.774,1.874 5.327,2.812 8.015,2.855 3.267,0.053 5.748,-1.633 6.056,-4.891 0.451,-4.774 0.481,-11.264 0.481,-20.121 l 12.084,2.79 V 3.799 Z"
       style="fill:#ffffff;fill-opacity:1;fill-rule:nonzero;stroke:none"
       transform="matrix(1.3333333,0,0,-1.3333333,221.99933,262.35467)"
       clip-path="url(#clipPath22)" />
    <path
       id="path23"
       d="m 0,0 c -5.063,-16.718 -7.929,-24.892 -10.425,-31.783 -4.255,-11.726 -8.667,-7.12 -10.723,-3.85 -2.391,3.832 -5.643,11.286 -11.287,24.945 l -13.94,-3.218 v -65.621 l 11.567,2.671 c -0.088,10.459 0.088,17.561 0.651,20.321 0.51,2.479 2.004,2.83 3.515,0.369 1.248,-2.022 3.218,-6.399 7.138,-15.399 l 7.75,1.789 c 4.273,11.479 6.577,17.267 8.212,20.097 1.318,2.303 3.832,3.92 4.588,-0.334 0.58,-3.217 0.527,-11.945 0.51,-22.633 l 11.989,2.768 V 2.204 Z"
       style="fill:#ffffff;fill-opacity:1;fill-rule:nonzero;stroke:none"
       transform="matrix(1.3333333,0,0,-1.3333333,484.22973,88.187467)"
       clip-path="url(#clipPath24)" />
    <path
       id="path25"
       d="m 0,0 c -0.053,-8.966 -0.035,-17.14 -0.422,-20.128 -0.896,-7.138 -13.097,-10.355 -13.694,-3.78 -0.281,3.094 -0.528,7.181 -0.528,16.305 l -9.862,-2.277 v -60.121 l 12.569,2.902 c 0,9.545 0,13.693 0.159,16.962 0.439,8.615 13.378,10.566 14.503,3.077 0.509,-3.411 0.597,-5.045 0.597,-12.745 l 10.021,2.313 V 3.08 Z"
       style="fill:#ffffff;fill-opacity:1;fill-rule:nonzero;stroke:none"
       transform="matrix(1.3333333,0,0,-1.3333333,395.30133,133.8704)"
       clip-path="url(#clipPath26)" />
    <path
       id="path27"
       d="m 0,0 v -24.2 l 7.014,1.619 c 4.254,0.983 6.012,0.429 6.012,-7.102 v -31.084 l 11.515,2.659 v 28.496 c 0,12.657 1.188,15.851 7.453,17.298 l 5.732,1.323 v 19.7 z"
       style="fill:#ffffff;fill-opacity:1;fill-rule:nonzero;stroke:none"
       transform="matrix(1.3333333,0,0,-1.3333333,306.37307,140.49147)"
       clip-path="url(#clipPath28)" />
    <path
       id="path29"
       d="m 0,0 -10.758,-2.484 c 0,0 0.158,-11.075 -0.264,-19.232 -0.616,-11.936 -12.64,-14.503 -13.606,-3.146 -0.493,5.959 -0.721,17.837 -0.721,17.837 l -13.378,-3.088 v -9.686 c 0,-23.118 15.03,-25.965 22.888,-19.373 0.475,0.404 0.949,0.651 1.336,0.475 0.44,-0.194 0.422,-0.668 0.246,-1.547 -0.474,-2.303 -3.885,-6.856 -10.776,-8.702 -5.256,-1.407 -10.407,-2.294 -12.973,-2.698 v -16.042 c 11.567,1.495 24.962,4.799 31.203,14.398 3.252,5.01 4.957,10.301 5.801,18.142 C 0.316,-22.806 0,0 0,0"
       style="fill:#ffffff;fill-opacity:1;fill-rule:nonzero;stroke:none"
       transform="matrix(1.3333333,0,0,-1.3333333,300.09107,161.802)"
       clip-path="url(#clipPath30)" />
    <path
       id="path31"
       d="m 0,0 c -0.053,-8.966 -0.035,-17.14 -0.422,-20.128 -0.896,-7.138 -13.097,-10.355 -13.694,-3.78 -0.281,3.094 -0.528,7.181 -0.528,16.305 l -9.862,-2.277 v -60.121 l 12.569,2.902 c 0,9.545 0,13.693 0.159,16.963 0.439,8.614 13.378,10.565 14.503,3.076 0.509,-3.411 0.597,-5.045 0.597,-12.745 l 10.021,2.313 V 3.08 Z"
       style="fill:#ffffff;fill-opacity:1;fill-rule:nonzero;stroke:none"
       transform="matrix(1.3333333,0,0,-1.3333333,221.92187,160.47253)"
       clip-path="url(#clipPath32)" />
    <path
       id="path33"
       d="m 0,0 c -4.799,-1.125 -7.472,1.547 -7.472,7.26 l 0.001,5.52 c -0.001,3.981 0.773,7.436 4.324,8.561 C 7.164,24.608 14.345,20.164 14.345,13.185 14.345,6.663 9.352,2.197 0,0 m 34.754,23.855 c 0,25.367 -24.822,32.733 -55.182,21.886 v -81.886 l 12.939,2.987 v 20.501 c 0,3.129 2.303,2.584 4.43,0.685 1.494,-1.336 10.477,-10.037 16.753,-16.296 l 19.752,4.56 c 0,0 -17.22,17.59 -19.207,19.331 11.567,4.324 20.515,15.594 20.515,28.232"
       style="fill:#ffffff;fill-opacity:1;fill-rule:nonzero;stroke:none"
       transform="matrix(1.3333333,0,0,-1.3333333,134.6348,208.6868)"
       clip-path="url(#clipPath34)" />
    <path
       id="path35"
       d="m 0,0 -69.333,-16.021 v -84.425 L 0,-84.439 v 16.189 c 0,8.024 -0.001,16.979 -7.819,25.193 C -2.26,-34.901 0,-26.048 0,-13.494 Z"
       style="fill:#000000;fill-opacity:1;fill-rule:nonzero;stroke:none"
       transform="matrix(1.3333333,0,0,-1.3333333,666.66733,287.08067)"
       clip-path="url(#clipPath36)" />
    <path
       id="path37"
       d="m 0,0 -0.003,-16.021 c 0,-3.725 -2.319,-7.513 -6.648,-8.513 -4.329,-0.999 -6.648,1.718 -6.648,5.444 v 16.021 l -21.764,-5.036 v -7.231 c 0,-13.484 2.679,-20.395 10.059,-25.278 -10.074,-12.399 -10.087,-20.856 -10.059,-29.482 v -9.933 l 21.764,5.025 v 16.902 c 0,6.027 2.319,9.759 6.648,10.759 C -2.322,-46.344 0,-49.006 0,-55.032 v -16.902 l 21.765,5.025 v 9.933 c 0,8.632 0,17.099 -10.061,24.837 7.379,8.288 10.061,16.438 10.061,29.922 v 7.242 z"
       style="fill:#ffffff;fill-opacity:1;fill-rule:nonzero;stroke:none"
       transform="matrix(1.3333333,0,0,-1.3333333,629.31187,304.04227)"
       clip-path="url(#clipPath38)" />
    <path
       id="path39"
       d="m 0,0 v -84.443 l 34.296,7.918 V 7.918 Z"
       style="fill:#000000;fill-opacity:1;fill-rule:nonzero;stroke:none"
       transform="matrix(1.3333333,0,0,-1.3333333,534.94067,307.7076)"
       clip-path="url(#clipPath40)" />
    <path
       id="path41"
       d="m 0,0 v -71.938 l 21.792,5.03 V 5.03 Z"
       style="fill:#ffffff;fill-opacity:1;fill-rule:nonzero;stroke:none"
       transform="matrix(1.3333333,0,0,-1.3333333,543.27667,314.11907)"
       clip-path="url(#clipPath42)" />
    <path
       id="path43"
       d="m 0,0 c -6.549,6.017 -15.44,7.944 -25.713,5.572 -5.608,-1.295 -10.452,-3.533 -15.275,-7.108 -4.824,1.348 -9.666,1.35 -15.276,0.056 -10.272,-2.373 -19.164,-8.405 -25.713,-17.446 -6.678,-9.221 -9.045,-17.636 -9.045,-32.155 V -95.719 L 9.047,-72.616 v 44.637 C 9.047,-13.458 6.68,-6.137 0,0"
       style="fill:#000000;fill-opacity:1;fill-rule:nonzero;stroke:none"
       transform="matrix(1.3333333,0,0,-1.3333333,530.58,331.04747)"
       clip-path="url(#clipPath44)" />
    <path
       id="path45"
       d="m 0,0 c -5.668,-1.309 -10.23,-3.678 -15.274,-8.06 -5.043,2.053 -9.58,2.324 -15.276,1.008 -8.417,-1.944 -15.652,-6.832 -20.995,-14.208 -5.619,-7.757 -7.511,-14.671 -7.511,-27.698 v -38.384 l 21.87,5.05 v 42.54 c 0,6.411 2.066,9.094 5.442,9.872 3.375,0.779 5.534,-0.927 5.534,-7.338 v -42.541 l 21.871,5.049 v 42.542 c 0,6.41 2.159,9.114 5.533,9.894 3.376,0.779 5.443,-0.951 5.443,-7.361 v -42.541 l 21.872,5.049 v 38.385 c 0,13.027 -1.894,19.067 -7.513,24.229 -3.847,3.535 -8.662,5.33 -14.208,5.33 C 4.631,0.817 2.364,0.547 0,0"
       style="fill:#ffffff;fill-opacity:1;fill-rule:nonzero;stroke:none"
       transform="matrix(1.3333333,0,0,-1.3333333,496.29493,331.95493)"
       clip-path="url(#clipPath46)" />
    <path
       id="path47"
       d="m 0,0 c -6.249,6.931 -16.715,9.717 -27.312,7.271 -10.584,-2.444 -21.042,-10.059 -27.292,-19.876 -5.375,-8.439 -7.374,-16.142 -7.374,-28.421 v -45.898 l 69.332,16.007 v 45.896 C 7.354,-12.726 5.361,-5.944 0,0"
       style="fill:#000000;fill-opacity:1;fill-rule:nonzero;stroke:none"
       transform="matrix(1.3333333,0,0,-1.3333333,405.97973,352.64373)"
       clip-path="url(#clipPath48)" />
    <path
       id="path49"
       d="m 0,0 -5.813,4.67 8.053,3.118 3.625,8.527 3.625,-6.852 8.054,0.6 -5.815,-7.355 1.354,-8.155 -7.218,2.307 -7.219,-5.641 z M 5.865,33.434 C -2.761,31.44 -11.281,25.29 -16.417,17.226 -20.919,10.159 -22.549,3.743 -22.549,-7.168 v -39.645 l 21.739,5.018 v 15.788 l 13.35,3.062 v -15.767 l 21.738,5.018 V 5.951 c 0,10.911 -1.618,16.585 -6.112,21.569 -3.895,4.319 -9.74,6.631 -16.097,6.631 -2.032,0 -4.115,-0.235 -6.204,-0.717"
       style="fill:#ffffff;fill-opacity:1;fill-rule:nonzero;stroke:none"
       transform="matrix(1.3333333,0,0,-1.3333333,361.74413,395.86387)"
       clip-path="url(#clipPath50)" />
    <path
       id="path51"
       d="m 0,0 c -7.178,-0.218 -12.144,-0.828 -18.323,-2.255 -14.015,-3.236 -24.882,-9.997 -33.219,-20.671 -7.608,-9.74 -11.972,-22.062 -11.972,-33.806 0,-12.237 4.634,-22.509 13.047,-28.928 8.468,-6.463 17.978,-7.859 31.799,-4.668 6.044,1.395 10.564,2.927 18.6,6.302 l 5.091,2.138 V 0.153 Z"
       style="fill:#000000;fill-opacity:1;fill-rule:nonzero;stroke:none"
       transform="matrix(1.3333333,0,0,-1.3333333,324.5416,365.3508)"
       clip-path="url(#clipPath52)" />
    <path
       id="path53"
       d="m 0,0 c -12.398,-2.862 -21.52,-8.504 -28.692,-17.686 -6.577,-8.42 -10.246,-18.955 -10.246,-29.094 0,-10.593 3.983,-19.413 11.201,-24.92 7.248,-5.53 15.175,-6.688 27.393,-3.867 5.848,1.35 10.165,2.87 17.438,5.924 v 41.993 l -21.739,-5.019 v -21.453 c -7.776,-0.719 -12.819,4.051 -12.819,12.259 0,9.765 6.741,16.848 18.632,19.593 5.107,1.18 9.264,1.688 15.926,1.823 V 2.094 C 10.007,1.88 5.441,1.256 0,0"
       style="fill:#ffffff;fill-opacity:1;fill-rule:nonzero;stroke:none"
       transform="matrix(1.3333333,0,0,-1.3333333,300.11,376.69453)"
       clip-path="url(#clipPath54)" />
    <path
       id="path55"
       d="m 0,0 c -9.151,-2.063 -16.019,-5.583 -21.019,-10.697 -6.314,-6.457 -9.937,-15.09 -9.937,-23.687 0,-6.012 1.588,-10.256 5.116,-13.201 -3.969,-5.134 -5.806,-10.838 -5.806,-17.668 0,-8.467 2.958,-14.797 8.551,-18.307 6.058,-3.801 12.478,-3.363 20.874,-1.425 l 29.105,6.719 V 6.207 Z"
       style="fill:#000000;fill-opacity:1;fill-rule:nonzero;stroke:none"
       transform="matrix(1.3333333,0,0,-1.3333333,211.4472,381.33253)"
       clip-path="url(#clipPath56)" />
    <path
       id="path57"
       d="m 0,0 c -7.698,-1.754 -13.341,-4.581 -17.12,-8.446 -4.791,-4.9 -7.565,-11.443 -7.565,-18.238 0,-6.98 2.468,-10.191 9.343,-12.179 -7.272,-5.549 -10.033,-10.727 -10.033,-18.689 0,-6.584 2.139,-11.412 6.37,-14.066 4.053,-2.543 8.282,-2.825 16.801,-0.858 l 22.854,5.277 v 20.178 L 6.158,-50.367 c -5.733,-1.323 -6.317,1.023 -6.317,2.642 0,1.513 0.584,4.204 6.317,5.528 l 14.492,3.344 v 15.204 L 6.158,-26.996 c -5.733,-1.323 -7.486,-0.79 -7.486,2.342 0,3.132 1.753,4.474 7.486,5.798 l 14.492,3.345 V 4.767 Z"
       style="fill:#ffffff;fill-opacity:1;fill-rule:nonzero;stroke:none"
       transform="matrix(1.3333333,0,0,-1.3333333,211.4232,389.67507)"
       clip-path="url(#clipPath58)" />
    <path
       id="path59"
       d="m 0,0 c -6.548,6.018 -15.439,7.944 -25.712,5.573 -5.61,-1.295 -10.454,-3.534 -15.275,-7.108 -4.823,1.348 -9.666,1.349 -15.276,0.055 -10.273,-2.372 -19.164,-8.405 -25.713,-17.446 -6.679,-9.22 -9.046,-17.635 -9.046,-32.155 V -95.718 L 9.047,-72.615 v 44.636 C 9.047,-13.458 6.68,-6.136 0,0"
       style="fill:#000000;fill-opacity:1;fill-rule:nonzero;stroke:none"
       transform="matrix(1.3333333,0,0,-1.3333333,165.4056,413.97973)"
       clip-path="url(#clipPath60)" />
    <path
       id="path61"
       d="m 0,0 c -5.67,-1.31 -10.233,-3.679 -15.276,-8.061 -5.042,2.053 -9.578,2.324 -15.274,1.008 -8.418,-1.944 -15.653,-6.832 -20.996,-14.208 -5.619,-7.757 -7.511,-14.672 -7.511,-27.699 v -38.383 l 21.871,5.049 v 42.541 c 0,6.41 2.066,9.094 5.441,9.872 3.374,0.779 5.535,-0.928 5.535,-7.338 v -42.542 l 21.87,5.051 v 42.541 c 0,6.41 2.159,9.114 5.534,9.893 3.376,0.779 5.441,-0.949 5.441,-7.36 v -42.542 l 21.872,5.05 v 38.385 c 0,13.026 -1.893,19.067 -7.512,24.229 -3.847,3.535 -8.662,5.33 -14.209,5.33 C 4.63,0.817 2.364,0.545 0,0"
       style="fill:#ffffff;fill-opacity:1;fill-rule:nonzero;stroke:none"
       transform="matrix(1.3333333,0,0,-1.3333333,131.1224,414.88467)"
       clip-path="url(#clipPath62)" />
    <path
       id="path63"
       d="m 0,0 c -9.151,-2.063 -16.018,-5.583 -21.02,-10.697 -6.314,-6.457 -9.936,-15.09 -9.936,-23.686 0,-6.013 1.588,-10.257 5.116,-13.202 -3.969,-5.134 -5.805,-10.838 -5.805,-17.668 0,-8.467 2.956,-14.796 8.55,-18.307 6.057,-3.8 12.478,-3.363 20.873,-1.425 l 29.107,6.72 V 6.207 Z"
       style="fill:#000000;fill-opacity:1;fill-rule:nonzero;stroke:none"
       transform="matrix(1.3333333,0,0,-1.3333333,113.74027,306.94973)"
       clip-path="url(#clipPath64)" />
    <path
       id="path65"
       d="m 0,0 c -7.698,-1.755 -13.341,-4.582 -17.12,-8.446 -4.791,-4.9 -7.566,-11.443 -7.566,-18.239 0,-6.98 2.469,-10.191 9.344,-12.179 -7.272,-5.549 -10.033,-10.727 -10.033,-18.689 0,-6.584 2.139,-11.412 6.37,-14.066 4.052,-2.542 8.281,-2.825 16.801,-0.858 L 20.65,-67.2 v 20.179 L 6.157,-50.367 c -5.732,-1.323 -6.317,1.022 -6.317,2.642 0,1.513 0.585,4.204 6.317,5.527 l 14.493,3.345 V -23.65 L 6.157,-26.997 c -5.732,-1.323 -7.485,-0.79 -7.485,2.342 0,3.133 1.753,4.474 7.485,5.798 l 14.493,3.345 V 4.767 Z"
       style="fill:#ffffff;fill-opacity:1;fill-rule:nonzero;stroke:none"
       transform="matrix(1.3333333,0,0,-1.3333333,113.7168,315.29093)"
       clip-path="url(#clipPath66)" />
    <path
       id="path67"
       d="m 0,0 v 80.811 c 10.327,2.628 20.604,5.455 30.965,7.941 5.68,1.199 11.835,1.456 17.258,-0.916 5.411,-2.276 9.67,-7.129 11.137,-12.824 1.646,-5.812 1.346,-12.053 -0.187,-17.854 -0.778,-2.679 -1.885,-5.269 -3.341,-7.652 2.584,-2.846 4.154,-6.542 4.532,-10.359 0.788,-5.703 0.323,-11.472 0.456,-17.208 V 13.942 C 40.544,8.674 20.275,3.405 0,-1.864 Z"
       style="fill:#000000;fill-opacity:1;fill-rule:nonzero;stroke:none"
       transform="matrix(1.3333333,0,0,-1.3333333,0,450.65947)"
       clip-path="url(#clipPath68)" />
    <path
       id="path69"
       d="m 0,0 c 3.542,0.919 6.413,-1.646 6.412,-5.729 0,-0.839 -0.124,-1.706 -0.368,-2.56 l 4.274,-3.935 c 2.059,0.536 3.728,-0.954 3.727,-3.328 0,-2.372 -1.669,-4.727 -3.727,-5.261 -2.056,-0.534 -3.723,0.955 -3.724,3.325 l -4.195,3.859 C 1.637,-14.183 0.822,-14.576 0,-14.79 c -3.543,-0.922 -6.416,1.643 -6.415,5.727 0.005,0.463 0.047,0.933 0.127,1.407 l 3.587,-0.625 3.281,3.958 -0.642,4.302 C -0.041,-0.015 -0.021,-0.007 0,0 m -18.368,7.006 v -70.751 l 19.559,5.084 v 22.471 l 2.788,0.725 v -0.028 c 3.148,0.576 5.156,0.339 6.025,-0.714 0.87,-1.052 1.305,-3.808 1.305,-8.266 v -11.558 l 19.604,5.096 v 13.632 c 0,4.735 -0.48,8.22 -1.44,10.458 -0.959,2.24 -2.832,4.275 -5.62,6.107 4.466,4.962 6.699,11.003 6.699,18.121 0,7.809 -2.772,13.014 -8.318,15.616 -2.188,1.056 -4.661,1.57 -7.419,1.545 -2.728,0.017 -6.07,-0.49 -10.027,-1.519 z"
       style="fill:#ffffff;fill-opacity:1;fill-rule:nonzero;stroke:none"
       transform="matrix(1.3333333,0,0,-1.3333333,32.1836,358.20627)"
       clip-path="url(#clipPath70)" />
    <path
       id="path71"
       d="m 0,0 -14.264,1.486 -6.868,12.639 -5.811,-13.168 -14.136,-2.63 10.687,-9.593 -1.837,-14.182 12.393,7.138 12.962,-6.208 -2.981,14.068 z"
       style="fill:#000000;fill-opacity:1;fill-rule:nonzero;stroke:none"
       transform="matrix(1.3333333,0,0,-1.3333333,605.2636,398.3652)"
       clip-path="url(#clipPath72)" />
    <path
       id="path73"
       d="m 0,0 -7.645,0.796 -3.662,6.742 -3.105,-7.034 -7.566,-1.406 5.707,-5.123 -0.981,-7.591 6.635,3.822 6.928,-3.318 -1.592,7.511 z"
       style="fill:#ffffff;fill-opacity:1;fill-rule:nonzero;stroke:none"
       transform="matrix(1.3333333,0,0,-1.3333333,592.7168,403.02133)"
       clip-path="url(#clipPath74)" />
    <path
       id="path75"
       d="m 0,0 5.021,11.548 -12.22,-3.018 -9.439,8.336 -0.905,-12.559 -10.85,-6.431 11.685,-4.714 2.712,-12.303 8.137,9.643 12.544,-1.209 z"
       style="fill:#000000;fill-opacity:1;fill-rule:nonzero;stroke:none"
       transform="matrix(1.3333333,0,0,-1.3333333,297.04747,372.3912)"
       clip-path="url(#clipPath76)" />
    <path
       id="path77"
       d="m 0,0 2.654,6.105 -6.45,-1.592 -4.99,4.406 -0.478,-6.636 -5.733,-3.397 6.184,-2.495 1.434,-6.503 4.3,5.095 6.609,-0.636 z"
       style="fill:#ffffff;fill-opacity:1;fill-rule:nonzero;stroke:none"
       transform="matrix(1.3333333,0,0,-1.3333333,291.08653,372.83387)"
       clip-path="url(#clipPath78)" />
    <path
       id="path79"
       d="m 0,0 2.672,13.457 -12.291,-6.052 -11.943,6.699 1.923,-13.555 -10.073,-9.323 13.514,-2.339 5.673,-12.474 6.47,12.141 13.622,1.597 z"
       style="fill:#000000;fill-opacity:1;fill-rule:nonzero;stroke:none"
       transform="matrix(1.3333333,0,0,-1.3333333,65.187467,528.94453)"
       clip-path="url(#clipPath80)" />
    <path
       id="path81"
       d="m 0,0 1.513,7.618 -6.954,-3.425 -6.769,3.796 1.088,-7.671 -5.706,-5.282 7.671,-1.327 3.211,-7.06 3.663,6.874 7.698,0.903 z"
       style="fill:#ffffff;fill-opacity:1;fill-rule:nonzero;stroke:none"
       transform="matrix(1.3333333,0,0,-1.3333333,59.4576,530.63853)"
       clip-path="url(#clipPath82)" />
    <path
       id="path83"
       d="m 0,0 c -2.24,0 -4.478,-0.16 -6.695,-0.479 -0.133,-0.028 -0.267,-0.057 -0.4,-0.087 l -1.384,-5.422 h 0.487 c -5.451,-1.047 -10.64,-3.167 -15.265,-6.236 l 0.168,0.167 -4.846,2.718 c -0.985,-0.681 -1.944,-1.399 -2.875,-2.153 -1.693,-1.467 -3.28,-3.053 -4.747,-4.747 -0.82,-1.005 -1.597,-2.043 -2.332,-3.113 l 2.791,-4.705 0.331,0.331 c -3.088,-4.642 -5.218,-9.854 -6.267,-15.33 l -5.554,-1.564 c -0.301,-2.13 -0.454,-4.278 -0.461,-6.429 0,-2.241 0.16,-4.479 0.48,-6.697 0.058,-0.286 0.121,-0.571 0.185,-0.856 l 5.466,-1.396 v 0.498 c 1.087,-5.312 3.195,-10.363 6.208,-14.872 l -0.482,0.482 -2.711,-4.836 c 0.738,-1.077 1.52,-2.123 2.346,-3.134 1.467,-1.694 3.054,-3.28 4.747,-4.747 0.919,-0.745 1.867,-1.454 2.84,-2.126 l 4.779,2.836 -0.204,0.202 c 4.751,-3.189 10.107,-5.371 15.734,-6.41 h -1.22 l 1.511,-5.369 c 0.224,-0.05 0.45,-0.099 0.675,-0.147 2.217,-0.318 4.455,-0.478 6.695,-0.478 2.238,0 4.474,0.16 6.688,0.478 l 1.407,5.51 H 7.631 c 5.715,1.057 11.147,3.292 15.952,6.563 l 4.941,-2.771 c 0.78,0.547 1.543,1.118 2.288,1.712 1.694,1.467 3.28,3.053 4.748,4.747 0.953,1.154 1.85,2.354 2.69,3.594 l -2.868,4.835 -0.045,-0.045 c 2.777,4.424 4.703,9.328 5.678,14.46 l 5.599,1.575 c 0.291,2.118 0.437,4.254 0.437,6.392 0,0.77 -0.02,1.539 -0.058,2.308 -0.037,0.769 -0.094,1.536 -0.169,2.303 -0.075,0.766 -0.17,1.53 -0.283,2.292 -0.037,0.224 -0.076,0.448 -0.117,0.671 l -5.503,1.407 v -0.05 c -1.106,5.096 -3.151,9.94 -6.033,14.284 l 0.01,-0.011 2.784,4.964 c -0.425,0.57 -0.862,1.13 -1.312,1.679 -0.488,0.596 -0.991,1.179 -1.509,1.75 -0.516,0.57 -1.048,1.128 -1.591,1.672 -0.544,0.545 -1.102,1.076 -1.672,1.593 -0.571,0.517 -1.155,1.02 -1.75,1.507 -0.595,0.489 -1.202,0.963 -1.82,1.422 -0.119,0.084 -0.238,0.169 -0.358,0.252 l -4.773,-2.83 0.295,-0.294 c -4.468,2.969 -9.466,5.053 -14.721,6.137 H 8.497 L 6.956,-0.518 C 6.939,-0.515 6.922,-0.512 6.904,-0.51 6.143,-0.396 5.379,-0.302 4.612,-0.227 3.847,-0.151 3.078,-0.094 2.31,-0.056 1.54,-0.019 0.771,0 0.001,0 Z"
       style="fill:#000000;fill-opacity:1;fill-rule:evenodd;stroke:none"
       transform="matrix(1.3333333,0,0,-1.3333333,544.43293,4.8085333)"
       clip-path="url(#clipPath84)" />
    <path
       id="path85"
       d="m 0,0 c 18.374,0 33.27,-14.896 33.27,-33.27 0,-18.374 -14.896,-33.269 -33.27,-33.269 -18.374,0 -33.27,14.895 -33.27,33.269 C -33.27,-14.896 -18.374,0 0,0"
       style="fill:#ffffff;fill-opacity:1;fill-rule:evenodd;stroke:none"
       transform="matrix(1.3333333,0,0,-1.3333333,544.43427,23.182133)"
       clip-path="url(#clipPath86)" />
    <path
       id="path87"
       d="m 0,0 c -14.365,0 -26.053,-11.687 -26.053,-26.053 0,-14.365 11.688,-26.052 26.053,-26.052 14.366,0 26.053,11.687 26.053,26.052 C 26.053,-11.687 14.366,0 0,0 m 0,-55.25 c -16.099,0 -29.196,13.098 -29.196,29.197 0,16.099 13.097,29.197 29.196,29.197 16.1,0 29.197,-13.098 29.197,-29.197 C 29.197,-42.152 16.1,-55.25 0,-55.25"
       style="fill:#000000;fill-opacity:1;fill-rule:nonzero;stroke:none"
       transform="matrix(1.3333333,0,0,-1.3333333,544.43427,32.804533)"
       clip-path="url(#clipPath88)" />
    <path
       id="path89"
       d="m 0,0 c 5.419,0 9.812,-4.393 9.812,-9.812 0,-5.418 -4.393,-9.811 -9.812,-9.811 -5.418,0 -9.812,4.393 -9.812,9.811 C -9.812,-4.393 -5.418,0 0,0"
       style="fill:#000000;fill-opacity:1;fill-rule:evenodd;stroke:none"
       transform="matrix(1.3333333,0,0,-1.3333333,544.43427,54.4596)"
       clip-path="url(#clipPath90)" />
    <path
       id="path91"
       d="M 0,0 C -1.643,0 -3.283,-0.117 -4.908,-0.351 -5.007,-0.372 -5.104,-0.393 -5.202,-0.415 L -6.216,-4.39 h 0.357 c -3.997,-0.767 -7.801,-2.321 -11.192,-4.572 l 0.123,0.123 -3.552,1.992 c -0.722,-0.499 -1.425,-1.025 -2.108,-1.578 -1.241,-1.075 -2.404,-2.239 -3.48,-3.48 -0.601,-0.737 -1.171,-1.498 -1.709,-2.283 l 2.046,-3.449 0.243,0.243 c -2.265,-3.403 -3.827,-7.224 -4.595,-11.239 l -4.072,-1.146 c -0.221,-1.562 -0.333,-3.137 -0.338,-4.714 0,-1.643 0.117,-3.283 0.351,-4.909 0.043,-0.21 0.089,-0.419 0.136,-0.628 l 4.007,-1.024 v 0.366 c 0.798,-3.895 2.343,-7.598 4.552,-10.904 l -0.354,0.353 -1.988,-3.545 c 0.542,-0.789 1.116,-1.556 1.721,-2.298 1.076,-1.241 2.239,-2.404 3.48,-3.48 0.674,-0.545 1.369,-1.065 2.082,-1.559 l 3.503,2.079 -0.148,0.149 c 3.483,-2.338 7.409,-3.938 11.534,-4.7 h -0.895 l 1.109,-3.935 c 0.165,-0.037 0.33,-0.073 0.495,-0.108 1.625,-0.234 3.265,-0.351 4.908,-0.351 1.641,0 3.279,0.118 4.903,0.351 l 1.031,4.039 H 5.595 c 4.189,0.775 8.172,2.414 11.694,4.812 l 3.623,-2.032 c 0.571,0.401 1.131,0.82 1.677,1.255 1.241,1.076 2.404,2.239 3.48,3.48 0.7,0.847 1.358,1.727 1.973,2.636 l -2.103,3.544 -0.033,-0.033 c 2.036,3.244 3.448,6.839 4.163,10.601 l 4.105,1.155 c 0.213,1.553 0.32,3.118 0.32,4.686 0,0.564 -0.015,1.128 -0.042,1.692 -0.028,0.564 -0.069,1.127 -0.124,1.688 -0.056,0.562 -0.125,1.122 -0.208,1.68 -0.027,0.165 -0.056,0.329 -0.086,0.493 L 30,-27.909 v -0.036 c -0.811,3.735 -2.311,7.287 -4.424,10.471 l 0.008,-0.007 2.041,3.639 c -0.312,0.418 -0.632,0.828 -0.961,1.231 -0.358,0.437 -0.727,0.864 -1.106,1.282 -0.379,0.419 -0.768,0.828 -1.167,1.226 -0.4,0.4 -0.808,0.789 -1.226,1.168 -0.419,0.379 -0.847,0.747 -1.283,1.105 -0.436,0.359 -0.881,0.706 -1.334,1.042 -0.087,0.062 -0.175,0.124 -0.263,0.185 l -3.498,-2.074 0.216,-0.216 c -3.276,2.177 -6.94,3.705 -10.793,4.499 H 6.229 L 5.1,-0.379 C 5.087,-0.377 5.074,-0.375 5.062,-0.374 4.503,-0.291 3.943,-0.222 3.381,-0.166 2.819,-0.111 2.257,-0.069 1.692,-0.042 1.129,-0.014 0.564,0 0,0"
       style="fill:#000000;fill-opacity:1;fill-rule:evenodd;stroke:none"
       transform="matrix(1.3333333,0,0,-1.3333333,441.58653,5.3333333e-4)"
       clip-path="url(#clipPath92)" />
    <path
       id="path93"
       d="m 0,0 c 13.471,0 24.391,-10.92 24.391,-24.391 0,-13.47 -10.92,-24.39 -24.391,-24.39 -13.47,0 -24.39,10.92 -24.39,24.39 C -24.39,-10.92 -13.47,0 0,0"
       style="fill:#ffffff;fill-opacity:1;fill-rule:evenodd;stroke:none"
       transform="matrix(1.3333333,0,0,-1.3333333,441.58653,13.4712)"
       clip-path="url(#clipPath94)" />
    <path
       id="path95"
       d="m 0,0 c -10.532,0 -19.101,-8.568 -19.101,-19.101 0,-10.531 8.569,-19.1 19.101,-19.1 10.531,0 19.1,8.569 19.1,19.1 C 19.1,-8.568 10.531,0 0,0 m 0,-40.505 c -11.803,0 -21.405,9.602 -21.405,21.404 0,11.803 9.602,21.406 21.405,21.406 11.803,0 21.404,-9.603 21.404,-21.406 0,-11.802 -9.601,-21.404 -21.404,-21.404"
       style="fill:#000000;fill-opacity:1;fill-rule:nonzero;stroke:none"
       transform="matrix(1.3333333,0,0,-1.3333333,441.58787,20.524667)"
       clip-path="url(#clipPath96)" />
    <path
       id="path97"
       d="m 0,0 c 3.973,0 7.193,-3.22 7.193,-7.193 0,-3.972 -3.22,-7.193 -7.193,-7.193 -3.972,0 -7.192,3.221 -7.192,7.193 C -7.192,-3.22 -3.972,0 0,0"
       style="fill:#000000;fill-opacity:1;fill-rule:evenodd;stroke:none"
       transform="matrix(1.3333333,0,0,-1.3333333,441.58653,36.4016)"
       clip-path="url(#clipPath98)" />
    <path
       id="path99"
       d="m 0,0 c 1.237,0.001 2.24,-1.023 2.24,-2.287 v -0.002 c 0,-1.264 -1.002,-2.288 -2.239,-2.288 H 0 c -1.236,0 -2.238,1.025 -2.238,2.288 C -2.238,-1.025 -1.236,0 0,0 M 8.592,9.139 12.315,5.639 7.422,4.168 Z M 7.916,15.051 C -2.316,8.183 -14.59,-9.146 -14.089,-15.035 c 3.644,-0.314 12.301,3.366 20.036,8.644 4.807,3.28 9.257,7.177 11.926,11.115 z"
       style="fill:#ffffff;fill-opacity:1;fill-rule:nonzero;stroke:none"
       transform="matrix(1.3333333,0,0,-1.3333333,245.04493,110.30853)"
       clip-path="url(#clipPath100)" />
    <path
       id="path101"
       d="m 0,0 c -28.101,-6.529 -43.407,-49.979 -43.407,-49.979 l 4.675,-7.508 c 0.11,-0.051 7.541,-4.552 7.541,-4.552 0,0 43.281,15.779 49.504,43.949 0,0 0.146,4.453 -2.715,4.798 -3.473,0.418 -4.909,-1.376 -4.909,-1.376 -14.918,-31.022 -32.457,-31.127 -42.599,-36.662 5.418,10.207 4.574,28.496 35.415,43.744 0,0 1.779,1.453 1.323,4.922 C 4.453,0.194 0,0 0,0 Z"
       style="fill:#000000;fill-opacity:1;fill-rule:nonzero;stroke:none"
       transform="matrix(1.3333333,0,0,-1.3333333,308.27667,26.184133)"
       clip-path="url(#clipPath102)" />
    <path
       id="path103"
       d="M 0,0 C 2.758,0 4.993,-2.236 4.994,-4.994 4.995,-7.752 2.759,-9.99 0,-9.99 v 0 c -2.759,0 -4.995,2.237 -4.994,4.995 v 0.001 C -4.994,-2.236 -2.758,0 0,0 M 88.49,116.327 C 77.468,116.326 68.532,107.39 68.531,96.368 c 0.006,-2.944 0.662,-5.851 1.922,-8.511 L 1.587,10.076 C 1.061,10.142 0.531,10.181 0,10.191 c -8.387,0 -15.185,-6.798 -15.185,-15.185 0,-8.386 6.798,-15.185 15.185,-15.185 8.386,0 15.185,6.799 15.185,15.185 -0.012,1.142 -0.153,2.279 -0.42,3.39 l 69.516,78.512 c 1.381,-0.316 2.793,-0.485 4.21,-0.502 11.024,-0.001 19.961,8.936 19.961,19.959 v 0.003 c -0.002,4.123 -1.282,8.145 -3.662,11.512 l -1.014,-10.083 -10.463,-4.714 -9.317,6.703 1.148,11.42 9.326,4.2 c -1.935,0.609 -3.951,0.919 -5.979,0.921 z"
       style="fill:#000000;fill-opacity:1;fill-rule:evenodd;stroke:none"
       transform="matrix(1.3333333,0,0,-1.3333333,40.1784,194.36453)"
       clip-path="url(#clipPath104)" />
  </g>
</svg>
