<?xml version="1.0" encoding="UTF-8" standalone="no"?>
<!-- Generator: Adobe Illustrator 25.0.0, SVG Export Plug-In . SVG Version: 6.00 Build 0)  -->

<svg
   version="1.1"
   id="Layer_1"
   x="0px"
   y="0px"
   viewBox="0 0 666.66675 499.49347"
   xml:space="preserve"
   sodipodi:docname="Rhythm World The Best Plus More Of The Best (리듬 세상 더・베스트 플러스 최고・중・더・베스트) Logo.svg"
   width="666.66675"
   height="499.49347"
   inkscape:version="1.2.2 (b0a8486541, 2022-12-01)"
   xmlns:inkscape="http://www.inkscape.org/namespaces/inkscape"
   xmlns:sodipodi="http://sodipodi.sourceforge.net/DTD/sodipodi-0.dtd"
   xmlns:xlink="http://www.w3.org/1999/xlink"
   xmlns="http://www.w3.org/2000/svg"
   xmlns:svg="http://www.w3.org/2000/svg"><defs
   id="defs5324" /><sodipodi:namedview
   id="namedview5322"
   pagecolor="#505050"
   bordercolor="#eeeeee"
   borderopacity="1"
   inkscape:showpageshadow="0"
   inkscape:pageopacity="0"
   inkscape:pagecheckerboard="0"
   inkscape:deskcolor="#505050"
   showgrid="false"
   inkscape:zoom="2.741444"
   inkscape:cx="250.0507"
   inkscape:cy="187.12766"
   inkscape:window-width="2560"
   inkscape:window-height="1412"
   inkscape:window-x="0"
   inkscape:window-y="0"
   inkscape:window-maximized="1"
   inkscape:current-layer="Layer_1" />
<style
   type="text/css"
   id="style5226">
	.st0{fill:#4087DA;}
	.st1{fill:#404040;}
	.st2{fill:#828282;}
	.st3{clip-path:url(#SVGID_2_);fill:url(#SVGID_3_);}
	.st4{clip-path:url(#SVGID_5_);fill:url(#SVGID_6_);}
	.st5{fill:#D8D8D8;}
	.st6{fill-rule:evenodd;clip-rule:evenodd;fill:#8898B0;}
	.st7{fill-rule:evenodd;clip-rule:evenodd;fill:#404040;}
	.st8{fill:#8898B0;}
	.st9{fill:#2C5E87;}
	.st10{fill-rule:evenodd;clip-rule:evenodd;fill:#2C5E87;}
</style>
<g
   id="Cloud_00000000183532777433781470000003896592949874560179_"
   transform="scale(1.3333334)">
	<path
   id="Black_00000155855611272096255510000006401015884962258084_"
   d="m 400.98834,194.92769 c 45.3877,0 82.31348,-36.92529 82.31348,-82.31249 0,-45.3872 -36.92578,-82.3125 -82.31348,-82.3125 -18.97461,0 -37.24805,6.57178 -51.80566,18.35791 -13.72949,-9.62451 -30.05664,-14.81494 -47.13281,-14.81494 -36.06836,0 -67.01369,23.09131 -78.02785,55.97314 -7.18359,-2.00098 -14.64746,-3.03271 -22.14209,-3.03271 -15.2666,0 -30.08545,4.21973 -42.92285,12.07275 -15.41943,-16.48486 -36.9912,-25.99854 -60.05322,-25.99854 -45.38721,0 -82.3125,36.92529 -82.3125,82.31249 0,26.67676 12.85303,50.86816 33.14404,66.02051 -13.40283,10.76562 -22.01123,27.27832 -22.01123,45.69435 0,12.71094 3.99365,24.69238 11.1831,34.5293 -8.69824,7.71387 -14.1167,18.96484 -14.1167,31.33887 -4.9e-4,11.18164 4.354,21.69531 12.26123,29.60254 7.90723,7.90625 18.42041,12.26172 29.60254,12.26172 11.72754,0 22.72314,-4.93945 30.5127,-13.21973 3.20605,0.77637 6.51074,1.17383 9.85107,1.17383 0.002,0 0.002,0 0.004,0 9.25342,0 18.20898,-3.08887 25.46386,-8.64258 2.40967,0.0391 4.80176,-0.13574 7.16406,-0.51074 5.4541,2.5127 11.39746,3.82129 17.48633,3.82129 11.13086,0 21.62549,-4.38965 29.37842,-12.03809 5.21045,-0.14648 10.2998,-1.25488 15.04883,-3.25781 3.79541,1.10352 7.74902,1.6748 11.70459,1.6748 8.52637,0 16.7002,-2.55371 23.61133,-7.29199 5.93994,0.2002 11.80469,-0.86328 17.21875,-3.07715 4.52052,1.62402 9.31154,2.46582 14.16994,2.46582 9.02246,0 17.60938,-2.85352 24.69238,-8.0459 3.80664,1.11621 7.77246,1.69043 11.78516,1.69043 10.50391,0 20.5332,-4.00488 28.14648,-10.9043 3.47461,0.91992 7.07227,1.39062 10.71094,1.39062 23.08398,0 41.86426,-18.7793 41.86426,-41.86328 0,-1.77246 -0.11035,-3.5293 -0.32812,-5.2666 12.83105,-11.6123 20.25293,-28.08498 20.25293,-45.74513 0,-9.84082 -2.32422,-19.44141 -6.7666,-28.11328 0.27734,-1.30859 0.50977,-2.62598 0.69531,-3.94922 0.55566,0.0108 1.11133,0.0166 1.66699,0.0166 z" />
	<path
   id="Blue_1_"
   class="st0"
   d="m 400.98834,38.54977 c -19.23926,0 -37.67969,7.51025 -51.43652,20.78223 -13.30762,-11.15723 -29.96484,-17.23926 -47.50195,-17.23926 -35.2998,0 -65.14748,24.57861 -72.39406,58.33594 -8.78223,-3.54492 -18.24902,-5.39551 -27.77588,-5.39551 -16.09668,0 -31.63965,5.21289 -44.40918,14.79102 -13.9917,-18.09131 -35.44677,-28.7168 -58.56689,-28.7168 -40.83985,0 -74.06543,33.22559 -74.06543,74.06542 0,28.37451 16.15283,53.62109 40.42285,66.00488 -17.26416,8.01074 -29.29004,25.5293 -29.29004,45.70998 0,13.85059 5.51807,26.69238 15.15771,36.04883 -10.82617,5.64355 -18.09131,16.97852 -18.09131,29.81934 -4.9e-4,8.97949 3.49609,17.4209 9.8457,23.77051 6.34961,6.34961 14.7915,9.84668 23.771,9.84668 11.14258,0 21.46289,-5.55273 27.66992,-14.53516 4.00928,1.63867 8.3125,2.48926 12.69482,2.48926 10e-4,0 0.002,0 0.003,0 8.41113,0 16.51611,-3.17871 22.68163,-8.81055 3.74756,0.38379 7.51074,0.12891 11.14014,-0.73047 4.9707,2.76074 10.55078,4.20898 16.29248,4.20898 10.06055,0 19.47461,-4.4668 25.83105,-12.10547 6.36621,0.45996 12.56299,-0.89355 18.07129,-3.81543 3.8877,1.52734 7.98828,2.2998 12.22949,2.2998 7.76855,0 15.17188,-2.64062 21.14453,-7.48926 1.27783,0.14648 2.56641,0.2207 3.85449,0.2207 5.4917,0 10.83301,-1.32422 15.63574,-3.85352 4.46974,2.11328 9.37306,3.21875 14.36525,3.21875 8.67578,0 16.85059,-3.28809 23.05176,-9.15137 4.21582,1.83789 8.78125,2.7959 13.42578,2.7959 10.02344,0 19.51074,-4.54395 25.84277,-12.13281 4.09961,1.72363 8.51758,2.62012 13.01465,2.62012 18.53613,0 33.61719,-15.08105 33.61719,-33.61719 0,-2.89355 -0.36426,-5.7373 -1.08496,-8.49609 13.2334,-10.10938 21.00977,-25.6924 21.00977,-42.51564 0,-9.52148 -2.50977,-18.78223 -7.2832,-26.95312 1.18555,-4.33008 1.78516,-8.78662 1.78516,-13.28467 0,-0.21387 -0.002,-0.42822 -0.005,-0.64258 3.09473,0.39062 6.21875,0.5874 9.3457,0.5874 40.83984,0 74.06641,-33.22559 74.06641,-74.06542 0,-40.83983 -33.22655,-74.06542 -74.0664,-74.06542 z" />
	<path
   id="Black_1_"
   d="m 400.98877,44.28671 c -20.36035,0 -38.63715,8.90851 -51.15521,23.03638 C 337.51258,55.26572 320.651,47.82956 302.05005,47.82956 c -35.26398,-6e-5 -64.28523,26.71454 -67.93782,61.00934 -9.60223,-5.14697 -20.57538,-8.06903 -32.23224,-8.06903 -17.49292,0 -33.44763,6.57678 -45.53448,17.38837 C 144.1798,99.3176 122.99933,86.84409 98.90393,86.84409 c -37.73682,0 -68.32849,30.59167 -68.32849,68.32848 0,33.31573 23.84534,61.05731 55.39886,67.1015 -24.47937,0.19238 -44.26618,20.08856 -44.26624,44.6133 0,16.20068 8.63452,30.38336 21.55164,38.20111 -13.79547,1.67596 -24.48541,13.41937 -24.48547,27.66718 -6e-5,15.39789 12.48236,27.88037 27.88025,27.88043 11.30511,6e-5 21.03137,-6.73248 25.4071,-16.40344 4.32306,2.75488 9.45184,4.3576 14.95801,4.3576 8.1958,6e-5 15.56488,-3.53699 20.66608,-9.16705 1.75085,0.34442 3.55895,0.5293 5.41076,0.5293 3.00311,0 5.89276,-0.48047 8.60315,-1.35913 4.42029,2.94525 9.72717,4.66486 15.43719,4.66486 9.69885,0 18.23749,-4.95483 23.23212,-12.46881 1.60803,0.28845 3.26105,0.44739 4.95209,0.44739 5.67352,0 10.94812,-1.69904 15.35144,-4.60974 3.78436,1.92053 8.06177,3.00989 12.59607,3.00989 7.52802,0 14.35419,-2.98877 19.37048,-7.83795 1.81799,0.37268 3.70032,0.56866 5.62848,0.56866 5.73456,0 11.06329,-1.73334 15.49493,-4.70178 4.22621,2.58008 9.19215,4.06781 14.50606,4.06781 8.83484,6e-5 16.70422,-4.11401 21.81238,-10.52563 4.26086,2.64105 9.28351,4.1698 14.66504,4.1698 10.25,6e-5 19.20239,-5.53503 24.04657,-13.77551 4.29205,2.69739 9.36725,4.26324 14.81079,4.26324 15.39789,6e-5 27.88037,-12.48236 27.88043,-27.88025 0,-3.80463 -0.76459,-7.42999 -2.14441,-10.73431 13.26752,-8.49542 22.06934,-23.35365 22.06934,-40.27718 0,-9.64966 -2.86865,-18.62482 -7.78589,-26.138 1.47601,-4.43341 2.28723,-9.17053 2.28723,-14.09985 0,-2.59839 -0.23468,-5.14056 -0.66089,-7.61719 5.05347,1.19147 10.32239,1.82495 15.73975,1.82495 37.73682,0 68.32849,-30.59167 68.32855,-68.32848 -1e-5,-37.73685 -30.59174,-68.32858 -68.32856,-68.32858 z" />
</g>
<g
   id="_xFF0B__00000054255216110128827750000012672302154573233562_"
   transform="scale(1.3333334)">
	<g
   id="_xFF0B__6_">
		<polygon
   points="370.86737,212.13812 331.25916,220.55687 327.99606,257.85272 367.60428,249.43362 364.12244,289.23199 420.38513,277.2728 423.86697,237.47443 463.47556,229.05568 466.73795,191.76018 427.13007,200.17926 430.61194,160.38091 374.34921,172.33977 "
   id="polygon5232" />
		<polygon
   class="st1"
   points="379.6857,219.93997 340.07745,228.35896 338.5397,245.9351 378.14792,237.5161 374.66605,277.31436 411.5668,269.47086 415.04871,229.67261 454.65695,221.25366 456.1947,203.67747 416.5864,212.09647 420.0683,172.2982 383.16757,180.14177 "
   id="polygon5234" />
		<polyline
   class="st2"
   points="418.12476,174.49498 414.64288,214.29324 454.25116,205.87424 453.03143,219.81554     413.42319,228.23445 409.94128,268.03275 376.60962,275.11761 380.09143,235.31935 340.48328,243.73834 341.70297,229.7971     381.31122,221.37811 384.79309,181.5799 418.12476,174.49498   "
   id="polyline5236" />
		<g
   id="g5251">
			<defs
   id="defs5239">
				<polygon
   id="SVGID_4_"
   points="376.60962,275.11761 409.94113,268.03275 413.42313,228.23444 453.0314,219.81561 454.25116,205.87431 414.64285,214.29323 418.12482,174.49498 384.79309,181.5799 " />
			</defs>
			<clipPath
   id="SVGID_2_">
				<use
   xlink:href="#SVGID_4_"
   style="overflow:visible"
   id="use5241" />
			</clipPath>
			
				<linearGradient
   id="SVGID_3_"
   gradientUnits="userSpaceOnUse"
   x1="369.46408"
   y1="270.73624"
   x2="438.19748"
   y2="248.76216"
   gradientTransform="matrix(1,0,0,0.9563,15.04796,-24.64735)">
				<stop
   offset="0.2"
   style="stop-color:#828282"
   id="stop5244" />
				<stop
   offset="0.95"
   style="stop-color:#414141"
   id="stop5246" />
			</linearGradient>
			<rect
   x="376.60962"
   y="174.49496"
   class="st3"
   width="77.641541"
   height="100.62263"
   clip-path="url(#SVGID_2_)"
   id="rect5249"
   style="fill:url(#SVGID_3_)" />
		</g>
		<g
   id="g5266">
			<defs
   id="defs5254">
				<polygon
   id="SVGID_1_"
   points="381.31122,221.37811 341.70297,229.7971 340.48328,243.73834 380.09143,235.31935 " />
			</defs>
			<clipPath
   id="SVGID_5_">
				<use
   xlink:href="#SVGID_1_"
   style="overflow:visible"
   id="use5256" />
			</clipPath>
			
				<radialGradient
   id="SVGID_6_"
   cx="342.27725"
   cy="295.93344"
   r="27.535021"
   gradientTransform="matrix(0.72866,0,0,0.72866,96.51431,11.58406)"
   gradientUnits="userSpaceOnUse">
				<stop
   offset="0.1"
   style="stop-color:#FFFFFF"
   id="stop5259" />
				<stop
   offset="1"
   style="stop-color:#828282"
   id="stop5261" />
			</radialGradient>
			<circle
   class="st4"
   cx="346.93518"
   cy="228.51527"
   r="20.063749"
   clip-path="url(#SVGID_5_)"
   id="circle5264"
   style="fill:url(#SVGID_6_)" />
		</g>
	</g>
	<path
   id="스_00000078015374610409626770000007009331408264224169_"
   class="st5"
   d="m 404.8006,248.9827 -1.98218,4.33612 c -4.30612,0.44862 -8.22891,-2.37326 -8.22891,-2.37326 0,0 -4.41656,4.40697 -8.62036,6.33105 l -2.11316,-3.34979 c 0,0 8.1694,-4.0242 8.51758,-8.07785 l 0.15045,-1.25854 c 0.0622,-0.72398 -0.38596,-0.72304 -0.96808,-0.5993 l -0.58475,0.1243 0.19647,-2.28735 6.42902,-1.36652 -0.40546,4.22729 c -0.37597,4.37713 7.60938,4.29385 7.60938,4.29385 z m -23.06174,12.00369 -0.28125,3.2746 24.17535,-5.13858 0.28128,-3.27461 z" />
	<path
   id="러_00000066493390397933580190000012156774318227192732_"
   class="st5"
   d="m 397.06396,232.4234 c 1.32385,-0.28139 2.70563,-0.81375 3.57269,-1.32394 l -0.28308,3.29572 c -0.86923,0.46092 -2.57123,1.06085 -4.49203,1.46913 l -8.86832,1.88499 c -1.15784,0.24611 -2.00974,-0.56364 -1.9028,-1.80867 l 0.43384,-5.05086 c 0.0623,-0.72563 -0.62598,-0.57933 -1.09012,-0.48067 l -0.22986,0.0488 0.18335,-2.13446 10.42053,-2.21495 0.21915,-2.55127 -9.98819,2.12305 0.27591,-3.21227 14.32419,-3.02409 c 0.36142,-0.0763 0.62708,0.17676 0.59369,0.56544 l -0.64075,7.45964 c -0.0334,0.38904 -0.35382,0.76683 -0.71567,0.84373 l -7.27173,1.54565 -0.32593,3.79463 z m 6.22321,-17.34807 -0.21393,2.4908 0.44315,-0.0942 c 0.44116,-0.0938 0.84506,-0.17963 0.79321,0.424 l -0.39783,4.63184 -3.05139,0.64859 -0.34744,4.04497 3.05139,-0.64859 -1.1673,13.59062 4.78448,-1.01697 2.17841,-25.36186 z" />
	<path
   id="플_1_"
   class="st5"
   d="m 408.8237,207.58928 -0.23447,2.73001 -17.95645,3.81673 c -1.98813,0.42259 -2.67145,0.0215 -2.56989,-1.1608 l 0.14124,-1.64421 c 0.044,-0.51268 -0.0117,-0.63271 -0.61368,-0.50475 l -0.52377,0.11134 0.21182,-2.46602 16.62766,-3.5343 0.12946,-1.50706 -16.09961,3.42207 0.25241,-2.93806 20.06989,-4.25142 c 0.46884,-0.0993 0.82477,0.0963 0.77393,0.68834 l -0.42084,4.89948 c -0.0236,0.27487 -0.45697,0.97179 -0.9263,1.07155 l -14.23068,3.0248 -0.13205,1.53723 z m 3.73251,-12.81839 -27.22958,5.78778 -0.23181,2.69872 27.22958,-5.78778 z m -5.59396,-2.34328 0.32584,-3.79347 2.61029,-0.55482 0.19406,-2.25916 -20.6442,4.38802 -0.19403,2.25916 2.61029,-0.55484 -0.32584,3.79347 -3.22253,0.68497 -0.19403,2.25914 21.86868,-4.6483 0.19406,-2.25912 z m -11.3107,-0.35591 7.68076,-1.63258 -0.15714,1.82927 -7.68076,1.63258 z" />
</g>
<g
   id="리듬_세상_더_x30FB_베스트_최고_x30FB_중_x30FB_더_x30FB_베스트_2_"
   transform="scale(1.3333334)">
	<path
   id="트_1_"
   class="st0"
   d="m 340.47092,268.40878 3e-5,3.07971 15.60559,-3.31705 v 4.38037 l -15.60559,3.31705 v 3.20459 l 15.60559,-3.31705 v 4.00284 l -19.11884,4.06381 c -1.57727,0.33527 -2.96036,-0.94202 -2.96036,-2.90979 l 3e-5,-11.64655 c 0,-0.78909 -0.12228,-1.01575 -1.43298,-0.73712 l -0.28027,0.0596 3e-5,-2.76382 23.79239,-5.05719 v 4.32358 z m -12.07932,21.42578 -3e-5,4.1449 32.00201,-6.80219 v -4.1449 z" />
	<path
   id="스_2_"
   class="st0"
   d="m 319.84018,282.18121 -2.21686,5.12402 c -6.03217,0.46494 -10.84293,-3.76572 -10.84293,-3.76572 0,0 -4.85901,5.98831 -11.18503,8.70184 l -2.83517,-4.16568 c 0,0 10.54477,-4.99527 10.54477,-10.21024 l 3e-5,-2.72446 c 0,-0.9314 -0.60159,-0.92709 -1.36896,-0.76401 l -0.6864,0.1459 v -2.60254 l 7.98428,-1.69711 v 5.84546 c 1e-5,5.63116 10.60627,6.11254 10.60627,6.11254 z m -29.37723,15.45163 v 4.21271 l 31.8674,-6.77356 v -4.21274 z" />
	<path
   id="베_2_"
   class="st0"
   d="m 282.96375,275.60016 v 31.21298 l -6.12344,1.30161 3e-5,-26.87543 c 0,-0.76505 -0.4653,-1.06363 -1.08212,-0.93253 l -0.59341,0.12613 v -3.17505 z m -15.81211,4.68921 v 3.17502 l 0.59341,-0.12613 c 0.61685,-0.13113 1.08215,0.16748 1.08215,0.9325 v 2.77881 l -4.15335,0.88284 v -6.18716 l -7.12119,1.51364 v 3.17502 l 0.59338,-0.12613 c 0.61685,-0.1311 1.08215,0.16748 1.08215,0.93253 v 1.84964 l -3.81248,0.81036 v -6.18719 0 l -7.12122,1.51364 v 3.17505 l 0.59343,-0.12613 c 0.61684,-0.13113 1.08218,0.16751 1.08218,0.93243 l -3e-5,6e-5 -3e-5,12.4675 c 0,1.29227 0.86491,1.99341 2.11156,1.72842 l 12.59224,-2.67654 v -8.1918 l 4.15335,-0.88281 -3e-5,18.16507 5.77762,-1.22812 v -29.88477 z m -11.73591,14.21426 3.81245,-0.81036 v 3.70331 l -3.81245,0.81036 z" />
	<polygon
   id="_x2605__1_"
   class="st0"
   points="237.04506,295.63959 233.5955,296.88431 236.09506,298.76788 235.52425,302.31104 238.59303,300.03781 241.67549,301.00034 241.07899,297.69861 243.56429,294.72159 240.1152,294.9671 238.56815,292.18167 " />
	<path
   id="더_2_"
   class="st0"
   d="m 204.61714,307.94006 10.00662,-2.12698 v 4.2186 l -11.56406,2.45804 c -3.49977,0.74387 -4.80106,-0.21982 -4.80103,-3.40363 v -10.94226 c -7.8e-4,-0.70602 -0.78905,-0.5972 -1.36493,-0.47482 l -0.38495,0.0818 v -2.49063 l 18.11496,-3.85046 v 4.44266 l -10.00662,2.12698 v 9.96065 z m 14.54665,-20.38952 v 3.16165 l 0.40044,-0.0851 c 0.57613,-0.12244 1.36504,-0.23151 1.36504,0.47577 v 6.03314 l -6.56685,1.39581 v 4.91837 l 6.56685,-1.39584 -3e-5,14.75842 5.7753,-1.22757 v -29.63742 z" />
	<polygon
   id="_x2605__2_"
   class="st0"
   points="184.07394,304.5094 180.62439,305.75412 183.12393,307.6377 182.55313,311.18085 185.6219,308.90762 188.70438,309.87015 188.10788,306.56842 190.59317,303.5914 187.14407,303.83691 185.59702,301.05148 " />
	<path
   id="중"
   class="st0"
   d="m 155.73492,304.59906 c 0,-0.74524 -0.0627,-0.94547 -1.19049,-0.70575 l -6.89258,1.46506 v -4.06909 l 23.54889,-5.00546 v 4.06903 l -6.94611,1.47644 c -1.0921,0.23218 -1.19049,0.4939 -1.19049,1.21198 0,2.62457 8.1366,2.01294 8.1366,2.01294 l -1.9278,4.6387 c -5.24561,0.37231 -10.11316,-2.67966 -10.11316,-2.67966 0,0 -3.54132,4.56863 -9.04254,6.98221 l -2.46539,-3.80988 c 1e-5,0 8.08307,-2.83255 8.08307,-5.58652 z m 6.61737,12.65979 v 1.73883 c 0.48016,0.0469 0.91565,0.12524 1.29199,0.22177 2.85736,0.73291 3.85535,2.74557 3.85535,4.76151 0,2.25818 -1.14441,4.21695 -3.42017,5.83533 -4.07269,2.89624 -10.52594,3.44794 -12.13568,-0.40131 -1.05029,-2.51163 -0.008,-6.18616 2.9494,-8.29367 0.59503,-0.42404 1.18884,-0.76852 1.77484,-1.0531 v -1.60114 l -11.01404,2.34109 6e-5,-4.22687 27.71216,-5.89029 v 4.22675 z m 0.0204,7.25632 c 0,-0.86456 -0.13977,-2.28369 -2.1283,-2.26819 -1.93732,0.0151 -3.71936,1.71625 -3.71936,4.0686 0,2.2699 1.4007,2.28821 2.08746,2.29718 2.02729,0.0264 3.7602,-1.97845 3.7602,-4.09759 z" />
	<polygon
   id="_x2605__3_"
   class="st0"
   points="132.10989,314.66037 128.66035,315.90509 131.1599,317.78867 130.58908,321.33182 133.65787,319.05862 136.74033,320.02112 136.14384,316.71939 138.62914,313.74237 135.18004,313.98788 133.63298,311.20248 " />
	<path
   id="고"
   class="st0"
   d="m 115.92398,312.38229 -19.26141,4.09418 v -4.49481 l 24.66522,-5.24274 c 0,4.94604 0.0457,11.07147 -0.68927,16.40717 l -5.47192,1.16309 c 0.48059,-4.02747 0.75738,-8.62897 0.75738,-11.92689 z m -5.41693,16.20954 6e-5,-10.50513 -7.28479,1.54846 v 3.03827 l 0.56787,-0.12067 c 0.59027,-0.12549 1.03552,0.16022 1.03552,0.89233 l -6e-5,6.35431 -12.24591,2.60291 v 4.30896 l 31.83081,-6.76575 v -4.30896 z" />
	<path
   id="최"
   class="st0"
   d="m 61.74905,327.92404 c 0,-0.88672 -0.06372,-1.15839 -1.28802,-0.89813 l -7.45782,1.58521 v -4.40936 l 9.81464,-2.08618 v -1.23315 c 0,-0.73212 -0.44525,-1.01782 -1.03552,-0.89233 l -0.56787,0.12067 v -3.03827 l 7.28479,-1.54846 -6e-5,5.38397 9.98389,-2.12213 v 4.40936 l -7.51581,1.59753 c -1.18152,0.2511 -1.28802,0.56805 -1.28802,1.44574 0,3.20776 8.80383,2.70288 8.80383,2.70288 l -1.82996,5.17108 c -5.67578,0.29858 -11.19836,-3.13562 -11.19836,-3.13562 0,0 -4.159,4.87921 -10.11127,7.6651 l -2.34027,-4.28467 c -2e-5,-10e-6 8.74583,-3.06727 8.74583,-6.43324 z m 16.3241,-15.03369 v 3.00348 l 0.56134,-0.11926 c 0.5835,-0.12408 1.02368,0.15839 1.02368,0.88214 l -6e-5,21.78174 -10.51935,2.23596 6e-5,-5.91522 -7.28479,1.54846 v 3.03827 l 0.56787,-0.12067 c 0.59027,-0.12549 1.03552,0.16022 1.03552,0.89233 l -6e-5,1.7644 -10.45416,2.22212 v 4.07617 l 26.65485,-5.66565 v 3.78259 l 5.61639,-1.19385 v -33.74371 z" />
	<path
   id="트"
   class="st0"
   d="m 289.91733,213.51389 3e-5,4.92906 24.97672,-5.30893 v 7.01076 l -24.97675,5.30893 v 5.12897 l 24.97675,-5.30893 v 6.40654 l -30.59967,6.5041 c -2.52441,0.53659 -4.73804,-1.50771 -4.73804,-4.65709 l 3e-5,-18.64027 c 0,-1.26297 -0.19568,-1.62569 -2.29349,-1.17979 l -0.44858,0.0953 6e-5,-4.42349 38.07968,-8.09402 v 6.91989 z m -19.33295,34.29191 -3e-5,6.63387 51.21912,-10.88687 v -6.63387 z" />
	<path
   id="스_1_"
   class="st0"
   d="m 256.89789,235.55661 -3.5481,8.20099 c -9.65448,0.74414 -17.3541,-6.02699 -17.3541,-6.02699 0,0 -7.77678,9.58424 -17.9016,13.92725 l -4.53766,-6.66716 c 0,0 16.87686,-7.99492 16.87688,-16.34143 v -4.36049 c 0,-1.49072 -0.96284,-1.48384 -2.19099,-1.22279 l -1.09859,0.23352 v -4.16536 l 12.77884,-2.71622 v 9.35565 c -1e-5,9.01258 16.97532,9.78303 16.97532,9.78303 z m -47.01819,24.73029 -2e-5,6.74246 51.00368,-10.84109 v -6.74245 z" />
	<path
   id="베_1_"
   class="st0"
   d="m 197.87726,225.02365 v 49.9563 l -9.80058,2.08319 8e-5,-43.01402 c 0,-1.22447 -0.74475,-1.70235 -1.73198,-1.49251 l -0.94974,0.20189 v -5.08165 z m -25.30725,7.50505 v 5.08163 l 0.94977,-0.20189 c 0.98726,-0.20984 1.73199,0.26805 1.73199,1.49249 v 4.44746 l -6.64746,1.41296 v -9.90254 l -11.39742,2.42259 v 5.08162 l 0.94972,-0.20186 c 0.98726,-0.20985 1.73198,0.26805 1.73198,1.49248 v 2.96034 l -6.10188,1.297 v -9.90259 0 l -11.39748,2.42261 v 5.08162 l 0.94977,-0.20189 c 0.98726,-0.20984 1.73206,0.26811 1.73206,1.49237 l -6e-5,1.2e-4 -6e-5,19.95421 c 0,2.06824 1.38429,3.1904 3.37955,2.7663 l 20.15382,-4.28375 V 252.129 l 6.64746,-1.41295 -6e-5,29.07312 9.24707,-1.96558 V 229.9931 Z m -18.7833,22.74989 6.10184,-1.29698 v 5.92714 l -6.10184,1.29697 z" />
	<polygon
   id="_x2605_"
   class="st0"
   points="124.38452,257.09671 118.86353,259.08887 122.86404,262.10352 121.95046,267.77435 126.86203,264.13608 131.79552,265.67657 130.84082,260.39218 134.81853,255.62746 129.29826,256.02039 126.8222,251.56235 " />
	<path
   id="더_1_"
   class="st0"
   d="m 72.48373,276.78357 16.01557,-3.40421 v 6.75186 l -18.50824,3.93405 c -5.60137,1.19058 -7.68408,-0.35181 -7.68402,-5.44751 v -17.51303 c -0.0012,-1.12997 -1.26288,-0.95581 -2.18457,-0.75995 l -0.61612,0.13098 v -3.98621 l 28.99295,-6.16266 v 7.11041 l -16.01557,3.40427 z M 95.7656,244.15021 v 5.06021 l 0.64089,-0.13625 c 0.92208,-0.19598 2.18474,-0.37054 2.18474,0.76143 v 9.65601 l -10.51022,2.23404 v 7.8718 l 10.51022,-2.23404 -5e-5,23.62082 9.24335,-1.96472 v -47.43459 z" />
	<path
   id="상_1_"
   class="st0"
   d="m 411.13715,122.66512 c -5.91476,-1.39833 -16.42883,-1.45079 -27.01459,5.86557 -9.13,6.3102 -12.34692,17.19643 -9.10458,24.58791 4.96912,11.32793 24.89014,9.51659 37.46252,0.84454 7.02533,-4.84586 10.55807,-10.66559 10.55807,-17.33775 0,-5.95629 -3.08081,-11.87497 -11.90142,-13.96027 z m -15.53287,27.89566 c -2.12006,-0.007 -6.44409,-0.0219 -6.44409,-6.72858 0,-6.95055 5.50131,-12.02681 11.48169,-12.12598 6.13855,-0.10184 6.57007,4.08743 6.57007,6.64182 -10e-6,6.26144 -5.34952,12.23391 -11.60767,12.21274 z M 436.68222,84.86561 V 95.18427 L 425.05365,97.656 v 19.37821 l -15.53287,3.30162 V 75.68649 c 0,-2.01067 -1.63626,-1.96323 -3.50067,-1.56694 l -1.87283,0.39808 v -5.95851 l 20.90637,-4.44379 v 23.22201 z m -57.19855,23.62006 c 0,0 -1.70575,14.69232 -20.31857,33.9388 l -9.52963,-7.82588 c 9.53723,-7.94843 20.52856,-25.9333 20.52856,-41.79809 v -0.44776 c 0,-1.90571 -1.46158,-1.87974 -3.28192,-1.49281 l -1.83984,0.39107 v -5.64745 l 20.42365,-4.34118 v 8.28562 c 0,16.20254 8.86063,18.66151 20.63351,18.58403 l -5.85626,9.28624 c -17.88968,-1.32433 -20.7595,-8.93259 -20.7595,-8.93259 z" />
	<path
   id="세_1_"
   class="st0"
   d="m 297.10867,142.84048 -6.51468,9.04843 c -12.72708,-4.13416 -16.16455,-10.62563 -16.16455,-10.62563 0,0 -4.81964,9.29968 -14.92264,18.98087 l -8.42834,-7.1469 c 0,0 14.89084,-14.52547 14.89084,-28.85606 v -10.90804 c 0,-1.99483 -1.57895,-1.92388 -3.34494,-1.54852 l -1.77386,0.37705 v -6.30236 l 19.50333,-4.14556 -3e-5,20.0672 c -10e-6,19.21428 16.75487,21.05952 16.75487,21.05952 z m -1.97482,-48.10575 v 5.7956 l 1.51056,-0.32108 c 1.50378,-0.31964 2.88062,-0.6123 2.88062,1.38254 v 16.88967 l -12.73807,2.70756 v 9.08617 l 12.73807,-2.70757 3e-5,50.05132 13.97198,-2.96983 v -83.8176 z m 17.79108,-18.81749 v 5.7956 l 1.51056,-0.32108 c 1.50378,-0.31963 2.84827,-0.54112 2.84827,1.45371 v 73.80779 l 15.18726,-3.22815 3e-5,-81.66252 z" />
	<path
   id="듬_1_"
   class="st0"
   d="m 232.48566,168.74393 -64.56839,13.72444 v 6.28442 l 0.80055,-0.17017 c 4.22572,-0.89821 4.39182,-0.20708 4.39182,1.86324 v 13.15182 c 0,4.23444 3.28207,6.96947 7.33075,6.10889 l 46.34358,-9.85063 c 4.04868,-0.86057 7.33075,-4.99086 7.33075,-9.2253 v -20.52919 c 0,-0.94096 -0.72937,-1.54876 -1.62906,-1.35752 z m -16.04531,24.60518 -27.24458,5.791 v -11.93484 l 27.24458,-5.79102 z m 17.67432,-38.58878 5e-5,9.1534 -80.87865,17.19128 v -9.1534 z M 186.01918,141.9523 v 9.39378 l 48.09554,-10.22302 v 9.15334 l -55.73906,11.8477 c -4.4985,0.95619 -8.14526,-2.08273 -8.14528,-6.78763 l -3e-5,-10.90526 c 0,-1.88683 -0.1658,-2.45555 -4.38484,-1.55876 l -0.79933,0.16989 2e-5,-5.78543 69.06853,-14.68097 v 9.15335 z" />
	<path
   id="리_3_"
   class="st0"
   d="m 108.3624,114.04779 v 6.21528 l 1.78067,-0.37849 c 1.77267,-0.37679 3.39574,-0.72178 3.39574,1.59702 v 36.7077 c -2.6189,1.5394 -5.97282,2.83333 -10.10733,3.71214 l -24.4909,5.2057 V 155.8722 l 22.71075,-4.82733 c 1.13004,-0.24019 2.04612,-1.36874 2.04612,-2.52068 v -22.24403 c 0,-1.15194 -0.91608,-1.89105 -2.04612,-1.65086 l -42.59807,9.0545 v 9.60643 l 29.05351,-6.17551 v 7.55368 l -30.40387,6.46254 v 6.31961 l 0.71784,-0.15259 c 1.44965,-0.30814 3.59925,-0.76505 3.59921,1.38344 v 14.95424 c 0,3.6862 2.93145,6.05136 6.54759,5.28273 l 31.97902,-6.79732 c 5.99881,-1.27509 10.35291,-2.81885 12.99224,-4.21259 v 35.1951 l 16.47049,-3.5009 V 109.4466 Z" />
</g>
<path
   id="_x2122__00000057868710934149650670000013053363600395592096_"
   d="m 620.83519,251.75596 0.87716,-10.21208 -3.90747,0.83055 0.18852,-2.19444 10.33542,-2.19684 -0.18848,2.19444 -3.76664,0.80061 -0.87716,10.21208 z m 17.53784,-3.72775 0.89071,-10.36985 -3.26335,10.87416 -2.56978,0.54623 -1.42562,-9.87751 -0.89071,10.36983 -2.42896,0.51629 1.06624,-12.41369 3.79485,-0.80663 1.44242,9.36 0.0281,-0.006 3.07756,-10.32073 3.74556,-0.79615 -1.06624,12.41372 z"
   style="stroke-width:1.33333" />
<g
   id="Cogs_1_"
   transform="scale(1.3333334)">
	<g
   id="g5302">
		<path
   class="st6"
   d="m 456.08206,3.36581 c -2.09119,4e-5 -4.17969,0.14943 -6.2496,0.44706 -0.12457,0.0266 -0.24905,0.05373 -0.37341,0.08141 l -1.2912,5.06091 h 0.45364 c -5.08807,0.97721 -9.93115,2.95584 -14.24789,5.82093 l 0.15646,-0.15648 -4.52313,-2.53635 c -0.9198,0.6353 -1.815,1.30549 -2.68362,2.0091 -1.58066,1.36964 -3.06149,2.85044 -4.43112,4.43112 -0.76511,0.93821 -1.49109,1.90765 -2.17609,2.90586 l 2.60474,4.39165 0.30899,-0.30899 c -2.88284,4.33305 -4.87164,9.19804 -5.84985,14.30972 l -5.18454,1.45948 c -0.28033,1.98818 -0.42398,3.99324 -0.42996,6.00108 -3e-5,2.09161 0.14938,4.18055 0.44705,6.25087 0.0554,0.26701 0.11322,0.53351 0.17355,0.79945 l 5.10168,1.30302 V 55.1702 c 1.0148,4.95889 2.98276,9.67359 5.79462,13.88236 l -0.44971,-0.44968 -2.53113,4.51394 c 0.68927,1.00517 1.4201,1.9812 2.19058,2.92558 1.36963,1.58067 2.85043,3.06148 4.43109,4.43111 0.85834,0.69447 1.74255,1.35632 2.65079,1.98415 l 4.46002,-2.64684 -0.1893,-0.18931 c 4.43512,2.97681 9.43317,5.01333 14.68576,5.98395 h -1.13867 l 1.41083,5.01096 c 0.20963,0.04709 0.41956,0.09263 0.62982,0.13663 2.06992,0.29762 4.15842,0.44702 6.2496,0.44706 2.08896,-3.5e-4 4.17526,-0.14975 6.24298,-0.44706 l 1.31223,-5.14243 h -0.43256 c 5.33441,-0.98698 10.40506,-3.0732 14.88956,-6.12598 l 4.61255,2.58636 c 0.72778,-0.51078 1.43991,-1.04355 2.13535,-1.59757 1.58069,-1.36964 3.06149,-2.85045 4.43112,-4.43111 0.89005,-1.0779 1.72815,-2.19769 2.51138,-3.35554 l -2.67706,-4.51261 -0.042,0.04198 c 2.5928,-4.12923 4.39044,-8.70696 5.30023,-13.4971 l 5.22656,-1.47004 c 0.2713,-1.97738 0.4075,-3.97095 0.40762,-5.96685 -3.7e-4,-0.71825 -0.0183,-1.43639 -0.0539,-2.15375 -0.035,-0.71779 -0.0876,-1.4346 -0.15778,-2.14981 -0.0706,-0.71516 -0.15869,-1.42847 -0.26428,-2.13931 -0.0349,-0.20932 -0.0713,-0.41839 -0.10916,-0.62718 l -5.13718,-1.31226 v 0.04605 c -1.03116,-4.75599 -2.94107,-9.27768 -5.63159,-13.33276 l 0.0101,0.01015 2.59818,-4.63361 c -0.39615,-0.53162 -0.80432,-1.0542 -1.22412,-1.56734 -0.45596,-0.55581 -0.92551,-1.10032 -1.4082,-1.63307 -0.48242,-0.53233 -0.97784,-1.05273 -1.48581,-1.56075 -0.508,-0.5084 -1.02841,-1.00426 -1.56076,-1.48712 -0.53275,-0.48225 -1.07727,-0.95136 -1.63309,-1.40689 -0.5553,-0.45607 -1.12173,-0.89844 -1.69876,-1.32672 -0.11099,-0.07897 -0.22232,-0.15743 -0.33398,-0.23536 l -4.45477,2.64158 0.27481,0.27479 c -4.17139,-2.7721 -8.83649,-4.71697 -13.7417,-5.72888 h 0.0254 l -1.43845,-5.11089 c -0.0162,-0.0024 -0.0324,-0.00479 -0.0486,-0.00718 -0.71082,-0.10559 -1.42413,-0.19371 -2.13928,-0.26429 -0.71521,-0.07059 -1.43201,-0.12361 -2.14981,-0.15902 -0.7178,-0.0352 -1.4364,-0.05276 -2.15503,-0.05269 z"
   id="path5294" />
		<circle
   class="st7"
   cx="456.0827"
   cy="47.283051"
   r="31.05414"
   id="circle5296" />
		<path
   class="st8"
   d="m 456.08286,74.53582 c -15.02719,0 -27.25281,-12.22564 -27.25281,-27.25283 0,-15.02719 12.22562,-27.25282 27.25281,-27.25282 15.02719,0 27.25284,12.22564 27.25284,27.25282 0,15.02718 -12.22565,27.25283 -27.25284,27.25283 z m 0,-51.57087 c -13.40903,0 -24.31802,10.90902 -24.31802,24.31804 0,13.40902 10.909,24.31804 24.31802,24.31804 13.40902,0 24.31805,-10.90902 24.31805,-24.31804 0,-13.40902 -10.90903,-24.31804 -24.31805,-24.31804 z"
   id="path5298" />
		<circle
   class="st6"
   cx="456.0827"
   cy="47.283051"
   r="9.1579704"
   id="circle5300" />
	</g>
	<g
   id="g5312">
		<path
   class="st6"
   d="m 384.08255,0 c -1.53308,3e-5 -3.06424,0.10955 -4.58173,0.32775 -0.0913,0.0195 -0.18262,0.03939 -0.27377,0.05969 l -0.94662,3.7103 h 0.33258 c -3.73019,0.71642 -7.28082,2.16701 -10.44553,4.26749 l 0.11472,-0.11472 -3.31607,-1.85947 c -0.67429,0.46576 -1.3306,0.95709 -1.96741,1.47293 -1.15884,1.00412 -2.24448,2.08974 -3.2486,3.24858 -0.56091,0.68783 -1.09317,1.39855 -1.59534,2.13037 l 1.90961,3.21964 0.22653,-0.22653 c -2.11349,3.17668 -3.57156,6.74334 -4.2887,10.49086 l -3.80093,1.06999 c -0.20554,1.45759 -0.31085,2.92756 -0.31522,4.39956 -3e-5,1.53342 0.1095,3.06488 0.32776,4.58269 0.0406,0.19576 0.083,0.39114 0.1272,0.5861 l 3.7402,0.95529 v -0.34124 c 0.74399,3.63551 2.18674,7.09198 4.2482,10.17755 l -0.32968,-0.32967 -1.85565,3.30929 c 0.50531,0.73692 1.04114,1.45248 1.60596,2.14482 1.00412,1.15883 2.08975,2.24445 3.2486,3.24857 0.62924,0.50914 1.2775,0.99436 1.94333,1.45463 L 368.21177,56.044 368.073,55.9052 c 3.2515,2.18238 6.91571,3.67542 10.76654,4.387 h -0.83478 l 1.0343,3.67368 c 0.15369,0.03452 0.30759,0.06791 0.46176,0.10017 1.51749,0.21819 3.04865,0.32773 4.58173,0.32775 1.53149,-2.6e-4 3.061,-0.10978 4.5769,-0.32775 l 0.96204,-3.77006 h -0.31711 c 3.9108,-0.72359 7.62823,-2.25305 10.91595,-4.49113 l 3.38159,1.89613 c 0.53354,-0.37447 1.05563,-0.76506 1.56549,-1.17123 1.15881,-1.00412 2.24445,-2.08974 3.24857,-3.24858 0.65253,-0.79024 1.26694,-1.61119 1.84116,-2.46004 l -1.96262,-3.30833 -0.0308,0.03078 c 1.90088,-3.02725 3.21878,-6.38332 3.88574,-9.89511 l 3.83176,-1.07773 c 0.19891,-1.44967 0.29877,-2.91122 0.29883,-4.37447 -2.4e-4,-0.52657 -0.0135,-1.05305 -0.0396,-1.57897 -0.0256,-0.52623 -0.0642,-1.05175 -0.11563,-1.57609 -0.0518,-0.5243 -0.11636,-1.04725 -0.19376,-1.56838 -0.0256,-0.15346 -0.0522,-0.30673 -0.08,-0.4598 l -3.7662,-0.96206 v 0.03376 c -0.75598,-3.48675 -2.15619,-6.80173 -4.12866,-9.77462 l 0.007,0.0074 1.90479,-3.39703 c -0.29041,-0.38974 -0.58966,-0.77286 -0.89743,-1.14906 -0.33429,-0.40748 -0.67853,-0.80668 -1.03241,-1.19725 -0.35367,-0.39027 -0.71689,-0.77179 -1.08926,-1.14423 C 406.47645,9.05723 406.09492,8.6937 405.70466,8.3397 405.31407,7.98614 404.91487,7.64223 404.50739,7.30827 404.10025,6.97391 403.685,6.6496 403.26197,6.33562 403.18057,6.27772 403.09898,6.2202 403.0171,6.16307 l -3.2659,1.93662 0.20148,0.20146 c -3.05817,-2.0323 -6.4783,-3.45814 -10.07443,-4.2 h 0.0186 L 388.8427,0.35425 C 388.8308,0.35249 388.819,0.35074 388.8071,0.34899 388.28597,0.27158 387.76302,0.20698 387.2387,0.15523 386.71438,0.10348 386.18886,0.06461 385.66262,0.03865 385.13637,0.01284 384.60958,-3e-5 384.08269,2e-5 Z"
   id="path5304" />
		<circle
   class="st7"
   cx="384.08304"
   cy="32.19696"
   r="22.766661"
   id="circle5306" />
		<path
   class="st8"
   d="m 384.08334,52.17649 c -11.01685,0 -19.97986,-8.96258 -19.97986,-19.97942 0,-11.01684 8.96301,-19.97985 19.97986,-19.97985 11.01682,0 19.97897,8.96301 19.97897,19.97985 0,11.01684 -8.96215,19.97942 -19.97897,19.97942 z m 0,-37.80814 c -9.83084,0 -17.82874,7.9979 -17.82874,17.82873 0,9.83039 7.99789,17.82829 17.82874,17.82829 9.82993,0 17.82785,-7.99791 17.82785,-17.82829 0,-9.83083 -7.99792,-17.82873 -17.82785,-17.82873 z"
   id="path5308" />
		<circle
   class="st6"
   cx="384.08304"
   cy="32.19696"
   r="6.7139602"
   id="circle5310" />
	</g>
</g>
<g
   id="Pilers_1_"
   transform="matrix(6.2156614,0,0,-6.2156614,-757.50936,1106.005)">
	<path
   class="st5"
   d="m 169.78708,161.81813 c -2.04869,-1.37535 -4.50641,-4.84512 -4.40616,-6.02411 0.72977,-0.063 2.46326,0.67393 4.01189,1.73065 0.96246,0.65674 1.85352,1.43704 2.38792,2.22559 z m 0.13545,-1.18376 0.74541,-0.70088 -0.97966,-0.29456 z m -1.72046,-1.82993 c 0.2476,1.2e-4 0.44843,-0.20494 0.44855,-0.45802 0,-9e-5 0,-1.7e-4 0,-2.6e-4 3e-5,-0.25308 -0.20068,-0.45825 -0.44829,-0.45828 -9e-5,0 -1.7e-4,0 -2.6e-4,0 -0.24754,1.4e-4 -0.44812,0.20528 -0.44809,0.45828 -3e-5,0.25301 0.20055,0.45815 0.44809,0.45828 z"
   id="path5315" />
	<path
   class="st9"
   d="m 177.69768,171.43758 c -5.62657,-1.30733 -8.69127,-10.00723 -8.69127,-10.00723 l 0.93607,-1.5034 c 0.0221,-0.0102 1.50993,-0.91141 1.50993,-0.91141 0,0 8.66611,3.15935 9.91214,8.79982 0,0 0.0292,0.89165 -0.54364,0.96065 -0.69553,0.0838 -0.98291,-0.27554 -0.98291,-0.27554 -2.98706,-6.21135 -6.49881,-6.23239 -8.52968,-7.34068 1.08484,2.04381 0.91583,5.70576 7.09125,8.7587 0,0 0.35622,0.29111 0.26488,0.98569 -0.0752,0.57214 -0.96667,0.53343 -0.96667,0.53343 z"
   id="path5317" />
</g>
<path
   id="Wrench_1_"
   class="st10"
   d="m 129.03053,60.96263 c -13.71856,9.46e-4 -24.83942,11.121774 -24.84038,24.840334 0.007,3.663854 0.82343,7.280867 2.39211,10.591894 L 20.874348,193.19748 c -0.655574,-0.0821 -1.314987,-0.12976 -1.975547,-0.1428 C 8.4612938,193.05464 2.6666688e-5,201.51588 0,211.95338 v 4e-5 c -1.3333314e-5,10.4375 8.4612271,18.89879 18.898721,18.89879 2.7e-5,0 5.3e-5,0 6.7e-5,0 10.437493,0 18.898761,-8.46127 18.898774,-18.89875 v -4e-5 c -0.01523,-1.42149 -0.190787,-2.83673 -0.52336,-4.21886 l 86.517218,-97.71303 c 1.71933,0.39369 3.47569,0.60312 5.23939,0.62481 13.71989,6.7e-4 24.84262,-11.120975 24.84329,-24.840856 0,-8.4e-4 0,-0.0017 0,-0.0025 -0.003,-5.13244 -1.595,-10.13804 -4.55807,-14.328774 l -1.2615,12.549574 -13.02267,5.867187 -11.59453,-8.342587 1.42813,-14.212734 11.60645,-5.22752 c -2.40777,-0.757654 -4.91694,-1.143907 -7.4411,-1.145467 z M 18.898788,205.73814 c 3.432333,6.6e-4 6.214627,2.78296 6.215267,6.21527 0.001,3.43327 -2.781374,6.21728 -6.214627,6.21827 -2.14e-4,0 -4.27e-4,0 -6.4e-4,0 -3.433254,-6.2e-4 -6.215934,-2.78435 -6.215294,-6.21762 0,-2.2e-4 0,-4.2e-4 0,-6.5e-4 6.53e-4,-3.43235 2.78296,-6.21465 6.215294,-6.21527 z"
   style="stroke-width:1.33333" />
</svg>
