<?xml version="1.0" encoding="UTF-8" standalone="no"?>
<!-- Created with Inkscape (http://www.inkscape.org/) -->

<svg
   width="666.66669"
   height="499.49347"
   viewBox="0 0 176.38889 132.15765"
   version="1.1"
   id="svg8"
   inkscape:version="1.2.2 (b0a8486541, 2022-12-01)"
   sodipodi:docname="Rhythm World The Best+ More Of The Best (리듬 세상 더・베스트＋ 최고・중・더・베스트) Logo.svg"
   xmlns:inkscape="http://www.inkscape.org/namespaces/inkscape"
   xmlns:sodipodi="http://sodipodi.sourceforge.net/DTD/sodipodi-0.dtd"
   xmlns:xlink="http://www.w3.org/1999/xlink"
   xmlns="http://www.w3.org/2000/svg"
   xmlns:svg="http://www.w3.org/2000/svg"
   xmlns:rdf="http://www.w3.org/1999/02/22-rdf-syntax-ns#"
   xmlns:cc="http://creativecommons.org/ns#"
   xmlns:dc="http://purl.org/dc/elements/1.1/">
  <defs
     id="defs2">
    <polygon
       points="380.85501,221.03932 341.60367,229.38237 340.30627,244.21172 379.55762,235.86861 "
       id="SVGID_00000031192527359912055960000000281817532730827915_" />
  </defs>
  <sodipodi:namedview
     id="base"
     pagecolor="#ffffff"
     bordercolor="#666666"
     borderopacity="1.0"
     inkscape:pageopacity="0.0"
     inkscape:pageshadow="2"
     inkscape:zoom="15.839192"
     inkscape:cx="531.62435"
     inkscape:cy="265.92266"
     inkscape:document-units="px"
     inkscape:current-layer="_xFF0B__00000056395581847974458240000013596147261622108290_"
     showgrid="false"
     units="px"
     fit-margin-top="0"
     fit-margin-left="0"
     fit-margin-right="0"
     fit-margin-bottom="0"
     inkscape:window-width="2560"
     inkscape:window-height="1404"
     inkscape:window-x="2560"
     inkscape:window-y="0"
     inkscape:window-maximized="1"
     inkscape:showpageshadow="0"
     inkscape:pagecheckerboard="0"
     inkscape:deskcolor="#d1d1d1" />
  <metadata
     id="metadata5">
    <rdf:RDF>
      <cc:Work
         rdf:about="">
        <dc:format>image/svg+xml</dc:format>
        <dc:type
           rdf:resource="http://purl.org/dc/dcmitype/StillImage" />
        <dc:title />
      </cc:Work>
    </rdf:RDF>
  </metadata>
  <g
     inkscape:label="Layer 1"
     inkscape:groupmode="layer"
     id="layer1"
     transform="translate(92.982145,-66.234807)">
    <g
       id="g988"
       transform="matrix(0.35277778,0,0,0.35277778,-92.982145,66.234807)">
      <g
         id="Cloud_00000089551920205542769720000006095197863447250065_">
        <path
           d="m 400.98834,194.92769 c 45.3877,0 82.31348,-36.92529 82.31348,-82.31249 0,-45.3872 -36.92578,-82.3125 -82.31348,-82.3125 -18.97461,0 -37.24805,6.57178 -51.80566,18.35791 -13.72949,-9.62451 -30.05664,-14.81494 -47.13281,-14.81494 -36.06836,0 -67.01369,23.09131 -78.02785,55.97314 -7.18359,-2.00098 -14.64746,-3.03271 -22.14209,-3.03271 -15.2666,0 -30.08545,4.21973 -42.92285,12.07275 -15.41943,-16.48486 -36.9912,-25.99854 -60.05322,-25.99854 -45.38721,0 -82.3125,36.92529 -82.3125,82.31249 0,26.67676 12.85303,50.86816 33.14404,66.02051 -13.40283,10.76562 -22.01123,27.27832 -22.01123,45.69435 0,12.71094 3.99365,24.69238 11.1831,34.5293 -8.69824,7.71387 -14.1167,18.96484 -14.1167,31.33887 -4.9e-4,11.18164 4.354,21.69531 12.26123,29.60254 7.90723,7.90625 18.42041,12.26172 29.60254,12.26172 11.72754,0 22.72314,-4.93945 30.5127,-13.21973 3.20605,0.77637 6.51074,1.17383 9.85107,1.17383 0.002,0 0.002,0 0.004,0 9.25342,0 18.20898,-3.08887 25.46386,-8.64258 2.40967,0.0391 4.80176,-0.13574 7.16406,-0.51074 5.4541,2.5127 11.39746,3.82129 17.48633,3.82129 11.13086,0 21.62549,-4.38965 29.37842,-12.03809 5.21045,-0.14648 10.2998,-1.25488 15.04883,-3.25781 3.79541,1.10352 7.74902,1.6748 11.70459,1.6748 8.52637,0 16.7002,-2.55371 23.61133,-7.29199 5.93994,0.2002 11.80469,-0.86328 17.21875,-3.07715 4.52052,1.62402 9.31154,2.46582 14.16994,2.46582 9.02246,0 17.60938,-2.85352 24.69238,-8.0459 3.80664,1.11621 7.77246,1.69043 11.78516,1.69043 10.50391,0 20.5332,-4.00488 28.14648,-10.9043 3.47461,0.91992 7.07227,1.39062 10.71094,1.39062 23.08398,0 41.86426,-18.7793 41.86426,-41.86328 0,-1.77246 -0.11035,-3.5293 -0.32812,-5.2666 12.83105,-11.6123 20.25293,-28.08498 20.25293,-45.74513 0,-9.84082 -2.32422,-19.44141 -6.7666,-28.11328 0.27734,-1.30859 0.50977,-2.62598 0.69531,-3.94922 0.55566,0.0108 1.11133,0.0166 1.66699,0.0166 z"
           id="Black_00000003797801488505143480000002349906565107379082_"
           inkscape:connector-curvature="0" />
        <path
           d="m 400.98834,38.54977 c -19.23926,0 -37.67969,7.51025 -51.43652,20.78223 -13.30762,-11.15723 -29.96484,-17.23926 -47.50195,-17.23926 -35.2998,0 -65.14748,24.57861 -72.39406,58.33594 -8.78223,-3.54492 -18.24902,-5.39551 -27.77588,-5.39551 -16.09668,0 -31.63965,5.21289 -44.40918,14.79102 -13.9917,-18.09131 -35.44677,-28.7168 -58.56689,-28.7168 -40.83985,0 -74.06543,33.22559 -74.06543,74.06542 0,28.37451 16.15283,53.62109 40.42285,66.00488 -17.26416,8.01074 -29.29004,25.5293 -29.29004,45.70998 0,13.85059 5.51807,26.69238 15.15771,36.04883 -10.82617,5.64355 -18.09131,16.97852 -18.09131,29.81934 -4.9e-4,8.97949 3.49609,17.4209 9.8457,23.77051 6.34961,6.34961 14.7915,9.84668 23.771,9.84668 11.14258,0 21.46289,-5.55273 27.66992,-14.53516 4.00928,1.63867 8.3125,2.48926 12.69482,2.48926 10e-4,0 0.002,0 0.003,0 8.41113,0 16.51611,-3.17871 22.68163,-8.81055 3.74756,0.38379 7.51074,0.12891 11.14014,-0.73047 4.9707,2.76074 10.55078,4.20898 16.29248,4.20898 10.06055,0 19.47461,-4.4668 25.83105,-12.10547 6.36621,0.45996 12.56299,-0.89355 18.07129,-3.81543 3.8877,1.52734 7.98828,2.2998 12.22949,2.2998 7.76855,0 15.17188,-2.64062 21.14453,-7.48926 1.27783,0.14648 2.56641,0.2207 3.85449,0.2207 5.4917,0 10.83301,-1.32422 15.63574,-3.85352 4.46974,2.11328 9.37306,3.21875 14.36525,3.21875 8.67578,0 16.85059,-3.28809 23.05176,-9.15137 4.21582,1.83789 8.78125,2.7959 13.42578,2.7959 10.02344,0 19.51074,-4.54395 25.84277,-12.13281 4.09961,1.72363 8.51758,2.62012 13.01465,2.62012 18.53613,0 33.61719,-15.08105 33.61719,-33.61719 0,-2.89355 -0.36426,-5.7373 -1.08496,-8.49609 13.2334,-10.10938 21.00977,-25.6924 21.00977,-42.51564 0,-9.52148 -2.50977,-18.78223 -7.2832,-26.95312 1.18555,-4.33008 1.78516,-8.78662 1.78516,-13.28467 0,-0.21387 -0.002,-0.42822 -0.005,-0.64258 3.09473,0.39062 6.21875,0.5874 9.3457,0.5874 40.83984,0 74.06641,-33.22559 74.06641,-74.06542 0,-40.83983 -33.22655,-74.06542 -74.0664,-74.06542 z"
           class="st0"
           id="Blue"
           inkscape:connector-curvature="0"
           style="fill:#4087da" />
        <path
           d="m 400.98877,44.28671 c -20.36035,0 -38.63715,8.90851 -51.15521,23.03638 C 337.51258,55.26572 320.651,47.82956 302.05005,47.82956 c -35.26398,-6e-5 -64.28523,26.71454 -67.93782,61.00934 -9.60223,-5.14697 -20.57538,-8.06903 -32.23224,-8.06903 -17.49292,0 -33.44763,6.57678 -45.53448,17.38837 C 144.1798,99.3176 122.99933,86.84409 98.90393,86.84409 c -37.73682,0 -68.32849,30.59167 -68.32849,68.32848 0,33.31573 23.84534,61.05731 55.39886,67.1015 -24.47937,0.19238 -44.26618,20.08856 -44.26624,44.6133 0,16.20068 8.63452,30.38336 21.55164,38.20111 -13.79547,1.67596 -24.48541,13.41937 -24.48547,27.66718 -6e-5,15.39789 12.48236,27.88037 27.88025,27.88043 11.30511,6e-5 21.03137,-6.73248 25.4071,-16.40344 4.32306,2.75488 9.45184,4.3576 14.95801,4.3576 8.1958,6e-5 15.56488,-3.53699 20.66608,-9.16705 1.75085,0.34442 3.55895,0.5293 5.41076,0.5293 3.00311,0 5.89276,-0.48047 8.60315,-1.35913 4.42029,2.94525 9.72717,4.66486 15.43719,4.66486 9.69885,0 18.23749,-4.95483 23.23212,-12.46881 1.60803,0.28845 3.26105,0.44739 4.95209,0.44739 5.67352,0 10.94812,-1.69904 15.35144,-4.60974 3.78436,1.92053 8.06177,3.00989 12.59607,3.00989 7.52802,0 14.35419,-2.98877 19.37048,-7.83795 1.81799,0.37268 3.70032,0.56866 5.62848,0.56866 5.73456,0 11.06329,-1.73334 15.49493,-4.70178 4.22621,2.58008 9.19215,4.06781 14.50606,4.06781 8.83484,6e-5 16.70422,-4.11401 21.81238,-10.52563 4.26086,2.64105 9.28351,4.1698 14.66504,4.1698 10.25,6e-5 19.20239,-5.53503 24.04657,-13.77551 4.29205,2.69739 9.36725,4.26324 14.81079,4.26324 15.39789,6e-5 27.88037,-12.48236 27.88043,-27.88025 0,-3.80463 -0.76459,-7.42999 -2.14441,-10.73431 13.26752,-8.49542 22.06934,-23.35365 22.06934,-40.27718 0,-9.64966 -2.86865,-18.62482 -7.78589,-26.138 1.47601,-4.43341 2.28723,-9.17053 2.28723,-14.09985 0,-2.59839 -0.23468,-5.14056 -0.66089,-7.61719 5.05347,1.19147 10.32239,1.82495 15.73975,1.82495 37.73682,0 68.32849,-30.59167 68.32855,-68.32848 -1e-5,-37.73685 -30.59174,-68.32858 -68.32856,-68.32858 z"
           id="Black"
           inkscape:connector-curvature="0" />
      </g>
      <g
         id="_xFF0B__00000056395581847974458240000013596147261622108290_">
        <g
           id="_xFF0B__00000058571036847684199030000004386151434644848528_">
          <polygon
             id="polygon821"
             points="420.33762,277.71548 423.81949,237.91736 463.07068,229.57426 466.41074,191.39699 427.15961,199.74008 430.64145,159.94196 374.39679,171.89713 370.91492,211.69525 331.66312,220.0385 328.32306,258.21573 367.5748,249.87253 364.09296,289.67065 " />
          <polygon
             id="polygon823"
             points="411.56671,269.47089 415.04861,229.67259 454.30002,221.32951 455.83774,203.75331 416.5863,212.09645 420.06824,172.29816 383.16748,180.14172 379.68561,219.93996 340.43423,228.2831 338.89648,245.85924 378.14783,237.5161 374.66595,277.31439 "
             class="st1"
             style="fill:#404040" />
          <linearGradient
             gradientTransform="translate(0.0289,-0.02789)"
             y2="204.22514"
             x2="453.961"
             y1="245.44316"
             x1="340.71542"
             gradientUnits="userSpaceOnUse"
             id="SVGID_1_">
            <stop
               id="stop825"
               style="stop-color:#828282"
               offset="0" />
            <stop
               id="stop827"
               style="stop-color:#707070"
               offset="0.26997" />
            <stop
               id="stop829"
               style="stop-color:#414141"
               offset="1" />
          </linearGradient>
          <polygon
             id="polygon832"
             points="410.39728,268.37158 413.87918,228.5733 453.13055,220.23016 454.42798,205.40083 415.17654,213.74397 418.65845,173.94568 384.33691,181.24095 380.85498,221.03929 341.60367,229.38237 340.30627,244.21172 379.55759,235.86858 376.07571,275.66693 "
             class="st2"
             style="fill:url(#SVGID_1_)" />
          <g
             id="g857">
            <defs
               id="defs835">
              <polygon
                 points="341.60367,229.38237 340.30627,244.21172 379.55762,235.86861 380.85501,221.03932 "
                 id="polygon932" />
            </defs>
            <clipPath
               id="SVGID_00000096060755425912060190000004919578819277048715_">
              <use
                 id="use837"
                 style="overflow:visible"
                 xlink:href="#SVGID_00000031192527359912055960000000281817532730827915_"
                 x="0"
                 y="0"
                 width="100%"
                 height="100%" />
            </clipPath>
            <radialGradient
               gradientUnits="userSpaceOnUse"
               gradientTransform="matrix(0.79604,0,0,0.79604,67.02513,13.93947)"
               r="34.194019"
               cy="267.37909"
               cx="350.14499"
               id="SVGID_00000057113145103658238700000015537794413382980534_">
              <stop
                 id="stop840"
                 style="stop-color:#FFFFFF"
                 offset="0.1" />
              <stop
                 id="stop842"
                 style="stop-color:#F5F5F5"
                 offset="0.13922" />
              <stop
                 id="stop844"
                 style="stop-color:#C5C5C5"
                 offset="0.34461" />
              <stop
                 id="stop846"
                 style="stop-color:#9F9F9F"
                 offset="0.53977" />
              <stop
                 id="stop848"
                 style="stop-color:#848484"
                 offset="0.71959" />
              <stop
                 id="stop850"
                 style="stop-color:#747474"
                 offset="0.87853" />
              <stop
                 id="stop852"
                 style="stop-color:#6E6E6E"
                 offset="1" />
            </radialGradient>
            <path
               id="path855"
               clip-path="url(#SVGID_00000096060755425912060190000004919578819277048715_)"
               d="m 345.44046,201.42584 c -13.53604,0 -24.60794,11.61974 -25.56458,25.12193 -1.11649,15.75816 11.26685,28.95985 26.82242,29.09564 l 27.36389,-2e-5 c 0,0 0.41068,-19.72594 0.41068,-20.10934 0,-3.36703 -1.93994,-34.10821 -29.03241,-34.10821 z"
               style="fill:url(#SVGID_00000057113145103658238700000015537794413382980534_)"
               inkscape:connector-curvature="0" />
          </g>
        </g>
        <path
           d="m 404.80054,248.9826 -1.98218,4.33612 c -4.30612,0.44861 -8.22888,-2.37328 -8.22888,-2.37328 0,0 -4.4166,4.40697 -8.62039,6.33107 l -2.11316,-3.34981 c 0,0 8.1694,-4.0242 8.51758,-8.07785 l 0.15045,-1.25853 c 0.0622,-0.724 -0.38593,-0.72305 -0.96808,-0.59932 l -0.58472,0.1243 0.19644,-2.28734 6.42902,-1.36652 -0.40546,4.22728 c -0.37594,4.37715 7.60938,4.29388 7.60938,4.29388 z m -23.06171,12.00367 -0.28128,3.27463 24.17535,-5.13861 0.28128,-3.2746 z"
           class="st4"
           id="스_00000078015374610409626770000007009331408264224169_"
           inkscape:connector-curvature="0"
           style="fill:#d8d8d8" />
        <path
           d="m 397.0639,232.42329 c 1.32385,-0.28139 2.70563,-0.81375 3.57269,-1.32393 l -0.28308,3.29572 c -0.86923,0.46091 -2.57123,1.06085 -4.49203,1.46912 l -8.86829,1.88501 c -1.15787,0.24611 -2.00977,-0.56366 -1.90283,-1.80867 l 0.43384,-5.05086 c 0.0623,-0.72563 -0.62598,-0.57933 -1.09012,-0.48068 l -0.22983,0.0489 0.18332,-2.13448 10.42056,-2.21494 0.21912,-2.55127 -9.98819,2.12303 0.27591,-3.21225 14.32419,-3.02409 c 0.36142,-0.0763 0.62708,0.17674 0.59369,0.56543 l -0.64072,7.45964 c -0.0334,0.38905 -0.35382,0.76683 -0.7157,0.84375 l -7.27173,1.54564 -0.32593,3.79463 z m 6.22321,-17.34806 -0.21393,2.49081 0.44315,-0.0942 c 0.44119,-0.0938 0.84506,-0.17963 0.79324,0.42398 l -0.39786,4.63185 -3.05139,0.64859 -0.34744,4.04497 3.05139,-0.64859 -1.1673,13.59061 4.78452,-1.01697 2.17841,-25.36185 z"
           class="st4"
           id="러_00000066493390397933580190000012156774318227192732_"
           inkscape:connector-curvature="0"
           style="fill:#d8d8d8" />
        <path
           d="m 395.65199,192.07112 7.68113,-1.63255 -0.15775,1.8295 -7.68113,1.63256 z m 11.31027,0.35657 0.32576,-3.79436 2.61078,-0.55445 0.19415,-2.25888 -20.64447,4.38801 -0.19416,2.25888 2.60985,-0.55445 -0.32483,3.79342 -3.2231,0.68513 -0.19322,2.25888 21.86726,-4.64843 0.19415,-2.25982 z m 5.59399,2.34289 -27.22976,5.78814 -0.23149,2.69759 27.22976,-5.78721 z m -3.73275,12.81867 -0.23429,2.73025 -17.95622,3.81676 c -1.98819,0.42191 -2.67145,0.0205 -2.56971,-1.16117 l 0.14095,-1.64376 c 0.0439,-0.51338 -0.0112,-0.63379 -0.6142,-0.50498 l -0.52271,0.11108 0.21095,-2.4661 16.62797,-3.53487 0.12881,-1.50654 -16.09965,3.42193 0.25296,-2.93748 20.07042,-4.25173 c 0.46858,-0.0999 0.82514,0.0961 0.77381,0.68793 l -0.42098,4.89952 c -0.0243,0.27536 -0.45644,0.9717 -0.92595,1.07251 l -14.23094,3.02428 -0.13255,1.53641 z"
           style="fill:#d8d8d8;fill-opacity:1;fill-rule:nonzero;stroke:none;stroke-width:0.933421"
           id="path16105"
           inkscape:label="플" />
      </g>
      <g
         id="리듬_세상_더_x30FB_베스트_최고_x30FB_중_x30FB_더_x30FB_베스트">
        <path
           d="m 340.47098,268.40872 3e-5,3.07971 15.60559,-3.31702 v 4.38037 l -15.60562,3.31702 v 3.20459 l 15.60562,-3.31702 v 4.00284 l -19.11887,4.06378 c -1.57727,0.33527 -2.96036,-0.94202 -2.96036,-2.90979 l 6e-5,-11.64655 c 0,-0.78912 -0.12228,-1.01575 -1.43298,-0.73715 l -0.2803,0.0596 6e-5,-2.76382 23.79242,-5.05713 v 4.32358 z m -12.07938,21.42578 -3e-5,4.14487 32.00204,-6.80212 v -4.14487 z"
           class="st0"
           id="트_00000077281834563123229200000017149341814275803029_"
           inkscape:connector-curvature="0"
           style="fill:#4087da" />
        <path
           d="m 319.84021,282.18109 -2.21689,5.12402 c -6.03217,0.46494 -10.84293,-3.76572 -10.84293,-3.76572 0,0 -4.85901,5.98828 -11.18506,8.70181 l -2.83514,-4.16568 c 0,0 10.5448,-4.99527 10.5448,-10.21021 l 3e-5,-2.72446 c 0,-0.93143 -0.60159,-0.92712 -1.36896,-0.76401 l -0.6864,0.14587 v -2.60251 l 7.98428,-1.69711 v 5.84546 c -2e-5,5.63116 10.60627,6.11254 10.60627,6.11254 z m -29.37729,15.4516 v 4.21271 l 31.8674,-6.7735 3e-5,-4.21274 z"
           class="st0"
           id="스_00000021114047478053965760000015203257309319483043_"
           inkscape:connector-curvature="0"
           style="fill:#4087da" />
        <path
           d="m 282.96378,275.60001 -6e-5,31.31903 -5.9371,1.26199 9e-5,-26.98148 c 0,-0.76508 -0.4653,-1.06366 -1.08212,-0.93256 l -0.59341,0.12616 v -3.17505 z m -15.35837,7.86236 0.43866,-0.0932 c 0.58105,-0.1235 1.07767,0.0521 1.07764,0.77728 v 2.84036 l -4.07941,0.8671 3e-5,-6.18719 -7.20471,1.5314 -3e-5,3.2453 0.21072,-0.0448 c 0.58105,-0.1235 1.35916,-0.084 1.35916,0.6412 v 2.01178 l -3.79703,0.8071 2e-5,-6.18723 -7.08925,1.50687 -2e-5,3.19757 0.26634,-0.0566 c 0.58105,-0.12347 1.43369,-0.14981 1.43369,0.57544 l -5e-5,12.8457 c 0,1.29227 0.86494,1.99338 2.11157,1.72842 l 12.70952,-2.70145 3e-5,-8.31018 4.07941,-0.8671 -9e-5,18.27106 5.44571,-1.15744 6e-5,-29.99088 -6.96198,1.47983 v 3.26967 z m -8.19797,13.89588 -3.79701,0.80707 2e-5,-3.70328 3.79703,-0.80707 z"
           class="st0"
           id="베_00000164512066940575817040000016327266625293352884_"
           inkscape:connector-curvature="0"
           style="fill:#4087da" />
        <polygon
           points="241.66257,300.85504 241.05728,297.66187 243.50497,294.78906 240.09592,295.02902 238.55147,292.33499 237.04982,295.67648 233.64763,296.88425 236.1286,298.70947 235.57036,302.14996 238.60538,299.93649 "
           class="st0"
           id="_x2605__00000029017762659403263770000015301831063736932519_"
           style="fill:#4087da" />
        <path
           d="m 226.7045,285.94745 -6e-5,29.71579 -5.60745,1.19186 5e-5,-14.83679 -6.47336,1.37595 2e-5,-4.91833 6.47337,-1.37595 2e-5,-6.03314 c 0,-0.70724 -0.78893,-0.59818 -1.36505,-0.47574 l -0.22653,0.0482 v -3.16162 z m -30.19576,9.31247 18.11496,-3.85046 -2e-5,4.44269 -10.00661,2.12695 -3e-5,10.03903 10.00662,-2.12695 -2e-5,4.2186 -11.56407,2.45798 c -3.49976,0.7439 -4.80103,-0.21982 -4.80099,-3.40363 l 2e-5,-9.92902 c 0,-1.2417 -0.1813,-1.55045 -1.29176,-1.54114 l -0.45811,0.004 z"
           class="st0"
           id="더_00000115493653969227081530000017591786921439534768_"
           inkscape:connector-curvature="0"
           style="fill:#4087da" />
        <polygon
           points="188.69507,309.72867 188.08978,306.53549 190.53748,303.66269 187.12842,303.90265 185.58397,301.20862 184.08232,304.55011 180.68013,305.75787 183.1611,307.5831 182.60286,311.02359 185.63788,308.81012 "
           class="st0"
           id="_x2605__00000001635147849333348070000007014125154308053654_"
           style="fill:#4087da" />
        <path
           d="m 162.37173,324.51011 c 0,-0.86501 -0.14003,-2.28402 -2.12801,-2.26403 -1.93702,0.0198 -3.72003,1.72303 -3.72003,4.07604 0,2.26905 1.40101,2.28504 2.08802,2.29204 2.02702,0.0227 3.76002,-1.98604 3.76002,-4.10405 m -0.0198,-7.25109 v 1.74401 c 0.44901,0.0499 0.88501,0.11509 1.29202,0.20807 2.87503,0.65501 3.85603,2.73804 3.85603,4.75407 0,2.25802 -1.15601,4.20105 -3.42003,5.84205 -2.02603,1.46703 -4.06005,2.42903 -7.43906,2.17904 -2.06803,-0.15392 -3.59003,-0.26589 -4.61705,-2.62604 -0.33501,-0.77002 -0.50299,-1.57101 -0.50299,-2.38003 0,-2.24603 1.13101,-4.21806 3.37303,-5.84908 0.606,-0.44099 1.19499,-0.77801 1.774,-1.071 v -1.59303 l -11.01409,2.34204 v -4.22804 L 173.367,310.692 v 4.22606 z m -6.61706,-12.66016 c 0,-0.74501 -0.0621,-0.945 -1.18999,-0.70501 l -6.89307,1.46502 v -4.07004 l 23.5492,-5.00508 v 4.06907 l -6.94605,1.47602 c -1.09203,0.23301 -1.19102,0.494 -1.19102,1.21199 0,2.62506 8.13707,2.01404 8.13707,2.01404 l -1.928,4.63904 c -5.24505,0.37203 -10.11309,-2.68002 -10.11309,-2.68002 0,0 -3.54104,4.56806 -9.04209,6.98108 l -2.46602,-3.80904 c 0,0 8.08306,-2.83205 8.08306,-5.58707"
           style="fill:#4087da;fill-opacity:1;fill-rule:nonzero;stroke:none;stroke-width:1.00001"
           id="path76"
           inkscape:label="중" />
        <polygon
           points="138.57344,311.55466 135.16438,311.79459 133.61993,309.10056 132.11829,312.44205 128.71608,313.64984 131.19705,315.47507 130.63882,318.91556 133.67383,316.70209 136.73103,317.62064 136.12575,314.42746 "
           class="st0"
           id="_x2605__00000077309493615729806800000015787214707332370104_"
           style="fill:#4087da"
           transform="translate(4.1905773e-4,2.2589377)" />
        <path
           d="m 110.507,328.59175 v -10.505 l -7.285,1.548 v 3.039 l 0.568,-0.121 c 0.591,-0.125 1.036,0.16 1.036,0.893 v 6.354 l -12.246001,2.603 v 4.308 l 31.831001,-6.765 v -4.309 z m 5.417,-16.21 -19.261002,4.095 v -4.495 l 24.665002,-5.243 c 0,4.946 0.046,11.072 -0.689,16.408 l -5.472,1.163 c 0.48,-4.029 0.757,-8.629 0.757,-11.928"
           style="fill:#4087da;fill-opacity:1;fill-rule:nonzero;stroke:none"
           id="path84"
           inkscape:label="고_00000029735190257411484000000016503983471510966158_" />
        <path
           d="m 78.073249,312.8905 v 3.003 l 0.561,-0.119 c 0.584,-0.124 1.024,0.158 1.024,0.882 v 21.782 l -10.52,2.236 v -5.916 l -7.284,1.549 v 3.038 l 0.568,-0.12 c 0.59,-0.126 1.035,0.16 1.035,0.892 v 1.764 l -10.453999,2.223 v 4.076 l 26.654999,-5.666 v 3.782 l 5.616,-1.193 v -33.744 z m -16.324,15.033 c 0,-0.887 -0.064,-1.158 -1.287999,-0.897 l -7.458,1.585 v -4.409 l 9.814999,-2.087 v -1.233 c 0,-0.732 -0.446,-1.018 -1.036,-0.892 l -0.567999,0.12 v -3.038 l 7.284999,-1.548 v 5.384 l 9.984,-2.122 v 4.409 l -7.516,1.597 c -1.182,0.251 -1.288,0.568 -1.288,1.446 0,3.208 8.804,2.703 8.804,2.703 l -1.83,5.171 c -5.676,0.299 -11.199,-3.136 -11.199,-3.136 0,0 -4.157999,4.88 -10.110999,7.665 l -2.34,-4.284 c 0,0 8.745999,-3.068 8.745999,-6.434"
           style="fill:#4087da;fill-opacity:1;fill-rule:nonzero;stroke:none"
           id="path88"
           inkscape:label="최_00000085227503644805587680000002490893886911563681_" />
        <path
           d="m 289.91727,213.51376 3e-5,4.92905 24.97672,-5.30893 v 7.01076 l -24.97672,5.30894 -3e-5,5.12895 24.97675,-5.30893 v 6.40654 l -30.59964,6.50412 c -2.52444,0.53658 -4.73804,-1.50771 -4.73804,-4.6571 l 3e-5,-18.64027 c 0,-1.26297 -0.19571,-1.62569 -2.29349,-1.17979 l -0.44858,0.0953 3e-5,-4.42349 38.07968,-8.09402 v 6.91989 z m -19.33295,34.2919 v 6.63388 l 51.21909,-10.88687 3e-5,-6.63388 z"
           class="st0"
           id="트"
           inkscape:connector-curvature="0"
           style="fill:#4087da" />
        <path
           d="m 256.89786,235.55658 -3.5481,8.20097 c -9.65448,0.74413 -17.35408,-6.02701 -17.35408,-6.02701 0,0 -7.77679,9.58423 -17.90161,13.9272 l -4.53764,-6.66716 c 0,0 16.87686,-7.9949 16.87689,-16.3414 l 2e-5,-4.36049 c 0,-1.49071 -0.96284,-1.48384 -2.19099,-1.22279 l -1.09859,0.23352 v -4.16533 l 12.77884,-2.71622 -2e-5,9.35564 c -3e-5,9.01259 16.97528,9.78307 16.97528,9.78307 z m -47.01821,24.73019 -3e-5,6.74246 51.00368,-10.841 3e-5,-6.74245 z"
           class="st0"
           id="스_00000117637667525280271450000017130847091341585028_"
           inkscape:connector-curvature="0"
           style="fill:#4087da" />
        <path
           d="m 197.8772,225.02354 v 50.12605 l -9.50232,2.01981 8e-5,-43.18379 c 0,-1.22446 -0.74475,-1.70235 -1.73196,-1.49251 l -0.94975,0.20189 v -5.08165 z m -24.581,12.58376 0.70207,-0.14922 c 0.92995,-0.19766 1.72478,0.0833 1.72478,1.24406 l -2e-5,4.54597 -6.52905,1.3878 2e-5,-9.9026 -11.53114,2.45103 v 5.19411 l 0.33727,-0.0717 c 0.92996,-0.19768 2.17534,-0.13454 2.17534,1.02623 l -2e-5,3.21986 -6.07712,1.29175 v -9.9026 l -11.34633,2.41176 v 5.11768 l 0.42628,-0.0906 c 0.92996,-0.19766 2.2946,-0.23981 2.2946,0.92094 l -3e-5,20.55952 c 0,2.06824 1.38434,3.1904 3.37958,2.7663 l 20.34152,-4.32367 2e-5,-13.30042 6.52907,-1.3878 -6e-5,29.24278 8.71581,-1.85251 V 230.0057 l -11.14258,2.36844 v 5.23311 z m -13.12077,22.24036 -6.0771,1.29172 v -5.92711 l 6.07712,-1.29173 z"
           class="st0"
           id="베"
           inkscape:connector-curvature="0"
           style="fill:#4087da" />
        <polygon
           points="131.77483,265.44431 130.80606,260.33365 134.72357,255.73572 129.26738,256.11978 126.79549,251.80798 124.39213,257.15604 118.94691,259.08908 122.91771,262.01035 122.02427,267.51685 126.88179,263.97418 "
           class="st0"
           id="_x2605_"
           style="fill:#4087da" />
        <path
           d="m 107.83443,241.58479 v 47.56001 l -8.97471,1.90762 4e-5,-23.74625 -10.36059,2.20224 v -7.8718 l 10.3606,-2.20224 2e-5,-9.65604 c 0,-1.13191 -1.26267,-0.95738 -2.18477,-0.76138 l -0.36256,0.0771 v -5.06018 z m -48.32819,14.90465 28.99293,-6.16267 v 7.11046 l -16.01555,3.40424 -2e-5,16.06744 16.01557,-3.40421 v 6.75183 l -18.50826,3.93405 c -5.60134,1.19058 -7.68404,-0.35181 -7.684,-5.44748 l -1e-5,-15.89136 c 0,-1.98737 -0.29017,-2.48151 -2.06747,-2.46658 l -0.7332,0.006 z"
           class="st0"
           id="더"
           inkscape:connector-curvature="0"
           style="fill:#4087da" />
        <path
           d="m 411.13708,122.66602 c -7.20901,-1.50468 -16.48886,-1.50552 -27.01459,5.9174 -6.92111,4.88083 -10.41144,10.73465 -10.41113,17.36948 9e-5,2.39024 0.52005,4.75255 1.55322,7.01497 3.17084,6.94339 7.86703,7.2325 14.25177,7.6256 10.43344,0.64232 16.70883,-2.25745 22.96402,-6.64659 6.98978,-4.91043 10.55811,-10.68198 10.55811,-17.35106 0,-5.95355 -3.0303,-12.07826 -11.9014,-13.9298 z m -15.53292,27.91415 c -2.12003,-0.003 -6.44406,-0.009 -6.44406,-6.71246 0,-6.94734 5.50134,-12.03236 11.48172,-12.14357 6.13852,-0.11418 6.57004,4.07228 6.57004,6.62549 -4e-5,6.25855 -5.34956,12.23907 -11.6077,12.23054 z m 41.07803,-65.74779 v 10.3139 l -11.62857,2.49406 -3e-5,19.36927 -15.53287,3.33146 6e-5,-44.62873 c 0,-2.00974 -1.63626,-1.95902 -3.50067,-1.55914 l -1.87283,0.40167 3e-5,-5.95576 20.90637,-4.48395 -6e-5,23.21128 z m -57.19855,23.72465 c 0,0 -1.70578,14.68898 -20.3186,33.96416 l -9.5296,-7.80302 c 9.53723,-7.96404 20.52859,-25.96279 20.52863,-41.82025 v -0.44755 c 0,-1.90484 -1.46161,-1.87592 -3.28195,-1.4855 l -1.83981,0.3946 v -5.64484 l 20.42361,-4.38041 v 8.2818 c -3e-5,16.19505 8.8606,18.635 20.63348,18.53378 l -5.85629,9.29377 c -17.88966,-1.28758 -20.75947,-8.88654 -20.75947,-8.88654 z"
           class="st0"
           id="상"
           inkscape:connector-curvature="0"
           style="fill:#4087da" />
        <path
           d="m 297.10858,142.84035 -6.51471,9.04842 c -12.72702,-4.13419 -16.16449,-10.62567 -16.16449,-10.62567 0,0 -4.81967,9.2997 -14.92267,18.98085 l -8.42831,-7.14691 c 0,0 14.89084,-14.52545 14.89087,-28.85605 v -10.90805 c 3e-5,-1.99483 -1.57892,-1.92389 -3.34491,-1.54852 l -1.77386,0.37704 v -6.30237 l 19.5033,-4.14552 -6e-5,20.06721 c -4e-5,19.21429 16.75484,21.05957 16.75484,21.05957 z m -1.97473,-48.1058 -3e-5,5.7956 1.51056,-0.32108 c 1.50375,-0.31963 2.88062,-0.61229 2.88062,1.38255 l -3e-5,16.88968 -12.73807,2.70754 v 9.08617 l 12.73807,-2.70753 -6e-5,50.05135 13.97195,-2.9698 1.5e-4,-83.81765 z m 17.79108,-18.81747 v 5.7956 l 1.51053,-0.32108 c 1.50378,-0.31963 2.84827,-0.54111 2.84827,1.45372 l -1.2e-4,73.80782 15.18723,-3.22812 1.5e-4,-81.66256 z"
           class="st0"
           id="세"
           inkscape:connector-curvature="0"
           style="fill:#4087da" />
        <path
           d="m 232.48557,168.74385 -64.56834,13.72432 -2e-5,6.28444 0.80057,-0.17017 c 4.22571,-0.89819 4.3918,-0.20706 4.3918,1.86325 l -3e-5,13.15184 c 0,4.23445 3.28206,6.9695 7.33073,6.10892 l 46.34355,-9.85054 c 4.04868,-0.86057 7.33075,-4.99084 7.33075,-9.2253 l 5e-5,-20.52922 c -1e-5,-0.94096 -0.72938,-1.54876 -1.62906,-1.35754 z m -16.04534,24.60518 -27.24457,5.79097 3e-5,-11.93488 27.24455,-5.79097 z m 17.67436,-38.58879 3e-5,9.15341 -80.87857,17.19113 2e-5,-9.15341 z m -48.09541,-12.80815 -2e-5,9.39378 48.0955,-10.22293 -2e-5,9.15335 -55.73903,11.84761 c -4.49849,0.95618 -8.14525,-2.08276 -8.14525,-6.78767 l -2e-5,-10.90527 c 0,-1.88683 -0.1658,-2.45555 -4.38484,-1.55878 l -0.79933,0.16991 3e-5,-5.78545 69.06848,-14.68084 -2e-5,9.15336 z"
           class="st0"
           id="듬"
           inkscape:connector-curvature="0"
           style="fill:#4087da" />
        <path
           d="m 108.3623,114.03173 v 6.21638 l 1.78067,-0.37718 c 1.77267,-0.37549 3.39574,-0.71929 3.39574,1.59993 v 36.71419 c -2.6189,1.53766 -5.97282,2.82921 -10.10734,3.70499 l -24.4909,5.1877 V 155.8408 l 22.71075,-4.81061 c 1.13004,-0.23938 2.04613,-1.36742 2.04613,-2.51956 v -22.24795 c 0,-1.15215 -0.91608,-1.8921 -2.04613,-1.65273 l -42.59807,9.02317 v 9.60814 l 29.05352,-6.15416 v 7.55502 l -30.40388,6.44019 v 6.32072 l 0.71784,-0.15205 c 1.44965,-0.30707 3.59925,-0.76239 3.59921,1.38647 v 14.95688 c 0,3.68686 2.93146,6.05469 6.54759,5.28873 l 31.97903,-6.7738 c 5.99881,-1.27068 10.35291,-2.81136 12.99224,-4.20331 v 35.20134 l 16.4705,-3.48882 v -90.17201 z"
           class="st0"
           id="리_00000042719246295660188650000004627922409533853855_"
           inkscape:connector-curvature="0"
           style="fill:#4087da" />
      </g>
      <path
         d="m 465.62637,188.81696 0.65787,-7.65906 -2.9306,0.62291 0.14139,-1.64583 7.75156,-1.64763 -0.14136,1.64583 -2.82498,0.60046 -0.65787,7.65906 z m 13.15338,-2.79581 0.66803,-7.77739 -2.44751,8.15562 -1.92734,0.40967 -1.06921,-7.40813 -0.66803,7.77737 -1.82172,0.38722 0.79968,-9.31027 2.84613,-0.60497 1.08182,7.02 0.0211,-0.004 2.30817,-7.74055 2.80917,-0.59711 -0.79968,9.31029 z"
         id="_x2122_"
         inkscape:connector-curvature="0" />
      <g
         id="Cogs">
        <g
           id="g893">
          <path
             id="path885"
             d="m 456.08206,3.36581 c -2.09119,4e-5 -4.17969,0.14943 -6.2496,0.44706 -0.12457,0.0266 -0.24905,0.05373 -0.37341,0.08141 l -1.2912,5.06091 h 0.45364 c -5.08807,0.97721 -9.93115,2.95584 -14.24789,5.82093 l 0.15646,-0.15648 -4.52313,-2.53635 c -0.9198,0.6353 -1.815,1.30549 -2.68362,2.0091 -1.58066,1.36964 -3.06149,2.85044 -4.43112,4.43112 -0.76511,0.93821 -1.49109,1.90765 -2.17609,2.90586 l 2.60474,4.39165 0.30899,-0.30899 c -2.88284,4.33305 -4.87164,9.19804 -5.84985,14.30972 l -5.18454,1.45948 c -0.28033,1.98818 -0.42398,3.99324 -0.42996,6.00108 -3e-5,2.09161 0.14938,4.18055 0.44705,6.25087 0.0554,0.26701 0.11322,0.53351 0.17355,0.79945 l 5.10168,1.30302 V 55.1702 c 1.0148,4.95889 2.98276,9.67359 5.79462,13.88236 l -0.44971,-0.44968 -2.53113,4.51394 c 0.68927,1.00517 1.4201,1.9812 2.19058,2.92558 1.36963,1.58067 2.85043,3.06148 4.43109,4.43111 0.85834,0.69447 1.74255,1.35632 2.65079,1.98415 l 4.46002,-2.64684 -0.1893,-0.18931 c 4.43512,2.97681 9.43317,5.01333 14.68576,5.98395 h -1.13867 l 1.41083,5.01096 c 0.20963,0.04709 0.41956,0.09263 0.62982,0.13663 2.06992,0.29762 4.15842,0.44702 6.2496,0.44706 2.08896,-3.5e-4 4.17526,-0.14975 6.24298,-0.44706 l 1.31223,-5.14243 h -0.43256 c 5.33441,-0.98698 10.40506,-3.0732 14.88956,-6.12598 l 4.61255,2.58636 c 0.72778,-0.51078 1.43991,-1.04355 2.13535,-1.59757 1.58069,-1.36964 3.06149,-2.85045 4.43112,-4.43111 0.89005,-1.0779 1.72815,-2.19769 2.51138,-3.35554 l -2.67706,-4.51261 -0.042,0.04198 c 2.5928,-4.12923 4.39044,-8.70696 5.30023,-13.4971 l 5.22656,-1.47004 c 0.2713,-1.97738 0.4075,-3.97095 0.40762,-5.96685 -3.7e-4,-0.71825 -0.0183,-1.43639 -0.0539,-2.15375 -0.035,-0.71779 -0.0876,-1.4346 -0.15778,-2.14981 -0.0706,-0.71516 -0.15869,-1.42847 -0.26428,-2.13931 -0.0349,-0.20932 -0.0713,-0.41839 -0.10916,-0.62718 l -5.13718,-1.31226 v 0.04605 c -1.03116,-4.75599 -2.94107,-9.27768 -5.63159,-13.33276 l 0.0101,0.01015 2.59818,-4.63361 c -0.39615,-0.53162 -0.80432,-1.0542 -1.22412,-1.56734 -0.45596,-0.55581 -0.92551,-1.10032 -1.4082,-1.63307 -0.48242,-0.53233 -0.97784,-1.05273 -1.48581,-1.56075 -0.508,-0.5084 -1.02841,-1.00426 -1.56076,-1.48712 -0.53275,-0.48225 -1.07727,-0.95136 -1.63309,-1.40689 -0.5553,-0.45607 -1.12173,-0.89844 -1.69876,-1.32672 -0.11099,-0.07897 -0.22232,-0.15743 -0.33398,-0.23536 l -4.45477,2.64158 0.27481,0.27479 c -4.17139,-2.7721 -8.83649,-4.71697 -13.7417,-5.72888 h 0.0254 l -1.43845,-5.11089 c -0.0162,-0.0024 -0.0324,-0.00479 -0.0486,-0.00718 -0.71082,-0.10559 -1.42413,-0.19371 -2.13928,-0.26429 -0.71521,-0.07059 -1.43201,-0.12361 -2.14981,-0.15902 -0.7178,-0.0352 -1.4364,-0.05276 -2.15503,-0.05269 z"
             class="st5"
             inkscape:connector-curvature="0"
             style="clip-rule:evenodd;fill:#8898b0;fill-rule:evenodd" />
          <circle
             id="circle887"
             r="31.05414"
             cy="47.283051"
             cx="456.0827"
             class="st6"
             style="clip-rule:evenodd;fill:#404040;fill-rule:evenodd" />
          <path
             id="path889"
             d="m 456.08286,74.53582 c -15.02719,0 -27.25281,-12.22564 -27.25281,-27.25283 0,-15.02719 12.22562,-27.25282 27.25281,-27.25282 15.02719,0 27.25284,12.22564 27.25284,27.25282 0,15.02718 -12.22565,27.25283 -27.25284,27.25283 z m 0,-51.57087 c -13.40903,0 -24.31802,10.90902 -24.31802,24.31804 0,13.40902 10.909,24.31804 24.31802,24.31804 13.40902,0 24.31805,-10.90902 24.31805,-24.31804 0,-13.40902 -10.90903,-24.31804 -24.31805,-24.31804 z"
             class="st7"
             inkscape:connector-curvature="0"
             style="fill:#8898b0" />
          <circle
             id="circle891"
             r="9.1579704"
             cy="47.283051"
             cx="456.0827"
             class="st5"
             style="clip-rule:evenodd;fill:#8898b0;fill-rule:evenodd" />
        </g>
        <g
           id="g903">
          <path
             id="path895"
             d="m 384.08255,0 c -1.53308,3e-5 -3.06424,0.10955 -4.58173,0.32775 -0.0913,0.0195 -0.18262,0.03939 -0.27377,0.05969 l -0.94662,3.7103 h 0.33258 c -3.73019,0.71642 -7.28082,2.16701 -10.44553,4.26749 l 0.11472,-0.11472 -3.31607,-1.85947 c -0.67429,0.46576 -1.3306,0.95709 -1.96741,1.47293 -1.15884,1.00412 -2.24448,2.08974 -3.2486,3.24858 -0.56091,0.68783 -1.09317,1.39855 -1.59534,2.13037 l 1.90961,3.21964 0.22653,-0.22653 c -2.11349,3.17668 -3.57156,6.74334 -4.2887,10.49086 l -3.80093,1.06999 c -0.20554,1.45759 -0.31085,2.92756 -0.31522,4.39956 -3e-5,1.53342 0.1095,3.06488 0.32776,4.58269 0.0406,0.19576 0.083,0.39114 0.1272,0.5861 l 3.7402,0.95529 v -0.34124 c 0.74399,3.63551 2.18674,7.09198 4.2482,10.17755 l -0.32968,-0.32967 -1.85565,3.30929 c 0.50531,0.73692 1.04114,1.45248 1.60596,2.14482 1.00412,1.15883 2.08975,2.24445 3.2486,3.24857 0.62924,0.50914 1.2775,0.99436 1.94333,1.45463 L 368.21177,56.044 368.073,55.9052 c 3.2515,2.18238 6.91571,3.67542 10.76654,4.387 h -0.83478 l 1.0343,3.67368 c 0.15369,0.03452 0.30759,0.06791 0.46176,0.10017 1.51749,0.21819 3.04865,0.32773 4.58173,0.32775 1.53149,-2.6e-4 3.061,-0.10978 4.5769,-0.32775 l 0.96204,-3.77006 h -0.31711 c 3.9108,-0.72359 7.62823,-2.25305 10.91595,-4.49113 l 3.38159,1.89613 c 0.53354,-0.37447 1.05563,-0.76506 1.56549,-1.17123 1.15881,-1.00412 2.24445,-2.08974 3.24857,-3.24858 0.65253,-0.79024 1.26694,-1.61119 1.84116,-2.46004 l -1.96262,-3.30833 -0.0308,0.03078 c 1.90088,-3.02725 3.21878,-6.38332 3.88574,-9.89511 l 3.83176,-1.07773 c 0.19891,-1.44967 0.29877,-2.91122 0.29883,-4.37447 -2.4e-4,-0.52657 -0.0135,-1.05305 -0.0396,-1.57897 -0.0256,-0.52623 -0.0642,-1.05175 -0.11563,-1.57609 -0.0518,-0.5243 -0.11636,-1.04725 -0.19376,-1.56838 -0.0256,-0.15346 -0.0522,-0.30673 -0.08,-0.4598 l -3.7662,-0.96206 v 0.03376 c -0.75598,-3.48675 -2.15619,-6.80173 -4.12866,-9.77462 l 0.007,0.0074 1.90479,-3.39703 c -0.29041,-0.38974 -0.58966,-0.77286 -0.89743,-1.14906 -0.33429,-0.40748 -0.67853,-0.80668 -1.03241,-1.19725 -0.35367,-0.39027 -0.71689,-0.77179 -1.08926,-1.14423 C 406.47645,9.05723 406.09492,8.6937 405.70466,8.3397 405.31407,7.98614 404.91487,7.64223 404.50739,7.30827 404.10025,6.97391 403.685,6.6496 403.26197,6.33562 403.18057,6.27772 403.09898,6.2202 403.0171,6.16307 l -3.2659,1.93662 0.20148,0.20146 c -3.05817,-2.0323 -6.4783,-3.45814 -10.07443,-4.2 h 0.0186 L 388.8427,0.35425 C 388.8308,0.35249 388.819,0.35074 388.8071,0.34899 388.28597,0.27158 387.76302,0.20698 387.2387,0.15523 386.71438,0.10348 386.18886,0.06461 385.66262,0.03865 385.13637,0.01284 384.60958,-3e-5 384.08269,2e-5 Z"
             class="st5"
             inkscape:connector-curvature="0"
             style="clip-rule:evenodd;fill:#8898b0;fill-rule:evenodd" />
          <circle
             id="circle897"
             r="22.766661"
             cy="32.19696"
             cx="384.08304"
             class="st6"
             style="clip-rule:evenodd;fill:#404040;fill-rule:evenodd" />
          <path
             id="path899"
             d="m 384.08334,52.17649 c -11.01685,0 -19.97986,-8.96258 -19.97986,-19.97942 0,-11.01684 8.96301,-19.97985 19.97986,-19.97985 11.01682,0 19.97897,8.96301 19.97897,19.97985 0,11.01684 -8.96215,19.97942 -19.97897,19.97942 z m 0,-37.80814 c -9.83084,0 -17.82874,7.9979 -17.82874,17.82873 0,9.83039 7.99789,17.82829 17.82874,17.82829 9.82993,0 17.82785,-7.99791 17.82785,-17.82829 0,-9.83083 -7.99792,-17.82873 -17.82785,-17.82873 z"
             class="st7"
             inkscape:connector-curvature="0"
             style="fill:#8898b0" />
          <circle
             id="circle901"
             r="6.7139602"
             cy="32.19696"
             cx="384.08304"
             class="st5"
             style="clip-rule:evenodd;fill:#8898b0;fill-rule:evenodd" />
        </g>
      </g>
      <g
         transform="matrix(4.6617458,0,0,-4.6617458,-568.13199,829.50374)"
         id="Pilers">
        <path
           id="path906"
           d="m 169.78708,161.81813 c -2.04869,-1.37535 -4.50641,-4.84512 -4.40616,-6.02411 0.72977,-0.063 2.46326,0.67393 4.01189,1.73065 0.96246,0.65674 1.85352,1.43704 2.38792,2.22559 z m 0.13545,-1.18376 0.74541,-0.70088 -0.97966,-0.29456 z m -1.72046,-1.82993 c 0.2476,1.2e-4 0.44843,-0.20494 0.44855,-0.45802 0,-9e-5 0,-1.7e-4 0,-2.6e-4 3e-5,-0.25308 -0.20068,-0.45825 -0.44829,-0.45828 -9e-5,0 -1.7e-4,0 -2.6e-4,0 -0.24754,1.4e-4 -0.44812,0.20528 -0.44809,0.45828 -3e-5,0.25301 0.20055,0.45815 0.44809,0.45828 z"
           class="st4"
           inkscape:connector-curvature="0"
           style="fill:#d8d8d8" />
        <path
           id="path908"
           d="m 177.69768,171.43758 c -5.62657,-1.30733 -8.69127,-10.00723 -8.69127,-10.00723 l 0.93607,-1.5034 c 0.0221,-0.0102 1.50993,-0.91141 1.50993,-0.91141 0,0 8.66611,3.15935 9.91214,8.79982 0,0 0.0292,0.89165 -0.54364,0.96065 -0.69553,0.0838 -0.98291,-0.27554 -0.98291,-0.27554 -2.98706,-6.21135 -6.49881,-6.23239 -8.52968,-7.34068 1.08484,2.04381 0.91583,5.70576 7.09125,8.7587 0,0 0.35622,0.29111 0.26488,0.98569 -0.0752,0.57214 -0.96667,0.53343 -0.96667,0.53343 z"
           class="st8"
           inkscape:connector-curvature="0"
           style="fill:#2c5e87" />
      </g>
      <path
         d="m 96.77289,45.72197 c -10.28892,7.1e-4 -18.62956,8.34133 -18.63028,18.63025 0.0049,2.74789 0.61757,5.46065 1.79408,7.94392 L 15.65576,144.8981 C 15.16408,144.8365 14.66952,144.8008 14.1741,144.791 6.34597,144.79097 2e-5,151.1369 0,158.96503 v 3e-5 c -1e-5,7.82812 6.34592,14.17409 14.17404,14.17409 2e-5,0 4e-5,0 5e-5,0 7.82812,0 14.17407,-6.34595 14.17408,-14.17406 v -3e-5 c -0.01142,-1.06612 -0.14309,-2.12755 -0.39252,-3.16415 L 92.84356,82.51614 c 1.2895,0.29527 2.60677,0.45234 3.92954,0.46861 10.28992,5e-4 18.63197,-8.34073 18.63247,-18.63064 0,-6.3e-4 0,-0.0012 0,-0.0019 -0.002,-3.84933 -1.19625,-7.60353 -3.41855,-10.74658 l -0.94613,9.41218 -9.767,4.40039 -8.6959,-6.25694 1.0711,-10.65955 8.70484,-3.92064 C 100.5481,46.01287 98.66622,45.72318 96.7731,45.72201 Z M 14.17409,154.3036 c 2.57425,4.9e-4 4.66097,2.08722 4.66145,4.66145 7.5e-4,2.57495 -2.08603,4.66296 -4.66097,4.6637 -1.6e-4,0 -3.2e-4,0 -4.8e-4,0 -2.57494,-4.6e-4 -4.66195,-2.08826 -4.66147,-4.66321 0,-1.7e-4 0,-3.2e-4 0,-4.9e-4 4.9e-4,-2.57426 2.08722,-4.66099 4.66147,-4.66145 z"
         class="st9"
         id="Wrench"
         inkscape:connector-curvature="0"
         style="clip-rule:evenodd;fill:#2c5e87;fill-rule:evenodd" />
    </g>
  </g>
  <style
     id="style815"
     type="text/css">
	.st0{fill:#4087DA;}
	.st1{fill:#404040;}
	.st2{fill:url(#SVGID_1_);}
	
		.st3{clip-path:url(#SVGID_00000163041451766169190110000003753374390241683076_);fill:url(#SVGID_00000075859130296331585310000002904939205471209900_);}
	.st4{fill:#D8D8D8;}
	.st5{fill-rule:evenodd;clip-rule:evenodd;fill:#8898B0;}
	.st6{fill-rule:evenodd;clip-rule:evenodd;fill:#404040;}
	.st7{fill:#8898B0;}
	.st8{fill:#2C5E87;}
	.st9{fill-rule:evenodd;clip-rule:evenodd;fill:#2C5E87;}
</style>
</svg>
