<?xml version="1.0" encoding="UTF-8" standalone="no"?>
<!-- Created with Inkscape (http://www.inkscape.org/) -->

<svg
   version="1.1"
   id="svg1"
   width="666.66669"
   height="493.58133"
   viewBox="0 0 666.66669 493.58133"
   sodipodi:docname="Rhythm World The Best Plus More Of The Best (리듬 세상 더・베스트 플러스 최고・중・더・베스트) Logo (Wordmark).ai"
   xmlns:inkscape="http://www.inkscape.org/namespaces/inkscape"
   xmlns:sodipodi="http://sodipodi.sourceforge.net/DTD/sodipodi-0.dtd"
   xmlns="http://www.w3.org/2000/svg"
   xmlns:svg="http://www.w3.org/2000/svg">
  <defs
     id="defs1">
    <clipPath
       clipPathUnits="userSpaceOnUse"
       id="clipPath2">
      <path
         d="M 0,370.186 H 500 V 0 H 0 Z"
         transform="translate(-358.87841,-76.034599)"
         id="path2" />
    </clipPath>
    <clipPath
       clipPathUnits="userSpaceOnUse"
       id="clipPath4">
      <path
         d="M 0,370.186 H 500 V 0 H 0 Z"
         transform="translate(-309.45071,-65.872504)"
         id="path4" />
    </clipPath>
    <clipPath
       clipPathUnits="userSpaceOnUse"
       id="clipPath6">
      <path
         d="M 0,370.186 H 500 V 0 H 0 Z"
         transform="translate(-268.98091,-66.229902)"
         id="path6" />
    </clipPath>
    <clipPath
       clipPathUnits="userSpaceOnUse"
       id="clipPath8">
      <path
         d="M 0,370.186 H 500 V 0 H 0 Z"
         transform="translate(-248.25681,-69.577504)"
         id="path8" />
    </clipPath>
    <clipPath
       clipPathUnits="userSpaceOnUse"
       id="clipPath10">
      <path
         d="M 0,370.186 H 500 V 0 H 0 Z"
         transform="translate(-216.9814,-79.105902)"
         id="path10" />
    </clipPath>
    <clipPath
       clipPathUnits="userSpaceOnUse"
       id="clipPath12">
      <path
         d="M 0,370.186 H 500 V 0 H 0 Z"
         transform="translate(-179.2309,-58.014101)"
         id="path12" />
    </clipPath>
    <clipPath
       clipPathUnits="userSpaceOnUse"
       id="clipPath14">
      <path
         d="M 0,370.186 H 500 V 0 H 0 Z"
         transform="translate(-142.5273,-30.839201)"
         id="path14" />
    </clipPath>
    <clipPath
       clipPathUnits="userSpaceOnUse"
       id="clipPath16">
      <path
         d="M 0,370.186 H 500 V 0 H 0 Z"
         transform="translate(-111.5127,-44.785504)"
         id="path16" />
    </clipPath>
    <clipPath
       clipPathUnits="userSpaceOnUse"
       id="clipPath18">
      <path
         d="M 0,370.186 H 500 V 0 H 0 Z"
         transform="translate(-74.937502,-25.526703)"
         id="path18" />
    </clipPath>
    <clipPath
       clipPathUnits="userSpaceOnUse"
       id="clipPath20">
      <path
         d="M 0,370.186 H 500 V 0 H 0 Z"
         transform="translate(-32.670401,-45.988699)"
         id="path20" />
    </clipPath>
    <clipPath
       clipPathUnits="userSpaceOnUse"
       id="clipPath22">
      <path
         d="M 0,370.186 H 500 V 0 H 0 Z"
         transform="translate(-428.39891,-113.62831)"
         id="path22" />
    </clipPath>
    <clipPath
       clipPathUnits="userSpaceOnUse"
       id="clipPath24">
      <path
         d="M 0,370.186 H 500 V 0 H 0 Z"
         transform="translate(-456.47991,-173.4584)"
         id="path24" />
    </clipPath>
    <clipPath
       clipPathUnits="userSpaceOnUse"
       id="clipPath26">
      <path
         d="M 0,370.186 H 500 V 0 H 0 Z"
         transform="translate(-446.52981,-203.43641)"
         id="path26" />
    </clipPath>
    <clipPath
       clipPathUnits="userSpaceOnUse"
       id="clipPath28">
      <path
         d="M 0,370.186 H 500 V 0 H 0 Z"
         transform="translate(-283.5454,-130.80511)"
         id="path28" />
    </clipPath>
    <clipPath
       clipPathUnits="userSpaceOnUse"
       id="clipPath30">
      <path
         d="M 0,370.186 H 500 V 0 H 0 Z"
         transform="translate(-204.43701,-114.5404)"
         id="path30" />
    </clipPath>
    <clipPath
       clipPathUnits="userSpaceOnUse"
       id="clipPath32">
      <path
         d="M 0,370.186 H 500 V 0 H 0 Z"
         transform="translate(-139.66401,-115.11271)"
         id="path32" />
    </clipPath>
    <clipPath
       clipPathUnits="userSpaceOnUse"
       id="clipPath34">
      <path
         d="M 0,370.186 H 500 V 0 H 0 Z"
         transform="translate(-106.4961,-120.4711)"
         id="path34" />
    </clipPath>
    <clipPath
       clipPathUnits="userSpaceOnUse"
       id="clipPath36">
      <path
         d="M 0,370.186 H 500 V 0 H 0 Z"
         transform="translate(-56.439901,-135.7211)"
         id="path36" />
    </clipPath>
    <clipPath
       clipPathUnits="userSpaceOnUse"
       id="clipPath38">
      <path
         d="M 0,370.186 H 500 V 0 H 0 Z"
         transform="translate(-425.46041,-312.36361)"
         id="path38" />
    </clipPath>
    <clipPath
       clipPathUnits="userSpaceOnUse"
       id="clipPath40">
      <path
         d="M 0,370.186 H 500 V 0 H 0 Z"
         transform="translate(-338.72311,-354.80601)"
         id="path40" />
    </clipPath>
    <clipPath
       clipPathUnits="userSpaceOnUse"
       id="clipPath42">
      <path
         d="M 0,370.186 H 500 V 0 H 0 Z"
         transform="translate(-173.3427,-268.75091)"
         id="path42" />
    </clipPath>
    <clipPath
       clipPathUnits="userSpaceOnUse"
       id="clipPath44">
      <path
         d="M 0,370.186 H 500 V 0 H 0 Z"
         transform="translate(-72.142502,-305.11511)"
         id="path44" />
    </clipPath>
    <clipPath
       clipPathUnits="userSpaceOnUse"
       id="clipPath46">
      <path
         d="M 0,370.186 H 500 V 0 H 0 Z"
         transform="translate(-496.61181,-211.32121)"
         id="path46" />
    </clipPath>
  </defs>
  <sodipodi:namedview
     id="namedview1"
     pagecolor="#ffffff"
     bordercolor="#000000"
     borderopacity="0.25"
     inkscape:showpageshadow="2"
     inkscape:pageopacity="0.0"
     inkscape:pagecheckerboard="0"
     inkscape:deskcolor="#d1d1d1">
    <inkscape:page
       x="0"
       y="0"
       inkscape:label="1"
       id="page1"
       width="666.66669"
       height="493.58133"
       margin="0"
       bleed="0" />
  </sodipodi:namedview>
  <g
     id="layer-MC0"
     inkscape:groupmode="layer"
     inkscape:label="Layer 1">
    <path
       id="path1"
       d="M 0,0 V -5.401 L 41.704,3.463 V 8.864 Z M 15.742,27.922 V 23.908 L 36.079,28.23 V 22.522 L 15.742,18.2 v -4.177 l 20.337,4.324 V 13.13 L 11.163,7.834 C 9.108,7.397 7.306,9.062 7.306,11.626 v 15.178 c 0,1.028 -0.16,1.323 -1.868,0.96 L 5.073,27.687 v 3.601 l 31.006,6.591 v -5.635 z"
       style="fill:#000000;fill-opacity:1;fill-rule:nonzero;stroke:none"
       transform="matrix(1.3333333,0,0,-1.3333333,478.50453,392.20187)"
       clip-path="url(#clipPath2)" />
    <path
       id="path3"
       d="m 0,0 v -5.49 l 41.529,8.827 v 5.49 z m 38.284,20.136 -2.888,-6.678 c -7.862,-0.605 -14.131,4.907 -14.131,4.907 0,0 -6.332,-7.803 -14.577,-11.34 l -3.694,5.429 c 0,0 13.742,6.51 13.742,13.306 v 3.551 c 0,1.213 -0.784,1.208 -1.784,0.995 l -0.894,-0.19 v 3.392 l 10.404,2.211 v -7.617 c 0,-7.339 13.822,-7.966 13.822,-7.966"
       style="fill:#000000;fill-opacity:1;fill-rule:nonzero;stroke:none"
       transform="matrix(1.3333333,0,0,-1.3333333,412.60093,405.75133)"
       clip-path="url(#clipPath4)" />
    <path
       id="path5"
       d="M 0,0 -4.948,-1.052 V 3.774 L 0,4.826 Z m 10.683,18.108 0.572,0.122 c 0.757,0.161 1.404,-0.068 1.404,-1.013 v -3.701 l -5.316,-1.13 v 8.063 l -9.389,-1.996 v -4.229 l 0.275,0.058 C -1.015,14.443 0,14.392 0,13.446 V 10.825 L -4.948,9.773 v 8.063 l -9.239,-1.964 v -4.167 l 0.347,0.074 c 0.757,0.161 1.868,0.196 1.868,-0.75 v -16.74 c 0,-1.684 1.127,-2.598 2.752,-2.252 L 7.343,-4.442 V 6.387 l 5.316,1.13 v -23.811 l 7.097,1.509 v 39.083 l -9.073,-1.929 z m 20.014,10.246 v -40.813 l -7.737,-1.645 10e-4,35.162 c 0,0.997 -0.607,1.385 -1.411,1.214 l -0.773,-0.164 v 4.138 z"
       style="fill:#000000;fill-opacity:1;fill-rule:nonzero;stroke:none"
       transform="matrix(1.3333333,0,0,-1.3333333,358.6412,405.2748)"
       clip-path="url(#clipPath6)" />
    <path
       id="path7"
       d="m 0,0 -4.442,-0.312 -2.013,3.51 -1.957,-4.354 -4.434,-1.574 3.233,-2.378 -0.727,-4.484 3.955,2.884 3.984,-1.196 -0.789,4.161 z"
       style="fill:#000000;fill-opacity:1;fill-rule:nonzero;stroke:none"
       transform="matrix(1.3333333,0,0,-1.3333333,331.00907,400.81133)"
       clip-path="url(#clipPath8)" />
    <path
       id="path9"
       d="m 0,0 v -4.12 l 0.295,0.062 c 0.751,0.161 1.779,0.302 1.779,-0.619 v -7.862 l -8.436,-1.794 v -6.409 l 8.436,1.793 v -19.335 l 7.307,1.554 V 1.994 Z m -19.402,-26.768 13.04,2.772 v -5.497 l -15.07,-3.203 c -4.561,-0.97 -6.256,0.286 -6.256,4.435 v 14.362 c -0.001,0.92 -1.029,0.778 -1.779,0.619 l -0.502,-0.108 v 3.246 l 23.607,5.018 v -5.789 l -13.04,-2.773 z"
       style="fill:#000000;fill-opacity:1;fill-rule:nonzero;stroke:none"
       transform="matrix(1.3333333,0,0,-1.3333333,289.30853,388.1068)"
       clip-path="url(#clipPath10)" />
    <path
       id="path11"
       d="m 0,0 -4.442,-0.312 -2.013,3.51 -1.957,-4.354 -4.434,-1.574 3.233,-2.379 -0.727,-4.484 3.955,2.885 3.984,-1.197 -0.789,4.161 z"
       style="fill:#000000;fill-opacity:1;fill-rule:nonzero;stroke:none"
       transform="matrix(1.3333333,0,0,-1.3333333,238.97453,416.2292)"
       clip-path="url(#clipPath12)" />
    <path
       id="path13"
       d="M 0,0 C 0,1.127 -0.182,2.977 -2.773,2.956 -5.298,2.937 -7.621,0.72 -7.621,-2.346 -7.621,-5.304 -5.795,-5.328 -4.9,-5.34 -2.258,-5.374 0,-2.761 0,0 M -0.026,9.457 V 7.19 C 0.599,7.13 1.167,7.027 1.657,6.901 5.381,5.946 6.681,3.324 6.681,0.696 c 0,-2.942 -1.491,-5.495 -4.457,-7.604 -5.307,-3.774 -13.717,-4.493 -15.815,0.523 -1.368,3.274 -0.01,8.062 3.844,10.808 0.775,0.553 1.549,1.002 2.313,1.373 V 7.882 L -21.787,4.831 v 5.509 l 36.114,7.676 V 12.508 Z M -8.65,25.955 c 0,0.971 -0.082,1.232 -1.552,0.919 l -8.982,-1.909 v 5.303 l 30.688,6.523 V 31.488 L 2.453,29.564 c -1.424,-0.302 -1.552,-0.643 -1.552,-1.58 0,-3.42 10.603,-2.623 10.603,-2.623 L 8.992,19.316 c -6.836,-0.485 -13.179,3.493 -13.179,3.493 0,0 -4.615,-5.955 -11.784,-9.099 l -3.213,4.965 c 0,0 10.534,3.691 10.534,7.28"
       style="fill:#000000;fill-opacity:1;fill-rule:nonzero;stroke:none"
       transform="matrix(1.3333333,0,0,-1.3333333,190.0364,452.4624)"
       clip-path="url(#clipPath14)" />
    <path
       id="path15"
       d="m 0,0 -4.442,-0.312 -2.013,3.51 -1.957,-4.354 -4.434,-1.574 3.234,-2.379 -0.728,-4.484 3.955,2.885 3.984,-1.197 -0.788,4.161 z"
       style="fill:#000000;fill-opacity:1;fill-rule:nonzero;stroke:none"
       transform="matrix(1.3333333,0,0,-1.3333333,148.6836,433.86733)"
       clip-path="url(#clipPath16)" />
    <path
       id="path17"
       d="m 0,0 v 13.69 l -9.493,-2.017 v -3.96 l 0.74,0.157 c 0.769,0.164 1.349,-0.209 1.349,-1.163 v -8.28 l -15.958,-3.393 v -5.615 l 41.481,8.817 v 5.616 z m 7.059,21.124 -25.101,-5.335 v 5.857 l 32.143,6.833 c 0,-6.446 0.06,-14.428 -0.898,-21.382 L 6.072,5.581 c 0.627,5.249 0.987,11.245 0.987,15.543"
       style="fill:#000000;fill-opacity:1;fill-rule:nonzero;stroke:none"
       transform="matrix(1.3333333,0,0,-1.3333333,99.916667,459.54573)"
       clip-path="url(#clipPath18)" />
    <path
       id="path19"
       d="m 0,0 v -3.914 l 0.731,0.155 c 0.761,0.162 1.334,-0.206 1.334,-1.149 v -28.385 l -13.708,-2.914 v 7.708 l -9.493,-2.018 v -3.959 l 0.74,0.158 c 0.769,0.163 1.349,-0.209 1.349,-1.163 v -2.3 l -13.623,-2.896 v -5.311 l 34.735,7.383 v -4.93 l 7.32,1.556 V 1.995 Z m -21.273,-19.591 c 0,1.155 -0.083,1.509 -1.679,1.17 l -9.718,-2.065 v 5.746 l 12.79,2.719 v 1.606 c 0,0.954 -0.58,1.326 -1.349,1.163 l -0.741,-0.157 v 3.959 l 9.493,2.018 v -7.016 l 13.011,2.765 v -5.746 l -9.794,-2.082 c -1.54,-0.327 -1.678,-0.74 -1.678,-1.884 0,-4.18 11.472,-3.522 11.472,-3.522 l -2.385,-6.739 c -7.396,-0.389 -14.593,4.087 -14.593,4.087 0,0 -5.42,-6.359 -13.177,-9.99 l -3.049,5.584 c 0,0 11.397,3.997 11.397,8.384"
       style="fill:#000000;fill-opacity:1;fill-rule:nonzero;stroke:none"
       transform="matrix(1.3333333,0,0,-1.3333333,43.560533,432.26307)"
       clip-path="url(#clipPath20)" />
    <path
       id="path21"
       d="M 0,0 -0.366,-4.267 31.139,2.43 31.505,6.697 Z M 30.054,15.644 27.471,9.992 c -5.612,-0.584 -10.724,3.093 -10.724,3.093 0,0 -5.756,-5.742 -11.234,-8.25 L 2.76,9.2 c 0,0 10.645,5.244 11.099,10.528 l 0.197,1.639 c 0.081,0.944 -0.503,0.943 -1.262,0.781 l -0.763,-0.162 0.257,2.981 8.378,1.781 -0.528,-5.509 c -0.491,-5.704 9.916,-5.595 9.916,-5.595"
       style="fill:#000000;fill-opacity:1;fill-rule:nonzero;stroke:none"
       transform="matrix(1.3333333,0,0,-1.3333333,571.19853,342.07693)"
       clip-path="url(#clipPath22)" />
    <path
       id="path23"
       d="m 0,0 -0.278,-3.245 0.577,0.122 c 0.575,0.122 1.101,0.234 1.034,-0.553 l -0.519,-6.036 -3.976,-0.845 -0.453,-5.271 3.976,0.846 -1.52,-17.711 6.234,1.325 2.839,33.051 z m -8.109,-22.607 c 1.725,0.367 3.525,1.06 4.656,1.725 l -0.369,-4.295 c -1.133,-0.6 -3.351,-1.383 -5.855,-1.914 l -11.556,-2.457 c -1.509,-0.32 -2.62,0.735 -2.48,2.358 l 0.566,6.582 c 0.081,0.945 -0.817,0.754 -1.421,0.626 l -0.3,-0.064 0.239,2.781 13.58,2.887 0.285,3.325 -13.016,-2.766 0.36,4.185 18.666,3.942 c 0.472,0.098 0.817,-0.231 0.775,-0.738 l -0.835,-9.72 c -0.044,-0.508 -0.461,-1 -0.933,-1.1 l -9.477,-2.015 -0.424,-4.945 z"
       style="fill:#000000;fill-opacity:1;fill-rule:nonzero;stroke:none"
       transform="matrix(1.3333333,0,0,-1.3333333,608.63987,262.30347)"
       clip-path="url(#clipPath24)" />
    <path
       id="path25"
       d="M 0,0 10.01,2.127 9.805,-0.256 -0.205,-2.384 Z m 14.74,-0.464 0.425,4.944 3.401,0.723 0.253,2.944 -26.903,-5.718 -0.253,-2.945 3.401,0.724 -0.423,-4.944 -4.201,-0.892 -0.253,-2.945 28.5,6.058 0.252,2.944 z m 7.29,-3.054 -35.485,-7.542 -0.302,-3.517 35.485,7.542 z m -4.864,-16.704 -0.306,-3.558 -23.4,-4.973 c -2.591,-0.551 -3.481,-0.029 -3.35,1.512 l 0.185,2.143 c 0.058,0.668 -0.016,0.824 -0.8,0.658 l -0.683,-0.145 0.277,3.213 21.668,4.606 0.169,1.964 -20.981,-4.459 0.329,3.828 26.155,5.541 c 0.611,0.129 1.075,-0.126 1.008,-0.898 l -0.548,-6.384 c -0.031,-0.359 -0.595,-1.267 -1.207,-1.397 l -18.545,-3.941 -0.172,-2.004 z"
       style="fill:#000000;fill-opacity:1;fill-rule:nonzero;stroke:none"
       transform="matrix(1.3333333,0,0,-1.3333333,595.37307,222.3328)"
       clip-path="url(#clipPath26)" />
    <path
       id="path27"
       d="M 0,0 V -8.645 L 66.748,5.543 v 8.645 z m 25.194,44.688 v -6.422 l 32.55,6.918 v -9.136 l -32.55,-6.919 v -6.684 l 32.55,6.918 V 21.015 L 17.867,12.539 c -3.29,-0.699 -6.175,1.965 -6.175,6.068 v 24.292 c 0,1.646 -0.254,2.119 -2.988,1.538 L 8.119,44.313 v 5.764 l 49.625,10.548 v -9.018 z"
       style="fill:#000000;fill-opacity:1;fill-rule:nonzero;stroke:none"
       transform="matrix(1.3333333,0,0,-1.3333333,378.06053,319.17453)"
       clip-path="url(#clipPath28)" />
    <path
       id="path29"
       d="M 0,0 V -8.786 L 66.467,5.341 v 8.787 z M 61.273,32.228 56.649,21.54 c -12.581,-0.97 -22.615,7.855 -22.615,7.855 0,0 -10.135,-12.491 -23.329,-18.15 l -5.913,8.689 c 0,0 21.993,10.419 21.993,21.295 v 5.683 c 0,1.942 -1.255,1.934 -2.855,1.593 l -1.432,-0.304 v 5.428 l 16.653,3.54 V 44.977 c 0,-11.746 22.122,-12.749 22.122,-12.749"
       style="fill:#000000;fill-opacity:1;fill-rule:nonzero;stroke:none"
       transform="matrix(1.3333333,0,0,-1.3333333,272.58267,340.8608)"
       clip-path="url(#clipPath30)" />
    <path
       id="path31"
       d="M 0,0 -7.919,-1.684 V 6.041 L 0,7.724 Z m 17.099,28.983 0.915,0.195 c 1.212,0.257 2.247,-0.11 2.247,-1.621 V 21.632 L 11.753,19.823 V 32.729 L -3.274,29.534 v -6.768 l 0.439,0.092 C -1.623,23.116 0,23.034 0,21.521 v -4.196 l -7.919,-1.683 v 12.905 l -14.787,-3.143 v -6.67 l 0.556,0.119 c 1.212,0.257 2.99,0.312 2.99,-1.201 V -9.14 c 0,-2.695 1.804,-4.158 4.404,-3.605 l 26.509,5.635 v 17.332 l 8.508,1.808 v -38.108 l 11.358,2.415 v 62.552 l -14.52,-3.086 z m 32.033,16.399 v -65.323 l -12.383,-2.632 v 56.276 c 0,1.595 -0.971,2.218 -2.257,1.944 l -1.238,-0.262 v 6.622 z"
       style="fill:#000000;fill-opacity:1;fill-rule:nonzero;stroke:none"
       transform="matrix(1.3333333,0,0,-1.3333333,186.21867,340.09773)"
       clip-path="url(#clipPath32)" />
    <path
       id="path33"
       d="m 0,0 -7.11,-0.5 -3.222,5.618 -3.132,-6.969 -7.096,-2.519 5.175,-3.807 -1.164,-7.176 6.33,4.617 6.376,-1.915 -1.262,6.659 z"
       style="fill:#000000;fill-opacity:1;fill-rule:nonzero;stroke:none"
       transform="matrix(1.3333333,0,0,-1.3333333,141.9948,332.9532)"
       clip-path="url(#clipPath34)" />
    <path
       id="path35"
       d="m 0,0 v -6.595 l 0.472,0.101 c 1.202,0.256 2.847,0.482 2.847,-0.992 V -20.07 l -13.501,-2.869 v -10.259 l 13.501,2.87 v -30.945 l 11.696,2.485 V 3.191 Z m -31.053,-42.842 20.871,4.436 v -8.799 l -24.12,-5.126 c -7.299,-1.552 -10.013,0.458 -10.013,7.099 v 22.986 c -0.002,1.473 -1.646,1.245 -2.847,0.99 l -0.803,-0.171 v 5.195 l 37.783,8.031 v -9.266 l -20.871,-4.436 z"
       style="fill:#000000;fill-opacity:1;fill-rule:nonzero;stroke:none"
       transform="matrix(1.3333333,0,0,-1.3333333,75.2532,312.61987)"
       clip-path="url(#clipPath36)" />
    <path
       id="path37"
       d="m 0,0 c 0,0 -2.223,-19.146 -26.479,-44.228 l -12.418,10.198 c 12.428,10.359 26.751,33.796 26.751,54.47 v 0.584 c 0,2.483 -1.904,2.45 -4.276,1.945 l -2.397,-0.51 v 7.36 L 7.796,35.477 V 24.679 C 7.796,3.564 19.343,0.36 34.685,0.461 L 27.053,-11.641 C 3.74,-9.915 0,0 0,0 M 74.54,30.781 V 17.334 L 59.386,14.113 V -11.14 l -20.242,-4.303 v 58.186 c 0,2.62 -2.133,2.558 -4.562,2.042 l -2.441,-0.519 v 7.765 l 27.245,5.791 V 27.56 Z M 21.008,-54.831 c -2.763,0.009 -8.398,0.028 -8.398,8.768 0,9.058 7.169,15.673 14.963,15.803 7.999,0.132 8.562,-5.327 8.562,-8.656 0,-8.16 -6.972,-15.943 -15.127,-15.915 m 20.242,36.352 c -7.708,1.823 -21.409,1.891 -35.205,-7.643 -11.898,-8.224 -16.09,-22.41 -11.864,-32.043 6.475,-14.762 32.435,-12.401 48.82,-1.1 9.155,6.315 13.759,13.899 13.759,22.594 0,7.762 -4.015,15.475 -15.51,18.192"
       style="fill:#000000;fill-opacity:1;fill-rule:nonzero;stroke:none"
       transform="matrix(1.3333333,0,0,-1.3333333,567.28053,77.096533)"
       clip-path="url(#clipPath38)" />
    <path
       id="path39"
       d="m 0,0 v -7.553 l 1.969,0.419 c 1.959,0.416 3.711,0.705 3.711,-1.895 v -96.184 l 19.792,4.207 V 5.414 Z m -23.185,-24.522 v -7.553 l 1.968,0.418 c 1.96,0.417 3.754,0.798 3.754,-1.801 v -22.011 l -16.6,-3.528 v -11.841 l 16.6,3.528 v -65.225 l 18.208,3.87 v 109.229 z m 2.574,-62.691 -8.491,-11.791 c -16.585,5.387 -21.064,13.847 -21.064,13.847 0,0 -6.281,-12.119 -19.447,-24.736 l -10.984,9.314 c 0,0 19.406,18.929 19.406,37.604 v 14.215 c 0,2.6 -2.058,2.508 -4.36,2.018 l -2.311,-0.491 v 8.213 l 25.416,5.402 v -26.151 c 0,-25.039 21.835,-27.444 21.835,-27.444"
       style="fill:#000000;fill-opacity:1;fill-rule:nonzero;stroke:none"
       transform="matrix(1.3333333,0,0,-1.3333333,451.6308,20.506667)"
       clip-path="url(#clipPath40)" />
    <path
       id="path41"
       d="M 0,0 V -12.242 L 62.677,1.081 v -11.929 l -72.638,-15.44 c -5.862,-1.246 -10.614,2.715 -10.614,8.846 l -0.001,14.212 c 0,2.459 -0.216,3.199 -5.714,2.031 L -27.332,-1.42 V 6.119 L 62.677,25.25 V 13.322 Z M 62.677,-16.691 V -28.62 L -42.722,-51.023 v 11.929 z M 39.644,-66.979 4.14,-74.526 v 15.553 l 35.504,7.547 z m 20.91,32.065 -84.144,-17.885 v -8.19 l 1.044,0.221 c 5.506,1.171 5.723,0.27 5.723,-2.428 v -17.138 c 0,-5.519 4.277,-9.083 9.553,-7.961 l 60.394,12.837 c 5.276,1.121 9.553,6.503 9.553,12.021 v 26.754 c 0,1.226 -0.95,2.018 -2.123,1.769"
       style="fill:#000000;fill-opacity:1;fill-rule:nonzero;stroke:none"
       transform="matrix(1.3333333,0,0,-1.3333333,231.1236,135.2468)"
       clip-path="url(#clipPath42)" />
    <path
       id="path43"
       d="m 0,0 v -8.1 l 2.321,0.494 c 2.31,0.491 4.425,0.94 4.425,-2.082 v -47.836 c -3.413,-2.006 -7.784,-3.692 -13.172,-4.837 l -31.916,-6.784 v 14.641 l 29.596,6.291 c 1.473,0.313 2.667,1.783 2.667,3.284 v 28.988 c 0,1.502 -1.194,2.464 -2.667,2.151 l -55.512,-11.799 v -12.519 l 37.862,8.048 v -9.844 l -39.622,-8.422 v -8.235 l 0.935,0.199 c 1.89,0.401 4.691,0.997 4.691,-1.804 v -19.487 c 0,-4.804 3.82,-7.886 8.533,-6.885 l 41.674,8.858 c 7.817,1.662 13.491,3.674 16.931,5.49 v -45.865 l 21.464,4.562 V 5.996 Z"
       style="fill:#000000;fill-opacity:1;fill-rule:nonzero;stroke:none"
       transform="matrix(1.3333333,0,0,-1.3333333,96.19,86.7612)"
       clip-path="url(#clipPath44)" />
    <path
       id="path45"
       d="m 0,0 0.87,10.135 -3.189,-10.628 -2.512,-0.534 -1.394,9.654 -0.87,-10.135 -2.374,-0.505 1.042,12.134 3.709,0.788 1.41,-9.149 0.028,0.006 3.008,10.088 3.661,0.778 L 2.346,0.499 Z m -17.142,-3.644 0.858,9.982 -3.82,-0.812 0.185,2.145 10.102,2.147 -0.185,-2.145 -3.681,-0.782 -0.857,-9.981 z"
       style="fill:#000000;fill-opacity:1;fill-rule:nonzero;stroke:none"
       transform="matrix(1.3333333,0,0,-1.3333333,662.14907,211.81973)"
       clip-path="url(#clipPath46)" />
  </g>
</svg>
