<?xml version="1.0" encoding="UTF-8" standalone="no"?>
<!-- Created with Inkscape (http://www.inkscape.org/) -->

<svg
   width="666.66663"
   height="560.39276"
   viewBox="0 0 176.38887 148.27058"
   version="1.1"
   id="svg24645"
   xml:space="preserve"
   inkscape:version="1.2.2 (b0a8486541, 2022-12-01)"
   sodipodi:docname="Rhythm Heaven Re-Megamix Logo.svg"
   xmlns:inkscape="http://www.inkscape.org/namespaces/inkscape"
   xmlns:sodipodi="http://sodipodi.sourceforge.net/DTD/sodipodi-0.dtd"
   xmlns="http://www.w3.org/2000/svg"
   xmlns:svg="http://www.w3.org/2000/svg"><sodipodi:namedview
     id="namedview24647"
     pagecolor="#505050"
     bordercolor="#eeeeee"
     borderopacity="1"
     inkscape:showpageshadow="0"
     inkscape:pageopacity="0"
     inkscape:pagecheckerboard="0"
     inkscape:deskcolor="#505050"
     inkscape:document-units="px"
     showgrid="false"
     inkscape:zoom="1.0672419"
     inkscape:cx="-434.29706"
     inkscape:cy="561.25984"
     inkscape:window-width="2560"
     inkscape:window-height="1400"
     inkscape:window-x="0"
     inkscape:window-y="0"
     inkscape:window-maximized="1"
     inkscape:current-layer="layer1"><inkscape:page
       x="0"
       y="0"
       width="176.38887"
       height="148.27058"
       id="page25488" /><inkscape:page
       x="1.0131322e-05"
       y="-0.00014826895"
       width="176.38889"
       height="148.27074"
       id="page25490" /></sodipodi:namedview><defs
     id="defs24642"><clipPath
       clipPathUnits="userSpaceOnUse"
       id="clipPath24665"><path
         d="M 0,420.295 H 500 V 0 H 0 Z"
         id="path24663" /></clipPath><linearGradient
       x1="0"
       y1="0"
       x2="1"
       y2="0"
       gradientUnits="userSpaceOnUse"
       gradientTransform="matrix(56.830776,0,0,-56.830776,436.91754,154.76163)"
       spreadMethod="pad"
       id="linearGradient24753"><stop
         style="stop-opacity:1;stop-color:#828282"
         offset="0"
         id="stop24749" /><stop
         style="stop-opacity:1;stop-color:#414141"
         offset="1"
         id="stop24751" /></linearGradient><clipPath
       clipPathUnits="userSpaceOnUse"
       id="clipPath24763"><path
         d="M 0,420.295 H 500 V 0 H 0 Z"
         id="path24761" /></clipPath><clipPath
       clipPathUnits="userSpaceOnUse"
       id="clipPath24771"><path
         d="M 67.3135,213.362 H 575.287 V -129.976 H 67.3135 Z"
         id="path24769" /></clipPath><clipPath
       clipPathUnits="userSpaceOnUse"
       id="clipPath24775"><path
         d="m 436.92,112.235 v 9.933 c -0.026,8.627 -0.014,17.083 10.059,29.482 -7.379,4.881 -10.059,11.794 -10.059,25.277 v 7.23 l 21.765,5.037 v -16.021 c 0,-3.725 2.318,-6.444 6.647,-5.444 4.331,0.999 6.649,4.788 6.649,8.514 l 0.002,16.02 21.765,5.026 v -7.242 c 0,-13.484 -2.681,-21.634 -10.06,-29.922 10.061,-7.739 10.06,-16.205 10.06,-24.837 v -9.934 l -21.765,-5.024 v 16.902 c 0,6.026 -2.32,8.688 -6.651,7.689 -4.329,-1 -6.647,-4.732 -6.647,-10.759 v -16.903 z"
         id="path24773" /></clipPath><linearGradient
       x1="0"
       y1="0"
       x2="1"
       y2="0"
       gradientUnits="userSpaceOnUse"
       gradientTransform="matrix(21.791807,0,0,-21.791807,407.45721,151.25162)"
       spreadMethod="pad"
       id="linearGradient24809"><stop
         style="stop-opacity:1;stop-color:#828282"
         offset="0"
         id="stop24805" /><stop
         style="stop-opacity:1;stop-color:#414141"
         offset="1"
         id="stop24807" /></linearGradient><clipPath
       clipPathUnits="userSpaceOnUse"
       id="clipPath24819"><path
         d="M 0,420.295 H 500 V 0 H 0 Z"
         id="path24817" /></clipPath><clipPath
       clipPathUnits="userSpaceOnUse"
       id="clipPath24827"><path
         d="M 67.3135,213.362 H 575.287 V -129.976 H 67.3135 Z"
         id="path24825" /></clipPath><clipPath
       clipPathUnits="userSpaceOnUse"
       id="clipPath24831"><path
         d="m 407.457,184.706 21.792,5.03 v -71.938 l -21.792,-5.031 z"
         id="path24829" /></clipPath><linearGradient
       x1="0"
       y1="0"
       x2="1"
       y2="0"
       gradientUnits="userSpaceOnUse"
       gradientTransform="matrix(87.564323,0,0,-87.564323,313.16519,128.06688)"
       spreadMethod="pad"
       id="linearGradient24865"><stop
         style="stop-opacity:1;stop-color:#828282"
         offset="0"
         id="stop24861" /><stop
         style="stop-opacity:1;stop-color:#414141"
         offset="1"
         id="stop24863" /></linearGradient><clipPath
       clipPathUnits="userSpaceOnUse"
       id="clipPath24875"><path
         d="M 0,420.295 H 500 V 0 H 0 Z"
         id="path24873" /></clipPath><clipPath
       clipPathUnits="userSpaceOnUse"
       id="clipPath24883"><path
         d="M -14.3535,301.557 H 575.287 V -129.976 H -14.3535 Z"
         id="path24881" /></clipPath><clipPath
       clipPathUnits="userSpaceOnUse"
       id="clipPath24887"><path
         d="m 393.217,166.817 c -5.343,4.909 -12.552,6.462 -20.995,4.513 -5.669,-1.309 -10.232,-3.679 -15.275,-8.061 -5.043,2.053 -9.578,2.322 -15.276,1.008 -8.418,-1.944 -15.652,-6.832 -20.995,-14.207 -5.619,-7.758 -7.511,-14.672 -7.511,-27.699 V 83.987 l 21.871,5.049 v 42.541 c 0,6.411 2.066,9.094 5.441,9.873 3.375,0.778 5.534,-0.928 5.534,-7.339 V 91.57 l 21.871,5.049 v 42.542 c 0,6.41 2.159,9.114 5.534,9.893 3.375,0.78 5.442,-0.949 5.442,-7.36 V 99.153 l 21.871,5.05 v 38.384 c 0,13.027 -1.893,19.067 -7.512,24.23"
         id="path24885" /></clipPath><linearGradient
       x1="0"
       y1="0"
       x2="1"
       y2="0"
       gradientUnits="userSpaceOnUse"
       gradientTransform="matrix(56.827354,0,0,-56.827354,248.75916,117.06616)"
       spreadMethod="pad"
       id="linearGradient24925"><stop
         style="stop-opacity:1;stop-color:#828282"
         offset="0"
         id="stop24921" /><stop
         style="stop-opacity:1;stop-color:#414141"
         offset="1"
         id="stop24923" /></linearGradient><clipPath
       clipPathUnits="userSpaceOnUse"
       id="clipPath24935"><path
         d="M 0,420.295 H 500 V 0 H 0 Z"
         id="path24933" /></clipPath><clipPath
       clipPathUnits="userSpaceOnUse"
       id="clipPath24943"><path
         d="M -14.3535,301.557 H 494.293 V -50.2393 H -14.3535 Z"
         id="path24941" /></clipPath><clipPath
       clipPathUnits="userSpaceOnUse"
       id="clipPath24947"><path
         d="m 284.391,117.95 -7.218,2.307 -7.217,-5.64 1.352,8.78 -5.813,4.67 8.053,3.119 3.625,8.527 3.624,-6.853 8.055,0.6 -5.814,-7.355 z m 15.083,32.967 c -5.142,5.7 -13.675,7.905 -22.301,5.914 -8.627,-1.992 -17.147,-8.144 -22.282,-16.207 -4.501,-7.069 -6.132,-13.484 -6.132,-24.395 V 76.584 l 21.739,5.019 V 97.39 l 13.35,3.063 V 84.685 l 21.739,5.019 v 39.644 c 0,10.911 -1.619,16.586 -6.113,21.569"
         id="path24945" /></clipPath><linearGradient
       x1="0"
       y1="0"
       x2="1"
       y2="0"
       gradientUnits="userSpaceOnUse"
       gradientTransform="matrix(56.032082,0,0,-56.032082,186.14464,100.29617)"
       spreadMethod="pad"
       id="linearGradient24981"><stop
         style="stop-opacity:1;stop-color:#828282"
         offset="0"
         id="stop24977" /><stop
         style="stop-opacity:1;stop-color:#414141"
         offset="1"
         id="stop24979" /></linearGradient><clipPath
       clipPathUnits="userSpaceOnUse"
       id="clipPath24991"><path
         d="M 0,420.295 H 500 V 0 H 0 Z"
         id="path24989" /></clipPath><clipPath
       clipPathUnits="userSpaceOnUse"
       id="clipPath24999"><path
         d="M -14.3535,301.557 H 494.293 V -50.2393 H -14.3535 Z"
         id="path24997" /></clipPath><clipPath
       clipPathUnits="userSpaceOnUse"
       id="clipPath25003"><path
         d="m 242.177,68.132 c -7.273,-3.055 -11.59,-4.575 -17.439,-5.925 -12.217,-2.821 -20.145,-1.663 -27.392,3.867 -7.219,5.508 -11.201,14.327 -11.201,24.92 0,10.138 3.668,20.674 10.246,29.094 7.172,9.181 16.293,14.824 28.692,17.686 5.44,1.256 10.007,1.879 17.094,2.094 v -22.541 c -6.663,-0.135 -10.82,-0.643 -15.926,-1.821 -11.891,-2.747 -18.633,-9.83 -18.633,-19.595 0,-8.208 5.043,-12.978 12.82,-12.259 v 21.452 l 21.739,5.02 z"
         id="path25001" /></clipPath><linearGradient
       x1="0"
       y1="0"
       x2="1"
       y2="0"
       gradientUnits="userSpaceOnUse"
       gradientTransform="matrix(46.025215,0,0,-46.025215,133.19273,93.539627)"
       spreadMethod="pad"
       id="linearGradient25037"><stop
         style="stop-opacity:1;stop-color:#828282"
         offset="0"
         id="stop25033" /><stop
         style="stop-opacity:1;stop-color:#414141"
         offset="1"
         id="stop25035" /></linearGradient><clipPath
       clipPathUnits="userSpaceOnUse"
       id="clipPath25047"><path
         d="M 0,420.295 H 500 V 0 H 0 Z"
         id="path25045" /></clipPath><clipPath
       clipPathUnits="userSpaceOnUse"
       id="clipPath25055"><path
         d="M -14.3535,301.557 H 494.293 V -50.2393 H -14.3535 Z"
         id="path25053" /></clipPath><clipPath
       clipPathUnits="userSpaceOnUse"
       id="clipPath25059"><path
         d="m 156.364,55.563 c -8.52,-1.967 -12.749,-1.685 -16.802,0.858 -4.23,2.655 -6.37,7.483 -6.37,14.065 0,7.963 2.761,13.14 10.034,18.689 -6.875,1.989 -9.344,5.2 -9.344,12.18 0,6.795 2.774,13.338 7.565,18.237 3.78,3.866 9.423,6.693 17.12,8.447 l 20.65,4.767 v -20.278 l -14.492,-3.346 c -5.733,-1.323 -7.485,-2.666 -7.485,-5.798 0,-3.131 1.752,-3.665 7.485,-2.341 l 14.492,3.345 V 89.186 L 164.725,85.84 c -5.733,-1.323 -6.317,-4.012 -6.317,-5.525 0,-1.619 0.584,-3.967 6.317,-2.643 l 14.492,3.345 V 60.84 Z"
         id="path25057" /></clipPath><linearGradient
       x1="0"
       y1="0"
       x2="1"
       y2="0"
       gradientUnits="userSpaceOnUse"
       gradientTransform="matrix(87.564346,0,0,-87.564346,39.284412,65.868278)"
       spreadMethod="pad"
       id="linearGradient25093"><stop
         style="stop-opacity:1;stop-color:#828282"
         offset="0"
         id="stop25089" /><stop
         style="stop-opacity:1;stop-color:#414141"
         offset="1"
         id="stop25091" /></linearGradient><clipPath
       clipPathUnits="userSpaceOnUse"
       id="clipPath25103"><path
         d="M 0,420.295 H 500 V 0 H 0 Z"
         id="path25101" /></clipPath><clipPath
       clipPathUnits="userSpaceOnUse"
       id="clipPath25111"><path
         d="M -14.3535,301.557 H 494.293 V -50.2393 H -14.3535 Z"
         id="path25109" /></clipPath><clipPath
       clipPathUnits="userSpaceOnUse"
       id="clipPath25115"><path
         d="m 119.337,104.619 c -5.342,4.908 -12.552,6.462 -20.995,4.513 -5.67,-1.31 -10.232,-3.68 -15.276,-8.061 -5.043,2.053 -9.578,2.322 -15.275,1.007 C 59.374,100.134 52.139,95.247 46.796,87.871 41.177,80.114 39.285,73.2 39.285,60.173 V 21.788 l 21.871,5.05 v 42.541 c 0,6.411 2.066,9.092 5.441,9.872 3.375,0.779 5.534,-0.927 5.534,-7.338 V 29.372 l 21.871,5.049 v 42.541 c 0,6.411 2.159,9.115 5.534,9.894 3.376,0.778 5.442,-0.949 5.442,-7.36 V 36.955 l 21.871,5.049 v 38.384 c 0,13.028 -1.893,19.068 -7.512,24.231"
         id="path25113" /></clipPath><linearGradient
       x1="0"
       y1="0"
       x2="1"
       y2="0"
       gradientUnits="userSpaceOnUse"
       gradientTransform="matrix(46.025215,0,0,-46.025215,59.912506,149.32709)"
       spreadMethod="pad"
       id="linearGradient25149"><stop
         style="stop-opacity:1;stop-color:#828282"
         offset="0"
         id="stop25145" /><stop
         style="stop-opacity:1;stop-color:#414141"
         offset="1"
         id="stop25147" /></linearGradient><clipPath
       clipPathUnits="userSpaceOnUse"
       id="clipPath25159"><path
         d="m 85.288,183.827 c -7.699,-1.755 -13.342,-4.582 -17.12,-8.447 v 0 c -4.792,-4.899 -7.566,-11.442 -7.566,-18.236 v 0 c 0,-6.983 2.468,-10.193 9.343,-12.181 v 0 C 62.673,139.414 59.913,134.236 59.913,126.275 v 0 c 0,-6.584 2.138,-11.413 6.369,-14.067 v 0 c 4.053,-2.542 8.282,-2.826 16.801,-0.858 v 0 l 22.854,5.276 v 20.179 l -14.492,-3.346 c -5.733,-1.323 -6.317,1.024 -6.317,2.643 v 0 c 0,1.513 0.584,4.203 6.317,5.526 v 0 l 14.492,3.347 v 15.202 L 91.445,156.83 c -5.733,-1.323 -7.486,-0.791 -7.486,2.341 v 0 c 0,3.133 1.753,4.475 7.486,5.798 v 0 l 14.492,3.346 v 20.278 z"
         id="path25157" /></clipPath><clipPath
       clipPathUnits="userSpaceOnUse"
       id="clipPath25167"><path
         d="M -59.5979,231.884 H 152.519 V 75.6819 H -59.5979 Z"
         id="path25165" /></clipPath><clipPath
       clipPathUnits="userSpaceOnUse"
       id="clipPath25183"><path
         d="M 0,420.295 H 500 V 0 H 0 Z"
         id="path25181" /></clipPath><linearGradient
       x1="0"
       y1="0"
       x2="1"
       y2="0"
       gradientUnits="userSpaceOnUse"
       gradientTransform="matrix(49.280464,0,0,-49.280464,5.7701192,127.04012)"
       spreadMethod="pad"
       id="linearGradient25205"><stop
         style="stop-opacity:1;stop-color:#828282"
         offset="0"
         id="stop25201" /><stop
         style="stop-opacity:1;stop-color:#414141"
         offset="1"
         id="stop25203" /></linearGradient><clipPath
       clipPathUnits="userSpaceOnUse"
       id="clipPath25215"><path
         d="m 38.953,166.184 c -2.728,0.017 -6.071,-0.49 -10.027,-1.518 v 0 L 5.77,158.646 V 87.895 l 19.56,5.084 -10e-4,22.472 2.788,0.725 v -0.029 c 3.147,0.577 5.155,0.339 6.025,-0.714 v 0 c 0.869,-1.051 1.305,-3.808 1.305,-8.266 v 0 -11.558 l 19.604,5.097 v 13.632 c 0,4.734 -0.48,8.22 -1.44,10.459 v 0 c -0.959,2.238 -2.833,4.273 -5.621,6.105 v 0 c 4.467,4.962 6.7,11.003 6.7,18.121 v 0 c 0,7.81 -2.773,13.015 -8.318,15.617 v 0 c -2.137,1.031 -4.546,1.545 -7.226,1.545 v 0 c -0.064,0 -0.129,0 -0.193,-0.001 m -14.235,-18.867 -0.642,4.301 c 0.021,0.008 0.04,0.016 0.062,0.022 v 0 c 3.542,0.919 6.413,-1.645 6.412,-5.728 v 0 c 0,-0.84 -0.125,-1.706 -0.368,-2.561 v 0 l 4.274,-3.935 c 2.059,0.537 3.728,-0.954 3.727,-3.328 v 0 c -10e-4,-2.371 -1.669,-4.727 -3.727,-5.261 v 0 c -2.057,-0.533 -3.724,0.955 -3.725,3.325 v 0 l -4.195,3.859 c -0.762,-0.553 -1.576,-0.947 -2.398,-1.161 v 0 c -3.543,-0.921 -6.416,1.643 -6.415,5.728 v 0 c 0.004,0.463 0.047,0.932 0.127,1.406 v 0 l 3.587,-0.624 z"
         id="path25213" /></clipPath><clipPath
       clipPathUnits="userSpaceOnUse"
       id="clipPath25223"><path
         d="M -59.5979,231.884 H 152.519 V 75.6819 H -59.5979 Z"
         id="path25221" /></clipPath><clipPath
       clipPathUnits="userSpaceOnUse"
       id="clipPath25239"><path
         d="M 0,420.295 H 500 V 0 H 0 Z"
         id="path25237" /></clipPath><radialGradient
       fx="0"
       fy="0"
       cx="0"
       cy="0"
       r="1"
       gradientUnits="userSpaceOnUse"
       gradientTransform="matrix(10.784949,0,0,-10.784949,433.54916,114.98988)"
       spreadMethod="pad"
       id="radialGradient25263"><stop
         style="stop-opacity:1;stop-color:#ffffff"
         offset="0"
         id="stop25257" /><stop
         style="stop-opacity:1;stop-color:#4087da"
         offset="0.675"
         id="stop25259" /><stop
         style="stop-opacity:1;stop-color:#4087da"
         offset="1"
         id="stop25261" /></radialGradient><clipPath
       clipPathUnits="userSpaceOnUse"
       id="clipPath25273"><path
         d="M 0,420.295 H 500 V 0 H 0 Z"
         id="path25271" /></clipPath><radialGradient
       fx="0"
       fy="0"
       cx="0"
       cy="0"
       r="1"
       gradientUnits="userSpaceOnUse"
       gradientTransform="matrix(9.3912745,0,0,-9.3912745,212.58153,140.05022)"
       spreadMethod="pad"
       id="radialGradient25297"><stop
         style="stop-opacity:1;stop-color:#ffffff"
         offset="0"
         id="stop25291" /><stop
         style="stop-opacity:1;stop-color:#4087da"
         offset="0.675"
         id="stop25293" /><stop
         style="stop-opacity:1;stop-color:#4087da"
         offset="1"
         id="stop25295" /></radialGradient><clipPath
       clipPathUnits="userSpaceOnUse"
       id="clipPath25307"><path
         d="M 0,420.295 H 500 V 0 H 0 Z"
         id="path25305" /></clipPath><radialGradient
       fx="0"
       fy="0"
       cx="0"
       cy="0"
       r="1"
       gradientUnits="userSpaceOnUse"
       gradientTransform="matrix(10.898106,0,0,-10.898106,38.886391,19.635361)"
       spreadMethod="pad"
       id="radialGradient25331"><stop
         style="stop-opacity:1;stop-color:#ffffff"
         offset="0"
         id="stop25325" /><stop
         style="stop-opacity:1;stop-color:#4087da"
         offset="0.675"
         id="stop25327" /><stop
         style="stop-opacity:1;stop-color:#4087da"
         offset="1"
         id="stop25329" /></radialGradient><clipPath
       clipPathUnits="userSpaceOnUse"
       id="clipPath25341"><path
         d="M 0,420.295 H 500 V 0 H 0 Z"
         id="path25339" /></clipPath></defs><g
     inkscape:label="Rhythm Heaven Re-Megamix Logo"
     inkscape:groupmode="layer"
     id="layer1"
     transform="translate(-220,-1.4826896e-4)"><g
       id="g24659"
       transform="matrix(0.35277777,0,0,-0.35277777,220,148.27074)"><g
         id="g24661"
         clip-path="url(#clipPath24665)"><g
           id="g24667"
           transform="translate(426.8764,321.6842)"><path
             d="m 0,0 c -4.618,48.823 -45.891,87.151 -95.955,87.151 -35.941,0 -68.438,-20.113 -84.955,-50.821 -10.383,3.651 -21.372,5.539 -32.531,5.539 -17.428,0 -34.598,-4.706 -49.504,-13.427 -13.853,7.518 -29.294,11.443 -45.307,11.443 -52.624,0 -95.438,-42.88 -95.438,-95.586 0,-36.215 20.3,-68.616 51.312,-84.79 -2.334,-7.362 -3.534,-15.065 -3.534,-22.9 0,-42.672 35.546,-77.389 79.237,-77.389 26.469,0 50.151,12.589 64.591,32.434 17.599,-16.297 40.916,-25.696 65.841,-25.696 40.283,0 75.805,24.897 90.17,61.212 2.368,-0.179 4.743,-0.269 7.119,-0.269 51.969,0 94.247,41.874 94.247,93.346 C 45.293,-46.971 27.843,-16.788 0,0"
             style="fill:#000000;fill-opacity:1;fill-rule:nonzero;stroke:none"
             id="path24669" /></g><g
           id="g24671"
           transform="translate(416.6235,315.2321)"><path
             d="m 0,0 c -1.422,45.986 -39.32,82.962 -85.702,82.962 -35.251,0 -66.778,-21.747 -79.635,-53.893 -11.744,5.654 -24.662,8.61 -37.851,8.61 -17.878,0 -34.813,-5.253 -49.314,-15.247 -13.597,8.694 -29.214,13.263 -45.497,13.263 -46.757,0 -84.796,-38.105 -84.796,-84.944 0,-35.464 21.894,-66.81 54.292,-79.282 -4.282,-8.84 -6.514,-18.505 -6.514,-28.407 0,-36.805 30.771,-66.748 68.595,-66.748 27.725,0 51.909,15.885 62.671,39.518 16.178,-20.538 40.922,-32.78 67.761,-32.78 38.647,0 72.369,25.728 82.9,62.178 4.751,-0.82 9.567,-1.234 14.389,-1.234 46.1,0 83.605,37.101 83.605,82.703 C 44.904,-42.449 27.436,-14.19 0,0"
             style="fill:#4087da;fill-opacity:1;fill-rule:nonzero;stroke:none"
             id="path24673" /></g><g
           id="g24675"
           transform="translate(409.1508,310.5475)"><path
             d="m 0,0 c 0.017,0.67 0.051,1.335 0.051,2.01 0,43.174 -35.048,78.173 -78.28,78.173 -35.973,0 -66.257,-24.239 -75.422,-57.248 -12.176,7.568 -26.594,11.966 -42.064,11.966 -18.598,0 -35.679,-6.346 -49.161,-16.935 -12.796,9.393 -28.572,14.951 -45.65,14.951 -42.71,0 -77.333,-34.689 -77.333,-77.481 0,-36.069 24.6,-66.379 57.907,-75.013 -6.396,-9.37 -10.13,-20.599 -10.13,-32.677 0,-32.742 27.37,-59.284 61.133,-59.284 30.326,0 55.481,21.419 60.289,49.507 13.073,-25.389 39.565,-42.77 70.143,-42.77 38.365,0 70.314,27.348 77.366,63.565 6.352,-1.699 13.027,-2.62 19.923,-2.62 42.052,0 76.142,33.685 76.142,75.239 C 44.914,-38.063 26.474,-11.783 0,0"
             style="fill:#000000;fill-opacity:1;fill-rule:nonzero;stroke:none"
             id="path24677" /></g><path
           d="m 398.294,166.538 h 4.609 v 4.61 h -4.609 z"
           style="fill:#000000;fill-opacity:1;fill-rule:nonzero;stroke:none"
           id="path24679" /><g
           id="g24681"
           transform="translate(406.6548,210.6271)"><path
             d="m 0,0 v 6.57 l -1.652,-6.951 -1.789,-0.413 -1.613,6.198 v -6.571 l -1.69,-0.39 v 7.865 l 2.641,0.61 1.593,-5.871 0.02,0.005 1.553,6.597 2.608,0.602 V 0.386 Z m -12.209,-2.819 v 6.47 L -14.93,3.023 v 1.391 l 7.196,1.661 v -1.39 l -2.622,-0.606 v -6.47 z"
             style="fill:#4087da;fill-opacity:1;fill-rule:nonzero;stroke:none"
             id="path24683" /></g><g
           id="g24685"
           transform="translate(374.3276,278.946)"><path
             d="m 0,0 c 0,0 -0.106,-27.736 -0.451,-32.615 -0.54,-7.62 -2.588,-7.825 -4.33,-6.682 -3.477,2.281 -9.974,15.271 -15.79,26.567 l -8.488,-1.96 v -70.188 l 10.378,2.396 0.035,17.809 c 0.018,9.142 2.514,9.737 6.141,6.416 2.752,-2.52 6.497,-8.077 12.399,-17.526 l 13.732,3.171 V 3.146 Z"
             style="fill:#4087da;fill-opacity:1;fill-rule:nonzero;stroke:none"
             id="path24687" /></g><g
           id="g24689"
           transform="translate(321.9487,208.6364)"><path
             d="m 0,0 c -0.315,-0.001 -2.646,0.078 -2.896,1.856 -0.144,1.03 0.351,1.997 1.594,2.758 1.946,1.19 8.678,3.125 15.14,4.64 v 8.936 c 0,0 -11.7,-2.815 -15.299,-2.28 -1.093,0.162 -1.821,0.74 -1.966,1.75 -0.147,1.032 0.372,1.962 1.594,2.757 3.291,2.144 18.062,5.33 18.062,5.33 v 20.619 l -30.413,-7.022 v -54.962 l 31.05,7.168 V 2.97 C 8.579,1.087 2.978,0.016 0,0"
             style="fill:#4087da;fill-opacity:1;fill-rule:nonzero;stroke:none"
             id="path24691" /></g><g
           id="g24693"
           transform="translate(288.3266,249.6437)"><path
             d="m 0,0 c 0,0 -3.295,-21.707 -6.22,-31.738 -0.836,-2.866 -2.856,-7.252 -5.604,-0.981 -0.985,2.246 -3.906,12.74 -6.051,26.267 l -9.487,-2.19 c 0.83,-9.302 5.384,-34.424 11.453,-49.061 l 18.401,4.248 c 6.774,17.926 10.837,36.858 12.218,56.851 z"
             style="fill:#4087da;fill-opacity:1;fill-rule:nonzero;stroke:none"
             id="path24695" /></g><g
           id="g24697"
           transform="translate(247.5552,188.6881)"><path
             d="m 0,0 c -1.466,-0.319 -4.8,-1.163 -6.504,-1.482 -1.63,-0.32 -2.583,0.6 -2.381,2.927 0.183,2.177 1.139,6.794 1.502,8.353 0.802,3.447 2.378,4.884 4.232,5.142 2.376,0.331 4.452,-1.746 5.588,-7.376 C 2.546,7.02 2.824,5.89 3.004,4.354 3.224,2.49 2.309,0.582 0,0 M 8.11,31.116 C 3.505,39.6 -1.851,37.842 -4.594,36.934 -8.189,35.745 -11.381,33.898 -14.72,20.653 -18.229,6.73 -22.051,-22.515 -22.051,-22.515 l 9.635,2.224 0.99,5.545 c 0.478,2.679 2.182,4.38 4.781,5.144 0,0 7.465,1.938 10.014,2.228 1.076,0.122 2.341,-0.728 2.709,-2.413 l 1.301,-5.966 13.122,3.029 c 0,0 -6.527,33.037 -12.391,43.84"
             style="fill:#4087da;fill-opacity:1;fill-rule:nonzero;stroke:none"
             id="path24699" /></g><g
           id="g24701"
           transform="translate(204.229,177.6461)"><path
             d="m 0,0 c -0.315,-0.002 -2.646,0.077 -2.895,1.856 -0.145,1.03 0.35,1.997 1.593,2.757 1.946,1.191 8.678,3.125 15.14,4.641 v 8.935 c 0,0 -11.7,-2.815 -15.299,-2.28 -1.093,0.163 -1.821,0.74 -1.965,1.75 -0.148,1.032 0.372,1.962 1.593,2.758 3.291,2.144 18.062,5.33 18.062,5.33 v 22.224 l -30.413,-7.022 v -54.963 l 31.05,7.169 V 2.97 C 8.579,1.087 2.978,0.017 0,0"
             style="fill:#4087da;fill-opacity:1;fill-rule:nonzero;stroke:none"
             id="path24703" /></g><g
           id="g24705"
           transform="translate(166.498,223.5285)"><path
             d="m 0,0 c 0,-10.968 0.056,-19.176 -1.447,-24.555 -0.913,-3.267 -2.922,-5.754 -5.604,-7.637 -2.733,-1.917 -5.472,-2.757 -8.155,-2.81 -3.271,-0.065 -5.662,1.715 -6.012,5.35 -0.502,5.222 -0.469,11.82 -0.469,20.964 L -33.56,-11.43 v -80.873 l 16.309,3.764 c 0,10.293 0.211,17.879 1.48,22.612 0.864,3.224 3.215,5.946 5.59,7.549 2.774,1.874 5.327,2.811 8.015,2.854 3.267,0.054 5.748,-1.633 6.056,-4.891 0.451,-4.773 0.481,-11.263 0.481,-20.121 l 12.085,2.79 V 3.799 Z"
             style="fill:#4087da;fill-opacity:1;fill-rule:nonzero;stroke:none"
             id="path24707" /></g><g
           id="g24709"
           transform="translate(363.1714,354.1544)"><path
             d="m 0,0 c -5.062,-16.718 -7.928,-24.892 -10.424,-31.783 -4.255,-11.726 -8.667,-7.12 -10.723,-3.85 -2.391,3.832 -5.644,11.286 -11.287,24.945 l -13.94,-3.217 v -65.622 l 11.567,2.67 c -0.088,10.46 0.088,17.562 0.651,20.322 0.51,2.479 2.004,2.83 3.515,0.369 1.248,-2.022 3.218,-6.399 7.138,-15.399 l 7.75,1.789 c 4.273,11.479 6.577,17.267 8.212,20.097 1.318,2.303 3.832,3.92 4.588,-0.334 0.58,-3.217 0.527,-11.945 0.51,-22.633 l 11.989,2.768 V 2.204 Z"
             style="fill:#4087da;fill-opacity:1;fill-rule:nonzero;stroke:none"
             id="path24711" /></g><g
           id="g24713"
           transform="translate(296.476,319.8918)"><path
             d="m 0,0 c -0.053,-8.965 -0.035,-17.14 -0.422,-20.128 -0.896,-7.138 -13.097,-10.354 -13.694,-3.78 -0.281,3.094 -0.528,7.181 -0.528,16.305 l -9.862,-2.276 v -60.122 l 12.569,2.902 c 0,9.545 0,13.693 0.159,16.963 0.439,8.614 13.378,10.565 14.503,3.076 0.509,-3.41 0.597,-5.045 0.597,-12.745 l 10.021,2.313 V 3.081 Z"
             style="fill:#4087da;fill-opacity:1;fill-rule:nonzero;stroke:none"
             id="path24715" /></g><g
           id="g24717"
           transform="translate(229.7798,314.9259)"><path
             d="m 0,0 v -24.2 l 7.014,1.619 c 4.254,0.983 6.012,0.429 6.012,-7.102 v -31.064 l 11.515,2.639 v 28.496 c 0,12.657 1.188,15.852 7.453,17.298 l 5.732,1.323 v 19.7 z"
             style="fill:#4087da;fill-opacity:1;fill-rule:nonzero;stroke:none"
             id="path24719" /></g><g
           id="g24721"
           transform="translate(225.0683,298.943)"><path
             d="m 0,0 -10.759,-2.484 c 0,0 0.158,-11.075 -0.263,-19.232 -0.616,-11.936 -12.64,-14.503 -13.606,-3.146 -0.493,5.959 -0.721,17.837 -0.721,17.837 l -13.378,-3.088 v -9.686 c 0,-23.118 15.03,-25.965 22.888,-19.373 0.475,0.404 0.949,0.651 1.336,0.475 0.44,-0.194 0.422,-0.668 0.246,-1.547 -0.474,-2.303 -3.885,-6.856 -10.776,-8.702 -5.256,-1.407 -10.407,-2.294 -12.973,-2.698 v -16.042 c 11.567,1.495 24.962,4.799 31.203,14.398 3.252,5.01 4.957,10.301 5.801,18.142 C 0.316,-22.806 0,0 0,0"
             style="fill:#4087da;fill-opacity:1;fill-rule:nonzero;stroke:none"
             id="path24723" /></g><g
           id="g24725"
           transform="translate(166.4414,299.9401)"><path
             d="m 0,0 c -0.053,-8.966 -0.035,-17.14 -0.422,-20.128 -0.896,-7.138 -13.097,-10.355 -13.694,-3.78 -0.281,3.094 -0.528,7.181 -0.528,16.305 l -9.862,-2.277 v -60.121 l 12.569,2.902 c 0,9.545 0,13.693 0.159,16.962 0.439,8.615 13.378,10.566 14.503,3.077 0.509,-3.411 0.597,-5.045 0.597,-12.745 l 10.021,2.313 V 3.08 Z"
             style="fill:#4087da;fill-opacity:1;fill-rule:nonzero;stroke:none"
             id="path24727" /></g><g
           id="g24729"
           transform="translate(100.9756,263.779)"><path
             d="m 0,0 c -4.799,-1.125 -7.471,1.547 -7.471,7.26 v 5.52 c 0,3.982 0.773,7.436 4.325,8.561 10.31,3.267 17.491,-1.177 17.491,-8.156 C 14.345,6.663 9.353,2.198 0,0 m 34.754,23.855 c 0,25.367 -24.821,32.733 -55.181,21.887 v -81.887 l 12.938,2.987 v 20.501 c 0,3.129 2.303,2.584 4.43,0.686 1.495,-1.337 10.477,-10.038 16.753,-16.297 l 19.752,4.56 c 0,0 -17.22,17.591 -19.207,19.331 11.568,4.324 20.515,15.594 20.515,28.232"
             style="fill:#4087da;fill-opacity:1;fill-rule:nonzero;stroke:none"
             id="path24731" /></g><g
           id="g24733"
           transform="translate(500.0005,204.9845)"><path
             d="m 0,0 -69.333,-16.021 v -84.425 L 0,-84.439 v 16.189 c 0,8.024 -0.001,16.979 -7.819,25.193 C -2.26,-34.901 0,-26.048 0,-13.494 Z"
             style="fill:#000000;fill-opacity:1;fill-rule:nonzero;stroke:none"
             id="path24735" /></g></g></g><g
       id="g24737"
       transform="matrix(0.35277777,0,0,-0.35277777,220,148.27074)"><g
         id="g24739"><g
           id="g24745"><g
             id="g24747"><path
               d="m 471.983,192.263 -0.002,-16.021 c 0,-3.725 -2.32,-7.513 -6.649,-8.513 v 0 c -4.329,-0.999 -6.647,1.718 -6.647,5.444 v 0 16.021 l -21.765,-5.036 v -7.231 c 0,-13.484 2.68,-20.395 10.06,-25.278 v 0 c -10.074,-12.398 -10.087,-20.855 -10.06,-29.481 v 0 -9.934 l 21.765,5.026 v 16.902 c 0,6.026 2.318,9.759 6.647,10.759 v 0 c 4.329,0.999 6.651,-1.664 6.651,-7.69 v 0 -16.901 l 21.765,5.024 v 9.934 c 0,8.632 0,17.098 -10.06,24.837 v 0 c 7.379,8.287 10.06,16.437 10.06,29.922 v 0 7.242 z"
               style="fill:url(#linearGradient24753);stroke:none"
               id="path24755" /></g></g></g></g><g
       id="g24757"
       transform="matrix(0.35277777,0,0,-0.35277777,220,148.27074)"><g
         id="g24759"
         clip-path="url(#clipPath24763)"><g
           id="g24765"><g
             id="g24767" /><g
             id="g24787"><g
               clip-path="url(#clipPath24771)"
               opacity="0.199997"
               id="g24785"><g
                 id="g24783"><g
                   clip-path="url(#clipPath24775)"
                   id="g24781"><g
                     transform="translate(95.0508,-129.9759)"
                     id="g24779"><path
                       d="m 0,0 -27.737,52.785 480.263,290.553 27.71,-52.812 z"
                       style="fill:#ffffff;fill-opacity:1;fill-rule:nonzero;stroke:none"
                       id="path24777" /></g></g></g></g></g></g><g
           id="g24789"
           transform="translate(401.2055,189.5143)"><path
             d="m 0,0 v -84.443 l 34.296,7.918 V 7.918 Z"
             style="fill:#000000;fill-opacity:1;fill-rule:nonzero;stroke:none"
             id="path24791" /></g></g></g><g
       id="g24793"
       transform="matrix(0.35277777,0,0,-0.35277777,220,148.27074)"><g
         id="g24795"><g
           id="g24801"><g
             id="g24803"><path
               d="m 407.458,184.706 v -71.939 l 21.792,5.03 v 71.939 z"
               style="fill:url(#linearGradient24809);stroke:none"
               id="path24811" /></g></g></g></g><g
       id="g24813"
       transform="matrix(0.35277777,0,0,-0.35277777,220,148.27074)"><g
         id="g24815"
         clip-path="url(#clipPath24819)"><g
           id="g24821"><g
             id="g24823" /><g
             id="g24843"><g
               clip-path="url(#clipPath24827)"
               opacity="0.199997"
               id="g24841"><g
                 id="g24839"><g
                   clip-path="url(#clipPath24831)"
                   id="g24837"><g
                     transform="translate(95.0508,-129.9759)"
                     id="g24835"><path
                       d="m 0,0 -27.737,52.785 480.263,290.553 27.71,-52.812 z"
                       style="fill:#ffffff;fill-opacity:1;fill-rule:nonzero;stroke:none"
                       id="path24833" /></g></g></g></g></g></g><g
           id="g24845"
           transform="translate(397.935,172.0094)"><path
             d="m 0,0 c -6.549,6.017 -15.44,7.944 -25.713,5.572 -5.608,-1.295 -10.452,-3.533 -15.275,-7.108 -4.824,1.348 -9.666,1.35 -15.276,0.056 -10.272,-2.373 -19.164,-8.405 -25.713,-17.446 -6.678,-9.221 -9.045,-17.636 -9.045,-32.155 V -95.719 L 9.047,-72.616 v 44.637 C 9.047,-13.458 6.68,-6.137 0,0"
             style="fill:#000000;fill-opacity:1;fill-rule:nonzero;stroke:none"
             id="path24847" /></g></g></g><g
       id="g24849"
       transform="matrix(0.35277777,0,0,-0.35277777,220,148.27074)"><g
         id="g24851"><g
           id="g24857"><g
             id="g24859"><path
               d="m 372.221,171.329 c -5.668,-1.309 -10.23,-3.678 -15.275,-8.06 v 0 c -5.042,2.053 -9.578,2.324 -15.275,1.008 v 0 c -8.416,-1.944 -15.652,-6.832 -20.995,-14.208 v 0 c -5.619,-7.756 -7.51,-14.671 -7.51,-27.698 v 0 -38.384 l 21.87,5.05 v 42.539 c 0,6.412 2.065,9.095 5.441,9.873 v 0 c 3.375,0.779 5.534,-0.927 5.534,-7.338 v 0 -42.541 l 21.871,5.049 v 42.542 c 0,6.409 2.159,9.114 5.533,9.893 v 0 c 3.376,0.78 5.443,-0.95 5.443,-7.36 v 0 -42.541 l 21.871,5.049 v 38.385 c 0,13.027 -1.892,19.067 -7.512,24.229 v 0 c -3.846,3.535 -8.662,5.331 -14.208,5.331 v 0 c -2.157,0 -4.424,-0.271 -6.788,-0.818"
               style="fill:url(#linearGradient24865);stroke:none"
               id="path24867" /></g></g></g></g><g
       id="g24869"
       transform="matrix(0.35277777,0,0,-0.35277777,220,148.27074)"><g
         id="g24871"
         clip-path="url(#clipPath24875)"><g
           id="g24877"><g
             id="g24879" /><g
             id="g24903"><g
               clip-path="url(#clipPath24883)"
               opacity="0.199997"
               id="g24901"><g
                 id="g24899"><g
                   clip-path="url(#clipPath24887)"
                   id="g24897"><g
                     transform="translate(14.5776,-50.2396)"
                     id="g24891"><path
                       d="m 0,0 -28.931,59.601 479.715,292.195 28.932,-59.6 z"
                       style="fill:#ffffff;fill-opacity:1;fill-rule:nonzero;stroke:none"
                       id="path24889" /></g><g
                     transform="translate(95.0508,-129.9759)"
                     id="g24895"><path
                       d="m 0,0 -27.737,52.785 480.263,290.553 27.71,-52.812 z"
                       style="fill:#ffffff;fill-opacity:1;fill-rule:nonzero;stroke:none"
                       id="path24893" /></g></g></g></g></g></g><g
           id="g24905"
           transform="translate(304.4848,155.8122)"><path
             d="m 0,0 c -6.249,6.931 -16.715,9.717 -27.312,7.271 -10.584,-2.444 -21.042,-10.059 -27.292,-19.876 -5.375,-8.439 -7.374,-16.142 -7.374,-28.421 V -86.924 L 7.354,-70.917 V -25.02 C 7.354,-12.726 5.361,-5.944 0,0"
             style="fill:#000000;fill-opacity:1;fill-rule:nonzero;stroke:none"
             id="path24907" /></g></g></g><g
       id="g24909"
       transform="matrix(0.35277777,0,0,-0.35277777,220,148.27074)"><g
         id="g24911"><g
           id="g24917"><g
             id="g24919"><path
               d="m 277.173,156.83 c -8.626,-1.991 -17.146,-8.143 -22.282,-16.208 v 0 c -4.502,-7.066 -6.132,-13.482 -6.132,-24.392 v 0 -39.646 l 21.74,5.018 V 97.39 l 13.349,3.063 V 84.686 l 21.738,5.017 v 39.645 c 0,10.912 -1.618,16.585 -6.112,21.568 v 0 c -3.895,4.32 -9.741,6.633 -16.096,6.633 v 0 c -2.033,0 -4.116,-0.236 -6.205,-0.719 m -5.865,-33.433 -5.813,4.67 8.054,3.118 3.624,8.527 3.625,-6.852 8.054,0.599 -5.815,-7.354 1.354,-8.155 -7.218,2.307 -7.218,-5.64 z"
               style="fill:url(#linearGradient24925);stroke:none"
               id="path24927" /></g></g></g></g><g
       id="g24929"
       transform="matrix(0.35277777,0,0,-0.35277777,220,148.27074)"><g
         id="g24931"
         clip-path="url(#clipPath24935)"><g
           id="g24937"><g
             id="g24939" /><g
             id="g24959"><g
               clip-path="url(#clipPath24943)"
               opacity="0.199997"
               id="g24957"><g
                 id="g24955"><g
                   clip-path="url(#clipPath24947)"
                   id="g24953"><g
                     transform="translate(14.5776,-50.2396)"
                     id="g24951"><path
                       d="m 0,0 -28.931,59.601 479.715,292.195 28.932,-59.6 z"
                       style="fill:#ffffff;fill-opacity:1;fill-rule:nonzero;stroke:none"
                       id="path24949" /></g></g></g></g></g></g><g
           id="g24961"
           transform="translate(243.4062,146.2819)"><path
             d="m 0,0 c -7.178,-0.218 -12.144,-0.828 -18.323,-2.255 -14.015,-3.236 -24.882,-9.997 -33.219,-20.671 -7.608,-9.74 -11.972,-22.062 -11.972,-33.806 0,-12.237 4.634,-22.509 13.047,-28.928 8.468,-6.463 17.978,-7.859 31.799,-4.668 6.044,1.395 10.564,2.927 18.6,6.302 l 5.091,2.138 V 0.153 Z"
             style="fill:#000000;fill-opacity:1;fill-rule:nonzero;stroke:none"
             id="path24963" /></g></g></g><g
       id="g24965"
       transform="matrix(0.35277777,0,0,-0.35277777,220,148.27074)"><g
         id="g24967"><g
           id="g24973"><g
             id="g24975"><path
               d="m 225.083,137.774 c -12.399,-2.862 -21.52,-8.503 -28.693,-17.685 v 0 c -6.576,-8.422 -10.246,-18.955 -10.246,-29.095 v 0 c 0,-10.593 3.984,-19.413 11.202,-24.92 v 0 c 7.247,-5.529 15.175,-6.687 27.392,-3.867 v 0 c 5.849,1.35 10.166,2.87 17.438,5.925 v 0 41.992 l -21.738,-5.019 V 83.652 c -7.777,-0.719 -12.82,4.051 -12.82,12.259 v 0 c 0,9.766 6.741,16.848 18.633,19.593 v 0 c 5.107,1.18 9.264,1.688 15.925,1.823 v 0 22.541 c -7.087,-0.214 -11.653,-0.838 -17.093,-2.094"
               style="fill:url(#linearGradient24981);stroke:none"
               id="path24983" /></g></g></g></g><g
       id="g24985"
       transform="matrix(0.35277777,0,0,-0.35277777,220,148.27074)"><g
         id="g24987"
         clip-path="url(#clipPath24991)"><g
           id="g24993"><g
             id="g24995" /><g
             id="g25015"><g
               clip-path="url(#clipPath24999)"
               opacity="0.199997"
               id="g25013"><g
                 id="g25011"><g
                   clip-path="url(#clipPath25003)"
                   id="g25009"><g
                     transform="translate(14.5776,-50.2396)"
                     id="g25007"><path
                       d="m 0,0 -28.931,59.601 479.715,292.195 28.932,-59.6 z"
                       style="fill:#ffffff;fill-opacity:1;fill-rule:nonzero;stroke:none"
                       id="path25005" /></g></g></g></g></g></g><g
           id="g25017"
           transform="translate(158.5854,134.2956)"><path
             d="m 0,0 c -9.151,-2.063 -16.019,-5.583 -21.019,-10.697 -6.314,-6.457 -9.937,-15.09 -9.937,-23.687 0,-6.012 1.588,-10.255 5.116,-13.201 -3.969,-5.134 -5.806,-10.838 -5.806,-17.668 0,-8.467 2.958,-14.797 8.551,-18.307 6.058,-3.801 12.478,-3.363 20.874,-1.424 l 29.105,6.718 V 6.207 Z"
             style="fill:#000000;fill-opacity:1;fill-rule:nonzero;stroke:none"
             id="path25019" /></g></g></g><g
       id="g25021"
       transform="matrix(0.35277777,0,0,-0.35277777,220,148.27074)"><g
         id="g25023"><g
           id="g25029"><g
             id="g25031"><path
               d="m 158.567,128.038 c -7.697,-1.754 -13.34,-4.58 -17.119,-8.446 v 0 c -4.791,-4.899 -7.566,-11.442 -7.566,-18.237 v 0 c 0,-6.98 2.469,-10.191 9.344,-12.179 v 0 c -7.272,-5.55 -10.033,-10.727 -10.033,-18.689 v 0 c 0,-6.584 2.138,-11.412 6.369,-14.066 v 0 c 4.053,-2.543 8.282,-2.826 16.802,-0.858 v 0 l 22.854,5.276 v 20.178 l -14.493,-3.345 c -5.732,-1.324 -6.317,1.023 -6.317,2.642 v 0 c 0,1.513 0.585,4.204 6.317,5.527 v 0 l 14.493,3.346 v 15.202 l -14.493,-3.346 c -5.732,-1.324 -7.485,-0.79 -7.485,2.342 v 0 c 0,3.131 1.753,4.474 7.485,5.798 v 0 l 14.493,3.345 v 20.279 z"
               style="fill:url(#linearGradient25037);stroke:none"
               id="path25039" /></g></g></g></g><g
       id="g25041"
       transform="matrix(0.35277777,0,0,-0.35277777,220,148.27074)"><g
         id="g25043"
         clip-path="url(#clipPath25047)"><g
           id="g25049"><g
             id="g25051" /><g
             id="g25071"><g
               clip-path="url(#clipPath25055)"
               opacity="0.199997"
               id="g25069"><g
                 id="g25067"><g
                   clip-path="url(#clipPath25059)"
                   id="g25065"><g
                     transform="translate(14.5776,-50.2396)"
                     id="g25063"><path
                       d="m 0,0 -28.931,59.601 479.715,292.195 28.932,-59.6 z"
                       style="fill:#ffffff;fill-opacity:1;fill-rule:nonzero;stroke:none"
                       id="path25061" /></g></g></g></g></g></g><g
           id="g25073"
           transform="translate(124.0542,109.8102)"><path
             d="m 0,0 c -6.548,6.018 -15.439,7.944 -25.712,5.573 -5.61,-1.295 -10.454,-3.534 -15.275,-7.108 -4.823,1.348 -9.666,1.35 -15.276,0.055 -10.273,-2.372 -19.164,-8.405 -25.713,-17.446 -6.679,-9.22 -9.046,-17.635 -9.046,-32.155 V -95.718 L 9.047,-72.615 v 44.636 C 9.047,-13.458 6.68,-6.136 0,0"
             style="fill:#000000;fill-opacity:1;fill-rule:nonzero;stroke:none"
             id="path25075" /></g></g></g><g
       id="g25077"
       transform="matrix(0.35277777,0,0,-0.35277777,220,148.27074)"><g
         id="g25079"><g
           id="g25085"><g
             id="g25087"><path
               d="m 98.342,109.131 c -5.67,-1.309 -10.233,-3.678 -15.276,-8.06 v 0 c -5.042,2.053 -9.577,2.323 -15.274,1.008 v 0 C 59.374,100.134 52.139,95.247 46.796,87.871 v 0 c -5.619,-7.758 -7.511,-14.672 -7.511,-27.7 v 0 -38.382 l 21.871,5.049 v 42.54 c 0,6.411 2.065,9.094 5.441,9.872 v 0 c 3.374,0.78 5.534,-0.928 5.534,-7.337 v 0 -42.542 l 21.871,5.05 v 42.542 c 0,6.409 2.159,9.114 5.534,9.893 v 0 c 3.375,0.779 5.441,-0.949 5.441,-7.36 v 0 -42.542 l 21.872,5.05 v 38.384 c 0,13.027 -1.893,19.067 -7.513,24.23 v 0 c -3.846,3.535 -8.661,5.33 -14.208,5.33 v 0 c -2.155,0.001 -4.422,-0.271 -6.786,-0.817"
               style="fill:url(#linearGradient25093);stroke:none"
               id="path25095" /></g></g></g></g><g
       id="g25097"
       transform="matrix(0.35277777,0,0,-0.35277777,220,148.27074)"><g
         id="g25099"
         clip-path="url(#clipPath25103)"><g
           id="g25105"><g
             id="g25107" /><g
             id="g25127"><g
               clip-path="url(#clipPath25111)"
               opacity="0.199997"
               id="g25125"><g
                 id="g25123"><g
                   clip-path="url(#clipPath25115)"
                   id="g25121"><g
                     transform="translate(14.5776,-50.2396)"
                     id="g25119"><path
                       d="m 0,0 -28.931,59.601 479.715,292.195 28.932,-59.6 z"
                       style="fill:#ffffff;fill-opacity:1;fill-rule:nonzero;stroke:none"
                       id="path25117" /></g></g></g></g></g></g><g
           id="g25129"
           transform="translate(85.3052,190.0827)"><path
             d="m 0,0 c -9.151,-2.063 -16.018,-5.583 -21.02,-10.697 -6.314,-6.457 -9.936,-15.09 -9.936,-23.686 0,-6.013 1.588,-10.257 5.116,-13.202 -3.969,-5.134 -5.805,-10.838 -5.805,-17.668 0,-8.467 2.956,-14.796 8.55,-18.307 6.057,-3.8 12.478,-3.363 20.873,-1.425 l 29.107,6.72 V 6.207 Z"
             style="fill:#000000;fill-opacity:1;fill-rule:nonzero;stroke:none"
             id="path25131" /></g></g></g><g
       id="g25133"
       transform="matrix(0.35277777,0,0,-0.35277777,220,148.27074)"><g
         id="g25135"><g
           id="g25141"><g
             id="g25143"><path
               d="m 85.288,183.827 c -7.699,-1.755 -13.342,-4.582 -17.12,-8.447 v 0 c -4.792,-4.899 -7.566,-11.442 -7.566,-18.236 v 0 c 0,-6.983 2.468,-10.193 9.343,-12.181 v 0 C 62.673,139.414 59.913,134.236 59.913,126.275 v 0 c 0,-6.584 2.138,-11.413 6.369,-14.067 v 0 c 4.053,-2.542 8.282,-2.826 16.801,-0.858 v 0 l 22.854,5.276 v 20.179 l -14.492,-3.346 c -5.733,-1.323 -6.317,1.024 -6.317,2.643 v 0 c 0,1.513 0.584,4.203 6.317,5.526 v 0 l 14.492,3.347 v 15.202 L 91.445,156.83 c -5.733,-1.323 -7.486,-0.791 -7.486,2.341 v 0 c 0,3.133 1.753,4.475 7.486,5.798 v 0 l 14.492,3.346 v 20.278 z"
               style="fill:url(#linearGradient25149);stroke:none"
               id="path25151" /></g></g></g></g><g
       id="g25153"
       transform="matrix(0.35277777,0,0,-0.35277777,220,148.27074)"><g
         id="g25155"
         clip-path="url(#clipPath25159)"><g
           id="g25161"><g
             id="g25163" /><g
             id="g25175"><g
               clip-path="url(#clipPath25167)"
               opacity="0.25"
               id="g25173"><g
                 transform="translate(-59.5977,117.5836)"
                 id="g25171"><path
                   d="M 0,0 186.426,114.3 212.117,72.398 25.69,-41.901 Z"
                   style="fill:#ffffff;fill-opacity:1;fill-rule:evenodd;stroke:none"
                   id="path25169" /></g></g></g></g></g></g><g
       id="g25177"
       transform="matrix(0.35277777,0,0,-0.35277777,220,148.27074)"><g
         id="g25179"
         clip-path="url(#clipPath25183)"><g
           id="g25185"
           transform="translate(0,82.3004)"><path
             d="m 0,0 v 80.811 c 10.327,2.628 20.604,5.455 30.965,7.941 5.68,1.199 11.835,1.456 17.258,-0.916 5.411,-2.276 9.67,-7.129 11.137,-12.824 1.646,-5.812 1.346,-12.053 -0.187,-17.854 -0.778,-2.679 -1.885,-5.269 -3.341,-7.652 2.584,-2.846 4.154,-6.542 4.532,-10.359 0.788,-5.703 0.323,-11.472 0.456,-17.208 V 13.942 C 40.544,8.674 20.275,3.405 0,-1.864 Z"
             style="fill:#000000;fill-opacity:1;fill-rule:nonzero;stroke:none"
             id="path25187" /></g></g></g><g
       id="g25189"
       transform="matrix(0.35277777,0,0,-0.35277777,220,148.27074)"><g
         id="g25191"><g
           id="g25197"><g
             id="g25199"><path
               d="m 38.953,166.184 c -2.728,0.017 -6.071,-0.49 -10.027,-1.518 v 0 L 5.77,158.646 V 87.895 l 19.559,5.084 v 22.472 l 2.788,0.725 v -0.029 c 3.147,0.577 5.155,0.339 6.025,-0.714 v 0 c 0.869,-1.051 1.305,-3.808 1.305,-8.266 v 0 -11.558 l 19.604,5.097 v 13.632 c 0,4.734 -0.48,8.22 -1.44,10.459 v 0 c -0.959,2.238 -2.833,4.273 -5.621,6.105 v 0 c 4.467,4.962 6.7,11.003 6.7,18.121 v 0 c 0,7.81 -2.773,13.015 -8.318,15.617 v 0 c -2.137,1.031 -4.546,1.545 -7.226,1.545 v 0 c -0.064,0 -0.129,0 -0.193,-0.001 m -14.235,-18.867 -0.642,4.301 c 0.021,0.008 0.04,0.016 0.062,0.022 v 0 c 3.542,0.919 6.413,-1.645 6.412,-5.728 v 0 c 0,-0.84 -0.125,-1.706 -0.368,-2.561 v 0 l 4.274,-3.935 c 2.059,0.537 3.728,-0.954 3.727,-3.328 v 0 c -10e-4,-2.371 -1.669,-4.727 -3.727,-5.261 v 0 c -2.057,-0.533 -3.724,0.955 -3.725,3.325 v 0 l -4.195,3.859 c -0.762,-0.553 -1.576,-0.947 -2.398,-1.161 v 0 c -3.544,-0.921 -6.416,1.643 -6.415,5.728 v 0 c 0.004,0.463 0.047,0.932 0.127,1.406 v 0 l 3.587,-0.625 z"
               style="fill:url(#linearGradient25205);stroke:none"
               id="path25207" /></g></g></g></g><g
       id="g25209"
       transform="matrix(0.35277777,0,0,-0.35277777,220,148.27074)"><g
         id="g25211"
         clip-path="url(#clipPath25215)"><g
           id="g25217"><g
             id="g25219" /><g
             id="g25231"><g
               clip-path="url(#clipPath25223)"
               opacity="0.25"
               id="g25229"><g
                 transform="translate(-59.5977,117.5836)"
                 id="g25227"><path
                   d="M 0,0 186.426,114.3 212.117,72.398 25.69,-41.901 Z"
                   style="fill:#ffffff;fill-opacity:1;fill-rule:evenodd;stroke:none"
                   id="path25225" /></g></g></g></g></g></g><g
       id="g25233"
       transform="matrix(0.35277777,0,0,-0.35277777,220,148.27074)"><g
         id="g25235"
         clip-path="url(#clipPath25239)"><g
           id="g25241"
           transform="translate(453.9477,121.5211)"><path
             d="m 0,0 -14.264,1.486 -6.868,12.64 -5.811,-13.169 -14.136,-2.63 10.687,-9.593 -1.837,-14.182 12.393,7.138 12.962,-6.208 -2.981,14.068 z"
             style="fill:#000000;fill-opacity:1;fill-rule:nonzero;stroke:none"
             id="path25243" /></g></g></g><g
       id="g25245"
       transform="matrix(0.35277777,0,0,-0.35277777,220,148.27074)"><g
         id="g25247"><g
           id="g25253"><g
             id="g25255"><path
               d="m 430.125,118.533 -7.565,-1.406 5.707,-5.124 -0.981,-7.59 6.635,3.822 6.927,-3.318 -1.591,7.511 5.281,5.601 -7.645,0.796 -3.662,6.742 z"
               style="fill:url(#radialGradient25263);stroke:none"
               id="path25265" /></g></g></g></g><g
       id="g25267"
       transform="matrix(0.35277777,0,0,-0.35277777,220,148.27074)"><g
         id="g25269"
         clip-path="url(#clipPath25273)"><g
           id="g25275"
           transform="translate(222.7856,141.0016)"><path
             d="m 0,0 5.021,11.548 -12.22,-3.018 -9.439,8.336 -0.905,-12.559 -10.85,-6.431 11.685,-4.714 2.712,-12.303 8.137,9.644 12.544,-1.209 z"
             style="fill:#000000;fill-opacity:1;fill-rule:nonzero;stroke:none"
             id="path25277" /></g></g></g><g
       id="g25279"
       transform="matrix(0.35277777,0,0,-0.35277777,220,148.27074)"><g
         id="g25281"><g
           id="g25287"><g
             id="g25289"><path
               d="m 209.051,142.952 -5.733,-3.397 6.184,-2.495 1.434,-6.502 4.3,5.095 6.609,-0.637 -3.53,5.654 2.654,6.105 -6.45,-1.592 -4.99,4.405 z"
               style="fill:url(#radialGradient25297);stroke:none"
               id="path25299" /></g></g></g></g><g
       id="g25301"
       transform="matrix(0.35277777,0,0,-0.35277777,220,148.27074)"><g
         id="g25303"
         clip-path="url(#clipPath25307)"><g
           id="g25309"
           transform="translate(48.8906,23.5866)"><path
             d="m 0,0 2.672,13.457 -12.291,-6.052 -11.943,6.699 1.923,-13.555 -10.073,-9.323 13.514,-2.338 5.673,-12.475 6.47,12.141 13.622,1.597 z"
             style="fill:#000000;fill-opacity:1;fill-rule:nonzero;stroke:none"
             id="path25311" /></g></g></g><g
       id="g25313"
       transform="matrix(0.35277777,0,0,-0.35277777,220,148.27074)"><g
         id="g25315"><g
           id="g25321"><g
             id="g25323"><path
               d="m 33.472,22.634 -5.707,-5.281 7.671,-1.327 3.212,-7.06 3.663,6.873 7.697,0.903 -5.415,5.574 1.513,7.618 -6.954,-3.424 -6.769,3.796 z"
               style="fill:url(#radialGradient25331);stroke:none"
               id="path25333" /></g></g></g></g><g
       id="g25335"
       transform="matrix(0.35277777,0,0,-0.35277777,220,148.27074)"><g
         id="g25337"
         clip-path="url(#clipPath25341)"><g
           id="g25343"
           transform="translate(408.3247,416.6886)"><path
             d="m 0,0 c -2.24,0 -4.478,-0.16 -6.695,-0.479 -0.133,-0.028 -0.267,-0.057 -0.4,-0.087 l -1.384,-5.422 h 0.487 c -5.451,-1.047 -10.64,-3.166 -15.265,-6.236 l 0.168,0.168 -4.846,2.717 c -0.985,-0.681 -1.944,-1.399 -2.875,-2.153 -1.693,-1.467 -3.28,-3.053 -4.747,-4.747 -0.82,-1.005 -1.597,-2.043 -2.332,-3.113 l 2.791,-4.705 0.331,0.331 c -3.088,-4.642 -5.218,-9.854 -6.267,-15.33 l -5.554,-1.564 c -0.301,-2.13 -0.454,-4.278 -0.461,-6.429 0,-2.241 0.16,-4.478 0.48,-6.697 0.058,-0.286 0.121,-0.571 0.185,-0.856 l 5.466,-1.396 v 0.498 c 1.087,-5.312 3.195,-10.363 6.208,-14.872 l -0.482,0.482 -2.711,-4.836 c 0.738,-1.077 1.52,-2.123 2.346,-3.134 1.467,-1.694 3.054,-3.28 4.747,-4.747 0.919,-0.745 1.867,-1.454 2.84,-2.126 l 4.779,2.836 -0.204,0.202 c 4.751,-3.189 10.107,-5.371 15.734,-6.41 h -1.22 l 1.511,-5.369 c 0.224,-0.05 0.45,-0.099 0.675,-0.146 2.217,-0.319 4.455,-0.479 6.695,-0.479 2.238,0 4.474,0.16 6.688,0.479 l 1.407,5.509 H 7.631 c 5.715,1.057 11.147,3.292 15.952,6.563 l 4.941,-2.771 c 0.78,0.547 1.543,1.118 2.288,1.712 1.694,1.467 3.28,3.053 4.748,4.747 0.953,1.154 1.85,2.354 2.69,3.594 l -2.868,4.835 -0.045,-0.045 c 2.777,4.424 4.703,9.328 5.678,14.46 l 5.599,1.575 c 0.291,2.118 0.437,4.254 0.437,6.392 0,0.77 -0.02,1.539 -0.058,2.308 -0.037,0.769 -0.094,1.536 -0.169,2.303 -0.075,0.766 -0.17,1.53 -0.283,2.292 -0.037,0.224 -0.076,0.448 -0.117,0.672 l -5.503,1.406 v -0.05 c -1.106,5.096 -3.151,9.94 -6.033,14.284 l 0.01,-0.011 2.784,4.964 c -0.425,0.57 -0.862,1.13 -1.312,1.679 -0.488,0.596 -0.991,1.179 -1.509,1.75 -0.516,0.57 -1.048,1.128 -1.591,1.672 -0.544,0.545 -1.102,1.076 -1.672,1.593 -0.571,0.517 -1.155,1.02 -1.75,1.507 -0.595,0.489 -1.202,0.963 -1.82,1.422 -0.119,0.084 -0.238,0.169 -0.358,0.252 l -4.773,-2.83 0.295,-0.294 c -4.468,2.969 -9.466,5.053 -14.721,6.137 H 8.497 L 6.956,-0.518 C 6.939,-0.515 6.922,-0.512 6.904,-0.51 6.143,-0.396 5.379,-0.302 4.612,-0.227 3.847,-0.151 3.078,-0.094 2.31,-0.056 1.54,-0.019 0.771,0 0.001,0 Z"
             style="fill:#8898b0;fill-opacity:1;fill-rule:evenodd;stroke:none"
             id="path25345" /></g><g
           id="g25347"
           transform="translate(408.3257,402.9084)"><path
             d="m 0,0 c 18.374,0 33.27,-14.896 33.27,-33.27 0,-18.374 -14.896,-33.269 -33.27,-33.269 -18.374,0 -33.27,14.895 -33.27,33.269 C -33.27,-14.896 -18.374,0 0,0"
             style="fill:#404040;fill-opacity:1;fill-rule:evenodd;stroke:none"
             id="path25349" /></g><g
           id="g25351"
           transform="translate(408.3257,395.6916)"><path
             d="m 0,0 c -14.365,0 -26.053,-11.687 -26.053,-26.053 0,-14.365 11.688,-26.052 26.053,-26.052 14.366,0 26.053,11.687 26.053,26.052 C 26.053,-11.687 14.366,0 0,0 m 0,-55.249 c -16.099,0 -29.196,13.098 -29.196,29.196 0,16.099 13.097,29.197 29.196,29.197 16.1,0 29.197,-13.098 29.197,-29.197 C 29.197,-42.151 16.1,-55.249 0,-55.249"
             style="fill:#8898b0;fill-opacity:1;fill-rule:nonzero;stroke:none"
             id="path25353" /></g><g
           id="g25355"
           transform="translate(408.3257,379.4503)"><path
             d="m 0,0 c 5.419,0 9.812,-4.393 9.812,-9.812 0,-5.418 -4.393,-9.811 -9.812,-9.811 -5.418,0 -9.812,4.393 -9.812,9.811 C -9.812,-4.393 -5.418,0 0,0"
             style="fill:#8898b0;fill-opacity:1;fill-rule:evenodd;stroke:none"
             id="path25357" /></g><g
           id="g25359"
           transform="translate(331.1899,420.2946)"><path
             d="M 0,0 C -1.643,0 -3.283,-0.117 -4.908,-0.351 -5.007,-0.372 -5.104,-0.393 -5.202,-0.415 L -6.216,-4.39 h 0.357 c -3.997,-0.767 -7.801,-2.321 -11.192,-4.572 l 0.123,0.123 -3.552,1.992 c -0.722,-0.499 -1.425,-1.025 -2.108,-1.578 -1.241,-1.075 -2.404,-2.239 -3.48,-3.48 -0.601,-0.737 -1.171,-1.498 -1.709,-2.283 l 2.046,-3.449 0.243,0.243 c -2.265,-3.403 -3.827,-7.224 -4.595,-11.239 l -4.072,-1.146 c -0.221,-1.562 -0.333,-3.137 -0.338,-4.714 0,-1.643 0.117,-3.283 0.351,-4.909 0.043,-0.21 0.089,-0.419 0.136,-0.628 l 4.007,-1.024 v 0.366 c 0.798,-3.895 2.343,-7.598 4.552,-10.904 l -0.354,0.354 -1.988,-3.546 c 0.542,-0.789 1.116,-1.556 1.721,-2.298 1.076,-1.241 2.239,-2.404 3.48,-3.48 0.674,-0.545 1.369,-1.065 2.082,-1.558 l 3.503,2.078 -0.148,0.149 c 3.483,-2.338 7.409,-3.938 11.534,-4.7 h -0.895 l 1.109,-3.935 c 0.165,-0.037 0.33,-0.073 0.495,-0.108 1.625,-0.234 3.265,-0.351 4.908,-0.351 1.641,10e-4 3.279,0.118 4.903,0.351 l 1.031,4.039 H 5.595 c 4.189,0.775 8.172,2.414 11.694,4.812 l 3.623,-2.031 c 0.571,0.4 1.131,0.819 1.677,1.254 1.241,1.076 2.404,2.239 3.48,3.48 0.7,0.847 1.358,1.727 1.973,2.636 l -2.103,3.544 -0.033,-0.033 c 2.036,3.244 3.448,6.839 4.163,10.601 l 4.105,1.155 c 0.213,1.553 0.32,3.118 0.32,4.686 0,0.564 -0.015,1.128 -0.042,1.692 -0.028,0.564 -0.069,1.127 -0.124,1.688 -0.056,0.562 -0.125,1.122 -0.208,1.681 -0.027,0.164 -0.056,0.328 -0.086,0.492 L 30,-27.909 v -0.036 c -0.811,3.735 -2.311,7.287 -4.424,10.472 l 0.008,-0.008 2.041,3.639 c -0.312,0.418 -0.632,0.828 -0.961,1.231 -0.358,0.437 -0.727,0.864 -1.106,1.283 -0.379,0.418 -0.768,0.827 -1.167,1.225 -0.4,0.4 -0.808,0.789 -1.226,1.168 -0.419,0.379 -0.847,0.747 -1.283,1.105 -0.436,0.359 -0.881,0.706 -1.334,1.042 -0.087,0.062 -0.175,0.124 -0.263,0.185 l -3.498,-2.074 0.216,-0.216 c -3.276,2.177 -6.94,3.705 -10.793,4.499 H 6.229 L 5.1,-0.379 5.062,-0.374 C 4.503,-0.291 3.943,-0.222 3.381,-0.166 2.819,-0.111 2.257,-0.069 1.692,-0.042 1.129,-0.014 0.564,0 0,0"
             style="fill:#8898b0;fill-opacity:1;fill-rule:evenodd;stroke:none"
             id="path25361" /></g><g
           id="g25363"
           transform="translate(331.1899,410.1916)"><path
             d="m 0,0 c 13.471,0 24.391,-10.92 24.391,-24.391 0,-13.47 -10.92,-24.39 -24.391,-24.39 -13.47,0 -24.39,10.92 -24.39,24.39 C -24.39,-10.92 -13.47,0 0,0"
             style="fill:#404040;fill-opacity:1;fill-rule:evenodd;stroke:none"
             id="path25365" /></g><g
           id="g25367"
           transform="translate(331.1909,404.9015)"><path
             d="m 0,0 c -10.532,0 -19.101,-8.568 -19.101,-19.101 0,-10.531 8.569,-19.1 19.101,-19.1 10.531,0 19.1,8.569 19.1,19.1 C 19.1,-8.568 10.531,0 0,0 m 0,-40.505 c -11.803,0 -21.405,9.602 -21.405,21.404 0,11.803 9.602,21.406 21.405,21.406 11.803,0 21.404,-9.603 21.404,-21.406 0,-11.802 -9.601,-21.404 -21.404,-21.404"
             style="fill:#8898b0;fill-opacity:1;fill-rule:nonzero;stroke:none"
             id="path25369" /></g><g
           id="g25371"
           transform="translate(331.1899,392.9938)"><path
             d="m 0,0 c 3.973,0 7.193,-3.22 7.193,-7.193 0,-3.972 -3.22,-7.192 -7.193,-7.192 -3.972,0 -7.192,3.22 -7.192,7.192 C -7.192,-3.22 -3.972,0 0,0"
             style="fill:#8898b0;fill-opacity:1;fill-rule:evenodd;stroke:none"
             id="path25373" /></g><g
           id="g25375"
           transform="translate(183.7837,337.5641)"><path
             d="m 0,0 c 1.237,0 2.24,-1.024 2.24,-2.288 v -0.001 c 0,-1.264 -1.002,-2.289 -2.239,-2.289 H 0 c -1.236,0.001 -2.238,1.025 -2.238,2.289 0,1.264 1.002,2.288 2.238,2.289 M 8.592,9.139 12.315,5.639 7.422,4.167 Z M 7.916,15.051 C -2.316,8.182 -14.59,-9.147 -14.089,-15.035 c 3.644,-0.315 12.301,3.366 20.036,8.643 4.807,3.28 9.257,7.177 11.926,11.116 z"
             style="fill:#d8d8d8;fill-opacity:1;fill-rule:nonzero;stroke:none"
             id="path25377" /></g><g
           id="g25379"
           transform="translate(231.2075,400.6569)"><path
             d="m 0,0 c -28.101,-6.529 -43.407,-49.979 -43.407,-49.979 l 4.675,-7.508 c 0.11,-0.051 7.541,-4.552 7.541,-4.552 0,0 43.281,15.779 49.504,43.949 0,0 0.146,4.453 -2.715,4.798 -3.473,0.418 -4.909,-1.376 -4.909,-1.376 -14.918,-31.021 -32.457,-31.127 -42.599,-36.662 5.418,10.207 4.574,28.496 35.415,43.744 0,0 1.779,1.453 1.323,4.922 C 4.453,0.194 0,0 0,0 Z"
             style="fill:#2c5e87;fill-opacity:1;fill-rule:nonzero;stroke:none"
             id="path25381" /></g><g
           id="g25383"
           transform="translate(30.1338,274.5216)"><path
             d="M 0,0 C 2.758,0 4.993,-2.236 4.994,-4.994 4.995,-7.752 2.759,-9.99 0,-9.99 v 0 c -2.759,0 -4.995,2.237 -4.994,4.995 v 0.001 C -4.994,-2.236 -2.758,0 0,0 M 88.49,116.327 C 77.468,116.326 68.532,107.39 68.531,96.368 c 0.006,-2.944 0.662,-5.85 1.922,-8.511 L 1.587,10.076 C 1.061,10.142 0.531,10.181 0,10.191 c -8.387,0 -15.185,-6.798 -15.185,-15.185 0,-8.386 6.798,-15.185 15.185,-15.185 8.386,0 15.185,6.799 15.185,15.185 -0.012,1.142 -0.153,2.279 -0.42,3.39 l 69.516,78.512 c 1.381,-0.316 2.793,-0.485 4.21,-0.502 11.024,-0.001 19.961,8.936 19.961,19.96 v 0.002 c -0.002,4.123 -1.282,8.145 -3.662,11.513 l -1.014,-10.084 -10.463,-4.714 -9.317,6.703 1.148,11.42 9.326,4.2 c -1.935,0.609 -3.951,0.919 -5.979,0.921 z"
             style="fill:#2c5e87;fill-opacity:1;fill-rule:evenodd;stroke:none"
             id="path25385" /></g></g></g></g></svg>
