<?xml version="1.0" encoding="UTF-8" standalone="no"?>
<!-- Created with Inkscape (http://www.inkscape.org/) -->

<svg
   version="1.1"
   id="svg2"
   width="666.66669"
   height="560.39331"
   viewBox="0 0 666.66669 560.39331"
   sodipodi:docname="Rhythm Paradise Re-Megamix Logo.ai"
   xmlns:inkscape="http://www.inkscape.org/namespaces/inkscape"
   xmlns:sodipodi="http://sodipodi.sourceforge.net/DTD/sodipodi-0.dtd"
   xmlns="http://www.w3.org/2000/svg"
   xmlns:svg="http://www.w3.org/2000/svg">
  <defs
     id="defs6">
    <clipPath
       clipPathUnits="userSpaceOnUse"
       id="clipPath16">
      <path
         d="M 0,420.295 H 500 V 0 H 0 Z"
         id="path14" />
    </clipPath>
    <linearGradient
       x1="0"
       y1="0"
       x2="1"
       y2="0"
       gradientUnits="userSpaceOnUse"
       gradientTransform="matrix(56.830776,0,0,-56.830776,436.91754,154.76158)"
       spreadMethod="pad"
       id="linearGradient50">
      <stop
         style="stop-opacity:1;stop-color:#828282"
         offset="0"
         id="stop46" />
      <stop
         style="stop-opacity:1;stop-color:#414141"
         offset="1"
         id="stop48" />
    </linearGradient>
    <clipPath
       clipPathUnits="userSpaceOnUse"
       id="clipPath60">
      <path
         d="M 0,420.295 H 500 V 0 H 0 Z"
         id="path58" />
    </clipPath>
    <clipPath
       clipPathUnits="userSpaceOnUse"
       id="clipPath68">
      <path
         d="M 67.3135,213.362 H 575.287 V -129.976 H 67.3135 Z"
         id="path66" />
    </clipPath>
    <clipPath
       clipPathUnits="userSpaceOnUse"
       id="clipPath72">
      <path
         d="m 436.92,112.235 v 9.933 c -0.026,8.626 -0.014,17.082 10.059,29.482 -7.378,4.881 -10.059,11.793 -10.059,25.277 v 7.23 l 21.765,5.036 v -16.019 c 0,-3.726 2.318,-6.445 6.648,-5.445 4.329,0.999 6.648,4.788 6.648,8.514 l 0.002,16.021 21.765,5.024 v -7.241 c 0,-13.484 -2.681,-21.634 -10.06,-29.923 10.061,-7.737 10.06,-16.204 10.06,-24.837 v -9.933 l -21.765,-5.025 v 16.903 c 0,6.027 -2.321,8.688 -6.65,7.688 -4.33,-0.999 -6.648,-4.731 -6.648,-10.758 v -16.903 z"
         id="path70" />
    </clipPath>
    <linearGradient
       x1="0"
       y1="0"
       x2="1"
       y2="0"
       gradientUnits="userSpaceOnUse"
       gradientTransform="matrix(21.791807,0,0,-21.791807,407.45721,151.25157)"
       spreadMethod="pad"
       id="linearGradient106">
      <stop
         style="stop-opacity:1;stop-color:#828282"
         offset="0"
         id="stop102" />
      <stop
         style="stop-opacity:1;stop-color:#414141"
         offset="1"
         id="stop104" />
    </linearGradient>
    <clipPath
       clipPathUnits="userSpaceOnUse"
       id="clipPath116">
      <path
         d="M 0,420.295 H 500 V 0 H 0 Z"
         id="path114" />
    </clipPath>
    <clipPath
       clipPathUnits="userSpaceOnUse"
       id="clipPath124">
      <path
         d="M 67.3135,213.362 H 575.287 V -129.976 H 67.3135 Z"
         id="path122" />
    </clipPath>
    <clipPath
       clipPathUnits="userSpaceOnUse"
       id="clipPath128">
      <path
         d="m 407.458,184.705 21.791,5.031 v -71.938 l -21.791,-5.031 z"
         id="path126" />
    </clipPath>
    <linearGradient
       x1="0"
       y1="0"
       x2="1"
       y2="0"
       gradientUnits="userSpaceOnUse"
       gradientTransform="matrix(87.564323,0,0,-87.564323,313.16519,128.06683)"
       spreadMethod="pad"
       id="linearGradient162">
      <stop
         style="stop-opacity:1;stop-color:#828282"
         offset="0"
         id="stop158" />
      <stop
         style="stop-opacity:1;stop-color:#414141"
         offset="1"
         id="stop160" />
    </linearGradient>
    <clipPath
       clipPathUnits="userSpaceOnUse"
       id="clipPath172">
      <path
         d="M 0,420.295 H 500 V 0 H 0 Z"
         id="path170" />
    </clipPath>
    <clipPath
       clipPathUnits="userSpaceOnUse"
       id="clipPath180">
      <path
         d="M -14.3535,301.557 H 575.287 V -129.976 H -14.3535 Z"
         id="path178" />
    </clipPath>
    <clipPath
       clipPathUnits="userSpaceOnUse"
       id="clipPath184">
      <path
         d="m 393.217,166.817 c -5.342,4.909 -12.552,6.462 -20.995,4.513 -5.669,-1.309 -10.232,-3.679 -15.275,-8.06 -5.043,2.052 -9.579,2.322 -15.275,1.007 -8.418,-1.944 -15.653,-6.832 -20.996,-14.207 -5.619,-7.758 -7.511,-14.672 -7.511,-27.699 V 83.987 l 21.871,5.049 v 42.541 c 0,6.411 2.066,9.093 5.441,9.872 3.375,0.78 5.534,-0.927 5.534,-7.338 V 91.57 l 21.871,5.049 v 42.541 c 0,6.411 2.16,9.115 5.535,9.894 3.375,0.779 5.441,-0.949 5.441,-7.36 V 99.153 l 21.871,5.049 v 38.385 c 0,13.027 -1.892,19.067 -7.512,24.23"
         id="path182" />
    </clipPath>
    <linearGradient
       x1="0"
       y1="0"
       x2="1"
       y2="0"
       gradientUnits="userSpaceOnUse"
       gradientTransform="matrix(56.827354,0,0,-56.827354,248.75916,117.06612)"
       spreadMethod="pad"
       id="linearGradient222">
      <stop
         style="stop-opacity:1;stop-color:#828282"
         offset="0"
         id="stop218" />
      <stop
         style="stop-opacity:1;stop-color:#414141"
         offset="1"
         id="stop220" />
    </linearGradient>
    <clipPath
       clipPathUnits="userSpaceOnUse"
       id="clipPath232">
      <path
         d="M 0,420.295 H 500 V 0 H 0 Z"
         id="path230" />
    </clipPath>
    <clipPath
       clipPathUnits="userSpaceOnUse"
       id="clipPath240">
      <path
         d="M -14.3535,301.557 H 494.293 V -50.2393 H -14.3535 Z"
         id="path238" />
    </clipPath>
    <clipPath
       clipPathUnits="userSpaceOnUse"
       id="clipPath244">
      <path
         d="m 284.391,117.949 -7.218,2.308 -7.218,-5.64 1.353,8.78 -5.814,4.67 8.054,3.119 3.625,8.527 3.625,-6.853 8.054,0.6 -5.814,-7.355 z m 15.083,32.967 c -5.141,5.701 -13.675,7.906 -22.301,5.914 -8.626,-1.991 -17.147,-8.143 -22.283,-16.207 -4.501,-7.067 -6.131,-13.483 -6.131,-24.394 V 76.584 l 21.739,5.019 V 97.39 l 13.351,3.063 V 84.685 l 21.738,5.019 v 39.644 c 0,10.912 -1.619,16.586 -6.113,21.568"
         id="path242" />
    </clipPath>
    <linearGradient
       x1="0"
       y1="0"
       x2="1"
       y2="0"
       gradientUnits="userSpaceOnUse"
       gradientTransform="matrix(56.032082,0,0,-56.032082,186.14464,100.29612)"
       spreadMethod="pad"
       id="linearGradient278">
      <stop
         style="stop-opacity:1;stop-color:#828282"
         offset="0"
         id="stop274" />
      <stop
         style="stop-opacity:1;stop-color:#414141"
         offset="1"
         id="stop276" />
    </linearGradient>
    <clipPath
       clipPathUnits="userSpaceOnUse"
       id="clipPath288">
      <path
         d="M 0,420.295 H 500 V 0 H 0 Z"
         id="path286" />
    </clipPath>
    <clipPath
       clipPathUnits="userSpaceOnUse"
       id="clipPath296">
      <path
         d="M -14.3535,301.557 H 494.293 V -50.2393 H -14.3535 Z"
         id="path294" />
    </clipPath>
    <clipPath
       clipPathUnits="userSpaceOnUse"
       id="clipPath300">
      <path
         d="m 242.177,68.131 c -7.273,-3.054 -11.59,-4.574 -17.439,-5.924 -12.217,-2.821 -20.145,-1.663 -27.392,3.867 -7.218,5.507 -11.201,14.327 -11.201,24.92 0,10.139 3.668,20.674 10.245,29.094 7.173,9.181 16.294,14.823 28.693,17.686 5.44,1.256 10.007,1.879 17.094,2.094 v -22.541 c -6.663,-0.135 -10.82,-0.643 -15.926,-1.822 -11.891,-2.745 -18.633,-9.829 -18.633,-19.594 0,-8.208 5.043,-12.978 12.82,-12.259 v 21.453 l 21.739,5.018 z"
         id="path298" />
    </clipPath>
    <linearGradient
       x1="0"
       y1="0"
       x2="1"
       y2="0"
       gradientUnits="userSpaceOnUse"
       gradientTransform="matrix(46.025215,0,0,-46.025215,133.19273,93.539581)"
       spreadMethod="pad"
       id="linearGradient334">
      <stop
         style="stop-opacity:1;stop-color:#828282"
         offset="0"
         id="stop330" />
      <stop
         style="stop-opacity:1;stop-color:#414141"
         offset="1"
         id="stop332" />
    </linearGradient>
    <clipPath
       clipPathUnits="userSpaceOnUse"
       id="clipPath344">
      <path
         d="M 0,420.295 H 500 V 0 H 0 Z"
         id="path342" />
    </clipPath>
    <clipPath
       clipPathUnits="userSpaceOnUse"
       id="clipPath352">
      <path
         d="M -14.3535,301.557 H 494.293 V -50.2393 H -14.3535 Z"
         id="path350" />
    </clipPath>
    <clipPath
       clipPathUnits="userSpaceOnUse"
       id="clipPath356">
      <path
         d="m 156.364,55.563 c -8.52,-1.967 -12.749,-1.686 -16.801,0.858 -4.231,2.654 -6.371,7.483 -6.371,14.065 0,7.963 2.761,13.14 10.034,18.689 -6.875,1.989 -9.343,5.2 -9.343,12.18 0,6.795 2.773,13.338 7.564,18.238 3.78,3.865 9.423,6.691 17.12,8.446 l 20.65,4.767 v -20.278 l -14.492,-3.346 c -5.733,-1.323 -7.485,-2.666 -7.485,-5.798 0,-3.132 1.752,-3.665 7.485,-2.341 l 14.492,3.346 V 89.187 l -14.492,-3.346 c -5.733,-1.324 -6.317,-4.013 -6.317,-5.526 0,-1.619 0.584,-3.967 6.317,-2.643 l 14.492,3.346 V 60.839 Z"
         id="path354" />
    </clipPath>
    <linearGradient
       x1="0"
       y1="0"
       x2="1"
       y2="0"
       gradientUnits="userSpaceOnUse"
       gradientTransform="matrix(87.564346,0,0,-87.564346,39.284412,65.868233)"
       spreadMethod="pad"
       id="linearGradient390">
      <stop
         style="stop-opacity:1;stop-color:#828282"
         offset="0"
         id="stop386" />
      <stop
         style="stop-opacity:1;stop-color:#414141"
         offset="1"
         id="stop388" />
    </linearGradient>
    <clipPath
       clipPathUnits="userSpaceOnUse"
       id="clipPath400">
      <path
         d="M 0,420.295 H 500 V 0 H 0 Z"
         id="path398" />
    </clipPath>
    <clipPath
       clipPathUnits="userSpaceOnUse"
       id="clipPath408">
      <path
         d="M -14.3535,301.557 H 494.293 V -50.2393 H -14.3535 Z"
         id="path406" />
    </clipPath>
    <clipPath
       clipPathUnits="userSpaceOnUse"
       id="clipPath412">
      <path
         d="m 119.337,104.619 c -5.342,4.908 -12.552,6.461 -20.995,4.512 -5.67,-1.309 -10.232,-3.679 -15.275,-8.06 -5.043,2.053 -9.579,2.322 -15.276,1.007 C 59.374,100.135 52.139,95.247 46.796,87.871 41.177,80.114 39.285,73.2 39.285,60.173 V 21.788 l 21.871,5.049 v 42.542 c 0,6.411 2.066,9.093 5.441,9.872 3.375,0.779 5.534,-0.928 5.534,-7.338 V 29.371 l 21.871,5.05 v 42.541 c 0,6.411 2.159,9.114 5.534,9.894 3.375,0.779 5.442,-0.949 5.442,-7.36 V 36.955 l 21.871,5.049 v 38.384 c 0,13.028 -1.893,19.068 -7.512,24.231"
         id="path410" />
    </clipPath>
    <linearGradient
       x1="0"
       y1="0"
       x2="1"
       y2="0"
       gradientUnits="userSpaceOnUse"
       gradientTransform="matrix(46.025215,0,0,-46.025215,59.912506,149.32704)"
       spreadMethod="pad"
       id="linearGradient446">
      <stop
         style="stop-opacity:1;stop-color:#828282"
         offset="0"
         id="stop442" />
      <stop
         style="stop-opacity:1;stop-color:#414141"
         offset="1"
         id="stop444" />
    </linearGradient>
    <clipPath
       clipPathUnits="userSpaceOnUse"
       id="clipPath456">
      <path
         d="m 85.288,183.827 c -7.699,-1.754 -13.341,-4.582 -17.121,-8.447 v 0 c -4.791,-4.899 -7.565,-11.442 -7.565,-18.237 v 0 c 0,-6.981 2.468,-10.192 9.343,-12.18 v 0 C 62.673,139.414 59.912,134.237 59.912,126.274 v 0 c 0,-6.583 2.139,-11.411 6.37,-14.066 v 0 c 4.053,-2.543 8.282,-2.826 16.801,-0.858 v 0 l 22.855,5.276 v 20.178 l -14.493,-3.345 c -5.733,-1.323 -6.318,1.023 -6.318,2.643 v 0 c 0,1.513 0.585,4.203 6.318,5.526 v 0 l 14.493,3.346 v 15.203 L 91.445,156.83 c -5.733,-1.323 -7.486,-0.791 -7.486,2.342 v 0 c 0,3.132 1.753,4.474 7.486,5.797 v 0 l 14.493,3.346 v 20.278 z"
         id="path454" />
    </clipPath>
    <clipPath
       clipPathUnits="userSpaceOnUse"
       id="clipPath464">
      <path
         d="M -59.5979,231.884 H 152.519 V 75.6819 H -59.5979 Z"
         id="path462" />
    </clipPath>
    <clipPath
       clipPathUnits="userSpaceOnUse"
       id="clipPath480">
      <path
         d="M 0,420.295 H 500 V 0 H 0 Z"
         id="path478" />
    </clipPath>
    <linearGradient
       x1="0"
       y1="0"
       x2="1"
       y2="0"
       gradientUnits="userSpaceOnUse"
       gradientTransform="matrix(49.280464,0,0,-49.280464,5.7701192,127.04007)"
       spreadMethod="pad"
       id="linearGradient502">
      <stop
         style="stop-opacity:1;stop-color:#828282"
         offset="0"
         id="stop498" />
      <stop
         style="stop-opacity:1;stop-color:#414141"
         offset="1"
         id="stop500" />
    </linearGradient>
    <clipPath
       clipPathUnits="userSpaceOnUse"
       id="clipPath512">
      <path
         d="m 38.952,166.184 c -2.727,0.016 -6.07,-0.489 -10.026,-1.518 v 0 L 5.77,158.647 V 87.895 l 19.56,5.084 v 22.471 l 2.787,0.725 v -0.027 c 3.147,0.576 5.156,0.338 6.024,-0.714 v 0 c 0.87,-1.053 1.306,-3.809 1.306,-8.267 v 0 -11.558 l 19.603,5.097 v 13.632 c 0,4.734 -0.479,8.22 -1.439,10.458 v 0 c -0.959,2.239 -2.833,4.274 -5.62,6.106 v 0 c 4.465,4.962 6.699,11.003 6.699,18.122 v 0 c 0,7.809 -2.773,13.014 -8.318,15.615 v 0 c -2.136,1.03 -4.543,1.546 -7.221,1.546 v 0 c -0.066,0 -0.132,0 -0.199,-0.001 m -14.234,-18.867 -0.642,4.302 c 0.021,0.006 0.041,0.014 0.062,0.021 v 0 c 3.542,0.919 6.413,-1.645 6.412,-5.728 v 0 c 0,-0.84 -0.125,-1.707 -0.368,-2.561 v 0 l 4.274,-3.934 c 2.059,0.536 3.728,-0.955 3.727,-3.328 v 0 c -10e-4,-2.372 -1.669,-4.729 -3.727,-5.262 v 0 c -2.056,-0.533 -3.724,0.955 -3.725,3.325 v 0 l -4.195,3.859 c -0.762,-0.553 -1.576,-0.946 -2.398,-1.161 v 0 c -3.543,-0.922 -6.416,1.643 -6.415,5.727 v 0 c 0.004,0.464 0.048,0.933 0.127,1.407 v 0 l 3.587,-0.625 z"
         id="path510" />
    </clipPath>
    <clipPath
       clipPathUnits="userSpaceOnUse"
       id="clipPath520">
      <path
         d="M -59.5979,231.884 H 152.519 V 75.6819 H -59.5979 Z"
         id="path518" />
    </clipPath>
    <clipPath
       clipPathUnits="userSpaceOnUse"
       id="clipPath536">
      <path
         d="M 0,420.295 H 500 V 0 H 0 Z"
         id="path534" />
    </clipPath>
    <radialGradient
       fx="0"
       fy="0"
       cx="0"
       cy="0"
       r="1"
       gradientUnits="userSpaceOnUse"
       gradientTransform="matrix(10.784949,0,0,-10.784949,433.54916,114.98983)"
       spreadMethod="pad"
       id="radialGradient560">
      <stop
         style="stop-opacity:1;stop-color:#ffffff"
         offset="0"
         id="stop554" />
      <stop
         style="stop-opacity:1;stop-color:#4087da"
         offset="0.675"
         id="stop556" />
      <stop
         style="stop-opacity:1;stop-color:#4087da"
         offset="1"
         id="stop558" />
    </radialGradient>
    <clipPath
       clipPathUnits="userSpaceOnUse"
       id="clipPath570">
      <path
         d="M 0,420.295 H 500 V 0 H 0 Z"
         id="path568" />
    </clipPath>
    <radialGradient
       fx="0"
       fy="0"
       cx="0"
       cy="0"
       r="1"
       gradientUnits="userSpaceOnUse"
       gradientTransform="matrix(9.3912745,0,0,-9.3912745,212.58153,140.05017)"
       spreadMethod="pad"
       id="radialGradient594">
      <stop
         style="stop-opacity:1;stop-color:#ffffff"
         offset="0"
         id="stop588" />
      <stop
         style="stop-opacity:1;stop-color:#4087da"
         offset="0.675"
         id="stop590" />
      <stop
         style="stop-opacity:1;stop-color:#4087da"
         offset="1"
         id="stop592" />
    </radialGradient>
    <clipPath
       clipPathUnits="userSpaceOnUse"
       id="clipPath604">
      <path
         d="M 0,420.295 H 500 V 0 H 0 Z"
         id="path602" />
    </clipPath>
    <radialGradient
       fx="0"
       fy="0"
       cx="0"
       cy="0"
       r="1"
       gradientUnits="userSpaceOnUse"
       gradientTransform="matrix(10.898106,0,0,-10.898106,38.886391,19.635315)"
       spreadMethod="pad"
       id="radialGradient628">
      <stop
         style="stop-opacity:1;stop-color:#ffffff"
         offset="0"
         id="stop622" />
      <stop
         style="stop-opacity:1;stop-color:#4087da"
         offset="0.675"
         id="stop624" />
      <stop
         style="stop-opacity:1;stop-color:#4087da"
         offset="1"
         id="stop626" />
    </radialGradient>
    <clipPath
       clipPathUnits="userSpaceOnUse"
       id="clipPath638">
      <path
         d="M 0,420.295 H 500 V 0 H 0 Z"
         id="path636" />
    </clipPath>
  </defs>
  <sodipodi:namedview
     id="namedview4"
     pagecolor="#ffffff"
     bordercolor="#000000"
     borderopacity="0.25"
     inkscape:showpageshadow="2"
     inkscape:pageopacity="0.0"
     inkscape:pagecheckerboard="0"
     inkscape:deskcolor="#d1d1d1" />
  <g
     id="g8"
     inkscape:groupmode="layer"
     inkscape:label="Rhythm Paradise Re-Megamix Logo"
     transform="matrix(1.3333333,0,0,-1.3333333,0,560.39333)">
    <g
       id="g10">
      <g
         id="g12"
         clip-path="url(#clipPath16)">
        <g
           id="g18"
           transform="translate(489.6355,254.3206)">
          <path
             d="m 0,0 c 0,38.666 -23.895,71.831 -57.635,85.396 -11.392,41.57 -49.027,72.168 -93.578,72.168 -36.234,0 -67.892,-20.242 -84.58,-50.163 -10.32,3.569 -21.392,5.513 -32.91,5.513 -18.233,0 -35.352,-4.86 -50.133,-13.352 -13.256,6.976 -28.338,10.933 -44.329,10.933 -52.663,0 -95.509,-42.846 -95.509,-95.509 0,-11.118 1.916,-21.794 5.424,-31.726 -10.774,-14.514 -17.17,-32.56 -17.17,-52.095 0,-41.39 28.703,-76.094 66.957,-84.679 17.352,-20.326 44.372,-33.417 74.67,-33.417 20.496,0 39.491,5.992 55.009,16.159 11.66,-4.924 24.591,-7.668 38.195,-7.668 22.845,0 43.79,7.739 60.002,20.554 6.861,-1.451 13.971,-2.22 21.257,-2.22 47.27,0 87.17,32.127 99.032,75.689 C -22.797,-70.283 0,-37.767 0,0"
             style="fill:#000000;fill-opacity:1;fill-rule:nonzero;stroke:none"
             id="path20" />
        </g>
        <g
           id="g22"
           transform="translate(478.6113,254.3206)">
          <path
             d="m 0,0 c 0,36 -23.525,66.57 -55.937,77.044 -8.193,39.64 -42.855,69.496 -84.252,69.496 -35.504,0 -66.055,-21.962 -79.202,-53.221 -11.624,5.492 -24.603,8.571 -38.288,8.571 -18.449,0 -35.616,-5.588 -49.906,-15.156 -12.943,8.067 -28.213,12.736 -44.556,12.736 -46.585,0 -84.484,-37.899 -84.484,-84.484 0,-11.955 2.501,-23.336 6.999,-33.653 -11.651,-13.367 -18.746,-30.936 -18.746,-50.168 0,-37.427 26.832,-68.578 61.943,-74.619 15.142,-19.603 40.271,-32.453 68.661,-32.453 20.502,0 39.303,6.705 53.872,17.811 11.685,-5.936 25.088,-9.32 39.331,-9.32 22.214,0 42.381,8.231 57.168,21.556 7.68,-2.096 15.756,-3.221 24.092,-3.221 44.073,0 80.973,31.288 89.662,72.818 C -22.422,-65.113 0,-35.144 0,0"
             style="fill:#4087da;fill-opacity:1;fill-rule:nonzero;stroke:none"
             id="path24" />
        </g>
        <g
           id="g26"
           transform="translate(472.1149,254.3206)">
          <path
             d="m 0,0 c 0,34.527 -23.396,63.554 -55.121,71.961 -6.084,38.594 -38.939,68.082 -78.571,68.082 -35.335,0 -65.274,-23.444 -75.668,-55.878 -12.297,7.138 -26.582,11.228 -41.823,11.228 -18.666,0 -35.899,-6.132 -49.802,-16.489 -12.652,8.856 -28.043,14.07 -44.659,14.07 -43.072,0 -77.988,-34.917 -77.988,-77.988 0,-12.518 2.965,-24.336 8.206,-34.819 -12.324,-12.529 -19.953,-29.857 -19.953,-49.002 0,-35.161 25.728,-64.175 59.034,-68.597 13.717,-19.223 37.725,-31.978 65.073,-31.978 20.615,0 39.327,7.255 53.174,19.054 11.608,-6.685 25.323,-10.563 40.029,-10.563 21.927,0 41.662,8.599 55.462,22.32 8.137,-2.586 16.804,-3.985 25.798,-3.985 42.294,0 77.375,30.853 83.981,71.278 C -22.277,-62.135 0,-33.689 0,0"
             style="fill:#000000;fill-opacity:1;fill-rule:nonzero;stroke:none"
             id="path28" />
        </g>
        <g
           id="g30"
           transform="translate(500,204.9843)">
          <path
             d="m 0,0 -69.332,-16.021 v -84.425 L 0,-84.439 v 16.189 c 0,8.024 -0.001,16.979 -7.819,25.193 C -2.259,-34.9 0,-26.048 0,-13.494 Z"
             style="fill:#000000;fill-opacity:1;fill-rule:nonzero;stroke:none"
             id="path32" />
        </g>
      </g>
    </g>
    <g
       id="g34">
      <g
         id="g36">
        <g
           id="g42">
          <g
             id="g44">
            <path
               d="m 471.983,192.263 -0.002,-16.021 c 0,-3.726 -2.319,-7.513 -6.649,-8.513 v 0 c -4.329,-1 -6.647,1.718 -6.647,5.444 v 0 16.02 l -21.765,-5.035 v -7.231 c 0,-13.484 2.68,-20.395 10.06,-25.278 v 0 c -10.074,-12.398 -10.087,-20.855 -10.06,-29.482 v 0 -9.933 l 21.765,5.026 v 16.902 c 0,6.026 2.318,9.759 6.647,10.759 v 0 c 4.33,0.999 6.651,-1.664 6.651,-7.69 v 0 -16.902 l 21.765,5.025 v 9.934 c 0,8.632 0,17.099 -10.06,24.837 v 0 c 7.379,8.287 10.06,16.438 10.06,29.922 v 0 7.242 z"
               style="fill:url(#linearGradient50);stroke:none"
               id="path52" />
          </g>
        </g>
      </g>
    </g>
    <g
       id="g54">
      <g
         id="g56"
         clip-path="url(#clipPath60)">
        <g
           id="g62">
          <g
             id="g64" />
          <g
             id="g84">
            <g
               clip-path="url(#clipPath68)"
               opacity="0.199997"
               id="g82">
              <g
                 id="g80">
                <g
                   clip-path="url(#clipPath72)"
                   id="g78">
                  <g
                     transform="translate(95.0506,-129.976)"
                     id="g76">
                    <path
                       d="m 0,0 -27.737,52.785 480.263,290.553 27.71,-52.811 z"
                       style="fill:#ffffff;fill-opacity:1;fill-rule:nonzero;stroke:none"
                       id="path74" />
                  </g>
                </g>
              </g>
            </g>
          </g>
        </g>
        <g
           id="g86"
           transform="translate(401.2055,189.5141)">
          <path
             d="m 0,0 v -84.443 l 34.296,7.918 V 7.918 Z"
             style="fill:#000000;fill-opacity:1;fill-rule:nonzero;stroke:none"
             id="path88" />
        </g>
      </g>
    </g>
    <g
       id="g90">
      <g
         id="g92">
        <g
           id="g98">
          <g
             id="g100">
            <path
               d="m 407.457,184.706 v -71.939 l 21.792,5.03 v 71.939 z"
               style="fill:url(#linearGradient106);stroke:none"
               id="path108" />
          </g>
        </g>
      </g>
    </g>
    <g
       id="g110">
      <g
         id="g112"
         clip-path="url(#clipPath116)">
        <g
           id="g118">
          <g
             id="g120" />
          <g
             id="g140">
            <g
               clip-path="url(#clipPath124)"
               opacity="0.199997"
               id="g138">
              <g
                 id="g136">
                <g
                   clip-path="url(#clipPath128)"
                   id="g134">
                  <g
                     transform="translate(95.0506,-129.976)"
                     id="g132">
                    <path
                       d="m 0,0 -27.737,52.785 480.263,290.553 27.71,-52.811 z"
                       style="fill:#ffffff;fill-opacity:1;fill-rule:nonzero;stroke:none"
                       id="path130" />
                  </g>
                </g>
              </g>
            </g>
          </g>
        </g>
        <g
           id="g142"
           transform="translate(397.9346,172.0092)">
          <path
             d="m 0,0 c -6.548,6.017 -15.44,7.944 -25.712,5.573 -5.609,-1.295 -10.452,-3.534 -15.276,-7.109 -4.823,1.348 -9.666,1.351 -15.275,0.056 -10.273,-2.372 -19.164,-8.405 -25.713,-17.446 -6.679,-9.221 -9.046,-17.636 -9.046,-32.155 V -95.719 L 9.047,-72.616 v 44.638 C 9.047,-13.458 6.68,-6.136 0,0"
             style="fill:#000000;fill-opacity:1;fill-rule:nonzero;stroke:none"
             id="path144" />
        </g>
      </g>
    </g>
    <g
       id="g146">
      <g
         id="g148">
        <g
           id="g154">
          <g
             id="g156">
            <path
               d="m 372.222,171.329 c -5.669,-1.308 -10.231,-3.678 -15.275,-8.06 v 0 c -5.043,2.053 -9.579,2.323 -15.276,1.007 v 0 c -8.417,-1.943 -15.651,-6.831 -20.995,-14.206 v 0 c -5.619,-7.758 -7.511,-14.671 -7.511,-27.699 v 0 -38.384 l 21.871,5.05 v 42.539 c 0,6.412 2.065,9.094 5.441,9.873 v 0 c 3.375,0.779 5.534,-0.927 5.534,-7.338 v 0 -42.541 l 21.872,5.05 v 42.541 c 0,6.409 2.158,9.114 5.533,9.893 v 0 c 3.375,0.78 5.442,-0.949 5.442,-7.36 v 0 -42.541 l 21.871,5.049 v 38.385 c 0,13.028 -1.893,19.067 -7.512,24.229 v 0 c -3.846,3.535 -8.662,5.331 -14.208,5.331 v 0 c -2.157,0 -4.424,-0.271 -6.787,-0.818"
               style="fill:url(#linearGradient162);stroke:none"
               id="path164" />
          </g>
        </g>
      </g>
    </g>
    <g
       id="g166">
      <g
         id="g168"
         clip-path="url(#clipPath172)">
        <g
           id="g174">
          <g
             id="g176" />
          <g
             id="g200">
            <g
               clip-path="url(#clipPath180)"
               opacity="0.199997"
               id="g198">
              <g
                 id="g196">
                <g
                   clip-path="url(#clipPath184)"
                   id="g194">
                  <g
                     transform="translate(14.5777,-50.2393)"
                     id="g188">
                    <path
                       d="m 0,0 -28.931,59.6 479.715,292.196 28.931,-59.6 z"
                       style="fill:#ffffff;fill-opacity:1;fill-rule:nonzero;stroke:none"
                       id="path186" />
                  </g>
                  <g
                     transform="translate(95.0506,-129.976)"
                     id="g192">
                    <path
                       d="m 0,0 -27.737,52.785 480.263,290.553 27.71,-52.811 z"
                       style="fill:#ffffff;fill-opacity:1;fill-rule:nonzero;stroke:none"
                       id="path190" />
                  </g>
                </g>
              </g>
            </g>
          </g>
        </g>
        <g
           id="g202"
           transform="translate(304.4851,155.8125)">
          <path
             d="m 0,0 c -6.25,6.931 -16.715,9.717 -27.312,7.27 -10.584,-2.443 -21.042,-10.059 -27.293,-19.876 -5.375,-8.439 -7.373,-16.142 -7.373,-28.421 V -86.924 L 7.354,-70.918 V -25.02 C 7.354,-12.726 5.361,-5.945 0,0"
             style="fill:#000000;fill-opacity:1;fill-rule:nonzero;stroke:none"
             id="path204" />
        </g>
      </g>
    </g>
    <g
       id="g206">
      <g
         id="g208">
        <g
           id="g214">
          <g
             id="g216">
            <path
               d="m 277.173,156.83 c -8.627,-1.992 -17.146,-8.143 -22.282,-16.207 v 0 c -4.502,-7.068 -6.132,-13.484 -6.132,-24.394 v 0 -39.645 l 21.739,5.018 v 15.789 l 13.35,3.062 V 84.686 l 21.739,5.017 v 39.646 c 0,10.911 -1.619,16.584 -6.113,21.567 v 0 c -3.895,4.32 -9.741,6.633 -16.096,6.633 v 0 c -2.033,0 -4.115,-0.235 -6.205,-0.719 m -5.865,-33.433 -5.813,4.67 8.054,3.119 3.624,8.526 3.625,-6.852 8.054,0.6 -5.814,-7.355 1.353,-8.155 -7.218,2.307 -7.218,-5.641 z"
               style="fill:url(#linearGradient222);stroke:none"
               id="path224" />
          </g>
        </g>
      </g>
    </g>
    <g
       id="g226">
      <g
         id="g228"
         clip-path="url(#clipPath232)">
        <g
           id="g234">
          <g
             id="g236" />
          <g
             id="g256">
            <g
               clip-path="url(#clipPath240)"
               opacity="0.199997"
               id="g254">
              <g
                 id="g252">
                <g
                   clip-path="url(#clipPath244)"
                   id="g250">
                  <g
                     transform="translate(14.5777,-50.2393)"
                     id="g248">
                    <path
                       d="m 0,0 -28.931,59.6 479.715,292.196 28.931,-59.6 z"
                       style="fill:#ffffff;fill-opacity:1;fill-rule:nonzero;stroke:none"
                       id="path246" />
                  </g>
                </g>
              </g>
            </g>
          </g>
        </g>
        <g
           id="g258"
           transform="translate(243.4064,146.2823)">
          <path
             d="m 0,0 c -7.178,-0.218 -12.144,-0.829 -18.323,-2.256 -14.015,-3.235 -24.882,-9.997 -33.219,-20.671 -7.609,-9.74 -11.972,-22.062 -11.972,-33.806 0,-12.236 4.633,-22.509 13.046,-28.928 8.469,-6.462 17.979,-7.858 31.8,-4.667 6.044,1.395 10.564,2.926 18.6,6.301 l 5.091,2.139 V 0.153 Z"
             style="fill:#000000;fill-opacity:1;fill-rule:nonzero;stroke:none"
             id="path260" />
        </g>
      </g>
    </g>
    <g
       id="g262">
      <g
         id="g264">
        <g
           id="g270">
          <g
             id="g272">
            <path
               d="m 225.083,137.774 c -12.399,-2.862 -21.52,-8.504 -28.693,-17.686 v 0 c -6.576,-8.421 -10.246,-18.955 -10.246,-29.094 v 0 c 0,-10.592 3.984,-19.413 11.202,-24.92 v 0 c 7.247,-5.53 15.175,-6.687 27.392,-3.867 v 0 c 5.849,1.35 10.166,2.869 17.438,5.925 v 0 41.991 l -21.738,-5.018 V 83.652 c -7.777,-0.719 -12.82,4.051 -12.82,12.258 v 0 c 0,9.767 6.741,16.849 18.633,19.595 v 0 c 5.107,1.179 9.264,1.687 15.925,1.823 v 0 22.54 c -7.087,-0.214 -11.653,-0.839 -17.093,-2.094"
               style="fill:url(#linearGradient278);stroke:none"
               id="path280" />
          </g>
        </g>
      </g>
    </g>
    <g
       id="g282">
      <g
         id="g284"
         clip-path="url(#clipPath288)">
        <g
           id="g290">
          <g
             id="g292" />
          <g
             id="g312">
            <g
               clip-path="url(#clipPath296)"
               opacity="0.199997"
               id="g310">
              <g
                 id="g308">
                <g
                   clip-path="url(#clipPath300)"
                   id="g306">
                  <g
                     transform="translate(14.5777,-50.2393)"
                     id="g304">
                    <path
                       d="m 0,0 -28.931,59.6 479.715,292.196 28.931,-59.6 z"
                       style="fill:#ffffff;fill-opacity:1;fill-rule:nonzero;stroke:none"
                       id="path302" />
                  </g>
                </g>
              </g>
            </g>
          </g>
        </g>
        <g
           id="g314"
           transform="translate(158.5853,134.2955)">
          <path
             d="m 0,0 c -9.151,-2.064 -16.018,-5.583 -21.019,-10.697 -6.315,-6.457 -9.936,-15.09 -9.936,-23.686 0,-6.012 1.587,-10.256 5.115,-13.202 -3.969,-5.134 -5.805,-10.838 -5.805,-17.668 0,-8.467 2.956,-14.796 8.55,-18.307 6.058,-3.801 12.478,-3.363 20.874,-1.425 l 29.106,6.72 V 6.207 Z"
             style="fill:#000000;fill-opacity:1;fill-rule:nonzero;stroke:none"
             id="path316" />
        </g>
      </g>
    </g>
    <g
       id="g318">
      <g
         id="g320">
        <g
           id="g326">
          <g
             id="g328">
            <path
               d="m 158.567,128.039 c -7.697,-1.754 -13.34,-4.581 -17.119,-8.446 v 0 c -4.791,-4.9 -7.566,-11.443 -7.566,-18.238 v 0 c 0,-6.98 2.469,-10.191 9.344,-12.18 v 0 C 135.954,83.626 133.193,78.449 133.193,70.486 v 0 c 0,-6.583 2.138,-11.411 6.37,-14.065 v 0 c 4.052,-2.543 8.281,-2.826 16.8,-0.859 v 0 l 22.855,5.277 v 20.178 l -14.493,-3.345 c -5.732,-1.323 -6.317,1.023 -6.317,2.642 v 0 c 0,1.513 0.585,4.204 6.317,5.527 v 0 l 14.493,3.345 v 15.203 l -14.493,-3.346 c -5.732,-1.324 -7.485,-0.791 -7.485,2.341 v 0 c 0,3.133 1.753,4.475 7.485,5.798 v 0 l 14.493,3.346 v 20.278 z"
               style="fill:url(#linearGradient334);stroke:none"
               id="path336" />
          </g>
        </g>
      </g>
    </g>
    <g
       id="g338">
      <g
         id="g340"
         clip-path="url(#clipPath344)">
        <g
           id="g346">
          <g
             id="g348" />
          <g
             id="g368">
            <g
               clip-path="url(#clipPath352)"
               opacity="0.199997"
               id="g366">
              <g
                 id="g364">
                <g
                   clip-path="url(#clipPath356)"
                   id="g362">
                  <g
                     transform="translate(14.5777,-50.2393)"
                     id="g360">
                    <path
                       d="m 0,0 -28.931,59.6 479.715,292.196 28.931,-59.6 z"
                       style="fill:#ffffff;fill-opacity:1;fill-rule:nonzero;stroke:none"
                       id="path358" />
                  </g>
                </g>
              </g>
            </g>
          </g>
        </g>
        <g
           id="g370"
           transform="translate(124.0544,109.8104)">
          <path
             d="m 0,0 c -6.549,6.017 -15.44,7.944 -25.713,5.573 -5.61,-1.295 -10.453,-3.534 -15.275,-7.108 -4.822,1.347 -9.666,1.35 -15.275,0.055 -10.273,-2.372 -19.164,-8.405 -25.713,-17.446 -6.679,-9.22 -9.046,-17.635 -9.046,-32.155 V -95.718 L 9.047,-72.615 v 44.636 C 9.047,-13.458 6.679,-6.136 0,0"
             style="fill:#000000;fill-opacity:1;fill-rule:nonzero;stroke:none"
             id="path372" />
        </g>
      </g>
    </g>
    <g
       id="g374">
      <g
         id="g376">
        <g
           id="g382">
          <g
             id="g384">
            <path
               d="m 98.342,109.131 c -5.67,-1.308 -10.233,-3.678 -15.276,-8.06 v 0 c -5.042,2.053 -9.578,2.323 -15.274,1.007 v 0 C 59.374,100.134 52.139,95.247 46.796,87.872 v 0 C 41.177,80.113 39.284,73.2 39.284,60.172 v 0 -38.383 l 21.872,5.048 v 42.541 c 0,6.411 2.065,9.094 5.441,9.873 v 0 c 3.374,0.779 5.534,-0.928 5.534,-7.338 v 0 -42.542 l 21.871,5.05 v 42.542 c 0,6.409 2.159,9.114 5.534,9.892 v 0 c 3.375,0.78 5.441,-0.948 5.441,-7.359 v 0 -42.542 l 21.872,5.05 v 38.385 c 0,13.026 -1.893,19.067 -7.513,24.229 v 0 c -3.846,3.535 -8.661,5.33 -14.208,5.33 v 0 c -2.156,0.001 -4.422,-0.271 -6.786,-0.817"
               style="fill:url(#linearGradient390);stroke:none"
               id="path392" />
          </g>
        </g>
      </g>
    </g>
    <g
       id="g394">
      <g
         id="g396"
         clip-path="url(#clipPath400)">
        <g
           id="g402">
          <g
             id="g404" />
          <g
             id="g424">
            <g
               clip-path="url(#clipPath408)"
               opacity="0.199997"
               id="g422">
              <g
                 id="g420">
                <g
                   clip-path="url(#clipPath412)"
                   id="g418">
                  <g
                     transform="translate(14.5777,-50.2393)"
                     id="g416">
                    <path
                       d="m 0,0 -28.931,59.6 479.715,292.196 28.931,-59.6 z"
                       style="fill:#ffffff;fill-opacity:1;fill-rule:nonzero;stroke:none"
                       id="path414" />
                  </g>
                </g>
              </g>
            </g>
          </g>
        </g>
        <g
           id="g426"
           transform="translate(85.3051,190.0829)">
          <path
             d="m 0,0 c -9.151,-2.064 -16.018,-5.583 -21.02,-10.697 -6.314,-6.458 -9.935,-15.09 -9.935,-23.687 0,-6.012 1.587,-10.255 5.115,-13.201 -3.969,-5.134 -5.805,-10.838 -5.805,-17.668 0,-8.467 2.956,-14.796 8.55,-18.307 6.058,-3.8 12.478,-3.363 20.874,-1.425 l 29.106,6.72 V 6.206 Z"
             style="fill:#000000;fill-opacity:1;fill-rule:nonzero;stroke:none"
             id="path428" />
        </g>
      </g>
    </g>
    <g
       id="g430">
      <g
         id="g432">
        <g
           id="g438">
          <g
             id="g440">
            <path
               d="m 85.288,183.827 c -7.699,-1.754 -13.341,-4.582 -17.121,-8.447 v 0 c -4.791,-4.899 -7.565,-11.442 -7.565,-18.237 v 0 c 0,-6.981 2.468,-10.192 9.343,-12.18 v 0 C 62.673,139.414 59.912,134.237 59.912,126.274 v 0 c 0,-6.583 2.139,-11.411 6.37,-14.066 v 0 c 4.053,-2.543 8.282,-2.826 16.801,-0.858 v 0 l 22.855,5.276 v 20.179 l -14.493,-3.346 c -5.733,-1.323 -6.318,1.023 -6.318,2.643 v 0 c 0,1.513 0.585,4.203 6.318,5.526 v 0 l 14.493,3.346 v 15.203 L 91.445,156.83 c -5.733,-1.323 -7.486,-0.791 -7.486,2.342 v 0 c 0,3.132 1.753,4.474 7.486,5.797 v 0 l 14.493,3.346 v 20.278 z"
               style="fill:url(#linearGradient446);stroke:none"
               id="path448" />
          </g>
        </g>
      </g>
    </g>
    <g
       id="g450">
      <g
         id="g452"
         clip-path="url(#clipPath456)">
        <g
           id="g458">
          <g
             id="g460" />
          <g
             id="g472">
            <g
               clip-path="url(#clipPath464)"
               opacity="0.25"
               id="g470">
              <g
                 transform="translate(-59.5979,117.5834)"
                 id="g468">
                <path
                   d="M 0,0 186.426,114.3 212.117,72.399 25.69,-41.902 Z"
                   style="fill:#ffffff;fill-opacity:1;fill-rule:evenodd;stroke:none"
                   id="path466" />
              </g>
            </g>
          </g>
        </g>
      </g>
    </g>
    <g
       id="g474">
      <g
         id="g476"
         clip-path="url(#clipPath480)">
        <g
           id="g482"
           transform="translate(0,82.3008)">
          <path
             d="m 0,0 v 80.81 c 10.327,2.629 20.604,5.455 30.965,7.941 5.679,1.2 11.835,1.457 17.258,-0.916 5.411,-2.276 9.67,-7.128 11.137,-12.824 1.646,-5.811 1.346,-12.052 -0.187,-17.853 -0.778,-2.68 -1.885,-5.27 -3.341,-7.652 2.583,-2.846 4.154,-6.542 4.532,-10.359 0.788,-5.703 0.323,-11.473 0.456,-17.208 V 13.942 C 40.544,8.673 20.275,3.405 0,-1.865 Z"
             style="fill:#000000;fill-opacity:1;fill-rule:nonzero;stroke:none"
             id="path484" />
        </g>
      </g>
    </g>
    <g
       id="g486">
      <g
         id="g488">
        <g
           id="g494">
          <g
             id="g496">
            <path
               d="m 38.953,166.184 c -2.728,0.016 -6.071,-0.489 -10.027,-1.518 v 0 L 5.77,158.647 V 87.895 l 19.56,5.084 v 22.471 l 2.787,0.725 v -0.027 c 3.147,0.576 5.156,0.338 6.024,-0.714 v 0 c 0.87,-1.053 1.306,-3.809 1.306,-8.267 v 0 -11.557 l 19.603,5.096 v 13.632 c 0,4.734 -0.479,8.22 -1.439,10.458 v 0 c -0.959,2.239 -2.833,4.274 -5.62,6.106 v 0 c 4.465,4.962 6.699,11.003 6.699,18.122 v 0 c 0,7.809 -2.773,13.014 -8.318,15.615 v 0 c -2.136,1.03 -4.543,1.546 -7.22,1.546 v 0 c -0.066,0 -0.133,0 -0.199,-0.001 m -14.235,-18.867 -0.642,4.302 c 0.021,0.007 0.04,0.014 0.062,0.021 v 0 c 3.542,0.919 6.413,-1.645 6.412,-5.728 v 0 c 0,-0.84 -0.125,-1.707 -0.368,-2.561 v 0 l 4.274,-3.934 c 2.059,0.536 3.728,-0.955 3.727,-3.328 v 0 c -10e-4,-2.372 -1.669,-4.729 -3.727,-5.262 v 0 c -2.056,-0.533 -3.724,0.955 -3.725,3.325 v 0 l -4.195,3.859 c -0.762,-0.553 -1.576,-0.946 -2.398,-1.161 v 0 c -3.543,-0.922 -6.416,1.643 -6.415,5.727 v 0 c 0.004,0.464 0.048,0.933 0.127,1.407 v 0 l 3.587,-0.625 z"
               style="fill:url(#linearGradient502);stroke:none"
               id="path504" />
          </g>
        </g>
      </g>
    </g>
    <g
       id="g506">
      <g
         id="g508"
         clip-path="url(#clipPath512)">
        <g
           id="g514">
          <g
             id="g516" />
          <g
             id="g528">
            <g
               clip-path="url(#clipPath520)"
               opacity="0.25"
               id="g526">
              <g
                 transform="translate(-59.5979,117.5834)"
                 id="g524">
                <path
                   d="M 0,0 186.426,114.3 212.117,72.399 25.69,-41.902 Z"
                   style="fill:#ffffff;fill-opacity:1;fill-rule:evenodd;stroke:none"
                   id="path522" />
              </g>
            </g>
          </g>
        </g>
      </g>
    </g>
    <g
       id="g530">
      <g
         id="g532"
         clip-path="url(#clipPath536)">
        <g
           id="g538"
           transform="translate(453.9478,121.5214)">
          <path
             d="m 0,0 -14.263,1.486 -6.869,12.639 -5.812,-13.169 -14.135,-2.629 10.687,-9.593 -1.837,-14.182 12.392,7.138 12.963,-6.208 -2.982,14.068 z"
             style="fill:#000000;fill-opacity:1;fill-rule:nonzero;stroke:none"
             id="path540" />
        </g>
      </g>
    </g>
    <g
       id="g542">
      <g
         id="g544">
        <g
           id="g550">
          <g
             id="g552">
            <path
               d="m 430.125,118.534 -7.564,-1.407 5.706,-5.123 -0.982,-7.591 6.636,3.822 6.927,-3.318 -1.592,7.512 5.282,5.6 -7.645,0.796 -3.663,6.742 z"
               style="fill:url(#radialGradient560);stroke:none"
               id="path562" />
          </g>
        </g>
      </g>
    </g>
    <g
       id="g564">
      <g
         id="g566"
         clip-path="url(#clipPath570)">
        <g
           id="g572"
           transform="translate(222.7855,141.0019)">
          <path
             d="m 0,0 5.021,11.548 -12.22,-3.018 -9.439,8.336 -0.905,-12.56 -10.85,-6.43 11.686,-4.715 2.711,-12.302 8.137,9.643 12.543,-1.209 z"
             style="fill:#000000;fill-opacity:1;fill-rule:nonzero;stroke:none"
             id="path574" />
        </g>
      </g>
    </g>
    <g
       id="g576">
      <g
         id="g578">
        <g
           id="g584">
          <g
             id="g586">
            <path
               d="m 209.051,142.952 -5.733,-3.397 6.185,-2.495 1.433,-6.503 4.3,5.096 6.609,-0.637 -3.53,5.654 2.654,6.105 -6.449,-1.592 -4.991,4.405 z"
               style="fill:url(#radialGradient594);stroke:none"
               id="path596" />
          </g>
        </g>
      </g>
    </g>
    <g
       id="g598">
      <g
         id="g600"
         clip-path="url(#clipPath604)">
        <g
           id="g606"
           transform="translate(48.8905,23.5864)">
          <path
             d="m 0,0 2.672,13.457 -12.291,-6.052 -11.943,6.699 1.923,-13.555 -10.073,-9.324 13.514,-2.338 5.673,-12.473 6.47,12.14 13.622,1.598 z"
             style="fill:#000000;fill-opacity:1;fill-rule:nonzero;stroke:none"
             id="path608" />
        </g>
      </g>
    </g>
    <g
       id="g610">
      <g
         id="g612">
        <g
           id="g618">
          <g
             id="g620">
            <path
               d="m 33.472,22.635 -5.707,-5.282 7.671,-1.328 3.212,-7.06 3.663,6.875 7.697,0.902 -5.415,5.574 1.513,7.618 -6.954,-3.424 -6.768,3.796 z"
               style="fill:url(#radialGradient628);stroke:none"
               id="path630" />
          </g>
        </g>
      </g>
    </g>
    <g
       id="g632">
      <g
         id="g634"
         clip-path="url(#clipPath638)">
        <g
           id="g640"
           transform="translate(419.6971,204.9203)">
          <path
             d="M 0,0 V 6.524 L -1.641,-0.387 -3.418,-0.806 -5.02,5.34 V -1.184 L -6.7,-1.58 v 7.81 l 2.625,0.618 1.582,-5.821 0.019,0.005 1.544,6.558 2.59,0.611 V 0.392 Z m -12.129,-2.86 v 6.424 l -2.702,-0.637 v 1.381 l 7.148,1.685 v -1.38 l -2.605,-0.615 v -6.424 z"
             style="fill:#4087da;fill-opacity:1;fill-rule:nonzero;stroke:none"
             id="path642" />
        </g>
        <g
           id="g644"
           transform="translate(396.9367,248.3548)">
          <path
             d="m 0,0 c 3.78,1.424 11.692,3.551 18.338,4.993 v 20.573 l -33.212,-7.668 v -54.985 l 33.159,7.655 v 9.16 c -4.36,-1.142 -13.345,-2.83 -17.3,-3.498 -4.818,-0.809 -5.504,5.327 -0.176,7.085 3.059,1.002 8.667,2.338 13.045,3.569 l -0.017,7.05 C 9.846,-6.874 4.466,-7.806 0.211,-8.404 -5.064,-9.16 -5.978,-2.25 0,0"
             style="fill:#4087da;fill-opacity:1;fill-rule:nonzero;stroke:none"
             id="path646" />
        </g>
        <g
           id="g648"
           transform="translate(366.1042,210.4667)">
          <path
             d="m 0,0 c -0.195,1.827 -3.355,2.241 -8.277,3.421 -8.606,2.137 -13.933,7.207 -13.389,16.114 0.579,9.614 5.446,16.319 31.206,20.693 V 20.229 C 0.245,19.067 -4.887,17.328 -7.064,15.547 -9.385,13.664 -9.25,10.579 -5.899,9.46 -4.444,8.973 -0.14,7.536 2.461,6.664 7.453,5 9.895,2.449 10.404,-2.066 11.842,-14.804 -11.213,-18.144 -20.718,-19.54 V -8.223 C -9.33,-5.928 0.439,-3.917 0,0"
             style="fill:#4087da;fill-opacity:1;fill-rule:nonzero;stroke:none"
             id="path650" />
        </g>
        <g
           id="g652"
           transform="translate(326.2235,207.126)">
          <path
             d="m 0,0 v 49.018 l 12.395,2.861 V 2.862 Z"
             style="fill:#4087da;fill-opacity:1;fill-rule:nonzero;stroke:none"
             id="path654" />
        </g>
        <g
           id="g656"
           transform="translate(296.5984,198.9505)">
          <path
             d="m 0,0 c -3.411,-0.789 -4.888,0.352 -4.888,4.343 v 12.588 c 0,2.901 -0.15,5.218 2.602,5.995 5.978,1.688 12.659,-1.512 13.292,-8.017 C 11.744,7.349 7.539,1.74 0,0 M -13.292,41.967 V -11.498 C 12.553,-7.718 23.806,2.268 23.524,22.118 23.278,39.33 6.189,48.789 -13.292,41.967"
             style="fill:#4087da;fill-opacity:1;fill-rule:nonzero;stroke:none"
             id="path658" />
        </g>
        <g
           id="g660"
           transform="translate(260.7144,190.6698)">
          <path
             d="m 0,0 -6.241,-1.441 c -1.569,-0.362 -2.462,0.615 -2.268,2.795 0.175,2.039 1.09,6.364 1.441,7.841 0.739,3.059 2.286,4.554 4.062,4.818 2.865,0.457 4.254,-1.636 5.362,-6.91 C 2.461,6.611 2.76,5.538 2.883,4.096 3.13,1.16 2.217,0.512 0,0 M 10.936,23.436 C 7.666,34.161 5.018,36.808 -1.494,35.304 -7.236,33.979 -10.5,30.989 -13.239,20.5 c -2.69,-10.303 -5.644,-24.895 -8.035,-41.563 l 9.459,2.057 c 0.176,1.319 0.492,2.866 0.95,5.222 0.492,2.374 1.775,4.071 4.325,4.659 2.099,0.485 6.005,1.387 7.384,1.705 1.974,0.456 3.78,-1.107 4.413,-3.744 0.422,-1.759 0.967,-4.238 1.301,-5.908 l 12.553,2.884 c -1.529,12.289 -4.923,26.97 -8.175,37.624"
             style="fill:#4087da;fill-opacity:1;fill-rule:nonzero;stroke:none"
             id="path662" />
        </g>
        <g
           id="g664"
           transform="translate(214.4327,194.8238)">
          <path
             d="m 0,0 c -3.22,-0.755 -5.013,1.038 -5.013,4.872 v 3.703 c 0,2.672 0.519,4.99 2.902,5.745 C 4.807,16.512 9.625,13.53 9.625,8.847 9.625,4.471 6.275,1.474 0,0 m 23.32,16.007 c 0,17.021 -16.655,21.964 -37.027,14.686 v -53.551 l 8.682,2.004 v 12.361 c 0,2.1 1.545,1.734 2.973,0.46 1.002,-0.896 7.03,-6.735 11.241,-10.935 l 13.253,3.06 c 0,0 -11.555,11.803 -12.887,12.971 7.761,2.902 13.765,10.464 13.765,18.944"
             style="fill:#4087da;fill-opacity:1;fill-rule:nonzero;stroke:none"
             id="path666" />
        </g>
        <g
           id="g668"
           transform="translate(180.3138,165.8444)">
          <path
             d="m 0,0 -6.241,-1.441 c -1.569,-0.362 -2.462,0.615 -2.268,2.795 0.175,2.039 1.09,6.364 1.441,7.841 0.739,3.059 2.286,4.554 4.062,4.818 2.865,0.457 4.254,-1.636 5.362,-6.91 C 2.461,6.611 2.76,5.538 2.883,4.096 3.13,1.16 2.217,0.512 0,0 M 10.936,23.436 C 7.666,34.161 5.018,36.808 -1.494,35.304 -7.236,33.979 -10.5,30.989 -13.239,20.5 c -2.69,-10.303 -5.644,-24.895 -8.035,-41.563 l 9.459,2.057 c 0.176,1.319 0.492,2.866 0.95,5.222 0.492,2.374 1.775,4.071 4.325,4.659 2.099,0.485 6.005,1.387 7.384,1.705 1.974,0.456 3.78,-1.107 4.413,-3.744 0.422,-1.759 0.967,-4.237 1.301,-5.908 l 12.553,2.884 c -1.529,12.289 -4.923,26.97 -8.175,37.624"
             style="fill:#4087da;fill-opacity:1;fill-rule:nonzero;stroke:none"
             id="path670" />
        </g>
        <g
           id="g672"
           transform="translate(136.0433,176.1655)">
          <path
             d="m 0,0 c -3.903,-0.949 -6.154,0.07 -6.154,3.341 v 11.832 c 0,3.342 1.846,5.451 5.521,5.925 7.367,0.95 10.69,-3.358 10.69,-8.966 C 10.057,7.455 7.297,1.793 0,0 m -24.492,38.171 v -74.109 l 18.356,4.238 v 17.406 c 0,3.182 0.791,4.765 2.69,5.099 17.106,3.009 29.292,11.61 29.292,29.256 0,19.378 -20.818,29.802 -50.338,18.11"
             style="fill:#4087da;fill-opacity:1;fill-rule:nonzero;stroke:none"
             id="path674" />
        </g>
        <g
           id="g676"
           transform="translate(373.9927,357.2376)">
          <path
             d="m 0,0 c -5.064,-16.72 -7.929,-24.896 -10.426,-31.788 -4.255,-11.726 -8.668,-7.12 -10.725,-3.85 -2.391,3.833 -5.643,11.288 -11.287,24.948 l -13.942,-3.217 v -65.631 l 11.568,2.671 c -0.088,10.461 0.088,17.564 0.651,20.325 0.51,2.479 2.004,2.83 3.516,0.369 1.248,-2.022 3.218,-6.4 7.138,-15.402 l 7.752,1.79 c 4.272,11.481 6.577,17.269 8.212,20.099 1.319,2.304 3.833,3.921 4.589,-0.334 0.58,-3.217 0.528,-11.946 0.51,-22.635 l 11.991,2.768 V 2.204 Z"
             style="fill:#4087da;fill-opacity:1;fill-rule:nonzero;stroke:none"
             id="path678" />
        </g>
        <g
           id="g680"
           transform="translate(307.2881,322.9705)">
          <path
             d="m 0,0 c -0.053,-8.967 -0.035,-17.142 -0.422,-20.131 -0.897,-7.138 -13.098,-10.355 -13.696,-3.78 -0.281,3.094 -0.527,7.182 -0.527,16.307 l -9.864,-2.277 V -70.01 l 12.571,2.902 c 0,9.547 0,13.695 0.158,16.965 0.44,8.615 13.38,10.567 14.505,3.077 0.51,-3.411 0.598,-5.046 0.598,-12.747 l 10.021,2.314 v 60.58 z"
             style="fill:#4087da;fill-opacity:1;fill-rule:nonzero;stroke:none"
             id="path682" />
        </g>
        <g
           id="g684"
           transform="translate(240.5835,318.004)">
          <path
             d="m 0,0 v -24.203 l 7.015,1.62 c 4.255,0.982 6.013,0.428 6.013,-7.103 v -31.068 l 11.516,2.638 v 28.5 c 0,12.659 1.188,15.854 7.455,17.3 l 5.731,1.324 V 8.711 Z"
             style="fill:#4087da;fill-opacity:1;fill-rule:nonzero;stroke:none"
             id="path686" />
        </g>
        <g
           id="g688"
           transform="translate(235.8717,302.0189)">
          <path
             d="m 0,0 -10.76,-2.484 c 0,0 0.158,-11.076 -0.264,-19.234 -0.615,-11.938 -12.641,-14.505 -13.608,-3.147 -0.492,5.96 -0.721,17.839 -0.721,17.839 l -13.379,-3.089 v -9.687 c 0,-23.12 15.032,-25.968 22.891,-19.375 0.475,0.405 0.949,0.651 1.336,0.475 0.44,-0.194 0.422,-0.668 0.246,-1.547 -0.474,-2.304 -3.885,-6.857 -10.777,-8.703 -5.257,-1.407 -10.409,-2.294 -12.975,-2.698 v -16.044 c 11.568,1.494 24.965,4.8 31.207,14.399 3.253,5.011 4.958,10.303 5.802,18.144 C 0.316,-22.808 0,0 0,0"
             style="fill:#4087da;fill-opacity:1;fill-rule:nonzero;stroke:none"
             id="path690" />
        </g>
        <g
           id="g692"
           transform="translate(177.237,303.016)">
          <path
             d="m 0,0 c -0.053,-8.967 -0.035,-17.142 -0.422,-20.131 -0.897,-7.138 -13.098,-10.355 -13.696,-3.78 -0.281,3.094 -0.527,7.182 -0.527,16.307 l -9.864,-2.277 V -70.01 l 12.571,2.902 c 0,9.547 0,13.695 0.158,16.965 0.44,8.615 13.38,10.567 14.505,3.077 0.51,-3.411 0.598,-5.046 0.598,-12.747 l 10.021,2.314 v 60.58 z"
             style="fill:#4087da;fill-opacity:1;fill-rule:nonzero;stroke:none"
             id="path694" />
        </g>
        <g
           id="g696"
           transform="translate(111.7632,266.8506)">
          <path
             d="m 0,0 c -4.8,-1.125 -7.472,1.547 -7.472,7.261 v 5.521 c 0,3.982 0.773,7.437 4.325,8.562 C 7.165,24.611 14.347,20.166 14.347,13.186 14.347,6.663 9.353,2.198 0,0 m 34.759,23.858 c 0,25.37 -24.825,32.737 -55.189,21.889 V -36.15 l 12.94,2.988 v 20.503 c 0,3.13 2.303,2.585 4.431,0.686 1.494,-1.336 10.478,-10.039 16.755,-16.298 l 19.755,4.56 c 0,0 -17.223,17.593 -19.21,19.333 11.569,4.325 20.518,15.596 20.518,28.236"
             style="fill:#4087da;fill-opacity:1;fill-rule:nonzero;stroke:none"
             id="path698" />
        </g>
        <g
           id="g700"
           transform="translate(408.3251,416.6888)">
          <path
             d="m 0,0 c -2.24,0 -4.478,-0.16 -6.695,-0.479 -0.134,-0.028 -0.267,-0.058 -0.4,-0.087 l -1.384,-5.422 h 0.486 c -5.451,-1.047 -10.639,-3.167 -15.264,-6.236 l 0.168,0.167 -4.846,2.718 c -0.985,-0.681 -1.945,-1.399 -2.875,-2.153 -1.694,-1.467 -3.28,-3.053 -4.747,-4.747 -0.82,-1.005 -1.598,-2.044 -2.332,-3.113 l 2.791,-4.705 0.331,0.331 c -3.088,-4.642 -5.219,-9.854 -6.267,-15.33 l -5.555,-1.564 c -0.3,-2.13 -0.454,-4.278 -0.46,-6.429 0,-2.241 0.16,-4.479 0.479,-6.697 0.059,-0.286 0.121,-0.571 0.186,-0.856 l 5.465,-1.396 v 0.498 c 1.087,-5.312 3.196,-10.363 6.208,-14.872 l -0.482,0.482 -2.711,-4.836 c 0.738,-1.077 1.521,-2.123 2.347,-3.135 1.467,-1.693 3.053,-3.279 4.747,-4.747 0.919,-0.744 1.867,-1.453 2.84,-2.125 l 4.778,2.835 -0.203,0.203 c 4.752,-3.189 10.106,-5.371 15.733,-6.411 h -1.22 l 1.512,-5.368 c 0.224,-0.051 0.449,-0.099 0.675,-0.147 2.217,-0.318 4.455,-0.478 6.695,-0.479 2.238,10e-4 4.473,0.161 6.688,0.479 l 1.406,5.51 H 7.631 c 5.715,1.057 11.147,3.292 15.951,6.563 l 4.942,-2.771 c 0.78,0.547 1.542,1.118 2.288,1.711 1.693,1.468 3.279,3.054 4.747,4.747 0.953,1.155 1.851,2.355 2.69,3.595 l -2.868,4.835 -0.045,-0.045 c 2.778,4.424 4.704,9.328 5.679,14.46 l 5.599,1.575 c 0.291,2.118 0.436,4.254 0.437,6.392 -0.001,0.77 -0.02,1.539 -0.058,2.307 -0.038,0.769 -0.094,1.537 -0.169,2.304 -0.076,0.766 -0.17,1.53 -0.283,2.292 -0.038,0.224 -0.077,0.448 -0.117,0.671 l -5.504,1.406 v -0.049 c -1.105,5.095 -3.151,9.939 -6.033,14.284 l 0.011,-0.011 2.783,4.964 c -0.424,0.57 -0.862,1.129 -1.311,1.679 -0.489,0.596 -0.992,1.179 -1.509,1.75 -0.517,0.57 -1.048,1.128 -1.592,1.672 -0.544,0.544 -1.101,1.076 -1.672,1.593 -0.571,0.517 -1.154,1.019 -1.749,1.507 -0.595,0.489 -1.202,0.963 -1.82,1.422 -0.119,0.084 -0.238,0.168 -0.358,0.252 l -4.773,-2.83 0.295,-0.295 c -4.469,2.97 -9.467,5.054 -14.722,6.138 H 8.497 L 6.956,-0.518 C 6.939,-0.515 6.921,-0.513 6.904,-0.51 6.142,-0.397 5.378,-0.302 4.612,-0.227 3.846,-0.151 3.078,-0.094 2.309,-0.057 1.54,-0.019 0.77,0 0,0 Z"
             style="fill:#8898b0;fill-opacity:1;fill-rule:evenodd;stroke:none"
             id="path702" />
        </g>
        <g
           id="g704"
           transform="translate(408.3258,402.9082)">
          <path
             d="m 0,0 c 18.374,0 33.269,-14.895 33.269,-33.269 0,-18.374 -14.895,-33.269 -33.269,-33.269 -18.374,0 -33.269,14.895 -33.269,33.269 C -33.269,-14.895 -18.374,0 0,0"
             style="fill:#404040;fill-opacity:1;fill-rule:evenodd;stroke:none"
             id="path706" />
        </g>
        <g
           id="g708"
           transform="translate(408.326,395.6917)">
          <path
             d="m 0,0 c -14.365,0 -26.053,-11.687 -26.053,-26.053 0,-14.365 11.688,-26.052 26.053,-26.052 14.365,0 26.053,11.687 26.053,26.052 C 26.053,-11.687 14.365,0 0,0 m 0,-55.249 c -16.099,0 -29.197,13.097 -29.197,29.196 0,16.099 13.098,29.197 29.197,29.197 16.099,0 29.197,-13.098 29.197,-29.197 0,-16.099 -13.098,-29.196 -29.197,-29.196"
             style="fill:#8898b0;fill-opacity:1;fill-rule:nonzero;stroke:none"
             id="path710" />
        </g>
        <g
           id="g712"
           transform="translate(408.3258,379.4502)">
          <path
             d="m 0,0 c 5.419,0 9.811,-4.393 9.811,-9.811 0,-5.419 -4.392,-9.811 -9.811,-9.811 -5.419,0 -9.811,4.392 -9.811,9.811 C -9.811,-4.393 -5.419,0 0,0"
             style="fill:#8898b0;fill-opacity:1;fill-rule:evenodd;stroke:none"
             id="path714" />
        </g>
        <g
           id="g716"
           transform="translate(331.1899,420.2947)">
          <path
             d="M 0,0 C -1.642,0 -3.283,-0.117 -4.909,-0.351 -5.006,-0.372 -5.104,-0.393 -5.202,-0.415 L -6.216,-4.39 h 0.356 c -3.996,-0.768 -7.8,-2.322 -11.19,-4.572 l 0.123,0.123 -3.553,1.992 c -0.722,-0.499 -1.426,-1.025 -2.108,-1.578 -1.241,-1.076 -2.404,-2.239 -3.48,-3.48 -0.601,-0.737 -1.171,-1.499 -1.709,-2.283 l 2.046,-3.449 0.242,0.243 c -2.264,-3.403 -3.826,-7.224 -4.594,-11.239 l -4.072,-1.147 c -0.221,-1.561 -0.333,-3.136 -0.338,-4.713 0,-1.643 0.117,-3.283 0.351,-4.91 0.044,-0.209 0.089,-0.419 0.136,-0.627 l 4.007,-1.024 v 0.366 c 0.797,-3.895 2.343,-7.598 4.552,-10.904 l -0.354,0.353 -1.988,-3.545 c 0.542,-0.789 1.116,-1.556 1.721,-2.298 1.076,-1.241 2.239,-2.404 3.48,-3.48 0.674,-0.546 1.369,-1.065 2.082,-1.558 l 3.503,2.078 -0.149,0.149 c 3.484,-2.338 7.409,-3.937 11.535,-4.7 h -0.894 l 1.108,-3.936 c 0.164,-0.037 0.329,-0.072 0.494,-0.107 1.626,-0.234 3.267,-0.351 4.909,-0.351 1.641,0 3.279,0.118 4.903,0.351 l 1.031,4.039 h -0.34 c 4.19,0.775 8.173,2.414 11.695,4.812 l 3.623,-2.032 c 0.571,0.401 1.131,0.82 1.677,1.255 1.241,1.076 2.404,2.239 3.48,3.48 0.699,0.847 1.357,1.726 1.973,2.636 l -2.103,3.544 -0.033,-0.033 c 2.036,3.243 3.448,6.839 4.163,10.601 l 4.105,1.155 c 0.213,1.553 0.32,3.119 0.32,4.686 0,0.564 -0.014,1.128 -0.042,1.692 -0.028,0.564 -0.069,1.127 -0.124,1.688 -0.056,0.562 -0.125,1.122 -0.208,1.681 -0.027,0.164 -0.056,0.328 -0.085,0.492 L 30,-27.909 v -0.036 c -0.81,3.735 -2.31,7.287 -4.423,10.471 l 0.007,-0.008 2.041,3.64 c -0.311,0.417 -0.632,0.828 -0.961,1.231 -0.358,0.436 -0.727,0.864 -1.106,1.283 -0.379,0.418 -0.768,0.826 -1.167,1.225 -0.399,0.4 -0.808,0.789 -1.226,1.168 -0.419,0.379 -0.846,0.748 -1.283,1.105 -0.436,0.359 -0.881,0.706 -1.334,1.042 -0.087,0.062 -0.175,0.124 -0.262,0.185 l -3.499,-2.074 0.216,-0.216 C 13.726,-6.716 10.062,-5.189 6.21,-4.394 H 6.229 L 5.1,-0.38 C 5.087,-0.378 5.074,-0.376 5.061,-0.374 4.503,-0.291 3.943,-0.222 3.381,-0.166 2.82,-0.111 2.257,-0.069 1.693,-0.041 1.129,-0.014 0.565,0 0,0 Z"
             style="fill:#8898b0;fill-opacity:1;fill-rule:evenodd;stroke:none"
             id="path718" />
        </g>
        <g
           id="g720"
           transform="translate(331.1904,410.1917)">
          <path
             d="m 0,0 c 13.471,0 24.391,-10.92 24.391,-24.391 0,-13.47 -10.92,-24.39 -24.391,-24.39 -13.471,0 -24.391,10.92 -24.391,24.39 C -24.391,-10.92 -13.471,0 0,0"
             style="fill:#404040;fill-opacity:1;fill-rule:evenodd;stroke:none"
             id="path722" />
        </g>
        <g
           id="g724"
           transform="translate(331.1907,404.9015)">
          <path
             d="m 0,0 c -10.532,0 -19.1,-8.568 -19.1,-19.1 0,-10.532 8.568,-19.1 19.1,-19.1 10.531,0 19.1,8.568 19.1,19.1 C 19.1,-8.568 10.531,0 0,0 m 0,-40.505 c -11.803,0 -21.405,9.602 -21.405,21.405 0,11.802 9.602,21.405 21.405,21.405 11.803,0 21.404,-9.603 21.404,-21.405 0,-11.803 -9.601,-21.405 -21.404,-21.405"
             style="fill:#8898b0;fill-opacity:1;fill-rule:nonzero;stroke:none"
             id="path726" />
        </g>
        <g
           id="g728"
           transform="translate(331.1904,392.994)">
          <path
             d="m 0,0 c 3.973,0 7.193,-3.22 7.193,-7.193 0,-3.972 -3.22,-7.193 -7.193,-7.193 -3.973,0 -7.193,3.221 -7.193,7.193 C -7.193,-3.22 -3.973,0 0,0"
             style="fill:#8898b0;fill-opacity:1;fill-rule:evenodd;stroke:none"
             id="path730" />
        </g>
        <g
           id="g732"
           transform="translate(183.7837,337.5639)">
          <path
             d="m 0,0 c 1.237,0.001 2.24,-1.024 2.24,-2.288 v -0.001 c 0,-1.264 -1.002,-2.288 -2.239,-2.289 H 0 c -1.236,0.001 -2.238,1.026 -2.238,2.289 0,1.264 1.002,2.288 2.238,2.289 M 8.592,9.139 12.315,5.639 7.422,4.168 Z M 7.916,15.051 C -2.316,8.182 -14.59,-9.147 -14.09,-15.035 c 3.645,-0.315 12.303,3.366 20.037,8.643 4.807,3.28 9.257,7.177 11.926,11.116 z"
             style="fill:#d8d8d8;fill-opacity:1;fill-rule:nonzero;stroke:none"
             id="path734" />
        </g>
        <g
           id="g736"
           transform="translate(231.2073,400.6571)">
          <path
             d="m 0,0 c -28.101,-6.529 -43.407,-49.979 -43.407,-49.979 l 4.675,-7.508 c 0.111,-0.051 7.541,-4.552 7.541,-4.552 0,0 43.281,15.779 49.504,43.949 0,0 0.146,4.453 -2.715,4.797 -3.473,0.419 -4.909,-1.376 -4.909,-1.376 -14.918,-31.021 -32.456,-31.126 -42.599,-36.661 5.418,10.207 4.574,28.496 35.415,43.743 0,0 1.779,1.454 1.323,4.923 C 4.453,0.193 0,0 0,0 Z"
             style="fill:#2c5e87;fill-opacity:1;fill-rule:nonzero;stroke:none"
             id="path738" />
        </g>
        <g
           id="g740"
           transform="translate(30.1336,274.5215)">
          <path
             d="M 0,0 C 2.758,-0.001 4.993,-2.236 4.994,-4.994 4.995,-7.753 2.759,-9.99 0.001,-9.99 H 0 c -2.759,0 -4.994,2.237 -4.994,4.995 v 0.001 C -4.993,-2.236 -2.758,-0.001 0,0 m 88.491,116.327 c -11.023,-0.001 -19.959,-8.937 -19.96,-19.959 0.006,-2.944 0.662,-5.851 1.922,-8.511 L 1.587,10.076 C 1.061,10.142 0.531,10.181 0,10.191 c -8.386,0 -15.185,-6.798 -15.185,-15.185 v 0 c 0,-8.386 6.798,-15.185 15.185,-15.185 v 0 c 8.386,0 15.185,6.799 15.185,15.185 v 0 c -0.012,1.142 -0.153,2.279 -0.42,3.39 l 69.516,78.512 c 1.381,-0.316 2.793,-0.485 4.21,-0.502 11.024,-0.001 19.961,8.936 19.961,19.96 v 0.002 c -0.002,4.123 -1.281,8.145 -3.662,11.513 l -1.014,-10.084 -10.463,-4.714 -9.317,6.703 1.148,11.42 9.326,4.2 c -1.935,0.609 -3.951,0.919 -5.979,0.921 z"
             style="fill:#2c5e87;fill-opacity:1;fill-rule:evenodd;stroke:none"
             id="path742" />
        </g>
      </g>
    </g>
  </g>
</svg>
