<?xml version="1.0" encoding="UTF-8" standalone="no"?>
<!-- Created with Inkscape (http://www.inkscape.org/) -->

<svg
   version="1.1"
   id="svg2"
   width="666.66669"
   height="499.49332"
   viewBox="0 0 666.66669 499.49332"
   sodipodi:docname="Rhythm World The Best+ More Of The Best (리듬 세상 더・베스트＋ 최고・중・더・베스트) Logo (Flat).ai"
   xmlns:inkscape="http://www.inkscape.org/namespaces/inkscape"
   xmlns:sodipodi="http://sodipodi.sourceforge.net/DTD/sodipodi-0.dtd"
   xmlns="http://www.w3.org/2000/svg"
   xmlns:svg="http://www.w3.org/2000/svg">
  <defs
     id="defs6">
    <clipPath
       clipPathUnits="userSpaceOnUse"
       id="clipPath16">
      <path
         d="M 0,374.62 H 500 V 0 H 0 Z"
         id="path14" />
    </clipPath>
  </defs>
  <sodipodi:namedview
     id="namedview4"
     pagecolor="#ffffff"
     bordercolor="#000000"
     borderopacity="0.25"
     inkscape:showpageshadow="2"
     inkscape:pageopacity="0.0"
     inkscape:pagecheckerboard="0"
     inkscape:deskcolor="#d1d1d1" />
  <g
     id="g8"
     inkscape:groupmode="layer"
     inkscape:label="Rhythm World The Best+ More Of The Best (리듬 세상 더・베스트＋ 최고・중・더・베스트) Logo (Flat)"
     transform="matrix(1.3333333,0,0,-1.3333333,0,499.49333)">
    <g
       id="g10">
      <g
         id="g12"
         clip-path="url(#clipPath16)">
        <g
           id="g18"
           transform="translate(400.9883,179.6924)">
          <path
             d="m 0,0 c 45.388,0 82.313,36.925 82.313,82.313 0,45.387 -36.925,82.312 -82.313,82.312 -18.975,0 -37.248,-6.572 -51.806,-18.358 -13.729,9.625 -30.056,14.815 -47.132,14.815 -36.069,0 -67.014,-23.091 -78.028,-55.973 -7.184,2.001 -14.648,3.033 -22.142,3.033 -15.267,0 -30.086,-4.22 -42.923,-12.073 -15.42,16.485 -36.991,25.998 -60.053,25.998 -45.388,0 -82.313,-36.925 -82.313,-82.312 0,-26.677 12.853,-50.868 33.144,-66.021 -13.403,-10.765 -22.011,-27.278 -22.011,-45.694 0,-12.711 3.993,-24.692 11.183,-34.529 -8.698,-7.714 -14.117,-18.965 -14.117,-31.339 0,-11.182 4.354,-21.695 12.261,-29.603 7.908,-7.906 18.421,-12.261 29.603,-12.261 11.728,0 22.723,4.939 30.513,13.219 3.206,-0.776 6.51,-1.173 9.851,-1.173 h 0.004 c 9.254,0 18.209,3.088 25.464,8.642 2.41,-0.039 4.802,0.136 7.164,0.511 5.454,-2.513 11.398,-3.821 17.486,-3.821 11.131,0 21.626,4.389 29.379,12.038 5.21,0.146 10.3,1.255 15.049,3.257 3.795,-1.103 7.749,-1.674 11.704,-1.674 8.527,0 16.7,2.553 23.612,7.292 5.94,-0.201 11.804,0.863 17.218,3.077 4.521,-1.624 9.312,-2.466 14.17,-2.466 9.023,0 17.61,2.853 24.693,8.046 3.806,-1.116 7.772,-1.691 11.785,-1.691 10.504,0 20.533,4.005 28.146,10.905 3.475,-0.92 7.073,-1.391 10.711,-1.391 23.084,0 41.864,18.779 41.864,41.863 0,1.773 -0.11,3.53 -0.328,5.267 12.831,11.612 20.253,28.085 20.253,45.745 0,9.841 -2.324,19.442 -6.766,28.113 0.277,1.309 0.509,2.626 0.695,3.95 C -1.111,0.006 -0.556,0 0,0"
             style="fill:#000000;fill-opacity:1;fill-rule:nonzero;stroke:none"
             id="path20" />
        </g>
        <g
           id="g22"
           transform="translate(400.9883,336.0703)">
          <path
             d="m 0,0 c -19.239,0 -37.68,-7.51 -51.437,-20.782 -13.307,11.157 -29.964,17.239 -47.501,17.239 -35.3,0 -65.148,-24.579 -72.395,-58.336 -8.782,3.545 -18.249,5.396 -27.775,5.396 -16.097,0 -31.64,-5.213 -44.41,-14.791 -13.991,18.091 -35.446,28.716 -58.566,28.716 -40.84,0 -74.066,-33.225 -74.066,-74.065 0,-28.375 16.153,-53.621 40.423,-66.005 -17.264,-8.011 -29.29,-25.529 -29.29,-45.71 0,-13.85 5.518,-26.692 15.158,-36.049 -10.827,-5.643 -18.092,-16.978 -18.092,-29.819 0,-8.98 3.496,-17.421 9.846,-23.771 6.35,-6.349 14.792,-9.846 23.771,-9.846 11.143,0 21.463,5.552 27.67,14.535 4.009,-1.639 8.312,-2.489 12.695,-2.489 h 0.003 c 8.411,0 16.516,3.178 22.682,8.81 3.747,-0.384 7.511,-0.129 11.14,0.731 4.971,-2.761 10.551,-4.209 16.292,-4.209 10.061,0 19.475,4.466 25.831,12.105 6.367,-0.46 12.563,0.894 18.072,3.816 3.887,-1.528 7.988,-2.3 12.229,-2.3 7.769,0 15.172,2.64 21.145,7.489 1.278,-0.146 2.566,-0.221 3.854,-0.221 5.492,0 10.833,1.325 15.636,3.854 4.47,-2.113 9.373,-3.219 14.365,-3.219 8.676,0 16.851,3.288 23.052,9.151 4.216,-1.837 8.781,-2.795 13.426,-2.795 10.023,0 19.511,4.544 25.843,12.132 4.099,-1.723 8.517,-2.62 13.014,-2.62 18.536,0 33.617,15.081 33.617,33.617 0,2.894 -0.364,5.738 -1.085,8.497 13.234,10.109 21.01,25.692 21.01,42.515 0,9.522 -2.51,18.782 -7.283,26.953 1.186,4.33 1.785,8.787 1.785,13.285 0,0.214 -0.002,0.428 -0.005,0.643 3.095,-0.391 6.219,-0.588 9.346,-0.588 40.84,0 74.066,33.226 74.066,74.066 C 74.066,-33.226 40.84,0 0,0"
             style="fill:#4087da;fill-opacity:1;fill-rule:nonzero;stroke:none"
             id="path24" />
        </g>
        <g
           id="g26"
           transform="translate(400.9883,330.3335)">
          <path
             d="m 0,0 c -20.36,0 -38.637,-8.909 -51.155,-23.037 -12.321,12.058 -29.182,19.494 -47.783,19.494 -35.264,0 -64.286,-26.714 -67.938,-61.009 -9.603,5.147 -20.576,8.069 -32.232,8.069 -17.493,0 -33.448,-6.577 -45.535,-17.389 -12.166,18.841 -33.346,31.314 -57.441,31.314 -37.737,0 -68.329,-30.591 -68.329,-68.328 0,-33.316 23.846,-61.057 55.399,-67.102 -24.479,-0.192 -44.266,-20.088 -44.266,-44.613 0,-16.2 8.634,-30.383 21.551,-38.201 -13.795,-1.676 -24.485,-13.419 -24.485,-27.667 0,-15.398 12.482,-27.88 27.88,-27.88 11.305,0 21.031,6.732 25.407,16.403 4.323,-2.755 9.452,-4.357 14.958,-4.357 8.196,-10e-4 15.565,3.536 20.666,9.167 1.751,-0.345 3.559,-0.53 5.411,-0.53 3.003,0 5.893,0.481 8.603,1.359 4.42,-2.945 9.727,-4.664 15.437,-4.664 9.699,0 18.238,4.954 23.232,12.469 1.609,-0.29 3.262,-0.449 4.953,-0.449 5.673,0 10.948,1.7 15.351,4.611 3.784,-1.921 8.062,-3.01 12.596,-3.01 7.528,0 14.354,2.988 19.37,7.838 1.819,-0.373 3.701,-0.57 5.629,-0.57 5.735,0 11.064,1.734 15.495,4.703 4.226,-2.58 9.192,-4.068 14.506,-4.068 8.835,0 16.704,4.114 21.813,10.526 4.261,-2.641 9.283,-4.17 14.665,-4.17 10.25,0 19.202,5.535 24.046,13.775 4.292,-2.697 9.367,-4.263 14.811,-4.263 15.398,0 27.88,12.483 27.88,27.88 0,3.805 -0.765,7.43 -2.144,10.735 13.267,8.495 22.069,23.353 22.069,40.277 0,9.649 -2.868,18.625 -7.785,26.138 1.475,4.433 2.287,9.17 2.287,14.1 0,2.598 -0.235,5.14 -0.661,7.617 5.053,-1.192 10.322,-1.825 15.739,-1.825 37.737,0 68.329,30.592 68.329,68.328 C 68.329,-30.592 37.737,0 0,0"
             style="fill:#000000;fill-opacity:1;fill-rule:nonzero;stroke:none"
             id="path28" />
        </g>
        <g
           id="g30"
           transform="translate(427.1592,174.8799)">
          <path
             d="m 0,0 3.482,39.798 -56.245,-11.955 -3.481,-39.798 -39.252,-8.343 -3.34,-38.178 39.252,8.344 -3.482,-39.799 56.245,11.955 3.481,39.799 39.251,8.343 3.341,38.177 z"
             style="fill:#000000;fill-opacity:1;fill-rule:nonzero;stroke:none"
             id="path32" />
        </g>
        <g
           id="g34"
           transform="translate(416.586,162.5234)">
          <path
             d="m 0,0 3.482,39.798 -36.901,-7.843 -3.481,-39.799 -39.251,-8.343 -1.538,-17.576 39.251,8.343 -3.482,-39.798 36.9,7.844 3.483,39.798 39.251,8.344 1.538,17.576 z"
             style="fill:#828282;fill-opacity:1;fill-rule:nonzero;stroke:none"
             id="path36" />
        </g>
        <g
           id="g38"
           transform="translate(381.7383,113.6338)">
          <path
             d="m 0,0 -0.281,-3.274 24.176,5.138 0.281,3.275 z M 23.062,12.004 21.08,7.668 c -4.307,-0.449 -8.228,2.373 -8.228,2.373 0,0 -4.417,-4.407 -8.622,-6.331 L 2.117,7.06 c 0,0 8.17,4.024 8.518,8.078 l 0.15,1.258 c 0.063,0.724 -0.386,0.723 -0.968,0.599 l -0.585,-0.124 0.198,2.287 6.428,1.366 -0.405,-4.226 c -0.376,-4.378 7.609,-4.294 7.609,-4.294"
             style="fill:#d8d8d8;fill-opacity:1;fill-rule:nonzero;stroke:none"
             id="path40" />
        </g>
        <g
           id="g42"
           transform="translate(403.2872,159.5449)">
          <path
             d="m 0,0 -0.214,-2.491 0.443,0.095 c 0.441,0.093 0.845,0.179 0.793,-0.424 l -0.397,-4.632 -3.052,-0.65 -0.347,-4.044 3.051,0.649 -1.168,-13.591 4.786,1.017 2.177,25.362 z m -6.224,-17.348 c 1.325,0.282 2.706,0.814 3.574,1.324 l -0.284,-3.296 c -0.869,-0.461 -2.571,-1.061 -4.492,-1.469 l -8.868,-1.885 c -1.158,-0.246 -2.01,0.564 -1.903,1.809 l 0.434,5.051 c 0.063,0.725 -0.626,0.579 -1.091,0.48 l -0.229,-0.049 0.184,2.135 10.42,2.215 0.219,2.551 -9.988,-2.123 0.275,3.212 14.325,3.024 c 0.362,0.077 0.627,-0.177 0.593,-0.566 l -0.64,-7.459 c -0.034,-0.389 -0.354,-0.766 -0.716,-0.843 l -7.272,-1.546 -0.326,-3.795 z"
             style="fill:#d8d8d8;fill-opacity:1;fill-rule:nonzero;stroke:none"
             id="path44" />
        </g>
        <g
           id="g46"
           transform="translate(395.6514,182.5483)">
          <path
             d="m 0,0 7.681,1.633 -0.158,-1.83 -7.68,-1.633 z m 11.349,0.084 0.244,2.841 2.654,1.068 0.194,2.258 -20.644,-4.387 -0.194,-2.26 2.566,0.042 -0.244,-2.841 -3.26,-1.124 -0.194,-2.26 21.868,4.649 0.194,2.259 z m 5.555,-2.783 -27.229,-5.788 -0.232,-2.699 27.23,5.788 z m -3.732,-12.818 -0.234,-2.731 -17.957,-3.816 c -1.988,-0.423 -2.671,-0.021 -2.57,1.16 l 0.142,1.645 c 0.044,0.512 -0.012,0.633 -0.615,0.505 l -0.523,-0.112 0.212,2.466 16.628,3.534 0.129,1.507 -16.1,-3.422 0.253,2.939 20.069,4.251 c 0.469,0.099 0.826,-0.096 0.775,-0.689 l -0.421,-4.899 c -0.023,-0.275 -0.457,-0.972 -0.927,-1.071 l -14.23,-3.025 -0.132,-1.537 z"
             style="fill:#d8d8d8;fill-opacity:1;fill-rule:nonzero;stroke:none"
             id="path48" />
        </g>
        <g
           id="g50"
           transform="translate(328.3917,84.7852)">
          <path
             d="m 0,0 v -4.145 l 32.002,6.802 v 4.146 z m 12.079,21.426 v -3.079 l 15.606,3.316 v -4.38 L 12.079,13.966 v -3.204 l 15.606,3.316 V 10.075 L 8.566,6.012 C 6.989,5.677 5.605,6.954 5.605,8.922 v 11.646 c 0,0.789 -0.122,1.016 -1.432,0.738 l -0.28,-0.06 v 2.764 l 23.792,5.056 v -4.323 z"
             style="fill:#4087da;fill-opacity:1;fill-rule:nonzero;stroke:none"
             id="path52" />
        </g>
        <g
           id="g54"
           transform="translate(290.463,76.9873)">
          <path
             d="M 0,0 V -4.213 L 31.867,2.561 V 6.773 Z M 29.377,15.451 27.16,10.327 c -6.032,-0.465 -10.843,3.767 -10.843,3.767 0,0 -4.859,-5.989 -11.184,-8.702 L 2.297,9.558 c 0,0 10.545,4.995 10.545,10.21 v 2.724 c 0,0.931 -0.602,0.927 -1.369,0.764 L 10.787,23.11 v 2.603 l 7.984,1.696 v -5.845 c 0,-5.631 10.606,-6.113 10.606,-6.113"
             style="fill:#4087da;fill-opacity:1;fill-rule:nonzero;stroke:none"
             id="path56" />
        </g>
        <g
           id="g58"
           transform="translate(259.4073,77.2617)">
          <path
             d="M 0,0 -3.797,-0.807 V 2.896 L 0,3.703 Z m 8.198,13.896 0.439,0.093 c 0.581,0.123 1.078,-0.051 1.078,-0.777 V 10.371 L 5.635,9.505 v 6.186 L -1.569,14.16 v -3.245 l 0.21,0.045 C -0.778,11.083 0,11.044 0,10.318 V 8.307 L -3.797,7.5 v 6.187 L -10.886,12.18 V 8.982 l 0.266,0.057 c 0.581,0.123 1.433,0.149 1.433,-0.575 V -4.382 c 0,-1.293 0.866,-1.994 2.113,-1.728 l 12.709,2.701 v 8.31 l 4.08,0.868 -10e-4,-18.272 5.446,1.157 v 29.992 l -6.962,-1.48 z m 15.359,7.863 v -31.32 l -5.938,-1.261 v 26.981 c 0,0.765 -0.465,1.064 -1.082,0.933 l -0.593,-0.127 v 3.176 z"
             style="fill:#4087da;fill-opacity:1;fill-rule:nonzero;stroke:none"
             id="path60" />
        </g>
        <g
           id="g62"
           transform="translate(243.5049,79.8311)">
          <path
             d="m 0,0 -3.409,-0.24 -1.545,2.694 -1.501,-3.342 -3.402,-1.208 2.481,-1.825 -0.559,-3.44 3.036,2.214 3.057,-0.919 -0.606,3.193 z"
             style="fill:#4087da;fill-opacity:1;fill-rule:nonzero;stroke:none"
             id="path64" />
        </g>
        <g
           id="g66"
           transform="translate(196.5088,79.3604)">
          <path
             d="M 0,0 18.115,3.851 V -0.593 L 8.108,-2.72 v -10.039 l 10.007,2.127 V -14.85 L 6.551,-17.308 c -3.5,-0.744 -4.801,0.22 -4.801,3.404 v 9.928 c 0,1.243 -0.182,1.551 -1.292,1.541 L 0,-2.438 Z m 30.196,9.313 v -29.716 l -5.608,-1.193 v 14.837 l -6.473,-1.376 v 4.919 l 6.473,1.376 v 6.033 c 0,0.707 -0.789,0.598 -1.365,0.476 L 22.997,4.62 v 3.162 z"
             style="fill:#4087da;fill-opacity:1;fill-rule:nonzero;stroke:none"
             id="path68" />
        </g>
        <g
           id="g70"
           transform="translate(190.5376,70.957)">
          <path
             d="m 0,0 -3.409,-0.239 -1.545,2.693 -1.502,-3.341 -3.401,-1.208 2.481,-1.825 -0.559,-3.44 3.035,2.213 3.057,-0.918 -0.605,3.193 z"
             style="fill:#4087da;fill-opacity:1;fill-rule:nonzero;stroke:none"
             id="path72" />
        </g>
        <g
           id="g74"
           transform="translate(162.3726,50.1104)">
          <path
             d="m 0,0 c 0,0.865 -0.14,2.284 -2.128,2.264 -1.937,-0.019 -3.72,-1.723 -3.72,-4.076 0,-2.269 1.401,-2.285 2.088,-2.292 C -1.733,-4.127 0,-2.118 0,0 M -0.021,7.251 V 5.507 C 0.428,5.457 0.864,5.392 1.271,5.299 4.146,4.644 5.127,2.561 5.127,0.545 c 0,-2.258 -1.156,-4.201 -3.42,-5.842 -2.026,-1.467 -4.06,-2.429 -7.439,-2.179 -2.068,0.154 -3.59,0.266 -4.617,2.626 -0.335,0.77 -0.503,1.571 -0.503,2.38 0,2.246 1.131,4.218 3.373,5.849 0.606,0.441 1.195,0.778 1.774,1.071 V 6.043 L -16.719,3.701 v 4.228 l 27.713,5.889 V 9.592 Z m -6.617,12.66 c 0,0.745 -0.062,0.945 -1.19,0.705 l -6.893,-1.465 v 4.07 L 8.828,28.226 V 24.157 L 1.882,22.681 C 0.79,22.448 0.691,22.187 0.691,21.469 c 0,-2.625 8.137,-2.014 8.137,-2.014 L 6.9,14.816 c -5.245,-0.372 -10.113,2.68 -10.113,2.68 0,0 -3.541,-4.568 -9.042,-6.981 l -2.466,3.809 c 0,0 8.083,2.832 8.083,5.587"
             style="fill:#4087da;fill-opacity:1;fill-rule:nonzero;stroke:none"
             id="path76" />
        </g>
        <g
           id="g78"
           transform="translate(138.5733,60.8066)">
          <path
             d="m 0,0 -3.409,-0.24 -1.545,2.694 -1.501,-3.342 -3.402,-1.208 2.481,-1.825 -0.559,-3.44 3.036,2.214 3.057,-0.919 -0.606,3.193 z"
             style="fill:#4087da;fill-opacity:1;fill-rule:nonzero;stroke:none"
             id="path80" />
        </g>
        <g
           id="g82"
           transform="translate(110.5069,46.0283)">
          <path
             d="M 0,0 V 10.505 L -7.285,8.957 V 5.918 l 0.568,0.121 c 0.591,0.125 1.036,-0.16 1.036,-0.893 v -6.354 l -12.246,-2.603 v -4.308 l 31.831,6.765 v 4.309 z m 5.417,16.21 -19.261,-4.095 v 4.495 l 24.665,5.243 c 0,-4.946 0.046,-11.072 -0.689,-16.408 L 4.66,4.282 c 0.48,4.029 0.757,8.629 0.757,11.928"
             style="fill:#4087da;fill-opacity:1;fill-rule:nonzero;stroke:none"
             id="path84" />
        </g>
        <g
           id="g86"
           transform="translate(78.0733,61.7295)">
          <path
             d="m 0,0 v -3.003 l 0.561,0.119 c 0.584,0.124 1.024,-0.158 1.024,-0.882 v -21.782 l -10.52,-2.236 v 5.916 l -7.284,-1.549 v -3.038 l 0.568,0.12 c 0.59,0.126 1.035,-0.16 1.035,-0.892 v -1.764 l -10.454,-2.223 v -4.076 l 26.655,5.666 v -3.782 l 5.616,1.193 V 1.531 Z m -16.324,-15.033 c 0,0.887 -0.064,1.158 -1.288,0.897 l -7.458,-1.585 v 4.409 l 9.815,2.087 v 1.233 c 0,0.732 -0.446,1.018 -1.036,0.892 l -0.568,-0.12 v 3.038 l 7.285,1.548 v -5.384 l 9.984,2.122 v -4.409 l -7.516,-1.597 c -1.182,-0.251 -1.288,-0.568 -1.288,-1.446 0,-3.208 8.804,-2.703 8.804,-2.703 l -1.83,-5.171 c -5.676,-0.299 -11.199,3.136 -11.199,3.136 0,0 -4.158,-4.88 -10.111,-7.665 l -2.34,4.284 c 0,0 8.746,3.068 8.746,6.434"
             style="fill:#4087da;fill-opacity:1;fill-rule:nonzero;stroke:none"
             id="path88" />
        </g>
        <g
           id="g90"
           transform="translate(270.584,126.8145)">
          <path
             d="M 0,0 V -6.634 L 51.22,4.253 v 6.634 z m 19.333,34.292 v -4.93 l 24.977,5.31 V 27.661 L 19.333,22.352 V 17.223 L 44.31,22.532 V 16.125 L 13.71,9.621 C 11.186,9.085 8.973,11.129 8.973,14.278 v 18.641 c 0,1.263 -0.197,1.625 -2.294,1.18 L 6.23,34.003 v 4.424 l 38.08,8.094 v -6.92 z"
             style="fill:#4087da;fill-opacity:1;fill-rule:nonzero;stroke:none"
             id="path92" />
        </g>
        <g
           id="g94"
           transform="translate(209.8794,114.333)">
          <path
             d="M 0,0 V -6.742 L 51.003,4.099 v 6.742 z M 47.018,24.73 43.47,16.529 c -9.654,-0.744 -17.354,6.028 -17.354,6.028 0,0 -7.777,-9.584 -17.902,-13.928 l -4.537,6.668 c 0,0 16.877,7.994 16.877,16.341 v 4.36 c 0,1.491 -0.963,1.484 -2.191,1.223 l -1.099,-0.234 v 4.166 l 12.779,2.716 v -9.355 c 0,-9.013 16.975,-9.784 16.975,-9.784"
             style="fill:#4087da;fill-opacity:1;fill-rule:nonzero;stroke:none"
             id="path96" />
        </g>
        <g
           id="g98"
           transform="translate(160.1753,114.7725)">
          <path
             d="M 0,0 -6.077,-1.292 V 4.636 L 0,5.927 Z m 13.121,22.24 0.702,0.15 c 0.93,0.197 1.725,-0.083 1.725,-1.244 V 16.6 L 9.019,15.212 v 9.902 L -2.513,22.663 v -5.194 l 0.338,0.072 C -1.245,17.738 0,17.676 0,16.515 v -3.22 l -6.077,-1.292 v 9.902 l -11.346,-2.411 v -5.118 l 0.426,0.091 c 0.93,0.197 2.294,0.239 2.294,-0.921 v -20.56 c 0,-2.068 1.385,-3.19 3.38,-2.766 l 20.342,4.324 v 13.3 l 6.529,1.387 v -29.242 l 8.715,1.853 v 48 L 13.121,27.474 Z m 24.581,12.584 v -50.126 l -9.502,-2.02 v 43.184 c 0,1.225 -0.745,1.702 -1.732,1.492 l -0.95,-0.202 v 5.082 z"
             style="fill:#4087da;fill-opacity:1;fill-rule:nonzero;stroke:none"
             id="path100" />
        </g>
        <g
           id="g102"
           transform="translate(134.7237,118.8848)">
          <path
             d="m 0,0 -5.457,-0.385 -2.471,4.313 -2.404,-5.349 -5.445,-1.933 3.971,-2.921 -0.893,-5.506 4.857,3.542 4.893,-1.47 -0.968,5.11 z"
             style="fill:#4087da;fill-opacity:1;fill-rule:nonzero;stroke:none"
             id="path104" />
        </g>
        <g
           id="g106"
           transform="translate(59.5064,118.1309)">
          <path
             d="m 0,0 28.993,6.162 v -7.11 L 12.977,-4.353 V -20.42 l 16.016,3.404 v -6.752 L 10.484,-27.701 C 4.883,-28.892 2.8,-27.35 2.8,-22.254 v 15.892 c 0,1.987 -0.29,2.481 -2.067,2.466 L 0,-3.902 Z m 48.328,14.904 v -47.559 l -8.974,-1.908 v 23.746 L 28.993,-13.02 v 7.873 l 10.361,2.202 v 9.656 c 0,1.132 -1.263,0.957 -2.186,0.762 L 36.806,7.396 v 5.059 z"
             style="fill:#4087da;fill-opacity:1;fill-rule:nonzero;stroke:none"
             id="path108" />
        </g>
        <g
           id="g110"
           transform="translate(379.4835,266.063)">
          <path
             d="m 0,0 c 0,0 -1.706,-14.689 -20.318,-33.964 l -9.53,7.803 c 9.537,7.964 20.529,25.963 20.529,41.82 v 0.448 c 0,1.905 -1.462,1.875 -3.283,1.485 l -1.839,-0.394 v 5.644 L 5.982,27.223 V 18.941 C 5.982,2.746 14.843,0.306 26.616,0.407 L 20.76,-8.887 C 2.87,-7.599 0,0 0,0 M 57.198,23.725 V 13.411 L 45.57,10.917 v -19.37 l -15.533,-3.331 v 44.629 c 0,2.009 -1.636,1.959 -3.5,1.559 l -1.873,-0.402 v 5.956 L 45.57,44.442 V 21.23 Z M 16.121,-42.023 c -2.12,0.003 -6.444,0.009 -6.444,6.712 0,6.948 5.501,12.033 11.481,12.144 6.139,0.114 6.571,-4.072 6.571,-6.625 0,-6.259 -5.35,-12.24 -11.608,-12.231 m 15.532,27.914 c -7.209,1.505 -16.488,1.505 -27.014,-5.917 -6.921,-4.881 -10.411,-10.735 -10.411,-17.37 0,-2.39 0.52,-4.752 1.553,-7.015 3.171,-6.943 7.867,-7.232 14.252,-7.626 10.434,-0.642 16.709,2.258 22.964,6.647 6.989,4.911 10.558,10.682 10.558,17.351 0,5.954 -3.031,12.079 -11.902,13.93"
             style="fill:#4087da;fill-opacity:1;fill-rule:nonzero;stroke:none"
             id="path112" />
        </g>
        <g
           id="g114"
           transform="translate(312.9249,298.7031)">
          <path
             d="m 0,0 v -5.796 l 1.511,0.321 c 1.504,0.32 2.847,0.541 2.847,-1.453 v -73.808 l 15.188,3.228 V 4.154 Z m -17.791,-18.817 v -5.796 l 1.511,0.321 c 1.504,0.319 2.881,0.612 2.881,-1.383 l -0.001,-16.889 -12.738,-2.708 v -9.086 l 12.738,2.708 v -50.052 l 13.972,2.97 v 83.817 z m 1.975,-48.106 -6.515,-9.049 c -12.727,4.134 -16.164,10.626 -16.164,10.626 0,0 -4.82,-9.3 -14.923,-18.981 l -8.429,7.147 c 0,0 14.891,14.525 14.891,28.856 v 10.908 c 0,1.995 -1.578,1.924 -3.345,1.548 l -1.773,-0.377 v 6.303 l 19.503,4.145 v -20.067 c 0,-19.214 16.755,-21.059 16.755,-21.059"
             style="fill:#4087da;fill-opacity:1;fill-rule:nonzero;stroke:none"
             id="path116" />
        </g>
        <g
           id="g118"
           transform="translate(186.0191,232.668)">
          <path
             d="M 0,0 V -9.394 L 48.096,0.829 v -9.153 l -55.74,-11.848 c -4.498,-0.956 -8.145,2.083 -8.145,6.788 v 10.905 c 0,1.887 -0.166,2.456 -4.385,1.559 l -0.799,-0.17 v 5.785 l 69.069,14.681 v -9.153 z m 48.096,-12.808 v -9.153 L -32.783,-39.153 V -30 Z M 30.421,-51.396 3.177,-57.188 v 11.935 l 27.244,5.791 z m 16.045,24.604 -64.568,-13.724 V -46.8 l 0.801,0.17 c 4.225,0.898 4.391,0.207 4.391,-1.864 v -13.152 c 0,-4.234 3.283,-6.969 7.331,-6.108 l 46.344,9.85 c 4.048,0.861 7.331,4.991 7.331,9.225 v 20.53 c 0,0.941 -0.73,1.548 -1.63,1.357"
             style="fill:#4087da;fill-opacity:1;fill-rule:nonzero;stroke:none"
             id="path120" />
        </g>
        <g
           id="g122"
           transform="translate(108.3624,260.5884)">
          <path
             d="m 0,0 v -6.216 l 1.781,0.377 c 1.772,0.375 3.395,0.719 3.395,-1.6 v -36.714 c -2.618,-1.538 -5.972,-2.829 -10.107,-3.705 l -24.491,-5.188 v 11.237 l 22.711,4.81 c 1.13,0.24 2.046,1.368 2.046,2.52 v 22.248 c 0,1.152 -0.916,1.892 -2.046,1.653 l -42.598,-9.024 v -9.607 l 29.053,6.153 v -7.554 l -30.404,-6.441 v -6.321 l 0.718,0.153 c 1.45,0.307 3.6,0.762 3.6,-1.387 v -14.957 c 0,-3.687 2.931,-6.054 6.547,-5.289 l 31.979,6.774 c 5.999,1.271 10.353,2.812 12.992,4.203 v -35.201 l 16.471,3.49 V 4.585 Z"
             style="fill:#4087da;fill-opacity:1;fill-rule:nonzero;stroke:none"
             id="path124" />
        </g>
        <g
           id="g126"
           transform="translate(478.7794,188.5991)">
          <path
             d="m 0,0 0.668,7.777 -2.447,-8.155 -1.927,-0.41 -1.069,7.408 -0.668,-7.777 -1.823,-0.387 0.8,9.31 2.847,0.605 1.081,-7.02 0.021,0.004 2.309,7.741 2.809,0.597 -0.8,-9.311 z m -13.153,-2.796 0.658,7.659 -2.931,-0.623 0.142,1.646 7.751,1.648 -0.141,-1.646 -2.825,-0.601 -0.658,-7.659 z"
             style="fill:#000000;fill-opacity:1;fill-rule:nonzero;stroke:none"
             id="path128" />
        </g>
        <g
           id="g130"
           transform="translate(456.0821,371.2544)">
          <path
             d="m 0,0 c -2.091,0 -4.18,-0.149 -6.25,-0.447 -0.124,-0.027 -0.249,-0.054 -0.373,-0.082 l -1.291,-5.06 h 0.453 c -5.088,-0.978 -9.931,-2.956 -14.247,-5.822 l 0.156,0.157 -4.523,2.536 c -0.92,-0.635 -1.816,-1.305 -2.684,-2.009 -1.581,-1.369 -3.061,-2.85 -4.43,-4.431 -0.766,-0.938 -1.492,-1.907 -2.177,-2.905 l 2.604,-4.393 0.31,0.31 c -2.883,-4.333 -4.872,-9.198 -5.85,-14.31 l -5.184,-1.46 c -0.281,-1.988 -0.424,-3.993 -0.431,-6.001 0,-2.091 0.149,-4.18 0.447,-6.25 0.056,-0.268 0.114,-0.534 0.174,-0.8 l 5.102,-1.303 v 0.465 c 1.014,-4.958 2.982,-9.673 5.795,-13.882 l -0.451,0.45 -2.531,-4.514 c 0.69,-1.005 1.421,-1.981 2.191,-2.926 1.37,-1.58 2.85,-3.061 4.431,-4.431 0.859,-0.694 1.742,-1.356 2.651,-1.984 l 4.46,2.647 -0.189,0.189 c 4.435,-2.976 9.433,-5.013 14.686,-5.984 H -8.29 l 1.41,-5.011 c 0.21,-0.047 0.42,-0.092 0.63,-0.136 2.07,-0.298 4.159,-0.447 6.25,-0.447 2.089,0 4.175,0.149 6.243,0.447 l 1.313,5.142 H 7.123 c 5.334,0.987 10.404,3.073 14.889,6.126 l 4.613,-2.587 c 0.728,0.512 1.439,1.044 2.135,1.598 1.581,1.37 3.061,2.851 4.431,4.431 0.89,1.078 1.728,2.198 2.511,3.356 l -2.677,4.512 -0.042,-0.042 c 2.593,4.13 4.391,8.707 5.301,13.497 l 5.227,1.471 c 0.27,1.977 0.407,3.97 0.407,5.966 0,0.719 -0.019,1.437 -0.054,2.154 -0.035,0.718 -0.088,1.435 -0.158,2.15 -0.07,0.715 -0.158,1.428 -0.264,2.139 -0.035,0.21 -0.071,0.419 -0.109,0.628 l -5.138,1.312 v -0.046 c -1.031,4.756 -2.94,9.277 -5.631,13.332 l 0.01,-0.01 2.598,4.634 c -0.396,0.532 -0.804,1.054 -1.224,1.567 -0.456,0.556 -0.926,1.1 -1.408,1.633 -0.482,0.533 -0.978,1.053 -1.486,1.561 -0.508,0.509 -1.029,1.005 -1.561,1.488 -0.532,0.481 -1.077,0.951 -1.633,1.406 -0.555,0.456 -1.122,0.899 -1.699,1.327 -0.11,0.079 -0.222,0.157 -0.334,0.235 l -4.454,-2.641 0.274,-0.275 c -4.17,2.772 -8.835,4.717 -13.741,5.729 H 7.932 L 6.493,-0.483 C 6.477,-0.481 6.461,-0.479 6.444,-0.476 5.733,-0.371 5.021,-0.282 4.305,-0.212 3.59,-0.141 2.873,-0.088 2.155,-0.053 1.437,-0.018 0.719,0 0,0"
             style="fill:#8898b0;fill-opacity:1;fill-rule:evenodd;stroke:none"
             id="path132" />
        </g>
        <g
           id="g134"
           transform="translate(456.0831,358.3911)">
          <path
             d="M 0,0 C 17.15,0 31.054,-13.903 31.054,-31.054 31.054,-48.205 17.15,-62.108 0,-62.108 c -17.151,0 -31.055,13.903 -31.055,31.054 C -31.055,-13.903 -17.151,0 0,0"
             style="fill:#404040;fill-opacity:1;fill-rule:evenodd;stroke:none"
             id="path136" />
        </g>
        <g
           id="g138"
           transform="translate(456.0831,351.6553)">
          <path
             d="m 0,0 c -13.409,0 -24.318,-10.909 -24.318,-24.318 0,-13.409 10.909,-24.318 24.318,-24.318 13.409,0 24.317,10.909 24.317,24.318 C 24.317,-10.909 13.409,0 0,0 m 0,-51.571 c -15.027,0 -27.253,12.226 -27.253,27.253 0,15.027 12.226,27.253 27.253,27.253 15.027,0 27.253,-12.226 27.253,-27.253 0,-15.027 -12.226,-27.253 -27.253,-27.253"
             style="fill:#8898b0;fill-opacity:1;fill-rule:nonzero;stroke:none"
             id="path140" />
        </g>
        <g
           id="g142"
           transform="translate(456.0831,336.4951)">
          <path
             d="m 0,0 c 5.058,0 9.157,-4.1 9.157,-9.158 0,-5.058 -4.099,-9.158 -9.157,-9.158 -5.059,0 -9.158,4.1 -9.158,9.158 C -9.158,-4.1 -5.059,0 0,0"
             style="fill:#8898b0;fill-opacity:1;fill-rule:evenodd;stroke:none"
             id="path144" />
        </g>
        <g
           id="g146"
           transform="translate(384.0821,374.6201)">
          <path
             d="m 0,0 c -1.532,0 -3.063,-0.109 -4.581,-0.328 -0.092,-0.019 -0.183,-0.039 -0.274,-0.06 l -0.947,-3.71 h 0.333 c -3.73,-0.716 -7.281,-2.167 -10.446,-4.267 l 0.115,0.115 -3.316,1.859 c -0.674,-0.466 -1.33,-0.957 -1.967,-1.473 -1.159,-1.004 -2.245,-2.09 -3.249,-3.249 -0.561,-0.687 -1.093,-1.398 -1.596,-2.13 l 1.91,-3.219 0.227,0.226 c -2.113,-3.177 -3.571,-6.743 -4.289,-10.491 l -3.801,-1.07 c -0.205,-1.457 -0.31,-2.928 -0.315,-4.399 0,-1.534 0.109,-3.065 0.328,-4.583 0.04,-0.196 0.083,-0.391 0.127,-0.586 l 3.74,-0.955 v 0.341 c 0.744,-3.636 2.187,-7.092 4.248,-10.178 l -0.329,0.33 -1.855,-3.309 c 0.504,-0.738 1.041,-1.453 1.605,-2.145 1.004,-1.159 2.09,-2.245 3.249,-3.249 0.629,-0.509 1.277,-0.994 1.943,-1.454 l 3.27,1.94 -0.139,0.139 c 3.251,-2.182 6.915,-3.676 10.767,-4.387 h -0.835 l 1.034,-3.674 c 0.153,-0.034 0.308,-0.068 0.462,-0.1 1.518,-0.218 3.049,-0.328 4.581,-0.328 1.532,0 3.062,0.11 4.577,0.328 l 0.962,3.77 H 5.223 c 3.91,0.724 7.628,2.253 10.916,4.491 l 3.381,-1.896 c 0.534,0.374 1.055,0.765 1.565,1.171 1.159,1.004 2.245,2.09 3.249,3.249 0.652,0.79 1.267,1.611 1.841,2.46 l -1.962,3.308 -0.031,-0.03 c 1.9,3.026 3.218,6.383 3.885,9.895 l 3.832,1.077 c 0.199,1.45 0.299,2.911 0.299,4.375 -10e-4,0.526 -0.013,1.053 -0.04,1.579 -0.025,0.526 -0.064,1.052 -0.115,1.575 -0.052,0.525 -0.116,1.048 -0.194,1.569 -0.026,0.154 -0.052,0.307 -0.08,0.46 l -3.766,0.962 v -0.034 c -0.756,3.487 -2.156,6.802 -4.129,9.775 l 0.008,-0.007 1.904,3.397 c -0.29,0.389 -0.59,0.772 -0.897,1.149 -0.334,0.407 -0.679,0.806 -1.033,1.197 -0.353,0.39 -0.716,0.771 -1.088,1.144 -0.373,0.373 -0.754,0.736 -1.145,1.09 -0.391,0.354 -0.79,0.697 -1.197,1.031 -0.407,0.335 -0.822,0.659 -1.245,0.973 -0.082,0.058 -0.163,0.116 -0.245,0.173 L 15.67,-8.1 15.871,-8.301 c -3.058,2.032 -6.478,3.458 -10.074,4.2 H 5.815 L 4.761,-0.354 C 4.749,-0.353 4.737,-0.351 4.725,-0.349 4.204,-0.271 3.681,-0.207 3.156,-0.155 2.632,-0.104 2.106,-0.064 1.58,-0.039 1.055,-0.013 0.527,0 0.001,0 Z"
             style="fill:#8898b0;fill-opacity:1;fill-rule:evenodd;stroke:none"
             id="path148" />
        </g>
        <g
           id="g150"
           transform="translate(384.0831,365.1899)">
          <path
             d="M 0,0 C 12.573,0 22.767,-10.193 22.767,-22.767 22.767,-35.34 12.573,-45.534 0,-45.534 c -12.573,0 -22.767,10.194 -22.767,22.767 C -22.767,-10.193 -12.573,0 0,0"
             style="fill:#404040;fill-opacity:1;fill-rule:evenodd;stroke:none"
             id="path152" />
        </g>
        <g
           id="g154"
           transform="translate(384.0831,360.252)">
          <path
             d="m 0,0 c -9.83,0 -17.828,-7.998 -17.828,-17.829 0,-9.83 7.998,-17.828 17.828,-17.828 9.83,0 17.828,7.998 17.828,17.828 C 17.828,-7.998 9.83,0 0,0 m 0,-37.809 c -11.017,0 -19.979,8.963 -19.979,19.98 0,11.017 8.962,19.98 19.979,19.98 11.018,0 19.979,-8.963 19.979,-19.98 0,-11.017 -8.961,-19.98 -19.979,-19.98"
             style="fill:#8898b0;fill-opacity:1;fill-rule:nonzero;stroke:none"
             id="path156" />
        </g>
        <g
           id="g158"
           transform="translate(384.0831,349.1372)">
          <path
             d="m 0,0 c 3.708,0 6.714,-3.006 6.714,-6.714 0,-3.708 -3.006,-6.714 -6.714,-6.714 -3.708,0 -6.714,3.006 -6.714,6.714 C -6.714,-3.006 -3.708,0 0,0"
             style="fill:#8898b0;fill-opacity:1;fill-rule:evenodd;stroke:none"
             id="path160" />
        </g>
        <g
           id="g162"
           transform="translate(215.9834,285.4224)">
          <path
             d="m 0,0 c 1.154,0 2.09,-0.956 2.091,-2.135 v -0.001 c 0,-1.18 -0.936,-2.137 -2.09,-2.137 H 0 c -1.154,10e-4 -2.089,0.957 -2.089,2.137 C -2.089,-0.957 -1.154,0 0,0 M 8.02,8.531 11.495,5.263 6.928,3.89 Z m -0.631,5.518 c -9.551,-6.411 -21.008,-22.587 -20.541,-28.083 3.402,-0.294 11.484,3.142 18.703,8.068 4.487,3.062 8.64,6.699 11.132,10.375 z"
             style="fill:#d8d8d8;fill-opacity:1;fill-rule:nonzero;stroke:none"
             id="path164" />
        </g>
        <g
           id="g166"
           transform="translate(260.2491,344.3149)">
          <path
             d="m 0,0 c -26.23,-6.095 -40.516,-46.651 -40.516,-46.651 l 4.364,-7.009 c 0.103,-0.048 7.038,-4.249 7.038,-4.249 0,0 40.4,14.728 46.209,41.023 0,0 0.135,4.157 -2.535,4.478 -3.243,0.391 -4.582,-1.284 -4.582,-1.284 -13.925,-28.956 -30.296,-29.054 -39.763,-34.221 5.057,9.528 4.269,26.599 33.057,40.831 0,0 1.661,1.357 1.235,4.595 C 4.156,0.18 0.001,0 0.001,0 Z"
             style="fill:#2c5e87;fill-opacity:1;fill-rule:nonzero;stroke:none"
             id="path168" />
        </g>
        <g
           id="g170"
           transform="translate(14.1739,220.3164)">
          <path
             d="M 0,0 C 2.574,0 4.661,-2.087 4.662,-4.662 4.663,-7.236 2.576,-9.324 0,-9.325 v 0 c -2.575,0 -4.662,2.088 -4.661,4.663 v 0 C -4.661,-2.087 -2.574,0 0,0 m 82.599,108.582 c -10.289,-10e-4 -18.63,-8.342 -18.63,-18.63 0.005,-2.748 0.617,-5.461 1.794,-7.945 L 1.482,9.406 C 0.99,9.467 0.496,9.503 0,9.513 c -7.828,0 -14.174,-6.346 -14.174,-14.174 v -0.001 c 0,-7.828 6.346,-14.173 14.174,-14.173 7.828,0 14.174,6.345 14.174,14.173 -0.011,1.067 -0.143,2.128 -0.392,3.165 L 78.67,71.788 c 1.289,-0.296 2.606,-0.453 3.929,-0.469 10.29,-0.001 18.632,8.341 18.633,18.631 v 0.002 c -0.002,3.849 -1.196,7.603 -3.419,10.746 l -0.946,-9.412 -9.767,-4.401 -8.696,6.258 1.071,10.659 8.705,3.921 c -1.806,0.568 -3.688,0.858 -5.581,0.859"
             style="fill:#2c5e87;fill-opacity:1;fill-rule:evenodd;stroke:none"
             id="path172" />
        </g>
      </g>
    </g>
  </g>
</svg>
