<?xml version="1.0" encoding="UTF-8" standalone="no"?>
<!-- Created with Inkscape (http://www.inkscape.org/) -->

<svg
   version="1.1"
   id="svg2"
   width="666.66669"
   height="457.08267"
   viewBox="0 0 666.66669 457.08267"
   sodipodi:docname="Rhythm Heaven Re-Megamix Logo (Wordmark).ai"
   xmlns:inkscape="http://www.inkscape.org/namespaces/inkscape"
   xmlns:sodipodi="http://sodipodi.sourceforge.net/DTD/sodipodi-0.dtd"
   xmlns="http://www.w3.org/2000/svg"
   xmlns:svg="http://www.w3.org/2000/svg">
  <defs
     id="defs6">
    <clipPath
       clipPathUnits="userSpaceOnUse"
       id="clipPath16">
      <path
         d="M 0,342.812 H 500 V 0 H 0 Z"
         id="path14" />
    </clipPath>
  </defs>
  <sodipodi:namedview
     id="namedview4"
     pagecolor="#ffffff"
     bordercolor="#000000"
     borderopacity="0.25"
     inkscape:showpageshadow="2"
     inkscape:pageopacity="0.0"
     inkscape:pagecheckerboard="0"
     inkscape:deskcolor="#d1d1d1" />
  <g
     id="g8"
     inkscape:groupmode="layer"
     inkscape:label="Rhythm Heaven Re-Megamix Logo (Wordmark)"
     transform="matrix(1.3333333,0,0,-1.3333333,0,457.08267)">
    <g
       id="g10">
      <g
         id="g12"
         clip-path="url(#clipPath16)">
        <g
           id="g18"
           transform="translate(477.6992,174.6738)">
          <path
             d="m 0,0 -0.003,-16.415 c 0,-3.817 -2.376,-7.698 -6.811,-8.724 -4.437,-1.023 -6.812,1.761 -6.812,5.579 v 16.415 l -22.302,-5.16 v -7.409 c 0,-13.816 2.746,-20.897 10.308,-25.9 -10.322,-12.704 -10.335,-21.369 -10.308,-30.208 V -82 l 22.301,5.149 v 17.319 c 0,6.175 2.376,9.999 6.813,11.023 C -2.379,-47.484 0,-50.212 0,-56.388 v -17.318 l 22.301,5.148 v 10.179 c 0,8.845 0,17.521 -10.309,25.449 7.562,8.493 10.309,16.843 10.309,30.659 v 7.42 z"
             style="fill:#000000;fill-opacity:1;fill-rule:nonzero;stroke:none"
             id="path20" />
        </g>
        <g
           id="g22"
           transform="translate(411.583,166.9306)">
          <path
             d="m 0,0 v -73.711 l 22.329,5.154 V 5.154 Z"
             style="fill:#000000;fill-opacity:1;fill-rule:nonzero;stroke:none"
             id="path24" />
        </g>
        <g
           id="g26"
           transform="translate(375.4795,153.2245)">
          <path
             d="m 0,0 c -5.809,-1.341 -10.483,-3.77 -15.651,-8.259 -5.167,2.104 -9.815,2.38 -15.652,1.032 -8.625,-1.991 -16.038,-7 -21.512,-14.557 -5.758,-7.947 -7.697,-15.032 -7.697,-28.38 v -39.33 l 22.41,5.174 v 43.589 c 0,6.568 2.117,9.316 5.575,10.115 3.459,0.798 5.671,-0.95 5.671,-7.52 v -43.589 l 22.41,5.174 v 43.589 c 0,6.568 2.212,9.34 5.67,10.139 3.459,0.798 5.576,-0.974 5.576,-7.542 v -43.589 l 22.41,5.173 v 39.33 c 0,13.348 -1.94,19.537 -7.697,24.827 C 17.571,-1.002 12.637,0.837 6.954,0.837 4.744,0.837 2.422,0.56 0,0"
             style="fill:#000000;fill-opacity:1;fill-rule:nonzero;stroke:none"
             id="path28" />
        </g>
        <g
           id="g30"
           transform="translate(272.0791,104.1113)">
          <path
             d="M 0,0 -5.956,4.785 2.296,7.98 6.01,16.718 9.725,9.696 17.977,10.311 12.02,2.774 13.406,-5.582 6.01,-3.217 -1.386,-8.997 Z M 6.01,34.257 C -2.828,32.216 -11.559,25.913 -16.821,17.65 -21.434,10.409 -23.104,3.835 -23.104,-7.345 v -40.622 l 22.275,5.143 v 16.177 l 13.679,3.137 v -16.155 l 22.273,5.141 V 6.099 c 0,11.179 -1.658,16.993 -6.263,22.098 -3.991,4.427 -9.98,6.796 -16.493,6.796 -2.082,0 -4.216,-0.241 -6.357,-0.736"
             style="fill:#000000;fill-opacity:1;fill-rule:nonzero;stroke:none"
             id="path32" />
        </g>
        <g
           id="g34"
           transform="translate(224.7154,118.8417)">
          <path
             d="m 0,0 c -12.704,-2.932 -22.05,-8.713 -29.399,-18.121 -6.739,-8.627 -10.498,-19.422 -10.498,-29.812 0,-10.852 4.081,-19.89 11.477,-25.533 7.426,-5.666 15.548,-6.852 28.067,-3.962 5.993,1.383 10.416,2.94 17.868,6.071 v 43.026 l -22.274,-5.143 v -21.98 c -7.969,-0.737 -13.136,4.15 -13.136,12.559 0,10.008 6.908,17.265 19.092,20.078 5.232,1.208 9.492,1.728 16.318,1.867 V 2.146 C 10.253,1.927 5.575,1.287 0,0"
             style="fill:#000000;fill-opacity:1;fill-rule:nonzero;stroke:none"
             id="path36" />
        </g>
        <g
           id="g38"
           transform="translate(156.5616,108.8671)">
          <path
             d="m 0,0 c -7.887,-1.797 -13.669,-4.693 -17.542,-8.653 -4.909,-5.021 -7.751,-11.725 -7.751,-18.688 0,-7.152 2.529,-10.442 9.573,-12.48 C -23.171,-45.506 -26,-50.812 -26,-58.97 c 0,-6.746 2.191,-11.693 6.527,-14.412 4.152,-2.605 8.486,-2.895 17.215,-0.879 l 23.417,5.407 V -48.18 L 6.31,-51.607 c -5.874,-1.356 -6.474,1.048 -6.474,2.708 0,1.549 0.6,4.306 6.474,5.662 l 14.849,3.428 v 15.578 L 6.31,-27.661 c -5.874,-1.356 -7.67,-0.81 -7.67,2.399 0,3.209 1.796,4.585 7.67,5.941 l 14.849,3.428 V 4.885 Z"
             style="fill:#000000;fill-opacity:1;fill-rule:nonzero;stroke:none"
             id="path40" />
        </g>
        <g
           id="g42"
           transform="translate(94.8521,89.4941)">
          <path
             d="m 0,0 c -5.81,-1.341 -10.485,-3.769 -15.652,-8.259 -5.167,2.104 -9.814,2.38 -15.651,1.032 -8.625,-1.992 -16.038,-7 -21.513,-14.557 -5.757,-7.948 -7.696,-15.033 -7.696,-28.381 v -39.329 l 22.41,5.173 v 43.59 c 0,6.567 2.117,9.317 5.575,10.115 3.458,0.798 5.671,-0.951 5.671,-7.52 v -43.59 l 22.409,5.175 v 43.589 c 0,6.568 2.213,9.34 5.671,10.138 3.459,0.798 5.575,-0.973 5.575,-7.541 v -43.59 l 22.41,5.174 v 39.33 c 0,13.347 -1.938,19.538 -7.697,24.827 C 17.571,-1.002 12.637,0.837 6.954,0.837 4.745,0.838 2.422,0.559 0,0"
             style="fill:#000000;fill-opacity:1;fill-rule:nonzero;stroke:none"
             id="path44" />
        </g>
        <g
           id="g46"
           transform="translate(81.4761,166.0292)">
          <path
             d="m 0,0 c -7.888,-1.797 -13.669,-4.694 -17.542,-8.654 -4.909,-5.02 -7.751,-11.725 -7.751,-18.687 0,-7.152 2.529,-10.442 9.573,-12.48 C -23.171,-45.507 -26,-50.812 -26,-58.97 c 0,-6.746 2.191,-11.693 6.527,-14.413 4.152,-2.604 8.486,-2.894 17.215,-0.879 l 23.417,5.408 v 20.674 l -14.85,-3.427 c -5.873,-1.357 -6.473,1.047 -6.473,2.707 0,1.55 0.6,4.307 6.473,5.663 l 14.85,3.427 v 15.578 l -14.85,-3.429 c -5.873,-1.356 -7.67,-0.81 -7.67,2.399 0,3.209 1.797,4.585 7.67,5.941 l 14.85,3.427 V 4.885 Z"
             style="fill:#000000;fill-opacity:1;fill-rule:nonzero;stroke:none"
             id="path48" />
        </g>
        <g
           id="g50"
           transform="translate(18.8199,133.0497)">
          <path
             d="m 0,0 c 3.629,0.942 6.571,-1.686 6.57,-5.869 0,-0.86 -0.128,-1.748 -0.377,-2.624 l 4.38,-4.031 c 2.11,0.549 3.82,-0.978 3.819,-3.41 -10e-4,-2.43 -1.711,-4.844 -3.819,-5.392 -2.107,-0.546 -3.816,0.978 -3.817,3.407 l -4.298,3.954 C 1.677,-14.531 0.843,-14.935 0,-15.154 c -3.63,-0.945 -6.574,1.683 -6.573,5.869 0.005,0.474 0.049,0.956 0.13,1.441 l 3.676,-0.64 3.362,4.055 -0.658,4.408 C -0.042,-0.015 -0.021,-0.007 0,0 m -18.82,7.18 v -72.494 l 20.041,5.209 v 23.024 l 2.857,0.743 v -0.028 c 3.225,0.59 5.282,0.346 6.173,-0.732 0.891,-1.079 1.336,-3.902 1.336,-8.469 v -11.844 l 20.088,5.222 v 13.968 c 0,4.851 -0.492,8.422 -1.475,10.716 -0.983,2.294 -2.903,4.379 -5.76,6.257 4.577,5.084 6.865,11.273 6.865,18.567 0,8.002 -2.841,13.335 -8.523,16.001 -2.242,1.081 -4.776,1.609 -7.602,1.582 C 12.385,14.92 8.96,14.4 4.906,13.347 Z"
             style="fill:#000000;fill-opacity:1;fill-rule:nonzero;stroke:none"
             id="path52" />
        </g>
        <g
           id="g54"
           transform="translate(410.7608,193.4902)">
          <path
             d="m 0,0 v 6.732 l -1.692,-7.123 -1.833,-0.422 -1.653,6.35 v -6.732 l -1.732,-0.4 v 8.059 l 2.706,0.625 1.633,-6.016 0.019,0.005 1.593,6.76 2.671,0.617 V 0.396 Z m -12.51,-2.888 v 6.63 l -2.788,-0.644 v 1.425 l 7.373,1.702 V 4.8 l -2.686,-0.62 v -6.63 z"
             style="fill:#000000;fill-opacity:1;fill-rule:nonzero;stroke:none"
             id="path56" />
        </g>
        <g
           id="g58"
           transform="translate(377.6377,263.4921)">
          <path
             d="m 0,0 c 0,0 -0.109,-28.419 -0.463,-33.418 -0.553,-7.809 -2.651,-8.018 -4.436,-6.847 -3.563,2.338 -10.219,15.647 -16.18,27.221 l -8.695,-2.008 v -71.917 l 10.632,2.455 0.037,18.248 c 0.017,9.368 2.575,9.977 6.292,6.574 2.82,-2.582 6.657,-8.276 12.704,-17.957 l 14.07,3.248 V 3.224 Z"
             style="fill:#000000;fill-opacity:1;fill-rule:nonzero;stroke:none"
             id="path60" />
        </g>
        <g
           id="g62"
           transform="translate(323.9678,191.4506)">
          <path
             d="m 0,0 c -0.322,-0.001 -2.711,0.08 -2.967,1.902 -0.147,1.056 0.36,2.046 1.633,2.826 1.993,1.219 8.892,3.201 15.514,4.754 v 9.156 c 0,0 -11.99,-2.885 -15.677,-2.336 -1.119,0.166 -1.865,0.758 -2.014,1.793 -0.151,1.057 0.381,2.01 1.633,2.825 3.372,2.197 18.507,5.461 18.507,5.461 v 21.127 l -31.162,-7.195 v -56.316 l 31.815,7.345 V 3.043 C 8.791,1.114 3.051,0.017 0,0"
             style="fill:#000000;fill-opacity:1;fill-rule:nonzero;stroke:none"
             id="path64" />
        </g>
        <g
           id="g66"
           transform="translate(289.5176,233.4682)">
          <path
             d="m 0,0 c 0,0 -3.376,-22.241 -6.373,-32.52 -0.856,-2.937 -2.927,-7.43 -5.743,-1.005 -1.008,2.301 -4.002,13.053 -6.199,26.915 l -9.722,-2.245 c 0.85,-9.531 5.517,-35.272 11.736,-50.27 l 18.855,4.354 c 6.939,18.366 11.103,37.765 12.518,58.251 z"
             style="fill:#000000;fill-opacity:1;fill-rule:nonzero;stroke:none"
             id="path68" />
        </g>
        <g
           id="g70"
           transform="translate(247.7417,171.0117)">
          <path
             d="m 0,0 c -1.502,-0.327 -4.918,-1.192 -6.664,-1.52 -1.671,-0.327 -2.647,0.616 -2.44,3 0.187,2.231 1.167,6.961 1.539,8.558 0.822,3.532 2.437,5.005 4.336,5.27 C -0.794,15.647 1.333,13.52 2.497,7.75 2.609,7.192 2.894,6.034 3.079,4.461 3.303,2.551 2.365,0.596 0,0 M 8.31,31.882 C 3.591,40.575 -1.896,38.773 -4.708,37.843 -8.392,36.625 -11.661,34.732 -15.083,21.161 -18.679,6.896 -22.594,-23.07 -22.594,-23.07 l 9.872,2.279 1.014,5.682 c 0.49,2.744 2.237,4.487 4.899,5.27 0,0 7.649,1.985 10.261,2.282 1.103,0.125 2.399,-0.745 2.776,-2.472 l 1.333,-6.113 13.444,3.104 c 0,0 -6.687,33.851 -12.695,44.92"
             style="fill:#000000;fill-opacity:1;fill-rule:nonzero;stroke:none"
             id="path72" />
        </g>
        <g
           id="g74"
           transform="translate(203.3482,159.6972)">
          <path
             d="m 0,0 c -0.323,-0.002 -2.711,0.079 -2.967,1.901 -0.148,1.056 0.359,2.046 1.634,2.827 1.992,1.218 8.891,3.201 15.512,4.753 v 9.157 c 0,0 -11.989,-2.885 -15.676,-2.336 -1.12,0.166 -1.866,0.758 -2.014,1.793 -0.152,1.057 0.381,2.009 1.633,2.825 3.372,2.196 18.507,5.461 18.507,5.461 v 22.771 l -31.162,-7.194 v -56.316 l 31.815,7.344 V 3.043 C 8.791,1.113 3.051,0.017 0,0"
             style="fill:#000000;fill-opacity:1;fill-rule:nonzero;stroke:none"
             id="path76" />
        </g>
        <g
           id="g78"
           transform="translate(164.566,206.6816)">
          <path
             d="m 0,0 c 0.299,-11.221 0.179,-19.621 -1.361,-25.132 -0.935,-3.347 -2.993,-5.895 -5.743,-7.824 -2.799,-1.965 -5.606,-2.826 -8.354,-2.88 -3.353,-0.066 -5.775,1.238 -6.097,4.754 -0.49,5.353 -0.708,12.834 -0.544,22.207 l -12.166,-2.808 v -82.866 l 16.711,3.858 c -0.3,10.569 0.061,18.409 1.361,23.256 0.885,3.305 3.309,6.101 5.742,7.744 2.843,1.92 5.601,2.917 8.355,2.962 3.348,0.054 5.781,-1.499 6.096,-4.836 0.463,-4.891 0.681,-11.947 0.545,-20.94 l 12.437,2.872 V 3.92 Z"
             style="fill:#000000;fill-opacity:1;fill-rule:nonzero;stroke:none"
             id="path80" />
        </g>
        <g
           id="g82"
           transform="translate(366.2071,340.5541)">
          <path
             d="m 0,0 c -5.188,-17.13 -8.124,-25.506 -10.682,-32.567 -4.359,-12.014 -8.88,-7.295 -10.987,-3.944 -2.45,3.926 -5.782,11.564 -11.564,25.559 l -14.285,-3.296 v -67.239 l 11.853,2.737 c -0.09,10.717 0.09,17.994 0.666,20.822 0.522,2.539 2.054,2.9 3.603,0.378 1.279,-2.072 3.296,-6.556 7.313,-15.779 l 7.941,1.833 c 4.377,11.763 6.739,17.693 8.414,20.593 1.351,2.359 3.927,4.016 4.702,-0.343 0.593,-3.296 0.54,-12.238 0.522,-23.19 L 9.78,-71.6 V 2.258 Z"
             style="fill:#000000;fill-opacity:1;fill-rule:nonzero;stroke:none"
             id="path84" />
        </g>
        <g
           id="g86"
           transform="translate(297.8672,305.4472)">
          <path
             d="m 0,0 c -0.054,-9.187 -0.036,-17.562 -0.432,-20.625 -0.919,-7.312 -13.42,-10.609 -14.032,-3.872 -0.288,3.17 -0.54,7.358 -0.54,16.707 l -10.105,-2.333 v -61.603 l 12.879,2.974 c 0,9.78 0,14.03 0.162,17.38 0.45,8.827 13.708,10.826 14.86,3.152 0.522,-3.494 0.612,-5.169 0.612,-13.058 l 10.268,2.37 V 3.156 Z"
             style="fill:#000000;fill-opacity:1;fill-rule:nonzero;stroke:none"
             id="path88" />
        </g>
        <g
           id="g90"
           transform="translate(229.5284,300.3588)">
          <path
             d="m 0,0 v -24.796 l 7.187,1.659 c 4.359,1.007 6.16,0.439 6.16,-7.277 v -31.829 l 11.799,2.703 v 29.198 c 0,12.969 1.217,16.242 7.636,17.725 l 5.872,1.355 V 8.924 Z"
             style="fill:#000000;fill-opacity:1;fill-rule:nonzero;stroke:none"
             id="path92" />
        </g>
        <g
           id="g94"
           transform="translate(224.7007,283.9819)">
          <path
             d="m 0,0 -11.023,-2.545 c 0,0 0.162,-11.348 -0.27,-19.705 -0.631,-12.231 -12.952,-14.861 -13.942,-3.225 -0.505,6.107 -0.739,18.277 -0.739,18.277 l -13.707,-3.164 v -9.925 c 0,-23.686 15.4,-26.605 23.452,-19.85 0.486,0.414 0.973,0.667 1.369,0.487 0.45,-0.199 0.432,-0.685 0.252,-1.585 -0.486,-2.36 -3.98,-7.025 -11.041,-8.917 -5.386,-1.441 -10.664,-2.349 -13.293,-2.764 v -16.437 c 11.852,1.531 25.577,4.917 31.971,14.752 3.333,5.134 5.08,10.556 5.945,18.589 C 0.325,-23.367 0,0 0,0"
             style="fill:#000000;fill-opacity:1;fill-rule:nonzero;stroke:none"
             id="path96" />
        </g>
        <g
           id="g98"
           transform="translate(164.6294,285.0034)">
          <path
             d="m 0,0 c -0.054,-9.186 -0.036,-17.562 -0.432,-20.624 -0.919,-7.313 -13.42,-10.609 -14.032,-3.873 -0.288,3.17 -0.54,7.359 -0.54,16.707 l -10.105,-2.333 v -61.602 l 12.879,2.973 c 0,9.781 0,14.03 0.162,17.381 0.45,8.826 13.707,10.825 14.86,3.152 0.522,-3.494 0.612,-5.17 0.612,-13.059 l 10.267,2.37 V 3.156 Z"
             style="fill:#000000;fill-opacity:1;fill-rule:nonzero;stroke:none"
             id="path100" />
        </g>
        <g
           id="g102"
           transform="translate(97.5513,247.9521)">
          <path
             d="m 0,0 c -4.917,-1.153 -7.655,1.585 -7.655,7.439 v 5.656 c -10e-4,4.079 0.792,7.619 4.43,8.772 C 7.34,25.214 14.698,20.66 14.698,13.509 14.698,6.827 9.583,2.251 0,0 m 35.61,24.443 c 0,25.992 -25.433,33.539 -56.541,22.425 v -83.904 l 13.258,3.061 v 21.006 c 0,3.206 2.359,2.648 4.539,0.702 1.53,-1.369 10.735,-10.285 17.166,-16.697 l 20.238,4.672 c 0,0 -17.645,18.023 -19.68,19.807 11.852,4.431 21.02,15.978 21.02,28.928"
             style="fill:#000000;fill-opacity:1;fill-rule:nonzero;stroke:none"
             id="path104" />
        </g>
      </g>
    </g>
  </g>
</svg>
