<?xml version="1.0" encoding="UTF-8" standalone="no"?>
<!-- Created with Inkscape (http://www.inkscape.org/) -->

<svg
   version="1.1"
   id="svg2"
   width="666.66669"
   height="461.29468"
   viewBox="0 0 666.66669 461.29468"
   sodipodi:docname="Rhythm Paradise Re-Megamix Logo (Wordmark).ai"
   xmlns:inkscape="http://www.inkscape.org/namespaces/inkscape"
   xmlns:sodipodi="http://sodipodi.sourceforge.net/DTD/sodipodi-0.dtd"
   xmlns="http://www.w3.org/2000/svg"
   xmlns:svg="http://www.w3.org/2000/svg">
  <defs
     id="defs6">
    <clipPath
       clipPathUnits="userSpaceOnUse"
       id="clipPath16">
      <path
         d="M 0,345.971 H 500 V 0 H 0 Z"
         id="path14" />
    </clipPath>
  </defs>
  <sodipodi:namedview
     id="namedview4"
     pagecolor="#ffffff"
     bordercolor="#000000"
     borderopacity="0.25"
     inkscape:showpageshadow="2"
     inkscape:pageopacity="0.0"
     inkscape:pagecheckerboard="0"
     inkscape:deskcolor="#d1d1d1" />
  <g
     id="g8"
     inkscape:groupmode="layer"
     inkscape:label="Rhythm Paradise Re-Megamix Logo (Wordmark)"
     transform="matrix(1.3333333,0,0,-1.3333333,0,461.29467)">
    <g
       id="g10">
      <g
         id="g12"
         clip-path="url(#clipPath16)">
        <g
           id="g18"
           transform="translate(477.6992,174.6737)">
          <path
             d="m 0,0 -0.003,-16.415 c 0,-3.817 -2.376,-7.698 -6.811,-8.724 -4.437,-1.023 -6.812,1.761 -6.812,5.579 v 16.415 l -22.302,-5.16 v -7.409 c 0,-13.816 2.746,-20.897 10.308,-25.9 -10.322,-12.704 -10.335,-21.369 -10.308,-30.208 V -82 l 22.301,5.149 v 17.319 c 0,6.175 2.376,9.999 6.813,11.023 C -2.379,-47.484 0,-50.212 0,-56.388 v -17.317 l 22.301,5.148 v 10.178 c 0,8.845 0,17.521 -10.309,25.449 7.562,8.493 10.309,16.843 10.309,30.659 v 7.42 z"
             style="fill:#000000;fill-opacity:1;fill-rule:nonzero;stroke:none"
             id="path20" />
        </g>
        <g
           id="g22"
           transform="translate(411.583,166.9305)">
          <path
             d="m 0,0 v -73.711 l 22.329,5.154 V 5.154 Z"
             style="fill:#000000;fill-opacity:1;fill-rule:nonzero;stroke:none"
             id="path24" />
        </g>
        <g
           id="g26"
           transform="translate(375.4795,153.2244)">
          <path
             d="m 0,0 c -5.809,-1.341 -10.483,-3.769 -15.651,-8.259 -5.167,2.104 -9.815,2.38 -15.652,1.032 -8.625,-1.991 -16.038,-7 -21.512,-14.557 -5.758,-7.947 -7.697,-15.032 -7.697,-28.38 v -39.33 l 22.41,5.174 v 43.589 c 0,6.569 2.117,9.317 5.575,10.115 3.459,0.798 5.671,-0.95 5.671,-7.52 v -43.589 l 22.41,5.174 v 43.589 c 0,6.568 2.212,9.34 5.67,10.139 3.459,0.798 5.576,-0.974 5.576,-7.542 v -43.589 l 22.41,5.173 v 39.33 c 0,13.348 -1.94,19.538 -7.697,24.827 C 17.571,-1.002 12.637,0.838 6.954,0.838 4.744,0.838 2.422,0.56 0,0"
             style="fill:#000000;fill-opacity:1;fill-rule:nonzero;stroke:none"
             id="path28" />
        </g>
        <g
           id="g30"
           transform="translate(272.0791,104.1112)">
          <path
             d="M 0,0 -5.956,4.785 2.296,7.98 6.01,16.718 9.725,9.696 17.977,10.311 12.02,2.775 13.406,-5.582 6.01,-3.217 -1.386,-8.997 Z M 6.01,34.258 C -2.828,32.216 -11.559,25.913 -16.821,17.65 -21.434,10.409 -23.104,3.835 -23.104,-7.345 v -40.622 l 22.275,5.143 v 16.177 l 13.679,3.137 v -16.155 l 22.273,5.142 V 6.099 c 0,11.179 -1.658,16.993 -6.263,22.098 -3.991,4.427 -9.98,6.796 -16.493,6.796 -2.082,0 -4.216,-0.241 -6.357,-0.735"
             style="fill:#000000;fill-opacity:1;fill-rule:nonzero;stroke:none"
             id="path32" />
        </g>
        <g
           id="g34"
           transform="translate(224.7154,118.8426)">
          <path
             d="m 0,0 c -12.704,-2.933 -22.05,-8.714 -29.399,-18.122 -6.739,-8.627 -10.498,-19.422 -10.498,-29.811 0,-10.853 4.081,-19.891 11.477,-25.534 7.426,-5.666 15.548,-6.852 28.067,-3.962 5.993,1.383 10.416,2.941 17.868,6.071 v 43.026 l -22.274,-5.143 v -21.98 c -7.969,-0.737 -13.136,4.15 -13.136,12.56 0,10.007 6.908,17.264 19.092,20.078 5.232,1.208 9.492,1.727 16.318,1.867 V 2.146 C 10.253,1.926 5.575,1.286 0,0"
             style="fill:#000000;fill-opacity:1;fill-rule:nonzero;stroke:none"
             id="path36" />
        </g>
        <g
           id="g38"
           transform="translate(156.5616,108.868)">
          <path
             d="m 0,0 c -7.887,-1.798 -13.669,-4.694 -17.542,-8.654 -4.909,-5.021 -7.751,-11.725 -7.751,-18.688 0,-7.152 2.529,-10.442 9.573,-12.479 -7.451,-5.686 -10.28,-10.992 -10.28,-19.15 0,-6.745 2.191,-11.693 6.527,-14.412 4.152,-2.605 8.486,-2.895 17.215,-0.879 l 23.417,5.407 v 20.674 L 6.31,-51.608 c -5.874,-1.356 -6.474,1.048 -6.474,2.708 0,1.549 0.6,4.306 6.474,5.662 l 14.849,3.428 v 15.578 L 6.31,-27.662 c -5.874,-1.356 -7.67,-0.81 -7.67,2.399 0,3.21 1.796,4.585 7.67,5.941 l 14.849,3.428 V 4.884 Z"
             style="fill:#000000;fill-opacity:1;fill-rule:nonzero;stroke:none"
             id="path40" />
        </g>
        <g
           id="g42"
           transform="translate(94.8521,89.494)">
          <path
             d="m 0,0 c -5.81,-1.341 -10.485,-3.769 -15.652,-8.259 -5.167,2.104 -9.814,2.38 -15.651,1.032 -8.625,-1.992 -16.038,-7 -21.513,-14.557 -5.757,-7.948 -7.696,-15.033 -7.696,-28.381 v -39.329 l 22.41,5.173 v 43.59 c 0,6.568 2.117,9.317 5.575,10.115 3.458,0.798 5.671,-0.951 5.671,-7.52 v -43.59 l 22.409,5.175 v 43.59 c 0,6.567 2.213,9.339 5.671,10.137 3.459,0.798 5.575,-0.973 5.575,-7.541 v -43.59 l 22.41,5.174 v 39.331 c 0,13.346 -1.938,19.537 -7.697,24.826 C 17.571,-1.002 12.637,0.837 6.954,0.837 4.745,0.838 2.422,0.559 0,0"
             style="fill:#000000;fill-opacity:1;fill-rule:nonzero;stroke:none"
             id="path44" />
        </g>
        <g
           id="g46"
           transform="translate(81.4761,166.0291)">
          <path
             d="m 0,0 c -7.888,-1.797 -13.669,-4.693 -17.542,-8.654 -4.909,-5.02 -7.751,-11.724 -7.751,-18.687 0,-7.152 2.529,-10.442 9.573,-12.48 C -23.171,-45.507 -26,-50.812 -26,-58.97 c 0,-6.746 2.191,-11.693 6.527,-14.413 4.152,-2.604 8.486,-2.894 17.215,-0.879 l 23.417,5.408 v 20.674 l -14.85,-3.427 c -5.873,-1.356 -6.473,1.047 -6.473,2.708 0,1.549 0.6,4.306 6.473,5.662 l 14.85,3.427 v 15.578 l -14.85,-3.429 c -5.873,-1.356 -7.67,-0.81 -7.67,2.399 0,3.209 1.797,4.585 7.67,5.941 l 14.85,3.427 V 4.885 Z"
             style="fill:#000000;fill-opacity:1;fill-rule:nonzero;stroke:none"
             id="path48" />
        </g>
        <g
           id="g50"
           transform="translate(18.8199,133.0496)">
          <path
             d="m 0,0 c 3.629,0.942 6.571,-1.686 6.57,-5.869 0,-0.86 -0.128,-1.748 -0.377,-2.623 l 4.38,-4.031 c 2.11,0.548 3.82,-0.979 3.819,-3.411 -10e-4,-2.43 -1.711,-4.844 -3.819,-5.392 -2.107,-0.546 -3.816,0.978 -3.817,3.407 l -4.298,3.955 C 1.677,-14.531 0.843,-14.935 0,-15.154 c -3.63,-0.945 -6.574,1.683 -6.573,5.869 0.005,0.474 0.049,0.956 0.13,1.441 l 3.676,-0.64 3.362,4.055 -0.658,4.408 C -0.042,-0.015 -0.021,-0.007 0,0 m -18.82,7.18 v -72.494 l 20.041,5.209 v 23.024 l 2.857,0.743 v -0.028 c 3.225,0.59 5.282,0.346 6.173,-0.732 0.891,-1.079 1.336,-3.902 1.336,-8.469 v -11.844 l 20.088,5.222 v 13.968 c 0,4.851 -0.492,8.422 -1.475,10.716 -0.983,2.294 -2.903,4.379 -5.76,6.257 4.577,5.084 6.865,11.273 6.865,18.567 0,8.002 -2.841,13.335 -8.523,16.001 -2.242,1.081 -4.776,1.61 -7.602,1.582 C 12.385,14.92 8.96,14.4 4.906,13.347 Z"
             style="fill:#000000;fill-opacity:1;fill-rule:nonzero;stroke:none"
             id="path52" />
        </g>
        <g
           id="g54"
           transform="translate(424.1241,187.6424)">
          <path
             d="m 0,0 v 6.685 l -1.681,-7.081 -1.821,-0.43 -1.642,6.298 v -6.685 l -1.72,-0.405 v 8.001 l 2.688,0.634 1.622,-5.964 0.02,0.005 1.582,6.719 2.654,0.626 V 0.401 Z M -12.427,-2.931 V 3.652 L -15.196,3 v 1.414 l 7.324,1.727 V 4.727 l -2.669,-0.63 v -6.582 z"
             style="fill:#000000;fill-opacity:1;fill-rule:nonzero;stroke:none"
             id="path56" />
        </g>
        <g
           id="g58"
           transform="translate(400.8037,232.1473)">
          <path
             d="m 0,0 c 3.873,1.459 11.979,3.639 18.789,5.116 v 21.079 l -34.03,-7.856 V -38 l 33.976,7.843 v 9.386 c -4.467,-1.171 -13.673,-2.9 -17.726,-3.585 -4.937,-0.829 -5.639,5.459 -0.181,7.26 3.135,1.027 8.882,2.396 13.367,3.657 v 7.227 C 10.106,-7.041 4.575,-7.999 0.216,-8.611 -5.188,-9.386 -6.125,-2.306 0,0"
             style="fill:#000000;fill-opacity:1;fill-rule:nonzero;stroke:none"
             id="path60" />
        </g>
        <g
           id="g62"
           transform="translate(369.211,193.3255)">
          <path
             d="m 0,0 c -0.199,1.873 -3.438,2.296 -8.48,3.505 -8.819,2.19 -14.277,7.385 -13.719,16.511 0.593,9.851 5.58,16.721 31.974,21.204 V 20.728 C 0.251,19.537 -5.008,17.755 -7.237,15.931 -9.616,14 -9.478,10.839 -6.044,9.693 -4.553,9.195 -0.143,7.722 2.522,6.828 7.637,5.124 10.139,2.51 10.66,-2.117 12.134,-15.168 -11.488,-18.591 -21.228,-20.021 V -8.425 C -9.56,-6.074 0.45,-4.014 0,0"
             style="fill:#000000;fill-opacity:1;fill-rule:nonzero;stroke:none"
             id="path64" />
        </g>
        <g
           id="g66"
           transform="translate(328.3477,189.9027)">
          <path
             d="m 0,0 v 50.225 l 12.701,2.932 V 2.932 Z"
             style="fill:#000000;fill-opacity:1;fill-rule:nonzero;stroke:none"
             id="path68" />
        </g>
        <g
           id="g70"
           transform="translate(297.9932,181.5262)">
          <path
             d="m 0,0 c -3.495,-0.809 -5.008,0.36 -5.008,4.449 v 12.899 c 0,2.972 -0.154,5.347 2.666,6.143 6.125,1.73 12.971,-1.549 13.619,-8.215 C 12.034,7.53 7.725,1.783 0,0 M -13.619,43.001 V -11.782 C 12.862,-7.908 24.392,2.323 24.104,22.662 23.852,40.299 6.341,49.991 -13.619,43.001"
             style="fill:#000000;fill-opacity:1;fill-rule:nonzero;stroke:none"
             id="path72" />
        </g>
        <g
           id="g74"
           transform="translate(261.2246,173.0418)">
          <path
             d="m 0,0 -6.395,-1.477 c -1.607,-0.371 -2.522,0.629 -2.324,2.864 0.18,2.09 1.117,6.521 1.477,8.034 0.757,3.135 2.343,4.666 4.162,4.936 2.936,0.469 4.359,-1.675 5.494,-7.08 C 2.522,6.773 2.829,5.674 2.955,4.197 3.207,1.188 2.271,0.523 0,0 M 11.206,24.013 C 7.854,35.002 5.143,37.714 -1.531,36.173 -7.414,34.815 -10.758,31.752 -13.564,21.005 -16.321,10.448 -19.348,-4.504 -21.797,-21.582 l 9.692,2.107 c 0.18,1.352 0.504,2.937 0.972,5.351 0.505,2.432 1.82,4.171 4.432,4.773 2.151,0.497 6.153,1.421 7.566,1.747 2.023,0.467 3.873,-1.133 4.522,-3.835 0.432,-1.802 0.991,-4.342 1.333,-6.054 l 12.862,2.955 c -1.566,12.592 -5.044,27.635 -8.376,38.551"
             style="fill:#000000;fill-opacity:1;fill-rule:nonzero;stroke:none"
             id="path76" />
        </g>
        <g
           id="g78"
           transform="translate(213.8033,177.3035)">
          <path
             d="M 0,0 C -3.3,-0.773 -5.137,1.064 -5.137,4.993 V 8.79 c 0,2.738 0.532,5.114 2.973,5.887 C 4.925,16.923 9.862,13.867 9.862,9.066 9.862,4.581 6.43,1.511 0,0 m 23.895,16.404 c 0,17.446 -17.207,22.419 -37.939,15.055 v -54.886 l 8.895,2.054 v 12.669 c 0,2.152 1.584,1.777 3.046,0.472 1.027,-0.919 7.203,-6.905 11.518,-11.209 l 13.58,3.135 c 0,0 -11.839,12.098 -13.205,13.295 7.953,2.974 14.105,10.724 14.105,19.415"
             style="fill:#000000;fill-opacity:1;fill-rule:nonzero;stroke:none"
             id="path80" />
        </g>
        <g
           id="g82"
           transform="translate(178.8438,147.6043)">
          <path
             d="m 0,0 -6.396,-1.477 c -1.606,-0.371 -2.521,0.63 -2.323,2.865 0.18,2.09 1.116,6.521 1.477,8.034 0.757,3.135 2.342,4.666 4.161,4.936 2.937,0.468 4.36,-1.675 5.495,-7.08 C 2.522,6.773 2.828,5.675 2.954,4.197 3.207,1.189 2.271,0.524 0,0 M 11.205,24.014 C 7.854,35.003 5.142,37.715 -1.531,36.174 -7.415,34.816 -10.759,31.753 -13.565,21.006 -16.321,10.449 -19.348,-4.503 -21.798,-21.581 l 9.692,2.107 c 0.18,1.351 0.504,2.937 0.973,5.351 0.504,2.432 1.819,4.171 4.431,4.773 2.151,0.497 6.154,1.421 7.567,1.747 2.022,0.467 3.873,-1.134 4.521,-3.836 0.432,-1.801 0.991,-4.341 1.333,-6.053 l 12.863,2.954 c -1.567,12.593 -5.044,27.635 -8.377,38.552"
             style="fill:#000000;fill-opacity:1;fill-rule:nonzero;stroke:none"
             id="path84" />
        </g>
        <g
           id="g86"
           transform="translate(133.4825,158.1805)">
          <path
             d="m 0,0 c -4,-0.973 -6.305,0.071 -6.305,3.423 v 12.124 c 0,3.424 1.891,5.585 5.657,6.071 C 6.9,22.591 10.305,18.177 10.305,12.43 10.305,7.638 7.477,1.837 0,0 m -25.095,39.111 v -75.935 l 18.808,4.343 v 17.835 c 0,3.26 0.81,4.881 2.756,5.224 17.528,3.083 30.013,11.896 30.013,29.977 0,19.855 -21.33,30.536 -51.577,18.556"
             style="fill:#000000;fill-opacity:1;fill-rule:nonzero;stroke:none"
             id="path88" />
        </g>
        <g
           id="g90"
           transform="translate(377.295,343.7122)">
          <path
             d="m 0,0 c -5.188,-17.132 -8.125,-25.509 -10.684,-32.57 -4.359,-12.016 -8.88,-7.296 -10.988,-3.946 -2.45,3.928 -5.783,11.566 -11.565,25.563 l -14.286,-3.297 v -67.247 l 11.853,2.737 c -0.09,10.718 0.09,17.997 0.667,20.825 0.523,2.54 2.054,2.9 3.603,0.378 1.279,-2.071 3.296,-6.557 7.314,-15.781 l 7.942,1.834 c 4.377,11.764 6.74,17.694 8.415,20.595 1.351,2.36 3.927,4.017 4.702,-0.342 0.594,-3.297 0.541,-12.241 0.522,-23.194 l 12.286,2.837 V 2.259 Z"
             style="fill:#000000;fill-opacity:1;fill-rule:nonzero;stroke:none"
             id="path92" />
        </g>
        <g
           id="g94"
           transform="translate(308.9463,308.6014)">
          <path
             d="m 0,0 c -0.054,-9.188 -0.036,-17.564 -0.433,-20.627 -0.918,-7.314 -13.421,-10.611 -14.033,-3.873 -0.288,3.17 -0.54,7.359 -0.54,16.709 l -10.106,-2.334 v -61.61 l 12.88,2.974 c 0,9.782 0,14.032 0.162,17.383 0.451,8.827 13.71,10.827 14.862,3.152 0.522,-3.494 0.613,-5.17 0.613,-13.06 l 10.268,2.37 10e-4,62.073 z"
             style="fill:#000000;fill-opacity:1;fill-rule:nonzero;stroke:none"
             id="path96" />
        </g>
        <g
           id="g98"
           transform="translate(240.5987,303.5125)">
          <path
             d="m 0,0 v -24.799 l 7.187,1.659 c 4.36,1.007 6.162,0.439 6.162,-7.277 v -31.834 l 11.799,2.704 v 29.202 c 0,12.97 1.218,16.244 7.639,17.726 l 5.872,1.356 V 8.925 Z"
             style="fill:#000000;fill-opacity:1;fill-rule:nonzero;stroke:none"
             id="path100" />
        </g>
        <g
           id="g102"
           transform="translate(235.7706,287.1336)">
          <path
             d="m 0,0 -11.025,-2.545 c 0,0 0.162,-11.35 -0.27,-19.708 -0.631,-12.232 -12.953,-14.862 -13.944,-3.225 -0.504,6.107 -0.738,18.28 -0.738,18.28 l -13.71,-3.165 v -9.927 c 0,-23.689 15.403,-26.607 23.456,-19.852 0.486,0.414 0.973,0.667 1.369,0.487 0.45,-0.199 0.432,-0.685 0.252,-1.586 -0.486,-2.36 -3.981,-7.026 -11.043,-8.917 -5.387,-1.441 -10.665,-2.35 -13.295,-2.764 v -16.44 c 11.854,1.531 25.581,4.918 31.976,14.754 3.333,5.134 5.08,10.557 5.945,18.591 C 0.324,-23.37 0,0 0,0"
             style="fill:#000000;fill-opacity:1;fill-rule:nonzero;stroke:none"
             id="path104" />
        </g>
        <g
           id="g106"
           transform="translate(175.6915,288.1556)">
          <path
             d="m 0,0 c -0.054,-9.188 -0.036,-17.564 -0.433,-20.627 -0.918,-7.314 -13.421,-10.611 -14.033,-3.873 -0.288,3.17 -0.54,7.359 -0.54,16.709 l -10.107,-2.333 v -61.611 l 12.881,2.974 c 0,9.782 0,14.032 0.162,17.383 0.45,8.827 13.709,10.827 14.862,3.152 0.522,-3.494 0.613,-5.17 0.613,-13.06 l 10.268,2.37 V 3.157 Z"
             style="fill:#000000;fill-opacity:1;fill-rule:nonzero;stroke:none"
             id="path108" />
        </g>
        <g
           id="g110"
           transform="translate(108.6045,251.0994)">
          <path
             d="m 0,0 c -4.918,-1.153 -7.656,1.585 -7.656,7.44 v 5.657 c -0.001,4.08 0.792,7.62 4.431,8.773 C 7.341,25.217 14.7,20.663 14.7,13.511 14.7,6.828 9.584,2.252 0,0 m 35.615,24.446 c 0,25.995 -25.437,33.543 -56.548,22.429 v -83.916 l 13.259,3.062 v 21.008 c 0,3.207 2.36,2.649 4.539,0.703 1.531,-1.369 10.737,-10.287 17.168,-16.7 l 20.241,4.673 c 0,0 -17.647,18.026 -19.682,19.809 11.854,4.432 21.023,15.981 21.023,28.932"
             style="fill:#000000;fill-opacity:1;fill-rule:nonzero;stroke:none"
             id="path112" />
        </g>
      </g>
    </g>
  </g>
</svg>
