<?xml version="1.0" encoding="UTF-8" standalone="no"?>
<!-- Created with Inkscape (http://www.inkscape.org/) -->

<svg
   version="1.1"
   id="svg2"
   width="341.33334"
   height="341.33334"
   viewBox="0 0 341.33334 341.33334"
   sodipodi:docname="Timing Display (Re-Megamix).ai"
   xmlns:inkscape="http://www.inkscape.org/namespaces/inkscape"
   xmlns:sodipodi="http://sodipodi.sourceforge.net/DTD/sodipodi-0.dtd"
   xmlns="http://www.w3.org/2000/svg"
   xmlns:svg="http://www.w3.org/2000/svg">
  <defs
     id="defs6">
    <clipPath
       clipPathUnits="userSpaceOnUse"
       id="clipPath22">
      <path
         d="M 0,256 H 256 V 0 H 0 Z"
         id="path20" />
    </clipPath>
  </defs>
  <sodipodi:namedview
     id="namedview4"
     pagecolor="#ffffff"
     bordercolor="#000000"
     borderopacity="0.25"
     inkscape:showpageshadow="2"
     inkscape:pageopacity="0.0"
     inkscape:pagecheckerboard="0"
     inkscape:deskcolor="#d1d1d1" />
  <g
     id="g8"
     inkscape:groupmode="layer"
     inkscape:label="Timing Display (Re-Megamix)"
     transform="matrix(1.3333333,0,0,-1.3333333,0,341.33333)">
    <path
       d="M 0,0 H 256 V 256 H 0 Z"
       style="fill:#000000;fill-opacity:1;fill-rule:nonzero;stroke:none"
       id="path10" />
    <path
       d="m 192,0 h 64 v 64 h -64 z"
       style="fill:#000000;fill-opacity:1;fill-rule:nonzero;stroke:none"
       id="path12" />
    <path
       d="m 128,0 h 64 v 64 h -64 z"
       style="fill:#aaaaaa;fill-opacity:1;fill-rule:nonzero;stroke:none"
       id="path14" />
    <g
       id="g16">
      <g
         id="g18"
         clip-path="url(#clipPath22)">
        <g
           id="g24"
           transform="translate(148.9861,15.2538)">
          <path
             d="M 0,0 -3.036,-4.479 -4.752,0.653 -9.944,2.141 -5.617,5.359 -5.799,10.764 -1.397,7.621 3.689,9.473 2.08,4.327 5.405,0.061 Z m 35.841,31.338 c -0.12,0.741 -0.66,1.361 -1.36,1.621 -0.701,0.26 -1.481,0.1 -2.001,-0.42 l -3.522,-3.542 c -0.301,-0.3 -0.721,-0.5 -1.161,-0.54 l -2.982,-0.241 c -0.58,-0.04 -1.16,0.16 -1.581,0.581 -0.42,0.42 -0.66,1 -0.64,1.581 l 0.16,3.121 c 0.02,0.461 0.22,0.901 0.541,1.221 l 3.501,3.502 c 0.521,0.52 0.681,1.281 0.421,2.001 -0.26,0.72 -0.881,1.241 -1.621,1.361 -4.283,0.74 -8.505,-0.941 -10.966,-4.363 -2.462,-3.422 -2.762,-8.004 -0.781,-11.946 L 3.283,14.709 c -4.482,2.141 -10.025,1.361 -13.727,-2.361 -4.723,-4.723 -4.723,-12.367 0,-17.07 4.722,-4.722 12.367,-4.722 17.069,0 3.722,3.722 4.503,9.265 2.362,13.748 l 10.565,10.566 c 3.943,-1.981 8.545,-1.681 11.967,0.78 3.382,2.441 5.063,6.664 4.322,10.966"
             style="fill:#ffffff;fill-opacity:1;fill-rule:nonzero;stroke:none"
             id="path26" />
        </g>
        <path
           d="M 128,0 H 64 v 64 h 64 z"
           style="fill:#000000;fill-opacity:1;fill-rule:nonzero;stroke:none"
           id="path28" />
        <path
           d="M 64,0 H 0 v 64 h 64 z"
           style="fill:#aaaaaa;fill-opacity:1;fill-rule:nonzero;stroke:none"
           id="path30" />
        <g
           id="g32"
           transform="translate(32,42.4616)">
          <path
             d="M 0,0 3.304,-7.018 11,-7.992 5.346,-13.303 6.798,-20.923 0,-17.187 l -6.798,-3.736 1.452,7.62 -5.654,5.311 7.696,0.974 z"
             style="fill:#ffffff;fill-opacity:1;fill-rule:nonzero;stroke:none"
             id="path34" />
        </g>
        <path
           d="m 256,64 h -64 v 64 h 64 z"
           style="fill:#ffffff;fill-opacity:1;fill-rule:nonzero;stroke:none"
           id="path36" />
        <g
           id="g38"
           transform="translate(225.7565,110.5561)">
          <path
             d="m 0,0 c 1.074,-0.141 1.965,-0.34 2.891,-0.648 4.918,-1.626 8.684,-5.86 9.703,-10.907 0.223,-1.106 0.274,-1.637 0.274,-2.922 0.004,-1.211 -0.016,-1.508 -0.176,-2.481 -0.75,-4.567 -3.731,-8.583 -7.907,-10.645 -1.582,-0.781 -2.949,-1.192 -4.863,-1.453 -0.598,-0.082 -2.778,-0.067 -3.438,0.019 -3.414,0.465 -6.391,1.95 -8.711,4.348 -3.317,3.43 -4.735,8.157 -3.868,12.891 0.571,3.114 2.262,6.087 4.672,8.216 2.38,2.098 5.282,3.344 8.474,3.633 C -2.36,0.105 -0.574,0.074 0,0 M 1.504,10.352 C 1.441,10.321 1.34,10.251 1.285,10.188 1.231,10.126 0.688,9.145 0.078,8.004 -0.531,6.868 -1.086,5.844 -1.156,5.731 -1.363,5.403 -1.348,5.407 -2.438,5.364 L -3.403,5.321 -3.61,5.422 c -0.207,0.102 -0.23,0.133 -1.625,2.145 -0.781,1.121 -1.457,2.094 -1.508,2.16 -0.113,0.152 -0.312,0.25 -0.515,0.25 -0.168,0 -4.586,-1.469 -4.739,-1.574 -0.226,-0.16 -0.273,-0.348 -0.23,-0.918 0.094,-1.157 0.277,-3.485 0.316,-4.02 l 0.047,-0.598 -0.113,-0.222 c -0.11,-0.215 -0.149,-0.25 -0.914,-0.782 -0.442,-0.304 -0.864,-0.574 -0.938,-0.597 -0.32,-0.094 -0.359,-0.082 -2.875,0.961 -2.582,1.07 -2.508,1.043 -2.813,0.906 -0.148,-0.07 -3.051,-3.68 -3.109,-3.867 -0.032,-0.114 -0.032,-0.188 0,-0.301 0.031,-0.098 0.593,-0.871 1.57,-2.157 1.321,-1.742 1.528,-2.035 1.567,-2.203 0.054,-0.254 0.054,-0.254 -0.454,-1.465 -0.449,-1.082 -0.55,-1.234 -0.855,-1.344 -0.09,-0.031 -1.266,-0.257 -2.621,-0.5 -2.579,-0.461 -2.59,-0.464 -2.762,-0.699 -0.203,-0.273 -0.707,-4.953 -0.543,-5.051 0.023,-0.016 1.144,-0.43 2.488,-0.922 1.344,-0.492 2.5,-0.93 2.567,-0.969 0.258,-0.148 0.316,-0.316 0.551,-1.613 0.121,-0.66 0.218,-1.281 0.218,-1.387 0,-0.121 -0.035,-0.254 -0.089,-0.355 -0.059,-0.114 -0.653,-0.692 -1.922,-1.872 -1.012,-0.937 -1.872,-1.761 -1.915,-1.824 -0.05,-0.082 -0.074,-0.183 -0.07,-0.316 0,-0.18 0.098,-0.379 0.996,-2.125 0.551,-1.059 1.047,-1.977 1.106,-2.04 0.054,-0.058 0.176,-0.128 0.265,-0.152 0.153,-0.043 0.34,-0.008 2.606,0.504 2.555,0.578 2.645,0.59 2.93,0.457 0.152,-0.074 1.969,-1.949 2.078,-2.145 0.149,-0.273 0.141,-0.351 -0.258,-1.906 -0.918,-3.582 -0.898,-3.504 -0.847,-3.672 0.023,-0.086 0.086,-0.199 0.132,-0.254 0.047,-0.055 0.946,-0.582 1.997,-1.172 1.73,-0.973 1.929,-1.074 2.09,-1.074 0.105,0 0.23,0.031 0.296,0.07 0.067,0.043 0.899,0.867 1.856,1.84 0.957,0.973 1.801,1.801 1.883,1.84 0.285,0.152 0.363,0.145 1.793,-0.176 0.738,-0.164 1.387,-0.324 1.438,-0.359 0.269,-0.176 0.285,-0.211 1.117,-2.711 0.785,-2.356 0.808,-2.418 0.957,-2.551 0.086,-0.078 0.215,-0.149 0.301,-0.164 0.355,-0.067 2.57,0.074 3.984,0.254 0.641,0.082 0.778,0.148 0.887,0.441 0.035,0.094 0.293,1.258 0.57,2.586 0.336,1.586 0.536,2.461 0.583,2.539 0.152,0.243 0.265,0.301 1.457,0.754 1.285,0.493 1.449,0.528 1.734,0.375 0.07,-0.039 0.969,-0.746 1.992,-1.574 1.028,-0.828 1.918,-1.535 1.985,-1.574 0.086,-0.051 0.176,-0.067 0.324,-0.055 0.199,0.012 0.242,0.043 1.363,0.891 2.278,1.722 2.493,1.89 2.567,1.996 0.043,0.055 0.086,0.187 0.094,0.293 0.019,0.172 -0.059,0.398 -0.887,2.57 -0.5,1.313 -0.918,2.446 -0.926,2.52 -0.039,0.27 0.051,0.438 0.676,1.297 0.336,0.457 0.648,0.875 0.695,0.922 0.137,0.152 0.371,0.254 0.59,0.25 0.106,0 1.274,-0.117 2.59,-0.262 l 2.391,-0.258 0.168,0.075 c 0.09,0.043 0.195,0.109 0.234,0.152 0.055,0.062 1.422,3.727 1.649,4.418 0.086,0.254 0.031,0.469 -0.168,0.672 -0.078,0.082 -1.047,0.813 -2.153,1.625 -1.984,1.457 -2.007,1.477 -2.105,1.692 l -0.098,0.215 0.047,0.839 c 0.063,1.098 0.07,1.149 0.215,1.36 0.117,0.168 0.207,0.219 2.395,1.316 1.254,0.629 2.304,1.168 2.34,1.196 0.086,0.074 0.211,0.332 0.211,0.437 0,0.164 -1.012,4.754 -1.075,4.876 -0.035,0.066 -0.125,0.16 -0.207,0.214 -0.164,0.106 0.004,0.094 -3.957,0.348 -1.52,0.098 -1.547,0.106 -1.778,0.324 -0.167,0.16 -0.871,1.485 -0.898,1.696 -0.016,0.105 0,0.234 0.031,0.328 0.032,0.086 0.633,1.129 1.336,2.316 1.227,2.063 1.282,2.165 1.282,2.352 -0.004,0.106 -0.028,0.235 -0.055,0.289 -0.051,0.098 -3.321,3.454 -3.508,3.598 -0.059,0.047 -0.176,0.082 -0.313,0.09 L 13.88,4.907 11.676,3.684 C 10.465,3.012 9.403,2.438 9.317,2.406 9.047,2.313 8.872,2.371 8.145,2.778 7.411,3.188 7.332,3.246 7.219,3.469 7.118,3.664 7.122,3.613 7.028,6.403 6.95,8.708 6.946,8.79 6.86,8.961 6.715,9.254 7,9.168 3.016,10.118 2.344,10.274 1.754,10.407 1.707,10.407 1.66,10.403 1.57,10.38 1.504,10.352"
             style="fill:#aaaaaa;fill-opacity:1;fill-rule:nonzero;stroke:none"
             id="path40" />
        </g>
        <path
           d="m 192,64 h -64 v 64 h 64 z"
           style="fill:#000000;fill-opacity:1;fill-rule:nonzero;stroke:none"
           id="path42" />
        <path
           d="M 128,64 H 64 v 64 h 64 z"
           style="fill:#ffffff;fill-opacity:1;fill-rule:nonzero;stroke:none"
           id="path44" />
        <g
           id="g46"
           transform="translate(106.7532,113.6139)">
          <path
             d="m 0,0 c -3.734,0.503 -3.822,6.82 -8.733,6.82 -2.02,0 -4.112,-0.714 -4.112,-6.075 v -20 c -14.225,-0.018 -19.68,-5.523 -19.68,-13.555 0,-3.108 1.429,-5.896 3.733,-7.717 2.035,-1.608 4.678,-2.811 7.893,-2.811 4.722,0 8.248,1.72 10.874,3.863 2.786,2.358 5.249,6.312 5.249,11.417 v 18.611 c 0,0 3.713,0.189 5.934,-0.863 1.458,-0.691 3.722,-2.165 2.541,-6.225 -0.741,-2.549 2.773,-4.129 4.561,-1.721 2.025,2.727 2.819,4.3 2.819,7.69 C 11.079,-8.852 11.421,-1.538 0,0"
             style="fill:#000000;fill-opacity:1;fill-rule:nonzero;stroke:none"
             id="path48" />
        </g>
        <path
           d="M 64,64 H 0 v 64 h 64 z"
           style="fill:#000000;fill-opacity:1;fill-rule:nonzero;stroke:none"
           id="path50" />
        <path
           d="m 256,128 h -64 v 64 h 64 z"
           style="fill:#000000;fill-opacity:1;fill-rule:nonzero;stroke:none"
           id="path52" />
        <path
           d="m 192,128 h -64 v 64 h 64 z"
           style="fill:#aaaaaa;fill-opacity:1;fill-rule:nonzero;stroke:none"
           id="path54" />
        <g
           id="g56"
           transform="translate(160,170.4616)">
          <path
             d="M 0,0 3.304,-7.019 11,-7.992 5.346,-13.303 6.798,-20.923 0,-17.187 l -6.798,-3.736 1.452,7.62 -5.654,5.311 7.696,0.973 z"
             style="fill:#ffffff;fill-opacity:1;fill-rule:nonzero;stroke:none"
             id="path58" />
        </g>
        <path
           d="M 128,128 H 64 v 64 h 64 z"
           style="fill:#000000;fill-opacity:1;fill-rule:nonzero;stroke:none"
           id="path60" />
        <path
           d="M 64,128 H 0 v 64 h 64 z"
           style="fill:#aaaaaa;fill-opacity:1;fill-rule:nonzero;stroke:none"
           id="path62" />
        <g
           id="g64"
           transform="translate(33.7565,174.5561)">
          <path
             d="m 0,0 c 1.074,-0.141 1.965,-0.34 2.891,-0.648 4.918,-1.626 8.684,-5.86 9.703,-10.907 0.223,-1.106 0.274,-1.637 0.274,-2.922 0.004,-1.211 -0.016,-1.508 -0.176,-2.481 -0.75,-4.567 -3.731,-8.583 -7.907,-10.645 -1.582,-0.781 -2.949,-1.192 -4.863,-1.453 -0.598,-0.082 -2.778,-0.067 -3.438,0.019 -3.414,0.465 -6.391,1.95 -8.711,4.348 -3.317,3.43 -4.735,8.157 -3.868,12.891 0.571,3.114 2.262,6.087 4.672,8.216 2.38,2.098 5.282,3.344 8.474,3.633 C -2.359,0.105 -0.574,0.074 0,0 M 1.504,10.352 C 1.441,10.321 1.34,10.251 1.285,10.188 1.231,10.126 0.688,9.145 0.078,8.004 -0.531,6.868 -1.086,5.844 -1.156,5.731 -1.363,5.403 -1.348,5.407 -2.438,5.364 L -3.403,5.321 -3.61,5.422 c -0.207,0.102 -0.23,0.133 -1.625,2.145 -0.781,1.121 -1.457,2.094 -1.508,2.16 -0.113,0.152 -0.312,0.25 -0.515,0.25 -0.168,0 -4.586,-1.469 -4.739,-1.574 -0.226,-0.16 -0.273,-0.348 -0.23,-0.918 0.094,-1.157 0.277,-3.485 0.316,-4.02 l 0.047,-0.598 -0.113,-0.222 c -0.11,-0.215 -0.149,-0.25 -0.914,-0.782 -0.442,-0.304 -0.864,-0.574 -0.938,-0.597 -0.32,-0.094 -0.359,-0.082 -2.875,0.961 -2.582,1.07 -2.508,1.043 -2.813,0.906 -0.148,-0.07 -3.051,-3.68 -3.109,-3.867 -0.032,-0.114 -0.032,-0.188 0,-0.301 0.031,-0.098 0.593,-0.871 1.57,-2.157 1.321,-1.742 1.528,-2.035 1.567,-2.203 0.054,-0.254 0.054,-0.254 -0.454,-1.465 -0.449,-1.082 -0.55,-1.234 -0.855,-1.344 -0.09,-0.031 -1.266,-0.257 -2.621,-0.5 -2.579,-0.461 -2.59,-0.464 -2.762,-0.699 -0.203,-0.273 -0.707,-4.953 -0.543,-5.051 0.023,-0.016 1.144,-0.43 2.488,-0.922 1.344,-0.492 2.5,-0.93 2.567,-0.969 0.258,-0.148 0.316,-0.316 0.551,-1.613 0.121,-0.66 0.218,-1.281 0.218,-1.387 0,-0.121 -0.035,-0.254 -0.089,-0.355 -0.059,-0.114 -0.653,-0.692 -1.922,-1.872 -1.012,-0.937 -1.872,-1.761 -1.915,-1.824 -0.05,-0.082 -0.074,-0.183 -0.07,-0.316 0,-0.18 0.098,-0.379 0.996,-2.125 0.551,-1.059 1.047,-1.977 1.106,-2.04 0.054,-0.058 0.176,-0.128 0.265,-0.152 0.153,-0.043 0.34,-0.008 2.606,0.504 2.555,0.578 2.645,0.59 2.93,0.457 0.152,-0.074 1.969,-1.949 2.078,-2.145 0.149,-0.273 0.141,-0.351 -0.258,-1.906 -0.918,-3.582 -0.898,-3.504 -0.847,-3.672 0.023,-0.086 0.086,-0.199 0.132,-0.254 0.047,-0.055 0.946,-0.582 1.997,-1.172 1.73,-0.973 1.929,-1.074 2.09,-1.074 0.105,0 0.23,0.031 0.296,0.07 0.067,0.043 0.899,0.867 1.856,1.84 0.957,0.973 1.801,1.801 1.883,1.84 0.285,0.152 0.363,0.145 1.793,-0.176 0.738,-0.164 1.387,-0.324 1.438,-0.359 0.269,-0.176 0.285,-0.211 1.117,-2.711 0.785,-2.356 0.808,-2.418 0.957,-2.551 0.086,-0.078 0.215,-0.149 0.301,-0.164 0.355,-0.067 2.57,0.074 3.984,0.254 0.641,0.082 0.778,0.148 0.887,0.441 0.035,0.094 0.293,1.258 0.57,2.586 0.336,1.586 0.536,2.461 0.583,2.539 0.152,0.243 0.265,0.301 1.457,0.754 1.285,0.493 1.449,0.528 1.734,0.375 0.07,-0.039 0.969,-0.746 1.992,-1.574 1.028,-0.828 1.918,-1.535 1.985,-1.574 0.086,-0.051 0.176,-0.067 0.324,-0.055 0.199,0.012 0.242,0.043 1.363,0.891 2.278,1.722 2.493,1.89 2.567,1.996 0.043,0.055 0.086,0.187 0.094,0.293 0.019,0.172 -0.059,0.398 -0.887,2.57 -0.5,1.313 -0.918,2.446 -0.926,2.52 -0.039,0.27 0.051,0.438 0.676,1.297 0.336,0.457 0.648,0.875 0.695,0.922 0.137,0.152 0.371,0.254 0.59,0.25 0.106,0 1.274,-0.117 2.59,-0.262 l 2.391,-0.258 0.168,0.075 c 0.09,0.043 0.195,0.109 0.234,0.152 0.055,0.062 1.422,3.727 1.649,4.418 0.086,0.254 0.031,0.469 -0.168,0.672 -0.078,0.082 -1.047,0.813 -2.153,1.625 -1.984,1.457 -2.007,1.477 -2.105,1.692 l -0.098,0.215 0.047,0.839 c 0.063,1.098 0.07,1.149 0.215,1.36 0.117,0.168 0.207,0.219 2.395,1.316 1.254,0.629 2.304,1.168 2.34,1.196 0.086,0.074 0.211,0.332 0.211,0.437 0,0.164 -1.012,4.754 -1.075,4.876 -0.035,0.066 -0.125,0.16 -0.207,0.214 -0.164,0.106 0.004,0.094 -3.957,0.348 -1.52,0.098 -1.547,0.106 -1.778,0.324 -0.167,0.16 -0.871,1.485 -0.898,1.696 -0.016,0.105 0,0.234 0.031,0.328 0.032,0.086 0.633,1.129 1.336,2.316 1.227,2.063 1.282,2.165 1.282,2.352 -0.004,0.106 -0.028,0.234 -0.055,0.289 -0.051,0.098 -3.321,3.454 -3.508,3.598 -0.059,0.047 -0.176,0.082 -0.313,0.09 L 13.88,4.907 11.676,3.684 C 10.465,3.012 9.403,2.438 9.317,2.406 9.047,2.313 8.872,2.371 8.145,2.777 7.411,3.188 7.332,3.246 7.219,3.469 7.118,3.664 7.122,3.613 7.028,6.403 6.95,8.708 6.946,8.79 6.86,8.961 6.715,9.254 7,9.168 3.016,10.118 2.344,10.274 1.754,10.407 1.707,10.407 1.66,10.403 1.57,10.38 1.504,10.352"
             style="fill:#ffffff;fill-opacity:1;fill-rule:nonzero;stroke:none"
             id="path66" />
        </g>
        <path
           d="m 256,192 h -64 v 64 h 64 z"
           style="fill:#ffffff;fill-opacity:1;fill-rule:nonzero;stroke:none"
           id="path68" />
        <g
           id="g70"
           transform="translate(234.7532,241.6139)">
          <path
             d="m 0,0 c -3.734,0.503 -3.822,6.82 -8.733,6.82 -2.02,0 -4.112,-0.714 -4.112,-6.075 v -20 c -14.225,-0.018 -19.68,-5.523 -19.68,-13.555 0,-3.108 1.429,-5.896 3.733,-7.717 2.035,-1.608 4.678,-2.811 7.893,-2.811 4.722,0 8.248,1.72 10.874,3.863 2.786,2.358 5.249,6.312 5.249,11.417 v 18.611 c 0,0 3.713,0.189 5.934,-0.863 1.458,-0.691 3.722,-2.165 2.541,-6.225 -0.741,-2.549 2.773,-4.129 4.561,-1.721 2.025,2.727 2.819,4.3 2.819,7.69 C 11.079,-8.852 11.421,-1.538 0,0"
             style="fill:#000000;fill-opacity:1;fill-rule:nonzero;stroke:none"
             id="path72" />
        </g>
        <path
           d="m 192,192 h -64 v 64 h 64 z"
           style="fill:#000000;fill-opacity:1;fill-rule:nonzero;stroke:none"
           id="path74" />
        <path
           d="M 128,192 H 64 v 64 h 64 z"
           style="fill:#ffffff;fill-opacity:1;fill-rule:nonzero;stroke:none"
           id="path76" />
        <g
           id="g78"
           transform="translate(84.9861,207.2538)">
          <path
             d="M 0,0 -3.036,-4.479 -4.752,0.653 -9.944,2.141 -5.617,5.359 -5.799,10.764 -1.397,7.621 3.689,9.473 2.08,4.327 5.405,0.061 Z m 35.841,31.338 c -0.12,0.741 -0.66,1.361 -1.36,1.621 -0.701,0.26 -1.481,0.1 -2.001,-0.42 l -3.522,-3.542 c -0.301,-0.3 -0.721,-0.5 -1.161,-0.54 l -2.982,-0.241 c -0.58,-0.04 -1.16,0.16 -1.581,0.581 -0.42,0.42 -0.66,1 -0.64,1.581 l 0.16,3.121 c 0.02,0.461 0.22,0.901 0.541,1.221 l 3.501,3.502 c 0.521,0.52 0.681,1.281 0.421,2.001 -0.26,0.72 -0.881,1.241 -1.621,1.361 -4.283,0.74 -8.505,-0.941 -10.966,-4.363 -2.462,-3.422 -2.762,-8.004 -0.781,-11.946 L 3.283,14.709 c -4.482,2.141 -10.025,1.361 -13.727,-2.361 -4.723,-4.723 -4.723,-12.367 0,-17.07 4.722,-4.722 12.367,-4.722 17.069,0 3.722,3.722 4.503,9.265 2.362,13.748 l 10.565,10.566 c 3.943,-1.981 8.545,-1.681 11.967,0.78 3.382,2.441 5.063,6.664 4.322,10.966"
             style="fill:#aaaaaa;fill-opacity:1;fill-rule:nonzero;stroke:none"
             id="path80" />
        </g>
        <path
           d="M 64,192 H 0 v 64 h 64 z"
           style="fill:#000000;fill-opacity:1;fill-rule:nonzero;stroke:none"
           id="path82" />
      </g>
    </g>
  </g>
</svg>
