<?xml version="1.0" encoding="UTF-8" standalone="no"?>
<svg
   xmlns:dc="http://purl.org/dc/elements/1.1/"
   xmlns:cc="http://creativecommons.org/ns#"
   xmlns:rdf="http://www.w3.org/1999/02/22-rdf-syntax-ns#"
   xmlns:svg="http://www.w3.org/2000/svg"
   xmlns="http://www.w3.org/2000/svg"
   xmlns:sodipodi="http://sodipodi.sourceforge.net/DTD/sodipodi-0.dtd"
   xmlns:inkscape="http://www.inkscape.org/namespaces/inkscape"
   version="1.1"
   id="svg2"
   xml:space="preserve"
   width="1245.3066"
   height="369.13068"
   viewBox="0 0 1245.3066 369.13068"
   sodipodi:docname="Pomegranate Mania Logo.ai"><metadata
     id="metadata8"><rdf:RDF><cc:Work
         rdf:about=""><dc:format>image/svg+xml</dc:format><dc:type
           rdf:resource="http://purl.org/dc/dcmitype/StillImage" /></cc:Work></rdf:RDF></metadata><defs
     id="defs6"><clipPath
       clipPathUnits="userSpaceOnUse"
       id="clipPath18"><path
         d="M 0,276.848 H 933.98 V 0 H 0 Z"
         id="path16" /></clipPath></defs><sodipodi:namedview
     pagecolor="#ffffff"
     bordercolor="#666666"
     borderopacity="1"
     objecttolerance="10"
     gridtolerance="10"
     guidetolerance="10"
     inkscape:pageopacity="0"
     inkscape:pageshadow="2"
     inkscape:window-width="640"
     inkscape:window-height="480"
     id="namedview4" /><g
     id="g10"
     inkscape:groupmode="layer"
     inkscape:label="Pomegranate Mania Logo"
     transform="matrix(1.3333333,0,0,-1.3333333,0,369.13067)"><g
       id="g12"><g
         id="g14"
         clip-path="url(#clipPath18)"><g
           id="g20"
           transform="translate(439.9595,48.9404)"><path
             d="m 0,0 h 12 v -48.94 h -73.198 c -8.066,0 -17.534,4.796 -24.71,12.518 -0.798,0.859 -1.55,1.752 -2.277,2.664 V -48.94 h -49.046 v 15.448 c -1.739,-3.331 -3.735,-6.7 -6.006,-10.107 l -3.56,-5.341 h -138.085 c -8.066,0 -17.535,4.796 -24.711,12.518 -1.213,1.306 -2.335,2.682 -3.384,4.108 V -48.94 h -49.047 v 9.873 h -28.931 v -9.873 h -49.047 V 74.047 h 45.223 l 18.325,-46.38 18.241,46.38 h 45.236 V 24.431 c 8.532,10.929 21.081,16.418 29.575,16.418 h 54.444 V -0.143 c 1.743,0.095 3.502,0.143 5.273,0.143 h 0.706 v 40.849 h 68.022 l 2.785,-1.6 c 0.559,-0.321 8.47,-4.987 14.941,-14.438 v 0.171 49.065 h 49.046 V 25.795 c 8.483,10.021 20.335,15.054 28.468,15.054 H -5.273 V -0.143 C -3.53,-0.048 -1.771,0 0,0 M 494.12,150.522 V 131.88 h -5.659 v -26.815 h -53.697 c -8.044,0 -17.472,4.795 -24.603,12.513 -4.345,4.701 -7.634,10.235 -9.768,16.262 V 105.065 H 281.015 c -8.04,0 -17.482,4.785 -24.64,12.487 -1.802,1.938 -3.414,4.023 -4.85,6.218 -2.075,-4.384 -4.619,-8.841 -7.633,-13.361 l -3.562,-5.344 H 102.422 c -8.04,0 -17.482,4.785 -24.641,12.487 -7.385,7.945 -11.766,18.252 -12.556,29.334 H 55.752 V 105.065 H 7.264 C 5.46,101.655 3.073,98.185 0.048,94.959 -7.203,87.225 -20.849,78.005 -44.684,78.005 h -12 v 30.399 c -4.186,2.155 -8.259,5.237 -11.78,9.025 -0.869,0.935 -1.687,1.909 -2.473,2.906 v -15.27 h -53.697 c -8.044,0 -17.471,4.795 -24.603,12.512 -1.091,1.181 -2.111,2.418 -3.069,3.697 -1.341,-3.249 -2.895,-6.535 -4.665,-9.856 l -3.388,-6.353 h -106.654 v 16.816 c -1.256,-1.567 -2.608,-3.079 -4.077,-4.514 -7.77,-7.588 -17.587,-12.302 -25.619,-12.302 h -19.927 c -8.032,0 -17.849,4.714 -25.619,12.302 -8.999,8.788 -14.039,20.214 -14.279,32.259 -0.054,-0.055 -0.104,-0.11 -0.158,-0.165 l -3.522,-3.559 h -30.201 c -2.038,-19.461 -8.088,-33.09 -8.393,-33.767 l -3.186,-7.07 h -38.081 v 122.77 h 71.04 c 8.256,0 17.963,-9.595 19.043,-10.69 8.107,-8.214 12.391,-18.152 12.391,-28.739 0,-0.724 -0.027,-1.448 -0.066,-2.172 8.321,5.866 17.39,8.514 23,8.514 h 15.989 c 6.025,0 16.039,-3.05 24.832,-9.864 2.553,-1.978 4.826,-4.161 6.833,-6.508 v 16.372 h 98.543 l 3.203,-2.41 c 0.455,-0.341 6.824,-5.249 12.1,-14.676 8.489,11.462 21.364,17.209 30.009,17.209 h 19.188 c 8.918,0 22.331,-6.123 30.793,-18.318 8.467,12.113 21.82,18.195 30.707,18.195 h 98.099 v -1.608 c 4.482,0.932 9.218,1.428 14.188,1.484 l 12.135,0.136 v -8.792 c 7.38,5.845 15.746,8.78 21.946,8.78 h 54.312 v -40.853 c 1.726,0.093 3.467,0.14 5.22,0.14 h 0.913 v 40.713 h 67.846 l 2.776,-1.595 c 0.605,-0.347 9.821,-5.781 16.495,-16.872 8.481,12.295 22.036,18.467 31.031,18.467 h 54.312 v -0.123 h 13.268 v 33.21 h 50.322 v -33.21 h 14.269 v -8.315 c 7.282,5.703 15.482,8.561 21.578,8.561 h 19.188 c 13.886,0 38.692,-14.82 38.692,-44.349"
             style="fill:#000000;fill-opacity:1;fill-rule:nonzero;stroke:none"
             id="path22" /></g><path
           d="m 397.639,57.853 h -17.891 v -26.04 h 17.891 z m -18.877,-45.91 c -8.514,0 -25.417,11.972 -25.417,33.569 0,23.201 19.864,32.333 26.897,32.333 h 42.444 V 35.144 c 4.935,1.112 10.734,1.853 17.273,1.853 V 11.943 Z m -64.034,65.902 h 25.046 V 11.944 h -25.046 z m 0,33.198 h 25.046 V 85.867 h -25.046 z m -46.513,-99.1 V 57.976 H 254.15 V 11.943 h -25.17 v 65.902 h 52.808 c 0,0 17.397,-9.995 17.397,-31.593 0,-9.255 -3.332,-20.609 -12.462,-34.309 z m -94.26,45.91 h -17.891 v -26.04 h 17.891 z m -18.878,-45.91 c -8.514,0 -25.417,11.972 -25.417,33.569 0,23.201 19.865,32.333 26.898,32.333 h 42.443 V 35.144 c 4.936,1.112 10.734,1.853 17.274,1.853 V 11.943 Z m -65.141,0 V 50.324 C 81.422,33.171 72.909,21.817 72.909,21.817 H 54.278 c 0,0 -8.76,11.477 -17.274,28.754 V 11.943 H 11.958 v 99.1 h 25.046 l 26.528,-67.136 26.404,67.136 h 25.046 v -99.1 z M 895.88,212.254 h -20.049 v -6.396 h 20.049 z m -21.156,-46.248 c -8.488,0 -25.215,11.931 -25.215,33.456 0,23.124 19.803,32.349 26.69,32.349 h 19.189 c 6.887,0 26.691,-9.225 26.691,-32.349 v -6.642 h -46.248 v -7.011 h 40.59 v -19.803 z m -72.694,0 v 45.756 h -14.144 v 19.803 h 14.144 v 33.211 h 26.323 v -33.211 h 14.268 v -19.803 h -14.268 v -45.756 z m -62.236,45.756 h -17.835 v -25.953 h 17.835 z m -18.819,-45.756 c -8.488,0 -25.338,11.931 -25.338,33.456 0,23.124 19.802,32.226 26.813,32.226 h 42.313 V 189.13 c 4.92,1.107 10.701,1.845 17.22,1.845 v -24.969 z m -65.558,0 v 45.879 h -14.021 v -45.879 h -25.093 v 65.682 h 52.644 c 0,0 17.344,-9.962 17.344,-31.488 0,-9.225 -3.321,-20.541 -12.424,-34.194 z m -94.216,45.756 h -17.836 v -25.953 h 17.836 z m -18.819,-45.756 c -8.487,0 -25.339,11.931 -25.339,33.456 0,23.124 19.804,32.226 26.814,32.226 H 586.17 V 189.13 c 4.92,1.107 10.701,1.845 17.22,1.845 v -24.969 z m -83.885,0 v 65.682 h 25.092 v -6.887 c 6.765,4.058 15.376,6.642 26.322,6.764 v -23.738 h -26.199 v -41.821 z m -44.033,45.756 h -17.343 v -26.076 h 17.343 z m -19.188,-52.398 h 19.188 v 6.519 h -18.327 c -8.488,0 -25.339,11.931 -25.339,33.456 0,23.001 19.557,32.349 26.692,32.349 h 42.066 v -62.73 c 0,-4.92 -7.38,-30.012 -44.28,-30.012 z m -58.794,52.89 h -20.049 v -6.396 h 20.049 z m -21.156,-46.248 c -8.488,0 -25.216,11.931 -25.216,33.456 0,23.124 19.804,32.349 26.692,32.349 h 19.188 c 6.888,0 26.691,-9.225 26.691,-32.349 v -6.642 h -46.248 v -7.011 h 40.59 v -19.803 z m -61.253,0 v 45.879 h -9.594 v -45.879 h -24.97 v 45.879 h -9.471 v -45.879 h -25.092 v 65.682 h 82.534 c 0,0 14.391,-10.823 14.391,-32.718 0,-9.102 -2.583,-20.049 -9.471,-32.964 z m -112.299,46.002 h -17.097 v -26.199 h 17.097 z m -18.45,-46.002 c -8.733,0 -27.922,12.546 -27.922,33.456 0,23.37 23.125,32.226 29.89,32.226 h 15.99 c 6.765,0 29.889,-8.856 29.889,-32.226 0,-20.91 -19.188,-33.456 -27.921,-33.456 z M 59.855,244.973 H 38.207 V 226.646 H 59.855 Z M 38.207,206.842 c -0.123,-23.37 -7.996,-40.836 -7.996,-40.836 H 11.884 v 98.77 h 59.041 c 2.091,0 19.434,-9.84 19.434,-27.429 0,-8.488 -3.936,-18.697 -15.621,-30.505 z"
           style="fill:#ffffff;fill-opacity:1;fill-rule:nonzero;stroke:none"
           id="path24" /><g
           id="g26"
           transform="translate(150.5913,199.2553)"><path
             d="m 0,0 c 0,-8.837 -7.164,-16 -16,-16 -8.836,0 -16,7.163 -16,16 0,8.836 7.164,16 16,16 C -7.164,16 0,8.836 0,0"
             style="fill:#ee186c;fill-opacity:1;fill-rule:nonzero;stroke:none"
             id="path28" /></g><g
           id="g30"
           transform="translate(134.5913,183.7553)"><path
             d="M 0,0 C -3.244,0 -6.253,1 -8.742,2.704 L 12.796,24.242 C 14.5,21.752 15.5,18.744 15.5,15.5 15.5,6.939 8.561,0 0,0 M -15.5,15.5 C -15.5,24.06 -8.561,31 0,31 3.244,31 6.253,30 8.742,28.296 L -12.796,6.758 C -14.5,9.247 -15.5,12.256 -15.5,15.5 M 0,37 C -11.855,37 -21.5,27.355 -21.5,15.5 -21.5,3.645 -11.855,-6 0,-6 11.855,-6 21.5,3.645 21.5,15.5 21.5,27.355 11.855,37 0,37"
             style="fill:#000000;fill-opacity:1;fill-rule:nonzero;stroke:none"
             id="path32" /></g></g></g></g></svg>
