<?xml version="1.0" encoding="UTF-8" standalone="no"?>
<!-- Created with Inkscape (http://www.inkscape.org/) -->

<svg
   version="1.1"
   id="svg1"
   width="666.66669"
   height="499.62268"
   viewBox="0 0 666.66669 499.62268"
   sodipodi:docname="Jiézòu Tiānguó Qíjì Zhī Xīng (節奏天國 奇蹟之星) Logo (Print).ai"
   xmlns:inkscape="http://www.inkscape.org/namespaces/inkscape"
   xmlns:sodipodi="http://sodipodi.sourceforge.net/DTD/sodipodi-0.dtd"
   xmlns="http://www.w3.org/2000/svg"
   xmlns:svg="http://www.w3.org/2000/svg">
  <defs
     id="defs1">
    <clipPath
       clipPathUnits="userSpaceOnUse"
       id="clipPath2">
      <path
         d="M 0,374.717 H 500 V 0 H 0 Z"
         transform="translate(-394.06331,-367.96241)"
         id="path2" />
    </clipPath>
    <clipPath
       clipPathUnits="userSpaceOnUse"
       id="clipPath4">
      <path
         d="M 0,374.717 H 500 V 0 H 0 Z"
         transform="translate(-394.06331,-357.83061)"
         id="path4" />
    </clipPath>
    <clipPath
       clipPathUnits="userSpaceOnUse"
       id="clipPath6">
      <path
         d="M 0,374.717 H 500 V 0 H 0 Z"
         transform="translate(-463.68741,-281.45181)"
         id="path6" />
    </clipPath>
    <clipPath
       clipPathUnits="userSpaceOnUse"
       id="clipPath8">
      <path
         d="M 0,374.717 H 500 V 0 H 0 Z"
         transform="translate(-498.95551,-262.96541)"
         id="path8" />
    </clipPath>
    <clipPath
       clipPathUnits="userSpaceOnUse"
       id="clipPath10">
      <path
         d="M 0,374.717 H 500 V 0 H 0 Z"
         transform="translate(-453.38011,-209.18231)"
         id="path10" />
    </clipPath>
    <clipPath
       clipPathUnits="userSpaceOnUse"
       id="clipPath12">
      <path
         d="M 0,374.717 H 500 V 0 H 0 Z"
         transform="translate(-447.69621,-195.14621)"
         id="path12" />
    </clipPath>
    <clipPath
       clipPathUnits="userSpaceOnUse"
       id="clipPath14">
      <path
         d="M 0,374.717 H 500 V 0 H 0 Z"
         transform="translate(-369.11251,-187.0334)"
         id="path14" />
    </clipPath>
    <clipPath
       clipPathUnits="userSpaceOnUse"
       id="clipPath16">
      <path
         d="M 0,374.717 H 500 V 0 H 0 Z"
         transform="translate(-305.34451,-175.0007)"
         id="path16" />
    </clipPath>
    <clipPath
       clipPathUnits="userSpaceOnUse"
       id="clipPath18">
      <path
         d="M 0,374.717 H 500 V 0 H 0 Z"
         transform="translate(-197.7633,-129.76571)"
         id="path18" />
    </clipPath>
    <clipPath
       clipPathUnits="userSpaceOnUse"
       id="clipPath20">
      <path
         d="M 0,374.717 H 500 V 0 H 0 Z"
         transform="translate(-130.521,-88.105102)"
         id="path20" />
    </clipPath>
    <clipPath
       clipPathUnits="userSpaceOnUse"
       id="clipPath22">
      <path
         d="M 0,374.717 H 500 V 0 H 0 Z"
         transform="translate(-402.11281,-264.3771)"
         id="path22" />
    </clipPath>
    <clipPath
       clipPathUnits="userSpaceOnUse"
       id="clipPath24">
      <path
         d="M 0,374.717 H 500 V 0 H 0 Z"
         transform="translate(-335.01961,-315.58871)"
         id="path24" />
    </clipPath>
    <clipPath
       clipPathUnits="userSpaceOnUse"
       id="clipPath26">
      <path
         d="M 0,374.717 H 500 V 0 H 0 Z"
         transform="translate(-191.20131,-215.778)"
         id="path26" />
    </clipPath>
    <clipPath
       clipPathUnits="userSpaceOnUse"
       id="clipPath28">
      <path
         d="M 0,374.717 H 500 V 0 H 0 Z"
         transform="translate(-95.586805,-224.31851)"
         id="path28" />
    </clipPath>
    <clipPath
       clipPathUnits="userSpaceOnUse"
       id="clipPath30">
      <path
         d="M 0,374.717 H 500 V 0 H 0 Z"
         transform="translate(-498.38521,-266.2968)"
         id="path30" />
    </clipPath>
  </defs>
  <sodipodi:namedview
     id="namedview1"
     pagecolor="#ffffff"
     bordercolor="#000000"
     borderopacity="0.25"
     inkscape:showpageshadow="2"
     inkscape:pageopacity="0.0"
     inkscape:pagecheckerboard="0"
     inkscape:deskcolor="#d1d1d1">
    <inkscape:page
       x="0"
       y="0"
       inkscape:label="1"
       id="page1"
       width="666.66669"
       height="499.62268"
       margin="0"
       bleed="0" />
  </sodipodi:namedview>
  <g
     id="layer-MC0"
     inkscape:groupmode="layer"
     inkscape:label="Layer 1">
    <path
       id="path1"
       d="M 0,0 C -15.063,0 -29.842,-3.962 -42.809,-11.336 -57.858,0.285 -76.496,6.755 -95.733,6.755 c -40.473,0 -74.544,-27.937 -83.941,-65.54 -5.5,1.085 -11.128,1.631 -16.858,1.631 -11.636,0 -23.101,-2.339 -33.715,-6.829 -15.748,11.004 -34.525,16.961 -53.965,16.961 -52,0 -94.304,-42.305 -94.304,-94.305 0,-40.976 26.263,-76.88 64.648,-89.542 7.187,-9.942 16.454,-18.311 27.109,-24.434 13.046,-7.497 27.934,-11.46 43.052,-11.46 24.071,0 46.739,9.955 62.953,27.167 9.005,-3.084 18.524,-4.683 28.102,-4.683 24.012,0 46.669,9.931 62.884,27.096 8.548,-2.746 17.537,-4.17 26.549,-4.17 18.708,0 36.518,5.879 51.505,17 11.619,8.622 20.738,19.77 26.783,32.643 17.994,3.155 34.511,11.923 47.36,25.313 15.529,16.183 24.082,37.451 24.082,59.886 C 86.511,-38.808 47.702,0 0,0"
       style="fill:#000000;fill-opacity:1;fill-rule:nonzero;stroke:none"
       transform="matrix(1.3333333,0,0,-1.3333333,525.41773,9.0061333)"
       clip-path="url(#clipPath2)" />
    <path
       id="path3"
       d="m 0,0 c -15.644,0 -30.937,-4.838 -43.69,-13.727 -14.07,13.083 -32.713,20.482 -52.043,20.482 -39.301,0 -71.764,-29.835 -75.927,-68.046 -7.953,2.749 -16.283,4.137 -24.872,4.137 -12.193,0 -24.172,-2.908 -34.932,-8.445 -14.921,12.014 -33.468,18.577 -52.748,18.577 -46.413,0 -84.172,-37.76 -84.172,-84.173 0,-37.69 24.887,-70.569 60.855,-80.896 6.575,-9.975 15.453,-18.339 25.818,-24.295 11.513,-6.616 24.654,-10.113 38.004,-10.113 23.524,0 45.53,10.768 59.973,29.079 9.73,-4.328 20.362,-6.595 31.082,-6.595 23.416,0 45.374,10.699 59.821,28.886 9.322,-3.911 19.449,-5.96 29.612,-5.96 16.517,0 32.239,5.189 45.467,15.005 11.718,8.695 20.555,20.293 25.758,33.746 17.93,1.865 34.516,9.961 47.112,23.088 13.711,14.287 21.261,33.064 21.261,52.871 C 76.379,-34.263 42.115,0 0,0"
       style="fill:#ffffff;fill-opacity:1;fill-rule:nonzero;stroke:none"
       transform="matrix(1.3333333,0,0,-1.3333333,525.41773,22.5152)"
       clip-path="url(#clipPath4)" />
    <path
       id="path5"
       d="m 0,0 c 0,38.452 -31.172,69.624 -69.624,69.624 -16.837,0 -32.279,-5.977 -44.318,-15.925 -12.732,13.936 -31.052,22.68 -51.415,22.68 -38.453,0 -69.624,-31.172 -69.624,-69.624 0,-0.553 0.008,-1.104 0.02,-1.653 -9.384,4.712 -19.979,7.368 -31.195,7.368 -13.072,0 -25.299,-3.605 -35.749,-9.871 -13.735,12.431 -31.948,20.003 -51.931,20.003 -42.757,0 -77.418,-34.661 -77.418,-77.418 0,-36.194 24.839,-66.583 58.399,-75.061 12.215,-20.078 34.303,-33.489 59.524,-33.489 24.116,0 45.366,12.263 57.861,30.891 9.867,-5.361 21.175,-8.407 33.194,-8.407 23.984,0 45.135,12.128 57.657,30.586 9.526,-4.896 20.328,-7.659 31.776,-7.659 31.052,0 57.352,20.329 66.327,48.403 C -29.507,-67.925 0,-37.411 0,0"
       style="fill:#000000;fill-opacity:1;fill-rule:nonzero;stroke:none"
       transform="matrix(1.3333333,0,0,-1.3333333,618.24987,124.3536)"
       clip-path="url(#clipPath6)" />
    <path
       id="path7"
       d="m 0,0 -336.375,-120.197 6.575,16.528 c 0.267,0.67 -0.351,1.355 -1.045,1.16 l -61.137,-17.226 -48.892,40.631 c -0.555,0.462 -1.398,0.086 -1.426,-0.635 l -2.517,-63.494 -53.732,-33.925 c -0.611,-0.385 -0.514,-1.303 0.162,-1.553 l 59.609,-22.047 15.66,-61.551 c 0.178,-0.699 1.081,-0.891 1.528,-0.324 l 39.357,49.886 63.437,-4.143 c 0.72,-0.047 1.181,0.752 0.781,1.353 l -14.722,22.061 313.582,91.006 c 0.622,0.18 0.765,0.996 0.242,1.378 l -12.671,9.238 24.166,30.447 c 0.326,0.411 0.162,1.02 -0.326,1.21 L -27.713,-52.39 0.943,-1.114 C 1.294,-0.486 0.678,0.242 0,0"
       style="fill:#ffffff;fill-opacity:1;fill-rule:nonzero;stroke:none"
       transform="matrix(1.3333333,0,0,-1.3333333,665.274,149.00213)"
       clip-path="url(#clipPath8)" />
    <path
       id="path9"
       d="m 0,0 2.635,4.998 -5.616,-1.053 -4.008,3.909 -0.804,-5.538 -5.109,-2.596 5.145,-2.36 0.84,-5.509 3.983,4.081 5.619,-0.822 z"
       style="fill:#000000;fill-opacity:1;fill-rule:nonzero;stroke:none"
       transform="matrix(1.3333333,0,0,-1.3333333,604.5068,220.71293)"
       clip-path="url(#clipPath10)" />
    <path
       id="path11"
       d="m 0,0 -8.517,-1.597 -6.08,5.928 -1.218,-8.398 -7.749,-3.938 7.803,-3.579 1.274,-8.356 6.042,6.19 8.522,-1.247 -4.073,7.417 z"
       style="fill:#000000;fill-opacity:1;fill-rule:nonzero;stroke:none"
       transform="matrix(1.3333333,0,0,-1.3333333,596.92827,239.42773)"
       clip-path="url(#clipPath12)" />
    <path
       id="path13"
       d="m 0,0 26.639,8.913 v -1.98 c 0,-0.861 -0.697,-1.793 -1.558,-2.081 L 0,-3.54 Z m 0,4.774 c 0,0.861 0.698,1.792 1.559,2.08 l 25.08,8.392 v -3.54 L 0,2.793 Z m 21.939,-23.965 v 3.332 l 20.872,6.984 v 3.139 L 21.939,-12.72 v 3.239 l 20.872,6.984 V 1.952 L 21.939,-5.032 v 4.14 l 21.23,7.104 V 26.289 L -16.422,6.35 v -20.077 l 20.768,6.949 v -4.14 l -8.936,-2.99 0.701,1.809 -12.494,-4.18 -2.408,-6.213 c -0.167,-0.431 -0.539,-0.797 -0.949,-0.934 l -2.283,-0.764 v -6.378 l 11.937,3.994 c 0.411,0.137 0.783,0.503 0.95,0.934 l 2.565,6.62 10.917,3.653 v -3.24 l -8.029,-2.686 -1.398,-3.607 9.427,3.154 v -3.331 l -23.991,-8.027 v -6.946 l 66.047,22.099 v 6.946 z"
       style="fill:#000000;fill-opacity:1;fill-rule:nonzero;stroke:none"
       transform="matrix(1.3333333,0,0,-1.3333333,492.15,250.2448)"
       clip-path="url(#clipPath14)" />
    <path
       id="path15"
       d="m 0,0 v 2.541 l -25.304,-8.467 v -5.528 l 10.079,3.372 c 0.574,0.192 1.039,-0.117 1.039,-0.691 v -1.689 l 25.304,8.467 V 2.681 L 1.039,-0.691 C 0.465,-0.883 0,-0.574 0,0 m -6.143,-37.095 33.138,11.088 v -7.741 l -43.288,-14.484 c -0.398,-0.133 -0.76,-0.028 -0.934,0.271 l -2.312,3.966 c -0.261,0.448 -0.805,0.606 -1.401,0.407 l -2.542,-0.851 c -0.596,-0.199 -1.14,-0.721 -1.401,-1.344 l -2.312,-5.513 c -0.174,-0.415 -0.536,-0.763 -0.934,-0.896 l -12.951,-4.334 6.503,15.51 c 0.175,0.416 0.537,0.763 0.934,0.896 l 10.677,3.573 c 0.579,0.194 1.142,0.576 1.599,1.086 l 14.453,16.127 -30.398,-10.171 v 7.741 L 23.831,-1.306 V -6.721 L 15.77,-9.418 c -1.222,-0.409 -2.404,-1.235 -3.34,-2.333 l -20.491,-24.051 0.517,-0.886 c 0.261,-0.449 0.805,-0.606 1.401,-0.407"
       style="fill:#000000;fill-opacity:1;fill-rule:nonzero;stroke:none"
       transform="matrix(1.3333333,0,0,-1.3333333,407.126,266.2884)"
       clip-path="url(#clipPath16)" />
    <path
       id="path17"
       d="M 0,0 C 0,-0.646 -0.523,-1.344 -1.169,-1.56 L -5.65,-3.059 V 1.52 c 0,0.646 0.523,1.344 1.169,1.56 L 0,4.58 Z m 2.658,-21.122 v 4.479 l 6.251,2.092 v 6.337 L 2.658,-10.306 V -5.8 l 5.699,1.907 V 12.896 L -14.007,5.413 v -16.789 l 8.713,2.915 v -16.868 l -2.445,-1.293 v 13.868 l -6.268,-2.097 v -15.087 l -2.248,-1.189 v -7.853 l 25.199,13.329 v 7.854 z M 51.911,13.659 V 9.324 L 9.904,-4.732 v 4.336 L 24.419,4.46 V 6.579 L 12.112,2.461 v 2.655 l 12.307,4.118 v 2.192 L 12.112,7.308 v 5.61 l 12.307,4.118 v 2.915 l 13.104,4.384 V 21.42 l 12.18,4.076 v -5.61 L 37.523,15.81 v -2.192 l 12.18,4.076 V 15.039 L 37.523,10.964 V 8.845 Z m -29.697,-27.54 17.075,5.714 v -0.92 c 0,-0.574 -0.465,-1.195 -1.039,-1.387 l -16.036,-5.365 z m 0,3.648 17.075,5.714 v -1.959 l -17.075,-5.713 z m 0,2.672 c 0,0.574 0.465,1.195 1.039,1.387 l 16.036,5.365 V -2.767 L 22.214,-8.481 Z m 20.871,-4.509 5.934,1.985 V 6.32 L 12.717,-5.826 v -16.405 l 8.111,2.714 c -0.418,-1.31 -1.52,-2.734 -4.158,-3.616 l -6.766,-2.264 v -4.831 l 12.548,4.199 c 3.161,1.057 7.177,3.462 9.308,9.215 2.464,-0.859 4.771,-2.148 6.522,-3.919 l 13.422,4.491 c -1.424,1.401 -4.427,2.903 -8.619,4.172"
       style="fill:#000000;fill-opacity:1;fill-rule:nonzero;stroke:none"
       transform="matrix(1.3333333,0,0,-1.3333333,263.6844,326.60173)"
       clip-path="url(#clipPath18)" />
    <path
       id="path19"
       d="m 0,0 -14.402,-4.819 c -0.574,-0.192 -1.039,-0.813 -1.039,-1.387 v -2.19 l 14.402,4.819 C -0.465,-3.385 0,-2.764 0,-2.19 Z m 9.405,5.861 v -9.389 l -34.292,-11.475 v 9.389 z m 22.009,25.533 v 6.828 L 5.933,29.696 7.761,33.538 -7.785,28.337 -9.613,24.494 -27.29,18.579 v -6.827 l 13.814,4.622 -1.429,-3.003 c -0.184,-0.388 -0.53,-0.705 -0.904,-0.83 L -27.29,8.699 V 4.421 l 24.607,8.233 c 0.374,0.125 0.72,0.442 0.904,0.83 l 3.849,8.091 1.544,0.517 3.849,-5.516 c 0.184,-0.264 0.53,-0.35 0.904,-0.225 l 23.047,7.712 v 4.278 l -9.921,-3.319 c -0.374,-0.126 -0.72,-0.04 -0.904,0.225 l -1.429,2.047 z m 4.731,-13.94 -8.088,-2.706 V 2.022 c 0,-3.874 -3.14,-8.065 -7.014,-9.361 l -24.258,-8.117 v 5.501 l 13.071,4.373 c 1.865,0.624 3.377,2.642 3.377,4.507 V 9.788 l -45.309,-15.16 v 5.297 l 68.221,22.827 z"
       style="fill:#000000;fill-opacity:1;fill-rule:nonzero;stroke:none"
       transform="matrix(1.3333333,0,0,-1.3333333,174.028,382.1492)"
       clip-path="url(#clipPath20)" />
    <path
       id="path21"
       d="M 0,0 C 3.841,4.696 10.688,15.126 10.414,27.812 L 2.249,25.316 C 2.249,18.024 0.532,12.025 -1.309,9.894 V 26.62 l 11.954,3.655 v 7.522 L -1.309,34.142 v 5.972 l -10.735,-3.282 v -2.888 l 0.918,0.281 c 0.657,0.201 1.001,-0.086 1.001,-0.841 v -1.937 l -17.958,-5.49 v -7.522 l 17.958,5.49 V 0.144 c 0,-0.389 0.114,-1.608 0.537,-2.732 -0.832,-0.951 -2.545,-2.437 -5.611,-3.374 l -7.65,-2.339 v -4.564 l 7.316,2.237 c 4.83,1.476 7.63,3.114 9.464,4.63 1.77,-0.828 4.484,-1.009 8.659,0.438 8.244,2.858 9.777,9.193 9.317,14.932 L 4.834,7.21 C 5.996,-2.864 0,0 0,0 m 10.645,39.262 v 4.507 L 4.339,41.841 V 37.334 Z M -13.215,2.969 -28.083,-1.577 v -7.851 l 2.964,0.907 0.001,0.793 c 0,0.629 0.377,1.116 1.082,1.332 l 10.821,3.308 z m -7.56,5.186 -2.087,-0.638 v 2.376 c 0,1.291 1.047,2.658 2.339,3.053 l 2.086,0.638 v -2.376 c 0,-1.291 -1.047,-2.658 -2.338,-3.053 m 7.56,11.947 -14.869,-4.546 0.001,-14.557 14.868,4.545 z M 13.334,0.103 c 0,-2.701 -1.47,-4.504 -3.497,-5.112 l -40.754,-12.459 v 46.643 c 0,2.523 1.306,4.449 3.497,5.111 l 40.754,12.46 z M -47.343,37.117 V -31.39 l 77.111,23.576 v 68.506 z"
       style="fill:#ffffff;fill-opacity:1;fill-rule:nonzero;stroke:none"
       transform="matrix(1.3333333,0,0,-1.3333333,536.1504,147.11987)"
       clip-path="url(#clipPath22)" />
    <path
       id="path23"
       d="m 0,0 v 11.963 l -77.382,-23.657 v -11.964 l 28.182,8.616 v -10.383 l -28.182,-8.616 v -11.993 l 28.182,8.616 v -6.877 c 0,-8.719 -5.513,-16.86 -13.16,-19.198 l -15.022,-4.593 v -12.02 l 21.062,6.44 c 9.742,2.978 19.042,9.562 25.03,23.928 3.285,-1.32 12.21,-7.255 15.83,-11.436 l 20.343,6.219 c -6.087,6.768 -27.73,15.008 -33.532,16.162 v 7.658 L 0,-22.376 v 11.993 l -28.649,-8.759 v 10.383 z"
       style="fill:#ffffff;fill-opacity:1;fill-rule:nonzero;stroke:none"
       transform="matrix(1.3333333,0,0,-1.3333333,446.6928,78.837733)"
       clip-path="url(#clipPath24)" />
    <path
       id="path25"
       d="m 0,0 1.367,4.174 18.514,5.66 1.368,-3.338 z m 24.784,-2.135 c 0.298,-0.73 1.079,-1.038 1.952,-0.771 L 51.761,4.74 V 15.12 L 39.663,11.421 c -0.874,-0.267 -1.654,0.041 -1.953,0.771 l -1.126,2.749 12.677,3.876 v 4.636 L 3.055,9.327 l 1.37,4.182 42.476,12.987 v 4.59 L 6.095,18.61 7.215,22.029 46.901,34.162 V 44.774 L 11.077,33.822 12.967,39.59 -3.736,34.483 -5.625,28.715 -25.443,22.656 V 12.045 l 15.955,4.877 -1.119,-3.418 -14.836,-4.536 v -4.59 l 13.165,4.025 -1.37,-4.183 -14.155,-4.328 v -4.636 l 12.467,3.812 -1.125,-3.438 c -0.299,-0.913 -1.08,-1.698 -1.953,-1.965 l -12.195,-3.728 v -10.38 l 25.119,7.68 c 0.874,0.267 1.654,1.052 1.953,1.965 l 0.78,2.381 5.007,1.53 v -6.637 l -30.053,-9.188 v -4.664 l 27.443,8.39 c 0,0 -1.256,-3.493 -7.725,-5.471 l -19.718,-6.028 V -41.38 l 24.226,7.406 c 8.38,2.562 13.82,5.176 20.412,16.348 4.149,-1.045 7.583,-2.909 11.163,-6.694 l 23.763,7.265 c -3.67,4.374 -14.013,6.589 -23.057,6.955 l 20.557,6.285 V 0.849 L 19.088,-8.376 v 6.637 l 4.917,1.504 z"
       style="fill:#ffffff;fill-opacity:1;fill-rule:nonzero;stroke:none"
       transform="matrix(1.3333333,0,0,-1.3333333,254.93507,211.91867)"
       clip-path="url(#clipPath26)" />
    <path
       id="path27"
       d="m 0,0 -8.262,-2.526 c -1.346,-0.411 -2.437,-1.837 -2.437,-3.183 V -6.954 L 0,-3.683 Z m 0,-7.606 -10.699,-3.272 v -3.567 l 8.261,2.526 C -1.091,-11.507 0,-10.082 0,-8.736 Z m -2.257,-16.19 c -0.774,1.417 -1.601,2.568 -1.986,3.084 -0.189,0.254 -0.525,0.341 -0.889,0.229 l -4.82,-1.473 v -5.411 z M 15.84,-33.538 V 12.563 L 54.524,24.39 v -8.4 L 51.971,15.21 C 49.937,14.588 49.369,13.874 49.369,11.865 V -3.826 c 0,-10.158 -5.391,-16.905 -12.092,-18.954 l -6.008,-1.837 0.13,8.947 c 3.616,0 5.078,3.965 5.078,8.314 v 17.829 l -6.3,-1.927 C 29.316,8.283 28.618,7.372 28.618,6.511 V -29.631 Z M 1.299,-37.464 c 0,2.672 -0.66,4.687 -0.66,4.687 l -18.761,-7.985 c -1.836,-0.781 -3.471,0.175 -3.471,2.036 v 29.094 c 0,1.641 -0.919,2.07 -3.206,1.371 l -1.91,-0.584 v 8.4 L 11.878,11.352 V -15.339 L 5.334,-17.34 c 4.724,-4.723 9.093,-12.703 10.105,-16.32 L 1.299,-37.983 Z M 44.257,29.571 54.524,32.71 V 43.285 L 36.468,37.764 c 0.103,1.166 0.157,2.374 0.157,3.627 L 21.576,36.79 c 0,-9.416 -1.869,-14.502 -7.454,-16.539 v -5.964 l 8.538,2.611 c 3.636,1.111 6.851,3.509 9.374,7.405 1.277,-0.753 2.961,-2.592 3.516,-3.464 l 17.502,5.351 c -2.838,2.838 -8.795,3.381 -8.795,3.381 M 12.016,13.643 -3.706,8.837 c -0.43,0.926 -1.576,2.286 -3.518,3.799 -3.026,-4.522 -6.569,-6.883 -9.536,-7.79 L -28.134,1.368 v 6.668 l 3.495,1.069 c 3.921,1.199 6.259,4.763 6.459,15.53 l 14.986,4.582 c 0,-1.253 -0.053,-2.46 -0.153,-3.625 L 14.017,30.9 V 20.326 L 3.466,17.1 c 0,0 5.772,-0.679 8.55,-3.457"
       style="fill:#ffffff;fill-opacity:1;fill-rule:nonzero;stroke:none"
       transform="matrix(1.3333333,0,0,-1.3333333,127.44907,200.53133)"
       clip-path="url(#clipPath28)" />
    <path
       id="path29"
       d="M 0,0 V 7.828 L -1.596,-0.581 -3.324,-1.21 -4.882,6.051 V -1.777 L -6.516,-2.372 V 7 l 2.552,0.929 1.539,-6.873 0.019,0.007 1.501,7.979 2.52,0.917 V 0.588 Z m -11.796,-4.294 v 7.71 l -2.629,-0.957 v 1.657 l 6.952,2.53 V 4.99 l -2.533,-0.923 v -7.709 z"
       style="fill:#000000;fill-opacity:1;fill-rule:nonzero;stroke:none"
       transform="matrix(1.3333333,0,0,-1.3333333,664.5136,144.56027)"
       clip-path="url(#clipPath30)" />
  </g>
</svg>
