<?xml version="1.0" encoding="UTF-8" standalone="no"?>
<!-- Created with Inkscape (http://www.inkscape.org/) -->

<svg
   version="1.1"
   id="svg1"
   width="666.66669"
   height="437.28668"
   viewBox="0 0 666.66669 437.28668"
   sodipodi:docname="Jiézòu Tiānguó Qíjì Zhī Xīng (節奏天國 奇蹟之星) Logo (Wordmark).ai"
   xmlns:inkscape="http://www.inkscape.org/namespaces/inkscape"
   xmlns:sodipodi="http://sodipodi.sourceforge.net/DTD/sodipodi-0.dtd"
   xmlns="http://www.w3.org/2000/svg"
   xmlns:svg="http://www.w3.org/2000/svg">
  <defs
     id="defs1">
    <clipPath
       clipPathUnits="userSpaceOnUse"
       id="clipPath4">
      <path
         d="M 0,327.965 H 500 V 0 H 0 Z"
         transform="translate(-388.12411,-147.1695)"
         id="path4" />
    </clipPath>
    <clipPath
       clipPathUnits="userSpaceOnUse"
       id="clipPath6">
      <path
         d="M 0,327.965 H 500 V 0 H 0 Z"
         transform="translate(-306.07831,-131.6879)"
         id="path6" />
    </clipPath>
    <clipPath
       clipPathUnits="userSpaceOnUse"
       id="clipPath8">
      <path
         d="M 0,327.965 H 500 V 0 H 0 Z"
         transform="translate(-167.6614,-73.487302)"
         id="path8" />
    </clipPath>
    <clipPath
       clipPathUnits="userSpaceOnUse"
       id="clipPath10">
      <path
         d="M 0,327.965 H 500 V 0 H 0 Z"
         transform="translate(-81.1456,-19.885603)"
         id="path10" />
    </clipPath>
    <clipPath
       clipPathUnits="userSpaceOnUse"
       id="clipPath12">
      <path
         d="M 0,327.965 H 500 V 0 H 0 Z"
         transform="translate(-430.58311,-246.68211)"
         id="path12" />
    </clipPath>
    <clipPath
       clipPathUnits="userSpaceOnUse"
       id="clipPath14">
      <path
         d="M 0,327.965 H 500 V 0 H 0 Z"
         transform="translate(-344.25921,-312.57221)"
         id="path14" />
    </clipPath>
    <clipPath
       clipPathUnits="userSpaceOnUse"
       id="clipPath16">
      <path
         d="M 0,327.965 H 500 V 0 H 0 Z"
         transform="translate(-159.21861,-184.15301)"
         id="path16" />
    </clipPath>
    <clipPath
       clipPathUnits="userSpaceOnUse"
       id="clipPath18">
      <path
         d="M 0,327.965 H 500 V 0 H 0 Z"
         transform="translate(-36.198301,-195.1415)"
         id="path18" />
    </clipPath>
    <clipPath
       clipPathUnits="userSpaceOnUse"
       id="clipPath20">
      <path
         d="M 0,327.965 H 500 V 0 H 0 Z"
         transform="translate(-493.27471,-243.93521)"
         id="path20" />
    </clipPath>
  </defs>
  <sodipodi:namedview
     id="namedview1"
     pagecolor="#ffffff"
     bordercolor="#000000"
     borderopacity="0.25"
     inkscape:showpageshadow="2"
     inkscape:pageopacity="0.0"
     inkscape:pagecheckerboard="0"
     inkscape:deskcolor="#d1d1d1">
    <inkscape:page
       x="0"
       y="0"
       inkscape:label="1"
       id="page1"
       width="666.66669"
       height="437.28668"
       margin="0"
       bleed="0" />
  </sodipodi:namedview>
  <g
     id="layer-MC0"
     inkscape:groupmode="layer"
     inkscape:label="Layer 1">
    <path
       id="path1"
       d="m 0,0 -6.574,-3.341 6.62,-3.035 1.081,-7.09 5.125,5.252 7.23,-1.058 -3.455,6.291 L 13.416,3.45 6.192,2.095 1.034,7.124 Z"
       style="fill:#000000;fill-opacity:1;fill-rule:nonzero;stroke:none"
       transform="matrix(1.3333333,0,0,-1.3333333,648.6912,199.09027)" />
    <path
       id="path2"
       d="m 0,0 -10.958,-2.054 -7.823,7.627 -1.567,-10.806 -9.971,-5.066 10.04,-4.605 1.639,-10.752 7.774,7.965 10.965,-1.604 -5.24,9.542 z"
       style="fill:#000000;fill-opacity:1;fill-rule:nonzero;stroke:none"
       transform="matrix(1.3333333,0,0,-1.3333333,652.30933,227.14307)" />
    <path
       id="path3"
       d="M 0,0 34.275,11.468 V 8.92 c 0,-1.108 -0.898,-2.306 -2.006,-2.677 L 0,-4.554 Z M 0,6.142 C 0,7.25 0.898,8.448 2.006,8.819 L 34.275,19.616 V 15.061 L 0,3.593 Z m 28.227,-30.833 v 4.286 l 26.855,8.986 v 4.039 l -26.855,-8.986 v 4.168 l 26.855,8.985 V 2.511 L 28.227,-6.474 v 5.327 L 55.542,7.992 V 33.824 L -21.129,8.17 v -25.831 l 26.721,8.94 v -5.327 l -11.498,-3.847 0.902,2.328 -16.075,-5.378 -3.098,-7.994 c -0.214,-0.554 -0.693,-1.025 -1.221,-1.202 l -2.937,-0.983 v -8.206 l 15.358,5.139 c 0.529,0.176 1.007,0.647 1.222,1.202 l 3.3,8.517 14.047,4.7 v -4.168 l -10.331,-3.456 -1.798,-4.641 12.129,4.059 v -4.287 l -30.868,-10.328 v -8.936 l 84.978,28.433 v 8.936 z"
       style="fill:#000000;fill-opacity:1;fill-rule:nonzero;stroke:none"
       transform="matrix(1.3333333,0,0,-1.3333333,517.4988,241.06067)"
       clip-path="url(#clipPath4)" />
    <path
       id="path5"
       d="M 0,0 V 3.269 L -32.557,-7.624 v -7.113 l 12.968,4.339 c 0.738,0.247 1.337,-0.152 1.337,-0.89 v -2.173 L 14.305,-2.567 V 3.449 L 1.337,-0.89 C 0.599,-1.137 0,-0.738 0,0 m -7.904,-47.727 42.636,14.266 v -9.96 l -55.696,-18.636 c -0.511,-0.171 -0.977,-0.035 -1.201,0.349 l -2.974,5.103 c -0.337,0.577 -1.036,0.78 -1.803,0.523 l -3.271,-1.094 c -0.766,-0.257 -1.466,-0.928 -1.802,-1.73 l -2.974,-7.093 c -0.224,-0.534 -0.691,-0.982 -1.202,-1.153 l -16.664,-5.575 8.368,19.955 c 0.224,0.534 0.69,0.982 1.201,1.153 l 13.737,4.596 c 0.746,0.25 1.47,0.742 2.058,1.397 l 18.595,20.751 -39.111,-13.087 v 9.96 L 30.662,-1.68 v -6.967 l -10.372,-3.47 c -1.572,-0.526 -3.094,-1.589 -4.298,-3.002 l -26.364,-30.944 0.665,-1.141 c 0.336,-0.577 1.036,-0.78 1.803,-0.523"
       style="fill:#000000;fill-opacity:1;fill-rule:nonzero;stroke:none"
       transform="matrix(1.3333333,0,0,-1.3333333,408.1044,261.7028)"
       clip-path="url(#clipPath6)" />
    <path
       id="path7"
       d="m 0,0 c 0,-0.831 -0.673,-1.729 -1.504,-2.007 l -5.765,-1.929 v 5.892 c 0,0.83 0.673,1.729 1.504,2.007 L 0,5.892 Z m 3.42,-27.177 v 5.764 l 8.043,2.691 v 8.153 L 3.42,-13.26 v 5.797 l 7.332,2.454 V 16.593 L -18.022,6.965 v -21.602 l 11.21,3.751 v -21.703 l -3.146,-1.664 v 17.843 l -8.064,-2.698 v -19.411 l -2.892,-1.53 v -10.104 l 32.422,17.15 v 10.104 z M 66.79,17.574 V 11.996 L 12.742,-6.088 V -0.51 L 31.419,5.739 V 8.465 L 15.584,3.167 v 3.416 l 15.835,5.298 v 2.82 L 15.584,9.403 v 7.218 l 15.835,5.298 v 3.75 l 16.859,5.641 v -3.75 l 15.671,5.243 V 25.586 L 48.278,20.342 v -2.82 l 15.671,5.243 V 19.35 L 48.278,14.106 V 11.38 Z m -38.209,-35.433 21.97,7.351 v -1.183 c 0,-0.739 -0.599,-1.538 -1.337,-1.785 l -20.633,-6.903 z m 0,4.693 21.97,7.351 v -2.52 l -21.97,-7.351 z m 0,3.437 c 0,0.739 0.599,1.538 1.337,1.785 l 20.633,6.903 v -2.52 l -21.97,-7.351 z m 26.854,-5.801 7.634,2.555 V 8.132 L 16.362,-7.496 v -21.107 l 10.436,3.492 c -0.538,-1.686 -1.956,-3.517 -5.349,-4.653 l -8.707,-2.913 v -6.215 l 16.145,5.402 c 4.067,1.361 9.235,4.454 11.977,11.856 3.17,-1.104 6.138,-2.763 8.39,-5.041 l 17.27,5.778 c -1.832,1.803 -5.697,3.735 -11.089,5.367"
       style="fill:#000000;fill-opacity:1;fill-rule:nonzero;stroke:none"
       transform="matrix(1.3333333,0,0,-1.3333333,223.54853,339.3036)"
       clip-path="url(#clipPath8)" />
    <path
       id="path9"
       d="m 0,0 -18.53,-6.2 c -0.739,-0.247 -1.337,-1.046 -1.337,-1.785 v -2.817 l 18.53,6.2 C -0.599,-4.355 0,-3.556 0,-2.818 Z M 12.101,7.54 V -4.54 l -44.122,-14.763 v 12.08 z m 28.318,32.852 v 8.785 l -32.785,-10.97 2.352,4.945 -20.003,-6.693 -2.352,-4.944 -22.743,-7.61 V 15.12 l 17.773,5.947 -1.838,-3.864 c -0.237,-0.499 -0.682,-0.907 -1.163,-1.068 L -35.112,11.192 V 5.688 l 31.659,10.593 c 0.482,0.161 0.927,0.569 1.164,1.068 l 4.953,10.411 1.985,0.664 4.953,-7.097 c 0.237,-0.339 0.682,-0.45 1.164,-0.289 l 29.653,9.922 v 5.505 L 27.654,32.194 c -0.482,-0.162 -0.927,-0.051 -1.164,0.289 l -1.838,2.634 z M 46.506,22.457 36.1,18.975 V 2.602 c 0,-4.984 -4.041,-10.377 -9.025,-12.044 L -4.136,-19.886 v 7.077 l 16.817,5.627 c 2.4,0.803 4.345,3.4 4.345,5.799 V 12.593 L -41.27,-6.912 v 6.816 l 87.776,29.369 z"
       style="fill:#000000;fill-opacity:1;fill-rule:nonzero;stroke:none"
       transform="matrix(1.3333333,0,0,-1.3333333,108.19413,410.77253)"
       clip-path="url(#clipPath10)" />
    <path
       id="path11"
       d="M 0,0 C 4.942,6.043 13.751,19.462 13.399,35.783 L 2.894,32.572 c 0,-9.381 -2.21,-17.1 -4.579,-19.842 v 21.52 l 15.381,4.703 v 9.678 L -1.685,43.929 v 7.683 L -15.496,47.39 v -3.716 l 1.18,0.361 c 0.847,0.258 1.289,-0.11 1.289,-1.082 v -2.492 l -23.106,-7.064 v -9.679 l 23.106,7.065 V 0.186 c 0,-0.501 0.146,-2.07 0.691,-3.516 -1.07,-1.223 -3.275,-3.135 -7.219,-4.341 l -9.844,-3.009 v -5.873 l 9.413,2.878 c 6.215,1.9 9.818,4.007 12.178,5.958 2.277,-1.066 5.768,-1.298 11.14,0.564 10.607,3.677 12.58,11.828 11.988,19.212 L 6.22,9.276 C 7.714,-3.685 0,0 0,0 m 13.696,50.515 v 5.799 L 5.583,53.834 V 48.035 Z M -17.003,3.82 -36.133,-2.028 V -12.13 l 3.815,1.166 v 1.021 c 0,0.809 0.485,1.436 1.392,1.713 l 13.923,4.257 z m -9.727,6.672 -2.684,-0.82 v 3.057 c 0,1.661 1.347,3.42 3.008,3.928 l 2.684,0.82 V 14.42 c 0,-1.661 -1.347,-3.42 -3.008,-3.928 m 9.727,15.372 -19.13,-5.849 V 1.285 l 19.13,5.849 z M 17.156,0.133 c 0,-3.476 -1.891,-5.795 -4.499,-6.577 l -52.435,-16.031 v 60.012 c -0.001,3.246 1.68,5.724 4.499,6.577 L 17.156,60.145 Z M -60.913,47.755 V -40.387 L 38.3,-10.054 v 88.142 z"
       style="fill:#000000;fill-opacity:1;fill-rule:nonzero;stroke:none"
       transform="matrix(1.3333333,0,0,-1.3333333,574.1108,108.3772)"
       clip-path="url(#clipPath12)" />
    <path
       id="path13"
       d="m 0,0 v 15.393 l -99.561,-30.439 v -15.393 l 36.26,11.086 v -13.36 l -36.26,-11.086 v -15.43 l 36.26,11.086 -10e-4,-8.848 c 0,-11.218 -7.093,-21.693 -16.932,-24.701 l -19.327,-5.909 v -15.465 l 27.098,8.285 c 12.535,3.832 24.5,12.303 32.204,30.787 4.227,-1.698 15.71,-9.334 20.367,-14.714 l 26.175,8.002 c -7.832,8.707 -35.679,19.309 -43.143,20.794 v 9.852 L 0,-28.79 v 15.43 l -36.86,-11.269 v 13.36 z"
       style="fill:#000000;fill-opacity:1;fill-rule:nonzero;stroke:none"
       transform="matrix(1.3333333,0,0,-1.3333333,459.01227,20.523733)"
       clip-path="url(#clipPath14)" />
    <path
       id="path15"
       d="m 0,0 1.759,5.37 23.821,7.283 1.759,-4.295 z m 31.887,-2.748 c 0.385,-0.938 1.389,-1.34 2.513,-0.997 L 66.597,6.099 V 19.454 L 51.032,14.695 c -1.125,-0.344 -2.129,0.052 -2.513,0.991 l -1.449,3.537 16.311,4.987 v 5.966 L 3.93,12 5.693,17.382 60.344,34.09 v 5.906 L 7.842,23.944 9.283,28.343 60.344,43.954 V 57.607 L 14.252,43.516 16.683,50.937 -4.807,44.367 -7.238,36.946 -32.735,29.15 V 15.497 l 20.528,6.276 -1.441,-4.399 -19.087,-5.835 V 5.633 l 16.938,5.178 -1.763,-5.381 -18.212,-5.568 v -5.966 l 16.041,4.904 -1.449,-4.423 c -0.384,-1.174 -1.388,-2.184 -2.513,-2.528 l -15.69,-4.796 v -13.355 l 32.32,9.881 c 1.124,0.344 2.128,1.354 2.513,2.528 l 1.003,3.063 6.442,1.969 V -17.4 l -38.667,-11.821 v -6.001 l 35.309,10.795 c 0,0 -1.616,-4.495 -9.939,-7.04 l -25.37,-7.756 v -14.018 l 31.17,9.53 c 10.782,3.296 17.781,6.658 26.262,21.033 5.338,-1.344 9.756,-3.743 14.363,-8.613 l 30.574,9.347 c -4.722,5.629 -18.029,8.478 -29.665,8.949 l 26.449,8.087 V 1.093 L 24.559,-10.776 v 8.539 l 6.327,1.934 z"
       style="fill:#000000;fill-opacity:1;fill-rule:nonzero;stroke:none"
       transform="matrix(1.3333333,0,0,-1.3333333,212.29147,191.74933)"
       clip-path="url(#clipPath16)" />
    <path
       id="path17"
       d="m 0,0 -10.63,-3.25 c -1.732,-0.529 -3.136,-2.363 -3.136,-4.095 V -8.948 L 0,-4.739 Z m 0,-9.787 -13.766,-4.208 v -4.59 l 10.629,3.25 c 1.733,0.53 3.137,2.363 3.137,4.096 z m -2.904,-20.83 c -0.995,1.824 -2.059,3.304 -2.556,3.969 -0.243,0.326 -0.675,0.438 -1.143,0.294 l -6.202,-1.895 v -6.963 z M 20.38,-43.151 V 16.164 L 70.152,31.381 V 20.573 l -3.285,-1.004 c -2.616,-0.8 -3.348,-1.718 -3.348,-4.303 V -4.923 c 0,-13.07 -6.935,-21.75 -15.558,-24.386 l -7.73,-2.363 v 11.46 c 4.654,0 6.701,5.153 6.701,10.748 V 13.474 L 38.826,10.996 C 37.718,10.657 36.82,9.485 36.82,8.377 l 10e-4,-46.501 z M 1.672,-48.202 c 0,3.437 -0.85,6.03 -0.85,6.03 l -24.139,-10.274 c -2.361,-1.005 -4.465,0.225 -4.465,2.62 v 37.433 c 0,2.111 -1.183,2.663 -4.125,1.764 l -2.458,-0.752 V -0.573 L 15.282,14.606 V -19.736 L 6.863,-22.31 c 6.078,-6.077 11.699,-16.344 13.001,-20.998 L 1.672,-48.87 Z m 55.27,86.249 13.21,4.039 V 55.691 L 46.921,48.589 c 0.132,1.499 0.201,3.054 0.201,4.665 L 27.76,47.335 c 0,-12.115 -2.404,-18.659 -9.59,-21.279 v -7.673 l 10.985,3.358 c 4.678,1.43 8.815,4.515 12.061,9.527 1.642,-0.968 3.81,-3.334 4.524,-4.457 l 22.518,6.885 c -3.651,3.652 -11.316,4.351 -11.316,4.351 M 15.46,17.554 -4.768,11.37 c -0.553,1.191 -2.027,2.942 -4.527,4.887 -3.893,-5.818 -8.451,-8.855 -12.269,-10.022 L -36.198,1.761 v 8.579 l 4.496,1.375 c 5.046,1.542 8.053,6.128 8.312,19.982 l 19.28,5.894 c 0,-1.611 -0.068,-3.165 -0.196,-4.664 l 22.341,6.83 V 26.152 L 4.459,22.002 c 0,0 7.428,-0.874 11.001,-4.448"
       style="fill:#000000;fill-opacity:1;fill-rule:nonzero;stroke:none"
       transform="matrix(1.3333333,0,0,-1.3333333,48.2644,177.098)"
       clip-path="url(#clipPath18)" />
    <path
       id="path19"
       d="M 0,0 V 10.072 L -2.053,-0.747 -4.277,-1.557 -6.282,7.786 V -2.286 L -8.384,-3.051 V 9.006 l 3.284,1.195 1.98,-8.843 0.025,0.009 1.931,10.267 3.242,1.18 V 0.756 Z m -15.178,-5.524 v 9.919 l -3.381,-1.231 v 2.132 l 8.944,3.255 V 6.42 l -3.259,-1.187 v -9.919 z"
       style="fill:#000000;fill-opacity:1;fill-rule:nonzero;stroke:none"
       transform="matrix(1.3333333,0,0,-1.3333333,657.6996,112.03973)"
       clip-path="url(#clipPath20)" />
  </g>
</svg>
