<?xml version="1.0" encoding="UTF-8" standalone="no"?>
<!-- Created with Inkscape (http://www.inkscape.org/) -->

<svg
   version="1.1"
   id="svg1"
   width="666.66669"
   height="437.28668"
   viewBox="0 0 666.66669 437.28668"
   sodipodi:docname="Jiézòu Tiānguó Qíjì Zhī Xīng (节奏天国 奇迹之星) Logo (Wordmark).ai"
   xmlns:inkscape="http://www.inkscape.org/namespaces/inkscape"
   xmlns:sodipodi="http://sodipodi.sourceforge.net/DTD/sodipodi-0.dtd"
   xmlns="http://www.w3.org/2000/svg"
   xmlns:svg="http://www.w3.org/2000/svg">
  <defs
     id="defs1">
    <clipPath
       clipPathUnits="userSpaceOnUse"
       id="clipPath4">
      <path
         d="M 0,327.965 H 500 V 0 H 0 Z"
         transform="translate(-388.12411,-147.1695)"
         id="path4" />
    </clipPath>
    <clipPath
       clipPathUnits="userSpaceOnUse"
       id="clipPath6">
      <path
         d="M 0,327.965 H 500 V 0 H 0 Z"
         transform="translate(-306.07841,-131.6879)"
         id="path6" />
    </clipPath>
    <clipPath
       clipPathUnits="userSpaceOnUse"
       id="clipPath8">
      <path
         d="M 0,327.965 H 500 V 0 H 0 Z"
         transform="translate(-179.64021,-70.786702)"
         id="path8" />
    </clipPath>
    <clipPath
       clipPathUnits="userSpaceOnUse"
       id="clipPath10">
      <path
         d="M 0,327.965 H 500 V 0 H 0 Z"
         transform="translate(-81.1456,-19.885603)"
         id="path10" />
    </clipPath>
    <clipPath
       clipPathUnits="userSpaceOnUse"
       id="clipPath12">
      <path
         d="M 0,327.965 H 500 V 0 H 0 Z"
         transform="translate(-447.73911,-306.82711)"
         id="path12" />
    </clipPath>
    <clipPath
       clipPathUnits="userSpaceOnUse"
       id="clipPath14">
      <path
         d="M 0,327.965 H 500 V 0 H 0 Z"
         transform="translate(-344.25921,-312.57221)"
         id="path14" />
    </clipPath>
    <clipPath
       clipPathUnits="userSpaceOnUse"
       id="clipPath16">
      <path
         d="M 0,327.965 H 500 V 0 H 0 Z"
         transform="translate(-159.2187,-184.15301)"
         id="path16" />
    </clipPath>
    <clipPath
       clipPathUnits="userSpaceOnUse"
       id="clipPath18">
      <path
         d="M 0,327.965 H 500 V 0 H 0 Z"
         transform="translate(-106.3506,-248.1093)"
         id="path18" />
    </clipPath>
    <clipPath
       clipPathUnits="userSpaceOnUse"
       id="clipPath20">
      <path
         d="M 0,327.965 H 500 V 0 H 0 Z"
         transform="translate(-493.27471,-243.93521)"
         id="path20" />
    </clipPath>
  </defs>
  <sodipodi:namedview
     id="namedview1"
     pagecolor="#ffffff"
     bordercolor="#000000"
     borderopacity="0.25"
     inkscape:showpageshadow="2"
     inkscape:pageopacity="0.0"
     inkscape:pagecheckerboard="0"
     inkscape:deskcolor="#d1d1d1">
    <inkscape:page
       x="0"
       y="0"
       inkscape:label="1"
       id="page1"
       width="666.66669"
       height="437.28668"
       margin="0"
       bleed="0" />
  </sodipodi:namedview>
  <g
     id="layer-MC0"
     inkscape:groupmode="layer"
     inkscape:label="Layer 1">
    <path
       id="path1"
       d="m 0,0 -6.574,-3.341 6.62,-3.035 1.081,-7.09 5.125,5.252 7.23,-1.058 -3.455,6.291 L 13.416,3.45 6.192,2.095 1.034,7.124 Z"
       style="fill:#000000;fill-opacity:1;fill-rule:nonzero;stroke:none"
       transform="matrix(1.3333333,0,0,-1.3333333,648.6912,199.09027)" />
    <path
       id="path2"
       d="m 0,0 -10.958,-2.054 -7.823,7.627 -1.567,-10.806 -9.971,-5.066 10.04,-4.605 1.639,-10.752 7.774,7.965 10.965,-1.604 -5.24,9.542 z"
       style="fill:#000000;fill-opacity:1;fill-rule:nonzero;stroke:none"
       transform="matrix(1.3333333,0,0,-1.3333333,652.30933,227.14307)" />
    <path
       id="path3"
       d="M 0,0 34.275,11.468 V 8.92 c 0,-1.108 -0.898,-2.306 -2.006,-2.677 L 0,-4.554 Z M 0,6.142 C 0,7.25 0.898,8.448 2.006,8.819 L 34.275,19.616 V 15.061 L 0,3.593 Z m 28.227,-30.833 v 4.286 l 26.855,8.986 v 4.039 l -26.855,-8.986 v 4.168 l 26.855,8.985 V 2.511 L 28.227,-6.474 v 5.327 L 55.542,7.992 V 33.824 L -21.129,8.17 v -25.831 l 26.721,8.94 v -5.327 l -11.498,-3.847 0.902,2.328 -16.075,-5.378 -3.098,-7.994 c -0.214,-0.554 -0.693,-1.025 -1.221,-1.202 l -2.937,-0.983 v -8.206 l 15.358,5.139 c 0.529,0.176 1.007,0.647 1.222,1.202 l 3.3,8.517 14.047,4.7 v -4.168 l -10.331,-3.456 -1.798,-4.641 12.129,4.059 v -4.287 l -30.868,-10.328 v -8.936 l 84.978,28.433 v 8.936 z"
       style="fill:#000000;fill-opacity:1;fill-rule:nonzero;stroke:none"
       transform="matrix(1.3333333,0,0,-1.3333333,517.4988,241.06067)"
       clip-path="url(#clipPath4)" />
    <path
       id="path5"
       d="M 0,0 V 3.269 L -32.557,-7.624 v -7.113 l 12.968,4.339 c 0.738,0.247 1.337,-0.152 1.337,-0.89 v -2.173 L 14.305,-2.567 V 3.449 L 1.337,-0.89 C 0.599,-1.137 0,-0.738 0,0 m -7.904,-47.727 42.636,14.266 v -9.96 l -55.696,-18.636 c -0.511,-0.171 -0.977,-0.035 -1.201,0.349 l -2.974,5.103 c -0.337,0.577 -1.036,0.78 -1.803,0.523 l -3.271,-1.094 c -0.766,-0.257 -1.466,-0.928 -1.802,-1.73 l -2.974,-7.093 c -0.224,-0.534 -0.691,-0.982 -1.202,-1.153 l -16.664,-5.575 8.368,19.955 c 0.224,0.534 0.69,0.982 1.201,1.153 l 13.737,4.596 c 0.746,0.25 1.47,0.742 2.058,1.397 l 16.897,18.856 c 0.556,0.62 0.249,1.41 -0.457,1.174 l -36.956,-12.366 v 9.96 L 30.662,-1.68 V -8.647 L 20.29,-12.118 c -1.572,-0.525 -3.094,-1.588 -4.298,-3.001 l -26.364,-30.944 0.665,-1.141 c 0.336,-0.577 1.036,-0.78 1.803,-0.523"
       style="fill:#000000;fill-opacity:1;fill-rule:nonzero;stroke:none"
       transform="matrix(1.3333333,0,0,-1.3333333,408.10453,261.7028)"
       clip-path="url(#clipPath6)" />
    <path
       id="path7"
       d="m 0,0 v -8.292 c 0,-2.889 -1.058,-5.157 -3.866,-6.096 v -4.149 l 3.846,1.287 c 3.97,1.328 10.388,5.994 10.388,12.963 V 3.469 Z M 54.695,31.786 37.607,26.069 v 8.43 L 14.872,26.892 v -4.251 l 4.525,1.514 c 0.738,0.247 1.337,-0.152 1.337,-0.89 V 20.423 L -1.653,12.933 V 3.625 l 15.57,5.21 V -5.098 c 0,-6.088 -2.631,-8.461 -5.966,-9.577 v -4.263 l 5.946,1.99 c 4.917,1.645 10.388,7.637 10.388,14.605 v 14.647 l 3.79,1.268 V -6.417 c 0,-3.862 -3.46,-5.471 -6.795,-6.587 v -5.747 l 6.774,2.267 c 4.918,1.645 10.388,5.411 10.388,12.379 v 21.146 l 16.253,5.438 z M 41.836,13.998 V -4.669 l 9.928,3.322 V 17.32 Z M -30.286,8.977 V 2.081 l 6.542,2.189 c 0.739,0.247 1.337,-0.151 1.337,-0.89 V 0.009 l 16.34,5.467 V 17.08 Z m 29.379,-36.774 55.602,18.604 v -8.953 L -9.911,-39.763 c -0.521,-0.174 -0.994,-0.03 -1.213,0.37 l -2.857,5.218 c -0.219,0.4 -0.692,0.544 -1.213,0.37 l -0.579,-0.194 c -0.614,-0.205 -1.149,-0.802 -1.297,-1.448 l -1.421,-6.173 c -0.149,-0.646 -0.684,-1.242 -1.297,-1.448 l -13.105,-4.385 4.212,18.303 c 0.149,0.645 0.684,1.242 1.298,1.447 l 6.268,2.098 v 13.325 l -8.948,-2.994 v 9.263 l 23.996,8.029 v -23.159 l 3.34,-6.102 c 0.328,-0.599 1.039,-0.815 1.82,-0.554"
       style="fill:#000000;fill-opacity:1;fill-rule:nonzero;stroke:none"
       transform="matrix(1.3333333,0,0,-1.3333333,239.52027,342.9044)"
       clip-path="url(#clipPath8)" />
    <path
       id="path9"
       d="m 0,0 -18.53,-6.2 c -0.739,-0.247 -1.337,-1.046 -1.337,-1.785 v -2.817 l 18.53,6.2 C -0.599,-4.355 0,-3.556 0,-2.818 Z M 12.101,7.54 V -4.54 l -44.122,-14.763 v 12.08 z m 28.318,32.852 v 8.785 l -32.785,-10.97 2.352,4.945 -20.003,-6.693 -2.352,-4.944 -22.743,-7.61 V 15.12 l 17.773,5.947 -1.838,-3.864 c -0.237,-0.499 -0.682,-0.907 -1.163,-1.068 L -35.112,11.192 V 5.688 l 31.659,10.593 c 0.482,0.161 0.927,0.569 1.164,1.068 l 4.953,10.411 1.985,0.664 4.953,-7.097 c 0.237,-0.339 0.682,-0.45 1.164,-0.289 l 29.653,9.922 v 5.505 L 27.654,32.194 c -0.482,-0.162 -0.927,-0.051 -1.164,0.289 l -1.838,2.634 z M 46.506,22.457 36.1,18.975 V 2.602 c 0,-4.984 -4.041,-10.377 -9.025,-12.044 L -4.136,-19.886 v 7.077 l 16.817,5.627 c 2.4,0.803 4.345,3.4 4.345,5.799 V 12.593 L -41.27,-6.912 v 6.816 l 87.776,29.369 z"
       style="fill:#000000;fill-opacity:1;fill-rule:nonzero;stroke:none"
       transform="matrix(1.3333333,0,0,-1.3333333,108.19413,410.77253)"
       clip-path="url(#clipPath10)" />
    <path
       id="path11"
       d="m 0,0 -52.435,-16.031 c -2.819,-0.853 -4.5,-3.331 -4.499,-6.577 V -82.62 l 52.435,16.031 C -1.891,-65.807 0,-63.488 0,-60.012 Z m 21.144,17.943 v -88.142 l -99.213,-30.333 v 88.142 z m -36.932,-71.13 5.954,1.821 v 8.433 l -5.954,-1.821 z m -31.303,27.49 v 6.914 l 37.257,11.391 v -6.915 l -6.504,-1.988 c -2.78,-0.85 -4.351,-2.928 -4.351,-6.533 v -11.359 l 10.855,3.319 v -7.422 l -10.855,-3.319 v -13.945 c 0,-2.195 1.68,-3.261 5.063,-2.227 l 5.792,1.771 v -6.869 l -37.257,-11.39 v 6.869 l 6.577,2.01 c 2.687,0.822 4.279,2.969 4.279,6.526 v 12.502 l -10.856,-3.319 v 7.422 l 10.856,3.319 v 12.802 c 0,1.486 -0.891,3.487 -4.991,2.234 z"
       style="fill:#000000;fill-opacity:1;fill-rule:nonzero;stroke:none"
       transform="matrix(1.3333333,0,0,-1.3333333,596.98547,28.183867)"
       clip-path="url(#clipPath12)" />
    <path
       id="path13"
       d="m 0,0 v 15.393 l -99.561,-30.439 v -15.393 l 36.26,11.086 v -13.36 l -36.26,-11.086 v -15.43 l 36.26,11.086 -10e-4,-8.848 c 0,-11.218 -7.093,-21.693 -16.932,-24.701 l -19.327,-5.909 v -15.465 l 27.098,8.285 c 12.535,3.832 24.5,12.303 32.204,30.787 4.227,-1.698 15.71,-9.334 20.367,-14.714 l 26.175,8.002 c -7.832,8.707 -35.679,19.309 -43.143,20.794 v 9.852 L 0,-28.79 v 15.43 l -36.86,-11.269 v 13.36 z"
       style="fill:#000000;fill-opacity:1;fill-rule:nonzero;stroke:none"
       transform="matrix(1.3333333,0,0,-1.3333333,459.01227,20.523733)"
       clip-path="url(#clipPath14)" />
    <path
       id="path15"
       d="m 0,0 1.759,5.37 23.821,7.283 1.759,-4.295 z m 31.887,-2.748 c 0.385,-0.938 1.389,-1.34 2.513,-0.997 L 66.597,6.099 V 19.454 L 51.032,14.695 c -1.125,-0.344 -2.129,0.052 -2.513,0.991 l -1.449,3.537 16.311,4.987 v 5.966 L 3.93,12 5.693,17.382 60.344,34.09 v 5.906 L 7.842,23.944 9.283,28.343 60.344,43.954 V 57.607 L 14.252,43.516 16.683,50.937 -4.807,44.367 -7.238,36.946 -32.735,29.15 V 15.497 l 20.528,6.276 -1.441,-4.399 -19.087,-5.835 V 5.633 l 16.938,5.178 -1.763,-5.381 -18.212,-5.568 v -5.966 l 16.041,4.904 -1.449,-4.423 c -0.384,-1.174 -1.388,-2.184 -2.513,-2.528 l -15.69,-4.796 v -13.355 l 32.32,9.881 c 1.124,0.344 2.128,1.354 2.513,2.528 l 1.003,3.063 6.441,1.969 10e-4,-8.539 -38.667,-11.821 v -6.001 l 35.309,10.795 c 0,0 -1.616,-4.495 -9.939,-7.04 l -25.37,-7.756 v -14.018 l 31.17,9.53 c 10.782,3.296 17.781,6.658 26.262,21.033 5.338,-1.344 9.756,-3.743 14.363,-8.613 l 30.574,9.347 c -4.722,5.629 -18.029,8.478 -29.665,8.949 l 26.449,8.087 V 1.093 L 24.559,-10.776 v 8.539 l 6.327,1.934 z"
       style="fill:#000000;fill-opacity:1;fill-rule:nonzero;stroke:none"
       transform="matrix(1.3333333,0,0,-1.3333333,212.2916,191.74933)"
       clip-path="url(#clipPath16)" />
    <path
       id="path17"
       d="m 0,0 -21.077,-6.444 v 7.328 l -21.466,-6.563 v -7.328 l -20.939,-6.401 v 7.336 l -21.466,-6.562 v -7.337 l -21.403,-6.544 v -15.392 l 21.403,6.543 V -48.7 l 21.466,6.562 v 7.337 l 20.939,6.402 v -7.346 l 21.466,6.563 v 7.345 L 0,-15.393 Z m -2.968,-27.163 v -15.785 l -3.972,-1.214 c -1.639,-0.501 -2.968,-2.236 -2.968,-3.875 v -8.742 c 0,-13.069 -7.371,-21.603 -15.993,-24.239 l -14.408,-4.405 v 11.979 l 5.318,1.626 c 2.254,0.689 4.081,3.075 4.081,5.329 v 14.999 l -19.733,-6.033 v -38.862 l -26.584,-8.127 0.001,38.861 -22.456,-6.865 v 15.785 z"
       style="fill:#000000;fill-opacity:1;fill-rule:nonzero;stroke:none"
       transform="matrix(1.3333333,0,0,-1.3333333,141.8008,106.47427)"
       clip-path="url(#clipPath18)" />
    <path
       id="path19"
       d="M 0,0 V 10.072 L -2.053,-0.747 -4.277,-1.557 -6.282,7.786 V -2.286 L -8.384,-3.051 V 9.006 l 3.284,1.195 1.98,-8.843 0.025,0.009 1.931,10.267 3.242,1.18 V 0.756 Z m -15.178,-5.524 v 9.919 l -3.381,-1.231 v 2.132 l 8.944,3.255 V 6.42 l -3.259,-1.187 v -9.919 z"
       style="fill:#000000;fill-opacity:1;fill-rule:nonzero;stroke:none"
       transform="matrix(1.3333333,0,0,-1.3333333,657.6996,112.03973)"
       clip-path="url(#clipPath20)" />
  </g>
</svg>
