<?xml version="1.0" encoding="UTF-8" standalone="no"?>
<!-- Created with Inkscape (http://www.inkscape.org/) -->

<svg
   version="1.1"
   id="svg2"
   width="666.66669"
   height="500.68399"
   viewBox="0 0 666.66669 500.68399"
   sodipodi:docname="Jiézòu Tiānguó Qíjī Zhī Xīng (節奏天國 奇蹟之星) Logo (Print).ai"
   xmlns:inkscape="http://www.inkscape.org/namespaces/inkscape"
   xmlns:sodipodi="http://sodipodi.sourceforge.net/DTD/sodipodi-0.dtd"
   xmlns="http://www.w3.org/2000/svg"
   xmlns:svg="http://www.w3.org/2000/svg">
  <defs
     id="defs6">
    <clipPath
       clipPathUnits="userSpaceOnUse"
       id="clipPath16">
      <path
         d="M 0,375.513 H 500 V 0 H 0 Z"
         id="path14" />
    </clipPath>
  </defs>
  <sodipodi:namedview
     id="namedview4"
     pagecolor="#ffffff"
     bordercolor="#000000"
     borderopacity="0.25"
     inkscape:showpageshadow="2"
     inkscape:pageopacity="0.0"
     inkscape:pagecheckerboard="0"
     inkscape:deskcolor="#d1d1d1" />
  <g
     id="g8"
     inkscape:groupmode="layer"
     inkscape:label="Jiézòu Tiānguó Qíjī Zhī Xīng (節奏天國 奇蹟之星) Logo (Print)"
     transform="matrix(1.3333333,0,0,-1.3333333,0,500.684)">
    <g
       id="g10">
      <g
         id="g12"
         clip-path="url(#clipPath16)">
        <g
           id="g18"
           transform="translate(481.1146,281.863)">
          <path
             d="m 0,0 c 0,47.91 -38.979,86.888 -86.889,86.887 -15.549,0 -30.155,-4.11 -42.796,-11.294 -14.662,11.315 -33.025,18.057 -52.936,18.057 -40.502,0 -74.612,-27.881 -84.152,-65.459 -5.295,1.005 -10.754,1.538 -16.337,1.538 -11.905,0 -23.26,-2.396 -33.613,-6.726 -15.336,10.662 -33.951,16.923 -54.003,16.923 -52.296,-0.001 -94.841,-42.546 -94.84,-94.842 0,-41.705 27.059,-77.208 64.543,-89.876 15.799,-21.822 41.475,-36.046 70.415,-36.046 24.788,0 47.183,10.435 63.027,27.141 8.833,-3.033 18.304,-4.683 28.153,-4.683 24.744,0 47.106,10.398 62.946,27.053 8.377,-2.696 17.303,-4.159 26.566,-4.159 34.731,10e-4 64.764,20.487 78.66,50.009 C -30.78,-78.093 0,-42.575 0,0"
             style="fill:#000000;fill-opacity:1;fill-rule:nonzero;stroke:none"
             id="path20" />
        </g>
        <g
           id="g22"
           transform="translate(470.7093,281.863)">
          <path
             d="m 0,0 c -0.001,42.172 -34.311,76.482 -76.482,76.481 -16.236,0 -31.302,-5.088 -43.698,-13.749 -13.652,12.718 -31.949,20.513 -52.036,20.513 -39.267,-0.001 -71.706,-29.778 -75.935,-67.936 -7.715,2.602 -15.972,4.014 -24.554,4.014 -12.543,0 -24.393,-3.016 -34.868,-8.359 -14.462,11.603 -32.807,18.556 -52.748,18.556 -46.557,0 -84.435,-37.878 -84.434,-84.436 0,-38.303 25.64,-70.726 60.657,-81.02 13.69,-20.765 37.218,-34.497 63.895,-34.497 24.296,0 45.981,11.39 60,29.108 9.528,-4.27 20.081,-6.65 31.18,-6.65 24.197,0.001 45.801,11.298 59.826,28.892 9.133,-3.861 19.165,-5.997 29.686,-5.997 32.511,0 60.345,20.393 71.394,49.057 C -29.866,-71.843 0,-39.346 0,0"
             style="fill:#ffffff;fill-opacity:1;fill-rule:nonzero;stroke:none"
             id="path24" />
        </g>
        <g
           id="g26"
           transform="translate(463.722,281.863)">
          <path
             d="m 0,0 c 0,38.381 -31.114,69.495 -69.495,69.495 -16.857,0 -32.31,-6.003 -44.342,-15.985 -12.7,13.974 -31.02,22.748 -51.392,22.748 -38.339,0 -69.42,-31.081 -69.42,-69.422 0,-0.591 0.008,-1.181 0.023,-1.77 -9.368,4.651 -19.923,7.27 -31.091,7.27 -13.042,0 -25.248,-3.569 -35.702,-9.779 -13.736,12.415 -31.942,19.977 -51.914,19.977 -42.774,-10e-4 -77.449,-34.676 -77.448,-77.45 0,-36.09 24.686,-66.415 58.094,-75.009 12.182,-20.094 34.258,-33.522 59.472,-33.521 24.127,0 45.38,12.298 57.84,30.965 9.897,-5.422 21.258,-8.507 33.339,-8.507 23.985,0 45.132,12.151 57.621,30.632 9.552,-4.943 20.394,-7.737 31.892,-7.737 31.127,0 57.474,20.467 66.321,48.677 C -29.351,-67.697 0,-37.277 0,0"
             style="fill:#000000;fill-opacity:1;fill-rule:nonzero;stroke:none"
             id="path28" />
        </g>
        <g
           id="g30"
           transform="translate(498.8275,263.4104)">
          <path
             d="m 0,0 -335.446,-119.825 6.535,16.428 c 0.268,0.672 -0.352,1.361 -1.05,1.165 l -61.412,-17.303 -49.111,40.813 c -0.558,0.464 -1.405,0.086 -1.433,-0.637 l -2.528,-63.781 -53.974,-34.078 c -0.613,-0.386 -0.517,-1.307 0.163,-1.559 l 59.877,-22.147 15.731,-61.827 c 0.178,-0.702 1.085,-0.895 1.534,-0.326 l 39.534,50.11 63.722,-4.16 c 0.724,-0.048 1.187,0.755 0.785,1.357 l -15.093,22.618 313.296,90.668 c 0.698,0.202 0.859,1.119 0.271,1.546 l -12.513,9.121 24.027,30.478 c 0.366,0.464 0.176,1.15 -0.376,1.359 L -27.486,-52.381 1.059,-1.25 C 1.452,-0.544 0.761,0.272 0,0"
             style="fill:#000000;fill-opacity:1;fill-rule:nonzero;stroke:none"
             id="path32" />
        </g>
        <g
           id="g34"
           transform="translate(453.6517,209.6145)">
          <path
             d="m 0,0 2.741,5.2 -5.842,-1.096 -4.17,4.067 -0.836,-5.761 -5.316,-2.701 5.353,-2.455 0.874,-5.733 4.144,4.247 5.846,-0.855 z"
             style="fill:#ffffff;fill-opacity:1;fill-rule:nonzero;stroke:none"
             id="path36" />
        </g>
        <g
           id="g38"
           transform="translate(447.9466,195.8684)">
          <path
             d="m 0,0 -8.676,-1.626 -6.193,6.038 -1.241,-8.555 -7.894,-4.011 7.948,-3.646 1.298,-8.512 6.154,6.306 8.682,-1.27 -4.149,7.554 z"
             style="fill:#ffffff;fill-opacity:1;fill-rule:nonzero;stroke:none"
             id="path40" />
        </g>
        <g
           id="g42"
           transform="translate(369.1605,184.2668)">
          <path
             d="m 0,0 v 3.186 l 26.479,8.859 v -1.996 c 0,-0.657 -0.533,-1.367 -1.189,-1.587 z m 0,8.102 c 0,0.656 0.533,1.367 1.189,1.586 l 25.29,8.462 V 14.967 L 0,6.107 Z M 22.187,-15.6 v 2.921 l 20.57,6.883 v 3.509 L 22.187,-9.17 v 2.818 l 20.57,6.883 V 5.443 L 22.187,-1.44 V 2.285 L 43.13,9.293 V 29.552 L -16.311,9.663 v -20.259 l 20.864,6.981 v -3.726 l -8.404,-2.811 0.753,1.865 -13.119,-4.39 -2.61,-6.469 c -0.195,-0.485 -0.615,-0.893 -1.077,-1.047 l -1.892,-0.633 v -6.57 l 11.452,3.833 c 0.751,0.251 1.423,0.842 1.68,1.479 l 2.523,6.254 10.694,3.578 v -2.818 l -8.169,-2.734 -1.637,-4.056 9.806,3.281 V -21.5 l -24.231,-8.107 v -7.201 l 65.891,22.047 v 7.2 z"
             style="fill:#ffffff;fill-opacity:1;fill-rule:nonzero;stroke:none"
             id="path44" />
        </g>
        <g
           id="g46"
           transform="translate(298.7239,138.4436)">
          <path
             d="M 0,0 -0.975,1.547 19.678,25.56 c 0.747,0.868 1.685,1.52 2.655,1.844 l 8.507,2.847 v 5.77 L -30.21,15.593 V 7.707 L -0.375,17.63 -13.869,2.344 C -14.562,1.56 -15.448,0.972 -16.439,0.64 l -10.337,-3.458 c -0.455,-0.153 -0.87,-0.551 -1.07,-1.028 l -6.532,-15.626 14.086,4.714 2.587,6.188 c 0.248,0.594 0.768,1.092 1.337,1.283 l 2.238,0.749 c 0.555,0.185 1.064,0.047 1.319,-0.36 L -10.03,-11.324 33.98,3.401 33.979,11.345 0,0 m 8.096,36.66 10.01,3.351 V 35.079 L -7.285,26.583 v 1.429 c 0,0.656 -0.532,1.01 -1.19,0.791 l -9.834,-3.29 v 5.737 l 25.215,8.437 v -2.235 c 0,-0.657 0.532,-1.012 1.19,-0.792"
             style="fill:#ffffff;fill-opacity:1;fill-rule:nonzero;stroke:none"
             id="path48" />
        </g>
        <g
           id="g50"
           transform="translate(192.5057,131.8586)">
          <path
             d="M 0,0 C 0,0.657 0.532,1.367 1.189,1.587 L 5.648,3.079 V -1.38 c 0,-0.657 -0.532,-1.368 -1.189,-1.588 L 0,-4.46 Z m 14.475,-16.166 v 6.467 l -6.281,-2.102 v 4.516 l 5.872,1.965 V 11.464 L -8.417,3.94 v -16.784 l 8.789,2.941 v -16.886 l -2.397,-1.268 v 13.822 l -6.392,-2.139 v -15.064 l -2.355,-1.247 v -7.844 l 25.247,13.356 v 7.845 L 8.194,-22.65 v 4.382 z m 13.383,0.79 17.072,5.712 v -0.926 c 0,-0.571 -0.466,-1.19 -1.04,-1.383 l -16.032,-5.364 z m 0,3.646 17.072,5.712 v -1.958 l -17.072,-5.712 z m 0,2.675 c 0,0.572 0.466,1.191 1.041,1.383 L 44.93,-2.308 V -4.267 L 27.858,-9.979 Z m 21.101,-4.566 5.699,1.907 V 5.079 L 18.284,-7.092 v -16.793 l 8.496,2.843 c -1.515,-1.997 -2.057,-2.645 -5.801,-3.883 l -5.222,-1.762 v -4.965 l 12.339,4.129 c 3.706,1.24 6.986,3.294 9.56,9.163 1.492,-0.461 4.431,-2.297 6.076,-3.932 l 13.611,4.555 c -1.746,1.716 -5.101,3.163 -8.384,4.116 M 29.889,18.421 V 15.582 L 17.721,11.511 V 5.63 L 29.889,9.701 V 7.778 L 17.721,3.707 V 0.876 L 29.889,4.947 V 2.928 L 15.757,-1.801 V -6.232 L 57.343,7.683 v 4.431 L 43.211,7.386 v 2.019 l 12.13,4.059 v 2.831 l -12.13,-4.059 v 1.922 l 12.13,4.06 v 5.881 L 43.211,20.04 v 2.838"
             style="fill:#ffffff;fill-opacity:1;fill-rule:nonzero;stroke:none"
             id="path52" />
        </g>
        <g
           id="g54"
           transform="translate(130.9354,86.7268)">
          <path
             d="m 0,0 v 1.867 l -14.029,-4.694 c -0.657,-0.22 -1.189,-0.93 -1.189,-1.587 v -1.867 l 14.029,4.694 C -0.532,-1.367 0,-0.657 0,0 m 9.616,8.039 v -9.625 l -34.227,-11.452 v 9.625 z M 31.774,40.553 6.342,32.043 8.081,35.654 -8.011,30.27 -9.75,26.658 -27.25,20.803 v -7.209 l 13.361,4.469 -1.206,-2.502 c -0.183,-0.381 -0.662,-0.754 -1.198,-0.933 L -27.25,10.962 V 6.258 l 24.348,8.146 c 0.536,0.18 1.015,0.552 1.198,0.933 l 3.907,8.111 1.34,0.448 3.906,-5.497 c 0.184,-0.257 0.663,-0.309 1.199,-0.13 l 23.126,7.738 v 4.704 L 21.965,27.429 C 21.429,27.25 20.95,27.302 20.766,27.56 l -1.205,1.697 12.213,4.086 z m 4.488,-21.232 -8.25,-2.759 V 3.816 c 0,-3.776 -3.061,-7.862 -6.838,-9.126 l -24.128,-8.073 v 5.658 l 13.131,4.394 c 1.724,0.576 3.121,2.442 3.121,4.166 V 11.638 L -31.868,-3.475 v 5.658 l 68.13,22.796 z"
             style="fill:#ffffff;fill-opacity:1;fill-rule:nonzero;stroke:none"
             id="path56" />
        </g>
        <g
           id="g58"
           transform="translate(389.1263,261.6946)">
          <path
             d="m 0,0 -10.819,-3.308 c -0.713,-0.217 -1.082,-0.702 -1.082,-1.331 V -5.432 L -14.865,-6.338 -14.866,1.688 0,6.233 Z m -5.222,14.306 c 0,-1.309 -0.855,-2.465 -2.108,-2.845 l -2.315,-0.704 v 2.229 c 0,1.309 0.857,2.464 2.11,2.845 l 2.313,0.702 z m 5.221,9.023 -14.865,-4.545 V 3.961 L -10e-4,8.506 Z M 17.248,40.17 v 4.845 l 6.577,2.01 V 42.181 Z M 15.524,2.953 c -1.17,-0.358 -1.932,-0.26 -2.435,0.052 1.704,1.699 3.447,4.177 5.02,7.107 0.021,-2.203 0.093,-6.34 -2.585,-7.159 m 8.301,28.098 -8.393,-2.567 c 0,-6.164 -1.363,-11.221 -3.419,-15.412 v 16.597 l 11.812,3.611 v 7.693 L 12.013,37.362 v 6.052 L 1.198,40.108 v -3.141 l 0.691,0.21 C 2.518,37.37 2.89,37.092 2.89,36.337 V 34.572 L -14.866,29.144 V 21.451 L 2.89,26.879 V 3.104 c 0,-0.39 0.066,-1.407 0.489,-2.53 -0.831,-0.951 -2.518,-2.41 -5.563,-3.341 -1.832,-0.56 -7.414,-2.267 -7.414,-2.267 v -5.033 l 7.08,2.164 c 4.83,1.477 7.831,3.284 9.665,4.8 1.857,-0.631 4.512,-0.672 8.323,0.493 8.547,2.613 9.682,8.843 9.682,15.299 l -6.773,-2.071 c 3.083,5.919 5.446,13.562 5.446,20.433 m -0.981,-33.1 -40.754,-12.46 -0.001,46.633 c 0,2.522 1.306,4.448 3.497,5.111 l 40.755,12.46 V 3.062 c 0,-2.701 -1.47,-4.503 -3.497,-5.111 m 19.93,65.688 -77.111,-23.576 v -68.492 l 77.112,23.576 z"
             style="fill:#ffffff;fill-opacity:1;fill-rule:nonzero;stroke:none"
             id="path60" />
        </g>
        <g
           id="g62"
           transform="translate(335.3831,316.1956)">
          <path
             d="m 0,0 v 11.961 l -77.366,-23.654 v -11.961 l 28.177,8.615 v -10.737 l -28.177,-8.614 v -11.991 l 28.177,8.615 V -42.2 c 0,-14.199 -7.602,-19.929 -19.147,-23.467 l -9.029,-2.761 v -12.017 l 19.666,6.013 c 11.743,3.59 20.429,9.986 26.416,24.349 3.284,-1.319 12.208,-7.253 15.826,-11.434 l 20.34,6.219 c -6.086,6.765 -27.764,15.012 -33.565,16.165 0.159,3.082 0.039,7.649 0.039,7.649 L 0,-22.727 v 11.99 l -28.643,-8.757 v 10.737 z"
             style="fill:#ffffff;fill-opacity:1;fill-rule:nonzero;stroke:none"
             id="path64" />
        </g>
        <g
           id="g66"
           transform="translate(193.1004,220.4597)">
          <path
             d="m 0,0 18.242,5.578 1.346,-3.287 -20.934,-6.4 z m 26.72,-14.333 21.025,6.428 v 4.506 l -30.167,-9.223 v 6.568 l 4.824,1.475 0.814,-1.987 c 0.256,-0.626 0.926,-0.891 1.676,-0.661 L 50.244,0.524 V 10.902 L 38.188,7.216 c -0.75,-0.229 -1.42,0.035 -1.677,0.661 l -1.196,2.92 12.43,3.801 v 4.635 L 1.687,5.152 3.057,9.333 45.385,22.275 v 4.589 L 4.727,14.434 5.847,17.852 45.385,29.94 V 40.55 L 9.708,29.642 11.597,35.409 -5.376,30.22 -7.265,24.453 -26.944,18.436 V 7.826 l 15.817,4.836 -1.119,-3.417 -14.698,-4.494 v -4.59 l 13.027,3.983 -1.369,-4.181 -14.018,-4.286 v -4.636 l 12.33,3.77 -1.195,-3.652 c -0.257,-0.783 -0.927,-1.457 -1.677,-1.686 l -12.264,-3.75 v -10.378 l 25.461,7.784 c 0.749,0.23 1.419,0.904 1.676,1.686 l 0.813,2.486 4.903,1.498 v -6.568 l -30.047,-9.187 v -4.505 l 27.854,8.515 c 0,0 -1.673,-3.744 -8.14,-5.721 l -19.714,-6.028 v -10.892 l 24.221,7.405 c 8.427,2.576 14.239,5.509 20.532,16.724 3.185,-1.197 7.629,-3.242 11.345,-6.979 l 23.636,7.227 c -3.69,4.187 -14.668,6.51 -23.71,6.877"
             style="fill:#ffffff;fill-opacity:1;fill-rule:nonzero;stroke:none"
             id="path68" />
        </g>
        <g
           id="g70"
           transform="translate(150.6214,268.1189)">
          <path
             d="m 0,0 -17.875,-5.465 v 3.549 l -15.567,-4.759 c 0,-9.696 -1.993,-14.509 -6.912,-16.013 v -6.568 l 4.895,1.496 c 6.809,2.082 9.194,3.341 12.938,8.332 1.399,-0.532 2.956,-1.995 3.675,-3.253 l 17.193,5.257 c -1.456,1.887 -5.175,3.154 -8.523,3.826 L 0,-10.486 Z m -40.73,-12.453 -16.794,-5.134 v 3.549 l -15.455,-4.726 c 0,-12.821 -3.038,-14.567 -9.63,-16.583 v -6.828 l 8.896,2.719 c 6.333,1.936 8.529,3.918 11.911,8.346 1.301,-0.562 3.029,-2.301 3.698,-3.573 l 15.492,4.736 c -1.424,1.974 -4.855,3.285 -7.832,4.038 l 9.714,2.97 z m -14.03,-30.88 -8.022,-2.453 c -1.858,-0.568 -2.379,-2.836 -2.379,-4.35 l 10.401,3.18 z m 0,-7.614 -10.401,-3.179 v -3.624 l 8.023,2.454 c 1.858,0.567 2.378,2.836 2.378,4.349 m -2.736,-14.698 -0.776,1.053 c -0.45,0.609 -1.234,0.868 -1.957,0.647 l -4.201,-1.284 v -4.202 c 0,-0.423 0.431,-0.712 0.823,-0.549 l 5.548,2.306 c 0.803,0.333 1.08,1.33 0.563,2.029 m 18.61,-11.447 -14.281,-4.366 c 0,0 -0.44,2.955 -0.997,5.002 l -19.422,-8.059 c -1.175,-0.488 -2.468,0.375 -2.468,1.647 v 29.483 c 0,1.64 -1.059,2.547 -3.363,1.842 l -1.691,-0.517 v 8.271 l 38.163,11.668 v -26.464 l -5.913,-1.808 c 8.796,-10.295 9.972,-16.699 9.972,-16.699 m 38.77,58.066 v -8.436 l -2.373,-0.726 c -2.027,-0.62 -2.602,-1.297 -2.602,-3.305 v -14.772 c 0,-11.687 -5.091,-17.931 -13.302,-20.441 -2.808,-0.858 -4.778,-0.778 -4.778,-0.778 v 8.305 c 2.176,0.666 4.755,2.207 4.755,6.555 v 19.567 l -5.517,-1.687 c -1.15,-0.351 -2.081,-1.568 -2.081,-2.717 v -35.696 l -12.872,-3.935 v 46.213 z"
             style="fill:#ffffff;fill-opacity:1;fill-rule:nonzero;stroke:none"
             id="path72" />
        </g>
        <g
           id="g74"
           transform="translate(497.3314,275.5896)">
          <path
             d="m 0,0 -1.467,-8.167 -0.018,-0.006 -1.504,7.146 -2.493,-0.858 v -9.661 l 1.595,0.549 v 8.07 l 1.523,-7.547 1.688,0.581 1.56,8.606 v -8.07 l 1.577,0.543 v 9.661 z m -13.208,-4.548 6.791,2.336 V -3.92 l -2.475,-0.851 v -7.948 l -1.749,-0.601 v 7.947 l -2.567,-0.882 z"
             style="fill:#000000;fill-opacity:1;fill-rule:nonzero;stroke:none"
             id="path76" />
        </g>
      </g>
    </g>
  </g>
</svg>
