<?xml version="1.0" encoding="UTF-8" standalone="no"?>
<!-- Created with Inkscape (http://www.inkscape.org/) -->

<svg
   version="1.1"
   id="svg1"
   width="666.66669"
   height="499.504"
   viewBox="0 0 666.66669 499.504"
   sodipodi:docname="Jiézòu Tiānguó Qíjì Zhī Xīng (节奏天国 奇迹之星) Logo (Print).ai"
   xmlns:inkscape="http://www.inkscape.org/namespaces/inkscape"
   xmlns:sodipodi="http://sodipodi.sourceforge.net/DTD/sodipodi-0.dtd"
   xmlns="http://www.w3.org/2000/svg"
   xmlns:svg="http://www.w3.org/2000/svg">
  <defs
     id="defs1">
    <clipPath
       clipPathUnits="userSpaceOnUse"
       id="clipPath2">
      <path
         d="M 0,374.628 H 500 V 0 H 0 Z"
         transform="translate(-393.96221,-367.88091)"
         id="path2" />
    </clipPath>
    <clipPath
       clipPathUnits="userSpaceOnUse"
       id="clipPath4">
      <path
         d="M 0,374.628 H 500 V 0 H 0 Z"
         transform="translate(-393.96221,-357.76071)"
         id="path4" />
    </clipPath>
    <clipPath
       clipPathUnits="userSpaceOnUse"
       id="clipPath6">
      <path
         d="M 0,374.628 H 500 V 0 H 0 Z"
         transform="translate(-463.50641,-281.46961)"
         id="path6" />
    </clipPath>
    <clipPath
       clipPathUnits="userSpaceOnUse"
       id="clipPath8">
      <path
         d="M 0,374.628 H 500 V 0 H 0 Z"
         transform="translate(-499.21191,-263.1751)"
         id="path8" />
    </clipPath>
    <clipPath
       clipPathUnits="userSpaceOnUse"
       id="clipPath10">
      <path
         d="M 0,374.628 H 500 V 0 H 0 Z"
         transform="translate(-453.21091,-209.28291)"
         id="path10" />
    </clipPath>
    <clipPath
       clipPathUnits="userSpaceOnUse"
       id="clipPath12">
      <path
         d="M 0,374.628 H 500 V 0 H 0 Z"
         transform="translate(-447.53351,-195.26301)"
         id="path12" />
    </clipPath>
    <clipPath
       clipPathUnits="userSpaceOnUse"
       id="clipPath14">
      <path
         d="M 0,374.628 H 500 V 0 H 0 Z"
         transform="translate(-369.04001,-187.1595)"
         id="path14" />
    </clipPath>
    <clipPath
       clipPathUnits="userSpaceOnUse"
       id="clipPath16">
      <path
         d="M 0,374.628 H 500 V 0 H 0 Z"
         transform="translate(-305.34511,-175.1406)"
         id="path16" />
    </clipPath>
    <clipPath
       clipPathUnits="userSpaceOnUse"
       id="clipPath18">
      <path
         d="M 0,374.628 H 500 V 0 H 0 Z"
         transform="translate(-207.18691,-127.8609)"
         id="path18" />
    </clipPath>
    <clipPath
       clipPathUnits="userSpaceOnUse"
       id="clipPath20">
      <path
         d="M 0,374.628 H 500 V 0 H 0 Z"
         transform="translate(-130.72221,-88.3447)"
         id="path20" />
    </clipPath>
    <clipPath
       clipPathUnits="userSpaceOnUse"
       id="clipPath22">
      <path
         d="M 0,374.628 H 500 V 0 H 0 Z"
         transform="translate(-415.32111,-311.10711)"
         id="path22" />
    </clipPath>
    <clipPath
       clipPathUnits="userSpaceOnUse"
       id="clipPath24">
      <path
         d="M 0,374.628 H 500 V 0 H 0 Z"
         transform="translate(-334.98621,-315.56721)"
         id="path24" />
    </clipPath>
    <clipPath
       clipPathUnits="userSpaceOnUse"
       id="clipPath26">
      <path
         d="M 0,374.628 H 500 V 0 H 0 Z"
         transform="translate(-191.33301,-215.87101)"
         id="path26" />
    </clipPath>
    <clipPath
       clipPathUnits="userSpaceOnUse"
       id="clipPath28">
      <path
         d="M 0,374.628 H 500 V 0 H 0 Z"
         transform="translate(-150.28971,-265.52251)"
         id="path28" />
    </clipPath>
    <clipPath
       clipPathUnits="userSpaceOnUse"
       id="clipPath30">
      <path
         d="M 0,374.628 H 500 V 0 H 0 Z"
         transform="translate(-498.16431,-266.332)"
         id="path30" />
    </clipPath>
  </defs>
  <sodipodi:namedview
     id="namedview1"
     pagecolor="#ffffff"
     bordercolor="#000000"
     borderopacity="0.25"
     inkscape:showpageshadow="2"
     inkscape:pageopacity="0.0"
     inkscape:pagecheckerboard="0"
     inkscape:deskcolor="#d1d1d1">
    <inkscape:page
       x="0"
       y="0"
       inkscape:label="1"
       id="page1"
       width="666.66669"
       height="499.504"
       margin="0"
       bleed="0" />
  </sodipodi:namedview>
  <g
     id="layer-MC0"
     inkscape:groupmode="layer"
     inkscape:label="Layer 1">
    <path
       id="path1"
       d="m 0,0 c -15.046,0 -29.807,-3.957 -42.76,-11.323 -15.032,11.607 -33.648,18.07 -52.863,18.07 -40.427,0 -74.458,-27.905 -83.845,-65.465 -5.494,1.084 -11.116,1.629 -16.839,1.629 -11.622,0 -23.074,-2.336 -33.676,-6.82 -15.73,10.99 -34.485,16.941 -53.903,16.941 -51.94,0 -94.196,-42.256 -94.196,-94.196 0,-40.93 26.234,-76.792 64.574,-89.441 7.179,-9.929 16.435,-18.289 27.078,-24.405 13.031,-7.488 27.901,-11.447 43.003,-11.447 24.043,0 46.685,9.944 62.881,27.136 8.994,-3.08 18.502,-4.678 28.069,-4.678 23.984,0 46.616,9.92 62.812,27.065 8.538,-2.743 17.517,-4.165 26.519,-4.165 18.686,0 36.475,5.872 51.445,16.981 11.606,8.612 20.715,19.747 26.753,32.605 17.973,3.151 34.471,11.91 47.305,25.284 15.512,16.164 24.054,37.408 24.054,59.818 C 86.411,-38.764 47.647,0 0,0"
       style="fill:#000000;fill-opacity:1;fill-rule:nonzero;stroke:none"
       transform="matrix(1.3333333,0,0,-1.3333333,525.28293,8.9961333)"
       clip-path="url(#clipPath2)" />
    <path
       id="path3"
       d="m 0,0 c -15.626,0 -30.902,-4.832 -43.64,-13.711 -14.054,13.068 -32.675,20.458 -51.983,20.458 -39.256,0 -71.682,-29.8 -75.84,-67.968 -7.944,2.746 -16.265,4.132 -24.844,4.132 -12.179,0 -24.144,-2.904 -34.891,-8.435 -14.904,12 -33.43,18.556 -52.688,18.556 -46.359,0 -84.076,-37.717 -84.076,-84.076 0,-37.647 24.859,-70.488 60.786,-80.804 6.567,-9.963 15.435,-18.317 25.788,-24.267 11.5,-6.608 24.626,-10.101 37.961,-10.101 23.497,0 45.477,10.756 59.904,29.045 9.718,-4.323 20.338,-6.587 31.046,-6.587 23.389,0 45.322,10.687 59.753,28.853 9.311,-3.907 19.426,-5.953 29.578,-5.953 16.497,0 32.202,5.182 45.415,14.987 11.704,8.685 20.531,20.271 25.728,33.707 17.909,1.864 34.476,9.95 47.058,23.062 13.695,14.271 21.236,33.026 21.236,52.811 C 76.291,-34.224 42.067,0 0,0"
       style="fill:#ffffff;fill-opacity:1;fill-rule:nonzero;stroke:none"
       transform="matrix(1.3333333,0,0,-1.3333333,525.28293,22.489733)"
       clip-path="url(#clipPath4)" />
    <path
       id="path5"
       d="m 0,0 c 0,38.408 -31.136,69.544 -69.544,69.544 -16.818,0 -32.242,-5.97 -44.268,-15.906 -12.716,13.92 -31.016,22.653 -51.356,22.653 -38.408,0 -69.544,-31.136 -69.544,-69.544 0,-0.552 0.008,-1.102 0.021,-1.651 -9.374,4.706 -19.956,7.36 -31.16,7.36 -13.056,0 -25.27,-3.601 -35.708,-9.86 -13.719,12.416 -31.911,19.98 -51.871,19.98 -42.708,0 -77.329,-34.622 -77.329,-77.329 0,-36.152 24.81,-66.507 58.332,-74.975 12.201,-20.055 34.264,-33.45 59.455,-33.45 24.089,0 45.315,12.248 57.795,30.855 9.856,-5.355 21.151,-8.397 33.156,-8.397 23.957,0 45.083,12.114 57.59,30.55 9.516,-4.889 20.306,-7.65 31.741,-7.65 31.016,0 57.285,20.306 66.25,48.348 C -29.473,-67.847 0,-37.368 0,0"
       style="fill:#000000;fill-opacity:1;fill-rule:nonzero;stroke:none"
       transform="matrix(1.3333333,0,0,-1.3333333,618.00853,124.2112)"
       clip-path="url(#clipPath6)" />
    <path
       id="path7"
       d="m 0,0 -336.467,-120.229 6.778,17.038 c 0.18,0.453 -0.237,0.915 -0.705,0.783 l -61.616,-17.36 -49.275,40.949 c -0.374,0.312 -0.944,0.058 -0.963,-0.429 l -2.536,-63.992 -54.154,-34.19 c -0.412,-0.26 -0.347,-0.88 0.11,-1.049 l 60.075,-22.22 15.784,-62.033 c 0.12,-0.472 0.729,-0.602 1.031,-0.219 l 39.666,50.277 63.933,-4.175 c 0.486,-0.031 0.798,0.508 0.527,0.913 l -15.021,22.511 313.595,91.01 c 0.469,0.136 0.577,0.752 0.182,1.04 l -12.97,9.456 24.299,30.614 c 0.246,0.31 0.122,0.769 -0.246,0.913 L -28.159,-52.5 0.711,-0.841 C 0.976,-0.366 0.512,0.183 0,0"
       style="fill:#ffffff;fill-opacity:1;fill-rule:nonzero;stroke:none"
       transform="matrix(1.3333333,0,0,-1.3333333,665.61587,148.60387)"
       clip-path="url(#clipPath8)" />
    <path
       id="path9"
       d="m 0,0 2.632,4.992 -5.609,-1.051 -4.004,3.904 -0.803,-5.531 -5.103,-2.593 5.139,-2.358 0.839,-5.503 3.979,4.077 5.612,-0.821 z"
       style="fill:#000000;fill-opacity:1;fill-rule:nonzero;stroke:none"
       transform="matrix(1.3333333,0,0,-1.3333333,604.2812,220.46013)"
       clip-path="url(#clipPath10)" />
    <path
       id="path11"
       d="m 0,0 -8.507,-1.595 -6.073,5.921 -1.217,-8.389 -7.74,-3.932 7.794,-3.575 1.272,-8.347 6.035,6.183 8.513,-1.245 -4.068,7.408 z"
       style="fill:#000000;fill-opacity:1;fill-rule:nonzero;stroke:none"
       transform="matrix(1.3333333,0,0,-1.3333333,596.71133,239.15333)"
       clip-path="url(#clipPath12)" />
    <path
       id="path13"
       d="M 0,0 26.609,8.903 V 6.925 c 0,-0.86 -0.697,-1.791 -1.557,-2.078 L 0,-3.536 Z m 0,4.768 c 0,0.86 0.697,1.79 1.557,2.078 l 25.052,8.382 V 11.693 L 0,2.79 Z m 21.914,-23.937 v 3.328 l 20.848,6.976 v 3.135 l -20.848,-6.976 v 3.236 l 20.848,6.976 V 1.95 L 21.914,-5.026 v 4.135 L 43.119,6.205 V 26.259 L -16.403,6.343 V -13.711 L 4.341,-6.77 v -4.136 l -8.926,-2.987 0.7,1.808 -12.479,-4.176 -2.405,-6.205 c -0.167,-0.431 -0.538,-0.796 -0.948,-0.934 l -2.281,-0.762 v -6.371 l 11.924,3.989 c 0.41,0.137 0.781,0.503 0.948,0.933 l 2.562,6.613 10.905,3.648 v -3.235 l -8.02,-2.684 -1.396,-3.602 9.416,3.15 v -3.327 l -23.964,-8.018 v -6.938 l 65.972,22.074 v 6.937 z"
       style="fill:#000000;fill-opacity:1;fill-rule:nonzero;stroke:none"
       transform="matrix(1.3333333,0,0,-1.3333333,492.05333,249.958)"
       clip-path="url(#clipPath14)" />
    <path
       id="path15"
       d="m 0,0 v 2.538 l -25.275,-8.457 v -5.522 l 10.067,3.368 c 0.574,0.192 1.038,-0.117 1.038,-0.69 v -1.687 l 25.276,8.457 V 2.678 L 1.038,-0.691 C 0.465,-0.882 0,-0.573 0,0 m -6.136,-37.052 33.1,11.075 v -7.732 l -43.239,-14.468 c -0.397,-0.133 -0.759,-0.027 -0.933,0.271 l -2.309,3.961 c -0.261,0.448 -0.804,0.606 -1.399,0.407 l -2.539,-0.85 c -0.595,-0.199 -1.138,-0.72 -1.399,-1.343 l -2.309,-5.506 c -0.174,-0.415 -0.536,-0.762 -0.933,-0.895 l -12.937,-4.329 6.496,15.492 c 0.174,0.415 0.536,0.763 0.933,0.895 l 10.664,3.569 c 0.579,0.193 1.141,0.575 1.598,1.084 l 13.118,14.638 c 0.431,0.482 0.193,1.095 -0.355,0.912 l -28.69,-9.6 v 7.732 l 61.073,20.435 v -5.409 l -8.053,-2.694 c -1.22,-0.408 -2.401,-1.234 -3.336,-2.331 l -20.467,-24.022 0.516,-0.886 c 0.261,-0.448 0.804,-0.606 1.4,-0.406"
       style="fill:#000000;fill-opacity:1;fill-rule:nonzero;stroke:none"
       transform="matrix(1.3333333,0,0,-1.3333333,407.1268,265.9832)"
       clip-path="url(#clipPath16)" />
    <path
       id="path17"
       d="m 0,0 v -6.437 c 0,-2.243 -0.822,-4.004 -3.001,-4.733 v -3.221 l 2.985,0.999 c 3.083,1.032 8.065,4.654 8.065,10.064 V 2.693 Z M 42.461,24.677 29.196,20.238 v 6.545 l -17.65,-5.906 v -3.3 l 3.513,1.175 c 0.573,0.192 1.037,-0.117 1.037,-0.691 V 15.855 L -1.283,10.04 V 2.815 L 10.804,6.859 V -3.958 c 0,-4.726 -2.042,-6.568 -4.632,-7.434 v -3.31 l 4.617,1.544 c 3.817,1.278 8.064,5.929 8.064,11.339 V 9.552 l 2.942,0.985 V -4.982 c 0,-2.998 -2.686,-4.247 -5.275,-5.113 v -4.462 l 5.259,1.76 c 3.818,1.277 8.065,4.201 8.065,9.61 V 13.23 l 12.617,4.221 z M 32.479,10.867 V -3.625 l 7.707,2.579 V 13.446 Z M -23.512,6.969 V 1.616 l 5.079,1.699 c 0.573,0.192 1.038,-0.118 1.038,-0.691 V 0.007 L -4.71,4.252 V 13.26 Z M -0.704,-21.58 42.461,-7.137 v -6.951 L -7.694,-30.869 c -0.405,-0.136 -0.772,-0.024 -0.942,0.287 l -2.218,4.051 c -0.17,0.31 -0.537,0.422 -0.942,0.287 l -0.449,-0.151 c -0.477,-0.159 -0.892,-0.623 -1.007,-1.123 l -1.103,-4.793 c -0.116,-0.501 -0.531,-0.965 -1.007,-1.124 l -10.174,-3.404 3.27,14.209 c 0.115,0.501 0.531,0.964 1.007,1.124 l 4.867,1.628 v 10.345 l -6.947,-2.325 v 7.191 L -4.71,1.566 v -17.979 l 2.593,-4.736 c 0.255,-0.466 0.806,-0.634 1.413,-0.431"
       style="fill:#000000;fill-opacity:1;fill-rule:nonzero;stroke:none"
       transform="matrix(1.3333333,0,0,-1.3333333,276.2492,329.0228)"
       clip-path="url(#clipPath18)" />
    <path
       id="path19"
       d="m 0,0 -14.386,-4.813 c -0.573,-0.192 -1.038,-0.812 -1.038,-1.386 v -2.187 l 14.386,4.813 C -0.465,-3.381 0,-2.761 0,-2.187 Z m 9.394,5.854 v -9.378 l -34.253,-11.461 v 9.378 z m 21.984,25.504 v 6.82 L 5.926,29.662 7.752,33.5 -7.776,28.304 -9.602,24.466 -27.259,18.558 v -6.82 l 13.798,4.617 -1.427,-3 c -0.184,-0.387 -0.529,-0.704 -0.903,-0.829 L -27.259,8.689 V 4.416 l 24.579,8.223 c 0.374,0.126 0.719,0.442 0.903,0.83 l 3.845,8.082 1.541,0.516 3.845,-5.51 c 0.185,-0.264 0.53,-0.349 0.904,-0.224 l 23.02,7.702 v 4.274 l -9.91,-3.316 c -0.374,-0.125 -0.719,-0.039 -0.903,0.225 l -1.427,2.044 z M 36.104,17.434 28.025,14.731 V 2.02 c 0,-3.869 -3.137,-8.056 -7.006,-9.351 l -24.23,-8.107 v 5.494 l 13.056,4.369 c 1.863,0.623 3.373,2.639 3.373,4.502 V 9.777 L -32.039,-5.366 v 5.291 l 68.143,22.801 z"
       style="fill:#000000;fill-opacity:1;fill-rule:nonzero;stroke:none"
       transform="matrix(1.3333333,0,0,-1.3333333,174.29627,381.71107)"
       clip-path="url(#clipPath20)" />
    <path
       id="path21"
       d="m 0,0 -40.707,-12.445 c -2.189,-0.662 -3.493,-2.586 -3.493,-5.107 v -46.589 l 40.707,12.446 C -1.468,-51.088 0,-49.288 0,-46.589 Z m 16.415,13.93 v -68.428 l -77.022,-23.548 v 68.427 z m -28.671,-55.221 4.622,1.414 v 6.546 l -4.622,-1.413 z m -24.302,21.341 v 5.368 l 28.924,8.843 v -5.368 l -5.05,-1.544 c -2.158,-0.659 -3.378,-2.272 -3.378,-5.071 v -8.818 l 8.428,2.576 v -5.762 l -8.428,-2.576 v -10.827 c 0,-1.704 1.304,-2.531 3.931,-1.728 l 4.497,1.375 v -5.333 l -28.924,-8.843 v 5.333 l 5.106,1.561 c 2.086,0.638 3.321,2.305 3.321,5.066 v 9.706 l -8.427,-2.577 v 5.762 l 8.427,2.577 v 9.938 c 0,1.154 -0.691,2.707 -3.874,1.734 z"
       style="fill:#ffffff;fill-opacity:1;fill-rule:nonzero;stroke:none"
       transform="matrix(1.3333333,0,0,-1.3333333,553.76147,84.694533)"
       clip-path="url(#clipPath22)" />
    <path
       id="path23"
       d="m 0,0 v 11.95 l -77.293,-23.631 v -11.95 l 28.15,8.606 v -10.371 l -28.15,-8.606 v -11.98 l 28.15,8.607 v -6.869 c 0,-8.709 -5.507,-16.841 -13.146,-19.177 l -15.004,-4.587 v -12.006 l 21.038,6.432 c 9.731,2.975 19.02,9.552 25.001,23.901 3.281,-1.318 12.196,-7.246 15.811,-11.423 l 20.321,6.213 c -6.08,6.759 -27.699,14.99 -33.494,16.143 V -31.1 L 0,-22.351 v 11.979 l -28.616,-8.748 v 10.371 z"
       style="fill:#ffffff;fill-opacity:1;fill-rule:nonzero;stroke:none"
       transform="matrix(1.3333333,0,0,-1.3333333,446.64827,78.747733)"
       clip-path="url(#clipPath24)" />
    <path
       id="path25"
       d="m 0,0 1.366,4.169 18.493,5.654 1.365,-3.334 z m 24.755,-2.133 c 0.299,-0.729 1.078,-1.041 1.951,-0.774 L 51.701,4.735 V 15.103 L 39.618,11.408 c -0.873,-0.267 -1.653,0.041 -1.951,0.77 l -1.125,2.746 12.663,3.871 v 4.631 L 3.051,9.316 4.42,13.494 46.847,26.465 V 31.05 L 6.088,18.589 7.207,22.004 46.847,34.123 V 44.722 L 11.065,33.783 12.952,39.544 -3.732,34.444 -5.619,28.682 -25.413,22.63 V 12.031 l 15.936,4.872 -1.118,-3.415 -14.818,-4.53 V 4.373 l 13.149,4.02 -1.368,-4.178 -14.139,-4.322 v -4.632 l 12.453,3.808 -1.125,-3.434 c -0.298,-0.912 -1.078,-1.696 -1.95,-1.963 l -12.181,-3.724 v -10.367 l 25.091,7.671 c 0.872,0.267 1.652,1.051 1.95,1.962 l 0.779,2.378 5.001,1.529 v -6.629 l -30.018,-9.177 v -4.659 l 27.411,8.38 c 0,0 -1.254,-3.489 -7.715,-5.465 l -19.696,-6.021 v -10.883 l 24.199,7.398 c 8.37,2.559 13.803,5.17 20.388,16.329 4.143,-1.043 7.574,-2.906 11.15,-6.686 l 23.735,7.256 c -3.665,4.37 -13.996,6.582 -23.03,6.948 L 49.205,-3.81 V 0.848 L 19.066,-8.366 v 6.629 l 4.912,1.502 z"
       style="fill:#ffffff;fill-opacity:1;fill-rule:nonzero;stroke:none"
       transform="matrix(1.3333333,0,0,-1.3333333,255.11067,211.676)"
       clip-path="url(#clipPath26)" />
    <path
       id="path27"
       d="m 0,0 -16.363,-5.003 v 5.689 l -16.664,-5.095 v -5.688 l -16.256,-4.97 v 5.695 l -16.665,-5.095 v -5.695 l -16.616,-5.08 v -11.95 l 16.616,5.08 v -5.696 l 16.665,5.095 v 5.696 l 16.256,4.97 v -5.703 l 16.664,5.095 v 5.703 L 0,-11.95 Z m -2.304,-21.088 v -12.254 l -3.084,-0.942 c -1.272,-0.389 -2.304,-1.737 -2.304,-3.009 v -6.786 c 0,-10.147 -5.722,-16.771 -12.416,-18.818 l -11.185,-3.42 v 9.3 l 4.128,1.262 c 1.75,0.535 3.169,2.387 3.169,4.137 l -0.001,11.644 -15.319,-4.683 v -30.17 l -20.638,-6.309 v 30.169 l -17.432,-5.33 v 12.255 z"
       style="fill:#ffffff;fill-opacity:1;fill-rule:nonzero;stroke:none"
       transform="matrix(1.3333333,0,0,-1.3333333,200.38627,145.474)"
       clip-path="url(#clipPath28)" />
    <path
       id="path29"
       d="M 0,0 V 7.819 L -1.594,-0.58 -3.321,-1.209 -4.877,6.044 v -7.819 l -1.632,-0.594 v 9.361 l 2.55,0.928 1.537,-6.866 0.019,0.007 1.5,7.971 2.516,0.916 V 0.587 Z m -11.783,-4.289 v 7.701 l -2.625,-0.956 v 1.655 l 6.944,2.528 V 4.984 L -9.995,4.063 v -7.701 z"
       style="fill:#000000;fill-opacity:1;fill-rule:nonzero;stroke:none"
       transform="matrix(1.3333333,0,0,-1.3333333,664.21907,144.39467)"
       clip-path="url(#clipPath30)" />
  </g>
</svg>
