<?xml version="1.0" encoding="UTF-8" standalone="no"?>
<!-- Created with Inkscape (http://www.inkscape.org/) -->

<svg
   version="1.1"
   id="svg2"
   width="666.66669"
   height="485.12268"
   viewBox="0 0 666.66669 485.12268"
   sodipodi:docname="Rhythm Tengoku Miracle Stars (リズム天国 ミラクルスターズ) Logo (Wordmark).ai"
   xmlns:inkscape="http://www.inkscape.org/namespaces/inkscape"
   xmlns:sodipodi="http://sodipodi.sourceforge.net/DTD/sodipodi-0.dtd"
   xmlns="http://www.w3.org/2000/svg"
   xmlns:svg="http://www.w3.org/2000/svg">
  <defs
     id="defs6">
    <clipPath
       clipPathUnits="userSpaceOnUse"
       id="clipPath16">
      <path
         d="M 0,363.842 H 500 V 0 H 0 Z"
         id="path14" />
    </clipPath>
  </defs>
  <sodipodi:namedview
     id="namedview4"
     pagecolor="#ffffff"
     bordercolor="#000000"
     borderopacity="0.25"
     inkscape:showpageshadow="2"
     inkscape:pageopacity="0.0"
     inkscape:pagecheckerboard="0"
     inkscape:deskcolor="#d1d1d1" />
  <g
     id="g8"
     inkscape:groupmode="layer"
     inkscape:label="Rhythm Tengoku Miracle Stars (リズム天国 ミラクルスターズ) Logo (Wordmark)"
     transform="matrix(1.3333333,0,0,-1.3333333,0,485.12267)">
    <g
       id="g10">
      <g
         id="g12"
         clip-path="url(#clipPath16)">
        <g
           id="g18"
           transform="translate(457.7534,155.581)">
          <path
             d="m 0,0 c 6.424,10.633 6.465,15.615 7.241,21.179 0.279,2.066 1.346,3.184 2.553,3.589 l 2.244,0.751 v 8.369 L -40.479,16.315 V 7.492 L -7.59,18.497 C -9.51,-0.491 -19.645,-11.459 -28.704,-14.49 l -11.775,-3.941 v -8.619 l 14.349,4.803 c 8.094,2.708 13.361,6.164 21.54,15.893 3.151,-1.6 5.125,-5.038 5.859,-6.727 l 14.822,4.96 C 14.511,-6.434 8.035,-2.02 0,0 m 15.624,45.59 2.968,5.767 -6.373,-1.139 -4.573,4.6 -0.885,-6.422 -5.79,-2.939 5.854,-2.818 0.982,-6.414 4.505,4.682 6.385,-1.039 z m 26.623,-21.639 -9.643,1.569 -6.8,-7.07 -1.482,9.684 -8.84,4.255 8.743,4.439 1.337,9.695 6.904,-6.946 9.621,1.721 -4.482,-8.708 z"
             style="fill:#000000;fill-opacity:1;fill-rule:nonzero;stroke:none"
             id="path20" />
        </g>
        <g
           id="g22"
           transform="translate(386.7729,144.8027)">
          <path
             d="M 0,0 V -9.603 L 30.501,0.604 v 9.601 z"
             style="fill:#000000;fill-opacity:1;fill-rule:nonzero;stroke:none"
             id="path24" />
        </g>
        <g
           id="g26"
           transform="translate(343.9106,135.1864)">
          <path
             d="m 0,0 v 3.427 l 20.548,6.876 c 0.859,0.287 1.556,-0.18 1.556,-1.044 V 2.605 c 0,-1.407 -0.097,-2.773 -0.296,-4.097 C 14.414,-0.028 5.599,0.514 0,0 M 0,12.192 V 18.65 L -16.271,13.206 V 6.563 l 2.005,0.718 c 1.196,0.401 2.165,-0.25 2.165,-1.451 V -6.878 c 0,-2.295 -0.636,-3.648 -3.42,-4.58 l -0.75,-0.298 v -6.508 l 8.49,2.841 c 3.378,1.13 6.252,4.256 7.328,7.64 6.886,0.481 14.285,-1.67 18.433,-3.26 -3.36,-4.677 -8.897,-8.464 -17.071,-11.198 l -12.902,-4.318 v -8.639 l 20.047,6.707 c 14.092,4.716 27.535,16.47 27.535,36.255 v 16.337 z"
             style="fill:#000000;fill-opacity:1;fill-rule:nonzero;stroke:none"
             id="path28" />
        </g>
        <g
           id="g30"
           transform="translate(308.0054,105.4921)">
          <path
             d="m 0,0 c 6.424,10.633 6.465,15.616 7.241,21.179 0.28,2.066 1.346,3.185 2.553,3.589 l 2.244,0.751 v 8.353 L -40.479,16.301 V 7.492 L -7.59,18.497 C -9.51,-0.491 -19.645,-11.459 -28.704,-14.49 l -11.775,-3.94 v -8.619 l 14.35,4.801 c 8.094,2.709 13.36,6.165 21.539,15.894 3.152,-1.6 5.125,-5.038 5.859,-6.726 l 14.822,4.959 C 14.511,-6.434 8.036,-2.02 0,0"
             style="fill:#000000;fill-opacity:1;fill-rule:nonzero;stroke:none"
             id="path32" />
        </g>
        <g
           id="g34"
           transform="translate(249.5176,98.291)">
          <path
             d="M 0,0 C 0,0 -0.878,-15.739 -10.33,-20.662 V 7.646 c 0,1.955 1.245,3.66 2.781,4.173 l 1.289,0.431 -0.001,6.402 -16.072,-5.378 v -46.62 l 10.635,3.558 c 15.076,5.045 23.413,17.197 26.101,34.607 z m -29.313,7.643 v -29.507 c 0,-14.958 -12.886,-18.129 -18.572,-20.032 v 8.625 c 4.04,1.352 6.401,4.896 6.401,8.442 v 19.975 c 0,1.473 -1.183,1.625 -2.66,1.131 l -1.412,-0.472 v 6.403 z"
             style="fill:#000000;fill-opacity:1;fill-rule:nonzero;stroke:none"
             id="path36" />
        </g>
        <g
           id="g38"
           transform="translate(158.0024,85.1757)">
          <path
             d="M 0,0 V 6.457 L -16.243,1.022 V -5.62 l 1.897,0.635 c 1.201,0.402 2.175,-0.246 2.175,-1.448 v -12.709 c 0,-2.295 -0.64,-3.649 -3.436,-4.585 l -0.636,-0.212 v -6.508 l 8.422,2.818 C -3.501,-26.185 0,-21.511 0,-17.191 v 8.424 l 20.373,6.818 c 0.864,0.289 1.564,-0.178 1.564,-1.041 v -6.654 c 0,-11.193 -5.762,-19.683 -20.911,-24.752 l -12.968,-4.338 v -8.641 l 20.149,6.742 c 14.165,4.739 27.677,16.517 27.677,36.302 v 16.337 z"
             style="fill:#000000;fill-opacity:1;fill-rule:nonzero;stroke:none"
             id="path40" />
        </g>
        <g
           id="g42"
           transform="translate(133.4663,60.6288)">
          <path
             d="M 0,0 V 7.646 L -52.674,-9.978 v -8.766 l 38.727,12.958 c -0.315,-11.494 -6.42,-19.43 -20.911,-24.279 l -12.969,-4.339 v -8.64 l 20.15,6.742 C -13.513,-31.562 0,-19.786 0,0 M -4.858,11.233 -47.847,-3.15 v 7.892 l 42.989,14.384 z"
             style="fill:#000000;fill-opacity:1;fill-rule:nonzero;stroke:none"
             id="path44" />
        </g>
        <g
           id="g46"
           transform="translate(26.6909,28.0087)">
          <path
             d="M 0,0 V -8.835 L 29.686,1.098 C 30.55,1.387 31.25,0.921 31.25,0.057 v -2.103 l 11.145,3.729 v 12.503 z m -4.567,-19.174 v -8.835 l 38.978,13.042 c 0.864,0.289 1.565,-0.177 1.565,-1.041 v -2.102 l 11.144,3.728 V -1.88 Z M 47.12,33.412 V 20.909 L 35.976,17.181 v 2.102 c 0,0.864 -0.701,1.33 -1.565,1.041 L -4.567,7.282 v 8.835 z"
             style="fill:#000000;fill-opacity:1;fill-rule:nonzero;stroke:none"
             id="path48" />
        </g>
        <g
           id="g50"
           transform="translate(475.73,334.2382)">
          <path
             d="m 0,0 -45.126,-13.796 c -2.427,-0.734 -3.873,-2.861 -3.872,-5.644 v -51.454 l 45.125,13.796 C -1.628,-56.425 0,-54.435 0,-51.454 Z m 18.196,15.405 v -75.573 l -85.383,-26.104 v 75.573 z m -26.659,-63.437 -4.985,-1.525 c -2.912,-0.89 -4.358,0.022 -4.358,1.905 v 11.956 l 9.343,2.857 v 6.363 l -9.343,-2.856 v 9.739 c 0,3.091 1.353,4.874 3.744,5.605 l 5.599,1.712 v 5.928 l -32.064,-9.802 v -5.929 l 5.048,1.543 c 3.528,1.079 4.294,-0.636 4.294,-1.91 v -10.976 l -9.342,-2.857 v -6.364 l 9.342,2.857 v -10.719 c 0,-3.05 -1.37,-4.893 -3.681,-5.599 l -5.661,-1.731 v -5.89 l 32.064,9.803 z m -5.124,2.414 v 7.231 l 5.124,1.566 v -7.23 z"
             style="fill:#000000;fill-opacity:1;fill-rule:nonzero;stroke:none"
             id="path52" />
        </g>
        <g
           id="g54"
           transform="translate(465.3403,354.4687)">
          <path
             d="m 0,0 c -0.33,0.139 -0.676,0.273 -0.676,0.498 0,0.192 0.3,0.492 0.755,0.855 2.2,1.81 5.058,3.917 8.419,6.291 v 1.73 C 4.446,6.533 1.604,4.334 -0.722,2.454 -1.932,1.476 -2.638,0.715 -2.638,-0.102 c 0,-0.961 0.877,-1.141 1.727,-1.491 2.451,-0.965 4.996,-1.964 7.212,-3.097 l 2.637,0.791 C 5.687,-2.171 3.031,-1.14 0,0"
             style="fill:#000000;fill-opacity:1;fill-rule:nonzero;stroke:none"
             id="path56" />
        </g>
        <g
           id="g58"
           transform="translate(435.2563,348.2665)">
          <path
             d="m 0,0 v -2.436 l 1.069,0.328 v 2.435 z m -9.911,-8.685 c 0,1.154 1.131,2.989 2.467,4.422 l -2.17,-0.663 c -1.051,-1.363 -1.995,-3.061 -1.995,-4.487 0,-2.691 2.75,-2.923 6.615,-1.741 1.916,0.586 3.802,1.37 5.513,2.165 v 1.682 c -1.822,-0.86 -3.612,-1.665 -5.592,-2.27 -3.017,-0.922 -4.838,-0.726 -4.838,0.892 M -0.202,2.212 -10.477,-0.929 V -2.531 L -0.202,0.61 Z m -1.635,-5.209 v 2.435 l 1.084,0.332 v -2.436 z"
             style="fill:#000000;fill-opacity:1;fill-rule:nonzero;stroke:none"
             id="path60" />
        </g>
        <g
           id="g62"
           transform="translate(366.5806,229.5063)">
          <path
             d="m 0,0 c 0.176,3.405 0.043,8.452 0.043,8.452 l 31.839,9.734 V 31.435 L 0.043,21.701 v 11.863 l 31.839,9.735 V 56.516 L -54.115,30.224 V 17.007 l 31.319,9.575 V 14.718 L -54.115,5.143 V -8.106 l 31.319,9.575 V -3.43 c 0,-15.69 -8.449,-22.037 -21.282,-25.97 l -10.037,-3.068 v -13.279 l 21.859,6.683 c 16.79,5.125 22.709,11.075 29.363,26.959 3.652,-1.452 13.571,-7.99 17.593,-12.603 l 22.609,6.913 C 30.544,-10.332 6.448,-1.263 0,0"
             style="fill:#000000;fill-opacity:1;fill-rule:nonzero;stroke:none"
             id="path64" />
        </g>
        <g
           id="g66"
           transform="translate(376.8521,293.4702)">
          <path
             d="m 0,0 c -0.062,-3.51 -1.051,-6.553 -2.842,-7.1 -0.55,-0.169 -1.036,-0.108 -1.036,0.853 v 2.739 c 0,1.586 -0.614,2.279 -1.934,1.875 -0.99,-0.303 -2.011,-1.351 -2.656,-2.333 0.63,2.131 1.589,5.115 2.531,7.565 L -7.774,3.038 c -1.4,-4.112 -2.83,-9.163 -4.164,-14.473 l 1.728,0.529 c 0.205,0.88 0.535,2.342 0.848,3.302 0.504,1.468 2.009,3.867 3.143,4.213 0.501,0.154 0.768,0.042 0.768,-1.015 v -2.627 c 0,-1.762 1.005,-2.207 2.483,-1.755 3.203,0.979 4.524,5.179 4.649,9.302 z"
             style="fill:#000000;fill-opacity:1;fill-rule:nonzero;stroke:none"
             id="path68" />
        </g>
        <g
           id="g70"
           transform="translate(337.5317,284.477)">
          <path
             d="m 0,0 1.824,0.622 v 1.569 l -12.789,-4.198 v -1.601 l 6.958,2.367 c -2.102,-1.813 -3.676,-4.248 -3.676,-6.522 0,-3.509 2.94,-4.468 7.762,-2.994 l 0.36,0.11 v 1.634 c -3.55,-1.086 -6.487,-1.102 -6.487,1.894 0,2.61 3.017,5.824 6.048,7.119"
             style="fill:#000000;fill-opacity:1;fill-rule:nonzero;stroke:none"
             id="path72" />
        </g>
        <g
           id="g74"
           transform="translate(292.8989,225.8407)">
          <path
             d="m 0,0 -3.399,-1.039 c -2.225,-0.687 -4.674,-0.024 -6.363,2.472 l -7.756,11.459 -22.538,-6.891 10.204,-15.127 -27.799,-8.499 16.825,55.031 c 0.735,2.405 2.043,3.912 3.835,4.473 l 5.656,1.73 v 9.153 l -27.762,-8.488 -19.977,-65.342 c -0.774,-2.531 -2.27,-3.801 -3.863,-4.288 l -3.441,-1.052 V -39.64 l 93.776,28.671 z"
             style="fill:#000000;fill-opacity:1;fill-rule:nonzero;stroke:none"
             id="path76" />
        </g>
        <g
           id="g78"
           transform="translate(168.7847,160.3573)">
          <path
             d="m 0,0 c 8.57,13.589 9.784,22.14 10.996,31.558 0.423,3.408 2.045,5.169 3.879,5.73 l 3.41,1.042 V 51.038 L -61.519,26.64 V 13.178 l 49.978,15.279 c -2.016,-31.098 -17.087,-44.454 -45.066,-53.008 l -4.912,-1.502 v -13.293 l 14.795,4.525 c 19.151,5.854 28.396,11.479 39.691,25.385 2.915,-1.416 6.768,-4.884 8.952,-10.514 l 22.523,6.886 C 21.272,-9.171 7.807,-1.03 0,0 m 19.97,55.12 c 3.218,1.001 5.005,4.35 4.004,7.506 -0.938,3.218 -4.35,5.004 -7.506,4.004 -3.218,-1 -4.942,-4.35 -4.004,-7.506 1,-3.218 4.35,-4.942 7.506,-4.004 M -1.646,54.811 c -0.937,3.156 0.787,6.567 4.005,7.505 3.156,0.939 6.506,-0.848 7.506,-4.003 0.938,-3.157 -0.786,-6.506 -4.004,-7.506 -3.156,-0.939 -6.507,0.847 -7.507,4.004"
             style="fill:#000000;fill-opacity:1;fill-rule:nonzero;stroke:none"
             id="path80" />
        </g>
        <g
           id="g82"
           transform="translate(50.3437,214.0263)">
          <path
             d="m 0,0 v -9.828 l 1.964,0.6 c 2.957,0.904 4.398,-0.066 4.398,-1.913 V -46.05 c 0,-8.886 -3.521,-15.422 -11.043,-17.732 l -39.154,-11.971 v -13.222 l 54.753,16.741 c 11.085,3.349 18.154,13.448 18.154,26.61 v 40.223 c 0,2.78 0.947,4.751 3.723,5.599 l 2.409,0.737 v 9.828 z m -19.411,-53.532 -30.933,-9.457 v 9.808 l 2.546,0.779 c 2.739,0.838 3.727,2.894 3.727,5.635 v 20.204 c 0,1.845 -1.433,2.823 -4.394,1.917 l -1.879,-0.574 v 9.828 l 30.933,9.457 v -9.828 l -2.54,-0.776 c -2.747,-0.84 -3.733,-2.902 -3.733,-5.617 V -42.36 c 0,-1.858 1.447,-2.838 4.4,-1.936 l 1.873,0.572 z"
             style="fill:#000000;fill-opacity:1;fill-rule:nonzero;stroke:none"
             id="path84" />
        </g>
        <g
           id="g86"
           transform="translate(497.5327,265.853)">
          <path
             d="m 0,0 -1.47,-8.187 -0.018,-0.006 -1.507,7.163 -2.5,-0.86 v -9.684 l 1.6,0.551 v 8.089 l 1.526,-7.565 1.692,0.582 1.563,8.627 v -8.089 l 1.582,0.544 v 9.684 z m -13.238,-4.559 6.806,2.342 v -1.712 l -2.48,-0.854 v -7.966 l -1.753,-0.603 v 7.967 l -2.573,-0.886 z"
             style="fill:#000000;fill-opacity:1;fill-rule:nonzero;stroke:none"
             id="path88" />
        </g>
      </g>
    </g>
  </g>
</svg>
