<?xml version="1.0" encoding="UTF-8" standalone="no"?>
<!-- Created with Inkscape (http://www.inkscape.org/) -->

<svg
   version="1.1"
   id="svg1"
   width="666.66669"
   height="597.77332"
   viewBox="0 0 666.66669 597.77332"
   sodipodi:docname="Rhythm Heaven Groove Logo (Print).ai"
   xmlns:inkscape="http://www.inkscape.org/namespaces/inkscape"
   xmlns:sodipodi="http://sodipodi.sourceforge.net/DTD/sodipodi-0.dtd"
   xmlns="http://www.w3.org/2000/svg"
   xmlns:svg="http://www.w3.org/2000/svg">
  <defs
     id="defs1">
    <clipPath
       clipPathUnits="userSpaceOnUse"
       id="clipPath2">
      <path
         d="M 0,448.33 H 500 V 0 H 0 Z"
         transform="translate(-484.70701,-259.68521)"
         id="path2" />
    </clipPath>
    <clipPath
       clipPathUnits="userSpaceOnUse"
       id="clipPath4">
      <path
         d="M 0,448.33 H 500 V 0 H 0 Z"
         transform="translate(-473.74221,-259.68521)"
         id="path4" />
    </clipPath>
    <clipPath
       clipPathUnits="userSpaceOnUse"
       id="clipPath6">
      <path
         d="M 0,448.33 H 500 V 0 H 0 Z"
         transform="translate(-466.43261,-259.68521)"
         id="path6" />
    </clipPath>
    <clipPath
       clipPathUnits="userSpaceOnUse"
       id="clipPath8">
      <path
         d="M 0,448.33 H 500 V 0 H 0 Z"
         transform="translate(-498.85061,-224.0372)"
         id="path8" />
    </clipPath>
    <clipPath
       clipPathUnits="userSpaceOnUse"
       id="clipPath10">
      <path
         d="M 0,448.33 H 500 V 0 H 0 Z"
         transform="translate(-393.60151,-158.2975)"
         id="path10" />
    </clipPath>
    <clipPath
       clipPathUnits="userSpaceOnUse"
       id="clipPath12">
      <path
         d="M 0,448.33 H 500 V 0 H 0 Z"
         transform="translate(-361.40911,-171.2204)"
         id="path12" />
    </clipPath>
    <clipPath
       clipPathUnits="userSpaceOnUse"
       id="clipPath14">
      <path
         d="M 0,448.33 H 500 V 0 H 0 Z"
         transform="translate(-306.40331,-113.11)"
         id="path14" />
    </clipPath>
    <clipPath
       clipPathUnits="userSpaceOnUse"
       id="clipPath16">
      <path
         d="M 0,448.33 H 500 V 0 H 0 Z"
         transform="translate(-252.7519,-100.7243)"
         id="path16" />
    </clipPath>
    <clipPath
       clipPathUnits="userSpaceOnUse"
       id="clipPath18">
      <path
         d="M 0,448.33 H 500 V 0 H 0 Z"
         transform="translate(-194.1211,-98.912705)"
         id="path18" />
    </clipPath>
    <clipPath
       clipPathUnits="userSpaceOnUse"
       id="clipPath20">
      <path
         d="M 0,448.33 H 500 V 0 H 0 Z"
         transform="translate(-133.8745,-138.5495)"
         id="path20" />
    </clipPath>
    <clipPath
       clipPathUnits="userSpaceOnUse"
       id="clipPath22">
      <path
         d="M 0,448.33 H 500 V 0 H 0 Z"
         transform="translate(-401.51751,-238.5407)"
         id="path22" />
    </clipPath>
    <clipPath
       clipPathUnits="userSpaceOnUse"
       id="clipPath24">
      <path
         d="M 0,448.33 H 500 V 0 H 0 Z"
         transform="translate(-369.95501,-304.87371)"
         id="path24" />
    </clipPath>
    <clipPath
       clipPathUnits="userSpaceOnUse"
       id="clipPath26">
      <path
         d="M 0,448.33 H 500 V 0 H 0 Z"
         transform="translate(-319.17971,-236.6066)"
         id="path26" />
    </clipPath>
    <clipPath
       clipPathUnits="userSpaceOnUse"
       id="clipPath28">
      <path
         d="M 0,448.33 H 500 V 0 H 0 Z"
         transform="translate(-286.2646,-276.51721)"
         id="path28" />
    </clipPath>
    <clipPath
       clipPathUnits="userSpaceOnUse"
       id="clipPath30">
      <path
         d="M 0,448.33 H 500 V 0 H 0 Z"
         transform="translate(-246.84621,-217.08661)"
         id="path30" />
    </clipPath>
    <clipPath
       clipPathUnits="userSpaceOnUse"
       id="clipPath32">
      <path
         d="M 0,448.33 H 500 V 0 H 0 Z"
         transform="translate(-204.70411,-206.49481)"
         id="path32" />
    </clipPath>
    <clipPath
       clipPathUnits="userSpaceOnUse"
       id="clipPath34">
      <path
         d="M 0,448.33 H 500 V 0 H 0 Z"
         transform="translate(-167.2915,-257.6066)"
         id="path34" />
    </clipPath>
    <clipPath
       clipPathUnits="userSpaceOnUse"
       id="clipPath36">
      <path
         d="M 0,448.33 H 500 V 0 H 0 Z"
         transform="translate(-381.70801,-388.02061)"
         id="path36" />
    </clipPath>
    <clipPath
       clipPathUnits="userSpaceOnUse"
       id="clipPath38">
      <path
         d="M 0,448.33 H 500 V 0 H 0 Z"
         transform="translate(-316.90231,-354.72911)"
         id="path38" />
    </clipPath>
    <clipPath
       clipPathUnits="userSpaceOnUse"
       id="clipPath40">
      <path
         d="M 0,448.33 H 500 V 0 H 0 Z"
         transform="translate(-252.0976,-349.90391)"
         id="path40" />
    </clipPath>
    <clipPath
       clipPathUnits="userSpaceOnUse"
       id="clipPath42">
      <path
         d="M 0,448.33 H 500 V 0 H 0 Z"
         transform="translate(-247.51951,-334.37411)"
         id="path42" />
    </clipPath>
    <clipPath
       clipPathUnits="userSpaceOnUse"
       id="clipPath44">
      <path
         d="M 0,448.33 H 500 V 0 H 0 Z"
         transform="translate(-190.5547,-335.34291)"
         id="path44" />
    </clipPath>
    <clipPath
       clipPathUnits="userSpaceOnUse"
       id="clipPath46">
      <path
         d="M 0,448.33 H 500 V 0 H 0 Z"
         transform="translate(-126.9448,-300.20721)"
         id="path46" />
    </clipPath>
  </defs>
  <sodipodi:namedview
     id="namedview1"
     pagecolor="#ffffff"
     bordercolor="#000000"
     borderopacity="0.25"
     inkscape:showpageshadow="2"
     inkscape:pageopacity="0.0"
     inkscape:pagecheckerboard="0"
     inkscape:deskcolor="#d1d1d1">
    <inkscape:page
       x="0"
       y="0"
       inkscape:label="1"
       id="page1"
       width="666.66669"
       height="597.77332"
       margin="0"
       bleed="0" />
  </sodipodi:namedview>
  <g
     id="layer-MC0"
     inkscape:groupmode="layer"
     inkscape:label="Layer 1">
    <path
       id="path1"
       d="m 0,0 c 0,31.898 -16.013,60.108 -40.387,76.963 0.302,3.087 0.46,6.18 0.46,9.266 0,27.556 -10.631,53.35 -29.933,72.632 -19.228,19.206 -44.848,29.784 -72.14,29.784 -37.223,0 -69.845,-20.354 -87.636,-50.666 -8.037,2.135 -16.473,3.278 -25.172,3.278 -18.209,0 -35.273,-4.991 -49.907,-13.668 -13.65,7.385 -29.266,11.581 -45.845,11.581 -53.302,0 -96.667,-43.364 -96.667,-96.666 0,-16.762 4.291,-32.54 11.829,-46.297 -10.727,-15.043 -17.062,-33.519 -17.062,-53.471 0,-50.38 40.36,-91.367 89.971,-91.367 5.104,0 10.108,0.441 14.983,1.274 11.462,-4.619 24.119,-7.189 37.421,-7.189 19.923,0 38.406,5.758 53.578,15.548 11.319,-4.688 23.83,-7.297 36.983,-7.297 22.271,0 42.711,7.472 58.612,19.874 6.573,-1.35 13.377,-2.059 20.344,-2.059 33.484,0 63.209,16.388 81.588,41.561 C -24.478,-73.252 0,-39.442 0,0"
       style="fill:#000000;fill-opacity:1;fill-rule:nonzero;stroke:none"
       transform="matrix(1.3333333,0,0,-1.3333333,646.276,251.5264)"
       clip-path="url(#clipPath2)" />
    <path
       id="path3"
       d="m 0,0 c 0,30.536 -16.625,57.226 -41.247,71.468 0.854,4.901 1.32,9.839 1.32,14.761 0,24.625 -9.488,47.664 -26.718,64.874 -17.157,17.139 -40.025,26.577 -64.39,26.577 -36.252,0 -67.614,-21.669 -82.22,-52.931 -9.523,3.58 -19.83,5.543 -30.588,5.543 -18.448,0 -35.573,-5.764 -49.679,-15.581 -13.317,8.527 -29.121,13.495 -46.073,13.495 -47.256,0 -85.702,-38.446 -85.702,-85.702 0,-17.388 5.219,-33.573 14.153,-47.099 -12.06,-14.12 -19.387,-32.535 -19.387,-52.669 0,-44.334 35.443,-80.402 79.007,-80.402 5.547,0 10.962,0.591 16.19,1.704 10.936,-4.872 23.225,-7.619 36.213,-7.619 19.916,0 38.201,6.438 52.455,17.135 11.357,-5.663 24.332,-8.884 38.106,-8.884 21.637,0 41.296,7.947 55.803,20.839 7.391,-1.969 15.151,-3.025 23.153,-3.025 31.017,0 58.418,15.771 74.609,39.714 C -23.009,-66.544 0,-35.929 0,0"
       style="fill:#ffffff;fill-opacity:1;fill-rule:nonzero;stroke:none"
       transform="matrix(1.3333333,0,0,-1.3333333,631.65627,251.5264)"
       clip-path="url(#clipPath4)" />
    <path
       id="path5"
       d="m 0,0 c 0,29.75 -17.208,55.456 -42.164,67.622 1.461,6.095 2.237,12.337 2.237,18.607 0,47.018 -37.598,84.141 -83.799,84.141 -35.844,0 -66.41,-22.953 -78.318,-55.201 -10.441,5.006 -22.137,7.813 -34.489,7.813 -18.696,0 -35.879,-6.441 -49.492,-17.203 -12.968,9.497 -28.954,15.117 -46.26,15.117 -43.295,0 -78.392,-35.098 -78.392,-78.392 0,-17.942 6.041,-34.465 16.182,-47.677 -13.214,-13.259 -21.416,-31.695 -21.416,-52.091 0,-40.368 32.099,-73.092 71.696,-73.092 5.835,0 11.501,0.727 16.931,2.069 10.563,-5.091 22.64,-7.984 35.473,-7.984 20.03,0 38.212,7.049 51.666,18.514 11.279,-6.496 24.605,-10.263 38.895,-10.263 21.308,0 40.485,8.357 53.894,21.692 7.906,-2.513 16.324,-3.878 25.062,-3.878 29.411,0 55.218,15.368 69.878,38.498 C -22.043,-62.167 0,-33.672 0,0"
       style="fill:#000000;fill-opacity:1;fill-rule:nonzero;stroke:none"
       transform="matrix(1.3333333,0,0,-1.3333333,621.91013,251.5264)"
       clip-path="url(#clipPath6)" />
    <path
       id="path7"
       d="m 0,0 -321.927,-80.958 8.176,16.261 c 0.343,0.682 -0.245,1.461 -0.995,1.319 l -66.013,-12.515 -47.774,47.324 c -0.542,0.537 -1.465,0.219 -1.562,-0.538 l -8.506,-66.677 -59.751,-30.795 c -0.678,-0.349 -0.661,-1.326 0.029,-1.652 l 60.781,-28.728 10.828,-66.305 c 0.123,-0.753 1.056,-1.038 1.58,-0.483 l 46.073,48.94 66.466,-10.214 c 0.755,-0.115 1.314,0.684 0.948,1.354 l -11.055,20.179 287.61,52.463 c 0.752,0.137 1.02,1.078 0.452,1.59 l -12.53,11.302 26.551,28.583 c 0.417,0.449 0.287,1.174 -0.261,1.449 L -41.628,-57.655 0.959,-1.45 C 1.484,-0.756 0.844,0.212 0,0"
       style="fill:#ffffff;fill-opacity:1;fill-rule:nonzero;stroke:none"
       transform="matrix(1.3333333,0,0,-1.3333333,665.13413,299.05707)"
       clip-path="url(#clipPath8)" />
    <path
       id="path9"
       d="M 0,0 C 4.11,1.541 12.714,3.851 19.94,5.42 V 27.538 L -16.174,19.2 v -59.116 l 36.057,8.324 v 9.849 c -4.741,-1.241 -14.511,-3.081 -18.812,-3.811 -5.238,-0.883 -5.984,5.712 -0.191,7.617 3.326,1.086 9.425,2.539 14.185,3.874 v 7.584 C 10.726,-7.359 4.856,-8.381 0.229,-9.035 -5.506,-9.863 -6.5,-2.437 0,0"
       style="fill:#000000;fill-opacity:1;fill-rule:nonzero;stroke:none"
       transform="matrix(1.3333333,0,0,-1.3333333,524.802,386.71)"
       clip-path="url(#clipPath10)" />
    <path
       id="path11"
       d="m 0,0 c -1.929,-17.759 -5.023,-29.092 -5.406,-30.696 -0.802,-3.325 -2.484,-4.949 -4.413,-5.235 -3.114,-0.497 -4.623,1.777 -5.827,7.508 -0.114,0.535 -2.715,11.728 -4.565,26.268 l -13.921,-3.214 c 1.662,-13.354 5.414,-29.275 8.948,-40.851 3.554,-11.653 6.646,-14.479 13.722,-12.845 6.239,1.44 10.022,4.678 12.997,16.076 2.923,11.194 6.158,27.255 8.757,45.365 z"
       style="fill:#000000;fill-opacity:1;fill-rule:nonzero;stroke:none"
       transform="matrix(1.3333333,0,0,-1.3333333,481.8788,369.47947)"
       clip-path="url(#clipPath12)" />
    <path
       id="path13"
       d="m 0,0 c -3.187,-3.659 -9.897,-5.362 -13.349,-1.659 -0.922,0.989 -2.66,2.577 -3.415,7.249 -1.77,10.952 2.503,16.744 8.398,18.005 1.813,0.388 4.401,-0.066 6.111,-0.741 4.522,-1.783 6.306,-6.02 6.519,-8.302 C 4.825,8.548 3.125,3.588 0,0 M 16.827,32.614 C 13.463,41.253 6.199,47.084 -2.442,46.84 -9.371,46.646 -20.955,42.844 -26.44,28.01 -30.453,17.158 -28.775,6.718 -26.952,1.865 c 2.573,-6.845 6.148,-9.877 10.475,-11.883 5.254,-2.434 9.871,-2.366 13.189,-1.711 11.285,2.23 17.147,13.401 19.341,18.966 3.485,8.843 3.132,19.321 0.774,25.377"
       style="fill:#000000;fill-opacity:1;fill-rule:nonzero;stroke:none"
       transform="matrix(1.3333333,0,0,-1.3333333,408.53773,446.96)"
       clip-path="url(#clipPath14)" />
    <path
       id="path15"
       d="m 0,0 c -3.187,-3.66 -9.897,-5.363 -13.349,-1.66 -0.922,0.99 -2.659,2.577 -3.415,7.249 -1.77,10.952 2.503,16.744 8.398,18.006 1.813,0.387 4.401,-0.066 6.111,-0.741 C 2.267,21.071 4.051,16.833 4.264,14.551 4.825,8.548 3.125,3.588 0,0 M 16.827,32.613 C 13.464,41.253 6.199,47.083 -2.442,46.84 -9.371,46.645 -20.955,42.843 -26.44,28.01 -30.453,17.157 -28.776,6.718 -26.952,1.864 c 2.574,-6.845 6.148,-9.877 10.475,-11.882 5.255,-2.434 9.871,-2.367 13.188,-1.711 11.286,2.23 17.149,13.401 19.342,18.965 3.485,8.843 3.132,19.321 0.774,25.377"
       style="fill:#000000;fill-opacity:1;fill-rule:nonzero;stroke:none"
       transform="matrix(1.3333333,0,0,-1.3333333,337.00253,463.47427)"
       clip-path="url(#clipPath16)" />
    <path
       id="path17"
       d="m 0,0 c -4.918,-1.135 -8.525,1.486 -8.525,5.605 0,4.718 4.51,9.477 9.221,10.565 1.35,0.311 2.604,0.383 3.783,0.09 l -7.176,10.616 c 2.004,2.164 5.192,2.845 7.837,2.81 6.111,-0.082 11.744,-4.757 11.744,-8.81 0,-1.819 -0.811,-3.356 -1.895,-4.562 -0.651,-0.723 -1.047,-0.566 -0.886,-0.043 0.251,0.818 0.435,1.668 0.435,2.31 0,2.796 -3.469,4.364 -6.44,3.678 -1.15,-0.266 -2.49,-0.613 -3.904,-1.894 L 8.438,13.527 C 8.926,12.74 9.245,11.704 9.245,10.581 9.245,5.965 4.902,1.132 0,0 m 23.603,17.035 c 0,18.312 -18.187,23.502 -40.1,15.737 v -57.608 l 9.402,2.171 v 13.297 c 0,2.259 1.674,1.868 3.22,0.5 1.085,-0.963 7.613,-7.235 12.174,-11.745 l 14.353,3.314 c 0,0 -12.513,12.678 -13.957,13.932 8.406,3.135 14.908,11.28 14.908,20.402"
       style="fill:#000000;fill-opacity:1;fill-rule:nonzero;stroke:none"
       transform="matrix(1.3333333,0,0,-1.3333333,258.82813,465.88973)"
       clip-path="url(#clipPath18)" />
    <path
       id="path19"
       d="m 0,0 c 19.137,4.418 32.529,-11.175 33.126,-29.239 l -19.592,-4.524 c -1.634,10.633 -10.151,13.673 -17.21,8.379 -5.758,-4.318 -8.829,-12.728 -8.829,-21.944 0,-11.529 7.329,-18.299 13.401,-16.898 5.171,1.195 9.356,4.188 12.138,11.043 L 6.56,-54.678 v 11.889 l 26.625,6.147 v -31.537 l -9.296,-2.145 v 8.948 C 18.168,-69.449 9.81,-74.885 0.866,-75.116 c -7.949,-0.206 -21.085,2.868 -26.348,18.034 -4.286,12.349 -2.518,26.398 1.549,35.811 C -18.831,-9.465 -10.132,-2.339 0,0"
       style="fill:#000000;fill-opacity:1;fill-rule:nonzero;stroke:none"
       transform="matrix(1.3333333,0,0,-1.3333333,178.49933,413.04067)"
       clip-path="url(#clipPath20)" />
    <path
       id="path21"
       d="M 0,0 V 6.384 L -1.605,-0.37 -3.344,-0.771 -4.91,5.25 v -6.383 l -1.643,-0.38 V 6.13 l 2.567,0.592 1.548,-5.704 0.018,0.004 1.51,6.411 2.534,0.585 V 0.375 Z m -11.863,-2.739 v 6.287 l -2.644,-0.61 v 1.351 l 6.991,1.614 V 4.552 l -2.547,-0.588 v -6.287 z"
       style="fill:#ffffff;fill-opacity:1;fill-rule:nonzero;stroke:none"
       transform="matrix(1.3333333,0,0,-1.3333333,535.35667,279.71907)"
       clip-path="url(#clipPath22)" />
    <path
       id="path23"
       d="m 0,0 c 0,0 -0.104,-26.95 -0.438,-31.69 -0.525,-7.405 -2.514,-7.603 -4.208,-6.493 -3.377,2.216 -9.69,14.838 -15.342,25.813 l -8.246,-1.903 v -68.199 l 10.083,2.328 0.034,17.305 c 0.017,8.882 2.442,9.46 5.967,6.234 2.673,-2.449 6.313,-7.848 12.046,-17.03 l 13.343,3.081 V 3.057 Z"
       style="fill:#ffffff;fill-opacity:1;fill-rule:nonzero;stroke:none"
       transform="matrix(1.3333333,0,0,-1.3333333,493.27333,191.27507)"
       clip-path="url(#clipPath24)" />
    <path
       id="path25"
       d="m 0,0 c -0.306,-0.001 -2.57,0.076 -2.813,1.804 -0.14,1 0.34,1.94 1.548,2.679 1.89,1.156 8.432,3.036 14.711,4.509 v 8.682 c 0,0 -11.369,-2.736 -14.865,-2.216 -1.062,0.159 -1.769,0.72 -1.91,1.701 -0.144,1.003 0.361,1.906 1.549,2.679 3.197,2.083 17.549,5.179 17.549,5.179 l 10e-4,20.034 -29.551,-6.822 v -53.404 l 30.17,6.965 V 2.886 C 8.336,1.056 2.894,0.016 0,0"
       style="fill:#ffffff;fill-opacity:1;fill-rule:nonzero;stroke:none"
       transform="matrix(1.3333333,0,0,-1.3333333,425.57293,282.29787)"
       clip-path="url(#clipPath26)" />
    <path
       id="path27"
       d="m 0,0 c 0,0 -3.201,-21.091 -6.044,-30.838 -0.812,-2.785 -2.775,-7.046 -5.445,-0.953 -0.957,2.182 -3.796,12.378 -5.879,25.522 l -9.219,-2.128 c 0.807,-9.038 5.233,-33.449 11.129,-47.669 l 17.879,4.127 c 6.581,17.417 10.53,35.813 11.872,55.239 z"
       style="fill:#ffffff;fill-opacity:1;fill-rule:nonzero;stroke:none"
       transform="matrix(1.3333333,0,0,-1.3333333,381.68613,229.08373)"
       clip-path="url(#clipPath28)" />
    <path
       id="path29"
       d="m 0,0 c -1.424,-0.31 -4.664,-1.13 -6.319,-1.44 -1.585,-0.31 -2.511,0.584 -2.315,2.844 0.178,2.117 1.108,6.601 1.46,8.116 0.779,3.35 2.311,4.746 4.112,4.997 C -0.753,14.839 1.264,12.821 2.367,7.35 2.474,6.821 2.744,5.724 2.919,4.231 3.132,2.42 2.243,0.565 0,0 m 7.879,30.234 c -4.473,8.244 -9.677,6.536 -12.343,5.653 -3.494,-1.156 -6.594,-2.95 -9.839,-15.819 -3.41,-13.528 -7.123,-41.944 -7.123,-41.944 l 9.362,2.161 0.961,5.388 c 0.465,2.601 2.122,4.255 4.646,4.998 0,0 7.254,1.883 9.73,2.164 1.046,0.119 2.275,-0.707 2.633,-2.345 l 1.264,-5.797 12.749,2.944 c 0,0 -6.342,32.101 -12.04,42.597"
       style="fill:#ffffff;fill-opacity:1;fill-rule:nonzero;stroke:none"
       transform="matrix(1.3333333,0,0,-1.3333333,329.12827,308.32453)"
       clip-path="url(#clipPath30)" />
    <path
       id="path31"
       d="m 0,0 c -0.306,-0.002 -2.571,0.075 -2.813,1.804 -0.14,1.001 0.34,1.94 1.548,2.679 1.89,1.156 8.432,3.037 14.711,4.509 v 8.682 c 0,0 -11.369,-2.736 -14.865,-2.215 -1.062,0.157 -1.769,0.719 -1.91,1.7 -0.144,1.003 0.361,1.906 1.548,2.679 3.198,2.083 17.55,5.179 17.55,5.179 v 21.594 l -29.55,-6.822 -10e-4,-53.405 30.17,6.966 V 2.886 C 8.336,1.057 2.894,0.016 0,0"
       style="fill:#ffffff;fill-opacity:1;fill-rule:nonzero;stroke:none"
       transform="matrix(1.3333333,0,0,-1.3333333,272.9388,322.44693)"
       clip-path="url(#clipPath32)" />
    <path
       id="path33"
       d="m 0,0 c 0.284,-10.641 0.169,-18.605 -1.291,-23.832 -0.886,-3.174 -2.838,-5.591 -5.445,-7.42 -2.655,-1.863 -5.317,-2.68 -7.923,-2.731 -3.179,-0.063 -5.476,1.174 -5.781,4.509 -0.465,5.076 -0.671,12.17 -0.517,21.059 l -11.536,-2.664 V -89.66 l 15.847,3.659 c -0.284,10.022 0.057,17.457 1.29,22.054 0.84,3.133 3.139,5.785 5.445,7.343 2.696,1.82 5.312,2.766 7.924,2.809 3.174,0.05 5.481,-1.421 5.78,-4.586 0.439,-4.638 0.646,-11.329 0.517,-19.857 l 11.794,2.723 V 3.718 Z"
       style="fill:#ffffff;fill-opacity:1;fill-rule:nonzero;stroke:none"
       transform="matrix(1.3333333,0,0,-1.3333333,223.05533,254.29787)"
       clip-path="url(#clipPath34)" />
    <path
       id="path35"
       d="m 0,0 c -4.919,-16.244 -7.704,-24.187 -10.129,-30.882 -4.134,-11.393 -8.421,-6.918 -10.42,-3.741 -2.322,3.724 -5.482,10.966 -10.966,24.238 l -13.545,-3.126 v -63.762 l 11.24,2.595 c -0.086,10.163 0.085,17.064 0.632,19.745 0.495,2.409 1.947,2.75 3.416,0.359 1.212,-1.964 3.126,-6.218 6.935,-14.963 l 7.53,1.739 c 4.151,11.154 6.391,16.777 7.979,19.527 1.281,2.238 3.724,3.809 4.458,-0.324 0.564,-3.126 0.513,-11.606 0.496,-21.991 l 11.649,2.689 V 2.141 Z"
       style="fill:#ffffff;fill-opacity:1;fill-rule:nonzero;stroke:none"
       transform="matrix(1.3333333,0,0,-1.3333333,508.944,80.412533)"
       clip-path="url(#clipPath36)" />
    <path
       id="path37"
       d="m 0,0 c -0.051,-8.711 -0.034,-16.654 -0.409,-19.558 -0.872,-6.935 -12.726,-10.061 -13.307,-3.672 -0.273,3.006 -0.513,6.978 -0.513,15.843 L -23.811,-9.6 v -58.417 l 12.213,2.82 c 0,9.275 0,13.305 0.154,16.482 0.427,8.37 12.999,10.266 14.091,2.989 0.497,-3.314 0.582,-4.902 0.582,-12.383 l 9.736,2.247 V 2.993 Z"
       style="fill:#ffffff;fill-opacity:1;fill-rule:nonzero;stroke:none"
       transform="matrix(1.3333333,0,0,-1.3333333,422.5364,124.8012)"
       clip-path="url(#clipPath38)" />
    <path
       id="path39"
       d="m 0,0 v -23.514 l 6.815,1.574 c 4.133,0.954 5.841,0.416 5.841,-6.901 v -30.183 l 11.189,2.563 v 27.689 c 0,12.298 1.154,15.402 7.242,16.807 l 5.568,1.286 V 8.463 Z"
       style="fill:#ffffff;fill-opacity:1;fill-rule:nonzero;stroke:none"
       transform="matrix(1.3333333,0,0,-1.3333333,336.13013,131.2348)"
       clip-path="url(#clipPath40)" />
    <path
       id="path41"
       d="m 0,0 -10.454,-2.414 c 0,0 0.154,-10.76 -0.255,-18.686 -0.599,-11.598 -12.282,-14.092 -13.221,-3.058 -0.479,5.791 -0.701,17.332 -0.701,17.332 l -12.998,-3.001 v -9.411 c 0,-22.462 14.604,-25.229 22.239,-18.824 0.461,0.394 0.923,0.633 1.298,0.462 0.427,-0.188 0.41,-0.65 0.239,-1.504 -0.461,-2.237 -3.774,-6.661 -10.47,-8.455 -5.108,-1.366 -10.112,-2.228 -12.606,-2.621 v -15.587 c 11.239,1.452 24.255,4.663 30.319,13.99 3.16,4.868 4.817,10.009 5.636,17.627 C 0.308,-22.159 0,0 0,0"
       style="fill:#ffffff;fill-opacity:1;fill-rule:nonzero;stroke:none"
       transform="matrix(1.3333333,0,0,-1.3333333,330.026,151.9412)"
       clip-path="url(#clipPath42)" />
    <path
       id="path43"
       d="m 0,0 c -0.051,-8.711 -0.034,-16.654 -0.41,-19.558 -0.871,-6.935 -12.726,-10.061 -13.306,-3.672 -0.274,3.006 -0.513,6.978 -0.513,15.843 L -23.811,-9.6 v -58.417 l 12.213,2.82 c 0,9.275 0,13.305 0.154,16.482 0.426,8.37 12.998,10.266 14.091,2.989 0.496,-3.314 0.581,-4.902 0.581,-12.384 l 9.736,2.248 V 2.993 Z"
       style="fill:#ffffff;fill-opacity:1;fill-rule:nonzero;stroke:none"
       transform="matrix(1.3333333,0,0,-1.3333333,254.07293,150.64947)"
       clip-path="url(#clipPath44)" />
    <path
       id="path45"
       d="m 0,0 c -4.663,-1.093 -7.259,1.503 -7.259,7.055 v 5.363 c -10e-4,3.868 0.751,7.225 4.201,8.318 C 6.96,23.91 13.938,19.592 13.938,12.811 13.938,6.474 9.087,2.135 0,0 m 33.769,23.179 c 0,24.648 -24.118,31.805 -53.617,21.266 v -79.566 l 12.572,2.903 v 19.92 c 0,3.04 2.237,2.51 4.304,0.666 1.452,-1.298 10.18,-9.753 16.278,-15.834 l 19.192,4.43 c 0,0 -16.732,17.092 -18.663,18.783 11.24,4.202 19.934,15.152 19.934,27.432"
       style="fill:#ffffff;fill-opacity:1;fill-rule:nonzero;stroke:none"
       transform="matrix(1.3333333,0,0,-1.3333333,169.25973,197.49707)"
       clip-path="url(#clipPath46)" />
  </g>
</svg>
