<?xml version="1.0" encoding="UTF-8" standalone="no"?>
<!-- Created with Inkscape (http://www.inkscape.org/) -->

<svg
   version="1.1"
   id="svg2"
   width="666.66669"
   height="708.07733"
   viewBox="0 0 666.66669 708.07733"
   sodipodi:docname="Rhythm Heaven Groove Logo (Wordmark).ai"
   xmlns:inkscape="http://www.inkscape.org/namespaces/inkscape"
   xmlns:sodipodi="http://sodipodi.sourceforge.net/DTD/sodipodi-0.dtd"
   xmlns="http://www.w3.org/2000/svg"
   xmlns:svg="http://www.w3.org/2000/svg">
  <defs
     id="defs6">
    <clipPath
       clipPathUnits="userSpaceOnUse"
       id="clipPath16">
      <path
         d="M 0,531.058 H 500 V 0 H 0 Z"
         id="path14" />
    </clipPath>
  </defs>
  <sodipodi:namedview
     id="namedview4"
     pagecolor="#ffffff"
     bordercolor="#000000"
     borderopacity="0.25"
     inkscape:showpageshadow="2"
     inkscape:pageopacity="0.0"
     inkscape:pagecheckerboard="0"
     inkscape:deskcolor="#d1d1d1" />
  <g
     id="g8"
     inkscape:groupmode="layer"
     inkscape:label="Rhythm Heaven Groove Logo (Wordmark)"
     transform="matrix(1.3333333,0,0,-1.3333333,0,708.07733)">
    <g
       id="g10">
      <g
         id="g12"
         clip-path="url(#clipPath16)">
        <g
           id="g18"
           transform="translate(467.5901,154.2016)">
          <path
             d="M 0,0 C 6.681,2.506 20.664,6.26 32.41,8.81 V 44.759 L -26.288,31.208 v -96.084 l 58.604,13.529 V -35.34 C 24.61,-37.356 8.731,-40.348 1.74,-41.533 c -8.513,-1.436 -9.725,9.284 -0.31,12.381 5.407,1.765 15.319,4.126 23.056,6.297 V -10.53 C 17.433,-11.962 7.893,-13.62 0.373,-14.685 -8.949,-16.03 -10.564,-3.96 0,0"
             style="fill:#000000;fill-opacity:1;fill-rule:nonzero;stroke:none"
             id="path20" />
        </g>
        <g
           id="g22"
           transform="translate(415.2659,175.2065)">
          <path
             d="m 0,0 c -3.134,-28.864 -8.165,-47.284 -8.786,-49.892 -1.304,-5.403 -4.036,-8.042 -7.173,-8.507 -5.061,-0.808 -7.514,2.887 -9.47,12.202 -0.186,0.87 -4.415,19.062 -7.421,42.694 l -22.627,-5.224 c 2.703,-21.704 8.801,-47.58 14.546,-66.396 5.775,-18.94 10.8,-23.534 22.302,-20.878 10.14,2.34 16.287,7.605 21.124,26.129 4.751,18.195 10.01,44.299 14.233,73.733 z"
             style="fill:#000000;fill-opacity:1;fill-rule:nonzero;stroke:none"
             id="path24" />
        </g>
        <g
           id="g26"
           transform="translate(325.8636,80.7573)">
          <path
             d="m 0,0 c -5.181,-5.948 -16.088,-8.716 -21.696,-2.697 -1.5,1.609 -4.324,4.188 -5.551,11.782 -2.878,17.801 4.067,27.215 13.648,29.265 2.948,0.63 7.154,-0.107 9.933,-1.204 C 3.683,34.248 6.583,27.36 6.93,23.651 7.841,13.894 5.078,5.832 0,0 M 27.349,53.009 C 21.882,67.05 10.075,76.526 -3.97,76.131 -15.231,75.814 -34.059,69.636 -42.975,45.526 -49.497,27.888 -46.771,10.919 -43.807,3.031 c 4.183,-11.126 9.993,-16.053 17.027,-19.312 8.54,-3.957 16.042,-3.848 21.434,-2.781 18.344,3.624 27.872,21.78 31.437,30.825 5.664,14.373 5.09,31.402 1.258,41.246"
             style="fill:#000000;fill-opacity:1;fill-rule:nonzero;stroke:none"
             id="path28" />
        </g>
        <g
           id="g30"
           transform="translate(238.6614,60.6254)">
          <path
             d="m 0,0 c -5.18,-5.948 -16.087,-8.716 -21.696,-2.697 -1.5,1.608 -4.324,4.188 -5.551,11.782 -2.878,17.801 4.068,27.215 13.649,29.265 2.948,0.63 7.153,-0.107 9.933,-1.204 C 3.684,34.248 6.583,27.36 6.93,23.651 7.842,13.894 5.079,5.832 0,0 M 27.349,53.009 C 21.883,67.05 10.076,76.526 -3.969,76.131 -15.231,75.813 -34.059,69.636 -42.974,45.526 -49.497,27.888 -46.771,10.919 -43.806,3.031 c 4.182,-11.127 9.993,-16.053 17.026,-19.312 8.54,-3.958 16.043,-3.848 21.435,-2.782 18.343,3.625 27.871,21.781 31.436,30.825 5.665,14.374 5.091,31.403 1.258,41.247"
             style="fill:#000000;fill-opacity:1;fill-rule:nonzero;stroke:none"
             id="path32" />
        </g>
        <g
           id="g34"
           transform="translate(143.3665,57.6821)">
          <path
             d="m 0,0 c -7.994,-1.846 -13.857,2.415 -13.857,9.11 0,7.669 7.331,15.404 14.988,17.171 2.195,0.507 4.232,0.621 6.149,0.146 L -4.385,43.682 c 3.259,3.517 8.439,4.625 12.739,4.567 9.932,-0.132 19.088,-7.731 19.088,-14.319 0,-2.956 -1.319,-5.455 -3.08,-7.414 -1.058,-1.176 -1.702,-0.92 -1.441,-0.069 0.408,1.328 0.707,2.71 0.707,3.753 0,4.545 -5.637,7.093 -10.467,5.978 -1.869,-0.431 -4.046,-0.996 -6.345,-3.077 l 6.897,-11.115 c 0.794,-1.279 1.313,-2.964 1.313,-4.788 C 15.026,9.695 7.968,1.84 0,0 m 38.362,27.688 c 0,29.762 -29.559,38.199 -65.175,25.579 v -93.634 l 15.281,3.527 v 21.613 c 0,3.671 2.72,3.037 5.233,0.813 1.765,-1.565 12.375,-11.758 19.787,-19.09 l 23.329,5.387 c 0,0 -20.339,20.606 -22.685,22.644 13.662,5.095 24.23,18.333 24.23,33.161"
             style="fill:#000000;fill-opacity:1;fill-rule:nonzero;stroke:none"
             id="path36" />
        </g>
        <g
           id="g38"
           transform="translate(45.4446,122.1049)">
          <path
             d="m 0,0 c 31.105,7.181 52.871,-18.162 53.842,-47.524 l -31.844,-7.352 c -2.656,17.282 -16.5,22.223 -27.973,13.618 -9.358,-7.018 -14.35,-20.687 -14.35,-35.666 0,-18.74 11.913,-29.742 21.781,-27.464 8.405,1.941 15.207,6.805 19.73,17.948 l -10.524,-2.43 v 19.323 l 43.276,9.991 v -51.257 l -15.11,-3.488 v 14.543 c -9.298,-13.121 -22.884,-21.955 -37.42,-22.332 -12.919,-0.335 -34.271,4.661 -42.825,29.313 -6.966,20.071 -4.093,42.906 2.518,58.205 C -30.606,-15.383 -16.467,-3.802 0,0"
             style="fill:#000000;fill-opacity:1;fill-rule:nonzero;stroke:none"
             id="path40" />
        </g>
        <g
           id="g42"
           transform="translate(480.4612,284.6147)">
          <path
             d="M 0,0 V 10.377 L -2.608,-0.602 -5.434,-1.254 -7.98,8.534 V -1.842 l -2.671,-0.617 V 9.963 l 4.172,0.963 2.516,-9.272 0.03,0.007 2.454,10.42 4.119,0.95 V 0.609 Z M -19.282,-4.452 V 5.767 l -4.296,-0.992 v 2.196 l 11.363,2.624 V 7.399 L -16.356,6.443 V -3.776 Z"
             style="fill:#000000;fill-opacity:1;fill-rule:nonzero;stroke:none"
             id="path44" />
        </g>
        <g
           id="g46"
           transform="translate(429.1605,392.4311)">
          <path
             d="m 0,0 c 0,0 -0.168,-43.803 -0.714,-51.508 -0.545,-7.706 -1.878,-10.903 -3.984,-11.223 -1.004,-0.153 -2.012,0.118 -2.853,0.669 -5.491,3.603 -15.752,24.117 -24.938,41.957 L -45.893,-23.2 v -110.848 l 16.23,3.746 0.215,28.164 c 0,5.863 0.629,9.758 1.971,11.6 0.461,0.628 1.215,1.056 1.93,1.173 4.726,0.769 14.011,-11.223 25.379,-30.32 l 21.688,5.008 V 4.968 Z"
             style="fill:#000000;fill-opacity:1;fill-rule:nonzero;stroke:none"
             id="path48" />
        </g>
        <g
           id="g50"
           transform="translate(346.6302,281.4711)">
          <path
             d="m 0,0 c -0.497,-0.003 -4.179,0.123 -4.572,2.931 -0.228,1.627 0.588,3.099 2.517,4.356 1.678,1.005 4.237,2.051 7.676,3.056 l 16.234,4.272 v 14.113 c 0,0 -18.479,-4.447 -24.162,-3.602 -1.726,0.257 -2.852,1.173 -3.104,2.764 -0.21,1.633 0.588,3.099 2.516,4.355 5.198,3.386 28.526,8.418 28.526,8.418 V 73.226 L -22.4,62.137 v -86.804 l 49.038,11.322 V 4.69 C 13.55,1.717 4.703,0.025 0,0"
             style="fill:#000000;fill-opacity:1;fill-rule:nonzero;stroke:none"
             id="path52" />
        </g>
        <g
           id="g54"
           transform="translate(293.1302,346.3412)">
          <path
             d="m 0,0 c 0,0 -5.203,-34.282 -9.823,-50.124 -1.321,-4.526 -4.511,-11.453 -8.852,-1.549 -1.554,3.547 -6.169,20.119 -9.555,41.484 l -14.985,-3.46 c 1.312,-14.69 8.505,-54.366 18.089,-77.482 l 29.062,6.71 c 10.697,28.309 17.115,58.209 19.296,89.784 z"
             style="fill:#000000;fill-opacity:1;fill-rule:nonzero;stroke:none"
             id="path56" />
        </g>
        <g
           id="g58"
           transform="translate(229.0599,249.7436)">
          <path
             d="m 0,0 c -2.315,-0.504 -7.581,-1.838 -10.271,-2.342 -2.576,-0.504 -4.08,0.949 -3.762,4.625 0.289,3.438 1.8,10.729 2.372,13.19 1.267,5.444 3.757,7.714 6.684,8.122 3.753,0.524 7.031,-2.757 8.825,-11.649 C 4.021,11.086 4.459,9.302 4.745,6.877 5.092,3.933 3.646,0.919 0,0 M 12.808,49.142 C 5.535,62.541 -2.922,59.764 -7.256,58.331 -12.934,56.452 -17.974,53.536 -23.247,32.618 -28.791,10.63 -34.825,-35.558 -34.825,-35.558 l 15.217,3.513 1.563,8.757 c 0.754,4.229 3.447,6.917 7.55,8.124 0,0 11.79,3.06 15.815,3.518 1.7,0.193 3.698,-1.149 4.279,-3.811 l 2.055,-9.423 20.723,4.785 c 0,0 -10.309,52.176 -19.569,69.237"
             style="fill:#000000;fill-opacity:1;fill-rule:nonzero;stroke:none"
             id="path60" />
        </g>
        <g
           id="g62"
           transform="translate(160.5628,232.4995)">
          <path
             d="m 0,0 c -0.497,-0.003 -4.179,0.122 -4.572,2.932 -0.228,1.626 0.587,3.098 2.517,4.354 1.678,1.005 4.237,2.052 7.676,3.058 l 16.234,4.271 v 14.113 c 0,0 -18.479,-4.447 -24.162,-3.602 -1.726,0.257 -2.853,1.173 -3.104,2.764 -0.21,1.633 0.587,3.099 2.516,4.355 5.198,3.386 28.526,8.418 28.526,8.418 V 75.797 L -22.4,64.708 V -22.111 L 26.638,-10.79 V 4.69 C 13.549,1.717 4.703,0.025 0,0"
             style="fill:#000000;fill-opacity:1;fill-rule:nonzero;stroke:none"
             id="path64" />
        </g>
        <g
           id="g66"
           transform="translate(99.7523,315.6044)">
          <path
             d="m 0,0 c 0.462,-17.295 0.276,-30.242 -2.097,-38.736 -1.442,-5.16 -4.614,-9.088 -8.851,-12.061 -4.316,-3.029 -8.642,-4.355 -12.879,-4.439 -5.166,-0.102 -8.9,1.909 -9.396,7.329 -0.755,8.249 -1.09,19.781 -0.839,34.229 l -18.751,-4.329 v -127.725 l 25.756,5.946 c -0.461,16.29 0.094,28.374 2.098,35.847 1.365,5.093 5.102,9.402 8.851,11.935 4.382,2.959 8.633,4.496 12.878,4.564 5.16,0.084 8.91,-2.309 9.397,-7.454 0.713,-7.537 1.048,-18.412 0.839,-32.273 l 19.17,4.425 V 6.043 Z"
             style="fill:#000000;fill-opacity:1;fill-rule:nonzero;stroke:none"
             id="path68" />
        </g>
        <g
           id="g70"
           transform="translate(448.263,527.5781)">
          <path
             d="m 0,0 c -7.996,-26.403 -12.521,-39.313 -16.464,-50.196 -6.719,-18.518 -13.687,-11.244 -16.935,-6.08 -3.776,6.052 -8.913,17.824 -17.825,39.396 l -22.015,-5.081 v -103.638 l 18.268,4.218 c -0.139,16.519 0.139,27.735 1.027,32.094 0.805,3.914 3.165,4.47 5.552,0.583 1.972,-3.193 5.081,-10.106 11.273,-24.32 l 12.24,2.825 c 6.746,18.13 10.387,27.27 12.969,31.74 2.082,3.637 6.052,6.191 7.246,-0.528 0.916,-5.08 0.833,-18.864 0.805,-35.744 l 18.934,4.372 V 3.48 Z"
             style="fill:#000000;fill-opacity:1;fill-rule:nonzero;stroke:none"
             id="path72" />
        </g>
        <g
           id="g74"
           transform="translate(342.929,473.4662)">
          <path
             d="m 0,0 c -0.083,-14.159 -0.056,-27.069 -0.666,-31.789 -1.416,-11.272 -20.684,-16.353 -21.628,-5.969 -0.444,4.886 -0.833,11.341 -0.833,25.751 l -15.575,-3.596 v -94.95 l 19.85,4.582 c 0,15.076 0,21.626 0.25,26.79 0.695,13.604 21.128,16.686 22.906,4.859 0.804,-5.386 0.943,-7.969 0.943,-20.129 l 15.825,3.654 V 4.865 Z"
             style="fill:#000000;fill-opacity:1;fill-rule:nonzero;stroke:none"
             id="path76" />
        </g>
        <g
           id="g78"
           transform="translate(237.595,465.6235)">
          <path
             d="m 0,0 v -38.219 l 11.078,2.557 c 6.718,1.552 9.495,0.677 9.495,-11.216 v -49.06 l 18.185,4.167 v 45.004 c 0,19.99 1.877,25.035 11.771,27.319 l 9.051,2.09 v 31.113 z"
             style="fill:#000000;fill-opacity:1;fill-rule:nonzero;stroke:none"
             id="path80" />
        </g>
        <g
           id="g82"
           transform="translate(230.1546,440.3813)">
          <path
             d="m 0,0 -16.991,-3.923 c 0,0 0.25,-17.491 -0.416,-30.372 -0.972,-18.852 -19.962,-22.905 -21.489,-4.97 -0.778,9.411 -1.139,28.171 -1.139,28.171 l -21.127,-4.878 V -31.27 c 0,-36.508 23.737,-41.006 36.147,-30.595 0.75,0.639 1.5,1.028 2.11,0.75 0.695,-0.305 0.667,-1.055 0.389,-2.443 -0.75,-3.637 -6.135,-10.828 -17.019,-13.743 -8.301,-2.221 -16.436,-3.622 -20.489,-4.261 v -25.334 c 18.268,2.359 39.424,7.579 49.28,22.737 5.136,7.913 7.829,16.27 9.161,28.652 C 0.5,-36.017 0,0 0,0"
             style="fill:#000000;fill-opacity:1;fill-rule:nonzero;stroke:none"
             id="path84" />
        </g>
        <g
           id="g86"
           transform="translate(137.5643,441.956)">
          <path
             d="m 0,0 c -0.083,-14.159 -0.056,-27.069 -0.667,-31.789 -1.416,-11.272 -20.683,-16.353 -21.627,-5.969 -0.444,4.886 -0.833,11.341 -0.833,25.751 l -15.575,-3.596 v -94.951 l 19.85,4.583 c 0,15.076 0,21.626 0.25,26.79 0.694,13.604 21.128,16.686 22.905,4.858 0.805,-5.385 0.944,-7.968 0.944,-20.128 l 15.825,3.654 V 4.865 Z"
             style="fill:#000000;fill-opacity:1;fill-rule:nonzero;stroke:none"
             id="path88" />
        </g>
        <g
           id="g90"
           transform="translate(34.1736,384.8466)">
          <path
             d="m 0,0 c -7.58,-1.777 -11.799,2.443 -11.799,11.466 v 8.718 c -0.001,6.288 1.221,11.744 6.829,13.521 16.283,5.159 27.625,-1.86 27.625,-12.882 C 22.655,10.522 14.77,3.471 0,0 m 54.888,37.675 c 0,40.062 -39.202,51.695 -87.149,34.565 V -57.084 l 20.434,4.717 v 32.378 c 0,4.942 3.637,4.081 6.996,1.082 2.36,-2.11 16.547,-15.853 26.458,-25.737 l 31.195,7.203 c 0,0 -27.197,27.779 -30.334,30.528 18.268,6.83 32.4,24.628 32.4,44.588"
             style="fill:#000000;fill-opacity:1;fill-rule:nonzero;stroke:none"
             id="path92" />
        </g>
      </g>
    </g>
  </g>
</svg>
