<?xml version="1.0" encoding="UTF-8" standalone="no"?>
<!-- Created with Inkscape (http://www.inkscape.org/) -->

<svg
   version="1.1"
   id="svg1"
   width="666.66669"
   height="462.95334"
   viewBox="0 0 666.66669 462.95334"
   sodipodi:docname="Rhythm Tengoku Miracle Stars (リズム天国 ミラクルスターズ) (Beta) Logo (Print).ai"
   xmlns:inkscape="http://www.inkscape.org/namespaces/inkscape"
   xmlns:sodipodi="http://sodipodi.sourceforge.net/DTD/sodipodi-0.dtd"
   xmlns="http://www.w3.org/2000/svg"
   xmlns:svg="http://www.w3.org/2000/svg">
  <defs
     id="defs1">
    <clipPath
       clipPathUnits="userSpaceOnUse"
       id="clipPath2">
      <path
         d="M 0,347.215 H 500 V 0 H 0 Z"
         transform="translate(-450.07461,-163.4192)"
         id="path2" />
    </clipPath>
    <clipPath
       clipPathUnits="userSpaceOnUse"
       id="clipPath4">
      <path
         d="M 0,347.215 H 500 V 0 H 0 Z"
         transform="translate(-473.17121,-292.79611)"
         id="path4" />
    </clipPath>
    <clipPath
       clipPathUnits="userSpaceOnUse"
       id="clipPath6">
      <path
         d="M 0,347.215 H 500 V 0 H 0 Z"
         transform="translate(-464.35391,-290.12421)"
         id="path6" />
    </clipPath>
    <clipPath
       clipPathUnits="userSpaceOnUse"
       id="clipPath8">
      <path
         d="M 0,347.215 H 500 V 0 H 0 Z"
         transform="translate(-458.74251,-288.42311)"
         id="path8" />
    </clipPath>
    <clipPath
       clipPathUnits="userSpaceOnUse"
       id="clipPath10">
      <path
         d="M 0,347.215 H 500 V 0 H 0 Z"
         transform="translate(-123.69171,-98.270705)"
         id="path10" />
    </clipPath>
    <clipPath
       clipPathUnits="userSpaceOnUse"
       id="clipPath12">
      <path
         d="M 0,347.215 H 500 V 0 H 0 Z"
         transform="translate(-443.55601,-170.845)"
         id="path12" />
    </clipPath>
    <clipPath
       clipPathUnits="userSpaceOnUse"
       id="clipPath14">
      <path
         d="M 0,347.215 H 500 V 0 H 0 Z"
         transform="translate(-439.62631,-177.33421)"
         id="path14" />
    </clipPath>
    <clipPath
       clipPathUnits="userSpaceOnUse"
       id="clipPath16">
      <path
         d="M 0,347.215 H 500 V 0 H 0 Z"
         transform="translate(-349.21031,-145.74631)"
         id="path16" />
    </clipPath>
    <clipPath
       clipPathUnits="userSpaceOnUse"
       id="clipPath18">
      <path
         d="M 0,347.215 H 500 V 0 H 0 Z"
         transform="translate(-317.88561,-143.3957)"
         id="path18" />
    </clipPath>
    <clipPath
       clipPathUnits="userSpaceOnUse"
       id="clipPath20">
      <path
         d="M 0,347.215 H 500 V 0 H 0 Z"
         transform="translate(-290.4652,-122.71021)"
         id="path20" />
    </clipPath>
    <clipPath
       clipPathUnits="userSpaceOnUse"
       id="clipPath22">
      <path
         d="M 0,347.215 H 500 V 0 H 0 Z"
         transform="translate(-246.8563,-120.01591)"
         id="path22" />
    </clipPath>
    <clipPath
       clipPathUnits="userSpaceOnUse"
       id="clipPath24">
      <path
         d="M 0,347.215 H 500 V 0 H 0 Z"
         transform="translate(-204.4789,-118.43971)"
         id="path24" />
    </clipPath>
    <clipPath
       clipPathUnits="userSpaceOnUse"
       id="clipPath26">
      <path
         d="M 0,347.215 H 500 V 0 H 0 Z"
         transform="translate(-157.71081,-95.875205)"
         id="path26" />
    </clipPath>
    <clipPath
       clipPathUnits="userSpaceOnUse"
       id="clipPath28">
      <path
         d="M 0,347.215 H 500 V 0 H 0 Z"
         transform="translate(-113.4598,-77.436799)"
         id="path28" />
    </clipPath>
    <clipPath
       clipPathUnits="userSpaceOnUse"
       id="clipPath30">
      <path
         d="M 0,347.215 H 500 V 0 H 0 Z"
         transform="translate(-408.04331,-263.6135)"
         id="path30" />
    </clipPath>
    <clipPath
       clipPathUnits="userSpaceOnUse"
       id="clipPath32">
      <path
         d="M 0,347.215 H 500 V 0 H 0 Z"
         transform="translate(-411.52571,-315.10181)"
         id="path32" />
    </clipPath>
    <clipPath
       clipPathUnits="userSpaceOnUse"
       id="clipPath34">
      <path
         d="M 0,347.215 H 500 V 0 H 0 Z"
         transform="translate(-381.41931,-310.29901)"
         id="path34" />
    </clipPath>
    <clipPath
       clipPathUnits="userSpaceOnUse"
       id="clipPath36">
      <path
         d="M 0,347.215 H 500 V 0 H 0 Z"
         transform="translate(-332.94081,-214.89281)"
         id="path36" />
    </clipPath>
    <clipPath
       clipPathUnits="userSpaceOnUse"
       id="clipPath38">
      <path
         d="M 0,347.215 H 500 V 0 H 0 Z"
         transform="translate(-340.98281,-263.83321)"
         id="path38" />
    </clipPath>
    <clipPath
       clipPathUnits="userSpaceOnUse"
       id="clipPath40">
      <path
         d="M 0,347.215 H 500 V 0 H 0 Z"
         transform="translate(-308.21131,-257.1233)"
         id="path40" />
    </clipPath>
    <clipPath
       clipPathUnits="userSpaceOnUse"
       id="clipPath42">
      <path
         d="M 0,347.215 H 500 V 0 H 0 Z"
         transform="translate(-274.80361,-214.27661)"
         id="path42" />
    </clipPath>
    <clipPath
       clipPathUnits="userSpaceOnUse"
       id="clipPath44">
      <path
         d="M 0,347.215 H 500 V 0 H 0 Z"
         transform="translate(-181.8534,-200.8655)"
         id="path44" />
    </clipPath>
    <clipPath
       clipPathUnits="userSpaceOnUse"
       id="clipPath46">
      <path
         d="M 0,347.215 H 500 V 0 H 0 Z"
         transform="translate(-83.882702,-205.09501)"
         id="path46" />
    </clipPath>
  </defs>
  <sodipodi:namedview
     id="namedview1"
     pagecolor="#ffffff"
     bordercolor="#000000"
     borderopacity="0.25"
     inkscape:showpageshadow="2"
     inkscape:pageopacity="0.0"
     inkscape:pagecheckerboard="0"
     inkscape:deskcolor="#d1d1d1">
    <inkscape:page
       x="0"
       y="0"
       inkscape:label="1"
       id="page1"
       width="666.66669"
       height="462.95334"
       margin="0"
       bleed="0" />
  </sodipodi:namedview>
  <g
     id="layer-MC0"
     inkscape:groupmode="layer"
     inkscape:label="Layer 1">
    <path
       id="path1"
       d="m 0,0 c 6.822,1.315 14.503,4.515 14.633,11.985 0.113,6.511 -7.799,16.672 -28.45,19.273 5.619,2.564 1.558,13.421 -3.405,12.184 -109.547,-27.3 -264.141,-70.958 -361.852,-109.352 l 40.262,-51.646 c 115.849,42.854 282.393,95.341 378.214,83.785 8.663,-1.045 10.524,-0.124 10.524,4.371 C 49.926,-17.303 27.728,-3.203 0,0"
       style="fill:#ffffff;fill-opacity:1;fill-rule:nonzero;stroke:none"
       transform="matrix(1.3333333,0,0,-1.3333333,600.09947,245.06107)"
       clip-path="url(#clipPath2)" />
    <path
       id="path3"
       d="m 0,0 c -12.265,40.465 -55.246,63.39 -95.814,51.103 l -0.001,-0.001 c -0.065,-0.02 -0.128,-0.039 -0.191,-0.058 -23.53,-7.194 -41.682,-24.674 -49.817,-47.155 -7.888,0.101 -15.802,-1.007 -23.402,-3.309 -0.066,-0.02 -0.13,-0.04 -0.197,-0.06 -7.209,-2.205 -14.073,-5.472 -20.318,-9.643 -19.217,13.783 -43.847,18.039 -67.072,11.003 -0.063,-0.02 -0.127,-0.038 -0.191,-0.058 -23.487,-7.18 -41.633,-24.635 -49.791,-47.081 -0.299,0.003 -0.598,0.005 -0.898,0.005 -15.744,-0.014 -30.775,-4.735 -43.489,-13.497 -19.252,13.951 -43.971,18.278 -67.357,11.193 -0.057,-0.017 -0.113,-0.035 -0.17,-0.052 -40.464,-12.371 -63.412,-55.234 -51.169,-95.635 12.257,-40.466 55.241,-63.394 95.82,-51.109 7.581,2.337 14.782,5.766 21.29,10.229 13.014,-9.358 28.814,-14.547 44.999,-14.536 18.299,0.016 36.041,6.58 49.959,18.484 10.099,8.638 17.74,19.684 22.256,31.957 7.83,-0.082 15.681,1.027 23.216,3.309 0.066,0.02 0.134,0.041 0.201,0.061 7.208,2.204 14.069,5.469 20.313,9.639 19.223,-13.78 43.856,-18.035 67.074,-11.002 0.065,0.021 0.127,0.039 0.191,0.059 23.531,7.194 41.688,24.675 49.827,47.154 7.879,-0.101 15.787,1.005 23.389,3.304 0.057,0.016 0.113,0.034 0.17,0.051 C -10.719,-83.277 12.232,-40.413 0,0"
       style="fill:#000000;fill-opacity:1;fill-rule:nonzero;stroke:none"
       transform="matrix(1.3333333,0,0,-1.3333333,630.89493,72.558533)"
       clip-path="url(#clipPath4)" />
    <path
       id="path5"
       d="m 0,0 c -10.791,35.604 -48.619,55.771 -84.326,44.956 h -0.001 c -0.056,-0.017 -0.111,-0.034 -0.168,-0.052 -22.923,-7.008 -40.049,-25.105 -45.839,-47.984 -9.153,1.044 -18.519,0.204 -27.403,-2.486 -0.059,-0.018 -0.116,-0.036 -0.174,-0.053 -8.469,-2.59 -16.394,-6.844 -23.205,-12.427 -17.512,15.332 -41.615,20.625 -64.208,13.78 -0.055,-0.016 -0.112,-0.034 -0.168,-0.051 -22.878,-6.995 -39.998,-25.058 -45.82,-47.896 -2.502,0.277 -5.027,0.418 -7.554,0.418 -16.138,-0.014 -31.428,-5.648 -43.636,-15.976 -17.541,15.568 -41.764,20.97 -64.545,14.068 -0.05,-0.016 -0.1,-0.03 -0.15,-0.046 -35.615,-10.889 -55.818,-48.605 -45.045,-84.153 10.784,-35.605 48.616,-55.775 84.332,-44.962 0.058,0.017 0.115,0.035 0.173,0.052 8.766,2.681 16.932,7.137 23.91,13.016 12.376,-11.001 28.102,-16.991 44.868,-16.979 6.93,0.005 13.633,1.042 19.956,2.975 22.241,6.8 39.747,24.699 45.637,47.871 9.085,-1.006 18.374,-0.158 27.177,2.508 0.059,0.018 0.118,0.036 0.177,0.054 8.467,2.589 16.388,6.84 23.199,12.421 17.52,-15.329 41.624,-20.619 64.211,-13.777 0.055,0.017 0.112,0.035 0.168,0.051 22.926,7.01 40.056,25.106 45.849,47.984 9.143,-1.042 18.503,-0.206 27.387,2.48 0.05,0.016 0.099,0.03 0.149,0.046 C -9.441,-73.276 10.763,-35.557 0,0"
       style="fill:#ffffff;fill-opacity:1;fill-rule:nonzero;stroke:none"
       transform="matrix(1.3333333,0,0,-1.3333333,619.13853,76.121067)"
       clip-path="url(#clipPath6)" />
    <path
       id="path7"
       d="m 0,0 c -9.87,32.567 -44.346,50.941 -77.016,41.046 -23.315,-7.065 -39.404,-26.623 -43.111,-49.084 -9.738,1.986 -20.105,1.649 -30.3,-1.439 -9.806,-2.968 -18.336,-8.154 -25.203,-14.834 -15.578,16.083 -39.429,23.089 -62.382,16.135 -23.278,-7.053 -39.348,-26.559 -43.1,-48.969 -3.925,0.779 -7.98,1.187 -12.138,1.188 -17.062,-0.016 -32.535,-6.964 -43.738,-18.162 -15.571,16.341 -39.612,23.515 -62.746,16.506 -32.666,-9.906 -51.156,-44.317 -41.285,-76.889 9.863,-32.563 44.346,-50.941 77.022,-41.05 10.131,3.069 18.898,8.506 25.882,15.506 11.258,-11.813 27.158,-19.178 44.763,-19.165 30.638,0.026 56.154,22.404 61.004,51.623 9.676,-1.935 19.962,-1.583 30.072,1.48 9.806,2.968 18.336,8.154 25.199,14.826 15.58,-16.071 39.432,-23.082 62.386,-16.128 23.32,7.066 39.411,26.62 43.124,49.083 9.738,-1.986 20.092,-1.648 30.278,1.432 C -8.622,-66.99 9.856,-32.565 0,0"
       style="fill:#000000;fill-opacity:1;fill-rule:nonzero;stroke:none"
       transform="matrix(1.3333333,0,0,-1.3333333,611.65667,78.3892)"
       clip-path="url(#clipPath8)" />
    <path
       id="path9"
       d="m 0,0 -41.871,-6.922 -29.58,30.551 -6.354,-42.019 -38.209,-18.776 38.14,-18.977 5.879,-42.128 29.93,30.309 41.773,-7.358 -19.658,37.766 z"
       style="fill:#ffffff;fill-opacity:1;fill-rule:nonzero;stroke:none"
       transform="matrix(1.3333333,0,0,-1.3333333,164.92227,331.92573)"
       clip-path="url(#clipPath10)" />
    <path
       id="path11"
       d="m 0,0 1.813,2.909 c 0.001,0 0.001,0.001 0.002,0.002 1.472,2.362 1.632,5.272 0.428,7.78 -1.211,2.525 -3.598,4.231 -6.389,4.566 l -4.856,0.579 -3.206,4.365 c -1.949,2.652 -5.283,3.869 -8.491,3.1 -2.652,-0.634 -4.744,-2.529 -5.692,-4.995 -1.142,0.639 -2.432,1.02 -3.781,1.052 l -1.102,0.028 -0.687,0.841 c -2.023,2.475 -5.332,3.544 -8.421,2.723 -2.818,-0.747 -5.011,-2.946 -5.773,-5.718 -2.659,-1.066 -4.545,-3.415 -4.996,-6.288 -0.42,-2.673 0.492,-5.286 2.396,-7.108 L -66.04,1.353 c -3.331,-0.479 -5.804,-3.332 -5.806,-6.697 l -0.002,-6.625 c -0.001,-0.589 0.085,-1.166 0.232,-1.724 -0.141,-0.019 -0.282,-0.032 -0.423,-0.06 l -17.291,-3.445 -0.007,4.461 c -0.003,2.057 -0.943,4.002 -2.553,5.284 -1.609,1.281 -3.713,1.759 -5.722,1.304 l -21.701,-4.955 c -0.417,1.179 -1.16,2.235 -2.164,3.034 -1.609,1.282 -3.712,1.759 -5.722,1.303 l -12.12,-2.767 c -3.082,-0.704 -5.265,-3.447 -5.261,-6.608 v -0.395 c -0.545,-0.014 -1.091,-0.09 -1.628,-0.238 l -38.841,-10.749 c -2.956,-0.819 -4.992,-3.521 -4.964,-6.587 l 0.063,-6.628 c 0.003,-0.313 0.034,-0.621 0.079,-0.926 l -5.848,-1.787 c 0.781,1.113 1.226,2.462 1.223,3.89 l -0.007,5.082 c -0.004,2.144 -1.022,4.159 -2.746,5.432 -1.726,1.275 -3.953,1.656 -6.001,1.029 l -14.304,-4.372 c -2.632,-0.805 -4.471,-3.117 -4.737,-5.812 -0.034,-0.01 -0.069,-0.015 -0.103,-0.026 l -12.186,-3.724 c -1.904,-0.583 -3.388,-1.961 -4.172,-3.694 -0.809,0.039 -1.627,-0.064 -2.417,-0.321 l -18.744,-6.091 c -0.48,0.985 -1.198,1.851 -2.109,2.511 -1.752,1.272 -4.007,1.627 -6.065,0.958 l -12.119,-3.937 c -1.885,-0.612 -3.34,-2.006 -4.097,-3.745 -1.268,0.3 -2.614,0.239 -3.874,-0.218 l -36.553,-13.29 c -1.564,-0.569 -2.807,-1.683 -3.582,-3.072 -1.193,0.322 -2.465,0.323 -3.681,-0.039 l -32.583,-9.66 c -2.878,-0.853 -4.85,-3.5 -4.844,-6.5 l 0.014,-8.363 c 0.002,-0.976 0.223,-1.921 0.616,-2.785 -0.415,-0.884 -0.659,-1.859 -0.657,-2.882 l 0.015,-8.363 c 0.001,-1.082 0.264,-2.13 0.744,-3.069 -0.435,-0.899 -0.687,-1.898 -0.685,-2.946 l 0.014,-8.363 c 0.004,-2.133 1.013,-4.14 2.724,-5.415 1.182,-0.881 2.603,-1.341 4.044,-1.341 0.644,0 1.292,0.092 1.924,0.279 l 32.583,9.661 c 1.799,0.534 3.245,1.769 4.073,3.354 0.796,-0.316 1.636,-0.495 2.489,-0.495 0.778,0 1.561,0.133 2.311,0.407 l 19.456,7.073 c 6.516,2.369 14.598,6.348 18.448,14.831 0.43,-1.375 1.282,-2.599 2.476,-3.466 1.17,-0.848 2.564,-1.289 3.975,-1.289 0.701,0 1.407,0.11 2.091,0.331 l 27.744,9.015 c 2.616,0.841 5.453,2.27 7.788,4.664 0.92,-0.443 1.922,-0.683 2.937,-0.683 0.663,0 1.329,0.097 1.979,0.296 l 3.968,1.213 c 3.362,1.029 6.382,3.009 8.808,5.558 0.001,-0.001 0.002,-0.002 0.002,-0.002 1.179,-0.871 2.591,-1.324 4.022,-1.324 0.663,0 1.33,0.096 1.978,0.295 l 9.323,2.848 c 7.107,2.173 12.097,5.705 15.656,9.719 0.417,-0.623 0.937,-1.182 1.551,-1.644 1.187,-0.894 2.619,-1.362 4.072,-1.362 0.604,0 1.211,0.081 1.806,0.245 l 7.2,1.994 c 7.65,2.117 12.647,4.433 17.106,8.266 1.677,-1.659 4.165,-2.38 6.57,-1.714 l 10.962,3.034 c 1.183,0.328 2.227,0.971 3.054,1.828 0.439,-0.089 0.885,-0.148 1.336,-0.148 0.502,0 1.007,0.055 1.507,0.17 l 27.748,6.335 c 4.423,0.995 11.499,4.122 13.029,13.897 l 20.761,4.136 -10e-4,-2.558 c -0.001,-1.964 0.852,-3.832 2.335,-5.118 1.238,-1.073 2.815,-1.653 4.433,-1.653 0.32,0 0.642,0.022 0.963,0.068 l 7.265,1.044 c 7.676,1.103 12.879,2.824 17.504,6.081 1.405,-1.881 3.727,-2.945 6.161,-2.677 l 11.417,1.252 c 2.322,0.254 4.347,1.687 5.36,3.792 1.014,2.104 0.869,4.584 -0.381,6.556 -1.645,2.597 -5.123,5.561 -8.71,7.885 0.931,2.117 1.509,4.052 1.911,5.865 0.435,-0.3 0.89,-0.572 1.384,-0.785 1.035,-0.446 2.137,-0.665 3.234,-0.665 1.727,0 3.442,0.543 4.868,1.598 l 1.965,1.452 2.873,-1.351 c 3.11,-1.462 6.712,-0.863 9.178,1.529 2.443,2.369 3.147,5.917 1.793,9.035 z"
       style="fill:#ffffff;fill-opacity:1;fill-rule:nonzero;stroke:none"
       transform="matrix(1.3333333,0,0,-1.3333333,591.408,235.16)"
       clip-path="url(#clipPath12)" />
    <path
       id="path13"
       d="M 0,0 C 0.523,0.841 -0.019,1.928 -1.02,2.047 L -8.184,2.902 C -8.57,2.949 -8.919,3.15 -9.146,3.459 l -4.585,6.244 c -0.723,0.984 -2.305,0.622 -2.502,-0.571 L -17.156,3.563 C -17.247,3.015 -17.673,2.576 -18.23,2.458 l -5.356,-1.141 c -1.133,-0.241 -1.48,-1.648 -0.586,-2.367 l 6.318,-5.07 c 0.278,-0.222 0.456,-0.54 0.498,-0.887 l 0.928,-7.69 c 0.125,-1.04 1.365,-1.554 2.22,-0.921 l 4.534,3.351 c 0.416,0.308 0.974,0.362 1.445,0.141 l 5.761,-2.709 c 1.155,-0.542 2.382,0.596 1.884,1.746 l -2.833,6.527 c -0.174,0.401 -0.14,0.858 0.092,1.229 z m -39.955,2.068 3.088,-2.113 c 0.324,-0.223 0.537,-0.57 0.586,-0.956 l 0.468,-3.669 c 0.136,-1.071 1.413,-1.574 2.26,-0.891 l 2.192,1.768 c 0.382,0.308 0.899,0.394 1.362,0.226 l 2.651,-0.964 c 1.164,-0.423 2.267,0.757 1.745,1.868 l -1.307,2.789 c -0.194,0.413 -0.168,0.894 0.07,1.284 l 1.588,2.614 c 0.549,0.904 -0.091,2.053 -1.156,2.08 l -3.568,0.087 c -0.408,0.01 -0.791,0.197 -1.046,0.51 l -2.251,2.755 c -0.754,0.923 -2.261,0.53 -2.457,-0.641 L -36.146,6.331 C -36.233,5.813 -36.611,5.389 -37.12,5.238 l -2.441,-0.724 c -1.116,-0.332 -1.351,-1.79 -0.394,-2.446 m 21.365,-40.648 -11.416,-1.251 c -1.072,2.945 -2.964,4.96 -4.394,5.89 -5.549,-5.942 -10.09,-7.971 -19.496,-9.322 l -7.266,-1.044 0.003,6.541 7.108,1.022 c 13.741,1.973 16.876,13.162 17.445,21.809 l -24.545,-3.526 0.003,6.625 39.192,5.631 -0.003,-6.254 -1.674,-0.24 c -0.901,-0.13 -1.697,-0.867 -1.906,-2.51 -0.597,-4.538 -1.194,-8.648 -5.406,-14.651 3.834,-1.131 10.581,-5.916 12.355,-8.72"
       style="fill:#000000;fill-opacity:1;fill-rule:nonzero;stroke:none"
       transform="matrix(1.3333333,0,0,-1.3333333,586.1684,226.50773)"
       clip-path="url(#clipPath14)" />
    <path
       id="path15"
       d="m 0,0 -0.116,-7.76 23.63,4.708 0.116,7.76 z"
       style="fill:#000000;fill-opacity:1;fill-rule:nonzero;stroke:none"
       transform="matrix(1.3333333,0,0,-1.3333333,465.61373,268.62493)"
       clip-path="url(#clipPath16)" />
    <path
       id="path17"
       d="M 0,0 -0.004,2.613 15.398,6.13 15.411,-2.191 C 13.069,-1.55 6.26,0.143 0,0 m 29.566,14.701 -29.578,-6.754 -0.01,6.137 -12.12,-2.767 0.007,-4.88 0.924,0.21 c 1.456,0.332 2.161,-0.21 2.162,-1.126 l 0.016,-10.034 c 0.002,-1.361 -0.482,-2.343 -1.828,-2.65 l -1.252,-0.286 0.009,-5.137 7.399,1.69 c 2.604,0.594 4.711,3.406 4.712,6.283 5.917,-0.811 13.078,-3.616 15.334,-4.542 -0.276,-3.057 -1.386,-4.555 -4.481,-5.266 l -20.103,-4.59 0.01,-6.566 27.77,6.341 c 5.448,1.224 8.06,4.815 8.049,11.351 L 26.563,6.917 c -0.002,1.381 0.462,2.321 1.827,2.633 l 1.183,0.27 z"
       style="fill:#000000;fill-opacity:1;fill-rule:nonzero;stroke:none"
       transform="matrix(1.3333333,0,0,-1.3333333,423.84747,271.75907)"
       clip-path="url(#clipPath18)" />
    <path
       id="path19"
       d="m 0,0 c 4.12,6.555 4.673,10.745 5.22,15.362 0.191,1.671 0.974,2.512 1.867,2.759 l 1.66,0.46 -0.059,6.256 -38.842,-10.75 0.063,-6.627 24.325,6.732 C -6.245,5.467 -9.246,-6.134 -22.863,-9.902 l -7.045,-1.951 0.062,-6.543 7.201,1.994 c 9.321,2.579 13.808,5.202 19.256,11.869 1.43,-0.743 3.327,-2.512 4.419,-5.318 l 10.963,3.035 C 10.427,-4.851 3.816,-0.63 0,0"
       style="fill:#000000;fill-opacity:1;fill-rule:nonzero;stroke:none"
       transform="matrix(1.3333333,0,0,-1.3333333,387.28693,299.33973)"
       clip-path="url(#clipPath20)" />
    <path
       id="path21"
       d="M 0,0 C 0,0 -0.768,-11.674 -7.634,-15.366 L -7.671,8.267 c -0.002,1.129 0.887,2.311 1.992,2.649 l 1.116,0.341 -0.008,5.081 -14.305,-4.372 0.059,-37.525 9.322,2.849 c 14.98,4.578 18.25,15.855 20.203,25.982 z m -23.716,6.128 0.036,-22.976 c 0.009,-5.626 -4.447,-11.556 -9.948,-13.238 l -3.969,-1.213 -0.01,6.802 c 2.659,0.813 4.798,3.667 4.794,6.388 l -0.023,14.364 c -0.001,1.13 -0.891,1.767 -1.998,1.429 l -1.06,-0.324 -0.007,5.043 z"
       style="fill:#000000;fill-opacity:1;fill-rule:nonzero;stroke:none"
       transform="matrix(1.3333333,0,0,-1.3333333,329.14173,302.93213)"
       clip-path="url(#clipPath22)" />
    <path
       id="path23"
       d="m 0,0 -11.161,-3.626 -15.748,-5.117 -0.01,6.122 -12.118,-3.938 0.008,-4.879 1.295,0.419 c 1.455,0.474 2.16,-10e-4 2.162,-0.918 l 0.015,-10.033 c 0.003,-1.36 -0.482,-2.389 -1.827,-2.827 l -1.624,-0.527 0.008,-5.138 7.398,2.404 c 2.607,0.847 4.717,3.87 4.713,6.749 l -0.012,7.232 15.749,5.117 0.02,-13.327 c 0.007,-4.413 -0.862,-6.459 -4.558,-7.665 l -20.1,-6.531 0.01,-6.567 27.766,9.022 c 5.447,1.751 8.058,5.594 8.048,12.131 z"
       style="fill:#000000;fill-opacity:1;fill-rule:nonzero;stroke:none"
       transform="matrix(1.3333333,0,0,-1.3333333,272.63853,305.03373)"
       clip-path="url(#clipPath24)" />
    <path
       id="path25"
       d="m 0,0 -37.417,-13.604 0.01,-6.325 27.908,10.147 c 0.012,-7.606 -0.249,-12.155 -10.459,-15.867 l -15.73,-5.734 0.01,-6.659 19.456,7.074 c 10.744,3.906 16.256,9.504 16.24,19.699 z m -36.56,-8.851 -0.012,7.68 36.553,13.289 0.012,-7.68 z"
       style="fill:#000000;fill-opacity:1;fill-rule:nonzero;stroke:none"
       transform="matrix(1.3333333,0,0,-1.3333333,210.28107,335.11973)"
       clip-path="url(#clipPath26)" />
    <path
       id="path27"
       d="m 0,0 -32.583,-9.661 0.015,-8.363 32.582,9.661 z m 0.073,-14.379 -32.582,-9.66 0.014,-8.363 32.583,9.66 z m -32.615,10.385 -0.014,8.363 32.583,9.66 0.014,-8.363 z"
       style="fill:#000000;fill-opacity:1;fill-rule:nonzero;stroke:none"
       transform="matrix(1.3333333,0,0,-1.3333333,151.27973,359.70427)"
       clip-path="url(#clipPath28)" />
    <path
       id="path29"
       d="M 0,0 V 5.669 L 4.018,6.897 V 1.228 Z m 4.018,-6.512 -25.141,-7.685 v 4.617 l 4.438,1.356 c 1.813,0.555 2.887,2 2.887,4.391 v 8.405 l -7.325,-2.24 v 4.99 l 7.325,2.24 v 8.606 c 0,0.999 -0.601,2.344 -3.368,1.498 l -3.957,-1.21 v 4.648 L 4.018,30.79 V 26.143 L -0.372,24.8 c -1.875,-0.573 -2.936,-1.971 -2.936,-4.395 v -7.636 l 7.326,2.24 v -4.99 l -7.326,-2.24 v -9.375 c 0,-1.475 1.133,-2.191 3.416,-1.493 l 3.91,1.195 z m 6.635,1.935 c 0,-2.336 -1.276,-3.898 -3.036,-4.425 l -35.383,-10.817 v 40.344 c 0,2.182 1.134,3.85 3.037,4.425 l 35.382,10.818 z m -52.68,31.955 v -59.255 l 66.948,20.468 v 59.256 z"
       style="fill:#ffffff;fill-opacity:1;fill-rule:nonzero;stroke:none"
       transform="matrix(1.3333333,0,0,-1.3333333,544.05773,111.46867)"
       clip-path="url(#clipPath30)" />
    <path
       id="path31"
       d="m 0,0 c -0.344,0.092 -0.878,0.236 -0.878,0.543 0,0.259 0.237,0.528 0.818,1.161 2.315,2.539 2.576,2.828 4.249,4.865 L 2.919,7.104 C 2.088,5.988 1.769,5.607 -0.629,2.821 -1.863,1.386 -2.457,0.59 -2.457,-0.013 c 0,-0.787 0.854,-1.042 1.816,-1.326 1.792,-0.522 3.5,-1.193 5.103,-2.056 l 1.175,1.38 C 4.558,-1.386 1.744,-0.45 0,0"
       style="fill:#ffffff;fill-opacity:1;fill-rule:nonzero;stroke:none"
       transform="matrix(1.3333333,0,0,-1.3333333,548.70093,42.8176)"
       clip-path="url(#clipPath32)" />
    <path
       id="path33"
       d="m 0,0 0.868,-0.621 c 1.398,1.313 2.47,2.166 3.989,2.905 V 3.508 C 4.086,3.271 0.277,2.096 -0.578,1.834 -1.181,1.649 -2.675,1.192 -3.037,1.094 v -1.41 c 0.771,0.285 1.808,0.627 4.291,1.423 C 0.47,0.469 0.386,0.393 0,0 m 1.941,-5.9 c -1.808,-0.553 -4.123,-1.236 -4.123,0.388 0,0.262 0.05,1.189 1.062,2.509 l -0.977,0.451 c -0.879,-1.293 -1.41,-2.242 -1.41,-3.39 0,-0.987 0.639,-1.741 1.471,-1.899 1.024,-0.198 2.049,0.003 4.423,0.729 1.868,0.571 2.711,0.941 3.133,1.133 L 5.472,-4.596 C 4.303,-5.128 3.121,-5.54 1.941,-5.9 m 3.47,5.518 0.844,0.783 C 6.001,0.86 5.604,1.388 5.122,1.815 L 4.278,1.045 C 4.748,0.577 4.989,0.276 5.411,-0.382 M 3.628,0.685 C 4.255,0.089 4.664,-0.61 4.772,-0.802 L 3.929,-1.584 c -0.542,0.921 -0.928,1.303 -1.12,1.506 z"
       style="fill:#ffffff;fill-opacity:1;fill-rule:nonzero;stroke:none"
       transform="matrix(1.3333333,0,0,-1.3333333,508.55907,49.221333)"
       clip-path="url(#clipPath34)" />
    <path
       id="path35"
       d="m 0,0 v 6.626 l 24.936,7.623 V 24.626 L 0,17.003 v 9.291 l 24.936,7.624 V 44.27 L -42.417,23.678 V 13.326 l 24.53,7.499 v -9.291 l -24.53,-7.5 V -6.343 l 24.53,7.5 V -2.68 c 0,-12.289 -6.618,-17.259 -16.669,-20.34 l -7.861,-2.403 v -10.399 l 17.121,5.234 c 13.15,4.014 17.785,8.674 22.997,21.113 2.86,-1.136 10.628,-6.257 13.778,-9.87 l 17.708,5.414 C 23.888,-8.085 5.05,-0.989 0,0"
       style="fill:#ffffff;fill-opacity:1;fill-rule:nonzero;stroke:none"
       transform="matrix(1.3333333,0,0,-1.3333333,443.92107,176.4296)"
       clip-path="url(#clipPath36)" />
    <path
       id="path37"
       d="m 0,0 c -0.25,-2.701 -0.87,-3.893 -1.824,-4.185 -1.014,-0.309 -1.014,0.777 -1.014,1.122 v 0.513 c 0,0.86 -0.048,2.695 -1.967,2.108 -0.811,-0.248 -1.276,-0.725 -1.538,-0.995 0.203,0.706 1.299,4.154 1.538,4.943 L -6.307,3.321 C -6.833,1.467 -8.501,-4.448 -9.432,-7.548 l 1.371,0.026 c 0.084,0.347 0.68,2.808 0.705,2.875 0.25,0.745 0.929,2.408 2.277,2.82 0.894,0.273 0.894,-0.502 0.894,-1.266 v -0.405 c 0,-0.263 0.036,-0.967 0.202,-1.357 0.263,-0.624 1.026,-0.988 2.004,-0.689 2.193,0.671 2.909,2.644 3.231,5.558 z"
       style="fill:#ffffff;fill-opacity:1;fill-rule:nonzero;stroke:none"
       transform="matrix(1.3333333,0,0,-1.3333333,454.64373,111.17573)"
       clip-path="url(#clipPath38)" />
    <path
       id="path39"
       d="M 0,0 C 0.548,0.436 1.259,0.933 2.308,1.253 2.809,1.406 3.077,1.465 3.322,1.517 L 3.298,2.827 C 2.098,2.413 -3.252,0.568 -4.255,0.215 -5.059,-0.065 -5.934,-0.38 -6.737,-0.626 l 0.046,-1.314 c 1.807,0.703 3.613,1.395 5.432,2.056 -2.6,-2.381 -3.217,-4.388 -3.217,-5.59 0,-1.085 0.687,-1.982 1.736,-2.198 1.061,-0.223 2.308,-0.134 4.815,0.621 l 0.186,1.445 c -3.357,-1.131 -5.397,-1.125 -5.397,0.647 0,1.574 1.481,3.625 3.136,4.959"
       style="fill:#ffffff;fill-opacity:1;fill-rule:nonzero;stroke:none"
       transform="matrix(1.3333333,0,0,-1.3333333,410.9484,120.12227)"
       clip-path="url(#clipPath40)" />
    <path
       id="path41"
       d="m 0,0 -2.676,-0.818 c -1.752,-0.541 -3.679,-0.02 -5.01,1.946 l -6.106,9.021 -17.744,-5.424 8.034,-11.911 -21.886,-6.691 13.246,43.326 c 0.579,1.893 1.608,3.08 3.019,3.522 l 4.453,1.361 v 7.207 l -21.856,-6.683 -15.728,-51.444 c -0.61,-1.992 -1.788,-2.992 -3.041,-3.375 l -2.71,-0.829 v -10.417 l 73.83,22.572 z"
       style="fill:#ffffff;fill-opacity:1;fill-rule:nonzero;stroke:none"
       transform="matrix(1.3333333,0,0,-1.3333333,366.4048,177.2512)"
       clip-path="url(#clipPath42)" />
    <path
       id="path43"
       d="M 0,0 C 2.545,0.791 3.91,3.44 3.167,5.937 2.376,8.434 -0.273,9.847 -2.77,9.104 -5.315,8.362 -6.679,5.664 -5.937,3.167 -5.146,0.671 -2.497,-0.742 0,0 m -4.636,-40.188 c 6.78,10.749 7.74,17.512 8.698,24.962 0.335,2.696 1.617,4.088 3.068,4.533 l 2.698,0.824 V 0.184 l -63.126,-19.3 v -10.649 l 39.533,12.086 c -0.91,-14.049 -5.952,-32.851 -28.084,-39.617 l -11.449,-3.501 v -10.515 l 11.703,3.58 c 15.149,4.63 22.462,9.08 31.396,20.08 2.306,-1.12 5.354,-3.864 7.082,-8.318 l 17.816,5.448 c -2.508,3.079 -13.159,9.518 -19.335,10.334 m 9.86,46.767 c -0.743,2.497 0.622,5.147 3.167,5.938 2.496,0.791 5.195,-0.622 5.937,-3.167 C 15.12,6.853 13.706,4.203 11.161,3.412 8.665,2.67 6.015,4.034 5.224,6.579"
       style="fill:#ffffff;fill-opacity:1;fill-rule:nonzero;stroke:none"
       transform="matrix(1.3333333,0,0,-1.3333333,242.4712,195.13267)"
       clip-path="url(#clipPath44)" />
    <path
       id="path45"
       d="m 0,0 v -7.751 l 1.549,0.474 c 2.332,0.713 3.469,-0.053 3.469,-1.509 v -27.533 c 0,-7.009 -2.777,-12.164 -8.71,-13.987 l -30.882,-9.441 v -10.429 l 43.185,13.203 c 8.743,2.643 14.319,10.608 14.319,20.99 V -4.26 c 0,2.194 0.746,3.747 2.936,4.417 l 1.9,0.58 v 7.752 z m -15.31,-42.221 -24.397,-7.459 v 7.737 l 2.008,0.613 c 2.16,0.66 2.94,2.283 2.94,4.444 v 15.936 c 0,1.456 -1.131,2.226 -3.467,1.512 l -1.481,-0.453 v 7.751 l 24.397,7.459 v -7.751 l -2.003,-0.613 c -2.166,-0.662 -2.945,-2.289 -2.945,-4.43 V -33.41 c 0,-1.465 1.142,-2.238 3.471,-1.527 l 1.477,0.452 z"
       style="fill:#ffffff;fill-opacity:1;fill-rule:nonzero;stroke:none"
       transform="matrix(1.3333333,0,0,-1.3333333,111.8436,189.49333)"
       clip-path="url(#clipPath46)" />
  </g>
</svg>
