<?xml version="1.0" encoding="UTF-8" standalone="no"?>
<!-- Created with Inkscape (http://www.inkscape.org/) -->

<svg
   version="1.1"
   id="svg1"
   width="666.66669"
   height="597.77332"
   viewBox="0 0 666.66669 597.77332"
   sodipodi:docname="Rhythm Heaven Groove Logo (Print).ai"
   xmlns:inkscape="http://www.inkscape.org/namespaces/inkscape"
   xmlns:sodipodi="http://sodipodi.sourceforge.net/DTD/sodipodi-0.dtd"
   xmlns="http://www.w3.org/2000/svg"
   xmlns:svg="http://www.w3.org/2000/svg">
  <defs
     id="defs1">
    <clipPath
       clipPathUnits="userSpaceOnUse"
       id="clipPath2">
      <path
         d="M 0,448.33 H 500 V 0 H 0 Z"
         transform="translate(-484.70701,-259.68541)"
         id="path2" />
    </clipPath>
    <clipPath
       clipPathUnits="userSpaceOnUse"
       id="clipPath4">
      <path
         d="M 0,448.33 H 500 V 0 H 0 Z"
         transform="translate(-473.74221,-259.68541)"
         id="path4" />
    </clipPath>
    <clipPath
       clipPathUnits="userSpaceOnUse"
       id="clipPath6">
      <path
         d="M 0,448.33 H 500 V 0 H 0 Z"
         transform="translate(-466.43261,-259.68521)"
         id="path6" />
    </clipPath>
    <clipPath
       clipPathUnits="userSpaceOnUse"
       id="clipPath8">
      <path
         d="M 0,448.33 H 500 V 0 H 0 Z"
         transform="translate(-498.85071,-224.03741)"
         id="path8" />
    </clipPath>
    <clipPath
       clipPathUnits="userSpaceOnUse"
       id="clipPath10">
      <path
         d="M 0,448.33 H 500 V 0 H 0 Z"
         transform="translate(-393.59771,-158.3006)"
         id="path10" />
    </clipPath>
    <clipPath
       clipPathUnits="userSpaceOnUse"
       id="clipPath12">
      <path
         d="M 0,448.33 H 500 V 0 H 0 Z"
         transform="translate(-361.40931,-171.2248)"
         id="path12" />
    </clipPath>
    <clipPath
       clipPathUnits="userSpaceOnUse"
       id="clipPath14">
      <path
         d="M 0,448.33 H 500 V 0 H 0 Z"
         transform="translate(-306.41641,-113.10421)"
         id="path14" />
    </clipPath>
    <clipPath
       clipPathUnits="userSpaceOnUse"
       id="clipPath16">
      <path
         d="M 0,448.33 H 500 V 0 H 0 Z"
         transform="translate(-252.7651,-100.71781)"
         id="path16" />
    </clipPath>
    <clipPath
       clipPathUnits="userSpaceOnUse"
       id="clipPath18">
      <path
         d="M 0,448.33 H 500 V 0 H 0 Z"
         transform="translate(-194.1213,-98.9174)"
         id="path18" />
    </clipPath>
    <clipPath
       clipPathUnits="userSpaceOnUse"
       id="clipPath20">
      <path
         d="M 0,448.33 H 500 V 0 H 0 Z"
         transform="translate(-133.8744,-138.5536)"
         id="path20" />
    </clipPath>
    <clipPath
       clipPathUnits="userSpaceOnUse"
       id="clipPath22">
      <path
         d="M 0,448.33 H 500 V 0 H 0 Z"
         transform="translate(-401.51741,-238.5344)"
         id="path22" />
    </clipPath>
    <clipPath
       clipPathUnits="userSpaceOnUse"
       id="clipPath24">
      <path
         d="M 0,448.33 H 500 V 0 H 0 Z"
         transform="translate(-369.95691,-304.90801)"
         id="path24" />
    </clipPath>
    <clipPath
       clipPathUnits="userSpaceOnUse"
       id="clipPath26">
      <path
         d="M 0,448.33 H 500 V 0 H 0 Z"
         transform="translate(-319.06961,-236.6024)"
         id="path26" />
    </clipPath>
    <clipPath
       clipPathUnits="userSpaceOnUse"
       id="clipPath28">
      <path
         d="M 0,448.33 H 500 V 0 H 0 Z"
         transform="translate(-286.40511,-276.44021)"
         id="path28" />
    </clipPath>
    <clipPath
       clipPathUnits="userSpaceOnUse"
       id="clipPath30">
      <path
         d="M 0,448.33 H 500 V 0 H 0 Z"
         transform="translate(-246.79471,-217.22081)"
         id="path30" />
    </clipPath>
    <clipPath
       clipPathUnits="userSpaceOnUse"
       id="clipPath32">
      <path
         d="M 0,448.33 H 500 V 0 H 0 Z"
         transform="translate(-204.7024,-206.49301)"
         id="path32" />
    </clipPath>
    <clipPath
       clipPathUnits="userSpaceOnUse"
       id="clipPath34">
      <path
         d="M 0,448.33 H 500 V 0 H 0 Z"
         transform="translate(-167.40711,-257.63351)"
         id="path34" />
    </clipPath>
    <clipPath
       clipPathUnits="userSpaceOnUse"
       id="clipPath36">
      <path
         d="M 0,448.33 H 500 V 0 H 0 Z"
         transform="translate(-381.70991,-388.02061)"
         id="path36" />
    </clipPath>
    <clipPath
       clipPathUnits="userSpaceOnUse"
       id="clipPath38">
      <path
         d="M 0,448.33 H 500 V 0 H 0 Z"
         transform="translate(-316.90421,-354.72911)"
         id="path38" />
    </clipPath>
    <clipPath
       clipPathUnits="userSpaceOnUse"
       id="clipPath40">
      <path
         d="M 0,448.33 H 500 V 0 H 0 Z"
         transform="translate(-252.09841,-349.90411)"
         id="path40" />
    </clipPath>
    <clipPath
       clipPathUnits="userSpaceOnUse"
       id="clipPath42">
      <path
         d="M 0,448.33 H 500 V 0 H 0 Z"
         transform="translate(-247.52061,-334.37421)"
         id="path42" />
    </clipPath>
    <clipPath
       clipPathUnits="userSpaceOnUse"
       id="clipPath44">
      <path
         d="M 0,448.33 H 500 V 0 H 0 Z"
         transform="translate(-190.55511,-335.34301)"
         id="path44" />
    </clipPath>
    <clipPath
       clipPathUnits="userSpaceOnUse"
       id="clipPath46">
      <path
         d="M 0,448.33 H 500 V 0 H 0 Z"
         transform="translate(-126.945,-300.20731)"
         id="path46" />
    </clipPath>
  </defs>
  <sodipodi:namedview
     id="namedview1"
     pagecolor="#ffffff"
     bordercolor="#000000"
     borderopacity="0.25"
     inkscape:showpageshadow="2"
     inkscape:pageopacity="0.0"
     inkscape:pagecheckerboard="0"
     inkscape:deskcolor="#d1d1d1">
    <inkscape:page
       x="0"
       y="0"
       inkscape:label="1"
       id="page1"
       width="666.66669"
       height="597.77332"
       margin="0"
       bleed="0" />
  </sodipodi:namedview>
  <g
     id="layer-MC0"
     inkscape:groupmode="layer"
     inkscape:label="Layer 1">
    <path
       id="path1"
       d="m 0,0 c 0,31.898 -16.013,60.107 -40.387,76.963 0.302,3.087 0.46,6.179 0.46,9.266 0,27.556 -10.631,53.35 -29.933,72.632 -19.228,19.206 -44.848,29.784 -72.14,29.784 -37.223,0 -69.844,-20.354 -87.636,-50.666 -8.037,2.135 -16.473,3.278 -25.172,3.278 -18.209,0 -35.273,-4.991 -49.907,-13.668 -13.65,7.384 -29.266,11.581 -45.845,11.581 -53.302,0 -96.667,-43.364 -96.667,-96.666 0,-16.762 4.292,-32.54 11.829,-46.297 -10.728,-15.044 -17.062,-33.519 -17.062,-53.471 0,-50.38 40.36,-91.367 89.971,-91.367 5.104,0 10.108,0.44 14.983,1.274 11.461,-4.619 24.119,-7.189 37.421,-7.189 19.924,0 38.406,5.757 53.578,15.548 11.318,-4.687 23.83,-7.297 36.983,-7.297 22.271,0 42.711,7.472 58.612,19.874 6.573,-1.35 13.377,-2.06 20.344,-2.06 33.484,0 63.208,16.389 81.587,41.562 C -24.478,-73.252 0,-39.443 0,0"
       style="fill:#000000;fill-opacity:1;fill-rule:nonzero;stroke:none"
       transform="matrix(1.3333333,0,0,-1.3333333,646.276,251.52613)"
       clip-path="url(#clipPath2)" />
    <path
       id="path3"
       d="m 0,0 c 0,30.535 -16.625,57.225 -41.248,71.468 0.856,4.901 1.321,9.839 1.321,14.761 0,24.625 -9.488,47.664 -26.718,64.874 -17.157,17.139 -40.025,26.577 -64.39,26.577 -36.252,0 -67.614,-21.669 -82.22,-52.931 -9.523,3.579 -19.83,5.543 -30.588,5.543 -18.448,0 -35.573,-5.765 -49.68,-15.581 -13.316,8.527 -29.12,13.495 -46.072,13.495 -47.256,0 -85.702,-38.446 -85.702,-85.702 0,-17.388 5.219,-33.573 14.153,-47.099 -12.06,-14.121 -19.387,-32.535 -19.387,-52.669 0,-44.334 35.443,-80.403 79.007,-80.403 5.547,0 10.961,0.592 16.189,1.705 10.937,-4.872 23.226,-7.62 36.214,-7.62 19.916,0 38.201,6.439 52.455,17.135 11.357,-5.662 24.332,-8.884 38.106,-8.884 21.637,0 41.296,7.948 55.803,20.84 7.391,-1.97 15.151,-3.025 23.153,-3.025 31.017,0 58.419,15.77 74.609,39.714 C -23.009,-66.545 0,-35.93 0,0"
       style="fill:#ffffff;fill-opacity:1;fill-rule:nonzero;stroke:none"
       transform="matrix(1.3333333,0,0,-1.3333333,631.65627,251.52613)"
       clip-path="url(#clipPath4)" />
    <path
       id="path5"
       d="m 0,0 c 0,29.749 -17.208,55.456 -42.164,67.622 1.461,6.095 2.237,12.338 2.237,18.608 0,47.017 -37.598,84.14 -83.799,84.14 -35.844,0 -66.41,-22.953 -78.318,-55.201 -10.442,5.006 -22.137,7.813 -34.489,7.813 -18.697,0 -35.879,-6.441 -49.492,-17.203 -12.968,9.497 -28.955,15.117 -46.26,15.117 -43.295,0 -78.392,-35.097 -78.392,-78.392 0,-17.942 6.041,-34.466 16.182,-47.678 -13.214,-13.258 -21.416,-31.694 -21.416,-52.089 0,-40.369 32.099,-73.094 71.696,-73.094 5.835,0 11.501,0.728 16.931,2.069 10.563,-5.09 22.64,-7.983 35.473,-7.983 20.03,0 38.212,7.049 51.667,18.514 11.278,-6.495 24.604,-10.263 38.894,-10.263 21.307,0 40.485,8.357 53.894,21.692 7.906,-2.512 16.324,-3.878 25.062,-3.878 29.411,0 55.218,15.368 69.878,38.498 C -22.043,-62.167 0,-33.672 0,0"
       style="fill:#000000;fill-opacity:1;fill-rule:nonzero;stroke:none"
       transform="matrix(1.3333333,0,0,-1.3333333,621.91013,251.5264)"
       clip-path="url(#clipPath6)" />
    <path
       id="path7"
       d="m 0,0 -321.928,-80.957 8.177,16.26 c 0.342,0.682 -0.245,1.461 -0.995,1.319 l -66.013,-12.515 -47.774,47.324 c -0.542,0.537 -1.465,0.219 -1.562,-0.538 l -8.506,-66.677 -59.751,-30.795 c -0.678,-0.35 -0.661,-1.326 0.029,-1.652 l 60.781,-28.728 10.828,-66.305 c 0.123,-0.753 1.056,-1.039 1.579,-0.483 l 46.074,48.94 66.466,-10.214 c 0.754,-0.116 1.314,0.684 0.948,1.353 l -11.055,20.18 287.61,52.463 c 0.752,0.137 1.02,1.078 0.452,1.59 l -12.53,11.302 26.551,28.582 c 0.417,0.45 0.287,1.174 -0.261,1.45 L -41.628,-57.655 0.959,-1.45 C 1.484,-0.756 0.844,0.212 0,0"
       style="fill:#ffffff;fill-opacity:1;fill-rule:nonzero;stroke:none"
       transform="matrix(1.3333333,0,0,-1.3333333,665.13427,299.0568)"
       clip-path="url(#clipPath8)" />
    <path
       id="path9"
       d="M 0,0 C 4.109,1.542 12.71,3.851 19.935,5.419 V 27.537 L -16.17,19.202 v -59.117 l 36.105,8.336 v 9.848 c -4.74,-1.241 -14.564,-3.093 -18.865,-3.823 -5.237,-0.882 -5.982,5.713 -0.191,7.618 3.326,1.086 9.423,2.538 14.182,3.873 V -6.48 C 10.723,-7.36 4.855,-8.38 0.229,-9.035 -5.505,-9.862 -6.498,-2.436 0,0"
       style="fill:#000000;fill-opacity:1;fill-rule:nonzero;stroke:none"
       transform="matrix(1.3333333,0,0,-1.3333333,524.79693,386.70587)"
       clip-path="url(#clipPath10)" />
    <path
       id="path11"
       d="m 0,0 c -1.929,-17.759 -5.024,-29.091 -5.406,-30.696 -0.802,-3.324 -2.483,-4.948 -4.413,-5.235 -3.114,-0.496 -4.623,1.777 -5.827,7.508 -0.114,0.535 -2.716,11.728 -4.565,26.268 l -13.921,-3.214 c 1.662,-13.354 5.415,-29.274 8.949,-40.851 3.553,-11.653 6.644,-14.479 13.721,-12.845 6.239,1.44 10.021,4.678 12.997,16.076 2.923,11.194 6.158,27.255 8.757,45.365 z"
       style="fill:#000000;fill-opacity:1;fill-rule:nonzero;stroke:none"
       transform="matrix(1.3333333,0,0,-1.3333333,481.87907,369.4736)"
       clip-path="url(#clipPath12)" />
    <path
       id="path13"
       d="M 0,0 C -4.887,-5.611 -14.874,-6.101 -16.764,5.59 -19.227,20.825 -9.945,25.888 -2.255,22.855 7.585,18.973 4.967,5.704 0,0 M -2.442,46.84 C -23.408,46.25 -33.556,19.435 -26.952,1.865 -22.551,-9.842 -11.678,-13.386 -3.289,-11.729 7.997,-9.499 13.86,1.672 16.053,7.237 23.242,25.481 15.032,47.332 -2.442,46.84"
       style="fill:#000000;fill-opacity:1;fill-rule:nonzero;stroke:none"
       transform="matrix(1.3333333,0,0,-1.3333333,408.5552,446.96773)"
       clip-path="url(#clipPath14)" />
    <path
       id="path15"
       d="M 0,0 C -4.887,-5.611 -14.874,-6.101 -16.764,5.59 -19.227,20.825 -9.945,25.888 -2.255,22.855 7.585,18.973 4.967,5.704 0,0 M -2.442,46.84 C -23.408,46.25 -33.556,19.435 -26.952,1.865 -22.551,-9.842 -11.678,-13.386 -3.289,-11.729 7.997,-9.499 13.86,1.672 16.053,7.237 23.242,25.481 15.032,47.332 -2.442,46.84"
       style="fill:#000000;fill-opacity:1;fill-rule:nonzero;stroke:none"
       transform="matrix(1.3333333,0,0,-1.3333333,337.02013,463.48293)"
       clip-path="url(#clipPath16)" />
    <path
       id="path17"
       d="m 0,0 c -4.918,-1.135 -8.526,1.486 -8.525,5.605 0,4.718 4.51,9.477 9.221,10.564 1.35,0.312 2.604,0.383 3.783,0.09 l -7.177,10.616 c 2.005,2.165 5.192,2.846 7.838,2.811 6.111,-0.082 11.744,-4.757 11.744,-8.811 0,-1.819 -0.812,-3.356 -1.895,-4.561 -0.651,-0.724 -1.047,-0.566 -0.887,-0.042 0.251,0.817 0.435,1.667 0.435,2.309 0,2.796 -3.468,4.364 -6.44,3.678 C 6.948,21.993 5.608,21.646 4.194,20.365 L 8.437,13.527 C 8.925,12.74 9.245,11.704 9.245,10.581 9.245,5.965 4.902,1.132 0,0 m 23.603,17.025 c 0,18.306 -18.038,23.593 -40.1,15.73 v -57.591 l 9.402,2.17 v 13.293 c 0,2.258 1.674,1.868 3.219,0.5 1.086,-0.962 7.614,-7.231 12.175,-11.74 l 14.353,3.313 c 0,0 -12.514,12.674 -13.957,13.928 8.405,3.134 14.908,11.277 14.908,20.397"
       style="fill:#000000;fill-opacity:1;fill-rule:nonzero;stroke:none"
       transform="matrix(1.3333333,0,0,-1.3333333,258.8284,465.88347)"
       clip-path="url(#clipPath18)" />
    <path
       id="path19"
       d="m 0,0 c 19.137,4.418 32.529,-11.174 33.127,-29.239 l -19.593,-4.523 c -1.633,10.632 -10.151,13.672 -17.21,8.378 -5.758,-4.318 -8.829,-12.728 -8.829,-21.944 0,-20.427 18.686,-22.741 25.539,-5.855 L 6.56,-54.678 v 11.889 l 26.625,6.147 v -31.536 l -9.296,-2.146 v 8.948 C 7.824,-84.05 -18.908,-76.026 -25.482,-57.082 -32.737,-36.177 -24.237,-5.596 0,0"
       style="fill:#000000;fill-opacity:1;fill-rule:nonzero;stroke:none"
       transform="matrix(1.3333333,0,0,-1.3333333,178.4992,413.0352)"
       clip-path="url(#clipPath20)" />
    <path
       id="path21"
       d="M 0,0 V 6.384 L -1.605,-0.371 -3.343,-0.772 -4.91,5.251 v -6.385 l -1.643,-0.379 v 7.642 l 2.567,0.593 1.548,-5.704 0.019,0.004 1.509,6.41 2.534,0.585 V 0.375 Z m -11.863,-2.739 v 6.287 l -2.643,-0.61 v 1.355 l 6.991,1.614 V 4.552 l -2.548,-0.588 v -6.287 z"
       style="fill:#ffffff;fill-opacity:1;fill-rule:nonzero;stroke:none"
       transform="matrix(1.3333333,0,0,-1.3333333,535.35653,279.72747)"
       clip-path="url(#clipPath22)" />
    <path
       id="path23"
       d="m 0,0 c 0,0 -0.103,-26.946 -0.439,-31.686 -0.524,-7.404 -2.513,-7.602 -4.206,-6.492 -3.378,2.216 -9.689,14.836 -15.341,25.81 l -8.245,-1.904 v -68.189 l 10.082,2.328 0.034,17.302 c 0.017,8.882 2.442,9.46 5.966,6.233 2.674,-2.448 6.312,-7.847 12.046,-17.027 l 13.341,3.08 V 3.056 Z"
       style="fill:#ffffff;fill-opacity:1;fill-rule:nonzero;stroke:none"
       transform="matrix(1.3333333,0,0,-1.3333333,493.27587,191.22933)"
       clip-path="url(#clipPath24)" />
    <path
       id="path25"
       d="m 0,0 c -0.306,-0.002 -2.571,0.075 -2.813,1.803 -0.14,1.001 0.34,1.94 1.549,2.679 1.889,1.156 8.43,3.036 14.708,4.509 v 8.681 c 0,0 -11.367,-2.735 -14.863,-2.215 -1.062,0.157 -1.769,0.719 -1.91,1.7 -0.144,1.002 0.362,1.906 1.548,2.679 3.198,2.082 17.548,5.178 17.548,5.178 V 45.043 L -13.78,38.222 v -53.397 l 30.166,6.964 V 2.885 C 8.335,1.056 2.893,0.016 0,0"
       style="fill:#ffffff;fill-opacity:1;fill-rule:nonzero;stroke:none"
       transform="matrix(1.3333333,0,0,-1.3333333,425.42613,282.30347)"
       clip-path="url(#clipPath26)" />
    <path
       id="path27"
       d="m 0,0 c 0,0 -3.201,-21.088 -6.043,-30.834 -0.812,-2.784 -2.775,-7.045 -5.445,-0.953 -0.956,2.182 -3.794,12.377 -5.878,25.519 l -9.218,-2.128 c 0.807,-9.037 5.232,-33.444 11.128,-47.663 l 17.877,4.127 c 6.58,17.414 10.529,35.808 11.87,55.231 z"
       style="fill:#ffffff;fill-opacity:1;fill-rule:nonzero;stroke:none"
       transform="matrix(1.3333333,0,0,-1.3333333,381.87347,229.1864)"
       clip-path="url(#clipPath28)" />
    <path
       id="path29"
       d="m 0,0 -6.319,-1.459 c -1.585,-0.366 -2.506,0.602 -2.313,2.863 0.18,2.116 1.107,6.6 1.459,8.114 0.779,3.349 2.311,4.745 4.112,4.996 2.308,0.322 4.324,-1.695 5.428,-7.166 C 2.474,6.82 2.743,5.722 2.919,4.23 3.132,2.419 2.243,0.518 0,0 m 7.879,30.23 c -4.474,8.242 -9.677,6.534 -12.343,5.652 -3.492,-1.156 -6.593,-2.95 -9.837,-15.817 -3.41,-13.526 -7.126,-41.972 -7.126,-41.972 l 9.359,2.161 0.967,5.42 c 0.465,2.602 2.121,4.255 4.645,4.998 2.427,0.714 7.253,1.882 9.729,2.164 1.046,0.118 2.275,-0.707 2.632,-2.345 l 1.264,-5.796 12.748,2.943 c 0,0 -6.342,32.097 -12.038,42.592"
       style="fill:#ffffff;fill-opacity:1;fill-rule:nonzero;stroke:none"
       transform="matrix(1.3333333,0,0,-1.3333333,329.0596,308.1456)"
       clip-path="url(#clipPath30)" />
    <path
       id="path31"
       d="m 0,0 c -0.306,-0.002 -2.571,0.075 -2.813,1.803 -0.14,1.001 0.34,1.94 1.549,2.679 1.889,1.156 8.43,3.036 14.708,4.509 v 8.681 c 0,0 -11.367,-2.735 -14.863,-2.215 -1.062,0.157 -1.769,0.719 -1.91,1.7 -0.144,1.002 0.362,1.906 1.548,2.679 3.198,2.082 17.548,5.178 17.548,5.178 V 46.605 L -13.78,39.783 V -13.614 L 16.386,-6.65 V 2.885 C 8.335,1.056 2.893,0.016 0,0"
       style="fill:#ffffff;fill-opacity:1;fill-rule:nonzero;stroke:none"
       transform="matrix(1.3333333,0,0,-1.3333333,272.93653,322.44933)"
       clip-path="url(#clipPath32)" />
    <path
       id="path33"
       d="m 0,0 c 0,-10.657 0.054,-18.633 -1.406,-23.859 -0.887,-3.174 -2.839,-5.591 -5.446,-7.42 -2.655,-1.863 -5.316,-2.679 -7.923,-2.731 -3.178,-0.063 -5.502,1.667 -5.841,5.199 -0.488,5.073 -0.456,11.485 -0.456,20.369 l -11.536,-2.663 v -78.582 l 15.846,3.659 c 0,10 0.205,17.372 1.438,21.97 0.84,3.133 3.124,5.777 5.431,7.335 2.696,1.82 5.176,2.731 7.788,2.773 3.174,0.052 5.585,-1.587 5.884,-4.752 0.439,-4.638 0.468,-10.945 0.468,-19.551 l 11.742,2.711 V 3.691 Z"
       style="fill:#ffffff;fill-opacity:1;fill-rule:nonzero;stroke:none"
       transform="matrix(1.3333333,0,0,-1.3333333,223.20947,254.262)"
       clip-path="url(#clipPath34)" />
    <path
       id="path35"
       d="m 0,0 c -4.919,-16.244 -7.704,-24.187 -10.129,-30.883 -4.134,-11.393 -8.421,-6.917 -10.42,-3.74 -2.323,3.723 -5.483,10.966 -10.966,24.238 l -13.545,-3.127 v -63.761 l 11.239,2.595 c -0.085,10.163 0.086,17.064 0.632,19.745 0.496,2.409 1.947,2.75 3.416,0.359 1.213,-1.964 3.126,-6.218 6.935,-14.963 l 7.531,1.739 c 4.151,11.153 6.39,16.777 7.979,19.527 1.281,2.237 3.724,3.809 4.458,-0.325 0.564,-3.126 0.513,-11.606 0.495,-21.991 l 11.65,2.69 V 2.141 Z"
       style="fill:#ffffff;fill-opacity:1;fill-rule:nonzero;stroke:none"
       transform="matrix(1.3333333,0,0,-1.3333333,508.94653,80.412533)"
       clip-path="url(#clipPath36)" />
    <path
       id="path37"
       d="m 0,0 c -0.051,-8.711 -0.034,-16.654 -0.41,-19.558 -0.871,-6.935 -12.725,-10.061 -13.306,-3.672 -0.274,3.006 -0.513,6.978 -0.513,15.843 L -23.811,-9.6 v -58.417 l 12.213,2.82 c 0,9.275 0,13.305 0.154,16.482 0.427,8.37 12.998,10.265 14.091,2.989 0.496,-3.314 0.581,-4.902 0.581,-12.384 l 9.736,2.248 V 2.993 Z"
       style="fill:#ffffff;fill-opacity:1;fill-rule:nonzero;stroke:none"
       transform="matrix(1.3333333,0,0,-1.3333333,422.53893,124.8012)"
       clip-path="url(#clipPath38)" />
    <path
       id="path39"
       d="m 0,0 v -23.514 l 6.815,1.574 c 4.134,0.954 5.842,0.416 5.842,-6.901 v -30.203 l 11.188,2.583 v 27.688 c 0,12.299 1.155,15.402 7.243,16.808 l 5.568,1.285 V 8.463 Z"
       style="fill:#ffffff;fill-opacity:1;fill-rule:nonzero;stroke:none"
       transform="matrix(1.3333333,0,0,-1.3333333,336.1312,131.23453)"
       clip-path="url(#clipPath40)" />
    <path
       id="path41"
       d="m 0,0 -10.454,-2.413 c 0,0 0.154,-10.761 -0.256,-18.687 -0.598,-11.598 -12.281,-14.092 -13.221,-3.058 -0.478,5.791 -0.7,17.332 -0.7,17.332 L -37.63,-9.827 v -9.411 c 0,-22.462 14.605,-25.229 22.24,-18.824 0.461,0.393 0.922,0.632 1.298,0.462 0.427,-0.188 0.41,-0.65 0.239,-1.504 -0.461,-2.237 -3.775,-6.661 -10.471,-8.455 -5.107,-1.366 -10.112,-2.228 -12.605,-2.621 v -15.587 c 11.239,1.452 24.255,4.663 30.318,13.989 3.16,4.868 4.817,10.01 5.637,17.628 C 0.307,-22.159 0,0 0,0"
       style="fill:#ffffff;fill-opacity:1;fill-rule:nonzero;stroke:none"
       transform="matrix(1.3333333,0,0,-1.3333333,330.02747,151.94107)"
       clip-path="url(#clipPath42)" />
    <path
       id="path43"
       d="m 0,0 c -0.051,-8.711 -0.034,-16.654 -0.41,-19.558 -0.871,-6.935 -12.725,-10.061 -13.306,-3.672 -0.273,3.006 -0.513,6.978 -0.513,15.843 L -23.811,-9.6 v -58.417 l 12.213,2.82 c 0,9.275 0,13.305 0.154,16.482 0.427,8.369 12.998,10.265 14.091,2.989 0.496,-3.314 0.581,-4.902 0.581,-12.384 l 9.736,2.248 V 2.993 Z"
       style="fill:#ffffff;fill-opacity:1;fill-rule:nonzero;stroke:none"
       transform="matrix(1.3333333,0,0,-1.3333333,254.07347,150.64933)"
       clip-path="url(#clipPath44)" />
    <path
       id="path45"
       d="m 0,0 c -4.663,-1.093 -7.259,1.503 -7.259,7.055 v 5.363 c -10e-4,3.868 0.751,7.225 4.202,8.318 C 6.961,23.91 13.938,19.592 13.938,12.811 13.938,6.474 9.087,2.135 0,0 m 33.769,23.179 c 0,24.648 -24.118,31.805 -53.617,21.266 v -79.566 l 12.571,2.903 v 19.92 c 0,3.04 2.238,2.511 4.305,0.666 1.452,-1.298 10.18,-9.753 16.278,-15.834 l 19.192,4.43 c 0,0 -16.732,17.092 -18.662,18.783 11.239,4.202 19.933,15.152 19.933,27.432"
       style="fill:#ffffff;fill-opacity:1;fill-rule:nonzero;stroke:none"
       transform="matrix(1.3333333,0,0,-1.3333333,169.26,197.49693)"
       clip-path="url(#clipPath46)" />
  </g>
</svg>
