<?xml version="1.0" encoding="UTF-8" standalone="no"?>
<!-- Created with Inkscape (http://www.inkscape.org/) -->

<svg
   version="1.1"
   id="svg1"
   width="666.66669"
   height="485.12268"
   viewBox="0 0 666.66669 485.12268"
   sodipodi:docname="Rhythm Tengoku Miracle Stars (リズム天国 ミラクルスターズ) Logo (Wordmark).ai"
   xmlns:inkscape="http://www.inkscape.org/namespaces/inkscape"
   xmlns:sodipodi="http://sodipodi.sourceforge.net/DTD/sodipodi-0.dtd"
   xmlns="http://www.w3.org/2000/svg"
   xmlns:svg="http://www.w3.org/2000/svg">
  <defs
     id="defs1">
    <clipPath
       clipPathUnits="userSpaceOnUse"
       id="clipPath2">
      <path
         d="M 0,363.842 H 500 V 0 H 0 Z"
         transform="translate(-473.37741,-201.17081)"
         id="path2" />
    </clipPath>
    <clipPath
       clipPathUnits="userSpaceOnUse"
       id="clipPath4">
      <path
         d="M 0,363.842 H 500 V 0 H 0 Z"
         transform="translate(-386.77291,-144.8027)"
         id="path4" />
    </clipPath>
    <clipPath
       clipPathUnits="userSpaceOnUse"
       id="clipPath6">
      <path
         d="M 0,363.842 H 500 V 0 H 0 Z"
         transform="translate(-343.91061,-135.18641)"
         id="path6" />
    </clipPath>
    <clipPath
       clipPathUnits="userSpaceOnUse"
       id="clipPath8">
      <path
         d="M 0,363.842 H 500 V 0 H 0 Z"
         transform="translate(-307.94091,-105.45791)"
         id="path8" />
    </clipPath>
    <clipPath
       clipPathUnits="userSpaceOnUse"
       id="clipPath10">
      <path
         d="M 0,363.842 H 500 V 0 H 0 Z"
         transform="translate(-249.5176,-98.291002)"
         id="path10" />
    </clipPath>
    <clipPath
       clipPathUnits="userSpaceOnUse"
       id="clipPath12">
      <path
         d="M 0,363.842 H 500 V 0 H 0 Z"
         transform="translate(-158.00241,-85.1757)"
         id="path12" />
    </clipPath>
    <clipPath
       clipPathUnits="userSpaceOnUse"
       id="clipPath14">
      <path
         d="M 0,363.842 H 500 V 0 H 0 Z"
         transform="translate(-133.46631,-60.628799)"
         id="path14" />
    </clipPath>
    <clipPath
       clipPathUnits="userSpaceOnUse"
       id="clipPath16">
      <path
         d="M 0,363.842 H 500 V 0 H 0 Z"
         transform="translate(-26.690901,-28.008703)"
         id="path16" />
    </clipPath>
    <clipPath
       clipPathUnits="userSpaceOnUse"
       id="clipPath18">
      <path
         d="M 0,363.842 H 500 V 0 H 0 Z"
         transform="translate(-475.73001,-334.23821)"
         id="path18" />
    </clipPath>
    <clipPath
       clipPathUnits="userSpaceOnUse"
       id="clipPath20">
      <path
         d="M 0,363.842 H 500 V 0 H 0 Z"
         transform="translate(-465.34031,-354.46871)"
         id="path20" />
    </clipPath>
    <clipPath
       clipPathUnits="userSpaceOnUse"
       id="clipPath22">
      <path
         d="M 0,363.842 H 500 V 0 H 0 Z"
         transform="translate(-435.25631,-348.26651)"
         id="path22" />
    </clipPath>
    <clipPath
       clipPathUnits="userSpaceOnUse"
       id="clipPath24">
      <path
         d="M 0,363.842 H 500 V 0 H 0 Z"
         transform="translate(-366.62351,-229.49801)"
         id="path24" />
    </clipPath>
    <clipPath
       clipPathUnits="userSpaceOnUse"
       id="clipPath26">
      <path
         d="M 0,363.842 H 500 V 0 H 0 Z"
         transform="translate(-376.85211,-293.47061)"
         id="path26" />
    </clipPath>
    <clipPath
       clipPathUnits="userSpaceOnUse"
       id="clipPath28">
      <path
         d="M 0,363.842 H 500 V 0 H 0 Z"
         transform="translate(-337.53171,-284.47701)"
         id="path28" />
    </clipPath>
    <clipPath
       clipPathUnits="userSpaceOnUse"
       id="clipPath30">
      <path
         d="M 0,363.842 H 500 V 0 H 0 Z"
         transform="translate(-292.89891,-225.8412)"
         id="path30" />
    </clipPath>
    <clipPath
       clipPathUnits="userSpaceOnUse"
       id="clipPath32">
      <path
         d="M 0,363.842 H 500 V 0 H 0 Z"
         transform="translate(-168.78471,-160.35731)"
         id="path32" />
    </clipPath>
    <clipPath
       clipPathUnits="userSpaceOnUse"
       id="clipPath34">
      <path
         d="M 0,363.842 H 500 V 0 H 0 Z"
         transform="translate(-50.343701,-214.0263)"
         id="path34" />
    </clipPath>
    <clipPath
       clipPathUnits="userSpaceOnUse"
       id="clipPath36">
      <path
         d="M 0,363.842 H 500 V 0 H 0 Z"
         transform="translate(-497.53271,-265.85301)"
         id="path36" />
    </clipPath>
  </defs>
  <sodipodi:namedview
     id="namedview1"
     pagecolor="#ffffff"
     bordercolor="#000000"
     borderopacity="0.25"
     inkscape:showpageshadow="2"
     inkscape:pageopacity="0.0"
     inkscape:pagecheckerboard="0"
     inkscape:deskcolor="#d1d1d1">
    <inkscape:page
       x="0"
       y="0"
       inkscape:label="1"
       id="page1"
       width="666.66669"
       height="485.12268"
       margin="8.138e-05 0 0"
       bleed="0" />
  </sodipodi:namedview>
  <g
     id="layer-MC0"
     inkscape:groupmode="layer"
     inkscape:label="Layer 1">
    <path
       id="path1"
       d="m 0,0 2.968,5.768 -6.373,-1.14 -4.573,4.601 -0.885,-6.422 -5.79,-2.94 5.854,-2.818 0.982,-6.414 4.504,4.682 6.386,-1.039 z m 26.623,-21.639 -9.643,1.569 -6.8,-7.07 -1.482,9.684 -8.84,4.255 8.743,4.439 1.337,9.696 6.904,-6.947 9.621,1.721 L 21.981,-13 Z m -42.311,-23.986 c 5.629,9.09 6.427,14.73 7.223,20.941 0.278,2.247 1.344,3.435 2.549,3.838 l 2.239,0.749 v 8.349 L -56.104,-29.29 v -8.844 l 32.833,10.986 c -0.755,-11.69 -4.943,-27.427 -23.324,-33.577 l -9.509,-3.181 v -8.734 l 9.72,3.253 c 12.581,4.209 18.655,8.08 26.074,17.431 1.915,-0.875 4.448,-3.081 5.882,-6.738 l 14.797,4.951 c -2.083,2.497 -10.929,7.59 -16.057,8.118"
       style="fill:#000000;fill-opacity:1;fill-rule:nonzero;stroke:none"
       transform="matrix(1.3333333,0,0,-1.3333333,631.16987,216.89493)"
       clip-path="url(#clipPath2)" />
    <path
       id="path3"
       d="M 0,0 V -9.603 L 30.501,0.604 v 9.601 z"
       style="fill:#000000;fill-opacity:1;fill-rule:nonzero;stroke:none"
       transform="matrix(1.3333333,0,0,-1.3333333,515.6972,292.0524)"
       clip-path="url(#clipPath4)" />
    <path
       id="path5"
       d="m 0,0 v 3.427 l 20.548,6.876 c 0.859,0.287 1.556,-0.18 1.556,-1.044 V 2.605 c 0,-1.407 -0.097,-2.773 -0.296,-4.097 C 14.414,-0.028 5.599,0.514 0,0 M 0,12.192 V 18.65 L -16.271,13.206 V 6.563 l 2.005,0.718 c 1.196,0.401 2.165,-0.25 2.165,-1.451 V -6.878 c 0,-2.295 -0.636,-3.648 -3.42,-4.58 l -0.75,-0.298 v -6.508 l 8.49,2.841 c 3.378,1.13 6.252,4.256 7.328,7.64 6.886,0.481 14.285,-1.67 18.433,-3.26 -3.36,-4.677 -8.897,-8.463 -17.071,-11.198 l -12.902,-4.318 v -8.639 l 20.047,6.707 c 14.092,4.716 27.535,16.47 27.535,36.255 v 16.337 z"
       style="fill:#000000;fill-opacity:1;fill-rule:nonzero;stroke:none"
       transform="matrix(1.3333333,0,0,-1.3333333,458.54747,304.87413)"
       clip-path="url(#clipPath6)" />
    <path
       id="path7"
       d="m 0,0 c 5.631,9.09 6.428,14.73 7.224,20.94 0.278,2.247 1.343,3.435 2.548,3.838 l 2.241,0.749 v 8.35 L -40.415,16.335 V 7.49 L -7.581,18.477 C -8.338,6.786 -12.525,-8.95 -30.906,-15.101 l -9.509,-3.181 v -8.733 l 9.72,3.253 c 12.581,4.209 18.655,8.079 26.075,17.43 1.915,-0.875 4.446,-3.081 5.882,-6.738 l 14.796,4.951 C 13.976,-5.622 5.129,-0.529 0,0"
       style="fill:#000000;fill-opacity:1;fill-rule:nonzero;stroke:none"
       transform="matrix(1.3333333,0,0,-1.3333333,410.58787,344.51213)"
       clip-path="url(#clipPath8)" />
    <path
       id="path9"
       d="M 0,0 C 0,0 -0.878,-15.739 -10.33,-20.662 V 7.646 c 0,1.955 1.245,3.66 2.781,4.173 l 1.289,0.431 -0.001,6.402 -16.072,-5.378 v -46.62 l 10.635,3.558 c 15.076,5.045 23.413,17.197 26.101,34.607 z m -29.313,7.643 v -29.507 c 0,-14.958 -12.886,-18.129 -18.572,-20.032 v 8.625 c 4.04,1.352 6.401,4.896 6.401,8.442 v 19.975 c 0,1.473 -1.183,1.625 -2.66,1.131 l -1.412,-0.472 v 6.403 z"
       style="fill:#000000;fill-opacity:1;fill-rule:nonzero;stroke:none"
       transform="matrix(1.3333333,0,0,-1.3333333,332.69013,354.068)"
       clip-path="url(#clipPath10)" />
    <path
       id="path11"
       d="M 0,0 V 6.457 L -16.243,1.022 V -5.62 l 1.897,0.635 c 1.201,0.402 2.175,-0.246 2.175,-1.448 v -12.709 c 0,-2.294 -0.64,-3.649 -3.436,-4.585 l -0.636,-0.212 v -6.508 l 8.422,2.818 C -3.501,-26.184 0,-21.511 0,-17.191 v 8.424 l 20.373,6.818 c 0.864,0.289 1.564,-0.178 1.564,-1.041 v -6.654 c 0,-11.193 -5.762,-19.682 -20.911,-24.752 l -12.968,-4.338 v -8.64 l 20.149,6.741 c 14.165,4.739 27.677,16.517 27.677,36.302 v 16.337 z"
       style="fill:#000000;fill-opacity:1;fill-rule:nonzero;stroke:none"
       transform="matrix(1.3333333,0,0,-1.3333333,210.66987,371.55507)"
       clip-path="url(#clipPath12)" />
    <path
       id="path13"
       d="M 0,0 V 7.646 L -52.674,-9.978 v -8.766 l 38.727,12.958 c -0.315,-11.494 -6.42,-19.43 -20.911,-24.278 l -12.969,-4.34 v -8.64 l 20.15,6.742 C -13.513,-31.562 0,-19.785 0,0 M -4.858,11.233 -47.847,-3.15 v 7.893 l 42.989,14.384 z"
       style="fill:#000000;fill-opacity:1;fill-rule:nonzero;stroke:none"
       transform="matrix(1.3333333,0,0,-1.3333333,177.95507,404.28427)"
       clip-path="url(#clipPath14)" />
    <path
       id="path15"
       d="M 0,0 V -8.835 L 29.686,1.098 C 30.55,1.387 31.25,0.921 31.25,0.057 v -2.103 l 11.145,3.729 v 12.503 z m -4.567,-19.174 v -8.835 l 38.978,13.042 c 0.864,0.289 1.565,-0.177 1.565,-1.041 v -2.102 l 11.144,3.728 V -1.88 Z M 47.12,33.412 V 20.909 L 35.976,17.181 v 2.103 c 0,0.863 -0.701,1.329 -1.565,1.04 L -4.567,7.282 v 8.836 z"
       style="fill:#000000;fill-opacity:1;fill-rule:nonzero;stroke:none"
       transform="matrix(1.3333333,0,0,-1.3333333,35.587867,447.77773)"
       clip-path="url(#clipPath16)" />
    <path
       id="path17"
       d="m 0,0 -45.126,-13.796 c -2.427,-0.734 -3.873,-2.861 -3.872,-5.644 v -51.454 l 45.125,13.796 C -1.628,-56.425 0,-54.434 0,-51.454 Z m 18.196,15.405 v -75.573 l -85.383,-26.104 v 75.573 z m -26.659,-63.437 -4.985,-1.525 c -2.912,-0.89 -4.358,0.022 -4.358,1.905 v 11.956 l 9.343,2.857 v 6.363 l -9.343,-2.856 v 9.739 c 0,3.091 1.353,4.874 3.744,5.605 l 5.599,1.712 v 5.928 l -32.064,-9.802 v -5.929 l 5.048,1.543 c 3.528,1.079 4.294,-0.636 4.294,-1.91 v -10.976 l -9.342,-2.857 v -6.363 l 9.342,2.856 v -10.719 c 0,-3.05 -1.37,-4.893 -3.681,-5.599 l -5.661,-1.731 v -5.89 l 32.064,9.804 z m -5.124,2.414 v 7.231 l 5.124,1.566 v -7.23 z"
       style="fill:#000000;fill-opacity:1;fill-rule:nonzero;stroke:none"
       transform="matrix(1.3333333,0,0,-1.3333333,634.30667,39.471733)"
       clip-path="url(#clipPath18)" />
    <path
       id="path19"
       d="m 0,0 c -0.33,0.139 -0.676,0.273 -0.676,0.498 0,0.192 0.3,0.492 0.755,0.856 2.2,1.809 5.058,3.916 8.419,6.29 v 1.73 C 4.446,6.533 1.604,4.334 -0.722,2.454 -1.932,1.476 -2.638,0.715 -2.638,-0.102 c 0,-0.961 0.877,-1.141 1.727,-1.491 2.451,-0.964 4.996,-1.964 7.212,-3.097 l 2.637,0.791 C 5.687,-2.17 3.031,-1.14 0,0"
       style="fill:#000000;fill-opacity:1;fill-rule:nonzero;stroke:none"
       transform="matrix(1.3333333,0,0,-1.3333333,620.45373,12.497733)"
       clip-path="url(#clipPath20)" />
    <path
       id="path21"
       d="m 0,0 v -2.436 l 1.069,0.328 v 2.435 z m -9.911,-8.685 c 0,1.154 1.131,2.989 2.467,4.422 l -2.17,-0.663 c -1.051,-1.363 -1.995,-3.061 -1.995,-4.487 0,-2.691 2.75,-2.923 6.615,-1.741 1.916,0.586 3.802,1.37 5.513,2.165 v 1.682 c -1.822,-0.86 -3.612,-1.664 -5.592,-2.27 -3.017,-0.922 -4.838,-0.726 -4.838,0.892 M -0.202,2.212 -10.477,-0.929 V -2.53 l 10.275,3.14 z m -1.635,-5.209 v 2.435 l 1.084,0.332 v -2.435 z"
       style="fill:#000000;fill-opacity:1;fill-rule:nonzero;stroke:none"
       transform="matrix(1.3333333,0,0,-1.3333333,580.34173,20.767333)"
       clip-path="url(#clipPath22)" />
    <path
       id="path23"
       d="m 0,0 v 8.46 l 31.839,9.734 V 31.443 L 0,21.709 v 11.864 l 31.839,9.734 V 56.524 L -54.158,30.232 V 17.015 l 31.319,9.576 V 14.727 L -54.158,5.151 V -8.098 l 31.319,9.576 v -4.9 c 0,-15.689 -8.449,-22.036 -21.282,-25.969 l -10.037,-3.069 v -13.278 l 21.859,6.682 c 16.79,5.125 22.709,11.077 29.363,26.959 3.652,-1.451 13.571,-7.99 17.593,-12.602 l 22.609,6.912 C 30.501,-10.323 6.448,-1.263 0,0"
       style="fill:#000000;fill-opacity:1;fill-rule:nonzero;stroke:none"
       transform="matrix(1.3333333,0,0,-1.3333333,488.83133,179.12533)"
       clip-path="url(#clipPath24)" />
    <path
       id="path25"
       d="m 0,0 c -0.062,-3.511 -1.051,-6.553 -2.842,-7.101 -0.55,-0.168 -1.036,-0.108 -1.036,0.853 v 2.74 c 0,1.585 -0.614,2.279 -1.934,1.875 -0.99,-0.303 -2.011,-1.352 -2.656,-2.333 0.63,2.13 1.589,5.115 2.531,7.565 L -7.774,3.037 c -1.4,-4.112 -2.83,-9.162 -4.164,-14.473 l 1.728,0.529 c 0.205,0.88 0.535,2.342 0.848,3.303 0.504,1.467 2.009,3.866 3.143,4.213 0.501,0.153 0.768,0.042 0.768,-1.015 v -2.627 c 0,-1.762 1.005,-2.207 2.483,-1.756 3.203,0.98 4.524,5.18 4.649,9.303 z"
       style="fill:#000000;fill-opacity:1;fill-rule:nonzero;stroke:none"
       transform="matrix(1.3333333,0,0,-1.3333333,502.46947,93.828533)"
       clip-path="url(#clipPath26)" />
    <path
       id="path27"
       d="m 0,0 1.824,0.622 v 1.569 l -12.789,-4.198 v -1.601 l 6.958,2.367 c -2.102,-1.812 -3.676,-4.248 -3.676,-6.522 0,-3.509 2.94,-4.468 7.762,-2.994 l 0.36,0.111 v 1.633 c -3.55,-1.086 -6.487,-1.102 -6.487,1.894 0,2.61 3.017,5.824 6.048,7.119"
       style="fill:#000000;fill-opacity:1;fill-rule:nonzero;stroke:none"
       transform="matrix(1.3333333,0,0,-1.3333333,450.04227,105.82)"
       clip-path="url(#clipPath28)" />
    <path
       id="path29"
       d="m 0,0 -3.399,-1.04 c -2.225,-0.686 -4.674,-0.024 -6.363,2.473 l -7.756,11.459 -22.538,-6.891 10.204,-15.128 -27.799,-8.498 16.825,55.03 c 0.735,2.405 2.043,3.912 3.835,4.474 l 5.656,1.729 v 9.153 l -27.762,-8.487 -19.977,-65.343 c -0.774,-2.53 -2.27,-3.801 -3.863,-4.287 l -3.441,-1.053 V -39.64 l 93.776,28.671 z"
       style="fill:#000000;fill-opacity:1;fill-rule:nonzero;stroke:none"
       transform="matrix(1.3333333,0,0,-1.3333333,390.53187,184.00107)"
       clip-path="url(#clipPath30)" />
    <path
       id="path31"
       d="m 0,0 c 8.57,13.589 9.784,22.14 10.996,31.558 0.423,3.408 2.045,5.169 3.879,5.73 l 3.41,1.042 V 51.038 L -61.519,26.641 V 13.178 l 49.978,15.28 c -1.151,-17.761 -7.525,-41.531 -35.503,-50.085 l -14.475,-4.426 v -13.292 l 14.795,4.525 c 19.151,5.853 28.396,11.478 39.691,25.384 2.915,-1.416 6.768,-4.884 8.952,-10.514 l 22.523,6.886 C 21.272,-9.171 7.807,-1.03 0,0 m 5.861,50.807 c 3.218,1 4.942,4.349 4.004,7.506 -1,3.155 -4.35,4.942 -7.506,4.003 -3.218,-0.938 -4.942,-4.349 -4.005,-7.505 1,-3.157 4.351,-4.943 7.507,-4.004 m 6.603,8.318 c -0.938,3.155 0.786,6.505 4.004,7.505 3.156,1 6.568,-0.786 7.506,-4.004 1.001,-3.156 -0.786,-6.505 -4.004,-7.506 -3.156,-0.938 -6.506,0.786 -7.506,4.005"
       style="fill:#000000;fill-opacity:1;fill-rule:nonzero;stroke:none"
       transform="matrix(1.3333333,0,0,-1.3333333,225.04627,271.31293)"
       clip-path="url(#clipPath32)" />
    <path
       id="path33"
       d="m 0,0 v -9.828 l 1.964,0.6 c 2.957,0.905 4.398,-0.066 4.398,-1.913 v -34.908 c 0,-8.887 -3.521,-15.423 -11.043,-17.733 l -39.154,-11.971 v -13.222 l 54.753,16.741 c 11.085,3.349 18.154,13.448 18.154,26.611 v 40.222 c 0,2.78 0.947,4.751 3.723,5.599 l 2.409,0.737 v 9.828 z m -19.411,-53.531 -30.933,-9.457 v 9.807 l 2.546,0.779 c 2.739,0.838 3.727,2.894 3.727,5.635 v 20.204 c 0,1.845 -1.433,2.823 -4.394,1.917 l -1.879,-0.574 v 9.828 l 30.933,9.457 v -9.828 l -2.54,-0.776 c -2.747,-0.84 -3.733,-2.902 -3.733,-5.617 V -42.36 c 0,-1.858 1.447,-2.838 4.4,-1.936 l 1.873,0.572 z"
       style="fill:#000000;fill-opacity:1;fill-rule:nonzero;stroke:none"
       transform="matrix(1.3333333,0,0,-1.3333333,67.124933,199.75427)"
       clip-path="url(#clipPath34)" />
    <path
       id="path35"
       d="m 0,0 -1.47,-8.187 -0.018,-0.006 -1.507,7.163 -2.5,-0.86 v -9.684 l 1.6,0.551 v 8.089 l 1.526,-7.565 1.692,0.582 1.563,8.627 v -8.089 l 1.582,0.544 v 9.684 z m -13.238,-4.559 6.806,2.342 v -1.712 l -2.48,-0.854 v -7.966 l -1.753,-0.603 v 7.967 l -2.573,-0.886 z"
       style="fill:#000000;fill-opacity:1;fill-rule:nonzero;stroke:none"
       transform="matrix(1.3333333,0,0,-1.3333333,663.37693,130.652)"
       clip-path="url(#clipPath36)" />
  </g>
</svg>
