<?xml version="1.0" encoding="UTF-8" standalone="no"?>
<!-- Created with Inkscape (http://www.inkscape.org/) -->

<svg
   version="1.1"
   id="svg2"
   width="666.66669"
   height="653.89069"
   viewBox="0 0 666.66669 653.89069"
   sodipodi:docname="Rhythm Paradise Groove Logo (Wordmark).ai"
   xmlns:inkscape="http://www.inkscape.org/namespaces/inkscape"
   xmlns:sodipodi="http://sodipodi.sourceforge.net/DTD/sodipodi-0.dtd"
   xmlns="http://www.w3.org/2000/svg"
   xmlns:svg="http://www.w3.org/2000/svg">
  <defs
     id="defs6">
    <clipPath
       clipPathUnits="userSpaceOnUse"
       id="clipPath16">
      <path
         d="M 0,490.418 H 500 V 0 H 0 Z"
         id="path14" />
    </clipPath>
  </defs>
  <sodipodi:namedview
     id="namedview4"
     pagecolor="#ffffff"
     bordercolor="#000000"
     borderopacity="0.25"
     inkscape:showpageshadow="2"
     inkscape:pageopacity="0.0"
     inkscape:pagecheckerboard="0"
     inkscape:deskcolor="#d1d1d1" />
  <g
     id="g8"
     inkscape:groupmode="layer"
     inkscape:label="Rhythm Paradise Groove Logo (Wordmark)"
     transform="matrix(1.3333333,0,0,-1.3333333,0,653.89067)">
    <g
       id="g10">
      <g
         id="g12"
         clip-path="url(#clipPath16)">
        <g
           id="g18"
           transform="translate(437.7568,142.9737)">
          <path
             d="M 0,0 C 6.194,2.323 19.159,5.804 30.05,8.168 V 41.5 L -24.374,28.936 v -89.088 l 54.338,12.545 v 14.841 c -7.146,-1.871 -21.868,-4.643 -28.351,-5.743 -7.893,-1.331 -9.017,8.609 -0.288,11.48 5.014,1.636 14.204,3.825 21.378,5.838 V -9.763 C 16.163,-11.091 7.318,-12.629 0.346,-13.615 -8.297,-14.862 -9.796,-3.672 0,0"
             style="fill:#000000;fill-opacity:1;fill-rule:nonzero;stroke:none"
             id="path20" />
        </g>
        <g
           id="g22"
           transform="translate(389.2246,162.4493)">
          <path
             d="m 0,0 c -2.906,-26.763 -7.57,-43.841 -8.146,-46.259 -1.209,-5.01 -3.743,-7.457 -6.651,-7.888 -4.692,-0.748 -6.967,2.677 -8.78,11.314 -0.173,0.806 -4.094,17.674 -6.881,39.585 l -20.979,-4.844 c 2.505,-20.123 8.161,-44.115 13.486,-61.561 5.355,-17.562 10.014,-21.821 20.679,-19.358 9.401,2.17 15.101,7.051 19.585,24.226 4.405,16.871 9.281,41.073 13.197,68.365 z"
             style="fill:#000000;fill-opacity:1;fill-rule:nonzero;stroke:none"
             id="path24" />
        </g>
        <g
           id="g26"
           transform="translate(306.3506,74.877)">
          <path
             d="m 0,0 c -4.803,-5.515 -14.916,-8.081 -20.116,-2.501 -1.391,1.492 -4.009,3.884 -5.147,10.925 -2.668,16.504 3.771,25.232 12.655,27.134 2.733,0.585 6.632,-0.099 9.21,-1.116 C 3.415,31.755 6.104,25.368 6.425,21.93 7.271,12.882 4.708,5.407 0,0 m 25.357,49.148 c -5.069,13.02 -16.015,21.806 -29.038,21.44 -10.442,-0.294 -27.898,-6.024 -36.164,-28.377 -6.048,-16.354 -3.52,-32.087 -0.771,-39.4 3.878,-10.317 9.264,-14.884 15.786,-17.907 7.918,-3.669 14.874,-3.566 19.874,-2.579 17.008,3.361 25.842,20.196 29.146,28.581 5.252,13.326 4.72,29.116 1.167,38.242"
             style="fill:#000000;fill-opacity:1;fill-rule:nonzero;stroke:none"
             id="path28" />
        </g>
        <g
           id="g30"
           transform="translate(225.4985,56.211)">
          <path
             d="m 0,0 c -4.803,-5.515 -14.916,-8.081 -20.116,-2.501 -1.39,1.492 -4.009,3.884 -5.147,10.925 -2.668,16.504 3.772,25.232 12.656,27.134 2.732,0.584 6.631,-0.099 9.209,-1.116 C 3.415,31.755 6.104,25.368 6.425,21.929 7.271,12.882 4.709,5.407 0,0 m 25.358,49.148 c -5.069,13.02 -16.016,21.806 -29.039,21.44 -10.442,-0.295 -27.898,-6.024 -36.164,-28.377 -6.048,-16.355 -3.52,-32.087 -0.771,-39.4 3.878,-10.317 9.265,-14.885 15.786,-17.907 7.918,-3.669 14.874,-3.567 19.874,-2.579 17.008,3.361 25.842,20.195 29.147,28.581 5.252,13.326 4.72,29.115 1.167,38.242"
             style="fill:#000000;fill-opacity:1;fill-rule:nonzero;stroke:none"
             id="path32" />
        </g>
        <g
           id="g34"
           transform="translate(137.1431,53.4825)">
          <path
             d="m 0,0 c -7.412,-1.712 -12.848,2.238 -12.848,8.446 0,7.111 6.797,14.282 13.897,15.921 2.034,0.47 3.924,0.576 5.701,0.135 L -4.065,40.5 c 3.021,3.262 7.823,4.288 11.81,4.235 9.209,-0.122 17.698,-7.169 17.698,-13.277 0,-2.741 -1.222,-5.058 -2.856,-6.873 -0.981,-1.091 -1.577,-0.854 -1.336,-0.064 0.378,1.231 0.656,2.513 0.656,3.48 0,4.214 -5.227,6.576 -9.705,5.542 C 10.47,33.144 8.451,32.619 6.32,30.689 l 6.394,-10.304 c 0.736,-1.186 1.218,-2.748 1.218,-4.44 C 13.932,8.988 7.387,1.705 0,0 m 35.569,25.672 c 0,27.595 -27.408,35.416 -60.43,23.715 v -86.816 l 14.169,3.272 v 20.039 c 0,3.403 2.522,2.814 4.851,0.753 1.637,-1.451 11.474,-10.902 18.347,-17.699 l 21.63,4.994 c 0,0 -18.858,19.105 -21.033,20.995 12.667,4.723 22.466,16.999 22.466,30.747"
             style="fill:#000000;fill-opacity:1;fill-rule:nonzero;stroke:none"
             id="path36" />
        </g>
        <g
           id="g38"
           transform="translate(46.3516,113.213)">
          <path
             d="m 0,0 c 28.84,6.658 49.021,-16.839 49.921,-44.063 l -29.525,-6.816 c -2.462,16.023 -15.298,20.604 -25.936,12.626 -8.677,-6.508 -13.305,-19.181 -13.305,-33.069 0,-17.375 11.046,-27.576 20.195,-25.464 7.794,1.799 14.1,6.309 18.293,16.64 l -9.757,-2.252 v 17.916 l 40.124,9.263 v -47.524 L 36,-105.978 v 13.485 c -8.62,-12.166 -21.216,-20.357 -34.694,-20.705 -11.978,-0.311 -31.776,4.321 -39.707,27.177 -6.459,18.609 -3.795,39.782 2.335,53.966 C -28.377,-14.263 -15.268,-3.524 0,0"
             style="fill:#000000;fill-opacity:1;fill-rule:nonzero;stroke:none"
             id="path40" />
        </g>
        <g
           id="g42"
           transform="translate(497.4844,256.3116)">
          <path
             d="M 0,0 V 9.884 L -2.486,-0.586 -5.179,-1.221 -7.605,8.09 V -1.793 L -10.15,-2.394 V 9.438 l 3.976,0.937 2.398,-8.819 0.029,0.007 2.338,9.937 3.925,0.925 V 0.593 Z M -18.376,-4.333 V 5.4 L -22.47,4.435 V 6.526 L -11.641,9.08 V 6.988 l -3.946,-0.93 v -9.733 z"
             style="fill:#000000;fill-opacity:1;fill-rule:nonzero;stroke:none"
             id="path44" />
        </g>
        <g
           id="g46"
           transform="translate(463.002,322.1168)">
          <path
             d="M 0,0 C 5.727,2.158 17.713,5.38 27.782,7.565 V 38.733 L -22.535,27.116 v -83.304 l 50.237,11.598 v 13.878 c -6.606,-1.732 -20.218,-4.289 -26.211,-5.301 -7.299,-1.225 -8.337,8.071 -0.266,10.735 4.634,1.518 13.131,3.542 19.764,5.407 V -9.185 C 14.943,-10.41 6.766,-11.827 0.319,-12.732 -7.672,-13.878 -9.057,-3.41 0,0"
             style="fill:#000000;fill-opacity:1;fill-rule:nonzero;stroke:none"
             id="path48" />
        </g>
        <g
           id="g50"
           transform="translate(416.2891,264.7149)">
          <path
             d="m 0,0 c -0.295,2.768 -5.083,3.395 -12.54,5.183 -13.039,3.237 -21.109,10.919 -20.285,24.413 0.877,14.566 8.252,24.724 47.279,31.351 V 30.648 C 0.371,28.887 -7.404,26.252 -10.702,23.555 -14.22,20.701 -14.014,16.027 -8.938,14.332 -6.732,13.595 -0.212,11.417 3.729,10.096 11.291,7.575 14.99,3.71 15.762,-3.13 17.94,-22.429 -16.987,-27.49 -31.389,-29.605 v 17.147 C -14.136,-8.981 0.665,-5.935 0,0"
             style="fill:#000000;fill-opacity:1;fill-rule:nonzero;stroke:none"
             id="path52" />
        </g>
        <g
           id="g54"
           transform="translate(355.8682,259.6534)">
          <path
             d="m 0,0 v 74.264 l 18.779,4.335 V 4.335 Z"
             style="fill:#000000;fill-opacity:1;fill-rule:nonzero;stroke:none"
             id="path56" />
        </g>
        <g
           id="g58"
           transform="translate(310.9854,247.2677)">
          <path
             d="m 0,0 c -5.169,-1.196 -7.405,0.533 -7.405,6.579 v 19.072 c 0,4.395 -0.228,7.906 3.942,9.083 C 5.594,37.292 15.716,32.443 16.675,22.588 17.793,11.134 11.421,2.637 0,0 M -20.138,63.582 V -17.421 C 19.019,-11.693 36.065,3.436 35.64,33.509 35.267,59.586 9.376,73.917 -20.138,63.582"
             style="fill:#000000;fill-opacity:1;fill-rule:nonzero;stroke:none"
             id="path60" />
        </g>
        <g
           id="g62"
           transform="translate(256.6191,234.7218)">
          <path
             d="m 0,0 -9.456,-2.183 c -2.377,-0.548 -3.73,0.931 -3.437,4.235 0.267,3.089 1.652,9.642 2.185,11.879 1.119,4.635 3.463,6.9 6.153,7.299 4.342,0.692 6.447,-2.478 8.124,-10.468 C 3.729,10.016 4.182,8.391 4.368,6.207 4.741,1.758 3.358,0.775 0,0 M 16.568,35.507 C 11.613,51.755 7.604,55.766 -2.264,53.487 -10.963,51.479 -15.908,46.951 -20.058,31.059 -24.133,15.45 -28.608,-6.659 -32.23,-31.91 l 14.33,3.116 c 0.266,1.998 0.746,4.342 1.438,7.911 0.746,3.596 2.691,6.167 6.553,7.059 3.18,0.734 9.098,2.1 11.187,2.583 2.992,0.69 5.728,-1.678 6.686,-5.673 0.64,-2.664 1.466,-6.42 1.972,-8.95 l 19.018,4.368 C 26.637,-2.877 21.496,19.365 16.568,35.507"
             style="fill:#000000;fill-opacity:1;fill-rule:nonzero;stroke:none"
             id="path64" />
        </g>
        <g
           id="g66"
           transform="translate(186.5005,241.0245)">
          <path
             d="m 0,0 c -4.879,-1.144 -7.595,1.574 -7.595,7.383 v 5.614 c 0,4.048 0.786,7.561 4.396,8.705 C 7.283,25.023 14.583,20.503 14.583,13.406 14.583,6.774 9.507,2.234 0,0 m 35.331,24.255 c 0,25.796 -25.442,33.149 -56.097,22.26 V -34.64 l 13.153,3.037 v 18.733 c 0,3.182 2.341,2.627 4.503,0.696 1.519,-1.358 10.652,-10.208 17.031,-16.572 l 20.08,4.636 c 0,0 -17.506,17.888 -19.525,19.658 11.759,4.396 20.855,15.856 20.855,28.707"
             style="fill:#000000;fill-opacity:1;fill-rule:nonzero;stroke:none"
             id="path68" />
        </g>
        <g
           id="g70"
           transform="translate(134.8086,197.1114)">
          <path
             d="m 0,0 -9.456,-2.184 c -2.377,-0.548 -3.729,0.932 -3.436,4.235 0.267,3.09 1.651,9.642 2.184,11.88 1.119,4.634 3.463,6.898 6.153,7.298 4.342,0.693 6.447,-2.477 8.124,-10.468 C 3.729,10.015 4.182,8.39 4.369,6.206 4.742,1.758 3.359,0.775 0,0 M 16.568,35.507 C 11.614,51.755 7.604,55.765 -2.264,53.486 -10.963,51.479 -15.908,46.95 -20.057,31.059 -24.133,15.449 -28.608,-6.659 -32.23,-31.911 l 14.33,3.116 c 0.267,1.998 0.746,4.342 1.439,7.911 0.746,3.596 2.69,6.167 6.552,7.059 3.18,0.734 9.098,2.1 11.188,2.583 2.991,0.69 5.727,-1.678 6.685,-5.673 0.64,-2.664 1.466,-6.419 1.972,-8.95 l 19.019,4.369 c -2.318,18.619 -7.459,40.86 -12.387,57.003"
             style="fill:#000000;fill-opacity:1;fill-rule:nonzero;stroke:none"
             id="path72" />
        </g>
        <g
           id="g74"
           transform="translate(67.7373,212.7481)">
          <path
             d="m 0,0 c -5.914,-1.438 -9.323,0.106 -9.323,5.062 v 17.926 c 0,5.063 2.797,8.258 8.364,8.977 C 10.202,33.403 15.237,26.877 15.237,18.38 15.237,11.294 11.055,2.717 0,0 M -37.106,57.83 V -54.447 l 27.81,6.42 v 26.371 c 0,4.821 1.198,7.218 4.075,7.724 25.917,4.56 44.378,17.59 44.378,44.325 0,29.358 -31.538,45.151 -76.263,27.437"
             style="fill:#000000;fill-opacity:1;fill-rule:nonzero;stroke:none"
             id="path76" />
        </g>
        <g
           id="g78"
           transform="translate(428.2412,487.0787)">
          <path
             d="m 0,0 c -7.672,-25.332 -12.014,-37.718 -15.796,-48.159 -6.446,-17.767 -13.132,-10.788 -16.249,-5.834 -3.622,5.807 -8.55,17.101 -17.101,37.798 l -21.123,-4.874 v -99.433 l 17.528,4.046 c -0.134,15.849 0.133,26.61 0.985,30.792 0.773,3.756 3.036,4.289 5.327,0.56 1.892,-3.064 4.875,-9.696 10.815,-23.334 l 11.744,2.711 c 6.473,17.394 9.965,26.163 12.442,30.452 1.998,3.489 5.807,5.94 6.952,-0.507 0.879,-4.874 0.799,-18.098 0.773,-34.294 l 18.166,4.195 0.001,109.22 z"
             style="fill:#000000;fill-opacity:1;fill-rule:nonzero;stroke:none"
             id="path80" />
        </g>
        <g
           id="g82"
           transform="translate(327.1807,435.1627)">
          <path
             d="m 0,0 c -0.08,-13.584 -0.054,-25.971 -0.64,-30.499 -1.358,-10.814 -19.843,-15.689 -20.75,-5.727 -0.425,4.688 -0.798,10.882 -0.798,24.706 l -14.944,-3.45 v -91.097 l 19.045,4.397 c 0,14.463 0,20.748 0.24,25.702 0.666,13.052 20.271,16.009 21.976,4.661 0.772,-5.167 0.905,-7.645 0.905,-19.311 l 15.183,3.505 0.001,91.78 z"
             style="fill:#000000;fill-opacity:1;fill-rule:nonzero;stroke:none"
             id="path84" />
        </g>
        <g
           id="g86"
           transform="translate(226.1206,427.6388)">
          <path
             d="m 0,0 v -36.668 l 10.628,2.453 c 6.446,1.488 9.11,0.649 9.11,-10.761 v -47.069 l 17.447,3.997 v 43.178 c 0,19.18 1.801,24.019 11.294,26.211 l 8.684,2.005 v 29.851 z"
             style="fill:#000000;fill-opacity:1;fill-rule:nonzero;stroke:none"
             id="path88" />
        </g>
        <g
           id="g90"
           transform="translate(218.9819,403.4205)">
          <path
             d="m 0,0 -16.302,-3.763 c 0,0 0.24,-16.781 -0.4,-29.141 -0.932,-18.086 -19.152,-21.975 -20.616,-4.768 -0.746,9.03 -1.093,27.028 -1.093,27.028 l -20.27,-4.68 V -30 c 0,-35.028 22.774,-39.343 34.681,-29.354 0.719,0.612 1.438,0.985 2.024,0.719 0.666,-0.293 0.64,-1.012 0.373,-2.344 -0.719,-3.49 -5.887,-10.389 -16.328,-13.186 -7.965,-2.13 -15.769,-3.474 -19.658,-4.087 v -24.307 c 17.527,2.264 37.824,7.271 47.28,21.815 4.928,7.592 7.512,15.61 8.79,27.49 C 0.479,-34.556 0,0 0,0"
             style="fill:#000000;fill-opacity:1;fill-rule:nonzero;stroke:none"
             id="path92" />
        </g>
        <g
           id="g94"
           transform="translate(130.1479,404.9317)">
          <path
             d="m 0,0 c -0.08,-13.585 -0.053,-25.971 -0.639,-30.5 -1.359,-10.814 -19.845,-15.688 -20.751,-5.726 -0.426,4.688 -0.798,10.881 -0.798,24.706 l -14.944,-3.45 v -91.098 l 19.045,4.397 c 0,14.463 0.001,20.748 0.24,25.703 0.666,13.051 20.271,16.009 21.975,4.661 0.773,-5.168 0.906,-7.645 0.906,-19.312 l 15.183,3.506 v 91.78 z"
             style="fill:#000000;fill-opacity:1;fill-rule:nonzero;stroke:none"
             id="path96" />
        </g>
        <g
           id="g98"
           transform="translate(30.9521,350.1397)">
          <path
             d="m 0,0 c -7.272,-1.705 -11.321,2.344 -11.321,11.001 v 8.364 c 0,6.032 1.173,11.267 6.553,12.972 15.622,4.95 26.504,-1.785 26.504,-12.359 C 21.736,10.095 14.171,3.33 0,0 m 52.661,36.146 c 0,38.437 -37.611,49.598 -83.613,33.163 V -54.769 l 19.605,4.527 v 31.064 c 0,4.741 3.489,3.915 6.712,1.038 2.264,-2.024 15.876,-15.209 25.385,-24.692 l 29.929,6.91 c 0,0 -26.093,26.652 -29.103,29.29 17.527,6.552 31.085,23.628 31.085,42.778"
             style="fill:#000000;fill-opacity:1;fill-rule:nonzero;stroke:none"
             id="path100" />
        </g>
      </g>
    </g>
  </g>
</svg>
