<?xml version="1.0" encoding="UTF-8" standalone="no"?>
<!-- Created with Inkscape (http://www.inkscape.org/) -->

<svg
   version="1.1"
   id="svg1"
   width="666.66669"
   height="708.12531"
   viewBox="0 0 666.66669 708.12531"
   sodipodi:docname="Rhythm Heaven Groove Logo (Wordmark).ai"
   xmlns:inkscape="http://www.inkscape.org/namespaces/inkscape"
   xmlns:sodipodi="http://sodipodi.sourceforge.net/DTD/sodipodi-0.dtd"
   xmlns="http://www.w3.org/2000/svg"
   xmlns:svg="http://www.w3.org/2000/svg">
  <defs
     id="defs1">
    <clipPath
       clipPathUnits="userSpaceOnUse"
       id="clipPath2">
      <path
         d="M 0,531.094 H 500 V 0 H 0 Z"
         transform="translate(-467.60101,-154.26301)"
         id="path2" />
    </clipPath>
    <clipPath
       clipPathUnits="userSpaceOnUse"
       id="clipPath4">
      <path
         d="M 0,531.094 H 500 V 0 H 0 Z"
         transform="translate(-415.28661,-175.2679)"
         id="path4" />
    </clipPath>
    <clipPath
       clipPathUnits="userSpaceOnUse"
       id="clipPath6">
      <path
         d="M 0,531.094 H 500 V 0 H 0 Z"
         transform="translate(-325.90961,-80.8079)"
         id="path6" />
    </clipPath>
    <clipPath
       clipPathUnits="userSpaceOnUse"
       id="clipPath8">
      <path
         d="M 0,531.094 H 500 V 0 H 0 Z"
         transform="translate(-238.71331,-60.677104)"
         id="path8" />
    </clipPath>
    <clipPath
       clipPathUnits="userSpaceOnUse"
       id="clipPath10">
      <path
         d="M 0,531.094 H 500 V 0 H 0 Z"
         transform="translate(-143.4033,-57.750304)"
         id="path10" />
    </clipPath>
    <clipPath
       clipPathUnits="userSpaceOnUse"
       id="clipPath12">
      <path
         d="M 0,531.094 H 500 V 0 H 0 Z"
         transform="translate(-45.487701,-122.16931)"
         id="path12" />
    </clipPath>
    <clipPath
       clipPathUnits="userSpaceOnUse"
       id="clipPath14">
      <path
         d="M 0,531.094 H 500 V 0 H 0 Z"
         transform="translate(-480.47211,-284.6624)"
         id="path14" />
    </clipPath>
    <clipPath
       clipPathUnits="userSpaceOnUse"
       id="clipPath16">
      <path
         d="M 0,531.094 H 500 V 0 H 0 Z"
         transform="translate(-429.17911,-392.53551)"
         id="path16" />
    </clipPath>
    <clipPath
       clipPathUnits="userSpaceOnUse"
       id="clipPath18">
      <path
         d="M 0,531.094 H 500 V 0 H 0 Z"
         transform="translate(-346.47501,-281.5223)"
         id="path18" />
    </clipPath>
    <clipPath
       clipPathUnits="userSpaceOnUse"
       id="clipPath20">
      <path
         d="M 0,531.094 H 500 V 0 H 0 Z"
         transform="translate(-293.38711,-346.26841)"
         id="path20" />
    </clipPath>
    <clipPath
       clipPathUnits="userSpaceOnUse"
       id="clipPath22">
      <path
         d="M 0,531.094 H 500 V 0 H 0 Z"
         transform="translate(-229.0102,-250.0223)"
         id="path22" />
    </clipPath>
    <clipPath
       clipPathUnits="userSpaceOnUse"
       id="clipPath24">
      <path
         d="M 0,531.094 H 500 V 0 H 0 Z"
         transform="translate(-160.60011,-232.5872)"
         id="path24" />
    </clipPath>
    <clipPath
       clipPathUnits="userSpaceOnUse"
       id="clipPath26">
      <path
         d="M 0,531.094 H 500 V 0 H 0 Z"
         transform="translate(-99.986305,-315.70291)"
         id="path26" />
    </clipPath>
    <clipPath
       clipPathUnits="userSpaceOnUse"
       id="clipPath28">
      <path
         d="M 0,531.094 H 500 V 0 H 0 Z"
         transform="translate(-448.28071,-527.61361)"
         id="path28" />
    </clipPath>
    <clipPath
       clipPathUnits="userSpaceOnUse"
       id="clipPath30">
      <path
         d="M 0,531.094 H 500 V 0 H 0 Z"
         transform="translate(-342.95551,-473.50671)"
         id="path30" />
    </clipPath>
    <clipPath
       clipPathUnits="userSpaceOnUse"
       id="clipPath32">
      <path
         d="M 0,531.094 H 500 V 0 H 0 Z"
         transform="translate(-237.63031,-465.66531)"
         id="path32" />
    </clipPath>
    <clipPath
       clipPathUnits="userSpaceOnUse"
       id="clipPath34">
      <path
         d="M 0,531.094 H 500 V 0 H 0 Z"
         transform="translate(-230.18991,-440.42511)"
         id="path34" />
    </clipPath>
    <clipPath
       clipPathUnits="userSpaceOnUse"
       id="clipPath36">
      <path
         d="M 0,531.094 H 500 V 0 H 0 Z"
         transform="translate(-137.6074,-441.99981)"
         id="path36" />
    </clipPath>
    <clipPath
       clipPathUnits="userSpaceOnUse"
       id="clipPath38">
      <path
         d="M 0,531.094 H 500 V 0 H 0 Z"
         transform="translate(-34.225501,-384.89581)"
         id="path38" />
    </clipPath>
  </defs>
  <sodipodi:namedview
     id="namedview1"
     pagecolor="#ffffff"
     bordercolor="#000000"
     borderopacity="0.25"
     inkscape:showpageshadow="2"
     inkscape:pageopacity="0.0"
     inkscape:pagecheckerboard="0"
     inkscape:deskcolor="#d1d1d1">
    <inkscape:page
       x="0"
       y="0"
       inkscape:label="1"
       id="page1"
       width="666.66669"
       height="708.12531"
       margin="0"
       bleed="0" />
  </sodipodi:namedview>
  <g
     id="layer-MC0"
     inkscape:groupmode="layer"
     inkscape:label="Layer 1">
    <path
       id="path1"
       d="M 0,0 C 6.679,2.505 20.657,6.258 32.399,8.807 V 44.754 L -26.28,31.207 v -96.078 l 58.679,13.547 v 16.006 c -7.704,-2.017 -23.67,-5.028 -30.66,-6.213 -8.51,-1.435 -9.722,9.284 -0.31,12.38 5.405,1.765 15.314,4.125 23.049,6.295 v 12.325 C 17.427,-11.962 7.89,-13.62 0.373,-14.684 -8.946,-16.028 -10.562,-3.959 0,0"
       style="fill:#000000;fill-opacity:1;fill-rule:nonzero;stroke:none"
       transform="matrix(1.3333333,0,0,-1.3333333,623.468,502.44133)"
       clip-path="url(#clipPath2)" />
    <path
       id="path3"
       d="m 0,0 c -3.134,-28.862 -8.165,-47.281 -8.785,-49.889 -1.305,-5.402 -4.037,-8.042 -7.173,-8.507 -5.061,-0.807 -7.514,2.887 -9.47,12.202 -0.186,0.87 -4.414,19.06 -7.42,42.691 l -22.625,-5.224 c 2.702,-21.702 8.8,-47.577 14.544,-66.392 5.776,-18.94 10.799,-23.532 22.301,-20.876 10.14,2.34 16.286,7.603 21.122,26.127 4.751,18.194 10.01,44.296 14.233,73.729 z"
       style="fill:#000000;fill-opacity:1;fill-rule:nonzero;stroke:none"
       transform="matrix(1.3333333,0,0,-1.3333333,553.71547,474.4348)"
       clip-path="url(#clipPath4)" />
    <path
       id="path5"
       d="m 0,0 c -7.941,-9.12 -24.174,-9.916 -27.245,9.084 -4.003,24.762 11.082,32.99 23.58,28.061 C 12.328,30.836 8.073,9.27 0,0 m -3.969,76.126 c -34.074,-0.959 -50.567,-44.54 -39.834,-73.095 7.152,-19.026 24.824,-24.787 38.458,-22.093 18.343,3.624 27.87,21.779 31.435,30.824 11.685,29.651 -1.658,65.164 -30.059,64.364"
       style="fill:#000000;fill-opacity:1;fill-rule:nonzero;stroke:none"
       transform="matrix(1.3333333,0,0,-1.3333333,434.54613,600.38147)"
       clip-path="url(#clipPath6)" />
    <path
       id="path7"
       d="m 0,0 c -7.941,-9.12 -24.173,-9.916 -27.245,9.084 -4.003,24.762 11.082,32.99 23.58,28.061 C 12.328,30.836 8.073,9.27 0,0 m -3.969,76.126 c -34.074,-0.959 -50.568,-44.54 -39.834,-73.095 7.152,-19.026 24.824,-24.787 38.458,-22.093 18.343,3.624 27.87,21.779 31.435,30.824 11.685,29.651 -1.658,65.164 -30.059,64.364"
       style="fill:#000000;fill-opacity:1;fill-rule:nonzero;stroke:none"
       transform="matrix(1.3333333,0,0,-1.3333333,318.2844,627.22253)"
       clip-path="url(#clipPath8)" />
    <path
       id="path9"
       d="m 0,0 c -7.993,-1.845 -13.856,2.415 -13.856,9.11 0,7.668 7.33,15.402 14.987,17.17 2.195,0.506 4.232,0.621 6.149,0.146 L -4.384,43.68 c 3.258,3.517 8.438,4.624 12.738,4.567 9.931,-0.132 19.086,-7.731 19.086,-14.319 0,-2.956 -1.318,-5.454 -3.08,-7.413 -1.057,-1.176 -1.701,-0.92 -1.44,-0.07 0.407,1.328 0.707,2.711 0.707,3.754 0,4.544 -5.637,7.092 -10.467,5.978 C 11.292,35.745 9.115,35.18 6.816,33.099 l 6.897,-11.114 c 0.793,-1.279 1.312,-2.964 1.312,-4.788 C 15.025,9.694 7.967,1.84 0,0 m 38.36,27.671 c 0,29.751 -29.316,38.344 -65.172,25.564 v -93.599 l 15.281,3.527 v 21.605 c 0,3.669 2.72,3.035 5.232,0.812 1.765,-1.564 12.374,-11.753 19.786,-19.081 l 23.328,5.386 c 0,0 -20.338,20.597 -22.684,22.635 13.661,5.093 24.229,18.328 24.229,33.151"
       style="fill:#000000;fill-opacity:1;fill-rule:nonzero;stroke:none"
       transform="matrix(1.3333333,0,0,-1.3333333,191.2044,631.12493)"
       clip-path="url(#clipPath10)" />
    <path
       id="path11"
       d="m 0,0 c 31.103,7.181 52.868,-18.161 53.839,-47.521 l -31.843,-7.351 c -2.655,17.28 -16.498,22.221 -27.971,13.617 -9.358,-7.018 -14.349,-20.685 -14.349,-35.664 0,-33.2 30.369,-36.961 41.508,-9.516 l -10.523,-2.429 v 19.322 l 43.273,9.99 v -51.254 l -15.109,-3.488 v 14.543 c -26.11,-36.851 -69.556,-23.81 -80.241,6.98 C -53.206,-58.796 -39.392,-9.094 0,0"
       style="fill:#000000;fill-opacity:1;fill-rule:nonzero;stroke:none"
       transform="matrix(1.3333333,0,0,-1.3333333,60.650267,545.23293)"
       clip-path="url(#clipPath12)" />
    <path
       id="path13"
       d="M 0,0 V 10.375 L -2.608,-0.602 -5.434,-1.254 -7.979,8.533 V -1.842 L -10.65,-2.459 V 9.962 l 4.171,0.963 2.516,-9.271 0.031,0.007 2.453,10.418 4.119,0.951 V 0.609 Z M -19.28,-4.451 V 5.767 l -4.296,-0.992 v 2.203 l 11.362,2.623 V 7.398 l -4.14,-0.956 V -3.776 Z"
       style="fill:#000000;fill-opacity:1;fill-rule:nonzero;stroke:none"
       transform="matrix(1.3333333,0,0,-1.3333333,640.62947,328.57547)"
       clip-path="url(#clipPath14)" />
    <path
       id="path15"
       d="m 0,0 c 0,0 -0.168,-43.793 -0.713,-51.497 -0.851,-12.033 -4.085,-12.356 -6.837,-10.551 -5.489,3.602 -15.747,24.111 -24.932,41.947 l -13.4,-3.094 v -110.824 l 16.385,3.783 0.056,28.121 c 0.028,14.434 3.969,15.373 9.696,10.13 4.346,-3.979 10.259,-12.753 19.577,-27.673 l 21.683,5.006 V 4.967 Z"
       style="fill:#000000;fill-opacity:1;fill-rule:nonzero;stroke:none"
       transform="matrix(1.3333333,0,0,-1.3333333,572.2388,184.74467)"
       clip-path="url(#clipPath16)" />
    <path
       id="path17"
       d="m 0,0 c -0.498,-0.002 -4.179,0.123 -4.572,2.931 -0.228,1.626 0.552,3.153 2.516,4.354 3.072,1.879 13.702,4.934 23.906,7.327 v 14.109 c 0,0 -18.475,-4.445 -24.157,-3.6 -1.726,0.256 -2.876,1.169 -3.104,2.763 -0.234,1.63 0.588,3.098 2.516,4.354 5.197,3.385 28.519,8.416 28.519,8.416 V 73.207 L -22.396,62.12 v -86.784 l 49.027,11.319 V 4.689 C 13.546,1.716 4.701,0.026 0,0"
       style="fill:#000000;fill-opacity:1;fill-rule:nonzero;stroke:none"
       transform="matrix(1.3333333,0,0,-1.3333333,461.96667,332.76227)"
       clip-path="url(#clipPath18)" />
    <path
       id="path19"
       d="m 0,0 c 0,0 -5.202,-34.273 -9.821,-50.112 -1.321,-4.526 -4.51,-11.451 -8.85,-1.55 -1.554,3.547 -6.167,20.115 -9.553,41.475 l -14.981,-3.459 C -41.894,-28.332 -34.702,-68 -25.12,-91.11 l 29.055,6.708 C 14.629,-56.1 21.046,-26.206 23.227,5.362 Z"
       style="fill:#000000;fill-opacity:1;fill-rule:nonzero;stroke:none"
       transform="matrix(1.3333333,0,0,-1.3333333,391.1828,246.43413)"
       clip-path="url(#clipPath20)" />
    <path
       id="path21"
       d="m 0,0 -10.269,-2.371 c -2.576,-0.594 -4.074,0.979 -3.761,4.653 0.294,3.438 1.8,10.727 2.372,13.188 1.267,5.443 3.756,7.712 6.682,8.12 3.752,0.523 7.03,-2.757 8.824,-11.647 C 4.021,11.083 4.459,9.3 4.744,6.875 5.091,3.932 3.646,0.842 0,0 M 12.806,49.131 C 5.534,62.527 -2.921,59.751 -7.254,58.317 -12.931,56.439 -17.969,53.523 -23.242,32.61 -28.784,10.627 -34.824,-35.604 -34.824,-35.604 l 15.211,3.512 1.572,8.809 c 0.755,4.229 3.446,6.915 7.549,8.122 3.945,1.161 11.787,3.06 15.811,3.517 1.7,0.193 3.698,-1.148 4.278,-3.81 l 2.054,-9.42 20.719,4.783 c 0,0 -10.307,52.165 -19.564,69.222"
       style="fill:#000000;fill-opacity:1;fill-rule:nonzero;stroke:none"
       transform="matrix(1.3333333,0,0,-1.3333333,305.34693,374.76227)"
       clip-path="url(#clipPath22)" />
    <path
       id="path23"
       d="m 0,0 c -0.497,-0.003 -4.178,0.123 -4.571,2.931 -0.228,1.626 0.552,3.153 2.516,4.354 3.071,1.879 13.702,4.934 23.906,7.327 v 14.109 c 0,0 -18.476,-4.445 -24.158,-3.6 -1.725,0.256 -2.875,1.169 -3.103,2.763 -0.234,1.63 0.587,3.098 2.516,4.354 5.197,3.384 28.519,8.416 28.519,8.416 v 35.09 L -22.396,64.658 v -86.784 l 49.027,11.318 V 4.689 C 13.546,1.716 4.702,0.026 0,0"
       style="fill:#000000;fill-opacity:1;fill-rule:nonzero;stroke:none"
       transform="matrix(1.3333333,0,0,-1.3333333,214.13347,398.00907)"
       clip-path="url(#clipPath24)" />
    <path
       id="path25"
       d="m 0,0 c 0,-17.32 0.087,-30.282 -2.285,-38.776 -1.442,-5.16 -4.614,-9.087 -8.851,-12.06 -4.315,-3.028 -8.64,-4.354 -12.877,-4.438 -5.166,-0.102 -8.942,2.709 -9.493,8.448 -0.793,8.246 -0.741,18.666 -0.741,33.106 l -18.75,-4.329 v -127.713 l 25.754,5.945 c 0,16.254 0.334,28.234 2.337,35.706 1.365,5.093 5.079,9.39 8.828,11.922 4.381,2.959 8.412,4.439 12.657,4.508 5.159,0.083 9.076,-2.58 9.563,-7.725 0.713,-7.537 0.76,-17.787 0.76,-31.774 l 19.083,4.406 V 5.999 Z"
       style="fill:#000000;fill-opacity:1;fill-rule:nonzero;stroke:none"
       transform="matrix(1.3333333,0,0,-1.3333333,133.31507,287.18813)"
       clip-path="url(#clipPath26)" />
    <path
       id="path27"
       d="m 0,0 c -7.996,-26.4 -12.521,-39.31 -16.463,-50.192 -6.718,-18.516 -13.686,-11.243 -16.934,-6.079 -3.776,6.052 -8.912,17.822 -17.823,39.393 l -22.014,-5.083 v -103.627 l 18.266,4.217 c -0.138,16.518 0.14,27.733 1.028,32.092 0.805,3.914 3.165,4.469 5.552,0.583 1.971,-3.193 5.08,-10.105 11.271,-24.319 l 12.239,2.826 c 6.746,18.128 10.386,27.267 12.968,31.737 2.082,3.637 6.052,6.19 7.246,-0.528 0.916,-5.08 0.832,-18.862 0.805,-35.741 l 18.933,4.371 V 3.48 Z"
       style="fill:#000000;fill-opacity:1;fill-rule:nonzero;stroke:none"
       transform="matrix(1.3333333,0,0,-1.3333333,597.7076,4.6405333)"
       clip-path="url(#clipPath28)" />
    <path
       id="path29"
       d="m 0,0 c -0.084,-14.158 -0.056,-27.066 -0.667,-31.786 -1.415,-11.271 -20.682,-16.351 -21.625,-5.968 -0.444,4.885 -0.833,11.34 -0.833,25.748 l -15.574,-3.596 v -94.941 l 19.848,4.582 c 0,15.074 0,21.624 0.25,26.787 0.695,13.603 21.126,16.684 22.904,4.858 0.804,-5.386 0.943,-7.967 0.943,-20.126 l 15.824,3.653 V 4.865 Z"
       style="fill:#000000;fill-opacity:1;fill-rule:nonzero;stroke:none"
       transform="matrix(1.3333333,0,0,-1.3333333,457.274,76.783067)"
       clip-path="url(#clipPath30)" />
    <path
       id="path31"
       d="m 0,0 v -38.216 l 11.076,2.557 c 6.718,1.551 9.494,0.677 9.494,-11.215 v -49.087 l 18.184,4.197 v 45.001 c 0,19.988 1.877,25.033 11.77,27.317 l 9.051,2.089 v 31.111 z"
       style="fill:#000000;fill-opacity:1;fill-rule:nonzero;stroke:none"
       transform="matrix(1.3333333,0,0,-1.3333333,316.8404,87.238267)"
       clip-path="url(#clipPath32)" />
    <path
       id="path33"
       d="m 0,0 -16.99,-3.922 c 0,0 0.25,-17.49 -0.416,-30.37 -0.972,-18.851 -19.96,-22.903 -21.487,-4.97 -0.777,9.411 -1.138,28.169 -1.138,28.169 l -21.126,-4.878 v -15.296 c 0,-36.505 23.735,-41.003 36.144,-30.592 0.75,0.638 1.5,1.027 2.11,0.749 0.695,-0.305 0.667,-1.055 0.389,-2.443 -0.75,-3.636 -6.135,-10.826 -17.017,-13.741 -8.301,-2.221 -16.435,-3.622 -20.488,-4.261 v -25.332 c 18.267,2.359 39.42,7.578 49.275,22.736 5.137,7.912 7.829,16.268 9.162,28.649 C 0.5,-36.014 0,0 0,0"
       style="fill:#000000;fill-opacity:1;fill-rule:nonzero;stroke:none"
       transform="matrix(1.3333333,0,0,-1.3333333,306.91987,120.89187)"
       clip-path="url(#clipPath34)" />
    <path
       id="path35"
       d="m 0,0 c -0.083,-14.158 -0.056,-27.067 -0.666,-31.786 -1.416,-11.271 -20.682,-16.352 -21.626,-5.969 -0.444,4.886 -0.833,11.341 -0.833,25.749 l -15.574,-3.596 v -94.942 l 19.849,4.583 c 0,15.074 0,21.623 0.25,26.787 0.694,13.603 21.126,16.684 22.903,4.858 0.805,-5.386 0.944,-7.968 0.944,-20.127 L 21.07,-90.79 V 4.864 Z"
       style="fill:#000000;fill-opacity:1;fill-rule:nonzero;stroke:none"
       transform="matrix(1.3333333,0,0,-1.3333333,183.47653,118.79227)"
       clip-path="url(#clipPath36)" />
    <path
       id="path37"
       d="m 0,0 c -7.579,-1.777 -11.798,2.443 -11.798,11.465 v 8.717 c -10e-4,6.287 1.221,11.743 6.829,13.52 C 11.313,38.86 22.653,31.842 22.653,20.821 22.653,10.521 14.769,3.47 0,0 M 54.883,37.671 C 54.884,77.73 15.685,89.362 -32.258,72.234 V -57.08 l 20.432,4.717 v 32.375 c 0,4.942 3.637,4.081 6.995,1.083 2.36,-2.11 16.546,-15.852 26.456,-25.735 l 31.192,7.202 c 0,0 -27.193,27.777 -30.331,30.525 18.267,6.83 32.397,24.626 32.397,44.584"
       style="fill:#000000;fill-opacity:1;fill-rule:nonzero;stroke:none"
       transform="matrix(1.3333333,0,0,-1.3333333,45.634,194.93093)"
       clip-path="url(#clipPath38)" />
  </g>
</svg>
