<?xml version="1.0" encoding="UTF-8" standalone="no"?>
<!-- Created with Inkscape (http://www.inkscape.org/) -->

<svg
   version="1.1"
   id="svg1"
   width="666.66669"
   height="597.77332"
   viewBox="0 0 666.66669 597.77332"
   sodipodi:docname="Rhythm Heaven Groove Logo (Print).ai"
   xmlns:inkscape="http://www.inkscape.org/namespaces/inkscape"
   xmlns:sodipodi="http://sodipodi.sourceforge.net/DTD/sodipodi-0.dtd"
   xmlns="http://www.w3.org/2000/svg"
   xmlns:svg="http://www.w3.org/2000/svg">
  <defs
     id="defs1">
    <clipPath
       clipPathUnits="userSpaceOnUse"
       id="clipPath2">
      <path
         d="M 0,448.33 H 500 V 0 H 0 Z"
         transform="translate(-484.70701,-259.68521)"
         id="path2" />
    </clipPath>
    <clipPath
       clipPathUnits="userSpaceOnUse"
       id="clipPath4">
      <path
         d="M 0,448.33 H 500 V 0 H 0 Z"
         transform="translate(-473.74221,-259.68521)"
         id="path4" />
    </clipPath>
    <clipPath
       clipPathUnits="userSpaceOnUse"
       id="clipPath6">
      <path
         d="M 0,448.33 H 500 V 0 H 0 Z"
         transform="translate(-466.43261,-259.68521)"
         id="path6" />
    </clipPath>
    <clipPath
       clipPathUnits="userSpaceOnUse"
       id="clipPath8">
      <path
         d="M 0,448.33 H 500 V 0 H 0 Z"
         transform="translate(-498.85061,-224.0372)"
         id="path8" />
    </clipPath>
    <clipPath
       clipPathUnits="userSpaceOnUse"
       id="clipPath10">
      <path
         d="M 0,448.33 H 500 V 0 H 0 Z"
         transform="translate(-393.59761,-158.30041)"
         id="path10" />
    </clipPath>
    <clipPath
       clipPathUnits="userSpaceOnUse"
       id="clipPath12">
      <path
         d="M 0,448.33 H 500 V 0 H 0 Z"
         transform="translate(-361.40911,-171.2252)"
         id="path12" />
    </clipPath>
    <clipPath
       clipPathUnits="userSpaceOnUse"
       id="clipPath14">
      <path
         d="M 0,448.33 H 500 V 0 H 0 Z"
         transform="translate(-306.41601,-113.1041)"
         id="path14" />
    </clipPath>
    <clipPath
       clipPathUnits="userSpaceOnUse"
       id="clipPath16">
      <path
         d="M 0,448.33 H 500 V 0 H 0 Z"
         transform="translate(-252.76461,-100.7174)"
         id="path16" />
    </clipPath>
    <clipPath
       clipPathUnits="userSpaceOnUse"
       id="clipPath18">
      <path
         d="M 0,448.33 H 500 V 0 H 0 Z"
         transform="translate(-194.1211,-98.917602)"
         id="path18" />
    </clipPath>
    <clipPath
       clipPathUnits="userSpaceOnUse"
       id="clipPath20">
      <path
         d="M 0,448.33 H 500 V 0 H 0 Z"
         transform="translate(-133.8745,-138.5534)"
         id="path20" />
    </clipPath>
    <clipPath
       clipPathUnits="userSpaceOnUse"
       id="clipPath22">
      <path
         d="M 0,448.33 H 500 V 0 H 0 Z"
         transform="translate(-401.51751,-238.53431)"
         id="path22" />
    </clipPath>
    <clipPath
       clipPathUnits="userSpaceOnUse"
       id="clipPath24">
      <path
         d="M 0,448.33 H 500 V 0 H 0 Z"
         transform="translate(-369.95701,-304.90781)"
         id="path24" />
    </clipPath>
    <clipPath
       clipPathUnits="userSpaceOnUse"
       id="clipPath26">
      <path
         d="M 0,448.33 H 500 V 0 H 0 Z"
         transform="translate(-319.06931,-236.60221)"
         id="path26" />
    </clipPath>
    <clipPath
       clipPathUnits="userSpaceOnUse"
       id="clipPath28">
      <path
         d="M 0,448.33 H 500 V 0 H 0 Z"
         transform="translate(-286.40521,-276.44011)"
         id="path28" />
    </clipPath>
    <clipPath
       clipPathUnits="userSpaceOnUse"
       id="clipPath30">
      <path
         d="M 0,448.33 H 500 V 0 H 0 Z"
         transform="translate(-246.79491,-217.22041)"
         id="path30" />
    </clipPath>
    <clipPath
       clipPathUnits="userSpaceOnUse"
       id="clipPath32">
      <path
         d="M 0,448.33 H 500 V 0 H 0 Z"
         transform="translate(-204.70261,-206.49281)"
         id="path32" />
    </clipPath>
    <clipPath
       clipPathUnits="userSpaceOnUse"
       id="clipPath34">
      <path
         d="M 0,448.33 H 500 V 0 H 0 Z"
         transform="translate(-167.4072,-257.63341)"
         id="path34" />
    </clipPath>
    <clipPath
       clipPathUnits="userSpaceOnUse"
       id="clipPath36">
      <path
         d="M 0,448.33 H 500 V 0 H 0 Z"
         transform="translate(-381.70991,-388.02061)"
         id="path36" />
    </clipPath>
    <clipPath
       clipPathUnits="userSpaceOnUse"
       id="clipPath38">
      <path
         d="M 0,448.33 H 500 V 0 H 0 Z"
         transform="translate(-316.90431,-354.72911)"
         id="path38" />
    </clipPath>
    <clipPath
       clipPathUnits="userSpaceOnUse"
       id="clipPath40">
      <path
         d="M 0,448.33 H 500 V 0 H 0 Z"
         transform="translate(-252.09861,-349.90391)"
         id="path40" />
    </clipPath>
    <clipPath
       clipPathUnits="userSpaceOnUse"
       id="clipPath42">
      <path
         d="M 0,448.33 H 500 V 0 H 0 Z"
         transform="translate(-247.5205,-334.37411)"
         id="path42" />
    </clipPath>
    <clipPath
       clipPathUnits="userSpaceOnUse"
       id="clipPath44">
      <path
         d="M 0,448.33 H 500 V 0 H 0 Z"
         transform="translate(-190.5552,-335.34291)"
         id="path44" />
    </clipPath>
    <clipPath
       clipPathUnits="userSpaceOnUse"
       id="clipPath46">
      <path
         d="M 0,448.33 H 500 V 0 H 0 Z"
         transform="translate(-126.9448,-300.20721)"
         id="path46" />
    </clipPath>
  </defs>
  <sodipodi:namedview
     id="namedview1"
     pagecolor="#ffffff"
     bordercolor="#000000"
     borderopacity="0.25"
     inkscape:showpageshadow="2"
     inkscape:pageopacity="0.0"
     inkscape:pagecheckerboard="0"
     inkscape:deskcolor="#d1d1d1">
    <inkscape:page
       x="0"
       y="0"
       inkscape:label="1"
       id="page1"
       width="666.66669"
       height="597.77332"
       margin="0"
       bleed="0" />
  </sodipodi:namedview>
  <g
     id="layer-MC0"
     inkscape:groupmode="layer"
     inkscape:label="Layer 1">
    <path
       id="path1"
       d="m 0,0 c 0,31.898 -16.013,60.108 -40.387,76.963 0.302,3.087 0.46,6.18 0.46,9.266 0,27.556 -10.631,53.35 -29.933,72.632 -19.228,19.206 -44.848,29.784 -72.14,29.784 -37.223,0 -69.845,-20.354 -87.636,-50.666 -8.037,2.135 -16.473,3.278 -25.172,3.278 -18.209,0 -35.273,-4.991 -49.907,-13.668 -13.65,7.385 -29.266,11.581 -45.845,11.581 -53.302,0 -96.667,-43.364 -96.667,-96.666 0,-16.762 4.291,-32.54 11.829,-46.297 -10.727,-15.043 -17.062,-33.519 -17.062,-53.471 0,-50.38 40.36,-91.367 89.971,-91.367 5.104,0 10.108,0.441 14.983,1.274 11.462,-4.619 24.119,-7.189 37.421,-7.189 19.923,0 38.406,5.758 53.578,15.548 11.319,-4.688 23.83,-7.297 36.983,-7.297 22.271,0 42.711,7.472 58.612,19.874 6.573,-1.35 13.377,-2.059 20.344,-2.059 33.484,0 63.209,16.388 81.588,41.561 C -24.478,-73.252 0,-39.442 0,0"
       style="fill:#000000;fill-opacity:1;fill-rule:nonzero;stroke:none"
       transform="matrix(1.3333333,0,0,-1.3333333,646.276,251.5264)"
       clip-path="url(#clipPath2)" />
    <path
       id="path3"
       d="m 0,0 c 0,30.536 -16.625,57.226 -41.247,71.468 0.854,4.901 1.32,9.839 1.32,14.761 0,24.625 -9.488,47.664 -26.718,64.874 -17.157,17.139 -40.025,26.577 -64.39,26.577 -36.252,0 -67.614,-21.669 -82.22,-52.931 -9.523,3.58 -19.83,5.543 -30.588,5.543 -18.448,0 -35.573,-5.764 -49.679,-15.581 -13.317,8.527 -29.121,13.495 -46.073,13.495 -47.256,0 -85.702,-38.446 -85.702,-85.702 0,-17.388 5.219,-33.573 14.153,-47.099 -12.06,-14.12 -19.387,-32.535 -19.387,-52.669 0,-44.334 35.443,-80.402 79.007,-80.402 5.547,0 10.962,0.591 16.19,1.704 10.936,-4.872 23.225,-7.619 36.213,-7.619 19.916,0 38.201,6.438 52.455,17.135 11.357,-5.663 24.332,-8.884 38.106,-8.884 21.637,0 41.296,7.947 55.803,20.839 7.391,-1.969 15.151,-3.025 23.153,-3.025 31.017,0 58.418,15.771 74.609,39.714 C -23.009,-66.544 0,-35.929 0,0"
       style="fill:#ffffff;fill-opacity:1;fill-rule:nonzero;stroke:none"
       transform="matrix(1.3333333,0,0,-1.3333333,631.65627,251.5264)"
       clip-path="url(#clipPath4)" />
    <path
       id="path5"
       d="m 0,0 c 0,29.75 -17.208,55.456 -42.164,67.622 1.461,6.095 2.237,12.337 2.237,18.607 0,47.018 -37.598,84.141 -83.799,84.141 -35.844,0 -66.41,-22.953 -78.318,-55.201 -10.441,5.006 -22.137,7.813 -34.489,7.813 -18.696,0 -35.879,-6.441 -49.492,-17.203 -12.968,9.497 -28.954,15.117 -46.26,15.117 -43.295,0 -78.392,-35.098 -78.392,-78.392 0,-17.942 6.041,-34.465 16.182,-47.677 -13.214,-13.259 -21.416,-31.695 -21.416,-52.091 0,-40.368 32.099,-73.092 71.696,-73.092 5.835,0 11.501,0.727 16.931,2.069 10.563,-5.091 22.64,-7.984 35.473,-7.984 20.03,0 38.212,7.049 51.666,18.514 11.279,-6.496 24.605,-10.263 38.895,-10.263 21.308,0 40.485,8.357 53.894,21.692 7.906,-2.513 16.324,-3.878 25.062,-3.878 29.411,0 55.218,15.368 69.878,38.498 C -22.043,-62.167 0,-33.672 0,0"
       style="fill:#000000;fill-opacity:1;fill-rule:nonzero;stroke:none"
       transform="matrix(1.3333333,0,0,-1.3333333,621.91013,251.5264)"
       clip-path="url(#clipPath6)" />
    <path
       id="path7"
       d="m 0,0 -321.927,-80.958 8.176,16.261 c 0.343,0.682 -0.245,1.461 -0.995,1.319 l -66.013,-12.515 -47.774,47.324 c -0.542,0.537 -1.465,0.219 -1.562,-0.538 l -8.506,-66.677 -59.751,-30.795 c -0.678,-0.349 -0.661,-1.326 0.029,-1.652 l 60.781,-28.728 10.828,-66.305 c 0.123,-0.753 1.056,-1.038 1.58,-0.483 l 46.073,48.94 66.466,-10.214 c 0.755,-0.115 1.314,0.684 0.948,1.354 l -11.055,20.179 287.61,52.463 c 0.752,0.137 1.02,1.078 0.452,1.59 l -12.53,11.302 26.551,28.583 c 0.417,0.449 0.287,1.174 -0.261,1.449 L -41.628,-57.655 0.959,-1.45 C 1.484,-0.756 0.844,0.212 0,0"
       style="fill:#ffffff;fill-opacity:1;fill-rule:nonzero;stroke:none"
       transform="matrix(1.3333333,0,0,-1.3333333,665.13413,299.05707)"
       clip-path="url(#clipPath8)" />
    <path
       id="path9"
       d="M 0,0 C 4.109,1.542 12.71,3.851 19.935,5.419 V 27.537 L -16.17,19.202 v -59.116 l 36.105,8.335 v 9.849 c -4.74,-1.242 -14.564,-3.094 -18.865,-3.824 -5.237,-0.883 -5.982,5.713 -0.191,7.617 3.326,1.086 9.423,2.539 14.183,3.874 v 7.584 C 10.723,-7.36 4.854,-8.38 0.229,-9.035 -5.505,-9.862 -6.498,-2.436 0,0"
       style="fill:#000000;fill-opacity:1;fill-rule:nonzero;stroke:none"
       transform="matrix(1.3333333,0,0,-1.3333333,524.7968,386.70613)"
       clip-path="url(#clipPath10)" />
    <path
       id="path11"
       d="m 0,0 c -1.929,-17.759 -5.023,-29.092 -5.406,-30.696 -0.802,-3.325 -2.484,-4.949 -4.413,-5.235 -3.114,-0.497 -4.623,1.777 -5.827,7.508 -0.114,0.534 -2.715,11.728 -4.565,26.268 L -34.132,-5.37 c 1.662,-13.353 5.414,-29.274 8.948,-40.851 3.554,-11.653 6.646,-14.479 13.722,-12.844 6.239,1.439 10.022,4.678 12.997,16.076 2.923,11.194 6.158,27.255 8.757,45.365 z"
       style="fill:#000000;fill-opacity:1;fill-rule:nonzero;stroke:none"
       transform="matrix(1.3333333,0,0,-1.3333333,481.8788,369.47307)"
       clip-path="url(#clipPath12)" />
    <path
       id="path13"
       d="M 0,0 C -4.887,-5.611 -14.874,-6.101 -16.764,5.59 -19.227,20.825 -9.945,25.888 -2.255,22.854 7.586,18.974 4.968,5.704 0,0 m -2.441,46.84 c -20.967,-0.59 -31.115,-27.405 -24.51,-44.975 4.4,-11.707 15.273,-15.252 23.663,-13.594 11.285,2.23 17.148,13.401 19.341,18.965 7.19,18.245 -1.021,40.096 -18.494,39.604"
       style="fill:#000000;fill-opacity:1;fill-rule:nonzero;stroke:none"
       transform="matrix(1.3333333,0,0,-1.3333333,408.55467,446.96787)"
       clip-path="url(#clipPath14)" />
    <path
       id="path15"
       d="M 0,0 C -4.886,-5.611 -14.874,-6.101 -16.763,5.59 -19.226,20.825 -9.945,25.889 -2.255,22.855 7.586,18.974 4.968,5.704 0,0 M -2.441,46.841 C -23.408,46.25 -33.556,19.435 -26.952,1.865 -22.551,-9.841 -11.677,-13.386 -3.288,-11.729 7.997,-9.498 13.86,1.673 16.053,7.237 c 7.19,18.244 -1.02,40.096 -18.494,39.604"
       style="fill:#000000;fill-opacity:1;fill-rule:nonzero;stroke:none"
       transform="matrix(1.3333333,0,0,-1.3333333,337.01947,463.48347)"
       clip-path="url(#clipPath16)" />
    <path
       id="path17"
       d="m 0,0 c -4.918,-1.136 -8.525,1.485 -8.525,5.604 0,4.719 4.51,9.478 9.221,10.565 1.35,0.312 2.604,0.383 3.783,0.09 l -7.176,10.616 c 2.004,2.164 5.192,2.846 7.837,2.811 6.111,-0.082 11.744,-4.757 11.744,-8.811 0,-1.819 -0.811,-3.356 -1.895,-4.562 -0.651,-0.723 -1.047,-0.565 -0.886,-0.042 0.251,0.818 0.435,1.668 0.435,2.31 0,2.796 -3.469,4.363 -6.44,3.678 -1.15,-0.266 -2.49,-0.613 -3.904,-1.894 L 8.438,13.526 C 8.926,12.74 9.245,11.703 9.245,10.581 9.245,5.965 4.902,1.132 0,0 m 23.603,17.025 c 0,18.306 -18.038,23.592 -40.1,15.73 v -57.592 l 9.402,2.171 v 13.293 c 0,2.258 1.674,1.867 3.22,0.5 1.085,-0.963 7.613,-7.231 12.174,-11.74 l 14.353,3.313 c 0,0 -12.513,12.674 -13.957,13.927 8.406,3.135 14.908,11.277 14.908,20.398"
       style="fill:#000000;fill-opacity:1;fill-rule:nonzero;stroke:none"
       transform="matrix(1.3333333,0,0,-1.3333333,258.82813,465.8832)"
       clip-path="url(#clipPath18)" />
    <path
       id="path19"
       d="m 0,0 c 19.137,4.419 32.529,-11.174 33.126,-29.239 l -19.592,-4.523 c -1.634,10.632 -10.151,13.672 -17.21,8.378 -5.758,-4.318 -8.829,-12.727 -8.829,-21.943 0,-20.428 18.686,-22.742 25.539,-5.856 L 6.56,-54.677 v 11.888 l 26.625,6.147 v -31.536 l -9.296,-2.146 v 8.948 C 7.824,-84.05 -18.909,-76.025 -25.482,-57.082 -32.737,-36.177 -24.237,-5.596 0,0"
       style="fill:#000000;fill-opacity:1;fill-rule:nonzero;stroke:none"
       transform="matrix(1.3333333,0,0,-1.3333333,178.49933,413.03547)"
       clip-path="url(#clipPath20)" />
    <path
       id="path21"
       d="m 0,0 v 6.384 l -1.605,-6.755 -1.739,-0.4 -1.566,6.021 v -6.383 l -1.643,-0.38 v 7.642 l 2.567,0.593 1.548,-5.704 0.018,0.004 1.51,6.411 2.534,0.585 V 0.375 Z m -11.863,-2.739 v 6.287 l -2.644,-0.61 v 1.355 l 6.991,1.615 V 4.552 l -2.547,-0.588 v -6.287 z"
       style="fill:#ffffff;fill-opacity:1;fill-rule:nonzero;stroke:none"
       transform="matrix(1.3333333,0,0,-1.3333333,535.35667,279.7276)"
       clip-path="url(#clipPath22)" />
    <path
       id="path23"
       d="m 0,0 c 0,0 -0.104,-26.946 -0.438,-31.686 -0.525,-7.403 -2.514,-7.602 -4.207,-6.492 -3.377,2.217 -9.69,14.836 -15.341,25.81 l -8.244,-1.903 v -68.19 l 10.081,2.328 0.034,17.302 c 0.017,8.882 2.442,9.459 5.966,6.233 2.674,-2.448 6.312,-7.846 12.045,-17.026 l 13.341,3.08 v 73.6 z"
       style="fill:#ffffff;fill-opacity:1;fill-rule:nonzero;stroke:none"
       transform="matrix(1.3333333,0,0,-1.3333333,493.276,191.2296)"
       clip-path="url(#clipPath24)" />
    <path
       id="path25"
       d="m 0,0 c -0.306,-0.001 -2.57,0.076 -2.813,1.803 -0.14,1.001 0.34,1.941 1.548,2.679 1.89,1.157 8.432,3.037 14.709,4.509 v 8.681 c 0,0 -11.367,-2.735 -14.863,-2.215 -1.061,0.158 -1.769,0.719 -1.909,1.7 -0.145,1.003 0.361,1.906 1.548,2.679 3.197,2.082 17.547,5.178 17.547,5.178 v 20.029 l -29.546,-6.821 v -53.397 l 30.166,6.964 V 2.885 C 8.335,1.056 2.894,0.016 0,0"
       style="fill:#ffffff;fill-opacity:1;fill-rule:nonzero;stroke:none"
       transform="matrix(1.3333333,0,0,-1.3333333,425.42573,282.30373)"
       clip-path="url(#clipPath26)" />
    <path
       id="path27"
       d="m 0,0 c 0,0 -3.201,-21.088 -6.043,-30.833 -0.812,-2.785 -2.775,-7.046 -5.445,-0.954 -0.956,2.182 -3.794,12.377 -5.878,25.519 l -9.218,-2.128 c 0.807,-9.037 5.232,-33.444 11.128,-47.664 l 17.877,4.128 c 6.58,17.414 10.528,35.808 11.87,55.231 z"
       style="fill:#ffffff;fill-opacity:1;fill-rule:nonzero;stroke:none"
       transform="matrix(1.3333333,0,0,-1.3333333,381.8736,229.18653)"
       clip-path="url(#clipPath28)" />
    <path
       id="path29"
       d="m 0,0 -6.319,-1.458 c -1.585,-0.366 -2.507,0.602 -2.314,2.862 0.181,2.116 1.108,6.6 1.46,8.115 0.779,3.349 2.311,4.745 4.111,4.996 2.309,0.322 4.325,-1.696 5.429,-7.166 C 2.474,6.82 2.743,5.723 2.919,4.23 3.132,2.42 2.243,0.519 0,0 m 7.879,30.23 c -4.474,8.243 -9.677,6.535 -12.343,5.652 -3.493,-1.155 -6.593,-2.949 -9.837,-15.817 -3.41,-13.526 -7.126,-41.971 -7.126,-41.971 l 9.359,2.16 0.967,5.421 c 0.465,2.601 2.121,4.255 4.645,4.997 2.427,0.715 7.253,1.883 9.728,2.164 1.046,0.119 2.275,-0.707 2.632,-2.344 l 1.265,-5.797 12.748,2.944 c 0,0 -6.342,32.096 -12.038,42.591"
       style="fill:#ffffff;fill-opacity:1;fill-rule:nonzero;stroke:none"
       transform="matrix(1.3333333,0,0,-1.3333333,329.05987,308.14613)"
       clip-path="url(#clipPath30)" />
    <path
       id="path31"
       d="m 0,0 c -0.306,-0.002 -2.571,0.075 -2.813,1.804 -0.14,1 0.34,1.939 1.548,2.678 1.89,1.157 8.431,3.037 14.709,4.509 v 8.681 c 0,0 -11.367,-2.735 -14.863,-2.215 -1.062,0.157 -1.769,0.719 -1.91,1.7 -0.144,1.003 0.361,1.906 1.548,2.679 3.198,2.082 17.548,5.178 17.548,5.178 V 46.605 L -13.78,39.784 v -53.398 l 30.166,6.965 V 2.886 C 8.335,1.057 2.893,0.016 0,0"
       style="fill:#ffffff;fill-opacity:1;fill-rule:nonzero;stroke:none"
       transform="matrix(1.3333333,0,0,-1.3333333,272.9368,322.4496)"
       clip-path="url(#clipPath32)" />
    <path
       id="path33"
       d="m 0,0 c 0,-10.657 0.054,-18.632 -1.406,-23.859 -0.887,-3.174 -2.839,-5.591 -5.446,-7.42 -2.655,-1.863 -5.316,-2.679 -7.923,-2.731 -3.179,-0.063 -5.502,1.667 -5.842,5.198 -0.487,5.074 -0.455,11.486 -0.455,20.37 l -11.536,-2.663 v -78.582 l 15.846,3.659 c 0,10.001 0.205,17.372 1.437,21.969 0.841,3.134 3.125,5.778 5.432,7.336 2.696,1.821 5.176,2.731 7.788,2.774 3.174,0.051 5.584,-1.587 5.884,-4.753 0.439,-4.638 0.468,-10.944 0.468,-19.551 l 11.742,2.711 V 3.691 Z"
       style="fill:#ffffff;fill-opacity:1;fill-rule:nonzero;stroke:none"
       transform="matrix(1.3333333,0,0,-1.3333333,223.2096,254.26213)"
       clip-path="url(#clipPath34)" />
    <path
       id="path35"
       d="m 0,0 c -4.92,-16.244 -7.704,-24.187 -10.129,-30.883 -4.134,-11.393 -8.422,-6.917 -10.42,-3.741 -2.323,3.724 -5.483,10.967 -10.966,24.239 l -13.546,-3.128 v -63.76 l 11.24,2.594 c -0.085,10.164 0.086,17.064 0.633,19.746 0.495,2.409 1.947,2.75 3.416,0.359 1.212,-1.965 3.126,-6.218 6.934,-14.963 l 7.531,1.739 c 4.151,11.153 6.39,16.777 7.979,19.527 1.281,2.237 3.724,3.809 4.458,-0.325 0.563,-3.126 0.513,-11.606 0.495,-21.991 l 11.65,2.69 V 2.141 Z"
       style="fill:#ffffff;fill-opacity:1;fill-rule:nonzero;stroke:none"
       transform="matrix(1.3333333,0,0,-1.3333333,508.94653,80.412533)"
       clip-path="url(#clipPath36)" />
    <path
       id="path37"
       d="m 0,0 c -0.052,-8.711 -0.034,-16.654 -0.41,-19.558 -0.871,-6.935 -12.726,-10.061 -13.307,-3.672 -0.272,3.006 -0.512,6.978 -0.512,15.843 L -23.812,-9.6 v -58.417 l 12.213,2.82 c 0,9.275 0,13.304 0.155,16.482 0.426,8.369 12.998,10.265 14.091,2.989 0.496,-3.314 0.582,-4.902 0.582,-12.384 l 9.735,2.248 V 2.993 Z"
       style="fill:#ffffff;fill-opacity:1;fill-rule:nonzero;stroke:none"
       transform="matrix(1.3333333,0,0,-1.3333333,422.53907,124.8012)"
       clip-path="url(#clipPath38)" />
    <path
       id="path39"
       d="m 0,0 v -23.514 l 6.815,1.574 c 4.133,0.954 5.842,0.416 5.842,-6.901 v -30.203 l 11.188,2.583 v 27.689 c 0,12.298 1.155,15.402 7.242,16.807 l 5.569,1.286 V 8.463 Z"
       style="fill:#ffffff;fill-opacity:1;fill-rule:nonzero;stroke:none"
       transform="matrix(1.3333333,0,0,-1.3333333,336.13147,131.2348)"
       clip-path="url(#clipPath40)" />
    <path
       id="path41"
       d="m 0,0 -10.454,-2.414 c 0,0 0.154,-10.76 -0.256,-18.686 -0.598,-11.598 -12.281,-14.092 -13.221,-3.058 -0.478,5.791 -0.7,17.332 -0.7,17.332 l -12.998,-3.001 v -9.411 c 0,-22.462 14.604,-25.229 22.239,-18.824 0.461,0.393 0.922,0.632 1.298,0.461 0.427,-0.187 0.41,-0.649 0.239,-1.503 -0.461,-2.237 -3.775,-6.661 -10.47,-8.455 -5.108,-1.366 -10.113,-2.228 -12.606,-2.621 v -15.587 c 11.239,1.452 24.255,4.663 30.319,13.989 3.16,4.868 4.817,10.01 5.636,17.628 C 0.308,-22.159 0,0 0,0"
       style="fill:#ffffff;fill-opacity:1;fill-rule:nonzero;stroke:none"
       transform="matrix(1.3333333,0,0,-1.3333333,330.02733,151.9412)"
       clip-path="url(#clipPath42)" />
    <path
       id="path43"
       d="m 0,0 c -0.051,-8.711 -0.034,-16.654 -0.41,-19.558 -0.871,-6.935 -12.726,-10.061 -13.306,-3.672 -0.274,3.006 -0.513,6.978 -0.513,15.843 L -23.812,-9.6 v -58.417 l 12.214,2.82 c 0,9.275 0,13.305 0.154,16.482 0.426,8.37 12.998,10.265 14.091,2.989 0.496,-3.314 0.581,-4.902 0.581,-12.384 l 9.736,2.248 V 2.993 Z"
       style="fill:#ffffff;fill-opacity:1;fill-rule:nonzero;stroke:none"
       transform="matrix(1.3333333,0,0,-1.3333333,254.0736,150.64947)"
       clip-path="url(#clipPath44)" />
    <path
       id="path45"
       d="m 0,0 c -4.663,-1.093 -7.259,1.503 -7.259,7.055 v 5.363 c 0,3.869 0.751,7.226 4.202,8.319 C 6.961,23.911 13.938,19.592 13.938,12.811 13.938,6.474 9.087,2.135 0,0 m 33.77,23.179 c 0,24.648 -24.119,31.805 -53.618,21.266 v -79.566 l 12.572,2.903 v 19.92 c 0,3.04 2.237,2.511 4.304,0.666 1.452,-1.298 10.18,-9.753 16.278,-15.834 l 19.193,4.431 c 0,0 -16.733,17.091 -18.663,18.782 11.239,4.202 19.934,15.152 19.934,27.432"
       style="fill:#ffffff;fill-opacity:1;fill-rule:nonzero;stroke:none"
       transform="matrix(1.3333333,0,0,-1.3333333,169.25973,197.49707)"
       clip-path="url(#clipPath46)" />
  </g>
</svg>
