<?xml version="1.0" encoding="UTF-8" standalone="no"?>
<!-- Created with Inkscape (http://www.inkscape.org/) -->

<svg
   version="1.1"
   id="svg2"
   width="666.66669"
   height="477.97733"
   viewBox="0 0 666.66669 477.97733"
   sodipodi:docname="Rhythm Cheonguk Miracle Stars (리듬 천국 미라클 스타즈) Logo (Print).ai"
   xmlns:inkscape="http://www.inkscape.org/namespaces/inkscape"
   xmlns:sodipodi="http://sodipodi.sourceforge.net/DTD/sodipodi-0.dtd"
   xmlns="http://www.w3.org/2000/svg"
   xmlns:svg="http://www.w3.org/2000/svg">
  <defs
     id="defs6">
    <clipPath
       clipPathUnits="userSpaceOnUse"
       id="clipPath16">
      <path
         d="M 0,358.483 H 500 V 0 H 0 Z"
         id="path14" />
    </clipPath>
  </defs>
  <sodipodi:namedview
     id="namedview4"
     pagecolor="#ffffff"
     bordercolor="#000000"
     borderopacity="0.25"
     inkscape:showpageshadow="2"
     inkscape:pageopacity="0.0"
     inkscape:pagecheckerboard="0"
     inkscape:deskcolor="#d1d1d1" />
  <g
     id="g8"
     inkscape:groupmode="layer"
     inkscape:label="Rhythm Cheonguk Miracle Stars (리듬 천국 미라클 스타즈) Logo (Print)"
     transform="matrix(1.3333333,0,0,-1.3333333,0,477.97733)">
    <g
       id="g10">
      <g
         id="g12"
         clip-path="url(#clipPath16)">
        <g
           id="g18"
           transform="translate(489.8706,275.2557)">
          <path
             d="m 0,0 c 0,45.892 -37.335,83.227 -83.227,83.227 -21.509,0 -41.138,-8.202 -55.925,-21.642 -13.254,8.974 -29.229,14.22 -46.405,14.22 -40.577,0 -74.44,-29.276 -81.589,-67.814 -7.57,2.296 -15.595,3.536 -23.905,3.536 -18.737,0 -36.031,-6.283 -49.896,-16.846 -15.149,12.728 -34.675,20.407 -55.963,20.407 -48.038,0 -87.12,-39.082 -87.12,-87.121 0,-37.818 24.224,-70.08 57.969,-82.098 13.397,-27.866 41.908,-47.149 74.84,-47.149 29.243,0 55,15.206 69.784,38.126 12.617,-7.753 27.453,-12.231 43.316,-12.231 29.108,0 54.761,15.069 69.577,37.812 12.131,-6.951 26.174,-10.93 41.129,-10.93 42.951,0 78.385,32.803 82.568,74.671 C -18.221,-59.935 0,-32.057 0,0"
             style="fill:#000000;fill-opacity:1;fill-rule:nonzero;stroke:none"
             id="path20" />
        </g>
        <g
           id="g22"
           transform="translate(480.8667,275.2557)">
          <path
             d="m 0,0 c 0,40.927 -33.296,74.223 -74.223,74.223 -21.829,0 -41.485,-9.474 -55.079,-24.524 -12.825,10.673 -29.301,17.102 -47.251,17.102 -39.932,0 -72.57,-31.803 -73.93,-71.41 -9.569,4.57 -20.272,7.132 -31.564,7.132 -19.376,0 -37.022,-7.541 -50.166,-19.838 -14.182,14.432 -33.909,23.399 -55.693,23.399 -43.073,0 -78.116,-35.043 -78.116,-78.117 0,-35.229 23.443,-65.081 55.548,-74.788 11.188,-26.672 37.569,-45.455 68.257,-45.455 29.429,0 54.898,17.276 66.805,42.217 12.683,-10.204 28.787,-16.321 46.295,-16.321 29.179,0 54.462,16.982 66.496,41.579 12.342,-9.227 27.648,-14.698 44.21,-14.698 39.964,0 72.623,31.853 73.933,71.504 C -18.318,-56.506 0,-30.354 0,0"
             style="fill:#ffffff;fill-opacity:1;fill-rule:nonzero;stroke:none"
             id="path24" />
        </g>
        <g
           id="g26"
           transform="translate(474.7827,275.2557)">
          <path
             d="m 0,0 c 0,37.632 -30.507,68.139 -68.139,68.139 -22.257,0 -42.019,-10.673 -54.455,-27.178 -12.276,12.209 -29.194,19.756 -47.876,19.756 -37.497,0 -67.895,-30.398 -67.895,-67.896 0,-2.766 0.17,-5.492 0.491,-8.172 -10.837,7.436 -23.953,11.79 -38.089,11.79 -20.016,0 -37.991,-8.727 -50.336,-22.579 -13.213,15.966 -33.18,26.14 -55.523,26.14 -39.782,0 -72.032,-32.25 -72.032,-72.033 0,-33.556 22.945,-61.752 54.001,-69.757 9.56,-25.919 34.48,-44.402 63.72,-44.402 30.003,0 55.459,19.463 64.436,46.452 12.335,-12.678 29.578,-20.557 48.664,-20.557 29.621,0 54.806,18.972 64.083,45.424 12.162,-11.493 28.568,-18.542 46.623,-18.542 37.497,0 67.895,30.398 67.895,67.895 0,0.54 -0.007,1.078 -0.02,1.614 C -18.498,-54.282 0,-29.303 0,0"
             style="fill:#000000;fill-opacity:1;fill-rule:nonzero;stroke:none"
             id="path28" />
        </g>
        <g
           id="g30"
           transform="translate(499.0678,234.8822)">
          <path
             d="m 0,0 -360.464,-115.012 4.671,10.674 c 0.242,0.552 -0.253,1.143 -0.838,1 l -51.503,-12.622 -39.602,35.415 c -0.45,0.401 -1.164,0.112 -1.209,-0.491 l -3.95,-53.037 -45.813,-26.806 c -0.52,-0.305 -0.466,-1.075 0.091,-1.304 l 49.084,-20.183 11.271,-51.942 c 0.128,-0.59 0.876,-0.776 1.265,-0.316 l 34.286,40.578 52.799,-5.318 c 0.6,-0.06 1.008,0.594 0.691,1.109 l -12.469,20.231 342.289,90.699 c 0.566,0.151 0.72,0.884 0.262,1.25 l -10.403,8.325 21.477,25.301 c 0.312,0.368 0.178,0.935 -0.266,1.122 l -16.903,7.142 26.06,43.133 C 1.168,-0.487 0.628,0.2 0,0"
             style="fill:#000000;fill-opacity:1;fill-rule:nonzero;stroke:none"
             id="path32" />
        </g>
        <g
           id="g34"
           transform="translate(443.2524,177.9388)">
          <path
             d="m 0,0 3.423,6.651 -7.349,-1.314 -5.273,5.306 -1.021,-7.406 -6.677,-3.39 6.751,-3.25 1.132,-7.396 5.195,5.4 7.364,-1.198 z"
             style="fill:#ffffff;fill-opacity:1;fill-rule:nonzero;stroke:none"
             id="path36" />
        </g>
        <g
           id="g38"
           transform="translate(426.8423,194.6122)">
          <path
             d="m 0,0 -5.472,1.25 -2.09,5.22 -2.882,-4.824 -5.618,-0.385 3.718,-4.233 -1.389,-5.451 5.18,2.211 4.745,-2.993 -0.514,5.608 z"
             style="fill:#ffffff;fill-opacity:1;fill-rule:nonzero;stroke:none"
             id="path40" />
        </g>
        <g
           id="g42"
           transform="translate(413.8628,181.1835)">
          <path
             d="m 0,0 -4.898,-0.876 -3.516,3.537 -0.681,-4.937 -4.451,-2.26 4.501,-2.167 0.754,-4.931 3.463,3.6 4.909,-0.799 -2.362,4.399 z"
             style="fill:#ffffff;fill-opacity:1;fill-rule:nonzero;stroke:none"
             id="path44" />
        </g>
        <g
           id="g46"
           transform="translate(357.146,140.0506)">
          <path
             d="M 0,0 V -6.052 L 45.776,6.214 v 6.052 z m 1.902,8.165 v 6.281 c 14.326,2.625 16.223,8.786 16.363,18.782 L 6.176,29.989 v 5.78 L 39.698,44.75 V 38.971 L 28.07,35.855 V 30.789 C 40.504,29.216 45.516,20.27 45.516,20.27 L 34.352,17.278 c 0,0 -3.224,4.954 -7.052,6.474 C 25.401,14.219 12.898,9.499 1.902,8.165"
             style="fill:#ffffff;fill-opacity:1;fill-rule:nonzero;stroke:none"
             id="path48" />
        </g>
        <g
           id="g50"
           transform="translate(347.5034,160.8417)">
          <path
             d="M 0,0 V 13.903 L -12.175,10.65 V 6.844 l 0.837,0.224 C -10.326,7.339 -9.4,7.586 -9.4,6.263 v -26.51 c -1.495,-0.96 -3.045,-1.705 -5.405,-2.336 l -15.189,-4.06 v 8.828 l 14.002,3.751 v 5.521 l -14.002,-3.752 v 6.848 l 15.624,4.176 v 5.794 l -28.322,-7.577 v -3.91 l 0.987,0.265 c 0.828,0.22 2.055,0.549 2.055,-0.678 v -22.834 c 0,-2.103 2.159,-3.719 4.223,-3.167 l 18.976,5.071 c 3.424,0.914 5.545,1.834 7.051,2.712 v -10.812 l 9.4,2.511 v 28.169 l 6.86,1.838 v 5.727 z"
             style="fill:#ffffff;fill-opacity:1;fill-rule:nonzero;stroke:none"
             id="path52" />
        </g>
        <g
           id="g54"
           transform="translate(282.9448,133.3436)">
          <path
             d="m 0,0 c 3.827,-1.52 7.052,-6.474 7.052,-6.474 l 11.164,2.992 c 0,0 -5.012,8.947 -17.445,10.52 v 11.947 l -12.853,-3.444 v -3.832 l 1.36,0.364 c 1.194,0.32 1.698,-0.04 1.698,-1.186 0,-10.831 -1.385,-17.446 -16.373,-20.192 v -6.282 C -14.401,-14.252 -1.899,-9.533 0,0 m 18.476,-11.486 v -6.052 L -27.3,-29.803 v 6.051 z"
             style="fill:#ffffff;fill-opacity:1;fill-rule:nonzero;stroke:none"
             id="path56" />
        </g>
        <g
           id="g58"
           transform="translate(233.8882,120.8006)">
          <path
             d="m 0,0 c 0.73,3.115 1.21,8.79 1.096,11.809 -0.04,1.052 0.562,1.869 1.399,2.092 l 1.954,0.525 v 3.742 L -38.328,6.705 V 1.742 l 29.631,7.94 c 0,0 -0.018,-1.526 -0.079,-3.606 L -36.115,-1.249 V -6.32 L -8.999,0.945 C -9.073,-0.287 -9.166,-1.478 -9.28,-2.487 l -35.231,-9.44 v -4.804 L 5.461,-3.342 v 4.805 z m 1.461,-20.231 -28.751,-7.704 0.005,-2.544 28.777,7.711 v -4.936 l -33.598,-9.002 c -3.5,-0.939 -4.789,-0.277 -4.792,1.859 v 4.195 c -10e-4,0.925 -0.125,1.135 -1.185,0.851 l -1.895,-0.508 v 3.765 l 32.245,8.64 v 2.578 l -29.842,-7.996 v 4.997 l 37.557,10.063 c 0.826,0.22 1.508,-0.096 1.51,-1.166 z"
             style="fill:#ffffff;fill-opacity:1;fill-rule:nonzero;stroke:none"
             id="path60" />
        </g>
        <g
           id="g62"
           transform="translate(186.6474,112.2958)">
          <path
             d="M 0,0 -6.86,-1.838 V 12.065 L -19.035,8.813 V 5.007 l 0.837,0.223 c 1.012,0.271 1.938,0.519 1.938,-0.805 v -26.177 c -1.494,-0.961 -3.408,-1.804 -5.768,-2.435 l -15.19,-4.059 v 8.602 l 14.651,3.916 c 0.645,0.172 1.167,0.845 1.167,1.502 V 1.412 c 0,0.658 -0.522,1.052 -1.167,0.879 L -47.072,-4.257 V -9.66 l 16.775,4.482 v -7.027 l -19.041,-5.09 v -3.909 l 0.409,0.109 c 0.828,0.221 2.054,0.549 2.054,-0.677 v -10.861 c 0,-2.103 1.673,-3.362 3.737,-2.81 l 19.463,5.201 c 3.424,0.915 5.909,1.931 7.415,2.809 v -10.812 l 9.4,2.512 V -7.564 L 0,-5.726 Z"
             style="fill:#ffffff;fill-opacity:1;fill-rule:nonzero;stroke:none"
             id="path64" />
        </g>
        <g
           id="g66"
           transform="translate(129.3213,110.2899)">
          <path
             d="m 0,0 v -47.799 l -9.4,-2.512 V -7.64 c 0,1.324 -0.926,1.076 -1.938,0.806 l -0.837,-0.225 v 3.806 z m -27.499,-41.301 -7.466,-2.001 v 23.015 l 7.466,2 z m 9.458,30.893 -29.746,-7.97 v -3.461 l 0.857,0.23 c 1.954,0.523 2.032,0.213 2.032,-0.728 v -25.498 c 0,-1.927 1.518,-3.081 3.39,-2.579 l 19.166,5.136 c 2.979,0.798 5.05,3.497 5.05,6.581 v 27.715 c 0,0.426 -0.337,0.684 -0.749,0.574"
             style="fill:#ffffff;fill-opacity:1;fill-rule:nonzero;stroke:none"
             id="path68" />
        </g>
        <g
           id="g70"
           transform="translate(428.3579,263.8495)">
          <path
             d="M 0,0 -19.552,-5.884 V 5.117 l 29.834,8.979 v 9.261 L 0.908,20.536 c 1.064,4.684 1.985,11.321 1.724,19.817 -0.062,2.003 1.585,2.773 2.312,2.992 l 2.67,0.803 v 6.159 L -59.591,30.081 v -9.472 l 45.833,13.795 c 0.241,-9.784 -0.181,-14.168 -1.085,-18.609 L -72.944,-1.691 v -9.262 l 37.377,11.249 v -11.001 l -23.563,-7.091 v -9.461 l 47.993,14.445 v -19.084 l 16.248,4.89 V -3.572 C 5.111,-0.75 2.823,0.85 0,0"
             style="fill:#ffffff;fill-opacity:1;fill-rule:nonzero;stroke:none"
             id="path72" />
        </g>
        <g
           id="g74"
           transform="translate(273.7905,284.4286)">
          <path
             d="m 0,0 v -21.329 l -17.361,-5.225 v -9.417 L 0,-30.745 v -9.506 c 0,-5.215 -4.554,-9.206 -12.308,-11.545 l -5.722,-1.723 v -8.857 l 12.023,3.618 c 10.145,3.048 15.27,7.068 19.195,17.808 3.102,-1.074 6.935,-7.426 7.984,-9.628 l 16.517,4.972 c -4.403,5.883 -13.528,13.049 -21.166,13.12 v 6.714 l 17.646,5.31 v 9.417 L 16.523,-16.356 V 4.973 Z m -6.007,-62.979 v -6.827 l 0.822,0.247 c 4.342,1.307 4.513,0.747 4.513,-1.162 v -7.303 c 0,-4.761 3.752,-7.49 8.382,-6.097 l 54.292,16.34 v 9.461 L 15.469,-72.325 v 15.809 z m 68.009,86.838 v -70.976 l -16.768,-5.035 v 22.444 l -14.199,-4.273 v 9.396 l 14.199,4.273 V 9.942 c 0,2.28 -1.595,1.801 -3.338,1.278 l -1.75,-0.526 v 6.603 z"
             style="fill:#ffffff;fill-opacity:1;fill-rule:nonzero;stroke:none"
             id="path76" />
        </g>
        <g
           id="g78"
           transform="translate(181.6894,221.3265)">
          <path
             d="M 0,0 V -9.772 L 49.598,5.155 V -3.619 L -7.759,-20.882 c -4.629,-1.393 -8.382,1.337 -8.382,6.097 v 11.034 c 0,1.909 -0.171,2.469 -4.512,1.162 l -0.823,-0.247 v 5.854 l 71.074,21.39 v -9.481 z m 49.598,-8.156 v -9.261 l -83.226,-25.049 v 9.261 z M 33.372,-48.772 3.021,-57.907 v 12.565 l 30.351,9.134 z m 14.549,26.313 -66.442,-19.997 v -6.358 l 0.824,0.247 c 4.348,1.309 4.519,0.626 4.519,-1.47 v -13.306 c 0,-4.284 3.377,-6.741 7.543,-5.488 l 47.689,14.353 c 4.167,1.254 7.544,5.744 7.544,10.028 v 20.771 c 0,0.952 -0.751,1.498 -1.677,1.22"
             style="fill:#ffffff;fill-opacity:1;fill-rule:nonzero;stroke:none"
             id="path80" />
        </g>
        <g
           id="g82"
           transform="translate(105.2431,240.9432)">
          <path
             d="m 0,0 v -6.109 l 1.75,0.526 c 1.742,0.522 3.337,1.001 3.337,-1.278 v -39.778 c -2.574,-1.738 -5.87,-3.299 -9.933,-4.519 l -25.734,-7.727 v 13.921 l 23.674,7.109 c 1.111,0.333 2.011,1.521 2.011,2.653 v 22.792 c 0,1.132 -0.9,1.78 -2.011,1.447 l -41.066,-12.329 v -9.305 l 27.755,8.333 v -7.965 l -31.234,-9.379 v -6.489 l 0.705,0.212 c 1.425,0.427 3.538,1.062 3.537,-1.05 v -18.053 c 0,-3.622 2.881,-5.696 6.435,-4.628 l 33.093,9.936 c 5.895,1.77 10.174,3.663 12.768,5.26 v -39.763 l 16.186,4.861 V 6.387 Z"
             style="fill:#ffffff;fill-opacity:1;fill-rule:nonzero;stroke:none"
             id="path84" />
        </g>
        <g
           id="g86"
           transform="translate(497.8891,237.5575)">
          <path
             d="m 0,0 0.234,6.791 -1.636,-7.166 -1.519,-0.408 -1.134,6.424 -0.234,-6.79 -1.436,-0.385 0.282,8.129 2.242,0.601 1.129,-6.086 0.016,0.005 1.542,6.801 L 1.699,8.509 1.418,0.38 Z m -10.362,-2.777 0.23,6.688 -2.308,-0.619 0.049,1.437 6.108,1.636 -0.05,-1.437 -2.226,-0.596 -0.231,-6.687 z"
             style="fill:#000000;fill-opacity:1;fill-rule:nonzero;stroke:none"
             id="path88" />
        </g>
      </g>
    </g>
  </g>
</svg>
