<?xml version="1.0" encoding="UTF-8" standalone="no"?>
<!-- Created with Inkscape (http://www.inkscape.org/) -->

<svg
   version="1.1"
   id="svg2"
   width="666.66669"
   height="423.91733"
   viewBox="0 0 666.66669 423.91733"
   sodipodi:docname="Rhythm Cheonguk Miracle Stars (리듬 천국 미라클 스타즈) Logo (Wordmark).ai"
   xmlns:inkscape="http://www.inkscape.org/namespaces/inkscape"
   xmlns:sodipodi="http://sodipodi.sourceforge.net/DTD/sodipodi-0.dtd"
   xmlns="http://www.w3.org/2000/svg"
   xmlns:svg="http://www.w3.org/2000/svg">
  <defs
     id="defs6">
    <clipPath
       clipPathUnits="userSpaceOnUse"
       id="clipPath28">
      <path
         d="M 0,317.938 H 500 V 0 H 0 Z"
         id="path26" />
    </clipPath>
  </defs>
  <sodipodi:namedview
     id="namedview4"
     pagecolor="#ffffff"
     bordercolor="#000000"
     borderopacity="0.25"
     inkscape:showpageshadow="2"
     inkscape:pageopacity="0.0"
     inkscape:pagecheckerboard="0"
     inkscape:deskcolor="#d1d1d1" />
  <g
     id="g8"
     inkscape:groupmode="layer"
     inkscape:label="Rhythm Cheonguk Miracle Stars (리듬 천국 미라클 스타즈) Logo (Wordmark)"
     transform="matrix(1.3333333,0,0,-1.3333333,0,423.91733)">
    <g
       id="g10"
       transform="translate(486.7346,147.6978)">
      <path
         d="m 0,0 4.277,8.312 -9.183,-1.642 -6.591,6.631 -1.275,-9.255 -8.345,-4.237 8.437,-4.062 1.414,-9.243 6.493,6.748 9.203,-1.497 z"
         style="fill:#000000;fill-opacity:1;fill-rule:nonzero;stroke:none"
         id="path12" />
    </g>
    <g
       id="g14"
       transform="translate(466.2249,168.5357)">
      <path
         d="m 0,0 -6.838,1.562 -2.613,6.524 -3.602,-6.03 -7.019,-0.481 4.646,-5.289 -1.737,-6.813 6.475,2.763 5.93,-3.74 -0.643,7.008 z"
         style="fill:#000000;fill-opacity:1;fill-rule:nonzero;stroke:none"
         id="path16" />
    </g>
    <g
       id="g18"
       transform="translate(450.0042,151.7525)">
      <path
         d="m 0,0 -6.122,-1.095 -4.394,4.421 -0.85,-6.17 -5.564,-2.825 5.626,-2.708 0.943,-6.162 4.328,4.499 6.135,-0.998 -2.954,5.496 z"
         style="fill:#000000;fill-opacity:1;fill-rule:nonzero;stroke:none"
         id="path20" />
    </g>
    <g
       id="g22">
      <g
         id="g24"
         clip-path="url(#clipPath28)">
        <g
           id="g30"
           transform="translate(379.1214,100.3462)">
          <path
             d="M 0,0 V -7.563 L 57.21,7.766 v 7.563 z m 2.378,10.204 v 7.851 c 17.903,3.28 20.274,10.98 20.449,23.472 L 7.719,37.479 v 7.223 L 49.613,55.928 V 48.705 L 35.082,44.811 V 38.479 C 50.621,36.514 56.885,25.332 56.885,25.332 L 42.932,21.594 c 0,0 -4.03,6.191 -8.814,8.09 C 31.746,17.77 16.121,11.872 2.378,10.204"
             style="fill:#000000;fill-opacity:1;fill-rule:nonzero;stroke:none"
             id="path32" />
        </g>
        <g
           id="g34"
           transform="translate(367.0706,126.3296)">
          <path
             d="M 0,0 V 17.376 L -15.216,13.311 V 8.554 l 1.046,0.28 c 1.265,0.338 2.422,0.647 2.422,-1.007 v -33.13 c -1.868,-1.2 -3.805,-2.132 -6.754,-2.92 l -18.983,-5.074 v 11.032 l 17.499,4.689 v 6.9 l -17.499,-4.689 v 8.557 l 19.526,5.221 v 7.241 l -35.396,-9.47 v -4.887 l 1.234,0.331 c 1.034,0.276 2.567,0.685 2.567,-0.847 v -28.537 c 0,-2.63 2.7,-4.647 5.279,-3.959 l 23.715,6.338 c 4.279,1.144 6.93,2.293 8.812,3.39 V -45.501 L 0,-42.361 v 35.205 l 8.573,2.297 v 7.157 z"
             style="fill:#000000;fill-opacity:1;fill-rule:nonzero;stroke:none"
             id="path36" />
        </g>
        <g
           id="g38"
           transform="translate(286.387,91.9644)">
          <path
             d="m 0,0 c 4.784,-1.899 8.813,-8.091 8.813,-8.091 l 13.953,3.738 c 0,0 -6.263,11.182 -21.803,13.148 v 14.932 l -16.062,-4.304 v -4.79 l 1.701,0.455 c 1.491,0.399 2.12,-0.05 2.12,-1.483 0,-13.536 -1.73,-21.802 -20.462,-25.234 v -7.85 C -17.998,-17.812 -2.373,-11.915 0,0 m 23.092,-14.355 v -7.563 l -57.21,-15.329 v 7.562 z"
             style="fill:#000000;fill-opacity:1;fill-rule:nonzero;stroke:none"
             id="path40" />
        </g>
        <g
           id="g42"
           transform="translate(225.0784,76.2876)">
          <path
             d="m 0,0 c 0.913,3.895 1.512,10.985 1.369,14.759 -0.05,1.316 0.703,2.336 1.749,2.615 l 2.443,0.655 v 4.677 L -47.901,8.381 V 2.178 L -10.87,12.1 c 0,0 -0.022,-1.907 -0.099,-4.505 l -34.166,-9.156 v -6.337 l 33.889,9.081 c -0.094,-1.541 -0.209,-3.029 -0.352,-4.29 l -44.03,-11.798 V -20.91 L 6.824,-4.176 v 6.004 z m 1.825,-25.284 -35.93,-9.627 0.005,-3.18 35.965,9.637 v -6.169 l -41.99,-11.251 c -4.375,-1.172 -5.985,-0.346 -5.989,2.324 v 5.242 c -0.002,1.158 -0.156,1.42 -1.481,1.065 l -2.368,-0.635 v 4.705 l 40.298,10.798 v 3.222 l -37.295,-9.993 v 6.244 l 46.938,12.577 c 1.031,0.275 1.884,-0.12 1.887,-1.457 z"
             style="fill:#000000;fill-opacity:1;fill-rule:nonzero;stroke:none"
             id="path44" />
        </g>
        <g
           id="g46"
           transform="translate(166.0384,65.6597)">
          <path
             d="M 0,0 -8.574,-2.297 V 15.078 L -23.789,11.013 V 6.257 l 1.046,0.28 c 1.264,0.338 2.422,0.647 2.422,-1.008 v -32.715 c -1.868,-1.2 -4.26,-2.253 -7.209,-3.042 l -18.983,-5.074 v 10.751 l 18.309,4.895 c 0.806,0.215 1.459,1.055 1.459,1.878 V 1.765 c 0,0.822 -0.653,1.313 -1.459,1.097 L -58.83,-5.321 v -6.752 l 20.965,5.601 v -8.783 l -23.796,-6.36 v -4.886 l 0.512,0.137 c 1.034,0.276 2.567,0.685 2.567,-0.847 v -13.572 c 0,-2.63 2.091,-4.203 4.67,-3.514 l 24.324,6.501 c 4.279,1.144 7.384,2.414 9.267,3.511 v -13.513 l 11.747,3.139 V -9.454 L 0,-7.156 Z"
             style="fill:#000000;fill-opacity:1;fill-rule:nonzero;stroke:none"
             id="path48" />
        </g>
        <g
           id="g50"
           transform="translate(94.3938,63.1529)">
          <path
             d="m 0,0 v -59.737 l -11.748,-3.139 v 53.327 c 0,1.654 -1.157,1.345 -2.421,1.007 l -1.046,-0.28 v 4.757 z m -34.367,-51.617 -9.331,-2.5 v 28.762 l 9.331,2.501 z m 11.821,38.609 -37.177,-9.961 v -4.326 l 1.072,0.287 c 2.443,0.655 2.539,0.268 2.539,-0.909 v -31.866 c 0,-2.407 1.897,-3.851 4.237,-3.223 l 23.953,6.418 c 3.723,0.997 6.311,4.371 6.311,8.226 v 34.636 c 0.001,0.533 -0.421,0.856 -0.935,0.718"
             style="fill:#000000;fill-opacity:1;fill-rule:nonzero;stroke:none"
             id="path52" />
        </g>
        <g
           id="g54"
           transform="translate(468.1204,255.0659)">
          <path
             d="M 0,0 -24.436,-7.354 V 6.395 L 12.85,17.616 V 29.19 L 1.135,25.665 c 1.329,5.854 2.479,14.149 2.153,24.767 -0.076,2.504 1.981,3.465 2.891,3.739 l 3.337,1.004 v 7.697 L -74.475,37.594 V 25.757 l 57.281,17.24 c 0.3,-12.228 -0.228,-17.707 -1.357,-23.257 L -91.164,-2.114 v -11.574 l 46.713,14.059 v -13.749 l -29.448,-8.863 v -11.823 l 59.98,18.051 v -23.85 l 20.306,6.112 V -4.465 C 6.387,-0.937 3.527,1.062 0,0"
             style="fill:#000000;fill-opacity:1;fill-rule:nonzero;stroke:none"
             id="path56" />
        </g>
        <g
           id="g58"
           transform="translate(274.9475,280.7847)">
          <path
             d="m 0,0 v -26.656 l -21.698,-6.531 V -44.955 L 0,-38.424 v -11.879 c 0,-6.519 -5.692,-11.506 -15.383,-14.43 l -7.152,-2.152 v -11.071 l 15.027,4.523 c 12.679,3.809 19.084,8.832 23.988,22.255 3.877,-1.342 8.667,-9.281 9.98,-12.032 l 20.643,6.213 C 41.6,-49.644 30.194,-40.688 20.649,-40.6 v 8.391 l 22.053,6.637 v 11.768 L 20.649,-20.441 V 6.215 Z m -7.508,-78.708 v -8.533 l 1.029,0.309 c 5.425,1.633 5.638,0.934 5.638,-1.452 v -9.128 c 0,-5.949 4.691,-9.361 10.476,-7.619 l 67.852,20.421 v 11.823 L 19.331,-90.39 v 19.759 z M 77.487,29.819 v -88.704 l -20.956,-6.292 v 28.049 l -17.745,-5.341 v 11.743 l 17.745,5.341 v 37.811 c 0,2.848 -1.993,2.25 -4.171,1.596 l -2.186,-0.656 v 8.252 z"
             style="fill:#000000;fill-opacity:1;fill-rule:nonzero;stroke:none"
             id="path60" />
        </g>
        <g
           id="g62"
           transform="translate(159.8416,201.9219)">
          <path
             d="M 0,0 V -12.212 L 61.987,6.443 V -4.523 L -9.697,-26.097 c -5.785,-1.741 -10.475,1.67 -10.475,7.619 v 13.791 c 0,2.385 -0.213,3.085 -5.639,1.452 l -1.028,-0.309 V 3.771 L 61.987,30.505 V 18.656 Z M 61.987,-10.193 V -21.768 L -42.027,-53.072 v 11.574 z M 41.707,-60.955 3.775,-72.371 v 15.704 l 37.932,11.417 z m 18.184,32.887 -83.037,-24.992 v -7.946 l 1.029,0.309 c 5.434,1.636 5.648,0.781 5.648,-1.837 v -16.631 c 0,-5.354 4.221,-8.424 9.427,-6.857 l 59.601,17.938 c 5.206,1.567 9.428,7.177 9.428,12.532 v 25.96 c 0,1.19 -0.939,1.872 -2.096,1.524"
             style="fill:#000000;fill-opacity:1;fill-rule:nonzero;stroke:none"
             id="path64" />
        </g>
        <g
           id="g66"
           transform="translate(64.302,226.4385)">
          <path
             d="m 0,0 v -7.635 l 2.187,0.656 c 2.177,0.654 4.17,1.253 4.17,-1.596 v -49.713 c -3.216,-2.172 -7.336,-4.123 -12.414,-5.648 l -32.161,-9.657 v 17.398 l 29.588,8.884 c 1.388,0.417 2.513,1.902 2.513,3.317 v 28.484 c 0,1.415 -1.125,2.225 -2.513,1.808 L -59.954,-29.11 v -11.628 l 34.688,10.413 v -9.954 L -64.302,-52 v -8.11 l 0.882,0.264 c 1.78,0.535 4.42,1.327 4.42,-1.312 v -22.561 c 0,-4.529 3.601,-7.118 8.042,-5.784 L -9.6,-77.085 c 7.368,2.212 12.716,4.577 15.957,6.573 v -49.694 l 20.23,6.074 V 7.982 Z"
             style="fill:#000000;fill-opacity:1;fill-rule:nonzero;stroke:none"
             id="path68" />
        </g>
        <g
           id="g70"
           transform="translate(497.8753,222.2071)">
          <path
             d="M 0,0 0.294,8.486 -1.752,-0.47 -3.649,-0.978 -5.066,7.05 -5.359,-1.437 -7.153,-1.917 -6.802,8.242 -4,8.993 l 1.411,-7.605 0.021,0.005 1.926,8.5 2.767,0.741 L 1.773,0.475 Z m -12.95,-3.47 0.289,8.357 -2.886,-0.773 0.063,1.796 7.631,2.045 -0.061,-1.796 -2.782,-0.745 -0.289,-8.358 z"
             style="fill:#000000;fill-opacity:1;fill-rule:nonzero;stroke:none"
             id="path72" />
        </g>
      </g>
    </g>
  </g>
</svg>
