<?xml version="1.0" encoding="UTF-8" standalone="no"?>
<!-- Created with Inkscape (http://www.inkscape.org/) -->

<svg
   version="1.1"
   id="svg1"
   width="666.66669"
   height="583.95868"
   viewBox="0 0 666.66669 583.95868"
   sodipodi:docname="Rhythm Paradise Groove Logo (Print).ai"
   xmlns:inkscape="http://www.inkscape.org/namespaces/inkscape"
   xmlns:sodipodi="http://sodipodi.sourceforge.net/DTD/sodipodi-0.dtd"
   xmlns="http://www.w3.org/2000/svg"
   xmlns:svg="http://www.w3.org/2000/svg">
  <defs
     id="defs1">
    <clipPath
       clipPathUnits="userSpaceOnUse"
       id="clipPath2">
      <path
         d="M 0,437.969 H 500 V 0 H 0 Z"
         transform="translate(-498.46701,-267.6075)"
         id="path2" />
    </clipPath>
    <clipPath
       clipPathUnits="userSpaceOnUse"
       id="clipPath4">
      <path
         d="M 0,437.969 H 500 V 0 H 0 Z"
         transform="translate(-487.46411,-267.6075)"
         id="path4" />
    </clipPath>
    <clipPath
       clipPathUnits="userSpaceOnUse"
       id="clipPath6">
      <path
         d="M 0,437.969 H 500 V 0 H 0 Z"
         transform="translate(-479.96221,-267.60801)"
         id="path6" />
    </clipPath>
    <clipPath
       clipPathUnits="userSpaceOnUse"
       id="clipPath8">
      <path
         d="M 0,437.969 H 500 V 0 H 0 Z"
         transform="translate(-498.88211,-221.38691)"
         id="path8" />
    </clipPath>
    <clipPath
       clipPathUnits="userSpaceOnUse"
       id="clipPath10">
      <path
         d="M 0,437.969 H 500 V 0 H 0 Z"
         transform="translate(-386.40361,-154.9464)"
         id="path10" />
    </clipPath>
    <clipPath
       clipPathUnits="userSpaceOnUse"
       id="clipPath12">
      <path
         d="M 0,437.969 H 500 V 0 H 0 Z"
         transform="translate(-354.94561,-167.57531)"
         id="path12" />
    </clipPath>
    <clipPath
       clipPathUnits="userSpaceOnUse"
       id="clipPath14">
      <path
         d="M 0,437.969 H 500 V 0 H 0 Z"
         transform="translate(-301.20731,-110.7804)"
         id="path14" />
    </clipPath>
    <clipPath
       clipPathUnits="userSpaceOnUse"
       id="clipPath16">
      <path
         d="M 0,437.969 H 500 V 0 H 0 Z"
         transform="translate(-248.77951,-98.6769)"
         id="path16" />
    </clipPath>
    <clipPath
       clipPathUnits="userSpaceOnUse"
       id="clipPath18">
      <path
         d="M 0,437.969 H 500 V 0 H 0 Z"
         transform="translate(-191.4729,-96.9171)"
         id="path18" />
    </clipPath>
    <clipPath
       clipPathUnits="userSpaceOnUse"
       id="clipPath20">
      <path
         d="M 0,437.969 H 500 V 0 H 0 Z"
         transform="translate(-132.6003,-135.64961)"
         id="path20" />
    </clipPath>
    <clipPath
       clipPathUnits="userSpaceOnUse"
       id="clipPath22">
      <path
         d="M 0,437.969 H 500 V 0 H 0 Z"
         transform="translate(-425.13401,-228.44061)"
         id="path22" />
    </clipPath>
    <clipPath
       clipPathUnits="userSpaceOnUse"
       id="clipPath24">
      <path
         d="M 0,437.969 H 500 V 0 H 0 Z"
         transform="translate(-402.77371,-271.1115)"
         id="path24" />
    </clipPath>
    <clipPath
       clipPathUnits="userSpaceOnUse"
       id="clipPath26">
      <path
         d="M 0,437.969 H 500 V 0 H 0 Z"
         transform="translate(-372.48361,-233.88981)"
         id="path26" />
    </clipPath>
    <clipPath
       clipPathUnits="userSpaceOnUse"
       id="clipPath28">
      <path
         d="M 0,437.969 H 500 V 0 H 0 Z"
         transform="translate(-333.30401,-230.60801)"
         id="path28" />
    </clipPath>
    <clipPath
       clipPathUnits="userSpaceOnUse"
       id="clipPath30">
      <path
         d="M 0,437.969 H 500 V 0 H 0 Z"
         transform="translate(-304.19951,-222.5763)"
         id="path30" />
    </clipPath>
    <clipPath
       clipPathUnits="userSpaceOnUse"
       id="clipPath32">
      <path
         d="M 0,437.969 H 500 V 0 H 0 Z"
         transform="translate(-268.9465,-214.44111)"
         id="path32" />
    </clipPath>
    <clipPath
       clipPathUnits="userSpaceOnUse"
       id="clipPath34">
      <path
         d="M 0,437.969 H 500 V 0 H 0 Z"
         transform="translate(-223.4788,-218.52801)"
         id="path34" />
    </clipPath>
    <clipPath
       clipPathUnits="userSpaceOnUse"
       id="clipPath36">
      <path
         d="M 0,437.969 H 500 V 0 H 0 Z"
         transform="translate(-189.9597,-190.0529)"
         id="path36" />
    </clipPath>
    <clipPath
       clipPathUnits="userSpaceOnUse"
       id="clipPath38">
      <path
         d="M 0,437.969 H 500 V 0 H 0 Z"
         transform="translate(-146.4675,-200.19251)"
         id="path38" />
    </clipPath>
    <clipPath
       clipPathUnits="userSpaceOnUse"
       id="clipPath40">
      <path
         d="M 0,437.969 H 500 V 0 H 0 Z"
         transform="translate(-380.23361,-378.07971)"
         id="path40" />
    </clipPath>
    <clipPath
       clipPathUnits="userSpaceOnUse"
       id="clipPath42">
      <path
         d="M 0,437.969 H 500 V 0 H 0 Z"
         transform="translate(-314.70141,-344.41521)"
         id="path42" />
    </clipPath>
    <clipPath
       clipPathUnits="userSpaceOnUse"
       id="clipPath44">
      <path
         d="M 0,437.969 H 500 V 0 H 0 Z"
         transform="translate(-249.1702,-339.53631)"
         id="path44" />
    </clipPath>
    <clipPath
       clipPathUnits="userSpaceOnUse"
       id="clipPath46">
      <path
         d="M 0,437.969 H 500 V 0 H 0 Z"
         transform="translate(-244.54081,-323.83221)"
         id="path46" />
    </clipPath>
    <clipPath
       clipPathUnits="userSpaceOnUse"
       id="clipPath48">
      <path
         d="M 0,437.969 H 500 V 0 H 0 Z"
         transform="translate(-186.9373,-324.81211)"
         id="path48" />
    </clipPath>
    <clipPath
       clipPathUnits="userSpaceOnUse"
       id="clipPath50">
      <path
         d="M 0,437.969 H 500 V 0 H 0 Z"
         transform="translate(-122.6145,-289.2828)"
         id="path50" />
    </clipPath>
  </defs>
  <sodipodi:namedview
     id="namedview1"
     pagecolor="#ffffff"
     bordercolor="#000000"
     borderopacity="0.25"
     inkscape:showpageshadow="2"
     inkscape:pageopacity="0.0"
     inkscape:pagecheckerboard="0"
     inkscape:deskcolor="#d1d1d1">
    <inkscape:page
       x="0"
       y="0"
       inkscape:label="1"
       id="page1"
       width="666.66669"
       height="583.95868"
       margin="0"
       bleed="0" />
  </sodipodi:namedview>
  <g
     id="layer-MC0"
     inkscape:groupmode="layer"
     inkscape:label="Layer 1">
    <path
       id="path1"
       d="m 0,0 c 0,34.52 -18.525,64.771 -46.114,81.274 -5.188,49.992 -47.15,89.088 -97.985,89.088 -37.314,0 -69.849,-21.066 -86.568,-52.044 -10.424,3.717 -21.642,5.748 -33.326,5.748 -18.428,0 -35.699,-5.043 -50.517,-13.812 -13.703,7.344 -29.349,11.516 -45.953,11.516 -53.821,0 -97.608,-43.787 -97.608,-97.608 0,-16.849 4.291,-32.713 11.838,-46.558 -10.824,-15.193 -17.214,-33.845 -17.214,-53.988 0,-50.899 40.778,-92.31 90.9,-92.31 2.303,0 4.585,0.089 6.845,0.26 11.56,-4.633 24.317,-7.211 37.721,-7.211 20.172,0 38.884,5.829 54.246,15.742 11.459,-4.746 24.126,-7.388 37.441,-7.388 22.549,0 43.243,7.564 59.343,20.121 6.655,-1.367 13.543,-2.085 20.597,-2.085 41.295,0 76.948,24.614 93.063,59.941 C -26.488,-76.457 0,-41.278 0,0"
       style="fill:#000000;fill-opacity:1;fill-rule:nonzero;stroke:none"
       transform="matrix(1.3333333,0,0,-1.3333333,664.62267,227.14867)"
       clip-path="url(#clipPath2)" />
    <path
       id="path3"
       d="m 0,0 c 0,32.512 -18.597,60.725 -45.653,74.521 -1.925,47.11 -40.407,84.838 -87.443,84.838 -36.633,0 -68.075,-22.887 -81.102,-55.265 -11.721,5.741 -24.886,8.969 -38.792,8.969 -18.648,0 -35.965,-5.804 -50.25,-15.694 -13.384,8.48 -29.238,13.397 -46.22,13.397 -47.754,0 -86.605,-38.85 -86.605,-86.604 0,-17.477 5.209,-33.758 14.148,-47.381 -12.148,-14.267 -19.523,-32.85 -19.523,-53.165 0,-44.832 35.841,-81.307 79.896,-81.307 2.88,0 5.723,0.165 8.526,0.468 10.915,-4.753 23.14,-7.42 36.039,-7.42 20.165,0 38.68,6.512 53.121,17.332 11.498,-5.722 24.629,-8.977 38.567,-8.977 21.911,0 41.822,8.041 56.523,21.088 7.476,-1.987 15.324,-3.052 23.416,-3.052 38.553,0 71.596,24.04 84.928,57.916 C -25.592,-70.376 0,-38.145 0,0"
       style="fill:#ffffff;fill-opacity:1;fill-rule:nonzero;stroke:none"
       transform="matrix(1.3333333,0,0,-1.3333333,649.95213,227.14867)"
       clip-path="url(#clipPath4)" />
    <path
       id="path5"
       d="m 0,0 c 0,31.257 -18.772,58.096 -45.598,69.782 0.004,0.347 0.026,0.691 0.026,1.039 0,44.754 -35.826,81.035 -80.022,81.035 -36.525,0 -67.312,-24.791 -76.906,-58.656 -12.462,7.822 -27.191,12.361 -42.988,12.361 -18.905,0 -36.283,-6.496 -50.067,-17.354 -13.036,9.462 -29.062,15.057 -46.403,15.057 -43.688,0 -79.103,-35.416 -79.103,-79.103 0,-18.043 6.053,-34.665 16.222,-47.973 -13.328,-13.387 -21.598,-31.991 -21.598,-52.572 0,-40.762 32.413,-73.806 72.395,-73.806 3.275,0 6.494,0.243 9.654,0.673 10.455,-4.86 22.32,-7.623 34.912,-7.623 20.279,0 38.687,7.138 52.309,18.745 11.42,-6.577 24.911,-10.392 39.379,-10.392 21.572,0 40.989,8.461 54.564,21.962 8.005,-2.543 16.528,-3.925 25.374,-3.925 36.771,0 67.982,23.715 79.231,56.676 C -25.045,-66.307 0,-36.104 0,0"
       style="fill:#000000;fill-opacity:1;fill-rule:nonzero;stroke:none"
       transform="matrix(1.3333333,0,0,-1.3333333,639.9496,227.148)"
       clip-path="url(#clipPath6)" />
    <path
       id="path7"
       d="m 0,0 -326.729,-82.165 7.956,15.822 c 0.333,0.663 -0.239,1.421 -0.968,1.283 l -64.234,-12.177 -46.485,46.048 c -0.528,0.522 -1.426,0.213 -1.52,-0.524 l -8.277,-64.879 -58.139,-29.965 c -0.661,-0.339 -0.644,-1.289 0.027,-1.606 l 59.142,-27.954 10.537,-64.517 c 0.119,-0.733 1.027,-1.011 1.537,-0.47 l 44.831,47.621 64.674,-9.939 c 0.733,-0.113 1.278,0.665 0.921,1.317 l -11.392,20.794 294.441,53.513 c 0.736,0.133 0.994,1.056 0.435,1.552 l -12.478,11.078 26.212,27.763 c 0.414,0.438 0.285,1.152 -0.256,1.42 L -40.363,-55.827 0.932,-1.411 C 1.444,-0.736 0.821,0.207 0,0"
       style="fill:#ffffff;fill-opacity:1;fill-rule:nonzero;stroke:none"
       transform="matrix(1.3333333,0,0,-1.3333333,665.17613,288.77613)"
       clip-path="url(#clipPath8)" />
    <path
       id="path9"
       d="M 0,0 C 4.017,1.507 12.424,3.764 19.485,5.297 V 26.91 l -35.29,-8.147 v -57.768 l 35.235,8.135 v 9.624 c -4.633,-1.213 -14.18,-3.012 -18.383,-3.725 -5.119,-0.862 -5.848,5.582 -0.188,7.445 3.251,1.06 9.211,2.48 13.863,3.785 V -6.33 C 10.481,-7.191 4.745,-8.188 0.225,-8.828 -5.38,-9.637 -6.352,-2.381 0,0"
       style="fill:#000000;fill-opacity:1;fill-rule:nonzero;stroke:none"
       transform="matrix(1.3333333,0,0,-1.3333333,515.2048,377.36347)"
       clip-path="url(#clipPath10)" />
    <path
       id="path11"
       d="m 0,0 c -1.885,-17.354 -4.909,-28.428 -5.282,-29.996 -0.784,-3.248 -2.428,-4.835 -4.313,-5.115 -3.043,-0.486 -4.517,1.736 -5.694,7.337 -0.111,0.522 -2.654,11.46 -4.461,25.668 l -13.604,-3.141 c 1.625,-13.049 5.292,-28.606 8.745,-39.919 3.472,-11.388 6.493,-14.148 13.409,-12.552 6.096,1.407 9.792,4.572 12.7,15.709 2.856,10.94 6.018,26.634 8.557,44.331 z"
       style="fill:#000000;fill-opacity:1;fill-rule:nonzero;stroke:none"
       transform="matrix(1.3333333,0,0,-1.3333333,473.2608,360.52493)"
       clip-path="url(#clipPath12)" />
    <path
       id="path13"
       d="M 0,0 C -4.775,-5.483 -14.535,-5.962 -16.382,5.462 -18.788,20.35 -9.719,25.298 -2.204,22.333 7.412,18.541 4.854,5.573 0,0 M -2.387,45.771 C -22.875,45.194 -32.791,18.991 -26.338,1.822 -22.037,-9.617 -11.412,-13.081 -3.214,-11.461 7.814,-9.282 13.543,1.634 15.687,7.071 22.712,24.9 14.689,46.253 -2.387,45.771"
       style="fill:#000000;fill-opacity:1;fill-rule:nonzero;stroke:none"
       transform="matrix(1.3333333,0,0,-1.3333333,401.60973,436.25147)"
       clip-path="url(#clipPath14)" />
    <path
       id="path15"
       d="M 0,0 C -4.775,-5.483 -14.535,-5.962 -16.382,5.462 -18.789,20.35 -9.719,25.297 -2.204,22.333 7.412,18.54 4.854,5.573 0,0 m -2.387,45.771 c -20.488,-0.577 -30.404,-26.78 -23.95,-43.949 4.3,-11.439 14.925,-14.903 23.123,-13.284 11.028,2.18 16.757,13.096 18.901,18.533 7.025,17.828 -0.998,39.181 -18.074,38.7"
       style="fill:#000000;fill-opacity:1;fill-rule:nonzero;stroke:none"
       transform="matrix(1.3333333,0,0,-1.3333333,331.706,452.38947)"
       clip-path="url(#clipPath16)" />
    <path
       id="path17"
       d="m 0,0 c -4.806,-1.109 -8.331,1.452 -8.331,5.478 0,4.61 4.408,9.26 9.011,10.323 1.32,0.304 2.545,0.374 3.697,0.088 l -7.013,10.374 c 1.959,2.114 5.074,2.78 7.659,2.746 5.971,-0.079 11.476,-4.649 11.476,-8.61 0,-1.777 -0.793,-3.28 -1.852,-4.457 -0.636,-0.708 -1.023,-0.553 -0.866,-0.042 0.245,0.799 0.425,1.63 0.425,2.257 0,2.733 -3.39,4.265 -6.293,3.594 C 6.79,21.491 5.48,21.152 4.099,19.9 L 8.245,13.219 C 8.722,12.449 9.034,11.437 9.034,10.34 9.034,5.829 4.791,1.106 0,0 m 23.064,16.646 c 0,17.894 -17.772,22.966 -39.185,15.379 V -24.27 l 9.188,2.122 v 12.994 c 0,2.207 1.636,1.825 3.146,0.488 1.061,-0.941 7.44,-7.069 11.897,-11.478 l 14.026,3.239 c 0,0 -12.229,12.389 -13.639,13.615 8.213,3.062 14.567,11.021 14.567,19.936"
       style="fill:#000000;fill-opacity:1;fill-rule:nonzero;stroke:none"
       transform="matrix(1.3333333,0,0,-1.3333333,255.2972,454.73587)"
       clip-path="url(#clipPath18)" />
    <path
       id="path19"
       d="m 0,0 c 18.701,4.317 31.787,-10.92 32.371,-28.572 l -19.145,-4.42 c -1.597,10.389 -9.92,13.36 -16.818,8.186 -5.627,-4.219 -8.628,-12.437 -8.628,-21.442 0,-19.962 18.26,-22.224 24.957,-5.722 L 6.41,-53.431 v 11.618 l 26.018,6.006 v -30.816 l -9.084,-2.098 v 8.744 C 7.646,-82.133 -18.477,-74.292 -24.901,-55.78 -31.99,-35.352 -23.685,-5.468 0,0"
       style="fill:#000000;fill-opacity:1;fill-rule:nonzero;stroke:none"
       transform="matrix(1.3333333,0,0,-1.3333333,176.8004,403.09253)"
       clip-path="url(#clipPath20)" />
    <path
       id="path21"
       d="M 0,0 V 6.409 L -1.612,-0.38 -3.358,-0.792 -4.932,5.246 v -6.409 l -1.65,-0.389 V 6.12 l 2.578,0.608 1.555,-5.719 0.018,0.005 1.517,6.443 2.545,0.6 V 0.385 Z M -11.916,-2.81 V 3.502 L -14.57,2.876 v 1.356 l 7.021,1.656 V 4.532 l -2.558,-0.604 v -6.311 z"
       style="fill:#ffffff;fill-opacity:1;fill-rule:nonzero;stroke:none"
       transform="matrix(1.3333333,0,0,-1.3333333,566.84533,279.3712)"
       clip-path="url(#clipPath22)" />
    <path
       id="path23"
       d="m 0,0 c 3.714,1.399 11.486,3.489 18.015,4.905 l 10e-4,20.211 -32.628,-7.533 v -54.018 l 32.575,7.521 v 8.999 c -4.283,-1.123 -13.109,-2.781 -16.996,-3.438 -4.733,-0.794 -5.406,5.234 -0.172,6.961 3.005,0.985 8.515,2.298 12.815,3.507 v 6.929 C 9.689,-6.75 4.387,-7.669 0.207,-8.256 -4.975,-8.999 -5.873,-2.211 0,0"
       style="fill:#ffffff;fill-opacity:1;fill-rule:nonzero;stroke:none"
       transform="matrix(1.3333333,0,0,-1.3333333,537.0316,222.47667)"
       clip-path="url(#clipPath24)" />
    <path
       id="path25"
       d="m 0,0 c -0.191,1.795 -3.296,2.201 -8.132,3.36 -8.455,2.1 -13.688,7.081 -13.153,15.831 0.568,9.445 5.35,16.032 30.657,20.33 V 19.874 C 0.24,18.731 -4.802,17.023 -6.94,15.274 -9.221,13.423 -9.088,10.393 -5.796,9.293 -4.366,8.815 -0.138,7.403 2.418,6.546 7.321,4.912 9.721,2.406 10.221,-2.03 11.633,-14.543 -11.016,-17.825 -20.354,-19.197 V -8.078 C -9.167,-5.824 0.432,-3.849 0,0"
       style="fill:#ffffff;fill-opacity:1;fill-rule:nonzero;stroke:none"
       transform="matrix(1.3333333,0,0,-1.3333333,496.6448,272.1056)"
       clip-path="url(#clipPath26)" />
    <path
       id="path27"
       d="m 0,0 v 48.155 l 12.177,2.812 V 2.811 Z"
       style="fill:#ffffff;fill-opacity:1;fill-rule:nonzero;stroke:none"
       transform="matrix(1.3333333,0,0,-1.3333333,444.40533,276.48133)"
       clip-path="url(#clipPath28)" />
    <path
       id="path29"
       d="m 0,0 c -3.352,-0.775 -4.802,0.345 -4.802,4.266 v 12.367 c 0,2.85 -0.147,5.127 2.557,5.89 5.873,1.658 12.436,-1.485 13.058,-7.876 C 11.538,7.22 7.406,1.71 0,0 M -13.058,41.229 V -11.296 C 12.333,-7.583 23.387,2.228 23.11,21.729 22.869,38.638 6.08,47.931 -13.058,41.229"
       style="fill:#ffffff;fill-opacity:1;fill-rule:nonzero;stroke:none"
       transform="matrix(1.3333333,0,0,-1.3333333,405.59933,287.19027)"
       clip-path="url(#clipPath30)" />
    <path
       id="path31"
       d="m 0,0 -6.132,-1.416 c -1.541,-0.355 -2.418,0.604 -2.227,2.746 0.171,2.003 1.07,6.253 1.416,7.704 0.725,3.005 2.245,4.473 3.99,4.732 2.815,0.449 4.18,-1.606 5.267,-6.788 C 2.418,6.495 2.712,5.441 2.833,4.024 3.074,1.14 2.178,0.503 0,0 M 10.743,23.024 C 7.531,33.561 4.931,36.161 -1.468,34.683 -7.108,33.381 -10.315,30.444 -13.006,20.14 -15.649,10.018 -18.551,-4.318 -20.899,-20.692 l 9.292,2.021 c 0.172,1.295 0.484,2.815 0.933,5.129 0.484,2.333 1.744,4 4.248,4.578 2.063,0.476 5.901,1.362 7.255,1.674 1.94,0.449 3.714,-1.087 4.335,-3.678 0.415,-1.727 0.95,-4.162 1.278,-5.804 l 12.333,2.833 c -1.503,12.073 -4.837,26.496 -8.032,36.963"
       style="fill:#ffffff;fill-opacity:1;fill-rule:nonzero;stroke:none"
       transform="matrix(1.3333333,0,0,-1.3333333,358.59533,298.0372)"
       clip-path="url(#clipPath32)" />
    <path
       id="path33"
       d="m 0,0 c -3.164,-0.742 -4.925,1.02 -4.925,4.788 v 3.639 c 0,2.626 0.51,4.904 2.851,5.645 C 4.722,16.226 9.456,13.295 9.456,8.693 9.456,4.393 6.165,1.448 0,0 m 22.91,15.728 c 0,16.727 -16.498,21.495 -36.376,14.435 v -52.624 l 8.529,1.968 v 12.147 c 0,2.063 1.519,1.704 2.92,0.452 0.986,-0.881 6.907,-6.619 11.044,-10.746 l 13.021,3.006 c 0,0 -11.352,11.599 -12.661,12.747 7.625,2.851 13.523,10.282 13.523,18.615"
       style="fill:#ffffff;fill-opacity:1;fill-rule:nonzero;stroke:none"
       transform="matrix(1.3333333,0,0,-1.3333333,297.97173,292.588)"
       clip-path="url(#clipPath34)" />
    <path
       id="path35"
       d="m 0,0 -6.132,-1.416 c -1.541,-0.355 -2.418,0.604 -2.228,2.746 0.173,2.003 1.071,6.252 1.417,7.703 0.725,3.005 2.245,4.474 3.989,4.733 2.816,0.449 4.181,-1.607 5.268,-6.788 C 2.418,6.494 2.712,5.44 2.833,4.024 3.075,1.14 2.178,0.502 0,0 M 10.744,23.023 C 7.531,33.56 4.93,36.16 -1.468,34.683 -7.109,33.381 -10.315,30.444 -13.006,20.14 -15.649,10.018 -18.551,-4.318 -20.9,-20.692 l 9.293,2.02 c 0.172,1.296 0.483,2.816 0.933,5.13 0.483,2.332 1.744,3.999 4.249,4.577 2.062,0.477 5.899,1.362 7.254,1.675 1.939,0.448 3.713,-1.088 4.336,-3.679 0.414,-1.726 0.949,-4.162 1.277,-5.802 l 12.333,2.832 c -1.503,12.073 -4.836,26.496 -8.031,36.962"
       style="fill:#ffffff;fill-opacity:1;fill-rule:nonzero;stroke:none"
       transform="matrix(1.3333333,0,0,-1.3333333,253.2796,330.5548)"
       clip-path="url(#clipPath36)" />
    <path
       id="path37"
       d="m 0,0 c -3.834,-0.933 -6.045,0.069 -6.045,3.281 v 11.625 c 0,3.283 1.814,5.355 5.423,5.821 C 6.616,21.66 9.88,17.428 9.88,11.918 9.88,7.323 7.168,1.762 0,0 m -24.061,37.5 v -72.807 l 18.033,4.163 v 17.101 c 0,3.126 0.777,4.681 2.643,5.009 16.805,2.957 28.777,11.406 28.777,28.742 0,19.037 -20.452,29.278 -49.453,17.792"
       style="fill:#ffffff;fill-opacity:1;fill-rule:nonzero;stroke:none"
       transform="matrix(1.3333333,0,0,-1.3333333,195.29,317.03533)"
       clip-path="url(#clipPath38)" />
    <path
       id="path39"
       d="m 0,0 c -4.975,-16.426 -7.79,-24.458 -10.243,-31.229 -4.18,-11.52 -8.516,-6.995 -10.536,-3.782 -2.349,3.765 -5.544,11.089 -11.089,24.51 l -13.697,-3.161 v -64.477 l 11.365,2.624 c -0.086,10.277 0.087,17.255 0.639,19.967 0.501,2.435 1.969,2.781 3.455,0.362 1.226,-1.986 3.161,-6.287 7.012,-15.13 l 7.615,1.758 c 4.198,11.279 6.462,16.965 8.069,19.746 1.295,2.263 3.765,3.852 4.508,-0.328 0.57,-3.161 0.518,-11.736 0.501,-22.237 l 11.78,2.719 V 2.166 Z"
       style="fill:#ffffff;fill-opacity:1;fill-rule:nonzero;stroke:none"
       transform="matrix(1.3333333,0,0,-1.3333333,506.97813,79.8524)"
       clip-path="url(#clipPath40)" />
    <path
       id="path41"
       d="m 0,0 c -0.052,-8.809 -0.034,-16.84 -0.414,-19.777 -0.881,-7.013 -12.868,-10.173 -13.455,-3.713 -0.277,3.04 -0.519,7.056 -0.519,16.02 l -9.689,-2.237 -10e-4,-59.072 12.35,2.852 c 0,9.379 0,13.453 0.156,16.666 0.431,8.464 13.144,10.381 14.25,3.023 0.501,-3.351 0.587,-4.957 0.587,-12.523 l 9.845,2.273 V 3.027 Z"
       style="fill:#ffffff;fill-opacity:1;fill-rule:nonzero;stroke:none"
       transform="matrix(1.3333333,0,0,-1.3333333,419.60187,124.7384)"
       clip-path="url(#clipPath42)" />
    <path
       id="path43"
       d="m 0,0 v -23.777 l 6.892,1.591 c 4.179,0.965 5.907,0.421 5.907,-6.978 v -30.522 l 11.313,2.592 v 27.999 c 0,12.436 1.168,15.575 7.324,16.996 l 5.63,1.3 V 8.558 Z"
       style="fill:#ffffff;fill-opacity:1;fill-rule:nonzero;stroke:none"
       transform="matrix(1.3333333,0,0,-1.3333333,332.22693,131.2436)"
       clip-path="url(#clipPath44)" />
    <path
       id="path45"
       d="m 0,0 -10.571,-2.44 c 0,0 0.156,-10.882 -0.259,-18.896 -0.604,-11.728 -12.419,-14.25 -13.369,-3.092 -0.483,5.855 -0.708,17.526 -0.708,17.526 l -13.144,-3.035 v -9.517 c 0,-22.713 14.768,-25.511 22.488,-19.034 0.467,0.398 0.934,0.639 1.313,0.467 0.432,-0.19 0.415,-0.657 0.242,-1.521 -0.466,-2.262 -3.817,-6.736 -10.588,-8.549 -5.164,-1.382 -10.225,-2.254 -12.747,-2.651 v -15.761 c 11.365,1.467 24.527,4.715 30.658,14.146 3.196,4.922 4.872,10.121 5.701,17.825 C 0.311,-22.407 0,0 0,0"
       style="fill:#ffffff;fill-opacity:1;fill-rule:nonzero;stroke:none"
       transform="matrix(1.3333333,0,0,-1.3333333,326.0544,152.1824)"
       clip-path="url(#clipPath46)" />
    <path
       id="path47"
       d="m 0,0 c -0.052,-8.809 -0.035,-16.841 -0.415,-19.777 -0.88,-7.013 -12.868,-10.174 -13.455,-3.714 -0.276,3.04 -0.518,7.056 -0.518,16.021 l -9.69,-2.237 v -59.072 l 12.35,2.851 c 0,9.379 0,13.454 0.155,16.667 0.432,8.464 13.145,10.381 14.25,3.023 0.501,-3.351 0.588,-4.958 0.588,-12.523 l 9.845,2.273 V 3.026 Z"
       style="fill:#ffffff;fill-opacity:1;fill-rule:nonzero;stroke:none"
       transform="matrix(1.3333333,0,0,-1.3333333,249.24973,150.87587)"
       clip-path="url(#clipPath48)" />
    <path
       id="path49"
       d="m 0,0 c -4.715,-1.105 -7.34,1.52 -7.34,7.133 v 5.424 c -0.001,3.912 0.759,7.306 4.249,8.412 10.13,3.209 17.186,-1.157 17.186,-8.015 C 14.095,6.546 9.189,2.159 0,0 m 34.148,23.438 c 0,24.925 -24.389,32.162 -54.218,21.505 v -80.457 l 12.712,2.935 v 20.143 c 0,3.074 2.263,2.539 4.353,0.673 1.468,-1.312 10.294,-9.862 16.461,-16.011 l 19.406,4.481 c 0,0 -16.919,17.282 -18.871,18.992 11.365,4.249 20.157,15.322 20.157,27.739"
       style="fill:#ffffff;fill-opacity:1;fill-rule:nonzero;stroke:none"
       transform="matrix(1.3333333,0,0,-1.3333333,163.486,198.24827)"
       clip-path="url(#clipPath50)" />
  </g>
</svg>
