<?xml version="1.0" encoding="UTF-8" standalone="no"?>
<!-- Created with Inkscape (http://www.inkscape.org/) -->

<svg
   version="1.1"
   id="svg1"
   width="666.66669"
   height="583.95868"
   viewBox="0 0 666.66669 583.95868"
   sodipodi:docname="Rhythm Paradise Groove Logo (Print).ai"
   xmlns:inkscape="http://www.inkscape.org/namespaces/inkscape"
   xmlns:sodipodi="http://sodipodi.sourceforge.net/DTD/sodipodi-0.dtd"
   xmlns="http://www.w3.org/2000/svg"
   xmlns:svg="http://www.w3.org/2000/svg">
  <defs
     id="defs1">
    <clipPath
       clipPathUnits="userSpaceOnUse"
       id="clipPath2">
      <path
         d="M 0,437.969 H 500 V 0 H 0 Z"
         transform="translate(-498.46671,-267.60771)"
         id="path2" />
    </clipPath>
    <clipPath
       clipPathUnits="userSpaceOnUse"
       id="clipPath4">
      <path
         d="M 0,437.969 H 500 V 0 H 0 Z"
         transform="translate(-487.46371,-267.60771)"
         id="path4" />
    </clipPath>
    <clipPath
       clipPathUnits="userSpaceOnUse"
       id="clipPath6">
      <path
         d="M 0,437.969 H 500 V 0 H 0 Z"
         transform="translate(-479.96221,-267.6078)"
         id="path6" />
    </clipPath>
    <clipPath
       clipPathUnits="userSpaceOnUse"
       id="clipPath8">
      <path
         d="M 0,437.969 H 500 V 0 H 0 Z"
         transform="translate(-498.88171,-221.38691)"
         id="path8" />
    </clipPath>
    <clipPath
       clipPathUnits="userSpaceOnUse"
       id="clipPath10">
      <path
         d="M 0,437.969 H 500 V 0 H 0 Z"
         transform="translate(-386.40851,-154.9473)"
         id="path10" />
    </clipPath>
    <clipPath
       clipPathUnits="userSpaceOnUse"
       id="clipPath12">
      <path
         d="M 0,437.969 H 500 V 0 H 0 Z"
         transform="translate(-354.95321,-167.577)"
         id="path12" />
    </clipPath>
    <clipPath
       clipPathUnits="userSpaceOnUse"
       id="clipPath14">
      <path
         d="M 0,437.969 H 500 V 0 H 0 Z"
         transform="translate(-301.21301,-110.7804)"
         id="path14" />
    </clipPath>
    <clipPath
       clipPathUnits="userSpaceOnUse"
       id="clipPath16">
      <path
         d="M 0,437.969 H 500 V 0 H 0 Z"
         transform="translate(-248.7838,-98.676105)"
         id="path16" />
    </clipPath>
    <clipPath
       clipPathUnits="userSpaceOnUse"
       id="clipPath18">
      <path
         d="M 0,437.969 H 500 V 0 H 0 Z"
         transform="translate(-191.47581,-96.916702)"
         id="path18" />
    </clipPath>
    <clipPath
       clipPathUnits="userSpaceOnUse"
       id="clipPath20">
      <path
         d="M 0,437.969 H 500 V 0 H 0 Z"
         transform="translate(-132.6012,-135.6501)"
         id="path20" />
    </clipPath>
    <clipPath
       clipPathUnits="userSpaceOnUse"
       id="clipPath22">
      <path
         d="M 0,437.969 H 500 V 0 H 0 Z"
         transform="translate(-425.13381,-228.41331)"
         id="path22" />
    </clipPath>
    <clipPath
       clipPathUnits="userSpaceOnUse"
       id="clipPath24">
      <path
         d="M 0,437.969 H 500 V 0 H 0 Z"
         transform="translate(-402.77371,-271.1115)"
         id="path24" />
    </clipPath>
    <clipPath
       clipPathUnits="userSpaceOnUse"
       id="clipPath26">
      <path
         d="M 0,437.969 H 500 V 0 H 0 Z"
         transform="translate(-372.48321,-233.88971)"
         id="path26" />
    </clipPath>
    <clipPath
       clipPathUnits="userSpaceOnUse"
       id="clipPath28">
      <path
         d="M 0,437.969 H 500 V 0 H 0 Z"
         transform="translate(-333.30391,-230.60781)"
         id="path28" />
    </clipPath>
    <clipPath
       clipPathUnits="userSpaceOnUse"
       id="clipPath30">
      <path
         d="M 0,437.969 H 500 V 0 H 0 Z"
         transform="translate(-304.19971,-222.57621)"
         id="path30" />
    </clipPath>
    <clipPath
       clipPathUnits="userSpaceOnUse"
       id="clipPath32">
      <path
         d="M 0,437.969 H 500 V 0 H 0 Z"
         transform="translate(-268.95651,-214.44351)"
         id="path32" />
    </clipPath>
    <clipPath
       clipPathUnits="userSpaceOnUse"
       id="clipPath34">
      <path
         d="M 0,437.969 H 500 V 0 H 0 Z"
         transform="translate(-223.47871,-218.5218)"
         id="path34" />
    </clipPath>
    <clipPath
       clipPathUnits="userSpaceOnUse"
       id="clipPath36">
      <path
         d="M 0,437.969 H 500 V 0 H 0 Z"
         transform="translate(-189.9597,-190.05251)"
         id="path36" />
    </clipPath>
    <clipPath
       clipPathUnits="userSpaceOnUse"
       id="clipPath38">
      <path
         d="M 0,437.969 H 500 V 0 H 0 Z"
         transform="translate(-146.46771,-200.19231)"
         id="path38" />
    </clipPath>
    <clipPath
       clipPathUnits="userSpaceOnUse"
       id="clipPath40">
      <path
         d="M 0,437.969 H 500 V 0 H 0 Z"
         transform="translate(-380.23341,-378.07971)"
         id="path40" />
    </clipPath>
    <clipPath
       clipPathUnits="userSpaceOnUse"
       id="clipPath42">
      <path
         d="M 0,437.969 H 500 V 0 H 0 Z"
         transform="translate(-314.70181,-344.41531)"
         id="path42" />
    </clipPath>
    <clipPath
       clipPathUnits="userSpaceOnUse"
       id="clipPath44">
      <path
         d="M 0,437.969 H 500 V 0 H 0 Z"
         transform="translate(-249.17001,-339.53631)"
         id="path44" />
    </clipPath>
    <clipPath
       clipPathUnits="userSpaceOnUse"
       id="clipPath46">
      <path
         d="M 0,437.969 H 500 V 0 H 0 Z"
         transform="translate(-244.54101,-323.83241)"
         id="path46" />
    </clipPath>
    <clipPath
       clipPathUnits="userSpaceOnUse"
       id="clipPath48">
      <path
         d="M 0,437.969 H 500 V 0 H 0 Z"
         transform="translate(-186.93741,-324.81201)"
         id="path48" />
    </clipPath>
    <clipPath
       clipPathUnits="userSpaceOnUse"
       id="clipPath50">
      <path
         d="M 0,437.969 H 500 V 0 H 0 Z"
         transform="translate(-122.61471,-289.2828)"
         id="path50" />
    </clipPath>
  </defs>
  <sodipodi:namedview
     id="namedview1"
     pagecolor="#ffffff"
     bordercolor="#000000"
     borderopacity="0.25"
     inkscape:showpageshadow="2"
     inkscape:pageopacity="0.0"
     inkscape:pagecheckerboard="0"
     inkscape:deskcolor="#d1d1d1">
    <inkscape:page
       x="0"
       y="0"
       inkscape:label="1"
       id="page1"
       width="666.66669"
       height="583.95868"
       margin="0"
       bleed="0" />
  </sodipodi:namedview>
  <g
     id="layer-MC0"
     inkscape:groupmode="layer"
     inkscape:label="Layer 1">
    <path
       id="path1"
       d="m 0,0 c 0,34.519 -18.525,64.771 -46.114,81.274 -5.187,49.992 -47.15,89.088 -97.984,89.088 -37.315,0 -69.85,-21.066 -86.569,-52.044 -10.424,3.717 -21.641,5.748 -33.325,5.748 -18.429,0 -35.7,-5.043 -50.518,-13.812 -13.703,7.343 -29.349,11.515 -45.952,11.515 -53.822,0 -97.609,-43.786 -97.609,-97.608 0,-16.848 4.292,-32.712 11.838,-46.558 -10.823,-15.192 -17.213,-33.844 -17.213,-53.987 0,-50.899 40.778,-92.31 90.9,-92.31 2.302,0 4.584,0.089 6.844,0.261 11.561,-4.634 24.318,-7.212 37.721,-7.212 20.172,0 38.885,5.829 54.246,15.741 11.459,-4.745 24.126,-7.387 37.442,-7.387 22.549,0 43.243,7.565 59.342,20.121 6.655,-1.367 13.544,-2.085 20.597,-2.085 41.295,0 76.948,24.614 93.063,59.941 C -26.487,-76.457 0,-41.279 0,0"
       style="fill:#000000;fill-opacity:1;fill-rule:nonzero;stroke:none"
       transform="matrix(1.3333333,0,0,-1.3333333,664.62227,227.1484)"
       clip-path="url(#clipPath2)" />
    <path
       id="path3"
       d="m 0,0 c 0,32.512 -18.596,60.725 -45.653,74.521 -1.925,47.11 -40.406,84.838 -87.442,84.838 -36.633,0 -68.075,-22.887 -81.103,-55.265 -11.721,5.741 -24.886,8.969 -38.791,8.969 -18.649,0 -35.965,-5.804 -50.25,-15.694 -13.384,8.48 -29.238,13.397 -46.22,13.397 -47.755,0 -86.606,-38.851 -86.606,-86.605 0,-17.476 5.209,-33.757 14.148,-47.38 -12.147,-14.267 -19.523,-32.85 -19.523,-53.165 0,-44.832 35.841,-81.307 79.897,-81.307 2.88,0 5.723,0.164 8.525,0.468 10.916,-4.753 23.14,-7.419 36.04,-7.419 20.164,0 38.679,6.511 53.121,17.331 11.498,-5.722 24.628,-8.977 38.567,-8.977 21.911,0 41.822,8.041 56.523,21.087 7.476,-1.987 15.323,-3.051 23.416,-3.051 38.552,0 71.595,24.04 84.928,57.916 C -25.591,-70.376 0,-38.145 0,0"
       style="fill:#ffffff;fill-opacity:1;fill-rule:nonzero;stroke:none"
       transform="matrix(1.3333333,0,0,-1.3333333,649.9516,227.1484)"
       clip-path="url(#clipPath4)" />
    <path
       id="path5"
       d="m 0,0 c 0,31.257 -18.772,58.097 -45.598,69.782 0.005,0.348 0.026,0.691 0.026,1.039 0,44.755 -35.827,81.035 -80.022,81.035 -36.525,0 -67.313,-24.791 -76.906,-58.656 -12.462,7.822 -27.191,12.361 -42.988,12.361 -18.905,0 -36.283,-6.496 -50.067,-17.354 -13.036,9.462 -29.062,15.057 -46.403,15.057 -43.687,0 -79.103,-35.416 -79.103,-79.103 0,-18.043 6.053,-34.665 16.222,-47.973 -13.328,-13.386 -21.598,-31.991 -21.598,-52.572 0,-40.761 32.413,-73.805 72.395,-73.805 3.276,0 6.494,0.243 9.654,0.672 10.455,-4.86 22.32,-7.623 34.912,-7.623 20.279,0 38.687,7.137 52.309,18.745 11.42,-6.577 24.911,-10.391 39.379,-10.391 21.572,0 40.989,8.461 54.564,21.961 8.005,-2.543 16.527,-3.925 25.374,-3.925 36.771,0 67.982,23.715 79.231,56.677 C -25.045,-66.307 0,-36.103 0,0"
       style="fill:#000000;fill-opacity:1;fill-rule:nonzero;stroke:none"
       transform="matrix(1.3333333,0,0,-1.3333333,639.9496,227.14827)"
       clip-path="url(#clipPath6)" />
    <path
       id="path7"
       d="m 0,0 -326.729,-82.165 7.956,15.822 c 0.333,0.663 -0.238,1.421 -0.968,1.283 l -64.233,-12.177 -46.486,46.048 c -0.528,0.522 -1.426,0.213 -1.52,-0.524 l -8.277,-64.879 -58.139,-29.965 c -0.66,-0.34 -0.644,-1.289 0.028,-1.606 l 59.142,-27.954 10.536,-64.517 c 0.12,-0.733 1.028,-1.011 1.537,-0.47 l 44.831,47.62 64.674,-9.938 c 0.734,-0.113 1.279,0.665 0.922,1.316 l -11.392,20.795 294.441,53.513 c 0.735,0.133 0.993,1.055 0.435,1.552 l -12.478,11.078 26.211,27.763 c 0.414,0.439 0.286,1.152 -0.255,1.419 L -40.363,-55.827 0.933,-1.411 C 1.445,-0.736 0.821,0.207 0,0"
       style="fill:#ffffff;fill-opacity:1;fill-rule:nonzero;stroke:none"
       transform="matrix(1.3333333,0,0,-1.3333333,665.1756,288.77613)"
       clip-path="url(#clipPath8)" />
    <path
       id="path9"
       d="M 0,0 C 4.016,1.506 12.421,3.763 19.481,5.296 V 26.91 l -35.283,-8.146 v -57.769 l 35.283,8.145 v 9.624 c -4.632,-1.212 -14.233,-3.023 -18.435,-3.735 -5.118,-0.863 -5.846,5.582 -0.187,7.443 3.25,1.061 9.208,2.48 13.859,3.785 v 7.411 C 10.478,-7.193 4.744,-8.19 0.224,-8.829 -5.379,-9.638 -6.35,-2.381 0,0"
       style="fill:#000000;fill-opacity:1;fill-rule:nonzero;stroke:none"
       transform="matrix(1.3333333,0,0,-1.3333333,515.21133,377.36227)"
       clip-path="url(#clipPath10)" />
    <path
       id="path11"
       d="m 0,0 c -1.885,-17.354 -4.909,-28.429 -5.283,-29.997 -0.784,-3.248 -2.427,-4.835 -4.312,-5.115 -3.043,-0.486 -4.518,1.736 -5.694,7.337 -0.112,0.522 -2.655,11.46 -4.462,25.669 l -13.604,-3.141 c 1.624,-13.049 5.292,-28.607 8.745,-39.92 3.473,-11.388 6.494,-14.15 13.409,-12.553 6.097,1.407 9.793,4.572 12.701,15.71 2.856,10.94 6.018,26.634 8.557,44.332 z"
       style="fill:#000000;fill-opacity:1;fill-rule:nonzero;stroke:none"
       transform="matrix(1.3333333,0,0,-1.3333333,473.27093,360.52267)"
       clip-path="url(#clipPath12)" />
    <path
       id="path13"
       d="M 0,0 C -4.775,-5.484 -14.535,-5.962 -16.382,5.462 -18.789,20.351 -9.719,25.298 -2.204,22.334 7.412,18.541 4.854,5.574 0,0 m -2.387,45.773 c -20.488,-0.577 -30.405,-26.781 -23.951,-43.95 4.3,-11.441 14.926,-14.904 23.124,-13.285 11.029,2.18 16.758,13.096 18.901,18.534 7.026,17.829 -0.997,39.182 -18.074,38.701"
       style="fill:#000000;fill-opacity:1;fill-rule:nonzero;stroke:none"
       transform="matrix(1.3333333,0,0,-1.3333333,401.61733,436.25147)"
       clip-path="url(#clipPath14)" />
    <path
       id="path15"
       d="M 0,0 C -4.775,-5.484 -14.535,-5.962 -16.382,5.462 -18.789,20.351 -9.719,25.298 -2.204,22.334 7.412,18.541 4.854,5.574 0,0 m -2.387,45.773 c -20.488,-0.577 -30.405,-26.781 -23.951,-43.95 4.3,-11.441 14.926,-14.904 23.124,-13.285 11.029,2.18 16.758,13.096 18.901,18.534 7.026,17.829 -0.997,39.182 -18.074,38.701"
       style="fill:#000000;fill-opacity:1;fill-rule:nonzero;stroke:none"
       transform="matrix(1.3333333,0,0,-1.3333333,331.71173,452.39053)"
       clip-path="url(#clipPath16)" />
    <path
       id="path17"
       d="m 0,0 c -4.806,-1.11 -8.331,1.452 -8.331,5.477 0,4.611 4.407,9.261 9.011,10.324 1.32,0.305 2.545,0.374 3.697,0.088 l -7.013,10.374 c 1.959,2.115 5.073,2.781 7.659,2.746 5.971,-0.079 11.476,-4.648 11.476,-8.609 0,-1.778 -0.793,-3.28 -1.852,-4.458 -0.636,-0.707 -1.023,-0.553 -0.866,-0.041 0.245,0.798 0.425,1.63 0.425,2.257 0,2.732 -3.389,4.264 -6.293,3.594 C 6.789,21.492 5.481,21.153 4.098,19.901 L 8.245,13.219 C 8.722,12.45 9.034,11.437 9.034,10.34 9.034,5.829 4.79,1.106 0,0 m 23.065,16.637 c 0,17.889 -17.627,23.056 -39.186,15.372 v -56.28 l 9.188,2.122 v 12.99 c 0,2.206 1.635,1.825 3.146,0.488 1.061,-0.94 7.44,-7.067 11.897,-11.473 l 14.026,3.238 c 0,0 -12.229,12.385 -13.639,13.61 8.214,3.063 14.568,11.021 14.568,19.933"
       style="fill:#000000;fill-opacity:1;fill-rule:nonzero;stroke:none"
       transform="matrix(1.3333333,0,0,-1.3333333,255.30107,454.7364)"
       clip-path="url(#clipPath18)" />
    <path
       id="path19"
       d="m 0,0 c 18.701,4.318 31.788,-10.92 32.372,-28.573 l -19.146,-4.42 c -1.597,10.39 -9.92,13.361 -16.818,8.187 -5.627,-4.22 -8.628,-12.438 -8.628,-21.444 0,-19.962 18.26,-22.223 24.958,-5.721 L 6.41,-53.432 v 11.618 l 26.019,6.007 v -30.818 l -9.084,-2.097 v 8.744 C 7.646,-82.135 -18.478,-74.294 -24.902,-55.782 -31.991,-35.353 -23.685,-5.468 0,0"
       style="fill:#000000;fill-opacity:1;fill-rule:nonzero;stroke:none"
       transform="matrix(1.3333333,0,0,-1.3333333,176.8016,403.09187)"
       clip-path="url(#clipPath20)" />
    <path
       id="path21"
       d="m 0,0 v 6.412 l -1.612,-6.784 -1.746,-0.403 -1.574,6.049 v -6.413 l -1.65,-0.381 v 7.677 l 2.578,0.595 1.555,-5.73 0.019,0.005 1.516,6.438 2.545,0.588 V 0.377 Z M -11.916,-2.751 V 3.564 L -14.57,2.951 v 1.361 l 7.022,1.622 V 4.572 l -2.559,-0.591 v -6.314 z"
       style="fill:#ffffff;fill-opacity:1;fill-rule:nonzero;stroke:none"
       transform="matrix(1.3333333,0,0,-1.3333333,566.84507,279.4076)"
       clip-path="url(#clipPath22)" />
    <path
       id="path23"
       d="m 0,0 c 3.714,1.399 11.486,3.489 18.015,4.905 v 20.211 l -32.628,-7.533 v -54.018 l 32.628,7.533 v 8.999 c -4.283,-1.123 -13.162,-2.793 -17.048,-3.449 -4.732,-0.795 -5.406,5.233 -0.173,6.96 3.006,0.985 8.516,2.298 12.817,3.507 v 6.929 C 9.69,-6.75 4.387,-7.669 0.207,-8.256 -4.975,-8.999 -5.873,-2.211 0,0"
       style="fill:#ffffff;fill-opacity:1;fill-rule:nonzero;stroke:none"
       transform="matrix(1.3333333,0,0,-1.3333333,537.0316,222.47667)"
       clip-path="url(#clipPath24)" />
    <path
       id="path25"
       d="m 0,0 c -0.191,1.795 -3.296,2.201 -8.132,3.361 -8.454,2.099 -13.688,7.08 -13.153,15.83 0.569,9.445 5.35,16.032 30.657,20.33 V 19.874 C 0.24,18.732 -4.801,17.023 -6.94,15.274 -9.22,13.423 -9.087,10.393 -5.796,9.293 -4.365,8.816 -0.137,7.403 2.418,6.547 7.322,4.912 9.721,2.406 10.221,-2.03 11.633,-14.544 -11.015,-17.825 -20.353,-19.196 V -8.078 C -9.166,-5.824 0.432,-3.848 0,0"
       style="fill:#ffffff;fill-opacity:1;fill-rule:nonzero;stroke:none"
       transform="matrix(1.3333333,0,0,-1.3333333,496.64427,272.10573)"
       clip-path="url(#clipPath26)" />
    <path
       id="path27"
       d="m 0,0 v 48.156 l 12.177,2.811 V 2.811 Z"
       style="fill:#ffffff;fill-opacity:1;fill-rule:nonzero;stroke:none"
       transform="matrix(1.3333333,0,0,-1.3333333,444.4052,276.4816)"
       clip-path="url(#clipPath28)" />
    <path
       id="path29"
       d="m 0,0 c -3.351,-0.775 -4.802,0.345 -4.802,4.266 v 12.367 c 0,2.85 -0.147,5.127 2.557,5.89 5.872,1.658 12.436,-1.485 13.058,-7.876 C 11.538,7.22 7.406,1.71 0,0 M -13.058,41.229 V -11.296 C 12.333,-7.583 23.387,2.228 23.111,21.729 22.869,38.638 6.08,47.931 -13.058,41.229"
       style="fill:#ffffff;fill-opacity:1;fill-rule:nonzero;stroke:none"
       transform="matrix(1.3333333,0,0,-1.3333333,405.5996,287.1904)"
       clip-path="url(#clipPath30)" />
    <path
       id="path31"
       d="m 0,0 -6.132,-1.416 c -1.541,-0.355 -2.418,0.604 -2.228,2.746 0.173,2.004 1.071,6.253 1.417,7.703 0.725,3.006 2.245,4.474 3.989,4.733 2.816,0.449 4.18,-1.606 5.269,-6.788 C 2.418,6.494 2.712,5.441 2.833,4.024 3.075,1.14 2.178,0.503 0,0 M 10.744,23.024 C 7.531,33.56 4.93,36.161 -1.468,34.683 -7.109,33.381 -10.316,30.444 -13.006,20.14 -15.649,10.018 -18.57,-4.447 -20.92,-20.821 l 9.313,2.149 c 0.173,1.296 0.484,2.816 0.933,5.13 0.483,2.332 1.744,3.999 4.249,4.578 l 7.254,1.674 c 1.939,0.448 3.714,-1.087 4.335,-3.678 0.415,-1.727 0.95,-4.177 1.279,-5.818 l 12.332,2.847 c -1.503,12.073 -4.836,26.496 -8.031,36.963"
       style="fill:#ffffff;fill-opacity:1;fill-rule:nonzero;stroke:none"
       transform="matrix(1.3333333,0,0,-1.3333333,358.60867,298.034)"
       clip-path="url(#clipPath32)" />
    <path
       id="path33"
       d="m 0,0 c -3.164,-0.742 -4.925,1.02 -4.925,4.786 v 3.639 c 0,2.624 0.51,4.902 2.851,5.643 C 4.722,16.221 9.456,13.292 9.456,8.691 9.456,4.392 6.165,1.449 0,0 m 22.91,15.725 c 0,16.722 -16.363,21.578 -36.376,14.428 v -52.608 l 8.529,1.969 v 12.142 c 0,2.063 1.518,1.704 2.921,0.452 0.985,-0.88 6.906,-6.617 11.043,-10.742 l 13.021,3.006 c 0,0 -11.352,11.595 -12.661,12.742 7.625,2.851 13.523,10.28 13.523,18.611"
       style="fill:#ffffff;fill-opacity:1;fill-rule:nonzero;stroke:none"
       transform="matrix(1.3333333,0,0,-1.3333333,297.9716,292.59627)"
       clip-path="url(#clipPath34)" />
    <path
       id="path35"
       d="m 0,0 -6.132,-1.416 c -1.541,-0.355 -2.418,0.604 -2.228,2.746 0.173,2.004 1.071,6.253 1.417,7.703 0.725,3.006 2.245,4.474 3.989,4.733 2.816,0.449 4.18,-1.606 5.269,-6.788 C 2.418,6.494 2.712,5.441 2.833,4.024 3.075,1.14 2.178,0.503 0,0 M 10.744,23.024 C 7.531,33.56 4.93,36.161 -1.468,34.683 -7.109,33.381 -10.316,30.444 -13.006,20.14 -15.649,10.018 -18.57,-4.447 -20.92,-20.821 l 9.313,2.149 c 0.173,1.296 0.484,2.816 0.933,5.13 0.483,2.332 1.744,3.999 4.249,4.578 l 7.254,1.674 c 1.939,0.448 3.714,-1.087 4.335,-3.678 0.415,-1.727 0.95,-4.177 1.279,-5.818 l 12.332,2.847 c -1.503,12.073 -4.836,26.496 -8.031,36.963"
       style="fill:#ffffff;fill-opacity:1;fill-rule:nonzero;stroke:none"
       transform="matrix(1.3333333,0,0,-1.3333333,253.2796,330.55533)"
       clip-path="url(#clipPath36)" />
    <path
       id="path37"
       d="m 0,0 c -3.835,-0.938 -6.045,0.069 -6.045,3.282 v 11.625 c 0,3.283 1.813,5.354 5.423,5.82 C 6.616,21.66 9.88,17.428 9.88,11.918 9.88,7.324 7.168,1.753 0,0 m -24.061,37.499 v -72.805 l 18.033,4.163 v 17.1 c 0,3.127 0.777,4.681 2.642,5.009 16.806,2.957 28.777,11.406 28.777,28.742 0,19.037 -20.451,29.278 -49.452,17.791"
       style="fill:#ffffff;fill-opacity:1;fill-rule:nonzero;stroke:none"
       transform="matrix(1.3333333,0,0,-1.3333333,195.29027,317.0356)"
       clip-path="url(#clipPath38)" />
    <path
       id="path39"
       d="m 0,0 c -4.975,-16.426 -7.79,-24.458 -10.243,-31.229 -4.18,-11.52 -8.515,-6.995 -10.536,-3.782 -2.349,3.765 -5.544,11.089 -11.089,24.509 l -13.697,-3.162 v -64.475 l 11.365,2.624 c -0.086,10.277 0.087,17.255 0.639,19.967 0.501,2.435 1.969,2.781 3.455,0.363 1.226,-1.987 3.161,-6.288 7.013,-15.131 l 7.615,1.758 c 4.197,11.279 6.462,16.965 8.068,19.746 1.295,2.263 3.765,3.852 4.508,-0.328 0.57,-3.161 0.518,-11.736 0.501,-22.238 l 11.78,2.72 V 2.165 Z"
       style="fill:#ffffff;fill-opacity:1;fill-rule:nonzero;stroke:none"
       transform="matrix(1.3333333,0,0,-1.3333333,506.97787,79.8524)"
       clip-path="url(#clipPath40)" />
    <path
       id="path41"
       d="m 0,0 c -0.052,-8.809 -0.035,-16.841 -0.415,-19.777 -0.881,-7.013 -12.868,-10.173 -13.455,-3.713 -0.276,3.039 -0.518,7.056 -0.518,16.02 l -9.69,-2.237 v -59.072 l 12.35,2.851 c 0,9.379 0,13.454 0.155,16.667 0.432,8.464 13.145,10.381 14.25,3.023 0.501,-3.351 0.587,-4.958 0.587,-12.523 l 9.846,2.273 V 3.027 Z"
       style="fill:#ffffff;fill-opacity:1;fill-rule:nonzero;stroke:none"
       transform="matrix(1.3333333,0,0,-1.3333333,419.6024,124.73827)"
       clip-path="url(#clipPath42)" />
    <path
       id="path43"
       d="m 0,0 v -23.777 l 6.892,1.591 c 4.179,0.965 5.907,0.421 5.907,-6.978 v -30.542 l 11.313,2.612 v 27.999 c 0,12.436 1.168,15.575 7.324,16.996 l 5.631,1.3 V 8.558 Z"
       style="fill:#ffffff;fill-opacity:1;fill-rule:nonzero;stroke:none"
       transform="matrix(1.3333333,0,0,-1.3333333,332.22667,131.2436)"
       clip-path="url(#clipPath44)" />
    <path
       id="path45"
       d="m 0,0 -10.571,-2.44 c 0,0 0.156,-10.882 -0.259,-18.896 -0.605,-11.728 -12.419,-14.25 -13.369,-3.092 -0.483,5.855 -0.708,17.526 -0.708,17.526 l -13.144,-3.035 v -9.517 c 0,-22.713 14.768,-25.511 22.488,-19.034 0.467,0.397 0.933,0.639 1.313,0.466 0.432,-0.19 0.415,-0.656 0.242,-1.52 -0.466,-2.262 -3.817,-6.736 -10.588,-8.549 -5.165,-1.382 -10.225,-2.254 -12.747,-2.651 v -15.762 c 11.365,1.468 24.527,4.716 30.658,14.146 3.196,4.923 4.871,10.122 5.7,17.825 C 0.311,-22.407 0,0 0,0"
       style="fill:#ffffff;fill-opacity:1;fill-rule:nonzero;stroke:none"
       transform="matrix(1.3333333,0,0,-1.3333333,326.05467,152.18213)"
       clip-path="url(#clipPath46)" />
    <path
       id="path47"
       d="m 0,0 c -0.052,-8.809 -0.035,-16.841 -0.415,-19.777 -0.881,-7.012 -12.868,-10.173 -13.455,-3.713 -0.276,3.039 -0.518,7.056 -0.518,16.02 l -9.69,-2.237 v -59.072 l 12.35,2.851 c 0,9.379 0,13.454 0.155,16.667 0.432,8.464 13.145,10.381 14.25,3.023 0.501,-3.351 0.587,-4.958 0.587,-12.523 l 9.846,2.273 V 3.027 Z"
       style="fill:#ffffff;fill-opacity:1;fill-rule:nonzero;stroke:none"
       transform="matrix(1.3333333,0,0,-1.3333333,249.24987,150.876)"
       clip-path="url(#clipPath48)" />
    <path
       id="path49"
       d="m 0,0 c -4.715,-1.105 -7.341,1.52 -7.341,7.134 v 5.423 c 0,3.912 0.76,7.306 4.249,8.412 C 7.039,24.178 14.094,19.811 14.094,12.954 14.094,6.546 9.189,2.159 0,0 m 34.148,23.439 c 0,24.924 -24.389,32.161 -54.219,21.504 v -80.457 l 12.713,2.935 v 20.143 c 0,3.074 2.263,2.539 4.353,0.674 1.468,-1.313 10.294,-9.863 16.46,-16.012 l 19.407,4.48 c 0,0 -16.92,17.283 -18.871,18.993 11.365,4.249 20.157,15.322 20.157,27.74"
       style="fill:#ffffff;fill-opacity:1;fill-rule:nonzero;stroke:none"
       transform="matrix(1.3333333,0,0,-1.3333333,163.48627,198.24827)"
       clip-path="url(#clipPath50)" />
  </g>
</svg>
