<?xml version="1.0" encoding="UTF-8" standalone="no"?>
<!-- Created with Inkscape (http://www.inkscape.org/) -->

<svg
   version="1.1"
   id="svg1"
   width="666.66669"
   height="462.36932"
   viewBox="0 0 666.66669 462.36932"
   sodipodi:docname="Rhythm Tengoku Miracle Stars (リズム天国 ミラクルスターズ) (Beta) Logo (Print).ai"
   xmlns:inkscape="http://www.inkscape.org/namespaces/inkscape"
   xmlns:sodipodi="http://sodipodi.sourceforge.net/DTD/sodipodi-0.dtd"
   xmlns="http://www.w3.org/2000/svg"
   xmlns:svg="http://www.w3.org/2000/svg">
  <defs
     id="defs1">
    <clipPath
       clipPathUnits="userSpaceOnUse"
       id="clipPath2">
      <path
         d="M 0,346.777 H 500 V 0 H 0 Z"
         transform="translate(-390.98901,-203.91701)"
         id="path2" />
    </clipPath>
    <clipPath
       clipPathUnits="userSpaceOnUse"
       id="clipPath4">
      <path
         d="M 0,346.777 H 500 V 0 H 0 Z"
         transform="translate(-472.79571,-292.40141)"
         id="path4" />
    </clipPath>
    <clipPath
       clipPathUnits="userSpaceOnUse"
       id="clipPath6">
      <path
         d="M 0,346.777 H 500 V 0 H 0 Z"
         transform="translate(-463.98511,-289.73141)"
         id="path6" />
    </clipPath>
    <clipPath
       clipPathUnits="userSpaceOnUse"
       id="clipPath8">
      <path
         d="M 0,346.777 H 500 V 0 H 0 Z"
         transform="translate(-458.37771,-288.03171)"
         id="path8" />
    </clipPath>
    <clipPath
       clipPathUnits="userSpaceOnUse"
       id="clipPath10">
      <path
         d="M 0,346.777 H 500 V 0 H 0 Z"
         transform="translate(-122.1492,-97.229502)"
         id="path10" />
    </clipPath>
    <clipPath
       clipPathUnits="userSpaceOnUse"
       id="clipPath12">
      <path
         d="M 0,346.777 H 500 V 0 H 0 Z"
         transform="translate(-442.44121,-170.48731)"
         id="path12" />
    </clipPath>
    <clipPath
       clipPathUnits="userSpaceOnUse"
       id="clipPath14">
      <path
         d="M 0,346.777 H 500 V 0 H 0 Z"
         transform="translate(-424.40411,-187.07281)"
         id="path14" />
    </clipPath>
    <clipPath
       clipPathUnits="userSpaceOnUse"
       id="clipPath16">
      <path
         d="M 0,346.777 H 500 V 0 H 0 Z"
         transform="translate(-348.45191,-145.0957)"
         id="path16" />
    </clipPath>
    <clipPath
       clipPathUnits="userSpaceOnUse"
       id="clipPath18">
      <path
         d="M 0,346.777 H 500 V 0 H 0 Z"
         transform="translate(-317.34641,-143.21)"
         id="path18" />
    </clipPath>
    <clipPath
       clipPathUnits="userSpaceOnUse"
       id="clipPath20">
      <path
         d="M 0,346.777 H 500 V 0 H 0 Z"
         transform="translate(-289.8298,-122.12311)"
         id="path20" />
    </clipPath>
    <clipPath
       clipPathUnits="userSpaceOnUse"
       id="clipPath22">
      <path
         d="M 0,346.777 H 500 V 0 H 0 Z"
         transform="translate(-246.0925,-119.4463)"
         id="path22" />
    </clipPath>
    <clipPath
       clipPathUnits="userSpaceOnUse"
       id="clipPath24">
      <path
         d="M 0,346.777 H 500 V 0 H 0 Z"
         transform="translate(-203.40211,-117.60061)"
         id="path24" />
    </clipPath>
    <clipPath
       clipPathUnits="userSpaceOnUse"
       id="clipPath26">
      <path
         d="M 0,346.777 H 500 V 0 H 0 Z"
         transform="translate(-157.0251,-95.530302)"
         id="path26" />
    </clipPath>
    <clipPath
       clipPathUnits="userSpaceOnUse"
       id="clipPath28">
      <path
         d="M 0,346.777 H 500 V 0 H 0 Z"
         transform="translate(-112.51491,-76.473604)"
         id="path28" />
    </clipPath>
    <clipPath
       clipPathUnits="userSpaceOnUse"
       id="clipPath30">
      <path
         d="M 0,346.777 H 500 V 0 H 0 Z"
         transform="translate(-407.71951,-263.2412)"
         id="path30" />
    </clipPath>
    <clipPath
       clipPathUnits="userSpaceOnUse"
       id="clipPath32">
      <path
         d="M 0,346.777 H 500 V 0 H 0 Z"
         transform="translate(-410.98801,-314.62501)"
         id="path32" />
    </clipPath>
    <clipPath
       clipPathUnits="userSpaceOnUse"
       id="clipPath34">
      <path
         d="M 0,346.777 H 500 V 0 H 0 Z"
         transform="translate(-383.15991,-304.02641)"
         id="path34" />
    </clipPath>
    <clipPath
       clipPathUnits="userSpaceOnUse"
       id="clipPath36">
      <path
         d="M 0,346.777 H 500 V 0 H 0 Z"
         transform="translate(-332.67651,-214.5596)"
         id="path36" />
    </clipPath>
    <clipPath
       clipPathUnits="userSpaceOnUse"
       id="clipPath38">
      <path
         d="M 0,346.777 H 500 V 0 H 0 Z"
         transform="translate(-341.13751,-263.5913)"
         id="path38" />
    </clipPath>
    <clipPath
       clipPathUnits="userSpaceOnUse"
       id="clipPath40">
      <path
         d="M 0,346.777 H 500 V 0 H 0 Z"
         transform="translate(-303.31231,-256.9697)"
         id="path40" />
    </clipPath>
    <clipPath
       clipPathUnits="userSpaceOnUse"
       id="clipPath42">
      <path
         d="M 0,346.777 H 500 V 0 H 0 Z"
         transform="translate(-274.58571,-213.94391)"
         id="path42" />
    </clipPath>
    <clipPath
       clipPathUnits="userSpaceOnUse"
       id="clipPath44">
      <path
         d="M 0,346.777 H 500 V 0 H 0 Z"
         transform="translate(-181.7092,-200.543)"
         id="path44" />
    </clipPath>
    <clipPath
       clipPathUnits="userSpaceOnUse"
       id="clipPath46">
      <path
         d="M 0,346.777 H 500 V 0 H 0 Z"
         transform="translate(-83.815705,-204.77)"
         id="path46" />
    </clipPath>
  </defs>
  <sodipodi:namedview
     id="namedview1"
     pagecolor="#ffffff"
     bordercolor="#000000"
     borderopacity="0.25"
     inkscape:showpageshadow="2"
     inkscape:pageopacity="0.0"
     inkscape:pagecheckerboard="0"
     inkscape:deskcolor="#d1d1d1">
    <inkscape:page
       x="0"
       y="0"
       inkscape:label="1"
       id="page1"
       width="666.66669"
       height="462.36932"
       margin="0"
       bleed="0" />
  </sodipodi:namedview>
  <g
     id="layer-MC0"
     inkscape:groupmode="layer"
     inkscape:label="Layer 1">
    <path
       id="path1"
       d="m 0,0 c -98.981,-54.113 -222.412,-68.284 -320.045,-106.648 l 34.819,-53.378 c 108.617,39.091 145.835,48.836 181.938,59.213 48.743,14.012 138.605,33.678 201.232,25.714 8.651,-1.099 11.067,-0.124 11.067,4.368 0,12.087 -23.622,26.5 -51.115,29.923 9.065,1.125 15.517,5.526 15.395,11.102 -0.142,6.505 -5.833,15.697 -27.9,19.369 5.359,6.484 0.43,12.721 -5.591,9.429 z"
       style="fill:#ffffff;fill-opacity:1;fill-rule:nonzero;stroke:none"
       transform="matrix(1.3333333,0,0,-1.3333333,521.31867,190.48)"
       clip-path="url(#clipPath2)" />
    <path
       id="path3"
       d="m 0,0 c -12.255,40.433 -55.202,63.339 -95.738,51.062 l -0.001,-10e-4 c -0.065,-0.019 -0.127,-0.039 -0.192,-0.058 -23.51,-7.188 -41.648,-24.654 -49.777,-47.118 -7.881,0.102 -15.789,-1.006 -23.383,-3.306 -0.065,-0.02 -0.13,-0.04 -0.197,-0.06 -7.203,-2.203 -14.062,-5.467 -20.302,-9.635 -19.201,13.772 -43.812,18.025 -67.018,10.994 -0.064,-0.019 -0.127,-0.038 -0.191,-0.058 -23.469,-7.175 -41.6,-24.616 -49.752,-47.043 -0.299,0.003 -0.597,0.005 -0.897,0.005 -15.732,-0.013 -30.751,-4.732 -43.454,-13.486 -19.237,13.939 -43.936,18.263 -67.304,11.184 -0.057,-0.018 -0.113,-0.035 -0.169,-0.052 -40.432,-12.362 -63.363,-55.19 -51.129,-95.56 12.247,-40.433 55.197,-63.343 95.744,-51.068 7.575,2.336 14.77,5.762 21.273,10.221 13.004,-9.351 28.791,-14.535 44.964,-14.525 18.284,0.017 36.012,6.575 49.919,18.47 10.09,8.631 17.726,19.668 22.238,31.932 7.824,-0.082 15.668,1.026 23.197,3.306 0.067,0.02 0.135,0.041 0.201,0.061 7.202,2.202 14.058,5.465 20.297,9.631 19.208,-13.769 43.821,-18.021 67.022,-10.993 0.064,0.02 0.127,0.039 0.19,0.059 23.513,7.188 41.654,24.655 49.787,47.117 7.873,-0.101 15.774,1.004 23.371,3.3 0.056,0.017 0.113,0.035 0.17,0.052 C -10.711,-83.211 12.223,-40.381 0,0"
       style="fill:#000000;fill-opacity:1;fill-rule:nonzero;stroke:none"
       transform="matrix(1.3333333,0,0,-1.3333333,630.39427,72.5008)"
       clip-path="url(#clipPath4)" />
    <path
       id="path5"
       d="m 0,0 c -10.782,35.576 -48.581,55.727 -84.259,44.92 h -0.001 c -0.055,-0.017 -0.112,-0.034 -0.168,-0.051 -22.905,-7.003 -40.017,-25.086 -45.802,-47.947 -9.146,1.043 -18.504,0.204 -27.381,-2.484 -0.06,-0.018 -0.117,-0.035 -0.174,-0.053 -8.462,-2.587 -16.382,-6.838 -23.188,-12.417 -17.497,15.321 -41.581,20.609 -64.156,13.77 -0.056,-0.017 -0.111,-0.034 -0.168,-0.051 -22.859,-6.99 -39.966,-25.039 -45.784,-47.858 -2.5,0.277 -5.023,0.417 -7.548,0.417 -16.125,-0.014 -31.403,-5.644 -43.601,-15.963 -17.527,15.555 -41.73,20.953 -64.494,14.056 -0.05,-0.015 -0.1,-0.03 -0.15,-0.046 -35.586,-10.879 -55.773,-48.566 -45.008,-84.086 10.775,-35.576 48.576,-55.729 84.265,-44.926 0.057,0.018 0.114,0.035 0.172,0.053 8.758,2.678 16.919,7.13 23.891,13.005 12.366,-10.992 28.08,-16.978 44.832,-16.966 6.925,0.006 13.622,1.041 19.94,2.973 22.224,6.795 39.716,24.679 45.601,47.834 9.077,-1.006 18.36,-0.159 27.156,2.505 0.058,0.018 0.118,0.036 0.176,0.054 8.46,2.586 16.375,6.834 23.181,12.41 17.506,-15.316 41.591,-20.602 64.16,-13.765 0.056,0.017 0.112,0.034 0.168,0.052 22.907,7.003 40.025,25.085 45.813,47.944 9.135,-1.041 18.488,-0.204 27.365,2.479 0.05,0.015 0.099,0.03 0.148,0.045 C -9.435,-73.218 10.754,-35.529 0,0"
       style="fill:#ffffff;fill-opacity:1;fill-rule:nonzero;stroke:none"
       transform="matrix(1.3333333,0,0,-1.3333333,618.6468,76.0608)"
       clip-path="url(#clipPath6)" />
    <path
       id="path7"
       d="m 0,0 c -9.861,32.541 -44.311,50.901 -76.953,41.014 -23.298,-7.059 -39.374,-26.603 -43.078,-49.046 -9.731,1.985 -20.089,1.648 -30.276,-1.437 -9.798,-2.967 -18.321,-8.148 -25.182,-14.822 -15.567,16.07 -39.398,23.07 -62.333,16.122 -23.26,-7.047 -39.318,-26.539 -43.067,-48.932 -3.921,0.779 -7.973,1.188 -12.127,1.188 -17.049,-0.015 -32.509,-6.958 -43.704,-18.147 -15.558,16.328 -39.58,23.496 -62.696,16.493 -32.641,-9.898 -51.115,-44.282 -41.252,-76.828 9.855,-32.538 44.31,-50.901 76.96,-41.018 10.124,3.067 18.883,8.499 25.862,15.495 11.249,-11.805 27.137,-19.164 44.727,-19.151 30.614,0.027 56.11,22.387 60.956,51.582 9.668,-1.933 19.946,-1.581 30.048,1.479 9.799,2.966 18.321,8.147 25.178,14.814 15.57,-16.057 39.402,-23.063 62.337,-16.115 23.302,7.06 39.38,26.599 43.09,49.043 9.731,-1.984 20.076,-1.646 30.255,1.431 C -8.615,-66.937 9.85,-32.539 0,0"
       style="fill:#000000;fill-opacity:1;fill-rule:nonzero;stroke:none"
       transform="matrix(1.3333333,0,0,-1.3333333,611.17027,78.327067)"
       clip-path="url(#clipPath8)" />
    <path
       id="path9"
       d="m 0,0 -41.427,-6.849 -29.266,30.228 -6.287,-41.574 -37.804,-18.577 37.735,-18.776 5.817,-41.681 29.613,29.987 41.33,-7.28 -19.45,37.367 z"
       style="fill:#ffffff;fill-opacity:1;fill-rule:nonzero;stroke:none"
       transform="matrix(1.3333333,0,0,-1.3333333,162.8656,332.73)"
       clip-path="url(#clipPath10)" />
    <path
       id="path11"
       d="m 0,0 1.583,2.299 c 1.475,2.139 1.747,4.845 0.729,7.238 -1.02,2.39 -3.159,4.067 -5.723,4.486 l -5.101,0.834 -3.675,4.986 c -1.386,1.883 -3.519,2.962 -5.85,2.962 -3.578,0 -6.58,-2.535 -7.182,-6.047 -1.131,0.822 -2.502,1.303 -3.95,1.339 l -1.494,0.037 -1.168,1.559 c -1.338,1.786 -3.381,2.809 -5.607,2.809 h -10e-4 c -3.411,-10e-4 -6.317,-2.437 -6.911,-5.79 l -0.057,-0.321 -0.6,-0.186 c -2.453,-0.762 -4.237,-2.81 -4.655,-5.337 -0.422,-2.536 0.606,-5.051 2.682,-6.562 l 0.798,-0.582 C -51.9,2.914 -58.47,1.854 -65.446,0.488 c -2.986,-0.586 -5.11,-3.245 -5.021,-6.286 l 0.198,-6.792 c 0.018,-0.573 0.114,-1.135 0.282,-1.672 -0.373,-0.007 -0.748,-0.047 -1.12,-0.122 l -18.175,-3.702 c 0.003,0.071 0.007,0.141 0.007,0.212 l -0.008,4.867 c -0.003,1.892 -0.866,3.679 -2.347,4.857 -1.479,1.177 -3.415,1.619 -5.259,1.197 l -22.225,-5.081 c -0.349,1.284 -1.106,2.437 -2.178,3.274 -1.509,1.176 -3.475,1.593 -5.331,1.129 l -12.086,-3.017 c -2.794,-0.698 -4.744,-3.222 -4.713,-6.102 l 0.006,-0.554 c -0.699,0.057 -1.411,-0.005 -2.105,-0.19 -1.168,-0.313 -28.735,-7.683 -39.265,-10.865 -2.644,-0.8 -4.444,-3.246 -4.42,-6.009 l 0.06,-6.833 c 0.002,-0.379 0.042,-0.753 0.112,-1.118 l -8.379,-2.545 c 1.578,1.175 2.546,3.061 2.505,5.113 l -0.097,4.917 c -0.039,1.948 -0.987,3.766 -2.563,4.91 -1.577,1.145 -3.599,1.485 -5.463,0.919 l -14.282,-4.337 c -2.64,-0.802 -4.433,-3.245 -4.413,-5.998 -0.102,-0.025 -0.205,-0.054 -0.307,-0.085 l -12.084,-3.694 c -1.838,-0.562 -3.262,-1.921 -3.949,-3.625 -0.954,0.151 -1.943,0.081 -2.888,-0.225 l -18.837,-6.093 c -0.43,1.145 -1.195,2.155 -2.219,2.882 -1.639,1.165 -3.74,1.465 -5.64,0.807 l -12.071,-4.186 c -1.708,-0.591 -3.03,-1.878 -3.699,-3.476 -1.401,0.545 -2.97,0.569 -4.41,0.036 l -36.258,-13.418 c -1.772,-0.656 -3.108,-2.064 -3.709,-3.781 -1.274,0.493 -2.69,0.562 -4.029,0.161 l -32.473,-9.714 c -2.672,-0.8 -4.485,-3.279 -4.437,-6.067 l 0.132,-7.534 c 0.02,-1.152 0.359,-2.26 0.959,-3.211 -0.557,-0.958 -0.862,-2.069 -0.842,-3.235 l 0.132,-7.532 c 0.022,-1.258 0.423,-2.462 1.128,-3.466 -0.664,-1.017 -1.033,-2.231 -1.011,-3.51 l 0.131,-7.533 c 0.034,-1.945 0.977,-3.764 2.548,-4.912 1.078,-0.788 2.367,-1.199 3.671,-1.199 0.597,0 1.198,0.086 1.783,0.261 l 32.21,9.636 c 1.721,0.515 3.083,1.73 3.823,3.275 0.778,-0.334 1.612,-0.508 2.453,-0.508 0.715,0 1.434,0.123 2.125,0.375 l 19.742,7.178 c 7.376,2.681 15.588,6.87 18.977,15.86 v -0.018 c 0.004,-1.998 0.966,-3.873 2.588,-5.039 1.072,-0.771 2.345,-1.171 3.632,-1.171 0.661,0 1.326,0.106 1.968,0.32 l 27.515,9.178 c 3.356,1.108 6.077,2.875 8.112,5.214 0.987,-0.607 2.116,-0.922 3.258,-0.922 0.604,0 1.212,0.088 1.804,0.267 l 3.972,1.204 c 3.502,1.061 6.622,3.18 9.037,5.921 0.142,-0.124 0.29,-0.242 0.444,-0.354 1.576,-1.146 3.598,-1.486 5.463,-0.919 l 9.308,2.826 c 6.51,1.976 11.749,5.258 15.642,9.771 0.423,-0.835 1.035,-1.574 1.803,-2.152 1.09,-0.821 2.407,-1.252 3.742,-1.252 0.554,0 1.113,0.074 1.659,0.226 l 7.208,1.995 c 7.794,2.157 12.803,4.521 17.309,8.512 1.53,-1.791 4.003,-2.613 6.39,-1.954 l 10.973,3.037 c 1.233,0.341 2.309,1.049 3.107,2.001 0.622,-0.202 1.274,-0.309 1.931,-0.309 0.494,0 0.991,0.058 1.481,0.178 l 27.517,6.753 c 7.187,1.741 11.586,6.446 12.691,13.426 l 22.185,4.42 -0.001,-3.343 c -10e-4,-1.822 0.799,-3.554 2.185,-4.736 1.134,-0.966 2.567,-1.485 4.035,-1.485 0.329,0 0.66,0.025 0.99,0.079 l 7.229,1.165 c 7.214,1.162 12.499,2.632 17.526,6.251 1.242,-1.878 3.44,-2.973 5.758,-2.76 l 11.431,1.053 c 2.156,0.198 4.054,1.505 5.01,3.447 0.956,1.943 0.833,4.244 -0.325,6.073 -1.637,2.585 -5.232,5.669 -8.858,8.076 1.297,2.79 1.978,5.298 2.344,7.623 1.272,-0.962 2.855,-1.53 4.555,-1.53 1.569,0 3.077,0.483 4.368,1.399 l 2.081,1.48 3.895,-1.974 c 1.003,-0.51 2.125,-0.78 3.242,-0.78 2.399,0 4.627,1.2 5.959,3.21 1.323,1.998 1.554,4.512 0.618,6.726 z"
       style="fill:#ffffff;fill-opacity:1;fill-rule:nonzero;stroke:none"
       transform="matrix(1.3333333,0,0,-1.3333333,589.9216,235.05293)"
       clip-path="url(#clipPath12)" />
    <path
       id="path13"
       d="M 0,0 C 0.339,0 0.639,-0.153 0.844,-0.432 L 5.638,-6.937 C 5.885,-7.273 6.248,-7.495 6.66,-7.562 L 13.623,-8.7 c 0.45,-0.074 0.825,-0.368 1.004,-0.788 0.179,-0.419 0.131,-0.894 -0.128,-1.269 l -3.025,-4.392 c -0.31,-0.449 -0.369,-1.018 -0.156,-1.519 l 2.997,-7.082 c 0.169,-0.399 0.026,-0.713 -0.075,-0.865 -0.174,-0.263 -0.47,-0.427 -0.774,-0.427 -0.144,0 -0.286,0.036 -0.423,0.105 l -6.399,3.244 c -0.222,0.111 -0.47,0.171 -0.718,0.171 -0.332,0 -0.651,-0.102 -0.921,-0.294 l -4.362,-3.103 c -0.228,-0.162 -0.492,-0.248 -0.763,-0.248 -0.672,0 -1.239,0.503 -1.318,1.168 l -0.806,6.732 c -0.051,0.424 -0.275,0.815 -0.614,1.074 l -6.441,4.912 c -0.331,0.253 -0.479,0.647 -0.395,1.055 0.084,0.408 0.375,0.712 0.778,0.813 l 5.954,1.498 c 0.516,0.13 0.902,0.555 0.984,1.081 l 0.923,5.937 C -0.959,-0.281 -0.44,0 0,0 m -19.4,-0.303 v 0 c 0.252,0 0.474,-0.114 0.629,-0.319 l 2.59,-3.459 c 0.244,-0.326 0.618,-0.52 1.027,-0.529 l 3.868,-0.097 c 0.294,-0.007 0.551,-0.168 0.685,-0.429 0.135,-0.262 0.118,-0.564 -0.047,-0.808 l -1.932,-2.864 c -0.264,-0.391 -0.299,-0.897 -0.092,-1.321 l 1.901,-3.889 c 0.082,-0.168 0.073,-0.354 -0.024,-0.509 -0.099,-0.157 -0.269,-0.255 -0.446,-0.255 -0.063,0 -0.125,0.012 -0.188,0.034 l -4.036,1.471 c -0.145,0.053 -0.298,0.08 -0.452,0.08 -0.302,0 -0.598,-0.104 -0.832,-0.294 l -2.401,-1.939 c -0.144,-0.116 -0.316,-0.178 -0.496,-0.178 -0.347,0 -0.731,0.237 -0.791,0.691 l -0.528,4.01 c -0.047,0.357 -0.241,0.684 -0.532,0.896 l -3.782,2.757 c -0.165,0.121 -0.244,0.313 -0.211,0.515 0.034,0.201 0.171,0.358 0.366,0.419 l 3.446,1.069 c 0.475,0.147 0.824,0.543 0.911,1.032 l 0.579,3.26 c 0.08,0.451 0.464,0.656 0.788,0.656 m 3.804,-39.558 c 4.191,5.973 4.905,10.201 5.091,14.285 0.075,1.643 1.124,2.511 2.021,2.577 l 1.431,0.106 0.003,6.15 c 0,0 -17.764,-1.265 -39.163,-5.459 l 0.199,-6.792 c 19.232,3.344 24.269,3.914 24.269,3.914 -0.397,-11.04 -5.626,-20.088 -16.959,-21.914 l -7.073,-1.139 -0.003,-6.511 7.23,1.165 c 9.36,1.508 13.878,3.301 19.4,9.213 1.424,-0.926 3.236,-2.738 4.302,-5.669 l 11.432,1.053 c -1.767,2.79 -8.329,7.575 -12.18,9.021"
       style="fill:#000000;fill-opacity:1;fill-rule:nonzero;stroke:none"
       transform="matrix(1.3333333,0,0,-1.3333333,565.87213,212.93893)"
       clip-path="url(#clipPath14)" />
    <path
       id="path15"
       d="m 0,0 v -7.753 l 24.123,4.807 v 7.859 z"
       style="fill:#000000;fill-opacity:1;fill-rule:nonzero;stroke:none"
       transform="matrix(1.3333333,0,0,-1.3333333,464.60253,268.9084)"
       clip-path="url(#clipPath16)" />
    <path
       id="path17"
       d="m 0,0 -0.004,2.584 13.951,3.168 c 0.868,0.197 1.574,-0.341 1.582,-1.207 l 0.072,-6.902 c 0,0 -7.928,1.91 -15.601,2.357 m 29.592,14.261 -29.605,-6.768 -0.008,6.119 -12.086,-3.017 0.052,-4.889 0.875,0.214 c 1.451,0.357 2.156,-0.171 2.157,-1.085 l 0.015,-9.768 c 0.002,-1.357 -0.48,-2.356 -1.823,-2.686 l -1.388,-0.339 0.056,-5.111 7.471,1.835 c 2.597,0.638 4.688,3.452 4.688,6.321 6.263,-1.29 15.491,-4.736 15.491,-4.736 -0.007,-2.675 -1.338,-4.158 -4.424,-4.92 l -19.889,-4.877 0.01,-6.548 27.534,6.757 c 5.432,1.315 8.339,4.895 8.21,11.446 L 26.646,6.484 c -0.009,1.382 0.536,2.329 1.897,2.64 l 1.057,0.27 z"
       style="fill:#000000;fill-opacity:1;fill-rule:nonzero;stroke:none"
       transform="matrix(1.3333333,0,0,-1.3333333,423.12853,271.42267)"
       clip-path="url(#clipPath18)" />
    <path
       id="path19"
       d="m 0,0 c 4.124,6.561 4.678,10.755 5.226,15.377 0.19,1.673 0.971,2.315 1.865,2.562 l 1.661,0.46 -0.056,6.462 c 0,0 -28.516,-7.62 -39.071,-10.81 l 0.06,-6.833 24.54,6.789 c -0.48,-8.735 -3.48,-20.148 -17.111,-23.92 l -7.051,-1.952 0.061,-6.55 7.208,1.996 c 9.33,2.581 13.821,5.207 19.275,11.881 1.431,-0.744 3.331,-2.514 4.424,-5.323 l 10.973,3.037 C 10.438,-4.855 3.819,-0.631 0,0"
       style="fill:#000000;fill-opacity:1;fill-rule:nonzero;stroke:none"
       transform="matrix(1.3333333,0,0,-1.3333333,386.43973,299.53853)"
       clip-path="url(#clipPath20)" />
    <path
       id="path21"
       d="M 0,0 C 0,0 -0.565,-11.581 -7.394,-15.244 L -7.846,8.2 c -0.021,1.121 0.851,2.293 1.953,2.628 l 1.115,0.339 -0.097,4.918 -14.282,-4.337 0.717,-36.948 9.307,2.827 C 5.823,-17.832 8.909,-6.802 10.691,3.246 Z m -23.866,5.668 0.24,-22.382 c 0.059,-5.581 -4.247,-11.465 -9.754,-13.133 l -3.973,-1.203 -0.071,6.382 c 2.662,0.806 4.784,3.637 4.756,6.336 l -0.15,14.197 c -0.012,1.121 -0.911,1.753 -2.019,1.418 l -1.06,-0.321 -0.053,5.012 z"
       style="fill:#000000;fill-opacity:1;fill-rule:nonzero;stroke:none"
       transform="matrix(1.3333333,0,0,-1.3333333,328.12333,303.1076)"
       clip-path="url(#clipPath22)" />
    <path
       id="path23"
       d="m 0,0 -26.564,-8.593 -0.01,6.23 -12.071,-4.186 0.008,-5.025 0.955,0.316 c 1.45,0.472 2.152,-0.001 2.154,-0.914 l 0.015,-9.83 c 0.002,-1.355 -0.48,-2.381 -1.82,-2.816 l -1.282,-0.423 0.008,-4.985 7.369,2.395 c 2.596,0.844 4.698,3.853 4.694,6.723 l -0.012,7.667 13.883,4.476 c 0.868,0.28 1.573,-0.189 1.584,-1.053 l 0.156,-12.12 c 0.057,-4.44 -1.013,-6.224 -4.695,-7.49 l -19.898,-6.81 0.01,-6.556 27.534,9.184 c 5.425,1.791 8.235,5.93 8.177,12.398 z"
       style="fill:#000000;fill-opacity:1;fill-rule:nonzero;stroke:none"
       transform="matrix(1.3333333,0,0,-1.3333333,271.2028,305.56853)"
       clip-path="url(#clipPath24)" />
    <path
       id="path25"
       d="m 0,0 -37.923,-13.787 -0.035,-6.436 28.319,10.502 c 0.013,-7.717 -0.253,-12.357 -10.612,-16.123 l -15.859,-5.78 -0.094,-6.485 19.743,7.178 c 10.902,3.964 16.495,9.151 16.479,19.496 z m -36.501,-9.197 -0.013,7.904 36.259,13.418 0.011,-7.903 z"
       style="fill:#000000;fill-opacity:1;fill-rule:nonzero;stroke:none"
       transform="matrix(1.3333333,0,0,-1.3333333,209.3668,334.9956)"
       clip-path="url(#clipPath26)" />
    <path
       id="path27"
       d="M 0,0 -32.342,-9.676 -32.21,-17.208 0,-7.572 Z m -32.093,-24.184 0.132,-7.533 32.21,9.636 v 7.572 z m 31.976,30.63 -32.342,-9.675 -0.131,7.533 32.473,9.714 z"
       style="fill:#000000;fill-opacity:1;fill-rule:nonzero;stroke:none"
       transform="matrix(1.3333333,0,0,-1.3333333,150.01987,360.40453)"
       clip-path="url(#clipPath28)" />
    <path
       id="path29"
       d="M 0,0 V 5.665 L 4.014,6.892 V 1.228 Z m 4.014,-6.506 -25.12,-7.68 v 4.614 l 4.434,1.356 c 1.812,0.553 2.885,1.998 2.885,4.387 v 8.398 l -7.319,-2.238 v 4.986 l 7.319,2.238 v 8.599 c 0,0.998 -0.601,2.342 -3.365,1.497 l -3.954,-1.21 v 4.645 l 25.12,7.681 v -4.645 l -4.386,-1.341 c -1.874,-0.573 -2.934,-1.97 -2.934,-4.391 v -7.631 l 7.32,2.238 v -4.986 l -7.32,-2.238 v -9.367 c 0,-1.475 1.133,-2.189 3.414,-1.492 l 3.906,1.194 z m 6.631,1.933 c 0,-2.334 -1.276,-3.894 -3.035,-4.421 l -35.354,-10.809 v 40.312 c 0,2.181 1.133,3.847 3.034,4.422 L 10.645,35.74 Z m -52.638,31.93 V -31.852 L 24.901,-11.399 24.9,47.809 Z"
       style="fill:#ffffff;fill-opacity:1;fill-rule:nonzero;stroke:none"
       transform="matrix(1.3333333,0,0,-1.3333333,543.626,111.38107)"
       clip-path="url(#clipPath30)" />
    <path
       id="path31"
       d="m 0,0 c -0.38,0.081 -0.971,0.207 -0.96,0.518 0.01,0.26 0.283,0.541 0.952,1.2 C 2.659,4.364 2.96,4.665 4.895,6.78 L 3.499,7.275 C 2.535,6.12 2.165,5.725 -0.603,2.827 -2.026,1.334 -2.717,0.509 -2.737,-0.1 -2.766,-0.895 -1.821,-1.122 -0.761,-1.375 1.216,-1.84 3.096,-2.458 4.85,-3.273 l 1.356,1.435 C 5.026,-1.24 1.927,-0.394 0,0"
       style="fill:#ffffff;fill-opacity:1;fill-rule:nonzero;stroke:none"
       transform="matrix(1.3333333,0,0,-1.3333333,547.984,42.869333)"
       clip-path="url(#clipPath32)" />
    <path
       id="path33"
       d="m 0,0 c -1.963,-0.6 -4.473,-1.342 -4.434,0.292 0.006,0.264 0.081,1.198 1.204,2.551 l -1.041,0.43 c -0.979,-1.322 -1.574,-2.29 -1.601,-3.446 -0.024,-0.994 0.646,-1.737 1.539,-1.875 1.1,-0.176 2.208,0.051 4.784,0.839 2.027,0.619 2.945,1.012 3.403,1.215 L 3.836,1.397 C 2.563,0.834 1.28,0.392 0,0 m -1.95,5.892 0.921,-0.604 c 1.537,1.356 2.714,2.239 4.368,3.02 L 3.368,9.54 C 2.531,9.284 -1.601,8.008 -2.529,7.724 -3.183,7.524 -4.805,7.028 -5.197,6.921 L -5.23,5.5 c 0.837,0.307 1.963,0.676 4.658,1.537 C -1.433,6.375 -1.525,6.296 -1.95,5.892 M 2.246,4.393 3.174,5.2 C 3.062,5.39 2.637,6.084 1.976,6.668 L 1.074,5.881 C 1.276,5.681 1.684,5.306 2.246,4.393 M 4.8,6.446 3.873,5.638 C 3.434,6.291 3.181,6.587 2.686,7.047 L 3.613,7.842 C 4.122,7.424 4.538,6.902 4.8,6.446"
       style="fill:#ffffff;fill-opacity:1;fill-rule:nonzero;stroke:none"
       transform="matrix(1.3333333,0,0,-1.3333333,510.87987,57.0008)"
       clip-path="url(#clipPath34)" />
    <path
       id="path35"
       d="m 0,0 v 6.621 l 24.916,7.617 V 24.607 L 0,16.989 v 9.284 l 24.916,7.618 v 10.343 l -67.3,-20.575 V 13.315 l 24.511,7.494 V 11.525 L -42.384,4.031 V -6.337 l 24.511,7.493 v -3.834 c 0,-12.278 -6.612,-17.245 -16.655,-20.323 l -7.856,-2.401 v -10.392 l 17.108,5.23 c 13.139,4.011 17.771,8.668 22.979,21.097 2.857,-1.136 10.619,-6.253 13.767,-9.862 l 17.693,5.409 C 23.869,-8.079 5.046,-0.988 0,0"
       style="fill:#ffffff;fill-opacity:1;fill-rule:nonzero;stroke:none"
       transform="matrix(1.3333333,0,0,-1.3333333,443.56867,176.28987)"
       clip-path="url(#clipPath36)" />
    <path
       id="path37"
       d="m 0,0 c -0.363,-2.733 -1.086,-3.956 -2.148,-4.281 -1.13,-0.345 -1.095,0.751 -1.084,1.1 l 0.016,0.517 c 0.028,0.868 0.034,2.717 -2.104,2.063 -0.904,-0.276 -1.432,-0.772 -1.73,-1.054 0.246,0.719 1.568,4.235 1.857,5.038 L -6.857,3.149 c -0.64,-1.889 -2.673,-7.91 -3.8,-11.068 l 1.514,0.07 c 0.104,0.353 0.841,2.856 0.871,2.924 0.3,0.759 1.104,2.46 2.605,2.919 0.996,0.304 0.972,-0.478 0.947,-1.248 l -0.013,-0.41 c -0.008,-0.265 0.008,-0.975 0.179,-1.364 0.271,-0.62 1.102,-0.962 2.191,-0.63 2.444,0.747 3.298,2.761 3.747,5.712 z"
       style="fill:#ffffff;fill-opacity:1;fill-rule:nonzero;stroke:none"
       transform="matrix(1.3333333,0,0,-1.3333333,454.85,110.91427)"
       clip-path="url(#clipPath38)" />
    <path
       id="path39"
       d="m 0,0 c -0.912,-0.314 -1.906,-0.664 -2.816,-0.943 l 0.002,-1.327 c 2.053,0.779 4.106,1.546 6.17,2.283 -3.005,-2.505 -3.772,-4.557 -3.817,-5.771 -0.041,-1.096 0.696,-1.977 1.864,-2.156 1.183,-0.187 2.585,-0.049 5.425,0.808 l 0.264,1.467 c -3.809,-1.27 -6.097,-1.34 -6.03,0.452 0.058,1.59 1.796,3.719 3.704,5.129 0.63,0.46 1.446,0.99 2.634,1.353 C 7.969,1.469 8.272,1.539 8.549,1.6 L 8.571,2.923 C 7.209,2.46 1.138,0.395 0,0"
       style="fill:#ffffff;fill-opacity:1;fill-rule:nonzero;stroke:none"
       transform="matrix(1.3333333,0,0,-1.3333333,404.4164,119.74307)"
       clip-path="url(#clipPath40)" />
    <path
       id="path41"
       d="m 0,0 -2.675,-0.818 c -1.75,-0.54 -3.676,-0.019 -5.005,1.945 l -6.101,9.015 -17.731,-5.421 8.028,-11.901 -21.869,-6.686 13.236,43.291 c 0.578,1.892 1.607,3.078 3.017,3.52 l 4.45,1.36 v 7.201 l -21.84,-6.677 -15.715,-51.403 c -0.608,-1.991 -1.786,-2.99 -3.039,-3.373 l -2.708,-0.828 V -31.184 L 5.82,-8.629 Z"
       style="fill:#ffffff;fill-opacity:1;fill-rule:nonzero;stroke:none"
       transform="matrix(1.3333333,0,0,-1.3333333,366.11427,177.1108)"
       clip-path="url(#clipPath42)" />
    <path
       id="path43"
       d="M 0,0 C 2.543,0.791 3.906,3.438 3.165,5.933 2.374,8.427 -0.273,9.839 -2.768,9.098 -5.312,8.356 -6.674,5.66 -5.933,3.165 -5.142,0.671 -2.495,-0.741 0,0 m -4.632,-40.156 c 6.774,10.74 7.733,17.499 8.691,24.943 0.334,2.693 1.616,4.085 3.066,4.528 l 2.694,0.824 V 0.184 L -53.256,-19.1 v -10.641 l 39.502,12.077 c -0.91,-14.037 -5.948,-32.825 -28.061,-39.586 l -11.441,-3.498 v -10.506 l 11.694,3.576 c 15.136,4.627 22.444,9.073 31.371,20.065 2.304,-1.119 5.35,-3.862 7.076,-8.312 l 17.802,5.444 c -2.506,3.076 -13.148,9.51 -19.319,10.325 M 5.219,6.575 c -0.741,2.494 0.622,5.142 3.165,5.932 2.494,0.791 5.191,-0.621 5.933,-3.165 C 15.107,6.848 13.695,4.201 11.152,3.41 8.657,2.668 6.01,4.031 5.219,6.575"
       style="fill:#ffffff;fill-opacity:1;fill-rule:nonzero;stroke:none"
       transform="matrix(1.3333333,0,0,-1.3333333,242.27893,194.97867)"
       clip-path="url(#clipPath44)" />
    <path
       id="path45"
       d="m 0,0 v -7.746 l 1.548,0.474 C 3.879,-6.56 5.014,-7.324 5.014,-8.78 v -27.512 c 0,-7.002 -2.775,-12.154 -8.702,-13.974 L -34.546,-59.7 v -10.421 l 43.151,13.194 c 8.736,2.639 14.307,10.598 14.307,20.971 v 31.699 c 0,2.192 0.746,3.744 2.934,4.413 l 1.898,0.581 v 7.745 z m -15.297,-42.188 -24.378,-7.453 v 7.73 l 2.006,0.614 c 2.159,0.66 2.938,2.281 2.938,4.44 v 15.923 c 0,1.455 -1.13,2.225 -3.464,1.511 l -1.48,-0.452 v 7.745 l 24.378,7.453 v -7.745 l -2.002,-0.613 c -2.165,-0.661 -2.942,-2.287 -2.942,-4.426 v -15.922 c 0,-1.464 1.14,-2.238 3.468,-1.526 l 1.476,0.451 z"
       style="fill:#ffffff;fill-opacity:1;fill-rule:nonzero;stroke:none"
       transform="matrix(1.3333333,0,0,-1.3333333,111.75427,189.34267)"
       clip-path="url(#clipPath46)" />
  </g>
</svg>
