<?xml version="1.0" encoding="UTF-8" standalone="no"?>
<!-- Created with Inkscape (http://www.inkscape.org/) -->

<svg
   version="1.1"
   id="svg1"
   width="666.66669"
   height="462.36932"
   viewBox="0 0 666.66669 462.36932"
   sodipodi:docname="Rhythm Tengoku Miracle Stars (リズム天国 ミラクルスターズ) (Beta) Logo (Print).ai"
   xmlns:inkscape="http://www.inkscape.org/namespaces/inkscape"
   xmlns:sodipodi="http://sodipodi.sourceforge.net/DTD/sodipodi-0.dtd"
   xmlns="http://www.w3.org/2000/svg"
   xmlns:svg="http://www.w3.org/2000/svg">
  <defs
     id="defs1">
    <clipPath
       clipPathUnits="userSpaceOnUse"
       id="clipPath2">
      <path
         d="M 0,346.777 H 500 V 0 H 0 Z"
         transform="translate(-390.98871,-203.91701)"
         id="path2" />
    </clipPath>
    <clipPath
       clipPathUnits="userSpaceOnUse"
       id="clipPath4">
      <path
         d="M 0,346.777 H 500 V 0 H 0 Z"
         transform="translate(-472.79531,-292.40131)"
         id="path4" />
    </clipPath>
    <clipPath
       clipPathUnits="userSpaceOnUse"
       id="clipPath6">
      <path
         d="M 0,346.777 H 500 V 0 H 0 Z"
         transform="translate(-463.98481,-289.73161)"
         id="path6" />
    </clipPath>
    <clipPath
       clipPathUnits="userSpaceOnUse"
       id="clipPath8">
      <path
         d="M 0,346.777 H 500 V 0 H 0 Z"
         transform="translate(-458.37791,-288.03171)"
         id="path8" />
    </clipPath>
    <clipPath
       clipPathUnits="userSpaceOnUse"
       id="clipPath10">
      <path
         d="M 0,346.777 H 500 V 0 H 0 Z"
         transform="translate(-442.44081,-170.4877)"
         id="path10" />
    </clipPath>
    <clipPath
       clipPathUnits="userSpaceOnUse"
       id="clipPath12">
      <path
         d="M 0,346.777 H 500 V 0 H 0 Z"
         transform="translate(-424.40451,-187.0729)"
         id="path12" />
    </clipPath>
    <clipPath
       clipPathUnits="userSpaceOnUse"
       id="clipPath14">
      <path
         d="M 0,346.777 H 500 V 0 H 0 Z"
         transform="translate(-348.45161,-145.09561)"
         id="path14" />
    </clipPath>
    <clipPath
       clipPathUnits="userSpaceOnUse"
       id="clipPath16">
      <path
         d="M 0,346.777 H 500 V 0 H 0 Z"
         transform="translate(-317.34661,-143.2097)"
         id="path16" />
    </clipPath>
    <clipPath
       clipPathUnits="userSpaceOnUse"
       id="clipPath18">
      <path
         d="M 0,346.777 H 500 V 0 H 0 Z"
         transform="translate(-289.83001,-122.123)"
         id="path18" />
    </clipPath>
    <clipPath
       clipPathUnits="userSpaceOnUse"
       id="clipPath20">
      <path
         d="M 0,346.777 H 500 V 0 H 0 Z"
         transform="translate(-246.0928,-119.446)"
         id="path20" />
    </clipPath>
    <clipPath
       clipPathUnits="userSpaceOnUse"
       id="clipPath22">
      <path
         d="M 0,346.777 H 500 V 0 H 0 Z"
         transform="translate(-203.40211,-117.60091)"
         id="path22" />
    </clipPath>
    <clipPath
       clipPathUnits="userSpaceOnUse"
       id="clipPath24">
      <path
         d="M 0,346.777 H 500 V 0 H 0 Z"
         transform="translate(-157.0251,-95.529905)"
         id="path24" />
    </clipPath>
    <clipPath
       clipPathUnits="userSpaceOnUse"
       id="clipPath26">
      <path
         d="M 0,346.777 H 500 V 0 H 0 Z"
         transform="translate(-112.515,-76.473304)"
         id="path26" />
    </clipPath>
    <clipPath
       clipPathUnits="userSpaceOnUse"
       id="clipPath28">
      <path
         d="M 0,346.777 H 500 V 0 H 0 Z"
         transform="translate(-407.71911,-263.24131)"
         id="path28" />
    </clipPath>
    <clipPath
       clipPathUnits="userSpaceOnUse"
       id="clipPath30">
      <path
         d="M 0,346.777 H 500 V 0 H 0 Z"
         transform="translate(-410.98761,-314.62491)"
         id="path30" />
    </clipPath>
    <clipPath
       clipPathUnits="userSpaceOnUse"
       id="clipPath32">
      <path
         d="M 0,346.777 H 500 V 0 H 0 Z"
         transform="translate(-383.15961,-304.02611)"
         id="path32" />
    </clipPath>
    <clipPath
       clipPathUnits="userSpaceOnUse"
       id="clipPath34">
      <path
         d="M 0,346.777 H 500 V 0 H 0 Z"
         transform="translate(-332.67641,-214.5596)"
         id="path34" />
    </clipPath>
    <clipPath
       clipPathUnits="userSpaceOnUse"
       id="clipPath36">
      <path
         d="M 0,346.777 H 500 V 0 H 0 Z"
         transform="translate(-341.13761,-263.59151)"
         id="path36" />
    </clipPath>
    <clipPath
       clipPathUnits="userSpaceOnUse"
       id="clipPath38">
      <path
         d="M 0,346.777 H 500 V 0 H 0 Z"
         transform="translate(-303.31231,-256.9697)"
         id="path38" />
    </clipPath>
    <clipPath
       clipPathUnits="userSpaceOnUse"
       id="clipPath40">
      <path
         d="M 0,346.777 H 500 V 0 H 0 Z"
         transform="translate(-274.58541,-213.9437)"
         id="path40" />
    </clipPath>
    <clipPath
       clipPathUnits="userSpaceOnUse"
       id="clipPath42">
      <path
         d="M 0,346.777 H 500 V 0 H 0 Z"
         transform="translate(-181.7091,-200.54321)"
         id="path42" />
    </clipPath>
    <clipPath
       clipPathUnits="userSpaceOnUse"
       id="clipPath44">
      <path
         d="M 0,346.777 H 500 V 0 H 0 Z"
         transform="translate(-83.8159,-204.76991)"
         id="path44" />
    </clipPath>
  </defs>
  <sodipodi:namedview
     id="namedview1"
     pagecolor="#ffffff"
     bordercolor="#000000"
     borderopacity="0.25"
     inkscape:showpageshadow="2"
     inkscape:pageopacity="0.0"
     inkscape:pagecheckerboard="0"
     inkscape:deskcolor="#d1d1d1">
    <inkscape:page
       x="0"
       y="0"
       inkscape:label="1"
       id="page1"
       width="666.66669"
       height="462.36932"
       margin="0"
       bleed="0" />
  </sodipodi:namedview>
  <g
     id="layer-MC0"
     inkscape:groupmode="layer"
     inkscape:label="Layer 1">
    <path
       id="path1"
       d="m 0,0 c -98.981,-54.113 -222.412,-68.284 -320.045,-106.648 l 34.819,-53.378 c 108.617,39.091 145.836,48.835 181.938,59.214 48.743,14.012 138.605,33.677 201.233,25.713 8.65,-1.1 11.066,-0.123 11.066,4.367 0,12.088 -23.622,26.501 -51.114,29.925 9.065,1.125 15.516,5.525 15.395,11.101 -0.142,6.505 -5.834,15.697 -27.901,19.369 5.36,6.484 0.43,12.721 -5.591,9.429 z"
       style="fill:#ffffff;fill-opacity:1;fill-rule:nonzero;stroke:none"
       transform="matrix(1.3333333,0,0,-1.3333333,521.31827,190.48)"
       clip-path="url(#clipPath2)" />
    <path
       id="path3"
       d="m 0,0 c -12.255,40.433 -55.202,63.34 -95.738,51.061 h -0.001 c -0.065,-0.02 -0.127,-0.039 -0.191,-0.058 -23.511,-7.188 -41.649,-24.654 -49.777,-47.117 -7.882,0.101 -15.79,-1.007 -23.383,-3.307 -0.066,-0.02 -0.131,-0.04 -0.197,-0.06 -7.204,-2.202 -14.062,-5.467 -20.302,-9.635 -19.201,13.773 -43.813,18.025 -67.019,10.995 -0.064,-0.02 -0.127,-0.039 -0.191,-0.059 -23.468,-7.175 -41.6,-24.616 -49.751,-47.043 -0.299,0.003 -0.598,0.005 -0.898,0.005 -15.731,-0.014 -30.75,-4.732 -43.454,-13.486 -19.236,13.939 -43.936,18.263 -67.304,11.184 -0.056,-0.018 -0.113,-0.035 -0.169,-0.052 -40.432,-12.362 -63.362,-55.19 -51.129,-95.559 12.247,-40.435 55.197,-63.343 95.745,-51.069 7.575,2.336 14.769,5.761 21.272,10.221 13.004,-9.351 28.792,-14.535 44.964,-14.525 18.284,0.017 36.012,6.575 49.919,18.47 10.09,8.631 17.726,19.668 22.238,31.932 7.824,-0.082 15.669,1.025 23.198,3.306 0.066,0.02 0.134,0.041 0.201,0.061 7.202,2.202 14.057,5.465 20.296,9.631 19.208,-13.769 43.822,-18.021 67.022,-10.992 0.064,0.019 0.127,0.038 0.19,0.058 23.513,7.188 41.655,24.655 49.787,47.117 7.873,-0.102 15.774,1.004 23.371,3.3 0.057,0.017 0.113,0.034 0.17,0.052 C -10.71,-83.211 12.223,-40.381 0,0"
       style="fill:#000000;fill-opacity:1;fill-rule:nonzero;stroke:none"
       transform="matrix(1.3333333,0,0,-1.3333333,630.39373,72.500933)"
       clip-path="url(#clipPath4)" />
    <path
       id="path5"
       d="m 0,0 c -10.782,35.576 -48.581,55.727 -84.259,44.92 h -0.001 c -0.055,-0.017 -0.111,-0.034 -0.168,-0.051 -22.904,-7.003 -40.017,-25.086 -45.802,-47.947 -9.146,1.043 -18.505,0.204 -27.381,-2.484 -0.06,-0.018 -0.116,-0.035 -0.174,-0.053 -8.462,-2.587 -16.381,-6.838 -23.187,-12.417 -17.498,15.32 -41.582,20.609 -64.157,13.77 -0.055,-0.017 -0.111,-0.035 -0.168,-0.052 -22.859,-6.989 -39.966,-25.038 -45.784,-47.857 -2.5,0.277 -5.022,0.417 -7.548,0.417 -16.125,-0.014 -31.403,-5.644 -43.601,-15.963 -17.527,15.555 -41.73,20.953 -64.494,14.056 -0.05,-0.015 -0.099,-0.03 -0.149,-0.045 -35.587,-10.88 -55.774,-48.567 -45.009,-84.087 10.775,-35.576 48.576,-55.73 84.265,-44.926 0.058,0.018 0.114,0.035 0.172,0.053 8.759,2.678 16.919,7.13 23.892,13.005 12.365,-10.992 28.079,-16.978 44.832,-16.966 6.924,0.006 13.622,1.041 19.939,2.973 22.224,6.794 39.716,24.679 45.602,47.833 9.077,-1.005 18.359,-0.158 27.155,2.506 0.059,0.018 0.118,0.036 0.177,0.054 8.46,2.586 16.375,6.834 23.18,12.411 17.506,-15.317 41.591,-20.603 64.16,-13.766 0.056,0.017 0.112,0.034 0.168,0.051 22.908,7.004 40.025,25.085 45.813,47.945 9.135,-1.041 18.488,-0.205 27.365,2.479 0.05,0.015 0.099,0.03 0.149,0.045 C -9.434,-73.218 10.754,-35.529 0,0"
       style="fill:#ffffff;fill-opacity:1;fill-rule:nonzero;stroke:none"
       transform="matrix(1.3333333,0,0,-1.3333333,618.6464,76.060533)"
       clip-path="url(#clipPath6)" />
    <path
       id="path7"
       d="m 0,0 c -9.862,32.541 -44.31,50.901 -76.954,41.014 -23.297,-7.059 -39.373,-26.603 -43.078,-49.046 -9.73,1.985 -20.088,1.648 -30.275,-1.437 -9.799,-2.967 -18.321,-8.148 -25.183,-14.822 -15.566,16.07 -39.397,23.07 -62.332,16.122 -23.26,-7.047 -39.318,-26.539 -43.067,-48.932 -3.921,0.779 -7.973,1.188 -12.127,1.188 -17.049,-0.015 -32.51,-6.958 -43.704,-18.147 -15.558,16.328 -39.58,23.496 -62.696,16.493 -32.641,-9.898 -51.115,-44.282 -41.252,-76.828 9.854,-32.538 44.31,-50.901 76.96,-41.017 10.124,3.066 18.883,8.499 25.862,15.493 11.248,-11.804 27.136,-19.162 44.727,-19.15 30.614,0.027 56.11,22.387 60.956,51.582 9.668,-1.934 19.946,-1.581 30.048,1.478 9.798,2.967 18.321,8.148 25.179,14.815 15.568,-16.057 39.401,-23.063 62.336,-16.115 23.302,7.06 39.38,26.599 43.09,49.044 9.73,-1.985 20.076,-1.647 30.254,1.43 C -8.615,-66.937 9.849,-32.539 0,0"
       style="fill:#000000;fill-opacity:1;fill-rule:nonzero;stroke:none"
       transform="matrix(1.3333333,0,0,-1.3333333,611.17053,78.327067)"
       clip-path="url(#clipPath8)" />
    <path
       id="path9"
       d="m 0,0 1.584,2.299 c 1.474,2.139 1.747,4.844 0.728,7.238 -1.019,2.39 -3.159,4.067 -5.723,4.486 l -5.101,0.834 -3.674,4.986 c -1.387,1.882 -3.519,2.962 -5.85,2.962 -3.579,0 -6.581,-2.536 -7.182,-6.047 -1.131,0.822 -2.502,1.302 -3.951,1.338 l -1.494,0.037 -1.168,1.559 c -1.337,1.786 -3.381,2.81 -5.606,2.81 h -0.003 c -3.409,-0.002 -6.316,-2.437 -6.91,-5.79 l -0.057,-0.322 -0.599,-0.185 c -2.453,-0.762 -4.238,-2.81 -4.656,-5.337 -0.422,-2.536 0.607,-5.051 2.682,-6.563 l 0.799,-0.582 C -51.9,2.914 -58.469,1.855 -65.446,0.487 c -2.985,-0.585 -5.109,-3.244 -5.021,-6.285 l 0.199,-6.792 c 0.017,-0.574 0.113,-1.135 0.281,-1.672 -0.373,-0.007 -0.748,-0.047 -1.12,-0.122 l -18.174,-3.702 c 0.002,0.07 0.006,0.141 0.006,0.211 l -0.008,4.868 c -0.003,1.891 -0.866,3.678 -2.346,4.856 -1.48,1.178 -3.416,1.619 -5.26,1.197 l -22.225,-5.081 c -0.349,1.285 -1.105,2.438 -2.177,3.275 -1.509,1.176 -3.476,1.592 -5.332,1.129 l -12.086,-3.017 c -2.794,-0.698 -4.744,-3.223 -4.713,-6.102 l 0.006,-0.554 c -0.699,0.057 -1.41,-0.005 -2.105,-0.191 -1.168,-0.312 -28.734,-7.683 -39.265,-10.865 -2.644,-0.799 -4.444,-3.246 -4.42,-6.008 l 0.06,-6.833 c 0.003,-0.379 0.042,-0.753 0.112,-1.119 l -8.379,-2.545 c 1.578,1.175 2.546,3.062 2.505,5.113 l -0.097,4.918 c -0.038,1.948 -0.987,3.765 -2.563,4.91 -1.576,1.145 -3.598,1.484 -5.462,0.919 l -14.283,-4.337 c -2.64,-0.802 -4.433,-3.245 -4.412,-5.998 -0.103,-0.026 -0.206,-0.054 -0.308,-0.085 l -12.084,-3.695 c -1.837,-0.561 -3.262,-1.92 -3.949,-3.624 -0.954,0.151 -1.943,0.08 -2.887,-0.225 l -18.837,-6.093 c -0.431,1.145 -1.196,2.154 -2.22,2.882 -1.639,1.165 -3.74,1.465 -5.64,0.806 l -12.071,-4.185 c -1.707,-0.592 -3.029,-1.878 -3.699,-3.476 -1.401,0.544 -2.969,0.569 -4.41,0.036 l -36.258,-13.419 c -1.772,-0.655 -3.107,-2.063 -3.708,-3.781 -1.274,0.494 -2.691,0.563 -4.03,0.162 l -8.427,-2.521 -21.465,-3.549 -29.267,30.227 -6.287,-41.573 -37.804,-18.577 37.736,-18.776 5.816,-41.682 29.614,29.988 41.329,-7.281 -12.572,24.155 5.259,1.573 c 1.72,0.514 3.082,1.729 3.823,3.274 0.777,-0.333 1.611,-0.507 2.452,-0.507 0.715,0 1.435,0.123 2.125,0.374 l 19.742,7.178 c 7.376,2.682 15.588,6.87 18.978,15.861 v -0.018 c 0.003,-1.998 0.965,-3.873 2.587,-5.039 1.072,-0.772 2.345,-1.171 3.633,-1.171 0.66,0 1.325,0.105 1.968,0.32 l 27.515,9.178 c 3.355,1.108 6.077,2.875 8.111,5.214 0.987,-0.607 2.117,-0.922 3.259,-0.922 0.604,0 1.211,0.088 1.802,0.267 l 3.974,1.204 c 3.502,1.06 6.622,3.179 9.037,5.92 0.142,-0.124 0.289,-0.242 0.443,-0.354 1.577,-1.145 3.598,-1.485 5.463,-0.919 l 9.308,2.827 c 6.51,1.976 11.75,5.257 15.642,9.771 0.423,-0.835 1.035,-1.574 1.803,-2.152 1.09,-0.822 2.407,-1.252 3.742,-1.252 0.555,0 1.113,0.074 1.66,0.225 l 7.207,1.995 c 7.794,2.157 12.803,4.522 17.31,8.513 1.53,-1.791 4.003,-2.613 6.389,-1.954 l 10.973,3.037 c 1.233,0.341 2.31,1.049 3.108,2.001 0.622,-0.203 1.273,-0.31 1.93,-0.31 0.494,0 0.992,0.059 1.482,0.179 l 27.516,6.753 c 7.187,1.741 11.586,6.445 12.692,13.426 l 22.185,4.42 -0.002,-3.343 c 0,-1.823 0.799,-3.554 2.186,-4.737 1.134,-0.965 2.566,-1.485 4.034,-1.485 0.329,0 0.66,0.026 0.99,0.079 l 7.23,1.166 c 7.214,1.162 12.499,2.631 17.525,6.25 1.243,-1.877 3.44,-2.972 5.758,-2.76 l 11.431,1.053 c 2.157,0.199 4.055,1.505 5.011,3.448 0.956,1.943 0.832,4.244 -0.326,6.073 -1.636,2.585 -5.232,5.669 -8.857,8.076 1.297,2.789 1.977,5.298 2.343,7.623 1.272,-0.963 2.854,-1.53 4.555,-1.53 1.569,0 3.078,0.482 4.368,1.399 l 2.081,1.48 3.895,-1.974 c 1.004,-0.51 2.125,-0.78 3.242,-0.78 2.399,0 4.627,1.2 5.959,3.21 1.324,1.998 1.555,4.511 0.618,6.726 z"
       style="fill:#ffffff;fill-opacity:1;fill-rule:nonzero;stroke:none"
       transform="matrix(1.3333333,0,0,-1.3333333,589.92107,235.0524)"
       clip-path="url(#clipPath10)" />
    <path
       id="path11"
       d="M 0,0 C 0.339,0 0.638,-0.153 0.844,-0.432 L 5.637,-6.937 C 5.884,-7.273 6.248,-7.495 6.659,-7.563 L 13.622,-8.7 c 0.45,-0.074 0.826,-0.368 1.005,-0.788 0.178,-0.419 0.131,-0.894 -0.128,-1.269 l -3.026,-4.392 c -0.31,-0.449 -0.368,-1.018 -0.155,-1.52 l 2.997,-7.081 c 0.169,-0.399 0.025,-0.714 -0.075,-0.865 -0.174,-0.263 -0.471,-0.426 -0.775,-0.426 -0.143,0 -0.285,0.035 -0.422,0.104 l -6.4,3.244 c -0.222,0.112 -0.47,0.171 -0.718,0.171 -0.332,0 -0.65,-0.102 -0.921,-0.294 l -4.362,-3.103 c -0.227,-0.162 -0.491,-0.247 -0.762,-0.247 -0.673,0 -1.24,0.502 -1.319,1.168 l -0.806,6.731 c -0.05,0.424 -0.274,0.815 -0.613,1.074 l -6.442,4.912 c -0.331,0.252 -0.478,0.647 -0.395,1.055 0.084,0.407 0.375,0.712 0.779,0.813 l 5.953,1.498 c 0.517,0.13 0.903,0.554 0.985,1.08 l 0.923,5.938 C -0.959,-0.281 -0.441,0 0,0 m -19.401,-0.303 v 0 c 0.252,0 0.475,-0.113 0.629,-0.319 l 2.591,-3.459 c 0.244,-0.326 0.618,-0.52 1.026,-0.53 l 3.868,-0.096 c 0.295,-0.007 0.551,-0.168 0.686,-0.43 0.135,-0.261 0.117,-0.563 -0.047,-0.808 l -1.932,-2.863 c -0.264,-0.391 -0.299,-0.897 -0.092,-1.321 l 1.9,-3.889 c 0.082,-0.168 0.073,-0.353 -0.024,-0.509 -0.098,-0.157 -0.269,-0.255 -0.446,-0.255 -0.062,0 -0.125,0.012 -0.187,0.034 l -4.036,1.471 c -0.145,0.053 -0.298,0.08 -0.453,0.08 -0.301,0 -0.597,-0.104 -0.831,-0.294 l -2.402,-1.94 c -0.144,-0.116 -0.315,-0.177 -0.495,-0.177 -0.348,0 -0.731,0.238 -0.791,0.692 l -0.528,4.009 c -0.047,0.357 -0.241,0.684 -0.533,0.896 l -3.782,2.757 c -0.165,0.121 -0.244,0.313 -0.21,0.515 0.033,0.201 0.17,0.358 0.365,0.418 l 3.447,1.069 c 0.475,0.148 0.824,0.543 0.911,1.033 l 0.578,3.26 c 0.08,0.45 0.465,0.656 0.788,0.656 m 3.804,-39.558 c 4.191,5.973 4.905,10.201 5.092,14.285 0.075,1.643 1.123,2.511 2.02,2.577 l 1.432,0.106 0.002,6.15 c 0,0 -17.764,-1.265 -39.162,-5.458 l 0.199,-6.793 c 19.232,3.344 24.269,3.914 24.269,3.914 -0.397,-11.04 -5.627,-20.088 -16.959,-21.914 l -7.074,-1.14 -0.003,-6.511 7.231,1.166 c 9.359,1.508 13.878,3.301 19.4,9.213 1.424,-0.926 3.235,-2.739 4.302,-5.669 l 11.431,1.053 c -1.766,2.789 -8.329,7.575 -12.18,9.021"
       style="fill:#000000;fill-opacity:1;fill-rule:nonzero;stroke:none"
       transform="matrix(1.3333333,0,0,-1.3333333,565.87267,212.9388)"
       clip-path="url(#clipPath12)" />
    <path
       id="path13"
       d="m 0,0 v -7.753 l 24.124,4.807 v 7.859 z"
       style="fill:#000000;fill-opacity:1;fill-rule:nonzero;stroke:none"
       transform="matrix(1.3333333,0,0,-1.3333333,464.60213,268.90853)"
       clip-path="url(#clipPath14)" />
    <path
       id="path15"
       d="m 0,0 -0.004,2.585 13.951,3.167 c 0.869,0.197 1.573,-0.34 1.582,-1.206 L 15.6,-2.357 c 0,0 -7.927,1.91 -15.6,2.357 m 29.592,14.261 -29.604,-6.768 -0.01,6.119 -12.086,-3.017 0.053,-4.889 0.875,0.215 c 1.452,0.356 2.155,-0.172 2.156,-1.086 l 0.016,-9.767 c 0.002,-1.358 -0.481,-2.357 -1.823,-2.686 l -1.388,-0.34 0.056,-5.111 7.471,1.835 c 2.597,0.638 4.687,3.452 4.688,6.321 6.263,-1.29 15.491,-4.736 15.491,-4.736 -0.006,-2.675 -1.338,-4.157 -4.425,-4.92 l -19.889,-4.877 0.011,-6.548 27.534,6.757 c 5.433,1.316 8.339,4.895 8.21,11.446 L 26.646,6.485 c -0.009,1.381 0.536,2.328 1.897,2.639 l 1.056,0.27 z"
       style="fill:#000000;fill-opacity:1;fill-rule:nonzero;stroke:none"
       transform="matrix(1.3333333,0,0,-1.3333333,423.1288,271.42307)"
       clip-path="url(#clipPath16)" />
    <path
       id="path17"
       d="m 0,0 c 4.124,6.561 4.677,10.755 5.225,15.377 0.191,1.672 0.972,2.316 1.866,2.563 l 1.661,0.46 -0.056,6.461 c 0,0 -28.517,-7.62 -39.071,-10.81 l 0.059,-6.833 24.541,6.788 C -6.255,5.273 -9.255,-6.141 -22.886,-9.913 l -7.052,-1.952 0.062,-6.55 7.208,1.996 c 9.33,2.581 13.822,5.207 19.275,11.881 1.431,-0.744 3.331,-2.514 4.424,-5.323 l 10.973,3.037 C 10.437,-4.856 3.82,-0.631 0,0"
       style="fill:#000000;fill-opacity:1;fill-rule:nonzero;stroke:none"
       transform="matrix(1.3333333,0,0,-1.3333333,386.44,299.53867)"
       clip-path="url(#clipPath18)" />
    <path
       id="path19"
       d="M 0,0 C 0,0 -0.566,-11.581 -7.394,-15.244 L -7.846,8.201 c -0.021,1.121 0.851,2.293 1.954,2.628 l 1.114,0.338 -0.097,4.918 -14.283,-4.337 0.717,-36.948 9.308,2.827 c 14.956,4.541 18.042,15.572 19.824,25.62 z m -23.866,5.668 0.24,-22.382 c 0.058,-5.581 -4.248,-11.464 -9.754,-13.132 l -3.974,-1.203 -0.07,6.381 c 2.662,0.806 4.784,3.637 4.755,6.336 l -0.15,14.197 c -0.011,1.121 -0.91,1.754 -2.018,1.418 l -1.061,-0.321 -0.053,5.012 z"
       style="fill:#000000;fill-opacity:1;fill-rule:nonzero;stroke:none"
       transform="matrix(1.3333333,0,0,-1.3333333,328.12373,303.108)"
       clip-path="url(#clipPath20)" />
    <path
       id="path21"
       d="m 0,0 -26.564,-8.593 -0.01,6.23 -12.071,-4.186 0.008,-5.025 0.955,0.316 c 1.45,0.471 2.152,-0.001 2.154,-0.914 l 0.015,-9.83 c 0.003,-1.356 -0.48,-2.381 -1.821,-2.817 l -1.281,-0.423 0.008,-4.984 7.369,2.394 c 2.597,0.844 4.698,3.854 4.693,6.723 l -0.011,7.668 13.883,4.476 c 0.868,0.28 1.573,-0.189 1.584,-1.053 l 0.156,-12.12 c 0.056,-4.44 -1.013,-6.224 -4.695,-7.49 l -19.898,-6.811 0.01,-6.556 27.534,9.185 c 5.425,1.791 8.236,5.93 8.177,12.397 z"
       style="fill:#000000;fill-opacity:1;fill-rule:nonzero;stroke:none"
       transform="matrix(1.3333333,0,0,-1.3333333,271.2028,305.56813)"
       clip-path="url(#clipPath22)" />
    <path
       id="path23"
       d="m 0,0 -37.923,-13.787 -0.035,-6.435 28.319,10.501 c 0.012,-7.717 -0.252,-12.356 -10.613,-16.123 l -15.858,-5.78 -0.094,-6.485 19.743,7.179 c 10.902,3.963 16.495,9.15 16.479,19.496 z m -36.501,-9.197 -0.012,7.904 36.258,13.419 0.012,-7.904 z"
       style="fill:#000000;fill-opacity:1;fill-rule:nonzero;stroke:none"
       transform="matrix(1.3333333,0,0,-1.3333333,209.3668,334.99613)"
       clip-path="url(#clipPath24)" />
    <path
       id="path25"
       d="M 0,0 -32.342,-9.675 -32.21,-17.208 0,-7.572 Z m -32.093,-24.184 0.131,-7.532 32.211,9.636 v 7.572 z m 31.976,30.63 -32.342,-9.675 -0.132,7.533 32.474,9.714 z"
       style="fill:#000000;fill-opacity:1;fill-rule:nonzero;stroke:none"
       transform="matrix(1.3333333,0,0,-1.3333333,150.02,360.40493)"
       clip-path="url(#clipPath26)" />
    <path
       id="path27"
       d="M 0,0 V 5.665 L 4.014,6.892 V 1.227 Z m 4.014,-6.506 -25.12,-7.68 v 4.614 l 4.434,1.356 c 1.812,0.554 2.885,1.997 2.885,4.387 v 8.398 l -7.319,-2.238 v 4.986 l 7.319,2.237 v 8.6 c 0,0.998 -0.601,2.342 -3.365,1.497 l -3.954,-1.209 v 4.644 l 25.12,7.681 v -4.645 l -4.385,-1.341 c -1.874,-0.573 -2.934,-1.97 -2.934,-4.392 v -7.63 l 7.319,2.238 V 10.011 L -3.305,7.773 v -9.367 c 0,-1.475 1.133,-2.189 3.414,-1.492 l 3.905,1.194 z m 6.631,1.933 c 0,-2.335 -1.275,-3.894 -3.034,-4.421 l -35.354,-10.809 v 40.312 c -0.001,2.181 1.132,3.847 3.033,4.422 L 10.645,35.74 Z m -52.638,31.93 V -31.851 L 24.901,-11.4 v 59.209 z"
       style="fill:#ffffff;fill-opacity:1;fill-rule:nonzero;stroke:none"
       transform="matrix(1.3333333,0,0,-1.3333333,543.62547,111.38093)"
       clip-path="url(#clipPath28)" />
    <path
       id="path29"
       d="m 0,0 c -0.38,0.08 -0.97,0.207 -0.959,0.518 0.009,0.261 0.283,0.541 0.952,1.2 C 2.659,4.364 2.96,4.665 4.895,6.78 L 3.5,7.275 C 2.535,6.12 2.166,5.725 -0.602,2.827 -2.026,1.334 -2.716,0.509 -2.737,-0.099 -2.765,-0.894 -1.821,-1.122 -0.76,-1.375 1.217,-1.84 3.096,-2.457 4.85,-3.273 l 1.357,1.435 C 5.027,-1.24 1.927,-0.394 0,0"
       style="fill:#ffffff;fill-opacity:1;fill-rule:nonzero;stroke:none"
       transform="matrix(1.3333333,0,0,-1.3333333,547.98347,42.869467)"
       clip-path="url(#clipPath30)" />
    <path
       id="path31"
       d="m 0,0 c -1.962,-0.6 -4.472,-1.342 -4.433,0.292 0.006,0.264 0.081,1.198 1.203,2.551 L -4.271,3.274 C -5.25,1.951 -5.845,0.983 -5.872,-0.173 c -0.024,-0.993 0.646,-1.736 1.539,-1.875 1.1,-0.175 2.209,0.051 4.784,0.839 2.027,0.619 2.945,1.012 3.404,1.215 L 3.836,1.398 C 2.564,0.834 1.281,0.392 0,0 m -1.95,5.892 0.921,-0.604 c 1.537,1.356 2.714,2.24 4.368,3.02 L 3.369,9.54 C 2.532,9.284 -1.6,8.008 -2.529,7.724 -3.183,7.524 -4.804,7.029 -5.197,6.921 l -0.034,-1.42 c 0.838,0.306 1.964,0.675 4.659,1.536 C -1.432,6.375 -1.525,6.297 -1.95,5.892 M 2.246,4.393 3.174,5.2 C 3.062,5.391 2.637,6.084 1.976,6.668 L 1.075,5.881 C 1.277,5.681 1.683,5.306 2.246,4.393 M 4.8,6.446 3.873,5.639 C 3.434,6.291 3.181,6.588 2.686,7.047 L 3.614,7.843 C 4.123,7.424 4.538,6.903 4.8,6.446"
       style="fill:#ffffff;fill-opacity:1;fill-rule:nonzero;stroke:none"
       transform="matrix(1.3333333,0,0,-1.3333333,510.87947,57.0012)"
       clip-path="url(#clipPath32)" />
    <path
       id="path33"
       d="m 0,0 v 6.62 l 24.916,7.618 V 24.607 L 0,16.989 v 9.284 l 24.916,7.618 V 44.234 L -42.383,23.659 V 13.316 l 24.51,7.493 V 11.525 L -42.383,4.031 V -6.337 l 24.51,7.493 v -3.834 c 0,-12.278 -6.613,-17.245 -16.655,-20.323 l -7.855,-2.401 v -10.392 l 17.107,5.23 c 13.139,4.011 17.771,8.667 22.979,21.097 2.857,-1.136 10.619,-6.253 13.767,-9.862 l 17.693,5.409 C 23.869,-8.079 5.046,-0.988 0,0"
       style="fill:#ffffff;fill-opacity:1;fill-rule:nonzero;stroke:none"
       transform="matrix(1.3333333,0,0,-1.3333333,443.56853,176.28987)"
       clip-path="url(#clipPath34)" />
    <path
       id="path35"
       d="m 0,0 c -0.363,-2.733 -1.086,-3.956 -2.149,-4.281 -1.129,-0.345 -1.094,0.751 -1.083,1.1 l 0.016,0.517 c 0.028,0.867 0.034,2.717 -2.104,2.063 -0.903,-0.276 -1.432,-0.772 -1.73,-1.054 0.246,0.719 1.568,4.235 1.857,5.038 L -6.858,3.149 c -0.64,-1.889 -2.673,-7.91 -3.799,-11.068 l 1.514,0.07 c 0.104,0.353 0.841,2.856 0.87,2.924 0.301,0.759 1.105,2.459 2.606,2.918 0.996,0.305 0.971,-0.477 0.947,-1.248 l -0.013,-0.409 c -0.009,-0.265 0.008,-0.975 0.179,-1.364 0.271,-0.62 1.102,-0.963 2.191,-0.63 2.443,0.747 3.297,2.761 3.746,5.712 z"
       style="fill:#ffffff;fill-opacity:1;fill-rule:nonzero;stroke:none"
       transform="matrix(1.3333333,0,0,-1.3333333,454.85013,110.914)"
       clip-path="url(#clipPath36)" />
    <path
       id="path37"
       d="m 0,0 c -0.912,-0.314 -1.906,-0.664 -2.817,-0.943 l 0.003,-1.327 c 2.054,0.779 4.106,1.546 6.171,2.282 -3.006,-2.504 -3.773,-4.556 -3.818,-5.77 -0.041,-1.096 0.696,-1.977 1.865,-2.156 1.182,-0.187 2.584,-0.049 5.424,0.808 l 0.263,1.467 c -3.808,-1.27 -6.096,-1.34 -6.03,0.452 0.059,1.59 1.797,3.719 3.704,5.129 0.631,0.46 1.447,0.99 2.636,1.353 C 7.969,1.469 8.272,1.539 8.549,1.6 L 8.571,2.923 C 7.209,2.46 1.138,0.394 0,0"
       style="fill:#ffffff;fill-opacity:1;fill-rule:nonzero;stroke:none"
       transform="matrix(1.3333333,0,0,-1.3333333,404.4164,119.74307)"
       clip-path="url(#clipPath38)" />
    <path
       id="path39"
       d="m 0,0 -2.674,-0.818 c -1.75,-0.54 -3.677,-0.019 -5.006,1.945 l -6.101,9.015 -17.73,-5.421 8.027,-11.901 -21.868,-6.686 13.235,43.292 c 0.579,1.892 1.608,3.077 3.017,3.519 l 4.45,1.36 v 7.201 l -21.84,-6.677 -15.715,-51.403 c -0.609,-1.991 -1.786,-2.99 -3.039,-3.373 l -2.707,-0.828 V -31.184 L 5.82,-8.629 Z"
       style="fill:#ffffff;fill-opacity:1;fill-rule:nonzero;stroke:none"
       transform="matrix(1.3333333,0,0,-1.3333333,366.11387,177.11107)"
       clip-path="url(#clipPath40)" />
    <path
       id="path41"
       d="M 0,0 C 2.543,0.791 3.906,3.438 3.165,5.933 2.374,8.427 -0.273,9.839 -2.768,9.098 -5.311,8.356 -6.674,5.659 -5.933,3.165 -5.142,0.67 -2.494,-0.742 0,0 m -4.632,-40.157 c 6.774,10.741 7.733,17.499 8.691,24.943 0.334,2.694 1.616,4.086 3.066,4.529 L 9.82,-9.861 V 0.184 l -63.076,-19.285 v -10.64 l 39.502,12.077 c -0.91,-14.038 -5.948,-32.826 -28.061,-39.586 l -11.441,-3.498 v -10.506 l 11.694,3.576 c 15.136,4.627 22.444,9.072 31.371,20.064 2.304,-1.119 5.35,-3.861 7.076,-8.311 l 17.802,5.443 c -2.506,3.077 -13.148,9.511 -19.319,10.325 M 5.219,6.574 c -0.741,2.495 0.622,5.142 3.165,5.933 2.495,0.791 5.191,-0.621 5.933,-3.165 C 15.107,6.848 13.695,4.2 11.152,3.41 8.657,2.668 6.01,4.031 5.219,6.574"
       style="fill:#ffffff;fill-opacity:1;fill-rule:nonzero;stroke:none"
       transform="matrix(1.3333333,0,0,-1.3333333,242.2788,194.9784)"
       clip-path="url(#clipPath42)" />
    <path
       id="path43"
       d="m 0,0 v -7.745 l 1.548,0.473 c 2.33,0.712 3.466,-0.052 3.466,-1.508 v -27.511 c 0,-7.003 -2.775,-12.154 -8.703,-13.975 L -34.546,-59.7 v -10.42 l 43.151,13.193 c 8.735,2.639 14.307,10.599 14.307,20.972 v 31.698 c 0,2.192 0.746,3.744 2.934,4.413 l 1.898,0.581 v 7.745 z m -15.298,-42.188 -24.377,-7.453 v 7.73 l 2.006,0.614 c 2.159,0.66 2.937,2.281 2.937,4.441 v 15.922 c 0,1.455 -1.129,2.225 -3.463,1.511 l -1.48,-0.452 v 7.745 l 24.377,7.453 v -7.745 l -2.002,-0.612 c -2.164,-0.662 -2.941,-2.288 -2.941,-4.427 v -15.923 c 0,-1.464 1.14,-2.237 3.467,-1.525 l 1.476,0.451 z"
       style="fill:#ffffff;fill-opacity:1;fill-rule:nonzero;stroke:none"
       transform="matrix(1.3333333,0,0,-1.3333333,111.75453,189.3428)"
       clip-path="url(#clipPath44)" />
  </g>
</svg>
